<svg xmlns="http://www.w3.org/2000/svg" width="364.384" height="324.644" viewBox="0 0 364.384 324.644">
  <g id="Grupo_57736" data-name="Grupo 57736" transform="translate(-951.623 -174.211)">
    <g id="Grupo_54816" data-name="Grupo 54816" transform="translate(847.205 -1643.322)">
      <g id="Grupo_54482" data-name="Grupo 54482">
        <path id="Trazado_100598" data-name="Trazado 100598" d="M310.267,1826.224c53.613.472,175.628,241.182,129.41,295.531S91.67,2113.238,104.836,2035.6,256.655,1825.754,310.267,1826.224Z" fill="#fff" opacity="0.2" style="isolation: isolate"/>
        <path id="Trazado_100599" data-name="Trazado 100599" d="M345.114,1818.942s137.338,115.082,121.393,293.946" fill="none" stroke="#fff" stroke-linecap="round" stroke-linejoin="round" stroke-width="2" stroke-dasharray="12"/>
      </g>
    </g>
    <g id="Grupo_54848" data-name="Grupo 54848" transform="translate(-212.15 -478.435)">
      <g id="Grupo_54850" data-name="Grupo 54850" transform="translate(1316.572 760.858)">
        <g id="Grupo_54848-2" data-name="Grupo 54848" transform="translate(24.62 69.618)">
          <path id="Trazado_104464" data-name="Trazado 104464" d="M1429.763,899.023l.134,9.028,1.3,88.421h2.137l1.526-90.076.13-7.611Z" transform="translate(-1419.098 -898.785)" fill="#875b4b"/>
          <path id="Trazado_104465" data-name="Trazado 104465" d="M1429.763,899.023l.134,9.028,4.964-1.656.13-7.611Z" transform="translate(-1419.098 -898.785)" fill="#875b4b" opacity="0.5" style="mix-blend-mode: multiply;isolation: isolate"/>
          <path id="Trazado_104466" data-name="Trazado 104466" d="M1424.956,1062.982l13.068,3.032h-26.449Z" transform="translate(-1411.575 -966.7)" fill="#875b4b"/>
        </g>
        <g id="Grupo_54849" data-name="Grupo 54849">
          <path id="Trazado_104467" data-name="Trazado 104467" d="M1419.1,813.5c-2.09,15.012-5.649,37.626-5.649,37.626s-.255.046-.719.117c-3.162.506-1.744,4.185-10.91,2.659-1.781-.3-4.963-10.527-6.36-11.117-.172-5.754-16.363-24.827-16.363-24.827s-.192-.322-.531-.861c-1.477-2.379-5.746-9.011-8.778-11.5,1.167-2.886,3.663-5.812,6.49-8.439,5.791-5.373,10.427-6.332,10.427-6.332l1.4-10.6,10.492-.171,3.647,8.734s11.046,5.019,15.746,8.983c1.455,1.225,2.45,2.228,2.572,2.747C1420.727,801.218,1420.075,806.546,1419.1,813.5Z" transform="translate(-1369.674 -780.06)" fill="#f1dec1"/>
          <path id="Trazado_104468" data-name="Trazado 104468" d="M1369.709,822.05c-1.265,4.872,7.771,15.023,11.508,12.693C1384.934,832.425,1371.941,813.451,1369.709,822.05Z" transform="translate(-1369.589 -796.509)" fill="#dbb49b"/>
          <path id="Trazado_104469" data-name="Trazado 104469" d="M1422.57,797.777c-3.316,2.989-9.107,7.18-16.158,7.916-8.915.932-21.008-5.766-25.549-8.531,5.791-5.373,10.427-6.332,10.427-6.332l1.4-10.6,10.492-.171,3.647,8.734S1417.87,793.812,1422.57,797.777Z" transform="translate(-1374.252 -780.06)" fill="#f1dec1" opacity="0.3" style="mix-blend-mode: screen;isolation: isolate"/>
          <path id="Trazado_104470" data-name="Trazado 104470" d="M1454.711,814.959s3.717,5.48-1.46,12.976C1450.58,825.052,1454.711,814.959,1454.711,814.959Z" transform="translate(-1403.821 -794.495)" fill="#f1dec1"/>
        </g>
      </g>
      <g id="Grupo_54854" data-name="Grupo 54854" transform="translate(1347.764 747.628)">
        <g id="Grupo_54851" data-name="Grupo 54851" transform="translate(0 0)">
          <path id="Trazado_104471" data-name="Trazado 104471" d="M1447.484,931.723h3.6l-1.045-164.217-.034-5.262v-.178l-1.438-.359,0,.406-.034,5.461Z" transform="translate(-1432.999 -759.239)" fill="#434752"/>
          <path id="Trazado_104472" data-name="Trazado 104472" d="M1454.885,1057l1.027-5.347h-33.131l1.284,5.347,1.541-3.293h27.737Z" transform="translate(-1422.782 -879.164)" fill="#434752"/>
          <path id="Trazado_104473" data-name="Trazado 104473" d="M1446.341,759.965a2.468,2.468,0,1,1,3.2,2.357l.022,3.443-1.51.067.022-3.512A2.468,2.468,0,0,1,1446.341,759.965Z" transform="translate(-1432.526 -757.498)" fill="#cde2e7"/>
        </g>
        <g id="Grupo_54852" data-name="Grupo 54852" transform="translate(16.214 9.218)">
          <path id="Trazado_104474" data-name="Trazado 104474" d="M1570.057,776.21l2.4-.185-2.032,145.965-19.031,2.217,1.109-145.965Z" transform="translate(-1492.192 -774.379)" fill="#08938f"/>
          <path id="Trazado_104475" data-name="Trazado 104475" d="M1524.694,776.21l2.4-.185-2.032,145.965-19.031,2.217,1.109-145.965Z" transform="translate(-1473.43 -774.379)" fill="#339ce9"/>
          <path id="Trazado_104476" data-name="Trazado 104476" d="M1532.129,776.7l-81.417,2.283-.28,1.826,81.7-1.826Z" transform="translate(-1450.432 -774.659)" fill="#fff5cd"/>
          <path id="Trazado_104477" data-name="Trazado 104477" d="M1553.165,776.315l.068,23.678.156,56.216,1.836.114,4.255.267,4.869.3-1.261-74.759.013-5.714-6.886-.072-2.483-.03Z" transform="translate(-1492.924 -774.499)" fill="#6cdcd9"/>
          <path id="Trazado_104478" data-name="Trazado 104478" d="M1553.281,800l.156,56.216,1.836.114.99-79.974-2.483-.03Z" transform="translate(-1492.972 -774.502)" fill="#0ac4bf" opacity="0.5" style="mix-blend-mode: multiply;isolation: isolate"/>
          <path id="Trazado_104479" data-name="Trazado 104479" d="M1563.935,856.75l4.868.3-1.26-74.759-.11-5.592Z" transform="translate(-1497.379 -774.66)" fill="#0ac4bf" opacity="0.5" style="mix-blend-mode: multiply;isolation: isolate"/>
          <path id="Trazado_104480" data-name="Trazado 104480" d="M1577.865,774.756c.228.685-.913,84.461-.913,84.461l-8.218-.228.684-84Z" transform="translate(-1499.364 -773.854)" fill="#6cdcd9"/>
          <path id="Trazado_104481" data-name="Trazado 104481" d="M1552.259,773.218,1550.62,859.4l-4.842-1.167V774.3Z" transform="translate(-1489.869 -773.218)" fill="#6cdcd9"/>
          <path id="Trazado_104482" data-name="Trazado 104482" d="M1479.036,776.21l2.4-.185-2.032,145.965-19.031,2.217,1.109-145.965Z" transform="translate(-1454.544 -774.379)" fill="#8f2b58"/>
          <path id="Trazado_104483" data-name="Trazado 104483" d="M1462.144,776.315l.068,23.678.156,56.216,1.836.114,4.255.267,4.868.3-1.26-74.759.013-5.714-6.886-.072-2.483-.03Z" transform="translate(-1455.276 -774.499)" fill="#cc6191"/>
          <path id="Trazado_104484" data-name="Trazado 104484" d="M1462.26,800l.156,56.216,1.836.114.99-79.974-2.483-.03Z" transform="translate(-1455.324 -774.502)" fill="#bc809b" opacity="0.5" style="mix-blend-mode: multiply;isolation: isolate"/>
          <path id="Trazado_104485" data-name="Trazado 104485" d="M1472.913,856.75l4.869.3-1.26-74.759-.11-5.592Z" transform="translate(-1459.731 -774.66)" fill="#bc809b" opacity="0.5" style="mix-blend-mode: multiply;isolation: isolate"/>
          <path id="Trazado_104486" data-name="Trazado 104486" d="M1486.843,774.756c.228.685-.913,84.461-.913,84.461l-8.218-.228.685-84Z" transform="translate(-1461.716 -773.854)" fill="#cc6191"/>
          <path id="Trazado_104487" data-name="Trazado 104487" d="M1461.238,773.218,1459.6,859.4l-4.842-1.167V774.3Z" transform="translate(-1452.221 -773.218)" fill="#cc6191"/>
          <path id="Trazado_104488" data-name="Trazado 104488" d="M1507.8,776.315l.068,23.678.156,56.216,1.836.114,4.255.267,4.868.3-1.26-74.759.013-5.714-6.886-.072-2.483-.03Z" transform="translate(-1474.162 -774.499)" fill="#85c4f2"/>
          <path id="Trazado_104489" data-name="Trazado 104489" d="M1507.918,800l.156,56.216,1.836.114.99-79.974-2.483-.03Z" transform="translate(-1474.209 -774.502)" fill="#5cb0ed"/>
          <path id="Trazado_104490" data-name="Trazado 104490" d="M1518.572,856.75l4.868.3-1.26-74.759-.11-5.592Z" transform="translate(-1478.616 -774.66)" fill="#5cb0ed"/>
          <path id="Trazado_104491" data-name="Trazado 104491" d="M1532.5,774.756c.228.685-.914,84.461-.914,84.461l-8.218-.228.685-84Z" transform="translate(-1480.601 -773.854)" fill="#85c4f2"/>
          <path id="Trazado_104492" data-name="Trazado 104492" d="M1506.9,773.218l-1.638,86.186-4.842-1.167V774.3Z" transform="translate(-1471.106 -773.218)" fill="#85c4f2"/>
        </g>
        <g id="Grupo_54853" data-name="Grupo 54853" transform="translate(81.43 0)">
          <path id="Trazado_104493" data-name="Trazado 104493" d="M1586.353,931.723h3.6L1588.9,767.507l-.034-5.262v-.178l-1.438-.359,0,.406-.034,5.461Z" transform="translate(-1571.868 -759.239)" fill="#434752"/>
          <path id="Trazado_104494" data-name="Trazado 104494" d="M1593.754,1057l1.027-5.347H1561.65l1.284,5.347,1.541-3.293h27.737Z" transform="translate(-1561.65 -879.164)" fill="#434752"/>
          <path id="Trazado_104495" data-name="Trazado 104495" d="M1585.21,759.965a2.467,2.467,0,1,1,3.2,2.357l.022,3.443-1.51.067.022-3.512A2.468,2.468,0,0,1,1585.21,759.965Z" transform="translate(-1571.395 -757.498)" fill="#cde2e7"/>
        </g>
      </g>
      <g id="Grupo_54877" data-name="Grupo 54877" transform="translate(1241.41 733.635)">
        <path id="Trazado_104496" data-name="Trazado 104496" d="M1356.245,806.786s1.738-1.771,2.112-2.155a21.449,21.449,0,0,0,1.3-2.8c.3-.575.769.748.648,1.3a9.183,9.183,0,0,1-1.179,1.954s3.328-1.141,3.76-.989-.822,1.916-.822,1.916-.8,3.432-1.706,3.585-4.4-1.418-4.4-1.418Z" transform="translate(-1288.79 -761.784)" fill="#eba87f"/>
        <path id="Trazado_104497" data-name="Trazado 104497" d="M1292.784,805.014c1.514,1.682,18.505,19.346,18.505,19.346l-1.177,9.42-16.318-15.645Z" transform="translate(-1262.659 -763.159)" fill="#728cb1"/>
        <g id="Grupo_54860" data-name="Grupo 54860">
          <path id="Trazado_104498" data-name="Trazado 104498" d="M1267.655,769.321l.5,15.384,5.055,1.683,1.966-.721-1.495-8.894L1270,769.681Z" transform="translate(-1252.266 -748.395)" fill="#eba87f"/>
          <g id="Grupo_54858" data-name="Grupo 54858" transform="translate(0 33.593)">
            <path id="Trazado_104499" data-name="Trazado 104499" d="M1297.475,900.485c0,2.622-3.989,20.6-7.969,41.586-3.037,15.979-6.07,33.706-7.334,47.715a8.84,8.84,0,0,1-2.622-.309s-2.58-31.913,4.069-44.288c1.848-15.333,1.848-38.609,1.848-38.609l0-.025,2.508-19.473,4.69-2.669,3.777,7.368A40.131,40.131,0,0,1,1297.475,900.485Z" transform="translate(-1256.981 -829.592)" fill="#8f7581"/>
            <path id="Trazado_104500" data-name="Trazado 104500" d="M1289.506,956.535c-3.037,15.98-6.07,33.706-7.334,47.715a8.84,8.84,0,0,1-2.622-.309s-2.58-31.913,4.069-44.288c1.848-15.333,1.848-38.609,1.848-38.609l0-.025,1.1-1.637c-.977,9.982-1.62,29.494,0,35.838C1287.222,957.761,1288.407,957.757,1289.506,956.535Z" transform="translate(-1256.981 -844.055)" fill="#8f7581" opacity="0.3" style="mix-blend-mode: multiply;isolation: isolate"/>
            <path id="Trazado_104501" data-name="Trazado 104501" d="M1275.069,888.949s-1.353,11.649-2.571,16.623c-.114.474-.229.884-.342,1.222-.7,2.1-2,5.558-3.6,10.079-1.353,3.824-2.922,8.4-4.53,13.565-.761,2.441-2.081,6.691-3.68,11.851-5.807,18.7-15.315,49.373-15.315,49.373l-2.627-.309s2.411-25.445,5-35.051,7.021-12.376,7.021-12.376.279-4.01.656-9.483c.732-10.638,1.836-26.816,2.013-29.866.267-4.619,2.771-12.156,2.771-12.156Z" transform="translate(-1241.821 -831.468)" fill="#8f7581"/>
            <path id="Trazado_104502" data-name="Trazado 104502" d="M1260.345,974.38c-5.807,18.7-15.315,49.373-15.315,49.373l-2.627-.309s2.411-25.445,5-35.051,7.021-12.376,7.021-12.376.279-4.01.656-9.483C1255.727,975.129,1257.88,977.155,1260.345,974.38Z" transform="translate(-1241.821 -863.559)" fill="#8f7581" opacity="0.3" style="mix-blend-mode: multiply;isolation: isolate"/>
            <path id="Trazado_104503" data-name="Trazado 104503" d="M1254.157,800.136c0,.055,0,.114,0,.169.017.292.046.626.089,1v.013c.029.229.063.474.1.732a.771.771,0,0,0,.017.1c.016.118.037.245.059.372.038.228.076.461.118.7.026.131.047.267.072.4.084.457.178.939.283,1.446.017.085.038.174.055.263.03.144.059.291.089.44.076.359.157.727.237,1.1.05.225.1.453.156.685a.58.58,0,0,0,.017.084q.083.349.165.711c.067.3.135.6.2.905.063.274.131.554.2.837s.135.571.2.858c.072.3.148.609.224.922.047.2.1.406.144.609.021.08.042.161.059.241.029.127.063.254.093.381.042.161.08.321.118.482.1.393.2.791.3,1.193.14.55.28,1.108.419,1.671l.114.444c.017.063.034.127.047.19.173.681.347,1.362.524,2.052.047.178.093.355.135.532.012.043.025.085.033.127.064.253.131.507.195.757.059.233.123.465.182.7.076.3.156.605.232.91.072.266.14.533.208.8l.329,1.269s0,0,0,.008c.034.135.072.275.106.411q.107.413.216.825c.131.52.266,1.04.4,1.556.067.262.135.525.2.782.009.034.017.072.026.106.135.52.27,1.032.4,1.539l.063.241c.118.457.237.909.351,1.358.076.3.152.592.224.884.042.169.084.339.127.5.4,1.552.766,3.012,1.091,4.335.427,1.747.779,3.261,1.02,4.454.173.841.291,1.518.346,2,.03.271.059.533.084.8.123,1.172.212,2.259.279,3.253,0,.076.009.148.013.224.068.943.11,1.793.14,2.534.076,2.144.042,3.4.042,3.4l.537.118c.317.072.774.169,1.333.279l.588.118c.816.161,1.8.347,2.884.537,1.527.258,3.266.521,5.034.719l.33.038c.715.076,1.434.144,2.149.195.089.008.178.017.266.021l.038-.063,1.46-2.458.114-.195.237.33v0l.072.1.668.935,1.028,1.443a18.162,18.162,0,0,0,2.313-.191,9.543,9.543,0,0,0,1.632-.381,5.257,5.257,0,0,0,.745-.313c-.152-1.489-.326-3.075-.516-4.737-.127-1.108-.262-2.251-.406-3.413-.25-2.031-.516-4.137-.8-6.277l-.152-1.129c-.106-.8-.22-1.615-.33-2.428-.2-1.443-.406-2.888-.613-4.331-.135-.935-.271-1.869-.406-2.8-.274-1.848-.549-3.675-.828-5.452-.009-.068-.021-.135-.03-.2q-.209-1.358-.419-2.665c-.385-2.4-.761-4.686-1.121-6.78q-.235-1.339-.457-2.567c-.317-1.773-.622-3.359-.9-4.712-.165-.816-.325-1.544-.469-2.174a18.344,18.344,0,0,0-.66-2.335c-.029-.063-.051-.118-.076-.165a12.518,12.518,0,0,0-2.212-2.876c-.084-.085-.165-.169-.25-.254-.558-.558-1.137-1.087-1.679-1.552-.055-.047-.106-.093-.161-.14-.6-.512-1.134-.948-1.536-1.261-.436-.338-.706-.537-.706-.537l-1.527-.372-1.722-.423-1.565-.38-.084.013-3.98.6-1.125.169-.195.029a.035.035,0,0,1-.013,0,25.3,25.3,0,0,0-2.91.965,12.5,12.5,0,0,0-3.122,1.713,3.983,3.983,0,0,0-.884.935.383.383,0,0,0-.042.084.851.851,0,0,0-.059.216c0,.017,0,.034-.009.051A3.559,3.559,0,0,0,1254.157,800.136Z" transform="translate(-1246.681 -792.494)" fill="#604f69"/>
            <g id="Grupo_54855" data-name="Grupo 54855" transform="translate(7.471 5.342)" opacity="0.3" style="mix-blend-mode: multiply;isolation: isolate">
              <path id="Trazado_104504" data-name="Trazado 104504" d="M1271.864,884.059c.068.944.11,1.793.14,2.534l1.7-.009h.19l2.834-.012,5.245-.026,2.072-.012.956,0,1.591-.009h.66l3.079-.017.719,0,1.9-.008c-.127-1.108-.262-2.25-.406-3.413l-2.69.127-.055,0-2.931.14h-.042l-.423.021-1.434.068-1.4.067-2.03.093-5.215.249-1.776.085-1.062.05Z" transform="translate(-1261.477 -834.382)" fill="#604f69"/>
              <path id="Trazado_104505" data-name="Trazado 104505" d="M1291.086,868.735l-20.023,4.911c-.026-.262-.055-.525-.085-.8-.055-.487-.173-1.163-.347-2l20.125-4.539C1290.866,867.119,1290.98,867.931,1291.086,868.735Z" transform="translate(-1260.967 -827.445)" fill="#604f69"/>
              <path id="Trazado_104506" data-name="Trazado 104506" d="M1288.564,856.949l-20.531,4.415c-.359-1.468-.774-3.1-1.218-4.839l21.343-2.372C1288.294,855.079,1288.428,856.014,1288.564,856.949Z" transform="translate(-1259.389 -822.418)" fill="#604f69"/>
              <path id="Trazado_104507" data-name="Trazado 104507" d="M1285.894,842.63l-21.55,3.9c-.27-1.037-.545-2.1-.82-3.164-.034-.135-.072-.275-.106-.41l22.057-2.99Q1285.685,841.272,1285.894,842.63Z" transform="translate(-1257.984 -816.55)" fill="#604f69"/>
              <path id="Trazado_104508" data-name="Trazado 104508" d="M1282.35,826.591l-22.828,2.432c-.182-.711-.359-1.417-.532-2.115q-.21-.85-.419-1.675l23.323-1.21Q1282.114,825.255,1282.35,826.591Z" transform="translate(-1255.979 -809.956)" fill="#604f69"/>
              <path id="Trazado_104509" data-name="Trazado 104509" d="M1279.73,814.455l-23.546,1.168c-.25-1.074-.474-2.089-.664-3.024l23.741-.317C1279.4,812.911,1279.565,813.638,1279.73,814.455Z" transform="translate(-1254.717 -805.099)" fill="#604f69"/>
              <path id="Trazado_104510" data-name="Trazado 104510" d="M1254.179,801.7l19.643-1.671c.541.469,1.121.994,1.675,1.552l-21.25,1.916A7.716,7.716,0,0,1,1254.179,801.7Z" transform="translate(-1254.151 -800.033)" fill="#604f69"/>
            </g>
            <g id="Grupo_54856" data-name="Grupo 54856" transform="translate(11.615 2.229)" opacity="0.3" style="mix-blend-mode: screen;isolation: isolate">
              <path id="Trazado_104511" data-name="Trazado 104511" d="M1289.505,801.741c2.233,14.8,6.552,45.291,8.024,55.734a18.169,18.169,0,0,1-2.314.19l-1.028-1.442-6.771-56.428C1288.084,800.366,1288.821,801.034,1289.505,801.741Z" transform="translate(-1272.054 -796.821)" fill="#604f69"/>
              <path id="Trazado_104512" data-name="Trazado 104512" d="M1275.324,794.724l1.565.38,9.407,60.349c-.715-.05-1.434-.118-2.149-.195l-8.908-60.522Z" transform="translate(-1267.018 -794.724)" fill="#604f69"/>
              <path id="Trazado_104513" data-name="Trazado 104513" d="M1264.128,796.1a.033.033,0,0,0,.013,0l.195-.03,8.65,58.991c-1.087-.19-2.068-.376-2.885-.537l-8.882-57.456A25.433,25.433,0,0,1,1264.128,796.1Z" transform="translate(-1261.218 -795.279)" fill="#604f69"/>
            </g>
            <g id="Grupo_54857" data-name="Grupo 54857" transform="translate(26.571 22.539)">
              <path id="Trazado_104514" data-name="Trazado 104514" d="M1286.723,829.552c1.54,3.113,6.053,23.792,6.087,37.728l.114-.195.308.432c.017-14-4.572-35-6.128-38.156Z" transform="translate(-1286.723 -829.361)" fill="#604f69" opacity="0.3" style="mix-blend-mode: multiply;isolation: isolate"/>
            </g>
            <path id="Trazado_104515" data-name="Trazado 104515" d="M1266.18,795.544c3.291,10.007,13.053,22.232,13.053,22.232s-.9-16.323-2.136-21.339c-.435-.338-.706-.537-.706-.537l-4.813-1.176-5.384.816A.033.033,0,0,1,1266.18,795.544Z" transform="translate(-1251.655 -792.495)" fill="#728cb1"/>
            <path id="Trazado_104516" data-name="Trazado 104516" d="M1259.691,827.12c1.455,1.032,3.109,1.739,3.8.3,1.278-2.669-2-23.2-8.316-26.736a3.983,3.983,0,0,0-.884.935C1253.44,802.927,1256.688,815.569,1259.691,827.12Z" transform="translate(-1246.681 -794.962)" fill="#728cb1"/>
            <path id="Trazado_104517" data-name="Trazado 104517" d="M1241.994,1063.583l-.584,2.58h8.789l-5.582-2.272Z" transform="translate(-1241.41 -903.7)" fill="#604f69"/>
            <path id="Trazado_104518" data-name="Trazado 104518" d="M1279.486,1063.583l-.584,2.58h8.789l-5.582-2.272Z" transform="translate(-1256.917 -903.7)" fill="#604f69"/>
            <path id="Trazado_104519" data-name="Trazado 104519" d="M1280.154,792.125l-1.813,2.06,1.813,3.247,1.265-2.609Z" transform="translate(-1256.685 -791.42)" fill="#89a4c9"/>
            <path id="Trazado_104520" data-name="Trazado 104520" d="M1273.312,793.688l-1.811,4.183-5.319-3.9.822-3.051Z" transform="translate(-1251.656 -790.923)" fill="#89a4c9"/>
          </g>
          <g id="Grupo_54859" data-name="Grupo 54859" transform="translate(11.008)">
            <path id="Trazado_104521" data-name="Trazado 104521" d="M1262.064,742.894s-4.173-.824,3.241-4.787c9.731-5.2,18.19-5.738,18.405-2.275s-5.391,5.217-5.391,5.217Z" transform="translate(-1260.477 -733.635)" fill="#64413f"/>
            <path id="Trazado_104522" data-name="Trazado 104522" d="M1280.356,749.506c.01.069.022.164.032.281.141,1.59.253,7.453.155,10.872,0,.247-.014.486-.023.7-.016.389-.036.731-.061,1.012-.237,2.768-3.068,10.646-3.5,10.632s-9.763-2.357-10.46-4.038-1.749-11.406-1.749-11.406l-1.866-10.026a49.7,49.7,0,0,1,6.474-1.976c7.317-1.651,9.784.133,9.784.133A29.442,29.442,0,0,1,1280.356,749.506Z" transform="translate(-1261.302 -738.277)" fill="#ffc393"/>
            <path id="Trazado_104523" data-name="Trazado 104523" d="M1290.137,753.2c.141,1.59.253,7.453.155,10.872,0,.247-.014.486-.023.7-1.087.267-3.4.758-3.665.118-.342-.841.019-11.427.019-11.427C1287.343,752.991,1289.023,753.077,1290.137,753.2Z" transform="translate(-1271.05 -741.687)" fill="#eba87f"/>
            <path id="Trazado_104524" data-name="Trazado 104524" d="M1280.543,761.153c-.016.688-.045,1.277-.084,1.715-.237,2.768-3.068,10.646-3.5,10.632s-9.763-2.357-10.46-4.038-1.749-11.406-1.749-11.406l-.391-2.1-1.475-7.922a49.723,49.723,0,0,1,6.474-1.976c-1.938,2.465-2.333,6.379-2.272,9.552a33.812,33.812,0,0,0,.49,5.153s8.022,1.612,9.684,1.345A19.775,19.775,0,0,0,1280.543,761.153Z" transform="translate(-1261.302 -738.771)" fill="#64413f"/>
            <path id="Trazado_104525" data-name="Trazado 104525" d="M1280.273,764.321c1.979,1.609,4.193,2.118,4.69,1.7s-.328-11.779-.7-12.407S1280.273,764.321,1280.273,764.321Z" transform="translate(-1268.493 -741.889)" fill="#ffc393"/>
            <path id="Trazado_104526" data-name="Trazado 104526" d="M1269.362,746.053c-1.938,2.465-2.333,6.379-2.272,9.552-.732.122-1.9.257-2.727.346l-1.475-7.922A49.723,49.723,0,0,1,1269.362,746.053Z" transform="translate(-1261.302 -738.771)" fill="#ad886d"/>
            <path id="Trazado_104527" data-name="Trazado 104527" d="M1278.685,758.984c-.23,1.122-.774,1.957-1.215,1.867s-.613-1.073-.383-2.194.774-1.957,1.215-1.867S1278.915,757.863,1278.685,758.984Z" transform="translate(-1267.132 -743.21)" fill="#233545"/>
            <path id="Trazado_104528" data-name="Trazado 104528" d="M1289.7,759.3c-.23,1.121-.733,1.965-1.124,1.885s-.522-1.054-.292-2.175.733-1.966,1.124-1.885S1289.927,758.175,1289.7,759.3Z" transform="translate(-1271.758 -743.347)" fill="#233545"/>
            <path id="Trazado_104529" data-name="Trazado 104529" d="M1274,753.74a10.319,10.319,0,0,1,5.731-.8l.083-1.469s-4.133-.024-4.863.575A3.334,3.334,0,0,0,1274,753.74Z" transform="translate(-1265.898 -741.011)" fill="#64413f"/>
            <path id="Trazado_104530" data-name="Trazado 104530" d="M1287.11,751.1l.094,1.474s3.083-.45,3.68.14c-.02-.294-.042-.926-.493-1.125A11.118,11.118,0,0,0,1287.11,751.1Z" transform="translate(-1271.32 -740.861)" fill="#64413f"/>
            <path id="Trazado_104531" data-name="Trazado 104531" d="M1276.429,774.141a8.056,8.056,0,0,0,6.3,1.98l-2.1,2.9A8.575,8.575,0,0,1,1276.429,774.141Z" transform="translate(-1266.902 -750.389)" fill="#fff"/>
            <path id="Trazado_104532" data-name="Trazado 104532" d="M1264.451,760.754s.632,4.558.588,4.92-2.383,1.244-3.933-.837-.942-5.365.31-5.317A7.688,7.688,0,0,1,1264.451,760.754Z" transform="translate(-1260.183 -744.341)" fill="#ffc393"/>
          </g>
        </g>
        <path id="Trazado_104533" data-name="Trazado 104533" d="M1260.2,814.724l1.557,16.513.329,1.269s0,0,0,.008c.034.135.072.275.106.41q.107.412.216.825c.131.52.266,1.04.4,1.556.067.262.135.525.2.782.009.034.017.072.026.106.135.52.27,1.032.4,1.539l.063.241c.119.457.237.909.351,1.358.076.3.152.592.224.884.042.169.084.339.127.5.4,1.552.766,3.012,1.091,4.335.427,1.747.779,3.261,1.02,4.454.173.841.291,1.518.346,2,.03.271.059.533.084.8.123,1.172.212,2.259.279,3.253C1269.717,835.665,1260.2,814.724,1260.2,814.724Z" transform="translate(-1249.18 -767.175)" fill="#604f69" opacity="0.3" style="mix-blend-mode: multiply;isolation: isolate"/>
        <path id="Trazado_104534" data-name="Trazado 104534" d="M1325.208,826.635c.089,2.06.237,6.987.326,10.066,9.889-12.528,18.69-24.853,18.69-24.853l-.261-2.4Z" transform="translate(-1276.07 -764.993)" fill="#eba87f"/>
        <path id="Trazado_104535" data-name="Trazado 104535" d="M1323.835,834.982l-1.5.8-1.9,11.9h4Z" transform="translate(-1274.096 -775.554)" fill="#89a4c9"/>
        <path id="Trazado_104536" data-name="Trazado 104536" d="M1363.54,805.989c-2.165.865-2.727,1.474-.654,1.235-2.224.938-3.678,3.851-.8,4.086s3.459-5.461,2.679-5.516A2.328,2.328,0,0,0,1363.54,805.989Z" transform="translate(-1290.66 -763.478)" fill="#ffc393"/>
        <path id="Trazado_104537" data-name="Trazado 104537" d="M1253.806,802.845c.481,4.778,28.477,27.918,28.747,27.659s-.058-10.863-.491-11.313-19.346-13.615-20.828-14.614S1253.806,802.845,1253.806,802.845Z" transform="translate(-1246.537 -762.261)" fill="#728cb1"/>
        <g id="Grupo_54874" data-name="Grupo 54874" transform="translate(59.065 30.681)">
          <path id="Trazado_104538" data-name="Trazado 104538" d="M1447.648,805.22s17.766,29.9,18.054,35.82-13.877,24.387-13.877,24.387a19.533,19.533,0,0,1-1.486-4.38c-1.405-11.117-5.6-51.666-5.724-52.794C1444.47,806.953,1447.648,805.22,1447.648,805.22Z" transform="translate(-1384.522 -793.925)" fill="#293f54"/>
          <path id="Trazado_104539" data-name="Trazado 104539" d="M1453.542,824.253c1.826,3.933,5.339,22.2,5.339,22.2l-4.132,27.775S1451.716,820.319,1453.542,824.253Z" transform="translate(-1387.974 -801.712)" fill="#52411e" opacity="0.3" style="mix-blend-mode: multiply;isolation: isolate"/>
          <path id="Trazado_104540" data-name="Trazado 104540" d="M1463.346,862.341a10.756,10.756,0,0,0-7.9,1.408s4.146-3.833,6.335-4.536c-2.034,1.173-2.19,2.112-2.19,2.112S1462.407,861.247,1463.346,862.341Z" transform="translate(-1389.004 -816.257)" fill="#52411e" opacity="0.3" style="mix-blend-mode: multiply;isolation: isolate"/>
          <path id="Trazado_104541" data-name="Trazado 104541" d="M1381.976,825.128l0,.013c.258.478,8.527,15.89,10.545,20.649,2.051,4.835,1.463,14.064,1.463,14.064a61.031,61.031,0,0,0,15.8,2.572c.414.008.833,0,1.247,0a23.438,23.438,0,0,0,9.179-1.835c2.572-9.762,2.614-28.9,1.857-41.277a63.862,63.862,0,0,0-1.274-10.883c-1.611-5.274-1.861-8.333-2.694-9.077a46.025,46.025,0,0,0-6.438-3.371c-2.093-.977-3.878-1.764-3.878-1.764l-8.281-3.185-12.525,3.607s-1.438.99-3.418,2.424c-3.35,2.432-8.264,6.133-10.384,8.438C1377.239,807.951,1383.922,816.44,1381.976,825.128Z" transform="translate(-1354.978 -788.055)" fill="#b8d3de"/>
          <path id="Trazado_104542" data-name="Trazado 104542" d="M1429.529,826.007c-1.489-11.281-8.009-24.134-9.981-27.822l1.335-1.92-4.736-5.239-2.736,6.264,3.081,1.409c9.976,23.938,8.2,46.864,7.817,57.812l3.752,3.05,2.69-2.191C1430.844,851.385,1430.9,836.45,1429.529,826.007Z" transform="translate(-1371.617 -788.054)" fill="#4e2d52"/>
          <path id="Trazado_104543" data-name="Trazado 104543" d="M1426.417,880.533c-9.817,4.543-26.228-.732-26.228-.732s.588-9.229-1.463-14.064c-2.018-4.758-10.287-20.171-10.545-20.649l0-.013s24.8,6.281,34.1-.034a21.219,21.219,0,0,0,6-5.786C1429.031,851.632,1428.989,870.771,1426.417,880.533Z" transform="translate(-1361.18 -808.003)" fill="#2e86a3" opacity="0.2" style="mix-blend-mode: multiply;isolation: isolate"/>
          <path id="Trazado_104544" data-name="Trazado 104544" d="M1409.242,788.93l-11.782-2.972-.743,6.581,10.084,5.307Z" transform="translate(-1364.712 -785.957)" fill="#c7e4f0"/>
          <path id="Trazado_104545" data-name="Trazado 104545" d="M1418.077,789.678l5.307,7.643,2.972-4.458-4.883-5.1Z" transform="translate(-1373.547 -786.706)" fill="#c7e4f0"/>
          <path id="Trazado_104546" data-name="Trazado 104546" d="M1402.464,830.964l1.026,2.344,7.777-2.2-.586-1.9Z" transform="translate(-1367.09 -803.844)" fill="#3b99b8"/>
          <path id="Trazado_104547" data-name="Trazado 104547" d="M1406.957,906.442c-.112.337-.448,2.693-.448,2.693s10.771,2.244,17.278,2.244a28.278,28.278,0,0,0,10.628-1.841s.448-2.58.112-2.58a32.811,32.811,0,0,1-10.291,1.5C1417.728,908.462,1406.957,906.442,1406.957,906.442Z" transform="translate(-1368.762 -835.792)" fill="#3d2717"/>
          <path id="Trazado_104548" data-name="Trazado 104548" d="M1360.341,815.7c-3.37,3.663-19.055,30.227-18.168,34.431s36.276,23.368,36.276,23.368l1.318-3.663-20.745-22.05,10.11-12.454C1373.033,826.088,1363.635,815.666,1360.341,815.7Z" transform="translate(-1342.137 -798.26)" fill="#293f54"/>
          <path id="Trazado_104549" data-name="Trazado 104549" d="M1417.806,911.855l.9-4.166,1.07.056-1.07,4.5Z" transform="translate(-1373.435 -836.308)" fill="#66542f"/>
          <path id="Trazado_104550" data-name="Trazado 104550" d="M1446.417,908.394l.113,3.885.9-.056.056-4.054Z" transform="translate(-1385.269 -836.506)" fill="#66542f"/>
          <path id="Trazado_104551" data-name="Trazado 104551" d="M1434.747,909.321l-.619,3.828,3.716-.225v-3.547Z" transform="translate(-1380.186 -836.983)" fill="#998d74"/>
          <path id="Trazado_104552" data-name="Trazado 104552" d="M1381.976,828.619l0,.013c.258.478,7.952,16.115,9.969,20.873,2.052,4.835.508,16.543.508,16.543l16.8,2.956s.782-1.869,1.256-2.969a8.421,8.421,0,0,1,.355-.778c0,.021.033.229.093.533.161.9.495,2.626.575,2.876a23.889,23.889,0,0,0,9.2-2.364c2.572-9.762,2.39-29.57,1.921-41.958-.411-10.879-3.714-20.76-4.547-21.5a46,46,0,0,0-6.438-3.371,154.94,154.94,0,0,1-.008,25.306c-.072.931-.131,1.485-.144,1.561a.965.965,0,0,0-.148-.229c-1.62-2.233-16.673-19.807-27.8-25.555-3.35,2.432-8.264,6.133-10.384,8.438C1377.239,811.442,1383.922,819.931,1381.976,828.619Z" transform="translate(-1354.978 -791.546)" fill="#293f54"/>
          <g id="Grupo_54861" data-name="Grupo 54861" transform="translate(55.532 33.228)" opacity="0.4">
            <path id="Trazado_104553" data-name="Trazado 104553" d="M1436.839,883.884a8.467,8.467,0,0,1,.355-.778c0,.021.034.229.093.533.474-4.894,2.318-25.9.7-41.015-.072.931-.131,1.485-.144,1.561a.963.963,0,0,0-.148-.229C1439.106,859.234,1437.249,879.723,1436.839,883.884Z" transform="translate(-1436.839 -842.624)" fill="#293f54" opacity="0.4" style="mix-blend-mode: multiply;isolation: isolate"/>
          </g>
          <path id="Trazado_104554" data-name="Trazado 104554" d="M1393.113,810.026c1.713-.432,3.76-1.049,3.76-1.049l-1.459,3.232c3.917,2.385,18.961,11.593,21.368,13.933-6.641-11.213-27.776-27.142-27.776-27.142l-3.092,2.53Z" transform="translate(-1360.244 -791.352)" fill="#3e5973"/>
          <path id="Trazado_104555" data-name="Trazado 104555" d="M1394.3,818.384c0,.055.106.072.283.059C1394.4,818.346,1394.3,818.316,1394.3,818.384Z" transform="translate(-1363.711 -799.354)" fill="#52411e"/>
          <path id="Trazado_104556" data-name="Trazado 104556" d="M1438.284,825.151c1.59-2.3,3.832-10.663,4.488-15.1l-2.483-2.483,2.6-.466a71.516,71.516,0,0,0-2.178-8.806L1437.9,796.6S1439.024,818.8,1438.284,825.151Z" transform="translate(-1381.746 -790.362)" fill="#3e5973"/>
          <path id="Trazado_104557" data-name="Trazado 104557" d="M1414.383,894.866v2.065l-6.489-.59.1-1.278Z" transform="translate(-1369.336 -831.004)" fill="#3e5973"/>
          <path id="Trazado_104558" data-name="Trazado 104558" d="M1455.418,893.692l-3.932.688.1,1.966,3.638-.393Z" transform="translate(-1387.366 -830.518)" fill="#3e5973"/>
          <path id="Trazado_104559" data-name="Trazado 104559" d="M1442.1,865.167a.983.983,0,1,0,.983-.983A.983.983,0,0,0,1442.1,865.167Z" transform="translate(-1383.482 -818.313)" fill="#293f54" opacity="0.4" style="mix-blend-mode: multiply;isolation: isolate"/>
          <path id="Trazado_104560" data-name="Trazado 104560" d="M1442.1,890.148a.983.983,0,1,0,.983-.983A.983.983,0,0,0,1442.1,890.148Z" transform="translate(-1383.482 -828.646)" fill="#293f54" opacity="0.4" style="mix-blend-mode: multiply;isolation: isolate"/>
          <g id="Grupo_54873" data-name="Grupo 54873" transform="translate(3.196 5.275)">
            <g id="Grupo_54862" data-name="Grupo 54862" transform="translate(0 3.507)">
              <path id="Trazado_104561" data-name="Trazado 104561" d="M1413.394,838.805l-.592.226q-.189-.493-.385-.977l.587-.239Q1413.2,838.3,1413.394,838.805Z" transform="translate(-1374.402 -816.19)" fill="#e0d6bf"/>
              <path id="Trazado_104562" data-name="Trazado 104562" d="M1423.312,889.438l-.633.042q-.071-1.076-.159-2.186l.633-.05Q1423.242,888.358,1423.312,889.438Z" transform="translate(-1378.581 -836.634)" fill="#e0d6bf"/>
              <path id="Trazado_104563" data-name="Trazado 104563" d="M1415.612,845.143l-.607.184c-.215-.707-.44-1.407-.668-2.08l.6-.2C1415.169,843.723,1415.4,844.429,1415.612,845.143Z" transform="translate(-1375.196 -818.352)" fill="#e0d6bf"/>
              <path id="Trazado_104564" data-name="Trazado 104564" d="M1423.276,909.724l.635.01c-.012.783-.033,1.524-.062,2.2l-.634-.027C1423.244,911.236,1423.265,910.5,1423.276,909.724Z" transform="translate(-1378.868 -845.932)" fill="#e0d6bf"/>
              <path id="Trazado_104565" data-name="Trazado 104565" d="M1423.288,902.247l.635-.014c.016.764.026,1.5.029,2.2l-.634,0Q1423.312,903.39,1423.288,902.247Z" transform="translate(-1378.898 -842.834)" fill="#e0d6bf"/>
              <path id="Trazado_104566" data-name="Trazado 104566" d="M1419.348,859.693l-.623.123q-.212-1.076-.446-2.142l.62-.136Q1419.135,858.609,1419.348,859.693Z" transform="translate(-1376.826 -824.346)" fill="#e0d6bf"/>
              <path id="Trazado_104567" data-name="Trazado 104567" d="M1420.714,867.076l-.627.1q-.171-1.08-.361-2.16l.625-.111Q1420.541,865.989,1420.714,867.076Z" transform="translate(-1377.425 -827.394)" fill="#e0d6bf"/>
              <path id="Trazado_104568" data-name="Trazado 104568" d="M1421.812,874.5l-.63.079q-.135-1.08-.288-2.172l.629-.088Q1421.676,873.418,1421.812,874.5Z" transform="translate(-1377.908 -830.462)" fill="#e0d6bf"/>
              <path id="Trazado_104569" data-name="Trazado 104569" d="M1422.672,881.961l-.632.06q-.1-1.08-.222-2.18l.63-.069Q1422.57,880.876,1422.672,881.961Z" transform="translate(-1378.29 -833.543)" fill="#e0d6bf"/>
              <path id="Trazado_104570" data-name="Trazado 104570" d="M1423.011,894.765l.634-.033c.039.751.071,1.485.1,2.2l-.634.023Q1423.069,895.888,1423.011,894.765Z" transform="translate(-1378.784 -839.731)" fill="#e0d6bf"/>
              <path id="Trazado_104571" data-name="Trazado 104571" d="M1417.669,852.373l-.616.151c-.176-.719-.359-1.431-.546-2.118l.612-.167C1417.307,850.931,1417.492,851.649,1417.669,852.373Z" transform="translate(-1376.093 -821.328)" fill="#e0d6bf"/>
              <path id="Trazado_104572" data-name="Trazado 104572" d="M1447.54,801.837l-.541.331q-.272-.445-.563-.88l.527-.354Q1447.26,801.38,1447.54,801.837Z" transform="translate(-1388.472 -800.935)" fill="#e0d6bf"/>
              <path id="Trazado_104573" data-name="Trazado 104573" d="M1449.28,806.231l.567-.286c.34.674.667,1.384.972,2.112l-.585.246C1449.935,807.589,1449.614,806.892,1449.28,806.231Z" transform="translate(-1389.649 -803.007)" fill="#e0d6bf"/>
              <path id="Trazado_104574" data-name="Trazado 104574" d="M1455.618,823.092l-.623.121c-.146-.751-.309-1.5-.486-2.237l.616-.149C1455.3,821.569,1455.47,822.332,1455.618,823.092Z" transform="translate(-1391.812 -809.163)" fill="#e0d6bf"/>
              <path id="Trazado_104575" data-name="Trazado 104575" d="M1452.906,813.241c.25.709.489,1.452.711,2.208l-.609.179c-.219-.745-.454-1.477-.7-2.177Z" transform="translate(-1390.901 -806.025)" fill="#e0d6bf"/>
              <path id="Trazado_104576" data-name="Trazado 104576" d="M1456.743,829.652l-.632.06s-.036-.379-.128-1.034l.629-.088C1456.707,829.266,1456.743,829.652,1456.743,829.652Z" transform="translate(-1392.421 -812.374)" fill="#e0d6bf"/>
              <path id="Trazado_104577" data-name="Trazado 104577" d="M1389.322,831.489l.62-.135a14.677,14.677,0,0,1,.3,2.062l-.633.046A14.094,14.094,0,0,0,1389.322,831.489Z" transform="translate(-1364.849 -813.517)" fill="#e0d6bf"/>
              <path id="Trazado_104578" data-name="Trazado 104578" d="M1389.93,840.455l-.619-.14a13.531,13.531,0,0,0,.293-1.97l.633.047A14.157,14.157,0,0,1,1389.93,840.455Z" transform="translate(-1364.845 -816.408)" fill="#e0d6bf"/>
              <path id="Trazado_104579" data-name="Trazado 104579" d="M1377.518,815.259l.314-.551a15.434,15.434,0,0,1,1.734,1.152l-.387.5A14.854,14.854,0,0,0,1377.518,815.259Z" transform="translate(-1359.967 -806.632)" fill="#e0d6bf"/>
              <path id="Trazado_104580" data-name="Trazado 104580" d="M1388.369,826.61l-.594.223a14.392,14.392,0,0,0-.829-1.814l.557-.3A14.968,14.968,0,0,1,1388.369,826.61Z" transform="translate(-1363.867 -810.771)" fill="#e0d6bf"/>
              <path id="Trazado_104581" data-name="Trazado 104581" d="M1384.708,820.607l-.509.379a14.426,14.426,0,0,0-1.3-1.515l.451-.445A15.013,15.013,0,0,1,1384.708,820.607Z" transform="translate(-1362.193 -808.417)" fill="#e0d6bf"/>
              <path id="Trazado_104582" data-name="Trazado 104582" d="M1388.617,845.2c-.131.337-.276.67-.431.992l-.572-.274c.148-.308.286-.627.411-.948Z" transform="translate(-1364.143 -819.148)" fill="#e0d6bf"/>
              <rect id="Rectángulo_9313" data-name="Rectángulo 9313" width="1.055" height="0.635" transform="matrix(0.518, -0.855, 0.855, 0.518, 17.263, 10.616)" fill="#e0d6bf"/>
              <path id="Trazado_104583" data-name="Trazado 104583" d="M1355.616,878.523l-.394.5c-.6-.475-1.157-.929-1.659-1.35l.408-.486C1354.468,877.6,1355.023,878.052,1355.616,878.523Z" transform="translate(-1350.059 -832.473)" fill="#e0d6bf"/>
              <path id="Trazado_104584" data-name="Trazado 104584" d="M1354.707,855.159c.348-.6.707-1.21,1.076-1.838l.547.321q-.551.941-1.074,1.837Z" transform="translate(-1350.532 -822.603)" fill="#e0d6bf"/>
              <rect id="Rectángulo_9314" data-name="Rectángulo 9314" width="2.128" height="0.634" transform="matrix(0.512, -0.859, 0.859, 0.512, 8.5, 25.217)" fill="#e0d6bf"/>
              <path id="Trazado_104585" data-name="Trazado 104585" d="M1360.012,847.387l-1.083,1.832-.547-.322,1.083-1.833Z" transform="translate(-1352.052 -820.015)" fill="#e0d6bf"/>
              <path id="Trazado_104586" data-name="Trazado 104586" d="M1361.35,882.974l-.379.509q-.88-.655-1.7-1.285l.386-.5Q1360.472,882.32,1361.35,882.974Z" transform="translate(-1352.418 -834.338)" fill="#e0d6bf"/>
              <rect id="Rectángulo_9315" data-name="Rectángulo 9315" width="2.129" height="0.635" transform="translate(10.68 21.561) rotate(-59.097)" fill="#e0d6bf"/>
              <path id="Trazado_104587" data-name="Trazado 104587" d="M1350.171,873.756l-.431.466a16.7,16.7,0,0,1-1.515-1.556l.49-.4A16.026,16.026,0,0,0,1350.171,873.756Z" transform="translate(-1347.851 -830.437)" fill="#e0d6bf"/>
              <path id="Trazado_104588" data-name="Trazado 104588" d="M1352.139,859.6l.549.317c-.376.651-.729,1.27-1.057,1.847l-.552-.314C1351.407,860.872,1351.762,860.253,1352.139,859.6Z" transform="translate(-1349.031 -825.2)" fill="#e0d6bf"/>
              <path id="Trazado_104589" data-name="Trazado 104589" d="M1367.2,887.278l-.37.515q-.876-.629-1.727-1.25l.374-.512Q1366.32,886.648,1367.2,887.278Z" transform="translate(-1354.83 -836.132)" fill="#e0d6bf"/>
              <path id="Trazado_104590" data-name="Trazado 104590" d="M1347.587,867.826c.22-.451.558-1.089,1-1.9l.556.306c-.442.8-.775,1.43-.992,1.871Z" transform="translate(-1347.587 -827.817)" fill="#e0d6bf"/>
              <path id="Trazado_104591" data-name="Trazado 104591" d="M1397.144,907.806l-.349.53c-.528-.347-1.125-.741-1.779-1.175l.35-.529C1396.019,907.066,1396.616,907.459,1397.144,907.806Z" transform="translate(-1367.204 -844.653)" fill="#e0d6bf"/>
              <path id="Trazado_104592" data-name="Trazado 104592" d="M1379.068,895.635l-.359.523q-.871-.6-1.754-1.21l.362-.521Q1378.2,895.037,1379.068,895.635Z" transform="translate(-1359.734 -839.605)" fill="#e0d6bf"/>
              <path id="Trazado_104593" data-name="Trazado 104593" d="M1373.109,891.489l-.364.52q-.874-.611-1.742-1.227l.367-.517Q1372.235,890.877,1373.109,891.489Z" transform="translate(-1357.272 -837.883)" fill="#e0d6bf"/>
              <rect id="Rectángulo_9316" data-name="Rectángulo 9316" width="2.129" height="0.634" transform="matrix(0.517, -0.856, 0.856, 0.517, 15.064, 14.258)" fill="#e0d6bf"/>
              <rect id="Rectángulo_9317" data-name="Rectángulo 9317" width="2.129" height="0.635" transform="matrix(0.515, -0.857, 0.857, 0.515, 12.869, 17.908)" fill="#e0d6bf"/>
              <path id="Trazado_104594" data-name="Trazado 104594" d="M1385.065,899.732l-.355.525q-.865-.583-1.763-1.2l.357-.524Q1384.2,899.147,1385.065,899.732Z" transform="translate(-1362.212 -841.305)" fill="#e0d6bf"/>
              <path id="Trazado_104595" data-name="Trazado 104595" d="M1391.09,903.788l-.352.528c-.565-.377-1.157-.773-1.771-1.185l.354-.527C1389.934,903.016,1390.526,903.411,1391.09,903.788Z" transform="translate(-1364.702 -842.987)" fill="#e0d6bf"/>
              <path id="Trazado_104596" data-name="Trazado 104596" d="M1402.135,911.077l-.345.532s-.316-.2-.886-.576l.347-.531Z" transform="translate(-1369.64 -846.254)" fill="#e0d6bf"/>
              <path id="Trazado_104597" data-name="Trazado 104597" d="M1451.1,840.312l.633-.036q.029.509.05,1.063l-.633.024Q1451.125,840.816,1451.1,840.312Z" transform="translate(-1390.4 -817.207)" fill="#e0d6bf"/>
              <path id="Trazado_104598" data-name="Trazado 104598" d="M1448,909.9l.633.049c-.06.771-.116,1.472-.166,2.092l-.633-.05C1447.888,911.375,1447.944,910.674,1448,909.9Z" transform="translate(-1389.052 -846.006)" fill="#e0d6bf"/>
              <path id="Trazado_104599" data-name="Trazado 104599" d="M1448.553,902.774l.633.046c-.054.729-.107,1.428-.157,2.092l-.633-.048C1448.447,904.2,1448.5,903.5,1448.553,902.774Z" transform="translate(-1389.284 -843.057)" fill="#e0d6bf"/>
              <path id="Trazado_104600" data-name="Trazado 104600" d="M1450.757,867.1l.633.027q-.044,1.041-.1,2.1l-.633-.03Q1450.712,868.14,1450.757,867.1Z" transform="translate(-1390.22 -828.301)" fill="#e0d6bf"/>
              <rect id="Rectángulo_9318" data-name="Rectángulo 9318" width="2.097" height="0.635" transform="translate(59.981 49.26) rotate(-86.644)" fill="#e0d6bf"/>
              <path id="Trazado_104601" data-name="Trazado 104601" d="M1451.042,859.959l.634.02q-.032,1.034-.073,2.1l-.633-.024Q1451.009,860.993,1451.042,859.959Z" transform="translate(-1390.348 -825.348)" fill="#e0d6bf"/>
              <path id="Trazado_104602" data-name="Trazado 104602" d="M1449.554,888.508l.633.041q-.068,1.061-.137,2.093l-.633-.042Q1449.486,889.57,1449.554,888.508Z" transform="translate(-1389.705 -837.157)" fill="#e0d6bf"/>
              <path id="Trazado_104603" data-name="Trazado 104603" d="M1450.4,874.235l.634.033q-.053,1.048-.112,2.1l-.634-.035Q1450.351,875.283,1450.4,874.235Z" transform="translate(-1390.068 -831.253)" fill="#e0d6bf"/>
              <path id="Trazado_104604" data-name="Trazado 104604" d="M1449.07,895.642l.633.043q-.074,1.072-.147,2.093l-.633-.045C1448.972,897.054,1449.021,896.356,1449.07,895.642Z" transform="translate(-1389.501 -840.107)" fill="#e0d6bf"/>
              <path id="Trazado_104605" data-name="Trazado 104605" d="M1451.285,847.422q0-.9-.012-1.743l.635-.009c.008.562.012,1.148.012,1.752v.348l-.635,0Z" transform="translate(-1390.473 -819.438)" fill="#e0d6bf"/>
              <path id="Trazado_104606" data-name="Trazado 104606" d="M1451.233,852.818l.634.009c-.01.683-.023,1.384-.04,2.1l-.635-.015Q1451.217,853.841,1451.233,852.818Z" transform="translate(-1390.44 -822.395)" fill="#e0d6bf"/>
            </g>
            <g id="Grupo_54863" data-name="Grupo 54863" transform="translate(25.736 26.643)">
              <path id="Trazado_104607" data-name="Trazado 104607" d="M1396.329,842.005l-4.852-.089.033-.464,4.859.187Z" transform="translate(-1391.477 -840.829)" fill="#c1cdd6"/>
              <path id="Trazado_104608" data-name="Trazado 104608" d="M1400.243,840.392a1,1,0,1,0,1.065.925A1,1,0,0,0,1400.243,840.392Z" transform="translate(-1394.719 -840.39)" fill="#f84a5c"/>
            </g>
            <g id="Grupo_54864" data-name="Grupo 54864" transform="translate(42.172 30.647)">
              <path id="Trazado_104609" data-name="Trazado 104609" d="M1424.082,849.5l-4.4,2.038-.172-.432,4.454-1.952Z" transform="translate(-1419.505 -848.018)" fill="#c1cdd6"/>
              <path id="Trazado_104610" data-name="Trazado 104610" d="M1427.115,847.35a1,1,0,1,0,1.362.368A1,1,0,0,0,1427.115,847.35Z" transform="translate(-1422.446 -847.218)" fill="#f84a5c"/>
            </g>
            <g id="Grupo_54865" data-name="Grupo 54865" transform="translate(61.113 49.389)">
              <path id="Trazado_104611" data-name="Trazado 104611" d="M1456.384,881.462l-4.4,2.038-.172-.432,4.454-1.952Z" transform="translate(-1451.807 -879.98)" fill="#c1cdd6"/>
              <path id="Trazado_104612" data-name="Trazado 104612" d="M1459.417,879.312a1,1,0,1,0,1.362.368A1,1,0,0,0,1459.417,879.312Z" transform="translate(-1454.748 -879.18)" fill="#f84a5c"/>
            </g>
            <g id="Grupo_54866" data-name="Grupo 54866" transform="translate(37.078 51.403)">
              <path id="Trazado_104613" data-name="Trazado 104613" d="M1413.627,884.653l4.221,2.4-.251.392-4.18-2.486Z" transform="translate(-1411.893 -883.458)" fill="#c1cdd6"/>
              <path id="Trazado_104614" data-name="Trazado 104614" d="M1411.4,884.52a1,1,0,1,0-.493-1.321A1,1,0,0,0,1411.4,884.52Z" transform="translate(-1410.818 -882.615)" fill="#f84a5c"/>
            </g>
            <g id="Grupo_54867" data-name="Grupo 54867" transform="translate(61.323 9.158)">
              <path id="Trazado_104615" data-name="Trazado 104615" d="M1457.017,812.187l-4.852-.089.033-.464,4.859.187Z" transform="translate(-1452.165 -811.011)" fill="#c1cdd6"/>
              <path id="Trazado_104616" data-name="Trazado 104616" d="M1460.932,810.574a1,1,0,1,0,1.064.925A1,1,0,0,0,1460.932,810.574Z" transform="translate(-1455.407 -810.572)" fill="#f84a5c"/>
            </g>
            <g id="Grupo_54868" data-name="Grupo 54868" transform="translate(18.134 4.731)">
              <path id="Trazado_104617" data-name="Trazado 104617" d="M1380.316,805.956l.134,4.851-.465-.012-.036-4.863Z" transform="translate(-1379.107 -804.226)" fill="#c1cdd6"/>
              <path id="Trazado_104618" data-name="Trazado 104618" d="M1378.519,804.135a1,1,0,1,0,.875-1.105A1,1,0,0,0,1378.519,804.135Z" transform="translate(-1378.512 -803.022)" fill="#f84a5c"/>
            </g>
            <g id="Grupo_54869" data-name="Grupo 54869" transform="translate(57.424)">
              <path id="Trazado_104619" data-name="Trazado 104619" d="M1447.319,797.887l.134,4.851-.465-.012-.036-4.863Z" transform="translate(-1446.11 -796.157)" fill="#c1cdd6"/>
              <path id="Trazado_104620" data-name="Trazado 104620" d="M1445.522,796.066a1,1,0,1,0,.876-1.106A1,1,0,0,0,1445.522,796.066Z" transform="translate(-1445.515 -794.953)" fill="#f84a5c"/>
            </g>
            <g id="Grupo_54870" data-name="Grupo 54870" transform="translate(25.064 15.817)">
              <path id="Trazado_104621" data-name="Trazado 104621" d="M1392.419,824.386l-1.846,1.986-.243-.4,1.909-1.91Z" transform="translate(-1390.33 -822.812)" fill="#c1cdd6"/>
              <path id="Trazado_104622" data-name="Trazado 104622" d="M1393.4,822.157a1,1,0,1,0,1.4.131A1,1,0,0,0,1393.4,822.157Z" transform="translate(-1391.451 -821.928)" fill="#f84a5c"/>
            </g>
            <g id="Grupo_54871" data-name="Grupo 54871" transform="translate(62.846 33.562)">
              <path id="Trazado_104623" data-name="Trazado 104623" d="M1456.852,854.648l-1.846,1.986-.243-.4,1.909-1.91Z" transform="translate(-1454.763 -853.073)" fill="#c1cdd6"/>
              <path id="Trazado_104624" data-name="Trazado 104624" d="M1457.835,852.418a1,1,0,1,0,1.4.132A1,1,0,0,0,1457.835,852.418Z" transform="translate(-1455.885 -852.189)" fill="#f84a5c"/>
            </g>
            <g id="Grupo_54872" data-name="Grupo 54872" transform="translate(64.226 15.78)">
              <path id="Trazado_104625" data-name="Trazado 104625" d="M1459.685,823.833l-2.518,1-.05-.462,2.542-.909Z" transform="translate(-1457.117 -822.526)" fill="#c1cdd6"/>
              <path id="Trazado_104626" data-name="Trazado 104626" d="M1461.735,821.9a1,1,0,1,0,1.213.72A1,1,0,0,0,1461.735,821.9Z" transform="translate(-1458.717 -821.864)" fill="#f84a5c"/>
            </g>
          </g>
        </g>
        <g id="Grupo_54875" data-name="Grupo 54875" transform="translate(59.077 30.495)">
          <path id="Trazado_104627" data-name="Trazado 104627" d="M1342.158,788.4c1.344.2,2.427,1.407,3.223,3.576,2.968,8.1,6.63,9.1,13.227,8.226a40.86,40.86,0,0,1,10.706-.227c13.458.975,12.65-4.756,22.041-7.5,3.256-.953,4.85-2.048,4.875-3.38s-1.5-2.407-4.932-3.453l-.324,1.222c4,1.22,4.1,2.127,4.1,2.226a.056.056,0,0,1,0,.014c-.028.353-.891,1.235-4,2.145-9.207,2.694-7.427,8.623-20.8,7.654a54.5,54.5,0,0,0-11.785.043c-6.254.833-9.309-.02-12.034-7.456-.958-2.613-2.344-4.075-4.12-4.343Z" transform="translate(-1342.158 -785.64)" fill="#f1dec1"/>
        </g>
        <g id="Grupo_54876" data-name="Grupo 54876" transform="translate(36.782 37.971)">
          <path id="Trazado_104628" data-name="Trazado 104628" d="M1304.2,821l23.774-14.914.676,1.6s-20.7,20.448-22.839,21.466S1304.2,821,1304.2,821Z" transform="translate(-1304.138 -801.571)" fill="#ffc393"/>
          <path id="Trazado_104629" data-name="Trazado 104629" d="M1344.692,802.9l-.124-2.032s5.638-2.884,5.879-2.431-2.583,2.095-2.583,2.095a13.549,13.549,0,0,1,3-.342c.2.2-.413.79-.413.79s.549-.039.541.359-3.114,1.237-3.114,1.237a11.509,11.509,0,0,1,2.242.092c.147.152-2.058.709-2.71.946s-1.674,1.514-2.214,1.054S1344.692,802.9,1344.692,802.9Z" transform="translate(-1320.86 -798.39)" fill="#ffc393"/>
        </g>
        <path id="Trazado_104630" data-name="Trazado 104630" d="M1301.71,829.314c.17.357-.255,12.416-.255,12.416l4.351-1.242-1.98-11.959Z" transform="translate(-1266.246 -772.884)" fill="#89a4c9"/>
      </g>
    </g>
  </g>
</svg>
