<svg id="Grupo_55169" data-name="Grupo 55169" xmlns="http://www.w3.org/2000/svg" width="22.618" height="37.696" viewBox="0 0 22.618 37.696">
  <g id="Grupo_55168" data-name="Grupo 55168">
    <path id="Trazado_105499" data-name="Trazado 105499" d="M813.8,6977.712l-1.886-35.81a.628.628,0,0,0-.627-.6H793.7a.627.627,0,0,0-.627.6l-1.886,35.811a.627.627,0,0,0,.565.657l6.283.628a.631.631,0,0,0,.683-.523l3.777-23.207,3.778,23.206a.632.632,0,0,0,.619.528c.021,0,.042,0,.064,0l6.283-.628A.63.63,0,0,0,813.8,6977.712Zm-6.385-.023-4.3-26.431a.628.628,0,0,0-1.24,0l-4.3,26.431-5.1-.509,1.821-34.619h16.4l1.822,34.618Z" transform="translate(-791.181 -6941.307)" fill="#0ac4bf"/>
  </g>
</svg>
