<svg id="Grupo_55166" data-name="Grupo 55166" xmlns="http://www.w3.org/2000/svg" xmlns:xlink="http://www.w3.org/1999/xlink" width="56.496" height="36.98" viewBox="0 0 56.496 36.98">
  <defs>
    <clipPath id="clip-path">
      <path id="Trazado_105497" data-name="Trazado 105497" d="M358.766,6980.987l8.739-.182,8.037-5.6s.3,1.2,2.712,2.1c2.46.92,3.421-.76,3.421-.76l16.961,4.445,9.042-36.53-49.782-.45-6.714,6.518Z" transform="translate(-351.181 -6944.007)" fill="none"/>
    </clipPath>
  </defs>
  <g id="Grupo_55165" data-name="Grupo 55165" clip-path="url(#clip-path)">
    <path id="Trazado_105496" data-name="Trazado 105496" d="M412.756,6969.416l4.343-16.621-2.642-1.643-7.791,12.027,6.09,6.237Zm-33.438.765,6.342-6.489-8.124-12.545-2.754,1.693,4.536,17.341Zm16.68.048,12.546-19.359-3.931.565c-3.111.307-6.231.482-9.361.477a80.32,80.32,0,0,1-8.3-.441l-3.478-.589L396,6970.229Zm1.872,19.58a2.554,2.554,0,0,1-2.489-2.629l.03-1.136a2.56,2.56,0,0,1,5.118.142l-.029,1.135a2.567,2.567,0,0,1-2.631,2.489ZM381.6,7005.189a1.1,1.1,0,0,0,.083-.393v-12.422l-10.827.042L370.8,7004.8a.592.592,0,0,0,.077.329l10.69.059Zm36.921.124a1.074,1.074,0,0,0,.083-.394V6992.5l-10.826.036-.048,12.386a.647.647,0,0,0,.077.334l10.692.053Zm-47.764,5a4.809,4.809,0,0,1-3.084-1.13,5.7,5.7,0,0,1-1.983-4.4l.059-14.938a2.55,2.55,0,0,1,2.548-2.549l15.933-.059a2.561,2.561,0,0,1,2.572,2.561V7004.8a5.69,5.69,0,0,1-2.007,4.4,4.808,4.808,0,0,1-3.065,1.119Zm36.921.122a4.8,4.8,0,0,1-3.083-1.13,5.682,5.682,0,0,1-1.99-4.389l.059-14.939a2.558,2.558,0,0,1,2.553-2.548l15.939-.058a2.56,2.56,0,0,1,2.572,2.56v14.986a5.69,5.69,0,0,1-2.012,4.406,4.823,4.823,0,0,1-3.065,1.112Zm-9.8,3.713a2.549,2.549,0,0,1-2.489-2.623l.03-1.136a2.56,2.56,0,1,1,5.118.136l-.029,1.135a2.559,2.559,0,0,1-2.631,2.489Zm43.683,14.034,16.351-4.713-.477-2.343c-3.66-16.121-13.008-39.229-17.993-51.807l-.694-1.753-.812,1.523a55.2,55.2,0,0,0-2.783,7.314,70.621,70.621,0,0,0-2.677,14.456l-.318,5.59,1.565,8.455a87.133,87.133,0,0,0,5.236,18.247l2.6,5.031Zm-93.336,2.036,2.459-6.644c3.054-9.067,5.3-18.17,7.8-27.437l.03-.064-.247-4.449a78.585,78.585,0,0,0-2.677-15.356,62.574,62.574,0,0,0-2.8-7.768l-1.517-3.023-.729,1.943c-4.779,12.531-15.841,39.943-18.264,56.259l-.212,1.885,16.158,4.654Zm49.653,7.236a2.558,2.558,0,0,1-2.489-2.63l.03-1.137a2.56,2.56,0,0,1,5.118.136l-.029,1.136a2.567,2.567,0,0,1-2.631,2.494Zm48.1,4.777,16.517-4.712-1-2.932-.442-1.293.03.188a2.544,2.544,0,0,1-1.683,2.277l-1.066.394a2.245,2.245,0,0,1-.753.153,2.562,2.562,0,0,1-1.005-4.965l1.071-.39a2.571,2.571,0,0,1,2.754.665l.171.29-.523-1.548-.683-1.976-16.152,4.654,2.765,9.2ZM343.7,7044.428l2.864-9.361-15.686-4.512-.624,1.942-.677,2.093.488-.792a2.569,2.569,0,0,1,2.76-.659l1.064.388a2.563,2.563,0,0,1-1.007,4.965,2.361,2.361,0,0,1-.753-.158l-1.071-.389a2.559,2.559,0,0,1-1.677-2.277l.136-.882-.535,1.659-.878,2.725,15.593,5.259Zm54.172,18.923a2.553,2.553,0,0,1-2.489-2.624l.03-1.135a2.56,2.56,0,0,1,5.118.14l-.029,1.136a2.557,2.557,0,0,1-2.631,2.482Zm-8.166,3.825-.013-.077v-83a2.692,2.692,0,0,1,.188-.979l3.26-7.877-4.624-7.144-8.7,8.9a2.554,2.554,0,0,1-4.306-1.136l-5.348-20.445-5.214,2.741a91.868,91.868,0,0,1-9.584,3.779l-.136.04,2.242,4.473a68.011,68.011,0,0,1,3.032,8.408,91.8,91.8,0,0,1,3.223,23.083,2.437,2.437,0,0,1-.176,1l-.024.046-.053.541c-.724,9.6-.388,42.188-1.513,61.146l-.129,1.858,1.541.547A100.816,100.816,0,0,0,385.7,7067l4,.178Zm5.053.187,8.3-.135a103.9,103.9,0,0,0,24.766-3.93l2.277-.783-.147-1.853c-1.436-19.2-2.578-53.126-2.889-62.705l-.029-1.017-.03-.147.011-.225,0-.187.029-.153.33-5.821a75.945,75.945,0,0,1,2.877-15.49,60.56,60.56,0,0,1,3.036-7.974l2.612-4.948-4.613-1.782c-2.119-.906-4.172-1.865-6.219-2.913l-3.36-1.854-5.13,19.646a2.558,2.558,0,0,1-4.313,1.141l-8.444-8.642-5.431,8.384-3.571,8.631V7067.1l-.054.264Zm2.084,5.143c-.878.006-1.747,0-2.612-.011-13.91-.195-27.249-2.325-36.034-5.825a2.565,2.565,0,0,1-1.6-2.584c.747-9.384.97-24.17,1.147-37.575l.112-8.685-.118.418c-.7,2.33-1.43,4.661-2.218,6.99l-3.4,9.162-4.3,14.057a2.531,2.531,0,0,1-3.264,1.67l-20.488-6.913a2.564,2.564,0,0,1-1.624-3.219c.488-1.5,1.53-4.724,2.925-9.067l1.43-4.455.407-3.583c3.159-20.888,19.2-57.916,20.469-62.675a2.571,2.571,0,0,1,1.76-1.807c11.99-3.466,18.77-7.338,27.507-12.916a2.575,2.575,0,0,1,.946-.363l.637.018.223-.088a2.559,2.559,0,0,1,1.018.018c10.973,2.518,22.023,2.036,33.225-.018a2.77,2.77,0,0,1,1.018.018l.3.129.758.3c8.962,5.8,15.716,9.35,24.554,12.439a2.571,2.571,0,0,1,1.613,1.7c1.353,4.632,16.163,38.411,21.158,60.216l.712,3.513.2.171a2.562,2.562,0,0,1,.471.9,2.6,2.6,0,0,1,.083,1.012l-.048.147,1.072,3.09c1.6,4.658,2.794,8.161,3.317,9.772a2.559,2.559,0,0,1-1.73,3.249l-21.517,6.147a2.566,2.566,0,0,1-3.159-1.723l-4.56-15.158-1.994-3.664c-.582-1.189-1.118-2.4-1.613-3.619l-.558-1.507.142,3.459c.57,13.7,1.323,28.9,2.159,38.422a2.571,2.571,0,0,1-1.635,2.611c-10.4,4-23.794,5.784-36.892,5.826Z" transform="translate(-368.365 -6943.408)" fill="#0ac4bf"/>
  </g>
</svg>
