<svg id="Grupo_55181" data-name="Grupo 55181" xmlns="http://www.w3.org/2000/svg" width="36.052" height="37.029" viewBox="0 0 36.052 37.029">
  <g id="Grupo_55180" data-name="Grupo 55180" transform="translate(0)">
    <g id="Grupo_55179" data-name="Grupo 55179">
      <path id="Trazado_105503" data-name="Trazado 105503" d="M506.868,6978.285l-8.342-28.046v-3.948a.845.845,0,0,0-.844-.844H480.071a.845.845,0,0,0-.844.844v3.948l-8.342,28.046a.845.845,0,0,0,.389.973c.228.135,5.678,3.219,16.554,3.219h2.1c10.875,0,16.335-3.091,16.554-3.219A.845.845,0,0,0,506.868,6978.285Zm-25.951-31.148h15.92v2.375h-15.92Zm9.008,33.65h-1.048c-9.034.161-14.451-1.911-16.158-2.7L480.7,6951.2h2.917l-2.13,8.99a.847.847,0,0,0,.625,1.014h.195a.842.842,0,0,0,.844-.649l2.2-9.355h7.039l2.231,9.379a.843.843,0,0,0,.846.65h.195a.844.844,0,0,0,.625-1.012l-2.156-9.017h2.917l7.994,26.879C503.4,6978.844,498.342,6980.787,489.925,6980.787Z" transform="translate(-470.851 -6945.447)" fill="#0ac4bf"/>
    </g>
  </g>
</svg>
