<svg xmlns="http://www.w3.org/2000/svg" width="269.957" height="427.246" viewBox="0 0 269.957 427.246">
  <g id="Grupo_55260" data-name="Grupo 55260" transform="translate(-664.756 -8157.913)">
    <rect id="Rectángulo_9525" data-name="Rectángulo 9525" width="269.957" height="427.246" rx="19.826" transform="translate(664.756 8157.913)" fill="#fff"/>
    <g id="Grupo_55259" data-name="Grupo 55259" transform="translate(676.55 8171.829)">
      <g id="Grupo_55256" data-name="Grupo 55256" transform="translate(32.912)">
        <g id="Grupo_55254" data-name="Grupo 55254">
          <g id="Grupo_55250" data-name="Grupo 55250" transform="translate(0 25.517)">
            <path id="Trazado_105823" data-name="Trazado 105823" d="M849.4,8259.289s-15.039-6.488-20.7-10.271c0,0-5.5-2.656-5.733-14.659s.693-20.315,2.539-25.972l2.308-8.771s-6.694-10.389-25.392-12.813c0,0-12.581-1.155-15.467,1.846,0,0-7.618,28.512-18.005,41.207,0,0-2.194,8.427-25.279,13.158l-27.24,5.888s-12.58,2.656-14.543,12.928c0,0-7.618,8.194-3.463,38.665l1.154,6.233,13.389,69.023,19.506,77.334.809,2.77v7.733s-21.7,31.05-24.239,54.136-2.539,40.4-2.539,40.4,98.11,2.309,142.9,0v-31.4a103.9,103.9,0,0,0-9.235-40.86l-9.926-18.7s-1.732-1.385-1.385-14.081l8.2-42.822,9.81-30.816,7.388-13.621s9.618-12.542,8.387-23.009l-3.54-12.312s-.462-16.157.154-22.161l4.463-16,1.539-14.467s1.077-6.617-3.386-10.312A112.319,112.319,0,0,0,849.4,8259.289Z" transform="translate(-696.521 -8185.906)" fill="#fff"/>
            <path id="Trazado_105824" data-name="Trazado 105824" d="M792.766,8560c-42.033,0-85.428-1.006-86.081-1.021l-.648-.015v-.647c0-.173.029-17.613,2.542-40.472,2.432-22.094,22.489-51.724,24.236-54.27v-7.43l-.783-2.678-19.511-77.357-13.4-69.059-1.157-6.24c-3.9-28.628,2.455-37.8,3.5-39.086,2.124-10.441,14.494-13.167,15.023-13.279l27.237-5.883c22.254-4.564,24.756-12.6,24.778-12.685l.127-.247c10.176-12.438,17.8-40.673,17.878-40.957l.162-.288c3.02-3.141,14.687-2.173,16.006-2.047,18.812,2.438,25.612,12.676,25.891,13.112l.157.245-2.383,9.057c-1.919,5.882-2.738,14.3-2.517,25.788.217,11.37,5.311,14.046,5.361,14.074,5.623,3.75,20.519,10.2,20.669,10.259l.067.034a111.883,111.883,0,0,1,12.56,8.335c4.7,3.894,3.664,10.645,3.618,10.932l-1.535,14.43-4.484,16.114c-.561,5.561-.165,20.615-.132,21.879l3.516,12.23c1.269,10.717-8.1,23.073-8.5,23.6l-7.331,13.533-9.764,30.705L829.7,8453.4c-.308,11.583,1.137,13.414,1.2,13.484l.12.161,9.926,18.7a105.682,105.682,0,0,1,9.312,41.186v32.012l-.629.03C834.786,8559.74,813.948,8560,792.766,8560Zm-85.4-2.33c8.588.192,98.955,2.145,141.563.017v-30.765a104.212,104.212,0,0,0-9.176-40.587l-9.87-18.592c-.505-.623-1.8-3.319-1.5-14.479l8.207-42.927,9.831-30.9,7.434-13.736c.153-.21,9.5-12.54,8.314-22.613l-3.545-12.371c-.02-.661-.455-16.271.157-22.245l4.484-16.118L864.787,8278c.015-.1.961-6.33-3.149-9.729a111.952,111.952,0,0,0-12.341-8.191c-1-.428-15.206-6.595-20.77-10.316-.161-.068-5.793-2.924-6.028-15.2-.225-11.633.617-20.2,2.571-26.186l2.22-8.44c-1.126-1.521-8.163-10.131-24.757-12.283-3.331-.3-12.412-.61-14.79,1.54-.715,2.642-8,28.854-18,41.177-.424,1.23-3.93,9.015-25.74,13.487l-27.233,5.884c-.125.028-12.176,2.691-14.031,12.4l-.036.188-.13.14c-.07.079-7.335,8.467-3.292,38.124l1.151,6.2,13.387,69.018,19.5,77.3.829,2.933v7.941l-.12.173c-.215.308-21.631,31.176-24.123,53.824C707.664,8538.294,707.4,8554.308,707.367,8557.667Z" transform="translate(-696.711 -8186.1)" fill="#999"/>
          </g>
          <ellipse id="Elipse_4296" data-name="Elipse 4296" cx="3.116" cy="4.675" rx="3.116" ry="4.675" transform="translate(10.796 121.523)" fill="#999"/>
          <g id="Grupo_55251" data-name="Grupo 55251" transform="translate(101.627)">
            <path id="Trazado_105825" data-name="Trazado 105825" d="M775.79,8188.817v12.465a6.284,6.284,0,0,0,5.733.422l.115-12.887s7.615-1.734,7.542-9.929c0,0,1.077-11-10-10.541s-9.233,13.234-9.233,13.234S771.943,8188.047,775.79,8188.817Z" transform="translate(-769.165 -8167.672)" fill="#fff"/>
            <path id="Trazado_105826" data-name="Trazado 105826" d="M779.242,8203.056a6.77,6.77,0,0,1-3.644-1.041l-.284-.2v-12.3c-3.829-1.257-5.734-7.28-5.817-7.546-.06-.369-.93-6.692,2.468-10.785a9.631,9.631,0,0,1,7.371-3.311c3.472-.136,6.179.777,8.039,2.746,3.124,3.3,2.674,8.312,2.653,8.521a10.559,10.559,0,0,1-7.542,10.359l-.115,12.84-.407.167A7.11,7.11,0,0,1,779.242,8203.056Zm-2.6-1.963a5.6,5.6,0,0,0,4.41.338l.117-12.953.509-.119a9.268,9.268,0,0,0,7.026-9.277c.007-.115.411-4.7-2.3-7.557-1.584-1.669-3.947-2.466-7.013-2.325a8.367,8.367,0,0,0-6.4,2.826c-3.023,3.638-2.212,9.592-2.2,9.651h0c.008,0,1.918,6,5.319,6.676l.534.107Z" transform="translate(-769.354 -8167.86)" fill="#999"/>
          </g>
          <path id="Trazado_105827" data-name="Trazado 105827" d="M820.111,8321.874l-5.784-21.892c-4.815-15.361-5.641-24.2-6.89-37.588-.162-1.735-.332-3.545-.516-5.454-1.558-16.034-7.173-20.376-7.229-20.419l.783-1.072c.249.181,6.139,4.635,7.766,21.361.186,1.914.355,3.725.516,5.461,1.242,13.3,2.063,22.087,6.842,37.344l5.793,21.921Z" transform="translate(-655.621 -8140.892)" fill="#999"/>
          <path id="Trazado_105828" data-name="Trazado 105828" d="M778.874,8386.49q-2.522,0-5.248-.04c-36.107-.576-50.829-8.3-51.437-8.623l.629-1.168c.147.078,15.1,7.9,50.829,8.462,35.564.546,44.444-4.8,44.531-4.857l.719,1.113C818.56,8381.6,810.63,8386.49,778.874,8386.49Z" transform="translate(-686.546 -8084.546)" fill="#999"/>
          <path id="Trazado_105829" data-name="Trazado 105829" d="M779.646,8394.648q-3.068,0-6.43-.111c-33.807-1.146-49.866-9.109-50.026-9.192l.6-1.183c.155.077,16,7.915,49.469,9.048,33.3,1.123,44.364-6.939,44.473-7.021l.807,1.053C818.12,8387.564,808.517,8394.648,779.646,8394.648Z" transform="translate(-686.146 -8081.554)" fill="#999"/>
          <path id="Trazado_105830" data-name="Trazado 105830" d="M785.216,8246.336a25.542,25.542,0,0,1-5.561-.635c-18.719-4.158-34.279-24.164-34.432-24.363l1.051-.812c.152.2,15.425,19.828,33.669,23.881,17.921,3.982,25.112-12.709,25.412-13.42l1.226.512C806.51,8231.662,800.217,8246.336,785.216,8246.336Z" transform="translate(-677.355 -8146.845)" fill="#999"/>
          <path id="Trazado_105831" data-name="Trazado 105831" d="M796.139,8206.772c-19.666,0-35.906-11.321-36.075-11.444l.768-1.081c.175.125,17.716,12.3,38.166,11.117l.08,1.32C798.092,8206.743,797.11,8206.772,796.139,8206.772Z" transform="translate(-671.433 -8157.332)" fill="#999"/>
          <path id="Trazado_105832" data-name="Trazado 105832" d="M795.765,8200.994c-17.64,0-34.3-11.358-34.486-11.489l.753-1.091c.21.144,20.946,14.279,40.286,10.666l.242,1.306A37.083,37.083,0,0,1,795.765,8200.994Z" transform="translate(-670.948 -8159.66)" fill="#999"/>
          <path id="Trazado_105833" data-name="Trazado 105833" d="M774.944,8542.731l-.1-17.179c.758-17.177-2.885-54.964-2.921-55.344l-.928-26.2-1.385-70.961c.017-.337,1.725-28.873,4.165-42.451,2.383-13.242-7.924-26.889-8.029-27.026-.21-.417-13.563-29.5-20.573-50.983-6.852-21-17.711-23.54-17.819-23.563l.269-1.3c.476.1,11.694,2.639,18.811,24.453,6.987,21.412,20.307,50.425,20.442,50.714.364.448,10.691,14.118,8.205,27.942-2.426,13.5-4.129,41.959-4.145,42.245l1.385,70.894.925,26.152c.035.34,3.686,38.219,2.925,55.458l.1,17.146Z" transform="translate(-684.486 -8143.975)" fill="#999"/>
          <path id="Trazado_105834" data-name="Trazado 105834" d="M788.076,8552.429l-1.325-.073c.028-.473,2.686-47.453-3.895-68.79-6.656-21.569-4.667-49.6-4.646-49.878l7.851-64.666c.027-.356,2.956-38.678,1.261-56.879-.546-5.838-1.778-13.085-3.083-20.762-2.806-16.5-6.3-37.027-4.874-55.069l3.517-33.636,1.321.141-3.516,33.615c-1.41,17.864,2.068,38.3,4.86,54.725,1.311,7.7,2.546,14.975,3.1,20.862,1.707,18.313-1.231,56.746-1.26,57.134l-7.851,64.663c-.018.249-1.988,28.032,4.593,49.358C790.777,8504.739,788.1,8551.956,788.076,8552.429Z" transform="translate(-664.31 -8153.968)" fill="#999"/>
          <path id="Trazado_105835" data-name="Trazado 105835" d="M723.333,8313.861l-4.053-13.245.539-.239c.355-.155,35.848-15.657,65.365-10.6,29.311,5.021,64.6,9.646,64.956,9.691l2.613.416.125.389c.1.309,2.384,7.6-2.367,12.109l-.239.227-35.068-5.825c-.406-.079-38.676-7.778-51.071-4.171-12.556,3.651-39.9,11.01-40.18,11.084Zm-2.437-12.5,3.332,10.887c4.151-1.121,28.045-7.569,39.535-10.911,12.711-3.692,50.1,3.82,51.681,4.143l34.383,5.711c3.3-3.4,2.265-8.671,1.894-10.128l-1.772-.282c-.334-.042-35.654-4.673-64.99-9.7C757.81,8286.436,725.454,8299.443,720.9,8301.359Z" transform="translate(-687.706 -8119.62)" fill="#999"/>
          <path id="Trazado_105836" data-name="Trazado 105836" d="M764.353,8394.658l-3.595-3.6,2.708-3.713-3.277-3.559.975-.9,4.017,4.361-2.681,3.674,2.793,2.791Z" transform="translate(-671.383 -8082.06)" fill="#999"/>
          <path id="Trazado_105837" data-name="Trazado 105837" d="M767.933,8394.658l-3.595-3.6,2.707-3.713-3.277-3.559.975-.9,4.017,4.361-2.679,3.674,2.793,2.791Z" transform="translate(-669.955 -8082.06)" fill="#999"/>
          <path id="Trazado_105838" data-name="Trazado 105838" d="M771.786,8394.654l-3.593-3.594,2.707-3.713-3.277-3.559.975-.9,4.017,4.361-2.679,3.674,2.791,2.794Z" transform="translate(-668.417 -8082.06)" fill="#999"/>
          <path id="Trazado_105839" data-name="Trazado 105839" d="M775.434,8394.654l-3.593-3.594,2.706-3.713-3.277-3.559.975-.9,4.017,4.361-2.679,3.674,2.791,2.794Z" transform="translate(-666.962 -8082.06)" fill="#999"/>
          <path id="Trazado_105840" data-name="Trazado 105840" d="M778.948,8394.054l-3.593-3.594,2.707-3.713-3.277-3.558.975-.9,4.017,4.359-2.679,3.674,2.791,2.792Z" transform="translate(-665.56 -8082.301)" fill="#999"/>
          <path id="Trazado_105841" data-name="Trazado 105841" d="M744.849,8393.7l-3.251-3.832,3.051-3.3-2.9-3.722,1.047-.815,3.6,4.61-3.019,3.261,2.491,2.938Z" transform="translate(-678.802 -8082.405)" fill="#999"/>
          <path id="Trazado_105842" data-name="Trazado 105842" d="M748.41,8394.053l-3.251-3.834,3.05-3.3-2.9-3.72,1.047-.815,3.6,4.608-3.019,3.262,2.491,2.938Z" transform="translate(-677.38 -8082.263)" fill="#999"/>
          <path id="Trazado_105843" data-name="Trazado 105843" d="M752.246,8394.436,749,8390.6l3.051-3.3-2.9-3.722,1.047-.815,3.593,4.61-3.016,3.262,2.491,2.937Z" transform="translate(-675.85 -8082.11)" fill="#999"/>
          <path id="Trazado_105844" data-name="Trazado 105844" d="M733.716,8391.354l-3.251-3.832,3.05-3.3-2.9-3.72,1.047-.815,3.593,4.609-3.016,3.263,2.49,2.937Z" transform="translate(-683.243 -8083.34)" fill="#999"/>
          <path id="Trazado_105845" data-name="Trazado 105845" d="M730.23,8390.353l-3.251-3.832,3.051-3.3-2.9-3.723,1.047-.814,3.593,4.609-3.016,3.262,2.491,2.938Z" transform="translate(-684.635 -8083.738)" fill="#999"/>
          <path id="Trazado_105846" data-name="Trazado 105846" d="M727.353,8389.373l-3.251-3.833,3.051-3.3-2.9-3.718,1.047-.815,3.6,4.605-3.02,3.264,2.491,2.939Z" transform="translate(-685.782 -8084.131)" fill="#999"/>
          <path id="Trazado_105847" data-name="Trazado 105847" d="M737.278,8392.309l-3.251-3.834,3.051-3.3-2.9-3.721,1.047-.815,3.593,4.609-3.016,3.261,2.491,2.938Z" transform="translate(-681.822 -8082.957)" fill="#999"/>
          <path id="Trazado_105848" data-name="Trazado 105848" d="M741.115,8392.692l-3.253-3.834,3.05-3.3-2.9-3.722,1.047-.814,3.6,4.609-3.019,3.261,2.492,2.937Z" transform="translate(-680.292 -8082.806)" fill="#999"/>
          <path id="Trazado_105849" data-name="Trazado 105849" d="M755.876,8394.8l-3.251-3.83,3.05-3.3-2.9-3.719,1.047-.816,3.6,4.609L754.4,8391l2.491,2.937Z" transform="translate(-674.402 -8081.966)" fill="#999"/>
          <path id="Trazado_105850" data-name="Trazado 105850" d="M759.431,8394.57l-3.253-3.833,3.051-3.3-2.9-3.721,1.047-.816,3.6,4.609-3.019,3.263,2.492,2.938Z" transform="translate(-672.984 -8082.058)" fill="#999"/>
          <path id="Trazado_105851" data-name="Trazado 105851" d="M788.92,8390.483l-3.332-2.961,2.425-2.958-2.822-2.721.923-.954,3.7,3.571-2.39,2.915,2.378,2.116Z" transform="translate(-661.408 -8082.862)" fill="#999"/>
          <path id="Trazado_105852" data-name="Trazado 105852" d="M786.019,8391.376l-3.332-2.963,2.425-2.957-2.822-2.721.923-.954,3.7,3.572-2.39,2.915,2.378,2.115Z" transform="translate(-662.565 -8082.504)" fill="#999"/>
          <path id="Trazado_105853" data-name="Trazado 105853" d="M783.4,8392.419l-3.671-3.169,2.693-3.187-3.163-2.962.906-.968,4.086,3.824-2.658,3.149,2.676,2.307Z" transform="translate(-663.774 -8082.364)" fill="#999"/>
          <path id="Trazado_105854" data-name="Trazado 105854" d="M791.2,8389.647l-2.942-2.846,2.138-2.84-2.489-2.615.961-.917,3.267,3.431-2.11,2.8,2.1,2.029Z" transform="translate(-660.325 -8083.042)" fill="#999"/>
          <path id="Trazado_105855" data-name="Trazado 105855" d="M741.666,8496.336l-1.327-.022,1.154-67.979,2.078-69.718v-63.44H744.9v63.46l-2.078,69.729Z" transform="translate(-679.304 -8117.061)" fill="#999"/>
          <path id="Trazado_105856" data-name="Trazado 105856" d="M724.767,8521.985l-1.3-.285c.015-.095.48-3.245,1.5-40.913.992-36.78,12.276-49.295,13.888-50.9l1.309-8.28-30.606-141.254,1.3-.281,30.661,141.5-.021.122-1.4,8.852-.171.157c-.126.116-12.6,12.006-13.63,50.117C725.254,8519.377,724.786,8521.9,724.767,8521.985Z" transform="translate(-691.584 -8123.085)" fill="#999"/>
          <g id="Grupo_55252" data-name="Grupo 55252" transform="translate(16.679 156.991)">
            <rect id="Rectángulo_9526" data-name="Rectángulo 9526" width="1.326" height="1.77" transform="matrix(0.978, -0.211, 0.211, 0.978, 0, 0.28)" fill="#999"/>
            <path id="Trazado_105857" data-name="Trazado 105857" d="M723.87,8515.04l-1.328-.059.154-3.534,1.328.056Zm.292-7.075-1.328-.049.129-3.536,1.326.047Zm.25-7.078-1.328-.039.115-3.538,1.328.042Zm.222-7.077-1.326-.042.1-3.535,1.328.038Zm.208-7.076-1.328-.036.1-3.539,1.328.039Zm.2-7.084-1.326-.02.008-.329q.044-1.642.116-3.23l1.326.063q-.071,1.573-.115,3.208Zm.322-7.039-1.323-.086q.12-1.818.274-3.543l1.321.117Q725.483,8470.808,725.361,8472.61Zm.632-7.019-1.319-.149q.206-1.815.451-3.526l1.314.186Q726.2,8463.795,725.993,8465.592Zm.989-6.968-1.307-.224q.311-1.815.658-3.5l1.3.266Q727.293,8456.831,726.982,8458.624Zm1.416-6.885-1.29-.311q.436-1.809.9-3.449l1.276.362Q728.829,8449.958,728.4,8451.739Zm1.915-6.755-1.259-.419q.6-1.792,1.2-3.36l1.238.481Q730.9,8443.222,730.313,8444.984Zm2.541-6.524-1.207-.554c.516-1.126,1.053-2.207,1.6-3.206l1.165.633C733.881,8436.308,733.356,8437.358,732.854,8438.46Zm3.345-6.109-1.1-.736a24,24,0,0,1,2.215-2.887l.978.9A23.041,23.041,0,0,0,736.2,8432.351Zm3.142-6.4-1.31-.209.553-3.5,1.311.208Zm-.665-6.943-.75-3.46,1.3-.281.75,3.461Zm-1.5-6.921-.75-3.46,1.3-.28.75,3.46Zm-1.5-6.921-.75-3.46,1.3-.279.75,3.458Zm-1.5-6.92-.75-3.46,1.3-.28.751,3.461Zm-1.5-6.92-.749-3.461,1.3-.28.748,3.462Zm-1.5-6.919-.751-3.459,1.3-.281.75,3.461Zm-1.5-6.92-.75-3.46,1.3-.281.75,3.461Zm-1.5-6.92-.75-3.462,1.3-.28.75,3.463Zm-1.5-6.921-.75-3.461,1.3-.278.75,3.46Zm-1.5-6.92-.75-3.46,1.3-.28.75,3.459Zm-1.5-6.921-.75-3.46,1.3-.279.75,3.46Zm-1.5-6.918-.749-3.461,1.3-.279.749,3.46Zm-1.5-6.921-.75-3.459,1.3-.279.751,3.459Zm-1.5-6.92-.75-3.461,1.3-.279.75,3.459Zm-1.5-6.919-.751-3.462,1.3-.28.75,3.462Zm-1.5-6.922-.75-3.461,1.3-.278.75,3.459Zm-1.5-6.92-.75-3.458,1.3-.281.75,3.46Zm-1.5-6.919-.75-3.46,1.3-.28.75,3.46Zm-1.5-6.92-.749-3.461,1.3-.277.749,3.459Zm-1.5-6.922-.75-3.458,1.3-.28.75,3.459Z" transform="translate(-708.313 -8278.596)" fill="#999"/>
            <path id="Trazado_105858" data-name="Trazado 105858" d="M719.875,8453.539l-1.3-.275c.005-.036.046-.352.13-1.659l1.325.082C719.966,8452.7,719.908,8453.375,719.875,8453.539Z" transform="translate(-704.666 -8211.637)" fill="#999"/>
          </g>
          <g id="Grupo_55253" data-name="Grupo 55253" transform="translate(19.29 156.987)">
            <rect id="Rectángulo_9527" data-name="Rectángulo 9527" width="1.326" height="1.769" transform="matrix(0.977, -0.212, 0.212, 0.977, 0, 0.281)" fill="#999"/>
            <path id="Trazado_105859" data-name="Trazado 105859" d="M725.738,8515.037l-1.328-.057.154-3.534,1.328.056Zm.292-7.077-1.328-.045.126-3.538,1.328.049Zm.246-7.074-1.326-.043.113-3.535,1.328.04Zm.225-7.08-1.328-.04.106-3.536,1.326.041Zm.206-7.073-1.328-.037.1-3.539,1.328.038Zm.2-7.084-1.328-.022.008-.328q.042-1.641.116-3.231l1.328.063c-.049,1.048-.088,2.115-.116,3.212Zm.322-7.039-1.325-.087q.12-1.816.277-3.545l1.321.121Q727.346,8470.807,727.226,8472.609Zm.628-7.019-1.316-.15c.138-1.209.288-2.387.45-3.526l1.314.188Q728.065,8463.8,727.854,8465.591Zm.995-6.968-1.307-.226q.311-1.811.656-3.5l1.3.265Q729.158,8456.831,728.849,8458.623Zm1.413-6.886-1.288-.31q.434-1.811.9-3.45l1.274.362Q730.7,8449.957,730.262,8451.737Zm1.917-6.756-1.258-.416q.6-1.8,1.2-3.362l1.238.48Q732.765,8443.222,732.179,8444.981Zm2.539-6.525-1.206-.548c.505-1.111,1.042-2.191,1.6-3.21l1.165.632C735.735,8436.324,735.21,8437.376,734.718,8438.456Zm3.348-6.107-1.1-.736a24.028,24.028,0,0,1,2.215-2.888l.978.9A23.091,23.091,0,0,0,738.066,8432.349Zm3.142-6.4-1.309-.21.553-3.5,1.309.206Zm-.665-6.947-.751-3.461,1.3-.278.75,3.462Zm-1.5-6.921-.75-3.458,1.3-.279.75,3.458Zm-1.5-6.919-.75-3.46,1.3-.281.751,3.46Zm-1.5-6.921-.75-3.46,1.3-.279.75,3.46Zm-1.5-6.916-.751-3.463,1.3-.281.75,3.463Zm-1.5-6.923-.75-3.459,1.3-.279.75,3.459Zm-1.5-6.921-.75-3.459,1.3-.281.75,3.461Zm-1.5-6.919-.75-3.461,1.3-.281.75,3.463Zm-1.5-6.921-.75-3.461,1.3-.278.75,3.46Zm-1.5-6.921-.75-3.458,1.3-.279.75,3.458Zm-1.5-6.917-.75-3.46,1.3-.281.75,3.462Zm-1.5-6.921-.75-3.46,1.3-.279.751,3.46Zm-1.5-6.919-.748-3.462,1.3-.279.749,3.46Zm-1.5-6.923-.751-3.458,1.3-.281.75,3.461Zm-1.5-6.92-.748-3.461,1.3-.279.748,3.461Zm-1.5-6.919-.75-3.461,1.3-.279.75,3.461Zm-1.5-6.921-.748-3.459,1.3-.278.748,3.456Zm-1.5-6.919-.75-3.458,1.3-.281.75,3.46Zm-1.5-6.919-.747-3.462,1.3-.279.749,3.46Zm-1.5-6.921-.75-3.46,1.3-.279.75,3.458Z" transform="translate(-710.179 -8278.593)" fill="#999"/>
            <path id="Trazado_105860" data-name="Trazado 105860" d="M721.739,8453.539l-1.3-.282c.005-.04.049-.355.13-1.658l1.324.084C721.833,8452.694,721.775,8453.374,721.739,8453.539Z" transform="translate(-706.533 -8211.631)" fill="#999"/>
          </g>
          <path id="Trazado_105861" data-name="Trazado 105861" d="M711.773,8299.859c-8.443,0-15.057-14.251-15.057-32.443s6.615-32.444,15.057-32.444,15.058,14.252,15.058,32.444S720.216,8299.859,711.773,8299.859Zm0-63.561c-7.57,0-13.73,13.96-13.73,31.117s6.16,31.115,13.73,31.115,13.73-13.958,13.73-31.115S719.343,8236.3,711.773,8236.3Z" transform="translate(-696.71 -8141.083)" fill="#999"/>
          <path id="Trazado_105862" data-name="Trazado 105862" d="M816.088,8302.8l6.463-1.693,1.154,1.693,2.308-.54s.308-5.156-1.847-6.693H822.4l-.385,2.614-6.31,2.771-1.077.925.168.924Z" transform="translate(-649.662 -8116.906)" fill="#999"/>
          <path id="Trazado_105863" data-name="Trazado 105863" d="M738.044,8228.466l.3-6.674,1.959-.6.168-2.364s-4.832-1.818-6.94-.217L733,8220.3l2.385,1.143.779,6.846.562,1.3.932.113Z" transform="translate(-682.231 -8147.874)" fill="#999"/>
          <path id="Trazado_105864" data-name="Trazado 105864" d="M733.046,8228.791l-2.23-6.3,1.591-1.292-.73-2.254s-5.164.125-6.517,2.4l.148,1.763,2.64.166,3.289,6.056,1.011.994.905-.243Z" transform="translate(-685.36 -8147.478)" fill="#999"/>
          <path id="Trazado_105865" data-name="Trazado 105865" d="M711.685,8234.789l-2.23-6.3,1.591-1.293-.73-2.254s-5.164.125-6.517,2.4l.148,1.765,2.64.163,3.289,6.056,1.012,1,.905-.245Z" transform="translate(-693.884 -8145.083)" fill="#999"/>
          <path id="Trazado_105866" data-name="Trazado 105866" d="M761.164,8292.324l3-3.539-1.154-1.462.616-1.385s4.155,0,4.771,4l-1.154.6-1.847-.446-3.616,2.769Z" transform="translate(-670.994 -8120.745)" fill="#999"/>
          <path id="Trazado_105867" data-name="Trazado 105867" d="M762.374,8296.1l3,3.538-1.154,1.464.616,1.385s4.155,0,4.771-4l-1.154-.6-1.847.447-3.616-2.77Z" transform="translate(-670.512 -8116.906)" fill="#999"/>
          <path id="Trazado_105868" data-name="Trazado 105868" d="M786.467,8296.483l4.117-2.142,1.17,1.45,1.487-.293s.922-4.051-2.844-5.539l-.842.992.027,1.9-3.5,2.912Z" transform="translate(-661.053 -8119.141)" fill="#999"/>
          <path id="Trazado_105869" data-name="Trazado 105869" d="M786.031,8297.4l4.517,1.065-.06,1.861,1.318.748s3.342-2.469,1.461-6.053l-1.286.2-1.22,1.456-4.555-.079Z" transform="translate(-661.072 -8117.122)" fill="#999"/>
          <path id="Trazado_105870" data-name="Trazado 105870" d="M724.876,8300.729l-4.516,1.063.059,1.863-1.318.749s-3.342-2.469-1.461-6.054l1.286.2,1.22,1.457,4.555-.082Z" transform="translate(-688.59 -8115.794)" fill="#999"/>
        </g>
        <g id="Grupo_55255" data-name="Grupo 55255" transform="translate(68.741 70.36)" opacity="0.39">
          <path id="Trazado_105871" data-name="Trazado 105871" d="M791.41,8245.188s1.151-7.839-4.9-9.809c0,0-9.571-4.119-12.152,3.5,0,0,1.782-5.037-2.606-8s-8.033,2.177-8.033,2.177,3.492-2.895-.379-6.768-7.527.348-7.527.348,2.508-4.61-.73-7.228-8.737,2.524-8.737,2.524S763.278,8248.674,791.41,8245.188Z" transform="translate(-745.648 -8217.952)" fill="#999"/>
          <path id="Trazado_105872" data-name="Trazado 105872" d="M786.632,8246.4c-25.241,0-40.517-23.645-40.678-23.9a.7.7,0,0,1,.113-.885c.241-.227,5.979-5.528,9.653-2.559a5.63,5.63,0,0,1,1.74,5.782,5.212,5.212,0,0,1,6.571,1.149,5.85,5.85,0,0,1,2.026,4.372,5.582,5.582,0,0,1,6.286.134,7.091,7.091,0,0,1,3.226,5.473,6.569,6.569,0,0,1,2.128-1.5c3.977-1.773,9.074.383,9.288.476,6.477,2.1,5.327,10.468,5.315,10.553a.7.7,0,0,1-.606.593A41.409,41.409,0,0,1,786.632,8246.4Zm4.976-1.009h0Zm-44.136-23.14c2.49,3.6,18.578,25.257,43.5,22.511.129-1.713.136-7.013-4.478-8.514-.106-.044-4.815-2.025-8.23-.5a5.667,5.667,0,0,0-3.041,3.558h0v.01a.7.7,0,0,1-1.323-.457l.011-.029c.129-.393,1.426-4.619-2.347-7.172-2.736-1.853-5.16-.051-6.332,1.141a4.967,4.967,0,0,1-.862.992.7.7,0,0,1-1.018-.941,8.649,8.649,0,0,1,.8-.966,3.329,3.329,0,0,0,.511-1.589,4.553,4.553,0,0,0-1.619-3.312,4.218,4.218,0,0,0-3.109-1.43,5.4,5.4,0,0,0-3.394,1.739.7.7,0,0,1-1.143-.79c.089-.168,2.185-4.133-.557-6.353C752.625,8218.348,748.781,8221.177,747.473,8222.248Z" transform="translate(-745.847 -8218.152)" fill="#4d4d4d"/>
        </g>
        <path id="Trazado_105873" data-name="Trazado 105873" d="M779.919,8239.574l4.892,4.549-.811,1.883,1.691,1.66s4.517-2.5,4.663-5.146l-.947-1.494-2.416,1.078-5.719-3.844-1.357-.416-.69.637Z" transform="translate(-663.788 -8139.936)" fill="#999"/>
        <path id="Trazado_105874" data-name="Trazado 105874" d="M781.526,8239.465l-2.977,5.98,1.42,1.475-1,2.152s-5.109-.752-6.175-3.18l.361-1.73,2.64.158,4-5.611,1.123-.865.869.354Z" transform="translate(-666.353 -8139.936)" fill="#999"/>
      </g>
      <g id="Grupo_55257" data-name="Grupo 55257" transform="translate(0 95.554)" opacity="0.66">
        <path id="Trazado_105875" data-name="Trazado 105875" d="M706.567,8286.235s-.707-1.092-4.813,0-4.653-.242-4.653-.242-2.92.334-4.015,2.342-3.467-2.737-5.656-3.285-5.292,1.889-5.292,1.889.547,2.218-4.2-2.709c0,0-2.28-.364-3.376.82s-1.368-1.634.365-2.6,9.762-11.173,9.762-11.173,6.661-13.6,7.756-18.711,5.353-15.847,7.876-15.907,4.827,3.721,4.827,3.721,1.9.456,2.08,9.6a78.95,78.95,0,0,1-.551,13.347l-.776,9.217.663,11.586Z" transform="translate(-672.987 -8235.963)" fill="#999"/>
        <path id="Trazado_105876" data-name="Trazado 105876" d="M692.608,8289.727c-.894,0-1.737-.866-2.707-1.861a7.033,7.033,0,0,0-2.443-1.936c-1.378-.334-3.44.859-4.414,1.553a.946.946,0,0,1-.483.734c-.707.388-1.721,0-4.752-3.123a3.34,3.34,0,0,0-2.532.632,1.2,1.2,0,0,1-1.31.458,1.261,1.261,0,0,1-.772-1.176,3.217,3.217,0,0,1,1.595-2.966c1.167-.647,6.427-7.026,9.506-10.935.5-1.033,6.641-13.7,7.665-18.485.817-3.8,5.076-16.375,8.547-16.46h.073c2.548,0,4.729,3.081,5.25,3.876.82.5,2.149,2.5,2.3,10.138.179,9.112-.53,13.306-.562,13.48l-.767,9.153.663,11.49v2.139a.7.7,0,0,1-1.241.442c-.087-.065-.944-.605-4.091.233-3.163.842-4.531.325-5.1-.162a4.677,4.677,0,0,0-3.128,1.919,1.4,1.4,0,0,1-1.293.856Zm-5.672-5.256a3.541,3.541,0,0,1,.862.1,7.626,7.626,0,0,1,3.106,2.319c.513.528,1.367,1.4,1.69,1.436,0-.01.035-.048.078-.126,1.252-2.3,4.414-2.688,4.548-2.7a.708.708,0,0,1,.725.429,2.155,2.155,0,0,0,1.24.244,10.337,10.337,0,0,0,2.588-.41,9.768,9.768,0,0,1,4.294-.415v-1.008l-.66-11.549.776-9.315a79.459,79.459,0,0,0,.548-13.271c-.157-7.959-1.635-8.967-1.651-8.977-.182-.044-.231-.119-.327-.277-.583-.956-2.441-3.375-4.212-3.387-1.738.043-5.967,9.557-7.209,15.354-1.1,5.135-7.538,18.313-7.811,18.874a.747.747,0,0,1-.08.124c-.831,1.058-8.167,10.352-9.973,11.353a1.782,1.782,0,0,0-.841,1.183,5.46,5.46,0,0,1,3.623-.711.694.694,0,0,1,.395.206,19.675,19.675,0,0,0,3.106,2.815.713.713,0,0,1,.155-.17C682.21,8286.35,684.675,8284.471,686.937,8284.471Z" transform="translate(-673.186 -8236.161)" fill="#4d4d4d"/>
      </g>
      <g id="Grupo_55258" data-name="Grupo 55258" transform="translate(26.642 72.981)" opacity="0.36">
        <path id="Trazado_105877" data-name="Trazado 105877" d="M824.374,8471.461a86.533,86.533,0,0,1-8.142-32.2h.059l6.876-74.879s1.026-43.3-1.083-64.287-9.214-55.346-9.214-55.346-21.847,1.617-41.555-24.229c0,0-23.257,7.793-42.894,10.807s-30.12,7.633-30.12,7.633l-5.575,4.137s9.852-.07,6.265,25.268c-2.038,14.395-.27,48.707,6.02,78.992,4.782,23.023,9.095,45.576,12.593,53.49.9,2.035,4.067,12.645,5.134,15.713,2.723,12.277,5.521,23.859,5.521,23.859-.407,6.693-5.214,10.607-9,18.176-8.934,17.877-13.555,16.5-15.016,24.148-.207,1.088-1.546,3.334-1.824,4.406l.365,5.084s3.019,1.139,6.061,2.234,6.146,6.123,14.144,5.678a11.662,11.662,0,0,1,10.64,5.287,3.7,3.7,0,0,0,1.627,1.369c2.478,1.082,8.6,3.336,14.34,2.125,6.575-1.387,9.453-9.559,10.025-11.406a3.608,3.608,0,0,0,.144-.73l1.836-18.744a3.892,3.892,0,0,0,.018-.4c-.014-1.531.077-12.26,5.5-12.373,5.239-.109,4.012,8.822,3.7,10.66a3.475,3.475,0,0,1-.147.574c-.432,1.246-2.227,6.9-.395,10.1,2.068,3.6,2.3,7.027.483,10.545s-3.524,12.891.491,13.133,13.351-3.041,17.32,2.311c3.4,4.59,11.09,1.313,13.217.283a3.711,3.711,0,0,1,1.507-.377,5.061,5.061,0,0,1,4.151,1.584c1.761,2.16,7.7.252,7.468-3.3-.208-3.2,8.093-1.238,9.739-.82a3.411,3.411,0,0,1,.474.156c1.329.547,9.073,3.453,9.628-3.059C835.369,8499.945,830.409,8484.215,824.374,8471.461Z" transform="translate(-692.032 -8219.826)" fill="#999"/>
        <path id="Trazado_105878" data-name="Trazado 105878" d="M809.974,8515.9a3.573,3.573,0,0,1-2.867-1.174,4.329,4.329,0,0,0-3.586-1.327,3.039,3.039,0,0,0-1.223.31c-2.367,1.144-10.382,4.5-14.084-.494-2.681-3.612-8.169-2.916-12.578-2.356a24.9,24.9,0,0,1-4.222.324,2.831,2.831,0,0,1-2.363-1.521c-1.773-3.122-.077-9.979,1.291-12.627,1.682-3.25,1.533-6.391-.467-9.879-1.946-3.4-.231-9.029.34-10.675a2.8,2.8,0,0,0,.117-.459c.186-1.111,1.018-6.751-.909-8.979a2.535,2.535,0,0,0-2.089-.868c-3.889.08-4.856,7.371-4.814,11.665a4.6,4.6,0,0,1-.022.483l-1.834,18.741a4.308,4.308,0,0,1-.173.87c-.533,1.723-3.547,10.406-10.547,11.882-5.964,1.254-12.313-1.1-14.767-2.169a4.421,4.421,0,0,1-1.931-1.622,11.06,11.06,0,0,0-10.016-4.978c-5.852.336-9.247-2.189-11.724-4.028a11.948,11.948,0,0,0-2.694-1.689c-3.049-1.1-6.073-2.238-6.073-2.238a.7.7,0,0,1-.451-.6l-.365-5.086a.643.643,0,0,1,.022-.225,14.059,14.059,0,0,1,.9-2.137,12.68,12.68,0,0,0,.918-2.223c.722-3.786,2.2-5.492,4.438-8.077,2.51-2.9,5.947-6.87,10.639-16.257a65.734,65.734,0,0,1,4.221-7.049c2.37-3.58,4.418-6.677,4.7-10.751-.284-1.183-2.941-12.235-5.5-23.769-.395-1.122-1.136-3.48-1.921-5.978-1.237-3.934-2.637-8.394-3.172-9.6-3.019-6.833-6.525-23.9-10.584-43.672-.673-3.283-1.358-6.615-2.052-9.96-6.335-30.5-8.061-64.875-6.028-79.231,1.991-14.061-.192-20.046-2.373-22.592a4.694,4.694,0,0,0-3.2-1.878.7.7,0,0,1-.414-1.262l5.575-4.136a.617.617,0,0,1,.133-.079c.108-.047,10.8-4.7,30.3-7.685,19.351-2.97,42.547-10.7,42.778-10.776a.7.7,0,0,1,.779.238c19.224,25.209,40.729,23.965,40.948,23.954a.694.694,0,0,1,.735.556c.071.344,7.138,34.632,9.225,55.42s1.1,63.936,1.087,64.37l-6.879,74.929a.639.639,0,0,1-.041.175,85.554,85.554,0,0,0,8.06,31.656h0c5.693,12.029,11.111,28.247,10.452,35.969a4.918,4.918,0,0,1-2.2,4.057c-2.77,1.686-7.12.109-8.388-.415a2.707,2.707,0,0,0-.38-.124c-3.512-.895-7.544-1.387-8.645-.469a.61.61,0,0,0-.222.567c.148,2.255-1.661,3.788-3.4,4.473A6.79,6.79,0,0,1,809.974,8515.9Zm-6.244-3.9a5.662,5.662,0,0,1,4.463,1.848c.62.762,2.181.873,3.709.272,1.281-.5,2.616-1.577,2.518-3.079a2,2,0,0,1,.726-1.736c1.931-1.606,7.555-.4,9.883.188a4.374,4.374,0,0,1,.566.188c.8.329,4.867,1.893,7.128.514a3.557,3.557,0,0,0,1.54-2.982c.553-6.49-3.885-21.645-10.323-35.25a86.97,86.97,0,0,1-8.208-32.448.686.686,0,0,1,.085-.381l6.851-74.61c.007-.385,1-43.443-1.081-64.149-1.934-19.238-8.153-50.125-9.087-54.705h-.057c-3.857,0-23.482-1.188-41.183-24.119-3.42,1.12-24.6,7.927-42.534,10.676-18.481,2.832-28.932,7.152-29.874,7.552l-4.319,3.205a7.042,7.042,0,0,1,2.6,1.92c2.4,2.744,4.831,9.1,2.755,23.77-2.016,14.24-.291,48.4,6.013,78.751.7,3.343,1.379,6.681,2.054,9.961,3.874,18.869,7.534,36.692,10.493,43.389.567,1.281,1.919,5.586,3.226,9.75.782,2.485,1.519,4.833,1.931,6.016,2.713,12.21,5.511,23.808,5.539,23.924a.677.677,0,0,1,.018.206c-.274,4.5-2.433,7.765-4.932,11.544a63.786,63.786,0,0,0-4.137,6.9c-4.769,9.545-8.274,13.592-10.833,16.546-2.163,2.5-3.468,4.007-4.12,7.424a12.65,12.65,0,0,1-1.03,2.562,16.536,16.536,0,0,0-.776,1.784l.323,4.514c.93.351,3.275,1.226,5.634,2.074a12.761,12.761,0,0,1,3.055,1.883c2.433,1.807,5.456,4.043,10.813,3.755a12.3,12.3,0,0,1,11.262,5.6,3.017,3.017,0,0,0,1.322,1.109c2.329,1.019,8.344,3.258,13.917,2.08,6.233-1.311,9.007-9.332,9.5-10.926a2.974,2.974,0,0,0,.116-.59l1.835-18.746a2.9,2.9,0,0,0,.016-.328c-.02-2.161.178-12.954,6.182-13.079a3.976,3.976,0,0,1,3.179,1.352c2.278,2.636,1.518,8.415,1.231,10.123a4.2,4.2,0,0,1-.175.688c-.374,1.073-2.145,6.567-.451,9.521,2.229,3.887,2.391,7.557.5,11.219-1.455,2.813-2.624,8.994-1.319,11.292a1.437,1.437,0,0,0,1.231.817,23.757,23.757,0,0,0,3.962-.315c4.524-.572,10.712-1.357,13.877,2.911,3.065,4.134,10.23,1.1,12.35.068a4.408,4.408,0,0,1,1.789-.448C803.555,8512,803.642,8512,803.73,8512Z" transform="translate(-692.23 -8220.026)" fill="#4d4d4d"/>
      </g>
      <path id="Trazado_105879" data-name="Trazado 105879" d="M870.448,8411.3v-26.288h-5.777s-1.493-.2-1.642-1.045-6.174-10.307-12.247-11-18.173-3.733-18.173-3.733-5.826-2.141-7.269,2.541,2.39,4.579,10.505,6.918l7.219,1.146s1.1,1.444-.9,1.444-42.768-.647-42.768-.647-3.184.5-3.135,5.129,4.579,3.684,4.579,3.684l22.9.051s-4.53,1.841-4.331,6.521,4.382,3.883,4.382,3.883-5.228,6.424,3.086,9.559c0,0-1.892,8.765,4.333,9.012s20.014,0,20.014,0,8.365-1.244,11.352-7.021Z" transform="translate(-624.077 -8087.707)"/>
    </g>
  </g>
</svg>
