<svg xmlns="http://www.w3.org/2000/svg" width="279.221" height="441.906" viewBox="0 0 279.221 441.906">
  <g id="Grupo_55272" data-name="Grupo 55272" transform="translate(-47.506 -8521.272)">
    <g id="Grupo_55261" data-name="Grupo 55261" transform="translate(47.506 8521.272)">
      <rect id="Rectángulo_9529" data-name="Rectángulo 9529" width="279.221" height="441.906" rx="19.826" fill="#fff"/>
    </g>
    <g id="Grupo_55271" data-name="Grupo 55271" transform="translate(91.979 8535.664)">
      <g id="Grupo_55262" data-name="Grupo 55262" transform="translate(0 93.841)" opacity="0.36">
        <path id="Trazado_105880" data-name="Trazado 105880" d="M89.315,8675.2s-10.374-10.748-10.569-42.664c-.1-16.729,1.282-32.32,18.182-35.967l7.922,2.547,29.574,48.338-8.87,20.385-22.43,12.934Z" transform="translate(-78.017 -8595.848)" fill="#999"/>
        <path id="Trazado_105881" data-name="Trazado 105881" d="M103.347,8681.721a.75.75,0,0,1-.272-.052l-13.809-5.574a.736.736,0,0,1-.249-.168c-.431-.446-10.576-11.324-10.772-43.163-.1-16.487,1.262-32.9,18.752-36.679a.771.771,0,0,1,.375.019l7.924,2.55a.709.709,0,0,1,.4.312l29.573,48.337a.722.722,0,0,1,.046.665l-8.87,20.386a.706.706,0,0,1-.3.338l-22.43,12.936A.729.729,0,0,1,103.347,8681.721Zm-13.382-6.9,13.326,5.377,21.918-12.639,8.624-19.819L104.6,8599.947l-7.481-2.406c-16.263,3.625-17.523,18.726-17.422,35.214C79.873,8662.293,88.93,8673.621,89.965,8674.817Z" transform="translate(-78.241 -8596.07)" fill="#4d4d4d"/>
      </g>
      <g id="Grupo_55269" data-name="Grupo 55269" transform="translate(7.856)">
        <g id="Grupo_55267" data-name="Grupo 55267">
          <g id="Grupo_55263" data-name="Grupo 55263" transform="translate(0 26.393)">
            <path id="Trazado_105882" data-name="Trazado 105882" d="M241.584,8625.145s-15.554-6.711-21.409-10.625c0,0-5.691-2.746-5.93-15.164s.716-21.01,2.626-26.859l2.388-9.072s-6.924-10.746-26.265-13.254c0,0-13.012-1.191-16,1.912,0,0-7.879,29.486-18.625,42.619,0,0-2.267,8.715-26.145,13.609l-28.175,6.09s-13.013,2.744-15.042,13.369c0,0-7.879,8.479-3.581,40l1.194,6.445,13.848,71.393,20.176,79.984.836,2.865v8s-22.445,32.113-25.071,55.988-2.626,41.785-2.626,41.785,101.476,2.389,147.8,0v-32.471a107.488,107.488,0,0,0-9.55-42.264l-10.267-19.34s-1.791-1.434-1.433-14.566l8.475-44.289,10.148-31.877,7.642-14.086s9.948-12.975,8.675-23.8l-3.661-12.734s-.478-16.715.159-22.924l4.616-16.553,1.592-14.963s1.114-6.846-3.5-10.666A115.984,115.984,0,0,0,241.584,8625.145Z" transform="translate(-83.456 -8549.24)" fill="#fff"/>
            <path id="Trazado_105883" data-name="Trazado 105883" d="M183.02,8936.188c-43.476,0-88.359-1.039-89.035-1.055l-.671-.018v-.671c0-.179.03-18.218,2.631-41.859,2.515-22.851,23.261-53.5,25.068-56.129v-7.685L120.2,8826l-20.18-80.011-13.858-71.43-1.2-6.454c-4.037-29.61,2.54-39.1,3.62-40.428,2.2-10.8,14.991-13.619,15.538-13.733l28.172-6.086c23.018-4.722,25.6-13.038,25.628-13.12l.132-.255c10.526-12.867,18.413-42.069,18.491-42.362l.168-.3c3.123-3.247,15.189-2.247,16.555-2.118,19.457,2.522,26.491,13.113,26.78,13.563l.162.254-2.466,9.368c-1.984,6.081-2.83,14.8-2.6,26.674.224,11.76,5.493,14.529,5.545,14.556,5.816,3.879,21.223,10.545,21.378,10.61l.069.037a115.164,115.164,0,0,1,12.991,8.622c4.862,4.025,3.79,11.01,3.742,11.306l-1.587,14.925-4.638,16.666c-.582,5.752-.172,21.323-.136,22.632l3.636,12.649c1.312,11.083-8.377,23.863-8.791,24.4l-7.581,14-10.1,31.757-8.455,44.21c-.318,11.979,1.176,13.873,1.24,13.947l.123.166,10.267,19.34a109.338,109.338,0,0,1,9.633,42.6V8935.1l-.651.035C226.481,8935.923,204.929,8936.188,183.02,8936.188Zm-88.329-2.412c8.882.2,102.35,2.221,146.421.018v-31.82a107.792,107.792,0,0,0-9.491-41.98l-10.209-19.228c-.522-.646-1.867-3.434-1.55-14.978l8.487-44.4,10.168-31.955,7.691-14.209c.158-.217,9.824-12.97,8.6-23.389l-3.665-12.795c-.02-.684-.47-16.83.162-23.011l4.638-16.669,1.571-14.854c.016-.1.993-6.546-3.257-10.062a115.431,115.431,0,0,0-12.764-8.47c-1.032-.445-15.728-6.823-21.482-10.671-.166-.07-5.992-3.026-6.235-15.719-.233-12.03.638-20.891,2.66-27.087l2.295-8.728c-1.163-1.573-8.442-10.477-25.6-12.7-3.445-.312-12.838-.633-15.3,1.59-.739,2.731-8.275,29.848-18.622,42.591-.438,1.272-4.065,9.325-26.624,13.952l-28.168,6.084c-.129.028-12.595,2.786-14.512,12.831l-.038.194-.135.143c-.072.083-7.587,8.759-3.4,39.434l1.191,6.417,13.847,71.386,20.167,79.949.858,3.033v8.213l-.124.179c-.223.319-22.374,32.247-24.951,55.673C95,8913.742,94.724,8930.3,94.691,8933.776Z" transform="translate(-83.67 -8549.459)" fill="#999"/>
          </g>
          <ellipse id="Elipse_4297" data-name="Elipse 4297" cx="3.223" cy="4.835" rx="3.223" ry="4.835" transform="translate(11.167 125.695)" fill="#999"/>
          <g id="Grupo_55264" data-name="Grupo 55264" transform="translate(105.114)">
            <path id="Trazado_105884" data-name="Trazado 105884" d="M162.952,8552.878v12.895a6.5,6.5,0,0,0,5.93.438l.119-13.332s7.875-1.791,7.8-10.266c0,0,1.114-11.382-10.346-10.9s-9.55,13.688-9.55,13.688S158.973,8552.083,162.952,8552.878Z" transform="translate(-156.1 -8531.008)" fill="#fff"/>
            <path id="Trazado_105885" data-name="Trazado 105885" d="M166.54,8567.623a7.021,7.021,0,0,1-3.77-1.077l-.294-.205v-12.723c-3.962-1.3-5.931-7.53-6.017-7.807-.064-.381-.962-6.919,2.553-11.154a9.974,9.974,0,0,1,7.624-3.426c3.591-.139,6.39.806,8.315,2.842,3.231,3.417,2.765,8.6,2.744,8.815a10.924,10.924,0,0,1-7.8,10.716l-.119,13.279-.421.172A7.356,7.356,0,0,1,166.54,8567.623Zm-2.69-2.03a5.788,5.788,0,0,0,4.56.35l.122-13.4.528-.122a9.584,9.584,0,0,0,7.267-9.594c.007-.12.425-4.86-2.377-7.816-1.638-1.729-4.082-2.549-7.255-2.405a8.649,8.649,0,0,0-6.619,2.924c-3.127,3.76-2.289,9.92-2.279,9.98h0c.009,0,1.984,6.2,5.5,6.907l.553.11Z" transform="translate(-156.311 -8531.218)" fill="#999"/>
          </g>
          <path id="Trazado_105886" data-name="Trazado 105886" d="M207.769,8688.2l-5.983-22.644c-4.979-15.888-5.833-25.034-7.125-38.879-.168-1.793-.343-3.664-.534-5.639-1.613-16.584-7.419-21.078-7.477-21.123l.81-1.108c.258.188,6.35,4.8,8.032,22.1.192,1.978.368,3.852.534,5.646,1.285,13.758,2.134,22.845,7.077,38.625l5.992,22.673Z" transform="translate(-37.636 -8501.007)" fill="#999"/>
          <path id="Trazado_105887" data-name="Trazado 105887" d="M167.777,8750.189q-2.609,0-5.428-.046c-37.346-.593-52.573-8.575-53.2-8.917l.651-1.208c.152.08,15.622,8.167,52.573,8.754,36.785.564,45.969-4.972,46.059-5.026l.744,1.153C208.825,8745.125,200.623,8750.189,167.777,8750.189Z" transform="translate(-72.281 -8437.882)" fill="#999"/>
          <path id="Trazado_105888" data-name="Trazado 105888" d="M168.541,8758.366q-3.173,0-6.652-.115c-34.966-1.185-51.576-9.421-51.741-9.5l.622-1.227c.161.084,16.544,8.187,51.167,9.361,34.439,1.163,45.886-7.18,46-7.264l.835,1.091C208.334,8751.042,198.4,8758.366,168.541,8758.366Z" transform="translate(-71.833 -8434.528)" fill="#999"/>
          <path id="Trazado_105889" data-name="Trazado 105889" d="M173.546,8610.581a26.379,26.379,0,0,1-5.752-.655c-19.361-4.3-35.455-24.992-35.614-25.2l1.087-.836c.158.205,15.955,20.5,34.824,24.7,18.536,4.119,25.974-13.143,26.284-13.878l1.268.525C195.569,8595.405,189.061,8610.581,173.546,8610.581Z" transform="translate(-61.985 -8507.677)" fill="#999"/>
          <path id="Trazado_105890" data-name="Trazado 105890" d="M184.335,8570.56c-20.341,0-37.138-11.708-37.313-11.832l.794-1.121c.179.129,18.324,12.721,39.476,11.5l.082,1.37C186.355,8570.534,185.339,8570.56,184.335,8570.56Z" transform="translate(-55.35 -8519.425)" fill="#999"/>
          <path id="Trazado_105891" data-name="Trazado 105891" d="M183.906,8564.783c-18.245,0-35.477-11.746-35.669-11.881l.778-1.129c.217.148,21.665,14.77,41.668,11.032l.25,1.351A38.422,38.422,0,0,1,183.906,8564.783Z" transform="translate(-54.807 -8522.03)" fill="#999"/>
          <path id="Trazado_105892" data-name="Trazado 105892" d="M163.536,8916.9l-.109-17.771c.784-17.766-2.984-56.846-3.021-57.24l-.961-27.1-1.431-73.393c.017-.352,1.784-29.861,4.308-43.906,2.464-13.7-8.2-27.814-8.306-27.953-.216-.434-14.027-30.512-21.278-52.736-7.086-21.721-18.318-24.348-18.431-24.371l.279-1.344c.492.1,12.1,2.727,19.457,25.287,7.226,22.15,21,52.156,21.142,52.457.378.465,11.06,14.6,8.488,28.9-2.509,13.965-4.27,43.4-4.289,43.691l1.434,73.328.956,27.049c.036.354,3.813,39.533,3.024,57.361l.11,17.734Z" transform="translate(-69.974 -8504.46)" fill="#999"/>
          <path id="Trazado_105893" data-name="Trazado 105893" d="M175.381,8927.793l-1.369-.078c.029-.492,2.778-49.082-4.028-71.152-6.885-22.311-4.827-51.3-4.806-51.588l8.121-66.887c.027-.367,3.058-40,1.3-58.83-.566-6.037-1.839-13.535-3.189-21.475-2.9-17.059-6.514-38.3-5.041-56.957l3.638-34.789,1.366.143-3.636,34.77c-1.459,18.477,2.139,39.617,5.027,56.605,1.356,7.963,2.634,15.488,3.2,21.576,1.765,18.943-1.273,58.693-1.3,59.094l-8.121,66.883c-.019.256-2.056,28.994,4.751,51.051C178.175,8878.463,175.41,8927.3,175.381,8927.793Z" transform="translate(-47.37 -8515.656)" fill="#999"/>
          <path id="Trazado_105894" data-name="Trazado 105894" d="M110.43,8678.08l-4.192-13.7.557-.248c.368-.16,37.078-16.2,67.608-10.965,30.316,5.191,66.819,9.977,67.185,10.025l2.7.426.129.4c.1.322,2.466,7.867-2.448,12.529l-.247.234-36.271-6.025c-.421-.084-40-8.045-52.823-4.316-12.987,3.779-41.273,11.389-41.558,11.467Zm-2.521-12.928,3.447,11.26c4.293-1.158,29.005-7.828,40.89-11.287,13.149-3.82,51.818,3.953,53.454,4.287l35.565,5.9c3.412-3.521,2.343-8.965,1.959-10.473l-1.833-.291c-.346-.047-36.877-4.836-67.221-10.031C146.09,8649.715,112.624,8663.17,107.909,8665.152Z" transform="translate(-73.581 -8477.176)" fill="#999"/>
          <path id="Trazado_105895" data-name="Trazado 105895" d="M151.453,8758.422l-3.718-3.722,2.8-3.838-3.389-3.682,1.008-.931,4.154,4.511-2.773,3.8,2.889,2.888Z" transform="translate(-55.294 -8435.097)" fill="#999"/>
          <path id="Trazado_105896" data-name="Trazado 105896" d="M155.034,8758.422l-3.718-3.722,2.8-3.838-3.389-3.682,1.008-.931,4.155,4.511-2.771,3.8,2.889,2.888Z" transform="translate(-53.694 -8435.097)" fill="#999"/>
          <path id="Trazado_105897" data-name="Trazado 105897" d="M158.887,8758.419l-3.717-3.719,2.8-3.838-3.389-3.682,1.008-.931,4.154,4.511-2.771,3.8,2.887,2.888Z" transform="translate(-51.971 -8435.097)" fill="#999"/>
          <path id="Trazado_105898" data-name="Trazado 105898" d="M162.535,8758.419l-3.717-3.719,2.8-3.838-3.389-3.682,1.008-.931,4.154,4.511-2.771,3.8,2.887,2.888Z" transform="translate(-50.34 -8435.097)" fill="#999"/>
          <path id="Trazado_105899" data-name="Trazado 105899" d="M166.048,8757.816l-3.716-3.718,2.8-3.839-3.389-3.68,1.008-.93,4.154,4.509-2.771,3.8,2.887,2.891Z" transform="translate(-48.77 -8435.365)" fill="#999"/>
          <path id="Trazado_105900" data-name="Trazado 105900" d="M131.918,8757.455l-3.363-3.965,3.155-3.41-3-3.846,1.083-.844,3.72,4.766-3.123,3.375,2.576,3.037Z" transform="translate(-63.605 -8435.482)" fill="#999"/>
          <path id="Trazado_105901" data-name="Trazado 105901" d="M135.48,8757.813l-3.363-3.966,3.155-3.408-3-3.85,1.083-.843,3.72,4.767-3.123,3.374,2.576,3.04Z" transform="translate(-62.013 -8435.323)" fill="#999"/>
          <path id="Trazado_105902" data-name="Trazado 105902" d="M139.316,8758.2l-3.363-3.962,3.155-3.412-3-3.849,1.083-.844,3.717,4.767-3.119,3.375,2.576,3.039Z" transform="translate(-60.298 -8435.151)" fill="#999"/>
          <path id="Trazado_105903" data-name="Trazado 105903" d="M120.786,8755.114l-3.363-3.963,3.155-3.41-3-3.851,1.083-.844,3.717,4.769-3.119,3.375,2.576,3.037Z" transform="translate(-68.581 -8436.528)" fill="#999"/>
          <path id="Trazado_105904" data-name="Trazado 105904" d="M117.3,8754.112l-3.363-3.961,3.155-3.412-3-3.849,1.083-.844,3.717,4.769-3.119,3.374,2.576,3.038Z" transform="translate(-70.14 -8436.977)" fill="#999"/>
          <path id="Trazado_105905" data-name="Trazado 105905" d="M114.422,8753.133l-3.363-3.966,3.155-3.411-3-3.847,1.083-.844,3.72,4.766-3.123,3.375,2.576,3.038Z" transform="translate(-71.426 -8437.414)" fill="#999"/>
          <path id="Trazado_105906" data-name="Trazado 105906" d="M124.347,8756.069l-3.363-3.966,3.155-3.408-3-3.849,1.083-.844,3.717,4.767-3.119,3.374,2.576,3.039Z" transform="translate(-66.989 -8436.103)" fill="#999"/>
          <path id="Trazado_105907" data-name="Trazado 105907" d="M128.184,8756.452l-3.364-3.966,3.155-3.408-3-3.849,1.083-.844,3.72,4.767-3.123,3.374,2.578,3.04Z" transform="translate(-65.275 -8435.932)" fill="#999"/>
          <path id="Trazado_105908" data-name="Trazado 105908" d="M142.945,8758.557l-3.363-3.964,3.155-3.411-3-3.848,1.083-.844,3.72,4.768-3.123,3.375,2.576,3.036Z" transform="translate(-58.675 -8434.988)" fill="#999"/>
          <path id="Trazado_105909" data-name="Trazado 105909" d="M146.5,8758.33l-3.364-3.966,3.155-3.41-3-3.848,1.083-.844,3.72,4.767-3.123,3.375,2.578,3.04Z" transform="translate(-57.087 -8435.092)" fill="#999"/>
          <path id="Trazado_105910" data-name="Trazado 105910" d="M176.006,8754.173l-3.447-3.065,2.508-3.059-2.919-2.814.955-.986,3.827,3.694-2.472,3.017,2.46,2.187Z" transform="translate(-44.118 -8435.991)" fill="#999"/>
          <path id="Trazado_105911" data-name="Trazado 105911" d="M173.1,8755.066,169.658,8752l2.508-3.059-2.919-2.816.955-.985,3.827,3.7-2.472,3.016,2.46,2.188Z" transform="translate(-45.415 -8435.594)" fill="#999"/>
          <path id="Trazado_105912" data-name="Trazado 105912" d="M170.5,8756.132l-3.8-3.279,2.785-3.293-3.271-3.067.937-1,4.226,3.955-2.749,3.257,2.767,2.387Z" transform="translate(-46.77 -8435.435)" fill="#999"/>
          <path id="Trazado_105913" data-name="Trazado 105913" d="M178.266,8753.323l-3.043-2.944,2.211-2.936-2.574-2.707.994-.947,3.379,3.548-2.183,2.9,2.17,2.1Z" transform="translate(-42.906 -8436.196)" fill="#999"/>
          <path id="Trazado_105914" data-name="Trazado 105914" d="M128.669,8866.6l-1.373-.025,1.194-70.311,2.149-72.11v-65.617h1.373v65.637l-2.149,72.121Z" transform="translate(-64.168 -8474.308)" fill="#999"/>
          <path id="Trazado_105915" data-name="Trazado 105915" d="M112.247,8893.646l-1.341-.293c.017-.1.5-3.357,1.551-42.32,1.026-38.04,12.7-50.985,14.365-52.642l1.353-8.565-31.655-146.1,1.34-.29,31.713,146.353-.02.126-1.448,9.155-.177.162c-.13.119-13.035,12.418-14.1,51.838C112.75,8890.948,112.267,8893.557,112.247,8893.646Z" transform="translate(-77.926 -8481.058)" fill="#999"/>
          <g id="Grupo_55265" data-name="Grupo 55265" transform="translate(17.251 162.379)">
            <rect id="Rectángulo_9530" data-name="Rectángulo 9530" width="1.372" height="1.831" transform="matrix(0.978, -0.211, 0.211, 0.978, 0, 0.289)" fill="#999"/>
            <path id="Trazado_105916" data-name="Trazado 105916" d="M111.323,8886.336l-1.373-.061.159-3.655,1.373.059Zm.3-7.32-1.373-.05.132-3.657,1.373.051Zm.259-7.317-1.373-.043.119-3.661,1.372.045Zm.23-7.324-1.373-.041.11-3.656,1.373.04Zm.214-7.315-1.372-.039.1-3.659,1.373.039Zm.2-7.326-1.372-.023.009-.337q.046-1.7.119-3.343l1.373.064q-.074,1.625-.119,3.317Zm.333-7.282-1.369-.091q.124-1.879.284-3.663l1.366.123Q112.99,8840.586,112.865,8842.45Zm.654-7.261-1.366-.152q.215-1.879.467-3.648l1.359.191Q113.732,8833.333,113.519,8835.189Zm1.023-7.205-1.352-.232q.321-1.876.679-3.618l1.344.277C114.981,8825.558,114.757,8826.746,114.542,8827.984Zm1.464-7.12-1.334-.324q.451-1.868.933-3.568l1.32.376Q116.453,8819.022,116.007,8820.864Zm1.981-6.987-1.3-.433q.616-1.856,1.246-3.478l1.281.5Q118.6,8812.055,117.988,8813.877Zm2.628-6.749-1.249-.571c.532-1.167,1.09-2.283,1.652-3.319l1.2.654C121.676,8804.9,121.135,8805.989,120.616,8807.128Zm3.46-6.318-1.14-.764a24.913,24.913,0,0,1,2.291-2.984l1.011.926A24.042,24.042,0,0,0,124.075,8800.81Zm3.25-6.624-1.354-.215.572-3.616,1.356.213Zm-.687-7.181-.777-3.579,1.341-.289.776,3.578Zm-1.553-7.159-.776-3.578,1.341-.29.776,3.579Zm-1.55-7.156-.776-3.579,1.341-.29.776,3.579Zm-1.551-7.159-.776-3.578,1.34-.29.776,3.579Zm-1.551-7.157-.774-3.579,1.34-.29.774,3.579Zm-1.551-7.155-.776-3.579,1.341-.29.776,3.579Zm-1.551-7.158-.776-3.578,1.341-.291.776,3.58Zm-1.55-7.158-.776-3.578,1.34-.29.777,3.578Zm-1.551-7.157-.776-3.58,1.34-.289.776,3.581Zm-1.55-7.158-.777-3.579,1.341-.288.776,3.577Zm-1.553-7.157-.776-3.579,1.341-.289.776,3.579Zm-1.551-7.156-.774-3.578,1.341-.29.774,3.579Zm-1.55-7.157-.776-3.58,1.34-.29.776,3.581Zm-1.551-7.158-.777-3.578,1.341-.289.776,3.577Zm-1.551-7.157-.776-3.58,1.341-.29.776,3.58Zm-1.551-7.159-.776-3.578,1.341-.289.776,3.579Zm-1.55-7.155-.776-3.582,1.34-.287.777,3.578Zm-1.551-7.157-.776-3.579,1.34-.289.776,3.578Zm-1.553-7.158-.774-3.579,1.341-.29.774,3.582Zm-1.55-7.157-.776-3.579,1.341-.29.776,3.58Z" transform="translate(-95.232 -8641.776)" fill="#999"/>
            <path id="Trazado_105917" data-name="Trazado 105917" d="M106.876,8816.966l-1.344-.286c.007-.038.049-.363.136-1.717l1.37.087C106.972,8816.1,106.912,8816.795,106.876,8816.966Z" transform="translate(-91.147 -8566.761)" fill="#999"/>
          </g>
          <g id="Grupo_55266" data-name="Grupo 55266" transform="translate(19.952 162.376)">
            <rect id="Rectángulo_9531" data-name="Rectángulo 9531" width="1.372" height="1.829" transform="matrix(0.977, -0.212, 0.212, 0.977, 0, 0.291)" fill="#999"/>
            <path id="Trazado_105918" data-name="Trazado 105918" d="M113.191,8886.333l-1.373-.061.159-3.653,1.373.056Zm.3-7.322-1.373-.048.13-3.656,1.373.048Zm.255-7.315-1.372-.043.117-3.659,1.373.042Zm.233-7.322-1.373-.042.11-3.656,1.372.039Zm.213-7.315-1.373-.041.1-3.658,1.373.038Zm.2-7.329-1.373-.021.009-.341c.029-1.131.069-2.247.12-3.341l1.373.063c-.051,1.084-.091,2.188-.12,3.318Zm.333-7.28-1.37-.09q.124-1.881.287-3.667l1.366.125C114.907,8840,114.812,8841.205,114.73,8842.448Zm.65-7.26-1.362-.156q.215-1.874.466-3.646l1.359.193Q115.6,8833.331,115.38,8835.188Zm1.029-7.206-1.352-.233q.321-1.876.679-3.617l1.344.273Q116.729,8826.129,116.409,8827.982Zm1.461-7.122-1.333-.322q.449-1.868.932-3.568l1.32.375Q118.318,8819.019,117.871,8820.86Zm1.982-6.986-1.3-.433q.616-1.856,1.246-3.478l1.279.5Q120.461,8812.052,119.853,8813.874Zm2.626-6.75-1.247-.57c.521-1.147,1.078-2.264,1.651-3.319l1.205.654C123.53,8804.917,122.989,8806.006,122.479,8807.124Zm3.463-6.318-1.14-.762a24.866,24.866,0,0,1,2.289-2.984l1.013.925A23.917,23.917,0,0,0,125.942,8800.806Zm3.25-6.622-1.354-.213.572-3.618,1.354.214ZM128.5,8787l-.776-3.579,1.341-.29.776,3.578Zm-1.551-7.158-.776-3.578,1.34-.29.777,3.579Zm-1.55-7.157-.776-3.58,1.34-.29.776,3.58Zm-1.551-7.158-.777-3.577,1.341-.291.776,3.579Zm-1.55-7.155-.777-3.579,1.341-.29.776,3.578Zm-1.553-7.157-.776-3.58,1.341-.289.776,3.579Zm-1.55-7.159-.776-3.579,1.34-.289.777,3.578Zm-1.551-7.157-.776-3.578,1.34-.291.776,3.579Zm-1.55-7.159-.777-3.578,1.341-.289.776,3.58Zm-1.553-7.155L113.77,8719l1.341-.29.776,3.581Zm-1.55-7.157-.776-3.578,1.341-.29.776,3.578Zm-1.551-7.158-.776-3.578,1.34-.291.776,3.58Zm-1.551-7.157-.774-3.579,1.34-.29.774,3.579Zm-1.551-7.157-.776-3.581,1.341-.287.776,3.579Zm-1.551-7.159-.774-3.577,1.341-.29.774,3.578Zm-1.55-7.156-.776-3.579,1.34-.29.777,3.579Zm-1.551-7.157-.774-3.579,1.34-.287.774,3.576Zm-1.55-7.157-.777-3.579,1.341-.29.776,3.579Zm-1.553-7.158-.774-3.578,1.341-.289.774,3.577Zm-1.55-7.155-.776-3.582,1.341-.289.776,3.58Z" transform="translate(-97.099 -8641.775)" fill="#999"/>
            <path id="Trazado_105919" data-name="Trazado 105919" d="M108.741,8816.966l-1.341-.295c.006-.037.051-.365.135-1.711l1.369.086C108.838,8816.094,108.779,8816.793,108.741,8816.966Z" transform="translate(-93.014 -8566.757)" fill="#999"/>
          </g>
          <path id="Trazado_105920" data-name="Trazado 105920" d="M99.247,8665.443c-8.733,0-15.574-14.738-15.574-33.555s6.841-33.559,15.574-33.559,15.574,14.742,15.574,33.559S107.98,8665.443,99.247,8665.443Zm0-65.74c-7.83,0-14.2,14.439-14.2,32.186s6.371,32.182,14.2,32.182,14.2-14.436,14.2-32.182S107.077,8599.7,99.247,8599.7Z" transform="translate(-83.668 -8501.219)" fill="#999"/>
          <path id="Trazado_105921" data-name="Trazado 105921" d="M203.1,8666.405l6.685-1.752,1.194,1.752,2.388-.559s.318-5.33-1.91-6.923h-1.831l-.4,2.707L202.7,8664.5l-1.114.954.174.956Z" transform="translate(-30.96 -8474.135)" fill="#999"/>
          <path id="Trazado_105922" data-name="Trazado 105922" d="M125.175,8592.188l.307-6.906,2.026-.62.174-2.446s-5-1.882-7.179-.225l-.543,1.748,2.467,1.181.8,7.083.583,1.347.964.116Z" transform="translate(-67.447 -8508.827)" fill="#999"/>
          <path id="Trazado_105923" data-name="Trazado 105923" d="M120.275,8592.487l-2.307-6.514,1.645-1.337-.755-2.334s-5.341.129-6.74,2.485l.153,1.823,2.731.171,3.4,6.262,1.046,1.031.936-.255Z" transform="translate(-70.953 -8508.384)" fill="#999"/>
          <path id="Trazado_105924" data-name="Trazado 105924" d="M98.914,8598.487l-2.307-6.515,1.645-1.337L97.5,8588.3s-5.341.131-6.74,2.484l.153,1.825,2.731.171,3.4,6.261,1.046,1.032.936-.257Z" transform="translate(-80.501 -8505.701)" fill="#999"/>
          <path id="Trazado_105925" data-name="Trazado 105925" d="M148.121,8655.906l3.105-3.663-1.194-1.512.637-1.435s4.3,0,4.934,4.141l-1.194.621-1.91-.463-3.742,2.866Z" transform="translate(-54.859 -8478.437)" fill="#999"/>
          <path id="Trazado_105926" data-name="Trazado 105926" d="M149.332,8659.48l3.1,3.66-1.194,1.513.637,1.434s4.3,0,4.934-4.139l-1.194-.623-1.91.463-3.741-2.864Z" transform="translate(-54.317 -8474.135)" fill="#999"/>
          <path id="Trazado_105927" data-name="Trazado 105927" d="M173.438,8660.067l4.259-2.215,1.21,1.5,1.538-.3s.952-4.19-2.942-5.729l-.871,1.025.027,1.964-3.623,3.012Z" transform="translate(-43.721 -8476.64)" fill="#999"/>
          <path id="Trazado_105928" data-name="Trazado 105928" d="M172.989,8660.84l4.671,1.1-.061,1.926,1.363.774s3.457-2.553,1.511-6.261l-1.33.208-1.262,1.508-4.711-.083Z" transform="translate(-43.742 -8474.377)" fill="#999"/>
          <path id="Trazado_105929" data-name="Trazado 105929" d="M112.1,8664.17l-4.672,1.1.062,1.926-1.363.774s-3.457-2.553-1.511-6.261l1.33.207,1.262,1.51,4.711-.083Z" transform="translate(-74.571 -8472.887)" fill="#999"/>
        </g>
        <g id="Grupo_55268" data-name="Grupo 55268" transform="translate(71.098 72.779)" opacity="0.39">
          <path id="Trazado_105930" data-name="Trazado 105930" d="M179.914,8609.459s1.191-8.11-5.067-10.147c0,0-9.9-4.26-12.569,3.616,0,0,1.842-5.21-2.7-8.279s-8.309,2.249-8.309,2.249,3.612-2.992-.394-7-7.785.358-7.785.358,2.6-4.766-.754-7.477-9.037,2.611-9.037,2.611S150.817,8613.062,179.914,8609.459Z" transform="translate(-132.58 -8581.291)" fill="#999"/>
          <path id="Trazado_105931" data-name="Trazado 105931" d="M174.99,8610.726c-26.109,0-41.908-24.458-42.075-24.72a.724.724,0,0,1,.117-.915c.252-.235,6.193-5.712,9.986-2.646a5.808,5.808,0,0,1,1.8,5.978,5.846,5.846,0,0,1,2.508-.711,5.786,5.786,0,0,1,4.29,1.9,6.042,6.042,0,0,1,2.1,4.521,5.769,5.769,0,0,1,6.5.135,7.348,7.348,0,0,1,3.338,5.663,6.747,6.747,0,0,1,2.2-1.554c4.123-1.829,9.39.4,9.61.491,6.7,2.178,5.512,10.83,5.5,10.914a.719.719,0,0,1-.628.613A42.341,42.341,0,0,1,174.99,8610.726Zm5.149-1.043h0Zm-45.658-23.942c2.557,3.7,19.2,26.125,45,23.291.132-1.773.137-7.255-4.633-8.807-.109-.046-4.978-2.1-8.514-.521a5.851,5.851,0,0,0-3.144,3.678h0l0,.01a.724.724,0,0,1-1.367-.474l.01-.029c.135-.405,1.476-4.776-2.427-7.417-2.83-1.916-5.338-.054-6.549,1.181a5.177,5.177,0,0,1-.891,1.025.724.724,0,0,1-1.053-.975,8.84,8.84,0,0,1,.833-1,3.437,3.437,0,0,0,.525-1.645,4.7,4.7,0,0,0-1.673-3.424,4.374,4.374,0,0,0-3.215-1.479,5.589,5.589,0,0,0-3.512,1.8.723.723,0,0,1-1.182-.818c.093-.173,2.262-4.276-.574-6.569C139.977,8581.85,136.236,8584.267,134.481,8585.74Z" transform="translate(-132.804 -8581.515)" fill="#4d4d4d"/>
        </g>
        <path id="Trazado_105932" data-name="Trazado 105932" d="M166.9,8602.993l5.059,4.708-.838,1.944,1.749,1.718s4.672-2.588,4.823-5.322l-.981-1.546-2.5,1.115-5.915-3.977-1.4-.43-.713.66Z" transform="translate(-46.785 -8499.936)" fill="#999"/>
        <path id="Trazado_105933" data-name="Trazado 105933" d="M168.784,8602.88l-3.081,6.187,1.47,1.528-1.033,2.221s-5.285-.776-6.387-3.284l.373-1.793,2.73.165,4.138-5.8,1.163-.9.9.366Z" transform="translate(-49.659 -8499.936)" fill="#999"/>
      </g>
      <g id="Grupo_55270" data-name="Grupo 55270" transform="translate(5.352 75.487)" opacity="0.36">
        <path id="Trazado_105934" data-name="Trazado 105934" d="M95.274,8602.24s21.6-3.534,20.824,42.393c-.522,30.8-9.705,37.488-16.3,37.488-5.036,0-17.36-10.22-17.36-10.22s8.315,34.061,14.9,55.532c0,0,6.445,21.173,13.1,40.07,6.882,19.543,10.394,52.835,10.394,52.835l-6.192,7.412,39.216,7.132,2.334-3.639,3.687,4.157,48.177-.99,5.318-101.729s1.059-44.782-1.12-66.491-9.53-57.245-9.53-57.245-22.6,1.673-42.981-25.059c0,0-20.721,10.233-41.032,13.349S95.274,8602.24,95.274,8602.24Z" transform="translate(-81.716 -8583.163)" fill="#999"/>
        <path id="Trazado_105935" data-name="Trazado 105935" d="M160.1,8836.35a.736.736,0,0,1-.541-.244l-3.052-3.441-1.819,2.834a.721.721,0,0,1-.739.321l-39.214-7.132a.726.726,0,0,1-.55-.469.718.718,0,0,1,.124-.709l5.992-7.174c-.375-3.391-3.9-34.12-10.323-52.368-6.582-18.694-13.043-39.888-13.109-40.1-6.514-21.247-14.825-55.229-14.907-55.573a.723.723,0,0,1,1.165-.726c3.372,2.794,12.981,10.051,16.9,10.051,4.494,0,15.013-3.585,15.576-36.777.405-23.853-5.331-33.921-10.213-38.167-4.852-4.217-9.721-3.51-9.773-3.5a.733.733,0,0,1-.793-.468.725.725,0,0,1,.3-.868c.133-.08,3.477-2,23.7-5.1,19.962-3.062,40.613-13.18,40.82-13.28a.72.72,0,0,1,.9.209c19.883,26.073,42.128,24.8,42.353,24.774a.736.736,0,0,1,.761.575c.074.356,7.383,35.822,9.542,57.319s1.134,66.134,1.124,66.582L209,8834.673a.724.724,0,0,1-.706.686l-48.177.991Zm-3.687-5.6a.716.716,0,0,1,.541.241l3.466,3.908,47.17-.968,5.283-101.059c.01-.428,1.033-44.965-1.119-66.381-2-19.9-8.433-51.844-9.4-56.581H202.3c-3.988,0-24.255-1.227-42.551-24.89-3.4,1.616-22.326,10.338-40.7,13.155a195.073,195.073,0,0,0-19.789,3.79,15.668,15.668,0,0,1,7.041,3.588c5.133,4.436,11.167,14.86,10.753,39.318-.585,34.479-12.1,38.2-17.023,38.2-4.14,0-12.55-6.226-16.146-9.041,1.91,7.715,8.8,35.243,14.376,53.42.064.212,6.517,21.374,13.09,40.04,6.831,19.4,10.394,52.666,10.43,53a.733.733,0,0,1-.164.54l-5.394,6.457,37.515,6.822,2.072-3.23a.723.723,0,0,1,.553-.331Z" transform="translate(-81.939 -8583.387)" fill="#4d4d4d"/>
      </g>
    </g>
  </g>
</svg>
