<svg xmlns="http://www.w3.org/2000/svg" xmlns:xlink="http://www.w3.org/1999/xlink" width="643.676" height="394.282" viewBox="0 0 643.676 394.282">
  <defs>
    <clipPath id="clip-path">
      <rect id="Rectángulo_10575" data-name="Rectángulo 10575" width="332.72" height="394.282" rx="15.431" fill="none"/>
    </clipPath>
    <clipPath id="clip-path-2">
      <rect id="Rectángulo_10583" data-name="Rectángulo 10583" width="252.285" height="394.282" rx="15.431" fill="none"/>
    </clipPath>
  </defs>
  <g id="Grupo_57045" data-name="Grupo 57045" transform="translate(-77.57 -9562.26)">
    <g id="Grupo_57031" data-name="Grupo 57031" transform="translate(77.57 9562.261)">
      <rect id="Rectángulo_10568" data-name="Rectángulo 10568" width="332.72" height="394.282" rx="15.431" fill="#fff"/>
      <g id="Grupo_57030" data-name="Grupo 57030">
        <g id="Grupo_57029" data-name="Grupo 57029" clip-path="url(#clip-path)">
          <g id="Grupo_57028" data-name="Grupo 57028" transform="translate(23.944 13.461)">
            <g id="Grupo_57012" data-name="Grupo 57012" transform="translate(73.273 335.053)" opacity="0.81">
              <path id="Trazado_111848" data-name="Trazado 111848" d="M175.039,9854.965l-5.543,23.846s-3.392.31-7.593-3.889-1.4-11.358-1.4-11.358a42.1,42.1,0,0,1,8.194-5.289A68.416,68.416,0,0,0,175.039,9854.965Z" transform="translate(-158.981 -9854.37)" fill="#999"/>
              <path id="Trazado_111849" data-name="Trazado 111849" d="M169.428,9879.507c-.86,0-4.058-.279-7.848-4.069-4.425-4.425-1.654-11.688-1.534-12a.607.607,0,0,1,.167-.235,42.284,42.284,0,0,1,8.325-5.374,69.564,69.564,0,0,0,6.281-3.275.6.6,0,0,1,.9.639l-5.543,23.845a.6.6,0,0,1-.526.459C169.63,9879.5,169.554,9879.507,169.428,9879.507Zm-8.32-15.493c-.345.985-2.248,7.017,1.316,10.581,3.088,3.087,5.712,3.618,6.7,3.7l5.12-22.031c-1,.557-2.674,1.44-5.191,2.642A41.866,41.866,0,0,0,161.108,9864.014Z" transform="translate(-159.08 -9854.465)" fill="#4d4d4d"/>
            </g>
            <path id="Trazado_111850" data-name="Trazado 111850" d="M242.426,9642.493l4.341,4.038-.719,1.671,1.5,1.473s4.01-2.22,4.139-4.565l-.841-1.327-2.143.955-5.076-3.411-1.2-.368-.612.565Z" transform="translate(-69.863 -9560.557)" fill="#999"/>
            <path id="Trazado_111851" data-name="Trazado 111851" d="M242.867,9642.4l-2.643,5.309,1.262,1.31-.887,1.906s-4.535-.667-5.48-2.817l.321-1.537,2.342.141,3.552-4.98,1-.768.772.313Z" transform="translate(-71.153 -9560.557)" fill="#999"/>
            <g id="Grupo_57013" data-name="Grupo 57013" transform="translate(69.863 21.814)">
              <path id="Trazado_111852" data-name="Trazado 111852" d="M286.633,9654.321s-12.847-5.544-17.682-8.776c0,0-4.7-2.267-4.9-12.522s.592-17.354,2.168-22.186l1.973-7.493s-5.719-8.876-21.693-10.945c0,0-10.747-.987-13.213,1.578,0,0-6.507,24.354-15.382,35.2,0,0-1.874,7.2-21.594,11.24l-23.271,5.029s-10.747,2.268-12.423,11.044c0,0-6.509,7-2.958,33.031l.985,5.324,11.438,58.966,16.665,66.063.691,2.366v6.607s-18.538,26.523-20.708,46.244-1.688,108.514-1.688,108.514,77.4,9.335,122.745,3.111l-1.156-103.934a88.771,88.771,0,0,0-7.887-34.905l-8.48-15.975s-1.479-1.184-1.183-12.029l7-36.581,8.382-26.328,6.311-11.635s8.217-10.715,7.165-19.654l-3.023-10.518s-.395-13.807.131-18.933l3.813-13.673,1.314-12.359s.921-5.652-2.892-8.808A95.92,95.92,0,0,0,286.633,9654.321Z" transform="translate(-156.148 -9591.764)" fill="#fff"/>
              <path id="Trazado_111853" data-name="Trazado 111853" d="M249.74,9989.361c-40.642,0-84.1-5.168-84.678-5.236l-.391-.047,0-.395c0-.889-.457-89.045,1.69-108.566,2.085-18.941,19.366-44.391,20.7-46.336v-6.4l-.671-2.3-16.668-66.08L158.28,9695l-.988-5.328c-3.356-24.621,2.172-32.336,2.983-33.316,1.785-8.865,12.637-11.254,12.748-11.277l23.269-5.029c19.112-3.918,21.237-10.85,21.256-10.918l.086-.168c8.712-10.648,15.231-34.791,15.3-35.033l.11-.2c2.586-2.687,13.132-1.754,13.577-1.713,16.012,2.076,21.79,10.779,22.028,11.148l.106.166-2.023,7.684c-1.64,5.029-2.342,12.238-2.153,22.064.187,9.8,4.6,12.105,4.646,12.127,4.8,3.205,17.535,8.715,17.664,8.768l.045.023a97.043,97.043,0,0,1,10.712,7.109c3.963,3.281,3.088,8.984,3.049,9.225l-1.312,12.336-3.826,13.746c-.485,4.8-.143,17.773-.116,18.742l3.007,10.463c1.075,9.088-6.9,19.605-7.239,20.051l-6.272,11.576-8.349,26.248-6.988,36.531c-.268,10.047,1,11.563,1.052,11.621l.087.115,8.48,15.973a90.144,90.144,0,0,1,7.94,35.127l1.161,104.311-.391.055A291.4,291.4,0,0,1,249.74,9989.361Zm-84.179-6.08c6.005.7,78.682,8.938,121.848,3.121l-1.151-103.539a89.16,89.16,0,0,0-7.848-34.729l-8.438-15.893c-.4-.459-1.529-2.623-1.265-12.3l7.01-36.654,8.394-26.379,6.344-11.713c.119-.164,8.132-10.736,7.115-19.389l-3.027-10.557c-.017-.566-.389-13.893.134-18.99l3.826-13.748,1.3-12.287c.011-.078.832-5.465-2.733-8.416a95.313,95.313,0,0,0-10.565-7.01c-.793-.342-12.973-5.623-17.731-8.807-.148-.066-4.895-2.475-5.1-12.885-.192-9.928.526-17.232,2.191-22.332l1.911-7.27c-.861-1.182-6.87-8.721-21.264-10.588-2.879-.264-10.725-.525-12.756,1.367-.508,1.857-6.893,24.744-15.38,35.186-.314.943-3.168,7.619-21.906,11.461l-23.266,5.029c-.106.023-10.478,2.314-12.079,10.689l-.023.125-.088.094c-.062.07-6.309,7.248-2.843,32.67l.984,5.3L170.6,9753.8l16.657,66.039.7,2.475v6.748l-.08.115c-.185.266-18.5,26.658-20.629,46.037C165.182,9894.016,165.531,9976.807,165.561,9983.281Z" transform="translate(-156.221 -9591.836)" fill="#999"/>
            </g>
            <ellipse id="Elipse_4447" data-name="Elipse 4447" cx="2.662" cy="3.993" rx="2.662" ry="3.993" transform="translate(78.968 103.697)" fill="#999"/>
            <path id="Trazado_111854" data-name="Trazado 111854" d="M276.86,9714.959l-4.941-18.7c-4.111-13.115-4.816-20.666-5.884-32.1-.137-1.48-.281-3.025-.44-4.656-1.338-13.766-6.175-17.492-6.224-17.527l.528-.723c.21.152,5.2,3.928,6.585,18.164.159,1.631.3,3.178.441,4.658,1.062,11.373,1.764,18.885,5.851,31.932l4.947,18.721Z" transform="translate(-66.48 -9560.5)" fill="#999"/>
            <path id="Trazado_111855" data-name="Trazado 111855" d="M230.07,9790.936c-1.438,0-2.93-.01-4.486-.035-30.812-.49-43.758-7.281-43.886-7.352l.425-.787c.125.068,12.919,6.758,43.475,7.244s38.034-4.123,38.106-4.168l.487.75C263.9,9786.773,257.158,9790.936,230.07,9790.936Z" transform="translate(-81.448 -9533.229)" fill="#999"/>
            <path id="Trazado_111856" data-name="Trazado 111856" d="M230.877,9799.013q-2.621,0-5.492-.094c-28.853-.98-42.55-7.771-42.686-7.841l.406-.8c.134.069,13.682,6.772,42.31,7.744,28.542.951,37.978-5.955,38.07-6.023l.544.711C263.67,9792.985,255.5,9799.013,230.877,9799.013Z" transform="translate(-81.255 -9531.78)" fill="#999"/>
            <path id="Trazado_111857" data-name="Trazado 111857" d="M238.878,9648.14a21.7,21.7,0,0,1-4.723-.539c-15.948-3.544-29.213-20.6-29.344-20.772l.708-.545c.13.169,13.2,16.971,28.829,20.444,15.41,3.425,21.59-10.924,21.844-11.536l.827.344C256.96,9635.676,251.616,9648.14,238.878,9648.14Z" transform="translate(-76.994 -9563.384)" fill="#999"/>
            <path id="Trazado_111858" data-name="Trazado 111858" d="M250.41,9610.453c-16.762,0-30.6-9.649-30.749-9.752l.518-.73c.149.107,15.171,10.534,32.68,9.518l.054.892C252.073,9610.43,251.237,9610.453,250.41,9610.453Z" transform="translate(-74.132 -9568.455)" fill="#999"/>
            <path id="Trazado_111859" data-name="Trazado 111859" d="M250.269,9604.654c-15.029,0-29.231-9.681-29.391-9.792l.508-.735c.178.122,17.928,12.225,34.505,9.131l.162.882A31.73,31.73,0,0,1,250.269,9604.654Z" transform="translate(-73.898 -9569.582)" fill="#999"/>
            <path id="Trazado_111860" data-name="Trazado 111860" d="M227.6,9980.662l-.089-92.823c.649-14.675-2.465-46.962-2.5-47.287l-.791-22.376-1.183-60.616c.014-.279,1.472-24.649,3.555-36.242,2.043-11.367-6.792-23.066-6.882-23.183-.166-.334-11.57-25.169-17.555-43.519-5.881-18.021-15.218-20.191-15.311-20.211l.18-.876c.4.083,9.922,2.239,15.981,20.81,5.971,18.3,17.353,43.088,17.466,43.336.324.405,9.116,12.04,7,23.8-2.074,11.54-3.528,35.858-3.542,36.1l1.184,60.573.788,22.341c.029.3,3.149,32.648,2.5,47.366l.089,92.8Z" transform="translate(-80.456 -9561.987)" fill="#999"/>
            <path id="Trazado_111861" data-name="Trazado 111861" d="M244.951,9985.519l-.895-.025c.035-1.189,3.381-119.1-2.251-137.354-5.678-18.406-3.981-42.325-3.963-42.564l6.708-55.239c.024-.31,2.526-33.057,1.075-48.614-.465-4.993-1.52-11.19-2.636-17.75-2.394-14.084-5.376-31.612-4.16-47.011l3.006-28.016.89.1-3,28c-1.207,15.274,1.765,32.742,4.152,46.777,1.119,6.577,2.176,12.79,2.643,17.816,1.46,15.635-1.048,48.457-1.075,48.787l-6.708,55.237c-.016.218-1.7,23.972,3.929,42.215C248.337,9866.272,245.092,9980.658,244.951,9985.519Z" transform="translate(-70.677 -9566.726)" fill="#999"/>
            <path id="Trazado_111862" data-name="Trazado 111862" d="M223.356,9798.87l-3-3,2.31-3.168-2.865-3.111.657-.605,3.364,3.651-2.291,3.143,2.458,2.459Z" transform="translate(-74.105 -9532.03)" fill="#999"/>
            <path id="Trazado_111863" data-name="Trazado 111863" d="M226.943,9798.87l-3-3,2.31-3.168-2.865-3.111.657-.605,3.364,3.651-2.291,3.143,2.458,2.459Z" transform="translate(-73.414 -9532.03)" fill="#999"/>
            <path id="Trazado_111864" data-name="Trazado 111864" d="M230.8,9798.87l-3-3,2.31-3.168-2.865-3.111.657-.605,3.364,3.651-2.291,3.143,2.458,2.459Z" transform="translate(-72.669 -9532.03)" fill="#999"/>
            <path id="Trazado_111865" data-name="Trazado 111865" d="M234.46,9798.87l-3-3,2.311-3.168-2.866-3.111.657-.605,3.365,3.651-2.292,3.143,2.458,2.459Z" transform="translate(-71.965 -9532.03)" fill="#999"/>
            <path id="Trazado_111866" data-name="Trazado 111866" d="M237.981,9798.269l-3-3,2.311-3.168-2.866-3.111.657-.605,3.365,3.651-2.292,3.143,2.458,2.459Z" transform="translate(-71.287 -9532.146)" fill="#999"/>
            <path id="Trazado_111867" data-name="Trazado 111867" d="M203.942,9797.932l-2.709-3.192,2.6-2.813-2.542-3.26.706-.55,3.01,3.858-2.582,2.79,2.2,2.59Z" transform="translate(-77.683 -9532.197)" fill="#999"/>
            <path id="Trazado_111868" data-name="Trazado 111868" d="M207.511,9798.289,204.8,9795.1l2.6-2.814-2.541-3.258.706-.551,3.01,3.857L206,9795.121l2.2,2.59Z" transform="translate(-76.996 -9532.129)" fill="#999"/>
            <path id="Trazado_111869" data-name="Trazado 111869" d="M211.354,9798.672l-2.708-3.192,2.6-2.813-2.543-3.26.706-.55,3.009,3.858-2.58,2.79,2.2,2.59Z" transform="translate(-76.255 -9532.055)" fill="#999"/>
            <path id="Trazado_111870" data-name="Trazado 111870" d="M192.787,9795.585l-2.709-3.192,2.6-2.814-2.542-3.259.706-.55,3.01,3.858-2.582,2.79,2.2,2.59Z" transform="translate(-79.833 -9532.649)" fill="#999"/>
            <path id="Trazado_111871" data-name="Trazado 111871" d="M189.293,9794.582l-2.709-3.192,2.6-2.813-2.541-3.26.706-.55,3.01,3.858-2.582,2.79,2.2,2.59Z" transform="translate(-80.506 -9532.843)" fill="#999"/>
            <path id="Trazado_111872" data-name="Trazado 111872" d="M186.41,9793.6l-2.708-3.192,2.6-2.814-2.543-3.259.706-.55,3.009,3.858-2.58,2.79,2.2,2.59Z" transform="translate(-81.062 -9533.032)" fill="#999"/>
            <path id="Trazado_111873" data-name="Trazado 111873" d="M196.356,9796.541l-2.709-3.192,2.6-2.814-2.541-3.259.706-.55,3.01,3.857-2.582,2.791,2.2,2.589Z" transform="translate(-79.145 -9532.466)" fill="#999"/>
            <path id="Trazado_111874" data-name="Trazado 111874" d="M200.2,9796.926l-2.708-3.193,2.6-2.814-2.543-3.258.706-.551,3.009,3.857-2.58,2.791,2.2,2.59Z" transform="translate(-78.405 -9532.392)" fill="#999"/>
            <path id="Trazado_111875" data-name="Trazado 111875" d="M214.992,9799.035l-2.709-3.192,2.6-2.814-2.542-3.259.706-.55,3.01,3.857-2.582,2.791,2.2,2.59Z" transform="translate(-75.554 -9531.985)" fill="#999"/>
            <path id="Trazado_111876" data-name="Trazado 111876" d="M218.552,9798.807l-2.708-3.192,2.6-2.814-2.543-3.259.706-.55,3.009,3.857-2.58,2.791,2.2,2.589Z" transform="translate(-74.868 -9532.029)" fill="#999"/>
            <path id="Trazado_111877" data-name="Trazado 111877" d="M248.033,9795l-2.762-2.454,2.069-2.521-2.489-2.4.622-.643,3.083,2.976-2.048,2.494,2.119,1.883Z" transform="translate(-69.278 -9532.416)" fill="#999"/>
            <path id="Trazado_111878" data-name="Trazado 111878" d="M245.126,9795.9l-2.76-2.454,2.067-2.521-2.489-2.4.622-.644,3.083,2.976-2.046,2.493,2.118,1.884Z" transform="translate(-69.838 -9532.243)" fill="#999"/>
            <path id="Trazado_111879" data-name="Trazado 111879" d="M242.441,9796.84l-3.048-2.629,2.3-2.718-2.786-2.61.61-.652,3.408,3.19-2.276,2.692,2.377,2.049Z" transform="translate(-70.424 -9532.176)" fill="#999"/>
            <path id="Trazado_111880" data-name="Trazado 111880" d="M250.381,9794.229l-2.438-2.359,1.825-2.422-2.2-2.309.648-.617,2.72,2.857-1.807,2.4,1.869,1.809Z" transform="translate(-68.753 -9532.506)" fill="#999"/>
            <path id="Trazado_111881" data-name="Trazado 111881" d="M200.832,9966.487l-.895,0,.985-151.7,1.775-59.563v-54.2h.895v54.212l-1.775,59.565Z" transform="translate(-77.933 -9548.981)" fill="#999"/>
            <path id="Trazado_111882" data-name="Trazado 111882" d="M179.852,9967.3l-.895-.027c.025-.767,2.415-77.042,3.3-109.922.854-31.62,10.607-42.2,11.857-43.426l1.129-7.134L169.1,9686.1l.873-.189,26.188,120.855-.013.083-1.19,7.52-.116.105c-.109.1-10.8,10.273-11.683,42.9C182.267,9890.262,179.876,9966.538,179.852,9967.3Z" transform="translate(-83.877 -9551.893)" fill="#999"/>
            <g id="Grupo_57014" data-name="Grupo 57014" transform="translate(84.11 134.022)">
              <rect id="Rectángulo_10569" data-name="Rectángulo 10569" width="0.894" height="1.192" transform="translate(0 0.189) rotate(-12.189)" fill="#999"/>
              <path id="Trazado_111883" data-name="Trazado 111883" d="M178.959,9962.465l-.895-.028.074-2.386.895.026Zm.147-4.776-.895-.028.073-2.385.895.027Zm.147-4.771-.895-.027.073-2.385.895.028Zm.147-4.768-.895-.028.073-2.383.895.026Zm.146-4.768-.895-.028.073-2.384.895.027Zm.146-4.769-.895-.025.072-2.385.895.028Zm.147-4.767-.895-.025.072-2.384.895.027Zm.142-4.766-.895-.028.074-2.383.895.027Zm.147-4.768-.895-.025.073-2.385.895.029Zm.144-4.764-.895-.025.073-2.385.895.028Zm.143-4.766-.895-.025.073-2.384.895.027Zm.144-4.765-.895-.028.072-2.382.895.026Zm.144-4.767-.895-.027.07-2.387.895.025Zm.14-4.771-.895-.028.068-2.307.45-.06.445.085Zm.143-4.758-.895-.026.069-2.383.895.025Zm.141-4.766-.895-.025.07-2.383.895.025Zm.138-4.767-.895-.026.07-2.382.895.026Zm.14-4.766-.895-.025.07-2.382.895.026Zm.141-4.765-.895-.025.068-2.384.895.026Zm.136-4.767-.895-.027.068-2.382.895.025Zm.136-4.769-.895-.025.068-2.383.895.025Zm.134-4.767-.895-.026.067-2.383.895.023Zm.132-4.769-.895-.023.02-.778c.016-.543.033-1.078.052-1.608l.895.032q-.029.792-.052,1.6Zm.18-4.748-.892-.049q.066-1.214.148-2.383l.892.063Q182.328,9851.635,182.262,9852.843Zm.336-4.733-.89-.079q.109-1.214.235-2.377l.89.1Q182.706,9846.9,182.6,9848.109Zm.515-4.717-.887-.114q.157-1.211.332-2.367l.885.135Q183.269,9842.191,183.114,9843.393Zm.712-4.687-.881-.153q.213-1.211.444-2.351l.877.177Q184.037,9837.51,183.826,9838.706Zm.937-4.643-.872-.2q.279-1.206.572-2.325l.864.227Q185.038,9832.874,184.763,9834.063Zm1.2-4.577-.858-.254q.352-1.2.719-2.285l.848.284Q186.313,9828.307,185.964,9829.486Zm1.5-4.483-.836-.314q.445-1.185.9-2.227l.823.354Q187.909,9823.841,187.467,9825Zm1.868-4.329-.8-.394c.384-.784.761-1.492,1.122-2.131l.779.44C190.079,9819.214,189.709,9819.907,189.335,9820.674Zm2.326-4.084-.743-.5a22.72,22.72,0,0,1,1.446-1.95l.687.572A22.58,22.58,0,0,0,191.661,9816.59Zm2.457-4.155-.884-.141.373-2.353.883.14Zm.745-4.7-.884-.141.215-1.359-.177-.817.873-.191.215.983Zm-1.35-4.647-.5-2.327.873-.188.5,2.327Zm-1.009-4.654-.5-2.327.874-.189.5,2.328Zm-1.009-4.655-.5-2.328.874-.188.5,2.328Zm-1.008-4.655-.5-2.327.873-.188.5,2.327Zm-1.009-4.655-.5-2.327.874-.189.5,2.329Zm-1.009-4.654-.5-2.329.874-.188.5,2.328Zm-1.008-4.656-.5-2.327.873-.188.5,2.327Zm-1.009-4.655-.5-2.327.873-.188.5,2.328Zm-1.009-4.654-.5-2.328.874-.188.5,2.328Zm-1.009-4.655-.5-2.327.873-.189.5,2.328Zm-1.008-4.656-.5-2.327.873-.188.5,2.327Zm-1.009-4.654-.5-2.328.874-.188.5,2.328Zm-1.009-4.655-.5-2.328.874-.188.5,2.328Zm-1.008-4.655-.5-2.327.873-.188.5,2.327Zm-1.009-4.655-.5-2.327.873-.189.5,2.327Zm-1.009-4.654-.5-2.329.874-.188.5,2.328Zm-1.009-4.656-.5-2.327.873-.188.5,2.327Zm-1.008-4.655-.5-2.327.873-.188.5,2.327Zm-1.009-4.654-.5-2.328.874-.188.5,2.328Zm-1.009-4.655-.5-2.327.873-.189.5,2.328Zm-1.008-4.656-.5-2.327.873-.188.5,2.327Zm-1.009-4.655-.5-2.327.874-.188.5,2.327Zm-1.009-4.654-.5-2.328.874-.188.5,2.328Zm-1.008-4.654-.5-2.328.873-.188.5,2.327Zm-1.009-4.656-.5-2.327.873-.189.5,2.327Z" transform="translate(-168.043 -9685.351)" fill="#999"/>
              <rect id="Rectángulo_10570" data-name="Rectángulo 10570" width="1.187" height="0.895" transform="translate(9.913 280.554) rotate(-88.21)" fill="#999"/>
            </g>
            <g id="Grupo_57015" data-name="Grupo 57015" transform="translate(86.341 134.017)">
              <rect id="Rectángulo_10571" data-name="Rectángulo 10571" width="0.894" height="1.194" transform="translate(0 0.189) rotate(-12.165)" fill="#999"/>
              <path id="Trazado_111884" data-name="Trazado 111884" d="M180.927,9963.266l-.895-.026.069-2.394.895.024Zm.14-4.791-.895-.025.07-2.393.895.025Zm.138-4.785-.895-.025.07-2.391.895.025Zm.141-4.781-.895-.027.07-2.389.895.025Zm.14-4.782-.895-.025.069-2.392.895.025Zm.14-4.782-.895-.025.068-2.391.895.025Zm.14-4.779-.895-.025.069-2.391.895.026Zm.136-4.779-.895-.026.07-2.39.895.025Zm.138-4.779-.895-.026.07-2.39.895.025Zm.141-4.779-.895-.025.068-2.391.895.025Zm.138-4.78-.895-.024.068-2.392.895.026Zm.136-4.779-.895-.025.067-2.32.9-.044Zm.138-4.778-.895-.026.069-2.395.895.027Zm.136-4.786-.895-.025.069-2.388.895.025Zm.138-4.771-.895-.026.067-2.39.895.025Zm.136-4.779-.895-.025.068-2.391.895.025Zm.136-4.78-.895-.024.068-2.391.895.026Zm.136-4.781-.895-.025.067-2.39.895.026Zm.135-4.776-.895-.026.067-2.39.895.025Zm.134-4.78-.895-.027.068-2.39.895.025Zm.132-4.784-.895-.024.067-2.39.895.025Zm.134-4.78-.895-.022.064-2.392.895.023Zm.13-4.781-.895-.023.069-2.394.895.03Zm.171-4.765-.893-.044q.061-1.22.14-2.392l.892.061C184.195,9851.727,184.148,9852.517,184.109,9853.324Zm.32-4.749-.892-.076q.106-1.217.228-2.385l.89.093Q184.531,9847.367,184.429,9848.575Zm.5-4.731-.887-.111q.154-1.216.324-2.374l.885.131C185.134,9842.254,185.027,9843.041,184.925,9843.844Zm.7-4.7-.881-.152q.206-1.21.433-2.357l.879.173Q185.825,9837.941,185.62,9839.143Zm.921-4.661-.874-.2q.272-1.21.561-2.335l.867.221Q186.808,9833.287,186.541,9834.481Zm1.176-4.6-.86-.25q.349-1.2.708-2.295l.85.276Q188.062,9828.7,187.717,9829.884Zm1.479-4.5-.838-.31q.44-1.189.884-2.239l.825.347Q189.632,9824.211,189.2,9825.379Zm1.839-4.359-.805-.389c.377-.784.748-1.5,1.1-2.145l.784.434Q191.593,9819.868,191.035,9821.02Zm2.29-4.122-.75-.486c.471-.726.947-1.391,1.416-1.977l.7.559C194.239,9815.556,193.781,9816.2,193.325,9816.9Zm2.6-4.105-.883-.14.373-2.358.883.14Zm.748-4.719-.883-.14.268-1.707-.1-.48.874-.19.141.645Zm-1.224-4.662-.5-2.334.873-.189.506,2.335Zm-1.01-4.669-.507-2.334.873-.188.507,2.334Zm-1.013-4.668-.506-2.334.874-.188.506,2.334Zm-1.011-4.668-.5-2.335.873-.188.506,2.334Zm-1.011-4.669-.506-2.334.873-.188.506,2.334Zm-1.011-4.668-.506-2.334.874-.188.506,2.334Zm-1.011-4.668-.506-2.335.873-.188.506,2.334Zm-1.011-4.67-.506-2.334.873-.188.506,2.334Zm-1.011-4.668-.507-2.335.874-.188.507,2.334Zm-1.011-4.669-.506-2.334.873-.188.506,2.334Zm-1.011-4.668-.507-2.334.874-.189.506,2.335Zm-1.013-4.669-.506-2.334.874-.187.506,2.333Zm-1.01-4.668-.507-2.334.873-.188.507,2.335Zm-1.013-4.668-.506-2.334.874-.189.5,2.334Zm-1.011-4.669-.5-2.333.873-.189.506,2.334Zm-1.011-4.667-.506-2.335.873-.188.506,2.334Zm-1.011-4.669-.506-2.335.874-.188.5,2.334Zm-1.013-4.669-.5-2.334.873-.188.506,2.334Zm-1.01-4.668-.506-2.336.873-.188.506,2.336Zm-1.011-4.67-.507-2.334.874-.188.507,2.334Zm-1.013-4.668-.5-2.334.873-.189.506,2.335Zm-1.01-4.668-.507-2.335.873-.188.507,2.334Zm-1.013-4.669-.506-2.334.874-.188.506,2.334Zm-1.01-4.668-.507-2.334.873-.189.507,2.335Zm-1.013-4.669-.506-2.334.874-.188.5,2.334Z" transform="translate(-169.914 -9685.345)" fill="#999"/>
              <rect id="Rectángulo_10572" data-name="Rectángulo 10572" width="1.187" height="0.895" transform="matrix(0.029, -1, 1, 0.029, 10.016, 281.367)" fill="#999"/>
            </g>
            <path id="Trazado_111885" data-name="Trazado 111885" d="M168.969,9695.989c-7.026,0-12.743-12.379-12.743-27.6s5.717-27.6,12.743-27.6,12.744,12.381,12.744,27.6S176,9695.989,168.969,9695.989Zm0-54.3c-6.532,0-11.848,11.979-11.848,26.7s5.316,26.7,11.848,26.7,11.85-11.979,11.85-26.7S175.5,9641.691,168.969,9641.691Z" transform="translate(-86.357 -9560.587)" fill="#999"/>
            <path id="Trazado_111886" data-name="Trazado 111886" d="M275.646,9707.118l5.522-1.446.986,1.446,1.972-.459s.264-4.405-1.578-5.72h-1.511l-.329,2.233-5.39,2.368-.921.788.144.789Z" transform="translate(-63.584 -9548.997)" fill="#666"/>
            <path id="Trazado_111887" data-name="Trazado 111887" d="M244.528,9986.341h-.018a.6.6,0,0,1-.578-.614c.035-1.188,3.381-119.073-2.243-137.3-5.687-18.433-3.988-42.38-3.971-42.619l6.709-55.247c.023-.3,2.525-33.037,1.073-48.582-.464-4.987-1.517-11.182-2.633-17.739-2.4-14.092-5.378-31.63-4.161-47.047l3.352-28.948a.6.6,0,0,1,1.186.137l-3.35,28.929c-1.2,15.246,1.765,32.7,4.152,46.729,1.118,6.581,2.175,12.8,2.644,17.828,1.46,15.646-1.05,48.481-1.076,48.813l-6.708,55.244c-.016.209-1.7,23.937,3.923,42.151,5.683,18.419,2.438,132.829,2.3,137.691A.6.6,0,0,1,244.528,9986.341Z" transform="translate(-70.701 -9566.964)" fill="#4d4d4d"/>
            <g id="Grupo_57016" data-name="Grupo 57016" transform="translate(175.686 154.039)">
              <path id="Trazado_111888" data-name="Trazado 111888" d="M280.022,9707.421s-28.533-3.11-35-4.355" transform="translate(-244.932 -9702.626)" fill="#fff"/>
              <path id="Trazado_111889" data-name="Trazado 111889" d="M279.987,9707.937c-.285-.03-28.626-3.126-35.041-4.36l.169-.879c6.38,1.228,34.684,4.319,34.969,4.35Z" transform="translate(-244.946 -9702.697)" fill="#999"/>
            </g>
            <path id="Trazado_111890" data-name="Trazado 111890" d="M195.167,9717.112l-1.19-.069c.041-.693,4.062-69.527,6.369-87.428l1.183.151C199.227,9647.627,195.208,9716.419,195.167,9717.112Z" transform="translate(-79.082 -9562.743)" fill="#999"/>
            <g id="Grupo_57020" data-name="Grupo 57020" transform="translate(155.142)">
              <g id="Grupo_57017" data-name="Grupo 57017" transform="translate(1.538)">
                <path id="Trazado_111891" data-name="Trazado 111891" d="M234.48,9591.421v10.649a5.366,5.366,0,0,0,4.9.36l.1-11.01a8.541,8.541,0,0,0,6.442-8.479s.92-9.4-8.546-9.007-7.889,11.307-7.889,11.307S231.193,9590.764,234.48,9591.421Z" transform="translate(-228.938 -9573.476)" fill="#fff"/>
                <path id="Trazado_111892" data-name="Trazado 111892" d="M237.339,9603.378a5.647,5.647,0,0,1-3.043-.869l-.192-.134v-10.534c-3.267-.989-4.9-6.167-4.975-6.395-.048-.294-.784-5.645,2.087-9.1a8.116,8.116,0,0,1,6.21-2.785c2.926-.127,5.21.654,6.773,2.308,2.633,2.784,2.253,7.01,2.235,7.188a8.926,8.926,0,0,1-6.443,8.772l-.1,10.975-.276.113A5.945,5.945,0,0,1,237.339,9603.378Zm-2.34-1.486a4.919,4.919,0,0,0,4.006.3l.1-11.058.344-.079a8.03,8.03,0,0,0,6.095-8.041c.006-.086.357-4.054-2-6.539-1.376-1.454-3.435-2.135-6.082-2.022a7.257,7.257,0,0,0-5.559,2.461c-2.619,3.155-1.913,8.282-1.906,8.334h0c.006,0,1.66,5.209,4.641,5.8l.359.072Z" transform="translate(-229.01 -9573.547)" fill="#999"/>
              </g>
              <g id="Grupo_57018" data-name="Grupo 57018" transform="translate(0 4.384)">
                <rect id="Rectángulo_10573" data-name="Rectángulo 10573" width="19.335" height="3.316" rx="1.209" transform="translate(0.596 0.596)" fill="#fff"/>
                <path id="Trazado_111893" data-name="Trazado 111893" d="M246.21,9581.731H229.759a2.04,2.04,0,0,1-2.038-2.037v-.434a2.041,2.041,0,0,1,2.038-2.038H246.21a2.041,2.041,0,0,1,2.038,2.038v.434A2.04,2.04,0,0,1,246.21,9581.731Zm-16.451-3.316a.847.847,0,0,0-.846.846v.434a.846.846,0,0,0,.846.845H246.21a.847.847,0,0,0,.846-.845v-.434a.848.848,0,0,0-.846-.846Z" transform="translate(-227.721 -9577.223)" fill="#999"/>
              </g>
              <g id="Grupo_57019" data-name="Grupo 57019" transform="translate(0 10.607)">
                <rect id="Rectángulo_10574" data-name="Rectángulo 10574" width="19.335" height="3.316" rx="1.209" transform="translate(0.596 0.596)" fill="#fff"/>
                <path id="Trazado_111894" data-name="Trazado 111894" d="M246.21,9586.95H229.759a2.041,2.041,0,0,1-2.038-2.039v-.432a2.041,2.041,0,0,1,2.038-2.038H246.21a2.041,2.041,0,0,1,2.038,2.038v.432A2.041,2.041,0,0,1,246.21,9586.95Zm-16.451-3.316a.847.847,0,0,0-.846.846v.432a.847.847,0,0,0,.846.846H246.21a.848.848,0,0,0,.846-.846v-.432a.848.848,0,0,0-.846-.846Z" transform="translate(-227.721 -9582.441)" fill="#999"/>
              </g>
            </g>
            <path id="Trazado_111895" data-name="Trazado 111895" d="M274.012,9705.9l5.7-.279.668,1.618,2.024-.045s1.163-4.257-.367-5.923l-1.48-.31-.781,2.12-5.762,1.208-1.063.583-.02.8Z" transform="translate(-63.867 -9548.993)" fill="#666"/>
            <path id="Trazado_111896" data-name="Trazado 111896" d="M240.465,9646.92l5.7-.28.668,1.619,2.025-.046s1.162-4.256-.369-5.92l-1.48-.312-.781,2.119-5.762,1.209-1.063.582-.02.8Z" transform="translate(-70.331 -9560.359)" fill="#666"/>
            <path id="Trazado_111897" data-name="Trazado 111897" d="M219.117,9698.45l4.353-3.693,1.515.879,1.579-1.269s-1.669-4.085-3.9-4.474l-1.363.654.67,2.157-3.836,4.466-.489,1.108.471.648Z" transform="translate(-74.52 -9551.127)" fill="#666"/>
            <path id="Trazado_111898" data-name="Trazado 111898" d="M206,9799.935l4.353-3.692,1.515.877,1.578-1.269s-1.667-4.084-3.9-4.474l-1.363.654.67,2.157-3.836,4.465-.489,1.109.471.649Z" transform="translate(-77.048 -9531.569)" fill="#666"/>
            <path id="Trazado_111899" data-name="Trazado 111899" d="M239.252,9802.477l4.352-3.692,1.515.879,1.579-1.269s-1.669-4.085-3.9-4.474l-1.363.653.67,2.158-3.836,4.466-.488,1.108.47.648Z" transform="translate(-70.639 -9531.08)" fill="#666"/>
            <path id="Trazado_111900" data-name="Trazado 111900" d="M206.723,9805.582l4.353,3.691,1.515-.877,1.578,1.268s-1.667,4.085-3.9,4.474l-1.363-.653.67-2.157-3.836-4.466-.489-1.108.471-.65Z" transform="translate(-76.908 -9528.924)" fill="#666"/>
            <path id="Trazado_111901" data-name="Trazado 111901" d="M241.263,9804.92l4.353,3.693,1.515-.877L248.71,9809s-1.669,4.085-3.9,4.474l-1.363-.654.67-2.156-3.836-4.466-.489-1.108.471-.649Z" transform="translate(-70.252 -9529.051)" fill="#666"/>
            <path id="Trazado_111902" data-name="Trazado 111902" d="M201.094,9804.387l-4.353,3.692-1.515-.877-1.579,1.269s1.669,4.084,3.9,4.474l1.363-.656-.67-2.155,3.836-4.466.489-1.109-.471-.648Z" transform="translate(-79.145 -9529.154)" fill="#666"/>
            <path id="Trazado_111903" data-name="Trazado 111903" d="M187.759,9801.133l-4.353,3.693-1.515-.877-1.578,1.266s1.667,4.086,3.9,4.477l1.363-.656-.67-2.156,3.836-4.465.489-1.109-.471-.648Z" transform="translate(-81.715 -9529.782)" fill="#666"/>
            <path id="Trazado_111904" data-name="Trazado 111904" d="M168.117,9636.793l-.389-5.7,1.605-.7-.083-2.021s-4.278-1.082-5.913.479l-.283,1.485,2.134.74,1.318,5.739.6,1.052.8.006Z" transform="translate(-85.041 -9563.051)" fill="#666"/>
            <path id="Trazado_111905" data-name="Trazado 111905" d="M167.2,9636.873l-4.328-3.722.629-1.633-1.5-1.36s-3.773,2.287-3.808,4.548l.86,1.244,2.025-1,5.012,3.089,1.172.31.567-.567Z" transform="translate(-85.978 -9562.638)" fill="#666"/>
            <path id="Trazado_111906" data-name="Trazado 111906" d="M206.332,9626.279l-.389-5.7,1.605-.7-.083-2.025s-4.278-1.08-5.913.482l-.283,1.484,2.135.742,1.317,5.736.6,1.051.8.006Z" transform="translate(-77.676 -9565.077)" fill="#666"/>
            <path id="Trazado_111907" data-name="Trazado 111907" d="M205.413,9626.359l-4.328-3.72.629-1.635-1.5-1.361s-3.773,2.288-3.808,4.551l.86,1.244,2.025-1,5.012,3.089,1.172.309.567-.566Z" transform="translate(-78.614 -9564.664)" fill="#666"/>
            <path id="Trazado_111908" data-name="Trazado 111908" d="M245.708,9700.119l5.377-1.916,1.107,1.354,1.925-.626s-.118-4.411-2.065-5.563l-1.506.131-.135,2.255-5.167,2.822-.849.865.212.773Z" transform="translate(-69.366 -9550.456)" fill="#666"/>
            <path id="Trazado_111909" data-name="Trazado 111909" d="M244.548,9702.2l4.306,3.747-.639,1.628,1.492,1.371s3.787-2.265,3.836-4.525l-.853-1.25-2.031.989-4.993-3.12-1.17-.317-.57.564Z" transform="translate(-69.456 -9549.038)" fill="#666"/>
            <path id="Trazado_111910" data-name="Trazado 111910" d="M146.726,9834.429a.61.61,0,0,1-.173-.025l-28.537-8.673a.6.6,0,0,1-.134-1.081l6.073-3.646c-3.256-4.865-25.925-39.479-26.293-60.981a145.728,145.728,0,0,1,5.924-42.25.586.586,0,0,1,.625-.409.6.6,0,0,1,.534.52l3.049,24.266c2.32-4.212,8.453-15.306,10.151-17.939.318-.493.656-.489.886-.4.569.22.524.489.091,3.072-4.981,29.681-.2,57.476,14.218,82.641l1.007-5.324a.6.6,0,0,1,1.138-.114l11.993,29.524a.6.6,0,0,1-.552.821Zm-27.078-9.448L145.7,9832.9l-10.761-26.489-.927,4.906a.6.6,0,0,1-1.1.192c-15.147-25.711-20.264-54.168-15.211-84.588-3.174,5.429-9.675,17.272-9.752,17.411a.6.6,0,0,1-1.114-.212l-2.92-23.231A146.076,146.076,0,0,0,98.855,9760c.383,22.32,26.18,60.472,26.439,60.854a.593.593,0,0,1-.186.847Z" transform="translate(-97.646 -9545.833)" fill="#4d4d4d"/>
            <path id="Trazado_111911" data-name="Trazado 111911" d="M324.263,9890.935a.6.6,0,0,1-.562-.8l8.155-23.057c-3.963,2.726-14.419,9.892-17.118,11.486-.5.3-.806.143-.971-.039-.41-.453-.248-.673,1.3-2.788,17.759-24.3,25.945-51.288,24.343-80.246l-3.287,4.31a.6.6,0,0,1-1.069-.408l2.518-31.768a.6.6,0,0,1,1-.386l21.619,20.548a.6.6,0,0,1-.365,1.027l-7.062.534c.73,5.809,5.472,46.912-3.839,66.3a145.727,145.727,0,0,1-24.238,35.107A.6.6,0,0,1,324.263,9890.935Zm8.768-25.981a.6.6,0,0,1,.563.8l-7.807,22.075a146.172,146.172,0,0,0,22.064-32.692c9.666-20.122,3.713-65.789,3.652-66.247a.6.6,0,0,1,.545-.675l6.35-.479-19.738-18.761-2.259,28.5,3.03-3.971a.59.59,0,0,1,.645-.209.6.6,0,0,1,.425.529c2.011,29.773-6.175,57.5-24.331,82.431,5.272-3.431,16.393-11.1,16.524-11.191A.592.592,0,0,1,333.031,9864.953Z" transform="translate(-56.034 -9536.252)" fill="#4d4d4d"/>
            <g id="Grupo_57021" data-name="Grupo 57021" transform="translate(53.989 62.576)" opacity="0.71">
              <path id="Trazado_111912" data-name="Trazado 111912" d="M231.606,9880.676l16.493-9.18-.817-33.8,13.148,26.8,66.7-42.255s14.624-7.911,16.957-6.7-41.269-52.01-41.269-52.01l-32.164-31.956a29.971,29.971,0,0,1-2.548-8.322c-.4-3.9-6.472-44.04-6.472-44.04l-4.37-32.78a21.083,21.083,0,0,1-16.39-.96c-9.024-4.206-18.285-12.778-18.285-12.778L217,9626.512s-6.28,4.251-33.327,10.184a54.136,54.136,0,0,0-13.853,5.09c-4.6,2.447-10.2,5.488-12.418,6.938-4.046,2.64-11.2,8.551-11.2,8.551s10.268,3.423,10.579,7.779a22.449,22.449,0,0,1-5.912,16.019c-4.667,4.983-5.6,7.784-5.6,7.784s-4.2,6.223,0,11.823,9.8,18.46,9.8,18.46l7.779,22.921,10.528,37.959,9.074,37.568s2.895,11.134-2.211,20.509c-9.8,18-11.926,47.819-11.926,47.819s-4.065,19.028-4.687,21.517c0,0,14.157-10.734,30.337-13.533l23.09-6.536s8.394-38.32,10.31-44.751l2.859,37.751S230.4,9881.725,231.606,9880.676Z" transform="translate(-142.817 -9625.917)" fill="#ccc"/>
              <path id="Trazado_111913" data-name="Trazado 111913" d="M163.718,9908.124a.594.594,0,0,1-.329-.1.6.6,0,0,1-.25-.642c.614-2.451,4.643-21.307,4.684-21.5.011-.217,2.234-30.075,11.986-47.979,4.931-9.05,2.186-19.965,2.158-20.073l-9.077-37.577-10.523-37.94-7.769-22.89c-.037-.081-5.6-12.813-9.712-18.295-4.164-5.55-.512-11.729-.061-12.446.187-.5,1.364-3.294,5.7-7.925a21.969,21.969,0,0,0,5.751-15.568c-.231-3.245-7.42-6.337-10.171-7.255a.6.6,0,0,1-.191-1.026c.072-.06,7.228-5.964,11.254-8.591,1.814-1.184,6.008-3.527,12.465-6.967a54.784,54.784,0,0,1,14-5.145c26.513-5.815,33.059-10.055,33.122-10.1a.6.6,0,0,1,.776.1l5.588,6.181c.055.048,9.263,8.52,18.093,12.638a20.694,20.694,0,0,0,15.9.954.584.584,0,0,1,.533.026.6.6,0,0,1,.3.441l4.37,32.778c.246,1.63,6.071,40.186,6.473,44.059a29.224,29.224,0,0,0,2.449,8.034l32.09,31.884c.145.174,10.658,13,20.957,25.767,21.136,26.19,20.889,26.5,20.438,27.052a.708.708,0,0,1-.821.142c-1.273-.669-9.35,2.883-16.4,6.7l-66.663,42.235a.6.6,0,0,1-.855-.241l-11.952-24.36.753,31.085a.6.6,0,0,1-.307.534l-16.439,9.15a1.509,1.509,0,0,1-1.512.434,1.476,1.476,0,0,1-.81-1.159l-2.6-34.26c-2.818,11.284-9.326,40.973-9.4,41.312a.6.6,0,0,1-.421.445l-23.088,6.533c-15.913,2.757-30,13.33-30.14,13.436A.588.588,0,0,1,163.718,9908.124Zm-16.234-250.957c2.673,1.018,9.705,4.054,9.983,7.94a22.909,22.909,0,0,1-6.07,16.469c-4.489,4.793-5.461,7.538-5.471,7.566a.583.583,0,0,1-.07.142c-.162.24-3.907,5.947-.018,11.134,4.194,5.591,9.639,18.052,9.87,18.579l7.8,22.969,10.539,37.991,9.079,37.587c.118.453,2.894,11.461-2.266,20.934-9.628,17.676-11.834,47.279-11.856,47.576-.155.755-3.189,14.953-4.345,20.073,3.886-2.684,15.972-10.414,29.3-12.722l22.685-6.421c.848-3.865,8.442-38.4,10.243-44.446a.584.584,0,0,1,.636-.423.6.6,0,0,1,.531.548l2.86,37.751a.655.655,0,0,0,.062.16c.023-.027.143-.083.34-.254a.623.623,0,0,1,.1-.071l16.177-9-.81-33.442a.6.6,0,0,1,1.133-.277l12.856,26.2,66.136-41.9c2.23-1.209,12.284-6.543,16.308-6.875-3.578-5.245-25.7-32.568-40.762-50.954l-32.123-31.911a.572.572,0,0,1-.116-.163,30.243,30.243,0,0,1-2.6-8.521c-.4-3.845-6.408-43.612-6.469-44.012l-4.272-32.048a21.978,21.978,0,0,1-16.15-1.241c-9-4.2-18.345-12.795-18.438-12.882l-5.3-5.854c-1.834,1.033-9.736,4.881-33.085,10a53.643,53.643,0,0,0-13.7,5.032c-6.336,3.375-10.615,5.765-12.373,6.913C154.647,9651.389,149.471,9655.551,147.484,9657.167ZM230.989,9880.6h0Z" transform="translate(-142.911 -9626.012)" fill="#4d4d4d"/>
            </g>
            <path id="Trazado_111914" data-name="Trazado 111914" d="M262.553,9854.293a.6.6,0,0,1-.51-.287c-.571-.945-1.725-2.875-3.019-5.183a.6.6,0,0,1,1.041-.582c1.285,2.292,2.43,4.208,3,5.147a.6.6,0,0,1-.51.9Zm-5.825-10.434a.6.6,0,0,1-.532-.328,59.764,59.764,0,0,1-2.481-5.5.6.6,0,0,1,1.116-.422,58.364,58.364,0,0,0,2.43,5.386.6.6,0,0,1-.265.8A.582.582,0,0,1,256.728,9843.859ZM253,9832.609a.6.6,0,0,1-.593-.548c-.076-.933-.115-1.937-.115-2.984,0-.982.033-2.013.1-3.062a.574.574,0,0,1,.632-.559.6.6,0,0,1,.558.633c-.066,1.025-.1,2.031-.1,2.987,0,1.015.037,1.986.11,2.887a.594.594,0,0,1-.545.643A.417.417,0,0,1,253,9832.609Zm.545-11.907h-.025a.6.6,0,0,1-.571-.622l.256-5.978a.584.584,0,0,1,.623-.571.6.6,0,0,1,.57.622l-.256,5.978A.6.6,0,0,1,253.544,9820.7Zm.522-11.949-.027,0a.593.593,0,0,1-.568-.621c.082-1.857.174-3.859.273-5.969a.6.6,0,1,1,1.19.056c-.1,2.109-.191,4.109-.272,5.966A.6.6,0,0,1,254.067,9808.753Zm.559-11.935h-.03a.6.6,0,0,1-.565-.624l.292-5.966a.552.552,0,0,1,.625-.565.6.6,0,0,1,.565.626l-.292,5.963A.6.6,0,0,1,254.626,9796.818Zm.6-11.928-.032,0a.6.6,0,0,1-.563-.626l.318-5.965a.58.58,0,0,1,.629-.562.594.594,0,0,1,.562.628l-.318,5.962A.6.6,0,0,1,255.222,9784.891Zm.651-11.929h-.035a.6.6,0,0,1-.561-.629c.116-2.022.235-4.018.354-5.964a.6.6,0,1,1,1.19.073c-.119,1.945-.239,3.938-.354,5.958A.6.6,0,0,1,255.874,9772.962Zm.736-11.921h-.039a.6.6,0,0,1-.556-.635c.138-2.088.279-4.086.42-5.963a.6.6,0,1,1,1.19.089c-.141,1.874-.281,3.869-.42,5.954A.6.6,0,0,1,256.609,9761.041Zm.874-11.911h-.041a.6.6,0,0,1-.555-.636q.209-3.045.339-5.94a.6.6,0,0,1,.6-.569h.027a.594.594,0,0,1,.568.622c-.087,1.936-.2,3.929-.339,5.968A.6.6,0,0,1,257.484,9749.13Zm.539-11.915h-.012a.6.6,0,0,1-.584-.609c.044-2.022.064-3.961.064-5.8v-.148a.6.6,0,0,1,1.193,0v.148q0,2.777-.064,5.828A.6.6,0,0,1,258.023,9737.215Zm-.008-11.928a.6.6,0,0,1-.6-.582c-.051-2.213-.128-4.207-.21-5.946a.594.594,0,0,1,.565-.624h.03a.6.6,0,0,1,.6.567c.085,1.748.161,3.751.212,5.976a.6.6,0,0,1-.582.61Zm-.586-11.914a.6.6,0,0,1-.593-.55c-.067-.828-.119-1.4-.147-1.677l-1.777-1.866,0,0c-.222-.168-.516-.432-.936-.809a.6.6,0,0,1,.794-.89c.6.537.928.814.951.833l1.969,2.062a.593.593,0,0,1,.161.35s.069.666.168,1.906a.6.6,0,0,1-.546.643A.4.4,0,0,1,257.429,9713.373Zm-7.389-8.85a.593.593,0,0,1-.419-.171c-1.366-1.347-2.777-2.783-4.192-4.271a.6.6,0,1,1,.864-.822c1.409,1.479,2.81,2.906,4.166,4.242a.6.6,0,0,1-.419,1.021Zm-8.232-8.632a.6.6,0,0,1-.444-.2q-1.879-2.082-3.95-4.486a.6.6,0,0,1,.9-.779q2.057,2.4,3.932,4.467a.6.6,0,0,1-.443,1Zm-7.779-9.042a.6.6,0,0,1-.462-.218q-1.821-2.219-3.743-4.659a.6.6,0,0,1,.936-.736q1.911,2.43,3.73,4.638a.6.6,0,0,1-.462.976Zm-7.377-9.372a.6.6,0,0,1-.476-.233q-1.8-2.375-3.635-4.726a.6.6,0,0,1,.941-.734q1.834,2.355,3.645,4.736a.6.6,0,0,1-.475.957Zm-7.329-9.419a.6.6,0,0,1-.468-.225q-1.877-2.36-3.731-4.651a.6.6,0,1,1,.928-.749c1.234,1.524,2.483,3.082,3.738,4.657a.6.6,0,0,1-.468.968Zm-7.508-9.277a.6.6,0,0,1-.462-.218c-1.3-1.584-2.573-3.118-3.8-4.593a.6.6,0,1,1,.916-.764q1.85,2.215,3.811,4.6a.6.6,0,0,1-.083.84A.591.591,0,0,1,211.815,9658.781Zm-7.65-9.164a.6.6,0,0,1-.456-.211c-1.378-1.63-2.675-3.149-3.868-4.539a.6.6,0,0,1,.9-.778c1.2,1.392,2.5,2.914,3.875,4.546a.6.6,0,0,1-.456.982Zm-7.776-9.06a.591.591,0,0,1-.45-.205c-2.471-2.835-3.943-4.483-3.944-4.484a.6.6,0,1,1,.89-.794s1.474,1.651,3.953,4.5a.6.6,0,0,1-.448.988Z" transform="translate(-79.493 -9561.729)" fill="#4d4d4d"/>
            <path id="Trazado_111915" data-name="Trazado 111915" d="M223.186,9735.879a3.8,3.8,0,0,1-.627-.049,2.262,2.262,0,0,1-1.542-.928,1.465,1.465,0,0,1-.2-1.174c.9-4.342,20.277-16.5,22.484-17.875l8.869-5.137a.6.6,0,1,1,.6,1.031l-8.853,5.127c-8.477,5.271-21.33,14.186-21.93,17.094a.346.346,0,0,0,.014.252,1.1,1.1,0,0,0,.767.434c2.709.488,9.317-3.738,11.636-5.4l12-7.641a.6.6,0,1,1,.641,1.006l-11.978,7.623C234.243,9730.832,227.078,9735.879,223.186,9735.879Z" transform="translate(-73.918 -9547.129)" fill="#4d4d4d"/>
            <path id="Trazado_111916" data-name="Trazado 111916" d="M276.2,9708.534l5.7-.281.667,1.619,2.025-.046s1.163-4.256-.369-5.92l-1.48-.312-.78,2.121-5.762,1.207-1.063.583-.021.8Z" transform="translate(-63.446 -9548.485)" fill="#666"/>
            <path id="Trazado_111917" data-name="Trazado 111917" d="M247.526,9695.249l4.9-2.922,1.349,1.114,1.766-.99s-.97-4.3-3.1-5.055l-1.452.419.3,2.239-4.522,3.771-.664,1.012.357.719Z" transform="translate(-69.036 -9551.607)" fill="#666"/>
            <path id="Trazado_111918" data-name="Trazado 111918" d="M248.992,9705.157l4.9-2.921,1.349,1.115,1.766-.989s-.97-4.3-3.1-5.058l-1.453.421.305,2.238-4.522,3.771-.664,1.014.357.717Z" transform="translate(-68.753 -9549.697)" fill="#666"/>
            <path id="Trazado_111919" data-name="Trazado 111919" d="M250.008,9713.288l4.9-2.921,1.349,1.114,1.766-.989s-.97-4.3-3.1-5.056l-1.453.419.305,2.239-4.522,3.77-.666,1.014.358.719Z" transform="translate(-68.557 -9548.131)" fill="#666"/>
            <path id="Trazado_111920" data-name="Trazado 111920" d="M251.483,9721.692l4.9-2.922,1.348,1.116,1.768-.989s-.971-4.3-3.1-5.058l-1.453.421.3,2.238-4.52,3.771-.666,1.014.358.716Z" transform="translate(-68.273 -9546.511)" fill="#666"/>
            <path id="Trazado_111921" data-name="Trazado 111921" d="M244.524,9701.992a.6.6,0,0,1-.291-.075l-12.031-6.742-6.585-4.272c-.835-.487-5.1-3.1-4.718-5.269a1.684,1.684,0,0,1,1.153-1.365c1.415-.483,3.928.515,5.962,2.375,2.5,2.28,11.2,10.079,11.2,10.081l4.581,2.8a.6.6,0,0,1,.2.821c-.011.017-.023.033-.033.051l.853.476a.6.6,0,0,1-.291,1.117Zm-21.648-16.658a1.386,1.386,0,0,0-.439.063.5.5,0,0,0-.365.441c-.173,1,2.387,3.006,4.171,4.051l6.575,4.266,4.675,2.62c-2.385-2.133-8.3-7.436-10.284-9.251A7.578,7.578,0,0,0,222.876,9685.334Z" transform="translate(-73.898 -9552.234)" fill="#4d4d4d"/>
            <g id="Grupo_57022" data-name="Grupo 57022" transform="translate(122.996 49.128)" opacity="0.71">
              <path id="Trazado_111922" data-name="Trazado 111922" d="M207.549,9629.63l-6.28-4.563a22.236,22.236,0,0,0,1.712-7.984c0-4.15,2.867,0,2.867,0l4.289,5.353S208.486,9629.112,207.549,9629.63Z" transform="translate(-200.672 -9614.643)" fill="#ccc"/>
              <path id="Trazado_111923" data-name="Trazado 111923" d="M207.644,9630.323a.593.593,0,0,1-.351-.114l-6.278-4.563a.6.6,0,0,1-.194-.725,21.826,21.826,0,0,0,1.659-7.745c0-.891.1-2.107,1.008-2.39,1.121-.353,2.439,1.315,2.947,2.051l4.264,5.319a.6.6,0,0,1,.113.517c-.639,2.588-1.864,7.016-2.878,7.575A.607.607,0,0,1,207.644,9630.323Zm-5.548-5.366,5.453,3.962a36.117,36.117,0,0,0,2.034-6.247l-4.1-5.123c-.581-.836-1.364-1.6-1.65-1.619a3.45,3.45,0,0,0-.156,1.246A22.518,22.518,0,0,1,202.1,9624.957Z" transform="translate(-200.769 -9614.738)" fill="#4d4d4d"/>
            </g>
            <g id="Grupo_57023" data-name="Grupo 57023" transform="translate(130.282 57.274)" opacity="0.71">
              <path id="Trazado_111924" data-name="Trazado 111924" d="M208.233,9629.471l5.8,5.289s3.111-4.668,3.85-5.99,1.517-1.789,0-3.966a6.564,6.564,0,0,0-5.756-2.724,4.608,4.608,0,0,0-2.606,2.061c-.933,1.634-2.139,4.59-2.139,4.59Z" transform="translate(-206.782 -9621.474)" fill="#ccc"/>
              <path id="Trazado_111925" data-name="Trazado 111925" d="M214.124,9635.449a.594.594,0,0,1-.4-.156l-6.637-6.018a.6.6,0,0,1-.162-.676,50.774,50.774,0,0,1,2.173-4.66,5.2,5.2,0,0,1,2.976-2.342,7.11,7.11,0,0,1,6.393,2.957c1.418,2.039,1.072,2.906.334,4.1-.1.156-.2.322-.3.5-.742,1.328-3.746,5.838-3.875,6.029a.594.594,0,0,1-.423.262C214.171,9635.447,214.149,9635.449,214.124,9635.449Zm-5.933-6.793.528.457.012.01,5.281,4.82c.853-1.289,2.877-4.359,3.441-5.371.112-.2.225-.383.332-.553.546-.879.773-1.242-.3-2.781a5.966,5.966,0,0,0-5.209-2.471,4.157,4.157,0,0,0-2.146,1.764A45.394,45.394,0,0,0,208.191,9628.656Z" transform="translate(-206.878 -9621.568)" fill="#4d4d4d"/>
            </g>
            <g id="Grupo_57024" data-name="Grupo 57024" transform="translate(137.213 63.372)" opacity="0.71">
              <path id="Trazado_111926" data-name="Trazado 111926" d="M213.907,9634.484s6.015,5.652,8.4,7.1c0,0,.329-.776,1.316-2.8s2.159-5.652,1.589-6.741a12.371,12.371,0,0,0-3.371-3.578,4.25,4.25,0,0,0-4.309-1.048c-2.017.736-4.343,5.928-4.343,5.928Z" transform="translate(-212.593 -9626.582)" fill="#ccc"/>
              <path id="Trazado_111927" data-name="Trazado 111927" d="M222.4,9642.282a.605.605,0,0,1-.31-.086c-2.41-1.469-8.251-6.947-8.5-7.18a.657.657,0,0,1-.1-.115l-.718-1.136a.6.6,0,0,1-.039-.562c.248-.556,2.492-5.445,4.68-6.244a4.823,4.823,0,0,1,4.858,1.118,12.967,12.967,0,0,1,3.557,3.791c.846,1.614-1.032,6.153-1.582,7.278-.964,1.977-1.3,2.764-1.3,2.772a.6.6,0,0,1-.549.363Zm-7.936-8.084c.561.524,5.24,4.883,7.68,6.6.206-.451.539-1.155,1.036-2.176,1.156-2.375,1.962-5.506,1.595-6.2a11.725,11.725,0,0,0-3.2-3.382,3.662,3.662,0,0,0-3.742-.96c-1.233.452-2.964,3.385-3.87,5.321Z" transform="translate(-212.689 -9626.681)" fill="#4d4d4d"/>
            </g>
            <g id="Grupo_57025" data-name="Grupo 57025" transform="translate(147.647 70.406)" opacity="0.71">
              <path id="Trazado_111928" data-name="Trazado 111928" d="M221.937,9641.23a18.692,18.692,0,0,0,4.882,2.8c2.255.7,5.133,1.2,5.99-.837a12.545,12.545,0,0,0,0-7.377c-.623-1.665-1.929-2.241-3.812-2.569-1.7-.295-4.109-.5-5.321,2.072a29.141,29.141,0,0,0-1.739,4.588Z" transform="translate(-221.341 -9632.48)" fill="#ccc"/>
              <path id="Trazado_111929" data-name="Trazado 111929" d="M230.227,9645.328a12.1,12.1,0,0,1-3.49-.632,19.083,19.083,0,0,1-5.077-2.9.6.6,0,0,1-.223-.466V9640a.636.636,0,0,1,.019-.15,29.43,29.43,0,0,1,1.777-4.694c1.5-3.181,4.739-2.619,5.962-2.4,1.757.3,3.491.874,4.268,2.947a13.2,13.2,0,0,1-.008,7.816A3.127,3.127,0,0,1,230.227,9645.328Zm-7.6-4.295a17.247,17.247,0,0,0,4.462,2.524c2.966.923,4.74.756,5.263-.5a11.932,11.932,0,0,0-.01-6.937c-.468-1.254-1.378-1.848-3.355-2.191-1.852-.316-3.7-.333-4.679,1.739a29.653,29.653,0,0,0-1.682,4.414Z" transform="translate(-221.437 -9632.577)" fill="#4d4d4d"/>
            </g>
            <g id="Grupo_57026" data-name="Grupo 57026" transform="translate(158.207 69.247)" opacity="0.71">
              <path id="Trazado_111930" data-name="Trazado 111930" d="M230.791,9644.832s6.69.715,9.153,0,5.263-8.828,5.263-8.828.169-3.258-4.167-3.848-7.138,4.491-7.138,4.491l-1.733,3.423A11.784,11.784,0,0,0,230.791,9644.832Z" transform="translate(-230.194 -9631.51)" fill="#ccc"/>
              <path id="Trazado_111931" data-name="Trazado 111931" d="M236.543,9645.842c-2.674,0-5.538-.3-5.719-.32a.6.6,0,0,1-.532-.639,12.319,12.319,0,0,1,1.461-5.023l1.713-3.384c.132-.242,3.056-5.466,7.75-4.813,4.824.656,4.685,4.432,4.683,4.47a.585.585,0,0,1-.031.163c-.3.86-2.979,8.425-5.661,9.205A14.676,14.676,0,0,1,236.543,9645.842Zm-5-1.45c1.669.15,6.424.52,8.332-.037,1.562-.454,3.777-5.325,4.835-8.356-.012-.441-.24-2.69-3.652-3.155-3.887-.52-6.51,4.144-6.536,4.189l-1.723,3.4A11.227,11.227,0,0,0,231.541,9644.392Z" transform="translate(-230.291 -9631.605)" fill="#4d4d4d"/>
            </g>
            <g id="Grupo_57027" data-name="Grupo 57027" transform="translate(240.349 252.098)" opacity="0.81">
              <path id="Trazado_111932" data-name="Trazado 111932" d="M299.66,9791.29l1.711,3.131a2.573,2.573,0,0,0,3.578.943c2.489-1.161,9.114-8.111,9.114-8.111s1.1-1.84,0-1.84-4.99.149-7.247,1.631a45.119,45.119,0,0,1-5.6,2.934Z" transform="translate(-299.064 -9784.816)" fill="#999"/>
              <path id="Trazado_111933" data-name="Trazado 111933" d="M303.618,9796.409a3.066,3.066,0,0,1-2.68-1.617l-1.7-3.118a.6.6,0,0,1,.138-.742l1.556-1.312a.575.575,0,0,1,.147-.092,44.926,44.926,0,0,0,5.51-2.887c2.506-1.645,6.748-1.728,7.575-1.728a1.021,1.021,0,0,1,.946.5c.4.7-.172,1.8-.435,2.242a.562.562,0,0,1-.079.1c-.274.288-6.733,7.045-9.294,8.241A3.962,3.962,0,0,1,303.618,9796.409Zm-3.1-4.88,1.477,2.7a1.981,1.981,0,0,0,2.8.689c2.253-1.052,8.286-7.306,8.887-7.932a3.415,3.415,0,0,0,.361-.881c-.914.011-4.687.143-6.8,1.529a44.487,44.487,0,0,1-5.609,2.948Z" transform="translate(-299.161 -9784.913)" fill="#4d4d4d"/>
            </g>
            <path id="Trazado_111934" data-name="Trazado 111934" d="M182.255,9715.872l-3.4-11.1.363-.161c.3-.135,30.579-13.365,55.771-9.048,25.042,4.288,55.194,8.241,55.5,8.28l2.156.342.083.261c.086.261,2.013,6.425-1.991,10.223l-.16.153-.221-.036-29.681-4.93c-.345-.068-33.059-6.654-43.679-3.562-10.727,3.12-34.089,9.405-34.323,9.468Zm-2.308-10.6,2.911,9.514c3.2-.863,23.963-6.465,33.888-9.352,10.826-3.148,42.738,3.266,44.091,3.542l29.442,4.889c2.965-3.006,1.972-7.73,1.67-8.885l-1.59-.251c-.29-.038-30.459-4-55.519-8.286C211.409,9692.434,183.449,9703.79,179.947,9705.271Z" transform="translate(-81.995 -9550.2)" fill="#999"/>
            <path id="Trazado_111935" data-name="Trazado 111935" d="M161.749,9718.076l-.289-.846c15.437-5.273,24.318-9.039,24.406-9.076.307-.125,30.357-12.158,55.026-8.832l20.317,4.139-.179.875-20.287-4.131c-24.416-3.295-54.235,8.654-54.533,8.775C186.129,9709.018,177.22,9712.793,161.749,9718.076Z" transform="translate(-85.348 -9549.421)" fill="#999"/>
            <path id="Trazado_111936" data-name="Trazado 111936" d="M182.378,9708.253l-3.168-4.748,1.045-1.4-1.078-1.715s-4.248,1.189-4.891,3.358l.494,1.429,2.22-.418,4,4.322,1.046.613.7-.393Z" transform="translate(-82.877 -9549.104)" fill="#666"/>
            <path id="Trazado_111937" data-name="Trazado 111937" d="M181.854,9721.608a.6.6,0,0,1-.421-1.02c1.521-1.512,2.957-2.94,4.16-4.23a.6.6,0,1,1,.873.813c-1.219,1.309-2.663,2.743-4.192,4.264A.593.593,0,0,1,181.854,9721.608Zm7.866-8.9a.6.6,0,0,1-.507-.911,18.71,18.71,0,0,0,2.238-5.291.6.6,0,0,1,1.153.3,19.792,19.792,0,0,1-2.378,5.621A.6.6,0,0,1,189.72,9712.707Zm3.262-11.321-.056,0a.6.6,0,0,1-.539-.648c.156-1.678.261-3.61.32-5.905a.6.6,0,0,1,.612-.581.6.6,0,0,1,.581.611c-.06,2.322-.166,4.28-.324,5.985A.6.6,0,0,1,192.982,9701.386Zm.384-11.9a.6.6,0,0,1-.6-.595c0-1.521-.016-3.142-.036-4.875,0-.36-.011-.717-.021-1.072a.6.6,0,0,1,.58-.614.62.62,0,0,1,.613.58c.011.361.018.728.021,1.094.02,1.738.033,3.361.036,4.886a.594.594,0,0,1-.6.6Zm-.483-11.908a.6.6,0,0,1-.592-.527c-.225-1.943-.539-3.906-.935-5.836a.6.6,0,1,1,1.169-.239c.4,1.962.723,3.96.952,5.938a.6.6,0,0,1-.525.662Zm-2.393-11.668a.6.6,0,0,1-.571-.427c-.559-1.879-1.206-3.761-1.925-5.592a.6.6,0,1,1,1.112-.436c.729,1.863,1.388,3.776,1.957,5.688a.6.6,0,0,1-.4.742A.649.649,0,0,1,190.491,9665.906Zm-4.346-11.1a.6.6,0,0,1-.536-.333c-.865-1.763-1.815-3.511-2.827-5.2a.6.6,0,0,1,1.023-.613c1.028,1.715,1.994,3.492,2.876,5.283a.6.6,0,0,1-.273.8A.616.616,0,0,1,186.144,9654.81Zm-6.136-10.221a.6.6,0,0,1-.482-.247,44.834,44.834,0,0,0-3.718-4.567.6.6,0,0,1,.853-.834,44.9,44.9,0,0,1,3.829,4.7.6.6,0,0,1-.482.948Z" transform="translate(-82.616 -9560.98)" fill="#4d4d4d"/>
            <path id="Trazado_111938" data-name="Trazado 111938" d="M156.7,9721.45a.6.6,0,0,1-.219-1.151l34.47-13.606a41.165,41.165,0,0,1,6.04-1.861l17.431-3.926c.147-.035,15.062-3.415,25.935-1.9,10.78,1.506,25.271,4.3,25.415,4.328a.6.6,0,0,1,.472.7.608.608,0,0,1-.7.473c-.147-.028-14.606-2.817-25.355-4.319-10.658-1.489-25.358,1.844-25.5,1.878L197.251,9706a40.048,40.048,0,0,0-5.865,1.807l-34.47,13.606A.573.573,0,0,1,156.7,9721.45Z" transform="translate(-86.381 -9549.446)" fill="#4d4d4d"/>
            <path id="Trazado_111939" data-name="Trazado 111939" d="M176.145,9709.958l-4.8-3.089.4-1.7-1.672-1.142s-3.422,2.785-3.146,5.029l1.023,1.113,1.868-1.27,5.389,2.369,1.2.145.484-.64Z" transform="translate(-84.298 -9548.403)" fill="#666"/>
            <path id="Trazado_111940" data-name="Trazado 111940" d="M176.661,9711.671l-4.8,3.09.4,1.7-1.672,1.142s-3.422-2.785-3.145-5.029l1.022-1.115,1.869,1.271,5.389-2.371,1.2-.145.483.641Z" transform="translate(-84.198 -9547.209)" fill="#666"/>
          </g>
        </g>
      </g>
    </g>
    <g id="Grupo_57044" data-name="Grupo 57044" transform="translate(468.961 9562.261)">
      <rect id="Rectángulo_10576" data-name="Rectángulo 10576" width="247.808" height="394.282" rx="15.431" fill="#fff"/>
      <g id="Grupo_57043" data-name="Grupo 57043">
        <g id="Grupo_57042" data-name="Grupo 57042" clip-path="url(#clip-path-2)">
          <g id="Grupo_57041" data-name="Grupo 57041" transform="translate(42.128 15.916)">
            <g id="Grupo_57032" data-name="Grupo 57032" transform="translate(0 24.589)">
              <path id="Trazado_111941" data-name="Trazado 111941" d="M588.01,9666.615s-14.482-6.248-19.934-9.893c0,0-5.3-2.557-5.52-14.117s.667-19.562,2.445-25.01l2.223-8.447s-6.448-10-24.454-12.338c0,0-12.116-1.111-14.895,1.777,0,0-7.336,27.455-17.341,39.684,0,0-2.112,8.113-24.343,12.672l-26.232,5.668s-12.115,2.555-14,12.449c0,0-7.336,7.891-3.335,37.236l1.112,6,12.893,66.469,18.785,74.475.779,2.668v7.447s-20.9,29.9-23.342,52.131-1.9,122.328-1.9,122.328,87.25,10.521,138.37,3.506l-1.3-117.162a100.072,100.072,0,0,0-8.892-39.35l-9.56-18.008s-1.667-1.332-1.333-13.561l7.891-41.238,9.449-29.678,7.113-13.117s9.264-12.078,8.078-22.156l-3.409-11.857s-.445-15.562.148-21.342l4.3-15.412,1.483-13.932s1.038-6.373-3.261-9.93A107.831,107.831,0,0,0,588.01,9666.615Z" transform="translate(-440.971 -9596.149)" fill="#fff"/>
              <path id="Trazado_111942" data-name="Trazado 111942" d="M546.419,10044.235c-45.811,0-94.8-5.822-95.456-5.9l-.392-.047,0-.4c0-1-.513-100.376,1.907-122.377,2.353-21.39,21.912-50.149,23.339-52.224v-7.243l-.76-2.605-18.789-74.489-12.9-66.5-1.112-6.006c-3.8-27.844,2.487-36.479,3.359-37.521,2-9.97,14.205-12.656,14.329-12.684l26.23-5.668c21.6-4.427,23.983-12.271,24.006-12.35l.086-.168c9.829-12.013,17.181-39.241,17.254-39.515l.11-.2c2.9-3.012,14.754-1.96,15.258-1.913,18.022,2.336,24.521,12.125,24.789,12.541l.106.165-2.273,8.639c-1.851,5.674-2.643,13.807-2.43,24.888s5.219,13.7,5.271,13.723c5.407,3.611,19.769,9.823,19.913,9.885l.045.021a109.63,109.63,0,0,1,12.068,8.011c4.445,3.678,3.46,10.075,3.416,10.347l-1.479,13.906L598,9714.049c-.552,5.438-.162,20.118-.132,21.152l3.392,11.8c1.208,10.214-7.769,22.054-8.152,22.553l-7.075,13.058-9.415,29.6-7.879,41.187c-.305,11.4,1.139,13.085,1.2,13.151l.089.117,9.558,18.007a101.493,101.493,0,0,1,8.945,39.569l1.307,117.542-.391.054C576.753,10043.583,561.763,10044.235,546.419,10044.235Zm-94.958-6.744c6.412.75,88.689,10.1,137.473,3.516l-1.3-116.768a100.509,100.509,0,0,0-8.852-39.17l-9.517-17.925c-.433-.481-1.715-2.851-1.417-13.841l7.9-41.309,9.459-29.73,7.147-13.2c.131-.178,9.178-12.111,8.028-21.89l-3.414-11.9c0-.157-.439-15.658.15-21.4l4.313-15.487,1.468-13.86c.013-.084.945-6.188-3.1-9.537a107.664,107.664,0,0,0-11.921-7.909c-.867-.375-14.617-6.335-19.981-9.923-.172-.077-5.495-2.778-5.719-14.479-.216-11.182.592-19.411,2.466-25.156l2.162-8.224c-.917-1.271-7.688-9.862-24.025-11.98-3.258-.3-12.15-.591-14.438,1.567-.54,1.975-7.749,27.879-17.337,39.665-.33,1.009-3.476,8.553-24.657,12.895l-26.228,5.668c-.119.025-11.85,2.616-13.66,12.1l-.024.125-.087.094c-.07.08-7.134,8.178-3.22,36.874l1.109,5.981,12.892,66.467,18.779,74.448.792,2.778v7.588l-.08.115c-.209.3-20.859,30.063-23.264,51.925C451.027,9936.857,451.428,10030.577,451.461,10037.491Z" transform="translate(-441.044 -9596.222)" fill="#999"/>
            </g>
            <ellipse id="Elipse_4448" data-name="Elipse 4448" cx="3.001" cy="4.502" rx="3.001" ry="4.502" transform="translate(10.208 116.841)" fill="#999"/>
            <path id="Trazado_111943" data-name="Trazado 111943" d="M577.044,9734.951l-5.572-21.083c-4.634-14.786-5.428-23.3-6.631-36.179-.156-1.666-.317-3.406-.5-5.241-1.511-15.555-6.982-19.761-7.037-19.8l.527-.724c.237.174,5.843,4.414,7.4,20.437.18,1.837.341,3.577.5,5.246,1.2,12.825,1.988,21.3,6.6,36.014l5.577,21.1Z" transform="translate(-418.64 -9560.898)" fill="#999"/>
            <path id="Trazado_111944" data-name="Trazado 111944" d="M524.25,9820.555c-1.623,0-3.307-.013-5.062-.041-34.721-.551-49.3-8.2-49.447-8.278l.425-.788c.142.076,14.571,7.626,49.037,8.172s42.908-4.656,42.989-4.709l.487.752C562.355,9815.871,554.764,9820.555,524.25,9820.555Z" transform="translate(-435.514 -9530.156)" fill="#999"/>
            <path id="Trazado_111945" data-name="Trazado 111945" d="M525.165,9829.658q-2.961,0-6.2-.107c-32.514-1.1-47.943-8.752-48.1-8.83l.406-.8c.15.076,15.431,7.639,47.72,8.732,32.254,1.112,42.851-6.719,42.953-6.8l.543.709C562.086,9822.877,552.892,9829.658,525.165,9829.658Z" transform="translate(-435.297 -9528.523)" fill="#999"/>
            <path id="Trazado_111946" data-name="Trazado 111946" d="M536.252,9656.9a31.632,31.632,0,0,1-4.325-.311c-18.269-2.51-32.083-24.021-32.22-24.238l.755-.479c.136.213,13.733,21.377,31.585,23.832,17.045,2.348,20.776-9.48,20.927-9.984l.858.254C553.8,9646.1,550.423,9656.9,536.252,9656.9Z" transform="translate(-429.74 -9564.762)" fill="#999"/>
            <path id="Trazado_111947" data-name="Trazado 111947" d="M548.525,9617.454c-19.111,0-36.8-11.5-36.984-11.622l.491-.748c.192.126,19.335,12.536,39.133,11.4l.054.894Q549.868,9617.454,548.525,9617.454Z" transform="translate(-427.459 -9569.925)" fill="#999"/>
            <path id="Trazado_111948" data-name="Trazado 111948" d="M547.008,9610.562c-16.922,0-32.916-10.9-33.1-11.028l.508-.736c.2.137,20.22,13.789,38.94,10.3l.162.882A35.71,35.71,0,0,1,547.008,9610.562Z" transform="translate(-427.002 -9571.137)" fill="#999"/>
            <path id="Trazado_111949" data-name="Trazado 111949" d="M521.514,10034.487l-.1-104.639c.732-16.544-2.778-52.946-2.812-53.312l-.892-25.222-1.333-68.331c.017-.312,1.659-27.778,4.009-40.845,2.309-12.847-7.669-26.045-7.771-26.177-.18-.366-13.033-28.36-19.781-49.042-6.641-20.354-17.2-22.8-17.3-22.821l.18-.876c.452.094,11.151,2.516,17.972,23.42,6.732,20.633,19.564,48.579,19.693,48.859.052.05,10.267,13.563,7.889,26.795-2.34,13.014-3.98,40.428-4,40.705l1.335,68.288.89,25.187c.033.339,3.549,36.8,2.815,53.392l.1,104.618Z" transform="translate(-434.399 -9562.575)" fill="#999"/>
            <path id="Trazado_111950" data-name="Trazado 111950" d="M540.956,10039.969l-.895-.026c.039-1.34,3.812-134.267-2.539-154.856-6.4-20.737-4.486-47.69-4.466-47.961l7.562-62.267c.026-.353,2.847-37.274,1.212-54.815-.525-5.631-1.713-12.616-2.971-20.013-2.7-15.876-6.06-35.63-4.69-52.981l3.386-31.581.89.1-3.385,31.567c-1.361,17.229,1.99,36.924,4.68,52.749,1.261,7.414,2.452,14.416,2.979,20.079,1.644,17.619-1.183,54.616-1.212,54.988l-7.562,62.266c-.018.248-1.917,27.036,4.431,47.61C544.773,9905.553,541.115,10034.489,540.956,10039.969Z" transform="translate(-423.367 -9567.924)" fill="#999"/>
            <path id="Trazado_111951" data-name="Trazado 111951" d="M470.374,9735.922l-3.8-12.414.364-.16c.341-.152,34.466-15.062,62.837-10.2,28.231,4.832,62.222,9.289,62.562,9.332l3.79.42.069.311a20.933,20.933,0,0,1-1.44,11.953l-.141.322-35.873-6.34c-.384-.078-37.281-7.5-49.261-4.014-12.091,3.518-38.425,10.6-38.689,10.674Zm-2.711-11.912,3.315,10.824c3.429-.924,27.01-7.285,38.255-10.557,12.2-3.543,48.153,3.686,49.676,3.994l35.166,6.217a20.7,20.7,0,0,0,1.306-10.768l-3.151-.348c-.349-.045-34.358-4.5-62.607-9.34C503.094,9709.494,471.406,9722.422,467.663,9724.01Z" transform="translate(-436.125 -9549.287)" fill="#999"/>
            <path id="Trazado_111952" data-name="Trazado 111952" d="M516.712,9829.519l-3.345-3.347,2.6-3.57-3.262-3.542.657-.605,3.761,4.083-2.585,3.544,2.8,2.8Z" transform="translate(-427.234 -9528.807)" fill="#999"/>
            <path id="Trazado_111953" data-name="Trazado 111953" d="M520.756,9829.519l-3.345-3.347,2.6-3.57-3.262-3.542.657-.605,3.761,4.083-2.583,3.544,2.8,2.8Z" transform="translate(-426.455 -9528.807)" fill="#999"/>
            <path id="Trazado_111954" data-name="Trazado 111954" d="M525.109,9829.519l-3.345-3.347,2.6-3.57-3.262-3.542.657-.605,3.761,4.083-2.585,3.544,2.8,2.8Z" transform="translate(-425.616 -9528.807)" fill="#999"/>
            <path id="Trazado_111955" data-name="Trazado 111955" d="M529.23,9829.519l-3.345-3.347,2.6-3.57-3.263-3.542.657-.605,3.761,4.083-2.585,3.544,2.8,2.8Z" transform="translate(-424.822 -9528.807)" fill="#999"/>
            <path id="Trazado_111956" data-name="Trazado 111956" d="M533.2,9828.84l-3.345-3.347,2.6-3.57-3.262-3.543.657-.605,3.761,4.084-2.583,3.544,2.8,2.8Z" transform="translate(-424.057 -9528.938)" fill="#999"/>
            <path id="Trazado_111957" data-name="Trazado 111957" d="M494.824,9828.464l-3.02-3.562,2.932-3.169-2.894-3.712.706-.55,3.363,4.311L493,9824.928l2.508,2.958Z" transform="translate(-431.263 -9528.996)" fill="#999"/>
            <path id="Trazado_111958" data-name="Trazado 111958" d="M498.848,9828.865l-3.02-3.561,2.933-3.171-2.9-3.712.706-.55,3.361,4.311-2.91,3.147,2.508,2.957Z" transform="translate(-430.487 -9528.919)" fill="#999"/>
            <path id="Trazado_111959" data-name="Trazado 111959" d="M503.181,9829.3l-3.021-3.562,2.933-3.17-2.894-3.712.706-.55,3.363,4.311-2.912,3.147,2.509,2.958Z" transform="translate(-429.652 -9528.836)" fill="#999"/>
            <path id="Trazado_111960" data-name="Trazado 111960" d="M482.249,9825.818l-3.021-3.561,2.933-3.171-2.894-3.712.706-.55,3.363,4.311-2.912,3.147,2.509,2.957Z" transform="translate(-433.686 -9529.506)" fill="#999"/>
            <path id="Trazado_111961" data-name="Trazado 111961" d="M478.312,9824.688l-3.021-3.562,2.933-3.17-2.894-3.712.706-.55L479.4,9818l-2.912,3.147,2.509,2.957Z" transform="translate(-434.445 -9529.724)" fill="#999"/>
            <path id="Trazado_111962" data-name="Trazado 111962" d="M475.062,9823.579l-3.021-3.561,2.933-3.171-2.894-3.712.706-.55,3.363,4.311-2.912,3.147,2.509,2.957Z" transform="translate(-435.071 -9529.938)" fill="#999"/>
            <path id="Trazado_111963" data-name="Trazado 111963" d="M486.273,9826.9l-3.021-3.562,2.933-3.168-2.894-3.713.706-.549,3.363,4.311-2.912,3.145,2.509,2.959Z" transform="translate(-432.911 -9529.299)" fill="#999"/>
            <path id="Trazado_111964" data-name="Trazado 111964" d="M490.606,9827.329l-3.021-3.561,2.933-3.171-2.9-3.712.706-.55,3.362,4.311-2.91,3.147,2.509,2.957Z" transform="translate(-432.076 -9529.215)" fill="#999"/>
            <path id="Trazado_111965" data-name="Trazado 111965" d="M507.281,9829.708l-3.021-3.562,2.932-3.169-2.894-3.713.706-.549,3.363,4.311-2.911,3.146,2.509,2.959Z" transform="translate(-428.862 -9528.757)" fill="#999"/>
            <path id="Trazado_111966" data-name="Trazado 111966" d="M511.3,9829.45l-3.021-3.562,2.933-3.17-2.894-3.711.706-.55,3.363,4.31-2.912,3.146,2.509,2.959Z" transform="translate(-428.089 -9528.807)" fill="#999"/>
            <path id="Trazado_111967" data-name="Trazado 111967" d="M544.528,9825.157l-3.071-2.729,2.33-2.841-2.843-2.746.622-.643,3.437,3.318-2.309,2.813,2.428,2.16Z" transform="translate(-421.793 -9529.241)" fill="#999"/>
            <path id="Trazado_111968" data-name="Trazado 111968" d="M541.251,9826.166l-3.071-2.73,2.331-2.842-2.844-2.744.622-.643,3.436,3.316-2.307,2.814,2.429,2.158Z" transform="translate(-422.425 -9529.048)" fill="#999"/>
            <path id="Trazado_111969" data-name="Trazado 111969" d="M538.223,9827.226l-3.392-2.925,2.589-3.064-3.18-2.978.61-.652,3.8,3.558-2.566,3.037,2.721,2.347Z" transform="translate(-423.085 -9528.971)" fill="#999"/>
            <path id="Trazado_111970" data-name="Trazado 111970" d="M547.175,9824.282l-2.71-2.623,2.056-2.729-2.509-2.637.648-.617,3.033,3.187-2.037,2.7,2.142,2.073Z" transform="translate(-421.202 -9529.342)" fill="#999"/>
            <path id="Trazado_111971" data-name="Trazado 111971" d="M467.571,10019.434l-.895-.027c.027-.865,2.722-86.849,3.722-123.916.967-35.747,12.019-47.613,13.363-48.926l1.277-8.072-29.481-136.064.873-.188,29.518,136.229-.013.083-1.339,8.458-.115.106c-.123.11-12.194,11.588-13.189,48.4C470.293,9932.583,467.6,10018.57,467.571,10019.434Z" transform="translate(-438.248 -9551.202)" fill="#999"/>
            <g id="Grupo_57033" data-name="Grupo 57033" transform="translate(16.059 151.036)">
              <rect id="Rectángulo_10577" data-name="Rectángulo 10577" width="0.894" height="1.193" transform="translate(0 0.19) rotate(-12.232)" fill="#999"/>
              <path id="Trazado_111972" data-name="Trazado 111972" d="M466.566,10014.519l-.895-.028.073-2.379.895.029Zm.147-4.75-.895-.028.073-2.374.895.027Zm.146-4.747-.895-.027.074-2.374.895.029Zm.146-4.742-.895-.028.074-2.371.895.027Zm.147-4.744-.895-.028.073-2.37.895.028Zm.144-4.743-.895-.024.073-2.371.895.027Zm.144-4.741-.895-.027.073-2.369.895.028Zm.146-4.738-.895-.026.073-2.373.895.028Zm.143-4.741-.895-.025.072-2.371.895.027Zm.144-4.739-.895-.025.072-2.371.895.027Zm.143-4.739-.895-.025.072-2.372.895.028Zm.144-4.738-.895-.027.07-2.369.895.024Zm.142-4.74-.895-.028.072-2.369.895.025Zm.143-4.739-.895-.027.072-2.369.895.026Zm.142-4.747-.895-.027.072-2.373.895.025Zm.142-4.745-.895-.024.07-2.366.895.025Zm.141-4.728-.895-.025.069-2.37.895.025Zm.14-4.74-.895-.027.069-2.369.895.026Zm.141-4.742-.895-.024.069-2.37.895.025Zm.138-4.738-.895-.025.069-2.37.895.024Zm.138-4.739-.895-.025.069-2.37.895.025Zm.136-4.741-.895-.026.068-2.37.895.025Zm.137-4.741-.895-.026.068-2.369.895.025Zm.134-4.741-.895-.025.067-2.371.895.026Zm.132-4.742-.895-.025.066-2.369.895.022Zm.131-4.742-.895-.023.069-2.372.895.03Zm.168-4.725-.895-.044q.063-1.2.135-2.371l.892.057Q470.323,9890.064,470.264,9891.263Zm.3-4.712-.892-.073q.1-1.2.209-2.365l.89.085Q470.659,9885.354,470.564,9886.551Zm.452-4.7-.89-.1q.138-1.2.29-2.358l.889.116Q471.152,9880.655,471.016,9881.851Zm.619-4.678-.885-.137q.183-1.2.382-2.345l.88.151C471.882,9875.6,471.754,9876.377,471.635,9877.173Zm.805-4.647-.879-.173q.234-1.2.484-2.328l.873.193Q472.671,9871.34,472.44,9872.525Zm1.014-4.6-.868-.214q.293-1.188.6-2.3l.861.237Q473.743,9866.746,473.454,9867.922Zm1.25-4.539-.855-.263c.242-.789.488-1.542.736-2.266l.846.289Q475.063,9862.217,474.7,9863.383Zm1.527-4.45-.836-.321q.447-1.165.893-2.209l.823.35Q476.672,9857.783,476.23,9858.933Zm1.848-4.32-.806-.388c.369-.769.732-1.479,1.084-2.128l.787.426Q478.622,9853.48,478.078,9854.612Zm2.239-4.115-.76-.473c.441-.709.893-1.38,1.342-1.991l.722.527C481.185,9849.155,480.746,9849.806,480.316,9850.5Zm2.77-3.721-.646-.616c.06-.063.111-.115.151-.156l.293-1.849.883.14-.34,2.151-.117.106C483.3,9846.559,483.226,9846.632,483.086,9846.776Zm1.052-4.821-.883-.139.371-2.34.883.139Zm-.4-4.647-.5-2.315.873-.187.5,2.314Zm-1-4.63-.5-2.314.873-.189.5,2.315Zm-1-4.63-.5-2.315.873-.188.5,2.315Zm-1-4.631-.5-2.314.874-.188.5,2.315Zm-1-4.63-.5-2.314.874-.188.5,2.313Zm-1-4.63-.5-2.316.874-.187.5,2.315Zm-1-4.63-.5-2.315.873-.188.5,2.315Zm-1-4.631-.5-2.314.873-.19.5,2.315Zm-1-4.63-.5-2.314.873-.189.5,2.314Zm-1-4.632-.5-2.314.874-.188.5,2.315Zm-1-4.628-.5-2.316.874-.188.5,2.314Zm-1-4.632-.5-2.315.873-.187.5,2.314Zm-1-4.63-.5-2.315.873-.188.5,2.315Zm-1-4.63-.5-2.315.873-.188.5,2.315Zm-1-4.63-.5-2.315.874-.188.5,2.315Zm-1-4.632-.5-2.313.874-.188.5,2.314Zm-1-4.629-.5-2.315.873-.188.5,2.314Zm-1-4.63-.5-2.316.873-.187.5,2.315Zm-1-4.631-.5-2.314.873-.189.5,2.315Zm-1-4.63-.5-2.314.874-.188.5,2.314Zm-1-4.63-.5-2.315.874-.188.5,2.315Zm-1-4.631-.5-2.314.874-.189.5,2.316Zm-1-4.63-.5-2.314.873-.189.5,2.313Zm-1-4.63-.5-2.317.873-.187.5,2.315Zm-1-4.63-.5-2.316.873-.189.5,2.316Zm-1-4.632-.5-2.314.874-.188.5,2.314Zm-1-4.63-.5-2.314.874-.188.5,2.314Zm-1-4.63-.5-2.315.873-.188.5,2.315Zm-1-4.63-.5-2.315.873-.188.5,2.314Z" transform="translate(-454.387 -9701.676)" fill="#999"/>
              <rect id="Rectángulo_10578" data-name="Rectángulo 10578" width="1.187" height="0.895" transform="matrix(0.029, -1, 1, 0.029, 11.179, 316.261)" fill="#999"/>
            </g>
            <g id="Grupo_57034" data-name="Grupo 57034" transform="translate(18.575 151.034)">
              <rect id="Rectángulo_10579" data-name="Rectángulo 10579" width="0.894" height="1.192" transform="translate(0 0.189) rotate(-12.189)" fill="#999"/>
              <path id="Trazado_111973" data-name="Trazado 111973" d="M468.783,10015.425l-.895-.029.07-2.382.895.025Zm.141-4.766-.895-.025.07-2.381.895.025Zm.138-4.762-.895-.024.07-2.379.895.024Zm.138-4.755-.895-.028.069-2.377.895.025Zm.14-4.759-.895-.026.069-2.376.895.025Zm.14-4.754-.895-.026.069-2.377.895.024Zm.137-4.756-.895-.025.069-2.377.895.026Zm.138-4.752-.895-.027.069-2.377.895.025Zm.136-4.754-.895-.025.069-2.377.895.024Zm.14-4.756-.895-.025.069-2.377.895.025Zm.137-4.751-.895-.026.069-2.376.895.025Zm.137-4.756-.895-.025.069-2.376.895.024Zm.137-4.751-.895-.025.066-2.31.9-.042Zm.136-4.754-.895-.027.067-2.309.9-.042Zm.137-4.761-.895-.025.069-2.381.895.025Zm.137-4.759-.895-.024.067-2.306.448-.057.445.081Zm.136-4.742-.895-.025.066-2.309.448-.056.445.08Zm.135-4.756-.895-.025.068-2.376.895.025Zm.136-4.751-.895-.025.068-2.378.895.026Zm.136-4.753-.895-.025.066-2.378.895.026Zm.134-4.756-.895-.024.068-2.377.895.025Zm.134-4.751-.895-.025.068-2.379.895.027Zm.132-4.757-.895-.025.067-2.376.895.025Zm.132-4.755-.895-.024.067-2.377.895.025Zm.131-4.754-.895-.026.066-2.378.895.024Zm.131-4.755-.895-.025.067-2.38.895.028Zm.156-4.743-.895-.042q.059-1.207.128-2.377l.892.054C472.425,9890.219,472.384,9891.009,472.346,9891.809Zm.286-4.729-.892-.066q.091-1.207.2-2.374l.89.083Q472.725,9885.879,472.632,9887.079Zm.435-4.712-.89-.1q.134-1.208.281-2.367l.887.114Q473.2,9881.168,473.068,9882.367Zm.6-4.7-.885-.13q.179-1.206.371-2.354l.883.148C473.91,9876.1,473.786,9876.876,473.669,9877.671Zm.786-4.663-.878-.168q.229-1.2.474-2.337l.874.189Q474.683,9871.819,474.455,9873.008Zm.995-4.622-.87-.207q.286-1.2.589-2.314l.863.232C475.833,9866.835,475.639,9867.6,475.449,9868.386Zm1.229-4.559-.858-.259c.238-.791.481-1.547.724-2.276l.848.284Q477.031,9862.656,476.678,9863.827Zm1.5-4.474-.838-.312q.438-1.172.879-2.226l.825.345Q478.611,9858.2,478.179,9859.354ZM480,9855l-.81-.381c.361-.771.719-1.483,1.068-2.142l.791.417Q480.534,9853.869,480,9855Zm2.2-4.149-.765-.464c.433-.712.875-1.39,1.318-2.013l.729.517C483.056,9849.5,482.626,9850.162,482.2,9850.855Zm2.719-3.787-.668-.6c.2-.221.351-.377.446-.472l.228-1.442.883.14-.276,1.746-.116.105C485.411,9846.559,485.231,9846.723,484.923,9847.068Zm1.261-4.719-.883-.139.371-2.348.883.141Zm-.258-4.663-.5-2.323.874-.188.5,2.323Zm-1.007-4.645-.5-2.322.873-.187.5,2.321Zm-1.005-4.644-.5-2.321.873-.188.5,2.321Zm-1.007-4.643-.5-2.322.873-.189.5,2.322Zm-1.005-4.644-.5-2.321.874-.189.5,2.321Zm-1.007-4.645-.5-2.321.873-.188.5,2.322Zm-1.005-4.643-.5-2.321.873-.189.5,2.322Zm-1.007-4.645-.5-2.32.873-.188.5,2.321Zm-1.007-4.642-.5-2.321.874-.189.5,2.321Zm-1.007-4.645-.5-2.321.874-.188.5,2.321Zm-1-4.643-.5-2.323.873-.187.5,2.321Zm-1.007-4.644-.5-2.321.873-.188.5,2.321Zm-1.007-4.643-.5-2.322.874-.189.5,2.323Zm-1.007-4.645-.5-2.321.874-.189.5,2.322Zm-1.005-4.645-.5-2.32.873-.188.5,2.321Zm-1.005-4.642-.5-2.321.873-.188.5,2.321Zm-1.007-4.644-.5-2.321.874-.189.5,2.321Zm-1.007-4.643-.5-2.324.874-.187.5,2.322Zm-1.005-4.645-.5-2.321.873-.188.5,2.321Zm-1.007-4.643-.5-2.322.873-.188.5,2.321Zm-1.007-4.644-.5-2.321.874-.189.5,2.321Zm-1.005-4.646-.5-2.32.874-.188.5,2.321Zm-1.005-4.642-.5-2.322.873-.189.5,2.323Zm-1.007-4.644-.5-2.321.873-.188.5,2.321Zm-1.007-4.643-.5-2.324.874-.187.5,2.323Zm-1.007-4.645-.5-2.321.874-.188.5,2.321Zm-1-4.644-.5-2.322.873-.187.5,2.32Zm-1.007-4.643-.5-2.321.873-.188.5,2.321Zm-1.007-4.644-.5-2.321.874-.189.5,2.321Z" transform="translate(-456.496 -9701.673)" fill="#999"/>
              <rect id="Rectángulo_10580" data-name="Rectángulo 10580" width="1.187" height="0.895" transform="matrix(0.029, -1, 1, 0.029, 11.293, 317.172)" fill="#999"/>
            </g>
            <path id="Trazado_111974" data-name="Trazado 111974" d="M455.359,9713.521c-7.889,0-14.308-13.931-14.308-31.051s6.419-31.053,14.308-31.053,14.309,13.931,14.309,31.053S463.248,9713.521,455.359,9713.521Zm0-61.209c-7.4,0-13.413,13.528-13.413,30.158s6.017,30.156,13.413,30.156,13.414-13.529,13.414-30.156S462.755,9652.312,455.359,9652.312Z" transform="translate(-441.043 -9560.996)" fill="#999"/>
            <path id="Trazado_111975" data-name="Trazado 111975" d="M540.533,10040.809h-.018a.6.6,0,0,1-.579-.613c.039-1.34,3.812-134.243-2.532-154.809-6.406-20.764-4.493-47.745-4.473-48.015l7.563-62.275c.025-.345,2.846-37.253,1.211-54.783-.524-5.625-1.712-12.608-2.969-20-2.7-15.883-6.064-35.649-4.691-53.02l3.777-32.63a.605.605,0,0,1,.661-.523.6.6,0,0,1,.525.661l-3.776,32.608c-1.358,17.2,1.989,36.886,4.679,52.7,1.262,7.416,2.453,14.42,2.982,20.09,1.644,17.632-1.184,54.641-1.213,55.014l-7.562,62.272c-.018.238-1.913,27,4.425,47.546,6.4,20.755,2.745,149.716,2.586,155.2A.6.6,0,0,1,540.533,10040.809Z" transform="translate(-423.392 -9568.181)" fill="#4d4d4d"/>
            <g id="Grupo_57035" data-name="Grupo 57035" transform="translate(119.249 173.646)">
              <path id="Trazado_111976" data-name="Trazado 111976" d="M581.066,9727.535s-32.674-4.567-39.969-5.971" transform="translate(-541.012 -9721.124)" fill="#fff"/>
              <path id="Trazado_111977" data-name="Trazado 111977" d="M581.019,9728.05c-.328-.046-32.771-4.586-39.993-5.976l.169-.878c7.2,1.385,39.621,5.921,39.946,5.968Z" transform="translate(-541.026 -9721.196)" fill="#999"/>
            </g>
            <g id="Grupo_57039" data-name="Grupo 57039" transform="translate(96.153)">
              <g id="Grupo_57036" data-name="Grupo 57036" transform="translate(1.714)">
                <path id="Trazado_111978" data-name="Trazado 111978" d="M529.219,9595.707v12a6.049,6.049,0,0,0,5.52.407l.112-12.412s7.332-1.667,7.261-9.56c0,0,1.038-10.6-9.634-10.152s-8.892,12.746-8.892,12.746S525.513,9594.966,529.219,9595.707Z" transform="translate(-523.027 -9575.533)" fill="#fff"/>
                <path id="Trazado_111979" data-name="Trazado 111979" d="M532.432,9609.121a6.315,6.315,0,0,1-3.4-.972l-.191-.133V9596.13c-3.683-1.076-5.533-6.927-5.613-7.184-.052-.323-.877-6.328,2.342-10.207a9.1,9.1,0,0,1,6.959-3.119c3.268-.141,5.841.731,7.592,2.584,2.952,3.12,2.525,7.859,2.506,8.059a10.018,10.018,0,0,1-7.264,9.854l-.111,12.376-.274.113A6.677,6.677,0,0,1,532.432,9609.121Zm-2.693-1.586a5.577,5.577,0,0,0,4.628.348l.113-12.46.344-.079a9.107,9.107,0,0,0,6.915-9.12c.007-.093.4-4.59-2.267-7.409-1.564-1.651-3.883-2.435-6.9-2.3a8.245,8.245,0,0,0-6.306,2.793c-2.965,3.569-2.171,9.384-2.162,9.442h0c.006,0,1.88,5.911,5.277,6.59l.36.072Z" transform="translate(-523.099 -9575.605)" fill="#999"/>
              </g>
              <g id="Grupo_57037" data-name="Grupo 57037" transform="translate(0 4.962)">
                <rect id="Rectángulo_10581" data-name="Rectángulo 10581" width="21.796" height="3.738" rx="1.209" transform="translate(0.597 0.598)" fill="#fff"/>
                <path id="Trazado_111980" data-name="Trazado 111980" d="M542.614,9584.7H523.7a2.041,2.041,0,0,1-2.038-2.037v-.856a2.041,2.041,0,0,1,2.038-2.038h18.914a2.041,2.041,0,0,1,2.038,2.038v.856A2.041,2.041,0,0,1,542.614,9584.7Zm-18.914-3.739a.848.848,0,0,0-.846.846v.856a.846.846,0,0,0,.846.844h18.914a.846.846,0,0,0,.846-.844v-.856a.848.848,0,0,0-.846-.846Z" transform="translate(-521.662 -9579.766)" fill="#999"/>
              </g>
              <g id="Grupo_57038" data-name="Grupo 57038" transform="translate(0 11.978)">
                <rect id="Rectángulo_10582" data-name="Rectángulo 10582" width="21.796" height="3.738" rx="1.209" transform="translate(0.597 0.595)" fill="#fff"/>
                <path id="Trazado_111981" data-name="Trazado 111981" d="M542.614,9590.578H523.7a2.04,2.04,0,0,1-2.038-2.037v-.855a2.04,2.04,0,0,1,2.038-2.037h18.914a2.04,2.04,0,0,1,2.038,2.037v.855A2.04,2.04,0,0,1,542.614,9590.578Zm-18.914-3.736a.847.847,0,0,0-.846.844v.855a.848.848,0,0,0,.846.846h18.914a.848.848,0,0,0,.846-.846v-.855a.847.847,0,0,0-.846-.844Z" transform="translate(-521.662 -9585.648)" fill="#999"/>
              </g>
            </g>
            <g id="Grupo_57040" data-name="Grupo 57040" transform="translate(14.8 73.632)" opacity="0.71">
              <path id="Trazado_111982" data-name="Trazado 111982" d="M473.461,9701c-3.658,21.4-19.507,30.357-19.507,30.357l12.78,58.264,13.042,55.669.784,9.135a67.693,67.693,0,0,1-1.514,7.8s18.444,6.9,35.274,7.373c10.05.278,20.311.152,27.77-.015.835-.019-.235,3.341.526,3.341,6.876,0,10.852-3.128,11.136-3.713.844-1.733-4.375-6.909-4.861-12.986-.877-10.926,1.794-34.512,1.794-34.512l6.926-68.222s1.093-25.236-.145-37.8-1.929-16.446-1.929-16.446-23.146-21.226-30.4-28.615c-7.472-7.614-30.53-32.788-30.53-32.788l-28.761,6.111S479.052,9668.295,473.461,9701Z" transform="translate(-453.357 -9637.245)" fill="#ccc"/>
              <path id="Trazado_111983" data-name="Trazado 111983" d="M542.713,9873.614a.8.8,0,0,1-.594-.26c-.37-.4-.314-1.109-.24-2a9.233,9.233,0,0,0,.047-1.07c-10.288.228-19.547.231-27.525.009-16.736-.464-35.282-7.34-35.468-7.408a.6.6,0,0,1-.36-.735,66.333,66.333,0,0,0,1.485-7.643l-.778-9.068-13.029-55.582-12.783-58.274a.6.6,0,0,1,.289-.648,44.334,44.334,0,0,0,19.214-29.937h0c5.489-32.1-7.42-56.418-7.55-56.66a.59.59,0,0,1-.018-.534.6.6,0,0,1,.417-.335l28.762-6.111a.614.614,0,0,1,.563.182c.23.252,23.135,25.253,30.514,32.771,7.16,7.3,30.146,28.383,30.377,28.6a.594.594,0,0,1,.184.335c.029.159.708,4.05,1.935,16.491,1.229,12.463.16,37.634.149,37.886l-6.93,68.258c-.027.242-2.654,23.657-1.793,34.4.262,3.268,1.944,6.258,3.3,8.661,1.214,2.161,2.017,3.589,1.508,4.634C553.911,9870.542,549.5,9873.614,542.713,9873.614Zm-.519-4.532a.831.831,0,0,1,.612.263c.4.422.339,1.164.261,2.1-.021.283-.057.708-.048.972,6.432-.089,10.045-3,10.3-3.394.224-.463-.686-2.08-1.487-3.507-1.335-2.372-3.162-5.623-3.443-9.151-.872-10.857,1.768-34.39,1.795-34.625l6.926-68.215c.008-.217,1.073-25.3-.148-37.682-1.071-10.876-1.738-15.271-1.888-16.2-2.017-1.853-23.4-21.5-30.27-28.5-7-7.127-27.88-29.9-30.314-32.552l-27.67,5.88c2.081,4.258,12.358,27.261,7.321,56.723h0a45.85,45.85,0,0,1-19.423,30.543l12.689,57.851,13.042,55.66.8,9.22a.618.618,0,0,1,0,.133,74.275,74.275,0,0,1-1.378,7.351c3.107,1.106,19.587,6.729,34.562,7.146,8.032.224,17.362.219,27.741-.014Zm-68.636-167.989h0Z" transform="translate(-453.453 -9637.342)" fill="#4d4d4d"/>
            </g>
            <path id="Trazado_111984" data-name="Trazado 111984" d="M573.783,9724.762l6.426-.316.753,1.824,2.283-.051s1.311-4.8-.416-6.674l-1.667-.35-.88,2.389-6.5,1.361-1.2.656-.024.9Z" transform="translate(-415.699 -9547.936)" fill="#666"/>
            <path id="Trazado_111985" data-name="Trazado 111985" d="M513.046,9713.895l4.907-4.162,1.707.988,1.781-1.429s-1.881-4.6-4.393-5.044l-1.536.739.755,2.432-4.324,5.033-.551,1.249.531.733Z" transform="translate(-427.488 -9550.814)" fill="#666"/>
            <path id="Trazado_111986" data-name="Trazado 111986" d="M458.528,9647.272l-.438-6.419,1.809-.788-.094-2.281s-4.822-1.219-6.666.543l-.318,1.675,2.406.835,1.485,6.468.68,1.186.9.006Z" transform="translate(-438.775 -9563.701)" fill="#666"/>
            <path id="Trazado_111987" data-name="Trazado 111987" d="M500.264,9639.035l-3.807-5.187,1.107-1.633-1.3-1.878s-4.726,1.552-5.34,4.026l.627,1.586,2.478-.584,4.717,4.669,1.208.638.767-.479Z" transform="translate(-431.432 -9565.059)" fill="#666"/>
            <path id="Trazado_111988" data-name="Trazado 111988" d="M498.949,9640.219l5.41-3.483,1.564,1.2,1.951-1.183s-1.259-4.812-3.693-5.576l-1.62.529.429,2.509-4.946,4.424-.711,1.169.431.794Z" transform="translate(-430.197 -9564.896)" fill="#666"/>
            <path id="Trazado_111989" data-name="Trazado 111989" d="M536.321,9654.916l5.41-3.484,1.562,1.205,1.953-1.184s-1.261-4.812-3.693-5.576l-1.621.529.431,2.51-4.947,4.424-.71,1.168.431.795Z" transform="translate(-422.995 -9562.063)" fill="#666"/>
            <path id="Trazado_111990" data-name="Trazado 111990" d="M457.494,9647.363l-4.881-4.193.71-1.842-1.691-1.534s-4.253,2.579-4.293,5.129l.97,1.4,2.283-1.127,5.649,3.481,1.321.349.639-.64Z" transform="translate(-439.831 -9563.235)" fill="#666"/>
            <path id="Trazado_111991" data-name="Trazado 111991" d="M471.121,9723.514l4.908-4.162,1.707.988,1.78-1.43s-1.88-4.6-4.392-5.041l-1.537.736.756,2.432-4.325,5.033-.55,1.252.531.73Z" transform="translate(-435.567 -9548.962)" fill="#666"/>
            <path id="Trazado_111992" data-name="Trazado 111992" d="M457.356,9708.992l3-3.844-.8-1.26,1.026-1.392s3.547,1.279,3.96,3.167l-.509,1.185-1.865-.5-3.675,3.429-.929.456-.571-.379Z" transform="translate(-437.973 -9551.153)" fill="#666"/>
            <path id="Trazado_111993" data-name="Trazado 111993" d="M543.609,9701.606l4.2-1.5.866,1.06,1.505-.491s-.092-3.448-1.614-4.348l-1.178.1-.1,1.764-4.04,2.206-.664.677.166.605Z" transform="translate(-421.477 -9552.342)" fill="#666"/>
            <path id="Trazado_111994" data-name="Trazado 111994" d="M541.927,9709.076l4.2-1.5.866,1.063,1.505-.492s-.092-3.449-1.615-4.35l-1.177.1-.1,1.764-4.04,2.205-.664.678.166.6Z" transform="translate(-421.801 -9550.901)" fill="#666"/>
            <path id="Trazado_111995" data-name="Trazado 111995" d="M542.082,9713.9l3.851-.631.578,1.047,1.372-.187s.462-2.98-.707-3.993l-1.029-.1-.367,1.5-3.82,1.266-.677.478.048.546Z" transform="translate(-421.728 -9549.699)" fill="#666"/>
            <path id="Trazado_111996" data-name="Trazado 111996" d="M541.764,9720.389l3.621,1.456-.048,1.2,1.27.551s1.938-2.31,1.463-3.782l-.83-.616-1.09,1.094-3.924-.9-.827.057-.242.493Z" transform="translate(-421.752 -9547.935)" fill="#666"/>
            <path id="Trazado_111997" data-name="Trazado 111997" d="M541.969,9717.585l3.9-.059.417,1.122,1.385.017s.895-2.882-.113-4.055l-1-.247-.583,1.43-3.966.69-.74.374-.033.548Z" transform="translate(-421.737 -9548.865)" fill="#666"/>
            <path id="Trazado_111998" data-name="Trazado 111998" d="M541.563,9726.088l3.255,2.155-.287,1.161,1.133.8s2.364-1.874,2.195-3.412l-.689-.77-1.288.852-3.663-1.668-.822-.109-.336.433Z" transform="translate(-421.771 -9546.799)" fill="#666"/>
            <path id="Trazado_111999" data-name="Trazado 111999" d="M541.769,9730.464l3.647,1.391-.027,1.2,1.28.529s1.9-2.345,1.4-3.809l-.841-.6-1.071,1.112-3.94-.825-.825.072-.234.5Z" transform="translate(-421.752 -9546.013)" fill="#666"/>
            <path id="Trazado_112000" data-name="Trazado 112000" d="M540.9,9735.2l3.646,1.392-.026,1.2,1.28.527s1.9-2.345,1.4-3.807l-.841-.6-1.071,1.111-3.939-.825-.825.071-.233.5Z" transform="translate(-421.92 -9545.1)" fill="#666"/>
            <path id="Trazado_112001" data-name="Trazado 112001" d="M480.993,9821.109l-5.551-3.253-1.511,1.269-2-1.1s1.059-4.859,3.458-5.725l1.64.462-.324,2.524,5.127,4.215.757,1.137-.4.812Z" transform="translate(-435.092 -9529.993)" fill="#666"/>
            <path id="Trazado_112002" data-name="Trazado 112002" d="M535.648,9826.279l4.394,4.7-.906,1.752,1.512,1.711s4.51-2.1,4.827-4.63l-.81-1.5-2.392.872-5.235-4.077-1.276-.491-.7.565Z" transform="translate(-422.928 -9527.618)" fill="#666"/>
            <path id="Trazado_112003" data-name="Trazado 112003" d="M478.917,9821.58l-4.525,4.576-1.787-.837-1.648,1.579s2.276,4.422,4.816,4.642l1.466-.869-.965-2.356,3.868-5.393.439-1.294-.593-.682Z" transform="translate(-435.28 -9528.326)" fill="#666"/>
            <path id="Trazado_112004" data-name="Trazado 112004" d="M550.928,9712.085a.6.6,0,0,1-.416-.168s-1.62-1.574-4.3-4.2a.6.6,0,0,1,.834-.853c2.675,2.62,4.295,4.192,4.3,4.193a.6.6,0,0,1-.416,1.023Zm-8.567-8.384a.591.591,0,0,1-.417-.171c-1.318-1.295-2.748-2.7-4.258-4.2a.6.6,0,0,1,.839-.849c1.51,1.493,2.938,2.9,4.255,4.2a.6.6,0,0,1-.419,1.021Zm-8.5-8.4a.6.6,0,0,1-.42-.174c-1.378-1.368-2.8-2.781-4.235-4.22a.6.6,0,1,1,.843-.844c1.438,1.438,2.855,2.85,4.233,4.218a.6.6,0,0,1-.421,1.02Zm-8.455-8.452a.588.588,0,0,1-.422-.177c-1.4-1.411-2.81-2.834-4.207-4.248a.6.6,0,1,1,.848-.838c1.4,1.415,2.8,2.836,4.2,4.246a.6.6,0,0,1-.423,1.017Zm-8.39-8.515a.6.6,0,0,1-.427-.181c-1.423-1.459-2.816-2.9-4.161-4.295a.6.6,0,1,1,.859-.827c1.343,1.4,2.735,2.832,4.158,4.29a.6.6,0,0,1-.428,1.013Zm-8.282-8.619a.591.591,0,0,1-.434-.189c-1.465-1.551-2.833-3.023-4.074-4.386a.6.6,0,1,1,.88-.8c1.239,1.357,2.6,2.825,4.062,4.373a.6.6,0,0,1-.434,1.006Zm-8.027-8.865a.6.6,0,0,1-.456-.212c-.831-.985-1.505-1.832-2.006-2.515q-.837-1.146-1.659-2.251a.6.6,0,0,1,.958-.711q.823,1.11,1.664,2.256c.484.661,1.143,1.486,1.956,2.452a.6.6,0,0,1-.457.98Zm-7.225-9.507a.6.6,0,0,1-.476-.235c-1.3-1.718-2.527-3.307-3.631-4.728a.6.6,0,1,1,.942-.731c1.1,1.423,2.331,3.017,3.639,4.737a.6.6,0,0,1-.113.836A.6.6,0,0,1,493.481,9651.339Zm-7.32-9.425a.6.6,0,0,1-.466-.227c-1.163-1.463-1.862-2.323-1.926-2.4a.59.59,0,0,1-.143-.387.6.6,0,0,1,.6-.6c.307,0,.307,0,2.407,2.642a.6.6,0,0,1-.468.97Z" transform="translate(-432.839 -9563.523)" fill="#4d4d4d"/>
            <path id="Trazado_112005" data-name="Trazado 112005" d="M457.083,9738.061a.6.6,0,0,1-.308-1.108,33.158,33.158,0,0,0,4.61-3.609.6.6,0,1,1,.8.883,33.423,33.423,0,0,1-4.8,3.75A.58.58,0,0,1,457.083,9738.061Zm8.868-7.951a.6.6,0,0,1-.45-.988,55.2,55.2,0,0,0,3.623-4.655.6.6,0,0,1,.979.683,56.232,56.232,0,0,1-3.7,4.756A.6.6,0,0,1,465.95,9730.109Zm6.813-9.767a.6.6,0,0,1-.522-.887c.945-1.7,1.819-3.487,2.6-5.3a.6.6,0,1,1,1.095.471c-.793,1.846-1.685,3.665-2.649,5.405A.593.593,0,0,1,472.763,9720.343Zm4.717-10.932a.6.6,0,0,1-.568-.779c.6-1.848,1.12-3.763,1.558-5.7a.6.6,0,0,1,1.163.264c-.445,1.967-.979,3.918-1.585,5.8A.6.6,0,0,1,477.48,9709.411Zm2.642-11.611a.588.588,0,0,1-.083-.006.6.6,0,0,1-.508-.673c.267-1.921.466-3.9.589-5.882a.572.572,0,0,1,.632-.56.6.6,0,0,1,.558.634c-.124,2.013-.326,4.022-.6,5.973A.6.6,0,0,1,480.122,9697.8Zm.748-11.887a.6.6,0,0,1-.6-.595c-.007-2.04-.045-4.037-.117-5.937a.6.6,0,0,1,.575-.619.587.587,0,0,1,.618.574c.07,1.914.11,3.926.117,5.978a.6.6,0,0,1-.594.6ZM480.417,9674a.6.6,0,0,1-.593-.551c-.157-2.021-.358-4.007-.6-5.9a.6.6,0,0,1,1.183-.149c.241,1.91.444,3.916.6,5.958a.6.6,0,0,1-.549.64A.361.361,0,0,1,480.417,9674Zm-1.523-11.815a.6.6,0,0,1-.586-.484c-.385-2.025-.833-3.962-1.33-5.757a.6.6,0,0,1,1.149-.318c.507,1.826.963,3.794,1.354,5.852a.6.6,0,0,1-.475.7A.63.63,0,0,1,478.894,9662.188Zm-3.249-11.444a.6.6,0,0,1-.552-.37,28.86,28.86,0,0,0-2.688-5.17.6.6,0,1,1,.99-.666,30.136,30.136,0,0,1,2.8,5.384.6.6,0,0,1-.327.778A.627.627,0,0,1,475.645,9650.744Z" transform="translate(-438.069 -9562.374)" fill="#4d4d4d"/>
            <path id="Trazado_112006" data-name="Trazado 112006" d="M542.7,9704.5a.6.6,0,0,1-.456-.211c-2.916-3.443-11.042-6.9-13.659-7.833-.306-.109-.546-.185-.732-.233a.6.6,0,0,1,.125.423,11.708,11.708,0,0,0,2.154,1.807,8.809,8.809,0,0,0,2.687,1.571.6.6,0,0,1,.756.839.859.859,0,0,1-.482.34c-.431.1-1.238-.025-3.663-1.785-2.216-1.606-2.654-2.239-2.69-2.658a1.249,1.249,0,0,1-.284-1.428c.4-.606,1.3-.439,2.531,0,2.889,1.035,11.065,4.525,14.167,8.185a.6.6,0,0,1-.456.982Zm-10.165-4.221v0Z" transform="translate(-424.611 -9552.608)" fill="#4d4d4d"/>
            <path id="Trazado_112007" data-name="Trazado 112007" d="M545.084,9709a.577.577,0,0,1-.184-.028l-16.718-5.437c-3.656-1.4-9.3-3.067-10.513-2.437a.751.751,0,0,0,.06.779c.539.773,2.218,1.13,2.82,1.2l8.855,2.473a.6.6,0,1,1-.322,1.148l-8.763-2.455c-.184-.015-2.625-.337-3.566-1.684a2.042,2.042,0,0,1-.308-1.689,1.255,1.255,0,0,1,.67-.83c2.12-1.112,9.922,1.778,11.464,2.37l16.69,5.427a.6.6,0,0,1-.185,1.162Z" transform="translate(-426.526 -9551.675)" fill="#4d4d4d"/>
            <path id="Trazado_112008" data-name="Trazado 112008" d="M545.185,9713.7a.6.6,0,0,1-.32-.094c-1.586-1.011-17.43-5.536-23.4-7.194a.6.6,0,1,1,.318-1.148c2.216.615,21.7,6.046,23.723,7.337a.6.6,0,0,1-.321,1.1Z" transform="translate(-425.631 -9550.624)" fill="#4d4d4d"/>
            <path id="Trazado_112009" data-name="Trazado 112009" d="M523.248,9727.333h-.013l-8.913-.2c-2.694.086-4.188-.3-4.418-1.145-.222-.812.682-1.427,1.5-1.871,3.846-2.1,16.06-4.617,23.842-3.736a46.593,46.593,0,0,1,12.063,2.741.6.6,0,0,1-.469,1.1,46.268,46.268,0,0,0-11.729-2.652c-7.574-.861-19.42,1.562-23.135,3.6a4.292,4.292,0,0,0-.78.513,10.74,10.74,0,0,0,3.124.264l8.945.2a.6.6,0,0,1-.013,1.192Z" transform="translate(-427.781 -9547.741)" fill="#4d4d4d"/>
            <path id="Trazado_112010" data-name="Trazado 112010" d="M528.764,9730.821a2.8,2.8,0,0,1-.707-.077c-2.379.02-2.523-.67-2.58-.91-.179-.754.66-1.312,1.971-1.918a76,76,0,0,1,15.337-4.412.6.6,0,0,1,.673.508.6.6,0,0,1-.508.673,74.43,74.43,0,0,0-15,4.314,9.132,9.132,0,0,0-.949.5,7.24,7.24,0,0,0,1.122.055.534.534,0,0,1,.217.034c.706.251,3.229-.409,4.791-.965a.6.6,0,1,1,.4,1.125A18.173,18.173,0,0,1,528.764,9730.821Z" transform="translate(-424.778 -9547.105)" fill="#4d4d4d"/>
            <path id="Trazado_112011" data-name="Trazado 112011" d="M541.532,9716.514a76.966,76.966,0,0,1-14.086-1.312c-1.406-.33-2.339-.711-2.315-1.488.007-.244.029-.985,2.347-1.4,1.327-.658,4.848-.211,5.558-.109a.6.6,0,0,1,.508.672.6.6,0,0,1-.674.509c-1.642-.23-4.242-.38-4.885.01a.64.64,0,0,1-.208.078,7.144,7.144,0,0,0-1.088.275,8.863,8.863,0,0,0,1.029.3,74.678,74.678,0,0,0,15.561,1.236.57.57,0,0,1,.632.558.6.6,0,0,1-.558.633C542.855,9716.5,542.237,9716.514,541.532,9716.514Z" transform="translate(-424.84 -9549.329)" fill="#4d4d4d"/>
            <path id="Trazado_112012" data-name="Trazado 112012" d="M534.122,9736.957a.6.6,0,0,1-.411-1.027c3.152-3.011,7.717-7.717,7.99-8.752a.6.6,0,0,1,1.153.3c-.459,1.74-7.012,8.061-8.32,9.31A.594.594,0,0,1,534.122,9736.957Z" transform="translate(-423.223 -9546.483)" fill="#4d4d4d"/>
            <path id="Trazado_112013" data-name="Trazado 112013" d="M531.034,9732.739a.6.6,0,0,1-.243-1.141c3.86-1.727,10.282-4.924,11.086-6.148a.6.6,0,1,1,1,.654c-1.257,1.919-10.541,6.111-11.6,6.582A.573.573,0,0,1,531.034,9732.739Z" transform="translate(-423.818 -9546.781)" fill="#4d4d4d"/>
            <path id="Trazado_112014" data-name="Trazado 112014" d="M470.948,9727.865a.6.6,0,0,1-.144-1.175c.287-.072,28.955-7.226,44-9.737,15.149-2.535,39.087,4.724,40.1,5.032a.6.6,0,0,1,.4.745.6.6,0,0,1-.745.4c-.245-.078-24.665-7.478-39.553-5-15,2.5-43.623,9.647-43.911,9.72A.606.606,0,0,1,470.948,9727.865Z" transform="translate(-435.397 -9548.471)" fill="#4d4d4d"/>
          </g>
        </g>
      </g>
    </g>
  </g>
</svg>
