<svg xmlns="http://www.w3.org/2000/svg" width="393.348" height="512.268" viewBox="0 0 393.348 512.268">
  <g id="Grupo_55203" data-name="Grupo 55203" transform="translate(-642.176 -7214.348)">
    <rect id="Rectángulo_9500" data-name="Rectángulo 9500" width="393.348" height="512.268" transform="translate(642.176 7214.348)" fill="#dcdcde"/>
    <rect id="Rectángulo_9501" data-name="Rectángulo 9501" width="307.175" height="450.554" transform="translate(675.055 7247.292)" fill="#f7f2e6"/>
    <rect id="Rectángulo_9502" data-name="Rectángulo 9502" width="293.356" height="3.557" transform="translate(681.913 7397.709)" fill="#333"/>
    <rect id="Rectángulo_9503" data-name="Rectángulo 9503" width="3.557" height="430.138" transform="translate(952.146 7258.43)" fill="#333"/>
    <g id="Grupo_55190" data-name="Grupo 55190" transform="translate(985.297 7494.146)">
      <rect id="Rectángulo_9504" data-name="Rectángulo 9504" width="3.557" height="178.751" transform="translate(11.395)" fill="#333"/>
      <g id="Grupo_55189" data-name="Grupo 55189" transform="translate(0 168.76)">
        <path id="Trazado_105504" data-name="Trazado 105504" d="M835.081,7466.53l13.173,5.6,13.174-5.6-13.174,31.228Z" transform="translate(-835.081 -7466.53)" fill="#333"/>
      </g>
    </g>
    <g id="Grupo_55192" data-name="Grupo 55192" transform="translate(985.297 7253.326)">
      <rect id="Rectángulo_9505" data-name="Rectángulo 9505" width="3.557" height="141.631" transform="translate(11.395 21.236)" fill="#333"/>
      <g id="Grupo_55191" data-name="Grupo 55191">
        <path id="Trazado_105505" data-name="Trazado 105505" d="M861.428,7267.488l-13.174-5.6-13.173,5.6,13.173-31.228Z" transform="translate(-835.081 -7236.261)" fill="#333"/>
      </g>
    </g>
    <g id="Grupo_55194" data-name="Grupo 55194" transform="translate(853.982 7253.324)">
      <rect id="Rectángulo_9506" data-name="Rectángulo 9506" width="3.557" height="120.287" transform="translate(11.395)" fill="#333"/>
      <g id="Grupo_55193" data-name="Grupo 55193" transform="translate(0 110.295)">
        <path id="Trazado_105506" data-name="Trazado 105506" d="M761.255,7298.27l13.173,5.6,13.174-5.6L774.428,7329.5Z" transform="translate(-761.255 -7298.27)" fill="#333"/>
      </g>
    </g>
    <g id="Grupo_55196" data-name="Grupo 55196" transform="translate(868.934 7217.416)">
      <rect id="Rectángulo_9507" data-name="Rectángulo 9507" width="87.419" height="3.557" transform="translate(0 11.395)" fill="#333"/>
      <g id="Grupo_55195" data-name="Grupo 55195" transform="translate(77.428)">
        <path id="Trazado_105507" data-name="Trazado 105507" d="M813.191,7242.419l5.6-13.174-5.6-13.174,31.228,13.174Z" transform="translate(-813.191 -7216.071)" fill="#333"/>
      </g>
    </g>
    <g id="Grupo_55198" data-name="Grupo 55198" transform="translate(678.767 7217.416)">
      <rect id="Rectángulo_9508" data-name="Rectángulo 9508" width="92.91" height="3.557" transform="translate(21.237 11.395)" fill="#333"/>
      <g id="Grupo_55197" data-name="Grupo 55197">
        <path id="Trazado_105508" data-name="Trazado 105508" d="M693.976,7216.071l-5.6,13.174,5.6,13.174-31.228-13.174Z" transform="translate(-662.748 -7216.071)" fill="#333"/>
      </g>
    </g>
    <g id="Grupo_55199" data-name="Grupo 55199" transform="translate(802.13 7223.952)">
      <path id="Trazado_105509" data-name="Trazado 105509" d="M734.689,7224.732H736a1.585,1.585,0,0,0,1.229-.434,1.721,1.721,0,0,0,.4-1.209,1.567,1.567,0,0,0-.4-1.125,1.518,1.518,0,0,0-1.156-.422,1.629,1.629,0,0,0-1.1.383,1.261,1.261,0,0,0-.446,1.006h-2.259l-.016-.05a2.646,2.646,0,0,1,1.046-2.249,4.17,4.17,0,0,1,2.712-.886,4.474,4.474,0,0,1,2.876.861,2.977,2.977,0,0,1,1.071,2.457,2.48,2.48,0,0,1-.477,1.44,3.2,3.2,0,0,1-1.316,1.065,2.962,2.962,0,0,1,1.471,1.052,2.766,2.766,0,0,1,.507,1.65,3.021,3.021,0,0,1-1.161,2.511,4.662,4.662,0,0,1-2.97.912,4.544,4.544,0,0,1-2.78-.857,2.743,2.743,0,0,1-1.122-2.421l.018-.047h2.257a1.409,1.409,0,0,0,.478,1.1,1.739,1.739,0,0,0,1.213.433,1.772,1.772,0,0,0,1.272-.444,1.6,1.6,0,0,0,.466-1.211,1.756,1.756,0,0,0-.459-1.342,1.924,1.924,0,0,0-1.352-.424h-1.309Z" transform="translate(-732.103 -7219.747)"/>
      <path id="Trazado_105510" data-name="Trazado 105510" d="M737.763,7226.309l.669-6.467h6.476v1.864h-4.569l-.32,2.68a2.817,2.817,0,0,1,.776-.394,3.642,3.642,0,0,1,3.6.849,4.194,4.194,0,0,1,.921,2.887,3.975,3.975,0,0,1-1.01,2.786,3.724,3.724,0,0,1-2.9,1.107,4.368,4.368,0,0,1-2.745-.876,2.782,2.782,0,0,1-1.1-2.41l.016-.038,2.243-.113a1.633,1.633,0,0,0,.437,1.21,1.568,1.568,0,0,0,1.151.434,1.343,1.343,0,0,0,1.2-.577,2.666,2.666,0,0,0,.386-1.509,2.8,2.8,0,0,0-.413-1.608,1.4,1.4,0,0,0-1.231-.6,1.786,1.786,0,0,0-1.025.247,1.341,1.341,0,0,0-.505.671Z" transform="translate(-727.86 -7219.674)"/>
      <path id="Trazado_105511" data-name="Trazado 105511" d="M748.915,7228.591a1.382,1.382,0,0,0,1-.359,1.285,1.285,0,0,0,.373-.964H752.4l.025.046a2.7,2.7,0,0,1-.985,2.191,4.16,4.16,0,0,1-5.5-.34,4.657,4.657,0,0,1-1.044-3.136v-.239a4.678,4.678,0,0,1,1.04-3.133,3.678,3.678,0,0,1,2.972-1.229,3.625,3.625,0,0,1,2.572.908,3.027,3.027,0,0,1,.946,2.4l-.016.046h-2.124a1.682,1.682,0,0,0-.366-1.113,1.241,1.241,0,0,0-1.012-.441,1.347,1.347,0,0,0-1.3.716,3.921,3.921,0,0,0-.379,1.85v.24a3.894,3.894,0,0,0,.379,1.856A1.357,1.357,0,0,0,748.915,7228.591Z" transform="translate(-722.142 -7218.437)"/>
      <path id="Trazado_105512" data-name="Trazado 105512" d="M752.036,7221.586l.094,1.143a2.92,2.92,0,0,1,1.041-.962,3.006,3.006,0,0,1,1.45-.339,2.635,2.635,0,0,1,1.42.368,2.25,2.25,0,0,1,.893,1.108,2.992,2.992,0,0,1,1.037-1.087,2.81,2.81,0,0,1,1.5-.39,2.486,2.486,0,0,1,2.014.882,4.117,4.117,0,0,1,.738,2.683v5.226h-2.328v-5.243a2.2,2.2,0,0,0-.318-1.368,1.166,1.166,0,0,0-.95-.384,1.552,1.552,0,0,0-1.437.83c0,.1,0,.189.009.262s.009.146.009.219v5.685h-2.323v-5.243a2.195,2.195,0,0,0-.318-1.357,1.163,1.163,0,0,0-.957-.395,1.809,1.809,0,0,0-.825.18,1.582,1.582,0,0,0-.587.507v6.309h-2.321v-8.632Z" transform="translate(-718.266 -7218.437)"/>
      <path id="Trazado_105513" data-name="Trazado 105513" d="M762.654,7227.842a.812.812,0,0,0-.372-.663,3.729,3.729,0,0,0-1.375-.493,5.55,5.55,0,0,1-2.309-.923,1.994,1.994,0,0,1-.779-1.661,2.379,2.379,0,0,1,.938-1.9,3.807,3.807,0,0,1,2.51-.778,4.124,4.124,0,0,1,2.627.773,2.282,2.282,0,0,1,.937,1.955l-.016.046h-2.25a1.131,1.131,0,0,0-.329-.843,1.581,1.581,0,0,0-1.859-.053.868.868,0,0,0-.324.69.788.788,0,0,0,.34.653,3.68,3.68,0,0,0,1.375.454,5.6,5.6,0,0,1,2.369.938,2.06,2.06,0,0,1,.774,1.7,2.274,2.274,0,0,1-1,1.905,4.326,4.326,0,0,1-2.631.735,4,4,0,0,1-2.725-.872,2.448,2.448,0,0,1-.953-1.991l.016-.048h2.129a1.215,1.215,0,0,0,.455,1.006,1.876,1.876,0,0,0,1.124.31,1.638,1.638,0,0,0,.987-.254A.821.821,0,0,0,762.654,7227.842Z" transform="translate(-712.247 -7218.437)"/>
    </g>
    <g id="Grupo_55200" data-name="Grupo 55200" transform="translate(873.869 7316.366)">
      <path id="Trazado_105514" data-name="Trazado 105514" d="M780.549,7283.485h-7.928v-1.523l3.757-4.028a8.956,8.956,0,0,0,1.155-1.577,2.542,2.542,0,0,0,.345-1.192,1.8,1.8,0,0,0-.395-1.2,1.392,1.392,0,0,0-1.122-.466,1.449,1.449,0,0,0-1.224.546,2.345,2.345,0,0,0-.42,1.457h-2.264l-.016-.049a3.525,3.525,0,0,1,1.034-2.661,3.875,3.875,0,0,1,2.89-1.089,4.038,4.038,0,0,1,2.821.934,3.207,3.207,0,0,1,1.025,2.489,3.5,3.5,0,0,1-.578,1.944,19.332,19.332,0,0,1-1.91,2.332l-2.065,2.25.016.039h4.881Z" transform="translate(-772.435 -7271.702)"/>
      <path id="Trazado_105515" data-name="Trazado 105515" d="M785.423,7274.948a2.666,2.666,0,0,1-.459,1.541,3.042,3.042,0,0,1-1.265,1.044,3.431,3.431,0,0,1,1.459,1.116,2.725,2.725,0,0,1,.535,1.66,2.974,2.974,0,0,1-1.092,2.476,4.46,4.46,0,0,1-2.855.867,4.507,4.507,0,0,1-2.878-.867,2.966,2.966,0,0,1-1.1-2.476,2.745,2.745,0,0,1,.53-1.663,3.471,3.471,0,0,1,1.464-1.12,3.027,3.027,0,0,1-1.268-1.042,2.65,2.65,0,0,1-.455-1.536,2.948,2.948,0,0,1,1.014-2.395,4.619,4.619,0,0,1,5.345,0A2.937,2.937,0,0,1,785.423,7274.948Zm-2.058,5.2a1.716,1.716,0,0,0-.455-1.249,1.567,1.567,0,0,0-1.179-.47,1.539,1.539,0,0,0-1.177.47,1.747,1.747,0,0,0-.443,1.249,1.71,1.71,0,0,0,.448,1.253,1.583,1.583,0,0,0,1.188.458,1.555,1.555,0,0,0,1.172-.463A1.716,1.716,0,0,0,783.365,7280.146Zm-.263-5.093a1.659,1.659,0,0,0-.372-1.129,1.257,1.257,0,0,0-1-.427,1.243,1.243,0,0,0-1,.419,1.678,1.678,0,0,0-.359,1.137,1.72,1.72,0,0,0,.363,1.152,1.256,1.256,0,0,0,1.01.425,1.239,1.239,0,0,0,.992-.425A1.721,1.721,0,0,0,783.1,7275.054Z" transform="translate(-768.279 -7271.702)"/>
      <path id="Trazado_105516" data-name="Trazado 105516" d="M789.22,7280.548a1.375,1.375,0,0,0,1-.359,1.276,1.276,0,0,0,.375-.964h2.115l.023.046a2.691,2.691,0,0,1-.984,2.191,4.157,4.157,0,0,1-5.5-.34,4.646,4.646,0,0,1-1.044-3.134v-.24a4.667,4.667,0,0,1,1.04-3.133,3.674,3.674,0,0,1,2.972-1.23,3.633,3.633,0,0,1,2.572.909,3.021,3.021,0,0,1,.945,2.394l-.014.047h-2.124a1.678,1.678,0,0,0-.366-1.112,1.244,1.244,0,0,0-1.012-.441,1.35,1.35,0,0,0-1.306.716,3.942,3.942,0,0,0-.379,1.849v.24a3.917,3.917,0,0,0,.379,1.856A1.364,1.364,0,0,0,789.22,7280.548Z" transform="translate(-762.495 -7270.394)"/>
      <path id="Trazado_105517" data-name="Trazado 105517" d="M792.34,7273.544l.1,1.142a2.9,2.9,0,0,1,1.041-.961,2.989,2.989,0,0,1,1.448-.34,2.642,2.642,0,0,1,1.419.367,2.241,2.241,0,0,1,.893,1.109,3.019,3.019,0,0,1,1.037-1.086,2.816,2.816,0,0,1,1.5-.391,2.491,2.491,0,0,1,2.014.883,4.116,4.116,0,0,1,.738,2.685v5.224H800.2v-5.244a2.2,2.2,0,0,0-.317-1.368,1.169,1.169,0,0,0-.952-.383,1.554,1.554,0,0,0-1.436.829c0,.1,0,.188.009.262s.009.146.009.219v5.686h-2.323v-5.244a2.207,2.207,0,0,0-.318-1.356,1.165,1.165,0,0,0-.957-.395,1.816,1.816,0,0,0-.827.18,1.566,1.566,0,0,0-.585.506v6.31h-2.323v-8.632Z" transform="translate(-758.62 -7270.394)"/>
      <path id="Trazado_105518" data-name="Trazado 105518" d="M802.96,7279.8a.82.82,0,0,0-.372-.662,3.739,3.739,0,0,0-1.377-.493,5.559,5.559,0,0,1-2.309-.924,1.991,1.991,0,0,1-.777-1.66,2.387,2.387,0,0,1,.936-1.9,3.818,3.818,0,0,1,2.51-.777,4.121,4.121,0,0,1,2.629.773,2.283,2.283,0,0,1,.936,1.955l-.014.046h-2.25a1.129,1.129,0,0,0-.331-.842,1.315,1.315,0,0,0-.97-.329,1.331,1.331,0,0,0-.889.275.87.87,0,0,0-.322.69.787.787,0,0,0,.338.654,3.692,3.692,0,0,0,1.377.454,5.6,5.6,0,0,1,2.369.937,2.06,2.06,0,0,1,.772,1.7,2.27,2.27,0,0,1-1,1.9,4.322,4.322,0,0,1-2.632.736,4.005,4.005,0,0,1-2.723-.871,2.448,2.448,0,0,1-.953-1.992l.016-.048h2.129a1.214,1.214,0,0,0,.455,1,1.869,1.869,0,0,0,1.124.31,1.625,1.625,0,0,0,.985-.254A.822.822,0,0,0,802.96,7279.8Z" transform="translate(-752.6 -7270.394)"/>
    </g>
    <g id="Grupo_55201" data-name="Grupo 55201" transform="translate(957.39 7283.735)">
      <path id="Trazado_105519" data-name="Trazado 105519" d="M821.573,7257.565h1.1a1.344,1.344,0,0,0,1.035-.368,1.456,1.456,0,0,0,.336-1.021,1.326,1.326,0,0,0-.336-.947,1.27,1.27,0,0,0-.975-.355,1.381,1.381,0,0,0-.928.32,1.068,1.068,0,0,0-.377.849h-1.9l-.012-.04a2.227,2.227,0,0,1,.881-1.9,3.529,3.529,0,0,1,2.287-.747,3.779,3.779,0,0,1,2.424.726,2.515,2.515,0,0,1,.905,2.074,2.068,2.068,0,0,1-.406,1.213,2.674,2.674,0,0,1-1.11.9,2.5,2.5,0,0,1,1.243.887,2.336,2.336,0,0,1,.427,1.393,2.55,2.55,0,0,1-.98,2.117,3.922,3.922,0,0,1-2.5.768,3.825,3.825,0,0,1-2.344-.721,2.309,2.309,0,0,1-.946-2.04l.014-.044h1.9a1.194,1.194,0,0,0,.4.928,1.468,1.468,0,0,0,1.023.366,1.5,1.5,0,0,0,1.073-.376,1.351,1.351,0,0,0,.393-1.021,1.479,1.479,0,0,0-.386-1.131,1.622,1.622,0,0,0-1.14-.358h-1.1Z" transform="translate(-819.391 -7253.357)"/>
      <path id="Trazado_105520" data-name="Trazado 105520" d="M829.124,7260.818a1.156,1.156,0,0,0,.841-.306,1.077,1.077,0,0,0,.317-.812h1.782l.019.039a2.265,2.265,0,0,1-.829,1.847,3.51,3.51,0,0,1-4.641-.286,3.918,3.918,0,0,1-.88-2.642v-.2a3.96,3.96,0,0,1,.877-2.646,3.108,3.108,0,0,1,2.506-1.037,3.06,3.06,0,0,1,2.17.769,2.544,2.544,0,0,1,.8,2.019l-.012.04h-1.789a1.418,1.418,0,0,0-.31-.938,1.047,1.047,0,0,0-.856-.373,1.136,1.136,0,0,0-1.1.6,3.313,3.313,0,0,0-.318,1.559v.2a3.307,3.307,0,0,0,.318,1.568A1.15,1.15,0,0,0,829.124,7260.818Z" transform="translate(-814.452 -7252.253)"/>
      <path id="Trazado_105521" data-name="Trazado 105521" d="M831.755,7254.911l.082.962a2.44,2.44,0,0,1,.877-.811,2.527,2.527,0,0,1,1.22-.287,2.224,2.224,0,0,1,1.2.312,1.9,1.9,0,0,1,.754.934,2.546,2.546,0,0,1,.873-.914,2.389,2.389,0,0,1,1.265-.331,2.105,2.105,0,0,1,1.7.743,3.47,3.47,0,0,1,.623,2.266v4.405h-1.964v-4.422a1.848,1.848,0,0,0-.269-1.153.981.981,0,0,0-.8-.323,1.377,1.377,0,0,0-.722.184,1.359,1.359,0,0,0-.489.517c0,.086,0,.159.007.22s.007.123.007.185v4.794h-1.958v-4.422a1.852,1.852,0,0,0-.268-1.144.975.975,0,0,0-.808-.333,1.522,1.522,0,0,0-.7.151,1.3,1.3,0,0,0-.493.429v5.318h-1.958v-7.278Z" transform="translate(-811.183 -7252.253)"/>
      <path id="Trazado_105522" data-name="Trazado 105522" d="M840.709,7260.185a.683.683,0,0,0-.311-.557,3.206,3.206,0,0,0-1.161-.42,4.634,4.634,0,0,1-1.946-.775,1.68,1.68,0,0,1-.658-1.4,2.007,2.007,0,0,1,.792-1.6,3.211,3.211,0,0,1,2.115-.657,3.473,3.473,0,0,1,2.216.653,1.93,1.93,0,0,1,.792,1.648l-.012.04h-1.9a.953.953,0,0,0-.279-.712,1.341,1.341,0,0,0-1.567-.044.731.731,0,0,0-.272.581.666.666,0,0,0,.285.553,3.1,3.1,0,0,0,1.16.382,4.732,4.732,0,0,1,2,.792,1.735,1.735,0,0,1,.653,1.436,1.909,1.909,0,0,1-.841,1.6,3.635,3.635,0,0,1-2.22.621,3.357,3.357,0,0,1-2.3-.735,2.053,2.053,0,0,1-.8-1.678l.014-.04h1.794a1.033,1.033,0,0,0,.383.849,1.6,1.6,0,0,0,.948.261,1.36,1.36,0,0,0,.833-.216A.691.691,0,0,0,840.709,7260.185Z" transform="translate(-806.107 -7252.253)"/>
    </g>
    <g id="Grupo_55202" data-name="Grupo 55202" transform="translate(985.879 7447.765)">
      <path id="Trazado_105523" data-name="Trazado 105523" d="M835.585,7351.111l.564-5.456h5.461v1.574h-3.853l-.269,2.259a2.365,2.365,0,0,1,.651-.332,2.767,2.767,0,0,1,.849-.137,2.719,2.719,0,0,1,2.189.854,3.543,3.543,0,0,1,.777,2.437,3.354,3.354,0,0,1-.852,2.347,3.146,3.146,0,0,1-2.451.935,3.689,3.689,0,0,1-2.316-.741,2.334,2.334,0,0,1-.927-2.03l.014-.033,1.889-.095a1.377,1.377,0,0,0,.37,1.02,1.318,1.318,0,0,0,.969.366,1.126,1.126,0,0,0,1.01-.485,2.231,2.231,0,0,0,.328-1.275,2.361,2.361,0,0,0-.349-1.354,1.178,1.178,0,0,0-1.037-.511,1.491,1.491,0,0,0-.865.211,1.128,1.128,0,0,0-.427.563Z" transform="translate(-835.408 -7345.514)"/>
      <path id="Trazado_105524" data-name="Trazado 105524" d="M846.42,7351.7a4.316,4.316,0,0,1-.891,2.949,3.409,3.409,0,0,1-4.838,0,4.307,4.307,0,0,1-.895-2.949v-2.157a4.345,4.345,0,0,1,.891-2.952,3.394,3.394,0,0,1,4.835,0,4.319,4.319,0,0,1,.9,2.952Zm-1.957-2.362a3.221,3.221,0,0,0-.35-1.7,1.217,1.217,0,0,0-2.017,0,3.285,3.285,0,0,0-.343,1.708v2.547a3.273,3.273,0,0,0,.347,1.721,1.134,1.134,0,0,0,1.019.537,1.115,1.115,0,0,0,1-.537,3.294,3.294,0,0,0,.343-1.721Z" transform="translate(-831.992 -7345.575)"/>
      <path id="Trazado_105525" data-name="Trazado 105525" d="M849.434,7353.034a1.167,1.167,0,0,0,.841-.3,1.084,1.084,0,0,0,.315-.813h1.782l.021.039a2.27,2.27,0,0,1-.831,1.847,3.505,3.505,0,0,1-4.639-.285,3.925,3.925,0,0,1-.88-2.645v-.2a3.948,3.948,0,0,1,.877-2.642,3.5,3.5,0,0,1,4.676-.27,2.548,2.548,0,0,1,.8,2.017l-.014.041H850.59a1.405,1.405,0,0,0-.309-.937,1.045,1.045,0,0,0-.854-.373,1.137,1.137,0,0,0-1.1.6,3.316,3.316,0,0,0-.32,1.557v.2a3.315,3.315,0,0,0,.32,1.57A1.15,1.15,0,0,0,849.434,7353.034Z" transform="translate(-827.126 -7344.472)"/>
      <path id="Trazado_105526" data-name="Trazado 105526" d="M852.062,7347.128l.082.962a2.459,2.459,0,0,1,.877-.811,2.534,2.534,0,0,1,1.222-.285,2.235,2.235,0,0,1,1.2.31,1.919,1.919,0,0,1,.754.935,2.53,2.53,0,0,1,.873-.914,2.384,2.384,0,0,1,1.265-.33,2.1,2.1,0,0,1,1.7.742,3.476,3.476,0,0,1,.621,2.263v4.407H858.69v-4.421a1.865,1.865,0,0,0-.269-1.155.987.987,0,0,0-.8-.321,1.307,1.307,0,0,0-1.209.7c0,.087,0,.161.007.22s.007.124.007.187v4.793h-1.958v-4.421a1.866,1.866,0,0,0-.269-1.144.976.976,0,0,0-.809-.333,1.527,1.527,0,0,0-.7.15,1.313,1.313,0,0,0-.493.429v5.318h-1.958v-7.278Z" transform="translate(-823.858 -7344.472)"/>
      <path id="Trazado_105527" data-name="Trazado 105527" d="M861.02,7352.4a.68.68,0,0,0-.313-.557,3.176,3.176,0,0,0-1.16-.42,4.619,4.619,0,0,1-1.948-.775,1.685,1.685,0,0,1-.656-1.4,2.01,2.01,0,0,1,.79-1.6,3.225,3.225,0,0,1,2.117-.654,3.487,3.487,0,0,1,2.216.651,1.927,1.927,0,0,1,.79,1.648l-.013.04h-1.9a.957.957,0,0,0-.279-.711,1.341,1.341,0,0,0-1.567-.046.731.731,0,0,0-.272.582.66.66,0,0,0,.285.552,3.13,3.13,0,0,0,1.16.384,4.688,4.688,0,0,1,2,.791,1.733,1.733,0,0,1,.653,1.437,1.911,1.911,0,0,1-.84,1.6,3.641,3.641,0,0,1-2.22.623,3.369,3.369,0,0,1-2.3-.737,2.056,2.056,0,0,1-.806-1.677l.014-.042h1.8a1.021,1.021,0,0,0,.382.849,1.593,1.593,0,0,0,.948.262,1.367,1.367,0,0,0,.833-.215A.7.7,0,0,0,861.02,7352.4Z" transform="translate(-818.782 -7344.472)"/>
    </g>
  </g>
</svg>
