<svg xmlns="http://www.w3.org/2000/svg" width="708" height="305.213" viewBox="0 0 708 305.213">
  <g id="Grupo_55481" data-name="Grupo 55481" transform="translate(-371.314 -9450.782)">
    <rect id="Rectángulo_9617" data-name="Rectángulo 9617" width="708" height="305.213" rx="13.838" transform="translate(371.314 9450.782)" fill="#fff"/>
    <g id="Grupo_55480" data-name="Grupo 55480" transform="translate(412.021 9479.122)">
      <g id="Grupo_55459" data-name="Grupo 55459" transform="translate(0 11.158)">
        <g id="Grupo_55456" data-name="Grupo 55456" transform="translate(67.954)">
          <g id="Grupo_55453" data-name="Grupo 55453" transform="translate(1.153)">
            <path id="Trazado_106443" data-name="Trazado 106443" d="M480.466,9495.748c0-6.437-3.9-11.651-8.71-11.651s-8.71,5.215-8.71,11.651c0,5.032,2.389,9.306,5.73,10.937v11.141h6.581v-11.477C478.368,9504.514,480.466,9500.463,480.466,9495.748Z" transform="translate(-462.444 -9483.495)" fill="#fff"/>
            <path id="Trazado_106444" data-name="Trazado 106444" d="M476.06,9518.527h-7.784V9507.15c-3.441-1.886-5.73-6.367-5.73-11.3,0-6.757,4.177-12.254,9.312-12.254s9.312,5.5,9.312,12.254c0,4.614-1.995,8.858-5.11,10.932Zm-6.581-1.2h5.377v-11.213l.289-.174c2.929-1.785,4.821-5.745,4.821-10.088,0-6.094-3.636-11.05-8.108-11.05s-8.108,4.956-8.108,11.05c0,4.643,2.167,8.82,5.391,10.395l.338.164Z" transform="translate(-462.546 -9483.596)" fill="#999"/>
          </g>
          <g id="Grupo_55454" data-name="Grupo 55454" transform="translate(0 14.065)">
            <rect id="Rectángulo_9618" data-name="Rectángulo 9618" width="20.425" height="3.406" rx="1.415" transform="translate(0.602 0.602)" fill="#fff"/>
            <path id="Trazado_106445" data-name="Trazado 106445" d="M480.912,9499.891H463.893a2.3,2.3,0,1,1,0-4.609h17.019a2.3,2.3,0,1,1,0,4.609Zm-17.019-3.406a1.1,1.1,0,0,0,0,2.2h17.019a1.1,1.1,0,0,0,0-2.2Z" transform="translate(-461.588 -9495.281)" fill="#999"/>
          </g>
          <g id="Grupo_55455" data-name="Grupo 55455" transform="translate(0 7.561)">
            <rect id="Rectángulo_9619" data-name="Rectángulo 9619" width="20.425" height="3.406" rx="1.415" transform="translate(0.602 0.602)" fill="#fff"/>
            <path id="Trazado_106446" data-name="Trazado 106446" d="M480.912,9494.487H463.893a2.3,2.3,0,1,1,0-4.609h17.019a2.3,2.3,0,1,1,0,4.609Zm-17.019-3.406a1.1,1.1,0,0,0,0,2.2h17.019a1.1,1.1,0,0,0,0-2.2Z" transform="translate(-461.588 -9489.878)" fill="#999"/>
          </g>
        </g>
        <g id="Grupo_55457" data-name="Grupo 55457" transform="translate(0 27.386)">
          <path id="Trazado_106447" data-name="Trazado 106447" d="M565.941,9583.4l-.62-12.388-47.844-14.09s-9.136-.466-11.149-16.878c0,0-1.935-16.024-1.471-26.09,0,0-4.924-6.15-18.889-7v-.048c-.215,0-.413.018-.624.023-.619-.03-1.227-.066-1.88-.076V9507c-14.182.787-20.955,6.411-20.955,6.411.463,10.064-1.162,27.277-1.162,27.277-2.014,16.413-12.619,18.167-12.619,18.167l-39.492,12.155-.619,12.388s-3.406,4.18-2.942,21.212,5.117,25.857,5.117,25.857l.774,19.974,10.366,53.265h130.69l13.006-56.98v-18.889s2.788-6.194,3.252-23.227S565.941,9583.4,565.941,9583.4Z" transform="translate(-405.031 -9506.245)" fill="#fff"/>
          <path id="Trazado_106448" data-name="Trazado 106448" d="M553.207,9704.408H421.54l-10.461-53.75-.779-19.934c-.589-1.176-4.685-9.9-5.124-26-.419-15.418,2.315-20.473,2.953-21.434l.632-12.633,39.894-12.279c.492-.09,10.27-1.936,12.2-17.664.014-.156,1.614-17.271,1.158-27.176l-.014-.3.231-.191c.278-.232,6.909-5.613,20.737-6.516v-.186l.609.008c.532.008,1.034.031,1.536.057l.365.018.224-.008c.12-.006.24-.012.365-.014l.608-.008v.092c13.643.982,18.555,6.93,18.76,7.186l.142.178-.011.227c-.457,9.9,1.448,25.83,1.467,25.99,1.919,15.648,10.231,16.326,10.584,16.35l.137.021L566,9570.656l.632,12.637c.637.961,3.371,6.016,2.951,21.434-.432,15.871-2.849,22.357-3.252,23.332l-.016,18.9ZM422.532,9703.2H552.248l12.883-56.445.053-19.066c.028-.062,2.746-6.34,3.2-23,.449-16.461-2.777-20.779-2.811-20.822l-.117-.148-.013-.2-.6-11.959-47.374-13.951c-.981-.086-9.661-1.287-11.637-17.4-.019-.16-1.905-15.932-1.485-25.945-.9-.953-6.086-5.873-18.315-6.615l-.461-.027-.112,0-.41-.018c-.291-.016-.584-.031-.881-.041v.1l-.568.031c-12.374.686-19.081,5.15-20.374,6.1.414,10.033-1.162,26.877-1.177,27.047-2.045,16.686-12.669,18.631-13.119,18.7l-39.01,12.016-.608,12.16-.125.152c-.029.037-3.256,4.355-2.807,20.816.454,16.668,5,25.506,5.049,25.6l.069.256.774,19.973Z" transform="translate(-405.133 -9506.348)" fill="#999"/>
        </g>
        <rect id="Rectángulo_9620" data-name="Rectángulo 9620" width="1.204" height="196.705" transform="translate(78.452 28.139)" fill="#999"/>
        <path id="Trazado_106449" data-name="Trazado 106449" d="M446.842,9693.445l-2.554-51.715c0-.3.214-27.18-16.376-87.476l1.16-.32c16.646,60.5,16.423,87.51,16.418,87.776l2.553,51.676Z" transform="translate(-400.493 -9469.269)" fill="#999"/>
        <path id="Trazado_106450" data-name="Trazado 106450" d="M500.743,9693.445l-1.2-.059,2.555-51.716c0-.227-.229-27.236,16.417-87.736l1.162.32c-16.592,60.3-16.38,87.172-16.375,87.437Z" transform="translate(-385.903 -9469.269)" fill="#999"/>
        <path id="Trazado_106451" data-name="Trazado 106451" d="M410.922,9617.744l-1.188-.2c.022-.127,2.149-12.9,1.541-22.728-.609-9.86-3.317-24.656-3.346-24.8l1.186-.219c.026.149,2.748,15.015,3.363,24.95C413.093,9604.709,410.942,9617.616,410.922,9617.744Z" transform="translate(-404.564 -9466.038)" fill="#999"/>
        <path id="Trazado_106452" data-name="Trazado 106452" d="M453.382,9521.536l-.849-.854c.323-.32,8.1-7.871,22.021-7.365.48-.051,13.805-1.234,20.907,5.919l-.853.849c-6.7-6.751-19.892-5.583-20.019-5.566C461.114,9514.012,453.457,9521.462,453.382,9521.536Z" transform="translate(-395.478 -9477.563)" fill="#999"/>
        <path id="Trazado_106453" data-name="Trazado 106453" d="M440.851,9553.073l-.354-1.15c8.327-2.562,11.346-4.34,14.543-6.218a60.843,60.843,0,0,1,5.377-2.9c6.855-3.219,16.17-3.307,16.563-3.31.377,0,9.122.091,15.975,3.31l1.8.851c5.311,2.512,6.913,3.271,18.116,6.718l-.355,1.151c-11.285-3.473-13.046-4.308-18.276-6.779l-1.8-.851c-6.608-3.1-15.375-3.2-15.463-3.2s-9.44.091-16.05,3.2c-2.188,1.027-3.76,1.952-5.281,2.844C452.391,9548.659,449.313,9550.469,440.851,9553.073Z" transform="translate(-397.93 -9472.209)" fill="#999"/>
        <g id="Grupo_55458" data-name="Grupo 55458" transform="translate(78.452 27.538)" opacity="0.36">
          <path id="Trazado_106454" data-name="Trazado 106454" d="M583.687,9515.1l9.837,35.573s-7.934,13.3-55.916,11.7c-43.243-1.444-49.612-5.662-66.205-3.246l-.593-52.149s13.1,5.516,61.206,10.571C589.756,9523.61,583.687,9515.1,583.687,9515.1Z" transform="translate(-470.207 -9506.372)" fill="#999"/>
          <path id="Trazado_106455" data-name="Trazado 106455" d="M545.564,9563.207c-2.5,0-5.117-.044-7.873-.137-20-.666-32.142-1.93-41.009-2.853-10.468-1.086-16.235-1.687-25.091-.4a.613.613,0,0,1-.478-.139.605.605,0,0,1-.211-.45l-.593-52.148a.6.6,0,0,1,.266-.507.616.616,0,0,1,.568-.056c.132.056,13.647,5.547,61.037,10.526,44.246,4.649,50.277.574,51.069-.789a.855.855,0,0,0,.117-.333l-.155-.564a.6.6,0,0,1,1.07-.511,1.771,1.771,0,0,1,.292.925l9.633,34.837a.606.606,0,0,1-.063.47C593.83,9551.6,586.4,9563.206,545.564,9563.207Zm-64.317-5.312a151.139,151.139,0,0,1,15.56,1.126c8.847.92,20.967,2.182,40.923,2.846,43.856,1.46,54-9.59,55.24-11.21l-9.174-33.18c-3.837,3.66-21.639,3.927-51.742.766-41.661-4.377-56.979-9.04-60.531-10.294l.575,50.583A66.207,66.207,0,0,1,481.247,9557.9Z" transform="translate(-470.309 -9506.475)" fill="#4d4d4d"/>
        </g>
        <path id="Trazado_106456" data-name="Trazado 106456" d="M471.413,9530.3l-4.645-4.954-2.721.205s-1.162.116-.929-.89l3.057-3.677s1.432-1.549,1.9.232l.155,3.1,4.146,4.857.5,1.529Z" transform="translate(-393.329 -9476.109)" fill="#999"/>
        <path id="Trazado_106457" data-name="Trazado 106457" d="M472.378,9540.116l-4.645-4.953-2.723.206s-1.16.116-.929-.89l3.059-3.678s1.432-1.549,1.9.232l.154,3.1,4.146,4.858.5,1.529Z" transform="translate(-393.132 -9474.107)" fill="#999"/>
        <path id="Trazado_106458" data-name="Trazado 106458" d="M521.2,9545.707c-10.152,0-18.648-.169-29.62-.983a.6.6,0,0,1-.556-.646.594.594,0,0,1,.645-.556c14.466,1.076,24.626,1.027,40.007.945,4.522-.023,9.5-.048,15.171-.048,27.545,0,37.192-9.438,37.285-9.532a.6.6,0,1,1,.856.846c-.4.4-10.1,9.89-38.141,9.89-5.671,0-10.644.025-15.165.049C527.925,9545.689,524.476,9545.707,521.2,9545.707Z" transform="translate(-387.638 -9473.186)" fill="#666"/>
        <path id="Trazado_106459" data-name="Trazado 106459" d="M552.392,9541.151q-1.491,0-3.048-.066c-21.1-.916-46.814-.075-47.073-.068h-.019a.6.6,0,0,1-.02-1.2c.256-.007,26.018-.85,47.164.068,20.857.915,32.519-7.888,32.633-7.977a.6.6,0,0,1,.738.952C582.653,9532.943,571.818,9541.151,552.392,9541.151Z" transform="translate(-385.474 -9473.781)" fill="#666"/>
      </g>
      <g id="Grupo_55467" data-name="Grupo 55467" transform="translate(455.926)">
        <g id="Grupo_55460" data-name="Grupo 55460" transform="translate(0 37.203)">
          <path id="Trazado_106460" data-name="Trazado 106460" d="M949.935,9573.262,925,9564.518l-19.217-6.639s-15.978-3.671-15.33-22.455l-1.08-29.58-20.241,4.061-20.242-4.061.108,29.526c.648,18.783-16.518,22.509-16.518,22.509l-19.216,6.639L789.131,9571c-2.59,6.964-5.019,16.031-4.7,33.036s4.211,27.367,4.211,27.367v21.051l14.25,63.391H935.36l14.249-63.391V9631.4s3.887-10.365,4.21-27.367S952.525,9580.226,949.935,9573.262Z" transform="translate(-783.805 -9505.11)" fill="#fff"/>
          <path id="Trazado_106461" data-name="Trazado 106461" d="M935.944,9716.565H802.516l-14.37-63.992v-20.946c-.408-1.148-3.906-11.457-4.211-27.461-.327-17.211,2.209-26.47,4.734-33.257l.108-.291,24.428-6.557,19.176-6.628c.749-.168,16.735-3.873,16.113-21.919l-.111-30.28,20.845,4.181,20.818-4.175,1.106,30.286c-.622,18.092,14.231,21.742,14.863,21.89l19.278,6.657,25.206,8.838.1.264c2.785,7.486,4.236,14.639,3.925,30.991-.306,16-3.8,26.313-4.211,27.461L950.3,9652.7Zm-132.465-1.2h131.5l14.131-62.856.038-21.2c.037-.1,3.853-10.479,4.172-27.166.3-15.966-1.082-23.034-3.752-30.283l-24.671-8.651-19.213-6.638c-.1-.019-16.393-3.982-15.736-23.044L888.9,9506.7l-19.666,3.945-19.637-3.94.106,28.788c.657,19.049-16.816,23.063-16.991,23.1l-19.148,6.62-23.869,6.41c-2.449,6.655-4.87,15.759-4.55,32.523.318,16.687,4.135,27.063,4.172,27.166l.039.213v20.983Z" transform="translate(-783.907 -9505.234)" fill="#999"/>
        </g>
        <g id="Grupo_55461" data-name="Grupo 55461" transform="translate(64.479 28.589)">
          <ellipse id="Elipse_4311" data-name="Elipse 4311" cx="20.242" cy="8.745" rx="20.242" ry="8.745" transform="translate(0.602 0.603)" fill="#fff"/>
          <path id="Trazado_106462" data-name="Trazado 106462" d="M858.318,9516.771c-11.687,0-20.843-4.1-20.843-9.346s9.156-9.348,20.843-9.348,20.844,4.107,20.844,9.348S870.006,9516.771,858.318,9516.771Zm0-17.49c-10.645,0-19.639,3.73-19.639,8.145s8.994,8.143,19.639,8.143,19.641-3.73,19.641-8.143S868.965,9499.281,858.318,9499.281Z" transform="translate(-837.475 -9498.078)" fill="#999"/>
        </g>
        <path id="Trazado_106463" data-name="Trazado 106463" d="M856.609,9522.607c-14.4,0-18.8-5.4-18.989-5.648l.946-.742c.047.061,4.877,5.886,20.989,5.113,15.985-.775,18.79-6.7,18.816-6.758l1.107.472c-.115.272-3,6.671-19.864,7.488Q858.043,9522.61,856.609,9522.607Z" transform="translate(-772.967 -9466.129)" fill="#999"/>
        <rect id="Rectángulo_9621" data-name="Rectángulo 9621" width="156.178" height="1.204" transform="translate(6.879 193.011)" fill="#999"/>
        <rect id="Rectángulo_9622" data-name="Rectángulo 9622" width="160.531" height="1.204" transform="translate(4.841 183.94)" fill="#999"/>
        <rect id="Rectángulo_9623" data-name="Rectángulo 9623" width="1.204" height="53.328" transform="translate(84.727 193.613)" fill="#999"/>
        <path id="Trazado_106464" data-name="Trazado 106464" d="M896.87,9642.841l-1.2-.012.6-58.944c1.584-25.514.551-30.367.507-30.561l1.17-.282c.047.193,1.131,5.02-.473,30.886Z" transform="translate(-761.143 -9458.293)" fill="#999"/>
        <rect id="Rectángulo_9624" data-name="Rectángulo 9624" width="55.06" height="1.204" transform="translate(125.517 247.832) rotate(-80.556)" fill="#999"/>
        <rect id="Rectángulo_9625" data-name="Rectángulo 9625" width="1.203" height="54.042" transform="matrix(0.987, -0.162, 0.162, 0.987, 35.811, 193.71)" fill="#999"/>
        <g id="Grupo_55465" data-name="Grupo 55465" transform="translate(74.433)">
          <g id="Grupo_55462" data-name="Grupo 55462" transform="translate(1.231)">
            <path id="Trazado_106465" data-name="Trazado 106465" d="M865.885,9487.279c0-6.878-4.167-12.453-9.308-12.453s-9.309,5.575-9.309,12.453c0,5.378,2.554,9.946,6.123,11.688v11.909h7.033v-12.268C863.643,9496.649,865.885,9492.318,865.885,9487.279Z" transform="translate(-846.666 -9474.225)" fill="#fff"/>
            <path id="Trazado_106466" data-name="Trazado 106466" d="M861.128,9511.58h-8.237v-12.145c-3.677-2-6.123-6.785-6.123-12.055,0-7.2,4.445-13.055,9.91-13.055s9.911,5.857,9.911,13.055c0,4.928-2.134,9.459-5.461,11.662Zm-7.033-1.2h5.83v-12l.289-.176c3.142-1.912,5.172-6.158,5.172-10.816,0-6.533-3.906-11.85-8.708-11.85s-8.706,5.316-8.706,11.85c0,4.979,2.326,9.459,5.786,11.148l.337.164Z" transform="translate(-846.768 -9474.326)" fill="#999"/>
          </g>
          <g id="Grupo_55463" data-name="Grupo 55463" transform="translate(0 15.033)">
            <rect id="Rectángulo_9626" data-name="Rectángulo 9626" width="21.83" height="3.641" rx="1.435" transform="translate(0.601 0.601)" fill="#fff"/>
            <path id="Trazado_106467" data-name="Trazado 106467" d="M866.45,9491.658H848.073a2.331,2.331,0,0,1-2.328-2.326v-.189a2.33,2.33,0,0,1,2.328-2.326H866.45a2.33,2.33,0,0,1,2.328,2.326v.189A2.331,2.331,0,0,1,866.45,9491.658Zm-18.377-3.639a1.125,1.125,0,0,0-1.124,1.123v.189a1.125,1.125,0,0,0,1.124,1.123H866.45a1.125,1.125,0,0,0,1.124-1.123v-.189a1.125,1.125,0,0,0-1.124-1.123Z" transform="translate(-845.745 -9486.816)" fill="#999"/>
          </g>
          <g id="Grupo_55464" data-name="Grupo 55464" transform="translate(0 8.081)">
            <rect id="Rectángulo_9627" data-name="Rectángulo 9627" width="21.83" height="3.641" rx="1.435" transform="translate(0.601 0.602)" fill="#fff"/>
            <path id="Trazado_106468" data-name="Trazado 106468" d="M866.45,9485.886H848.073a2.332,2.332,0,0,1-2.328-2.33v-.187a2.332,2.332,0,0,1,2.328-2.329H866.45a2.332,2.332,0,0,1,2.328,2.329v.187A2.332,2.332,0,0,1,866.45,9485.886Zm-18.377-3.642a1.125,1.125,0,0,0-1.124,1.125v.187a1.126,1.126,0,0,0,1.124,1.126H866.45a1.126,1.126,0,0,0,1.124-1.126v-.187a1.125,1.125,0,0,0-1.124-1.125Z" transform="translate(-845.745 -9481.04)" fill="#999"/>
          </g>
        </g>
        <rect id="Rectángulo_9628" data-name="Rectángulo 9628" width="1.204" height="127.875" transform="translate(85.347 55.802)" fill="#999"/>
        <path id="Trazado_106469" data-name="Trazado 106469" d="M814.514,9642.841l-.6-58.944c-1.6-25.835-.52-30.661-.472-30.854l1.168.286-.584-.144.585.14c-.044.193-1.076,5.047.506,30.528l.6,58.977Z" transform="translate(-777.974 -9458.293)" fill="#999"/>
        <g id="Grupo_55466" data-name="Grupo 55466" transform="translate(50.328 55.204)" opacity="0.36">
          <path id="Trazado_106470" data-name="Trazado 106470" d="M894.977,9545.8s-8.892,19.323-10.826,26.122c-1.4,4.939-3.3,20.275-3.3,20.275s-4.59-3.531-14.362-8.134c-1.124-.528.147-6.487-1.183-7.222-.515-.284-1.266,5.279-1.895,5.279-2.814,0-4.282-1.093-7.238-1.093,0,0-2.5-6.652-.838-8.164,0,0-2.511,5.295-3.034,6.7l-7.85-4.5.628-7.729-5.385,5.25-4.94-5.25,5.506-5.68-2.158-2.591-6.654,5.183-5.229-10.108,10.1-3.908a46.394,46.394,0,0,0-.268-9.954h0s.088-13.113.627-19.592c0,0,6.444,12.126,23.717,15.272S892.187,9545.587,894.977,9545.8Z" transform="translate(-825.617 -9520.087)" fill="#999"/>
          <path id="Trazado_106471" data-name="Trazado 106471" d="M880.955,9592.9a.591.591,0,0,1-.367-.125c-.046-.035-4.667-3.552-14.253-8.065-.886-.418-.875-1.868-.861-3.875a23.6,23.6,0,0,0-.073-2.456c-.1.388-.208.816-.294,1.164-.595,2.439-.838,3.281-1.592,3.281a14.1,14.1,0,0,1-3.672-.555,13.509,13.509,0,0,0-3.565-.537.6.6,0,0,1-.563-.392,26.133,26.133,0,0,1-1.3-4.751c-.611,1.331-1.219,2.686-1.443,3.286a.609.609,0,0,1-.36.356.6.6,0,0,1-.5-.046l-7.85-4.5a.6.6,0,0,1-.3-.57l.5-6.129-4.236,4.128a.511.511,0,0,1-.432.171.606.606,0,0,1-.426-.188l-4.94-5.252a.6.6,0,0,1,.006-.831l5.129-5.289-1.44-1.729-6.193,4.824a.614.614,0,0,1-.5.114.606.606,0,0,1-.406-.312l-5.23-10.108a.6.6,0,0,1-.029-.488.61.61,0,0,1,.347-.349l9.745-3.773a44.489,44.489,0,0,0-.289-9.421l-.336-1.87a.652.652,0,0,1-.01-.107.6.6,0,0,1,.362-.551c.054-4.112.208-12.478.6-17.221a.6.6,0,0,1,.478-.537.6.6,0,0,1,.652.3c.064.119,6.532,11.91,23.295,14.962a190.2,190.2,0,0,1,28.119,7.858,46.273,46.273,0,0,0,6.4,1.981.6.6,0,0,1,.5.851c-.088.193-8.893,19.358-10.792,26.035-1.376,4.839-3.261,20.032-3.28,20.185a.6.6,0,0,1-.6.528Zm-15.594-16.561a.728.728,0,0,1,.339.078c1.006.555.992,2.35.977,4.426a8.784,8.784,0,0,0,.219,2.812,95.378,95.378,0,0,1,13.587,7.562c.449-3.52,1.983-15.109,3.191-19.358,1.737-6.109,8.892-21.91,10.532-25.5-1.218-.287-3.189-.97-5.875-1.9a186.118,186.118,0,0,0-27.942-7.81c-13.629-2.483-20.7-10.594-23.138-14.027-.4,6.5-.49,16.854-.5,17.705a46.649,46.649,0,0,1,.267,10.055.6.6,0,0,1-.383.51l-9.475,3.668,4.59,8.867,6.081-4.736a.6.6,0,0,1,.832.089l2.159,2.592a.6.6,0,0,1-.029.8l-5.107,5.266,4.128,4.386,4.946-4.824a.6.6,0,0,1,1.02.482l-.6,7.349,6.921,3.967c.558-1.317,1.626-3.614,2.267-4.981a2.341,2.341,0,0,1,.663-1.3.6.6,0,0,1,.948.7c-.007.016-.2.427-.491,1.042-.2,1.462.474,4.213,1.206,6.27a15.447,15.447,0,0,1,3.437.568,13.417,13.417,0,0,0,3.133.515,19.262,19.262,0,0,0,.668-2.358c.515-2.109.7-2.667,1.157-2.869A.665.665,0,0,1,865.361,9576.344Z" transform="translate(-825.719 -9520.189)" fill="#4d4d4d"/>
        </g>
        <path id="Trazado_106472" data-name="Trazado 106472" d="M844.439,9556.69l-.951-7.2-2.494-1.516s-1.081-.623-.253-1.352l4.946-1.292s2.208-.453,1.5,1.383l-1.793,2.787.578,6.8-.518,1.64Z" transform="translate(-772.395 -9459.872)" fill="#666"/>
        <path id="Trazado_106473" data-name="Trazado 106473" d="M859.782,9562.637c-20.392,0-26.426-18.885-26.485-19.076l1.15-.354c.057.186,5.854,18.227,25.336,18.227h.168c19.609-.105,24.714-18.025,24.763-18.207l1.162.316c-.052.189-5.378,18.984-25.918,19.094Z" transform="translate(-773.847 -9460.296)" fill="#999"/>
        <path id="Trazado_106474" data-name="Trazado 106474" d="M835.12,9547.586l-4.965-5.295-2.909.221s-1.241.123-.993-.952l3.268-3.931s1.531-1.655,2.027.248l.166,3.31,4.431,5.192.533,1.634Z" transform="translate(-775.289 -9461.569)" fill="#666"/>
        <path id="Trazado_106475" data-name="Trazado 106475" d="M853.722,9560.328l-.951-7.2-2.494-1.516s-1.081-.623-.253-1.352l4.946-1.292s2.208-.454,1.5,1.382l-1.794,2.787.578,6.8-.518,1.641Z" transform="translate(-770.504 -9459.132)" fill="#666"/>
        <path id="Trazado_106476" data-name="Trazado 106476" d="M880.715,9576.479c-39.024-7.24-46.512-30.809-46.583-31.047l1.152-.346c.07.23,7.4,23.111,45.65,30.21Z" transform="translate(-773.677 -9459.913)" fill="#666"/>
        <path id="Trazado_106477" data-name="Trazado 106477" d="M880.51,9571.437c-.223-.009-22.59-1.123-41.169-23.257l.922-.772c18.22,21.706,40.076,22.818,40.293,22.825Z" transform="translate(-772.616 -9459.441)" fill="#666"/>
        <path id="Trazado_106478" data-name="Trazado 106478" d="M815.607,9632.956l-4.965-5.3-2.909.222s-1.241.124-.993-.952l3.268-3.931s1.531-1.655,2.027.248l.166,3.311,4.431,5.191.533,1.634Z" transform="translate(-779.263 -9444.181)" fill="#666"/>
        <path id="Trazado_106479" data-name="Trazado 106479" d="M896.519,9633.673l4.964-5.3,2.91.222s1.241.123.993-.951l-3.268-3.931s-1.531-1.655-2.028.248l-.165,3.309-4.431,5.192-.534,1.636Z" transform="translate(-761.287 -9444.034)" fill="#666"/>
      </g>
      <g id="Grupo_55478" data-name="Grupo 55478" transform="translate(226.165 5.092)">
        <g id="Grupo_55468" data-name="Grupo 55468" transform="translate(0 30.32)">
          <path id="Trazado_106480" data-name="Trazado 106480" d="M762.958,9624.543l4.727,18.023a30.066,30.066,0,0,1-1.034,22.455c-5.466,11.67-10.046,19.646-10.046,19.646a82.044,82.044,0,0,0-7.977,24.818H623.061l-24.523-73.125-4.58-16.545s-2.511-14.182,4.728-21.715,13.295-13.592,13.295-13.592l30.875-25.26s16.546-16.1,18.762-18.762,7.977-16.693,7.977-16.693,4.137-11.523,4.284-14.33,5.91-5.613,14.626-5.17,24.375,7.387,28.068,15.807c0,0-5.171,14.625-6.648,20.977s-1.92,17.137-1.92,17.137a152.436,152.436,0,0,0,31.023,15.066c16.4,5.467,21.42,13.3,21.42,13.3s3.693,7.34,3.1,20.289S762.958,9624.543,762.958,9624.543Z" transform="translate(-592.922 -9503.644)" fill="#fff"/>
          <path id="Trazado_106481" data-name="Trazado 106481" d="M749.26,9710.19H622.733l-24.661-73.535-4.588-16.575c-.118-.646-2.493-14.628,4.874-22.294,7.16-7.453,13.242-13.538,13.3-13.6l30.92-25.3c.125-.126,16.51-16.075,18.68-18.681,2.132-2.559,7.825-16.4,7.882-16.536.033-.089,4.1-11.446,4.242-14.134.163-3.124,6.04-6.218,15.254-5.738,8.856.45,24.762,7.436,28.589,16.165l.1.22-.079.224c-.052.146-5.176,14.666-6.629,20.913-1.3,5.595-1.8,14.8-1.89,16.682,2.126,1.359,15.712,9.852,30.6,14.813,16.411,5.471,21.527,13.215,21.736,13.543.185.359,3.788,7.683,3.2,20.642-.543,11.912-.587,16.911-.59,17.572l4.708,17.946a30.338,30.338,0,0,1-1.071,22.863c-5.414,11.559-10.023,19.612-10.069,19.69a82.124,82.124,0,0,0-7.9,24.6Zm-125.663-1.2H748.209a83.738,83.738,0,0,1,7.971-24.5c.054-.094,4.639-8.107,10.03-19.617a29.64,29.64,0,0,0,1.022-21.972l-4.771-18.251c0-.046.006-4.889.592-17.7.574-12.616-3-19.92-3.041-19.991-.017-.021-5.112-7.675-21.073-13-16.284-5.427-31.015-15.039-31.162-15.136l-.284-.187.012-.341c0-.108.463-10.913,1.937-17.246,1.366-5.879,5.923-18.927,6.585-20.813-3.769-8.1-19.165-14.813-27.45-15.235-8.831-.45-13.881,2.435-13.993,4.6-.15,2.862-4.149,14.027-4.319,14.5-.247.6-5.832,14.176-8.082,16.874-2.21,2.652-18.128,18.148-18.8,18.807l-30.914,25.3c-.014.02-6.089,6.1-13.242,13.542-6.938,7.223-4.593,21.055-4.569,21.193l4.567,16.488Z" transform="translate(-593.026 -9503.746)" fill="#999"/>
        </g>
        <path id="Trazado_106482" data-name="Trazado 106482" d="M644.586,9709.582l-6.352-48.455c-.044-.373-4.431-36.73-3.847-52.988.59-16.318,13.216-46.443,13.343-46.746l10.8-22.187,16.073-35.029,1.093.5-16.079,35.039-10.79,22.172c-.112.27-12.654,30.193-13.235,46.291-.581,16.162,3.794,52.428,3.837,52.793l6.352,48.449Z" transform="translate(-584.613 -9473.338)" fill="#999"/>
        <path id="Trazado_106483" data-name="Trazado 106483" d="M668.59,9698.646h-1.2l.008-41.066c-.294-41.293,8.665-64.837,8.756-65.07,11.354-36.427,28.053-37.9,28.759-37.939l.077,1.2c-.164.011-16.611,1.565-27.7,37.134-.1.271-8.979,23.626-8.688,64.669Z" transform="translate(-577.88 -9463.075)" fill="#999"/>
        <path id="Trazado_106484" data-name="Trazado 106484" d="M626.229,9696.006l-13.295-43.875c-.076-.246-7.574-24.982-9.331-46.658-1.774-21.867,11.541-36.939,11.675-37.09l.9.807c-.131.146-13.1,14.85-11.371,36.188,1.747,21.543,9.208,46.158,9.284,46.4l13.295,43.877Z" transform="translate(-590.905 -9460.26)" fill="#999"/>
        <ellipse id="Elipse_4312" data-name="Elipse 4312" cx="2.314" cy="4.038" rx="2.314" ry="4.038" transform="translate(156.888 135.709)" fill="#999"/>
        <path id="Trazado_106485" data-name="Trazado 106485" d="M725.52,9631.3c-7.683,0-13.7-13.566-13.7-30.885s6.017-30.885,13.7-30.885,13.7,13.564,13.7,30.885S733.2,9631.3,725.52,9631.3Zm0-60.566c-6.891,0-12.5,13.314-12.5,29.682s5.606,29.682,12.5,29.682,12.5-13.316,12.5-29.682S732.412,9570.732,725.52,9570.732Z" transform="translate(-568.83 -9460.027)" fill="#999"/>
        <path id="Trazado_106486" data-name="Trazado 106486" d="M700.2,9527.354c-5.149-8.014-13.046-12.977-24.14-15.176-10.582-2.094-16.247,1.141-16.3,1.172l-.611-1.035c.247-.145,6.118-3.5,17.149-1.316,11.271,2.234,19.656,7.518,24.919,15.705Z" transform="translate(-579.559 -9472.099)" fill="#999"/>
        <path id="Trazado_106487" data-name="Trazado 106487" d="M659.114,9522.09l-4.528-4.832-2.655.2s-1.131.114-.905-.869l2.982-3.584s1.4-1.51,1.849.226l.152,3.019,4.041,4.737.488,1.492Z" transform="translate(-581.219 -9471.665)" fill="#999"/>
        <path id="Trazado_106488" data-name="Trazado 106488" d="M653.682,9533.6l-4.528-4.831-2.655.2s-1.131.112-.905-.869l2.981-3.585s1.4-1.51,1.849.227l.152,3.021,4.042,4.734.486,1.493Z" transform="translate(-582.325 -9469.321)" fill="#999"/>
        <rect id="Rectángulo_9629" data-name="Rectángulo 9629" width="66.886" height="1.203" transform="translate(142.875 236.039) rotate(-78.273)" fill="#999"/>
        <path id="Trazado_106489" data-name="Trazado 106489" d="M711.75,9685.984l-1.177-.246.4-1.887,1.177.247Zm1.14-5.419-1.177-.246.743-3.535,1.178.247Zm1.487-7.067-1.178-.248.745-3.535,1.177.249Zm1.487-7.067-1.177-.248.743-3.533,1.177.247Zm1.488-7.069-1.178-.247.743-3.533,1.178.247Zm1.485-7.065-1.178-.248.745-3.535,1.177.25Zm1.487-7.068-1.177-.247.743-3.533,1.177.247Zm1.487-7.068-1.178-.248.744-3.531,1.178.248Zm1.487-7.066-1.177-.247.743-3.533,1.177.246Zm1.487-7.068-1.177-.247.743-3.533,1.178.248Z" transform="translate(-569.084 -9449.698)" fill="#999"/>
        <g id="Grupo_55469" data-name="Grupo 55469" transform="translate(144.197 170.548)">
          <rect id="Rectángulo_9630" data-name="Rectángulo 9630" width="1.806" height="1.203" transform="translate(13.215 1.768) rotate(-78.273)" fill="#999"/>
          <path id="Trazado_106490" data-name="Trazado 106490" d="M714.933,9679.653l-1.178-.244.756-3.646,1.178.244Zm1.511-7.29-1.178-.244.756-3.645,1.178.245Zm1.512-7.289-1.178-.244.756-3.646,1.178.244Zm1.511-7.288-1.177-.244.756-3.646,1.177.244Zm1.512-7.29-1.177-.245.756-3.643,1.177.245Zm1.512-7.289-1.177-.245.755-3.644,1.177.244Zm1.511-7.288-1.177-.244.755-3.646,1.178.244Zm1.512-7.29-1.178-.245.756-3.643,1.178.244Z" transform="translate(-712.632 -9619.328)" fill="#999"/>
          <rect id="Rectángulo_9631" data-name="Rectángulo 9631" width="1.806" height="1.203" transform="translate(0 65.493) rotate(-78.273)" fill="#999"/>
        </g>
        <g id="Grupo_55470" data-name="Grupo 55470" transform="translate(70.173 67.586)" opacity="0.36">
          <path id="Trazado_106491" data-name="Trazado 106491" d="M661.613,9538.515l-2.561,5.712-7.228-3.514,2.679-5.5Z" transform="translate(-651.223 -9534.604)" fill="#999"/>
          <path id="Trazado_106492" data-name="Trazado 106492" d="M659.154,9544.931a.6.6,0,0,1-.264-.06l-7.227-3.514a.6.6,0,0,1-.278-.8l2.679-5.506a.6.6,0,0,1,.794-.283l7.109,3.307a.6.6,0,0,1,.3.791l-2.561,5.714a.6.6,0,0,1-.344.318A.551.551,0,0,1,659.154,9544.931Zm-6.423-4.394,6.127,2.981,2.064-4.607-6.034-2.807Z" transform="translate(-651.325 -9534.707)" fill="#4d4d4d"/>
        </g>
        <g id="Grupo_55471" data-name="Grupo 55471" transform="translate(80.651 71.388)" opacity="0.36">
          <path id="Trazado_106493" data-name="Trazado 106493" d="M660.529,9538.364l.492,6.106,10.636,4.333,1.8-6.408Z" transform="translate(-659.928 -9537.764)" fill="#999"/>
          <path id="Trazado_106494" data-name="Trazado 106494" d="M671.76,9549.507a.591.591,0,0,1-.227-.045l-10.637-4.331a.607.607,0,0,1-.372-.511l-.492-6.105a.6.6,0,0,1,.223-.52.611.611,0,0,1,.555-.1l12.925,4.033a.6.6,0,0,1,.4.735l-1.8,6.408a.6.6,0,0,1-.314.379A.617.617,0,0,1,671.76,9549.507Zm-10.066-5.353,9.669,3.939,1.455-5.2-11.517-3.593Z" transform="translate(-660.029 -9537.864)" fill="#4d4d4d"/>
        </g>
        <g id="Grupo_55472" data-name="Grupo 55472" transform="translate(95.028 76.606)" opacity="0.36">
          <path id="Trazado_106495" data-name="Trazado 106495" d="M672.474,9542.7v6.7l10.538,3.545-.324-6.3Z" transform="translate(-671.872 -9542.098)" fill="#999"/>
          <path id="Trazado_106496" data-name="Trazado 106496" d="M683.114,9553.646a.612.612,0,0,1-.191-.031l-10.538-3.544a.6.6,0,0,1-.41-.571v-6.7a.6.6,0,0,1,.261-.5.594.594,0,0,1,.557-.064l10.213,3.938a.6.6,0,0,1,.384.533l.325,6.3a.6.6,0,0,1-.237.511A.61.61,0,0,1,683.114,9553.646Zm-9.936-4.578,9.29,3.124-.259-5.028-9.031-3.484Z" transform="translate(-671.974 -9542.2)" fill="#4d4d4d"/>
        </g>
        <g id="Grupo_55473" data-name="Grupo 55473" transform="translate(107.986 82.811)" opacity="0.36">
          <path id="Trazado_106497" data-name="Trazado 106497" d="M683.238,9547.854l3,8.175,15.068-.493Z" transform="translate(-682.637 -9547.253)" fill="#999"/>
          <path id="Trazado_106498" data-name="Trazado 106498" d="M686.338,9556.734a.605.605,0,0,1-.566-.395l-3-8.176a.6.6,0,0,1,.8-.762l18.066,7.684a.6.6,0,0,1,.356.664.606.606,0,0,1-.572.492l-15.068.492Zm-1.954-7.68,2.369,6.461,11.909-.389Z" transform="translate(-682.739 -9547.354)" fill="#4d4d4d"/>
        </g>
        <path id="Trazado_106499" data-name="Trazado 106499" d="M688.2,9550.523a.556.556,0,0,1-.235-.05c-.1-.041-2.453-1.108-9.071-8.726-6.358-7.314-18.154-7.67-18.273-7.672a.6.6,0,0,1,.014-1.2h.013c.506.012,12.451.374,19.153,8.086,6.331,7.288,8.624,8.405,8.646,8.414a.607.607,0,0,1,.3.795A.6.6,0,0,1,688.2,9550.523Z" transform="translate(-579.379 -9467.493)" fill="#4d4d4d"/>
        <path id="Trazado_106500" data-name="Trazado 106500" d="M702.485,9557.009a.587.587,0,0,1-.335-.1c-4.395-2.947-9.314-6.974-9.363-7.014-.394-.27-2.551-1.833-2.477-3.291a1.54,1.54,0,0,1,.893-1.3c1.944-1.069,3.818.724,4.537,1.823a.6.6,0,0,1-1.006.659c-.016-.023-1.5-2.234-2.949-1.427-.264.145-.27.26-.272.3-.028.56,1.142,1.677,2,2.269.088.07,4.964,4.06,9.31,6.976a.6.6,0,0,1-.336,1.1Z" transform="translate(-573.211 -9465.029)" fill="#4d4d4d"/>
        <path id="Trazado_106501" data-name="Trazado 106501" d="M655.06,9538.535a.6.6,0,0,1-.417-1.035c.367-.355.734-.7,1.1-1.039a27.449,27.449,0,0,0,4.829-5.494c1.845-2.861,1.774-8.475,1.773-8.531a.6.6,0,0,1,.591-.611.61.61,0,0,1,.613.592c0,.244.079,6.033-1.967,9.2a28.716,28.716,0,0,1-5.016,5.719c-.36.336-.722.678-1.088,1.031A.611.611,0,0,1,655.06,9538.535Z" transform="translate(-580.513 -9469.743)" fill="#4d4d4d"/>
        <g id="Grupo_55477" data-name="Grupo 55477" transform="translate(90.111)">
          <g id="Grupo_55474" data-name="Grupo 55474" transform="translate(1.1)">
            <path id="Trazado_106502" data-name="Trazado 106502" d="M685.922,9490.174c0-6.139-3.721-11.116-8.31-11.116s-8.309,4.978-8.309,11.116c0,4.8,2.28,8.88,5.466,10.434v10.63h6.278v-10.95C683.921,9498.538,685.922,9494.672,685.922,9490.174Z" transform="translate(-668.701 -9478.456)" fill="#fff"/>
            <path id="Trazado_106503" data-name="Trazado 106503" d="M681.751,9511.94h-7.482v-10.866c-3.284-1.809-5.466-6.089-5.466-10.8,0-6.462,4-11.719,8.912-11.719s8.911,5.257,8.911,11.719c0,4.4-1.9,8.459-4.875,10.443Zm-6.278-1.2h5.075v-10.687l.289-.176c2.786-1.7,4.586-5.466,4.586-9.6,0-5.8-3.457-10.515-7.707-10.515s-7.708,4.717-7.708,10.515c0,4.42,2.061,8.4,5.129,9.893l.337.166Z" transform="translate(-668.803 -9478.557)" fill="#999"/>
          </g>
          <g id="Grupo_55475" data-name="Grupo 55475" transform="translate(0 13.418)">
            <rect id="Rectángulo_9632" data-name="Rectángulo 9632" width="19.487" height="3.25" rx="1.35" transform="translate(0.601 0.602)" fill="#fff"/>
            <path id="Trazado_106504" data-name="Trazado 106504" d="M686.352,9494.159H670.116a2.228,2.228,0,0,1,0-4.455h16.237a2.228,2.228,0,1,1,0,4.455Zm-16.237-3.251a1.024,1.024,0,0,0,0,2.048h16.237a1.024,1.024,0,1,0,0-2.048Z" transform="translate(-667.889 -9489.704)" fill="#999"/>
          </g>
          <g id="Grupo_55476" data-name="Grupo 55476" transform="translate(0 7.214)">
            <rect id="Rectángulo_9633" data-name="Rectángulo 9633" width="19.487" height="3.25" rx="1.35" transform="translate(0.601 0.602)" fill="#fff"/>
            <path id="Trazado_106505" data-name="Trazado 106505" d="M686.352,9489H670.116a2.227,2.227,0,0,1,0-4.454h16.237a2.227,2.227,0,1,1,0,4.454Zm-16.237-3.25a1.023,1.023,0,0,0,0,2.047h16.237a1.023,1.023,0,1,0,0-2.047Z" transform="translate(-667.889 -9484.55)" fill="#999"/>
          </g>
        </g>
      </g>
      <g id="Grupo_55479" data-name="Grupo 55479" transform="translate(299.017 43.655)" opacity="0.36">
        <path id="Trazado_106506" data-name="Trazado 106506" d="M654.05,9540.122s12.155-24.437,12.258-28.951c0,0,22.721-2.079,34.339,14.176,16.045,22.451,40.711,39.114,55.155,40.789l-6.425,22.443s-2.157-8.052-17.439-14.332-34.279-13.45-38.884-17.218-20.949-10.579-30.024-13.712C654.693,9540.439,654.05,9540.122,654.05,9540.122Z" transform="translate(-653.448 -9510.494)" fill="#999"/>
        <path id="Trazado_106507" data-name="Trazado 106507" d="M749.479,9589.279h0a.6.6,0,0,1-.578-.443c-.021-.076-2.323-7.862-17.086-13.93-3.085-1.27-6.32-2.573-9.56-3.878-13.232-5.332-25.731-10.367-29.477-13.434-4.5-3.683-20.5-10.385-29.838-13.607-8.139-2.811-8.982-3.192-9.051-3.226a.606.606,0,0,1-.3-.349.591.591,0,0,1,.031-.459c4.183-8.412,12.115-25.23,12.195-28.7a.6.6,0,0,1,.546-.585c.226-.022,23.2-1.922,34.884,14.426,16.46,23.031,41.227,38.977,54.735,40.541a.6.6,0,0,1,.509.763l-6.426,22.443A.6.6,0,0,1,749.479,9589.279Zm-94.5-49.377c.882.33,3.065,1.123,8.346,2.947,9.42,3.252,25.6,10.044,30.208,13.813,3.605,2.951,16.6,8.186,29.165,13.248,3.242,1.306,6.479,2.61,9.568,3.879,11.428,4.7,15.646,10.361,17.095,13.1l5.769-20.15c-13.9-2.048-38.5-18.038-54.875-40.944-10.351-14.479-29.945-14.132-33.3-13.959C666.163,9517.073,656.807,9536.2,654.982,9539.9Zm-.831.318h0Z" transform="translate(-653.55 -9510.594)" fill="#4d4d4d"/>
      </g>
      <path id="Trazado_106508" data-name="Trazado 106508" d="M662.67,9540.286l-1.661-6.41-2.427-1.1s-1.047-.442-.379-1.194l4.336-1.72s1.949-.656,1.514,1.085l-1.313,2.723,1.278,6.094-.288,1.542Z" transform="translate(-353.631 -9463.038)" fill="#999"/>
      <path id="Trazado_106509" data-name="Trazado 106509" d="M682.7,9548.267l-1.661-6.411-2.427-1.1s-1.047-.442-.379-1.2l4.336-1.719s1.949-.655,1.514,1.084l-1.314,2.724,1.28,6.093-.288,1.543Z" transform="translate(-349.551 -9461.413)" fill="#999"/>
    </g>
  </g>
</svg>
