<svg xmlns="http://www.w3.org/2000/svg" width="293.459" height="552.013" viewBox="0 0 293.459 552.013">
  <g id="Grupo_55619" data-name="Grupo 55619" transform="translate(-680.275 -6906.783)">
    <rect id="Rectángulo_9701" data-name="Rectángulo 9701" width="293.459" height="552.013" rx="22.746" transform="translate(680.275 6906.783)" fill="#fff"/>
    <g id="Grupo_55618" data-name="Grupo 55618" transform="translate(728.513 6927.683)">
      <g id="Grupo_55604" data-name="Grupo 55604" transform="translate(10.293)" opacity="0.88">
        <path id="Trazado_106905" data-name="Trazado 106905" d="M742.228,7026.255l-6.589-32.812-7.4-39.245s46.8-22.2,79.373-24.448c0,0,28.173-6.112,39.059-5.469,0,0,4.48,49.539,8.326,56.938,0,0-51.484-.966-69.821,12.546,0,0-12.867,9.329-12.545,25.733a41.6,41.6,0,0,1-5.9,5.792c-2.681,1.93-3.763,2.036-3.763,2.036l-1.437-7.988Z" transform="translate(-727.624 -6923.616)" fill="#999"/>
        <path id="Trazado_106906" data-name="Trazado 106906" d="M763.09,7028.062a.616.616,0,0,1-.608-.507l-1.308-7.272-18.622,6.671a.625.625,0,0,1-.512-.044.616.616,0,0,1-.3-.415l-6.589-32.812-7.4-39.253a.618.618,0,0,1,.343-.672c.469-.221,47.279-22.271,79.6-24.506,1.065-.236,28.3-6.121,39.136-5.468a.617.617,0,0,1,.578.56c.044.493,4.513,49.5,8.258,56.709a.615.615,0,0,1-.024.609.525.525,0,0,1-.535.292c-.5-.009-51.483-.806-69.442,12.426-.129.094-12.606,9.348-12.294,25.227a.631.631,0,0,1-.144.407,41.452,41.452,0,0,1-6.01,5.895c-2.735,1.972-3.935,2.139-4.063,2.151Zm-1.438-9.222a.611.611,0,0,1,.308.083.618.618,0,0,1,.3.424l1.313,7.3a15.359,15.359,0,0,0,2.92-1.74,39.939,39.939,0,0,0,5.638-5.512c-.2-16.395,12.673-25.919,12.8-26.015,17.128-12.618,61.876-12.761,69.233-12.674-3.577-9.312-7.438-50.265-7.94-55.72-11.033-.413-38.085,5.42-38.363,5.48-30.515,2.115-74.016,21.975-78.811,24.2l7.31,38.774,6.446,32.1,18.636-6.675A.609.609,0,0,1,761.652,7018.84Z" transform="translate(-727.74 -6923.732)" fill="#4d4d4d"/>
      </g>
      <g id="Grupo_55614" data-name="Grupo 55614" transform="translate(40.574 27.854)">
        <g id="Grupo_55605" data-name="Grupo 55605" transform="translate(0 35.018)" opacity="0.33">
          <path id="Trazado_106907" data-name="Trazado 106907" d="M893.988,7243.1l-8.874-22.065V7213.6l8.036-50.2,10.928-50v-19.824s3.56-9.762,3.856-25.774-1.186-22.418-3.559-28.976l-22.836-8.234-17.6-6.254s-14.631-3.456-14.038-21.146l-.988-27.857-18.536,3.825-18.536-3.825.1,27.806c.593,17.691-15.126,21.2-15.126,21.2l-17.6,6.254-22.1,6.1c-2.374,6.56-4.6,15.1-4.3,31.111s3.856,25.774,3.856,25.774V7113.4l10.928,50h0l1.593,7.288,9.186,42.915v8.636s-16.309,34.536-17.988,62.118V7421.3H907.942l-1.962-114.643S905.74,7263.964,893.988,7243.1Z" transform="translate(-752.18 -6974.575)" fill="#fff"/>
          <path id="Trazado_106908" data-name="Trazado 106908" d="M908.686,7422.058H759.9V7284.494c1.618-26.583,16.906-59.926,17.989-62.255v-8.434l-10.764-50.137-10.943-50.127v-19.72c-.384-1.112-3.577-10.817-3.856-25.868-.3-16.218,2.024-24.939,4.338-31.332l.109-.3,22.4-6.185,17.554-6.237c.693-.161,15.286-3.643,14.716-20.6l-.1-28.584,19.155,3.952,19.126-3.945,1.015,28.587c-.571,17.031,13.421,20.536,13.563,20.569l17.662,6.271,23.112,8.334.1.271c2.552,7.056,3.881,13.8,3.6,29.2-.28,15.051-3.475,24.756-3.857,25.868l-.015,19.852-10.927,50-8.03,50.169.007,7.22,8.813,21.916c11.677,20.778,12.05,63.393,12.053,63.821Zm-147.556-1.233h146.3L905.48,7306.81c0-.433-.376-42.779-11.913-63.266l-.036-.072-8.917-22.295v-7.437l8.044-50.3,10.921-49.964.037-19.97c.035-.1,3.528-9.866,3.82-25.574.277-15.008-.988-21.664-3.426-28.484l-22.563-8.135-17.6-6.253c-.086-.015-15.052-3.762-14.449-21.747l-.962-27.086-17.946,3.7-.123-.027-17.794-3.67.1,27.045c.6,17.976-15.446,21.769-15.608,21.8l-17.525,6.23-21.829,6.027c-2.239,6.26-4.449,14.827-4.157,30.592.291,15.708,3.783,25.477,3.818,25.574l.038.211v19.759l12.506,57.218,9.2,43.046-.059,8.9c-.163.344-16.279,34.747-17.931,61.891Z" transform="translate(-752.297 -6974.718)"/>
        </g>
        <g id="Grupo_55606" data-name="Grupo 55606" transform="translate(25.423 273.384)">
          <path id="Trazado_106909" data-name="Trazado 106909" d="M858.869,7177.931l-2.762-3.256,2.592-2.8-2.465-3.161.89-.693,3.053,3.916-2.562,2.772,2.116,2.494Z" transform="translate(-753.518 -7168.02)" fill="#999"/>
          <path id="Trazado_106910" data-name="Trazado 106910" d="M856.348,7177.931l-2.762-3.256,2.592-2.8-2.465-3.161.89-.693,3.053,3.916-2.562,2.772,2.116,2.494Z" transform="translate(-754.106 -7168.02)" fill="#999"/>
          <path id="Trazado_106911" data-name="Trazado 106911" d="M853.827,7177.931l-2.762-3.256,2.592-2.8-2.465-3.161.89-.693,3.053,3.916-2.562,2.772,2.116,2.494Z" transform="translate(-754.694 -7168.02)" fill="#999"/>
          <path id="Trazado_106912" data-name="Trazado 106912" d="M851.306,7177.931l-2.762-3.256,2.592-2.8-2.465-3.161.89-.693,3.053,3.916-2.562,2.772,2.116,2.494Z" transform="translate(-755.281 -7168.02)" fill="#999"/>
          <path id="Trazado_106913" data-name="Trazado 106913" d="M848.785,7177.931l-2.762-3.256,2.592-2.8-2.465-3.161.89-.693,3.053,3.916-2.562,2.772,2.116,2.494Z" transform="translate(-755.869 -7168.02)" fill="#999"/>
          <path id="Trazado_106914" data-name="Trazado 106914" d="M846.264,7177.931l-2.762-3.256,2.592-2.8-2.465-3.161.89-.693,3.053,3.916-2.562,2.772,2.116,2.494Z" transform="translate(-756.457 -7168.02)" fill="#999"/>
          <path id="Trazado_106915" data-name="Trazado 106915" d="M843.743,7177.931l-2.762-3.256,2.592-2.8-2.465-3.161.89-.693,3.053,3.916-2.562,2.772,2.116,2.494Z" transform="translate(-757.045 -7168.02)" fill="#999"/>
          <path id="Trazado_106916" data-name="Trazado 106916" d="M841.222,7177.931l-2.762-3.256,2.592-2.8-2.465-3.161.89-.693,3.053,3.916-2.562,2.772,2.116,2.494Z" transform="translate(-757.632 -7168.02)" fill="#999"/>
          <path id="Trazado_106917" data-name="Trazado 106917" d="M838.7,7177.931l-2.762-3.256,2.592-2.8-2.465-3.161.89-.693,3.053,3.916-2.562,2.772,2.116,2.494Z" transform="translate(-758.22 -7168.02)" fill="#999"/>
          <path id="Trazado_106918" data-name="Trazado 106918" d="M836.18,7177.931l-2.762-3.256,2.592-2.8-2.465-3.161.89-.693,3.053,3.916-2.562,2.772,2.116,2.494Z" transform="translate(-758.808 -7168.02)" fill="#999"/>
          <path id="Trazado_106919" data-name="Trazado 106919" d="M833.659,7177.931l-2.762-3.256,2.592-2.8-2.465-3.161.89-.693,3.053,3.916-2.562,2.772,2.116,2.494Z" transform="translate(-759.396 -7168.02)" fill="#999"/>
          <path id="Trazado_106920" data-name="Trazado 106920" d="M831.138,7177.931l-2.762-3.256,2.592-2.8-2.465-3.161.89-.693,3.053,3.916-2.562,2.772L832,7177.2Z" transform="translate(-759.983 -7168.02)" fill="#999"/>
          <path id="Trazado_106921" data-name="Trazado 106921" d="M828.617,7177.931l-2.762-3.256,2.592-2.8-2.465-3.161.89-.693,3.053,3.916-2.562,2.772,2.116,2.494Z" transform="translate(-760.571 -7168.02)" fill="#999"/>
          <path id="Trazado_106922" data-name="Trazado 106922" d="M826.1,7177.931l-2.762-3.256,2.592-2.8-2.465-3.161.89-.693,3.053,3.916-2.562,2.772,2.116,2.494Z" transform="translate(-761.159 -7168.02)" fill="#999"/>
          <path id="Trazado_106923" data-name="Trazado 106923" d="M823.575,7177.931l-2.762-3.256,2.592-2.8-2.465-3.161.89-.693,3.053,3.916-2.562,2.772,2.116,2.494Z" transform="translate(-761.746 -7168.02)" fill="#999"/>
          <path id="Trazado_106924" data-name="Trazado 106924" d="M821.054,7177.931l-2.762-3.256,2.592-2.8-2.465-3.161.89-.693,3.053,3.916-2.562,2.772,2.116,2.494Z" transform="translate(-762.334 -7168.02)" fill="#999"/>
          <path id="Trazado_106925" data-name="Trazado 106925" d="M818.533,7177.931l-2.762-3.256,2.592-2.8-2.465-3.161.89-.693,3.053,3.916-2.562,2.772,2.116,2.494Z" transform="translate(-762.922 -7168.02)" fill="#999"/>
          <path id="Trazado_106926" data-name="Trazado 106926" d="M816.012,7177.931l-2.762-3.256,2.592-2.8-2.465-3.161.89-.693,3.053,3.916-2.562,2.772,2.116,2.494Z" transform="translate(-763.51 -7168.02)" fill="#999"/>
          <path id="Trazado_106927" data-name="Trazado 106927" d="M813.491,7177.931l-2.762-3.256,2.592-2.8-2.465-3.161.89-.693,3.053,3.916-2.562,2.772,2.116,2.494Z" transform="translate(-764.097 -7168.02)" fill="#999"/>
          <path id="Trazado_106928" data-name="Trazado 106928" d="M810.97,7177.931l-2.762-3.256,2.592-2.8-2.465-3.161.89-.693,3.053,3.916-2.562,2.772,2.116,2.494Z" transform="translate(-764.685 -7168.02)" fill="#999"/>
          <path id="Trazado_106929" data-name="Trazado 106929" d="M808.449,7177.931l-2.762-3.256,2.592-2.8-2.465-3.161.89-.693,3.053,3.916-2.562,2.772,2.116,2.494Z" transform="translate(-765.273 -7168.02)" fill="#999"/>
          <path id="Trazado_106930" data-name="Trazado 106930" d="M805.927,7177.931l-2.762-3.256,2.592-2.8-2.465-3.161.89-.693,3.053,3.916-2.562,2.772,2.116,2.494Z" transform="translate(-765.861 -7168.02)" fill="#999"/>
          <path id="Trazado_106931" data-name="Trazado 106931" d="M803.406,7177.931l-2.762-3.256,2.592-2.8-2.465-3.161.89-.693,3.053,3.916-2.562,2.772,2.116,2.494Z" transform="translate(-766.448 -7168.02)" fill="#999"/>
          <path id="Trazado_106932" data-name="Trazado 106932" d="M800.885,7177.931l-2.762-3.256,2.592-2.8-2.465-3.161.89-.693,3.053,3.916-2.562,2.772,2.116,2.494Z" transform="translate(-767.036 -7168.02)" fill="#999"/>
          <path id="Trazado_106933" data-name="Trazado 106933" d="M798.364,7177.931l-2.762-3.256,2.592-2.8-2.465-3.161.89-.693,3.053,3.916-2.562,2.772,2.116,2.494Z" transform="translate(-767.624 -7168.02)" fill="#999"/>
          <path id="Trazado_106934" data-name="Trazado 106934" d="M795.843,7177.931l-2.762-3.256,2.592-2.8-2.465-3.161.89-.693,3.053,3.916-2.562,2.772,2.116,2.494Z" transform="translate(-768.211 -7168.02)" fill="#999"/>
          <path id="Trazado_106935" data-name="Trazado 106935" d="M793.322,7177.931l-2.762-3.256,2.592-2.8-2.465-3.161.89-.693,3.053,3.916-2.562,2.772,2.116,2.494Z" transform="translate(-768.799 -7168.02)" fill="#999"/>
          <path id="Trazado_106936" data-name="Trazado 106936" d="M790.8,7177.931l-2.762-3.256,2.592-2.8-2.465-3.161.89-.693,3.053,3.916-2.562,2.772,2.116,2.494Z" transform="translate(-769.387 -7168.02)" fill="#999"/>
          <path id="Trazado_106937" data-name="Trazado 106937" d="M788.28,7177.931l-2.762-3.256,2.592-2.8-2.465-3.161.89-.693,3.053,3.916-2.562,2.772,2.116,2.494Z" transform="translate(-769.975 -7168.02)" fill="#999"/>
          <path id="Trazado_106938" data-name="Trazado 106938" d="M785.759,7177.931,783,7174.675l2.592-2.8-2.465-3.161.89-.693,3.053,3.916-2.562,2.772,2.116,2.494Z" transform="translate(-770.562 -7168.02)" fill="#999"/>
          <path id="Trazado_106939" data-name="Trazado 106939" d="M783.238,7177.931l-2.762-3.256,2.592-2.8-2.465-3.161.89-.693,3.053,3.916-2.562,2.772,2.116,2.494Z" transform="translate(-771.15 -7168.02)" fill="#999"/>
          <path id="Trazado_106940" data-name="Trazado 106940" d="M780.717,7177.931l-2.762-3.256,2.592-2.8-2.465-3.161.89-.693,3.053,3.916-2.562,2.772,2.116,2.494Z" transform="translate(-771.738 -7168.02)" fill="#999"/>
          <path id="Trazado_106941" data-name="Trazado 106941" d="M778.2,7177.931l-2.762-3.256,2.592-2.8-2.465-3.161.89-.693,3.053,3.916-2.562,2.772,2.116,2.494Z" transform="translate(-772.326 -7168.02)" fill="#999"/>
          <path id="Trazado_106942" data-name="Trazado 106942" d="M775.675,7177.931l-2.762-3.256,2.592-2.8-2.465-3.161.89-.693,3.053,3.916-2.562,2.772,2.116,2.494Z" transform="translate(-772.913 -7168.02)" fill="#999"/>
        </g>
        <path id="Trazado_106943" data-name="Trazado 106943" d="M817.762,6990.977c-13.222,0-17.27-5.112-17.446-5.345l.983-.746-.492.374.49-.377c.042.057,4.484,5.517,19.16,4.792,14.584-.729,17.147-6.273,17.171-6.33l1.138.474c-.106.257-2.761,6.315-18.247,7.088Q819.079,6990.978,817.762,6990.977Z" transform="translate(-741.102 -6937.689)" fill="#999"/>
        <rect id="Rectángulo_9702" data-name="Rectángulo 9702" width="143.018" height="1.233" transform="translate(6.366 181.77)" fill="#999"/>
        <rect id="Rectángulo_9703" data-name="Rectángulo 9703" width="147.005" height="1.233" transform="translate(4.498 173.227)" fill="#999"/>
        <rect id="Rectángulo_9704" data-name="Rectángulo 9704" width="1.233" height="50.222" transform="translate(77.588 182.386)" fill="#999"/>
        <path id="Trazado_106944" data-name="Trazado 106944" d="M853.429,7103.292l-1.233-.013.549-55.511c1.45-24.014.506-28.59.465-28.772l1.2-.281c.043.183,1.038,4.731-.434,29.1Z" transform="translate(-729.007 -6929.442)" fill="#999"/>
        <path id="Trazado_106945" data-name="Trazado 106945" d="M858.273,7393.62c-.02-.538-1.932-54.628-3.132-111.771-1.2-56.976-15.37-86.99-15.513-87.287l-.062-.268v-8.634l7.347-40.371,8.235-51.143,1.217.2-8.237,51.156-7.338,40.273.01,8.385c1.026,2.224,14.412,32.313,15.574,87.665,1.2,57.135,3.112,111.217,3.132,111.756Z" transform="translate(-731.952 -6911.858)" fill="#999"/>
        <path id="Trazado_106946" data-name="Trazado 106946" d="M781.039,7393.6,780.8,7343c-.012-.42-1.184-43.773.24-74.382,1.395-30,13.513-71.983,14.15-74.168v-9.2l-8.276-40.654-8.024-50.247,1.218-.2,8.019,50.222,8.3,40.812-.026,9.529c-.126.431-12.706,43.455-14.127,73.963-1.421,30.563-.25,73.871-.238,74.306l.239,50.619Z" transform="translate(-746.097 -6911.858)" fill="#999"/>
        <rect id="Rectángulo_9705" data-name="Rectángulo 9705" width="1.233" height="437.747" transform="translate(76.375 44.016) rotate(-0.494)" fill="#999"/>
        <path id="Trazado_106947" data-name="Trazado 106947" d="M779.688,7103.292l-.549-55.512c-1.472-24.334-.476-28.883-.433-29.065l1.2.285-.6-.143.6.139c-.042.183-.985,4.759.464,28.741l.55,55.542Z" transform="translate(-746.226 -6929.442)" fill="#999"/>
        <path id="Trazado_106948" data-name="Trazado 106948" d="M806.545,7022.332l-.871-6.777-2.284-1.427s-.99-.586-.232-1.273l4.529-1.216s2.022-.428,1.376,1.3l-1.641,2.624.529,6.405-.475,1.544Z" transform="translate(-740.506 -6931.104)" fill="#666"/>
        <path id="Trazado_106949" data-name="Trazado 106949" d="M820.763,7028.03c-18.723,0-24.263-17.824-24.317-18l1.181-.354c.052.173,5.349,17.125,23.137,17.125h.154c17.9-.1,22.428-16.41,22.612-17.1l1.193.314c-.047.179-4.935,17.921-23.8,18.023Z" transform="translate(-742.004 -6931.551)" fill="#999"/>
        <path id="Trazado_106950" data-name="Trazado 106950" d="M798.322,7013.945l-4.545-4.988-2.665.209s-1.137.117-.91-.9l2.993-3.7s1.4-1.56,1.857.232l.152,3.117,4.057,4.89.49,1.539Z" transform="translate(-743.467 -6932.888)" fill="#666"/>
        <path id="Trazado_106951" data-name="Trazado 106951" d="M814.844,7025.676l-.872-6.777-2.284-1.427s-.99-.586-.232-1.274l4.529-1.215s2.022-.428,1.377,1.3l-1.643,2.624.529,6.405-.474,1.543Z" transform="translate(-738.572 -6930.324)" fill="#666"/>
        <path id="Trazado_106952" data-name="Trazado 106952" d="M853.045,7093.083l4.545-4.988,2.665.208s1.137.117.91-.9l-2.994-3.7s-1.4-1.559-1.856.232l-.152,3.118-4.057,4.889-.49,1.539Z" transform="translate(-729.142 -6914.438)" fill="#666"/>
        <path id="Trazado_106953" data-name="Trazado 106953" d="M781.351,7093.083l-4.547-4.988-2.665.208s-1.136.117-.909-.9l2.993-3.7s1.4-1.559,1.857.232l.152,3.118,4.057,4.889.488,1.539Z" transform="translate(-747.423 -6914.438)" fill="#666"/>
        <g id="Grupo_55607" data-name="Grupo 55607" transform="translate(59.046 26.924)">
          <ellipse id="Elipse_4322" data-name="Elipse 4322" cx="18.536" cy="8.235" rx="18.536" ry="8.235" transform="translate(0.616 0.617)" fill="#fff"/>
          <path id="Trazado_106954" data-name="Trazado 106954" d="M819.332,6985.856c-10.739,0-19.152-3.888-19.152-8.851s8.412-8.852,19.152-8.852,19.153,3.888,19.153,8.852S830.072,6985.856,819.332,6985.856Zm0-16.47c-9.713,0-17.919,3.489-17.919,7.619s8.205,7.617,17.919,7.617,17.92-3.487,17.92-7.617S829.045,6969.387,819.332,6969.387Z" transform="translate(-800.18 -6968.154)" fill="#999"/>
        </g>
        <g id="Grupo_55611" data-name="Grupo 55611" transform="translate(68.162)">
          <g id="Grupo_55608" data-name="Grupo 55608" transform="translate(1.128)">
            <path id="Trazado_106955" data-name="Trazado 106955" d="M826.035,6958.547c0-6.476-3.817-11.727-8.525-11.727s-8.523,5.251-8.523,11.727c0,5.064,2.338,9.367,5.607,11.007v11.215h6.441v-11.551C823.982,6967.371,826.035,6963.293,826.035,6958.547Z" transform="translate(-808.37 -6946.204)" fill="#fff"/>
            <path id="Trazado_106956" data-name="Trazado 106956" d="M821.768,6981.5h-7.674v-11.461c-3.369-1.9-5.607-6.413-5.607-11.378,0-6.806,4.1-12.343,9.141-12.343s9.14,5.537,9.14,12.343c0,4.642-1.952,8.914-5,11Zm-6.441-1.233h5.208v-11.275l.29-.182c2.862-1.793,4.711-5.775,4.711-10.148,0-6.125-3.547-11.109-7.907-11.109s-7.908,4.984-7.908,11.109c0,4.674,2.116,8.877,5.267,10.457l.34.172Z" transform="translate(-808.487 -6946.32)" fill="#999"/>
          </g>
          <g id="Grupo_55609" data-name="Grupo 55609" transform="translate(0 14.155)">
            <rect id="Rectángulo_9706" data-name="Rectángulo 9706" width="19.991" height="3.429" rx="1.209" transform="translate(0.616 0.617)" fill="#fff"/>
            <path id="Trazado_106957" data-name="Trazado 106957" d="M826.688,6962.461H809.68a2.109,2.109,0,0,1-2.107-2.106v-.448a2.11,2.11,0,0,1,2.107-2.107h17.008a2.111,2.111,0,0,1,2.107,2.107v.448A2.11,2.11,0,0,1,826.688,6962.461Zm-17.008-3.429a.875.875,0,0,0-.874.874v.448a.874.874,0,0,0,.874.873h17.008a.875.875,0,0,0,.874-.873v-.448a.876.876,0,0,0-.874-.874Z" transform="translate(-807.572 -6957.799)" fill="#999"/>
          </g>
          <g id="Grupo_55610" data-name="Grupo 55610" transform="translate(0 7.61)">
            <rect id="Rectángulo_9707" data-name="Rectángulo 9707" width="19.991" height="3.429" rx="1.209" transform="translate(0.616 0.617)" fill="#fff"/>
            <path id="Trazado_106958" data-name="Trazado 106958" d="M826.688,6957.153H809.68a2.11,2.11,0,0,1-2.107-2.107v-.447a2.109,2.109,0,0,1,2.107-2.107h17.008a2.11,2.11,0,0,1,2.107,2.107v.447A2.111,2.111,0,0,1,826.688,6957.153Zm-17.008-3.429a.875.875,0,0,0-.874.874v.447a.875.875,0,0,0,.874.874h17.008a.876.876,0,0,0,.874-.874v-.447a.876.876,0,0,0-.874-.874Z" transform="translate(-807.572 -6952.491)" fill="#999"/>
          </g>
        </g>
        <rect id="Rectángulo_9708" data-name="Rectángulo 9708" width="1.233" height="380.183" transform="translate(86.028 44.016) rotate(-0.478)" fill="#999"/>
        <g id="Grupo_55612" data-name="Grupo 55612" transform="translate(26.205 273.425)" opacity="0.33">
          <line id="Línea_220" data-name="Línea 220" x2="106.128" transform="translate(0 0.617)" fill="#fff"/>
          <rect id="Rectángulo_9709" data-name="Rectángulo 9709" width="106.127" height="1.233" transform="translate(0)"/>
        </g>
        <g id="Grupo_55613" data-name="Grupo 55613" transform="translate(26.205 282.06)" opacity="0.33">
          <line id="Línea_221" data-name="Línea 221" x2="106.128" transform="translate(0 0.616)" fill="#fff"/>
          <rect id="Rectángulo_9710" data-name="Rectángulo 9710" width="106.127" height="1.233" transform="translate(0)"/>
        </g>
        <path id="Trazado_106959" data-name="Trazado 106959" d="M757.262,7082.049l-1.189-.32c4.692-17.395.42-55.787.376-56.172l1.226-.141C757.719,7025.806,762.017,7064.429,757.262,7082.049Z" transform="translate(-751.416 -6927.881)" opacity="0.33"/>
      </g>
      <g id="Grupo_55615" data-name="Grupo 55615" transform="translate(2.144 156.164)" opacity="0.88">
        <path id="Trazado_106960" data-name="Trazado 106960" d="M741.791,7093.13l-20.159,6.006s2.648-40.327,1.361-48.263c0,0,5.767,16.325,8.131,21.638C733.46,7077.763,741.791,7093.13,741.791,7093.13Z" transform="translate(-721.015 -7050.255)" fill="#999"/>
        <path id="Trazado_106961" data-name="Trazado 106961" d="M721.749,7099.869a.618.618,0,0,1-.615-.657c.027-.4,2.629-40.347,1.368-48.123a.617.617,0,0,1,.456-.7.61.61,0,0,1,.734.391c.058.164,5.787,16.364,8.114,21.594,2.3,5.169,10.562,20.423,10.644,20.575a.616.616,0,0,1-.366.885l-20.158,6.007A.679.679,0,0,1,721.749,7099.869Zm2.292-44.443c.313,11.845-1.284,37.736-1.62,42.982L741,7092.872c-1.628-3.017-8.285-15.406-10.326-19.993C729.084,7069.3,725.923,7060.653,724.041,7055.426Z" transform="translate(-721.132 -7050.373)" fill="#4d4d4d"/>
      </g>
      <g id="Grupo_55616" data-name="Grupo 55616" transform="translate(0 120.817)" opacity="0.5">
        <path id="Trazado_106962" data-name="Trazado 106962" d="M864.437,7386.328s-95.014,1.911-99.518.625-1.719-69.895-1.719-69.895,8.592-95.722,8.807-119.666c0,0-.644-46.537-18.229-76.562,0,0-30.453-47.4-33.884-79.778l55.329-18.845,14.614,50.584Z" transform="translate(-719.277 -7021.592)" fill="#999"/>
        <path id="Trazado_106963" data-name="Trazado 106963" d="M783.109,7388.126c-9.939,0-17.055-.127-18.243-.466-.977-.279-3.265-.933-3-36.026.132-17.124.822-34.312.829-34.484.088-.986,8.595-96,8.807-119.647-.006-.449-.845-46.709-18.144-76.243-.292-.454-30.558-47.869-33.965-80.025a.614.614,0,0,1,.414-.648l55.329-18.846a.625.625,0,0,1,.483.038.61.61,0,0,1,.307.375l14.615,50.585L865.153,7386.3a.619.619,0,0,1-.588.762C861.7,7387.12,811.17,7388.126,783.109,7388.126Zm-62.432-346.534c3.629,31.856,33.434,78.551,33.736,79.021,17.478,29.841,18.321,76.42,18.327,76.887-.212,23.711-8.724,118.773-8.809,119.731-1.317,32.468-1.313,67.792,1.291,69.251,3.448.981,65.521.02,98.555-.638l-74.423-312.792-14.428-49.936Z" transform="translate(-719.393 -7021.708)" fill="#4d4d4d"/>
      </g>
      <g id="Grupo_55617" data-name="Grupo 55617" transform="translate(14.235 90.925)" opacity="0.88">
        <path id="Trazado_106964" data-name="Trazado 106964" d="M809.487,7018.891l17.579,94.436,15.542,91.217,12.435,99.974,19.7,86.873-10.532,4.182-24.637-68.358-25.9-68.2-33.741-85.729-20.266-56.62-18.818-58.383-7.078-23.322s-3.216-14.687-2.09-22.383l29.113-10.429s1.471,24.287,1.62,25.574,7.386,35.868,22.506,55.973c0,0-15.281-37.775-12.224-57.007h1.286v-5.961s18.121-9.571,25.145-16.167c0,0,9.3-6.111,13.069-6.595,0,0-1.38,14.956-2.506,17.772Z" transform="translate(-730.82 -6997.351)" fill="#999"/>
        <path id="Trazado_106965" data-name="Trazado 106965" d="M864.328,7396.305a.606.606,0,0,1-.253-.054.621.621,0,0,1-.328-.353l-24.637-68.359-25.9-68.187-33.737-85.724L759.2,7116.991l-18.825-58.4-7.081-23.332c-.144-.651-3.24-14.934-2.111-22.652a.617.617,0,0,1,.4-.49l29.113-10.429a.618.618,0,0,1,.824.543c.014.243,1.472,24.285,1.618,25.54.032.287,6.137,30.849,19.5,51.53-3.988-10.8-12.879-37.26-10.442-52.589a.617.617,0,0,1,.609-.521h.669v-5.344a.615.615,0,0,1,.328-.545c.181-.1,18.129-9.607,25.013-16.07.467-.318,9.548-6.263,13.411-6.758a.617.617,0,0,1,.692.669c-.057.607-1.372,14.771-2.511,17.848l-.189,2.981,17.565,94.359,15.545,91.228,12.439,100,19.689,86.813a.615.615,0,0,1-.374.709l-10.532,4.182A.591.591,0,0,1,864.328,7396.305ZM732.355,7013.149c-.947,7.59,2.1,21.653,2.132,21.8l7.065,23.275,18.815,58.372,20.26,56.6,33.732,85.713,25.909,68.2,24.423,67.771,9.451-3.752-19.583-86.359-12.446-100.032-15.54-91.19L809,7019.121a.567.567,0,0,1-.01-.151l.2-3.151a.589.589,0,0,1,.043-.19c.82-2.052,1.876-11.429,2.387-16.774-3.971,1.059-11.954,6.285-12.039,6.342-6.489,6.1-22.307,14.654-24.867,16.021v5.59a.616.616,0,0,1-.617.616h-.755c-2.645,19,12.113,55.787,12.265,56.16a.617.617,0,0,1-1.064.6c-15.54-20.665-22.591-55.965-22.627-56.273-.134-1.17-1.312-20.47-1.573-24.788Z" transform="translate(-730.937 -6997.467)" fill="#4d4d4d"/>
      </g>
      <path id="Trazado_106966" data-name="Trazado 106966" d="M822.505,7173.556q-2.249-4.5-4.366-8.852l1.107-.539q2.118,4.345,4.363,8.84Zm-8.642-17.746q-2.16-4.562-4.174-8.944l1.121-.516q2.013,4.38,4.169,8.933Zm-8.241-17.937q-2.057-4.623-3.95-9.045l1.133-.486q1.892,4.415,3.943,9.03Zm-7.771-18.146q-1.933-4.7-3.681-9.161l1.148-.449q1.748,4.447,3.675,9.142Zm-7.205-18.379c-1.155-3.107-2.284-6.232-3.352-9.29l1.164-.406c1.065,3.048,2.19,6.165,3.344,9.265ZM784.14,7082.7c-1.032-3.181-2.019-6.354-2.931-9.43l1.182-.352c.909,3.067,1.892,6.23,2.921,9.4Zm-5.6-18.944c-.866-3.273-1.66-6.5-2.359-9.6l1.2-.272c.7,3.079,1.487,6.294,2.349,9.553Zm-4.339-19.283c-.613-3.389-1.114-6.679-1.491-9.778l1.223-.149c.375,3.078.873,6.343,1.482,9.71Zm-2.3-19.653c-.038-1.071-.054-2.05-.054-2.938a36.532,36.532,0,0,1,.488-7.054l1.2.264a36.559,36.559,0,0,0-.459,6.79c0,.874.016,1.837.054,2.893Z" transform="translate(-707.165 -6902.495)" fill="#4d4d4d"/>
      <path id="Trazado_106967" data-name="Trazado 106967" d="M759.279,7252.816l-4.546-4.987-2.665.208s-1.137.117-.909-.9l2.993-3.7s1.4-1.559,1.856.232l.152,3.118,4.057,4.889.49,1.539Z" transform="translate(-711.995 -6849.346)" fill="#666"/>
      <path id="Trazado_106968" data-name="Trazado 106968" d="M753.816,7095.8l-4.547-4.986-2.664.208s-1.137.116-.91-.9l2.993-3.7s1.4-1.557,1.857.235l.152,3.117,4.057,4.888.488,1.54Z" transform="translate(-713.268 -6885.952)" fill="#666"/>
      <path id="Trazado_106969" data-name="Trazado 106969" d="M753.816,7101.523l-4.547-4.988-2.664.209s-1.137.117-.91-.9l2.993-3.7s1.4-1.559,1.857.233l.152,3.117,4.057,4.89.488,1.539Z" transform="translate(-713.268 -6884.617)" fill="#666"/>
      <path id="Trazado_106970" data-name="Trazado 106970" d="M760.144,7295.654l-6.063-2.961-2.4,1.174s-1.014.527-1.175-.5l1.419-4.543s.729-1.966,1.811-.468l1.289,2.843,5.574,3.051,1.021,1.251Z" transform="translate(-712.14 -6838.858)" fill="#666"/>
      <rect id="Rectángulo_9711" data-name="Rectángulo 9711" width="1.233" height="29.561" transform="translate(41.372 206.901)" fill="#4d4d4d"/>
    </g>
  </g>
</svg>
