<svg xmlns="http://www.w3.org/2000/svg" width="240.312" height="551.827" viewBox="0 0 240.312 551.827">
  <g id="Grupo_55752" data-name="Grupo 55752" transform="translate(-561.941 -9475.826)">
    <rect id="Rectángulo_9814" data-name="Rectángulo 9814" width="240.312" height="551.827" rx="15.391" transform="translate(561.941 9475.826)" fill="#fff"/>
    <g id="Grupo_55751" data-name="Grupo 55751" transform="translate(595.866 9491.026)">
      <g id="Grupo_55735" data-name="Grupo 55735" transform="translate(10.974 0.483)">
        <path id="Trazado_107306" data-name="Trazado 107306" d="M761.258,9503.32l.786-7.4-2.747.061s-64.677-15.229-101.54,2.67c-20.027,9.726-40.953,22.449-55.9,32.051l14.884,53.69,19.85,71.623.768,2.633V9666s-16.055,44.535-18.467,66.466c-2.063,18.751.3,105.779,1.034,130.6v28.493s-2.391,17.405,20.949,25.119c0,0,21.559,15.428,56.567,2.769l45.887-11.866s14-8.322,13.449-25.911c-.544-17.523-.844-28.783-.846-28.865l-2.913-109.189s-3.155-35.232-7.862-49.973c-2.9-9.091-14.366-27.646-14.366-27.646s-1.695-4.9-.611-8.835l4.687-29.339,10.384-41.758,7.017-12.939s9.137-11.913,7.968-21.855l-3.363-11.7s-.438-15.351.147-21.053Z" transform="translate(-601.36 -9489.572)" fill="#fff"/>
        <path id="Trazado_107307" data-name="Trazado 107307" d="M670.692,9924.873c-18.142,0-29.068-7.161-29.951-7.763-23.342-7.746-21.2-25.386-21.18-25.562l0-28.436c-.761-25.919-3.084-111.983-1.03-130.651,2.346-21.323,17.742-64.473,18.465-66.493v-7.21l-.751-2.574-34.82-125.622.265-.17c14.294-9.179,35.6-22.2,55.946-32.075,36.126-17.539,99.573-3.219,101.771-2.714l3.178-.07-.851,7.947-4.239,15.2c-.546,5.372-.16,19.868-.133,20.873L760.7,9551.2c1.191,10.065-7.662,21.742-8.039,22.233l-6.954,12.834-10.371,41.707-4.68,29.3c-1.045,3.8.577,8.581.593,8.628.075.1,11.485,18.619,14.371,27.656,4.666,14.614,7.848,49.71,7.88,50.063l2.914,109.217c.013.469.312,11.64.846,28.863.547,17.636-13.515,26.205-13.658,26.29l-.112.047-45.888,11.866A78.84,78.84,0,0,1,670.692,9924.873Zm-68.281-393.934,34.651,125.011.783,2.747-.025,7.489c-.16.445-16.065,44.739-18.444,66.367-2.048,18.613.274,104.627,1.035,130.546v28.506c-.026.229-2.05,17.209,20.658,24.713l.114.06c.216.152,21.8,15.142,56.174,2.715l45.864-11.862c.9-.565,13.708-8.9,13.191-25.5-.533-17.227-.834-28.4-.846-28.854l-2.911-109.2c-.031-.325-3.2-35.327-7.843-49.853-2.855-8.939-14.209-27.368-14.324-27.553-.11-.29-1.764-5.156-.658-9.172L734.5,9627.8l10.43-41.894,7.016-12.939c.128-.174,9.056-11.95,7.92-21.6l-3.365-11.732c0-.153-.432-15.445.149-21.108l4.244-15.24.73-6.878-2.315.051-.053-.012c-.644-.152-64.955-14.988-101.255,2.638C637.824,9508.883,616.682,9521.782,602.411,9530.939Z" transform="translate(-601.42 -9489.617)" fill="#999"/>
      </g>
      <path id="Trazado_107308" data-name="Trazado 107308" d="M741.918,9549.366l-6.873-19.532c-1.417-4.521-2.649-8.063-3.736-11.188-2.907-8.359-4.662-13.405-5.781-24.912l.848-.081c1.109,11.405,2.851,16.414,5.738,24.714,1.09,3.131,2.323,6.679,3.739,11.2l6.868,19.52Z" transform="translate(-573.409 -9488.579)" fill="#999"/>
      <path id="Trazado_107309" data-name="Trazado 107309" d="M683.653,9644.573q-1.31,0-2.661-.015c-34.253-.357-48.635-8.089-48.776-8.166l.413-.748c.139.078,14.37,7.706,48.372,8.062,30.048.273,44.388-4.8,44.529-4.849l.293.8C725.686,9639.71,712.1,9644.573,683.653,9644.573Z" transform="translate(-586.219 -9469.087)" fill="#999"/>
      <path id="Trazado_107310" data-name="Trazado 107310" d="M684.035,9653.941q-1.609,0-3.216-.06c-32.061-1.226-47.281-8.633-47.431-8.707l.38-.765c.149.073,15.23,7.4,47.084,8.619,22.076.844,45.308-7.52,45.539-7.6l.293.8C726.462,9646.309,705.276,9653.941,684.035,9653.941Z" transform="translate(-586.058 -9467.883)" fill="#999"/>
      <path id="Trazado_107311" data-name="Trazado 107311" d="M680.623,9653.783l-3.293-3.292,2.568-3.521-3.226-3.5.626-.578,3.7,4.02-2.55,3.5,2.775,2.774Z" transform="translate(-580.116 -9468.092)" fill="#999"/>
      <path id="Trazado_107312" data-name="Trazado 107312" d="M684.8,9653.783l-3.291-3.292,2.567-3.521-3.226-3.5.626-.578,3.7,4.02-2.549,3.5,2.775,2.774Z" transform="translate(-579.542 -9468.092)" fill="#999"/>
      <path id="Trazado_107313" data-name="Trazado 107313" d="M689.017,9653.475l-3.07-3.2,2.392-3.419-3.006-3.4.64-.564,3.451,3.905-2.377,3.4,2.586,2.693Z" transform="translate(-578.927 -9468.092)" fill="#999"/>
      <path id="Trazado_107314" data-name="Trazado 107314" d="M693.269,9652.786l-3.08-3.023,2.383-3.21-2.97-3.168.622-.584,3.456,3.688-2.363,3.186,2.549,2.5Z" transform="translate(-578.341 -9468.104)" fill="#999"/>
      <path id="Trazado_107315" data-name="Trazado 107315" d="M697.079,9652.146l-3.08-3.024,2.382-3.21-2.97-3.168.622-.584,3.458,3.688-2.365,3.186,2.549,2.5Z" transform="translate(-577.818 -9468.192)" fill="#999"/>
      <path id="Trazado_107316" data-name="Trazado 107316" d="M658.026,9652.7l-2.972-3.5,2.892-3.128-2.863-3.671.673-.524,3.31,4.242-2.872,3.105,2.483,2.927Z" transform="translate(-583.083 -9468.231)" fill="#999"/>
      <path id="Trazado_107317" data-name="Trazado 107317" d="M662.188,9653.111l-2.972-3.5,2.893-3.127-2.863-3.671.673-.524,3.307,4.242-2.871,3.1,2.483,2.928Z" transform="translate(-582.512 -9468.175)" fill="#999"/>
      <path id="Trazado_107318" data-name="Trazado 107318" d="M666.669,9653.56l-2.972-3.5,2.893-3.128-2.863-3.67.673-.524,3.31,4.241-2.873,3.105,2.483,2.928Z" transform="translate(-581.897 -9468.113)" fill="#999"/>
      <path id="Trazado_107319" data-name="Trazado 107319" d="M645.016,9649.961l-2.972-3.5,2.893-3.127-2.863-3.672.673-.523,3.31,4.242-2.873,3.105,2.483,2.928Z" transform="translate(-584.869 -9468.608)" fill="#999"/>
      <path id="Trazado_107320" data-name="Trazado 107320" d="M640.942,9648.79l-2.971-3.5,2.893-3.127L638,9638.488l.673-.524,3.309,4.243-2.871,3.1,2.482,2.928Z" transform="translate(-585.428 -9468.769)" fill="#999"/>
      <path id="Trazado_107321" data-name="Trazado 107321" d="M637.581,9647.643l-2.972-3.5,2.893-3.126-2.863-3.672.673-.524,3.31,4.242-2.873,3.1,2.483,2.928Z" transform="translate(-585.89 -9468.926)" fill="#999"/>
      <path id="Trazado_107322" data-name="Trazado 107322" d="M649.178,9651.074l-2.971-3.5,2.892-3.126-2.863-3.672.673-.524,3.31,4.243-2.872,3.1,2.482,2.927Z" transform="translate(-584.298 -9468.454)" fill="#999"/>
      <path id="Trazado_107323" data-name="Trazado 107323" d="M653.661,9651.522l-2.972-3.5,2.892-3.128-2.863-3.671.673-.524,3.31,4.242-2.872,3.105,2.483,2.927Z" transform="translate(-583.683 -9468.393)" fill="#999"/>
      <path id="Trazado_107324" data-name="Trazado 107324" d="M670.912,9653.983l-2.972-3.5,2.893-3.127-2.863-3.671.673-.524,3.307,4.242-2.871,3.1,2.483,2.928Z" transform="translate(-581.314 -9468.055)" fill="#999"/>
      <path id="Trazado_107325" data-name="Trazado 107325" d="M675.064,9653.716l-2.972-3.5,2.893-3.127-2.863-3.671.673-.524,3.31,4.242-2.873,3.1,2.483,2.928Z" transform="translate(-580.744 -9468.092)" fill="#999"/>
      <path id="Trazado_107326" data-name="Trazado 107326" d="M704.914,9650.008l-3.3-2.578,2.484-2.66-3.005-2.55.551-.65,3.69,3.129-2.46,2.634,2.563,2Z" transform="translate(-576.763 -9468.273)" fill="#999"/>
      <path id="Trazado_107327" data-name="Trazado 107327" d="M708.7,9649.08l-3.3-2.576,2.484-2.664-3.005-2.547.551-.65,3.69,3.127-2.46,2.635,2.564,2Z" transform="translate(-576.243 -9468.401)" fill="#999"/>
      <path id="Trazado_107328" data-name="Trazado 107328" d="M712.576,9648.121l-3.3-2.576,2.484-2.662-3.005-2.549.551-.65,3.69,3.129-2.46,2.633,2.564,2Z" transform="translate(-575.711 -9468.532)" fill="#999"/>
      <path id="Trazado_107329" data-name="Trazado 107329" d="M700.552,9650.593l-3.142-2.637,2.381-2.74-2.9-2.643.575-.631,3.517,3.205-2.359,2.713,2.478,2.079Z" transform="translate(-577.34 -9468.222)" fill="#999"/>
      <path id="Trazado_107330" data-name="Trazado 107330" d="M638.475,9913.055c-.077-1.5-7.714-150.164-6.726-186.745.962-35.625,13.605-63.251,14.439-65.031v-5.864L616.225,9516.69l.833-.18,29.973,138.813.01,6.146-.043.088c-.134.278-13.412,28.31-14.4,64.773-.987,36.548,6.647,185.181,6.725,186.678Z" transform="translate(-588.414 -9485.441)" fill="#999"/>
      <g id="Grupo_55736" data-name="Grupo 55736" transform="translate(26.347 31.955)">
        <path id="Trazado_107331" data-name="Trazado 107331" d="M615.182,9518.585l-.244-1.111.833-.184.244,1.11Z" transform="translate(-614.938 -9517.29)" fill="#999"/>
        <path id="Trazado_107332" data-name="Trazado 107332" d="M636.859,9909.044l-.121-2.278.851-.045.121,2.276Zm-.241-4.559-.117-2.277.851-.044.117,2.277Zm-.237-4.554-.116-2.275.853-.045.115,2.275Zm-.23-4.551-.116-2.276.853-.043.114,2.274Zm-.231-4.552-.113-2.274.853-.043.113,2.275Zm-.224-4.548-.113-2.275.853-.043.113,2.274Zm-.223-4.551-.109-2.275.853-.041.109,2.274Zm-.219-4.55-.108-2.274.853-.042.108,2.275Zm-.215-4.548-.107-2.275.853-.041.107,2.274Zm-.211-4.55-.106-2.274.853-.041.106,2.274Zm-.21-4.548-.1-2.275.853-.039.1,2.273Zm-.206-4.55-.1-2.274.853-.039.1,2.274Zm-.2-4.548-.1-2.275.853-.038.1,2.274Zm-.2-4.551-.1-2.273.853-.039.1,2.276Zm-.195-4.548-.1-2.274.853-.036.1,2.275Zm-.193-4.551-.094-2.274.853-.036.094,2.274Zm-.188-4.549-.089-2.177.423-.114.427-.018-.427.018.429.08.09,2.178Zm-.187-4.55-.09-2.274.853-.033.09,2.274Zm-.179-4.548-.084-2.182.422-.11.426-.017-.426.017.43.077.085,2.181Zm-.176-4.549-.086-2.275.853-.033.086,2.275Zm-.173-4.552-.084-2.274.853-.031.084,2.274Zm-.167-4.55-.082-2.275.853-.028.082,2.273Zm-.162-4.558-.081-2.28.853-.028.081,2.278Zm-.159-4.559-.076-2.276.853-.028.076,2.275Zm-.151-4.55-.073-2.271.853-.027.073,2.271Zm-.146-4.541-.069-2.267.853-.027.069,2.266Zm-.139-4.54-.065-2.21.851-.092.067,2.274Zm-.133-4.554-.064-2.275.853-.024.064,2.275Zm-.124-4.552-.06-2.275.853-.022.06,2.276Zm-.118-4.551-.056-2.277.853-.021.056,2.274Zm-.11-4.554-.051-2.277.853-.019.051,2.274Zm-.1-4.551-.046-2.277.853-.017.046,2.275Zm-.089-4.555-.041-2.276.853-.016.041,2.275Zm-.077-4.552-.034-2.277.853-.013.034,2.275Zm-.065-4.555-.027-2.278.853-.01.027,2.276Zm-.051-4.557-.018-2.276.853-.007.018,2.277Zm-.034-4.554-.009-2.278.853,0,.009,2.207-.426.07Zm.839-4.555h-.853l0-2.277.853,0Zm.01-4.548-.853,0,.015-2.276.853.006Zm.036-4.55-.853-.009q.014-1.157.032-2.277l.853.013Q631.792,9730.407,631.778,9731.56Zm.074-4.544L631,9727q.024-1.159.052-2.276l.853.022Q631.876,9725.855,631.852,9727.016Zm.117-4.546-.853-.028q.039-1.167.082-2.275l.853.032Q632.007,9721.3,631.97,9722.47Zm.183-4.538-.853-.04q.058-1.182.124-2.278l.851.052Q632.208,9716.758,632.153,9717.932Zm.285-4.527-.851-.071q.094-1.129.216-2.276l.848.09C632.571,9711.9,632.5,9712.658,632.438,9713.4Zm.475-4.51-.846-.107c.094-.75.2-1.507.307-2.264l.844.121C633.109,9707.4,633.009,9708.147,632.913,9708.895Zm.649-4.494-.842-.136q.181-1.125.381-2.251l.839.149Q633.744,9703.282,633.563,9704.4Zm.79-4.477-.837-.16q.213-1.122.442-2.24l.836.171Q634.568,9698.808,634.353,9699.924Zm.911-4.451-.834-.181q.241-1.116.5-2.222l.83.19C635.589,9693.993,635.424,9694.732,635.264,9695.473Zm1.012-4.424-.829-.2c.177-.746.358-1.483.542-2.217l.827.207Q636.544,9689.937,636.276,9691.049Zm1.105-4.411-.826-.216q.292-1.115.583-2.205l.825.223Q637.671,9685.525,637.382,9686.638Zm1.184-4.39-.821-.229c.206-.743.415-1.476.622-2.2l.82.238Q638.876,9681.136,638.566,9682.248Zm1.26-4.37-.818-.242q.331-1.119.657-2.186l.815.249Q640.157,9676.763,639.826,9677.878Zm1.329-4.354-.813-.255q.351-1.122.691-2.174l.812.262C641.62,9672.055,641.39,9672.779,641.155,9673.524Zm1.4-4.33-.811-.269q.379-1.143.726-2.164l.809.275C643.043,9667.716,642.8,9668.437,642.551,9669.194Zm1.463-4.312-.806-.28c.284-.814.54-1.535.763-2.154l.8.288C644.551,9663.354,644.3,9664.073,644.013,9664.883Zm1.542-4.286-.8-.3.135-.358V9658.2h.853l-.029,1.973Zm.189-4.675h-.853v-1.532l-.149-.635.832-.183.159.726Zm-1.489-4.391-.486-2.223.834-.182.486,2.223Zm-.971-4.444-.486-2.223.833-.182.486,2.222Zm-.972-4.444-.487-2.223.834-.183.487,2.223Zm-.971-4.445-.487-2.224.832-.182.487,2.224Zm-.974-4.445-.486-2.223.834-.184.486,2.224Zm-.971-4.445-.487-2.224.832-.181.487,2.222Zm-.972-4.444-.487-2.223.834-.182.487,2.222Zm-.971-4.446-.487-2.222.833-.183.487,2.223Zm-.974-4.444-.484-2.223.833-.182.486,2.222Zm-.971-4.444-.487-2.223.832-.184.487,2.224Zm-.972-4.445-.486-2.225.833-.181.487,2.223Zm-.972-4.445-.486-2.223.833-.183.486,2.223Zm-.972-4.445-.484-2.222.833-.183.486,2.223Zm-.971-4.444-.487-2.223.834-.182.486,2.222Zm-.972-4.446-.486-2.222.833-.184.487,2.224Zm-.972-4.444-.486-2.224.834-.181.484,2.221Zm-.972-4.444-.484-2.223.832-.183.486,2.223Zm-.971-4.445-.487-2.224.834-.182.486,2.224Zm-.972-4.445-.486-2.223.833-.183.487,2.223Zm-.972-4.445-.486-2.222.834-.183.484,2.223Zm-.972-4.444-.486-2.224.833-.181.487,2.221Zm-.971-4.447-.487-2.221.834-.183.486,2.223Zm-.972-4.443-.486-2.223.833-.182.487,2.222Zm-.972-4.444-.486-2.223.834-.183.484,2.223Zm-.972-4.445-.486-2.224.833-.182.487,2.224Zm-.971-4.445-.487-2.224.834-.182.486,2.222Zm-.972-4.446-.486-2.221.833-.183.486,2.223Zm-.972-4.443-.486-2.223.834-.182.484,2.222Zm-.971-4.446-.487-2.222.833-.183.487,2.223Zm-.972-4.444-.487-2.223.834-.182.486,2.222Z" transform="translate(-614.85 -9516.887)" fill="#999"/>
        <rect id="Rectángulo_9815" data-name="Rectángulo 9815" width="0.852" height="1.131" transform="matrix(0.999, -0.054, 0.054, 0.999, 22.119, 394.233)" fill="#999"/>
      </g>
      <g id="Grupo_55737" data-name="Grupo 55737" transform="translate(28.889 30.416)">
        <path id="Trazado_107333" data-name="Trazado 107333" d="M617.417,9517.23l-.244-1.11.833-.185.244,1.111Z" transform="translate(-617.173 -9515.936)" fill="#999"/>
        <path id="Trazado_107334" data-name="Trazado 107334" d="M639.838,9909.673l-.125-2.27.851-.046.125,2.267Zm-.254-4.538-.126-2.267.851-.048.126,2.266Zm-.254-4.532-.129-2.265.851-.049.129,2.263Zm-.255-4.533-.126-2.263.851-.047.126,2.264Zm-.255-4.526-.126-2.264.851-.049.126,2.265Zm-.25-4.528-.125-2.265.851-.047.125,2.265Zm-.249-4.529-.124-2.265.851-.046.124,2.265Zm-.248-4.526-.122-2.265.851-.047.122,2.265Zm-.245-4.528-.121-2.265.851-.047.12,2.265Zm-.24-4.528-.119-2.265.851-.044.119,2.265Zm-.239-4.527-.118-2.264.853-.045.116,2.264Zm-.233-4.528-.116-2.263.851-.044.116,2.264Zm-.233-4.524-.115-2.266.853-.043.113,2.264Zm-.229-4.53-.113-2.263.853-.042.113,2.264Zm-.224-4.528-.111-2.264.853-.042.111,2.264Zm-.221-4.526-.108-2.264.853-.042.108,2.264Zm-.217-4.528-.107-2.265.853-.04.107,2.265Zm-.213-4.527-.1-2.267.853-.036.1,2.262Zm-.208-4.53-.1-2.265.853-.037.1,2.265Zm-.2-4.526-.1-2.265.853-.039.1,2.266Zm-.2-4.532-.1-2.264.853-.036.1,2.263Zm-.193-4.526-.1-2.266.853-.036.1,2.264Zm-.19-4.537-.092-2.271.853-.033.089,2.18-.423.106Zm-.183-4.54-.089-2.265.853-.033.089,2.266Zm-.175-4.525-.085-2.263.853-.032.085,2.262Zm-.169-4.522-.083-2.256.853-.031.083,2.257Zm-.163-4.521-.078-2.267.853-.029.075,2.185-.423.1Zm-.156-4.531-.074-2.266.853-.026.074,2.264Zm-.148-4.53-.069-2.266.853-.028.069,2.268Zm-.138-4.532-.065-2.266.853-.024.065,2.266Zm-.129-4.533-.06-2.266.853-.021.06,2.266Zm-.117-4.531-.053-2.187.851-.1.056,2.264Zm-.107-4.533-.049-2.268.853-.017.049,2.267Zm-.094-4.533-.041-2.268.853-.017.041,2.269Zm-.078-4.534-.033-2.268.853-.011.033,2.266Zm-.062-4.534-.024-2.269.853-.006.024,2.266Zm-.043-4.537-.014-2.267.853-.006.014,2.267Zm-.022-4.535v-2.268h.853v2.266Zm.859-4.528-.853,0,.014-2.267.853.006ZM633.9,9733l-.853-.012.034-2.266.853.013Zm.077-4.528-.853-.02q.026-1.156.057-2.266l.853.024C634.013,9726.949,633.994,9727.705,633.977,9728.472Zm.131-4.521-.853-.031q.041-1.163.09-2.267l.853.037Q634.15,9722.789,634.108,9723.951Zm.2-4.52-.851-.047q.065-1.175.138-2.268l.851.059Q634.372,9718.263,634.308,9719.432Zm.31-4.5-.851-.073q.1-1.134.208-2.152l.013-.116.846.1-.01.1C634.75,9713.464,634.682,9714.176,634.618,9714.927Zm.472-4.493-.846-.1q.133-1.144.272-2.253l.846.106Q635.224,9709.294,635.09,9710.434Zm.562-4.485-.846-.115q.157-1.143.313-2.247l.845.121Q635.8,9704.81,635.652,9705.948Zm.645-4.478-.845-.129c.118-.762.235-1.507.356-2.24l.842.138Q636.47,9700.335,636.3,9701.471Zm.728-4.459-.839-.146q.2-1.138.4-2.232l.839.155Q637.225,9695.878,637.025,9697.012Zm.829-4.444-.838-.165c.152-.759.3-1.5.458-2.223l.835.178Q638.078,9691.437,637.854,9692.567Zm.939-4.415-.831-.189q.259-1.135.521-2.21l.828.2C639.139,9686.667,638.965,9687.4,638.793,9688.152Zm1.066-4.384-.823-.218q.3-1.131.591-2.191l.822.229Q640.154,9682.64,639.859,9683.769Zm1.221-4.347-.818-.247q.341-1.129.68-2.168l.81.265Q641.418,9678.3,641.08,9679.422Zm1.394-4.283-.8-.284q.4-1.129.789-2.135l.795.307Q642.869,9674.022,642.475,9675.139Zm1.623-4.2-.784-.333q.481-1.132.931-2.081l.771.364Q644.573,9669.828,644.1,9670.941Zm1.925-4.051-.751-.4c.389-.723.777-1.39,1.153-1.982l.72.457C646.779,9665.536,646.4,9666.187,646.023,9666.891Zm2.457-3.762-.406-.3h-.324v-2.166h.853V9663Zm.123-4.73h-.853v-2.267h.853Zm-1.127-4.408-.487-2.212.833-.184.487,2.211Zm-.972-4.425-.486-2.212.833-.184.487,2.214Zm-.972-4.425-.487-2.212.833-.183.487,2.213Zm-.974-4.425-.484-2.213.833-.182.486,2.213Zm-.971-4.425-.487-2.212.834-.183.486,2.213Zm-.973-4.426-.486-2.211.833-.182.487,2.212Zm-.971-4.423-.487-2.213.834-.184.486,2.214Zm-.974-4.424-.486-2.212.832-.183.487,2.21Zm-.972-4.425-.486-2.213.834-.182.484,2.211Zm-.972-4.425-.486-2.212.833-.184.487,2.213Zm-.972-4.425-.487-2.212.833-.183.486,2.213Zm-.972-4.425-.486-2.213.833-.182.487,2.213Zm-.972-4.425-.487-2.212.834-.183.486,2.213Zm-.972-4.425-.487-2.21.832-.184.487,2.211Zm-.972-4.423-.487-2.214.834-.181.486,2.212Zm-.972-4.425-.487-2.213.833-.182.487,2.212Zm-.973-4.425-.486-2.213.834-.182.486,2.211Zm-.971-4.425-.487-2.213.833-.183.487,2.213Zm-.974-4.425-.487-2.213.834-.182.487,2.212Zm-.971-4.425-.487-2.213.833-.182.487,2.211Zm-.974-4.425-.487-2.21.834-.184.487,2.21Zm-.972-4.425-.486-2.211.833-.183.486,2.213Zm-.972-4.424-.487-2.213.834-.182.487,2.213Zm-.972-4.425-.487-2.212.833-.183.487,2.213Zm-.972-4.425-.486-2.212.832-.183.487,2.213Zm-.972-4.424-.487-2.213.833-.184.487,2.214Zm-.974-4.425-.486-2.213.833-.182.487,2.212Zm-.971-4.425-.487-2.212.833-.183.486,2.21Zm-.974-4.424-.486-2.213.833-.182.487,2.212Zm-.972-4.426-.486-2.211.834-.183.484,2.212Zm-.972-4.424-.486-2.214.832-.181.487,2.213Z" transform="translate(-617.085 -9515.534)" fill="#999"/>
        <path id="Trazado_107335" data-name="Trazado 107335" d="M638.036,9865.835l-.573-.632.279.323-.423-.041c0-.087-.011-.451-.041-1.071l.853-.04C638.191,9865.687,638.191,9865.687,638.036,9865.835Z" transform="translate(-614.413 -9468.103)" fill="#999"/>
      </g>
      <path id="Trazado_107336" data-name="Trazado 107336" d="M717.887,9911.476a.568.568,0,0,1-.569-.565c-.01-1.968-1.168-197.042-13.913-223.911-9.312-19.628-3.29-75.68-.055-105.793,1.72-16.01,2.138-22.632.521-39.969s-7.406-51.042-7.465-51.381a.57.57,0,0,1,.465-.657.576.576,0,0,1,.657.464c.058.339,5.856,34.1,7.475,51.468,1.626,17.442,1.206,24.1-.52,40.167-3.226,30.032-9.226,85.875-.051,105.215,12.852,27.1,13.981,216.348,14.023,224.392a.569.569,0,0,1-.565.571Z" transform="translate(-577.408 -9489.191)" fill="#4d4d4d"/>
      <path id="Trazado_107337" data-name="Trazado 107337" d="M691.9,9916.513a.569.569,0,0,1-.569-.55c-.055-1.668-5.459-166.822-4.965-176.524.488-9.628-2.751-35.242-2.785-35.5l-3.937-24.607-2.073-40.706c-.021-.5-2.082-49.723-1.544-62.64l.012-.318c.535-12.8,1.2-28.737-1.527-37.206s-21.024-40.185-21.208-40.506a.568.568,0,0,1,.984-.568c.756,1.309,18.539,32.132,21.306,40.726,2.789,8.661,2.12,24.709,1.582,37.6l-.011.317c-.537,12.87,1.523,62.044,1.543,62.539l2.068,40.642,3.934,24.563c.035.276,3.288,25.99,2.793,35.721-.49,9.653,4.913,174.763,4.968,176.428a.57.57,0,0,1-.55.588Z" transform="translate(-583.335 -9488.104)" fill="#4d4d4d"/>
      <path id="Trazado_107338" data-name="Trazado 107338" d="M690.963,9934.521l-14.55,3.053v-66.687l14.55-4.211Z" transform="translate(-580.151 -9437.371)" fill="#404040"/>
      <path id="Trazado_107339" data-name="Trazado 107339" d="M690.963,9943.042v-8.608l-14.55,4.21v4.4Z" transform="translate(-580.151 -9428.069)" fill="#404040"/>
      <rect id="Rectángulo_9816" data-name="Rectángulo 9816" width="1.138" height="98.77" transform="translate(33.775 417.306) rotate(-8.249)" fill="#404040"/>
      <rect id="Rectángulo_9817" data-name="Rectángulo 9817" width="1.138" height="89.499" transform="matrix(0.99, -0.142, 0.142, 0.99, 44.919, 426.463)" fill="#404040"/>
      <rect id="Rectángulo_9818" data-name="Rectángulo 9818" width="1.137" height="86.464" transform="translate(52.849 429.383) rotate(-7.784)" fill="#404040"/>
      <rect id="Rectángulo_9819" data-name="Rectángulo 9819" width="1.138" height="80.12" transform="translate(66.337 435.412) rotate(-6.378)" fill="#404040"/>
      <rect id="Rectángulo_9820" data-name="Rectángulo 9820" width="1.137" height="79.916" transform="translate(78.796 435.397) rotate(-4.898)" fill="#404040"/>
      <rect id="Rectángulo_9821" data-name="Rectángulo 9821" width="1.138" height="79.661" transform="matrix(1, -0.031, 0.031, 1, 86.509, 435.366)" fill="#404040"/>
      <rect id="Rectángulo_9822" data-name="Rectángulo 9822" width="1.137" height="85.671" transform="matrix(1, -0.01, 0.01, 1, 114.396, 429.312)" fill="#404040"/>
      <rect id="Rectángulo_9823" data-name="Rectángulo 9823" width="1.137" height="88.591" transform="translate(126.263 426.382)" fill="#404040"/>
      <rect id="Rectángulo_9824" data-name="Rectángulo 9824" width="92.761" height="1.138" transform="matrix(0.023, -1, 1, 0.023, 135.74, 514.96)" fill="#404040"/>
      <rect id="Rectángulo_9825" data-name="Rectángulo 9825" width="95.38" height="1.138" transform="matrix(0.043, -0.999, 0.999, 0.043, 143.733, 514.947)" fill="#404040"/>
      <rect id="Rectángulo_9826" data-name="Rectángulo 9826" width="96.628" height="1.137" transform="translate(150.916 514.943) rotate(-86.864)" fill="#404040"/>
      <rect id="Rectángulo_9827" data-name="Rectángulo 9827" width="109.451" height="1.137" transform="matrix(0.064, -0.998, 0.998, 0.064, 156.206, 514.934)" fill="#404040"/>
      <path id="Trazado_107340" data-name="Trazado 107340" d="M660.2,9937.862c-10.284,0-20.625-1.366-26-6.028-3.037-2.634-4.24-5.313-3.577-7.966,1.956-7.819,19.568-12.163,19.744-12.2,3.659-.834,38.568-8.735,38.568-8.735l.048-.01,9.1-1.252c1.533-.239,37.89-5.772,45.622,4.17,1.985,2.549,2.74,4.93,2.246,7.074-.865,3.764-5.234,5.915-8.423,7.485a15.506,15.506,0,0,0-2.607,1.453c-2.6,2.2-41.312,12.143-45.718,13.27A177.835,177.835,0,0,1,660.2,9937.862Zm28.963-33.818c-1.026.232-34.939,7.909-38.542,8.729s-17.338,5.151-18.895,11.373c-.55,2.2.532,4.5,3.219,6.827,12.306,10.676,53.6,3.114,54.013,3.036,17.164-4.391,43.414-11.493,45.227-13.027a15.7,15.7,0,0,1,2.84-1.6c2.984-1.47,7.073-3.483,7.816-6.72.414-1.8-.272-3.857-2.035-6.123-7.325-9.418-44.189-3.8-44.559-3.742Z" transform="translate(-586.461 -9432.808)" fill="#404040"/>
      <g id="Grupo_55738" data-name="Grupo 55738" transform="translate(0 150.516)" opacity="0.74">
        <path id="Trazado_107341" data-name="Trazado 107341" d="M652.329,9643.012l13.252-13.062s16.743,4.154,24.959,1.188,16.389-6.33,16.389-6.33l4.332-2.768,5.048,2.967s-2.975,14.363-2.947,19.246,2.353,21.1,4.85,25.848,8.431,30.064,8.035,44.9,2.967,83.07,2.967,83.07l2.57,93.75-3.362,80.895s-18.308-1.812-33.186,6.709c0,0-18.239,3.182-31.293,1.4s-26.76,2.176-26.76,2.176a22.788,22.788,0,0,1-15.745-4.549,138.849,138.849,0,0,1-15.447-14.437l-2.822-78.521L596.895,9768.6l-1.583-59.139s-2.176-10.285-2.966-10.879,5.143-8.924,5.143-8.924a24.585,24.585,0,0,0,16.218,3.188c8.9-1.582,13.845-2.965,15.626-1.186s6.347-1.83,6.338-2,8.2-10.062,8.2-10.062,5.634-7.318,6.029-16.023A205.319,205.319,0,0,1,652.329,9643.012Z" transform="translate(-591.702 -9621.471)" fill="#999"/>
        <path id="Trazado_107342" data-name="Trazado 107342" d="M635.29,9983.74a23.464,23.464,0,0,1-14.127-4.768,140.567,140.567,0,0,1-15.522-14.508.579.579,0,0,1-.148-.362l-2.822-78.521L596.4,9768.7l-1.583-59.152c-.994-4.647-2.312-9.9-2.779-10.476-.392-.287-1.2-.89,5.06-9.673a.567.567,0,0,1,.773-.146c.074.046,7.248,4.622,15.808,3.1,1.563-.276,3-.548,4.327-.8,6.526-1.228,10.123-1.908,11.8-.229a1.27,1.27,0,0,0,.992.323c1.685-.053,4.174-1.894,4.484-2.245l.011.011c.382-.623,1.941-2.56,8.215-10.114.042-.056,5.516-7.271,5.9-15.684.392-8.638,2.416-20.514,2.435-20.634a.571.571,0,0,1,.163-.309l13.252-13.062a.567.567,0,0,1,.536-.146c.166.04,16.671,4.081,24.628,1.2,8.109-2.929,16.285-6.286,16.367-6.32l4.242-2.722a.567.567,0,0,1,.595-.011l5.047,2.967a.564.564,0,0,1,.268.605c-.028.143-2.961,14.36-2.934,19.128.028,4.672,2.327,20.916,4.785,25.588,2.482,4.716,8.5,30.311,8.1,45.178-.391,14.643,2.933,82.345,2.966,83.026l2.573,93.764-3.364,80.935a.568.568,0,0,1-.194.405.624.624,0,0,1-.429.138c-.183-.018-18.3-1.694-32.847,6.635a.562.562,0,0,1-.184.066c-.184.032-18.482,3.177-31.469,1.4-12.792-1.745-26.391,2.119-26.526,2.159A15.467,15.467,0,0,1,635.29,9983.74Zm-28.667-19.888a137.915,137.915,0,0,0,15.229,14.216,22.416,22.416,0,0,0,15.32,4.438c.06-.023,13.9-3.955,26.918-2.175,12.325,1.676,29.569-1.138,31.023-1.382,13.333-7.6,29.54-6.988,32.834-6.777l3.339-80.306-2.571-93.712c-.034-.67-3.358-68.416-2.967-83.1.392-14.71-5.528-39.976-7.969-44.618-2.628-5-4.888-21.464-4.916-26.109-.026-4.487,2.387-16.564,2.877-18.967l-4.4-2.584-4.037,2.58c-.173.082-8.37,3.448-16.5,6.387-7.762,2.8-22.573-.523-24.978-1.095l-12.9,12.709a203.222,203.222,0,0,0-2.389,20.313c-.4,8.781-5.912,16.036-6.146,16.342-3.125,3.764-7.861,9.51-8.153,9.979l-.017-.009c-.514.885-3.206,2.219-3.236,2.232-2.228,1-3.4.506-3.988-.082-1.256-1.252-5.046-.54-10.786.544-1.326.249-2.772.522-4.338.8a24.9,24.9,0,0,1-16.161-2.988c-2.293,3.255-4.654,7-4.8,7.889.809,1.17,2.072,6.561,3.019,11.036l1.594,59.239,6.276,116.88ZM592.756,9698.2l.047.04A.559.559,0,0,0,592.756,9698.2Zm42.949-8.416h0Z" transform="translate(-591.771 -9621.539)" fill="#4d4d4d"/>
      </g>
      <g id="Grupo_55739" data-name="Grupo 55739" transform="translate(5.217 171.488)" opacity="0.74">
        <path id="Trazado_107343" data-name="Trazado 107343" d="M599.43,9686.524l16.614-15.791,35.656-30.254-2.427,20.563-4.8,14.205-7.194,9.655-6.359,4.595-4.193-.766-7.148.766-9.087,1.1h-7.947l-5.683-3.471Z" transform="translate(-596.289 -9639.911)" fill="#b3b3b3"/>
        <path id="Trazado_107344" data-name="Trazado 107344" d="M602.611,9691.234a.555.555,0,0,1-.3-.086l-5.683-3.469a.568.568,0,0,1,.166-1.039l2.421-.566,16.5-15.684,35.681-30.277a.568.568,0,0,1,.931.5l-2.427,20.563a.6.6,0,0,1-.026.115l-4.8,14.207a.556.556,0,0,1-.082.156l-7.193,9.656a.611.611,0,0,1-.123.121l-6.359,4.594a.566.566,0,0,1-.436.1l-4.112-.752-7.067.758-9.079,1.1Zm.159-1.139h7.788l9.02-1.094,7.155-.766a.564.564,0,0,1,.163.006l3.955.721,6.09-4.4,7.089-9.514,4.754-14.062,2.252-19.07-34.555,29.32-16.59,15.77a.6.6,0,0,1-.262.143l-1.221.283Zm-3.272-3.5h0Z" transform="translate(-596.358 -9639.979)" fill="#4d4d4d"/>
      </g>
      <g id="Grupo_55740" data-name="Grupo 55740" transform="translate(140.083 408.172)">
        <path id="Trazado_107345" data-name="Trazado 107345" d="M716.328,9856.4l5.159-3.616,2.385.734s1.011.338,1.011-.632l-1.971-3.981s-.96-1.706-1.739-.166l-.775,2.809-4.694,3.626-.76,1.3Z" transform="translate(-714.945 -9848.094)" fill="#666"/>
      </g>
      <g id="Grupo_55741" data-name="Grupo 55741" transform="translate(138.453 335.485)">
        <path id="Trazado_107346" data-name="Trazado 107346" d="M714.893,9792.486l5.159-3.616,2.385.734s1.011.337,1.011-.632l-1.971-3.983s-.959-1.7-1.739-.164l-.775,2.808-4.692,3.626-.76,1.3Z" transform="translate(-713.511 -9784.181)" fill="#666"/>
      </g>
      <g id="Grupo_55742" data-name="Grupo 55742" transform="translate(135.512 267.302)">
        <path id="Trazado_107347" data-name="Trazado 107347" d="M712.307,9732.531l5.159-3.615,2.385.734s1.011.338,1.011-.631l-1.971-3.982s-.959-1.705-1.739-.166l-.773,2.807-4.693,3.627-.76,1.3Z" transform="translate(-710.925 -9724.228)" fill="#666"/>
      </g>
      <g id="Grupo_55743" data-name="Grupo 55743" transform="translate(88.438 271.95)">
        <path id="Trazado_107348" data-name="Trazado 107348" d="M670.916,9736.619l5.159-3.614,2.385.731s1.011.339,1.011-.631l-1.971-3.981s-.959-1.706-1.739-.166l-.775,2.808-4.693,3.626-.759,1.3Z" transform="translate(-669.534 -9728.314)" fill="#666"/>
      </g>
      <g id="Grupo_55744" data-name="Grupo 55744" transform="translate(48.263 270.169)">
        <path id="Trazado_107349" data-name="Trazado 107349" d="M635.591,9735.053l5.159-3.614,2.384.732s1.012.339,1.011-.631l-1.971-3.981s-.959-1.706-1.738-.165l-.775,2.808-4.694,3.625-.76,1.3Z" transform="translate(-634.208 -9726.749)" fill="#666"/>
      </g>
      <g id="Grupo_55745" data-name="Grupo 55745" transform="translate(49.331 339.675)">
        <path id="Trazado_107350" data-name="Trazado 107350" d="M636.529,9796.17l5.159-3.614,2.385.732s1.011.338,1.011-.631l-1.971-3.982s-.959-1.705-1.739-.166l-.773,2.809-4.694,3.625-.76,1.3Z" transform="translate(-635.147 -9787.865)" fill="#666"/>
      </g>
      <g id="Grupo_55746" data-name="Grupo 55746" transform="translate(51.848 418.493)">
        <path id="Trazado_107351" data-name="Trazado 107351" d="M638.742,9865.475l5.159-3.615,2.385.732s1.011.34,1.011-.631l-1.971-3.982s-.96-1.705-1.739-.166l-.775,2.809-4.694,3.625-.759,1.3Z" transform="translate(-637.36 -9857.169)" fill="#666"/>
      </g>
      <path id="Trazado_107352" data-name="Trazado 107352" d="M654.221,9739.257l-1.091-.32c2.389-8.132,17.564-27.309,18.21-28.121l.89.705C672.074,9711.72,656.549,9731.338,654.221,9739.257Z" transform="translate(-583.347 -9458.768)" fill="#666"/>
      <path id="Trazado_107353" data-name="Trazado 107353" d="M646.037,9736.816c-.776-10.861,6.43-21.606,6.736-22.059l.942.64c-.073.107-7.291,10.877-6.543,21.339Z" transform="translate(-584.329 -9458.226)" fill="#666"/>
      <path id="Trazado_107354" data-name="Trazado 107354" d="M696.679,9741.922c-1.665-10.738,5.413-24.819,5.716-25.414l1.013.516c-.073.143-7.214,14.352-5.606,24.726Z" transform="translate(-577.404 -9457.985)" fill="#666"/>
      <path id="Trazado_107355" data-name="Trazado 107355" d="M664.885,9738.289c-3.626,0-7.1-.061-10.33-.2-26.6-1.178-57.518-9.475-57.827-9.561l.3-1.1c.308.082,31.1,8.348,57.582,9.52,26.5,1.172,70.24-3.07,70.677-3.115l.11,1.133C725.008,9735.006,691.133,9738.289,664.885,9738.289Z" transform="translate(-591.09 -9456.487)" fill="#666"/>
      <path id="Trazado_107356" data-name="Trazado 107356" d="M642.714,9718.6c-.024-.426-2.432-42.59-2.206-51.982l1.137.025c-.224,9.348,2.18,51.467,2.205,51.893Z" transform="translate(-585.082 -9464.834)" fill="#666"/>
      <g id="Grupo_55747" data-name="Grupo 55747" transform="translate(42.285 49.765)">
        <path id="Trazado_107357" data-name="Trazado 107357" d="M754.419,9555.129l-34.552-5.937s-36.732-7.457-48.793-3.948-38.157,10.526-38.157,10.526l-3.509-11.465s33.551-14.851,61.73-10.025,61.73,9.209,61.73,9.209l2.646.293A14.575,14.575,0,0,1,754.419,9555.129Z" transform="translate(-628.889 -9532.899)" fill="#fff"/>
        <path id="Trazado_107358" data-name="Trazado 107358" d="M632.691,9556.338l-3.739-12.221.347-.151c.337-.149,34-14.851,61.975-10.056,27.849,4.768,61.379,9.162,61.714,9.207l2.9.319.091.249a14.862,14.862,0,0,1-1.126,11.7l-.149.26-.294-.052-34.552-5.937c-.379-.075-36.781-7.4-48.6-3.958-11.928,3.471-37.9,10.459-38.166,10.529Zm-2.7-11.741,3.276,10.7c3.332-.9,26.643-7.184,37.752-10.417,12.021-3.5,47.49,3.635,49,3.94l34.24,5.882a14.3,14.3,0,0,0,1-10.48l-2.371-.262c-.345-.045-33.891-4.444-61.756-9.215C664.934,9530.27,633.626,9543.056,629.99,9544.6Z" transform="translate(-628.952 -9532.949)" fill="#999"/>
      </g>
      <g id="Grupo_55748" data-name="Grupo 55748" transform="translate(166.69 60.649)">
        <path id="Trazado_107359" data-name="Trazado 107359" d="M739.722,9550.824l5.159-3.616,2.385.733s1.011.338,1.011-.631l-1.971-3.981s-.959-1.706-1.739-.166l-.773,2.808L739.1,9549.6l-.76,1.3Z" transform="translate(-738.34 -9542.52)" fill="#666"/>
      </g>
      <g id="Grupo_55749" data-name="Grupo 55749" transform="translate(91.9 47.5)">
        <path id="Trazado_107360" data-name="Trazado 107360" d="M673.96,9539.262l5.159-3.614,2.385.732s1.011.339,1.011-.631l-1.971-3.982s-.959-1.705-1.739-.164l-.774,2.808-4.692,3.625-.76,1.3Z" transform="translate(-672.578 -9530.958)" fill="#666"/>
      </g>
      <g id="Grupo_55750" data-name="Grupo 55750" transform="translate(39 57.218)">
        <path id="Trazado_107361" data-name="Trazado 107361" d="M634.618,9547.808l-5.159-3.614-2.385.733s-1.011.338-1.011-.633l1.972-3.981s.959-1.706,1.738-.165l.774,2.808,4.694,3.625.76,1.3Z" transform="translate(-626.063 -9539.503)" fill="#666"/>
      </g>
    </g>
  </g>
</svg>
