<svg xmlns="http://www.w3.org/2000/svg" width="500" height="468.382" viewBox="0 0 500 468.382">
  <g id="Grupo_55690" data-name="Grupo 55690" transform="translate(-350.718 -8468.869)">
    <rect id="Rectángulo_9742" data-name="Rectángulo 9742" width="500" height="468.382" rx="32.614" transform="translate(350.718 8468.869)" fill="#fff"/>
    <g id="Grupo_55689" data-name="Grupo 55689" transform="translate(405.056 8485.756)">
      <g id="Grupo_55673" data-name="Grupo 55673" transform="translate(0 28.615)" opacity="0.74">
        <path id="Trazado_107172" data-name="Trazado 107172" d="M567.161,8904.895l-153.444,1.636-.358-170.256-9.3-11.982,8.048-51.506s43.1,6.975,46.678-36.841c0,0,3.04-38.63-4.471-51.863L513.85,8565.3l-10.355-43.1,42.385-8.584s32.728,135.918,28.078,196.455-9.658,66.619-9.658,66.619Z" transform="translate(-403.545 -8513.103)" fill="#999"/>
        <path id="Trazado_107173" data-name="Trazado 107173" d="M413.731,8907.06a.513.513,0,0,1-.514-.514l-.359-170.079-9.19-11.845a.514.514,0,0,1-.1-.395l8.049-51.506a.515.515,0,0,1,.59-.428c.187.03,19.018,2.919,32.5-7.645,7.968-6.243,12.538-15.91,13.584-28.731.031-.383,2.943-38.622-4.405-51.567a.514.514,0,0,1,.292-.744l59.08-18.635-10.244-42.633a.524.524,0,0,1,.067-.4.518.518,0,0,1,.331-.228l42.386-8.584a.508.508,0,0,1,.6.384c.327,1.359,32.694,136.69,28.09,196.614-4.271,55.6-8.837,65.389-9.652,66.729L567.69,8904.9a.516.516,0,0,1-.509.524l-153.444,1.636Zm-9.115-182.893,9.163,11.807a.521.521,0,0,1,.107.314l.358,169.738L566.65,8904.4l-2.85-127.684a.516.516,0,0,1,.117-.339c.194-.259,5-7.271,9.54-66.329,4.453-57.962-25.82-186.854-27.948-195.813l-41.377,8.38,10.231,42.582a.513.513,0,0,1-.344.61l-58.943,18.59c7.124,13.679,4.357,50.04,4.234,51.6-1.07,13.124-5.774,23.036-13.98,29.464-12.575,9.848-29.62,8.3-32.778,7.915Z" transform="translate(-403.559 -8513.118)" fill="#4d4d4d"/>
      </g>
      <path id="Trazado_107174" data-name="Trazado 107174" d="M547.158,8734.771c0-.03-.095-3.122-.341-8.255l1.026-.05c.249,5.144.342,8.243.344,8.274Zm-.784-16.484c-.148-2.526-.322-5.282-.526-8.221l1.026-.069c.2,2.941.377,5.7.525,8.229Zm-1.132-16.433c-.21-2.648-.441-5.393-.7-8.206l1.024-.093c.254,2.818.485,5.565.7,8.218Zm-1.483-16.4c-.276-2.7-.573-5.431-.892-8.185l1.022-.119c.319,2.759.616,5.5.892,8.2Zm-1.9-16.35c-.371-2.817-.756-5.561-1.143-8.154l1.017-.152c.389,2.6.774,5.35,1.147,8.173Zm-2.445-16.278c-.479-2.791-.982-5.512-1.5-8.089l1.008-.2c.515,2.585,1.02,5.315,1.5,8.115Zm-3.239-16.123c-.664-2.813-1.36-5.487-2.068-7.948l.987-.285c.714,2.478,1.413,5.168,2.081,8Zm-4.6-15.747c-.893-2.44-1.791-5.068-2.672-7.811l.978-.315c.878,2.73,1.773,5.347,2.659,7.772Zm-5.078-15.7c-.729-2.521-1.468-5.194-2.2-7.948l.994-.264c.726,2.747,1.463,5.413,2.19,7.927Zm-4.224-15.941c-.654-2.677-1.284-5.359-1.889-8.023l1-.228c.6,2.659,1.234,5.335,1.885,8.009Zm-3.659-16.076c-.581-2.74-1.135-5.44-1.662-8.073l1.008-.2c.527,2.629,1.079,5.324,1.661,8.061Zm-3.227-16.166c-.532-2.833-1.025-5.549-1.477-8.109l1.012-.179c.452,2.557.945,5.269,1.476,8.1Zm-2.87-16.235c-.525-3.177-.963-5.929-1.3-8.147l1.016-.156c.341,2.214.777,4.965,1.3,8.135Z" transform="translate(-400.509 -8483.953)" fill="#4d4d4d"/>
      <path id="Trazado_107175" data-name="Trazado 107175" d="M461.542,8645.688l-.857-.569c.015-.022,1.488-2.3,2.319-7.619l1.017.158C463.148,8643.23,461.607,8645.59,461.542,8645.688Z" transform="translate(-401.941 -8480.979)" fill="#4d4d4d"/>
      <rect id="Rectángulo_9743" data-name="Rectángulo 9743" width="166.773" height="1.028" transform="translate(4.092 224.402)" fill="#999"/>
      <rect id="Rectángulo_9744" data-name="Rectángulo 9744" width="1.028" height="194.825" transform="matrix(1, -0.007, 0.007, 1, 49.539, 225.591)" fill="#999"/>
      <rect id="Rectángulo_9745" data-name="Rectángulo 9745" width="49.267" height="1.029" transform="translate(7.164 238.461) rotate(-79.655)" fill="#999"/>
      <rect id="Rectángulo_9746" data-name="Rectángulo 9746" width="1.029" height="9.023" transform="translate(7.27 238.879) rotate(-39.368)" fill="#999"/>
      <rect id="Rectángulo_9747" data-name="Rectángulo 9747" width="79.97" height="1.029" transform="translate(11.922 251.122) rotate(-19.496)" fill="#999"/>
      <rect id="Rectángulo_9748" data-name="Rectángulo 9748" width="1.028" height="6.036" transform="translate(87.677 221.742)" fill="#999"/>
      <rect id="Rectángulo_9749" data-name="Rectángulo 9749" width="1.028" height="167.199" transform="translate(146.649 253.224) rotate(-0.644)" fill="#999"/>
      <rect id="Rectángulo_9750" data-name="Rectángulo 9750" width="1.028" height="132.32" transform="translate(154.697 288.095) rotate(-0.465)" fill="#999"/>
      <rect id="Rectángulo_9751" data-name="Rectángulo 9751" width="1.028" height="147.768" transform="matrix(0.973, -0.231, 0.231, 0.973, 125.471, 166.152)" fill="#999"/>
      <rect id="Rectángulo_9752" data-name="Rectángulo 9752" width="1.028" height="81.268" transform="translate(117.264 85.232) rotate(-5.788)" fill="#999"/>
      <rect id="Rectángulo_9753" data-name="Rectángulo 9753" width="1.029" height="134.637" transform="translate(118.701 99.396) rotate(-10.936)" fill="#999"/>
      <rect id="Rectángulo_9754" data-name="Rectángulo 9754" width="1.029" height="204.454" transform="translate(151.209 80.2) rotate(-1.128)" fill="#999"/>
      <rect id="Rectángulo_9755" data-name="Rectángulo 9755" width="1.028" height="193.166" transform="translate(143.967 44.787) rotate(-0.796)" fill="#999"/>
      <rect id="Rectángulo_9756" data-name="Rectángulo 9756" width="42.453" height="1.029" transform="matrix(0.978, -0.209, 0.209, 0.978, 101.989, 42.941)" fill="#999"/>
      <rect id="Rectángulo_9757" data-name="Rectángulo 9757" width="1.028" height="7.655" transform="translate(106.957 36.295) rotate(-11.111)" fill="#999"/>
      <rect id="Rectángulo_9758" data-name="Rectángulo 9758" width="68.625" height="1.028" transform="translate(52.051 104.926) rotate(-17.16)" fill="#999"/>
      <path id="Trazado_107176" data-name="Trazado 107176" d="M413.625,8677.372v-1.028h11c.215,0,22.412-.55,30.929-17.065.93-1.8,1.779-3.4,2.554-4.862,6.559-12.358,7.74-14.585,6.782-42.992-.023-.2-2.528-23.911-5.232-29.757l.934-.432c2.777,6,5.221,29.137,5.324,30.118.971,28.717-.385,31.271-6.9,43.545-.774,1.458-1.623,3.056-2.549,4.853-8.8,17.066-31.606,17.617-31.835,17.621Z" transform="translate(-403.274 -8482.573)" fill="#999"/>
      <path id="Trazado_107177" data-name="Trazado 107177" d="M555.457,8883.68H547.23v-1.028h8.227Zm-16.453,0h-8.227v-1.028H539Zm-16.453,0h-8.227v-1.028h8.227Zm-16.453,0H497.87v-1.028H506.1Zm-16.453,0h-8.227v-1.028h8.227Zm-16.453,0h-8.227v-1.028h8.227Zm-16.453,0h-8.227v-1.028h8.227Zm-16.453,0h-8.227v-1.028h8.227Zm-16.453,0h-2.822l-.078-6.421,1.028-.013.066,5.405h1.806Zm-3-14.646-.1-8.227,1.028-.013.1,8.227Zm-.2-16.452-.1-8.227,1.028-.013.1,8.227Zm-.2-16.453-.1-8.226,1.028-.012.1,8.226Zm-.2-16.452-.1-8.226,1.028-.012.1,8.226Zm-.2-16.451-.1-8.227,1.028-.012.1,8.227Zm-.2-16.452-.1-8.227,1.028-.012.1,8.227Zm-.2-16.451-.1-8.226,1.028-.013.1,8.226Zm-.2-16.452-.1-8.226,1.028-.014.1,8.227Zm-.2-16.452-.1-8.227,1.028-.013.1,8.226Z" transform="translate(-403.118 -8478.381)" fill="#4d4d4d"/>
      <path id="Trazado_107178" data-name="Trazado 107178" d="M414.147,8704.275l-1.016-.155,1.238-8.133,1.016.154Zm2.475-16.266-1.016-.155,1.238-8.133,1.016.154Zm10.7-13.258H420.8v-1.028h6.52Z" transform="translate(-403.288 -8479.953)" fill="#4d4d4d"/>
      <rect id="Rectángulo_9759" data-name="Rectángulo 9759" width="1.028" height="5.902" transform="translate(14.397 222.01)" fill="#4d4d4d"/>
      <rect id="Rectángulo_9760" data-name="Rectángulo 9760" width="12.072" height="1.028" transform="translate(10.351 223.731)" fill="#4d4d4d"/>
      <rect id="Rectángulo_9761" data-name="Rectángulo 9761" width="13.311" height="1.029" transform="translate(11.923 251.123) rotate(-19.496)" fill="#4d4d4d"/>
      <path id="Trazado_107179" data-name="Trazado 107179" d="M462.113,8599l-2.448-13.34,7.252-2,.273.992-6.344,1.752,2.28,12.414Z" transform="translate(-401.97 -8482.504)" fill="#4d4d4d"/>
      <rect id="Rectángulo_9762" data-name="Rectángulo 9762" width="8.227" height="1.027" transform="translate(108.795 87.205) rotate(-15.884)" fill="#4d4d4d"/>
      <circle id="Elipse_4326" data-name="Elipse 4326" cx="2.582" cy="2.582" r="2.582" transform="translate(122.953 162.144)" fill="#4d4d4d"/>
      <rect id="Rectángulo_9763" data-name="Rectángulo 9763" width="1.028" height="19.855" transform="translate(17.885 402.099)" fill="#999"/>
      <rect id="Rectángulo_9764" data-name="Rectángulo 9764" width="7.646" height="1.028" transform="translate(10.753 404.27)" fill="#999"/>
      <path id="Trazado_107180" data-name="Trazado 107180" d="M555.5,8772.718l-.942-.414c10.984-25.029,10.346-65.321,8.274-101.434-1.855-32.314-16.208-99.23-16.354-99.9l-10.821-54.725,1.009-.2,10.819,54.716c.144.664,14.514,67.658,16.373,100.051C565.936,8707.045,566.57,8747.488,555.5,8772.718Z" transform="translate(-399.817 -8484.419)" fill="#999"/>
      <g id="Grupo_55674" data-name="Grupo 55674" transform="translate(246.142 21.287)">
        <path id="Trazado_107181" data-name="Trazado 107181" d="M770.2,8566.983s-12.537-5.411-17.257-8.564c0,0-4.586-2.214-4.779-12.223s.577-16.936,2.116-21.65l1.925-7.314s-5.582-8.66-21.17-10.681c0,0-10.489-.962-12.9,1.539,0,0-6.351,23.77-15.012,34.354,0,0-1.828,7.025-21.075,10.971l-22.71,4.906s-10.489,2.214-12.125,10.778c0,0-6.351,6.832-2.888,32.237l.962,5.2,11.163,57.546,16.263,64.474.674,2.309v6.448s-14.09,39.086-16.207,58.331-1.854,120.449-1.854,120.449,72.706,6.072,116.961,0l-.8-109.449s.643-32.132-3.488-45.068c-2.547-7.979-12.608-24.263-12.608-24.263s-1.487-4.3-.536-7.754l4.113-25.748,9.113-36.65,6.159-11.355s8.02-10.457,6.993-19.181l-2.95-10.265s-.386-13.472.128-18.477l3.722-13.343,1.283-12.062s.9-5.518-2.823-8.6A93.619,93.619,0,0,0,770.2,8566.983Z" transform="translate(-642.91 -8505.98)" fill="#fff"/>
        <path id="Trazado_107182" data-name="Trazado 107182" d="M722.439,8919.168c-34.417,0-66.641-2.643-67.124-2.683l-.353-.029v-.354c0-1.012-.24-101.445,1.856-120.492,2.057-18.707,15.561-56.557,16.205-58.356v-6.324l-.658-2.257L656.1,8664.184l-11.168-57.566-.964-5.2c-3.288-24.108,2.154-31.58,2.909-32.483,1.728-8.631,12.3-10.957,12.4-10.979l22.709-4.907c18.7-3.832,20.764-10.624,20.784-10.692l.074-.145c8.508-10.4,14.874-33.973,14.938-34.21l.094-.167c2.505-2.606,12.771-1.7,13.209-1.656,15.6,2.021,21.228,10.5,21.459,10.856l.091.142-1.968,7.479c-1.6,4.909-2.287,11.95-2.1,21.547s4.521,11.859,4.565,11.882c4.68,3.123,17.115,8.5,17.239,8.557l.039.02a94.428,94.428,0,0,1,10.448,6.935c3.846,3.183,3,8.72,2.957,8.956l-1.281,12.039-3.732,13.405c-.478,4.71-.141,17.421-.117,18.313l2.939,10.218c1.045,8.841-6.725,19.091-7.057,19.523l-6.1,11.261-9.1,36.6-4.107,25.717c-.918,3.34.5,7.524.52,7.565.065.088,10.079,16.341,12.611,24.272,4.1,12.849,3.512,44.872,3.506,45.193l.806,109.778-.335.045C757.686,8918.5,739.782,8919.168,722.439,8919.168Zm-66.708-3.423c5.54.444,74.023,5.728,116.189.02l-.8-109.11c.006-.332.594-32.226-3.47-44.954-2.5-7.842-12.469-24.015-12.569-24.178-.1-.257-1.553-4.531-.579-8.059l4.1-25.707,9.154-36.772,6.16-11.354c.112-.154,7.944-10.486,6.948-18.953l-2.954-10.3c0-.135-.379-13.554.131-18.526l3.733-13.408,1.271-12c.011-.073.818-5.36-2.685-8.258a93.247,93.247,0,0,0-10.319-6.849c-.749-.323-12.654-5.484-17.3-8.59-.15-.066-4.757-2.406-4.952-12.533-.185-9.685.513-16.809,2.136-21.779l1.874-7.12c-.794-1.1-6.655-8.539-20.8-10.372-2.819-.257-10.52-.512-12.5,1.357-.467,1.707-6.709,24.135-15.01,34.338-.285.872-3.007,7.4-21.345,11.163l-22.707,4.906c-.1.022-10.259,2.266-11.827,10.474l-.02.107-.075.082c-.063.068-6.176,7.078-2.789,31.923l.959,5.179,11.162,57.543,16.257,64.452.686,2.4-.023,6.577c-.141.391-14.1,39.265-16.187,58.243C655.556,8814.127,655.716,8909.133,655.731,8915.745Z" transform="translate(-642.92 -8505.991)" fill="#999"/>
      </g>
      <path id="Trazado_107183" data-name="Trazado 107183" d="M746.444,8915.034l-.771-.012c.023-1.322,2.059-132.467-6.564-156.919-5.625-15.953-1.792-29.4.746-38.294.214-.752.419-1.47.606-2.147l6.033-53.687c.022-.325,2.286-34.4.871-49.588-.471-5.042-1.583-11.136-2.76-17.586-2.5-13.672-5.324-29.168-4.158-43.949L745.2,8524.9l.761.129-4.753,27.919c-1.155,14.646,1.664,30.09,4.15,43.716,1.182,6.468,2.3,12.577,2.769,17.652,1.421,15.251-.847,49.386-.87,49.729l-6.047,53.763c-.2.739-.4,1.458-.619,2.215-2.51,8.8-6.3,22.1-.76,37.824C748.5,8782.428,746.466,8913.712,746.444,8915.034Z" transform="translate(-394.135 -8484.168)" fill="#999"/>
      <path id="Trazado_107184" data-name="Trazado 107184" d="M719.271,8918.792h-.018a.515.515,0,0,1-.5-.532c.049-1.359,4.8-136.04-.7-153.842-3.783-12.263,5.843-41.921,14.334-68.088,4.123-12.7,8.017-24.7,9.808-33.062,2.614-12.2,2.371-33.115,1.041-47.381-.453-4.87-1.482-10.915-2.571-17.316-2.338-13.75-5.249-30.861-4.061-45.9l5.295-27.914a.514.514,0,1,1,1.011.191l-5.289,27.858c-1.169,14.855,1.729,31.9,4.059,45.592,1.091,6.42,2.122,12.484,2.58,17.393,1.338,14.342,1.577,35.383-1.059,47.691-1.8,8.416-5.7,20.438-9.835,33.165-8.445,26.021-18.017,55.515-14.331,67.466,5.543,17.968.939,148.628.741,154.182A.515.515,0,0,1,719.271,8918.792Z" transform="translate(-394.673 -8484.184)" fill="#4d4d4d"/>
      <ellipse id="Elipse_4327" data-name="Elipse 4327" cx="2.598" cy="3.897" rx="2.598" ry="3.897" transform="translate(254.978 101.15)" fill="#999"/>
      <g id="Grupo_55675" data-name="Grupo 55675" transform="translate(330.87)">
        <path id="Trazado_107185" data-name="Trazado 107185" d="M730.661,8502.743v10.392a5.24,5.24,0,0,0,4.78.353l.1-10.744a8.337,8.337,0,0,0,6.286-8.277s.9-9.173-8.34-8.789-7.7,11.035-7.7,11.035S727.454,8502.1,730.661,8502.743Z" transform="translate(-725.303 -8485.279)" fill="#fff"/>
        <path id="Trazado_107186" data-name="Trazado 107186" d="M733.391,8514.3a5.466,5.466,0,0,1-2.94-.84l-.165-.115v-10.292c-3.187-.931-4.789-6-4.858-6.218-.045-.279-.76-5.479,2.027-8.835a7.873,7.873,0,0,1,6.024-2.7c2.855-.116,5.056.635,6.571,2.236,2.554,2.7,2.185,6.8,2.169,6.975a8.675,8.675,0,0,1-6.288,8.531l-.1,10.712-.237.1A5.778,5.778,0,0,1,733.391,8514.3Zm-2.333-1.371a4.842,4.842,0,0,0,4.01.3l.1-10.787.3-.068a7.884,7.884,0,0,0,5.988-7.9c.006-.08.351-3.975-1.962-6.415-1.355-1.431-3.355-2.1-5.977-1.992a7.128,7.128,0,0,0-5.461,2.422c-2.57,3.095-1.879,8.122-1.872,8.173h0c.005,0,1.628,5.118,4.57,5.706l.31.063Z" transform="translate(-725.313 -8485.291)" fill="#999"/>
      </g>
      <path id="Trazado_107187" data-name="Trazado 107187" d="M776.748,8633.8l-4.824-18.252c-4.012-12.8-4.7-20.168-5.739-31.32-.135-1.442-.276-2.948-.43-4.537-1.31-13.467-6.047-17.107-6.095-17.144l.455-.624c.207.15,5.058,3.822,6.408,17.692.154,1.59.3,3.1.43,4.54,1.037,11.1,1.721,18.44,5.712,31.179l4.829,18.269Z" transform="translate(-393.471 -8483.119)" fill="#999"/>
      <path id="Trazado_107188" data-name="Trazado 107188" d="M716.875,8729.959q-1.146,0-2.331-.012c-30.064-.314-42.688-7.1-42.812-7.17l.373-.675c.123.067,12.61,6.761,42.447,7.074,26.412.265,38.954-4.21,39.078-4.255l.265.724C753.774,8725.69,741.846,8729.959,716.875,8729.959Z" transform="translate(-395.962 -8478.581)" fill="#999"/>
      <path id="Trazado_107189" data-name="Trazado 107189" d="M717.326,8739q-1.414,0-2.826-.054c-28.14-1.075-41.5-7.577-41.631-7.643l.343-.69c.131.065,13.365,6.494,41.318,7.562,19.4.748,39.759-6.6,39.963-6.672l.265.725C754.563,8732.3,735.968,8739,717.326,8739Z" transform="translate(-395.93 -8478.341)" fill="#999"/>
      <path id="Trazado_107190" data-name="Trazado 107190" d="M731.118,8566.213a21.159,21.159,0,0,1-4.6-.524c-15.546-3.455-28.481-20.087-28.609-20.254l.611-.471c.128.166,12.9,16.578,28.165,19.972,15.1,3.354,21.316-11.142,21.377-11.288l.713.3C748.72,8554.082,743.516,8566.213,731.118,8566.213Z" transform="translate(-395.22 -8483.6)" fill="#999"/>
      <path id="Trazado_107191" data-name="Trazado 107191" d="M745.738,8525.407c-16.532,0-31.869-9.762-32.029-9.865l.418-.648c.167.108,16.807,10.679,33.939,9.675l.046.77Q746.923,8525.408,745.738,8525.407Z" transform="translate(-394.773 -8484.452)" fill="#999"/>
      <path id="Trazado_107192" data-name="Trazado 107192" d="M744.738,8518.758c-14.65,0-28.495-9.438-28.65-9.546l.438-.635c.173.119,17.5,11.935,33.712,8.918l.141.76A30.846,30.846,0,0,1,744.738,8518.758Z" transform="translate(-394.705 -8484.631)" fill="#999"/>
      <path id="Trazado_107193" data-name="Trazado 107193" d="M671.845,8642.976l-3.289-10.745.313-.139c.3-.13,29.837-13.031,54.4-8.826,24.438,4.186,53.867,8.044,54.162,8.081l2.55.281.082.225a13.057,13.057,0,0,1-.989,10.281l-.135.235-.265-.046-30.324-5.211c-.332-.066-32.276-6.493-42.649-3.473-10.468,3.045-33.266,9.178-33.5,9.24Zm-2.35-10.313,2.87,9.376c2.963-.8,23.382-6.307,33.12-9.14,10.552-3.07,41.687,3.188,43.006,3.456l30.043,5.162a12.5,12.5,0,0,0,.877-9.176l-2.073-.228c-.3-.04-29.745-3.9-54.2-8.087C700.166,8620.1,672.728,8631.294,669.495,8632.662Z" transform="translate(-396.052 -8481.406)" fill="#999"/>
      <path id="Trazado_107194" data-name="Trazado 107194" d="M718.346,8738.712l-2.9-2.9,2.253-3.091-2.825-3.067.566-.522,3.255,3.534-2.237,3.067,2.429,2.429Z" transform="translate(-394.74 -8478.382)" fill="#999"/>
      <path id="Trazado_107195" data-name="Trazado 107195" d="M722.4,8738.712l-2.9-2.9,2.253-3.091-2.825-3.067.566-.522,3.255,3.534-2.237,3.067,2.429,2.429Z" transform="translate(-394.624 -8478.382)" fill="#999"/>
      <path id="Trazado_107196" data-name="Trazado 107196" d="M726.519,8738.442l-2.7-2.816,2.1-3-2.633-2.981.578-.51,3.035,3.435-2.086,2.981,2.263,2.358Z" transform="translate(-394.501 -8478.382)" fill="#999"/>
      <path id="Trazado_107197" data-name="Trazado 107197" d="M730.648,8737.83l-2.71-2.661,2.092-2.816-2.6-2.773.562-.528,3.042,3.243-2.076,2.795,2.23,2.191Z" transform="translate(-394.384 -8478.386)" fill="#999"/>
      <path id="Trazado_107198" data-name="Trazado 107198" d="M734.345,8737.209l-2.71-2.661,2.092-2.817-2.6-2.773.562-.528,3.04,3.243-2.074,2.8,2.23,2.191Z" transform="translate(-394.279 -8478.403)" fill="#999"/>
      <path id="Trazado_107199" data-name="Trazado 107199" d="M696.5,8737.664l-2.615-3.082,2.54-2.744-2.508-3.215.609-.474,2.911,3.73-2.522,2.725,2.173,2.562Z" transform="translate(-395.334 -8478.411)" fill="#999"/>
      <path id="Trazado_107200" data-name="Trazado 107200" d="M700.544,8738.067l-2.615-3.082,2.54-2.745-2.508-3.214.609-.475,2.911,3.73-2.522,2.725,2.173,2.563Z" transform="translate(-395.22 -8478.398)" fill="#999"/>
      <path id="Trazado_107201" data-name="Trazado 107201" d="M704.894,8738.5l-2.615-3.082,2.539-2.744-2.507-3.215.609-.474,2.91,3.73-2.521,2.725,2.173,2.562Z" transform="translate(-395.096 -8478.387)" fill="#999"/>
      <path id="Trazado_107202" data-name="Trazado 107202" d="M683.877,8735.008l-2.615-3.082,2.539-2.744-2.507-3.215.609-.475,2.91,3.731-2.521,2.725,2.173,2.562Z" transform="translate(-395.692 -8478.485)" fill="#999"/>
      <path id="Trazado_107203" data-name="Trazado 107203" d="M679.923,8733.872l-2.615-3.082,2.539-2.744-2.507-3.215.609-.475,2.91,3.731-2.521,2.725,2.173,2.562Z" transform="translate(-395.804 -8478.518)" fill="#999"/>
      <path id="Trazado_107204" data-name="Trazado 107204" d="M676.66,8732.759l-2.615-3.082,2.539-2.745-2.507-3.214.609-.475,2.91,3.73-2.521,2.725,2.173,2.563Z" transform="translate(-395.896 -8478.549)" fill="#999"/>
      <path id="Trazado_107205" data-name="Trazado 107205" d="M687.917,8736.09l-2.615-3.082,2.539-2.744-2.507-3.215.609-.474,2.91,3.73-2.521,2.725,2.173,2.562Z" transform="translate(-395.577 -8478.455)" fill="#999"/>
      <path id="Trazado_107206" data-name="Trazado 107206" d="M692.267,8736.524l-2.615-3.082,2.539-2.745-2.507-3.214.609-.475,2.91,3.731-2.521,2.725,2.173,2.562Z" transform="translate(-395.454 -8478.442)" fill="#999"/>
      <path id="Trazado_107207" data-name="Trazado 107207" d="M709.011,8738.913l-2.615-3.082,2.539-2.744-2.507-3.215.609-.474,2.91,3.73-2.521,2.725,2.173,2.562Z" transform="translate(-394.98 -8478.376)" fill="#999"/>
      <path id="Trazado_107208" data-name="Trazado 107208" d="M713.042,8738.654l-2.615-3.082,2.539-2.745-2.507-3.214.609-.475,2.91,3.73-2.521,2.725,2.173,2.563Z" transform="translate(-394.866 -8478.382)" fill="#999"/>
      <path id="Trazado_107209" data-name="Trazado 107209" d="M741.938,8735.277l-2.905-2.268,2.181-2.338-2.628-2.228.5-.589,3.247,2.753-2.159,2.312,2.24,1.749Z" transform="translate(-394.068 -8478.419)" fill="#999"/>
      <path id="Trazado_107210" data-name="Trazado 107210" d="M745.616,8734.376l-2.9-2.268,2.18-2.337-2.628-2.229.5-.588,3.246,2.754-2.157,2.311,2.239,1.749Z" transform="translate(-393.964 -8478.444)" fill="#999"/>
      <path id="Trazado_107211" data-name="Trazado 107211" d="M749.374,8733.447l-2.905-2.269,2.181-2.337-2.629-2.229.5-.588,3.246,2.754-2.157,2.311,2.24,1.75Z" transform="translate(-393.857 -8478.471)" fill="#999"/>
      <path id="Trazado_107212" data-name="Trazado 107212" d="M737.717,8735.824l-2.767-2.32,2.09-2.405-2.538-2.311.52-.571,3.094,2.819-2.07,2.381,2.166,1.816Z" transform="translate(-394.184 -8478.408)" fill="#999"/>
      <path id="Trazado_107213" data-name="Trazado 107213" d="M673.6,8913.109c-.058-.908-5.828-91.147-4.962-123.256.847-31.393,8.129-52.575,8.544-53.757l.639-8.312L657.49,8612.591l.759-.135,20.346,115.289,0,.048-.669,8.516c-.076.211-7.651,21.546-8.516,53.564-.867,32.073,4.9,122.28,4.96,123.186Z" transform="translate(-396.365 -8481.688)" fill="#999"/>
      <g id="Grupo_55676" data-name="Grupo 55676" transform="translate(260.042 130.769)">
        <rect id="Rectángulo_9765" data-name="Rectángulo 9765" width="0.771" height="1.028" transform="translate(0 0.134) rotate(-9.959)" fill="#999"/>
        <path id="Trazado_107214" data-name="Trazado 107214" d="M672.315,8909.573l-.15-2,.765-.106.154,2.047Zm-.3-4.093-.15-2.045.769-.056.15,2.044Zm-.3-4.088-.146-2.045.769-.055.146,2.045Zm-.291-4.089-.141-2.044.769-.053.141,2.043Zm-.282-4.086-.139-2.044.769-.052.139,2.043Zm-.277-4.088-.135-2.044.769-.05.135,2.041Zm-.269-4.087-.133-2.043.769-.051.133,2.044Zm-.264-4.086-.13-2.044.769-.048.13,2.042Zm-.256-4.088-.126-2.044.769-.048.126,2.043Zm-.251-4.087-.122-2.044.769-.046.122,2.044Zm-.246-4.089-.118-2.043.769-.045.118,2.044Zm-.234-4.088-.115-2.045.769-.042.115,2.043Zm-.23-4.087-.112-2.045.769-.042.112,2.042Zm-.222-4.089-.107-2.044.769-.041.107,2.045Zm-.213-4.089-.1-2.047.771-.038.1,2.044Zm-.2-4.09-.1-2.046.771-.036.1,2.043Zm-.194-4.09-.095-2.053.771-.034.095,2.051Zm-.187-4.1-.088-2.047.771-.032.088,2.046Zm-.174-4.091-.081-2,.769-.071.083,2.041Zm-.161-4.083-.075-2.009.769-.066.077,2.045Zm-.151-4.092-.07-2.046.771-.026.07,2.047Zm-.136-4.093-.063-2.048.771-.021.063,2.045Zm-.12-4.095-.054-2.047.771-.021.053,2.046Zm-.1-4.095-.044-2.048.771-.016.044,2.048Zm-.082-4.1-.033-2.047.771-.013.033,2.046Zm-.061-4.1-.021-2.049.771-.006.021,2.047Zm-.035-4.1-.006-2.048.771,0,.006,2.047Zm.768-4.094-.771,0q0-1.036.012-2.048l.771.006Q667.84,8798.1,667.837,8799.131Zm.034-4.086-.771-.013c.01-.691.022-1.375.034-2.047l.771.015Q667.886,8794.008,667.871,8795.045Zm.082-4.088-.771-.02q.028-1.043.063-2.048l.771.026C667.992,8789.583,667.971,8790.265,667.953,8790.957Zm.142-4.081-.771-.034c.031-.7.065-1.383.1-2.048l.769.043Q668.141,8785.832,668.095,8786.876Zm.225-4.075-.769-.053c.037-.542.076-1.068.117-1.583l.035-.427.772.028-.038.46Q668.376,8781.993,668.32,8782.8Zm.34-4.068-.767-.074q.1-1.018.211-2.041l.767.084Q668.76,8777.719,668.66,8778.732Zm.442-4.061-.765-.093q.123-1.018.256-2.037l.766.1Q669.227,8773.658,669.1,8774.672Zm.53-4.057-.763-.108q.143-1.015.293-2.026l.763.114Q669.776,8769.6,669.632,8770.615Zm.6-4.035-.761-.121q.16-1.018.326-2.023l.761.125Q670.395,8765.564,670.234,8766.58Zm.668-4.034-.76-.133q.176-1.015.356-2.019l.759.137Q671.078,8761.53,670.9,8762.546Zm.723-4.026-.758-.142.383-2.014.758.146Zm.776-4.016-.757-.15q.205-1.024.408-2.011l.755.156Q672.6,8753.483,672.4,8754.5Zm.826-4.009-.755-.159q.216-1.027.431-2l.753.164Q673.445,8749.47,673.227,8750.5Zm.871-4-.754-.169q.233-1.037.455-2l.751.173Q674.331,8745.461,674.1,8746.5Zm.917-3.989-.752-.177q.251-1.069.477-1.994l.749.18Q675.268,8741.443,675.016,8742.51Zm.963-3.979-.749-.187c.21-.837.38-1.509.5-1.99l.747.191C676.357,8737.027,676.186,8737.7,675.978,8738.531Zm.833-4.072-.769-.058.154-2.04.769.059Zm.309-4.079-.769-.058.156-2.04.769.06Zm-.721-4.028-.354-2.016.76-.133.353,2.016Zm-.706-4.03-.354-2.016.759-.133.354,2.016Zm-.708-4.03-.354-2.015.76-.132.353,2.015Zm-.706-4.029-.354-2.015.759-.133.354,2.015Zm-.708-4.029-.354-2.016.76-.133.353,2.016Zm-.706-4.03-.354-2.015.759-.132.354,2.015Zm-.708-4.029-.354-2.015.76-.133.354,2.015Zm-.706-4.029-.354-2.016.759-.133.354,2.016Zm-.708-4.03-.354-2.016.76-.131.354,2.014Zm-.706-4.029-.354-2.015.759-.132.354,2.015Zm-.708-4.03-.354-2.015.76-.133.354,2.015Zm-.706-4.028-.354-2.016.759-.133.354,2.015Zm-.707-4.029-.354-2.016.76-.133.354,2.015Zm-.706-4.031-.354-2.015.759-.133.354,2.015Zm-.707-4.028-.354-2.016.759-.134.355,2.015Zm-.708-4.031-.354-2.014.759-.133.354,2.015Zm-.707-4.029-.353-2.015.759-.133.354,2.015Zm-.706-4.03-.354-2.015.759-.132.354,2.014Zm-.707-4.029-.353-2.015.759-.133.354,2.016Zm-.706-4.029-.354-2.015.759-.133.354,2.015Zm-.707-4.03-.353-2.015.759-.132.354,2.014Zm-.706-4.029-.354-2.015.759-.133.354,2.016Zm-.708-4.029-.353-2.015.759-.133.354,2.015Zm-.706-4.029-.355-2.015.759-.135.355,2.015Zm-.709-4.031-.353-2.014.759-.133.354,2.015Zm-.706-4.028-.354-2.016.759-.133.354,2.016Zm-.707-4.03-.353-2.015.759-.133.354,2.015Zm-.706-4.03-.354-2.015.759-.132.354,2.015Z" transform="translate(-656.423 -8612.374)" fill="#999"/>
        <rect id="Rectángulo_9766" data-name="Rectángulo 9766" width="0.772" height="1.023" transform="translate(16.036 299.1) rotate(-4.446)" fill="#999"/>
      </g>
      <g id="Grupo_55677" data-name="Grupo 55677" transform="translate(262.22 130.765)">
        <rect id="Rectángulo_9767" data-name="Rectángulo 9767" width="0.771" height="1.029" transform="translate(0 0.134) rotate(-9.95)" fill="#999"/>
        <path id="Trazado_107215" data-name="Trazado 107215" d="M674.587,8910.021l-.143-2.048.769-.054.143,2.05Zm-.282-4.1-.139-2.047.769-.053.139,2.047Zm-.277-4.094-.135-2.047.769-.05.135,2.046Zm-.266-4.092-.132-2.047.769-.048.132,2.044Zm-.26-4.092-.129-2.047.769-.048.129,2.044Zm-.253-4.093-.124-2.046.769-.046.124,2.043Zm-.247-4.091-.12-2.046.769-.045.12,2.046Zm-.24-4.093-.118-2.046.769-.044.118,2.046Zm-.234-4.092-.113-2.046.769-.042.113,2.046Zm-.226-4.092-.109-2.047.769-.04.109,2.047Zm-.218-4.091-.106-2.047.771-.04.1,2.045Zm-.21-4.094-.1-2.047.771-.038.1,2.047Zm-.2-4.091-.1-2.049.771-.036.1,2.046Zm-.193-4.1-.094-2.048.771-.034.094,2.046Zm-.186-4.092-.089-2.049.771-.032.089,2.047Zm-.175-4.1-.084-2.047.771-.031.084,2.046Zm-.167-4.1-.078-2.053.771-.029.078,2.053Zm-.154-4.1-.074-2.048.771-.029.074,2.049Zm-.143-4.1-.066-1.98.769-.089.068,2.043Zm-.131-4.087-.061-2.049.771-.022.061,2.047Zm-.116-4.1-.052-2.049.771-.02.052,2.049Zm-.1-4.1-.044-2.048.771-.017.042,1.957-.384.1Zm-.084-4.1-.036-2.05.771-.012.036,2.048Zm-.067-4.1-.026-2.051.771-.009.026,2.048Zm-.044-4.1-.013-2.05.771,0,.013,2.048Zm-.021-4.1v-2.05l.771,0v2.046Zm.778-4.094-.771,0,.016-2.049.771.008Zm.04-4.09-.771-.012q.015-1.037.035-2.049l.771.014Q670.923,8798.428,670.908,8799.464Zm.081-4.091-.771-.02q.028-1.04.059-2.05l.771.024Q671.016,8794.334,670.989,8795.373Zm.131-4.087-.771-.031q.04-1.044.088-2.049l.771.036Q671.161,8790.244,671.12,8791.286Zm.194-4.085-.769-.044q.06-1.047.128-2.048l.769.053Q671.375,8786.157,671.314,8787.2Zm.282-4.076-.769-.062q.086-1.058.186-2.047l.768.078C671.714,8781.748,671.654,8782.427,671.6,8783.125Zm.41-4.06-.765-.093.249-2.032.766.094Zm.5-4.062-.766-.095.256-2.032.765.1Zm.514-4.06-.766-.1.263-2.031.765.1Zm.53-4.059-.765-.1.272-2.029.765.1Zm.545-4.053-.763-.105.281-2.028.763.106Zm.567-4.055-.763-.108.291-2.025.763.11Zm.589-4.046-.764-.112.3-2.025.763.115Zm.614-4.043-.761-.118.32-2.023.762.122Zm.65-4.037-.761-.126c.118-.716.231-1.387.341-2.02l.759.131Q676.7,8745.583,676.518,8746.652Zm.694-4.025-.759-.139c.134-.743.259-1.412.372-2.014l.757.143Q677.412,8741.517,677.212,8742.627Zm.761-4.01-.755-.155c.194-.956.339-1.606.433-2.006l.751.175C678.309,8737.026,678.166,8737.671,677.973,8738.617Zm.708-4.06-.768-.074.2-2.037.767.074Zm.4-4.074-.767-.075.2-2.037.767.074Zm-.546-4.041-.354-2.017.76-.132.353,2.017Zm-.707-4.033-.354-2.016.759-.133.355,2.016Zm-.708-4.032-.354-2.017.76-.133.353,2.017Zm-.708-4.033-.354-2.017.759-.133.354,2.017Zm-.707-4.033-.355-2.017.76-.131.354,2.015Zm-.707-4.033-.354-2.015.759-.134.354,2.018Zm-.709-4.032-.354-2.017.76-.133.353,2.017Zm-.706-4.033-.355-2.017.759-.133.355,2.016Zm-.709-4.033-.355-2.018.76-.133.354,2.017Zm-.707-4.034-.354-2.017.759-.132.354,2.017Zm-.709-4.032-.354-2.017.76-.133.353,2.017Zm-.706-4.033-.355-2.017.759-.133.355,2.017Zm-.708-4.033-.354-2.017.76-.132.353,2.016Zm-.707-4.033L668.98,8672l.759-.133.354,2.016Zm-.708-4.032-.355-2.017.76-.133.354,2.017Zm-.708-4.033-.355-2.017.759-.133.355,2.017Zm-.708-4.034-.353-2.017.759-.133.354,2.017Zm-.708-4.033-.354-2.017.759-.133.354,2.017Zm-.707-4.033-.354-2.017.759-.132.355,2.017Zm-.708-4.032-.354-2.017.759-.133.354,2.017Zm-.708-4.033-.353-2.017.759-.132.354,2.016Zm-.706-4.032-.355-2.018.759-.134.355,2.018Zm-.709-4.034-.353-2.017.759-.132.354,2.016Zm-.707-4.033-.354-2.016.759-.133.354,2.017Zm-.709-4.033-.353-2.017.759-.133.354,2.017Zm-.706-4.033-.355-2.017.759-.133.355,2.016Zm-.709-4.033-.353-2.017.759-.133.354,2.017Zm-.707-4.033-.354-2.017.759-.132.354,2.017Z" transform="translate(-658.541 -8612.37)" fill="#999"/>
        <rect id="Rectángulo_9768" data-name="Rectángulo 9768" width="0.771" height="1.024" transform="matrix(0.997, -0.073, 0.073, 0.997, 16.187, 299.639)" fill="#999"/>
      </g>
      <path id="Trazado_107216" data-name="Trazado 107216" d="M655.313,8615.175c-6.83,0-12.386-12.059-12.386-26.881s5.556-26.881,12.386-26.881,12.386,12.059,12.386,26.881S662.142,8615.175,655.313,8615.175Zm0-52.991c-6.405,0-11.615,11.714-11.615,26.11s5.21,26.109,11.615,26.109,11.615-11.713,11.615-26.109S661.718,8562.184,655.313,8562.184Z" transform="translate(-396.778 -8483.135)" fill="#999"/>
      <g id="Grupo_55678" data-name="Grupo 55678" transform="translate(381.773 150.071)">
        <path id="Trazado_107217" data-name="Trazado 107217" d="M776.021,8636.752l5.465-1.606,1.831,1.318s.768.581,1.048-.248l-.537-3.982s-.329-1.739-1.442-.645l-1.476,2.183-5.069,1.749-1.027.9Z" transform="translate(-774.815 -8631.228)" fill="#666"/>
      </g>
      <g id="Grupo_55679" data-name="Grupo 55679" transform="translate(235.118 43.52)">
        <path id="Trazado_107218" data-name="Trazado 107218" d="M754.853,8790.451l-2.046-21.1s-4.457-44.354-3.341-59.7-7.647-64.486-7.647-64.486l-11.711-48.217s-13.591-44.713-16.414-51.283-10.054-14.352-10.054-14.352l7.332-2.686a23.331,23.331,0,0,0-6.8.719c-2.683.893-10.373,8.4-12.162,11.98s-9.478,7.334-12.253,8.227-3.985,4.65-3.985,4.65L644.8,8561s-6.259,2.682-10.551,22.531,6.081,48.863,6.081,48.863,15.022,56.832,18.227,72.391,0,32.887,0,32.887-1.417,10.572-5.172,37.221-3.577,99.434-3.577,99.434-3.041,2.682,16.811,11.982,65.992.895,65.992.895l22.241-4.291C755.812,8875.936,754.853,8790.451,754.853,8790.451ZM654.629,8634.77c-17.624-1.43-18.859-31.475-18.859-31.475s-.6-39.256,10.462-41.133c15.013-2.549,21.355,30.848,21.355,30.848S672.254,8636.2,654.629,8634.77Z" transform="translate(-632.171 -8527.582)" fill="#999"/>
        <path id="Trazado_107219" data-name="Trazado 107219" d="M694.685,8891.771c-10.609,0-21.2-1.1-28.472-4.5-11.248-5.27-17.152-9.341-17.547-12.1a1.94,1.94,0,0,1,.143-1.1c-.005-5.084-.014-73.73,3.588-99.289,3.712-26.336,5.156-37.108,5.17-37.214.04-.221,3.137-17.367.012-32.54-3.162-15.354-18.064-71.771-18.214-72.338-.4-1.112-10.4-29.433-6.092-49.341,4.354-20.139,10.876-23.145,11.152-23.261a.938.938,0,0,1,.184-.061l30.432-6.677c.5-1.2,1.879-3.92,4.434-4.744,3.153-1.017,10.123-4.657,11.648-7.707,1.9-3.791,9.764-11.5,12.755-12.5a24.144,24.144,0,0,1,7.165-.769,1.029,1.029,0,0,1,.31,1.994l-5.907,2.161c2.127,2.429,6.975,8.274,9.219,13.5,2.813,6.549,15.9,49.562,16.453,51.39l11.727,48.274c.371,2.074,8.785,49.507,7.672,64.8-1.1,15.081,3.295,59.078,3.339,59.521l2.046,21.106a.833.833,0,0,1,.005.088c.039,3.493.949,85.642-.01,92.611a1.026,1.026,0,0,1-.824.869l-22.241,4.292A240.34,240.34,0,0,1,694.685,8891.771ZM650.7,8874.908c.079.455,1.194,3.384,16.381,10.5,19.331,9.053,64.913.9,65.371.813l21.48-4.145c.807-10.532-.057-89.262-.081-91.541l-2.042-21.058c-.182-1.812-4.454-44.615-3.343-59.872,1.093-15.042-7.546-63.739-7.633-64.23l-11.7-48.156c-.12-.391-13.591-44.674-16.36-51.121-2.718-6.328-9.791-13.98-9.862-14.057a1.021,1.021,0,0,1-.266-.566c-3.153,2.338-8.285,7.539-9.686,10.342-1.954,3.907-9.88,7.786-12.857,8.745-2.23.72-3.311,3.956-3.321,3.988a1.032,1.032,0,0,1-.759.687l-26.772,5.876c13.527,1.8,19.125,30.427,19.373,31.733.146,1.318,3.179,30.492-6.074,39.994a9.631,9.631,0,0,1-7.979,2.986h0c-9.7-.787-14.66-9.479-17.194-17.675a142.952,142.952,0,0,0,3.947,13.926c.177.652,15.093,57.122,18.266,72.532,3.207,15.575.036,33.1,0,33.278-.006.057-1.451,10.831-5.165,37.178-3.7,26.27-3.568,98.561-3.567,99.288A1.024,1.024,0,0,1,650.7,8874.908Zm-.181.214,0,0Zm0,0,0,0Zm4.214-241.344a7.523,7.523,0,0,0,6.339-2.369c8.58-8.812,5.547-37.965,5.515-38.258-.049-.242-6.275-32.312-20.161-29.943-8.362,1.419-9.769,29.43-9.606,40.1.011.267,1.4,29.127,17.914,30.468Zm-18.306-54.753q-.592,2.188-1.151,4.759c-1.28,5.922-1.22,12.718-.516,19.307A148.554,148.554,0,0,1,636.435,8579.021Z" transform="translate(-632.2 -8527.612)" fill="#4d4d4d"/>
      </g>
      <path id="Trazado_107220" data-name="Trazado 107220" d="M667.976,8883.942h-.007a1.027,1.027,0,0,1-1.021-1.036l.578-84.413c0-.367.549-36.556,8.057-60.215.018-.053,1.39-4.343,1.143-13.187-.252-8.981-6.607-36.961-6.671-37.243l-10.381-57.095a1.028,1.028,0,1,1,2.023-.367l10.372,57.05c.256,1.113,6.456,28.416,6.714,37.6.259,9.261-1.182,13.7-1.243,13.881-7.411,23.351-7.953,59.239-7.956,59.6L669,8882.921A1.029,1.029,0,0,1,667.976,8883.942Z" transform="translate(-396.304 -8481.203)" fill="#4d4d4d"/>
      <path id="Trazado_107221" data-name="Trazado 107221" d="M745.272,8711.586a2.1,2.1,0,0,1-.659-.11c-1.685-.563-4.552-6.353-6.66-11.11a1.028,1.028,0,1,1,1.88-.834c1.83,4.131,4.284,8.864,5.312,9.872a5.122,5.122,0,0,0,.115-1.517l-5.616-24.341-4.42-15.87c-.109-.275-13.71-36.271-25.764-56.077-12.1-19.883-34.391-55.441-34.615-55.8a1.028,1.028,0,1,1,1.743-1.092c.223.357,22.52,35.927,34.629,55.821,12.154,19.972,25.821,56.145,25.958,56.507l4.461,16,5.646,24.464a1.025,1.025,0,0,1,.024.147c.049.621.13,2.711-.965,3.568A1.7,1.7,0,0,1,745.272,8711.586Z" transform="translate(-395.878 -8483.338)" fill="#4d4d4d"/>
      <g id="Grupo_55680" data-name="Grupo 55680" transform="translate(265.587 143.999)">
        <path id="Trazado_107222" data-name="Trazado 107222" d="M714.738,8626.324s-39.031,7.109-51.908,13.547" transform="translate(-661.801 -8625.295)" fill="#999"/>
        <path id="Trazado_107223" data-name="Trazado 107223" d="M662.859,8640.928a1.028,1.028,0,0,1-.461-1.948c12.86-6.431,50.584-13.348,52.185-13.639a1.028,1.028,0,1,1,.367,2.022c-.389.071-39.034,7.157-51.632,13.456A1.029,1.029,0,0,1,662.859,8640.928Z" transform="translate(-661.829 -8625.322)" fill="#4d4d4d"/>
      </g>
      <g id="Grupo_55681" data-name="Grupo 55681" transform="translate(288.327 146.287)">
        <path id="Trazado_107224" data-name="Trazado 107224" d="M688.647,8636.7l-1.979-5.341-2.15-.682s-.927-.268-.428-.988l3.514-1.948s1.59-.775,1.378.771l-.868,2.486,1.627,5.11-.1,1.359Z" transform="translate(-683.943 -8627.548)" fill="#666"/>
      </g>
      <g id="Grupo_55682" data-name="Grupo 55682" transform="translate(265.183 177.699)">
        <path id="Trazado_107225" data-name="Trazado 107225" d="M670.573,8659.387l-5.527,1.378-.914,2.063s-.368.891-1.029.315l-1.55-3.707s-.6-1.666.918-1.285l2.375,1.137,5.258-1.053,1.34.253Z" transform="translate(-661.437 -8658.094)" fill="#666"/>
      </g>
      <g id="Grupo_55683" data-name="Grupo 55683" transform="translate(258.834 151.802)">
        <path id="Trazado_107226" data-name="Trazado 107226" d="M664.4,8634.2l-5.527,1.377-.913,2.063s-.369.891-1.03.316l-1.55-3.707s-.6-1.666.918-1.286l2.375,1.138,5.258-1.053,1.34.254Z" transform="translate(-655.263 -8632.91)" fill="#666"/>
      </g>
      <g id="Grupo_55684" data-name="Grupo 55684" transform="translate(270.187 210.779)">
        <path id="Trazado_107227" data-name="Trazado 107227" d="M675.438,8691.555l-5.526,1.379L669,8695s-.369.892-1.03.316l-1.549-3.707s-.6-1.666.917-1.285l2.376,1.137,5.258-1.053,1.34.255Z" transform="translate(-666.303 -8690.263)" fill="#666"/>
      </g>
      <g id="Grupo_55685" data-name="Grupo 55685" transform="translate(275.644 243.786)">
        <path id="Trazado_107228" data-name="Trazado 107228" d="M680.241,8726.151l-5.688-.318-1.483,1.7s-.616.743-1.078,0l-.383-4s-.076-1.768,1.257-.956l1.933,1.788,5.334.55,1.2.639Z" transform="translate(-671.609 -8722.361)" fill="#666"/>
      </g>
      <g id="Grupo_55686" data-name="Grupo 55686" transform="translate(270.109 280.082)">
        <path id="Trazado_107229" data-name="Trazado 107229" d="M674.859,8761.447l-5.687-.319-1.483,1.7s-.616.743-1.078,0l-.384-4s-.076-1.767,1.257-.954l1.933,1.787,5.335.549,1.2.641Z" transform="translate(-666.227 -8757.657)" fill="#666"/>
      </g>
      <g id="Grupo_55687" data-name="Grupo 55687" transform="translate(265.638 318.533)">
        <path id="Trazado_107230" data-name="Trazado 107230" d="M670.511,8798.839l-5.687-.319-1.483,1.7s-.616.742-1.078,0l-.384-4s-.076-1.768,1.257-.956l1.933,1.79,5.335.549,1.2.639Z" transform="translate(-661.879 -8795.048)" fill="#666"/>
      </g>
      <g id="Grupo_55688" data-name="Grupo 55688" transform="translate(265.638 356.984)">
        <path id="Trazado_107231" data-name="Trazado 107231" d="M670.511,8836.23l-5.687-.318-1.483,1.7s-.616.742-1.078,0l-.384-4s-.076-1.768,1.257-.956l1.933,1.788,5.335.55,1.2.639Z" transform="translate(-661.879 -8832.44)" fill="#666"/>
      </g>
    </g>
  </g>
</svg>
