<svg xmlns="http://www.w3.org/2000/svg" xmlns:xlink="http://www.w3.org/1999/xlink" width="675.689" height="463.38" viewBox="0 0 675.689 463.38">
  <defs>
    <clipPath id="clip-path">
      <ellipse id="Elipse_4321" data-name="Elipse 4321" cx="123.828" cy="106.17" rx="123.828" ry="106.17" fill="none"/>
    </clipPath>
  </defs>
  <g id="Grupo_55603" data-name="Grupo 55603" transform="translate(-174.185 -6877.565)">
    <rect id="Rectángulo_9686" data-name="Rectángulo 9686" width="675.689" height="463.38" rx="25.356" transform="translate(174.185 6877.565)" fill="#fff"/>
    <g id="Grupo_55602" data-name="Grupo 55602" transform="translate(204.382 6901.219)">
      <g id="Grupo_55575" data-name="Grupo 55575" transform="translate(18.805 17.154)">
        <g id="Grupo_55569" data-name="Grupo 55569">
          <g id="Grupo_55567" data-name="Grupo 55567" transform="translate(0.446 0.134)">
            <g id="Grupo_55563" data-name="Grupo 55563" transform="translate(15.335 19.522)">
              <path id="Trazado_106780" data-name="Trazado 106780" d="M354.67,6990.171s-11.5-4.962-15.827-7.855c0,0-4.206-2.029-4.383-11.208s.529-15.532,1.942-19.856l1.765-6.707s-5.119-7.943-19.414-9.8c0,0-9.62-.881-11.826,1.413,0,0-5.825,21.8-13.767,31.506,0,0-1.677,6.441-19.327,10.061l-20.828,4.5s-9.619,2.03-11.12,9.884c0,0-5.824,6.267-2.647,29.564l.883,4.765,10.237,52.775,14.915,59.128.617,2.118v5.913s-22.558,23.012-24.5,40.662-6.126,113.9-6.126,113.9,68.3,5.57,108.883,0l5.292-92.732s1.949-20.328-3.621-31.467l-11.626-25.983a73.851,73.851,0,0,1,1.5-8.469l7-28.706,10.039-31.534,5.648-10.415s7.355-9.589,6.414-17.591l-2.706-9.413s-.353-12.355.117-16.945l3.412-12.237,1.177-11.062s.823-5.059-2.589-7.883A86.024,86.024,0,0,0,354.67,6990.171Z" transform="translate(-234.847 -6934.18)" fill="#fff"/>
              <path id="Trazado_106781" data-name="Trazado 106781" d="M298.019,7303.817c-32.043,0-62.307-2.423-62.762-2.461l-.384-.031.016-.386c.043-.963,4.208-96.461,6.13-113.922,1.863-16.933,22.749-38.964,24.5-40.779v-5.694l-.6-2.065L250,7079.339l-10.242-52.8-.884-4.77c-3-22.036,1.943-28.94,2.67-29.816,1.6-7.937,11.311-10.075,11.409-10.1l20.824-4.5c17.107-3.507,19.009-9.711,19.025-9.773l.078-.15c7.8-9.53,13.631-31.138,13.689-31.355l.1-.174c2.314-2.406,11.752-1.573,12.151-1.534,14.331,1.857,19.5,9.646,19.715,9.978l.1.147-1.81,6.878c-1.468,4.5-2.1,10.953-1.928,19.746.168,8.775,4.119,10.836,4.16,10.856,4.293,2.866,15.693,7.8,15.807,7.845l.041.021a86.552,86.552,0,0,1,9.588,6.364c3.547,2.937,2.764,8.041,2.727,8.256l-1.172,11.04-3.426,12.3c-.434,4.3-.128,15.909-.1,16.775l2.692,9.365c.962,8.133-6.175,17.548-6.48,17.946l-5.613,10.359-10.01,31.465-6.992,28.68a72.2,72.2,0,0,0-1.477,8.311l11.581,25.882c5.549,11.1,3.672,31.466,3.652,31.669l-5.307,93.045-.327.044C330.769,7303.2,314.166,7303.816,298.019,7303.817Zm-62.312-3.228c5.563.432,69.541,5.227,108.086.016l5.271-92.4c.02-.217,1.875-20.358-3.577-31.265l-11.68-26.1.014-.109a73.117,73.117,0,0,1,1.51-8.528l7-28.7,10.046-31.561,5.677-10.482c.108-.148,7.279-9.609,6.367-17.354l-2.709-9.449c-.015-.506-.347-12.434.12-17l3.426-12.305,1.164-10.995c.011-.071.746-4.893-2.446-7.534a85.262,85.262,0,0,0-9.455-6.274c-.71-.306-11.611-5.034-15.868-7.881-.132-.058-4.383-2.214-4.562-11.532-.171-8.886.472-15.424,1.961-19.988l1.712-6.507c-.771-1.058-6.15-7.805-19.033-9.476-2.575-.237-9.6-.467-11.417,1.225-.455,1.662-6.169,22.146-13.764,31.487-.281.846-2.835,6.823-19.608,10.262l-20.821,4.5c-.1.021-9.38,2.072-10.811,9.568l-.021.111-.078.084c-.057.063-5.647,6.487-2.546,29.239l.881,4.747,10.236,52.771,14.91,59.106.63,2.215v6.078l-.115.117c-.224.229-22.482,23.115-24.386,40.424C239.957,7203.976,236,7293.905,235.707,7300.589Z" transform="translate(-234.873 -6934.206)" fill="#999"/>
            </g>
            <ellipse id="Elipse_4318" data-name="Elipse 4318" cx="2.383" cy="3.574" rx="2.383" ry="3.574" transform="translate(26.522 92.809)" fill="#999"/>
            <g id="Grupo_55564" data-name="Grupo 55564" transform="translate(96.074)">
              <path id="Trazado_106782" data-name="Trazado 106782" d="M315.443,6931.954v9.531a4.8,4.8,0,0,0,4.383.323l.088-9.854a7.644,7.644,0,0,0,5.767-7.59s.823-8.413-7.649-8.059-7.06,10.119-7.06,10.119S312.5,6931.366,315.443,6931.954Z" transform="translate(-310.482 -6915.894)" fill="#fff"/>
              <path id="Trazado_106783" data-name="Trazado 106783" d="M317.963,6942.618a5.068,5.068,0,0,1-2.724-.779l-.171-.12v-9.428c-2.925-.886-4.391-5.52-4.455-5.724-.043-.264-.7-5.05,1.868-8.144a7.256,7.256,0,0,1,5.558-2.493,7.538,7.538,0,0,1,6.063,2.064c2.357,2.493,2.017,6.275,2,6.434a7.99,7.99,0,0,1-5.767,7.852l-.088,9.823-.247.1A5.341,5.341,0,0,1,317.963,6942.618Zm-2.094-1.332a4.376,4.376,0,0,0,3.584.271l.09-9.9.307-.07a7.187,7.187,0,0,0,5.456-7.2c.005-.077.319-3.628-1.788-5.852a6.75,6.75,0,0,0-5.444-1.811,6.505,6.505,0,0,0-4.973,2.2c-2.341,2.817-1.713,7.415-1.707,7.46h0c.005,0,1.485,4.663,4.154,5.2l.322.063Z" transform="translate(-310.508 -6915.919)" fill="#999"/>
            </g>
            <path id="Trazado_106784" data-name="Trazado 106784" d="M356.523,7049.593l-4.425-16.739c-3.68-11.74-4.31-18.5-5.265-28.728-.123-1.324-.253-2.706-.394-4.164-1.2-12.321-5.526-15.656-5.57-15.689l.472-.647c.189.138,4.656,3.518,5.895,16.258.142,1.46.271,2.843.395,4.167.949,10.18,1.577,16.905,5.236,28.582l4.43,16.756Z" transform="translate(-212.385 -6911.349)" fill="#999"/>
            <path id="Trazado_106785" data-name="Trazado 106785" d="M305.593,7132.433c-1.007,0-2.043-.006-3.116-.018-27.583-.289-39.17-6.519-39.284-6.581l.386-.7c.113.062,11.56,6.2,38.907,6.481,24.194.267,31.1-2.533,31.164-2.562l.311.738C333.695,7129.9,327.443,7132.433,305.593,7132.433Z" transform="translate(-217.626 -6901.799)" fill="#999"/>
            <path id="Trazado_106786" data-name="Trazado 106786" d="M307.332,7140.474q-2.381,0-4.934-.094c-25.816-.987-38.077-6.954-38.2-7.014l.357-.717c.12.06,12.25,5.95,37.872,6.93,17.785.687,29.584-2.548,29.7-2.581l.215.771C332.239,7137.8,322.469,7140.474,307.332,7140.474Z" transform="translate(-217.558 -6901.293)" fill="#999"/>
            <path id="Trazado_106787" data-name="Trazado 106787" d="M316.8,6988.216a19.4,19.4,0,0,1-4.227-.483c-14.274-3.17-26.147-18.437-26.265-18.591l.634-.488c.116.152,11.816,15.191,25.8,18.3,13.807,3.063,19.494-10.189,19.55-10.323l.741.307C332.984,6977.061,328.2,6988.216,316.8,6988.216Z" transform="translate(-216.067 -6912.359)" fill="#999"/>
            <path id="Trazado_106788" data-name="Trazado 106788" d="M328.68,6951.724c-15,0-27.392-8.637-27.521-8.729l.462-.653c.133.1,13.579,9.43,29.251,8.518l.048.8C330.169,6951.7,329.421,6951.724,328.68,6951.724Z" transform="translate(-215.064 -6914.136)" fill="#999"/>
            <path id="Trazado_106789" data-name="Trazado 106789" d="M328.679,6945.92c-13.45,0-26.161-8.664-26.3-8.763l.454-.659c.159.109,16.051,10.943,30.882,8.172l.146.788A28.3,28.3,0,0,1,328.679,6945.92Z" transform="translate(-214.982 -6914.53)" fill="#999"/>
            <path id="Trazado_106790" data-name="Trazado 106790" d="M296.274,7296.67l-.8-.024,2.964-93.568c.581-13.134-.578-47.895-.589-48.243l0-.063.018-.061,3.927-13.62-1.058-54.183c.014-.251,1.319-22.062,3.184-32.438,1.831-10.181-6.081-20.643-6.161-20.747-.147-.3-10.355-22.527-15.712-38.95-5.262-16.129-13.619-18.071-13.7-18.087l.161-.785c.361.075,8.88,2,14.3,18.625,5.344,16.376,15.531,38.563,15.633,38.786.289.363,8.159,10.775,6.267,21.3-1.856,10.329-3.159,32.093-3.173,32.312l1.061,54.274-3.943,13.673c.057,1.692,1.157,35.346.587,48.237Z" transform="translate(-217.279 -6911.871)" fill="#999"/>
            <path id="Trazado_106791" data-name="Trazado 106791" d="M325.573,7290.53l-.8-.02c.027-1.063,2.516-106.451-2.016-122.946-4.482-16.3-.9-29.315,1.246-37.088l5.531-49.228c.02-.3,2.1-31.542.8-45.468-.432-4.624-1.452-10.21-2.532-16.125-2.288-12.541-4.883-26.755-3.812-40.316l10.265-60.319.791.133-10.262,60.285c-1.058,13.421,1.526,27.58,3.807,40.073,1.082,5.933,2.105,11.537,2.54,16.195,1.3,13.99-.777,45.3-.8,45.613l-5.546,49.309c-2.133,7.755-5.681,20.633-1.259,36.724C328.092,7183.961,325.679,7286.187,325.573,7290.53Z" transform="translate(-213.752 -6915.71)" fill="#999"/>
            <path id="Trazado_106792" data-name="Trazado 106792" d="M263.4,7056.019l-3.041-9.935.326-.145c.271-.12,27.373-11.959,49.915-8.1,22.412,3.838,49.4,7.375,49.669,7.409l2.369.262.084.233a12.024,12.024,0,0,1-.912,9.467l-.14.244-28.084-4.827c-.305-.06-29.585-5.95-39.092-3.187-9.6,2.792-30.51,8.418-30.72,8.474Zm-2.067-9.488,2.607,8.514c2.866-.773,21.447-5.786,30.33-8.37,9.688-2.815,38.252,2.924,39.463,3.17l27.517,4.728a11.453,11.453,0,0,0,.794-8.32l-1.871-.207c-.279-.036-27.281-3.576-49.708-7.417C289.491,7035.041,264.467,7045.207,261.33,7046.531Z" transform="translate(-217.818 -6907.743)" fill="#999"/>
            <path id="Trazado_106793" data-name="Trazado 106793" d="M304.48,7140.2l-2.683-2.684,2.068-2.835L301.3,7131.9l.588-.542,3.012,3.269-2.052,2.813,2.2,2.2Z" transform="translate(-215.055 -6901.38)" fill="#999"/>
            <path id="Trazado_106794" data-name="Trazado 106794" d="M308.067,7140.2l-2.683-2.684,2.068-2.835-2.566-2.786.588-.542,3.012,3.269-2.052,2.813,2.2,2.2Z" transform="translate(-214.813 -6901.38)" fill="#999"/>
            <path id="Trazado_106795" data-name="Trazado 106795" d="M311.929,7140.2l-2.683-2.684,2.068-2.835-2.565-2.786.588-.542,3.012,3.269-2.052,2.813,2.2,2.2Z" transform="translate(-214.552 -6901.38)" fill="#999"/>
            <path id="Trazado_106796" data-name="Trazado 106796" d="M315.587,7140.2l-2.685-2.684,2.068-2.835L312.4,7131.9l.588-.542,3.012,3.269-2.052,2.813,2.2,2.2Z" transform="translate(-214.306 -6901.38)" fill="#999"/>
            <path id="Trazado_106797" data-name="Trazado 106797" d="M319.107,7139.6l-2.685-2.684,2.068-2.835-2.565-2.786.588-.542,3.012,3.269-2.052,2.813,2.2,2.2Z" transform="translate(-214.068 -6901.421)" fill="#999"/>
            <path id="Trazado_106798" data-name="Trazado 106798" d="M285.155,7139.271l-2.424-2.857,2.33-2.518-2.276-2.917.632-.492,2.693,3.453-2.309,2.5,1.965,2.317Z" transform="translate(-216.308 -6901.438)" fill="#999"/>
            <path id="Trazado_106799" data-name="Trazado 106799" d="M288.724,7139.628l-2.425-2.857,2.33-2.519-2.275-2.917.632-.492,2.694,3.452-2.311,2.5,1.966,2.317Z" transform="translate(-216.067 -6901.415)" fill="#999"/>
            <path id="Trazado_106800" data-name="Trazado 106800" d="M292.568,7140.013l-2.425-2.857,2.33-2.519-2.275-2.917.632-.492,2.692,3.453-2.309,2.5,1.966,2.317Z" transform="translate(-215.808 -6901.389)" fill="#999"/>
            <path id="Trazado_106801" data-name="Trazado 106801" d="M274,7136.926l-2.424-2.858,2.33-2.519-2.276-2.917.632-.492,2.693,3.453-2.309,2.5,1.965,2.319Z" transform="translate(-217.061 -6901.598)" fill="#999"/>
            <path id="Trazado_106802" data-name="Trazado 106802" d="M270.507,7135.922l-2.425-2.857,2.33-2.518-2.275-2.917.632-.492,2.694,3.453-2.311,2.5,1.966,2.317Z" transform="translate(-217.297 -6901.665)" fill="#999"/>
            <path id="Trazado_106803" data-name="Trazado 106803" d="M267.625,7134.939l-2.425-2.857,2.33-2.519-2.276-2.917.632-.492,2.693,3.453-2.309,2.5,1.966,2.317Z" transform="translate(-217.491 -6901.731)" fill="#999"/>
            <path id="Trazado_106804" data-name="Trazado 106804" d="M277.569,7137.883l-2.425-2.858,2.33-2.52-2.275-2.916.632-.492,2.694,3.453-2.311,2.5,1.966,2.318Z" transform="translate(-216.82 -6901.533)" fill="#999"/>
            <path id="Trazado_106805" data-name="Trazado 106805" d="M281.413,7138.266l-2.425-2.858,2.329-2.518-2.275-2.917.632-.492,2.694,3.453-2.31,2.5,1.966,2.318Z" transform="translate(-216.561 -6901.506)" fill="#999"/>
            <path id="Trazado_106806" data-name="Trazado 106806" d="M296.2,7140.376l-2.424-2.858,2.33-2.519-2.276-2.917.632-.492,2.693,3.452-2.309,2.5,1.965,2.318Z" transform="translate(-215.562 -6901.365)" fill="#999"/>
            <path id="Trazado_106807" data-name="Trazado 106807" d="M299.766,7140.147l-2.425-2.857,2.33-2.519-2.276-2.917.632-.492,2.693,3.453-2.309,2.5,1.966,2.318Z" transform="translate(-215.322 -6901.38)" fill="#999"/>
            <path id="Trazado_106808" data-name="Trazado 106808" d="M326.8,7137.767l-2.863-2.3,2.146-2.363-2.582-2.252.525-.6,3.2,2.788-2.124,2.338,2.2,1.768Z" transform="translate(-213.557 -6901.455)" fill="#999"/>
            <path id="Trazado_106809" data-name="Trazado 106809" d="M323.567,7138.307l-2.727-2.353,2.057-2.434-2.493-2.335.546-.583,3.049,2.854-2.036,2.41,2.127,1.834Z" transform="translate(-213.766 -6901.432)" fill="#999"/>
            <path id="Trazado_106810" data-name="Trazado 106810" d="M274.265,7285.077l-.8-.054,9.391-139.836,1.587-53.284v-48.51h.8v48.521l-1.588,53.311Z" transform="translate(-216.933 -6907.317)" fill="#999"/>
            <path id="Trazado_106811" data-name="Trazado 106811" d="M252.389,7293.7l-.8-.04c.034-.682,3.436-68.588,4.232-98.014.776-28.722,12.107-52.5,12.828-53.983l.582-7.589L250.59,7028.439l.788-.14,18.659,105.734-.637,7.916c-.121.24-11.987,24.385-12.779,53.719C255.825,7225.1,252.422,7293.017,252.389,7293.7Z" transform="translate(-218.477 -6908.335)" fill="#999"/>
            <g id="Grupo_55565" data-name="Grupo 55565" transform="translate(31.12 119.964)">
              <rect id="Rectángulo_9687" data-name="Rectángulo 9687" width="0.8" height="1.067" transform="translate(0 0.138) rotate(-9.959)" fill="#999"/>
              <path id="Trazado_106812" data-name="Trazado 106812" d="M251.518,7289.934l-.8-.029.077-2.138.8.03Zm.153-4.272-.8-.029.078-2.132.8.029Zm.156-4.263-.8-.031.08-2.132.8.029Zm.16-4.265-.8-.03.08-2.13.8.031Zm.161-4.262-.8-.03.081-2.13.8.031Zm.163-4.259-.8-.031.084-2.129.8.031Zm.169-4.261-.8-.031.084-2.128.8.031Zm.169-4.258-.8-.031.086-2.131.8.034Zm.174-4.257-.8-.034.088-2.129.8.033Zm.177-4.261-.8-.031.089-2.13.8.033Zm.178-4.258-.8-.033.091-2.129.8.033Zm.181-4.257-.8-.033.093-2.132.8.036Zm.188-4.256-.8-.037.094-2.129.8.035Zm.189-4.259-.8-.035.1-2.137.8.035Zm.2-4.268-.8-.036.1-2.132.8.038Zm.2-4.254-.8-.04.1-2.123.8.04Zm.2-4.252-.8-.04.106-2.128.8.04Zm.211-4.257-.8-.041.109-2.128.8.042Zm.215-4.255-.8-.042.112-2.128.8.042Zm.225-4.255-.8-.044.116-2.129.8.044Zm.233-4.255-.8-.045.121-2.128.8.046Zm.244-4.254-.8-.049.126-2.128.8.049Zm.257-4.256-.8-.049.133-2.128.8.05Zm.271-4.254-.8-.052.143-2.128.8.055Zm.294-4.25-.8-.057.157-2.128.8.061Zm.321-4.25-.8-.066.038-.475c.046-.579.1-1.114.153-1.652l.8.082q-.083.8-.147,1.592Zm.438-4.219-.794-.1q.139-1.058.305-2.119l.79.124Q257.181,7178.214,257.043,7179.261Zm.652-4.2-.788-.141q.191-1.056.4-2.1l.786.156Q257.884,7174.02,257.7,7175.066Zm.835-4.165-.782-.171c.153-.695.312-1.392.476-2.081l.779.186Q258.758,7169.863,258.53,7170.9Zm.98-4.13-.776-.2q.264-1.042.543-2.067l.773.208Q259.775,7165.734,259.51,7166.771Zm1.11-4.1-.77-.222q.3-1.038.6-2.051l.768.232Q260.916,7161.633,260.62,7162.669Zm1.222-4.073-.763-.241c.217-.692.437-1.369.654-2.034l.761.25Q262.166,7157.562,261.842,7158.6Zm1.326-4.042-.757-.259c.236-.691.471-1.366.7-2.018l.755.268Q263.522,7153.519,263.168,7154.553Zm1.421-4.011-.753-.275q.386-1.05.748-2l.748.283C265.092,7149.18,264.844,7149.847,264.589,7150.542Zm1.51-3.982-.744-.292c.285-.728.552-1.391.792-1.984l.743.3C266.649,7145.176,266.385,7145.839,266.1,7146.561Zm1.605-3.938-.736-.313c.3-.708.5-1.164.572-1.323l.043-.563.8.061-.082.766S268.083,7141.737,267.705,7142.623Zm.84-4.261-.8-.061.162-2.124.8.06Zm.322-4.247-.8-.06.041-.542-.269-1.463.789-.137.273,1.563Zm-1.394-4.163-.368-2.1.788-.138.368,2.1Zm-.737-4.195-.368-2.1.789-.137.367,2.1Zm-.736-4.194-.368-2.1.788-.138.368,2.1Zm-.737-4.193-.367-2.1.788-.137.368,2.1Zm-.736-4.2-.368-2.1.788-.137.368,2.1Zm-.737-4.194-.367-2.1.788-.136.368,2.1Zm-.735-4.194-.368-2.1.788-.137.368,2.1Zm-.737-4.194-.367-2.1.788-.137.368,2.1Zm-.736-4.2-.368-2.1.789-.137.367,2.1Zm-.736-4.193-.368-2.1.788-.138.368,2.1Zm-.737-4.195-.368-2.1.789-.137.367,2.1Zm-.735-4.193-.368-2.1.788-.138.368,2.1Zm-.737-4.195-.368-2.1.789-.137.367,2.1Zm-.736-4.194-.368-2.1.788-.138.368,2.1Zm-.737-4.194-.367-2.1.788-.138.368,2.1Zm-.736-4.2-.368-2.1.788-.138.368,2.1Zm-.737-4.193-.367-2.1.788-.138.368,2.1Zm-.736-4.2-.368-2.1.788-.138.368,2.1Zm-.737-4.195-.367-2.1.788-.138.368,2.1Zm-.736-4.195-.368-2.095.789-.138.367,2.1Zm-.736-4.192-.368-2.1.788-.137.368,2.1Zm-.737-4.195-.368-2.1.789-.137.367,2.1Zm-.735-4.194-.368-2.1.788-.137.368,2.1Zm-.737-4.194-.368-2.1.789-.137.367,2.1Z" transform="translate(-249.625 -7028.1)" fill="#999"/>
              <rect id="Rectángulo_9688" data-name="Rectángulo 9688" width="1.064" height="0.801" transform="matrix(0.034, -0.999, 0.999, 0.034, 0.987, 264.811)" fill="#999"/>
            </g>
            <g id="Grupo_55566" data-name="Grupo 55566" transform="translate(33.118 119.961)">
              <rect id="Rectángulo_9689" data-name="Rectángulo 9689" width="0.8" height="1.068" transform="translate(0 0.138) rotate(-9.95)" fill="#999"/>
              <path id="Trazado_106813" data-name="Trazado 106813" d="M253.44,7290.418l-.8-.018.049-2.14.8.018Zm.1-4.278-.8-.018.052-2.139.8.021Zm.107-4.272-.8-.018.054-2.138.8.021Zm.113-4.271-.8-.02.06-2.136.8.022Zm.118-4.267-.8-.023.062-2.134.8.022Zm.126-4.269-.8-.023.064-2.134.8.025Zm.13-4.267-.8-.026.068-2.132.8.026Zm.139-4.266-.8-.027.072-2.132.8.027Zm.144-4.262-.8-.029.076-2.133.8.028Zm.152-4.266-.8-.03.079-2.135.8.032Zm.159-4.266-.8-.032.082-2.134.8.032Zm.167-4.263-.8-.033.083-2.046.8-.053Zm.175-4.265-.8-.033.092-2.134.8.036Zm.184-4.27-.8-.036.1-2.135.8.035Zm.2-4.266-.8-.038.1-2.129.8.039Zm.2-4.25-.8-.042.109-2.132.8.042Zm.22-4.261-.8-.042.115-2.131.8.043Zm.232-4.261-.8-.046.123-2.133.8.048Zm.25-4.261-.8-.048.132-2.132.8.05Zm.27-4.258-.8-.053.141-2.131.8.055Zm.289-4.257-.8-.056.156-2.131.8.06Zm.32-4.254-.8-.062q.085-1.08.172-2.13l.8.067C257.349,7199.438,257.292,7200.148,257.236,7200.866Zm.355-4.25-.8-.07q.1-1.087.194-2.13l.8.075Q257.685,7195.531,257.591,7196.616Zm.4-4.248-.8-.08q.109-1.093.224-2.127l.8.086Q258.1,7191.28,257.992,7192.368Zm.468-4.242-.8-.087.019-.151c.08-.661.162-1.319.247-1.971l.794.1q-.127.974-.247,1.97Zm.547-4.217-.792-.111c.1-.714.2-1.417.3-2.113l.792.117C259.206,7182.494,259.106,7183.2,259.006,7183.909Zm.621-4.213-.79-.122c.11-.714.224-1.417.338-2.109l.791.132Q259.794,7178.631,259.627,7179.7Zm.7-4.2-.788-.14q.187-1.066.381-2.1l.786.146Q260.512,7174.432,260.324,7175.5Zm.778-4.184-.786-.155q.208-1.066.422-2.095l.785.163Q261.31,7170.251,261.1,7171.313Zm.861-4.167-.782-.172q.234-1.064.468-2.084l.779.179C262.274,7165.746,262.119,7166.437,261.964,7167.146Zm.95-4.147-.777-.19q.258-1.062.514-2.074l.776.2Q263.171,7161.938,262.914,7163Zm1.052-4.125-.774-.208c.189-.709.379-1.395.565-2.06l.772.217Q264.248,7157.814,263.965,7158.874Zm1.153-4.094-.768-.228q.315-1.066.624-2.046l.763.24Q265.433,7153.721,265.118,7154.78Zm1.271-4.058-.761-.252q.357-1.075.691-2.024l.755.264Q266.744,7149.654,266.39,7150.722Zm1.408-4.01-.75-.28c.28-.748.54-1.414.773-2l.743.3Q268.216,7145.6,267.8,7146.712Zm1.586-3.934-.732-.323c.247-.56.412-.908.479-1.047l.084-.85.8.081-.131,1.061C269.878,7141.706,269.7,7142.063,269.384,7142.778Zm.835-4.263-.8-.078.208-2.122.8.08Zm.417-4.244-.8-.078.09-.913-.191-1.09.788-.136.209,1.2Zm-1.267-4.18-.368-2.1.789-.137.367,2.1Zm-.737-4.2-.368-2.1.788-.137.368,2.1Zm-.738-4.2-.367-2.1.788-.137.368,2.1Zm-.737-4.2-.368-2.1.788-.137.368,2.1Zm-.738-4.2-.367-2.1.788-.137.368,2.1Zm-.737-4.2-.369-2.1.789-.137.368,2.1Zm-.737-4.2-.369-2.1.788-.136.369,2.1Zm-.738-4.2-.369-2.1.789-.137.368,2.1Zm-.737-4.2-.369-2.1.788-.137.369,2.1Zm-.738-4.2-.368-2.1.788-.137.369,2.1Zm-.737-4.2-.369-2.1.788-.137.369,2.1Zm-.738-4.2-.368-2.1.788-.138.369,2.1Zm-.737-4.2-.369-2.1.789-.138.368,2.1Zm-.737-4.2-.369-2.1.788-.137.369,2.1Zm-.738-4.2-.369-2.1.789-.138.368,2.1Zm-.737-4.2-.369-2.1.788-.138.369,2.1Zm-.738-4.2-.368-2.1.788-.138.369,2.1Zm-.737-4.2-.369-2.1.788-.138.369,2.1Zm-.738-4.2-.368-2.1.788-.138.369,2.1Zm-.737-4.2-.369-2.1.789-.138.368,2.1Zm-.737-4.2-.369-2.1.788-.137.369,2.1Zm-.738-4.2-.369-2.1.789-.137.368,2.1Zm-.737-4.2-.369-2.1.788-.137.369,2.1Zm-.738-4.2-.368-2.1.788-.137.369,2.1Z" transform="translate(-251.496 -7028.097)" fill="#999"/>
              <rect id="Rectángulo_9690" data-name="Rectángulo 9690" width="1.063" height="0.801" transform="matrix(0.023, -1, 1, 0.023, 1.076, 265.374)" fill="#999"/>
            </g>
            <path id="Trazado_106814" data-name="Trazado 106814" d="M249.129,7032.565c-6.29,0-11.406-11.081-11.406-24.7s5.116-24.7,11.406-24.7,11.4,11.08,11.4,24.7S255.419,7032.565,249.129,7032.565Zm0-48.6c-5.848,0-10.605,10.721-10.605,23.9s4.758,23.9,10.605,23.9,10.6-10.721,10.6-23.9S254.976,6983.968,249.129,6983.968Z" transform="translate(-219.345 -6911.381)" fill="#999"/>
            <path id="Trazado_106815" data-name="Trazado 106815" d="M220.684,7062.826l-.177-.779c.08-.02,8.125-1.841,20.682-4.4a127.726,127.726,0,0,0,25.115-8.1c.287-.119,27.175-10.9,49.26-7.912l18.185,3.7-.161.785-18.157-3.7c-21.848-2.948-48.538,7.747-48.807,7.856a128.586,128.586,0,0,1-25.274,8.154C228.8,7060.988,220.763,7062.808,220.684,7062.826Z" transform="translate(-220.507 -6907.471)" fill="#999"/>
          </g>
          <path id="Trazado_106816" data-name="Trazado 106816" d="M244.624,7065.614a.534.534,0,0,1-.2-1.028l4.316-1.741a.534.534,0,0,1,.4.99l-4.316,1.741A.533.533,0,0,1,244.624,7065.614Z" transform="translate(-218.47 -6905.873)" fill="#4d4d4d"/>
          <path id="Trazado_106817" data-name="Trazado 106817" d="M250.993,7064.437a.534.534,0,0,1-.268-1l6.359-3.689,11.748-5.248a.534.534,0,1,1,.436.976l-11.7,5.222-6.309,3.663A.533.533,0,0,1,250.993,7064.437Z" transform="translate(-218.04 -6906.437)" fill="#4d4d4d"/>
          <path id="Trazado_106818" data-name="Trazado 106818" d="M220.623,7062.565a.533.533,0,0,1-.109-1.055l16.012-3.341c.125-.028,13.046-2.864,17.344-4.367,1.861-.652,4.5-1.691,7.286-2.792,3.792-1.5,7.713-3.044,10.361-3.886a.534.534,0,1,1,.323,1.017c-2.614.832-6.517,2.372-10.293,3.861-2.8,1.1-5.444,2.149-7.325,2.806-4.36,1.526-16.94,4.287-17.473,4.4l-16.018,3.343A.5.5,0,0,1,220.623,7062.565Z" transform="translate(-220.089 -6906.932)" fill="#4d4d4d"/>
          <path id="Trazado_106819" data-name="Trazado 106819" d="M318.749,7302.362h-.023a.535.535,0,0,1-.51-.557c.051-1.169,5.057-116.988.023-133.3-5.106-16.552,1.092-38.7,1.155-38.922l5.985-49.338c.019-.271,2.26-29.569.962-43.481-.416-4.463-1.36-10-2.357-15.873-2.146-12.613-4.817-28.312-3.726-42.112l11.844-62.549a.534.534,0,0,1,1.049.2l-11.837,62.492c-1.072,13.61,1.586,29.236,3.722,41.793,1,5.888,1.947,11.449,2.368,15.95,1.306,14-.941,43.392-.964,43.688l-6,49.444c-.079.3-6.189,22.15-1.178,38.4,5.088,16.491.233,128.886.025,133.662A.535.535,0,0,1,318.749,7302.362Z" transform="translate(-213.602 -6915.793)" fill="#4d4d4d"/>
          <g id="Grupo_55568" data-name="Grupo 55568" transform="translate(113.531 137.998)">
            <path id="Trazado_106820" data-name="Trazado 106820" d="M357.845,7049.334s-25.538-2.784-31.33-3.9" transform="translate(-326.438 -7045.043)" fill="#fff"/>
            <path id="Trazado_106821" data-name="Trazado 106821" d="M357.806,7049.757c-.255-.029-25.621-2.8-31.363-3.9l.153-.787c5.709,1.1,31.042,3.865,31.3,3.893Z" transform="translate(-326.443 -7045.067)" fill="#999"/>
          </g>
        </g>
        <rect id="Rectángulo_9691" data-name="Rectángulo 9691" width="45.514" height="1.067" transform="translate(0.361 162.557) rotate(-18.577)" fill="#999"/>
        <g id="Grupo_55570" data-name="Grupo 55570" transform="translate(97.791 66.697)">
          <path id="Trazado_106822" data-name="Trazado 106822" d="M316.429,6986.633l-2.154-4.759-2.011-.484s-.865-.186-.455-.877l3.088-2.009s1.4-.812,1.311.617l-.634,2.331,1.818,4.57-.009,1.25Z" transform="translate(-311.699 -6978.274)" fill="#666"/>
        </g>
        <g id="Grupo_55571" data-name="Grupo 55571" transform="translate(107.767 283.946)">
          <path id="Trazado_106823" data-name="Trazado 106823" d="M322.186,7188.9l4.122-3.21,2,.508s.852.238.811-.564l-1.8-3.217s-.865-1.371-1.446-.064l-.524,2.358-3.735,3.2-.575,1.11Z" transform="translate(-321.044 -7181.789)" fill="#666"/>
        </g>
        <g id="Grupo_55572" data-name="Grupo 55572" transform="translate(105.146 345.768)">
          <path id="Trazado_106824" data-name="Trazado 106824" d="M319.73,7246.815l4.122-3.21,2,.508s.852.238.811-.564l-1.8-3.216s-.865-1.372-1.446-.064l-.524,2.358-3.735,3.2-.575,1.11Z" transform="translate(-318.588 -7239.703)" fill="#666"/>
        </g>
        <g id="Grupo_55573" data-name="Grupo 55573" transform="translate(27.038 345.768)">
          <path id="Trazado_106825" data-name="Trazado 106825" d="M252.359,7246.815l-4.122-3.21-2.006.508s-.852.238-.811-.564l1.8-3.216s.865-1.372,1.446-.064l.524,2.358,3.735,3.2.575,1.11Z" transform="translate(-245.419 -7239.703)" fill="#666"/>
        </g>
        <g id="Grupo_55574" data-name="Grupo 55574" transform="translate(30.241 280.33)">
          <path id="Trazado_106826" data-name="Trazado 106826" d="M255.359,7185.514l-4.122-3.209-2.006.507s-.852.238-.811-.564l1.8-3.216s.865-1.373,1.446-.065l.524,2.358,3.735,3.2.575,1.109Z" transform="translate(-248.419 -7178.402)" fill="#666"/>
        </g>
      </g>
      <g id="Grupo_55576" data-name="Grupo 55576" transform="translate(0 93.973)" opacity="0.88">
        <path id="Trazado_106827" data-name="Trazado 106827" d="M225.762,7012.244s-13.034,2.286-22.5,7.855c0,0-3.329-30.454,13.281-31.843,0,0,7.261,4.656,8.544,11.756C225.084,7000.013,227.026,7007.711,225.762,7012.244Z" transform="translate(-202.439 -6987.723)" fill="#999"/>
        <path id="Trazado_106828" data-name="Trazado 106828" d="M203.294,7020.667a.55.55,0,0,1-.24-.056.536.536,0,0,1-.29-.42c-.085-.777-2-19.147,5.252-27.943a11.961,11.961,0,0,1,8.513-4.489.5.5,0,0,1,.333.083c.3.194,7.472,4.864,8.782,12.111.074.284,1.954,7.852.666,12.467a.534.534,0,0,1-.422.384c-.129.022-13.051,2.334-22.323,7.79A.537.537,0,0,1,203.294,7020.667Zm13.139-31.829a10.934,10.934,0,0,0-7.593,4.087c-6.122,7.428-5.372,22.636-5.087,26.33,8.506-4.769,19.546-7.043,21.612-7.439,1.039-4.383-.746-11.564-.763-11.639C223.465,6993.9,217.457,6989.542,216.432,6988.838Zm9.364,23.438h0Z" transform="translate(-202.473 -6987.756)" fill="#4d4d4d"/>
      </g>
      <g id="Grupo_55577" data-name="Grupo 55577" transform="translate(12.314 91.108)" opacity="0.5">
        <path id="Trazado_106829" data-name="Trazado 106829" d="M214.508,6988.905s9.323-3.651,13.593-3.31l24.325,63.764s16.153,21.232,20.884,34.785l15.638,35.644,37.285-12.438,7.378,5.755s22.659-5.755,32.37-5.013c0,0-6.255,9.654-6.626,17.637s-3.714,53.839-3.714,60.522,1.114,83.913,1.114,83.913-50.518,15.966-78.912,13.924-55.313-15.781-55.313-15.781l-.186-89.3,1.671-43.187-1.671-40.07-.557-14.58s-.557-6.87,2.6-8.54,5.941-2.228,3.155-10.024S221,7044.962,221,7044.962s-4.779-6.488-1.066-17.256,6.869-17.08,5.2-24.5S220.222,6991.69,214.508,6988.905Z" transform="translate(-213.975 -6985.038)" fill="#999"/>
        <path id="Trazado_106830" data-name="Trazado 106830" d="M283.153,7284.833q-2.765,0-5.314-.179c-28.175-2.027-55.247-15.7-55.516-15.837a.534.534,0,0,1-.291-.475l-.186-89.3,1.671-43.208-1.671-40.028-.557-14.582c-.022-.271-.544-7.217,2.882-9.031.27-.142.537-.277.8-.409,2.707-1.368,4.5-2.27,2.106-8.965-2.635-7.376-6.187-16.71-6.517-17.573-.517-.739-4.709-7.21-1.1-17.683.623-1.808,1.23-3.49,1.8-5.072,2.852-7.9,4.737-13.113,3.38-19.144-1.6-7.1-4.59-11.132-10.334-13.932a.534.534,0,0,1,.038-.977c.386-.15,9.5-3.7,13.83-3.344a.526.526,0,0,1,.456.341l24.3,63.693c.97,1.284,16.339,21.754,20.916,34.87l15.427,35.159,36.824-12.283a.535.535,0,0,1,.5.085l7.172,5.594c2.644-.661,23.054-5.654,32.288-4.962a.534.534,0,0,1,.408.821c-.063.1-6.181,9.628-6.542,17.371-.14,3.014-.7,11.369-1.347,21.042-1.054,15.732-2.366,35.308-2.366,39.454,0,6.6,1.1,83.135,1.113,83.908a.531.531,0,0,1-.373.515C356.474,7270.858,311.9,7284.832,283.153,7284.833ZM223.1,7268.011c2.991,1.476,28.428,13.68,54.818,15.578,26.661,1.918,73.63-12.329,78.334-13.782-.088-6.012-1.109-77.158-1.109-83.523,0-4.183,1.313-23.778,2.368-39.524.648-9.67,1.207-18.02,1.347-21.021.316-6.814,4.735-14.658,6.23-17.128-9.977-.311-31.09,4.991-31.31,5.046a.542.542,0,0,1-.46-.1l-7.151-5.578-37.015,12.347a.532.532,0,0,1-.658-.292l-15.639-35.645c-4.663-13.355-20.658-34.463-20.818-34.675a.5.5,0,0,1-.075-.133l-24.2-63.44c-3.292-.078-9.4,1.966-11.9,2.875,5.309,2.915,8.276,7.2,9.829,14.1,1.425,6.334-.606,11.958-3.418,19.74-.57,1.578-1.176,3.255-1.8,5.057-3.569,10.348.948,16.7.994,16.766a.526.526,0,0,1,.067.125c.038.1,3.795,9.945,6.549,17.658,2.708,7.582.235,8.832-2.63,10.275-.255.129-.516.26-.778.4-2.335,1.235-2.465,6.211-2.318,8.025l.559,14.6,1.671,40.07-1.671,43.229Z" transform="translate(-214.009 -6985.072)" fill="#4d4d4d"/>
      </g>
      <g id="Grupo_55578" data-name="Grupo 55578" transform="translate(32.962 48.401)" opacity="0.5">
        <path id="Trazado_106831" data-name="Trazado 106831" d="M240.719,6945.565s2.043,13.182-6.868,21.907l55.089,12.445Z" transform="translate(-233.317 -6945.031)" fill="#999"/>
        <path id="Trazado_106832" data-name="Trazado 106832" d="M288.974,6980.484a.475.475,0,0,1-.119-.015l-55.088-12.444a.533.533,0,0,1-.255-.9c8.6-8.425,6.733-21.314,6.713-21.445a.531.531,0,0,1,.247-.535.537.537,0,0,1,.59.019l48.221,34.353a.534.534,0,0,1-.31.968Zm-54.04-13.29,51.568,11.65-45.1-32.13C241.644,6950.1,241.682,6959.971,234.934,6967.194Z" transform="translate(-233.351 -6945.064)" fill="#4d4d4d"/>
      </g>
      <g id="Grupo_55579" data-name="Grupo 55579" transform="translate(14.768 46.14)" opacity="0.88">
        <path id="Trazado_106833" data-name="Trazado 106833" d="M233.706,6943.851s-14.486,7.8-16.9,8.354l12.254,35.273,23.21,64.724,12.021,17.539,15.16,31.6,9.34,21.291,37.285-12.438,5.314,4.145-22.511-64.2-18.791-70.079L240.57,6969.1,235,6967.614s7.545-8.84,6.556-12.867l.312-9.04S236.632,6942.293,233.706,6943.851Z" transform="translate(-216.274 -6942.914)" fill="#999"/>
        <path id="Trazado_106834" data-name="Trazado 106834" d="M288.826,7123.2a.537.537,0,0,1-.489-.319L279,7101.589,263.844,7070l-11.979-17.468a.506.506,0,0,1-.063-.12l-23.21-64.724-12.255-35.278a.534.534,0,0,1,.384-.695c1.853-.427,11.776-5.619,16.765-8.3h0c3.174-1.688,8.482,1.733,8.706,1.879a.535.535,0,0,1,.242.467l-.309,8.969c.8,3.649-4.418,10.477-6.152,12.619l4.765,1.27,49.5,10.955a.535.535,0,0,1,.4.383l18.791,70.079,22.5,64.162a.534.534,0,0,1-.832.6l-5.088-3.969L289,7123.171A.51.51,0,0,1,288.826,7123.2Zm-36.042-71.208,11.981,17.481,15.2,31.671,9.152,20.86,36.824-12.282a.536.536,0,0,1,.5.085l3.88,3.028-21.909-62.487-18.719-69.8-49.2-10.891-5.591-1.491a.533.533,0,0,1-.268-.861c2.049-2.4,7.2-9.31,6.445-12.4a.558.558,0,0,1-.016-.146l.3-8.73c-1.047-.63-5.1-2.887-7.368-1.676-.587.316-12.941,6.957-16.465,8.229l12.073,34.752Z" transform="translate(-216.308 -6942.947)" fill="#4d4d4d"/>
      </g>
      <g id="Grupo_55580" data-name="Grupo 55580" transform="translate(106.317 142.975)">
        <path id="Trazado_106835" data-name="Trazado 106835" d="M303.174,7041.406l3.52-3.86,2.062.161s.88.09.7-.694l-2.316-2.865s-1.086-1.207-1.437.181l-.117,2.413-3.141,3.784-.379,1.191Z" transform="translate(-302.069 -7033.662)" fill="#666"/>
      </g>
      <g id="Grupo_55581" data-name="Grupo 55581" transform="translate(160.614 155.415)">
        <path id="Trazado_106836" data-name="Trazado 106836" d="M354.039,7053.059l3.518-3.86,2.062.161s.881.09.7-.694l-2.316-2.866s-1.086-1.206-1.438.182l-.116,2.413-3.141,3.784-.379,1.192Z" transform="translate(-352.934 -7045.314)" fill="#666"/>
      </g>
      <g id="Grupo_55583" data-name="Grupo 55583" transform="translate(133.886 46.563)">
        <rect id="Rectángulo_9692" data-name="Rectángulo 9692" width="155.67" height="1.068" transform="translate(2.762 152.582) rotate(-78.569)"/>
        <g id="Grupo_55582" data-name="Grupo 55582" transform="translate(0 148.964)">
          <path id="Trazado_106837" data-name="Trazado 106837" d="M327.9,7082.89l3.541,2.43,4.208-.862-5.733,8.4Z" transform="translate(-327.896 -7082.89)"/>
        </g>
      </g>
      <g id="Grupo_55584" data-name="Grupo 55584" transform="translate(165.529)">
        <path id="Trazado_106838" data-name="Trazado 106838" d="M357.993,6899.9a11.53,11.53,0,0,1,2.138-.178,3.542,3.542,0,0,1,2.419.716,2.317,2.317,0,0,1,.769,1.792,2.5,2.5,0,0,1-.679,1.844,3.571,3.571,0,0,1-2.636.946,3.862,3.862,0,0,1-.9-.075v3.469h-1.114Zm1.114,4.136a3.728,3.728,0,0,0,.921.089c1.345,0,2.164-.654,2.164-1.83,0-1.14-.806-1.69-2.036-1.69a4.668,4.668,0,0,0-1.049.089Z" transform="translate(-357.507 -6899.724)"/>
        <path id="Trazado_106839" data-name="Trazado 106839" d="M364.7,6901.167a.67.67,0,0,1-.679-.69.7.7,0,1,1,.693.69Zm-.537,7.247v-6.2h1.126v6.2Z" transform="translate(-357.101 -6899.72)"/>
        <path id="Trazado_106840" data-name="Trazado 106840" d="M366.961,6903.749c0-.654-.014-1.166-.052-1.678h1l.065,1.012H368a2.3,2.3,0,0,1,2.048-1.151c.858,0,2.189.511,2.189,2.636v3.7h-1.126V6904.7c0-1-.371-1.844-1.434-1.844a1.625,1.625,0,0,0-1.51,1.152,1.671,1.671,0,0,0-.078.525v3.738h-1.125Z" transform="translate(-356.906 -6899.575)"/>
        <path id="Trazado_106841" data-name="Trazado 106841" d="M376.165,6904.094c0-.793-.014-1.434-.052-2.023h1.012l.064,1.063h.026a2.389,2.389,0,0,1,2.189-1.2c1.51,0,2.638,1.267,2.638,3.149,0,2.228-1.37,3.329-2.817,3.329a2.159,2.159,0,0,1-1.908-.973h-.026v3.367h-1.126Zm1.126,1.652a1.86,1.86,0,0,0,.05.46,1.726,1.726,0,0,0,1.678,1.319c1.19,0,1.882-.974,1.882-2.394,0-1.243-.639-2.306-1.831-2.306a1.8,1.8,0,0,0-1.715,1.4,2.7,2.7,0,0,0-.064.448Z" transform="translate(-356.285 -6899.575)"/>
        <path id="Trazado_106842" data-name="Trazado 106842" d="M387.385,6906.782a10.413,10.413,0,0,0,.09,1.486h-1.011l-.1-.781h-.038a2.291,2.291,0,0,1-1.9.921,1.765,1.765,0,0,1-1.894-1.78c0-1.5,1.331-2.317,3.726-2.305v-.126a1.273,1.273,0,0,0-1.408-1.435,3,3,0,0,0-1.627.46l-.256-.754a4.02,4.02,0,0,1,2.048-.537c1.908,0,2.369,1.292,2.369,2.535Zm-1.1-1.676c-1.23-.025-2.624.192-2.624,1.4a.987.987,0,0,0,1.049,1.076,1.563,1.563,0,0,0,1.523-1.038,1.158,1.158,0,0,0,.051-.359Z" transform="translate(-355.851 -6899.575)"/>
        <path id="Trazado_106843" data-name="Trazado 106843" d="M388.776,6904c0-.73-.014-1.357-.052-1.934h.986l.051,1.217h.038a1.872,1.872,0,0,1,1.728-1.357,2.291,2.291,0,0,1,.307.024v1.063a2.933,2.933,0,0,0-.384-.026,1.579,1.579,0,0,0-1.51,1.434,3.627,3.627,0,0,0-.038.525v3.316h-1.126Z" transform="translate(-355.433 -6899.575)"/>
        <path id="Trazado_106844" data-name="Trazado 106844" d="M397.033,6906.782a10.567,10.567,0,0,0,.09,1.486h-1.011l-.1-.781h-.038a2.288,2.288,0,0,1-1.895.921,1.766,1.766,0,0,1-1.895-1.78c0-1.5,1.331-2.317,3.727-2.305v-.126a1.273,1.273,0,0,0-1.409-1.435,3,3,0,0,0-1.626.46l-.256-.754a4.015,4.015,0,0,1,2.049-.537c1.908,0,2.368,1.292,2.368,2.535Zm-1.1-1.676c-1.229-.025-2.624.192-2.624,1.4a.987.987,0,0,0,1.049,1.076,1.563,1.563,0,0,0,1.523-1.038,1.159,1.159,0,0,0,.051-.359Z" transform="translate(-355.2 -6899.575)"/>
        <path id="Trazado_106845" data-name="Trazado 106845" d="M400.969,6903.749c0-.654-.027-1.166-.052-1.678h.986l.05,1h.039a2.139,2.139,0,0,1,1.958-1.139,1.826,1.826,0,0,1,1.741,1.241h.027a2.444,2.444,0,0,1,.7-.807,2.083,2.083,0,0,1,1.357-.434c.833,0,2.049.537,2.049,2.688v3.649h-1.1v-3.508c0-1.2-.448-1.908-1.345-1.908a1.477,1.477,0,0,0-1.343,1.012,1.987,1.987,0,0,0-.09.563v3.841h-1.1v-3.726c0-.985-.436-1.69-1.294-1.69a1.551,1.551,0,0,0-1.394,1.126,1.532,1.532,0,0,0-.09.551v3.738h-1.1Z" transform="translate(-354.611 -6899.575)"/>
        <path id="Trazado_106846" data-name="Trazado 106846" d="M415.369,6906.782a10.571,10.571,0,0,0,.09,1.486h-1.011l-.1-.781h-.038a2.288,2.288,0,0,1-1.895.921,1.766,1.766,0,0,1-1.895-1.78c0-1.5,1.331-2.317,3.727-2.305v-.126a1.273,1.273,0,0,0-1.409-1.435,3,3,0,0,0-1.626.46l-.256-.754a4.013,4.013,0,0,1,2.047-.537c1.909,0,2.369,1.292,2.369,2.535Zm-1.1-1.676c-1.229-.025-2.624.192-2.624,1.4a.987.987,0,0,0,1.049,1.076,1.563,1.563,0,0,0,1.523-1.038,1.158,1.158,0,0,0,.051-.359Z" transform="translate(-353.963 -6899.575)"/>
        <path id="Trazado_106847" data-name="Trazado 106847" d="M416.761,6904c0-.73-.014-1.357-.052-1.934h.986l.05,1.217h.04a1.871,1.871,0,0,1,1.728-1.357,2.32,2.32,0,0,1,.307.024v1.063a2.965,2.965,0,0,0-.385-.026,1.579,1.579,0,0,0-1.51,1.434,3.636,3.636,0,0,0-.038.525v3.316h-1.125Z" transform="translate(-353.545 -6899.575)"/>
        <path id="Trazado_106848" data-name="Trazado 106848" d="M425.007,6908.037a4.348,4.348,0,0,1-1.781.358,2.943,2.943,0,0,1-3.085-3.163,3.157,3.157,0,0,1,3.328-3.3,3.539,3.539,0,0,1,1.562.332l-.255.858a2.757,2.757,0,0,0-1.307-.3,2.151,2.151,0,0,0-2.188,2.344,2.125,2.125,0,0,0,2.15,2.318,3.209,3.209,0,0,0,1.382-.3Z" transform="translate(-353.313 -6899.575)"/>
        <path id="Trazado_106849" data-name="Trazado 106849" d="M430.333,6906.782a10.413,10.413,0,0,0,.09,1.486h-1.011l-.1-.781h-.038a2.289,2.289,0,0,1-1.895.921,1.766,1.766,0,0,1-1.895-1.78c0-1.5,1.331-2.317,3.726-2.305v-.126a1.272,1.272,0,0,0-1.408-1.435,3,3,0,0,0-1.626.46l-.257-.754a4.02,4.02,0,0,1,2.048-.537c1.908,0,2.369,1.292,2.369,2.535Zm-1.1-1.676c-1.23-.025-2.624.192-2.624,1.4a.987.987,0,0,0,1.049,1.076,1.563,1.563,0,0,0,1.523-1.038,1.159,1.159,0,0,0,.051-.359Z" transform="translate(-352.953 -6899.575)"/>
        <path id="Trazado_106850" data-name="Trazado 106850" d="M431.724,6904c0-.73-.013-1.357-.051-1.934h.985l.051,1.217h.038a1.873,1.873,0,0,1,1.729-1.357,2.335,2.335,0,0,1,.307.024v1.063a2.964,2.964,0,0,0-.385-.026,1.578,1.578,0,0,0-1.51,1.434,3.636,3.636,0,0,0-.038.525v3.316h-1.126Z" transform="translate(-352.535 -6899.575)"/>
        <path id="Trazado_106851" data-name="Trazado 106851" d="M357.961,6918.493c0-.793-.014-1.432-.052-2.021h1.012l.064,1.062h.026a2.387,2.387,0,0,1,2.189-1.2c1.51,0,2.638,1.267,2.638,3.148,0,2.228-1.371,3.329-2.817,3.329a2.158,2.158,0,0,1-1.908-.973h-.027v3.367h-1.125Zm1.125,1.652a1.871,1.871,0,0,0,.051.461,1.727,1.727,0,0,0,1.678,1.318c1.19,0,1.882-.973,1.882-2.394,0-1.242-.639-2.305-1.832-2.305a1.8,1.8,0,0,0-1.714,1.4,2.7,2.7,0,0,0-.065.448Z" transform="translate(-357.513 -6898.604)"/>
        <path id="Trazado_106852" data-name="Trazado 106852" d="M364.789,6918.4c0-.729-.014-1.356-.052-1.932h.986l.051,1.216h.038a1.872,1.872,0,0,1,1.728-1.356,2.519,2.519,0,0,1,.307.024v1.063a3.239,3.239,0,0,0-.384-.025,1.579,1.579,0,0,0-1.51,1.434,3.482,3.482,0,0,0-.038.524v3.316h-1.126Z" transform="translate(-357.052 -6898.604)"/>
        <path id="Trazado_106853" data-name="Trazado 106853" d="M371.14,6922.808a2.952,2.952,0,0,1-2.97-3.187,3.032,3.032,0,0,1,3.072-3.29,2.93,2.93,0,0,1,2.983,3.175,3.035,3.035,0,0,1-3.072,3.3Zm.051-.845c1.076,0,1.881-1.011,1.881-2.42,0-1.05-.524-2.369-1.855-2.369s-1.895,1.229-1.895,2.407c0,1.357.768,2.381,1.856,2.381Z" transform="translate(-356.82 -6898.604)"/>
        <path id="Trazado_106854" data-name="Trazado 106854" d="M375.327,6922.851v-5.338h-.858v-.857h.858v-.3a2.924,2.924,0,0,1,.73-2.163,2.143,2.143,0,0,1,1.5-.577,2.548,2.548,0,0,1,.96.18l-.14.87a1.779,1.779,0,0,0-.73-.14c-.948,0-1.2.846-1.2,1.792v.333h1.5v.857h-1.484v5.338Z" transform="translate(-356.395 -6898.786)"/>
        <path id="Trazado_106855" data-name="Trazado 106855" d="M383.868,6920.957c0,.653.013,1.215.052,1.7h-1l-.064-1.011h-.026a2.316,2.316,0,0,1-2.048,1.152c-.974,0-2.138-.55-2.138-2.715v-3.622h1.126v3.418c0,1.178.373,1.984,1.383,1.984a1.618,1.618,0,0,0,1.484-1.037,1.526,1.526,0,0,0,.1-.576v-3.79h1.126Z" transform="translate(-356.114 -6898.594)"/>
        <path id="Trazado_106856" data-name="Trazado 106856" d="M385.3,6918.149c0-.654-.014-1.167-.052-1.677h1l.065,1.011h.025a2.294,2.294,0,0,1,2.049-1.151c.858,0,2.189.511,2.189,2.637v3.7h-1.126V6919.1c0-1-.371-1.845-1.434-1.845a1.625,1.625,0,0,0-1.51,1.152,1.681,1.681,0,0,0-.078.525v3.738H385.3Z" transform="translate(-355.668 -6898.604)"/>
        <path id="Trazado_106857" data-name="Trazado 106857" d="M397.333,6913.751v7.49c0,.551.012,1.178.05,1.6h-1.011l-.051-1.075H396.3a2.27,2.27,0,0,1-2.1,1.216c-1.5,0-2.662-1.267-2.662-3.149-.014-2.075,1.28-3.329,2.778-3.329a2.06,2.06,0,0,1,1.869.934h.026v-3.687Zm-1.127,5.416a2.1,2.1,0,0,0-.051-.486,1.658,1.658,0,0,0-1.626-1.293c-1.165,0-1.856,1.025-1.856,2.383,0,1.266.628,2.3,1.831,2.3a1.7,1.7,0,0,0,1.651-1.358,1.782,1.782,0,0,0,.051-.473Z" transform="translate(-355.244 -6898.777)"/>
        <path id="Trazado_106858" data-name="Trazado 106858" d="M399.267,6915.566a.669.669,0,0,1-.678-.69.7.7,0,1,1,.692.69Zm-.537,7.247v-6.2h1.126v6.2Z" transform="translate(-354.768 -6898.749)"/>
        <path id="Trazado_106859" data-name="Trazado 106859" d="M406.909,6913.751v7.49c0,.551.012,1.178.051,1.6h-1.012l-.051-1.075h-.026a2.27,2.27,0,0,1-2.1,1.216c-1.5,0-2.662-1.267-2.662-3.149-.014-2.075,1.28-3.329,2.779-3.329a2.061,2.061,0,0,1,1.869.934h.025v-3.687Zm-1.127,5.416a2.1,2.1,0,0,0-.051-.486,1.658,1.658,0,0,0-1.626-1.293c-1.165,0-1.856,1.025-1.856,2.383,0,1.266.628,2.3,1.831,2.3a1.7,1.7,0,0,0,1.651-1.358,1.78,1.78,0,0,0,.051-.473Z" transform="translate(-354.598 -6898.777)"/>
        <path id="Trazado_106860" data-name="Trazado 106860" d="M412.692,6921.182a10.542,10.542,0,0,0,.09,1.485H411.77l-.1-.78h-.038a2.287,2.287,0,0,1-1.895.921,1.764,1.764,0,0,1-1.894-1.78c0-1.5,1.331-2.317,3.725-2.3v-.127a1.274,1.274,0,0,0-1.409-1.435,2.988,2.988,0,0,0-1.626.461l-.256-.755a4.01,4.01,0,0,1,2.049-.538c1.908,0,2.368,1.292,2.368,2.534Zm-1.1-1.676c-1.229-.027-2.624.191-2.624,1.394a.988.988,0,0,0,1.05,1.076,1.563,1.563,0,0,0,1.522-1.038,1.154,1.154,0,0,0,.051-.359Z" transform="translate(-354.143 -6898.604)"/>
        <path id="Trazado_106861" data-name="Trazado 106861" d="M419.46,6913.751v7.49c0,.551.013,1.178.051,1.6H418.5l-.051-1.075h-.026a2.27,2.27,0,0,1-2.1,1.216c-1.5,0-2.662-1.267-2.662-3.149-.014-2.075,1.28-3.329,2.778-3.329a2.06,2.06,0,0,1,1.869.934h.026v-3.687Zm-1.126,5.416a2.1,2.1,0,0,0-.051-.486,1.658,1.658,0,0,0-1.626-1.293c-1.165,0-1.856,1.025-1.856,2.383,0,1.266.627,2.3,1.831,2.3a1.7,1.7,0,0,0,1.651-1.358,1.782,1.782,0,0,0,.051-.473Z" transform="translate(-353.751 -6898.777)"/>
        <path id="Trazado_106862" data-name="Trazado 106862" d="M428.773,6913.751v7.49c0,.551.013,1.178.051,1.6h-1.011l-.051-1.075h-.027a2.269,2.269,0,0,1-2.1,1.216c-1.5,0-2.662-1.267-2.662-3.149-.013-2.075,1.281-3.329,2.779-3.329a2.061,2.061,0,0,1,1.869.934h.025v-3.687Zm-1.127,5.416a2.042,2.042,0,0,0-.051-.486,1.658,1.658,0,0,0-1.625-1.293c-1.166,0-1.856,1.025-1.856,2.383,0,1.266.627,2.3,1.831,2.3a1.7,1.7,0,0,0,1.65-1.358,1.738,1.738,0,0,0,.051-.473Z" transform="translate(-353.122 -6898.777)"/>
        <path id="Trazado_106863" data-name="Trazado 106863" d="M430.829,6919.774a1.971,1.971,0,0,0,2.113,2.137,4.028,4.028,0,0,0,1.715-.319l.2.806a5.047,5.047,0,0,1-2.074.4,2.891,2.891,0,0,1-3.047-3.125c0-1.869,1.113-3.341,2.919-3.341,2.023,0,2.548,1.779,2.548,2.918a2.752,2.752,0,0,1-.038.525Zm3.29-.807a1.6,1.6,0,0,0-1.549-1.83,1.857,1.857,0,0,0-1.728,1.83Z" transform="translate(-352.665 -6898.604)"/>
        <path id="Trazado_106864" data-name="Trazado 106864" d="M358.626,6934.173a1.971,1.971,0,0,0,2.113,2.138,4.03,4.03,0,0,0,1.715-.32l.2.807a5.05,5.05,0,0,1-2.074.4,2.891,2.891,0,0,1-3.047-3.125c0-1.869,1.113-3.341,2.919-3.341,2.023,0,2.548,1.779,2.548,2.919a2.73,2.73,0,0,1-.038.524Zm3.29-.806a1.6,1.6,0,0,0-1.549-1.832,1.859,1.859,0,0,0-1.728,1.832Z" transform="translate(-357.538 -6897.632)"/>
        <path id="Trazado_106865" data-name="Trazado 106865" d="M363.842,6935.915a3.193,3.193,0,0,0,1.5.435c.807,0,1.19-.4,1.19-.921s-.319-.82-1.139-1.127c-1.127-.41-1.651-1.024-1.651-1.754a1.919,1.919,0,0,1,2.138-1.818,2.875,2.875,0,0,1,1.51.384l-.269.808a2.522,2.522,0,0,0-1.267-.359c-.665,0-1.024.385-1.024.846,0,.511.359.742,1.165,1.062,1.063.4,1.626.935,1.626,1.857,0,1.1-.858,1.869-2.3,1.869a3.532,3.532,0,0,1-1.741-.436Z" transform="translate(-357.131 -6897.632)"/>
        <path id="Trazado_106866" data-name="Trazado 106866" d="M373.167,6936.837a4.363,4.363,0,0,1-1.781.359,2.944,2.944,0,0,1-3.085-3.163,3.158,3.158,0,0,1,3.33-3.3,3.552,3.552,0,0,1,1.562.333l-.256.858a2.748,2.748,0,0,0-1.306-.3,2.152,2.152,0,0,0-2.189,2.345,2.124,2.124,0,0,0,2.151,2.316,3.221,3.221,0,0,0,1.381-.294Z" transform="translate(-356.812 -6897.632)"/>
        <path id="Trazado_106867" data-name="Trazado 106867" d="M376.575,6937.208a2.953,2.953,0,0,1-2.97-3.188,3.032,3.032,0,0,1,3.072-3.29,2.931,2.931,0,0,1,2.984,3.175,3.037,3.037,0,0,1-3.073,3.3Zm.051-.844c1.076,0,1.882-1.013,1.882-2.42,0-1.05-.524-2.37-1.855-2.37s-1.9,1.23-1.9,2.407c0,1.358.769,2.383,1.857,2.383Z" transform="translate(-356.454 -6897.632)"/>
        <path id="Trazado_106868" data-name="Trazado 106868" d="M382.014,6929.471v1.484h1.614v.858h-1.614v3.329c0,.768.219,1.2.845,1.2a2.081,2.081,0,0,0,.653-.077l.051.857a3.055,3.055,0,0,1-1,.155,1.6,1.6,0,0,1-1.216-.475,2.418,2.418,0,0,1-.435-1.625v-3.367h-.96v-.858h.96v-1.139Z" transform="translate(-356.025 -6897.717)"/>
        <path id="Trazado_106869" data-name="Trazado 106869" d="M385.182,6934.173a1.971,1.971,0,0,0,2.113,2.138,4.034,4.034,0,0,0,1.715-.32l.2.807a5.044,5.044,0,0,1-2.073.4,2.891,2.891,0,0,1-3.048-3.125c0-1.869,1.113-3.341,2.92-3.341,2.022,0,2.548,1.779,2.548,2.919a2.72,2.72,0,0,1-.039.524Zm3.29-.806a1.6,1.6,0,0,0-1.549-1.832,1.859,1.859,0,0,0-1.728,1.832Z" transform="translate(-355.746 -6897.632)"/>
      </g>
      <g id="Grupo_55585" data-name="Grupo 55585" transform="translate(264.666 174.837)">
        <path id="Trazado_106870" data-name="Trazado 106870" d="M451.951,7084.051c0,8.149,24.088,14.754,53.8,14.754v11.8c-29.713,0-53.8-6.606-53.8-14.754v-11.8c0-5.511,11.2-10.562,29.038-13.1v-5.9l24.764,10.148-24.764,13.458v-5.9c-10.948,1.556-19.614,4.1-24.546,7.2" transform="translate(-450.304 -7063.404)" fill="#ccc"/>
        <path id="Trazado_106871" data-name="Trazado 106871" d="M505.856,7112.36c-26.879,0-55.448-5.747-55.448-16.4v-11.8c0-8.93,19.279-13.022,29.038-14.519v-4.481a1.647,1.647,0,0,1,2.272-1.523l24.763,10.147a1.647,1.647,0,0,1,.162,2.971l-24.764,13.459a1.646,1.646,0,0,1-2.433-1.447v-3.99c-8.167,1.277-14.927,3.123-19.525,5.319,8.49,3.986,25.065,7.171,45.936,7.171a1.646,1.646,0,0,1,1.647,1.647v11.8A1.646,1.646,0,0,1,505.856,7112.36ZM453.7,7090.042v5.917c0,6.087,20.655,12.86,50.507,13.1v-8.511C483.3,7100.368,461.753,7096.734,453.7,7090.042Zm0-5.888c0,1.326.979,2.684,2.818,4,5.218-2.979,13.8-5.425,24.341-6.925a1.648,1.648,0,0,1,1.879,1.631v3.13l19.283-10.479-19.283-7.9v3.447a1.645,1.645,0,0,1-1.416,1.63C462.347,7075.385,453.7,7080.523,453.7,7084.155Z" transform="translate(-450.408 -7063.509)" fill="#4d4d4d"/>
      </g>
      <g id="Grupo_55586" data-name="Grupo 55586" transform="translate(368.244 90.729)">
        <ellipse id="Elipse_4319" data-name="Elipse 4319" cx="123.828" cy="106.17" rx="123.828" ry="106.17" transform="translate(1.647 1.647)" fill="#ccc"/>
        <path id="Trazado_106872" data-name="Trazado 106872" d="M672.913,7200.352c-69.187,0-125.475-48.367-125.475-107.817s56.288-107.817,125.475-107.817,125.475,48.366,125.475,107.817S742.1,7200.352,672.913,7200.352Zm0-212.339c-67.371,0-122.181,46.888-122.181,104.522s54.81,104.522,122.181,104.522,122.181-46.889,122.181-104.522S740.284,6988.013,672.913,6988.013Z" transform="translate(-547.438 -6984.718)" fill="#666"/>
      </g>
      <g id="Grupo_55601" data-name="Grupo 55601" transform="translate(369.892 92.376)">
        <g id="Grupo_55600" data-name="Grupo 55600" clip-path="url(#clip-path)">
          <g id="Grupo_55594" data-name="Grupo 55594" transform="translate(32.395 15.235)">
            <g id="Grupo_55593" data-name="Grupo 55593">
              <g id="Grupo_55587" data-name="Grupo 55587" transform="translate(0 26.89)">
                <path id="Trazado_106873" data-name="Trazado 106873" d="M730.088,7132.906l4.192,15.983a26.665,26.665,0,0,1-.917,19.915c-4.847,10.349-8.908,17.424-8.908,17.424a72.737,72.737,0,0,0-7.075,22.01H606.021l-21.748-64.851-4.061-14.672s-2.228-12.577,4.192-19.259S596.2,7097.4,596.2,7097.4l27.381-22.4s14.672-14.28,16.638-16.638,7.075-14.8,7.075-14.8,3.668-10.218,3.8-12.708,5.24-4.979,12.97-4.586,21.617,6.551,24.892,14.018c0,0-4.585,12.97-5.895,18.6s-1.7,15.2-1.7,15.2a135.2,135.2,0,0,0,27.512,13.364c14.542,4.847,19,11.79,19,11.79s3.275,6.51,2.751,17.994S730.088,7132.906,730.088,7132.906Z" transform="translate(-579.294 -7025.688)" fill="#fff"/>
                <path id="Trazado_106874" data-name="Trazado 106874" d="M717.882,7208.8H605.672l-21.87-65.213-4.069-14.7c-.1-.575-2.212-12.973,4.321-19.771,6.349-6.61,11.745-12.008,11.8-12.061l27.421-22.439c.111-.112,14.641-14.256,16.565-16.566,1.891-2.268,6.941-14.541,6.991-14.665.029-.079,3.634-10.15,3.761-12.535.145-2.772,5.358-5.51,13.529-5.088,7.852.4,21.958,6.594,25.354,14.334l.085.195-.07.2c-.046.13-4.591,13.007-5.879,18.546a103.106,103.106,0,0,0-1.676,14.794,135.569,135.569,0,0,0,27.133,13.138c14.554,4.852,19.091,11.72,19.278,12.01.163.319,3.359,6.813,2.834,18.306-.481,10.564-.521,15-.523,15.584l4.175,15.915a26.9,26.9,0,0,1-.95,20.276c-4.8,10.251-8.889,17.393-8.93,17.463a72.829,72.829,0,0,0-7.008,21.816Zm-111.443-1.067H716.95a74.289,74.289,0,0,1,7.069-21.73c.048-.083,4.114-7.189,8.9-17.4a26.283,26.283,0,0,0,.906-19.484l-4.232-16.187c0-.042.005-4.336.525-15.7.51-11.189-2.663-17.667-2.7-17.73-.015-.019-4.534-6.806-18.687-11.525a136.816,136.816,0,0,1-27.636-13.423l-.252-.166.011-.3c0-.1.411-9.678,1.718-15.3,1.21-5.212,5.253-16.784,5.84-18.458-3.343-7.186-17-13.137-24.344-13.51-7.825-.4-12.309,2.159-12.411,4.08-.133,2.538-3.679,12.44-3.829,12.861-.219.534-5.173,12.572-7.168,14.965-1.96,2.352-16.075,16.095-16.675,16.679l-27.416,22.435c-.013.018-5.4,5.407-11.744,12.01-6.159,6.411-4.072,18.672-4.051,18.795l4.05,14.624Z" transform="translate(-579.328 -7025.723)" fill="#999"/>
              </g>
              <path id="Trazado_106875" data-name="Trazado 106875" d="M629.727,7208.313l-5.633-42.971c-.04-.33-3.929-32.575-3.411-46.992.522-14.472,11.72-41.189,11.832-41.457l9.578-19.677,14.254-31.065.969.446-14.259,31.076-9.569,19.662c-.1.239-11.222,26.776-11.737,41.053-.517,14.334,3.364,46.5,3.4,46.819l5.633,42.966Z" transform="translate(-576.54 -6998.803)" fill="#999"/>
              <path id="Trazado_106876" data-name="Trazado 106876" d="M654.755,7204.318h-1.068l.006-36.421c-.259-36.62,7.686-57.5,7.766-57.707,10.07-32.3,24.878-33.607,25.5-33.647l.069,1.066c-.146.01-14.731,1.389-24.565,32.933-.092.24-7.963,20.953-7.706,57.352Z" transform="translate(-574.31 -6995.402)" fill="#999"/>
              <path id="Trazado_106877" data-name="Trazado 106877" d="M609.951,7203.8l-11.791-38.91c-.067-.218-6.716-22.155-8.274-41.379-1.572-19.385,13.031-36.847,13.178-37.021l.815.691c-.145.17-14.466,17.306-12.929,36.245,1.549,19.106,8.165,40.936,8.232,41.154l11.791,38.913Z" transform="translate(-578.624 -6994.731)" fill="#999"/>
              <ellipse id="Elipse_4320" data-name="Elipse 4320" cx="2.052" cy="3.581" rx="2.052" ry="3.581" transform="translate(139.135 120.352)" fill="#999"/>
              <path id="Trazado_106878" data-name="Trazado 106878" d="M710.272,7146.284c-6.814,0-12.15-12.031-12.15-27.391s5.336-27.391,12.15-27.391,12.149,12.031,12.149,27.391S717.085,7146.284,710.272,7146.284Zm0-53.714c-6.111,0-11.083,11.809-11.083,26.323s4.971,26.323,11.083,26.323,11.082-11.809,11.082-26.323S716.382,7092.57,710.272,7092.57Z" transform="translate(-571.311 -6994.393)" fill="#999"/>
              <path id="Trazado_106879" data-name="Trazado 106879" d="M681.854,7047.394c-4.568-7.107-11.57-11.509-21.408-13.458-9.386-1.861-14.409,1.01-14.458,1.04l-.542-.92c.218-.129,5.426-3.108,15.208-1.166,9.995,1.979,17.431,6.667,22.1,13.926Z" transform="translate(-574.866 -6998.392)" fill="#999"/>
              <rect id="Rectángulo_9693" data-name="Rectángulo 9693" width="59.317" height="1.067" transform="translate(126.707 209.329) rotate(-78.273)" fill="#999"/>
              <path id="Trazado_106880" data-name="Trazado 106880" d="M697.919,7200.52l-1.044-.219.351-1.672,1.044.219Zm1.011-4.806-1.044-.219.659-3.134,1.045.219Zm1.318-6.268-1.045-.22.661-3.134,1.044.221Zm1.318-6.268-1.044-.219.659-3.134,1.044.219Zm1.319-6.268-1.045-.219.659-3.134,1.045.218Zm1.317-6.266-1.045-.221.661-3.134,1.044.221Zm1.318-6.269-1.044-.219.659-3.134,1.044.219Zm1.318-6.269-1.045-.22.66-3.132,1.045.22Zm1.318-6.267-1.044-.219.659-3.134,1.044.219Zm1.318-6.269-1.044-.219.659-3.133,1.045.219Z" transform="translate(-571.396 -6990.97)" fill="#999"/>
              <g id="Grupo_55588" data-name="Grupo 55588" transform="translate(127.879 151.249)">
                <rect id="Rectángulo_9694" data-name="Rectángulo 9694" width="1.601" height="1.067" transform="translate(11.719 1.568) rotate(-78.273)" fill="#999"/>
                <path id="Trazado_106881" data-name="Trazado 106881" d="M701.1,7195.414l-1.045-.217.67-3.232,1.045.217Zm1.341-6.464-1.045-.216.67-3.233,1.045.217Zm1.341-6.464-1.045-.217.669-3.232,1.045.216Zm1.339-6.464-1.044-.217.67-3.233,1.044.217Zm1.341-6.465-1.044-.216.67-3.232,1.044.217Zm1.341-6.464-1.044-.217.67-3.23,1.044.216Zm1.341-6.464-1.044-.217.669-3.232,1.045.217Zm1.341-6.465-1.045-.216.67-3.231,1.045.216Z" transform="translate(-699.06 -7141.917)" fill="#999"/>
                <rect id="Rectángulo_9695" data-name="Rectángulo 9695" width="1.601" height="1.067" transform="translate(0 58.082) rotate(-78.273)" fill="#999"/>
              </g>
              <g id="Grupo_55592" data-name="Grupo 55592" transform="translate(79.914)">
                <g id="Grupo_55589" data-name="Grupo 55589" transform="translate(0.976)">
                  <path id="Trazado_106882" data-name="Trazado 106882" d="M670.343,7010.89c0-5.444-3.3-9.858-7.369-9.858s-7.37,4.414-7.37,9.858c0,4.257,2.022,7.875,4.847,9.253v9.426h5.568v-9.71C668.567,7018.308,670.343,7014.88,670.343,7010.89Z" transform="translate(-655.07 -7000.498)" fill="#fff"/>
                  <path id="Trazado_106883" data-name="Trazado 106883" d="M666.587,7030.137h-6.635V7020.5c-2.912-1.6-4.847-5.4-4.847-9.578,0-5.73,3.545-10.392,7.9-10.392s7.9,4.661,7.9,10.392c0,3.907-1.688,7.5-4.323,9.261Zm-5.568-1.068h4.5v-9.476l.256-.156c2.471-1.506,4.067-4.847,4.067-8.515,0-5.141-3.066-9.324-6.835-9.324s-6.836,4.183-6.836,9.324c0,3.92,1.828,7.446,4.549,8.774l.3.146Z" transform="translate(-655.104 -7000.532)" fill="#999"/>
                </g>
                <g id="Grupo_55590" data-name="Grupo 55590" transform="translate(0 11.9)">
                  <rect id="Rectángulo_9696" data-name="Rectángulo 9696" width="17.282" height="2.882" rx="1.35" transform="translate(0.534 0.533)" fill="#fff"/>
                  <path id="Trazado_106884" data-name="Trazado 106884" d="M670.565,7015.629h-14.4a1.975,1.975,0,1,1,0-3.95h14.4a1.975,1.975,0,0,1,0,3.95Zm-14.4-2.882a.907.907,0,1,0,0,1.814h14.4a.907.907,0,1,0,0-1.814Z" transform="translate(-654.19 -7011.68)" fill="#999"/>
                </g>
                <g id="Grupo_55591" data-name="Grupo 55591" transform="translate(0 6.397)">
                  <rect id="Rectángulo_9697" data-name="Rectángulo 9697" width="17.282" height="2.882" rx="1.35" transform="translate(0.534 0.534)" fill="#fff"/>
                  <path id="Trazado_106885" data-name="Trazado 106885" d="M670.565,7010.475h-14.4a1.975,1.975,0,0,1,0-3.95h14.4a1.975,1.975,0,0,1,0,3.95Zm-14.4-2.883a.907.907,0,0,0,0,1.815h14.4a.907.907,0,0,0,0-1.815Z" transform="translate(-654.19 -7006.524)" fill="#999"/>
                </g>
              </g>
            </g>
          </g>
          <g id="Grupo_55595" data-name="Grupo 55595" transform="translate(9.584 62.738)" opacity="0.88">
            <path id="Trazado_106886" data-name="Trazado 106886" d="M704.008,7083.253S686.743,7069.4,621.3,7122c0,0-15.038-16.464-31.746-23.147,0,0-9.376-4.27-16.151-10.86l-14.945-15.874,15.919-19.493s5.014-8.214,18.032-6.962,52.143,1.532,52.143,1.532a45.584,45.584,0,0,1,33.834,14.48c15.038,15.873,17.961,17.5,17.961,17.5Z" transform="translate(-557.926 -7044.999)" fill="#999"/>
            <path id="Trazado_106887" data-name="Trazado 106887" d="M621.335,7122.563a.535.535,0,0,1-.394-.174c-.151-.164-15.152-16.451-31.551-23.013-.117-.052-9.56-4.394-16.325-10.972l-14.962-15.89a.535.535,0,0,1-.024-.7L574,7052.317c.01-.025,5.3-8.42,18.5-7.155,12.846,1.236,51.707,1.527,52.1,1.53a46.517,46.517,0,0,1,34.218,14.647c14.64,15.456,17.714,17.328,17.839,17.4l6.265,3.342a6.077,6.077,0,0,1,1.461.792.534.534,0,0,1-.585.887l-.966-.516c-4.266-1.794-24.8-6.094-81.155,39.2A.532.532,0,0,1,621.335,7122.563ZM559.2,7072.124l14.623,15.532c6.616,6.434,15.891,10.7,15.983,10.74,15.222,6.089,29.231,20.433,31.576,22.908,46.206-37.061,68.375-41.069,77.53-40.146l-2.784-1.485c-.13-.071-3.175-1.848-18.1-17.6a45.381,45.381,0,0,0-33.407-14.315c-.434,0-39.341-.292-52.234-1.533-12.494-1.221-17.478,6.63-17.525,6.708Z" transform="translate(-557.96 -7045.032)" fill="#4d4d4d"/>
          </g>
          <g id="Grupo_55596" data-name="Grupo 55596" transform="translate(91.78 98.563)" opacity="0.5">
            <path id="Trazado_106888" data-name="Trazado 106888" d="M651.332,7095.608s-13.227,27.708-15.872,42.467c0,0,27.569,16.986,37.176,18.937,0,0,32.928-52.632,59.395-59.872,0,0-8.806-3.528-14.19-7.612s-21.906-9.283-21.906-9.283-2.785-2.6-10.582,0-17.044,4.771-24.561,8.977S651.332,7095.608,651.332,7095.608Z" transform="translate(-634.925 -7078.559)" fill="#999"/>
            <path id="Trazado_106889" data-name="Trazado 106889" d="M672.67,7157.581a.566.566,0,0,1-.107-.01c-9.589-1.947-36.221-18.31-37.35-19.006a.532.532,0,0,1-.246-.548c2.628-14.662,15.785-42.326,15.917-42.6a.567.567,0,0,1,.083-.126c.081-.091,2.091-2.294,9.6-6.5,5.662-3.167,12.193-5.16,18.509-7.086,2.147-.655,4.173-1.273,6.143-1.93,7.282-2.428,10.413-.436,11.01.029,1.513.479,16.733,5.362,21.969,9.335,5.264,3.992,13.979,7.506,14.065,7.542a.533.533,0,0,1-.058,1.01c-25.962,7.1-58.754,59.115-59.082,59.64A.534.534,0,0,1,672.67,7157.581Zm-36.586-19.735c3.028,1.85,27.183,16.487,36.334,18.6,2.985-4.721,32.781-51.016,58.07-59.352a68.865,68.865,0,0,1-12.935-7.106c-5.249-3.98-21.58-9.146-21.745-9.2a.526.526,0,0,1-.2-.119c-.022-.02-2.725-2.327-10.049.116-1.982.661-4.017,1.282-6.169,1.938-6.263,1.91-12.738,3.884-18.3,7-6.69,3.744-8.933,5.881-9.275,6.227C651.045,7097.564,638.762,7123.622,636.084,7137.846Z" transform="translate(-634.959 -7078.593)" fill="#4d4d4d"/>
          </g>
          <g id="Grupo_55597" data-name="Grupo 55597" transform="translate(37.551 63.681)">
            <rect id="Rectángulo_9698" data-name="Rectángulo 9698" width="1.067" height="4.269" transform="matrix(0.866, -0.501, 0.501, 0.866, 0, 0.534)" fill="#4d4d4d"/>
            <path id="Trazado_106890" data-name="Trazado 106890" d="M602.966,7078.96l-4.269-7.378.923-.533,4.269,7.377Zm-8.537-14.757-4.269-7.378.923-.534,4.269,7.379Z" transform="translate(-583.753 -7045.216)" fill="#4d4d4d"/>
            <path id="Trazado_106891" data-name="Trazado 106891" d="M608.623,7088.739l-2.469-4.266.924-.534,1.81,3.125,2.681-2.417.715.792Z" transform="translate(-582.674 -7043.349)" fill="#4d4d4d"/>
            <path id="Trazado_106892" data-name="Trazado 106892" d="M617.9,7081.11l-.715-.793,6.361-5.734.715.792Zm12.723-11.47-.715-.792,6.361-5.735.715.792Z" transform="translate(-581.929 -7044.755)" fill="#4d4d4d"/>
            <rect id="Rectángulo_9699" data-name="Rectángulo 9699" width="4.269" height="1.067" transform="translate(60.704 12.625) rotate(-42.07)" fill="#4d4d4d"/>
          </g>
          <g id="Grupo_55598" data-name="Grupo 55598" transform="translate(136.846 116.559)" opacity="0.88">
            <path id="Trazado_106893" data-name="Trazado 106893" d="M677.677,7178.245s38.615-35.644,49.569-51.053,9.653-20.236,9.653-20.236.717-11.881-7.717-10.952l-12.518,5.568s4.826,7,3.713,12.873l-29.332,45.236Z" transform="translate(-677.143 -7095.417)" fill="#999"/>
            <path id="Trazado_106894" data-name="Trazado 106894" d="M677.71,7178.813a.533.533,0,0,1-.432-.845l13.368-18.565,29.259-45.125c.986-5.575-3.6-12.3-3.645-12.369a.532.532,0,0,1,.222-.792L729,7095.549a.523.523,0,0,1,.159-.043,6.39,6.39,0,0,1,5.358,1.617c3.173,3.02,2.99,9.068,2.955,9.829.135.8.515,6.136-9.756,20.583-10.859,15.278-49.255,50.78-49.642,51.136A.524.524,0,0,1,677.71,7178.813Zm39.777-76.974c1.118,1.779,4.423,7.6,3.448,12.739a.525.525,0,0,1-.077.192l-29.331,45.235-10.2,14.169c10.146-9.537,36.8-35,45.522-47.259,10.549-14.84,9.581-19.749,9.57-19.8a.6.6,0,0,1-.015-.162c0-.061.335-6.25-2.622-9.062a5.332,5.332,0,0,0-4.424-1.336Z" transform="translate(-677.177 -7095.451)" fill="#4d4d4d"/>
          </g>
          <g id="Grupo_55599" data-name="Grupo 55599" transform="translate(136.437 157.706)" opacity="0.5">
            <path id="Trazado_106895" data-name="Trazado 106895" d="M712.558,7178.615s8.772-13.785,11.7-26.317-4.162-17.8-4.162-17.8l-33.2,32.509-9.187,8.638s-2.1,7.7,3.22,4.92,4.481-9.19,4.481-9.19,3.624-5.43,4.32-.139-5.848,14.2-5.848,14.2S708.1,7182.792,712.558,7178.615Z" transform="translate(-676.759 -7133.962)" fill="#999"/>
            <path id="Trazado_106896" data-name="Trazado 106896" d="M683.91,7186a.534.534,0,0,1-.431-.85c.065-.087,6.409-8.8,5.749-13.816-.141-1.072-.431-1.761-.776-1.842-.591-.132-1.767,1.061-2.465,2.055.087,1.172.24,6.89-4.783,9.521-1.518.793-2.687.88-3.476.247-1.66-1.337-.63-5.331-.507-5.782a.519.519,0,0,1,.149-.248l9.187-8.639,33.2-32.5a.529.529,0,0,1,.692-.047c.3.225,7.333,5.626,4.364,18.351-2.911,12.476-11.677,26.343-11.766,26.482a.6.6,0,0,1-.085.1c-4.534,4.25-27.994,6.854-28.99,6.963A.468.468,0,0,1,683.91,7186Zm4.457-17.584a1.473,1.473,0,0,1,.327.036c.856.2,1.377,1.1,1.594,2.744.583,4.439-3.565,11.1-5.258,13.6,4.866-.591,23.315-3.031,27.149-6.5.62-.989,8.816-14.207,11.591-26.093,2.438-10.448-2.276-15.708-3.619-16.958L687.3,7167.421l-9.083,8.54c-.374,1.464-.635,3.869.184,4.526.533.427,1.55.038,2.312-.362,4.932-2.582,4.207-8.587,4.2-8.648a.537.537,0,0,1,.085-.365C685.309,7170.637,686.871,7168.42,688.367,7168.42Zm24.225,10.229h0Z" transform="translate(-676.793 -7133.996)" fill="#4d4d4d"/>
          </g>
          <path id="Trazado_106897" data-name="Trazado 106897" d="M688.356,7168.989a.534.534,0,0,1-.231-1.016l16.908-8.073c10.34-4.37,18.692-12.891,18.775-12.977a.534.534,0,1,1,.765.744c-.084.086-8.581,8.76-19.1,13.206l-16.884,8.063A.547.547,0,0,1,688.356,7168.989Z" transform="translate(-539.612 -6975.428)" fill="#4d4d4d" opacity="0.5"/>
          <path id="Trazado_106898" data-name="Trazado 106898" d="M653.549,7087.984l-.974-.436a79.922,79.922,0,0,1,3.989-7.625l.921.54A78.767,78.767,0,0,0,653.549,7087.984Zm8.5-14.712-.884-.6c2.77-4.087,5-6.952,5.024-6.981l.842.657C667.005,7066.377,664.794,7069.217,662.047,7073.272Z" transform="translate(-541.99 -6980.9)" fill="#4d4d4d"/>
          <path id="Trazado_106899" data-name="Trazado 106899" d="M688.383,7081.293c-5.539-2.858-17.173-11.147-17.289-11.231-14.321-14.759-31.05-15.489-31.216-15.494l.035-1.068c.171.006,17.314.738,31.874,15.757.043.019,11.614,8.265,17.086,11.086Z" transform="translate(-542.847 -6981.722)" fill="#4d4d4d"/>
          <path id="Trazado_106900" data-name="Trazado 106900" d="M663.439,7069.913h-7.705a.534.534,0,0,1-.5-.72l1.139-3.06-6.186-2a.531.531,0,0,1-.294-.78l.686-1.156-1.7,1.8a.536.536,0,0,1-.588.128l-4.131-1.672a.534.534,0,0,1-.333-.5v-6.032a.539.539,0,0,1,.239-.447l1.464-.963a.535.535,0,0,1,.46-.06l7.669,2.516,6.222,3.1,7.623,5.382a.534.534,0,0,1,.055.826l-3.759,3.5A.531.531,0,0,1,663.439,7069.913Zm-6.937-1.067h6.727l3.123-2.909-7.017-4.962-5.309-2.64a.527.527,0,0,1-.076.272l-2.8,4.715,5.232,1.693,1.839-3.849a.534.534,0,0,1,.982.417Zm-11.606-7.252,3.46,1.4,4.749-5.026a.463.463,0,0,1,.052-.048l-7.255-2.374-1.007.664Z" transform="translate(-542.581 -6981.66)" fill="#4d4d4d"/>
          <path id="Trazado_106901" data-name="Trazado 106901" d="M675.745,7072.92h-.012a.534.534,0,0,1-.522-.546l.133-6.373-7.766.6a.523.523,0,0,1-.573-.49.532.532,0,0,1,.49-.574l8.354-.65a.51.51,0,0,1,.409.144.536.536,0,0,1,.167.4l-.146,6.963A.534.534,0,0,1,675.745,7072.92Z" transform="translate(-541.017 -6980.954)" fill="#4d4d4d"/>
          <path id="Trazado_106902" data-name="Trazado 106902" d="M654.886,7055.3a.532.532,0,0,1-.275-.079c-.051-.03-5.313-3.184-9.4-3.451a.533.533,0,0,1-.486-.416l-.882-3.886a.532.532,0,0,1,.4-.638.524.524,0,0,1,.638.4l.8,3.505c4.269.441,9.269,3.439,9.486,3.571a.534.534,0,0,1-.278.991Z" transform="translate(-542.581 -6982.174)" fill="#4d4d4d"/>
        </g>
      </g>
      <path id="Trazado_106903" data-name="Trazado 106903" d="M722.978,7146.785l5.473-2.131.711-2.251s.281-.969,1.014-.458l1.965,3.639s.781,1.648-.8,1.447l-2.535-.874-5.233,1.761-1.388-.092Z" transform="translate(-167.401 -6883.388)" fill="#999"/>
      <path id="Trazado_106904" data-name="Trazado 106904" d="M639.156,7054.87l-5.811.849-1.2,2.035s-.492.88-1.091.218l-1.1-3.986s-.391-1.782,1.1-1.231l2.274,1.42,5.494-.543,1.333.4Z" transform="translate(-173.628 -6889.405)" fill="#4d4d4d"/>
    </g>
  </g>
</svg>
