<svg xmlns="http://www.w3.org/2000/svg" xmlns:xlink="http://www.w3.org/1999/xlink" width="464.701" height="543.835" viewBox="0 0 464.701 543.835">
  <defs>
    <clipPath id="clip-path">
      <path id="Trazado_107500" data-name="Trazado 107500" d="M340.624,5067.911c0,71.375,50,129.236,111.678,129.236s106.932-57.86,106.932-129.236S513.98,4938.675,452.3,4938.675,340.624,4996.536,340.624,5067.911Z" transform="translate(-340.624 -4938.675)" fill="none"/>
    </clipPath>
  </defs>
  <g id="Grupo_55811" data-name="Grupo 55811" transform="translate(-340.124 -4825.043)">
    <g id="Grupo_55779" data-name="Grupo 55779" transform="translate(587.007 4825.043)">
      <rect id="Rectángulo_9829" data-name="Rectángulo 9829" width="217.819" height="543.835" rx="28.957" fill="#fff"/>
      <g id="Grupo_55778" data-name="Grupo 55778" transform="translate(43.32 24.94)">
        <g id="Grupo_55753" data-name="Grupo 55753" transform="translate(1.769 21.47)">
          <path id="Trazado_107362" data-name="Trazado 107362" d="M784.471,4937.1a83.808,83.808,0,0,0-9.311-6.195s-11.234-4.86-15.462-7.695c0,0-4.11-1.988-4.282-10.979s.517-15.216,1.9-19.452l1.724-6.571s-5-7.78-18.968-9.6c0,0-9.4-.864-11.554,1.383,0,0-5.689,21.354-13.45,30.863,0,0-1.638,6.311-18.881,9.855l-20.348,4.409s-9.4,1.989-10.863,9.683c0,0-5.691,6.137-2.587,28.961l.862,4.668,22.966,110.811.614,2.1v5.875s-12.84,35.618-14.769,53.156c-1.223,11.116-.5,52.22.194,80.841-.039,14.68-.012,25.312-.012,25.312l.644.052v21.037s-1.911,13.92,16.755,20.09c0,0,17.242,12.338,45.24,2.213l36.7-9.49a24.074,24.074,0,0,0,10.756-20.723c-.435-14.016-.675-23.021-.677-23.086L779.33,5147.3s-1.624-18.115-4.208-31.372a57.55,57.55,0,0,0-1.934-10.211c-2.282-7.168-11.3-21.8-11.3-21.8s-1.333-3.864-.481-6.965l3.686-23.132,8.105-32.681,5.526-10.19s7.308-9.529,6.372-17.48l-2.689-9.354s-.227-7.961-.072-13.443c.037-1.177.094-2.226.176-3.031l3.333-11.987.049-.463.02-.073.629-5.915h-.015l.466-4.386S787.805,4939.864,784.471,4937.1Z" transform="translate(-661.114 -4876.104)" fill="#fff"/>
          <path id="Trazado_107363" data-name="Trazado 107363" d="M713.407,5292.195c-14.509,0-23.248-5.728-23.954-6.209-18.668-6.2-16.959-20.3-16.939-20.444l0-20.676-.643-.055v-.312c0-.106-.027-10.8.012-25.312-.75-30.881-1.391-69.989-.192-80.877,1.875-17.053,14.186-51.558,14.768-53.179v-5.766l-.6-2.058L662.88,4966.469l-.863-4.676c-2.947-21.667,1.935-28.374,2.6-29.178,1.547-7.752,11.015-9.841,11.109-9.862l20.347-4.408c16.755-3.444,18.607-9.549,18.624-9.61l.065-.128c7.625-9.342,13.328-30.521,13.385-30.735l.022-.083.062-.064c2.243-2.339,11.44-1.523,11.83-1.487,13.978,1.817,19.017,9.43,19.224,9.751l.081.126-1.762,6.715c-1.437,4.41-2.051,10.735-1.886,19.359s4.052,10.659,4.091,10.678c4.195,2.808,15.335,7.639,15.447,7.688a84.375,84.375,0,0,1,9.394,6.245h0c3.445,2.858,2.682,7.832,2.649,8.042l-1.148,10.816-3.343,12.044c-.066.691-.125,1.7-.164,2.95-.147,5.2.053,12.741.071,13.379l2.676,9.311c.952,8.05-6.127,17.389-6.429,17.782l-5.476,10.107-8.1,32.638-3.68,23.1c-.821,3,.453,6.763.467,6.8.058.079,9.03,14.68,11.3,21.8a57.318,57.318,0,0,1,1.946,10.276c2.554,13.1,4.194,31.2,4.209,31.381l2.331,87.347c.01.375.248,9.31.677,23.083.437,14.106-10.81,20.959-10.924,21.026l-.088.038-36.7,9.491A63.084,63.084,0,0,1,713.407,5292.195Zm-40.859-48.01.645.051v21.352c-.021.183-1.641,13.763,16.521,19.765l.091.047c.172.122,17.439,12.111,44.925,2.171l36.681-9.488c.723-.453,10.963-7.117,10.551-20.395-.427-13.775-.667-22.711-.677-23.076l-2.329-87.337c-.015-.159-1.651-18.228-4.2-31.317a57.007,57.007,0,0,0-1.923-10.173c-2.244-7.045-11.172-21.575-11.262-21.721-.088-.229-1.39-4.067-.518-7.234l3.677-23.095,8.141-32.791,5.526-10.191c.1-.139,7.243-9.558,6.334-17.277l-2.691-9.384c0-.079-.226-8.034-.072-13.461.04-1.265.1-2.292.177-3.057l3.344-12.045.07-.537,1.07-10.242c.011-.067.733-4.819-2.409-7.424h0a84.085,84.085,0,0,0-9.263-6.163c-.426-.182-11.277-4.888-15.482-7.708-.134-.061-4.259-2.16-4.433-11.256-.166-8.7.459-15.1,1.915-19.562l1.679-6.4c-.706-.98-5.957-7.675-18.643-9.324-2.528-.233-9.431-.459-11.2,1.222-.414,1.52-6.008,21.68-13.448,30.848-.253.778-2.681,6.649-19.121,10.028l-20.344,4.407c-.093.021-9.195,2.037-10.6,9.414l-.018.1-.066.072c-.055.061-5.536,6.36-2.5,28.684l.86,4.652,22.965,110.8.621,2.174-.02,5.991c-.128.355-12.848,35.781-14.751,53.078-1.194,10.851-.553,49.926.2,80.795C672.526,5232.314,672.544,5242.316,672.548,5244.185Z" transform="translate(-661.079 -4876.07)" fill="#999"/>
        </g>
        <path id="Trazado_107364" data-name="Trazado 107364" d="M794.572,4997.414l-5.5-15.622c-1.774-5.659-3.255-14.343-4.688-22.741-1.887-11.064-3.84-22.506-6.38-26.292l.567-.38c2.62,3.908,4.5,14.911,6.485,26.559,1.43,8.375,2.907,17.035,4.662,22.64l5.493,15.611Z" transform="translate(-669.886 -4859.692)" fill="#999"/>
        <path id="Trazado_107365" data-name="Trazado 107365" d="M729.625,5104.024c-.7,0-1.4,0-2.121-.012-27.394-.286-38.9-6.47-39.008-6.532l.33-.6c.111.062,11.492,6.164,38.685,6.447,24.072.239,35.5-3.836,35.613-3.876l.235.64C763.249,5100.135,752.379,5104.024,729.625,5104.024Z" transform="translate(-661.79 -4874.57)" fill="#999"/>
        <path id="Trazado_107366" data-name="Trazado 107366" d="M730.173,5113.272q-1.289,0-2.572-.048c-25.642-.981-37.815-6.9-37.934-6.964l.3-.611c.118.059,12.181,5.918,37.657,6.893,17.653.691,36.236-6.013,36.42-6.082l.235.641C764.1,5107.166,747.16,5113.272,730.173,5113.272Z" transform="translate(-661.896 -4875.363)" fill="#999"/>
        <path id="Trazado_107367" data-name="Trazado 107367" d="M736.111,5112.84l-2.634-2.633,2.054-2.817-2.58-2.8.5-.462,2.961,3.214-2.039,2.8,2.22,2.219Z" transform="translate(-665.811 -4875.226)" fill="#999"/>
        <path id="Trazado_107368" data-name="Trazado 107368" d="M740.293,5112.84l-2.632-2.633,2.053-2.817-2.58-2.8.5-.462,2.961,3.214-2.039,2.8,2.22,2.219Z" transform="translate(-666.189 -4875.226)" fill="#999"/>
        <path id="Trazado_107369" data-name="Trazado 107369" d="M744.558,5112.593l-2.454-2.559,1.913-2.736-2.4-2.721.512-.452,2.76,3.123-1.9,2.718,2.067,2.154Z" transform="translate(-666.594 -4875.225)" fill="#999"/>
        <path id="Trazado_107370" data-name="Trazado 107370" d="M748.814,5112.026l-2.463-2.418,1.906-2.567-2.375-2.534.5-.467,2.764,2.95-1.89,2.547,2.038,2Z" transform="translate(-666.98 -4875.218)" fill="#999"/>
        <path id="Trazado_107371" data-name="Trazado 107371" d="M752.624,5111.386l-2.463-2.419,1.905-2.567-2.375-2.533.5-.467,2.766,2.949-1.891,2.548,2.039,2Z" transform="translate(-667.325 -4875.16)" fill="#999"/>
        <path id="Trazado_107372" data-name="Trazado 107372" d="M713.71,5111.767l-2.377-2.8,2.313-2.5-2.29-2.937.538-.419,2.647,3.393-2.3,2.482,1.986,2.342Z" transform="translate(-663.855 -4875.134)" fill="#999"/>
        <path id="Trazado_107373" data-name="Trazado 107373" d="M717.873,5112.183l-2.377-2.8,2.314-2.5-2.29-2.937.538-.419,2.645,3.393-2.3,2.482,1.986,2.341Z" transform="translate(-664.232 -4875.171)" fill="#999"/>
        <path id="Trazado_107374" data-name="Trazado 107374" d="M722.354,5112.631l-2.377-2.8,2.314-2.5-2.29-2.937.538-.419,2.647,3.393-2.3,2.483,1.986,2.341Z" transform="translate(-664.637 -4875.211)" fill="#999"/>
        <path id="Trazado_107375" data-name="Trazado 107375" d="M700.7,5109.03l-2.377-2.8,2.314-2.5-2.29-2.937.538-.419,2.645,3.393-2.3,2.482,1.986,2.341Z" transform="translate(-662.679 -4874.886)" fill="#999"/>
        <path id="Trazado_107376" data-name="Trazado 107376" d="M696.627,5107.86l-2.376-2.8,2.313-2.5-2.29-2.937.538-.419,2.647,3.393-2.3,2.483,1.985,2.341Z" transform="translate(-662.31 -4874.78)" fill="#999"/>
        <path id="Trazado_107377" data-name="Trazado 107377" d="M693.265,5106.714l-2.377-2.8,2.314-2.5-2.29-2.937.538-.419,2.647,3.393-2.3,2.482,1.986,2.341Z" transform="translate(-662.006 -4874.677)" fill="#999"/>
        <path id="Trazado_107378" data-name="Trazado 107378" d="M704.863,5110.146l-2.377-2.8,2.314-2.5-2.29-2.937.538-.419,2.647,3.393-2.3,2.482,1.986,2.342Z" transform="translate(-663.055 -4874.987)" fill="#999"/>
        <path id="Trazado_107379" data-name="Trazado 107379" d="M709.345,5110.594l-2.377-2.8,2.314-2.5-2.291-2.937.538-.419,2.646,3.393-2.3,2.483,1.986,2.342Z" transform="translate(-663.461 -4875.027)" fill="#999"/>
        <path id="Trazado_107380" data-name="Trazado 107380" d="M726.6,5113.055l-2.377-2.8,2.314-2.5-2.29-2.937.538-.419,2.645,3.393-2.3,2.484,1.986,2.341Z" transform="translate(-665.021 -4875.25)" fill="#999"/>
        <path id="Trazado_107381" data-name="Trazado 107381" d="M730.749,5112.787l-2.377-2.8,2.314-2.5-2.29-2.937.538-.419,2.645,3.393-2.3,2.482,1.986,2.342Z" transform="translate(-665.396 -4875.226)" fill="#999"/>
        <path id="Trazado_107382" data-name="Trazado 107382" d="M760.429,5109.557l-2.638-2.062,1.987-2.128-2.4-2.039.441-.521,2.951,2.5-1.967,2.107,2.05,1.6Z" transform="translate(-668.019 -4875.106)" fill="#999"/>
        <path id="Trazado_107383" data-name="Trazado 107383" d="M764.218,5108.628l-2.638-2.062,1.987-2.128-2.4-2.039.441-.521,2.951,2.5-1.967,2.107,2.05,1.6Z" transform="translate(-668.362 -4875.022)" fill="#999"/>
        <path id="Trazado_107384" data-name="Trazado 107384" d="M768.089,5107.671l-2.638-2.061,1.987-2.13-2.4-2.037.441-.521,2.951,2.5-1.967,2.106,2.05,1.6Z" transform="translate(-668.712 -4874.936)" fill="#999"/>
        <path id="Trazado_107385" data-name="Trazado 107385" d="M756.1,5110.1l-2.513-2.109,1.9-2.191-2.321-2.113.46-.5,2.813,2.563-1.887,2.17,1.982,1.663Z" transform="translate(-667.639 -4875.14)" fill="#999"/>
        <path id="Trazado_107386" data-name="Trazado 107386" d="M690.3,5294.891c-.062-1.2-6.169-120.1-5.379-149.351a142.778,142.778,0,0,1,11.547-52.01v-4.69L672.5,4977.893l.667-.144,23.97,111.019.008,4.915-.034.071a141.7,141.7,0,0,0-11.513,51.8c-.79,29.229,5.316,148.1,5.377,149.3Z" transform="translate(-660.343 -4863.795)" fill="#999"/>
        <g id="Grupo_55754" data-name="Grupo 55754" transform="translate(10.991 114.663)">
          <rect id="Rectángulo_9830" data-name="Rectángulo 9830" width="0.682" height="0.909" transform="translate(0 0.145) rotate(-12.298)" fill="#999"/>
          <path id="Trazado_107387" data-name="Trazado 107387" d="M688.878,5292.427l-.1-1.823.68-.036.1,1.821Zm-.194-3.646-.1-1.821.682-.036.095,1.821Zm-.188-3.643-.094-1.82.682-.034.093,1.819Zm-.185-3.639-.094-1.82.682-.035.092,1.819Zm-.184-3.639-.09-1.819.682-.034.09,1.819Zm-.18-3.64-.089-1.819.682-.035.089,1.819Zm-.178-3.637-.088-1.82.682-.033.088,1.818Zm-.175-3.639-.086-1.819.682-.033.086,1.819Zm-.174-3.638-.085-1.819.682-.033.085,1.819Zm-.169-3.637-.085-1.819.682-.033.085,1.819Zm-.167-3.638-.083-1.82.682-.031.083,1.818Zm-.164-3.639-.082-1.819.682-.031.082,1.819Zm-.164-3.637-.08-1.819.682-.031.08,1.819Zm-.159-3.638-.079-1.818.682-.031.079,1.82Zm-.156-3.639-.077-1.819.682-.029.077,1.819Zm-.155-3.638-.076-1.819.682-.029.076,1.819Zm-.151-3.638-.07-1.742.337-.091.341-.015-.341.015.344.064.071,1.742Zm-.148-3.638-.072-1.819.682-.027.072,1.819Zm-.143-3.638-.068-1.748.338-.085.341-.014-.341.014.344.058.068,1.749Zm-.141-3.638-.07-1.82.682-.028.07,1.821Zm-.138-3.64-.066-1.819.682-.025.066,1.819Zm-.133-3.638-.065-1.82.682-.023.065,1.818Zm-.13-3.646-.064-1.824.682-.022.064,1.823Zm-.126-3.646-.062-1.82.682-.022.062,1.82Zm-.122-3.639-.059-1.816.682-.021.059,1.816Zm-.116-3.632-.056-1.812.682-.021.056,1.812Zm-.11-3.631-.053-1.768.68-.073.055,1.819Zm-.107-3.641-.051-1.82.682-.021.051,1.82Zm-.1-3.642-.048-1.82.682-.018.048,1.82Zm-.094-3.64-.045-1.821.682-.017.045,1.819Zm-.087-3.641-.041-1.821.682-.015.041,1.819Zm-.08-3.64-.036-1.822.682-.013.036,1.82Zm-.071-3.641-.033-1.821.682-.013.033,1.821Zm-.062-3.642-.028-1.821.682-.011.028,1.821Zm-.052-3.644-.022-1.821.682-.008.022,1.821Zm-.042-3.643-.016-1.821.682,0,.016,1.821Zm-.026-3.642-.007-1.822h.682l.007,1.764-.341.057Zm.671-3.645H684.1v-1.82l.682,0Zm.008-3.635-.682,0,.012-1.821.682.005Zm.029-3.638-.682-.008q.011-.926.025-1.822l.682.011Q684.826,5149.558,684.815,5150.482Zm.059-3.635-.682-.015q.018-.927.041-1.821l.682.017Q684.893,5145.919,684.874,5146.847Zm.094-3.635-.682-.022q.031-.934.065-1.82l.682.026Q685,5142.281,684.968,5143.212Zm.146-3.631-.682-.032q.046-.944.1-1.822l.68.041Q685.159,5138.644,685.114,5139.582Zm.227-3.62-.68-.058q.076-.9.174-1.821l.679.073Q685.415,5135.065,685.341,5135.962Zm.381-3.609-.677-.085c.076-.6.158-1.206.246-1.811l.675.1Q685.835,5131.459,685.722,5132.353Zm.518-3.592-.673-.108q.146-.9.3-1.8l.671.119Q686.385,5127.866,686.241,5128.761Zm.634-3.581-.67-.127q.171-.9.355-1.792l.668.137Q687.047,5124.288,686.875,5125.18Zm.728-3.56-.667-.144q.192-.892.4-1.777l.664.152C687.863,5120.437,687.73,5121.029,687.6,5121.62Zm.809-3.537-.662-.158c.142-.6.286-1.187.433-1.774l.662.166Q688.626,5117.193,688.411,5118.083Zm.885-3.529-.661-.171q.232-.893.468-1.764l.659.177Q689.527,5113.665,689.3,5114.553Zm.947-3.511-.658-.183q.248-.891.5-1.757l.656.19Q690.49,5110.153,690.243,5111.042Zm1.007-3.495-.653-.193q.263-.9.527-1.748l.651.2Q691.515,5106.656,691.25,5107.548Zm1.063-3.481-.65-.2q.281-.9.554-1.739l.649.209Q692.595,5103.171,692.313,5104.067Zm1.118-3.463-.648-.214q.3-.914.58-1.731l.646.22C693.824,5099.421,693.63,5100,693.431,5100.6Zm1.17-3.448-.645-.224c.227-.651.431-1.228.61-1.724l.641.231C695.031,5095.933,694.826,5096.508,694.6,5097.155Zm1.232-3.428-.639-.239.108-.287v-1.394h.682l-.022,1.577Zm.151-3.74H695.3v-1.225l-.119-.508.667-.146.127.581Zm-1.19-3.511-.388-1.777.666-.145.388,1.777Zm-.778-3.554-.388-1.777.666-.146.389,1.777Zm-.777-3.555-.389-1.778.666-.146.389,1.778Zm-.779-3.556-.388-1.777.666-.146.388,1.777Zm-.777-3.554-.388-1.777.666-.146.388,1.777Zm-.778-3.556-.388-1.777.666-.146.389,1.777Zm-.777-3.554-.389-1.778.667-.146L690.8,5065Zm-.779-3.556-.388-1.777.666-.146.388,1.777Zm-.777-3.555-.389-1.777.667-.146.388,1.777Zm-.778-3.554-.388-1.777.666-.147.389,1.777Zm-.778-3.557-.388-1.777.667-.146.387,1.777Zm-.778-3.555-.388-1.777.666-.146.389,1.777Zm-.777-3.554-.389-1.777.667-.146.388,1.777Zm-.779-3.555-.387-1.778.666-.146.388,1.778Zm-.777-3.555-.388-1.778.667-.146.387,1.778Zm-.778-3.556-.388-1.777.666-.146.389,1.777Zm-.777-3.555-.389-1.777.667-.146.388,1.777Zm-.778-3.555-.388-1.777.666-.146.388,1.777Zm-.778-3.555-.389-1.777.667-.145.388,1.777Zm-.777-3.554-.389-1.777.666-.146.389,1.778Zm-.779-3.556-.388-1.778.667-.146.388,1.778Zm-.777-3.555-.389-1.777.666-.146.389,1.777Zm-.778-3.555-.389-1.777.667-.146.388,1.777Zm-.778-3.555-.388-1.777.666-.145.388,1.777Zm-.778-3.554-.388-1.778.667-.146.388,1.779Zm-.777-3.556-.389-1.778.666-.145.389,1.777Zm-.778-3.556-.389-1.777.667-.146.389,1.777Zm-.778-3.554-.388-1.777.666-.146.388,1.777Zm-.778-3.556-.389-1.777.667-.145.389,1.777Zm-.777-3.554-.389-1.777.666-.146.389,1.778Z" transform="translate(-671.276 -4978.794)" fill="#999"/>
          <rect id="Rectángulo_9831" data-name="Rectángulo 9831" width="0.681" height="0.905" transform="matrix(0.999, -0.054, 0.054, 0.999, 17.689, 315.293)" fill="#999"/>
        </g>
        <g id="Grupo_55755" data-name="Grupo 55755" transform="translate(13.024 113.431)">
          <path id="Trazado_107388" data-name="Trazado 107388" d="M673.648,4978.21l-.2-.888.666-.147.2.888Z" transform="translate(-673.453 -4977.175)" fill="#999"/>
          <path id="Trazado_107389" data-name="Trazado 107389" d="M691.709,5292.657l-.1-1.814.68-.037.1,1.813Zm-.2-3.628-.1-1.814.68-.037.1,1.812Zm-.2-3.624-.1-1.812.68-.04.1,1.812Zm-.2-3.627-.1-1.81.68-.038.1,1.81Zm-.2-3.622-.1-1.81.68-.039.1,1.812Zm-.2-3.621-.1-1.811.68-.038.1,1.811Zm-.2-3.621-.1-1.811.68-.037.1,1.811Zm-.2-3.621-.1-1.811.68-.038.1,1.811Zm-.2-3.621-.1-1.811.68-.037.1,1.811Zm-.192-3.622-.1-1.811.681-.036.1,1.811Zm-.191-3.621-.095-1.81.681-.037.094,1.811Zm-.189-3.622-.094-1.81.682-.035.093,1.81Zm-.184-3.618-.093-1.812.682-.035.092,1.811Zm-.184-3.624-.09-1.81.682-.034.09,1.81Zm-.179-3.62-.088-1.81.682-.034.088,1.81Zm-.177-3.622-.087-1.81.682-.034.087,1.812Zm-.173-3.621-.086-1.811.682-.032.085,1.811Zm-.171-3.62-.084-1.813.682-.03.084,1.81Zm-.166-3.624-.081-1.811.682-.03.081,1.811Zm-.163-3.622-.08-1.812.682-.031.08,1.812Zm-.158-3.624-.078-1.811.682-.028.078,1.809Zm-.155-3.621-.076-1.812.682-.029.076,1.811Zm-.151-3.628-.074-1.816.682-.027.07,1.744-.337.085Zm-.146-3.63-.071-1.812.682-.027.071,1.812Zm-.141-3.621-.069-1.809.682-.026.069,1.809Zm-.135-3.616-.066-1.8.682-.024.065,1.8Zm-.13-3.614-.064-1.813.682-.023.061,1.747-.338.076Zm-.125-3.625-.06-1.812.682-.021.06,1.811Zm-.118-3.623-.055-1.812.682-.022.055,1.813Zm-.11-3.625-.053-1.813.682-.019.053,1.812Zm-.1-3.625-.048-1.812.682-.017.048,1.812Zm-.095-3.624-.043-1.749.68-.08.045,1.811Zm-.086-3.626-.039-1.814.682-.014.039,1.813Zm-.076-3.625-.033-1.813.682-.013.033,1.814Zm-.062-3.626-.026-1.813.682-.009.026,1.812Zm-.051-3.626-.018-1.814.682,0,.018,1.812Zm-.034-3.627-.011-1.813.682,0,.011,1.812Zm-.017-3.627v-1.814h.682v1.812Zm.688-3.622-.682,0,.01-1.813.682,0Zm.027-3.621-.682-.009.026-1.812.682.011Zm.062-3.621-.682-.017q.022-.924.046-1.812l.682.019Q687.04,5146.818,687.02,5147.74Zm.1-3.617-.682-.024q.034-.93.073-1.812l.682.029Q687.157,5143.195,687.124,5144.124Zm.161-3.614-.68-.038q.052-.938.11-1.813l.68.047Q687.336,5139.574,687.284,5140.509Zm.247-3.6-.68-.059c.053-.6.108-1.18.166-1.721l.011-.094.677.082-.008.079C687.638,5135.736,687.583,5136.306,687.532,5136.906Zm.378-3.593-.677-.08q.106-.913.217-1.8l.677.085Q688.017,5132.4,687.91,5133.313Zm.45-3.589-.677-.091q.124-.913.25-1.8l.675.1Q688.483,5128.813,688.36,5129.725Zm.514-3.579-.675-.1q.142-.913.285-1.792l.673.111Q689.013,5125.238,688.874,5126.146Zm.584-3.567-.671-.117c.106-.606.213-1.2.321-1.786l.67.125Q689.617,5121.671,689.458,5122.578Zm.663-3.552-.669-.132q.183-.91.366-1.777l.669.142Q690.3,5118.121,690.121,5119.026Zm.75-3.533-.665-.151q.206-.909.416-1.768l.663.162Q691.078,5114.589,690.872,5115.493Zm.853-3.506-.659-.172q.237-.906.474-1.754l.658.183Q691.961,5111.085,691.725,5111.986Zm.975-3.474-.653-.2q.273-.9.543-1.734l.648.211Q692.971,5107.616,692.7,5108.513Zm1.118-3.428-.643-.226q.316-.9.629-1.708l.636.246C694.236,5103.928,694.027,5104.49,693.818,5105.085Zm1.3-3.355-.628-.267q.385-.905.745-1.664l.616.291C695.613,5100.588,695.369,5101.133,695.116,5101.729Zm1.539-3.242-.6-.323c.308-.573.619-1.107.921-1.584l.577.363C697.258,5097.41,696.956,5097.928,696.655,5098.487Zm1.962-3.006-.328-.242h-.254v-1.732h.682v1.873Zm.1-3.786h-.682v-1.811h.682Zm-.9-3.524-.387-1.77.666-.146.388,1.769Zm-.777-3.539-.389-1.769.667-.146.388,1.77Zm-.779-3.539-.388-1.769.666-.146.389,1.77Zm-.777-3.538-.389-1.77.667-.146.388,1.769Zm-.779-3.539-.388-1.769.666-.146.389,1.769Zm-.777-3.539-.389-1.769.667-.146.388,1.77Zm-.778-3.538-.389-1.771.666-.145.389,1.77Zm-.778-3.539-.389-1.77.667-.146.388,1.769Zm-.778-3.54-.389-1.769.666-.146.389,1.769Zm-.779-3.538-.388-1.769.667-.146.388,1.77Zm-.777-3.539-.389-1.77.666-.146.389,1.769Zm-.779-3.539-.388-1.77.667-.146.388,1.769Zm-.777-3.538-.389-1.769.666-.146.389,1.77Zm-.779-3.54-.389-1.769.667-.146.389,1.77Zm-.777-3.538-.389-1.771.666-.145.389,1.77Zm-.779-3.539-.389-1.769.667-.146.389,1.769Zm-.777-3.54-.389-1.769.666-.146.389,1.769Zm-.779-3.538-.389-1.769.667-.146.389,1.771Zm-.778-3.539-.388-1.77.666-.145.388,1.769Zm-.778-3.538-.388-1.769.666-.146.389,1.767Zm-.778-3.539-.388-1.769.666-.146.388,1.77Zm-.778-3.539-.388-1.769.666-.146.389,1.77Zm-.778-3.538-.389-1.77.667-.146.388,1.77Zm-.778-3.539-.388-1.769.666-.146.389,1.769Zm-.778-3.539-.389-1.769.667-.146.388,1.769Zm-.778-3.539-.388-1.77.666-.146.389,1.771Zm-.778-3.539-.389-1.77.667-.145.388,1.769Zm-.779-3.538-.387-1.77.666-.146.388,1.769Zm-.777-3.539-.389-1.769.667-.146.388,1.771Zm-.779-3.539-.388-1.769.666-.146.388,1.769Zm-.777-3.538-.389-1.77.667-.146.388,1.77Z" transform="translate(-673.511 -4977.438)" fill="#999"/>
          <path id="Trazado_107390" data-name="Trazado 107390" d="M694.175,5326.768l-.248-.233-.337-.038c0-.075-.007-.363-.033-.851l.682-.034C694.289,5326.648,694.289,5326.648,694.175,5326.768Z" transform="translate(-675.271 -5008.688)" fill="#999"/>
        </g>
        <path id="Trazado_107391" data-name="Trazado 107391" d="M764.056,5283.77a.454.454,0,0,1-.455-.453c0-.522-.214-52.765-.791-100.783-.047-3.949-.087-7.875-.127-11.746-.323-31.734-.6-59.141-4.483-67.321-6.75-14.231-2.579-51.61.184-76.347.284-2.547.552-4.953.791-7.173.3-2.8.617-5.283.922-7.683,1.051-8.242,1.881-14.751.867-25.614-1.27-13.626-8.062-53.266-8.352-54.95-.232-.571-1.739-4.91-.012-17.9,1.807-13.595,2.415-19.97,2.42-20.034a.48.48,0,0,1,.5-.41.455.455,0,0,1,.41.5c-.005.063-.614,6.455-2.424,20.068-1.779,13.376-.055,17.429-.037,17.468a.436.436,0,0,1,.035.111c.071.41,7.075,41.184,8.371,55.071,1.022,10.963.186,17.516-.87,25.814-.306,2.4-.621,4.872-.921,7.665-.239,2.221-.508,4.628-.791,7.178-2.75,24.633-6.905,61.858-.265,75.856,3.964,8.361,4.245,35.859,4.57,67.7.039,3.871.08,7.795.127,11.744.578,48.021.79,100.268.791,100.79a.454.454,0,0,1-.453.457Z" transform="translate(-667.514 -4856.162)" fill="#4d4d4d"/>
        <path id="Trazado_107392" data-name="Trazado 107392" d="M734.075,5293.776h0a.455.455,0,0,1-.452-.458c.006-1.364.669-136.559,1.062-144.311.391-7.7-2.2-28.186-2.227-28.393l-3.149-19.679-1.659-32.556c0-.414-.311-39.621.118-49.941.12-2.891.373-6.029.617-9.064.64-7.959,1.3-16.189-.278-21.1-2.189-6.8-15.347-34.2-15.48-34.475l-3.972-10.958c-.04-.114-3.9-10.994-8.675-14.663l-4.936-3.8a.455.455,0,0,1,.555-.721l4.935,3.8c4.986,3.834,8.817,14.621,8.977,15.078l3.953,10.911c.525,1.087,13.3,27.69,15.508,34.548,1.637,5.084.968,13.406.32,21.454-.243,3.026-.495,6.156-.614,9.028-.429,10.3-.123,49.483-.119,49.877l1.654,32.488,3.146,19.645c.028.221,2.63,20.787,2.234,28.568-.392,7.73-1.054,142.9-1.061,144.268A.454.454,0,0,1,734.075,5293.776Z" transform="translate(-662.366 -4858.895)" fill="#4d4d4d"/>
        <path id="Trazado_107393" data-name="Trazado 107393" d="M744.329,5382.176l-11.637,2.441v-53.334l11.637-3.367Z" transform="translate(-665.787 -4895.466)" fill="#404040"/>
        <path id="Trazado_107394" data-name="Trazado 107394" d="M744.329,5402.557v-6.884l-11.637,3.367v3.517Z" transform="translate(-665.787 -4901.594)" fill="#404040"/>
        <rect id="Rectángulo_9832" data-name="Rectángulo 9832" width="0.91" height="78.993" transform="translate(16.931 422.853) rotate(-8.249)" fill="#404040"/>
        <rect id="Rectángulo_9833" data-name="Rectángulo 9833" width="0.91" height="71.578" transform="matrix(0.99, -0.142, 0.142, 0.99, 25.843, 430.175)" fill="#404040"/>
        <rect id="Rectángulo_9834" data-name="Rectángulo 9834" width="0.909" height="69.15" transform="translate(32.186 432.511) rotate(-7.784)" fill="#404040"/>
        <rect id="Rectángulo_9835" data-name="Rectángulo 9835" width="0.91" height="64.078" transform="matrix(0.994, -0.111, 0.111, 0.994, 42.973, 437.332)" fill="#404040"/>
        <rect id="Rectángulo_9836" data-name="Rectángulo 9836" width="0.909" height="63.915" transform="translate(52.937 437.32) rotate(-4.898)" fill="#404040"/>
        <rect id="Rectángulo_9837" data-name="Rectángulo 9837" width="0.91" height="63.711" transform="translate(59.105 437.296) rotate(-1.75)" fill="#404040"/>
        <rect id="Rectángulo_9838" data-name="Rectángulo 9838" width="0.91" height="68.517" transform="matrix(1, -0.01, 0.01, 1, 81.409, 432.455)" fill="#404040"/>
        <rect id="Rectángulo_9839" data-name="Rectángulo 9839" width="0.91" height="70.852" transform="translate(90.9 430.111)" fill="#404040"/>
        <rect id="Rectángulo_9840" data-name="Rectángulo 9840" width="74.187" height="0.91" transform="matrix(0.023, -1, 1, 0.023, 98.479, 500.952)" fill="#404040"/>
        <rect id="Rectángulo_9841" data-name="Rectángulo 9841" width="76.282" height="0.91" transform="matrix(0.043, -0.999, 0.999, 0.043, 104.871, 500.942)" fill="#404040"/>
        <rect id="Rectángulo_9842" data-name="Rectángulo 9842" width="77.279" height="0.909" transform="translate(110.616 500.939) rotate(-86.864)" fill="#404040"/>
        <rect id="Rectángulo_9843" data-name="Rectángulo 9843" width="87.535" height="0.91" transform="matrix(0.064, -0.998, 0.998, 0.064, 114.847, 500.932)" fill="#404040"/>
        <path id="Trazado_107395" data-name="Trazado 107395" d="M710.524,5391.5c-8.226,0-16.5-1.092-20.794-4.821-2.429-2.106-3.391-4.25-2.861-6.37,1.564-6.253,15.649-9.728,15.791-9.76,2.926-.668,30.847-6.986,30.847-6.986l.038-.008,7.276-1c1.227-.19,30.3-4.615,36.487,3.335,1.586,2.039,2.19,3.942,1.8,5.659-.692,3.009-4.186,4.73-6.737,5.987a12.422,12.422,0,0,0-2.085,1.161c-2.077,1.757-33.04,9.711-36.563,10.613A142.268,142.268,0,0,1,710.524,5391.5Zm23.165-27.046c-.82.186-27.944,6.324-30.827,6.981s-13.866,4.121-15.11,9.095c-.44,1.762.426,3.6,2.573,5.461,9.846,8.539,42.866,2.492,43.2,2.429,13.728-3.512,34.722-9.192,36.172-10.419a12.536,12.536,0,0,1,2.271-1.283c2.387-1.176,5.656-2.787,6.251-5.375.329-1.437-.217-3.083-1.627-4.9-5.856-7.528-35.341-3.039-35.637-2.994Z" transform="translate(-661.63 -4898.473)" fill="#404040"/>
        <g id="Grupo_55756" data-name="Grupo 55756" transform="translate(94.974 411.12)">
          <path id="Trazado_107396" data-name="Trazado 107396" d="M764.657,5311.107l4.126-2.892,1.907.586s.809.27.809-.5l-1.576-3.185s-.767-1.365-1.39-.133l-.619,2.246-3.754,2.9-.608,1.042Z" transform="translate(-763.552 -5304.465)" fill="#666"/>
        </g>
        <g id="Grupo_55757" data-name="Grupo 55757" transform="translate(94.974 356.388)">
          <path id="Trazado_107397" data-name="Trazado 107397" d="M764.657,5250.933l4.126-2.891,1.907.586s.809.27.809-.5l-1.576-3.184s-.767-1.365-1.39-.133l-.619,2.246-3.754,2.9-.608,1.042Z" transform="translate(-763.552 -5244.291)" fill="#666"/>
        </g>
        <g id="Grupo_55758" data-name="Grupo 55758" transform="translate(94.974 291.175)">
          <path id="Trazado_107398" data-name="Trazado 107398" d="M764.657,5179.235l4.126-2.891,1.907.586s.809.271.809-.5l-1.576-3.185s-.767-1.364-1.39-.133l-.619,2.246-3.754,2.9-.608,1.042Z" transform="translate(-763.552 -5172.593)" fill="#666"/>
        </g>
        <g id="Grupo_55759" data-name="Grupo 55759" transform="translate(59.76 296.694)">
          <path id="Trazado_107399" data-name="Trazado 107399" d="M725.9,5186.128l3.4-3.721,1.989.158s.849.087.679-.669l-2.231-2.766s-1.046-1.164-1.386.174l-.116,2.326-3.032,3.648-.367,1.149Z" transform="translate(-724.837 -5178.661)" fill="#666"/>
        </g>
        <g id="Grupo_55760" data-name="Grupo 55760" transform="translate(27.41 297.226)">
          <path id="Trazado_107400" data-name="Trazado 107400" d="M690.376,5185.887,694.5,5183l1.907.587s.809.27.809-.505l-1.576-3.185s-.768-1.363-1.391-.132l-.619,2.246-3.754,2.9-.608,1.041Z" transform="translate(-689.27 -5179.246)" fill="#666"/>
        </g>
        <g id="Grupo_55761" data-name="Grupo 55761" transform="translate(29.372 348.27)">
          <path id="Trazado_107401" data-name="Trazado 107401" d="M692.532,5242.006l4.126-2.892,1.907.587s.809.271.809-.5l-1.576-3.184s-.768-1.364-1.391-.133l-.619,2.246-3.754,2.9-.607,1.042Z" transform="translate(-691.427 -5235.365)" fill="#666"/>
        </g>
        <g id="Grupo_55762" data-name="Grupo 55762" transform="translate(29.941 416.328)">
          <path id="Trazado_107402" data-name="Trazado 107402" d="M693.158,5316.833l4.126-2.892,1.907.587s.81.27.809-.505l-1.576-3.185s-.767-1.363-1.391-.132l-.618,2.246-3.754,2.9-.608,1.042Z" transform="translate(-692.053 -5310.19)" fill="#666"/>
        </g>
        <path id="Trazado_107403" data-name="Trazado 107403" d="M710.282,5194.8l-.872-.256c1.91-6.5,14.047-21.841,14.563-22.49l.713.564C724.56,5172.777,712.144,5188.466,710.282,5194.8Z" transform="translate(-663.681 -4881.369)" fill="#666"/>
        <path id="Trazado_107404" data-name="Trazado 107404" d="M702.3,5193.637c-.62-8.686,5.143-17.28,5.388-17.641l.753.511c-.058.085-5.831,8.7-5.234,17.065Z" transform="translate(-663.034 -4881.726)" fill="#666"/>
        <path id="Trazado_107405" data-name="Trazado 107405" d="M752.907,5198.071c-1.332-8.587,4.33-19.849,4.572-20.324l.809.413c-.057.113-5.768,11.477-4.482,19.773Z" transform="translate(-667.597 -4881.884)" fill="#666"/>
        <path id="Trazado_107406" data-name="Trazado 107406" d="M705.9,5187.235c-2.9,0-5.684-.049-8.267-.163a309.892,309.892,0,0,1-36.97-3.74l.161-.895a309.763,309.763,0,0,0,36.85,3.726c21.2.93,56.175-2.456,56.525-2.492l.089.907C753.982,5184.609,726.894,5187.235,705.9,5187.235Z" transform="translate(-659.273 -4882.309)" fill="#666"/>
        <path id="Trazado_107407" data-name="Trazado 107407" d="M698.549,5169.433c-.019-.339-1.946-34.061-1.765-41.573l.91.021c-.18,7.476,1.744,41.161,1.763,41.5Z" transform="translate(-662.538 -4877.372)" fill="#666"/>
        <g id="Grupo_55763" data-name="Grupo 55763" transform="translate(23.737 128.907)">
          <path id="Trazado_107408" data-name="Trazado 107408" d="M785.666,5012l-27.633-4.748s-29.376-5.963-39.023-3.157-30.516,8.417-30.516,8.417l-2.806-9.169s26.834-11.876,49.371-8.018,49.37,7.366,49.37,7.366l2.116.234A11.657,11.657,0,0,1,785.666,5012Z" transform="translate(-685.273 -4994.222)" fill="#fff"/>
          <path id="Trazado_107409" data-name="Trazado 107409" d="M688.223,5012.894l-2.991-9.773.277-.122c.268-.12,27.188-11.875,49.565-8.042,22.272,3.813,49.089,7.328,49.356,7.362l2.318.257.073.2a11.884,11.884,0,0,1-.9,9.36l-.119.208-.236-.041-27.632-4.749c-.3-.06-29.416-5.916-38.87-3.164-9.539,2.775-30.315,8.364-30.523,8.421Zm-2.16-9.391,2.62,8.562c2.665-.719,21.308-5.747,30.192-8.332,9.616-2.795,37.982,2.905,39.185,3.151l27.385,4.705a11.434,11.434,0,0,0,.8-8.382l-1.9-.208c-.276-.037-27.1-3.555-49.391-7.37C714.01,4992.045,688.969,5002.271,686.062,5003.5Z" transform="translate(-685.232 -4994.189)" fill="#999"/>
        </g>
        <g id="Grupo_55764" data-name="Grupo 55764" transform="translate(123.231 137.61)">
          <path id="Trazado_107410" data-name="Trazado 107410" d="M795.725,5010.4l4.126-2.892,1.907.586s.808.271.808-.5l-1.577-3.185s-.767-1.364-1.39-.133l-.619,2.246-3.754,2.9-.608,1.042Z" transform="translate(-794.619 -5003.758)" fill="#666"/>
        </g>
        <g id="Grupo_55765" data-name="Grupo 55765" transform="translate(63.417 127.094)">
          <path id="Trazado_107411" data-name="Trazado 107411" d="M729.962,4998.838l4.126-2.892,1.907.586s.809.271.809-.5l-1.576-3.186s-.767-1.364-1.39-.133l-.62,2.247-3.754,2.9-.608,1.042Z" transform="translate(-728.857 -4992.196)" fill="#666"/>
        </g>
        <g id="Grupo_55766" data-name="Grupo 55766" transform="translate(21.11 134.867)">
          <path id="Trazado_107412" data-name="Trazado 107412" d="M689.185,5007.384l-4.126-2.892-1.907.586s-.809.271-.809-.5l1.576-3.185s.767-1.364,1.391-.133l.618,2.246,3.754,2.9.608,1.042Z" transform="translate(-682.343 -5000.742)" fill="#666"/>
        </g>
        <g id="Grupo_55767" data-name="Grupo 55767" transform="translate(0 200.394)" opacity="0.49">
          <path id="Trazado_107413" data-name="Trazado 107413" d="M665.082,5353.269s30.1,7.277,59.026,2.532,33.474-5.016,34.019-5.511-2.372-34.191-2.406-46.057-1.568-96.808-1.568-96.808.914-67.733-1.131-74.677-4.651-18.686-4.973-20.534-.882-17.257.707-20.421,3.044-13.762,3.044-13.762-14.434,2.215-19.808,2.215-8.65-.158-8.65-.158l4.8-3.164-9.206-.509-.269-2.022-11.721.633,2.469-1.74s-26.619.633-31.365,5.378-15.976,5.062-15.976,5.062,6.643,13.129,6.327,27.366-4.745,37.964-4.745,37.964a375.2,375.2,0,0,0-3.955,44.292c-.474,22.3,1.591,91.588,1.591,91.588Z" transform="translate(-659.179 -5072.83)" fill="#999"/>
          <path id="Trazado_107414" data-name="Trazado 107414" d="M703.1,5357.8a183.039,183.039,0,0,1-38.165-4.137.454.454,0,0,1-.347-.417l-3.788-68.335c-.021-.7-2.06-69.563-1.592-91.623a379.033,379.033,0,0,1,3.96-44.353c.046-.249,4.428-23.866,4.741-37.9.31-13.961-6.213-27.02-6.279-27.15a.454.454,0,0,1,.393-.66c.11,0,11.106-.367,15.668-4.929,4.819-4.819,30.581-5.485,31.675-5.511a.449.449,0,0,1,.442.311.455.455,0,0,1-.169.515l-1.176.83,10.141-.548a.432.432,0,0,1,.477.394l.219,1.649,8.828.489a.455.455,0,0,1,.226.834l-3.619,2.382c1.451.046,3.954.1,7.215.1,5.279,0,19.595-2.186,19.738-2.209a.456.456,0,0,1,.52.512c-.06.435-1.483,10.709-3.088,13.9-1.531,3.048-.994,18.259-.666,20.139.3,1.732,2.922,13.557,4.963,20.482s1.187,72.044,1.15,74.813c.015.834,1.535,85.066,1.569,96.8.017,6.326.87,19.063,1.554,29.3,1.08,16.157,1.045,16.788.7,17.1-.375.34-1.207.463-6.625,1.277-4.932.738-13.186,1.977-27.625,4.345A130.818,130.818,0,0,1,703.1,5357.8Zm-37.623-4.944c3.352.761,31.623,6.858,58.516,2.448,14.446-2.371,22.7-3.608,27.638-4.347,3.7-.556,5.563-.834,6.058-1.014.107-1.242-.386-8.615-.907-16.4-.685-10.246-1.538-23-1.555-29.354-.034-11.727-1.554-95.952-1.569-96.8.009-.691.89-67.756-1.112-74.557-2.089-7.093-4.671-18.781-4.986-20.584-.343-1.965-.893-17.433.748-20.7,1.323-2.631,2.579-10.734,2.914-13.017-2.828.424-14.487,2.128-19.271,2.128-5.324,0-8.64-.157-8.673-.159a.455.455,0,0,1-.228-.834l3.655-2.4-7.829-.434a.457.457,0,0,1-.427-.393l-.213-1.605-11.3.609a.44.44,0,0,1-.455-.3.454.454,0,0,1,.168-.521l1.222-.863c-5.69.222-25.614,1.272-29.535,5.194-4.185,4.185-13.032,5.01-15.593,5.163,1.3,2.8,6.354,14.52,6.078,26.954-.315,14.111-4.71,37.8-4.754,38.038a378.111,378.111,0,0,0-3.947,44.217c-.468,22.038,1.571,90.874,1.591,91.566Zm92.193-2.783Z" transform="translate(-659.134 -5072.784)" fill="#4d4d4d"/>
        </g>
        <path id="Trazado_107415" data-name="Trazado 107415" d="M711.059,5137.492a.451.451,0,0,1-.3-.111c-.129-.112-.187-.162-.114-.5l-.013,0c0-.012.026-.08.063-.2.067-.253.18-.619.348-1.156.072-.237.149-.5.236-.795,3.026-11.468-.142-57.542-.175-58.013a.456.456,0,0,1,.422-.486.447.447,0,0,1,.486.422c.116,1.656,2.394,34.809,1.107,51.551,3.355-12.363,8.856-35.18,8.315-49.965a.456.456,0,0,1,.438-.471.439.439,0,0,1,.471.438c.659,18.056-8.23,51.333-10.575,58.051-.168.545-.255.833-.27.891l-.06-.017a.862.862,0,0,1-.186.323A.455.455,0,0,1,711.059,5137.492Z" transform="translate(-663.79 -4872.702)" fill="#4d4d4d"/>
        <g id="Grupo_55768" data-name="Grupo 55768" transform="translate(70.74 208.382)">
          <path id="Trazado_107416" data-name="Trazado 107416" d="M737.409,5131.657s2.942-39.15,3.151-49.59" transform="translate(-736.954 -5081.612)" fill="#999"/>
          <path id="Trazado_107417" data-name="Trazado 107417" d="M737.365,5132.066h-.035a.455.455,0,0,1-.42-.488c.03-.391,2.943-39.258,3.15-49.565a.455.455,0,0,1,.455-.446h.008a.456.456,0,0,1,.447.464c-.207,10.333-3.123,49.223-3.152,49.615A.455.455,0,0,1,737.365,5132.066Z" transform="translate(-736.909 -5081.567)" fill="#4d4d4d"/>
        </g>
        <g id="Grupo_55769" data-name="Grupo 55769" transform="translate(7.433 227.838)">
          <path id="Trazado_107418" data-name="Trazado 107418" d="M684.4,5103.459s-12.551,16.433-16.592,26.249" transform="translate(-667.352 -5103.003)" fill="#999"/>
          <path id="Trazado_107419" data-name="Trazado 107419" d="M667.761,5130.118a.442.442,0,0,1-.173-.035.455.455,0,0,1-.247-.594c4.017-9.758,16.524-26.187,16.65-26.352a.455.455,0,0,1,.723.553c-.126.163-12.561,16.5-16.533,26.146A.453.453,0,0,1,667.761,5130.118Z" transform="translate(-667.306 -5102.958)" fill="#4d4d4d"/>
        </g>
        <g id="Grupo_55770" data-name="Grupo 55770" transform="translate(7.981 233.177)">
          <path id="Trazado_107420" data-name="Trazado 107420" d="M677.107,5109.327s-8.381,13.427-8.7,16.146" transform="translate(-667.954 -5108.873)" fill="#999"/>
          <path id="Trazado_107421" data-name="Trazado 107421" d="M668.365,5125.882l-.054,0a.456.456,0,0,1-.4-.5c.326-2.787,8.42-15.782,8.764-16.333a.454.454,0,1,1,.771.481c-2.316,3.71-8.382,13.811-8.632,15.956A.456.456,0,0,1,668.365,5125.882Z" transform="translate(-667.909 -5108.828)" fill="#4d4d4d"/>
        </g>
        <g id="Grupo_55771" data-name="Grupo 55771" transform="translate(41.327 219.741)">
          <path id="Trazado_107422" data-name="Trazado 107422" d="M709.518,5101.431l-1.469-4.819,1.15-1.632s.508-.685-.229-.924l-3.516.51s-1.534.306-.558,1.28l1.943,1.285,1.592,4.468.8.9Z" transform="translate(-704.57 -5094.056)" fill="#666"/>
        </g>
        <g id="Grupo_55772" data-name="Grupo 55772" transform="translate(58.321 220.41)">
          <path id="Trazado_107423" data-name="Trazado 107423" d="M728.2,5102.167l-1.469-4.818,1.15-1.632s.508-.685-.229-.925l-3.516.511s-1.534.305-.558,1.28l1.943,1.285,1.592,4.468.8.9Z" transform="translate(-723.254 -5094.791)" fill="#666"/>
        </g>
        <g id="Grupo_55773" data-name="Grupo 55773" transform="translate(89.463 219.525)">
          <path id="Trazado_107424" data-name="Trazado 107424" d="M757.493,5100.84l2.595-4.317-.718-1.862s-.327-.787.447-.842l3.287,1.35s1.414.669.229,1.378l-2.2.774-2.63,3.948-1,.678Z" transform="translate(-757.493 -5093.818)" fill="#666"/>
        </g>
        <path id="Trazado_107425" data-name="Trazado 107425" d="M761.4,4894c-14.624,0-28.189-8.634-28.331-8.725l.369-.574c.146.094,14.85,9.434,30.019,8.558l.041.68C762.795,4893.98,762.094,4894,761.4,4894Z" transform="translate(-665.821 -4855.38)" fill="#999"/>
        <g id="Grupo_55777" data-name="Grupo 55777" transform="translate(76.286)">
          <g id="Grupo_55774" data-name="Grupo 55774" transform="translate(0.902)">
            <path id="Trazado_107426" data-name="Trazado 107426" d="M758.114,4861.767c0-4.862-3.048-8.8-6.808-8.8s-6.808,3.941-6.808,8.8c0,3.8,1.867,7.031,4.479,8.262v8.417h5.144v-8.67C756.475,4868.39,758.114,4865.33,758.114,4861.767Z" transform="translate(-744.043 -4852.509)" fill="#fff"/>
            <path id="Trazado_107427" data-name="Trazado 107427" d="M754.53,4878.855h-6.054v-8.59c-2.69-1.423-4.478-4.812-4.478-8.543,0-5.1,3.258-9.258,7.263-9.258s7.263,4.153,7.263,9.258c0,3.49-1.56,6.7-3.994,8.263Zm-5.144-.91h4.235v-8.475l.224-.132c2.29-1.348,3.77-4.337,3.77-7.617,0-4.6-2.85-8.348-6.353-8.348s-6.353,3.746-6.353,8.348c0,3.506,1.695,6.661,4.217,7.851l.261.123Z" transform="translate(-743.998 -4852.464)" fill="#999"/>
          </g>
          <g id="Grupo_55775" data-name="Grupo 55775" transform="translate(0 10.626)">
            <rect id="Rectángulo_9844" data-name="Rectángulo 9844" width="15.967" height="2.574" rx="1.209" transform="translate(0.455 0.454)" fill="#fff"/>
            <path id="Trazado_107428" data-name="Trazado 107428" d="M758.328,4867.63H744.56a1.557,1.557,0,0,1-1.555-1.555v-.375a1.556,1.556,0,0,1,1.555-1.553h13.768a1.556,1.556,0,0,1,1.554,1.553v.375A1.557,1.557,0,0,1,758.328,4867.63Zm-13.768-2.573a.645.645,0,0,0-.645.644v.375a.646.646,0,0,0,.645.645h13.768a.645.645,0,0,0,.645-.645v-.375a.644.644,0,0,0-.645-.644Z" transform="translate(-743.006 -4864.147)" fill="#999"/>
          </g>
          <g id="Grupo_55776" data-name="Grupo 55776" transform="translate(0 5.713)">
            <rect id="Rectángulo_9845" data-name="Rectángulo 9845" width="15.967" height="2.574" rx="1.209" transform="translate(0.455 0.454)" fill="#fff"/>
            <path id="Trazado_107429" data-name="Trazado 107429" d="M758.328,4862.229H744.56a1.557,1.557,0,0,1-1.555-1.555v-.375a1.556,1.556,0,0,1,1.555-1.555h13.768a1.556,1.556,0,0,1,1.554,1.555v.375A1.557,1.557,0,0,1,758.328,4862.229Zm-13.768-2.574a.646.646,0,0,0-.645.645v.375a.647.647,0,0,0,.645.645h13.768a.646.646,0,0,0,.645-.645v-.375a.645.645,0,0,0-.645-.645Z" transform="translate(-743.006 -4858.745)" fill="#999"/>
          </g>
        </g>
      </g>
    </g>
    <g id="Grupo_55810" data-name="Grupo 55810" transform="translate(340.624 4928.397)">
      <ellipse id="Elipse_4329" data-name="Elipse 4329" cx="109.305" cy="129.236" rx="109.305" ry="129.236" transform="translate(0 0)" fill="#fff" stroke="#4d4d4d" stroke-miterlimit="10" stroke-width="1"/>
      <g id="Grupo_55809" data-name="Grupo 55809">
        <g id="Grupo_55808" data-name="Grupo 55808" clip-path="url(#clip-path)">
          <g id="Grupo_55807" data-name="Grupo 55807" transform="translate(46.089 -78.414)">
            <g id="Grupo_55780" data-name="Grupo 55780" transform="translate(1.769 21.47)">
              <path id="Trazado_107430" data-name="Trazado 107430" d="M516.633,4937.1a83.788,83.788,0,0,0-9.312-6.195s-11.233-4.86-15.462-7.695c0,0-4.109-1.988-4.282-10.979s.518-15.216,1.9-19.452l1.724-6.571s-5-7.78-18.968-9.6c0,0-9.4-.864-11.553,1.383,0,0-5.69,21.354-13.45,30.863,0,0-1.638,6.311-18.881,9.855L408,4923.121s-9.4,1.989-10.864,9.683c0,0-5.69,6.137-2.587,28.961l.862,4.668,22.967,110.811.613,2.1v5.875s-12.84,35.618-14.769,53.156c-1.223,11.116-.5,52.22.195,80.841-.039,14.68-.012,25.312-.012,25.312l.644.052v21.037s-1.912,13.92,16.754,20.09c0,0,17.242,12.338,45.24,2.213l36.7-9.49a24.072,24.072,0,0,0,10.756-20.723c-.435-14.016-.675-23.021-.677-23.086l-2.328-87.326s-1.624-18.115-4.209-31.372a57.481,57.481,0,0,0-1.933-10.211c-2.283-7.168-11.3-21.8-11.3-21.8s-1.332-3.864-.48-6.965l3.685-23.132,8.105-32.681,5.527-10.19s7.308-9.529,6.372-17.48l-2.69-9.354s-.226-7.961-.071-13.443c.037-1.177.094-2.226.176-3.031l3.333-11.987.049-.463.021-.073.629-5.915H518.7l.465-4.386S519.967,4939.864,516.633,4937.1Z" transform="translate(-393.275 -4876.104)" fill="#fff"/>
              <path id="Trazado_107431" data-name="Trazado 107431" d="M445.569,5292.195c-14.509,0-23.248-5.728-23.955-6.209-18.667-6.2-16.957-20.3-16.938-20.444l0-20.676-.643-.055v-.312c0-.106-.026-10.8.012-25.312-.749-30.884-1.39-69.994-.193-80.877,1.876-17.053,14.187-51.558,14.768-53.179v-5.766l-.6-2.058-22.973-110.837-.864-4.676c-2.946-21.667,1.935-28.374,2.606-29.178,1.547-7.752,11.014-9.841,11.108-9.862l20.348-4.408c16.754-3.444,18.608-9.549,18.624-9.61l.065-.128c7.625-9.342,13.329-30.521,13.385-30.735l.023-.083.061-.064c2.244-2.339,11.439-1.523,11.831-1.487,13.977,1.817,19.015,9.43,19.223,9.751l.08.126-1.762,6.715c-1.436,4.413-2.051,10.739-1.885,19.359s4.052,10.659,4.091,10.678c4.194,2.808,15.334,7.639,15.446,7.688a84.163,84.163,0,0,1,9.394,6.246c3.444,2.858,2.682,7.831,2.648,8.041l-1.146,10.815-3.344,12.045c-.065.679-.124,1.69-.164,2.95-.147,5.2.053,12.74.07,13.379l2.678,9.311c.951,8.05-6.128,17.389-6.43,17.782l-5.477,10.107-8.094,32.638-3.68,23.1c-.823,3,.454,6.763.467,6.8.059.079,9.03,14.68,11.3,21.806a57.365,57.365,0,0,1,1.947,10.275c2.553,13.1,4.192,31.2,4.209,31.381l2.33,87.347c.009.332.249,9.277.677,23.083.437,14.106-10.809,20.959-10.923,21.026l-.089.038-36.7,9.491A63.084,63.084,0,0,1,445.569,5292.195Zm-40.859-48.01.645.051v21.352c-.021.183-1.64,13.763,16.52,19.765l.091.047c.173.121,17.438,12.111,44.927,2.171l36.68-9.488c.723-.453,10.963-7.117,10.55-20.395-.428-13.808-.668-22.753-.677-23.078l-2.328-87.335c-.016-.159-1.651-18.228-4.2-31.317a56.975,56.975,0,0,0-1.925-10.172c-2.243-7.046-11.171-21.576-11.261-21.722-.087-.229-1.389-4.067-.519-7.234l3.677-23.095,8.141-32.791,5.527-10.191c.1-.139,7.242-9.558,6.334-17.277l-2.692-9.384c0-.079-.225-8.034-.071-13.461.041-1.276.1-2.3.178-3.057l3.344-12.045.069-.537,1.07-10.242c.011-.067.733-4.819-2.407-7.424a84.058,84.058,0,0,0-9.264-6.163c-.426-.182-11.276-4.888-15.482-7.708-.135-.061-4.259-2.16-4.433-11.256-.168-8.7.458-15.1,1.913-19.562l1.679-6.4c-.7-.979-5.956-7.675-18.642-9.324-2.526-.233-9.429-.459-11.2,1.222-.414,1.52-6.008,21.68-13.448,30.848-.253.779-2.684,6.649-19.121,10.028l-20.344,4.407c-.094.021-9.2,2.037-10.6,9.414l-.017.1-.065.072c-.056.061-5.536,6.36-2.5,28.684l.86,4.652,22.964,110.8.62,2.174-.02,5.991c-.128.355-12.848,35.781-14.751,53.078-1.193,10.845-.552,49.923.2,80.795C404.688,5232.314,404.706,5242.316,404.71,5244.185Z" transform="translate(-393.241 -4876.07)" fill="#999"/>
            </g>
            <path id="Trazado_107432" data-name="Trazado 107432" d="M526.735,4997.414l-5.5-15.622c-1.775-5.659-3.254-14.341-4.688-22.736-1.888-11.066-3.84-22.51-6.38-26.3l.567-.38c2.621,3.908,4.5,14.912,6.486,26.562,1.429,8.374,2.906,17.032,4.661,22.636l5.494,15.611Z" transform="translate(-402.047 -4859.692)" fill="#999"/>
            <path id="Trazado_107433" data-name="Trazado 107433" d="M461.787,5104.024c-.7,0-1.4,0-2.121-.012-27.394-.286-38.9-6.47-39.009-6.532l.33-.6c.111.062,11.492,6.164,38.686,6.447,24.074.239,35.5-3.836,35.614-3.876l.235.64C495.412,5100.135,484.54,5104.024,461.787,5104.024Z" transform="translate(-393.951 -4874.57)" fill="#999"/>
            <path id="Trazado_107434" data-name="Trazado 107434" d="M462.334,5113.272q-1.288,0-2.572-.048c-25.64-.981-37.814-6.9-37.934-6.964l.3-.611c.119.059,12.182,5.918,37.656,6.893,17.657.691,36.236-6.013,36.42-6.082l.235.641C496.266,5107.166,479.321,5113.272,462.334,5113.272Z" transform="translate(-394.057 -4875.363)" fill="#999"/>
            <path id="Trazado_107435" data-name="Trazado 107435" d="M468.272,5112.84l-2.634-2.633,2.054-2.817-2.58-2.8.5-.462,2.96,3.214-2.039,2.8,2.22,2.219Z" transform="translate(-397.972 -4875.226)" fill="#999"/>
            <path id="Trazado_107436" data-name="Trazado 107436" d="M472.454,5112.84l-2.632-2.633,2.053-2.817-2.58-2.8.5-.462,2.96,3.214-2.039,2.8,2.22,2.219Z" transform="translate(-398.35 -4875.226)" fill="#999"/>
            <path id="Trazado_107437" data-name="Trazado 107437" d="M476.721,5112.593l-2.455-2.559,1.913-2.736-2.4-2.721.512-.452,2.76,3.123-1.9,2.718,2.068,2.154Z" transform="translate(-398.756 -4875.225)" fill="#999"/>
            <path id="Trazado_107438" data-name="Trazado 107438" d="M480.977,5112.026l-2.464-2.418,1.906-2.567-2.375-2.534.5-.467,2.766,2.95-1.892,2.547,2.039,2Z" transform="translate(-399.142 -4875.218)" fill="#999"/>
            <path id="Trazado_107439" data-name="Trazado 107439" d="M484.785,5111.386l-2.463-2.419,1.905-2.567-2.375-2.533.5-.467,2.766,2.949-1.891,2.548,2.038,2Z" transform="translate(-399.486 -4875.16)" fill="#999"/>
            <path id="Trazado_107440" data-name="Trazado 107440" d="M445.872,5111.767l-2.377-2.8,2.313-2.5-2.29-2.937.538-.419,2.647,3.393-2.3,2.482,1.986,2.342Z" transform="translate(-396.017 -4875.134)" fill="#999"/>
            <path id="Trazado_107441" data-name="Trazado 107441" d="M450.034,5112.183l-2.377-2.8,2.314-2.5-2.29-2.937.538-.419,2.645,3.393-2.3,2.482,1.986,2.341Z" transform="translate(-396.393 -4875.171)" fill="#999"/>
            <path id="Trazado_107442" data-name="Trazado 107442" d="M454.516,5112.631l-2.376-2.8,2.314-2.5-2.291-2.937.538-.419,2.646,3.393-2.3,2.483,1.985,2.341Z" transform="translate(-396.799 -4875.211)" fill="#999"/>
            <path id="Trazado_107443" data-name="Trazado 107443" d="M432.862,5109.03l-2.377-2.8,2.314-2.5-2.29-2.937.538-.419,2.647,3.393-2.3,2.482,1.986,2.341Z" transform="translate(-394.84 -4874.886)" fill="#999"/>
            <path id="Trazado_107444" data-name="Trazado 107444" d="M428.789,5107.86l-2.377-2.8,2.313-2.5-2.29-2.937.538-.419,2.647,3.393-2.3,2.483,1.986,2.341Z" transform="translate(-394.472 -4874.78)" fill="#999"/>
            <path id="Trazado_107445" data-name="Trazado 107445" d="M425.427,5106.714l-2.376-2.8,2.313-2.5-2.29-2.937.538-.419,2.647,3.393-2.3,2.482,1.985,2.341Z" transform="translate(-394.168 -4874.677)" fill="#999"/>
            <path id="Trazado_107446" data-name="Trazado 107446" d="M437.024,5110.146l-2.376-2.8,2.313-2.5-2.29-2.937.538-.419,2.647,3.393-2.3,2.482,1.985,2.342Z" transform="translate(-395.217 -4874.987)" fill="#999"/>
            <path id="Trazado_107447" data-name="Trazado 107447" d="M441.507,5110.594l-2.377-2.8,2.314-2.5-2.29-2.937.538-.419,2.645,3.393-2.3,2.483,1.986,2.342Z" transform="translate(-395.622 -4875.027)" fill="#999"/>
            <path id="Trazado_107448" data-name="Trazado 107448" d="M458.758,5113.055l-2.377-2.8,2.314-2.5-2.29-2.937.538-.419,2.647,3.393-2.3,2.484,1.986,2.341Z" transform="translate(-397.182 -4875.25)" fill="#999"/>
            <path id="Trazado_107449" data-name="Trazado 107449" d="M462.91,5112.787l-2.377-2.8,2.314-2.5-2.29-2.937.538-.419,2.647,3.393-2.3,2.482,1.986,2.342Z" transform="translate(-397.558 -4875.226)" fill="#999"/>
            <path id="Trazado_107450" data-name="Trazado 107450" d="M492.591,5109.557l-2.638-2.062,1.987-2.128-2.4-2.039.441-.521,2.951,2.5-1.967,2.107,2.05,1.6Z" transform="translate(-400.181 -4875.106)" fill="#999"/>
            <path id="Trazado_107451" data-name="Trazado 107451" d="M496.381,5108.628l-2.638-2.062,1.987-2.128-2.4-2.039.441-.521,2.949,2.5-1.966,2.107,2.05,1.6Z" transform="translate(-400.524 -4875.022)" fill="#999"/>
            <path id="Trazado_107452" data-name="Trazado 107452" d="M500.252,5107.671l-2.638-2.061,1.987-2.13-2.4-2.037.441-.521,2.949,2.5-1.966,2.106,2.05,1.6Z" transform="translate(-400.874 -4874.936)" fill="#999"/>
            <path id="Trazado_107453" data-name="Trazado 107453" d="M488.259,5110.1l-2.513-2.109,1.9-2.191-2.321-2.113.46-.5,2.813,2.563-1.887,2.17,1.982,1.663Z" transform="translate(-399.801 -4875.14)" fill="#999"/>
            <path id="Trazado_107454" data-name="Trazado 107454" d="M422.461,5294.891c-.062-1.2-6.17-120.1-5.379-149.351a142.749,142.749,0,0,1,11.548-52.01v-4.69l-23.963-110.947.666-.144L429.3,5088.768l.008,4.915-.035.071a141.7,141.7,0,0,0-11.513,51.8c-.789,29.229,5.316,148.1,5.377,149.3Z" transform="translate(-392.505 -4863.795)" fill="#999"/>
            <g id="Grupo_55781" data-name="Grupo 55781" transform="translate(10.991 114.663)">
              <rect id="Rectángulo_9846" data-name="Rectángulo 9846" width="0.682" height="0.909" transform="translate(0 0.145) rotate(-12.298)" fill="#999"/>
              <path id="Trazado_107455" data-name="Trazado 107455" d="M421.039,5292.426l-.1-1.823.68-.036.1,1.821Zm-.193-3.645-.094-1.821.68-.036.094,1.821Zm-.189-3.642-.093-1.82.682-.035.092,1.819Zm-.184-3.64-.093-1.82.682-.035.091,1.819Zm-.185-3.64-.09-1.819.682-.035.09,1.819Zm-.179-3.639-.09-1.819.682-.035.09,1.819Zm-.178-3.637-.087-1.82.682-.033.087,1.818Zm-.176-3.639-.086-1.819.682-.033.086,1.819Zm-.171-3.638-.085-1.819.682-.033.086,1.819Zm-.17-3.638-.085-1.819.682-.033.085,1.819Zm-.167-3.638-.083-1.82.682-.031.083,1.818Zm-.166-3.637-.082-1.819.682-.031.082,1.819Zm-.162-3.638-.08-1.819.682-.031.08,1.819Zm-.16-3.639-.079-1.818.682-.031.079,1.82Zm-.156-3.638-.077-1.819.682-.029.077,1.819Zm-.155-3.638-.076-1.819.682-.029.076,1.819Zm-.15-3.639-.071-1.741.337-.092.341-.015-.341.015.344.064.072,1.741Zm-.149-3.638-.072-1.819.682-.028.072,1.819Zm-.144-3.637-.068-1.748.338-.085.341-.014-.341.014.344.058.068,1.749Zm-.141-3.639-.065-1.75.338-.083.341-.014-.341.014.344.056.065,1.752Zm-.137-3.64-.067-1.819.682-.026.067,1.819Zm-.134-3.638-.065-1.819.682-.024.065,1.818Zm-.129-3.646-.065-1.824.682-.022.065,1.823Zm-.127-3.646-.061-1.82.682-.022.061,1.82Zm-.121-3.639-.058-1.816.682-.021.058,1.816Zm-.116-3.631-.055-1.812.682-.022.055,1.813Zm-.111-3.632-.053-1.768.681-.073.054,1.819Zm-.106-3.641-.051-1.82.682-.021.051,1.82Zm-.1-3.64-.048-1.82.682-.018.048,1.82Zm-.095-3.64-.045-1.821.682-.016.045,1.819Zm-.088-3.642-.041-1.821.682-.015.041,1.819Zm-.08-3.64-.036-1.822.682-.013.036,1.82Zm-.071-3.643-.033-1.821.682-.013.033,1.821Zm-.062-3.64-.027-1.821.682-.011.027,1.821Zm-.052-3.643-.022-1.821.682-.008.022,1.82Zm-.041-3.644-.015-1.821.682,0,.015,1.821Zm-.027-3.643-.007-1.822h.682l.007,1.764-.341.058Zm.671-3.643h-.682l0-1.821.682,0Zm.008-3.636-.682,0,.012-1.821.682.005Zm.029-3.638-.682-.007q.011-.927.025-1.822l.682.011Q416.987,5149.559,416.977,5150.482Zm.059-3.635-.682-.015q.019-.927.042-1.821l.682.017Q417.054,5145.919,417.036,5146.847Zm.094-3.636-.682-.022c.021-.622.042-1.23.065-1.82l.682.026Q417.159,5142.279,417.129,5143.211Zm.146-3.63-.682-.032q.046-.944.1-1.822l.68.041Q417.32,5138.644,417.276,5139.582Zm.227-3.62-.68-.058q.075-.9.173-1.821l.679.073C417.61,5134.762,417.551,5135.364,417.5,5135.962Zm.38-3.609-.677-.085c.076-.6.158-1.206.246-1.811l.675.1C418.04,5131.157,417.96,5131.757,417.883,5132.353Zm.519-3.592-.673-.108q.145-.9.3-1.8l.671.119Q418.547,5127.866,418.4,5128.761Zm.633-3.581-.669-.127q.171-.9.354-1.792l.669.137Q419.207,5124.288,419.036,5125.18Zm.728-3.56-.667-.144q.192-.892.4-1.777l.664.152C420.024,5120.437,419.892,5121.029,419.763,5121.62Zm.81-3.537-.663-.158c.142-.6.287-1.187.434-1.774l.661.166Q420.787,5117.193,420.573,5118.083Zm.884-3.529-.66-.171q.232-.893.467-1.764l.659.177Q421.688,5113.665,421.457,5114.553Zm.947-3.511-.657-.183c.165-.594.332-1.18.5-1.757l.656.19Q422.652,5110.153,422.4,5111.042Zm1.008-3.495-.654-.193q.263-.9.527-1.748l.652.2Q423.676,5106.656,423.412,5107.548Zm1.063-3.481-.65-.2q.281-.9.553-1.739l.649.209Q424.757,5103.171,424.475,5104.067Zm1.117-3.463-.649-.214q.3-.914.58-1.731l.647.22C425.986,5099.421,425.792,5100,425.592,5100.6Zm1.17-3.448-.645-.224c.227-.651.432-1.228.61-1.724l.641.231C427.192,5095.933,426.987,5096.508,426.762,5097.155Zm1.233-3.428-.639-.239.108-.287v-1.394h.682l-.023,1.578Zm.151-3.74h-.682v-1.225l-.119-.508.666-.146.127.581Zm-1.191-3.511-.388-1.777.667-.145.388,1.777Zm-.777-3.554-.389-1.777.666-.146.389,1.777Zm-.778-3.555-.389-1.778.667-.146.389,1.778Zm-.778-3.556-.388-1.777.666-.146.388,1.777Zm-.778-3.554-.388-1.777.667-.146.388,1.777Zm-.777-3.556-.389-1.777.666-.146.389,1.777Zm-.778-3.554-.389-1.778.667-.146.389,1.778Zm-.778-3.556-.388-1.777.666-.146.388,1.777Zm-.778-3.555-.388-1.777.666-.146.389,1.777Zm-.777-3.554-.389-1.777.666-.147.389,1.777Zm-.779-3.557-.387-1.777.666-.146.388,1.777Zm-.777-3.555-.389-1.777.666-.146.389,1.777Zm-.778-3.554-.388-1.777.666-.146.389,1.777Zm-.778-3.555-.388-1.778.666-.146.388,1.778Zm-.778-3.555-.387-1.778.666-.146.388,1.778Zm-.777-3.556-.389-1.777.667-.146.388,1.777Zm-.778-3.555-.388-1.777.666-.146.389,1.777Zm-.778-3.555-.388-1.777.667-.146.388,1.777Zm-.778-3.555-.388-1.777.666-.145.389,1.777Zm-.777-3.554-.389-1.777.667-.146.388,1.778Zm-.779-3.556-.388-1.778.666-.146.388,1.778Zm-.777-3.555-.389-1.777.667-.146.388,1.777Zm-.778-3.555-.388-1.777.666-.146.389,1.777Zm-.778-3.555-.388-1.777.667-.145.387,1.777Zm-.778-3.554-.387-1.778.666-.146.388,1.779Zm-.777-3.556-.389-1.778.667-.145.388,1.777Zm-.778-3.556-.388-1.777.666-.146.389,1.777Zm-.778-3.554-.388-1.777.667-.146.387,1.777Zm-.777-3.556-.389-1.777.666-.145.389,1.777Zm-.778-3.554-.389-1.777.667-.146.388,1.778Z" transform="translate(-403.438 -4978.794)" fill="#999"/>
              <rect id="Rectángulo_9847" data-name="Rectángulo 9847" width="0.681" height="0.905" transform="matrix(0.999, -0.054, 0.054, 0.999, 17.689, 315.293)" fill="#999"/>
            </g>
            <g id="Grupo_55782" data-name="Grupo 55782" transform="translate(13.023 113.431)">
              <path id="Trazado_107456" data-name="Trazado 107456" d="M405.81,4978.21l-.2-.888.666-.147.2.888Z" transform="translate(-405.614 -4977.175)" fill="#999"/>
              <path id="Trazado_107457" data-name="Trazado 107457" d="M423.869,5292.657l-.1-1.814.68-.037.1,1.813Zm-.2-3.629-.1-1.814.68-.037.1,1.812Zm-.2-3.625-.1-1.812.68-.039.1,1.812Zm-.2-3.626-.1-1.81.68-.038.1,1.81Zm-.2-3.621-.1-1.81.68-.039.1,1.812Zm-.2-3.621-.1-1.811.68-.038.1,1.811Zm-.2-3.622-.1-1.812.68-.037.1,1.811Zm-.2-3.621-.1-1.811.68-.038.1,1.812Zm-.195-3.621-.1-1.811.68-.037.1,1.811Zm-.193-3.621-.1-1.811.68-.036.1,1.811Zm-.191-3.622-.095-1.81.682-.037.093,1.812Zm-.186-3.62L421.6,5251l.68-.036.093,1.811Zm-.186-3.62-.092-1.812.682-.034.091,1.81Zm-.184-3.625-.09-1.81.682-.034.09,1.81Zm-.179-3.619-.089-1.81.682-.034.089,1.81Zm-.176-3.621-.086-1.81.682-.034.086,1.812Zm-.174-3.621-.086-1.811.682-.032.086,1.811Zm-.17-3.621-.083-1.813.682-.03.083,1.81Zm-.166-3.624-.082-1.811.682-.03.082,1.811Zm-.162-3.621-.08-1.812.682-.031.08,1.812Zm-.159-3.624-.078-1.811.682-.028.078,1.809Zm-.155-3.62-.076-1.812.682-.029.076,1.811Zm-.152-3.628-.074-1.816.682-.027.071,1.744-.338.085Zm-.146-3.632-.071-1.812.682-.027.071,1.812Zm-.14-3.62-.068-1.809.682-.026.068,1.809Zm-.136-3.616-.066-1.8.682-.024.066,1.8Zm-.13-3.614-.063-1.813.682-.023.06,1.747-.338.076Zm-.125-3.625-.059-1.812.682-.021.059,1.811Zm-.118-3.624-.055-1.812.682-.022.056,1.813Zm-.11-3.625-.052-1.813.682-.019.052,1.812Zm-.1-3.625-.048-1.812.682-.017.048,1.812Zm-.094-3.624-.043-1.749.68-.08.045,1.811Zm-.085-3.625-.039-1.814.682-.014.039,1.813Zm-.076-3.625-.033-1.813.682-.013.033,1.814Zm-.063-3.626-.026-1.813.682-.009.026,1.812Zm-.05-3.626-.019-1.814.682,0,.019,1.812Zm-.034-3.627-.012-1.813.682,0,.012,1.812Zm-.018-3.627v-1.814h.682v1.812Zm.687-3.622-.682,0,.011-1.813.682,0Zm.029-3.622-.682-.009.027-1.812.682.011Zm.062-3.621-.682-.017q.02-.924.045-1.812l.682.02Q419.2,5146.816,419.182,5147.739Zm.1-3.616-.682-.025q.033-.93.072-1.812l.682.03Q419.32,5143.194,419.286,5144.123Zm.16-3.613-.68-.037q.052-.939.11-1.813l.68.047Q419.5,5139.576,419.446,5140.51Zm.248-3.6-.68-.059c.053-.6.107-1.18.166-1.721l.01-.094.677.082-.008.08C419.8,5135.736,419.746,5136.306,419.695,5136.906Zm.377-3.593-.677-.08q.106-.913.217-1.8l.677.085Q420.179,5132.4,420.072,5133.313Zm.45-3.588-.677-.093q.126-.913.25-1.8l.676.1Q420.645,5128.815,420.522,5129.726Zm.515-3.58-.676-.1c.095-.609.188-1.206.285-1.792l.673.111Q421.176,5125.237,421.037,5126.146Zm.583-3.567-.671-.117c.105-.606.213-1.2.321-1.786l.672.125Q421.78,5121.671,421.62,5122.578Zm.663-3.554-.67-.133c.122-.607.244-1.2.367-1.777l.668.142Q422.463,5118.12,422.283,5119.024Zm.75-3.532-.665-.151q.207-.909.417-1.768l.662.162C423.31,5114.3,423.171,5114.89,423.034,5115.493Zm.853-3.506-.659-.174q.237-.9.473-1.753l.658.183Q424.123,5111.084,423.887,5111.986Zm.975-3.477-.654-.2q.273-.9.544-1.734l.648.211Q425.132,5107.614,424.862,5108.51Zm1.118-3.426-.643-.226q.318-.9.63-1.708l.636.245Q426.3,5104.192,425.98,5105.084Zm1.3-3.355-.627-.267q.385-.905.745-1.664l.617.291Q427.656,5100.837,427.276,5101.729Zm1.541-3.241-.6-.323c.308-.573.618-1.107.92-1.584l.578.363C429.42,5097.41,429.118,5097.928,428.817,5098.487Zm1.964-3.007-.325-.24H430.2v-1.732h.682v1.871Zm.1-3.784H430.2v-1.812h.682Zm-.9-3.524-.388-1.77.666-.146.388,1.769Zm-.778-3.539-.388-1.769.666-.146.389,1.77Zm-.778-3.539-.389-1.769.666-.146.389,1.77Zm-.778-3.538-.388-1.77.666-.146.389,1.769Zm-.778-3.539-.389-1.769.667-.146.388,1.769Zm-.779-3.539-.387-1.769.666-.146.388,1.77Zm-.777-3.537-.389-1.771.667-.145.388,1.77Zm-.779-3.539-.388-1.77.666-.146.389,1.769Zm-.777-3.54-.389-1.769.667-.146.388,1.769Zm-.779-3.538-.388-1.769.666-.146.389,1.77Zm-.778-3.539-.388-1.77.667-.146.387,1.769Zm-.778-3.539-.388-1.77.666-.146.389,1.769Zm-.778-3.539-.388-1.769.667-.146.387,1.769Zm-.777-3.539-.389-1.769.666-.146.389,1.77Zm-.779-3.538-.389-1.771.667-.145.388,1.77Zm-.777-3.539-.389-1.769.666-.146.389,1.769Zm-.779-3.54-.389-1.769.667-.146.388,1.769Zm-.778-3.538-.388-1.769.666-.146.388,1.771Zm-.778-3.539-.389-1.77.667-.145.389,1.769Zm-.778-3.539-.389-1.77.666-.146.389,1.769Zm-.778-3.538-.389-1.769.667-.146.389,1.77Zm-.778-3.539-.389-1.769.666-.146.389,1.77Zm-.779-3.538-.388-1.77.667-.146.388,1.77Zm-.777-3.539-.389-1.769.666-.146.389,1.769Zm-.779-3.539-.388-1.769.667-.146.388,1.769Zm-.777-3.539-.389-1.77.666-.146.389,1.771Zm-.779-3.539-.388-1.77.666-.145.389,1.769Zm-.777-3.538-.389-1.77.666-.146.389,1.769Zm-.779-3.539-.388-1.769.666-.146.389,1.771Zm-.778-3.539-.388-1.769.667-.146.387,1.769Zm-.778-3.538-.388-1.77.666-.146.389,1.77Z" transform="translate(-405.672 -4977.438)" fill="#999"/>
              <path id="Trazado_107458" data-name="Trazado 107458" d="M426.336,5326.769l-.246-.234-.337-.036c0-.072-.009-.362-.033-.854l.682-.032C426.449,5326.65,426.449,5326.65,426.336,5326.769Z" transform="translate(-407.432 -5008.688)" fill="#999"/>
            </g>
            <path id="Trazado_107459" data-name="Trazado 107459" d="M496.217,5283.77a.454.454,0,0,1-.455-.453c0-.522-.214-52.765-.791-100.783-.047-3.954-.088-7.882-.126-11.758-.324-31.729-.6-59.13-4.483-67.309-6.751-14.231-2.579-51.61.183-76.347.284-2.547.552-4.953.791-7.173.3-2.8.617-5.278.922-7.676,1.051-8.243,1.881-14.755.868-25.622-1.271-13.626-8.062-53.266-8.352-54.95-.232-.571-1.739-4.91-.011-17.9,1.807-13.595,2.416-19.97,2.421-20.034a.468.468,0,0,1,.5-.41.456.456,0,0,1,.41.5c-.006.063-.616,6.455-2.425,20.068-1.779,13.376-.055,17.429-.037,17.468a.523.523,0,0,1,.035.111c.07.41,7.075,41.184,8.37,55.071,1.022,10.966.186,17.522-.871,25.822-.3,2.393-.62,4.867-.92,7.657-.238,2.221-.507,4.628-.791,7.178-2.75,24.633-6.905,61.858-.265,75.856,3.965,8.359,4.245,35.853,4.57,67.689.038,3.875.078,7.8.126,11.756.578,48.021.789,100.268.791,100.79a.454.454,0,0,1-.453.457Z" transform="translate(-399.675 -4856.162)" fill="#4d4d4d"/>
            <path id="Trazado_107460" data-name="Trazado 107460" d="M466.237,5293.776h0a.455.455,0,0,1-.452-.458c.005-1.364.668-136.559,1.062-144.311.39-7.7-2.2-28.186-2.227-28.393l-3.149-19.679-1.658-32.556c0-.414-.312-39.621.117-49.941.121-2.891.373-6.029.618-9.064.64-7.959,1.3-16.189-.279-21.1-2.188-6.8-15.346-34.2-15.478-34.475l-3.974-10.958c-.04-.114-3.9-10.994-8.675-14.663l-4.935-3.8a.455.455,0,0,1,.554-.721l4.936,3.8c4.985,3.834,8.816,14.621,8.977,15.078l3.953,10.911c.526,1.087,13.3,27.69,15.507,34.548,1.637,5.084.969,13.406.321,21.454-.244,3.026-.5,6.156-.615,9.028-.429,10.3-.122,49.483-.118,49.877l1.654,32.488,3.146,19.645c.028.221,2.629,20.787,2.234,28.568-.393,7.73-1.055,142.9-1.061,144.268A.454.454,0,0,1,466.237,5293.776Z" transform="translate(-394.527 -4858.895)" fill="#4d4d4d"/>
            <path id="Trazado_107461" data-name="Trazado 107461" d="M476.49,5382.176l-11.637,2.441v-53.334l11.637-3.367Z" transform="translate(-397.949 -4895.466)" fill="#404040"/>
            <path id="Trazado_107462" data-name="Trazado 107462" d="M476.49,5402.557v-6.884l-11.637,3.367v3.517Z" transform="translate(-397.949 -4901.594)" fill="#404040"/>
            <rect id="Rectángulo_9848" data-name="Rectángulo 9848" width="0.91" height="78.993" transform="translate(16.931 422.853) rotate(-8.249)" fill="#404040"/>
            <rect id="Rectángulo_9849" data-name="Rectángulo 9849" width="0.91" height="71.578" transform="matrix(0.99, -0.142, 0.142, 0.99, 25.843, 430.175)" fill="#404040"/>
            <rect id="Rectángulo_9850" data-name="Rectángulo 9850" width="0.909" height="69.15" transform="translate(32.185 432.511) rotate(-7.784)" fill="#404040"/>
            <rect id="Rectángulo_9851" data-name="Rectángulo 9851" width="0.91" height="64.078" transform="matrix(0.994, -0.111, 0.111, 0.994, 42.973, 437.332)" fill="#404040"/>
            <rect id="Rectángulo_9852" data-name="Rectángulo 9852" width="0.909" height="63.915" transform="translate(52.937 437.32) rotate(-4.898)" fill="#404040"/>
            <rect id="Rectángulo_9853" data-name="Rectángulo 9853" width="0.91" height="63.711" transform="translate(59.105 437.296) rotate(-1.75)" fill="#404040"/>
            <rect id="Rectángulo_9854" data-name="Rectángulo 9854" width="0.91" height="68.517" transform="matrix(1, -0.01, 0.01, 1, 81.409, 432.455)" fill="#404040"/>
            <rect id="Rectángulo_9855" data-name="Rectángulo 9855" width="0.91" height="70.852" transform="translate(90.899 430.111)" fill="#404040"/>
            <rect id="Rectángulo_9856" data-name="Rectángulo 9856" width="74.187" height="0.91" transform="matrix(0.023, -1, 1, 0.023, 98.479, 500.952)" fill="#404040"/>
            <rect id="Rectángulo_9857" data-name="Rectángulo 9857" width="76.282" height="0.91" transform="matrix(0.043, -0.999, 0.999, 0.043, 104.871, 500.942)" fill="#404040"/>
            <rect id="Rectángulo_9858" data-name="Rectángulo 9858" width="77.279" height="0.909" transform="translate(110.616 500.939) rotate(-86.864)" fill="#404040"/>
            <rect id="Rectángulo_9859" data-name="Rectángulo 9859" width="87.535" height="0.91" transform="matrix(0.064, -0.998, 0.998, 0.064, 114.847, 500.932)" fill="#404040"/>
            <path id="Trazado_107463" data-name="Trazado 107463" d="M442.686,5391.5c-8.225,0-16.495-1.092-20.794-4.821-2.429-2.106-3.391-4.25-2.861-6.37,1.564-6.254,15.65-9.728,15.791-9.76,2.926-.668,30.847-6.986,30.847-6.986l.038-.008,7.276-1c1.227-.19,30.3-4.615,36.486,3.335,1.587,2.039,2.191,3.942,1.8,5.658-.692,3.01-4.186,4.731-6.735,5.988a12.423,12.423,0,0,0-2.085,1.161c-2.077,1.757-33.04,9.711-36.564,10.613A142.281,142.281,0,0,1,442.686,5391.5Zm23.165-27.046c-.82.186-27.944,6.324-30.826,6.981s-13.866,4.121-15.111,9.095c-.44,1.762.426,3.6,2.574,5.461,9.844,8.538,42.866,2.492,43.2,2.429,13.727-3.512,34.72-9.192,36.171-10.419a12.59,12.59,0,0,1,2.271-1.284c2.387-1.176,5.656-2.786,6.25-5.375.33-1.437-.217-3.083-1.627-4.9-5.857-7.53-35.34-3.04-35.635-2.994Z" transform="translate(-393.792 -4898.473)" fill="#404040"/>
            <g id="Grupo_55783" data-name="Grupo 55783" transform="translate(94.974 411.12)">
              <path id="Trazado_107464" data-name="Trazado 107464" d="M496.819,5311.107l4.126-2.892,1.907.586s.809.27.809-.5l-1.576-3.185s-.767-1.365-1.391-.133l-.618,2.246-3.754,2.9-.608,1.042Z" transform="translate(-495.714 -5304.465)" fill="#666"/>
            </g>
            <g id="Grupo_55784" data-name="Grupo 55784" transform="translate(94.974 356.388)">
              <path id="Trazado_107465" data-name="Trazado 107465" d="M496.819,5250.933l4.126-2.891,1.907.586s.809.27.809-.5l-1.576-3.184s-.767-1.365-1.391-.133l-.618,2.246-3.754,2.9-.608,1.042Z" transform="translate(-495.714 -5244.291)" fill="#666"/>
            </g>
            <g id="Grupo_55785" data-name="Grupo 55785" transform="translate(94.974 291.175)">
              <path id="Trazado_107466" data-name="Trazado 107466" d="M496.819,5179.235l4.126-2.891,1.907.586s.809.271.809-.5l-1.576-3.185s-.767-1.364-1.391-.133l-.618,2.246-3.754,2.9-.608,1.042Z" transform="translate(-495.714 -5172.593)" fill="#666"/>
            </g>
            <g id="Grupo_55786" data-name="Grupo 55786" transform="translate(59.761 296.694)">
              <path id="Trazado_107467" data-name="Trazado 107467" d="M458.065,5186.128l3.4-3.721,1.989.158s.849.087.68-.669l-2.232-2.766s-1.045-1.164-1.386.174l-.115,2.326-3.032,3.648-.367,1.149Z" transform="translate(-456.999 -5178.661)" fill="#666"/>
            </g>
            <g id="Grupo_55787" data-name="Grupo 55787" transform="translate(27.41 297.226)">
              <path id="Trazado_107468" data-name="Trazado 107468" d="M422.537,5185.887l4.126-2.891,1.907.587s.81.27.809-.505l-1.576-3.185s-.767-1.363-1.391-.132l-.619,2.246-3.754,2.9-.608,1.041Z" transform="translate(-421.432 -5179.246)" fill="#666"/>
            </g>
            <g id="Grupo_55788" data-name="Grupo 55788" transform="translate(29.371 348.27)">
              <path id="Trazado_107469" data-name="Trazado 107469" d="M424.693,5242.006l4.126-2.892,1.907.587s.809.271.809-.5l-1.576-3.184s-.767-1.364-1.391-.133l-.618,2.246-3.754,2.9-.608,1.042Z" transform="translate(-423.588 -5235.365)" fill="#666"/>
            </g>
            <g id="Grupo_55789" data-name="Grupo 55789" transform="translate(29.942 416.328)">
              <path id="Trazado_107470" data-name="Trazado 107470" d="M425.32,5316.833l4.126-2.892,1.907.587s.809.27.809-.505l-1.576-3.185s-.767-1.363-1.391-.132l-.619,2.246-3.753,2.9-.608,1.042Z" transform="translate(-424.215 -5310.19)" fill="#666"/>
            </g>
            <path id="Trazado_107471" data-name="Trazado 107471" d="M442.443,5194.8l-.872-.256c1.912-6.5,14.047-21.841,14.564-22.49l.712.564C456.721,5172.777,444.306,5188.466,442.443,5194.8Z" transform="translate(-395.843 -4881.369)" fill="#666"/>
            <path id="Trazado_107472" data-name="Trazado 107472" d="M434.466,5193.637c-.62-8.686,5.143-17.28,5.387-17.641l.753.511c-.058.085-5.831,8.7-5.233,17.065Z" transform="translate(-395.196 -4881.726)" fill="#666"/>
            <path id="Trazado_107473" data-name="Trazado 107473" d="M485.069,5198.071c-1.331-8.587,4.329-19.849,4.571-20.324l.81.413c-.058.113-5.768,11.477-4.483,19.773Z" transform="translate(-399.759 -4881.884)" fill="#666"/>
            <path id="Trazado_107474" data-name="Trazado 107474" d="M438.065,5187.235c-2.9,0-5.685-.049-8.267-.163a309.891,309.891,0,0,1-36.97-3.74l.162-.895a309.73,309.73,0,0,0,36.849,3.726c21.182.93,56.174-2.457,56.525-2.492l.088.907C486.144,5184.609,459.055,5187.235,438.065,5187.235Z" transform="translate(-391.435 -4882.309)" fill="#666"/>
            <path id="Trazado_107475" data-name="Trazado 107475" d="M430.71,5169.433c-.019-.339-1.945-34.061-1.765-41.573l.91.021c-.179,7.476,1.744,41.161,1.764,41.5Z" transform="translate(-394.7 -4877.372)" fill="#666"/>
            <g id="Grupo_55790" data-name="Grupo 55790" transform="translate(23.737 128.907)">
              <path id="Trazado_107476" data-name="Trazado 107476" d="M517.828,5012l-27.633-4.748s-29.377-5.963-39.023-3.157-30.517,8.417-30.517,8.417l-2.806-9.169s26.834-11.876,49.37-8.018,49.371,7.366,49.371,7.366l2.116.234A11.657,11.657,0,0,1,517.828,5012Z" transform="translate(-417.434 -4994.222)" fill="#fff"/>
              <path id="Trazado_107477" data-name="Trazado 107477" d="M420.385,5012.894l-2.992-9.773.277-.122c.269-.12,27.193-11.875,49.565-8.042,22.272,3.812,49.09,7.328,49.358,7.362l2.318.257.073.2a11.887,11.887,0,0,1-.9,9.36l-.118.208-.236-.041-27.634-4.749c-.3-.059-29.412-5.917-38.869-3.164-9.539,2.775-30.315,8.364-30.523,8.421Zm-2.161-9.391,2.621,8.562c2.665-.719,21.307-5.747,30.192-8.332,9.615-2.794,37.981,2.906,39.185,3.151l27.385,4.705a11.4,11.4,0,0,0,.8-8.382l-1.9-.208c-.276-.037-27.106-3.555-49.392-7.37C446.17,4992.045,421.131,5002.271,418.223,5003.5Z" transform="translate(-417.393 -4994.189)" fill="#999"/>
            </g>
            <g id="Grupo_55791" data-name="Grupo 55791" transform="translate(123.231 137.61)">
              <path id="Trazado_107478" data-name="Trazado 107478" d="M527.886,5010.4l4.126-2.892,1.907.586s.809.271.809-.5l-1.576-3.185s-.767-1.364-1.391-.133l-.618,2.246-3.754,2.9-.608,1.042Z" transform="translate(-526.781 -5003.758)" fill="#666"/>
            </g>
            <g id="Grupo_55792" data-name="Grupo 55792" transform="translate(63.417 127.094)">
              <path id="Trazado_107479" data-name="Trazado 107479" d="M462.124,4998.838l4.126-2.892,1.907.586s.809.271.809-.5l-1.576-3.186s-.767-1.364-1.391-.133l-.618,2.247-3.754,2.9-.608,1.042Z" transform="translate(-461.019 -4992.196)" fill="#666"/>
            </g>
            <g id="Grupo_55793" data-name="Grupo 55793" transform="translate(21.11 134.867)">
              <path id="Trazado_107480" data-name="Trazado 107480" d="M421.347,5007.384l-4.126-2.892-1.907.586s-.81.271-.809-.5l1.576-3.185s.767-1.364,1.39-.133l.619,2.246,3.754,2.9.608,1.042Z" transform="translate(-414.505 -5000.742)" fill="#666"/>
            </g>
            <g id="Grupo_55794" data-name="Grupo 55794" transform="translate(0 200.394)" opacity="0.49">
              <path id="Trazado_107481" data-name="Trazado 107481" d="M397.244,5353.269s30.1,7.277,59.026,2.532,33.474-5.016,34.018-5.511-2.372-34.191-2.4-46.057-1.568-96.808-1.568-96.808.914-67.733-1.132-74.677-4.651-18.686-4.974-20.534-.881-17.257.707-20.421,3.044-13.762,3.044-13.762-14.433,2.215-19.808,2.215-8.65-.158-8.65-.158l4.8-3.164-9.2-.509-.269-2.022-11.721.633,2.468-1.74s-26.619.633-31.364,5.378-15.976,5.062-15.976,5.062,6.643,13.129,6.327,27.366-4.745,37.964-4.745,37.964a375.2,375.2,0,0,0-3.955,44.292c-.475,22.3,1.591,91.588,1.591,91.588Z" transform="translate(-391.341 -5072.83)" fill="#999"/>
              <path id="Trazado_107482" data-name="Trazado 107482" d="M435.258,5357.8a183.04,183.04,0,0,1-38.165-4.137.454.454,0,0,1-.347-.417l-3.787-68.335c-.022-.7-2.061-69.563-1.592-91.623a378.889,378.889,0,0,1,3.959-44.353c.046-.249,4.43-23.866,4.741-37.9.31-13.961-6.213-27.02-6.279-27.15a.455.455,0,0,1,.394-.66c.11,0,11.106-.367,15.667-4.929,4.82-4.819,30.581-5.485,31.675-5.511a.473.473,0,0,1,.443.311.455.455,0,0,1-.17.515l-1.176.83,10.142-.548a.436.436,0,0,1,.476.394l.219,1.649,8.828.489a.455.455,0,0,1,.226.834l-3.617,2.382c1.451.046,3.952.1,7.213.1,5.279,0,19.595-2.186,19.739-2.209a.456.456,0,0,1,.519.512c-.06.435-1.483,10.709-3.088,13.9-1.532,3.051-.993,18.26-.665,20.139.3,1.728,2.917,13.54,4.962,20.482s1.188,72.044,1.151,74.813c.015.834,1.535,85.066,1.568,96.8.018,6.326.87,19.064,1.554,29.3,1.081,16.154,1.046,16.785.7,17.1-.375.34-1.207.463-6.623,1.276-4.933.739-13.188,1.978-27.628,4.346A130.826,130.826,0,0,1,435.258,5357.8Zm-37.624-4.944c3.352.761,31.623,6.858,58.516,2.448,14.447-2.371,22.706-3.609,27.641-4.347,3.7-.556,5.561-.834,6.056-1.014.107-1.242-.387-8.614-.907-16.4-.686-10.248-1.538-23-1.556-29.357-.033-11.727-1.553-95.951-1.568-96.8.008-.691.89-67.756-1.113-74.557-2.095-7.11-4.671-18.787-4.984-20.584-.344-1.963-.9-17.428.747-20.7,1.323-2.631,2.579-10.734,2.913-13.017-2.827.424-14.486,2.128-19.271,2.128-5.324,0-8.639-.157-8.672-.159a.455.455,0,0,1-.228-.834l3.654-2.4-7.829-.434a.455.455,0,0,1-.426-.393l-.214-1.605-11.3.609a.446.446,0,0,1-.455-.3.453.453,0,0,1,.167-.521l1.223-.863c-5.691.222-25.613,1.272-29.536,5.194-4.184,4.185-13.032,5.01-15.592,5.163,1.3,2.8,6.353,14.52,6.077,26.954-.313,14.111-4.709,37.8-4.753,38.038a377.868,377.868,0,0,0-3.947,44.217c-.469,22.038,1.57,90.874,1.591,91.566Zm92.2-2.783Z" transform="translate(-391.296 -5072.784)" fill="#4d4d4d"/>
            </g>
            <path id="Trazado_107483" data-name="Trazado 107483" d="M443.22,5137.492a.451.451,0,0,1-.3-.111c-.128-.112-.187-.162-.114-.5l-.012,0c0-.012.025-.08.062-.2.067-.253.18-.619.349-1.156q.106-.355.236-.795c3.026-11.468-.143-57.542-.176-58.013a.457.457,0,0,1,.422-.486.442.442,0,0,1,.486.422c.116,1.656,2.394,34.809,1.107,51.551,3.355-12.363,8.856-35.18,8.316-49.965a.456.456,0,0,1,.438-.471h.017a.455.455,0,0,1,.455.438c.659,18.056-8.23,51.333-10.575,58.051-.169.545-.256.833-.27.891l-.061-.017a.851.851,0,0,1-.186.323A.453.453,0,0,1,443.22,5137.492Z" transform="translate(-395.952 -4872.702)" fill="#4d4d4d"/>
            <g id="Grupo_55795" data-name="Grupo 55795" transform="translate(70.74 208.382)">
              <path id="Trazado_107484" data-name="Trazado 107484" d="M469.57,5131.657s2.941-39.15,3.151-49.59" transform="translate(-469.115 -5081.612)" fill="#999"/>
              <path id="Trazado_107485" data-name="Trazado 107485" d="M469.526,5132.066h-.035a.456.456,0,0,1-.42-.488c.03-.391,2.943-39.258,3.15-49.565a.456.456,0,0,1,.455-.446h.009a.455.455,0,0,1,.446.464c-.207,10.333-3.122,49.223-3.152,49.615A.455.455,0,0,1,469.526,5132.066Z" transform="translate(-469.07 -5081.567)" fill="#4d4d4d"/>
            </g>
            <g id="Grupo_55796" data-name="Grupo 55796" transform="translate(7.433 227.838)">
              <path id="Trazado_107486" data-name="Trazado 107486" d="M416.559,5103.459s-12.55,16.433-16.591,26.249" transform="translate(-399.513 -5103.003)" fill="#999"/>
              <path id="Trazado_107487" data-name="Trazado 107487" d="M399.923,5130.118a.447.447,0,0,1-.174-.035.454.454,0,0,1-.246-.594c4.017-9.758,16.525-26.187,16.65-26.352a.455.455,0,0,1,.723.553c-.125.163-12.56,16.5-16.534,26.146A.452.452,0,0,1,399.923,5130.118Z" transform="translate(-399.468 -5102.958)" fill="#4d4d4d"/>
            </g>
            <g id="Grupo_55797" data-name="Grupo 55797" transform="translate(7.98 233.177)">
              <path id="Trazado_107488" data-name="Trazado 107488" d="M409.269,5109.327s-8.382,13.427-8.7,16.146" transform="translate(-400.115 -5108.873)" fill="#999"/>
              <path id="Trazado_107489" data-name="Trazado 107489" d="M400.526,5125.882l-.054,0a.457.457,0,0,1-.4-.5c.327-2.788,8.421-15.782,8.765-16.333a.454.454,0,1,1,.77.481c-2.315,3.71-8.381,13.811-8.632,15.956A.456.456,0,0,1,400.526,5125.882Z" transform="translate(-400.07 -5108.828)" fill="#4d4d4d"/>
            </g>
            <g id="Grupo_55798" data-name="Grupo 55798" transform="translate(41.327 219.741)">
              <path id="Trazado_107490" data-name="Trazado 107490" d="M436.732,5101.431l1.468-4.819-1.149-1.632s-.508-.685.228-.924l3.516.51s1.535.306.558,1.28l-1.943,1.285-1.592,4.468-.8.9Z" transform="translate(-436.732 -5094.056)" fill="#666"/>
            </g>
            <g id="Grupo_55799" data-name="Grupo 55799" transform="translate(36.957 218.026)">
              <path id="Trazado_107491" data-name="Trazado 107491" d="M431.928,5099.545l1.469-4.82-1.15-1.63s-.508-.685.229-.925l3.516.509s1.535.307.558,1.282l-1.943,1.285-1.592,4.468-.8.9Z" transform="translate(-431.928 -5092.17)" fill="#666"/>
            </g>
            <g id="Grupo_55800" data-name="Grupo 55800" transform="translate(58.32 220.41)">
              <path id="Trazado_107492" data-name="Trazado 107492" d="M460.363,5102.167l-1.468-4.818,1.149-1.632s.508-.685-.228-.925l-3.516.511s-1.535.305-.558,1.28l1.944,1.285,1.592,4.468.8.9Z" transform="translate(-455.415 -5094.791)" fill="#666"/>
            </g>
            <g id="Grupo_55801" data-name="Grupo 55801" transform="translate(89.462 219.525)">
              <path id="Trazado_107493" data-name="Trazado 107493" d="M489.654,5100.84l2.6-4.317-.719-1.862s-.327-.787.447-.842l3.288,1.35s1.414.669.229,1.378l-2.2.774-2.63,3.948-1,.678Z" transform="translate(-489.654 -5093.818)" fill="#666"/>
            </g>
            <g id="Grupo_55802" data-name="Grupo 55802" transform="translate(88.084 235.078)">
              <path id="Trazado_107494" data-name="Trazado 107494" d="M488.139,5112.025l2.6,4.318-.719,1.862s-.327.788.447.842l3.288-1.35s1.414-.67.229-1.378l-2.2-.775-2.63-3.947-1-.679Z" transform="translate(-488.139 -5110.918)" fill="#666"/>
            </g>
            <path id="Trazado_107495" data-name="Trazado 107495" d="M493.559,4894c-14.624,0-28.189-8.634-28.332-8.725l.37-.574c.147.094,14.839,9.434,30.018,8.558l.041.68C494.956,4893.98,494.255,4894,493.559,4894Z" transform="translate(-397.983 -4855.38)" fill="#999"/>
            <g id="Grupo_55806" data-name="Grupo 55806" transform="translate(76.286)">
              <g id="Grupo_55803" data-name="Grupo 55803" transform="translate(0.901)">
                <path id="Trazado_107496" data-name="Trazado 107496" d="M490.276,4861.767c0-4.862-3.048-8.8-6.808-8.8s-6.809,3.941-6.809,8.8c0,3.8,1.868,7.031,4.479,8.262v8.417h5.144v-8.67C488.636,4868.39,490.276,4865.33,490.276,4861.767Z" transform="translate(-476.204 -4852.509)" fill="#fff"/>
                <path id="Trazado_107497" data-name="Trazado 107497" d="M486.692,4878.855h-6.054v-8.59c-2.69-1.423-4.479-4.812-4.479-8.543,0-5.1,3.258-9.258,7.263-9.258s7.264,4.153,7.264,9.258c0,3.489-1.56,6.7-3.994,8.263Zm-5.144-.91h4.235v-8.475l.224-.132c2.29-1.348,3.77-4.337,3.77-7.617,0-4.6-2.851-8.348-6.354-8.348s-6.353,3.746-6.353,8.348c0,3.506,1.694,6.661,4.218,7.851l.261.123Z" transform="translate(-476.159 -4852.464)" fill="#999"/>
              </g>
              <g id="Grupo_55804" data-name="Grupo 55804" transform="translate(0 10.626)">
                <rect id="Rectángulo_9860" data-name="Rectángulo 9860" width="15.967" height="2.574" rx="1.209" transform="translate(0.455 0.454)" fill="#fff"/>
                <path id="Trazado_107498" data-name="Trazado 107498" d="M490.489,4867.63H476.722a1.556,1.556,0,0,1-1.554-1.555v-.375a1.556,1.556,0,0,1,1.554-1.553h13.767a1.556,1.556,0,0,1,1.554,1.553v.375A1.556,1.556,0,0,1,490.489,4867.63Zm-13.767-2.573a.645.645,0,0,0-.645.644v.375a.645.645,0,0,0,.645.645h13.767a.645.645,0,0,0,.645-.645v-.375a.645.645,0,0,0-.645-.644Z" transform="translate(-475.168 -4864.147)" fill="#999"/>
              </g>
              <g id="Grupo_55805" data-name="Grupo 55805" transform="translate(0 5.713)">
                <rect id="Rectángulo_9861" data-name="Rectángulo 9861" width="15.967" height="2.574" rx="1.209" transform="translate(0.455 0.454)" fill="#fff"/>
                <path id="Trazado_107499" data-name="Trazado 107499" d="M490.489,4862.229H476.722a1.556,1.556,0,0,1-1.554-1.555v-.375a1.555,1.555,0,0,1,1.554-1.555h13.767a1.556,1.556,0,0,1,1.554,1.555v.375A1.556,1.556,0,0,1,490.489,4862.229Zm-13.767-2.574a.645.645,0,0,0-.645.645v.375a.646.646,0,0,0,.645.645h13.767a.646.646,0,0,0,.645-.645v-.375a.645.645,0,0,0-.645-.645Z" transform="translate(-475.168 -4858.745)" fill="#999"/>
              </g>
            </g>
          </g>
        </g>
      </g>
    </g>
  </g>
</svg>
