<svg xmlns="http://www.w3.org/2000/svg" width="439.332" height="475.205" viewBox="0 0 439.332 475.205">
  <g id="Grupo_55962" data-name="Grupo 55962" transform="translate(-624.416 -6536.66)">
    <rect id="Rectángulo_9986" data-name="Rectángulo 9986" width="439.332" height="475.205" transform="translate(624.416 6536.661)" fill="#dcdcde"/>
    <rect id="Rectángulo_9987" data-name="Rectángulo 9987" width="135.547" height="400.206" transform="translate(651.747 6568.267)" fill="#f7f2e6"/>
    <rect id="Rectángulo_9988" data-name="Rectángulo 9988" width="135.547" height="400.206" transform="translate(865.531 6568.267)" fill="#f7f2e6"/>
    <g id="Grupo_55922" data-name="Grupo 55922" transform="translate(696.774 6544.602)">
      <path id="Trazado_107774" data-name="Trazado 107774" d="M693.2,6550.927h1.358v1.849H693.2v2.6H690.8v-2.6h-4.886l-.106-1.439,4.968-7.938H693.2Zm-5.149,0H690.8v-4.319l-.048-.018-.19.339Z" transform="translate(-685.81 -6543.398)"/>
      <path id="Trazado_107775" data-name="Trazado 107775" d="M694.595,6550.069l.689-6.67h6.679v1.926H697.25l-.329,2.763a2.861,2.861,0,0,1,.8-.408,3.282,3.282,0,0,1,1.036-.167,3.322,3.322,0,0,1,2.677,1.042,4.333,4.333,0,0,1,.951,2.978,4.105,4.105,0,0,1-1.041,2.872,3.846,3.846,0,0,1-3,1.143,4.5,4.5,0,0,1-2.83-.905,2.856,2.856,0,0,1-1.135-2.483l.016-.042,2.311-.115a1.678,1.678,0,0,0,.453,1.247,1.61,1.61,0,0,0,1.184.448,1.383,1.383,0,0,0,1.238-.6,2.738,2.738,0,0,0,.4-1.557,2.889,2.889,0,0,0-.428-1.659,1.439,1.439,0,0,0-1.267-.623,1.836,1.836,0,0,0-1.057.256,1.381,1.381,0,0,0-.522.691Z" transform="translate(-684.28 -6543.398)"/>
      <path id="Trazado_107776" data-name="Trazado 107776" d="M709.951,6553.257a1.417,1.417,0,0,0,1.028-.373,1.313,1.313,0,0,0,.386-.993h2.18l.026.05a2.771,2.771,0,0,1-1.017,2.256,4.28,4.28,0,0,1-5.671-.348,4.792,4.792,0,0,1-1.077-3.233v-.246a4.827,4.827,0,0,1,1.074-3.233,3.791,3.791,0,0,1,3.063-1.266,3.74,3.74,0,0,1,2.653.938,3.116,3.116,0,0,1,.976,2.467l-.018.049h-2.189a1.737,1.737,0,0,0-.377-1.147,1.287,1.287,0,0,0-1.045-.457,1.393,1.393,0,0,0-1.345.739,4.072,4.072,0,0,0-.39,1.905v.247a4.053,4.053,0,0,0,.39,1.918A1.406,1.406,0,0,0,709.951,6553.257Z" transform="translate(-682.239 -6542.957)"/>
      <path id="Trazado_107777" data-name="Trazado 107777" d="M715.781,6546.034l.1,1.176a3.014,3.014,0,0,1,1.074-.991,3.1,3.1,0,0,1,1.493-.35,2.722,2.722,0,0,1,1.464.378,2.337,2.337,0,0,1,.922,1.144,3.087,3.087,0,0,1,1.069-1.119,2.907,2.907,0,0,1,1.546-.4,2.572,2.572,0,0,1,2.078.908,4.249,4.249,0,0,1,.76,2.769v5.387h-2.4v-5.407a2.266,2.266,0,0,0-.329-1.412,1.205,1.205,0,0,0-.979-.4,1.682,1.682,0,0,0-.884.227,1.659,1.659,0,0,0-.6.631c0,.1,0,.194.008.267s.008.15.008.228v5.861h-2.393v-5.407a2.265,2.265,0,0,0-.33-1.4,1.2,1.2,0,0,0-.988-.409,1.849,1.849,0,0,0-.851.187,1.633,1.633,0,0,0-.6.522v6.505h-2.394v-8.9Z" transform="translate(-680.856 -6542.957)"/>
      <path id="Trazado_107778" data-name="Trazado 107778" d="M730.791,6552.482a.84.84,0,0,0-.382-.683,3.938,3.938,0,0,0-1.419-.508,5.734,5.734,0,0,1-2.382-.95,2.069,2.069,0,0,1-.8-1.716,2.452,2.452,0,0,1,.968-1.953,3.928,3.928,0,0,1,2.587-.8,4.249,4.249,0,0,1,2.711.8,2.356,2.356,0,0,1,.965,2.015l-.015.049H730.7a1.175,1.175,0,0,0-.342-.872,1.639,1.639,0,0,0-1.916-.053.894.894,0,0,0-.334.711.812.812,0,0,0,.349.674,3.818,3.818,0,0,0,1.42.469,5.765,5.765,0,0,1,2.443.967,2.124,2.124,0,0,1,.8,1.756,2.336,2.336,0,0,1-1.029,1.961,4.449,4.449,0,0,1-2.714.762,4.13,4.13,0,0,1-2.81-.9,2.522,2.522,0,0,1-.983-2.053l.018-.048h2.2a1.252,1.252,0,0,0,.468,1.036,1.938,1.938,0,0,0,1.161.32,1.664,1.664,0,0,0,1.016-.264A.85.85,0,0,0,730.791,6552.482Z" transform="translate(-678.707 -6542.957)"/>
    </g>
    <g id="Grupo_55924" data-name="Grupo 55924" transform="translate(653.752 6545.596)">
      <rect id="Rectángulo_9989" data-name="Rectángulo 9989" width="21.238" height="2.357" transform="translate(14.072 7.55)" fill="#333"/>
      <g id="Grupo_55923" data-name="Grupo 55923">
        <path id="Trazado_107779" data-name="Trazado 107779" d="M670,6544.242l-3.708,8.729L670,6561.7l-20.692-8.729Z" transform="translate(-649.307 -6544.242)" fill="#333"/>
      </g>
    </g>
    <g id="Grupo_55926" data-name="Grupo 55926" transform="translate(756.852 6545.596)">
      <rect id="Rectángulo_9990" data-name="Rectángulo 9990" width="21.238" height="2.357" transform="translate(0 7.55)" fill="#333"/>
      <g id="Grupo_55925" data-name="Grupo 55925" transform="translate(14.618)">
        <path id="Trazado_107780" data-name="Trazado 107780" d="M749.188,6561.7l3.708-8.729-3.708-8.729,20.692,8.729Z" transform="translate(-749.188 -6544.242)" fill="#333"/>
      </g>
    </g>
    <g id="Grupo_55927" data-name="Grupo 55927" transform="translate(905.69 6544.602)">
      <path id="Trazado_107781" data-name="Trazado 107781" d="M870.457,6550.927h1.357v1.849h-1.357v2.6h-2.394v-2.6h-4.887l-.107-1.439,4.969-7.938h2.418Zm-5.149,0h2.756v-4.319l-.048-.018-.19.339Z" transform="translate(-863.07 -6543.398)"/>
      <path id="Trazado_107782" data-name="Trazado 107782" d="M871.854,6550.069l.691-6.67h6.679v1.926h-4.713l-.329,2.763a2.847,2.847,0,0,1,.8-.408,3.277,3.277,0,0,1,1.036-.167,3.322,3.322,0,0,1,2.677,1.042,4.332,4.332,0,0,1,.951,2.978,4.106,4.106,0,0,1-1.041,2.872,3.848,3.848,0,0,1-3,1.143,4.5,4.5,0,0,1-2.83-.905,2.853,2.853,0,0,1-1.135-2.483l.015-.042,2.312-.115a1.678,1.678,0,0,0,.453,1.247,1.61,1.61,0,0,0,1.184.448,1.383,1.383,0,0,0,1.237-.6,2.747,2.747,0,0,0,.4-1.557,2.889,2.889,0,0,0-.429-1.659,1.435,1.435,0,0,0-1.266-.623,1.833,1.833,0,0,0-1.057.256,1.379,1.379,0,0,0-.522.691Z" transform="translate(-861.54 -6543.398)"/>
      <path id="Trazado_107783" data-name="Trazado 107783" d="M887.212,6553.257a1.42,1.42,0,0,0,1.028-.373,1.313,1.313,0,0,0,.387-.993h2.18l.025.05a2.767,2.767,0,0,1-1.016,2.256,4.282,4.282,0,0,1-5.673-.348,4.8,4.8,0,0,1-1.077-3.233v-.246a4.828,4.828,0,0,1,1.075-3.233,3.791,3.791,0,0,1,3.063-1.266,3.741,3.741,0,0,1,2.653.938,3.115,3.115,0,0,1,.975,2.467l-.017.049h-2.189a1.737,1.737,0,0,0-.377-1.147,1.287,1.287,0,0,0-1.045-.457,1.393,1.393,0,0,0-1.345.739,4.072,4.072,0,0,0-.39,1.905v.247a4.053,4.053,0,0,0,.39,1.918A1.406,1.406,0,0,0,887.212,6553.257Z" transform="translate(-859.499 -6542.957)"/>
      <path id="Trazado_107784" data-name="Trazado 107784" d="M893.042,6546.034l.1,1.176a3,3,0,0,1,1.074-.991,3.1,3.1,0,0,1,1.493-.35,2.724,2.724,0,0,1,1.464.378,2.327,2.327,0,0,1,.92,1.144,3.1,3.1,0,0,1,1.069-1.119,2.915,2.915,0,0,1,1.548-.4,2.572,2.572,0,0,1,2.078.908,4.256,4.256,0,0,1,.76,2.769v5.387h-2.4v-5.407a2.274,2.274,0,0,0-.329-1.412,1.207,1.207,0,0,0-.979-.4,1.682,1.682,0,0,0-.884.227,1.658,1.658,0,0,0-.6.631c0,.1,0,.194.008.267s.008.15.008.228v5.861h-2.394v-5.407a2.266,2.266,0,0,0-.329-1.4,1.2,1.2,0,0,0-.988-.409,1.853,1.853,0,0,0-.852.187,1.628,1.628,0,0,0-.6.522v6.505h-2.394v-8.9Z" transform="translate(-858.115 -6542.957)"/>
      <path id="Trazado_107785" data-name="Trazado 107785" d="M908.052,6552.482a.841.841,0,0,0-.383-.683,3.93,3.93,0,0,0-1.419-.508,5.736,5.736,0,0,1-2.381-.95,2.069,2.069,0,0,1-.8-1.716,2.452,2.452,0,0,1,.968-1.953,3.927,3.927,0,0,1,2.587-.8,4.252,4.252,0,0,1,2.711.8,2.359,2.359,0,0,1,.965,2.015l-.016.049h-2.318a1.171,1.171,0,0,0-.343-.872,1.637,1.637,0,0,0-1.915-.053.9.9,0,0,0-.335.711.813.813,0,0,0,.35.674,3.812,3.812,0,0,0,1.419.469,5.771,5.771,0,0,1,2.444.967,2.123,2.123,0,0,1,.8,1.756,2.336,2.336,0,0,1-1.029,1.961,4.443,4.443,0,0,1-2.713.762,4.129,4.129,0,0,1-2.81-.9,2.518,2.518,0,0,1-.983-2.053l.016-.048h2.2a1.248,1.248,0,0,0,.468,1.036,1.938,1.938,0,0,0,1.161.32,1.666,1.666,0,0,0,1.016-.264A.85.85,0,0,0,908.052,6552.482Z" transform="translate(-855.967 -6542.957)"/>
    </g>
    <g id="Grupo_55928" data-name="Grupo 55928" transform="translate(795.129 6763.477)">
      <path id="Trazado_107786" data-name="Trazado 107786" d="M773.738,6740.328h-2.223v-9.119h-2.254v-1.568l4.476-.4Z" transform="translate(-769.262 -6729.084)"/>
      <path id="Trazado_107787" data-name="Trazado 107787" d="M783.979,6740.352h-7.567V6738.9l3.585-3.845a8.683,8.683,0,0,0,1.1-1.5,2.433,2.433,0,0,0,.328-1.137,1.715,1.715,0,0,0-.377-1.147,1.322,1.322,0,0,0-1.069-.445,1.384,1.384,0,0,0-1.169.521,2.23,2.23,0,0,0-.4,1.389h-2.161l-.015-.045a3.354,3.354,0,0,1,.985-2.539,3.7,3.7,0,0,1,2.76-1.04,3.842,3.842,0,0,1,2.691.891,3.058,3.058,0,0,1,.978,2.375,3.328,3.328,0,0,1-.552,1.853,18.552,18.552,0,0,1-1.823,2.228l-1.972,2.146.015.037h4.659Z" transform="translate(-768.017 -6729.108)"/>
      <path id="Trazado_107788" data-name="Trazado 107788" d="M791.448,6736.036a4.889,4.889,0,0,1-1.009,3.338,3.861,3.861,0,0,1-5.477,0,4.872,4.872,0,0,1-1.014-3.338v-2.443a4.895,4.895,0,0,1,1.01-3.338,3.838,3.838,0,0,1,5.472,0,4.878,4.878,0,0,1,1.017,3.338Zm-2.216-2.674a3.642,3.642,0,0,0-.4-1.928,1.372,1.372,0,0,0-2.284,0,3.692,3.692,0,0,0-.388,1.931v2.884a3.68,3.68,0,0,0,.393,1.945,1.283,1.283,0,0,0,1.154.609,1.26,1.26,0,0,0,1.134-.609,3.733,3.733,0,0,0,.388-1.945Z" transform="translate(-766.639 -6729.108)"/>
      <path id="Trazado_107789" data-name="Trazado 107789" d="M798.455,6738.368a1.32,1.32,0,0,0,.952-.344,1.218,1.218,0,0,0,.357-.919h2.018l.023.045a2.566,2.566,0,0,1-.94,2.089,3.964,3.964,0,0,1-5.249-.323,4.436,4.436,0,0,1-1-2.991v-.23a4.471,4.471,0,0,1,.993-2.992,3.512,3.512,0,0,1,2.836-1.172,3.463,3.463,0,0,1,2.455.868,2.89,2.89,0,0,1,.9,2.285l-.016.045h-2.025a1.6,1.6,0,0,0-.35-1.061,1.183,1.183,0,0,0-.966-.424,1.292,1.292,0,0,0-1.245.684,3.761,3.761,0,0,0-.362,1.764v.228a3.745,3.745,0,0,0,.362,1.776A1.3,1.3,0,0,0,798.455,6738.368Z" transform="translate(-764.734 -6728.676)"/>
      <path id="Trazado_107790" data-name="Trazado 107790" d="M803.852,6731.685l.091,1.088a2.756,2.756,0,0,1,.995-.917,2.842,2.842,0,0,1,1.381-.326,2.508,2.508,0,0,1,1.354.352,2.152,2.152,0,0,1,.853,1.057,2.831,2.831,0,0,1,.99-1.034,2.686,2.686,0,0,1,1.431-.375,2.37,2.37,0,0,1,1.921.842,3.924,3.924,0,0,1,.7,2.563v4.985H811.35v-5.005a2.09,2.09,0,0,0-.3-1.3,1.11,1.11,0,0,0-.906-.367,1.545,1.545,0,0,0-.818.21,1.516,1.516,0,0,0-.552.583q0,.146.007.248c.006.069.008.139.008.211v5.423h-2.216v-5.005a2.09,2.09,0,0,0-.3-1.292,1.1,1.1,0,0,0-.913-.379,1.713,1.713,0,0,0-.787.172,1.5,1.5,0,0,0-.561.484v6.019h-2.215v-8.235Z" transform="translate(-763.453 -6728.676)"/>
      <path id="Trazado_107791" data-name="Trazado 107791" d="M817.743,6737.651a.777.777,0,0,0-.355-.631,3.612,3.612,0,0,0-1.313-.472,5.281,5.281,0,0,1-2.2-.879,1.909,1.909,0,0,1-.743-1.588,2.272,2.272,0,0,1,.893-1.808,3.633,3.633,0,0,1,2.395-.743,3.926,3.926,0,0,1,2.508.74,2.179,2.179,0,0,1,.893,1.865l-.014.045h-2.147a1.082,1.082,0,0,0-.315-.806,1.515,1.515,0,0,0-1.774-.049.827.827,0,0,0-.309.657.745.745,0,0,0,.324.624,3.5,3.5,0,0,0,1.313.435,5.327,5.327,0,0,1,2.26.9,1.963,1.963,0,0,1,.739,1.625,2.164,2.164,0,0,1-.952,1.815,4.122,4.122,0,0,1-2.513.705,3.822,3.822,0,0,1-2.6-.833,2.33,2.33,0,0,1-.91-1.9l.016-.045h2.031a1.16,1.16,0,0,0,.434.958,1.793,1.793,0,0,0,1.074.3,1.541,1.541,0,0,0,.941-.244A.787.787,0,0,0,817.743,6737.651Z" transform="translate(-761.465 -6728.676)"/>
    </g>
    <g id="Grupo_55929" data-name="Grupo 55929" transform="translate(1002.784 6767.745)">
      <path id="Trazado_107792" data-name="Trazado 107792" d="M949.928,6743.949h-2.223v-9.118h-2.253v-1.569l4.476-.4Z" transform="translate(-945.452 -6732.705)"/>
      <path id="Trazado_107793" data-name="Trazado 107793" d="M960.169,6743.973H952.6v-1.453l3.585-3.845a8.665,8.665,0,0,0,1.1-1.5,2.45,2.45,0,0,0,.326-1.137,1.717,1.717,0,0,0-.376-1.147,1.324,1.324,0,0,0-1.07-.445,1.385,1.385,0,0,0-1.169.522,2.238,2.238,0,0,0-.4,1.39h-2.161l-.014-.046a3.353,3.353,0,0,1,.985-2.54,3.7,3.7,0,0,1,2.759-1.039,3.852,3.852,0,0,1,2.692.891,3.064,3.064,0,0,1,.978,2.376,3.322,3.322,0,0,1-.553,1.853,18.234,18.234,0,0,1-1.823,2.228l-1.972,2.146.015.037h4.659Z" transform="translate(-944.206 -6732.729)"/>
      <path id="Trazado_107794" data-name="Trazado 107794" d="M967.638,6739.657a4.884,4.884,0,0,1-1.009,3.337,3.863,3.863,0,0,1-5.477,0,4.879,4.879,0,0,1-1.012-3.337v-2.443a4.9,4.9,0,0,1,1.009-3.337,3.838,3.838,0,0,1,5.473,0,4.876,4.876,0,0,1,1.016,3.337Zm-2.216-2.675a3.632,3.632,0,0,0-.4-1.928,1.372,1.372,0,0,0-2.283,0,3.692,3.692,0,0,0-.388,1.931v2.884a3.679,3.679,0,0,0,.393,1.945,1.281,1.281,0,0,0,1.153.61,1.261,1.261,0,0,0,1.134-.61,3.721,3.721,0,0,0,.388-1.945Z" transform="translate(-942.829 -6732.729)"/>
      <path id="Trazado_107795" data-name="Trazado 107795" d="M974.645,6741.989a1.32,1.32,0,0,0,.952-.344,1.22,1.22,0,0,0,.358-.919h2.018l.022.045a2.562,2.562,0,0,1-.94,2.088,3.965,3.965,0,0,1-5.249-.323,4.44,4.44,0,0,1-1-2.991v-.23a4.473,4.473,0,0,1,.992-2.991,3.515,3.515,0,0,1,2.837-1.174,3.459,3.459,0,0,1,2.455.87,2.885,2.885,0,0,1,.9,2.284l-.015.045h-2.025a1.606,1.606,0,0,0-.35-1.061,1.187,1.187,0,0,0-.966-.423,1.293,1.293,0,0,0-1.246.684,3.776,3.776,0,0,0-.362,1.764v.229a3.755,3.755,0,0,0,.362,1.774A1.3,1.3,0,0,0,974.645,6741.989Z" transform="translate(-940.923 -6732.296)"/>
      <path id="Trazado_107796" data-name="Trazado 107796" d="M980.042,6735.305l.091,1.089a2.756,2.756,0,0,1,.994-.917,2.845,2.845,0,0,1,1.381-.326,2.516,2.516,0,0,1,1.355.352,2.153,2.153,0,0,1,.852,1.059,2.837,2.837,0,0,1,.99-1.035,2.684,2.684,0,0,1,1.431-.376,2.374,2.374,0,0,1,1.922.842,3.931,3.931,0,0,1,.7,2.563v4.985H987.54v-5.006a2.082,2.082,0,0,0-.305-1.3,1.112,1.112,0,0,0-.906-.367,1.485,1.485,0,0,0-1.37.793c0,.1,0,.181.007.248s.008.139.008.211v5.424h-2.216v-5.006a2.1,2.1,0,0,0-.3-1.292,1.1,1.1,0,0,0-.913-.378,1.7,1.7,0,0,0-.787.172,1.514,1.514,0,0,0-.561.484v6.019H977.98v-8.236Z" transform="translate(-939.643 -6732.296)"/>
      <path id="Trazado_107797" data-name="Trazado 107797" d="M993.933,6741.273a.778.778,0,0,0-.355-.633,3.607,3.607,0,0,0-1.313-.471,5.3,5.3,0,0,1-2.2-.879,1.909,1.909,0,0,1-.742-1.588,2.269,2.269,0,0,1,.894-1.808,3.624,3.624,0,0,1,2.394-.744,3.927,3.927,0,0,1,2.508.739,2.184,2.184,0,0,1,.895,1.865l-.016.046H993.85a1.084,1.084,0,0,0-.316-.807,1.516,1.516,0,0,0-1.774-.049.828.828,0,0,0-.308.658.747.747,0,0,0,.323.625,3.556,3.556,0,0,0,1.313.433,5.338,5.338,0,0,1,2.26.9,1.962,1.962,0,0,1,.739,1.624,2.162,2.162,0,0,1-.951,1.815,4.119,4.119,0,0,1-2.513.7,3.819,3.819,0,0,1-2.6-.833,2.335,2.335,0,0,1-.911-1.9l.017-.046h2.032a1.155,1.155,0,0,0,.434.958,1.793,1.793,0,0,0,1.074.3,1.546,1.546,0,0,0,.941-.243A.787.787,0,0,0,993.933,6741.273Z" transform="translate(-937.655 -6732.296)"/>
    </g>
    <g id="Grupo_55930" data-name="Grupo 55930" transform="translate(882.793 6981.513)">
      <path id="Trazado_107798" data-name="Trazado 107798" d="M845.866,6921.843v4.02h-2.223v-11.084h4.416a4.366,4.366,0,0,1,3.005.975,3.542,3.542,0,0,1,0,5.124,4.387,4.387,0,0,1-3.005.966Zm0-1.713h2.193a1.849,1.849,0,0,0,1.407-.506,1.8,1.8,0,0,0,.48-1.29,1.888,1.888,0,0,0-.476-1.321,1.814,1.814,0,0,0-1.411-.522h-2.193Z" transform="translate(-843.643 -6913.986)"/>
      <path id="Trazado_107799" data-name="Trazado 107799" d="M851.717,6921.261a4.426,4.426,0,0,1,1.028-3.02,4.055,4.055,0,0,1,5.709,0,4.4,4.4,0,0,1,1.036,3.023v.16a4.407,4.407,0,0,1-1.031,3.025,4.074,4.074,0,0,1-5.71,0,4.407,4.407,0,0,1-1.031-3.025Zm2.216.155a3.566,3.566,0,0,0,.4,1.806,1.521,1.521,0,0,0,2.538,0,3.539,3.539,0,0,0,.4-1.8v-.159a3.5,3.5,0,0,0-.4-1.786,1.365,1.365,0,0,0-1.27-.691,1.347,1.347,0,0,0-1.26.695,3.551,3.551,0,0,0-.4,1.783Z" transform="translate(-842.201 -6913.578)"/>
      <path id="Trazado_107800" data-name="Trazado 107800" d="M863.982,6923.187a.775.775,0,0,0-.355-.632,3.582,3.582,0,0,0-1.313-.473,5.3,5.3,0,0,1-2.2-.879,1.908,1.908,0,0,1-.742-1.587,2.273,2.273,0,0,1,.895-1.809,3.632,3.632,0,0,1,2.394-.742,3.927,3.927,0,0,1,2.508.739,2.184,2.184,0,0,1,.895,1.864l-.015.046H863.9a1.084,1.084,0,0,0-.316-.806,1.513,1.513,0,0,0-1.774-.05.827.827,0,0,0-.309.658.747.747,0,0,0,.324.625,3.542,3.542,0,0,0,1.313.434,5.326,5.326,0,0,1,2.261.9,1.964,1.964,0,0,1,.739,1.625,2.163,2.163,0,0,1-.952,1.815,4.124,4.124,0,0,1-2.512.7,3.818,3.818,0,0,1-2.6-.833,2.333,2.333,0,0,1-.911-1.9l.016-.046h2.031a1.156,1.156,0,0,0,.435.958,1.791,1.791,0,0,0,1.074.3,1.539,1.539,0,0,0,.941-.244A.783.783,0,0,0,863.982,6923.187Z" transform="translate(-840.872 -6913.578)"/>
      <path id="Trazado_107801" data-name="Trazado 107801" d="M869.055,6915.482v2.017h1.386v1.562h-1.386v4.195a.971.971,0,0,0,.2.685.707.707,0,0,0,.533.206,1.908,1.908,0,0,0,.3-.02,2.7,2.7,0,0,0,.293-.064l.19,1.605a4.348,4.348,0,0,1-.654.171,3.855,3.855,0,0,1-.693.057,2.365,2.365,0,0,1-1.769-.631,2.767,2.767,0,0,1-.621-2v-4.2h-1.2V6917.5h1.2v-2.017Z" transform="translate(-839.716 -6913.861)"/>
      <path id="Trazado_107802" data-name="Trazado 107802" d="M874.6,6925.614a3.706,3.706,0,0,1-2.847-1.142,4.082,4.082,0,0,1-1.065-2.9v-.306a4.5,4.5,0,0,1,1.009-3.022,3.757,3.757,0,0,1,5.294-.174,3.864,3.864,0,0,1,.92,2.716V6922h-4.917l-.015.046a2.126,2.126,0,0,0,.544,1.333,1.7,1.7,0,0,0,1.313.523,4.279,4.279,0,0,0,1.226-.148,5.737,5.737,0,0,0,1.065-.468l.6,1.373a4.085,4.085,0,0,1-1.317.686A5.734,5.734,0,0,1,874.6,6925.614Zm-.2-6.835a1.154,1.154,0,0,0-.975.472,2.45,2.45,0,0,0-.441,1.241l.022.038h2.725v-.2a1.781,1.781,0,0,0-.331-1.13A1.192,1.192,0,0,0,874.4,6918.779Z" transform="translate(-838.813 -6913.578)"/>
      <path id="Trazado_107803" data-name="Trazado 107803" d="M882.245,6919.128l-.816-.022a1.465,1.465,0,0,0-.813.207,1.3,1.3,0,0,0-.488.577v5.564h-2.215v-8.236h2.063l.1,1.218a2.588,2.588,0,0,1,.751-1.008,1.665,1.665,0,0,1,1.061-.363,1.559,1.559,0,0,1,.309.029c.094.016.188.039.285.063Z" transform="translate(-837.523 -6913.578)"/>
      <path id="Trazado_107804" data-name="Trazado 107804" d="M884.864,6915.774h-2.222v-1.667h2.222Zm0,10.208h-2.222v-8.236h2.222Z" transform="translate(-836.678 -6914.106)"/>
      <path id="Trazado_107805" data-name="Trazado 107805" d="M885.787,6921.261a4.426,4.426,0,0,1,1.028-3.02,4.055,4.055,0,0,1,5.709,0,4.4,4.4,0,0,1,1.036,3.023v.16a4.407,4.407,0,0,1-1.031,3.025,4.074,4.074,0,0,1-5.71,0,4.407,4.407,0,0,1-1.031-3.025Zm2.216.155a3.566,3.566,0,0,0,.4,1.806,1.366,1.366,0,0,0,1.279.68,1.35,1.35,0,0,0,1.259-.684,3.541,3.541,0,0,0,.4-1.8v-.159a3.5,3.5,0,0,0-.4-1.786,1.365,1.365,0,0,0-1.271-.691,1.347,1.347,0,0,0-1.26.695,3.551,3.551,0,0,0-.4,1.783Z" transform="translate(-836.117 -6913.578)"/>
      <path id="Trazado_107806" data-name="Trazado 107806" d="M897.876,6919.128l-.816-.022a1.465,1.465,0,0,0-.813.207,1.3,1.3,0,0,0-.488.577v5.564h-2.215v-8.236h2.063l.1,1.218a2.587,2.587,0,0,1,.751-1.008,1.663,1.663,0,0,1,1.061-.363,1.557,1.557,0,0,1,.309.029c.094.016.189.039.285.063Z" transform="translate(-834.731 -6913.578)"/>
    </g>
    <g id="Grupo_55931" data-name="Grupo 55931" transform="translate(664.692 6982.333)">
      <path id="Trazado_107807" data-name="Trazado 107807" d="M658.589,6926.558v-11.084h3.806a4.573,4.573,0,0,1,3.351,1.3,4.476,4.476,0,0,1,1.316,3.329v1.835a4.462,4.462,0,0,1-1.316,3.331,4.588,4.588,0,0,1-3.351,1.29Zm2.224-9.371v7.658h1.469a2.319,2.319,0,0,0,1.873-.806,3.169,3.169,0,0,0,.678-2.107v-1.846a3.142,3.142,0,0,0-.678-2.093,2.315,2.315,0,0,0-1.873-.806Z" transform="translate(-658.589 -6914.683)"/>
      <path id="Trazado_107808" data-name="Trazado 107808" d="M670.789,6926.31a3.711,3.711,0,0,1-2.847-1.143,4.087,4.087,0,0,1-1.066-2.9v-.306a4.493,4.493,0,0,1,1.009-3.02,3.76,3.76,0,0,1,5.3-.176,3.871,3.871,0,0,1,.92,2.717v1.209h-4.918l-.015.046a2.147,2.147,0,0,0,.544,1.335,1.7,1.7,0,0,0,1.313.523,4.291,4.291,0,0,0,1.227-.149,5.634,5.634,0,0,0,1.065-.468l.6,1.374a4.114,4.114,0,0,1-1.318.685A5.729,5.729,0,0,1,670.789,6926.31Zm-.2-6.836a1.158,1.158,0,0,0-.975.472,2.451,2.451,0,0,0-.441,1.241l.023.038h2.724v-.2a1.789,1.789,0,0,0-.33-1.131A1.2,1.2,0,0,0,670.591,6919.474Z" transform="translate(-657.109 -6914.275)"/>
      <path id="Trazado_107809" data-name="Trazado 107809" d="M676.423,6926.678H674.2V6914.8h2.223Z" transform="translate(-655.801 -6914.803)"/>
      <path id="Trazado_107810" data-name="Trazado 107810" d="M682.536,6926.149a4.318,4.318,0,0,1-.209-.594,4.164,4.164,0,0,1-.126-.639,3.071,3.071,0,0,1-.9,1,2.262,2.262,0,0,1-1.335.4,2.783,2.783,0,0,1-2-.667,2.391,2.391,0,0,1-.7-1.815,2.173,2.173,0,0,1,.932-1.878,4.661,4.661,0,0,1,2.72-.664h1.242v-.656a1.276,1.276,0,0,0-.314-.92,1.459,1.459,0,0,0-1.754-.066.929.929,0,0,0-.294.728l-2.146-.007-.008-.044a2.094,2.094,0,0,1,.906-1.8,3.941,3.941,0,0,1,2.52-.757,3.681,3.681,0,0,1,2.4.749,2.593,2.593,0,0,1,.921,2.135v3.4a6.474,6.474,0,0,0,.088,1.086,5.541,5.541,0,0,0,.278,1.013Zm-2.032-1.484a1.9,1.9,0,0,0,1.042-.289,1.526,1.526,0,0,0,.618-.669v-1.166h-1.242a1.484,1.484,0,0,0-1.072.355,1.146,1.146,0,0,0-.367.856.852.852,0,0,0,.276.661A1.053,1.053,0,0,0,680.5,6924.665Z" transform="translate(-655.253 -6914.275)"/>
      <path id="Trazado_107811" data-name="Trazado 107811" d="M686.78,6917.913l.1,1.18a3.016,3.016,0,0,1,1.011-.982,2.629,2.629,0,0,1,1.348-.35,2.476,2.476,0,0,1,1.948.784,3.616,3.616,0,0,1,.7,2.46v5.145h-2.231V6921a1.67,1.67,0,0,0-.335-1.178,1.346,1.346,0,0,0-1.012-.347,1.711,1.711,0,0,0-.792.179,1.631,1.631,0,0,0-.586.507v5.99h-2.223v-8.236Z" transform="translate(-653.924 -6914.275)"/>
      <path id="Trazado_107812" data-name="Trazado 107812" d="M694.968,6916.179v2.016h1.386v1.561h-1.386v4.194a.968.968,0,0,0,.2.685.7.7,0,0,0,.533.206,2.2,2.2,0,0,0,.3-.018,2.963,2.963,0,0,0,.293-.065l.19,1.6a4.188,4.188,0,0,1-.654.172,3.943,3.943,0,0,1-.693.059,2.362,2.362,0,0,1-1.769-.633,2.763,2.763,0,0,1-.621-2v-4.2h-1.2V6918.2h1.2v-2.016Z" transform="translate(-652.704 -6914.558)"/>
      <path id="Trazado_107813" data-name="Trazado 107813" d="M700.513,6926.31a3.71,3.71,0,0,1-2.847-1.143,4.082,4.082,0,0,1-1.065-2.9v-.306a4.493,4.493,0,0,1,1.009-3.02,3.759,3.759,0,0,1,5.294-.176,3.866,3.866,0,0,1,.922,2.717v1.209h-4.918l-.015.046a2.133,2.133,0,0,0,.544,1.335,1.7,1.7,0,0,0,1.313.523,4.276,4.276,0,0,0,1.226-.149,5.6,5.6,0,0,0,1.066-.468l.6,1.374a4.093,4.093,0,0,1-1.316.685A5.735,5.735,0,0,1,700.513,6926.31Zm-.2-6.836a1.156,1.156,0,0,0-.975.472,2.451,2.451,0,0,0-.441,1.241l.022.038h2.725v-.2a1.789,1.789,0,0,0-.33-1.131A1.2,1.2,0,0,0,700.315,6919.474Z" transform="translate(-651.801 -6914.275)"/>
      <path id="Trazado_107814" data-name="Trazado 107814" d="M708.158,6919.825l-.814-.024a1.483,1.483,0,0,0-.814.207,1.3,1.3,0,0,0-.488.577v5.565h-2.215v-8.236h2.063l.1,1.218a2.594,2.594,0,0,1,.751-1.009,1.663,1.663,0,0,1,1.061-.361,1.564,1.564,0,0,1,.309.027c.094.017.189.038.285.064Z" transform="translate(-650.51 -6914.275)"/>
      <path id="Trazado_107815" data-name="Trazado 107815" d="M708.168,6921.955a4.425,4.425,0,0,1,1.028-3.019,4.058,4.058,0,0,1,5.709,0,4.392,4.392,0,0,1,1.036,3.021v.161a4.405,4.405,0,0,1-1.031,3.025,4.071,4.071,0,0,1-5.71,0,4.4,4.4,0,0,1-1.031-3.025Zm2.216.156a3.562,3.562,0,0,0,.4,1.805,1.364,1.364,0,0,0,1.279.68,1.348,1.348,0,0,0,1.259-.685,3.531,3.531,0,0,0,.4-1.8v-.16a3.5,3.5,0,0,0-.4-1.785,1.365,1.365,0,0,0-1.271-.692,1.346,1.346,0,0,0-1.26.7,3.545,3.545,0,0,0-.4,1.782Z" transform="translate(-649.735 -6914.275)"/>
    </g>
    <g id="Grupo_55933" data-name="Grupo 55933" transform="translate(862.668 6545.596)">
      <rect id="Rectángulo_9991" data-name="Rectángulo 9991" width="21.239" height="2.357" transform="translate(14.072 7.55)" fill="#333"/>
      <g id="Grupo_55932" data-name="Grupo 55932">
        <path id="Trazado_107816" data-name="Trazado 107816" d="M847.259,6544.242l-3.708,8.729,3.708,8.729-20.692-8.729Z" transform="translate(-826.567 -6544.242)" fill="#333"/>
      </g>
    </g>
    <g id="Grupo_55935" data-name="Grupo 55935" transform="translate(801.778 6568.268)">
      <rect id="Rectángulo_9992" data-name="Rectángulo 9992" width="2.357" height="158.411" transform="translate(7.55 14.072)" fill="#333"/>
      <g id="Grupo_55934" data-name="Grupo 55934">
        <path id="Trazado_107817" data-name="Trazado 107817" d="M792.361,6584.17l-8.729-3.709-8.729,3.709,8.729-20.692Z" transform="translate(-774.903 -6563.478)" fill="#333"/>
      </g>
    </g>
    <g id="Grupo_55937" data-name="Grupo 55937" transform="translate(1017.305 6568.268)">
      <rect id="Rectángulo_9993" data-name="Rectángulo 9993" width="2.357" height="158.411" transform="translate(7.551 14.072)" fill="#333"/>
      <g id="Grupo_55936" data-name="Grupo 55936">
        <path id="Trazado_107818" data-name="Trazado 107818" d="M975.231,6584.17l-8.729-3.709-8.729,3.709,8.729-20.692Z" transform="translate(-957.773 -6563.478)" fill="#333"/>
      </g>
    </g>
    <g id="Grupo_55939" data-name="Grupo 55939" transform="translate(801.778 6798.548)">
      <rect id="Rectángulo_9994" data-name="Rectángulo 9994" width="2.357" height="158.411" transform="translate(7.55)" fill="#333"/>
      <g id="Grupo_55938" data-name="Grupo 55938" transform="translate(0 151.79)">
        <path id="Trazado_107819" data-name="Trazado 107819" d="M774.9,6887.656l8.729,3.709,8.729-3.709-8.729,20.692Z" transform="translate(-774.903 -6887.656)" fill="#333"/>
      </g>
    </g>
    <g id="Grupo_55941" data-name="Grupo 55941" transform="translate(1017.305 6798.548)">
      <rect id="Rectángulo_9995" data-name="Rectángulo 9995" width="2.357" height="158.411" transform="translate(7.551)" fill="#333"/>
      <g id="Grupo_55940" data-name="Grupo 55940" transform="translate(0 151.79)">
        <path id="Trazado_107820" data-name="Trazado 107820" d="M957.773,6887.656l8.729,3.709,8.729-3.709-8.729,20.692Z" transform="translate(-957.773 -6887.656)" fill="#333"/>
      </g>
    </g>
    <g id="Grupo_55943" data-name="Grupo 55943" transform="translate(965.768 6545.596)">
      <rect id="Rectángulo_9996" data-name="Rectángulo 9996" width="21.24" height="2.357" transform="translate(0 7.55)" fill="#333"/>
      <g id="Grupo_55942" data-name="Grupo 55942" transform="translate(14.619)">
        <path id="Trazado_107821" data-name="Trazado 107821" d="M926.449,6561.7l3.708-8.729-3.708-8.729,20.692,8.729Z" transform="translate(-926.449 -6544.242)" fill="#333"/>
      </g>
    </g>
    <g id="Grupo_55945" data-name="Grupo 55945" transform="translate(676.713 6576.67)">
      <path id="Trazado_107822" data-name="Trazado 107822" d="M677.552,6677.858h-2.357v-3.535h2.357Zm0-5.892h-2.357v-9.429h2.357Zm0-12.965h-2.357v-2.357h2.357Zm0-11.786h-2.357v-3.536h2.357Zm0-5.893h-2.357v-9.428h2.357Zm0-12.964h-2.357V6626h2.357Zm0-11.786h-2.357v-3.536h2.357Zm0-5.893h-2.357v-9.429h2.357Zm0-12.964h-2.357v-2.357h2.357Zm0-11.786h-2.357v-3.536h2.357Zm0-5.893h-2.357v-9.429h2.357Z" transform="translate(-667.645 -6570.607)" fill="#333"/>
      <g id="Grupo_55944" data-name="Grupo 55944" transform="translate(0 106.077)">
        <path id="Trazado_107823" data-name="Trazado 107823" d="M668.789,6660.611l8.729,3.708,8.729-3.708-8.729,20.692Z" transform="translate(-668.789 -6660.611)" fill="#333"/>
      </g>
    </g>
    <g id="Grupo_55947" data-name="Grupo 55947" transform="translate(964.013 6576.67)">
      <path id="Trazado_107824" data-name="Trazado 107824" d="M921.319,6677.858h-2.357v-3.535h2.357Zm0-5.892h-2.357v-9.429h2.357Zm0-12.965h-2.357v-2.357h2.357Zm0-11.786h-2.357v-3.536h2.357Zm0-5.893h-2.357v-9.428h2.357Zm0-12.964h-2.357V6626h2.357Zm0-11.786h-2.357v-3.536h2.357Zm0-5.893h-2.357v-9.429h2.357Zm0-12.964h-2.357v-2.357h2.357Zm0-11.786h-2.357v-3.536h2.357Zm0-5.893h-2.357v-9.429h2.357Z" transform="translate(-911.412 -6570.607)" fill="#333"/>
      <g id="Grupo_55946" data-name="Grupo 55946" transform="translate(0 106.077)">
        <path id="Trazado_107825" data-name="Trazado 107825" d="M912.556,6660.611l8.729,3.708,8.729-3.708-8.729,20.692Z" transform="translate(-912.556 -6660.611)" fill="#333"/>
      </g>
    </g>
    <g id="Grupo_55949" data-name="Grupo 55949" transform="translate(725.291 6576.67)">
      <path id="Trazado_107826" data-name="Trazado 107826" d="M718.769,6636.776h-2.357v-4.882h2.357Zm0-8.418h-2.357V6626h2.357Zm0-11.786h-2.357v-3.536h2.357Zm0-5.893h-2.357v-9.429h2.357Zm0-12.964h-2.357v-2.357h2.357Zm0-11.786h-2.357v-3.536h2.357Zm0-5.893h-2.357v-9.429h2.357Z" transform="translate(-708.862 -6570.607)" fill="#333"/>
      <g id="Grupo_55948" data-name="Grupo 55948" transform="translate(0 59.548)">
        <path id="Trazado_107827" data-name="Trazado 107827" d="M710.006,6621.132l8.729,3.708,8.729-3.708-8.729,20.692Z" transform="translate(-710.006 -6621.132)" fill="#333"/>
      </g>
    </g>
    <g id="Grupo_55951" data-name="Grupo 55951" transform="translate(770.388 6614.827)">
      <path id="Trazado_107828" data-name="Trazado 107828" d="M777.224,6611.746H767.8v-2.357h9.429Zm-11.786,0H761.9v-2.357h3.536Z" transform="translate(-745.835 -6601.837)" fill="#333"/>
      <g id="Grupo_55950" data-name="Grupo 55950">
        <path id="Trazado_107829" data-name="Trazado 107829" d="M768.961,6602.982l-3.708,8.729,3.708,8.729-20.692-8.729Z" transform="translate(-748.27 -6602.982)" fill="#333"/>
      </g>
    </g>
    <g id="Grupo_55953" data-name="Grupo 55953" transform="translate(859.341 6614.827)">
      <path id="Trazado_107830" data-name="Trazado 107830" d="M839.065,6611.746H835.53v-2.357h3.536Zm-5.893,0h-9.429v-2.357h9.429Z" transform="translate(-823.744 -6601.837)" fill="#333"/>
      <g id="Grupo_55952" data-name="Grupo 55952" transform="translate(10.698)">
        <path id="Trazado_107831" data-name="Trazado 107831" d="M832.821,6620.439l3.708-8.729-3.708-8.729,20.692,8.729Z" transform="translate(-832.821 -6602.982)" fill="#333"/>
      </g>
    </g>
    <g id="Grupo_55955" data-name="Grupo 55955" transform="translate(917.279 6576.67)">
      <path id="Trazado_107832" data-name="Trazado 107832" d="M881.667,6636.776H879.31v-4.882h2.357Zm0-8.418H879.31V6626h2.357Zm0-11.786H879.31v-3.536h2.357Zm0-5.893H879.31v-9.429h2.357Zm0-12.964H879.31v-2.357h2.357Zm0-11.786H879.31v-3.536h2.357Zm0-5.893H879.31v-9.429h2.357Z" transform="translate(-871.759 -6570.607)" fill="#333"/>
      <g id="Grupo_55954" data-name="Grupo 55954" transform="translate(0 59.548)">
        <path id="Trazado_107833" data-name="Trazado 107833" d="M872.9,6621.132l8.729,3.708,8.729-3.708-8.729,20.692Z" transform="translate(-872.903 -6621.132)" fill="#333"/>
      </g>
    </g>
    <rect id="Rectángulo_9997" data-name="Rectángulo 9997" width="124.52" height="2.357" transform="translate(657.701 6658.711)" fill="#333"/>
    <rect id="Rectángulo_9998" data-name="Rectángulo 9998" width="124.52" height="2.357" transform="translate(657.701 6705.137)" fill="#333"/>
    <rect id="Rectángulo_9999" data-name="Rectángulo 9999" width="124.52" height="2.357" transform="translate(876.559 6658.711)" fill="#333"/>
    <rect id="Rectángulo_10000" data-name="Rectángulo 10000" width="124.52" height="2.357" transform="translate(876.559 6705.137)" fill="#333"/>
    <rect id="Rectángulo_10001" data-name="Rectángulo 10001" width="2.357" height="383.091" transform="translate(767.206 6574.109)" fill="#333"/>
    <rect id="Rectángulo_10002" data-name="Rectángulo 10002" width="2.357" height="383.091" transform="translate(891.624 6574.109)" fill="#333"/>
    <g id="Grupo_55956" data-name="Grupo 55956" transform="translate(907.077 6715.616)">
      <path id="Trazado_107834" data-name="Trazado 107834" d="M866.526,6697.65h4.5v1.562H864.5v-10.1h2.025Z" transform="translate(-864.202 -6688.391)"/>
      <path id="Trazado_107835" data-name="Trazado 107835" d="M872.379,6688.953h2.143l.014.042-1.921,1.8H871Zm.652,10.288h-2.025v-7.507h2.025Z" transform="translate(-863.041 -6688.418)"/>
      <path id="Trazado_107836" data-name="Trazado 107836" d="M876.046,6691.333l.09,1.076a2.752,2.752,0,0,1,.923-.894,2.388,2.388,0,0,1,1.228-.319,2.259,2.259,0,0,1,1.776.714,3.306,3.306,0,0,1,.638,2.241v4.689h-2.033v-4.692a1.532,1.532,0,0,0-.3-1.076,1.226,1.226,0,0,0-.923-.315,1.545,1.545,0,0,0-.721.164,1.47,1.47,0,0,0-.534.461v5.458h-2.026v-7.507Z" transform="translate(-862.477 -6688.019)"/>
      <path id="Trazado_107837" data-name="Trazado 107837" d="M884.352,6698.987a3.381,3.381,0,0,1-2.6-1.042,3.724,3.724,0,0,1-.971-2.643v-.278a4.107,4.107,0,0,1,.919-2.753,3.426,3.426,0,0,1,4.824-.159,3.521,3.521,0,0,1,.839,2.477v1.1h-4.481l-.013.042a1.943,1.943,0,0,0,.5,1.215,1.546,1.546,0,0,0,1.2.477,3.923,3.923,0,0,0,1.116-.135,5.143,5.143,0,0,0,.972-.427l.547,1.251a3.75,3.75,0,0,1-1.2.625A5.252,5.252,0,0,1,884.352,6698.987Zm-.181-6.23a1.052,1.052,0,0,0-.887.429,2.244,2.244,0,0,0-.4,1.132l.021.034h2.483v-.18a1.623,1.623,0,0,0-.3-1.03A1.086,1.086,0,0,0,884.171,6692.757Z" transform="translate(-861.293 -6688.019)"/>
      <path id="Trazado_107838" data-name="Trazado 107838" d="M891.835,6698.84a4.442,4.442,0,0,1-.191-.541,3.745,3.745,0,0,1-.113-.583,2.806,2.806,0,0,1-.823.908,2.052,2.052,0,0,1-1.217.362,2.532,2.532,0,0,1-1.817-.608,2.173,2.173,0,0,1-.639-1.654,1.982,1.982,0,0,1,.851-1.711,4.248,4.248,0,0,1,2.479-.606H891.5v-.6a1.173,1.173,0,0,0-.284-.84,1.331,1.331,0,0,0-1.6-.06.849.849,0,0,0-.267.664l-1.955-.007-.007-.042a1.912,1.912,0,0,1,.825-1.642,3.6,3.6,0,0,1,2.3-.689,3.353,3.353,0,0,1,2.184.683,2.366,2.366,0,0,1,.839,1.947v3.1a5.852,5.852,0,0,0,.08.991,4.953,4.953,0,0,0,.253.924Zm-1.852-1.353a1.727,1.727,0,0,0,.95-.264,1.375,1.375,0,0,0,.562-.61v-1.062h-1.131a1.347,1.347,0,0,0-.977.324,1.045,1.045,0,0,0-.334.78.779.779,0,0,0,.25.6A.969.969,0,0,0,889.984,6697.487Z" transform="translate(-860.177 -6688.019)"/>
      <path id="Trazado_107839" data-name="Trazado 107839" d="M896.583,6695.63a4.881,4.881,0,0,1,.766-2.865,2.487,2.487,0,0,1,2.16-1.089,2.119,2.119,0,0,1,1.014.241,2.465,2.465,0,0,1,.791.695V6688.5h2.032v10.822H901.6l-.166-.917a2.486,2.486,0,0,1-.837.793,2.239,2.239,0,0,1-1.106.271,2.539,2.539,0,0,1-2.147-1.014,4.327,4.327,0,0,1-.766-2.678Zm2.019.146a3.1,3.1,0,0,0,.332,1.56,1.159,1.159,0,0,0,1.082.569,1.568,1.568,0,0,0,.764-.178,1.429,1.429,0,0,0,.534-.52v-3.218a1.578,1.578,0,0,0-.531-.555,1.408,1.408,0,0,0-.752-.2,1.143,1.143,0,0,0-1.085.664,3.769,3.769,0,0,0-.343,1.73Z" transform="translate(-858.472 -6688.5)"/>
      <path id="Trazado_107840" data-name="Trazado 107840" d="M907.01,6698.987a3.377,3.377,0,0,1-2.594-1.042,3.72,3.72,0,0,1-.972-2.643v-.278a4.1,4.1,0,0,1,.92-2.753,3.425,3.425,0,0,1,4.823-.159,3.521,3.521,0,0,1,.839,2.477v1.1h-4.48l-.014.042a1.943,1.943,0,0,0,.5,1.215,1.547,1.547,0,0,0,1.2.477,3.932,3.932,0,0,0,1.117-.135,5.135,5.135,0,0,0,.971-.427l.548,1.251a3.77,3.77,0,0,1-1.2.625A5.252,5.252,0,0,1,907.01,6698.987Zm-.182-6.23a1.053,1.053,0,0,0-.887.429,2.244,2.244,0,0,0-.4,1.132l.02.034h2.484v-.18a1.624,1.624,0,0,0-.3-1.03A1.086,1.086,0,0,0,906.829,6692.757Z" transform="translate(-857.247 -6688.019)"/>
      <path id="Trazado_107841" data-name="Trazado 107841" d="M872.169,6710.256l.013.042a3.287,3.287,0,0,1-.995,2.586,3.994,3.994,0,0,1-2.84.958,3.943,3.943,0,0,1-2.962-1.173,4.149,4.149,0,0,1-1.138-3.017v-2a4.231,4.231,0,0,1,1.11-3.018,3.781,3.781,0,0,1,2.886-1.179,4.185,4.185,0,0,1,2.926.959,3.283,3.283,0,0,1,1.027,2.618l-.014.041h-1.969a2.2,2.2,0,0,0-.479-1.528,1.911,1.911,0,0,0-1.491-.531,1.689,1.689,0,0,0-1.444.738,3.128,3.128,0,0,0-.534,1.881v2.018a3.036,3.036,0,0,0,.562,1.894,2.045,2.045,0,0,0,2.924.23,2.222,2.222,0,0,0,.454-1.517Z" transform="translate(-864.247 -6685.829)"/>
      <path id="Trazado_107842" data-name="Trazado 107842" d="M874.177,6704.482h-2.026v-1.519h2.026Zm0,9.3h-2.026v-7.505h2.026Z" transform="translate(-862.835 -6685.917)"/>
      <path id="Trazado_107843" data-name="Trazado 107843" d="M877.141,6705.8l.09,1.075a2.731,2.731,0,0,1,.923-.893,2.376,2.376,0,0,1,1.228-.32,2.264,2.264,0,0,1,1.776.714,3.308,3.308,0,0,1,.638,2.241v4.688h-2.033v-4.692a1.529,1.529,0,0,0-.305-1.076,1.229,1.229,0,0,0-.922-.315,1.542,1.542,0,0,0-.721.164,1.466,1.466,0,0,0-.534.462v5.457h-2.026V6705.8Z" transform="translate(-862.281 -6685.435)"/>
      <path id="Trazado_107844" data-name="Trazado 107844" d="M884.6,6704.217v1.837h1.262v1.422H884.6v3.821a.888.888,0,0,0,.18.625.65.65,0,0,0,.486.187,1.776,1.776,0,0,0,.275-.019,2.183,2.183,0,0,0,.266-.059l.174,1.465a4.271,4.271,0,0,1-.6.155,3.578,3.578,0,0,1-.631.053,2.152,2.152,0,0,1-1.612-.578,2.512,2.512,0,0,1-.567-1.824v-3.828H881.48v-1.422h1.095v-1.837Z" transform="translate(-861.17 -6685.693)"/>
      <path id="Trazado_107845" data-name="Trazado 107845" d="M890.888,6712.2a2.531,2.531,0,0,1-.882.909,2.6,2.6,0,0,1-3.084-.44,3.508,3.508,0,0,1-.668-2.361v-4.53h2.019v4.554a1.953,1.953,0,0,0,.277,1.179.966.966,0,0,0,.818.357,2.049,2.049,0,0,0,.833-.155,1.4,1.4,0,0,0,.568-.463v-5.472H892.8v7.5h-1.728Z" transform="translate(-860.317 -6685.415)"/>
      <path id="Trazado_107846" data-name="Trazado 107846" d="M897.044,6707.54l-.743-.022a1.356,1.356,0,0,0-.741.187,1.187,1.187,0,0,0-.443.527v5.071H893.1V6705.8h1.879l.092,1.111a2.357,2.357,0,0,1,.682-.919,1.595,1.595,0,0,1,1.248-.3c.085.016.173.036.26.058Z" transform="translate(-859.095 -6685.435)"/>
      <path id="Trazado_107847" data-name="Trazado 107847" d="M901.784,6713.3a3.968,3.968,0,0,1-.191-.541,3.7,3.7,0,0,1-.114-.583,2.8,2.8,0,0,1-.821.909,2.055,2.055,0,0,1-1.219.361,2.534,2.534,0,0,1-1.817-.607,2.174,2.174,0,0,1-.639-1.655,1.983,1.983,0,0,1,.851-1.71,4.259,4.259,0,0,1,2.48-.606h1.131v-.6a1.168,1.168,0,0,0-.285-.84,1.111,1.111,0,0,0-.84-.3,1.1,1.1,0,0,0-.759.239.85.85,0,0,0-.268.664l-1.955-.008-.007-.041a1.908,1.908,0,0,1,.826-1.643,3.589,3.589,0,0,1,2.3-.689,3.349,3.349,0,0,1,2.184.682,2.369,2.369,0,0,1,.839,1.947v3.1a5.871,5.871,0,0,0,.081.991,4.924,4.924,0,0,0,.252.923Zm-1.853-1.352a1.728,1.728,0,0,0,.95-.264,1.376,1.376,0,0,0,.563-.61v-1.062h-1.131a1.348,1.348,0,0,0-.977.324,1.042,1.042,0,0,0-.335.78.788.788,0,0,0,.25.6A.978.978,0,0,0,899.931,6711.951Z" transform="translate(-858.401 -6685.435)"/>
    </g>
    <g id="Grupo_55957" data-name="Grupo 55957" transform="translate(667.262 6712.365)">
      <path id="Trazado_107848" data-name="Trazado 107848" d="M663.048,6694.893h4.5v1.56h-6.521v-10.1h2.025Z" transform="translate(-660.725 -6685.631)"/>
      <path id="Trazado_107849" data-name="Trazado 107849" d="M668.9,6686.193h2.144l.013.043-1.92,1.8h-1.617Zm.652,10.288h-2.025v-7.5h2.025Z" transform="translate(-659.564 -6685.659)"/>
      <path id="Trazado_107850" data-name="Trazado 107850" d="M672.568,6688.576l.089,1.075a2.76,2.76,0,0,1,.924-.9,2.4,2.4,0,0,1,1.228-.318,2.256,2.256,0,0,1,1.775.714,3.3,3.3,0,0,1,.638,2.239v4.689H675.19v-4.691a1.528,1.528,0,0,0-.305-1.075,1.223,1.223,0,0,0-.922-.314,1.526,1.526,0,0,0-.721.163,1.477,1.477,0,0,0-.535.461v5.458h-2.025v-7.5Z" transform="translate(-659 -6685.259)"/>
      <path id="Trazado_107851" data-name="Trazado 107851" d="M680.874,6696.227a3.38,3.38,0,0,1-2.594-1.041,3.724,3.724,0,0,1-.971-2.645v-.276a4.1,4.1,0,0,1,.919-2.753,3.428,3.428,0,0,1,4.824-.161,3.527,3.527,0,0,1,.839,2.477v1.1H679.41l-.014.041a1.941,1.941,0,0,0,.5,1.215,1.551,1.551,0,0,0,1.2.48,3.9,3.9,0,0,0,1.116-.137,4.961,4.961,0,0,0,.971-.427l.548,1.251a3.751,3.751,0,0,1-1.2.625A5.191,5.191,0,0,1,680.874,6696.227Zm-.18-6.229a1.054,1.054,0,0,0-.888.428,2.242,2.242,0,0,0-.4,1.132l.021.035h2.483v-.182a1.626,1.626,0,0,0-.3-1.029A1.083,1.083,0,0,0,680.694,6690Z" transform="translate(-657.816 -6685.259)"/>
      <path id="Trazado_107852" data-name="Trazado 107852" d="M688.358,6696.08a4.116,4.116,0,0,1-.191-.541,3.824,3.824,0,0,1-.114-.582,2.82,2.82,0,0,1-.821.909,2.068,2.068,0,0,1-1.217.361,2.532,2.532,0,0,1-1.817-.607,2.171,2.171,0,0,1-.639-1.655,1.983,1.983,0,0,1,.85-1.71,4.259,4.259,0,0,1,2.48-.605h1.131v-.6a1.173,1.173,0,0,0-.284-.841,1.328,1.328,0,0,0-1.6-.06.854.854,0,0,0-.266.664l-1.956-.007-.006-.042a1.91,1.91,0,0,1,.825-1.642,3.6,3.6,0,0,1,2.3-.688,3.349,3.349,0,0,1,2.185.682,2.37,2.37,0,0,1,.838,1.948v3.1a5.842,5.842,0,0,0,.081.99,4.856,4.856,0,0,0,.253.923Zm-1.852-1.352a1.723,1.723,0,0,0,.949-.264,1.379,1.379,0,0,0,.563-.61v-1.061h-1.131a1.351,1.351,0,0,0-.977.322,1.041,1.041,0,0,0-.334.78.779.779,0,0,0,.249.6A.973.973,0,0,0,686.507,6694.728Z" transform="translate(-656.7 -6685.259)"/>
      <path id="Trazado_107853" data-name="Trazado 107853" d="M693.1,6692.872a4.874,4.874,0,0,1,.767-2.864,2.486,2.486,0,0,1,2.16-1.088,2.118,2.118,0,0,1,1.012.242,2.444,2.444,0,0,1,.791.693v-4.113h2.033v10.821h-1.742l-.165-.917a2.5,2.5,0,0,1-.837.792,2.218,2.218,0,0,1-1.107.272,2.536,2.536,0,0,1-2.146-1.014,4.328,4.328,0,0,1-.767-2.679Zm2.019.148a3.069,3.069,0,0,0,.334,1.558,1.158,1.158,0,0,0,1.082.572,1.553,1.553,0,0,0,.762-.181,1.4,1.4,0,0,0,.534-.52v-3.216a1.566,1.566,0,0,0-.53-.554,1.389,1.389,0,0,0-.753-.2,1.142,1.142,0,0,0-1.085.662,3.76,3.76,0,0,0-.343,1.729Z" transform="translate(-654.995 -6685.741)"/>
      <path id="Trazado_107854" data-name="Trazado 107854" d="M703.532,6696.227a3.38,3.38,0,0,1-2.594-1.041,3.724,3.724,0,0,1-.971-2.645v-.276a4.1,4.1,0,0,1,.919-2.753,3.428,3.428,0,0,1,4.824-.161,3.527,3.527,0,0,1,.839,2.477v1.1h-4.481l-.014.041a1.947,1.947,0,0,0,.5,1.215,1.551,1.551,0,0,0,1.2.48,3.9,3.9,0,0,0,1.116-.137,4.959,4.959,0,0,0,.971-.427l.548,1.251a3.746,3.746,0,0,1-1.2.625A5.2,5.2,0,0,1,703.532,6696.227Zm-.18-6.229a1.055,1.055,0,0,0-.888.428,2.241,2.241,0,0,0-.4,1.132l.021.035h2.483v-.182a1.626,1.626,0,0,0-.3-1.029A1.082,1.082,0,0,0,703.352,6690Z" transform="translate(-653.77 -6685.259)"/>
      <path id="Trazado_107855" data-name="Trazado 107855" d="M668.691,6707.5l.014.042a3.288,3.288,0,0,1-1,2.587,4,4,0,0,1-2.84.958,3.944,3.944,0,0,1-2.962-1.172,4.158,4.158,0,0,1-1.137-3.018v-2a4.23,4.23,0,0,1,1.11-3.018,3.784,3.784,0,0,1,2.885-1.179,4.189,4.189,0,0,1,2.928.96,3.3,3.3,0,0,1,1.027,2.619l-.014.042h-1.971a2.2,2.2,0,0,0-.477-1.527,1.914,1.914,0,0,0-1.492-.533,1.688,1.688,0,0,0-1.443.739,3.128,3.128,0,0,0-.535,1.881v2.017a3.042,3.042,0,0,0,.562,1.894,2.044,2.044,0,0,0,2.924.231,2.223,2.223,0,0,0,.454-1.518Z" transform="translate(-660.77 -6683.07)"/>
      <path id="Trazado_107856" data-name="Trazado 107856" d="M670.7,6701.725h-2.026v-1.52H670.7Zm0,9.3h-2.026v-7.508H670.7Z" transform="translate(-659.358 -6683.157)"/>
      <path id="Trazado_107857" data-name="Trazado 107857" d="M673.663,6703.039l.09,1.076a2.741,2.741,0,0,1,.923-.894,2.383,2.383,0,0,1,1.228-.32,2.261,2.261,0,0,1,1.776.714,3.3,3.3,0,0,1,.638,2.242v4.689h-2.032v-4.695a1.525,1.525,0,0,0-.305-1.074,1.229,1.229,0,0,0-.922-.316,1.558,1.558,0,0,0-.722.164,1.47,1.47,0,0,0-.534.463v5.458h-2.026v-7.508Z" transform="translate(-658.804 -6682.677)"/>
      <path id="Trazado_107858" data-name="Trazado 107858" d="M681.123,6701.459v1.836h1.263v1.423h-1.263v3.822a.885.885,0,0,0,.182.626.643.643,0,0,0,.485.187,1.8,1.8,0,0,0,.273-.02,2.183,2.183,0,0,0,.268-.057l.173,1.464a4.266,4.266,0,0,1-.6.154,3.566,3.566,0,0,1-.63.054,2.15,2.15,0,0,1-1.612-.577,2.523,2.523,0,0,1-.566-1.824v-3.829H678V6703.3h1.1v-1.836Z" transform="translate(-657.693 -6682.934)"/>
      <path id="Trazado_107859" data-name="Trazado 107859" d="M687.41,6709.443a2.515,2.515,0,0,1-.881.906,2.591,2.591,0,0,1-3.083-.439,3.512,3.512,0,0,1-.669-2.362v-4.53h2.019v4.556a1.937,1.937,0,0,0,.278,1.178.97.97,0,0,0,.818.357,2.043,2.043,0,0,0,.832-.156,1.393,1.393,0,0,0,.568-.463v-5.472h2.026v7.508h-1.728Z" transform="translate(-656.84 -6682.655)"/>
      <path id="Trazado_107860" data-name="Trazado 107860" d="M693.567,6704.782l-.742-.021a1.35,1.35,0,0,0-.743.188,1.186,1.186,0,0,0-.443.526v5.072H689.62v-7.508h1.88l.091,1.11a2.37,2.37,0,0,1,.682-.918,1.528,1.528,0,0,1,.968-.33,1.49,1.49,0,0,1,.282.026c.085.015.172.035.259.058Z" transform="translate(-655.618 -6682.677)"/>
      <path id="Trazado_107861" data-name="Trazado 107861" d="M698.305,6710.546a4.592,4.592,0,0,1-.191-.541,3.942,3.942,0,0,1-.114-.583,2.786,2.786,0,0,1-.821.907,2.048,2.048,0,0,1-1.217.362,2.534,2.534,0,0,1-1.817-.608,2.173,2.173,0,0,1-.639-1.653,1.979,1.979,0,0,1,.851-1.71,4.236,4.236,0,0,1,2.479-.608h1.131v-.6a1.175,1.175,0,0,0-.284-.84,1.332,1.332,0,0,0-1.6-.058.85.85,0,0,0-.266.664l-1.955-.007-.007-.041a1.907,1.907,0,0,1,.825-1.642,3.6,3.6,0,0,1,2.3-.69,3.355,3.355,0,0,1,2.185.684,2.367,2.367,0,0,1,.839,1.945v3.1a5.865,5.865,0,0,0,.08.991,4.9,4.9,0,0,0,.253.924Zm-1.852-1.354a1.737,1.737,0,0,0,.95-.263,1.375,1.375,0,0,0,.562-.612v-1.061h-1.131a1.341,1.341,0,0,0-.977.324,1.044,1.044,0,0,0-.333.78.785.785,0,0,0,.25.6A.969.969,0,0,0,696.454,6709.192Z" transform="translate(-654.924 -6682.677)"/>
    </g>
    <g id="Grupo_55958" data-name="Grupo 55958" transform="translate(690.146 6605.97)">
      <path id="Trazado_107862" data-name="Trazado 107862" d="M682.352,6604.619h4.5v1.56h-6.52v-10.1h2.025Z" transform="translate(-680.161 -6595.358)"/>
      <path id="Trazado_107863" data-name="Trazado 107863" d="M688.205,6595.92h2.143l.014.043-1.921,1.8h-1.616Zm.652,10.287h-2.025v-7.5h2.025Z" transform="translate(-679 -6595.386)"/>
      <path id="Trazado_107864" data-name="Trazado 107864" d="M691.872,6598.3l.09,1.075a2.787,2.787,0,0,1,.923-.895,2.4,2.4,0,0,1,1.228-.318,2.265,2.265,0,0,1,1.776.713,3.3,3.3,0,0,1,.637,2.242v4.688h-2.032v-4.692a1.525,1.525,0,0,0-.305-1.075,1.231,1.231,0,0,0-.922-.315,1.558,1.558,0,0,0-.722.163,1.489,1.489,0,0,0-.534.461v5.458h-2.026V6598.3Z" transform="translate(-678.436 -6594.986)"/>
      <path id="Trazado_107865" data-name="Trazado 107865" d="M700.178,6605.953a3.379,3.379,0,0,1-2.594-1.041,3.719,3.719,0,0,1-.972-2.644v-.277a4.094,4.094,0,0,1,.921-2.753,3.426,3.426,0,0,1,4.823-.161,3.525,3.525,0,0,1,.839,2.478v1.1h-4.48l-.014.042a1.942,1.942,0,0,0,.5,1.215,1.553,1.553,0,0,0,1.2.478,3.932,3.932,0,0,0,1.117-.136,5.1,5.1,0,0,0,.971-.426l.548,1.251a3.751,3.751,0,0,1-1.2.624A5.2,5.2,0,0,1,700.178,6605.953Zm-.182-6.229a1.054,1.054,0,0,0-.887.429,2.252,2.252,0,0,0-.4,1.132l.02.035h2.484v-.182a1.628,1.628,0,0,0-.3-1.029A1.091,1.091,0,0,0,700,6599.724Z" transform="translate(-677.253 -6594.986)"/>
      <path id="Trazado_107866" data-name="Trazado 107866" d="M707.663,6605.807a4.2,4.2,0,0,1-.192-.541,3.883,3.883,0,0,1-.113-.583,2.792,2.792,0,0,1-.821.908,2.057,2.057,0,0,1-1.219.361,2.536,2.536,0,0,1-1.817-.608,2.171,2.171,0,0,1-.639-1.654,1.985,1.985,0,0,1,.851-1.711,4.253,4.253,0,0,1,2.48-.6h1.13v-.6a1.173,1.173,0,0,0-.284-.84,1.329,1.329,0,0,0-1.6-.059.844.844,0,0,0-.268.662l-1.955-.006-.007-.042a1.907,1.907,0,0,1,.825-1.641,3.6,3.6,0,0,1,2.3-.69,3.346,3.346,0,0,1,2.184.683,2.365,2.365,0,0,1,.839,1.946v3.1a5.989,5.989,0,0,0,.08.991,4.95,4.95,0,0,0,.253.923Zm-1.853-1.352a1.716,1.716,0,0,0,.95-.265,1.368,1.368,0,0,0,.562-.61v-1.062h-1.13a1.351,1.351,0,0,0-.978.324,1.045,1.045,0,0,0-.334.78.782.782,0,0,0,.25.6A.974.974,0,0,0,705.81,6604.455Z" transform="translate(-676.137 -6594.986)"/>
      <path id="Trazado_107867" data-name="Trazado 107867" d="M712.409,6602.6a4.874,4.874,0,0,1,.767-2.864,2.488,2.488,0,0,1,2.16-1.089,2.1,2.1,0,0,1,1.012.242,2.448,2.448,0,0,1,.791.694v-4.114h2.032v10.821h-1.741l-.166-.916a2.489,2.489,0,0,1-.837.792,2.229,2.229,0,0,1-1.106.27,2.538,2.538,0,0,1-2.146-1.012,4.326,4.326,0,0,1-.767-2.679Zm2.019.146a3.1,3.1,0,0,0,.332,1.561,1.158,1.158,0,0,0,1.082.569,1.579,1.579,0,0,0,.764-.178,1.421,1.421,0,0,0,.534-.521v-3.217a1.581,1.581,0,0,0-.53-.555,1.411,1.411,0,0,0-.753-.2,1.142,1.142,0,0,0-1.085.663,3.769,3.769,0,0,0-.343,1.729Z" transform="translate(-674.431 -6595.467)"/>
      <path id="Trazado_107868" data-name="Trazado 107868" d="M722.836,6605.953a3.381,3.381,0,0,1-2.594-1.041,3.718,3.718,0,0,1-.971-2.644v-.277a4.094,4.094,0,0,1,.919-2.753,3.427,3.427,0,0,1,4.824-.161,3.53,3.53,0,0,1,.838,2.478v1.1h-4.48l-.014.042a1.941,1.941,0,0,0,.5,1.215,1.554,1.554,0,0,0,1.2.478,3.929,3.929,0,0,0,1.116-.136,5.1,5.1,0,0,0,.971-.426l.548,1.251a3.75,3.75,0,0,1-1.2.624A5.191,5.191,0,0,1,722.836,6605.953Zm-.18-6.229a1.051,1.051,0,0,0-.887.429,2.243,2.243,0,0,0-.4,1.132l.02.035h2.484v-.182a1.629,1.629,0,0,0-.3-1.029A1.091,1.091,0,0,0,722.656,6599.724Z" transform="translate(-673.206 -6594.986)"/>
      <path id="Trazado_107869" data-name="Trazado 107869" d="M736.092,6597.64h-2.858v8.54h-2.026v-8.54h-2.844v-1.56h7.728Z" transform="translate(-671.582 -6595.358)"/>
      <path id="Trazado_107870" data-name="Trazado 107870" d="M734.927,6602.406a4.022,4.022,0,0,1,.936-2.749,3.262,3.262,0,0,1,2.594-1.072,3.3,3.3,0,0,1,2.608,1.068,4,4,0,0,1,.944,2.752v.146a4.011,4.011,0,0,1-.94,2.757,3.709,3.709,0,0,1-5.2,0,4.011,4.011,0,0,1-.939-2.757Zm2.019.143a3.262,3.262,0,0,0,.359,1.646,1.249,1.249,0,0,0,1.166.62,1.235,1.235,0,0,0,1.148-.624,3.237,3.237,0,0,0,.364-1.642v-.146a3.2,3.2,0,0,0-.368-1.627,1.245,1.245,0,0,0-1.159-.63,1.229,1.229,0,0,0-1.148.633,3.236,3.236,0,0,0-.363,1.624Zm1.873-6.752h2.143l.014.042-1.921,1.8h-1.617Z" transform="translate(-670.41 -6595.409)"/>
      <path id="Trazado_107871" data-name="Trazado 107871" d="M745.942,6600.043l-.742-.021a1.358,1.358,0,0,0-.742.187,1.192,1.192,0,0,0-.443.528v5.07h-2.019V6598.3h1.88l.091,1.11a2.375,2.375,0,0,1,.682-.919,1.526,1.526,0,0,1,.968-.329,1.63,1.63,0,0,1,.282.023c.085.017.172.037.259.059Z" transform="translate(-669.148 -6594.986)"/>
      <path id="Trazado_107872" data-name="Trazado 107872" d="M750.679,6605.807a4.386,4.386,0,0,1-.191-.541,3.877,3.877,0,0,1-.114-.583,2.778,2.778,0,0,1-.821.908,2.054,2.054,0,0,1-1.217.361,2.534,2.534,0,0,1-1.817-.608,2.171,2.171,0,0,1-.639-1.654,1.982,1.982,0,0,1,.851-1.711,4.248,4.248,0,0,1,2.479-.6h1.131v-.6a1.173,1.173,0,0,0-.284-.84,1.331,1.331,0,0,0-1.6-.059.847.847,0,0,0-.266.662l-1.955-.006-.007-.042a1.9,1.9,0,0,1,.825-1.641,3.592,3.592,0,0,1,2.3-.69,3.349,3.349,0,0,1,2.185.683,2.368,2.368,0,0,1,.839,1.946v3.1a5.866,5.866,0,0,0,.08.991,4.866,4.866,0,0,0,.253.923Zm-1.852-1.352a1.719,1.719,0,0,0,.95-.265,1.37,1.37,0,0,0,.562-.61v-1.062h-1.131a1.35,1.35,0,0,0-.977.324,1.045,1.045,0,0,0-.333.78.778.778,0,0,0,.25.6A.972.972,0,0,0,748.828,6604.455Z" transform="translate(-668.454 -6594.986)"/>
      <path id="Trazado_107873" data-name="Trazado 107873" d="M755.609,6600.667h.041l1.151-2.387h2.289l-2.261,3.712,2.338,3.793h-2.283l-1.228-2.49-1.228,2.49h-2.288l2.337-3.793-2.269-3.712h2.276Z" transform="translate(-667.336 -6594.965)"/>
      <path id="Trazado_107874" data-name="Trazado 107874" d="M682.065,6612.766l.085.992a2.514,2.514,0,0,1,.9-.835,2.6,2.6,0,0,1,1.26-.294,2.29,2.29,0,0,1,1.234.318,1.982,1.982,0,0,1,.778.964,2.6,2.6,0,0,1,.9-.943,2.456,2.456,0,0,1,1.3-.339,2.168,2.168,0,0,1,1.751.764,3.588,3.588,0,0,1,.641,2.334v4.543H688.9v-4.56a1.91,1.91,0,0,0-.278-1.19,1.012,1.012,0,0,0-.825-.332,1.417,1.417,0,0,0-.746.19,1.386,1.386,0,0,0-.5.532c0,.088,0,.164.007.227s.007.126.007.191v4.942h-2.019v-4.56a1.906,1.906,0,0,0-.278-1.178,1,1,0,0,0-.832-.344,1.554,1.554,0,0,0-.718.157,1.363,1.363,0,0,0-.51.44v5.484h-2.018v-7.5Z" transform="translate(-680.186 -6592.403)"/>
      <path id="Trazado_107875" data-name="Trazado 107875" d="M695.08,6620.687a4.122,4.122,0,0,1-.192-.542,3.788,3.788,0,0,1-.113-.581,2.806,2.806,0,0,1-.822.908,2.057,2.057,0,0,1-1.219.36,2.54,2.54,0,0,1-1.817-.606,2.175,2.175,0,0,1-.639-1.655,1.982,1.982,0,0,1,.851-1.71,4.241,4.241,0,0,1,2.48-.607h1.13v-.594a1.177,1.177,0,0,0-.284-.841,1.327,1.327,0,0,0-1.6-.059.848.848,0,0,0-.268.662l-1.955-.007-.007-.041a1.906,1.906,0,0,1,.825-1.64,3.6,3.6,0,0,1,2.3-.689,3.346,3.346,0,0,1,2.184.682,2.364,2.364,0,0,1,.839,1.946v3.1a5.987,5.987,0,0,0,.08.991,4.944,4.944,0,0,0,.253.923Zm-1.853-1.352a1.739,1.739,0,0,0,.95-.264,1.379,1.379,0,0,0,.562-.61V6617.4h-1.13a1.346,1.346,0,0,0-.978.324,1.042,1.042,0,0,0-.334.78.783.783,0,0,0,.25.6A.972.972,0,0,0,693.227,6619.335Zm.8-9.039h2.143l.014.042-1.921,1.8h-1.616Z" transform="translate(-678.384 -6592.818)"/>
      <path id="Trazado_107876" data-name="Trazado 107876" d="M700.009,6615.13h.042l1.15-2.385h2.289l-2.259,3.71,2.337,3.795h-2.283l-1.228-2.49-1.228,2.49h-2.288l2.337-3.795-2.268-3.71h2.275Z" transform="translate(-677.265 -6592.382)"/>
      <path id="Trazado_107877" data-name="Trazado 107877" d="M705.359,6611.451h-2.026v-1.52h2.026Zm0,9.3h-2.026v-7.5h2.026Z" transform="translate(-676.052 -6592.884)"/>
      <path id="Trazado_107878" data-name="Trazado 107878" d="M708.344,6612.766l.084.992a2.514,2.514,0,0,1,.9-.835,2.6,2.6,0,0,1,1.26-.294,2.294,2.294,0,0,1,1.235.318,1.98,1.98,0,0,1,.777.964,2.6,2.6,0,0,1,.9-.943,2.449,2.449,0,0,1,1.3-.339,2.168,2.168,0,0,1,1.751.764,3.582,3.582,0,0,1,.641,2.334v4.543h-2.025v-4.56a1.91,1.91,0,0,0-.278-1.19,1.012,1.012,0,0,0-.825-.332,1.42,1.42,0,0,0-.746.19,1.394,1.394,0,0,0-.5.532c0,.088,0,.164.007.227s.007.126.007.191v4.942H710.82v-4.56a1.915,1.915,0,0,0-.277-1.178,1,1,0,0,0-.832-.344,1.556,1.556,0,0,0-.719.157,1.36,1.36,0,0,0-.509.44v5.484h-2.019v-7.5Z" transform="translate(-675.493 -6592.403)"/>
      <path id="Trazado_107879" data-name="Trazado 107879" d="M716.629,6616.449a4.026,4.026,0,0,1,.936-2.75,3.266,3.266,0,0,1,2.594-1.071,3.3,3.3,0,0,1,2.608,1.067,4,4,0,0,1,.944,2.753v.146a4.009,4.009,0,0,1-.94,2.756,3.707,3.707,0,0,1-5.2,0,4.013,4.013,0,0,1-.939-2.756Zm2.019.143a3.259,3.259,0,0,0,.359,1.645,1.249,1.249,0,0,0,1.166.62,1.235,1.235,0,0,0,1.148-.624,3.24,3.24,0,0,0,.364-1.642v-.146a3.21,3.21,0,0,0-.368-1.628,1.246,1.246,0,0,0-1.159-.628,1.229,1.229,0,0,0-1.148.632,3.233,3.233,0,0,0-.363,1.624Z" transform="translate(-673.678 -6592.403)"/>
    </g>
    <g id="Grupo_55959" data-name="Grupo 55959" transform="translate(929.774 6605.97)">
      <path id="Trazado_107880" data-name="Trazado 107880" d="M885.671,6604.619h4.5v1.56h-6.521v-10.1h2.025Z" transform="translate(-883.48 -6595.358)"/>
      <path id="Trazado_107881" data-name="Trazado 107881" d="M891.524,6595.92h2.144l.014.043-1.921,1.8h-1.616Zm.652,10.287h-2.025v-7.5h2.025Z" transform="translate(-882.319 -6595.386)"/>
      <path id="Trazado_107882" data-name="Trazado 107882" d="M895.191,6598.3l.09,1.075a2.778,2.778,0,0,1,.924-.895,2.4,2.4,0,0,1,1.228-.318,2.263,2.263,0,0,1,1.775.713,3.3,3.3,0,0,1,.639,2.242v4.688h-2.033v-4.692a1.525,1.525,0,0,0-.305-1.075,1.229,1.229,0,0,0-.922-.315,1.55,1.55,0,0,0-.721.163,1.494,1.494,0,0,0-.535.461v5.458H893.3V6598.3Z" transform="translate(-881.755 -6594.986)"/>
      <path id="Trazado_107883" data-name="Trazado 107883" d="M903.5,6605.953a3.381,3.381,0,0,1-2.594-1.041,3.718,3.718,0,0,1-.971-2.644v-.277a4.094,4.094,0,0,1,.919-2.753,3.428,3.428,0,0,1,4.824-.161,3.53,3.53,0,0,1,.839,2.478v1.1h-4.481l-.014.042a1.942,1.942,0,0,0,.5,1.215,1.554,1.554,0,0,0,1.2.478,3.922,3.922,0,0,0,1.116-.136,5.1,5.1,0,0,0,.971-.426l.548,1.251a3.75,3.75,0,0,1-1.2.624A5.186,5.186,0,0,1,903.5,6605.953Zm-.18-6.229a1.052,1.052,0,0,0-.887.429,2.243,2.243,0,0,0-.4,1.132l.021.035h2.483v-.182a1.629,1.629,0,0,0-.3-1.029A1.091,1.091,0,0,0,903.317,6599.724Z" transform="translate(-880.571 -6594.986)"/>
      <path id="Trazado_107884" data-name="Trazado 107884" d="M910.981,6605.807a4.193,4.193,0,0,1-.191-.541,3.885,3.885,0,0,1-.114-.583,2.792,2.792,0,0,1-.821.908,2.054,2.054,0,0,1-1.217.361,2.534,2.534,0,0,1-1.817-.608,2.166,2.166,0,0,1-.639-1.654,1.983,1.983,0,0,1,.85-1.711,4.255,4.255,0,0,1,2.48-.6h1.131v-.6a1.172,1.172,0,0,0-.284-.84,1.331,1.331,0,0,0-1.6-.059.848.848,0,0,0-.266.662l-1.956-.006-.006-.042a1.9,1.9,0,0,1,.825-1.641,3.59,3.59,0,0,1,2.3-.69,3.349,3.349,0,0,1,2.185.683,2.368,2.368,0,0,1,.838,1.946v3.1a5.863,5.863,0,0,0,.081.991,4.862,4.862,0,0,0,.253.923Zm-1.852-1.352a1.715,1.715,0,0,0,.949-.265,1.366,1.366,0,0,0,.563-.61v-1.062H909.51a1.348,1.348,0,0,0-.977.324,1.04,1.04,0,0,0-.334.78.781.781,0,0,0,.249.6A.975.975,0,0,0,909.13,6604.455Z" transform="translate(-879.455 -6594.986)"/>
      <path id="Trazado_107885" data-name="Trazado 107885" d="M915.729,6602.6a4.874,4.874,0,0,1,.766-2.864,2.489,2.489,0,0,1,2.16-1.089,2.1,2.1,0,0,1,1.012.242,2.437,2.437,0,0,1,.791.694v-4.114h2.033v10.821H920.75l-.165-.916a2.51,2.51,0,0,1-.837.792,2.233,2.233,0,0,1-1.107.27,2.54,2.54,0,0,1-2.146-1.012,4.325,4.325,0,0,1-.766-2.679Zm2.018.146a3.083,3.083,0,0,0,.334,1.561,1.156,1.156,0,0,0,1.082.569,1.571,1.571,0,0,0,.763-.178,1.414,1.414,0,0,0,.534-.521v-3.217a1.572,1.572,0,0,0-.53-.555,1.411,1.411,0,0,0-.753-.2,1.143,1.143,0,0,0-1.085.663,3.769,3.769,0,0,0-.343,1.729Z" transform="translate(-877.75 -6595.467)"/>
      <path id="Trazado_107886" data-name="Trazado 107886" d="M926.155,6605.953a3.381,3.381,0,0,1-2.594-1.041,3.717,3.717,0,0,1-.971-2.644v-.277a4.1,4.1,0,0,1,.919-2.753,3.428,3.428,0,0,1,4.824-.161,3.525,3.525,0,0,1,.839,2.478v1.1h-4.481l-.014.042a1.949,1.949,0,0,0,.5,1.215,1.554,1.554,0,0,0,1.2.478,3.922,3.922,0,0,0,1.116-.136,5.069,5.069,0,0,0,.971-.426l.548,1.251a3.744,3.744,0,0,1-1.2.624A5.2,5.2,0,0,1,926.155,6605.953Zm-.18-6.229a1.055,1.055,0,0,0-.887.429,2.243,2.243,0,0,0-.4,1.132l.021.035h2.483v-.182a1.629,1.629,0,0,0-.3-1.029A1.089,1.089,0,0,0,925.975,6599.724Z" transform="translate(-876.525 -6594.986)"/>
      <path id="Trazado_107887" data-name="Trazado 107887" d="M939.411,6597.64h-2.858v8.54h-2.025v-8.54h-2.844v-1.56h7.727Z" transform="translate(-874.901 -6595.358)"/>
      <path id="Trazado_107888" data-name="Trazado 107888" d="M938.246,6602.406a4.028,4.028,0,0,1,.936-2.749,3.7,3.7,0,0,1,5.2,0,4,4,0,0,1,.944,2.752v.146a4.012,4.012,0,0,1-.94,2.757,3.709,3.709,0,0,1-5.2,0,4.017,4.017,0,0,1-.939-2.757Zm2.019.143a3.26,3.26,0,0,0,.361,1.646,1.387,1.387,0,0,0,2.314,0,3.238,3.238,0,0,0,.363-1.642v-.146a3.2,3.2,0,0,0-.367-1.627,1.246,1.246,0,0,0-1.16-.63,1.227,1.227,0,0,0-1.147.633,3.236,3.236,0,0,0-.364,1.624Zm1.873-6.752h2.143l.014.042-1.921,1.8h-1.617Z" transform="translate(-873.729 -6595.409)"/>
      <path id="Trazado_107889" data-name="Trazado 107889" d="M949.261,6600.043l-.743-.021a1.358,1.358,0,0,0-.742.187,1.193,1.193,0,0,0-.443.528v5.07h-2.019V6598.3h1.88l.091,1.11a2.384,2.384,0,0,1,.682-.919,1.529,1.529,0,0,1,.969-.329,1.605,1.605,0,0,1,.28.023c.085.017.172.037.26.059Z" transform="translate(-872.467 -6594.986)"/>
      <path id="Trazado_107890" data-name="Trazado 107890" d="M954,6605.807a4.375,4.375,0,0,1-.191-.541,3.728,3.728,0,0,1-.113-.583,2.783,2.783,0,0,1-.823.908,2.052,2.052,0,0,1-1.218.361,2.536,2.536,0,0,1-1.817-.608,2.171,2.171,0,0,1-.639-1.654,1.982,1.982,0,0,1,.851-1.711,4.251,4.251,0,0,1,2.479-.6h1.131v-.6a1.173,1.173,0,0,0-.284-.84,1.329,1.329,0,0,0-1.6-.059.845.845,0,0,0-.268.662l-1.955-.006-.007-.042a1.907,1.907,0,0,1,.825-1.641,3.6,3.6,0,0,1,2.3-.69,3.346,3.346,0,0,1,2.184.683,2.365,2.365,0,0,1,.839,1.946v3.1a5.866,5.866,0,0,0,.08.991,4.963,4.963,0,0,0,.253.923Zm-1.852-1.352a1.716,1.716,0,0,0,.95-.265,1.369,1.369,0,0,0,.562-.61v-1.062h-1.131a1.35,1.35,0,0,0-.977.324,1.045,1.045,0,0,0-.333.78.778.778,0,0,0,.25.6A.974.974,0,0,0,952.147,6604.455Z" transform="translate(-871.773 -6594.986)"/>
      <path id="Trazado_107891" data-name="Trazado 107891" d="M958.928,6600.667h.041l1.151-2.387h2.289l-2.26,3.712,2.338,3.793H960.2l-1.228-2.49-1.228,2.49h-2.288l2.337-3.793-2.268-3.712h2.275Z" transform="translate(-870.655 -6594.965)"/>
      <path id="Trazado_107892" data-name="Trazado 107892" d="M885.385,6612.766l.084.992a2.513,2.513,0,0,1,.9-.835,2.6,2.6,0,0,1,1.26-.294,2.294,2.294,0,0,1,1.235.318,1.979,1.979,0,0,1,.777.964,2.6,2.6,0,0,1,.9-.943,2.449,2.449,0,0,1,1.3-.339,2.167,2.167,0,0,1,1.751.764,3.581,3.581,0,0,1,.641,2.334v4.543h-2.025v-4.56a1.912,1.912,0,0,0-.278-1.19,1.012,1.012,0,0,0-.825-.332,1.419,1.419,0,0,0-.746.19,1.4,1.4,0,0,0-.5.532c0,.088,0,.164.007.227s.007.126.007.191v4.942h-2.019v-4.56a1.915,1.915,0,0,0-.277-1.178,1,1,0,0,0-.832-.344,1.556,1.556,0,0,0-.719.157,1.359,1.359,0,0,0-.509.44v5.484H883.5v-7.5Z" transform="translate(-883.505 -6592.403)"/>
      <path id="Trazado_107893" data-name="Trazado 107893" d="M898.4,6620.687a4.138,4.138,0,0,1-.191-.542,3.82,3.82,0,0,1-.114-.581,2.806,2.806,0,0,1-.821.908,2.054,2.054,0,0,1-1.217.36,2.538,2.538,0,0,1-1.817-.606,2.171,2.171,0,0,1-.639-1.655,1.981,1.981,0,0,1,.85-1.71,4.243,4.243,0,0,1,2.48-.607h1.131v-.594a1.177,1.177,0,0,0-.284-.841,1.329,1.329,0,0,0-1.6-.059.851.851,0,0,0-.266.662l-1.956-.007-.006-.041a1.9,1.9,0,0,1,.825-1.64,3.589,3.589,0,0,1,2.3-.689,3.349,3.349,0,0,1,2.185.682,2.367,2.367,0,0,1,.838,1.946v3.1a5.861,5.861,0,0,0,.081.991,4.852,4.852,0,0,0,.253.923Zm-1.852-1.352a1.739,1.739,0,0,0,.949-.264,1.375,1.375,0,0,0,.563-.61V6617.4h-1.131a1.343,1.343,0,0,0-.977.324,1.038,1.038,0,0,0-.334.78.782.782,0,0,0,.249.6A.973.973,0,0,0,896.547,6619.335Zm.8-9.039h2.144l.013.042-1.92,1.8h-1.617Z" transform="translate(-881.703 -6592.818)"/>
      <path id="Trazado_107894" data-name="Trazado 107894" d="M903.329,6615.13h.041l1.15-2.385h2.29l-2.26,3.71,2.337,3.795h-2.282l-1.228-2.49-1.228,2.49h-2.289l2.338-3.795-2.269-3.71h2.276Z" transform="translate(-880.584 -6592.382)"/>
      <path id="Trazado_107895" data-name="Trazado 107895" d="M908.678,6611.451h-2.026v-1.52h2.026Zm0,9.3h-2.026v-7.5h2.026Z" transform="translate(-879.371 -6592.884)"/>
      <path id="Trazado_107896" data-name="Trazado 107896" d="M911.663,6612.766l.084.992a2.507,2.507,0,0,1,.905-.835,2.6,2.6,0,0,1,1.259-.294,2.3,2.3,0,0,1,1.235.318,1.973,1.973,0,0,1,.777.964,2.6,2.6,0,0,1,.9-.943,2.449,2.449,0,0,1,1.3-.339,2.171,2.171,0,0,1,1.753.764,3.588,3.588,0,0,1,.641,2.334v4.543H918.5v-4.56a1.9,1.9,0,0,0-.279-1.19,1.011,1.011,0,0,0-.825-.332,1.419,1.419,0,0,0-.746.19,1.391,1.391,0,0,0-.5.532c0,.088,0,.164.007.227s.006.126.006.191v4.942H914.14v-4.56a1.914,1.914,0,0,0-.278-1.178,1,1,0,0,0-.832-.344,1.555,1.555,0,0,0-.718.157,1.356,1.356,0,0,0-.51.44v5.484h-2.019v-7.5Z" transform="translate(-878.812 -6592.403)"/>
      <path id="Trazado_107897" data-name="Trazado 107897" d="M919.948,6616.449a4.026,4.026,0,0,1,.936-2.75,3.7,3.7,0,0,1,5.2,0,4,4,0,0,1,.944,2.753v.146a4.008,4.008,0,0,1-.94,2.756,3.707,3.707,0,0,1-5.2,0,4.013,4.013,0,0,1-.939-2.756Zm2.019.143a3.257,3.257,0,0,0,.361,1.645,1.387,1.387,0,0,0,2.313,0,3.241,3.241,0,0,0,.363-1.642v-.146a3.211,3.211,0,0,0-.366-1.628,1.247,1.247,0,0,0-1.16-.628,1.228,1.228,0,0,0-1.147.632,3.235,3.235,0,0,0-.364,1.624Z" transform="translate(-876.997 -6592.403)"/>
    </g>
    <g id="Grupo_55960" data-name="Grupo 55960" transform="translate(769.915 6596.176)">
      <path id="Trazado_107898" data-name="Trazado 107898" d="M749.5,6590.3h.824a1,1,0,0,0,.774-.274,1.084,1.084,0,0,0,.252-.762.983.983,0,0,0-.252-.708.944.944,0,0,0-.728-.268,1.029,1.029,0,0,0-.694.242.793.793,0,0,0-.282.632h-1.424l-.009-.029a1.666,1.666,0,0,1,.659-1.418,2.623,2.623,0,0,1,1.71-.558,2.805,2.805,0,0,1,1.813.543,1.868,1.868,0,0,1,.676,1.548,1.567,1.567,0,0,1-.3.908,2.012,2.012,0,0,1-.831.672,1.869,1.869,0,0,1,.929.664,1.75,1.75,0,0,1,.318,1.042,1.9,1.9,0,0,1-.731,1.58,2.93,2.93,0,0,1-1.874.578,2.87,2.87,0,0,1-1.753-.542,1.728,1.728,0,0,1-.707-1.526l.011-.03H749.3a.9.9,0,0,0,.3.693,1.1,1.1,0,0,0,.765.273,1.112,1.112,0,0,0,.8-.282,1,1,0,0,0,.293-.762,1.106,1.106,0,0,0-.289-.846,1.211,1.211,0,0,0-.853-.268H749.5Z" transform="translate(-747.868 -6587.158)"/>
      <path id="Trazado_107899" data-name="Trazado 107899" d="M757.56,6593.275a.866.866,0,0,0,.629-.229.8.8,0,0,0,.236-.607h1.333l.015.03a1.692,1.692,0,0,1-.622,1.381,2.617,2.617,0,0,1-3.467-.214,2.934,2.934,0,0,1-.659-1.975v-.151a2.952,2.952,0,0,1,.656-1.977,2.319,2.319,0,0,1,1.874-.775,2.282,2.282,0,0,1,1.622.575,1.907,1.907,0,0,1,.6,1.508l-.011.031h-1.338a1.06,1.06,0,0,0-.231-.7.784.784,0,0,0-.639-.278.852.852,0,0,0-.821.451,2.474,2.474,0,0,0-.24,1.166v.151a2.458,2.458,0,0,0,.24,1.171A.856.856,0,0,0,757.56,6593.275Z" transform="translate(-746.59 -6586.872)"/>
      <path id="Trazado_107900" data-name="Trazado 107900" d="M761.126,6588.859l.06.719a1.834,1.834,0,0,1,.655-.607,1.885,1.885,0,0,1,.913-.214,1.662,1.662,0,0,1,.9.232,1.431,1.431,0,0,1,.563.7,1.865,1.865,0,0,1,.654-.684,1.767,1.767,0,0,1,.945-.248,1.573,1.573,0,0,1,1.271.556,2.6,2.6,0,0,1,.464,1.693v3.294h-1.468v-3.307a1.38,1.38,0,0,0-.2-.862.734.734,0,0,0-.6-.241,1.028,1.028,0,0,0-.541.138.992.992,0,0,0-.363.385c0,.065,0,.12,0,.164s0,.092,0,.139v3.584h-1.464v-3.307a1.379,1.379,0,0,0-.2-.854.727.727,0,0,0-.6-.249,1.162,1.162,0,0,0-.522.112,1.031,1.031,0,0,0-.369.321v3.978h-1.464v-5.441Z" transform="translate(-745.744 -6586.872)"/>
      <path id="Trazado_107901" data-name="Trazado 107901" d="M770.3,6592.8a.513.513,0,0,0-.233-.417,2.38,2.38,0,0,0-.867-.313,3.473,3.473,0,0,1-1.457-.58,1.262,1.262,0,0,1-.49-1.049,1.5,1.5,0,0,1,.591-1.194,2.4,2.4,0,0,1,1.582-.491,2.6,2.6,0,0,1,1.657.488,1.444,1.444,0,0,1,.592,1.233l-.009.03h-1.419a.717.717,0,0,0-.209-.534,1,1,0,0,0-1.171-.031.539.539,0,0,0-.2.434.5.5,0,0,0,.213.412,2.344,2.344,0,0,0,.869.287,3.541,3.541,0,0,1,1.493.59,1.3,1.3,0,0,1,.487,1.075,1.429,1.429,0,0,1-.628,1.2,2.723,2.723,0,0,1-1.659.465,2.523,2.523,0,0,1-1.717-.551,1.537,1.537,0,0,1-.6-1.255l.009-.029h1.344a.756.756,0,0,0,.286.632,1.176,1.176,0,0,0,.708.2,1.026,1.026,0,0,0,.622-.161A.515.515,0,0,0,770.3,6592.8Z" transform="translate(-744.43 -6586.872)"/>
    </g>
    <g id="Grupo_55961" data-name="Grupo 55961" transform="translate(859.692 6596.176)">
      <path id="Trazado_107902" data-name="Trazado 107902" d="M825.673,6590.3h.824a1,1,0,0,0,.774-.274,1.084,1.084,0,0,0,.252-.762.983.983,0,0,0-.252-.708.944.944,0,0,0-.728-.268,1.026,1.026,0,0,0-.694.242.792.792,0,0,0-.282.632h-1.424l-.009-.029a1.666,1.666,0,0,1,.659-1.418,2.621,2.621,0,0,1,1.71-.558,2.808,2.808,0,0,1,1.813.543,1.868,1.868,0,0,1,.677,1.548,1.561,1.561,0,0,1-.3.908,2.01,2.01,0,0,1-.83.672,1.861,1.861,0,0,1,.928.664,1.742,1.742,0,0,1,.319,1.042,1.9,1.9,0,0,1-.731,1.58,2.932,2.932,0,0,1-1.874.578,2.871,2.871,0,0,1-1.753-.542,1.725,1.725,0,0,1-.707-1.526l.011-.03h1.423a.9.9,0,0,0,.3.693,1.094,1.094,0,0,0,.765.273,1.112,1.112,0,0,0,.8-.282,1,1,0,0,0,.294-.762,1.106,1.106,0,0,0-.289-.846,1.213,1.213,0,0,0-.853-.268h-.824Z" transform="translate(-824.042 -6587.158)"/>
      <path id="Trazado_107903" data-name="Trazado 107903" d="M833.734,6593.275a.866.866,0,0,0,.629-.229.8.8,0,0,0,.236-.607h1.333l.015.03a1.7,1.7,0,0,1-.622,1.381,2.617,2.617,0,0,1-3.467-.214,2.934,2.934,0,0,1-.659-1.975v-.151a2.951,2.951,0,0,1,.656-1.977,2.319,2.319,0,0,1,1.874-.775,2.282,2.282,0,0,1,1.622.575,1.907,1.907,0,0,1,.6,1.508l-.011.031H834.6a1.06,1.06,0,0,0-.231-.7.784.784,0,0,0-.639-.278.855.855,0,0,0-.823.451,2.491,2.491,0,0,0-.239,1.166v.151a2.474,2.474,0,0,0,.239,1.171A.859.859,0,0,0,833.734,6593.275Z" transform="translate(-822.764 -6586.872)"/>
      <path id="Trazado_107904" data-name="Trazado 107904" d="M837.3,6588.859l.06.719a1.832,1.832,0,0,1,.655-.607,1.886,1.886,0,0,1,.913-.214,1.658,1.658,0,0,1,.895.232,1.426,1.426,0,0,1,.564.7,1.864,1.864,0,0,1,.654-.684,1.765,1.765,0,0,1,.944-.248,1.571,1.571,0,0,1,1.271.556,2.6,2.6,0,0,1,.466,1.693v3.294h-1.469v-3.307a1.379,1.379,0,0,0-.2-.862.734.734,0,0,0-.6-.241,1.026,1.026,0,0,0-.541.138.994.994,0,0,0-.363.385c0,.065,0,.12,0,.164s0,.092,0,.139v3.584h-1.463v-3.307a1.379,1.379,0,0,0-.2-.854.727.727,0,0,0-.6-.249,1.162,1.162,0,0,0-.522.112,1.033,1.033,0,0,0-.369.321v3.978h-1.464v-5.441Z" transform="translate(-821.918 -6586.872)"/>
      <path id="Trazado_107905" data-name="Trazado 107905" d="M846.478,6592.8a.513.513,0,0,0-.233-.417,2.379,2.379,0,0,0-.867-.313,3.474,3.474,0,0,1-1.457-.58,1.262,1.262,0,0,1-.49-1.049,1.5,1.5,0,0,1,.59-1.194,2.393,2.393,0,0,1,1.582-.491,2.6,2.6,0,0,1,1.657.488,1.443,1.443,0,0,1,.592,1.233l-.011.03h-1.418a.717.717,0,0,0-.209-.534,1,1,0,0,0-1.173-.031.542.542,0,0,0-.2.434.5.5,0,0,0,.213.412,2.338,2.338,0,0,0,.867.287,3.54,3.54,0,0,1,1.494.59,1.3,1.3,0,0,1,.487,1.075,1.432,1.432,0,0,1-.628,1.2,2.726,2.726,0,0,1-1.66.465,2.521,2.521,0,0,1-1.717-.551,1.533,1.533,0,0,1-.6-1.255l.009-.029h1.342a.759.759,0,0,0,.288.632,1.176,1.176,0,0,0,.708.2,1.021,1.021,0,0,0,.621-.161A.513.513,0,0,0,846.478,6592.8Z" transform="translate(-820.604 -6586.872)"/>
    </g>
  </g>
</svg>
