<svg xmlns="http://www.w3.org/2000/svg" width="231.53" height="528.279" viewBox="0 0 231.53 528.279">
  <g id="Grupo_55903" data-name="Grupo 55903" transform="translate(-555.68 -5959.304)">
    <rect id="Rectángulo_9953" data-name="Rectángulo 9953" width="231.53" height="528.28" rx="21.391" transform="translate(555.68 5959.304)" fill="#fff"/>
    <g id="Grupo_55902" data-name="Grupo 55902" transform="translate(599.201 5995.853)">
      <g id="Grupo_55885" data-name="Grupo 55885">
        <path id="Trazado_107684" data-name="Trazado 107684" d="M741.354,6045.918s-14.494-31.522-74.641-47.465c0,0-42.392-9.783-68.118,2.9,0,0-2.537,9.873,2.627,23.189s31.795,95.384,31.795,95.384v5.434s-22.465,36.506-23.371,65.13-.906,116.852-.906,116.852,0,4.892,6.522,6.884,34.784,15.4,34.784,15.4,39.675,12.862,59.786,0l10.689-8.876s4.347-1.813,4.528-12.682l.363-132.07s-2.9-34.965-11.957-45.473l-.181-6.159,11.775-43.48s4.167-9.784,6.7-14.674S741.354,6045.918,741.354,6045.918Z" transform="translate(-597.437 -5994.371)" fill="#fff"/>
        <path id="Trazado_107685" data-name="Trazado 107685" d="M685.292,6335.917c-17.27,0-34.314-5.429-35.386-5.777-.345-.159-28.365-13.438-34.775-15.4-6.812-2.083-6.89-7.167-6.89-7.383,0-.883.009-88.563.905-116.869.873-27.591,21.916-62.857,23.37-65.258v-5.208c-.959-2.954-26.73-82.308-31.758-95.278-5.164-13.318-2.751-23.1-2.646-23.508l.06-.231.215-.106c25.594-12.619,68.037-3.037,68.464-2.939,59.711,15.827,74.852,47.438,75,47.756l.1.218-.1.218c-.07.153-7.1,15.465-9.611,20.312-2.5,4.818-6.646,14.542-6.688,14.639l-11.732,43.337.173,5.9c8.97,10.674,11.843,44.2,11.962,45.629l-.362,132.114c-.173,10.409-4.125,12.8-4.768,13.124l-10.638,8.835C703.3,6334.451,694.266,6335.917,685.292,6335.917Zm-86.223-334.188c-.327,1.548-1.95,10.754,2.659,22.644,5.109,13.176,31.538,94.59,31.8,95.411l.025.162v5.582l-.077.125c-.224.364-22.4,36.717-23.292,64.873-.9,28.289-.905,115.953-.905,116.835,0,.182.106,4.539,6.153,6.386,6.483,1.98,33.7,14.879,34.853,15.426.332.1,39.611,12.616,59.281.032l10.769-8.919c.035-.016,4.037-1.9,4.208-12.21l.364-132.062c-.028-.3-2.988-34.873-11.832-45.132l-.12-.139-.19-6.422.021-.074,11.774-43.479c.066-.166,4.227-9.925,6.744-14.778,2.334-4.5,8.6-18.119,9.488-20.042-1.417-2.767-17.577-31.962-74.2-46.97C666.2,5998.882,624.355,5989.44,599.069,6001.729Z" transform="translate(-597.458 -5994.39)" fill="#999"/>
      </g>
      <path id="Trazado_107686" data-name="Trazado 107686" d="M615.064,6312.442l-.781,0c0-1.1.36-109.748.181-122.282a74.536,74.536,0,0,1,3.828-23.69l17.741-38.746.888-6.6c-.925-2.831-23.281-71.39-27.339-88.857a77.565,77.565,0,0,1,0-33.705l.754.2a76.768,76.768,0,0,0,0,33.327c4.115,17.714,27.117,88.166,27.348,88.877l.028.084-.011.088-.94,6.856-17.754,38.77a73.8,73.8,0,0,0-3.769,23.383C615.425,6202.687,615.069,6311.346,615.064,6312.442Z" transform="translate(-597.03 -5994.216)" fill="#999"/>
      <path id="Trazado_107687" data-name="Trazado 107687" d="M631.15,6320.02l-.781-.006c.007-.944.721-94.644.362-117.205-.359-22.643,5.225-36.966,5.281-37.108l12.291-33.261v-6.451c-.092-.833-9.435-87.612-10.868-100.685-1.437-13.132,1.641-30.145,1.671-30.314l.769.141c-.031.17-3.089,17.073-1.663,30.088,1.432,13.074,10.775,99.854,10.87,100.729l0,6.633-.025.064-12.318,33.334c-.058.15-5.587,14.342-5.229,36.817C631.871,6225.367,631.157,6319.075,631.15,6320.02Z" transform="translate(-596.086 -5994.365)" fill="#999"/>
      <path id="Trazado_107688" data-name="Trazado 107688" d="M659.542,6331.45l-.781-.006c.009-1.1.953-110.551,1.223-137.416.268-26.906,7.35-57.524,7.422-57.83l.05-5.215c0-.6-.134-61.114,0-82.338.134-21.286,8.227-45.132,8.31-45.372l.739.254c-.081.238-8.134,23.965-8.267,45.122-.134,21.222,0,81.729,0,82.337l-.06,5.3c-.081.39-7.145,30.927-7.412,57.746C660.5,6220.9,659.552,6330.349,659.542,6331.45Z" transform="translate(-594.902 -5994.019)" fill="#999"/>
      <path id="Trazado_107689" data-name="Trazado 107689" d="M687.369,6328.373l-1.086-196.339v-20.247h.781v20.245l1.086,196.337Z" transform="translate(-593.754 -5989.493)" fill="#999"/>
      <rect id="Rectángulo_9954" data-name="Rectángulo 9954" width="11.25" height="114.739" transform="translate(67.447 338.878)" fill="#313131"/>
      <rect id="Rectángulo_9955" data-name="Rectángulo 9955" width="1.041" height="134.444" transform="translate(13.321 319.631) rotate(-4.521)" fill="#313131"/>
      <rect id="Rectángulo_9956" data-name="Rectángulo 9956" width="1.042" height="130.02" transform="matrix(0.997, -0.073, 0.073, 0.997, 21.201, 323.982)" fill="#313131"/>
      <rect id="Rectángulo_9957" data-name="Rectángulo 9957" width="1.042" height="127.345" transform="translate(25.956 326.569) rotate(-3.691)" fill="#313131"/>
      <rect id="Rectángulo_9958" data-name="Rectángulo 9958" width="1.042" height="111.966" transform="translate(61.69 341.678) rotate(-1.043)" fill="#313131"/>
      <rect id="Rectángulo_9959" data-name="Rectángulo 9959" width="1.042" height="115.189" transform="translate(52.088 340.022) rotate(-1.262)" fill="#313131"/>
      <rect id="Rectángulo_9960" data-name="Rectángulo 9960" width="1.041" height="122.413" transform="translate(37.505 331.437) rotate(-3.309)" fill="#313131"/>
      <rect id="Rectángulo_9961" data-name="Rectángulo 9961" width="1.042" height="109.552" transform="translate(92.398 344.064)" fill="#313131"/>
      <rect id="Rectángulo_9962" data-name="Rectángulo 9962" width="109.56" height="1.042" transform="translate(98.414 453.61) rotate(-89.329)" fill="#313131"/>
      <rect id="Rectángulo_9963" data-name="Rectángulo 9963" width="1.042" height="115.039" transform="translate(110.322 338.577)" fill="#313131"/>
      <rect id="Rectángulo_9964" data-name="Rectángulo 9964" width="1.042" height="118.545" transform="translate(114.431 335.071)" fill="#313131"/>
      <rect id="Rectángulo_9965" data-name="Rectángulo 9965" width="127.116" height="1.042" transform="matrix(0.023, -1, 1, 0.023, 122.567, 453.604)" fill="#313131"/>
      <path id="Trazado_107690" data-name="Trazado 107690" d="M692.711,6383.676c-20.463,0-38.412-10.161-39.049-10.527-.265-.132-4.219-2.111-9.083-4.451a141.122,141.122,0,0,1-24.559-15.419c-.31-.34-6.128-7.013-4.793-13.836.709-3.627,3.315-6.579,7.743-8.775,15.4-7.628,38.472,2.809,39.446,3.256l36.936,15c15.039,6.683,22.558,13.327,22.363,19.755-.236,7.828-11.742,12.216-12.233,12.4A52.93,52.93,0,0,1,692.711,6383.676ZM636.2,6328.968a28.726,28.726,0,0,0-12.77,2.634c-4.12,2.042-6.538,4.746-7.183,8.038-1.239,6.314,4.431,12.825,4.49,12.891a140.915,140.915,0,0,0,24.292,15.229c5.019,2.414,9.071,4.443,9.111,4.464l.029.017c.286.166,28.867,16.56,54.964,7.857.1-.035,11.324-4.319,11.539-11.45.178-5.963-7.133-12.275-21.731-18.762L662,6334.878C661.812,6334.791,648.941,6328.968,636.2,6328.968Z" transform="translate(-596.726 -5980.481)" fill="#313131"/>
      <path id="Trazado_107691" data-name="Trazado 107691" d="M688.578,6429.292a51.388,51.388,0,0,1-14.323-1.911l-.006,0a125.675,125.675,0,0,1-11.669-4.69c-13.509-6.5-27.962-14.426-28.106-14.505-.627-.266-16.437-7.1-16.631-14.01-.066-2.342,1.62-4.381,5.011-6.062,15.4-7.63,38.472,2.806,39.446,3.254l36.936,15c10.163,3.572,15.389,7.417,15.508,11.422.141,4.718-6.795,7.685-7.09,7.808A49.278,49.278,0,0,1,688.578,6429.292Zm-14-2.9c.276.089,16.279,5.127,32.669-1.752.065-.027,6.572-2.813,6.451-6.819-.073-2.426-2.705-6.213-14.836-10.477l-36.98-15.022c-.254-.118-23.617-10.688-38.569-3.276-2.994,1.483-4.485,3.2-4.431,5.1.175,6.245,15.886,13.036,16.044,13.1.191.1,14.62,8.018,28.1,14.5A124.322,124.322,0,0,0,674.581,6426.392Z" transform="translate(-596.608 -5978.085)" fill="#313131"/>
      <path id="Trazado_107692" data-name="Trazado 107692" d="M709.5,6324.671c0-.975-.282-97.932.94-131.609a145.184,145.184,0,0,0-11.073-60.239l-.036-.166v-5.707l24.539-98.564.758.189-24.528,98.469.011,5.527a146.351,146.351,0,0,1,11.11,60.519c-1.222,33.662-.943,130.6-.94,131.579Z" transform="translate(-593.21 -5992.972)" fill="#999"/>
      <g id="Grupo_55886" data-name="Grupo 55886" transform="translate(107.435 35.234)">
        <rect id="Rectángulo_9966" data-name="Rectángulo 9966" width="1.042" height="0.782" transform="translate(24.287 1.011) rotate(-76)" fill="#999"/>
        <path id="Trazado_107693" data-name="Trazado 107693" d="M710.751,6320.2l0-2.08.781,0,0,2.081Zm-.008-4.162,0-2.08.781,0,0,2.082Zm.775-4.162h-.781l0-2.009.391-.072h0l.391.071Zm0-4.16h-.781v-2.081h.781Zm-.784-4.161v-2.081h.781v2.078Zm.78-4.161h-.781v-2.08h.781Zm0-4.159-.781,0v-2.081h.781Zm0-4.164h-.781l0-2.062.781-.019Zm0-4.163-.781,0,0-2.082.781,0Zm.006-4.163-.781,0,0-2.081h.781Zm.008-4.164-.781,0,.005-2.082.781,0Zm.008-4.161-.781,0,.005-2.083.781,0Zm.011-4.162-.781,0,.007-2.081.781,0Zm.014-4.163-.781,0,.008-2.082.781,0Zm.016-4.164-.781,0,.008-2.082.781,0Zm.018-4.16-.781,0,.01-2.089.781,0Zm.021-4.177-.781,0,.011-2.084.781,0Zm.021-4.165-.781-.006.014-2.066.391-.011.391.015Zm.027-4.159-.781,0,.013-2.077.781.006Zm.028-4.149-.781-.005.017-2.051.391-.028.391.035Zm.032-4.163-.781-.005.019-2.083.781.007Zm.036-4.162-.781-.008.021-2.081.781.008Zm.042-4.163-.781-.008.022-2.081.781.008Zm.045-4.162-.781-.008.025-2.083.781.01Zm.05-4.161-.781-.011.028-2.082.781.011Zm.058-4.162-.781-.013.03-2.081.781.013Zm.064-4.162-.781-.013.036-2.083.781.015Zm.075-4.162-.781-.014.041-2.083.781.016Zm.083-4.164-.781-.015.048-2.082.781.018Zm.1-4.161-.781-.02.056-2.083.781.022Zm.119-4.16-.781-.024.069-2.082.781.026Zm.134-4.165-.781-.018q.023-1.041.033-2.074l.781.006Q712.555,6190.132,712.531,6191.18Zm-.746-4.165q-.008-1.042-.03-2.075l.781-.017q.022,1.036.03,2.085Zm-.094-4.145c-.026-.7-.058-1.387-.093-2.075l.779-.041q.055,1.036.095,2.084Zm-.216-4.145q-.072-1.042-.155-2.07l.779-.063q.083,1.031.155,2.08Zm-.34-4.136q-.1-1.042-.216-2.064l.777-.087q.114,1.028.216,2.076Zm-.457-4.127q-.131-1.037-.273-2.056l.773-.108q.145,1.023.276,2.067Zm-.575-4.109q-.159-1.037-.331-2.049l.771-.13q.172,1.018.333,2.062Zm-.689-4.091q-.189-1.035-.388-2.042l.768-.149q.2,1.009.39,2.049Zm-.8-4.074q-.217-1.032-.443-2.028l.764-.173q.225,1,.444,2.04Zm-.914-4.05q-.242-1.028-.5-2.015l.757-.193q.253.994.5,2.029Zm-1.021-4.025q-.273-1.024-.552-2l.751-.214q.28.981.555,2.012Zm-1.131-3.992q-.309-1.027-.609-1.985l.744-.235q.3.965.614,2Zm-1.248-3.959q-.341-1.034-.668-1.965l.739-.259q.327.938.672,1.977Zm-1.368-3.921q-.392-1.063-.733-1.941l.728-.283q.344.884.738,1.955Zm-1.505-3.867c-.5-1.2-.8-1.84-.8-1.845l-.036-.166.467-.036.278-.13s.3.65.813,1.877Zm-.054-4.15h-.781v-2.081h.781Zm.132-4.048-.759-.19.5-2.018.758.189Zm1.005-4.037-.759-.189.5-2.018.759.189Zm1.005-4.037-.758-.189.5-2.018.759.189Zm1.005-4.038-.758-.189.5-2.018.759.189Zm1.006-4.037-.758-.189.5-2.018.758.189Zm1.005-4.037-.759-.189.5-2.018.758.189Zm1.006-4.037-.759-.189.5-2.018.758.189Zm1.005-4.037-.759-.189.5-2.018.759.189Zm1-4.037-.758-.189.5-2.018.759.189Zm1.006-4.038-.758-.189.5-2.018.759.189Zm1.005-4.037-.758-.189.5-2.018.758.189Zm1.006-4.037-.759-.189.5-2.018.758.189Zm1.005-4.037-.759-.189.5-2.018.758.189Zm1.006-4.037-.759-.189.5-2.018.759.189Zm1-4.037-.758-.189.5-2.018.759.189Zm1.005-4.038-.758-.189.5-2.018.759.189Zm1.006-4.037-.758-.189.5-2.018.758.189Zm1.005-4.037-.759-.189.5-2.018.758.189Zm1.006-4.036-.759-.19.5-2.018.758.188Zm1.005-4.037-.759-.19.5-2.018.759.188Zm1.005-4.037-.758-.19.5-2.018.759.188Zm1.005-4.038-.758-.19.5-2.018.759.188Zm1.005-4.037-.758-.19.5-2.018.758.188Zm1.006-4.037-.759-.19.5-2.018.758.188Z" transform="translate(-700.592 -6028.092)" fill="#999"/>
        <rect id="Rectángulo_9967" data-name="Rectángulo 9967" width="0.781" height="1.038" transform="translate(10.165 294.092)" fill="#999"/>
      </g>
      <g id="Grupo_55887" data-name="Grupo 55887" transform="translate(104.809 35.278)">
        <rect id="Rectángulo_9968" data-name="Rectángulo 9968" width="1.042" height="0.782" transform="translate(24.287 1.011) rotate(-76)" fill="#999"/>
        <path id="Trazado_107694" data-name="Trazado 107694" d="M708.335,6322.167l-.007-2.094.781,0,.007,2.092Zm-.013-4.188-.005-2.1.781,0,.005,2.1Zm-.011-4.19,0-2.093.781,0,0,2.093Zm-.007-4.188,0-2.1.781,0,0,2.1Zm-.007-4.188,0-2.093.781,0,0,2.093Zm.775-4.189h-.781l0-2.062.781-.032h-.391l.391.029Zm-.784-4.187v-2.1h.781v2.093Zm.778-4.189h-.781v-2.1h.781Zm0-4.188-.781,0v-2.093h.781Zm0-4.187-.781,0v-2.1h.781Zm0-4.193h-.781l0-2.086.781-.006Zm.005-4.186-.781,0,0-2.1.781,0Zm.007-4.192-.781,0,0-2.094.781,0Zm.008-4.189-.781,0,.005-2.083.781-.011Zm.009-4.188-.781,0,.007-2.092.781,0Zm.015-4.188-.781,0,.008-2.1.781,0Zm.016-4.2-.781,0,.009-2.1.781,0Zm.018-4.192-.781,0,.011-2.094.781,0Zm.023-4.187-.781,0,.011-2.09.781,0Zm.023-4.178-.781-.006.015-2.095.781.006Zm.028-4.188-.781-.006.017-2.064.391-.028.391.033Zm.032-4.189-.781-.006.018-2.1.781.006Zm.037-4.191-.781-.005.019-2.1.781.008Zm.04-4.189-.781-.008.022-2.1.781.009Zm.046-4.188-.781-.007.025-2.1.781.011Zm.054-4.189-.781-.01.028-2.1.781.012Zm.059-4.187-.781-.011.032-2.1.781.013Zm.07-4.191-.781-.012.038-2.095.781.014Zm.078-4.187-.781-.016.045-2.1.781.019Zm.093-4.188-.781-.021.053-2.094.781.02Zm.111-4.189-.781-.021.066-2.1.781.027Zm.139-4.187-.781-.024q.033-1.048.051-2.086l.781.012Q710.015,6191.259,709.981,6192.313Zm.069-4.2h-.781v-.109c0-.664-.005-1.322-.013-1.979l.781-.011q.013.99.014,1.99Zm-.843-4.176q-.031-1.05-.078-2.087l.781-.034q.047,1.042.078,2.1Zm-.187-4.172q-.064-1.048-.142-2.083l.779-.059q.078,1.041.142,2.1Zm-.311-4.165q-.094-1.048-.2-2.078l.777-.081q.108,1.036.2,2.09Zm-.433-4.153q-.125-1.047-.263-2.073l.775-.1q.138,1.031.263,2.084Zm-.551-4.142c-.1-.7-.209-1.384-.321-2.062l.772-.126q.166,1.025.322,2.075Zm-.67-4.123q-.184-1.041-.377-2.056l.767-.146q.2,1.019.38,2.064Zm-.781-4.1q-.212-1.036-.434-2.043l.764-.167q.22,1.009.437,2.053Zm-.9-4.081q-.242-1.036-.49-2.033l.759-.186q.247,1,.491,2.042Zm-1.006-4.057q-.272-1.033-.545-2.016l.752-.21q.275.99.548,2.027Zm-1.12-4.026q-.3-1.032-.6-2l.747-.23q.3.973.6,2.011Zm-1.233-3.992q-.337-1.038-.66-1.983l.739-.253q.325.948.665,1.993Zm-1.352-3.955q-.384-1.061-.728-1.958l.73-.278c.229.6.475,1.258.732,1.972Zm-1.49-3.9c-.347-.855-.625-1.5-.81-1.925l.717-.314c.188.427.467,1.08.818,1.946Zm-.323-4.123h-.781v-2.094h.781Zm-.01-4.152-.771-.083.011-.106.492-1.974.758.189Zm1-4-.759-.19.505-2.032.759.19Zm1.012-4.064-.758-.188.505-2.032.759.189Zm1.011-4.063-.759-.189.507-2.032.758.19Zm1.013-4.062-.759-.189.506-2.031.759.188Zm1.012-4.064-.758-.189.506-2.032.759.189Zm1.013-4.062-.759-.19.507-2.031.758.189Zm1.013-4.064-.759-.188.506-2.031.759.188Zm1.011-4.062-.758-.19.505-2.031.759.19Zm1.013-4.063-.759-.189.506-2.031.758.189Zm1.013-4.063-.759-.188L708.7,6084l.758.19Zm1.011-4.062-.758-.189.505-2.032.759.19Zm1.013-4.063-.758-.189.505-2.033.758.188Zm1.013-4.064-.759-.189.506-2.032.758.189Zm1.01-4.062-.758-.19.506-2.031.759.189Zm1.013-4.063-.758-.189.506-2.032.758.189Zm1.013-4.063-.759-.189.507-2.032.758.19Zm1.011-4.062-.758-.189.506-2.031.759.189Zm1.013-4.063-.758-.188.505-2.032.758.189Zm1.013-4.062-.759-.189.506-2.032.758.189Zm1.012-4.065-.758-.188.505-2.031.759.188Zm1.013-4.062-.758-.19.505-2.031.759.189Zm1.013-4.062-.759-.19.506-2.031.758.188Zm1.013-4.064-.759-.188.505-2.033.759.19Z" transform="translate(-698.071 -6028.133)" fill="#999"/>
        <path id="Trazado_107695" data-name="Trazado 107695" d="M707.935,6313.483l0-1.039.781,0,0,1.037Z" transform="translate(-697.66 -6016.404)" fill="#999"/>
      </g>
      <g id="Grupo_55888" data-name="Grupo 55888" transform="translate(34.161 117.191)" opacity="0.39">
        <path id="Trazado_107696" data-name="Trazado 107696" d="M720.639,6412.256s-5.833,10.6-47.14,2.715-42.755-16.033-42.755-16.033l.751-68.29v-115.5s-2.668-33.425,4.328-52.47c0,0,7.335-19.913,12.856-34.852.991-2.681-.478-3.016,0-5.5,1.057-5.48-1.362-12.387-1.362-13.677a98.626,98.626,0,0,1,12.5-1.26c2.941-.087,3.69,2.417,6.219,2.887,1.359.253,4.84-1.793,5.835-1.3,1.92.959,5.319,1.356,9.223,1.428,1.4.026.871-1.739,2.356-1.785.973-.031,1.424,1.338,2.776,1.9,1.844.768,4.81-.444,6.094-.546,1.946-.155,2.392,11.953,4.045,11.776,1.084-.117,2.895-11.435,3.775-11.541,2.4-.289,5.786-.618,5.786-.618l-.622,10.692,1.148-10.751,4.945-.322-2.153,11.073,2.624-11.044,8.722-.627s-4.791,2.5-4.428,15.545c.193,6.954,7.62,19.288,9.638,37.538,1.767,15.983,0,42.573,0,42.573l-1.949,80.076-2.046,46.3-1.073,45.633S719.551,6407.364,720.639,6412.256Z" transform="translate(-630.231 -6106.867)" fill="#999"/>
        <path id="Trazado_107697" data-name="Trazado 107697" d="M699.933,6418.435a143.536,143.536,0,0,1-26.511-2.932c-41.184-7.857-43.107-16.107-43.169-16.454l.743-68.386v-115.5c-.026-.294-2.595-33.716,4.36-52.649,0,0,7.336-19.913,12.857-34.853a3.8,3.8,0,0,0,.119-2.732,5.394,5.394,0,0,1-.142-2.682c.758-3.928-.319-8.6-.961-11.4a13.087,13.087,0,0,1-.41-2.178.521.521,0,0,1,.43-.513,100.079,100.079,0,0,1,12.573-1.27,5.765,5.765,0,0,1,3.9,1.579,5.5,5.5,0,0,0,2.432,1.319,7.9,7.9,0,0,0,2.658-.674c1.394-.5,2.6-.932,3.314-.577,1.664.832,4.692,1.3,9,1.375.368-.029.442-.133.669-.573a1.823,1.823,0,0,1,1.663-1.214,2.447,2.447,0,0,1,1.7.954,3.991,3.991,0,0,0,1.29.987c1.147.482,2.962.044,4.287-.275a11.322,11.322,0,0,1,1.566-.308c1.413-.155,1.963,2.461,2.751,6.668a23.022,23.022,0,0,0,1.254,4.989,38.83,38.83,0,0,0,1.651-5.717c1.109-4.547,1.44-5.619,2.143-5.7,2.408-.29,5.8-.62,5.8-.62a.542.542,0,0,1,.263.044.523.523,0,0,1,.28-.1l4.945-.322a.51.51,0,0,0,.467.029l8.721-.627a.5.5,0,0,1,.54.377.521.521,0,0,1-.26.6c-.041.023-4.495,2.605-4.149,15.068.078,2.822,1.4,6.607,3.074,11.4,2.4,6.861,5.379,15.4,6.562,26.094,1.751,15.845.02,42.4,0,42.665l-1.948,80.053-2.046,46.31-1.073,45.621c-.013.318-1.164,31.08-.1,35.851a.522.522,0,0,1-.051.365C720.936,6412.853,717.586,6418.435,699.933,6418.435Zm-68.646-19.547c.215.592,3.734,8.227,42.331,15.592,37.577,7.171,45.554-1.114,46.487-2.318-1.01-5.529.078-34.627.125-35.88l1.073-45.624,2.047-46.31,1.948-80.065c.019-.287,1.744-26.75,0-42.5-1.169-10.574-4.13-19.052-6.51-25.864-1.7-4.879-3.049-8.732-3.132-11.716-.252-9.1,1.979-13.217,3.46-14.929l-6.814.489-2.536,10.671a.514.514,0,0,1-.617.389.521.521,0,0,1-.4-.609l2.025-10.408-3.835.25-1.1,10.314a.541.541,0,0,1-.56.463.521.521,0,0,1-.477-.549l.587-10.084c-1.05.105-3.264.331-5.018.54a34.324,34.324,0,0,0-1.405,4.934c-1.252,5.135-1.708,6.537-2.527,6.624-1.2.127-1.666-1.951-2.414-5.949-.368-1.955-1.05-5.595-1.666-5.826a12.172,12.172,0,0,0-1.385.287c-1.545.371-3.468.831-4.929.224a4.943,4.943,0,0,1-1.632-1.22c-.408-.417-.663-.633-.927-.642-.426.013-.536.2-.769.649a1.682,1.682,0,0,1-1.574,1.137h-.04c-4.465-.083-7.643-.583-9.446-1.484a6.755,6.755,0,0,0-2.5.626,7.32,7.32,0,0,1-3.2.715,6.4,6.4,0,0,1-2.886-1.524,4.51,4.51,0,0,0-3.223-1.355,99.228,99.228,0,0,0-11.938,1.173c.068.378.193.918.328,1.511.663,2.875,1.771,7.688.971,11.833a4.387,4.387,0,0,0,.127,2.22,4.766,4.766,0,0,1-.15,3.356c-5.521,14.939-12.856,34.851-12.856,34.851-6.876,18.718-4.325,51.916-4.3,52.249l0,115.546Z" transform="translate(-630.252 -6106.889)" fill="#4d4d4d"/>
      </g>
      <g id="Grupo_55889" data-name="Grupo 55889" transform="translate(34.44 125.632)">
        <path id="Trazado_107698" data-name="Trazado 107698" d="M674.753,6124.037c-.768,0-1.544,0-2.334-.008-30.26-.235-40.753-8.085-41.184-8.418l.478-.619c.1.08,10.764,8.022,40.711,8.255,26.518.2,39.193-3.15,39.319-3.184l.205.753C711.826,6120.851,699.844,6124.037,674.753,6124.037Z" transform="translate(-630.49 -6114.992)" fill="#999"/>
        <path id="Trazado_107699" data-name="Trazado 107699" d="M675.276,6130.785q-1.419,0-2.835-.04c-28.332-.805-41.787-10.547-41.92-10.646l.467-.628c.13.1,13.415,9.694,41.475,10.493,19.523.559,40.008-4.936,40.213-4.991l.2.754C712.683,6125.78,694,6130.785,675.276,6130.785Z" transform="translate(-630.52 -6114.805)" fill="#999"/>
        <path id="Trazado_107700" data-name="Trazado 107700" d="M675.8,6130.4l-3.036-2.257,2.27-2.313-2.721-2.2.49-.608,3.391,2.737-2.245,2.289,2.317,1.722Z" transform="translate(-628.777 -6114.657)" fill="#999"/>
        <path id="Trazado_107701" data-name="Trazado 107701" d="M679.826,6130.4l-3.037-2.257,2.271-2.313-2.722-2.2.49-.608,3.392,2.737-2.245,2.289,2.317,1.722Z" transform="translate(-628.609 -6114.657)" fill="#999"/>
        <path id="Trazado_107702" data-name="Trazado 107702" d="M683.9,6130.2l-2.834-2.2,2.115-2.248-2.532-2.13.5-.6,3.165,2.663-2.093,2.222,2.155,1.669Z" transform="translate(-628.429 -6114.657)" fill="#999"/>
        <path id="Trazado_107703" data-name="Trazado 107703" d="M688,6129.742l-2.85-2.083,2.106-2.11-2.492-1.976.486-.612,3.178,2.521-2.081,2.083,2.115,1.545Z" transform="translate(-628.258 -6114.66)" fill="#999"/>
        <path id="Trazado_107704" data-name="Trazado 107704" d="M691.673,6129.282l-2.852-2.081,2.107-2.111-2.493-1.976.486-.613,3.179,2.521-2.082,2.084,2.115,1.544Z" transform="translate(-628.105 -6114.679)" fill="#999"/>
        <path id="Trazado_107705" data-name="Trazado 107705" d="M654.366,6128.968l-2.757-2.417,2.558-2.056-2.4-2.287.539-.565,3.045,2.9-2.528,2.032,2.057,1.8Z" transform="translate(-629.641 -6114.715)" fill="#999"/>
        <path id="Trazado_107706" data-name="Trazado 107706" d="M658.382,6129.381l-2.757-2.416,2.558-2.056-2.4-2.287.539-.566,3.045,2.9-2.528,2.032,2.057,1.8Z" transform="translate(-629.473 -6114.697)" fill="#999"/>
        <path id="Trazado_107707" data-name="Trazado 107707" d="M662.438,6129.919l-2.757-2.416,2.558-2.056-2.4-2.287.539-.566,3.045,2.9-2.528,2.032,2.057,1.8Z" transform="translate(-629.304 -6114.675)" fill="#999"/>
        <path id="Trazado_107708" data-name="Trazado 107708" d="M642.394,6126.142l-2.757-2.416,2.557-2.055-2.4-2.287.539-.565,3.047,2.9-2.529,2.03,2.057,1.8Z" transform="translate(-630.14 -6114.833)" fill="#999"/>
        <path id="Trazado_107709" data-name="Trazado 107709" d="M638.293,6124.426l-2.757-2.416,2.558-2.057-2.4-2.287.539-.565,3.045,2.9-2.528,2.032,2.057,1.8Z" transform="translate(-630.311 -6114.904)" fill="#999"/>
        <path id="Trazado_107710" data-name="Trazado 107710" d="M634.809,6123.108l-2.756-2.416,2.557-2.055-2.4-2.287.539-.565,3.047,2.9-2.529,2.03,2.056,1.8Z" transform="translate(-630.456 -6114.959)" fill="#999"/>
        <path id="Trazado_107711" data-name="Trazado 107711" d="M646.386,6127.306l-2.757-2.416,2.558-2.056-2.4-2.287.539-.566,3.045,2.9-2.528,2.032,2.057,1.8Z" transform="translate(-629.973 -6114.784)" fill="#999"/>
        <path id="Trazado_107712" data-name="Trazado 107712" d="M650.191,6128.1l-2.756-2.417,2.558-2.056-2.4-2.287.539-.565,3.046,2.9-2.528,2.032,2.056,1.8Z" transform="translate(-629.815 -6114.751)" fill="#999"/>
        <path id="Trazado_107713" data-name="Trazado 107713" d="M666.523,6130.276l-2.756-2.416,2.559-2.056-2.4-2.287.539-.565,3.046,2.9-2.528,2.031,2.056,1.8Z" transform="translate(-629.133 -6114.66)" fill="#999"/>
        <path id="Trazado_107714" data-name="Trazado 107714" d="M670.523,6130.353l-2.756-2.415,2.558-2.056-2.4-2.287.539-.566,3.046,2.9-2.528,2.031,2.056,1.8Z" transform="translate(-628.967 -6114.657)" fill="#999"/>
        <path id="Trazado_107715" data-name="Trazado 107715" d="M699.21,6127.845l-3.08-1.789,2.2-1.75-2.488-1.568.417-.661,3.418,2.156-2.164,1.722,2.092,1.215Z" transform="translate(-627.796 -6114.696)" fill="#999"/>
        <path id="Trazado_107716" data-name="Trazado 107716" d="M702.861,6127.18l-3.08-1.788,2.2-1.751-2.489-1.567.417-.662,3.419,2.155-2.164,1.723,2.092,1.215Z" transform="translate(-627.644 -6114.724)" fill="#999"/>
        <path id="Trazado_107717" data-name="Trazado 107717" d="M706.589,6126.5l-3.08-1.789,2.2-1.75-2.488-1.568.417-.661,3.418,2.156-2.164,1.722,2.092,1.214Z" transform="translate(-627.488 -6114.753)" fill="#999"/>
        <path id="Trazado_107718" data-name="Trazado 107718" d="M695.021,6128.251l-2.933-1.828,2.107-1.8-2.407-1.63.437-.647,3.257,2.2-2.076,1.775,2.027,1.265Z" transform="translate(-627.965 -6114.686)" fill="#999"/>
      </g>
      <g id="Grupo_55890" data-name="Grupo 55890" transform="translate(34.329 200.735)">
        <path id="Trazado_107719" data-name="Trazado 107719" d="M632.637,6189.392a16.134,16.134,0,0,1-2.224-1.522l.689-.781a15.861,15.861,0,0,0,2.069,1.407Z" transform="translate(-630.413 -6187.089)" fill="#666"/>
        <path id="Trazado_107720" data-name="Trazado 107720" d="M689.384,6199.314l-.01-1.042q2.573-.022,5.281-.1l.031,1.042Q691.966,6199.292,689.384,6199.314Zm-5.3-.007q-2.734-.034-5.3-.126l.036-1.042q2.556.091,5.278.126Zm15.906-.294-.049-1.04q2.578-.12,5.275-.293l.068,1.04Q702.572,6198.891,699.986,6199.013Zm-26.508-.092c-1.774-.109-3.555-.245-5.292-.4l.094-1.038c1.727.156,3.5.292,5.264.4Zm37.086-.6-.079-1.038,5.276-.406.079,1.038Zm-47.657-.366c-1.776-.22-3.545-.472-5.258-.751l.167-1.027c1.7.275,3.457.526,5.22.745Zm-10.484-1.715c-1.779-.369-3.522-.776-5.179-1.21l.265-1.007c1.64.43,3.364.833,5.126,1.2Zm-10.287-2.716c-1.776-.591-3.455-1.224-4.992-1.881l.411-.958c1.509.647,3.161,1.27,4.911,1.851Z" transform="translate(-630.132 -6186.939)" fill="#666"/>
        <rect id="Rectángulo_9969" data-name="Rectángulo 9969" width="2.605" height="1.042" transform="translate(90.929 9.528) rotate(-4.369)" fill="#666"/>
      </g>
      <g id="Grupo_55891" data-name="Grupo 55891" transform="translate(56.837 201.126)">
        <path id="Trazado_107721" data-name="Trazado 107721" d="M659.856,6195.07l-4.725-3.312-2.184.672s-.926.309-.926-.578l1.805-3.648s.878-1.562,1.593-.151l.709,2.572,4.3,3.321.7,1.193Z" transform="translate(-652.02 -6187.463)" fill="#666"/>
      </g>
      <g id="Grupo_55892" data-name="Grupo 55892" transform="translate(86.64 203.265)">
        <path id="Trazado_107722" data-name="Trazado 107722" d="M688.466,6197.124l-4.725-3.312-2.185.671s-.926.311-.926-.577l1.805-3.647s.878-1.562,1.593-.152l.709,2.573,4.3,3.321.7,1.192Z" transform="translate(-680.63 -6189.517)" fill="#666"/>
      </g>
      <g id="Grupo_55893" data-name="Grupo 55893" transform="translate(109.187 203.265)">
        <path id="Trazado_107723" data-name="Trazado 107723" d="M710.11,6197.124l-4.725-3.312-2.184.671s-.926.311-.926-.577l1.805-3.647s.879-1.562,1.593-.152l.709,2.573,4.3,3.321.695,1.192Z" transform="translate(-702.274 -6189.517)" fill="#666"/>
      </g>
      <g id="Grupo_55894" data-name="Grupo 55894" transform="translate(52.287 130.369)">
        <path id="Trazado_107724" data-name="Trazado 107724" d="M648.918,6127.146l4.725-3.311,2.184.671s.926.31.926-.578l-1.805-3.648s-.879-1.562-1.593-.152l-.709,2.573-4.3,3.321-.695,1.193Z" transform="translate(-647.652 -6119.539)" fill="#666"/>
      </g>
      <g id="Grupo_55895" data-name="Grupo 55895" transform="translate(72.602 132.403)">
        <path id="Trazado_107725" data-name="Trazado 107725" d="M668.42,6129.1l4.725-3.311,2.184.67s.927.311.926-.578l-1.805-3.647s-.878-1.562-1.592-.152l-.709,2.572-4.3,3.321-.7,1.193Z" transform="translate(-667.154 -6121.492)" fill="#666"/>
      </g>
      <g id="Grupo_55896" data-name="Grupo 55896" transform="translate(91.191 132.079)">
        <path id="Trazado_107726" data-name="Trazado 107726" d="M686.265,6128.787l4.725-3.311,2.184.672s.926.309.926-.579l-1.805-3.647s-.878-1.562-1.593-.152l-.709,2.572-4.3,3.321-.7,1.194Z" transform="translate(-684.999 -6121.181)" fill="#666"/>
      </g>
      <g id="Grupo_55897" data-name="Grupo 55897" transform="translate(103.077 128.345)">
        <path id="Trazado_107727" data-name="Trazado 107727" d="M702.157,6126.726l-2.816-5.036-2.258-.346s-.97-.124-.583-.923l3.213-2.5s1.47-1.025,1.5.555l-.48,2.625,2.427,4.859.107,1.377Z" transform="translate(-696.409 -6117.596)" fill="#666"/>
      </g>
      <g id="Grupo_55898" data-name="Grupo 55898" transform="translate(115.325 126.586)">
        <path id="Trazado_107728" data-name="Trazado 107728" d="M709.425,6122.538l5.22-2.458,2.039,1.033s.859.464,1.01-.412l-1.157-3.9s-.6-1.689-1.544-.421l-1.136,2.414-4.8,2.54-.888,1.057Z" transform="translate(-708.166 -6115.907)" fill="#666"/>
      </g>
      <g id="Grupo_55899" data-name="Grupo 55899" transform="translate(27.363 317.976)">
        <path id="Trazado_107729" data-name="Trazado 107729" d="M631.562,6307.242l-4.725-3.311-2.184.671s-.927.311-.926-.577l1.805-3.648s.878-1.562,1.593-.152l.708,2.571,4.3,3.321.7,1.194Z" transform="translate(-623.726 -6299.636)" fill="#666"/>
      </g>
      <g id="Grupo_55900" data-name="Grupo 55900" transform="translate(107.508 321.396)">
        <path id="Trazado_107730" data-name="Trazado 107730" d="M708.5,6310.525l-4.725-3.311-2.184.671s-.926.31-.926-.579l1.805-3.647s.879-1.562,1.593-.152l.709,2.572,4.3,3.321.695,1.194Z" transform="translate(-700.662 -6302.918)" fill="#666"/>
      </g>
      <g id="Grupo_55901" data-name="Grupo 55901" transform="translate(107.302 251.246)">
        <path id="Trazado_107731" data-name="Trazado 107731" d="M708.3,6243.184l-4.725-3.311-2.184.671s-.926.311-.926-.578l1.805-3.647s.878-1.562,1.593-.152l.709,2.572,4.3,3.321.7,1.194Z" transform="translate(-700.465 -6235.577)" fill="#666"/>
      </g>
    </g>
  </g>
</svg>
