<svg xmlns="http://www.w3.org/2000/svg" width="237.394" height="563.208" viewBox="0 0 237.394 563.208">
  <g id="Grupo_55863" data-name="Grupo 55863" transform="translate(-600.55 -5448)">
    <rect id="Rectángulo_9915" data-name="Rectángulo 9915" width="237.394" height="563.208" rx="13.846" transform="translate(600.55 5448)" fill="#fff"/>
    <g id="Grupo_55862" data-name="Grupo 55862" transform="translate(630.034 5471.003)">
      <g id="Grupo_55852" data-name="Grupo 55852">
        <path id="Trazado_107595" data-name="Trazado 107595" d="M788.892,5525.92s-16.468-35.818-84.81-53.933c0,0-48.169-11.116-77.4,3.293,0,0-2.882,11.219,2.984,26.349s36.127,108.381,36.127,108.381v6.176s-25.525,41.478-26.555,74-1.029,132.773-1.029,132.773,0,5.558,7.411,7.823,39.523,17.5,39.523,17.5,45.081,14.614,67.93,0l12.145-10.087s4.94-2.058,5.146-14.41l.412-150.065s-3.294-39.729-13.586-51.669l-.206-7,13.38-49.4s4.735-11.116,7.617-16.674S788.892,5525.92,788.892,5525.92Z" transform="translate(-625.365 -5467.349)" fill="#fff"/>
        <path id="Trazado_107596" data-name="Trazado 107596" d="M725.264,5855.495c-19.625,0-38.99-6.169-40.208-6.564-.392-.18-32.231-15.269-39.515-17.494-7.74-2.366-7.829-8.144-7.829-8.389,0-1,.012-100.631,1.03-132.793.992-31.349,24.9-71.419,26.554-74.149v-5.917c-1.089-3.356-30.372-93.523-36.087-108.259-5.867-15.134-3.125-26.245-3.006-26.708l.069-.264.244-.121c29.082-14.337,77.308-3.451,77.794-3.34,67.848,17.983,85.051,53.9,85.216,54.263l.112.247-.112.248c-.081.174-8.068,17.574-10.923,23.081-2.838,5.473-7.55,16.522-7.6,16.634l-13.331,49.242.2,6.7c10.194,12.128,13.458,50.222,13.592,51.845l-.409,150.115c-.2,11.827-4.687,14.547-5.418,14.912l-12.087,10.038C745.724,5853.829,735.458,5855.495,725.264,5855.495ZM627.29,5475.772c-.37,1.759-2.215,12.22,3.022,25.729,5.806,14.97,35.836,107.477,36.139,108.411l.029.182v6.343l-.088.142c-.255.414-25.455,41.721-26.466,73.712-1.018,32.144-1.03,131.753-1.03,132.756,0,.207.121,5.157,6.992,7.256,7.367,2.252,38.292,16.907,39.6,17.528.378.119,45.008,14.333,67.359.038l12.237-10.135c.04-.018,4.587-2.163,4.782-13.875l.412-150.056c-.032-.346-3.392-39.624-13.444-51.28l-.136-.159-.215-7.3.024-.084,13.381-49.405c.073-.188,4.8-11.277,7.661-16.792,2.654-5.115,9.777-20.588,10.782-22.773-1.61-3.143-19.972-36.317-84.307-53.37C703.565,5472.537,656.022,5461.811,627.29,5475.772Z" transform="translate(-625.46 -5467.433)" fill="#999"/>
      </g>
      <path id="Trazado_107597" data-name="Trazado 107597" d="M644.065,5828.253l-.888,0c0-1.247.408-124.7.206-138.944a84.727,84.727,0,0,1,4.349-26.918l20.161-44.024,1.006-7.5c-1.051-3.218-26.452-81.118-31.062-100.966a88.14,88.14,0,0,1,0-38.3l.857.23a87.223,87.223,0,0,0,0,37.867c4.677,20.128,30.81,100.181,31.073,100.987l.032.1-.013.1-1.065,7.791-20.174,44.053a83.811,83.811,0,0,0-4.282,26.569C644.474,5703.543,644.07,5827.008,644.065,5828.253Z" transform="translate(-623.573 -5466.667)" fill="#999"/>
      <path id="Trazado_107598" data-name="Trazado 107598" d="M659.258,5837.351l-.888-.007c.008-1.073.82-107.54.412-133.175-.408-25.728,5.938-42,6-42.165l13.967-37.792v-7.331c-.1-.947-10.721-99.549-12.349-114.4-1.633-14.92,1.863-34.253,1.9-34.445l.873.159c-.035.193-3.509,19.4-1.887,34.188,1.626,14.855,12.242,113.459,12.35,114.454l0,7.538-.027.075-14,37.875c-.066.17-6.348,16.295-5.942,41.833C660.078,5729.8,659.266,5836.277,659.258,5837.351Z" transform="translate(-619.416 -5467.323)" fill="#999"/>
      <path id="Trazado_107599" data-name="Trazado 107599" d="M687.65,5849.209l-.888-.007c.011-1.252,1.084-125.614,1.39-156.14.305-30.572,8.353-65.362,8.435-65.71l.057-5.925c0-.686-.151-69.441,0-93.557.153-24.187,9.348-51.282,9.442-51.554l.839.289c-.092.271-9.242,27.231-9.394,51.27-.151,24.113,0,92.865,0,93.556l-.069,6.027c-.092.443-8.119,35.142-8.423,65.615C688.734,5723.6,687.66,5847.958,687.65,5849.209Z" transform="translate(-614.202 -5465.802)" fill="#999"/>
      <path id="Trazado_107600" data-name="Trazado 107600" d="M715.519,5830.928l-1.236-223.091V5584.83h.888v23l1.236,223.089Z" transform="translate(-609.148 -5445.874)" fill="#999"/>
      <rect id="Rectángulo_9916" data-name="Rectángulo 9916" width="12.783" height="130.373" transform="translate(76.637 385.051)" fill="#313131"/>
      <rect id="Rectángulo_9917" data-name="Rectángulo 9917" width="1.183" height="152.763" transform="translate(15.136 363.182) rotate(-4.521)" fill="#313131"/>
      <rect id="Rectángulo_9918" data-name="Rectángulo 9918" width="1.184" height="147.736" transform="translate(24.09 368.126) rotate(-4.195)" fill="#313131"/>
      <rect id="Rectángulo_9919" data-name="Rectángulo 9919" width="1.184" height="144.696" transform="translate(29.493 371.065) rotate(-3.691)" fill="#313131"/>
      <rect id="Rectángulo_9920" data-name="Rectángulo 9920" width="1.184" height="127.221" transform="translate(70.097 388.234) rotate(-1.043)" fill="#313131"/>
      <rect id="Rectángulo_9921" data-name="Rectángulo 9921" width="1.184" height="130.884" transform="matrix(1, -0.022, 0.022, 1, 59.186, 386.351)" fill="#313131"/>
      <rect id="Rectángulo_9922" data-name="Rectángulo 9922" width="1.183" height="139.093" transform="translate(42.616 376.597) rotate(-3.309)" fill="#313131"/>
      <rect id="Rectángulo_9923" data-name="Rectángulo 9923" width="1.184" height="124.479" transform="translate(104.988 390.944)" fill="#313131"/>
      <rect id="Rectángulo_9924" data-name="Rectángulo 9924" width="124.489" height="1.184" transform="translate(111.824 515.417) rotate(-89.329)" fill="#313131"/>
      <rect id="Rectángulo_9925" data-name="Rectángulo 9925" width="1.184" height="130.714" transform="translate(125.355 384.709)" fill="#313131"/>
      <rect id="Rectángulo_9926" data-name="Rectángulo 9926" width="1.184" height="134.697" transform="translate(130.023 380.726)" fill="#313131"/>
      <rect id="Rectángulo_9927" data-name="Rectángulo 9927" width="144.436" height="1.184" transform="matrix(0.023, -1, 1, 0.023, 139.268, 515.409)" fill="#313131"/>
      <path id="Trazado_107601" data-name="Trazado 107601" d="M731.3,5864.321c-23.248,0-43.639-11.543-44.37-11.962-.3-.149-4.79-2.4-10.319-5.057a160.348,160.348,0,0,1-27.907-17.519c-.353-.387-6.963-7.97-5.447-15.723.807-4.122,3.768-7.476,8.8-9.971,17.5-8.667,43.711,3.192,44.819,3.7l41.97,17.049c17.088,7.593,25.632,15.143,25.412,22.447-.271,8.894-13.343,13.88-13.9,14.089A60.112,60.112,0,0,1,731.3,5864.321Zm-64.207-62.161a32.637,32.637,0,0,0-14.511,2.991c-4.682,2.321-7.429,5.394-8.162,9.133-1.407,7.175,5.035,14.573,5.1,14.647a160.117,160.117,0,0,0,27.6,17.305c5.7,2.743,10.307,5.05,10.352,5.072l.034.019c.323.188,32.8,18.812,62.453,8.929.109-.041,12.867-4.91,13.111-13.011.2-6.775-8.1-13.949-24.692-21.319L696.4,5808.873C696.189,5808.775,681.562,5802.16,667.091,5802.16Z" transform="translate(-622.233 -5406.188)" fill="#313131"/>
      <path id="Trazado_107602" data-name="Trazado 107602" d="M726.218,5908.325a58.407,58.407,0,0,1-16.275-2.171l-.007,0a142.675,142.675,0,0,1-13.26-5.329c-15.348-7.382-31.771-16.391-31.935-16.482-.713-.3-18.677-8.071-18.9-15.919-.076-2.66,1.842-4.978,5.695-6.887,17.5-8.672,43.711,3.19,44.819,3.7l41.97,17.048c11.548,4.06,17.485,8.428,17.62,12.978.16,5.36-7.72,8.731-8.055,8.872A56,56,0,0,1,726.218,5908.325Zm-15.9-3.3c.333.108,18.505,5.82,37.119-1.991.075-.031,7.469-3.2,7.33-7.748-.083-2.757-3.075-7.06-16.857-11.9l-42.021-17.069c-.289-.132-26.834-12.14-43.823-3.723-3.4,1.685-5.1,3.636-5.036,5.794.2,7.1,18.052,14.812,18.232,14.889.217.116,16.612,9.11,31.931,16.48C702.806,5902.458,710.118,5904.961,710.315,5905.029Z" transform="translate(-621.717 -5395.64)" fill="#313131"/>
      <path id="Trazado_107603" data-name="Trazado 107603" d="M738.882,5838.085c0-1.108-.318-111.274,1.069-149.541,1.385-38.152-12.441-68.15-12.581-68.448l-.043-.188v-6.484l27.882-111.994.863.214L728.2,5613.531l.012,6.279c.847,1.863,13.978,31.45,12.624,68.765-1.387,38.25-1.072,148.4-1.069,149.507Z" transform="translate(-606.752 -5461.19)" fill="#999"/>
      <g id="Grupo_55853" data-name="Grupo 55853" transform="translate(122.074 40.033)">
        <rect id="Rectángulo_9928" data-name="Rectángulo 9928" width="1.184" height="0.889" transform="translate(27.595 1.149) rotate(-76)" fill="#999"/>
        <path id="Trazado_107604" data-name="Trazado 107604" d="M740.137,5832.632l0-2.364.888,0,0,2.363Zm-.009-4.728,0-2.363.888,0,0,2.363Zm.881-4.729h-.888l0-2.284.444-.081h0l.444.08Zm0-4.728h-.888v-2.364H741Zm-.891-4.729v-2.364H741v2.361Zm.887-4.726h-.888v-2.363H741Zm0-4.728-.888,0V5801.9H741Zm0-4.731h-.888l0-2.344.888-.021Zm0-4.729-.888,0,0-2.365.888,0Zm.006-4.73-.888,0,0-2.365.888,0Zm.008-4.729-.888,0,.006-2.365.888,0Zm.011-4.73h-.888l.006-2.346.888-.019Zm.014-4.73-.888,0,.006-2.366.888,0Zm.013-4.729-.888,0,.009-2.365.888,0Zm.018-4.73-.888,0,.011-2.365.888,0Zm.02-4.728-.888-.005.012-2.373.888,0Zm.024-4.744-.888,0,.013-2.369.888,0Zm.025-4.732-.888-.007.015-2.348.444-.012.444.017Zm.031-4.727-.888-.006.016-2.359.888.006Zm.031-4.712-.888-.008.019-2.33.444-.032.444.039Zm.037-4.731-.888-.007.021-2.365.888.007Zm.043-4.729-.888-.008.023-2.365.888.008Zm.047-4.73-.888-.009.024-2.366.888.009Zm.051-4.729-.888-.009.027-2.366.888.012Zm.057-4.728-.888-.012.031-2.365.888.012Zm.066-4.729-.888-.015.034-2.365.888.014Zm.072-4.729-.888-.015.04-2.366.888.016Zm.084-4.73-.888-.016.046-2.366.888.019Zm.095-4.729-.888-.019.054-2.366.888.021Zm.114-4.727-.888-.024.064-2.366.888.025Zm.135-4.729-.888-.027.078-2.366.888.029Zm.154-4.732-.888-.02c.019-.789.031-1.575.038-2.355l.888.005Q742.187,5684.841,742.16,5686.031Zm-.847-4.732q-.009-1.184-.034-2.357l.888-.019q.025,1.178.034,2.37Zm-.107-4.711q-.044-1.188-.105-2.356l.887-.047q.062,1.178.107,2.369Zm-.244-4.708q-.082-1.184-.176-2.352l.885-.072q.1,1.173.176,2.364Zm-.386-4.7q-.115-1.184-.245-2.346l.883-.1q.129,1.167.245,2.358Zm-.52-4.688q-.149-1.179-.311-2.337l.878-.123q.163,1.162.314,2.349Zm-.655-4.671q-.181-1.178-.376-2.327l.877-.148q.194,1.156.378,2.341Zm-.781-4.647q-.215-1.178-.44-2.319l.871-.172q.226,1.149.443,2.328Zm-.911-4.631q-.247-1.173-.5-2.3l.868-.2q.256,1.14.505,2.317Zm-1.037-4.6c-.183-.777-.373-1.541-.562-2.289l.859-.219q.288,1.127.568,2.3Zm-1.16-4.572q-.311-1.163-.627-2.271l.853-.244c.212.743.423,1.507.631,2.287Zm-1.287-4.537q-.35-1.167-.692-2.256l.846-.265c.23.729.46,1.484.7,2.265Zm-1.417-4.5q-.389-1.172-.76-2.233l.839-.293q.371,1.067.762,2.247Zm-1.555-4.454q-.445-1.209-.833-2.207l.827-.322q.391,1.006.838,2.221Zm-1.71-4.395c-.567-1.365-.906-2.091-.908-2.1l-.041-.189.53-.041.316-.148s.344.739.923,2.133Zm-.062-4.716h-.888V5614.4h.888Zm.15-4.6-.863-.216.572-2.292.862.214Zm1.142-4.587-.863-.215.573-2.293.862.215Zm1.143-4.586-.863-.216.571-2.292.863.214Zm1.141-4.586-.862-.216.57-2.292.863.214Zm1.142-4.586-.862-.216.572-2.294.863.215Zm1.143-4.588-.862-.215.571-2.292.863.215Zm1.142-4.586-.863-.215.572-2.293.862.215Zm1.143-4.587-.863-.215.572-2.292.862.215Zm1.142-4.586-.863-.216.572-2.293.862.216Zm1.141-4.587-.862-.215.572-2.293.863.216Zm1.143-4.587-.862-.215.571-2.293.863.216Zm1.142-4.587-.862-.215.57-2.292.863.215Zm1.143-4.586-.863-.216.572-2.293.862.216Zm1.142-4.587-.863-.216.572-2.292.862.216Zm1.142-4.586-.863-.215.572-2.293.863.216Zm1.142-4.586-.862-.216.571-2.294.863.216Zm1.142-4.588-.862-.215.571-2.292.863.215Zm1.142-4.586-.862-.216.572-2.292.863.215Zm1.143-4.587-.863-.216.572-2.292.862.216Zm1.142-4.586-.863-.216.572-2.293.862.216Zm1.143-4.587-.863-.215.572-2.292.862.215Zm1.141-4.588-.862-.215.571-2.292.863.215Zm1.142-4.586-.862-.215.572-2.292.863.215Zm1.143-4.586-.862-.216.57-2.292.863.216Z" transform="translate(-728.594 -5500.721)" fill="#999"/>
        <rect id="Rectángulo_9929" data-name="Rectángulo 9929" width="0.888" height="1.179" transform="translate(11.547 334.165) rotate(-0.169)" fill="#999"/>
      </g>
      <g id="Grupo_55854" data-name="Grupo 55854" transform="translate(119.089 40.086)">
        <rect id="Rectángulo_9930" data-name="Rectángulo 9930" width="1.183" height="0.889" transform="translate(27.597 1.148) rotate(-76)" fill="#999"/>
        <path id="Trazado_107605" data-name="Trazado 107605" d="M737.734,5834.859l-.008-2.379.888,0,.008,2.378Zm-.014-4.76-.007-2.38.888,0,.007,2.38Zm-.012-4.759-.006-2.378.888,0,.006,2.378Zm-.011-4.758,0-2.381.888,0,0,2.381Zm-.008-4.76,0-2.378.888,0,0,2.378Zm.881-4.76h-.888l0-2.344.888-.037h-.444l.444.035Zm-.892-4.757v-2.38h.888v2.378Zm.885-4.761h-.888v-2.381h.888Zm0-4.757-.888,0v-2.378h.888Zm0-4.76-.888,0,0-2.382.888,0Zm.006-4.762h-.888l0-2.37.888-.009Zm0-4.758-.888,0,0-2.381.888,0Zm.011-4.761-.888,0,0-2.381.888,0Zm.01-4.759-.888,0,.006-2.366.888-.012Zm.009-4.76-.888,0,.008-2.379.888,0Zm.017-4.76-.888,0,.009-2.379.888-.005Zm.019-4.771-.888,0,.011-2.384.888.006Zm.02-4.764-.888,0,.013-2.379.888,0Zm.026-4.757-.888,0,.013-2.375.888,0Zm.027-4.747-.888-.007.016-2.38.888.007Zm.032-4.758-.888-.008.018-2.346.444-.032.444.038Zm.037-4.762-.888-.007.02-2.38.888.005Zm.042-4.757-.888-.008.022-2.382.888.009Zm.046-4.762-.888-.01.026-2.38.888.009Zm.052-4.759-.888-.01.028-2.382.888.011Zm.06-4.762-.888-.012.032-2.381.888.014Zm.068-4.756-.888-.014.038-2.382.888.014Zm.078-4.763-.888-.014.043-2.381.888.016Zm.091-4.757-.888-.019.051-2.382.888.021Zm.105-4.761-.888-.022.062-2.38.888.023Zm.127-4.758-.888-.026.075-2.384.888.031Zm.156-4.758-.888-.027q.039-1.192.058-2.37l.888.013Q739.643,5686.115,739.6,5687.313Zm.079-4.771H738.8v-.118q0-1.134-.017-2.254l.888-.015q.018,1.129.017,2.27Zm-.959-4.744q-.036-1.194-.089-2.371l.888-.039q.053,1.184.089,2.385Zm-.213-4.741q-.073-1.191-.16-2.367l.885-.067q.087,1.183.16,2.381Zm-.355-4.733q-.107-1.192-.23-2.361l.883-.093q.124,1.178.231,2.375Zm-.491-4.719q-.142-1.189-.3-2.354l.882-.119q.155,1.172.3,2.368Zm-.627-4.707q-.176-1.185-.363-2.343l.876-.144q.188,1.165.366,2.358Zm-.76-4.684q-.211-1.183-.43-2.334l.872-.167q.222,1.157.431,2.345Zm-.887-4.664q-.243-1.178-.494-2.323l.866-.189c.168.764.334,1.543.5,2.333Zm-1.02-4.638q-.275-1.177-.556-2.308l.863-.213q.281,1.136.559,2.32Zm-1.143-4.609q-.307-1.174-.619-2.291l.856-.237c.207.748.415,1.517.621,2.3Zm-1.271-4.573c-.23-.781-.458-1.541-.684-2.274l.849-.262c.226.738.457,1.5.686,2.286Zm-1.4-4.536c-.257-.787-.508-1.54-.752-2.253l.839-.286q.369,1.077.755,2.265Zm-1.538-4.494c-.29-.8-.568-1.547-.827-2.226l.831-.316c.259.683.539,1.432.831,2.241Zm-1.694-4.435c-.394-.972-.71-1.708-.919-2.186l.811-.357c.213.483.532,1.226.93,2.209Zm-.366-4.684h-.888V5615.2h.888Zm-.012-4.717-.876-.095.013-.12.559-2.244.862.214Zm1.134-4.552-.863-.215.575-2.308.862.215Zm1.149-4.616-.862-.215.574-2.309.863.215Zm1.151-4.617-.862-.214.574-2.31.862.215Zm1.15-4.617-.863-.215.575-2.308.862.216Zm1.148-4.618-.862-.214.575-2.308.863.214Zm1.15-4.616-.862-.216.575-2.308.862.216Zm1.151-4.617-.863-.214.576-2.309.862.214Zm1.15-4.618-.863-.213.575-2.31.863.216Zm1.149-4.615-.862-.216.574-2.308.863.215Zm1.15-4.618-.863-.214.575-2.309.862.215Zm1.151-4.616-.863-.216.574-2.309.863.216Zm1.149-4.617-.862-.214.574-2.31.863.215Zm1.151-4.618-.863-.214.575-2.309.862.214Zm1.15-4.616-.863-.215.574-2.308.863.216Zm1.148-4.616-.862-.216.575-2.308.863.214Zm1.151-4.618-.863-.214.576-2.309.862.215Zm1.15-4.616-.863-.215.575-2.309.863.216Zm1.149-4.617-.862-.215.575-2.307.863.213Zm1.15-4.617-.862-.215.574-2.309.862.215Zm1.151-4.617-.863-.216.575-2.308.862.214Zm1.149-4.618-.862-.214.574-2.31.863.216Zm1.151-4.616-.862-.216.574-2.308.862.215Zm1.151-4.618-.863-.214.575-2.308.862.213Z" transform="translate(-726.072 -5500.764)" fill="#999"/>
        <path id="Trazado_107606" data-name="Trazado 107606" d="M735.936,5786.667l0-1.179.888,0,0,1.177Z" transform="translate(-724.261 -5449.111)" fill="#999"/>
      </g>
      <g id="Grupo_55855" data-name="Grupo 55855" transform="translate(38.806 124.88)" opacity="0.39">
        <path id="Trazado_107607" data-name="Trazado 107607" d="M797.18,5918.857s-42.92,21.306-89.854,12.35-48.58-18.217-48.58-18.217l3.293-76.268,4.529-80.076,1.442-48.787s1.852-37.26.926-58.462c0,0,3.809-61.753,3.809-67.518,0,0,24.907-2.264,32.73,1.646s37.259-.412,37.259-.412l37.877-9.674s-2.264,21.614-1.852,36.435,1.852,70.813,1.852,70.813l3.706,67.932,4.941,51.256,4.22,78.532S795.945,5913.3,797.18,5918.857Z" transform="translate(-658.153 -5572.846)" fill="#999"/>
        <path id="Trazado_107608" data-name="Trazado 107608" d="M731.112,5934.067a127,127,0,0,1-23.8-2.186c-46.8-8.927-48.983-18.3-49.054-18.695a.592.592,0,0,1-.009-.129l3.3-76.269,4.53-80.083,1.439-48.77c.019-.385,1.841-37.488.927-58.42.039-.68,3.808-61.865,3.808-67.544a.593.593,0,0,1,.539-.59c1.021-.093,25.163-2.235,33.047,1.708,7.568,3.787,36.618-.425,36.909-.468l37.815-9.662a.578.578,0,0,1,.535.125.588.588,0,0,1,.2.509c-.021.216-2.255,21.746-1.849,36.359.412,14.821,1.852,70.813,1.852,70.813l3.7,67.914,4.939,51.232,4.222,78.557c.024.338,2.48,34.9,3.693,40.353a.594.594,0,0,1-.315.659C797.18,5919.656,767.637,5934.067,731.112,5934.067Zm-71.68-21.05c.236.645,4.206,9.329,48.1,17.7,43.773,8.352,84.57-9.987,89.071-12.1-1.255-6.72-3.527-38.68-3.625-40.073L788.756,5800l-4.939-51.231-3.706-67.955c0-.018-1.442-56.006-1.854-70.828-.362-13.037,1.362-31.525,1.771-35.67l-37.056,9.467c-1.27.189-29.772,4.319-37.671.367-6.96-3.479-28.237-1.927-31.88-1.631-.179,8.181-3.65,64.552-3.8,67.009.916,20.927-.909,58.084-.927,58.455l-1.439,48.776-4.53,80.091Z" transform="translate(-658.245 -5572.938)" fill="#4d4d4d"/>
      </g>
      <g id="Grupo_55856" data-name="Grupo 55856" transform="translate(39.134 142.749)">
        <path id="Trazado_107609" data-name="Trazado 107609" d="M708.7,5598.313c-.876,0-1.762,0-2.664-.011-34.385-.268-46.3-9.186-46.793-9.565l.543-.7c.117.091,12.229,9.114,46.257,9.38,30.179.233,44.535-3.579,44.677-3.616l.233.855C750.811,5594.692,737.2,5598.313,708.7,5598.313Z" transform="translate(-658.39 -5588.035)" fill="#999"/>
        <path id="Trazado_107610" data-name="Trazado 107610" d="M709.376,5605.368q-1.614,0-3.223-.044c-32.189-.915-47.479-11.984-47.631-12.1l.529-.713c.148.11,15.244,11.014,47.127,11.921,22.167.627,45.461-5.608,45.693-5.671l.231.857C751.881,5599.682,730.653,5605.368,709.376,5605.368Z" transform="translate(-658.522 -5587.211)" fill="#999"/>
        <path id="Trazado_107611" data-name="Trazado 107611" d="M704.273,5604.446l-3.45-2.564,2.58-2.628-3.093-2.494.557-.692,3.854,3.11-2.55,2.6,2.632,1.957Z" transform="translate(-650.848 -5586.559)" fill="#999"/>
        <path id="Trazado_107612" data-name="Trazado 107612" d="M708.3,5604.446l-3.45-2.564,2.58-2.628-3.093-2.494.557-.692,3.854,3.11-2.55,2.6,2.632,1.957Z" transform="translate(-650.108 -5586.559)" fill="#999"/>
        <path id="Trazado_107613" data-name="Trazado 107613" d="M712.349,5604.218l-3.22-2.5,2.4-2.554-2.878-2.422.571-.68,3.6,3.025-2.378,2.527,2.448,1.9Z" transform="translate(-649.316 -5586.56)" fill="#999"/>
        <path id="Trazado_107614" data-name="Trazado 107614" d="M716.445,5603.708l-3.239-2.366,2.394-2.4-2.833-2.245.552-.7,3.612,2.864-2.366,2.368,2.4,1.755Z" transform="translate(-648.56 -5586.57)" fill="#999"/>
        <path id="Trazado_107615" data-name="Trazado 107615" d="M720.115,5603.25l-3.24-2.365,2.394-2.4-2.833-2.244.552-.7,3.612,2.865-2.366,2.368,2.4,1.755Z" transform="translate(-647.886 -5586.655)" fill="#999"/>
        <path id="Trazado_107616" data-name="Trazado 107616" d="M682.743,5603.009l-3.131-2.745,2.907-2.336-2.728-2.6.613-.642,3.461,3.3-2.872,2.309,2.336,2.047Z" transform="translate(-654.649 -5586.814)" fill="#999"/>
        <path id="Trazado_107617" data-name="Trazado 107617" d="M686.76,5603.423l-3.133-2.746,2.907-2.336-2.728-2.6.613-.643,3.461,3.3-2.872,2.308,2.337,2.047Z" transform="translate(-653.911 -5586.737)" fill="#999"/>
        <path id="Trazado_107618" data-name="Trazado 107618" d="M690.815,5603.961l-3.133-2.745,2.907-2.336-2.728-2.6.613-.643,3.461,3.3-2.872,2.308,2.337,2.047Z" transform="translate(-653.167 -5586.638)" fill="#999"/>
        <path id="Trazado_107619" data-name="Trazado 107619" d="M670.77,5600.184l-3.131-2.745,2.907-2.336-2.728-2.6.613-.643,3.461,3.3-2.872,2.309,2.336,2.047Z" transform="translate(-656.848 -5587.332)" fill="#999"/>
        <path id="Trazado_107620" data-name="Trazado 107620" d="M666.67,5598.467l-3.131-2.746,2.907-2.336-2.728-2.6.613-.642,3.461,3.3-2.872,2.309,2.336,2.047Z" transform="translate(-657.601 -5587.647)" fill="#999"/>
        <path id="Trazado_107621" data-name="Trazado 107621" d="M663.186,5597.148l-3.132-2.744,2.907-2.336-2.727-2.6.613-.643,3.46,3.3-2.872,2.309,2.337,2.046Z" transform="translate(-658.241 -5587.889)" fill="#999"/>
        <path id="Trazado_107622" data-name="Trazado 107622" d="M674.762,5601.347l-3.131-2.745,2.907-2.337-2.728-2.6.613-.643,3.461,3.3-2.872,2.309,2.336,2.047Z" transform="translate(-656.115 -5587.118)" fill="#999"/>
        <path id="Trazado_107623" data-name="Trazado 107623" d="M678.569,5602.143l-3.133-2.745,2.907-2.335-2.727-2.6.613-.643,3.46,3.3-2.872,2.308,2.337,2.046Z" transform="translate(-655.416 -5586.972)" fill="#999"/>
        <path id="Trazado_107624" data-name="Trazado 107624" d="M694.9,5604.318l-3.132-2.746,2.907-2.336-2.728-2.6.613-.643,3.461,3.3-2.872,2.308,2.337,2.047Z" transform="translate(-652.416 -5586.573)" fill="#999"/>
        <path id="Trazado_107625" data-name="Trazado 107625" d="M698.9,5604.4l-3.132-2.746,2.907-2.336-2.727-2.6.613-.643,3.46,3.3-2.872,2.309,2.337,2.047Z" transform="translate(-651.682 -5586.559)" fill="#999"/>
        <path id="Trazado_107626" data-name="Trazado 107626" d="M727.67,5601.674l-3.5-2.031,2.5-1.99-2.827-1.781.474-.751,3.884,2.449-2.459,1.957,2.377,1.381Z" transform="translate(-646.527 -5586.734)" fill="#999"/>
        <path id="Trazado_107627" data-name="Trazado 107627" d="M731.321,5601.01l-3.5-2.032,2.5-1.989-2.827-1.781.474-.752,3.884,2.449-2.459,1.957,2.376,1.381Z" transform="translate(-645.856 -5586.855)" fill="#999"/>
        <path id="Trazado_107628" data-name="Trazado 107628" d="M735.05,5600.323l-3.5-2.031,2.5-1.99-2.827-1.781.474-.751,3.884,2.449-2.459,1.957,2.377,1.38Z" transform="translate(-645.171 -5586.981)" fill="#999"/>
        <path id="Trazado_107629" data-name="Trazado 107629" d="M723.463,5602.1l-3.332-2.077,2.4-2.047-2.735-1.852.5-.735,3.7,2.5-2.358,2.017,2.3,1.437Z" transform="translate(-647.27 -5586.685)" fill="#999"/>
      </g>
      <g id="Grupo_55857" data-name="Grupo 55857" transform="translate(39.007 228.086)">
        <path id="Trazado_107630" data-name="Trazado 107630" d="M660.941,5662.749a18.317,18.317,0,0,1-2.526-1.729l.782-.887a18.048,18.048,0,0,0,2.349,1.6Z" transform="translate(-658.415 -5660.132)" fill="#666"/>
        <path id="Trazado_107631" data-name="Trazado 107631" d="M719.835,5673.532q-3.178-.021-6.163-.115l.038-1.184q2.97.092,6.135.115Zm6.166-.021-.016-1.183q2.988-.042,6.138-.148l.039,1.183Q729,5673.469,726,5673.51Zm-18.489-.365c-2.082-.117-4.152-.263-6.153-.438l.1-1.178c1.99.173,4.048.32,6.118.435Zm30.808-.05-.063-1.181q2.3-.119,4.679-.275l1.449-.11.09,1.178-1.456.112Q740.623,5672.978,738.32,5673.1Zm12.287-.858-.09-1.179,6.135-.472.09,1.179Zm-55.385-.16c-2.081-.247-4.139-.531-6.116-.842l.186-1.17c1.961.31,4,.592,6.07.838Zm67.655-.783-.09-1.179,6.134-.473.09,1.18Zm-79.85-1.153c-2.064-.417-4.091-.883-6.025-1.381l.3-1.146c1.913.493,3.919.954,5.964,1.368Zm-11.968-3.111c-2.06-.676-4.014-1.405-5.807-2.17l.465-1.089c1.761.75,3.682,1.469,5.712,2.133Z" transform="translate(-657.159 -5659.463)" fill="#666"/>
        <rect id="Rectángulo_9931" data-name="Rectángulo 9931" width="2.96" height="1.184" transform="translate(117.921 9.707) rotate(-4.369)" fill="#666"/>
      </g>
      <g id="Grupo_55858" data-name="Grupo 55858" transform="translate(64.582 228.53)">
        <path id="Trazado_107632" data-name="Trazado 107632" d="M688.925,5669.149l-5.369-3.763-2.482.764s-1.053.351-1.052-.657l2.051-4.144s1-1.775,1.81-.173l.8,2.923,4.885,3.773.791,1.356Z" transform="translate(-680.022 -5660.506)" fill="#666"/>
      </g>
      <g id="Grupo_55859" data-name="Grupo 55859" transform="translate(98.446 230.961)">
        <path id="Trazado_107633" data-name="Trazado 107633" d="M717.535,5671.2l-5.369-3.762-2.482.764s-1.052.352-1.052-.657l2.051-4.145s1-1.774,1.81-.172l.8,2.923,4.885,3.773.791,1.355Z" transform="translate(-708.632 -5662.56)" fill="#666"/>
      </g>
      <g id="Grupo_55860" data-name="Grupo 55860" transform="translate(94.491 369.549)">
        <path id="Trazado_107634" data-name="Trazado 107634" d="M714.193,5788.29l-5.369-3.763-2.482.764s-1.052.352-1.052-.657l2.051-4.144s1-1.776,1.81-.173l.806,2.923,4.884,3.774.791,1.356Z" transform="translate(-705.29 -5779.646)" fill="#666"/>
      </g>
      <g id="Grupo_55861" data-name="Grupo 55861" transform="translate(104.988 369.549)">
        <path id="Trazado_107635" data-name="Trazado 107635" d="M715.6,5788.29l5.369-3.763,2.482.764s1.052.352,1.052-.657l-2.051-4.144s-1-1.776-1.81-.173l-.806,2.923-4.884,3.774-.791,1.356Z" transform="translate(-714.159 -5779.646)" fill="#666"/>
      </g>
    </g>
  </g>
</svg>
