<svg xmlns="http://www.w3.org/2000/svg" width="566.765" height="676.908" viewBox="0 0 566.765 676.908">
  <g id="Grupo_56092" data-name="Grupo 56092" transform="translate(-291.68 -8252.068)">
    <rect id="Rectángulo_10087" data-name="Rectángulo 10087" width="566.765" height="676.908" rx="21.913" transform="translate(291.68 8252.068)" fill="#fff"/>
    <g id="Grupo_56091" data-name="Grupo 56091" transform="translate(355.767 8275.364)">
      <g id="Grupo_56069" data-name="Grupo 56069" transform="translate(264.711)">
        <g id="Grupo_56061" data-name="Grupo 56061" transform="translate(0 24.328)">
          <path id="Trazado_108170" data-name="Trazado 108170" d="M729.8,8403.244a53.1,53.1,0,0,0,5.052-23.474l-3.637-27.1-42.844-13.931s-8.287-4.39-8.488-28.814h.91l1.212-7.635s-5.128-6.534-20.9-6.321v.006c-14.587-.095-19.358,6.315-19.358,6.315l1.146,7.635h.858c-.191,24.426-8.014,28.815-8.014,28.815l-40.456,13.93-3.434,27.1a55.64,55.64,0,0,0,4.771,23.473c1.526,25.189,18.129,107.055,18.129,107.055l.19,7.252c-12.576,20.466-17.738,50.745-19.754,67.988h0c-1.1,8.37-1.865,18.747-1.865,18.747s-1.146,78.146,0,96.608,15.313,18.606,24.9,20.324,38.268,1.574,38.268,1.574l3.233,0h2.735l3.234,0s28.678.144,38.267-1.574,23.759-1.86,24.9-20.324,0-96.608,0-96.608-.76-10.377-1.866-18.747h-.014c-2.087-16.433-6.846-45.024-16.574-67.988l.2-7.252S728.179,8428.434,729.8,8403.244Z" transform="translate(-591.281 -8295.421)" fill="#fff"/>
          <path id="Trazado_108171" data-name="Trazado 108171" d="M667.607,8723.394c-1.054,0-1.72,0-1.883,0l-5.965,0-3.235,0c-1.167.011-28.834.126-38.364-1.582-.964-.172-1.975-.33-3.014-.49-9.482-1.472-21.283-3.3-22.339-20.34-1.133-18.273-.012-95.868,0-96.65.009-.135.776-10.521,1.871-18.811,1.931-16.528,7.064-47.329,19.745-68.063l-.187-7.092c-.155-.722-16.569-81.859-18.121-106.927a57.109,57.109,0,0,1-4.779-23.622l3.482-27.5,40.779-14.043c-.018,0,7.344-4.538,7.639-27.746h-.777l-1.249-8.327.136-.184c.2-.268,5.033-6.537,19.473-6.537h.1l.214-.006c15.891-.179,21.128,6.257,21.344,6.532l.147.188-1.323,8.333h-.823c.313,23.209,8.114,27.739,8.193,27.782l43.082,14,3.684,27.439a54.59,54.59,0,0,1-5.056,23.694c-1.646,25.075-19.027,106.2-19.2,107.021L711,8517.5c9.77,23.12,14.525,52.1,16.513,67.6l.068.419c1.1,8.289,1.862,18.676,1.87,18.779.012.813,1.133,78.408,0,96.682-1.057,17.039-12.858,18.868-22.341,20.34-1.038.16-2.05.318-3.013.49C695.878,8723.278,674.19,8723.394,667.607,8723.394Zm-11.085-1.1,5.972,0,3.232,0c.292,0,28.741.124,38.172-1.564.972-.176,1.992-.334,3.039-.5,9.094-1.41,20.411-3.164,21.413-19.324,1.13-18.23.01-95.783,0-96.564-.005-.068-.742-10.033-1.8-18.208h0l-.076-.478c-1.952-15.368-6.694-44.615-16.536-67.844l-.046-.111.205-7.37c.188-.919,17.6-82.213,19.2-107.075l.063-.221a53.061,53.061,0,0,0,4.988-23.209l-3.586-26.691-42.517-13.823c-.437-.223-8.664-4.861-8.867-29.332l0-.553h1l1.1-6.915c-.934-.988-6.281-5.949-19.576-5.949h-.2v.009l-.552,0h-.314c-12.544,0-17.59,4.954-18.462,5.932l1.039,6.921h.938l0,.553c-.191,24.463-7.964,29.1-8.294,29.289l-40.224,13.858-3.392,26.76a55.457,55.457,0,0,0,4.717,23.159l.057.212c1.507,24.863,17.954,106.16,18.119,106.979l.205,7.511-.086.139c-12.632,20.558-17.751,51.28-19.676,67.763-1.092,8.267-1.857,18.624-1.864,18.726-.009.749-1.129,78.3,0,96.532,1,16.16,12.319,17.914,21.413,19.324,1.048.162,2.066.32,3.039.5C627.785,8722.418,656.237,8722.3,656.522,8722.293Z" transform="translate(-591.33 -8295.469)" fill="#999"/>
        </g>
        <g id="Grupo_56062" data-name="Grupo 56062" transform="translate(61.595)">
          <path id="Trazado_108172" data-name="Trazado 108172" d="M664.066,8284.569c0-5.947-3.6-10.771-8.051-10.771s-8.051,4.823-8.051,10.771c0,4.651,2.209,8.6,5.3,10.108v3.451h6.083v-3.762C662.128,8292.673,664.066,8288.927,664.066,8284.569Z" transform="translate(-647.416 -8273.25)" fill="#fff"/>
          <path id="Trazado_108173" data-name="Trazado 108173" d="M659.941,8298.727h-7.18v-3.666c-3.181-1.74-5.3-5.881-5.3-10.442,0-6.241,3.858-11.319,8.6-11.319s8.6,5.078,8.6,11.319c0,4.264-1.843,8.186-4.723,10.1Zm-6.082-1.1h4.985v-3.522l.263-.159c2.709-1.651,4.459-5.312,4.459-9.33,0-5.637-3.365-10.222-7.5-10.222s-7.5,4.585-7.5,10.222c0,4.3,2,8.159,4.988,9.616l.308.149Z" transform="translate(-647.465 -8273.299)" fill="#999"/>
        </g>
        <path id="Trazado_108174" data-name="Trazado 108174" d="M616.749,8716.8l-.667-121.349c-2.6-26.565,14.313-83.862,15.066-86.4-.054-3.127-1.512-85.851-3.723-104.66-2.631-22.383-13.614-63.059-13.725-63.467l1.059-.286c.111.409,11.114,41.162,13.755,63.625,2.248,19.13,3.718,104,3.733,104.854v.085l-.024.081c-.178.59-17.678,59.238-15.047,86.107l.669,121.4Z" transform="translate(-589.154 -8266.747)" fill="#999"/>
        <path id="Trazado_108175" data-name="Trazado 108175" d="M690.141,8717.526l-1.1-.068.793-12.784,3.483-109.239c2.633-26.915-13.179-85.884-13.34-86.476l-.022-.083,0-.084c.037-.852,3.767-85.4,6.014-104.521,2.641-22.463,13.645-63.216,13.755-63.625l1.059.286c-.111.408-11.094,41.085-13.724,63.467-2.213,18.816-5.867,101.238-6.005,104.356.681,2.546,15.958,60.143,13.353,86.749l-3.48,109.219Z" transform="translate(-582.709 -8266.747)" fill="#999"/>
        <path id="Trazado_108176" data-name="Trazado 108176" d="M596.961,8397.735l-1.072-.231c1.07-4.962,1.409-10.888,1.132-19.809-.281-9.1-3.306-23.539-3.337-23.684l1.074-.229c.03.147,3.076,14.68,3.36,23.878C598.4,8386.677,598.052,8392.681,596.961,8397.735Z" transform="translate(-591.101 -8265.469)" fill="#999"/>
        <path id="Trazado_108177" data-name="Trazado 108177" d="M716.861,8397.76c-1.091-5.052-1.437-11.058-1.159-20.074.285-9.2,3.474-24.019,3.507-24.167l1.072.232c-.032.146-3.2,14.87-3.482,23.969-.275,8.923.064,14.849,1.133,19.809Z" transform="translate(-579.241 -8265.494)" fill="#999"/>
        <path id="Trazado_108178" data-name="Trazado 108178" d="M633.352,8336.1l-.71-.834a40.628,40.628,0,0,1,24.113-8.293h.1c13.07,0,19.795,3.777,24.709,6.535.929.521,1.807,1.014,2.624,1.418l-.486.982c-.842-.414-1.731-.914-2.674-1.443-4.821-2.707-11.412-6.365-24.27-6.393A39.486,39.486,0,0,0,633.352,8336.1Z" transform="translate(-587.312 -8268.075)" fill="#999"/>
        <g id="Grupo_56063" data-name="Grupo 56063" transform="translate(22.885 238.447)">
          <path id="Trazado_108179" data-name="Trazado 108179" d="M612.705,8491.3s40.776,13.167,95.861,0l-.2,7.252s-27.2,5.409-47.729,5.344c-21.99-.071-41.633-3.627-47.74-5.344Z" transform="translate(-612.135 -8490.54)" fill="#fff"/>
          <path id="Trazado_108180" data-name="Trazado 108180" d="M661.057,8504.511h-.373c-22.026-.071-41.773-3.646-47.887-5.364l-.389-.109-.222-8.429.737.236c.407.134,41.277,12.965,95.566-.011l.7-.167-.234,8.4-.43.085C708.25,8499.208,681.364,8504.511,661.057,8504.511Zm-47.573-6.313c6.479,1.742,25.74,5.146,47.2,5.216h.371c18.8,0,43.287-4.572,46.82-5.251l.17-6.1c-50.258,11.836-88.97,1.705-94.724.045Z" transform="translate(-612.186 -8490.607)" fill="#999"/>
        </g>
        <g id="Grupo_56064" data-name="Grupo 56064" transform="translate(24.018 238.925)">
          <path id="Trazado_108181" data-name="Trazado 108181" d="M649.738,8503.945l-2.494-2.405,1.879-2.482-2.273-2.38.676-.6,2.786,2.917-1.86,2.458,1.938,1.865Z" transform="translate(-609.948 -8490.552)" fill="#999"/>
          <path id="Trazado_108182" data-name="Trazado 108182" d="M653.3,8503.945l-2.494-2.405,1.878-2.482-2.273-2.38.676-.6,2.786,2.917-1.858,2.458,1.938,1.865Z" transform="translate(-609.601 -8490.552)" fill="#999"/>
          <path id="Trazado_108183" data-name="Trazado 108183" d="M631.662,8502.618l-2.346-2.768,2.2-2.378-2.094-2.685.756-.59,2.6,3.327-2.179,2.354,1.8,2.119Z" transform="translate(-611.653 -8490.734)" fill="#999"/>
          <path id="Trazado_108184" data-name="Trazado 108184" d="M634.985,8502.9l-2.209-2.605,2.073-2.241-1.972-2.528.712-.554,2.444,3.132-2.052,2.217,1.693,2Z" transform="translate(-611.317 -8490.66)" fill="#999"/>
          <path id="Trazado_108185" data-name="Trazado 108185" d="M638.524,8503.245l-2.182-2.572,2.047-2.214-1.948-2.5.7-.547,2.411,3.094-2.024,2.19,1.672,1.97Z" transform="translate(-610.97 -8490.616)" fill="#999"/>
          <path id="Trazado_108186" data-name="Trazado 108186" d="M621.42,8500.645l-2.346-2.764,2.2-2.381-2.094-2.686.756-.588,2.593,3.326-2.176,2.355,1.8,2.119Z" transform="translate(-612.65 -8490.927)" fill="#999"/>
          <path id="Trazado_108187" data-name="Trazado 108187" d="M618.212,8500.126l-2.346-2.765,2.2-2.38-2.094-2.685.756-.589,2.593,3.326-2.176,2.354,1.8,2.119Z" transform="translate(-612.962 -8490.979)" fill="#999"/>
          <path id="Trazado_108188" data-name="Trazado 108188" d="M615.565,8499.461l-2.346-2.766,2.2-2.379-2.094-2.686.756-.588,2.6,3.324-2.179,2.355,1.8,2.119Z" transform="translate(-613.219 -8491.043)" fill="#999"/>
          <path id="Trazado_108189" data-name="Trazado 108189" d="M624.7,8501.342l-2.346-2.768,2.2-2.377-2.094-2.686.756-.59,2.593,3.328-2.176,2.353,1.8,2.119Z" transform="translate(-612.331 -8490.859)" fill="#999"/>
          <path id="Trazado_108190" data-name="Trazado 108190" d="M628.226,8502.146l-2.347-2.767,2.2-2.379-2.094-2.684.756-.59,2.6,3.326-2.179,2.354,1.8,2.119Z" transform="translate(-611.988 -8490.78)" fill="#999"/>
          <path id="Trazado_108191" data-name="Trazado 108191" d="M642.264,8503.6l-2.255-2.562,2.116-2.205-2.013-2.489.727-.546,2.5,3.084-2.095,2.182,1.728,1.965Z" transform="translate(-610.613 -8490.579)" fill="#999"/>
          <path id="Trazado_108192" data-name="Trazado 108192" d="M645.926,8503.6l-2.256-2.563,2.116-2.207-2.013-2.487.727-.547,2.5,3.085-2.095,2.181,1.729,1.966Z" transform="translate(-610.257 -8490.579)" fill="#999"/>
          <path id="Trazado_108193" data-name="Trazado 108193" d="M672.02,8503.188l-2.633-2.253,1.727-2.591L668.7,8496.1l.639-.642,2.956,2.746-1.709,2.564,2.046,1.747Z" transform="translate(-607.822 -8490.612)" fill="#999"/>
          <path id="Trazado_108194" data-name="Trazado 108194" d="M675.4,8502.863l-2.633-2.253,1.726-2.592-2.412-2.24.639-.64,2.956,2.744-1.708,2.564,2.046,1.747Z" transform="translate(-607.493 -8490.644)" fill="#999"/>
          <path id="Trazado_108195" data-name="Trazado 108195" d="M678.987,8502.472l-2.633-2.253,1.726-2.591-2.412-2.24.639-.64,2.956,2.744-1.708,2.565,2.046,1.748Z" transform="translate(-607.145 -8490.683)" fill="#999"/>
          <path id="Trazado_108196" data-name="Trazado 108196" d="M681.991,8502.167l-2.633-2.253,1.726-2.59-2.412-2.24.639-.641,2.956,2.745-1.708,2.564,2.046,1.748Z" transform="translate(-606.852 -8490.713)" fill="#999"/>
          <path id="Trazado_108197" data-name="Trazado 108197" d="M685.165,8501.559l-2.633-2.253,1.726-2.591-2.412-2.24.639-.64,2.956,2.744-1.708,2.565,2.046,1.747Z" transform="translate(-606.544 -8490.771)" fill="#999"/>
          <path id="Trazado_108198" data-name="Trazado 108198" d="M688.189,8501.1l-2.633-2.253,1.726-2.592-2.412-2.239.639-.64,2.956,2.743-1.708,2.565,2.046,1.747Z" transform="translate(-606.25 -8490.815)" fill="#999"/>
          <path id="Trazado_108199" data-name="Trazado 108199" d="M691.274,8500.769l-2.633-2.253,1.726-2.592-2.412-2.238.639-.641,2.956,2.745-1.708,2.563,2.046,1.749Z" transform="translate(-605.95 -8490.849)" fill="#999"/>
          <path id="Trazado_108200" data-name="Trazado 108200" d="M694.38,8500.049l-2.633-2.252,1.726-2.592-2.412-2.238.639-.642,2.956,2.744-1.708,2.565,2.046,1.747Z" transform="translate(-605.647 -8490.919)" fill="#999"/>
          <path id="Trazado_108201" data-name="Trazado 108201" d="M697.727,8499.62l-2.633-2.253,1.726-2.592-2.412-2.239.639-.64,2.956,2.744-1.708,2.564,2.046,1.748Z" transform="translate(-605.322 -8490.96)" fill="#999"/>
          <path id="Trazado_108202" data-name="Trazado 108202" d="M656.831,8504.133l-2.361-2.468,1.935-2.36-2.12-2.407.677-.595,2.628,2.98-1.916,2.335,1.809,1.893Z" transform="translate(-609.225 -8490.531)" fill="#999"/>
          <path id="Trazado_108203" data-name="Trazado 108203" d="M660.384,8503.871l-2.332-2.436,1.911-2.332-2.093-2.376.669-.589,2.592,2.944-1.889,2.307,1.786,1.867Z" transform="translate(-608.876 -8490.546)" fill="#999"/>
          <path id="Trazado_108204" data-name="Trazado 108204" d="M664.139,8503.855l-2.4-2.424,1.981-2.329-2.159-2.363.693-.588,2.675,2.929-1.96,2.3,1.842,1.856Z" transform="translate(-608.517 -8490.545)" fill="#999"/>
          <path id="Trazado_108205" data-name="Trazado 108205" d="M667.794,8503.549l-2.406-2.424,1.98-2.329-2.158-2.363.693-.589,2.675,2.93-1.96,2.3,1.843,1.857Z" transform="translate(-608.162 -8490.575)" fill="#999"/>
        </g>
        <path id="Trazado_108206" data-name="Trazado 108206" d="M639.549,8309.718l-.765-.787c.2-.2,2.315-2.043,13.435-4.013a44.085,44.085,0,0,1,8.733-.447c.579.068,1.174.116,1.791.169a30.76,30.76,0,0,1,13.74,3.986l-.526.963a29.456,29.456,0,0,0-13.307-3.856c-.628-.052-1.232-.1-1.821-.171a43.31,43.31,0,0,0-8.418.438C641.648,8307.905,639.57,8309.7,639.549,8309.718Z" transform="translate(-586.714 -8270.272)" fill="#999"/>
        <g id="Grupo_56065" data-name="Grupo 56065" transform="translate(60.53 13.001)">
          <rect id="Rectángulo_10088" data-name="Rectángulo 10088" width="18.88" height="3.149" rx="1.435" transform="translate(0.548 0.549)" fill="#fff"/>
          <path id="Trazado_108207" data-name="Trazado 108207" d="M664.348,8289.393h-15.73a2.123,2.123,0,1,1,0-4.246h15.73a2.123,2.123,0,1,1,0,4.246Zm-15.73-3.148a1.025,1.025,0,1,0,0,2.051h15.73a1.025,1.025,0,1,0,0-2.051Z" transform="translate(-646.494 -8285.146)" fill="#999"/>
        </g>
        <g id="Grupo_56066" data-name="Grupo 56066" transform="translate(60.53 6.99)">
          <rect id="Rectángulo_10089" data-name="Rectángulo 10089" width="18.88" height="3.149" rx="1.435" transform="translate(0.548 0.549)" fill="#fff"/>
          <path id="Trazado_108208" data-name="Trazado 108208" d="M664.348,8283.914h-15.73a2.123,2.123,0,1,1,0-4.245h15.73a2.123,2.123,0,1,1,0,4.245Zm-15.73-3.148a1.025,1.025,0,1,0,0,2.051h15.73a1.025,1.025,0,1,0,0-2.051Z" transform="translate(-646.494 -8279.669)" fill="#999"/>
        </g>
        <path id="Trazado_108209" data-name="Trazado 108209" d="M654.236,8721.148l-1.1,0,.709-191.474,1.781-233.7,1.1.01-1.781,233.7Z" transform="translate(-585.318 -8271.093)" fill="#999"/>
        <g id="Grupo_56067" data-name="Grupo 56067" transform="translate(133.371 45.256)">
          <path id="Trazado_108210" data-name="Trazado 108210" d="M713.461,8325.929s-.592-8.167,1.411-10.888c0,0,10.448,4.008,15.6,9.018s21.612,4.622,21.612,4.622l.286,8.975s-13.642-1.742-25.5-6.668S713.461,8325.929,713.461,8325.929Z" transform="translate(-712.829 -8314.493)" fill="#999"/>
          <path id="Trazado_108211" data-name="Trazado 108211" d="M752.419,8338.252a.577.577,0,0,1-.07,0c-.137-.018-13.851-1.81-25.64-6.705-11.357-4.718-13.19-5.012-13.262-5.022a.559.559,0,0,1-.484-.5c-.025-.341-.585-8.4,1.515-11.253a.552.552,0,0,1,.639-.186c.431.165,10.613,4.106,15.786,9.137,4.927,4.788,21.052,4.472,21.216,4.466a.567.567,0,0,1,.561.531l.286,8.974a.548.548,0,0,1-.548.566Zm-38.385-12.719c1.042.275,4.169,1.289,13.1,5,10.207,4.24,21.892,6.126,24.719,6.54l-.248-7.781c-2.972.032-16.682-.136-21.464-4.787-4.436-4.314-13.021-7.934-15-8.734C713.766,8318.213,713.953,8323.96,714.034,8325.533Z" transform="translate(-712.878 -8314.542)" fill="#4d4d4d"/>
        </g>
        <rect id="Rectángulo_10090" data-name="Rectángulo 10090" width="12.916" height="173.846" transform="translate(59.144 450.745)" fill="#404040"/>
        <rect id="Rectángulo_10091" data-name="Rectángulo 10091" width="1.098" height="163.838" transform="translate(4.054 441.444) rotate(-5.213)" fill="#404040"/>
        <rect id="Rectángulo_10092" data-name="Rectángulo 10092" width="1.097" height="148.22" transform="matrix(0.996, -0.088, 0.088, 0.996, 11.496, 446.651)" fill="#404040"/>
        <rect id="Rectángulo_10093" data-name="Rectángulo 10093" width="1.097" height="166.592" transform="translate(15.79 450.101) rotate(-5.027)" fill="#404040"/>
        <rect id="Rectángulo_10094" data-name="Rectángulo 10094" width="1.097" height="138.429" transform="matrix(0.997, -0.072, 0.072, 0.997, 28.957, 450.785)" fill="#404040"/>
        <rect id="Rectángulo_10095" data-name="Rectángulo 10095" width="1.097" height="165.771" transform="matrix(0.998, -0.061, 0.061, 0.998, 33.965, 451.737)" fill="#404040"/>
        <rect id="Rectángulo_10096" data-name="Rectángulo 10096" width="1.098" height="138.875" transform="translate(49.278 451.717) rotate(-1.536)" fill="#404040"/>
        <rect id="Rectángulo_10097" data-name="Rectángulo 10097" width="160.666" height="1.097" transform="translate(107.153 603.336) rotate(-82.139)" fill="#404040"/>
        <rect id="Rectángulo_10098" data-name="Rectángulo 10098" width="148.091" height="1.097" transform="translate(102.577 597.053) rotate(-83.271)" fill="#404040"/>
        <rect id="Rectángulo_10099" data-name="Rectángulo 10099" width="165.709" height="1.097" transform="translate(97.32 614.808) rotate(-84.055)" fill="#404040"/>
        <rect id="Rectángulo_10100" data-name="Rectángulo 10100" width="140.986" height="1.098" transform="translate(89.865 592.197) rotate(-85.408)" fill="#404040"/>
        <rect id="Rectángulo_10101" data-name="Rectángulo 10101" width="165.762" height="1.097" transform="matrix(0.061, -0.998, 0.998, 0.061, 84.191, 617.128)" fill="#404040"/>
        <rect id="Rectángulo_10102" data-name="Rectángulo 10102" width="136.001" height="1.098" transform="matrix(0.023, -1, 1, 0.023, 76.485, 589.083)" fill="#404040"/>
        <rect id="Rectángulo_10103" data-name="Rectángulo 10103" width="163.765" height="1.097" transform="translate(72.759 617.153) rotate(-89.105)" fill="#404040"/>
        <path id="Trazado_108212" data-name="Trazado 108212" d="M652.853,8841.85c-25.3,0-45.109-7.437-45.109-16.937s19.813-16.937,45.109-16.937,45.108,7.439,45.108,16.937S678.147,8841.85,652.853,8841.85Zm0-32.775c-24.268,0-44.012,7.105-44.012,15.839s19.743,15.839,44.012,15.839,44.01-7.105,44.01-15.839S677.12,8809.074,652.853,8809.074Z" transform="translate(-589.734 -8221.289)" fill="#404040"/>
        <path id="Trazado_108213" data-name="Trazado 108213" d="M653.932,8792.8c-27.858,0-49.68-6.267-49.68-14.267,0-10.8,38.479-11.641,50.272-11.641,27.251,0,50.273,6.8,50.273,14.84C704.8,8791.358,672.928,8792.8,653.932,8792.8Zm.591-24.811c-29.872,0-49.174,4.14-49.174,10.544,0,7.139,22.248,13.169,48.583,13.169,31.162,0,49.767-3.728,49.767-9.97C703.7,8775.229,683.5,8767.985,654.524,8767.985Z" transform="translate(-590.073 -8225.285)" fill="#404040"/>
        <path id="Trazado_108214" data-name="Trazado 108214" d="M654.372,8741.292c-26.487,0-54.64-4.538-54.64-12.951,0-8.108,28.083-12.953,55.231-12.953,27.538,0,58.221,5.7,58.221,13.876C713.185,8738.089,678.013,8741.292,654.372,8741.292Zm.591-24.807c-29.343,0-54.134,5.428-54.134,11.855,0,6.538,24.019,11.854,53.543,11.854,27.757,0,57.715-4.178,57.715-10.932C712.087,8722.7,684.326,8716.485,654.963,8716.485Z" transform="translate(-590.513 -8230.294)" fill="#404040"/>
        <g id="Grupo_56068" data-name="Grupo 56068" transform="translate(47.536 39.531)" opacity="0.74">
          <path id="Trazado_108215" data-name="Trazado 108215" d="M743.759,8880.979s-4.58-7.252-17.938-2.863-26.335,9.924-41.792,8.588-25.953-5.153-30.342-4.008-17.938,4.771-18.51,2.863,6.87-15.84,12.022-18.7,12.976-10.876,14.695-14.692,9.35-15.267,15.647-18.13,8.587-6.105,8.587-6.105-7.633-6.871-20.036-4.963-23.473,4.2-23.664,4.963,4.167-71.752,3.9-82.059,0-139.306,0-139.306l1.82-146.245,3.2-150.5s29.115,1,53.273,12.022l20.005,5.581s25.619,11.45,35.352,10.735c0,0,.954,54.29,0,65.74s1.717,30.151-2.481,50-3.054,66.652-3.054,66.652l-1.526,45.175-.764,29.388s-3.053,9.924-2.29,16.03,2.672,11.449.382,19.848-.763,44.652-.763,44.652-2.29,13.357-2.29,16.412,2.29,17.174.381,22.136-.381,37.021-.381,41.6v29l-1.908,59.54Z" transform="translate(-634.604 -8309.275)" fill="#ccc"/>
          <path id="Trazado_108216" data-name="Trazado 108216" d="M688.761,8887.5c-1.554,0-3.129-.064-4.73-.2a174.232,174.232,0,0,1-18.613-2.795c-5.434-1.043-9.36-1.8-11.542-1.228l-.551.144c-14.923,3.9-18.191,3.792-18.624,2.345-.738-2.461,7.212-16.521,12.282-19.339,5.266-2.926,12.851-10.866,14.459-14.438,1.89-4.2,9.585-15.521,15.921-18.4a23.8,23.8,0,0,0,8.042-5.528,25.475,25.475,0,0,0-19.18-4.5c-12.552,1.932-22.248,4.016-23.284,4.716a.558.558,0,0,1-.547.254c-.263-.04-.393-.06-.426-.677l-.022-.006a.184.184,0,0,1,.02-.049c-.024-.616.037-1.787.157-4.031.142-2.651.35-6.421.6-10.889,1.153-20.868,3.3-59.708,3.109-66.941-.268-10.192,0-138.031,0-139.321l1.82-146.25,3.2-150.5a.552.552,0,0,1,.171-.389.614.614,0,0,1,.4-.149c.292.011,29.5,1.132,53.481,12.071l19.926,5.552c.331.142,25.654,11.43,35.163,10.716a.581.581,0,0,1,.41.142.552.552,0,0,1,.179.4c.009.542.943,54.449,0,65.8-.318,3.817-.23,8.4-.129,13.709.2,10.3.439,23.116-2.361,36.356-4.137,19.556-3.054,66.055-3.042,66.523l-1.526,45.206-.764,29.385a.569.569,0,0,1-.024.147c-.031.1-3.01,9.881-2.27,15.8.161,1.288.379,2.569.588,3.807.793,4.685,1.614,9.526-.221,16.255-2.243,8.217-.759,44.123-.745,44.484a.5.5,0,0,1-.008.115c-.022.134-2.281,13.347-2.281,16.32,0,.776.157,2.329.355,4.294.574,5.68,1.442,14.263-.011,18.04-1.473,3.828-.814,25.205-.5,35.479.089,2.883.154,4.966.154,5.925v29.006l-1.909,59.556-1.526,36.645a.546.546,0,0,1-.4.506.553.553,0,0,1-.606-.233c-.181-.281-4.558-6.827-17.3-2.638-1.894.623-3.778,1.269-5.664,1.913C710.437,8884,700.2,8887.5,688.761,8887.5Zm-33.051-5.516a60.707,60.707,0,0,1,9.914,1.439,173.546,173.546,0,0,0,18.5,2.781c13.15,1.129,24.714-2.822,35.9-6.648,1.889-.646,3.778-1.293,5.675-1.915,10.405-3.418,15.644.018,17.62,1.962l1.468-35.24,1.908-59.533v-28.988c0-.94-.068-3.126-.153-5.892-.343-11.139-.982-31.872.571-35.907,1.358-3.531.472-12.3-.057-17.533-.2-2-.361-3.573-.361-4.405,0-2.993,2.1-15.365,2.288-16.447-.09-2.16-1.478-36.47.785-44.764,1.771-6.493.971-11.214.2-15.779-.212-1.25-.43-2.542-.595-3.854-.743-5.945,1.989-15.2,2.288-16.186l.762-29.314,1.527-45.178c-.012-.439-1.1-47.066,3.065-66.747,2.774-13.118,2.531-25.866,2.337-36.109-.1-5.337-.19-9.946.134-13.819.888-10.666.1-59.3.007-65.122-10.113.272-34-10.348-35.036-10.809l-19.93-5.554c-22.031-10.044-48.448-11.764-52.589-11.976l-3.191,149.932-1.82,146.241c0,1.283-.268,129.105,0,139.284.191,7.276-1.875,44.681-3.11,67.029-.367,6.669-.674,12.194-.766,14.208,2.021-.818,7.636-2.3,23.01-4.669,12.517-1.931,20.167,4.808,20.487,5.095a.55.55,0,0,1,.081.725c-.1.139-2.449,3.4-8.809,6.289-5.994,2.725-13.59,13.892-15.374,17.855-1.83,4.064-9.921,12.167-14.928,14.948-5.151,2.863-12.2,16.541-11.763,18.064.41.4,3.235.584,17.3-3.092l.551-.144A8.362,8.362,0,0,1,655.71,8881.985Zm-12.7-53.876,0,0Z" transform="translate(-634.652 -8309.324)" fill="#4d4d4d"/>
        </g>
      </g>
      <g id="Grupo_56090" data-name="Grupo 56090">
        <g id="Grupo_56073" data-name="Grupo 56073" transform="translate(88.175)">
          <g id="Grupo_56070" data-name="Grupo 56070" transform="translate(1.246)">
            <path id="Trazado_108217" data-name="Trazado 108217" d="M450.986,8286.473c0-6.952-4.214-12.589-9.411-12.589s-9.41,5.637-9.41,12.589c0,5.438,2.581,10.057,6.19,11.817v12.038h7.11v-12.4C448.72,8295.946,450.986,8291.568,450.986,8286.473Z" transform="translate(-431.523 -8273.242)" fill="#fff"/>
            <path id="Trazado_108218" data-name="Trazado 108218" d="M446.164,8311.026h-8.393v-12.289c-3.719-2.034-6.191-6.876-6.191-12.206,0-7.3,4.51-13.232,10.052-13.232s10.052,5.937,10.052,13.232c0,4.984-2.155,9.568-5.52,11.806Zm-7.11-1.282h5.828v-12.121l.307-.187c3.168-1.928,5.214-6.209,5.214-10.905,0-6.59-3.935-11.95-8.771-11.95s-8.769,5.36-8.769,11.95c0,5.021,2.344,9.538,5.831,11.24l.36.176Z" transform="translate(-431.58 -8273.299)" fill="#999"/>
          </g>
          <g id="Grupo_56071" data-name="Grupo 56071" transform="translate(0 15.199)">
            <rect id="Rectángulo_10104" data-name="Rectángulo 10104" width="22.07" height="3.681" rx="1.435" transform="translate(0.642 0.64)" fill="#fff"/>
            <path id="Trazado_108219" data-name="Trazado 108219" d="M451.315,8292.112H432.926a2.481,2.481,0,1,1,0-4.962h18.389a2.481,2.481,0,1,1,0,4.962Zm-18.389-3.68a1.2,1.2,0,1,0,0,2.4h18.389a1.2,1.2,0,1,0,0-2.4Z" transform="translate(-430.444 -8287.15)" fill="#999"/>
          </g>
          <g id="Grupo_56072" data-name="Grupo 56072" transform="translate(0 8.171)">
            <rect id="Rectángulo_10105" data-name="Rectángulo 10105" width="22.07" height="3.681" rx="1.435" transform="translate(0.642 0.642)" fill="#fff"/>
            <path id="Trazado_108220" data-name="Trazado 108220" d="M451.315,8285.708H432.926a2.481,2.481,0,1,1,0-4.963h18.389a2.481,2.481,0,1,1,0,4.963Zm-18.389-3.681a1.2,1.2,0,1,0,0,2.4h18.389a1.2,1.2,0,1,0,0-2.4Z" transform="translate(-430.444 -8280.745)" fill="#999"/>
          </g>
        </g>
        <g id="Grupo_56074" data-name="Grupo 56074" transform="translate(14.294 465.186)">
          <rect id="Rectángulo_10106" data-name="Rectángulo 10106" width="13.853" height="141.281" transform="translate(66.648 23.8)" fill="#313131"/>
          <rect id="Rectángulo_10107" data-name="Rectángulo 10107" width="1.283" height="165.545" transform="matrix(0.997, -0.079, 0.079, 0.997, 0, 0.101)" fill="#313131"/>
          <rect id="Rectángulo_10108" data-name="Rectángulo 10108" width="1.282" height="160.098" transform="translate(9.704 5.458) rotate(-4.195)" fill="#313131"/>
          <rect id="Rectángulo_10109" data-name="Rectángulo 10109" width="1.283" height="156.804" transform="translate(15.559 8.642) rotate(-3.691)" fill="#313131"/>
          <rect id="Rectángulo_10110" data-name="Rectángulo 10110" width="1.283" height="137.867" transform="translate(59.559 27.248) rotate(-1.043)" fill="#313131"/>
          <rect id="Rectángulo_10111" data-name="Rectángulo 10111" width="1.282" height="150.731" transform="translate(29.78 14.638) rotate(-3.309)" fill="#313131"/>
          <rect id="Rectángulo_10112" data-name="Rectángulo 10112" width="1.283" height="134.894" transform="translate(97.37 30.185)" fill="#313131"/>
          <rect id="Rectángulo_10113" data-name="Rectángulo 10113" width="134.905" height="1.283" transform="translate(104.778 165.072) rotate(-89.329)" fill="#313131"/>
          <rect id="Rectángulo_10114" data-name="Rectángulo 10114" width="1.283" height="141.651" transform="translate(119.441 23.429)" fill="#313131"/>
          <rect id="Rectángulo_10115" data-name="Rectángulo 10115" width="1.283" height="145.968" transform="translate(124.501 19.113)" fill="#313131"/>
          <rect id="Rectángulo_10116" data-name="Rectángulo 10116" width="156.522" height="1.283" transform="matrix(0.023, -1, 1, 0.023, 134.519, 165.065)" fill="#313131"/>
          <path id="Trazado_108221" data-name="Trazado 108221" d="M464.356,8797.2c-25.193,0-47.292-12.511-48.08-12.963-.324-.161-5.193-2.6-11.183-5.48a173.634,173.634,0,0,1-30.242-18.986c-.381-.418-7.546-8.636-5.9-17.037.875-4.466,4.082-8.1,9.535-10.8,18.965-9.39,47.37,3.458,48.57,4.008l45.481,18.475c18.519,8.229,27.777,16.41,27.537,24.326-.292,9.639-14.459,15.043-15.062,15.268A65.133,65.133,0,0,1,464.356,8797.2Zm-69.578-67.363a35.369,35.369,0,0,0-15.724,3.241c-5.075,2.516-8.051,5.846-8.846,9.9-1.524,7.775,5.457,15.793,5.528,15.873a173.562,173.562,0,0,0,29.912,18.752c6.18,2.972,11.17,5.472,11.22,5.5l.036.021c.351.2,35.546,20.389,67.679,9.675.117-.044,13.944-5.318,14.208-14.1.221-7.344-8.783-15.116-26.757-23.1l-45.489-18.48C426.31,8737.007,410.461,8729.837,394.777,8729.837Z" transform="translate(-362.569 -8694.205)" fill="#313131"/>
          <path id="Trazado_108222" data-name="Trazado 108222" d="M459.092,8849.786a63.284,63.284,0,0,1-17.636-2.353l-.008,0a154.785,154.785,0,0,1-14.369-5.775c-16.634-8-34.429-17.765-34.608-17.861-.771-.327-20.24-8.747-20.478-17.249-.08-2.884,1.995-5.4,6.17-7.466,18.965-9.4,47.37,3.456,48.57,4.007l45.481,18.474c12.515,4.4,18.95,9.134,19.1,14.064.173,5.81-8.366,9.463-8.73,9.614A60.678,60.678,0,0,1,459.092,8849.786Zm-17.235-3.57c.338.108,20.041,6.313,40.226-2.158.08-.032,8.093-3.465,7.944-8.4-.09-2.987-3.332-7.651-18.268-12.9l-45.536-18.5c-.315-.143-29.083-13.158-47.49-4.033-3.688,1.827-5.524,3.938-5.458,6.278.215,7.694,19.562,16.052,19.758,16.134.234.127,18,9.875,34.6,17.861C433.717,8843.427,441.629,8846.138,441.858,8846.216Z" transform="translate(-362.249 -8687.673)" fill="#313131"/>
        </g>
        <g id="Grupo_56075" data-name="Grupo 56075" transform="translate(0 30.978)">
          <path id="Trazado_108223" data-name="Trazado 108223" d="M516.423,8384.377c-3.123-8.254-8.142-9.035-8.142-9.035l-9.035-3.567-34.353-15.615c-.781-3.013-.111-10.708-.111-10.708,1.115-7.585,6.691-20.858,6.691-20.858,1.785-4.8.557-7.808.557-7.808-12.269-16.62-30.672-14.611-34.018-14.611s-5.577,4.127-5.577,4.127l-13.5,30.339L367.85,8378.8a138.451,138.451,0,0,0-13.987,14.7c-5.465,7.026-2.231,19.909-2.231,19.909l14.946,50.024,25,76.1-.069,5.87s-6.682,12.938-10.318,21.373c-4.328,10.046-6.693,18.016-9.815,24.205-9.37,18.571-8.07,44.27-8.07,44.27l-.495,119.676c61.429,40.607,139.21,24.066,139.21,24.066s.6-156.793.127-165.492c-.387-7.093-2.652-31.175-4.957-39.027-1.182-4.023-5.413-11-6.135-15.615-.614-3.931-3.443-7.488-2.454-10.6,4.684-14.724,9.463-23.843,12.491-39.374,4.13-21.175,16.887-36.991,19.185-59.114C523.591,8417.858,517.561,8387.385,516.423,8384.377Z" transform="translate(-350.027 -8301.474)" fill="#fff"/>
          <path id="Trazado_108224" data-name="Trazado 108224" d="M463.811,8782.928c-28.222,0-67.39-5-101.3-27.419l-.289-.191.5-120.021c-.013-.224-1.2-26.048,8.138-44.557a124.756,124.756,0,0,0,4.874-11.772c1.389-3.676,2.964-7.845,4.925-12.4,3.4-7.9,9.544-19.872,10.267-21.279l.066-5.612-24.965-75.994-14.95-50.039c-.143-.566-3.253-13.3,2.339-20.487a140.119,140.119,0,0,1,14.064-14.779l50.994-42.084,13.435-30.2c.121-.226,2.477-4.508,6.163-4.508.246,0,.576-.011.981-.025,14.611-.5,25.892,4.52,33.553,14.9l.078.138c.054.134,1.3,3.3-.55,8.275-.066.156-5.569,13.31-6.659,20.728,0,.035-.606,7.1.03,10.159l34.067,15.485,8.946,3.533c.7.14,5.522,1.386,8.564,9.426h0c1.248,3.3,7.161,34.206,3.892,65.684-1.267,12.187-5.742,22.617-10.072,32.708-3.57,8.321-7.262,16.926-9.122,26.464-2,10.231-4.778,17.776-7.721,25.765-1.564,4.239-3.18,8.623-4.789,13.681-.532,1.669.238,3.63,1.053,5.708a21.927,21.927,0,0,1,1.422,4.594c.411,2.634,2.075,6.21,3.542,9.368a50.454,50.454,0,0,1,2.575,6.165c2.4,8.187,4.636,32.82,4.983,39.173.47,8.618-.12,163.963-.126,165.53l0,.517-.506.109C501.864,8779.742,486.317,8782.928,463.811,8782.928Zm-100.3-28.3c57.889,38.065,131.122,25.193,137.928,23.886.037-10,.58-156.6.126-164.931-.346-6.318-2.559-30.794-4.934-38.881a49.517,49.517,0,0,0-2.506-5.987c-1.577-3.391-3.206-6.9-3.646-9.71a20.949,20.949,0,0,0-1.349-4.324c-.9-2.295-1.751-4.462-1.082-6.565,1.617-5.085,3.239-9.482,4.807-13.734,2.926-7.938,5.69-15.437,7.667-25.567,1.885-9.672,5.6-18.341,9.2-26.723,4.291-10,8.729-20.344,9.974-32.336,3.246-31.256-2.584-61.838-3.815-65.1h0c-2.933-7.751-7.6-8.621-7.645-8.631l-.133-.036-9.035-3.567-34.663-15.755-.076-.3c-.8-3.081-.157-10.605-.129-10.925,1.118-7.613,6.51-20.5,6.739-21.05,1.513-4.069.729-6.8.577-7.254-11.143-15.02-27.156-14.477-32.423-14.3-.422.015-.767.027-1.024.027-2.919,0-4.993,3.754-5.013,3.791l-13.535,30.431-.116.1-51.089,42.162a138.828,138.828,0,0,0-13.89,14.594c-5.207,6.7-2.146,19.234-2.114,19.36l14.938,50,25.027,76.18-.073,6.13-.069.134c-.067.13-6.713,13.014-10.3,21.335-1.95,4.524-3.519,8.677-4.9,12.34a125.173,125.173,0,0,1-4.929,11.9c-9.182,18.2-8.015,43.693-8,43.948Z" transform="translate(-350.085 -8301.53)" fill="#999"/>
        </g>
        <path id="Trazado_108225" data-name="Trazado 108225" d="M370.2,8755.5l-1.283-.023,2.466-147.451c.019-.2,1.646-14.842,7.642-27.946,5.727-12.514,15.407-34.378,16.226-36.229v-6.021l-29.644-102.75c-.065-.184-7.365-21.758-3.128-38.481a57.865,57.865,0,0,1,17.6-29.614c8.779-8.334,28.592-24.326,28.791-24.489l9.78-9.116.875.94-9.815,9.146c-.233.188-20.005,16.15-28.747,24.448a56.67,56.67,0,0,0-17.244,29c-4.143,16.346,3.034,37.566,3.106,37.78l29.7,102.954-.055,6.595c-.1.232-10.332,23.354-16.288,36.37-5.908,12.908-7.514,27.349-7.531,27.492Z" transform="translate(-349.008 -8267.453)" fill="#999"/>
        <path id="Trazado_108226" data-name="Trazado 108226" d="M389.15,8769.945l-1.283-.009,1.089-149.276a87.922,87.922,0,0,1,2.313-18.783,137.2,137.2,0,0,1,6.9-21.735c6.585-15.636,8.642-26.363,8.662-26.469,0-.07,1.128-13.009-1.178-33.441-2.316-20.509-6.484-59.839-6.526-60.233l-4.85-34.946c-.04-1.4-.765-32.854,6.242-48.206,6.949-15.22,21.442-45.545,21.588-45.851.137-.226,10.228-16.291,13.51-29.043l1.242.32c-3.334,12.947-13.528,29.18-13.63,29.343-.11.238-14.6,30.553-21.542,45.767-6.884,15.077-6.141,47.241-6.133,47.565l4.846,34.9c.044.415,4.211,39.74,6.528,60.246,2.322,20.573,1.184,33.63,1.172,33.758-.029.167-2.1,11.018-8.747,26.794a135.763,135.763,0,0,0-6.838,21.529,86.7,86.7,0,0,0-2.28,18.5Z" transform="translate(-346.41 -8270.511)" fill="#999"/>
        <path id="Trazado_108227" data-name="Trazado 108227" d="M488.338,8430.494c-.1,0-.206,0-.309-.01-3.289-.189-6.157-3.376-8.076-8.977-1.854-5.414-2.639-12.5-2.209-19.956s2.024-14.4,4.489-19.567c2.55-5.343,5.779-8.165,9.055-7.99,6.681.385,11.2,13.094,10.285,28.934-.429,7.456-2.024,14.405-4.489,19.568S491.519,8430.494,488.338,8430.494Zm2.65-55.226c-2.627,0-5.383,2.629-7.6,7.268-2.394,5.017-3.946,11.8-4.366,19.089s.34,14.206,2.142,19.467c1.714,5,4.242,7.956,6.936,8.112,2.707.128,5.547-2.492,7.824-7.261,2.4-5.019,3.946-11.8,4.367-19.089v0c.843-14.615-3.315-27.246-9.079-27.577C491.139,8375.271,491.064,8375.269,490.988,8375.269Z" transform="translate(-337.679 -8263.503)" fill="#999"/>
        <ellipse id="Elipse_4340" data-name="Elipse 4340" cx="1.8" cy="4.406" rx="1.8" ry="4.406" transform="translate(151.578 133.446)" fill="#999"/>
        <path id="Trazado_108228" data-name="Trazado 108228" d="M462.968,8537.273a433.192,433.192,0,0,1-55.586-3.809c-5.2-.679-18.617-8.138-19.186-8.455l-.329-.184v-7.386l.91.418c.14.064,14.16,6.5,19.093,7.483,31.023,6.209,76.428,3.222,76.884,3.19l.5-.033,2.444,7.647-.767.094A221.99,221.99,0,0,1,462.968,8537.273Zm-73.818-13.2c2.119,1.163,13.872,7.53,18.4,8.119,44.592,5.809,73.462,3.366,78.456,2.859l-1.665-5.205c-5.077.311-47.3,2.644-76.721-3.246-4.389-.878-15.228-5.7-18.467-7.163Z" transform="translate(-346.41 -8249.549)" fill="#999"/>
        <path id="Trazado_108229" data-name="Trazado 108229" d="M391.175,8525.537l-1.973-2.327,1.851-2-1.761-2.258.635-.494,2.182,2.8-1.832,1.979,1.512,1.782Z" transform="translate(-346.28 -8249.451)" fill="#999"/>
        <path id="Trazado_108230" data-name="Trazado 108230" d="M393.374,8526.757l-1.973-2.327,1.851-2-1.761-2.258.635-.494,2.182,2.8-1.832,1.979,1.512,1.781Z" transform="translate(-346.067 -8249.333)" fill="#999"/>
        <path id="Trazado_108231" data-name="Trazado 108231" d="M396.024,8528l-1.974-2.325,1.851-2-1.761-2.258.635-.5,2.182,2.8-1.832,1.979,1.512,1.781Z" transform="translate(-345.809 -8249.211)" fill="#999"/>
        <path id="Trazado_108232" data-name="Trazado 108232" d="M398.674,8529.422,396.7,8527.1l1.851-2-1.761-2.259.635-.494,2.182,2.8-1.832,1.978,1.512,1.785Z" transform="translate(-345.551 -8249.074)" fill="#999"/>
        <path id="Trazado_108233" data-name="Trazado 108233" d="M401.324,8530.716l-1.973-2.454,1.851-2.111-1.761-2.383.635-.521,2.182,2.952-1.832,2.088,1.512,1.881Z" transform="translate(-345.293 -8248.985)" fill="#999"/>
        <path id="Trazado_108234" data-name="Trazado 108234" d="M403.386,8531.438l-1.974-2.455,1.851-2.11-1.761-2.384.635-.521,2.182,2.951-1.832,2.088,1.512,1.882Z" transform="translate(-345.093 -8248.915)" fill="#999"/>
        <path id="Trazado_108235" data-name="Trazado 108235" d="M405.559,8531.864l-1.974-2.453,1.851-2.111-1.761-2.383.635-.521,2.182,2.951-1.832,2.088,1.512,1.882Z" transform="translate(-344.881 -8248.874)" fill="#999"/>
        <path id="Trazado_108236" data-name="Trazado 108236" d="M408,8532.861l-1.974-2.455,1.851-2.11-1.761-2.384.635-.521,2.182,2.952-1.832,2.088,1.512,1.882Z" transform="translate(-344.644 -8248.776)" fill="#999"/>
        <path id="Trazado_108237" data-name="Trazado 108237" d="M410.4,8532.861l-1.974-2.455,1.851-2.11-1.761-2.384.635-.521,2.182,2.952-1.832,2.088,1.512,1.882Z" transform="translate(-344.41 -8248.776)" fill="#999"/>
        <path id="Trazado_108238" data-name="Trazado 108238" d="M413.049,8533.321l-1.974-2.454,1.851-2.111-1.761-2.383.635-.521,2.182,2.951-1.832,2.089,1.512,1.881Z" transform="translate(-344.153 -8248.732)" fill="#999"/>
        <path id="Trazado_108239" data-name="Trazado 108239" d="M415.229,8533.6l-1.973-2.455,1.851-2.11-1.761-2.384.635-.521,2.182,2.951-1.832,2.088,1.512,1.882Z" transform="translate(-343.941 -8248.705)" fill="#999"/>
        <path id="Trazado_108240" data-name="Trazado 108240" d="M417.531,8533.858l-1.974-2.454,1.851-2.11-1.761-2.383.635-.523,2.182,2.953-1.832,2.088,1.512,1.882Z" transform="translate(-343.717 -8248.679)" fill="#999"/>
        <path id="Trazado_108241" data-name="Trazado 108241" d="M419.974,8534.363,418,8531.909l1.851-2.111-1.761-2.382.635-.522,2.182,2.951-1.832,2.09,1.512,1.881Z" transform="translate(-343.479 -8248.631)" fill="#999"/>
        <path id="Trazado_108242" data-name="Trazado 108242" d="M422.2,8534.228l-1.811-2.253,1.7-1.937-1.616-2.187.583-.479,2,2.709L421.375,8532l1.388,1.726Z" transform="translate(-343.247 -8248.584)" fill="#999"/>
        <path id="Trazado_108243" data-name="Trazado 108243" d="M424.631,8534.508l-1.811-2.254,1.7-1.936-1.616-2.187.583-.48,2,2.709-1.681,1.917,1.388,1.729Z" transform="translate(-343.01 -8248.557)" fill="#999"/>
        <path id="Trazado_108244" data-name="Trazado 108244" d="M426.786,8534.508l-1.811-2.254,1.7-1.936-1.616-2.187.583-.48,2,2.709-1.681,1.917L427.35,8534Z" transform="translate(-342.801 -8248.557)" fill="#999"/>
        <path id="Trazado_108245" data-name="Trazado 108245" d="M428.844,8534.889l-1.811-2.252,1.7-1.937-1.616-2.187.583-.479,2,2.709-1.681,1.917,1.388,1.727Z" transform="translate(-342.6 -8248.52)" fill="#999"/>
        <path id="Trazado_108246" data-name="Trazado 108246" d="M431.614,8535.194l-1.811-2.252,1.7-1.937-1.616-2.188.583-.479,2,2.709-1.681,1.917,1.388,1.727Z" transform="translate(-342.331 -8248.491)" fill="#999"/>
        <path id="Trazado_108247" data-name="Trazado 108247" d="M433.764,8535.194l-1.811-2.252,1.7-1.937-1.616-2.188.583-.479,2,2.709-1.681,1.917,1.388,1.727Z" transform="translate(-342.122 -8248.491)" fill="#999"/>
        <path id="Trazado_108248" data-name="Trazado 108248" d="M435.822,8535.194l-1.811-2.252,1.7-1.937-1.616-2.188.583-.479,2,2.709L435,8532.964l1.388,1.727Z" transform="translate(-341.922 -8248.491)" fill="#999"/>
        <path id="Trazado_108249" data-name="Trazado 108249" d="M437.881,8535.423l-1.811-2.254,1.7-1.937-1.616-2.187.583-.479,2,2.709-1.681,1.917,1.388,1.728Z" transform="translate(-341.721 -8248.468)" fill="#999"/>
        <path id="Trazado_108250" data-name="Trazado 108250" d="M439.761,8535.423l-1.811-2.254,1.7-1.937-1.616-2.187.583-.479,2,2.709-1.681,1.917,1.388,1.728Z" transform="translate(-341.539 -8248.468)" fill="#999"/>
        <path id="Trazado_108251" data-name="Trazado 108251" d="M441.9,8535.423l-1.811-2.254,1.7-1.937-1.616-2.187.583-.479,2,2.709-1.681,1.917,1.388,1.728Z" transform="translate(-341.331 -8248.468)" fill="#999"/>
        <path id="Trazado_108252" data-name="Trazado 108252" d="M444.081,8535.423l-1.811-2.254,1.7-1.937-1.616-2.187.583-.479,2,2.709-1.681,1.917,1.388,1.728Z" transform="translate(-341.118 -8248.468)" fill="#999"/>
        <path id="Trazado_108253" data-name="Trazado 108253" d="M446.165,8535.753l-1.811-2.254,1.7-1.936-1.616-2.187.583-.48,2,2.71-1.681,1.916,1.388,1.727Z" transform="translate(-340.916 -8248.436)" fill="#999"/>
        <path id="Trazado_108254" data-name="Trazado 108254" d="M448.4,8535.753l-1.811-2.254,1.7-1.936-1.616-2.187.583-.48,2,2.71-1.681,1.916,1.388,1.727Z" transform="translate(-340.698 -8248.436)" fill="#999"/>
        <path id="Trazado_108255" data-name="Trazado 108255" d="M450.587,8535.753l-1.811-2.254,1.7-1.936-1.616-2.187.583-.48,2,2.71-1.681,1.916,1.388,1.727Z" transform="translate(-340.486 -8248.436)" fill="#999"/>
        <path id="Trazado_108256" data-name="Trazado 108256" d="M452.645,8535.556l-1.811-2.254,1.7-1.937-1.616-2.186.583-.48,2,2.709-1.681,1.917,1.388,1.728Z" transform="translate(-340.285 -8248.455)" fill="#999"/>
        <path id="Trazado_108257" data-name="Trazado 108257" d="M454.6,8535.556l-1.811-2.254,1.7-1.937-1.616-2.186.583-.48,2,2.709-1.681,1.917,1.388,1.728Z" transform="translate(-340.095 -8248.455)" fill="#999"/>
        <path id="Trazado_108258" data-name="Trazado 108258" d="M456.686,8535.556l-1.811-2.254,1.7-1.937-1.616-2.186.583-.48,2,2.709-1.681,1.917,1.388,1.728Z" transform="translate(-339.892 -8248.455)" fill="#999"/>
        <path id="Trazado_108259" data-name="Trazado 108259" d="M459.118,8535.423l-1.811-2.254,1.7-1.937-1.616-2.187.583-.479,2,2.709-1.681,1.917,1.388,1.728Z" transform="translate(-339.656 -8248.468)" fill="#999"/>
        <path id="Trazado_108260" data-name="Trazado 108260" d="M461.507,8535.423l-1.811-2.254,1.7-1.937-1.616-2.187.583-.479,2,2.709-1.681,1.917,1.388,1.728Z" transform="translate(-339.423 -8248.468)" fill="#999"/>
        <path id="Trazado_108261" data-name="Trazado 108261" d="M464.15,8535.556l-1.811-2.254,1.7-1.937-1.616-2.186.583-.48,2,2.709-1.681,1.917,1.388,1.728Z" transform="translate(-339.166 -8248.455)" fill="#999"/>
        <path id="Trazado_108262" data-name="Trazado 108262" d="M466.582,8535.753l-1.811-2.254,1.7-1.936-1.616-2.187.583-.48,2,2.71-1.681,1.916,1.388,1.727Z" transform="translate(-338.93 -8248.436)" fill="#999"/>
        <path id="Trazado_108263" data-name="Trazado 108263" d="M468.755,8535.556l-1.811-2.254,1.7-1.937-1.616-2.186.583-.48,2,2.709-1.681,1.917,1.388,1.728Z" transform="translate(-338.718 -8248.455)" fill="#999"/>
        <path id="Trazado_108264" data-name="Trazado 108264" d="M470.737,8535.423l-1.811-2.254,1.7-1.937-1.616-2.187.583-.479,2,2.709-1.681,1.917,1.388,1.728Z" transform="translate(-338.525 -8248.468)" fill="#999"/>
        <path id="Trazado_108265" data-name="Trazado 108265" d="M472.528,8535.423l-1.811-2.254,1.7-1.937-1.616-2.187.583-.479,2,2.709-1.681,1.917,1.388,1.728Z" transform="translate(-338.351 -8248.468)" fill="#999"/>
        <path id="Trazado_108266" data-name="Trazado 108266" d="M474.625,8535.156l-1.811-2.253,1.7-1.937-1.616-2.187.583-.479,2,2.709-1.681,1.917,1.388,1.727Z" transform="translate(-338.147 -8248.494)" fill="#999"/>
        <path id="Trazado_108267" data-name="Trazado 108267" d="M476.643,8534.889l-1.811-2.252,1.7-1.937-1.616-2.187.583-.479,2,2.709-1.681,1.917,1.388,1.727Z" transform="translate(-337.951 -8248.52)" fill="#999"/>
        <path id="Trazado_108268" data-name="Trazado 108268" d="M462.44,8326.783c-5.07-9.061-12.134-11.865-12.2-11.894-16.973-7.066-27.139-3.541-27.239-3.507l-.439-1.206c.428-.156,10.692-3.748,28.155,3.522.291.113,7.553,3,12.847,12.459Z" transform="translate(-343.036 -8269.81)" fill="#999"/>
        <path id="Trazado_108269" data-name="Trazado 108269" d="M459.545,8354.795c-.912-.926-2.019-2.115-3.3-3.494a173.748,173.748,0,0,0-16.282-15.87c-12.832-10.639-25.613-1.592-26.15-1.2l-.754-1.038c.138-.1,14.11-10.036,27.723,1.252a174.763,174.763,0,0,1,16.4,15.983c1.272,1.368,2.37,2.549,3.275,3.468Z" transform="translate(-343.96 -8267.875)" fill="#999"/>
        <rect id="Rectángulo_10117" data-name="Rectángulo 10117" width="10.238" height="1.282" transform="matrix(0.131, -0.991, 0.991, 0.131, 148.2, 176.956)" fill="#999"/>
        <g id="Grupo_56076" data-name="Grupo 56076" transform="translate(123.774 166.621)">
          <path id="Trazado_108270" data-name="Trazado 108270" d="M474.041,8769.5l-1.273-.159c8.235-65.838-4.843-200.462-4.976-201.813l-4.026-19.533v-4.685L466.9,8520.8l23.079-95.648,1.246.3-23.067,95.588-3.118,22.36.005,4.526,4.009,19.406C469.2,8568.751,482.293,8703.517,474.041,8769.5Z" transform="translate(-462.801 -8425.148)" fill="#999"/>
          <path id="Trazado_108271" data-name="Trazado 108271" d="M472.826,8769.364l-.956-.108q.14-1.257.272-2.545l.958.1Q472.967,8768.1,472.826,8769.364Zm.523-5.113-.958-.09q.117-1.261.227-2.554l.959.084C473.5,8762.555,473.428,8763.406,473.349,8764.251Zm.437-5.121-.96-.074c.065-.844.128-1.7.189-2.555l.959.068Q473.883,8757.86,473.786,8759.13Zm.36-5.125-.959-.062c.053-.845.105-1.7.155-2.558l.96.055Q474.228,8752.735,474.146,8754Zm.3-5.127-.961-.05q.068-1.27.127-2.561l.96.046C474.53,8747.173,474.487,8748.029,474.443,8748.878Zm.24-5.132-.961-.04q.053-1.273.1-2.562l.96.036Q474.738,8742.472,474.684,8743.746Zm.191-5.133-.962-.029.078-2.562.962.027Zm.147-5.131-.962-.023.058-2.563.962.02Zm.106-5.135-.962-.015.039-2.564.962.012Zm.07-5.131-.962-.009.023-2.562.961.007Zm.036-5.126-.961-.006.007-2.559h.962Zm-.955-5.13-.008-2.565.962,0,.008,2.567Zm-.021-5.13-.02-2.566.962-.008.02,2.566Zm-.047-5.121-.032-2.56.961-.011.033,2.558Zm-.07-5.116-.045-2.561.962-.018.045,2.564Zm-.094-5.124-.054-2.566.961-.021.055,2.567Zm-.115-5.134-.065-2.569.962-.024.065,2.57Zm-.135-5.14-.075-2.574.962-.028.075,2.575Zm-.154-5.139-.083-2.562.962-.033.083,2.565Zm-.171-5.128-.092-2.565.961-.035.092,2.567Zm-.19-5.129-.1-2.565.96-.037.1,2.565Zm-.205-5.126-.109-2.565.96-.042.11,2.566Zm-.221-5.128-.117-2.562.961-.046.116,2.564Zm-.236-5.128-.124-2.562.961-.048.124,2.566Zm-.25-5.125-.131-2.561.96-.051.131,2.565Zm-.264-5.124-.137-2.562.961-.053.137,2.563Zm-.278-5.125-.143-2.562.96-.057.144,2.565Zm-.291-5.123-.149-2.562.96-.058.15,2.564Zm-.3-5.124-.156-2.562.96-.061.157,2.563Zm-.315-5.123-.162-2.562.96-.062.162,2.563Zm-.327-5.124-.169-2.562.96-.062.168,2.562Zm-.34-5.121-.173-2.562.959-.063.174,2.562Zm-.351-5.122-.18-2.562.959-.066.181,2.562Zm-.363-5.121-.185-2.561.959-.069.187,2.561Zm-.375-5.118-.192-2.562.959-.072.193,2.563Zm-.386-5.122-.2-2.559.959-.074.2,2.561Zm-.4-5.12-.2-2.558.959-.078.205,2.563Zm-.411-5.121-.212-2.56.959-.079.212,2.563Zm-.426-5.12-.221-2.562.959-.081.219,2.564Zm-.443-5.126c-.108-1.2-.171-1.9-.183-2.031l-.1-.477.941-.191.1.5h-.005c.026.168.067.621.2,2.114Zm-.8-5.017-.519-2.513.943-.2.518,2.514Zm-1.038-5.025-.519-2.512.941-.2.519,2.512Zm-1.038-5.025-.519-2.513.941-.194.52,2.512Zm-1.038-5.022-.286-1.386-.01-1.25h.962v1.151l.277,1.288Zm.666-5.2h-.962v-.969l.223-1.647.954.131-.218,1.582Zm.564-5.027-.954-.131.35-2.54.954.131Zm.7-5.083-.953-.13.35-2.542.954.13Zm.7-5.081-.954-.131.35-2.542.954.131Zm.7-5.084-.954-.13.35-2.542.954.131Zm.7-5.082-.954-.131.35-2.542.953.131Zm.975-4.971-.932-.24.642-2.484.932.24Zm1.284-4.968-.932-.241.642-2.482.933.239Zm1.285-4.97-.933-.24.643-2.482.932.241Zm1.284-4.965-.932-.24.643-2.485.932.241Zm1.281-4.98-.936-.22.588-2.5.936.221Zm1.177-4.992-.936-.221.588-2.5.936.22Zm1.177-5-.937-.22.589-2.5.937.222Zm1.177-4.993-.936-.221.589-2.5.936.22Zm1.178-5-.936-.221.588-2.5.936.22Zm1.178-5-.938-.213.565-2.5.938.213Zm1.131-5.006-.938-.212.566-2.5.938.214Zm1.131-5-.938-.213.565-2.5.938.213Zm1.131-5-.938-.212.566-2.5.938.214Zm1.131-5-.938-.213.566-2.5.938.213Zm1.131-5-.938-.214.566-2.5.938.214Zm1.131-5-.938-.214.566-2.5.938.212Zm1.131-5.006-.938-.213.566-2.5.938.213Zm1.132-5-.938-.214.565-2.5.938.212Z" transform="translate(-462.887 -8425.043)" fill="#999"/>
          <path id="Trazado_108272" data-name="Trazado 108272" d="M475.019,8769.245l-.952-.124q.165-1.254.322-2.541l.955.116Q475.185,8767.991,475.019,8769.245Zm.618-5.1-.956-.106q.138-1.257.268-2.545l.957.095C475.82,8762.449,475.73,8763.3,475.637,8764.142Zm.516-5.114-.958-.088q.115-1.263.223-2.553l.959.081Q476.268,8757.758,476.152,8759.027Zm.427-5.121-.959-.073q.1-1.264.184-2.555l.959.065Q476.675,8752.636,476.579,8753.906Zm.353-5.124-.961-.06c.053-.847.1-1.7.153-2.559l.96.054Q477.012,8747.508,476.933,8748.782Zm.286-5.129-.961-.048q.064-1.274.123-2.561l.96.044C477.3,8741.947,477.262,8742.8,477.219,8743.653Zm.23-5.131-.96-.038c.034-.852.066-1.7.1-2.562l.961.032Q477.5,8737.247,477.449,8738.522Zm.181-5.133-.962-.029.072-2.563.962.025Zm.134-5.134-.962-.021.052-2.563.962.018Zm.092-5.136-.961-.014.032-2.561.962.011Zm.055-5.125-.962-.007.015-2.56.961,0Zm.022-5.13h-.962l0-2.563.962,0Zm-.973-5.129-.018-2.565.962-.008.016,2.569Zm-.041-5.13-.03-2.557.961-.012.031,2.558Zm-.068-5.112-.043-2.56.962-.017.043,2.561Zm-.093-5.12-.056-2.563.962-.023.055,2.567Zm-.117-5.129-.068-2.567.962-.026.068,2.567Zm-.139-5.14-.079-2.571.962-.029.078,2.574Zm-.162-5.143-.088-2.564.962-.034.088,2.565Zm-.18-5.129-.1-2.563.961-.039.1,2.566Zm-.2-5.126-.108-2.564.961-.04.106,2.563Zm-.218-5.13-.116-2.562.961-.043.115,2.565Zm-.237-5.126-.124-2.563.96-.047.125,2.566Zm-.252-5.122-.133-2.563.96-.049.133,2.561Zm-.269-5.126-.14-2.562.961-.054.14,2.563Zm-.284-5.123-.148-2.562.961-.056.147,2.563Zm-.3-5.125-.156-2.562.961-.058.155,2.562Zm-.314-5.121-.162-2.562.96-.06.161,2.563Zm-.328-5.123-.169-2.561.959-.062.17,2.563Zm-.34-5.121-.177-2.561.96-.067.176,2.563Zm-.354-5.12-.183-2.561.96-.068.182,2.562Zm-.369-5.117-.189-2.562.959-.07.189,2.562Zm-.381-5.121-.2-2.56.959-.075.2,2.562Zm-.394-5.119-.2-2.558.96-.077.2,2.561Zm-.406-5.117-.208-2.561.959-.078.208,2.56Zm-.419-5.116-.215-2.561.959-.08.214,2.56Zm-.433-5.115-.222-2.559.958-.084.222,2.56Zm-.447-5.12-.228-2.559.958-.085.228,2.559Zm-.461-5.115-.237-2.558.959-.092.236,2.563Zm-.48-5.119-.246-2.564.957-.093.248,2.565Zm-.56-5.054-.586-2.5.937-.219.585,2.5Zm-1.171-5-.584-2.5.937-.219.584,2.5Zm-1.169-5-.585-2.5.936-.219.586,2.5Zm-1.171-5-.324-1.387-.013-1.25h.962v1.142l.312,1.277Zm.625-5.2h-.962v-.979l.342-1.651.94.2-.331,1.552Zm.856-4.939-.94-.2.535-2.509.94.2Zm1.071-5.018-.94-.2.535-2.51.94.2Zm1.071-5.017-.94-.2.534-2.508.94.2Zm1.07-5.018-.94-.2.535-2.51.94.2Zm1.071-5.02-.94-.2.535-2.51.94.2Zm1.071-5.017-.94-.2.535-2.51.94.2Zm1.071-5.019-.94-.2.535-2.507.94.2Zm1.07-5.019-.94-.2.535-2.508.94.2Zm1.071-5.017-.94-.2.535-2.509.94.2Zm1.072-5.017-.941-.2.535-2.508.94.2Zm1.07-5.019-.94-.2.542-2.517.937.219Zm1.121-5-.937-.219.583-2.5.937.218Zm1.164-5-.937-.217.584-2.5.937.219Zm1.166-5-.937-.219.583-2.5.936.218Zm1.164-5-.937-.219.583-2.5.937.218Zm1.165-5-.937-.218.583-2.5.937.219Zm1.165-5-.937-.219.583-2.5.936.218Zm1.164-5-.937-.218.584-2.5.937.219Zm1.165-5-.936-.22.581-2.5.937.219Zm1.165-5-.937-.219.583-2.5.937.219Zm1.165-5-.937-.218.583-2.5.937.218Zm1.164-5-.936-.219.582-2.5.937.219Zm1.165-5-.937-.217.583-2.5.937.217Z" transform="translate(-462.694 -8425.03)" fill="#999"/>
        </g>
        <path id="Trazado_108273" data-name="Trazado 108273" d="M421.164,8772.891c-.019-1.309-1.9-131.189-1.063-160.8a112.6,112.6,0,0,1,1.657-16.281c2-11.359,6.783-38.525,8.061-45.428,1.419-7.658-.464-47.592-1.076-59.65-.1-1.885-.144-3.807-.144-5.705v-26.379c.015-.7,1.947-68.689,28.574-97.314.077-.111,3.05-4.033,10.176-6.635l.439,1.205c-6.735,2.459-9.6,6.213-9.632,6.252-26.34,28.32-28.259,95.83-28.275,96.508v26.363c0,1.877.048,3.775.143,5.643.612,12.09,2.5,52.15,1.057,59.945-1.277,6.9-6.061,34.061-8.059,45.418a111.272,111.272,0,0,0-1.637,16.1c-.839,29.58,1.045,159.436,1.063,160.742Z" transform="translate(-343.296 -8265.38)" fill="#999"/>
        <g id="Grupo_56077" data-name="Grupo 56077" transform="translate(29.853 48.087)" opacity="0.74">
          <path id="Trazado_108274" data-name="Trazado 108274" d="M535.327,8375.239s-19.742,24.705-22.419,31.592,4.016,34.114,4.016,34.114,1.338,29.993-1,49.067-5.688,64.611-5.688,64.611l-2.343,110.39,4.35,118.453s.669,51.865-1.339,70.269a264.143,264.143,0,0,0-1.672,31.788s-94.058,10.038-131.351-12.045a36.562,36.562,0,0,0,13.9-30.451c-.669-20.41-1-103.061-1-103.061l-1.294-85.661,6.143-141.205-1.454-90.346s-1.547-38.7,11.916-63.854,13.137-30.361,13.137-30.361l14.1-8.734s8.867-6.915,18.459,4.239l5.354,6.134,8.254-5.912s10.708-5.95,18.515,1.375l24.538,27.18s14.611,17.846,21.081,20.076Z" transform="translate(-377.235 -8317.067)" fill="#ccc"/>
          <path id="Trazado_108275" data-name="Trazado 108275" d="M461.891,8888.442c-29.206,0-64.682-2.749-84.285-14.356a.642.642,0,0,1-.037-1.08,36.22,36.22,0,0,0,13.626-29.9c-.663-20.187-1-102.252-1.005-103.079l-1.294-85.653,6.144-141.244-1.454-90.308c-.015-.373-1.4-39.145,11.992-64.166,13.051-24.381,13.067-29.812,13.062-30.031a.66.66,0,0,1,.3-.572l14.1-8.734c.037-.034,9.407-7.12,19.283,4.365l4.968,5.691,7.78-5.571c.173-.1,11.271-6.13,19.328,1.428l24.575,27.217c.166.2,14.589,17.755,20.814,19.9l5.831,2.354a.643.643,0,0,1,.261,1c-.2.245-19.712,24.7-22.323,31.423-2.573,6.622,3.973,33.457,4.04,33.728.031.426,1.332,30.391-.991,49.3-2.313,18.842-5.651,64.127-5.685,64.585l-2.34,110.355,4.35,118.415c.008.534.647,52.13-1.341,70.361a266.231,266.231,0,0,0-1.67,31.7.639.639,0,0,1-.573.651C508.908,8886.265,487.882,8888.442,461.891,8888.442Zm-82.81-14.985c35.678,20.223,121.609,12.327,129.553,11.544a274.108,274.108,0,0,1,1.686-31.279c1.981-18.154,1.341-69.672,1.334-70.19l-4.35-118.437,2.341-110.427c.035-.489,3.376-45.807,5.694-64.677,2.308-18.8,1.013-48.661,1-48.961-.258-1-6.692-27.377-3.972-34.373,2.464-6.342,18.735-27,21.979-31.087l-5-2.021c-6.534-2.252-20.735-19.529-21.336-20.265l-24.517-27.155c-7.331-6.875-17.626-1.3-17.729-1.244l-8.191,5.872a.638.638,0,0,1-.857-.1l-5.354-6.133c-9.063-10.54-17.239-4.419-17.583-4.155l-13.876,8.6c-.167,1.639-1.6,8.644-13.191,30.295-13.229,24.716-11.857,63.139-11.842,63.524l1.454,90.359-6.144,141.245,1.295,85.624c0,.834.342,82.879,1,103.049A37.75,37.75,0,0,1,379.081,8873.457Z" transform="translate(-377.292 -8317.123)" fill="#4d4d4d"/>
        </g>
        <path id="Trazado_108276" data-name="Trazado 108276" d="M509.866,8406.773a.662.662,0,0,1-.256-.053c-20.373-8.871-49.058-7.654-49.349-7.646a.657.657,0,0,1-.318-.066c-13.826-6.967-33.9-4.759-34.1-4.729a.658.658,0,0,1-.318-.045c-9.457-3.917-30.407-2.866-30.616-2.854a.628.628,0,0,1-.675-.605.641.641,0,0,1,.607-.674c.867-.048,21.237-1.066,31.023,2.886,1.981-.2,21.028-1.91,34.511,4.8,2.419-.087,29.93-.875,49.75,7.756a.641.641,0,0,1-.257,1.229Z" transform="translate(-345.791 -8261.951)" fill="#4d4d4d"/>
        <path id="Trazado_108277" data-name="Trazado 108277" d="M444.742,8624.043a29,29,0,0,1-20.1-7.965,35.816,35.816,0,0,1-35.884-7.144.641.641,0,1,1,.914-.9,34.514,34.514,0,0,0,34.936,6.7.636.636,0,0,1,.693.184c.583.66,14.525,15.983,38.374,2.207a.661.661,0,0,1,.443-.074A39.717,39.717,0,0,0,488.3,8612.6a.646.646,0,0,1,.3-.078c.127,0,12.784-.208,18.422-5.823a.642.642,0,0,1,.905.91c-5.719,5.694-17.556,6.157-19.152,6.194a40.511,40.511,0,0,1-24.671,4.548C456.745,8622.561,450.241,8624.043,444.742,8624.043Z" transform="translate(-346.342 -8240.886)" fill="#4d4d4d"/>
        <path id="Trazado_108278" data-name="Trazado 108278" d="M480.018,8875.348a.64.64,0,0,1-.641-.634l-1.884-200.769,9.946-249.021a.656.656,0,0,1,.666-.616.641.641,0,0,1,.616.666l-9.946,248.989L480.66,8874.7a.643.643,0,0,1-.635.647Z" transform="translate(-337.692 -8258.609)" fill="#4d4d4d"/>
        <g id="Grupo_56078" data-name="Grupo 56078" transform="translate(59.306 53.346)">
          <path id="Trazado_108279" data-name="Trazado 108279" d="M415.03,8329.912l-5.685-4.261-.052-2.814s.008-1.2-1.03-.861l-3.577,3.511s-1.492,1.626.432,1.921l3.282-.156,5.532,3.759,1.663.358Z" transform="translate(-404.134 -8321.915)" fill="#666"/>
        </g>
        <g id="Grupo_56079" data-name="Grupo 56079" transform="translate(65.037 49.332)">
          <path id="Trazado_108280" data-name="Trazado 108280" d="M415.648,8328.686l-1.544-6.934,1.793-2.17s.788-.908-.222-1.325l-5,.337s-2.191.265-.923,1.741l2.593,2.017,1.756,6.455,1.03,1.354Z" transform="translate(-409.357 -8318.257)" fill="#666"/>
        </g>
        <g id="Grupo_56080" data-name="Grupo 56080" transform="translate(36.707 119.976)">
          <path id="Trazado_108281" data-name="Trazado 108281" d="M394.839,8389.476l-6.31-3.267-.514-2.765s-.191-1.187-1.16-.682l-2.948,4.053s-1.2,1.849.743,1.824l3.212-.7,6.077,2.8,1.7.077Z" transform="translate(-383.539 -8382.638)" fill="#666"/>
        </g>
        <g id="Grupo_56081" data-name="Grupo 56081" transform="translate(72.9 120.883)">
          <path id="Trazado_108282" data-name="Trazado 108282" d="M423.925,8393.816l-2.406-6.687,1.5-2.377s.667-1-.387-1.287l-4.917.966s-2.141.537-.7,1.843l2.827,1.674,2.556,6.181,1.193,1.213Z" transform="translate(-416.522 -8383.466)" fill="#666"/>
        </g>
        <g id="Grupo_56082" data-name="Grupo 56082" transform="translate(109.913 125.394)">
          <path id="Trazado_108283" data-name="Trazado 108283" d="M455.752,8398.053l-.954-7.042,1.968-2.01s.863-.838-.11-1.34l-5.01-.084s-2.205.078-1.067,1.654l2.414,2.229,1.206,6.58.912,1.436Z" transform="translate(-450.254 -8387.577)" fill="#666"/>
        </g>
        <g id="Grupo_56083" data-name="Grupo 56083" transform="translate(73.708 362.511)">
          <path id="Trazado_108284" data-name="Trazado 108284" d="M422.756,8614.148l-.954-7.04,1.968-2.011s.863-.838-.109-1.34l-5.011-.085s-2.206.078-1.065,1.656l2.414,2.229,1.2,6.579.913,1.435Z" transform="translate(-417.259 -8603.673)" fill="#666"/>
        </g>
        <g id="Grupo_56084" data-name="Grupo 56084" transform="translate(112.277 365.971)">
          <path id="Trazado_108285" data-name="Trazado 108285" d="M459.562,8617.211l-2.208-6.754,1.574-2.333s.7-.979-.349-1.3l-4.943.821s-2.156.474-.751,1.821l2.777,1.757,2.371,6.255,1.157,1.245Z" transform="translate(-452.409 -8606.826)" fill="#666"/>
        </g>
        <g id="Grupo_56085" data-name="Grupo 56085" transform="translate(133.42 335.259)">
          <path id="Trazado_108286" data-name="Trazado 108286" d="M483.1,8584.481l-6.726-2.288-.922-2.659s-.365-1.146-1.248-.5l-2.312,4.448s-.914,2.008,1.007,1.693l3.071-1.168,6.427,1.858,1.691-.176Z" transform="translate(-471.678 -8578.837)" fill="#666"/>
        </g>
        <g id="Grupo_56086" data-name="Grupo 56086" transform="translate(139.208 236.207)">
          <path id="Trazado_108287" data-name="Trazado 108287" d="M488.377,8494.21l-6.726-2.287-.922-2.659s-.365-1.146-1.248-.5l-2.312,4.446s-.913,2.009,1.007,1.692l3.072-1.165,6.426,1.856,1.691-.177Z" transform="translate(-476.952 -8488.566)" fill="#666"/>
        </g>
        <g id="Grupo_56087" data-name="Grupo 56087" transform="translate(132.272 379.042)">
          <path id="Trazado_108288" data-name="Trazado 108288" d="M482.056,8624.382l-6.726-2.287-.921-2.658s-.366-1.146-1.248-.5l-2.312,4.446s-.914,2.009,1.007,1.693l3.071-1.167,6.426,1.858,1.692-.176Z" transform="translate(-470.632 -8618.738)" fill="#666"/>
        </g>
        <g id="Grupo_56088" data-name="Grupo 56088" transform="translate(132.008 432.411)">
          <path id="Trazado_108289" data-name="Trazado 108289" d="M481.815,8673.021l-6.726-2.288-.921-2.659s-.365-1.146-1.248-.5l-2.312,4.446s-.914,2.009,1.007,1.692l3.071-1.166,6.426,1.857,1.692-.177Z" transform="translate(-470.391 -8667.377)" fill="#666"/>
        </g>
        <g id="Grupo_56089" data-name="Grupo 56089" transform="translate(133.42 496.642)">
          <path id="Trazado_108290" data-name="Trazado 108290" d="M483.1,8731.558l-6.726-2.287-.922-2.659s-.365-1.146-1.248-.5l-2.312,4.448s-.914,2.007,1.007,1.692l3.071-1.166,6.427,1.856,1.691-.176Z" transform="translate(-471.678 -8725.914)" fill="#666"/>
        </g>
      </g>
    </g>
  </g>
</svg>
