<svg xmlns="http://www.w3.org/2000/svg" width="968.156" height="448.205" viewBox="0 0 968.156 448.205">
  <g id="Grupo_57740" data-name="Grupo 57740" transform="translate(-284 -1265)">
    <g id="Grupo_56197" data-name="Grupo 56197" transform="translate(135.397 -4776.014)">
      <rect id="Rectángulo_10172" data-name="Rectángulo 10172" width="575.841" height="255.841" rx="11.478" transform="translate(148.603 6041.014)" fill="#f1f1f1"/>
      <g id="Grupo_56183" data-name="Grupo 56183">
        <rect id="Rectángulo_10173" data-name="Rectángulo 10173" width="2.277" height="170.221" transform="translate(188.95 6096.406)" fill="#333"/>
        <g id="Grupo_56181" data-name="Grupo 56181">
          <path id="Trazado_108567" data-name="Trazado 108567" d="M198.521,6260.232l-8.433,3.583-8.433-3.583,8.433,19.99Z" fill="#333"/>
        </g>
        <g id="Grupo_56182" data-name="Grupo 56182">
          <path id="Trazado_108568" data-name="Trazado 108568" d="M198.521,6102.8l-8.433-3.583-8.433,3.583,8.433-19.99Z" fill="#333"/>
        </g>
      </g>
      <rect id="Rectángulo_10174" data-name="Rectángulo 10174" width="9.654" height="2.277" transform="translate(185.088 6080.536)" fill="#333"/>
      <rect id="Rectángulo_10175" data-name="Rectángulo 10175" width="9.654" height="2.277" transform="translate(185.088 6280.247)" fill="#333"/>
      <g id="Grupo_56186" data-name="Grupo 56186">
        <rect id="Rectángulo_10176" data-name="Rectángulo 10176" width="2.277" height="170.221" transform="translate(402.072 6096.406)" fill="#333"/>
        <g id="Grupo_56184" data-name="Grupo 56184">
          <path id="Trazado_108569" data-name="Trazado 108569" d="M411.644,6260.232l-8.433,3.583-8.433-3.583,8.433,19.99Z" fill="#333"/>
        </g>
        <g id="Grupo_56185" data-name="Grupo 56185">
          <path id="Trazado_108570" data-name="Trazado 108570" d="M411.644,6102.8l-8.433-3.583-8.433,3.583,8.433-19.99Z" fill="#333"/>
        </g>
      </g>
      <rect id="Rectángulo_10177" data-name="Rectángulo 10177" width="9.653" height="2.277" transform="translate(398.211 6080.536)" fill="#333"/>
      <rect id="Rectángulo_10178" data-name="Rectángulo 10178" width="9.653" height="2.277" transform="translate(398.211 6280.247)" fill="#333"/>
      <rect id="Rectángulo_10179" data-name="Rectángulo 10179" width="160.693" height="2.277" transform="translate(321.87 6169.437)" fill="#999"/>
      <rect id="Rectángulo_10180" data-name="Rectángulo 10180" width="162.308" height="2.277" transform="translate(318.9 6206.014)" fill="#666"/>
      <rect id="Rectángulo_10181" data-name="Rectángulo 10181" width="73.367" height="2.277" transform="translate(423.157 6079.183)" fill="#666"/>
      <g id="Grupo_56188" data-name="Grupo 56188">
        <rect id="Rectángulo_10182" data-name="Rectángulo 10182" width="2.277" height="72.38" transform="translate(458.702 6081.673)" fill="#333"/>
        <g id="Grupo_56187" data-name="Grupo 56187">
          <path id="Trazado_108571" data-name="Trazado 108571" d="M468.273,6147.658l-8.433,3.583-8.433-3.583,8.433,19.99Z" fill="#333"/>
        </g>
      </g>
      <g id="Grupo_56189" data-name="Grupo 56189">
        <path id="Trazado_108572" data-name="Trazado 108572" d="M189.457,6067.265l-.642,2.363h-2.158l2.813-9.205h2.718l2.868,9.205h-2.24l-.71-2.363Zm2.335-1.557-.574-1.952c-.15-.546-.314-1.243-.45-1.776h-.042c-.122.547-.272,1.243-.409,1.776l-.56,1.952Z" fill="#4d4d4d"/>
      </g>
      <g id="Grupo_56190" data-name="Grupo 56190">
        <path id="Trazado_108573" data-name="Trazado 108573" d="M401.242,6067.265l-.642,2.363h-2.157l2.813-9.205h2.717l2.869,9.205H404.6l-.71-2.363Zm2.335-1.557-.573-1.952c-.15-.546-.314-1.243-.451-1.776h-.041c-.123.547-.273,1.243-.409,1.776l-.56,1.952Z" fill="#4d4d4d"/>
      </g>
      <g id="Grupo_56191" data-name="Grupo 56191">
        <path id="Trazado_108574" data-name="Trazado 108574" d="M493.864,6165.411a16.2,16.2,0,0,1,2.691-.2,5.084,5.084,0,0,1,2.717.519,2,2,0,0,1,1.093,1.816,2.092,2.092,0,0,1-1.5,1.952v.028a2.293,2.293,0,0,1,1.83,2.267,2.414,2.414,0,0,1-.956,1.953,5.814,5.814,0,0,1-3.618.833,15.991,15.991,0,0,1-2.254-.137Zm2.062,3.511h.683c1.106,0,1.68-.452,1.68-1.135s-.533-1.065-1.475-1.065a3.884,3.884,0,0,0-.888.069Zm0,4.083a4.5,4.5,0,0,0,.806.04c.942,0,1.775-.368,1.775-1.338,0-.928-.833-1.3-1.871-1.3h-.71Z" fill="#4d4d4d"/>
      </g>
      <g id="Grupo_56192" data-name="Grupo 56192">
        <path id="Trazado_108575" data-name="Trazado 108575" d="M693.666,6131.154a16.243,16.243,0,0,1,2.69-.2,5.084,5.084,0,0,1,2.718.52,2,2,0,0,1,1.092,1.815,2.091,2.091,0,0,1-1.5,1.953v.028a2.291,2.291,0,0,1,1.83,2.267,2.409,2.409,0,0,1-.956,1.952,5.806,5.806,0,0,1-3.619.833,16.194,16.194,0,0,1-2.253-.136Zm2.062,3.51h.683c1.106,0,1.68-.451,1.68-1.134s-.533-1.065-1.475-1.065a3.874,3.874,0,0,0-.888.069Zm0,4.083a4.5,4.5,0,0,0,.806.04c.942,0,1.775-.368,1.775-1.337,0-.929-.833-1.3-1.871-1.3h-.71Z" fill="#4d4d4d"/>
      </g>
      <g id="Grupo_56193" data-name="Grupo 56193">
        <path id="Trazado_108576" data-name="Trazado 108576" d="M502.3,6211.943a6.109,6.109,0,0,1-2.349.4c-3.181,0-4.82-1.994-4.82-4.616a4.678,4.678,0,0,1,5.025-4.861,5.714,5.714,0,0,1,2.267.4l-.437,1.652a4.377,4.377,0,0,0-1.748-.341,3.019,3.019,0,0,0,.014,6.035,4.955,4.955,0,0,0,1.748-.3Z" fill="#4d4d4d"/>
      </g>
      <path id="Trazado_108577" data-name="Trazado 108577" d="M593.666,6235.669l-.119-.451c-.771-2.927-18.866-71.919-17.1-92.866,1.942-22.974,7.346-43.363,14.458-54.56.4-1.133,6.132-17.37,7.7-22.345l.237-.753.641.463c.085.062,8.574,6.175,13.88,7.179a36.683,36.683,0,0,0,10.507.293l.751-.107-3.945,27.616,12.554,27.471,8.319,18.569c.221.4,5.846,10.865,5.544,17.042-.319,6.548-3.408,10.643-6.82,14.6-3.533,4.1-3.723,11.6-3.724,11.67l-.742,35.793c-.058.4-1.5,7.968-21.476,9.17Zm5.787-169.138c-1.9,5.872-7.434,21.537-7.492,21.7l-.057.115c-7.035,11.037-12.388,31.261-14.318,54.1-1.68,19.882,15.35,85.907,16.944,92.029l19.732-1.159c18.919-1.139,20.4-8.072,20.414-8.142l.734-35.708c.006-.323.2-7.978,4-12.389,4.034-4.68,6.271-8.283,6.546-13.915.286-5.862-5.37-16.376-5.427-16.482l-8.336-18.6L619.5,6100.307l3.78-26.464a37.235,37.235,0,0,1-10.13-.388C608.407,6072.558,601.573,6068,599.453,6066.531Z" fill="#4d4d4d"/>
      <path id="Trazado_108578" data-name="Trazado 108578" d="M618.891,6079.509c-.828,0-1.809-.01-2.971-.03-8.66-.15-17.675-8.559-18.055-8.917l.782-.829c.09.086,9.076,8.465,17.293,8.608,5.539.1,6.5-.095,6.66-.156a.5.5,0,0,0-.268.465.486.486,0,0,0,.256.431l.339-1.087a.675.675,0,0,1,.536.738C623.385,6079.225,623.34,6079.509,618.891,6079.509Z" fill="#4d4d4d"/>
      <path id="Trazado_108579" data-name="Trazado 108579" d="M617.971,6101.121a24.309,24.309,0,0,1-8.254-1.776c-6.829-2.524-17.654-10.505-18.111-10.843l.677-.917c.111.083,11.153,8.224,17.829,10.693,6.5,2.4,9.4,1.557,9.433,1.55l.348,1.084A6.741,6.741,0,0,1,617.971,6101.121Z" fill="#4d4d4d"/>
      <path id="Trazado_108580" data-name="Trazado 108580" d="M611.1,6162.277c-7.889,0-14.307-10.349-14.307-23.069s6.418-23.07,14.307-23.07,14.306,10.349,14.306,23.07S618.991,6162.277,611.1,6162.277Zm0-45c-7.262,0-13.169,9.838-13.169,21.931s5.907,21.93,13.169,21.93,13.168-9.838,13.168-21.93S618.364,6117.277,611.1,6117.277Z" fill="#4d4d4d"/>
      <rect id="Rectángulo_10183" data-name="Rectángulo 10183" width="1.139" height="19.586" transform="translate(606.284 6097.558) rotate(-10.565)" fill="#4d4d4d"/>
      <rect id="Rectángulo_10184" data-name="Rectángulo 10184" width="1.139" height="72.456" transform="translate(612.378 6161.501) rotate(-0.13)" fill="#4d4d4d"/>
      <rect id="Rectángulo_10185" data-name="Rectángulo 10185" width="61.856" height="1.139" transform="translate(611.103 6117.475)" fill="#4d4d4d"/>
      <rect id="Rectángulo_10186" data-name="Rectángulo 10186" width="61.242" height="1.139" transform="translate(611.717 6161.138)" fill="#4d4d4d"/>
      <g id="Grupo_56196" data-name="Grupo 56196">
        <rect id="Rectángulo_10187" data-name="Rectángulo 10187" width="1.139" height="33.486" transform="translate(669.865 6122.316)" fill="#4d4d4d"/>
        <g id="Grupo_56194" data-name="Grupo 56194">
          <path id="Trazado_108581" data-name="Trazado 108581" d="M668.5,6124.583l1.93-1.931,1.93,1.931v-1.639l-1.93-1.931-1.93,1.931Z" fill="#4d4d4d"/>
        </g>
        <g id="Grupo_56195" data-name="Grupo 56195">
          <path id="Trazado_108582" data-name="Trazado 108582" d="M668.5,6153.534l1.93,1.932,1.93-1.932v1.639l-1.93,1.93-1.93-1.93Z" fill="#4d4d4d"/>
        </g>
      </g>
    </g>
    <g id="Grupo_56218" data-name="Grupo 56218" transform="translate(161.425 -4763.258)">
      <rect id="Rectángulo_10188" data-name="Rectángulo 10188" width="344.157" height="448.204" transform="translate(746.575 6028.259)" fill="#dcdcde"/>
      <rect id="Rectángulo_10189" data-name="Rectángulo 10189" width="268.76" height="394.208" transform="translate(775.342 6057.084)" fill="#f7f2e6"/>
      <rect id="Rectángulo_10190" data-name="Rectángulo 10190" width="256.669" height="2" transform="translate(781.343 6240.178)" fill="#333"/>
      <rect id="Rectángulo_10191" data-name="Rectángulo 10191" width="256.669" height="2" transform="translate(781.343 6330.652)" fill="#333"/>
      <rect id="Rectángulo_10192" data-name="Rectángulo 10192" width="2" height="376.345" transform="translate(929.181 6066.828)" fill="#333"/>
      <g id="Grupo_56199" data-name="Grupo 56199">
        <rect id="Rectángulo_10193" data-name="Rectángulo 10193" width="2" height="163.038" transform="translate(1057.311 6273.066)" fill="#333"/>
        <g id="Grupo_56198" data-name="Grupo 56198">
          <path id="Trazado_108583" data-name="Trazado 108583" d="M1050.905,6430.488l7.406,3.146,7.406-3.146-7.406,17.557Z" fill="#333"/>
        </g>
      </g>
      <g id="Grupo_56201" data-name="Grupo 56201">
        <rect id="Rectángulo_10194" data-name="Rectángulo 10194" width="2" height="130.56" transform="translate(1057.311 6074.302)" fill="#333"/>
        <g id="Grupo_56200" data-name="Grupo 56200">
          <path id="Trazado_108584" data-name="Trazado 108584" d="M1065.718,6079.918l-7.406-3.146-7.406,3.146,7.406-17.557Z" fill="#333"/>
        </g>
      </g>
      <g id="Grupo_56203" data-name="Grupo 56203">
        <path id="Trazado_108585" data-name="Trazado 108585" d="M856.592,6215.362h-2v-2h2Zm0-10h-2v-3h2Zm0-5h-2v-8h2Zm0-11h-2v-2h2Zm0-10h-2v-3h2Zm0-5h-2v-8h2Zm0-11h-2v-2h2Zm0-10h-2v-3h2Zm0-5h-2v-8h2Zm0-11h-2v-2h2Zm0-10h-2v-3h2Zm0-5h-2v-8h2Zm0-11h-2v-2h2Zm0-10h-2v-3h2Zm0-5h-2v-8h2Zm0-11h-2v-2h2Zm0-10h-2v-3h2Zm0-5h-2v-8h2Z" fill="#333"/>
        <g id="Grupo_56202" data-name="Grupo 56202">
          <path id="Trazado_108586" data-name="Trazado 108586" d="M848.186,6210.617l7.406,3.146,7.406-3.146-7.406,17.557Z" fill="#333"/>
        </g>
      </g>
      <g id="Grupo_56205" data-name="Grupo 56205">
        <path id="Trazado_108587" data-name="Trazado 108587" d="M1042.932,6134.612h-8v-2h8Zm-10,0h-3v-2h3Zm-11,0h-2v-2h2Zm-5,0h-8v-2h8Zm-10,0h-3v-2h3Zm-11,0h-2v-2h2Zm-5,0h-8v-2h8Zm-10,0h-3v-2h3Zm-11,0h-2v-2h2Zm-5,0h-8v-2h8Zm-10,0h-3v-2h3Z" fill="#333"/>
        <g id="Grupo_56204" data-name="Grupo 56204">
          <path id="Trazado_108588" data-name="Trazado 108588" d="M952.728,6126.206l-3.146,7.406,3.146,7.406-17.557-7.406Z" fill="#333"/>
        </g>
      </g>
      <g id="Grupo_56207" data-name="Grupo 56207">
        <path id="Trazado_108589" data-name="Trazado 108589" d="M812.08,6309.362h-2v-3h2Zm0-5h-2v-8h2Zm0-11h-2v-2h2Zm0-10h-2v-3h2Zm0-5h-2v-8h2Zm0-11h-2v-2h2Zm0-10h-2v-3h2Zm0-5h-2v-8h2Zm0-11h-2v-2h2Zm0-10h-2v-3h2Zm0-5h-2v-8h2Zm0-11h-2v-2h2Zm0-10h-2v-3h2Zm0-5h-2v-8h2Zm0-11h-2v-2h2Zm0-10h-2v-3h2Zm0-5h-2v-8h2Zm0-11h-2v-2h2Zm0-10h-2v-3h2Zm0-5h-2v-8h2Zm0-11h-2v-2h2Zm0-10h-2v-3h2Zm0-5h-2v-8h2Zm0-11h-2v-2h2Zm0-10h-2v-3h2Zm0-5h-2v-8h2Zm0-11h-2v-2h2Zm0-10h-2v-3h2Zm0-5h-2v-8h2Z" fill="#333"/>
        <g id="Grupo_56206" data-name="Grupo 56206">
          <path id="Trazado_108590" data-name="Trazado 108590" d="M803.674,6305.4l7.406,3.146,7.406-3.146-7.406,17.557Z" fill="#333"/>
        </g>
      </g>
      <g id="Grupo_56209" data-name="Grupo 56209">
        <rect id="Rectángulo_10195" data-name="Rectángulo 10195" width="83.128" height="2" transform="translate(944.975 6041.469)" fill="#333"/>
        <g id="Grupo_56208" data-name="Grupo 56208">
          <path id="Trazado_108591" data-name="Trazado 108591" d="M1022.486,6049.875l3.146-7.406-3.146-7.406,17.557,7.406Z" fill="#333"/>
        </g>
      </g>
      <g id="Grupo_56211" data-name="Grupo 56211">
        <rect id="Rectángulo_10196" data-name="Rectángulo 10196" width="87.932" height="2" transform="translate(790.529 6041.469)" fill="#333"/>
        <g id="Grupo_56210" data-name="Grupo 56210">
          <path id="Trazado_108592" data-name="Trazado 108592" d="M796.147,6035.063,793,6042.469l3.146,7.406-17.557-7.406Z" fill="#333"/>
        </g>
      </g>
      <g id="Grupo_56212" data-name="Grupo 56212">
        <path id="Trazado_108593" data-name="Trazado 108593" d="M886.987,6042.47l.586-5.661h5.667v1.633h-4l-.279,2.346a2.385,2.385,0,0,1,.677-.346,2.79,2.79,0,0,1,.879-.142,2.82,2.82,0,0,1,2.272.884,3.675,3.675,0,0,1,.806,2.528,3.478,3.478,0,0,1-.882,2.435,3.266,3.266,0,0,1-2.544.971,3.825,3.825,0,0,1-2.4-.768,2.427,2.427,0,0,1-.963-2.107l.014-.035,1.962-.1a1.422,1.422,0,0,0,.384,1.057,1.365,1.365,0,0,0,1.005.381,1.174,1.174,0,0,0,1.05-.506,2.324,2.324,0,0,0,.338-1.32,2.451,2.451,0,0,0-.363-1.407,1.215,1.215,0,0,0-1.074-.529,1.559,1.559,0,0,0-.9.217,1.16,1.16,0,0,0-.442.586Z"/>
        <path id="Trazado_108594" data-name="Trazado 108594" d="M901.775,6043.015a4.484,4.484,0,0,1-.924,3.06,3.544,3.544,0,0,1-5.022,0,4.48,4.48,0,0,1-.928-3.06v-2.241a4.5,4.5,0,0,1,.925-3.06,3.521,3.521,0,0,1,5.018,0,4.473,4.473,0,0,1,.931,3.06Zm-2.03-2.454a3.342,3.342,0,0,0-.363-1.767,1.26,1.26,0,0,0-2.094,0,3.4,3.4,0,0,0-.356,1.771v2.643a3.389,3.389,0,0,0,.36,1.785,1.175,1.175,0,0,0,1.056.559,1.156,1.156,0,0,0,1.04-.559,3.413,3.413,0,0,0,.357-1.785Z"/>
        <path id="Trazado_108595" data-name="Trazado 108595" d="M909.949,6045.548a1.2,1.2,0,0,0,.872-.317,1.111,1.111,0,0,0,.328-.841H913l.021.041a2.353,2.353,0,0,1-.862,1.916,3.634,3.634,0,0,1-4.812-.3,4.066,4.066,0,0,1-.915-2.743v-.208a4.094,4.094,0,0,1,.912-2.745,3.219,3.219,0,0,1,2.6-1.074,3.176,3.176,0,0,1,2.251.8,2.646,2.646,0,0,1,.827,2.094l-.014.043h-1.857a1.478,1.478,0,0,0-.32-.975,1.092,1.092,0,0,0-.887-.387,1.182,1.182,0,0,0-1.141.627,3.452,3.452,0,0,0-.331,1.618v.209a3.439,3.439,0,0,0,.331,1.627A1.192,1.192,0,0,0,909.949,6045.548Z"/>
        <path id="Trazado_108596" data-name="Trazado 108596" d="M916.069,6039.419l.084,1a2.546,2.546,0,0,1,.911-.84,2.623,2.623,0,0,1,1.267-.3,2.328,2.328,0,0,1,1.242.32,1.982,1.982,0,0,1,.781.971,2.622,2.622,0,0,1,.908-.949,2.453,2.453,0,0,1,1.312-.342,2.181,2.181,0,0,1,1.763.772,3.606,3.606,0,0,1,.645,2.347v4.573h-2.038v-4.59a1.924,1.924,0,0,0-.279-1.2,1.019,1.019,0,0,0-.831-.336,1.433,1.433,0,0,0-.75.192,1.409,1.409,0,0,0-.506.535c0,.09,0,.166.007.229s.007.126.007.191v4.975h-2.031v-4.59a1.927,1.927,0,0,0-.279-1.186,1.015,1.015,0,0,0-.838-.346,1.572,1.572,0,0,0-.723.159,1.367,1.367,0,0,0-.512.443v5.52h-2.031v-7.553Z"/>
        <path id="Trazado_108597" data-name="Trazado 108597" d="M930.628,6044.891a.717.717,0,0,0-.324-.58,3.329,3.329,0,0,0-1.205-.431,4.852,4.852,0,0,1-2.02-.807,1.753,1.753,0,0,1-.681-1.455,2.082,2.082,0,0,1,.821-1.658,3.33,3.33,0,0,1,2.2-.68,3.6,3.6,0,0,1,2.3.678,2,2,0,0,1,.819,1.709l-.014.041h-1.967a.99.99,0,0,0-.29-.738,1.385,1.385,0,0,0-1.626-.047.765.765,0,0,0-.284.6.689.689,0,0,0,.3.572,3.234,3.234,0,0,0,1.2.4,4.924,4.924,0,0,1,2.074.82,1.806,1.806,0,0,1,.676,1.49,1.984,1.984,0,0,1-.873,1.665,3.773,3.773,0,0,1-2.3.646,3.51,3.51,0,0,1-2.384-.764,2.134,2.134,0,0,1-.834-1.742l.014-.041h1.864a1.058,1.058,0,0,0,.4.879,1.643,1.643,0,0,0,.985.272,1.425,1.425,0,0,0,.862-.223A.722.722,0,0,0,930.628,6044.891Z"/>
      </g>
      <g id="Grupo_56213" data-name="Grupo 56213">
        <path id="Trazado_108598" data-name="Trazado 108598" d="M953.187,6116.351h-6.936v-1.333l3.287-3.524a8.039,8.039,0,0,0,1.012-1.379,2.231,2.231,0,0,0,.3-1.043,1.575,1.575,0,0,0-.345-1.051,1.217,1.217,0,0,0-.981-.408,1.267,1.267,0,0,0-1.071.479,2.041,2.041,0,0,0-.366,1.273H946.1l-.013-.042a3.068,3.068,0,0,1,.9-2.327,3.384,3.384,0,0,1,2.529-.953,3.534,3.534,0,0,1,2.468.816,2.8,2.8,0,0,1,.9,2.178,3.054,3.054,0,0,1-.505,1.7,16.742,16.742,0,0,1-1.672,2.042l-1.808,1.968.015.035h4.27Z"/>
        <path id="Trazado_108599" data-name="Trazado 108599" d="M954.709,6111.849l.586-5.66h5.667v1.634h-4l-.28,2.345a2.456,2.456,0,0,1,.678-.346,3.2,3.2,0,0,1,3.151.743,3.675,3.675,0,0,1,.806,2.527,3.481,3.481,0,0,1-.883,2.436,3.264,3.264,0,0,1-2.544.97,3.821,3.821,0,0,1-2.4-.768,2.426,2.426,0,0,1-.963-2.107l.014-.035,1.962-.1a1.423,1.423,0,0,0,.384,1.058,1.365,1.365,0,0,0,1,.38,1.173,1.173,0,0,0,1.05-.505,2.321,2.321,0,0,0,.339-1.321,2.449,2.449,0,0,0-.363-1.407,1.218,1.218,0,0,0-1.074-.529,1.559,1.559,0,0,0-.9.217,1.17,1.17,0,0,0-.442.586Z"/>
        <path id="Trazado_108600" data-name="Trazado 108600" d="M964.871,6116.261l-1.109,2.2H962.4l.489-2.261v-1.592h1.982Z"/>
        <path id="Trazado_108601" data-name="Trazado 108601" d="M966.595,6111.849l.585-5.66h5.667v1.634h-4l-.279,2.345a2.443,2.443,0,0,1,.678-.346,3.194,3.194,0,0,1,3.15.743,3.675,3.675,0,0,1,.807,2.527,3.481,3.481,0,0,1-.883,2.436,3.264,3.264,0,0,1-2.544.97,3.821,3.821,0,0,1-2.4-.768,2.424,2.424,0,0,1-.963-2.107l.014-.035,1.961-.1a1.424,1.424,0,0,0,.384,1.058,1.369,1.369,0,0,0,1.005.38,1.175,1.175,0,0,0,1.05-.505,2.321,2.321,0,0,0,.339-1.321,2.449,2.449,0,0,0-.363-1.407,1.22,1.22,0,0,0-1.075-.529,1.558,1.558,0,0,0-.9.217,1.172,1.172,0,0,0-.443.586Z"/>
        <path id="Trazado_108602" data-name="Trazado 108602" d="M981.356,6114.928a1.2,1.2,0,0,0,.872-.316,1.114,1.114,0,0,0,.328-.843h1.85l.022.042a2.353,2.353,0,0,1-.863,1.915,3.634,3.634,0,0,1-4.812-.295,4.069,4.069,0,0,1-.914-2.744v-.209a4.094,4.094,0,0,1,.911-2.743,3.216,3.216,0,0,1,2.6-1.075,3.172,3.172,0,0,1,2.251.8,2.644,2.644,0,0,1,.828,2.094l-.015.042h-1.857a1.474,1.474,0,0,0-.32-.974,1.092,1.092,0,0,0-.887-.388,1.181,1.181,0,0,0-1.141.628,3.449,3.449,0,0,0-.331,1.616v.209a3.44,3.44,0,0,0,.331,1.628A1.192,1.192,0,0,0,981.356,6114.928Z"/>
        <path id="Trazado_108603" data-name="Trazado 108603" d="M987.476,6108.8l.084,1a2.549,2.549,0,0,1,.911-.841,2.628,2.628,0,0,1,1.267-.3,2.308,2.308,0,0,1,1.242.321,1.982,1.982,0,0,1,.782.97,2.617,2.617,0,0,1,.907-.949,2.462,2.462,0,0,1,1.312-.342,2.18,2.18,0,0,1,1.763.772,3.6,3.6,0,0,1,.645,2.348v4.571h-2.038v-4.588a1.921,1.921,0,0,0-.279-1.2,1.021,1.021,0,0,0-.831-.336,1.424,1.424,0,0,0-.75.193,1.4,1.4,0,0,0-.506.535c0,.089,0,.165.007.227s.007.127.007.193v4.973h-2.03v-4.588a1.922,1.922,0,0,0-.28-1.186,1.016,1.016,0,0,0-.838-.347,1.565,1.565,0,0,0-.722.159,1.377,1.377,0,0,0-.513.443v5.519h-2.031V6108.8Z"/>
        <path id="Trazado_108604" data-name="Trazado 108604" d="M1002.035,6114.271a.711.711,0,0,0-.324-.579,3.328,3.328,0,0,0-1.2-.432,4.864,4.864,0,0,1-2.021-.806A1.755,1.755,0,0,1,997.8,6111a2.081,2.081,0,0,1,.821-1.657,3.335,3.335,0,0,1,2.2-.681,3.6,3.6,0,0,1,2.3.678,2,2,0,0,1,.819,1.709l-.013.042h-1.968a1,1,0,0,0-.29-.74,1.388,1.388,0,0,0-1.626-.045.759.759,0,0,0-.283.6.688.688,0,0,0,.3.572,3.246,3.246,0,0,0,1.2.4,4.887,4.887,0,0,1,2.073.82,1.8,1.8,0,0,1,.677,1.49,1.981,1.981,0,0,1-.874,1.664,3.77,3.77,0,0,1-2.3.646,3.5,3.5,0,0,1-2.384-.764,2.139,2.139,0,0,1-.834-1.742l.015-.041h1.863a1.061,1.061,0,0,0,.4.879,1.64,1.64,0,0,0,.985.272,1.416,1.416,0,0,0,.862-.223A.723.723,0,0,0,1002.035,6114.271Z"/>
      </g>
      <g id="Grupo_56214" data-name="Grupo 56214">
        <path id="Trazado_108605" data-name="Trazado 108605" d="M866.291,6189.345h1.145a1.388,1.388,0,0,0,1.074-.381,1.5,1.5,0,0,0,.35-1.057,1.377,1.377,0,0,0-.35-.984,1.324,1.324,0,0,0-1.012-.37,1.431,1.431,0,0,0-.963.335,1.1,1.1,0,0,0-.39.879h-1.976l-.013-.042a2.305,2.305,0,0,1,.914-1.967,3.646,3.646,0,0,1,2.373-.776,3.9,3.9,0,0,1,2.515.754,2.6,2.6,0,0,1,.94,2.15,2.155,2.155,0,0,1-.419,1.259,2.772,2.772,0,0,1-1.152.932,2.589,2.589,0,0,1,1.288.922,2.424,2.424,0,0,1,.443,1.444,2.644,2.644,0,0,1-1.016,2.2,4.079,4.079,0,0,1-2.6.8,3.983,3.983,0,0,1-2.433-.75,2.394,2.394,0,0,1-.98-2.118l.014-.042h1.975a1.238,1.238,0,0,0,.419.962,1.521,1.521,0,0,0,1.06.378,1.549,1.549,0,0,0,1.114-.39,1.4,1.4,0,0,0,.408-1.058,1.528,1.528,0,0,0-.4-1.173,1.676,1.676,0,0,0-1.182-.373h-1.145Z"/>
        <path id="Trazado_108606" data-name="Trazado 108606" d="M872.691,6190.789l.586-5.66h5.667v1.634h-4l-.28,2.344a2.428,2.428,0,0,1,.678-.345,3.183,3.183,0,0,1,3.15.743,3.666,3.666,0,0,1,.807,2.526,3.483,3.483,0,0,1-.883,2.437,3.267,3.267,0,0,1-2.544.969,3.821,3.821,0,0,1-2.4-.767,2.428,2.428,0,0,1-.963-2.108l.014-.035,1.962-.1a1.425,1.425,0,0,0,.383,1.057,1.367,1.367,0,0,0,1.005.38,1.172,1.172,0,0,0,1.05-.505,2.318,2.318,0,0,0,.339-1.32,2.447,2.447,0,0,0-.363-1.407,1.218,1.218,0,0,0-1.074-.53,1.57,1.57,0,0,0-.9.217,1.174,1.174,0,0,0-.442.586Z"/>
        <path id="Trazado_108607" data-name="Trazado 108607" d="M882.853,6195.2l-1.11,2.2h-1.361l.489-2.26v-1.592h1.982Z"/>
        <path id="Trazado_108608" data-name="Trazado 108608" d="M884.576,6190.789l.586-5.66h5.667v1.634h-4l-.279,2.344a2.426,2.426,0,0,1,.678-.345,3.183,3.183,0,0,1,3.15.743,3.671,3.671,0,0,1,.807,2.526,3.483,3.483,0,0,1-.883,2.437,3.267,3.267,0,0,1-2.544.969,3.821,3.821,0,0,1-2.4-.767,2.425,2.425,0,0,1-.963-2.108l.013-.035,1.962-.1a1.421,1.421,0,0,0,.384,1.057,1.367,1.367,0,0,0,1,.38,1.174,1.174,0,0,0,1.05-.505,2.326,2.326,0,0,0,.339-1.32,2.44,2.44,0,0,0-.364-1.407,1.217,1.217,0,0,0-1.074-.53,1.569,1.569,0,0,0-.9.217,1.176,1.176,0,0,0-.443.586Z"/>
        <path id="Trazado_108609" data-name="Trazado 108609" d="M899.338,6193.867a1.2,1.2,0,0,0,.872-.315,1.116,1.116,0,0,0,.328-.843h1.85l.021.042a2.35,2.35,0,0,1-.862,1.915,3.636,3.636,0,0,1-4.812-.3,4.068,4.068,0,0,1-.914-2.743v-.209a4.092,4.092,0,0,1,.911-2.743,3.217,3.217,0,0,1,2.6-1.076,3.174,3.174,0,0,1,2.251.8,2.643,2.643,0,0,1,.827,2.094l-.014.042h-1.857a1.474,1.474,0,0,0-.32-.974,1.094,1.094,0,0,0-.887-.387,1.181,1.181,0,0,0-1.141.628,3.449,3.449,0,0,0-.331,1.616v.209a3.44,3.44,0,0,0,.331,1.628A1.193,1.193,0,0,0,899.338,6193.867Z"/>
        <path id="Trazado_108610" data-name="Trazado 108610" d="M905.458,6187.739l.084,1a2.563,2.563,0,0,1,.911-.841,2.634,2.634,0,0,1,1.267-.3,2.311,2.311,0,0,1,1.242.322,1.976,1.976,0,0,1,.781.969,2.636,2.636,0,0,1,.908-.949,2.471,2.471,0,0,1,1.312-.342,2.18,2.18,0,0,1,1.763.772,3.6,3.6,0,0,1,.645,2.349v4.571h-2.038V6190.7a1.918,1.918,0,0,0-.279-1.2,1.021,1.021,0,0,0-.831-.336,1.36,1.36,0,0,0-1.256.727c0,.089,0,.165.007.228s.007.127.007.192v4.974H907.95V6190.7a1.924,1.924,0,0,0-.279-1.186,1.015,1.015,0,0,0-.838-.346,1.577,1.577,0,0,0-.722.158,1.386,1.386,0,0,0-.513.443v5.52h-2.031v-7.552Z"/>
        <path id="Trazado_108611" data-name="Trazado 108611" d="M920.017,6193.211a.713.713,0,0,0-.324-.579,3.326,3.326,0,0,0-1.2-.433,4.857,4.857,0,0,1-2.021-.806,1.753,1.753,0,0,1-.681-1.456,2.081,2.081,0,0,1,.821-1.657,3.335,3.335,0,0,1,2.2-.681,3.6,3.6,0,0,1,2.3.678,2,2,0,0,1,.819,1.709l-.014.042h-1.967a.993.993,0,0,0-.29-.739,1.39,1.39,0,0,0-1.626-.046.76.76,0,0,0-.283.6.689.689,0,0,0,.3.572,3.268,3.268,0,0,0,1.2.4,4.886,4.886,0,0,1,2.074.821,1.8,1.8,0,0,1,.676,1.49,1.984,1.984,0,0,1-.873,1.664,3.77,3.77,0,0,1-2.3.645,3.508,3.508,0,0,1-2.384-.763,2.139,2.139,0,0,1-.834-1.742l.015-.042h1.863a1.058,1.058,0,0,0,.4.879,1.64,1.64,0,0,0,.985.273,1.409,1.409,0,0,0,.862-.224A.719.719,0,0,0,920.017,6193.211Z"/>
      </g>
      <g id="Grupo_56215" data-name="Grupo 56215">
        <path id="Trazado_108612" data-name="Trazado 108612" d="M825.587,6291.327l.586-5.66h5.667v1.635h-4l-.28,2.343a2.5,2.5,0,0,1,.678-.345,2.891,2.891,0,0,1,.879-.143,2.815,2.815,0,0,1,2.271.887,3.665,3.665,0,0,1,.807,2.525,3.486,3.486,0,0,1-.883,2.438,3.267,3.267,0,0,1-2.544.968,3.821,3.821,0,0,1-2.4-.767,2.427,2.427,0,0,1-.963-2.108l.014-.035,1.962-.1a1.427,1.427,0,0,0,.383,1.058,1.372,1.372,0,0,0,1.005.379,1.174,1.174,0,0,0,1.05-.5,2.322,2.322,0,0,0,.339-1.32,2.448,2.448,0,0,0-.363-1.408,1.219,1.219,0,0,0-1.074-.53,1.567,1.567,0,0,0-.9.217,1.184,1.184,0,0,0-.442.586Z"/>
        <path id="Trazado_108613" data-name="Trazado 108613" d="M838.135,6295.829H836.1v-8.361h-2.066v-1.438l4.1-.363Z"/>
        <path id="Trazado_108614" data-name="Trazado 108614" d="M848.549,6294.4a1.21,1.21,0,0,0,.872-.314,1.12,1.12,0,0,0,.328-.844H851.6l.022.043a2.356,2.356,0,0,1-.862,1.914,3.638,3.638,0,0,1-4.813-.295,4.076,4.076,0,0,1-.914-2.744v-.209a4.1,4.1,0,0,1,.911-2.742,3.22,3.22,0,0,1,2.6-1.076,3.171,3.171,0,0,1,2.251.8,2.648,2.648,0,0,1,.827,2.094l-.015.041h-1.856a1.474,1.474,0,0,0-.32-.972,1.092,1.092,0,0,0-.887-.389,1.183,1.183,0,0,0-1.142.629,3.447,3.447,0,0,0-.331,1.615v.209a3.447,3.447,0,0,0,.331,1.629A1.2,1.2,0,0,0,848.549,6294.4Z"/>
        <path id="Trazado_108615" data-name="Trazado 108615" d="M854.669,6288.278l.084,1a2.561,2.561,0,0,1,.911-.842,2.621,2.621,0,0,1,1.266-.3,2.3,2.3,0,0,1,1.243.322,1.983,1.983,0,0,1,.781.969,2.621,2.621,0,0,1,.907-.95,2.483,2.483,0,0,1,1.313-.341,2.176,2.176,0,0,1,1.762.771,3.606,3.606,0,0,1,.646,2.35v4.57h-2.038v-4.588a1.92,1.92,0,0,0-.28-1.2,1.019,1.019,0,0,0-.831-.336,1.36,1.36,0,0,0-1.255.728c0,.088,0,.164.006.227s.007.127.007.193v4.973h-2.03v-4.588a1.926,1.926,0,0,0-.279-1.185,1.015,1.015,0,0,0-.838-.348,1.578,1.578,0,0,0-.723.158,1.414,1.414,0,0,0-.513.443v5.52h-2.031v-7.551Z"/>
        <path id="Trazado_108616" data-name="Trazado 108616" d="M869.227,6293.749a.707.707,0,0,0-.324-.578,3.313,3.313,0,0,0-1.2-.434,4.833,4.833,0,0,1-2.02-.8,1.752,1.752,0,0,1-.681-1.457,2.078,2.078,0,0,1,.82-1.656,3.335,3.335,0,0,1,2.2-.681,3.605,3.605,0,0,1,2.3.677,2,2,0,0,1,.82,1.709l-.014.043h-1.968a1,1,0,0,0-.29-.74,1.392,1.392,0,0,0-1.626-.045.76.76,0,0,0-.283.6.689.689,0,0,0,.3.572,3.278,3.278,0,0,0,1.2.4,4.863,4.863,0,0,1,2.073.821,1.8,1.8,0,0,1,.677,1.49,1.987,1.987,0,0,1-.873,1.664,3.779,3.779,0,0,1-2.3.644,3.5,3.5,0,0,1-2.384-.763,2.139,2.139,0,0,1-.834-1.742l.015-.041h1.863a1.058,1.058,0,0,0,.4.878,1.642,1.642,0,0,0,.984.274,1.4,1.4,0,0,0,.862-.225A.717.717,0,0,0,869.227,6293.749Z"/>
      </g>
      <g id="Grupo_56216" data-name="Grupo 56216">
        <path id="Trazado_108617" data-name="Trazado 108617" d="M1022.967,6097.663h-1.719v-7.051h-1.741V6089.4l3.46-.3Z"/>
        <path id="Trazado_108618" data-name="Trazado 108618" d="M1031.771,6094.327a3.773,3.773,0,0,1-.78,2.58,2.984,2.984,0,0,1-4.234,0,3.769,3.769,0,0,1-.783-2.58v-1.891a3.791,3.791,0,0,1,.78-2.58,2.974,2.974,0,0,1,4.231,0,3.766,3.766,0,0,1,.786,2.58Zm-1.713-2.068a2.817,2.817,0,0,0-.3-1.491,1.064,1.064,0,0,0-1.766,0,2.86,2.86,0,0,0-.3,1.494v2.228a2.869,2.869,0,0,0,.3,1.506,1,1,0,0,0,.892.471.981.981,0,0,0,.877-.471,2.9,2.9,0,0,0,.3-1.506Z"/>
        <path id="Trazado_108619" data-name="Trazado 108619" d="M1038.663,6096.464a1.009,1.009,0,0,0,.735-.268.939.939,0,0,0,.278-.711h1.559l.018.035a1.991,1.991,0,0,1-.727,1.618,3.064,3.064,0,0,1-4.058-.252,3.43,3.43,0,0,1-.771-2.313v-.176a3.45,3.45,0,0,1,.768-2.312,2.708,2.708,0,0,1,2.192-.906,2.668,2.668,0,0,1,1.9.67,2.228,2.228,0,0,1,.7,1.765l-.012.035h-1.565a1.236,1.236,0,0,0-.272-.82.912.912,0,0,0-.747-.326,1,1,0,0,0-.962.527,2.924,2.924,0,0,0-.28,1.363v.178a2.89,2.89,0,0,0,.28,1.371A1,1,0,0,0,1038.663,6096.464Z"/>
        <path id="Trazado_108620" data-name="Trazado 108620" d="M1043.825,6091.3l.071.842a2.114,2.114,0,0,1,.768-.709,2.192,2.192,0,0,1,1.068-.25,1.951,1.951,0,0,1,1.048.269,1.674,1.674,0,0,1,.659.818,2.222,2.222,0,0,1,.765-.8,2.079,2.079,0,0,1,1.106-.287,1.841,1.841,0,0,1,1.487.648,3.045,3.045,0,0,1,.544,1.98v3.856h-1.718v-3.869a1.619,1.619,0,0,0-.236-1.01.863.863,0,0,0-.7-.281,1.188,1.188,0,0,0-.632.162,1.162,1.162,0,0,0-.426.451c0,.074,0,.139.006.191s.005.108.005.163v4.193h-1.712v-3.869a1.626,1.626,0,0,0-.236-1,.852.852,0,0,0-.706-.291,1.3,1.3,0,0,0-.609.133,1.165,1.165,0,0,0-.433.373v4.654h-1.713V6091.3Z"/>
        <path id="Trazado_108621" data-name="Trazado 108621" d="M1056.1,6095.909a.6.6,0,0,0-.274-.488,2.818,2.818,0,0,0-1.015-.365,4.083,4.083,0,0,1-1.7-.68,1.473,1.473,0,0,1-.574-1.227,1.753,1.753,0,0,1,.692-1.4,2.8,2.8,0,0,1,1.851-.572,3.035,3.035,0,0,1,1.939.57,1.686,1.686,0,0,1,.692,1.441l-.012.035h-1.66a.839.839,0,0,0-.244-.623.973.973,0,0,0-.715-.242.989.989,0,0,0-.656.2.639.639,0,0,0-.239.51.58.58,0,0,0,.25.483,2.767,2.767,0,0,0,1.016.335,4.1,4.1,0,0,1,1.748.692,1.52,1.52,0,0,1,.57,1.256,1.676,1.676,0,0,1-.735,1.4,3.188,3.188,0,0,1-1.942.545,2.948,2.948,0,0,1-2.01-.645,1.8,1.8,0,0,1-.7-1.468l.011-.035h1.572a.89.89,0,0,0,.335.74,1.378,1.378,0,0,0,.83.23,1.179,1.179,0,0,0,.726-.189A.6.6,0,0,0,1056.1,6095.909Z"/>
      </g>
      <g id="Grupo_56217" data-name="Grupo 56217">
        <path id="Trazado_108622" data-name="Trazado 108622" d="M1053.057,6233.932a10.051,10.051,0,0,0-1.879,3.008,14.763,14.763,0,0,0-.722,3.367l-.082.872h-1.719l.082-.872a12.39,12.39,0,0,1,.859-3.47,10.713,10.713,0,0,1,1.808-2.9H1047v-1.324h6.055Z"/>
        <path id="Trazado_108623" data-name="Trazado 108623" d="M1059.92,6237.841a3.779,3.779,0,0,1-.781,2.582,2.675,2.675,0,0,1-2.109.879,2.7,2.7,0,0,1-2.125-.879,3.779,3.779,0,0,1-.782-2.582v-1.889a3.792,3.792,0,0,1,.779-2.58,2.967,2.967,0,0,1,4.232,0,3.768,3.768,0,0,1,.786,2.58Zm-1.713-2.067a2.822,2.822,0,0,0-.306-1.492.992.992,0,0,0-.883-.473.98.98,0,0,0-.882.471,2.848,2.848,0,0,0-.3,1.494V6238a2.865,2.865,0,0,0,.3,1.506.994.994,0,0,0,.892.47.976.976,0,0,0,.877-.47,2.887,2.887,0,0,0,.3-1.506Z"/>
        <path id="Trazado_108624" data-name="Trazado 108624" d="M1066.811,6239.977a1.011,1.011,0,0,0,.736-.265.943.943,0,0,0,.277-.711h1.56l.017.035a1.981,1.981,0,0,1-.726,1.615,3.065,3.065,0,0,1-4.059-.25,3.427,3.427,0,0,1-.77-2.312v-.178a3.449,3.449,0,0,1,.767-2.312,2.716,2.716,0,0,1,2.192-.907,2.678,2.678,0,0,1,1.9.672,2.229,2.229,0,0,1,.7,1.766l-.012.035h-1.565a1.249,1.249,0,0,0-.271-.822.92.92,0,0,0-.748-.327.994.994,0,0,0-.961.53,2.894,2.894,0,0,0-.281,1.363v.176a2.9,2.9,0,0,0,.281,1.373A1,1,0,0,0,1066.811,6239.977Z"/>
        <path id="Trazado_108625" data-name="Trazado 108625" d="M1071.973,6234.809l.072.842a2.15,2.15,0,0,1,.767-.709,2.218,2.218,0,0,1,1.069-.25,1.941,1.941,0,0,1,1.048.272,1.675,1.675,0,0,1,.659.816,2.214,2.214,0,0,1,.764-.8,2.075,2.075,0,0,1,1.107-.289,1.835,1.835,0,0,1,1.486.651,3.039,3.039,0,0,1,.544,1.98v3.856h-1.718v-3.872a1.615,1.615,0,0,0-.236-1.007.853.853,0,0,0-.7-.284,1.2,1.2,0,0,0-.633.163,1.165,1.165,0,0,0-.426.451c0,.074,0,.138.006.191s.006.108.006.162v4.2h-1.713v-3.872a1.624,1.624,0,0,0-.235-1,.854.854,0,0,0-.706-.293,1.335,1.335,0,0,0-.61.133,1.145,1.145,0,0,0-.432.375v4.655h-1.713v-6.37Z"/>
        <path id="Trazado_108626" data-name="Trazado 108626" d="M1084.251,6239.425a.6.6,0,0,0-.275-.489,2.755,2.755,0,0,0-1.014-.365,4.11,4.11,0,0,1-1.7-.68,1.476,1.476,0,0,1-.575-1.228,1.752,1.752,0,0,1,.693-1.4,2.806,2.806,0,0,1,1.85-.574,3.036,3.036,0,0,1,1.94.571,1.686,1.686,0,0,1,.691,1.443l-.011.035h-1.661a.84.84,0,0,0-.244-.625,1.173,1.173,0,0,0-1.371-.037.639.639,0,0,0-.238.508.575.575,0,0,0,.25.482,2.7,2.7,0,0,0,1.015.336,4.146,4.146,0,0,1,1.749.692,1.522,1.522,0,0,1,.57,1.257,1.67,1.67,0,0,1-.736,1.4,3.183,3.183,0,0,1-1.942.545,2.952,2.952,0,0,1-2.01-.645,1.8,1.8,0,0,1-.7-1.469l.012-.035h1.571a.894.894,0,0,0,.335.742,1.388,1.388,0,0,0,.83.229,1.194,1.194,0,0,0,.727-.188A.605.605,0,0,0,1084.251,6239.425Z"/>
      </g>
    </g>
  </g>
</svg>
