<svg xmlns="http://www.w3.org/2000/svg" width="246.423" height="502.497" viewBox="0 0 246.423 502.497">
  <g id="Grupo_56234" data-name="Grupo 56234" transform="translate(-773.674 -5994.695)">
    <rect id="Rectángulo_10198" data-name="Rectángulo 10198" width="246.423" height="502.497" rx="19.158" transform="translate(773.674 5994.695)" fill="#fff"/>
    <g id="Grupo_56233" data-name="Grupo 56233" transform="translate(807.028 6009.863)">
      <g id="Grupo_56222" data-name="Grupo 56222" transform="translate(83.359)">
        <g id="Grupo_56219" data-name="Grupo 56219" transform="translate(1.292)">
          <path id="Trazado_108627" data-name="Trazado 108627" d="M940.5,6027.556c0-7.209-4.368-13.055-9.758-13.055s-9.759,5.846-9.759,13.055c0,5.639,2.677,10.428,6.419,12.253v19.882h7.373v-20.258C938.154,6037.379,940.5,6032.839,940.5,6027.556Z" transform="translate(-920.18 -6013.695)" fill="#fff"/>
          <path id="Trazado_108628" data-name="Trazado 108628" d="M935.392,6060.305h-8.986v-20.2c-3.859-2.157-6.419-7.2-6.419-12.742,0-7.643,4.74-13.86,10.565-13.86s10.565,6.217,10.565,13.86c0,5.185-2.233,9.958-5.725,12.319Zm-7.373-1.613h5.76v-19.905l.387-.236c3.243-1.975,5.338-6.366,5.338-11.189,0-6.753-4.016-12.247-8.952-12.247s-8.952,5.494-8.952,12.247c0,5.155,2.4,9.788,5.967,11.529l.452.221Z" transform="translate(-919.987 -6013.502)" fill="#999"/>
        </g>
        <g id="Grupo_56220" data-name="Grupo 56220" transform="translate(0 15.758)">
          <rect id="Rectángulo_10199" data-name="Rectángulo 10199" width="22.886" height="3.817" rx="1.31" transform="translate(0.807 0.807)" fill="#fff"/>
          <path id="Trazado_108629" data-name="Trazado 108629" d="M941.021,6038.469H920.248a1.865,1.865,0,0,1-1.863-1.862v-1.7a1.865,1.865,0,0,1,1.863-1.862h20.773a1.865,1.865,0,0,1,1.863,1.862v1.7A1.865,1.865,0,0,1,941.021,6038.469Zm-20.773-3.816a.25.25,0,0,0-.25.25v1.7a.25.25,0,0,0,.25.25h20.773a.25.25,0,0,0,.25-.25v-1.7a.25.25,0,0,0-.25-.25Z" transform="translate(-918.385 -6033.04)" fill="#999"/>
        </g>
        <g id="Grupo_56221" data-name="Grupo 56221" transform="translate(0 8.472)">
          <rect id="Rectángulo_10200" data-name="Rectángulo 10200" width="22.886" height="3.817" rx="1.31" transform="translate(0.807 0.807)" fill="#fff"/>
          <path id="Trazado_108630" data-name="Trazado 108630" d="M941.021,6029.435H920.248a1.864,1.864,0,0,1-1.863-1.862v-1.705a1.865,1.865,0,0,1,1.863-1.862h20.773a1.865,1.865,0,0,1,1.863,1.862v1.705A1.865,1.865,0,0,1,941.021,6029.435Zm-20.773-3.816a.25.25,0,0,0-.25.25v1.705a.25.25,0,0,0,.25.249h20.773a.25.25,0,0,0,.25-.249v-1.705a.25.25,0,0,0-.25-.25Z" transform="translate(-918.385 -6024.006)" fill="#999"/>
        </g>
      </g>
      <g id="Grupo_56223" data-name="Grupo 56223" transform="translate(0 33.099)">
        <path id="Trazado_108631" data-name="Trazado 108631" d="M942.814,6338.12s-4.208-12.624-1.683-24.125c1.459-6.647,8.008-28.862,8.008-28.862h0l5.382-25.548s10.644-29.956,10.454-41.931-11.468-25.723-11.468-25.723l-20.021-38.015s-13.369-21.415-12.988-34.436,10.739-36.208,10.739-36.208h1.14l3.231-8.839L888.28,6055.8l-4.562,8.934,2.67,1.742s-15.5,34.466-38.309,62.344-13.432,93.516-13.432,93.516l15.592,108.205.561,2.805v9.818l-22.723,49.653s-9.257,20.479-10.379,52.459-1.618,41.518-1.618,41.518l140.365,2.525,2.043-75.288s1.718-37.485-4.173-50.95C947.373,6347.219,942.814,6338.12,942.814,6338.12Z" transform="translate(-815.232 -6054.786)" fill="#fff"/>
        <path id="Trazado_108632" data-name="Trazado 108632" d="M957.026,6489.9l-142-2.554.043-.834c0-.1.508-9.9,1.617-41.5,1.115-31.772,10.357-52.558,10.451-52.763l22.651-49.5v-9.563l-.545-2.728-15.6-108.247c-.385-2.7-9.165-66.312,13.606-94.143,20.8-25.425,35.684-56.74,37.91-61.539l-2.7-1.759,5.225-10.23,48.742,19.184-3.7,10.107H931.56c-1.466,3.373-10.118,23.736-10.46,35.427-.369,12.625,12.734,33.771,12.866,33.983l20.013,38c.944,1.164,11.411,14.337,11.6,26.158.188,11.851-9.839,40.346-10.482,42.163l-5.371,25.5c-.081.284-6.572,22.325-8.009,28.869-2.365,10.778,1.36,22.762,1.644,23.646.393.788,4.9,9.877,11.492,24.95,5.9,13.483,4.31,49.772,4.24,51.311Zm-140.3-4.138,138.734,2.5,2.021-74.488c.018-.388,1.643-37.467-4.105-50.606-6.853-15.662-11.438-24.837-11.484-24.928l-.044-.106c-.174-.524-4.249-12.968-1.705-24.554,1.449-6.6,7.956-28.7,8.022-28.918l5.395-25.59c.107-.3,10.594-29.956,10.408-41.648-.183-11.551-11.174-25.089-11.286-25.225l-.089-.136-20.021-38.016c-.522-.831-13.464-21.721-13.081-34.834.381-13.029,10.383-35.562,10.809-36.515l.214-.478h1.1l2.767-7.568-45.915-18.073-3.9,7.638,2.641,1.722-.283.63c-.156.346-15.805,34.884-38.42,62.523-22.322,27.284-13.351,92.24-13.258,92.893l15.592,108.2.569,2.921v9.994l-22.8,49.813c-.09.2-9.2,20.719-10.307,52.151C817.368,6471.653,816.864,6482.824,816.724,6485.764Z" transform="translate(-815.029 -6054.541)" fill="#999"/>
      </g>
      <path id="Trazado_108633" data-name="Trazado 108633" d="M827.482,6499.7h-1.613v-43.972a142.623,142.623,0,0,1,9.323-50.392l21.836-45.773,1.24-11.53-7.567-41.855-9.511-78.357c-.076-.394-8.224-44.847,8.5-69.358,16.047-23.524,26.4-26.416,27.6-26.681,1.573-.664,20.88-8.014,40.253,20.217,18.693,27.236,21.911,34.324,22.29,35.237a208.185,208.185,0,0,0,20.342,24.521l-1.157,1.123a208.858,208.858,0,0,1-20.568-24.808l-.088-.17c-.023-.059-2.6-6.5-22.149-34.99-19.3-28.117-37.568-19.985-38.336-19.626l-.2.064c-.1.019-10.411,2.212-26.654,26.022-16.344,23.959-8.32,67.764-8.238,68.2l9.512,78.364,7.6,42.038-1.294,12.034L836.661,6406a140.99,140.99,0,0,0-9.179,49.728Z" transform="translate(-817.126 -6036.126)" fill="#999"/>
      <path id="Trazado_108634" data-name="Trazado 108634" d="M974.375,6530.513l-1.613-.034,1.3-61.928c.008-.323.839-32.148.631-47.731-.2-15.015-8.441-31.448-8.934-32.418-.4-.592-3.713-5.7-4.521-15.285-.831-9.855,2.528-38.656,2.671-39.878.2-.955,4.668-21.758,10.738-32.872,6.409-11.738,14.787-27.821,16.4-31.775l1.493.611c-1.686,4.121-10.04,20.138-16.482,31.938-5.955,10.907-10.518,32.147-10.564,32.359-.023.225-3.47,29.787-2.653,39.481.8,9.517,4.232,14.491,4.266,14.542l.057.093c.09.172,8.927,17.395,9.138,33.182.208,15.615-.623,47.473-.632,47.792Z" transform="translate(-843.293 -6062.856)" fill="#999"/>
      <path id="Trazado_108635" data-name="Trazado 108635" d="M954.6,6182.146c-.088-.2-8.912-19.7-18.473-36.2-9.448-16.3-54.852-35.771-55.31-35.965l.632-1.484c1.889.8,46.357,19.875,56.074,36.642,9.6,16.569,18.46,36.145,18.548,36.341Z" transform="translate(-827.757 -6031.882)" fill="#999"/>
      <g id="Grupo_56224" data-name="Grupo 56224" transform="translate(70.47 44.126)">
        <path id="Trazado_108636" data-name="Trazado 108636" d="M902.786,6069.137s29.556,12.212,45.226,16.713" transform="translate(-902.478 -6068.392)" fill="#fff"/>
        <path id="Trazado_108637" data-name="Trazado 108637" d="M947.716,6086.445c-15.534-4.46-45.016-16.618-45.312-16.742l.616-1.489c.3.121,29.694,12.245,45.141,16.682Z" transform="translate(-902.404 -6068.214)" fill="#999"/>
      </g>
      <rect id="Rectángulo_10201" data-name="Rectángulo 10201" width="117.664" height="1.613" transform="translate(68.281 466.326) rotate(-88.993)" fill="#999"/>
      <rect id="Rectángulo_10202" data-name="Rectángulo 10202" width="20.378" height="1.613" transform="matrix(0.49, -0.872, 0.872, 0.49, 64.603, 105.361)" fill="#999"/>
      <path id="Trazado_108638" data-name="Trazado 108638" d="M885.78,6411.8a203.316,203.316,0,0,1-27.663-1.868l-.683-.106V6398.89l.88.079c.308.029,31.109,2.754,50.132-.831,8.861-1.669,40.538-7.575,40.538-7.575l.864-.161.982,9.94-.623.2c-.266.084-26.827,8.466-48.756,10.553C896.085,6411.606,890.761,6411.8,885.78,6411.8Zm-26.733-3.363a198.353,198.353,0,0,0,42.253,1.053c19.893-1.893,43.671-9.021,47.8-10.292l-.681-6.887c-5.133.958-31.68,5.908-39.671,7.413-17.422,3.284-44.494,1.344-49.7.926Z" transform="translate(-823.234 -6086.425)" fill="#999"/>
      <path id="Trazado_108639" data-name="Trazado 108639" d="M863.8,6411.836l-2.637-3.108,2.475-2.675-2.354-3.019.85-.662,2.915,3.739-2.447,2.647,2.021,2.382Z" transform="translate(-823.956 -6088.741)" fill="#999"/>
      <path id="Trazado_108640" data-name="Trazado 108640" d="M868.773,6412.771l-2.79-3.288,2.618-2.83-2.49-3.193.9-.7,3.083,3.956-2.588,2.8,2.137,2.521Z" transform="translate(-824.888 -6088.815)" fill="#999"/>
      <path id="Trazado_108641" data-name="Trazado 108641" d="M873.342,6412.771l-2.79-3.288,2.618-2.83-2.49-3.193.9-.7,3.083,3.956-2.588,2.8,2.137,2.521Z" transform="translate(-825.772 -6088.815)" fill="#999"/>
      <path id="Trazado_108642" data-name="Trazado 108642" d="M877.8,6413.39l-2.962-3.491,2.78-3-2.644-3.392.954-.743,3.274,4.2-2.748,2.973,2.269,2.676Z" transform="translate(-826.601 -6088.815)" fill="#999"/>
      <path id="Trazado_108643" data-name="Trazado 108643" d="M882.328,6413.39l-2.962-3.491,2.78-3L879.5,6403.5l.954-.743,3.274,4.2-2.748,2.973,2.269,2.676Z" transform="translate(-827.477 -6088.815)" fill="#999"/>
      <path id="Trazado_108644" data-name="Trazado 108644" d="M886.589,6413.824l-2.962-3.491,2.78-3-2.644-3.391.954-.744,3.274,4.2-2.748,2.975,2.27,2.675Z" transform="translate(-828.301 -6088.899)" fill="#999"/>
      <path id="Trazado_108645" data-name="Trazado 108645" d="M892,6413.824l-2.962-3.491,2.78-3-2.644-3.391.954-.744,3.274,4.2-2.748,2.975,2.269,2.675Z" transform="translate(-829.348 -6088.899)" fill="#999"/>
      <path id="Trazado_108646" data-name="Trazado 108646" d="M896.7,6413.824l-2.962-3.491,2.78-3-2.644-3.391.954-.744,3.274,4.2-2.748,2.975,2.269,2.675Z" transform="translate(-830.257 -6088.899)" fill="#999"/>
      <path id="Trazado_108647" data-name="Trazado 108647" d="M901.087,6413.824l-2.962-3.491,2.78-3-2.644-3.391.954-.744,3.274,4.2-2.748,2.975,2.269,2.675Z" transform="translate(-831.106 -6088.899)" fill="#999"/>
      <path id="Trazado_108648" data-name="Trazado 108648" d="M905.565,6413.607l-2.962-3.491,2.78-3.006-2.644-3.391.954-.743,3.274,4.2-2.748,2.974,2.269,2.676Z" transform="translate(-831.973 -6088.858)" fill="#999"/>
      <path id="Trazado_108649" data-name="Trazado 108649" d="M910.13,6413.507l-2.962-3.63,2.78-3.123-2.644-3.524.954-.773,3.274,4.366-2.748,3.091,2.269,2.781Z" transform="translate(-832.856 -6088.757)" fill="#999"/>
      <path id="Trazado_108650" data-name="Trazado 108650" d="M915.555,6412.521l-2.962-3.629,2.78-3.124-2.644-3.525.954-.772,3.274,4.366-2.748,3.091,2.27,2.782Z" transform="translate(-833.906 -6088.566)" fill="#999"/>
      <path id="Trazado_108651" data-name="Trazado 108651" d="M919.9,6412.086l-2.962-3.629,2.78-3.124-2.644-3.524.954-.772,3.274,4.366-2.748,3.091,2.269,2.781Z" transform="translate(-834.747 -6088.482)" fill="#999"/>
      <path id="Trazado_108652" data-name="Trazado 108652" d="M924.005,6411.608l-2.962-3.629,2.78-3.124-2.644-3.524.954-.772,3.274,4.366-2.748,3.091,2.27,2.781Z" transform="translate(-835.541 -6088.39)" fill="#999"/>
      <path id="Trazado_108653" data-name="Trazado 108653" d="M928.44,6411.043l-2.962-3.629,2.78-3.124-2.644-3.524.954-.772,3.274,4.366-2.748,3.09,2.269,2.782Z" transform="translate(-836.399 -6088.28)" fill="#999"/>
      <path id="Trazado_108654" data-name="Trazado 108654" d="M932.763,6410.2l-2.962-3.63,2.78-3.123-2.644-3.524.954-.773,3.274,4.366-2.748,3.091,2.269,2.781Z" transform="translate(-837.235 -6088.117)" fill="#999"/>
      <path id="Trazado_108655" data-name="Trazado 108655" d="M936.719,6409.332l-2.962-3.629,2.78-3.124-2.644-3.525.954-.772,3.274,4.366-2.748,3.091,2.269,2.782Z" transform="translate(-838 -6087.949)" fill="#999"/>
      <path id="Trazado_108656" data-name="Trazado 108656" d="M941.545,6407.962l-2.962-3.629,2.78-3.124-2.644-3.524.954-.772,3.274,4.366-2.748,3.091,2.269,2.781Z" transform="translate(-838.934 -6087.685)" fill="#999"/>
      <path id="Trazado_108657" data-name="Trazado 108657" d="M946.956,6406.919l-2.962-3.629,2.78-3.124-2.644-3.524.954-.772,3.274,4.366-2.748,3.091,2.269,2.781Z" transform="translate(-839.981 -6087.482)" fill="#999"/>
      <path id="Trazado_108658" data-name="Trazado 108658" d="M952.15,6405.571l-2.963-3.629,2.78-3.124-2.644-3.525.954-.772,3.274,4.366-2.748,3.09,2.269,2.782Z" transform="translate(-840.986 -6087.222)" fill="#999"/>
      <path id="Trazado_108659" data-name="Trazado 108659" d="M956.846,6404.758l-2.962-3.629,2.78-3.124-2.644-3.525.954-.772,3.274,4.366-2.748,3.091,2.27,2.781Z" transform="translate(-841.895 -6087.064)" fill="#999"/>
      <path id="Trazado_108660" data-name="Trazado 108660" d="M962.527,6403.51l-2.962-3.412,2.78-2.936-2.644-3.313.954-.726,3.274,4.1-2.748,2.905,2.269,2.615Z" transform="translate(-842.994 -6086.951)" fill="#999"/>
      <path id="Trazado_108661" data-name="Trazado 108661" d="M968.115,6401.431l-2.637-3.234,2.475-2.783-2.354-3.141.85-.688,2.915,3.89-2.447,2.754,2.021,2.478Z" transform="translate(-844.138 -6086.654)" fill="#999"/>
      <g id="Grupo_56232" data-name="Grupo 56232" transform="translate(34.608 104.177)">
        <path id="Trazado_108662" data-name="Trazado 108662" d="M889.284,6397.743l-.177-1.6c.228-.024,22.98-2.555,37.021-5.457l14.241-2.947.327,1.58-14.242,2.947C912.339,6395.182,889.513,6397.718,889.284,6397.743Z" transform="translate(-863.969 -6190.086)" fill="#999"/>
        <g id="Grupo_56231" data-name="Grupo 56231">
          <g id="Grupo_56226" data-name="Grupo 56226">
            <path id="Trazado_108663" data-name="Trazado 108663" d="M948.385,6479.6a394.219,394.219,0,0,1-18.868-54c-1.11-3.979-1.986-7.123-2.847-9.594-3.28-9.411-15.227-67.891-15.734-70.375l-7.305-71.615-3.053-39.785L895,6144.667l1.61-.1,5.575,89.559,3.05,39.753,7.292,71.515c.111.529,12.42,60.78,15.665,70.089.878,2.519,1.76,5.684,2.877,9.691a392.645,392.645,0,0,0,18.8,53.8Z" transform="translate(-865.11 -6143.038)" fill="#999"/>
            <path id="Trazado_108664" data-name="Trazado 108664" d="M945.6,6565.338c-.634,0-1.222-.011-1.758-.03-4.147-.145-6.381-.628-6.639-1.436a.876.876,0,0,1,.536-1.083h0c1.325-.55,10.694-2.6,18.314-4.179,17.08-3.549,17.137-3.408,17.467-2.617a.853.853,0,0,1-.55,1.132,5.56,5.56,0,0,0-.669.492c-1.583,1.255-5.292,4.194-14.836,6.387A53.486,53.486,0,0,1,945.6,6565.338Zm-4.408-1.816a51.464,51.464,0,0,0,15.911-1.089c6.822-1.568,10.512-3.5,12.574-4.883C963.076,6558.746,947.659,6561.977,941.192,6563.522Z" transform="translate(-873.267 -6222.551)" fill="#999"/>
            <g id="Grupo_56225" data-name="Grupo 56225" opacity="0.72">
              <path id="Trazado_108665" data-name="Trazado 108665" d="M896.306,6395.069l16.556,60.384,7.756,25.172,1.224,3.074h.71l35.215-7.521,1.377-1.017L946.31,6400.4,934.6,6338.893l-11.572-167.686s-6.522-29.456-34.294-27.982-30.3,42.289-30.3,42.289L868.007,6256l15.255,96.993Z" transform="translate(-858.035 -6142.767)" fill="#999"/>
              <path id="Trazado_108666" data-name="Trazado 108666" d="M922.457,6484.005h-.71a.4.4,0,0,1-.374-.255l-1.224-3.073-7.768-25.2-16.558-60.388-13.042-42.074-15.268-97.05-9.573-70.491c.023-.491,2.866-41.273,30.675-42.748s34.644,28,34.71,28.3l11.58,167.746,11.706,61.458,12.836,74.767a.4.4,0,0,1-.158.393l-1.377,1.017a.416.416,0,0,1-.155.071L922.541,6484A.4.4,0,0,1,922.457,6484.005Zm-.436-.807h.394L957.5,6475.7l1.106-.817-12.792-74.516-11.711-61.5-11.578-167.733c-.056-.232-6.769-29.031-33.871-27.609-27.093,1.438-29.89,41.508-29.916,41.914l9.57,70.4,15.253,96.984,13.031,42.023,0,.014,16.557,60.383,7.752,25.161Z" transform="translate(-857.939 -6142.671)" fill="#4d4d4d"/>
            </g>
          </g>
          <g id="Grupo_56227" data-name="Grupo 56227" transform="translate(6.944 81.676)" opacity="0.43">
            <line id="Línea_251" data-name="Línea 251" x1="61.346" y2="9.694" transform="translate(0.403 0.402)" fill="#999"/>
            <path id="Trazado_108667" data-name="Trazado 108667" d="M866.951,6254.44a.4.4,0,0,1-.062-.8l61.345-9.694a.409.409,0,0,1,.461.335.4.4,0,0,1-.335.462l-61.346,9.694A.475.475,0,0,1,866.951,6254.44Z" transform="translate(-866.549 -6243.94)" fill="#4d4d4d"/>
          </g>
          <g id="Grupo_56228" data-name="Grupo 56228" transform="translate(28.386 7.796)">
            <path id="Trazado_108668" data-name="Trazado 108668" d="M900.375,6170.032l-1.66,6.11h-5.58l7.276-23.805h7.028l7.418,23.805h-5.792l-1.836-6.11Zm6.039-4.026-1.483-5.051c-.388-1.413-.812-3.214-1.165-4.591h-.106c-.319,1.412-.706,3.213-1.06,4.591l-1.448,5.051Z" transform="translate(-893.135 -6152.337)"/>
          </g>
          <g id="Grupo_56229" data-name="Grupo 56229" transform="translate(33.028 85.045)">
            <path id="Trazado_108669" data-name="Trazado 108669" d="M898.89,6248.647a41.919,41.919,0,0,1,6.958-.529c3.285,0,5.3.318,7.029,1.342a5.167,5.167,0,0,1,2.826,4.7c0,2.084-1.236,4.027-3.886,5.051v.071a5.927,5.927,0,0,1,4.733,5.863,6.237,6.237,0,0,1-2.472,5.05c-1.731,1.378-4.627,2.156-9.36,2.156a41.687,41.687,0,0,1-5.828-.354Zm5.333,9.078h1.766c2.861,0,4.344-1.166,4.344-2.932,0-1.8-1.378-2.755-3.815-2.755a9.994,9.994,0,0,0-2.3.177Zm0,10.561a11.417,11.417,0,0,0,2.084.105c2.436,0,4.592-.953,4.592-3.46,0-2.4-2.155-3.355-4.839-3.355h-1.836Z" transform="translate(-898.89 -6248.118)"/>
          </g>
          <g id="Grupo_56230" data-name="Grupo 56230" transform="translate(41.925 204.584)">
            <path id="Trazado_108670" data-name="Trazado 108670" d="M928.465,6419.821a15.808,15.808,0,0,1-6.075,1.023c-8.23,0-12.468-5.156-12.468-11.937,0-8.088,5.792-12.573,13-12.573a14.8,14.8,0,0,1,5.863,1.023l-1.13,4.273a11.352,11.352,0,0,0-4.521-.883c-4.238,0-7.558,2.579-7.558,7.877,0,4.732,2.825,7.734,7.593,7.734a12.829,12.829,0,0,0,4.521-.776Z" transform="translate(-909.922 -6396.334)"/>
          </g>
        </g>
      </g>
    </g>
  </g>
</svg>
