<svg xmlns="http://www.w3.org/2000/svg" width="248.669" height="604.604" viewBox="0 0 248.669 604.604">
  <g id="Grupo_56027" data-name="Grupo 56027" transform="translate(-577.787 -7615.397)">
    <rect id="Rectángulo_10049" data-name="Rectángulo 10049" width="248.669" height="604.603" rx="15.301" transform="translate(577.787 7615.397)" fill="#fff"/>
    <g id="Grupo_56026" data-name="Grupo 56026">
      <g id="Grupo_56002" data-name="Grupo 56002">
        <path id="Trazado_108029" data-name="Trazado 108029" d="M787.452,7717.052a92.044,92.044,0,0,0-10.238-6.812s-12.35-5.344-17-8.459c0,0-4.518-2.187-4.708-12.071s.569-16.729,2.086-21.386l1.895-7.224s-5.5-8.554-20.854-10.55c0,0-10.332-.95-12.7,1.521,0,0-6.256,23.477-14.787,33.932,0,0-1.8,6.938-20.759,10.835l-22.371,4.848s-10.332,2.186-11.944,10.645c0,0-6.256,6.748-2.843,31.841l.947,5.132,25.251,121.831.675,2.314v6.459s-14.118,39.16-16.239,58.442c-1.344,12.221-.549,57.413.214,88.88-.043,16.139.7,51.014.7,51.014s-2.1,15.3,18.421,22.087c0,0,18.956,13.565,49.738,2.434l40.348-10.434s12.306-7.318,11.827-22.783c-.478-15.409-.743-25.309-.745-25.382l-2.56-96.009s-1.786-19.916-4.627-34.492a63.2,63.2,0,0,0-2.125-11.227c-2.509-7.88-12.419-23.965-12.419-23.965s-1.466-4.248-.529-7.658l4.051-25.432,8.912-35.931,6.076-11.2s8.035-10.477,7.006-19.218l-2.956-10.284s-.25-8.752-.079-14.779c.041-1.294.1-2.448.193-3.332l3.665-13.18.055-.508.022-.081.692-6.5h-.016l.512-4.822S791.117,7720.093,787.452,7717.052Z" fill="#fff"/>
        <path id="Trazado_108030" data-name="Trazado 108030" d="M709.359,8107.5c-15.952,0-25.561-6.3-26.337-6.826-20.524-6.812-18.644-22.321-18.623-22.477-.01-.29-.741-35-.7-50.965-.824-33.953-1.528-76.951-.211-88.918,2.062-18.75,15.6-56.686,16.236-58.467V7873.5l-.66-2.262-25.258-121.859-.949-5.141c-3.24-23.821,2.125-31.194,2.863-32.079,1.7-8.522,12.109-10.82,12.215-10.843l22.369-4.846c18.421-3.787,20.458-10.5,20.477-10.566l.071-.14c8.382-10.272,14.653-33.557,14.716-33.791l.092-.164c2.467-2.571,12.579-1.673,13.006-1.634,15.368,2,20.907,10.366,21.136,10.72l.089.139-1.938,7.383c-1.579,4.85-2.255,11.806-2.073,21.284s4.455,11.719,4.5,11.74c4.611,3.087,16.86,8.4,16.983,8.453a92.446,92.446,0,0,1,10.328,6.868h0c3.787,3.141,2.949,8.608,2.911,8.839l-.462,4.36h0l-.031.44-.769,7.092-3.677,13.24c-.071.755-.136,1.867-.179,3.244-.162,5.718.057,14,.077,14.709l2.943,10.239c1.047,8.85-6.737,19.117-7.069,19.549l-6.021,11.113-8.9,35.884-4.045,25.4c-.9,3.3.5,7.437.513,7.478.064.087,9.928,16.14,12.422,23.974a63.054,63.054,0,0,1,2.141,11.3c2.807,14.4,4.609,34.3,4.627,34.5l2.562,96.032c.011.392.274,10.22.744,25.38.481,15.508-11.884,23.043-12.009,23.117l-.1.041-40.348,10.435A69.355,69.355,0,0,1,709.359,8107.5Zm2.124-421.314c-.278.855-2.95,7.309-21.022,11.023l-22.367,4.847c-.1.022-10.109,2.238-11.655,10.349l-.019.1-.073.079c-.061.067-6.086,6.993-2.748,31.536l.945,5.115,25.249,121.823.683,2.389-.023,6.587c-.141.392-14.126,39.339-16.218,58.357-1.312,11.925-.607,54.887.216,88.829-.043,15.96.688,50.667.7,51.015-.024.209-1.8,15.139,18.163,21.739l.1.051c.187.133,19.17,13.315,49.393,2.387l40.327-10.431c.795-.5,12.052-7.825,11.6-22.422-.47-15.163-.733-24.993-.743-25.373l-2.561-96.02c-.016-.175-1.815-20.04-4.62-34.431a62.523,62.523,0,0,0-2.115-11.183c-2.466-7.746-12.282-23.722-12.381-23.883-.1-.252-1.528-4.472-.571-7.955l4.043-25.391,8.952-36.051,6.076-11.2c.112-.153,7.962-10.508,6.963-18.995l-2.959-10.317c0-.088-.247-8.832-.078-14.8.044-1.4.11-2.525.2-3.36l3.677-13.243.077-.589.633-6h0l.031-.441.511-4.821c.012-.072.806-5.3-2.647-8.162h0a92.327,92.327,0,0,0-10.184-6.775c-.468-.2-12.4-5.374-17.022-8.473-.147-.068-4.682-2.375-4.874-12.375-.183-9.564.505-16.6,2.1-21.509l1.845-7.035c-.774-1.077-6.547-8.439-20.495-10.251-2.778-.255-10.367-.506-12.318,1.345C725.812,7653.936,719.663,7676.1,711.483,7686.182Z" fill="#999"/>
      </g>
      <path id="Trazado_108031" data-name="Trazado 108031" d="M724.464,7878.657c-.766,0-1.541-.005-2.332-.013-30.118-.314-42.763-7.113-42.887-7.181l.362-.656c.123.067,12.636,6.775,42.533,7.087,26.474.263,39.03-4.216,39.154-4.261l.259.7C761.431,7874.381,749.479,7878.657,724.464,7878.657Z" fill="#999"/>
      <path id="Trazado_108032" data-name="Trazado 108032" d="M724.953,7887.952q-1.418,0-2.831-.053c-28.192-1.078-41.575-7.589-41.707-7.655l.334-.672c.131.066,13.393,6.507,41.4,7.577,19.428.744,39.839-6.61,40.043-6.685l.257.705C762.255,7881.24,743.628,7887.952,724.953,7887.952Z" fill="#999"/>
      <path id="Trazado_108033" data-name="Trazado 108033" d="M727.173,7887.63l-2.895-2.9,2.257-3.1-2.837-3.08.552-.508,3.254,3.533-2.242,3.074,2.44,2.44Z" fill="#999"/>
      <path id="Trazado_108034" data-name="Trazado 108034" d="M731.356,7887.63l-2.895-2.9,2.257-3.1-2.837-3.08.552-.508,3.254,3.533-2.242,3.074,2.44,2.44Z" fill="#999"/>
      <path id="Trazado_108035" data-name="Trazado 108035" d="M735.6,7887.358l-2.7-2.814,2.1-3.007-2.644-2.992.563-.5,3.034,3.434-2.089,2.987,2.273,2.369Z" fill="#999"/>
      <path id="Trazado_108036" data-name="Trazado 108036" d="M739.855,7886.743l-2.708-2.659,2.1-2.822-2.612-2.786.547-.514,3.041,3.243-2.08,2.8,2.242,2.2Z" fill="#999"/>
      <path id="Trazado_108037" data-name="Trazado 108037" d="M743.664,7886.1l-2.708-2.659,2.095-2.822-2.611-2.785.547-.514,3.04,3.242-2.079,2.8,2.242,2.2Z" fill="#999"/>
      <path id="Trazado_108038" data-name="Trazado 108038" d="M704.7,7886.551l-2.613-3.08,2.544-2.749-2.518-3.229.592-.461,2.91,3.73-2.525,2.729,2.184,2.574Z" fill="#999"/>
      <path id="Trazado_108039" data-name="Trazado 108039" d="M708.857,7886.967l-2.613-3.08,2.543-2.749-2.518-3.229.592-.461,2.909,3.73-2.525,2.729,2.183,2.574Z" fill="#999"/>
      <path id="Trazado_108040" data-name="Trazado 108040" d="M713.339,7887.414l-2.613-3.08,2.544-2.749-2.518-3.229.592-.461,2.91,3.73-2.525,2.729,2.184,2.574Z" fill="#999"/>
      <path id="Trazado_108041" data-name="Trazado 108041" d="M691.686,7883.814l-2.613-3.08,2.544-2.749-2.518-3.229.592-.461,2.91,3.73-2.525,2.729,2.184,2.574Z" fill="#999"/>
      <path id="Trazado_108042" data-name="Trazado 108042" d="M687.612,7882.645l-2.613-3.08,2.543-2.749-2.518-3.229.592-.461,2.909,3.73L686,7879.586l2.184,2.574Z" fill="#999"/>
      <path id="Trazado_108043" data-name="Trazado 108043" d="M684.25,7881.5l-2.613-3.08,2.544-2.749-2.518-3.229.592-.461,2.91,3.73-2.525,2.729,2.184,2.574Z" fill="#999"/>
      <path id="Trazado_108044" data-name="Trazado 108044" d="M695.848,7884.93l-2.613-3.08,2.543-2.75-2.518-3.228.592-.461,2.909,3.729-2.525,2.73,2.183,2.574Z" fill="#999"/>
      <path id="Trazado_108045" data-name="Trazado 108045" d="M700.33,7885.377l-2.613-3.08,2.544-2.749-2.518-3.229.592-.461,2.91,3.73-2.525,2.729,2.184,2.574Z" fill="#999"/>
      <path id="Trazado_108046" data-name="Trazado 108046" d="M717.581,7887.838l-2.613-3.08,2.543-2.749-2.518-3.229.592-.461,2.909,3.73-2.525,2.729,2.183,2.574Z" fill="#999"/>
      <path id="Trazado_108047" data-name="Trazado 108047" d="M721.734,7887.571l-2.613-3.08,2.544-2.749-2.518-3.229.592-.461,2.91,3.73-2.525,2.729,2.184,2.574Z" fill="#999"/>
      <path id="Trazado_108048" data-name="Trazado 108048" d="M751.481,7884.15l-2.9-2.265,2.185-2.341-2.643-2.241.485-.572,3.243,2.751-2.162,2.315,2.254,1.761Z" fill="#999"/>
      <path id="Trazado_108049" data-name="Trazado 108049" d="M755.271,7883.223l-2.9-2.267,2.185-2.34-2.643-2.241.485-.572,3.243,2.751-2.163,2.316,2.255,1.761Z" fill="#999"/>
      <path id="Trazado_108050" data-name="Trazado 108050" d="M759.142,7882.265l-2.9-2.267,2.185-2.34-2.643-2.24.485-.572,3.243,2.75-2.163,2.316,2.255,1.761Z" fill="#999"/>
      <path id="Trazado_108051" data-name="Trazado 108051" d="M747.139,7884.709l-2.764-2.317,2.094-2.409-2.551-2.323.5-.555,3.093,2.817-2.074,2.386,2.179,1.827Z" fill="#999"/>
      <path id="Trazado_108052" data-name="Trazado 108052" d="M756.025,8096.516a.5.5,0,0,1-.5-.5c0-.575-.235-58.013-.869-110.805-.053-4.344-.1-8.661-.14-12.919-.356-34.888-.663-65.017-4.929-74.01-7.423-15.647-2.834-56.748.2-83.946.312-2.8.607-5.441.87-7.88.33-3.079.678-5.806,1.014-8.442,1.155-9.063,2.068-16.221.953-28.165-1.4-14.982-8.864-58.564-9.182-60.416-.256-.626-1.912-5.4-.013-19.685,1.987-14.944,2.655-21.955,2.662-22.024a.5.5,0,1,1,.995.093c-.007.07-.676,7.1-2.666,22.062-1.955,14.708-.06,19.163-.04,19.206a.479.479,0,0,1,.037.122c.078.451,7.779,45.28,9.2,60.548,1.125,12.055.206,19.261-.957,28.386-.335,2.631-.683,5.353-1.012,8.422-.262,2.441-.557,5.083-.87,7.884-3.024,27.085-7.593,68.016-.292,83.407,4.36,9.191,4.668,39.422,5.025,74.428.043,4.257.087,8.573.14,12.917.634,52.8.867,110.238.869,110.813a.5.5,0,0,1-.5.5Z" fill="#4d4d4d"/>
      <path id="Trazado_108053" data-name="Trazado 108053" d="M736.235,8161.494l-12.794,2.685v-58.638l12.794-3.7Z" fill="#404040"/>
      <path id="Trazado_108054" data-name="Trazado 108054" d="M736.235,8208.548V8169.6l-12.794,3.7v35.25Z" fill="#404040"/>
      <rect id="Rectángulo_10050" data-name="Rectángulo 10050" width="1" height="118.904" transform="translate(668.497 8091.286) rotate(-8.081)" fill="#404040"/>
      <rect id="Rectángulo_10051" data-name="Rectángulo 10051" width="1" height="110.753" transform="matrix(0.99, -0.139, 0.139, 0.99, 678.296, 8099.337)" fill="#404040"/>
      <rect id="Rectángulo_10052" data-name="Rectángulo 10052" width="1" height="108.085" transform="matrix(0.991, -0.135, 0.135, 0.991, 685.268, 8101.906)" fill="#404040"/>
      <rect id="Rectángulo_10053" data-name="Rectángulo 10053" width="1" height="102.503" transform="translate(697.129 8107.21) rotate(-6.769)" fill="#404040"/>
      <rect id="Rectángulo_10054" data-name="Rectángulo 10054" width="1" height="102.303" transform="matrix(0.995, -0.1, 0.1, 0.995, 708.085, 8107.201)" fill="#404040"/>
      <rect id="Rectángulo_10055" data-name="Rectángulo 10055" width="1" height="101.989" transform="translate(714.866 8107.183) rotate(-3.595)" fill="#404040"/>
      <rect id="Rectángulo_10056" data-name="Rectángulo 10056" width="1" height="106.716" transform="translate(739.387 8101.844) rotate(-0.639)" fill="#404040"/>
      <rect id="Rectángulo_10057" data-name="Rectángulo 10057" width="1" height="109.281" transform="translate(749.822 8099.27) rotate(-0.214)" fill="#404040"/>
      <rect id="Rectángulo_10058" data-name="Rectángulo 10058" width="112.935" height="1" transform="translate(758.542 8208.54) rotate(-89.217)" fill="#404040"/>
      <rect id="Rectángulo_10059" data-name="Rectángulo 10059" width="115.218" height="1" transform="translate(765.612 8208.534) rotate(-88.434)" fill="#404040"/>
      <rect id="Rectángulo_10060" data-name="Rectángulo 10060" width="116.296" height="1" transform="translate(771.867 8208.528) rotate(-87.873)" fill="#404040"/>
      <rect id="Rectángulo_10061" data-name="Rectángulo 10061" width="127.555" height="1" transform="matrix(0.045, -0.999, 0.999, 0.045, 776.59, 8208.525)" fill="#404040"/>
      <path id="Trazado_108055" data-name="Trazado 108055" d="M703.637,8168.444c-9.042,0-18.134-1.2-22.86-5.3-2.67-2.315-3.728-4.671-3.145-7,1.72-6.876,17.206-10.7,17.361-10.732,3.217-.734,33.914-7.681,33.914-7.681l.042-.007,8-1.1c1.349-.21,33.318-5.075,40.115,3.667,1.744,2.241,2.408,4.334,1.974,6.22-.761,3.309-4.6,5.2-7.405,6.583a13.782,13.782,0,0,0-2.293,1.277c-2.282,1.932-36.324,10.676-40.2,11.667A156.429,156.429,0,0,1,703.637,8168.444Zm25.47-29.736c-.9.2-30.723,6.953-33.891,7.676s-15.245,4.529-16.614,10c-.484,1.936.468,3.957,2.83,6.005,10.82,9.382,47.128,2.735,47.494,2.669,15.093-3.862,38.174-10.106,39.769-11.456a13.752,13.752,0,0,1,2.5-1.411c2.624-1.293,6.218-3.063,6.872-5.909.363-1.579-.238-3.389-1.788-5.383-6.44-8.278-38.854-3.34-39.181-3.291Z" fill="#404040"/>
      <path id="Trazado_108056" data-name="Trazado 108056" d="M705.152,8205.759c-9.042,0-18.134-1.2-22.86-5.3-2.67-2.315-3.728-4.672-3.145-7,1.721-6.875,17.206-10.7,17.361-10.731,3.218-.735,33.914-7.681,33.914-7.681l.042-.008,8-1.1c1.349-.209,33.318-5.075,40.115,3.667,1.744,2.241,2.408,4.334,1.974,6.219-.761,3.31-4.6,5.2-7.4,6.583a13.745,13.745,0,0,0-2.293,1.278c-2.282,1.931-36.324,10.675-40.2,11.667A156.4,156.4,0,0,1,705.152,8205.759Zm25.47-29.737c-.9.2-30.723,6.954-33.891,7.676s-15.245,4.529-16.613,10c-.485,1.937.467,3.957,2.829,6,10.82,9.383,47.128,2.736,47.494,2.669,15.093-3.861,38.174-10.105,39.769-11.455a13.764,13.764,0,0,1,2.5-1.411c2.624-1.293,6.218-3.064,6.873-5.909.362-1.579-.239-3.39-1.789-5.383-6.44-8.278-38.854-3.341-39.181-3.291Z" fill="#404040"/>
      <g id="Grupo_56003" data-name="Grupo 56003">
        <path id="Trazado_108057" data-name="Trazado 108057" d="M786.357,7787.657l-30.381-5.22s-32.3-6.556-42.9-3.471-33.551,9.255-33.551,9.255l-3.085-10.081s29.5-13.057,54.279-8.815,54.28,8.1,54.28,8.1l2.326.257A12.816,12.816,0,0,1,786.357,7787.657Z" fill="#fff"/>
        <path id="Trazado_108058" data-name="Trazado 108058" d="M679.269,7788.678l-3.288-10.745.3-.135c.3-.132,29.885-13.064,54.5-8.842,24.487,4.192,53.969,8.058,54.264,8.1l2.55.281.08.219a13.07,13.07,0,0,1-.991,10.291l-.13.228-30.64-5.265c-.334-.068-32.342-6.507-42.735-3.48-10.488,3.051-33.329,9.2-33.559,9.258Zm-2.375-10.326,2.88,9.414c2.931-.79,23.427-6.319,33.2-9.161,10.573-3.073,41.759,3.2,43.082,3.464l30.108,5.173a12.568,12.568,0,0,0,.88-9.216l-2.084-.229c-.3-.04-29.8-3.907-54.3-8.1C707.61,7765.75,680.09,7777,676.894,7778.352Z" fill="#999"/>
      </g>
      <g id="Grupo_56004" data-name="Grupo 56004">
        <path id="Trazado_108059" data-name="Trazado 108059" d="M786.583,7784.983l4.536-3.179,2.1.645s.89.3.889-.555l-1.733-3.5s-.843-1.5-1.529-.145l-.68,2.469-4.127,3.188-.668,1.145Z" fill="#666"/>
      </g>
      <g id="Grupo_56005" data-name="Grupo 56005">
        <path id="Trazado_108060" data-name="Trazado 108060" d="M751.908,7784.983l4.536-3.179,2.1.645s.89.3.889-.555l-1.733-3.5s-.843-1.5-1.528-.145l-.681,2.469-4.127,3.188-.668,1.145Z" fill="#666"/>
      </g>
      <path id="Trazado_108061" data-name="Trazado 108061" d="M754.961,7668.847c-16.077,0-30.991-9.493-31.147-9.593l.407-.631c.161.1,16.335,10.375,33.005,9.408l.043.748C756.5,7668.825,755.727,7668.847,754.961,7668.847Z" fill="#999"/>
      <g id="Grupo_56009" data-name="Grupo 56009">
        <g id="Grupo_56006" data-name="Grupo 56006">
          <path id="Trazado_108062" data-name="Trazado 108062" d="M750.217,7636.565c0-5.344-3.351-9.678-7.485-9.678s-7.485,4.334-7.485,9.678c0,4.18,2.053,7.731,4.923,9.084v9.254h5.656v-9.532C748.414,7643.847,750.217,7640.482,750.217,7636.565Z" fill="#fff"/>
          <path id="Trazado_108063" data-name="Trazado 108063" d="M746.326,7655.4H739.67v-9.445c-2.957-1.564-4.923-5.289-4.923-9.393,0-5.612,3.582-10.177,7.985-10.177s7.985,4.565,7.985,10.177c0,3.836-1.715,7.365-4.391,9.085Zm-5.656-1h4.656v-9.318l.247-.145c2.517-1.482,4.144-4.769,4.144-8.375,0-5.06-3.134-9.177-6.985-9.177s-6.985,4.117-6.985,9.177c0,3.856,1.863,7.325,4.637,8.632l.286.135Z" fill="#999"/>
        </g>
        <g id="Grupo_56007" data-name="Grupo 56007">
          <rect id="Rectángulo_10062" data-name="Rectángulo 10062" width="17.554" height="2.829" rx="1.209" transform="translate(734.255 7638.57)" fill="#fff"/>
          <path id="Trazado_108064" data-name="Trazado 108064" d="M750.6,7641.9H735.464a1.711,1.711,0,0,1-1.709-1.709v-.412a1.711,1.711,0,0,1,1.709-1.709H750.6a1.711,1.711,0,0,1,1.708,1.709v.412A1.71,1.71,0,0,1,750.6,7641.9Zm-15.137-2.83a.711.711,0,0,0-.709.709v.412a.71.71,0,0,0,.709.709H750.6a.709.709,0,0,0,.708-.709v-.412a.71.71,0,0,0-.708-.709Z" fill="#999"/>
        </g>
        <g id="Grupo_56008" data-name="Grupo 56008">
          <rect id="Rectángulo_10063" data-name="Rectángulo 10063" width="17.554" height="2.829" rx="1.209" transform="translate(734.255 7633.168)" fill="#fff"/>
          <path id="Trazado_108065" data-name="Trazado 108065" d="M750.6,7636.5H735.464a1.711,1.711,0,0,1-1.709-1.708v-.412a1.711,1.711,0,0,1,1.709-1.709H750.6a1.711,1.711,0,0,1,1.708,1.709v.412A1.71,1.71,0,0,1,750.6,7636.5Zm-15.137-2.829a.71.71,0,0,0-.709.709v.412a.709.709,0,0,0,.709.708H750.6a.708.708,0,0,0,.708-.708v-.412a.709.709,0,0,0-.708-.709Z" fill="#999"/>
        </g>
      </g>
      <g id="Grupo_56010" data-name="Grupo 56010">
        <ellipse id="Elipse_4336" data-name="Elipse 4336" cx="11.609" cy="25.109" rx="11.609" ry="25.109" transform="translate(651.599 7710.678)" fill="#fff"/>
        <path id="Trazado_108066" data-name="Trazado 108066" d="M663.208,7761.4c-6.677,0-12.109-11.488-12.109-25.608s5.432-25.609,12.109-25.609,12.109,11.488,12.109,25.609S669.885,7761.4,663.208,7761.4Zm0-50.217c-6.126,0-11.109,11.04-11.109,24.609s4.983,24.608,11.109,24.608,11.109-11.039,11.109-24.608S669.333,7711.178,663.208,7711.178Z" fill="gray"/>
      </g>
      <ellipse id="Elipse_4337" data-name="Elipse 4337" cx="2.445" cy="3.217" rx="2.445" ry="3.217" transform="translate(659.678 7732.569)" fill="#454545"/>
      <path id="Trazado_108067" data-name="Trazado 108067" d="M663.7,7710.765l-.985-.173c.058-.333,1.561-8.178,13.982-10.708l.2.98C665.183,7703.25,663.755,7710.459,663.7,7710.765Z" fill="gray"/>
      <path id="Trazado_108068" data-name="Trazado 108068" d="M728.723,8104.513h0a.5.5,0,0,1-.5-.5c.007-1.5.734-150.139,1.167-158.661.431-8.466-2.419-30.989-2.448-31.215l-3.461-21.637-1.824-35.793c0-.455-.343-43.561.13-54.909.132-3.178.409-6.628.678-9.965.7-8.75,1.432-17.8-.307-23.2-2.406-7.475-16.872-37.6-17.018-37.9l-4.368-12.046c-.044-.124-4.292-12.087-9.538-16.122l-5.426-4.174a.5.5,0,0,1,.609-.793l5.427,4.175c5.481,4.215,9.694,16.075,9.87,16.578l4.346,12c.578,1.194,14.623,30.443,17.05,37.982,1.8,5.59,1.063,14.738.352,23.586-.268,3.327-.545,6.769-.676,9.926-.472,11.324-.133,54.405-.13,54.839l1.818,35.718,3.458,21.6c.031.243,2.892,22.855,2.457,31.408-.432,8.5-1.159,157.116-1.166,158.616A.5.5,0,0,1,728.723,8104.513Z" fill="#4d4d4d"/>
      <path id="Trazado_108069" data-name="Trazado 108069" d="M697.322,7971.963c-33.115,0-45.838-3-46.018-3.041a.5.5,0,0,1-.366-.6.507.507,0,0,1,.605-.366c.259.064,26.79,6.29,103.481.653a.5.5,0,0,1,.535.462.5.5,0,0,1-.461.536C731.24,7971.356,712.217,7971.963,697.322,7971.963Z" fill="#4d4d4d"/>
      <g id="Grupo_56011" data-name="Grupo 56011" opacity="0.74">
        <path id="Trazado_108070" data-name="Trazado 108070" d="M707.768,7689.393l3.239-3.816,3.13-.457-.789,3.333-2.478,4.435,5.087-5.608,2.348-1.435,4.3,4.3v2.739l-3,6.392,5.091-6.522,1.565-1.7,2.87,1.7-.789,10.174,3.593-7.435,3.978.652,1.826,7.892.522-8.739H742.7l1.244,9.058.191,1.833-9.913.319-12.951-5.369-11.179-8.124Z" fill="#ccc"/>
        <path id="Trazado_108071" data-name="Trazado 108071" d="M734.219,7707.012a.5.5,0,0,1-.191-.038l-12.952-5.371a.452.452,0,0,1-.1-.057l-11.18-8.123a.494.494,0,0,1-.127-.135l-2.32-3.625a.5.5,0,0,1,.04-.593l3.239-3.816a.505.505,0,0,1,.309-.172l3.131-.456a.5.5,0,0,1,.558.61l-.788,3.332a.473.473,0,0,1-.05.129l-.339.607,2.14-2.361a.606.606,0,0,1,.11-.091l2.348-1.434a.5.5,0,0,1,.615.073l4.3,4.3a.5.5,0,0,1,.146.353v2.74a.5.5,0,0,1-.047.212l-1.108,2.357,2.348-3.008,1.592-1.726a.5.5,0,0,1,.622-.092l2.869,1.7a.5.5,0,0,1,.244.47l-.584,7.53,2.44-5.048a.49.49,0,0,1,.532-.275l3.978.652a.5.5,0,0,1,.406.381l1.046,4.521.316-5.287a.5.5,0,0,1,.5-.469H742.7a.5.5,0,0,1,.495.431l1.244,9.058.193,1.85a.5.5,0,0,1-.481.551l-9.913.32Zm-12.705-6.31,12.8,5.307,9.268-.3-.135-1.3-1.183-8.609h-3.527l-.494,8.268a.5.5,0,0,1-.457.468.507.507,0,0,1-.53-.386l-1.75-7.563-3.279-.538-3.431,7.1a.5.5,0,0,1-.948-.256l.764-9.863-2.253-1.332-1.292,1.4-5.064,6.49-.008.01Zm-10.28-7.47,7.947,5.776,2.929-6.231v-2.421l-3.879-3.88-1.951,1.193-5.038,5.556Zm-2.845-3.8,2.049,3.2,2.441-4.368.6-2.548-2.215.323Z" fill="#4d4d4d"/>
      </g>
      <g id="Grupo_56012" data-name="Grupo 56012">
        <path id="Trazado_108072" data-name="Trazado 108072" d="M675.626,7970.1l-1.546-5.319,1.286-1.777s.568-.746-.238-1.02l-3.874.511s-1.691.315-.631,1.4l2.118,1.441,1.687,4.934.869,1Z" fill="#666"/>
      </g>
      <g id="Grupo_56013" data-name="Grupo 56013">
        <path id="Trazado_108073" data-name="Trazado 108073" d="M710.7,7970.1l-1.547-5.319,1.286-1.777s.569-.746-.238-1.02l-3.873.511s-1.692.315-.631,1.4l2.118,1.441,1.687,4.934.869,1Z" fill="#666"/>
      </g>
      <g id="Grupo_56014" data-name="Grupo 56014">
        <path id="Trazado_108074" data-name="Trazado 108074" d="M756.507,7967.384l4.892-2.6.378-2.161s.138-.928.9-.541l2.333,3.134s.953,1.432-.565,1.429l-2.509-.515-4.714,2.229-1.324.075Z" fill="#666"/>
      </g>
      <path id="Trazado_108075" data-name="Trazado 108075" d="M786.968,7777.805l-6.043-17.176c-1.95-6.222-3.579-15.768-5.154-25-2.075-12.166-4.222-24.746-7.014-28.909l.623-.418c2.882,4.3,4.946,16.393,7.131,29.2,1.57,9.207,3.194,18.727,5.125,24.889l6.039,17.164Z" fill="#999"/>
      <g id="Grupo_56015" data-name="Grupo 56015">
        <path id="Trazado_108076" data-name="Trazado 108076" d="M707.386,7689.081l-3.453-4.331.513-2.133s.242-.906-.608-.853l-3.388,1.947s-1.445.934-.051,1.534l2.507.527,3.437,3.922,1.185.6Z" fill="#666"/>
      </g>
      <g id="Grupo_56016" data-name="Grupo 56016">
        <path id="Trazado_108077" data-name="Trazado 108077" d="M743.174,7706.136l3.453-4.331-.513-2.133s-.242-.906.608-.853l3.388,1.947s1.445.934.051,1.534l-2.507.527-3.437,3.922-1.184.6Z" fill="#666"/>
      </g>
      <g id="Grupo_56017" data-name="Grupo 56017">
        <path id="Trazado_108078" data-name="Trazado 108078" d="M685.685,7697.608l-3.453-4.331.513-2.132s.242-.906-.608-.853l-3.388,1.946s-1.444.934-.051,1.535l2.507.527,3.437,3.921,1.185.6Z" fill="#666"/>
      </g>
      <g id="Grupo_56018" data-name="Grupo 56018">
        <path id="Trazado_108079" data-name="Trazado 108079" d="M686.254,7697.267l3.453-4.33-.514-2.133s-.242-.906.609-.853l3.388,1.946s1.444.934.051,1.535l-2.507.527-3.437,3.921-1.185.6Z" fill="#666"/>
      </g>
      <g id="Grupo_56019" data-name="Grupo 56019" opacity="0.74">
        <path id="Trazado_108080" data-name="Trazado 108080" d="M743.421,7705.99l7.494,47.811,4.587,168.468-1.674,177.8,3,64.109v13.274s3.264,4.348-.8,4.7-22.85.7-30.5,2.087a178.346,178.346,0,0,1-18.956,1.913s-14.377,1.585-18.9,5.064a85.176,85.176,0,0,1-12.123,7.134l-16.079.748s-4.306-65.844-5-84.453-2.255-109.043-2.255-109.043-1.788-84.826-2.31-108.652-5.853-62.636-6.391-82.3c-.261-9.521,1.611-21.548-2.348-28.434-5.38-9.357,4.608-36.261,3.913-52.087l.522-10.783-.59-2.8a4.976,4.976,0,0,0-2.486-3.339,8.866,8.866,0,0,0-1.794-.817,6.021,6.021,0,0,0-5.636,1.941S648,7707.3,664.568,7702.865s29.763-5.618,33.676-8.1l9.644-4.82s-.147,2.548,10.157,9.2,15.522,7.435,15.522,7.435l5.158.58Z" fill="#ccc"/>
        <path id="Trazado_108081" data-name="Trazado 108081" d="M659.465,8199.595a.5.5,0,0,1-.5-.468c-.043-.658-4.315-66.064-5-84.466s-2.24-108.149-2.256-109.054c0,0-1.788-84.823-2.31-108.649-.278-12.69-1.906-29.472-3.48-45.7-1.368-14.095-2.659-27.407-2.911-36.6-.07-2.548.014-5.328.094-8.017.226-7.5.459-15.25-2.376-20.182-3.233-5.624-1.151-16.973,1.053-28.988,1.514-8.259,3.081-16.8,2.794-23.326l.519-10.765-.576-2.737a4.47,4.47,0,0,0-2.237-3,7.581,7.581,0,0,0-1.651-.766,5.246,5.246,0,0,0-3.554.513c-1.052.8-1.634,1.3-1.661,1.319a.5.5,0,0,1-.714-.694,6.521,6.521,0,0,1,1.83-1.466c4.108-3.13,14.952-10.693,27.909-14.162,7.525-2.014,14.4-3.368,19.932-4.457,6.7-1.32,11.547-2.274,13.607-3.578l9.687-4.846a.5.5,0,0,1,.723.475h0s.314,2.545,9.929,8.753c10.059,6.5,15.274,7.353,15.326,7.361l5.049.567,4.609-1.152a.51.51,0,0,1,.4.068.5.5,0,0,1,.218.34l7.494,47.812L756,7922.255l-1.673,177.82,3,64.08v13.136c.409.581,1.709,2.6,1.061,4.054a2.531,2.531,0,0,1-2.321,1.3c-1.188.1-3.587.2-6.624.329-7.338.306-18.427.769-23.831,1.752a179.721,179.721,0,0,1-19.023,1.92c-.111.014-14.258,1.608-18.617,4.961a86.444,86.444,0,0,1-12.211,7.189.5.5,0,0,1-.194.049l-16.079.747Zm-19.929-483.833a6.536,6.536,0,0,1,1.287.13,7.55,7.55,0,0,1,1.935.868,5.475,5.475,0,0,1,2.737,3.675l.589,2.8a.486.486,0,0,1,.01.127l-.522,10.783c.292,6.593-1.285,15.19-2.81,23.5-2.075,11.309-4.22,23-1.169,28.31,2.977,5.177,2.739,13.073,2.509,20.71-.084,2.8-.164,5.44-.094,7.96.25,9.16,1.54,22.456,2.906,36.532,1.576,16.247,3.206,33.047,3.485,45.775.522,23.827,2.31,108.652,2.31,108.652.016.906,1.567,90.645,2.255,109.036.656,17.543,4.573,77.869,4.969,83.948l15.486-.721a84.1,84.1,0,0,0,11.945-7.036c4.579-3.523,18.555-5.1,19.148-5.164a179.367,179.367,0,0,0,18.922-1.908c5.472-1,16.6-1.46,23.968-1.768,3.025-.125,5.414-.225,6.581-.325.809-.069,1.311-.309,1.493-.714.408-.911-.647-2.647-1.048-3.184a.5.5,0,0,1-.1-.3v-13.274l-3-64.085L755,7922.264l-4.588-168.449-7.4-47.208-4.166,1.042a.461.461,0,0,1-.177.012l-5.158-.58c-.236-.035-5.46-.877-15.737-7.512-7.628-4.924-9.675-7.662-10.207-8.9l-9.1,4.549c-2.175,1.38-7.1,2.348-13.905,3.689-5.513,1.085-12.374,2.437-19.866,4.443-10.967,2.935-20.405,8.847-25.426,12.419C639.358,7715.764,639.447,7715.762,639.536,7715.762Zm117.792,461.691h0Z" fill="#4d4d4d"/>
      </g>
      <g id="Grupo_56020" data-name="Grupo 56020" opacity="0.74">
        <path id="Trazado_108082" data-name="Trazado 108082" d="M640.029,7785.077s-5.739-1.565-8.782-5.391-12.087-13.478-12.087-13.478-5.218-4.348-8.522-4.261c0,0,13.3-19.739,14.087-24.087s10.364-19.537,10.364-19.537,3.832-3.871,7.43-1.124,3.076,6.139,3.076,6.139l-.488,12.449-.973,10.932-2.388,13.714-1.787,11.448-.3,8.683Z" fill="#999"/>
        <path id="Trazado_108083" data-name="Trazado 108083" d="M640.029,7785.577a.541.541,0,0,1-.131-.017c-.241-.066-5.933-1.654-9.043-5.563-3-3.766-11.97-13.351-12.06-13.447-.006,0-5.073-4.188-8.144-4.1a.516.516,0,0,1-.451-.26.5.5,0,0,1,.024-.519c.132-.2,13.253-19.7,14.009-23.9.791-4.393,10.039-19.091,10.432-19.714a.429.429,0,0,1,.068-.085c.042-.042,4.187-4.148,8.089-1.17,3.79,2.894,3.29,6.462,3.267,6.612l-.483,12.393-.974,10.957-2.394,13.754-1.785,11.441-.295,8.623.37,4.454a.5.5,0,0,1-.5.541Zm-28.5-24.064c3.386.537,7.748,4.144,7.949,4.311.135.139,9.137,9.753,12.158,13.55,2.292,2.882,6.243,4.458,7.832,5l-.31-3.77.3-8.741,1.792-11.509,2.391-13.721.967-10.891.486-12.425c.024-.181.42-3.2-2.88-5.721-3.06-2.337-6.328.649-6.735,1.042-.6.951-9.528,15.226-10.263,19.31C624.5,7741.925,613.96,7757.876,611.531,7761.513Z" fill="#4d4d4d"/>
      </g>
      <path id="Trazado_108084" data-name="Trazado 108084" d="M643.7,7798.964a.5.5,0,0,1-.3-.9c.445-.325,45.208-32.37,106.705-23.89a.5.5,0,0,1,.427.563.5.5,0,0,1-.563.427c-61.08-8.413-105.538,23.386-105.98,23.708A.5.5,0,0,1,643.7,7798.964Z" fill="#4d4d4d"/>
      <g id="Grupo_56021" data-name="Grupo 56021">
        <line id="Línea_230" data-name="Línea 230" x2="20.315" y2="78.644" transform="translate(703.66 7692.568)" fill="#ccc"/>
        <path id="Trazado_108085" data-name="Trazado 108085" d="M723.976,7771.709a.5.5,0,0,1-.49-.37l-.3-1.19a.505.505,0,0,1-.02-.12.514.514,0,0,1,.38-.49.5.5,0,0,1,.6.36l.31,1.19a.5.5,0,0,1-.36.61A.494.494,0,0,1,723.976,7771.709Zm-2.31-8.93a.484.484,0,0,1-.48-.37l-2-7.75a.51.51,0,0,1-.02-.13.5.5,0,0,1,.98-.12l2,7.74a.584.584,0,0,1,.02.13.483.483,0,0,1-.37.48A.658.658,0,0,1,721.666,7762.779Zm-4-15.49a.493.493,0,0,1-.48-.38l-2-7.74a.3.3,0,0,1-.02-.13.483.483,0,0,1,.371-.479.5.5,0,0,1,.609.359l2,7.74a.5.5,0,0,1,.02.13.491.491,0,0,1-.37.48A.7.7,0,0,1,717.666,7747.289Zm-4-15.49a.512.512,0,0,1-.49-.38l-2-7.74a.619.619,0,0,1-.01-.13.5.5,0,0,1,.371-.48.493.493,0,0,1,.609.36l2,7.74a.584.584,0,0,1,.02.13.525.525,0,0,1-.5.5Zm-4.01-15.489a.512.512,0,0,1-.48-.381l-2-7.74a.663.663,0,0,1-.02-.129.493.493,0,0,1,.381-.481.5.5,0,0,1,.609.35l2,7.75a.5.5,0,0,1,.02.131.511.511,0,0,1-.379.479A.523.523,0,0,1,709.656,7716.31Zm-4-15.5a.5.5,0,0,1-.48-.371l-2-7.75a.5.5,0,0,1,.05-.379.554.554,0,0,1,.311-.231.519.519,0,0,1,.609.36l2,7.75a.491.491,0,0,1,.01.121.5.5,0,0,1-.369.489A.561.561,0,0,1,705.656,7700.81Z" fill="#4d4d4d"/>
      </g>
      <g id="Grupo_56022" data-name="Grupo 56022">
        <path id="Trazado_108086" data-name="Trazado 108086" d="M720.821,7773.422l4.536-3.179,2.1.644s.89.3.889-.554l-1.733-3.5s-.843-1.5-1.529-.146l-.68,2.47-4.127,3.188-.668,1.145Z" fill="#666"/>
      </g>
      <path id="Trazado_108087" data-name="Trazado 108087" d="M682.817,8100.351c-.068-1.317-6.782-132.039-5.914-164.2a156.94,156.94,0,0,1,12.7-57.181v-5.156l-26.346-121.98.733-.158L690.34,7873.73l.009,5.4-.038.077a155.834,155.834,0,0,0-12.658,56.955c-.868,32.137,5.845,162.828,5.913,164.144Z" fill="#999"/>
      <g id="Grupo_56023" data-name="Grupo 56023">
        <rect id="Rectángulo_10064" data-name="Rectángulo 10064" width="0.75" height="1" transform="matrix(0.977, -0.214, 0.214, 0.977, 661.967, 7752.612)" fill="#999"/>
        <path id="Trazado_108088" data-name="Trazado 108088" d="M681.317,8097.272l-.106-2,.749-.039.106,2Zm-.211-4.007-.1-2,.749-.039.1,2Zm-.208-4-.1-2,.749-.038.1,2Zm-.2-4-.1-2,.749-.037.1,2Zm-.2-4-.1-2,.749-.037.1,2Zm-.2-4-.1-2,.749-.037.1,2Zm-.2-4-.1-2,.749-.037.1,2Zm-.193-4-.1-2,.749-.035.095,2Zm-.19-4-.094-2,.749-.035.094,2Zm-.187-4-.092-2,.749-.035.092,2Zm-.184-4-.091-2,.749-.033.091,2Zm-.181-4-.09-2,.749-.033.09,2Zm-.178-4-.089-2,.749-.033.089,2Zm-.176-4-.086-2,.749-.032.086,2Zm-.172-4-.085-2,.749-.031.085,2Zm-.169-4-.083-2,.749-.031.083,2Zm-.166-4-.081-2,.749-.031.081,2Zm-.162-4-.08-2,.749-.029.08,2Zm-.159-4-.078-2,.749-.029.078,2Zm-.155-4-.077-2,.749-.029.077,2Zm-.151-4-.075-2,.749-.028.075,2Zm-.148-4-.072-2,.75-.028.072,2Zm-.143-4.008-.07-2,.75-.025.07,2.005Zm-.138-4.008-.067-2,.75-.025.067,2Zm-.134-4-.064-2,.75-.023.064,2Zm-.127-3.993-.062-1.993.75-.024.062,1.994Zm-.123-3.992-.059-2,.75-.022.059,2Zm-.117-4-.056-2,.75-.021.056,2Zm-.11-4-.053-2,.75-.019.053,2Zm-.1-4-.049-2,.75-.017.049,2Zm-.095-4-.045-2,.75-.015.045,2Zm-.088-4-.041-2,.75-.015.041,2Zm-.079-4-.035-2,.75-.012.035,2Zm-.068-4-.03-2,.75-.009.03,2Zm-.058-4-.024-2,.75-.008.024,2Zm-.044-4-.016-2,.75-.006.016,2Zm-.029-4.006-.009-2,.75,0,.009,2Zm.737-4.006h-.75v-2l.75,0Zm.008-4-.75,0,.013-2,.75.006Zm.034-4-.75-.008.027-2,.75.012Zm.063-4-.75-.016q.021-1.022.047-2l.75.02Q676.937,7936.2,676.915,7937.215Zm.105-4-.75-.024q.031-1.025.072-2l.749.03Q677.052,7932.194,677.02,7933.219Zm.159-3.99-.749-.037q.05-1.036.108-2l.75.045Q677.228,7928.2,677.179,7929.229Zm.251-3.981-.747-.063c.055-.662.119-1.33.19-2l.746.078Q677.512,7924.264,677.43,7925.248Zm.42-3.966-.745-.094c.084-.66.174-1.325.27-1.991l.743.108Q677.974,7920.3,677.85,7921.282Zm.569-3.952-.74-.119q.16-.989.336-1.98l.738.131Q678.579,7916.346,678.419,7917.33Zm.7-3.936-.737-.14q.189-.985.39-1.97l.735.151Q679.3,7912.413,679.116,7913.394Zm.8-3.912-.732-.16q.213-.979.436-1.953l.731.168Q680.128,7908.5,679.915,7909.482Zm.891-3.891-.729-.176q.235-.981.478-1.948l.727.181C681.122,7904.291,680.962,7904.938,680.806,7905.591Zm.97-3.879-.725-.19q.255-.979.514-1.938l.724.195Q682.031,7900.735,681.776,7901.712Zm1.043-3.86-.723-.2q.274-.979.548-1.928l.721.207Q683.092,7896.875,682.819,7897.852Zm1.108-3.843-.719-.213q.291-.982.578-1.922l.717.219Q684.218,7893.029,683.927,7894.009Zm1.169-3.826-.716-.225q.31-.987.608-1.912l.714.23Q685.405,7889.2,685.1,7890.183Zm1.227-3.809-.712-.234c.221-.669.434-1.305.637-1.9l.71.24Q686.655,7885.372,686.323,7886.374Zm1.286-3.791-.708-.246c.249-.716.474-1.35.67-1.9l.706.254C688.082,7881.239,687.857,7881.871,687.609,7882.583Zm1.356-3.769-.7-.261.119-.317V7876.7h.75l-.025,1.734Zm.166-4.11h-.75v-1.348l-.131-.557.733-.16.139.637Zm-1.308-3.86-.427-1.954.732-.161.428,1.955Zm-.855-3.909-.427-1.954.732-.16.428,1.954Zm-.854-3.908-.428-1.954.733-.16.427,1.954Zm-.855-3.908-.428-1.955.733-.16.427,1.955Zm-.855-3.909-.428-1.954.733-.16.428,1.954Zm-.855-3.908-.427-1.954.732-.161.428,1.955Zm-.854-3.909-.428-1.954.732-.16.428,1.954Zm-.855-3.909-.427-1.954.732-.16.427,1.954Zm-.855-3.908-.427-1.954.732-.16.428,1.954Zm-.855-3.908-.427-1.954.732-.16.428,1.954Zm-.854-3.908-.428-1.955.732-.161.428,1.956Zm-.855-3.909-.427-1.955.732-.16.427,1.954Zm-.855-3.909-.427-1.954.732-.16.427,1.954Zm-.855-3.908-.427-1.954.733-.16.427,1.954Zm-.855-3.909-.427-1.954.733-.16.427,1.954Zm-.854-3.908-.427-1.954.732-.161.427,1.955Zm-.855-3.908-.427-1.955.732-.16.427,1.954Zm-.855-3.909-.427-1.955.732-.16.428,1.955Zm-.855-3.909-.427-1.954.733-.16.427,1.954Zm-.854-3.908-.428-1.954.733-.16.427,1.954Zm-.855-3.908-.427-1.954.732-.161.427,1.955Zm-.855-3.909-.427-1.955.732-.16.428,1.954Zm-.855-3.909-.427-1.954.733-.16.427,1.954Zm-.855-3.908-.427-1.954.733-.16.427,1.954Zm-.854-3.908-.427-1.955.732-.16.427,1.955Zm-.855-3.909-.427-1.954.732-.16.427,1.954Zm-.854-3.908-.428-1.955.733-.16.427,1.954Zm-.855-3.909-.428-1.954.733-.16.427,1.954Zm-.855-3.909-.427-1.954.732-.16.427,1.954Zm-.855-3.908-.427-1.954.732-.16.428,1.954Z" fill="#999"/>
        <rect id="Rectángulo_10065" data-name="Rectángulo 10065" width="0.75" height="0.995" transform="matrix(0.999, -0.054, 0.054, 0.999, 681.415, 8099.097)" fill="#999"/>
      </g>
      <g id="Grupo_56024" data-name="Grupo 56024">
        <rect id="Rectángulo_10066" data-name="Rectángulo 10066" width="0.75" height="1" transform="matrix(0.977, -0.214, 0.214, 0.977, 664.202, 7751.259)" fill="#999"/>
        <path id="Trazado_108089" data-name="Trazado 108089" d="M684.206,8097.659l-.109-1.994.749-.041.109,1.994Zm-.22-3.989-.113-1.992.749-.043.113,1.992Zm-.224-3.985-.113-1.993.749-.041.113,1.992Zm-.224-3.985-.112-1.991.749-.041.112,1.989Zm-.224-3.98-.11-1.992.749-.041.11,1.992Zm-.221-3.983-.11-1.991.749-.041.11,1.991Zm-.219-3.982-.109-1.99.749-.041.109,1.99Zm-.217-3.98-.107-1.991.749-.041.107,1.991Zm-.214-3.982-.107-1.991.749-.039.107,1.989Zm-.212-3.981-.105-1.991.749-.039.1,1.991Zm-.21-3.982-.1-1.99.749-.039.1,1.99Zm-.206-3.979-.1-1.991.749-.039.1,1.99Zm-.2-3.982-.1-1.991.749-.037.1,1.991Zm-.2-3.981-.1-1.991.749-.037.1,1.991Zm-.2-3.982-.1-1.99.749-.037.1,1.99Zm-.194-3.98-.095-1.992.749-.036.1,1.991Zm-.19-3.983-.094-1.991.749-.035.094,1.991Zm-.186-3.98-.093-1.991.749-.036.093,1.992Zm-.183-3.982-.09-1.992.749-.033.09,1.99Zm-.18-3.983-.088-1.991.749-.033.088,1.991Zm-.175-3.983-.086-1.991.749-.031.086,1.99Zm-.17-3.982-.083-1.991.749-.031.083,1.991Zm-.166-3.988-.081-2,.749-.031.081,2Zm-.16-3.99-.079-1.994.749-.029.079,1.991Zm-.155-3.982-.073-1.917.746-.1.076,1.987Zm-.149-3.975-.073-1.985.75-.027.072,1.984Zm-.143-3.976-.07-1.993.75-.026.069,1.992Zm-.138-3.983-.065-1.994.75-.023.065,1.991Zm-.129-3.985-.062-1.992.75-.023.062,1.992Zm-.121-3.984-.058-1.993.75-.022.058,1.991Zm-.113-3.985-.054-1.994.75-.019.054,1.991Zm-.1-3.986-.049-1.993.75-.018.049,1.992Zm-.094-3.985-.043-1.994.75-.016.043,1.992Zm-.082-3.988-.037-1.993.75-.013.037,1.993Zm-.07-3.986-.029-1.994.75-.01.029,1.992Zm-.055-3.987-.021-1.993.75-.008.021,1.993Zm-.038-3.988-.012-2,.75,0,.012,1.992Zm-.018-3.988,0-1.3v-.7l.75,0v.7l0,1.294Zm.754-3.983-.75,0,.013-1.993.75.006Zm.033-3.982-.75-.007q.012-1.014.029-2l.75.013Q679,7941.3,678.987,7942.312Zm.068-3.98-.75-.016q.023-1.014.05-1.993l.75.022Q679.077,7937.319,679.055,7938.332Zm.113-3.976-.75-.027q.037-1.023.08-1.993l.749.033Q679.2,7933.337,679.168,7934.356Zm.177-3.972-.749-.041q.055-1.033.122-1.993l.748.05Q679.4,7929.356,679.345,7930.384Zm.273-3.962-.747-.065q.084-1,.182-1.892l.756-.02-.011.107C679.734,7925.137,679.674,7925.763,679.618,7926.422Zm.415-3.949-.745-.088q.117-1,.24-1.981l.744.094Q680.15,7921.47,680.033,7922.473Zm.495-3.947-.743-.1q.134-1,.274-1.977l.742.108Q680.661,7917.524,680.528,7918.526Zm.565-3.935-.742-.114c.1-.667.207-1.325.312-1.969l.741.121Q681.245,7913.592,681.093,7914.591Zm.642-3.922-.739-.129q.176-1,.355-1.963l.737.137Q681.909,7909.671,681.735,7910.669Zm.728-3.906-.735-.147q.2-1,.4-1.954l.733.156Q682.662,7905.768,682.463,7906.763Zm.827-3.884-.731-.166q.227-1,.457-1.944l.728.178Q683.516,7901.886,683.29,7902.879Zm.938-3.857-.725-.187q.258-1,.52-1.93l.723.2Q684.487,7898.034,684.228,7899.022Zm1.07-3.82-.718-.217q.3-.992.6-1.906l.713.232Q685.6,7894.217,685.3,7895.2Zm1.229-3.766-.707-.25q.352-.993.693-1.876l.7.269Q686.875,7890.455,686.527,7891.436Zm1.427-3.69-.69-.293c.281-.664.556-1.273.819-1.83l.678.32C688.5,7886.492,688.232,7887.092,687.954,7887.746Zm1.693-3.562-.661-.356c.337-.627.677-1.213,1.013-1.742l.634.4C690.307,7883,689.976,7883.572,689.647,7884.184Zm2.161-3.31-.352-.262h-.292v-1.9h.75v2.057Zm.106-4.157h-.75v-1.992h.75Zm-.991-3.876-.427-1.946.732-.16.428,1.946Zm-.855-3.891-.427-1.945.732-.16.428,1.945Zm-.855-3.89-.427-1.946.732-.16.428,1.945Zm-.855-3.891-.427-1.945.732-.161.427,1.946Zm-.855-3.891-.427-1.945.732-.16.427,1.945Zm-.855-3.89-.427-1.946.732-.16.427,1.945Zm-.855-3.89-.428-1.945.733-.161.427,1.945Zm-.855-3.891-.428-1.945.733-.16.427,1.945Zm-.855-3.89-.428-1.946.733-.16.427,1.946Zm-.856-3.891-.427-1.945.733-.16.427,1.945Zm-.855-3.891-.427-1.945.733-.16.427,1.945Zm-.854-3.89-.428-1.945.732-.161.428,1.946Zm-.855-3.891-.428-1.945.732-.16.428,1.945Zm-.855-3.889-.428-1.946.732-.16.428,1.945Zm-.855-3.891-.428-1.945.732-.161.428,1.946Zm-.856-3.891-.427-1.945.732-.16.428,1.945Zm-.855-3.89-.427-1.946.732-.16.428,1.946Zm-.855-3.891-.428-1.945.733-.16.428,1.945Zm-.855-3.891-.428-1.945.733-.16.428,1.945Zm-.855-3.89-.428-1.945.733-.161.428,1.946Zm-.855-3.89-.428-1.945.733-.16.427,1.945Zm-.855-3.89-.428-1.946.733-.16.427,1.945Zm-.855-3.891-.428-1.945.732-.161.428,1.946Zm-.855-3.891-.428-1.945.732-.16.428,1.945Zm-.855-3.89-.428-1.946.732-.16.428,1.946Zm-.855-3.891-.428-1.945.732-.16.428,1.945Zm-.856-3.891-.427-1.945.733-.16.427,1.945Zm-.855-3.889-.427-1.946.733-.16.427,1.946Zm-.855-3.891-.427-1.945.732-.16.428,1.945Zm-.855-3.89-.427-1.946.732-.16.428,1.945Zm-.855-3.891-.427-1.945.732-.161.428,1.946Z" fill="#999"/>
        <path id="Trazado_108090" data-name="Trazado 108090" d="M684.973,8100.818l-.506-.552.246.282-.372-.037c0-.08-.009-.4-.035-.939l.749-.037C685.11,8100.686,685.11,8100.686,684.973,8100.818Z" fill="#999"/>
      </g>
      <g id="Grupo_56025" data-name="Grupo 56025">
        <path id="Trazado_108091" data-name="Trazado 108091" d="M680.614,7781.967l-4.536-3.179-2.1.645s-.89.3-.889-.555l1.733-3.5s.843-1.5,1.529-.146l.68,2.469,4.127,3.188.668,1.146Z" fill="#666"/>
      </g>
      <rect id="Rectángulo_10067" data-name="Rectángulo 10067" width="1" height="185.874" transform="translate(668.502 7784.085) rotate(-2.574)" fill="#666"/>
      <path id="Trazado_108092" data-name="Trazado 108092" d="M744.217,7707.249a.5.5,0,0,1-.005-1c8.14-.077,13.406-6.833,13.458-6.9a.5.5,0,1,1,.794.607c-.225.295-5.619,7.213-14.242,7.294Z" fill="#4d4d4d"/>
    </g>
  </g>
</svg>
