<svg xmlns="http://www.w3.org/2000/svg" width="221.289" height="617.857" viewBox="0 0 221.289 617.857">
  <g id="Grupo_56116" data-name="Grupo 56116" transform="translate(-710.018 -8868.969)">
    <rect id="Rectángulo_10119" data-name="Rectángulo 10119" width="221.289" height="617.857" rx="13.671" transform="translate(710.018 8868.969)" fill="#fff"/>
    <g id="Grupo_56115" data-name="Grupo 56115" transform="translate(729.311 8881.541)">
      <g id="Grupo_56113" data-name="Grupo 56113">
        <g id="Grupo_56096" data-name="Grupo 56096" transform="translate(82.92)">
          <g id="Grupo_56093" data-name="Grupo 56093" transform="translate(1.171)">
            <path id="Trazado_108291" data-name="Trazado 108291" d="M818.064,8892.234c0-6.538-3.962-11.84-8.85-11.84s-8.85,5.3-8.85,11.84c0,5.114,2.428,9.457,5.821,11.112v11.32h6.687v-11.661C815.933,8901.143,818.064,8897.025,818.064,8892.234Z" transform="translate(-799.789 -8879.819)" fill="#fff"/>
            <path id="Trazado_108292" data-name="Trazado 108292" d="M813.524,8915.317h-7.837v-11.544c-3.5-1.9-5.823-6.453-5.823-11.464,0-6.845,4.229-12.415,9.425-12.415s9.425,5.57,9.425,12.415c0,4.684-2.027,8.992-5.191,11.089Zm-6.687-1.15h5.536v-11.409l.275-.166c2.987-1.819,4.916-5.855,4.916-10.282,0-6.21-3.711-11.265-8.275-11.265s-8.275,5.055-8.275,11.265c0,4.731,2.21,8.989,5.5,10.6l.323.158Z" transform="translate(-799.864 -8879.895)" fill="#999"/>
          </g>
          <g id="Grupo_56094" data-name="Grupo 56094" transform="translate(0 14.293)">
            <rect id="Rectángulo_10120" data-name="Rectángulo 10120" width="20.755" height="3.461" rx="1.435" transform="translate(0.575 0.574)" fill="#fff"/>
            <path id="Trazado_108293" data-name="Trazado 108293" d="M818.525,8896.927H801.073a2.229,2.229,0,0,1-2.227-2.228v-.159a2.228,2.228,0,0,1,2.227-2.225h17.453a2.228,2.228,0,0,1,2.227,2.225v.159A2.229,2.229,0,0,1,818.525,8896.927Zm-17.453-3.461A1.076,1.076,0,0,0,800,8894.54v.159a1.077,1.077,0,0,0,1.076,1.077h17.453a1.078,1.078,0,0,0,1.076-1.077v-.159a1.076,1.076,0,0,0-1.076-1.074Z" transform="translate(-798.846 -8892.315)" fill="#999"/>
          </g>
          <g id="Grupo_56095" data-name="Grupo 56095" transform="translate(0 7.685)">
            <rect id="Rectángulo_10121" data-name="Rectángulo 10121" width="20.755" height="3.461" rx="1.435" transform="translate(0.575 0.574)" fill="#fff"/>
            <path id="Trazado_108294" data-name="Trazado 108294" d="M818.525,8891.184H801.073a2.228,2.228,0,0,1-2.227-2.225v-.16a2.23,2.23,0,0,1,2.227-2.227h17.453a2.23,2.23,0,0,1,2.227,2.227v.16A2.228,2.228,0,0,1,818.525,8891.184Zm-17.453-3.459A1.075,1.075,0,0,0,800,8888.8v.16a1.075,1.075,0,0,0,1.076,1.074h17.453a1.076,1.076,0,0,0,1.076-1.074v-.16a1.076,1.076,0,0,0-1.076-1.074Z" transform="translate(-798.846 -8886.572)" fill="#999"/>
          </g>
        </g>
        <g id="Grupo_56097" data-name="Grupo 56097" transform="translate(13.443 437.429)">
          <rect id="Rectángulo_10122" data-name="Rectángulo 10122" width="13.027" height="132.859" transform="translate(62.647 22.379)" fill="#313131"/>
          <rect id="Rectángulo_10123" data-name="Rectángulo 10123" width="1.151" height="155.677" transform="translate(0 0.091) rotate(-4.521)" fill="#313131"/>
          <rect id="Rectángulo_10124" data-name="Rectángulo 10124" width="1.15" height="150.555" transform="translate(9.125 5.129) rotate(-4.195)" fill="#313131"/>
          <rect id="Rectángulo_10125" data-name="Rectángulo 10125" width="1.151" height="147.456" transform="matrix(0.998, -0.064, 0.064, 0.998, 14.631, 8.125)" fill="#313131"/>
          <rect id="Rectángulo_10126" data-name="Rectángulo 10126" width="1.151" height="129.648" transform="translate(56.009 25.622) rotate(-1.043)" fill="#313131"/>
          <rect id="Rectángulo_10127" data-name="Rectángulo 10127" width="1.15" height="141.746" transform="translate(28.005 13.762) rotate(-3.309)" fill="#313131"/>
          <rect id="Rectángulo_10128" data-name="Rectángulo 10128" width="1.151" height="126.854" transform="translate(91.566 28.384)" fill="#313131"/>
          <rect id="Rectángulo_10129" data-name="Rectángulo 10129" width="126.863" height="1.151" transform="translate(98.532 155.232) rotate(-89.329)" fill="#313131"/>
          <rect id="Rectángulo_10130" data-name="Rectángulo 10130" width="1.151" height="133.208" transform="translate(112.321 22.029)" fill="#313131"/>
          <rect id="Rectángulo_10131" data-name="Rectángulo 10131" width="1.151" height="137.267" transform="translate(117.079 17.971)" fill="#313131"/>
          <rect id="Rectángulo_10132" data-name="Rectángulo 10132" width="147.191" height="1.151" transform="matrix(0.023, -1, 1, 0.023, 126.5, 155.225)" fill="#313131"/>
          <path id="Trazado_108295" data-name="Trazado 108295" d="M833.4,9352.639c-23.692,0-44.475-11.771-45.2-12.188-.3-.149-4.879-2.441-10.517-5.153a163.256,163.256,0,0,1-28.434-17.852c-.354-.39-7.084-8.106-5.541-15.992.82-4.192,3.832-7.605,8.952-10.143,17.82-8.829,44.523,3.249,45.65,3.769l42.77,17.374c17.4,7.733,26.1,15.419,25.879,22.85-.274,9.046-13.581,14.12-14.147,14.333A61.226,61.226,0,0,1,833.4,9352.639Zm-65.43-63.349a33.29,33.29,0,0,0-14.8,3.053c-4.78,2.368-7.584,5.508-8.333,9.326-1.436,7.325,5.139,14.876,5.2,14.95a163.269,163.269,0,0,0,28.138,17.641c5.812,2.8,10.5,5.146,10.551,5.169l.032.019c.33.192,33.438,19.178,63.667,9.1.112-.041,13.132-5.008,13.38-13.284.207-6.917-8.264-14.236-25.179-21.753l-42.777-17.377C797.637,9296.035,782.729,9289.29,767.974,9289.29Z" transform="translate(-737.712 -9255.812)" fill="#313131"/>
          <path id="Trazado_108296" data-name="Trazado 108296" d="M828.31,9399.156a59.447,59.447,0,0,1-16.577-2.21l-.007,0c-.075-.026-7.671-2.62-13.509-5.429-15.64-7.523-32.375-16.705-32.543-16.8-.727-.307-19.02-8.219-19.243-16.2-.076-2.7,1.871-5.052,5.787-6.991,17.82-8.832,44.523,3.249,45.65,3.768l42.77,17.374c11.759,4.133,17.8,8.576,17.94,13.2.162,5.443-7.85,8.873-8.192,9.016A57.066,57.066,0,0,1,828.31,9399.156Zm-16.216-3.3c.349.112,18.869,5.934,37.847-2.028.076-.034,7.628-3.265,7.488-7.924-.085-2.817-3.138-7.214-17.2-12.156l-42.82-17.395c-.295-.135-27.357-12.379-44.682-3.792-3.477,1.723-5.209,3.72-5.148,5.93.2,7.25,18.412,15.12,18.6,15.2.218.116,16.927,9.281,32.539,16.792A143.7,143.7,0,0,0,812.094,9395.853Z" transform="translate(-737.268 -9246.737)" fill="#313131"/>
        </g>
        <g id="Grupo_56098" data-name="Grupo 56098" transform="translate(0 29.131)">
          <path id="Trazado_108297" data-name="Trazado 108297" d="M883.157,8983.071c-2.937-7.762-7.657-8.5-7.657-8.5l-8.5-3.355L834.7,8956.535c-.735-2.833-.1-10.07-.1-10.07,1.048-7.133,6.293-19.614,6.293-19.614,1.678-4.51.523-7.341.523-7.341-11.537-15.629-28.844-13.742-31.99-13.742s-5.245,3.881-5.245,3.881l-12.691,28.53-48.044,39.647a130.221,130.221,0,0,0-13.154,13.819c-5.14,6.608-2.1,18.724-2.1,18.724l14.055,47.042,23.509,71.561-.066,5.52s-6.284,12.164-9.7,20.1c-4.069,9.446-6.294,16.94-9.23,22.761-8.811,17.463-7.59,41.631-7.59,41.631l-.465,112.541c57.766,38.188,130.912,22.632,130.912,22.632s.566-147.445.12-155.627c-.365-6.67-2.495-29.315-4.663-36.7-1.112-3.785-5.091-10.345-5.77-14.684-.578-3.7-3.237-7.042-2.307-9.966,4.4-13.845,8.9-22.422,11.747-37.024,3.884-19.914,15.88-34.788,18.041-55.592C889.9,9014.558,884.227,8985.9,883.157,8983.071Z" transform="translate(-726.708 -8905.139)" fill="#fff"/>
          <path id="Trazado_108298" data-name="Trazado 108298" d="M833.7,9357.855c-26.535,0-63.362-4.705-95.243-25.781l-.259-.17v-.312l.466-112.539c-.013-.213-1.128-24.49,7.65-41.889a116.641,116.641,0,0,0,4.586-11.076c1.307-3.455,2.787-7.375,4.63-11.654,3.2-7.437,8.99-18.717,9.657-20.012l.063-5.291-23.479-71.465-14.06-47.061c-.134-.529-3.055-12.488,2.2-19.24a132.147,132.147,0,0,1,13.223-13.895l47.958-39.576,12.637-28.406c.112-.209,2.32-4.223,5.77-4.223.231,0,.542-.012.923-.023,13.719-.465,24.331,4.246,31.53,14l.07.123c.051.125,1.219,3.094-.518,7.762-.061.146-5.237,12.518-6.263,19.5,0,.035-.572,6.705.031,9.578l32.049,14.566,8.416,3.326c.646.127,5.175,1.285,8.036,8.846h0c1.173,3.1,6.732,32.156,3.658,61.756-1.19,11.453-5.4,21.264-9.469,30.75-3.358,7.826-6.831,15.92-8.58,24.893-1.876,9.619-4.491,16.711-7.261,24.223-1.471,3.986-2.99,8.109-4.5,12.865-.5,1.578.222,3.43.991,5.387a20.6,20.6,0,0,1,1.337,4.316c.387,2.479,1.952,5.848,3.332,8.816a47.181,47.181,0,0,1,2.419,5.793c2.26,7.693,4.359,30.857,4.686,36.832.442,8.105-.113,154.188-.119,155.66l0,.463-.453.1A195.517,195.517,0,0,1,833.7,9357.855Zm-94.349-26.568c54.516,35.854,123.5,23.678,129.761,22.467.036-9.2.547-147.279.12-155.121-.326-5.945-2.407-28.965-4.641-36.57a46.666,46.666,0,0,0-2.359-5.631c-1.482-3.189-3.014-6.484-3.427-9.127a19.745,19.745,0,0,0-1.269-4.07c-.846-2.154-1.644-4.189-1.018-6.156,1.521-4.781,3.046-8.918,4.521-12.916,2.752-7.465,5.353-14.518,7.21-24.047,1.773-9.09,5.27-17.242,8.652-25.125,4.037-9.408,8.21-19.133,9.382-30.414,3.053-29.4-2.431-58.164-3.589-61.229h0c-2.765-7.307-7.168-8.125-7.211-8.133l-.12-.033-8.5-3.355-32.583-14.809-.068-.266c-.751-2.895-.147-9.965-.121-10.264,1.051-7.156,6.119-19.275,6.335-19.787a10.632,10.632,0,0,0,.543-6.846c-10.487-14.139-25.556-13.639-30.516-13.463-.4.012-.72.023-.962.023-2.762,0-4.719,3.543-4.739,3.58l-12.727,28.613-.1.086-48.044,39.646a130.854,130.854,0,0,0-13.066,13.73c-4.9,6.307-2.024,18.109-1.994,18.229l14.049,47.02,23.533,71.635-.068,5.752-.062.121c-.062.123-6.314,12.236-9.685,20.064-1.832,4.252-3.308,8.158-4.61,11.6a118.052,118.052,0,0,1-4.635,11.188c-8.638,17.121-7.541,41.1-7.528,41.342Z" transform="translate(-726.785 -8905.211)" fill="#999"/>
        </g>
        <path id="Trazado_108299" data-name="Trazado 108299" d="M745.165,9330.7l-1.151-.02,2.319-138.66c.018-.189,1.548-13.95,7.185-26.27,5.39-11.78,14.508-32.373,15.262-34.077V9126l-27.878-96.63c-.062-.175-6.924-20.454-2.942-36.173a54.4,54.4,0,0,1,16.547-27.835c8.255-7.837,26.886-22.877,27.073-23.028l9.2-8.574.785.843-9.23,8.6c-.219.178-18.814,15.188-27.035,22.993a53.321,53.321,0,0,0-16.222,27.283c-3.9,15.383,2.854,35.343,2.923,35.543l27.932,96.813-.049,6.188c-.1.217-9.716,21.962-15.317,34.2-5.558,12.143-7.069,25.726-7.084,25.861Z" transform="translate(-725.288 -8871.777)" fill="#999"/>
        <path id="Trazado_108300" data-name="Trazado 108300" d="M761.817,9345.66l-1.151-.01,1.022-140.376a82.711,82.711,0,0,1,2.176-17.658,128.777,128.777,0,0,1,6.491-20.435c6.193-14.707,8.127-24.8,8.147-24.9,0-.068,1.062-12.237-1.108-31.454-2.177-19.287-6.1-56.273-6.137-56.645l-4.56-32.864c-.037-1.315-.72-30.884,5.867-45.313,6.535-14.314,20.164-42.833,20.3-43.12.128-.21,9.619-15.32,12.706-27.315l1.115.288c-3.133,12.171-12.719,27.431-12.815,27.583-.1.229-13.729,28.736-20.259,43.043-6.477,14.187-5.776,44.438-5.768,44.742l4.556,32.818c.043.39,3.962,37.371,6.139,56.654,2.183,19.344,1.114,31.619,1.1,31.739-.026.155-1.979,10.356-8.224,25.188a127.506,127.506,0,0,0-6.431,20.252,81.5,81.5,0,0,0-2.146,17.406Z" transform="translate(-721.679 -8876.025)" fill="#999"/>
        <path id="Trazado_108301" data-name="Trazado 108301" d="M851.2,9023.27c-.1,0-.193,0-.291-.01-6.267-.361-10.5-12.3-9.645-27.178a50.8,50.8,0,0,1,4.22-18.393c2.392-5.012,5.414-7.682,8.487-7.5s5.768,3.17,7.569,8.422a50.8,50.8,0,0,1,2.076,18.754C862.774,9012.018,857.351,9023.27,851.2,9023.27Zm2.491-51.934c-2.482,0-5.084,2.479-7.17,6.85a49.662,49.662,0,0,0-4.109,17.961c-.794,13.76,3.128,25.65,8.563,25.965.074.006.147.008.22.008,5.358,0,10.49-11.24,11.272-24.814h0a49.66,49.66,0,0,0-2.016-18.316c-1.614-4.713-4-7.5-6.547-7.646C853.837,8971.338,853.765,8971.336,853.694,8971.336Z" transform="translate(-709.55 -8866.288)" fill="#999"/>
        <ellipse id="Elipse_4341" data-name="Elipse 4341" cx="1.692" cy="4.143" rx="1.692" ry="4.143" transform="translate(142.515 125.464)" fill="#999"/>
        <path id="Trazado_108302" data-name="Trazado 108302" d="M831.261,9117.419a407.446,407.446,0,0,1-52.269-3.583c-4.885-.635-17.5-7.649-18.031-7.948l-.295-.163v-6.888l.816.375c.132.061,13.318,6.11,17.96,7.041,29.182,5.839,71.879,3.029,72.308,3l.45-.028,2.281,7.138-.688.084A208.412,208.412,0,0,1,831.261,9117.419Zm-69.444-12.372c1.954,1.072,13.053,7.092,17.324,7.647,42.04,5.475,69.222,3.154,73.819,2.686l-1.582-4.949c-4.673.286-44.452,2.494-72.162-3.051-4.143-.829-14.4-5.394-17.4-6.751Z" transform="translate(-721.679 -8846.901)" fill="#999"/>
        <path id="Trazado_108303" data-name="Trazado 108303" d="M765.665,9107.463l-1.856-2.187,1.74-1.881-1.656-2.123.6-.465,2.052,2.629-1.723,1.861,1.422,1.676Z" transform="translate(-721.205 -8846.604)" fill="#999"/>
        <path id="Trazado_108304" data-name="Trazado 108304" d="M768.042,9108.578l-1.856-2.187,1.74-1.881-1.656-2.123.6-.467,2.052,2.631-1.723,1.861,1.422,1.676Z" transform="translate(-720.847 -8846.436)" fill="#999"/>
        <path id="Trazado_108305" data-name="Trazado 108305" d="M770.418,9109.854l-1.856-2.187,1.74-1.879-1.656-2.125.6-.465,2.052,2.629-1.723,1.861,1.422,1.676Z" transform="translate(-720.489 -8846.245)" fill="#999"/>
        <path id="Trazado_108306" data-name="Trazado 108306" d="M772.794,9111.031l-1.856-2.308,1.74-1.986-1.656-2.24.6-.491,2.052,2.775-1.723,1.965,1.422,1.77Z" transform="translate(-720.131 -8846.123)" fill="#999"/>
        <path id="Trazado_108307" data-name="Trazado 108307" d="M774.644,9111.679l-1.856-2.31,1.74-1.984-1.656-2.24.6-.491,2.052,2.775-1.723,1.965,1.422,1.769Z" transform="translate(-719.852 -8846.025)" fill="#999"/>
        <path id="Trazado_108308" data-name="Trazado 108308" d="M776.592,9112.062l-1.856-2.308,1.74-1.984-1.656-2.241.6-.492,2.052,2.776-1.723,1.964,1.422,1.77Z" transform="translate(-719.559 -8845.968)" fill="#999"/>
        <path id="Trazado_108309" data-name="Trazado 108309" d="M778.78,9112.954l-1.856-2.309,1.741-1.984-1.656-2.24.6-.492,2.052,2.776-1.723,1.963,1.422,1.771Z" transform="translate(-719.229 -8845.833)" fill="#999"/>
        <path id="Trazado_108310" data-name="Trazado 108310" d="M780.932,9112.954l-1.856-2.309,1.74-1.984-1.656-2.24.6-.492,2.052,2.776-1.723,1.963,1.422,1.771Z" transform="translate(-718.905 -8845.833)" fill="#999"/>
        <path id="Trazado_108311" data-name="Trazado 108311" d="M783.309,9113.367l-1.856-2.309,1.74-1.984-1.656-2.24.6-.492,2.052,2.776-1.723,1.963,1.422,1.771Z" transform="translate(-718.547 -8845.771)" fill="#999"/>
        <path id="Trazado_108312" data-name="Trazado 108312" d="M785.264,9113.616l-1.856-2.308,1.741-1.986-1.656-2.24.6-.491,2.052,2.775-1.723,1.965,1.422,1.77Z" transform="translate(-718.252 -8845.733)" fill="#999"/>
        <path id="Trazado_108313" data-name="Trazado 108313" d="M787.328,9113.85l-1.856-2.308,1.74-1.985-1.656-2.241.6-.491,2.052,2.775-1.723,1.965,1.422,1.77Z" transform="translate(-717.941 -8845.698)" fill="#999"/>
        <path id="Trazado_108314" data-name="Trazado 108314" d="M789.518,9114.3l-1.856-2.31,1.74-1.984-1.656-2.24.6-.491,2.052,2.775-1.723,1.965,1.422,1.769Z" transform="translate(-717.611 -8845.63)" fill="#999"/>
        <path id="Trazado_108315" data-name="Trazado 108315" d="M791.506,9114.154l-1.7-2.119,1.6-1.822-1.52-2.056.548-.451,1.883,2.548-1.581,1.8,1.305,1.624Z" transform="translate(-717.288 -8845.565)" fill="#999"/>
        <path id="Trazado_108316" data-name="Trazado 108316" d="M793.688,9114.4l-1.7-2.119,1.6-1.821-1.52-2.057.548-.45,1.883,2.547-1.581,1.8,1.305,1.624Z" transform="translate(-716.96 -8845.527)" fill="#999"/>
        <path id="Trazado_108317" data-name="Trazado 108317" d="M795.62,9114.4l-1.7-2.119,1.6-1.821-1.52-2.057.548-.45,1.883,2.547-1.581,1.8,1.305,1.624Z" transform="translate(-716.668 -8845.527)" fill="#999"/>
        <path id="Trazado_108318" data-name="Trazado 108318" d="M797.466,9114.746l-1.7-2.119,1.6-1.821-1.52-2.057.548-.45,1.883,2.547-1.581,1.8,1.305,1.624Z" transform="translate(-716.39 -8845.476)" fill="#999"/>
        <path id="Trazado_108319" data-name="Trazado 108319" d="M799.95,9115.02l-1.7-2.119,1.6-1.821-1.52-2.057.548-.45,1.883,2.547-1.581,1.8,1.305,1.624Z" transform="translate(-716.016 -8845.435)" fill="#999"/>
        <path id="Trazado_108320" data-name="Trazado 108320" d="M801.878,9115.02l-1.7-2.119,1.6-1.821-1.52-2.057.548-.45,1.883,2.547-1.581,1.8,1.305,1.624Z" transform="translate(-715.726 -8845.435)" fill="#999"/>
        <path id="Trazado_108321" data-name="Trazado 108321" d="M803.723,9115.02l-1.7-2.119,1.6-1.821-1.52-2.057.548-.45,1.883,2.547-1.581,1.8,1.305,1.624Z" transform="translate(-715.447 -8845.435)" fill="#999"/>
        <path id="Trazado_108322" data-name="Trazado 108322" d="M805.569,9115.225l-1.7-2.119,1.6-1.82-1.52-2.057.548-.451,1.883,2.547-1.581,1.8,1.305,1.623Z" transform="translate(-715.169 -8845.403)" fill="#999"/>
        <path id="Trazado_108323" data-name="Trazado 108323" d="M807.256,9115.225l-1.7-2.119,1.6-1.82-1.52-2.057.548-.451,1.883,2.547-1.581,1.8,1.305,1.623Z" transform="translate(-714.915 -8845.403)" fill="#999"/>
        <path id="Trazado_108324" data-name="Trazado 108324" d="M809.17,9115.225l-1.7-2.119,1.6-1.82-1.52-2.057.548-.451,1.883,2.547-1.581,1.8,1.305,1.623Z" transform="translate(-714.627 -8845.403)" fill="#999"/>
        <path id="Trazado_108325" data-name="Trazado 108325" d="M811.13,9115.225l-1.7-2.119,1.6-1.82-1.52-2.057.548-.451,1.883,2.547-1.581,1.8,1.305,1.623Z" transform="translate(-714.331 -8845.403)" fill="#999"/>
        <path id="Trazado_108326" data-name="Trazado 108326" d="M813,9115.521l-1.7-2.118,1.6-1.823-1.52-2.057.548-.45,1.883,2.548-1.581,1.8,1.305,1.624Z" transform="translate(-714.05 -8845.359)" fill="#999"/>
        <path id="Trazado_108327" data-name="Trazado 108327" d="M815,9115.521l-1.7-2.118,1.6-1.823-1.52-2.057.548-.45,1.883,2.548-1.581,1.8,1.305,1.624Z" transform="translate(-713.748 -8845.359)" fill="#999"/>
        <path id="Trazado_108328" data-name="Trazado 108328" d="M816.963,9115.521l-1.7-2.118,1.6-1.823-1.52-2.057.548-.45,1.883,2.548-1.581,1.8,1.305,1.624Z" transform="translate(-713.452 -8845.359)" fill="#999"/>
        <path id="Trazado_108329" data-name="Trazado 108329" d="M818.809,9115.344l-1.7-2.119,1.6-1.821-1.52-2.057.548-.45,1.883,2.547-1.581,1.8,1.305,1.624Z" transform="translate(-713.174 -8845.386)" fill="#999"/>
        <path id="Trazado_108330" data-name="Trazado 108330" d="M820.564,9115.344l-1.7-2.119,1.6-1.821-1.52-2.057.548-.45,1.883,2.547-1.581,1.8,1.305,1.624Z" transform="translate(-712.91 -8845.386)" fill="#999"/>
        <path id="Trazado_108331" data-name="Trazado 108331" d="M822.432,9115.344l-1.7-2.119,1.6-1.821-1.519-2.057.548-.45,1.883,2.547-1.581,1.8,1.3,1.624Z" transform="translate(-712.628 -8845.386)" fill="#999"/>
        <path id="Trazado_108332" data-name="Trazado 108332" d="M824.613,9115.225l-1.7-2.119,1.6-1.82-1.52-2.057.548-.451,1.883,2.547-1.581,1.8,1.305,1.623Z" transform="translate(-712.299 -8845.403)" fill="#999"/>
        <path id="Trazado_108333" data-name="Trazado 108333" d="M826.755,9115.225l-1.7-2.119,1.6-1.82-1.52-2.057.548-.451,1.883,2.547-1.581,1.8,1.305,1.623Z" transform="translate(-711.977 -8845.403)" fill="#999"/>
        <path id="Trazado_108334" data-name="Trazado 108334" d="M829.125,9115.344l-1.7-2.119,1.6-1.821-1.52-2.057.548-.45,1.883,2.547-1.581,1.8,1.305,1.624Z" transform="translate(-711.62 -8845.386)" fill="#999"/>
        <path id="Trazado_108335" data-name="Trazado 108335" d="M831.307,9115.521l-1.7-2.118,1.6-1.823-1.52-2.057.548-.45,1.883,2.548-1.581,1.8,1.305,1.624Z" transform="translate(-711.291 -8845.359)" fill="#999"/>
        <path id="Trazado_108336" data-name="Trazado 108336" d="M833.255,9115.344l-1.7-2.119,1.6-1.821-1.52-2.057.548-.45,1.883,2.547-1.581,1.8,1.305,1.624Z" transform="translate(-710.997 -8845.386)" fill="#999"/>
        <path id="Trazado_108337" data-name="Trazado 108337" d="M835.032,9115.225l-1.7-2.119,1.6-1.82-1.52-2.057.548-.451,1.883,2.547-1.581,1.8,1.305,1.623Z" transform="translate(-710.729 -8845.403)" fill="#999"/>
        <path id="Trazado_108338" data-name="Trazado 108338" d="M836.639,9115.225l-1.7-2.119,1.6-1.82-1.52-2.057.548-.451,1.883,2.547-1.581,1.8,1.305,1.623Z" transform="translate(-710.487 -8845.403)" fill="#999"/>
        <path id="Trazado_108339" data-name="Trazado 108339" d="M838.519,9114.985l-1.7-2.119,1.6-1.821-1.52-2.057.548-.451,1.883,2.548-1.581,1.8,1.305,1.624Z" transform="translate(-710.204 -8845.438)" fill="#999"/>
        <path id="Trazado_108340" data-name="Trazado 108340" d="M840.328,9114.746l-1.7-2.119,1.6-1.821-1.519-2.057.548-.45,1.883,2.547-1.581,1.8,1.3,1.624Z" transform="translate(-709.931 -8845.476)" fill="#999"/>
        <path id="Trazado_108341" data-name="Trazado 108341" d="M829.276,8928.586c-4.758-8.5-11.425-11.171-11.491-11.2-15.971-6.651-25.54-3.334-25.634-3.3l-.393-1.082c.4-.149,10.042-3.522,26.456,3.313.274.105,7.094,2.815,12.068,11.7Z" transform="translate(-716.994 -8875.05)" fill="#999"/>
        <path id="Trazado_108342" data-name="Trazado 108342" d="M826.963,8954.052c-.855-.87-1.9-1.986-3.1-3.279a163.465,163.465,0,0,0-15.32-14.932c-12.085-10.021-24.12-1.5-24.625-1.131l-.678-.932c.132-.093,13.253-9.424,26.038,1.177a164.147,164.147,0,0,1,15.427,15.034c1.193,1.282,2.225,2.393,3.075,3.256Z" transform="translate(-718.277 -8872.36)" fill="#999"/>
        <rect id="Rectángulo_10133" data-name="Rectángulo 10133" width="9.628" height="1.15" transform="matrix(0.131, -0.991, 0.991, 0.131, 139.367, 166.384)" fill="#999"/>
        <g id="Grupo_56099" data-name="Grupo 56099" transform="translate(116.389 156.667)">
          <path id="Trazado_108343" data-name="Trazado 108343" d="M838.333,9339.856l-1.142-.144c7.745-61.916-4.554-188.518-4.68-189.79l-3.785-18.366v-4.4l2.949-21.163,21.7-89.944,1.118.271L832.805,9106.2l-2.933,21.027.006,4.266,3.771,18.254C833.782,9151.085,846.094,9277.813,838.333,9339.856Z" transform="translate(-827.812 -9016.045)" fill="#999"/>
          <path id="Trazado_108344" data-name="Trazado 108344" d="M837.238,9339.535l-.857-.1q.126-1.128.245-2.283l.858.086Q837.365,9338.4,837.238,9339.535Zm.472-4.586-.86-.082q.107-1.132.206-2.289l.86.075Q837.815,9333.813,837.709,9334.949Zm.4-4.593-.861-.068c.059-.756.116-1.521.173-2.292l.861.062C838.221,9328.831,838.164,9329.6,838.105,9330.356Zm.33-4.6-.861-.056q.074-1.14.143-2.3l.862.052Q838.51,9324.62,838.436,9325.759Zm.275-4.6-.862-.048.119-2.3.862.043Zm.226-4.6-.862-.039q.05-1.141.1-2.3l.862.034Q838.987,9315.413,838.936,9316.557Zm.182-4.6-.862-.031q.04-1.141.075-2.3l.863.027Q839.159,9310.808,839.118,9311.954Zm.143-4.605-.863-.021.058-2.3.863.02Zm.108-4.6-.863-.017.041-2.3.863.012Zm.075-4.6-.863-.012.026-2.3.863.008Zm.046-4.6-.863-.006.013-2.3.863,0Zm.02-4.6-.863,0v-2.3l.863,0v2.3Zm-.869-4.6-.011-2.3.863-.006.011,2.3Zm-.029-4.6-.023-2.3.863-.009.023,2.3Zm-.051-4.595-.033-2.295.863-.014.033,2.3Zm-.07-4.593-.043-2.3.863-.016.043,2.3Zm-.09-4.6-.052-2.3.863-.02.052,2.3Zm-.108-4.607-.061-2.307.863-.021.061,2.306Zm-.124-4.615-.069-2.309.863-.027.069,2.313Zm-.142-4.609-.076-2.3.863-.029.076,2.3Zm-.154-4.6-.084-2.3.862-.031.084,2.3Zm-.17-4.6-.091-2.3.862-.034.091,2.3Zm-.185-4.6-.1-2.3.862-.034.1,2.3Zm-.2-4.6-.1-2.3.862-.037.1,2.3Zm-.212-4.6-.109-2.3.862-.042.109,2.3Zm-.222-4.6-.116-2.3.862-.042.116,2.3Zm-.235-4.6-.122-2.3.862-.048.122,2.3Zm-.246-4.6-.128-2.3.862-.047.128,2.3Zm-.259-4.6-.132-2.3.862-.05.133,2.3Zm-.267-4.6-.139-2.3.862-.051.139,2.3Zm-.28-4.6-.144-2.3.861-.054.145,2.3Zm-.289-4.6-.148-2.3.861-.057.148,2.3Zm-.3-4.595-.154-2.3.861-.059.154,2.3Zm-.31-4.594-.159-2.3.861-.062.159,2.3Zm-.32-4.594-.163-2.3.861-.062.163,2.3Zm-.33-4.595-.169-2.3.861-.064.169,2.3Zm-.341-4.593-.174-2.3.861-.064.174,2.3Zm-.35-4.593-.18-2.3.861-.067.18,2.3Zm-.361-4.593-.185-2.3.862-.071.184,2.3Zm-.372-4.595-.191-2.3.86-.073.191,2.3Zm-.385-4.594-.2-2.3.86-.075.2,2.3Zm-.4-4.6-.1-1.155c-.008-.086-.014-.149-.017-.2l-.182-.883.845-.175.216,1.047-.013.023.115,1.267Zm-.77-4.493-.466-2.254.845-.174.466,2.254Zm-.931-4.507-.466-2.254.845-.175.466,2.255Zm-.932-4.509-.465-2.253.845-.174.466,2.253Zm-.931-4.507-.337-1.632-.009-.723h.863v.635l.328,1.546Zm.517-4.655h-.863v-1.47l.117-.883.856.117-.114.824Zm.423-4.516-.855-.117.314-2.279.855.116Zm.628-4.559-.855-.118.314-2.279.855.116Zm.628-4.561-.855-.118.314-2.277.855.116Zm.628-4.559-.855-.118.314-2.279.855.116Zm.628-4.561-.855-.117.314-2.279.855.116Zm.672-4.5-.837-.217.576-2.228.837.215Zm1.153-4.457-.837-.217.575-2.227.837.214Zm1.152-4.455-.837-.217.576-2.228.835.215Zm1.152-4.457-.837-.217.577-2.227.835.214Zm1.152-4.456-.835-.217.575-2.228.837.216Zm1.11-4.477-.84-.2.528-2.238.84.2Zm1.056-4.479-.84-.2.528-2.24.84.2Zm1.056-4.479-.84-.2.529-2.239.839.2Zm1.057-4.481-.841-.2.529-2.239.839.2Zm1.056-4.479-.841-.2.529-2.242.84.2Zm1.051-4.485-.842-.191.507-2.245.842.191Zm1.015-4.489-.842-.191.509-2.244.841.191Zm1.015-4.49-.842-.191.507-2.244.842.191Zm1.015-4.489-.842-.191.507-2.243.842.191Zm1.015-4.488-.841-.191.507-2.245.841.191Zm1.015-4.49-.842-.191.507-2.245.842.191Zm1.015-4.489-.841-.191.507-2.244.841.191Zm1.015-4.489-.841-.191.507-2.245.841.191Zm1.015-4.49-.841-.191.508-2.244.841.191Z" transform="translate(-827.932 -9015.748)" fill="#999"/>
          <path id="Trazado_108345" data-name="Trazado 108345" d="M839.213,9339.728l-.855-.111q.148-1.128.289-2.28l.856.1Q839.363,9338.6,839.213,9339.728Zm.557-4.578-.857-.095q.124-1.132.243-2.287l.858.088Q839.894,9334.014,839.77,9335.149Zm.467-4.587-.86-.079q.105-1.134.2-2.289l.86.073Q840.342,9329.425,840.237,9330.563Zm.391-4.593-.861-.066q.09-1.138.17-2.293l.861.062Q840.717,9324.829,840.628,9325.97Zm.327-4.6-.861-.056q.074-1.14.14-2.294l.862.05Q841.029,9320.229,840.955,9321.372Zm.269-4.6-.862-.045q.06-1.141.115-2.295l.862.04Q841.284,9315.628,841.224,9316.771Zm.22-4.6-.862-.035q.048-1.144.092-2.3l.862.03Q841.493,9311.026,841.444,9312.169Zm.174-4.6-.863-.028.072-2.3.863.023Zm.135-4.6-.863-.022.053-2.3.863.018Zm.1-4.605-.863-.017.037-2.3.863.012Zm.064-4.6-.863-.01.02-2.3.863.007Zm.032-4.6-.863,0,.007-2.3.863,0Zm-.857-4.6-.008-2.3.863,0,.008,2.3Zm-.022-4.6-.02-2.3.863-.009.019,2.3Zm-.046-4.6-.031-2.293.863-.015.031,2.3Zm-.068-4.588-.043-2.3.863-.02.043,2.3Zm-.09-4.6-.053-2.3.863-.019.053,2.3Zm-.11-4.6-.062-2.3.863-.026.062,2.306Zm-.13-4.611-.071-2.307.863-.028.071,2.31Zm-.147-4.617-.081-2.3.862-.031.082,2.3Zm-.165-4.6-.089-2.3.862-.034.089,2.3Zm-.181-4.6-.1-2.3.862-.036.1,2.3Zm-.2-4.6-.1-2.3.862-.038.1,2.3Zm-.211-4.6-.112-2.3.862-.043.112,2.3Zm-.226-4.6-.119-2.3.862-.046.118,2.3Zm-.239-4.6-.125-2.3.862-.047.125,2.3Zm-.253-4.6-.13-2.3.862-.049.13,2.3Zm-.266-4.6-.137-2.3.862-.052.137,2.3Zm-.277-4.6-.143-2.3.861-.055.144,2.3Zm-.29-4.594-.15-2.3.861-.058.15,2.3Zm-.3-4.594-.155-2.3.861-.059.155,2.3Zm-.313-4.595-.161-2.3.861-.06.161,2.3Zm-.326-4.594-.167-2.3.861-.062.167,2.3Zm-.335-4.593-.173-2.3.861-.065.173,2.3Zm-.347-4.591-.177-2.295.861-.068.177,2.3Zm-.358-4.592-.183-2.3.861-.07.183,2.3Zm-.368-4.593-.189-2.294.86-.071.189,2.3Zm-.38-4.589-.194-2.295.86-.072.194,2.3Zm-.392-4.589-.2-2.295.86-.077.2,2.3Zm-.4-4.591-.207-2.3.86-.078.207,2.3Zm-.418-4.592-.213-2.3.86-.081.213,2.3Zm-.43-4.593-.222-2.3.858-.082.222,2.3Zm-.551-4.524-.525-2.242.841-.2.525,2.242Zm-1.048-4.482-.525-2.24.84-.2.525,2.239Zm-1.049-4.481-.525-2.242.841-.2.524,2.241Zm-1.049-4.483-.382-1.633-.012-.722h.863v.624l.371,1.535Zm.47-4.656h-.863v-1.479l.181-.893.845.18-.171.8Zm.642-4.443-.843-.18.48-2.252.845.181Zm.961-4.5-.845-.181.481-2.251.843.182Zm.961-4.5-.845-.181.481-2.251.844.18Zm.961-4.5-.845-.18.48-2.251.845.18Zm.96-4.5-.843-.18.48-2.25.845.18Zm.961-4.5-.844-.18.48-2.251.843.18Zm.961-4.5-.845-.179.481-2.251.844.179Zm.961-4.5-.845-.179.48-2.249.845.179Zm.96-4.5-.843-.18.48-2.251.845.18Zm.961-4.5-.843-.18.48-2.252.843.182Zm.96-4.5-.843-.182.481-2.25.844.181Zm.961-4.5-.843-.181.514-2.251.84.2Zm1.033-4.478-.84-.2.522-2.239.84.2Zm1.046-4.483-.841-.2.522-2.24.841.2Zm1.045-4.481-.841-.2.524-2.239.84.2Zm1.045-4.483-.84-.2.522-2.24.841.2Zm1.046-4.481-.841-.2.522-2.239.841.2Zm1.045-4.483-.841-.2.524-2.241.84.2Zm1.045-4.481-.84-.2.522-2.24.84.2Zm1.045-4.483-.84-.2.522-2.241.84.2Zm1.046-4.481-.84-.2.522-2.239.84.2Zm1.045-4.483-.84-.2.522-2.24.84.2Zm1.045-4.481-.84-.2.522-2.239.84.2Zm1.046-4.484-.841-.2.522-2.24.841.2Zm1.045-4.479-.841-.2.03-.126.841.2Z" transform="translate(-827.664 -9016.04)" fill="#999"/>
        </g>
        <path id="Trazado_108346" data-name="Trazado 108346" d="M790.581,9346.122c-.018-1.229-1.79-123.367-1-151.21a106.1,106.1,0,0,1,1.558-15.309c1.881-10.693,6.386-36.266,7.581-42.719,1.335-7.209-.437-44.763-1.013-56.1-.09-1.78-.135-3.587-.135-5.365v-24.8c.015-.657,1.831-64.585,26.863-91.5.075-.106,2.866-3.788,9.559-6.232l.395,1.082c-6.344,2.315-9.044,5.852-9.071,5.888-24.779,26.642-26.58,90.134-26.595,90.771v24.791c0,1.76.045,3.545.133,5.308.577,11.369,2.352,49.033.994,56.366-1.193,6.448-5.7,32.016-7.578,42.71a104.9,104.9,0,0,0-1.541,15.142c-.789,27.817.983,149.931,1,151.162Z" transform="translate(-717.353 -8868.896)" fill="#999"/>
        <g id="Grupo_56100" data-name="Grupo 56100" transform="translate(28.073 57.481)" opacity="0.74">
          <path id="Trazado_108347" data-name="Trazado 108347" d="M905.159,9015.037s-25.34-14.381-27.858-7.9,5.139,26.846,5.139,26.846,6.111,27.16,3.908,45.1-6,65.238-6,65.238l-6.4,100.377,4.091,111.391s.629,48.773-1.259,66.08a248.174,248.174,0,0,0-1.573,29.893s-88.451,9.439-123.521-11.328a34.379,34.379,0,0,0,13.073-28.635c-.63-19.2-.944-96.916-.944-96.916l-1.216-80.555,5.776-132.789L767,9016.873s-1.456-36.393,11.207-60.047,11.116-23.689,11.116-23.689l8.068-2.764s12.892-1.068,21.914,9.42l11.106,11.307,6.6,4s2.853,1.3,12.507,6.3l15.41,6.8s17.309,6.992,22.213,11.158C894.86,8985.916,905.159,9015.037,905.159,9015.037Z" transform="translate(-751.106 -8929.773)" fill="#ccc"/>
          <path id="Trazado_108348" data-name="Trazado 108348" d="M830.709,9454.794c-27.461,0-60.814-2.584-79.245-13.5a.576.576,0,0,1-.033-.97,34.089,34.089,0,0,0,12.824-28.143c-.621-18.982-.94-96.156-.944-96.933l-1.216-80.548,5.776-132.823-1.367-84.927c-.014-.351-1.315-36.8,11.274-60.327,10.165-18.988,11.062-22.535,11.107-23.163a.577.577,0,0,1,.33-.8l8.068-2.763a.424.424,0,0,1,.138-.029c.133-.013,13.292-.972,22.4,9.616l11.031,11.229,6.543,3.965h0c.009,0,2.98,1.366,12.475,6.283l15.377,6.79c.693.28,17.434,7.065,22.353,11.246,7.741,6.575,17.757,34.723,18.18,35.917a.574.574,0,0,1-.825.691c-.2-.112-20.077-11.331-25.859-9.265a1.821,1.821,0,0,0-1.18,1.067c-2.41,6.2,5.067,26.233,5.142,26.437.084.349,6.13,27.54,3.94,45.369-2.176,17.719-5.963,64.742-6,65.215l-6.4,100.365,4.091,111.333c.007.5.609,49.021-1.261,66.165a250.376,250.376,0,0,0-1.57,29.815.575.575,0,0,1-.514.588C874.922,9452.746,855.148,9454.794,830.709,9454.794Zm-77.921-14.06c33.575,19.071,114.6,11.6,121.908,10.877a257.485,257.485,0,0,1,1.584-29.437c1.863-17.073,1.261-65.524,1.255-66.011l-4.091-111.378,6.4-100.433c.039-.481,3.827-47.528,6.007-65.271,2.166-17.634-3.836-44.632-3.9-44.9-.293-.763-7.682-20.574-5.115-27.179a2.945,2.945,0,0,1,1.866-1.737c5.414-1.928,20.772,6.051,25.462,8.6-2.189-5.937-10.785-28.438-17.318-33.986-4.778-4.06-21.884-10.992-22.055-11.062L849.368,8962c-9.551-4.946-12.485-6.291-12.514-6.3l-6.664-4.035a.567.567,0,0,1-.112-.088l-11.107-11.307c-8.409-9.776-20.382-9.312-21.389-9.255l-7.575,2.6c-.191,1.444-1.912,6.182-11.216,23.56-12.44,23.242-11.153,59.389-11.139,59.753l1.368,84.974-5.778,132.82,1.217,80.523c0,.784.322,77.938.944,96.906A35.467,35.467,0,0,1,752.787,9440.734Zm36.6-506.947h0Zm-.159-.029a.561.561,0,0,0,.158.029A.565.565,0,0,1,789.225,8933.758Z" transform="translate(-751.182 -8929.848)" fill="#4d4d4d"/>
        </g>
        <path id="Trazado_108349" data-name="Trazado 108349" d="M875.086,9000.268a.564.564,0,0,1-.229-.049c-19.165-8.346-46.15-7.2-46.419-7.19a.55.55,0,0,1-.285-.061c-13.01-6.555-31.9-4.474-32.086-4.451a.617.617,0,0,1-.285-.04c-8.9-3.686-28.605-2.691-28.8-2.687a.563.563,0,0,1-.605-.542.578.578,0,0,1,.544-.606c.815-.046,19.974-1,29.169,2.715,1.823-.184,19.762-1.8,32.452,4.517,2.227-.077,28.125-.834,46.78,7.292a.576.576,0,0,1-.231,1.1Z" transform="translate(-720.819 -8864.131)" fill="#4d4d4d"/>
        <path id="Trazado_108350" data-name="Trazado 108350" d="M814.091,9195.128a27.239,27.239,0,0,1-18.9-7.5,33.647,33.647,0,0,1-33.733-6.705.575.575,0,0,1,.82-.807,32.475,32.475,0,0,0,32.881,6.3.573.573,0,0,1,.622.163c.548.619,13.669,15.044,36.121,2.083a.6.6,0,0,1,.4-.068,37.356,37.356,0,0,0,22.765-4.185.576.576,0,0,1,.269-.069c.12,0,12.034-.2,17.343-5.486a.576.576,0,1,1,.812.815c-5.378,5.357-16.526,5.785-18,5.819a38.078,38.078,0,0,1-23.2,4.275C825.375,9193.734,819.261,9195.128,814.091,9195.128Z" transform="translate(-721.584 -8834.866)" fill="#4d4d4d"/>
        <path id="Trazado_108351" data-name="Trazado 108351" d="M843.382,9439.406a.576.576,0,0,1-.575-.57l-1.772-188.8,9.354-234.174a.575.575,0,1,1,1.15.045l-9.353,234.146,1.772,188.771a.575.575,0,0,1-.57.581Z" transform="translate(-709.568 -8859.488)" fill="#4d4d4d"/>
        <g id="Grupo_56101" data-name="Grupo 56101" transform="translate(55.744 50.137)">
          <path id="Trazado_108352" data-name="Trazado 108352" d="M785.475,8930.988l-5.346-4.009-.048-2.645s.008-1.131-.969-.812l-3.365,3.3s-1.4,1.529.407,1.807l3.086-.146,5.2,3.535,1.564.337Z" transform="translate(-775.229 -8923.467)" fill="#666"/>
        </g>
        <g id="Grupo_56102" data-name="Grupo 56102" transform="translate(61.133 46.364)">
          <path id="Trazado_108353" data-name="Trazado 108353" d="M785.828,8930l-1.451-6.522,1.685-2.041s.742-.853-.208-1.246l-4.7.317s-2.061.248-.868,1.637l2.438,1.9,1.651,6.068.969,1.272Z" transform="translate(-779.912 -8920.187)" fill="#666"/>
        </g>
        <g id="Grupo_56103" data-name="Grupo 56103" transform="translate(34.492 112.796)">
          <path id="Trazado_108354" data-name="Trazado 108354" d="M767.387,8984.349l-5.934-3.071-.483-2.6s-.18-1.115-1.09-.639l-2.774,3.81s-1.131,1.739.7,1.716l3.019-.653,5.714,2.629,1.6.071Z" transform="translate(-756.76 -8977.919)" fill="#666"/>
        </g>
        <g id="Grupo_56104" data-name="Grupo 56104" transform="translate(68.527 113.65)">
          <path id="Trazado_108355" data-name="Trazado 108355" d="M793.3,8988.395l-2.263-6.287,1.414-2.236s.628-.941-.364-1.211l-4.625.908s-2.013.506-.654,1.734l2.658,1.574,2.4,5.813,1.122,1.141Z" transform="translate(-786.337 -8978.66)" fill="#666"/>
        </g>
        <g id="Grupo_56105" data-name="Grupo 56105" transform="translate(103.334 117.891)">
          <path id="Trazado_108356" data-name="Trazado 108356" d="M821.756,8992.2l-.9-6.62,1.85-1.892s.811-.788-.1-1.259l-4.712-.081s-2.074.074-1,1.559l2.27,2.1,1.133,6.188.858,1.35Z" transform="translate(-816.586 -8982.347)" fill="#666"/>
        </g>
        <g id="Grupo_56106" data-name="Grupo 56106" transform="translate(69.287 340.873)">
          <path id="Trazado_108357" data-name="Trazado 108357" d="M792.168,9185.979l-.9-6.621,1.851-1.891s.811-.788-.1-1.259l-4.712-.081s-2.074.074-1,1.559l2.27,2.095,1.133,6.188.857,1.35Z" transform="translate(-786.998 -9176.128)" fill="#666"/>
        </g>
        <g id="Grupo_56107" data-name="Grupo 56107" transform="translate(105.558 344.128)">
          <path id="Trazado_108358" data-name="Trazado 108358" d="M825.245,9188.721l-2.076-6.352,1.48-2.193s.655-.921-.328-1.22l-4.65.771s-2.026.446-.7,1.714l2.611,1.651,2.23,5.882,1.087,1.172Z" transform="translate(-818.519 -9178.956)" fill="#666"/>
        </g>
        <g id="Grupo_56108" data-name="Grupo 56108" transform="translate(125.44 315.246)">
          <path id="Trazado_108359" data-name="Trazado 108359" d="M846.541,9159.163l-6.325-2.15-.867-2.5s-.344-1.077-1.174-.471L836,9158.224s-.859,1.888.947,1.592l2.888-1.1,6.043,1.745,1.59-.165Z" transform="translate(-835.797 -9153.855)" fill="#666"/>
        </g>
        <g id="Grupo_56109" data-name="Grupo 56109" transform="translate(130.883 222.099)">
          <path id="Trazado_108360" data-name="Trazado 108360" d="M851.27,9078.214l-6.325-2.15-.867-2.5s-.344-1.077-1.172-.47l-2.174,4.182s-.86,1.888.947,1.591l2.888-1.1,6.042,1.748,1.591-.167Z" transform="translate(-840.527 -9072.907)" fill="#666"/>
        </g>
        <g id="Grupo_56110" data-name="Grupo 56110" transform="translate(124.361 356.419)">
          <path id="Trazado_108361" data-name="Trazado 108361" d="M845.6,9194.945l-6.325-2.152-.866-2.5s-.343-1.078-1.173-.471L835.064,9194s-.859,1.89.947,1.593l2.888-1.1,6.042,1.746,1.591-.165Z" transform="translate(-834.859 -9189.638)" fill="#666"/>
        </g>
        <g id="Grupo_56111" data-name="Grupo 56111" transform="translate(124.112 406.607)">
          <path id="Trazado_108362" data-name="Trazado 108362" d="M845.386,9238.561l-6.325-2.151-.865-2.5s-.344-1.079-1.174-.471l-2.174,4.182s-.86,1.89.947,1.591l2.888-1.1,6.042,1.746,1.591-.166Z" transform="translate(-834.643 -9233.253)" fill="#666"/>
        </g>
        <g id="Grupo_56112" data-name="Grupo 56112" transform="translate(125.44 467.01)">
          <path id="Trazado_108363" data-name="Trazado 108363" d="M846.541,9291.054l-6.325-2.152-.867-2.5s-.344-1.078-1.174-.47L836,9290.112s-.859,1.889.947,1.592l2.888-1.1,6.043,1.747,1.59-.166Z" transform="translate(-835.797 -9285.745)" fill="#666"/>
        </g>
      </g>
      <g id="Grupo_56114" data-name="Grupo 56114" transform="translate(65.719 47.573)" opacity="0.74">
        <path id="Trazado_108364" data-name="Trazado 108364" d="M784.4,8934.434l2.635-12.694,11.369.391-1.057,8.021.925.332,4.283-7.6,8.324,2.672-1.59,8,1.29,1.04,4-7.74,7.1,4.3-2.3,8.843,4.11-5.5,3.027,5.665-.721,11.726s-17.141-16.323-23.245-18.707S786.2,8934.133,784.4,8934.434Z" transform="translate(-783.822 -8921.162)" fill="#ccc"/>
        <path id="Trazado_108365" data-name="Trazado 108365" d="M825.872,8952.527a.577.577,0,0,1-.4-.158c-.17-.162-17.128-16.271-23.058-18.59-4.925-1.922-12.884.078-16.282.93-.72.182-1.262.316-1.568.367a.565.565,0,0,1-.509-.168.584.584,0,0,1-.15-.518l2.635-12.693a.543.543,0,0,1,.583-.457l11.369.391a.574.574,0,0,1,.551.648l-1,7.561.031.012,4.046-7.18a.578.578,0,0,1,.677-.268l8.324,2.672a.578.578,0,0,1,.388.662l-1.522,7.654.471.377,3.679-7.113a.58.58,0,0,1,.355-.289.56.56,0,0,1,.453.061l7.1,4.3a.573.573,0,0,1,.259.637l-1.562,6,2.353-3.148a.545.545,0,0,1,.5-.23.576.576,0,0,1,.464.3l3.027,5.664a.569.569,0,0,1,.067.307l-.721,11.727a.576.576,0,0,1-.364.5A.6.6,0,0,1,825.872,8952.527Zm-28.606-20.7a15.49,15.49,0,0,1,5.572.885c5.4,2.109,18.893,14.564,22.536,17.98l.635-10.338-2.523-4.721-3.568,4.777a.576.576,0,0,1-1.017-.49l2.193-8.426-6.211-3.762-3.72,7.193a.572.572,0,0,1-.392.3.59.59,0,0,1-.479-.113L809,8934.07a.578.578,0,0,1-.2-.561l1.491-7.494-7.389-2.371-4.054,7.2a.58.58,0,0,1-.7.26l-.924-.332a.573.573,0,0,1-.376-.615l.975-7.395-10.25-.352-2.355,11.348c.192-.049.405-.1.639-.162A49.007,49.007,0,0,1,797.266,8931.824Z" transform="translate(-783.897 -8921.238)" fill="#4d4d4d"/>
      </g>
    </g>
  </g>
</svg>
