<svg xmlns="http://www.w3.org/2000/svg" width="547.586" height="397.565" viewBox="0 0 547.586 397.565">
  <g id="Grupo_56315" data-name="Grupo 56315" transform="translate(-84.268 -7504.696)">
    <rect id="Rectángulo_10238" data-name="Rectángulo 10238" width="547.586" height="397.565" rx="25.043" transform="translate(84.268 7504.696)" fill="#fff"/>
    <g id="Grupo_56314" data-name="Grupo 56314">
      <g id="Grupo_56277" data-name="Grupo 56277">
        <path id="Trazado_108861" data-name="Trazado 108861" d="M520.69,7824.235s4.543,5.413,22.456,5.065,18.757-1.986,21.814-5.993l-.77-4.442-16.87-1.826,34.609-216.7,1.826-6.522a7.025,7.025,0,0,0-1.261-6.3c-2.391-2.739-4.652-3.478-5.7-5.174s-.957-3.608-2.957-4.869a13.837,13.837,0,0,0-5.391-1.957c-1.7-.3-3.174-3-3.174-3a7.994,7.994,0,0,0-4.478-2.435,22.087,22.087,0,0,1-6.131-2.347s-3.087-3.7-6.261-4.174-4.652.347-6.043,0-2.218-1.913-4.522-1.392-2.913,1.522-2.913,1.522a4.024,4.024,0,0,1-2.956.609c-1.522-.392-2.609-1-4.044-.609s-3.261,1.478-3.7,2.739S521.19,7568,521.19,7568s-2.913-.478-4.565.3-2.392,3.652-2.392,3.652a1.481,1.481,0,0,1-1.391,1.174c-1.174.043-3.739.217-4.435,1s-2.13,1.913-2.217,3.695-2.957,2.522-2.957,2.522-4.515,1.913-4.518,4.739-.916,2.826-.916,2.826a6.211,6.211,0,0,0-3.479,5.7s.522,1.261,0,1.783a6.541,6.541,0,0,0-1,1.761l16.609,37.108,7.162,103.044,9.795,77.3-4.348,4.7Z" fill="#ccc"/>
        <path id="Trazado_108862" data-name="Trazado 108862" d="M541.5,7829.816c-16.587,0-21.011-5.039-21.2-5.26a.5.5,0,0,1-.086-.5l1.849-4.934a.5.5,0,0,1,.1-.164l4.189-4.525-9.764-77.073-7.16-102.982-16.572-37.029a.5.5,0,0,1-.01-.383,6.741,6.741,0,0,1,1.113-1.935c.177-.177.056-.84-.108-1.237a.487.487,0,0,1-.038-.192,6.66,6.66,0,0,1,3.782-6.156.509.509,0,0,1,.19-.04c-.048-.009.42-.338.422-2.327,0-3.12,4.626-5.114,4.823-5.2.769-.206,2.6-.932,2.652-2.087a5.645,5.645,0,0,1,1.957-3.6c.143-.146.275-.281.387-.407.6-.681,2.216-1.073,4.79-1.168a.96.96,0,0,0,.918-.769c.04-.156.826-3.136,2.669-4.009a9.865,9.865,0,0,1,4.786-.358c.895-.117,2.329-.541,2.564-1.223.489-1.419,2.4-2.613,4.037-3.058a5.5,5.5,0,0,1,3.287.309c.32.1.654.206,1.012.3a3.466,3.466,0,0,0,2.481-.493,5.334,5.334,0,0,1,3.154-1.64,4.254,4.254,0,0,1,3.588.8,4.159,4.159,0,0,0,1.165.589,5.2,5.2,0,0,0,1.828-.021,14.3,14.3,0,0,1,4.169.012c3.11.469,6.038,3.731,6.509,4.276a21.317,21.317,0,0,0,5.885,2.246,8.442,8.442,0,0,1,4.782,2.606.543.543,0,0,1,.058.083c.38.692,1.629,2.533,2.823,2.748a14.392,14.392,0,0,1,5.57,2.026,5.8,5.8,0,0,1,2.356,3.337,9.279,9.279,0,0,0,.759,1.694,8.077,8.077,0,0,0,2.182,2.031,20.578,20.578,0,0,1,3.465,3.075,7.473,7.473,0,0,1,1.361,6.785l-1.822,6.5L547.9,7816.6l16.346,1.769a.5.5,0,0,1,.439.412l.77,4.442a.493.493,0,0,1-.1.387l-.2.264c-3,3.948-4.245,5.582-22,5.927C542.593,7829.81,542.04,7829.816,541.5,7829.816Zm-20.232-5.71c1.049.949,6.462,5,21.866,4.694,17.272-.335,18.429-1.857,21.224-5.533l.069-.089-.668-3.856-16.495-1.786a.506.506,0,0,1-.344-.193.5.5,0,0,1-.1-.383l34.608-216.695,1.839-6.579a6.583,6.583,0,0,0-1.156-5.839,19.3,19.3,0,0,0-3.309-2.931,8.854,8.854,0,0,1-2.436-2.311,10.2,10.2,0,0,1-.846-1.87,4.861,4.861,0,0,0-1.952-2.839,13.317,13.317,0,0,0-5.212-1.886c-1.8-.324-3.233-2.734-3.5-3.2a7.569,7.569,0,0,0-4.146-2.232,22.354,22.354,0,0,1-6.3-2.407.547.547,0,0,1-.136-.114c-.029-.036-3.005-3.556-5.951-4a13.432,13.432,0,0,0-3.905-.007,6.031,6.031,0,0,1-2.185,0,4.962,4.962,0,0,1-1.461-.717,3.3,3.3,0,0,0-2.83-.673,4.287,4.287,0,0,0-2.6,1.3.569.569,0,0,1-.136.141,4.516,4.516,0,0,1-3.367.683c-.377-.1-.727-.206-1.062-.311a4.564,4.564,0,0,0-2.725-.3c-1.368.372-3,1.379-3.355,2.42-.522,1.514-3.159,1.863-3.459,1.9a.486.486,0,0,1-.138,0c-.028,0-2.78-.442-4.27.264-1.182.559-1.932,2.59-2.121,3.325a1.961,1.961,0,0,1-1.857,1.549c-2.545.093-3.776.491-4.08.832-.121.137-.264.283-.417.44a4.691,4.691,0,0,0-1.675,2.948c-.1,2.127-3.2,2.948-3.331,2.982h0c.015,0-4.14,1.8-4.143,4.255,0,2.741-.857,3.236-1.28,3.312a5.675,5.675,0,0,0-3.114,5.117c.152.4.508,1.573-.147,2.228a5.235,5.235,0,0,0-.809,1.4l16.521,36.914a.509.509,0,0,1,.042.17l7.163,103.042,9.791,77.277a.5.5,0,0,1-.13.4l-4.281,4.623Zm-.581.128h0Z" fill="#4d4d4d"/>
      </g>
      <g id="Grupo_56278" data-name="Grupo 56278">
        <path id="Trazado_108863" data-name="Trazado 108863" d="M543.233,7821.474s4.522-4,12.7-2.783,9.217,5.044,9.217,5.044l5.914-74.435,9.043-110.957,3.652-42.956-20.261,22.956s-9.826,10.435-17.3,9.565l-3.391-.434s4.5,1.761,4.5,4.5-.935,106.543-.935,106.543l-.7,79.478Z" fill="#999"/>
        <path id="Trazado_108864" data-name="Trazado 108864" d="M565.146,7824.234a.5.5,0,0,1-.482-.368c-.009-.031-1.126-3.536-8.809-4.681-7.826-1.166-12.247,2.625-12.291,2.664a.5.5,0,0,1-.74-.663l2.346-3.35.694-79.322c.009-1.04.935-103.834.935-106.54,0-1.967-3.019-3.58-4.182-4.035a.5.5,0,0,1-.3-.59.49.49,0,0,1,.548-.372l3.391.435c7.136.84,16.781-9.309,16.878-9.411l20.249-22.945a.5.5,0,0,1,.873.373l-3.652,42.957-9.043,110.955-5.913,74.433a.5.5,0,0,1-.452.458Zm-12.292-6.276a21.291,21.291,0,0,1,3.149.239c5.24.779,7.67,2.624,8.768,3.943l5.79-72.88L579.6,7638.3l3.525-41.451-19.26,21.823c-.419.445-10.094,10.6-17.737,9.73l-.768-.1c1.213.853,2.435,2.1,2.435,3.667,0,2.709-.926,105.51-.935,106.548l-.7,79.477a.5.5,0,0,1-.09.283l-1,1.428A17.231,17.231,0,0,1,552.854,7817.958Z" fill="#4d4d4d"/>
      </g>
      <g id="Grupo_56279" data-name="Grupo 56279">
        <path id="Trazado_108865" data-name="Trazado 108865" d="M493.038,7597.148l7.165,6.978,5.487,5.087,6.522,6.391,6.065,5.8a30.78,30.78,0,0,0,11.152,5.218c6.848,1.695,8.609,2.348,8.609,2.348s4.5.391,4.761,1.434a18.742,18.742,0,0,1,.782,6.131c-.065,3.456-.782,99.2-.782,99.2l-.435,85.043s-4.522-2.174-8.609-2-11.826,2.87-12.869,4.957l-5.913-35.653-12.435-88Z" fill="#999"/>
        <path id="Trazado_108866" data-name="Trazado 108866" d="M520.886,7824.234a.486.486,0,0,1-.075-.006.5.5,0,0,1-.419-.412l-5.913-35.652-12.436-88.012-9.5-102.959a.5.5,0,0,1,.847-.4l7.165,6.978,5.478,5.08,6.532,6.4,6.061,5.8a30.656,30.656,0,0,0,10.926,5.093c6.174,1.529,8.219,2.209,8.6,2.341,1.822.162,4.84.612,5.138,1.806l.112.422a18.634,18.634,0,0,1,.686,5.84c-.065,3.413-.775,98.231-.782,99.189l-.435,85.043a.5.5,0,0,1-.716.448c-.045-.021-4.452-2.133-8.372-1.951-4.244.18-11.571,2.936-12.443,4.68A.5.5,0,0,1,520.886,7824.234ZM493.66,7598.452l9.376,101.584,12.432,87.976,5.734,34.579c2.419-2.122,9.031-4.163,12.532-4.313a20.774,20.774,0,0,1,8.134,1.734l.431-84.281c.007-.958.718-95.782.782-99.2a17.743,17.743,0,0,0-.651-5.559l-.116-.441c-.192-.367-2.253-.877-4.32-1.057a.486.486,0,0,1-.129-.03c-.018-.006-1.844-.669-8.556-2.331a31.018,31.018,0,0,1-11.349-5.316l-6.094-5.829-6.526-6.4-5.477-5.078Z" fill="#4d4d4d"/>
      </g>
      <path id="Trazado_108867" data-name="Trazado 108867" d="M537.306,7815.513l-1-.01.051-5,1,.01Zm.1-10-1-.01.05-5,1,.01Zm.1-10-1-.01.05-5,1,.01Zm.1-10-1-.01.05-5,1,.01Zm.1-10-1-.01.051-5,1,.009Zm.1-10-1-.009.051-5,1,.009Zm.1-10-1-.009.05-5,1,.009Zm.1-10-1-.009.05-5,1,.009Zm.1-10-1-.009.05-5,1,.009Zm.1-10-1-.009.05-5,1,.009Zm.1-10-1-.009.051-5,1,.009Zm.1-10-1-.009.051-5,1,.009Zm.1-10-1-.009.05-5,1,.009Zm.1-10-1-.009.05-5,1,.009Zm.1-10-1-.009.05-5,1,.009Zm.1-10-1-.009.051-5,1,.009Zm.1-10-1-.009.051-5,1,.009Zm.1-10-1-.009.051-5,1,.009Zm.1-10-1-.009.05-5,1,.009Z" fill="#666"/>
      <path id="Trazado_108868" data-name="Trazado 108868" d="M536.557,7628.519c-1.976-1.088-4.319-3.917-4.259-11.21v-.183c0-1.327,1.928-7.093,6.219-8.476a24.756,24.756,0,0,0,7.679-4.759l.682.731a25.268,25.268,0,0,1-8.054,4.979c-3.685,1.189-5.526,6.428-5.526,7.525v.191c-.056,6.8,2,9.369,3.742,10.327Z" fill="#666"/>
      <path id="Trazado_108869" data-name="Trazado 108869" d="M545.16,7627.917a20.177,20.177,0,0,1-2.061-3.982,7.721,7.721,0,0,0-.971-1.962c-.451-.759-1.012-1.7-1.69-3.058a9.32,9.32,0,0,0-1.355-2.01c-.928-1.11-1.451-1.874-1.393-4.659.015-.722.007-1.384,0-2-.038-3.011-.064-5,2.724-7.09a27.481,27.481,0,0,1,2.882-1.829c2.076-1.195,3.717-2.14,4.327-4.318l.963.269c-.72,2.572-2.7,3.711-4.791,4.916a26.516,26.516,0,0,0-2.781,1.763c-2.381,1.785-2.361,3.38-2.324,6.275.009.624.017,1.3,0,2.031-.053,2.545.4,3.091,1.16,4a10.333,10.333,0,0,1,1.483,2.2c.661,1.323,1.212,2.249,1.655,2.994a8.291,8.291,0,0,1,1.085,2.245,19.518,19.518,0,0,0,1.929,3.671Z" fill="#666"/>
      <path id="Trazado_108870" data-name="Trazado 108870" d="M479.037,7627.665l-1-.033c0-.067.3-6.593,8.072-8.041a69.89,69.89,0,0,1,7.638-.92c3.337-.266,5.973-.476,8-1.79,3.445-2.24,7.8-4.884,7.839-4.911l.52.855c-.044.026-4.381,2.663-7.814,4.894-2.235,1.453-4.983,1.671-8.461,1.949a69.2,69.2,0,0,0-7.534.905C479.332,7621.871,479.046,7627.429,479.037,7627.665Z" fill="#666"/>
      <path id="Trazado_108871" data-name="Trazado 108871" d="M474.856,7627.739l-.984-.183c.019-.1,1.944-9.835,12.233-11.877,9.94-1.974,13.834-3,15.29-5.908a17.718,17.718,0,0,1,2.529-4.13l.707.708a17.723,17.723,0,0,0-2.342,3.87c-1.656,3.313-5.7,4.4-15.99,6.44A14.5,14.5,0,0,0,474.856,7627.739Z" fill="#666"/>
      <path id="Trazado_108872" data-name="Trazado 108872" d="M600.005,7617.213a14.042,14.042,0,0,0-11.987-3.421c-.93.169-1.784.329-2.571.476-5.727,1.074-8.1,1.518-10.187-.238a35.961,35.961,0,0,1-3.532-3.355l.749-.662a36.112,36.112,0,0,0,3.426,3.252c1.729,1.451,3.806,1.06,9.36.021.789-.148,1.645-.309,2.577-.479a14.8,14.8,0,0,1,12.884,3.71Z" fill="#666"/>
      <path id="Trazado_108873" data-name="Trazado 108873" d="M581.944,7613.93c-2.86,0-7.327-.355-8.742-4.008l.933-.362c1.352,3.493,6.413,3.4,8.843,3.358.3-.007.569-.009.783-.008h.025c1.372,0,3.8-1.262,5.57-2.185.646-.335,1.224-.636,1.672-.837,2.155-.971,5.812-1.1,9.613,1.43,3.676,2.45,8.338,1.334,8.385,1.322l.241.971c-.207.053-5.13,1.241-9.18-1.461-3.463-2.308-6.738-2.213-8.649-1.35-.433.2-.994.487-1.621.813-1.968,1.025-4.414,2.3-6.034,2.3h-.154c-.182,0-.4,0-.633.009C582.682,7613.923,582.327,7613.93,581.944,7613.93Z" fill="#666"/>
      <path id="Trazado_108874" data-name="Trazado 108874" d="M538.329,7848.75c-.176-.165-4.306-4.172-2.633-15,1.65-10.685,4.233-14.567,4.342-14.727l.827.562c-.026.038-2.572,3.9-4.181,14.317-1.584,10.256,2.291,14.086,2.33,14.124Z" fill="#666"/>
      <path id="Trazado_108875" data-name="Trazado 108875" d="M531.633,7848.556c-.138-.378-3.337-9.325-1.137-16.191,2.154-6.72,4.811-13.611,4.838-13.681l.932.362c-.026.068-2.673,6.933-4.817,13.624-2.1,6.537,1.091,15.455,1.124,15.544Z" fill="#666"/>
      <path id="Trazado_108876" data-name="Trazado 108876" d="M538.862,7720.5l-5.028-.968-29.875-6.3,37.225-3.372.378-.482,1.795,5.863Zm-28.18-6.87,23.35,4.922,4.448.856,3.76-4.4-1.074-3.506-5.539,7.061-.813-.581,4.525-6.952Z" fill="#666"/>
      <path id="Trazado_108877" data-name="Trazado 108877" d="M497.476,7596.966l-.836-.549,5.044-7.7,5.131-5.8,6.172-5.52,5.727-4.006,9.4-3.681,6.131-.913,9.415-.006,7.241,2.24,10.187,4.114,7.826,5.608,7.275,5.444,5.479,6.913-.784.621-5.437-6.862-7.122-5.31-7.77-5.567-9.988-4.021-7.058-2.182h-9.19l-6,.9-9.185,3.609-5.528,3.879-6.085,5.442-5.046,5.7Z" fill="#666"/>
      <g id="Grupo_56293" data-name="Grupo 56293">
        <g id="Grupo_56283" data-name="Grupo 56283">
          <g id="Grupo_56280" data-name="Grupo 56280">
            <path id="Trazado_108878" data-name="Trazado 108878" d="M190.852,7538.024c0-5.289-3.205-9.577-7.159-9.577s-7.16,4.288-7.16,9.577c0,4.137,1.964,7.65,4.71,8.99V7561.6h5.409v-14.862C189.128,7545.23,190.852,7541.9,190.852,7538.024Z" fill="#fff"/>
            <path id="Trazado_108879" data-name="Trazado 108879" d="M187.652,7562.6h-7.41v-14.994c-2.839-1.716-4.709-5.471-4.709-9.582,0-5.832,3.661-10.577,8.16-10.577s8.159,4.745,8.159,10.577c0,3.847-1.632,7.405-4.2,9.25Zm-5.41-2h3.41v-14.423l.48-.293c2.259-1.376,3.72-4.461,3.72-7.86,0-4.729-2.763-8.577-6.159-8.577s-6.16,3.848-6.16,8.577c0,3.628,1.667,6.88,4.148,8.091l.561.274Z" fill="#999"/>
          </g>
          <g id="Grupo_56281" data-name="Grupo 56281">
            <rect id="Rectángulo_10239" data-name="Rectángulo 10239" width="16.79" height="2.8" rx="1.31" transform="translate(175.585 7540.007)" fill="#fff"/>
            <path id="Trazado_108880" data-name="Trazado 108880" d="M191.065,7543.807H176.9a2.312,2.312,0,0,1-2.31-2.309v-.181a2.312,2.312,0,0,1,2.31-2.309h14.17a2.312,2.312,0,0,1,2.31,2.309v.181A2.312,2.312,0,0,1,191.065,7543.807Zm-14.17-2.8a.31.31,0,0,0-.31.309v.181a.31.31,0,0,0,.31.309h14.17a.31.31,0,0,0,.31-.309v-.181a.31.31,0,0,0-.31-.309Z" fill="#999"/>
          </g>
          <g id="Grupo_56282" data-name="Grupo 56282">
            <rect id="Rectángulo_10240" data-name="Rectángulo 10240" width="16.79" height="2.8" rx="1.31" transform="translate(175.585 7534.662)" fill="#fff"/>
            <path id="Trazado_108881" data-name="Trazado 108881" d="M191.065,7538.462H176.9a2.312,2.312,0,0,1-2.31-2.31v-.18a2.312,2.312,0,0,1,2.31-2.31h14.17a2.312,2.312,0,0,1,2.31,2.31v.18A2.312,2.312,0,0,1,191.065,7538.462Zm-14.17-2.8a.31.31,0,0,0-.31.31v.18a.31.31,0,0,0,.31.31h14.17a.31.31,0,0,0,.31-.31v-.18a.31.31,0,0,0-.31-.31Z" fill="#999"/>
          </g>
        </g>
        <g id="Grupo_56284" data-name="Grupo 56284">
          <path id="Trazado_108882" data-name="Trazado 108882" d="M207.437,7760s-3.087-9.261-1.235-17.7c1.071-4.877,5.875-21.174,5.875-21.174h0l3.948-18.743s7.809-21.977,7.67-30.762-8.413-18.872-8.413-18.872l-14.688-27.889s-9.808-15.71-9.529-25.262,7.878-26.564,7.878-26.564h.837l2.371-6.485-34.722-13.665-3.347,6.554,1.959,1.278s-11.371,25.286-28.1,45.738-9.855,68.606-9.855,68.606l11.44,79.383.411,2.058v7.2l-16.67,36.427s-6.791,15.024-7.615,38.486-1.186,30.459-1.186,30.459l102.976,1.852,1.5-55.233s1.261-27.5-3.061-37.379C210.782,7766.676,207.437,7760,207.437,7760Z" fill="#fff"/>
          <path id="Trazado_108883" data-name="Trazado 108883" d="M218.41,7871.946l-105-1.888.054-1.033c0-.07.373-7.265,1.186-30.442.821-23.389,7.634-38.71,7.7-38.862l16.581-36.234V7756.6l-.392-1.96L127.093,7675.2c-.284-1.985-6.748-48.827,10.069-69.382,14.828-18.123,25.551-40.342,27.608-44.74l-1.987-1.3,4.168-8.164,36.474,14.355-2.946,8.058H199.6c-1.325,3.071-7.293,17.337-7.534,25.593-.267,9.144,9.282,24.549,9.378,24.7L216.12,7652.2c.848,1.051,8.436,10.7,8.575,19.409s-7.153,29.49-7.705,31.049l-3.935,18.678c-.067.239-4.825,16.4-5.876,21.182-1.7,7.721.927,16.291,1.187,17.106.369.742,3.652,7.386,8.425,18.3,4.366,9.976,3.2,36.692,3.144,37.825Zm-102.9-3.85,100.955,1.815,1.472-54.242c.013-.291,1.2-27.4-2.978-36.951-5.022-11.479-8.383-18.2-8.416-18.27l-.054-.132c-.13-.388-3.153-9.621-1.263-18.229,1.065-4.856,5.7-20.576,5.892-21.243l3.965-18.8c.077-.218,7.747-21.907,7.612-30.411-.132-8.329-8.106-18.155-8.187-18.253l-.111-.168-14.688-27.89c-.371-.588-9.928-16.015-9.644-25.758.281-9.638,7.652-26.24,7.966-26.942l.264-.592h.786l1.8-4.911-32.969-12.977-2.525,4.946,1.922,1.254-.351.78c-.114.254-11.618,25.641-28.243,45.961-16.26,19.875-9.706,67.355-9.638,67.832l11.44,79.382.421,2.2v7.421l-16.761,36.626c-.065.144-6.719,15.136-7.524,38.1C116,7857.065,115.636,7865.4,115.51,7868.1Z" fill="#999"/>
        </g>
        <path id="Trazado_108884" data-name="Trazado 108884" d="M121.845,7867.945h-2v-32.261a105.077,105.077,0,0,1,6.872-37.127l16-33.534.9-8.331-5.541-30.648-6.981-57.509c-.243-1.278-6.06-33.041,6.3-51.163,11.614-17.025,19.286-19.45,20.45-19.731,1.495-.655,15.565-6.057,30.007,14.988,13.421,19.556,16,25.011,16.374,25.884a152.722,152.722,0,0,0,14.857,17.9l-1.435,1.392a153.859,153.859,0,0,1-15.133-18.253l-.11-.21c-.07-.181-1.945-4.808-16.2-25.584-13.936-20.308-27.063-14.516-27.615-14.259l-.252.079c-.063.014-7.517,1.665-19.288,18.919-11.893,17.433-6.039,49.409-5.978,49.73l6.982,57.517,5.584,30.874-.964,8.956-16.126,33.8a103.056,103.056,0,0,0-6.694,36.3Z" fill="#999"/>
        <path id="Trazado_108885" data-name="Trazado 108885" d="M210.414,7870.95l-2-.043.956-45.431c.006-.239.615-23.579.463-35-.144-10.83-6.052-22.7-6.5-23.582-.375-.558-2.78-4.383-3.371-11.386-.613-7.272,1.856-28.441,1.962-29.338.152-.74,3.443-16.058,7.923-24.264,4.7-8.6,10.834-20.38,12.016-23.27l1.851.757c-1.357,3.319-8.023,15.985-12.111,23.472-4.34,7.948-7.675,23.474-7.708,23.629-.01.126-2.536,21.774-1.94,28.846.578,6.85,3.033,10.432,3.057,10.468l.07.115c.269.518,6.594,12.845,6.75,24.525.153,11.464-.457,34.843-.464,35.078Z" fill="#999"/>
        <path id="Trazado_108886" data-name="Trazado 108886" d="M206.522,7638.261c-.064-.143-6.53-14.433-13.533-26.518-6.864-11.842-40.05-26.072-40.384-26.215l.783-1.84c1.391.592,34.135,14.637,41.331,27.053,7.056,12.174,13.562,26.554,13.627,26.7Z" fill="#999"/>
        <g id="Grupo_56285" data-name="Grupo 56285">
          <path id="Trazado_108887" data-name="Trazado 108887" d="M165.764,7560.774s21.684,8.96,33.179,12.261" fill="#fff"/>
          <path id="Trazado_108888" data-name="Trazado 108888" d="M198.668,7574c-11.418-3.279-33.069-12.208-33.286-12.3l.764-1.848c.216.089,21.763,8.975,33.074,12.224Z" fill="#999"/>
        </g>
        <rect id="Rectángulo_10241" data-name="Rectángulo 10241" width="86.322" height="2" transform="translate(163.523 7869.959) rotate(-88.993)" fill="#999"/>
        <rect id="Rectángulo_10242" data-name="Rectángulo 10242" width="12.469" height="1.999" transform="translate(162.721 7603.186) rotate(-64.048)" fill="#999"/>
        <path id="Trazado_108889" data-name="Trazado 108889" d="M159.73,7766.968a149.263,149.263,0,0,1-20.362-1.375l-.846-.132v-8.82l1.09.1c.226.022,22.767,2.016,36.667-.6,6.5-1.225,29.74-5.558,29.74-5.558l1.072-.2.8,8.064-.772.245c-.2.062-19.723,6.225-35.853,7.76C167.313,7766.826,163.4,7766.968,159.73,7766.968Zm-19.208-3.233a145.28,145.28,0,0,0,30.551.724c14.107-1.343,30.9-6.289,34.664-7.437l-.423-4.277c-4.636.864-23,4.29-28.665,5.356-12.569,2.369-31.377,1.1-36.127.722Z" fill="#999"/>
        <path id="Trazado_108890" data-name="Trazado 108890" d="M143.073,7764.888l-1.935-2.28,1.816-1.963-1.727-2.215.623-.485,2.139,2.743-1.8,1.942,1.482,1.748Z" fill="#999"/>
        <path id="Trazado_108891" data-name="Trazado 108891" d="M146.035,7765.519l-2.047-2.413,1.92-2.076-1.827-2.343.659-.514,2.262,2.9-1.9,2.054,1.568,1.849Z" fill="#999"/>
        <path id="Trazado_108892" data-name="Trazado 108892" d="M148.739,7765.519l-2.047-2.413,1.921-2.076-1.827-2.343.659-.514,2.262,2.9-1.9,2.054,1.568,1.849Z" fill="#999"/>
        <path id="Trazado_108893" data-name="Trazado 108893" d="M151.4,7765.973l-2.173-2.562,2.039-2.2-1.94-2.488.7-.545,2.4,3.082-2.016,2.182,1.665,1.963Z" fill="#999"/>
        <path id="Trazado_108894" data-name="Trazado 108894" d="M154.08,7765.973l-2.173-2.562,2.039-2.2-1.94-2.488.7-.545,2.4,3.082-2.016,2.182,1.665,1.963Z" fill="#999"/>
        <path id="Trazado_108895" data-name="Trazado 108895" d="M156.6,7766.23l-2.173-2.562,2.039-2.2-1.94-2.487.7-.545,2.4,3.082-2.016,2.181,1.665,1.963Z" fill="#999"/>
        <path id="Trazado_108896" data-name="Trazado 108896" d="M159.8,7766.23l-2.173-2.562,2.039-2.2-1.94-2.487.7-.545,2.4,3.082-2.016,2.181,1.665,1.963Z" fill="#999"/>
        <path id="Trazado_108897" data-name="Trazado 108897" d="M162.581,7766.23l-2.173-2.562,2.039-2.2-1.94-2.487.7-.545,2.4,3.082-2.016,2.181,1.665,1.963Z" fill="#999"/>
        <path id="Trazado_108898" data-name="Trazado 108898" d="M165.179,7766.23l-2.173-2.562,2.039-2.2-1.94-2.487.7-.545,2.4,3.082-2.016,2.181,1.665,1.963Z" fill="#999"/>
        <path id="Trazado_108899" data-name="Trazado 108899" d="M167.829,7766.1l-2.173-2.562,2.039-2.2-1.94-2.488.7-.545,2.4,3.082-2.016,2.182,1.665,1.963Z" fill="#999"/>
        <path id="Trazado_108900" data-name="Trazado 108900" d="M170.53,7766.1l-2.173-2.663,2.039-2.292-1.94-2.586.7-.567,2.4,3.2-2.016,2.268,1.665,2.041Z" fill="#999"/>
        <path id="Trazado_108901" data-name="Trazado 108901" d="M173.739,7765.519l-2.173-2.663,2.039-2.292-1.94-2.586.7-.567,2.4,3.2-2.016,2.268,1.665,2.041Z" fill="#999"/>
        <path id="Trazado_108902" data-name="Trazado 108902" d="M176.312,7765.261l-2.173-2.663,2.039-2.292-1.94-2.586.7-.567,2.4,3.2-2.016,2.268,1.665,2.041Z" fill="#999"/>
        <path id="Trazado_108903" data-name="Trazado 108903" d="M178.74,7764.978l-2.173-2.663,2.039-2.292-1.94-2.585.7-.567,2.4,3.2-2.016,2.267,1.665,2.041Z" fill="#999"/>
        <path id="Trazado_108904" data-name="Trazado 108904" d="M181.364,7764.644l-2.173-2.663,2.039-2.292-1.94-2.585.7-.567,2.4,3.2-2.016,2.268,1.665,2.041Z" fill="#999"/>
        <path id="Trazado_108905" data-name="Trazado 108905" d="M183.921,7764.146l-2.173-2.663,2.039-2.292-1.94-2.586.7-.567,2.4,3.2-2.016,2.268,1.665,2.041Z" fill="#999"/>
        <path id="Trazado_108906" data-name="Trazado 108906" d="M186.262,7763.631l-2.173-2.663,2.039-2.292-1.94-2.585.7-.567,2.4,3.2-2.016,2.267,1.665,2.041Z" fill="#999"/>
        <path id="Trazado_108907" data-name="Trazado 108907" d="M189.118,7762.821l-2.173-2.663,2.039-2.292-1.94-2.585.7-.567,2.4,3.2-2.016,2.268,1.665,2.041Z" fill="#999"/>
        <path id="Trazado_108908" data-name="Trazado 108908" d="M192.32,7762.2l-2.173-2.663,2.039-2.292-1.94-2.586.7-.567,2.4,3.2-2.016,2.268,1.665,2.041Z" fill="#999"/>
        <path id="Trazado_108909" data-name="Trazado 108909" d="M195.393,7761.406l-2.173-2.663,2.039-2.292-1.94-2.586.7-.567,2.4,3.2-2.016,2.268,1.665,2.041Z" fill="#999"/>
        <path id="Trazado_108910" data-name="Trazado 108910" d="M198.171,7760.925,196,7758.262l2.039-2.292-1.94-2.586.7-.567,2.4,3.2-2.016,2.268,1.665,2.041Z" fill="#999"/>
        <path id="Trazado_108911" data-name="Trazado 108911" d="M201.532,7760.092l-2.173-2.5,2.039-2.154-1.94-2.43.7-.533,2.4,3.011-2.016,2.131,1.665,1.918Z" fill="#999"/>
        <path id="Trazado_108912" data-name="Trazado 108912" d="M204.793,7758.786l-1.935-2.373,1.816-2.042-1.727-2.3.623-.5,2.139,2.854-1.8,2.02,1.482,1.818Z" fill="#999"/>
        <g id="Grupo_56286" data-name="Grupo 56286" opacity="0.43">
          <path id="Trazado_108913" data-name="Trazado 108913" d="M219.394,7649.136c-8.782-12.521-25.54-37.893-25.54-37.893a89.237,89.237,0,0,1-.807-11.368s-28.319-17.544-39.928-20.675c0,0-7.332,13.762-11.981,17.545s-15.12,30.522-15.12,30.522-2.3,8.835-1.25,33.261a416.862,416.862,0,0,0,4.105,43.434l7.647,43.435,2.266,9.474v5.459l-5.392,5.067s17.463,6.961,33.862,4.7,45.617-8.051,48.573-11.505l-5.391-5.416s-1.739-3.255-.348-10.559,5.739-37.044,10.783-52.87c0,0,6.695-16.174,6.825-21.739C227.7,7670.006,228.176,7661.658,219.394,7649.136Zm-52.695,20c-14.264,0-25.826-14.718-25.826-32.873s11.562-32.874,25.826-32.874,25.826,14.718,25.826,32.874S180.962,7669.136,166.7,7669.136Z" fill="#999"/>
          <path id="Trazado_108914" data-name="Trazado 108914" d="M160.434,7773.043c-14.04,0-27.073-5.121-27.225-5.181a.5.5,0,0,1-.157-.829l5.233-4.918v-5.184l-2.252-9.417-7.652-43.464a420.7,420.7,0,0,1-4.112-43.5c-1.039-24.221,1.17-33.044,1.264-33.409.448-1.153,10.592-26.961,15.29-30.783,4.517-3.676,11.782-17.256,11.855-17.392a.5.5,0,0,1,.572-.247c11.546,3.114,38.9,20.015,40.06,20.733a.5.5,0,0,1,.237.439,87.854,87.854,0,0,0,.787,11.173c1.14,1.724,17.063,25.8,25.469,37.786,8.781,12.52,8.415,20.837,8.4,21.185-.131,5.578-6.588,21.238-6.863,21.9-3.963,12.441-7.572,33.987-9.51,45.562-.532,3.171-.952,5.677-1.244,7.211-1.235,6.481.06,9.707.271,10.173l5.332,5.356a.5.5,0,0,1,.025.678c-3.184,3.72-33.056,9.49-48.884,11.675A50.44,50.44,0,0,1,160.434,7773.043Zm-26.111-5.832c3.492,1.268,18.68,6.344,32.865,4.389,16.852-2.326,43.75-7.786,47.924-11.022l-5.029-5.051a.491.491,0,0,1-.086-.117c-.075-.139-1.806-3.5-.4-10.889.29-1.523.709-4.023,1.239-7.189,1.943-11.6,5.56-33.191,9.558-45.738.081-.2,6.676-16.191,6.8-21.6,0-.1.344-8.367-8.214-20.57-8.686-12.384-25.381-37.652-25.548-37.906a.486.486,0,0,1-.079-.208,90.862,90.862,0,0,1-.818-11.159c-2.762-1.7-28.118-17.181-39.17-20.362-1.207,2.23-7.607,13.837-11.917,17.344-4.494,3.657-14.866,30.049-14.97,30.316,0,.031-2.245,9.028-1.215,33.057a419.974,419.974,0,0,0,4.1,43.378l7.645,43.426,2.26,9.446a.505.505,0,0,1,.013.116v5.459a.5.5,0,0,1-.157.364Zm32.376-97.574c-14.517,0-26.326-14.972-26.326-33.374s11.809-33.374,26.326-33.374,26.326,14.971,26.326,33.374S181.215,7669.637,166.7,7669.637Zm0-65.748c-13.965,0-25.326,14.522-25.326,32.374s11.361,32.374,25.326,32.374,25.326-14.523,25.326-32.374S180.663,7603.889,166.7,7603.889Z" fill="#4d4d4d"/>
        </g>
        <path id="Trazado_108915" data-name="Trazado 108915" d="M166.144,7657.994c-11.935,0-21.646-12.308-21.646-27.437s9.711-27.435,21.646-27.435,21.647,12.308,21.647,27.435S178.08,7657.994,166.144,7657.994Zm0-53.872c-11.384,0-20.646,11.859-20.646,26.435s9.262,26.437,20.646,26.437,20.647-11.859,20.647-26.437S177.529,7604.122,166.144,7604.122Z" fill="#4d4d4d" opacity="0.43"/>
        <g id="Grupo_56291" data-name="Grupo 56291">
          <path id="Trazado_108916" data-name="Trazado 108916" d="M159.975,7751.749l-.22-1.988c.162-.018,16.264-1.808,26.193-3.862l10.091-2.087.406,1.959-10.092,2.087C176.332,7749.931,160.137,7751.73,159.975,7751.749Z" fill="#999"/>
          <g id="Grupo_56290" data-name="Grupo 56290">
            <g id="Grupo_56288" data-name="Grupo 56288">
              <path id="Trazado_108917" data-name="Trazado 108917" d="M200.6,7842.836a279.627,279.627,0,0,1-13.389-38.317c-.784-2.812-1.4-5.034-2.009-6.771-2.334-6.695-10.8-48.162-11.164-49.924l-5.183-50.787-2.164-28.2-3.952-63.475,2-.125,3.95,63.461,2.161,28.163,5.165,50.663c.073.332,8.789,43,11.079,49.568.626,1.8,1.253,4.046,2.047,6.892a277.733,277.733,0,0,0,13.3,38.067Z" fill="#999"/>
              <path id="Trazado_108918" data-name="Trazado 108918" d="M192.928,7847.49c-3.189,0-5.752-.419-6.042-1.323l-.28-.875.9-.419c1.247-.519,11.094-2.577,13.055-2.984,12.446-2.587,12.455-2.569,12.86-1.6l.385.922-1.005.44c-.077.045-.2.154-.375.29-1.145.909-3.827,3.034-10.682,4.608A41.983,41.983,0,0,1,192.928,7847.49Zm-4.651-.77Zm19.521-4.255c-4.178.814-10.257,2.086-14.533,3.038a36.334,36.334,0,0,0,8.034-.9A32.436,32.436,0,0,0,207.8,7842.465Z" fill="#999"/>
              <g id="Grupo_56287" data-name="Grupo 56287" opacity="0.43">
                <path id="Trazado_108919" data-name="Trazado 108919" d="M169.108,7782.957l11.732,42.788,5.5,17.837.868,2.178h.5l24.953-5.33.975-.721-9.094-52.975-8.3-43.582-8.2-118.821s-4.621-20.872-24.3-19.828-21.468,29.966-21.468,29.966l6.783,49.943,10.809,68.728Z" fill="#ccc"/>
                <path id="Trazado_108920" data-name="Trazado 108920" d="M187.707,7846.26h-.5a.5.5,0,0,1-.464-.316l-.867-2.178-5.51-17.874L168.628,7783.1l-9.241-29.81-10.825-68.8-6.784-49.954c.014-.392,2.043-29.478,21.937-30.532,19.874-1.093,24.769,20.007,24.816,20.219l8.21,118.9,8.291,43.522,9.1,52.984a.5.5,0,0,1-.2.487l-.975.721a.522.522,0,0,1-.193.087l-24.953,5.33A.529.529,0,0,1,187.707,7846.26Zm-.165-1h.112l24.8-5.3.64-.473-9.042-52.671-8.3-43.573-8.208-118.881c-.034-.131-4.749-20.361-23.775-19.363s-20.978,29.213-21,29.5l6.78,49.845,10.807,68.717,9.227,29.747.005.017,11.732,42.787,5.491,17.821Z" fill="#4d4d4d"/>
              </g>
            </g>
            <g id="Grupo_56289" data-name="Grupo 56289" opacity="0.43">
              <line id="Línea_255" data-name="Línea 255" x1="43.469" y2="6.869" transform="translate(147.196 7662.339)" fill="#999"/>
              <path id="Trazado_108921" data-name="Trazado 108921" d="M147.2,7669.708a.5.5,0,0,1-.078-.994l43.469-6.869a.5.5,0,0,1,.156.988l-43.469,6.869A.535.535,0,0,1,147.2,7669.708Z" fill="#4d4d4d"/>
            </g>
          </g>
        </g>
        <g id="Grupo_56292" data-name="Grupo 56292" opacity="0.43">
          <path id="Trazado_108922" data-name="Trazado 108922" d="M220.685,7835.123s-30.006,13.447-36.394,10.637l-9.234-33.333-12.328-42.261-6.524-18.18s-4.1-10.5-4.506-28.116-1.563-36.393-3.2-43.57-3.5-19.871-3.5-19.871-2.817-14.79-3.86-19.486-.555-4.91,1.135-15.374a22.77,22.77,0,0,1,6.687-13.2s8.779-9.943,14.781-7.074c8.664,4.14,7.538,7.392,12.358,13.392,4.6,5.725,5.956,5.5,8.851,8a103.97,103.97,0,0,1,8.7,9.128l.706,23.739,1.673,55.566-.778,4.174s4.013,6.782,3.073,21.565,3.2,19.415,3.2,19.415l13.8,60.358Z" fill="#999"/>
          <path id="Trazado_108923" data-name="Trazado 108923" d="M186.652,7846.631a6.518,6.518,0,0,1-2.563-.413.5.5,0,0,1-.281-.325l-9.233-33.333-12.326-42.254-6.515-18.151c-.036-.093-4.132-10.77-4.535-28.273-.459-19.933-1.71-37-3.189-43.471-1.624-7.113-3.488-19.782-3.506-19.909s-2.824-14.817-3.854-19.45c-.861-3.871-.687-4.881.278-10.485.236-1.373.521-3.029.852-5.078,1.429-8.852,6.637-13.313,6.858-13.5.315-.366,9.047-10.143,15.319-7.143,6.027,2.88,7.451,5.382,9.255,8.551a34.79,34.79,0,0,0,3.277,4.979,25.2,25.2,0,0,0,6.361,6.111,25.392,25.392,0,0,1,2.426,1.823,105.139,105.139,0,0,1,8.751,9.185.5.5,0,0,1,.118.308l2.379,79.3a.548.548,0,0,1-.008.107l-.745,4c.622,1.157,3.917,8,3.048,21.682-.911,14.326,3.039,19.007,3.079,19.053a.52.52,0,0,1,.113.22l13.8,60.357,5.34,14.426a.5.5,0,0,1-.265.63C219.779,7836.077,196.109,7846.631,186.652,7846.631Zm-1.946-1.244c6.118,2.146,31.713-8.933,35.347-10.531l-5.195-14.048-13.8-60.3c-.624-.788-4.119-5.867-3.241-19.673.916-14.422-2.966-21.213-3.005-21.28a.5.5,0,0,1-.061-.346l.768-4.121-2.372-79.075a101.162,101.162,0,0,0-8.528-8.94,24.86,24.86,0,0,0-2.338-1.757,26.294,26.294,0,0,1-6.576-6.308,35.615,35.615,0,0,1-3.366-5.111c-1.784-3.134-3.073-5.4-8.817-8.144-5.591-2.674-14.106,6.857-14.192,6.955a22.546,22.546,0,0,0-6.567,12.945c-.332,2.053-.617,3.711-.854,5.087-.957,5.565-1.1,6.42-.287,10.1,1.033,4.648,3.835,19.353,3.864,19.5s1.879,12.777,3.495,19.852c1.813,7.94,2.864,28.488,3.214,43.67.4,17.312,4.431,27.842,4.472,27.947L163.2,7770l12.337,42.29Z" fill="#4d4d4d"/>
        </g>
        <path id="Trazado_108924" data-name="Trazado 108924" d="M170.756,7745.292a.5.5,0,0,1-.462-.308c-.018-.042-1.11-2.406-6.013-2.885a44.32,44.32,0,0,0-10.6.446.5.5,0,0,1-.178-.985,45.046,45.046,0,0,1,10.879-.458c5.577.546,6.791,3.381,6.84,3.5a.5.5,0,0,1-.463.689Z" fill="#4d4d4d"/>
      </g>
      <path id="Trazado_108925" data-name="Trazado 108925" d="M163.218,7606.147s3.847,9.13,4.3,12.978,6.391,9.848,9.065,10.891,12.637.542,12.637.542-5.112-4.881-6.592-5.613a29.217,29.217,0,0,1-7.409-7.4c-1.44-2.463-3.331-6.767-5.158-8.332a47.085,47.085,0,0,0-6.324-3.914Z" fill="#666"/>
      <g id="Grupo_56294" data-name="Grupo 56294">
        <path id="Trazado_108926" data-name="Trazado 108926" d="M156.062,7610.02l-3.451-4.332.514-2.133s.243-.906-.608-.853l-3.388,1.945s-1.446.933-.052,1.534l2.506.528,3.435,3.924,1.185.6Z" fill="#666"/>
      </g>
      <g id="Grupo_56295" data-name="Grupo 56295">
        <path id="Trazado_108927" data-name="Trazado 108927" d="M149.864,7616.281l-3.451-4.332.515-2.133s.242-.906-.608-.853l-3.389,1.944s-1.445.934-.052,1.535l2.507.528,3.435,3.924,1.184.6Z" fill="#666"/>
      </g>
      <g id="Grupo_56309" data-name="Grupo 56309">
        <g id="Grupo_56299" data-name="Grupo 56299">
          <g id="Grupo_56296" data-name="Grupo 56296">
            <path id="Trazado_108928" data-name="Trazado 108928" d="M367.515,7538.024c0-5.289-3.205-9.577-7.159-9.577s-7.16,4.288-7.16,9.577c0,4.137,1.964,7.65,4.71,8.99V7561.6h5.409v-14.862C365.79,7545.23,367.515,7541.9,367.515,7538.024Z" fill="#fff"/>
            <path id="Trazado_108929" data-name="Trazado 108929" d="M364.315,7562.6h-7.409v-14.994c-2.84-1.716-4.709-5.471-4.709-9.582,0-5.832,3.66-10.577,8.159-10.577s8.159,4.745,8.159,10.577c0,3.847-1.632,7.4-4.2,9.25Zm-5.409-2h3.409v-14.423l.48-.293c2.259-1.376,3.72-4.461,3.72-7.86,0-4.729-2.763-8.577-6.159-8.577s-6.159,3.848-6.159,8.577c0,3.628,1.667,6.88,4.147,8.091l.562.274Z" fill="#999"/>
          </g>
          <g id="Grupo_56297" data-name="Grupo 56297">
            <rect id="Rectángulo_10243" data-name="Rectángulo 10243" width="16.79" height="2.8" rx="1.31" transform="translate(352.248 7540.007)" fill="#fff"/>
            <path id="Trazado_108930" data-name="Trazado 108930" d="M367.728,7543.807h-14.17a2.312,2.312,0,0,1-2.31-2.309v-.181a2.312,2.312,0,0,1,2.31-2.309h14.17a2.312,2.312,0,0,1,2.31,2.309v.181A2.312,2.312,0,0,1,367.728,7543.807Zm-14.17-2.8a.31.31,0,0,0-.31.309v.181a.31.31,0,0,0,.31.309h14.17a.31.31,0,0,0,.31-.309v-.181a.31.31,0,0,0-.31-.309Z" fill="#999"/>
          </g>
          <g id="Grupo_56298" data-name="Grupo 56298">
            <rect id="Rectángulo_10244" data-name="Rectángulo 10244" width="16.79" height="2.8" rx="1.31" transform="translate(352.248 7534.662)" fill="#fff"/>
            <path id="Trazado_108931" data-name="Trazado 108931" d="M367.728,7538.462h-14.17a2.312,2.312,0,0,1-2.31-2.31v-.18a2.312,2.312,0,0,1,2.31-2.31h14.17a2.312,2.312,0,0,1,2.31,2.31v.18A2.312,2.312,0,0,1,367.728,7538.462Zm-14.17-2.8a.31.31,0,0,0-.31.31v.18a.31.31,0,0,0,.31.31h14.17a.31.31,0,0,0,.31-.31v-.18a.31.31,0,0,0-.31-.31Z" fill="#999"/>
          </g>
        </g>
        <g id="Grupo_56300" data-name="Grupo 56300">
          <path id="Trazado_108932" data-name="Trazado 108932" d="M384.1,7760s-3.087-9.261-1.235-17.7c1.071-4.877,5.875-21.174,5.875-21.174h0l3.948-18.743s7.809-21.977,7.67-30.762-8.413-18.872-8.413-18.872l-14.689-27.889s-9.807-15.71-9.528-25.262,7.878-26.564,7.878-26.564h.837l2.371-6.485-34.722-13.665-3.347,6.554,1.959,1.278S331.333,7586,314.6,7606.455s-9.854,68.606-9.854,68.606l11.44,79.383.411,2.058v7.2l-16.67,36.427s-6.791,15.024-7.615,38.486-1.186,30.459-1.186,30.459l102.976,1.852,1.5-55.233s1.261-27.5-3.061-37.379C387.445,7766.676,384.1,7760,384.1,7760Z" fill="#fff"/>
          <path id="Trazado_108933" data-name="Trazado 108933" d="M395.073,7871.946l-105-1.888.053-1.033c0-.07.373-7.265,1.186-30.442.821-23.389,7.634-38.71,7.7-38.862l16.581-36.234V7756.6l-.392-1.96L303.756,7675.2c-.284-1.985-6.749-48.827,10.069-69.382,14.828-18.123,25.551-40.342,27.608-44.74l-1.987-1.3,4.168-8.164,36.474,14.355-2.946,8.058h-.881c-1.325,3.071-7.292,17.337-7.534,25.593-.267,9.144,9.282,24.549,9.378,24.7l14.678,27.865c.848,1.051,8.437,10.7,8.575,19.409s-7.153,29.49-7.7,31.049l-3.934,18.678c-.068.239-4.826,16.4-5.877,21.183-1.7,7.719.926,16.288,1.186,17.1.369.741,3.653,7.385,8.426,18.3,4.365,9.976,3.2,36.692,3.144,37.825Zm-102.9-3.85,100.955,1.815,1.472-54.242c.013-.291,1.2-27.4-2.978-36.951-5.022-11.479-8.383-18.2-8.416-18.27l-.055-.132c-.129-.388-3.152-9.621-1.263-18.229,1.066-4.856,5.7-20.576,5.893-21.243l3.965-18.8c.078-.218,7.747-21.907,7.612-30.411-.132-8.329-8.106-18.155-8.187-18.253l-.111-.168-14.688-27.89c-.371-.588-9.928-16.015-9.644-25.758.282-9.638,7.652-26.24,7.965-26.942l.265-.592h.786l1.8-4.911-32.969-12.977-2.525,4.946,1.922,1.254-.351.78c-.114.254-11.618,25.641-28.243,45.961-16.261,19.875-9.706,67.355-9.638,67.832l11.44,79.382.421,2.2v7.421l-16.761,36.626c-.065.144-6.718,15.136-7.524,38.1C292.665,7857.065,292.3,7865.4,292.173,7868.1Z" fill="#999"/>
        </g>
        <path id="Trazado_108934" data-name="Trazado 108934" d="M298.508,7867.945h-2v-32.261a105.077,105.077,0,0,1,6.872-37.127l16-33.534.9-8.331-5.541-30.648-6.981-57.509c-.243-1.278-6.06-33.041,6.3-51.163,11.614-17.025,19.285-19.45,20.449-19.731,1.5-.654,15.566-6.056,30.008,14.988,13.421,19.557,16,25.012,16.374,25.884a152.555,152.555,0,0,0,14.858,17.9l-1.436,1.392a153.86,153.86,0,0,1-15.133-18.253l-.11-.21c-.07-.181-1.945-4.808-16.2-25.584-13.937-20.308-27.064-14.518-27.616-14.259l-.251.079c-.063.014-7.518,1.665-19.288,18.919-11.893,17.433-6.039,49.409-5.978,49.73l6.982,57.517,5.583,30.874-.963,8.956-16.126,33.8a103.056,103.056,0,0,0-6.694,36.3Z" fill="#999"/>
        <path id="Trazado_108935" data-name="Trazado 108935" d="M387.076,7870.95l-2-.043.957-45.431c.006-.239.615-23.579.463-35-.144-10.83-6.052-22.7-6.5-23.582-.375-.558-2.78-4.383-3.371-11.386-.613-7.272,1.856-28.441,1.961-29.338.153-.74,3.444-16.058,7.925-24.264,4.7-8.6,10.833-20.38,12.015-23.27l1.851.757c-1.357,3.319-8.023,15.985-12.111,23.472-4.34,7.948-7.675,23.474-7.709,23.629-.01.126-2.535,21.774-1.939,28.846.578,6.85,3.033,10.432,3.058,10.468l.069.115c.269.518,6.594,12.845,6.75,24.525.153,11.464-.458,34.843-.464,35.078Z" fill="#999"/>
        <path id="Trazado_108936" data-name="Trazado 108936" d="M383.185,7638.261c-.064-.143-6.53-14.433-13.533-26.518-6.864-11.842-40.05-26.072-40.384-26.215l.783-1.84c1.391.592,34.135,14.637,41.331,27.053,7.055,12.174,13.562,26.554,13.627,26.7Z" fill="#999"/>
        <g id="Grupo_56301" data-name="Grupo 56301">
          <path id="Trazado_108937" data-name="Trazado 108937" d="M342.427,7560.774s21.683,8.96,33.179,12.261" fill="#fff"/>
          <path id="Trazado_108938" data-name="Trazado 108938" d="M375.33,7574c-11.417-3.279-33.068-12.208-33.285-12.3l.764-1.848c.216.089,21.764,8.975,33.073,12.224Z" fill="#999"/>
        </g>
        <rect id="Rectángulo_10245" data-name="Rectángulo 10245" width="86.322" height="2" transform="translate(340.187 7869.959) rotate(-88.993)" fill="#999"/>
        <rect id="Rectángulo_10246" data-name="Rectángulo 10246" width="12.469" height="1.999" transform="translate(339.384 7603.186) rotate(-64.048)" fill="#999"/>
        <path id="Trazado_108939" data-name="Trazado 108939" d="M336.393,7766.968a149.238,149.238,0,0,1-20.361-1.375l-.847-.132v-8.82l1.09.1c.225.022,22.767,2.016,36.667-.6,6.5-1.225,29.74-5.558,29.74-5.558l1.071-.2.8,8.064-.772.245c-.2.062-19.723,6.225-35.853,7.76C343.976,7766.826,340.058,7766.968,336.393,7766.968Zm-19.208-3.233a145.28,145.28,0,0,0,30.551.724c14.107-1.343,30.9-6.289,34.664-7.437l-.423-4.277c-4.637.864-23,4.29-28.665,5.356-12.569,2.369-31.376,1.1-36.127.722Z" fill="#999"/>
        <path id="Trazado_108940" data-name="Trazado 108940" d="M319.736,7764.888l-1.935-2.28,1.816-1.963-1.727-2.215.623-.485,2.139,2.743-1.8,1.942,1.482,1.748Z" fill="#999"/>
        <path id="Trazado_108941" data-name="Trazado 108941" d="M322.7,7765.519l-2.047-2.413,1.921-2.076-1.827-2.343.659-.514,2.262,2.9-1.9,2.054,1.568,1.849Z" fill="#999"/>
        <path id="Trazado_108942" data-name="Trazado 108942" d="M325.4,7765.519l-2.047-2.413,1.921-2.076-1.827-2.343.659-.514,2.262,2.9-1.9,2.054,1.568,1.849Z" fill="#999"/>
        <path id="Trazado_108943" data-name="Trazado 108943" d="M328.065,7765.973l-2.173-2.562,2.039-2.2-1.94-2.488.7-.545,2.4,3.082-2.016,2.182,1.665,1.963Z" fill="#999"/>
        <path id="Trazado_108944" data-name="Trazado 108944" d="M330.743,7765.973l-2.173-2.562,2.039-2.2-1.94-2.488.7-.545,2.4,3.082-2.016,2.182,1.665,1.963Z" fill="#999"/>
        <path id="Trazado_108945" data-name="Trazado 108945" d="M333.264,7766.23l-2.173-2.562,2.039-2.2-1.94-2.487.7-.545,2.4,3.082-2.016,2.181,1.665,1.963Z" fill="#999"/>
        <path id="Trazado_108946" data-name="Trazado 108946" d="M336.465,7766.23l-2.173-2.562,2.039-2.2-1.94-2.487.7-.545,2.4,3.082-2.016,2.181,1.665,1.963Z" fill="#999"/>
        <path id="Trazado_108947" data-name="Trazado 108947" d="M339.244,7766.23l-2.173-2.562,2.039-2.2-1.94-2.487.7-.545,2.4,3.082-2.016,2.181,1.665,1.963Z" fill="#999"/>
        <path id="Trazado_108948" data-name="Trazado 108948" d="M341.842,7766.23l-2.173-2.562,2.039-2.2-1.94-2.487.7-.545,2.4,3.082-2.016,2.181,1.665,1.963Z" fill="#999"/>
        <path id="Trazado_108949" data-name="Trazado 108949" d="M344.492,7766.1l-2.173-2.562,2.039-2.2-1.94-2.488.7-.545,2.4,3.082-2.016,2.182,1.665,1.963Z" fill="#999"/>
        <path id="Trazado_108950" data-name="Trazado 108950" d="M347.193,7766.1l-2.173-2.663,2.039-2.292-1.94-2.586.7-.567,2.4,3.2-2.016,2.268,1.665,2.041Z" fill="#999"/>
        <path id="Trazado_108951" data-name="Trazado 108951" d="M350.4,7765.519l-2.173-2.663,2.039-2.292-1.94-2.586.7-.567,2.4,3.2-2.016,2.268,1.665,2.041Z" fill="#999"/>
        <path id="Trazado_108952" data-name="Trazado 108952" d="M352.975,7765.261,350.8,7762.6l2.039-2.292-1.94-2.586.7-.567,2.4,3.2-2.016,2.268,1.665,2.041Z" fill="#999"/>
        <path id="Trazado_108953" data-name="Trazado 108953" d="M355.4,7764.978l-2.173-2.663,2.039-2.292-1.94-2.585.7-.567,2.4,3.2-2.016,2.267,1.665,2.041Z" fill="#999"/>
        <path id="Trazado_108954" data-name="Trazado 108954" d="M358.027,7764.644l-2.173-2.663,2.039-2.292-1.94-2.585.7-.567,2.4,3.2-2.016,2.268,1.665,2.041Z" fill="#999"/>
        <path id="Trazado_108955" data-name="Trazado 108955" d="M360.584,7764.146l-2.173-2.663,2.039-2.292-1.94-2.586.7-.567,2.4,3.2-2.016,2.268,1.665,2.041Z" fill="#999"/>
        <path id="Trazado_108956" data-name="Trazado 108956" d="M362.925,7763.631l-2.173-2.663,2.039-2.292-1.94-2.585.7-.567,2.4,3.2-2.016,2.267,1.665,2.041Z" fill="#999"/>
        <path id="Trazado_108957" data-name="Trazado 108957" d="M365.781,7762.821l-2.173-2.663,2.039-2.292-1.94-2.585.7-.567,2.4,3.2-2.016,2.268,1.665,2.041Z" fill="#999"/>
        <path id="Trazado_108958" data-name="Trazado 108958" d="M368.983,7762.2l-2.173-2.663,2.039-2.292-1.94-2.586.7-.567,2.4,3.2-2.016,2.268,1.665,2.041Z" fill="#999"/>
        <path id="Trazado_108959" data-name="Trazado 108959" d="M372.056,7761.406l-2.173-2.663,2.039-2.292-1.94-2.586.7-.567,2.4,3.2-2.016,2.268,1.665,2.041Z" fill="#999"/>
        <path id="Trazado_108960" data-name="Trazado 108960" d="M374.834,7760.925l-2.173-2.663,2.039-2.292-1.94-2.586.7-.567,2.4,3.2-2.016,2.268,1.665,2.041Z" fill="#999"/>
        <path id="Trazado_108961" data-name="Trazado 108961" d="M378.2,7760.092l-2.173-2.5,2.039-2.154-1.94-2.43.7-.533,2.4,3.011-2.016,2.131,1.665,1.918Z" fill="#999"/>
        <path id="Trazado_108962" data-name="Trazado 108962" d="M381.456,7758.786l-1.935-2.373,1.816-2.042-1.727-2.3.623-.5,2.139,2.854-1.8,2.02,1.482,1.818Z" fill="#999"/>
        <g id="Grupo_56302" data-name="Grupo 56302" opacity="0.43">
          <path id="Trazado_108963" data-name="Trazado 108963" d="M396.057,7649.136c-8.782-12.521-25.54-37.893-25.54-37.893a89.24,89.24,0,0,1-.807-11.368s-28.319-17.544-39.928-20.675c0,0-7.332,13.762-11.981,17.545s-15.12,30.522-15.12,30.522-2.3,8.835-1.25,33.261a416.529,416.529,0,0,0,4.105,43.434l7.647,43.435,2.266,9.474v5.459l-5.392,5.067s17.463,6.961,33.862,4.7,45.617-8.051,48.573-11.505l-5.391-5.416s-1.739-3.255-.348-10.559,5.739-37.044,10.783-52.87c0,0,6.695-16.174,6.825-21.739C404.361,7670.006,404.839,7661.658,396.057,7649.136Zm-52.7,20c-14.264,0-25.826-14.718-25.826-32.873s11.562-32.874,25.826-32.874,25.826,14.718,25.826,32.874S357.625,7669.136,343.362,7669.136Z" fill="#999"/>
          <path id="Trazado_108964" data-name="Trazado 108964" d="M337.1,7773.043c-14.04,0-27.074-5.121-27.225-5.181a.5.5,0,0,1-.157-.829l5.234-4.918v-5.184l-2.252-9.417-7.654-43.464a421.346,421.346,0,0,1-4.112-43.5c-1.038-24.221,1.171-33.044,1.266-33.409.447-1.153,10.591-26.961,15.288-30.783,4.518-3.676,11.783-17.256,11.856-17.392a.5.5,0,0,1,.572-.247c11.546,3.114,38.9,20.015,40.059,20.733a.5.5,0,0,1,.237.439,87.8,87.8,0,0,0,.788,11.173c1.14,1.724,17.063,25.8,25.469,37.786,8.781,12.52,8.414,20.837,8.394,21.185-.13,5.578-6.588,21.238-6.863,21.9-3.961,12.438-7.569,33.979-9.508,45.552-.532,3.176-.953,5.685-1.245,7.221-1.234,6.481.06,9.707.271,10.173l5.331,5.356a.5.5,0,0,1,.026.678c-3.185,3.72-33.056,9.49-48.884,11.675A50.43,50.43,0,0,1,337.1,7773.043Zm-26.112-5.832c3.493,1.268,18.682,6.344,32.866,4.389,16.852-2.326,43.749-7.786,47.923-11.022l-5.028-5.051a.491.491,0,0,1-.086-.117c-.075-.139-1.806-3.5-.4-10.889.29-1.524.709-4.028,1.241-7.2,1.942-11.6,5.558-33.184,9.556-45.729.081-.2,6.676-16.191,6.8-21.6.006-.1.345-8.367-8.214-20.57-8.685-12.384-25.38-37.652-25.548-37.906a.5.5,0,0,1-.078-.208,90.789,90.789,0,0,1-.819-11.159c-2.761-1.7-28.117-17.181-39.169-20.362-1.207,2.23-7.607,13.837-11.917,17.344-4.495,3.657-14.866,30.049-14.97,30.316,0,.031-2.246,9.028-1.216,33.057a420.308,420.308,0,0,0,4.1,43.378l7.646,43.426,2.26,9.446a.506.506,0,0,1,.014.116v5.459a.5.5,0,0,1-.158.364Zm32.377-97.574c-14.516,0-26.327-14.972-26.327-33.374s11.811-33.374,26.327-33.374,26.326,14.971,26.326,33.374S357.878,7669.637,343.362,7669.637Zm0-65.748c-13.965,0-25.327,14.522-25.327,32.374s11.362,32.374,25.327,32.374,25.326-14.523,25.326-32.374S357.326,7603.889,343.362,7603.889Z" fill="#4d4d4d"/>
        </g>
        <path id="Trazado_108965" data-name="Trazado 108965" d="M342.807,7657.994c-11.936,0-21.646-12.308-21.646-27.437s9.71-27.435,21.646-27.435,21.646,12.308,21.646,27.435S354.743,7657.994,342.807,7657.994Zm0-53.872c-11.384,0-20.646,11.859-20.646,26.435s9.262,26.437,20.646,26.437,20.646-11.859,20.646-26.437S354.192,7604.122,342.807,7604.122Z" fill="#4d4d4d" opacity="0.43"/>
        <g id="Grupo_56307" data-name="Grupo 56307">
          <path id="Trazado_108966" data-name="Trazado 108966" d="M336.638,7751.749l-.22-1.988c.162-.018,16.264-1.808,26.193-3.862l10.091-2.087.4,1.959-10.091,2.087C352.994,7749.931,336.8,7751.73,336.638,7751.749Z" fill="#999"/>
          <g id="Grupo_56306" data-name="Grupo 56306">
            <g id="Grupo_56304" data-name="Grupo 56304">
              <path id="Trazado_108967" data-name="Trazado 108967" d="M377.267,7842.836a279.629,279.629,0,0,1-13.389-38.317c-.784-2.812-1.4-5.034-2.009-6.771-2.334-6.695-10.8-48.162-11.164-49.924l-5.183-50.787-2.164-28.2-3.952-63.475,2-.125,3.951,63.461,2.161,28.163,5.165,50.663c.073.332,8.789,43,11.079,49.568.626,1.8,1.253,4.046,2.046,6.892a277.823,277.823,0,0,0,13.3,38.067Z" fill="#999"/>
              <path id="Trazado_108968" data-name="Trazado 108968" d="M369.591,7847.49c-3.189,0-5.752-.419-6.042-1.323l-.28-.875.9-.419c1.247-.518,11.094-2.577,13.055-2.984,12.448-2.586,12.455-2.567,12.86-1.6l.384.922-1,.44c-.077.045-.2.154-.374.29-1.145.908-3.827,3.033-10.683,4.608A41.984,41.984,0,0,1,369.591,7847.49Zm-4.651-.77Zm19.521-4.255c-4.178.814-10.257,2.086-14.532,3.038a36.326,36.326,0,0,0,8.033-.9A32.413,32.413,0,0,0,384.461,7842.465Z" fill="#999"/>
              <g id="Grupo_56303" data-name="Grupo 56303" opacity="0.43">
                <path id="Trazado_108969" data-name="Trazado 108969" d="M345.771,7782.957l11.732,42.788,5.5,17.837.868,2.178h.5l24.953-5.33.975-.721-9.094-52.975-8.3-43.582-8.2-118.821s-4.622-20.872-24.3-19.828-21.468,29.966-21.468,29.966l6.783,49.943,10.809,68.728Z" fill="#ccc"/>
                <path id="Trazado_108970" data-name="Trazado 108970" d="M364.369,7846.26h-.5a.5.5,0,0,1-.465-.315l-.868-2.178-5.509-17.875L345.291,7783.1l-9.24-29.81-10.826-68.8-6.785-49.954c.015-.392,2.044-29.478,21.938-30.532,19.863-1.093,24.768,20.007,24.815,20.219l8.211,118.9,8.291,43.522,9.1,52.984a.5.5,0,0,1-.2.487l-.976.721a.517.517,0,0,1-.192.087l-24.953,5.33A.531.531,0,0,1,364.369,7846.26Zm-.164-1h.112l24.8-5.3.64-.473-9.042-52.671-8.3-43.573-8.207-118.881c-.035-.131-4.748-20.361-23.776-19.363s-20.978,29.213-20.995,29.5l6.78,49.845,10.807,68.717,9.227,29.747.005.017,11.732,42.787,5.491,17.821Z" fill="#4d4d4d"/>
              </g>
            </g>
            <g id="Grupo_56305" data-name="Grupo 56305" opacity="0.43">
              <line id="Línea_256" data-name="Línea 256" x1="43.469" y2="6.869" transform="translate(323.859 7662.339)" fill="#999"/>
              <path id="Trazado_108971" data-name="Trazado 108971" d="M323.859,7669.708a.5.5,0,0,1-.078-.994l43.469-6.869a.5.5,0,1,1,.156.988l-43.469,6.869A.524.524,0,0,1,323.859,7669.708Z" fill="#4d4d4d"/>
            </g>
          </g>
        </g>
        <g id="Grupo_56308" data-name="Grupo 56308" opacity="0.43">
          <path id="Trazado_108972" data-name="Trazado 108972" d="M397.348,7835.123s-30.006,13.447-36.395,10.637l-9.233-33.333-12.328-42.261-6.524-18.18s-4.1-10.5-4.506-28.116-1.563-36.393-3.2-43.57-3.5-19.871-3.5-19.871-2.817-14.79-3.86-19.486-.555-4.91,1.135-15.374a22.773,22.773,0,0,1,6.686-13.2s8.007-8.75,14.659-8.75c3.792,0,9.409-.72,15.585,3.872,5.25,3.9,6.94,6.6,8.7,10,2.968,5.724,5.743,18.328,5.743,18.328l.706,23.739,1.673,55.566-.778,4.174s4.013,6.782,3.073,21.565,3.2,19.415,3.2,19.415l13.8,60.358Z" fill="#999"/>
          <path id="Trazado_108973" data-name="Trazado 108973" d="M363.315,7846.631a6.518,6.518,0,0,1-2.563-.413.5.5,0,0,1-.281-.325l-9.232-33.333-12.327-42.254-6.515-18.151c-.036-.093-4.132-10.77-4.535-28.273-.459-19.931-1.71-36.994-3.189-43.471-1.625-7.113-3.488-19.782-3.507-19.909s-2.823-14.816-3.854-19.45c-.86-3.87-.686-4.88.278-10.482.236-1.373.521-3.03.852-5.081,1.43-8.852,6.638-13.313,6.859-13.5.285-.318,8.186-8.868,14.98-8.868.428,0,.879-.01,1.353-.019,3.763-.083,8.919-.182,14.53,3.99,5.388,4.006,7.129,6.856,8.845,10.167,2.964,5.717,5.674,17.933,5.788,18.451l2.39,79.4a.548.548,0,0,1-.008.107l-.746,4c.623,1.157,3.918,8,3.048,21.682-.91,14.326,3.04,19.007,3.08,19.053a.509.509,0,0,1,.113.22l13.8,60.357,5.339,14.426a.5.5,0,0,1-.264.63C396.441,7836.077,372.772,7846.631,363.315,7846.631Zm-1.946-1.244c6.118,2.146,31.713-8.932,35.347-10.532l-5.2-14.047-13.8-60.3c-.624-.788-4.119-5.867-3.242-19.673.917-14.422-2.966-21.213-3.005-21.28a.5.5,0,0,1-.061-.346l.768-4.121-2.377-79.251c-.016-.032-2.783-12.513-5.687-18.112-1.711-3.3-3.326-5.939-8.553-9.826-5.336-3.968-10.295-3.864-13.914-3.793-.48.01-.938.02-1.373.02-6.354,0-14.211,8.5-14.29,8.589a22.53,22.53,0,0,0-6.562,12.938c-.332,2.055-.617,3.715-.854,5.091-.957,5.562-1.1,6.417-.286,10.095,1.033,4.648,3.835,19.353,3.863,19.5s1.88,12.777,3.5,19.852c1.813,7.943,2.864,28.489,3.214,43.67.4,17.312,4.431,27.842,4.472,27.947L339.863,7770l12.337,42.29Z" fill="#4d4d4d"/>
        </g>
        <path id="Trazado_108974" data-name="Trazado 108974" d="M347.418,7745.292a.5.5,0,0,1-.461-.308c-.019-.043-1.111-2.406-6.013-2.885a44.325,44.325,0,0,0-10.6.446.5.5,0,0,1-.178-.985,45.042,45.042,0,0,1,10.879-.458c5.577.546,6.79,3.381,6.84,3.5a.5.5,0,0,1-.464.689Z" fill="#4d4d4d"/>
      </g>
      <g id="Grupo_56310" data-name="Grupo 56310">
        <path id="Trazado_108975" data-name="Trazado 108975" d="M332.725,7610.02l-3.451-4.332.514-2.133s.243-.906-.608-.853l-3.388,1.945s-1.446.933-.052,1.534l2.506.528,3.435,3.924,1.185.6Z" fill="#666"/>
      </g>
      <g id="Grupo_56311" data-name="Grupo 56311">
        <path id="Trazado_108976" data-name="Trazado 108976" d="M326.527,7616.281l-3.451-4.332.515-2.133s.242-.906-.608-.853l-3.389,1.944s-1.445.934-.052,1.535l2.507.528,3.435,3.924,1.184.6Z" fill="#666"/>
      </g>
      <g id="Grupo_56312" data-name="Grupo 56312">
        <path id="Trazado_108977" data-name="Trazado 108977" d="M350.477,7607.718l3.451-4.332-.515-2.133s-.242-.906.608-.853l3.389,1.945s1.445.933.052,1.534l-2.507.528-3.435,3.924-1.184.6Z" fill="#666"/>
      </g>
      <g id="Grupo_56313" data-name="Grupo 56313">
        <path id="Trazado_108978" data-name="Trazado 108978" d="M356.674,7613.979l3.451-4.332-.514-2.133s-.243-.906.608-.853l3.389,1.944s1.445.934.051,1.535l-2.506.528-3.435,3.924-1.184.6Z" fill="#666"/>
      </g>
    </g>
  </g>
</svg>
