<svg xmlns="http://www.w3.org/2000/svg" width="417.549" height="432.46" viewBox="0 0 417.549 432.46">
  <g id="Grupo_56373" data-name="Grupo 56373" transform="translate(-154.123 -9087.746)">
    <rect id="Rectángulo_10259" data-name="Rectángulo 10259" width="417.549" height="432.46" transform="translate(154.123 9087.746)" fill="#dcdcde"/>
    <rect id="Rectángulo_10260" data-name="Rectángulo 10260" width="136.536" height="364.207" transform="translate(178.995 9116.51)" fill="#f7f2e6"/>
    <rect id="Rectángulo_10261" data-name="Rectángulo 10261" width="140.383" height="364.207" transform="translate(373.55 9116.51)" fill="#f7f2e6"/>
    <g id="Grupo_56333" data-name="Grupo 56333">
      <path id="Trazado_109038" data-name="Trazado 109038" d="M224.043,9102.439h1.048v1.428h-1.048v2.006H222.2v-2.006h-3.77l-.083-1.111,3.834-6.125h1.866Zm-3.973,0H222.2v-3.333l-.038-.013-.146.26Z"/>
      <path id="Trazado_109039" data-name="Trazado 109039" d="M226.3,9101.779l.533-5.148h5.155v1.485h-3.638l-.254,2.133a2.242,2.242,0,0,1,.616-.315,2.9,2.9,0,0,1,2.866.678,3.337,3.337,0,0,1,.733,2.3,3.164,3.164,0,0,1-.8,2.216,2.969,2.969,0,0,1-2.313.882,3.473,3.473,0,0,1-2.184-.7,2.207,2.207,0,0,1-.876-1.918l.013-.03,1.783-.09a1.3,1.3,0,0,0,.349.963,1.245,1.245,0,0,0,.915.346,1.07,1.07,0,0,0,.955-.459,2.126,2.126,0,0,0,.308-1.2,2.222,2.222,0,0,0-.33-1.279,1.11,1.11,0,0,0-.978-.482,1.434,1.434,0,0,0-.816.2,1.083,1.083,0,0,0-.4.534Z"/>
      <path id="Trazado_109040" data-name="Trazado 109040" d="M235.545,9105.791l-1.009,2H233.3l.444-2.057v-1.447h1.8Z"/>
      <path id="Trazado_109041" data-name="Trazado 109041" d="M237.113,9101.779l.533-5.148H242.8v1.485h-3.638l-.254,2.133a2.242,2.242,0,0,1,.616-.315,2.9,2.9,0,0,1,2.866.678,3.337,3.337,0,0,1,.733,2.3,3.164,3.164,0,0,1-.8,2.216,2.969,2.969,0,0,1-2.313.882,3.473,3.473,0,0,1-2.184-.7,2.207,2.207,0,0,1-.876-1.918l.013-.03,1.783-.09a1.294,1.294,0,0,0,.35.963,1.241,1.241,0,0,0,.914.346,1.07,1.07,0,0,0,.955-.459,2.126,2.126,0,0,0,.308-1.2,2.222,2.222,0,0,0-.33-1.279,1.109,1.109,0,0,0-.978-.482,1.434,1.434,0,0,0-.816.2,1.083,1.083,0,0,0-.4.534Z"/>
      <path id="Trazado_109042" data-name="Trazado 109042" d="M250.538,9104.578a1.1,1.1,0,0,0,.794-.287,1.016,1.016,0,0,0,.3-.767h1.682l.019.037a2.138,2.138,0,0,1-.784,1.743,3.306,3.306,0,0,1-4.376-.27,3.7,3.7,0,0,1-.832-2.494v-.192a3.729,3.729,0,0,1,.828-2.493,2.931,2.931,0,0,1,2.365-.978,2.888,2.888,0,0,1,2.047.723,2.408,2.408,0,0,1,.752,1.905l-.012.038H251.63a1.339,1.339,0,0,0-.292-.886.991.991,0,0,0-.806-.352,1.075,1.075,0,0,0-1.038.57,3.135,3.135,0,0,0-.3,1.47v.19a3.123,3.123,0,0,0,.3,1.479A1.085,1.085,0,0,0,250.538,9104.578Z"/>
      <path id="Trazado_109043" data-name="Trazado 109043" d="M256.105,9099l.076.907a2.316,2.316,0,0,1,.829-.765,2.383,2.383,0,0,1,1.152-.27,2.093,2.093,0,0,1,1.13.292,1.8,1.8,0,0,1,.711.883,2.362,2.362,0,0,1,.825-.863,2.231,2.231,0,0,1,1.193-.312,1.977,1.977,0,0,1,1.6.7,3.277,3.277,0,0,1,.587,2.136v4.158h-1.853V9101.7a1.747,1.747,0,0,0-.254-1.088.928.928,0,0,0-.756-.3,1.287,1.287,0,0,0-.682.175,1.262,1.262,0,0,0-.46.486c0,.081,0,.149.006.207s.007.115.007.174v4.524h-1.848V9101.7a1.743,1.743,0,0,0-.254-1.078.919.919,0,0,0-.761-.314,1.417,1.417,0,0,0-.657.143,1.277,1.277,0,0,0-.467.4v5.021h-1.847V9099Z"/>
      <path id="Trazado_109044" data-name="Trazado 109044" d="M269.346,9103.981a.644.644,0,0,0-.3-.526,3.021,3.021,0,0,0-1.1-.4,4.4,4.4,0,0,1-1.838-.731A1.6,1.6,0,0,1,265.5,9101a1.891,1.891,0,0,1,.745-1.507,3.028,3.028,0,0,1,2-.619,3.271,3.271,0,0,1,2.091.616,1.817,1.817,0,0,1,.746,1.555l-.012.038h-1.79a.9.9,0,0,0-.264-.673,1.265,1.265,0,0,0-1.479-.041.691.691,0,0,0-.257.549.625.625,0,0,0,.27.521,2.956,2.956,0,0,0,1.1.362,4.428,4.428,0,0,1,1.885.745,1.639,1.639,0,0,1,.616,1.355,1.8,1.8,0,0,1-.794,1.514,3.44,3.44,0,0,1-2.094.587,3.182,3.182,0,0,1-2.168-.7,1.943,1.943,0,0,1-.759-1.584l.013-.037h1.7a.964.964,0,0,0,.362.8,1.493,1.493,0,0,0,.895.247,1.28,1.28,0,0,0,.783-.2A.651.651,0,0,0,269.346,9103.981Z"/>
    </g>
    <g id="Grupo_56334" data-name="Grupo 56334">
      <path id="Trazado_109045" data-name="Trazado 109045" d="M427.938,9102.439h1.047v1.428h-1.047v2.006h-1.847v-2.006H422.32l-.082-1.111,3.834-6.125h1.866Zm-3.974,0h2.127v-3.333l-.038-.013-.146.26Z"/>
      <path id="Trazado_109046" data-name="Trazado 109046" d="M430.2,9101.779l.533-5.148h5.154v1.485h-3.637l-.254,2.133a2.214,2.214,0,0,1,.616-.315,2.9,2.9,0,0,1,2.866.678,3.342,3.342,0,0,1,.733,2.3,3.169,3.169,0,0,1-.8,2.216,2.972,2.972,0,0,1-2.314.882,3.476,3.476,0,0,1-2.184-.7,2.209,2.209,0,0,1-.875-1.918l.012-.03,1.784-.09a1.294,1.294,0,0,0,.349.963,1.244,1.244,0,0,0,.914.346,1.069,1.069,0,0,0,.955-.459,2.119,2.119,0,0,0,.308-1.2,2.222,2.222,0,0,0-.33-1.279,1.108,1.108,0,0,0-.977-.482,1.43,1.43,0,0,0-.816.2,1.077,1.077,0,0,0-.4.534Z"/>
      <path id="Trazado_109047" data-name="Trazado 109047" d="M439.44,9105.791l-1.01,2h-1.237l.444-2.057v-1.447h1.8Z"/>
      <path id="Trazado_109048" data-name="Trazado 109048" d="M441.008,9101.779l.533-5.148H446.7v1.485h-3.637l-.254,2.133a2.228,2.228,0,0,1,.616-.315,2.9,2.9,0,0,1,2.866.678,3.342,3.342,0,0,1,.733,2.3,3.169,3.169,0,0,1-.8,2.216,2.972,2.972,0,0,1-2.314.882,3.473,3.473,0,0,1-2.183-.7,2.207,2.207,0,0,1-.876-1.918l.012-.03,1.784-.09a1.294,1.294,0,0,0,.349.963,1.244,1.244,0,0,0,.914.346,1.069,1.069,0,0,0,.955-.459,2.119,2.119,0,0,0,.308-1.2,2.222,2.222,0,0,0-.33-1.279,1.108,1.108,0,0,0-.977-.482,1.43,1.43,0,0,0-.816.2,1.083,1.083,0,0,0-.4.534Z"/>
      <path id="Trazado_109049" data-name="Trazado 109049" d="M454.433,9104.578a1.094,1.094,0,0,0,.793-.287,1.017,1.017,0,0,0,.3-.767h1.682l.019.037a2.138,2.138,0,0,1-.784,1.743,3.307,3.307,0,0,1-4.377-.27,3.7,3.7,0,0,1-.831-2.494v-.192a3.724,3.724,0,0,1,.828-2.493,2.931,2.931,0,0,1,2.365-.978,2.89,2.89,0,0,1,2.047.723,2.408,2.408,0,0,1,.752,1.905l-.013.038h-1.688a1.339,1.339,0,0,0-.292-.886.992.992,0,0,0-.806-.352,1.075,1.075,0,0,0-1.038.57,3.134,3.134,0,0,0-.3,1.47v.19a3.122,3.122,0,0,0,.3,1.479A1.085,1.085,0,0,0,454.433,9104.578Z"/>
      <path id="Trazado_109050" data-name="Trazado 109050" d="M460,9099l.076.907a2.3,2.3,0,0,1,.829-.765,2.379,2.379,0,0,1,1.151-.27,2.093,2.093,0,0,1,1.13.292,1.793,1.793,0,0,1,.711.883,2.37,2.37,0,0,1,.825-.863,2.237,2.237,0,0,1,1.194-.312,1.98,1.98,0,0,1,1.6.7,3.277,3.277,0,0,1,.587,2.136v4.158h-1.854V9101.7a1.74,1.74,0,0,0-.254-1.088.926.926,0,0,0-.755-.3,1.24,1.24,0,0,0-1.143.661c0,.081,0,.149.007.207s.006.115.006.174v4.524h-1.847V9101.7a1.75,1.75,0,0,0-.254-1.078.919.919,0,0,0-.762-.314,1.423,1.423,0,0,0-.657.143,1.266,1.266,0,0,0-.466.4v5.021H458.28V9099Z"/>
      <path id="Trazado_109051" data-name="Trazado 109051" d="M473.241,9103.981a.644.644,0,0,0-.295-.526,3.036,3.036,0,0,0-1.1-.4,4.392,4.392,0,0,1-1.838-.731,1.6,1.6,0,0,1-.619-1.324,1.892,1.892,0,0,1,.746-1.507,3.026,3.026,0,0,1,2-.619,3.273,3.273,0,0,1,2.091.616,1.819,1.819,0,0,1,.746,1.555l-.013.038h-1.79a.905.905,0,0,0-.263-.673,1.265,1.265,0,0,0-1.479-.041.688.688,0,0,0-.257.549.625.625,0,0,0,.27.521,2.942,2.942,0,0,0,1.094.362,4.433,4.433,0,0,1,1.886.745,1.641,1.641,0,0,1,.615,1.355,1.8,1.8,0,0,1-.793,1.514,3.443,3.443,0,0,1-2.1.587,3.177,3.177,0,0,1-2.167-.7,1.94,1.94,0,0,1-.759-1.584l.013-.037h1.694a.967.967,0,0,0,.362.8,1.5,1.5,0,0,0,.9.247,1.286,1.286,0,0,0,.784-.2A.653.653,0,0,0,473.241,9103.981Z"/>
    </g>
    <g id="Grupo_56336" data-name="Grupo 56336">
      <rect id="Rectángulo_10262" data-name="Rectángulo 10262" width="20.194" height="2" transform="translate(192.76 9102.821)" fill="#333"/>
      <g id="Grupo_56335" data-name="Grupo 56335">
        <path id="Trazado_109052" data-name="Trazado 109052" d="M198.377,9096.414l-3.146,7.406,3.146,7.407-17.557-7.407Z" fill="#333"/>
      </g>
    </g>
    <g id="Grupo_56338" data-name="Grupo 56338">
      <rect id="Rectángulo_10263" data-name="Rectángulo 10263" width="20.194" height="2" transform="translate(274.646 9102.821)" fill="#333"/>
      <g id="Grupo_56337" data-name="Grupo 56337">
        <path id="Trazado_109053" data-name="Trazado 109053" d="M289.223,9111.228l3.146-7.407-3.146-7.406,17.557,7.406Z" fill="#333"/>
      </g>
    </g>
    <g id="Grupo_56339" data-name="Grupo 56339">
      <path id="Trazado_109054" data-name="Trazado 109054" d="M319.682,9304.392H317.66v-8.3h-2.051v-1.428l4.073-.36Z"/>
      <path id="Trazado_109055" data-name="Trazado 109055" d="M330.047,9300.465a4.447,4.447,0,0,1-.918,3.037,3.516,3.516,0,0,1-4.985,0,4.438,4.438,0,0,1-.921-3.037v-2.224a4.466,4.466,0,0,1,.918-3.038,3.5,3.5,0,0,1,4.981,0,4.446,4.446,0,0,1,.925,3.038Zm-2.016-2.434a3.314,3.314,0,0,0-.361-1.755,1.249,1.249,0,0,0-2.078,0,3.369,3.369,0,0,0-.353,1.759v2.623a3.37,3.37,0,0,0,.357,1.771,1.167,1.167,0,0,0,1.049.553,1.151,1.151,0,0,0,1.033-.553,3.405,3.405,0,0,0,.353-1.771Z"/>
      <path id="Trazado_109056" data-name="Trazado 109056" d="M331.647,9299.924l.581-5.618h5.626v1.621h-3.97l-.277,2.328a2.413,2.413,0,0,1,.672-.343,3.15,3.15,0,0,1,3.128.737,3.649,3.649,0,0,1,.8,2.508,3.458,3.458,0,0,1-.876,2.418,3.244,3.244,0,0,1-2.526.963,3.791,3.791,0,0,1-2.382-.762,2.408,2.408,0,0,1-.956-2.094l.013-.033,1.947-.1a1.407,1.407,0,0,0,.381,1.048,1.354,1.354,0,0,0,1,.378,1.167,1.167,0,0,0,1.043-.5,2.313,2.313,0,0,0,.336-1.31,2.438,2.438,0,0,0-.36-1.4,1.213,1.213,0,0,0-1.067-.524,1.553,1.553,0,0,0-.89.215,1.161,1.161,0,0,0-.44.582Z"/>
      <path id="Trazado_109057" data-name="Trazado 109057" d="M346.3,9302.979a1.2,1.2,0,0,0,.866-.312,1.107,1.107,0,0,0,.326-.837h1.835l.021.042a2.331,2.331,0,0,1-.855,1.9,3.607,3.607,0,0,1-4.777-.295,4.035,4.035,0,0,1-.907-2.722v-.208a4.064,4.064,0,0,1,.9-2.723,3.2,3.2,0,0,1,2.58-1.066,3.15,3.15,0,0,1,2.235.789,2.623,2.623,0,0,1,.82,2.078l-.014.042H347.49a1.463,1.463,0,0,0-.319-.967,1.081,1.081,0,0,0-.88-.384,1.175,1.175,0,0,0-1.133.622,3.427,3.427,0,0,0-.329,1.6v.208a3.416,3.416,0,0,0,.329,1.615A1.185,1.185,0,0,0,346.3,9302.979Z"/>
      <path id="Trazado_109058" data-name="Trazado 109058" d="M352.374,9296.9l.083.991a2.512,2.512,0,0,1,.9-.835,2.6,2.6,0,0,1,1.257-.294,2.284,2.284,0,0,1,1.233.318,1.959,1.959,0,0,1,.776.963,2.594,2.594,0,0,1,.9-.942,2.447,2.447,0,0,1,1.3-.339,2.161,2.161,0,0,1,1.749.765,3.57,3.57,0,0,1,.642,2.332v4.536H359.2v-4.554a1.9,1.9,0,0,0-.278-1.187,1.01,1.01,0,0,0-.824-.333,1.412,1.412,0,0,0-.745.19,1.392,1.392,0,0,0-.5.531c0,.088,0,.163.007.226s.007.125.007.191v4.936h-2.016v-4.554a1.9,1.9,0,0,0-.277-1.177,1,1,0,0,0-.831-.344,1.566,1.566,0,0,0-.718.156,1.367,1.367,0,0,0-.509.44v5.478H350.5v-7.5Z"/>
      <path id="Trazado_109059" data-name="Trazado 109059" d="M366.825,9302.328a.707.707,0,0,0-.322-.575,3.3,3.3,0,0,0-1.195-.43,4.822,4.822,0,0,1-2.006-.8,1.738,1.738,0,0,1-.675-1.444,2.066,2.066,0,0,1,.814-1.646,3.308,3.308,0,0,1,2.178-.674,3.576,3.576,0,0,1,2.283.672,1.983,1.983,0,0,1,.814,1.7l-.014.041h-1.953a.991.991,0,0,0-.288-.735,1.38,1.38,0,0,0-1.614-.044.755.755,0,0,0-.28.6.679.679,0,0,0,.294.567,3.194,3.194,0,0,0,1.2.4,4.866,4.866,0,0,1,2.058.813,1.8,1.8,0,0,1,.671,1.48,1.971,1.971,0,0,1-.865,1.652,3.758,3.758,0,0,1-2.286.641,3.477,3.477,0,0,1-2.367-.759,2.121,2.121,0,0,1-.827-1.729l.013-.041H364.3a1.051,1.051,0,0,0,.394.873,1.641,1.641,0,0,0,.977.27,1.4,1.4,0,0,0,.856-.222A.714.714,0,0,0,366.825,9302.328Z"/>
    </g>
    <g id="Grupo_56340" data-name="Grupo 56340">
      <path id="Trazado_109060" data-name="Trazado 109060" d="M519.6,9304.393h-2.022v-8.3h-2.051v-1.428l4.073-.36Z"/>
      <path id="Trazado_109061" data-name="Trazado 109061" d="M529.964,9300.466a4.447,4.447,0,0,1-.918,3.037,3.516,3.516,0,0,1-4.985,0,4.438,4.438,0,0,1-.921-3.037v-2.224a4.466,4.466,0,0,1,.918-3.038,3.5,3.5,0,0,1,4.981,0,4.446,4.446,0,0,1,.925,3.038Zm-2.016-2.434a3.313,3.313,0,0,0-.361-1.755,1.249,1.249,0,0,0-2.078,0,3.37,3.37,0,0,0-.353,1.759v2.623a3.384,3.384,0,0,0,.356,1.771,1.17,1.17,0,0,0,1.05.554,1.151,1.151,0,0,0,1.033-.554,3.407,3.407,0,0,0,.353-1.771Z"/>
      <path id="Trazado_109062" data-name="Trazado 109062" d="M531.564,9299.925l.581-5.618h5.626v1.621H533.8l-.277,2.328a2.413,2.413,0,0,1,.672-.343,3.15,3.15,0,0,1,3.128.737,3.649,3.649,0,0,1,.8,2.508,3.459,3.459,0,0,1-.876,2.418,3.244,3.244,0,0,1-2.526.963,3.79,3.79,0,0,1-2.382-.762,2.408,2.408,0,0,1-.956-2.094l.013-.033,1.947-.1a1.407,1.407,0,0,0,.381,1.048,1.354,1.354,0,0,0,1,.379,1.165,1.165,0,0,0,1.043-.5,2.313,2.313,0,0,0,.336-1.31,2.432,2.432,0,0,0-.36-1.4,1.211,1.211,0,0,0-1.067-.525,1.553,1.553,0,0,0-.89.215,1.162,1.162,0,0,0-.44.582Z"/>
      <path id="Trazado_109063" data-name="Trazado 109063" d="M546.215,9302.98a1.2,1.2,0,0,0,.866-.313,1.108,1.108,0,0,0,.326-.837h1.835l.021.042a2.331,2.331,0,0,1-.855,1.9,3.607,3.607,0,0,1-4.777-.295,4.035,4.035,0,0,1-.907-2.722v-.208a4.064,4.064,0,0,1,.9-2.723,3.2,3.2,0,0,1,2.58-1.066,3.15,3.15,0,0,1,2.235.789,2.623,2.623,0,0,1,.82,2.078l-.014.042h-1.842a1.463,1.463,0,0,0-.319-.967,1.082,1.082,0,0,0-.88-.384,1.175,1.175,0,0,0-1.133.622,3.427,3.427,0,0,0-.329,1.6v.208a3.416,3.416,0,0,0,.329,1.615A1.186,1.186,0,0,0,546.215,9302.98Z"/>
      <path id="Trazado_109064" data-name="Trazado 109064" d="M552.291,9296.9l.083.991a2.512,2.512,0,0,1,.9-.835,2.6,2.6,0,0,1,1.257-.294,2.284,2.284,0,0,1,1.233.318,1.959,1.959,0,0,1,.776.963,2.594,2.594,0,0,1,.9-.942,2.447,2.447,0,0,1,1.3-.339,2.16,2.16,0,0,1,1.749.765,3.57,3.57,0,0,1,.641,2.332v4.536h-2.022v-4.554a1.9,1.9,0,0,0-.278-1.187,1.01,1.01,0,0,0-.824-.333,1.349,1.349,0,0,0-1.247.722c0,.088,0,.163.007.225s.007.126.007.192v4.936h-2.016v-4.554a1.9,1.9,0,0,0-.277-1.177,1,1,0,0,0-.831-.344,1.578,1.578,0,0,0-.718.155,1.378,1.378,0,0,0-.509.441v5.478h-2.016v-7.5Z"/>
      <path id="Trazado_109065" data-name="Trazado 109065" d="M566.742,9302.329a.707.707,0,0,0-.322-.575,3.3,3.3,0,0,0-1.2-.43,4.822,4.822,0,0,1-2.006-.8,1.738,1.738,0,0,1-.675-1.444,2.066,2.066,0,0,1,.814-1.646,3.308,3.308,0,0,1,2.178-.674,3.576,3.576,0,0,1,2.283.672,1.983,1.983,0,0,1,.814,1.7l-.014.041h-1.953a.991.991,0,0,0-.288-.735,1.382,1.382,0,0,0-1.614-.045.758.758,0,0,0-.28.6.676.676,0,0,0,.294.566,3.172,3.172,0,0,0,1.2.4,4.866,4.866,0,0,1,2.058.813,1.8,1.8,0,0,1,.671,1.48,1.971,1.971,0,0,1-.865,1.652,3.758,3.758,0,0,1-2.286.641,3.477,3.477,0,0,1-2.367-.759,2.121,2.121,0,0,1-.827-1.729l.013-.041h1.851a1.051,1.051,0,0,0,.394.873,1.635,1.635,0,0,0,.977.27,1.4,1.4,0,0,0,.856-.222A.714.714,0,0,0,566.742,9302.329Z"/>
    </g>
    <g id="Grupo_56341" data-name="Grupo 56341">
      <path id="Trazado_109066" data-name="Trazado 109066" d="M391.28,9499.732v3.657h-2.023V9493.3h4.018a3.973,3.973,0,0,1,2.737.887,3.224,3.224,0,0,1,0,4.662,4,4,0,0,1-2.737.88Zm0-1.559h1.995a1.687,1.687,0,0,0,1.281-.46,1.641,1.641,0,0,0,.437-1.175,1.719,1.719,0,0,0-.433-1.2,1.657,1.657,0,0,0-1.285-.475H391.28Z"/>
      <path id="Trazado_109067" data-name="Trazado 109067" d="M397.917,9499.573a4.018,4.018,0,0,1,.935-2.746,3.258,3.258,0,0,1,2.591-1.07,3.3,3.3,0,0,1,2.605,1.066,4,4,0,0,1,.942,2.75v.146a4.007,4.007,0,0,1-.939,2.754,3.705,3.705,0,0,1-5.2,0,4.006,4.006,0,0,1-.938-2.754Zm2.015.143a3.253,3.253,0,0,0,.361,1.643,1.385,1.385,0,0,0,2.31,0,3.218,3.218,0,0,0,.364-1.638v-.146a3.187,3.187,0,0,0-.368-1.626,1.242,1.242,0,0,0-1.156-.629,1.229,1.229,0,0,0-1.147.633,3.232,3.232,0,0,0-.364,1.622Z"/>
      <path id="Trazado_109068" data-name="Trazado 109068" d="M410.289,9501.326a.706.706,0,0,0-.322-.575,3.3,3.3,0,0,0-1.2-.43,4.828,4.828,0,0,1-2.006-.8,1.739,1.739,0,0,1-.675-1.444,2.067,2.067,0,0,1,.814-1.646,3.306,3.306,0,0,1,2.179-.675,3.576,3.576,0,0,1,2.283.672,1.985,1.985,0,0,1,.813,1.7l-.013.041h-1.954a.994.994,0,0,0-.287-.735,1.381,1.381,0,0,0-1.615-.044.755.755,0,0,0-.28.6.681.681,0,0,0,.294.567,3.208,3.208,0,0,0,1.195.4,4.847,4.847,0,0,1,2.058.813,1.791,1.791,0,0,1,.672,1.479,1.969,1.969,0,0,1-.866,1.651,3.752,3.752,0,0,1-2.286.642,3.473,3.473,0,0,1-2.366-.759,2.12,2.12,0,0,1-.828-1.729l.014-.041h1.85a1.054,1.054,0,0,0,.394.873,1.644,1.644,0,0,0,.977.27,1.4,1.4,0,0,0,.856-.222A.714.714,0,0,0,410.289,9501.326Z"/>
      <path id="Trazado_109069" data-name="Trazado 109069" d="M415.956,9494.059v1.835h1.261v1.422h-1.261v3.816a.885.885,0,0,0,.18.624.641.641,0,0,0,.485.187,1.993,1.993,0,0,0,.274-.017,2.518,2.518,0,0,0,.266-.06l.174,1.462a4.148,4.148,0,0,1-.6.156,3.735,3.735,0,0,1-.631.052,2.153,2.153,0,0,1-1.61-.575,2.517,2.517,0,0,1-.565-1.822v-3.823h-1.094v-1.422h1.094v-1.835Z"/>
      <path id="Trazado_109070" data-name="Trazado 109070" d="M421.824,9503.536a3.375,3.375,0,0,1-2.591-1.039,3.714,3.714,0,0,1-.971-2.64v-.277a4.106,4.106,0,0,1,.918-2.75,3.424,3.424,0,0,1,4.819-.159,3.518,3.518,0,0,1,.838,2.472v1.1h-4.475l-.014.042a1.947,1.947,0,0,0,.495,1.214,1.549,1.549,0,0,0,1.2.476,3.946,3.946,0,0,0,1.116-.134,5.169,5.169,0,0,0,.969-.427l.548,1.25a3.726,3.726,0,0,1-1.2.623A5.178,5.178,0,0,1,421.824,9503.536Zm-.181-6.221a1.05,1.05,0,0,0-.886.43,2.227,2.227,0,0,0-.4,1.129l.021.034h2.48v-.181a1.623,1.623,0,0,0-.3-1.028A1.086,1.086,0,0,0,421.643,9497.315Z"/>
      <path id="Trazado_109071" data-name="Trazado 109071" d="M429.957,9497.634l-.741-.021a1.354,1.354,0,0,0-.742.187,1.187,1.187,0,0,0-.443.526v5.063h-2.016v-7.5h1.877l.09,1.109a2.364,2.364,0,0,1,.683-.917,1.517,1.517,0,0,1,.966-.329,1.569,1.569,0,0,1,.281.023c.085.017.172.036.26.06Z"/>
      <path id="Trazado_109072" data-name="Trazado 109072" d="M433.109,9494.1h-2.023v-1.516h2.023Zm0,9.29h-2.023v-7.5h2.023Z"/>
      <path id="Trazado_109073" data-name="Trazado 109073" d="M434.46,9499.573a4.018,4.018,0,0,1,.935-2.746,3.258,3.258,0,0,1,2.591-1.07,3.3,3.3,0,0,1,2.605,1.066,4,4,0,0,1,.942,2.75v.146a4.007,4.007,0,0,1-.939,2.754,3.705,3.705,0,0,1-5.2,0,4.006,4.006,0,0,1-.938-2.754Zm2.015.143a3.253,3.253,0,0,0,.361,1.643,1.385,1.385,0,0,0,2.31,0,3.229,3.229,0,0,0,.364-1.638v-.146a3.2,3.2,0,0,0-.368-1.626,1.242,1.242,0,0,0-1.156-.629,1.229,1.229,0,0,0-1.147.633,3.221,3.221,0,0,0-.364,1.622Z"/>
      <path id="Trazado_109074" data-name="Trazado 109074" d="M446.721,9497.634l-.741-.021a1.353,1.353,0,0,0-.741.187,1.181,1.181,0,0,0-.443.526v5.063H442.78v-7.5h1.877l.09,1.109a2.372,2.372,0,0,1,.682-.917,1.522,1.522,0,0,1,.967-.329,1.577,1.577,0,0,1,.281.023c.085.017.171.036.259.06Z"/>
    </g>
    <g id="Grupo_56342" data-name="Grupo 56342">
      <path id="Trazado_109075" data-name="Trazado 109075" d="M190.775,9504.137V9494.05h3.463a4.162,4.162,0,0,1,3.048,1.182,4.07,4.07,0,0,1,1.2,3.03v1.67a4.06,4.06,0,0,1-1.2,3.031,4.175,4.175,0,0,1-3.048,1.174Zm2.022-8.528v6.97h1.338a2.109,2.109,0,0,0,1.7-.733,2.885,2.885,0,0,0,.616-1.917v-1.682a2.863,2.863,0,0,0-.616-1.9,2.1,2.1,0,0,0-1.7-.734Z"/>
      <path id="Trazado_109076" data-name="Trazado 109076" d="M203.223,9504.282a3.378,3.378,0,0,1-2.59-1.039,3.714,3.714,0,0,1-.971-2.641v-.276a4.106,4.106,0,0,1,.918-2.75,3.424,3.424,0,0,1,4.819-.159,3.519,3.519,0,0,1,.838,2.473v1.1h-4.475l-.014.042a1.945,1.945,0,0,0,.495,1.214,1.548,1.548,0,0,0,1.2.477,3.907,3.907,0,0,0,1.116-.135,5.17,5.17,0,0,0,.969-.427l.548,1.25a3.726,3.726,0,0,1-1.2.623A5.184,5.184,0,0,1,203.223,9504.282Zm-.18-6.222a1.051,1.051,0,0,0-.886.431,2.217,2.217,0,0,0-.4,1.129l.021.034h2.48v-.181a1.623,1.623,0,0,0-.3-1.028A1.087,1.087,0,0,0,203.043,9498.061Z"/>
      <path id="Trazado_109077" data-name="Trazado 109077" d="M209.541,9504.137h-2.023V9493.33h2.023Z"/>
      <path id="Trazado_109078" data-name="Trazado 109078" d="M215.6,9504.137a4.373,4.373,0,0,1-.191-.54,3.771,3.771,0,0,1-.114-.582,2.79,2.79,0,0,1-.821.907,2.047,2.047,0,0,1-1.215.36,2.527,2.527,0,0,1-1.815-.606,2.167,2.167,0,0,1-.638-1.652,1.975,1.975,0,0,1,.849-1.707,4.234,4.234,0,0,1,2.476-.606h1.129v-.6a1.16,1.16,0,0,0-.284-.838,1.323,1.323,0,0,0-1.6-.06.843.843,0,0,0-.267.662l-1.954-.007-.006-.042a1.9,1.9,0,0,1,.824-1.639,3.6,3.6,0,0,1,2.293-.688,3.356,3.356,0,0,1,2.182.681,2.365,2.365,0,0,1,.838,1.944v3.1a5.875,5.875,0,0,0,.08.992,5.009,5.009,0,0,0,.253.921Zm-1.85-1.351a1.732,1.732,0,0,0,.949-.264,1.379,1.379,0,0,0,.561-.609v-1.061h-1.129a1.348,1.348,0,0,0-.976.322,1.045,1.045,0,0,0-.333.779.774.774,0,0,0,.25.6A.96.96,0,0,0,213.753,9502.786Z"/>
      <path id="Trazado_109079" data-name="Trazado 109079" d="M220.674,9496.64l.09,1.075a2.729,2.729,0,0,1,.922-.894,2.386,2.386,0,0,1,1.226-.318,2.253,2.253,0,0,1,1.773.713,3.293,3.293,0,0,1,.638,2.238v4.683h-2.03v-4.687a1.525,1.525,0,0,0-.3-1.073,1.227,1.227,0,0,0-.921-.316,1.563,1.563,0,0,0-.721.163,1.5,1.5,0,0,0-.533.462v5.451H218.79v-7.5Z"/>
      <path id="Trazado_109080" data-name="Trazado 109080" d="M229.237,9494.806v1.834h1.26v1.421h-1.26v3.817a.885.885,0,0,0,.18.624.641.641,0,0,0,.485.187,2,2,0,0,0,.274-.017,2.518,2.518,0,0,0,.266-.06l.174,1.462a4.257,4.257,0,0,1-.6.156,3.625,3.625,0,0,1-.63.052,2.153,2.153,0,0,1-1.61-.575,2.517,2.517,0,0,1-.565-1.822v-3.824h-1.1v-1.421h1.1v-1.834Z"/>
      <path id="Trazado_109081" data-name="Trazado 109081" d="M235.1,9504.282a3.381,3.381,0,0,1-2.591-1.039,3.718,3.718,0,0,1-.97-2.641v-.276a4.1,4.1,0,0,1,.918-2.75,3.424,3.424,0,0,1,4.819-.159,3.519,3.519,0,0,1,.838,2.473v1.1h-4.476l-.013.042a1.945,1.945,0,0,0,.495,1.214,1.548,1.548,0,0,0,1.2.477,3.9,3.9,0,0,0,1.115-.135,5.149,5.149,0,0,0,.97-.427l.547,1.25a3.72,3.72,0,0,1-1.2.623A5.184,5.184,0,0,1,235.1,9504.282Zm-.18-6.222a1.054,1.054,0,0,0-.887.431,2.226,2.226,0,0,0-.4,1.129l.021.034h2.48v-.181a1.624,1.624,0,0,0-.3-1.028A1.088,1.088,0,0,0,234.924,9498.061Z"/>
      <path id="Trazado_109082" data-name="Trazado 109082" d="M243.237,9498.38l-.741-.021a1.353,1.353,0,0,0-.741.187,1.188,1.188,0,0,0-.444.526v5.064h-2.016v-7.5h1.878l.089,1.109a2.364,2.364,0,0,1,.683-.917,1.519,1.519,0,0,1,.966-.329,1.569,1.569,0,0,1,.281.023c.086.017.172.035.26.06Z"/>
      <path id="Trazado_109083" data-name="Trazado 109083" d="M243.951,9500.319a4.018,4.018,0,0,1,.935-2.746,3.259,3.259,0,0,1,2.591-1.07,3.3,3.3,0,0,1,2.6,1.066,4,4,0,0,1,.942,2.75v.146a4.007,4.007,0,0,1-.939,2.754,3.705,3.705,0,0,1-5.2,0,4.006,4.006,0,0,1-.938-2.754Zm2.016.143a3.249,3.249,0,0,0,.36,1.642,1.383,1.383,0,0,0,2.31,0,3.218,3.218,0,0,0,.364-1.638v-.146a3.2,3.2,0,0,0-.367-1.626,1.245,1.245,0,0,0-1.157-.63,1.229,1.229,0,0,0-1.147.634,3.232,3.232,0,0,0-.363,1.622Z"/>
    </g>
    <g id="Grupo_56344" data-name="Grupo 56344">
      <rect id="Rectángulo_10264" data-name="Rectángulo 10264" width="20.194" height="2" transform="translate(395.589 9102.821)" fill="#333"/>
      <g id="Grupo_56343" data-name="Grupo 56343">
        <path id="Trazado_109084" data-name="Trazado 109084" d="M401.206,9096.414l-3.146,7.406,3.146,7.407-17.557-7.407Z" fill="#333"/>
      </g>
    </g>
    <g id="Grupo_56346" data-name="Grupo 56346">
      <rect id="Rectángulo_10265" data-name="Rectángulo 10265" width="2" height="145.029" transform="translate(328.606 9128.448)" fill="#333"/>
      <g id="Grupo_56345" data-name="Grupo 56345">
        <path id="Trazado_109085" data-name="Trazado 109085" d="M337.012,9134.065l-7.406-3.146-7.406,3.146,7.406-17.557Z" fill="#333"/>
      </g>
    </g>
    <g id="Grupo_56348" data-name="Grupo 56348">
      <rect id="Rectángulo_10266" data-name="Rectángulo 10266" width="2" height="145.029" transform="translate(531.32 9128.448)" fill="#333"/>
      <g id="Grupo_56347" data-name="Grupo 56347">
        <path id="Trazado_109086" data-name="Trazado 109086" d="M539.726,9134.065l-7.406-3.146-7.406,3.146,7.406-17.557Z" fill="#333"/>
      </g>
    </g>
    <g id="Grupo_56350" data-name="Grupo 56350">
      <rect id="Rectángulo_10267" data-name="Rectángulo 10267" width="2" height="145.029" transform="translate(328.606 9326.075)" fill="#333"/>
      <g id="Grupo_56349" data-name="Grupo 56349">
        <path id="Trazado_109087" data-name="Trazado 109087" d="M322.2,9465.487l7.406,3.146,7.406-3.146-7.406,17.557Z" fill="#333"/>
      </g>
    </g>
    <g id="Grupo_56352" data-name="Grupo 56352">
      <rect id="Rectángulo_10268" data-name="Rectángulo 10268" width="2" height="145.029" transform="translate(531.32 9326.075)" fill="#333"/>
      <g id="Grupo_56351" data-name="Grupo 56351">
        <path id="Trazado_109088" data-name="Trazado 109088" d="M524.914,9465.487l7.406,3.146,7.406-3.146-7.406,17.557Z" fill="#333"/>
      </g>
    </g>
    <g id="Grupo_56354" data-name="Grupo 56354">
      <rect id="Rectángulo_10269" data-name="Rectángulo 10269" width="20.194" height="2" transform="translate(477.475 9102.821)" fill="#333"/>
      <g id="Grupo_56353" data-name="Grupo 56353">
        <path id="Trazado_109089" data-name="Trazado 109089" d="M492.053,9111.228l3.146-7.407-3.146-7.406,17.557,7.406Z" fill="#333"/>
      </g>
    </g>
    <g id="Grupo_56356" data-name="Grupo 56356">
      <path id="Trazado_109090" data-name="Trazado 109090" d="M210.66,9225.157h-2v-2h2Zm0-10h-2v-3h2Zm0-5h-2v-8h2Zm0-11h-2v-2h2Zm0-10h-2v-3h2Zm0-5h-2v-8h2Zm0-11h-2v-2h2Zm0-10h-2v-3h2Zm0-5h-2v-8h2Zm0-11h-2v-2h2Zm0-10h-2v-3h2Zm0-5h-2v-8h2Z" fill="#333"/>
      <g id="Grupo_56355" data-name="Grupo 56355">
        <path id="Trazado_109091" data-name="Trazado 109091" d="M202.253,9221.965l7.406,3.146,7.406-3.146-7.406,17.557Z" fill="#333"/>
      </g>
    </g>
    <g id="Grupo_56358" data-name="Grupo 56358">
      <path id="Trazado_109092" data-name="Trazado 109092" d="M484.821,9225.157h-2v-2h2Zm0-10h-2v-3h2Zm0-5h-2v-8h2Zm0-11h-2v-2h2Zm0-10h-2v-3h2Zm0-5h-2v-8h2Zm0-11h-2v-2h2Zm0-10h-2v-3h2Zm0-5h-2v-8h2Zm0-11h-2v-2h2Zm0-10h-2v-3h2Zm0-5h-2v-8h2Z" fill="#333"/>
      <g id="Grupo_56357" data-name="Grupo 56357">
        <path id="Trazado_109093" data-name="Trazado 109093" d="M476.415,9221.965l7.406,3.146,7.406-3.146-7.406,17.557Z" fill="#333"/>
      </g>
    </g>
    <g id="Grupo_56360" data-name="Grupo 56360">
      <path id="Trazado_109094" data-name="Trazado 109094" d="M240.221,9151.06h-2v-.9h2Zm0-3.9h-2v-2h2Zm0-10h-2v-3h2Zm0-5h-2v-8h2Z" fill="#333"/>
      <g id="Grupo_56359" data-name="Grupo 56359">
        <path id="Trazado_109095" data-name="Trazado 109095" d="M231.815,9145.443l7.406,3.146,7.406-3.146L239.222,9163Z" fill="#333"/>
      </g>
    </g>
    <g id="Grupo_56362" data-name="Grupo 56362">
      <path id="Trazado_109096" data-name="Trazado 109096" d="M315.531,9205.481h-8v-2h8Zm-10,0h-3v-2h3Z" fill="#333"/>
      <g id="Grupo_56361" data-name="Grupo 56361">
        <path id="Trazado_109097" data-name="Trazado 109097" d="M304.521,9197.075l-3.146,7.406,3.146,7.406-17.557-7.406Z" fill="#333"/>
      </g>
    </g>
    <g id="Grupo_56364" data-name="Grupo 56364">
      <path id="Trazado_109098" data-name="Trazado 109098" d="M393.621,9205.482h-3v-2h3Zm-5,0h-8v-2h8Z" fill="#333"/>
      <g id="Grupo_56363" data-name="Grupo 56363">
        <path id="Trazado_109099" data-name="Trazado 109099" d="M391.631,9211.889l3.146-7.406-3.146-7.406,17.557,7.406Z" fill="#333"/>
      </g>
    </g>
    <g id="Grupo_56366" data-name="Grupo 56366">
      <path id="Trazado_109100" data-name="Trazado 109100" d="M442.291,9152.1h-2v-1.946h2Zm0-4.946h-2v-2h2Zm0-10h-2v-3h2Zm0-5h-2v-8h2Z" fill="#333"/>
      <g id="Grupo_56365" data-name="Grupo 56365">
        <path id="Trazado_109101" data-name="Trazado 109101" d="M433.885,9146.486l7.406,3.146,7.406-3.146-7.406,17.557Z" fill="#333"/>
      </g>
    </g>
    <rect id="Rectángulo_10270" data-name="Rectángulo 10270" width="113.319" height="2" transform="translate(184.414 9165.824)" fill="#333"/>
    <rect id="Rectángulo_10271" data-name="Rectángulo 10271" width="113.319" height="2" transform="translate(184.414 9241.14)" fill="#333"/>
    <rect id="Rectángulo_10272" data-name="Rectángulo 10272" width="113.319" height="2" transform="translate(389.818 9165.824)" fill="#333"/>
    <rect id="Rectángulo_10273" data-name="Rectángulo 10273" width="113.319" height="2" transform="translate(396.29 9241.14)" fill="#333"/>
    <rect id="Rectángulo_10274" data-name="Rectángulo 10274" width="2" height="348.631" transform="translate(284.142 9121.826)" fill="#333"/>
    <rect id="Rectángulo_10275" data-name="Rectángulo 10275" width="2" height="348.631" transform="translate(410.073 9121.826)" fill="#333"/>
    <g id="Grupo_56367" data-name="Grupo 56367">
      <path id="Trazado_109102" data-name="Trazado 109102" d="M426.179,9259.032h4.091v1.42h-5.934v-9.191h1.843Z"/>
      <path id="Trazado_109103" data-name="Trazado 109103" d="M432.561,9251.091h1.951l.013.038-1.749,1.64H431.3Zm.594,9.361h-1.844v-6.83h1.844Z"/>
      <path id="Trazado_109104" data-name="Trazado 109104" d="M436.412,9253.622l.082.978a2.485,2.485,0,0,1,.84-.813,2.18,2.18,0,0,1,1.117-.29,2.06,2.06,0,0,1,1.616.648,3.007,3.007,0,0,1,.581,2.039v4.269H438.8v-4.271a1.385,1.385,0,0,0-.278-.978,1.118,1.118,0,0,0-.84-.288,1.422,1.422,0,0,0-.656.148,1.357,1.357,0,0,0-.487.421v4.967H434.7v-6.83Z"/>
      <path id="Trazado_109105" data-name="Trazado 109105" d="M445.048,9260.585a3.076,3.076,0,0,1-2.361-.947,3.385,3.385,0,0,1-.884-2.405v-.252a3.742,3.742,0,0,1,.836-2.507,3.121,3.121,0,0,1,4.391-.145,3.208,3.208,0,0,1,.764,2.254v1h-4.078l-.013.038a1.77,1.77,0,0,0,.452,1.106,1.412,1.412,0,0,0,1.088.434,3.547,3.547,0,0,0,1.017-.123,4.68,4.68,0,0,0,.884-.388l.5,1.139a3.386,3.386,0,0,1-1.092.567A4.72,4.72,0,0,1,445.048,9260.585Zm-.164-5.669a.962.962,0,0,0-.808.391,2.038,2.038,0,0,0-.366,1.029l.019.032h2.26v-.164a1.481,1.481,0,0,0-.275-.938A.993.993,0,0,0,444.884,9254.916Z"/>
      <path id="Trazado_109106" data-name="Trazado 109106" d="M452.875,9260.452a3.826,3.826,0,0,1-.173-.492,3.481,3.481,0,0,1-.1-.53,2.555,2.555,0,0,1-.748.827,1.878,1.878,0,0,1-1.108.328,2.306,2.306,0,0,1-1.654-.553,1.976,1.976,0,0,1-.581-1.506,1.8,1.8,0,0,1,.774-1.556,3.851,3.851,0,0,1,2.256-.553h1.029v-.542a1.063,1.063,0,0,0-.259-.765,1.21,1.21,0,0,0-1.455-.055.773.773,0,0,0-.243.6l-1.78-.007-.006-.037a1.733,1.733,0,0,1,.751-1.493,3.272,3.272,0,0,1,2.089-.628,3.052,3.052,0,0,1,1.989.621,2.154,2.154,0,0,1,.764,1.771v2.822a5.373,5.373,0,0,0,.072.9,4.528,4.528,0,0,0,.231.84Zm-1.685-1.23a1.588,1.588,0,0,0,.865-.24,1.248,1.248,0,0,0,.511-.556v-.966h-1.029a1.224,1.224,0,0,0-.89.294.949.949,0,0,0-.3.71.707.707,0,0,0,.228.549A.879.879,0,0,0,451.19,9259.222Z"/>
      <path id="Trazado_109107" data-name="Trazado 109107" d="M458.746,9257.094a4.432,4.432,0,0,1,.7-2.607,2.264,2.264,0,0,1,1.966-.99,1.906,1.906,0,0,1,.921.221,2.213,2.213,0,0,1,.72.631V9250.6h1.85v9.849h-1.585l-.151-.833a2.274,2.274,0,0,1-.761.72,2.021,2.021,0,0,1-1.007.246,2.308,2.308,0,0,1-1.953-.922,3.93,3.93,0,0,1-.7-2.437Zm1.837.133a2.811,2.811,0,0,0,.3,1.42,1.052,1.052,0,0,0,.985.518,1.422,1.422,0,0,0,.694-.162,1.289,1.289,0,0,0,.486-.473V9255.6a1.428,1.428,0,0,0-.483-.5,1.275,1.275,0,0,0-.685-.181,1.041,1.041,0,0,0-.988.6,3.437,3.437,0,0,0-.312,1.575Z"/>
      <path id="Trazado_109108" data-name="Trazado 109108" d="M469.351,9260.585a3.078,3.078,0,0,1-2.361-.947,3.386,3.386,0,0,1-.884-2.405v-.252a3.737,3.737,0,0,1,.837-2.507,3.119,3.119,0,0,1,4.39-.145,3.2,3.2,0,0,1,.764,2.254v1h-4.078l-.012.038a1.769,1.769,0,0,0,.451,1.106,1.413,1.413,0,0,0,1.089.434,3.544,3.544,0,0,0,1.016-.123,4.678,4.678,0,0,0,.884-.388l.5,1.139a3.4,3.4,0,0,1-1.093.567A4.716,4.716,0,0,1,469.351,9260.585Zm-.164-5.669a.962.962,0,0,0-.808.391,2.038,2.038,0,0,0-.366,1.029l.019.032h2.26v-.164a1.481,1.481,0,0,0-.275-.938A.993.993,0,0,0,469.187,9254.916Z"/>
      <path id="Trazado_109109" data-name="Trazado 109109" d="M478.58,9251.949v1.673h1.149v1.294H478.58v3.478a.805.805,0,0,0,.164.568.584.584,0,0,0,.442.171,1.669,1.669,0,0,0,.25-.016,2.249,2.249,0,0,0,.243-.054l.158,1.331a3.641,3.641,0,0,1-.543.143,3.21,3.21,0,0,1-.575.048,1.959,1.959,0,0,1-1.467-.525,2.287,2.287,0,0,1-.515-1.659v-3.484h-1v-1.294h1v-1.673Z"/>
      <path id="Trazado_109110" data-name="Trazado 109110" d="M482.841,9251.987H481V9250.6h1.843Zm0,8.465H481v-6.83h1.843Z"/>
      <path id="Trazado_109111" data-name="Trazado 109111" d="M487.948,9255.206l-.675-.02a1.232,1.232,0,0,0-.676.171,1.088,1.088,0,0,0-.4.48v4.614h-1.837v-6.83h1.711l.082,1.01a2.147,2.147,0,0,1,.622-.836,1.382,1.382,0,0,1,.88-.3,1.484,1.484,0,0,1,.256.021c.078.016.157.034.237.055Z"/>
      <path id="Trazado_109112" data-name="Trazado 109112" d="M488.6,9256.974a3.671,3.671,0,0,1,.852-2.5,3.366,3.366,0,0,1,4.735,0,3.643,3.643,0,0,1,.859,2.506v.133a3.649,3.649,0,0,1-.856,2.51,3.376,3.376,0,0,1-4.734,0,3.654,3.654,0,0,1-.856-2.51Zm1.837.129a2.961,2.961,0,0,0,.329,1.5,1.262,1.262,0,0,0,2.1,0,2.942,2.942,0,0,0,.331-1.494v-.132a2.918,2.918,0,0,0-.334-1.481,1.133,1.133,0,0,0-1.054-.573,1.118,1.118,0,0,0-1.045.577,2.936,2.936,0,0,0-.332,1.478Z"/>
    </g>
    <g id="Grupo_56368" data-name="Grupo 56368">
      <path id="Trazado_109113" data-name="Trazado 109113" d="M195.23,9256.074h4.091v1.42h-5.934V9248.3h1.843Z"/>
      <path id="Trazado_109114" data-name="Trazado 109114" d="M201.612,9248.133h1.951l.012.038-1.748,1.64h-1.471Zm.593,9.361h-1.843v-6.83h1.843Z"/>
      <path id="Trazado_109115" data-name="Trazado 109115" d="M205.463,9250.664l.082.978a2.494,2.494,0,0,1,.84-.813,2.18,2.18,0,0,1,1.117-.29,2.06,2.06,0,0,1,1.616.648,3.007,3.007,0,0,1,.581,2.039v4.269h-1.85v-4.271a1.385,1.385,0,0,0-.277-.978,1.118,1.118,0,0,0-.84-.288,1.429,1.429,0,0,0-.657.148,1.362,1.362,0,0,0-.486.421v4.967h-1.843v-6.83Z"/>
      <path id="Trazado_109116" data-name="Trazado 109116" d="M214.1,9257.627a3.076,3.076,0,0,1-2.361-.947,3.386,3.386,0,0,1-.884-2.405v-.252a3.742,3.742,0,0,1,.836-2.507,3.121,3.121,0,0,1,4.391-.145,3.208,3.208,0,0,1,.764,2.254v1h-4.078l-.013.038a1.775,1.775,0,0,0,.451,1.106,1.415,1.415,0,0,0,1.089.434,3.557,3.557,0,0,0,1.017-.123,4.679,4.679,0,0,0,.884-.388l.5,1.139a3.4,3.4,0,0,1-1.092.567A4.721,4.721,0,0,1,214.1,9257.627Zm-.165-5.669a.962.962,0,0,0-.807.391,2.038,2.038,0,0,0-.366,1.029l.019.032h2.259v-.164a1.476,1.476,0,0,0-.275-.938A.99.99,0,0,0,213.934,9251.958Z"/>
      <path id="Trazado_109117" data-name="Trazado 109117" d="M221.926,9257.494a3.821,3.821,0,0,1-.173-.492,3.362,3.362,0,0,1-.1-.53,2.555,2.555,0,0,1-.748.827,1.878,1.878,0,0,1-1.108.328,2.31,2.31,0,0,1-1.655-.553,1.979,1.979,0,0,1-.58-1.506,1.8,1.8,0,0,1,.773-1.556,3.855,3.855,0,0,1,2.257-.553h1.029v-.542a1.063,1.063,0,0,0-.259-.765,1.21,1.21,0,0,0-1.455-.055.773.773,0,0,0-.243.6l-1.78-.007-.007-.037a1.737,1.737,0,0,1,.752-1.493,3.27,3.27,0,0,1,2.089-.628,3.052,3.052,0,0,1,1.989.621,2.154,2.154,0,0,1,.764,1.771v2.822a5.373,5.373,0,0,0,.072.9,4.523,4.523,0,0,0,.23.84Zm-1.685-1.23a1.59,1.59,0,0,0,.865-.24,1.248,1.248,0,0,0,.511-.556v-.966h-1.029a1.224,1.224,0,0,0-.89.294.949.949,0,0,0-.3.71.71.71,0,0,0,.227.549A.883.883,0,0,0,220.241,9256.264Z"/>
      <path id="Trazado_109118" data-name="Trazado 109118" d="M227.8,9254.136a4.439,4.439,0,0,1,.7-2.607,2.267,2.267,0,0,1,1.967-.99,1.906,1.906,0,0,1,.921.221,2.214,2.214,0,0,1,.72.631v-3.743h1.849v9.848h-1.584l-.151-.833a2.283,2.283,0,0,1-.761.72,2.024,2.024,0,0,1-1.007.246,2.311,2.311,0,0,1-1.954-.922,3.936,3.936,0,0,1-.7-2.437Zm1.837.133a2.811,2.811,0,0,0,.3,1.42,1.052,1.052,0,0,0,.985.518,1.422,1.422,0,0,0,.694-.162,1.289,1.289,0,0,0,.486-.473v-2.929a1.428,1.428,0,0,0-.483-.5,1.275,1.275,0,0,0-.685-.181,1.041,1.041,0,0,0-.988.6,3.437,3.437,0,0,0-.312,1.575Z"/>
      <path id="Trazado_109119" data-name="Trazado 109119" d="M238.4,9257.627a3.077,3.077,0,0,1-2.361-.947,3.386,3.386,0,0,1-.884-2.405v-.252a3.742,3.742,0,0,1,.836-2.507,3.121,3.121,0,0,1,4.391-.145,3.208,3.208,0,0,1,.764,2.254v1H237.07l-.013.038a1.775,1.775,0,0,0,.452,1.106,1.412,1.412,0,0,0,1.088.434,3.547,3.547,0,0,0,1.017-.123,4.679,4.679,0,0,0,.884-.388l.5,1.139a3.386,3.386,0,0,1-1.092.567A4.721,4.721,0,0,1,238.4,9257.627Zm-.164-5.669a.962.962,0,0,0-.808.391,2.038,2.038,0,0,0-.366,1.029l.019.032h2.26v-.164a1.481,1.481,0,0,0-.275-.938A.993.993,0,0,0,238.238,9251.958Z"/>
      <path id="Trazado_109120" data-name="Trazado 109120" d="M247.631,9248.991v1.673h1.149v1.294h-1.149v3.478a.807.807,0,0,0,.164.568.584.584,0,0,0,.442.171,1.678,1.678,0,0,0,.25-.016,2.25,2.25,0,0,0,.243-.054l.157,1.331a3.629,3.629,0,0,1-.542.143,3.217,3.217,0,0,1-.575.048,1.958,1.958,0,0,1-1.467-.525,2.287,2.287,0,0,1-.515-1.659v-3.484h-1v-1.294h1v-1.673Z"/>
      <path id="Trazado_109121" data-name="Trazado 109121" d="M251.892,9249.029h-1.843v-1.383h1.843Zm0,8.465h-1.843v-6.83h1.843Z"/>
      <path id="Trazado_109122" data-name="Trazado 109122" d="M257,9252.248l-.675-.02a1.232,1.232,0,0,0-.676.171,1.087,1.087,0,0,0-.4.48v4.614h-1.837v-6.83h1.71l.083,1.01a2.147,2.147,0,0,1,.622-.836,1.382,1.382,0,0,1,.88-.3,1.483,1.483,0,0,1,.256.021c.077.016.157.034.237.055Z"/>
      <path id="Trazado_109123" data-name="Trazado 109123" d="M257.649,9254.015a3.665,3.665,0,0,1,.852-2.5,3.366,3.366,0,0,1,4.735,0,3.647,3.647,0,0,1,.859,2.5v.134a3.654,3.654,0,0,1-.856,2.51,3.376,3.376,0,0,1-4.734,0,3.649,3.649,0,0,1-.856-2.51Zm1.837.13a2.961,2.961,0,0,0,.329,1.5,1.262,1.262,0,0,0,2.105,0,2.943,2.943,0,0,0,.331-1.494v-.132a2.928,2.928,0,0,0-.334-1.481,1.133,1.133,0,0,0-1.054-.573,1.117,1.117,0,0,0-1.045.577,2.936,2.936,0,0,0-.332,1.478Z"/>
    </g>
    <g id="Grupo_56369" data-name="Grupo 56369">
      <path id="Trazado_109124" data-name="Trazado 109124" d="M192.1,9188.988h4.091v1.42h-5.934v-9.191H192.1Z"/>
      <path id="Trazado_109125" data-name="Trazado 109125" d="M198.482,9181.047h1.95l.013.038-1.748,1.64h-1.471Zm.593,9.361h-1.843v-6.83h1.843Z"/>
      <path id="Trazado_109126" data-name="Trazado 109126" d="M202.333,9183.578l.082.979a2.485,2.485,0,0,1,.839-.814,2.184,2.184,0,0,1,1.118-.29,2.061,2.061,0,0,1,1.616.648,3.007,3.007,0,0,1,.581,2.039v4.269h-1.85v-4.271a1.385,1.385,0,0,0-.278-.978,1.115,1.115,0,0,0-.84-.288,1.434,1.434,0,0,0-.656.147,1.358,1.358,0,0,0-.486.422v4.967h-1.843v-6.83Z"/>
      <path id="Trazado_109127" data-name="Trazado 109127" d="M210.969,9190.541a3.08,3.08,0,0,1-2.362-.947,3.386,3.386,0,0,1-.884-2.405v-.253a3.732,3.732,0,0,1,.837-2.5,3.118,3.118,0,0,1,4.39-.146,3.2,3.2,0,0,1,.764,2.254v1h-4.077l-.013.038a1.77,1.77,0,0,0,.451,1.105,1.41,1.41,0,0,0,1.089.435,3.544,3.544,0,0,0,1.016-.123,4.651,4.651,0,0,0,.884-.388l.5,1.139a3.407,3.407,0,0,1-1.092.567A4.725,4.725,0,0,1,210.969,9190.541Zm-.165-5.669a.96.96,0,0,0-.808.392,2.04,2.04,0,0,0-.366,1.028l.019.032h2.26v-.164a1.477,1.477,0,0,0-.275-.937A.989.989,0,0,0,210.8,9184.872Z"/>
      <path id="Trazado_109128" data-name="Trazado 109128" d="M218.8,9190.408a3.825,3.825,0,0,1-.174-.492,3.482,3.482,0,0,1-.1-.53,2.544,2.544,0,0,1-.748.827,1.867,1.867,0,0,1-1.108.328,2.308,2.308,0,0,1-1.654-.553,1.979,1.979,0,0,1-.58-1.506,1.8,1.8,0,0,1,.773-1.556,3.855,3.855,0,0,1,2.257-.553h1.029v-.542a1.067,1.067,0,0,0-.259-.765,1.208,1.208,0,0,0-1.455-.054.77.77,0,0,0-.243.6l-1.781-.007-.006-.037a1.736,1.736,0,0,1,.751-1.493,3.275,3.275,0,0,1,2.09-.628,3.056,3.056,0,0,1,1.989.621,2.156,2.156,0,0,1,.763,1.771v2.822a5.373,5.373,0,0,0,.072.9,4.6,4.6,0,0,0,.231.84Zm-1.685-1.23a1.571,1.571,0,0,0,.864-.241,1.244,1.244,0,0,0,.512-.555v-.966h-1.029a1.225,1.225,0,0,0-.89.294.95.95,0,0,0-.3.71.707.707,0,0,0,.228.549A.88.88,0,0,0,217.111,9189.178Z"/>
      <path id="Trazado_109129" data-name="Trazado 109129" d="M224.666,9187.05a4.439,4.439,0,0,1,.7-2.607,2.265,2.265,0,0,1,1.966-.99,1.913,1.913,0,0,1,.922.221,2.21,2.21,0,0,1,.719.631v-3.744h1.85v9.849h-1.584l-.152-.833a2.28,2.28,0,0,1-.76.72,2.024,2.024,0,0,1-1.007.246,2.31,2.31,0,0,1-1.954-.922,3.937,3.937,0,0,1-.7-2.437Zm1.837.133a2.8,2.8,0,0,0,.3,1.419,1.053,1.053,0,0,0,.985.519,1.426,1.426,0,0,0,.695-.162,1.287,1.287,0,0,0,.485-.473v-2.929a1.426,1.426,0,0,0-.482-.5,1.275,1.275,0,0,0-.685-.181,1.039,1.039,0,0,0-.988.6,3.436,3.436,0,0,0-.313,1.575Z"/>
      <path id="Trazado_109130" data-name="Trazado 109130" d="M235.272,9190.541a3.08,3.08,0,0,1-2.362-.947,3.389,3.389,0,0,1-.883-2.405v-.253a3.731,3.731,0,0,1,.836-2.5,3.119,3.119,0,0,1,4.391-.146,3.207,3.207,0,0,1,.763,2.254v1H233.94l-.013.038a1.769,1.769,0,0,0,.451,1.105,1.412,1.412,0,0,0,1.089.435,3.557,3.557,0,0,0,1.017-.123,4.645,4.645,0,0,0,.883-.388l.5,1.139a3.407,3.407,0,0,1-1.092.567A4.721,4.721,0,0,1,235.272,9190.541Zm-.165-5.669a.957.957,0,0,0-.807.392,2.031,2.031,0,0,0-.367,1.028l.019.032h2.26v-.164a1.477,1.477,0,0,0-.275-.937A.988.988,0,0,0,235.107,9184.872Z"/>
      <path id="Trazado_109131" data-name="Trazado 109131" d="M247.392,9188.426h-3.226l-.625,1.982h-1.862l3.163-9.191h1.887l3.15,9.191h-1.862Zm-2.771-1.445h2.316l-1.136-3.61h-.038Z"/>
      <path id="Trazado_109132" data-name="Trazado 109132" d="M252.524,9190.408h-1.843v-9.849h1.843Z"/>
      <path id="Trazado_109133" data-name="Trazado 109133" d="M256.229,9181.905v1.673h1.149v1.294h-1.149v3.478a.805.805,0,0,0,.164.568.584.584,0,0,0,.442.171,1.677,1.677,0,0,0,.25-.016,2.28,2.28,0,0,0,.243-.055l.158,1.332a3.673,3.673,0,0,1-.543.143,3.209,3.209,0,0,1-.575.048,1.958,1.958,0,0,1-1.467-.525,2.287,2.287,0,0,1-.515-1.659v-3.484h-1v-1.294h1v-1.673Z"/>
      <path id="Trazado_109134" data-name="Trazado 109134" d="M260.6,9190.408h-1.843v-1.616H260.6Z"/>
      <path id="Trazado_109135" data-name="Trazado 109135" d="M192.971,9204.634a1.088,1.088,0,0,0,.789-.285,1.009,1.009,0,0,0,.3-.763h1.673l.019.038a2.129,2.129,0,0,1-.78,1.732,3.286,3.286,0,0,1-4.352-.268,3.678,3.678,0,0,1-.827-2.481v-.189a3.706,3.706,0,0,1,.824-2.481,2.911,2.911,0,0,1,2.351-.971,2.875,2.875,0,0,1,2.036.718,2.4,2.4,0,0,1,.748,1.9l-.013.037h-1.679a1.331,1.331,0,0,0-.291-.88.983.983,0,0,0-.8-.351,1.07,1.07,0,0,0-1.032.567,3.117,3.117,0,0,0-.3,1.462v.188a3.109,3.109,0,0,0,.3,1.473A1.078,1.078,0,0,0,192.971,9204.634Z"/>
      <path id="Trazado_109136" data-name="Trazado 109136" d="M200.8,9205.922a3.931,3.931,0,0,1-.173-.492,3.362,3.362,0,0,1-.1-.53,2.542,2.542,0,0,1-.748.826,1.865,1.865,0,0,1-1.108.329,2.31,2.31,0,0,1-1.655-.553,1.979,1.979,0,0,1-.58-1.506,1.8,1.8,0,0,1,.773-1.556,3.862,3.862,0,0,1,2.257-.553H200.5v-.542a1.065,1.065,0,0,0-.259-.765,1.2,1.2,0,0,0-1.455-.054.77.77,0,0,0-.243.6l-1.78-.007-.007-.037a1.734,1.734,0,0,1,.752-1.493,3.27,3.27,0,0,1,2.089-.628,3.054,3.054,0,0,1,1.989.621,2.154,2.154,0,0,1,.764,1.771v2.822a5.271,5.271,0,0,0,.072.9,4.523,4.523,0,0,0,.23.84Zm-1.685-1.23a1.582,1.582,0,0,0,.865-.24,1.245,1.245,0,0,0,.511-.557v-.965h-1.029a1.227,1.227,0,0,0-.89.294.95.95,0,0,0-.3.709.707.707,0,0,0,.227.55A.883.883,0,0,0,199.12,9204.691Z"/>
      <path id="Trazado_109137" data-name="Trazado 109137" d="M203.456,9202.563a4.441,4.441,0,0,1,.7-2.607,2.265,2.265,0,0,1,1.966-.99,1.924,1.924,0,0,1,.922.22,2.239,2.239,0,0,1,.72.632v-3.743h1.849v9.848h-1.584l-.152-.833a2.267,2.267,0,0,1-.76.719,2.014,2.014,0,0,1-1.007.247,2.31,2.31,0,0,1-1.954-.922,3.937,3.937,0,0,1-.7-2.437Zm1.837.134a2.809,2.809,0,0,0,.3,1.419,1.054,1.054,0,0,0,.985.518,1.426,1.426,0,0,0,.7-.162,1.289,1.289,0,0,0,.486-.473v-2.928a1.424,1.424,0,0,0-.483-.5,1.284,1.284,0,0,0-.685-.181,1.039,1.039,0,0,0-.988.6,3.426,3.426,0,0,0-.313,1.574Z"/>
      <path id="Trazado_109138" data-name="Trazado 109138" d="M214.062,9206.055a3.077,3.077,0,0,1-2.362-.947,3.391,3.391,0,0,1-.883-2.405v-.252a3.734,3.734,0,0,1,.836-2.506,3.119,3.119,0,0,1,4.391-.146,3.206,3.206,0,0,1,.763,2.254v1H212.73l-.013.038a1.775,1.775,0,0,0,.451,1.106,1.411,1.411,0,0,0,1.089.434,3.557,3.557,0,0,0,1.017-.123,4.679,4.679,0,0,0,.884-.388l.5,1.139a3.388,3.388,0,0,1-1.092.567A4.748,4.748,0,0,1,214.062,9206.055Zm-.165-5.669a.955.955,0,0,0-.807.392,2.031,2.031,0,0,0-.367,1.028l.019.032H215v-.164a1.479,1.479,0,0,0-.275-.937A.988.988,0,0,0,213.9,9200.386Z"/>
      <path id="Trazado_109139" data-name="Trazado 109139" d="M221.472,9200.676l-.675-.019a1.232,1.232,0,0,0-.676.17,1.083,1.083,0,0,0-.4.479v4.615h-1.837v-6.83h1.71l.083,1.009a2.15,2.15,0,0,1,.621-.836,1.463,1.463,0,0,1,1.136-.277c.078.015.157.032.237.054Z"/>
      <path id="Trazado_109140" data-name="Trazado 109140" d="M226.415,9205.922a3.776,3.776,0,0,1-.173-.492,3.366,3.366,0,0,1-.105-.53,2.519,2.519,0,0,1-.748.826,1.86,1.86,0,0,1-1.107.329,2.309,2.309,0,0,1-1.655-.553,1.979,1.979,0,0,1-.58-1.506,1.8,1.8,0,0,1,.773-1.556,3.862,3.862,0,0,1,2.257-.553h1.029v-.542a1.065,1.065,0,0,0-.259-.765,1.2,1.2,0,0,0-1.455-.054.77.77,0,0,0-.243.6l-1.781-.007-.006-.037a1.734,1.734,0,0,1,.752-1.493,3.27,3.27,0,0,1,2.089-.628,3.056,3.056,0,0,1,1.989.621,2.156,2.156,0,0,1,.763,1.771v2.822a5.268,5.268,0,0,0,.073.9,4.523,4.523,0,0,0,.23.84Zm-1.685-1.23a1.582,1.582,0,0,0,.865-.24,1.25,1.25,0,0,0,.511-.557v-.965h-1.029a1.225,1.225,0,0,0-.89.294.95.95,0,0,0-.3.709.707.707,0,0,0,.227.55A.882.882,0,0,0,224.73,9204.691Z"/>
    </g>
    <g id="Grupo_56370" data-name="Grupo 56370">
      <path id="Trazado_109141" data-name="Trazado 109141" d="M423.935,9188.988h4.091v1.42h-5.934v-9.191h1.843Z"/>
      <path id="Trazado_109142" data-name="Trazado 109142" d="M430.317,9181.047h1.95l.013.038-1.748,1.64h-1.471Zm.593,9.361h-1.843v-6.83h1.843Z"/>
      <path id="Trazado_109143" data-name="Trazado 109143" d="M434.168,9183.578l.082.979a2.485,2.485,0,0,1,.839-.814,2.184,2.184,0,0,1,1.118-.29,2.061,2.061,0,0,1,1.616.648,3.007,3.007,0,0,1,.581,2.039v4.269h-1.85v-4.271a1.385,1.385,0,0,0-.278-.978,1.115,1.115,0,0,0-.84-.288,1.434,1.434,0,0,0-.656.147,1.358,1.358,0,0,0-.486.422v4.967H432.45v-6.83Z"/>
      <path id="Trazado_109144" data-name="Trazado 109144" d="M442.8,9190.541a3.08,3.08,0,0,1-2.362-.947,3.386,3.386,0,0,1-.884-2.405v-.253a3.732,3.732,0,0,1,.837-2.5,3.118,3.118,0,0,1,4.39-.146,3.2,3.2,0,0,1,.764,2.254v1h-4.078l-.012.038a1.764,1.764,0,0,0,.451,1.105,1.41,1.41,0,0,0,1.089.435,3.545,3.545,0,0,0,1.016-.123,4.679,4.679,0,0,0,.884-.388l.5,1.139a3.4,3.4,0,0,1-1.093.567A4.714,4.714,0,0,1,442.8,9190.541Zm-.165-5.669a.96.96,0,0,0-.808.392,2.04,2.04,0,0,0-.366,1.028l.019.032h2.26v-.164a1.477,1.477,0,0,0-.275-.937A.989.989,0,0,0,442.639,9184.872Z"/>
      <path id="Trazado_109145" data-name="Trazado 109145" d="M450.631,9190.408a3.823,3.823,0,0,1-.174-.492,3.481,3.481,0,0,1-.1-.53,2.544,2.544,0,0,1-.748.827,1.867,1.867,0,0,1-1.108.328,2.308,2.308,0,0,1-1.654-.553,1.98,1.98,0,0,1-.581-1.506,1.8,1.8,0,0,1,.774-1.556,3.855,3.855,0,0,1,2.257-.553h1.029v-.542a1.067,1.067,0,0,0-.259-.765,1.208,1.208,0,0,0-1.455-.054.77.77,0,0,0-.243.6l-1.781-.007-.006-.037a1.736,1.736,0,0,1,.751-1.493,3.275,3.275,0,0,1,2.09-.628,3.056,3.056,0,0,1,1.989.621,2.156,2.156,0,0,1,.763,1.771v2.822a5.373,5.373,0,0,0,.072.9,4.6,4.6,0,0,0,.231.84Zm-1.685-1.23a1.571,1.571,0,0,0,.864-.241,1.244,1.244,0,0,0,.512-.555v-.966h-1.029a1.225,1.225,0,0,0-.89.294.946.946,0,0,0-.3.71.707.707,0,0,0,.228.549A.88.88,0,0,0,448.946,9189.178Z"/>
      <path id="Trazado_109146" data-name="Trazado 109146" d="M456.5,9187.05a4.439,4.439,0,0,1,.7-2.607,2.265,2.265,0,0,1,1.966-.99,1.913,1.913,0,0,1,.922.221,2.21,2.21,0,0,1,.719.631v-3.744h1.85v9.849h-1.584l-.152-.833a2.274,2.274,0,0,1-.761.72,2.017,2.017,0,0,1-1.006.246,2.31,2.31,0,0,1-1.954-.922,3.937,3.937,0,0,1-.7-2.437Zm1.837.133a2.8,2.8,0,0,0,.3,1.419,1.053,1.053,0,0,0,.985.519,1.426,1.426,0,0,0,.7-.162,1.294,1.294,0,0,0,.485-.473v-2.929a1.434,1.434,0,0,0-.482-.5,1.276,1.276,0,0,0-.686-.181,1.039,1.039,0,0,0-.987.6,3.436,3.436,0,0,0-.313,1.575Z"/>
      <path id="Trazado_109147" data-name="Trazado 109147" d="M467.107,9190.541a3.08,3.08,0,0,1-2.362-.947,3.389,3.389,0,0,1-.883-2.405v-.253a3.731,3.731,0,0,1,.836-2.5,3.119,3.119,0,0,1,4.391-.146,3.207,3.207,0,0,1,.763,2.254v1h-4.077l-.013.038a1.77,1.77,0,0,0,.451,1.105,1.412,1.412,0,0,0,1.089.435,3.557,3.557,0,0,0,1.017-.123,4.645,4.645,0,0,0,.883-.388l.5,1.139a3.407,3.407,0,0,1-1.092.567A4.725,4.725,0,0,1,467.107,9190.541Zm-.165-5.669a.957.957,0,0,0-.807.392,2.031,2.031,0,0,0-.367,1.028l.019.032h2.26v-.164a1.477,1.477,0,0,0-.275-.937A.988.988,0,0,0,466.942,9184.872Z"/>
      <path id="Trazado_109148" data-name="Trazado 109148" d="M479.227,9188.426H476l-.625,1.982h-1.862l3.163-9.191h1.887l3.15,9.191h-1.862Zm-2.771-1.445h2.316l-1.136-3.61H477.6Z"/>
      <path id="Trazado_109149" data-name="Trazado 109149" d="M484.359,9190.408h-1.843v-9.849h1.843Z"/>
      <path id="Trazado_109150" data-name="Trazado 109150" d="M488.064,9181.905v1.673h1.149v1.294h-1.149v3.478a.805.805,0,0,0,.164.568.584.584,0,0,0,.442.171,1.678,1.678,0,0,0,.25-.016,2.278,2.278,0,0,0,.243-.055l.158,1.332a3.673,3.673,0,0,1-.543.143,3.218,3.218,0,0,1-.575.048,1.958,1.958,0,0,1-1.467-.525,2.287,2.287,0,0,1-.515-1.659v-3.484h-1v-1.294h1v-1.673Z"/>
      <path id="Trazado_109151" data-name="Trazado 109151" d="M492.433,9190.408H490.59v-1.616h1.843Z"/>
      <path id="Trazado_109152" data-name="Trazado 109152" d="M424.806,9204.634a1.088,1.088,0,0,0,.789-.285,1.009,1.009,0,0,0,.3-.763h1.673l.019.038a2.129,2.129,0,0,1-.78,1.732,3.287,3.287,0,0,1-4.353-.268,3.682,3.682,0,0,1-.826-2.481v-.189a3.706,3.706,0,0,1,.824-2.481,2.911,2.911,0,0,1,2.351-.971,2.875,2.875,0,0,1,2.036.718,2.4,2.4,0,0,1,.748,1.9l-.013.037h-1.679a1.331,1.331,0,0,0-.291-.88.983.983,0,0,0-.8-.351,1.07,1.07,0,0,0-1.032.567,3.117,3.117,0,0,0-.3,1.462v.188a3.109,3.109,0,0,0,.3,1.473A1.078,1.078,0,0,0,424.806,9204.634Z"/>
      <path id="Trazado_109153" data-name="Trazado 109153" d="M432.64,9205.922a3.928,3.928,0,0,1-.173-.492,3.362,3.362,0,0,1-.1-.53,2.541,2.541,0,0,1-.748.826,1.865,1.865,0,0,1-1.108.329,2.31,2.31,0,0,1-1.655-.553,1.979,1.979,0,0,1-.58-1.506,1.8,1.8,0,0,1,.773-1.556,3.862,3.862,0,0,1,2.257-.553h1.029v-.542a1.065,1.065,0,0,0-.259-.765,1.2,1.2,0,0,0-1.455-.054.77.77,0,0,0-.243.6l-1.78-.007-.007-.037a1.734,1.734,0,0,1,.752-1.493,3.27,3.27,0,0,1,2.089-.628,3.054,3.054,0,0,1,1.989.621,2.153,2.153,0,0,1,.763,1.771v2.822a5.27,5.27,0,0,0,.073.9,4.522,4.522,0,0,0,.23.84Zm-1.685-1.23a1.582,1.582,0,0,0,.865-.24,1.25,1.25,0,0,0,.511-.557v-.965H431.3a1.227,1.227,0,0,0-.89.294.95.95,0,0,0-.3.709.707.707,0,0,0,.227.55A.883.883,0,0,0,430.955,9204.691Z"/>
      <path id="Trazado_109154" data-name="Trazado 109154" d="M435.291,9202.563a4.441,4.441,0,0,1,.7-2.607,2.265,2.265,0,0,1,1.966-.99,1.924,1.924,0,0,1,.922.22,2.225,2.225,0,0,1,.719.632v-3.743h1.85v9.848h-1.584l-.152-.833a2.267,2.267,0,0,1-.76.719,2.014,2.014,0,0,1-1.007.247,2.31,2.31,0,0,1-1.954-.922,3.937,3.937,0,0,1-.7-2.437Zm1.837.134a2.809,2.809,0,0,0,.3,1.419,1.054,1.054,0,0,0,.985.518,1.426,1.426,0,0,0,.7-.162,1.28,1.28,0,0,0,.485-.473v-2.928a1.413,1.413,0,0,0-.482-.5,1.284,1.284,0,0,0-.685-.181,1.039,1.039,0,0,0-.988.6,3.426,3.426,0,0,0-.313,1.574Z"/>
      <path id="Trazado_109155" data-name="Trazado 109155" d="M445.9,9206.055a3.077,3.077,0,0,1-2.362-.947,3.391,3.391,0,0,1-.883-2.405v-.252a3.729,3.729,0,0,1,.836-2.506,3.119,3.119,0,0,1,4.391-.146,3.206,3.206,0,0,1,.763,2.254v1h-4.077l-.013.038A1.775,1.775,0,0,0,445,9204.2a1.411,1.411,0,0,0,1.089.434,3.557,3.557,0,0,0,1.017-.123,4.646,4.646,0,0,0,.883-.388l.5,1.139a3.388,3.388,0,0,1-1.092.567A4.748,4.748,0,0,1,445.9,9206.055Zm-.165-5.669a.955.955,0,0,0-.807.392,2.032,2.032,0,0,0-.367,1.028l.019.032h2.26v-.164a1.479,1.479,0,0,0-.275-.937A.988.988,0,0,0,445.732,9200.386Z"/>
      <path id="Trazado_109156" data-name="Trazado 109156" d="M453.307,9200.676l-.675-.019a1.232,1.232,0,0,0-.676.17,1.083,1.083,0,0,0-.4.479v4.615h-1.837v-6.83h1.71l.083,1.009a2.15,2.15,0,0,1,.621-.836,1.463,1.463,0,0,1,1.136-.277c.078.015.157.032.237.054Z"/>
      <path id="Trazado_109157" data-name="Trazado 109157" d="M458.25,9205.922a3.936,3.936,0,0,1-.174-.492,3.488,3.488,0,0,1-.1-.53,2.531,2.531,0,0,1-.748.826,1.86,1.86,0,0,1-1.107.329,2.309,2.309,0,0,1-1.655-.553,1.979,1.979,0,0,1-.58-1.506,1.8,1.8,0,0,1,.773-1.556,3.862,3.862,0,0,1,2.257-.553h1.029v-.542a1.065,1.065,0,0,0-.259-.765,1.2,1.2,0,0,0-1.455-.054.77.77,0,0,0-.243.6l-1.781-.007-.006-.037a1.734,1.734,0,0,1,.752-1.493,3.27,3.27,0,0,1,2.089-.628,3.056,3.056,0,0,1,1.989.621,2.156,2.156,0,0,1,.763,1.771v2.822a5.267,5.267,0,0,0,.073.9,4.525,4.525,0,0,0,.23.84Zm-1.685-1.23a1.578,1.578,0,0,0,.864-.24,1.247,1.247,0,0,0,.512-.557v-.965h-1.029a1.225,1.225,0,0,0-.89.294.95.95,0,0,0-.3.709.707.707,0,0,0,.227.55A.882.882,0,0,0,456.565,9204.691Z"/>
    </g>
    <g id="Grupo_56371" data-name="Grupo 56371">
      <path id="Trazado_109158" data-name="Trazado 109158" d="M292.187,9186.233h-1.336v-5.483H289.5v-.943l2.691-.237Z"/>
      <path id="Trazado_109159" data-name="Trazado 109159" d="M299.034,9183.638a2.938,2.938,0,0,1-.606,2.007,2.322,2.322,0,0,1-3.293,0,2.928,2.928,0,0,1-.609-2.007v-1.469a2.945,2.945,0,0,1,.607-2.007,2.307,2.307,0,0,1,3.29,0,2.93,2.93,0,0,1,.611,2.007Zm-1.332-1.607a2.2,2.2,0,0,0-.237-1.159.827.827,0,0,0-1.374,0,2.234,2.234,0,0,0-.233,1.162v1.732a2.211,2.211,0,0,0,.236,1.17.771.771,0,0,0,.693.367.758.758,0,0,0,.682-.367,2.234,2.234,0,0,0,.233-1.17Z"/>
      <path id="Trazado_109160" data-name="Trazado 109160" d="M304.395,9185.3a.791.791,0,0,0,.572-.207.734.734,0,0,0,.215-.553h1.213l.013.027a1.544,1.544,0,0,1-.564,1.257,2.387,2.387,0,0,1-3.157-.2,2.668,2.668,0,0,1-.6-1.8v-.137a2.69,2.69,0,0,1,.6-1.8,2.115,2.115,0,0,1,1.705-.7,2.081,2.081,0,0,1,1.476.521,1.727,1.727,0,0,1,.542,1.373l-.009.027h-1.217a.96.96,0,0,0-.211-.638.711.711,0,0,0-.581-.254.774.774,0,0,0-.748.411,2.259,2.259,0,0,0-.218,1.06v.138a2.251,2.251,0,0,0,.218,1.066A.78.78,0,0,0,304.395,9185.3Z"/>
      <path id="Trazado_109161" data-name="Trazado 109161" d="M308.408,9181.281l.056.653a1.66,1.66,0,0,1,.6-.551,1.714,1.714,0,0,1,.83-.194,1.51,1.51,0,0,1,.815.211,1.292,1.292,0,0,1,.513.636,1.7,1.7,0,0,1,.6-.622,1.616,1.616,0,0,1,.861-.225,1.427,1.427,0,0,1,1.155.506,2.356,2.356,0,0,1,.424,1.54v3h-1.337v-3.01a1.257,1.257,0,0,0-.183-.784.669.669,0,0,0-.545-.22.933.933,0,0,0-.492.126.913.913,0,0,0-.331.351c0,.059,0,.107,0,.149s.005.083.005.126v3.262h-1.332v-3.01a1.26,1.26,0,0,0-.183-.777.665.665,0,0,0-.55-.227,1.035,1.035,0,0,0-.473.1.905.905,0,0,0-.337.292v3.619h-1.332v-4.952Z"/>
      <path id="Trazado_109162" data-name="Trazado 109162" d="M317.957,9184.869a.468.468,0,0,0-.213-.38,2.171,2.171,0,0,0-.79-.283,3.183,3.183,0,0,1-1.325-.529,1.148,1.148,0,0,1-.446-.954,1.363,1.363,0,0,1,.538-1.087,2.179,2.179,0,0,1,1.439-.446,2.361,2.361,0,0,1,1.508.444,1.31,1.31,0,0,1,.538,1.121l-.009.027h-1.29a.655.655,0,0,0-.19-.485.914.914,0,0,0-1.067-.03.5.5,0,0,0-.185.4.448.448,0,0,0,.194.375,2.106,2.106,0,0,0,.79.262,3.189,3.189,0,0,1,1.359.537,1.184,1.184,0,0,1,.444.978,1.3,1.3,0,0,1-.572,1.092,2.481,2.481,0,0,1-1.511.423,2.3,2.3,0,0,1-1.563-.5,1.4,1.4,0,0,1-.547-1.143l.01-.026h1.222a.692.692,0,0,0,.261.576,1.079,1.079,0,0,0,.645.179.92.92,0,0,0,.565-.147A.469.469,0,0,0,317.957,9184.869Z"/>
    </g>
    <g id="Grupo_56372" data-name="Grupo 56372">
      <path id="Trazado_109163" data-name="Trazado 109163" d="M380.588,9186.233h-1.337v-5.483H377.9v-.943l2.692-.237Z"/>
      <path id="Trazado_109164" data-name="Trazado 109164" d="M383.114,9183.281l.384-3.712h3.717v1.07h-2.622l-.184,1.538a1.63,1.63,0,0,1,.444-.227,1.828,1.828,0,0,1,.577-.094,1.852,1.852,0,0,1,1.49.581,2.413,2.413,0,0,1,.529,1.657,2.281,2.281,0,0,1-.58,1.6,2.139,2.139,0,0,1-1.668.636,2.5,2.5,0,0,1-1.574-.5,1.592,1.592,0,0,1-.632-1.383l.009-.022,1.286-.064a.931.931,0,0,0,.252.693.893.893,0,0,0,.659.25.772.772,0,0,0,.689-.331,1.531,1.531,0,0,0,.222-.867,1.6,1.6,0,0,0-.238-.922.8.8,0,0,0-.7-.347,1.032,1.032,0,0,0-.588.141.78.78,0,0,0-.291.386Z"/>
      <path id="Trazado_109165" data-name="Trazado 109165" d="M392.8,9185.3a.791.791,0,0,0,.572-.207.73.73,0,0,0,.215-.553H394.8l.014.027a1.545,1.545,0,0,1-.565,1.257,2.385,2.385,0,0,1-3.156-.2,2.669,2.669,0,0,1-.6-1.8v-.137a2.691,2.691,0,0,1,.6-1.8,2.116,2.116,0,0,1,1.705-.7,2.078,2.078,0,0,1,1.476.521,1.731,1.731,0,0,1,.543,1.373l-.009.027h-1.218a.965.965,0,0,0-.21-.638.715.715,0,0,0-.582-.254.775.775,0,0,0-.748.411,2.26,2.26,0,0,0-.217,1.06v.138a2.252,2.252,0,0,0,.217,1.066A.782.782,0,0,0,392.8,9185.3Z"/>
      <path id="Trazado_109166" data-name="Trazado 109166" d="M396.809,9181.281l.055.653a1.668,1.668,0,0,1,.6-.551,1.718,1.718,0,0,1,.831-.194,1.513,1.513,0,0,1,.815.211,1.3,1.3,0,0,1,.512.636,1.71,1.71,0,0,1,.6-.622,1.616,1.616,0,0,1,.861-.225,1.429,1.429,0,0,1,1.156.506,2.362,2.362,0,0,1,.423,1.54v3h-1.336v-3.01a1.263,1.263,0,0,0-.183-.784.671.671,0,0,0-.545-.22.939.939,0,0,0-.493.126.921.921,0,0,0-.331.351c0,.059,0,.107,0,.149s.005.083.005.126v3.262h-1.332v-3.01a1.26,1.26,0,0,0-.183-.777.663.663,0,0,0-.549-.227,1.042,1.042,0,0,0-.474.1.9.9,0,0,0-.336.292v3.619h-1.332v-4.952Z"/>
      <path id="Trazado_109167" data-name="Trazado 109167" d="M406.357,9184.869a.468.468,0,0,0-.213-.38,2.171,2.171,0,0,0-.789-.283,3.177,3.177,0,0,1-1.325-.529,1.146,1.146,0,0,1-.447-.954,1.363,1.363,0,0,1,.538-1.087,2.182,2.182,0,0,1,1.44-.446,2.365,2.365,0,0,1,1.508.444,1.31,1.31,0,0,1,.538,1.121l-.01.027h-1.29a.655.655,0,0,0-.19-.485.914.914,0,0,0-1.067-.03.5.5,0,0,0-.185.4.448.448,0,0,0,.194.375,2.106,2.106,0,0,0,.79.262,3.189,3.189,0,0,1,1.359.537,1.184,1.184,0,0,1,.444.978,1.3,1.3,0,0,1-.572,1.092,2.478,2.478,0,0,1-1.51.423,2.293,2.293,0,0,1-1.563-.5,1.4,1.4,0,0,1-.547-1.143l.009-.026h1.222a.692.692,0,0,0,.261.576,1.083,1.083,0,0,0,.645.179.918.918,0,0,0,.565-.147A.469.469,0,0,0,406.357,9184.869Z"/>
    </g>
  </g>
</svg>
