<svg xmlns="http://www.w3.org/2000/svg" width="156.029" height="543.692" viewBox="0 0 156.029 543.692">
  <g id="Grupo_56541" data-name="Grupo 56541" transform="translate(-677.767 -782.972)">
    <rect id="Rectángulo_10348" data-name="Rectángulo 10348" width="156.029" height="543.692" rx="27.251" transform="translate(677.767 782.972)" fill="#fff"/>
    <g id="Grupo_56540" data-name="Grupo 56540" transform="translate(691.845 790.365)">
      <g id="Grupo_56530" data-name="Grupo 56530" transform="translate(0)">
        <g id="Grupo_56515" data-name="Grupo 56515" transform="translate(0 451.24)">
          <path id="Trazado_109623" data-name="Trazado 109623" d="M724.526,1412.487l6.855-3.669a9.215,9.215,0,0,1,8.842-5.889c6.7.193,9.7,2.606,11.916,6.565s2.8,3.959,5.214,5.021,30.963,15.931,33.633,18.152a8,8,0,0,0,6.242,1.448s10.042-1.738,14.29,2.027,3.572,9.269-.58,11.3-10.524,3.09-15.641,0-35.787-20.662-35.787-20.662-19.054-7.242-23.689-5.986a19.481,19.481,0,0,0-6.855,3.09s-4.345,6.179,2.993,14.193,20.083,17.283,20.083,17.283l9.172,5.889s14.913,4.441,15.471,10.042-2.147,8.206-8.036,8.69-15.931-2.028-18.732-8.787a13.911,13.911,0,0,1-.579-3.766c-.1-2.414-37.269-24.814-37.269-24.814s-11.3-3.186-14.1-8.979,2.414-11.683,2.414-11.683a11.831,11.831,0,0,1,8.98-1.931l6.662-3.766Z" transform="translate(-696.879 -1402.646)" fill="#fff"/>
          <path id="Trazado_109624" data-name="Trazado 109624" d="M767.071,1480.215c-6.041,0-14.858-2.633-17.5-9.015a13.994,13.994,0,0,1-.6-3.861c-.19-1.722-22.845-15.975-37.1-24.568-.831-.238-11.465-3.385-14.235-9.116-2.847-5.891,2.4-11.927,2.455-11.987a11.953,11.953,0,0,1,9.135-2.036l6.578-3.718,8.511-3.773,6.756-3.616a9.538,9.538,0,0,1,8.755-5.975q.157,0,.315,0c6.057.175,9.576,2.118,12.151,6.707,2,3.572,2.6,3.828,4.557,4.673l.528.229c2.5,1.1,31.062,16,33.7,18.192a7.769,7.769,0,0,0,6.006,1.39c.426-.074,10.233-1.719,14.533,2.092a7.894,7.894,0,0,1,2.912,6.92,6.276,6.276,0,0,1-3.554,4.833c-4.246,2.073-10.655,3.16-15.906-.012-5.057-3.053-35.476-20.484-35.783-20.659-.15-.053-18.975-7.177-23.478-5.959a19.849,19.849,0,0,0-6.723,3.013c-.354.53-3.907,6.279,2.993,13.814,7.234,7.9,19.914,17.154,20.041,17.247l9.126,5.859c1.017.307,15.07,4.636,15.629,10.269.269,2.7-.2,4.729-1.423,6.2-1.344,1.611-3.589,2.524-6.866,2.793C768.1,1480.2,767.6,1480.215,767.071,1480.215Zm-59.918-60.183a11.174,11.174,0,0,0-6.682,2.033c-.02.028-5.026,5.792-2.341,11.349,2.713,5.613,13.811,8.8,13.922,8.833l.068.029c6.229,3.754,37.306,22.6,37.4,25.041a13.8,13.8,0,0,0,.563,3.683c2.763,6.669,12.633,9.076,18.447,8.6,3.12-.256,5.241-1.105,6.483-2.6,1.127-1.352,1.552-3.246,1.3-5.791-.531-5.351-15.126-9.759-15.273-9.8l-.07-.033-9.173-5.89c-.141-.1-12.865-9.386-20.137-17.329-7.4-8.085-3.061-14.477-3.016-14.541l.05-.054a19.593,19.593,0,0,1,6.961-3.144c4.661-1.269,23.076,5.7,23.859,5.995.346.195,30.772,17.629,35.833,20.684s11.451,1.907,15.376-.012a5.726,5.726,0,0,0,3.247-4.409,7.351,7.351,0,0,0-2.73-6.43c-4.1-3.634-13.959-1.979-14.059-1.962a8.192,8.192,0,0,1-6.467-1.509c-2.617-2.177-31.076-17.015-33.567-18.111l-.523-.227c-2.039-.879-2.725-1.175-4.821-4.911-2.083-3.715-4.867-6.228-11.682-6.424a8.953,8.953,0,0,0-8.572,5.7l-.036.1-6.969,3.729-8.5,3.765-6.722,3.8-.1-.015A13.582,13.582,0,0,0,707.153,1420.033Z" transform="translate(-696.785 -1402.549)" fill="#999"/>
        </g>
        <path id="Trazado_109625" data-name="Trazado 109625" d="M724.526,1403.1l6.855-3.669a9.217,9.217,0,0,1,8.842-5.89c6.7.193,9.7,2.607,11.916,6.566s2.8,3.959,5.214,5.021,30.963,15.931,33.633,18.151a8,8,0,0,0,6.242,1.448s10.042-1.738,14.29,2.028,3.572,9.269-.58,11.3-10.524,3.09-15.641,0-35.787-20.662-35.787-20.662-19.054-7.242-23.689-5.986a19.469,19.469,0,0,0-6.855,3.09s-4.345,6.179,2.993,14.193,20.083,17.282,20.083,17.282l9.172,5.89s14.913,4.441,15.471,10.041-2.147,8.207-8.036,8.69-15.931-2.028-18.732-8.786a13.91,13.91,0,0,1-.579-3.766c-.1-2.414-37.269-24.814-37.269-24.814s-11.3-3.186-14.1-8.979,2.414-11.683,2.414-11.683a11.83,11.83,0,0,1,8.98-1.931l6.662-3.766Z" transform="translate(-696.879 -948.967)" fill="#464646"/>
        <g id="Grupo_56516" data-name="Grupo 56516" transform="translate(20.615 438.31)">
          <rect id="Rectángulo_10349" data-name="Rectángulo 10349" width="11.586" height="22.497" rx="5.793" transform="translate(0.37 0.37)" fill="#fff"/>
          <path id="Trazado_109626" data-name="Trazado 109626" d="M731.232,1408.319h-.869a5.735,5.735,0,0,1-5.729-5.729v-11.779a5.735,5.735,0,0,1,5.729-5.729h.869a5.735,5.735,0,0,1,5.729,5.729v11.779A5.736,5.736,0,0,1,731.232,1408.319Zm-.869-22.5a4.994,4.994,0,0,0-4.988,4.989v11.779a4.994,4.994,0,0,0,4.988,4.989h.869a5,5,0,0,0,4.988-4.989v-11.779a5,5,0,0,0-4.988-4.989Z" transform="translate(-724.634 -1385.082)" fill="#999"/>
        </g>
        <ellipse id="Elipse_4368" data-name="Elipse 4368" cx="5.793" cy="4.007" rx="5.793" ry="4.007" transform="translate(20.985 437.135)" fill="#464646"/>
        <g id="Grupo_56517" data-name="Grupo 56517" transform="translate(36.441 37.532)">
          <path id="Trazado_109627" data-name="Trazado 109627" d="M827.325,1003.752c-1.612-5.062-8.935-13.385-8.935-13.385a6.454,6.454,0,0,1-.644-4.373l1.842-17.97,5.724-23.081,3.9-7.2s5.161-6.729,4.5-12.345l-1.9-6.607s-.161-5.622-.05-9.494c.026-.832.066-1.573.124-2.141l2.355-8.467.035-.326.014-.051.445-4.178h-.01l.329-3.1s.569-3.5-1.786-5.454a59.157,59.157,0,0,0-6.576-4.375s-7.934-3.433-10.92-5.435c0,0-2.9-1.4-3.025-7.754s-.559-6.473.415-9.464l2.264-7.241a29.327,29.327,0,0,0-15.694-7s-9.613-1.446-8.969,2.317a149.3,149.3,0,0,1-5.461,18.8s-4.381,7.338-9.393,7.915l-10.491,2.126s-15.512,1.652-16.547,7.086c0,0-4.019,4.336-1.827,20.454l.608,3.3,20.718,78.263.871,2.178-.871,3.458s-12.42,19.7-14.042,36.883c0,0,.269,43.352,2.2,59.379s7.926,50.98,7.926,50.98,2.31,16.993.378,28-3.476,21.435,0,38.621,2.124,34.952,2.124,34.952l-.579,9.269s1.876,4.957,9.531,4.828,8.942-7.4,8.942-7.4l3.541-45.7s1.707-22.207,1.047-27.808,1.324-14.386,1.324-14.386l4.387-22.3,1.17,14.29s-.4,7.917-2.521,11.973-2.7,19.5-2.028,23.559,2.608,21.241,2.608,21.241l.58,29.352s3.862,5.6,8.883,5.6,8.69-5.986,8.69-5.986l1.158-32.828,4.055-26.262s.193-13.324.193-16.028,2.124-9.462,3.862-11.972.58-13.9,1.159-18.925,5.407-36.883,5.407-36.883,2.317-40.938.58-56A320.7,320.7,0,0,1,827.325,1003.752Z" transform="translate(-746.112 -843.76)" fill="#fff"/>
          <path id="Trazado_109628" data-name="Trazado 109628" d="M775.527,1253.3c-7.521,0-9.485-4.959-9.5-5.009l-.021-.056.583-9.328c.014-.181,1.309-17.93-2.119-34.88-3.371-16.666-2.062-26.976,0-38.724,1.9-10.839-.356-27.745-.378-27.915-.059-.34-6.017-35.132-7.926-50.983s-2.2-58.978-2.2-59.412c1.576-16.725,13.447-36.009,14.06-36.995l.839-3.327-.838-2.1-20.728-78.295-.614-3.318c-2.075-15.252,1.343-20.026,1.842-20.631,1.181-5.513,16.136-7.168,16.774-7.236l10.467-2.122c4.839-.558,9.166-7.713,9.209-7.786a149.835,149.835,0,0,0,5.418-18.661,1.848,1.848,0,0,1,.509-1.648c1.906-1.945,8.5-.978,8.784-.936a29.886,29.886,0,0,1,15.848,7.081l.121.118-2.314,7.4a11.289,11.289,0,0,0-.543,5.3c.047,1.022.105,2.292.139,4.071.116,6.07,2.842,7.5,2.869,7.51,2.963,1.983,10.829,5.394,10.908,5.428a59.655,59.655,0,0,1,6.643,4.417c2.449,2.032,1.908,5.564,1.883,5.712l-.293,2.765h0l-.024.318-.494,4.555-2.363,8.512c-.045.476-.087,1.19-.115,2.075-.1,3.66.036,8.959.05,9.442l1.888,6.573c.677,5.706-4.333,12.312-4.546,12.591l-3.863,7.13-5.716,23.048-1.835,17.931a6.266,6.266,0,0,0,.609,4.207c.268.3,7.347,8.379,8.958,13.439l.013.086a322.79,322.79,0,0,0,1.62,32.858c1.721,14.913-.555,55.638-.578,56.048-.051.345-4.836,31.941-5.407,36.9a69.529,69.529,0,0,0-.162,7.468c.047,4.885.094,9.938-1.044,11.582-1.64,2.368-3.813,9.1-3.813,11.814,0,2.674-.191,15.9-.193,16.032l-4.059,26.3-1.158,32.869-.039.062c-.152.25-3.809,6.119-8.926,6.119s-8.95-5.487-9.112-5.721l-.047-.069v-.083l-.58-29.352c-.017-.147-1.936-17.2-2.6-21.2-.645-3.866-.186-19.451,2.056-23.733,2.071-3.954,2.486-11.779,2.49-11.859l-1.006-12.261-4,20.343c-.021.095-1.968,8.813-1.322,14.3.656,5.563-.976,26.953-1.045,27.862l-3.541,45.7c-.016.1-1.421,7.527-9.214,7.658Zm-8.964-5.153c.229.542,2.173,4.6,8.955,4.6l.291,0c7.33-.124,8.622-6.886,8.673-7.173l3.537-45.675c.017-.222,1.7-22.244,1.048-27.754-.659-5.582,1.309-14.392,1.329-14.48l4.772-24.257,1.333,16.282c-.016.363-.426,8.061-2.553,12.124-2.038,3.892-2.7,19.193-2,23.385.67,4.016,2.59,21.084,2.61,21.256l.58,29.292c.452.623,4.082,5.414,8.607,5.414s8.015-5.174,8.415-5.795l1.155-32.752,4.059-26.3c0-.095.19-13.315.19-15.985,0-2.846,2.193-9.648,3.911-12.13,1.038-1.5.99-6.686.946-11.26a69.906,69.906,0,0,1,.166-7.538c.572-4.968,5.359-36.573,5.407-36.893.021-.383,2.294-41.061.579-55.927a322.842,322.842,0,0,1-1.623-32.881c-1.6-4.953-8.793-13.162-8.865-13.245a6.634,6.634,0,0,1-.7-4.629l1.833-17.925,5.757-23.186,3.9-7.2c.076-.1,5.109-6.744,4.469-12.181l-1.9-6.631c0-.056-.159-5.675-.051-9.51.029-.9.072-1.626.126-2.161l2.364-8.513.049-.379.4-3.814h0l.024-.318.329-3.1c.007-.049.514-3.385-1.688-5.211a59.16,59.16,0,0,0-6.537-4.349c-.3-.127-7.963-3.452-10.936-5.444-.091-.041-3.024-1.534-3.147-7.98-.034-1.771-.092-3.039-.138-4.056a11.816,11.816,0,0,1,.568-5.5l2.21-7.071A29.559,29.559,0,0,0,799.6,844.49c-.073-.011-6.6-.969-8.311.774a1.318,1.318,0,0,0-.349,1.221l.01.053-.012.053a150.723,150.723,0,0,1-5.474,18.836c-.2.347-4.531,7.505-9.619,8.091l-10.468,2.123c-.179.02-15.344,1.7-16.329,6.866l-.014.077-.054.059c-.038.043-3.9,4.488-1.756,20.229l.607,3.284L768.543,984.4l.895,2.23-.928,3.625c-.124.2-12.4,19.839-14,36.761,0,.406.292,43.492,2.2,59.321s7.864,50.616,7.923,50.965c.025.18,2.294,17.173.378,28.1-2.05,11.688-3.352,21.947,0,38.518,3.444,17.027,2.143,34.85,2.13,35.028Z" transform="translate(-746.013 -843.662)" fill="#999"/>
        </g>
        <path id="Trazado_109629" data-name="Trazado 109629" d="M852.184,1099.474" transform="translate(-737.152 -872.581)" fill="#fff" stroke="#999" stroke-miterlimit="10" stroke-width="0.75" opacity="0.58"/>
        <path id="Trazado_109630" data-name="Trazado 109630" d="M859.189,936.774l-3.883-11.033a142.045,142.045,0,0,1-3.313-16.066c-1.333-7.811-2.711-15.888-4.5-18.556l.461-.309c1.856,2.766,3.182,10.541,4.586,18.772a142.321,142.321,0,0,0,3.292,15.984l3.88,11.024Z" transform="translate(-735.934 -818.377)" fill="#999"/>
        <path id="Trazado_109631" data-name="Trazado 109631" d="M828.633,1064.855a.37.37,0,0,1-.265-.629c4.375-4.473,4.254-20.6,4.253-20.763-.164-13.7-1.406-32.807-3.592-55.264-.091-.933-.057-6.482.024-7.479.64-7.924,1.05-14.011,1.378-18.9.377-5.6.648-9.652,1.057-13.452.212-1.974.454-3.88.689-5.722.822-6.458,1.6-12.558.883-20.231-.9-9.627-7.5-37.692-7.755-38.789-.159-.386-1.241-3.452-.015-12.677,1.276-9.592,1.616-15.317,1.619-15.374a.37.37,0,0,1,.74.042c0,.058-.344,5.807-1.624,15.429-1.253,9.424-.042,12.283-.03,12.311.092.358,6.888,29.167,7.8,38.989.724,7.754-.058,13.893-.886,20.393-.235,1.839-.477,3.74-.688,5.707-.406,3.786-.678,7.827-1.054,13.423-.329,4.893-.737,10.984-1.379,18.913-.075.933-.111,6.457-.024,7.347,2.187,22.477,3.431,41.609,3.6,55.327.007.676.124,16.6-4.464,21.291A.37.37,0,0,1,828.633,1064.855Z" transform="translate(-730.015 -809.133)" fill="#4d4d4d"/>
        <path id="Trazado_109632" data-name="Trazado 109632" d="M804.708,1056.974a.37.37,0,0,1-.37-.366l-.437-43.449-1.112-23.931c-.008-.3-.766-28.849-.463-36.143.456-10.947.076-18.392-1.126-22.129-1.545-4.8-10.836-24.146-10.929-24.342l-2.808-7.743c-.029-.081-2.754-7.751-6.111-10.334l-3.487-2.681a.37.37,0,1,1,.451-.587l3.487,2.682c3.532,2.717,6.244,10.348,6.357,10.672l2.792,7.705c.369.763,9.392,19.555,10.952,24.4,1.23,3.82,1.621,11.351,1.162,22.386-.3,7.269.454,35.8.462,36.085l1.112,23.938.438,43.462a.371.371,0,0,1-.367.374Z" transform="translate(-717.809 -816.918)" fill="#4d4d4d"/>
        <g id="Grupo_56518" data-name="Grupo 56518" transform="translate(51.948 112.122)">
          <path id="Trazado_109633" data-name="Trazado 109633" d="M838.03,957.113l-19.516-3.353s-20.748-4.211-27.56-2.23-21.553,5.946-21.553,5.946L767.418,951s18.951-8.388,34.869-5.664,34.868,5.2,34.868,5.2l1.495.166A8.23,8.23,0,0,1,838.03,957.113Z" transform="translate(-767.081 -944.522)" fill="#fff"/>
          <path id="Trazado_109634" data-name="Trazado 109634" d="M769.095,957.719l-2.132-6.968.225-.1c.19-.084,19.211-8.39,35.028-5.683,15.729,2.693,34.668,5.176,34.858,5.2l1.659.184.059.161a8.433,8.433,0,0,1-.639,6.642l-.1.17-19.707-3.387c-.215-.044-20.767-4.176-27.437-2.237-6.737,1.96-21.411,5.908-21.558,5.948Zm-1.456-6.656,1.83,5.981c2-.539,15.051-4.06,21.288-5.875,6.8-1.978,26.844,2.052,27.693,2.224l19.313,3.318a8.014,8.014,0,0,0,.558-5.846l-1.315-.146c-.2-.025-19.145-2.509-34.885-5.2C787.405,942.995,769.828,950.137,767.639,951.062Z" transform="translate(-766.963 -944.427)" fill="#999"/>
        </g>
        <g id="Grupo_56519" data-name="Grupo 56519" transform="translate(122.262 118.305)">
          <path id="Trazado_109635" data-name="Trazado 109635" d="M862.731,957.471l2.914-2.042,1.346.414s.572.192.572-.356l-1.113-2.25s-.542-.963-.982-.093l-.437,1.586-2.651,2.047-.429.736Z" transform="translate(-861.951 -952.78)" fill="#666"/>
        </g>
        <g id="Grupo_56520" data-name="Grupo 56520" transform="translate(80.017 110.878)">
          <path id="Trazado_109636" data-name="Trazado 109636" d="M805.662,947.438l2.914-2.042,1.347.415s.571.191.571-.357L809.38,943.2s-.541-.964-.982-.094l-.437,1.586-2.651,2.047-.429.737Z" transform="translate(-804.881 -942.747)" fill="#666"/>
        </g>
        <g id="Grupo_56521" data-name="Grupo 56521" transform="translate(50.136 116.368)">
          <path id="Trazado_109637" data-name="Trazado 109637" d="M769.347,954.854l-2.914-2.042-1.347.414s-.571.192-.571-.356l1.113-2.25s.542-.963.982-.093l.438,1.586,2.651,2.047.429.736Z" transform="translate(-764.515 -950.163)" fill="#666"/>
        </g>
        <path id="Trazado_109638" data-name="Trazado 109638" d="M823.944,853.781c-9.242,0-17.72-6.02-17.826-6.1l.325-.451c.13.095,13.214,9.38,24.394,4.657l.215.511A18.138,18.138,0,0,1,823.944,853.781Z" transform="translate(-725.186 -807.058)" fill="#999"/>
        <g id="Grupo_56525" data-name="Grupo 56525" transform="translate(87.469)">
          <g id="Grupo_56522" data-name="Grupo 56522" transform="translate(0.725)">
            <path id="Trazado_109639" data-name="Trazado 109639" d="M827.378,800.538c0-3.909-2.451-7.079-5.475-7.079s-5.476,3.17-5.476,7.079c0,3.058,1.5,5.655,3.6,6.645V833.49h4.136V806.979A7.4,7.4,0,0,0,827.378,800.538Z" transform="translate(-816.058 -793.089)" fill="#fff"/>
            <path id="Trazado_109640" data-name="Trazado 109640" d="M824.407,833.731H819.53v-26.45c-2.164-1.145-3.6-3.871-3.6-6.873,0-4.107,2.622-7.449,5.846-7.449s5.845,3.342,5.845,7.449a7.9,7.9,0,0,1-3.211,6.647Zm-4.137-.74h3.4V806.637l.182-.107a7.068,7.068,0,0,0,3.029-6.123c0-3.7-2.29-6.709-5.1-6.709s-5.105,3.01-5.105,6.709c0,2.819,1.362,5.354,3.39,6.31l.212.1Z" transform="translate(-815.928 -792.959)" fill="#999"/>
          </g>
          <g id="Grupo_56523" data-name="Grupo 56523" transform="translate(0 8.545)">
            <rect id="Rectángulo_10350" data-name="Rectángulo 10350" width="12.84" height="2.07" rx="1.035" transform="translate(0.37 0.37)" fill="#fff"/>
            <path id="Trazado_109641" data-name="Trazado 109641" d="M827.264,807.313h-11.05a1.267,1.267,0,0,1-1.265-1.265v-.28a1.267,1.267,0,0,1,1.265-1.265h11.05a1.267,1.267,0,0,1,1.265,1.265v.28A1.267,1.267,0,0,1,827.264,807.313Zm-11.05-2.07a.525.525,0,0,0-.525.525v.28a.525.525,0,0,0,.525.525h11.05a.526.526,0,0,0,.525-.525v-.28a.526.526,0,0,0-.525-.525Z" transform="translate(-814.949 -804.503)" fill="#999"/>
          </g>
          <g id="Grupo_56524" data-name="Grupo 56524" transform="translate(0 4.594)">
            <rect id="Rectángulo_10351" data-name="Rectángulo 10351" width="12.84" height="2.07" rx="1.035" transform="translate(0.37 0.37)" fill="#fff"/>
            <path id="Trazado_109642" data-name="Trazado 109642" d="M827.264,801.975h-11.05a1.266,1.266,0,0,1-1.265-1.265v-.28a1.267,1.267,0,0,1,1.265-1.265h11.05a1.267,1.267,0,0,1,1.265,1.265v.28A1.266,1.266,0,0,1,827.264,801.975Zm-11.05-2.07a.525.525,0,0,0-.525.525v.28a.525.525,0,0,0,.525.525h11.05a.525.525,0,0,0,.525-.525v-.28a.526.526,0,0,0-.525-.525Z" transform="translate(-814.949 -799.165)" fill="#999"/>
          </g>
        </g>
        <g id="Grupo_56526" data-name="Grupo 56526" transform="translate(35.96 74.893)">
          <ellipse id="Elipse_4369" data-name="Elipse 4369" cx="7.457" cy="16.13" rx="7.457" ry="16.13" transform="translate(0.37 0.37)" fill="#fff"/>
          <path id="Trazado_109643" data-name="Trazado 109643" d="M753.191,927.133c-4.389,0-7.827-7.247-7.827-16.5s3.438-16.5,7.827-16.5,7.827,7.248,7.827,16.5S757.581,927.133,753.191,927.133Zm0-32.259c-3.908,0-7.087,7.07-7.087,15.76s3.179,15.759,7.087,15.759,7.087-7.069,7.087-15.759S757.1,894.874,753.191,894.874Z" transform="translate(-745.364 -894.134)" fill="gray"/>
        </g>
        <ellipse id="Elipse_4370" data-name="Elipse 4370" cx="1.571" cy="2.067" rx="1.571" ry="2.067" transform="translate(41.52 89.326)" fill="#454545"/>
        <path id="Trazado_109644" data-name="Trazado 109644" d="M756.149,892.729l-.649-.356c.092-.168,2.343-4.143,10.277-5.759l.147.725C758.359,888.88,756.17,892.691,756.149,892.729Z" transform="translate(-712.037 -817.287)" fill="gray"/>
        <g id="Grupo_56527" data-name="Grupo 56527" transform="translate(58.522 178.408)">
          <path id="Trazado_109645" data-name="Trazado 109645" d="M803.179,1038.127c-.464,0-.933,0-1.412-.006-18.2-.159-25.851-3.607-25.924-3.642l.232-.5c.075.035,7.635,3.432,25.7,3.591,15.985.148,23.583-2.137,23.659-2.16l.164.531C825.521,1035.959,818.3,1038.127,803.179,1038.127Z" transform="translate(-775.843 -1033.975)" fill="#999"/>
          <path id="Trazado_109646" data-name="Trazado 109646" d="M803.72,1044.4c-.571,0-1.14-.009-1.71-.027-17.038-.546-25.13-3.849-25.209-3.883l.214-.512c.078.033,8.091,3.3,25.012,3.84,11.754.372,24.072-3.351,24.2-3.389l.162.531A89.4,89.4,0,0,1,803.72,1044.4Z" transform="translate(-776.092 -1035.534)" fill="#999"/>
          <path id="Trazado_109647" data-name="Trazado 109647" d="M814.218,1043.958l-1.828-1.533,1.367-1.572-1.641-1.494.374-.411,2.041,1.859-1.352,1.556,1.4,1.171Z" transform="translate(-785.266 -1035.267)" fill="#999"/>
          <path id="Trazado_109648" data-name="Trazado 109648" d="M817.633,1043.958l-1.828-1.533,1.367-1.572-1.641-1.494.374-.411,2.041,1.859-1.353,1.556,1.4,1.171Z" transform="translate(-786.153 -1035.267)" fill="#999"/>
          <path id="Trazado_109649" data-name="Trazado 109649" d="M821.146,1043.821l-1.706-1.492,1.274-1.528-1.527-1.449.382-.4,1.906,1.808-1.261,1.511,1.3,1.135Z" transform="translate(-787.102 -1035.267)" fill="#999"/>
          <path id="Trazado_109650" data-name="Trazado 109650" d="M824.626,1043.494l-1.718-1.415,1.269-1.434-1.5-1.344.37-.414,1.914,1.712-1.254,1.417,1.274,1.05Z" transform="translate(-788.008 -1035.251)" fill="#999"/>
          <path id="Trazado_109651" data-name="Trazado 109651" d="M827.735,1043.056l-1.718-1.415,1.269-1.434-1.5-1.344.37-.414,1.914,1.712-1.254,1.417,1.274,1.05Z" transform="translate(-788.816 -1035.137)" fill="#999"/>
          <path id="Trazado_109652" data-name="Trazado 109652" d="M796.018,1043.229l-1.658-1.639,1.54-1.4-1.448-1.558.406-.378,1.831,1.97-1.523,1.381,1.241,1.227Z" transform="translate(-780.653 -1035.087)" fill="#999"/>
          <path id="Trazado_109653" data-name="Trazado 109653" d="M799.416,1043.514l-1.658-1.639,1.54-1.4-1.449-1.558.406-.378,1.832,1.969-1.523,1.381,1.241,1.227Z" transform="translate(-781.536 -1035.161)" fill="#999"/>
          <path id="Trazado_109654" data-name="Trazado 109654" d="M803.075,1043.82l-1.658-1.639,1.54-1.4-1.448-1.558.406-.378,1.831,1.969-1.522,1.381,1.241,1.227Z" transform="translate(-782.486 -1035.241)" fill="#999"/>
          <path id="Trazado_109655" data-name="Trazado 109655" d="M785.4,1041.355l-1.658-1.639,1.54-1.4-1.449-1.558.406-.378,1.832,1.97-1.523,1.381,1.241,1.227Z" transform="translate(-777.894 -1034.6)" fill="#999"/>
          <path id="Trazado_109656" data-name="Trazado 109656" d="M782.071,1040.554l-1.658-1.639,1.54-1.4-1.448-1.557.406-.378,1.831,1.969-1.523,1.381,1.241,1.227Z" transform="translate(-777.03 -1034.392)" fill="#999"/>
          <path id="Trazado_109657" data-name="Trazado 109657" d="M779.327,1039.768l-1.658-1.639,1.541-1.4-1.449-1.558.406-.378,1.832,1.97-1.523,1.381,1.241,1.227Z" transform="translate(-776.318 -1034.188)" fill="#999"/>
          <path id="Trazado_109658" data-name="Trazado 109658" d="M788.8,1042.118l-1.657-1.639,1.54-1.4-1.448-1.558.406-.378,1.831,1.969-1.522,1.381,1.24,1.227Z" transform="translate(-778.777 -1034.799)" fill="#999"/>
          <path id="Trazado_109659" data-name="Trazado 109659" d="M792.454,1042.425l-1.658-1.639,1.54-1.4-1.449-1.558.406-.378,1.832,1.97L791.6,1040.8l1.241,1.227Z" transform="translate(-779.727 -1034.878)" fill="#999"/>
          <path id="Trazado_109660" data-name="Trazado 109660" d="M806.538,1044.11l-1.658-1.639,1.54-1.4-1.449-1.558.406-.378,1.832,1.97-1.523,1.38,1.241,1.227Z" transform="translate(-783.386 -1035.316)" fill="#999"/>
          <path id="Trazado_109661" data-name="Trazado 109661" d="M809.928,1043.928l-1.658-1.639,1.541-1.4-1.448-1.557.406-.378,1.831,1.969-1.523,1.381,1.241,1.227Z" transform="translate(-784.266 -1035.269)" fill="#999"/>
          <path id="Trazado_109662" data-name="Trazado 109662" d="M834.1,1041.963l-1.859-1.218,1.324-1.19-1.5-1.064.322-.453,2.06,1.466-1.3,1.171,1.255.823Z" transform="translate(-790.447 -1035.031)" fill="#999"/>
          <path id="Trazado_109663" data-name="Trazado 109663" d="M837.188,1041.327l-1.859-1.218,1.324-1.189-1.5-1.064.322-.453,2.061,1.466-1.3,1.171,1.256.823Z" transform="translate(-791.251 -1034.865)" fill="#999"/>
          <path id="Trazado_109664" data-name="Trazado 109664" d="M840.349,1040.671l-1.859-1.218,1.324-1.189-1.5-1.064.322-.453,2.06,1.466-1.3,1.171,1.256.823Z" transform="translate(-792.072 -1034.695)" fill="#999"/>
          <path id="Trazado_109665" data-name="Trazado 109665" d="M830.577,1042.312l-1.768-1.244,1.269-1.225-1.449-1.107.337-.441,1.963,1.5L829.678,1041l1.219.857Z" transform="translate(-789.555 -1035.097)" fill="#999"/>
        </g>
        <path id="Trazado_109666" data-name="Trazado 109666" d="M782.372,1388.931c-5.32,0-8.846-5.709-8.884-5.771l.475-.288c.039.064,3.967,6.412,9.641,5.393,5.85-1.047,7.09-3.343,8.314-6.726l.523.188c-1.251,3.456-2.609,5.988-8.738,7.084A7.535,7.535,0,0,1,782.372,1388.931Z" transform="translate(-716.709 -945.852)" fill="#999"/>
        <path id="Trazado_109667" data-name="Trazado 109667" d="M820.19,1373.442c-5.379,0-8.528-6.581-8.664-6.869l.5-.236c.032.069,3.324,6.9,8.585,6.535,5.367-.375,7.322-3.93,8.749-6.525l.5.242c-1.418,2.581-3.542,6.441-9.21,6.837C820.5,1373.436,820.342,1373.442,820.19,1373.442Z" transform="translate(-726.59 -941.903)" fill="#999"/>
        <path id="Trazado_109668" data-name="Trazado 109668" d="M775.156,1272H774.6v-26.506c0-.127-.26-13.207-.546-15.771a120.7,120.7,0,0,1-.58-17.33c.381-6.3,1.119-25.388,1.125-25.58,0-.169-.021-18.006-1.238-25.046-1.019-5.891-3.186-26-4.481-38.018-.283-2.626-.528-4.9-.716-6.605-1.052-9.559-1.35-39.6-1.353-39.9.058-1.309,1.45-31.826,4.649-40.394,3.181-8.517,6.8-20.829,6.838-20.952l1.673-5.305-20.44-74.072.535-.147,20.484,74.229-1.721,5.456c-.035.118-3.66,12.449-6.849,20.985-3.168,8.486-4.6,39.893-4.614,40.21,0,.286.3,30.3,1.35,39.833.187,1.706.432,3.98.716,6.607,1.294,12.01,3.461,32.11,4.475,37.983,1.225,7.086,1.247,24.971,1.247,25.151-.007.2-.745,19.3-1.127,25.6a120.013,120.013,0,0,0,.578,17.236c.288,2.59.538,15.288.548,15.828Z" transform="translate(-713.084 -830.211)" fill="#999"/>
        <path id="Trazado_109669" data-name="Trazado 109669" d="M790.93,1301.188h-.019a.37.37,0,0,1-.351-.388c.039-.778,3.916-77.825,3.916-81.062,0-3.311.591-11.239,1.959-14.56,1.314-3.192,2.891-22.863,2.908-23.061l1.742-67.181,2.51-67.977a.359.359,0,0,1,.383-.356.371.371,0,0,1,.357.383l-2.51,67.973-1.743,67.2c-.066.834-1.6,20-2.962,23.3-1.328,3.225-1.9,11.016-1.9,14.278s-3.757,77.922-3.917,81.1A.369.369,0,0,1,790.93,1301.188Z" transform="translate(-721.144 -858.847)" fill="#4d4d4d"/>
        <path id="Trazado_109670" data-name="Trazado 109670" d="M814.423,1087.919c-2.317,0-9.052-.1-27.831-.8-25.576-.949-27.1-5.049-27.192-5.513a.37.37,0,0,1,.723-.161c.045.114,1.839,4.02,26.5,4.934,25.594.949,28.776.788,28.9.782a.385.385,0,0,1,.392.346.372.372,0,0,1-.346.392C815.533,1087.906,815.282,1087.919,814.423,1087.919Z" transform="translate(-713.048 -867.826)" fill="#4d4d4d"/>
        <path id="Trazado_109671" data-name="Trazado 109671" d="M849.511,1094.146l-.554-.037c.013-.19,1.279-19.168.649-30.477-.629-11.265-6.224-21.725-6.28-21.83l.489-.264c.057.105,5.711,10.674,6.345,22.062C850.793,1074.945,849.524,1093.956,849.511,1094.146Z" transform="translate(-734.851 -857.531)" fill="#999"/>
        <path id="Trazado_109672" data-name="Trazado 109672" d="M808.214,1125.859c-.588-5.075-2.221-7.14-7.067-13.267-.717-.907-1.5-1.9-2.367-3.006-9.8-12.56-20.027-17.218-27.839-19.872-7.713-2.621-13.61,3.357-13.668,3.418l-.4-.385c.061-.064,6.188-6.3,14.247-3.558,7.884,2.679,18.2,7.379,28.1,20.055.861,1.1,1.646,2.1,2.364,3,4.786,6.052,6.578,8.315,7.183,13.548Z" transform="translate(-712.394 -869.729)" fill="#999"/>
        <path id="Trazado_109673" data-name="Trazado 109673" d="M812.443,1200.824l-.552-.052c.03-.316,3-31.733,3.475-37.363s1.342-22.415,1.352-22.584c.061-.463,1.5-10.811,6.544-12.13,4.1-1.072,4.6-1.506,7.369-3.917.516-.448,1.108-.963,1.815-1.562,4.457-3.776,12.152-21.73,12.229-21.911l.511.218c-.318.744-7.824,18.257-12.382,22.118-.7.6-1.3,1.11-1.809,1.557-2.857,2.484-3.372,2.931-7.593,4.036-4.686,1.226-6.117,11.54-6.131,11.644-.007.146-.873,16.944-1.35,22.58S812.474,1200.507,812.443,1200.824Z" transform="translate(-726.685 -873.056)" fill="#999"/>
        <path id="Trazado_109674" data-name="Trazado 109674" d="M816.4,1327.6l-.555-.008c.005-.329.479-33.022.1-39.375-.4-6.634.422-22.594,2.325-30.208,1.9-7.6,1.285-21.026,1.278-21.16l-3.6-36.419.552-.055,3.6,36.432c.007.15.625,13.661-1.294,21.336-1.892,7.567-2.706,23.44-2.31,30.04C816.879,1294.554,816.405,1327.266,816.4,1327.6Z" transform="translate(-727.712 -898.791)" fill="#999"/>
        <path id="Trazado_109675" data-name="Trazado 109675" d="M814.752,891.517c-11.188,0-21.622-10.676-22.108-11.178a.371.371,0,0,1,.534-.514c.129.133,13,13.3,25.046,10.571a15.812,15.812,0,0,0,8.268-5.9.37.37,0,0,1,.6.44,14.354,14.354,0,0,1-12.335,6.581Z" transform="translate(-721.659 -815.495)" fill="#4d4d4d"/>
        <rect id="Rectángulo_10352" data-name="Rectángulo 10352" width="3.83" height="11.651" transform="translate(90.052 18.838)" fill="#464646"/>
        <rect id="Rectángulo_10353" data-name="Rectángulo 10353" width="2.775" height="11.651" transform="translate(95.066 18.838)" fill="#464646"/>
        <rect id="Rectángulo_10354" data-name="Rectángulo 10354" width="2.839" height="4.828" transform="translate(97.841 21.67)" fill="#464646"/>
        <rect id="Rectángulo_10355" data-name="Rectángulo 10355" width="6.476" height="313.554" transform="translate(22.958 52.374)" fill="#464646"/>
        <rect id="Rectángulo_10356" data-name="Rectángulo 10356" width="6.476" height="34.823" transform="translate(90.052 20.157) rotate(90)" fill="#464646"/>
        <path id="Trazado_109676" data-name="Trazado 109676" d="M734.19,855.688s-2.076-15.641,8.159-23.076a41.333,41.333,0,0,1,23.848-5.949v-6.476s-16.757-.358-26.584,6.92c-9.579,7.1-12.354,14.386-12.126,27.324Z" transform="translate(-704.757 -800.031)" fill="#464646"/>
        <g id="Grupo_56528" data-name="Grupo 56528" transform="translate(22.588 373.91)">
          <rect id="Rectángulo_10357" data-name="Rectángulo 10357" width="6.476" height="67.509" rx="3.238" transform="translate(0.37 0.37)" fill="#fff"/>
          <path id="Trazado_109677" data-name="Trazado 109677" d="M731.279,1366.331h-.744a3.239,3.239,0,0,1-3.236-3.235v-61.778a3.24,3.24,0,0,1,3.236-3.236h.744a3.239,3.239,0,0,1,3.236,3.236V1363.1A3.239,3.239,0,0,1,731.279,1366.331Zm-.744-67.509a2.5,2.5,0,0,0-2.5,2.5V1363.1a2.5,2.5,0,0,0,2.5,2.5h.744a2.5,2.5,0,0,0,2.5-2.5v-61.778a2.5,2.5,0,0,0-2.5-2.5Z" transform="translate(-727.299 -1298.082)" fill="#999"/>
        </g>
        <rect id="Rectángulo_10358" data-name="Rectángulo 10358" width="9.028" height="15.545" transform="translate(21.661 364.673)" fill="#464646"/>
        <path id="Trazado_109678" data-name="Trazado 109678" d="M741.779,1424.489l4.672-3.734,51.945,30.382-3.154,2.9Z" transform="translate(-708.473 -956.039)" fill="#464646"/>
        <g id="Grupo_56529" data-name="Grupo 56529" transform="translate(80.613 495.013)">
          <path id="Trazado_109679" data-name="Trazado 109679" d="M828.432,1469.694l-9.018,8.03-13.077-7.08,9.655-8.5Z" transform="translate(-805.855 -1461.804)" fill="#fff"/>
          <path id="Trazado_109680" data-name="Trazado 109680" d="M819.284,1477.941l-13.6-7.363,10.107-8.894,12.935,7.847Zm-12.634-7.472,12.556,6.8,8.592-7.65-11.944-7.247Z" transform="translate(-805.686 -1461.684)" fill="#999"/>
        </g>
        <path id="Trazado_109681" data-name="Trazado 109681" d="M829.713,1464.487l-10.621,9.269L807.7,1467.5l10.632-9.356Z" transform="translate(-725.596 -965.752)" fill="#9f9f9f"/>
      </g>
      <g id="Grupo_56531" data-name="Grupo 56531" transform="translate(43.456 177.009)" opacity="0.43">
        <path id="Trazado_109682" data-name="Trazado 109682" d="M770.8,1032.9c1.255.1,8.54,2.094,8.54,2.094l3.528-.582s4.077-2.9,4.333,0,3.135.582,3.135.582.209-3.446,1.8-2.094,1.48,1.512,1.48,1.512.494,2.746,2.184,1.74,1.346-3.928,2.579-3.252,1.07,2.769,1.433,3.252,1.526.41,3.145-.942,3.546.682,3.546.682l5.284-.307,1.683,18.929s.553,16.156,1.374,24.6a98.144,98.144,0,0,1-.32,20.268c-1.287,10.961-.408,8.029-6.684,12.374-3.916,2.711-5.274,8.69-5.369,10.053-.435,6.308-1.9,27.711-1.9,27.711l-2.929,33.425-12.8,115.813s-8.207,2.221-12.166,0-7.47-1.883-7.51-7.772c-.027-3.892-2.125-37.7-2.125-37.7s-1.834-36.883-2.51-46.151-3.692-47.5-3.692-47.5l-.814-75.783a67.92,67.92,0,0,1,6.63-31.068c2.485-5.034,5.45-10.071,6.855-14.111C770.559,1035.664,770.265,1032.856,770.8,1032.9Z" transform="translate(-755.618 -1032.214)" fill="#999"/>
        <path id="Trazado_109683" data-name="Trazado 109683" d="M777.486,1299.991a10.717,10.717,0,0,1-5.116-1.039,25.13,25.13,0,0,0-2.648-1.241c-2.8-1.178-5.02-2.107-5.053-6.852-.026-3.837-2.1-37.34-2.123-37.679-.019-.373-1.842-36.99-2.51-46.148s-3.661-47.12-3.691-47.5l-.816-75.808a68.918,68.918,0,0,1,6.669-31.236c.785-1.592,1.624-3.193,2.435-4.741a75.887,75.887,0,0,0,4.4-9.327,18.831,18.831,0,0,0,.841-4.155c.141-1.232.2-1.919.824-1.865,1.22.094,7.7,1.858,8.531,2.085l3.366-.555c.483-.333,2.677-1.755,3.968-1.159a1.639,1.639,0,0,1,.877,1.478c.052.591.22.951.5,1.069.533.225,1.479-.335,1.913-.649.054-.6.274-2.152,1.113-2.509a1.193,1.193,0,0,1,1.285.326c1.355,1.151,1.651,1.564,1.625,1.82.09.4.379,1.295.864,1.515.077.035.311.142.747-.118a3.57,3.57,0,0,0,1.28-2c.229-.634.427-1.181.882-1.354a.919.919,0,0,1,.785.1,3.442,3.442,0,0,1,1.361,2.606,3.05,3.05,0,0,0,.189.748.4.4,0,0,0,.268.119c.206.022.985.013,2.344-1.121,1.414-1.181,3.117-.192,3.928.588l5.119-.3a.374.374,0,0,1,.391.336l1.682,18.93c.007.181.563,16.261,1.375,24.6a99.653,99.653,0,0,1-.321,20.348c-.112.949-.207,1.793-.292,2.547-.716,6.356-.73,6.477-3.692,8.26-.744.447-1.669,1-2.857,1.827-3.591,2.486-5.1,8.115-5.209,9.774-.436,6.308-1.9,27.711-1.9,27.711l-2.93,33.432-12.8,115.822a.37.37,0,0,1-.272.316A31.715,31.715,0,0,1,777.486,1299.991Zm-6.7-266.838a9.483,9.483,0,0,0-.179,1.2,19.456,19.456,0,0,1-.876,4.313,76.344,76.344,0,0,1-4.446,9.428c-.808,1.545-1.645,3.141-2.427,4.726a68.138,68.138,0,0,0-6.592,30.88l.815,75.8c.029.357,3.022,38.317,3.691,47.481s2.492,45.792,2.51,46.16c.021.334,2.1,33.858,2.125,37.716.03,4.256,1.847,5.02,4.6,6.174a25.978,25.978,0,0,1,2.724,1.278c3.408,1.913,10.269.366,11.644.027l12.772-115.559,2.928-33.416s1.466-21.4,1.9-27.7c.077-1.124,1.349-7.439,5.527-10.331,1.207-.837,2.144-1.4,2.9-1.853,2.649-1.6,2.649-1.6,3.338-7.709.085-.755.181-1.6.292-2.55a98.841,98.841,0,0,0,.32-20.185c-.814-8.365-1.371-24.469-1.377-24.63l-1.648-18.552-4.927.286a.37.37,0,0,1-.289-.114c-.069-.073-1.709-1.765-3.042-.654a4.3,4.3,0,0,1-2.9,1.288,1.09,1.09,0,0,1-.774-.409,2.656,2.656,0,0,1-.327-1.059c-.142-.768-.319-1.725-.988-2.092-.1-.055-.154-.058-.167-.053-.137.052-.317.549-.449.912a4.184,4.184,0,0,1-1.6,2.386,1.488,1.488,0,0,1-1.433.156c-.959-.437-1.266-1.936-1.3-2.141a8.266,8.266,0,0,0-1.357-1.3c-.155-.131-.372-.272-.517-.21-.386.164-.632,1.318-.678,2.045a.372.372,0,0,1-.137.266c-.169.136-1.688,1.317-2.791.847a1.817,1.817,0,0,1-.945-1.685c-.061-.691-.355-.827-.45-.871-.749-.344-2.421.517-3.3,1.141a.372.372,0,0,1-.155.063l-3.529.582a.369.369,0,0,1-.158-.008C776.715,1034.561,772.036,1033.324,770.791,1033.153Zm-.147-.016h0Z" transform="translate(-755.49 -1032.084)" fill="#4d4d4d"/>
      </g>
      <path id="Trazado_109684" data-name="Trazado 109684" d="M792.174,1075.3a.344.344,0,0,1-.061,0,.371.371,0,0,1-.3-.426c.021-.126,2.079-12.67,2.88-22.2s.976-16.108.978-16.173a.367.367,0,0,1,.38-.361.37.37,0,0,1,.36.379c0,.066-.178,6.661-.981,16.216s-2.866,22.132-2.887,22.258A.369.369,0,0,1,792.174,1075.3Z" transform="translate(-721.467 -856.128)" fill="#4d4d4d" opacity="0.43"/>
      <path id="Trazado_109685" data-name="Trazado 109685" d="M802.794,1072.36a.375.375,0,0,1-.135-.025.37.37,0,0,1-.21-.48c2.008-5.156,2.486-35.383,2.491-35.687a.37.37,0,0,1,.37-.364h.006a.37.37,0,0,1,.364.375c-.019,1.25-.485,30.666-2.542,35.946A.369.369,0,0,1,802.794,1072.36Z" transform="translate(-724.226 -856.042)" fill="#4d4d4d" opacity="0.43"/>
      <path id="Trazado_109686" data-name="Trazado 109686" d="M809.849,1073.333a.37.37,0,0,1-.345-.5c2.01-5.161,3.345-34.53,3.359-34.827a.369.369,0,0,1,.369-.353h.016a.371.371,0,0,1,.353.386c-.055,1.214-1.354,29.788-3.408,35.063A.371.371,0,0,1,809.849,1073.333Z" transform="translate(-726.059 -856.521)" fill="#4d4d4d" opacity="0.43"/>
      <g id="Grupo_56532" data-name="Grupo 56532" transform="translate(100.89 203.58)">
        <path id="Trazado_109687" data-name="Trazado 109687" d="M833.86,1072.671l2.914-2.042,1.347.415s.571.191.571-.357l-1.113-2.249s-.542-.964-.982-.094l-.437,1.586-2.651,2.048-.429.736Z" transform="translate(-833.079 -1067.98)" fill="#666"/>
      </g>
      <g id="Grupo_56533" data-name="Grupo 56533" transform="translate(101.805 223.911)">
        <path id="Trazado_109688" data-name="Trazado 109688" d="M835.1,1100.136l2.914-2.042,1.347.414s.571.191.571-.356l-1.113-2.25s-.542-.963-.982-.094l-.437,1.586-2.651,2.048-.429.736Z" transform="translate(-834.316 -1095.445)" fill="#666"/>
      </g>
      <g id="Grupo_56534" data-name="Grupo 56534" transform="translate(77.652 196.303)">
        <path id="Trazado_109689" data-name="Trazado 109689" d="M802.405,1060.978l3.518-.532,1.022.97s.427.426.671-.065l0-2.509s-.056-1.1-.838-.521l-1.1,1.227-3.285.655-.711.468Z" transform="translate(-801.687 -1058.15)" fill="#666"/>
      </g>
      <g id="Grupo_56535" data-name="Grupo 56535" transform="translate(84.687 196.303)">
        <path id="Trazado_109690" data-name="Trazado 109690" d="M811.908,1060.978l3.518-.532,1.022.97s.426.426.67-.065l0-2.509s-.057-1.1-.838-.521l-1.1,1.227-3.285.655-.712.468Z" transform="translate(-811.19 -1058.15)" fill="#666"/>
      </g>
      <g id="Grupo_56536" data-name="Grupo 56536" transform="translate(51.015 240.632)">
        <path id="Trazado_109691" data-name="Trazado 109691" d="M766.42,1120.863l3.518-.533,1.022.97s.426.425.67-.065l0-2.51s-.057-1.1-.838-.52l-1.1,1.226-3.286.655-.711.469Z" transform="translate(-765.702 -1118.034)" fill="#666"/>
      </g>
      <g id="Grupo_56537" data-name="Grupo 56537" transform="translate(51.015 278.049)">
        <path id="Trazado_109692" data-name="Trazado 109692" d="M766.42,1171.411l3.518-.533,1.022.97s.426.426.67-.064l0-2.51s-.057-1.1-.838-.52l-1.1,1.226-3.286.655-.711.468Z" transform="translate(-765.702 -1168.582)" fill="#666"/>
      </g>
      <g id="Grupo_56538" data-name="Grupo 56538" transform="translate(53.981 333.801)">
        <path id="Trazado_109693" data-name="Trazado 109693" d="M770.427,1246.727l3.518-.533,1.022.97s.426.425.67-.065l0-2.51s-.056-1.1-.838-.52l-1.1,1.226-3.285.655-.711.468Z" transform="translate(-769.709 -1243.898)" fill="#666"/>
      </g>
      <g id="Grupo_56539" data-name="Grupo 56539" transform="translate(54.049 416.576)">
        <path id="Trazado_109694" data-name="Trazado 109694" d="M770.52,1358.55l3.518-.533,1.022.97s.427.426.67-.065l0-2.509s-.057-1.1-.838-.521l-1.1,1.227-3.285.655-.712.468Z" transform="translate(-769.801 -1355.722)" fill="#666"/>
      </g>
    </g>
  </g>
</svg>
