<svg xmlns="http://www.w3.org/2000/svg" width="204.137" height="587.875" viewBox="0 0 204.137 587.875">
  <g id="Grupo_56332" data-name="Grupo 56332" transform="translate(-848.728 -7771.043)">
    <rect id="Rectángulo_10248" data-name="Rectángulo 10248" width="204.137" height="587.874" rx="21.615" transform="translate(848.728 7771.043)" fill="#fff"/>
    <g id="Grupo_56331" data-name="Grupo 56331" transform="translate(869.722 7786.38)">
      <g id="Grupo_56316" data-name="Grupo 56316" transform="translate(0 472.929)">
        <path id="Trazado_108979" data-name="Trazado 108979" d="M904.846,8410.8l7.185-3.846a9.657,9.657,0,0,1,9.267-6.172c7.025.2,10.162,2.73,12.49,6.881s2.934,4.148,5.464,5.262,32.452,16.7,35.25,19.024a8.383,8.383,0,0,0,6.543,1.518s10.524-1.821,14.976,2.125,3.744,9.715-.607,11.84-11.031,3.238-16.394,0-37.508-21.655-37.508-21.655-19.97-7.59-24.828-6.274a20.432,20.432,0,0,0-7.185,3.238s-4.553,6.477,3.137,14.875,21.048,18.114,21.048,18.114l9.614,6.173s15.63,4.654,16.214,10.523-2.249,8.6-8.422,9.108-16.7-2.126-19.631-9.209a14.6,14.6,0,0,1-.607-3.946c-.1-2.53-39.061-26.008-39.061-26.008s-11.839-3.339-14.774-9.41,2.53-12.245,2.53-12.245a12.4,12.4,0,0,1,9.411-2.022l6.982-3.947Z" transform="translate(-875.871 -8400.486)" fill="#fff"/>
        <path id="Trazado_108980" data-name="Trazado 108980" d="M949.456,8481.8c-6.331,0-15.574-2.76-18.346-9.449a14.733,14.733,0,0,1-.628-4.046c-.2-1.806-23.944-16.743-38.887-25.749-.87-.249-12.017-3.547-14.919-9.554-2.985-6.175,2.518-12.5,2.573-12.564a12.538,12.538,0,0,1,9.573-2.134l6.9-3.9,8.92-3.956,7.081-3.789a10,10,0,0,1,9.176-6.262c.109,0,.22,0,.332,0,6.347.182,10.037,2.219,12.735,7.029,2.1,3.744,2.72,4.012,4.775,4.9l.552.24c2.621,1.153,32.562,16.775,35.319,19.067a8.16,8.16,0,0,0,6.3,1.457c.447-.078,10.726-1.8,15.231,2.192a8.271,8.271,0,0,1,3.051,7.253,6.574,6.574,0,0,1-3.724,5.064c-4.45,2.174-11.167,3.311-16.671-.012-5.3-3.2-37.18-21.47-37.5-21.652-.157-.056-19.9-7.526-24.606-6.245a20.815,20.815,0,0,0-7.046,3.156c-.371.555-4.095,6.582,3.137,14.479,7.582,8.281,20.871,17.978,21,18.074l9.565,6.142c1.066.32,15.793,4.859,16.381,10.763.282,2.829-.206,4.956-1.493,6.5-1.407,1.688-3.761,2.646-7.195,2.928C950.534,8481.781,950.006,8481.8,949.456,8481.8Zm-62.794-63.074a11.773,11.773,0,0,0-7.009,2.129c-.021.029-5.268,6.071-2.454,11.895,2.845,5.885,14.474,9.225,14.592,9.258l.071.031c6.529,3.932,39.1,23.686,39.2,26.244a14.533,14.533,0,0,0,.59,3.859c2.9,6.99,13.249,9.518,19.333,9.018,3.271-.27,5.494-1.158,6.8-2.721,1.181-1.416,1.626-3.4,1.361-6.068-.558-5.609-15.854-10.229-16.007-10.274l-.074-.034-9.613-6.173c-.148-.106-13.484-9.837-21.105-18.162-7.759-8.474-3.208-15.173-3.161-15.239l.052-.057a20.528,20.528,0,0,1,7.294-3.295c4.9-1.322,24.188,5.973,25.007,6.283.363.2,32.25,18.476,37.555,21.678s12,2,16.115-.012a6,6,0,0,0,3.4-4.621,7.707,7.707,0,0,0-2.86-6.74c-4.3-3.807-14.63-2.073-14.734-2.056a8.575,8.575,0,0,1-6.778-1.581c-2.738-2.277-32.568-17.831-35.182-18.982l-.549-.237c-2.135-.921-2.855-1.231-5.051-5.147-2.184-3.893-5.1-6.527-12.244-6.732a9.254,9.254,0,0,0-8.985,5.979l-.037.106-7.3,3.907-8.9,3.947-7.045,3.984-.1-.016A14.1,14.1,0,0,0,886.661,8418.727Z" transform="translate(-875.789 -8400.402)" fill="#999"/>
      </g>
      <path id="Trazado_108981" data-name="Trazado 108981" d="M904.846,8401.407l7.185-3.845a9.659,9.659,0,0,1,9.267-6.174c7.025.2,10.162,2.733,12.49,6.882s2.934,4.149,5.464,5.262,32.452,16.7,35.25,19.025a8.383,8.383,0,0,0,6.543,1.518s10.524-1.822,14.976,2.125,3.744,9.715-.607,11.84-11.031,3.238-16.394,0-37.508-21.655-37.508-21.655-19.97-7.59-24.828-6.274a20.411,20.411,0,0,0-7.185,3.238s-4.553,6.476,3.137,14.876,21.048,18.112,21.048,18.112l9.614,6.173s15.63,4.655,16.214,10.524-2.249,8.6-8.422,9.106-16.7-2.124-19.631-9.207a14.6,14.6,0,0,1-.607-3.946c-.1-2.53-39.061-26.008-39.061-26.008s-11.839-3.339-14.774-9.41,2.53-12.245,2.53-12.245a12.4,12.4,0,0,1,9.411-2.024l6.982-3.946Z" transform="translate(-875.871 -7925.451)" fill="#464646"/>
      <g id="Grupo_56317" data-name="Grupo 56317" transform="translate(21.606 459.376)">
        <rect id="Rectángulo_10249" data-name="Rectángulo 10249" width="12.143" height="23.578" rx="6.072" transform="translate(0.388 0.389)" fill="#fff"/>
        <path id="Trazado_108982" data-name="Trazado 108982" d="M910.553,8407.288h-.911a6.012,6.012,0,0,1-6-6v-12.346a6.012,6.012,0,0,1,6-6h.911a6.012,6.012,0,0,1,6,6v12.346A6.012,6.012,0,0,1,910.553,8407.288Zm-.911-23.579a5.236,5.236,0,0,0-5.228,5.229v12.346a5.235,5.235,0,0,0,5.228,5.229h.911a5.235,5.235,0,0,0,5.229-5.229v-12.346a5.236,5.236,0,0,0-5.229-5.229Z" transform="translate(-903.638 -8382.934)" fill="#999"/>
      </g>
      <ellipse id="Elipse_4347" data-name="Elipse 4347" cx="6.072" cy="4.2" rx="6.072" ry="4.2" transform="translate(21.994 458.146)" fill="#464646"/>
      <g id="Grupo_56318" data-name="Grupo 56318" transform="translate(38.193 39.337)">
        <path id="Trazado_108983" data-name="Trazado 108983" d="M1010.219,8009.281c-1.689-5.306-9.364-14.028-9.364-14.028a6.76,6.76,0,0,1-.674-4.583l1.93-18.834,6-24.19,4.091-7.544s5.41-7.054,4.717-12.938l-1.991-6.924s-.167-5.893-.053-9.95c.028-.872.069-1.648.13-2.243l2.467-8.874.036-.342.016-.055.466-4.378h-.011l.344-3.247s.6-3.669-1.872-5.716a61.818,61.818,0,0,0-6.892-4.586s-8.315-3.6-11.445-5.7c0,0-3.042-1.472-3.17-8.127s-.586-6.783.436-9.919l2.372-7.589a30.731,30.731,0,0,0-16.448-7.34s-10.076-1.517-9.4,2.428a156.6,156.6,0,0,1-5.723,19.7s-4.592,7.69-9.844,8.3l-11,2.229s-16.256,1.731-17.342,7.427c0,0-4.212,4.544-1.915,21.438l.638,3.455,21.713,82.024.914,2.283-.914,3.624s-13.017,20.644-14.716,38.655c0,0,.282,45.436,2.307,62.233s8.307,53.431,8.307,53.431,2.42,17.81.4,29.346-3.642,22.465,0,40.478,2.227,36.631,2.227,36.631l-.607,9.716s1.967,5.194,9.99,5.06,9.372-7.758,9.372-7.758l3.71-47.9s1.789-23.274,1.1-29.145,1.389-15.076,1.389-15.076l4.6-23.376,1.226,14.977s-.417,8.3-2.642,12.547-2.835,20.441-2.126,24.692,2.732,22.262,2.732,22.262l.607,30.763s4.047,5.87,9.31,5.87,9.107-6.274,9.107-6.274l1.214-34.406,4.251-27.523s.2-13.965.2-16.8,2.226-9.915,4.047-12.548.607-14.571,1.214-19.833,5.667-38.656,5.667-38.656,2.429-42.905.607-58.691A336.123,336.123,0,0,1,1010.219,8009.281Z" transform="translate(-925.103 -7841.601)" fill="#fff"/>
        <path id="Trazado_108984" data-name="Trazado 108984" d="M955.949,8270.838c-7.88,0-9.94-5.2-9.96-5.249l-.023-.06.611-9.775c.014-.189,1.372-18.792-2.221-36.557-3.533-17.468-2.161-28.274,0-40.585,1.992-11.358-.374-29.08-.4-29.258-.061-.357-6.305-36.82-8.307-53.434s-2.3-61.812-2.307-62.267c1.652-17.528,14.093-37.74,14.736-38.772l.879-3.488-.878-2.195-21.724-82.059-.643-3.477c-2.175-15.986,1.406-20.989,1.93-21.623,1.237-5.777,16.911-7.513,17.581-7.584l10.969-2.224c5.075-.586,9.607-8.084,9.653-8.159a156.99,156.99,0,0,0,5.677-19.559,1.937,1.937,0,0,1,.534-1.728c2-2.038,8.913-1.023,9.206-.98a31.326,31.326,0,0,1,16.609,7.421l.126.124-2.425,7.759c-.72,2.21-.69,2.853-.567,5.557.049,1.072.109,2.4.146,4.27.122,6.361,2.978,7.857,3.006,7.872,3.106,2.078,11.349,5.653,11.432,5.69a62.211,62.211,0,0,1,6.963,4.627c2.566,2.13,2,5.832,1.973,5.988l-.848,8.005-2.477,8.92c-.047.5-.09,1.246-.12,2.174-.109,3.837.038,9.393.052,9.9l1.98,6.888c.708,5.98-4.542,12.9-4.765,13.2l-4.049,7.473-5.991,24.153-1.922,18.794a6.571,6.571,0,0,0,.638,4.41c.281.31,7.7,8.781,9.389,14.083l.014.045v.045a338.191,338.191,0,0,0,1.7,34.438c1.8,15.629-.581,58.313-.605,58.742-.053.36-5.068,33.476-5.668,38.672a73.224,73.224,0,0,0-.17,7.826c.049,5.122.1,10.417-1.094,12.141-1.718,2.48-4,9.539-4,12.382,0,2.8-.2,16.663-.2,16.8l-4.254,27.564-1.214,34.447-.04.065c-.161.263-3.992,6.413-9.356,6.413s-9.38-5.75-9.549-6l-.05-.07,0-.088-.607-30.763c-.019-.153-2.03-18.026-2.729-22.222-.677-4.052-.195-20.387,2.155-24.873,2.171-4.144,2.605-12.346,2.61-12.427L976.3,8149.4l-4.194,21.321c-.023.1-2.064,9.235-1.385,14.987.687,5.831-1.023,28.249-1.1,29.2l-3.71,47.9c-.018.105-1.49,7.889-9.657,8.025C956.152,8270.838,956.05,8270.838,955.949,8270.838Zm-9.394-5.4c.244.576,2.317,4.943,9.69,4.816,7.682-.129,9.037-7.216,9.091-7.518l3.706-47.869c.018-.232,1.78-23.313,1.1-29.087-.69-5.851,1.372-15.083,1.393-15.176l5-25.424,1.4,17.065c-.016.38-.445,8.448-2.675,12.707-2.136,4.076-2.829,20.114-2.1,24.508.7,4.21,2.715,22.1,2.735,22.278l.607,30.7c.476.653,4.28,5.674,9.021,5.674,4.763,0,8.4-5.422,8.819-6.072l1.212-34.327,4.253-27.558c0-.1.2-13.955.2-16.753,0-2.984,2.3-10.114,4.1-12.714,1.088-1.573,1.036-7.007.991-11.8a73.627,73.627,0,0,1,.173-7.9c.6-5.207,5.618-38.333,5.669-38.667.021-.4,2.4-43.034.605-58.615a338.377,338.377,0,0,1-1.7-34.461c-1.68-5.192-9.215-13.794-9.292-13.881a6.967,6.967,0,0,1-.736-4.854l1.921-18.786,6.034-24.3,4.092-7.543c.078-.109,5.354-7.069,4.683-12.766l-1.992-6.95c0-.059-.167-5.948-.053-9.967.03-.942.075-1.7.132-2.265l2.476-8.922.052-.4.423-4.008h0l.023-.321.344-3.245c.009-.052.539-3.549-1.768-5.462a61.988,61.988,0,0,0-6.851-4.558c-.311-.132-8.346-3.618-11.463-5.706-.1-.043-3.168-1.607-3.3-8.363-.036-1.857-.1-3.186-.145-4.254a12.385,12.385,0,0,1,.594-5.76l2.317-7.411a30.98,30.98,0,0,0-16.154-7.141c-.074-.011-6.919-1.015-8.71.812a1.378,1.378,0,0,0-.366,1.279l.01.055-.012.056a158.149,158.149,0,0,1-5.737,19.742c-.212.364-4.749,7.866-10.082,8.48l-10.971,2.224c-.188.021-16.082,1.777-17.114,7.2l-.015.081-.057.062c-.041.044-4.084,4.7-1.84,21.2l.636,3.441,21.708,82,.937,2.336-.972,3.8c-.13.206-13,20.792-14.673,38.528,0,.425.306,45.582,2.3,62.172s8.242,53.048,8.3,53.415c.026.189,2.4,18,.4,29.445-2.149,12.251-3.514,23,0,40.369,3.609,17.847,2.245,36.525,2.231,36.712Z" transform="translate(-925.018 -7841.516)" fill="#999"/>
      </g>
      <path id="Trazado_108985" data-name="Trazado 108985" d="M1031.189,8097.327" transform="translate(-910.628 -7859.528)" fill="#fff" stroke="#999" stroke-miterlimit="10" stroke-width="0.75" opacity="0.58"/>
      <path id="Trazado_108986" data-name="Trazado 108986" d="M1038.755,7936.836l-4.069-11.564c-1.314-4.192-2.411-10.621-3.472-16.838-1.4-8.185-2.84-16.652-4.715-19.447l.483-.325c1.944,2.9,3.334,11.047,4.805,19.674,1.058,6.2,2.151,12.607,3.451,16.753l4.065,11.555Z" transform="translate(-909.576 -7812.748)" fill="#999"/>
      <path id="Trazado_108987" data-name="Trazado 108987" d="M1007.825,8072.783a.388.388,0,0,1-.277-.659c4.584-4.687,4.459-21.592,4.456-21.763-.172-14.354-1.474-34.381-3.764-57.918-.1-.979-.06-6.794.024-7.839.672-8.308,1.1-14.688,1.445-19.816.394-5.871.679-10.112,1.107-14.094.222-2.069.476-4.065.721-6,.862-6.77,1.677-13.163.926-21.2-.941-10.09-7.858-39.5-8.129-40.654-.167-.4-1.3-3.618-.015-13.287,1.337-10.052,1.694-16.054,1.7-16.114a.388.388,0,0,1,.774.045c0,.06-.362,6.087-1.7,16.171-1.313,9.877-.044,12.874-.032,12.9.1.375,7.219,30.569,8.179,40.863.757,8.126-.061,14.561-.929,21.374-.246,1.928-.5,3.919-.721,5.982-.426,3.966-.711,8.2-1.1,14.063-.344,5.129-.773,11.514-1.445,19.826-.079.979-.116,6.768-.026,7.7,2.293,23.559,3.6,43.61,3.768,57.986.008.708.13,17.4-4.677,22.314A.384.384,0,0,1,1007.825,8072.783Z" transform="translate(-904.468 -7804.77)" fill="#4d4d4d"/>
      <path id="Trazado_108988" data-name="Trazado 108988" d="M985.009,8063.083a.388.388,0,0,1-.388-.384l-.458-45.536L983,7992.081c-.009-.31-.8-30.235-.485-37.879.478-11.474.081-19.277-1.18-23.193-1.618-5.029-11.356-25.308-11.455-25.512l-2.942-8.116c-.029-.084-2.885-8.123-6.405-10.831l-3.654-2.81a.388.388,0,0,1,.473-.615l3.653,2.81c3.7,2.848,6.544,10.847,6.663,11.185l2.926,8.077c.387.8,9.844,20.495,11.48,25.573,1.289,4,1.7,11.9,1.216,23.463-.317,7.618.477,37.518.485,37.819l1.166,25.089.458,45.55a.388.388,0,0,1-.384.392Z" transform="translate(-893.934 -7811.489)" fill="#4d4d4d"/>
      <g id="Grupo_56319" data-name="Grupo 56319" transform="translate(54.445 117.51)">
        <path id="Trazado_108989" data-name="Trazado 108989" d="M1020.428,7955.559l-20.454-3.515s-21.745-4.414-28.885-2.336-22.589,6.231-22.589,6.231l-2.077-6.787s19.862-8.792,36.544-5.936,36.545,5.453,36.545,5.453l1.566.173A8.63,8.63,0,0,1,1020.428,7955.559Z" transform="translate(-946.069 -7942.361)" fill="#fff"/>
        <path id="Trazado_108990" data-name="Trazado 108990" d="M948.2,7956.21l-2.235-7.3.236-.1c.2-.088,20.135-8.8,36.711-5.955,16.484,2.82,36.334,5.423,36.533,5.449l1.739.193.062.169a8.835,8.835,0,0,1-.669,6.96l-.1.178-20.655-3.55c-.226-.045-21.762-4.376-28.755-2.344-7.061,2.055-22.44,6.191-22.595,6.233Zm-1.527-6.976,1.919,6.269c2.1-.565,15.774-4.255,22.311-6.157,7.127-2.074,28.134,2.15,29.025,2.331l20.242,3.478a8.427,8.427,0,0,0,.584-6.127l-1.379-.151c-.2-.027-20.064-2.631-36.561-5.455C967.388,7940.783,948.969,7948.265,946.675,7949.234Z" transform="translate(-945.967 -7942.279)" fill="#999"/>
      </g>
      <g id="Grupo_56320" data-name="Grupo 56320" transform="translate(128.138 123.991)">
        <path id="Trazado_108991" data-name="Trazado 108991" d="M1041.773,7955.549l3.054-2.141,1.412.434s.6.2.6-.373l-1.167-2.358s-.567-1.009-1.029-.1l-.459,1.663-2.778,2.146-.45.771Z" transform="translate(-1040.955 -7950.632)" fill="#666"/>
      </g>
      <g id="Grupo_56321" data-name="Grupo 56321" transform="translate(83.863 116.207)">
        <path id="Trazado_108992" data-name="Trazado 108992" d="M984.7,7945.516l3.054-2.14,1.411.434s.6.2.6-.374l-1.167-2.357s-.568-1.009-1.029-.1l-.458,1.663-2.779,2.146-.449.771Z" transform="translate(-983.886 -7940.6)" fill="#666"/>
      </g>
      <g id="Grupo_56322" data-name="Grupo 56322" transform="translate(52.547 121.961)">
        <path id="Trazado_108993" data-name="Trazado 108993" d="M948.584,7952.933l-3.054-2.141-1.412.434s-.6.2-.6-.373l1.167-2.358s.567-1.009,1.03-.1l.458,1.663,2.778,2.146.45.771Z" transform="translate(-943.52 -7948.016)" fill="#666"/>
      </g>
      <path id="Trazado_108994" data-name="Trazado 108994" d="M1003.806,7851.949c-9.686,0-18.572-6.31-18.683-6.391l.34-.471c.137.1,13.85,9.829,25.565,4.88l.227.536A19.022,19.022,0,0,1,1003.806,7851.949Z" transform="translate(-900.3 -7802.98)" fill="#999"/>
      <g id="Grupo_56326" data-name="Grupo 56326" transform="translate(91.674)">
        <g id="Grupo_56323" data-name="Grupo 56323" transform="translate(0.76)">
          <path id="Trazado_108995" data-name="Trazado 108995" d="M1006.91,7798.731c0-4.1-2.57-7.419-5.739-7.419s-5.738,3.322-5.738,7.419c0,3.205,1.574,5.927,3.774,6.965v27.572h4.336v-27.786A7.762,7.762,0,0,0,1006.91,7798.731Z" transform="translate(-995.045 -7790.924)" fill="#fff"/>
          <path id="Trazado_108996" data-name="Trazado 108996" d="M1003.819,7833.543h-5.112v-27.721c-2.267-1.2-3.774-4.057-3.774-7.2,0-4.3,2.748-7.807,6.126-7.807s6.127,3.5,6.127,7.807a8.274,8.274,0,0,1-3.366,6.967Zm-4.336-.776h3.56v-27.62l.191-.113a7.406,7.406,0,0,0,3.175-6.416c0-3.876-2.4-7.031-5.351-7.031s-5.35,3.155-5.35,7.031c0,2.954,1.427,5.611,3.552,6.613l.222.1Z" transform="translate(-994.933 -7790.812)" fill="#999"/>
        </g>
        <g id="Grupo_56324" data-name="Grupo 56324" transform="translate(0 8.956)">
          <rect id="Rectángulo_10250" data-name="Rectángulo 10250" width="13.457" height="2.169" rx="1.085" transform="translate(0.388 0.388)" fill="#fff"/>
          <path id="Trazado_108997" data-name="Trazado 108997" d="M1006.861,7805.3H995.279a1.327,1.327,0,0,1-1.325-1.326v-.294a1.327,1.327,0,0,1,1.325-1.325h11.582a1.327,1.327,0,0,1,1.325,1.325v.294A1.327,1.327,0,0,1,1006.861,7805.3Zm-11.582-2.169a.55.55,0,0,0-.549.549v.294a.55.55,0,0,0,.549.55h11.582a.55.55,0,0,0,.549-.55v-.294a.55.55,0,0,0-.549-.549Z" transform="translate(-993.954 -7802.355)" fill="#999"/>
        </g>
        <g id="Grupo_56325" data-name="Grupo 56325" transform="translate(0 4.815)">
          <rect id="Rectángulo_10251" data-name="Rectángulo 10251" width="13.457" height="2.169" rx="1.085" transform="translate(0.388 0.388)" fill="#fff"/>
          <path id="Trazado_108998" data-name="Trazado 108998" d="M1006.861,7799.963H995.279a1.327,1.327,0,0,1-1.325-1.326v-.293a1.328,1.328,0,0,1,1.325-1.326h11.582a1.328,1.328,0,0,1,1.325,1.326v.293A1.327,1.327,0,0,1,1006.861,7799.963Zm-11.582-2.169a.551.551,0,0,0-.549.55v.293a.551.551,0,0,0,.549.551h11.582a.551.551,0,0,0,.549-.551v-.293a.551.551,0,0,0-.549-.55Z" transform="translate(-993.954 -7797.018)" fill="#999"/>
        </g>
      </g>
      <g id="Grupo_56327" data-name="Grupo 56327" transform="translate(37.688 78.493)">
        <ellipse id="Elipse_4348" data-name="Elipse 4348" cx="7.816" cy="16.905" rx="7.816" ry="16.905" transform="translate(0.388 0.388)" fill="#fff"/>
        <path id="Trazado_108999" data-name="Trazado 108999" d="M932.571,7926.572c-4.6,0-8.2-7.6-8.2-17.293s3.6-17.292,8.2-17.292,8.2,7.6,8.2,17.292S937.172,7926.572,932.571,7926.572Zm0-33.809c-4.1,0-7.428,7.409-7.428,16.516s3.332,16.517,7.428,16.517,7.428-7.41,7.428-16.517S936.668,7892.763,932.571,7892.763Z" transform="translate(-924.368 -7891.987)" fill="gray"/>
      </g>
      <ellipse id="Elipse_4349" data-name="Elipse 4349" cx="1.646" cy="2.166" rx="1.646" ry="2.166" transform="translate(43.515 93.619)" fill="#454545"/>
      <path id="Trazado_109000" data-name="Trazado 109000" d="M935.183,7890.876l-.68-.373c.1-.177,2.457-4.343,10.771-6.037l.154.76C937.5,7886.842,935.206,7890.836,935.183,7890.876Z" transform="translate(-888.952 -7811.808)" fill="gray"/>
      <g id="Grupo_56328" data-name="Grupo 56328" transform="translate(61.334 186.984)">
        <path id="Trazado_109001" data-name="Trazado 109001" d="M983.491,8036.181q-.725,0-1.473-.007c-19.078-.168-27.091-3.781-27.171-3.818l.245-.527c.078.035,8,3.6,26.931,3.764,16.744.154,24.716-2.24,24.8-2.264l.171.555C1006.913,8033.907,999.34,8036.181,983.491,8036.181Z" transform="translate(-954.847 -8031.828)" fill="#999"/>
        <path id="Trazado_109002" data-name="Trazado 109002" d="M984.017,8042.465q-.9,0-1.792-.029c-17.857-.573-26.336-4.035-26.42-4.069l.224-.536c.082.034,8.48,3.456,26.216,4.023,12.3.406,25.229-3.511,25.357-3.551l.171.557A93.713,93.713,0,0,1,984.017,8042.465Z" transform="translate(-955.062 -8033.174)" fill="#999"/>
        <path id="Trazado_109003" data-name="Trazado 109003" d="M993.324,8042.053l-1.916-1.608,1.432-1.648-1.719-1.565.392-.43,2.14,1.948-1.417,1.631,1.463,1.228Z" transform="translate(-962.979 -8032.943)" fill="#999"/>
        <path id="Trazado_109004" data-name="Trazado 109004" d="M996.739,8042.053l-1.916-1.608,1.432-1.648-1.719-1.565.392-.43,2.14,1.948-1.417,1.631,1.463,1.228Z" transform="translate(-963.745 -8032.943)" fill="#999"/>
        <path id="Trazado_109005" data-name="Trazado 109005" d="M1000.245,8041.907l-1.788-1.564,1.335-1.6-1.6-1.52.4-.421,2,1.894-1.321,1.584,1.361,1.189Z" transform="translate(-964.564 -8032.943)" fill="#999"/>
        <path id="Trazado_109006" data-name="Trazado 109006" d="M1003.724,8041.568l-1.8-1.483,1.33-1.5-1.574-1.409.388-.433,2.005,1.794-1.314,1.486,1.335,1.1Z" transform="translate(-965.346 -8032.929)" fill="#999"/>
        <path id="Trazado_109007" data-name="Trazado 109007" d="M1006.833,8041.129l-1.8-1.482,1.33-1.5-1.574-1.409.388-.434,2.005,1.794-1.314,1.485,1.335,1.1Z" transform="translate(-966.043 -8032.831)" fill="#999"/>
        <path id="Trazado_109008" data-name="Trazado 109008" d="M975.1,8041.321l-1.737-1.719,1.615-1.464-1.518-1.633.426-.4,1.919,2.063-1.6,1.447,1.3,1.286Z" transform="translate(-958.998 -8032.788)" fill="#999"/>
        <path id="Trazado_109009" data-name="Trazado 109009" d="M978.5,8041.605l-1.738-1.718,1.615-1.464-1.518-1.633.426-.4,1.919,2.063-1.6,1.448,1.3,1.286Z" transform="translate(-959.76 -8032.852)" fill="#999"/>
        <path id="Trazado_109010" data-name="Trazado 109010" d="M982.159,8041.912l-1.738-1.718,1.615-1.464-1.518-1.633.426-.4,1.919,2.063-1.6,1.447,1.3,1.287Z" transform="translate(-960.58 -8032.92)" fill="#999"/>
        <path id="Trazado_109011" data-name="Trazado 109011" d="M964.481,8039.447l-1.737-1.718,1.615-1.464-1.518-1.634.426-.4,1.919,2.064-1.6,1.447,1.3,1.286Z" transform="translate(-956.617 -8032.368)" fill="#999"/>
        <path id="Trazado_109012" data-name="Trazado 109012" d="M961.156,8038.646l-1.738-1.718,1.615-1.464-1.518-1.633.426-.4,1.919,2.063-1.6,1.448,1.3,1.286Z" transform="translate(-955.872 -8032.188)" fill="#999"/>
        <path id="Trazado_109013" data-name="Trazado 109013" d="M958.411,8037.86l-1.738-1.719,1.615-1.464-1.518-1.633.426-.4,1.919,2.063-1.6,1.447,1.3,1.286Z" transform="translate(-955.256 -8032.012)" fill="#999"/>
        <path id="Trazado_109014" data-name="Trazado 109014" d="M967.88,8040.21l-1.738-1.717,1.615-1.464-1.518-1.633.426-.4,1.919,2.064-1.6,1.447,1.3,1.286Z" transform="translate(-957.379 -8032.539)" fill="#999"/>
        <path id="Trazado_109015" data-name="Trazado 109015" d="M971.538,8040.517,969.8,8038.8l1.615-1.464L969.9,8035.7l.426-.4,1.919,2.063-1.6,1.447,1.3,1.285Z" transform="translate(-958.199 -8032.608)" fill="#999"/>
        <path id="Trazado_109016" data-name="Trazado 109016" d="M985.622,8042.2l-1.738-1.718,1.615-1.464-1.518-1.633.426-.4,1.919,2.063-1.6,1.448,1.3,1.286Z" transform="translate(-961.357 -8032.986)" fill="#999"/>
        <path id="Trazado_109017" data-name="Trazado 109017" d="M989.012,8042.02l-1.738-1.719,1.615-1.463-1.518-1.634.426-.4,1.919,2.064-1.6,1.447,1.3,1.286Z" transform="translate(-962.117 -8032.944)" fill="#999"/>
        <path id="Trazado_109018" data-name="Trazado 109018" d="M1013.2,8040l-1.948-1.276,1.387-1.247-1.568-1.115.337-.474,2.16,1.536-1.366,1.228,1.316.863Z" transform="translate(-967.451 -8032.739)" fill="#999"/>
        <path id="Trazado_109019" data-name="Trazado 109019" d="M1016.291,8039.368l-1.949-1.276,1.388-1.247-1.568-1.115.337-.475,2.16,1.537-1.366,1.228,1.316.862Z" transform="translate(-968.145 -8032.596)" fill="#999"/>
        <path id="Trazado_109020" data-name="Trazado 109020" d="M1019.451,8038.712l-1.948-1.276,1.388-1.247-1.568-1.115.337-.474,2.16,1.536-1.366,1.228,1.316.863Z" transform="translate(-968.853 -8032.449)" fill="#999"/>
        <path id="Trazado_109021" data-name="Trazado 109021" d="M1009.675,8040.358l-1.853-1.3,1.33-1.284-1.519-1.16.353-.462,2.057,1.57-1.31,1.265,1.277.9Z" transform="translate(-966.681 -8032.797)" fill="#999"/>
      </g>
      <path id="Trazado_109022" data-name="Trazado 109022" d="M961.8,8387.139c-5.577,0-9.271-5.983-9.311-6.048l.5-.3c.041.067,4.154,6.723,10.107,5.651,6.13-1.1,7.43-3.5,8.713-7.05l.547.2c-1.31,3.622-2.734,6.275-9.158,7.424A7.856,7.856,0,0,1,961.8,8387.139Z" transform="translate(-892.985 -7922.763)" fill="#999"/>
      <path id="Trazado_109023" data-name="Trazado 109023" d="M999.61,8371.636c-5.636,0-8.938-6.9-9.079-7.2l.527-.247c.034.073,3.444,7.221,9,6.847,5.624-.391,7.673-4.116,9.169-6.836l.525.253c-1.488,2.7-3.712,6.751-9.653,7.164C999.932,8371.631,999.77,8371.636,999.61,8371.636Z" transform="translate(-901.513 -7919.355)" fill="#999"/>
      <path id="Trazado_109024" data-name="Trazado 109024" d="M954.912,8285.985h-.582v-27.78c0-.133-.273-13.843-.572-16.531a126.533,126.533,0,0,1-.608-18.162c.4-6.6,1.172-26.609,1.181-26.811,0-.176-.023-18.871-1.3-26.249-1.068-6.174-3.339-27.251-4.7-39.845-.3-2.753-.554-5.136-.75-6.925-1.1-10.018-1.416-41.5-1.419-41.821.061-1.373,1.52-33.356,4.873-42.336,3.334-8.927,7.129-21.83,7.167-21.96l1.753-5.56-21.422-77.632.56-.154,21.468,77.8-1.8,5.718c-.036.124-3.837,13.048-7.178,21.994-3.321,8.895-4.822,41.812-4.836,42.143,0,.3.316,31.759,1.415,41.748.2,1.789.454,4.173.75,6.925,1.357,12.587,3.626,33.654,4.691,39.81,1.284,7.427,1.307,26.171,1.307,26.359-.008.213-.781,20.229-1.181,26.834a125.781,125.781,0,0,0,.605,18.063c.3,2.714.565,16.023.576,16.589Z" transform="translate(-889.857 -7822.961)" fill="#999"/>
      <path id="Trazado_109025" data-name="Trazado 109025" d="M969.953,8311.277h-.019a.389.389,0,0,1-.369-.407c.042-.815,4.1-81.565,4.1-84.958,0-3.471.62-11.778,2.053-15.259,1.378-3.346,3.031-23.961,3.047-24.17l1.826-70.409,2.63-71.244a.388.388,0,0,1,.775.028l-2.63,71.24-1.827,70.426c-.069.874-1.68,20.966-3.1,24.424-1.393,3.382-1.995,11.546-1.995,14.964s-3.938,81.668-4.106,85A.388.388,0,0,1,969.953,8311.277Z" transform="translate(-896.812 -7847.675)" fill="#4d4d4d"/>
      <path id="Trazado_109026" data-name="Trazado 109026" d="M996.065,8086.1c-2.434,0-9.5-.1-29.161-.834-26.806-1-28.4-5.292-28.5-5.779a.388.388,0,0,1,.757-.168c.047.121,1.929,4.213,27.77,5.171,26.824,1,30.16.826,30.288.819a.388.388,0,0,1,.049.774C997.237,8086.082,996.971,8086.1,996.065,8086.1Z" transform="translate(-889.825 -7855.424)" fill="#4d4d4d"/>
      <path id="Trazado_109027" data-name="Trazado 109027" d="M1028.813,8094.527l-.58-.04c.013-.2,1.34-20.089.679-31.941-.658-11.8-6.522-22.768-6.582-22.878l.512-.277c.06.111,5.986,11.188,6.651,23.124C1030.156,8074.4,1028.827,8094.327,1028.813,8094.527Z" transform="translate(-908.642 -7846.54)" fill="#999"/>
      <path id="Trazado_109028" data-name="Trazado 109028" d="M989.686,8125.508c-.615-5.318-2.326-7.481-7.405-13.9-.752-.951-1.577-1.994-2.481-3.153-10.274-13.162-20.989-18.043-29.177-20.826-8.1-2.75-14.263,3.518-14.325,3.581l-.419-.4c.064-.066,6.487-6.6,14.932-3.73,8.263,2.809,19.079,7.736,29.448,21.02.9,1.157,1.728,2.2,2.479,3.15,5.016,6.341,6.892,8.714,7.527,14.2Z" transform="translate(-889.26 -7857.067)" fill="#999"/>
      <path id="Trazado_109029" data-name="Trazado 109029" d="M991.475,8203.459l-.579-.054c.031-.332,3.142-33.258,3.642-39.158s1.406-23.493,1.416-23.67c.064-.484,1.573-11.331,6.858-12.714,4.292-1.122,4.815-1.578,7.723-4.1.541-.47,1.162-1.01,1.9-1.637,4.671-3.958,12.737-22.775,12.817-22.965l.535.229c-.333.779-8.2,19.134-12.977,23.18-.739.626-1.358,1.165-1.9,1.633-2.995,2.6-3.534,3.07-7.958,4.229-4.911,1.285-6.411,12.095-6.426,12.2-.007.153-.915,17.758-1.415,23.664S991.506,8203.128,991.475,8203.459Z" transform="translate(-901.594 -7859.938)" fill="#999"/>
      <path id="Trazado_109030" data-name="Trazado 109030" d="M995.432,8331.565l-.582-.01c0-.345.5-34.609.1-41.268-.417-6.951.441-23.679,2.438-31.66,1.99-7.962,1.348-22.036,1.341-22.178l-3.777-38.169.579-.058,3.778,38.184c.008.156.654,14.318-1.357,22.361-1.983,7.933-2.836,24.568-2.42,31.485C995.933,8296.933,995.437,8331.22,995.432,8331.565Z" transform="translate(-902.481 -7882.148)" fill="#999"/>
      <path id="Trazado_109031" data-name="Trazado 109031" d="M994.824,7889.939c-11.726,0-22.662-11.19-23.17-11.716a.387.387,0,1,1,.558-.538c.135.139,13.626,13.938,26.25,11.079a16.585,16.585,0,0,0,8.666-6.184.388.388,0,0,1,.625.461,15.054,15.054,0,0,1-12.928,6.9Z" transform="translate(-897.256 -7810.262)" fill="#4d4d4d"/>
      <rect id="Rectángulo_10252" data-name="Rectángulo 10252" width="4.014" height="12.211" transform="translate(94.381 19.743)" fill="#464646"/>
      <rect id="Rectángulo_10253" data-name="Rectángulo 10253" width="2.909" height="12.211" transform="translate(99.635 19.743)" fill="#464646"/>
      <rect id="Rectángulo_10254" data-name="Rectángulo 10254" width="2.975" height="5.06" transform="translate(102.544 22.712)" fill="#464646"/>
      <rect id="Rectángulo_10255" data-name="Rectángulo 10255" width="6.787" height="328.625" transform="translate(24.061 54.891)" fill="#464646"/>
      <rect id="Rectángulo_10256" data-name="Rectángulo 10256" width="6.787" height="36.497" transform="translate(94.381 21.125) rotate(90)" fill="#464646"/>
      <path id="Trazado_109032" data-name="Trazado 109032" d="M913.518,7855.247s-2.176-16.393,8.55-24.185a43.317,43.317,0,0,1,25-6.234v-6.787s-17.563-.375-27.862,7.253c-10.04,7.438-12.948,15.078-12.709,28.638Z" transform="translate(-882.669 -7796.916)" fill="#464646"/>
      <g id="Grupo_56329" data-name="Grupo 56329" transform="translate(23.673 391.88)">
        <rect id="Rectángulo_10257" data-name="Rectángulo 10257" width="6.787" height="70.754" rx="3.393" transform="translate(0.388 0.389)" fill="#fff"/>
        <path id="Trazado_109033" data-name="Trazado 109033" d="M910.475,8367.465h-.78a3.4,3.4,0,0,1-3.392-3.393v-64.746a3.4,3.4,0,0,1,3.392-3.393h.78a3.4,3.4,0,0,1,3.391,3.393v64.746A3.4,3.4,0,0,1,910.475,8367.465Zm-.78-70.756a2.62,2.62,0,0,0-2.616,2.617v64.746a2.619,2.619,0,0,0,2.616,2.616h.78a2.618,2.618,0,0,0,2.615-2.616v-64.746a2.62,2.62,0,0,0-2.615-2.617Z" transform="translate(-906.303 -8295.934)" fill="#999"/>
      </g>
      <rect id="Rectángulo_10258" data-name="Rectángulo 10258" width="9.462" height="16.292" transform="translate(22.702 382.2)" fill="#464646"/>
      <path id="Trazado_109034" data-name="Trazado 109034" d="M920.783,8422.521l4.9-3.913,54.442,31.843-3.306,3.035Z" transform="translate(-885.876 -7931.555)" fill="#464646"/>
      <g id="Grupo_56330" data-name="Grupo 56330" transform="translate(84.487 518.806)">
        <path id="Trazado_109035" data-name="Trazado 109035" d="M1008.5,8467.909l-9.451,8.417-13.706-7.421L995.461,8460Z" transform="translate(-984.836 -8459.64)" fill="#fff"/>
        <path id="Trazado_109036" data-name="Trazado 109036" d="M998.942,8476.575l-14.252-7.717,10.593-9.322.183.111,13.374,8.113Zm-13.242-7.832,13.159,7.126,9-8.019-12.519-7.595Z" transform="translate(-984.69 -8459.536)" fill="#999"/>
      </g>
      <path id="Trazado_109037" data-name="Trazado 109037" d="M1009.776,8462.645l-11.131,9.715-11.941-6.554L997.846,8456Z" transform="translate(-900.654 -7939.938)" fill="#9f9f9f"/>
    </g>
  </g>
</svg>
