<svg xmlns="http://www.w3.org/2000/svg" width="459.387" height="555.252" viewBox="0 0 459.387 555.252">
  <g id="Grupo_57741" data-name="Grupo 57741" transform="translate(-552.613 -7176)">
    <g id="Grupo_56491" data-name="Grupo 56491" transform="translate(-136.633 7145.225)">
      <rect id="Rectángulo_10325" data-name="Rectángulo 10325" width="175.866" height="555.252" rx="16.522" transform="translate(689.245 30.776)" fill="#fff"/>
      <g id="Grupo_56490" data-name="Grupo 56490" transform="translate(701.227 45.47)">
        <g id="Grupo_56467" data-name="Grupo 56467" transform="translate(7.739 171.46)" opacity="0.81">
          <path id="Trazado_109472" data-name="Trazado 109472" d="M743.483,528.426s-7.744-.256-12.16-1.472-6.463-1.792-7.935-1.472-6.848,2.047-6.848,2.047,3.008-22.335,2.817-28.479.576-49.726.576-49.726-1.92-43.2-.576-55.87,4.032-50.495,4.032-50.495,2.3-41.445,1.728-51.825l-.192-6.925s20.159,5.184,25.535,3.264l.816-.361v4.344l-.552,6.5-.96,5.5-.936,4.128-1.953,16.663L745.4,349.612l-.776,40.193-.341,27.908,1.465,20.526,1.179,16.459.52,7.554-.5,13.5-1.167,14.661-1.168,12.348-.484,5.954v19.712Z" transform="translate(-716.173 -283.842)" fill="#999"/>
          <path id="Trazado_109473" data-name="Trazado 109473" d="M743.992,528.662h-.652c-.318-.01-7.838-.271-12.245-1.484l-.205-.057c-4.126-1.136-6.2-1.708-7.555-1.41-1.438.312-6.759,2.021-6.813,2.039a.37.37,0,0,1-.349-.068.366.366,0,0,1-.128-.331c.029-.223,3-22.375,2.811-28.419-.19-6.082.569-49.308.576-49.744-.018-.409-1.9-43.349-.574-55.9,1.328-12.52,4-50.1,4.031-50.482.023-.408,2.3-41.537,1.727-51.779l-.192-6.935a.369.369,0,0,1,.46-.367c.2.052,20.108,5.134,25.32,3.274l.791-.35a.375.375,0,0,1,.35.028.369.369,0,0,1,.166.308v4.344l-.553,6.535-.964,5.528-.94,4.146-1.946,16.624L745.632,349.5l-.776,40.179-.342,27.9,3.163,44.509-.5,13.54-1.169,14.676-1.168,12.353-.484,5.95v19.681A.368.368,0,0,1,743.992,528.662Zm-.634-.736h.266V508.583l.486-5.984,1.168-12.352,1.167-14.656.5-13.485-.519-7.514-2.644-36.984.341-27.938.776-40.2,1.479-25.378,1.955-16.684.943-4.166.957-5.478.548-6.472v-3.748l-.3.132c-5.042,1.8-22.154-2.337-25.3-3.124l.178,6.438c.571,10.271-1.705,51.441-1.728,51.856-.027.383-2.7,37.98-4.034,50.512-1.325,12.5.559,55.384.578,55.816-.007.458-.766,43.666-.576,49.731.176,5.627-2.262,24.351-2.742,27.963,1.419-.452,5.122-1.618,6.327-1.88,1.537-.334,3.534.216,7.907,1.42l.206.057C735.561,527.644,743.1,527.917,743.358,527.926Z" transform="translate(-716.041 -283.71)" fill="#4d4d4d"/>
        </g>
        <g id="Grupo_56483" data-name="Grupo 56483">
          <g id="Grupo_56468" data-name="Grupo 56468" transform="translate(0 448.644)">
            <path id="Trazado_109474" data-name="Trazado 109474" d="M733.111,670.213l6.815-3.648a9.165,9.165,0,0,1,8.791-5.856c6.664.192,9.641,2.592,11.849,6.528s2.783,3.936,5.184,4.992,30.785,15.839,33.44,18.047a7.951,7.951,0,0,0,6.207,1.44s9.984-1.728,14.207,2.016,3.552,9.216-.576,11.232-10.464,3.072-15.552,0-35.582-20.543-35.582-20.543-18.945-7.2-23.553-5.952a19.37,19.37,0,0,0-6.815,3.072s-4.32,6.144,2.976,14.112,19.967,17.184,19.967,17.184l9.12,5.855s14.828,4.416,15.381,9.984-2.134,8.16-7.99,8.64-15.84-2.016-18.623-8.735a13.851,13.851,0,0,1-.576-3.744c-.1-2.4-37.055-24.671-37.055-24.671S709.5,697,706.711,691.237s2.4-11.616,2.4-11.616a11.76,11.76,0,0,1,8.927-1.92l6.624-3.744Z" transform="translate(-705.622 -660.43)" fill="#fff"/>
            <path id="Trazado_109475" data-name="Trazado 109475" d="M775.408,737.55c-6.006,0-14.773-2.619-17.4-8.964a13.933,13.933,0,0,1-.6-3.838c-.188-1.713-22.714-15.883-36.889-24.427-.826-.237-11.4-3.365-14.154-9.063-2.831-5.858,2.389-11.859,2.441-11.919a11.863,11.863,0,0,1,9.083-2.024l6.541-3.7,8.462-3.751,6.717-3.6a9.48,9.48,0,0,1,8.7-5.941c.1,0,.209,0,.315,0,6.021.173,9.521,2.1,12.081,6.669,1.992,3.551,2.581,3.8,4.529,4.646l.525.227c2.485,1.094,30.888,15.912,33.5,18.088a7.726,7.726,0,0,0,5.972,1.382c.424-.074,10.174-1.709,14.449,2.079a7.849,7.849,0,0,1,2.9,6.881,6.24,6.24,0,0,1-3.533,4.805c-4.221,2.061-10.593,3.141-15.815-.012-5.027-3.035-35.272-20.365-35.577-20.54-.149-.053-18.869-7.133-23.343-5.925a19.743,19.743,0,0,0-6.683,3c-.351.526-3.885,6.242,2.975,13.735,7.193,7.856,19.8,17.056,19.927,17.147l9.074,5.825c1.011.3,14.983,4.609,15.539,10.209.267,2.685-.2,4.7-1.416,6.165-1.335,1.6-3.568,2.51-6.825,2.777C776.433,737.531,775.931,737.55,775.408,737.55Zm-59.567-59.836a11.156,11.156,0,0,0-6.65,2.021c-.021.027-5,5.759-2.327,11.283,2.7,5.581,13.731,8.751,13.841,8.782l.068.03c6.193,3.731,37.091,22.471,37.188,24.9a13.715,13.715,0,0,0,.56,3.662c2.748,6.631,12.567,9.023,18.341,8.554,3.1-.255,5.211-1.1,6.446-2.58,1.12-1.345,1.543-3.227,1.291-5.758-.529-5.32-15.04-9.7-15.186-9.746l-.07-.032-9.119-5.856c-.141-.1-12.791-9.332-20.022-17.229-7.36-8.038-3.043-14.394-3-14.457l.05-.054a19.456,19.456,0,0,1,6.92-3.126c4.635-1.259,22.945,5.665,23.721,5.96.344.194,30.6,17.527,35.627,20.565s11.385,1.9,15.287-.012a5.694,5.694,0,0,0,3.229-4.383,7.31,7.31,0,0,0-2.715-6.393c-4.074-3.613-13.878-1.968-13.978-1.95a8.142,8.142,0,0,1-6.43-1.5c-2.6-2.161-30.9-16.916-33.374-18.006l-.521-.227c-2.026-.874-2.708-1.168-4.793-4.882-2.071-3.693-4.839-6.192-11.615-6.387a8.912,8.912,0,0,0-8.523,5.671l-.035.1-6.929,3.707-8.448,3.744L718,677.89l-.095-.015A13.394,13.394,0,0,0,715.841,677.714Z" transform="translate(-705.526 -660.331)" fill="#999"/>
          </g>
          <path id="Trazado_109476" data-name="Trazado 109476" d="M733.111,660.822l6.815-3.647a9.164,9.164,0,0,1,8.791-5.856c6.664.192,9.641,2.592,11.849,6.528s2.783,3.936,5.184,4.991,30.785,15.84,33.44,18.048a7.951,7.951,0,0,0,6.207,1.44s9.984-1.728,14.207,2.016,3.552,9.215-.576,11.232-10.464,3.071-15.552,0-35.582-20.543-35.582-20.543-18.945-7.2-23.553-5.952a19.362,19.362,0,0,0-6.815,3.071s-4.32,6.144,2.976,14.112,19.967,17.184,19.967,17.184l9.12,5.856s14.828,4.416,15.381,9.984-2.134,8.16-7.99,8.64-15.84-2.016-18.623-8.735a13.858,13.858,0,0,1-.576-3.744c-.1-2.4-37.055-24.671-37.055-24.671s-11.231-3.168-14.015-8.928,2.4-11.615,2.4-11.615a11.76,11.76,0,0,1,8.927-1.92l6.624-3.744Z" transform="translate(-705.622 -209.306)" fill="#464646"/>
          <g id="Grupo_56469" data-name="Grupo 56469" transform="translate(20.497 435.788)">
            <rect id="Rectángulo_10326" data-name="Rectángulo 10326" width="11.52" height="22.367" rx="5.76" transform="translate(0.368 0.368)" fill="#fff"/>
            <path id="Trazado_109477" data-name="Trazado 109477" d="M739.936,665.967h-.865a5.7,5.7,0,0,1-5.7-5.7V648.56a5.7,5.7,0,0,1,5.7-5.7h.865a5.7,5.7,0,0,1,5.695,5.7v11.712A5.7,5.7,0,0,1,739.936,665.967Zm-.865-22.368a4.965,4.965,0,0,0-4.959,4.961v11.712a4.965,4.965,0,0,0,4.959,4.96h.865a4.965,4.965,0,0,0,4.959-4.96V648.56a4.965,4.965,0,0,0-4.959-4.961Z" transform="translate(-733.376 -642.863)" fill="#999"/>
          </g>
          <ellipse id="Elipse_4362" data-name="Elipse 4362" cx="5.76" cy="3.984" rx="5.76" ry="3.984" transform="translate(20.865 434.621)" fill="#464646"/>
          <g id="Grupo_56470" data-name="Grupo 56470" transform="translate(36.231 37.317)">
            <path id="Trazado_109478" data-name="Trazado 109478" d="M835.6,260.615c-1.6-5.033-8.883-13.308-8.883-13.308a6.419,6.419,0,0,1-.64-4.348l1.831-17.867,5.691-22.949,3.881-7.156s5.132-6.691,4.475-12.274l-1.889-6.569s-.159-5.59-.05-9.439c.026-.827.066-1.564.124-2.128l2.34-8.418.035-.325.014-.052.442-4.153h-.01l.328-3.079s.564-3.48-1.777-5.423a58.785,58.785,0,0,0-6.538-4.351s-7.888-3.413-10.857-5.4c0,0-2.886-1.4-3.006-7.709s-.556-6.435.413-9.41l2.25-7.2a29.157,29.157,0,0,0-15.6-6.964s-9.558-1.438-8.918,2.3a148.533,148.533,0,0,1-5.429,18.687s-4.356,7.3-9.339,7.87l-10.432,2.114s-15.422,1.643-16.451,7.046c0,0-4,4.31-1.816,20.337l.606,3.278,20.6,77.813.867,2.166-.867,3.437s-12.349,19.584-13.96,36.672c0,0,.267,43.1,2.187,59.038s7.88,50.687,7.88,50.687,2.3,16.9.375,27.839-3.455,21.311,0,38.4,2.112,34.751,2.112,34.751l-.576,9.216s1.866,4.927,9.477,4.8,8.891-7.36,8.891-7.36l3.52-45.439s1.7-22.079,1.04-27.647,1.317-14.3,1.317-14.3l4.362-22.175,1.163,14.207s-.4,7.872-2.507,11.9-2.689,19.391-2.017,23.423,2.592,21.12,2.592,21.12l.576,29.183s3.84,5.568,8.832,5.568,8.64-5.952,8.64-5.952l1.152-32.638,4.032-26.112s.192-13.248.192-15.935,2.112-9.407,3.84-11.9.576-13.823,1.152-18.815S836.638,349,836.638,349s2.3-40.7.576-55.678A318.87,318.87,0,0,1,835.6,260.615Z" transform="translate(-754.855 -101.544)" fill="#fff"/>
            <path id="Trazado_109479" data-name="Trazado 109479" d="M784.1,508.723c-7.475,0-9.429-4.93-9.448-4.98l-.021-.056.579-9.276c.013-.18,1.3-17.827-2.106-34.678-3.352-16.571-2.052-26.823,0-38.5,1.89-10.777-.355-27.586-.378-27.754-.058-.338-5.983-34.93-7.881-50.69s-2.187-58.638-2.19-59.069c1.568-16.629,13.37-35.8,13.979-36.782l.835-3.309-.833-2.083L756.023,163.7l-.61-3.3c-2.062-15.165,1.336-19.911,1.833-20.512,1.173-5.481,16.042-7.126,16.677-7.195l10.406-2.109c4.812-.556,9.114-7.669,9.156-7.741a148.737,148.737,0,0,0,5.386-18.554,1.838,1.838,0,0,1,.506-1.638c1.894-1.933,8.456-.972,8.735-.93a29.722,29.722,0,0,1,15.756,7.04l.121.118-2.3,7.36a11.228,11.228,0,0,0-.539,5.275c.046,1.015.1,2.279.138,4.048.116,6.035,2.825,7.453,2.853,7.467,2.946,1.972,10.767,5.363,10.846,5.4a59.225,59.225,0,0,1,6.6,4.392c2.435,2.02,1.9,5.531,1.873,5.68l-.806,7.594-2.349,8.463c-.045.472-.085,1.182-.113,2.063-.1,3.639.036,8.909.049,9.388l1.879,6.534c.671,5.674-4.309,12.241-4.521,12.518l-3.84,7.089-5.683,22.915-1.825,17.828a6.214,6.214,0,0,0,.606,4.183c.266.294,7.3,8.331,8.907,13.361l.013.085a321.069,321.069,0,0,0,1.61,32.67c1.711,14.827-.551,55.318-.574,55.725-.05.343-4.808,31.757-5.377,36.687a69.293,69.293,0,0,0-.16,7.422c.046,4.859.093,9.883-1.039,11.519-1.629,2.354-3.79,9.05-3.79,11.746,0,2.659-.191,15.807-.193,15.94l-4.034,26.149-1.153,32.679-.038.062c-.152.249-3.787,6.084-8.875,6.084s-8.9-5.455-9.059-5.687l-.047-.068v-.083l-.576-29.182c-.018-.146-1.925-17.1-2.59-21.08-.641-3.845-.184-19.341,2.045-23.6,2.059-3.931,2.471-11.711,2.476-11.789l-1-12.191-3.978,20.226c-.021.094-1.957,8.762-1.314,14.218.653,5.531-.969,26.8-1.038,27.7l-3.52,45.438c-.017.1-1.413,7.484-9.161,7.614Zm-8.91-5.124c.23.547,2.206,4.695,9.192,4.569,7.287-.122,8.572-6.845,8.623-7.132l3.517-45.411c.017-.221,1.688-22.116,1.041-27.594-.655-5.55,1.3-14.309,1.322-14.4l4.744-24.118,1.326,16.189c-.016.36-.422,8.015-2.538,12.054-2.025,3.868-2.684,19.082-1.989,23.25.666,3.993,2.576,20.963,2.6,21.134l.576,29.123c.45.62,4.06,5.382,8.557,5.382,4.514,0,7.969-5.144,8.367-5.76l1.15-32.564L825.7,432.18c0-.094.19-13.238.19-15.893,0-2.831,2.181-9.593,3.888-12.06,1.033-1.492.984-6.649.941-11.2a69.451,69.451,0,0,1,.164-7.491c.57-4.94,5.329-36.363,5.377-36.68.021-.381,2.279-40.825.574-55.605a320.6,320.6,0,0,1-1.613-32.693c-1.594-4.924-8.743-13.086-8.815-13.168a6.6,6.6,0,0,1-.7-4.6l1.823-17.821,5.723-23.052,3.881-7.156c.075-.1,5.08-6.705,4.444-12.111l-1.891-6.593c0-.056-.157-5.642-.05-9.455.029-.894.071-1.616.125-2.148l2.349-8.464.049-.376.751-7.187c.007-.049.511-3.366-1.678-5.182a59.041,59.041,0,0,0-6.5-4.324c-.3-.125-7.918-3.431-10.874-5.412-.091-.041-3.006-1.525-3.129-7.934-.034-1.761-.091-3.021-.137-4.033a11.763,11.763,0,0,1,.564-5.468l2.2-7.03a29.4,29.4,0,0,0-15.325-6.773c-.069-.011-6.564-.963-8.263.77a1.307,1.307,0,0,0-.347,1.213l.01.053-.012.052a149.789,149.789,0,0,1-5.442,18.728c-.2.345-4.5,7.462-9.564,8.045l-10.409,2.11c-.177.021-15.255,1.686-16.235,6.827l-.014.077-.053.059c-.039.043-3.875,4.462-1.746,20.113l.6,3.265,20.593,77.792.89,2.217-.923,3.6c-.124.2-12.331,19.725-13.92,36.549,0,.4.291,43.242,2.187,58.979s7.819,50.325,7.878,50.673c.025.179,2.281,17.073.376,27.934-2.039,11.62-3.334,21.82,0,38.3,3.424,16.929,2.13,34.65,2.117,34.826Z" transform="translate(-754.755 -101.444)" fill="#999"/>
          </g>
          <path id="Trazado_109480" data-name="Trazado 109480" d="M860.926,357.256" transform="translate(-746.555 -131.668)" fill="#fff" stroke="#999" stroke-miterlimit="10" stroke-width="0.75" opacity="0.58"/>
          <path id="Trazado_109481" data-name="Trazado 109481" d="M867.863,194.291,864,183.321a141.609,141.609,0,0,1-3.293-15.97c-1.325-7.768-2.7-15.8-4.475-18.453l.458-.308c1.845,2.752,3.164,10.483,4.561,18.668a141.331,141.331,0,0,0,3.271,15.889l3.857,10.961Z" transform="translate(-745.316 -76.575)" fill="#999"/>
          <path id="Trazado_109482" data-name="Trazado 109482" d="M837.351,321.431a.368.368,0,0,1-.263-.626c4.35-4.446,4.23-20.484,4.228-20.645-.164-13.618-1.4-32.618-3.572-54.945-.09-.932-.057-6.449.024-7.436.637-7.879,1.044-13.931,1.37-18.794.374-5.571.645-9.6,1.05-13.375.211-1.963.453-3.857.685-5.688.818-6.421,1.59-12.487.878-20.115-.891-9.572-7.453-37.475-7.711-38.566-.158-.384-1.234-3.432-.015-12.6,1.269-9.537,1.607-15.23,1.61-15.286a.36.36,0,0,1,.389-.346.368.368,0,0,1,.346.389c0,.057-.342,5.774-1.614,15.341-1.247,9.37-.043,12.212-.03,12.24.091.355,6.847,29,7.759,38.765.719,7.709-.059,13.814-.882,20.276-.233,1.828-.473,3.718-.683,5.674-.4,3.763-.674,7.782-1.048,13.345-.328,4.866-.733,10.92-1.372,18.8-.074.924-.11,6.415-.024,7.3,2.175,22.348,3.411,41.369,3.575,55.008.007.672.124,16.5-4.439,21.167A.363.363,0,0,1,837.351,321.431Z" transform="translate(-739.301 -67.18)" fill="#4d4d4d"/>
          <path id="Trazado_109483" data-name="Trazado 109483" d="M813.294,313.768a.368.368,0,0,1-.368-.364l-.435-43.2-1.105-23.793c-.008-.294-.761-28.683-.46-35.936.453-10.886.077-18.288-1.119-22-1.536-4.771-10.774-24.008-10.867-24.2l-2.792-7.7c-.029-.08-2.738-7.706-6.076-10.275l-3.466-2.666a.368.368,0,1,1,.449-.584l3.466,2.666c3.511,2.7,6.207,10.289,6.32,10.611l2.776,7.661c.367.759,9.338,19.443,10.89,24.261,1.222,3.8,1.611,11.285,1.155,22.258-.3,7.227.451,35.592.459,35.877l1.105,23.8.436,43.212a.368.368,0,0,1-.364.372Z" transform="translate(-726.895 -75.093)" fill="#4d4d4d"/>
          <g id="Grupo_56471" data-name="Grupo 56471" transform="translate(51.65 111.477)">
            <path id="Trazado_109484" data-name="Trazado 109484" d="M846.365,214.824l-19.4-3.334s-20.628-4.187-27.4-2.217-21.429,5.911-21.429,5.911l-1.97-6.439s18.842-8.339,34.667-5.63,34.668,5.172,34.668,5.172l1.486.164A8.183,8.183,0,0,1,846.365,214.824Z" transform="translate(-775.824 -202.305)" fill="#fff"/>
            <path id="Trazado_109485" data-name="Trazado 109485" d="M777.824,215.424,775.7,208.5l.224-.1c.188-.084,19.1-8.342,34.826-5.65,15.638,2.677,34.469,5.146,34.657,5.17l1.649.183.059.16a8.383,8.383,0,0,1-.634,6.6l-.1.168-19.6-3.366c-.214-.043-20.645-4.152-27.278-2.224-6.7,1.949-21.287,5.874-21.434,5.913Zm-1.448-6.618,1.82,5.947c1.989-.536,14.965-4.037,21.166-5.841,6.761-1.967,26.688,2.04,27.534,2.211l19.2,3.3a8,8,0,0,0,.553-5.813l-1.307-.144c-.194-.026-19.035-2.5-34.684-5.175C796.027,200.785,778.552,207.886,776.376,208.806Z" transform="translate(-775.704 -202.209)" fill="#999"/>
          </g>
          <g id="Grupo_56472" data-name="Grupo 56472" transform="translate(121.559 117.624)">
            <path id="Trazado_109486" data-name="Trazado 109486" d="M871.468,215.225l2.9-2.03,1.339.411s.568.19.567-.354l-1.107-2.237s-.538-.958-.976-.093l-.435,1.577-2.636,2.036-.427.732Z" transform="translate(-870.692 -210.562)" fill="#666"/>
          </g>
          <g id="Grupo_56473" data-name="Grupo 56473" transform="translate(79.557 110.24)">
            <path id="Trazado_109487" data-name="Trazado 109487" d="M814.4,205.193l2.9-2.031,1.339.411s.568.191.568-.354l-1.107-2.237s-.539-.958-.977-.093l-.434,1.577-2.636,2.036-.426.732Z" transform="translate(-813.623 -200.529)" fill="#666"/>
          </g>
          <g id="Grupo_56474" data-name="Grupo 56474" transform="translate(49.849 115.698)">
            <path id="Trazado_109488" data-name="Trazado 109488" d="M778.061,212.608l-2.9-2.03-1.339.411s-.567.19-.567-.354l1.107-2.237s.539-.958.977-.093l.434,1.576,2.635,2.036.427.732Z" transform="translate(-773.257 -207.945)" fill="#666"/>
          </g>
          <path id="Trazado_109489" data-name="Trazado 109489" d="M832.583,111.525c-9.189,0-17.618-5.985-17.724-6.062l.324-.447c.131.094,13.139,9.326,24.253,4.63l.214.508A18.024,18.024,0,0,1,832.583,111.525Z" transform="translate(-734.392 -65.071)" fill="#999"/>
          <g id="Grupo_56478" data-name="Grupo 56478" transform="translate(86.966)">
            <g id="Grupo_56475" data-name="Grupo 56475" transform="translate(0.721)">
              <path id="Trazado_109490" data-name="Trazado 109490" d="M836.057,58.279c0-3.887-2.437-7.038-5.444-7.038s-5.443,3.151-5.443,7.038c0,3.04,1.493,5.622,3.581,6.606V91.042h4.113V64.683A7.363,7.363,0,0,0,836.057,58.279Z" transform="translate(-824.802 -50.873)" fill="#fff"/>
              <path id="Trazado_109491" data-name="Trazado 109491" d="M833.1,91.278H828.25v-26.3c-2.151-1.139-3.581-3.849-3.581-6.834,0-4.084,2.607-7.406,5.811-7.406s5.812,3.322,5.812,7.406a7.85,7.85,0,0,1-3.193,6.609Zm-4.113-.736h3.377V64.34l.181-.107a7.027,7.027,0,0,0,3.012-6.087c0-3.678-2.277-6.67-5.076-6.67s-5.075,2.992-5.075,6.67c0,2.8,1.354,5.323,3.369,6.273l.211.1Z" transform="translate(-824.67 -50.741)" fill="#999"/>
            </g>
            <g id="Grupo_56476" data-name="Grupo 56476" transform="translate(0 8.496)">
              <rect id="Rectángulo_10327" data-name="Rectángulo 10327" width="12.766" height="2.058" rx="1.029" transform="translate(0.368 0.368)" fill="#fff"/>
              <path id="Trazado_109492" data-name="Trazado 109492" d="M835.935,65.079H824.948a1.26,1.26,0,0,1-1.258-1.258v-.279a1.259,1.259,0,0,1,1.258-1.257h10.987a1.259,1.259,0,0,1,1.257,1.257v.279A1.259,1.259,0,0,1,835.935,65.079Zm-10.987-2.058a.523.523,0,0,0-.522.521v.279a.523.523,0,0,0,.522.522h10.987a.522.522,0,0,0,.521-.522v-.279a.522.522,0,0,0-.521-.521Z" transform="translate(-823.69 -62.285)" fill="#999"/>
            </g>
            <g id="Grupo_56477" data-name="Grupo 56477" transform="translate(0 4.567)">
              <rect id="Rectángulo_10328" data-name="Rectángulo 10328" width="12.766" height="2.058" rx="1.029" transform="translate(0.368 0.368)" fill="#fff"/>
              <path id="Trazado_109493" data-name="Trazado 109493" d="M835.935,59.741H824.948a1.26,1.26,0,0,1-1.258-1.258V58.2a1.26,1.26,0,0,1,1.258-1.258h10.987a1.259,1.259,0,0,1,1.257,1.258v.278A1.259,1.259,0,0,1,835.935,59.741Zm-10.987-2.058a.523.523,0,0,0-.522.522v.278a.523.523,0,0,0,.522.522h10.987a.522.522,0,0,0,.521-.522V58.2a.522.522,0,0,0-.521-.522Z" transform="translate(-823.69 -56.947)" fill="#999"/>
            </g>
          </g>
          <g id="Grupo_56479" data-name="Grupo 56479" transform="translate(35.753 74.462)">
            <ellipse id="Elipse_4363" data-name="Elipse 4363" cx="7.414" cy="16.037" rx="7.414" ry="16.037" transform="translate(0.368 0.368)" fill="#fff"/>
            <path id="Trazado_109494" data-name="Trazado 109494" d="M761.888,184.725c-4.364,0-7.783-7.206-7.783-16.4s3.419-16.4,7.783-16.4,7.782,7.205,7.782,16.4S766.252,184.725,761.888,184.725Zm0-32.073c-3.886,0-7.047,7.029-7.047,15.668s3.161,15.669,7.047,15.669,7.046-7.029,7.046-15.669S765.773,152.652,761.888,152.652Z" transform="translate(-754.105 -151.916)" fill="gray"/>
          </g>
          <ellipse id="Elipse_4364" data-name="Elipse 4364" cx="1.562" cy="2.055" rx="1.562" ry="2.055" transform="translate(41.281 88.812)" fill="#454545"/>
          <path id="Trazado_109495" data-name="Trazado 109495" d="M764.886,150.476l-.645-.354c.091-.168,2.33-4.119,10.218-5.726l.146.721C767.085,146.649,764.907,150.438,764.886,150.476Z" transform="translate(-721.028 -75.468)" fill="gray"/>
          <g id="Grupo_56480" data-name="Grupo 56480" transform="translate(58.186 177.381)">
            <path id="Trazado_109496" data-name="Trazado 109496" d="M811.764,295.885c-.461,0-.928,0-1.4-.006-18.1-.158-25.7-3.587-25.775-3.622l.231-.5c.074.035,7.591,3.413,25.548,3.571,15.9.146,23.449-2.125,23.523-2.148l.163.527C833.976,293.729,826.793,295.885,811.764,295.885Z" transform="translate(-784.585 -291.756)" fill="#999"/>
            <path id="Trazado_109497" data-name="Trazado 109497" d="M812.306,302.156q-.851,0-1.7-.027c-16.941-.542-24.986-3.826-25.064-3.859l.213-.51c.078.033,8.045,3.279,24.869,3.818,11.686.373,23.934-3.331,24.057-3.369l.16.528A88.887,88.887,0,0,1,812.306,302.156Z" transform="translate(-784.838 -293.341)" fill="#999"/>
            <path id="Trazado_109498" data-name="Trazado 109498" d="M822.948,301.712l-1.818-1.525,1.359-1.564-1.631-1.485.372-.408,2.029,1.849-1.345,1.546,1.388,1.164Z" transform="translate(-794.162 -293.069)" fill="#999"/>
            <path id="Trazado_109499" data-name="Trazado 109499" d="M826.362,301.712l-1.818-1.525,1.359-1.564-1.632-1.485.372-.408,2.03,1.849-1.345,1.546,1.388,1.164Z" transform="translate(-795.063 -293.069)" fill="#999"/>
            <path id="Trazado_109500" data-name="Trazado 109500" d="M829.877,301.574l-1.7-1.484,1.266-1.519-1.517-1.441.379-.4,1.894,1.8-1.254,1.5,1.292,1.129Z" transform="translate(-796.029 -293.069)" fill="#999"/>
            <path id="Trazado_109501" data-name="Trazado 109501" d="M833.356,301.25l-1.708-1.407,1.261-1.426-1.494-1.336.368-.411,1.9,1.7-1.247,1.408,1.266,1.044Z" transform="translate(-796.95 -293.053)" fill="#999"/>
            <path id="Trazado_109502" data-name="Trazado 109502" d="M836.465,300.811l-1.708-1.407,1.261-1.426-1.493-1.336.368-.411,1.9,1.7-1.247,1.409,1.266,1.044Z" transform="translate(-797.771 -292.937)" fill="#999"/>
            <path id="Trazado_109503" data-name="Trazado 109503" d="M804.75,300.982l-1.648-1.63,1.531-1.389-1.44-1.549.4-.376L805.418,298,803.9,299.37l1.234,1.22Z" transform="translate(-789.474 -292.887)" fill="#999"/>
            <path id="Trazado_109504" data-name="Trazado 109504" d="M808.148,301.267l-1.648-1.63,1.532-1.389-1.44-1.549.4-.376,1.82,1.958-1.514,1.373,1.234,1.22Z" transform="translate(-790.371 -292.962)" fill="#999"/>
            <path id="Trazado_109505" data-name="Trazado 109505" d="M811.807,301.573l-1.648-1.63,1.532-1.389-1.44-1.549.4-.376,1.821,1.959-1.514,1.373,1.234,1.22Z" transform="translate(-791.337 -293.043)" fill="#999"/>
            <path id="Trazado_109506" data-name="Trazado 109506" d="M794.129,299.108l-1.648-1.63,1.532-1.389-1.44-1.549.4-.376,1.821,1.958-1.514,1.373,1.234,1.22Z" transform="translate(-786.67 -292.392)" fill="#999"/>
            <path id="Trazado_109507" data-name="Trazado 109507" d="M790.8,298.307l-1.647-1.63,1.531-1.389-1.44-1.549.4-.376,1.82,1.958-1.514,1.373,1.233,1.22Z" transform="translate(-785.792 -292.18)" fill="#999"/>
            <path id="Trazado_109508" data-name="Trazado 109508" d="M788.059,297.522l-1.648-1.63,1.532-1.389-1.44-1.549.4-.376,1.821,1.958-1.514,1.372,1.234,1.22Z" transform="translate(-785.067 -291.973)" fill="#999"/>
            <path id="Trazado_109509" data-name="Trazado 109509" d="M797.528,299.872l-1.648-1.63,1.532-1.389-1.44-1.549.4-.376,1.821,1.958-1.514,1.372,1.234,1.22Z" transform="translate(-787.567 -292.594)" fill="#999"/>
            <path id="Trazado_109510" data-name="Trazado 109510" d="M801.186,300.178l-1.648-1.63,1.532-1.389-1.44-1.549.4-.376,1.821,1.959-1.514,1.372,1.234,1.22Z" transform="translate(-788.533 -292.674)" fill="#999"/>
            <path id="Trazado_109511" data-name="Trazado 109511" d="M815.27,301.863l-1.648-1.63,1.532-1.389-1.44-1.549.4-.376,1.821,1.958-1.514,1.373,1.234,1.22Z" transform="translate(-792.251 -293.119)" fill="#999"/>
            <path id="Trazado_109512" data-name="Trazado 109512" d="M818.66,301.681l-1.648-1.63,1.532-1.389-1.44-1.549.4-.376,1.821,1.959-1.514,1.373,1.234,1.22Z" transform="translate(-793.146 -293.071)" fill="#999"/>
            <path id="Trazado_109513" data-name="Trazado 109513" d="M842.826,299.722l-1.849-1.211,1.317-1.183-1.488-1.058.321-.45,2.048,1.458-1.3,1.164,1.248.818Z" transform="translate(-799.429 -292.829)" fill="#999"/>
            <path id="Trazado_109514" data-name="Trazado 109514" d="M845.918,299.086l-1.848-1.211,1.317-1.183-1.488-1.058.321-.45,2.048,1.458-1.3,1.165,1.248.818Z" transform="translate(-800.245 -292.661)" fill="#999"/>
            <path id="Trazado_109515" data-name="Trazado 109515" d="M849.08,298.43l-1.849-1.211,1.317-1.183-1.488-1.058.32-.45,2.048,1.458-1.3,1.164,1.248.818Z" transform="translate(-801.08 -292.488)" fill="#999"/>
            <path id="Trazado_109516" data-name="Trazado 109516" d="M839.307,300.071l-1.758-1.237,1.262-1.217-1.44-1.1.335-.438,1.951,1.49-1.243,1.2,1.212.853Z" transform="translate(-798.522 -292.897)" fill="#999"/>
          </g>
          <path id="Trazado_109517" data-name="Trazado 109517" d="M791.062,646.67c-5.29,0-8.8-5.675-8.833-5.738l.472-.286c.038.063,3.946,6.365,9.587,5.362,5.816-1.04,7.05-3.323,8.267-6.687l.519.188c-1.243,3.436-2.594,5.953-8.687,7.043A7.5,7.5,0,0,1,791.062,646.67Z" transform="translate(-725.777 -206.14)" fill="#999"/>
          <path id="Trazado_109518" data-name="Trazado 109518" d="M828.881,631.182c-5.348,0-8.479-6.542-8.613-6.828l.5-.235c.032.069,3.274,6.856,8.536,6.5,5.335-.372,7.279-3.906,8.7-6.486l.5.24c-1.411,2.566-3.521,6.4-9.156,6.8C829.187,631.177,829.033,631.182,828.881,631.182Z" transform="translate(-735.82 -202.126)" fill="#999"/>
          <path id="Trazado_109519" data-name="Trazado 109519" d="M783.808,527.851h-.552V501.5c0-.126-.259-13.131-.542-15.681a120.26,120.26,0,0,1-.577-17.23c.379-6.261,1.112-25.243,1.119-25.433,0-.168-.021-17.9-1.231-24.9-1.013-5.857-3.168-25.852-4.456-37.8-.281-2.611-.525-4.872-.712-6.569-1.044-9.5-1.342-39.374-1.345-39.674.057-1.3,1.442-31.643,4.623-40.162,3.161-8.467,6.762-20.709,6.8-20.831l1.663-5.275L768.274,194.3l.532-.146,20.366,73.8-1.71,5.426c-.035.118-3.641,12.377-6.809,20.864-3.151,8.437-4.575,39.664-4.589,39.978,0,.286.3,30.128,1.343,39.6.185,1.7.43,3.958.711,6.57,1.286,11.94,3.441,31.924,4.45,37.764,1.219,7.046,1.24,24.827,1.24,25.006-.008.2-.741,19.19-1.121,25.456a119.585,119.585,0,0,0,.576,17.136c.286,2.575.534,15.2.545,15.737Z" transform="translate(-722.093 -88.604)" fill="#999"/>
          <path id="Trazado_109520" data-name="Trazado 109520" d="M799.67,557.506h-.019a.367.367,0,0,1-.348-.386c.038-.773,3.893-77.378,3.893-80.6,0-3.292.588-11.173,1.947-14.476,1.307-3.173,2.875-22.731,2.891-22.928l1.732-66.8,2.5-67.585a.351.351,0,0,1,.382-.354.368.368,0,0,1,.354.381l-2.5,67.582-1.733,66.81c-.065.829-1.595,19.89-2.945,23.17-1.32,3.209-1.891,10.953-1.891,14.2S800.2,554,800.037,557.156A.368.368,0,0,1,799.67,557.506Z" transform="translate(-730.285 -117.709)" fill="#4d4d4d"/>
          <path id="Trazado_109521" data-name="Trazado 109521" d="M822.845,345.662c-2.307,0-9.006-.1-27.667-.791-25.429-.943-26.946-5.02-27.036-5.482a.368.368,0,0,1,.718-.16c.046.115,1.831,4,26.345,4.907,25.449.944,28.612.784,28.734.776a.388.388,0,0,1,.389.344.368.368,0,0,1-.344.39C823.952,345.648,823.7,345.662,822.845,345.662Z" transform="translate(-722.056 -126.835)" fill="#4d4d4d"/>
          <path id="Trazado_109522" data-name="Trazado 109522" d="M858.218,351.625l-.55-.037c.012-.189,1.271-19.057.645-30.3-.626-11.2-6.188-21.6-6.245-21.7l.486-.263c.057.105,5.678,10.614,6.31,21.936C859.492,332.534,858.23,351.435,858.218,351.625Z" transform="translate(-744.216 -116.372)" fill="#999"/>
          <path id="Trazado_109523" data-name="Trazado 109523" d="M816.661,383.425c-.584-5.046-2.208-7.1-7.026-13.191-.714-.9-1.5-1.891-2.354-2.989-9.746-12.488-19.91-17.119-27.678-19.758-7.676-2.608-13.532,3.338-13.59,3.4l-.4-.383c.062-.062,6.154-6.26,14.166-3.538,7.84,2.664,18.1,7.338,27.935,19.941.856,1.1,1.638,2.085,2.351,2.986,4.758,6.017,6.539,8.268,7.141,13.471Z" transform="translate(-721.391 -128.769)" fill="#999"/>
          <path id="Trazado_109524" data-name="Trazado 109524" d="M821.182,458.033l-.549-.051c.029-.315,2.981-31.551,3.455-37.148s1.335-22.286,1.344-22.454c.06-.46,1.493-10.749,6.506-12.06,4.072-1.066,4.569-1.5,7.327-3.895.512-.445,1.1-.957,1.8-1.553,4.431-3.754,12.082-21.605,12.159-21.785l.507.216c-.315.74-7.779,18.152-12.309,21.99-.7.594-1.288,1.1-1.8,1.548-2.841,2.469-3.352,2.914-7.55,4.012-4.657,1.219-6.083,11.474-6.1,11.578-.007.146-.867,16.846-1.342,22.45S821.212,457.719,821.182,458.033Z" transform="translate(-735.917 -132.151)" fill="#999"/>
          <path id="Trazado_109525" data-name="Trazado 109525" d="M825.14,584.647l-.552-.008c.005-.328.475-32.833.1-39.149-.4-6.6.419-22.464,2.311-30.034,1.888-7.552,1.279-20.905,1.273-21.04l-3.583-36.208.549-.055,3.584,36.223c.008.149.621,13.582-1.286,21.214-1.882,7.523-2.69,23.305-2.3,29.867C825.614,551.793,825.145,584.318,825.14,584.647Z" transform="translate(-736.96 -158.307)" fill="#999"/>
          <path id="Trazado_109526" data-name="Trazado 109526" d="M823.366,149.232c-11.124,0-21.5-10.614-21.981-11.114a.368.368,0,0,1,.531-.511c.127.132,12.929,13.224,24.9,10.51a15.718,15.718,0,0,0,8.221-5.866.368.368,0,0,1,.593.437,14.28,14.28,0,0,1-12.264,6.543Z" transform="translate(-730.807 -73.646)" fill="#4d4d4d"/>
          <rect id="Rectángulo_10329" data-name="Rectángulo 10329" width="3.808" height="11.584" transform="translate(89.535 18.73)" fill="#464646"/>
          <rect id="Rectángulo_10330" data-name="Rectángulo 10330" width="2.759" height="11.584" transform="translate(94.519 18.73)" fill="#464646"/>
          <rect id="Rectángulo_10331" data-name="Rectángulo 10331" width="2.822" height="4.8" transform="translate(97.278 21.546)" fill="#464646"/>
          <rect id="Rectángulo_10332" data-name="Rectángulo 10332" width="6.438" height="311.75" transform="translate(22.826 52.073)" fill="#464646"/>
          <rect id="Rectángulo_10333" data-name="Rectángulo 10333" width="6.438" height="34.623" transform="translate(89.535 20.041) rotate(90)" fill="#464646"/>
          <path id="Trazado_109527" data-name="Trazado 109527" d="M742.893,113.266S740.829,97.714,751,90.323a41.1,41.1,0,0,1,23.712-5.914V77.97s-16.661-.356-26.431,6.881c-9.524,7.055-12.284,14.3-12.057,27.167Z" transform="translate(-713.629 -57.929)" fill="#464646"/>
          <g id="Grupo_56481" data-name="Grupo 56481" transform="translate(22.459 371.758)">
            <rect id="Rectángulo_10334" data-name="Rectángulo 10334" width="6.438" height="67.121" rx="3.219" transform="translate(0.368 0.368)" fill="#fff"/>
            <path id="Trazado_109528" data-name="Trazado 109528" d="M740,623.72h-.74a3.221,3.221,0,0,1-3.217-3.217V559.081a3.221,3.221,0,0,1,3.217-3.218H740a3.221,3.221,0,0,1,3.218,3.218V620.5A3.221,3.221,0,0,1,740,623.72Zm-.74-67.121a2.485,2.485,0,0,0-2.481,2.482V620.5a2.485,2.485,0,0,0,2.481,2.481H740a2.485,2.485,0,0,0,2.482-2.481V559.081A2.485,2.485,0,0,0,740,556.6Z" transform="translate(-736.041 -555.863)" fill="#999"/>
          </g>
          <rect id="Rectángulo_10335" data-name="Rectángulo 10335" width="8.976" height="15.456" transform="translate(21.537 362.575)" fill="#464646"/>
          <path id="Trazado_109529" data-name="Trazado 109529" d="M750.52,682.249l4.645-3.712,51.646,30.207-3.136,2.88Z" transform="translate(-717.405 -216.494)" fill="#464646"/>
          <g id="Grupo_56482" data-name="Grupo 56482" transform="translate(80.15 492.165)">
            <path id="Trazado_109530" data-name="Trazado 109530" d="M837.047,727.432l-8.966,7.984-13-7.04,9.6-8.448Z" transform="translate(-814.6 -719.587)" fill="#fff"/>
            <path id="Trazado_109531" data-name="Trazado 109531" d="M827.948,735.629l-13.52-7.32,10.048-8.844,12.861,7.8ZM815.386,728.2l12.484,6.759,8.543-7.606-11.876-7.205Z" transform="translate(-814.428 -719.465)" fill="#999"/>
          </g>
          <path id="Trazado_109532" data-name="Trazado 109532" d="M838.328,722.233l-10.56,9.216-11.328-6.217,10.571-9.3Z" transform="translate(-734.81 -226.366)" fill="#9f9f9f"/>
        </g>
        <g id="Grupo_56484" data-name="Grupo 56484" transform="translate(35.322 165.316)" opacity="0.43">
          <path id="Trazado_109533" data-name="Trazado 109533" d="M761.7,276.438l4.7,1.152s6.719,1.728,7.968,1.824,8.25,0,8.25,0l6.009.043s3.183.341,3.438,3.221,3.135,1.536,3.135,1.536,2.209-3.648,3.793-2.3a2.788,2.788,0,0,1,.815,3.145s0,1.448,1.68.448,2.014-3.3,3.239-2.633-.361,3.168,0,3.647,1.654.1,3.264-1.247,5.1-2.208,5.1-2.208l9.558-.384v26.207s.77,20.194,2.786,28.336l.982,8.192-3.383,3.6h5.376s-2.016,3.936-3.264,4.992l4.022-2.87,2.505,2.1s-1.247,4.8-1.535,5.664l4.127-3.36,3.264,2.016s-7.453,18.784-7.886,25.056-3.753,31.757-3.753,31.757l-3.337,21.666s9.216-42.125,11.136-49.406,6.848-24.5,6.848-24.5.448-2.368,1.472-2.5,5.568,4.032,5.568,4.032l-6.848-10.112-2.88-1.216a18.1,18.1,0,0,1-4.98-2.432c-1.548-1.344-4.62-4.352-4.813-11.392s.384-16.32.384-16.32l3.712-32.585s3.5-11.19,3.734-13.75c0,0,2.313,4.032,9.609,4.608a103.9,103.9,0,0,1,14.112,2.208s9.024,1.632,9.984,1.344-.672,11.232-2.112,17.663-4.8,23.963-4.8,23.963l-5.28,33.538-7.008,38.4-3.264,26.3-2.4,20.64s-.289,68.254.288,74.59.384,17.856.384,17.856-6.624.863-8.256,3.744a10.383,10.383,0,0,1-8.255,4.7c-2.592-.1-12-1.248-12-1.248s-8.256.356-12.672,2.77-13.632,4.238-13.632,4.238-8.16,2.208-12.1,0-9.024-9.216-14.784-10.272-9.7-1.951-9.7-1.951V505.295s3.936-37.151,3.264-46.367-3.264-45.6-3.264-45.6l1.44-74.59s1.536-26.112,4.032-35.519S761.7,276.438,761.7,276.438Z" transform="translate(-753.651 -275.494)" fill="#999"/>
          <path id="Trazado_109534" data-name="Trazado 109534" d="M783.274,552.4a10.668,10.668,0,0,1-5.088-1.033,30.074,30.074,0,0,1-4.8-3.848c-2.958-2.686-6.311-5.73-9.872-6.383-5.7-1.045-9.671-1.946-9.711-1.954a.369.369,0,0,1-.286-.359V505.163c.041-.41,3.926-37.263,3.264-46.34-.671-9.216-3.264-45.6-3.264-45.6l1.44-74.623c.016-.276,1.567-26.271,4.043-35.606,2.454-9.25,2.2-26.51,2.2-26.683a.369.369,0,0,1,.456-.364l4.7,1.152c.071.018,6.706,1.722,7.908,1.815s8.146,0,8.216,0l6.017.043c.071.006,3.523.412,3.8,3.557a1.61,1.61,0,0,0,.656,1.345,2.4,2.4,0,0,0,1.862-.071c.325-.515,1.621-2.429,3-2.654a1.546,1.546,0,0,1,1.278.363,3.147,3.147,0,0,1,.95,3.483.478.478,0,0,0,.168.342c.06.033.307.114.951-.269a5.155,5.155,0,0,0,1.489-1.574c.53-.752,1.13-1.6,2.114-1.065,1.029.564.63,1.912.338,2.9a3.506,3.506,0,0,0-.2.893c0-.008.074,0,.1.007a4.623,4.623,0,0,0,2.608-1.356c1.656-1.383,5.107-2.247,5.253-2.283a.417.417,0,0,1,.073-.01l9.559-.384a.353.353,0,0,1,.27.1.369.369,0,0,1,.113.266v26.207c.007.187.791,20.235,2.775,28.248l.991,8.236a.371.371,0,0,1-.1.3l-2.8,2.978h4.524a.368.368,0,0,1,.328.536c-.053.1-.849,1.65-1.753,3.061l1.971-1.406a.369.369,0,0,1,.45.018l2.505,2.1a.369.369,0,0,1,.12.375c-.039.149-.747,2.871-1.21,4.541l3.213-2.615a.368.368,0,0,1,.425-.028l3.264,2.017a.368.368,0,0,1,.149.449c-.075.187-7.438,18.8-7.862,24.945-.429,6.211-3.72,31.525-3.753,31.779l-1.579,10.246c2.877-13.039,7.386-33.312,8.656-38.128,1.9-7.2,6.8-24.332,6.85-24.5.076-.407.552-2.606,1.78-2.76.656-.086,2.312,1.1,3.729,2.269l-5.206-7.687-2.78-1.174a18.047,18.047,0,0,1-5.078-2.493c-1.17-1.016-4.732-4.108-4.938-11.659-.191-6.976.379-16.259.384-16.352l3.713-32.6c.05-.18,3.508-11.249,3.734-13.741a.368.368,0,0,1,.684-.151c.023.038,2.329,3.873,9.32,4.425a105.373,105.373,0,0,1,14.168,2.217c4.372.79,9.244,1.512,9.793,1.35a.481.481,0,0,1,.466.11c1.039.968-1.163,13.744-2.113,17.987-1.423,6.353-4.764,23.777-4.8,23.953l-5.278,33.526L850.63,397.52,847.369,423.8l-2.4,20.636c0,.642-.279,68.268.289,74.514.57,6.283.387,17.78.385,17.9a.367.367,0,0,1-.32.358c-.064.009-6.461.874-7.983,3.561a10.8,10.8,0,0,1-8.59,4.89c-2.577-.095-11.646-1.2-12.03-1.25-.022.007-8.161.383-12.45,2.728-4.416,2.413-13.359,4.2-13.738,4.276A31.476,31.476,0,0,1,783.274,552.4Zm-29.019-13.871c1.006.223,4.58,1,9.393,1.884,3.767.69,7.2,3.809,10.234,6.562a29.722,29.722,0,0,0,4.664,3.75c3.762,2.11,11.741-.013,11.82-.035.116-.024,9.236-1.847,13.551-4.205,4.44-2.427,12.492-2.8,12.833-2.814.155.014,9.482,1.153,12.029,1.247A9.923,9.923,0,0,0,836.7,540.4c1.511-2.667,6.838-3.664,8.211-3.881.025-1.886.128-11.84-.386-17.5-.571-6.281-.293-73.942-.29-74.624l2.4-20.68,3.264-26.306,7.011-38.42,5.278-33.529c.036-.188,3.38-17.624,4.8-23.988,1.419-6.334,2.691-15.754,2.347-17.195-1.612.118-8.49-1.111-9.925-1.37a104.684,104.684,0,0,0-14.075-2.2c-5.55-.438-8.287-2.815-9.351-4.051-.684,3.556-3.483,12.519-3.613,12.936l-3.7,32.516c0,.074-.571,9.326-.381,16.268.177,6.478,2.758,9.451,4.685,11.124a17.839,17.839,0,0,0,4.849,2.359l2.911,1.228a.374.374,0,0,1,.162.132l6.848,10.112a.368.368,0,0,1-.553.478c-2.086-1.909-4.665-3.939-5.253-3.939h-.021c-.515.065-.994,1.351-1.155,2.2-.057.2-4.956,17.327-6.853,24.521s-11.04,48.97-11.132,49.391a.375.375,0,0,1-.427.283.368.368,0,0,1-.3-.418l3.337-21.666c.032-.246,3.321-25.538,3.748-31.727.409-5.907,6.826-22.405,7.8-24.878l-2.779-1.717-3.925,3.195a.369.369,0,0,1-.582-.4c.246-.737,1.222-4.457,1.471-5.415l-2.109-1.769-3.791,2.7a.368.368,0,0,1-.451-.581,20.322,20.322,0,0,0,2.89-4.343h-4.764a.368.368,0,0,1-.269-.62l3.265-3.474-.962-8.021c-1.994-8.041-2.78-28.164-2.789-28.366V282.929l-9.137.367a15.656,15.656,0,0,0-4.922,2.124c-1.261,1.054-2.4,1.606-3.163,1.523a.884.884,0,0,1-.631-.336c-.246-.327-.1-.821.1-1.505.286-.964.484-1.784.015-2.042-.345-.191-.529-.053-1.159.843a5.823,5.823,0,0,1-1.715,1.783,1.7,1.7,0,0,1-1.692.275,1.239,1.239,0,0,1-.544-1.039.376.376,0,0,1,.029-.145,2.406,2.406,0,0,0-.714-2.719.8.8,0,0,0-.684-.2c-1,.161-2.183,1.8-2.557,2.412a.373.373,0,0,1-.159.143,3.247,3.247,0,0,1-2.634.082,2.285,2.285,0,0,1-1.023-1.919c-.224-2.538-2.994-2.875-3.112-2.888l-5.972-.04c-.279,0-7.026.095-8.275,0-1.266-.1-7.756-1.764-8.032-1.835l-4.239-1.038c.022,2.864.024,17.93-2.226,26.408-2.457,9.265-4,35.186-4.019,35.446l-1.44,74.575s2.591,36.353,3.263,45.565c.666,9.142-3.226,46.06-3.265,46.432Z" transform="translate(-753.519 -275.362)" fill="#4d4d4d"/>
        </g>
        <path id="Trazado_109535" data-name="Trazado 109535" d="M800.914,331.057a.336.336,0,0,1-.06-.005.367.367,0,0,1-.3-.422c.02-.125,2.067-12.6,2.863-22.072a163.9,163.9,0,0,0,0-21.063.368.368,0,0,1,.342-.392.374.374,0,0,1,.393.341,164.72,164.72,0,0,1,0,21.176c-.8,9.5-2.85,22-2.87,22.13A.368.368,0,0,1,800.914,331.057Z" transform="translate(-730.613 -113.146)" fill="#4d4d4d" opacity="0.43"/>
        <path id="Trazado_109536" data-name="Trazado 109536" d="M811.533,328.885a.368.368,0,0,1-.343-.5c2-5.13,3.327-38.076,3.339-38.408a.346.346,0,0,1,.383-.353.368.368,0,0,1,.353.383c-.055,1.361-1.346,33.4-3.389,38.645A.368.368,0,0,1,811.533,328.885Z" transform="translate(-733.417 -113.811)" fill="#4d4d4d" opacity="0.43"/>
        <path id="Trazado_109537" data-name="Trazado 109537" d="M818.589,329.552a.357.357,0,0,1-.134-.025.367.367,0,0,1-.209-.476c2-5.131,3.325-38.076,3.338-38.408a.38.38,0,0,1,.383-.353.368.368,0,0,1,.353.383c-.054,1.361-1.345,33.4-3.389,38.645A.367.367,0,0,1,818.589,329.552Z" transform="translate(-735.28 -113.987)" fill="#4d4d4d" opacity="0.43"/>
        <g id="Grupo_56485" data-name="Grupo 56485" transform="translate(99.881 192.041)">
          <path id="Trazado_109538" data-name="Trazado 109538" d="M842.014,316.339l2.9-2.031,1.339.412s.567.19.567-.355l-1.107-2.236s-.539-.958-.977-.094l-.434,1.577-2.636,2.036-.426.732Z" transform="translate(-841.238 -311.675)" fill="#666"/>
        </g>
        <g id="Grupo_56486" data-name="Grupo 56486" transform="translate(100.31 202.409)">
          <path id="Trazado_109539" data-name="Trazado 109539" d="M842.6,330.426l2.9-2.031,1.339.411s.568.191.567-.354l-1.107-2.237s-.538-.958-.976-.093l-.435,1.577-2.636,2.036-.427.732Z" transform="translate(-841.821 -325.762)" fill="#666"/>
        </g>
        <g id="Grupo_56487" data-name="Grupo 56487" transform="translate(101.536 213.752)">
          <path id="Trazado_109540" data-name="Trazado 109540" d="M844.263,345.838l2.9-2.031,1.339.411s.567.19.567-.354l-1.107-2.237s-.538-.958-.977-.093l-.434,1.577-2.635,2.036-.427.732Z" transform="translate(-843.486 -341.174)" fill="#666"/>
        </g>
        <g id="Grupo_56488" data-name="Grupo 56488" transform="translate(101.221 222.622)">
          <path id="Trazado_109541" data-name="Trazado 109541" d="M843.834,357.891l2.9-2.031,1.339.412s.567.19.567-.355l-1.107-2.236s-.539-.958-.977-.093l-.434,1.577-2.636,2.036-.427.732Z" transform="translate(-843.058 -353.227)" fill="#666"/>
        </g>
        <g id="Grupo_56489" data-name="Grupo 56489" transform="translate(101.536 231.494)">
          <path id="Trazado_109542" data-name="Trazado 109542" d="M844.263,369.945l2.9-2.031,1.339.411s.567.191.567-.354l-1.107-2.237s-.538-.958-.977-.093l-.434,1.577-2.635,2.036-.427.732Z" transform="translate(-843.486 -365.281)" fill="#666"/>
        </g>
      </g>
    </g>
    <g id="Grupo_56514" data-name="Grupo 56514" transform="translate(511.193 6393.028)">
      <rect id="Rectángulo_10337" data-name="Rectángulo 10337" width="263.387" height="555.252" rx="22.696" transform="translate(237.419 782.972)" fill="#fff"/>
      <g id="Grupo_56512" data-name="Grupo 56512" transform="translate(254.26 790.506)">
        <g id="Grupo_56492" data-name="Grupo 56492" transform="translate(7.829 173.464)" opacity="0.81">
          <path id="Trazado_109543" data-name="Trazado 109543" d="M298.309,1273.63s-7.834-.259-12.3-1.489-6.539-1.813-8.028-1.489-6.928,2.072-6.928,2.072,3.043-22.6,2.849-28.812.583-50.308.583-50.308-1.943-43.7-.583-56.523,4.08-51.085,4.08-51.085,2.331-41.93,1.748-52.431l-.194-7.006s20.395,5.244,25.833,3.3l.826-.364v4.395l-.558,6.58-.971,5.56-.947,4.176-1.977,16.857-1.494,25.661-.786,40.663-.345,28.234,1.482,20.766,1.193,16.651.526,7.642-.506,13.659-1.18,14.832-1.182,12.493-.49,6.024v19.942Z" transform="translate(-270.679 -1026.187)" fill="#999"/>
          <path id="Trazado_109544" data-name="Trazado 109544" d="M298.829,1273.875h-.659c-.322-.011-7.931-.275-12.389-1.5l-.217-.06c-4.166-1.148-6.259-1.724-7.633-1.424-1.455.316-6.839,2.045-6.893,2.062a.371.371,0,0,1-.482-.4c.03-.225,3.036-22.636,2.845-28.75-.192-6.154.576-49.885.583-50.326-.019-.414-1.928-43.856-.581-56.556,1.344-12.667,4.051-50.689,4.078-51.072.023-.413,2.323-42.023,1.748-52.384l-.194-7.016a.372.372,0,0,1,.465-.371c.2.052,20.347,5.192,25.615,3.312l.8-.354a.372.372,0,0,1,.522.341v4.394l-.56,6.611-.975,5.593-.951,4.194-1.969,16.818-1.494,25.64-.785,40.648-.345,28.231,3.2,45.029-.5,13.7-1.182,14.848-1.182,12.5-.49,6.02V1273.5A.372.372,0,0,1,298.829,1273.875Zm-.641-.745h.269v-19.57l.492-6.054,1.182-12.5,1.18-14.826.5-13.644-.525-7.6-2.675-37.416.345-28.265.786-40.666,1.5-25.675,1.978-16.879.954-4.216.968-5.541.554-6.548v-3.792l-.3.134c-5.1,1.824-22.411-2.363-25.6-3.161l.18,6.514c.578,10.392-1.725,52.043-1.748,52.463-.028.388-2.736,38.423-4.081,51.1-1.341,12.646.566,56.031.585,56.468-.007.464-.774,44.177-.582,50.312.177,5.692-2.29,24.635-2.774,28.29,1.436-.457,5.182-1.637,6.4-1.9,1.556-.337,3.571.218,7.989,1.435l.217.06C290.3,1272.844,297.926,1273.122,298.188,1273.13Z" transform="translate(-270.551 -1026.059)" fill="#4d4d4d"/>
        </g>
        <g id="Grupo_56508" data-name="Grupo 56508">
          <g id="Grupo_56493" data-name="Grupo 56493" transform="translate(0 453.889)">
            <path id="Trazado_109545" data-name="Trazado 109545" d="M287.939,1412.674l6.9-3.691a9.269,9.269,0,0,1,8.894-5.924c6.742.194,9.753,2.622,11.987,6.6s2.816,3.982,5.244,5.051,31.145,16.024,33.831,18.258a8.045,8.045,0,0,0,6.28,1.457s10.1-1.748,14.373,2.039,3.593,9.324-.582,11.363-10.586,3.108-15.734,0-36-20.783-36-20.783-19.166-7.284-23.828-6.021a19.6,19.6,0,0,0-6.9,3.108s-4.37,6.216,3.011,14.277,20.2,17.385,20.2,17.385l9.227,5.924s15,4.468,15.561,10.1-2.159,8.255-8.083,8.741-16.025-2.04-18.841-8.838a14.007,14.007,0,0,1-.583-3.788c-.1-2.428-37.488-24.96-37.488-24.96s-11.363-3.2-14.179-9.032,2.428-11.752,2.428-11.752a11.9,11.9,0,0,1,9.032-1.942l6.7-3.788Z" transform="translate(-260.13 -1402.776)" fill="#fff"/>
            <path id="Trazado_109546" data-name="Trazado 109546" d="M330.736,1480.8c-6.077,0-14.945-2.649-17.6-9.069a14.088,14.088,0,0,1-.6-3.883c-.191-1.733-22.979-16.07-37.321-24.713-.836-.239-11.533-3.4-14.319-9.169-2.864-5.926,2.417-12,2.47-12.058a12.021,12.021,0,0,1,9.189-2.048l6.617-3.74,8.56-3.8,6.8-3.637a9.592,9.592,0,0,1,8.806-6.01c.106,0,.211,0,.318,0,6.091.176,9.632,2.131,12.222,6.747,2.016,3.593,2.611,3.85,4.582,4.7l.532.232c2.513,1.106,31.245,16.094,33.9,18.3a7.82,7.82,0,0,0,6.042,1.4c.429-.074,10.293-1.729,14.618,2.1a7.941,7.941,0,0,1,2.929,6.962,6.311,6.311,0,0,1-3.575,4.861c-4.27,2.085-10.715,3.178-16-.012-5.086-3.071-35.685-20.6-35.993-20.781-.151-.054-19.093-7.218-23.616-5.994a19.984,19.984,0,0,0-6.762,3.031c-.355.533-3.93,6.316,3.01,13.9,7.278,7.947,20.032,17.253,20.16,17.346l9.18,5.894c1.023.307,15.158,4.664,15.721,10.329.27,2.716-.2,4.757-1.433,6.237-1.35,1.62-3.609,2.54-6.9,2.809C331.773,1480.782,331.264,1480.8,330.736,1480.8Zm-60.27-60.537a11.23,11.23,0,0,0-6.721,2.045c-.021.028-5.056,5.826-2.354,11.415,2.729,5.646,13.892,8.853,14,8.884l.069.03c6.266,3.776,37.525,22.734,37.623,25.188a13.877,13.877,0,0,0,.567,3.705c2.78,6.708,12.714,9.129,18.556,8.654,3.138-.258,5.272-1.111,6.522-2.611,1.133-1.36,1.561-3.265,1.306-5.824-.535-5.383-15.216-9.817-15.364-9.86l-.071-.033-9.225-5.925c-.142-.1-12.941-9.441-20.256-17.431-7.447-8.132-3.079-14.562-3.034-14.626l.051-.054a19.7,19.7,0,0,1,7-3.162c4.691-1.272,23.213,5.731,24,6.03.348.2,30.953,17.732,36.044,20.806s11.518,1.917,15.466-.012a5.762,5.762,0,0,0,3.267-4.435,7.394,7.394,0,0,0-2.747-6.468c-4.122-3.655-14.041-1.991-14.141-1.974a8.237,8.237,0,0,1-6.505-1.517c-2.632-2.189-31.258-17.114-33.765-18.217l-.527-.229c-2.05-.885-2.74-1.182-4.849-4.94-2.1-3.735-4.9-6.264-11.751-6.462a8.977,8.977,0,0,0-8.622,5.738l-.036.1-7.01,3.75-8.546,3.788-6.762,3.823-.1-.015A13.675,13.675,0,0,0,270.466,1420.266Z" transform="translate(-260.037 -1402.68)" fill="#999"/>
          </g>
          <path id="Trazado_109547" data-name="Trazado 109547" d="M287.939,1403.282l6.9-3.69a9.27,9.27,0,0,1,8.894-5.925c6.742.194,9.753,2.622,11.987,6.6s2.816,3.982,5.244,5.05,31.145,16.025,33.831,18.259a8.046,8.046,0,0,0,6.28,1.457s10.1-1.748,14.373,2.039,3.593,9.324-.582,11.363-10.586,3.108-15.734,0-36-20.784-36-20.784-19.166-7.284-23.828-6.021a19.58,19.58,0,0,0-6.9,3.108s-4.37,6.215,3.011,14.276,20.2,17.384,20.2,17.384l9.227,5.925s15,4.467,15.561,10.1-2.159,8.255-8.083,8.741-16.025-2.039-18.841-8.837a14.01,14.01,0,0,1-.583-3.788c-.1-2.428-37.488-24.96-37.488-24.96s-11.363-3.2-14.179-9.032,2.428-11.752,2.428-11.752a11.9,11.9,0,0,1,9.032-1.943l6.7-3.788Z" transform="translate(-260.13 -946.488)" fill="#464646"/>
          <g id="Grupo_56494" data-name="Grupo 56494" transform="translate(20.736 440.884)">
            <rect id="Rectángulo_10338" data-name="Rectángulo 10338" width="11.654" height="22.629" rx="5.827" transform="translate(0.373 0.372)" fill="#fff"/>
            <path id="Trazado_109548" data-name="Trazado 109548" d="M294.522,1408.586h-.874a5.769,5.769,0,0,1-5.762-5.762v-11.849a5.769,5.769,0,0,1,5.762-5.762h.874a5.768,5.768,0,0,1,5.762,5.762v11.849A5.769,5.769,0,0,1,294.522,1408.586Zm-.874-22.629a5.023,5.023,0,0,0-5.018,5.018v11.849a5.023,5.023,0,0,0,5.018,5.018h.874a5.023,5.023,0,0,0,5.018-5.018v-11.849a5.023,5.023,0,0,0-5.018-5.018Z" transform="translate(-287.886 -1385.213)" fill="#999"/>
          </g>
          <ellipse id="Elipse_4365" data-name="Elipse 4365" cx="5.827" cy="4.03" rx="5.827" ry="4.03" transform="translate(21.109 439.702)" fill="#464646"/>
          <g id="Grupo_56495" data-name="Grupo 56495" transform="translate(36.655 37.753)">
            <path id="Trazado_109549" data-name="Trazado 109549" d="M391.052,1004.821c-1.621-5.092-8.987-13.464-8.987-13.464a6.488,6.488,0,0,1-.647-4.4l1.852-18.075,5.759-23.218,3.926-7.24s5.192-6.77,4.527-12.417l-1.911-6.645s-.161-5.655-.051-9.549c.027-.837.066-1.582.125-2.153l2.368-8.516.035-.328.015-.052.447-4.2h-.01l.331-3.116s.572-3.521-1.8-5.486a59.424,59.424,0,0,0-6.615-4.4s-7.98-3.453-10.984-5.467c0,0-2.919-1.412-3.042-7.8s-.562-6.511.418-9.52l2.276-7.283a29.5,29.5,0,0,0-15.786-7.045s-9.67-1.455-9.022,2.331a150.235,150.235,0,0,1-5.493,18.906s-4.407,7.381-9.448,7.961l-10.553,2.139s-15.6,1.662-16.644,7.128c0,0-4.042,4.36-1.838,20.574l.613,3.316,20.839,78.722.877,2.191-.877,3.477s-12.493,19.813-14.124,37.1c0,0,.271,43.606,2.214,59.728s7.972,51.279,7.972,51.279,2.322,17.093.38,28.165-3.5,21.56,0,38.848,2.137,35.157,2.137,35.157l-.583,9.324s1.888,4.986,9.587,4.856,9-7.446,9-7.446l3.561-45.97s1.717-22.338,1.053-27.971,1.333-14.47,1.333-14.47l4.413-22.435,1.176,14.373s-.4,7.964-2.536,12.043-2.721,19.618-2.04,23.7,2.622,21.366,2.622,21.366l.583,29.524s3.884,5.633,8.935,5.633,8.741-6.021,8.741-6.021l1.165-33.021,4.08-26.417s.194-13.4.194-16.122,2.137-9.517,3.885-12.043.582-13.985,1.165-19.035,5.438-37.1,5.438-37.1,2.331-41.178.583-56.329A322.584,322.584,0,0,1,391.052,1004.821Z" transform="translate(-309.363 -843.89)" fill="#fff"/>
            <path id="Trazado_109550" data-name="Trazado 109550" d="M338.952,1255.833c-7.563,0-9.541-4.988-9.56-5.039l-.021-.057.586-9.383c.013-.182,1.316-18.035-2.131-35.085-3.392-16.765-2.076-27.136,0-38.951,1.912-10.9-.36-27.908-.382-28.079-.059-.342-6.053-35.339-7.973-51.283s-2.213-59.324-2.216-59.76c1.586-16.823,13.526-36.221,14.143-37.213l.844-3.347-.843-2.107-20.85-78.754-.617-3.337c-2.086-15.341,1.351-20.144,1.854-20.751,1.187-5.546,16.23-7.211,16.872-7.279l10.528-2.135c4.868-.562,9.22-7.758,9.263-7.831a150.512,150.512,0,0,0,5.449-18.77,1.861,1.861,0,0,1,.512-1.658c1.917-1.956,8.555-.984,8.836-.941a30.062,30.062,0,0,1,15.941,7.123l.122.119-2.328,7.446a11.357,11.357,0,0,0-.545,5.336c.046,1.028.105,2.307.139,4.1.117,6.106,2.858,7.54,2.886,7.555,2.981,1.995,10.892,5.426,10.973,5.46a59.989,59.989,0,0,1,6.681,4.443c2.464,2.044,1.919,5.6,1.894,5.746l-.294,2.78h0l-.025.32-.5,4.582-2.377,8.561c-.045.479-.086,1.2-.115,2.088-.1,3.681.036,9.012.05,9.5l1.9,6.611c.68,5.74-4.359,12.385-4.573,12.665l-3.886,7.172-5.749,23.183L381.6,986.891a6.3,6.3,0,0,0,.614,4.232c.269.3,7.389,8.428,9.01,13.517l.013.086a324.813,324.813,0,0,0,1.628,33.052c1.731,15-.558,55.965-.582,56.377-.051.346-4.864,32.128-5.439,37.116a69.746,69.746,0,0,0-.162,7.512c.046,4.914.094,10-1.051,11.65-1.648,2.382-3.835,9.157-3.835,11.884,0,2.69-.192,15.991-.194,16.126l-4.081,26.455-1.166,33.061-.038.063c-.153.252-3.832,6.155-8.979,6.155s-9-5.518-9.165-5.753l-.048-.068v-.084l-.582-29.525c-.018-.147-1.948-17.3-2.62-21.326-.648-3.89-.186-19.568,2.069-23.872,2.083-3.978,2.5-11.849,2.5-11.927l-1.013-12.334-4.024,20.463c-.022.1-1.98,8.864-1.33,14.385.66,5.595-.981,27.111-1.051,28.024l-3.561,45.97c-.017.1-1.43,7.572-9.269,7.7Zm-9.015-5.184c.23.545,2.186,4.625,9.006,4.625l.293,0c7.372-.124,8.672-6.926,8.724-7.216l3.557-45.942c.017-.223,1.708-22.375,1.054-27.917-.663-5.616,1.317-14.476,1.337-14.565l4.8-24.4,1.341,16.378c-.016.365-.427,8.109-2.567,12.2-2.049,3.914-2.716,19.3-2.013,23.522.675,4.039,2.606,21.208,2.626,21.381l.582,29.464c.456.628,4.108,5.445,8.657,5.445,4.567,0,8.062-5.2,8.464-5.828l1.163-32.944,4.081-26.45c0-.1.191-13.393.191-16.079,0-2.863,2.206-9.7,3.934-12.2,1.045-1.509,1-6.725.952-11.327a70.127,70.127,0,0,1,.166-7.581c.576-5,5.391-36.789,5.439-37.109.021-.386,2.307-41.3.582-56.255a324.4,324.4,0,0,1-1.632-33.074c-1.613-4.982-8.845-13.239-8.918-13.323a6.673,6.673,0,0,1-.707-4.657l1.844-18.03,5.79-23.322,3.926-7.24c.076-.1,5.14-6.783,4.5-12.251l-1.912-6.67c0-.057-.16-5.708-.051-9.566.029-.9.071-1.636.127-2.173l2.377-8.563.049-.381.405-3.836h0l.025-.319.33-3.115c.007-.049.517-3.4-1.7-5.243a59.751,59.751,0,0,0-6.575-4.374c-.3-.127-8.01-3.472-11-5.476-.092-.042-3.041-1.542-3.166-8.026-.034-1.783-.092-3.057-.138-4.081a11.9,11.9,0,0,1,.57-5.531l2.223-7.112a29.732,29.732,0,0,0-15.5-6.853c-.071-.011-6.641-.975-8.359.779a1.323,1.323,0,0,0-.351,1.228l.01.054-.012.052a151.489,151.489,0,0,1-5.505,18.947c-.2.349-4.558,7.549-9.676,8.139l-10.531,2.135c-.179.02-15.434,1.706-16.425,6.906l-.014.077-.054.06c-.039.043-3.92,4.514-1.766,20.347l.61,3.3,20.833,78.7.9,2.244-.934,3.646c-.125.2-12.475,19.955-14.082,36.977,0,.408.295,43.747,2.213,59.668s7.91,50.914,7.97,51.265c.025.182,2.308,17.273.38,28.261-2.063,11.756-3.373,22.075,0,38.744,3.464,17.127,2.155,35.054,2.141,35.234Z" transform="translate(-309.266 -843.793)" fill="#999"/>
          </g>
          <path id="Trazado_109551" data-name="Trazado 109551" d="M415.437,1099.6" transform="translate(-299.729 -871.38)" fill="#fff" stroke="#999" stroke-miterlimit="10" stroke-width="0.75" opacity="0.58"/>
          <path id="Trazado_109552" data-name="Trazado 109552" d="M422.51,937.175l-3.905-11.1c-1.261-4.024-2.313-10.194-3.332-16.16-1.34-7.858-2.727-15.982-4.526-18.665l.464-.311c1.867,2.783,3.2,10.6,4.613,18.883a143,143,0,0,0,3.31,16.078l3.9,11.089Z" transform="translate(-298.531 -818.083)" fill="#999"/>
          <path id="Trazado_109553" data-name="Trazado 109553" d="M391.908,1066.216a.372.372,0,0,1-.266-.633c4.4-4.5,4.279-20.722,4.278-20.886-.166-13.777-1.415-33-3.614-55.587-.091-.943-.057-6.524.024-7.523.645-7.971,1.056-14.094,1.386-19.014.378-5.636.652-9.709,1.063-13.531.214-1.986.458-3.9.693-5.755.827-6.5,1.609-12.633.888-20.35-.9-9.683-7.541-37.913-7.8-39.017-.16-.389-1.249-3.472-.015-12.752,1.284-9.648,1.625-15.408,1.629-15.464a.376.376,0,0,1,.393-.351.372.372,0,0,1,.35.393c0,.057-.346,5.841-1.633,15.52-1.261,9.478-.043,12.355-.031,12.383.092.36,6.928,29.339,7.849,39.219.727,7.8-.06,13.974-.892,20.512-.235,1.85-.479,3.762-.691,5.74-.409,3.808-.682,7.874-1.06,13.5-.331,4.922-.742,11.048-1.388,19.024-.075.935-.111,6.491-.024,7.39,2.2,22.609,3.451,41.853,3.617,55.651.007.68.124,16.7-4.491,21.415A.37.37,0,0,1,391.908,1066.216Z" transform="translate(-292.711 -808.993)" fill="#4d4d4d"/>
          <path id="Trazado_109554" data-name="Trazado 109554" d="M368.118,1058.113a.373.373,0,0,1-.372-.369l-.44-43.7-1.118-24.072c-.008-.3-.771-29.018-.465-36.356.459-11.011.077-18.5-1.132-22.258-1.554-4.826-10.9-24.289-10.994-24.485l-2.824-7.788c-.029-.081-2.77-7.8-6.147-10.4l-3.507-2.7a.372.372,0,1,1,.454-.59l3.506,2.7c3.553,2.733,6.281,10.41,6.394,10.735l2.809,7.75c.372.768,9.447,19.67,11.017,24.544,1.237,3.842,1.63,11.418,1.168,22.518-.305,7.313.456,36.009.465,36.3l1.118,24.078.441,43.718a.372.372,0,0,1-.369.376Z" transform="translate(-280.709 -816.648)" fill="#4d4d4d"/>
          <g id="Grupo_56496" data-name="Grupo 56496" transform="translate(52.254 112.779)">
            <path id="Trazado_109555" data-name="Trazado 109555" d="M401.7,957.317l-19.631-3.373s-20.869-4.236-27.722-2.243-21.679,5.98-21.679,5.98l-1.993-6.514s19.063-8.438,35.073-5.7,35.074,5.233,35.074,5.233l1.5.166A8.282,8.282,0,0,1,401.7,957.317Z" transform="translate(-330.331 -944.65)" fill="#fff"/>
            <path id="Trazado_109556" data-name="Trazado 109556" d="M332.359,957.927l-2.144-7.009.227-.1c.191-.086,19.322-8.441,35.233-5.717,15.821,2.71,34.872,5.207,35.062,5.231l1.669.185.06.162a8.481,8.481,0,0,1-.642,6.681l-.1.17L381.9,954.125c-.217-.044-20.888-4.2-27.6-2.25-6.777,1.972-21.536,5.943-21.685,5.982Zm-1.465-6.7,1.841,6.016c2.013-.542,15.14-4.083,21.413-5.908,6.842-1.99,27,2.063,27.856,2.237l19.427,3.339a8.088,8.088,0,0,0,.561-5.88l-1.322-.147c-.2-.025-19.257-2.525-35.09-5.235C350.777,943.116,333.1,950.3,330.895,951.231Z" transform="translate(-330.215 -944.556)" fill="#999"/>
          </g>
          <g id="Grupo_56497" data-name="Grupo 56497" transform="translate(122.98 118.999)">
            <path id="Trazado_109557" data-name="Trazado 109557" d="M425.989,957.629l2.931-2.054,1.355.416s.575.192.574-.358l-1.12-2.263s-.544-.969-.987-.094l-.44,1.6-2.666,2.06-.432.74Z" transform="translate(-425.203 -952.911)" fill="#666"/>
          </g>
          <g id="Grupo_56498" data-name="Grupo 56498" transform="translate(80.487 111.529)">
            <path id="Trazado_109558" data-name="Trazado 109558" d="M368.919,947.6l2.931-2.054,1.354.416s.575.193.575-.358l-1.12-2.263s-.545-.969-.988-.094l-.44,1.6-2.666,2.06-.431.74Z" transform="translate(-368.134 -942.878)" fill="#666"/>
          </g>
          <g id="Grupo_56499" data-name="Grupo 56499" transform="translate(50.432 117.051)">
            <path id="Trazado_109559" data-name="Trazado 109559" d="M332.628,955.012l-2.931-2.054-1.355.416s-.575.192-.574-.358l1.12-2.263s.544-.969.987-.094l.44,1.6,2.666,2.06.432.74Z" transform="translate(-327.768 -950.294)" fill="#666"/>
          </g>
          <path id="Trazado_109560" data-name="Trazado 109560" d="M387.3,853.951c-9.3,0-17.824-6.056-17.931-6.132l.328-.453c.132.1,13.291,9.434,24.536,4.684l.217.514A18.234,18.234,0,0,1,387.3,853.951Z" transform="translate(-287.962 -806.953)" fill="#999"/>
          <g id="Grupo_56503" data-name="Grupo 56503" transform="translate(87.983)">
            <g id="Grupo_56500" data-name="Grupo 56500" transform="translate(0.73)">
              <path id="Trazado_109561" data-name="Trazado 109561" d="M390.7,800.71c0-3.932-2.466-7.12-5.508-7.12s-5.507,3.188-5.507,7.12c0,3.076,1.511,5.688,3.622,6.684v26.462h4.161V807.189A7.449,7.449,0,0,0,390.7,800.71Z" transform="translate(-379.309 -793.218)" fill="#fff"/>
              <path id="Trazado_109562" data-name="Trazado 109562" d="M387.709,834.1H382.8V807.5c-2.176-1.153-3.622-3.894-3.622-6.913,0-4.132,2.637-7.493,5.879-7.493s5.88,3.361,5.88,7.493a7.944,7.944,0,0,1-3.231,6.687Zm-4.161-.745h3.417V806.848l.183-.107a7.11,7.11,0,0,0,3.048-6.158c0-3.721-2.3-6.748-5.135-6.748s-5.135,3.027-5.135,6.748c0,2.835,1.37,5.385,3.409,6.348l.214.1Z" transform="translate(-379.181 -793.09)" fill="#999"/>
            </g>
            <g id="Grupo_56501" data-name="Grupo 56501" transform="translate(0 8.595)">
              <rect id="Rectángulo_10339" data-name="Rectángulo 10339" width="12.915" height="2.082" rx="1.041" transform="translate(0.373 0.372)" fill="#fff"/>
              <path id="Trazado_109563" data-name="Trazado 109563" d="M390.589,807.46H379.474a1.274,1.274,0,0,1-1.273-1.273v-.281a1.274,1.274,0,0,1,1.273-1.273h11.116a1.274,1.274,0,0,1,1.272,1.273v.281A1.274,1.274,0,0,1,390.589,807.46Zm-11.116-2.082a.529.529,0,0,0-.528.528v.281a.529.529,0,0,0,.528.528h11.116a.528.528,0,0,0,.527-.528v-.281a.528.528,0,0,0-.527-.528Z" transform="translate(-378.201 -804.634)" fill="#999"/>
            </g>
            <g id="Grupo_56502" data-name="Grupo 56502" transform="translate(0 4.621)">
              <rect id="Rectángulo_10340" data-name="Rectángulo 10340" width="12.915" height="2.082" rx="1.041" transform="translate(0.373 0.372)" fill="#fff"/>
              <path id="Trazado_109564" data-name="Trazado 109564" d="M390.589,802.122H379.474a1.274,1.274,0,0,1-1.273-1.272v-.281a1.274,1.274,0,0,1,1.273-1.273h11.116a1.274,1.274,0,0,1,1.272,1.273v.281A1.274,1.274,0,0,1,390.589,802.122Zm-11.116-2.082a.529.529,0,0,0-.528.528v.281a.529.529,0,0,0,.528.528h11.116a.528.528,0,0,0,.527-.528v-.281a.528.528,0,0,0-.527-.528Z" transform="translate(-378.201 -799.296)" fill="#999"/>
            </g>
          </g>
          <g id="Grupo_56504" data-name="Grupo 56504" transform="translate(36.171 75.333)">
            <ellipse id="Elipse_4366" data-name="Elipse 4366" cx="7.501" cy="16.224" rx="7.501" ry="16.224" transform="translate(0.372 0.372)" fill="#fff"/>
            <path id="Trazado_109565" data-name="Trazado 109565" d="M316.49,927.458c-4.415,0-7.874-7.289-7.874-16.6s3.459-16.6,7.874-16.6,7.873,7.29,7.873,16.6S320.9,927.458,316.49,927.458Zm0-32.448c-3.931,0-7.129,7.111-7.129,15.852s3.2,15.851,7.129,15.851,7.129-7.111,7.129-15.851S320.421,895.01,316.49,895.01Z" transform="translate(-308.616 -894.265)" fill="gray"/>
          </g>
          <ellipse id="Elipse_4367" data-name="Elipse 4367" cx="1.58" cy="2.079" rx="1.58" ry="2.079" transform="translate(41.764 89.85)" fill="#454545"/>
          <path id="Trazado_109566" data-name="Trazado 109566" d="M319.4,892.9l-.653-.357c.092-.169,2.357-4.167,10.337-5.793l.148.729C321.593,889.032,319.426,892.857,319.4,892.9Z" transform="translate(-275.034 -817.011)" fill="gray"/>
          <g id="Grupo_56505" data-name="Grupo 56505" transform="translate(58.866 179.456)">
            <path id="Trazado_109567" data-name="Trazado 109567" d="M366.593,1038.282c-.467,0-.939,0-1.421-.006-18.31-.16-26-3.629-26.076-3.664l.234-.506c.075.034,7.68,3.453,25.847,3.612,16.069.138,23.723-2.15,23.8-2.173l.165.534C389.065,1036.1,381.8,1038.282,366.593,1038.282Z" transform="translate(-339.096 -1034.106)" fill="#999"/>
            <path id="Trazado_109568" data-name="Trazado 109568" d="M367.13,1044.556q-.861,0-1.719-.027c-17.139-.55-25.278-3.872-25.357-3.905l.215-.516c.079.033,8.139,3.317,25.159,3.863,11.8.382,24.214-3.371,24.338-3.409l.162.534A89.942,89.942,0,0,1,367.13,1044.556Z" transform="translate(-339.34 -1035.639)" fill="#999"/>
            <path id="Trazado_109569" data-name="Trazado 109569" d="M377.483,1044.119l-1.839-1.543,1.375-1.582-1.651-1.5.377-.413,2.053,1.87-1.36,1.565,1.4,1.178Z" transform="translate(-348.361 -1035.376)" fill="#999"/>
            <path id="Trazado_109570" data-name="Trazado 109570" d="M380.9,1044.119l-1.839-1.543,1.375-1.582-1.651-1.5.377-.413,2.053,1.87-1.36,1.565,1.4,1.178Z" transform="translate(-349.233 -1035.376)" fill="#999"/>
            <path id="Trazado_109571" data-name="Trazado 109571" d="M384.41,1043.98l-1.716-1.5,1.281-1.536-1.535-1.458.384-.405,1.916,1.819-1.268,1.52,1.306,1.142Z" transform="translate(-350.167 -1035.376)" fill="#999"/>
            <path id="Trazado_109572" data-name="Trazado 109572" d="M387.889,1043.652l-1.728-1.423,1.276-1.443-1.511-1.352.372-.416,1.925,1.722-1.262,1.425,1.281,1.055Z" transform="translate(-351.058 -1035.361)" fill="#999"/>
            <path id="Trazado_109573" data-name="Trazado 109573" d="M391,1043.214l-1.728-1.423,1.276-1.443L389.036,1039l.372-.416,1.925,1.722-1.262,1.425,1.281,1.055Z" transform="translate(-351.852 -1035.249)" fill="#999"/>
            <path id="Trazado_109574" data-name="Trazado 109574" d="M359.28,1043.389l-1.667-1.649,1.549-1.405-1.456-1.567.409-.38,1.842,1.981-1.531,1.388,1.248,1.234Z" transform="translate(-343.826 -1035.2)" fill="#999"/>
            <path id="Trazado_109575" data-name="Trazado 109575" d="M362.678,1043.674l-1.667-1.649,1.55-1.405-1.457-1.567.409-.38,1.843,1.981-1.532,1.388,1.248,1.235Z" transform="translate(-344.693 -1035.272)" fill="#999"/>
            <path id="Trazado_109576" data-name="Trazado 109576" d="M366.337,1043.98l-1.667-1.649,1.55-1.405-1.457-1.567.409-.38,1.843,1.981-1.532,1.388,1.248,1.234Z" transform="translate(-345.628 -1035.351)" fill="#999"/>
            <path id="Trazado_109577" data-name="Trazado 109577" d="M348.66,1041.515l-1.667-1.649,1.55-1.405-1.457-1.567.409-.38,1.843,1.981-1.532,1.389,1.248,1.234Z" transform="translate(-341.113 -1034.721)" fill="#999"/>
            <path id="Trazado_109578" data-name="Trazado 109578" d="M345.333,1040.714l-1.667-1.649,1.549-1.405-1.456-1.567.409-.38,1.842,1.981-1.532,1.388,1.249,1.235Z" transform="translate(-340.263 -1034.516)" fill="#999"/>
            <path id="Trazado_109579" data-name="Trazado 109579" d="M342.589,1039.928l-1.667-1.649,1.549-1.405-1.457-1.567.409-.38,1.843,1.981-1.532,1.389,1.249,1.234Z" transform="translate(-339.562 -1034.316)" fill="#999"/>
            <path id="Trazado_109580" data-name="Trazado 109580" d="M352.058,1042.278l-1.667-1.649,1.549-1.405-1.456-1.567.409-.38,1.842,1.981-1.531,1.389,1.249,1.234Z" transform="translate(-341.981 -1034.916)" fill="#999"/>
            <path id="Trazado_109581" data-name="Trazado 109581" d="M355.716,1042.585l-1.667-1.649,1.55-1.406-1.456-1.567.409-.38,1.842,1.981-1.532,1.389,1.248,1.234Z" transform="translate(-342.915 -1034.994)" fill="#999"/>
            <path id="Trazado_109582" data-name="Trazado 109582" d="M369.8,1044.271l-1.667-1.649,1.55-1.405-1.457-1.567.409-.38,1.843,1.981-1.532,1.388,1.248,1.235Z" transform="translate(-346.513 -1035.425)" fill="#999"/>
            <path id="Trazado_109583" data-name="Trazado 109583" d="M373.19,1044.088l-1.667-1.649,1.549-1.405-1.456-1.567.409-.38,1.842,1.981-1.532,1.388,1.248,1.234Z" transform="translate(-347.378 -1035.378)" fill="#999"/>
            <path id="Trazado_109584" data-name="Trazado 109584" d="M397.361,1042.117l-1.871-1.225,1.332-1.2-1.505-1.07.324-.455,2.072,1.475-1.31,1.178,1.263.828Z" transform="translate(-353.456 -1035.144)" fill="#999"/>
            <path id="Trazado_109585" data-name="Trazado 109585" d="M400.454,1041.481l-1.87-1.225,1.332-1.2-1.505-1.07.324-.455,2.072,1.475-1.31,1.178,1.262.828Z" transform="translate(-354.246 -1034.981)" fill="#999"/>
            <path id="Trazado_109586" data-name="Trazado 109586" d="M403.613,1040.825l-1.869-1.226,1.332-1.2-1.505-1.071.324-.455,2.072,1.475-1.31,1.178,1.263.828Z" transform="translate(-355.053 -1034.814)" fill="#999"/>
            <path id="Trazado_109587" data-name="Trazado 109587" d="M393.841,1042.467l-1.779-1.251,1.277-1.232-1.458-1.113.339-.444,1.974,1.507-1.258,1.214,1.226.862Z" transform="translate(-352.578 -1035.21)" fill="#999"/>
          </g>
          <path id="Trazado_109588" data-name="Trazado 109588" d="M345.676,1389.105c-5.352,0-8.9-5.742-8.936-5.8l.477-.29c.039.064,3.988,6.445,9.7,5.425,5.884-1.053,7.132-3.363,8.363-6.766l.525.19c-1.258,3.476-2.624,6.023-8.789,7.126A7.591,7.591,0,0,1,345.676,1389.105Z" transform="translate(-279.628 -943.424)" fill="#999"/>
          <path id="Trazado_109589" data-name="Trazado 109589" d="M383.494,1373.614c-5.411,0-8.579-6.619-8.715-6.908l.506-.237c.031.067,3.155,6.587,8.222,6.587.137,0,.275-.005.414-.015,5.4-.377,7.363-3.951,8.8-6.561l.5.242c-1.427,2.6-3.563,6.479-9.263,6.876C383.8,1373.609,383.647,1373.614,383.494,1373.614Z" transform="translate(-289.344 -939.542)" fill="#999"/>
          <path id="Trazado_109590" data-name="Trazado 109590" d="M338.5,1274.1h-.558V1247.44c0-.127-.262-13.285-.549-15.864a121.482,121.482,0,0,1-.583-17.432c.383-6.333,1.125-25.538,1.133-25.731,0-.169-.022-18.111-1.246-25.192-1.025-5.925-3.2-26.155-4.508-38.242-.284-2.642-.531-4.928-.72-6.645-1.057-9.614-1.358-39.833-1.361-40.138.058-1.317,1.459-32.013,4.677-40.631,3.2-8.567,6.841-20.952,6.878-21.075l1.682-5.336-20.561-74.506.538-.148,20.6,74.665-1.73,5.488c-.035.119-3.683,12.522-6.889,21.108-3.188,8.536-4.628,40.128-4.642,40.446,0,.289.3,30.481,1.359,40.068.188,1.717.435,4,.719,6.646,1.3,12.08,3.481,32.3,4.5,38.206,1.232,7.128,1.255,25.118,1.255,25.3-.008.2-.75,19.414-1.134,25.754a120.777,120.777,0,0,0,.582,17.337c.289,2.6.541,15.378.552,15.921Z" transform="translate(-276.064 -829.719)" fill="#999"/>
          <path id="Trazado_109591" data-name="Trazado 109591" d="M354.185,1302.814h-.019a.372.372,0,0,1-.352-.391c.039-.783,3.939-78.283,3.939-81.538,0-3.331.595-11.3,1.97-14.645,1.322-3.211,2.908-23,2.925-23.2l1.752-67.576,2.525-68.376a.348.348,0,0,1,.386-.358.373.373,0,0,1,.358.386l-2.525,68.372-1.753,67.591c-.066.839-1.613,20.123-2.98,23.441-1.336,3.245-1.914,11.08-1.914,14.361s-3.779,78.379-3.94,81.575A.372.372,0,0,1,354.185,1302.814Z" transform="translate(-283.989 -857.875)" fill="#4d4d4d"/>
          <path id="Trazado_109592" data-name="Trazado 109592" d="M378,1088.09c-2.331,0-9.105-.1-27.994-.8-25.727-.955-27.261-5.079-27.352-5.546a.372.372,0,0,1,.727-.161c.046.115,1.853,4.043,26.653,4.963,25.752.955,28.946.792,29.07.786a.387.387,0,0,1,.394.349.372.372,0,0,1-.348.394C379.116,1088.076,378.863,1088.09,378,1088.09Z" transform="translate(-276.028 -866.704)" fill="#4d4d4d"/>
          <path id="Trazado_109593" data-name="Trazado 109593" d="M412.8,1094.586l-.557-.038c.013-.191,1.285-19.279.652-30.655-.633-11.331-6.261-21.853-6.318-21.958l.491-.266c.058.106,5.744,10.738,6.383,22.192C414.089,1075.271,412.813,1094.394,412.8,1094.586Z" transform="translate(-297.466 -856.582)" fill="#999"/>
          <path id="Trazado_109594" data-name="Trazado 109594" d="M371.769,1126.209c-.591-5.106-2.234-7.182-7.109-13.345-.722-.913-1.514-1.913-2.381-3.024-9.859-12.633-20.143-17.318-28-19.989-7.769-2.641-13.691,3.377-13.749,3.438l-.4-.387c.063-.063,6.223-6.334,14.332-3.58,7.932,2.7,18.311,7.424,28.262,20.174.866,1.109,1.657,2.109,2.378,3.021,4.814,6.088,6.616,8.365,7.225,13.628Z" transform="translate(-275.385 -868.575)" fill="#999"/>
          <path id="Trazado_109595" data-name="Trazado 109595" d="M375.7,1201.539l-.555-.052c.03-.319,3.016-31.92,3.5-37.583s1.351-22.547,1.36-22.716c.061-.465,1.51-10.875,6.582-12.2,4.12-1.078,4.623-1.515,7.414-3.941.518-.451,1.115-.968,1.825-1.57,4.483-3.8,12.223-21.858,12.3-22.04l.513.219c-.319.748-7.87,18.364-12.453,22.247-.709.6-1.3,1.116-1.82,1.566-2.874,2.5-3.392,2.948-7.639,4.059-4.712,1.233-6.154,11.608-6.168,11.713-.007.147-.877,17.044-1.358,22.713S375.73,1201.221,375.7,1201.539Z" transform="translate(-289.437 -871.847)" fill="#999"/>
          <path id="Trazado_109596" data-name="Trazado 109596" d="M379.657,1328.474l-.558-.007c.005-.332.48-33.217.1-39.607-.4-6.673.424-22.728,2.338-30.386,1.911-7.64,1.294-21.15,1.287-21.285l-3.625-36.632.555-.055,3.626,36.646c.008.151.628,13.741-1.3,21.462-1.9,7.611-2.721,23.577-2.324,30.217C380.137,1295.237,379.662,1328.143,379.657,1328.474Z" transform="translate(-290.447 -897.151)" fill="#999"/>
          <path id="Trazado_109597" data-name="Trazado 109597" d="M378.135,891.718c-11.254,0-21.75-10.738-22.238-11.244a.373.373,0,0,1,.537-.517c.129.134,13.074,13.379,25.192,10.633a15.906,15.906,0,0,0,8.317-5.934.372.372,0,0,1,.6.442,16.353,16.353,0,0,1-8.753,6.219A16.545,16.545,0,0,1,378.135,891.718Z" transform="translate(-284.495 -815.249)" fill="#4d4d4d"/>
          <rect id="Rectángulo_10341" data-name="Rectángulo 10341" width="3.852" height="11.719" transform="translate(90.581 18.949)" fill="#464646"/>
          <rect id="Rectángulo_10342" data-name="Rectángulo 10342" width="2.791" height="11.719" transform="translate(95.624 18.949)" fill="#464646"/>
          <rect id="Rectángulo_10343" data-name="Rectángulo 10343" width="2.855" height="4.856" transform="translate(98.416 21.798)" fill="#464646"/>
          <rect id="Rectángulo_10344" data-name="Rectángulo 10344" width="6.514" height="315.395" transform="translate(23.093 52.681)" fill="#464646"/>
          <rect id="Rectángulo_10345" data-name="Rectángulo 10345" width="6.514" height="35.028" transform="translate(90.581 20.275) rotate(90)" fill="#464646"/>
          <path id="Trazado_109598" data-name="Trazado 109598" d="M297.482,856.028s-2.088-15.733,8.207-23.212a41.577,41.577,0,0,1,23.989-5.983v-6.514s-16.856-.36-26.74,6.961c-9.636,7.138-12.427,14.471-12.2,27.485Z" transform="translate(-267.875 -800.044)" fill="#464646"/>
          <g id="Grupo_56506" data-name="Grupo 56506" transform="translate(22.72 376.105)">
            <rect id="Rectángulo_10346" data-name="Rectángulo 10346" width="6.514" height="67.905" rx="3.257" transform="translate(0.373 0.372)" fill="#fff"/>
            <path id="Trazado_109599" data-name="Trazado 109599" d="M294.555,1366.863h-.748a3.259,3.259,0,0,1-3.255-3.255v-62.141a3.259,3.259,0,0,1,3.255-3.255h.748a3.258,3.258,0,0,1,3.255,3.255v62.141A3.258,3.258,0,0,1,294.555,1366.863Zm-.748-67.905a2.513,2.513,0,0,0-2.511,2.51v62.141a2.513,2.513,0,0,0,2.511,2.51h.748a2.513,2.513,0,0,0,2.51-2.51v-62.141a2.513,2.513,0,0,0-2.51-2.51Z" transform="translate(-290.551 -1298.213)" fill="#999"/>
          </g>
          <rect id="Rectángulo_10347" data-name="Rectángulo 10347" width="9.081" height="15.636" transform="translate(21.789 366.814)" fill="#464646"/>
          <path id="Trazado_109600" data-name="Trazado 109600" d="M305.031,1424.642l4.7-3.755,52.25,30.56-3.173,2.913Z" transform="translate(-271.529 -953.441)" fill="#464646"/>
          <g id="Grupo_56507" data-name="Grupo 56507" transform="translate(81.087 497.919)">
            <path id="Trazado_109601" data-name="Trazado 109601" d="M391.815,1469.869l-9.071,8.078-13.154-7.122,9.712-8.547Z" transform="translate(-369.105 -1461.932)" fill="#fff"/>
            <path id="Trazado_109602" data-name="Trazado 109602" d="M382.617,1478.167l-13.678-7.406,10.166-8.947,13.012,7.893Zm-12.709-7.517,12.63,6.839,8.643-7.7-12.015-7.29Z" transform="translate(-368.939 -1461.814)" fill="#999"/>
          </g>
          <path id="Trazado_109603" data-name="Trazado 109603" d="M393.095,1464.656l-10.683,9.323-11.461-6.29,10.694-9.411Z" transform="translate(-288.366 -962.992)" fill="#9f9f9f"/>
        </g>
        <g id="Grupo_56509" data-name="Grupo 56509" transform="translate(35.734 167.831)" opacity="0.43">
          <path id="Trazado_109604" data-name="Trazado 109604" d="M316.3,1018.994l4.759,1.165s6.8,1.748,8.061,1.845,8.346,0,8.346,0l6.08.043s3.22.346,3.478,3.259,3.171,1.554,3.171,1.554,2.235-3.691,3.837-2.331a2.822,2.822,0,0,1,.825,3.182s0,1.465,1.7.453,2.037-3.343,3.277-2.663-.366,3.2,0,3.69,1.673.1,3.3-1.262a7.94,7.94,0,0,1,4.188-1.457l4.809.065,2.2,24.733s.556,16.251,1.383,24.746a98.749,98.749,0,0,1-.322,20.387c-1.293,11.026-.41,8.076-6.723,12.446-3.938,2.727-5.305,8.741-5.4,10.112-.439,6.344-1.914,27.873-1.914,27.873l-2.946,33.621-12.875,116.493s-8.255,2.234-12.237,0-9.129-9.324-14.956-10.392-9.809-1.974-9.809-1.974v-34.057s3.981-37.585,3.3-46.909-3.3-46.131-3.3-46.131l1.456-75.462s1.554-26.416,4.079-35.934S316.3,1018.994,316.3,1018.994Z" transform="translate(-308.157 -1018.621)" fill="#999"/>
          <path id="Trazado_109605" data-name="Trazado 109605" d="M338.131,1298.191a10.782,10.782,0,0,1-5.146-1.045,30.378,30.378,0,0,1-4.855-3.892c-2.992-2.718-6.385-5.8-9.987-6.458-5.768-1.057-9.785-1.969-9.825-1.977a.374.374,0,0,1-.29-.363V1250.4c.042-.415,3.972-37.7,3.3-46.882-.68-9.323-3.3-46.132-3.3-46.132l1.457-75.5c.016-.279,1.585-26.578,4.091-36.022,2.483-9.359,2.224-26.82,2.221-26.995a.373.373,0,0,1,.461-.368l4.759,1.165c.071.019,6.785,1.742,8,1.835s8.241,0,8.313,0l6.088.043c.071.006,3.564.417,3.846,3.6a1.627,1.627,0,0,0,.663,1.361,2.433,2.433,0,0,0,1.884-.072c.329-.52,1.641-2.458,3.039-2.684a1.549,1.549,0,0,1,1.292.366,3.185,3.185,0,0,1,.962,3.524.483.483,0,0,0,.17.346c.061.034.312.115.962-.272a5.223,5.223,0,0,0,1.506-1.593c.535-.76,1.144-1.622,2.139-1.077,1.041.571.637,1.934.342,2.93a3.552,3.552,0,0,0-.2.9c0-.009.075,0,.106.007a4.719,4.719,0,0,0,2.638-1.372,8.228,8.228,0,0,1,4.412-1.544l4.829.064a.373.373,0,0,1,.366.339l2.2,24.734c.006.182.566,16.357,1.382,24.743a100.113,100.113,0,0,1-.323,20.466c-.112.955-.208,1.8-.293,2.563-.72,6.392-.733,6.514-3.713,8.308-.748.45-1.678,1.011-2.875,1.838-3.611,2.5-5.125,8.162-5.24,9.831-.439,6.345-1.913,27.873-1.913,27.873l-2.947,33.628-12.876,116.5a.374.374,0,0,1-.273.319A31.938,31.938,0,0,1,338.131,1298.191Zm-29.357-14.034c1.019.226,4.634,1.014,9.5,1.907,3.812.7,7.287,3.855,10.353,6.639a30.032,30.032,0,0,0,4.718,3.795c3.43,1.925,10.329.369,11.713.027l12.847-116.237,2.946-33.613h0s1.474-21.522,1.912-27.867c.078-1.13,1.357-7.483,5.56-10.392,1.214-.841,2.156-1.409,2.914-1.864,2.665-1.6,2.665-1.6,3.358-7.754.085-.759.181-1.61.293-2.566a99.257,99.257,0,0,0,.322-20.3c-.818-8.415-1.379-24.612-1.384-24.775l-2.167-24.378-4.473-.06a7.607,7.607,0,0,0-3.944,1.371c-1.276,1.065-2.446,1.627-3.2,1.541a.894.894,0,0,1-.638-.34c-.249-.331-.1-.831.1-1.523.29-.975.49-1.8.015-2.065-.346-.191-.533-.055-1.173.853a5.89,5.89,0,0,1-1.735,1.8,1.712,1.712,0,0,1-1.712.278,1.253,1.253,0,0,1-.55-1.051.379.379,0,0,1,.03-.146,2.436,2.436,0,0,0-.723-2.751.806.806,0,0,0-.691-.2c-1.007.163-2.208,1.817-2.587,2.44a.377.377,0,0,1-.161.144,3.28,3.28,0,0,1-2.665.083,2.31,2.31,0,0,1-1.035-1.942c-.227-2.568-3.029-2.908-3.148-2.922l-6.042-.041c-.282,0-7.108.1-8.371,0-1.281-.1-7.846-1.784-8.125-1.856l-4.29-1.051c.022,2.9.025,18.14-2.252,26.717-2.485,9.372-4.051,35.6-4.066,35.86l-1.457,75.447s2.622,36.779,3.3,46.1c.674,9.25-3.264,46.6-3.3,46.975Z" transform="translate(-308.029 -1018.493)" fill="#4d4d4d"/>
        </g>
        <path id="Trazado_109606" data-name="Trazado 109606" d="M355.429,1073.92a.327.327,0,0,1-.061-.005.372.372,0,0,1-.307-.427c.02-.127,2.091-12.744,2.9-22.33a165.814,165.814,0,0,0,0-21.309.372.372,0,0,1,.743-.052,166.638,166.638,0,0,1,0,21.424c-.808,9.615-2.883,22.262-2.9,22.389A.372.372,0,0,1,355.429,1073.92Z" transform="translate(-284.306 -853.461)" fill="#4d4d4d" opacity="0.43"/>
        <path id="Trazado_109607" data-name="Trazado 109607" d="M366.048,1071.694a.377.377,0,0,1-.136-.025.373.373,0,0,1-.211-.483c2.022-5.191,3.365-38.52,3.378-38.857a.375.375,0,0,1,.387-.357.372.372,0,0,1,.357.386c-.055,1.378-1.362,33.791-3.429,39.1A.372.372,0,0,1,366.048,1071.694Z" transform="translate(-287.019 -854.105)" fill="#4d4d4d" opacity="0.43"/>
        <path id="Trazado_109608" data-name="Trazado 109608" d="M373.1,1072.361a.377.377,0,0,1-.136-.025.373.373,0,0,1-.211-.482c2.022-5.191,3.364-38.52,3.377-38.857a.376.376,0,0,1,.386-.357.372.372,0,0,1,.358.386c-.055,1.378-1.361,33.791-3.429,39.1A.371.371,0,0,1,373.1,1072.361Z" transform="translate(-288.821 -854.275)" fill="#4d4d4d" opacity="0.43"/>
        <g id="Grupo_56510" data-name="Grupo 56510" transform="translate(101.483 204.775)">
          <path id="Trazado_109609" data-name="Trazado 109609" d="M397.117,1072.829l2.931-2.054,1.355.417s.574.192.574-.359l-1.12-2.262s-.545-.969-.988-.095l-.439,1.6-2.667,2.06-.431.741Z" transform="translate(-396.332 -1068.111)" fill="#666"/>
        </g>
        <g id="Grupo_56511" data-name="Grupo 56511" transform="translate(102.404 225.225)">
          <path id="Trazado_109610" data-name="Trazado 109610" d="M398.354,1100.294l2.931-2.053,1.354.416s.575.192.575-.358l-1.12-2.263s-.545-.969-.988-.095l-.439,1.6L398,1099.6l-.431.74Z" transform="translate(-397.569 -1095.576)" fill="#666"/>
        </g>
      </g>
      <g id="Grupo_56513" data-name="Grupo 56513" transform="translate(402.752 1038.912)">
        <path id="Trazado_109611" data-name="Trazado 109611" d="M465.137,1132.547H460.9v3.948h4.744v1.186h-6.173v-10.95h5.93v1.186h-4.5v3.46h4.24Z" transform="translate(-459.467 -1126.715)"/>
        <path id="Trazado_109612" data-name="Trazado 109612" d="M470.136,1132.944c0-.829-.016-1.479-.065-2.129h1.268l.08,1.284h.033a2.912,2.912,0,0,1,2.6-1.462c1.089,0,2.779.649,2.779,3.346v4.7H475.4v-4.533c0-1.267-.471-2.339-1.82-2.339a2.064,2.064,0,0,0-1.917,1.462,2.136,2.136,0,0,0-.1.667v4.744h-1.43Z" transform="translate(-462.175 -1127.712)"/>
        <path id="Trazado_109613" data-name="Trazado 109613" d="M483.6,1128.345v1.885h2.047v1.089H483.6v4.225c0,.975.276,1.527,1.072,1.527a2.682,2.682,0,0,0,.829-.1l.065,1.089a3.9,3.9,0,0,1-1.267.2,2.037,2.037,0,0,1-1.543-.6,3.065,3.065,0,0,1-.553-2.063v-4.273h-1.218v-1.089H482.2v-1.446Z" transform="translate(-464.962 -1127.127)"/>
        <path id="Trazado_109614" data-name="Trazado 109614" d="M489.382,1133.268c0-.926-.016-1.722-.065-2.453h1.25l.066,1.544h.049a2.377,2.377,0,0,1,2.193-1.722,2.855,2.855,0,0,1,.389.032v1.348a4.044,4.044,0,0,0-.487-.032,2,2,0,0,0-1.917,1.819,4.5,4.5,0,0,0-.049.667v4.208h-1.429Z" transform="translate(-467.091 -1127.712)"/>
        <path id="Trazado_109615" data-name="Trazado 109615" d="M496.938,1135.007a2.5,2.5,0,0,0,2.681,2.713,5.11,5.11,0,0,0,2.177-.406l.26,1.024a6.394,6.394,0,0,1-2.632.5,3.668,3.668,0,0,1-3.867-3.965c0-2.372,1.413-4.24,3.7-4.24,2.568,0,3.234,2.258,3.234,3.7a3.468,3.468,0,0,1-.048.666Zm4.176-1.024a2.033,2.033,0,0,0-1.966-2.323,2.356,2.356,0,0,0-2.193,2.323Z" transform="translate(-468.685 -1127.712)"/>
        <path id="Trazado_109616" data-name="Trazado 109616" d="M507.23,1133.382c0-1.008-.016-1.82-.065-2.567h1.284l.081,1.348h.032a3.034,3.034,0,0,1,2.779-1.526c1.917,0,3.347,1.608,3.347,4,0,2.827-1.739,4.225-3.575,4.225a2.739,2.739,0,0,1-2.421-1.235h-.033v4.273h-1.43Zm1.43,2.1a2.319,2.319,0,0,0,.066.584,2.187,2.187,0,0,0,2.128,1.674c1.512,0,2.388-1.234,2.388-3.038,0-1.576-.812-2.925-2.323-2.925a2.282,2.282,0,0,0-2.177,1.771,3.4,3.4,0,0,0-.081.569Z" transform="translate(-471.65 -1127.712)"/>
        <path id="Trazado_109617" data-name="Trazado 109617" d="M520.288,1128.48a.85.85,0,0,1-.861-.877.886.886,0,1,1,.878.877Zm-.683,9.2v-7.864h1.43v7.864Z" transform="translate(-474.782 -1126.709)"/>
        <path id="Trazado_109618" data-name="Trazado 109618" d="M525.391,1135.007a2.5,2.5,0,0,0,2.681,2.713,5.107,5.107,0,0,0,2.177-.406l.26,1.024a6.394,6.394,0,0,1-2.632.5,3.668,3.668,0,0,1-3.867-3.965c0-2.372,1.413-4.24,3.7-4.24,2.567,0,3.233,2.258,3.233,3.7a3.474,3.474,0,0,1-.048.666Zm4.176-1.024a2.033,2.033,0,0,0-1.966-2.323,2.356,2.356,0,0,0-2.193,2.323Z" transform="translate(-475.953 -1127.712)"/>
        <path id="Trazado_109619" data-name="Trazado 109619" d="M535.683,1133.268c0-.926-.016-1.722-.065-2.453h1.251l.065,1.544h.048a2.378,2.378,0,0,1,2.194-1.722,2.873,2.873,0,0,1,.389.032v1.348a4.042,4.042,0,0,0-.487-.032,2,2,0,0,0-1.917,1.819,4.5,4.5,0,0,0-.049.667v4.208h-1.43Z" transform="translate(-478.917 -1127.712)"/>
        <path id="Trazado_109620" data-name="Trazado 109620" d="M542.9,1132.944c0-.829-.016-1.479-.065-2.129h1.267l.081,1.284h.033a2.912,2.912,0,0,1,2.6-1.462c1.089,0,2.778.649,2.778,3.346v4.7h-1.43v-4.533c0-1.267-.471-2.339-1.819-2.339a2.063,2.063,0,0,0-1.917,1.462,2.137,2.137,0,0,0-.1.667v4.744H542.9Z" transform="translate(-480.762 -1127.712)"/>
        <path id="Trazado_109621" data-name="Trazado 109621" d="M560.366,1136.794a13.194,13.194,0,0,0,.114,1.885H559.2l-.13-.991h-.049a2.9,2.9,0,0,1-2.4,1.17,2.241,2.241,0,0,1-2.405-2.259c0-1.9,1.69-2.94,4.728-2.924v-.163a1.615,1.615,0,0,0-1.788-1.819,3.785,3.785,0,0,0-2.062.584l-.325-.958a5.088,5.088,0,0,1,2.6-.682c2.421,0,3.005,1.64,3.005,3.217Zm-1.4-2.128c-1.56-.033-3.331.243-3.331,1.771a1.253,1.253,0,0,0,1.332,1.365,1.985,1.985,0,0,0,1.934-1.316,1.48,1.48,0,0,0,.066-.455Z" transform="translate(-483.666 -1127.712)"/>
      </g>
      <path id="Trazado_109622" data-name="Trazado 109622" d="M431.306,1146.783s-11.751,28.25-52.3,36.657" transform="translate(-36.164 -92.924)" fill="none" stroke="#999" stroke-miterlimit="10" stroke-width="1"/>
    </g>
  </g>
</svg>
