<svg xmlns="http://www.w3.org/2000/svg" width="471.132" height="487.04" viewBox="0 0 471.132 487.04">
  <g id="Grupo_56716" data-name="Grupo 56716" transform="translate(-81.941 -3720)">
    <rect id="Rectángulo_10422" data-name="Rectángulo 10422" width="471.132" height="487.04" rx="18.261" transform="translate(81.941 3720)" fill="#fff"/>
    <g id="Grupo_56715" data-name="Grupo 56715" transform="translate(125.826 3757.344)">
      <path id="Trazado_110256" data-name="Trazado 110256" d="M209.937,3820.763l4.269,3.971-.708,1.642,1.476,1.45s3.943-2.184,4.069-4.49l-.828-1.3-2.107.939-4.99-3.354-1.184-.362-.6.556Z" transform="translate(-103.821 -3740.199)" fill="#999"/>
      <path id="Trazado_110257" data-name="Trazado 110257" d="M210.258,3820.668l-2.6,5.219,1.24,1.288-.871,1.876s-4.459-.657-5.389-2.772l.315-1.511,2.3.138,3.491-4.9.982-.756.758.31Z" transform="translate(-104.978 -3740.199)" fill="#999"/>
      <g id="Grupo_56692" data-name="Grupo 56692" transform="translate(5.136 21.449)">
        <path id="Trazado_110258" data-name="Trazado 110258" d="M251.976,3831.577s-12.631-5.45-17.387-8.628c0,0-4.622-2.23-4.815-12.313s.582-17.063,2.133-21.814l1.939-7.368s-5.623-8.726-21.33-10.762c0,0-10.567-.969-12.992,1.551,0,0-6.4,23.947-15.124,34.612,0,0-1.842,7.077-21.233,11.053l-22.88,4.944s-10.567,2.229-12.216,10.858c0,0-6.4,6.884-2.908,32.479l.97,5.235,11.246,57.978,16.384,64.957.679,2.327v6.5s-18.227,26.08-20.36,45.47-1.661,106.7-1.661,106.7,76.1,9.178,120.689,3.06l-1.135-102.193a87.275,87.275,0,0,0-7.756-34.321l-8.338-15.706s-1.454-1.164-1.163-11.829l6.884-35.969,8.241-25.885,6.2-11.441s8.079-10.535,7.046-19.326l-2.974-10.341s-.387-13.573.13-18.615L264,3859.337l1.292-12.152s.905-5.557-2.844-8.661A94.375,94.375,0,0,0,251.976,3831.577Z" transform="translate(-123.676 -3770.068)" fill="#fff"/>
        <path id="Trazado_110259" data-name="Trazado 110259" d="M215.7,4161c-39.961,0-82.69-5.079-83.261-5.148l-.385-.046,0-.388c0-.873-.448-87.554,1.663-106.748,2.049-18.625,19.042-43.647,20.357-45.56v-6.294l-.661-2.269-16.388-64.972-11.252-58-.971-5.239c-3.3-24.212,2.134-31.795,2.933-32.759,1.756-8.718,12.425-11.067,12.534-11.09l22.878-4.943c18.793-3.853,20.883-10.668,20.9-10.736l.086-.165c8.564-10.469,14.975-34.208,15.039-34.448l.108-.191c2.542-2.642,12.909-1.723,13.348-1.683,15.744,2.04,21.426,10.6,21.66,10.96l.1.162L232.4,3789c-1.613,4.943-2.3,12.031-2.118,21.694.185,9.638,4.526,11.9,4.57,11.926,4.717,3.147,17.24,8.564,17.366,8.618l.045.024a94.971,94.971,0,0,1,10.533,6.99c3.9,3.226,3.036,8.834,3,9.071l-1.288,12.127-3.763,13.515c-.478,4.723-.141,17.476-.116,18.429l2.959,10.289c1.057,8.937-6.784,19.279-7.118,19.715l-6.167,11.381-8.209,25.81-6.871,35.919c-.264,9.88.982,11.369,1.036,11.427l.084.113,8.338,15.705a88.627,88.627,0,0,1,7.808,34.537l1.14,102.566-.385.053A286.046,286.046,0,0,1,215.7,4161Zm-82.771-5.977c5.9.688,77.363,8.781,119.808,3.066l-1.132-101.8a87.662,87.662,0,0,0-7.717-34.145l-8.3-15.626c-.393-.451-1.5-2.578-1.243-12.1l6.892-36.042,8.254-25.936,6.237-11.517c.118-.162,8-10.556,7-19.065l-2.976-10.381c-.016-.555-.381-13.659.131-18.671l3.763-13.518,1.278-12.081c.012-.076.819-5.375-2.687-8.275a93.781,93.781,0,0,0-10.387-6.893c-.785-.339-12.757-5.531-17.433-8.657-.147-.065-4.815-2.434-5.012-12.67-.188-9.762.517-16.944,2.154-21.958l1.88-7.147c-.847-1.164-6.755-8.576-20.909-10.409-2.83-.259-10.544-.516-12.542,1.344-.5,1.826-6.776,24.33-15.121,34.593-.31.929-3.116,7.5-21.541,11.272l-22.874,4.943c-.1.022-10.3,2.276-11.877,10.512l-.023.122-.086.093c-.062.069-6.2,7.125-2.8,32.122l.968,5.214,11.245,57.974,16.38,64.934.692,2.435v6.633l-.08.114c-.182.259-18.187,26.212-20.282,45.267C132.552,4067.249,132.9,4148.654,132.925,4155.022Z" transform="translate(-123.741 -3770.133)" fill="#999"/>
      </g>
      <ellipse id="Elipse_4427" data-name="Elipse 4427" cx="2.618" cy="3.927" rx="2.618" ry="3.927" transform="translate(14.088 101.96)" fill="#999"/>
      <g id="Grupo_56693" data-name="Grupo 56693" transform="translate(90.498)">
        <path id="Trazado_110260" data-name="Trazado 110260" d="M201.915,3769.423v10.472a5.282,5.282,0,0,0,4.815.355l.1-10.827a8.4,8.4,0,0,0,6.334-8.338s.905-9.243-8.4-8.854S197,3763.347,197,3763.347,198.684,3768.777,201.915,3769.423Z" transform="translate(-196.466 -3751.779)" fill="#fff"/>
        <path id="Trazado_110261" data-name="Trazado 110261" d="M204.721,3781.174a5.569,5.569,0,0,1-2.993-.855l-.188-.131V3769.83c-3.213-.974-4.823-6.064-4.894-6.288-.047-.29-.769-5.549,2.052-8.948a7.98,7.98,0,0,1,6.106-2.739c2.883-.115,5.124.644,6.661,2.27,2.589,2.738,2.214,6.892,2.2,7.067a8.779,8.779,0,0,1-6.336,8.628l-.1,10.79-.27.112A5.878,5.878,0,0,1,204.721,3781.174Zm-2.3-1.463a4.81,4.81,0,0,0,3.937.3l.1-10.871.338-.079a7.9,7.9,0,0,0,5.994-7.906c.006-.084.351-3.986-1.964-6.428-1.353-1.431-3.365-2.1-5.981-1.991a7.148,7.148,0,0,0-5.464,2.418c-2.572,3.1-1.882,8.146-1.875,8.2h0s1.631,5.121,4.563,5.708l.354.072Z" transform="translate(-196.531 -3751.843)" fill="#999"/>
      </g>
      <path id="Trazado_110262" data-name="Trazado 110262" d="M244.088,3892.021l-4.86-18.387c-4.042-12.9-4.735-20.322-5.784-31.561-.136-1.456-.278-2.973-.433-4.576-1.317-13.537-6.071-17.2-6.119-17.234l.518-.71c.208.151,5.114,3.863,6.476,17.86.155,1.6.3,3.123.434,4.579,1.043,11.183,1.733,18.569,5.752,31.4l4.864,18.407Z" transform="translate(-100.788 -3740.148)" fill="#999"/>
      <path id="Trazado_110263" data-name="Trazado 110263" d="M196.789,3969.094q-2.125,0-4.419-.035c-30.3-.481-43.026-7.16-43.151-7.227l.416-.775c.124.067,12.7,6.645,42.748,7.122,29.941.479,37.4-4.053,37.469-4.1l.477.737C230.048,3965,223.415,3969.094,196.789,3969.094Z" transform="translate(-114.205 -3715.705)" fill="#999"/>
      <path id="Trazado_110264" data-name="Trazado 110264" d="M197.6,3977.161q-2.579,0-5.406-.094c-28.368-.96-41.837-7.639-41.97-7.707l.4-.785c.13.068,13.451,6.66,41.6,7.612,28.114.958,37.342-5.851,37.431-5.92l.536.7C229.834,3971.237,221.8,3977.161,197.6,3977.161Z" transform="translate(-114.032 -3714.407)" fill="#999"/>
      <path id="Trazado_110265" data-name="Trazado 110265" d="M205.829,3826.07a21.379,21.379,0,0,1-4.643-.53c-15.682-3.485-28.725-20.255-28.855-20.425l.7-.536c.128.167,12.981,16.687,28.348,20.1,15.162,3.377,21.228-10.74,21.477-11.343l.814.338C223.609,3813.815,218.351,3826.07,205.829,3826.07Z" transform="translate(-110.213 -3742.734)" fill="#999"/>
      <path id="Trazado_110266" data-name="Trazado 110266" d="M217.416,3788.574c-16.483,0-30.092-9.488-30.234-9.589l.508-.719c.148.105,14.908,10.362,32.135,9.358l.053.877C219.052,3788.551,218.229,3788.574,217.416,3788.574Z" transform="translate(-107.647 -3747.279)" fill="#999"/>
      <path id="Trazado_110267" data-name="Trazado 110267" d="M217.3,3782.773c-14.776,0-28.74-9.518-28.9-9.627l.5-.723c.176.119,17.632,12.018,33.927,8.977l.161.865A31.088,31.088,0,0,1,217.3,3782.773Z" transform="translate(-107.437 -3748.289)" fill="#999"/>
      <path id="Trazado_110268" data-name="Trazado 110268" d="M194.434,4153.145l-.088-91.269c.638-14.429-2.423-46.175-2.455-46.5l-.778-22-1.163-59.6c.015-.275,1.448-24.238,3.5-35.635,2.008-11.177-6.68-22.679-6.768-22.794-.163-.328-11.375-24.748-17.261-42.791-5.78-17.72-14.962-19.852-15.054-19.872l.178-.861c.4.081,9.756,2.2,15.712,20.459,5.871,17.994,17.062,42.367,17.175,42.611.318.4,8.962,11.839,6.884,23.4-2.039,11.346-3.469,35.257-3.484,35.5l1.165,59.557.775,21.969c.029.293,3.1,32.1,2.457,46.573l.088,91.25Z" transform="translate(-113.316 -3741.483)" fill="#999"/>
      <path id="Trazado_110269" data-name="Trazado 110269" d="M212.348,4157.508l-.88-.025c.035-1.169,3.325-117.1-2.212-135.054-5.583-18.1-3.915-41.616-3.9-41.851l6.6-54.313c.023-.3,2.485-32.5,1.059-47.8-.459-4.908-1.5-11-2.592-17.448-2.356-13.85-5.288-31.086-4.092-46.228l2.954-27.547.875.094-2.953,27.536c-1.187,15.019,1.736,32.2,4.082,46,1.1,6.465,2.139,12.573,2.6,17.514,1.434,15.372-1.033,47.646-1.058,47.969l-6.6,54.312c-.015.213-1.671,23.57,3.862,41.506C215.677,4040.259,212.487,4152.728,212.348,4157.508Z" transform="translate(-104.55 -3745.729)" fill="#999"/>
      <path id="Trazado_110270" data-name="Trazado 110270" d="M149.719,3893.813l-3.341-10.917.358-.157c.3-.132,30.072-13.137,54.837-8.9,24.621,4.215,54.269,8.1,54.566,8.14l2.119.336.083.256c.083.257,1.98,6.319-1.957,10.053l-.158.15-.217-.036-29.181-4.848c-.34-.069-32.508-6.539-42.949-3.5-10.548,3.068-33.518,9.247-33.749,9.309Zm-2.27-10.424,2.864,9.355c3.149-.849,23.56-6.356,33.321-9.2,10.643-3.094,42.024,3.209,43.352,3.481l28.948,4.807c2.915-2.954,1.939-7.6,1.642-8.737l-1.563-.248c-.285-.036-29.949-3.925-54.588-8.144C178.388,3870.772,150.9,3881.935,147.449,3883.389Z" transform="translate(-114.696 -3730.917)" fill="#999"/>
      <path id="Trazado_110271" data-name="Trazado 110271" d="M190.817,3977l-2.948-2.949,2.272-3.115-2.818-3.06.646-.6,3.309,3.592-2.254,3.09,2.416,2.415Z" transform="translate(-107.623 -3714.63)" fill="#999"/>
      <path id="Trazado_110272" data-name="Trazado 110272" d="M194.4,3977l-2.948-2.949,2.272-3.115-2.818-3.06.646-.6,3.309,3.592-2.254,3.09,2.416,2.415Z" transform="translate(-107.004 -3714.63)" fill="#999"/>
      <path id="Trazado_110273" data-name="Trazado 110273" d="M198.266,3977l-2.948-2.949,2.271-3.115-2.817-3.06.646-.6,3.307,3.592-2.253,3.09,2.416,2.415Z" transform="translate(-106.336 -3714.63)" fill="#999"/>
      <path id="Trazado_110274" data-name="Trazado 110274" d="M201.923,3977l-2.95-2.949,2.272-3.115-2.818-3.06.646-.6,3.309,3.592-2.254,3.09,2.416,2.415Z" transform="translate(-105.705 -3714.63)" fill="#999"/>
      <path id="Trazado_110275" data-name="Trazado 110275" d="M205.442,3976.4l-2.948-2.949,2.272-3.115-2.818-3.06.646-.6,3.309,3.592-2.254,3.09,2.416,2.415Z" transform="translate(-105.097 -3714.734)" fill="#999"/>
      <path id="Trazado_110276" data-name="Trazado 110276" d="M171.417,3976.064l-2.663-3.14,2.558-2.766-2.5-3.2.694-.541,2.959,3.793-2.538,2.743,2.159,2.547Z" transform="translate(-110.831 -3714.781)" fill="#999"/>
      <path id="Trazado_110277" data-name="Trazado 110277" d="M174.986,3976.42l-2.664-3.14,2.56-2.766-2.5-3.2.694-.541,2.959,3.793L173.5,3973.3l2.16,2.547Z" transform="translate(-110.214 -3714.719)" fill="#999"/>
      <path id="Trazado_110278" data-name="Trazado 110278" d="M178.83,3976.8l-2.664-3.14,2.558-2.766-2.5-3.2.694-.541,2.959,3.793-2.538,2.743,2.16,2.547Z" transform="translate(-109.55 -3714.653)" fill="#999"/>
      <path id="Trazado_110279" data-name="Trazado 110279" d="M160.262,3973.717l-2.664-3.14,2.56-2.766-2.5-3.2.694-.541,2.959,3.793-2.539,2.743,2.16,2.547Z" transform="translate(-112.758 -3715.186)" fill="#999"/>
      <path id="Trazado_110280" data-name="Trazado 110280" d="M156.768,3972.714l-2.664-3.14,2.56-2.766-2.5-3.2.694-.541,2.959,3.793-2.539,2.743,2.16,2.547Z" transform="translate(-113.361 -3715.359)" fill="#999"/>
      <path id="Trazado_110281" data-name="Trazado 110281" d="M153.885,3971.73l-2.663-3.14,2.558-2.766-2.5-3.2.694-.541,2.959,3.793-2.538,2.743,2.159,2.547Z" transform="translate(-113.859 -3715.529)" fill="#999"/>
      <path id="Trazado_110282" data-name="Trazado 110282" d="M163.831,3974.673l-2.664-3.14,2.56-2.766-2.5-3.2.694-.541,2.959,3.793-2.539,2.743,2.16,2.547Z" transform="translate(-112.141 -3715.021)" fill="#999"/>
      <path id="Trazado_110283" data-name="Trazado 110283" d="M167.674,3975.057l-2.663-3.139,2.56-2.767-2.5-3.2.694-.541,2.958,3.793-2.537,2.744,2.159,2.546Z" transform="translate(-111.477 -3714.955)" fill="#999"/>
      <path id="Trazado_110284" data-name="Trazado 110284" d="M182.467,3977.167l-2.664-3.14,2.56-2.766-2.5-3.2.694-.541,2.959,3.793-2.539,2.743,2.16,2.547Z" transform="translate(-108.922 -3714.59)" fill="#999"/>
      <path id="Trazado_110285" data-name="Trazado 110285" d="M186.027,3976.939l-2.663-3.141,2.56-2.767-2.5-3.2.694-.541,2.958,3.793-2.537,2.744,2.159,2.547Z" transform="translate(-108.307 -3714.629)" fill="#999"/>
      <path id="Trazado_110286" data-name="Trazado 110286" d="M215.5,3973.167l-2.715-2.413,2.034-2.48-2.447-2.361.612-.632,3.031,2.925L214,3970.658l2.083,1.852Z" transform="translate(-103.296 -3714.976)" fill="#999"/>
      <path id="Trazado_110287" data-name="Trazado 110287" d="M212.593,3974.061l-2.714-2.413,2.034-2.481-2.447-2.361.612-.632,3.029,2.925-2.011,2.453,2.082,1.852Z" transform="translate(-103.799 -3714.822)" fill="#999"/>
      <path id="Trazado_110288" data-name="Trazado 110288" d="M209.9,3974.992l-3-2.585,2.26-2.672-2.739-2.566.6-.642,3.351,3.137-2.237,2.647,2.336,2.015Z" transform="translate(-104.323 -3714.761)" fill="#999"/>
      <path id="Trazado_110289" data-name="Trazado 110289" d="M217.854,3972.394l-2.4-2.318,1.795-2.382-2.159-2.27.637-.607,2.674,2.811-1.776,2.357,1.838,1.777Z" transform="translate(-102.826 -3715.056)" fill="#999"/>
      <path id="Trazado_110290" data-name="Trazado 110290" d="M168.338,4140.339l-.88-.006.97-149.158,1.744-58.564v-53.292h.88v53.3l-1.744,58.567Z" transform="translate(-111.054 -3729.824)" fill="#999"/>
      <path id="Trazado_110291" data-name="Trazado 110291" d="M147.193,4140.888l-.88-.028c.023-.752,2.374-75.751,3.246-108.081.84-31.09,10.429-41.49,11.659-42.7l1.109-7.015L136.615,3864.4l.86-.185,25.75,118.832-.014.081-1.17,7.394-.114.1c-.106.1-10.62,10.1-11.487,42.181C149.567,4065.135,147.215,4140.134,147.193,4140.888Z" transform="translate(-116.382 -3732.434)" fill="#999"/>
      <g id="Grupo_56694" data-name="Grupo 56694" transform="translate(19.143 131.776)">
        <rect id="Rectángulo_10423" data-name="Rectángulo 10423" width="0.879" height="1.172" transform="matrix(0.977, -0.212, 0.212, 0.977, 0, 0.186)" fill="#999"/>
        <path id="Trazado_110292" data-name="Trazado 110292" d="M146.309,4136.177l-.88-.028.074-2.349.88.028Zm.144-4.7-.88-.028.073-2.346.88.028Zm.144-4.691-.88-.028.073-2.345.88.029Zm.144-4.688-.88-.028.073-2.344.88.028Zm.143-4.688-.88-.028.073-2.344.88.028Zm.143-4.688-.88-.026.072-2.344.88.028Zm.144-4.687-.88-.026.072-2.344.88.027Zm.141-4.685-.88-.027.072-2.343.88.027Zm.144-4.687-.88-.024.07-2.344.88.027Zm.142-4.686-.88-.024.07-2.344.88.027Zm.141-4.685-.88-.024.07-2.344.88.027Zm.142-4.684-.88-.027.069-2.343.88.026Zm.141-4.687-.88-.028.07-2.347.88.026Zm.137-4.69-.88-.028.068-2.268.442-.059.437.083Zm.141-4.678-.88-.026.069-2.343.88.026Zm.138-4.687-.88-.025.069-2.343.88.025Zm.137-4.686-.88-.025.068-2.342.88.024Zm.137-4.687-.88-.025.068-2.342.88.024Zm.137-4.684-.88-.024.068-2.343.88.024Zm.134-4.685-.88-.027.068-2.342.88.025Zm.135-4.69-.88-.024.066-2.343.88.024Zm.131-4.687-.88-.025.066-2.343.88.023Zm.129-4.688-.88-.023.021-.764c.014-.532.03-1.061.05-1.582l.88.033c-.02.519-.036,1.042-.05,1.573Zm.178-4.669-.877-.048q.065-1.193.145-2.343l.877.062Q149.622,4027.2,149.558,4028.39Zm.331-4.655-.875-.078q.106-1.193.23-2.337l.875.094Q150,4022.552,149.888,4023.736Zm.505-4.637-.873-.112q.155-1.191.327-2.327l.87.133C150.6,4017.541,150.495,4018.312,150.394,4019.1Zm.7-4.607-.865-.152q.208-1.191.436-2.311l.861.174Q151.3,4013.315,151.094,4014.491Zm.923-4.566-.856-.2q.273-1.184.562-2.286l.85.223Q152.288,4008.756,152.017,4009.926Zm1.181-4.5-.843-.249q.348-1.175.708-2.247l.834.279Q153.542,4004.266,153.2,4005.425Zm1.479-4.406-.822-.31q.438-1.165.882-2.189l.808.348C155.255,3999.54,154.964,4000.255,154.677,4001.019Zm1.835-4.257-.79-.387c.379-.771.748-1.467,1.1-2.094l.765.433C157.244,3995.326,156.881,3996.007,156.512,3996.762Zm2.287-4.016-.731-.488a23.065,23.065,0,0,1,1.421-1.918l.675.564A22.432,22.432,0,0,0,158.8,3992.746Zm2.416-4.086-.868-.138.365-2.312.869.137Zm.731-4.627-.868-.137.211-1.335-.175-.806.858-.186.211.966Zm-1.328-4.566-.5-2.29.86-.186.5,2.29Zm-.991-4.579-.5-2.289.858-.186.5,2.29Zm-.992-4.577-.5-2.288.858-.186.5,2.288Zm-.992-4.577-.5-2.288.86-.186.5,2.289Zm-.992-4.577-.495-2.289.858-.186.5,2.289Zm-.991-4.577-.5-2.288.858-.186.5,2.288Zm-.992-4.577-.5-2.288.86-.186.495,2.289Zm-.992-4.578-.495-2.288.86-.186.495,2.288Zm-.99-4.576-.5-2.289.858-.186.5,2.29Zm-.992-4.577-.5-2.288.858-.187.5,2.289Zm-.992-4.579-.5-2.288.86-.186.5,2.288Zm-.992-4.576-.495-2.29.858-.185.5,2.29Zm-.991-4.577-.5-2.288.858-.187.5,2.289Zm-.992-4.579-.5-2.288.86-.186.495,2.288Zm-.992-4.576-.5-2.29.86-.185.5,2.29Zm-.991-4.577-.5-2.289.858-.187.5,2.291Zm-.992-4.579-.5-2.288.86-.186.495,2.288Zm-.992-4.577-.5-2.289.86-.185.5,2.288Zm-.991-4.576-.5-2.289.858-.187.5,2.291Zm-.992-4.578-.5-2.289.858-.185.5,2.288Zm-.992-4.578-.5-2.288.86-.185.5,2.288Zm-.992-4.577-.495-2.288.858-.187.5,2.29Zm-.991-4.576-.5-2.29.858-.185.5,2.289Zm-.992-4.578-.5-2.288.86-.185.495,2.288Zm-.992-4.577-.5-2.288.86-.186.5,2.288Z" transform="translate(-135.576 -3863.705)" fill="#999"/>
        <rect id="Rectángulo_10424" data-name="Rectángulo 10424" width="1.169" height="0.88" transform="translate(9.748 275.857) rotate(-88.21)" fill="#999"/>
      </g>
      <g id="Grupo_56695" data-name="Grupo 56695" transform="translate(21.338 131.772)">
        <rect id="Rectángulo_10425" data-name="Rectángulo 10425" width="0.879" height="1.173" transform="translate(0 0.186) rotate(-12.232)" fill="#999"/>
        <path id="Trazado_110293" data-name="Trazado 110293" d="M148.275,4136.964l-.88-.025.069-2.356.88.026Zm.138-4.709-.88-.026.069-2.352.88.024Zm.137-4.706-.88-.025.068-2.352.88.025Zm.136-4.7-.88-.027.068-2.349.88.025Zm.136-4.7-.88-.025.069-2.352.88.026Zm.138-4.7-.88-.026.068-2.35.88.026Zm.136-4.7-.88-.024.068-2.35.88.025Zm.136-4.7-.88-.024.068-2.35.88.024Zm.136-4.7-.88-.024.068-2.351.88.025Zm.137-4.7-.88-.026.068-2.35.88.026Zm.135-4.7-.88-.026.068-2.35.88.026Zm.135-4.7-.88-.026.066-2.281.882-.043Zm.136-4.7-.88-.024.067-2.355.88.024Zm.134-4.706-.88-.024.068-2.348.88.024Zm.135-4.691-.88-.024.067-2.351.88.025Zm.135-4.7-.88-.025.067-2.35.88.026Zm.135-4.7-.88-.026.066-2.349.88.026Zm.133-4.7-.88-.025.067-2.35.88.026Zm.13-4.7-.88-.024.067-2.35.88.024Zm.134-4.7-.88-.025.064-2.35.88.025Zm.13-4.7-.88-.023.066-2.35.88.026Zm.131-4.7-.88-.023.064-2.351.88.023Zm.128-4.7-.88-.023.067-2.351.88.029Zm.165-4.683-.877-.045q.062-1.2.138-2.351l.877.06Q151.462,4027.676,151.4,4028.866Zm.317-4.671-.877-.075q.1-1.2.223-2.344l.875.091C151.859,4022.627,151.784,4023.4,151.718,4024.2Zm.488-4.652-.872-.11q.151-1.2.318-2.333l.87.128C152.411,4017.979,152.307,4018.753,152.206,4019.543Zm.685-4.624-.868-.149q.2-1.191.427-2.317l.863.169Q153.091,4013.739,152.891,4014.919Zm.9-4.582-.858-.192q.266-1.191.551-2.3l.851.217Q154.059,4009.161,153.795,4010.337Zm1.158-4.521-.846-.246q.343-1.178.7-2.257l.835.274Q155.29,4004.654,154.952,4005.816Zm1.453-4.427-.824-.307q.434-1.168.87-2.2l.81.341Q156.834,4000.24,156.406,4001.389Zm1.811-4.288-.793-.38c.369-.773.735-1.474,1.086-2.11l.769.426C158.935,3995.659,158.579,3996.345,158.216,3997.1Zm2.253-4.053-.738-.479c.462-.714.931-1.368,1.391-1.944l.687.55C161.366,3991.729,160.916,3992.359,160.469,3993.049Zm2.559-4.038-.868-.137.368-2.319.868.137Zm.734-4.64-.868-.137.265-1.678-.1-.474.858-.185.138.634Zm-1.2-4.584-.5-2.295.858-.186.5,2.3Zm-1-4.59-.5-2.295.86-.185.5,2.295Zm-.993-4.59-.5-2.3.858-.185.5,2.295Zm-.994-4.59-.5-2.3.86-.185.5,2.295Zm-1-4.59-.5-2.295.86-.186.5,2.3Zm-.993-4.59-.5-2.295.858-.185.5,2.295Zm-1-4.59-.5-2.295.86-.186.5,2.295Zm-.994-4.59-.5-2.3.858-.187.5,2.3Zm-.994-4.591-.5-2.295.858-.187.5,2.295Zm-.995-4.59-.5-2.295.86-.187.5,2.3Zm-1-4.59-.5-2.3.858-.185.5,2.295Zm-.993-4.591-.5-2.295.858-.186.5,2.295Zm-.994-4.59-.5-2.3.86-.185.5,2.295Zm-1-4.59-.5-2.295.858-.186.5,2.3Zm-.993-4.59-.5-2.295.858-.185.5,2.295Zm-1-4.59-.5-2.295.86-.186.5,2.3Zm-.993-4.59-.5-2.295.858-.186.5,2.295Zm-1-4.59-.5-2.295.858-.185.5,2.295Zm-.994-4.59-.5-2.3.86-.185.5,2.295Zm-.994-4.591-.5-2.295.858-.186.5,2.295Zm-.994-4.59-.5-2.3.86-.185.5,2.295Zm-.995-4.59-.5-2.295.86-.186.5,2.3Zm-.994-4.59-.5-2.295.858-.185.5,2.295Zm-.995-4.59-.5-2.295.86-.186.5,2.3Zm-1-4.59-.5-2.295.858-.187.5,2.295Z" transform="translate(-137.447 -3863.7)" fill="#999"/>
        <rect id="Rectángulo_10426" data-name="Rectángulo 10426" width="1.169" height="0.88" transform="translate(9.847 276.654) rotate(-88.21)" fill="#999"/>
      </g>
      <path id="Trazado_110294" data-name="Trazado 110294" d="M136.277,3873.361c-6.91,0-12.531-12.173-12.531-27.135s5.621-27.132,12.531-27.132,12.529,12.17,12.529,27.132S143.185,3873.361,136.277,3873.361Zm0-53.387c-6.424,0-11.651,11.778-11.651,26.252s5.227,26.255,11.651,26.255,11.65-11.778,11.65-26.255S142.7,3819.973,136.277,3819.973Z" transform="translate(-118.605 -3740.227)" fill="#999"/>
      <path id="Trazado_110295" data-name="Trazado 110295" d="M129.265,3896.05l-.284-.832c15.177-5.185,23.91-8.887,24-8.924.3-.124,29.839-11.959,54.1-8.686l19.976,4.069-.176.861-19.947-4.062c-24-3.243-53.325,8.509-53.62,8.63C153.235,3887.14,144.476,3890.853,129.265,3896.05Z" transform="translate(-117.701 -3730.219)" fill="#999"/>
      <path id="Trazado_110296" data-name="Trazado 110296" d="M243.146,3885.311l5.429-1.423.97,1.423,1.94-.453s.258-4.331-1.552-5.623h-1.487l-.323,2.2-5.3,2.327-.9.775.141.776Z" transform="translate(-98.193 -3729.839)" fill="#999"/>
      <path id="Trazado_110297" data-name="Trazado 110297" d="M211.93,4158.161h-.016a.587.587,0,0,1-.57-.6c.035-1.167,3.325-117.078-2.2-135.006-5.592-18.122-3.922-41.669-3.905-41.9l6.6-54.321c.022-.3,2.484-32.483,1.058-47.768-.457-4.9-1.494-10.991-2.589-17.437-2.357-13.858-5.291-31.1-4.093-46.263l2.954-27.553a.586.586,0,0,1,1.166.126l-2.953,27.535c-1.184,15,1.736,32.165,4.082,45.959,1.1,6.466,2.139,12.576,2.6,17.523,1.434,15.385-1.034,47.67-1.059,48l-6.6,54.317c-.015.206-1.668,23.538,3.857,41.445,5.587,18.112,2.4,130.605,2.258,135.386A.586.586,0,0,1,211.93,4158.161Z" transform="translate(-104.572 -3745.808)" fill="#4d4d4d"/>
      <g id="Grupo_56696" data-name="Grupo 56696" transform="translate(109.186 151.458)">
        <path id="Trazado_110298" data-name="Trazado 110298" d="M246.956,3885.644s-28.056-3.059-34.418-4.282" transform="translate(-212.454 -3880.929)" fill="#fff"/>
        <path id="Trazado_110299" data-name="Trazado 110299" d="M246.921,3886.146c-.28-.032-28.147-3.076-34.455-4.29l.168-.863c6.272,1.207,34.1,4.248,34.383,4.277Z" transform="translate(-212.466 -3880.993)" fill="#999"/>
      </g>
      <path id="Trazado_110300" data-name="Trazado 110300" d="M206,3971.368l4.015-3.922,1.546.756,1.461-1.352s-1.917-3.891-4.13-4.12l-1.291.735.806,2.07-3.455,4.644-.4,1.122.507.6Z" transform="translate(-104.648 -3715.417)" fill="#666"/>
      <path id="Trazado_110301" data-name="Trazado 110301" d="M190.706,3971.222l2.078-5.214,1.72.064.787-1.83s-3.332-2.778-5.446-2.088l-.883,1.2,1.577,1.564-1.274,5.647.088,1.188.708.347Z" transform="translate(-107.34 -3715.535)" fill="#666"/>
      <path id="Trazado_110302" data-name="Trazado 110302" d="M208.681,3881.7l2.077-5.212,1.72.063.787-1.83s-3.332-2.778-5.446-2.088l-.883,1.2,1.577,1.564-1.274,5.647.088,1.189.708.346Z" transform="translate(-104.235 -3730.999)" fill="#666"/>
      <path id="Trazado_110303" data-name="Trazado 110303" d="M209.135,3821.889l3.735-4.189,1.594.647,1.365-1.451s-2.182-3.75-4.4-3.824l-1.238.823.948,2.009-3.125,4.872-.325,1.147.548.567Z" transform="translate(-104.106 -3741.267)" fill="#666"/>
      <path id="Trazado_110304" data-name="Trazado 110304" d="M209.135,3822.561l3.735,4.189,1.594-.647,1.365,1.451s-2.182,3.749-4.4,3.824l-1.238-.823.948-2.009-3.125-4.872-.325-1.147.548-.567Z" transform="translate(-104.106 -3739.732)" fill="#666"/>
      <path id="Trazado_110305" data-name="Trazado 110305" d="M190.36,3878.151l3.777-4.15,1.588.664,1.379-1.437s-2.144-3.771-4.365-3.869l-1.247.81.926,2.02-3.176,4.838-.337,1.144.542.574Z" transform="translate(-107.349 -3731.544)" fill="#666"/>
      <path id="Trazado_110306" data-name="Trazado 110306" d="M162.172,3880.718l-3.777-4.151-1.588.664-1.379-1.435s2.144-3.773,4.365-3.87l1.247.81-.926,2.018,3.176,4.84.337,1.143-.542.574Z" transform="translate(-113.132 -3731.102)" fill="#666"/>
      <path id="Trazado_110307" data-name="Trazado 110307" d="M138.816,3874.672l-3.777-4.152-1.588.664-1.379-1.436s2.144-3.772,4.365-3.87l1.247.811-.926,2.019,3.176,4.84.337,1.143-.542.574Z" transform="translate(-117.167 -3732.146)" fill="#666"/>
      <path id="Trazado_110308" data-name="Trazado 110308" d="M141.484,3873.786l3.777-4.151,1.588.664,1.379-1.437s-2.144-3.771-4.365-3.869l-1.247.811.926,2.019-3.176,4.84-.337,1.144.542.572Z" transform="translate(-115.792 -3732.299)" fill="#666"/>
      <path id="Trazado_110309" data-name="Trazado 110309" d="M138.816,3889.886l-3.777-4.151-1.588.664-1.379-1.437s2.144-3.771,4.365-3.869l1.247.81-.926,2.019,3.176,4.84.337,1.143-.542.573Z" transform="translate(-117.167 -3729.518)" fill="#666"/>
      <path id="Trazado_110310" data-name="Trazado 110310" d="M162.824,3883.8l-3.777,4.151-1.588-.664-1.379,1.435s2.144,3.773,4.365,3.87l1.247-.81-.926-2.018,3.176-4.84.337-1.143-.542-.572Z" transform="translate(-113.02 -3729.153)" fill="#666"/>
      <path id="Trazado_110311" data-name="Trazado 110311" d="M139.786,3890.174l-3.777,4.151-1.588-.665-1.379,1.436s2.143,3.772,4.365,3.87l1.247-.81-.926-2.02,3.176-4.839.335-1.143-.541-.574Z" transform="translate(-116.999 -3728.051)" fill="#666"/>
      <path id="Trazado_110312" data-name="Trazado 110312" d="M189.974,3878.594l3.777,4.151,1.588-.664,1.379,1.436s-2.143,3.771-4.365,3.87l-1.247-.81.926-2.02-3.176-4.839-.335-1.144.541-.573Z" transform="translate(-107.416 -3730.052)" fill="#666"/>
      <path id="Trazado_110313" data-name="Trazado 110313" d="M208.953,3882.593l2.078,5.214,1.719-.063.787,1.83s-3.332,2.778-5.446,2.088l-.883-1.2,1.577-1.564-1.272-5.647.087-1.189.708-.346Z" transform="translate(-104.188 -3729.41)" fill="#666"/>
      <path id="Trazado_110314" data-name="Trazado 110314" d="M173.749,3971.693l4.146-3.784,1.519.808,1.507-1.3s-1.785-3.954-3.988-4.258l-1.316.692.735,2.1-3.61,4.525-.441,1.106.486.622Z" transform="translate(-110.218 -3715.343)" fill="#666"/>
      <path id="Trazado_110315" data-name="Trazado 110315" d="M165.457,3969.756l4.146-3.783,1.52.808,1.507-1.3s-1.785-3.955-3.988-4.257l-1.316.69.735,2.1-3.611,4.524-.44,1.108.486.62Z" transform="translate(-111.65 -3715.677)" fill="#666"/>
      <path id="Trazado_110316" data-name="Trazado 110316" d="M157.393,3967.411l-4.146-3.783-1.52.809-1.506-1.3s1.784-3.953,3.987-4.257l1.317.69-.736,2.1,3.611,4.525.441,1.107-.487.62Z" transform="translate(-114.032 -3716.082)" fill="#666"/>
      <path id="Trazado_110317" data-name="Trazado 110317" d="M205.66,3975.859l4.523,3.322-.494,1.649,1.573,1.221s3.526-2.526,3.392-4.746l-.937-1.155-1.91,1.133-5.145-2.651-1.173-.215-.514.6Z" transform="translate(-104.574 -3713.398)" fill="#666"/>
      <path id="Trazado_110318" data-name="Trazado 110318" d="M198.229,3980.056l4.524,3.321-.495,1.649,1.573,1.222s3.528-2.527,3.392-4.747l-.936-1.154-1.91,1.133-5.146-2.651-1.172-.215-.514.6Z" transform="translate(-105.857 -3712.673)" fill="#666"/>
      <path id="Trazado_110319" data-name="Trazado 110319" d="M162.667,3899.39l-1.17-.077c.043-.661,4.407-66.352,6.675-83.952s5.814-38.755,5.85-38.967l1.156.194c-.035.211-3.579,21.352-5.843,38.922S162.711,3898.729,162.667,3899.39Z" transform="translate(-112.084 -3747.603)" fill="#999"/>
      <g id="Grupo_56697" data-name="Grupo 56697" transform="translate(0 21.302)" opacity="0.71">
        <path id="Trazado_110320" data-name="Trazado 110320" d="M122.151,3770.508a10.045,10.045,0,0,0,9.28,4.4c6.628-.305,7.953,2.6,7.953,2.6a16.039,16.039,0,0,0,7.036,1.682,66.086,66.086,0,0,0,11.218-1.3l11.625-1.661s9.922-3.873,15.363,1.276,8.222,7.874,9.839,11.966,2.842,7.663,4.065,8.581,7.751,9.28,12.339,9.993,3.467.51,3.467.51a6.121,6.121,0,0,1,.122,1.529c.082,1.632-4.609,7.19-4.609,9.306s-1.121,3.544.51,3.952,2.652-.807,2.754,1.788.748,2.495,2.159,1.271,4.705-3.671,5-3.467,3.07-.714,4.178.918-1.668,5.531-1.249,11.739,2.459,23.85,2.459,23.85l1.726,19.07s1.635,29.2.923,40.35-6.784,56.417-6.784,56.417-2.316,24.147-1.845,27.578c0,0,.167,5.981,1.289,9.039a20.173,20.173,0,0,0,3.058,5.374s-2.387,4.1-5.833,4.154c0,0-2.528-4.224-5.384-5.041,0,0,.675,27.739,1.255,33.755v5.711s.934,3.262-1.742,3.568-7.074-.918-7.074-.918-6.206,0-6.818-.815-2.175-1.224-3.688-1.224-4.175,1.836-4.175,1.836-2.629,1.121-4.266.611-3.321-1.325-3.142-3.058,3.142-2.958,3.142-2.958l6.215-3.162s-7.6-10.911-9.357-19.477a83.657,83.657,0,0,1-1.365-17.745s-5.139,5.711-5.673,11.013-1.539,12.238-1.539,12.238.393,9.688-1.953,14.174-3.918,7.648-3.918,7.648a26.578,26.578,0,0,0-6.918-1.937c-3.237-.306-13.027-1.735-13.027-1.735a11.676,11.676,0,0,1-7.722-3.364c-3.6-3.468-6.656-3.06-7.267-3.774s-1.53-3.161-3.162-3.161-.714-2.855,1.224-3.468,11.727-15.5,11.727-15.5,10.243-19.165,10.933-20.035.449-8.716.225-9.484-4.632-15.759-7.59-21.571-10.707-40.791-10.707-40.791l-8.771-28.674s-1.988-25.526-1.988-34.551-2.447-22.486-2.447-22.486-1.071-11.154.459-16.208.672-16.358,1.177-20.114-1.636-19.181-2.707-21.258-3.06-14.886-1.989-16.359S122.151,3770.508,122.151,3770.508Z" transform="translate(-119.277 -3769.921)" fill="#ccc"/>
        <path id="Trazado_110321" data-name="Trazado 110321" d="M211.46,4060.143a27.848,27.848,0,0,1-6.206-.966c-2.951,0-6.564-.19-7.209-1.052a4.444,4.444,0,0,0-3.219-.988c-1.092,0-3.144,1.25-3.842,1.732a.751.751,0,0,1-.1.056c-.116.048-2.849,1.2-4.671.632-1.041-.323-3.809-1.187-3.551-3.68.21-2.023,3.165-3.3,3.5-3.438l5.58-2.84c-1.58-2.355-7.515-11.556-9.072-19.139a83.015,83.015,0,0,1-1.408-16.175c-1.5,1.953-4.109,5.8-4.47,9.385-.528,5.255-1.53,12.194-1.54,12.262.021.294.376,9.79-2.014,14.363-2.316,4.43-3.9,7.606-3.915,7.637a.584.584,0,0,1-.761.276,26.188,26.188,0,0,0-6.736-1.891c-3.214-.3-12.957-1.721-13.056-1.735a12.159,12.159,0,0,1-8.045-3.524,11.554,11.554,0,0,0-5.737-3.125,2.966,2.966,0,0,1-1.569-.689,6.835,6.835,0,0,1-.583-.881c-.524-.875-1.244-2.076-2.133-2.076a1.335,1.335,0,0,1-1.407-1.17,3.561,3.561,0,0,1,2.455-3.442c1.107-.372,6.673-8.053,11.413-15.264,1.024-1.92,10.261-19.192,10.966-20.078.495-.833.337-8.165.12-8.955-.046-.154-4.578-15.631-7.548-21.469-2.958-5.811-10.441-39.5-10.759-40.929l-8.759-28.63a.576.576,0,0,1-.022-.125c-.021-.256-1.99-25.652-1.99-34.6,0-8.868-2.413-22.247-2.438-22.38-.05-.51-1.072-11.378.475-16.484.945-3.129.953-8.876.96-13.5a61.231,61.231,0,0,1,.2-6.526c.481-3.577-1.624-18.925-2.648-20.91-1.08-2.094-3.26-15.162-1.941-16.974,1.067-1.468,2-2.62,2.007-2.631a.573.573,0,0,1,.5-.215.586.586,0,0,1,.461.294c.1.179,2.576,4.388,8.743,4.1,6.022-.28,7.959,2.042,8.4,2.747a16.031,16.031,0,0,0,6.627,1.535,67.83,67.83,0,0,0,11.088-1.285l11.594-1.658c.957-.361,10.44-3.758,15.914,1.421,5.577,5.278,8.33,8,9.981,12.179.253.644.5,1.273.735,1.882,1.152,2.968,2.239,5.77,3.136,6.443a19.38,19.38,0,0,1,1.734,1.765c2.459,2.658,7.039,7.6,10.343,8.119,2.137.332,2.988.458,3.324.505a.585.585,0,0,1,.143,0,.481.481,0,0,1,.393.2.58.58,0,0,1,.217.5,1.154,1.154,0,0,1-.06.243c.022.281.042.649.067,1.134.047.916-.807,2.329-2.2,4.557-1.072,1.711-2.405,3.84-2.405,4.778a9.948,9.948,0,0,1-.238,1.97c-.249,1.275-.165,1.295.3,1.412a3.571,3.571,0,0,0,1.141.059,1.816,1.816,0,0,1,1.449.323,2.642,2.642,0,0,1,.606,1.955c.052,1.314.243,1.548.265,1.571-.032-.036.2-.093.924-.721.752-.654,4.359-3.752,5.534-3.572v-.008a4.063,4.063,0,0,0,.474-.034c1.06-.109,3.026-.3,4.034,1.179.664.978.31,2.339-.179,4.224a23.447,23.447,0,0,0-.97,7.806c.413,6.122,2.436,23.646,2.456,23.822l1.729,19.084c.018.313,1.63,29.386.924,40.441-.7,11.04-6.728,56-6.789,56.457-.02.219-2.3,24.1-1.844,27.421.007.123.182,5.984,1.257,8.918a19.74,19.74,0,0,0,2.959,5.2.587.587,0,0,1,.055.672c-.1.178-2.594,4.381-6.328,4.444a.574.574,0,0,1-.514-.286c-.021-.037-1.987-3.278-4.272-4.465.121,4.8.717,27.5,1.231,32.821l0,5.692A4.27,4.27,0,0,1,214.4,4059a2.542,2.542,0,0,1-1.93,1.091A9.1,9.1,0,0,1,211.46,4060.143Zm-16.634-4.179c1.481,0,3.35.383,4.157,1.457.434.337,3.641.583,6.349.583a.614.614,0,0,1,.157.021c.042.012,4.318,1.2,6.851.9a1.412,1.412,0,0,0,1.087-.574,3.169,3.169,0,0,0,.156-2.251.619.619,0,0,1-.021-.161v-5.711c-.575-5.912-1.249-33.461-1.256-33.74a.588.588,0,0,1,.748-.578c2.609.745,4.873,3.978,5.535,5,2.369-.24,4.2-2.625,4.8-3.512a20.865,20.865,0,0,1-2.89-5.208c-1.141-3.114-1.316-8.976-1.323-9.225-.473-3.395,1.751-26.662,1.846-27.65.064-.474,6.081-45.4,6.783-56.4.7-10.985-.907-39.988-.923-40.279l-1.726-19.051c-.018-.161-2.044-17.712-2.459-23.863a24.456,24.456,0,0,1,1.005-8.179c.4-1.527.711-2.732.344-3.271-.615-.905-2.072-.76-2.947-.672a2.974,2.974,0,0,1-.8.021,32.884,32.884,0,0,0-4.554,3.314c-.717.619-1.476,1.2-2.193.889s-.884-1.253-.937-2.58c-.035-.918-.19-1.1-.219-1.13a1.477,1.477,0,0,0-.591-.022,4.661,4.661,0,0,1-1.5-.09c-1.632-.409-1.376-1.722-1.169-2.776a8.95,8.95,0,0,0,.216-1.745c0-1.275,1.255-3.279,2.584-5.4.916-1.462,2.056-3.283,2.026-3.876-.027-.507-.047-.834-.063-1.046-.619-.069-1.567-.216-3.03-.444-3.708-.578-8.288-5.524-11.024-8.482a22.125,22.125,0,0,0-1.576-1.622c-1.167-.875-2.157-3.427-3.526-6.957-.236-.607-.48-1.236-.733-1.877-1.559-3.945-4.248-6.6-9.7-11.757-5.112-4.835-14.652-1.195-14.747-1.156a.646.646,0,0,1-.13.035l-11.625,1.662a64.221,64.221,0,0,1-11.314,1.3,16.513,16.513,0,0,1-7.314-1.76.584.584,0,0,1-.242-.266c-.008-.017-1.338-2.532-7.393-2.257a10.734,10.734,0,0,1-9.34-4c-.366.472-.9,1.172-1.481,1.967-.83,1.213.993,13.727,2.035,15.746,1.149,2.229,3.3,17.686,2.766,21.6a61.515,61.515,0,0,0-.185,6.371c-.007,4.7-.015,10.541-1.011,13.834-1.479,4.885-.448,15.874-.436,15.983.016.086,2.45,13.568,2.45,22.542,0,8.678,1.869,33.006,1.981,34.44l8.752,28.613c.088.393,7.779,35.016,10.67,40.7,3.068,6.029,7.583,21.517,7.63,21.673.185.637.6,8.837-.328,10.011-.511.662-6.784,12.292-10.876,19.947-1.682,2.563-10.035,15.142-12.069,15.784a2.441,2.441,0,0,0-1.648,2.146c.015.106.026.176.247.176,1.554,0,2.507,1.593,3.138,2.646a6.585,6.585,0,0,0,.469.721,3.977,3.977,0,0,0,.969.314,12.788,12.788,0,0,1,6.26,3.416,11.2,11.2,0,0,0,7.3,3.2c.2.02,9.912,1.434,13.1,1.734a25.789,25.789,0,0,1,6.585,1.77c.532-1.059,1.887-3.738,3.678-7.166,2.247-4.3,1.892-13.785,1.887-13.879.015-.178,1.014-7.092,1.541-12.32.547-5.432,5.6-11.109,5.819-11.347a.586.586,0,0,1,1.023.417,83.752,83.752,0,0,0,1.352,17.6c1.713,8.347,9.188,19.152,9.265,19.26a.587.587,0,0,1,.088.478.594.594,0,0,1-.3.38l-6.215,3.16c-.726.3-2.708,1.37-2.825,2.5-.109,1.063.734,1.815,2.734,2.438,1.147.356,3.088-.272,3.81-.569C190.831,4057.554,193.25,4055.964,194.826,4055.964Z" transform="translate(-119.362 -3770.007)" fill="#4d4d4d"/>
      </g>
      <g id="Grupo_56698" data-name="Grupo 56698" transform="translate(60.761 267.104)" opacity="0.81">
        <path id="Trazado_110322" data-name="Trazado 110322" d="M171.674,3980.106s.059,13.385.735,25.316,1.059,14.991,1.059,14.991a16.4,16.4,0,0,1,4.359-4.13,37.433,37.433,0,0,1,5.737-2.754S172.842,3989.437,171.674,3980.106Z" transform="translate(-171.088 -3979.519)" fill="#999"/>
        <path id="Trazado_110323" data-name="Trazado 110323" d="M173.555,4021.084a.575.575,0,0,1-.14-.017.586.586,0,0,1-.442-.5c-.016-.126-.393-3.214-1.062-15.03s-.735-25.213-.736-25.347a.586.586,0,0,1,1.168-.075c1.145,9.138,11.737,33.017,11.845,33.258a.6.6,0,0,1,0,.467.588.588,0,0,1-.338.321,37.252,37.252,0,0,0-5.633,2.7,15.942,15.942,0,0,0-4.184,3.963A.587.587,0,0,1,173.555,4021.084Zm-1.14-35.245c.083,5.011.267,12.608.666,19.636.433,7.628.747,11.641.915,13.524a16.136,16.136,0,0,1,3.611-3.13,36.777,36.777,0,0,1,5.26-2.579C181.5,4010.191,175.208,3995.69,172.415,3985.839Z" transform="translate(-171.174 -3979.605)" fill="#4d4d4d"/>
      </g>
      <rect id="Rectángulo_10427" data-name="Rectángulo 10427" width="64.09" height="29.776" rx="2.56" transform="translate(32.438 312.791)" fill="#fff"/>
      <g id="Grupo_56699" data-name="Grupo 56699" transform="translate(35.963 324.744)">
        <path id="Trazado_110324" data-name="Trazado 110324" d="M160.515,4042.385a8.8,8.8,0,0,1-3.659.658c-3.906,0-6.828-2.468-6.828-7.011a6.881,6.881,0,0,1,7.238-7.259,7.926,7.926,0,0,1,3.29.6l-.453,1.48a6.343,6.343,0,0,0-2.775-.575c-3.248,0-5.407,2.076-5.407,5.695,0,3.393,1.954,5.551,5.3,5.551a7.173,7.173,0,0,0,2.94-.576Z" transform="translate(-150.028 -4028.753)"/>
        <path id="Trazado_110325" data-name="Trazado 110325" d="M166.064,4043.066c-3.68,0-6.231-2.837-6.231-7.031,0-4.4,2.715-7.279,6.416-7.279,3.8,0,6.249,2.9,6.249,7.01,0,4.75-2.9,7.3-6.415,7.3Zm.1-1.459c2.836,0,4.441-2.612,4.441-5.757,0-2.756-1.44-5.634-4.421-5.634s-4.462,2.774-4.462,5.778c0,2.919,1.6,5.613,4.421,5.613Z" transform="translate(-148.334 -4028.756)"/>
        <path id="Trazado_110326" data-name="Trazado 110326" d="M172.619,4029.169a18.717,18.717,0,0,1,3.435-.309,5.727,5.727,0,0,1,4.029,1.151,3.459,3.459,0,0,1,1.089,2.632,3.656,3.656,0,0,1-2.611,3.516v.062a3.535,3.535,0,0,1,2.035,2.8,24.851,24.851,0,0,0,1.05,3.8h-1.852a17.364,17.364,0,0,1-.9-3.309c-.412-1.913-1.172-2.632-2.8-2.694h-1.686v6h-1.79Zm1.79,6.292h1.829c1.913,0,3.125-1.048,3.125-2.631,0-1.789-1.295-2.57-3.187-2.57a7.523,7.523,0,0,0-1.767.163Z" transform="translate(-146.126 -4028.738)"/>
        <path id="Trazado_110327" data-name="Trazado 110327" d="M185.078,4030.47h-4.215v-1.521h10.26v1.521h-4.236v12.336h-1.81Z" transform="translate(-144.702 -4028.723)"/>
        <path id="Trazado_110328" data-name="Trazado 110328" d="M198.088,4036.309h-5.366v5h6v1.5h-7.814v-13.857h7.505v1.5h-5.7v4.38h5.366Z" transform="translate(-142.966 -4028.723)"/>
      </g>
      <g id="Grupo_56701" data-name="Grupo 56701" transform="translate(52.327 307.079)">
        <path id="Trazado_110329" data-name="Trazado 110329" d="M167.771,4028.478a.585.585,0,0,1-.586-.586v-8.142a.586.586,0,1,1,1.173,0v8.142A.586.586,0,0,1,167.771,4028.478Z" transform="translate(-163.428 -4012.748)" fill="#4d4d4d"/>
        <g id="Grupo_56700" data-name="Grupo 56700">
          <path id="Trazado_110330" data-name="Trazado 110330" d="M172.667,4023.988l-4.343-1.845-4.343,1.845,4.343-10.295Z" transform="translate(-163.982 -4013.693)" fill="#4d4d4d"/>
        </g>
      </g>
      <path id="Trazado_110331" data-name="Trazado 110331" d="M406.111,3820.763l4.269,3.971-.708,1.642,1.476,1.45s3.943-2.184,4.069-4.49l-.828-1.3-2.107.939-4.99-3.354-1.184-.362-.6.556Z" transform="translate(-69.936 -3740.199)" fill="#999"/>
      <path id="Trazado_110332" data-name="Trazado 110332" d="M406.432,3820.668l-2.6,5.219,1.24,1.288-.871,1.876s-4.459-.657-5.389-2.772l.315-1.511,2.3.138,3.491-4.9.98-.756.759.31Z" transform="translate(-71.092 -3740.199)" fill="#999"/>
      <g id="Grupo_56702" data-name="Grupo 56702" transform="translate(235.195 21.449)">
        <path id="Trazado_110333" data-name="Trazado 110333" d="M448.15,3831.577s-12.633-5.45-17.387-8.628c0,0-4.622-2.23-4.815-12.313s.582-17.063,2.133-21.814l1.939-7.368s-5.623-8.726-21.33-10.762c0,0-10.568-.969-12.992,1.551,0,0-6.4,23.947-15.124,34.612,0,0-1.842,7.077-21.233,11.053l-22.88,4.944s-10.567,2.229-12.216,10.858c0,0-6.4,6.884-2.908,32.479l.97,5.235,11.246,57.978,16.384,64.957.679,2.327v6.5s-18.227,26.08-20.36,45.47-1.661,106.7-1.661,106.7,76.1,9.178,120.689,3.06l-1.135-102.193a87.3,87.3,0,0,0-7.756-34.321l-8.338-15.706s-1.454-1.164-1.163-11.829l6.884-35.969,8.241-25.885,6.2-11.441s8.079-10.535,7.045-19.326l-2.973-10.341s-.387-13.573.129-18.615l3.749-13.444,1.292-12.152s.905-5.557-2.844-8.661A94.379,94.379,0,0,0,448.15,3831.577Z" transform="translate(-319.85 -3770.068)" fill="#fff"/>
        <path id="Trazado_110334" data-name="Trazado 110334" d="M411.87,4161c-39.961,0-82.69-5.079-83.261-5.148l-.385-.046,0-.388c0-.873-.449-87.554,1.663-106.748,2.049-18.625,19.04-43.647,20.357-45.56v-6.294l-.661-2.269-16.389-64.972-11.251-58-.971-5.239c-3.3-24.212,2.134-31.795,2.933-32.759,1.756-8.718,12.425-11.067,12.534-11.09l22.878-4.943c18.793-3.853,20.883-10.668,20.9-10.736l.084-.165c8.566-10.469,14.976-34.208,15.04-34.448l.107-.191c2.542-2.642,12.911-1.723,13.349-1.683,15.745,2.04,21.426,10.6,21.66,10.96l.1.162L428.571,3789c-1.613,4.943-2.3,12.031-2.118,21.694.185,9.638,4.526,11.9,4.569,11.926,4.718,3.147,17.241,8.564,17.367,8.618l.045.024a94.971,94.971,0,0,1,10.533,6.99c3.9,3.226,3.035,8.834,3,9.071l-1.288,12.127-3.763,13.515c-.478,4.723-.142,17.476-.116,18.429l2.958,10.289c1.058,8.937-6.783,19.279-7.117,19.715l-6.167,11.381-8.209,25.81-6.871,35.919c-.263,9.88.982,11.369,1.036,11.427l.084.113,8.338,15.705a88.677,88.677,0,0,1,7.808,34.537l1.14,102.566-.385.053A286.058,286.058,0,0,1,411.87,4161Zm-82.771-5.977c5.9.688,77.362,8.781,119.807,3.066l-1.131-101.8a87.677,87.677,0,0,0-7.718-34.145l-8.3-15.626c-.393-.452-1.5-2.579-1.243-12.1l6.892-36.042,8.254-25.936,6.237-11.517c.118-.162,8-10.556,7-19.065l-2.976-10.381c-.016-.555-.381-13.659.131-18.671l3.763-13.518,1.278-12.081c.012-.076.819-5.375-2.687-8.275a93.779,93.779,0,0,0-10.387-6.893c-.785-.339-12.757-5.531-17.434-8.657-.145-.065-4.814-2.434-5.011-12.67-.188-9.762.517-16.944,2.154-21.958l1.88-7.147c-.845-1.164-6.755-8.576-20.909-10.409-2.831-.259-10.544-.516-12.542,1.344-.5,1.826-6.776,24.33-15.122,34.593-.308.929-3.115,7.5-21.54,11.272l-22.875,4.943c-.1.022-10.3,2.276-11.877,10.512l-.022.122-.086.093c-.062.069-6.2,7.125-2.8,32.122l.968,5.214,11.245,57.974,16.38,64.934.692,2.435v6.633l-.08.114c-.182.259-18.188,26.212-20.282,45.267C328.726,4067.249,329.069,4148.654,329.1,4155.022Z" transform="translate(-319.915 -3770.133)" fill="#999"/>
      </g>
      <ellipse id="Elipse_4428" data-name="Elipse 4428" cx="2.618" cy="3.927" rx="2.618" ry="3.927" transform="translate(244.147 101.96)" fill="#999"/>
      <path id="Trazado_110335" data-name="Trazado 110335" d="M440.263,3892.021l-4.861-18.387c-4.042-12.9-4.735-20.322-5.785-31.561-.135-1.456-.277-2.973-.433-4.576-1.316-13.537-6.07-17.2-6.118-17.234l.518-.71c.208.151,5.114,3.863,6.475,17.86.156,1.6.3,3.123.435,4.579,1.043,11.183,1.733,18.569,5.752,31.4l4.866,18.407Z" transform="translate(-66.903 -3740.148)" fill="#999"/>
      <path id="Trazado_110336" data-name="Trazado 110336" d="M392.963,3969.094q-2.125,0-4.419-.035c-30.3-.481-43.026-7.16-43.151-7.227l.416-.775c.124.067,12.7,6.645,42.747,7.122,29.936.479,37.4-4.053,37.471-4.1l.477.737C426.223,3965,419.589,3969.094,392.963,3969.094Z" transform="translate(-80.319 -3715.705)" fill="#999"/>
      <path id="Trazado_110337" data-name="Trazado 110337" d="M393.77,3977.161q-2.581,0-5.406-.094c-28.37-.96-41.837-7.639-41.97-7.707l.4-.785c.13.068,13.451,6.66,41.6,7.612,28.124.958,37.342-5.851,37.434-5.92l.534.7C426.008,3971.237,417.975,3977.161,393.77,3977.161Z" transform="translate(-80.147 -3714.407)" fill="#999"/>
      <path id="Trazado_110338" data-name="Trazado 110338" d="M402,3826.07a21.379,21.379,0,0,1-4.643-.53c-15.683-3.485-28.726-20.255-28.855-20.425l.7-.536c.128.167,12.981,16.687,28.348,20.1,15.158,3.377,21.228-10.74,21.477-11.343l.813.338C419.783,3813.815,414.525,3826.07,402,3826.07Z" transform="translate(-76.327 -3742.734)" fill="#999"/>
      <path id="Trazado_110339" data-name="Trazado 110339" d="M413.59,3788.574c-16.483,0-30.092-9.488-30.234-9.589l.508-.719c.147.105,14.918,10.362,32.135,9.358l.053.877C415.225,3788.551,414.4,3788.574,413.59,3788.574Z" transform="translate(-73.762 -3747.279)" fill="#999"/>
      <path id="Trazado_110340" data-name="Trazado 110340" d="M413.469,3782.773c-14.778,0-28.74-9.518-28.9-9.627l.5-.723c.175.119,17.637,12.018,33.927,8.977l.161.865A31.088,31.088,0,0,1,413.469,3782.773Z" transform="translate(-73.552 -3748.289)" fill="#999"/>
      <path id="Trazado_110341" data-name="Trazado 110341" d="M390.608,4153.145l-.088-91.269c.638-14.429-2.423-46.175-2.455-46.5l-.778-22-1.163-59.6c.015-.275,1.448-24.238,3.5-35.635,2.009-11.177-6.68-22.679-6.768-22.794-.163-.328-11.375-24.748-17.261-42.791-5.782-17.72-14.963-19.852-15.054-19.872l.178-.861c.4.081,9.756,2.2,15.712,20.459,5.871,17.994,17.062,42.367,17.175,42.611.318.4,8.963,11.839,6.885,23.4-2.041,11.346-3.47,35.257-3.485,35.5l1.165,59.557.775,21.969c.029.293,3.1,32.1,2.457,46.573l.088,91.25Z" transform="translate(-79.431 -3741.483)" fill="#999"/>
      <path id="Trazado_110342" data-name="Trazado 110342" d="M408.522,4157.508l-.88-.025c.035-1.169,3.325-117.1-2.213-135.054-5.582-18.1-3.913-41.616-3.9-41.851l6.6-54.313c.023-.3,2.484-32.5,1.059-47.8-.459-4.908-1.5-11-2.592-17.448-2.356-13.85-5.288-31.086-4.093-46.228l2.955-27.547.875.094-2.954,27.536c-1.186,15.019,1.737,32.2,4.083,46,1.1,6.465,2.139,12.573,2.6,17.514,1.433,15.372-1.033,47.646-1.059,47.969l-6.6,54.312c-.014.213-1.67,23.57,3.863,41.506C411.851,4040.259,408.66,4152.728,408.522,4157.508Z" transform="translate(-70.665 -3745.729)" fill="#999"/>
      <path id="Trazado_110343" data-name="Trazado 110343" d="M345.893,3893.813l-3.341-10.917.358-.157c.3-.132,30.075-13.137,54.836-8.9,24.621,4.215,54.27,8.1,54.567,8.14l2.12.334.083.258c.083.257,1.978,6.319-1.958,10.053l-.158.15-.217-.036L423,3887.895c-.34-.069-32.508-6.539-42.95-3.5-10.546,3.068-33.518,9.247-33.748,9.309Zm-2.27-10.424,2.863,9.355c3.15-.849,23.562-6.356,33.321-9.2,10.645-3.094,42.024,3.209,43.353,3.481l28.948,4.807c2.922-2.959,1.941-7.6,1.643-8.737l-1.564-.248c-.285-.036-29.949-3.925-54.589-8.144C374.558,3870.772,347.068,3881.935,343.623,3883.389Z" transform="translate(-80.81 -3730.917)" fill="#999"/>
      <path id="Trazado_110344" data-name="Trazado 110344" d="M386.99,3977l-2.948-2.949,2.272-3.115-2.818-3.06.646-.6,3.309,3.592-2.254,3.09,2.416,2.415Z" transform="translate(-73.738 -3714.63)" fill="#999"/>
      <path id="Trazado_110345" data-name="Trazado 110345" d="M390.577,3977l-2.948-2.949,2.272-3.115-2.818-3.06.646-.6,3.309,3.592-2.254,3.09,2.416,2.415Z" transform="translate(-73.118 -3714.63)" fill="#999"/>
      <path id="Trazado_110346" data-name="Trazado 110346" d="M394.44,3977l-2.948-2.949,2.272-3.115-2.818-3.06.646-.6,3.309,3.592-2.254,3.09,2.416,2.415Z" transform="translate(-72.451 -3714.63)" fill="#999"/>
      <path id="Trazado_110347" data-name="Trazado 110347" d="M398.1,3977l-2.95-2.949,2.272-3.115-2.818-3.06.646-.6,3.309,3.592-2.254,3.09,2.416,2.415Z" transform="translate(-71.82 -3714.63)" fill="#999"/>
      <path id="Trazado_110348" data-name="Trazado 110348" d="M401.615,3976.4l-2.948-2.949,2.272-3.115-2.818-3.06.646-.6,3.309,3.592-2.254,3.09,2.416,2.415Z" transform="translate(-71.212 -3714.734)" fill="#999"/>
      <path id="Trazado_110349" data-name="Trazado 110349" d="M367.591,3976.064l-2.663-3.14,2.559-2.766-2.5-3.2.694-.541,2.959,3.793-2.538,2.743,2.159,2.547Z" transform="translate(-76.945 -3714.781)" fill="#999"/>
      <path id="Trazado_110350" data-name="Trazado 110350" d="M371.16,3976.42l-2.664-3.14,2.56-2.766-2.5-3.2.694-.541,2.959,3.793-2.539,2.743,2.16,2.547Z" transform="translate(-76.329 -3714.719)" fill="#999"/>
      <path id="Trazado_110351" data-name="Trazado 110351" d="M375,3976.8l-2.664-3.14,2.56-2.766-2.5-3.2.694-.541,2.957,3.793-2.537,2.743,2.16,2.547Z" transform="translate(-75.665 -3714.653)" fill="#999"/>
      <path id="Trazado_110352" data-name="Trazado 110352" d="M356.435,3973.717l-2.663-3.14,2.558-2.766-2.5-3.2.694-.541,2.959,3.793-2.538,2.743,2.159,2.547Z" transform="translate(-78.872 -3715.186)" fill="#999"/>
      <path id="Trazado_110353" data-name="Trazado 110353" d="M352.942,3972.714l-2.664-3.14,2.56-2.766-2.5-3.2.694-.541,2.959,3.793-2.539,2.743,2.16,2.547Z" transform="translate(-79.476 -3715.359)" fill="#999"/>
      <path id="Trazado_110354" data-name="Trazado 110354" d="M350.06,3971.73l-2.664-3.14,2.558-2.766-2.5-3.2.694-.541,2.959,3.793-2.538,2.743,2.16,2.547Z" transform="translate(-79.974 -3715.529)" fill="#999"/>
      <path id="Trazado_110355" data-name="Trazado 110355" d="M360,3974.673l-2.664-3.14,2.56-2.766-2.5-3.2.694-.541,2.959,3.793-2.539,2.743,2.16,2.547Z" transform="translate(-78.256 -3715.021)" fill="#999"/>
      <path id="Trazado_110356" data-name="Trazado 110356" d="M363.849,3975.057l-2.664-3.139,2.56-2.767-2.5-3.2.694-.541,2.958,3.793-2.537,2.744,2.16,2.546Z" transform="translate(-77.592 -3714.955)" fill="#999"/>
      <path id="Trazado_110357" data-name="Trazado 110357" d="M378.64,3977.167l-2.663-3.14,2.558-2.766-2.5-3.2.694-.541,2.959,3.793-2.538,2.743,2.159,2.547Z" transform="translate(-75.037 -3714.59)" fill="#999"/>
      <path id="Trazado_110358" data-name="Trazado 110358" d="M382.2,3976.939l-2.664-3.141,2.56-2.767-2.5-3.2.694-.541,2.958,3.793-2.537,2.744,2.16,2.547Z" transform="translate(-74.422 -3714.629)" fill="#999"/>
      <path id="Trazado_110359" data-name="Trazado 110359" d="M411.674,3973.167l-2.715-2.413,2.034-2.48-2.447-2.361.612-.632,3.031,2.925-2.013,2.453,2.083,1.852Z" transform="translate(-69.411 -3714.976)" fill="#999"/>
      <path id="Trazado_110360" data-name="Trazado 110360" d="M408.766,3974.061l-2.714-2.413,2.034-2.481-2.447-2.361.612-.632,3.029,2.925-2.011,2.453,2.082,1.852Z" transform="translate(-69.913 -3714.822)" fill="#999"/>
      <path id="Trazado_110361" data-name="Trazado 110361" d="M406.076,3974.992l-3-2.585,2.26-2.672-2.739-2.566.6-.642,3.349,3.137-2.237,2.647,2.336,2.015Z" transform="translate(-70.438 -3714.761)" fill="#999"/>
      <path id="Trazado_110362" data-name="Trazado 110362" d="M414.028,3972.394l-2.4-2.318,1.795-2.382-2.16-2.27.637-.607,2.673,2.811-1.774,2.357,1.837,1.777Z" transform="translate(-68.941 -3715.056)" fill="#999"/>
      <path id="Trazado_110363" data-name="Trazado 110363" d="M364.512,4140.339l-.88-.006.97-149.158,1.744-58.564v-53.292h.88v53.3l-1.744,58.567Z" transform="translate(-77.169 -3729.824)" fill="#999"/>
      <path id="Trazado_110364" data-name="Trazado 110364" d="M343.367,4140.888l-.88-.028c.023-.752,2.374-75.751,3.246-108.081.841-31.09,10.429-41.49,11.659-42.7l1.109-7.015L332.789,3864.4l.86-.185,25.75,118.832-.014.081-1.17,7.394-.114.1c-.107.1-10.619,10.1-11.487,42.181C345.741,4065.135,343.389,4140.134,343.367,4140.888Z" transform="translate(-82.497 -3732.434)" fill="#999"/>
      <g id="Grupo_56703" data-name="Grupo 56703" transform="translate(249.202 131.776)">
        <rect id="Rectángulo_10428" data-name="Rectángulo 10428" width="0.879" height="1.172" transform="matrix(0.977, -0.212, 0.212, 0.977, 0, 0.186)" fill="#999"/>
        <path id="Trazado_110365" data-name="Trazado 110365" d="M342.483,4136.177l-.88-.028.073-2.349.88.028Zm.144-4.7-.88-.028.072-2.346.88.028Zm.144-4.691-.88-.028.072-2.345.88.029Zm.144-4.688-.88-.028.073-2.344.88.028Zm.143-4.688-.88-.028.073-2.344.88.028Zm.143-4.688-.88-.026.072-2.344.88.028Zm.144-4.687-.88-.026.072-2.344.88.027Zm.14-4.685-.88-.027.073-2.343.88.027Zm.144-4.687-.88-.024.072-2.344.88.027Zm.142-4.686-.88-.024.072-2.344.88.027Zm.142-4.685-.88-.024.07-2.344.88.027Zm.142-4.684-.88-.027.069-2.343.88.026Zm.141-4.687-.88-.028.069-2.347.88.026Zm.137-4.69-.88-.028.068-2.268.442-.059.437.083Zm.141-4.678-.88-.026.069-2.343.88.026Zm.138-4.687-.88-.025.069-2.343.88.025Zm.136-4.686-.88-.025.069-2.342.88.024Zm.138-4.687-.88-.025.068-2.342.88.024Zm.137-4.684-.88-.024.067-2.343.88.024Zm.134-4.685-.88-.027.068-2.342.88.025Zm.134-4.69-.88-.024.067-2.343.88.024Zm.132-4.687-.88-.025.065-2.343.88.023Zm.129-4.688-.88-.023.021-.764c.013-.532.03-1.061.05-1.582l.88.033c-.02.519-.038,1.042-.05,1.573Zm.177-4.669-.877-.048q.065-1.193.145-2.343l.877.062Q345.8,4027.2,345.731,4028.39Zm.332-4.655-.875-.078q.106-1.193.23-2.337l.875.094Q346.169,4022.552,346.062,4023.736Zm.505-4.637-.872-.112q.155-1.191.326-2.327l.871.133C346.778,4017.541,346.669,4018.312,346.568,4019.1Zm.7-4.607-.865-.152q.208-1.191.436-2.311l.861.174Q347.476,4013.315,347.268,4014.491Zm.923-4.566-.856-.2q.273-1.184.562-2.286l.85.223Q348.462,4008.756,348.191,4009.926Zm1.181-4.5-.843-.249c.231-.783.469-1.533.708-2.247l.834.279Q349.714,4004.266,349.372,4005.425Zm1.479-4.406-.823-.31q.438-1.165.882-2.189l.809.348C351.429,3999.54,351.138,4000.255,350.851,4001.019Zm1.835-4.257-.79-.387c.379-.771.748-1.467,1.1-2.094l.765.433C353.418,3995.326,353.055,3996.007,352.686,3996.762Zm2.287-4.016-.731-.488a22.815,22.815,0,0,1,1.421-1.918l.675.564A22.165,22.165,0,0,0,354.973,3992.746Zm2.416-4.086-.868-.138.365-2.312.868.137Zm.731-4.627-.868-.137.21-1.335-.174-.806.858-.186.211.966Zm-1.328-4.566-.5-2.29.86-.186.495,2.29Zm-.992-4.579-.5-2.289.86-.186.5,2.29Zm-.991-4.577-.5-2.288.858-.186.5,2.288Zm-.992-4.577-.5-2.288.86-.186.495,2.289Zm-.992-4.577-.5-2.289.86-.186.5,2.289Zm-.991-4.577-.5-2.288.858-.186.5,2.288Zm-.992-4.577-.5-2.288.858-.186.5,2.289Zm-.992-4.578-.495-2.288.86-.186.495,2.288Zm-.991-4.576-.495-2.289.858-.186.5,2.29Zm-.991-4.577-.5-2.288.858-.187.5,2.289Zm-.992-4.579-.5-2.288.86-.186.495,2.288Zm-.992-4.576-.5-2.29.86-.185.5,2.29Zm-.991-4.577-.5-2.288.858-.187.5,2.289Zm-.992-4.579-.5-2.288.858-.186.5,2.288Zm-.992-4.576-.5-2.29.86-.185.5,2.29Zm-.992-4.577-.495-2.289.858-.187.5,2.291Zm-.991-4.579-.5-2.288.858-.186.5,2.288Zm-.992-4.577-.5-2.289.86-.185.495,2.288Zm-.992-4.576-.495-2.289.858-.187.5,2.291Zm-.991-4.578-.5-2.289.858-.185.5,2.288Zm-.992-4.578-.5-2.288.86-.185.495,2.288Zm-.992-4.577-.5-2.288.86-.187.5,2.29Zm-.991-4.576-.5-2.29.858-.185.5,2.289Zm-.992-4.578-.5-2.288.858-.185.5,2.288Zm-.992-4.577-.5-2.288.86-.186.5,2.288Z" transform="translate(-331.75 -3863.705)" fill="#999"/>
        <rect id="Rectángulo_10429" data-name="Rectángulo 10429" width="1.169" height="0.88" transform="translate(9.748 275.857) rotate(-88.21)" fill="#999"/>
      </g>
      <g id="Grupo_56704" data-name="Grupo 56704" transform="translate(251.397 131.772)">
        <rect id="Rectángulo_10430" data-name="Rectángulo 10430" width="0.879" height="1.173" transform="translate(0 0.186) rotate(-12.232)" fill="#999"/>
        <path id="Trazado_110366" data-name="Trazado 110366" d="M344.449,4136.964l-.88-.025.069-2.356.88.026Zm.138-4.709-.88-.026.069-2.352.88.024Zm.136-4.706-.88-.025.069-2.352.88.025Zm.137-4.7-.88-.027.068-2.349.88.025Zm.136-4.7-.88-.025.068-2.352.88.026Zm.138-4.7-.88-.026.068-2.35.88.026Zm.136-4.7-.88-.024.068-2.35.88.025Zm.135-4.7-.88-.024.069-2.35.88.024Zm.137-4.7-.88-.024.068-2.351.88.025Zm.137-4.7-.88-.026.067-2.35.88.026Zm.135-4.7-.88-.026.068-2.35.88.026Zm.135-4.7-.88-.026.066-2.281.882-.043Zm.136-4.7-.88-.024.067-2.355.88.024Zm.134-4.706-.88-.024.067-2.348.88.024Zm.135-4.691-.88-.024.067-2.351.88.025Zm.135-4.7-.88-.025.067-2.35.88.026Zm.135-4.7-.88-.026.066-2.349.88.026Zm.133-4.7-.88-.025.066-2.35.88.026Zm.13-4.7-.88-.024.067-2.35.88.024Zm.133-4.7-.88-.025.066-2.35.88.025Zm.131-4.7-.88-.023.064-2.35.88.026Zm.131-4.7-.88-.023.064-2.351.88.023Zm.127-4.7-.88-.023.068-2.351.88.029Zm.167-4.683-.877-.045q.062-1.2.138-2.351l.877.06Q347.637,4027.676,347.576,4028.866Zm.317-4.671-.877-.075q.1-1.2.223-2.344l.875.091C348.033,4022.627,347.958,4023.4,347.892,4024.2Zm.488-4.652-.874-.11q.151-1.2.319-2.333l.87.128C348.584,4017.979,348.481,4018.753,348.38,4019.543Zm.685-4.624-.868-.149q.2-1.191.427-2.317l.863.169Q349.266,4013.739,349.065,4014.919Zm.9-4.582-.858-.192q.266-1.191.55-2.3l.853.217C350.327,4008.8,350.144,4009.552,349.969,4010.337Zm1.156-4.521-.844-.246q.343-1.178.7-2.257l.836.274Q351.464,4004.654,351.125,4005.816Zm1.454-4.427-.824-.307q.435-1.168.87-2.2l.81.341Q353.008,4000.24,352.58,4001.389Zm1.811-4.288-.793-.38c.369-.773.735-1.474,1.086-2.11l.769.426C355.109,3995.659,354.753,3996.345,354.39,3997.1Zm2.252-4.053-.736-.479c.462-.714.931-1.368,1.391-1.944l.687.55C357.54,3991.729,357.09,3992.359,356.642,3993.049Zm2.56-4.038-.868-.137.367-2.319.869.137Zm.734-4.64-.868-.137.264-1.678-.1-.474.858-.185.138.634Zm-1.2-4.584-.5-2.295.858-.186.5,2.3Zm-1-4.59-.5-2.295.86-.185.5,2.295Zm-.994-4.59-.5-2.3.858-.185.5,2.295Zm-.993-4.59-.5-2.3.858-.185.5,2.295Zm-1-4.59-.5-2.295.86-.186.5,2.3Zm-.995-4.59-.5-2.295.858-.185.5,2.295Zm-.994-4.59-.5-2.295.858-.186.5,2.295Zm-.994-4.59-.5-2.3.86-.187.5,2.3Zm-.995-4.591-.5-2.295.858-.187.5,2.295Zm-.994-4.59-.5-2.295.858-.187.5,2.3Zm-1-4.59-.5-2.3.86-.185.5,2.295Zm-.993-4.591-.5-2.295.858-.186.5,2.295Zm-.995-4.59-.5-2.3.86-.185.5,2.295Zm-1-4.59-.5-2.295.86-.186.5,2.3Zm-.993-4.59-.5-2.295.858-.185.5,2.295Zm-1-4.59-.5-2.295.86-.186.5,2.3Zm-.994-4.59-.5-2.295.858-.186.5,2.295Zm-.995-4.59-.5-2.295.858-.185.5,2.295Zm-.994-4.59-.5-2.3.86-.185.5,2.295Zm-1-4.591-.5-2.295.858-.186.5,2.295Zm-.993-4.59-.5-2.3.858-.185.5,2.295Zm-.995-4.59-.5-2.295.86-.186.5,2.3Zm-1-4.59-.5-2.295.858-.185.5,2.295Zm-.993-4.59-.5-2.295.858-.186.5,2.3Zm-1-4.59-.5-2.295.86-.187.5,2.295Z" transform="translate(-333.621 -3863.7)" fill="#999"/>
        <rect id="Rectángulo_10431" data-name="Rectángulo 10431" width="1.169" height="0.88" transform="translate(9.847 276.654) rotate(-88.21)" fill="#999"/>
      </g>
      <path id="Trazado_110367" data-name="Trazado 110367" d="M332.451,3873.361c-6.91,0-12.531-12.173-12.531-27.135s5.621-27.132,12.531-27.132,12.529,12.17,12.529,27.132S339.359,3873.361,332.451,3873.361Zm0-53.387c-6.424,0-11.651,11.778-11.651,26.252s5.227,26.255,11.651,26.255,11.65-11.778,11.65-26.255S338.874,3819.973,332.451,3819.973Z" transform="translate(-84.72 -3740.227)" fill="#999"/>
      <path id="Trazado_110368" data-name="Trazado 110368" d="M325.439,3896.05l-.285-.832c15.179-5.185,23.911-8.887,24-8.924.3-.125,29.848-11.964,54.1-8.686l19.976,4.069-.176.861-19.947-4.062c-24.006-3.239-53.325,8.511-53.621,8.63C349.41,3887.141,340.65,3890.854,325.439,3896.05Z" transform="translate(-83.815 -3730.219)" fill="#999"/>
      <path id="Trazado_110369" data-name="Trazado 110369" d="M439.32,3885.311l5.429-1.423.97,1.423,1.938-.453s.259-4.331-1.55-5.623h-1.487l-.323,2.2-5.3,2.327-.9.775.141.776Z" transform="translate(-64.308 -3729.839)" fill="#999"/>
      <path id="Trazado_110370" data-name="Trazado 110370" d="M408.1,4158.294h-.016a.586.586,0,0,1-.57-.6c.035-1.167,3.325-117.078-2.206-135.006-5.59-18.122-3.92-41.669-3.9-41.9l6.6-54.321c.022-.3,2.483-32.483,1.058-47.768-.457-4.9-1.494-10.991-2.589-17.437-2.357-13.858-5.291-31.1-4.094-46.263l3.3-28.464a.587.587,0,0,1,1.166.135l-3.294,28.442c-1.183,14.993,1.737,32.16,4.083,45.955,1.1,6.466,2.139,12.576,2.6,17.523,1.433,15.385-1.034,47.67-1.06,48l-6.6,54.317c-.014.206-1.668,23.538,3.857,41.445,5.588,18.112,2.4,130.606,2.259,135.386A.587.587,0,0,1,408.1,4158.294Z" transform="translate(-70.687 -3745.942)" fill="#4d4d4d"/>
      <g id="Grupo_56705" data-name="Grupo 56705" transform="translate(339.245 151.458)">
        <path id="Trazado_110371" data-name="Trazado 110371" d="M443.129,3885.644s-28.055-3.059-34.418-4.282" transform="translate(-408.628 -3880.929)" fill="#fff"/>
        <path id="Trazado_110372" data-name="Trazado 110372" d="M443.095,3886.146c-.281-.032-28.147-3.076-34.455-4.29l.167-.863c6.273,1.207,34.1,4.248,34.384,4.277Z" transform="translate(-408.64 -3880.993)" fill="#999"/>
      </g>
      <path id="Trazado_110373" data-name="Trazado 110373" d="M402.171,3971.368l4.015-3.922,1.546.756,1.461-1.352s-1.917-3.891-4.13-4.12l-1.291.735.806,2.07-3.455,4.644-.4,1.122.507.6Z" transform="translate(-70.763 -3715.417)" fill="#666"/>
      <path id="Trazado_110374" data-name="Trazado 110374" d="M386.88,3971.222l2.078-5.214,1.72.064.787-1.83s-3.333-2.778-5.447-2.088l-.882,1.2,1.577,1.564-1.274,5.647.088,1.188.708.347Z" transform="translate(-73.455 -3715.535)" fill="#666"/>
      <path id="Trazado_110375" data-name="Trazado 110375" d="M404.854,3881.7l2.078-5.212,1.72.063.787-1.83s-3.332-2.778-5.446-2.088l-.883,1.2,1.577,1.564-1.274,5.647.088,1.189.708.346Z" transform="translate(-70.35 -3730.999)" fill="#666"/>
      <path id="Trazado_110376" data-name="Trazado 110376" d="M405.309,3821.889l3.735-4.189,1.594.647L412,3816.9s-2.182-3.75-4.4-3.824l-1.238.823.948,2.009-3.127,4.872-.324,1.147.548.567Z" transform="translate(-70.221 -3741.267)" fill="#666"/>
      <path id="Trazado_110377" data-name="Trazado 110377" d="M405.309,3822.561l3.735,4.189,1.594-.647,1.365,1.451s-2.182,3.749-4.4,3.824l-1.238-.823.948-2.009-3.127-4.872-.324-1.147.548-.567Z" transform="translate(-70.221 -3739.732)" fill="#666"/>
      <path id="Trazado_110378" data-name="Trazado 110378" d="M386.534,3878.151l3.777-4.15,1.588.664,1.379-1.437s-2.144-3.771-4.366-3.869l-1.245.81.926,2.02-3.176,4.838-.337,1.144.542.574Z" transform="translate(-73.464 -3731.544)" fill="#666"/>
      <path id="Trazado_110379" data-name="Trazado 110379" d="M358.346,3880.718l-3.777-4.151-1.588.664L351.6,3875.8s2.144-3.773,4.365-3.87l1.247.81-.926,2.018,3.176,4.84.337,1.143-.542.574Z" transform="translate(-79.247 -3731.102)" fill="#666"/>
      <path id="Trazado_110380" data-name="Trazado 110380" d="M334.99,3874.672l-3.777-4.152-1.588.664-1.379-1.436s2.144-3.772,4.365-3.87l1.247.811-.926,2.019,3.176,4.84.337,1.143-.542.574Z" transform="translate(-83.281 -3732.146)" fill="#666"/>
      <path id="Trazado_110381" data-name="Trazado 110381" d="M337.658,3873.786l3.777-4.151,1.587.664,1.38-1.437s-2.144-3.771-4.366-3.869l-1.245.811.926,2.019-3.176,4.84-.337,1.144.542.572Z" transform="translate(-81.907 -3732.299)" fill="#666"/>
      <path id="Trazado_110382" data-name="Trazado 110382" d="M334.99,3889.886l-3.777-4.151-1.588.664-1.379-1.437s2.144-3.771,4.365-3.869l1.247.81-.926,2.019,3.176,4.84.337,1.143-.542.573Z" transform="translate(-83.281 -3729.518)" fill="#666"/>
      <path id="Trazado_110383" data-name="Trazado 110383" d="M359,3883.8l-3.777,4.151-1.588-.664-1.379,1.435s2.144,3.773,4.365,3.87l1.247-.81-.926-2.018,3.176-4.84.335-1.143-.541-.572Z" transform="translate(-79.135 -3729.153)" fill="#666"/>
      <path id="Trazado_110384" data-name="Trazado 110384" d="M335.96,3890.174l-3.777,4.151-1.588-.665-1.379,1.436s2.143,3.772,4.365,3.87l1.247-.81-.926-2.02,3.176-4.839.335-1.143-.542-.574Z" transform="translate(-83.114 -3728.051)" fill="#666"/>
      <path id="Trazado_110385" data-name="Trazado 110385" d="M386.148,3878.594l3.777,4.151,1.588-.664,1.379,1.436s-2.143,3.771-4.365,3.87l-1.247-.81.926-2.02-3.176-4.839-.335-1.144.541-.573Z" transform="translate(-73.531 -3730.052)" fill="#666"/>
      <path id="Trazado_110386" data-name="Trazado 110386" d="M405.127,3882.593l2.078,5.214,1.719-.063.787,1.83s-3.332,2.778-5.446,2.088l-.883-1.2,1.577-1.564-1.272-5.647.087-1.189.708-.346Z" transform="translate(-70.303 -3729.41)" fill="#666"/>
      <path id="Trazado_110387" data-name="Trazado 110387" d="M369.923,3971.693l4.146-3.784,1.519.808,1.507-1.3s-1.785-3.954-3.988-4.258l-1.316.692.735,2.1-3.61,4.525-.441,1.106.486.622Z" transform="translate(-76.333 -3715.343)" fill="#666"/>
      <path id="Trazado_110388" data-name="Trazado 110388" d="M361.631,3969.756l4.146-3.783,1.52.808,1.507-1.3s-1.785-3.955-3.988-4.257l-1.316.69.735,2.1-3.611,4.524-.44,1.108.486.62Z" transform="translate(-77.765 -3715.677)" fill="#666"/>
      <path id="Trazado_110389" data-name="Trazado 110389" d="M353.567,3967.411l-4.146-3.783-1.52.809-1.506-1.3s1.784-3.953,3.987-4.257l1.316.69-.735,2.1,3.611,4.525.44,1.107-.486.62Z" transform="translate(-80.146 -3716.082)" fill="#666"/>
      <path id="Trazado_110390" data-name="Trazado 110390" d="M401.834,3975.859l4.523,3.322-.494,1.649,1.573,1.221s3.526-2.526,3.39-4.746l-.936-1.155-1.91,1.133-5.145-2.651-1.173-.215-.514.6Z" transform="translate(-70.689 -3713.398)" fill="#666"/>
      <path id="Trazado_110391" data-name="Trazado 110391" d="M394.4,3980.056l4.524,3.321-.495,1.649,1.573,1.222s3.528-2.527,3.392-4.747l-.936-1.154-1.912,1.133-5.145-2.651-1.173-.215-.512.6Z" transform="translate(-71.972 -3712.673)" fill="#666"/>
      <path id="Trazado_110392" data-name="Trazado 110392" d="M358.841,3893.941l-1.17-.068c.04-.681,3.994-68.36,6.262-85.963l1.163.149C362.833,3825.622,358.881,3893.26,358.841,3893.941Z" transform="translate(-78.199 -3742.159)" fill="#999"/>
      <g id="Grupo_56707" data-name="Grupo 56707" transform="translate(282.386 307.079)">
        <path id="Trazado_110393" data-name="Trazado 110393" d="M363.945,4028.478a.585.585,0,0,1-.586-.586v-8.142a.586.586,0,1,1,1.173,0v8.142A.586.586,0,0,1,363.945,4028.478Z" transform="translate(-359.602 -4012.748)" fill="#4d4d4d"/>
        <g id="Grupo_56706" data-name="Grupo 56706" transform="translate(0)">
          <path id="Trazado_110394" data-name="Trazado 110394" d="M368.841,4023.988l-4.343-1.845-4.343,1.845,4.343-10.295Z" transform="translate(-360.155 -4013.693)" fill="#4d4d4d"/>
        </g>
      </g>
      <g id="Grupo_56708" data-name="Grupo 56708" transform="translate(232.701 36.814)" opacity="0.71">
        <path id="Trazado_110395" data-name="Trazado 110395" d="M360.646,3815.417s2.309-.129,8.581-2.432c6.228-2.289,7.179-3.531,7.179-3.531a3.78,3.78,0,0,0,1.168-3c.138-6.134.4-8.642.4-8.642l1.683-4.13s7.649-12.467,9.484-9.484c3.925,6.38,3.124,5.237,4.741,9.33s.69,9.157.969,11.626c.171,1.52-4.551,20.208-2.931,15.856,3.569-9.586,5.149-4.843,5.149-4.843a33.542,33.542,0,0,0-.45,4.945c.083,1.633,6.62-4,6.62-1.886s.561,2.6,2.192,3.008,1.377.561,1.479,3.156,2.737-.046,4.148-1.27,4.7-3.671,4.995-3.467,3.071-.714,4.18.918-1.668,5.531-1.249,11.739,2.458,23.85,2.458,23.85l1.727,19.07s1.635,29.2.923,40.35S417.3,3973,417.3,3973s-2.316,24.147-1.845,27.578c0,0,.167,5.981,1.288,9.039a20.2,20.2,0,0,0,3.06,5.374s-2.388,4.1-5.833,4.154c0,0-2.528-4.224-5.384-5.041,0,0,.676,27.739,1.255,33.755v5.711s1.624,8.361-1.051,8.667-4.977.816-4.977.816-5.833,1.326-6.444.509-5.337-.917-6.85-.917-4.761-.2-4.761-.2-5.185,2.039-6.822,1.529-4.366-1.249-4.187-2.982c.106-1.015,1.519-4.18,2.674-6.635a17.6,17.6,0,0,0,1.659-6.793l.145-3.651c-.247-1.66-.224-4.28-.929-13.793-.647-8.722-.728-19.886-.728-19.886s-3.152,11.416-5.673,16.111c-3.234,6.025-21.62,27.535-21.62,27.535s12.371-1.835,10.026,2.651-3.318,5.3-3.318,5.3-2.243,2.3-7.853-1.937a13.742,13.742,0,0,1-3.671-3.977,81.246,81.246,0,0,0-8.159-3.264c-4.724-1.624-7.545-1.223-8.158-1.937s-1.122-1.835-2.754-1.835-1.02-4.284.918-4.9,11.466-22.185,11.466-22.185,10.81-18.6,11.5-19.47.449-8.716.224-9.484-5.295-4.975-8.251-10.788-13.69-36.635-13.69-36.635-1.291-20.535-2.084-27.279c-.488-4.16-6.405-19.374-6.405-19.374s-3.784-18.153-.306-30.442c2.294-8.107.871-25.085.871-25.085s0-9.28,5.7-13.565c0,0-6.931-1.74-4.125-4.286s14.687-5.376,17.023-5.349c2.9.035,9.063-1.411,10.816-1.9C354.44,3816.917,360.646,3815.417,360.646,3815.417Z" transform="translate(-317.701 -3783.149)" fill="#ccc"/>
        <path id="Trazado_110396" data-name="Trazado 110396" d="M379.671,4064.717a2.8,2.8,0,0,1-.816-.1l-.267-.083c-1.811-.558-4.548-1.4-4.327-3.522.033-.326.135-1.319,2.725-6.823a16.935,16.935,0,0,0,1.6-6.567l.147-3.651c-.118-.716-.175-1.77-.28-3.681-.114-2.042-.284-5.126-.649-10.047-.407-5.48-.59-11.978-.671-16.027-1.147,3.776-3,9.456-4.629,12.487-2.832,5.277-16.822,21.9-20.71,26.489,2.734-.29,7.812-.55,9.139,1.314a2.147,2.147,0,0,1-.02,2.378c-2.333,4.463-3.352,5.39-3.461,5.48-.062.068-2.628,2.577-8.582-1.918a14.805,14.805,0,0,1-3.734-3.993,83.945,83.945,0,0,0-7.932-3.161,28.837,28.837,0,0,0-5.942-1.343c-1.281-.175-2.055-.28-2.471-.768-.113-.132-.222-.275-.334-.424a2.259,2.259,0,0,0-1.974-1.206c-.781,0-1.336-.577-1.485-1.542-.229-1.475.525-3.961,2.226-4.5,1.175-.622,6.577-11.6,11.107-21.862,1.138-1.966,10.881-18.72,11.578-19.6.495-.832.337-8.165.12-8.957a17.278,17.278,0,0,0-1.249-1.4,40.993,40.993,0,0,1-6.962-9.286c-2.941-5.783-13.282-35.447-13.722-36.709a.634.634,0,0,1-.03-.155c-.013-.206-1.3-20.6-2.082-27.247-.474-4.041-6.31-19.078-6.369-19.229-.183-.841-3.8-18.528-.325-30.815,2.24-7.914.867-24.709.853-24.878,0-.417.059-8.737,5.065-13.359-1.453-.477-3.742-1.449-4.109-2.913a2.039,2.039,0,0,1,.81-2.061c2.962-2.687,15-5.5,17.39-5.5h.136c2.87,0,8.8-1.392,10.549-1.878,4.345-1.214,10.549-2.715,10.612-2.73a.8.8,0,0,1,.1-.014c.023,0,2.347-.17,8.412-2.4,5.82-2.137,6.886-3.305,6.93-3.353a.758.758,0,0,1,.109-.1,3.284,3.284,0,0,0,.925-2.54c.137-6.089.388-8.587.4-8.69a.587.587,0,0,1,.04-.161l1.683-4.13c1.091-1.792,6.456-10.308,9.255-10.31h0a1.459,1.459,0,0,1,1.27.74c3.189,5.18,3.288,5.448,4.067,7.537.183.492.406,1.089.72,1.885,1.16,2.936,1.064,6.253.986,8.92a23.064,23.064,0,0,0,.019,2.855c.086.754-.636,4.091-1.835,9.5-.174.781-.353,1.589-.523,2.366.957-1.721,1.865-2.545,2.772-2.545h.026c1.2.021,1.7,1.415,1.754,1.573a.594.594,0,0,1,.022.279,37.022,37.022,0,0,0-.453,4.516,17.2,17.2,0,0,0,2.188-1.134c1.956-1.123,3.192-1.786,3.959-1.344a1.006,1.006,0,0,1,.482.929c0,1.805.353,2.09,1.747,2.438,1.77.444,1.853.942,1.9,2.776.006.269.014.575.028.928.016.438.114.546.115.547.42.091,2.005-1.3,2.6-1.832l.461-.406c.752-.654,4.355-3.752,5.533-3.572l0-.008a3.308,3.308,0,0,0,.474-.034c1.059-.109,3.026-.3,4.034,1.179.663.978.311,2.341-.179,4.226a23.469,23.469,0,0,0-.97,7.8c.413,6.122,2.436,23.646,2.456,23.822l1.729,19.084c.018.313,1.63,29.386.924,40.441-.706,11.04-6.727,56-6.789,56.457-.021.219-2.3,24.1-1.844,27.421.007.123.182,5.984,1.257,8.918a19.777,19.777,0,0,0,2.959,5.2.585.585,0,0,1,.056.672c-.1.178-2.6,4.381-6.329,4.444a.561.561,0,0,1-.514-.286c-.021-.037-1.987-3.278-4.272-4.465.121,4.8.717,27.5,1.231,32.821v5.768c.118.552,1.207,6.434-.293,8.481a1.824,1.824,0,0,1-1.277.769c-2.612.3-4.894.8-4.917.806-4.113.934-6.483,1.032-7.041.289-.344-.33-2.83-.684-6.38-.684-1.36,0-4.041-.158-4.67-.2C385.133,4063.431,381.681,4064.717,379.671,4064.717Zm-2.008-54.991a.51.51,0,0,1,.076,0,.588.588,0,0,1,.51.577c0,.112.088,11.246.727,19.846.366,4.932.536,8.024.649,10.069.1,1.876.16,2.91.276,3.684l-.14,3.761a18.119,18.119,0,0,1-1.716,7.019c-2.261,4.8-2.585,6.107-2.62,6.444-.121,1.164,2.151,1.864,3.506,2.28l.27.084c1.053.334,4.5-.757,6.434-1.515a.51.51,0,0,1,.251-.041c.032,0,3.247.2,4.725.2,2.945,0,6.6.2,7.319,1.154.448.228,3.4-.176,5.846-.729.1-.022,2.364-.523,5.039-.828a.632.632,0,0,0,.464-.3c.9-1.231.527-5.362.077-7.675l-.011-5.824c-.573-5.912-1.248-33.461-1.255-33.74a.588.588,0,0,1,.748-.578c2.608.745,4.873,3.978,5.535,5,2.376-.239,4.2-2.624,4.8-3.512a20.8,20.8,0,0,1-2.892-5.208c-1.14-3.114-1.316-8.976-1.322-9.225-.473-3.395,1.752-26.662,1.846-27.65.063-.474,6.079-45.4,6.783-56.4.7-10.985-.907-39.988-.923-40.279l-1.726-19.051c-.018-.161-2.044-17.712-2.459-23.863a24.476,24.476,0,0,1,1.005-8.177c.4-1.528.71-2.734.344-3.272-.616-.905-2.073-.76-2.947-.672a2.975,2.975,0,0,1-.8.021,32.885,32.885,0,0,0-4.554,3.314l-.449.4c-1.58,1.4-2.865,2.444-3.855,2.024-.508-.214-.781-.745-.814-1.571-.014-.359-.021-.672-.028-.945-.033-1.421-.033-1.421-1.007-1.665-1.759-.44-2.611-1.077-2.635-3.466a13.677,13.677,0,0,0-2.686,1.322c-1.838,1.054-2.825,1.591-3.492,1.228a.87.87,0,0,1-.442-.745,32.078,32.078,0,0,1,.432-4.91c-.116-.262-.359-.65-.615-.652h0c-.222,0-1.386.283-3.379,5.635-.226.61-.451,1.187-1.032,1.012-.692-.2-.692-.2,1.014-7.9.793-3.572,1.879-8.466,1.815-9.112a23.654,23.654,0,0,1-.026-3.021c.074-2.559.167-5.743-.9-8.456-.318-.8-.543-1.409-.729-1.907-.742-1.994-.839-2.25-3.966-7.333-.1-.167-.188-.181-.271-.181-1.576,0-5.751,5.652-8.214,9.665l-1.607,3.964c-.045.477-.264,3.077-.386,8.516a4.482,4.482,0,0,1-1.349,3.414c-.3.322-1.751,1.586-7.382,3.655-5.817,2.138-8.281,2.428-8.691,2.463-.573.139-6.4,1.555-10.525,2.708-1.81.5-8.046,1.971-10.981,1.921h-.029c-2.173,0-13.941,2.792-16.593,5.2-.561.508-.486.809-.461.908.236.945,2.676,1.958,4.334,2.375a.585.585,0,0,1,.21,1.037c-5.4,4.063-5.467,13.006-5.467,13.1.056.648,1.4,17.13-.894,25.247-3.4,12.007.278,29.982.315,30.163.216.531,5.923,15.238,6.416,19.425.759,6.469,1.99,25.815,2.08,27.23.595,1.705,10.8,30.913,13.632,36.486a40.039,40.039,0,0,0,6.771,9.015c1.051,1.116,1.418,1.52,1.521,1.873.188.639.6,8.842-.327,10.012-.488.616-7.117,11.94-11.454,19.4-2.231,5.061-9.764,21.807-11.8,22.449-.941.3-1.6,2.056-1.42,3.2.03.205.116.549.326.549a3.387,3.387,0,0,1,2.907,1.67c.1.129.193.256.292.369a5.745,5.745,0,0,0,1.738.37,30.3,30.3,0,0,1,6.164,1.4,82.825,82.825,0,0,1,8.224,3.291.588.588,0,0,1,.26.251,13.361,13.361,0,0,0,3.508,3.785c5.052,3.813,7.068,2.008,7.089,1.989.063-.059,1-.932,3.207-5.156.393-.752.176-1.056.1-1.157-.911-1.283-6.117-1.148-9.523-.644a.6.6,0,0,1-.6-.3.586.586,0,0,1,.068-.665c.183-.215,18.38-21.531,21.549-27.433,2.459-4.583,5.592-15.875,5.622-15.989A.587.587,0,0,1,377.663,4009.727Z" transform="translate(-317.789 -3783.235)" fill="#4d4d4d"/>
      </g>
      <path id="Trazado_110397" data-name="Trazado 110397" d="M384.679,3824.879c-1.172,0-2.327-1.329-2.482-1.514h0s-13.126-13.583-13.717-14.194a.878.878,0,0,1-.246-.672c.04-.994,1.778-2.621,2.524-3.275,5.086-6.353,10.195-18.44,10.246-18.562a.586.586,0,0,1,1.081.454c-.211.5-5.223,12.36-10.484,18.916a10.277,10.277,0,0,0-2.173,2.434c1.387,1.434,13.64,14.116,13.64,14.116.517.614,1.414,1.319,1.777,1.071a.586.586,0,0,1,.666.964A1.425,1.425,0,0,1,384.679,3824.879Z" transform="translate(-76.374 -3745.891)" fill="#4d4d4d"/>
      <path id="Trazado_110398" data-name="Trazado 110398" d="M389.726,3824.86a.587.587,0,0,1-.571-.454c-.566-2.431-2.128-2.322-2.315-2.3a.605.605,0,0,1-.65-.51.582.582,0,0,1,.5-.653c.97-.128,2.947.372,3.61,3.2a.587.587,0,0,1-.439.7A.61.61,0,0,1,389.726,3824.86Z" transform="translate(-73.274 -3739.911)" fill="#4d4d4d"/>
      <path id="Trazado_110399" data-name="Trazado 110399" d="M399.139,3825.15a8.79,8.79,0,0,1-1.758-.177.586.586,0,0,1-.446-.7.594.594,0,0,1,.7-.446c.691.152,2.708.373,3.716-.422a.586.586,0,1,1,.727.92A4.793,4.793,0,0,1,399.139,3825.15Z" transform="translate(-71.419 -3739.504)" fill="#4d4d4d"/>
      <path id="Trazado_110400" data-name="Trazado 110400" d="M343.885,3834.757a.587.587,0,0,1-.581-.515c-1.1-8.91-5.144-12.575-5.185-12.611a.586.586,0,0,1,.773-.882c.179.157,4.415,3.956,5.575,13.349a.587.587,0,0,1-.51.654A.532.532,0,0,1,343.885,3834.757Z" transform="translate(-81.61 -3739.966)" fill="#4d4d4d"/>
      <g id="Grupo_56709" data-name="Grupo 56709" transform="translate(204.843 78.963)" opacity="0.81">
        <path id="Trazado_110401" data-name="Trazado 110401" d="M330.585,3825.189a5.232,5.232,0,0,0-3.041-3.837,4.005,4.005,0,0,0-4.435-1.465c-2.754.932-7.5,7.176-7.5,7.176l-6.424,7.267-7.495,7.758s-2.448,4.735-3.366,5.346a9.22,9.22,0,0,0-3.212,3.212c-.612,1.377-.918,2.753,0,3.213s2.447-1.683,3.824-1.989,7.189-1.529,9.025.458,3.671,4.589,7.495,5.049a56.793,56.793,0,0,0,9.285,0s-2.4-11.167.2-18.2S330.585,3825.189,330.585,3825.189Z" transform="translate(-293.947 -3819.09)" fill="#999"/>
        <path id="Trazado_110402" data-name="Trazado 110402" d="M319.67,3858.255a36.409,36.409,0,0,1-4.193-.21c-3.576-.429-5.493-2.583-7.184-4.484-.228-.255-.449-.507-.673-.749-1.037-1.125-4.2-1.232-8.466-.284a5.167,5.167,0,0,0-1.637,1c-.854.667-1.739,1.352-2.576.937-1.109-.553-1.2-1.892-.274-3.974a9.128,9.128,0,0,1,3.423-3.462c.489-.328,2.026-2.917,3.169-5.13a.635.635,0,0,1,.1-.138l7.5-7.756,6.405-7.249c.17-.227,4.857-6.366,7.747-7.342a4.538,4.538,0,0,1,5.009,1.554,5.781,5.781,0,0,1,3.24,4.236.6.6,0,0,1-.046.3c-.03.07-3.066,7.016-5.629,13.953-2.511,6.794-.2,17.768-.176,17.878a.587.587,0,0,1-.524.707C324.731,3858.06,322.365,3858.255,319.67,3858.255Zm-15.514-7.535c1.775,0,3.423.32,4.326,1.3.228.245.455.5.687.763,1.629,1.831,3.314,3.725,6.448,4.1a52.838,52.838,0,0,0,8.509.045c-.477-2.537-1.94-11.664.354-17.87,2.358-6.384,5.114-12.772,5.585-13.857a4.688,4.688,0,0,0-2.684-3.232.578.578,0,0,1-.23-.195,3.4,3.4,0,0,0-3.768-1.244c-2.118.715-5.927,5.278-7.217,6.976l-6.451,7.3-7.454,7.714c-.5.965-2.555,4.845-3.521,5.489a7.844,7.844,0,0,0-3,2.962c-.589,1.325-.691,2.24-.273,2.45.176.08.986-.544,1.331-.812a5.791,5.791,0,0,1,2.1-1.226A25.541,25.541,0,0,1,304.156,3850.72Z" transform="translate(-294.034 -3819.176)" fill="#4d4d4d"/>
      </g>
      <g id="Grupo_56713" data-name="Grupo 56713" transform="translate(319.045)">
        <g id="Grupo_56710" data-name="Grupo 56710" transform="translate(1.512)">
          <path id="Trazado_110403" data-name="Trazado 110403" d="M398.089,3769.423v10.472a5.281,5.281,0,0,0,4.815.355l.1-10.827a8.4,8.4,0,0,0,6.334-8.338s.905-9.243-8.4-8.854-7.755,11.116-7.755,11.116S394.858,3768.777,398.089,3769.423Z" transform="translate(-392.64 -3751.779)" fill="#fff"/>
          <path id="Trazado_110404" data-name="Trazado 110404" d="M400.9,3781.174a5.564,5.564,0,0,1-2.993-.855l-.188-.131V3769.83c-3.214-.974-4.825-6.064-4.894-6.288-.047-.29-.769-5.549,2.052-8.948a7.98,7.98,0,0,1,6.106-2.739c2.884-.115,5.124.644,6.661,2.27,2.589,2.738,2.214,6.892,2.2,7.067a8.78,8.78,0,0,1-6.336,8.628l-.1,10.79-.27.112A5.882,5.882,0,0,1,400.9,3781.174Zm-2.3-1.463a4.811,4.811,0,0,0,3.937.3l.1-10.871.338-.079a7.9,7.9,0,0,0,5.994-7.906c0-.084.349-3.986-1.964-6.428-1.354-1.431-3.365-2.1-5.981-1.991a7.146,7.146,0,0,0-5.464,2.418c-2.572,3.1-1.883,8.146-1.876,8.2h0c.006,0,1.632,5.121,4.564,5.708l.354.072Z" transform="translate(-392.705 -3751.843)" fill="#999"/>
        </g>
        <g id="Grupo_56711" data-name="Grupo 56711" transform="translate(0 4.311)">
          <rect id="Rectángulo_10432" data-name="Rectángulo 10432" width="19.011" height="3.261" rx="1.209" transform="translate(0.587 0.587)" fill="#fff"/>
          <path id="Trazado_110405" data-name="Trazado 110405" d="M409.6,3759.953H393.419a2.007,2.007,0,0,1-2-2v-.426a2.007,2.007,0,0,1,2-2H409.6a2.006,2.006,0,0,1,2,2v.426A2.006,2.006,0,0,1,409.6,3759.953Zm-16.177-3.261a.834.834,0,0,0-.831.832v.426a.834.834,0,0,0,.831.832H409.6a.832.832,0,0,0,.83-.832v-.426a.832.832,0,0,0-.83-.832Z" transform="translate(-391.415 -3755.519)" fill="#999"/>
        </g>
        <g id="Grupo_56712" data-name="Grupo 56712" transform="translate(0 10.429)">
          <rect id="Rectángulo_10433" data-name="Rectángulo 10433" width="19.011" height="3.261" rx="1.209" transform="translate(0.587 0.587)" fill="#fff"/>
          <path id="Trazado_110406" data-name="Trazado 110406" d="M409.6,3765.17H393.419a2.006,2.006,0,0,1-2-2v-.426a2.007,2.007,0,0,1,2-2H409.6a2.006,2.006,0,0,1,2,2v.426A2.005,2.005,0,0,1,409.6,3765.17Zm-16.177-3.261a.834.834,0,0,0-.831.832v.426a.833.833,0,0,0,.831.832H409.6a.831.831,0,0,0,.83-.832v-.426a.832.832,0,0,0-.83-.832Z" transform="translate(-391.415 -3760.736)" fill="#999"/>
        </g>
      </g>
      <g id="Grupo_56714" data-name="Grupo 56714" transform="translate(264.696 263.614)" opacity="0.81">
        <path id="Trazado_110407" data-name="Trazado 110407" d="M373.134,3977.128s-6.055,26.36-10.458,34.544-7.079,11.447-7.079,11.447,2.519-4.589-10.026-2.651C345.571,4020.467,371.093,3992.933,373.134,3977.128Z" transform="translate(-344.985 -3976.544)" fill="#999"/>
        <path id="Trazado_110408" data-name="Trazado 110408" d="M355.682,4023.792a.6.6,0,0,1-.328-.1.587.587,0,0,1-.185-.768,1.2,1.2,0,0,0-.052-1.177c-.4-.559-2.117-1.731-9.369-.612a.587.587,0,0,1-.521-.978c.232-.25,21.1-22.9,26.349-38.6.658-2.676,1.057-4.406,1.072-4.474a.594.594,0,0,1,.674-.444.585.585,0,0,1,.478.652,25,25,0,0,1-1.087,4.575c-1.942,7.924-6.113,24-9.436,30.173-4.381,8.14-7.031,11.406-7.142,11.54A.589.589,0,0,1,355.682,4023.792Zm-4.718-4.306c2.683,0,4.371.53,5.119,1.6a2.156,2.156,0,0,1,.191.328,102.251,102.251,0,0,0,5.97-9.931c2.409-4.475,5.35-14.584,7.49-22.692-6.538,12.711-18.787,26.773-22.552,30.961A31.619,31.619,0,0,1,350.964,4019.486Z" transform="translate(-345.071 -3976.63)" fill="#4d4d4d"/>
      </g>
    </g>
  </g>
</svg>
