<svg xmlns="http://www.w3.org/2000/svg" width="485.429" height="499.454" viewBox="0 0 485.429 499.454">
  <g id="Grupo_56691" data-name="Grupo 56691" transform="translate(-294.811 -3705.392)">
    <rect id="Rectángulo_10402" data-name="Rectángulo 10402" width="485.429" height="499.455" rx="20.602" transform="translate(294.811 3705.391)" fill="#fff"/>
    <g id="Grupo_56690" data-name="Grupo 56690" transform="translate(343.827 3726.79)">
      <g id="Grupo_56671" data-name="Grupo 56671" transform="translate(18.425)">
        <g id="Grupo_56662" data-name="Grupo 56662" transform="translate(0 33.154)" opacity="0.33">
          <path id="Trazado_110116" data-name="Trazado 110116" d="M486.747,4006.232l-8.4-20.889V3978.3l7.609-47.529,10.346-47.331v-18.77s3.369-9.24,3.651-24.4-1.123-21.222-3.37-27.431l-21.618-7.8-16.66-5.918s-13.852-3.274-13.29-20.021l-.936-26.374-17.548,3.621-17.55-3.621.095,26.325c.561,16.748-14.321,20.069-14.321,20.069l-16.659,5.918-20.918,5.775c-2.246,6.208-4.352,14.294-4.071,29.453s3.649,24.4,3.649,24.4v18.77l10.347,47.33h0l1.508,6.9L377.3,3978.3v8.174s-15.439,32.7-17.029,58.809v129.65H499.958L498.1,4066.4S497.872,4025.986,486.747,4006.232Z" transform="translate(-352.496 -3752.017)" fill="#fff"/>
          <path id="Trazado_110117" data-name="Trazado 110117" d="M500.636,4175.623H359.775V4045.39c1.532-25.168,16.007-56.736,17.029-58.938v-7.984L366.614,3931l-10.359-47.455v-18.669c-.363-1.054-3.388-10.243-3.651-24.49-.284-15.351,1.916-23.609,4.106-29.662l.1-.284,21.209-5.855,16.621-5.905c.655-.152,14.469-3.449,13.93-19.5l-.1-27.06,18.135,3.741,18.108-3.735.961,27.063c-.541,16.125,12.706,19.442,12.84,19.474l16.721,5.938,21.88,7.89.092.257c2.417,6.676,3.675,13.059,3.405,27.641-.264,14.248-3.289,23.436-3.651,24.49l-.014,18.793L486.609,3931l-7.6,47.5.007,6.834,8.345,20.75c11.054,19.67,11.407,60.014,11.409,60.42Zm-139.694-1.167H499.448l-1.848-107.94c0-.409-.355-40.5-11.277-59.894l-.034-.069-8.443-21.107v-7.039l7.615-47.621,10.34-47.3.035-18.905c.034-.092,3.341-9.341,3.616-24.211.263-14.213-.935-20.514-3.242-26.966l-21.362-7.7-16.657-5.918c-.082-.016-14.25-3.562-13.679-20.59l-.911-25.643-16.991,3.505-.117-.024-16.846-3.476.091,25.605c.571,17.018-14.622,20.607-14.775,20.642l-16.593,5.9-20.666,5.708c-2.12,5.927-4.211,14.039-3.934,28.961.274,14.871,3.582,24.119,3.614,24.211l.036.2v18.706l11.839,54.169,8.71,40.753-.056,8.425c-.153.326-15.41,32.895-16.974,58.593Z" transform="translate(-352.58 -3752.12)"/>
        </g>
        <g id="Grupo_56663" data-name="Grupo 56663" transform="translate(24.068 258.818)">
          <path id="Trazado_110118" data-name="Trazado 110118" d="M459,3954.8l-2.615-3.082,2.454-2.652-2.334-2.993.842-.656,2.89,3.708-2.426,2.625,2,2.362Z" transform="translate(-359.267 -3945.421)" fill="#999"/>
          <path id="Trazado_110119" data-name="Trazado 110119" d="M456.484,3954.8l-2.615-3.082,2.453-2.652-2.334-2.993.842-.656,2.89,3.708-2.426,2.625,2,2.362Z" transform="translate(-359.689 -3945.421)" fill="#999"/>
          <path id="Trazado_110120" data-name="Trazado 110120" d="M453.963,3954.8l-2.615-3.082,2.453-2.652-2.334-2.993.842-.656,2.89,3.708-2.426,2.625,2,2.362Z" transform="translate(-360.111 -3945.421)" fill="#999"/>
          <path id="Trazado_110121" data-name="Trazado 110121" d="M451.441,3954.8l-2.615-3.082,2.453-2.652-2.334-2.993.842-.656,2.89,3.708-2.426,2.625,2,2.362Z" transform="translate(-360.533 -3945.421)" fill="#999"/>
          <path id="Trazado_110122" data-name="Trazado 110122" d="M448.92,3954.8l-2.615-3.082,2.453-2.652-2.334-2.993.842-.656,2.89,3.708-2.426,2.625,2,2.362Z" transform="translate(-360.955 -3945.421)" fill="#999"/>
          <path id="Trazado_110123" data-name="Trazado 110123" d="M446.4,3954.8l-2.615-3.082,2.453-2.652-2.334-2.993.842-.656,2.89,3.708-2.426,2.625,2,2.362Z" transform="translate(-361.378 -3945.421)" fill="#999"/>
          <path id="Trazado_110124" data-name="Trazado 110124" d="M443.878,3954.8l-2.615-3.082,2.453-2.652-2.334-2.993.842-.656,2.89,3.708-2.426,2.625,2,2.362Z" transform="translate(-361.8 -3945.421)" fill="#999"/>
          <path id="Trazado_110125" data-name="Trazado 110125" d="M441.357,3954.8l-2.615-3.082,2.453-2.652-2.334-2.993.842-.656,2.89,3.708-2.426,2.625,2,2.362Z" transform="translate(-362.222 -3945.421)" fill="#999"/>
          <path id="Trazado_110126" data-name="Trazado 110126" d="M438.836,3954.8l-2.615-3.082,2.454-2.652-2.334-2.993.842-.656,2.89,3.708-2.426,2.625,2,2.362Z" transform="translate(-362.644 -3945.421)" fill="#999"/>
          <path id="Trazado_110127" data-name="Trazado 110127" d="M436.315,3954.8l-2.615-3.082,2.454-2.652-2.334-2.993.842-.656,2.89,3.708-2.426,2.625,2,2.362Z" transform="translate(-363.066 -3945.421)" fill="#999"/>
          <path id="Trazado_110128" data-name="Trazado 110128" d="M433.794,3954.8l-2.615-3.082,2.454-2.652-2.334-2.993.842-.656,2.89,3.708-2.426,2.625,2,2.362Z" transform="translate(-363.488 -3945.421)" fill="#999"/>
          <path id="Trazado_110129" data-name="Trazado 110129" d="M431.273,3954.8l-2.615-3.082,2.454-2.652-2.334-2.993.842-.656,2.89,3.708-2.426,2.625,2,2.362Z" transform="translate(-363.91 -3945.421)" fill="#999"/>
          <path id="Trazado_110130" data-name="Trazado 110130" d="M428.752,3954.8l-2.615-3.082,2.454-2.652-2.334-2.993.842-.656,2.89,3.708-2.426,2.625,2,2.362Z" transform="translate(-364.332 -3945.421)" fill="#999"/>
          <path id="Trazado_110131" data-name="Trazado 110131" d="M426.231,3954.8l-2.615-3.082,2.453-2.652-2.334-2.993.842-.656,2.89,3.708-2.426,2.625,2,2.362Z" transform="translate(-364.754 -3945.421)" fill="#999"/>
          <path id="Trazado_110132" data-name="Trazado 110132" d="M423.71,3954.8l-2.615-3.082,2.453-2.652-2.334-2.993.842-.656,2.89,3.708-2.426,2.625,2,2.362Z" transform="translate(-365.176 -3945.421)" fill="#999"/>
          <path id="Trazado_110133" data-name="Trazado 110133" d="M421.189,3954.8l-2.615-3.082,2.453-2.652-2.334-2.993.842-.656,2.89,3.708L420,3951.753l2,2.362Z" transform="translate(-365.598 -3945.421)" fill="#999"/>
          <path id="Trazado_110134" data-name="Trazado 110134" d="M418.668,3954.8l-2.615-3.082,2.454-2.652-2.334-2.993.842-.656,2.89,3.708-2.426,2.625,2,2.362Z" transform="translate(-366.02 -3945.421)" fill="#999"/>
          <path id="Trazado_110135" data-name="Trazado 110135" d="M416.147,3954.8l-2.615-3.082,2.454-2.652-2.334-2.993.842-.656,2.89,3.708-2.426,2.625,2,2.362Z" transform="translate(-366.443 -3945.421)" fill="#999"/>
          <path id="Trazado_110136" data-name="Trazado 110136" d="M413.626,3954.8l-2.615-3.082,2.454-2.652-2.334-2.993.842-.656,2.89,3.708-2.426,2.625,2,2.362Z" transform="translate(-366.865 -3945.421)" fill="#999"/>
          <path id="Trazado_110137" data-name="Trazado 110137" d="M411.105,3954.8l-2.615-3.082,2.454-2.652-2.334-2.993.842-.656,2.89,3.708-2.426,2.625,2,2.362Z" transform="translate(-367.287 -3945.421)" fill="#999"/>
          <path id="Trazado_110138" data-name="Trazado 110138" d="M408.584,3954.8l-2.615-3.082,2.453-2.652-2.334-2.993.842-.656,2.89,3.708-2.426,2.625,2,2.362Z" transform="translate(-367.709 -3945.421)" fill="#999"/>
          <path id="Trazado_110139" data-name="Trazado 110139" d="M406.063,3954.8l-2.615-3.082,2.454-2.652-2.334-2.993.842-.656,2.89,3.708-2.426,2.625,2,2.362Z" transform="translate(-368.131 -3945.421)" fill="#999"/>
          <path id="Trazado_110140" data-name="Trazado 110140" d="M403.542,3954.8l-2.615-3.082,2.454-2.652-2.334-2.993.842-.656,2.89,3.708-2.426,2.625,2,2.362Z" transform="translate(-368.553 -3945.421)" fill="#999"/>
          <path id="Trazado_110141" data-name="Trazado 110141" d="M401.021,3954.8l-2.615-3.082,2.453-2.652-2.334-2.993.842-.656,2.89,3.708-2.426,2.625,2,2.362Z" transform="translate(-368.975 -3945.421)" fill="#999"/>
          <path id="Trazado_110142" data-name="Trazado 110142" d="M398.5,3954.8l-2.615-3.082,2.453-2.652L396,3946.077l.842-.656,2.89,3.708-2.426,2.625,2,2.362Z" transform="translate(-369.397 -3945.421)" fill="#999"/>
          <path id="Trazado_110143" data-name="Trazado 110143" d="M395.979,3954.8l-2.615-3.082,2.453-2.652-2.334-2.993.842-.656,2.89,3.708-2.426,2.625,2,2.362Z" transform="translate(-369.819 -3945.421)" fill="#999"/>
          <path id="Trazado_110144" data-name="Trazado 110144" d="M393.458,3954.8l-2.615-3.082,2.454-2.652-2.334-2.993.842-.656,2.89,3.708-2.426,2.625,2,2.362Z" transform="translate(-370.241 -3945.421)" fill="#999"/>
          <path id="Trazado_110145" data-name="Trazado 110145" d="M390.937,3954.8l-2.615-3.082,2.454-2.652-2.334-2.993.842-.656,2.89,3.708-2.426,2.625,2,2.362Z" transform="translate(-370.663 -3945.421)" fill="#999"/>
          <path id="Trazado_110146" data-name="Trazado 110146" d="M388.416,3954.8l-2.615-3.082,2.453-2.652-2.334-2.993.842-.656,2.89,3.708-2.426,2.625,2,2.362Z" transform="translate(-371.085 -3945.421)" fill="#999"/>
          <path id="Trazado_110147" data-name="Trazado 110147" d="M385.895,3954.8l-2.615-3.082,2.454-2.652-2.334-2.993.842-.656,2.89,3.708-2.426,2.625,2,2.362Z" transform="translate(-371.508 -3945.421)" fill="#999"/>
          <path id="Trazado_110148" data-name="Trazado 110148" d="M383.374,3954.8l-2.615-3.082,2.454-2.652-2.334-2.993.842-.656,2.89,3.708-2.426,2.625,2,2.362Z" transform="translate(-371.93 -3945.421)" fill="#999"/>
          <path id="Trazado_110149" data-name="Trazado 110149" d="M380.853,3954.8l-2.615-3.082,2.454-2.652-2.334-2.993.842-.656,2.89,3.708-2.426,2.625,2,2.362Z" transform="translate(-372.352 -3945.421)" fill="#999"/>
          <path id="Trazado_110150" data-name="Trazado 110150" d="M378.332,3954.8l-2.615-3.082,2.453-2.652-2.334-2.993.842-.656,2.89,3.708-2.426,2.625,2,2.362Z" transform="translate(-372.774 -3945.421)" fill="#999"/>
          <path id="Trazado_110151" data-name="Trazado 110151" d="M375.811,3954.8l-2.615-3.082,2.453-2.652-2.334-2.993.842-.656,2.89,3.708-2.426,2.625,2,2.362Z" transform="translate(-373.196 -3945.421)" fill="#999"/>
        </g>
        <path id="Trazado_110152" data-name="Trazado 110152" d="M417.115,3767.971c-12.516,0-16.35-4.84-16.517-5.06l.93-.707-.466.353.463-.355c.04.053,4.246,5.222,18.139,4.537,13.808-.69,16.234-5.94,16.258-5.993l1.078.448c-.1.244-2.614,5.979-17.276,6.71Q418.361,3767.973,417.115,3767.971Z" transform="translate(-344.54 -3717.522)" fill="#999"/>
        <rect id="Rectángulo_10403" data-name="Rectángulo 10403" width="135.396" height="1.167" transform="translate(6.027 172.085)" fill="#999"/>
        <rect id="Rectángulo_10404" data-name="Rectángulo 10404" width="139.172" height="1.167" transform="translate(4.259 163.997)" fill="#999"/>
        <rect id="Rectángulo_10405" data-name="Rectángulo 10405" width="1.167" height="47.546" transform="translate(73.453 172.669)" fill="#999"/>
        <path id="Trazado_110153" data-name="Trazado 110153" d="M453.645,3876.187l-1.167-.012.521-52.554c1.372-22.733.479-27.066.44-27.24l1.137-.265c.041.172.982,4.479-.411,27.546Z" transform="translate(-335.854 -3711.6)" fill="#999"/>
        <path id="Trazado_110154" data-name="Trazado 110154" d="M457.559,4155.065c-.019-.511-1.831-51.718-2.966-105.817-1.132-53.938-14.551-82.355-14.686-82.635l-.058-.254v-8.174l6.957-38.218,7.8-48.418,1.151.185-7.8,48.431-6.948,38.126.009,7.939c.971,2.106,13.644,30.591,14.745,82.995,1.135,54.092,2.948,105.291,2.966,105.8Z" transform="translate(-337.969 -3698.971)" fill="#999"/>
        <path id="Trazado_110155" data-name="Trazado 110155" d="M381.208,4155.046l-.228-47.909c-.012-.4-1.12-41.441.229-70.418,1.32-28.4,12.793-68.148,13.4-70.217v-8.712L386.77,3919.3l-7.6-47.57,1.153-.185,7.592,47.545,7.852,38.638-.025,9.021c-.119.409-12.028,41.14-13.373,70.023-1.345,28.932-.238,69.934-.226,70.345l.228,47.921Z" transform="translate(-348.127 -3698.971)" fill="#999"/>
        <rect id="Rectángulo_10406" data-name="Rectángulo 10406" width="1.167" height="414.423" transform="translate(72.305 41.672) rotate(-0.494)" fill="#999"/>
        <path id="Trazado_110156" data-name="Trazado 110156" d="M379.9,3876.187l-.521-52.554c-1.393-23.037-.451-27.344-.41-27.516l1.136.269-.569-.134.57.131c-.039.174-.932,4.506.439,27.21l.522,52.583Z" transform="translate(-348.22 -3711.6)" fill="#999"/>
        <path id="Trazado_110157" data-name="Trazado 110157" d="M419.749,3804.453c-17.724,0-22.969-16.875-23.02-17.044l1.118-.335c.049.164,5.064,16.212,21.9,16.212h.146c16.95-.093,21.234-15.536,21.408-16.193l1.129.3c-.044.17-4.673,16.967-22.53,17.064Z" transform="translate(-345.188 -3713.114)" fill="#999"/>
        <path id="Trazado_110158" data-name="Trazado 110158" d="M453.251,3869.95l4.3-4.721,2.523.2s1.075.11.86-.849l-2.833-3.5s-1.327-1.475-1.757.222l-.144,2.951-3.841,4.627-.464,1.458Z" transform="translate(-335.951 -3700.824)" fill="#666"/>
        <g id="Grupo_56664" data-name="Grupo 56664" transform="translate(55.899 25.49)">
          <ellipse id="Elipse_4425" data-name="Elipse 4425" cx="17.549" cy="7.796" rx="17.549" ry="7.796" transform="translate(0.584 0.584)" fill="#fff"/>
          <path id="Trazado_110159" data-name="Trazado 110159" d="M418.594,3762.316c-10.168,0-18.132-3.682-18.132-8.38s7.964-8.381,18.132-8.381,18.134,3.682,18.134,8.381S428.763,3762.316,418.594,3762.316Zm0-15.594c-9.2,0-16.965,3.3-16.965,7.213s7.769,7.213,16.965,7.213,16.966-3.3,16.966-7.213S427.79,3746.722,418.594,3746.722Z" transform="translate(-400.462 -3745.555)" fill="#999"/>
        </g>
        <g id="Grupo_56668" data-name="Grupo 56668" transform="translate(64.528)">
          <g id="Grupo_56665" data-name="Grupo 56665" transform="translate(1.069)">
            <path id="Trazado_110160" data-name="Trazado 110160" d="M425.41,3735.323c0-6.131-3.613-11.1-8.07-11.1s-8.07,4.971-8.07,11.1c0,4.8,2.215,8.869,5.308,10.422v10.617h6.1v-10.937C423.466,3743.677,425.41,3739.816,425.41,3735.323Z" transform="translate(-408.686 -3723.637)" fill="#fff"/>
            <path id="Trazado_110161" data-name="Trazado 110161" d="M421.342,3757.029h-7.264v-10.85c-3.189-1.8-5.308-6.073-5.308-10.772,0-6.443,3.882-11.686,8.653-11.686s8.654,5.243,8.654,11.686c0,4.4-1.848,8.439-4.735,10.417Zm-6.1-1.167h4.929v-10.675l.274-.172c2.71-1.7,4.461-5.468,4.461-9.608,0-5.8-3.359-10.518-7.487-10.518s-7.486,4.719-7.486,10.518c0,4.425,2,8.4,4.986,9.9l.322.162Z" transform="translate(-408.77 -3723.721)" fill="#999"/>
          </g>
          <g id="Grupo_56666" data-name="Grupo 56666" transform="translate(0 13.402)">
            <rect id="Rectángulo_10407" data-name="Rectángulo 10407" width="18.925" height="3.246" rx="1.209" transform="translate(0.584 0.584)" fill="#fff"/>
            <path id="Trazado_110162" data-name="Trazado 110162" d="M425.953,3739.614h-16.1a2,2,0,0,1-2-1.994v-.424a2,2,0,0,1,2-2h16.1a2,2,0,0,1,2,2v.424A2,2,0,0,1,425.953,3739.614Zm-16.1-3.246a.828.828,0,0,0-.828.828v.424a.828.828,0,0,0,.828.827h16.1a.828.828,0,0,0,.828-.827v-.424a.829.829,0,0,0-.828-.828Z" transform="translate(-407.854 -3735.201)" fill="#999"/>
          </g>
          <g id="Grupo_56667" data-name="Grupo 56667" transform="translate(0 7.205)">
            <rect id="Rectángulo_10408" data-name="Rectángulo 10408" width="18.925" height="3.246" rx="1.209" transform="translate(0.584 0.583)" fill="#fff"/>
            <path id="Trazado_110163" data-name="Trazado 110163" d="M425.953,3734.306h-16.1a2,2,0,0,1-2-1.994v-.425a2,2,0,0,1,2-1.994h16.1a2,2,0,0,1,2,1.994v.425A2,2,0,0,1,425.953,3734.306Zm-16.1-3.246a.828.828,0,0,0-.828.827v.425a.828.828,0,0,0,.828.827h16.1a.829.829,0,0,0,.828-.827v-.425a.829.829,0,0,0-.828-.827Z" transform="translate(-407.854 -3729.893)" fill="#999"/>
          </g>
        </g>
        <g id="Grupo_56669" data-name="Grupo 56669" transform="translate(24.808 258.856)" opacity="0.33">
          <line id="Línea_267" data-name="Línea 267" x2="100.473" transform="translate(0 0.584)" fill="#fff"/>
          <rect id="Rectángulo_10409" data-name="Rectángulo 10409" width="100.474" height="1.167"/>
        </g>
        <g id="Grupo_56670" data-name="Grupo 56670" transform="translate(24.808 267.032)" opacity="0.33">
          <line id="Línea_268" data-name="Línea 268" x2="100.473" transform="translate(0 0.583)" fill="#fff"/>
          <rect id="Rectángulo_10410" data-name="Rectángulo 10410" width="100.474" height="1.167"/>
        </g>
        <path id="Trazado_110164" data-name="Trazado 110164" d="M357.482,3856.433l-1.127-.3c4.442-16.467.4-52.814.356-53.179l1.16-.132C357.914,3803.186,361.982,3839.752,357.482,3856.433Z" transform="translate(-351.948 -3710.478)" opacity="0.33"/>
        <path id="Trazado_110165" data-name="Trazado 110165" d="M475.558,3856.219c-4.505-16.688.216-51.712.265-52.064l1.156.16c-.048.349-4.736,35.14-.3,51.6Z" transform="translate(-332.316 -3710.254)" opacity="0.33"/>
        <path id="Trazado_110166" data-name="Trazado 110166" d="M380.165,3869.178l-4.3-4.721-2.523.2s-1.076.111-.86-.849l2.833-3.5s1.327-1.476,1.757.221l.144,2.951,3.841,4.628.464,1.457Z" transform="translate(-349.253 -3700.954)" fill="#666"/>
        <path id="Trazado_110167" data-name="Trazado 110167" d="M393.8,3951.206l-4.3-4.722-2.523.2s-1.075.111-.86-.849l2.833-3.5s1.327-1.476,1.757.221l.144,2.951,3.841,4.629.463,1.457Z" transform="translate(-346.97 -3687.22)" fill="#666"/>
        <path id="Trazado_110168" data-name="Trazado 110168" d="M413.973,3867.352l-4.3-4.722-2.523.2s-1.075.111-.86-.849l2.833-3.5s1.327-1.476,1.758.221l.144,2.951,3.841,4.629.462,1.457Z" transform="translate(-343.593 -3701.26)" fill="#666"/>
        <path id="Trazado_110169" data-name="Trazado 110169" d="M417.692,3950.673l4.3-4.722,2.523.2s1.075.111.86-.849l-2.833-3.5s-1.327-1.476-1.758.22l-.142,2.952L416.8,3949.6l-.462,1.457Z" transform="translate(-341.905 -3687.31)" fill="#666"/>
        <path id="Trazado_110170" data-name="Trazado 110170" d="M417.692,3950.843l4.3,4.722,2.523-.2s1.075-.111.86.849l-2.833,3.5s-1.327,1.474-1.758-.222l-.142-2.951-3.842-4.628-.462-1.458Z" transform="translate(-341.905 -3685.759)" fill="#666"/>
        <path id="Trazado_110171" data-name="Trazado 110171" d="M417.692,3802.082l4.3-4.721,2.523.2s1.075.111.86-.848l-2.833-3.5s-1.327-1.476-1.758.222l-.142,2.95-3.842,4.629-.462,1.458Z" transform="translate(-341.905 -3712.187)" fill="#666"/>
        <path id="Trazado_110172" data-name="Trazado 110172" d="M398.452,3787.64l-5.138-3.8-.063-2.53s0-1.081-.933-.77l-3.2,3.178s-1.331,1.472.4,1.726l2.95-.161,5,3.348,1.5.31Z" transform="translate(-346.543 -3714.217)" fill="#666"/>
        <path id="Trazado_110173" data-name="Trazado 110173" d="M358.781,3803.272l.051-6.388,2.009-1.538s.876-.636.075-1.207l-4.449-.717s-1.973-.211-1.16,1.339l1.863,2.292.231,6.011.629,1.394Z" transform="translate(-352.156 -3712.052)" fill="#666"/>
        <path id="Trazado_110174" data-name="Trazado 110174" d="M417.692,3802.252l4.3,4.721,2.523-.2s1.075-.111.86.848l-2.833,3.5s-1.327,1.475-1.758-.222l-.142-2.95-3.842-4.628-.462-1.458Z" transform="translate(-341.905 -3710.637)" fill="#666"/>
        <path id="Trazado_110175" data-name="Trazado 110175" d="M380.165,3868.528l-4.3,4.721-2.523-.2s-1.076-.111-.86.847l2.833,3.5s1.327,1.476,1.757-.222l.144-2.95,3.841-4.629.464-1.458Z" transform="translate(-349.253 -3699.541)" fill="#666"/>
        <path id="Trazado_110176" data-name="Trazado 110176" d="M413.973,3868.528l-4.3,4.721-2.523-.2s-1.075-.111-.86.847l2.833,3.5s1.327,1.476,1.758-.222l.144-2.95,3.841-4.629.462-1.458Z" transform="translate(-343.593 -3699.541)" fill="#666"/>
      </g>
      <g id="Grupo_56672" data-name="Grupo 56672" transform="translate(22.52 75.066)" opacity="0.5">
        <path id="Trazado_110177" data-name="Trazado 110177" d="M424.992,3909.313l1.538,83.963s.34,36.444.677,40.506c0,0-22.425,5.786-43.418,2.131s-16.121-5.481-16.121-5.481l9.049-38.17s1.538-10.963,0-28.221-7.221-50.554-7.221-50.554l-3.452-19.694V3838.3a47.5,47.5,0,0,0-2.294-14.572c-2.175-6.753-5.37-16.139-7.162-18.9,0,0,38.964-12.755,42.381-15.192l2.707-1.117a3.872,3.872,0,0,0,2.333,1.523,25.357,25.357,0,0,0,3.047.2,11.065,11.065,0,0,0,5.584,8.63c5.381,3.044,13.306,4.751,13.306,4.751l-.312,63.162Z" transform="translate(-356.004 -3787.938)" fill="#999"/>
        <path id="Trazado_110178" data-name="Trazado 110178" d="M398.816,4037.781a88.286,88.286,0,0,1-15.043-1.209c-16.858-2.934-17.02-4.671-17.09-5.411a1.128,1.128,0,0,1,.564-1.039l8.987-37.911c0-.055,1.5-11.052-.014-28.035C374.7,3947.14,369.06,3914,369,3913.668l-3.452-19.692-.008-55.588A46.892,46.892,0,0,0,363.278,3824c-3.227-10.02-5.747-16.685-7.1-18.765a.584.584,0,0,1,.309-.874c13.446-4.4,39.578-13.224,42.223-15.111a.6.6,0,0,1,.116-.064l2.708-1.117a.585.585,0,0,1,.7.207,3.3,3.3,0,0,0,1.936,1.278,24.768,24.768,0,0,0,2.965.2.585.585,0,0,1,.584.56,10.372,10.372,0,0,0,5.286,8.143c5.239,2.966,13.062,4.674,13.142,4.689a.585.585,0,0,1,.46.576l-.311,63.161-.642,42.519,1.536,83.956c0,.369.344,36.474.676,40.466a.582.582,0,0,1-.435.613A129.185,129.185,0,0,1,398.816,4037.781Zm-30.93-6.68c.293.376,2.308,1.922,16.087,4.322,18.964,3.3,39.371-1.216,42.7-2.008-.323-5.812-.634-38.608-.648-40.047l-1.536-83.96v-.02l.642-42.523.308-62.686a55.077,55.077,0,0,1-13.006-4.711,11.591,11.591,0,0,1-5.828-8.562,24.11,24.11,0,0,1-2.6-.2,4.222,4.222,0,0,1-2.428-1.4l-2.25.928c-3.558,2.392-36.413,13.237-41.789,15,1.834,3.349,4.7,11.723,6.845,18.4a47.989,47.989,0,0,1,2.323,14.75v55.488l3.443,19.594c.058.335,5.708,33.519,7.228,50.6,1.526,17.126.013,28.242,0,28.353l-9.058,38.224a.585.585,0,0,1-.363.413A.531.531,0,0,0,367.886,4031.1Z" transform="translate(-356.088 -3788.022)" fill="#4d4d4d"/>
      </g>
      <g id="Grupo_56673" data-name="Grupo 56673" transform="translate(0 91.376)" opacity="0.81">
        <path id="Trazado_110179" data-name="Trazado 110179" d="M359.4,3857.04s-17.634-4.06-22.1-16.953l19.49-35.125s1.1-2.167,3.031-2.471l-3.135,13.623a43.616,43.616,0,0,0-1.106,8.96c-.058,3.065-.07,7.027.144,10.075.406,5.787,1.574,13.973,1.574,13.973Z" transform="translate(-336.714 -3801.909)" fill="#999"/>
        <path id="Trazado_110180" data-name="Trazado 110180" d="M359.481,3857.706a.584.584,0,0,1-.132-.014c-.733-.169-18-4.282-22.521-17.331a.59.59,0,0,1,.042-.474l19.49-35.124c.041-.081,1.251-2.418,3.45-2.766a.584.584,0,0,1,.66.708l-3.135,13.623a43.171,43.171,0,0,0-1.09,8.841c-.056,2.863-.075,6.923.142,10.022.4,5.7,1.557,13.85,1.569,13.932l2.089,7.851a.583.583,0,0,1-.564.731Zm-21.462-17.483c3.833,10.554,16.974,15.018,20.639,16.075l-1.843-6.943c-.026-.149-1.19-8.34-1.592-14.081-.221-3.144-.2-7.241-.145-10.127a44.345,44.345,0,0,1,1.12-9.08l2.9-12.588a5.1,5.1,0,0,0-1.7,1.834Z" transform="translate(-336.797 -3801.992)" fill="#4d4d4d"/>
      </g>
      <g id="Grupo_56674" data-name="Grupo 56674" transform="translate(85.805 78.895)" opacity="0.5">
        <path id="Trazado_110181" data-name="Trazado 110181" d="M417.269,3802.6l2.055-8.739-2.454-2.056-6.073,8.6S414.3,3802.811,417.269,3802.6Z" transform="translate(-410.213 -3791.217)" fill="#999"/>
        <path id="Trazado_110182" data-name="Trazado 110182" d="M416.976,3803.28c-3.026,0-6.282-2.209-6.426-2.307a.584.584,0,0,1-.146-.818l6.072-8.6a.587.587,0,0,1,.4-.243.574.574,0,0,1,.451.133l2.454,2.056a.58.58,0,0,1,.193.58l-2.055,8.74a.58.58,0,0,1-.526.448C417.256,3803.274,417.116,3803.28,416.976,3803.28Zm.377-.6h0Zm-5.64-2.357a11.738,11.738,0,0,0,5.175,1.786l1.868-7.95-1.692-1.418Z" transform="translate(-410.297 -3791.302)" fill="#4d4d4d"/>
      </g>
      <g id="Grupo_56675" data-name="Grupo 56675" transform="translate(78.572 78.365)" opacity="0.5">
        <path id="Trazado_110183" data-name="Trazado 110183" d="M409.169,3791.347l4.263,1.476-1.452,8.117s-4.943-.17-7.379-3.19Z" transform="translate(-404.017 -3790.764)" fill="#999"/>
        <path id="Trazado_110184" data-name="Trazado 110184" d="M412.063,3801.607h-.02c-.212-.008-5.239-.217-7.812-3.409a.58.58,0,0,1-.021-.7l4.568-6.4a.586.586,0,0,1,.665-.212l4.263,1.475a.584.584,0,0,1,.384.655l-1.453,8.117A.584.584,0,0,1,412.063,3801.607Zm-6.636-3.812c1.852,1.958,4.949,2.474,6.155,2.6l1.272-7.1-3.381-1.17Z" transform="translate(-404.101 -3790.848)" fill="#4d4d4d"/>
      </g>
      <g id="Grupo_56676" data-name="Grupo 56676" transform="translate(73.149 71.817)" opacity="0.5">
        <path id="Trazado_110185" data-name="Trazado 110185" d="M401.952,3785.739l5.482,2.283v6.853l-2.056,3.113s-5.211-4.263-5.423-6.125Z" transform="translate(-399.372 -3785.155)" fill="#999"/>
        <path id="Trazado_110186" data-name="Trazado 110186" d="M405.462,3798.656a.581.581,0,0,1-.37-.132c-.9-.736-5.405-4.514-5.633-6.51a.572.572,0,0,1,.026-.248l2-6.125a.585.585,0,0,1,.78-.358l5.481,2.283a.586.586,0,0,1,.36.54v6.853a.582.582,0,0,1-.1.321l-2.056,3.114a.581.581,0,0,1-.4.256A.588.588,0,0,1,405.462,3798.656Zm-4.823-6.666c.267,1.1,2.728,3.542,4.694,5.216l1.6-2.422V3788.5L402.4,3786.6Z" transform="translate(-399.456 -3785.239)" fill="#4d4d4d"/>
      </g>
      <g id="Grupo_56677" data-name="Grupo 56677" transform="translate(67.913 68.771)" opacity="0.5">
        <path id="Trazado_110187" data-name="Trazado 110187" d="M395.471,3788.764l3.5-5.634,2.74,3.046-1.167,4.973A6.253,6.253,0,0,1,395.471,3788.764Z" transform="translate(-394.887 -3782.546)" fill="#999"/>
        <path id="Trazado_110188" data-name="Trazado 110188" d="M400.383,3791.826a6.912,6.912,0,0,1-5.278-2.606.583.583,0,0,1-.047-.681l3.5-5.634a.583.583,0,0,1,.93-.082l2.741,3.046a.581.581,0,0,1,.133.523l-1.167,4.975a.587.587,0,0,1-.511.448C400.665,3791.816,400.557,3791.826,400.383,3791.826Zm-4.1-3.039a5.733,5.733,0,0,0,3.886,1.868l.993-4.23-2.017-2.243Z" transform="translate(-394.971 -3782.629)" fill="#4d4d4d"/>
      </g>
      <rect id="Rectángulo_10411" data-name="Rectángulo 10411" width="59.59" height="1.167" transform="translate(32.56 168.022)" fill="#999"/>
      <g id="Grupo_56687" data-name="Grupo 56687" transform="translate(239.321)">
        <g id="Grupo_56678" data-name="Grupo 56678" transform="translate(0 33.154)" opacity="0.33">
          <path id="Trazado_110189" data-name="Trazado 110189" d="M675.965,4006.232l-8.4-20.889V3978.3l7.608-47.529,10.346-47.331v-18.77s3.37-9.24,3.65-24.4-1.123-21.222-3.369-27.431l-21.62-7.8-16.66-5.918s-13.851-3.274-13.29-20.021l-.935-26.374-17.549,3.621-17.549-3.621.093,26.325c.562,16.748-14.32,20.069-14.32,20.069l-16.659,5.918-20.918,5.775c-2.247,6.208-4.352,14.294-4.072,29.453s3.651,24.4,3.651,24.4v18.77l10.346,47.33h0l1.508,6.9,8.7,40.629v8.174s-15.44,32.7-17.029,58.809v129.65H689.175L687.318,4066.4S687.09,4025.986,675.965,4006.232Z" transform="translate(-541.713 -3752.017)" fill="#fff"/>
          <path id="Trazado_110190" data-name="Trazado 110190" d="M689.853,4175.623H548.993V4045.39c1.532-25.168,16.007-56.736,17.029-58.938v-7.984L555.832,3931l-10.36-47.455v-18.669c-.363-1.054-3.387-10.243-3.651-24.489-.285-15.354,1.916-23.611,4.107-29.663l.1-.284,21.209-5.855,16.618-5.905c.656-.152,14.471-3.449,13.932-19.5l-.1-27.06,18.135,3.741,18.107-3.735.961,27.063c-.541,16.125,12.706,19.442,12.841,19.474l16.721,5.938,21.881,7.89.092.257c2.417,6.68,3.674,13.063,3.405,27.641-.265,14.248-3.29,23.436-3.652,24.49l-.014,18.793L675.827,3931l-7.6,47.5.007,6.834,8.345,20.75c11.053,19.67,11.407,60.014,11.409,60.42Zm-139.693-1.167H688.666l-1.848-107.94c0-.409-.356-40.5-11.277-59.894l-.034-.069-8.443-21.107v-7.039l7.615-47.621,10.339-47.3.035-18.905c.033-.092,3.34-9.341,3.617-24.212.263-14.208-.935-20.509-3.243-26.965l-21.362-7.7-16.657-5.918c-.082-.016-14.25-3.562-13.679-20.59l-.911-25.643-16.99,3.505-.117-.024-16.846-3.476.091,25.605c.571,17.018-14.623,20.607-14.776,20.642l-16.591,5.9-20.666,5.708c-2.12,5.926-4.212,14.036-3.935,28.961.276,14.871,3.582,24.119,3.614,24.211l.036.2v18.706l11.84,54.169,8.71,40.753-.056,8.425c-.154.326-15.41,32.895-16.974,58.593Z" transform="translate(-541.797 -3752.12)"/>
        </g>
        <g id="Grupo_56679" data-name="Grupo 56679" transform="translate(24.068 258.818)">
          <path id="Trazado_110191" data-name="Trazado 110191" d="M648.222,3954.8l-2.615-3.082,2.454-2.652-2.334-2.993.842-.656,2.89,3.708-2.426,2.625,2,2.362Z" transform="translate(-548.484 -3945.421)" fill="#999"/>
          <path id="Trazado_110192" data-name="Trazado 110192" d="M645.7,3954.8l-2.615-3.082,2.453-2.652-2.334-2.993.842-.656,2.89,3.708-2.426,2.625,2,2.362Z" transform="translate(-548.907 -3945.421)" fill="#999"/>
          <path id="Trazado_110193" data-name="Trazado 110193" d="M643.18,3954.8l-2.615-3.082,2.454-2.652-2.334-2.993.842-.656,2.89,3.708-2.426,2.625,2,2.362Z" transform="translate(-549.329 -3945.421)" fill="#999"/>
          <path id="Trazado_110194" data-name="Trazado 110194" d="M640.659,3954.8l-2.615-3.082,2.453-2.652-2.334-2.993.842-.656,2.89,3.708-2.426,2.625,2,2.362Z" transform="translate(-549.751 -3945.421)" fill="#999"/>
          <path id="Trazado_110195" data-name="Trazado 110195" d="M638.138,3954.8l-2.615-3.082,2.453-2.652-2.334-2.993.842-.656,2.89,3.708-2.426,2.625,2,2.362Z" transform="translate(-550.173 -3945.421)" fill="#999"/>
          <path id="Trazado_110196" data-name="Trazado 110196" d="M635.617,3954.8,633,3951.723l2.453-2.652-2.334-2.993.842-.656,2.89,3.708-2.426,2.625,2,2.362Z" transform="translate(-550.595 -3945.421)" fill="#999"/>
          <path id="Trazado_110197" data-name="Trazado 110197" d="M633.1,3954.8l-2.615-3.082,2.453-2.652-2.334-2.993.842-.656,2.89,3.708-2.426,2.625,2,2.362Z" transform="translate(-551.017 -3945.421)" fill="#999"/>
          <path id="Trazado_110198" data-name="Trazado 110198" d="M630.575,3954.8l-2.615-3.082,2.454-2.652-2.334-2.993.842-.656,2.89,3.708-2.426,2.625,2,2.362Z" transform="translate(-551.439 -3945.421)" fill="#999"/>
          <path id="Trazado_110199" data-name="Trazado 110199" d="M628.054,3954.8l-2.615-3.082,2.453-2.652-2.334-2.993.842-.656,2.89,3.708-2.426,2.625,2,2.362Z" transform="translate(-551.861 -3945.421)" fill="#999"/>
          <path id="Trazado_110200" data-name="Trazado 110200" d="M625.533,3954.8l-2.615-3.082,2.454-2.652-2.334-2.993.842-.656,2.89,3.708-2.426,2.625,2,2.362Z" transform="translate(-552.283 -3945.421)" fill="#999"/>
          <path id="Trazado_110201" data-name="Trazado 110201" d="M623.012,3954.8l-2.615-3.082,2.453-2.652-2.334-2.993.842-.656,2.89,3.708-2.426,2.625,2,2.362Z" transform="translate(-552.705 -3945.421)" fill="#999"/>
          <path id="Trazado_110202" data-name="Trazado 110202" d="M620.491,3954.8l-2.615-3.082,2.454-2.652L618,3946.077l.842-.656,2.89,3.708-2.426,2.625,2,2.362Z" transform="translate(-553.127 -3945.421)" fill="#999"/>
          <path id="Trazado_110203" data-name="Trazado 110203" d="M617.97,3954.8l-2.615-3.082,2.453-2.652-2.334-2.993.842-.656,2.89,3.708-2.426,2.625,2,2.362Z" transform="translate(-553.549 -3945.421)" fill="#999"/>
          <path id="Trazado_110204" data-name="Trazado 110204" d="M615.449,3954.8l-2.615-3.082,2.453-2.652-2.334-2.993.842-.656,2.89,3.708-2.426,2.625,2,2.362Z" transform="translate(-553.972 -3945.421)" fill="#999"/>
          <path id="Trazado_110205" data-name="Trazado 110205" d="M612.928,3954.8l-2.615-3.082,2.453-2.652-2.334-2.993.842-.656,2.89,3.708-2.426,2.625,2,2.362Z" transform="translate(-554.394 -3945.421)" fill="#999"/>
          <path id="Trazado_110206" data-name="Trazado 110206" d="M610.406,3954.8l-2.615-3.082,2.453-2.652-2.334-2.993.842-.656,2.89,3.708-2.426,2.625,2,2.362Z" transform="translate(-554.816 -3945.421)" fill="#999"/>
          <path id="Trazado_110207" data-name="Trazado 110207" d="M607.885,3954.8l-2.615-3.082,2.454-2.652-2.334-2.993.842-.656,2.89,3.708-2.426,2.625,2,2.362Z" transform="translate(-555.238 -3945.421)" fill="#999"/>
          <path id="Trazado_110208" data-name="Trazado 110208" d="M605.364,3954.8l-2.615-3.082,2.453-2.652-2.334-2.993.842-.656,2.89,3.708-2.426,2.625,2,2.362Z" transform="translate(-555.66 -3945.421)" fill="#999"/>
          <path id="Trazado_110209" data-name="Trazado 110209" d="M602.843,3954.8l-2.615-3.082,2.454-2.652-2.334-2.993.842-.656,2.89,3.708-2.426,2.625,2,2.362Z" transform="translate(-556.082 -3945.421)" fill="#999"/>
          <path id="Trazado_110210" data-name="Trazado 110210" d="M600.322,3954.8l-2.615-3.082,2.453-2.652-2.334-2.993.842-.656,2.89,3.708-2.426,2.625,2,2.362Z" transform="translate(-556.504 -3945.421)" fill="#999"/>
          <path id="Trazado_110211" data-name="Trazado 110211" d="M597.8,3954.8l-2.615-3.082,2.454-2.652-2.334-2.993.842-.656,2.89,3.708-2.426,2.625,2,2.362Z" transform="translate(-556.926 -3945.421)" fill="#999"/>
          <path id="Trazado_110212" data-name="Trazado 110212" d="M595.28,3954.8l-2.615-3.082,2.453-2.652-2.334-2.993.842-.656,2.89,3.708-2.426,2.625,2,2.362Z" transform="translate(-557.348 -3945.421)" fill="#999"/>
          <path id="Trazado_110213" data-name="Trazado 110213" d="M592.759,3954.8l-2.615-3.082,2.454-2.652-2.334-2.993.842-.656,2.89,3.708-2.426,2.625,2,2.362Z" transform="translate(-557.77 -3945.421)" fill="#999"/>
          <path id="Trazado_110214" data-name="Trazado 110214" d="M590.238,3954.8l-2.615-3.082,2.453-2.652-2.334-2.993.842-.656,2.89,3.708-2.426,2.625,2,2.362Z" transform="translate(-558.192 -3945.421)" fill="#999"/>
          <path id="Trazado_110215" data-name="Trazado 110215" d="M587.717,3954.8l-2.615-3.082,2.453-2.652-2.334-2.993.842-.656,2.89,3.708-2.426,2.625,2,2.362Z" transform="translate(-558.615 -3945.421)" fill="#999"/>
          <path id="Trazado_110216" data-name="Trazado 110216" d="M585.2,3954.8l-2.615-3.082,2.453-2.652-2.334-2.993.842-.656,2.89,3.708-2.426,2.625,2,2.362Z" transform="translate(-559.037 -3945.421)" fill="#999"/>
          <path id="Trazado_110217" data-name="Trazado 110217" d="M582.675,3954.8l-2.615-3.082,2.453-2.652-2.334-2.993.842-.656,2.89,3.708-2.426,2.625,2,2.362Z" transform="translate(-559.459 -3945.421)" fill="#999"/>
          <path id="Trazado_110218" data-name="Trazado 110218" d="M580.154,3954.8l-2.615-3.082,2.454-2.652-2.334-2.993.842-.656,2.89,3.708-2.426,2.625,2,2.362Z" transform="translate(-559.881 -3945.421)" fill="#999"/>
          <path id="Trazado_110219" data-name="Trazado 110219" d="M577.633,3954.8l-2.615-3.082,2.453-2.652-2.334-2.993.842-.656,2.89,3.708-2.426,2.625,2,2.362Z" transform="translate(-560.303 -3945.421)" fill="#999"/>
          <path id="Trazado_110220" data-name="Trazado 110220" d="M575.112,3954.8l-2.615-3.082,2.454-2.652-2.334-2.993.842-.656,2.89,3.708-2.426,2.625,2,2.362Z" transform="translate(-560.725 -3945.421)" fill="#999"/>
          <path id="Trazado_110221" data-name="Trazado 110221" d="M572.591,3954.8l-2.615-3.082,2.453-2.652-2.334-2.993.842-.656,2.89,3.708-2.426,2.625,2,2.362Z" transform="translate(-561.147 -3945.421)" fill="#999"/>
          <path id="Trazado_110222" data-name="Trazado 110222" d="M570.07,3954.8l-2.615-3.082,2.454-2.652-2.334-2.993.842-.656,2.89,3.708-2.426,2.625,2,2.362Z" transform="translate(-561.569 -3945.421)" fill="#999"/>
          <path id="Trazado_110223" data-name="Trazado 110223" d="M567.549,3954.8l-2.615-3.082,2.453-2.652-2.334-2.993.842-.656,2.89,3.708-2.426,2.625,2,2.362Z" transform="translate(-561.991 -3945.421)" fill="#999"/>
          <path id="Trazado_110224" data-name="Trazado 110224" d="M565.028,3954.8l-2.615-3.082,2.453-2.652-2.334-2.993.842-.656,2.89,3.708-2.426,2.625,2,2.362Z" transform="translate(-562.413 -3945.421)" fill="#999"/>
        </g>
        <path id="Trazado_110225" data-name="Trazado 110225" d="M606.333,3767.971c-12.518,0-16.35-4.84-16.517-5.06l.928-.709c.04.053,4.245,5.235,18.139,4.537,13.927-.7,16.233-5.935,16.254-5.988l1.081.442c-.1.244-2.615,5.979-17.277,6.71Q607.58,3767.972,606.333,3767.971Z" transform="translate(-533.757 -3717.521)" fill="#999"/>
        <rect id="Rectángulo_10412" data-name="Rectángulo 10412" width="135.397" height="1.167" transform="translate(6.027 172.085)" fill="#999"/>
        <rect id="Rectángulo_10413" data-name="Rectángulo 10413" width="139.171" height="1.167" transform="translate(4.26 163.997)" fill="#999"/>
        <rect id="Rectángulo_10414" data-name="Rectángulo 10414" width="1.167" height="47.546" transform="translate(73.454 172.669)" fill="#999"/>
        <path id="Trazado_110226" data-name="Trazado 110226" d="M642.862,3876.187l-1.167-.012.521-52.554c1.373-22.733.479-27.066.44-27.24l1.136-.265c.042.172.984,4.479-.41,27.546Z" transform="translate(-525.071 -3711.6)" fill="#999"/>
        <path id="Trazado_110227" data-name="Trazado 110227" d="M646.776,4155.065c-.019-.511-1.829-51.718-2.966-105.817-1.131-53.938-14.55-82.355-14.686-82.635l-.057-.254v-8.174l6.956-38.218,7.8-48.418,1.152.185-7.8,48.431-6.947,38.126.009,7.939c.971,2.106,13.644,30.591,14.743,82.995,1.136,54.09,2.948,105.291,2.966,105.8Z" transform="translate(-527.186 -3698.971)" fill="#999"/>
        <path id="Trazado_110228" data-name="Trazado 110228" d="M570.425,4155.046l-.226-47.909c-.012-.4-1.121-41.441.228-70.418,1.32-28.4,12.793-68.148,13.4-70.217v-8.712l-7.833-38.488-7.6-47.57,1.153-.185,7.593,47.545,7.852,38.638-.025,9.021c-.119.409-12.03,41.14-13.374,70.023-1.345,28.933-.237,69.934-.225,70.345l.226,47.921Z" transform="translate(-537.344 -3698.971)" fill="#999"/>
        <rect id="Rectángulo_10415" data-name="Rectángulo 10415" width="1.167" height="414.423" transform="translate(72.306 41.672) rotate(-0.494)" fill="#999"/>
        <path id="Trazado_110229" data-name="Trazado 110229" d="M569.115,3876.187l-.52-52.554c-1.393-23.037-.451-27.344-.41-27.516l1.136.269-.568-.134.57.131c-.04.174-.932,4.506.439,27.21l.521,52.583Z" transform="translate(-537.437 -3711.6)" fill="#999"/>
        <path id="Trazado_110230" data-name="Trazado 110230" d="M608.968,3804.453c-17.725,0-22.971-16.875-23.023-17.044l1.12-.335c.048.164,5.063,16.212,21.9,16.212h.146c16.95-.093,21.233-15.536,21.407-16.193l1.129.3c-.044.17-4.672,16.967-22.529,17.064Z" transform="translate(-534.405 -3713.114)" fill="#999"/>
        <path id="Trazado_110231" data-name="Trazado 110231" d="M642.469,3869.95l4.3-4.721,2.523.2s1.076.11.862-.849l-2.835-3.5s-1.326-1.475-1.757.222l-.144,2.951-3.841,4.627-.463,1.458Z" transform="translate(-525.168 -3700.824)" fill="#666"/>
        <g id="Grupo_56680" data-name="Grupo 56680" transform="translate(55.9 25.49)">
          <ellipse id="Elipse_4426" data-name="Elipse 4426" cx="17.549" cy="7.796" rx="17.549" ry="7.796" transform="translate(0.583 0.584)" fill="#fff"/>
          <path id="Trazado_110232" data-name="Trazado 110232" d="M607.812,3762.316c-10.168,0-18.132-3.682-18.132-8.38s7.964-8.381,18.132-8.381,18.131,3.682,18.131,8.381S617.98,3762.316,607.812,3762.316Zm0-15.594c-9.2,0-16.965,3.3-16.965,7.213s7.769,7.213,16.965,7.213,16.964-3.3,16.964-7.213S617.008,3746.722,607.812,3746.722Z" transform="translate(-589.68 -3745.555)" fill="#999"/>
        </g>
        <g id="Grupo_56684" data-name="Grupo 56684" transform="translate(64.529)">
          <g id="Grupo_56681" data-name="Grupo 56681" transform="translate(1.069)">
            <path id="Trazado_110233" data-name="Trazado 110233" d="M614.627,3735.323c0-6.131-3.613-11.1-8.07-11.1s-8.069,4.971-8.069,11.1c0,4.8,2.213,8.869,5.308,10.422v10.617h6.1v-10.937C612.683,3743.677,614.627,3739.816,614.627,3735.323Z" transform="translate(-597.903 -3723.637)" fill="#fff"/>
            <path id="Trazado_110234" data-name="Trazado 110234" d="M610.56,3757.029h-7.266v-10.85c-3.188-1.8-5.307-6.073-5.307-10.772,0-6.443,3.882-11.686,8.654-11.686s8.653,5.243,8.653,11.686c0,4.395-1.848,8.439-4.734,10.417Zm-6.1-1.167h4.931v-10.675l.273-.172c2.711-1.7,4.461-5.468,4.461-9.608,0-5.8-3.358-10.518-7.485-10.518s-7.487,4.719-7.487,10.518c0,4.425,2,8.4,4.986,9.9l.321.162Z" transform="translate(-597.987 -3723.721)" fill="#999"/>
          </g>
          <g id="Grupo_56682" data-name="Grupo 56682" transform="translate(0 13.402)">
            <rect id="Rectángulo_10416" data-name="Rectángulo 10416" width="18.925" height="3.246" rx="1.209" transform="translate(0.584 0.584)" fill="#fff"/>
            <path id="Trazado_110235" data-name="Trazado 110235" d="M615.17,3739.614h-16.1a2,2,0,0,1-2-1.994v-.424a2,2,0,0,1,2-2h16.1a2,2,0,0,1,1.994,2v.424A2,2,0,0,1,615.17,3739.614Zm-16.1-3.246a.829.829,0,0,0-.828.828v.424a.828.828,0,0,0,.828.827h16.1a.827.827,0,0,0,.827-.827v-.424a.827.827,0,0,0-.827-.828Z" transform="translate(-597.071 -3735.201)" fill="#999"/>
          </g>
          <g id="Grupo_56683" data-name="Grupo 56683" transform="translate(0 7.205)">
            <rect id="Rectángulo_10417" data-name="Rectángulo 10417" width="18.925" height="3.246" rx="1.209" transform="translate(0.584 0.583)" fill="#fff"/>
            <path id="Trazado_110236" data-name="Trazado 110236" d="M615.17,3734.306h-16.1a2,2,0,0,1-2-1.994v-.425a2,2,0,0,1,2-1.994h16.1a2,2,0,0,1,1.994,1.994v.425A2,2,0,0,1,615.17,3734.306Zm-16.1-3.246a.829.829,0,0,0-.828.827v.425a.829.829,0,0,0,.828.827h16.1a.827.827,0,0,0,.827-.827v-.425a.827.827,0,0,0-.827-.827Z" transform="translate(-597.071 -3729.893)" fill="#999"/>
          </g>
        </g>
        <g id="Grupo_56685" data-name="Grupo 56685" transform="translate(24.809 258.856)" opacity="0.33">
          <line id="Línea_269" data-name="Línea 269" x2="100.473" transform="translate(0 0.584)" fill="#fff"/>
          <rect id="Rectángulo_10418" data-name="Rectángulo 10418" width="100.474" height="1.167" transform="translate(0)"/>
        </g>
        <g id="Grupo_56686" data-name="Grupo 56686" transform="translate(24.809 267.032)" opacity="0.33">
          <line id="Línea_270" data-name="Línea 270" x2="100.473" transform="translate(0 0.583)" fill="#fff"/>
          <rect id="Rectángulo_10419" data-name="Rectángulo 10419" width="100.474" height="1.167" transform="translate(0)"/>
        </g>
        <path id="Trazado_110237" data-name="Trazado 110237" d="M546.7,3856.433l-1.127-.3c4.443-16.467.4-52.814.357-53.179l1.16-.132C547.13,3803.186,551.2,3839.752,546.7,3856.433Z" transform="translate(-541.164 -3710.478)" opacity="0.33"/>
        <path id="Trazado_110238" data-name="Trazado 110238" d="M664.774,3856.219c-4.5-16.688.218-51.712.267-52.064l1.156.16c-.048.349-4.737,35.14-.3,51.6Z" transform="translate(-521.533 -3710.254)" opacity="0.33"/>
        <path id="Trazado_110239" data-name="Trazado 110239" d="M569.382,3869.178l-4.3-4.721-2.523.2s-1.075.111-.86-.849l2.833-3.5s1.327-1.476,1.758.221l.142,2.951,3.842,4.628.462,1.457Z" transform="translate(-538.47 -3700.954)" fill="#666"/>
        <path id="Trazado_110240" data-name="Trazado 110240" d="M583.021,3951.206l-4.3-4.722-2.522.2s-1.076.111-.862-.849l2.833-3.5s1.327-1.476,1.758.221l.144,2.951,3.841,4.629.462,1.457Z" transform="translate(-536.186 -3687.22)" fill="#666"/>
        <path id="Trazado_110241" data-name="Trazado 110241" d="M603.189,3867.352l-4.3-4.722-2.523.2s-1.076.111-.86-.849l2.833-3.5s1.326-1.476,1.757.221l.144,2.951,3.841,4.629.464,1.457Z" transform="translate(-532.81 -3701.26)" fill="#666"/>
        <path id="Trazado_110242" data-name="Trazado 110242" d="M606.909,3950.673l4.3-4.722,2.523.2s1.076.111.86-.849l-2.833-3.5s-1.326-1.476-1.757.22l-.144,2.952-3.841,4.629-.464,1.457Z" transform="translate(-531.121 -3687.31)" fill="#666"/>
        <path id="Trazado_110243" data-name="Trazado 110243" d="M606.909,3950.843l4.3,4.722,2.523-.2s1.076-.111.86.849l-2.833,3.5s-1.326,1.474-1.757-.222l-.144-2.951-3.841-4.628-.464-1.458Z" transform="translate(-531.121 -3685.759)" fill="#666"/>
        <path id="Trazado_110244" data-name="Trazado 110244" d="M606.909,3802.082l4.3-4.721,2.523.2s1.076.111.86-.848l-2.833-3.5s-1.326-1.476-1.757.222l-.144,2.95-3.841,4.629-.464,1.458Z" transform="translate(-531.121 -3712.187)" fill="#666"/>
        <path id="Trazado_110245" data-name="Trazado 110245" d="M587.669,3787.64l-5.138-3.8-.063-2.53s0-1.081-.932-.77l-3.2,3.178s-1.332,1.472.4,1.726l2.95-.161,5,3.348,1.5.31Z" transform="translate(-535.76 -3714.217)" fill="#666"/>
        <path id="Trazado_110246" data-name="Trazado 110246" d="M548,3803.272l.051-6.388,2.009-1.538s.874-.636.074-1.207l-4.449-.717s-1.973-.211-1.16,1.339l1.864,2.292.231,6.011.628,1.394Z" transform="translate(-541.373 -3712.052)" fill="#666"/>
        <path id="Trazado_110247" data-name="Trazado 110247" d="M606.909,3802.252l4.3,4.721,2.523-.2s1.076-.111.86.848l-2.833,3.5s-1.326,1.475-1.757-.222l-.144-2.95-3.841-4.628-.464-1.458Z" transform="translate(-531.121 -3710.637)" fill="#666"/>
        <path id="Trazado_110248" data-name="Trazado 110248" d="M569.382,3868.528l-4.3,4.721-2.523-.2s-1.075-.111-.86.847l2.833,3.5s1.327,1.476,1.758-.222l.142-2.95,3.842-4.629.462-1.458Z" transform="translate(-538.47 -3699.541)" fill="#666"/>
        <path id="Trazado_110249" data-name="Trazado 110249" d="M603.189,3868.528l-4.3,4.721-2.523-.2s-1.076-.111-.86.847l2.833,3.5s1.326,1.476,1.757-.222l.144-2.95,3.841-4.629.464-1.458Z" transform="translate(-532.81 -3699.541)" fill="#666"/>
      </g>
      <g id="Grupo_56688" data-name="Grupo 56688" transform="translate(220.896 91.376)" opacity="0.81">
        <path id="Trazado_110250" data-name="Trazado 110250" d="M548.615,3857.04s-17.634-4.06-22.1-16.953l19.491-35.125s1.1-2.167,3.031-2.471l-3.136,13.623a43.7,43.7,0,0,0-1.106,8.96c-.058,3.065-.07,7.027.144,10.075.406,5.787,1.575,13.973,1.575,13.973Z" transform="translate(-525.93 -3801.909)" fill="#999"/>
        <path id="Trazado_110251" data-name="Trazado 110251" d="M548.7,3857.706a.567.567,0,0,1-.131-.014c-.733-.169-18-4.282-22.522-17.331a.589.589,0,0,1,.041-.474l19.492-35.124c.041-.081,1.251-2.418,3.45-2.766a.584.584,0,0,1,.66.708l-3.135,13.623a43.143,43.143,0,0,0-1.092,8.841c-.055,2.866-.073,6.932.142,10.022.4,5.7,1.559,13.85,1.57,13.932l2.089,7.851a.583.583,0,0,1-.565.731Zm-21.462-17.483c3.833,10.554,16.976,15.018,20.639,16.075l-1.843-6.943c-.025-.149-1.19-8.34-1.592-14.081-.218-3.134-.2-7.238-.145-10.127a44.4,44.4,0,0,1,1.121-9.08l2.9-12.588a5.1,5.1,0,0,0-1.7,1.834Z" transform="translate(-526.014 -3801.992)" fill="#4d4d4d"/>
      </g>
      <g id="Grupo_56689" data-name="Grupo 56689" transform="translate(243.417 68.771)" opacity="0.71">
        <path id="Trazado_110252" data-name="Trazado 110252" d="M614.209,3910.216l.642-42.524.312-63.162a65.531,65.531,0,0,1-9.223-2.833,13.725,13.725,0,0,0,3.3.619l.057-.323c.78.5,3.719,2.241,6.269,2.059l2.055-8.739-2.454-2.056-5.768,8.172,1.295-7.23-4.265-1.476-4.568,6.4a7.175,7.175,0,0,0,2.1,1.724c-.727-.335-1.434-.693-2.1-1.07a11.03,11.03,0,0,1-5.411-7.436c.281,1.883,5.411,6.082,5.411,6.082l2.056-3.113v-6.853l-5.481-2.283-2,6.121a8.179,8.179,0,0,1-.162-1.147l1.167-4.973-2.741-3.046-3.5,5.634a6.413,6.413,0,0,0,4.36,2.37,22.582,22.582,0,0,1-2.332-.188,3.872,3.872,0,0,1-2.333-1.522l-2.707,1.117c-3.417,2.437-42.38,15.192-42.38,15.192,1.792,2.764,4.986,12.149,7.162,18.9a47.535,47.535,0,0,1,2.293,14.572V3894.7l3.452,19.694s5.684,33.3,7.222,50.554,0,28.221,0,28.221l-9.049,38.17s-4.873,1.827,16.12,5.481,43.418-2.132,43.418-2.132c-.336-4.061-.677-40.5-.677-40.5Z" transform="translate(-545.222 -3782.546)" fill="#ccc"/>
        <path id="Trazado_110253" data-name="Trazado 110253" d="M588.031,4038.684a88.271,88.271,0,0,1-15.042-1.209c-16.858-2.934-17.019-4.671-17.089-5.411a1.127,1.127,0,0,1,.563-1.039l8.988-37.911c0-.055,1.5-11.052-.014-28.035-1.518-17.036-7.16-50.175-7.217-50.507l-3.45-19.692-.009-55.588A46.891,46.891,0,0,0,552.5,3824.9c-3.228-10.02-5.747-16.685-7.1-18.765a.584.584,0,0,1,.309-.874c13.446-4.4,39.577-13.226,42.223-15.112a.58.58,0,0,1,.116-.064l2.665-1.1a.589.589,0,0,1,.072-.445l3.5-5.634a.583.583,0,0,1,.445-.274.59.59,0,0,1,.486.191l2.741,3.046a.558.558,0,0,1,.061.08.59.59,0,0,1,.251-.219.579.579,0,0,1,.468-.009l5.482,2.283a.585.585,0,0,1,.358.54v5.962l1.453-2.038a.588.588,0,0,1,.667-.212l4.263,1.475a.585.585,0,0,1,.384.655l-.832,4.644L614.77,3793a.587.587,0,0,1,.4-.243.572.572,0,0,1,.449.133l2.455,2.056a.582.582,0,0,1,.193.58l-2.056,8.74a.583.583,0,0,1-.383.42l-.312,63.091-.641,42.519,1.536,83.956c0,.369.344,36.474.675,40.466a.583.583,0,0,1-.435.613A129.189,129.189,0,0,1,588.031,4038.684ZM557.1,4032c.293.376,2.309,1.922,16.087,4.322,18.972,3.3,39.373-1.215,42.7-2.008-.323-5.812-.633-38.608-.647-40.047l-1.536-83.96v-.02l.641-42.523.309-62.688a67.134,67.134,0,0,1-8.853-2.755.584.584,0,0,1,.393-1.1,13.76,13.76,0,0,0,2.675.553.527.527,0,0,1,.051-.075.588.588,0,0,1-.024-.3l1.208-6.737-3.381-1.17-4.046,5.67a6.854,6.854,0,0,0,1.643,1.252.584.584,0,0,1-.53,1.039c-.776-.359-1.5-.728-2.143-1.094a11.581,11.581,0,0,1-5.66-7.657,1.379,1.379,0,0,1-.041-.2h0l0-.016c-.057-.283-.1-.528-.123-.724a.6.6,0,0,1-.2.029,22.744,22.744,0,0,1-2.394-.192,4.218,4.218,0,0,1-2.428-1.4l-2.248.927c-3.558,2.394-36.416,13.239-41.789,15.005,1.834,3.349,4.7,11.723,6.845,18.4a47.986,47.986,0,0,1,2.322,14.75v55.488l3.443,19.594c.058.335,5.708,33.519,7.229,50.6,1.526,17.126.013,28.242,0,28.353l-9.059,38.224a.584.584,0,0,1-.362.413A.543.543,0,0,0,557.1,4032Zm52.9-230.227a11.883,11.883,0,0,0,5.174,1.786l1.87-7.95-1.692-1.418Zm-10.544-4.665a10.425,10.425,0,0,0,2,1.767l0-.006C601.076,3798.554,600.307,3797.9,599.462,3797.112Zm-2.324-4.632c.343,1.172,2.84,3.6,4.676,5.164l1.6-2.422v-6.289l-4.538-1.891-1.751,5.372A.617.617,0,0,0,597.137,3792.479Zm-5.131-3.692a5.793,5.793,0,0,0,3.69,1.849.582.582,0,0,1,.19.051l1-4.263-2.017-2.243Z" transform="translate(-545.305 -3782.629)" fill="#4d4d4d"/>
      </g>
      <rect id="Rectángulo_10420" data-name="Rectángulo 10420" width="59.59" height="1.167" transform="translate(253.457 168.022)" fill="#999"/>
      <path id="Trazado_110254" data-name="Trazado 110254" d="M584.7,3976.356l-1.087-5.735,1.146-.217,1.088,5.737Zm-2.175-11.47-1.088-5.734,1.148-.217,1.088,5.734Zm-2.175-11.469-1.089-5.734,1.148-.218,1.088,5.733Zm-2.176-11.471-1.088-5.734,1.146-.216,1.088,5.734ZM576,3930.477l-1.087-5.734,1.146-.216,1.088,5.735Zm-2.175-11.469-1.088-5.735,1.148-.217,1.087,5.735Zm-2.175-11.47-1.088-5.734,1.148-.217,1.087,5.734Zm-2.176-11.47-.693-3.658-.093-2.2,1.167-.045.083,2.113.684,3.57Zm-1.018-11.688-.23-5.833,1.167-.045.23,5.833ZM568,3872.707l-.147-5.836,1.167-.03.147,5.837Zm-.294-11.671-.148-5.835,1.167-.03.148,5.835Zm-.3-11.67-.147-5.835,1.167-.031.147,5.835Zm-.3-11.67-.147-5.836,1.167-.03.147,5.836Zm-.294-11.671-.148-5.836,1.167-.03.148,5.836Zm-.3-11.67-.147-5.836,1.167-.029.147,5.835Zm-.3-11.672-.147-5.835,1.167-.029.147,5.834Z" transform="translate(-298.409 -3711.483)" fill="#454545"/>
      <path id="Trazado_110255" data-name="Trazado 110255" d="M612.024,3951.487h-.393v-1.167h.393Zm-6.231,0h-5.837v-1.167h5.837Zm-11.674,0h-5.837v-1.167h5.837Zm-11.674,0h-5.837v-1.167h5.837Zm-11.674,0h-5.837v-1.167h5.837Z" transform="translate(-298.602 -3685.783)" fill="#454545"/>
    </g>
  </g>
</svg>
