<svg xmlns="http://www.w3.org/2000/svg" width="207.087" height="472.291" viewBox="0 0 207.087 472.291">
  <g id="Grupo_56731" data-name="Grupo 56731" transform="translate(-1116.028 -3673.044)">
    <rect id="Rectángulo_10435" data-name="Rectángulo 10435" width="207.087" height="472.291" rx="15.458" transform="translate(1116.028 3673.043)" fill="#fff"/>
    <g id="Grupo_56730" data-name="Grupo 56730" transform="translate(1125.169 3687.737)">
      <g id="Grupo_56717" data-name="Grupo 56717" transform="translate(0 83.937)" opacity="0.81">
        <path id="Trazado_110409" data-name="Trazado 110409" d="M1146.891,3776.679s1.692-4.745,3.11-9.983c0,0-.982-15.511-3.928-14.513s-4.474,12.549-4.474,12.549l-2.4,7.42-1.964,5.183s-1.638,3.666-2.347,5.566c-.413,1.105-3.669,8.949-4.324,10.422a67.168,67.168,0,0,1-3.437,7.119c-.547.953-4.46,7.285-2.987,6.958s5.729,1.151,7.693,3.279,7.794,2.674,11.183,5.021a15.282,15.282,0,0,0,9.978,2.566s-4.269-17.4-5.556-25.326A69.519,69.519,0,0,1,1146.891,3776.679Z" transform="translate(-1123.185 -3751.51)" fill="#999"/>
        <path id="Trazado_110410" data-name="Trazado 110410" d="M1151.752,3819.1a15.889,15.889,0,0,1-8.969-2.753,22.553,22.553,0,0,0-5.672-2.418c-2.3-.75-4.477-1.461-5.614-2.693-1.885-2.042-5.973-3.334-7.1-3.092a.867.867,0,0,1-.92-.312c-.463-.64-.132-1.915,2.96-7.117l.267-.454a59.05,59.05,0,0,0,3.033-6.2l.375-.859c.655-1.474,3.917-9.338,4.308-10.387.709-1.9,2.294-5.45,2.361-5.6l1.951-5.15,2.391-7.393c.238-1.882,1.714-11.88,4.87-12.95a1.455,1.455,0,0,1,1.306.188c2.491,1.67,3.312,12.689,3.45,14.882a.587.587,0,0,1-.021.2c-1.314,4.848-2.879,9.332-3.1,9.957a69.474,69.474,0,0,0,.546,16.023c1.269,7.808,5.5,25.1,5.547,25.277a.629.629,0,0,1-.52.771A11.114,11.114,0,0,1,1151.752,3819.1Zm-26.995-12.242a12.772,12.772,0,0,1,7.663,3.527c.915.991,2.938,1.652,5.08,2.352a23.418,23.418,0,0,1,6,2.579,14.841,14.841,0,0,0,8.836,2.514c-.818-3.371-4.265-17.714-5.391-24.657a70.811,70.811,0,0,1-.551-16.427.582.582,0,0,1,.034-.146c.015-.046,1.678-4.721,3.068-9.836-.316-4.847-1.369-12.8-2.89-13.814-.1-.069-.153-.06-.206-.042-1.875.635-3.481,7.722-4.052,12.038l-2.427,7.532-1.974,5.212c-.031.07-1.652,3.7-2.344,5.563-.41,1.1-3.654,8.917-4.338,10.458l-.37.848a60.556,60.556,0,0,1-3.1,6.33l-.277.469a32.859,32.859,0,0,0-2.886,5.5Z" transform="translate(-1123.312 -3751.637)" fill="#4d4d4d"/>
      </g>
      <path id="Trazado_110411" data-name="Trazado 110411" d="M1224.971,3753.777l4.568,4.25-.757,1.757,1.579,1.551s4.219-2.337,4.354-4.805l-.885-1.4-2.255,1.005-5.341-3.589-1.266-.388-.644.595Z" transform="translate(-1097.56 -3667.566)" fill="#999"/>
      <path id="Trazado_110412" data-name="Trazado 110412" d="M1225.784,3753.675,1223,3759.26l1.326,1.377-.932,2.007s-4.771-.7-5.766-2.965l.338-1.618,2.465.148,3.736-5.238,1.05-.809.812.331Z" transform="translate(-1099.267 -3667.566)" fill="#999"/>
      <g id="Grupo_56718" data-name="Grupo 56718" transform="translate(19.353 22.951)">
        <path id="Trazado_110413" data-name="Trazado 110413" d="M1275.93,3768.765s-13.517-5.833-18.606-9.233c0,0-4.945-2.386-5.153-13.176s.622-18.259,2.283-23.343l2.074-7.885s-6.017-9.338-22.823-11.516c0,0-11.309-1.037-13.9,1.66,0,0-6.848,25.625-16.185,37.038,0,0-1.972,7.574-22.721,11.826l-24.485,5.292s-11.308,2.385-13.073,11.619c0,0-6.847,7.367-3.112,34.755l1.038,5.6,12.035,62.042,17.534,69.511.725,2.49v6.951s-19.5,27.909-21.787,48.657S1148,4115.231,1148,4115.231s81.437,9.821,129.149,3.274l-1.215-109.356a93.394,93.394,0,0,0-8.3-36.727l-8.921-16.807s-1.557-1.245-1.246-12.657l7.366-38.49,8.818-27.7,6.64-12.243s8.646-11.273,7.54-20.68l-3.181-11.065s-.416-14.525.138-19.92l4.011-14.386,1.384-13s.968-5.948-3.043-9.268A100.893,100.893,0,0,0,1275.93,3768.765Z" transform="translate(-1138.637 -3702.945)" fill="#fff"/>
        <path id="Trazado_110414" data-name="Trazado 110414" d="M1237.132,4121.3c-42.762,0-88.485-5.437-89.1-5.51l-.412-.049,0-.416c-.005-.934-.481-93.689,1.78-114.228,2.192-19.931,20.375-46.708,21.783-48.754v-6.736l-.708-2.427-17.537-69.526-12.041-62.066-1.039-5.607c-3.531-25.907,2.284-34.022,3.139-35.054,1.878-9.329,13.3-11.843,13.413-11.868l24.481-5.288c20.112-4.124,22.347-11.417,22.367-11.49l.09-.176c9.166-11.2,16.024-36.606,16.093-36.861l.115-.2c2.721-2.827,13.814-1.847,14.285-1.8,16.846,2.184,22.925,11.341,23.176,11.729l.112.174-2.127,8.086c-1.726,5.291-2.465,12.875-2.266,23.214.2,10.315,4.844,12.739,4.89,12.762,5.047,3.369,18.449,9.166,18.583,9.223l.048.025a101.671,101.671,0,0,1,11.272,7.48c4.17,3.452,3.249,9.454,3.208,9.707l-1.38,12.977-4.026,14.462c-.511,5.054-.15,18.7-.124,19.721l3.166,11.01c1.131,9.562-7.259,20.629-7.617,21.1l-6.6,12.181-8.785,27.619-7.354,38.436c-.281,10.573,1.05,12.166,1.108,12.228l.09.121,8.924,16.807a94.845,94.845,0,0,1,8.354,36.959l1.221,109.754-.413.057C1265.456,4120.693,1251.456,4121.3,1237.132,4121.3Zm-88.571-6.4c6.317.736,82.787,9.4,128.205,3.281l-1.211-108.939a93.8,93.8,0,0,0-8.257-36.537l-8.879-16.725c-.42-.482-1.61-2.76-1.331-12.947l7.375-38.565,8.832-27.755,6.675-12.325c.125-.173,8.556-11.3,7.484-20.4l-3.185-11.107c-.016-.6-.408-14.618.142-19.981l4.026-14.465,1.368-12.926c.012-.083.877-5.751-2.875-8.856a100.333,100.333,0,0,0-11.115-7.376c-.84-.363-13.651-5.918-18.655-9.264-.156-.069-5.153-2.6-5.364-13.558-.2-10.446.555-18.133,2.305-23.5l2.012-7.648c-.906-1.244-7.228-9.176-22.373-11.14-3.027-.278-11.286-.55-13.423,1.44-.533,1.953-7.251,26.034-16.181,37.017-.331,1-3.333,8.02-23.049,12.062l-24.479,5.29c-.112.024-11.026,2.436-12.71,11.248l-.025.13-.092.1c-.067.074-6.639,7.627-2.993,34.374l1.035,5.581,12.034,62.038,17.528,69.485.74,2.6v7.1l-.084.122c-.2.279-19.463,28.05-21.7,48.44C1148.161,4020.983,1148.529,4108.093,1148.561,4114.908Z" transform="translate(-1138.734 -3703.04)" fill="#999"/>
      </g>
      <ellipse id="Elipse_4429" data-name="Elipse 4429" cx="2.801" cy="4.202" rx="2.801" ry="4.202" transform="translate(28.933 109.107)" fill="#999"/>
      <path id="Trazado_110415" data-name="Trazado 110415" d="M1260.285,3830.01l-5.2-19.679c-4.327-13.8-5.069-21.747-6.191-33.772-.144-1.556-.3-3.182-.463-4.9-1.408-14.484-6.5-18.4-6.548-18.444l.555-.76c.222.162,5.474,4.135,6.93,19.113.167,1.716.319,3.342.464,4.9,1.117,11.967,1.853,19.873,6.156,33.6l5.207,19.7Z" transform="translate(-1093.084 -3667.491)" fill="#999"/>
      <path id="Trazado_110416" data-name="Trazado 110416" d="M1215.108,3902.566q-2.27,0-4.721-.038c-32.42-.515-46.041-7.663-46.175-7.734l.447-.828c.132.07,13.594,7.112,45.744,7.621,32.032.523,40.018-4.336,40.1-4.386l.511.791C1250.706,3898.188,1243.609,3902.566,1215.108,3902.566Z" transform="translate(-1112.885 -3631.416)" fill="#999"/>
      <path id="Trazado_110417" data-name="Trazado 110417" d="M1215.9,3910.672q-2.758,0-5.78-.1c-30.357-1.029-44.77-8.175-44.912-8.248l.427-.839c.139.073,14.4,7.125,44.517,8.146,30.024,1,39.957-6.262,40.056-6.335l.573.747C1250.407,3904.33,1241.808,3910.672,1215.9,3910.672Z" transform="translate(-1112.63 -3629.5)" fill="#999"/>
      <path id="Trazado_110418" data-name="Trazado 110418" d="M1223.17,3760.484a22.792,22.792,0,0,1-4.969-.567c-16.781-3.727-30.738-21.674-30.878-21.856l.745-.573c.138.178,13.892,17.857,30.336,21.511,16.21,3.606,22.716-11.492,22.983-12.137l.87.362C1242.194,3747.371,1236.572,3760.484,1223.17,3760.484Z" transform="translate(-1106.993 -3671.308)" fill="#999"/>
      <path id="Trazado_110419" data-name="Trazado 110419" d="M1234.527,3722.2c-17.637,0-32.2-10.154-32.353-10.262l.545-.768c.158.112,15.951,11.1,34.386,10.013l.056.939C1236.278,3722.179,1235.4,3722.2,1234.527,3722.2Z" transform="translate(-1103.207 -3678.015)" fill="#999"/>
      <path id="Trazado_110420" data-name="Trazado 110420" d="M1234.313,3716.407c-15.812,0-30.753-10.185-30.922-10.3l.535-.774c.187.128,18.867,12.862,36.3,9.607l.172.926A33.314,33.314,0,0,1,1234.313,3716.407Z" transform="translate(-1102.897 -3679.505)" fill="#999"/>
      <path id="Trazado_110421" data-name="Trazado 110421" d="M1212.235,4109.976l-.1-97.667c.683-15.439-2.593-49.411-2.625-49.753l-.832-23.543-1.246-63.778c.016-.295,1.55-25.936,3.742-38.134,2.152-11.968-7.148-24.268-7.242-24.391-.173-.351-12.173-26.483-18.47-45.79-6.187-18.961-16.012-21.243-16.109-21.264l.189-.922c.424.088,10.44,2.354,16.813,21.895,6.282,19.253,18.258,45.336,18.379,45.6.34.427,9.591,12.667,7.366,25.042-2.182,12.142-3.712,37.729-3.729,37.986l1.247,63.731.83,23.51c.03.313,3.312,34.351,2.628,49.836l.1,97.645Z" transform="translate(-1111.573 -3669.46)" fill="#999"/>
      <path id="Trazado_110422" data-name="Trazado 110422" d="M1227.848,4116.369l-.941-.028c.036-1.251,3.558-125.312-2.368-144.519-5.975-19.365-4.189-44.533-4.17-44.784l7.058-58.121c.024-.326,2.658-34.783,1.132-51.151-.491-5.252-1.6-11.771-2.773-18.671-2.521-14.821-5.658-33.265-4.378-49.468l3.161-29.479.936.1-3.16,29.464c-1.27,16.073,1.857,34.456,4.368,49.224,1.178,6.92,2.29,13.454,2.782,18.741,1.535,16.45-1.106,50.985-1.132,51.332l-7.058,58.119c-.016.229-1.788,25.224,4.134,44.416C1231.41,3990.9,1228,4111.255,1227.848,4116.369Z" transform="translate(-1098.636 -3675.728)" fill="#999"/>
      <path id="Trazado_110423" data-name="Trazado 110423" d="M1164.945,3828.18l-3.575-11.681.383-.169c.318-.142,32.168-14.062,58.681-9.519,26.347,4.511,58.073,8.669,58.391,8.71l2.269.359.088.275c.089.275,2.118,6.76-2.094,10.757l-.169.161-.231-.038-31.228-5.188c-.363-.073-34.784-7-45.959-3.747-11.287,3.283-35.867,9.9-36.113,9.961Zm-2.43-11.155,3.065,10.011c3.37-.909,25.213-6.8,35.656-9.84,11.395-3.311,44.971,3.438,46.392,3.728l30.976,5.145c3.127-3.17,2.077-8.138,1.76-9.351l-1.674-.265c-.306-.039-32.049-4.2-58.416-8.715C1195.625,3803.524,1166.2,3815.467,1162.516,3817.025Z" transform="translate(-1113.609 -3653.867)" fill="#999"/>
      <path id="Trazado_110424" data-name="Trazado 110424" d="M1206.054,3910.591l-3.154-3.156,2.431-3.333-3.016-3.274.691-.637,3.541,3.843-2.412,3.307,2.586,2.584Z" transform="translate(-1103.171 -3629.829)" fill="#999"/>
      <path id="Trazado_110425" data-name="Trazado 110425" d="M1209.641,3910.591l-3.154-3.156,2.431-3.333-3.016-3.274.691-.637,3.541,3.843-2.412,3.307,2.586,2.584Z" transform="translate(-1102.257 -3629.829)" fill="#999"/>
      <path id="Trazado_110426" data-name="Trazado 110426" d="M1213.5,3910.591l-3.154-3.156,2.43-3.333-3.015-3.274.691-.637,3.539,3.843-2.411,3.307,2.586,2.584Z" transform="translate(-1101.272 -3629.829)" fill="#999"/>
      <path id="Trazado_110427" data-name="Trazado 110427" d="M1217.161,3910.591l-3.157-3.156,2.432-3.333-3.016-3.274.691-.637,3.541,3.843-2.412,3.307,2.586,2.584Z" transform="translate(-1100.341 -3629.829)" fill="#999"/>
      <path id="Trazado_110428" data-name="Trazado 110428" d="M1220.679,3909.988l-3.154-3.156,2.431-3.333-3.016-3.274.691-.637,3.541,3.843-2.412,3.307,2.586,2.584Z" transform="translate(-1099.443 -3629.983)" fill="#999"/>
      <path id="Trazado_110429" data-name="Trazado 110429" d="M1186.6,3909.647l-2.849-3.359,2.739-2.96-2.675-3.429.743-.579,3.166,4.059-2.714,2.937,2.31,2.724Z" transform="translate(-1107.905 -3630.051)" fill="#999"/>
      <path id="Trazado_110430" data-name="Trazado 110430" d="M1190.165,3910l-2.85-3.359,2.739-2.96-2.674-3.429.743-.579,3.167,4.059-2.717,2.937,2.311,2.724Z" transform="translate(-1106.995 -3629.96)" fill="#999"/>
      <path id="Trazado_110431" data-name="Trazado 110431" d="M1194.009,3910.387l-2.851-3.359,2.739-2.961-2.675-3.429.743-.578,3.166,4.059-2.715,2.937,2.311,2.724Z" transform="translate(-1106.016 -3629.862)" fill="#999"/>
      <path id="Trazado_110432" data-name="Trazado 110432" d="M1175.441,3907.3l-2.851-3.359,2.739-2.961-2.674-3.429.743-.579,3.167,4.059-2.717,2.936,2.311,2.725Z" transform="translate(-1110.749 -3630.649)" fill="#999"/>
      <path id="Trazado_110433" data-name="Trazado 110433" d="M1171.947,3906.3l-2.851-3.359,2.739-2.961-2.674-3.429.743-.579,3.167,4.059-2.717,2.937,2.311,2.724Z" transform="translate(-1111.64 -3630.905)" fill="#999"/>
      <path id="Trazado_110434" data-name="Trazado 110434" d="M1169.064,3905.314l-2.849-3.359,2.739-2.961-2.675-3.429.743-.579,3.166,4.059-2.715,2.936,2.31,2.725Z" transform="translate(-1112.374 -3631.156)" fill="#999"/>
      <path id="Trazado_110435" data-name="Trazado 110435" d="M1179.01,3908.257l-2.851-3.359,2.739-2.961-2.674-3.429.743-.579,3.167,4.059-2.717,2.937,2.311,2.724Z" transform="translate(-1109.839 -3630.405)" fill="#999"/>
      <path id="Trazado_110436" data-name="Trazado 110436" d="M1182.853,3908.642l-2.849-3.36,2.739-2.961-2.675-3.429.743-.578,3.166,4.059-2.715,2.937,2.31,2.726Z" transform="translate(-1108.859 -3630.308)" fill="#999"/>
      <path id="Trazado_110437" data-name="Trazado 110437" d="M1197.646,3910.751l-2.851-3.359,2.739-2.961L1194.86,3901l.743-.579,3.167,4.059-2.717,2.937,2.311,2.724Z" transform="translate(-1105.088 -3629.77)" fill="#999"/>
      <path id="Trazado_110438" data-name="Trazado 110438" d="M1201.206,3910.522l-2.849-3.359,2.739-2.961-2.675-3.429.743-.579,3.166,4.059-2.715,2.936,2.31,2.725Z" transform="translate(-1104.18 -3629.828)" fill="#999"/>
      <path id="Trazado_110439" data-name="Trazado 110439" d="M1230.712,3906.627l-2.906-2.582,2.177-2.653-2.619-2.528.654-.676,3.244,3.131-2.155,2.624,2.229,1.982Z" transform="translate(-1096.786 -3630.34)" fill="#999"/>
      <path id="Trazado_110440" data-name="Trazado 110440" d="M1227.8,3907.521l-2.9-2.582,2.175-2.653-2.618-2.527.654-.676,3.243,3.13-2.153,2.624,2.228,1.981Z" transform="translate(-1097.527 -3630.112)" fill="#999"/>
      <path id="Trazado_110441" data-name="Trazado 110441" d="M1225.138,3908.493l-3.206-2.766,2.418-2.86-2.931-2.745.642-.687,3.586,3.355-2.393,2.833,2.5,2.156Z" transform="translate(-1098.301 -3630.021)" fill="#999"/>
      <path id="Trazado_110442" data-name="Trazado 110442" d="M1233.04,3905.833l-2.565-2.482,1.92-2.549-2.31-2.428.681-.649,2.862,3.006-1.9,2.522,1.967,1.9Z" transform="translate(-1096.092 -3630.458)" fill="#999"/>
      <path id="Trazado_110443" data-name="Trazado 110443" d="M1183.392,4091.543l-.941-.006,1.038-159.613,1.867-62.67v-57.028h.941v57.042l-1.866,62.672Z" transform="translate(-1108.235 -3652.254)" fill="#999"/>
      <path id="Trazado_110444" data-name="Trazado 110444" d="M1162.926,4093.189l-.941-.03c.026-.806,2.541-81.061,3.475-115.657.9-33.269,11.159-44.4,12.475-45.691l1.187-7.506-27.514-126.989.919-.2,27.555,127.16-.015.086-1.252,7.913-.12.111c-.114.1-11.366,10.81-12.292,45.139C1165.467,4012.125,1162.951,4092.382,1162.926,4093.189Z" transform="translate(-1116.098 -3656.105)" fill="#999"/>
      <g id="Grupo_56719" data-name="Grupo 56719" transform="translate(34.343 141.012)">
        <rect id="Rectángulo_10436" data-name="Rectángulo 10436" width="0.94" height="1.255" transform="translate(0 0.199) rotate(-12.232)" fill="#999"/>
        <path id="Trazado_110445" data-name="Trazado 110445" d="M1162,4087.944l-.941-.03.079-2.514.941.03Zm.154-5.026-.941-.029.078-2.51.941.029Zm.155-5.02-.941-.029.078-2.509.941.029Zm.154-5.017-.941-.03.078-2.508.941.03Zm.153-5.017-.941-.03.078-2.509.941.03Zm.154-5.018-.941-.027.075-2.509.941.03Zm.154-5.015-.941-.028.075-2.508.941.03Zm.149-5.012-.941-.03.076-2.508.941.03Zm.154-5.016-.941-.027.075-2.509.941.029Zm.152-5.016-.941-.026.075-2.509.941.029Zm.15-5.014-.941-.026.076-2.509.941.029Zm.152-5.012-.941-.029.075-2.506.941.026Zm.151-5.016-.941-.029.075-2.511.941.026Zm.147-5.018-.941-.029.073-2.429.473-.062.468.09Zm.152-5.006-.941-.027.073-2.507.941.027Zm.148-5.014-.941-.028.073-2.507.941.027Zm.146-5.015-.941-.027.073-2.506.941.028Zm.147-5.016-.941-.027.074-2.506.941.026Zm.147-5.013-.941-.026.073-2.507.941.026Zm.144-5.014-.941-.029.072-2.506.941.026Zm.143-5.019-.941-.026.07-2.507.941.026Zm.141-5.016-.941-.026.07-2.507.941.024Zm.138-5.017-.941-.024.022-.818q.023-.855.054-1.691l.941.034q-.032.832-.054,1.683Zm.189-4.995-.939-.052q.07-1.278.156-2.507l.939.065Q1165.545,3971.332,1165.476,3972.6Zm.355-4.981-.936-.083q.113-1.278.246-2.5l.936.1Q1165.946,3966.355,1165.831,3967.622Zm.542-4.963-.934-.121q.164-1.274.349-2.49l.931.142Q1166.535,3961.4,1166.373,3962.658Zm.748-4.931-.926-.162q.222-1.274.467-2.472l.923.186Q1167.345,3956.469,1167.121,3957.728Zm.988-4.883-.916-.211q.292-1.269.6-2.447l.91.239Q1168.4,3951.592,1168.109,3952.845Zm1.262-4.818-.9-.267q.371-1.258.757-2.4l.892.3Q1169.739,3946.787,1169.371,3948.027Zm1.584-4.716-.88-.331q.469-1.247.944-2.343l.865.373C1171.574,3941.729,1171.263,3942.494,1170.955,3943.311Zm1.964-4.557-.844-.414c.4-.825.8-1.57,1.181-2.242l.818.463C1173.7,3937.219,1173.314,3937.947,1172.919,3938.754Zm2.447-4.3-.782-.522a24.085,24.085,0,0,1,1.521-2.053l.723.6A23.473,23.473,0,0,0,1175.366,3934.458Zm2.585-4.373-.928-.146.391-2.475.929.146Zm.782-4.95-.929-.147.226-1.428-.187-.863.92-.2.225,1.034Zm-1.42-4.887-.53-2.45.918-.2.531,2.45Zm-1.061-4.9-.531-2.451.918-.2.531,2.45Zm-1.062-4.9-.531-2.449.92-.2.53,2.449Zm-1.062-4.9-.531-2.449.92-.2.531,2.448Zm-1.06-4.9-.531-2.451.919-.2.531,2.45Zm-1.062-4.9-.531-2.448.919-.2.531,2.448Zm-1.062-4.9-.531-2.448.92-.2.531,2.448Zm-1.06-4.9-.53-2.449.919-.2.53,2.449Zm-1.061-4.9-.531-2.45.919-.2.531,2.45Zm-1.062-4.9-.531-2.448.92-.2.531,2.448Zm-1.062-4.9-.53-2.449.919-.2.531,2.448Zm-1.06-4.9-.531-2.45.919-.2.531,2.45Zm-1.062-4.9-.531-2.448.92-.2.53,2.448Zm-1.062-4.9-.531-2.449.92-.2.531,2.45Zm-1.06-4.9-.531-2.449.918-.2.531,2.45Zm-1.062-4.9-.531-2.45.919-.2.531,2.45Zm-1.062-4.9-.531-2.448.92-.2.531,2.45Zm-1.062-4.9-.53-2.448.918-.2.531,2.449Zm-1.06-4.9-.531-2.45.919-.2.531,2.45Zm-1.062-4.9-.531-2.449.92-.2.53,2.449Zm-1.062-4.9-.531-2.449.92-.2.531,2.448Zm-1.061-4.9-.531-2.448.919-.2.531,2.448Zm-1.062-4.9-.531-2.45.92-.2.53,2.451Zm-1.062-4.9-.531-2.449.92-.2.531,2.448Zm-1.061-4.9-.531-2.448.919-.2.531,2.448Z" transform="translate(-1150.516 -3796.371)" fill="#999"/>
        <rect id="Rectángulo_10437" data-name="Rectángulo 10437" width="1.251" height="0.942" transform="translate(10.431 295.194) rotate(-88.21)" fill="#999"/>
      </g>
      <g id="Grupo_56720" data-name="Grupo 56720" transform="translate(36.691 141.008)">
        <rect id="Rectángulo_10438" data-name="Rectángulo 10438" width="0.94" height="1.254" transform="matrix(0.977, -0.212, 0.212, 0.977, 0, 0.199)" fill="#999"/>
        <path id="Trazado_110446" data-name="Trazado 110446" d="M1163.974,4088.785l-.941-.027.074-2.52.941.028Zm.148-5.04-.941-.026.073-2.518.941.026Zm.148-5.035-.941-.026.073-2.517.941.028Zm.145-5.033-.941-.03.074-2.514.941.027Zm.147-5.03-.941-.027.074-2.516.941.028Zm.147-5.031-.941-.026.073-2.515.941.026Zm.147-5.031-.941-.026.072-2.515.941.026Zm.144-5.027-.941-.026.073-2.515.941.027Zm.146-5.029-.941-.027.074-2.515.941.028Zm.147-5.03-.941-.028.073-2.515.941.028Zm.144-5.027-.941-.027.073-2.514.941.026Zm.146-5.03-.941-.026.069-2.442.944-.046Zm.144-5.03-.941-.026.073-2.52.941.026Zm.143-5.035-.941-.027.073-2.513.941.028Zm.144-5.019-.941-.027.072-2.515.941.028Zm.146-5.03-.941-.027.07-2.515.941.028Zm.143-5.029-.941-.028.072-2.513.941.026Zm.142-5.03-.941-.026.072-2.513.941.026Zm.141-5.027-.941-.026.07-2.515.941.026Zm.142-5.029-.941-.027.069-2.515.941.027Zm.139-5.031-.941-.026.07-2.515.941.028Zm.14-5.03-.941-.025.069-2.517.941.025Zm.137-5.032-.941-.024.072-2.517.941.031Zm.177-5.011-.939-.049q.068-1.282.149-2.515l.939.064Q1167.386,3971.836,1167.319,3973.11Zm.339-5-.939-.082q.111-1.28.239-2.508l.936.1Q1167.766,3966.842,1167.658,3968.113Zm.523-4.979-.934-.118q.162-1.28.34-2.5l.931.137Q1168.342,3961.863,1168.181,3963.133Zm.732-4.948-.927-.159q.217-1.272.456-2.48l.924.181Q1169.128,3956.922,1168.913,3958.185Zm.968-4.9-.919-.206c.189-.85.388-1.668.59-2.457l.911.233Q1170.164,3952.025,1169.881,3953.282Zm1.239-4.836-.9-.262q.367-1.263.747-2.417l.895.293Q1171.479,3947.2,1171.119,3948.446Zm1.555-4.739-.882-.328q.465-1.25.931-2.355l.867.365Q1173.133,3942.477,1172.674,3943.707Zm1.938-4.588-.848-.406c.4-.826.787-1.577,1.162-2.257l.823.455Q1175.2,3937.91,1174.612,3939.119Zm2.411-4.336-.789-.512c.494-.764,1-1.463,1.488-2.08l.735.587C1177.982,3933.37,1177.5,3934.044,1177.022,3934.782Zm2.738-4.32-.929-.148.394-2.481.929.146Zm.786-4.964-.929-.148.284-1.8-.109-.506.919-.2.148.679Zm-1.286-4.907-.532-2.456.92-.2.531,2.456Zm-1.064-4.912-.532-2.456.919-.2.533,2.456Zm-1.064-4.912-.532-2.456.919-.2.532,2.456Zm-1.064-4.912-.532-2.456.92-.2.532,2.456Zm-1.065-4.912-.531-2.456.919-.2.532,2.456Zm-1.063-4.912-.532-2.456.919-.2.532,2.456Zm-1.065-4.912-.532-2.456.92-.2.532,2.456Zm-1.063-4.913-.532-2.456.919-.2.532,2.456Zm-1.064-4.912-.533-2.456.92-.2.532,2.456Zm-1.065-4.912-.532-2.456.92-.2.532,2.456Zm-1.063-4.912-.533-2.456.919-.2.533,2.456Zm-1.065-4.912-.532-2.456.92-.2.531,2.456Zm-1.064-4.912-.532-2.456.918-.2.533,2.456Zm-1.064-4.912-.532-2.456.918-.2.532,2.456Zm-1.064-4.912-.532-2.457.92-.2.531,2.456Zm-1.065-4.913-.531-2.456.919-.2.532,2.456Zm-1.063-4.912-.532-2.456.919-.2.532,2.456Zm-1.065-4.912-.532-2.456.92-.2.532,2.456Zm-1.064-4.912-.531-2.456.918-.2.532,2.456Zm-1.064-4.913-.532-2.456.918-.2.532,2.456Zm-1.064-4.912-.532-2.456.92-.2.532,2.456Zm-1.063-4.912-.533-2.456.919-.2.533,2.456Zm-1.065-4.912-.532-2.456.919-.2.532,2.456Zm-1.064-4.912-.533-2.456.92-.2.533,2.456Zm-1.064-4.912-.532-2.456.918-.2.532,2.456Z" transform="translate(-1152.387 -3796.366)" fill="#999"/>
        <rect id="Rectángulo_10439" data-name="Rectángulo 10439" width="1.251" height="0.942" transform="translate(10.537 296.046) rotate(-88.21)" fill="#999"/>
      </g>
      <path id="Trazado_110447" data-name="Trazado 110447" d="M1152.147,3810.073c-7.394,0-13.409-13.026-13.409-29.035s6.015-29.037,13.409-29.037,13.409,13.026,13.409,29.037S1159.541,3810.073,1152.147,3810.073Zm0-57.13c-6.875,0-12.468,12.6-12.468,28.1s5.593,28.094,12.468,28.094,12.468-12.6,12.468-28.094S1159.021,3752.942,1152.147,3752.942Z" transform="translate(-1119.379 -3667.608)" fill="#999"/>
      <path id="Trazado_110448" data-name="Trazado 110448" d="M1144.277,3830.291l-.3-.89c16.241-5.548,25.587-9.511,25.68-9.55.323-.134,31.939-12.8,57.9-9.294l21.378,4.355-.189.922-21.345-4.348c-25.672-3.464-57.063,9.105-57.378,9.234C1169.927,3820.755,1160.556,3824.73,1144.277,3830.291Z" transform="translate(-1118.045 -3652.836)" fill="#999"/>
      <path id="Trazado_110449" data-name="Trazado 110449" d="M1258.224,3818.643l5.81-1.521,1.036,1.521,2.076-.483s.276-4.634-1.66-6.018h-1.591l-.345,2.352-5.672,2.49-.968.83.152.829Z" transform="translate(-1089.253 -3652.275)" fill="#999"/>
      <path id="Trazado_110450" data-name="Trazado 110450" d="M1227.409,4117.3h-.019a.627.627,0,0,1-.609-.646c.036-1.25,3.558-125.285-2.36-144.468-5.984-19.392-4.2-44.59-4.178-44.842l7.059-58.127c.023-.318,2.657-34.763,1.131-51.117-.49-5.247-1.6-11.762-2.771-18.66-2.522-14.829-5.662-33.284-4.38-49.507l3.525-30.46a.635.635,0,0,1,.7-.551.628.628,0,0,1,.551.7l-3.524,30.435c-1.267,16.045,1.857,34.415,4.369,49.177,1.177,6.922,2.29,13.459,2.783,18.751,1.535,16.463-1.107,51.012-1.133,51.358l-7.058,58.127c-.016.22-1.785,25.187,4.127,44.349,5.979,19.381,2.565,139.761,2.417,144.876A.629.629,0,0,1,1227.409,4117.3Z" transform="translate(-1098.668 -3676.042)" fill="#4d4d4d"/>
      <g id="Grupo_56721" data-name="Grupo 56721" transform="translate(130.696 162.074)">
        <path id="Trazado_110451" data-name="Trazado 110451" d="M1264.361,3818.852s-30.023-3.273-36.831-4.583" transform="translate(-1227.44 -3813.807)" fill="#fff"/>
        <path id="Trazado_110452" data-name="Trazado 110452" d="M1264.328,3819.414c-.3-.034-30.12-3.289-36.87-4.588l.179-.925c6.711,1.292,36.494,4.544,36.793,4.577Z" transform="translate(-1227.458 -3813.901)" fill="#999"/>
      </g>
      <path id="Trazado_110453" data-name="Trazado 110453" d="M1205.821,3904.773l2.224-5.58,1.84.068.842-1.957s-3.565-2.973-5.828-2.236l-.945,1.281,1.688,1.674-1.362,6.043.093,1.271.758.37Z" transform="translate(-1102.753 -3631.165)" fill="#666"/>
      <path id="Trazado_110454" data-name="Trazado 110454" d="M1223.8,3815.25l2.224-5.579,1.84.069.842-1.958s-3.565-2.973-5.828-2.235l-.945,1.28,1.688,1.674-1.362,6.042.093,1.271.758.371Z" transform="translate(-1098.171 -3653.987)" fill="#666"/>
      <path id="Trazado_110455" data-name="Trazado 110455" d="M1224.229,3755.416l4-4.484,1.707.694,1.459-1.552s-2.334-4.012-4.714-4.092l-1.324.881,1.013,2.149-3.344,5.213-.348,1.228.586.607Z" transform="translate(-1097.981 -3669.142)" fill="#666"/>
      <path id="Trazado_110456" data-name="Trazado 110456" d="M1224.229,3755.51l4,4.483,1.707-.693,1.459,1.552s-2.334,4.012-4.714,4.092l-1.324-.881,1.013-2.15-3.344-5.212-.348-1.228.586-.607Z" transform="translate(-1097.981 -3666.877)" fill="#666"/>
      <path id="Trazado_110457" data-name="Trazado 110457" d="M1205.453,3811.675l4.042-4.442,1.7.711,1.476-1.538s-2.294-4.036-4.671-4.14l-1.334.866.991,2.161-3.4,5.178-.359,1.224.578.614Z" transform="translate(-1102.767 -3654.793)" fill="#666"/>
      <path id="Trazado_110458" data-name="Trazado 110458" d="M1177.637,3814.243l-4.042-4.443-1.7.71-1.477-1.536s2.294-4.037,4.672-4.141l1.333.867-.991,2.16,3.4,5.179.36,1.223-.58.614Z" transform="translate(-1111.302 -3654.139)" fill="#666"/>
      <path id="Trazado_110459" data-name="Trazado 110459" d="M1178.289,3816.749l-4.042,4.442-1.7-.71-1.476,1.536s2.294,4.037,4.671,4.141l1.334-.867-.991-2.16,3.4-5.179.36-1.224-.58-.613Z" transform="translate(-1111.136 -3651.263)" fill="#666"/>
      <path id="Trazado_110460" data-name="Trazado 110460" d="M1205.068,3811.543l4.042,4.443,1.7-.712,1.476,1.538s-2.293,4.036-4.671,4.141l-1.334-.867.993-2.161-3.4-5.178-.36-1.224.58-.614Z" transform="translate(-1102.866 -3652.59)" fill="#666"/>
      <path id="Trazado_110461" data-name="Trazado 110461" d="M1224.067,3815.562l2.224,5.58,1.84-.068.842,1.957s-3.565,2.973-5.828,2.236l-.944-1.281,1.687-1.674-1.362-6.041.093-1.272.758-.371Z" transform="translate(-1098.102 -3651.642)" fill="#666"/>
      <path id="Trazado_110462" data-name="Trazado 110462" d="M1188.843,3905.2l4.436-4.048,1.626.865,1.611-1.394s-1.91-4.23-4.267-4.556l-1.409.74.788,2.243-3.864,4.842-.472,1.185.521.664Z" transform="translate(-1107.001 -3630.881)" fill="#666"/>
      <path id="Trazado_110463" data-name="Trazado 110463" d="M1180.552,3903.262l4.436-4.048,1.625.865,1.613-1.393s-1.91-4.232-4.268-4.556l-1.408.739.787,2.243-3.863,4.841-.472,1.186.52.664Z" transform="translate(-1109.115 -3631.374)" fill="#666"/>
      <path id="Trazado_110464" data-name="Trazado 110464" d="M1172.888,3900.917l-4.436-4.048-1.626.864-1.612-1.393s1.91-4.232,4.267-4.556l1.409.739-.788,2.244,3.864,4.84.472,1.186-.521.664Z" transform="translate(-1112.63 -3631.972)" fill="#666"/>
      <path id="Trazado_110465" data-name="Trazado 110465" d="M1177.741,3832.881l-1.252-.074c.044-.729,4.275-73.154,6.7-91.989l1.245.159C1182.014,3759.77,1177.785,3832.152,1177.741,3832.881Z" transform="translate(-1109.755 -3670.458)" fill="#999"/>
      <g id="Grupo_56723" data-name="Grupo 56723" transform="translate(69.852 328.603)">
        <path id="Trazado_110466" data-name="Trazado 110466" d="M1182.8,3962.04a.627.627,0,0,1-.627-.627V3952.7a.627.627,0,0,1,1.255,0v8.714A.627.627,0,0,1,1182.8,3962.04Z" transform="translate(-1178.157 -3945.206)" fill="#4d4d4d"/>
        <g id="Grupo_56722" data-name="Grupo 56722">
          <path id="Trazado_110467" data-name="Trazado 110467" d="M1188.268,3957.617l-4.647-1.975-4.647,1.975,4.647-11.016Z" transform="translate(-1178.974 -3946.601)" fill="#4d4d4d"/>
        </g>
      </g>
      <path id="Trazado_110468" data-name="Trazado 110468" d="M1204.65,3760.491c-1.254,0-2.49-1.422-2.657-1.621h0s-14.044-14.535-14.678-15.188a.943.943,0,0,1-.263-.719c.043-1.065,1.9-2.806,2.7-3.5,5.443-6.8,10.91-19.733,10.966-19.864a.627.627,0,1,1,1.156.485c-.225.537-5.589,13.227-11.219,20.242a11.012,11.012,0,0,0-2.325,2.6c1.481,1.531,14.6,15.1,14.6,15.1.555.658,1.515,1.412,1.9,1.148a.628.628,0,0,1,.713,1.033A1.525,1.525,0,0,1,1204.65,3760.491Z" transform="translate(-1107.063 -3675.967)" fill="#4d4d4d"/>
      <path id="Trazado_110469" data-name="Trazado 110469" d="M1208.793,3758.044a.629.629,0,0,1-.612-.484c-.629-2.689-2.392-2.475-2.469-2.468a.617.617,0,0,1-.707-.537.627.627,0,0,1,.537-.706c1.035-.149,3.152.4,3.861,3.426a.63.63,0,0,1-.469.754A.675.675,0,0,1,1208.793,3758.044Z" transform="translate(-1102.487 -3667.142)" fill="#4d4d4d"/>
      <path id="Trazado_110470" data-name="Trazado 110470" d="M1218.109,3758.188a9.6,9.6,0,0,1-1.879-.187.628.628,0,0,1,.271-1.226c.743.165,2.9.4,3.978-.452a.627.627,0,0,1,.777.985A5.133,5.133,0,0,1,1218.109,3758.188Z" transform="translate(-1099.749 -3666.54)" fill="#4d4d4d"/>
      <path id="Trazado_110471" data-name="Trazado 110471" d="M1163.121,3768.655a.629.629,0,0,1-.621-.551c-1.183-9.581-5.5-13.454-5.547-13.492a.628.628,0,1,1,.827-.946c.192.168,4.724,4.231,5.965,14.284a.628.628,0,0,1-.624.705Z" transform="translate(-1114.79 -3667.222)" fill="#4d4d4d"/>
      <g id="Grupo_56727" data-name="Grupo 56727" transform="translate(109.081)">
        <g id="Grupo_56724" data-name="Grupo 56724" transform="translate(1.617)">
          <path id="Trazado_110472" data-name="Trazado 110472" d="M1217.259,3703.537v11.2a5.65,5.65,0,0,0,5.153.381l.1-11.585a8.988,8.988,0,0,0,6.779-8.923s.968-9.89-8.991-9.476-8.3,11.9-8.3,11.9S1213.8,3702.845,1217.259,3703.537Z" transform="translate(-1211.427 -3684.656)" fill="#fff"/>
          <path id="Trazado_110473" data-name="Trazado 110473" d="M1220.286,3716.138a5.949,5.949,0,0,1-3.2-.915l-.2-.141V3704c-3.438-1.042-5.161-6.489-5.237-6.729-.05-.31-.823-5.938,2.2-9.575a8.535,8.535,0,0,1,6.534-2.93c3.086-.127,5.483.687,7.128,2.427,2.771,2.93,2.37,7.376,2.352,7.564a9.392,9.392,0,0,1-6.779,9.23l-.1,11.547-.29.119A6.262,6.262,0,0,1,1220.286,3716.138Zm-2.461-1.565a5.161,5.161,0,0,0,4.214.319l.106-11.634.361-.083a8.448,8.448,0,0,0,6.413-8.461c.006-.09.375-4.265-2.1-6.879-1.448-1.53-3.615-2.26-6.4-2.128a7.645,7.645,0,0,0-5.85,2.589c-2.755,3.321-2.012,8.714-2,8.769h0c.006,0,1.746,5.481,4.883,6.107l.379.076Z" transform="translate(-1211.522 -3684.752)" fill="#999"/>
        </g>
        <g id="Grupo_56725" data-name="Grupo 56725" transform="translate(0 4.612)">
          <rect id="Rectángulo_10440" data-name="Rectángulo 10440" width="20.344" height="3.489" rx="1.209" transform="translate(0.627 0.627)" fill="#fff"/>
          <path id="Trazado_110474" data-name="Trazado 110474" d="M1229.688,3693.172h-17.309a2.147,2.147,0,0,1-2.145-2.145v-.456a2.146,2.146,0,0,1,2.145-2.145h17.309a2.147,2.147,0,0,1,2.145,2.145v.456A2.148,2.148,0,0,1,1229.688,3693.172Zm-17.309-3.49a.891.891,0,0,0-.89.89v.456a.891.891,0,0,0,.89.89h17.309a.892.892,0,0,0,.89-.89v-.456a.892.892,0,0,0-.89-.89Z" transform="translate(-1210.234 -3688.427)" fill="#999"/>
        </g>
        <g id="Grupo_56726" data-name="Grupo 56726" transform="translate(0 11.159)">
          <rect id="Rectángulo_10441" data-name="Rectángulo 10441" width="20.344" height="3.489" rx="1.209" transform="translate(0.627 0.628)" fill="#fff"/>
          <path id="Trazado_110475" data-name="Trazado 110475" d="M1229.688,3698.389h-17.309a2.146,2.146,0,0,1-2.145-2.144v-.457a2.147,2.147,0,0,1,2.145-2.145h17.309a2.148,2.148,0,0,1,2.145,2.145v.457A2.147,2.147,0,0,1,1229.688,3698.389Zm-17.309-3.49a.891.891,0,0,0-.89.89v.457a.89.89,0,0,0,.89.889h17.309a.891.891,0,0,0,.89-.889v-.457a.892.892,0,0,0-.89-.89Z" transform="translate(-1210.234 -3693.644)" fill="#999"/>
        </g>
      </g>
      <g id="Grupo_56728" data-name="Grupo 56728" transform="translate(20.812 62.706)" opacity="0.71">
        <path id="Trazado_110476" data-name="Trazado 110476" d="M1187.969,3743.823c6.665-2.448,5.547-8.606,5.547-8.606l4.947,4.368a9.17,9.17,0,0,1,1.385,5.48c-.427,6.526-1.481,24.5,2.416,24.715,13.98.764,17.023,4.41,17.023,4.41s9.1,5.379,10.149,6.776c1.523,2.027,5.41,5.854,6.465,7.857,1.529,2.9,2.448,18.933,4.194,19.37.969.243-.469-10.521-3.784-19.288-2.662-7.038-6.953-11.909-9-15.387-4.584-7.775-5.493-20.816-3.983-22.125s7.764,2.02,8.074,2.237c.091.063.527,8.228.82,7.074,2.564-10.129,9.076-9.721,11.451-7.9,1.676,1.284-.934,6.967-.484,13.609s4.843,23.383,4.843,23.383l2.906,19.651s3.041,32.758,2.279,44.688-5.315,51.343-5.315,51.343-1.455,21.345-.949,25.016c0,0-2.7,16.17-1.5,19.444a32.931,32.931,0,0,1,1.58,6.847s-.75.4-4.439.467c0,0-4.046,1.587-7.1.715,0,0,3.854,25.043,4.475,31.482l2.619,8.075s3.953,8.675,1.09,9-9.575,2.7-9.575,2.7-6.139.863-7.939.863c-1.092,0-7.548-.946-9.167-.946a65.5,65.5,0,0,1-6.956-1.064,24.6,24.6,0,0,1-5.485-.49c-1.752-.546-3.273.49-4.534-.981-.719-.838-1.707-.994-.4-3.712a18.42,18.42,0,0,0,1.733-7.236l.153-3.846c-.265-1.776-.24-4.581-.994-14.762-.693-9.332,2.141-20.669,2.141-20.669s-3.388,12.544-6.085,17.569c-3.461,6.448-6.852,16.7-6.852,16.7s.567.983-.328,7.421a49.3,49.3,0,0,1-1.418,7.42s-2.177,2.676-8.18-1.854c-2.776-2.1-8.408-3.546-13.646-5.348-5.055-1.738-7.856-.218-8.511-.981s-14.24-1.826-15.985-1.826-1.712-7.857.362-8.512,11.751-21.062,11.751-21.062,6.115-9.813,7.776-15.99c.607-2.26,2.668-8.033,2.877-8.864.343-1.353,2.386-3.88.968-12.5-1.134-6.886-2.222-15.823-2.222-15.823s-6.184-26.257-7.031-33.473c-.523-4.451-4.384-32.135-4.384-32.135V3807.21a160.056,160.056,0,0,0-2.3-27.237s-5.281-16.313-5.838-20.232c0,0-.423-1.36,2.58-4.083s11.447-5.242,13.948-5.211c3.1.038,9.2-1.87,11.076-2.393C1175.906,3746.742,1181.258,3746.289,1187.969,3743.823Z" transform="translate(-1139.769 -3734.592)" fill="#ccc"/>
        <path id="Trazado_110477" data-name="Trazado 110477" d="M1226.288,4010.846c-.528,0-2.086-.189-3.886-.408-2.076-.253-4.428-.539-5.28-.539a62.5,62.5,0,0,1-7.014-1.063,24.678,24.678,0,0,1-5.615-.52,4.877,4.877,0,0,0-1.727-.131,3.363,3.363,0,0,1-3.1-1.042,3.99,3.99,0,0,0-.321-.326c-.826-.784-1.362-1.581-.169-4.065a17.668,17.668,0,0,0,1.672-6.991l.153-3.844c-.125-.767-.186-1.887-.3-3.923-.121-2.186-.3-5.489-.694-10.768a57.772,57.772,0,0,1,.37-10.654,56.415,56.415,0,0,1-3.136,7.8,128.8,128.8,0,0,0-6.744,16.407c.169.685.321,2.55-.366,7.5a49.258,49.258,0,0,1-1.443,7.528.613.613,0,0,1-.109.2c-.1.129-2.633,3.091-9.043-1.748-2.046-1.543-5.8-2.754-9.775-4.036-1.226-.4-2.472-.8-3.7-1.219a14.992,14.992,0,0,0-6.558-.766c-1.033.076-1.771.129-2.226-.4-1-.55-13.3-1.607-15.509-1.607-.621,0-1.432-.442-1.757-2.549s-.092-6.551,1.93-7.188c1.235-.579,6.757-11,11.372-20.73.1-.161,6.12-9.871,7.737-15.885.369-1.375,1.25-3.977,1.959-6.068.449-1.332.84-2.481.917-2.79a7.587,7.587,0,0,1,.325-.9c.621-1.525,1.778-4.366.631-11.336-1.123-6.819-2.216-15.758-2.228-15.849-.241-1.005-6.189-26.307-7.031-33.477-.516-4.393-4.342-31.844-4.38-32.12l-.006-40a160.744,160.744,0,0,0-2.285-27.118c-.2-.594-5.286-16.335-5.843-20.262-.069-.193-.36-1.791,2.78-4.637,3.1-2.812,11.666-5.375,14.328-5.375h.131c2.631,0,7.524-1.417,9.889-2.1l.93-.267c1.726-.482,3.534-.849,5.449-1.238a72.64,72.64,0,0,0,11.258-2.978c6.07-2.229,5.187-7.675,5.146-7.9a.628.628,0,0,1,1.033-.581l4.947,4.367a.612.612,0,0,1,.117.137,9.766,9.766,0,0,1,1.481,5.855c-1.126,17.163.064,22.375,1.262,23.725a.773.773,0,0,0,.561.324c13.034.711,16.791,3.937,17.383,4.541,1.248.739,9.188,5.472,10.254,6.895.571.757,1.5,1.8,2.482,2.894.546.61,1.1,1.227,1.619,1.828a66.325,66.325,0,0,0-5-8.057c-.894-1.286-1.667-2.4-2.269-3.419-4.4-7.462-5.859-21.178-3.853-22.917s8.783,2.153,8.846,2.2c.271.191.271.191.442,2.456.052.674.122,1.6.2,2.466,1.613-4.21,3.958-5.866,5.775-6.5a6.4,6.4,0,0,1,5.877.765c1.181.9.851,2.951.394,5.784a36.09,36.09,0,0,0-.633,8.281c.439,6.507,4.779,23.1,4.823,23.267l2.921,19.717c.035.361,3.04,32.976,2.284,44.819-.754,11.808-5.272,50.98-5.317,51.375-.013.183-1.442,21.293-.951,24.859a.592.592,0,0,1,0,.188c-.743,4.453-2.466,16.568-1.529,19.125a33.085,33.085,0,0,1,1.615,7,.628.628,0,0,1-.325.619c-.148.078-1.053.472-4.617.538a14.808,14.808,0,0,1-6.464.89c.689,4.515,3.768,24.771,4.334,30.554l2.6,8.01c.494,1.075,3.031,6.878,1.84,8.982a1.622,1.622,0,0,1-1.274.837c-2.758.316-9.372,2.646-9.437,2.669C1234.063,4010.011,1228.113,4010.846,1226.288,4010.846Zm-16.122-3.266a.609.609,0,0,1,.122.013,65.776,65.776,0,0,0,6.834,1.052c.927,0,3.216.279,5.43.547,1.614.2,3.283.4,3.736.4,1.737,0,7.791-.85,7.852-.858.155-.068,6.691-2.37,9.593-2.7a.378.378,0,0,0,.324-.207c.644-1.14-.732-5.313-1.916-7.912l-2.644-8.141a.653.653,0,0,1-.029-.134c-.611-6.346-4.431-31.2-4.469-31.446a.627.627,0,0,1,.2-.565.614.614,0,0,1,.589-.133c2.81.8,6.662-.68,6.7-.7a.614.614,0,0,1,.217-.044,21.817,21.817,0,0,0,3.761-.292,32.121,32.121,0,0,0-1.481-6.178c-1.2-3.278,1.113-17.617,1.454-19.672-.472-3.94.9-24.18.956-25.047.049-.423,4.562-39.563,5.315-51.34.749-11.744-2.246-44.26-2.276-44.588l-2.9-19.616c-.167-.618-4.4-16.807-4.848-23.435a37.016,37.016,0,0,1,.646-8.563c.343-2.13.668-4.141.083-4.589a5.2,5.2,0,0,0-4.7-.575c-1.851.643-4.352,2.576-5.759,8.132a.671.671,0,0,1-.723.583c-.665-.058-.72-.063-1.152-5.774-.049-.646-.1-1.308-.132-1.658-1.5-.873-6.2-2.912-7.083-2.142-1.113,1.062-.455,13.584,4.111,21.331.58.984,1.34,2.077,2.219,3.341a54.7,54.7,0,0,1,6.831,12.143c2.753,7.285,4.917,18.62,3.794,19.883a.761.761,0,0,1-.748.236c-1.254-.313-1.776-3.17-2.844-10.651-.55-3.849-1.118-7.829-1.753-9.034a33.494,33.494,0,0,0-3.863-4.795c-1-1.119-1.947-2.176-2.55-2.977-.71-.946-6.489-4.559-9.967-6.613a.628.628,0,0,1-.162-.138c-.025-.029-3.184-3.454-16.575-4.186a2.03,2.03,0,0,1-1.431-.744c-2-2.255-2.515-10.314-1.576-24.638a8.506,8.506,0,0,0-1.245-5.031l-3.788-3.343a8.448,8.448,0,0,1-6,7.762l-.217-.59.217.59a74.016,74.016,0,0,1-11.441,3.029c-1.894.384-3.681.746-5.362,1.215l-.917.264c-2.636.763-7.519,2.148-10.337,2.152h-.044c-2.52,0-10.664,2.5-13.473,5.048-2.548,2.311-2.393,3.464-2.391,3.474.553,3.878,5.771,20.024,5.824,20.185a161.153,161.153,0,0,1,2.327,27.43v39.916c.033.19,3.86,27.655,4.377,32.061.833,7.1,6.957,33.142,7.019,33.4.022.157,1.113,9.07,2.231,15.865,1.2,7.318-.038,10.373-.707,12.013a6.284,6.284,0,0,0-.271.737c-.086.34-.4,1.27-.946,2.884-.7,2.073-1.576,4.654-1.935,5.991-1.664,6.193-7.6,15.755-7.847,16.159-2.264,4.782-9.929,20.644-12.095,21.327-.456.145-1.013,1.373-1.15,3.369-.154,2.275.329,3.783.62,3.92h0c.2,0,15.427.862,16.439,2.042a6.068,6.068,0,0,0,1.178-.033,16.341,16.341,0,0,1,7.059.831c1.219.417,2.458.818,3.678,1.211,4.077,1.316,7.929,2.557,10.143,4.228,4.784,3.61,6.845,2.35,7.247,2.018a54.737,54.737,0,0,0,1.351-7.168c.81-5.834.4-7.027.378-7.074a.508.508,0,0,1-.024-.458c.034-.1,3.446-10.374,6.894-16.795,2.633-4.9,6-17.312,6.034-17.437a.627.627,0,0,1,1.214.316c-.028.113-2.8,11.351-2.124,20.472.393,5.29.574,8.6.7,10.79.11,2,.171,3.1.292,3.925l-.146,3.962a18.96,18.96,0,0,1-1.795,7.485c-.892,1.857-.594,2.141-.1,2.61a5.75,5.75,0,0,1,.41.42c.546.638,1.094.651,2.092.6a6.019,6.019,0,0,1,2.154.187,24.786,24.786,0,0,0,5.288.461Zm28.272-209.69.03.21c.372,2.61.884,6.183,1.4,8.184A59.5,59.5,0,0,0,1238.438,3797.89Z" transform="translate(-1139.896 -3734.719)" fill="#4d4d4d"/>
      </g>
      <path id="Trazado_110478" data-name="Trazado 110478" d="M1213.016,3938.9l-.12-5.021,1.255-.03.121,5.021Zm-.271-11.294-.153-6.272,1.255-.03.153,6.272Zm-.3-12.545-.151-6.272,1.255-.03.151,6.272Zm-.3-12.545-.065-2.7h.031c-.036-.425-.03-1.357-.014-3.61l1.255.01c-.015,2.176-.019,3.466-.018,3.572l.065,2.7Zm1.268-12.584-1.255-.016c.024-1.9.054-4.015.092-6.288l1.255.021C1213.459,3885.919,1213.429,3888.031,1213.4,3889.929Zm.215-12.559-1.255-.026c.044-2.032.1-4.137.154-6.285l1.255.036C1213.715,3873.239,1213.663,3875.341,1213.62,3877.37Zm.344-12.551-1.255-.045c.073-2.086.151-4.187.238-6.279l1.255.051C1214.114,3860.635,1214.036,3862.735,1213.963,3864.82Zm.527-12.54-1.252-.062c.11-2.142.231-4.243.363-6.281l1.253.081C1214.721,3848.05,1214.6,3850.147,1214.49,3852.28Zm.766-12.548-1.255-.044q.041-1.116.041-2.188c0-1.347-.047-2.7-.139-4.015l1.252-.089c.094,1.348.142,2.727.142,4.1Q1215.3,3838.595,1215.256,3839.732Zm-2.139-12.4a48.121,48.121,0,0,0-1.532-5.995l1.193-.39a49.564,49.564,0,0,1,1.573,6.153Zm-3.859-11.72a35.624,35.624,0,0,0-3.177-5.278l1.01-.742a36.632,36.632,0,0,1,3.293,5.464Zm-6.006-10.982q-.947-3.085-1.9-5.962l1.192-.4q.952,2.892,1.9,5.99Zm-3.928-11.88c-.708-1.984-1.443-3.957-2.182-5.861l1.17-.454c.743,1.915,1.482,3.9,2.195,5.893Zm-4.533-11.652c-.833-1.958-1.69-3.876-2.546-5.7l1.137-.532c.862,1.841,1.726,3.775,2.564,5.747Zm-5.315-11.3c-1-1.909-2.018-3.743-3.031-5.449l1.079-.64c1.024,1.727,2.056,3.58,3.063,5.508Zm-6.377-10.7c-1.231-1.791-2.487-3.461-3.734-4.962l.965-.8c1.27,1.528,2.55,3.23,3.8,5.053Zm-7.968-9.459a18.12,18.12,0,0,0-4.888-3.49l.439-1.176a18.656,18.656,0,0,1,5.3,3.742Z" transform="translate(-1111.347 -3669.398)" fill="#454545"/>
      <path id="Trazado_110479" data-name="Trazado 110479" d="M1182.3,3919.242l-1.136-5.031,1.224-.277,1.136,5.032Zm-2.517-11.153-1.383-6.12,1.224-.278,1.382,6.121Zm-2.766-12.241-1.382-6.12,1.223-.277,1.383,6.12Zm-2.765-12.241-1.38-6.121,1.222-.278,1.382,6.122Zm-2.763-12.242-1.382-6.121,1.222-.277,1.383,6.12Zm-2.765-12.241-1.383-6.122,1.224-.277,1.383,6.121Zm-2.765-12.242-1.383-6.121,1.224-.276,1.383,6.119Zm-2.763-12.241-1.383-6.122,1.224-.276,1.382,6.122Zm-2.765-12.242-1.383-6.12,1.224-.276,1.382,6.121Z" transform="translate(-1114.202 -3651.291)" fill="#454545"/>
      <g id="Grupo_56729" data-name="Grupo 56729" transform="translate(74.374 48.391)" opacity="0.81">
        <path id="Trazado_110480" data-name="Trazado 110480" d="M1223.8,3788.1a130.01,130.01,0,0,1-15.074-31.431,117.757,117.757,0,0,0-15.07-30.769s-3.815-6.056-7.144,2.456-4.535,9.494-2.3,11.13,5.47,2.128,5.082,14.241.966,18.371.966,18.371,16.156.646,22.7,7.686S1223.8,3788.1,1223.8,3788.1Z" transform="translate(-1182.451 -3723.185)" fill="#999"/>
        <path id="Trazado_110481" data-name="Trazado 110481" d="M1223.926,3788.857a.627.627,0,0,1-.179-.026c-.183-.055-4.524-1.409-11.113-8.49-6.3-6.771-22.111-7.479-22.269-7.486a.627.627,0,0,1-.587-.5c-.056-.258-1.367-6.47-.983-18.521.334-10.387-1.969-11.863-4-13.163-.283-.181-.56-.359-.823-.552-2.16-1.579-1.6-2.92.252-7.366.5-1.21,1.117-2.683,1.828-4.5,1.217-3.111,2.692-4.769,4.384-4.929,2.264-.225,3.809,2.265,3.876,2.369a119.46,119.46,0,0,1,15.136,30.911,130.567,130.567,0,0,0,14.992,31.263.627.627,0,0,1-.513.988Zm-33.01-17.23c2.844.173,16.566,1.334,22.636,7.858a37.926,37.926,0,0,0,8.618,7.215,135.143,135.143,0,0,1-13.916-29.709,118.347,118.347,0,0,0-14.978-30.588c-.366-.573-1.476-1.951-2.724-1.827-1.165.113-2.317,1.544-3.331,4.139-.715,1.827-1.333,3.309-1.838,4.525-1.919,4.6-1.956,4.931-.671,5.871.244.178.5.342.759.508,2.2,1.408,4.936,3.16,4.579,14.259A90.573,90.573,0,0,0,1190.916,3771.626Z" transform="translate(-1182.577 -3723.312)" fill="#4d4d4d"/>
      </g>
      <path id="Trazado_110482" data-name="Trazado 110482" d="M1204.624,3861.049l5.81-1.521,1.038,1.521,2.075-.484s.277-4.634-1.659-6.016H1210.3l-.346,2.35-5.671,2.491-.969.829.152.83Z" transform="translate(-1102.918 -3641.465)" fill="#999"/>
    </g>
  </g>
</svg>
