<svg xmlns="http://www.w3.org/2000/svg" width="990.084" height="351.979" viewBox="0 0 990.084 351.979">
  <g id="Grupo_57743" data-name="Grupo 57743" transform="translate(-284 -17512)">
    <g id="Grupo_56734" data-name="Grupo 56734" transform="translate(-382 -409)">
      <rect id="Rectángulo_10444" data-name="Rectángulo 10444" width="253" height="351.978" rx="26.031" transform="translate(666 17921)" fill="#fff"/>
      <g id="Grupo_56733" data-name="Grupo 56733" transform="translate(687.435 17936.295)">
        <g id="Grupo_56612" data-name="Grupo 56612" transform="translate(13.301 266.189)">
          <path id="Trazado_109893" data-name="Trazado 109893" d="M560.632,3040.126a16.332,16.332,0,0,1,3.059-.258,5.075,5.075,0,0,1,3.462,1.026,3.324,3.324,0,0,1,1.1,2.565,3.569,3.569,0,0,1-.971,2.637,5.118,5.118,0,0,1-3.773,1.356,5.466,5.466,0,0,1-1.283-.111v4.964h-1.593Zm1.593,5.916a5.352,5.352,0,0,0,1.319.128c1.924,0,3.1-.935,3.1-2.619,0-1.632-1.154-2.419-2.913-2.419a6.679,6.679,0,0,0-1.5.129Z" transform="translate(-560.632 -3039.76)"/>
          <path id="Trazado_109894" data-name="Trazado 109894" d="M575.606,3052.5c-3.28,0-5.55-2.528-5.55-6.265,0-3.92,2.417-6.483,5.715-6.483,3.389,0,5.568,2.583,5.568,6.245,0,4.232-2.583,6.5-5.715,6.5Zm.091-1.3c2.528,0,3.956-2.325,3.956-5.127,0-2.454-1.282-5.019-3.938-5.019s-3.974,2.473-3.974,5.147c0,2.6,1.429,5,3.938,5Z" transform="translate(-561.042 -3039.755)"/>
          <path id="Trazado_109895" data-name="Trazado 109895" d="M583.79,3050.36a5.564,5.564,0,0,0,2.839.788c1.63,0,2.582-.843,2.582-2.089,0-1.153-.66-1.831-2.326-2.454-2.014-.7-3.261-1.758-3.261-3.479,0-1.924,1.594-3.353,3.993-3.353a5.766,5.766,0,0,1,2.711.588l-.439,1.318a4.576,4.576,0,0,0-2.327-.586c-1.684,0-2.325,1.008-2.325,1.851,0,1.135.751,1.7,2.453,2.362,2.089.825,3.132,1.814,3.132,3.627,0,1.887-1.393,3.553-4.3,3.553a6.379,6.379,0,0,1-3.15-.805Z" transform="translate(-561.622 -3039.755)"/>
          <path id="Trazado_109896" data-name="Trazado 109896" d="M595.742,3041.32h-3.754v-1.355h9.139v1.355h-3.772v10.99h-1.613Z" transform="translate(-561.997 -3039.764)"/>
          <path id="Trazado_109897" data-name="Trazado 109897" d="M609.355,3046.522h-4.78v4.451h5.349v1.337h-6.96v-12.345h6.685v1.337h-5.073v3.9h4.78Z" transform="translate(-562.475 -3039.764)"/>
          <path id="Trazado_109898" data-name="Trazado 109898" d="M612.405,3040.143a16.645,16.645,0,0,1,3.059-.275,5.1,5.1,0,0,1,3.591,1.026,3.085,3.085,0,0,1,.97,2.344,3.258,3.258,0,0,1-2.326,3.133v.054a3.151,3.151,0,0,1,1.813,2.491,22.212,22.212,0,0,0,.934,3.389H618.8a15.483,15.483,0,0,1-.806-2.949c-.365-1.7-1.044-2.344-2.491-2.4H614v5.349h-1.593Zm1.593,5.605h1.631c1.7,0,2.783-.934,2.783-2.344,0-1.594-1.154-2.289-2.839-2.289a6.682,6.682,0,0,0-1.575.146Z" transform="translate(-562.886 -3039.76)"/>
          <path id="Trazado_109899" data-name="Trazado 109899" d="M624.3,3039.965v12.345h-1.611v-12.345Z" transform="translate(-563.334 -3039.764)"/>
          <path id="Trazado_109900" data-name="Trazado 109900" d="M632.072,3052.5c-3.279,0-5.55-2.528-5.55-6.265,0-3.92,2.417-6.483,5.714-6.483,3.389,0,5.569,2.583,5.569,6.245,0,4.232-2.583,6.5-5.715,6.5Zm.091-1.3c2.528,0,3.956-2.325,3.956-5.127,0-2.454-1.282-5.019-3.938-5.019s-3.975,2.473-3.975,5.147c0,2.6,1.43,5,3.939,5Z" transform="translate(-563.5 -3039.755)"/>
          <path id="Trazado_109901" data-name="Trazado 109901" d="M640.485,3040.143a16.645,16.645,0,0,1,3.059-.275,5.1,5.1,0,0,1,3.591,1.026,3.085,3.085,0,0,1,.97,2.344,3.258,3.258,0,0,1-2.326,3.133v.054a3.15,3.15,0,0,1,1.813,2.491,22.227,22.227,0,0,0,.934,3.389h-1.649a15.473,15.473,0,0,1-.806-2.949c-.365-1.7-1.044-2.344-2.491-2.4h-1.5v5.349h-1.594Zm1.594,5.605h1.631c1.7,0,2.783-.934,2.783-2.344,0-1.594-1.154-2.289-2.839-2.289a6.682,6.682,0,0,0-1.575.146Z" transform="translate(-564.108 -3039.76)"/>
          <path id="Trazado_109902" data-name="Trazado 109902" d="M560.632,3063.112a16.4,16.4,0,0,1,3.059-.258,5.07,5.07,0,0,1,3.462,1.026,3.321,3.321,0,0,1,1.1,2.564,3.569,3.569,0,0,1-.971,2.637,5.115,5.115,0,0,1-3.773,1.356,5.551,5.551,0,0,1-1.283-.11v4.963h-1.593Zm1.593,5.916a5.352,5.352,0,0,0,1.319.128c1.924,0,3.1-.934,3.1-2.619,0-1.631-1.154-2.418-2.913-2.418a6.661,6.661,0,0,0-1.5.128Z" transform="translate(-560.632 -3040.76)"/>
          <path id="Trazado_109903" data-name="Trazado 109903" d="M570.822,3063.129a16.709,16.709,0,0,1,3.059-.275,5.1,5.1,0,0,1,3.591,1.026,3.081,3.081,0,0,1,.97,2.344,3.257,3.257,0,0,1-2.326,3.133v.055a3.151,3.151,0,0,1,1.813,2.491,22.2,22.2,0,0,0,.934,3.389h-1.649a15.458,15.458,0,0,1-.806-2.949c-.365-1.7-1.044-2.344-2.491-2.4h-1.5v5.349h-1.594Zm1.594,5.606h1.631c1.7,0,2.783-.934,2.783-2.344,0-1.594-1.154-2.29-2.839-2.29a6.647,6.647,0,0,0-1.575.146Z" transform="translate(-561.076 -3040.76)"/>
          <path id="Trazado_109904" data-name="Trazado 109904" d="M582.72,3062.95V3075.3h-1.611V3062.95Z" transform="translate(-561.523 -3040.764)"/>
          <path id="Trazado_109905" data-name="Trazado 109905" d="M585.7,3075.3V3062.95h1.759l3.938,6.246a34.3,34.3,0,0,1,2.2,4.012l.055-.019c-.146-1.649-.183-3.15-.183-5.055v-5.184h1.5V3075.3H593.36l-3.919-6.264a35.909,35.909,0,0,1-2.291-4.122l-.055.018c.092,1.557.11,3.041.11,5.092v5.275Z" transform="translate(-561.723 -3040.764)"/>
          <path id="Trazado_109906" data-name="Trazado 109906" d="M606.884,3074.884a7.851,7.851,0,0,1-3.261.586c-3.481,0-6.081-2.2-6.081-6.247a6.129,6.129,0,0,1,6.448-6.465,7.064,7.064,0,0,1,2.931.531l-.4,1.319a5.664,5.664,0,0,0-2.473-.513c-2.893,0-4.817,1.85-4.817,5.073,0,3.023,1.74,4.946,4.725,4.946a6.411,6.411,0,0,0,2.62-.513Z" transform="translate(-562.239 -3040.756)"/>
          <path id="Trazado_109907" data-name="Trazado 109907" d="M615.79,3069.507h-4.78v4.452h5.349v1.336H609.4V3062.95h6.685v1.337H611.01v3.9h4.78Z" transform="translate(-562.755 -3040.764)"/>
          <path id="Trazado_109908" data-name="Trazado 109908" d="M618.611,3073.345a5.565,5.565,0,0,0,2.839.788c1.63,0,2.582-.843,2.582-2.088,0-1.153-.659-1.832-2.325-2.455-2.015-.7-3.262-1.758-3.262-3.48,0-1.922,1.594-3.351,3.993-3.351a5.766,5.766,0,0,1,2.711.586l-.439,1.319a4.573,4.573,0,0,0-2.326-.586c-1.685,0-2.326,1.007-2.326,1.85,0,1.135.751,1.7,2.453,2.363,2.089.824,3.133,1.813,3.133,3.627,0,1.886-1.393,3.553-4.305,3.553a6.367,6.367,0,0,1-3.15-.806Z" transform="translate(-563.138 -3040.756)"/>
          <path id="Trazado_109909" data-name="Trazado 109909" d="M630.238,3071.413l-1.282,3.882h-1.649l4.2-12.345h1.923l4.213,12.345h-1.7l-1.318-3.882Zm4.048-1.246-1.226-3.553c-.257-.807-.44-1.538-.624-2.252h-.055c-.165.714-.366,1.483-.6,2.235l-1.209,3.571Z" transform="translate(-563.534 -3040.764)"/>
        </g>
        <path id="Trazado_109910" data-name="Trazado 109910" d="M554.322,3074.225c-.035-.1-3.573-10.3-4.217-11.587-.652-1.3-2.959-5.342-2.982-5.383l-.048-.118a19.184,19.184,0,0,1-.009-7.436c.751-4.335,4.933-13.535,5.11-13.924l4.23-10.953c.019-.072,3.238-11.307,4.221-15.814a92.184,92.184,0,0,0,1.321-11.979v-4.387c-.007-.291-.145-7.458,1.774-12.8a44.693,44.693,0,0,1,2.542-6.333l.806.513a47.559,47.559,0,0,0-2.448,6.144c-1.86,5.174-1.721,12.4-1.719,12.468v4.42a92.891,92.891,0,0,1-1.342,12.162c-.99,4.537-4.217,15.8-4.25,15.915l-4.254,11.02c-.055.12-4.32,9.5-5.048,13.715a19,19,0,0,0-.023,6.979c.3.529,2.345,4.114,2.974,5.369.672,1.342,4.119,11.279,4.266,11.7Z" transform="translate(-546.725 -2770.682)" fill="#454545"/>
        <path id="Trazado_109911" data-name="Trazado 109911" d="M564.577,3026.966l-.868-.4,8.4-18.256s.87-1.07.87-4.584c0-3.742-2.463-18.238-2.489-18.384l-6.817-33.638c-.033-.282-2.462-23.906-2.339-43.295.115-18,.921-18.212,1.4-18.338l.355-.092.26.355-.832.475.416-.237-.068.438h.007a.372.372,0,0,0,.3-.14c-.13.213-.785,2.063-.885,17.546-.122,19.334,2.3,42.909,2.326,43.144l6.814,33.607c.1.614,2.5,14.737,2.5,18.559,0,3.519-.822,4.846-1.066,5.163Z" transform="translate(-547.361 -2796.561)" fill="#454545"/>
        <path id="Trazado_109912" data-name="Trazado 109912" d="M684.55,3034.407l-.139-.951c.094-.009,9.567-.855,16.81-3.532a20.516,20.516,0,0,0,10.146-7.667c.146-.176,8.977-9.886,10.444-12.315.91-1.506,6.7-7.212,11.813-12.247,3.5-3.449,6.81-6.707,7.6-7.69,2.456-3.071,10.33-13.245,10.7-14.112.328-.759,3.033-4.8,6.015-9.226.621-.924,1.167-1.735,1.557-2.32,1.615-2.422.119-4.038.054-4.105-.047-.048-4.954-5.036-6.641-6.5s-18.519-13.651-18.689-13.773l-10.582-8.841c-3.418-2.141-10.53-10.683-10.831-11.046-.109-.13-11.041-13.221-15.73-19.479-4.59-6.126-14.085-10.091-14.18-10.13a40.739,40.739,0,0,1-4.794-3.3c-1.618-1.36-6.816-2.679-7.487-2.845-.832-.036-7.322-.32-9.325-.5a19.868,19.868,0,0,1-8.246-3.172c-1.868-1.255-6.612-.922-8.283-.687-.016,0-5.628,1.108-8.644,1.843-3.141.766-13.508.291-13.948.271-.412,0-10.8-.142-14.906-1.537-3.768-1.282-8.868,0-8.919.016l-9.031,2.491c-.135.039-14.021,3.99-16.687,5.2-2.892,1.314-6.346,1.314-10,1.314-3.227,0-6.767,3.051-6.8,3.082l-7.288,5.757-.884-.67L554.92,2892c.137-.122,3.921-3.387,7.707-3.387,3.485,0,6.775,0,9.375-1.181,2.762-1.255,16.317-5.113,16.893-5.278l9.049-2.5c.238-.062,5.617-1.416,9.82.012,3.876,1.318,14.35,1.455,14.455,1.457.132.007,10.6.485,13.529-.227,3.05-.744,8.7-1.854,8.752-1.865.308-.046,6.664-.916,9.36.9a18.52,18.52,0,0,0,7.576,2.942c2.057.184,9.255.493,9.328.5l.15.02c.25.061,6.156,1.492,8.1,3.128a41.691,41.691,0,0,0,4.55,3.148c.315.122,9.812,4.085,14.583,10.451,4.674,6.238,15.59,19.311,15.7,19.442.074.089,7.307,8.778,10.635,10.868l10.615,8.862c.663.479,17.018,12.318,18.737,13.813s6.5,6.356,6.7,6.562c.085.087,2.044,2.142.057,5.12-.39.585-.937,1.4-1.561,2.324-2.1,3.117-5.614,8.336-5.936,9.086-.474,1.1-9.182,12.256-10.826,14.312-.824,1.03-4,4.156-7.676,7.778-4.818,4.746-10.816,10.652-11.666,12.061-1.513,2.5-10.13,11.98-10.5,12.382-.069.139-3.136,5.27-10.681,8.058A77.157,77.157,0,0,1,684.55,3034.407Z" transform="translate(-546.766 -2796.692)" fill="#454545"/>
        <path id="Trazado_109913" data-name="Trazado 109913" d="M657.675,3019.6c-2.765,0-2.931-.083-3.018-.127l.428-.856-.214.429.135-.457c.5.1,5.791.039,9.005-.021h3.527a2.4,2.4,0,0,0,1.528-1.037c.414-.991,7.759-17.759,8.072-18.471l7.726-20.531c.563-1.479,3.438-8.9,4.722-9.926l.6.748c-.835.668-3.158,6.191-4.427,9.517l-7.734,20.552c-.086.2-7.663,17.5-8.074,18.479a3.42,3.42,0,0,1-2.25,1.615l-.1.012H664.02C661.06,3019.579,659.046,3019.6,657.675,3019.6Z" transform="translate(-512.988 -2790.784)" fill="#454545"/>
        <path id="Trazado_109914" data-name="Trazado 109914" d="M694.991,2969.952a26.686,26.686,0,0,1-9.418-7.726c-4.015-5.234-14.914-16.887-15.024-17l-5-5.666.717-.633,4.991,5.655c.1.107,11.032,11.795,15.075,17.065a26.192,26.192,0,0,0,9.045,7.432Z" transform="translate(-503.282 -2801.012)" fill="#454545"/>
        <path id="Trazado_109915" data-name="Trazado 109915" d="M660.217,3083.258s-.25-5.864,1.373-8.671a29.774,29.774,0,0,0,2.246-4.616s1.309-1.56,1.122-4.928-5.614-24.951-5.614-24.951l-3.868-21.771s-.124-6.488-2.432-7.361a8.9,8.9,0,0,1-3.181-1.808l.561-2,6.55-27.2s3.555-10.854,3.68-16.967-1.809-22.644-1.809-22.644,0-2.537,1.83-2.121,2.2.915,2.453,1.83,1.955.874,2.038-.083a13.473,13.473,0,0,0-.208-2.62,43.962,43.962,0,0,0-2.328-10.1c-1.663-3.909-3.411-8.817-3.452-9.981s.416-14.181-.666-19.046a40.347,40.347,0,0,0-2.411-7.694l-.832-.624a59.447,59.447,0,0,1,2,13.267c.124,6.695-.042,14.388-.042,14.388s.5,12.351,1,16.136a1.768,1.768,0,0,1-.124,2.454c-1.248,1.04-2.288,11.935-2.288,11.935l-5.946,30.773-5.531,24.369s-1,1.331-.416,4.824a15.143,15.143,0,0,0,2.163,5.739s2.163,12.309,3.328,15.387,5.572,23.454,5.572,23.454l2.661,10.563a42.259,42.259,0,0,1,.832,6.487C658.554,3072.675,658.054,3079.12,660.217,3083.258Z" transform="translate(-519.765 -2767.043)" fill="#454545"/>
        <path id="Trazado_109916" data-name="Trazado 109916" d="M624.793,2877.981a17.22,17.22,0,0,0,1.913-6.321c.333-3.576.749-9.979.749-9.979s.249-4.825.831-3.909,1.5,15.968,1.082,17.964a2.961,2.961,0,0,1-.916,2.613l-3.658.53Z" transform="translate(-527.636 -2827.285)" fill="#454545"/>
        <path id="Trazado_109917" data-name="Trazado 109917" d="M603.771,2881.2a1.054,1.054,0,0,0,.25-1c-.208-.5-.457-.327-1.123-.475s-2.786.077-2.953-.535-4.407-2.316-5.489-2.109-2,1.04-1.539,1.83l1.831.749,2.911.582,3.7.666Z" transform="translate(-534.894 -2816.085)" fill="#454545"/>
        <g id="Grupo_56613" data-name="Grupo 56613" transform="translate(106.953 82.022)">
          <path id="Trazado_109918" data-name="Trazado 109918" d="M642.324,2886.48a6.16,6.16,0,0,0-1.457-1.628l.522-.8a6.827,6.827,0,0,1,1.732,1.9Z" transform="translate(-631.919 -2884.053)" fill="#454545"/>
          <path id="Trazado_109919" data-name="Trazado 109919" d="M633.3,3002.1l-.951-.109.556-4.832.951.108Zm1.111-9.664-.951-.11.555-4.828.951.109Zm1.109-9.657-.951-.109.554-4.828.951.108Zm1.109-9.657-.951-.108.553-4.826.952.108Zm1.107-9.654-.951-.108.553-4.826.951.108Zm1.107-9.652-.951-.109.552-4.825.951.109Zm1.1-9.652-.951-.109.552-4.826.951.108Zm1.106-9.655-.952-.108.55-4.816.952.1,0,.012Zm1.1-9.656-.951-.108.55-4.829.951.108Zm1.1-9.658-.951-.109.547-4.83.952.106Zm1.09-9.666-.951-.106c.227-2.028.409-3.667.536-4.838l.952.1C644.751,2901.858,644.568,2903.5,644.341,2905.527Zm-.121-9.729a22.429,22.429,0,0,0-.518-4.711l.933-.212a23.446,23.446,0,0,1,.541,4.912Z" transform="translate(-631.548 -2884.35)" fill="#454545"/>
          <rect id="Rectángulo_10372" data-name="Rectángulo 10372" width="2.388" height="0.957" transform="matrix(0.115, -0.993, 0.993, 0.115, 0, 124.603)" fill="#454545"/>
        </g>
        <g id="Grupo_56614" data-name="Grupo 56614" transform="translate(24.889 82.022)">
          <path id="Trazado_109920" data-name="Trazado 109920" d="M576.082,2886.48l-.8-.527a6.845,6.845,0,0,1,1.732-1.9l.521.8-.261-.4.263.4A6.132,6.132,0,0,0,576.082,2886.48Z" transform="translate(-572.857 -2884.053)" fill="#454545"/>
          <path id="Trazado_109921" data-name="Trazado 109921" d="M584.623,3002.1l-.556-4.834.951-.108.557,4.832Zm-1.112-9.664-.555-4.829.951-.109.555,4.828Zm-1.109-9.657-.554-4.829.951-.108.554,4.828Zm-1.109-9.657-.553-4.827.951-.108.553,4.826Zm-1.106-9.654-.553-4.826.951-.108.553,4.826Zm-1.108-9.652-.552-4.825.951-.109.553,4.825Zm-1.1-9.652-.552-4.827.951-.108.552,4.826Zm-1.1-9.655-.548-4.815.949-.12-.475.053.476-.042.549,4.816Zm-1.1-9.656-.55-4.829.951-.108.551,4.829Zm-1.1-9.658-.547-4.833.951-.106.547,4.83Zm-1.09-9.666c-.227-2.03-.408-3.669-.536-4.841l.951-.1c.127,1.171.309,2.81.537,4.838Zm.121-9.729-.956-.011a23.432,23.432,0,0,1,.542-4.912l.932.212A22.564,22.564,0,0,0,573.7,2895.8Z" transform="translate(-572.747 -2884.35)" fill="#454545"/>
          <rect id="Rectángulo_10373" data-name="Rectángulo 10373" width="0.957" height="2.388" transform="matrix(0.993, -0.114, 0.114, 0.993, 12.405, 122.34)" fill="#454545"/>
        </g>
        <path id="Trazado_109922" data-name="Trazado 109922" d="M610.734,3022.457l-1.881-.343c2.12-11.584.335-138.264.317-139.542l1.913-.028C611.157,2887.771,612.889,3010.691,610.734,3022.457Z" transform="translate(-531.722 -2799.24)" fill="#454545"/>
        <g id="Grupo_56615" data-name="Grupo 56615" transform="translate(71.67 68.2)">
          <path id="Trazado_109923" data-name="Trazado 109923" d="M605.063,2887.887l6.88-.591,1.858,2.007s.773.877,1.306-.042l.32-4.86s.029-2.145-1.557-1.113l-2.278,2.237-6.444.857-1.437.817Z" transform="translate(-603.712 -2883.007)" fill="#666"/>
        </g>
        <g id="Grupo_56616" data-name="Grupo 56616" transform="translate(70.936 108.496)">
          <path id="Trazado_109924" data-name="Trazado 109924" d="M604.482,2921.626l6.88-.591,1.857,2.006s.773.877,1.306-.042l.321-4.86s.029-2.145-1.557-1.113l-2.278,2.237-6.445.857-1.437.817Z" transform="translate(-603.129 -2916.746)" fill="#666"/>
        </g>
        <g id="Grupo_56617" data-name="Grupo 56617" transform="translate(72.363 149.321)">
          <path id="Trazado_109925" data-name="Trazado 109925" d="M605.615,2955.809l6.88-.591,1.857,2.007s.774.877,1.306-.042l.321-4.86s.029-2.145-1.557-1.113l-2.278,2.237-6.445.856-1.437.818Z" transform="translate(-604.263 -2950.928)" fill="#666"/>
        </g>
        <g id="Grupo_56618" data-name="Grupo 56618" transform="translate(72.363 190.145)">
          <path id="Trazado_109926" data-name="Trazado 109926" d="M605.615,2989.991l6.88-.591,1.857,2.007s.774.877,1.306-.042l.321-4.86s.029-2.145-1.557-1.113l-2.278,2.237-6.445.857-1.437.818Z" transform="translate(-604.263 -2985.111)" fill="#666"/>
        </g>
        <g id="Grupo_56619" data-name="Grupo 56619" transform="translate(71.67 220.941)">
          <path id="Trazado_109927" data-name="Trazado 109927" d="M605.063,3015.776l6.88-.592,1.858,2.007s.773.877,1.306-.042l.32-4.86s.029-2.145-1.557-1.114l-2.278,2.237-6.444.857-1.437.817Z" transform="translate(-603.712 -3010.896)" fill="#666"/>
        </g>
        <path id="Trazado_109928" data-name="Trazado 109928" d="M610.218,3019.909c-21.894,0-36.086-7.53-36.684-7.852l.91-1.684c.143.078,14.657,7.761,36.3,7.62,21.536-.12,30.155-6.476,30.24-6.54l1.163,1.519c-.362.279-9.12,6.81-31.392,6.935Z" transform="translate(-535.105 -2789.544)" fill="#454545"/>
        <path id="Trazado_109929" data-name="Trazado 109929" d="M657.775,2887.808l3.909-4.325a5.7,5.7,0,0,0,1.663-5.459,59.792,59.792,0,0,0-3.327-9.677s-7.735-15.386-11.228-18.049c0,0,8.733,15.719,8.733,20.461,0,0,1.082,3.043-.581,5.139a11.183,11.183,0,0,1-2.662,2.661s-1.247-.065-.914,2.6,1.193,2.428.831,3.765l-.5.85,3.161,2.662Z" transform="translate(-519.826 -2826.965)" fill="#454545"/>
        <path id="Trazado_109930" data-name="Trazado 109930" d="M650.622,2832.394s3.057,5.614,4.8,8.109,5.8,7.673,6.051,9.294a35.356,35.356,0,0,1,.624,5.079c-.062,1.1,1.2,5.713,1.221,7.647s.661,3.679,0,4.116-3.03-3.8-3.03-3.8l-5.24-8.546s-6.612-5.739-7.3-10.48c0,0,.132-2.655,1.373,1.373a18.136,18.136,0,0,0,2.246,3.244,34.424,34.424,0,0,1,5.052,6.451,40.323,40.323,0,0,0,3.93,5.463s.562.935.749.312-.624-6.113-3.307-9.419-5.677-9.668-5.677-9.668l-4.616-9.169-1.435-4.055a4.274,4.274,0,0,1-.624-2.059c-.062-1.247,2.5,1,2.5,1l1.435,3.181Z" transform="translate(-519.991 -2825.903)" fill="#454545"/>
      </g>
    </g>
    <g id="Grupo_56775" data-name="Grupo 56775" transform="translate(278.394 13075.131)">
      <rect id="Rectángulo_10445" data-name="Rectángulo 10445" width="698.084" height="351.978" rx="16.189" transform="translate(297.606 4436.87)" fill="#fff"/>
      <g id="Grupo_56774" data-name="Grupo 56774">
        <g id="Grupo_56735" data-name="Grupo 56735">
          <path id="Trazado_110483" data-name="Trazado 110483" d="M456.869,4581.909a48.4,48.4,0,0,0,4.6-21.392l-3.315-24.7-39.046-12.7s-7.552-4-7.736-26.261h.829l1.105-6.956s-4.673-5.957-19.051-5.761v0c-13.294-.086-17.642,5.756-17.642,5.756l1.044,6.956h.782c-.174,22.262-7.3,26.262-7.3,26.262l-36.87,12.695-3.13,24.7a50.71,50.71,0,0,0,4.348,21.391c1.391,22.956,16.521,97.565,16.521,97.565l.174,6.609c-12.521,31.3-15.478,74.087-15.478,74.087H455.58s-3.131-42.783-16.392-74.087l.184-6.609S455.4,4604.865,456.869,4581.909Z" fill="#fff"/>
          <path id="Trazado_110484" data-name="Trazado 110484" d="M456.117,4760.67H336.167l.037-.534c.031-.429,3.1-43.132,15.475-74.143l-.171-6.506c-.142-.659-15.1-74.6-16.515-97.449a52.071,52.071,0,0,1-4.354-21.527l3.173-25.06,37.164-12.8c-.016,0,6.692-4.137,6.962-25.289h-.708l-1.139-7.588.124-.167c.183-.245,4.588-5.958,17.748-5.958h.118l.171,0c14.418-.194,19.253,5.7,19.451,5.953l.135.171-1.206,7.593h-.75c.284,21.153,7.394,25.282,7.467,25.321l39.264,12.758.041.312,3.314,24.7a49.762,49.762,0,0,1-4.607,21.594c-1.5,22.852-17.341,96.789-17.5,97.535l-.17,6.408c13.1,31.013,16.356,73.717,16.387,74.146Zm-118.875-1H455.037c-.42-5.046-4.031-44.407-16.309-73.392l-.043-.1.186-6.717c.171-.837,16.045-74.927,17.5-97.584l.057-.2a48.329,48.329,0,0,0,4.547-21.151L457.7,4536.2l-38.747-12.6c-.4-.2-7.9-4.43-8.081-26.733l0-.5h.907l1-6.3c-.85-.9-5.723-5.42-17.837-5.42h-.183v.006l-.5,0c-11.627-.124-16.311,4.507-17.111,5.406l.946,6.306h.856l0,.5c-.174,22.3-7.258,26.525-7.56,26.695l-36.657,12.629-3.091,24.387a50.613,50.613,0,0,0,4.3,21.106l.052.193c1.374,22.659,16.361,96.751,16.512,97.5l.187,6.8-.039.1C341.049,4715.261,337.639,4754.632,337.242,4759.67Z" fill="#999"/>
        </g>
        <g id="Grupo_56736" data-name="Grupo 56736">
          <path id="Trazado_110485" data-name="Trazado 110485" d="M401.943,4471.789c0-5.42-3.285-9.815-7.337-9.815s-7.337,4.4-7.337,9.815c0,4.239,2.013,7.84,4.826,9.213v3.146h5.544v-3.429C400.176,4479.174,401.943,4475.761,401.943,4471.789Z" fill="#fff"/>
          <path id="Trazado_110486" data-name="Trazado 110486" d="M398.139,4484.648H391.6v-3.342c-2.9-1.586-4.826-5.361-4.826-9.517,0-5.687,3.515-10.314,7.837-10.314s7.837,4.627,7.837,10.314c0,3.887-1.681,7.462-4.3,9.205Zm-5.544-1h4.544v-3.209l.24-.146c2.469-1.5,4.064-4.842,4.064-8.5,0-5.136-3.068-9.314-6.837-9.314s-6.837,4.178-6.837,9.314c0,3.915,1.827,7.437,4.546,8.764l.28.136Z" fill="#999"/>
        </g>
        <path id="Trazado_110487" data-name="Trazado 110487" d="M358.815,4761.088c-2.373-24.249,11.549-76.739,12.169-79.06-.125-2.84-3.456-77.956-5.472-95.1-2.4-20.4-12.407-57.469-12.508-57.841l.965-.262c.1.373,10.13,37.514,12.535,57.986,2.049,17.427,5.448,94.478,5.483,95.255l0,.077-.021.075c-.145.539-14.557,54.283-12.158,78.776Z" fill="#999"/>
        <path id="Trazado_110488" data-name="Trazado 110488" d="M432.44,4761.088l-1-.1c2.4-24.493-12.013-78.237-12.159-78.776l-.02-.075,0-.077c.034-.777,3.433-77.828,5.48-95.255,2.408-20.472,12.436-57.613,12.537-57.986l.965.262c-.1.372-10.109,37.442-12.509,57.841-2.014,17.148-5.345,92.264-5.47,95.1C420.891,4684.349,434.813,4736.839,432.44,4761.088Z" fill="#999"/>
        <path id="Trazado_110489" data-name="Trazado 110489" d="M335.976,4582.015,335,4581.8c.976-4.525,1.285-9.924,1.034-18.053-.257-8.294-3.014-21.453-3.042-21.585l.978-.207c.028.133,2.8,13.378,3.064,21.761C337.284,4571.935,336.969,4577.406,335.976,4582.015Z" fill="#999"/>
        <path id="Trazado_110490" data-name="Trazado 110490" d="M456.053,4582.015c-.993-4.609-1.309-10.08-1.055-18.295.26-8.384,3.166-21.891,3.2-22.026l.976.211c-.028.135-2.916,13.553-3.172,21.846-.252,8.129.058,13.528,1.034,18.053Z" fill="#999"/>
        <path id="Trazado_110491" data-name="Trazado 110491" d="M372.592,4523.464l-.646-.762a37.034,37.034,0,0,1,21.974-7.554h.09c11.91,0,18.039,3.441,22.52,5.956.846.474,1.646.923,2.39,1.291l-.443.9c-.767-.379-1.578-.834-2.437-1.315-4.383-2.46-10.383-5.828-22.031-5.828h-.087A35.949,35.949,0,0,0,372.592,4523.464Z" fill="#999"/>
        <g id="Grupo_56737" data-name="Grupo 56737" opacity="0.81">
          <path id="Trazado_110492" data-name="Trazado 110492" d="M459.856,4741.822s.392,5.152-.652,6.587c0,0,10.913-1,12.63-4.413s-6.315-3.094-6.315-3.094Z" fill="#999"/>
          <path id="Trazado_110493" data-name="Trazado 110493" d="M459.2,4748.909a.5.5,0,0,1-.4-.794c.681-.936.7-4.334.558-6.255a.5.5,0,0,1,.419-.531l5.662-.921c.622-.033,5.626-.171,6.852,1.736a1.985,1.985,0,0,1-.01,2.077c-1.79,3.558-11.885,4.581-13.031,4.686Zm1.181-6.667a19.215,19.215,0,0,1-.366,5.577c3.41-.406,10.175-1.674,11.369-4.047.3-.6.18-.906.062-1.087-.693-1.077-4-1.359-5.912-1.284Z" fill="#4d4d4d"/>
        </g>
        <g id="Grupo_56738" data-name="Grupo 56738">
          <path id="Trazado_110494" data-name="Trazado 110494" d="M352.008,4679.474s37.162,12,87.364,0l-.184,6.609s-24.788,4.93-43.5,4.869c-20.041-.064-37.942-3.3-43.508-4.869Z" fill="#fff"/>
          <path id="Trazado_110495" data-name="Trazado 110495" d="M396.029,4691.453h-.341c-20.066-.064-38.068-3.321-43.642-4.888l-.354-.1-.2-7.683.671.217c.371.119,37.621,11.816,87.094-.011l.634-.151-.213,7.659-.391.077C439.038,4686.622,414.535,4691.453,396.029,4691.453Zm-43.357-5.754c5.908,1.588,23.465,4.691,43.02,4.753h.337c17.128,0,39.451-4.166,42.67-4.784l.155-5.558c-45.8,10.785-81.082,1.554-86.328.04Z" fill="#999"/>
        </g>
        <g id="Grupo_56739" data-name="Grupo 56739">
          <path id="Trazado_110496" data-name="Trazado 110496" d="M388.786,4691.424l-2.273-2.192,1.712-2.263-2.072-2.169.616-.548,2.539,2.658-1.695,2.24,1.766,1.7Z" fill="#999"/>
          <path id="Trazado_110497" data-name="Trazado 110497" d="M392.349,4691.424l-2.273-2.192,1.711-2.263-2.072-2.169.616-.548,2.539,2.658-1.694,2.24,1.766,1.7Z" fill="#999"/>
          <path id="Trazado_110498" data-name="Trazado 110498" d="M370.758,4690.047l-2.138-2.521,2.006-2.167-1.908-2.447.689-.537,2.365,3.031-1.986,2.145,1.638,1.932Z" fill="#999"/>
          <path id="Trazado_110499" data-name="Trazado 110499" d="M374.094,4690.374,372.08,4688l1.889-2.042-1.8-2.3.649-.505,2.228,2.855-1.87,2.02,1.543,1.82Z" fill="#999"/>
          <path id="Trazado_110500" data-name="Trazado 110500" d="M377.634,4690.727l-1.988-2.344,1.866-2.017-1.775-2.276.641-.5,2.2,2.819-1.845,2,1.523,1.8Z" fill="#999"/>
          <path id="Trazado_110501" data-name="Trazado 110501" d="M360.516,4688.075l-2.138-2.52,2.006-2.168-1.908-2.447.689-.537,2.363,3.031-1.983,2.146,1.638,1.931Z" fill="#999"/>
          <path id="Trazado_110502" data-name="Trazado 110502" d="M357.308,4687.555l-2.138-2.52,2.006-2.168-1.908-2.447.689-.536,2.363,3.031-1.983,2.146,1.638,1.931Z" fill="#999"/>
          <path id="Trazado_110503" data-name="Trazado 110503" d="M354.661,4686.89l-2.138-2.521,2.006-2.168-1.908-2.446.689-.537,2.365,3.03-1.986,2.146,1.638,1.932Z" fill="#999"/>
          <path id="Trazado_110504" data-name="Trazado 110504" d="M363.793,4688.77l-2.138-2.521,2.006-2.168-1.908-2.447.689-.537,2.363,3.031-1.983,2.145,1.638,1.932Z" fill="#999"/>
          <path id="Trazado_110505" data-name="Trazado 110505" d="M367.322,4689.576l-2.139-2.521,2.006-2.167-1.908-2.447.689-.536,2.365,3.031-1.986,2.145,1.639,1.933Z" fill="#999"/>
          <path id="Trazado_110506" data-name="Trazado 110506" d="M381.368,4691.086l-2.055-2.335,1.929-2.01-1.835-2.268.662-.5,2.274,2.81-1.909,1.989,1.575,1.79Z" fill="#999"/>
          <path id="Trazado_110507" data-name="Trazado 110507" d="M385.03,4691.086l-2.056-2.336,1.929-2.01-1.835-2.268.662-.5,2.274,2.81-1.909,1.989,1.576,1.791Z" fill="#999"/>
          <path id="Trazado_110508" data-name="Trazado 110508" d="M411.03,4690.678l-2.4-2.053,1.574-2.361-2.2-2.042.582-.583,2.694,2.5-1.558,2.337,1.864,1.593Z" fill="#999"/>
          <path id="Trazado_110509" data-name="Trazado 110509" d="M414.413,4690.353l-2.4-2.052,1.573-2.361-2.2-2.042.582-.583,2.694,2.5-1.557,2.337,1.864,1.593Z" fill="#999"/>
          <path id="Trazado_110510" data-name="Trazado 110510" d="M418,4689.962l-2.4-2.053,1.573-2.361-2.2-2.041.582-.584,2.694,2.5-1.557,2.337,1.864,1.593Z" fill="#999"/>
          <path id="Trazado_110511" data-name="Trazado 110511" d="M421,4689.658l-2.4-2.053,1.573-2.361-2.2-2.042.582-.583,2.694,2.5-1.557,2.337,1.864,1.593Z" fill="#999"/>
          <path id="Trazado_110512" data-name="Trazado 110512" d="M424.174,4689.049l-2.4-2.052,1.573-2.361-2.2-2.042.582-.584,2.694,2.5-1.557,2.337,1.864,1.593Z" fill="#999"/>
          <path id="Trazado_110513" data-name="Trazado 110513" d="M427.2,4688.594l-2.4-2.052,1.573-2.361-2.2-2.042.582-.584,2.694,2.5-1.557,2.337,1.864,1.593Z" fill="#999"/>
          <path id="Trazado_110514" data-name="Trazado 110514" d="M430.283,4688.259l-2.4-2.052,1.573-2.361-2.2-2.042.582-.583,2.694,2.5-1.557,2.337,1.864,1.593Z" fill="#999"/>
          <path id="Trazado_110515" data-name="Trazado 110515" d="M433.389,4687.539l-2.4-2.053,1.573-2.361-2.2-2.041.582-.584,2.694,2.5-1.557,2.337,1.864,1.593Z" fill="#999"/>
          <path id="Trazado_110516" data-name="Trazado 110516" d="M436.737,4687.11l-2.4-2.053,1.573-2.361-2.2-2.041.582-.584,2.694,2.5-1.557,2.337,1.864,1.593Z" fill="#999"/>
          <path id="Trazado_110517" data-name="Trazado 110517" d="M395.91,4691.615l-2.152-2.25,1.764-2.151-1.932-2.193.617-.543,2.395,2.717-1.746,2.128,1.649,1.724Z" fill="#999"/>
          <path id="Trazado_110518" data-name="Trazado 110518" d="M399.465,4691.362l-2.125-2.221,1.742-2.125-1.908-2.166.61-.536,2.363,2.683-1.722,2.1,1.628,1.7Z" fill="#999"/>
          <path id="Trazado_110519" data-name="Trazado 110519" d="M403.214,4691.349l-2.191-2.208,1.8-2.122-1.967-2.154.631-.536L403.93,4687l-1.786,2.1,1.679,1.692Z" fill="#999"/>
          <path id="Trazado_110520" data-name="Trazado 110520" d="M406.869,4691.042l-2.193-2.209,1.8-2.122-1.967-2.154.631-.536,2.438,2.668-1.786,2.1,1.68,1.693Z" fill="#999"/>
        </g>
        <path id="Trazado_110521" data-name="Trazado 110521" d="M378.785,4497.421l-.7-.717c.186-.184,2.109-1.86,12.243-3.657a40.271,40.271,0,0,1,7.959-.406c.529.06,1.071.1,1.634.153a28.037,28.037,0,0,1,12.52,3.633l-.479.877a26.818,26.818,0,0,0-12.125-3.513c-.573-.049-1.125-.1-1.663-.156a38.883,38.883,0,0,0-7.672.4C380.7,4495.771,378.8,4497.4,378.785,4497.421Z" fill="#999"/>
        <g id="Grupo_56740" data-name="Grupo 56740" opacity="0.36">
          <path id="Trazado_110522" data-name="Trazado 110522" d="M400.008,4491.17a21.455,21.455,0,0,0-.3,5.478s-4.7,2.174-6.761-3.478C392.943,4493.17,394.7,4490.822,400.008,4491.17Z" fill="#999"/>
          <path id="Trazado_110523" data-name="Trazado 110523" d="M397.645,4497.561a4.969,4.969,0,0,1-1.913-.372,6.137,6.137,0,0,1-3.258-3.847.5.5,0,0,1,.069-.472c.079-.1,1.98-2.558,7.5-2.2a.5.5,0,0,1,.46.585,21.16,21.16,0,0,0-.3,5.295.5.5,0,0,1-.281.552A5.871,5.871,0,0,1,397.645,4497.561Zm-4.122-4.276a5.023,5.023,0,0,0,2.592,2.981,4.525,4.525,0,0,0,3.035.056,21.714,21.714,0,0,1,.276-4.679C395.776,4491.532,394.048,4492.795,393.523,4493.285Z" fill="#4d4d4d"/>
        </g>
        <g id="Grupo_56741" data-name="Grupo 56741">
          <rect id="Rectángulo_10446" data-name="Rectángulo 10446" width="17.206" height="2.87" rx="1.435" transform="translate(386.298 4473.822)" fill="#fff"/>
          <path id="Trazado_110524" data-name="Trazado 110524" d="M402.07,4477.191H387.733a1.935,1.935,0,1,1,0-3.869H402.07a1.935,1.935,0,0,1,0,3.869Zm-14.337-2.869a.935.935,0,1,0,0,1.869H402.07a.935.935,0,0,0,0-1.869Z" fill="#999"/>
        </g>
        <g id="Grupo_56742" data-name="Grupo 56742">
          <rect id="Rectángulo_10447" data-name="Rectángulo 10447" width="17.206" height="2.87" rx="1.435" transform="translate(386.298 4468.344)" fill="#fff"/>
          <path id="Trazado_110525" data-name="Trazado 110525" d="M402.07,4471.713H387.733a1.934,1.934,0,1,1,0-3.869H402.07a1.934,1.934,0,0,1,0,3.869Zm-14.337-2.869a.934.934,0,1,0,0,1.869H402.07a.934.934,0,0,0,0-1.869Z" fill="#999"/>
        </g>
        <path id="Trazado_110526" data-name="Trazado 110526" d="M393.089,4760.173l-.332-55.782.056-188.265h1l-.056,188.262.332,55.779Z" fill="#999"/>
        <g id="Grupo_56745" data-name="Grupo 56745">
          <g id="Grupo_56743" data-name="Grupo 56743" opacity="0.36">
            <path id="Trazado_110527" data-name="Trazado 110527" d="M471.838,4743.948l0,.048S471.836,4743.979,471.838,4743.948Z" fill="#999"/>
            <path id="Trazado_110528" data-name="Trazado 110528" d="M471.835,4744.5l-.044,0a.5.5,0,0,1-.456-.528.548.548,0,0,1,.524-.493.48.48,0,0,1,.477.448h0a.522.522,0,0,1,0,.056l0,.048,0,.026A.5.5,0,0,1,471.835,4744.5Z" fill="#4d4d4d"/>
          </g>
          <g id="Grupo_56744" data-name="Grupo 56744" opacity="0.36">
            <path id="Trazado_110529" data-name="Trazado 110529" d="M482.836,4520.585a2.323,2.323,0,0,1-.814.523c-1.478.522-6.869,3.391-10.522,1.913s-9.6-7.33-9.637-7.369l0,0c0,.006-5.4,8.939-7.4,13.112s-6.783,22.783-6.783,22.783l-8.609,44.174a115.012,115.012,0,0,1,.7-19.566,156.292,156.292,0,0,1,4.609-23.391s9.914-38.622,10.784-43.186a5.773,5.773,0,0,0,.069-2.014,6.674,6.674,0,0,0-4.367-2.021c-3.522.131-4.695-1.565-4.695-1.565l-3.066-2.413c-3.717-2.152-8.413-.652-8.413-.652l-3.424,1.37c-7.143,1.565-5.641.065-8.9-.587a12.056,12.056,0,0,0-6.261.587c-3.326-.587-3.587-4.174-5.478-5.935s-11.152.913-11.152.913c-5.543.978-6.522-3.718-6.522-3.718l.37,248.2c3.565-.522,3.391,1.826,5.043,2.87s3.826-.435,7.131-2.348,5.217-2.609,9.391-.087,9.217,1.217,12.956,1.3,4.957,1.131,4.957,1.131,7.739,1.652,10.783-1.131,8.521-2.522,8.521-2.522,4.522,1.3,12.348.087c7.331-1.14,7.413,2.45,7.4,2.909l1.909-30.735c-.173-24.348-2.347-57.739-4.825-65.043s-2.218-17.087-3.392-33.131,8.609-51.391,8.609-51.391S481.925,4526.532,482.836,4520.585Z" fill="#999"/>
            <path id="Trazado_110530" data-name="Trazado 110530" d="M437.621,4745.594a26.152,26.152,0,0,1-4.934-.5.511.511,0,0,1-.221-.11c-.006,0-1.189-.93-4.643-1.01-.942-.023-1.971.046-3.063.119-3.235.218-6.906.46-10.141-1.495-3.879-2.347-5.6-1.807-8.881.091l-.889.518c-2.9,1.7-5.006,2.926-6.76,1.82a4.918,4.918,0,0,1-1.352-1.406c-.692-.95-1.242-1.7-3.352-1.391a.519.519,0,0,1-.4-.116.5.5,0,0,1-.174-.378l-.37-248.2a.5.5,0,0,1,.447-.5.508.508,0,0,1,.542.393c.037.171.971,4.2,5.946,3.329.923-.272,9.537-2.687,11.58-.787a9.461,9.461,0,0,1,1.72,2.5c.807,1.492,1.57,2.9,3.37,3.28a12.553,12.553,0,0,1,6.4-.559,7.707,7.707,0,0,1,2.16.765c1.011.507,1.743.876,6.537-.176l3.346-1.345c.234-.076,4.986-1.553,8.849.683l3.125,2.453a.493.493,0,0,1,.1.108c.04.055,1.127,1.485,4.265,1.35,1.467-.063,3.056.668,4.718,2.148a.489.489,0,0,1,.161.293,6.218,6.218,0,0,1-.071,2.187c-.863,4.528-10.386,41.64-10.791,43.217a157.393,157.393,0,0,0-4.6,23.321,135.005,135.005,0,0,0-.83,15.041l7.755-39.8c.2-.791,4.824-18.733,6.822-22.9,1.89-3.943,6.849-12.2,7.407-13.124a.532.532,0,0,1,.67-.219.553.553,0,0,1,.134.1c.242.237,5.995,5.852,9.472,7.259,2.883,1.168,7.124-.642,9.162-1.511.421-.179.764-.324,1.005-.41a1.78,1.78,0,0,0,.638-.415.5.5,0,0,1,.837.44c-.9,5.893-8.624,42.718-8.7,43.089-.1.384-9.754,35.48-8.6,51.253.324,4.431.54,8.419.731,11.938.5,9.2.861,15.844,2.634,21.068,2.523,7.437,4.68,41.156,4.852,65.2l-1.911,30.77a.491.491,0,0,1-.525.467.5.5,0,0,1-.474-.52,2.138,2.138,0,0,0-.742-1.632c-.742-.663-2.4-1.335-6.075-.761-7.443,1.16-11.9.077-12.5-.083-.562-.015-5.409-.074-8.109,2.393C442.4,4745.223,439.888,4745.594,437.621,4745.594Zm-4.62-1.457c.918.177,7.6,1.376,10.235-1.032,3.161-2.889,8.648-2.664,8.882-2.652a.436.436,0,0,1,.115.019c.045.011,4.527,1.256,12.132.073,3.265-.507,5.584-.17,6.9,1,.075.067.145.136.211.205l1.775-28.572c-.172-23.935-2.3-57.5-4.8-64.851-1.817-5.354-2.181-12.059-2.685-21.336-.191-3.515-.407-7.5-.731-11.92-1.167-15.944,8.527-51.207,8.625-51.561.067-.324,7.046-33.616,8.5-41.926-.225.082-.538.216-.92.378-2.162.922-6.661,2.842-9.929,1.518-3.121-1.263-7.869-5.634-9.349-7.042-1.3,2.168-5.392,9.061-7.057,12.534-1.956,4.082-6.7,22.5-6.749,22.691l-8.6,44.146a.457.457,0,0,1-.52.4.5.5,0,0,1-.469-.459,116.462,116.462,0,0,1,.7-19.659,158.284,158.284,0,0,1,4.625-23.478c.1-.371,9.917-38.642,10.773-43.14a5.535,5.535,0,0,0,.091-1.667,5.862,5.862,0,0,0-3.879-1.774c-3.389.124-4.79-1.36-5.071-1.711l-3.018-2.375c-3.414-1.971-7.907-.582-7.952-.567l-3.39,1.356c-4.983,1.1-5.965.776-7.28.117a6.624,6.624,0,0,0-1.9-.677,11.686,11.686,0,0,0-5.973.558.509.509,0,0,1-.277.031c-2.372-.418-3.349-2.223-4.21-3.815a8.631,8.631,0,0,0-1.521-2.246c-1.227-1.143-7.2.023-10.673,1.027-3.352.592-5.19-.739-6.158-2.039l.366,245.48a3.629,3.629,0,0,1,3.733,1.856,4.1,4.1,0,0,0,1.078,1.148c1.238.785,3.023-.26,5.721-1.837l.892-.521c3.485-2.017,5.6-2.683,9.9-.082,2.965,1.791,6.467,1.56,9.557,1.353,1.115-.074,2.17-.145,3.152-.121C431.161,4743.051,432.594,4743.853,433,4744.137Z" fill="#4d4d4d"/>
          </g>
        </g>
        <g id="Grupo_56746" data-name="Grupo 56746" opacity="0.81">
          <path id="Trazado_110531" data-name="Trazado 110531" d="M447.763,4504.486l4.521.522s3.739,0,2.87,4.566c-.433,2.274-5.689,23.19-5.689,23.19l3.219.9s1.3-3.924,1.773-4.905c2-4.174,7.4-13.112,7.4-13.112s5.989,5.9,9.641,7.373,9.044-1.391,10.522-1.913,2-2.609,2-2.609.348-3.565-2.783-4.869-7.406-11.788-7.406-11.788-5.565-.783-6.348-1.566-3.13-3.217-3.13-3.217-1.305-4.076-4.609-3.989-3.549-2.41-4.331-3.627a41.5,41.5,0,0,0-4.435-4.435s-1.913-1.043-2.609,0-.087,4.957,0,7.3a38.2,38.2,0,0,1-1.217,8.87,2.635,2.635,0,0,0-.174,2.261A10.456,10.456,0,0,1,447.763,4504.486Z" fill="#999"/>
          <path id="Trazado_110532" data-name="Trazado 110532" d="M452.684,4534.165a.513.513,0,0,1-.135-.018l-3.219-.9a.5.5,0,0,1-.35-.6c.052-.209,5.258-20.928,5.682-23.162a3.66,3.66,0,0,0-.449-3.075,2.775,2.775,0,0,0-1.931-.9l-4.577-.525a.5.5,0,0,1-.358-.219,9.416,9.416,0,0,0-.722-.969c-.534-.534-.34-1.829.067-2.806a38.076,38.076,0,0,0,1.179-8.658c-.022-.625-.083-1.361-.146-2.125-.226-2.759-.332-4.631.23-5.476.748-1.123,2.4-.629,3.264-.162a.543.543,0,0,1,.091.065,40.74,40.74,0,0,1,4.525,4.539,7.524,7.524,0,0,1,.489.961c.554,1.227,1.128,2.507,3.41,2.437h.12c3.264,0,4.686,3.521,4.937,4.222.411.426,2.351,2.436,3.047,3.132.41.41,3.468,1.058,6.065,1.424a.5.5,0,0,1,.393.306c1.168,2.863,4.726,10.511,7.136,11.515,3.432,1.431,3.092,5.34,3.088,5.38-.037.168-.619,2.427-2.331,3.032-.229.08-.551.218-.948.388-2.163.92-6.665,2.835-9.928,1.517-3.153-1.276-7.866-5.627-9.349-7.041-1.194,1.994-5.371,9.015-7.057,12.532-.451.942-1.736,4.807-1.749,4.846A.5.5,0,0,1,452.684,4534.165Zm-2.615-1.752,2.292.643c.36-1.071,1.258-3.706,1.644-4.512,1.987-4.148,7.372-13.064,7.427-13.154a.5.5,0,0,1,.365-.238.48.48,0,0,1,.413.14c.06.059,5.96,5.842,9.478,7.266,2.882,1.167,7.122-.642,9.161-1.511.422-.179.765-.325,1.007-.41,1.191-.421,1.676-2.24,1.68-2.259a4.363,4.363,0,0,0-2.489-4.286c-3.046-1.27-6.779-9.9-7.567-11.8-1.6-.233-5.564-.882-6.349-1.666s-3.137-3.225-3.137-3.225a.507.507,0,0,1-.115-.193c-.013-.037-1.211-3.643-4.032-3.643-.085,0-.176,0-.264,0-2.8,0-3.625-1.817-4.172-3.028a6.484,6.484,0,0,0-.418-.831,38.169,38.169,0,0,0-4.3-4.29c-.383-.193-1.558-.662-1.908-.138-.412.618-.212,3.058-.065,4.839.063.779.125,1.532.149,2.17a38.727,38.727,0,0,1-1.256,9.08,2.76,2.76,0,0,0-.262,1.738,8.394,8.394,0,0,1,.7.9l4.294.5a3.691,3.691,0,0,1,2.636,1.25,4.574,4.574,0,0,1,.667,3.907C455.245,4511.766,450.869,4529.221,450.069,4532.413Z" fill="#4d4d4d"/>
        </g>
        <g id="Grupo_56747" data-name="Grupo 56747" opacity="0.81">
          <path id="Trazado_110533" data-name="Trazado 110533" d="M447.266,4553.637s4.394-21.089,8.48-27.879,6.117-10.106,6.117-10.106a29.109,29.109,0,0,0,7.092,5.94S449.649,4540.259,447.266,4553.637Z" fill="#999"/>
          <path id="Trazado_110534" data-name="Trazado 110534" d="M447.267,4554.138a.533.533,0,0,1-.1-.009.5.5,0,0,1-.4-.579c.076-.431.17-.867.279-1.307,1.032-4.729,4.722-20.856,8.265-26.743,4.088-6.792,6.118-10.109,6.118-10.109a.5.5,0,0,1,.389-.239.51.51,0,0,1,.421.179,28.844,28.844,0,0,0,6.953,5.824.5.5,0,0,1,.1.8c-.186.18-17.991,17.515-21.264,30.474-.177.808-.277,1.284-.284,1.314A.5.5,0,0,1,447.267,4554.138Zm14.669-37.647c-.743,1.219-2.66,4.371-5.761,9.525-2.374,3.944-4.884,12.913-6.539,19.588,5.38-10.592,16.075-21.5,18.5-23.91A29.53,29.53,0,0,1,461.936,4516.491Z" fill="#4d4d4d"/>
        </g>
        <g id="Grupo_56748" data-name="Grupo 56748" opacity="0.81">
          <path id="Trazado_110535" data-name="Trazado 110535" d="M444.37,4552.76s6.938-26.009,8.593-34.241c1.036-5.152,2.7-9.064,2.452-10.918a2.873,2.873,0,0,0-1.624-2.191c-1.5-.72-4.707-1.078-7.63-1.436C446.161,4503.974,447.485,4538.8,444.37,4552.76Z" fill="#999"/>
          <path id="Trazado_110536" data-name="Trazado 110536" d="M444.369,4553.26a.5.5,0,0,1-.488-.61c3.066-13.734,1.793-48.31,1.779-48.658a.5.5,0,0,1,.561-.514l.511.062c2.847.347,5.792.706,7.276,1.42a3.359,3.359,0,0,1,1.9,2.575c.157,1.172-.332,2.908-1.007,5.313-.476,1.692-1.015,3.61-1.45,5.769-1.639,8.154-8.531,34.011-8.6,34.272A.5.5,0,0,1,444.369,4553.26Zm2.311-48.719c.126,3.794.747,25.091-.6,39.764,2.183-8.358,5.353-20.712,6.393-25.885.441-2.2.986-4.134,1.467-5.843.619-2.2,1.108-3.942.979-4.909a2.369,2.369,0,0,0-1.345-1.808C452.25,4505.225,449.3,4504.86,446.68,4504.541Z" fill="#4d4d4d"/>
        </g>
        <g id="Grupo_56749" data-name="Grupo 56749">
          <path id="Trazado_110537" data-name="Trazado 110537" d="M723.995,4581.909a48.405,48.405,0,0,0,4.6-21.392l-3.315-24.7-39.047-12.7s-7.551-4-7.735-26.261h.829l1.105-6.956s-4.674-5.957-19.052-5.761v0c-13.294-.086-17.642,5.756-17.642,5.756l1.044,6.956h.782c-.173,22.262-7.3,26.262-7.3,26.262L601.4,4535.822l-3.131,24.7a50.71,50.71,0,0,0,4.348,21.391c1.391,22.956,16.522,97.565,16.522,97.565l.174,6.609c-12.522,31.3-15.479,74.087-15.479,74.087H722.706s-3.131-42.783-16.392-74.087l.184-6.609S722.522,4604.865,723.995,4581.909Z" fill="#fff"/>
          <path id="Trazado_110538" data-name="Trazado 110538" d="M723.244,4760.67H603.294l.037-.534c.031-.429,3.1-43.132,15.475-74.143l-.171-6.506c-.142-.659-15.1-74.6-16.516-97.449a52.07,52.07,0,0,1-4.354-21.527l3.174-25.06,37.163-12.8c-.016,0,6.693-4.137,6.963-25.289h-.708l-1.139-7.588.124-.167c.183-.245,4.587-5.958,17.747-5.958h.118l.171,0c14.415-.194,19.254,5.7,19.452,5.953l.135.171-1.207,7.593h-.75c.285,21.153,7.4,25.282,7.468,25.321l39.263,12.758.041.312,3.315,24.7a49.762,49.762,0,0,1-4.607,21.594c-1.5,22.852-17.341,96.789-17.5,97.535l-.171,6.408c13.1,31.013,16.357,73.717,16.388,74.146Zm-118.875-1H722.164c-.42-5.046-4.032-44.407-16.31-73.392l-.043-.1.187-6.717c.171-.837,16.044-74.927,17.5-97.584l.057-.2a48.328,48.328,0,0,0,4.547-21.151l-3.27-24.325-38.746-12.6c-.4-.2-7.9-4.43-8.082-26.733l0-.5h.907l1-6.3c-.85-.9-5.725-5.42-17.838-5.42h-.183v.006l-.5,0c-11.626-.124-16.31,4.507-17.11,5.406l.946,6.306h.856l0,.5c-.174,22.3-7.259,26.525-7.561,26.695l-36.656,12.629-3.092,24.387a50.613,50.613,0,0,0,4.3,21.106l.052.193c1.374,22.659,16.362,96.751,16.513,97.5l.187,6.8-.039.1C608.176,4715.261,604.766,4754.632,604.369,4759.67Z" fill="#999"/>
        </g>
        <g id="Grupo_56750" data-name="Grupo 56750">
          <path id="Trazado_110539" data-name="Trazado 110539" d="M669.069,4471.789c0-5.42-3.284-9.815-7.337-9.815s-7.336,4.4-7.336,9.815c0,4.239,2.012,7.84,4.826,9.213v3.146h5.543v-3.429C667.3,4479.174,669.069,4475.761,669.069,4471.789Z" fill="#fff"/>
          <path id="Trazado_110540" data-name="Trazado 110540" d="M665.265,4484.648h-6.543v-3.342c-2.9-1.586-4.826-5.361-4.826-9.517,0-5.687,3.515-10.314,7.837-10.314s7.837,4.627,7.837,10.314c0,3.886-1.681,7.461-4.3,9.205Zm-5.543-1h4.543v-3.209l.24-.146c2.469-1.5,4.065-4.842,4.065-8.5,0-5.136-3.068-9.314-6.837-9.314s-6.837,4.178-6.837,9.314c0,3.915,1.827,7.437,4.546,8.764l.28.136Z" fill="#999"/>
        </g>
        <path id="Trazado_110541" data-name="Trazado 110541" d="M625.941,4761.088c-2.373-24.249,11.549-76.739,12.169-79.06-.125-2.84-3.456-77.956-5.471-95.1-2.4-20.4-12.408-57.469-12.509-57.841l.965-.262c.1.373,10.13,37.514,12.536,57.986,2.048,17.427,5.447,94.478,5.482,95.255l0,.077-.02.075c-.146.539-14.557,54.283-12.158,78.776Z" fill="#999"/>
        <path id="Trazado_110542" data-name="Trazado 110542" d="M699.566,4761.088l-1-.1c2.4-24.493-12.013-78.237-12.159-78.776l-.02-.075,0-.077c.034-.777,3.433-77.828,5.482-95.255,2.406-20.472,12.434-57.613,12.535-57.986l.965.262c-.1.372-10.109,37.442-12.508,57.841-2.015,17.148-5.346,92.264-5.471,95.1C688.017,4684.349,701.939,4736.839,699.566,4761.088Z" fill="#999"/>
        <path id="Trazado_110543" data-name="Trazado 110543" d="M603.1,4582.015l-.977-.211c.975-4.521,1.284-9.92,1.033-18.053-.256-8.294-3.014-21.453-3.042-21.585l.979-.207c.028.133,2.8,13.378,3.063,21.761C604.41,4571.939,604.095,4577.41,603.1,4582.015Z" fill="#999"/>
        <path id="Trazado_110544" data-name="Trazado 110544" d="M723.179,4582.015c-.993-4.611-1.309-10.081-1.054-18.295.26-8.384,3.166-21.891,3.2-22.026l.976.211c-.028.135-2.916,13.553-3.172,21.846-.253,8.128.057,13.526,1.032,18.053Z" fill="#999"/>
        <path id="Trazado_110545" data-name="Trazado 110545" d="M639.719,4523.464l-.646-.762a37.034,37.034,0,0,1,21.974-7.554h.09c11.91,0,18.039,3.441,22.518,5.955.847.475,1.647.924,2.391,1.292l-.443.9c-.767-.379-1.578-.834-2.438-1.316-4.394-2.466-10.38-5.854-22.116-5.827A35.949,35.949,0,0,0,639.719,4523.464Z" fill="#999"/>
        <path id="Trazado_110546" data-name="Trazado 110546" d="M659.488,4561.081l-3.913-4.174-2.294.174s-.978.1-.782-.75l2.576-3.1s1.206-1.3,1.6.2l.131,2.609,3.492,4.092.421,1.289Z" fill="#999"/>
        <path id="Trazado_110547" data-name="Trazado 110547" d="M660.439,4599.735l-3.913-4.174-2.293.174s-.979.1-.783-.75l2.576-3.1s1.207-1.3,1.6.2l.13,2.609,3.492,4.091.421,1.289Z" fill="#999"/>
        <path id="Trazado_110548" data-name="Trazado 110548" d="M660.439,4516.126l-3.913-4.174-2.293.174s-.979.1-.783-.75l2.576-3.1s1.207-1.3,1.6.2l.13,2.609,3.492,4.092.421,1.288Z" fill="#999"/>
        <g id="Grupo_56751" data-name="Grupo 56751" opacity="0.81">
          <path id="Trazado_110549" data-name="Trazado 110549" d="M665.646,4745.092a1.874,1.874,0,0,1-2.87.937c-1.956-1.272-1.467-1.892-2.706-2.022s-.329-2.571.228-2.446,2.463-.569,3.563,1.232A8.554,8.554,0,0,0,665.646,4745.092Z" fill="#999"/>
          <path id="Trazado_110550" data-name="Trazado 110550" d="M663.93,4746.924a2.618,2.618,0,0,1-1.427-.477,6.686,6.686,0,0,1-1.683-1.478.916.916,0,0,0-.8-.465,1.112,1.112,0,0,1-.959-.716,2.686,2.686,0,0,1,.506-2.36.841.841,0,0,1,.844-.354,3.3,3.3,0,0,0,.421-.014,3.322,3.322,0,0,1,3.458,1.472,8.548,8.548,0,0,0,1.658,2.158.508.508,0,0,1,.163.593,2.893,2.893,0,0,1-1.59,1.552A1.967,1.967,0,0,1,663.93,4746.924Zm-3.6-4.854a1.876,1.876,0,0,0-.354,1.3c.029.119.066.135.151.144a1.869,1.869,0,0,1,1.465.818,5.737,5.737,0,0,0,1.461,1.281,1.407,1.407,0,0,0,1.169.272,1.594,1.594,0,0,0,.8-.685,11.964,11.964,0,0,1-1.587-2.142,2.371,2.371,0,0,0-2.532-1A3.168,3.168,0,0,1,660.325,4742.07Zm-.136-.02h0Z" fill="#4d4d4d"/>
        </g>
        <path id="Trazado_110551" data-name="Trazado 110551" d="M716.347,4561.213c-6.163-.531-55.3-.029-55.792-.025l-.01-1c2.026-.022,49.679-.5,55.888.029Z" fill="#999"/>
        <g id="Grupo_56752" data-name="Grupo 56752">
          <path id="Trazado_110552" data-name="Trazado 110552" d="M619.135,4679.474s37.161,12,87.363,0l-.184,6.609s-24.788,4.93-43.5,4.869c-20.041-.064-37.942-3.3-43.507-4.869Z" fill="#fff"/>
          <path id="Trazado_110553" data-name="Trazado 110553" d="M663.156,4691.453h-.341c-20.066-.064-38.068-3.321-43.642-4.888l-.354-.1-.2-7.683.672.217c.369.119,37.621,11.815,87.094-.011l.634-.151-.214,7.659-.391.077C706.164,4686.622,681.661,4691.453,663.156,4691.453ZM619.8,4685.7c5.908,1.588,23.465,4.691,43.02,4.753h.337c17.126,0,39.45-4.166,42.669-4.784l.156-5.558c-45.8,10.786-81.083,1.554-86.328.04Z" fill="#999"/>
        </g>
        <g id="Grupo_56753" data-name="Grupo 56753">
          <path id="Trazado_110554" data-name="Trazado 110554" d="M655.912,4691.424l-2.273-2.192,1.712-2.263-2.072-2.169.616-.548,2.539,2.658-1.695,2.24,1.766,1.7Z" fill="#999"/>
          <path id="Trazado_110555" data-name="Trazado 110555" d="M659.475,4691.424l-2.273-2.192,1.711-2.263-2.072-2.169.616-.548L660,4686.91l-1.694,2.24,1.766,1.7Z" fill="#999"/>
          <path id="Trazado_110556" data-name="Trazado 110556" d="M637.884,4690.047l-2.138-2.521,2.006-2.167-1.908-2.447.689-.537,2.365,3.031-1.986,2.145,1.638,1.932Z" fill="#999"/>
          <path id="Trazado_110557" data-name="Trazado 110557" d="M641.22,4690.374,639.206,4688l1.889-2.042-1.8-2.3.649-.505,2.228,2.855-1.87,2.02,1.543,1.82Z" fill="#999"/>
          <path id="Trazado_110558" data-name="Trazado 110558" d="M644.761,4690.727l-1.988-2.344,1.866-2.017-1.775-2.276.641-.5,2.2,2.819-1.845,2,1.523,1.8Z" fill="#999"/>
          <path id="Trazado_110559" data-name="Trazado 110559" d="M627.642,4688.075l-2.138-2.52,2.006-2.168-1.908-2.447.689-.537,2.363,3.031-1.983,2.146,1.638,1.931Z" fill="#999"/>
          <path id="Trazado_110560" data-name="Trazado 110560" d="M624.435,4687.555l-2.138-2.52,2.006-2.168-1.908-2.447.689-.536,2.363,3.031-1.983,2.146,1.638,1.931Z" fill="#999"/>
          <path id="Trazado_110561" data-name="Trazado 110561" d="M621.788,4686.89l-2.138-2.521,2.006-2.168-1.908-2.446.689-.537,2.365,3.03-1.986,2.146,1.638,1.932Z" fill="#999"/>
          <path id="Trazado_110562" data-name="Trazado 110562" d="M630.919,4688.77l-2.138-2.521,2.006-2.168-1.908-2.447.689-.537,2.363,3.031-1.983,2.145,1.638,1.932Z" fill="#999"/>
          <path id="Trazado_110563" data-name="Trazado 110563" d="M634.448,4689.576l-2.139-2.521,2.006-2.167-1.908-2.447.689-.536,2.365,3.031-1.986,2.145,1.639,1.933Z" fill="#999"/>
          <path id="Trazado_110564" data-name="Trazado 110564" d="M648.494,4691.086l-2.055-2.335,1.929-2.01-1.835-2.268.662-.5,2.274,2.81-1.909,1.989,1.575,1.79Z" fill="#999"/>
          <path id="Trazado_110565" data-name="Trazado 110565" d="M652.156,4691.086l-2.057-2.336,1.929-2.01-1.835-2.268.662-.5,2.274,2.81-1.909,1.989,1.576,1.791Z" fill="#999"/>
          <path id="Trazado_110566" data-name="Trazado 110566" d="M678.156,4690.678l-2.4-2.053,1.574-2.361-2.2-2.042.582-.583,2.694,2.5-1.558,2.337,1.864,1.593Z" fill="#999"/>
          <path id="Trazado_110567" data-name="Trazado 110567" d="M681.539,4690.353l-2.4-2.052,1.573-2.361-2.2-2.042.582-.583,2.694,2.5-1.557,2.337,1.864,1.593Z" fill="#999"/>
          <path id="Trazado_110568" data-name="Trazado 110568" d="M685.123,4689.962l-2.4-2.053,1.573-2.361-2.2-2.041.582-.584,2.694,2.5-1.557,2.337,1.865,1.593Z" fill="#999"/>
          <path id="Trazado_110569" data-name="Trazado 110569" d="M688.127,4689.658l-2.4-2.053,1.573-2.361-2.2-2.042.582-.583,2.694,2.5-1.557,2.337,1.864,1.593Z" fill="#999"/>
          <path id="Trazado_110570" data-name="Trazado 110570" d="M691.3,4689.049,688.9,4687l1.573-2.361-2.2-2.042.582-.584,2.694,2.5L690,4686.849l1.865,1.593Z" fill="#999"/>
          <path id="Trazado_110571" data-name="Trazado 110571" d="M694.325,4688.594l-2.4-2.052,1.573-2.361-2.2-2.042.582-.584,2.694,2.5-1.557,2.337,1.864,1.593Z" fill="#999"/>
          <path id="Trazado_110572" data-name="Trazado 110572" d="M697.41,4688.259l-2.4-2.052,1.573-2.361-2.2-2.042.582-.583,2.694,2.5-1.557,2.337,1.864,1.593Z" fill="#999"/>
          <path id="Trazado_110573" data-name="Trazado 110573" d="M700.516,4687.539l-2.4-2.053,1.573-2.361-2.2-2.041.582-.584,2.694,2.5-1.557,2.337,1.864,1.593Z" fill="#999"/>
          <path id="Trazado_110574" data-name="Trazado 110574" d="M703.864,4687.11l-2.4-2.053,1.573-2.361-2.2-2.041.582-.584,2.694,2.5-1.557,2.337,1.864,1.593Z" fill="#999"/>
          <path id="Trazado_110575" data-name="Trazado 110575" d="M663.036,4691.615l-2.152-2.25,1.764-2.151-1.932-2.193.617-.543,2.395,2.717-1.746,2.128,1.649,1.724Z" fill="#999"/>
          <path id="Trazado_110576" data-name="Trazado 110576" d="M666.592,4691.362l-2.125-2.221,1.742-2.125-1.908-2.166.61-.536,2.363,2.683-1.722,2.1,1.628,1.7Z" fill="#999"/>
          <path id="Trazado_110577" data-name="Trazado 110577" d="M670.34,4691.349l-2.191-2.208,1.8-2.122-1.967-2.154.631-.536,2.438,2.668-1.786,2.1,1.679,1.692Z" fill="#999"/>
          <path id="Trazado_110578" data-name="Trazado 110578" d="M674,4691.042l-2.193-2.209,1.8-2.122-1.967-2.154.631-.536,2.438,2.668-1.786,2.1,1.68,1.693Z" fill="#999"/>
        </g>
        <path id="Trazado_110579" data-name="Trazado 110579" d="M661.7,4688.257l-3.913-4.174-2.294.174s-.978.1-.782-.75l2.576-3.1s1.206-1.3,1.6.2l.13,2.608,3.492,4.092.421,1.289Z" fill="#999"/>
        <path id="Trazado_110580" data-name="Trazado 110580" d="M660.07,4690.177l-3.914,4.174-2.293-.174s-.978-.1-.783.75l2.576,3.1s1.207,1.305,1.6-.195l.131-2.609,3.492-4.092.421-1.288Z" fill="#999"/>
        <path id="Trazado_110581" data-name="Trazado 110581" d="M645.911,4497.422l-.7-.718c.186-.184,2.109-1.86,12.244-3.657a40.257,40.257,0,0,1,7.958-.406c.529.06,1.071.1,1.634.153a28.037,28.037,0,0,1,12.52,3.633l-.479.877a26.822,26.822,0,0,0-12.125-3.513c-.573-.049-1.125-.1-1.663-.156a38.546,38.546,0,0,0-7.671.4C647.824,4495.771,645.93,4497.4,645.911,4497.422Z" fill="#999"/>
        <g id="Grupo_56754" data-name="Grupo 56754" opacity="0.81">
          <path id="Trazado_110582" data-name="Trazado 110582" d="M667.135,4491.17a21.487,21.487,0,0,0-.3,5.478s-4.7,2.174-6.76-3.478C660.07,4493.17,661.83,4490.822,667.135,4491.17Z" fill="#999"/>
          <path id="Trazado_110583" data-name="Trazado 110583" d="M664.771,4497.561a4.95,4.95,0,0,1-1.912-.372,6.138,6.138,0,0,1-3.259-3.847.5.5,0,0,1,.069-.472c.078-.1,2-2.556,7.5-2.2a.5.5,0,0,1,.46.585,21.146,21.146,0,0,0-.306,5.295.5.5,0,0,1-.281.552A5.865,5.865,0,0,1,664.771,4497.561Zm-4.122-4.276a5.027,5.027,0,0,0,2.584,2.977,4.53,4.53,0,0,0,3.043.058,21.692,21.692,0,0,1,.277-4.677C662.9,4491.532,661.174,4492.795,660.649,4493.285Z" fill="#4d4d4d"/>
        </g>
        <g id="Grupo_56755" data-name="Grupo 56755">
          <rect id="Rectángulo_10448" data-name="Rectángulo 10448" width="17.206" height="2.87" rx="1.435" transform="translate(653.424 4473.822)" fill="#fff"/>
          <path id="Trazado_110584" data-name="Trazado 110584" d="M669.2,4477.191H654.859a1.935,1.935,0,1,1,0-3.869H669.2a1.935,1.935,0,0,1,0,3.869Zm-14.337-2.869a.935.935,0,1,0,0,1.869H669.2a.935.935,0,0,0,0-1.869Z" fill="#999"/>
        </g>
        <g id="Grupo_56756" data-name="Grupo 56756">
          <rect id="Rectángulo_10449" data-name="Rectángulo 10449" width="17.206" height="2.87" rx="1.435" transform="translate(653.424 4468.344)" fill="#fff"/>
          <path id="Trazado_110585" data-name="Trazado 110585" d="M669.2,4471.713H654.859a1.934,1.934,0,1,1,0-3.869H669.2a1.934,1.934,0,0,1,0,3.869Zm-14.337-2.869a.934.934,0,1,0,0,1.869H669.2a.934.934,0,0,0,0-1.869Z" fill="#999"/>
        </g>
        <path id="Trazado_110586" data-name="Trazado 110586" d="M660.216,4760.173l-.333-55.782.056-188.265h1l-.056,188.262.333,55.779Z" fill="#999"/>
        <g id="Grupo_56759" data-name="Grupo 56759">
          <g id="Grupo_56757" data-name="Grupo 56757" opacity="0.36">
            <path id="Trazado_110587" data-name="Trazado 110587" d="M738.964,4743.948l0,.048S738.962,4743.979,738.964,4743.948Z" fill="#999"/>
            <path id="Trazado_110588" data-name="Trazado 110588" d="M738.961,4744.5h-.029a.5.5,0,0,1-.47-.526h.022l-.022,0,.5-.019.5.031,0,.048A.5.5,0,0,1,738.961,4744.5Zm0-.549.5.032Z" fill="#4d4d4d"/>
          </g>
          <g id="Grupo_56758" data-name="Grupo 56758" opacity="0.36">
            <path id="Trazado_110589" data-name="Trazado 110589" d="M721.086,4519.365c-.233.22-9.392,1.454-15.564-3.717-3.01-2.521-10.4-9.847-13.662-10.5a62.523,62.523,0,0,1-8.638-2.87c-3.326-.587-3.587-4.174-5.479-5.935s-11.152.913-11.152.913c-5.543.978-6.522-3.718-6.522-3.718l.37,248.2c3.565-.522,3.391,1.826,5.043,2.87s3.324-2.057,7.131-2.348c9.485-.727,23.335,1.691,31.255,1.691,4.174,0,2.649-4.736,2.63-4.277l-5.66-26.712c-3.347-10.95-5.954-18.764-6.453-33.741-.257-7.709,12.569-52.327,14.353-68.755,1.736-15.992,6.874-33.915,7.652-49.749C716.9,4550.323,720.174,4525.313,721.086,4519.365Z" fill="#999"/>
            <path id="Trazado_110590" data-name="Trazado 110590" d="M666.188,4745.318a1.785,1.785,0,0,1-.972-.291,4.987,4.987,0,0,1-1.353-1.406c-.692-.95-1.243-1.7-3.352-1.391a.512.512,0,0,1-.4-.116.5.5,0,0,1-.174-.378l-.369-248.2a.5.5,0,0,1,.989-.1c.037.171.972,4.2,5.945,3.329.923-.272,9.537-2.687,11.58-.787a9.456,9.456,0,0,1,1.721,2.5c.826,1.528,1.607,2.971,3.5,3.306a.539.539,0,0,1,.1.03,62.468,62.468,0,0,0,8.545,2.843c2.664.533,7.659,5.035,11.306,8.323,1.016.916,1.908,1.72,2.58,2.284,5.724,4.794,14.147,3.923,15.008,3.658a.5.5,0,0,1,.729.517c-.974,6.357-4.191,31.126-4.691,41.3-.442,9-2.31,18.786-4.115,28.25-1.371,7.184-2.788,14.613-3.539,21.528-.9,8.293-4.516,23.372-8.012,37.955-3.324,13.867-6.464,26.965-6.338,30.729.473,14.181,2.888,22.057,5.946,32.029l.486,1.583,5.641,26.615a4.062,4.062,0,0,1,.326,1.772,3.059,3.059,0,0,1-3.416,3.247c-3.227,0-7.435-.4-11.89-.821-6.434-.609-13.724-1.305-19.326-.87a8.951,8.951,0,0,0-4.149,1.6A4.806,4.806,0,0,1,666.188,4745.318Zm-4.8-4.157a3.6,3.6,0,0,1,3.285,1.872,4.105,4.105,0,0,0,1.078,1.149c.538.34,1.133,0,2.229-.676a9.77,9.77,0,0,1,4.6-1.747c5.691-.436,13.025.259,19.5.872,4.43.42,8.616.816,11.8.816a2.266,2.266,0,0,0,2.066-.889,3.478,3.478,0,0,0,.2-2.541.5.5,0,0,1-.128-.243l-5.66-26.711-.474-1.54c-3.08-10.043-5.512-17.975-5.99-32.289-.13-3.9,2.88-16.456,6.366-31,3.326-13.874,7.1-29.6,7.989-37.829.755-6.956,2.177-14.4,3.551-21.607,1.8-9.43,3.66-19.18,4.1-28.112.484-9.873,3.516-33.428,4.6-40.719-2.622.382-10.072.429-15.29-3.939-.678-.569-1.58-1.382-2.606-2.306-3.36-3.03-8.438-7.608-10.832-8.086a61.422,61.422,0,0,1-8.682-2.879c-2.332-.437-3.3-2.225-4.155-3.805a8.625,8.625,0,0,0-1.522-2.246c-1.225-1.142-7.2.024-10.673,1.027-3.352.59-5.19-.738-6.157-2.039l.365,245.48C661.094,4741.166,661.243,4741.161,661.386,4741.161Z" fill="#4d4d4d"/>
          </g>
        </g>
        <path id="Trazado_110591" data-name="Trazado 110591" d="M696.145,4560.045l-3.914-4.174-2.293.174s-.978.1-.783-.75l2.576-3.1s1.207-1.3,1.6.2l.131,2.609,3.492,4.092.421,1.289Z" fill="#999"/>
        <path id="Trazado_110592" data-name="Trazado 110592" d="M696.666,4559.964l-3.913,4.174-2.293-.174s-.979-.1-.783.75l2.576,3.1s1.207,1.305,1.6-.195l.13-2.609,3.493-4.092.421-1.288Z" fill="#999"/>
        <path id="Trazado_110593" data-name="Trazado 110593" d="M688.966,4686.708l3.914,4.174,2.293-.174s.978-.1.783.75l-2.576,3.1s-1.207,1.3-1.6-.2l-.131-2.609-3.492-4.091-.421-1.289Z" fill="#999"/>
        <path id="Trazado_110594" data-name="Trazado 110594" d="M688.966,4686.941l3.914-4.174,2.293.174s.978.1.783-.75l-2.576-3.1s-1.207-1.305-1.6.195l-.131,2.609-3.492,4.092-.421,1.288Z" fill="#999"/>
        <g id="Grupo_56760" data-name="Grupo 56760">
          <path id="Trazado_110595" data-name="Trazado 110595" d="M947.193,4585.062a48.4,48.4,0,0,0,4.6-21.391l-3.315-24.7-39.046-12.7s-7.552-4-7.736-26.261h.829l1.1-6.957s-4.674-5.956-19.052-5.76v0c-13.293-.086-17.642,5.756-17.642,5.756l1.044,6.957h.783c-.174,22.261-7.3,26.261-7.3,26.261l-36.869,12.7-3.131,24.7a50.722,50.722,0,0,0,4.348,21.391c1.392,22.957,16.522,97.566,16.522,97.566l.174,6.608c-12.522,31.305-15.479,74.087-15.479,74.087H945.9s-3.131-42.783-16.392-74.087l.184-6.608S945.72,4608.019,947.193,4585.062Z" fill="#fff"/>
          <path id="Trazado_110596" data-name="Trazado 110596" d="M946.443,4763.823H826.492l.038-.534c.03-.429,3.1-43.132,15.474-74.142l-.171-6.506c-.141-.66-15.1-74.6-16.515-97.45a52.038,52.038,0,0,1-4.355-21.527l3.174-25.059,37.163-12.8c-.016,0,6.693-4.137,6.963-25.289h-.708l-1.139-7.588.124-.167c.183-.245,4.587-5.958,17.747-5.958h.119l.17,0c14.424-.2,19.254,5.7,19.453,5.952l.134.172-1.207,7.593h-.75c.285,21.152,7.4,25.281,7.468,25.32l39.263,12.759.041.311,3.315,24.7a49.759,49.759,0,0,1-4.607,21.593c-1.5,22.852-17.341,96.789-17.5,97.534l-.171,6.41c13.1,31.012,16.357,73.716,16.389,74.145Zm-118.875-1H945.363c-.42-5.046-4.033-44.407-16.311-73.391l-.043-.1.188-6.717c.17-.837,16.043-74.926,17.5-97.584l.056-.2a48.329,48.329,0,0,0,4.547-21.15l-3.269-24.325-38.747-12.6c-.4-.2-7.9-4.43-8.082-26.733l0-.5h.906l1-6.3c-.85-.9-5.725-5.421-17.838-5.421h-.183v.007l-.5,0h-.286c-11.431,0-16.03,4.515-16.824,5.406l.946,6.307h.856l0,.5c-.174,22.3-7.259,26.525-7.561,26.695l-36.656,12.63-3.092,24.386a50.614,50.614,0,0,0,4.3,21.106l.052.193c1.374,22.659,16.362,96.751,16.514,97.5l.186,6.8-.039.1C831.374,4718.414,827.964,4757.785,827.568,4762.823Z" fill="#999"/>
        </g>
        <g id="Grupo_56761" data-name="Grupo 56761">
          <path id="Trazado_110597" data-name="Trazado 110597" d="M892.268,4474.943c0-5.421-3.285-9.815-7.337-9.815s-7.337,4.394-7.337,9.815c0,4.239,2.012,7.84,4.826,9.213v3.146h5.543v-3.429C890.5,4482.328,892.268,4478.915,892.268,4474.943Z" fill="#fff"/>
          <path id="Trazado_110598" data-name="Trazado 110598" d="M888.463,4487.8H881.92v-3.343c-2.9-1.586-4.826-5.36-4.826-9.517,0-5.687,3.516-10.314,7.837-10.314s7.837,4.627,7.837,10.314c0,3.886-1.681,7.461-4.3,9.205Zm-5.543-1h4.543v-3.21l.24-.146c2.469-1.5,4.065-4.841,4.065-8.5,0-5.135-3.068-9.314-6.837-9.314s-6.837,4.179-6.837,9.314c0,3.915,1.827,7.437,4.546,8.764l.28.137Z" fill="#999"/>
        </g>
        <path id="Trazado_110599" data-name="Trazado 110599" d="M849.139,4764.242c-2.373-24.249,11.549-76.74,12.169-79.06-.125-2.841-3.456-77.956-5.471-95.1-2.4-20.4-12.408-57.469-12.509-57.841l.965-.261c.1.373,10.13,37.513,12.536,57.985,2.048,17.428,5.448,94.479,5.482,95.255l0,.077-.021.075c-.145.539-14.556,54.283-12.158,78.778Z" fill="#999"/>
        <path id="Trazado_110600" data-name="Trazado 110600" d="M922.764,4764.242l-1-.1c2.4-24.5-12.013-78.239-12.158-78.778l-.021-.075,0-.077c.034-.776,3.434-77.827,5.482-95.255,2.406-20.472,12.434-57.612,12.536-57.985l.964.261c-.1.372-10.109,37.443-12.507,57.841-2.016,17.149-5.347,92.264-5.472,95.1C911.215,4687.5,925.137,4739.993,922.764,4764.242Z" fill="#999"/>
        <path id="Trazado_110601" data-name="Trazado 110601" d="M826.3,4585.168l-.976-.211c.974-4.52,1.284-9.92,1.032-18.053-.256-8.293-3.014-21.453-3.041-21.585l.978-.207c.029.133,2.8,13.379,3.063,21.761C827.609,4575.092,827.293,4580.564,826.3,4585.168Z" fill="#999"/>
        <path id="Trazado_110602" data-name="Trazado 110602" d="M946.377,4585.168c-.993-4.61-1.308-10.081-1.053-18.295.259-8.383,3.166-21.89,3.2-22.024l.976.211c-.028.134-2.916,13.552-3.171,21.844-.253,8.128.056,13.527,1.032,18.053Z" fill="#999"/>
        <path id="Trazado_110603" data-name="Trazado 110603" d="M862.917,4526.617l-.646-.762a37.033,37.033,0,0,1,21.974-7.553h.09c11.91,0,18.039,3.44,22.518,5.954.847.475,1.647.925,2.391,1.292l-.443.9c-.767-.379-1.578-.834-2.437-1.316-4.383-2.46-10.381-5.826-22.03-5.826h-.087A35.94,35.94,0,0,0,862.917,4526.617Z" fill="#999"/>
        <path id="Trazado_110604" data-name="Trazado 110604" d="M882.686,4564.234l-3.913-4.174-2.294.174s-.978.1-.782-.75l2.576-3.1s1.206-1.3,1.6.2l.13,2.609,3.492,4.091.421,1.289Z" fill="#999"/>
        <path id="Trazado_110605" data-name="Trazado 110605" d="M883.637,4602.889l-3.913-4.174-2.293.174s-.979.1-.783-.75l2.576-3.1s1.207-1.305,1.6.195l.13,2.609,3.493,4.092.421,1.289Z" fill="#999"/>
        <path id="Trazado_110606" data-name="Trazado 110606" d="M883.637,4519.28l-3.913-4.174-2.293.174s-.979.1-.783-.75l2.576-3.1s1.207-1.3,1.6.2l.13,2.608,3.493,4.092.421,1.289Z" fill="#999"/>
        <g id="Grupo_56762" data-name="Grupo 56762" opacity="0.81">
          <path id="Trazado_110607" data-name="Trazado 110607" d="M888.844,4748.245a1.874,1.874,0,0,1-2.87.937c-1.956-1.272-1.467-1.891-2.706-2.022s-.329-2.571.228-2.445,2.463-.569,3.563,1.232A8.567,8.567,0,0,0,888.844,4748.245Z" fill="#999"/>
          <path id="Trazado_110608" data-name="Trazado 110608" d="M887.128,4750.078a2.632,2.632,0,0,1-1.427-.477,6.712,6.712,0,0,1-1.683-1.479.915.915,0,0,0-.8-.465,1.114,1.114,0,0,1-.959-.715,2.7,2.7,0,0,1,.506-2.361.843.843,0,0,1,.845-.353,3.093,3.093,0,0,0,.421-.015,3.325,3.325,0,0,1,3.458,1.473,8.574,8.574,0,0,0,1.657,2.158.506.506,0,0,1,.163.593,2.893,2.893,0,0,1-1.59,1.551A1.964,1.964,0,0,1,887.128,4750.078Zm-3.6-4.854a1.877,1.877,0,0,0-.355,1.3c.03.118.067.133.151.142a1.867,1.867,0,0,1,1.465.818,5.743,5.743,0,0,0,1.461,1.282,1.394,1.394,0,0,0,1.169.271,1.594,1.594,0,0,0,.8-.684,11.977,11.977,0,0,1-1.587-2.143,2.373,2.373,0,0,0-2.532-1A3.262,3.262,0,0,1,883.524,4745.224Zm-.137-.021h0Z" fill="#4d4d4d"/>
        </g>
        <path id="Trazado_110609" data-name="Trazado 110609" d="M883.755,4564.341l-.014-1c1.913-.026,46.916-.627,53.128-.094l-.086,1C930.622,4563.714,884.223,4564.333,883.755,4564.341Z" fill="#999"/>
        <g id="Grupo_56763" data-name="Grupo 56763">
          <path id="Trazado_110610" data-name="Trazado 110610" d="M842.333,4682.628s37.161,12,87.363,0l-.184,6.608s-24.788,4.93-43.5,4.87c-20.042-.065-37.943-3.305-43.508-4.87Z" fill="#fff"/>
          <path id="Trazado_110611" data-name="Trazado 110611" d="M886.354,4694.606h-.341c-20.065-.064-38.067-3.321-43.642-4.887l-.354-.1-.2-7.682.672.216c.37.119,37.621,11.815,87.093-.01l.634-.152-.214,7.659-.39.078C929.363,4689.775,904.86,4694.606,886.354,4694.606ZM843,4688.853c5.909,1.587,23.465,4.69,43.02,4.752h.337c17.127,0,39.45-4.166,42.67-4.784l.155-5.557c-45.8,10.786-81.083,1.553-86.328.04Z" fill="#999"/>
        </g>
        <g id="Grupo_56764" data-name="Grupo 56764">
          <path id="Trazado_110612" data-name="Trazado 110612" d="M879.11,4694.578l-2.273-2.192,1.712-2.263-2.072-2.169.616-.548,2.539,2.658-1.695,2.24,1.766,1.7Z" fill="#999"/>
          <path id="Trazado_110613" data-name="Trazado 110613" d="M882.673,4694.578l-2.273-2.192,1.711-2.263-2.072-2.169.616-.548,2.539,2.658-1.694,2.24,1.766,1.7Z" fill="#999"/>
          <path id="Trazado_110614" data-name="Trazado 110614" d="M861.082,4693.2l-2.138-2.521,2.006-2.167-1.908-2.447.689-.536,2.365,3.031-1.986,2.145,1.638,1.932Z" fill="#999"/>
          <path id="Trazado_110615" data-name="Trazado 110615" d="M864.418,4693.527l-2.014-2.374,1.889-2.042-1.8-2.305.649-.5,2.228,2.855-1.87,2.02,1.543,1.82Z" fill="#999"/>
          <path id="Trazado_110616" data-name="Trazado 110616" d="M867.959,4693.88l-1.988-2.344,1.866-2.017-1.775-2.276.641-.5,2.2,2.819-1.845,2,1.523,1.8Z" fill="#999"/>
          <path id="Trazado_110617" data-name="Trazado 110617" d="M850.84,4691.228l-2.138-2.52,2.006-2.168-1.908-2.447.689-.536,2.363,3.031-1.983,2.146,1.638,1.931Z" fill="#999"/>
          <path id="Trazado_110618" data-name="Trazado 110618" d="M847.633,4690.708l-2.138-2.52,2.006-2.169-1.908-2.447.689-.537,2.363,3.031-1.983,2.146,1.638,1.931Z" fill="#999"/>
          <path id="Trazado_110619" data-name="Trazado 110619" d="M844.986,4690.044l-2.138-2.521,2.006-2.169-1.908-2.446.689-.537L846,4685.4l-1.986,2.146,1.638,1.932Z" fill="#999"/>
          <path id="Trazado_110620" data-name="Trazado 110620" d="M854.117,4691.924l-2.138-2.521,2.006-2.167-1.908-2.447.689-.537,2.363,3.032-1.983,2.145,1.638,1.932Z" fill="#999"/>
          <path id="Trazado_110621" data-name="Trazado 110621" d="M857.646,4692.729l-2.139-2.521,2.006-2.167-1.908-2.447.689-.537,2.365,3.031-1.986,2.145,1.639,1.932Z" fill="#999"/>
          <path id="Trazado_110622" data-name="Trazado 110622" d="M871.693,4694.24l-2.055-2.336,1.929-2.01-1.835-2.268.662-.5,2.274,2.81-1.909,1.989,1.575,1.79Z" fill="#999"/>
          <path id="Trazado_110623" data-name="Trazado 110623" d="M875.354,4694.24,873.3,4691.9l1.929-2.01-1.835-2.268.662-.5,2.274,2.81-1.909,1.989,1.576,1.791Z" fill="#999"/>
          <path id="Trazado_110624" data-name="Trazado 110624" d="M901.354,4693.832l-2.4-2.052,1.574-2.362-2.2-2.041.582-.584,2.694,2.5-1.558,2.337,1.864,1.592Z" fill="#999"/>
          <path id="Trazado_110625" data-name="Trazado 110625" d="M904.737,4693.507l-2.4-2.053,1.573-2.361-2.2-2.041.582-.584,2.694,2.5-1.557,2.337,1.864,1.593Z" fill="#999"/>
          <path id="Trazado_110626" data-name="Trazado 110626" d="M908.321,4693.115l-2.4-2.052,1.573-2.361-2.2-2.042.582-.583,2.694,2.5-1.557,2.337,1.865,1.593Z" fill="#999"/>
          <path id="Trazado_110627" data-name="Trazado 110627" d="M911.325,4692.811l-2.4-2.052,1.573-2.361-2.2-2.042.582-.584,2.694,2.5-1.557,2.337,1.864,1.592Z" fill="#999"/>
          <path id="Trazado_110628" data-name="Trazado 110628" d="M914.5,4692.2l-2.4-2.052,1.573-2.361-2.2-2.042.582-.583,2.694,2.5L913.194,4690l1.865,1.593Z" fill="#999"/>
          <path id="Trazado_110629" data-name="Trazado 110629" d="M917.523,4691.747l-2.4-2.052,1.573-2.361-2.2-2.042.582-.583,2.694,2.5-1.557,2.337,1.864,1.593Z" fill="#999"/>
          <path id="Trazado_110630" data-name="Trazado 110630" d="M920.608,4691.413l-2.4-2.053,1.573-2.361-2.2-2.042.582-.583,2.694,2.5-1.557,2.337,1.864,1.593Z" fill="#999"/>
          <path id="Trazado_110631" data-name="Trazado 110631" d="M923.714,4690.692l-2.4-2.052,1.573-2.361-2.2-2.042.582-.584,2.694,2.5-1.557,2.337,1.864,1.593Z" fill="#999"/>
          <path id="Trazado_110632" data-name="Trazado 110632" d="M927.062,4690.264l-2.4-2.052,1.573-2.361-2.2-2.042.582-.584,2.694,2.5-1.557,2.337,1.864,1.593Z" fill="#999"/>
          <path id="Trazado_110633" data-name="Trazado 110633" d="M886.234,4694.768l-2.152-2.25,1.764-2.151-1.932-2.193.617-.543,2.395,2.716-1.746,2.128,1.649,1.725Z" fill="#999"/>
          <path id="Trazado_110634" data-name="Trazado 110634" d="M889.79,4694.515l-2.125-2.22,1.742-2.125L887.5,4688l.61-.536,2.363,2.683-1.722,2.1,1.628,1.7Z" fill="#999"/>
          <path id="Trazado_110635" data-name="Trazado 110635" d="M893.538,4694.5l-2.191-2.208,1.8-2.122-1.967-2.154.631-.536,2.438,2.669-1.786,2.1,1.679,1.692Z" fill="#999"/>
          <path id="Trazado_110636" data-name="Trazado 110636" d="M897.194,4694.195,895,4691.985l1.8-2.122-1.967-2.154.631-.536,2.438,2.669-1.786,2.1,1.68,1.693Z" fill="#999"/>
        </g>
        <path id="Trazado_110637" data-name="Trazado 110637" d="M884.9,4691.41l-3.913-4.174-2.293.174s-.979.1-.783-.75l2.576-3.1s1.207-1.3,1.6.2l.13,2.609,3.492,4.092.421,1.288Z" fill="#999"/>
        <path id="Trazado_110638" data-name="Trazado 110638" d="M869.11,4500.575l-.7-.717c.186-.184,2.11-1.861,12.244-3.657a40.314,40.314,0,0,1,7.958-.407c.529.061,1.071.1,1.634.153a28.036,28.036,0,0,1,12.52,3.633l-.479.877a26.834,26.834,0,0,0-12.125-3.513c-.573-.048-1.125-.095-1.663-.156a38.74,38.74,0,0,0-7.672.4C871.023,4498.924,869.128,4500.56,869.11,4500.575Z" fill="#999"/>
        <g id="Grupo_56765" data-name="Grupo 56765">
          <rect id="Rectángulo_10450" data-name="Rectángulo 10450" width="17.206" height="2.87" rx="1.435" transform="translate(876.622 4476.976)" fill="#fff"/>
          <path id="Trazado_110639" data-name="Trazado 110639" d="M892.394,4480.345H878.057a1.935,1.935,0,1,1,0-3.869h14.337a1.935,1.935,0,0,1,0,3.869Zm-14.337-2.869a.935.935,0,1,0,0,1.869h14.337a.935.935,0,0,0,0-1.869Z" fill="#999"/>
        </g>
        <g id="Grupo_56766" data-name="Grupo 56766">
          <rect id="Rectángulo_10451" data-name="Rectángulo 10451" width="17.206" height="2.87" rx="1.435" transform="translate(876.622 4471.497)" fill="#fff"/>
          <path id="Trazado_110640" data-name="Trazado 110640" d="M892.394,4474.867H878.057a1.935,1.935,0,0,1,0-3.87h14.337a1.935,1.935,0,0,1,0,3.87ZM878.057,4472a.935.935,0,0,0,0,1.87h14.337a.935.935,0,0,0,0-1.87Z" fill="#999"/>
        </g>
        <path id="Trazado_110641" data-name="Trazado 110641" d="M883.414,4763.326l-.333-55.782.056-188.264h1l-.056,188.261.333,55.779Z" fill="#999"/>
        <g id="Grupo_56769" data-name="Grupo 56769">
          <g id="Grupo_56767" data-name="Grupo 56767" opacity="0.36">
            <path id="Trazado_110642" data-name="Trazado 110642" d="M962.162,4747.1l0,.048S962.161,4747.132,962.162,4747.1Z" fill="#999"/>
            <path id="Trazado_110643" data-name="Trazado 110643" d="M962.159,4747.649l-.048,0a.5.5,0,0,1-.451-.539.524.524,0,0,1,.537-.481.481.481,0,0,1,.465.463h0a.437.437,0,0,1,0,.05l0,.047v.015A.5.5,0,0,1,962.159,4747.649Z" fill="#4d4d4d"/>
          </g>
          <g id="Grupo_56768" data-name="Grupo 56768" opacity="0.36">
            <path id="Trazado_110644" data-name="Trazado 110644" d="M941.932,4536.738c-.233.219-9.522-3.522-12.783-4.174a63.613,63.613,0,0,1-8.056-2.494c-3.466-1.332-9.027-2.469-12.07-4.074-2.286-1.206-14.113-6.085-14.113-6.085a45.15,45.15,0,0,0-10.664-1.109l-.609,226.087c3.566-.522,3.392,1.826,5.044,2.869s3.323-2.056,7.13-2.348c9.485-.726,23.335,1.691,31.256,1.691,4.173,0,2.648-4.735,2.629-4.276l-5.659-26.713c-3.348-10.949-5.955-18.764-6.454-33.74-.257-7.709,12.569-52.328,14.353-68.755,1.423-13.1,5.128-27.5,6.849-40.985.38-2.974-2.1-6.026-1.959-8.887.158-3.2,3.116-6.317,3.339-9.441C940.666,4547.287,941.3,4540.853,941.932,4536.738Z" fill="#999"/>
            <path id="Trazado_110645" data-name="Trazado 110645" d="M889.387,4748.472a1.78,1.78,0,0,1-.973-.291,5.01,5.01,0,0,1-1.353-1.407c-.691-.95-1.231-1.7-3.352-1.39a.528.528,0,0,1-.4-.117.5.5,0,0,1-.173-.379l.609-226.087a.5.5,0,0,1,.475-.5,44.985,44.985,0,0,1,10.795,1.119c.569.226,11.96,4.929,14.24,6.132a42.488,42.488,0,0,0,7.088,2.483c1.81.527,3.518,1.024,4.929,1.566a63.428,63.428,0,0,0,7.973,2.47,84.909,84.909,0,0,1,8.687,2.824c1.735.625,3.527,1.271,3.934,1.344a.489.489,0,0,1,.3.054.5.5,0,0,1,.262.519c-.609,3.974-1.252,10.363-1.762,17.525a13.361,13.361,0,0,1-1.7,4.792,12.515,12.515,0,0,0-1.637,4.639,10.494,10.494,0,0,0,.952,3.968,10.65,10.65,0,0,1,1.005,4.957c-.813,6.363-2.083,13.016-3.31,19.45-1.371,7.183-2.788,14.612-3.539,21.526-.9,8.292-4.515,23.37-8.011,37.952-3.325,13.868-6.465,26.967-6.339,30.732.473,14.181,2.889,22.059,5.948,32.033l.484,1.578,5.641,26.615a4.054,4.054,0,0,1,.327,1.774,3.061,3.061,0,0,1-3.416,3.247c-3.229,0-7.437-.4-11.892-.822-6.431-.61-13.721-1.3-19.326-.872a8.942,8.942,0,0,0-4.147,1.6A4.821,4.821,0,0,1,889.387,4748.472Zm-4.805-4.158a3.6,3.6,0,0,1,3.287,1.874,4.128,4.128,0,0,0,1.079,1.147c.538.338,1.133,0,2.228-.676a9.769,9.769,0,0,1,4.6-1.747c5.692-.437,13.026.259,19.5.873,4.43.42,8.616.817,11.8.817a2.262,2.262,0,0,0,2.065-.89,3.481,3.481,0,0,0,.2-2.542.5.5,0,0,1-.128-.242l-5.66-26.712-.473-1.535c-3.08-10.044-5.513-17.979-5.991-32.292-.13-3.9,2.881-16.458,6.366-31,3.327-13.873,7.1-29.6,7.99-37.826.755-6.956,2.176-14.4,3.551-21.607,1.225-6.419,2.492-13.057,3.3-19.389a9.915,9.915,0,0,0-.949-4.48,11.346,11.346,0,0,1-1.013-4.367,13.157,13.157,0,0,1,1.742-5.038,12.492,12.492,0,0,0,1.6-4.415c.492-6.906,1.108-13.1,1.7-17.123-.6-.17-1.7-.559-3.771-1.306a84.657,84.657,0,0,0-8.543-2.785,63.341,63.341,0,0,1-8.138-2.518c-1.371-.527-3.06-1.018-4.848-1.539a42.933,42.933,0,0,1-7.276-2.558c-2.238-1.182-13.951-6.017-14.069-6.066a47.1,47.1,0,0,0-9.975-1.083l-.606,225.041C884.293,4744.319,884.442,4744.314,884.582,4744.314Z" fill="#4d4d4d"/>
          </g>
        </g>
        <path id="Trazado_110646" data-name="Trazado 110646" d="M919.343,4563.2l-3.913-4.174-2.294.174s-.978.1-.782-.75l2.576-3.1s1.206-1.3,1.6.2l.131,2.609,3.492,4.091.421,1.289Z" fill="#999"/>
        <path id="Trazado_110647" data-name="Trazado 110647" d="M919.864,4563.118l-3.913,4.174-2.293-.174s-.978-.1-.783.75l2.576,3.1s1.207,1.3,1.6-.2l.131-2.609,3.492-4.091.421-1.289Z" fill="#999"/>
        <path id="Trazado_110648" data-name="Trazado 110648" d="M909.708,4690.1l-3.913-4.174-2.293.174s-.979.1-.783-.75l2.576-3.1s1.207-1.3,1.6.2l.13,2.608,3.492,4.092.421,1.289Z" fill="#999"/>
        <path id="Trazado_110649" data-name="Trazado 110649" d="M911.32,4689.79l3.913-4.173,2.294.173s.978.1.782-.75l-2.576-3.1s-1.206-1.3-1.6.2l-.131,2.609-3.492,4.092-.421,1.288Z" fill="#999"/>
        <path id="Trazado_110650" data-name="Trazado 110650" d="M938.4,4574.086c-.051-.028-5.085-2.88-7.272-4.036-.463-.246-.674-.126-.741-.085-.608.353-.85,1.943-.872,2.658l-1-.031c.009-.281.122-2.767,1.369-3.491a1.683,1.683,0,0,1,1.713.064c2.2,1.164,7.244,4.023,7.295,4.052Z" fill="#999"/>
        <g id="Grupo_56770" data-name="Grupo 56770" opacity="0.36">
          <path id="Trazado_110651" data-name="Trazado 110651" d="M883.582,4518.02l.055-6.717s4.773-1.435,6.164,0,2.467,7.5,2.467,7.5Z" fill="#999"/>
          <path id="Trazado_110652" data-name="Trazado 110652" d="M892.268,4519.3l-.045,0-8.687-.781a.5.5,0,0,1-.455-.5l.056-6.718a.5.5,0,0,1,.356-.475c.519-.157,5.109-1.476,6.667.131,1.456,1.5,2.488,7.123,2.6,7.76a.5.5,0,0,1-.492.587Zm-8.183-1.738,7.569.68c-.39-1.958-1.276-5.628-2.211-6.594-.806-.828-3.54-.448-5.309.031Z" fill="#4d4d4d"/>
        </g>
        <g id="Grupo_56771" data-name="Grupo 56771" opacity="0.36">
          <path id="Trazado_110653" data-name="Trazado 110653" d="M892.268,4518.8l2.968-5.673s1.044-1.7,2.217-1.044l1.174.653,1.174,6.879v1.208Z" fill="#999"/>
          <path id="Trazado_110654" data-name="Trazado 110654" d="M899.8,4521.324a.54.54,0,0,1-.13-.017l-7.533-2.023a.5.5,0,0,1-.328-.281.5.5,0,0,1,.014-.433l2.968-5.673c.465-.758,1.646-1.947,2.9-1.25l1.174.653a.5.5,0,0,1,.25.353l1.174,6.88.007,1.291a.5.5,0,0,1-.5.5Zm-6.8-2.844,6.3,1.692v-.555l-1.126-6.559-.965-.536c-.732-.413-1.542.856-1.55.871Z" fill="#4d4d4d"/>
        </g>
        <g id="Grupo_56772" data-name="Grupo 56772" opacity="0.36">
          <path id="Trazado_110655" data-name="Trazado 110655" d="M900.584,4516.38s.393-1.279,1.946,0a3.706,3.706,0,0,1,1.211,1.32,5.885,5.885,0,0,1,.1,1.917c0,1.86.013,2.9.013,2.9l-3.274-1.694-.783-4.044Z" fill="#999"/>
          <path id="Trazado_110656" data-name="Trazado 110656" d="M903.858,4523.019a.5.5,0,0,1-.23-.056l-3.273-1.694a.5.5,0,0,1-.262-.35l-.783-4.043a.5.5,0,0,1,.263-.54l.627-.321a1.3,1.3,0,0,1,.767-.65,2.082,2.082,0,0,1,1.88.629,4.082,4.082,0,0,1,1.358,1.523,3.648,3.648,0,0,1,.148,1.467c0,.187-.008.4-.008.633,0,1.854.013,2.894.013,2.9a.5.5,0,0,1-.5.506Zm-2.828-2.528,2.321,1.2c0-.491-.006-1.191-.006-2.076,0-.245,0-.46.008-.651a3.11,3.11,0,0,0-.077-1.082c-.106-.268-.374-.55-1.065-1.118-.6-.493-.885-.464-.952-.445-.134.037-.2.212-.2.214a.533.533,0,0,1-.247.29l-.449.23Zm-.446-4.111h0Z" fill="#4d4d4d"/>
        </g>
        <g id="Grupo_56773" data-name="Grupo 56773" opacity="0.36">
          <path id="Trazado_110657" data-name="Trazado 110657" d="M905.019,4517.694s1.7-1.435,2.739-.783,1.265,2.706,1.265,2.706v3.555l1.069,3.064-6.234-3.04.615-4.409Z" fill="#999"/>
          <path id="Trazado_110658" data-name="Trazado 110658" d="M910.092,4526.736a.5.5,0,0,1-.219-.05l-6.234-3.04a.5.5,0,0,1-.276-.519l.615-4.409a.484.484,0,0,1,.048-.154l.546-1.093a.478.478,0,0,1,.124-.158c.2-.17,2.012-1.65,3.327-.826,1.214.759,1.471,2.841,1.5,3.077l0,3.523,1.041,2.984a.5.5,0,0,1-.472.665Zm-5.689-3.83,4.817,2.349-.669-1.918a.491.491,0,0,1-.028-.165v-3.555c-.053-.451-.347-1.854-1.031-2.282-.522-.322-1.572.283-2.074.679l-.461.924Z" fill="#4d4d4d"/>
        </g>
      </g>
    </g>
  </g>
</svg>
