<svg xmlns="http://www.w3.org/2000/svg" xmlns:xlink="http://www.w3.org/1999/xlink" width="292.657" height="476.816" viewBox="0 0 292.657 476.816">
  <defs>
    <clipPath id="clip-path">
      <rect id="Rectángulo_10400" data-name="Rectángulo 10400" width="250.543" height="439.94" fill="none"/>
    </clipPath>
  </defs>
  <g id="Grupo_56661" data-name="Grupo 56661" transform="translate(-531.68 -3241.043)">
    <rect id="Rectángulo_10391" data-name="Rectángulo 10391" width="292.657" height="476.817" rx="21.391" transform="translate(531.68 3241.043)" fill="#fff"/>
    <g id="Grupo_56660" data-name="Grupo 56660" transform="translate(552.737 3259.482)">
      <g id="Grupo_56659" data-name="Grupo 56659" clip-path="url(#clip-path)">
        <g id="Grupo_56647" data-name="Grupo 56647" transform="translate(38.432 53.804)" opacity="0.33">
          <path id="Trazado_110052" data-name="Trazado 110052" d="M732.309,3591.54l-9.845-24.481v-8.25l8.917-55.7,12.123-55.467v-22s3.95-10.829,4.279-28.594-1.318-24.872-3.95-32.148l-25.336-9.138-19.524-6.937S682.741,3345,683.4,3325.369l-1.1-30.907-20.565,4.244-20.565-4.244.109,30.85c.658,19.628-16.781,23.519-16.781,23.519l-19.523,6.937-24.514,6.768c-2.634,7.276-5.1,16.751-4.772,34.518s4.278,28.594,4.278,28.594v22l12.124,55.467h0l1.768,8.085,10.191,47.613v9.58s-18.095,38.318-19.957,68.919v151.937h163.7l-2.178-127.191S745.347,3614.689,732.309,3591.54Z" transform="translate(-574.979 -3293.622)" fill="#fff"/>
          <path id="Trazado_110053" data-name="Trazado 110053" d="M748.671,3790.154H583.6V3637.533c1.795-29.5,18.758-66.489,19.957-69.071v-9.355l-11.944-55.626-12.141-55.612V3425.99c-.424-1.236-3.968-12-4.277-28.7-.333-17.989,2.246-27.667,4.813-34.761l.12-.333,24.854-6.862,19.476-6.92c.769-.179,16.958-4.042,16.326-22.854l-.112-31.711,21.252,4.385,21.219-4.378,1.126,31.715c-.632,18.9,14.891,22.785,15.048,22.822l19.6,6.958,25.641,9.246.109.3c2.832,7.824,4.307,15.3,3.991,32.393-.311,16.7-3.854,27.465-4.278,28.7l-.016,22.023-12.124,55.467-8.909,55.663.008,8.008,9.779,24.317c12.955,23.051,13.368,70.33,13.371,70.807Zm-163.707-1.368H747.28l-2.166-126.5c0-.479-.416-47.461-13.217-70.19l-.038-.081-9.894-24.736v-8.248l8.924-55.808,12.117-55.434.041-22.155c.038-.108,3.913-10.946,4.237-28.375.308-16.656-1.1-24.039-3.8-31.6l-25.034-9.027-19.52-6.937c-.1-.018-16.7-4.174-16.03-24.129l-1.067-30.05-19.91,4.108-.138-.029-19.74-4.073.107,30.007c.669,19.943-17.137,24.149-17.315,24.19l-19.445,6.912-24.218,6.689c-2.484,6.945-4.935,16.451-4.612,33.94.323,17.427,4.2,28.265,4.236,28.373l.041.234v21.921l13.877,63.482,10.207,47.759-.066,9.872c-.181.382-18.059,38.549-19.892,68.666Z" transform="translate(-575.163 -3293.848)"/>
        </g>
        <g id="Grupo_56648" data-name="Grupo 56648" transform="translate(66.638 318.262)">
          <path id="Trazado_110054" data-name="Trazado 110054" d="M682.038,3498.146l-3.064-3.612,2.875-3.108-2.735-3.507.987-.769,3.387,4.345-2.843,3.075,2.347,2.768Z" transform="translate(-565.155 -3487.149)" fill="#999"/>
          <path id="Trazado_110055" data-name="Trazado 110055" d="M679.516,3498.146l-3.064-3.612,2.875-3.108-2.735-3.507.987-.769,3.387,4.345-2.843,3.075,2.348,2.768Z" transform="translate(-566.083 -3487.149)" fill="#999"/>
          <path id="Trazado_110056" data-name="Trazado 110056" d="M677,3498.146l-3.064-3.612,2.875-3.108-2.735-3.507.987-.769,3.387,4.345-2.843,3.075,2.347,2.768Z" transform="translate(-567.011 -3487.149)" fill="#999"/>
          <path id="Trazado_110057" data-name="Trazado 110057" d="M674.474,3498.146l-3.064-3.612,2.875-3.108-2.735-3.507.987-.769,3.387,4.345-2.843,3.075,2.347,2.768Z" transform="translate(-567.939 -3487.149)" fill="#999"/>
          <path id="Trazado_110058" data-name="Trazado 110058" d="M671.953,3498.146l-3.064-3.612,2.875-3.108-2.735-3.507.987-.769,3.387,4.345-2.843,3.075,2.348,2.768Z" transform="translate(-568.867 -3487.149)" fill="#999"/>
          <path id="Trazado_110059" data-name="Trazado 110059" d="M669.432,3498.146l-3.064-3.612,2.875-3.108-2.735-3.507.987-.769,3.387,4.345-2.843,3.075,2.348,2.768Z" transform="translate(-569.795 -3487.149)" fill="#999"/>
          <path id="Trazado_110060" data-name="Trazado 110060" d="M666.911,3498.146l-3.064-3.612,2.875-3.108-2.735-3.507.987-.769,3.387,4.345-2.843,3.075,2.348,2.768Z" transform="translate(-570.723 -3487.149)" fill="#999"/>
          <path id="Trazado_110061" data-name="Trazado 110061" d="M664.39,3498.146l-3.064-3.612,2.875-3.108-2.735-3.507.987-.769,3.387,4.345L663,3494.57l2.347,2.768Z" transform="translate(-571.651 -3487.149)" fill="#999"/>
          <path id="Trazado_110062" data-name="Trazado 110062" d="M661.869,3498.146l-3.064-3.612,2.875-3.108-2.735-3.507.987-.769,3.387,4.345-2.843,3.075,2.348,2.768Z" transform="translate(-572.579 -3487.149)" fill="#999"/>
          <path id="Trazado_110063" data-name="Trazado 110063" d="M659.348,3498.146l-3.064-3.612,2.875-3.108-2.735-3.507.987-.769,3.387,4.345-2.843,3.075,2.347,2.768Z" transform="translate(-573.507 -3487.149)" fill="#999"/>
          <path id="Trazado_110064" data-name="Trazado 110064" d="M656.827,3498.146l-3.064-3.612,2.875-3.108-2.735-3.507.987-.769,3.387,4.345-2.843,3.075,2.347,2.768Z" transform="translate(-574.435 -3487.149)" fill="#999"/>
          <path id="Trazado_110065" data-name="Trazado 110065" d="M654.306,3498.146l-3.064-3.612,2.875-3.108-2.735-3.507.987-.769,3.387,4.345-2.843,3.075,2.347,2.768Z" transform="translate(-575.363 -3487.149)" fill="#999"/>
          <path id="Trazado_110066" data-name="Trazado 110066" d="M651.785,3498.146l-3.064-3.612,2.875-3.108-2.735-3.507.987-.769,3.387,4.345-2.843,3.075,2.348,2.768Z" transform="translate(-576.291 -3487.149)" fill="#999"/>
          <path id="Trazado_110067" data-name="Trazado 110067" d="M649.264,3498.146l-3.064-3.612,2.875-3.108-2.735-3.507.987-.769,3.387,4.345-2.843,3.075,2.348,2.768Z" transform="translate(-577.219 -3487.149)" fill="#999"/>
          <path id="Trazado_110068" data-name="Trazado 110068" d="M646.743,3498.146l-3.064-3.612,2.875-3.108-2.735-3.507.987-.769,3.387,4.345-2.843,3.075,2.347,2.768Z" transform="translate(-578.147 -3487.149)" fill="#999"/>
          <path id="Trazado_110069" data-name="Trazado 110069" d="M644.222,3498.146l-3.064-3.612,2.875-3.108-2.735-3.507.987-.769,3.387,4.345-2.843,3.075,2.348,2.768Z" transform="translate(-579.075 -3487.149)" fill="#999"/>
          <path id="Trazado_110070" data-name="Trazado 110070" d="M641.7,3498.146l-3.064-3.612,2.875-3.108-2.735-3.507.987-.769,3.387,4.345-2.843,3.075,2.347,2.768Z" transform="translate(-580.003 -3487.149)" fill="#999"/>
          <path id="Trazado_110071" data-name="Trazado 110071" d="M639.18,3498.146l-3.064-3.612,2.875-3.108-2.735-3.507.987-.769,3.387,4.345-2.843,3.075,2.347,2.768Z" transform="translate(-580.931 -3487.149)" fill="#999"/>
          <path id="Trazado_110072" data-name="Trazado 110072" d="M636.659,3498.146l-3.064-3.612,2.875-3.108-2.735-3.507.987-.769,3.387,4.345-2.843,3.075,2.347,2.768Z" transform="translate(-581.859 -3487.149)" fill="#999"/>
          <path id="Trazado_110073" data-name="Trazado 110073" d="M634.138,3498.146l-3.064-3.612,2.875-3.108-2.735-3.507.987-.769,3.387,4.345-2.843,3.075,2.348,2.768Z" transform="translate(-582.787 -3487.149)" fill="#999"/>
          <path id="Trazado_110074" data-name="Trazado 110074" d="M631.617,3498.146l-3.064-3.612,2.875-3.108-2.735-3.507.987-.769,3.387,4.345-2.843,3.075,2.347,2.768Z" transform="translate(-583.715 -3487.149)" fill="#999"/>
          <path id="Trazado_110075" data-name="Trazado 110075" d="M629.1,3498.146l-3.064-3.612,2.875-3.108-2.735-3.507.987-.769,3.387,4.345-2.843,3.075,2.348,2.768Z" transform="translate(-584.643 -3487.149)" fill="#999"/>
          <path id="Trazado_110076" data-name="Trazado 110076" d="M626.575,3498.146l-3.064-3.612,2.875-3.108-2.735-3.507.987-.769,3.387,4.345-2.843,3.075,2.347,2.768Z" transform="translate(-585.571 -3487.149)" fill="#999"/>
          <path id="Trazado_110077" data-name="Trazado 110077" d="M624.054,3498.146l-3.064-3.612,2.875-3.108-2.735-3.507.987-.769,3.387,4.345-2.843,3.075,2.347,2.768Z" transform="translate(-586.499 -3487.149)" fill="#999"/>
          <path id="Trazado_110078" data-name="Trazado 110078" d="M621.533,3498.146l-3.064-3.612,2.875-3.108-2.735-3.507.987-.769,3.387,4.345-2.843,3.075,2.348,2.768Z" transform="translate(-587.427 -3487.149)" fill="#999"/>
          <path id="Trazado_110079" data-name="Trazado 110079" d="M619.012,3498.146l-3.064-3.612,2.875-3.108-2.735-3.507.987-.769,3.387,4.345-2.843,3.075,2.347,2.768Z" transform="translate(-588.355 -3487.149)" fill="#999"/>
          <path id="Trazado_110080" data-name="Trazado 110080" d="M616.491,3498.146l-3.064-3.612,2.875-3.108-2.735-3.507.987-.769,3.387,4.345-2.843,3.075,2.348,2.768Z" transform="translate(-589.283 -3487.149)" fill="#999"/>
          <path id="Trazado_110081" data-name="Trazado 110081" d="M613.97,3498.146l-3.064-3.612,2.875-3.108-2.735-3.507.987-.769,3.387,4.345-2.843,3.075,2.347,2.768Z" transform="translate(-590.211 -3487.149)" fill="#999"/>
          <path id="Trazado_110082" data-name="Trazado 110082" d="M611.449,3498.146l-3.064-3.612,2.875-3.108-2.735-3.507.987-.769,3.387,4.345-2.843,3.075,2.347,2.768Z" transform="translate(-591.139 -3487.149)" fill="#999"/>
          <path id="Trazado_110083" data-name="Trazado 110083" d="M608.928,3498.146l-3.064-3.612,2.875-3.108L606,3487.918l.987-.769,3.387,4.345-2.843,3.075,2.347,2.768Z" transform="translate(-592.067 -3487.149)" fill="#999"/>
          <path id="Trazado_110084" data-name="Trazado 110084" d="M606.407,3498.146l-3.064-3.612,2.875-3.108-2.735-3.507.987-.769,3.387,4.345-2.843,3.075,2.348,2.768Z" transform="translate(-592.995 -3487.149)" fill="#999"/>
          <path id="Trazado_110085" data-name="Trazado 110085" d="M603.886,3498.146l-3.064-3.612,2.875-3.108-2.735-3.507.987-.769,3.387,4.345-2.843,3.075,2.347,2.768Z" transform="translate(-593.923 -3487.149)" fill="#999"/>
          <path id="Trazado_110086" data-name="Trazado 110086" d="M601.365,3498.146l-3.064-3.612,2.875-3.108-2.735-3.507.987-.769,3.387,4.345-2.843,3.075,2.347,2.768Z" transform="translate(-594.851 -3487.149)" fill="#999"/>
          <path id="Trazado_110087" data-name="Trazado 110087" d="M598.844,3498.146l-3.064-3.612,2.875-3.108-2.735-3.507.987-.769,3.387,4.345-2.843,3.075,2.348,2.768Z" transform="translate(-595.779 -3487.149)" fill="#999"/>
        </g>
        <path id="Trazado_110088" data-name="Trazado 110088" d="M642.538,3310.939c-14.67,0-19.16-5.672-19.357-5.929l1.09-.828-.545.413.542-.416c.049.062,4.964,6.132,21.258,5.315,16.323-.814,19.025-6.954,19.05-7.016l1.267.517c-.118.286-3.065,7.009-20.247,7.865Q644,3310.942,642.538,3310.939Z" transform="translate(-519.055 -3236.866)" fill="#999"/>
        <rect id="Rectángulo_10392" data-name="Rectángulo 10392" width="158.673" height="1.368" transform="translate(45.494 216.619)" fill="#999"/>
        <rect id="Rectángulo_10393" data-name="Rectángulo 10393" width="163.097" height="1.368" transform="translate(43.424 207.141)" fill="#999"/>
        <rect id="Rectángulo_10394" data-name="Rectángulo 10394" width="1.368" height="55.72" transform="translate(124.512 217.303)" fill="#999"/>
        <path id="Trazado_110089" data-name="Trazado 110089" d="M676.429,3431.68l-1.368-.013.612-61.588c1.606-26.64.561-31.719.516-31.922l1.331-.311c.048.2,1.152,5.251-.48,32.282Z" transform="translate(-499.957 -3223.848)" fill="#999"/>
        <path id="Trazado_110090" data-name="Trazado 110090" d="M683.187,3745.532c-.021-.6-2.144-60.608-3.476-124.008-1.326-63.211-17.052-96.511-17.211-96.839l-.068-.3v-9.58l8.151-44.79,9.138-56.743,1.35.218-9.139,56.756-8.142,44.681.01,9.3c1.14,2.468,15.99,35.849,17.279,97.261,1.331,63.39,3.456,123.39,3.476,123.989Z" transform="translate(-504.606 -3196.081)" fill="#999"/>
        <path id="Trazado_110091" data-name="Trazado 110091" d="M604.14,3745.51l-.266-56.145c-.014-.466-1.313-48.565.267-82.523,1.547-33.288,14.993-79.864,15.7-82.288v-10.211l-9.18-45.1-8.9-55.748,1.352-.218,8.9,55.721,9.2,45.279-.027,10.571c-.141.479-14.1,48.212-15.673,82.061-1.576,33.908-.278,81.957-.264,82.438l.265,56.16Z" transform="translate(-526.941 -3196.081)" fill="#999"/>
        <rect id="Rectángulo_10395" data-name="Rectángulo 10395" width="1.368" height="485.665" transform="translate(123.167 63.786) rotate(-0.494)" fill="#999"/>
        <path id="Trazado_110092" data-name="Trazado 110092" d="M602.7,3431.68l-.612-61.588c-1.631-27-.527-32.045-.479-32.247l1.33.314-.665-.157.666.153c-.045.2-1.09,5.282.514,31.888l.613,61.623Z" transform="translate(-527.145 -3223.848)" fill="#999"/>
        <path id="Trazado_110093" data-name="Trazado 110093" d="M646.292,3349.169c-20.772,0-26.92-19.774-26.98-19.974l1.311-.393c.057.19,5.936,19,25.671,19h.171c19.864-.109,24.885-18.207,25.088-18.979l1.323.349c-.052.2-5.477,19.884-26.4,20Z" transform="translate(-520.479 -3227.177)" fill="#999"/>
        <path id="Trazado_110094" data-name="Trazado 110094" d="M676.067,3413.307l5.043-5.533,2.956.231s1.261.128,1.01-.995l-3.32-4.107s-1.556-1.729-2.06.26l-.168,3.458-4.5,5.423-.543,1.708Z" transform="translate(-500.17 -3200.155)" fill="#666"/>
        <g id="Grupo_56649" data-name="Grupo 56649" transform="translate(103.942 44.823)">
          <ellipse id="Elipse_4424" data-name="Elipse 4424" cx="20.565" cy="9.137" rx="20.565" ry="9.137" transform="translate(0.684 0.685)" fill="#fff"/>
          <path id="Trazado_110095" data-name="Trazado 110095" d="M644.3,3306.925c-11.916,0-21.249-4.315-21.249-9.82s9.333-9.822,21.249-9.822,21.248,4.315,21.248,9.822S656.21,3306.925,644.3,3306.925Zm0-18.274c-10.777,0-19.881,3.871-19.881,8.454s9.1,8.452,19.881,8.452,19.88-3.87,19.88-8.452S655.072,3288.651,644.3,3288.651Z" transform="translate(-623.046 -3287.283)" fill="#999"/>
        </g>
        <g id="Grupo_56653" data-name="Grupo 56653" transform="translate(114.053 14.951)">
          <g id="Grupo_56650" data-name="Grupo 56650" transform="translate(1.252)">
            <path id="Trazado_110096" data-name="Trazado 110096" d="M650.767,3278.96c0-7.186-4.234-13.011-9.458-13.011s-9.456,5.825-9.456,13.011c0,5.62,2.594,10.394,6.221,12.213v12.442h7.146V3290.8C648.489,3288.75,650.767,3284.226,650.767,3278.96Z" transform="translate(-631.168 -3265.265)" fill="#fff"/>
            <path id="Trazado_110097" data-name="Trazado 110097" d="M646.088,3304.483h-8.514v-12.715c-3.738-2.111-6.222-7.117-6.222-12.624,0-7.551,4.55-13.695,10.142-13.695s10.142,6.144,10.142,13.695c0,5.151-2.166,9.89-5.548,12.208Zm-7.146-1.368h5.778V3290.6l.32-.2c3.177-1.989,5.228-6.408,5.228-11.259,0-6.8-3.935-12.327-8.774-12.327s-8.774,5.53-8.774,12.327c0,5.185,2.349,9.848,5.846,11.6l.376.188Z" transform="translate(-631.352 -3265.449)" fill="#999"/>
          </g>
          <g id="Grupo_56651" data-name="Grupo 56651" transform="translate(0 15.706)">
            <rect id="Rectángulo_10396" data-name="Rectángulo 10396" width="22.179" height="3.804" rx="1.209" transform="translate(0.685 0.684)" fill="#fff"/>
            <path id="Trazado_110098" data-name="Trazado 110098" d="M651.647,3282.1H632.775a2.341,2.341,0,0,1-2.338-2.338v-.5a2.34,2.34,0,0,1,2.338-2.338h18.872a2.339,2.339,0,0,1,2.338,2.338v.5A2.34,2.34,0,0,1,651.647,3282.1Zm-18.872-3.8a.972.972,0,0,0-.97.97v.5a.972.972,0,0,0,.97.97h18.872a.971.971,0,0,0,.97-.97v-.5a.971.971,0,0,0-.97-.97Z" transform="translate(-630.437 -3276.929)" fill="#999"/>
          </g>
          <g id="Grupo_56652" data-name="Grupo 56652" transform="translate(0 8.444)">
            <rect id="Rectángulo_10397" data-name="Rectángulo 10397" width="22.179" height="3.804" rx="1.209" transform="translate(0.685 0.684)" fill="#fff"/>
            <path id="Trazado_110099" data-name="Trazado 110099" d="M651.647,3276.792H632.775a2.34,2.34,0,0,1-2.338-2.338v-.5a2.341,2.341,0,0,1,2.338-2.338h18.872a2.341,2.341,0,0,1,2.338,2.338v.5A2.339,2.339,0,0,1,651.647,3276.792Zm-18.872-3.8a.973.973,0,0,0-.97.97v.5a.972.972,0,0,0,.97.97h18.872a.971.971,0,0,0,.97-.97v-.5a.972.972,0,0,0-.97-.97Z" transform="translate(-630.437 -3271.621)" fill="#999"/>
          </g>
        </g>
        <g id="Grupo_56654" data-name="Grupo 56654" transform="translate(67.506 318.308)" opacity="0.33">
          <line id="Línea_265" data-name="Línea 265" x2="117.746" transform="translate(0 0.684)" fill="#fff"/>
          <rect id="Rectángulo_10398" data-name="Rectángulo 10398" width="117.746" height="1.368"/>
        </g>
        <g id="Grupo_56655" data-name="Grupo 56655" transform="translate(67.506 327.887)" opacity="0.33">
          <line id="Línea_266" data-name="Línea 266" x2="117.746" transform="translate(0 0.684)" fill="#fff"/>
          <rect id="Rectángulo_10399" data-name="Rectángulo 10399" width="117.746" height="1.368"/>
        </g>
        <path id="Trazado_110100" data-name="Trazado 110100" d="M580.258,3407.378l-1.32-.356c5.207-19.3.468-61.892.419-62.32l1.36-.155C580.764,3344.978,585.534,3387.827,580.258,3407.378Z" transform="translate(-535.341 -3221.381)" opacity="0.33"/>
        <path id="Trazado_110101" data-name="Trazado 110101" d="M698.475,3406.9c-5.278-19.557.254-60.6.312-61.015l1.354.188c-.056.407-5.552,41.18-.346,60.472Z" transform="translate(-492.177 -3220.889)" opacity="0.33"/>
        <g id="Grupo_56656" data-name="Grupo 56656" transform="translate(45.111 69.762)" opacity="0.5">
          <path id="Trazado_110102" data-name="Trazado 110102" d="M666.921,3314.369s-5.949,22.621-6.306,44.74.36,52.337.36,52.337l-1.111,101.122v88.986l.432,19.749s-5.569-2.618-12.708,1.725c0,0-3.568,2.5-10.647-.357,0,0-1.487-1.249-4.937.416S619.453,3621,619.453,3621a6.937,6.937,0,0,1-3.271-3.212c-1.428-2.559-9.874-3.51-9.874-3.51a15.536,15.536,0,0,0-12.076,2.855c-5.531,4.341-12.015,2.676-13.324-.476s1.309-19.868,1.309-19.868,8.328-24.135,9.042-37.169-3.331-60.145-3.331-60.145l.476-42.115s-.714-13.562-2.142-17.608-2.617-14.275-1.189-19.509,2.379-12.373.714-16.893-2.855-16.894-.714-22.128-1.19-13.8,0-16.894,6.187-18.083,12.61-19.987a32.043,32.043,0,0,0,10.446-5.234s-11.4-2.141-12.587-9.278S616,3319.127,616,3319.127a20.207,20.207,0,0,0,8.8-2.379c4.284-2.379,11.183-5.946,11.9-7.493s5.234-4.4,6.425-2.738a31.416,31.416,0,0,0,5.472,6.9c3.33,3.092,8.564,4.044,11.182,3.092S666.921,3314.369,666.921,3314.369Z" transform="translate(-579.862 -3305.328)" fill="#999"/>
          <path id="Trazado_110103" data-name="Trazado 110103" d="M643.46,3624.91a17.659,17.659,0,0,1-6.593-1.421.667.667,0,0,1-.183-.11h0s-1.267-.909-4.2.509c-3.623,1.747-12.149-1.669-13.109-2.066a7.611,7.611,0,0,1-3.609-3.511c-.915-1.64-6.222-2.81-9.353-3.163a15,15,0,0,0-11.577,2.713,11.821,11.821,0,0,1-10.14,2.458,6.027,6.027,0,0,1-4.238-3.209c-1.343-3.238.993-18.506,1.264-20.236.112-.358,8.335-24.312,9.036-37.1.7-12.837-3.29-59.577-3.331-60.048l.475-42.182c-.007-.092-.725-13.466-2.1-17.371-1.472-4.171-2.654-14.6-1.205-19.918,1.4-5.127,2.326-12.148.733-16.476-1.617-4.385-3.025-16.954-.707-22.625,1.153-2.818.612-6.758.133-10.234-.382-2.765-.71-5.154-.137-6.646.1-.26.228-.606.382-1.023,1.769-4.8,6.467-17.533,12.673-19.373a33.243,33.243,0,0,0,9.035-4.256c-3.23-.869-10.658-3.5-11.656-9.489a4.352,4.352,0,0,1,.859-3.328c3.885-5.429,19.5-8.057,20.167-8.167a19.9,19.9,0,0,0,8.581-2.3c.65-.362,1.359-.749,2.1-1.152,3.366-1.842,9-4.922,9.511-6.029.639-1.386,3.516-3.431,5.581-3.624a2.04,2.04,0,0,1,2.021.774c.286.4.557.823.85,1.282a25.083,25.083,0,0,0,4.533,5.517c3.086,2.862,8,3.854,10.484,2.951,2.616-.952,7.012-2.112,7.2-2.16a.689.689,0,0,1,.657.178.682.682,0,0,1,.178.657c-.059.226-5.931,22.8-6.282,44.577-.353,21.852.352,52.009.36,52.311l-1.112,101.144v88.979l.435,19.734a.684.684,0,0,1-.973.634c-.215-.1-5.353-2.391-12.065,1.688A8.518,8.518,0,0,1,643.46,3624.91Zm-6-2.659c6.541,2.614,9.892.42,9.923.4,5.7-3.462,10.41-2.717,12.392-2.138l-.413-18.755v-89l1.112-101.128c-.007-.278-.713-30.459-.36-52.338.309-19.148,4.849-38.886,6.042-43.766-1.5.415-4.188,1.177-5.955,1.82-2.918,1.059-8.385.014-11.882-3.234a26.326,26.326,0,0,1-4.756-5.78c-.279-.437-.538-.844-.809-1.225-.125-.175-.389-.246-.78-.208a7.589,7.589,0,0,0-4.467,2.836c-.651,1.408-4.6,3.647-10.1,6.656-.736.4-1.443.79-2.09,1.149a20.746,20.746,0,0,1-9.135,2.465c-.045.017-15.609,2.633-19.166,7.6a3,3,0,0,0-.622,2.307c1.1,6.589,11.93,8.7,12.039,8.719a.684.684,0,0,1,.309,1.2,32.514,32.514,0,0,1-10.686,5.364c-5.549,1.645-10.239,14.355-11.779,18.534-.156.423-.287.776-.389,1.042-.447,1.163-.126,3.5.215,5.968.5,3.647,1.073,7.78-.22,10.939-2.03,4.966-.985,17,.724,21.633,2.147,5.827.008,14.722-.7,17.311-1.385,5.079-.242,15.089,1.175,19.1,1.443,4.089,2.149,17.24,2.179,17.8l-.476,42.16c.038.405,4.039,47.241,3.331,60.174-.713,12.979-8.994,37.113-9.079,37.355-.691,4.479-2.337,16.943-1.323,19.383a4.772,4.772,0,0,0,3.32,2.412,10.483,10.483,0,0,0,8.95-2.214,16.087,16.087,0,0,1,12.648-2.982c.826.088,8.766,1.058,10.32,3.842a6.43,6.43,0,0,0,2.909,2.9c2.479,1.018,9.418,3.364,12.019,2.108C635.254,3621.032,637.006,3621.939,637.459,3622.251Z" transform="translate(-580.045 -3305.512)" fill="#4d4d4d"/>
        </g>
        <g id="Grupo_56657" data-name="Grupo 56657" transform="translate(113.394 384.226)">
          <path id="Trazado_110104" data-name="Trazado 110104" d="M630.445,3537.967s.714.492,1.205,2.589,1.7,3.167,4.461,1.873,4.239-2.114,5-1.95,2.23-.683,1.561-1.887a5.827,5.827,0,0,0-1.472-1.784,7.213,7.213,0,0,0-4.282-.894c-2.32.313-4.238.671-4.238.671Z" transform="translate(-629.774 -3535.181)" fill="#999"/>
          <path id="Trazado_110105" data-name="Trazado 110105" d="M634.207,3543.86a2.811,2.811,0,0,1-1.252-.275,3.653,3.653,0,0,1-1.791-2.69,4.329,4.329,0,0,0-.952-2.2.713.713,0,0,1-.256-.584.684.684,0,0,1,.308-.542l2.231-1.383a.686.686,0,0,1,.235-.092c.021,0,1.963-.362,4.273-.674a7.9,7.9,0,0,1,4.732.988,6.4,6.4,0,0,1,1.712,2.033,1.771,1.771,0,0,1-.1,1.988,2.358,2.358,0,0,1-2.2.9,10.411,10.411,0,0,0-3.159,1.235l-1.4.665A5.719,5.719,0,0,1,634.207,3543.86Zm-2.565-5.534a7.636,7.636,0,0,1,.855,2.257,2.453,2.453,0,0,0,1.056,1.772,3.03,3.03,0,0,0,2.449-.363l1.393-.659c2.125-1.017,3.192-1.53,4.04-1.338a1.057,1.057,0,0,0,.813-.38.41.41,0,0,0,0-.508,5.27,5.27,0,0,0-1.276-1.562h0a6.6,6.6,0,0,0-3.79-.768c-1.941.261-3.617.559-4.078.641Z" transform="translate(-629.955 -3535.365)" fill="#4d4d4d"/>
        </g>
        <g id="Grupo_56658" data-name="Grupo 56658" transform="translate(47.801 90.905)">
          <path id="Trazado_110106" data-name="Trazado 110106" d="M582.511,3359.565s.825-12.84,3.236-21.575a24.4,24.4,0,0,1,1.564-4.122c1.478-3.07,4.609-9.154,7.661-12.4,0,0-1.846,3.714.373,5.831s6.243,5.619,11.024,5.827a34.476,34.476,0,0,1-7.441,4.314l-4.284,1.784a15.166,15.166,0,0,0-4.8,4.809,89.026,89.026,0,0,0-4.128,8.218Z" transform="translate(-581.827 -3320.782)" fill="#999"/>
          <path id="Trazado_110107" data-name="Trazado 110107" d="M582.7,3360.435a.663.663,0,0,1-.163-.02.683.683,0,0,1-.52-.709c.007-.127.858-13.011,3.257-21.713a25.069,25.069,0,0,1,1.609-4.236c1.582-3.29,4.7-9.3,7.779-12.574a.684.684,0,0,1,1.111.773c-.015.032-1.591,3.294.231,5.033,2.442,2.329,6.2,5.447,10.584,5.637a.685.685,0,0,1,.4,1.219,34.96,34.96,0,0,1-7.607,4.411l-4.282,1.783h0a14.839,14.839,0,0,0-4.475,4.533,88.706,88.706,0,0,0-4.087,8.139l-3.211,7.317A.687.687,0,0,1,582.7,3360.435Zm11.058-35.963a70.99,70.99,0,0,0-5.642,9.878,23.591,23.591,0,0,0-1.521,4.007,113.867,113.867,0,0,0-2.865,17.343l1.554-3.541a88.673,88.673,0,0,1,4.169-8.3,15.743,15.743,0,0,1,5.04-5.045l4.36-1.825a34.087,34.087,0,0,0,5.892-3.216c-4.05-.813-7.408-3.625-9.684-5.8A4.427,4.427,0,0,1,593.754,3324.471Z" transform="translate(-582.011 -3320.967)" fill="#4d4d4d"/>
        </g>
        <path id="Trazado_110108" data-name="Trazado 110108" d="M604.074,3412.535,599.03,3407l-2.955.23s-1.261.13-1.01-.995l3.32-4.105s1.556-1.729,2.06.258l.168,3.458,4.5,5.425.542,1.708Z" transform="translate(-529.417 -3200.44)" fill="#666"/>
        <path id="Trazado_110109" data-name="Trazado 110109" d="M637.883,3410.709l-5.044-5.533-2.956.23s-1.261.13-1.008-1l3.32-4.105s1.554-1.729,2.059.258l.168,3.459,4.5,5.425.543,1.707Z" transform="translate(-516.971 -3201.112)" fill="#666"/>
        <path id="Trazado_110110" data-name="Trazado 110110" d="M640.508,3494.03l5.043-5.532,2.957.229s1.261.13,1.008-.995l-3.32-4.105s-1.554-1.729-2.059.258l-.168,3.459-4.5,5.424-.543,1.708Z" transform="translate(-513.26 -3170.441)" fill="#666"/>
        <path id="Trazado_110111" data-name="Trazado 110111" d="M640.508,3492.638l5.043,5.532,2.957-.231s1.261-.128,1.008.994l-3.32,4.107s-1.554,1.729-2.059-.26l-.168-3.458-4.5-5.423-.543-1.709Z" transform="translate(-513.26 -3167.031)" fill="#666"/>
        <path id="Trazado_110112" data-name="Trazado 110112" d="M640.508,3345.439l5.043-5.533,2.957.231s1.261.128,1.008-.995l-3.32-4.107s-1.554-1.729-2.059.26l-.168,3.457-4.5,5.425-.543,1.709Z" transform="translate(-513.26 -3225.138)" fill="#666"/>
        <path id="Trazado_110113" data-name="Trazado 110113" d="M640.508,3344.046l5.043,5.533,2.957-.23s1.261-.13,1.008.995l-3.32,4.106s-1.554,1.729-2.059-.259l-.168-3.458-4.5-5.425-.543-1.707Z" transform="translate(-513.26 -3221.729)" fill="#666"/>
        <path id="Trazado_110114" data-name="Trazado 110114" d="M604.074,3410.321l-5.044,5.533-2.955-.23s-1.261-.13-1.01.993l3.32,4.107s1.556,1.729,2.06-.26l.168-3.458,4.5-5.424.542-1.708Z" transform="translate(-529.417 -3197.333)" fill="#666"/>
        <path id="Trazado_110115" data-name="Trazado 110115" d="M637.883,3410.321l-5.044,5.533-2.956-.23s-1.261-.13-1.008.993l3.32,4.107s1.554,1.729,2.059-.26l.168-3.458,4.5-5.424.543-1.708Z" transform="translate(-516.971 -3197.333)" fill="#666"/>
      </g>
    </g>
  </g>
</svg>
