<svg xmlns="http://www.w3.org/2000/svg" width="18.218" height="38.348" viewBox="0 0 18.218 38.348">
  <g id="Grupo_56603" data-name="Grupo 56603" transform="translate(-910.55 -2170.542)">
    <g id="Grupo_56602" data-name="Grupo 56602">
      <path id="Trazado_109868" data-name="Trazado 109868" d="M927.812,2199.139l-2.508-4.966a1.737,1.737,0,0,1-.061-1.433l2.464-6.13a2.86,2.86,0,0,0,.209-1.077v-2.862a2.026,2.026,0,0,0-1.2-1.848l-3.634-1.628a.607.607,0,0,1-.358-.553v-1.61a1.237,1.237,0,0,0-1.236-1.235h-1.269v-1.169a2.082,2.082,0,1,0-1.124,0v1.169h-1.269a1.237,1.237,0,0,0-1.236,1.235v1.61a.608.608,0,0,1-.359.554l-3.633,1.627a2.026,2.026,0,0,0-1.2,1.848v2.862a2.879,2.879,0,0,0,.208,1.077l2.465,6.13a1.743,1.743,0,0,1-.061,1.434l-2.508,4.965a8.95,8.95,0,0,0-.956,4.013v1.731a1.649,1.649,0,0,0,1.647,1.647h5.482v1.8a.561.561,0,1,0,1.123,0v-1.8h1.713v1.8a.562.562,0,1,0,1.124,0v-1.8h5.482a1.649,1.649,0,0,0,1.647-1.647v-1.731A8.95,8.95,0,0,0,927.812,2199.139Zm-9.112-26.515a.958.958,0,1,1,.959.958A.96.96,0,0,1,918.7,2172.624Zm-.985,4.408a.113.113,0,0,1,.113-.112h3.662a.112.112,0,0,1,.112.112v1.61a1.723,1.723,0,0,0,.22.842,7.239,7.239,0,0,1-4.363.062,1.724,1.724,0,0,0,.256-.9Zm-5.062,9.159a1.742,1.742,0,0,1-.127-.658v-2.862a.9.9,0,0,1,.533-.823l3.38-1.514a6.76,6.76,0,0,0,2.658.643v2a.562.562,0,0,0,1.124,0v-2.025a9.709,9.709,0,0,0,2.621-.633l3.417,1.53a.9.9,0,0,1,.533.823v2.862a1.761,1.761,0,0,1-.127.658l-2.465,6.13h0a2.868,2.868,0,0,0-.165,1.544h-3.814V2185.6a.562.562,0,0,0-1.124,0v8.261h-3.814a2.859,2.859,0,0,0-.166-1.544Zm2.208,8.8H919.1v7.6h-7.4a7.827,7.827,0,0,1,.814-2.945Zm-2.664,10.418a.524.524,0,0,1-.523-.523v-1.17H919.1v1.693Zm14.924,0h-6.9v-10.418h4.236l2.352,4.658a7.817,7.817,0,0,1,.814,2.944h-5.331a.561.561,0,1,0,0,1.123h5.352v1.17a.524.524,0,0,1-.523.523Z" fill="#0ac4bf"/>
    </g>
  </g>
</svg>
