<svg xmlns="http://www.w3.org/2000/svg" width="750.156" height="448.204" viewBox="0 0 750.156 448.204">
  <g id="Grupo_57742" data-name="Grupo 57742" transform="translate(-388 -11838)">
    <g id="Grupo_56625" data-name="Grupo 56625" transform="translate(126.82 9043.982)">
      <rect id="Rectángulo_10371" data-name="Rectángulo 10371" width="292.673" height="427.75" rx="26.031" transform="translate(261.18 2794.018)" fill="#fff"/>
      <g id="Grupo_56623" data-name="Grupo 56623" transform="translate(310.671 2830.969)">
        <g id="Grupo_56611" data-name="Grupo 56611" transform="translate(0 0)">
          <path id="Trazado_109870" data-name="Trazado 109870" d="M336.906,3062.821l-1.254-.381c.314-1.03,7.4-24.124,11.7-29.384-.975-.563-2.912-1.736-5.916-3.77l-17.107.4-.168-.423-25.207-63.449,15.29-18.1c.607-.792,15.442-20,26.781-23.782l.414,1.245c-10.958,3.651-26.024,23.161-26.174,23.359l-14.8,17.524,24.748,62.295,16.616-.393.174.117c4.517,3.069,6.693,4.224,6.716,4.236l.865.456-.751.626C345.59,3036.1,339.124,3055.554,336.906,3062.821Z" transform="translate(-298.957 -2790.682)" fill="#454545"/>
          <path id="Trazado_109871" data-name="Trazado 109871" d="M343.457,3033.527l-.976-.875c.759-.848,2.639-3.374,2.247-4.865-.58-2.208-1.575-26.408-1.617-27.438a52.1,52.1,0,0,0-3.586-13.811c-2.81-6.18-8.258-21.41-8.375-26.757-.11-4.982.916-25.694,1.018-27.751a65.443,65.443,0,0,1-3.18-16.227c-.793-9.836-.01-31.752,0-31.974l1.31.048c-.009.219-.787,22.061,0,31.821a64.087,64.087,0,0,0,3.148,16l.05.128-.008.138c-.012.227-1.136,22.705-1.023,27.792.11,4.989,5.422,20.009,8.258,26.244a52.37,52.37,0,0,1,3.7,14.26c.288,7.012,1.125,25.479,1.577,27.2C346.635,3029.89,343.784,3033.161,343.457,3033.527Z" transform="translate(-289.755 -2803.12)" fill="#454545"/>
          <path id="Trazado_109872" data-name="Trazado 109872" d="M309.021,2929.535l-1.072-.752,22.215-31.67c.194-.351,5.7-9.915,16.129-12,10.026-2,21.108-8.293,21.22-8.357l4.853-2.352-.115,1.165c-.043.435-.92,10.673,10.7,14.115.107.035,9.141,2.954,15.491,3.624,6.214.666,16.368-4.991,16.47-5.048a7.3,7.3,0,0,0,3.777-4.9,2.306,2.306,0,0,0-.295-1.963,2.111,2.111,0,0,0-1.669-.354,1.069,1.069,0,0,1-.946-.218c-.825-.632-1.06-2.344-.743-5.391.567-5.453,3.621-17.795,3.751-18.317l1.272.314c-.033.129-3.161,12.778-3.721,18.138-.337,3.23.092,4.03.208,4.183a2.874,2.874,0,0,1,3.431,3.841,8.5,8.5,0,0,1-4.469,5.83c-.388.219-10.595,5.886-17.207,5.184-6.488-.682-15.365-3.553-15.739-3.675-10.325-3.058-11.542-11.356-11.632-14.378l-2.8,1.358c-.072.043-11.335,6.435-21.575,8.483-9.827,1.966-15.226,11.319-15.278,11.415Zm107.465-49.773a.34.34,0,0,0-.126.027c.022-.006.068-.016.134-.027Zm.086.023Z" transform="translate(-296.169 -2811.402)" fill="#454545"/>
          <path id="Trazado_109873" data-name="Trazado 109873" d="M383.466,3003.879c-29.291,0-41.17-8.7-41.67-9.076l.789-1.045c.121.09,12.557,9.135,42.547,8.8,30.12-.334,44.6-6.6,44.741-6.665l.532,1.2c-.144.063-14.83,6.438-45.257,6.776Q384.3,3003.88,383.466,3003.879Z" transform="translate(-285.673 -2769.032)" fill="#454545"/>
          <path id="Trazado_109874" data-name="Trazado 109874" d="M358.521,3035.672l-1.307-.081c.012-.191,1.179-19.24,0-32.027a67.205,67.205,0,0,0-6.59-22.9,117.669,117.669,0,0,0-6.561-13.728c-3.3-5.469-3.506-13.731-3.514-14.081l.586-32.662-.756-41.417,1.31-.022.756,41.438-.586,32.66c0,.058.207,8.24,3.324,13.408a117.693,117.693,0,0,1,6.628,13.852,68.5,68.5,0,0,1,6.708,23.335C359.706,3016.333,358.533,3035.481,358.521,3035.672Z" transform="translate(-286.112 -2804.694)" fill="#454545"/>
          <path id="Trazado_109875" data-name="Trazado 109875" d="M397.516,3036.419l-1.31-.038c0-.058.181-5.893,1.026-27.469.777-19.863,3.909-24.476,4.7-25.333a89.027,89.027,0,0,1,6.672-14.333c3.6-5.953,4.505-28.974,4.291-30.436l.039-.007c-.173-1.1-.194-6.646.447-38.865,0,0-.656-7.4-.769-13.732-.1-5.895-5.62-8.74-5.677-8.767l.587-1.173c.255.128,6.279,3.216,6.4,9.917.113,6.282.76,13.636.766,13.71-.293,14.96-.68,37.516-.531,38.623l-.013,0c.342,2.374-.612,25.114-4.419,31.406a87.689,87.689,0,0,0-6.605,14.229l-.059.17-.138.115c-.021.021-3.562,3.6-4.381,24.523C397.7,3030.531,397.517,3036.365,397.516,3036.419Z" transform="translate(-268.801 -2805.464)" fill="#454545"/>
          <path id="Trazado_109876" data-name="Trazado 109876" d="M434.295,3142.09l-.77-1.06c.068-.05,6.887-5.02,8.2-6.413.9-.952,2.206-7.058,2.822-10.683l2.581-8.789c.067-.246,1.738-6.323,2.872-8.416.863-1.594,1.721-6.732,1.978-8.58l1.112-33.651v-23.322c0-.141-.283-15.377-2.066-22.172-1.83-6.976-.968-18.09-.93-18.56l1.822-18.94.569-35.927a164.091,164.091,0,0,0,0-27.953c-1.1-11.675-4.475-16.707-8.054-22.035-.811-1.208-1.649-2.456-2.45-3.775-3.964-6.539-11.846-6.307-11.943-6.291l-.179.007-4.536-2.442-7.1-1.918-12.211-3.765-14.931-4.786.4-1.249,14.925,4.784,12.183,3.757,7.295,1.987,4.291,2.31c1.266-.006,8.871.229,12.932,6.926.785,1.294,1.615,2.531,2.417,3.726,3.514,5.229,7.145,10.636,8.272,22.641a165.062,165.062,0,0,1,0,28.153l-.567,35.924-1.825,18.982c-.008.1-.88,11.352.892,18.112,1.822,6.946,2.1,21.863,2.109,22.493v23.356l-1.119,33.741c-.045.35-.976,6.962-2.13,9.092a62.569,62.569,0,0,0-2.763,8.149l-2.566,8.727c-.259,1.555-1.712,9.766-3.143,11.286C441.283,3136.995,434.581,3141.882,434.295,3142.09Z" transform="translate(-270.392 -2806.983)" fill="#454545"/>
          <path id="Trazado_109877" data-name="Trazado 109877" d="M409.228,2997.272l10.595,27,6.066,20.676,3.845,15.636s1.281,11.705-1.368,14.354-1.793,6.493-1.793,6.493l-.427,45.37,2.221-9.656.769-32.3s2.564-6.835,4.614-8.288,5.64-4.614,3.845-11.449-7.348-31.869-7.348-31.869,1.368-7.605-.6-12.3-5.716-17.686-12.769-22.214l-4.319-3.161-3.332.939Z" transform="translate(-264.763 -2768.471)" fill="#454545"/>
          <path id="Trazado_109878" data-name="Trazado 109878" d="M411.057,3032.531l-.165-12.717s-.228-7.519,3.417-10.424,3.59-3.3,3.818-7.005-.172-4.9,1.2-7.178,3.93-8.088,3.93-8.088l4.443-8.943,2.677-8.6s.456-1.737.8-8.844-.74-24.821-.74-24.821l-2.05-40.327s-1.453-8.288-4.272-13.072l-3.045-1.795,1.934,3.5a88.271,88.271,0,0,1,1.965,12.987c.17,5.126-.342,14.866-.342,14.866l-1.538,22.471-.085,22.9s-2.126,14.44-5.763,20.335-7.651,15.978-7.651,15.978-1.795,14.525-1.453,20.933.194,17.1.194,17.1Z" transform="translate(-265.117 -2804.085)" fill="#454545"/>
          <path id="Trazado_109879" data-name="Trazado 109879" d="M422.5,2898.555s4.442,1.182,7.56-4.941-.341-13.514-.341-13.514l-2.607-4.272a2.628,2.628,0,0,1,.555-2.563s3.888,0,5.085-3.075,2.648-7.007,1.153-11.322-7.262-11.15-7.262-11.15l-12.731-23.368a3.681,3.681,0,0,0-4.314-1.966,7.256,7.256,0,0,0,0,6.921c1.965,3.8,8.458,18.412,8.458,18.412a43.237,43.237,0,0,0,7.22,9.185s1.324,2.948.727,4.272-2.094,4.4-2.094,4.4-1.41.982-2.008.213-9.527-18.712-10.082-21.7l-.683-2.222s-1.923-3.845-1.538.641,4.913,16.789,4.913,16.789,2.135,5.725,4.828,8.459a8.831,8.831,0,0,0,1.495,6.451l1.58,1.837s3.248,6.921.087,10.039c0,0-2.734,6.109-8.288,7.946l-2.863.812Z" transform="translate(-264.919 -2822.223)" fill="#3c3c3c"/>
          <g id="Grupo_56610" data-name="Grupo 56610" transform="translate(37.959 278.119)">
            <path id="Trazado_109880" data-name="Trazado 109880" d="M342.633,3053.617a12.33,12.33,0,0,1-5.13.923c-5.477,0-9.572-3.458-9.572-9.83,0-6.083,4.122-10.176,10.147-10.176a11.1,11.1,0,0,1,4.613.836l-.635,2.075a8.891,8.891,0,0,0-3.891-.809c-4.554,0-7.581,2.912-7.581,7.987,0,4.755,2.738,7.783,7.437,7.783a10.086,10.086,0,0,0,4.123-.808Z" transform="translate(-327.931 -3034.506)"/>
            <path id="Trazado_109881" data-name="Trazado 109881" d="M348.963,3054.576c-5.16,0-8.734-3.977-8.734-9.858,0-6.169,3.8-10.2,8.994-10.2,5.332,0,8.763,4.064,8.763,9.828,0,6.659-4.065,10.235-8.994,10.235Zm.144-2.048c3.977,0,6.226-3.659,6.226-8.071,0-3.862-2.018-7.9-6.2-7.9s-6.256,3.892-6.256,8.1c0,4.094,2.248,7.868,6.2,7.868Z" transform="translate(-324.117 -3034.513)"/>
            <path id="Trazado_109882" data-name="Trazado 109882" d="M356.267,3035.076a26.154,26.154,0,0,1,4.815-.432c2.682,0,4.439.52,5.649,1.615a4.846,4.846,0,0,1,1.528,3.69,5.126,5.126,0,0,1-3.66,4.93v.085c1.47.52,2.363,1.9,2.855,3.921a34.885,34.885,0,0,0,1.47,5.333h-2.594a24.278,24.278,0,0,1-1.269-4.642c-.576-2.68-1.643-3.69-3.92-3.776h-2.363v8.418h-2.509Zm2.509,8.822h2.565c2.68,0,4.382-1.47,4.382-3.691,0-2.508-1.817-3.6-4.469-3.6a10.484,10.484,0,0,0-2.479.232Z" transform="translate(-319.144 -3034.472)"/>
            <path id="Trazado_109883" data-name="Trazado 109883" d="M372.516,3036.888h-5.91v-2.133h14.385v2.133h-5.939v17.3h-2.536Z" transform="translate(-315.938 -3034.438)"/>
            <path id="Trazado_109884" data-name="Trazado 109884" d="M389.272,3045.074H381.75v7h8.417v2.106H379.212v-19.429h10.521v2.1H381.75V3043h7.523Z" transform="translate(-312.029 -3034.438)"/>
            <path id="Trazado_109885" data-name="Trazado 109885" d="M328.811,3061.449a25.851,25.851,0,0,1,4.815-.4c2.479,0,4.294.577,5.449,1.614a5.226,5.226,0,0,1,1.728,4.035,5.611,5.611,0,0,1-1.528,4.151,8.048,8.048,0,0,1-5.937,2.133,8.55,8.55,0,0,1-2.018-.173v7.812h-2.509Zm2.509,9.311a8.406,8.406,0,0,0,2.075.2c3.026,0,4.872-1.47,4.872-4.121,0-2.565-1.817-3.806-4.584-3.806a10.489,10.489,0,0,0-2.363.2Z" transform="translate(-327.658 -3026.286)"/>
            <path id="Trazado_109886" data-name="Trazado 109886" d="M340.515,3061.477a26.2,26.2,0,0,1,4.815-.432c2.682,0,4.439.519,5.649,1.614a4.85,4.85,0,0,1,1.527,3.69,5.125,5.125,0,0,1-3.66,4.929v.087c1.47.519,2.363,1.9,2.855,3.921a34.911,34.911,0,0,0,1.47,5.332h-2.594a24.216,24.216,0,0,1-1.27-4.642c-.576-2.68-1.643-3.689-3.92-3.775h-2.363v8.417h-2.509Zm2.509,8.821h2.565c2.68,0,4.382-1.47,4.382-3.689,0-2.508-1.817-3.6-4.469-3.6a10.479,10.479,0,0,0-2.479.232Z" transform="translate(-324.029 -3026.286)"/>
            <path id="Trazado_109887" data-name="Trazado 109887" d="M354.867,3061.155v19.428h-2.538v-19.428Z" transform="translate(-320.365 -3026.252)"/>
            <path id="Trazado_109888" data-name="Trazado 109888" d="M357.609,3080.584v-19.428h2.767l6.2,9.83a54.383,54.383,0,0,1,3.459,6.312l.086-.027c-.229-2.6-.287-4.958-.287-7.956v-8.158h2.362v19.428h-2.536l-6.168-9.859a56.81,56.81,0,0,1-3.6-6.485l-.085.027c.143,2.45.172,4.785.172,8.014v8.3Z" transform="translate(-318.728 -3026.252)"/>
            <path id="Trazado_109889" data-name="Trazado 109889" d="M385.906,3080.018a12.341,12.341,0,0,1-5.13.922c-5.478,0-9.572-3.458-9.572-9.83,0-6.083,4.123-10.176,10.148-10.176a11.118,11.118,0,0,1,4.612.836l-.634,2.075a8.9,8.9,0,0,0-3.891-.807c-4.555,0-7.581,2.911-7.581,7.986,0,4.755,2.738,7.782,7.437,7.782a10.076,10.076,0,0,0,4.122-.807Z" transform="translate(-314.512 -3026.32)"/>
            <path id="Trazado_109890" data-name="Trazado 109890" d="M394.882,3071.475h-7.523v7h8.417v2.1H384.823v-19.428h10.521v2.1h-7.985v6.139h7.523Z" transform="translate(-310.289 -3026.252)"/>
            <path id="Trazado_109891" data-name="Trazado 109891" d="M395.584,3077.6a8.783,8.783,0,0,0,4.467,1.239c2.565,0,4.065-1.326,4.065-3.286,0-1.816-1.038-2.884-3.662-3.864-3.17-1.1-5.13-2.767-5.13-5.476,0-3.028,2.508-5.276,6.285-5.276a9.1,9.1,0,0,1,4.266.922l-.693,2.075a7.191,7.191,0,0,0-3.66-.922c-2.652,0-3.662,1.585-3.662,2.912,0,1.786,1.183,2.681,3.865,3.718,3.284,1.3,4.929,2.855,4.929,5.707,0,2.97-2.192,5.593-6.775,5.593a10.035,10.035,0,0,1-4.959-1.268Z" transform="translate(-307.158 -3026.32)"/>
            <path id="Trazado_109892" data-name="Trazado 109892" d="M410,3074.472l-2.018,6.112h-2.594l6.6-19.428h3.028l6.629,19.428h-2.68l-2.077-6.112Zm6.372-1.96-1.932-5.592c-.4-1.267-.692-2.42-.98-3.545h-.086c-.259,1.125-.576,2.336-.951,3.518l-1.9,5.62Z" transform="translate(-303.911 -3026.252)"/>
          </g>
        </g>
      </g>
    </g>
    <g id="Grupo_56640" data-name="Grupo 56640" transform="translate(-89.957 9120.74)">
      <rect id="Rectángulo_10376" data-name="Rectángulo 10376" width="344.157" height="448.204" transform="translate(883.957 2717.26)" fill="#dcdcde"/>
      <rect id="Rectángulo_10377" data-name="Rectángulo 10377" width="268.76" height="394.208" transform="translate(912.724 2746.084)" fill="#f7f2e6"/>
      <rect id="Rectángulo_10378" data-name="Rectángulo 10378" width="256.669" height="2" transform="translate(918.725 2879.012)" fill="#333"/>
      <rect id="Rectángulo_10379" data-name="Rectángulo 10379" width="2" height="376.345" transform="translate(1148.072 2755.828)" fill="#333"/>
      <g id="Grupo_56627" data-name="Grupo 56627">
        <rect id="Rectángulo_10380" data-name="Rectángulo 10380" width="2" height="163.038" transform="translate(1194.694 2962.067)" fill="#333"/>
        <g id="Grupo_56626" data-name="Grupo 56626">
          <path id="Trazado_109978" data-name="Trazado 109978" d="M1188.287,3119.488l7.406,3.146,7.406-3.146-7.406,17.557Z" fill="#333"/>
        </g>
      </g>
      <g id="Grupo_56629" data-name="Grupo 56629">
        <rect id="Rectángulo_10381" data-name="Rectángulo 10381" width="2" height="130.561" transform="translate(1194.694 2763.302)" fill="#333"/>
        <g id="Grupo_56628" data-name="Grupo 56628">
          <path id="Trazado_109979" data-name="Trazado 109979" d="M1203.1,2768.919l-7.406-3.146-7.406,3.146,7.406-17.557Z" fill="#333"/>
        </g>
      </g>
      <g id="Grupo_56631" data-name="Grupo 56631">
        <rect id="Rectángulo_10382" data-name="Rectángulo 10382" width="2" height="108.351" transform="translate(1060.419 2751.362)" fill="#333"/>
        <g id="Grupo_56630" data-name="Grupo 56630">
          <path id="Trazado_109980" data-name="Trazado 109980" d="M1054.013,2854.1l7.406,3.146,7.406-3.146-7.406,17.557Z" fill="#333"/>
        </g>
      </g>
      <g id="Grupo_56633" data-name="Grupo 56633">
        <rect id="Rectángulo_10383" data-name="Rectángulo 10383" width="83.128" height="2" transform="translate(1082.357 2730.469)" fill="#333"/>
        <g id="Grupo_56632" data-name="Grupo 56632">
          <path id="Trazado_109981" data-name="Trazado 109981" d="M1159.867,2738.875l3.146-7.406-3.146-7.406,17.557,7.406Z" fill="#333"/>
        </g>
      </g>
      <g id="Grupo_56635" data-name="Grupo 56635">
        <rect id="Rectángulo_10384" data-name="Rectángulo 10384" width="87.932" height="2" transform="translate(927.911 2730.469)" fill="#333"/>
        <g id="Grupo_56634" data-name="Grupo 56634">
          <path id="Trazado_109982" data-name="Trazado 109982" d="M933.528,2724.063l-3.146,7.406,3.146,7.406-17.557-7.406Z" fill="#333"/>
        </g>
      </g>
      <g id="Grupo_56636" data-name="Grupo 56636">
        <path id="Trazado_109983" data-name="Trazado 109983" d="M1026.17,2730.025h1.145a1.389,1.389,0,0,0,1.074-.381,1.5,1.5,0,0,0,.349-1.056,1.378,1.378,0,0,0-.349-.985,1.326,1.326,0,0,0-1.012-.37,1.434,1.434,0,0,0-.963.335,1.105,1.105,0,0,0-.39.88h-1.976l-.014-.042a2.312,2.312,0,0,1,.914-1.968,3.653,3.653,0,0,1,2.373-.775,3.9,3.9,0,0,1,2.516.754,2.6,2.6,0,0,1,.94,2.149,2.156,2.156,0,0,1-.419,1.26,2.785,2.785,0,0,1-1.152.932,2.582,2.582,0,0,1,1.287.922,2.419,2.419,0,0,1,.444,1.444,2.641,2.641,0,0,1-1.016,2.2,4.081,4.081,0,0,1-2.6.8,3.982,3.982,0,0,1-2.432-.75,2.4,2.4,0,0,1-.981-2.118l.015-.042h1.975a1.238,1.238,0,0,0,.419.962,1.52,1.52,0,0,0,1.06.378,1.544,1.544,0,0,0,1.113-.39,1.393,1.393,0,0,0,.409-1.059,1.526,1.526,0,0,0-.4-1.172,1.676,1.676,0,0,0-1.182-.373h-1.145Z"/>
        <path id="Trazado_109984" data-name="Trazado 109984" d="M1032.57,2731.47l.585-5.661h5.667v1.634h-4l-.279,2.345a2.436,2.436,0,0,1,.678-.346,3.192,3.192,0,0,1,3.15.743,3.674,3.674,0,0,1,.807,2.527,3.481,3.481,0,0,1-.883,2.436,3.264,3.264,0,0,1-2.544.97,3.823,3.823,0,0,1-2.4-.768,2.424,2.424,0,0,1-.963-2.107l.014-.035,1.961-.1a1.424,1.424,0,0,0,.384,1.058,1.369,1.369,0,0,0,1.005.38,1.174,1.174,0,0,0,1.05-.505,2.32,2.32,0,0,0,.339-1.32,2.451,2.451,0,0,0-.363-1.408,1.22,1.22,0,0,0-1.075-.529,1.557,1.557,0,0,0-.9.217,1.171,1.171,0,0,0-.443.586Z"/>
        <path id="Trazado_109985" data-name="Trazado 109985" d="M1047.331,2734.548a1.2,1.2,0,0,0,.872-.316,1.114,1.114,0,0,0,.328-.842h1.85l.022.042a2.355,2.355,0,0,1-.863,1.915,3.636,3.636,0,0,1-4.812-.3,4.069,4.069,0,0,1-.914-2.744v-.208a4.094,4.094,0,0,1,.911-2.744,3.219,3.219,0,0,1,2.6-1.075,3.173,3.173,0,0,1,2.251.8,2.646,2.646,0,0,1,.828,2.094l-.015.042h-1.857a1.474,1.474,0,0,0-.32-.974,1.092,1.092,0,0,0-.887-.388,1.182,1.182,0,0,0-1.141.628,3.451,3.451,0,0,0-.331,1.617v.209a3.445,3.445,0,0,0,.331,1.628A1.193,1.193,0,0,0,1047.331,2734.548Z"/>
        <path id="Trazado_109986" data-name="Trazado 109986" d="M1053.451,2728.42l.084,1a2.558,2.558,0,0,1,.911-.841,2.631,2.631,0,0,1,1.267-.3,2.315,2.315,0,0,1,1.242.321,1.985,1.985,0,0,1,.782.97,2.618,2.618,0,0,1,.907-.949,2.462,2.462,0,0,1,1.312-.342,2.181,2.181,0,0,1,1.763.772,3.6,3.6,0,0,1,.645,2.348v4.572h-2.038v-4.589a1.92,1.92,0,0,0-.279-1.2,1.021,1.021,0,0,0-.831-.336,1.424,1.424,0,0,0-.75.193,1.406,1.406,0,0,0-.506.535c0,.089,0,.165.007.228s.007.126.007.192v4.974h-2.03v-4.589a1.923,1.923,0,0,0-.28-1.186,1.015,1.015,0,0,0-.838-.347,1.565,1.565,0,0,0-.722.159,1.387,1.387,0,0,0-.513.443v5.52h-2.031v-7.552Z"/>
        <path id="Trazado_109987" data-name="Trazado 109987" d="M1068.01,2733.891a.711.711,0,0,0-.324-.579,3.324,3.324,0,0,0-1.2-.432,4.854,4.854,0,0,1-2.021-.806,1.754,1.754,0,0,1-.681-1.456,2.081,2.081,0,0,1,.821-1.657,3.333,3.333,0,0,1,2.2-.681,3.6,3.6,0,0,1,2.3.678,2,2,0,0,1,.819,1.709l-.013.042h-1.968a.993.993,0,0,0-.29-.739,1.387,1.387,0,0,0-1.626-.046.76.76,0,0,0-.283.6.688.688,0,0,0,.3.572,3.25,3.25,0,0,0,1.2.4,4.89,4.89,0,0,1,2.073.82,1.8,1.8,0,0,1,.677,1.49,1.984,1.984,0,0,1-.874,1.665,3.776,3.776,0,0,1-2.3.645,3.5,3.5,0,0,1-2.384-.764,2.137,2.137,0,0,1-.834-1.742l.015-.041h1.863a1.06,1.06,0,0,0,.4.879,1.64,1.64,0,0,0,.985.273,1.416,1.416,0,0,0,.862-.224A.722.722,0,0,0,1068.01,2733.891Z"/>
      </g>
      <g id="Grupo_56637" data-name="Grupo 56637">
        <path id="Trazado_109988" data-name="Trazado 109988" d="M1083.99,2805.351h-6.936v-1.333l3.287-3.524a7.933,7.933,0,0,0,1.012-1.379,2.233,2.233,0,0,0,.3-1.043,1.575,1.575,0,0,0-.346-1.051,1.217,1.217,0,0,0-.981-.408,1.267,1.267,0,0,0-1.071.479,2.039,2.039,0,0,0-.366,1.273h-1.983l-.013-.042a3.068,3.068,0,0,1,.9-2.327,3.385,3.385,0,0,1,2.529-.953,3.533,3.533,0,0,1,2.468.816,2.8,2.8,0,0,1,.9,2.178,3.057,3.057,0,0,1-.506,1.7,16.753,16.753,0,0,1-1.672,2.042l-1.808,1.968.015.035h4.27Z"/>
        <path id="Trazado_109989" data-name="Trazado 109989" d="M1091.891,2797.884a2.322,2.322,0,0,1-.4,1.346,2.648,2.648,0,0,1-1.106.915,2.984,2.984,0,0,1,1.277.977,2.384,2.384,0,0,1,.468,1.452,2.6,2.6,0,0,1-.956,2.167,4.531,4.531,0,0,1-5.015,0,2.6,2.6,0,0,1-.96-2.167,2.4,2.4,0,0,1,.465-1.456,3.022,3.022,0,0,1,1.281-.98,2.645,2.645,0,0,1-1.11-.911,2.327,2.327,0,0,1-.4-1.343,2.59,2.59,0,0,1,.886-2.1,4.05,4.05,0,0,1,4.676,0A2.577,2.577,0,0,1,1091.891,2797.884Zm-1.8,4.547a1.506,1.506,0,0,0-.4-1.093,1.373,1.373,0,0,0-1.034-.411,1.345,1.345,0,0,0-1.029.411,1.527,1.527,0,0,0-.388,1.093,1.5,1.5,0,0,0,.392,1.1,1.384,1.384,0,0,0,1.039.4,1.362,1.362,0,0,0,1.026-.4A1.5,1.5,0,0,0,1090.09,2802.431Zm-.23-4.457a1.449,1.449,0,0,0-.325-.987,1.1,1.1,0,0,0-.876-.374,1.087,1.087,0,0,0-.872.366,1.479,1.479,0,0,0-.314,1,1.511,1.511,0,0,0,.317,1.009,1.1,1.1,0,0,0,.883.373,1.08,1.08,0,0,0,.869-.373A1.506,1.506,0,0,0,1089.86,2797.974Z"/>
        <path id="Trazado_109990" data-name="Trazado 109990" d="M1100.274,2803.928a1.207,1.207,0,0,0,.872-.316,1.119,1.119,0,0,0,.328-.843h1.849l.022.042a2.355,2.355,0,0,1-.862,1.915,3.635,3.635,0,0,1-4.813-.3,4.074,4.074,0,0,1-.914-2.744v-.209a4.1,4.1,0,0,1,.911-2.743,3.219,3.219,0,0,1,2.6-1.075,3.176,3.176,0,0,1,2.251.8,2.647,2.647,0,0,1,.827,2.094l-.015.042h-1.856a1.481,1.481,0,0,0-.32-.974,1.093,1.093,0,0,0-.887-.388,1.184,1.184,0,0,0-1.142.628,3.45,3.45,0,0,0-.331,1.616v.209a3.441,3.441,0,0,0,.331,1.628A1.2,1.2,0,0,0,1100.274,2803.928Z"/>
        <path id="Trazado_109991" data-name="Trazado 109991" d="M1106.394,2797.8l.084,1a2.541,2.541,0,0,1,.911-.841,2.625,2.625,0,0,1,1.266-.3,2.312,2.312,0,0,1,1.243.321,1.987,1.987,0,0,1,.781.97,2.621,2.621,0,0,1,.907-.949,2.465,2.465,0,0,1,1.313-.342,2.177,2.177,0,0,1,1.762.772,3.6,3.6,0,0,1,.646,2.348v4.571h-2.038v-4.588a1.92,1.92,0,0,0-.28-1.2,1.02,1.02,0,0,0-.831-.336,1.422,1.422,0,0,0-.75.193,1.4,1.4,0,0,0-.505.535c0,.089,0,.165.006.227s.007.127.007.193v4.973h-2.03v-4.588a1.93,1.93,0,0,0-.279-1.186,1.017,1.017,0,0,0-.838-.347,1.566,1.566,0,0,0-.723.159,1.379,1.379,0,0,0-.513.443v5.519H1104.5V2797.8Z"/>
        <path id="Trazado_109992" data-name="Trazado 109992" d="M1120.952,2803.271a.712.712,0,0,0-.324-.579,3.325,3.325,0,0,0-1.2-.432,4.866,4.866,0,0,1-2.02-.806,1.752,1.752,0,0,1-.681-1.456,2.079,2.079,0,0,1,.82-1.657,3.332,3.332,0,0,1,2.2-.681,3.6,3.6,0,0,1,2.3.678,2,2,0,0,1,.82,1.709l-.014.042h-1.968a1,1,0,0,0-.29-.74,1.389,1.389,0,0,0-1.626-.045.763.763,0,0,0-.283.6.69.69,0,0,0,.3.572,3.237,3.237,0,0,0,1.2.4,4.885,4.885,0,0,1,2.073.82,1.8,1.8,0,0,1,.677,1.49,1.983,1.983,0,0,1-.873,1.664,3.775,3.775,0,0,1-2.3.646,3.5,3.5,0,0,1-2.384-.764,2.139,2.139,0,0,1-.834-1.742l.015-.041h1.863a1.061,1.061,0,0,0,.4.879,1.64,1.64,0,0,0,.984.272,1.414,1.414,0,0,0,.862-.223A.72.72,0,0,0,1120.952,2803.271Z"/>
      </g>
      <g id="Grupo_56638" data-name="Grupo 56638">
        <path id="Trazado_109993" data-name="Trazado 109993" d="M1161.659,2781.649h.965a1.171,1.171,0,0,0,.906-.32,1.269,1.269,0,0,0,.294-.892,1.157,1.157,0,0,0-.294-.83,1.115,1.115,0,0,0-.853-.311,1.21,1.21,0,0,0-.813.282.932.932,0,0,0-.329.741h-1.666l-.011-.035a1.947,1.947,0,0,1,.771-1.66,3.076,3.076,0,0,1,2-.652,3.29,3.29,0,0,1,2.122.634,2.194,2.194,0,0,1,.791,1.814,1.818,1.818,0,0,1-.352,1.061,2.349,2.349,0,0,1-.972.786,2.183,2.183,0,0,1,1.086.778,2.042,2.042,0,0,1,.374,1.218,2.227,2.227,0,0,1-.857,1.851,3.439,3.439,0,0,1-2.192.674,3.354,3.354,0,0,1-2.051-.633,2.023,2.023,0,0,1-.827-1.786l.012-.036h1.665a1.046,1.046,0,0,0,.353.811,1.286,1.286,0,0,0,.9.32,1.306,1.306,0,0,0,.938-.329,1.177,1.177,0,0,0,.345-.893,1.289,1.289,0,0,0-.339-.989,1.412,1.412,0,0,0-1-.315h-.965Z"/>
        <path id="Trazado_109994" data-name="Trazado 109994" d="M1172.588,2785.464a1.009,1.009,0,0,0,.735-.267.94.94,0,0,0,.278-.711h1.559l.018.035a1.986,1.986,0,0,1-.727,1.617,3.065,3.065,0,0,1-4.058-.251,3.432,3.432,0,0,1-.771-2.313v-.177a3.45,3.45,0,0,1,.768-2.312,2.712,2.712,0,0,1,2.192-.906,2.678,2.678,0,0,1,1.9.67,2.23,2.23,0,0,1,.7,1.766l-.012.035H1173.6a1.241,1.241,0,0,0-.272-.821.912.912,0,0,0-.747-.326,1,1,0,0,0-.962.528,2.917,2.917,0,0,0-.28,1.363v.177a2.9,2.9,0,0,0,.28,1.372A1.007,1.007,0,0,0,1172.588,2785.464Z"/>
        <path id="Trazado_109995" data-name="Trazado 109995" d="M1177.749,2780.3l.071.842a2.134,2.134,0,0,1,.768-.709,2.205,2.205,0,0,1,1.068-.25,1.942,1.942,0,0,1,1.048.27,1.675,1.675,0,0,1,.659.817,2.223,2.223,0,0,1,.765-.8,2.072,2.072,0,0,1,1.107-.288,1.837,1.837,0,0,1,1.486.649,3.045,3.045,0,0,1,.544,1.98v3.856h-1.718v-3.87a1.618,1.618,0,0,0-.236-1.009.86.86,0,0,0-.7-.282,1.2,1.2,0,0,0-.633.162,1.165,1.165,0,0,0-.426.451c0,.074,0,.139.006.191s.006.108.006.163v4.194h-1.713v-3.87a1.617,1.617,0,0,0-.236-1,.849.849,0,0,0-.706-.292,1.321,1.321,0,0,0-.609.133,1.167,1.167,0,0,0-.433.374v4.654h-1.713V2780.3Z"/>
        <path id="Trazado_109996" data-name="Trazado 109996" d="M1190.028,2784.91a.6.6,0,0,0-.275-.488,2.767,2.767,0,0,0-1.015-.365,4.1,4.1,0,0,1-1.7-.68,1.478,1.478,0,0,1-.574-1.228,1.753,1.753,0,0,1,.693-1.4,2.8,2.8,0,0,1,1.85-.573,3.036,3.036,0,0,1,1.94.57,1.686,1.686,0,0,1,.691,1.442l-.012.035h-1.66a.841.841,0,0,0-.244-.624,1.172,1.172,0,0,0-1.371-.038.64.64,0,0,0-.238.509.578.578,0,0,0,.25.483,2.723,2.723,0,0,0,1.015.335,4.134,4.134,0,0,1,1.748.692,1.522,1.522,0,0,1,.571,1.257,1.673,1.673,0,0,1-.736,1.4,3.185,3.185,0,0,1-1.942.545,2.949,2.949,0,0,1-2.01-.645,1.8,1.8,0,0,1-.7-1.468l.012-.035h1.571a.9.9,0,0,0,.335.741,1.388,1.388,0,0,0,.83.229,1.19,1.19,0,0,0,.727-.188A.606.606,0,0,0,1190.028,2784.91Z"/>
      </g>
      <g id="Grupo_56639" data-name="Grupo 56639">
        <path id="Trazado_109997" data-name="Trazado 109997" d="M1184.831,2926.383l.494-4.774h4.78v1.377h-3.373l-.236,1.978a2.068,2.068,0,0,1,.572-.291,2.681,2.681,0,0,1,2.657.627,3.1,3.1,0,0,1,.679,2.131,2.937,2.937,0,0,1-.744,2.053,2.756,2.756,0,0,1-2.145.819,3.221,3.221,0,0,1-2.025-.648,2.044,2.044,0,0,1-.812-1.777l.012-.03,1.654-.083a1.2,1.2,0,0,0,.323.892,1.151,1.151,0,0,0,.848.321.993.993,0,0,0,.886-.426,1.969,1.969,0,0,0,.285-1.114,2.064,2.064,0,0,0-.306-1.186,1.03,1.03,0,0,0-.906-.446,1.316,1.316,0,0,0-.757.182.989.989,0,0,0-.373.494Z"/>
        <path id="Trazado_109998" data-name="Trazado 109998" d="M1197.3,2926.842a3.782,3.782,0,0,1-.78,2.581,2.988,2.988,0,0,1-4.235,0,3.777,3.777,0,0,1-.782-2.581v-1.89a3.794,3.794,0,0,1,.779-2.58,2.97,2.97,0,0,1,4.232,0,3.769,3.769,0,0,1,.786,2.58Zm-1.713-2.068a2.818,2.818,0,0,0-.306-1.491,1.062,1.062,0,0,0-1.765,0,2.862,2.862,0,0,0-.3,1.494V2927a2.868,2.868,0,0,0,.3,1.506.994.994,0,0,0,.891.47.977.977,0,0,0,.877-.47,2.893,2.893,0,0,0,.3-1.506Z"/>
        <path id="Trazado_109999" data-name="Trazado 109999" d="M1204.194,2928.978a1.012,1.012,0,0,0,.735-.266.942.942,0,0,0,.277-.711h1.56l.017.035a1.983,1.983,0,0,1-.726,1.616,3.063,3.063,0,0,1-4.059-.251,3.431,3.431,0,0,1-.77-2.312v-.177a3.457,3.457,0,0,1,.767-2.313,2.716,2.716,0,0,1,2.193-.906,2.674,2.674,0,0,1,1.9.671,2.225,2.225,0,0,1,.7,1.766l-.011.035h-1.566a1.244,1.244,0,0,0-.271-.821.916.916,0,0,0-.747-.327,1,1,0,0,0-.962.529,2.9,2.9,0,0,0-.281,1.363v.177a2.89,2.89,0,0,0,.281,1.372A1,1,0,0,0,1204.194,2928.978Z"/>
        <path id="Trazado_110000" data-name="Trazado 110000" d="M1209.356,2923.81l.071.842a2.129,2.129,0,0,1,.768-.709,2.2,2.2,0,0,1,1.068-.25,1.943,1.943,0,0,1,1.048.271,1.675,1.675,0,0,1,.659.817,2.213,2.213,0,0,1,.765-.8,2.077,2.077,0,0,1,1.106-.288,1.836,1.836,0,0,1,1.486.65,3.035,3.035,0,0,1,.544,1.98v3.856h-1.717v-3.871a1.614,1.614,0,0,0-.237-1.008.854.854,0,0,0-.7-.283,1.194,1.194,0,0,0-.633.163,1.167,1.167,0,0,0-.426.451c0,.074,0,.138.006.191s.006.108.006.162v4.2h-1.713v-3.871a1.627,1.627,0,0,0-.235-1,.853.853,0,0,0-.706-.292,1.323,1.323,0,0,0-.61.133,1.165,1.165,0,0,0-.432.374v4.655h-1.713v-6.369Z"/>
        <path id="Trazado_110001" data-name="Trazado 110001" d="M1221.633,2928.425a.6.6,0,0,0-.274-.489,2.812,2.812,0,0,0-1.015-.365,4.093,4.093,0,0,1-1.7-.68,1.473,1.473,0,0,1-.574-1.227,1.753,1.753,0,0,1,.692-1.4,2.807,2.807,0,0,1,1.851-.573,3.035,3.035,0,0,1,1.939.571,1.683,1.683,0,0,1,.691,1.442l-.011.035h-1.66a.836.836,0,0,0-.245-.624,1.171,1.171,0,0,0-1.371-.038.64.64,0,0,0-.238.509.577.577,0,0,0,.25.482,2.745,2.745,0,0,0,1.016.336,4.121,4.121,0,0,1,1.748.692,1.518,1.518,0,0,1,.57,1.256,1.674,1.674,0,0,1-.735,1.4,3.189,3.189,0,0,1-1.943.545,2.948,2.948,0,0,1-2.009-.645,1.8,1.8,0,0,1-.7-1.469l.012-.035h1.571a.893.893,0,0,0,.335.741,1.382,1.382,0,0,0,.83.23,1.187,1.187,0,0,0,.727-.189A.606.606,0,0,0,1221.633,2928.425Z"/>
      </g>
    </g>
  </g>
</svg>
