<svg xmlns="http://www.w3.org/2000/svg" width="580.522" height="427.014" viewBox="0 0 580.522 427.014">
  <g id="Grupo_57744" data-name="Grupo 57744" transform="translate(-340 -957.639)">
    <g id="Grupo_56860" data-name="Grupo 56860" transform="translate(-65 -318)">
      <rect id="Rectángulo_10476" data-name="Rectángulo 10476" width="292" height="423.652" rx="23.352" transform="translate(405 1279)" fill="#fff"/>
      <path id="Trazado_110948" data-name="Trazado 110948" d="M191.493,6142.152a.577.577,0,0,1-.115-.012.551.551,0,0,1-.422-.652c0-.006.237-1.363-.574-5.6-.836-4.357-5.533-13.879-5.58-13.975a.549.549,0,0,1,.984-.487c.2.4,4.81,9.752,5.674,14.256.854,4.463.6,5.888.57,6.036A.549.549,0,0,1,191.493,6142.152Z" transform="translate(249.182 -4642.105)" fill="#999"/>
      <g id="Grupo_56859" data-name="Grupo 56859" transform="translate(429.66 1304.09)">
        <path id="Trazado_110944" data-name="Trazado 110944" d="M249.8,6172.374a.562.562,0,0,1-.205-.04,37.04,37.04,0,0,0-11.541-2.154c-4.556-.132-5.726.187-5.995.3a.538.538,0,0,1-.284.24.545.545,0,0,1-.7-.321l0,0-5.436-14.783a.553.553,0,0,1,.159-.606,4.157,4.157,0,0,0,.919-1.045c-.416-.824-2.815-5.538-2.815-5.538l-4.359-10.724c-.048-.144-3.378-10.482-6.41-13.86a64.91,64.91,0,0,0-8.567-7.358h0a18.136,18.136,0,0,0-10.6-1.838c-5.293.915-6.162,2.662-6.169,2.68a.75.75,0,0,1-.059.1,1.316,1.316,0,0,0,.29,1.784c.758.716,4.252.637,6.493.354.124-.05,5.507-1.8,9.414-1.115a.547.547,0,1,1-.189,1.079c-3.633-.629-8.931,1.086-8.985,1.1-1.089.149-6.083.706-7.487-.622a2.425,2.425,0,0,1-.46-3.176c.215-.439,1.44-2.317,6.966-3.272a18.992,18.992,0,0,1,11.377,2,64.43,64.43,0,0,1,8.8,7.55c3.188,3.55,6.484,13.784,6.623,14.219l4.325,10.642h0s2.606,5.113,2.844,5.589c.311.621-.284,1.405-.944,2.024l5.078,13.809c.773-.224,2.444-.413,6.215-.3A37.5,37.5,0,0,1,250,6171.316a.549.549,0,0,1-.206,1.057Zm-17.7-2.361v0l0,.011Z" transform="translate(-180.318 -5941.298)" fill="#999"/>
        <path id="Trazado_110945" data-name="Trazado 110945" d="M203.99,6161.015a.549.549,0,0,1-.433-.887c.254-.325,6.381-8.012,19.222-10.216a.548.548,0,1,1,.186,1.081c-12.428,2.133-18.484,9.734-18.543,9.811A.549.549,0,0,1,203.99,6161.015Z" transform="translate(-178.669 -5932.333)" fill="#999"/>
        <path id="Trazado_110946" data-name="Trazado 110946" d="M216.272,6168.263a.549.549,0,0,1-.479-.28c-1.255-2.24-7.5-11.214-7.557-11.3a.548.548,0,1,1,.9-.625c.258.37,6.333,9.108,7.615,11.394a.548.548,0,0,1-.478.816Z" transform="translate(-178.215 -5928.849)" fill="#999"/>
        <path id="Trazado_110947" data-name="Trazado 110947" d="M207.794,6173.421c-.077,0-.152,0-.227-.008-.152-.012-.3-.01-.446-.009-1.625.021-2.917-.336-5.705-4.928-3.225-5.311-12.7-26.717-13.1-27.625l-5.916-13.933c-.061-.1-2.18-3.8-1.355-6.388.784-2.446,4.416-7.214,4.569-7.416l15-16.533c.225-.21,19.027-17.486,21.529-26.108a.549.549,0,0,1,1.054.307c-2.588,8.915-21.023,25.857-21.806,26.574l-14.938,16.463c-.007.013-3.64,4.78-4.365,7.047-.68,2.123,1.268,5.532,1.287,5.567l5.943,13.984c.1.214,9.842,22.242,13.031,27.491,2.682,4.419,3.752,4.393,4.759,4.4.179,0,.355,0,.533.011a7.173,7.173,0,0,0,2.959-.8l3.538-1.673a.548.548,0,1,1,.469.991l-3.528,1.669A8.981,8.981,0,0,1,207.794,6173.421Z" transform="translate(-180.855 -5959.733)" fill="#999"/>
        <path id="Trazado_110949" data-name="Trazado 110949" d="M209.38,6088.627a.536.536,0,0,1-.264-.068.548.548,0,0,1-.215-.745l6.581-11.92c.418-.823,10.52-20.567,16.852-25.075l4.76-3.523a.582.582,0,0,1,.12-.067c.169-.068,16.9-6.874,19.149-7.906s9.894-5.37,9.971-5.414l3.409-2.178a.548.548,0,1,1,.591.922l-3.433,2.193c-.341.2-7.8,4.426-10.082,5.474-2.225,1.02-17.825,7.369-19.127,7.9l-4.713,3.487c-6.122,4.36-16.425,24.5-16.528,24.7l-6.589,11.937A.546.546,0,0,1,209.38,6088.627Z" transform="translate(-178.147 -6005.672)" fill="#999"/>
        <path id="Trazado_110950" data-name="Trazado 110950" d="M211.127,6123.842a3.2,3.2,0,0,1-2.659-1.614.548.548,0,0,1,.954-.541,1.977,1.977,0,0,0,2.351.943c1.409-.48,2.579-2.689,2.911-3.5l4.844-8.74c.28-.5,6.88-12.3,11.032-15.294a.548.548,0,0,1,.641.889c-3.955,2.852-10.646,14.819-10.714,14.938l-4.816,8.682c-.029.08-1.379,3.326-3.545,4.066A3.107,3.107,0,0,1,211.127,6123.842Z" transform="translate(-178.19 -5958.782)" fill="#999"/>
        <path id="Trazado_110951" data-name="Trazado 110951" d="M222.728,6107.845a.548.548,0,0,1-.3-1.01c.292-.187,7.2-4.58,11.31-6.109a19.4,19.4,0,0,0,5.839-3.247,64.466,64.466,0,0,0,4.486-25.356.547.547,0,0,1,.53-.566h.019a.548.548,0,0,1,.548.53,65.391,65.391,0,0,1-4.626,25.944.527.527,0,0,1-.122.173,19.46,19.46,0,0,1-6.292,3.55c-4,1.487-11.031,5.96-11.1,6A.538.538,0,0,1,222.728,6107.845Z" transform="translate(-176.856 -5971.07)" fill="#999"/>
        <path id="Trazado_110952" data-name="Trazado 110952" d="M239.248,6185.849a.624.624,0,0,1-.128-.016c-2.486-.6-5.494-3.2-5.621-3.315a.548.548,0,1,1,.722-.826c.029.025,2.932,2.54,5.156,3.074a.549.549,0,0,1-.128,1.083Z" transform="translate(-175.779 -5917.423)" fill="#999"/>
        <path id="Trazado_110953" data-name="Trazado 110953" d="M239.453,6190.463a.534.534,0,0,1-.188-.033.547.547,0,0,1-.328-.7c.254-.7,6.266-17.167,8.9-22.125,2.3-4.323,2.73-6.1,2.792-6.4-.042-.526-.321-3.918-.775-6.974l-2.575-17.165-1.569-7.915a17.328,17.328,0,0,0-1.837-4.72l-.386-.519c-1.567-2.1-5.241-7.021-5.511-11.212-.284-4.408-.013-16.009,0-16.5a.538.538,0,0,1,.562-.535.548.548,0,0,1,.535.562c0,.12-.283,12.043,0,16.4.25,3.866,3.786,8.6,5.3,10.626l.394.532a18.041,18.041,0,0,1,2.021,5.131l1.578,7.958,2.579,17.194c.5,3.343.789,7.083.791,7.12a.555.555,0,0,1,0,.113c-.01.071-.258,1.8-2.921,6.814-2.6,4.893-8.776,21.815-8.839,21.984A.546.546,0,0,1,239.453,6190.463Z" transform="translate(-175.34 -5942.799)" fill="#999"/>
        <path id="Trazado_110954" data-name="Trazado 110954" d="M241.9,6087.965a.547.547,0,0,1-.485-.8c2.777-5.233,10.577-11.808,10.909-12.085a.548.548,0,1,1,.7.84c-.079.066-7.967,6.715-10.644,11.76A.548.548,0,0,1,241.9,6087.965Z" transform="translate(-175 -5972.054)" fill="#999"/>
        <path id="Trazado_110955" data-name="Trazado 110955" d="M241.2,6089.021a141.009,141.009,0,0,0-3.917-22.075,66.053,66.053,0,0,1-2.379-19.927l1.095.083a64.931,64.931,0,0,0,2.342,19.557,142.07,142.07,0,0,1,3.952,22.271Z" transform="translate(-175.63 -5984.83)" fill="#999"/>
        <path id="Trazado_110956" data-name="Trazado 110956" d="M249.469,6150l-1.092-.085a130.28,130.28,0,0,1,11.333-42.433l.984.489A129.044,129.044,0,0,0,249.469,6150Z" transform="translate(-174.32 -5948.901)" fill="#999"/>
        <path id="Trazado_110957" data-name="Trazado 110957" d="M281.3,6160.649c-19.485,0-30.925-5.042-31.043-5.095l.45-1c.123.053,12.543,5.519,33.617,4.958a148.219,148.219,0,0,0,36.662-5.411l.332,1.046a149.36,149.36,0,0,1-36.965,5.461Q282.8,6160.65,281.3,6160.649Z" transform="translate(-174.138 -5931.207)" fill="#999"/>
        <path id="Trazado_110958" data-name="Trazado 110958" d="M336.027,6270.046l-1.089-.13c.012-.1,1.125-9.886,0-26.936-1.129-17.087-3.264-31-3.285-31.141l-2-11c-1.127-11.677-7.752-24.9-7.818-25.03l-6.714-12.213a.549.549,0,0,1-.068-.265v-.882l1.289-17.254c.026-.16,1.872-10.252,2.436-14.2a16.023,16.023,0,0,1,3.4-8.268c1.353-1.758,3.465-8.765,3.487-8.835.021-.095,2.906-12.465-.687-20.064-3.721-7.873-4.594-20-4.629-20.513l1.095-.075c.009.123.895,12.436,4.526,20.119,3.759,7.95.877,20.3.753,20.817-.1.327-2.2,7.3-3.675,9.221a15.009,15.009,0,0,0-3.182,7.754c-.568,3.971-2.417,14.083-2.436,14.185l-1.28,17.156v.7L322.8,6175.3c.077.151,6.793,13.55,7.935,25.391l2,10.969c.024.154,2.166,14.113,3.3,31.249C337.165,6260.07,336.039,6269.948,336.027,6270.046Z" transform="translate(-167.868 -5899.355)" fill="#999"/>
        <path id="Trazado_110959" data-name="Trazado 110959" d="M317.159,6146.369c-2.6-13.366-13.7-38.817-13.806-39.073l1-.439c.112.256,11.261,25.818,13.879,39.3Z" transform="translate(-169 -5949.922)" fill="#999"/>
        <path id="Trazado_110960" data-name="Trazado 110960" d="M322.383,6083.972l-1.052-.314c.022-.068,2.093-7.053,4.28-18.826a78.713,78.713,0,0,0,1.423-19.8l1.093-.106a80.077,80.077,0,0,1-1.439,20.109C324.491,6076.869,322.4,6083.9,322.383,6083.972Z" transform="translate(-167.26 -5986.308)" fill="#999"/>
        <path id="Trazado_110961" data-name="Trazado 110961" d="M281.452,6049.79c-15.338,0-18.079-10.939-18.107-11.058l1.068-.249c.111.468,2.906,11.46,19.808,10.094,16.863-1.372,18.591-7.879,18.608-7.944a.56.56,0,0,1,.157-.278,1.435,1.435,0,0,0,.433-.92.966.966,0,0,0-.409-.693,6.244,6.244,0,0,0-1.156-.708,4.776,4.776,0,0,1-3.04-4.076l-.129-.986c-.446-3.35-1.055-7.939-.655-10.542a20.8,20.8,0,0,1,1.012-4.215,3.524,3.524,0,0,1,1.18-2.106,2.065,2.065,0,0,1,1.583-.36c1.753.28,5.935.708,5.979.711a.527.527,0,0,1,.139.034c.609.231,2.394.713,3.32.18a13.821,13.821,0,0,0,3.19-3.413c.1-.328.554-1.343,2.531-5.3l.981.491c-1.12,2.239-2.363,4.788-2.461,5.1l-.007,0a13.13,13.13,0,0,1-3.684,4.071c-1.451.84-3.7.1-4.192-.078-.576-.06-4.292-.444-5.97-.711a.966.966,0,0,0-.762.16,2.541,2.541,0,0,0-.755,1.454.541.541,0,0,1-.036.13,19.308,19.308,0,0,0-.965,4.021c-.377,2.446.22,6.945.658,10.229l.13.989a3.679,3.679,0,0,0,2.46,3.245,7.2,7.2,0,0,1,1.354.841,2.017,2.017,0,0,1,.8,1.5,2.442,2.442,0,0,1-.66,1.626c-.349,1.116-3.019,7.293-19.546,8.636Q282.813,6049.791,281.452,6049.79Z" transform="translate(-172.872 -6007.963)" fill="#999"/>
        <path id="Trazado_110962" data-name="Trazado 110962" d="M297.778,6034.392s2.86-.341,3.576,0,8.155,6.854,8.155,6.854l14.02,9.362s7.511,1.729,11.015,5.394,7.011,7.836,8.512,11.194a64.738,64.738,0,0,1,2.861,9.362l2.432,16.589.787,21.37.358,19.438v40.4s1.788,10.075,1.859,16.079.644,28.9.644,28.9,0,32.973-.358,49.255.071,18.623.071,18.623.43,4.783-3.29,5.9a110.016,110.016,0,0,1-2.36,18.826c-2.145,9.669-3.362,19.947-3.362,19.947s-1,10.38-4.649,10.685l-.35,33.686a3.149,3.149,0,0,0,1.351-2.035c.286-1.425,1.86-17.4,1.288-19.844s-1.574-5.19-.787-5.9,4.578,1.223,6.724-7.529l2-5.395s2.146-2.544-.573-13.025c0,0-1.288-7.226-.286-11.4s2.433-12.415,2.433-12.415a13.646,13.646,0,0,0,3.719-4.376c1.43-2.747,2.289-5.6,2.36-12.008s.5-49.765.5-49.765v-17.706s-.859-13.333-2.575-17.506-.358-11.3-.358-11.3.786-1.73.93-6-.43-25.95-.43-25.95l-3.147-43.963-2.218-30.276.429-9.821s.716-8.141-4.219-12.517-9.3-8.65-13.52-9.769a60.388,60.388,0,0,1-9.871-4.071l-9.656-6.207-7.009-4.58s-3.148-1.222-5.364-.814-2,.814-2,.814Z" transform="translate(-169.575 -6005.638)" fill="#999"/>
        <g id="Grupo_56843" data-name="Grupo 56843" transform="translate(75.23 297.069)">
          <path id="Trazado_110963" data-name="Trazado 110963" d="M249.955,6185.8a22.347,22.347,0,0,1,3.7-.25,5.689,5.689,0,0,1,3.7.986,3.419,3.419,0,0,1,1.291,2.78,3.739,3.739,0,0,1-1.111,2.87,5.694,5.694,0,0,1-3.929,1.275,4.62,4.62,0,0,1-.933-.073v4.342h-2.709Zm2.709,5.49a4.078,4.078,0,0,0,.915.072c1.453,0,2.35-.736,2.35-1.957,0-1.11-.772-1.775-2.153-1.775a4.793,4.793,0,0,0-1.112.09Z" transform="translate(-249.398 -6185.554)"/>
          <path id="Trazado_110964" data-name="Trazado 110964" d="M262.2,6185.635v12.093h-2.727v-12.093Z" transform="translate(-248.477 -6185.546)"/>
          <path id="Trazado_110965" data-name="Trazado 110965" d="M264.119,6197.728v-12.093h3.194l2.512,4.433a38.122,38.122,0,0,1,1.974,4.144h.036a49.651,49.651,0,0,1-.216-5.059v-3.518h2.512v12.093h-2.87l-2.583-4.665a42.5,42.5,0,0,1-2.1-4.27h-.072c.09,1.614.126,3.319.126,5.292v3.642Z" transform="translate(-248.027 -6185.546)"/>
          <path id="Trazado_110966" data-name="Trazado 110966" d="M274.72,6196.255l5.759-8.306v-.054h-5.238v-2.261h8.773v1.579l-5.634,8.181v.073H284.1v2.26H274.72Z" transform="translate(-247.001 -6185.546)"/>
          <path id="Trazado_110967" data-name="Trazado 110967" d="M287.853,6194.623l-.843,3.1h-2.834l3.7-12.093h3.57l3.768,12.093h-2.943l-.933-3.1Zm3.068-2.044-.754-2.565c-.2-.717-.412-1.633-.592-2.333h-.054c-.16.717-.359,1.632-.537,2.333l-.736,2.565Z" transform="translate(-246.086 -6185.546)"/>
          <path id="Trazado_110968" data-name="Trazado 110968" d="M301.888,6194.623l-.844,3.1h-2.834l3.7-12.093h3.571l3.767,12.093H306.3l-.932-3.1Zm3.068-2.044-.755-2.565c-.2-.717-.412-1.633-.591-2.333h-.055c-.161.717-.359,1.632-.537,2.333l-.736,2.565Z" transform="translate(-244.728 -6185.546)"/>
          <path id="Trazado_110969" data-name="Trazado 110969" d="M309.757,6185.635h2.727v9.8h4.808v2.3h-7.535Z" transform="translate(-243.61 -6185.546)"/>
          <path id="Trazado_110970" data-name="Trazado 110970" d="M258.866,6217.031a8.012,8.012,0,0,1-3.085.521c-4.181,0-6.334-2.621-6.334-6.064,0-4.108,2.943-6.387,6.6-6.387a7.507,7.507,0,0,1,2.979.521l-.575,2.171a5.749,5.749,0,0,0-2.3-.45,3.967,3.967,0,0,0,.018,7.93,6.513,6.513,0,0,0,2.3-.395Z" transform="translate(-249.447 -6183.663)"/>
          <path id="Trazado_110971" data-name="Trazado 110971" d="M264.377,6217.571c-3.57,0-5.687-2.709-5.687-6.155,0-3.623,2.333-6.333,5.884-6.333,3.715,0,5.741,2.78,5.741,6.118,0,3.982-2.387,6.37-5.919,6.37Zm.144-2.171c1.848,0,2.906-1.741,2.906-4.108,0-2.17-1.022-4.038-2.906-4.038s-2.943,1.831-2.943,4.091c0,2.278,1.095,4.055,2.924,4.055Z" transform="translate(-248.553 -6183.664)"/>
          <path id="Trazado_110972" data-name="Trazado 110972" d="M271.056,6214.556a6.919,6.919,0,0,0,3.033.753c1.255,0,1.919-.521,1.919-1.31,0-.753-.575-1.183-2.027-1.687-2.009-.718-3.337-1.829-3.337-3.588,0-2.063,1.741-3.624,4.575-3.624a7.083,7.083,0,0,1,3.085.609l-.609,2.189a5.669,5.669,0,0,0-2.512-.574c-1.185,0-1.759.557-1.759,1.167,0,.771.665,1.112,2.243,1.7,2.134.789,3.121,1.9,3.121,3.606,0,2.027-1.542,3.75-4.862,3.75a7.881,7.881,0,0,1-3.426-.754Z" transform="translate(-247.41 -6183.663)"/>
          <path id="Trazado_110973" data-name="Trazado 110973" d="M282.19,6207.559h-3.266v-2.294h9.294v2.294h-3.3v9.8H282.19Z" transform="translate(-246.594 -6183.647)"/>
          <path id="Trazado_110974" data-name="Trazado 110974" d="M290.421,6214.252l-.843,3.1h-2.834l3.7-12.092h3.57l3.769,12.092h-2.943l-.932-3.1Zm3.069-2.044-.755-2.565c-.2-.718-.412-1.634-.592-2.333h-.054c-.16.717-.359,1.633-.537,2.333l-.736,2.565Z" transform="translate(-245.838 -6183.647)"/>
          <path id="Trazado_110975" data-name="Trazado 110975" d="M298.276,6205.453a21.919,21.919,0,0,1,3.676-.271,7.885,7.885,0,0,1,4.969,1.292,5.326,5.326,0,0,1,2.046,4.558,6.181,6.181,0,0,1-1.992,4.9,8.736,8.736,0,0,1-5.6,1.561,23.431,23.431,0,0,1-3.1-.179ZM301,6215.3a5.126,5.126,0,0,0,.95.054c2.5.019,4.127-1.346,4.127-4.234a3.5,3.5,0,0,0-3.84-3.839,5.824,5.824,0,0,0-1.237.107Z" transform="translate(-244.722 -6183.655)"/>
          <path id="Trazado_110976" data-name="Trazado 110976" d="M314.84,6217.571c-3.57,0-5.687-2.709-5.687-6.155,0-3.623,2.332-6.333,5.884-6.333,3.714,0,5.741,2.78,5.741,6.118,0,3.982-2.387,6.37-5.919,6.37Zm.144-2.171c1.848,0,2.906-1.741,2.906-4.108,0-2.17-1.022-4.038-2.906-4.038s-2.943,1.831-2.943,4.091c0,2.278,1.095,4.055,2.924,4.055Z" transform="translate(-243.669 -6183.664)"/>
        </g>
      </g>
    </g>
    <g id="Grupo_56864" data-name="Grupo 56864" transform="translate(455.624 -5166.535)">
      <rect id="Rectángulo_10486" data-name="Rectángulo 10486" width="241.043" height="423.652" rx="20.87" transform="translate(223.854 6124.174)" fill="#fff"/>
      <g id="Grupo_56863" data-name="Grupo 56863">
        <path id="Trazado_111070" data-name="Trazado 111070" d="M405.118,6388.183l-7.2-17.893v-6.03l6.517-40.712L413.3,6283v-16.078s2.887-7.915,3.127-20.9-.962-18.179-2.886-23.5l-18.519-6.679-14.271-5.07s-11.865-2.8-11.384-17.149l-.8-22.591-15.032,3.1-15.032-3.1.08,22.549c.481,14.346-12.266,17.191-12.266,17.191l-14.27,5.07-17.918,4.947c-1.925,5.318-3.728,12.244-3.488,25.229s3.127,20.9,3.127,20.9V6283l8.862,40.542h0l1.292,5.911,7.449,34.8v7s-13.226,28.008-14.587,50.375v111.056h119.65l-1.591-92.968S414.648,6405.1,405.118,6388.183Z" fill="#fff" stroke="#000" stroke-miterlimit="10" stroke-width="1" opacity="0.33"/>
        <g id="Grupo_56861" data-name="Grupo 56861">
          <path id="Trazado_111071" data-name="Trazado 111071" d="M396.17,6371.765l-2.24-2.64,2.1-2.272-2-2.563.722-.562,2.476,3.176-2.078,2.248,1.716,2.023Z" fill="#999"/>
          <path id="Trazado_111072" data-name="Trazado 111072" d="M393.649,6371.765l-2.24-2.64,2.1-2.272-2-2.563.722-.562,2.476,3.176-2.078,2.248,1.716,2.023Z" fill="#999"/>
          <path id="Trazado_111073" data-name="Trazado 111073" d="M391.128,6371.765l-2.24-2.64,2.1-2.272-2-2.563.722-.562,2.476,3.176-2.078,2.248,1.716,2.023Z" fill="#999"/>
          <path id="Trazado_111074" data-name="Trazado 111074" d="M388.607,6371.765l-2.24-2.64,2.1-2.272-2-2.563.722-.562,2.476,3.176-2.078,2.248,1.716,2.023Z" fill="#999"/>
          <path id="Trazado_111075" data-name="Trazado 111075" d="M386.086,6371.765l-2.24-2.64,2.1-2.272-2-2.563.722-.562,2.476,3.176-2.078,2.248,1.716,2.023Z" fill="#999"/>
          <path id="Trazado_111076" data-name="Trazado 111076" d="M383.565,6371.765l-2.24-2.64,2.1-2.272-2-2.563.722-.562,2.476,3.176-2.078,2.248,1.716,2.023Z" fill="#999"/>
          <path id="Trazado_111077" data-name="Trazado 111077" d="M381.044,6371.765l-2.24-2.64,2.1-2.272-2-2.563.722-.562,2.476,3.176-2.078,2.248,1.716,2.023Z" fill="#999"/>
          <path id="Trazado_111078" data-name="Trazado 111078" d="M378.523,6371.765l-2.24-2.64,2.1-2.272-2-2.563.722-.562,2.476,3.176-2.078,2.248,1.716,2.023Z" fill="#999"/>
          <path id="Trazado_111079" data-name="Trazado 111079" d="M376,6371.765l-2.24-2.64,2.1-2.272-2-2.563.722-.562,2.476,3.176-2.078,2.248,1.716,2.023Z" fill="#999"/>
          <path id="Trazado_111080" data-name="Trazado 111080" d="M373.481,6371.765l-2.24-2.64,2.1-2.272-2-2.563.722-.562,2.476,3.176-2.078,2.248,1.716,2.023Z" fill="#999"/>
          <path id="Trazado_111081" data-name="Trazado 111081" d="M370.96,6371.765l-2.24-2.64,2.1-2.272-2-2.563.722-.562,2.476,3.176-2.078,2.248,1.716,2.023Z" fill="#999"/>
          <path id="Trazado_111082" data-name="Trazado 111082" d="M368.439,6371.765l-2.24-2.64,2.1-2.272-2-2.563.722-.562,2.476,3.176-2.078,2.248,1.716,2.023Z" fill="#999"/>
          <path id="Trazado_111083" data-name="Trazado 111083" d="M365.918,6371.765l-2.24-2.64,2.1-2.272-2-2.563.722-.562,2.476,3.176-2.078,2.248,1.716,2.023Z" fill="#999"/>
          <path id="Trazado_111084" data-name="Trazado 111084" d="M363.4,6371.765l-2.24-2.64,2.1-2.272-2-2.563.722-.562,2.476,3.176-2.078,2.248,1.716,2.023Z" fill="#999"/>
          <path id="Trazado_111085" data-name="Trazado 111085" d="M360.876,6371.765l-2.24-2.64,2.1-2.272-2-2.563.722-.562,2.476,3.176-2.078,2.248,1.716,2.023Z" fill="#999"/>
          <path id="Trazado_111086" data-name="Trazado 111086" d="M358.355,6371.765l-2.24-2.64,2.1-2.272-2-2.563.722-.562,2.476,3.176-2.078,2.248,1.716,2.023Z" fill="#999"/>
          <path id="Trazado_111087" data-name="Trazado 111087" d="M355.833,6371.765l-2.24-2.64,2.1-2.272-2-2.563.722-.562,2.476,3.176-2.078,2.248,1.716,2.023Z" fill="#999"/>
          <path id="Trazado_111088" data-name="Trazado 111088" d="M353.312,6371.765l-2.24-2.64,2.1-2.272-2-2.563.722-.562,2.476,3.176-2.078,2.248,1.716,2.023Z" fill="#999"/>
          <path id="Trazado_111089" data-name="Trazado 111089" d="M350.791,6371.765l-2.24-2.64,2.1-2.272-2-2.563.722-.562,2.476,3.176-2.078,2.248,1.716,2.023Z" fill="#999"/>
          <path id="Trazado_111090" data-name="Trazado 111090" d="M348.27,6371.765l-2.24-2.64,2.1-2.272-2-2.563.722-.562,2.476,3.176-2.078,2.248,1.716,2.023Z" fill="#999"/>
          <path id="Trazado_111091" data-name="Trazado 111091" d="M345.749,6371.765l-2.24-2.64,2.1-2.272-2-2.563.722-.562,2.476,3.176-2.078,2.248,1.716,2.023Z" fill="#999"/>
          <path id="Trazado_111092" data-name="Trazado 111092" d="M343.228,6371.765l-2.24-2.64,2.1-2.272-2-2.563.722-.562,2.476,3.176-2.078,2.248,1.716,2.023Z" fill="#999"/>
          <path id="Trazado_111093" data-name="Trazado 111093" d="M340.707,6371.765l-2.24-2.64,2.1-2.272-2-2.563.722-.562,2.476,3.176-2.078,2.248,1.716,2.023Z" fill="#999"/>
          <path id="Trazado_111094" data-name="Trazado 111094" d="M338.186,6371.765l-2.24-2.64,2.1-2.272-2-2.563.722-.562,2.476,3.176-2.078,2.248,1.716,2.023Z" fill="#999"/>
          <path id="Trazado_111095" data-name="Trazado 111095" d="M335.665,6371.765l-2.24-2.64,2.1-2.272-2-2.563.722-.562,2.476,3.176-2.078,2.248,1.716,2.023Z" fill="#999"/>
          <path id="Trazado_111096" data-name="Trazado 111096" d="M333.144,6371.765l-2.24-2.64,2.1-2.272-2-2.563.722-.562,2.476,3.176-2.078,2.248,1.716,2.023Z" fill="#999"/>
          <path id="Trazado_111097" data-name="Trazado 111097" d="M330.623,6371.765l-2.24-2.64,2.1-2.272-2-2.563.722-.562,2.476,3.176-2.078,2.248,1.716,2.023Z" fill="#999"/>
          <path id="Trazado_111098" data-name="Trazado 111098" d="M328.1,6371.765l-2.24-2.64,2.1-2.272-2-2.563.722-.562,2.476,3.176-2.078,2.248,1.716,2.023Z" fill="#999"/>
          <path id="Trazado_111099" data-name="Trazado 111099" d="M325.581,6371.765l-2.24-2.64,2.1-2.272-2-2.563.722-.562,2.476,3.176-2.078,2.248,1.716,2.023Z" fill="#999"/>
          <path id="Trazado_111100" data-name="Trazado 111100" d="M323.06,6371.765l-2.24-2.64,2.1-2.272-2-2.563.722-.562,2.476,3.176-2.078,2.248,1.716,2.023Z" fill="#999"/>
          <path id="Trazado_111101" data-name="Trazado 111101" d="M320.539,6371.765l-2.24-2.64,2.1-2.272-2-2.563.722-.562,2.476,3.176-2.078,2.248,1.716,2.023Z" fill="#999"/>
          <path id="Trazado_111102" data-name="Trazado 111102" d="M318.018,6371.765l-2.24-2.64,2.1-2.272-2-2.563.722-.562,2.476,3.176L317,6369.151l1.716,2.023Z" fill="#999"/>
          <path id="Trazado_111103" data-name="Trazado 111103" d="M315.5,6371.765l-2.24-2.64,2.1-2.272-2-2.563.722-.562,2.476,3.176-2.078,2.248,1.716,2.023Z" fill="#999"/>
          <path id="Trazado_111104" data-name="Trazado 111104" d="M312.976,6371.765l-2.24-2.64,2.1-2.272-2-2.563.722-.562,2.476,3.176-2.078,2.248,1.716,2.023Z" fill="#999"/>
        </g>
        <path id="Trazado_111105" data-name="Trazado 111105" d="M338.537,6180.6s3.573,4.7,15.96,4.081,14.361-5.439,14.361-5.439" fill="none" stroke="#999" stroke-miterlimit="10" stroke-width="1"/>
        <line id="Línea_275" data-name="Línea 275" x2="115.979" transform="translate(295.282 6289.933)" fill="none" stroke="#999" stroke-miterlimit="10" stroke-width="1"/>
        <line id="Línea_276" data-name="Línea 276" x2="119.213" transform="translate(293.768 6283.005)" fill="none" stroke="#999" stroke-miterlimit="10" stroke-width="1"/>
        <line id="Línea_277" data-name="Línea 277" y2="40.728" transform="translate(353.539 6289.933)" fill="none" stroke="#999" stroke-miterlimit="10" stroke-width="1"/>
        <path id="Trazado_111106" data-name="Trazado 111106" d="M391.328,6214.538s.839,3.538-.364,23.45L390.518,6283" fill="none" stroke="#999" stroke-miterlimit="10" stroke-width="1"/>
        <path id="Trazado_111107" data-name="Trazado 111107" d="M390.518,6289.932l-6.679,41.486-5.951,32.648v7s11.646,24.117,12.63,70.99,2.541,90.635,2.541,90.635" fill="none" stroke="#999" stroke-miterlimit="10" stroke-width="1"/>
        <path id="Trazado_111108" data-name="Trazado 111108" d="M317.208,6289.932l6.5,40.728,6.72,33.017v7.585s-10.308,35.009-11.475,60.1-.194,60.294-.194,60.294l.194,41.038" fill="none" stroke="#999" stroke-miterlimit="10" stroke-width="1"/>
        <line id="Línea_278" data-name="Línea 278" x1="3.063" y1="354.975" transform="translate(352.555 6177.718)" fill="none" stroke="#999" stroke-miterlimit="10" stroke-width="1"/>
        <path id="Trazado_111109" data-name="Trazado 111109" d="M316.945,6214.538s-.838,3.538.365,23.45l.445,45.017" fill="none" stroke="#999" stroke-miterlimit="10" stroke-width="1"/>
        <path id="Trazado_111110" data-name="Trazado 111110" d="M334.748,6205.524s4.28,14.325,19.37,14.243,18.818-14.243,18.818-14.243" fill="none" stroke="#999" stroke-miterlimit="10" stroke-width="1"/>
        <path id="Trazado_111111" data-name="Trazado 111111" d="M390.6,6286.9l3.686-4.044,2.161.169s.922.094.738-.727l-2.428-3s-1.136-1.264-1.505.19l-.123,2.527-3.29,3.965-.4,1.249Z" fill="#666"/>
        <ellipse id="Elipse_4436" data-name="Elipse 4436" cx="15.032" cy="6.678" rx="15.032" ry="6.678" transform="translate(338.503 6164.361)" fill="#fff" stroke="#999" stroke-miterlimit="10" stroke-width="1"/>
        <g id="Grupo_56862" data-name="Grupo 56862">
          <path id="Trazado_111112" data-name="Trazado 111112" d="M360.635,6152.037c0-5.252-3.1-9.51-6.913-9.51s-6.912,4.258-6.912,9.51c0,4.108,1.9,7.6,4.547,8.927v9.094h5.223v-9.368C358.97,6159.193,360.635,6155.886,360.635,6152.037Z" fill="#fff" stroke="#999" stroke-miterlimit="10" stroke-width="1"/>
          <rect id="Rectángulo_10487" data-name="Rectángulo 10487" width="16.211" height="2.78" rx="1.209" transform="translate(345.894 6154.007)" fill="#fff" stroke="#999" stroke-miterlimit="10" stroke-width="1"/>
          <rect id="Rectángulo_10488" data-name="Rectángulo 10488" width="16.211" height="2.78" rx="1.209" transform="translate(345.894 6148.699)" fill="#fff" stroke="#999" stroke-miterlimit="10" stroke-width="1"/>
        </g>
        <line id="Línea_279" data-name="Línea 279" x2="86.064" transform="translate(311.371 6364.26)" fill="#fff" stroke="#000" stroke-miterlimit="10" stroke-width="1" opacity="0.33"/>
        <line id="Línea_280" data-name="Línea 280" x2="86.064" transform="translate(311.371 6371.262)" fill="#fff" stroke="#000" stroke-miterlimit="10" stroke-width="1" opacity="0.33"/>
        <path id="Trazado_111113" data-name="Trazado 111113" d="M294.7,6221.181s3.555,31.376-.32,45.739" fill="none" stroke="#000" stroke-miterlimit="10" stroke-width="1" opacity="0.33"/>
        <path id="Trazado_111114" data-name="Trazado 111114" d="M413.542,6222.529s-4.116,30.035-.241,44.4" fill="none" stroke="#000" stroke-miterlimit="10" stroke-width="1" opacity="0.33"/>
        <path id="Trazado_111115" data-name="Trazado 111115" d="M316.6,6286.126l-3.687-4.045-2.161.169s-.921.1-.737-.727l2.427-3s1.137-1.264,1.506.189l.122,2.528,3.291,3.965.4,1.248Z" fill="#666"/>
        <path id="Trazado_111116" data-name="Trazado 111116" d="M272.438,6311.958l.652-22.026s.131-7.453,1.565-10.583,2.87-9.131,2.609-17.087a114.784,114.784,0,0,0-1.174-13.491s0-9.6,2.87-10.509,6.913-2.348,7.3-3.391-8.609-7.044-8.609-7.044-4.956.4-5.217-6.646,12.652-11.354,12.652-11.354l16.174-6.13s5.739-3.131,10.044-2.348,13.043-1.435,13.043-1.435,14.739-3.652,15.652-3.13,9.261-1.957,9.261-1.957L359.308,6193s4.565-.565,5.217,1.022-.652,6.333-.522,8.982-.261,48.692-.261,48.692l-2.585,67.391s-2.845,46.087-2.521,63.826,0,50.435,0,50.435.019,3.043-1.937,3.761-3.457.848-3.848.326-3.13-.018-3.326.317-2.609,2.1-4.044.6-5.673-2.348-5.673-2.348l-7.566.457-2.217,1.173s-.522,1.194-3.783,1.314-11.478-.4-11.478-.4-4.37.13-5.413,1.3a3.381,3.381,0,0,1-3.587.652c-.587-.326-2.935-1.826-4.37-1.7s-6.326.2-8.934-.717-2.674-1.3-6.066-.913c0,0-6.521-.13-7.869.348s-1.913,1.174-3.3,1.348-2.783-1-4.131.087a7.584,7.584,0,0,1-3.913,1.391c-.348-.044-1.3-.609-2.261,1.043s-3.217.7-3.217.7-.174-.739-1.391.7a12.888,12.888,0,0,1-2.7,2.347l1.087-10.3s1.652-18,2.435-34.174.087-40.087.087-40.087l-2.348-41.043-3.826-47.131-1.653-30.869-1.565-21.756s.87-2.331,2.522.712l4.7,4.7,3.217,3.391s2.609,2.609,2.522,4.783-2.435,5.826-2.435,5.826l-5.478,9.13s-1.565.7-.087,1.826,3.478.522,4.956,1.392,2.609,1.478,3.3,2.869,1.391,7.044,1.391,7.044l.609,11.391s.869,10.783,1.565,12.261,2.348,13.652,2.348,13.652Z" fill="#999" stroke="#4d4d4d" stroke-linecap="round" stroke-linejoin="round" stroke-width="1" opacity="0.5"/>
        <path id="Trazado_111117" data-name="Trazado 111117" d="M315.134,6186.218s-2.261,3.922-8.522,3.787-8.99.192-12.234,2.9-8.636,2.185-8.636,2.185-11.826,1.043-18.261,4S252.873,6207.61,252.7,6209s0,6.783,0,6.783l-.077,1.565v1.043l3.99,4.348,4.847,4.978,2.468,3,.625,1.3-.386,3.679-4.685,8.965-2.608,3.648-.718.853.631.973,1.836.709,2.276.339,2.531,1.394,1.618,1.819,1.017,4.425.542,5.759.38,7.11.347,4.364.486,4.573.324,2.382,1.042,4.384,1.2,7.32,1.55,12.754.549,2.931.737-17.132.058-6.81.985-6.147,2.261-6.521.7-8.261-.261-8.7-.609-6.782.348-7.914,1.826-3.913,4.054-1.214,3.308-1.67.2-1.289-5.652-4.174-3.217-2.261h-1.305l-2.522-2-1.043-2.435.261-4.435,2.087-2.869,4.326-3.226,7.544-3.378,14.7-5.57,5.154-1.994,3.68-.469,5.376.2Z" fill="#999" stroke="#4d4d4d" stroke-linecap="round" stroke-linejoin="round" stroke-width="1"/>
        <path id="Trazado_111118" data-name="Trazado 111118" d="M287.308,6173.349s2.782,5.826,8.521,5.043,8,.783,8.435,1.3,2.261,4,4.87,3.3a10.3,10.3,0,0,1,5.13.092l.783,1.648s1.019,1.091-.688,2.442a19.942,19.942,0,0,1-3.291,2.119l-3.021.66H304.7s-4.449.258-4.794.323-2.969.928-2.969.928l-3.061,2.071-2.339,1.143-3.52.661-.491-.435Z" fill="#999" stroke="#4d4d4d" stroke-linecap="round" stroke-linejoin="round" stroke-width="1" opacity="0.5"/>
        <path id="Trazado_111119" data-name="Trazado 111119" d="M288.221,6437.958s.391,55.3.521,57.391-2.478-4.957-2.478-4.957-2.739-4.565-6.261-5.347-4.13-1.2-4.13-1.2-2.652-.739-2.479-2.957,6.022-4.782,6.022-4.782l5.413-2.413s1.7-1.174,1.435-2.152-2.87-3.131-2.87-3.131l-7.7-6.456s-3.652-3.718-5.935-3.718-6.065-.13-6.065-.13a4.934,4.934,0,0,1-3.131-3.065c-.978-2.544-2.543-6-2.543-6l-.522-3.327,3.065-2.543.64-1.206,1.621.684,1.869-.954,1.386-1.418,1.528.068,1.98-.553,1.5-.838,1.654-.446,2,.446,3.427-1.3,3.486-.461,4.218-.034,2.131-.132Z" fill="#999" stroke="#4d4d4d" stroke-linecap="round" stroke-linejoin="round" stroke-width="1"/>
        <path id="Trazado_111120" data-name="Trazado 111120" d="M275.894,6463.131l.261,13.957a14.76,14.76,0,0,0,4.005-1.31l3.78-1.685,2.04-1.519a12.929,12.929,0,0,1-.694-1.812c-.222-.82-3.049-3.319-3.049-3.319l-3.96-3.322-1.625-1.364Z" fill="#999" stroke="#4d4d4d" stroke-linecap="round" stroke-linejoin="round" stroke-width="1" opacity="0.5"/>
      </g>
    </g>
  </g>
</svg>
