<svg xmlns="http://www.w3.org/2000/svg" width="430" height="430" viewBox="0 0 430 430">
  <g id="Grupo_56832" data-name="Grupo 56832" transform="translate(-451.854 -5209.826)">
    <rect id="Rectángulo_10465" data-name="Rectángulo 10465" width="430" height="430" rx="13.916" transform="translate(451.854 5209.826)" fill="#fff"/>
    <g id="Grupo_56831" data-name="Grupo 56831" transform="translate(474.057 5235.841)">
      <g id="Grupo_56811" data-name="Grupo 56811" transform="translate(84.894 331.013)">
        <path id="Trazado_110771" data-name="Trazado 110771" d="M550.279,5539.835a.566.566,0,0,1-.566-.566v-7.855a.566.566,0,0,1,1.131,0v7.855A.566.566,0,0,1,550.279,5539.835Z" transform="translate(-546.088 -5524.659)" fill="#4d4d4d"/>
        <g id="Grupo_56810" data-name="Grupo 56810">
          <path id="Trazado_110772" data-name="Trazado 110772" d="M554.889,5535.31l-4.19-1.78-4.19,1.78,4.19-9.932Z" transform="translate(-546.509 -5525.378)" fill="#4d4d4d"/>
        </g>
      </g>
      <g id="Grupo_56812" data-name="Grupo 56812" transform="translate(83.193)">
        <path id="Trazado_110773" data-name="Trazado 110773" d="M562.109,5244.424c0-6.132-3.716-11.1-8.3-11.1s-8.3,4.973-8.3,11.1c0,4.8,2.278,8.871,5.461,10.424v10.618h6.272v-10.938C560.11,5252.78,562.109,5248.918,562.109,5244.424Z" transform="translate(-544.94 -5232.753)" fill="#fff"/>
        <path id="Trazado_110774" data-name="Trazado 110774" d="M557.87,5266.1h-7.4v-10.84c-3.281-1.794-5.461-6.064-5.461-10.768,0-6.435,3.978-11.671,8.867-11.671s8.867,5.236,8.867,11.671c0,4.4-1.9,8.441-4.87,10.414Zm-6.272-1.131h5.14v-10.691l.272-.165c2.794-1.7,4.6-5.479,4.6-9.621,0-5.811-3.47-10.539-7.736-10.539s-7.736,4.729-7.736,10.539c0,4.43,2.068,8.415,5.144,9.916l.318.155Z" transform="translate(-545.006 -5232.819)" fill="#999"/>
      </g>
      <g id="Grupo_56813" data-name="Grupo 56813" transform="translate(82.094 13.404)">
        <rect id="Rectángulo_10466" data-name="Rectángulo 10466" width="19.468" height="3.247" rx="1.435" transform="translate(0.566 0.567)" fill="#fff"/>
        <path id="Trazado_110775" data-name="Trazado 110775" d="M562.445,5249.046H546.223a2.19,2.19,0,0,1,0-4.38h16.221a2.19,2.19,0,0,1,0,4.38Zm-16.221-3.249a1.058,1.058,0,0,0,0,2.117h16.221a1.058,1.058,0,0,0,0-2.117Z" transform="translate(-544.035 -5244.666)" fill="#999"/>
      </g>
      <g id="Grupo_56814" data-name="Grupo 56814" transform="translate(82.094 7.207)">
        <rect id="Rectángulo_10467" data-name="Rectángulo 10467" width="19.468" height="3.247" rx="1.435" transform="translate(0.566 0.565)" fill="#fff"/>
        <path id="Trazado_110776" data-name="Trazado 110776" d="M562.445,5243.567H546.223a2.189,2.189,0,0,1,0-4.378h16.221a2.189,2.189,0,1,1,0,4.378Zm-16.221-3.247a1.057,1.057,0,0,0,0,2.115h16.221a1.057,1.057,0,1,0,0-2.115Z" transform="translate(-544.035 -5239.189)" fill="#999"/>
      </g>
      <g id="Grupo_56815" data-name="Grupo 56815" transform="translate(0 28.319)">
        <path id="Trazado_110777" data-name="Trazado 110777" d="M618.007,5335.592a45.46,45.46,0,0,0-4.158-12.648l-7.969-3.148-30.3-13.774c-.689-2.657-.1-9.446-.1-9.446.984-6.689,5.9-18.4,5.9-18.4,1.575-4.23.492-6.887.492-6.887-10.822-14.659-27.056-12.889-30.008-12.889s-4.918,3.641-4.918,3.641L535.042,5288.8l-45.065,37.189s-10.228,7.773-15.049,13.971-2.263,17.021-2.263,17.021l13.774,44.373,24.007,69.755-1.083,7.87a111.742,111.742,0,0,0-6.689,13.078c-3.818,8.86-7.651,20.146-10.4,25.6-8.264,16.381-6.3,34.534-6.3,34.534v49.587c60.994,11.511,122.472,0,122.472,0s.42-61.1,0-68.771c-.342-6.256-6.384-21.272-7.2-28.444l-.468-2.352-5.018-18.326v-6.685s9.3-43.345,11.511-48.806,2.8-6.789,2.8-6.789A229.27,229.27,0,0,0,621.2,5400.8c4.649-10.183,1.844-17.12,1.844-17.12l-3.688-18.447.939-9.928a23.4,23.4,0,0,0,.07-3.484l-.738-9.477a19.953,19.953,0,0,0-.325-2.211Z" transform="translate(-471.41 -5257.784)" fill="#fff"/>
        <path id="Trazado_110778" data-name="Trazado 110778" d="M544.717,5607.5a320.323,320.323,0,0,1-58.788-5.093l-.462-.087v-50.055c-.016-.122-1.88-18.448,6.363-34.788,1.529-3.029,3.419-7.938,5.421-13.134,1.615-4.192,3.285-8.527,4.97-12.441a114.4,114.4,0,0,1,6.664-13.046l1.047-7.62-23.961-69.627-13.78-44.39c-.118-.489-2.573-11.2,2.357-17.535,4.811-6.186,14.733-13.755,15.152-14.074l44.944-37.09,11.852-26.639c.106-.2,2.184-3.977,5.437-3.977.217,0,.508-.01.865-.023,12.891-.443,22.839,3.988,29.6,13.142l.069.122c.047.118,1.146,2.91-.485,7.3-.058.139-4.912,11.742-5.873,18.285,0,.032-.534,6.266.026,8.961l30.05,13.66,8.129,3.211.1.176a45.584,45.584,0,0,1,4.217,12.792l1.29,4.522a19.737,19.737,0,0,1,.345,2.313l.739,9.483a24.259,24.259,0,0,1-.071,3.583l-.931,9.845,3.673,18.368c.088.191,2.81,7.178-1.885,17.464a232.347,232.347,0,0,1-11.173,20.868h0s-.622,1.426-2.765,6.707c-2.132,5.261-11.077,46.829-11.468,48.653v6.549l5,18.251.479,2.392c.4,3.458,2.025,8.8,3.6,13.958,1.766,5.792,3.435,11.264,3.616,14.567.415,7.6,0,68.194,0,68.805l0,.467-.459.084A389.916,389.916,0,0,1,544.717,5607.5ZM486.6,5601.38c57.285,10.7,115.594,1.006,121.344,0,.038-5.708.391-61.054,0-68.267-.174-3.167-1.9-8.825-3.57-14.3-1.589-5.21-3.231-10.6-3.634-14.114l-.462-2.306-5.028-18.436.012-6.8c.379-1.772,9.334-43.458,11.541-48.9,2.192-5.408,2.787-6.751,2.81-6.807a232.354,232.354,0,0,0,11.145-20.815c4.482-9.812,1.861-16.6,1.835-16.672l-3.736-18.629.947-10.01a22.939,22.939,0,0,0,.069-3.4l-.737-9.464a19.306,19.306,0,0,0-.315-2.14l-1.3-4.558a46.64,46.64,0,0,0-4-12.3l-7.775-3.07-30.575-13.9-.069-.261c-.7-2.717-.138-9.354-.113-9.635.988-6.717,5.743-18.087,5.946-18.568a9.971,9.971,0,0,0,.509-6.4c-9.83-13.249-23.954-12.771-28.6-12.617-.373.014-.677.024-.9.024-2.576,0-4.4,3.312-4.423,3.345l-11.939,26.842-.1.084-45.065,37.19c-.12.092-10.243,7.813-14.962,13.882-4.595,5.91-2.184,16.438-2.159,16.543l13.764,44.334,24.044,69.867-1.179,8.224a112.02,112.02,0,0,0-6.652,13c-1.677,3.893-3.342,8.218-4.953,12.4-2.012,5.224-3.912,10.158-5.466,13.238-8.094,16.044-6.265,34.037-6.246,34.217Z" transform="translate(-471.477 -5257.848)" fill="#999"/>
      </g>
      <path id="Trazado_110779" data-name="Trazado 110779" d="M489.909,5595.2c-.006-.334-.579-33.7.4-53.559.975-19.932,4.068-28.355,4.2-28.7l11.351-26.634,6.657-13.079v-6.374l-20.442-68.791-9.846-41.944c-.077-.748-1.557-16.658,2.4-25.257,3.919-8.524,11.9-18.515,11.977-18.613l.883.708c-.079.1-7.971,9.982-11.833,18.379-3.827,8.324-2.326,24.438-2.31,24.6l9.824,41.837,20.48,68.918v6.809l-6.765,13.285-11.326,26.578c-.021.06-3.153,8.62-4.12,28.337-.973,19.823-.4,53.149-.394,53.484Z" transform="translate(-470.109 -5222.379)" fill="#999"/>
      <path id="Trazado_110780" data-name="Trazado 110780" d="M505.066,5605.091h-1.131v-50.034c.042-.326,3.635-24.557,9.273-42.866,5.508-17.887,8.352-26.49,8.381-26.576a63.357,63.357,0,0,0,1.729-6.927c1.532-15.967-.759-26.911-2.6-35.7-.421-2.009-.817-3.906-1.155-5.772-3.483-19.235-6.425-59.782-7.682-77.1-1.323-18.229,7.339-38.144,7.426-38.344l11.366-24.948,18.3-38.527,1.021.486L531.7,5297.3l-11.359,24.933c-.084.19-8.633,19.855-7.329,37.8,1.255,17.3,4.194,57.8,7.667,76.977.335,1.852.731,3.741,1.15,5.743,1.857,8.868,4.167,19.9,2.619,36.043a62.444,62.444,0,0,1-1.777,7.159c-.032.1-2.874,8.7-8.377,26.569-5.612,18.227-9.193,42.372-9.229,42.613Z" transform="translate(-467.211 -5229.47)" fill="#999"/>
      <path id="Trazado_110781" data-name="Trazado 110781" d="M532.892,5600.908h-1.131v-56.542c.049-1.349,1.238-32.666,5.938-45.424l3.721-14.73a40.324,40.324,0,0,0,.747-4.736l0-93.932c2.049-34.576,11.619-54.653,11.715-54.851,8.544-23.134,22.367-26.833,22.951-26.98l.275,1.1c-.137.035-13.845,3.75-22.186,26.325-.117.248-9.589,20.143-11.624,54.441v93.954a40.293,40.293,0,0,1-.78,4.96l-3.738,14.787c-4.655,12.644-5.874,44.786-5.886,45.109Z" transform="translate(-463.554 -5223.5)" fill="#999"/>
      <path id="Trazado_110782" data-name="Trazado 110782" d="M580.533,5589.882l-1.131-.046c1.646-39.861-4.571-99.325-4.634-99.92l-3.552-17.235.015-4.258,23.613-102.334,1.1.254-23.6,102.271v4.011l3.536,17.116C575.956,5490.393,582.182,5549.938,580.533,5589.882Z" transform="translate(-458.368 -5215.303)" fill="#999"/>
      <path id="Trazado_110783" data-name="Trazado 110783" d="M579.5,5589.873l-.849-.035.019-.488.849.036Zm.1-2.753-.849-.027q.036-1.121.063-2.261l.849.021Q579.635,5586,579.6,5587.12Zm.112-4.532-.849-.017.036-2.262.849.012Zm.058-4.532-.849,0,.009-2.262.849,0Zm-.842-4.527-.012-2.262.849-.007.012,2.267Zm-.034-4.523-.034-2.263.849-.014.034,2.265Zm-.076-4.523-.05-2.263.849-.021.05,2.265Zm-.106-4.531-.068-2.267.849-.026.068,2.269Zm-.141-4.532-.081-2.26.849-.031.081,2.263Zm-.17-4.517-.094-2.256.849-.035.094,2.256Zm-.195-4.516-.106-2.261.849-.041.106,2.263Zm-.219-4.52-.118-2.262.846-.044.119,2.262Zm-.242-4.522-.129-2.259.846-.051.129,2.264Zm-.263-4.52-.14-2.26.846-.053.14,2.262Zm-.286-4.518-.149-2.26.846-.058.149,2.262Zm-.3-4.518-.159-2.259.846-.06.16,2.258Zm-.324-4.516-.167-2.258.846-.063.167,2.259Zm-.341-4.516-.178-2.258.846-.067.178,2.259Zm-.36-4.516-.187-2.257.846-.07.187,2.258Zm-.376-4.514-.2-2.256.846-.074.2,2.258Zm-.395-4.513-.2-2.257.844-.077.2,2.259Zm-.414-4.512-.214-2.258.844-.083.214,2.26Zm-.434-4.517-.224-2.2.415-.108.422-.044-.422.044.429.021.224,2.2Zm-.679-4.436-.458-2.217.832-.174.457,2.217Zm-.915-4.433-.458-2.216.831-.174.458,2.217Zm-.916-4.433-.457-2.215.832-.174.457,2.215Zm-.915-4.432-.35-1.691-.009-.622h.849v.534l.341,1.605Zm.49-4.577h-.849v-1.334l.221-1,.826.19-.208.905Zm.707-4.349-.826-.19.508-2.2.827.19Zm1.017-4.409-.827-.19.51-2.205.826.189Zm1.017-4.411-.826-.189.509-2.206.827.19Zm1.018-4.409-.827-.189.509-2.207.827.19Zm1.017-4.41-.826-.189.509-2.206.826.19Zm1.018-4.409-.827-.189.509-2.207.827.19Zm1.017-4.41-.826-.19.509-2.205.826.19Zm1.017-4.411-.826-.189.509-2.2.827.19Zm1.018-4.41-.827-.189.51-2.2.826.19Zm1.017-4.409-.826-.189.509-2.2.826.19Zm1.018-4.41-.827-.19.509-2.2.827.189Zm1.017-4.409-.826-.19.508-2.2.826.189Zm1.017-4.41-.826-.19.508-2.205.827.19Zm1.018-4.409-.827-.19.509-2.205.826.19Zm1.017-4.409-.826-.19.508-2.206.827.189Zm1.018-4.411-.827-.19.508-2.2.827.189Zm1.017-4.409-.826-.19.508-2.205.826.189Zm1.018-4.411-.827-.189.508-2.2.827.189Zm1.017-4.409-.827-.19.509-2.205.826.189Zm1.017-4.41-.826-.19.508-2.205.827.19Zm1.018-4.409-.827-.19.509-2.205.826.19Zm1.017-4.41-.826-.19.508-2.205.826.19Zm1.018-4.409-.827-.19.508-2.205.827.19Z" transform="translate(-458.467 -5215.298)" fill="#999"/>
      <path id="Trazado_110784" data-name="Trazado 110784" d="M581.192,5589.873l-.849-.035.02-.488.849.036Zm.1-2.752-.849-.027q.037-1.121.065-2.261l.849.021Q581.329,5586,581.293,5587.121Zm.113-4.533-.849-.017.035-2.262.849.012Zm.057-4.532-.849,0,.009-2.262.849,0Zm-.842-4.526-.011-2.262.849-.007.011,2.267Zm-.034-4.524-.033-2.263.849-.014.033,2.265Zm-.075-4.523-.05-2.263.849-.021.05,2.265Zm-.107-4.532-.068-2.267.849-.026.068,2.269Zm-.141-4.529-.08-2.261.849-.031.08,2.263Zm-.17-4.517-.094-2.257.849-.035.094,2.256Zm-.193-4.518-.107-2.261.849-.041.107,2.263Zm-.221-4.521-.117-2.262.846-.044.118,2.262Zm-.242-4.521-.129-2.259.846-.051.129,2.264Zm-.263-4.52-.14-2.26.846-.053.14,2.262Zm-.286-4.518-.149-2.26.846-.058.149,2.262Zm-.3-4.518-.159-2.259.846-.06.161,2.258Zm-.324-4.517-.167-2.258.846-.063.167,2.259Zm-.339-4.515-.179-2.258.846-.067.179,2.259Zm-.361-4.516-.187-2.257.846-.07.187,2.258Zm-.376-4.512-.2-2.257.846-.074.2,2.258Zm-.394-4.515-.2-2.257.844-.077.2,2.259Zm-.415-4.512-.214-2.258.844-.083.214,2.26Zm-.435-4.516-.221-2.171.412-.136.423-.043-.423.043.432.049.221,2.175Zm-.679-4.437-.457-2.217.83-.174.457,2.217Zm-.915-4.433-.458-2.216.83-.174.459,2.217Zm-.915-4.433-.458-2.215.832-.174.457,2.215Zm-.916-4.432-.349-1.691-.009-.621h.849v.533l.341,1.605Zm.491-4.575h-.849v-1.336l.22-1,.827.19-.209.905Zm.706-4.351-.827-.19.51-2.2.826.19Zm1.017-4.409-.826-.19.509-2.205.826.189Zm1.018-4.411-.827-.189.509-2.2.827.189Zm1.017-4.409-.826-.189.509-2.206.826.19Zm1.017-4.41-.826-.189.509-2.206.827.19Zm1.018-4.409-.827-.189.509-2.207.826.19Zm1.017-4.41-.826-.19.508-2.205.827.19Zm1.018-4.409-.827-.19.508-2.205.827.19Zm1.017-4.412-.826-.189.508-2.2.826.19Zm1.018-4.409-.827-.189.508-2.2.827.19Zm1.017-4.41-.826-.19.508-2.2.826.189Zm1.016-4.409-.826-.19.509-2.2.827.189Zm1.018-4.41-.827-.19.51-2.205.826.19Zm1.017-4.409-.826-.19.509-2.205.826.19Zm1.018-4.409-.827-.19.509-2.206.827.189Zm1.017-4.411-.826-.19.509-2.2.826.189Zm1.017-4.409-.826-.19.509-2.205.827.189Zm1.018-4.411-.827-.189.509-2.2.826.189Zm1.017-4.409-.826-.19.508-2.2.827.188Zm1.018-4.41-.827-.19.508-2.205.827.19Zm1.017-4.409-.826-.19.508-2.205.826.19Zm1.018-4.41-.827-.19.508-2.205.827.19Zm1.017-4.409-.827-.19.509-2.205.826.19Z" transform="translate(-458.244 -5215.298)" fill="#999"/>
      <path id="Trazado_110785" data-name="Trazado 110785" d="M513.7,5380.821l-5.194-3.863-2.52.654s-1.069.306-1.022-.678l2.247-3.967s1.082-1.694,1.818-.1l.669,2.878,4.71,3.854.726,1.351Z" transform="translate(-467.076 -5214.501)" fill="#999"/>
      <path id="Trazado_110786" data-name="Trazado 110786" d="M520.3,5459.947l-3.378-5.521-2.581-.334s-1.107-.115-.695-1.01l3.565-2.841s1.635-1.168,1.724.583l-.454,2.92,2.93,5.335.171,1.524Z" transform="translate(-465.947 -5204.291)" fill="#999"/>
      <path id="Trazado_110787" data-name="Trazado 110787" d="M520.484,5458.757l-5.968,2.506-2.289-1.239s-.965-.552-1.155.414l1.231,4.389s.644,1.9,1.741.536l1.339-2.634,5.5-2.614,1.03-1.137Z" transform="translate(-466.273 -5203.122)" fill="#999"/>
      <ellipse id="Elipse_4433" data-name="Elipse 4433" cx="2.177" cy="3.986" rx="2.177" ry="3.986" transform="translate(137.028 120.718)" fill="#999"/>
      <path id="Trazado_110788" data-name="Trazado 110788" d="M593.283,5372.855c-.086,0-.172,0-.258,0-3.414-.143-6.467-3.082-8.6-8.279-2.075-5.054-3.058-11.687-2.769-18.677h0c.618-14.824,6.613-26.192,13.567-25.92,3.414.143,6.468,3.082,8.6,8.277,2.076,5.054,3.058,11.688,2.769,18.678s-1.82,13.521-4.31,18.384S596.6,5372.855,593.283,5372.855Zm-10.5-26.913c-.284,6.831.67,13.294,2.684,18.2,1.957,4.763,4.656,7.455,7.6,7.577,2.924.148,5.86-2.333,8.205-6.92,2.414-4.721,3.9-11.084,4.184-17.915s-.67-13.3-2.684-18.2c-1.956-4.764-4.656-7.454-7.6-7.576-.071,0-.144,0-.214,0-6.163,0-11.6,11.045-12.175,24.839Z" transform="translate(-457.003 -5221.364)" fill="#999"/>
      <g id="Grupo_56816" data-name="Grupo 56816" transform="translate(64.554 55.884)">
        <line id="Línea_274" data-name="Línea 274" x2="3.814" y2="0.707" transform="translate(0.565 0.565)" fill="#fff"/>
        <path id="Trazado_110789" data-name="Trazado 110789" d="M532.913,5284.048a.535.535,0,0,1-.1-.009l-3.814-.707a.566.566,0,0,1,.206-1.112l3.814.708a.565.565,0,0,1-.1,1.121Z" transform="translate(-528.532 -5282.21)" fill="#999"/>
      </g>
      <path id="Trazado_110790" data-name="Trazado 110790" d="M571.9,5279.022a27.434,27.434,0,0,0-11.432-10.746c-14.63-5.926-23.407-2.968-23.494-2.936l-.379-1.067c.373-.132,9.23-3.148,24.311,2.96a28.132,28.132,0,0,1,11.975,11.225Z" transform="translate(-462.919 -5228.797)" fill="#999"/>
      <path id="Trazado_110791" data-name="Trazado 110791" d="M551.707,5464.861q-1.276,0-2.516-.026l.021-1.131q2.729.056,5.631-.014l.028,1.131Q553.261,5464.862,551.707,5464.861Zm-8.2-.271c-1.9-.129-3.806-.306-5.659-.525l.132-1.124c1.835.217,3.72.392,5.605.52Zm17.035-.025-.076-1.129c1.853-.123,3.742-.285,5.614-.483l.12,1.125C564.317,5464.276,562.413,5464.441,560.546,5464.565Zm11.291-1.189-.158-1.121c1.817-.26,3.69-.561,5.566-.9l.2,1.113C575.556,5462.81,573.67,5463.115,571.837,5463.376Zm-39.611-.133c-1.892-.329-3.768-.712-5.575-1.138l.258-1.1c1.786.421,3.64.8,5.511,1.126Zm50.785-1.864-.236-1.107c1.811-.385,3.661-.81,5.5-1.26l.269,1.1C586.694,5460.564,584.833,5460.992,583.011,5461.379Zm-61.858-.752c-1.852-.563-3.666-1.186-5.387-1.851l.406-1.057c1.7.656,3.484,1.27,5.311,1.825Zm-10.621-4.126a35.916,35.916,0,0,1-5-2.855l.668-.914a35.636,35.636,0,0,0,4.829,2.753Z" transform="translate(-467.001 -5203.914)" fill="#999"/>
      <path id="Trazado_110792" data-name="Trazado 110792" d="M551.842,5327.113l-2.47-5.983-2.5-.734s-1.074-.289-.527-1.106l3.966-2.247s1.8-.9,1.613.846l-.906,2.813,2.057,5.729-.07,1.532Z" transform="translate(-461.657 -5221.779)" fill="#999"/>
      <path id="Trazado_110793" data-name="Trazado 110793" d="M553.2,5327.385l-5.732,3.01-.5,2.554s-.188,1.1-1.053.626l-2.6-3.743s-1.059-1.708.695-1.683l2.884.644,5.515-2.575,1.532-.071Z" transform="translate(-462.077 -5220.552)" fill="#999"/>
      <path id="Trazado_110794" data-name="Trazado 110794" d="M531.658,5284.451l-2.5-5.973-2.5-.723s-1.076-.284-.533-1.105l3.957-2.264s1.8-.9,1.617.841l-.9,2.816,2.082,5.72-.063,1.533Z" transform="translate(-464.314 -5227.387)" fill="#999"/>
      <path id="Trazado_110795" data-name="Trazado 110795" d="M532.453,5285.306l-6.369-1.159-1.968,1.7s-.824.748-1.216-.154l.255-4.552s.218-2,1.585-.9l1.876,2.283,5.93,1.368,1.251.889Z" transform="translate(-464.719 -5226.628)" fill="#999"/>
      <path id="Trazado_110796" data-name="Trazado 110796" d="M580.547,5308.432l3.726-5.293,2.6-.167s1.112-.045.759-.965l-3.375-3.063s-1.558-1.271-1.759.471l.266,2.944-3.268,5.136-.268,1.509Z" transform="translate(-457.315 -5224.187)" fill="#999"/>
      <path id="Trazado_110797" data-name="Trazado 110797" d="M514.717,5324.377l-6.369-1.158-1.969,1.7s-.823.748-1.216-.155l.256-4.552s.218-2,1.584-.9l1.876,2.283,5.931,1.368,1.25.888Z" transform="translate(-467.05 -5221.493)" fill="#999"/>
      <path id="Trazado_110798" data-name="Trazado 110798" d="M514.673,5323.789l-2.808-5.833-2.534-.59s-1.088-.226-.589-1.075l3.831-2.47s1.745-1,1.659.754l-.745,2.86,2.381,5.6.017,1.533Z" transform="translate(-466.597 -5222.209)" fill="#999"/>
      <path id="Trazado_110799" data-name="Trazado 110799" d="M631.423,5363.443a.56.56,0,0,1-.437-.208l-17.449-21.3c-2.249-.629-25.647-7.14-29.626-7.51-8.175-.762-36.489-3.829-36.774-3.86-19.365-2.823-33.056-4.547-33.192-4.562a.568.568,0,0,1-.49-.633.561.561,0,0,1,.631-.491c.136.017,13.836,1.742,33.193,4.564.265.028,28.57,3.1,36.736,3.854,4.261.4,28.95,7.3,30,7.6a.572.572,0,0,1,.285.187l17.561,21.441a.565.565,0,0,1-.438.923Z" transform="translate(-465.96 -5220.719)" fill="#4d4d4d" opacity="0.36"/>
      <path id="Trazado_110800" data-name="Trazado 110800" d="M557.012,5500.884l-.046,0a.564.564,0,0,1-.518-.608c.009-.118.949-11.855,1.927-17.232l.584-6.15,2.36-51.821,4.23-73.113,2.462-21.669c.121-.718,2.937-16.976,8.159-24.8a.565.565,0,0,1,.941.626c-5.088,7.626-7.953,24.171-7.98,24.336l-2.455,21.607-4.228,73.074-2.361,51.841-.592,6.227c-.975,5.369-1.91,17.047-1.92,17.166A.564.564,0,0,1,557.012,5500.884Z" transform="translate(-460.309 -5223.301)" fill="#4d4d4d" opacity="0.36"/>
      <path id="Trazado_110801" data-name="Trazado 110801" d="M524.381,5494.722a.592.592,0,0,1-.191-.033.567.567,0,0,1-.342-.724c.015-.041,1.444-4.021,1.825-5.827s1.65-16.9,1.662-17.052c0-.078.582-8.9.3-10.79-.3-1.963-.687-4.3-.687-4.3l-.38-9.042c.008-.167.767-10.317.863-13.028a46.95,46.95,0,0,0-.674-8.811c-.406-1.821-.029-11.823-.014-12.248l1.379-14,2.247-27.341s.506-9.825.605-11.6c.112-2.018,3.032-6.332,4.046-7.686.889-1.185,1.429-5.8,1.563-7.478l1.873-12.9c0-.034.6-5.56,1.084-8.754s4.32-8.537,4.785-9.176c.245-.584,2-4.68,3.651-6.233,1.412-1.33,2.308-4.292,2.449-4.781v-7.1c.009-.271.232-6.184.627-8.459a18.066,18.066,0,0,1,1.937-5,.565.565,0,1,1,.979.566,17.255,17.255,0,0,0-1.8,4.628c-.382,2.2-.608,8.226-.61,8.286v7.161a.531.531,0,0,1-.02.147c-.04.152-1.016,3.716-2.786,5.381-1.565,1.472-3.389,5.859-3.408,5.9a.548.548,0,0,1-.066.119c-.042.057-4.154,5.689-4.62,8.732-.484,3.169-1.073,8.669-1.078,8.725l-1.872,12.887c-.048.614-.536,6.374-1.78,8.031-1.494,1.993-3.742,5.617-3.823,7.071-.1,1.771-.606,11.607-.606,11.607l-2.248,27.37-1.377,13.979c-.107,2.819-.321,10.529-.011,11.924a47.7,47.7,0,0,1,.7,9.1c-.1,2.734-.856,12.906-.864,13.008l.372,8.9s.391,2.309.682,4.253c.3,2-.265,10.674-.29,11.043-.052.634-1.287,15.316-1.683,17.2s-1.807,5.812-1.866,5.978A.566.566,0,0,1,524.381,5494.722Zm3.691-38.844h0Z" transform="translate(-464.598 -5226.345)" fill="#4d4d4d" opacity="0.36"/>
      <g id="Grupo_56817" data-name="Grupo 56817" transform="translate(44.381 41.133)" opacity="0.36">
        <path id="Trazado_110802" data-name="Trazado 110802" d="M571.174,5271.859c-.689-.687-.984-1.967-3.247-2.165s-4.23,1.083-4.526,2.361a7.132,7.132,0,0,1-1.672,3.346c-.688.589-2.616,1.771-3.079,3.837a11.557,11.557,0,0,1-2.235,4.132l-1.279.807s-.4-.3-.763-.567c-.682-.5-1.5-1.167-1.5-1.167s-1.23-1.593-2.46-.6a4.546,4.546,0,0,0-1.525,2.271l-2.213-.379a1.194,1.194,0,0,1-.566-.942c-.074-.695,0-2.54,0-2.54s1.114-1.107-.033-1.181a17.316,17.316,0,0,0-3.329.377l.336-2.591-2.657-.587-1.464,2.8-.824,1.254-1.418,2.443-7.658,15.931-14.626,34.869A128.183,128.183,0,0,0,511.208,5361c.152,13.479,3.1,33.943,3.1,33.943l3.565,38.222,5.224,24.765-.087,17.59s-1.624,9.052-2.411,10.528a42.037,42.037,0,0,0-1.918,5.657l-.492,1.771-.8,2.608,2.52.983,1.18-2.952,3.346,1.279,1.6.394-1.844,18.694s-4.694,24.351-6.229,26.417a21.074,21.074,0,0,0-2.506,6.05s-.209,1.918.677,2.362,5.164.147,5.976-.739,5.5-2.213,6.552-1.771,5.328,1.624,5.328,1.624,4.87,3.985,8.117,3.542,3.285-2.179,3.285-2.179,5.224,1.629,5.756,1.722c.879-6.963,10.307-40.247,11.489-48.151,0,0,4.139,25.21,8.592,43.117a17.871,17.871,0,0,1,2.2-.577c.442,0,5.609.3,6.051.886s5.9,2.725,6.789,2.249,5.071-1.953,6.373-1.362a19.817,19.817,0,0,0,7.942.69c1.751-.29,9.445,0,9.445-4.132s-5.818-29.516-5.818-29.516-4.762-16.218-4.808-26.219a78.17,78.17,0,0,1,1.241-13.857,39.107,39.107,0,0,0,0-7.97,57.843,57.843,0,0,1,.2-10.183s1.182-10.33,3.371-12.544,6.468-14.461,6.468-14.461a45.293,45.293,0,0,0,1.624-8.266c.147-3.246,2.657-9.189,2.657-9.189l5.9-11.028s2.8-8.412,2.8-11.659,4.649-14.33,4.649-14.33l9.015-11.9-14.9-21.988-6.3-10.78s-6.247-6.445-7.28-8.953c0,0-8.4-3.475-18.361-7.731C580.634,5309.438,571.174,5271.859,571.174,5271.859Z" transform="translate(-510.637 -5269.108)" fill="#999"/>
        <path id="Trazado_110803" data-name="Trazado 110803" d="M541.659,5552.63c-3.163,0-7.18-3.083-7.865-3.626-.7-.194-4.3-1.2-5.285-1.617-.807-.337-5.227.883-5.915,1.631-1,1.092-5.564,1.4-6.647.863-1.178-.59-1.027-2.542-.985-2.928a21.321,21.321,0,0,1,2.615-6.327c1.069-1.44,4.251-16.449,6.128-26.187l1.789-18.155-1.121-.276-2.893-1.1-.973,2.434a.571.571,0,0,1-.731.318l-2.52-.983a.568.568,0,0,1-.336-.694l1.288-4.364a41.48,41.48,0,0,1,1.963-5.773c.546-1.024,1.706-6.756,2.352-10.36l.079-17.434-5.211-24.705-3.575-38.287c-.027-.177-2.958-20.627-3.107-33.99-.15-13.4,3.213-27.427,3.247-27.568l14.654-34.953,7.67-15.958,1.438-2.482.84-1.279,1.435-2.754a.572.572,0,0,1,.625-.291l2.657.588a.564.564,0,0,1,.439.624l-.237,1.822a13.165,13.165,0,0,1,2.7-.245,1.008,1.008,0,0,1,.993.607,1.455,1.455,0,0,1-.44,1.369c-.019.611-.045,1.775,0,2.25a.689.689,0,0,0,.221.464l1.619.278a5.274,5.274,0,0,1,1.548-2.074,1.9,1.9,0,0,1,1.435-.439,3,3,0,0,1,1.783,1.077c.179.145.853.69,1.431,1.111.158.116.321.236.456.337l.875-.551a10.848,10.848,0,0,0,2.059-3.824,6.972,6.972,0,0,1,2.887-3.844c.147-.114.275-.214.376-.3a6.676,6.676,0,0,0,1.489-3.043c.347-1.5,2.548-3.023,5.125-2.8a3.891,3.891,0,0,1,3.214,1.848,4.072,4.072,0,0,0,.384.479.554.554,0,0,1,.148.262c.1.374,9.5,37.356,18.984,41.41,9.84,4.207,18.272,7.693,18.355,7.729a.554.554,0,0,1,.306.307c.981,2.382,7.1,8.712,7.165,8.776a.581.581,0,0,1,.081.109l6.3,10.779,14.884,21.954a.563.563,0,0,1-.017.659l-8.972,11.843c-.381.918-4.577,11.076-4.577,14.046,0,3.3-2.718,11.491-2.833,11.838l-5.941,11.116c0,.011-2.448,5.84-2.591,8.947a45.048,45.048,0,0,1-1.645,8.4c-.184.532-4.355,12.423-6.609,14.7-1.681,1.7-2.886,9.392-3.209,12.21a57.617,57.617,0,0,0-.2,10.065,39.521,39.521,0,0,1,0,8.1,78.465,78.465,0,0,0-1.237,13.783c.044,9.809,4.736,25.9,4.784,26.062.248,1.071,5.842,25.527,5.842,29.676,0,3.967-5.632,4.363-8.659,4.575-.537.039-.979.068-1.259.114a20.428,20.428,0,0,1-8.269-.733c-.989-.443-4.91.826-5.871,1.345-1.225.659-6.973-1.691-7.509-2.406a29.414,29.414,0,0,0-5.6-.66c-.2.016-1.215.314-2.035.554a.549.549,0,0,1-.441-.052.562.562,0,0,1-.267-.353c-3.49-14.035-6.82-32.747-8.076-40.056-1.056,4.936-3.126,13-5.143,20.852-2.609,10.161-5.308,20.666-5.751,24.171a.566.566,0,0,1-.659.485c-.466-.08-3.806-1.111-5.281-1.569-.324.7-1.2,1.705-3.584,2.031A4.471,4.471,0,0,1,541.659,5552.63Zm-13.527-6.406a2.214,2.214,0,0,1,.818.12c1,.424,5.217,1.588,5.259,1.6a.578.578,0,0,1,.208.108c.048.039,4.736,3.812,7.683,3.418,2.663-.363,2.792-1.6,2.8-1.647a.583.583,0,0,1,.248-.433.576.576,0,0,1,.487-.08c1.59.5,4.005,1.239,5.116,1.556.64-4.03,3.1-13.588,5.685-23.673,2.525-9.831,5.137-20,5.714-23.855a.565.565,0,0,1,.554-.481h0a.564.564,0,0,1,.558.474c.041.25,4.1,24.857,8.443,42.5a9.308,9.308,0,0,1,1.787-.435c.057,0,5.8.17,6.5,1.113.586.574,5.355,2.313,6.091,2.077.623-.336,5.184-2.125,6.852-1.369a19.313,19.313,0,0,0,7.616.648c.3-.051.782-.085,1.367-.127,2.658-.187,7.606-.534,7.606-3.446,0-4.022-5.747-29.137-5.8-29.391-.041-.129-4.777-16.377-4.822-26.342a79.637,79.637,0,0,1,1.251-13.971h0a39.327,39.327,0,0,0-.008-7.8,57.766,57.766,0,0,1,.2-10.3c.124-1.078,1.269-10.591,3.53-12.878,1.722-1.742,5.158-10.877,6.337-14.25a45.011,45.011,0,0,0,1.592-8.1c.15-3.309,2.6-9.139,2.7-9.384l5.925-11.077h0c-.008,0,2.737-8.273,2.737-11.391,0-3.321,4.5-14.092,4.693-14.548a.545.545,0,0,1,.07-.124l8.77-11.577L622.02,5341.5l-6.283-10.752c-.611-.632-6-6.259-7.25-8.863-1.359-.562-9.173-3.8-18.159-7.647-9.785-4.183-18.86-39.12-19.6-42.031-.135-.151-.258-.319-.387-.5a2.783,2.783,0,0,0-2.4-1.386c-2.061-.187-3.718,1.019-3.925,1.925a7.644,7.644,0,0,1-1.857,3.649c-.111.1-.255.206-.419.334a6.017,6.017,0,0,0-2.474,3.2,12.029,12.029,0,0,1-2.357,4.375.644.644,0,0,1-.129.111l-1.28.807a.565.565,0,0,1-.643-.028s-.391-.3-.754-.559c-.695-.507-1.526-1.188-1.526-1.188a.571.571,0,0,1-.089-.091,1.948,1.948,0,0,0-1.068-.7.769.769,0,0,0-.588.2,4.048,4.048,0,0,0-1.329,1.962.579.579,0,0,1-.646.428l-2.214-.379a.6.6,0,0,1-.159-.054,1.743,1.743,0,0,1-.873-1.387c-.076-.729-.006-2.545,0-2.623a.57.57,0,0,1,.167-.379,2.112,2.112,0,0,0,.188-.22,19.138,19.138,0,0,0-3.036.372.541.541,0,0,1-.5-.139.562.562,0,0,1-.177-.488l.269-2.076-1.729-.382-1.263,2.417-.852,1.3-1.4,2.415-7.638,15.893-14.614,34.841c-.006.054-3.337,13.953-3.187,27.2.148,13.288,3.07,33.666,3.1,33.87l3.569,38.251,5.215,24.7a.7.7,0,0,1,.011.12l-.088,17.59c-.177,1.032-1.67,9.279-2.476,10.791a41.835,41.835,0,0,0-1.873,5.54l-1.142,3.895,1.509.587.972-2.429a.568.568,0,0,1,.727-.318l3.346,1.278,1.53.373a.563.563,0,0,1,.429.6l-1.844,18.694c-.49,2.557-4.772,24.591-6.338,26.7a20.682,20.682,0,0,0-2.411,5.847c-.053.552.04,1.551.38,1.721.769.387,4.719.026,5.306-.613C522.545,5547.4,526.233,5546.224,528.132,5546.224Zm18.1-266.5Z" transform="translate(-510.703 -5269.174)" fill="#4d4d4d"/>
      </g>
      <path id="Trazado_110804" data-name="Trazado 110804" d="M547.248,5291.589c-1.3-.867-2.933-1.821-4.84-2.834l.531-1c1.94,1.032,3.6,2,4.934,2.89Zm-9.885-5.355c-2.9-1.369-5.131-2.306-5.153-2.316l.437-1.043c.023.009,2.279.956,5.2,2.336Z" transform="translate(-463.495 -5226.24)" fill="#999"/>
      <rect id="Rectángulo_10468" data-name="Rectángulo 10468" width="1.131" height="19.701" transform="matrix(0.505, -0.863, 0.863, 0.505, 86.874, 67.099)" fill="#999"/>
      <path id="Trazado_110805" data-name="Trazado 110805" d="M588.824,5379.416l-5.194-3.862-2.519.653s-1.07.306-1.022-.678l2.246-3.967s1.083-1.694,1.819-.1l.669,2.878,4.709,3.856.728,1.35Z" transform="translate(-457.202 -5214.686)" fill="#999"/>
      <path id="Trazado_110806" data-name="Trazado 110806" d="M591.451,5379.416l5.194-3.862,2.519.653s1.069.306,1.022-.678l-2.247-3.967s-1.082-1.694-1.818-.1l-.669,2.878-4.709,3.856-.728,1.35Z" transform="translate(-455.897 -5214.686)" fill="#999"/>
      <g id="Grupo_56818" data-name="Grupo 56818" transform="translate(69.094 251.56)">
        <path id="Trazado_110807" data-name="Trazado 110807" d="M559.566,5463.3l5.506-3.405,2.454.865s1.04.4,1.076-.588l-1.9-4.143s-.933-1.78-1.8-.256l-.912,2.81-5.02,3.441-.84,1.283Z" transform="translate(-529.183 -5455.155)" fill="#999"/>
        <path id="Trazado_110808" data-name="Trazado 110808" d="M558.321,5463.3l-5.5-3.405-2.454.865s-1.04.4-1.076-.588l1.9-4.143s.933-1.78,1.8-.256l.911,2.81,5.021,3.441.84,1.283Z" transform="translate(-530.345 -5455.155)" fill="#999"/>
        <path id="Trazado_110809" data-name="Trazado 110809" d="M541.58,5463.3l-5.506-3.405-2.453.865s-1.04.4-1.076-.588l1.9-4.143s.933-1.78,1.8-.256l.912,2.81,5.02,3.441.841,1.283Z" transform="translate(-532.545 -5455.155)" fill="#999"/>
      </g>
      <g id="Grupo_56830" data-name="Grupo 56830" transform="translate(213.884 0.566)">
        <g id="Grupo_56829" data-name="Grupo 56829">
          <g id="Grupo_56819" data-name="Grupo 56819" transform="translate(0 84.813)" opacity="0.36">
            <path id="Trazado_110810" data-name="Trazado 110810" d="M670.562,5379.777s-9.367-9.705-9.544-38.521c-.092-15.1,1.159-29.18,16.416-32.476l7.154,2.3,26.7,43.644-8.01,18.4L683.03,5384.81Z" transform="translate(-660.448 -5308.214)" fill="#999"/>
            <path id="Trazado_110811" data-name="Trazado 110811" d="M683.1,5385.441a.578.578,0,0,1-.212-.041l-12.468-5.032a.606.606,0,0,1-.195-.133c-.388-.4-9.527-10.2-9.7-38.91-.092-14.852,1.136-29.636,16.863-33.032a.563.563,0,0,1,.292.015l7.155,2.3a.568.568,0,0,1,.309.244l26.7,43.643a.565.565,0,0,1,.035.521l-8.008,18.405a.555.555,0,0,1-.235.265l-20.253,11.68A.568.568,0,0,1,683.1,5385.441Zm-12.135-6.075,12.091,4.881L702.9,5372.8l7.816-17.964-26.438-43.213-6.808-2.192c-14.771,3.28-15.915,16.954-15.823,31.888C661.815,5368.143,670.08,5378.356,670.961,5379.366Z" transform="translate(-660.514 -5308.28)" fill="#4d4d4d"/>
          </g>
          <g id="Grupo_56827" data-name="Grupo 56827" transform="translate(7.006)">
            <g id="Grupo_56825" data-name="Grupo 56825">
              <g id="Grupo_56820" data-name="Grupo 56820" transform="translate(0 23.83)">
                <path id="Trazado_110812" data-name="Trazado 110812" d="M809.408,5322.84s-14.044-6.06-19.331-9.594c0,0-5.138-2.48-5.354-13.69s.647-18.971,2.371-24.252l2.155-8.193s-6.251-9.7-23.714-11.964c0,0-11.749-1.078-14.444,1.725,0,0-7.115,26.624-16.815,38.481,0,0-2.048,7.869-23.606,12.289l-25.438,5.5s-11.75,2.48-13.582,12.073c0,0-7.115,7.654-3.234,36.111l1.077,5.82L682,5431.6l18.216,72.22.755,2.587v7.222s-20.265,29-22.637,50.554-2.372,37.727-2.372,37.727,91.623,2.156,133.447,0v-29.319a97.037,97.037,0,0,0-8.624-38.158l-9.27-17.463s-1.617-1.293-1.293-13.15l7.653-39.99,9.162-28.78,6.9-12.72s8.982-11.713,7.833-21.486l-3.306-11.5s-.431-15.091.144-20.7l4.168-14.947,1.437-13.509s1.006-6.18-3.161-9.63A104.936,104.936,0,0,0,809.408,5322.84Z" transform="translate(-666.634 -5254.307)" fill="#fff"/>
                <path id="Trazado_110813" data-name="Trazado 110813" d="M756.409,5603.558c-39.253,0-79.779-.938-80.39-.953l-.605-.014v-.605c0-.161.028-16.449,2.375-37.794,2.271-20.633,21-48.305,22.633-50.68v-6.939l-.731-2.5-18.221-72.243-12.513-64.493-1.079-5.827c-3.647-26.735,2.292-35.3,3.269-36.5,1.983-9.749,13.535-12.295,14.029-12.4l25.436-5.494c20.783-4.262,23.119-11.771,23.139-11.845l.12-.231c9.5-11.617,16.625-37.983,16.7-38.249l.152-.271c2.821-2.933,13.715-2.028,14.949-1.912,17.567,2.277,23.916,11.839,24.179,12.246l.146.23-2.225,8.458c-1.791,5.493-2.557,13.36-2.35,24.083.2,10.619,4.96,13.119,5.007,13.143,5.251,3.5,19.162,9.521,19.3,9.581l.063.033a104.019,104.019,0,0,1,11.73,7.784c4.39,3.635,3.422,9.94,3.378,10.207l-1.433,13.477-4.187,15.048c-.524,5.193-.155,19.251-.122,20.434l3.283,11.421c1.185,10.007-7.564,21.548-7.937,22.034l-6.845,12.639-9.117,28.674-7.635,39.917c-.287,10.816,1.063,12.527,1.12,12.593l.111.15,9.27,17.462a98.683,98.683,0,0,1,8.7,38.464v29.894l-.587.029C795.651,5603.319,776.191,5603.558,756.409,5603.558Zm-79.752-2.179c8.02.182,92.411,2,132.2.018v-28.731a97.329,97.329,0,0,0-8.57-37.9l-9.218-17.361c-.471-.582-1.685-3.1-1.4-13.523l7.664-40.089,9.181-28.851,6.944-12.828c.141-.2,8.869-11.713,7.764-21.12l-3.311-11.551c-.018-.619-.424-15.2.147-20.776l4.186-15.052,1.419-13.409c.015-.091.9-5.912-2.941-9.086a104.107,104.107,0,0,0-11.525-7.647c-.931-.4-14.2-6.161-19.4-9.635-.149-.064-5.411-2.732-5.63-14.191-.209-10.865.577-18.864,2.4-24.457l2.073-7.879c-1.051-1.423-7.624-9.463-23.12-11.472-3.11-.282-11.59-.571-13.812,1.437-.669,2.467-7.472,26.949-16.814,38.455-.395,1.147-3.67,8.419-24.037,12.6l-25.434,5.494c-.115.025-11.371,2.514-13.1,11.583l-.034.176-.121.13c-.067.074-6.851,7.907-3.075,35.6l1.075,5.792,12.5,64.455,18.208,72.185.775,2.739v7.417l-.111.161c-.2.288-20.2,29.115-22.529,50.266C676.934,5583.291,676.688,5598.243,676.657,5601.379Z" transform="translate(-666.706 -5254.381)" fill="#999"/>
              </g>
              <ellipse id="Elipse_4434" data-name="Elipse 4434" cx="2.91" cy="4.366" rx="2.91" ry="4.366" transform="translate(10.082 113.489)" fill="#999"/>
              <g id="Grupo_56821" data-name="Grupo 56821" transform="translate(94.907)">
                <path id="Trazado_110814" data-name="Trazado 110814" d="M756.7,5252.994v11.642a5.868,5.868,0,0,0,5.354.4l.107-12.037s7.11-1.617,7.042-9.27c0,0,1.007-10.277-9.341-9.845s-8.624,12.36-8.624,12.36S753.111,5252.276,756.7,5252.994Z" transform="translate(-750.516 -5233.248)" fill="#fff"/>
                <path id="Trazado_110815" data-name="Trazado 110815" d="M759.823,5266.188a6.336,6.336,0,0,1-3.4-.973l-.265-.185v-11.488c-3.576-1.173-5.355-6.8-5.433-7.046-.057-.345-.868-6.25,2.3-10.072a9,9,0,0,1,6.884-3.092c3.243-.125,5.77.727,7.507,2.565,2.919,3.085,2.5,7.762,2.478,7.958a9.862,9.862,0,0,1-7.043,9.675l-.107,11.988-.38.157A6.649,6.649,0,0,1,759.823,5266.188Zm-2.429-1.833a5.227,5.227,0,0,0,4.118.314l.11-12.1.475-.11a8.654,8.654,0,0,0,6.561-8.663c.007-.108.385-4.388-2.146-7.058-1.479-1.56-3.685-2.3-6.55-2.171a7.813,7.813,0,0,0-5.976,2.64c-2.824,3.4-2.066,8.958-2.058,9.013h0c.008,0,1.791,5.6,4.968,6.235l.5.1Z" transform="translate(-750.588 -5233.319)" fill="#999"/>
              </g>
              <path id="Trazado_110816" data-name="Trazado 110816" d="M804.689,5392.077l-5.4-20.444c-4.5-14.345-5.267-22.6-6.435-35.1-.152-1.619-.31-3.308-.482-5.091-1.456-14.973-6.7-19.031-6.75-19.071l.731-1c.233.17,5.733,4.331,7.253,19.952.174,1.786.333,3.477.482,5.1,1.161,12.422,1.928,20.627,6.39,34.875l5.411,20.471Z" transform="translate(-651.076 -5223.061)" fill="#999"/>
              <path id="Trazado_110817" data-name="Trazado 110817" d="M760.072,5318.238a23.919,23.919,0,0,1-5.193-.592c-17.481-3.886-32.012-22.566-32.156-22.755l.981-.756c.143.185,14.406,18.515,31.442,22.3,16.736,3.717,23.452-11.867,23.732-12.532l1.144.477C779.957,5304.535,774.08,5318.238,760.072,5318.238Z" transform="translate(-659.343 -5225.326)" fill="#999"/>
              <path id="Trazado_110818" data-name="Trazado 110818" d="M773.55,5275.485c-18.364,0-33.53-10.571-33.689-10.684l.717-1.013c.163.117,16.544,11.486,35.643,10.379l.075,1.237C775.374,5275.46,774.457,5275.485,773.55,5275.485Z" transform="translate(-657.091 -5229.314)" fill="#999"/>
              <path id="Trazado_110819" data-name="Trazado 110819" d="M773.469,5268.8c-16.474,0-32.031-10.606-32.205-10.727l.7-1.021c.195.134,19.56,13.336,37.622,9.961l.226,1.22A34.646,34.646,0,0,1,773.469,5268.8Z" transform="translate(-656.906 -5230.2)" fill="#999"/>
              <path id="Trazado_110820" data-name="Trazado 110820" d="M746.533,5596.625l-.1-16.044c.708-16.042-2.694-51.329-2.728-51.684l-.867-24.471-1.292-66.266c.016-.317,1.61-26.963,3.89-39.645,2.223-12.366-7.4-25.112-7.5-25.238-.2-.39-12.665-27.548-19.212-47.614-6.4-19.612-16.539-21.984-16.641-22.005l.251-1.213c.445.09,10.921,2.461,17.568,22.833,6.524,20,18.964,47.091,19.09,47.362.341.419,9.984,13.184,7.663,26.095-2.266,12.609-3.856,39.183-3.872,39.451l1.294,66.207.863,24.423c.033.318,3.443,35.691,2.731,51.791l.1,16.012Z" transform="translate(-662.056 -5224.234)" fill="#999"/>
              <path id="Trazado_110821" data-name="Trazado 110821" d="M769.962,5600.152l-1.235-.071c.025-.442,2.508-44.316-3.639-64.241-6.215-20.145-4.358-46.318-4.338-46.579l7.332-60.392c.025-.333,2.761-36.12,1.177-53.118-.509-5.452-1.661-12.22-2.88-19.39-2.62-15.4-5.881-34.578-4.551-51.427l3.285-31.412,1.232.129-3.282,31.4c-1.317,16.682,1.93,35.77,4.538,51.106,1.224,7.19,2.378,13.984,2.891,19.482,1.6,17.1-1.148,52.994-1.177,53.355l-7.333,60.39c-.016.23-1.856,26.178,4.29,46.093C772.485,5555.612,769.988,5599.709,769.962,5600.152Z" transform="translate(-654.381 -5228.035)" fill="#999"/>
              <path id="Trazado_110822" data-name="Trazado 110822" d="M696.552,5396.366,692.766,5384l.5-.223c.33-.146,33.477-14.624,61.041-9.9,27.373,4.688,60.331,9.009,60.662,9.051l2.441.387.115.362c.094.289,2.227,7.1-2.211,11.311l-.223.211-32.75-5.439c-.379-.076-36.118-7.265-47.694-3.9-11.726,3.41-37.265,10.281-37.522,10.351Zm-2.276-11.673,3.113,10.166c3.876-1.045,26.189-7.068,36.92-10.189,11.871-3.449,46.785,3.568,48.264,3.869l32.11,5.333c3.081-3.18,2.116-8.1,1.768-9.457l-1.654-.264c-.313-.04-33.3-4.364-60.694-9.056C728.749,5370.755,698.532,5382.9,694.275,5384.693Z" transform="translate(-663.281 -5214.969)" fill="#999"/>
              <g id="Grupo_56822" data-name="Grupo 56822" transform="translate(33.287 272.797)">
                <path id="Trazado_110823" data-name="Trazado 110823" d="M749.063,5483.609q-2.356,0-4.9-.041c-33.719-.535-47.468-7.743-48.036-8.05l.587-1.092c.138.074,14.106,7.374,47.468,7.9,33.212.51,41.506-4.488,41.586-4.538l.672,1.041C786.124,5479.038,778.719,5483.609,749.063,5483.609Z" transform="translate(-696.126 -5474.426)" fill="#999"/>
                <path id="Trazado_110824" data-name="Trazado 110824" d="M750,5492.881c-1.911,0-3.909-.032-6.006-.1-31.572-1.07-46.569-8.507-46.717-8.583l.561-1.106c.145.075,14.938,7.392,46.2,8.45,31.094,1.051,41.431-6.479,41.533-6.555l.753.984C785.934,5486.266,776.966,5492.881,750,5492.881Z" transform="translate(-695.974 -5473.287)" fill="#999"/>
                <path id="Trazado_110825" data-name="Trazado 110825" d="M743.894,5492.611l-3.357-3.359,2.529-3.467-3.06-3.323.91-.839,3.751,4.072-2.5,3.432,2.608,2.606Z" transform="translate(-690.359 -5473.48)" fill="#999"/>
                <path id="Trazado_110826" data-name="Trazado 110826" d="M748.028,5492.611l-3.357-3.359,2.528-3.467-3.06-3.323.91-.839,3.751,4.072-2.5,3.432,2.608,2.606Z" transform="translate(-689.815 -5473.48)" fill="#999"/>
                <path id="Trazado_110827" data-name="Trazado 110827" d="M752.477,5492.609l-3.356-3.357,2.528-3.467-3.06-3.323.91-.839,3.751,4.072-2.5,3.432,2.607,2.608Z" transform="translate(-689.23 -5473.48)" fill="#999"/>
                <path id="Trazado_110828" data-name="Trazado 110828" d="M756.69,5492.609l-3.356-3.357,2.528-3.467-3.06-3.323.91-.839,3.751,4.072-2.5,3.432,2.607,2.608Z" transform="translate(-688.677 -5473.48)" fill="#999"/>
                <path id="Trazado_110829" data-name="Trazado 110829" d="M760.747,5491.914l-3.356-3.357,2.528-3.467-3.06-3.321.91-.84,3.751,4.07-2.5,3.432,2.607,2.608Z" transform="translate(-688.143 -5473.571)" fill="#999"/>
                <path id="Trazado_110830" data-name="Trazado 110830" d="M721.573,5491.522l-3.036-3.58,2.849-3.078-2.71-3.475.978-.762,3.359,4.3-2.82,3.046,2.326,2.743Z" transform="translate(-693.18 -5473.611)" fill="#999"/>
                <path id="Trazado_110831" data-name="Trazado 110831" d="M725.686,5491.933l-3.036-3.58,2.849-3.078-2.71-3.475.978-.762,3.359,4.305-2.82,3.045,2.326,2.744Z" transform="translate(-692.64 -5473.557)" fill="#999"/>
                <path id="Trazado_110832" data-name="Trazado 110832" d="M730.115,5492.376l-3.036-3.579,2.849-3.079-2.71-3.476.978-.762,3.356,4.305-2.816,3.047,2.326,2.742Z" transform="translate(-692.057 -5473.499)" fill="#999"/>
                <path id="Trazado_110833" data-name="Trazado 110833" d="M708.719,5488.818l-3.036-3.578,2.849-3.08-2.71-3.475.978-.762,3.356,4.3-2.817,3.047,2.326,2.742Z" transform="translate(-694.87 -5473.967)" fill="#999"/>
                <path id="Trazado_110834" data-name="Trazado 110834" d="M704.693,5487.663l-3.036-3.579,2.849-3.079-2.71-3.476.978-.761,3.356,4.3-2.817,3.047,2.326,2.742Z" transform="translate(-695.399 -5474.119)" fill="#999"/>
                <path id="Trazado_110835" data-name="Trazado 110835" d="M701.37,5486.529l-3.036-3.58,2.849-3.079-2.71-3.474.978-.762,3.359,4.3-2.82,3.047,2.326,2.743Z" transform="translate(-695.836 -5474.267)" fill="#999"/>
                <path id="Trazado_110836" data-name="Trazado 110836" d="M712.831,5489.921l-3.036-3.58,2.849-3.078-2.71-3.476.978-.762,3.356,4.3-2.817,3.045,2.326,2.744Z" transform="translate(-694.329 -5473.822)" fill="#999"/>
                <path id="Trazado_110837" data-name="Trazado 110837" d="M717.261,5490.363l-3.038-3.58,2.849-3.078-2.71-3.475.978-.762,3.359,4.3-2.82,3.045,2.327,2.744Z" transform="translate(-693.747 -5473.764)" fill="#999"/>
                <path id="Trazado_110838" data-name="Trazado 110838" d="M734.307,5492.793l-3.036-3.578,2.849-3.08-2.71-3.476.978-.762,3.359,4.3-2.82,3.047,2.326,2.743Z" transform="translate(-691.507 -5473.443)" fill="#999"/>
                <path id="Trazado_110839" data-name="Trazado 110839" d="M738.411,5492.531l-3.038-3.58,2.849-3.08-2.71-3.475.978-.762,3.359,4.3-2.82,3.047,2.328,2.744Z" transform="translate(-690.967 -5473.478)" fill="#999"/>
                <path id="Trazado_110840" data-name="Trazado 110840" d="M772.358,5488.271l-3.112-2.766,2.265-2.762-2.636-2.542.862-.891,3.456,3.336-2.232,2.723,2.221,1.976Z" transform="translate(-686.564 -5473.784)" fill="#999"/>
                <path id="Trazado_110841" data-name="Trazado 110841" d="M769.008,5489.3l-3.112-2.767,2.265-2.762-2.636-2.542.862-.891,3.456,3.336-2.232,2.723,2.221,1.976Z" transform="translate(-687.004 -5473.648)" fill="#999"/>
                <path id="Trazado_110842" data-name="Trazado 110842" d="M765.893,5490.353l-3.428-2.96,2.515-2.975-2.954-2.768.846-.9,3.816,3.571-2.482,2.939,2.5,2.157Z" transform="translate(-687.464 -5473.596)" fill="#999"/>
                <path id="Trazado_110843" data-name="Trazado 110843" d="M775.082,5487.388l-2.747-2.658,2-2.652-2.324-2.442.9-.855,3.051,3.2-1.971,2.616,1.959,1.9Z" transform="translate(-686.152 -5473.854)" fill="#999"/>
              </g>
              <path id="Trazado_110844" data-name="Trazado 110844" d="M718.323,5568.195l-1.24-.022,1.078-63.484,1.94-65.108v-59.246h1.24V5439.6l-1.94,65.119Z" transform="translate(-660.085 -5213.996)" fill="#999"/>
              <path id="Trazado_110845" data-name="Trazado 110845" d="M695.745,5588.813l-1.211-.265c.015-.089.448-3.031,1.4-38.21.927-34.347,11.465-46.035,12.971-47.53l1.222-7.733-28.581-131.915,1.211-.261,28.633,132.14-.019.115-1.308,8.266-.159.147c-.118.108-11.768,11.212-12.729,46.8C696.2,5586.377,695.762,5588.73,695.745,5588.813Z" transform="translate(-664.756 -5216.288)" fill="#999"/>
              <g id="Grupo_56823" data-name="Grupo 56823" transform="translate(15.576 146.611)">
                <rect id="Rectángulo_10469" data-name="Rectángulo 10469" width="1.238" height="1.653" transform="matrix(0.978, -0.211, 0.211, 0.978, 0, 0.261)" fill="#999"/>
                <path id="Trazado_110846" data-name="Trazado 110846" d="M694.879,5583.146l-1.24-.056.144-3.3,1.24.052Zm.273-6.609-1.24-.044.12-3.3,1.239.045Zm.234-6.607-1.24-.039.106-3.3,1.24.039Zm.208-6.611-1.24-.039.1-3.3,1.24.036Zm.193-6.607-1.24-.035.094-3.3,1.24.035Zm.184-6.615-1.24-.02.008-.308q.041-1.534.109-3.016l1.239.058q-.068,1.467-.107,3Zm.3-6.575-1.237-.081q.112-1.7.257-3.31l1.233.11Q696.384,5541.841,696.272,5543.522Zm.591-6.555-1.233-.139q.193-1.693.422-3.293l1.226.174C697.128,5534.762,696.988,5535.851,696.862,5536.967Zm.923-6.506-1.22-.21q.29-1.693.613-3.267l1.213.248Q698.076,5528.787,697.786,5530.461Zm1.322-6.431-1.2-.291q.407-1.686.843-3.221l1.191.339Q699.512,5522.368,699.107,5524.03Zm1.789-6.308-1.174-.39q.557-1.676,1.125-3.14l1.155.45Q701.445,5516.077,700.9,5517.723Zm2.373-6.093-1.127-.517c.481-1.052.983-2.061,1.491-2.995l1.088.59C704.227,5509.621,703.738,5510.6,703.268,5511.63Zm3.125-5.706-1.03-.688a22.49,22.49,0,0,1,2.067-2.7l.914.836A21.3,21.3,0,0,0,706.393,5505.924Zm2.934-5.98-1.223-.194.517-3.265,1.223.193Zm-.621-6.484-.7-3.231,1.211-.261.7,3.231Zm-1.4-6.462-.7-3.231,1.211-.261.7,3.231Zm-1.4-6.463-.7-3.232,1.211-.261.7,3.231Zm-1.4-6.463-.7-3.231,1.211-.261.7,3.231Zm-1.4-6.462-.7-3.23,1.211-.262.7,3.231Zm-1.4-6.46-.7-3.231,1.211-.261.7,3.231Zm-1.4-6.463-.7-3.231,1.211-.261.7,3.231Zm-1.4-6.463-.7-3.231,1.209-.262.7,3.231Zm-1.4-6.462-.7-3.231,1.211-.262.7,3.232Zm-1.4-6.463-.7-3.231,1.211-.261.7,3.231Zm-1.4-6.462-.7-3.231,1.211-.261.7,3.231Zm-1.4-6.46-.7-3.231,1.211-.261.7,3.231Zm-1.4-6.463-.7-3.231,1.211-.261.7,3.231Zm-1.4-6.463-.7-3.231,1.211-.262.7,3.231Zm-1.4-6.462-.7-3.231,1.211-.262.7,3.232Zm-1.4-6.463-.7-3.231,1.211-.261.7,3.231Zm-1.4-6.463-.7-3.231,1.211-.262.7,3.231Zm-1.4-6.46-.7-3.231,1.211-.262.7,3.231Zm-1.4-6.462-.7-3.231,1.211-.261.7,3.231Zm-1.4-6.463-.7-3.231,1.211-.261.7,3.231Z" transform="translate(-680.35 -5362.335)" fill="#999"/>
                <path id="Trazado_110847" data-name="Trazado 110847" d="M693.166,5562.773l-1.214-.258c.007-.034.043-.329.122-1.549l1.237.077C693.251,5561.989,693.2,5562.621,693.166,5562.773Z" transform="translate(-678.964 -5336.864)" fill="#999"/>
              </g>
              <g id="Grupo_56824" data-name="Grupo 56824" transform="translate(18.015 146.607)">
                <rect id="Rectángulo_10470" data-name="Rectángulo 10470" width="1.238" height="1.652" transform="matrix(0.977, -0.212, 0.212, 0.977, 0, 0.262)" fill="#999"/>
                <path id="Trazado_110848" data-name="Trazado 110848" d="M697.036,5583.143l-1.24-.056.144-3.3,1.24.051Zm.273-6.611-1.24-.042.118-3.3,1.24.043Zm.231-6.6-1.24-.039.106-3.3,1.24.039Zm.209-6.611-1.239-.038.1-3.3,1.239.035Zm.192-6.606-1.24-.035.094-3.3,1.24.035Zm.184-6.615-1.24-.019.008-.307q.039-1.537.109-3.019l1.239.058c-.045.979-.081,1.976-.107,3Zm.3-6.575-1.237-.081q.112-1.7.259-3.311l1.232.113C698.585,5541.307,698.5,5542.4,698.425,5543.519Zm.587-6.552-1.23-.143c.129-1.128.27-2.228.422-3.292l1.226.174Q699.209,5535.289,699.012,5536.967Zm.929-6.508-1.221-.21q.29-1.694.613-3.267l1.214.25Q700.231,5528.783,699.941,5530.459Zm1.32-6.431-1.205-.29q.407-1.688.843-3.222l1.191.339Q701.665,5522.365,701.262,5524.028Zm1.79-6.308-1.176-.39q.557-1.676,1.125-3.14l1.156.449Q703.6,5516.075,703.052,5517.72Zm2.37-6.094-1.127-.514c.472-1.037.974-2.045,1.492-3l1.087.59C706.371,5509.633,705.883,5510.617,705.422,5511.626Zm3.126-5.7-1.03-.688a22.5,22.5,0,0,1,2.068-2.695l.913.836A21.78,21.78,0,0,0,708.548,5505.921Zm2.935-5.979-1.223-.193.516-3.267,1.223.193Zm-.621-6.485-.7-3.231,1.21-.262.7,3.231Zm-1.4-6.462-.7-3.231,1.211-.262.7,3.232Zm-1.4-6.463-.7-3.23,1.211-.263.7,3.231Zm-1.4-6.461-.7-3.231,1.211-.262.7,3.231Zm-1.4-6.462-.7-3.231,1.211-.262.7,3.231Zm-1.4-6.462-.7-3.231,1.211-.261.7,3.231Zm-1.4-6.463-.7-3.231,1.211-.261.7,3.231Zm-1.4-6.462-.7-3.231,1.211-.262.7,3.231Zm-1.4-6.463-.7-3.231,1.211-.261.7,3.231Zm-1.4-6.463-.7-3.231,1.211-.262.7,3.231Zm-1.4-6.46-.7-3.231,1.211-.262.7,3.231Zm-1.4-6.462-.7-3.231,1.211-.261.7,3.231Zm-1.4-6.463-.7-3.231,1.211-.261.7,3.231Zm-1.4-6.462-.7-3.231,1.211-.261.7,3.231Zm-1.4-6.463-.7-3.232,1.211-.261.7,3.231Zm-1.4-6.463-.7-3.231,1.211-.261.7,3.231Zm-1.4-6.462-.7-3.229,1.211-.261.7,3.229Zm-1.4-6.46-.7-3.231,1.211-.261.7,3.231Zm-1.4-6.463-.7-3.231,1.211-.261.7,3.231Zm-1.4-6.463-.7-3.231,1.211-.262.7,3.231Z" transform="translate(-682.506 -5362.332)" fill="#999"/>
                <path id="Trazado_110849" data-name="Trazado 110849" d="M695.32,5562.773l-1.211-.265c0-.035.045-.331.121-1.546l1.237.077C695.407,5561.986,695.354,5562.618,695.32,5562.773Z" transform="translate(-681.119 -5336.861)" fill="#999"/>
              </g>
              <path id="Trazado_110850" data-name="Trazado 110850" d="M680.773,5371.412c-7.885,0-14.063-13.308-14.063-30.3s6.178-30.3,14.063-30.3,14.062,13.31,14.062,30.3S688.657,5371.412,680.773,5371.412Zm0-59.357c-7.07,0-12.823,13.038-12.823,29.06s5.752,29.057,12.823,29.057,12.822-13.035,12.822-29.057S687.842,5312.054,680.773,5312.054Z" transform="translate(-666.706 -5223.133)" fill="#999"/>
              <path id="Trazado_110851" data-name="Trazado 110851" d="M804.231,5387.538l6.036-1.582,1.078,1.582,2.155-.5s.287-4.813-1.724-6.251h-1.653l-.36,2.442-5.893,2.587-1.006.863.157.862Z" transform="translate(-648.81 -5213.937)" fill="#999"/>
              <path id="Trazado_110852" data-name="Trazado 110852" d="M713.32,5300.982l.277-6.234,1.828-.562.158-2.208s-4.514-1.7-6.482-.2l-.49,1.58,2.228,1.065.726,6.395.526,1.217.87.1Z" transform="translate(-661.198 -5225.717)" fill="#999"/>
              <path id="Trazado_110853" data-name="Trazado 110853" d="M706.92,5301.5l-2.082-5.883,1.486-1.206-.682-2.106s-4.822.118-6.085,2.244l.138,1.647,2.465.152,3.072,5.655.944.931.846-.23Z" transform="translate(-662.388 -5225.566)" fill="#999"/>
              <path id="Trazado_110854" data-name="Trazado 110854" d="M682.255,5308.431l-2.082-5.882,1.486-1.207-.682-2.106s-4.822.118-6.086,2.243l.139,1.647,2.464.153,3.073,5.655.944.93.846-.23Z" transform="translate(-665.63 -5224.655)" fill="#999"/>
              <path id="Trazado_110855" data-name="Trazado 110855" d="M741.131,5375.632l2.8-3.305-1.078-1.366.575-1.293s3.881,0,4.456,3.736l-1.078.562-1.724-.418-3.377,2.587Z" transform="translate(-656.924 -5215.398)" fill="#999"/>
              <path id="Trazado_110856" data-name="Trazado 110856" d="M742.528,5381.285l2.8,3.307-1.078,1.364.575,1.294s3.881,0,4.456-3.737l-1.077-.561-1.726.417-3.377-2.586Z" transform="translate(-656.74 -5213.937)" fill="#999"/>
              <path id="Trazado_110857" data-name="Trazado 110857" d="M770.263,5380.4l3.845-2,1.093,1.354,1.388-.274s.861-3.783-2.655-5.172l-.786.926.025,1.774-3.272,2.719Z" transform="translate(-653.142 -5214.788)" fill="#999"/>
              <path id="Trazado_110858" data-name="Trazado 110858" d="M769.846,5382.377l4.218.994-.055,1.739,1.23.7s3.122-2.306,1.365-5.654l-1.2.189-1.139,1.361-4.254-.074Z" transform="translate(-653.15 -5214.02)" fill="#999"/>
              <path id="Trazado_110859" data-name="Trazado 110859" d="M697.5,5386.222l-4.218.994.055,1.739-1.231.7s-3.122-2.306-1.363-5.653l1.2.189,1.139,1.36,4.253-.075Z" transform="translate(-663.617 -5213.514)" fill="#999"/>
            </g>
            <g id="Grupo_56826" data-name="Grupo 56826" transform="translate(64.283 65.796)" opacity="0.39">
              <path id="Trazado_110860" data-name="Trazado 110860" d="M766.1,5316.753s1.075-7.322-4.576-9.162c0,0-8.938-3.846-11.348,3.265,0,0,1.663-4.7-2.434-7.476s-7.5,2.032-7.5,2.032,3.261-2.7-.355-6.318-7.029.325-7.029.325,2.343-4.3-.681-6.752-8.159,2.358-8.159,2.358S739.833,5320.007,766.1,5316.753Z" transform="translate(-723.455 -5291.406)" fill="#999"/>
              <path id="Trazado_110861" data-name="Trazado 110861" d="M761.522,5317.673c-23.525,0-37.763-22.041-37.913-22.278a.568.568,0,0,1,.092-.716c.225-.21,5.532-5.11,8.9-2.384a5.234,5.234,0,0,1,1.552,5.5,5.225,5.225,0,0,1,2.393-.724,5.039,5.039,0,0,1,3.808,1.69,5.376,5.376,0,0,1,1.865,4.025c0,.053,0,.1-.009.157a5.163,5.163,0,0,1,5.919.036,6.563,6.563,0,0,1,2.99,5.25,6.051,6.051,0,0,1,2.093-1.533c3.679-1.639,8.405.358,8.606.443,5.985,1.946,4.922,9.684,4.912,9.762a.569.569,0,0,1-.491.48A38.507,38.507,0,0,1,761.522,5317.673Zm4.648-.854h0Zm-41.336-21.629c2.171,3.161,17.291,23.747,40.822,21.118.127-1.534.2-6.669-4.236-8.113-.092-.036-4.522-1.9-7.749-.465a5.365,5.365,0,0,0-2.887,3.375h0l0,.008a.566.566,0,0,1-1.069-.372l.009-.028a5.947,5.947,0,0,0-2.224-6.8c-2.614-1.769-4.921-.051-6.029,1.08a4.569,4.569,0,0,1-.8.919.566.566,0,0,1-.823-.762,7.962,7.962,0,0,1,.75-.9,3.176,3.176,0,0,0,.492-1.531,4.322,4.322,0,0,0-1.535-3.16,3.979,3.979,0,0,0-2.961-1.36,5.181,5.181,0,0,0-3.242,1.655.566.566,0,0,1-.924-.641c.086-.16,2.078-3.924-.539-6.042C729.705,5291.4,726,5294.213,724.834,5295.19Z" transform="translate(-723.521 -5291.472)" fill="#4d4d4d"/>
            </g>
            <path id="Trazado_110862" data-name="Trazado 110862" d="M762.634,5315.748,767.2,5320l-.757,1.758,1.58,1.551s4.219-2.337,4.355-4.807l-.886-1.4-2.255,1.006-5.341-3.59-1.267-.388-.644.6Z" transform="translate(-654.182 -5222.697)" fill="#999"/>
            <path id="Trazado_110863" data-name="Trazado 110863" d="M762.716,5315.645l-2.781,5.585,1.327,1.378-.933,2.008s-4.771-.7-5.767-2.967l.337-1.618,2.465.148,3.737-5.239,1.05-.81.811.331Z" transform="translate(-655.158 -5222.697)" fill="#999"/>
          </g>
          <g id="Grupo_56828" data-name="Grupo 56828" transform="translate(4.833 68.244)" opacity="0.84">
            <path id="Trazado_110864" data-name="Trazado 110864" d="M676.873,5310.7s19.5-3.189,18.8,38.278c-.471,27.809-8.762,33.847-14.716,33.847-4.547,0-15.674-9.226-15.674-9.226s7.506,30.751,13.451,50.14c0,0,5.819,19.117,11.827,36.178,6.214,17.646,9.385,47.706,9.385,47.706l-5.59,6.691,35.407,6.44,2.107-3.286,3.329,3.753,43.5-.893,4.8-91.852s.957-40.433-1.01-60.036-8.6-51.687-8.6-51.687-20.4,1.509-38.807-22.625c0,0-18.71,9.239-37.048,12.052S676.873,5310.7,676.873,5310.7Z" transform="translate(-664.72 -5293.57)" fill="#ccc"/>
            <path id="Trazado_110865" data-name="Trazado 110865" d="M735.268,5521.857a.562.562,0,0,1-.423-.19l-2.833-3.193-1.7,2.657a.558.558,0,0,1-.578.25l-35.407-6.439a.563.563,0,0,1-.43-.364.57.57,0,0,1,.1-.556l5.435-6.508c-.315-2.867-3.5-30.783-9.329-47.338-5.943-16.878-11.777-36.011-11.836-36.2-5.879-19.181-13.383-49.863-13.458-50.171a.566.566,0,0,1,.911-.57c.11.091,11.02,9.1,15.312,9.1,4.086,0,13.642-3.243,14.151-33.291.365-21.574-4.831-30.687-9.257-34.532a11.88,11.88,0,0,0-8.89-3.178.56.56,0,0,1-.62-.363.567.567,0,0,1,.238-.679c.12-.071,3.127-1.8,21.365-4.594,18.042-2.766,36.7-11.907,36.883-12a.564.564,0,0,1,.7.166c17.983,23.581,38.111,22.433,38.316,22.4a.577.577,0,0,1,.594.45c.068.321,6.667,32.339,8.615,51.745s1.024,59.7,1.014,60.1l-4.8,91.869a.566.566,0,0,1-.553.535l-43.5.892Zm-3.33-4.884a.562.562,0,0,1,.423.19l3.156,3.556,42.712-.875L783,5428.518c.009-.388.932-40.606-1.008-59.949-1.815-18.071-7.682-47.145-8.5-51.164-3.259.047-21.8-.835-38.518-22.494-2.881,1.374-20.088,9.34-36.792,11.9a168.548,168.548,0,0,0-18.237,3.521,13.97,13.97,0,0,1,6.682,3.29c4.621,4,10.052,13.386,9.678,35.436-.527,31.05-10.862,34.4-15.282,34.4-3.79,0-11.606-5.845-14.723-8.3,1.634,6.607,7.95,31.874,13.042,48.486.058.191,5.885,19.3,11.82,36.156,6.164,17.5,9.381,47.532,9.414,47.833a.565.565,0,0,1-.129.422L695.481,5514l34.079,6.2,1.9-2.967a.564.564,0,0,1,.432-.258Z" transform="translate(-664.786 -5293.635)" fill="#4d4d4d"/>
          </g>
        </g>
        <path id="Trazado_110866" data-name="Trazado 110866" d="M716.365,5309.456l-6.143,1.1-.949-1.661-2.189.331s-.667,4.776,1.224,6.369l1.647.132.552-2.408,6.078-2.111,1.072-.78-.088-.872Z" transform="translate(-654.408 -5223.386)" fill="#999"/>
        <path id="Trazado_110867" data-name="Trazado 110867" d="M722.852,5323.963l-6.143,1.1-.949-1.661-2.189.33s-.668,4.777,1.224,6.369l1.647.132.552-2.408,6.079-2.113,1.07-.779-.088-.873Z" transform="translate(-653.555 -5221.48)" fill="#999"/>
        <path id="Trazado_110868" data-name="Trazado 110868" d="M731.277,5347.6l-6.143,1.1-.949-1.661-2.188.33s-.669,4.777,1.223,6.369l1.648.131.551-2.408,6.079-2.111,1.071-.781-.088-.871Z" transform="translate(-652.448 -5218.373)" fill="#999"/>
        <path id="Trazado_110869" data-name="Trazado 110869" d="M744,5374.549l-6.143,1.1-.949-1.661-2.189.331s-.668,4.777,1.224,6.369l1.647.131.552-2.408,6.079-2.111,1.07-.781-.088-.872Z" transform="translate(-650.776 -5214.83)" fill="#999"/>
        <path id="Trazado_110870" data-name="Trazado 110870" d="M742.805,5398.17l-6.14-1.107-.312-1.887-2.168-.451s-2.288,4.245-1.068,6.4l1.5.7,1.355-2.065,6.433.135,1.276-.357.22-.849Z" transform="translate(-651.018 -5212.105)" fill="#999"/>
        <path id="Trazado_110871" data-name="Trazado 110871" d="M742.474,5421.984l-6.141-1.108-.311-1.887-2.168-.453s-2.288,4.247-1.068,6.4l1.5.7,1.354-2.065,6.435.135,1.275-.357.221-.849Z" transform="translate(-651.062 -5208.975)" fill="#999"/>
        <path id="Trazado_110872" data-name="Trazado 110872" d="M741.755,5445.8l-6.141-1.108-.311-1.888-2.168-.451s-2.288,4.246-1.068,6.4l1.5.7,1.354-2.065,6.435.135,1.275-.358.221-.848Z" transform="translate(-651.156 -5205.845)" fill="#999"/>
        <path id="Trazado_110873" data-name="Trazado 110873" d="M742.805,5473.388l-6.14-1.107-.312-1.889-2.168-.451s-2.288,4.246-1.068,6.4l1.5.7,1.355-2.065,6.433.135,1.276-.358.22-.849Z" transform="translate(-651.018 -5202.218)" fill="#999"/>
        <path id="Trazado_110874" data-name="Trazado 110874" d="M710.5,5475.811l-6.234-.284-.559-1.831-2.208-.159s-1.705,4.511-.21,6.482l1.578.491,1.069-2.228,6.4-.718,1.216-.525.106-.87Z" transform="translate(-655.235 -5201.745)" fill="#999"/>
        <path id="Trazado_110875" data-name="Trazado 110875" d="M705.069,5452.048l-6.233-.286-.559-1.829-2.209-.16s-1.705,4.512-.21,6.481l1.577.492,1.069-2.227,6.4-.72,1.216-.523.106-.87Z" transform="translate(-655.949 -5204.869)" fill="#999"/>
        <path id="Trazado_110876" data-name="Trazado 110876" d="M700.513,5425.03l-6.233-.284-.56-1.83-2.207-.161s-1.705,4.513-.212,6.482l1.578.491,1.069-2.225,6.395-.72,1.217-.524.105-.87Z" transform="translate(-656.548 -5208.42)" fill="#999"/>
        <path id="Trazado_110877" data-name="Trazado 110877" d="M694.718,5403.728l-6.233-.284-.559-1.831-2.209-.16s-1.705,4.511-.21,6.482l1.577.491,1.069-2.227,6.4-.718,1.216-.525.106-.87Z" transform="translate(-657.31 -5211.22)" fill="#999"/>
        <path id="Trazado_110878" data-name="Trazado 110878" d="M688.848,5376.2l-6.233-.284-.56-1.831-2.207-.16s-1.705,4.511-.212,6.482l1.578.491,1.069-2.227,6.395-.719,1.217-.524.105-.871Z" transform="translate(-658.081 -5214.838)" fill="#999"/>
      </g>
    </g>
  </g>
</svg>
