<svg xmlns="http://www.w3.org/2000/svg" width="252" height="321.361" viewBox="0 0 252 321.361">
  <g id="Grupo_56860" data-name="Grupo 56860" transform="translate(-405 -1279)">
    <rect id="Rectángulo_10476" data-name="Rectángulo 10476" width="252" height="321.361" rx="23.352" transform="translate(405 1279)" fill="#fff"/>
    <path id="Trazado_110948" data-name="Trazado 110948" d="M191.493,6142.152a.577.577,0,0,1-.115-.012.551.551,0,0,1-.422-.652c0-.006.237-1.363-.574-5.6-.836-4.357-5.533-13.879-5.58-13.975a.549.549,0,0,1,.984-.487c.2.4,4.81,9.752,5.674,14.256.854,4.463.6,5.888.57,6.036A.549.549,0,0,1,191.493,6142.152Z" transform="translate(249.182 -4692.922)" fill="#999"/>
    <g id="Grupo_56859" data-name="Grupo 56859">
      <path id="Trazado_110944" data-name="Trazado 110944" d="M249.8,6172.374a.562.562,0,0,1-.205-.04,37.04,37.04,0,0,0-11.541-2.154c-4.556-.132-5.726.187-5.995.3a.538.538,0,0,1-.284.24.545.545,0,0,1-.7-.321l0,0-5.436-14.783a.553.553,0,0,1,.159-.606,4.157,4.157,0,0,0,.919-1.045c-.416-.824-2.815-5.538-2.815-5.538l-4.359-10.724c-.048-.144-3.378-10.482-6.41-13.86a64.91,64.91,0,0,0-8.567-7.358h0a18.136,18.136,0,0,0-10.6-1.838c-5.293.915-6.162,2.662-6.169,2.68a.75.75,0,0,1-.059.1,1.316,1.316,0,0,0,.29,1.784c.758.716,4.252.637,6.493.354.124-.05,5.507-1.8,9.414-1.115a.547.547,0,1,1-.189,1.079c-3.633-.629-8.931,1.086-8.985,1.1-1.089.149-6.083.706-7.487-.622a2.425,2.425,0,0,1-.46-3.176c.215-.439,1.44-2.317,6.966-3.272a18.992,18.992,0,0,1,11.377,2,64.43,64.43,0,0,1,8.8,7.55c3.188,3.55,6.484,13.784,6.623,14.219l4.325,10.642h0s2.606,5.113,2.844,5.589c.311.621-.284,1.405-.944,2.024l5.078,13.809c.773-.224,2.444-.413,6.215-.3A37.5,37.5,0,0,1,250,6171.316a.549.549,0,0,1-.206,1.057Zm-17.7-2.361v0l0,.011Z" transform="translate(249.343 -4693.676)" fill="#999"/>
      <path id="Trazado_110945" data-name="Trazado 110945" d="M203.99,6161.015a.549.549,0,0,1-.433-.887c.254-.325,6.381-8.012,19.222-10.216a.548.548,0,1,1,.186,1.081c-12.428,2.133-18.484,9.734-18.543,9.811A.549.549,0,0,1,203.99,6161.015Z" transform="translate(250.991 -4690.137)" fill="#999"/>
      <path id="Trazado_110946" data-name="Trazado 110946" d="M216.272,6168.263a.549.549,0,0,1-.479-.28c-1.255-2.24-7.5-11.214-7.557-11.3a.548.548,0,1,1,.9-.625c.258.37,6.333,9.108,7.615,11.394a.548.548,0,0,1-.478.816Z" transform="translate(251.446 -4689.566)" fill="#999"/>
      <path id="Trazado_110947" data-name="Trazado 110947" d="M207.794,6173.421c-.077,0-.152,0-.227-.008-.152-.012-.3-.01-.446-.009-1.625.021-2.917-.336-5.705-4.928-3.225-5.311-12.7-26.717-13.1-27.625l-5.916-13.933c-.061-.1-2.18-3.8-1.355-6.388.784-2.446,4.416-7.214,4.569-7.416l15-16.533c.225-.21,19.027-17.486,21.529-26.108a.549.549,0,0,1,1.054.307c-2.588,8.915-21.023,25.857-21.806,26.574l-14.938,16.463c-.007.013-3.64,4.78-4.365,7.047-.68,2.123,1.268,5.532,1.287,5.567l5.943,13.984c.1.214,9.842,22.242,13.031,27.491,2.682,4.419,3.752,4.393,4.759,4.4.179,0,.355,0,.533.011a7.173,7.173,0,0,0,2.959-.8l3.538-1.673a.548.548,0,1,1,.469.991l-3.528,1.669A8.981,8.981,0,0,1,207.794,6173.421Z" transform="translate(248.805 -4697.863)" fill="#999"/>
      <path id="Trazado_110949" data-name="Trazado 110949" d="M209.38,6088.627a.536.536,0,0,1-.264-.068.548.548,0,0,1-.215-.745l6.581-11.92c.418-.823,10.52-20.567,16.852-25.075l4.76-3.523a.582.582,0,0,1,.12-.067c.169-.068,16.9-6.874,19.149-7.906s9.894-5.37,9.971-5.414l3.409-2.178a.548.548,0,1,1,.591.922l-3.433,2.193c-.341.2-7.8,4.426-10.082,5.474-2.225,1.02-17.825,7.369-19.127,7.9l-4.713,3.487c-6.122,4.36-16.425,24.5-16.528,24.7l-6.589,11.937A.546.546,0,0,1,209.38,6088.627Z" transform="translate(251.513 -4701.582)" fill="#999"/>
      <path id="Trazado_110950" data-name="Trazado 110950" d="M211.127,6123.842a3.2,3.2,0,0,1-2.659-1.614.548.548,0,0,1,.954-.541,1.977,1.977,0,0,0,2.351.943c1.409-.48,2.579-2.689,2.911-3.5l4.844-8.74c.28-.5,6.88-12.3,11.032-15.294a.548.548,0,0,1,.641.889c-3.955,2.852-10.646,14.819-10.714,14.938l-4.816,8.682c-.029.08-1.379,3.326-3.545,4.066A3.107,3.107,0,0,1,211.127,6123.842Z" transform="translate(251.471 -4695.451)" fill="#999"/>
      <path id="Trazado_110951" data-name="Trazado 110951" d="M222.728,6107.845a.548.548,0,0,1-.3-1.01c.292-.187,7.2-4.58,11.31-6.109a19.4,19.4,0,0,0,5.839-3.247,64.466,64.466,0,0,0,4.486-25.356.547.547,0,0,1,.53-.566h.019a.548.548,0,0,1,.548.53,65.391,65.391,0,0,1-4.626,25.944.527.527,0,0,1-.122.173,19.46,19.46,0,0,1-6.292,3.55c-4,1.487-11.031,5.96-11.1,6A.538.538,0,0,1,222.728,6107.845Z" transform="translate(252.805 -4697.719)" fill="#999"/>
      <path id="Trazado_110952" data-name="Trazado 110952" d="M239.248,6185.849a.624.624,0,0,1-.128-.016c-2.486-.6-5.494-3.2-5.621-3.315a.548.548,0,1,1,.722-.826c.029.025,2.932,2.54,5.156,3.074a.549.549,0,0,1-.128,1.083Z" transform="translate(253.882 -4687.074)" fill="#999"/>
      <path id="Trazado_110953" data-name="Trazado 110953" d="M239.453,6190.463a.534.534,0,0,1-.188-.033.547.547,0,0,1-.328-.7c.254-.7,6.266-17.167,8.9-22.125,2.3-4.323,2.73-6.1,2.792-6.4-.042-.526-.321-3.918-.775-6.974l-2.575-17.165-1.569-7.915a17.328,17.328,0,0,0-1.837-4.72l-.386-.519c-1.567-2.1-5.241-7.021-5.511-11.212-.284-4.408-.013-16.009,0-16.5a.538.538,0,0,1,.562-.535.548.548,0,0,1,.535.562c0,.12-.283,12.043,0,16.4.25,3.866,3.786,8.6,5.3,10.626l.394.532a18.041,18.041,0,0,1,2.021,5.131l1.578,7.958,2.579,17.194c.5,3.343.789,7.083.791,7.12a.555.555,0,0,1,0,.113c-.01.071-.258,1.8-2.921,6.814-2.6,4.893-8.776,21.815-8.839,21.984A.546.546,0,0,1,239.453,6190.463Z" transform="translate(254.321 -4695.387)" fill="#999"/>
      <path id="Trazado_110954" data-name="Trazado 110954" d="M241.9,6087.965a.547.547,0,0,1-.485-.8c2.777-5.233,10.577-11.808,10.909-12.085a.548.548,0,1,1,.7.84c-.079.066-7.967,6.715-10.644,11.76A.548.548,0,0,1,241.9,6087.965Z" transform="translate(254.66 -4697.391)" fill="#999"/>
      <path id="Trazado_110955" data-name="Trazado 110955" d="M241.2,6089.021a141.009,141.009,0,0,0-3.917-22.075,66.053,66.053,0,0,1-2.379-19.927l1.095.083a64.931,64.931,0,0,0,2.342,19.557,142.07,142.07,0,0,1,3.952,22.271Z" transform="translate(254.031 -4700.094)" fill="#999"/>
      <path id="Trazado_110956" data-name="Trazado 110956" d="M249.469,6150l-1.092-.085a130.28,130.28,0,0,1,11.333-42.433l.984.489A129.044,129.044,0,0,0,249.469,6150Z" transform="translate(255.34 -4694.242)" fill="#999"/>
      <path id="Trazado_110957" data-name="Trazado 110957" d="M281.3,6160.649c-19.485,0-30.925-5.042-31.043-5.095l.45-1c.123.053,12.543,5.519,33.617,4.958a148.219,148.219,0,0,0,36.662-5.411l.332,1.046a149.36,149.36,0,0,1-36.965,5.461Q282.8,6160.65,281.3,6160.649Z" transform="translate(255.522 -4689.73)" fill="#999"/>
      <path id="Trazado_110958" data-name="Trazado 110958" d="M336.027,6270.046l-1.089-.13c.012-.1,1.125-9.886,0-26.936-1.129-17.087-3.264-31-3.285-31.141l-2-11c-1.127-11.677-7.752-24.9-7.818-25.03l-6.714-12.213a.549.549,0,0,1-.068-.265v-.882l1.289-17.254c.026-.16,1.872-10.252,2.436-14.2a16.023,16.023,0,0,1,3.4-8.268c1.353-1.758,3.465-8.765,3.487-8.835.021-.095,2.906-12.465-.687-20.064-3.721-7.873-4.594-20-4.629-20.513l1.095-.075c.009.123.895,12.436,4.526,20.119,3.759,7.95.877,20.3.753,20.817-.1.327-2.2,7.3-3.675,9.221a15.009,15.009,0,0,0-3.182,7.754c-.568,3.971-2.417,14.083-2.436,14.185l-1.28,17.156v.7L322.8,6175.3c.077.151,6.793,13.55,7.935,25.391l2,10.969c.024.154,2.166,14.113,3.3,31.249C337.165,6260.07,336.039,6269.948,336.027,6270.046Z" transform="translate(261.792 -4697.557)" fill="#999"/>
      <path id="Trazado_110959" data-name="Trazado 110959" d="M317.159,6146.369c-2.6-13.366-13.7-38.817-13.806-39.073l1-.439c.112.256,11.261,25.818,13.879,39.3Z" transform="translate(260.66 -4694.305)" fill="#999"/>
      <path id="Trazado_110960" data-name="Trazado 110960" d="M322.383,6083.972l-1.052-.314c.022-.068,2.093-7.053,4.28-18.826a78.713,78.713,0,0,0,1.423-19.8l1.093-.106a80.077,80.077,0,0,1-1.439,20.109C324.491,6076.869,322.4,6083.9,322.383,6083.972Z" transform="translate(262.4 -4700.297)" fill="#999"/>
      <path id="Trazado_110961" data-name="Trazado 110961" d="M281.452,6049.79c-15.338,0-18.079-10.939-18.107-11.058l1.068-.249c.111.468,2.906,11.46,19.808,10.094,16.863-1.372,18.591-7.879,18.608-7.944a.56.56,0,0,1,.157-.278,1.435,1.435,0,0,0,.433-.92.966.966,0,0,0-.409-.693,6.244,6.244,0,0,0-1.156-.708,4.776,4.776,0,0,1-3.04-4.076l-.129-.986c-.446-3.35-1.055-7.939-.655-10.542a20.8,20.8,0,0,1,1.012-4.215,3.524,3.524,0,0,1,1.18-2.106,2.065,2.065,0,0,1,1.583-.36c1.753.28,5.935.708,5.979.711a.527.527,0,0,1,.139.034c.609.231,2.394.713,3.32.18a13.821,13.821,0,0,0,3.19-3.413c.1-.328.554-1.343,2.531-5.3l.981.491c-1.12,2.239-2.363,4.788-2.461,5.1l-.007,0a13.13,13.13,0,0,1-3.684,4.071c-1.451.84-3.7.1-4.192-.078-.576-.06-4.292-.444-5.97-.711a.966.966,0,0,0-.762.16,2.541,2.541,0,0,0-.755,1.454.541.541,0,0,1-.036.13,19.308,19.308,0,0,0-.965,4.021c-.377,2.446.22,6.945.658,10.229l.13.989a3.679,3.679,0,0,0,2.46,3.245,7.2,7.2,0,0,1,1.354.841,2.017,2.017,0,0,1,.8,1.5,2.442,2.442,0,0,1-.66,1.626c-.349,1.116-3.019,7.293-19.546,8.636Q282.813,6049.791,281.452,6049.79Z" transform="translate(256.788 -4703.873)" fill="#999"/>
      <path id="Trazado_110962" data-name="Trazado 110962" d="M297.778,6033.682a17.422,17.422,0,0,1,3.576,0c.716.239,8.155,4.817,8.155,4.817l14.02,6.581s7.511,1.216,11.015,3.791,7.011,5.508,8.512,7.868a36.121,36.121,0,0,1,2.861,6.581l2.432,11.659.787,15.021.358,13.663v28.4s1.788,7.082,1.859,11.3.644,20.314.644,20.314,0,23.176-.358,34.62.071,13.09.071,13.09a3.807,3.807,0,0,1-3.29,4.149,55.531,55.531,0,0,1-2.36,13.232,119.359,119.359,0,0,0-3.362,14.021s-1,7.3-4.649,7.51l-.35,23.676a2.474,2.474,0,0,0,1.351-1.431c.286-1,1.86-12.231,1.288-13.947s-1.574-3.648-.787-4.15,4.578.859,6.724-5.292l2-3.792s2.146-1.788-.573-9.155c0,0-1.288-5.079-.286-8.012s2.433-8.726,2.433-8.726a11.838,11.838,0,0,0,3.719-3.076c1.43-1.931,2.289-3.934,2.36-8.44s.5-34.978.5-34.978v-12.445s-.859-9.371-2.575-12.3-.358-7.939-.358-7.939a9.206,9.206,0,0,0,.93-4.221c.143-3-.43-18.239-.43-18.239l-3.147-30.9-2.218-21.28.429-6.9s.716-5.722-4.219-8.8-9.3-6.08-13.52-6.866a76.094,76.094,0,0,1-9.871-2.861l-9.656-4.363-7.009-3.219a17.075,17.075,0,0,0-5.364-.573c-2.218.286-2,.573-2,.573Z" transform="translate(260.085 -4701.547)" fill="#999"/>
      <g id="Grupo_56843" data-name="Grupo 56843" transform="translate(504.89 1498.867)">
        <path id="Trazado_110963" data-name="Trazado 110963" d="M249.955,6185.8a22.347,22.347,0,0,1,3.7-.25,5.689,5.689,0,0,1,3.7.986,3.419,3.419,0,0,1,1.291,2.78,3.739,3.739,0,0,1-1.111,2.87,5.694,5.694,0,0,1-3.929,1.275,4.62,4.62,0,0,1-.933-.073v4.342h-2.709Zm2.709,5.49a4.078,4.078,0,0,0,.915.072c1.453,0,2.35-.736,2.35-1.957,0-1.11-.772-1.775-2.153-1.775a4.793,4.793,0,0,0-1.112.09Z" transform="translate(-249.398 -6185.554)"/>
        <path id="Trazado_110964" data-name="Trazado 110964" d="M262.2,6185.635v12.093h-2.727v-12.093Z" transform="translate(-248.477 -6185.546)"/>
        <path id="Trazado_110965" data-name="Trazado 110965" d="M264.119,6197.728v-12.093h3.194l2.512,4.433a38.122,38.122,0,0,1,1.974,4.144h.036a49.651,49.651,0,0,1-.216-5.059v-3.518h2.512v12.093h-2.87l-2.583-4.665a42.5,42.5,0,0,1-2.1-4.27h-.072c.09,1.614.126,3.319.126,5.292v3.642Z" transform="translate(-248.027 -6185.546)"/>
        <path id="Trazado_110966" data-name="Trazado 110966" d="M274.72,6196.255l5.759-8.306v-.054h-5.238v-2.261h8.773v1.579l-5.634,8.181v.073H284.1v2.26H274.72Z" transform="translate(-247.001 -6185.546)"/>
        <path id="Trazado_110967" data-name="Trazado 110967" d="M287.853,6194.623l-.843,3.1h-2.834l3.7-12.093h3.57l3.768,12.093h-2.943l-.933-3.1Zm3.068-2.044-.754-2.565c-.2-.717-.412-1.633-.592-2.333h-.054c-.16.717-.359,1.632-.537,2.333l-.736,2.565Z" transform="translate(-246.086 -6185.546)"/>
        <path id="Trazado_110968" data-name="Trazado 110968" d="M301.888,6194.623l-.844,3.1h-2.834l3.7-12.093h3.571l3.767,12.093H306.3l-.932-3.1Zm3.068-2.044-.755-2.565c-.2-.717-.412-1.633-.591-2.333h-.055c-.161.717-.359,1.632-.537,2.333l-.736,2.565Z" transform="translate(-244.728 -6185.546)"/>
        <path id="Trazado_110969" data-name="Trazado 110969" d="M309.757,6185.635h2.727v9.8h4.808v2.3h-7.535Z" transform="translate(-243.61 -6185.546)"/>
        <path id="Trazado_110970" data-name="Trazado 110970" d="M258.866,6217.031a8.012,8.012,0,0,1-3.085.521c-4.181,0-6.334-2.621-6.334-6.064,0-4.108,2.943-6.387,6.6-6.387a7.507,7.507,0,0,1,2.979.521l-.575,2.171a5.749,5.749,0,0,0-2.3-.45,3.967,3.967,0,0,0,.018,7.93,6.513,6.513,0,0,0,2.3-.395Z" transform="translate(-249.447 -6183.663)"/>
        <path id="Trazado_110971" data-name="Trazado 110971" d="M264.377,6217.571c-3.57,0-5.687-2.709-5.687-6.155,0-3.623,2.333-6.333,5.884-6.333,3.715,0,5.741,2.78,5.741,6.118,0,3.982-2.387,6.37-5.919,6.37Zm.144-2.171c1.848,0,2.906-1.741,2.906-4.108,0-2.17-1.022-4.038-2.906-4.038s-2.943,1.831-2.943,4.091c0,2.278,1.095,4.055,2.924,4.055Z" transform="translate(-248.553 -6183.664)"/>
        <path id="Trazado_110972" data-name="Trazado 110972" d="M271.056,6214.556a6.919,6.919,0,0,0,3.033.753c1.255,0,1.919-.521,1.919-1.31,0-.753-.575-1.183-2.027-1.687-2.009-.718-3.337-1.829-3.337-3.588,0-2.063,1.741-3.624,4.575-3.624a7.083,7.083,0,0,1,3.085.609l-.609,2.189a5.669,5.669,0,0,0-2.512-.574c-1.185,0-1.759.557-1.759,1.167,0,.771.665,1.112,2.243,1.7,2.134.789,3.121,1.9,3.121,3.606,0,2.027-1.542,3.75-4.862,3.75a7.881,7.881,0,0,1-3.426-.754Z" transform="translate(-247.41 -6183.663)"/>
        <path id="Trazado_110973" data-name="Trazado 110973" d="M282.19,6207.559h-3.266v-2.294h9.294v2.294h-3.3v9.8H282.19Z" transform="translate(-246.594 -6183.647)"/>
        <path id="Trazado_110974" data-name="Trazado 110974" d="M290.421,6214.252l-.843,3.1h-2.834l3.7-12.092h3.57l3.769,12.092h-2.943l-.932-3.1Zm3.069-2.044-.755-2.565c-.2-.718-.412-1.634-.592-2.333h-.054c-.16.717-.359,1.633-.537,2.333l-.736,2.565Z" transform="translate(-245.838 -6183.647)"/>
        <path id="Trazado_110975" data-name="Trazado 110975" d="M298.276,6205.453a21.919,21.919,0,0,1,3.676-.271,7.885,7.885,0,0,1,4.969,1.292,5.326,5.326,0,0,1,2.046,4.558,6.181,6.181,0,0,1-1.992,4.9,8.736,8.736,0,0,1-5.6,1.561,23.431,23.431,0,0,1-3.1-.179ZM301,6215.3a5.126,5.126,0,0,0,.95.054c2.5.019,4.127-1.346,4.127-4.234a3.5,3.5,0,0,0-3.84-3.839,5.824,5.824,0,0,0-1.237.107Z" transform="translate(-244.722 -6183.655)"/>
        <path id="Trazado_110976" data-name="Trazado 110976" d="M314.84,6217.571c-3.57,0-5.687-2.709-5.687-6.155,0-3.623,2.332-6.333,5.884-6.333,3.714,0,5.741,2.78,5.741,6.118,0,3.982-2.387,6.37-5.919,6.37Zm.144-2.171c1.848,0,2.906-1.741,2.906-4.108,0-2.17-1.022-4.038-2.906-4.038s-2.943,1.831-2.943,4.091c0,2.278,1.095,4.055,2.924,4.055Z" transform="translate(-243.669 -6183.664)"/>
      </g>
    </g>
  </g>
</svg>
