<svg xmlns="http://www.w3.org/2000/svg" width="546.522" height="423.652" viewBox="0 0 546.522 423.652">
  <g id="Grupo_57747" data-name="Grupo 57747" transform="translate(-368 -10627.5)">
    <g id="Grupo_57011" data-name="Grupo 57011" transform="translate(-190.985 1983.108)">
      <rect id="Rectángulo_10549" data-name="Rectángulo 10549" width="253.87" height="344.472" rx="20.348" transform="translate(558.985 8644.392)" fill="#fff"/>
      <g id="Grupo_56972" data-name="Grupo 56972" transform="translate(265.922 8661.003)">
        <path id="Trazado_111645" data-name="Trazado 111645" d="M547.078,8708.765a26.186,26.186,0,0,1-5.212-.476l.2-.885c.085.02,8.521,1.807,16.278-2.012a81.892,81.892,0,0,0,13.115-7.982l6.235-2.894.379.824-6.143,2.837h0a81.315,81.315,0,0,1-13.185,8.027A26.573,26.573,0,0,1,547.078,8708.765Z" transform="translate(-200.541 -8646.649)" fill="#999"/>
        <path id="Trazado_111646" data-name="Trazado 111646" d="M597.042,8766.219l-6.456-8.771a145.131,145.131,0,0,1-15.814-31.78c-6.417-18.311-5.548-28.912-5.537-29.017l.9.081c-.008.1-.853,10.535,5.49,28.636a144.117,144.117,0,0,0,15.7,31.55l5.817,7.906a74.651,74.651,0,0,0,12.929-20.269,302.451,302.451,0,0,0,11.161-30.021,68.283,68.283,0,0,0,2.506-16.109h.906a69.2,69.2,0,0,1-2.536,16.34,303.9,303.9,0,0,1-11.206,30.151,74.114,74.114,0,0,1-13.483,20.932Z" transform="translate(-194.867 -8646.207)" fill="#999"/>
        <path id="Trazado_111647" data-name="Trazado 111647" d="M558.433,8839.37l-.863-.272c.729-2.292,3.431-5.148,4.107-5.838l-.72-8.929c-.016-.125-1.684-14.237-2-19.715a45.657,45.657,0,0,0-1.947-10.346c-.483-.6-3.623-4.806-5.5-14.1a34.947,34.947,0,0,1,1.5-18.432c.2-.645,5.282-16.761,8.207-22.3,2.851-5.4,2.369-21.145,2.363-21.3l.63-17.254.906.034-.63,17.221c.021.626.5,16.116-2.468,21.723-2.887,5.467-8.106,22.021-8.159,22.188a34.027,34.027,0,0,0-1.459,17.941c1.943,9.616,5.331,13.724,5.363,13.764l.085.148a46.589,46.589,0,0,1,2.017,10.658c.312,5.45,1.976,19.535,1.993,19.677l.755,9.362-.15.149C562.43,8833.784,559.181,8837.016,558.433,8839.37Z" transform="translate(-198.667 -8645.327)" fill="#999"/>
        <path id="Trazado_111648" data-name="Trazado 111648" d="M551.87,8941.356a7.29,7.29,0,0,1-3-1.249l-.217-.142.085-2.008a.721.721,0,0,1-.38.222,3.331,3.331,0,0,1-2.287-.384l.5-.757a2.437,2.437,0,0,0,1.625.249c.318-.257.6-2.165.761-4.411l.129-3.039.906.023c-.017,1.162-.059,2.4-.151,3.553l-.259,6.071a5.433,5.433,0,0,0,2.367.958c.337-.185,1.149-2.08,1.758-4.145l.122-9.59,3.331,5c1.6,2.174,4.666,5.4,6.03,4.681,1.7-.891,1.071-3.851.947-4.368l-2.781-3.784-7.864-9.751.683-.591,9.661,10.4c1.867,1.346,5.423,3.422,6.731,3.035a.553.553,0,0,0,.389-.366c.828-2.211-2.269-5.151-2.3-5.182l-6.676-7.269-4.971-7.52,1.805,1.161c.115.072,1.208.684,2.47-.664,1.129-1.2.32-4-.087-4.976a75.363,75.363,0,0,0-3.8-7.2c-.686-.667-1.782-4.913-2.1-6.2l-.115-.461.269-.053a13.444,13.444,0,0,0-.06-3.963,13.914,13.914,0,0,0-2.833-6.994,72.056,72.056,0,0,0-5.617-7.193c-1.368-1.141-1.073-6.727-1-7.834l2.629-17.992,3.994-19.35c-.011-.051-.222-14.8-.621-16.94-.438-2.368-.009-4.728,1-5.486.426-.321,1-2.711,1.295-4.743l2.1-24.966.9.075-2.1,24.991c-.157,1.105-.731,4.677-1.651,5.366-.624.47-1.048,2.475-.655,4.6.411,2.216.618,16.584.627,17.2l-4,19.42-2.62,17.93c-.164,2.529-.065,6.421.682,7.041,1.289,1.077,5.567,7.077,5.748,7.332a14.566,14.566,0,0,1,3.021,7.464c.291,2.965.159,4.114-.058,4.574a27.288,27.288,0,0,0,1.8,5.541c.669.653,3.444,6.345,3.994,7.48.08.188,1.679,4.094-.077,5.968a3.214,3.214,0,0,1-2.359,1.141l3.1,4.7,6.608,7.189c.122.113,3.543,3.364,2.506,6.137a1.456,1.456,0,0,1-.978.914c-2.154.658-7.039-2.828-7.589-3.227l-1.069-1.15,2.821,3.889c.047.169,1.12,4.178-1.38,5.486-2.478,1.3-6.717-4.319-7.192-4.964l-1.721-2.58-.1,6.85c-.5,1.7-1.477,4.59-2.426,4.828A1.2,1.2,0,0,1,551.87,8941.356Z" transform="translate(-199.712 -8629.496)" fill="#999"/>
        <path id="Trazado_111649" data-name="Trazado 111649" d="M599.767,8818.326c-3.7,0-8.421-.018-14.274-.07-17.711-.156-25.136-6.459-25.443-6.727l.594-.684c.074.063,7.518,6.352,24.856,6.5,17.54.158,24.908,0,24.981,0,.158-.023,21.035-2.918,27.594-7.068l.484.764c-6.726,4.26-27.143,7.09-28.009,7.207C610.469,8818.256,607.16,8818.326,599.767,8818.326Z" transform="translate(-196.765 -8622.612)" fill="#999"/>
        <path id="Trazado_111650" data-name="Trazado 111650" d="M576.53,8787.645l-.807-.413c.082-.158,8.286-16.016,18.435-22.387l.481.768C584.7,8771.851,576.609,8787.487,576.53,8787.645Z" transform="translate(-193.511 -8632.047)" fill="#999"/>
        <path id="Trazado_111651" data-name="Trazado 111651" d="M595.4,8831.056l-.522-74.749c-4.161-2.556-17.909-8.6-18.051-8.657l.364-.83c.589.258,14.436,6.345,18.382,8.854l.209.131v.248l.523,75Z" transform="translate(-193.282 -8635.79)" fill="#999"/>
        <path id="Trazado_111652" data-name="Trazado 111652" d="M594.277,8759.624c-2.528-4.473-14.024-5.4-14.14-5.411l.069-.9c.493.038,12.094.977,14.859,5.868Z" transform="translate(-192.594 -8634.442)" fill="#999"/>
        <path id="Trazado_111653" data-name="Trazado 111653" d="M594.725,8760.813c-5.774-2.676-17.35-2.1-17.467-2.1l-.047-.9c.484-.025,11.916-.59,17.895,2.182Z" transform="translate(-193.202 -8633.521)" fill="#999"/>
        <path id="Trazado_111654" data-name="Trazado 111654" d="M594.4,8766.234c-5.6-5.072-17.228-3.449-17.345-3.433l-.13-.9c.493-.071,12.165-1.7,18.084,3.655Z" transform="translate(-193.262 -8632.717)" fill="#999"/>
        <path id="Trazado_111655" data-name="Trazado 111655" d="M593,8765.475l-.712-.559c3.992-5.1,17.292-4,17.854-3.951l-.078.9C609.927,8761.854,596.689,8760.764,593,8765.475Z" transform="translate(-190.072 -8632.88)" fill="#999"/>
        <path id="Trazado_111656" data-name="Trazado 111656" d="M603.121,8771.157c-.066-.061-6.65-6.137-10.492-5.789l-.087-.9c4.2-.4,10.91,5.763,11.195,6.024Z" transform="translate(-190.018 -8632.13)" fill="#999"/>
        <path id="Trazado_111657" data-name="Trazado 111657" d="M601.355,8778.482c-.023-.1-2.222-10-8.923-12.832l.354-.833c7.137,3.018,9.363,13.05,9.453,13.475Z" transform="translate(-190.041 -8632.053)" fill="#999"/>
        <path id="Trazado_111658" data-name="Trazado 111658" d="M592.495,8761.058l-.534-.729c4.789-3.494,16.316-5.06,16.8-5.124l.121.9C608.768,8756.118,597.1,8757.7,592.495,8761.058Z" transform="translate(-190.139 -8634.049)" fill="#999"/>
        <path id="Trazado_111659" data-name="Trazado 111659" d="M592.5,8759.688l-.557-.716c4.236-3.289,14.023-5.248,14.439-5.332l.174.891C606.455,8754.549,596.565,8756.53,592.5,8759.688Z" transform="translate(-190.143 -8634.372)" fill="#999"/>
        <path id="Trazado_111660" data-name="Trazado 111660" d="M592.27,8756.674l-.213-.881a38.661,38.661,0,0,0,18.721-11.349l.7.579A39.614,39.614,0,0,1,592.27,8756.674Z" transform="translate(-190.119 -8636.283)" fill="#999"/>
        <path id="Trazado_111661" data-name="Trazado 111661" d="M626.981,8743.3c-5.384-8.231-3.464-26.61-3.379-27.39l-1.418-14.084.9-.088,1.418,14.176c-.021.281-1.97,18.931,3.235,26.891Z" transform="translate(-183.863 -8645.151)" fill="#999"/>
        <path id="Trazado_111662" data-name="Trazado 111662" d="M632.531,8746.191a1.112,1.112,0,0,1-.7-.262c-1.669-1.336-1.484-8.545-1.43-9.979l.906.033c-.118,3.141.072,8.424,1.091,9.238.1.082.142.068.174.055.548-.211,1.71-2.062,3.322-12.09.138-.854.169-1.047.2-1.145l.859.289c-.021.084-.077.449-.165,1-1.357,8.436-2.522,12.262-3.892,12.791A1.015,1.015,0,0,1,632.531,8746.191Z" transform="translate(-182.164 -8638.856)" fill="#999"/>
        <path id="Trazado_111663" data-name="Trazado 111663" d="M680.844,8787.417l-17.17-18.212-16.2-15.162c-.1-.1-7.995-8.36-14.32-7.914l-.064-.9c6.7-.509,14.687,7.821,15.023,8.176l16.2,15.164,17.19,18.229Z" transform="translate(-181.6 -8636.124)" fill="#999"/>
        <path id="Trazado_111664" data-name="Trazado 111664" d="M650.994,8828.871l-.894-.148c1.879-11.276,12.377-32.984,12.483-33.2l.814.4C663.292,8796.134,652.85,8817.725,650.994,8828.871Z" transform="translate(-178.067 -8625.678)" fill="#999"/>
        <path id="Trazado_111665" data-name="Trazado 111665" d="M635.637,8824.907l-.285-.858c7.533-2.513,22.186-3.148,22.806-3.174l.037.905C658.045,8821.786,643.051,8822.437,635.637,8824.907Z" transform="translate(-181.129 -8620.413)" fill="#999"/>
        <path id="Trazado_111666" data-name="Trazado 111666" d="M642.952,8860.788l-.3-.854,9.294-3.308c.025-.014,6.114-2.819,8.549-7.8a47.435,47.435,0,0,1,7.5-10.355c.546-.752,14.37-19.568,19.07-24.111,4.616-4.462,10.874-16.92,10.938-17.046l6.613-13.543a9.484,9.484,0,0,0,1.1-3,2.052,2.052,0,0,1-.174-.655c-.162-.939-.5-2.9-3.647-5.562-4.085-3.458-9.817-11.015-10.058-11.336l-7.9-6.619-8.555-9.655-2.159-1.85.589-.685,2.205,1.89,8.551,9.652,7.917,6.647c.129.151,5.983,7.871,9.992,11.264,3.4,2.876,3.774,5.054,3.954,6.1a2.8,2.8,0,0,0,.086.4c.359.63-.395,2.42-1.092,3.813l-6.613,13.544c-.261.519-6.392,12.727-11.119,17.295-4.645,4.489-18.867,23.849-19.01,24.043a47.907,47.907,0,0,0-7.379,10.168c-2.579,5.285-8.763,8.128-9.025,8.249Z" transform="translate(-179.614 -8636.292)" fill="#999"/>
        <path id="Trazado_111667" data-name="Trazado 111667" d="M616.224,8703.254c-10.337-2.831-9.27-11.44-9.257-11.527l.617-13.189.906.042-.622,13.231c-.047.361-.959,7.954,8.594,10.571Z" transform="translate(-187.031 -8649.968)" fill="#999"/>
        <path id="Trazado_111668" data-name="Trazado 111668" d="M628.187,8682.258l5.513-10.632,2.6-6.222s1.811-3.467,1.339-3.938a4.74,4.74,0,0,0-2.048-.629s-2.047-.632-2.638.944-2.323,6.379-2.323,6.379l-4.175,9.137s-1.418,4.883-3.623,5.828-2.835,1.338-5.513,1.338a70.246,70.246,0,0,1-8.979-1.259v1.812l6.458,1.182s4.725,1.574,8.23,0A13.3,13.3,0,0,0,628.187,8682.258Z" transform="translate(-186.738 -8653.669)" fill="#999"/>
        <path id="Trazado_111669" data-name="Trazado 111669" d="M614.447,8697.861s-.63.42-.63-1.1a6.279,6.279,0,0,1,.315-2.259s1.156-.84,1.523-.682,2.52-.211,6.353,2.521,8.033,5.355,8.033,5.355l3.218.262,6.706,2.311s8.4,1.522,12.023,5.776,14.545,16.224,14.545,16.224l9.4,12.969,5.566,10.555s3.675,3.308,1.154,5.46c0,0-2.782,1.365-4.567,0s-7.771-11.762-7.771-11.762l-8.3-11.787-6.038-8.952-4.672-6.983s-5.251-6.2-10.133-7.613-13.914-4.1-13.914-4.1l-6.038-3.675s-5.2-2.521-5.986-2.521Z" transform="translate(-185.601 -8646.799)" fill="#999"/>
        <path id="Trazado_111670" data-name="Trazado 111670" d="M649.786,8877.129s2.909,29.72-5.281,54.922c0,0,2.362-38.591-2.52-60.8a178.875,178.875,0,0,0-15.279-41.393,15.2,15.2,0,0,1-1.366-6.283c-.157-4.095,2.258-25.728,2.258-25.728s.525-13.231,5.67-18.482a27.712,27.712,0,0,0,2.679-7.665c.577-3.781-1.156-14.807-3.413-20.216s-7.2-16.276-7.2-16.276,11.453,12.181,13.974,18.8,2.258,14.7.84,20.162-4.988,15.752-4.988,15.752-1.681,11.447-1.838,14.544-1.733,16.382-1.733,16.382-.472,7.614.472,8.769,9.5,18.692,9.5,18.692,5.408,11.079,6.721,18.588S649.786,8877.129,649.786,8877.129Z" transform="translate(-183.21 -8638.201)" fill="#999"/>
        <g id="Grupo_56971" data-name="Grupo 56971" transform="translate(363.173 224.308)">
          <path id="Trazado_111689" data-name="Trazado 111689" d="M559.957,8840.91a17.27,17.27,0,0,1,2.941-.217,4.889,4.889,0,0,1,3.157.781,2.447,2.447,0,0,1,.913,2.043,2.583,2.583,0,0,1-1.725,2.388v.045a2.435,2.435,0,0,1,1.3,1.811c.3,1.114.594,2.391.783,2.767h-2.26a13.029,13.029,0,0,1-.667-2.273c-.275-1.232-.7-1.55-1.607-1.565h-.652v3.839h-2.187Zm2.187,4.187h.869c1.1,0,1.752-.552,1.752-1.407,0-.882-.609-1.347-1.623-1.347a4.4,4.4,0,0,0-1,.073Z" transform="translate(-559.957 -8840.606)"/>
          <path id="Trazado_111690" data-name="Trazado 111690" d="M572.878,8846.388h-3.591v2.317H573.3v1.811h-6.214v-9.763H573.1v1.812h-3.81v2.026h3.591Z" transform="translate(-558.477 -8840.594)"/>
          <path id="Trazado_111691" data-name="Trazado 111691" d="M580.712,8850.266a6.514,6.514,0,0,1-2.491.42c-3.374,0-5.112-2.115-5.112-4.9,0-3.317,2.374-5.157,5.329-5.157a6.059,6.059,0,0,1,2.4.421l-.464,1.751a4.664,4.664,0,0,0-1.854-.36,3.2,3.2,0,0,0,.015,6.4,5.248,5.248,0,0,0,1.854-.317Z" transform="translate(-557.226 -8840.619)"/>
          <path id="Trazado_111692" data-name="Trazado 111692" d="M584.48,8850.7c-2.883,0-4.591-2.186-4.591-4.966,0-2.928,1.883-5.114,4.751-5.114,3,0,4.634,2.246,4.634,4.939,0,3.216-1.925,5.141-4.78,5.141Zm.115-1.753c1.493,0,2.348-1.4,2.348-3.314,0-1.753-.826-3.26-2.348-3.26s-2.374,1.478-2.374,3.3c0,1.84.883,3.272,2.361,3.272Z" transform="translate(-555.818 -8840.621)"/>
          <path id="Trazado_111693" data-name="Trazado 111693" d="M597.1,8850.084a10.887,10.887,0,0,1-3.258.551,5.494,5.494,0,0,1-3.968-1.3,4.894,4.894,0,0,1-1.377-3.564c.015-3.242,2.375-5.1,5.577-5.1a7.106,7.106,0,0,1,2.709.463l-.464,1.783a5.117,5.117,0,0,0-2.259-.42,3.18,3.18,0,0,0-.159,6.357,3.414,3.414,0,0,0,1.072-.129v-2.059H593.46v-1.723H597.1Z" transform="translate(-554.032 -8840.61)"/>
          <path id="Trazado_111694" data-name="Trazado 111694" d="M599.262,8840.753v9.763h-2.2v-9.763Z" transform="translate(-552.253 -8840.594)"/>
          <path id="Trazado_111695" data-name="Trazado 111695" d="M600.469,8840.91a17.706,17.706,0,0,1,2.968-.217,6.37,6.37,0,0,1,4.012,1.041,4.3,4.3,0,0,1,1.651,3.68,4.993,4.993,0,0,1-1.607,3.955,7.052,7.052,0,0,1-4.519,1.26,18.539,18.539,0,0,1-2.5-.146Zm2.2,7.952a4.294,4.294,0,0,0,.768.042c2.013.016,3.332-1.087,3.332-3.417a2.822,2.822,0,0,0-3.1-3.1,4.726,4.726,0,0,0-1,.088Z" transform="translate(-551.545 -8840.606)"/>
          <path id="Trazado_111696" data-name="Trazado 111696" d="M613.039,8850.7c-2.881,0-4.591-2.186-4.591-4.966,0-2.928,1.883-5.114,4.751-5.114,3,0,4.635,2.246,4.635,4.939,0,3.216-1.926,5.141-4.78,5.141Zm.116-1.753c1.491,0,2.346-1.4,2.346-3.314,0-1.753-.825-3.26-2.346-3.26s-2.375,1.478-2.375,3.3c0,1.84.884,3.272,2.361,3.272Z" transform="translate(-549.888 -8840.621)"/>
          <path id="Trazado_111697" data-name="Trazado 111697" d="M617.562,8848.267a5.58,5.58,0,0,0,2.448.608c1.013,0,1.549-.42,1.549-1.058,0-.608-.464-.956-1.636-1.361-1.623-.581-2.694-1.478-2.694-2.9,0-1.666,1.4-2.925,3.693-2.925a5.706,5.706,0,0,1,2.491.493l-.493,1.768a4.527,4.527,0,0,0-2.028-.465c-.956,0-1.419.449-1.419.942,0,.623.536.9,1.81,1.376,1.723.637,2.52,1.533,2.52,2.911,0,1.636-1.246,3.027-3.925,3.027a6.374,6.374,0,0,1-2.767-.608Z" transform="translate(-548.089 -8840.619)"/>
          <path id="Trazado_111698" data-name="Trazado 111698" d="M565.762,8860.788h-3.592v2.317h4.012v1.811h-6.213v-9.763h6.012v1.812h-3.81v2.027h3.592Z" transform="translate(-559.954 -8837.604)"/>
          <path id="Trazado_111699" data-name="Trazado 111699" d="M566.365,8864.916v-9.763h2.578l2.028,3.578a30.9,30.9,0,0,1,1.593,3.345h.029a40.255,40.255,0,0,1-.174-4.083v-2.84h2.028v9.763H572.13l-2.087-3.766a34.844,34.844,0,0,1-1.694-3.448h-.058c.073,1.3.1,2.681.1,4.272v2.941Z" transform="translate(-558.626 -8837.604)"/>
          <path id="Trazado_111700" data-name="Trazado 111700" d="M584.3,8864.664a6.439,6.439,0,0,1-2.49.421c-3.374,0-5.112-2.114-5.112-4.9,0-3.317,2.374-5.154,5.329-5.154a6.027,6.027,0,0,1,2.4.42l-.464,1.752a4.627,4.627,0,0,0-1.854-.361,3.2,3.2,0,0,0,.014,6.4,5.268,5.268,0,0,0,1.854-.318Z" transform="translate(-556.481 -8837.628)"/>
          <path id="Trazado_111701" data-name="Trazado 111701" d="M590.014,8860.788h-3.592v2.317h4.011v1.811h-6.212v-9.763h6.01v1.812h-3.809v2.027h3.592Z" transform="translate(-554.919 -8837.604)"/>
          <path id="Trazado_111702" data-name="Trazado 111702" d="M590.616,8864.916v-9.763h2.578l2.028,3.578a30.9,30.9,0,0,1,1.593,3.345h.03a39.872,39.872,0,0,1-.175-4.083v-2.84H598.7v9.763H596.38l-2.086-3.766a34.871,34.871,0,0,1-1.694-3.448h-.058c.072,1.3.1,2.681.1,4.272v2.941Z" transform="translate(-553.591 -8837.604)"/>
          <path id="Trazado_111703" data-name="Trazado 111703" d="M600.92,8857.008h-2.636v-1.854h7.5v1.854h-2.665v7.908h-2.2Z" transform="translate(-551.999 -8837.604)"/>
          <path id="Trazado_111704" data-name="Trazado 111704" d="M605.473,8855.312a17.333,17.333,0,0,1,2.939-.219,4.889,4.889,0,0,1,3.158.783,2.448,2.448,0,0,1,.913,2.042,2.584,2.584,0,0,1-1.725,2.39v.044a2.436,2.436,0,0,1,1.3,1.811c.3,1.115.593,2.39.781,2.767h-2.26a13.043,13.043,0,0,1-.665-2.275c-.275-1.229-.7-1.548-1.609-1.564h-.652v3.84h-2.186Zm2.186,4.187h.869c1.1,0,1.752-.551,1.752-1.406,0-.884-.609-1.347-1.622-1.347a4.512,4.512,0,0,0-1,.071Z" transform="translate(-550.506 -8837.616)"/>
          <path id="Trazado_111705" data-name="Trazado 111705" d="M616.759,8865.1c-2.883,0-4.591-2.187-4.591-4.968,0-2.926,1.883-5.113,4.751-5.113,3,0,4.635,2.245,4.635,4.939,0,3.216-1.926,5.142-4.78,5.142Zm.116-1.753c1.491,0,2.346-1.4,2.346-3.315,0-1.754-.826-3.262-2.346-3.262s-2.375,1.479-2.375,3.3.883,3.272,2.361,3.272Z" transform="translate(-549.116 -8837.631)"/>
          <path id="Trazado_111706" data-name="Trazado 111706" d="M559.969,8869.552h5.953v1.811h-3.751v2.231h3.506v1.795h-3.506v3.925h-2.2Z" transform="translate(-559.954 -8834.614)"/>
          <path id="Trazado_111707" data-name="Trazado 111707" d="M566.281,8869.71a17.378,17.378,0,0,1,2.941-.217,4.889,4.889,0,0,1,3.157.781,2.445,2.445,0,0,1,.913,2.043,2.584,2.584,0,0,1-1.724,2.389v.044a2.439,2.439,0,0,1,1.305,1.81c.3,1.116.593,2.392.781,2.767h-2.259a12.989,12.989,0,0,1-.667-2.272c-.274-1.231-.7-1.551-1.607-1.564h-.652v3.837h-2.187Zm2.187,4.186h.87c1.1,0,1.752-.551,1.752-1.405,0-.883-.609-1.346-1.623-1.346a4.285,4.285,0,0,0-1,.073Z" transform="translate(-558.644 -8834.626)"/>
          <path id="Trazado_111708" data-name="Trazado 111708" d="M579.2,8875.187h-3.59v2.317h4.01v1.81h-6.213v-9.762h6.012v1.811h-3.809v2.029h3.59Z" transform="translate(-557.164 -8834.614)"/>
          <path id="Trazado_111709" data-name="Trazado 111709" d="M579.8,8879.313v-9.762h2.578l2.026,3.578a30.8,30.8,0,0,1,1.594,3.347h.028a40.642,40.642,0,0,1-.173-4.084v-2.841h2.026v9.762h-2.316l-2.086-3.766a34.367,34.367,0,0,1-1.694-3.445h-.058c.071,1.3.1,2.679.1,4.272v2.938Z" transform="translate(-555.836 -8834.614)"/>
          <path id="Trazado_111710" data-name="Trazado 111710" d="M590.109,8871.406h-2.636v-1.854h7.5v1.854h-2.665v7.907h-2.2Z" transform="translate(-554.244 -8834.614)"/>
          <path id="Trazado_111711" data-name="Trazado 111711" d="M600.465,8875.187h-3.592v2.317h4.012v1.81h-6.213v-9.762h6.012v1.811h-3.81v2.029h3.592Z" transform="translate(-552.749 -8834.614)"/>
        </g>
      </g>
    </g>
    <g id="Grupo_57010" data-name="Grupo 57010" transform="translate(449.624 4503.327)">
      <rect id="Rectángulo_10486" data-name="Rectángulo 10486" width="241.043" height="423.652" rx="20.87" transform="translate(223.854 6124.174)" fill="#fff"/>
      <g id="Grupo_56863" data-name="Grupo 56863">
        <path id="Trazado_111070" data-name="Trazado 111070" d="M405.118,6388.183l-7.2-17.893v-6.03l6.517-40.712L413.3,6283v-16.078s2.887-7.915,3.127-20.9-.962-18.179-2.886-23.5l-18.519-6.679-14.271-5.07s-11.865-2.8-11.384-17.149l-.8-22.591-15.032,3.1-15.032-3.1.08,22.549c.481,14.346-12.266,17.191-12.266,17.191l-14.27,5.07-17.918,4.947c-1.925,5.318-3.728,12.244-3.488,25.229s3.127,20.9,3.127,20.9V6283l8.862,40.542h0l1.292,5.911,7.449,34.8v7s-13.226,28.008-14.587,50.375v111.056h119.65l-1.591-92.968S414.648,6405.1,405.118,6388.183Z" fill="#fff" stroke="#000" stroke-miterlimit="10" stroke-width="1" opacity="0.33"/>
        <g id="Grupo_56861" data-name="Grupo 56861">
          <path id="Trazado_111071" data-name="Trazado 111071" d="M396.17,6371.765l-2.24-2.64,2.1-2.272-2-2.563.722-.562,2.476,3.176-2.078,2.248,1.716,2.023Z" fill="#999"/>
          <path id="Trazado_111072" data-name="Trazado 111072" d="M393.649,6371.765l-2.24-2.64,2.1-2.272-2-2.563.722-.562,2.476,3.176-2.078,2.248,1.716,2.023Z" fill="#999"/>
          <path id="Trazado_111073" data-name="Trazado 111073" d="M391.128,6371.765l-2.24-2.64,2.1-2.272-2-2.563.722-.562,2.476,3.176-2.078,2.248,1.716,2.023Z" fill="#999"/>
          <path id="Trazado_111074" data-name="Trazado 111074" d="M388.607,6371.765l-2.24-2.64,2.1-2.272-2-2.563.722-.562,2.476,3.176-2.078,2.248,1.716,2.023Z" fill="#999"/>
          <path id="Trazado_111075" data-name="Trazado 111075" d="M386.086,6371.765l-2.24-2.64,2.1-2.272-2-2.563.722-.562,2.476,3.176-2.078,2.248,1.716,2.023Z" fill="#999"/>
          <path id="Trazado_111076" data-name="Trazado 111076" d="M383.565,6371.765l-2.24-2.64,2.1-2.272-2-2.563.722-.562,2.476,3.176-2.078,2.248,1.716,2.023Z" fill="#999"/>
          <path id="Trazado_111077" data-name="Trazado 111077" d="M381.044,6371.765l-2.24-2.64,2.1-2.272-2-2.563.722-.562,2.476,3.176-2.078,2.248,1.716,2.023Z" fill="#999"/>
          <path id="Trazado_111078" data-name="Trazado 111078" d="M378.523,6371.765l-2.24-2.64,2.1-2.272-2-2.563.722-.562,2.476,3.176-2.078,2.248,1.716,2.023Z" fill="#999"/>
          <path id="Trazado_111079" data-name="Trazado 111079" d="M376,6371.765l-2.24-2.64,2.1-2.272-2-2.563.722-.562,2.476,3.176-2.078,2.248,1.716,2.023Z" fill="#999"/>
          <path id="Trazado_111080" data-name="Trazado 111080" d="M373.481,6371.765l-2.24-2.64,2.1-2.272-2-2.563.722-.562,2.476,3.176-2.078,2.248,1.716,2.023Z" fill="#999"/>
          <path id="Trazado_111081" data-name="Trazado 111081" d="M370.96,6371.765l-2.24-2.64,2.1-2.272-2-2.563.722-.562,2.476,3.176-2.078,2.248,1.716,2.023Z" fill="#999"/>
          <path id="Trazado_111082" data-name="Trazado 111082" d="M368.439,6371.765l-2.24-2.64,2.1-2.272-2-2.563.722-.562,2.476,3.176-2.078,2.248,1.716,2.023Z" fill="#999"/>
          <path id="Trazado_111083" data-name="Trazado 111083" d="M365.918,6371.765l-2.24-2.64,2.1-2.272-2-2.563.722-.562,2.476,3.176-2.078,2.248,1.716,2.023Z" fill="#999"/>
          <path id="Trazado_111084" data-name="Trazado 111084" d="M363.4,6371.765l-2.24-2.64,2.1-2.272-2-2.563.722-.562,2.476,3.176-2.078,2.248,1.716,2.023Z" fill="#999"/>
          <path id="Trazado_111085" data-name="Trazado 111085" d="M360.876,6371.765l-2.24-2.64,2.1-2.272-2-2.563.722-.562,2.476,3.176-2.078,2.248,1.716,2.023Z" fill="#999"/>
          <path id="Trazado_111086" data-name="Trazado 111086" d="M358.355,6371.765l-2.24-2.64,2.1-2.272-2-2.563.722-.562,2.476,3.176-2.078,2.248,1.716,2.023Z" fill="#999"/>
          <path id="Trazado_111087" data-name="Trazado 111087" d="M355.833,6371.765l-2.24-2.64,2.1-2.272-2-2.563.722-.562,2.476,3.176-2.078,2.248,1.716,2.023Z" fill="#999"/>
          <path id="Trazado_111088" data-name="Trazado 111088" d="M353.312,6371.765l-2.24-2.64,2.1-2.272-2-2.563.722-.562,2.476,3.176-2.078,2.248,1.716,2.023Z" fill="#999"/>
          <path id="Trazado_111089" data-name="Trazado 111089" d="M350.791,6371.765l-2.24-2.64,2.1-2.272-2-2.563.722-.562,2.476,3.176-2.078,2.248,1.716,2.023Z" fill="#999"/>
          <path id="Trazado_111090" data-name="Trazado 111090" d="M348.27,6371.765l-2.24-2.64,2.1-2.272-2-2.563.722-.562,2.476,3.176-2.078,2.248,1.716,2.023Z" fill="#999"/>
          <path id="Trazado_111091" data-name="Trazado 111091" d="M345.749,6371.765l-2.24-2.64,2.1-2.272-2-2.563.722-.562,2.476,3.176-2.078,2.248,1.716,2.023Z" fill="#999"/>
          <path id="Trazado_111092" data-name="Trazado 111092" d="M343.228,6371.765l-2.24-2.64,2.1-2.272-2-2.563.722-.562,2.476,3.176-2.078,2.248,1.716,2.023Z" fill="#999"/>
          <path id="Trazado_111093" data-name="Trazado 111093" d="M340.707,6371.765l-2.24-2.64,2.1-2.272-2-2.563.722-.562,2.476,3.176-2.078,2.248,1.716,2.023Z" fill="#999"/>
          <path id="Trazado_111094" data-name="Trazado 111094" d="M338.186,6371.765l-2.24-2.64,2.1-2.272-2-2.563.722-.562,2.476,3.176-2.078,2.248,1.716,2.023Z" fill="#999"/>
          <path id="Trazado_111095" data-name="Trazado 111095" d="M335.665,6371.765l-2.24-2.64,2.1-2.272-2-2.563.722-.562,2.476,3.176-2.078,2.248,1.716,2.023Z" fill="#999"/>
          <path id="Trazado_111096" data-name="Trazado 111096" d="M333.144,6371.765l-2.24-2.64,2.1-2.272-2-2.563.722-.562,2.476,3.176-2.078,2.248,1.716,2.023Z" fill="#999"/>
          <path id="Trazado_111097" data-name="Trazado 111097" d="M330.623,6371.765l-2.24-2.64,2.1-2.272-2-2.563.722-.562,2.476,3.176-2.078,2.248,1.716,2.023Z" fill="#999"/>
          <path id="Trazado_111098" data-name="Trazado 111098" d="M328.1,6371.765l-2.24-2.64,2.1-2.272-2-2.563.722-.562,2.476,3.176-2.078,2.248,1.716,2.023Z" fill="#999"/>
          <path id="Trazado_111099" data-name="Trazado 111099" d="M325.581,6371.765l-2.24-2.64,2.1-2.272-2-2.563.722-.562,2.476,3.176-2.078,2.248,1.716,2.023Z" fill="#999"/>
          <path id="Trazado_111100" data-name="Trazado 111100" d="M323.06,6371.765l-2.24-2.64,2.1-2.272-2-2.563.722-.562,2.476,3.176-2.078,2.248,1.716,2.023Z" fill="#999"/>
          <path id="Trazado_111101" data-name="Trazado 111101" d="M320.539,6371.765l-2.24-2.64,2.1-2.272-2-2.563.722-.562,2.476,3.176-2.078,2.248,1.716,2.023Z" fill="#999"/>
          <path id="Trazado_111102" data-name="Trazado 111102" d="M318.018,6371.765l-2.24-2.64,2.1-2.272-2-2.563.722-.562,2.476,3.176L317,6369.151l1.716,2.023Z" fill="#999"/>
          <path id="Trazado_111103" data-name="Trazado 111103" d="M315.5,6371.765l-2.24-2.64,2.1-2.272-2-2.563.722-.562,2.476,3.176-2.078,2.248,1.716,2.023Z" fill="#999"/>
          <path id="Trazado_111104" data-name="Trazado 111104" d="M312.976,6371.765l-2.24-2.64,2.1-2.272-2-2.563.722-.562,2.476,3.176-2.078,2.248,1.716,2.023Z" fill="#999"/>
        </g>
        <path id="Trazado_111105" data-name="Trazado 111105" d="M338.537,6180.6s3.573,4.7,15.96,4.081,14.361-5.439,14.361-5.439" fill="none" stroke="#999" stroke-miterlimit="10" stroke-width="1"/>
        <line id="Línea_275" data-name="Línea 275" x2="115.979" transform="translate(295.282 6289.933)" fill="none" stroke="#999" stroke-miterlimit="10" stroke-width="1"/>
        <line id="Línea_276" data-name="Línea 276" x2="119.213" transform="translate(293.768 6283.005)" fill="none" stroke="#999" stroke-miterlimit="10" stroke-width="1"/>
        <line id="Línea_277" data-name="Línea 277" y2="40.728" transform="translate(353.539 6289.933)" fill="none" stroke="#999" stroke-miterlimit="10" stroke-width="1"/>
        <path id="Trazado_111106" data-name="Trazado 111106" d="M391.328,6214.538s.839,3.538-.364,23.45L390.518,6283" fill="none" stroke="#999" stroke-miterlimit="10" stroke-width="1"/>
        <path id="Trazado_111107" data-name="Trazado 111107" d="M390.518,6289.932l-6.679,41.486-5.951,32.648v7s11.646,24.117,12.63,70.99,2.541,90.635,2.541,90.635" fill="none" stroke="#999" stroke-miterlimit="10" stroke-width="1"/>
        <path id="Trazado_111108" data-name="Trazado 111108" d="M317.208,6289.932l6.5,40.728,6.72,33.017v7.585s-10.308,35.009-11.475,60.1-.194,60.294-.194,60.294l.194,41.038" fill="none" stroke="#999" stroke-miterlimit="10" stroke-width="1"/>
        <line id="Línea_278" data-name="Línea 278" x1="3.063" y1="354.975" transform="translate(352.555 6177.718)" fill="none" stroke="#999" stroke-miterlimit="10" stroke-width="1"/>
        <path id="Trazado_111109" data-name="Trazado 111109" d="M316.945,6214.538s-.838,3.538.365,23.45l.445,45.017" fill="none" stroke="#999" stroke-miterlimit="10" stroke-width="1"/>
        <path id="Trazado_111110" data-name="Trazado 111110" d="M334.748,6205.524s4.28,14.325,19.37,14.243,18.818-14.243,18.818-14.243" fill="none" stroke="#999" stroke-miterlimit="10" stroke-width="1"/>
        <path id="Trazado_111111" data-name="Trazado 111111" d="M390.6,6286.9l3.686-4.044,2.161.169s.922.094.738-.727l-2.428-3s-1.136-1.264-1.505.19l-.123,2.527-3.29,3.965-.4,1.249Z" fill="#666"/>
        <ellipse id="Elipse_4436" data-name="Elipse 4436" cx="15.032" cy="6.678" rx="15.032" ry="6.678" transform="translate(338.503 6164.361)" fill="#fff" stroke="#999" stroke-miterlimit="10" stroke-width="1"/>
        <g id="Grupo_56862" data-name="Grupo 56862">
          <path id="Trazado_111112" data-name="Trazado 111112" d="M360.635,6152.037c0-5.252-3.1-9.51-6.913-9.51s-6.912,4.258-6.912,9.51c0,4.108,1.9,7.6,4.547,8.927v9.094h5.223v-9.368C358.97,6159.193,360.635,6155.886,360.635,6152.037Z" fill="#fff" stroke="#999" stroke-miterlimit="10" stroke-width="1"/>
          <rect id="Rectángulo_10487" data-name="Rectángulo 10487" width="16.211" height="2.78" rx="1.209" transform="translate(345.894 6154.007)" fill="#fff" stroke="#999" stroke-miterlimit="10" stroke-width="1"/>
          <rect id="Rectángulo_10488" data-name="Rectángulo 10488" width="16.211" height="2.78" rx="1.209" transform="translate(345.894 6148.699)" fill="#fff" stroke="#999" stroke-miterlimit="10" stroke-width="1"/>
        </g>
        <line id="Línea_279" data-name="Línea 279" x2="86.064" transform="translate(311.371 6364.26)" fill="#fff" stroke="#000" stroke-miterlimit="10" stroke-width="1" opacity="0.33"/>
        <line id="Línea_280" data-name="Línea 280" x2="86.064" transform="translate(311.371 6371.262)" fill="#fff" stroke="#000" stroke-miterlimit="10" stroke-width="1" opacity="0.33"/>
        <path id="Trazado_111113" data-name="Trazado 111113" d="M294.7,6221.181s3.555,31.376-.32,45.739" fill="none" stroke="#000" stroke-miterlimit="10" stroke-width="1" opacity="0.33"/>
        <path id="Trazado_111114" data-name="Trazado 111114" d="M413.542,6222.529s-4.116,30.035-.241,44.4" fill="none" stroke="#000" stroke-miterlimit="10" stroke-width="1" opacity="0.33"/>
        <path id="Trazado_111115" data-name="Trazado 111115" d="M316.6,6286.126l-3.687-4.045-2.161.169s-.921.1-.737-.727l2.427-3s1.137-1.264,1.506.189l.122,2.528,3.291,3.965.4,1.248Z" fill="#666"/>
        <path id="Trazado_111116" data-name="Trazado 111116" d="M272.438,6311.958l.652-22.026s.131-7.453,1.565-10.583,2.87-9.131,2.609-17.087a114.784,114.784,0,0,0-1.174-13.491s0-9.6,2.87-10.509,6.913-2.348,7.3-3.391-8.609-7.044-8.609-7.044-4.956.4-5.217-6.646,12.652-11.354,12.652-11.354l16.174-6.13s5.739-3.131,10.044-2.348,13.043-1.435,13.043-1.435,14.739-3.652,15.652-3.13,9.261-1.957,9.261-1.957L359.308,6193s4.565-.565,5.217,1.022-.652,6.333-.522,8.982-.261,48.692-.261,48.692l-2.585,67.391s-2.845,46.087-2.521,63.826,0,50.435,0,50.435.019,3.043-1.937,3.761-3.457.848-3.848.326-3.13-.018-3.326.317-2.609,2.1-4.044.6-5.673-2.348-5.673-2.348l-7.566.457-2.217,1.173s-.522,1.194-3.783,1.314-11.478-.4-11.478-.4-4.37.13-5.413,1.3a3.381,3.381,0,0,1-3.587.652c-.587-.326-2.935-1.826-4.37-1.7s-6.326.2-8.934-.717-2.674-1.3-6.066-.913c0,0-6.521-.13-7.869.348s-1.913,1.174-3.3,1.348-2.783-1-4.131.087a7.584,7.584,0,0,1-3.913,1.391c-.348-.044-1.3-.609-2.261,1.043s-3.217.7-3.217.7-.174-.739-1.391.7a12.888,12.888,0,0,1-2.7,2.347l1.087-10.3s1.652-18,2.435-34.174.087-40.087.087-40.087l-2.348-41.043-3.826-47.131-1.653-30.869-1.565-21.756s.87-2.331,2.522.712l4.7,4.7,3.217,3.391s2.609,2.609,2.522,4.783-2.435,5.826-2.435,5.826l-5.478,9.13s-1.565.7-.087,1.826,3.478.522,4.956,1.392,2.609,1.478,3.3,2.869,1.391,7.044,1.391,7.044l.609,11.391s.869,10.783,1.565,12.261,2.348,13.652,2.348,13.652Z" fill="#999" stroke="#4d4d4d" stroke-linecap="round" stroke-linejoin="round" stroke-width="1" opacity="0.5"/>
        <path id="Trazado_111117" data-name="Trazado 111117" d="M315.134,6186.218s-2.261,3.922-8.522,3.787-8.99.192-12.234,2.9-8.636,2.185-8.636,2.185-11.826,1.043-18.261,4S252.873,6207.61,252.7,6209s0,6.783,0,6.783l-.077,1.565v1.043l3.99,4.348,4.847,4.978,2.468,3,.625,1.3-.386,3.679-4.685,8.965-2.608,3.648-.718.853.631.973,1.836.709,2.276.339,2.531,1.394,1.618,1.819,1.017,4.425.542,5.759.38,7.11.347,4.364.486,4.573.324,2.382,1.042,4.384,1.2,7.32,1.55,12.754.549,2.931.737-17.132.058-6.81.985-6.147,2.261-6.521.7-8.261-.261-8.7-.609-6.782.348-7.914,1.826-3.913,4.054-1.214,3.308-1.67.2-1.289-5.652-4.174-3.217-2.261h-1.305l-2.522-2-1.043-2.435.261-4.435,2.087-2.869,4.326-3.226,7.544-3.378,14.7-5.57,5.154-1.994,3.68-.469,5.376.2Z" fill="#999" stroke="#4d4d4d" stroke-linecap="round" stroke-linejoin="round" stroke-width="1"/>
        <path id="Trazado_111118" data-name="Trazado 111118" d="M287.308,6173.349s2.782,5.826,8.521,5.043,8,.783,8.435,1.3,2.261,4,4.87,3.3a10.3,10.3,0,0,1,5.13.092l.783,1.648s1.019,1.091-.688,2.442a19.942,19.942,0,0,1-3.291,2.119l-3.021.66H304.7s-4.449.258-4.794.323-2.969.928-2.969.928l-3.061,2.071-2.339,1.143-3.52.661-.491-.435Z" fill="#999" stroke="#4d4d4d" stroke-linecap="round" stroke-linejoin="round" stroke-width="1" opacity="0.5"/>
        <path id="Trazado_111119" data-name="Trazado 111119" d="M288.221,6437.958s.391,55.3.521,57.391-2.478-4.957-2.478-4.957-2.739-4.565-6.261-5.347-4.13-1.2-4.13-1.2-2.652-.739-2.479-2.957,6.022-4.782,6.022-4.782l5.413-2.413s1.7-1.174,1.435-2.152-2.87-3.131-2.87-3.131l-7.7-6.456s-3.652-3.718-5.935-3.718-6.065-.13-6.065-.13a4.934,4.934,0,0,1-3.131-3.065c-.978-2.544-2.543-6-2.543-6l-.522-3.327,3.065-2.543.64-1.206,1.621.684,1.869-.954,1.386-1.418,1.528.068,1.98-.553,1.5-.838,1.654-.446,2,.446,3.427-1.3,3.486-.461,4.218-.034,2.131-.132Z" fill="#999" stroke="#4d4d4d" stroke-linecap="round" stroke-linejoin="round" stroke-width="1"/>
        <path id="Trazado_111120" data-name="Trazado 111120" d="M275.894,6463.131l.261,13.957a14.76,14.76,0,0,0,4.005-1.31l3.78-1.685,2.04-1.519a12.929,12.929,0,0,1-.694-1.812c-.222-.82-3.049-3.319-3.049-3.319l-3.96-3.322-1.625-1.364Z" fill="#999" stroke="#4d4d4d" stroke-linecap="round" stroke-linejoin="round" stroke-width="1" opacity="0.5"/>
      </g>
    </g>
  </g>
</svg>
