<svg xmlns="http://www.w3.org/2000/svg" width="238.229" height="304.478" viewBox="0 0 238.229 304.478">
  <g id="Grupo_56974" data-name="Grupo 56974" transform="translate(-242.985 -8643.392)">
    <rect id="Rect치ngulo_10549" data-name="Rect치ngulo 10549" width="238.229" height="304.478" rx="20.348" transform="translate(242.985 8643.392)" fill="#fff"/>
    <g id="Grupo_56972" data-name="Grupo 56972" transform="translate(263.223 8658.931)">
      <path id="Trazado_111617" data-name="Trazado 111617" d="M306.71,8821.114l-.253-.758a5.068,5.068,0,0,0,1.933-1.057c.367-.511.593-.832-1.118-5.658-1.784-5.031-10.148-26.137-10.233-26.351-.015-.033-2.5-5.347-5.9-8.125-4.093-3.341-8.963-6.355-16.765-5.748-8,.614-9.378,3.527-9.391,3.556a3.873,3.873,0,0,0-.026,3.529c1.129,1.883,1.9,2.777,3.81,2.679,2.173-.09,5.934-.729,5.971-.735l.135.789c-.157.024-3.849.653-6.072.746-2.442.093-3.378-1.147-4.529-3.065a4.594,4.594,0,0,1-.009-4.29c.037-.1,1.47-3.347,10.048-4.006,8.084-.618,13.109,2.482,17.332,5.926,3.551,2.9,6.029,8.207,6.133,8.431s8.463,21.355,10.252,26.4c1.78,5.02,1.615,5.55,1.034,6.361A5.751,5.751,0,0,1,306.71,8821.114Z" transform="translate(-258.933 -8647.169)" fill="#999"/>
      <path id="Trazado_111618" data-name="Trazado 111618" d="M328.455,8837c0-.006-.43-.522-1.972-2.2-1.43-1.556-5.388-1.356-5.429-1.354-.336.01-7.939.185-9.163,0-1.4-.215-1.619-.851-1.648-.975l-5.927-13.577.011-.1a2.744,2.744,0,0,0-.411-1.936.62.62,0,0,0-.616-.075c-4.217,1.138-7.3,2.325-8.693,3.344-2.07,1.518-8.087,5.462-8.149,5.5-.166.1-.594.412-.635.732-.007.053-.03.215.214.456.764.767.973,1.056.792,1.374l-.15.265-.327-.064.1-.386-.341.091a4.181,4.181,0,0,0-.636-.713,1.311,1.311,0,0,1-.44-1.131,2.057,2.057,0,0,1,1.011-1.3c.039-.026,6.039-3.96,8.092-5.465,1.88-1.378,5.908-2.648,8.958-3.47a1.4,1.4,0,0,1,1.34.235,3.335,3.335,0,0,1,.7,2.515L311,8832.21c.011.029.16.3,1.014.436.926.145,6.3.06,9.01,0,.164-.01,4.363-.222,6.049,1.612,1.563,1.7,1.984,2.212,2,2.231Z" transform="translate(-257.537 -8644.324)" fill="#999"/>
      <rect id="Rect치ngulo_10550" data-name="Rect치ngulo 10550" width="0.798" height="19.944" transform="translate(31.053 179.398) rotate(-32.694)" fill="#999"/>
      <path id="Trazado_111619" data-name="Trazado 111619" d="M287.945,8835.42a3.885,3.885,0,0,1-1.564-.33c-2.767-1.205-8.207-12.465-8.818-13.742l-11.747-25.86c-.011-.015-3.459-5.667-4.348-7.036a21.67,21.67,0,0,1-1.561-2.909c-.046-.1-1.333-2.783-.239-4.348.975-1.392,3.411-4.73,3.411-4.73l13.433-15.386c.3-.291,27.641-26.924,29.877-33.023l.751.275c-2.3,6.269-28.915,32.2-30.048,33.3l-13.39,15.335s-2.411,3.309-3.379,4.692c-.685.979-.009,2.9.31,3.557a21.551,21.551,0,0,0,1.5,2.807c.9,1.378,4.348,7.039,4.385,7.1l11.766,25.9c1.622,3.395,6.3,12.429,8.412,13.348,2.411,1.051,4.733-1.476,4.757-1.5l.594.535A6.278,6.278,0,0,1,287.945,8835.42Z" transform="translate(-259.227 -8650.084)" fill="#999"/>
      <path id="Trazado_111620" data-name="Trazado 111620" d="M291.238,8746.559l-.71-.368,6.949-13.413,8.286-13.162,6.14-7.816c.2-.246,4.883-5.755,10.912-7.366,1.885-.5,3.624-.925,5.305-1.33a49.808,49.808,0,0,0,8.735-2.609,112.992,112.992,0,0,0,9.954-6.014l4.684-2.589c.207-.068,2.985-.825,4.4-.454l-.2.773a10.454,10.454,0,0,0-3.891.415l-4.568,2.535a110.96,110.96,0,0,1-10.032,6.059,50.387,50.387,0,0,1-8.887,2.661c-1.677.405-3.411.823-5.286,1.323-5.781,1.547-10.452,7.044-10.5,7.1l-6.107,7.773-8.246,13.1Z" transform="translate(-257.176 -8652.491)" fill="#999"/>
      <path id="Trazado_111621" data-name="Trazado 111621" d="M370.244,8706.15a13.446,13.446,0,0,1-1.745-.093c-17.108-.464-19.76-11.039-19.786-11.146l.779-.184c.023.1,2.571,10.086,19.078,10.534.165.023,11.5,1.59,19.684-9.292l.638.48A23.2,23.2,0,0,1,370.244,8706.15Z" transform="translate(-253.363 -8652.269)" fill="#999"/>
      <path id="Trazado_111622" data-name="Trazado 111622" d="M321.4,8745.28a96.732,96.732,0,0,0-4.5-17.152c-3.188-8.457-2.81-19.091-2.806-19.2l.8.032c0,.1-.377,10.582,2.753,18.884a97.753,97.753,0,0,1,4.539,17.315Z" transform="translate(-255.632 -8651.338)" fill="#999"/>
      <path id="Trazado_111623" data-name="Trazado 111623" d="M320.88,8855.554l-.731-.323,12.092-27.172.652-2.5c-.184-1.108-2.117-12.777-2.907-18.831-.82-6.279-5.769-20.484-5.818-20.628-.094-.156-2.947-5.454-4.191-19.416s4.133-30.432,4.188-30.6l.76.252c-.054.162-5.38,16.485-4.152,30.276,1.228,13.757,4.094,19.108,4.121,19.16.232.649,5.054,14.489,5.885,20.85.823,6.314,2.9,18.764,2.916,18.888l.014.084-.717,2.725Z" transform="translate(-255.258 -8649.557)" fill="#999"/>
      <path id="Trazado_111624" data-name="Trazado 111624" d="M319.657,8853.6c-.257-.065-6.306-1.615-8.324-2.449s-9.344-5.6-9.655-5.8l.437-.671c.075.049,7.566,4.926,9.525,5.733s8.152,2.4,8.215,2.415Z" transform="translate(-256.445 -8642.442)" fill="#999"/>
      <path id="Trazado_111625" data-name="Trazado 111625" d="M370.561,8827.506c-.235,0-.467,0-.7,0-15.712-.139-37.267-5.654-37.483-5.71l.2-.775c.215.057,21.676,5.549,37.289,5.686,15.646.174,34.169-4.389,34.354-4.435l.192.775C404.227,8823.088,386.122,8827.506,370.561,8827.506Z" transform="translate(-254.433 -8643.992)" fill="#999"/>
      <path id="Trazado_111626" data-name="Trazado 111626" d="M407.195,8845.8l-1.511-4.656-6.174-12.69.007-.1a80.9,80.9,0,0,0,.015-8.845c-.279-4.316,3.329-20.813,3.482-21.514.071-.2,5.459-14.028,7.653-21.159,1.538-5,1.534-11.291-.01-18.7-.692-3.323-2.3-23.514-2.371-24.372l.8-.062c.017.209,1.674,21,2.356,24.271,1.573,7.544,1.57,13.972-.009,19.1-2.2,7.157-7.6,21.014-7.654,21.153-.02.11-3.719,17.028-3.448,21.231a81.221,81.221,0,0,1-.009,8.839l6.1,12.553,1.532,4.708Z" transform="translate(-250.034 -8649.714)" fill="#999"/>
      <path id="Trazado_111627" data-name="Trazado 111627" d="M406.3,8835.343l-.79-.134c.017-.1,1.63-9.839.676-18.093a56.07,56.07,0,0,0-2.666-10.88c-1.108-3.449-1.983-6.173-1.568-8.158l.783.164c-.372,1.778.474,4.413,1.547,7.75a56.7,56.7,0,0,1,2.7,11.032C407.952,8825.393,406.321,8835.245,406.3,8835.343Z" transform="translate(-249.88 -8645.495)" fill="#999"/>
      <path id="Trazado_111628" data-name="Trazado 111628" d="M407.032,8819.83l-.784-.148c1.181-6.24-.5-14.632-.515-14.716l.782-.161C406.586,8805.154,408.243,8813.435,407.032,8819.83Z" transform="translate(-249.626 -8645.055)" fill="#999"/>
      <path id="Trazado_111629" data-name="Trazado 111629" d="M410.175,8751.516l-.8-.053c.1-1.5,2.148-9.523,4.132-17.287.855-3.34,1.674-6.548,2.272-8.979,1.905-7.759.631-17.338.618-17.432l.791-.108c.014.1,1.31,9.824-.633,17.731-.6,2.433-1.418,5.643-2.273,8.987C412.4,8741.74,410.267,8750.094,410.175,8751.516Z" transform="translate(-249.387 -8651.422)" fill="#999"/>
      <path id="Trazado_111630" data-name="Trazado 111630" d="M421.847,8920.755s-2.224,2.849-2.918,3.961-1.391-.418-.556-1.98a5.386,5.386,0,0,0,1.042-3.857c0-2.362-.555-9.658-.555-9.658s-1.043-22.377-2.155-27.381-9.729-34.885-9.729-34.885l-.377-2.292,7.624,16.33s4.914,10.354,5.4,16.677c0,0,.139,1.6.973,1.738s7.157-.7,7.992-.14a29.671,29.671,0,0,1,2.711,2.433s-8.617.625-9.59,1.6,1.946,10.285,1.668,12.717-2.155,13.62-2.155,13.62-.9,7.3-.556,8.756c0,0-.417,1.738.765.7s2.153-1.251,3.613-5.978,5.281-23.7,5.212-26.336a12.818,12.818,0,0,1,.464-4.17l.58.974s2.2,1.111,2.432-1.946,0-52.05,0-52.05l.1-18.554-1.493-30.375,1.493-19.8.869-10.98.834-10.007s-1.251-2.917-2.085-5.42-2.084-10.979-4.448-13.62-7.226-7.783-7.226-7.783a185.029,185.029,0,0,0-19.18-9.172c-1.946-1.391-11.4-6.439-11.4-6.439a25.052,25.052,0,0,0-6.393-.857c-3.127.07-4.795-9.59-4.795-9.59l.834-12.648a4.818,4.818,0,0,1,1.806.766c.7.556.7,1.319,1.946.764a35.014,35.014,0,0,0,3.892-2.433s4.725-.833,6.254.7,3.266,1.6,3.753,1.112,4.378-6.881,4.378-6.881L406,8657.59l1.043-2.71s1.042,5.63-.418,10.215a62.709,62.709,0,0,1-3.4,8.409s-1.669,4.17-4.309,3.892-6.879-1.181-6.879-1.181a4.017,4.017,0,0,0-4.1,0c-2.293,1.25-4.309,2.015-4.795,1.459s-1.32-.417-1.32.764a52.825,52.825,0,0,0,.973,5.629,19.529,19.529,0,0,1,.278,4.17,6.658,6.658,0,0,0,.069,3.2c.278.418,1.6,3.2,2.293,3.545s4.933.138,4.933.138,7.3,2.293,11.05,4.726,16.33,6.88,16.33,6.88,10.632,3.474,13.968,8.479a64.622,64.622,0,0,1,5.906,10.284c.418,1.252,1.738,7.575,1.738,7.575s1.042,3.821-.556,5.072-1.807,1.459-1.946,2.5-.487,7.506-.487,7.506l-.695.693-.486,2.641s1.737,0,1.876,5.143-.209,23.35-.209,23.35l-.417,23.35s-.418,16.4.208,18.832,1.46,15.287,1.46,15.287l.764,30.646s.973,10.494-2.084,15.428c0,0-1.391,3.684-1.807,4.31a.722.722,0,0,1-1.32-.557,21.692,21.692,0,0,0,.139-2.433,8.555,8.555,0,0,1-2.015,1.182c-.417,0-.417,14.315-.417,14.315l.208,13.133s-.069,6.394-2.571,8.479l-2.432,2.154s-1.46,1.8-3.2,1.006-1.043-3.577-1.043-3.577Z" transform="translate(-251.312 -8654.88)" fill="#999"/>
      <path id="Trazado_111631" data-name="Trazado 111631" d="M329.431,8744.2a1.084,1.084,0,0,1-.766-.374c-.714-.752-.93-2.459-.646-5.073.542-4.974-1.547-14.967-1.57-15.067l.783-.165c.087.414,2.138,10.219,1.581,15.32-.369,3.372.214,4.259.493,4.485.378-.625,1.581-3.456,1.581-14.257a76.627,76.627,0,0,0-4.421-26.395l.747-.283a77.418,77.418,0,0,1,4.473,26.678c0,13.161-1.807,14.9-2.013,15.05l-.1.074-.119.007Z" transform="translate(-254.822 -8651.767)" fill="#999"/>
      <path id="Trazado_111632" data-name="Trazado 111632" d="M323.94,8713.223a.759.759,0,0,1-.181-.021c-1.168-.27-1.838-1.7-1.838-3.933,0-2.153.336-5.13.348-5.257l.795.09c0,.031-.344,3.061-.344,5.167,0,1.8.456,2.979,1.219,3.155a4.556,4.556,0,0,0,.976-2.464l.786.146c-.076.4-.491,2.444-1.294,2.969A.837.837,0,0,1,323.94,8713.223Z" transform="translate(-255.119 -8651.659)" fill="#999"/>
      <path id="Trazado_111633" data-name="Trazado 111633" d="M338.425,8744.342c-.156-.783-3.828-19.256-3.9-22.934-.051-2.7-1.15-10.667-1.879-15.94-.254-1.849-.459-3.338-.55-4.1l.793-.094c.092.762.3,2.246.55,4.088.73,5.292,1.833,13.291,1.885,16.035.069,3.605,3.847,22.6,3.885,22.793Z" transform="translate(-254.452 -8651.84)" fill="#999"/>
      <path id="Trazado_111634" data-name="Trazado 111634" d="M345.743,8737.45a71.136,71.136,0,0,1-7.835-20.491c-2.338-11.411-3.191-16.5-3.2-16.553l.788-.131c.009.05.86,5.13,3.195,16.523a70.278,70.278,0,0,0,7.731,20.232Z" transform="translate(-254.281 -8651.905)" fill="#999"/>
      <path id="Trazado_111635" data-name="Trazado 111635" d="M348.366,8722.217c-.08-.2-8.06-19.751-11.742-23.095l.537-.591c3.817,3.465,11.615,22.572,11.946,23.385Z" transform="translate(-254.155 -8652.02)" fill="#999"/>
      <path id="Trazado_111636" data-name="Trazado 111636" d="M343.461,8717.544c-1.2,0-3.1-4.391-4.125-7.01l-2.824-10.939.774-.2,2.81,10.9c1.16,2.959,2.808,6.29,3.386,6.457.258-.229.215-2.229-.135-4.187l.786-.142c.165.917.645,3.978-.076,4.839A.751.751,0,0,1,343.461,8717.544Z" transform="translate(-254.162 -8651.963)" fill="#999"/>
      <path id="Trazado_111637" data-name="Trazado 111637" d="M344.424,8703.364c0-.024-.426-2.585-4.242-6.447l.568-.562c4.031,4.077,4.45,6.783,4.466,6.9l-.792.108.4-.053Z" transform="translate(-253.922 -8652.16)" fill="#999"/>
      <g id="Grupo_56969" data-name="Grupo 56969" transform="translate(134.427 44.195)">
        <path id="Trazado_111638" data-name="Trazado 111638" d="M404.616,8744.2h-.029l-.119-.007-.1-.074c-.206-.152-2.013-1.889-2.013-15.05a77.348,77.348,0,0,1,4.473-26.678l.747.283a76.568,76.568,0,0,0-4.421,26.395c0,10.766,1.2,13.614,1.591,14.261.262-.221.855-1.1.484-4.489-.556-5.1,1.494-14.906,1.581-15.32l.783.165c-.022.1-2.112,10.094-1.57,15.067.286,2.614.068,4.321-.645,5.073A1.088,1.088,0,0,1,404.616,8744.2Z" transform="translate(-384.274 -8695.961)" fill="#999"/>
        <path id="Trazado_111639" data-name="Trazado 111639" d="M410.017,8713.223a.842.842,0,0,1-.468-.147c-.8-.524-1.218-2.564-1.294-2.969l.786-.146a4.556,4.556,0,0,0,.976,2.464c.763-.176,1.219-1.356,1.219-3.155,0-2.108-.341-5.135-.345-5.167l.795-.09c.014.126.349,3.1.349,5.257,0,2.231-.67,3.663-1.839,3.933A.7.7,0,0,1,410.017,8713.223Z" transform="translate(-383.887 -8695.854)" fill="#999"/>
        <path id="Trazado_111640" data-name="Trazado 111640" d="M395.737,8744.342l-.785-.154c.039-.191,3.816-19.187,3.885-22.793.052-2.744,1.155-10.743,1.885-16.035.255-1.842.458-3.326.55-4.088l.793.094c-.091.765-.3,2.254-.55,4.1-.729,5.273-1.827,13.245-1.879,15.94C399.566,8725.086,395.893,8743.559,395.737,8744.342Z" transform="translate(-384.759 -8696.034)" fill="#999"/>
        <path id="Trazado_111641" data-name="Trazado 111641" d="M388.7,8737.45l-.68-.419a70.347,70.347,0,0,0,7.733-20.232c2.334-11.394,3.185-16.474,3.193-16.523l.788.131c-.009.05-.862,5.142-3.2,16.553A71.136,71.136,0,0,1,388.7,8737.45Z" transform="translate(-385.213 -8696.1)" fill="#999"/>
        <path id="Trazado_111642" data-name="Trazado 111642" d="M386.127,8722.217l-.741-.3c.331-.812,8.129-19.92,11.945-23.385l.537.591C394.186,8702.466,386.206,8722.021,386.127,8722.217Z" transform="translate(-385.386 -8696.214)" fill="#999"/>
        <path id="Trazado_111643" data-name="Trazado 111643" d="M390.75,8717.544a.753.753,0,0,1-.6-.284c-.72-.861-.24-3.924-.076-4.841l.786.142c-.351,1.959-.393,3.958-.09,4.2.533-.176,2.18-3.507,3.355-6.513l2.794-10.85.774.2-2.809,10.895C393.852,8713.153,391.955,8717.544,390.75,8717.544Z" transform="translate(-385.099 -8696.157)" fill="#999"/>
        <path id="Trazado_111644" data-name="Trazado 111644" d="M389.61,8703.364l-.791-.11c.015-.115.435-2.821,4.466-6.9l.568.562C390.037,8700.779,389.614,8703.34,389.61,8703.364Z" transform="translate(-385.161 -8696.355)" fill="#999"/>
      </g>
      <g id="Grupo_56970" data-name="Grupo 56970" transform="translate(69.539 207.991)">
        <path id="Trazado_111671" data-name="Trazado 111671" d="M324.489,8850.342a15.266,15.266,0,0,1,2.595-.191,4.313,4.313,0,0,1,2.785.689,2.156,2.156,0,0,1,.806,1.8,2.277,2.277,0,0,1-1.522,2.107v.04a2.148,2.148,0,0,1,1.152,1.6c.267.981.523,2.109.689,2.439H329a11.562,11.562,0,0,1-.588-2.006c-.242-1.087-.614-1.366-1.418-1.38h-.575v3.386h-1.93Zm1.93,3.7h.767c.971,0,1.546-.486,1.546-1.241,0-.779-.537-1.189-1.432-1.189a3.877,3.877,0,0,0-.881.064Z" transform="translate(-324.489 -8850.073)"/>
        <path id="Trazado_111672" data-name="Trazado 111672" d="M336.728,8855.182h-3.168v2.045h3.54v1.6h-5.483v-8.614h5.3v1.6h-3.361v1.788h3.168Z" transform="translate(-324.022 -8850.069)"/>
        <path id="Trazado_111673" data-name="Trazado 111673" d="M344.35,8858.588a5.731,5.731,0,0,1-2.2.371c-2.977,0-4.51-1.865-4.51-4.318a4.377,4.377,0,0,1,4.7-4.55,5.339,5.339,0,0,1,2.121.37l-.409,1.545a4.121,4.121,0,0,0-1.636-.318,2.825,2.825,0,0,0,.013,5.647,4.614,4.614,0,0,0,1.636-.28Z" transform="translate(-323.627 -8850.077)"/>
        <path id="Trazado_111674" data-name="Trazado 111674" d="M348.472,8858.972c-2.543,0-4.051-1.928-4.051-4.383a4.176,4.176,0,0,1,4.192-4.511c2.645,0,4.09,1.98,4.09,4.358,0,2.837-1.7,4.535-4.217,4.535Zm.1-1.546c1.316,0,2.07-1.239,2.07-2.927,0-1.545-.729-2.874-2.07-2.874s-2.1,1.3-2.1,2.913.779,2.888,2.083,2.888Z" transform="translate(-323.183 -8850.078)"/>
        <path id="Trazado_111675" data-name="Trazado 111675" d="M360.616,8858.434a9.622,9.622,0,0,1-2.876.485,4.847,4.847,0,0,1-3.5-1.15,4.317,4.317,0,0,1-1.214-3.145c.012-2.861,2.095-4.5,4.92-4.5a6.249,6.249,0,0,1,2.39.408l-.409,1.574a4.488,4.488,0,0,0-1.994-.373,2.617,2.617,0,0,0-2.862,2.787,2.591,2.591,0,0,0,2.721,2.824,3.042,3.042,0,0,0,.946-.114v-1.815h-1.33V8853.9h3.208Z" transform="translate(-322.619 -8850.075)"/>
        <path id="Trazado_111676" data-name="Trazado 111676" d="M363.535,8850.21v8.614h-1.942v-8.614Z" transform="translate(-322.057 -8850.069)"/>
        <path id="Trazado_111677" data-name="Trazado 111677" d="M365,8850.342a15.775,15.775,0,0,1,2.619-.191,5.617,5.617,0,0,1,3.54.919,3.8,3.8,0,0,1,1.458,3.246,4.412,4.412,0,0,1-1.418,3.49,6.233,6.233,0,0,1-3.988,1.111,16.811,16.811,0,0,1-2.21-.127Zm1.941,7.018a3.883,3.883,0,0,0,.678.036,2.682,2.682,0,0,0,2.94-3.016,2.489,2.489,0,0,0-2.734-2.735,4.151,4.151,0,0,0-.883.078Z" transform="translate(-321.834 -8850.073)"/>
        <path id="Trazado_111678" data-name="Trazado 111678" d="M377.031,8858.972c-2.542,0-4.05-1.928-4.05-4.383,0-2.581,1.66-4.511,4.191-4.511,2.646,0,4.09,1.98,4.09,4.358,0,2.837-1.7,4.535-4.217,4.535Zm.1-1.546c1.317,0,2.071-1.239,2.071-2.927,0-1.545-.729-2.874-2.071-2.874s-2.1,1.3-2.1,2.913.78,2.888,2.083,2.888Z" transform="translate(-321.311 -8850.078)"/>
        <path id="Trazado_111679" data-name="Trazado 111679" d="M382.041,8856.825a4.915,4.915,0,0,0,2.16.537c.894,0,1.367-.37,1.367-.935,0-.536-.408-.842-1.444-1.2-1.432-.513-2.377-1.3-2.377-2.558,0-1.47,1.24-2.579,3.258-2.579a5.043,5.043,0,0,1,2.2.434l-.436,1.561a3.994,3.994,0,0,0-1.788-.41c-.844,0-1.253.4-1.253.831,0,.549.473.79,1.6,1.214,1.522.563,2.224,1.354,2.224,2.568,0,1.443-1.1,2.671-3.463,2.671a5.615,5.615,0,0,1-2.441-.537Z" transform="translate(-320.743 -8850.077)"/>
        <path id="Trazado_111680" data-name="Trazado 111680" d="M395.983,8855.182h-3.168v2.045h3.539v1.6h-5.482v-8.614h5.3v1.6h-3.361v1.788h3.168Z" transform="translate(-320.139 -8850.069)"/>
        <path id="Trazado_111681" data-name="Trazado 111681" d="M397.269,8858.824v-8.614h2.275l1.788,3.157a27.107,27.107,0,0,1,1.407,2.952h.024a35.848,35.848,0,0,1-.153-3.6v-2.5H404.4v8.614h-2.044l-1.84-3.323a30.862,30.862,0,0,1-1.5-3.041h-.05c.063,1.149.089,2.364.089,3.77v2.595Z" transform="translate(-319.719 -8850.069)"/>
        <path id="Trazado_111682" data-name="Trazado 111682" d="M326.443,8864.61v3.322h3.207v-3.322h1.942v8.614h-1.942v-3.592h-3.207v3.592H324.5v-8.614Z" transform="translate(-324.488 -8849.126)"/>
        <path id="Trazado_111683" data-name="Trazado 111683" d="M336.436,8873.373c-2.543,0-4.051-1.93-4.051-4.383,0-2.582,1.661-4.513,4.192-4.513,2.645,0,4.088,1.981,4.088,4.358,0,2.838-1.7,4.537-4.217,4.537Zm.1-1.547c1.317,0,2.071-1.238,2.071-2.926,0-1.547-.729-2.877-2.071-2.877s-2.095,1.306-2.095,2.916.779,2.887,2.083,2.887Z" transform="translate(-323.972 -8849.134)"/>
        <path id="Trazado_111684" data-name="Trazado 111684" d="M348.658,8869.926c-.039-1.034-.078-2.273-.078-3.538h-.024c-.282,1.1-.639,2.326-.972,3.335l-1.049,3.359h-1.519l-.922-3.335c-.28-1.009-.562-2.224-.779-3.359h-.026c-.038,1.162-.09,2.491-.14,3.564l-.167,3.272h-1.8l.55-8.614h2.595l.843,2.875c.281,1,.537,2.071.729,3.081h.051c.229-1,.524-2.134.817-3.094l.908-2.862h2.555l.461,8.614H348.8Z" transform="translate(-323.395 -8849.126)"/>
        <path id="Trazado_111685" data-name="Trazado 111685" d="M351.513,8864.742a15.081,15.081,0,0,1,2.517-.192,4.754,4.754,0,0,1,2.543.487,1.868,1.868,0,0,1,1.022,1.7,1.957,1.957,0,0,1-1.405,1.828v.026a2.145,2.145,0,0,1,1.712,2.121,2.256,2.256,0,0,1-.9,1.827,5.441,5.441,0,0,1-3.386.78,14.922,14.922,0,0,1-2.108-.129Zm1.929,3.285h.639c1.036,0,1.573-.422,1.573-1.062s-.5-1-1.381-1a3.58,3.58,0,0,0-.831.065Zm0,3.821a4.251,4.251,0,0,0,.754.037c.882,0,1.661-.345,1.661-1.253,0-.867-.779-1.213-1.75-1.213h-.666Z" transform="translate(-322.718 -8849.13)"/>
        <path id="Trazado_111686" data-name="Trazado 111686" d="M358.761,8864.742a15.447,15.447,0,0,1,2.595-.192,4.307,4.307,0,0,1,2.785.691,2.155,2.155,0,0,1,.806,1.8,2.282,2.282,0,0,1-1.522,2.109v.039a2.151,2.151,0,0,1,1.151,1.6c.267.984.523,2.108.689,2.441h-1.994a11.514,11.514,0,0,1-.587-2.008c-.243-1.085-.615-1.365-1.418-1.38h-.575v3.388h-1.93Zm1.93,3.694h.766c.971,0,1.546-.485,1.546-1.24,0-.781-.536-1.188-1.431-1.188a4.033,4.033,0,0,0-.881.063Z" transform="translate(-322.243 -8849.13)"/>
        <path id="Trazado_111687" data-name="Trazado 111687" d="M369.508,8873.373c-2.543,0-4.051-1.93-4.051-4.383,0-2.582,1.661-4.513,4.192-4.513,2.645,0,4.09,1.981,4.09,4.358,0,2.838-1.7,4.537-4.217,4.537Zm.1-1.547c1.316,0,2.07-1.238,2.07-2.926,0-1.547-.729-2.877-2.07-2.877s-2.1,1.306-2.1,2.916.779,2.887,2.083,2.887Z" transform="translate(-321.804 -8849.134)"/>
        <path id="Trazado_111688" data-name="Trazado 111688" d="M374.516,8871.225a4.905,4.905,0,0,0,2.16.538c.9,0,1.368-.372,1.368-.934,0-.538-.409-.843-1.444-1.2-1.432-.51-2.378-1.3-2.378-2.556,0-1.469,1.24-2.58,3.259-2.58a5.052,5.052,0,0,1,2.2.434l-.435,1.56a4.024,4.024,0,0,0-1.789-.411c-.844,0-1.253.4-1.253.833,0,.55.473.791,1.6,1.215,1.522.561,2.224,1.354,2.224,2.566,0,1.445-1.1,2.672-3.463,2.672a5.633,5.633,0,0,1-2.441-.537Z" transform="translate(-321.236 -8849.133)"/>
      </g>
    </g>
  </g>
</svg>
