<svg xmlns="http://www.w3.org/2000/svg" width="590.022" height="423.653" viewBox="0 0 590.022 423.653">
  <g id="Grupo_57746" data-name="Grupo 57746" transform="translate(-324.5 -5713.638)">
    <g id="Grupo_56948" data-name="Grupo 56948" transform="translate(-337.841 -262.331)">
      <rect id="Rectángulo_10476" data-name="Rectángulo 10476" width="298" height="312.361" rx="23.352" transform="translate(662.341 5975.969)" fill="#fff"/>
      <g id="Grupo_56845" data-name="Grupo 56845" transform="translate(778.468 6212.899)">
        <path id="Trazado_110990" data-name="Trazado 110990" d="M722.868,6192.245a22.259,22.259,0,0,1,3.7-.251,5.692,5.692,0,0,1,3.7.985,3.423,3.423,0,0,1,1.291,2.782,3.742,3.742,0,0,1-1.111,2.87,5.7,5.7,0,0,1-3.929,1.274,4.623,4.623,0,0,1-.933-.073v4.342h-2.709Zm2.709,5.489a4.073,4.073,0,0,0,.915.072c1.453,0,2.35-.736,2.35-1.956,0-1.112-.771-1.777-2.153-1.777a4.776,4.776,0,0,0-1.112.091Z" transform="translate(-722.868 -6191.993)"/>
        <path id="Trazado_110991" data-name="Trazado 110991" d="M735.115,6192.074v12.092h-2.727v-12.092Z" transform="translate(-721.947 -6191.985)"/>
        <path id="Trazado_110992" data-name="Trazado 110992" d="M737.032,6204.166v-12.092h3.2l2.512,4.433a38.063,38.063,0,0,1,1.973,4.143h.036a49.629,49.629,0,0,1-.216-5.059v-3.517h2.512v12.092h-2.87l-2.583-4.663a42.687,42.687,0,0,1-2.1-4.271h-.072c.09,1.615.126,3.318.126,5.293v3.641Z" transform="translate(-721.497 -6191.985)"/>
        <path id="Trazado_110993" data-name="Trazado 110993" d="M747.633,6202.695l5.759-8.306v-.053h-5.238v-2.262h8.773v1.58l-5.634,8.181v.072h5.723v2.259h-9.383Z" transform="translate(-720.471 -6191.985)"/>
        <path id="Trazado_110994" data-name="Trazado 110994" d="M760.766,6201.062l-.843,3.1h-2.834l3.695-12.092h3.57l3.769,12.092h-2.943l-.933-3.1Zm3.068-2.044-.753-2.565c-.2-.717-.412-1.633-.592-2.333h-.054c-.16.719-.359,1.633-.537,2.333l-.736,2.565Z" transform="translate(-719.556 -6191.985)"/>
        <path id="Trazado_110995" data-name="Trazado 110995" d="M779.116,6199.053h-4.45v2.872h4.969v2.241h-7.7v-12.092h7.445v2.243h-4.718v2.512h4.45Z" transform="translate(-718.119 -6191.985)"/>
        <path id="Trazado_110996" data-name="Trazado 110996" d="M780.659,6204.166v-12.092h3.193l2.513,4.433a37.841,37.841,0,0,1,1.972,4.143h.037a49.611,49.611,0,0,1-.216-5.059v-3.517h2.512v12.092H787.8l-2.583-4.663a42.634,42.634,0,0,1-2.1-4.271h-.072c.09,1.615.125,3.318.125,5.293v3.641Z" transform="translate(-717.275 -6191.985)"/>
        <path id="Trazado_110997" data-name="Trazado 110997" d="M722.868,6211.891a21.282,21.282,0,0,1,3.534-.269,6.678,6.678,0,0,1,3.57.681,2.623,2.623,0,0,1,1.436,2.386,2.749,2.749,0,0,1-1.973,2.565v.037a3.011,3.011,0,0,1,2.4,2.978,3.172,3.172,0,0,1-1.255,2.567c-.88.7-2.35,1.093-4.754,1.093a21.1,21.1,0,0,1-2.96-.178Zm2.709,4.61h.9c1.454,0,2.207-.592,2.207-1.489,0-.915-.7-1.4-1.936-1.4a5.166,5.166,0,0,0-1.167.09Zm0,5.365a5.782,5.782,0,0,0,1.058.054c1.238,0,2.332-.485,2.332-1.758,0-1.22-1.093-1.706-2.457-1.706h-.933Z" transform="translate(-722.868 -6190.094)"/>
        <path id="Trazado_110998" data-name="Trazado 110998" d="M732.747,6211.891a21.515,21.515,0,0,1,3.643-.269,6.051,6.051,0,0,1,3.91.968,3.03,3.03,0,0,1,1.131,2.529,3.2,3.2,0,0,1-2.135,2.961v.052a3.021,3.021,0,0,1,1.615,2.243c.376,1.38.735,2.96.967,3.426h-2.8a16.22,16.22,0,0,1-.825-2.817c-.342-1.525-.861-1.919-1.992-1.937h-.807v4.754h-2.71Zm2.71,5.186h1.076c1.364,0,2.172-.682,2.172-1.741,0-1.095-.755-1.669-2.009-1.669a5.431,5.431,0,0,0-1.238.09Z" transform="translate(-721.912 -6190.094)"/>
        <path id="Trazado_110999" data-name="Trazado 110999" d="M749.64,6218.682h-4.45v2.87h4.971v2.243h-7.7V6211.7h7.446v2.243h-4.719v2.512h4.45Z" transform="translate(-720.972 -6190.086)"/>
        <path id="Trazado_111000" data-name="Trazado 111000" d="M753.7,6214H750.43v-2.3h9.294v2.3h-3.3v9.8H753.7Z" transform="translate(-720.201 -6190.086)"/>
        <path id="Trazado_111001" data-name="Trazado 111001" d="M767.42,6218.682h-4.448v2.87h4.969v2.243h-7.7V6211.7h7.445v2.243h-4.717v2.512h4.448Z" transform="translate(-719.251 -6190.086)"/>
        <path id="Trazado_111002" data-name="Trazado 111002" d="M768.979,6211.7h2.727v9.8h4.808v2.3h-7.535Z" transform="translate(-718.406 -6190.086)"/>
      </g>
      <path id="Trazado_111026" data-name="Trazado 111026" d="M715.085,6195.918a.579.579,0,0,1-.1-.01.549.549,0,0,1-.44-.465h0s-.4-1.2-4.133-2.613c-4.119-1.557-12.162-.738-12.243-.73a.554.554,0,0,1-.54-.285l-.668-1.24L689.732,6175c-3.6-.2-10.56,3.458-10.631,3.5-.009.017-8.287,6.326-9.756,8.072-.635.751-.619,1-.618,1.005.047.033.353.191,1.818.191,2.058,0,6.89-2.035,6.939-2.056l.428,1.01c-.206.087-5.089,2.142-7.367,2.142-1.537,0-2.491-.138-2.819-.845s.245-1.522.778-2.156c1.548-1.837,9.661-8.022,10.007-8.284.387-.216,7.789-4.13,11.656-3.638a.554.554,0,0,1,.428.314l7.343,15.833.479.889c1.674-.146,8.488-.639,12.378.83a10.824,10.824,0,0,1,4.266,2.487l7.652-13.592a.553.553,0,0,1,.069-.1l.688-.763L720.36,6157.2c-.469-3.13-2.015-11.628-3.487-13.249-1.974-2.169-6.628-13.578-6.628-17.917,0-4.156.377-18.373.381-18.516.048-.365,4.329-30.429,4.453-36.43l1.1.023c-.125,6.067-4.282,35.259-4.458,36.5,0,.08-.375,14.283-.375,18.423,0,4.057,4.5,15.157,6.343,17.18,1.962,2.158,3.582,12.643,3.76,13.83l3.149,22.9a.555.555,0,0,1-.135.442l-.819.907-8.077,14.349A.55.55,0,0,1,715.085,6195.918Z" transform="translate(50.254 9.205)" fill="#999"/>
      <path id="Trazado_111027" data-name="Trazado 111027" d="M707.253,6204.481a36.684,36.684,0,0,1-18.8-9.313l.786-.765a36.29,36.29,0,0,0,18.2,9Z" transform="translate(52.27 21.139)" fill="#999"/>
      <rect id="Rectángulo_10477" data-name="Rectángulo 10477" width="1.096" height="17.65" transform="translate(725.295 6191.132) rotate(-31.973)" fill="#999"/>
      <path id="Trazado_111028" data-name="Trazado 111028" d="M669.882,6187.265l-13.751-27.085c-.07-.176-4.7-12.355-6.1-14.963a59.977,59.977,0,0,0-3.774-5.848c-.121-.191-2.372-3.88-.6-6.851,1.586-2.661,3.857-7.668,3.881-7.719l4.038-6.548a.653.653,0,0,1,.073-.094c14.7-15.118,36.592-38.925,36.659-42.545l1.1.021c-.1,5.2-32.957,39.162-36.927,43.247l-3.974,6.435c-.061.145-2.288,5.052-3.906,7.765-1.429,2.395.546,5.644.567,5.676A60.024,60.024,0,0,1,651,6144.7c1.431,2.672,5.941,14.534,6.133,15.038l13.727,27.032Z" transform="translate(48.063 9.643)" fill="#999"/>
      <path id="Trazado_111029" data-name="Trazado 111029" d="M676.119,6095.349l-.967-.516c.146-.274,14.682-27.484,19.78-35.05,5.179-7.687,21.039-13.689,21.713-13.942.2-.073,19.974-7.347,23.763-10.765l.735.813c-3.944,3.559-23.3,10.68-24.118,10.981-.157.06-16.2,6.13-21.182,13.526C690.775,6067.915,676.265,6095.077,676.119,6095.349Z" transform="translate(50.982 5.72)" fill="#999"/>
      <path id="Trazado_111030" data-name="Trazado 111030" d="M660.034,6163.579l-8.487-30.667,1.056-.293,8.487,30.667Z" transform="translate(48.698 15.159)" fill="#999"/>
      <path id="Trazado_111031" data-name="Trazado 111031" d="M680.628,6134.688a14.128,14.128,0,0,1-6.177-1.877c-.16-.115-2.812-2.117-9.148-7.789-5.731-5.133-10.622-3.435-11.267-3.176-.983.829-3.248,3.211-2.867,5.1.23,1.146,1.407,2.046,3.5,2.674,7.844,2.352,10.44-1.292,10.546-1.449l.912.608c-.123.185-3.1,4.495-11.773,1.891-2.512-.754-3.946-1.935-4.262-3.508-.6-2.971,3.148-6.083,3.308-6.214a.481.481,0,0,1,.124-.077c.238-.106,5.932-2.558,12.512,3.335,6.29,5.632,9,7.674,9.023,7.694h0c.008,0,3.993,2.316,6.869,1.531l.29,1.059A6.047,6.047,0,0,1,680.628,6134.688Z" transform="translate(48.551 13.965)" fill="#999"/>
      <path id="Trazado_111032" data-name="Trazado 111032" d="M709.178,6093.833c-.019-.062-1.951-6.59-5.256-22.17-3.347-15.777.394-21.722.555-21.968l.917.6-.458-.3.46.3c-.036.057-3.636,5.887-.4,21.14,3.291,15.526,5.214,22.021,5.234,22.084Z" transform="translate(53.632 7.135)" fill="#999"/>
      <path id="Trazado_111033" data-name="Trazado 111033" d="M732.089,6178.478l-1.1-.041c.186-5.122-9.595-52.132-9.693-52.607l1.074-.223C722.777,6127.549,732.28,6173.223,732.089,6178.478Z" transform="translate(55.448 14.481)" fill="#999"/>
      <path id="Trazado_111034" data-name="Trazado 111034" d="M775.408,6180.054h-1.1v-7.412c1.9-11.418,9.852-46.689,9.932-47.044l1.069.241c-.079.354-8.029,35.595-9.913,46.893Z" transform="translate(60.578 14.48)" fill="#999"/>
      <path id="Trazado_111035" data-name="Trazado 111035" d="M693.219,6167.835s1.145,2,0,2.36-1.859.931-2.932-1.18-7.368-16.2-7.368-16.2a73.925,73.925,0,0,1-2.575-8.871,58.418,58.418,0,0,0-1.859-7.151s-.048-2.5.835-3.434,4.672-7.224,5.388-10.014,4.434-9.728,9.727-11.66a55.335,55.335,0,0,0,10.515-5.507l4.435-1.86h.429l-.358,3.362s-13.519,5.865-17.524,9.442-4.316,6.581-4.316,6.581-3.195,7.08-5.985,9.871c0,0-1,3.934-.286,5.078s3.29,12.186,3.29,12.186l6.438,13.708Z" transform="translate(51.305 12.42)" fill="#999"/>
      <path id="Trazado_111036" data-name="Trazado 111036" d="M799.655,6111.515l-1.1-.03c0-.1.257-10.278-1.972-16.687-2.293-6.592-2.32-19.792-2.32-20.352h1.1c0,.135.026,13.574,2.259,19.992C799.919,6101.038,799.668,6111.09,799.655,6111.515Z" transform="translate(62.51 9.53)" fill="#999"/>
      <path id="Trazado_111037" data-name="Trazado 111037" d="M797.315,6091.965l-1.078-.208c.339-1.754.59-3.134.819-4.4.74-4.087,1.277-7.041,3.9-17.658,3.326-13.441.089-19.376.056-19.433l.952-.546c.145.251,3.5,6.312.057,20.243-2.619,10.583-3.152,13.522-3.889,17.59C797.905,6088.824,797.654,6090.207,797.315,6091.965Z" transform="translate(62.7 7.137)" fill="#999"/>
      <path id="Trazado_111038" data-name="Trazado 111038" d="M788.078,6178.266l-2.18-.236,1.2-11.015c.019-.463.653-13.191,7.5-32.157,6.679-18.5,5.233-30.266,5.217-30.382l2.175-.291c.066.5,1.551,12.359-5.329,31.419-6.731,18.654-7.369,31.451-7.374,31.578Z" transform="translate(61.7 12.408)" fill="#999"/>
      <path id="Trazado_111039" data-name="Trazado 111039" d="M806.346,6208.43c-.048-.182-5.04-18.34-9.323-26.131-2.915-5.307-3.821-8.349-4.1-9.828-4.326,3.2-15.479,4.853-35.678,5.32-18.5.416-37.886-6.233-38.08-6.3l.36-1.037c.193.068,19.46,6.678,37.694,6.241,13.242-.3,31.354-1.229,35.744-5.7a.549.549,0,0,1,.938.428c0,.019-.09,2.757,4.082,10.349,4.344,7.907,9.214,25.622,9.419,26.371Z" transform="translate(55.242 18.821)" fill="#999"/>
      <path id="Trazado_111040" data-name="Trazado 111040" d="M793.077,6189.42l-.249-1.07c.521-.12,12.719-2.98,15.517-2.875,2.82.078,3.623-.075,3.739-.7.2-1.066,3.419-11.124,5.305-14.151l-1.18-.615a2.635,2.635,0,0,1-1.058-2.262c-.1-1.47,4.182-9.863,5.5-12.4.417-.76,10.1-18.342,12.344-20.2l.7.846c-1.733,1.432-9.3,14.829-12.076,19.871-2.665,5.146-5.407,10.979-5.37,11.812.07,1.068.5,1.379.508,1.382l1.7.885a.545.545,0,0,1,.285.386.538.538,0,0,1-.128.462c-1.5,1.7-5.228,13-5.451,14.187-.321,1.709-2.413,1.656-4.846,1.592C805.727,6186.478,793.2,6189.39,793.077,6189.42Z" transform="translate(62.37 15.404)" fill="#999"/>
      <path id="Trazado_111041" data-name="Trazado 111041" d="M831.911,6136.258a10.83,10.83,0,0,1-3.491-.584c-5.659-1.92-8.669-14.491-8.669-15.875a4.814,4.814,0,0,0-2.035-3.258c-.815-.516-12.278-6.51-18.226-9.607l.506-.973c.705.366,17.251,8.982,18.31,9.656a5.817,5.817,0,0,1,2.542,4.182c0,1.106,2.932,13.14,7.926,14.835a10.109,10.109,0,0,0,8.924-1.341l9.364-6.786c1.064-.55,9.841-4.9,12.616-2.342,1.419,1.315,2.1,2.342,2.094,3.142a1.147,1.147,0,0,1-.065.371,2.756,2.756,0,0,1-.213,2.075,2.8,2.8,0,0,1-2.219,1.217c-.985.117-2.375.251-3.873.4-2.853.274-6.087.586-7.626.893l-.215-1.075c1.595-.319,4.857-.633,7.736-.909,1.488-.144,2.869-.276,3.848-.394a1.436,1.436,0,0,0,1.46-2.063.553.553,0,0,1,.069-.519c0-.115-.077-.787-1.741-2.327s-7.819.7-11.3,2.47l-9.274,6.728A11.151,11.151,0,0,1,831.911,6136.258Zm28.843-9.049Zm0,0h0Zm0,0h0Zm0,0h0Z" transform="translate(63.015 12.58)" fill="#999"/>
      <path id="Trazado_111042" data-name="Trazado 111042" d="M819.878,6119.233c-1.791-5.787-13.445-15.666-13.563-15.765l.706-.837c.489.412,12.018,10.188,13.9,16.28Z" transform="translate(63.676 12.257)" fill="#999"/>
      <path id="Trazado_111043" data-name="Trazado 111043" d="M755.749,6052.451c-20.15-.577-21.807-12.006-21.869-12.495l1.088-.137c.059.449,1.657,10.989,20.739,11.538.1-.015,16.794-1.844,17.948-8.322a.5.5,0,0,1,.049-.148,4.79,4.79,0,0,0,.521-2.337l1.083-.18a5.763,5.763,0,0,1-.588,2.932C773.318,6050.525,756.468,6052.375,755.749,6052.451Z" transform="translate(56.666 6.179)" fill="#999"/>
      <path id="Trazado_111044" data-name="Trazado 111044" d="M771.29,6043.819c-7.955-5.891-7.92-34.3-7.914-35.507l2.194.011c-.034,7.91,1.16,29.391,7.025,33.733Z" transform="translate(59.52 3.13)" fill="#999"/>
      <path id="Trazado_111045" data-name="Trazado 111045" d="M770.071,6021.016a4.138,4.138,0,0,1-2.754-1.283,2.414,2.414,0,0,0-1.172-.728l-1.555-.17.238-2.181,1.555.169a4.314,4.314,0,0,1,2.372,1.251c.567.49.926.793,1.368.747a21.428,21.428,0,0,0,5.433-1.609.96.96,0,0,1,.451-.09c.048,0,4.965.076,7.672-.018,1.78-.062,1.99-2.067,2-2.154a1.089,1.089,0,0,1,.23-.575l5.245-6.676,1.724,1.355-5.062,6.442a4.318,4.318,0,0,1-4.059,3.8c-2.453.085-6.53.036-7.55.022a22.6,22.6,0,0,1-5.982,1.695Z" transform="translate(59.638 3.071)" fill="#999"/>
      <path id="Trazado_111046" data-name="Trazado 111046" d="M817.2,6167.247l13.924,7.151,2.1-1.048s2.1-1.049,3.434,1.526.858,1.4.858,1.4,2.1-2.644-4.863-7.508-13.925-4.959-16.882-2.861Z" transform="translate(64.59 18.255)" fill="#999"/>
      <path id="Trazado_111047" data-name="Trazado 111047" d="M810.97,6247.335h-5.008l-3.79-24.893s15.235-4.434,18.239-11.158,12.227-23.141,14.306-23.94l2.289,1.864,6.437,3.051s9.585-14.592,12.16-25.036c0,0,5.293-13.017,5.723-19.169s2.145-5.362,2.145-5.362-1.144,4.79-1.144,5.362,6.581-6.151,6.151-8.3-5.149-16.88-11.015-22.03-15.736-15.593-15.736-15.593-11.445-10.3-13.877-16.881c0,0,6.247,9.012,7.916,9.012s-4.673-8.153-4.673-8.153L820.936,6067.7s-8.25-14.305-19.409-17.453-18.741-6.151-20.982-8.011-7.391-6.1-11.635-5.961l-1.13-2.05A18.623,18.623,0,0,1,780.5,6035.9c6.343,3.434,17.691,8.06,24.988,9.156s15.069,9.108,15.069,9.108l7.677,12.875s4.721,13.018,5.007,15.021c0,0-5.246-7.582-6.962-9.2,0,0-1.192-.381-.811.764s11.11,19.742,14.735,20.218,19.456,17.549,19.456,17.549,10.324,8.2,13.113,16.68,3.076,8.975,3.076,8.975,1.574,2.026,1.144,3.517a2.559,2.559,0,0,1-2.575,2.137c-1.215,0-2.431-.5-2.789.57s.5,3.075-.573,4.219-4.434,8.656-4.434,8.656-2.862,7.438-3.076,8.154-.786,6.509-2.432,9.013-4.435,10.657-4.435,10.657-3.933,10.157-6.938,13.519-5.651,6.509-8.011,7.153.358-3.076.358-3.076l1.716-2.861s.93-1.717-.071-2.36-5.436-2.432-5.579-2.791-1.979-.714-2.384.216-8.488,20.1-8.488,20.1a9.274,9.274,0,0,1-4.855,5.626c-3.8,1.669-13.814,5.532-13.814,5.532Z" transform="translate(59.947 5.594)" fill="#999"/>
    </g>
    <g id="Grupo_56947" data-name="Grupo 56947" transform="translate(449.624 -410.535)">
      <rect id="Rectángulo_10486" data-name="Rectángulo 10486" width="241.043" height="423.652" rx="20.87" transform="translate(223.854 6124.174)" fill="#fff"/>
      <g id="Grupo_56863" data-name="Grupo 56863">
        <path id="Trazado_111070" data-name="Trazado 111070" d="M405.118,6388.183l-7.2-17.893v-6.03l6.517-40.712L413.3,6283v-16.078s2.887-7.915,3.127-20.9-.962-18.179-2.886-23.5l-18.519-6.679-14.271-5.07s-11.865-2.8-11.384-17.149l-.8-22.591-15.032,3.1-15.032-3.1.08,22.549c.481,14.346-12.266,17.191-12.266,17.191l-14.27,5.07-17.918,4.947c-1.925,5.318-3.728,12.244-3.488,25.229s3.127,20.9,3.127,20.9V6283l8.862,40.542h0l1.292,5.911,7.449,34.8v7s-13.226,28.008-14.587,50.375v111.056h119.65l-1.591-92.968S414.648,6405.1,405.118,6388.183Z" fill="#fff" stroke="#000" stroke-miterlimit="10" stroke-width="1" opacity="0.33"/>
        <g id="Grupo_56861" data-name="Grupo 56861">
          <path id="Trazado_111071" data-name="Trazado 111071" d="M396.17,6371.765l-2.24-2.64,2.1-2.272-2-2.563.722-.562,2.476,3.176-2.078,2.248,1.716,2.023Z" fill="#999"/>
          <path id="Trazado_111072" data-name="Trazado 111072" d="M393.649,6371.765l-2.24-2.64,2.1-2.272-2-2.563.722-.562,2.476,3.176-2.078,2.248,1.716,2.023Z" fill="#999"/>
          <path id="Trazado_111073" data-name="Trazado 111073" d="M391.128,6371.765l-2.24-2.64,2.1-2.272-2-2.563.722-.562,2.476,3.176-2.078,2.248,1.716,2.023Z" fill="#999"/>
          <path id="Trazado_111074" data-name="Trazado 111074" d="M388.607,6371.765l-2.24-2.64,2.1-2.272-2-2.563.722-.562,2.476,3.176-2.078,2.248,1.716,2.023Z" fill="#999"/>
          <path id="Trazado_111075" data-name="Trazado 111075" d="M386.086,6371.765l-2.24-2.64,2.1-2.272-2-2.563.722-.562,2.476,3.176-2.078,2.248,1.716,2.023Z" fill="#999"/>
          <path id="Trazado_111076" data-name="Trazado 111076" d="M383.565,6371.765l-2.24-2.64,2.1-2.272-2-2.563.722-.562,2.476,3.176-2.078,2.248,1.716,2.023Z" fill="#999"/>
          <path id="Trazado_111077" data-name="Trazado 111077" d="M381.044,6371.765l-2.24-2.64,2.1-2.272-2-2.563.722-.562,2.476,3.176-2.078,2.248,1.716,2.023Z" fill="#999"/>
          <path id="Trazado_111078" data-name="Trazado 111078" d="M378.523,6371.765l-2.24-2.64,2.1-2.272-2-2.563.722-.562,2.476,3.176-2.078,2.248,1.716,2.023Z" fill="#999"/>
          <path id="Trazado_111079" data-name="Trazado 111079" d="M376,6371.765l-2.24-2.64,2.1-2.272-2-2.563.722-.562,2.476,3.176-2.078,2.248,1.716,2.023Z" fill="#999"/>
          <path id="Trazado_111080" data-name="Trazado 111080" d="M373.481,6371.765l-2.24-2.64,2.1-2.272-2-2.563.722-.562,2.476,3.176-2.078,2.248,1.716,2.023Z" fill="#999"/>
          <path id="Trazado_111081" data-name="Trazado 111081" d="M370.96,6371.765l-2.24-2.64,2.1-2.272-2-2.563.722-.562,2.476,3.176-2.078,2.248,1.716,2.023Z" fill="#999"/>
          <path id="Trazado_111082" data-name="Trazado 111082" d="M368.439,6371.765l-2.24-2.64,2.1-2.272-2-2.563.722-.562,2.476,3.176-2.078,2.248,1.716,2.023Z" fill="#999"/>
          <path id="Trazado_111083" data-name="Trazado 111083" d="M365.918,6371.765l-2.24-2.64,2.1-2.272-2-2.563.722-.562,2.476,3.176-2.078,2.248,1.716,2.023Z" fill="#999"/>
          <path id="Trazado_111084" data-name="Trazado 111084" d="M363.4,6371.765l-2.24-2.64,2.1-2.272-2-2.563.722-.562,2.476,3.176-2.078,2.248,1.716,2.023Z" fill="#999"/>
          <path id="Trazado_111085" data-name="Trazado 111085" d="M360.876,6371.765l-2.24-2.64,2.1-2.272-2-2.563.722-.562,2.476,3.176-2.078,2.248,1.716,2.023Z" fill="#999"/>
          <path id="Trazado_111086" data-name="Trazado 111086" d="M358.355,6371.765l-2.24-2.64,2.1-2.272-2-2.563.722-.562,2.476,3.176-2.078,2.248,1.716,2.023Z" fill="#999"/>
          <path id="Trazado_111087" data-name="Trazado 111087" d="M355.833,6371.765l-2.24-2.64,2.1-2.272-2-2.563.722-.562,2.476,3.176-2.078,2.248,1.716,2.023Z" fill="#999"/>
          <path id="Trazado_111088" data-name="Trazado 111088" d="M353.312,6371.765l-2.24-2.64,2.1-2.272-2-2.563.722-.562,2.476,3.176-2.078,2.248,1.716,2.023Z" fill="#999"/>
          <path id="Trazado_111089" data-name="Trazado 111089" d="M350.791,6371.765l-2.24-2.64,2.1-2.272-2-2.563.722-.562,2.476,3.176-2.078,2.248,1.716,2.023Z" fill="#999"/>
          <path id="Trazado_111090" data-name="Trazado 111090" d="M348.27,6371.765l-2.24-2.64,2.1-2.272-2-2.563.722-.562,2.476,3.176-2.078,2.248,1.716,2.023Z" fill="#999"/>
          <path id="Trazado_111091" data-name="Trazado 111091" d="M345.749,6371.765l-2.24-2.64,2.1-2.272-2-2.563.722-.562,2.476,3.176-2.078,2.248,1.716,2.023Z" fill="#999"/>
          <path id="Trazado_111092" data-name="Trazado 111092" d="M343.228,6371.765l-2.24-2.64,2.1-2.272-2-2.563.722-.562,2.476,3.176-2.078,2.248,1.716,2.023Z" fill="#999"/>
          <path id="Trazado_111093" data-name="Trazado 111093" d="M340.707,6371.765l-2.24-2.64,2.1-2.272-2-2.563.722-.562,2.476,3.176-2.078,2.248,1.716,2.023Z" fill="#999"/>
          <path id="Trazado_111094" data-name="Trazado 111094" d="M338.186,6371.765l-2.24-2.64,2.1-2.272-2-2.563.722-.562,2.476,3.176-2.078,2.248,1.716,2.023Z" fill="#999"/>
          <path id="Trazado_111095" data-name="Trazado 111095" d="M335.665,6371.765l-2.24-2.64,2.1-2.272-2-2.563.722-.562,2.476,3.176-2.078,2.248,1.716,2.023Z" fill="#999"/>
          <path id="Trazado_111096" data-name="Trazado 111096" d="M333.144,6371.765l-2.24-2.64,2.1-2.272-2-2.563.722-.562,2.476,3.176-2.078,2.248,1.716,2.023Z" fill="#999"/>
          <path id="Trazado_111097" data-name="Trazado 111097" d="M330.623,6371.765l-2.24-2.64,2.1-2.272-2-2.563.722-.562,2.476,3.176-2.078,2.248,1.716,2.023Z" fill="#999"/>
          <path id="Trazado_111098" data-name="Trazado 111098" d="M328.1,6371.765l-2.24-2.64,2.1-2.272-2-2.563.722-.562,2.476,3.176-2.078,2.248,1.716,2.023Z" fill="#999"/>
          <path id="Trazado_111099" data-name="Trazado 111099" d="M325.581,6371.765l-2.24-2.64,2.1-2.272-2-2.563.722-.562,2.476,3.176-2.078,2.248,1.716,2.023Z" fill="#999"/>
          <path id="Trazado_111100" data-name="Trazado 111100" d="M323.06,6371.765l-2.24-2.64,2.1-2.272-2-2.563.722-.562,2.476,3.176-2.078,2.248,1.716,2.023Z" fill="#999"/>
          <path id="Trazado_111101" data-name="Trazado 111101" d="M320.539,6371.765l-2.24-2.64,2.1-2.272-2-2.563.722-.562,2.476,3.176-2.078,2.248,1.716,2.023Z" fill="#999"/>
          <path id="Trazado_111102" data-name="Trazado 111102" d="M318.018,6371.765l-2.24-2.64,2.1-2.272-2-2.563.722-.562,2.476,3.176L317,6369.151l1.716,2.023Z" fill="#999"/>
          <path id="Trazado_111103" data-name="Trazado 111103" d="M315.5,6371.765l-2.24-2.64,2.1-2.272-2-2.563.722-.562,2.476,3.176-2.078,2.248,1.716,2.023Z" fill="#999"/>
          <path id="Trazado_111104" data-name="Trazado 111104" d="M312.976,6371.765l-2.24-2.64,2.1-2.272-2-2.563.722-.562,2.476,3.176-2.078,2.248,1.716,2.023Z" fill="#999"/>
        </g>
        <path id="Trazado_111105" data-name="Trazado 111105" d="M338.537,6180.6s3.573,4.7,15.96,4.081,14.361-5.439,14.361-5.439" fill="none" stroke="#999" stroke-miterlimit="10" stroke-width="1"/>
        <line id="Línea_275" data-name="Línea 275" x2="115.979" transform="translate(295.282 6289.933)" fill="none" stroke="#999" stroke-miterlimit="10" stroke-width="1"/>
        <line id="Línea_276" data-name="Línea 276" x2="119.213" transform="translate(293.768 6283.005)" fill="none" stroke="#999" stroke-miterlimit="10" stroke-width="1"/>
        <line id="Línea_277" data-name="Línea 277" y2="40.728" transform="translate(353.539 6289.933)" fill="none" stroke="#999" stroke-miterlimit="10" stroke-width="1"/>
        <path id="Trazado_111106" data-name="Trazado 111106" d="M391.328,6214.538s.839,3.538-.364,23.45L390.518,6283" fill="none" stroke="#999" stroke-miterlimit="10" stroke-width="1"/>
        <path id="Trazado_111107" data-name="Trazado 111107" d="M390.518,6289.932l-6.679,41.486-5.951,32.648v7s11.646,24.117,12.63,70.99,2.541,90.635,2.541,90.635" fill="none" stroke="#999" stroke-miterlimit="10" stroke-width="1"/>
        <path id="Trazado_111108" data-name="Trazado 111108" d="M317.208,6289.932l6.5,40.728,6.72,33.017v7.585s-10.308,35.009-11.475,60.1-.194,60.294-.194,60.294l.194,41.038" fill="none" stroke="#999" stroke-miterlimit="10" stroke-width="1"/>
        <line id="Línea_278" data-name="Línea 278" x1="3.063" y1="354.975" transform="translate(352.555 6177.718)" fill="none" stroke="#999" stroke-miterlimit="10" stroke-width="1"/>
        <path id="Trazado_111109" data-name="Trazado 111109" d="M316.945,6214.538s-.838,3.538.365,23.45l.445,45.017" fill="none" stroke="#999" stroke-miterlimit="10" stroke-width="1"/>
        <path id="Trazado_111110" data-name="Trazado 111110" d="M334.748,6205.524s4.28,14.325,19.37,14.243,18.818-14.243,18.818-14.243" fill="none" stroke="#999" stroke-miterlimit="10" stroke-width="1"/>
        <path id="Trazado_111111" data-name="Trazado 111111" d="M390.6,6286.9l3.686-4.044,2.161.169s.922.094.738-.727l-2.428-3s-1.136-1.264-1.505.19l-.123,2.527-3.29,3.965-.4,1.249Z" fill="#666"/>
        <ellipse id="Elipse_4436" data-name="Elipse 4436" cx="15.032" cy="6.678" rx="15.032" ry="6.678" transform="translate(338.503 6164.361)" fill="#fff" stroke="#999" stroke-miterlimit="10" stroke-width="1"/>
        <g id="Grupo_56862" data-name="Grupo 56862">
          <path id="Trazado_111112" data-name="Trazado 111112" d="M360.635,6152.037c0-5.252-3.1-9.51-6.913-9.51s-6.912,4.258-6.912,9.51c0,4.108,1.9,7.6,4.547,8.927v9.094h5.223v-9.368C358.97,6159.193,360.635,6155.886,360.635,6152.037Z" fill="#fff" stroke="#999" stroke-miterlimit="10" stroke-width="1"/>
          <rect id="Rectángulo_10487" data-name="Rectángulo 10487" width="16.211" height="2.78" rx="1.209" transform="translate(345.894 6154.007)" fill="#fff" stroke="#999" stroke-miterlimit="10" stroke-width="1"/>
          <rect id="Rectángulo_10488" data-name="Rectángulo 10488" width="16.211" height="2.78" rx="1.209" transform="translate(345.894 6148.699)" fill="#fff" stroke="#999" stroke-miterlimit="10" stroke-width="1"/>
        </g>
        <line id="Línea_279" data-name="Línea 279" x2="86.064" transform="translate(311.371 6364.26)" fill="#fff" stroke="#000" stroke-miterlimit="10" stroke-width="1" opacity="0.33"/>
        <line id="Línea_280" data-name="Línea 280" x2="86.064" transform="translate(311.371 6371.262)" fill="#fff" stroke="#000" stroke-miterlimit="10" stroke-width="1" opacity="0.33"/>
        <path id="Trazado_111113" data-name="Trazado 111113" d="M294.7,6221.181s3.555,31.376-.32,45.739" fill="none" stroke="#000" stroke-miterlimit="10" stroke-width="1" opacity="0.33"/>
        <path id="Trazado_111114" data-name="Trazado 111114" d="M413.542,6222.529s-4.116,30.035-.241,44.4" fill="none" stroke="#000" stroke-miterlimit="10" stroke-width="1" opacity="0.33"/>
        <path id="Trazado_111115" data-name="Trazado 111115" d="M316.6,6286.126l-3.687-4.045-2.161.169s-.921.1-.737-.727l2.427-3s1.137-1.264,1.506.189l.122,2.528,3.291,3.965.4,1.248Z" fill="#666"/>
        <path id="Trazado_111116" data-name="Trazado 111116" d="M272.438,6311.958l.652-22.026s.131-7.453,1.565-10.583,2.87-9.131,2.609-17.087a114.784,114.784,0,0,0-1.174-13.491s0-9.6,2.87-10.509,6.913-2.348,7.3-3.391-8.609-7.044-8.609-7.044-4.956.4-5.217-6.646,12.652-11.354,12.652-11.354l16.174-6.13s5.739-3.131,10.044-2.348,13.043-1.435,13.043-1.435,14.739-3.652,15.652-3.13,9.261-1.957,9.261-1.957L359.308,6193s4.565-.565,5.217,1.022-.652,6.333-.522,8.982-.261,48.692-.261,48.692l-2.585,67.391s-2.845,46.087-2.521,63.826,0,50.435,0,50.435.019,3.043-1.937,3.761-3.457.848-3.848.326-3.13-.018-3.326.317-2.609,2.1-4.044.6-5.673-2.348-5.673-2.348l-7.566.457-2.217,1.173s-.522,1.194-3.783,1.314-11.478-.4-11.478-.4-4.37.13-5.413,1.3a3.381,3.381,0,0,1-3.587.652c-.587-.326-2.935-1.826-4.37-1.7s-6.326.2-8.934-.717-2.674-1.3-6.066-.913c0,0-6.521-.13-7.869.348s-1.913,1.174-3.3,1.348-2.783-1-4.131.087a7.584,7.584,0,0,1-3.913,1.391c-.348-.044-1.3-.609-2.261,1.043s-3.217.7-3.217.7-.174-.739-1.391.7a12.888,12.888,0,0,1-2.7,2.347l1.087-10.3s1.652-18,2.435-34.174.087-40.087.087-40.087l-2.348-41.043-3.826-47.131-1.653-30.869-1.565-21.756s.87-2.331,2.522.712l4.7,4.7,3.217,3.391s2.609,2.609,2.522,4.783-2.435,5.826-2.435,5.826l-5.478,9.13s-1.565.7-.087,1.826,3.478.522,4.956,1.392,2.609,1.478,3.3,2.869,1.391,7.044,1.391,7.044l.609,11.391s.869,10.783,1.565,12.261,2.348,13.652,2.348,13.652Z" fill="#999" stroke="#4d4d4d" stroke-linecap="round" stroke-linejoin="round" stroke-width="1" opacity="0.5"/>
        <path id="Trazado_111117" data-name="Trazado 111117" d="M315.134,6186.218s-2.261,3.922-8.522,3.787-8.99.192-12.234,2.9-8.636,2.185-8.636,2.185-11.826,1.043-18.261,4S252.873,6207.61,252.7,6209s0,6.783,0,6.783l-.077,1.565v1.043l3.99,4.348,4.847,4.978,2.468,3,.625,1.3-.386,3.679-4.685,8.965-2.608,3.648-.718.853.631.973,1.836.709,2.276.339,2.531,1.394,1.618,1.819,1.017,4.425.542,5.759.38,7.11.347,4.364.486,4.573.324,2.382,1.042,4.384,1.2,7.32,1.55,12.754.549,2.931.737-17.132.058-6.81.985-6.147,2.261-6.521.7-8.261-.261-8.7-.609-6.782.348-7.914,1.826-3.913,4.054-1.214,3.308-1.67.2-1.289-5.652-4.174-3.217-2.261h-1.305l-2.522-2-1.043-2.435.261-4.435,2.087-2.869,4.326-3.226,7.544-3.378,14.7-5.57,5.154-1.994,3.68-.469,5.376.2Z" fill="#999" stroke="#4d4d4d" stroke-linecap="round" stroke-linejoin="round" stroke-width="1"/>
        <path id="Trazado_111118" data-name="Trazado 111118" d="M287.308,6173.349s2.782,5.826,8.521,5.043,8,.783,8.435,1.3,2.261,4,4.87,3.3a10.3,10.3,0,0,1,5.13.092l.783,1.648s1.019,1.091-.688,2.442a19.942,19.942,0,0,1-3.291,2.119l-3.021.66H304.7s-4.449.258-4.794.323-2.969.928-2.969.928l-3.061,2.071-2.339,1.143-3.52.661-.491-.435Z" fill="#999" stroke="#4d4d4d" stroke-linecap="round" stroke-linejoin="round" stroke-width="1" opacity="0.5"/>
        <path id="Trazado_111119" data-name="Trazado 111119" d="M288.221,6437.958s.391,55.3.521,57.391-2.478-4.957-2.478-4.957-2.739-4.565-6.261-5.347-4.13-1.2-4.13-1.2-2.652-.739-2.479-2.957,6.022-4.782,6.022-4.782l5.413-2.413s1.7-1.174,1.435-2.152-2.87-3.131-2.87-3.131l-7.7-6.456s-3.652-3.718-5.935-3.718-6.065-.13-6.065-.13a4.934,4.934,0,0,1-3.131-3.065c-.978-2.544-2.543-6-2.543-6l-.522-3.327,3.065-2.543.64-1.206,1.621.684,1.869-.954,1.386-1.418,1.528.068,1.98-.553,1.5-.838,1.654-.446,2,.446,3.427-1.3,3.486-.461,4.218-.034,2.131-.132Z" fill="#999" stroke="#4d4d4d" stroke-linecap="round" stroke-linejoin="round" stroke-width="1"/>
        <path id="Trazado_111120" data-name="Trazado 111120" d="M275.894,6463.131l.261,13.957a14.76,14.76,0,0,0,4.005-1.31l3.78-1.685,2.04-1.519a12.929,12.929,0,0,1-.694-1.812c-.222-.82-3.049-3.319-3.049-3.319l-3.96-3.322-1.625-1.364Z" fill="#999" stroke="#4d4d4d" stroke-linecap="round" stroke-linejoin="round" stroke-width="1" opacity="0.5"/>
      </g>
    </g>
  </g>
</svg>
