<svg xmlns="http://www.w3.org/2000/svg" xmlns:xlink="http://www.w3.org/1999/xlink" width="205.797" height="324" viewBox="0 0 205.797 324">
  <defs>
    <clipPath id="clip-path">
      <rect id="Rectángulo_10538" data-name="Rectángulo 10538" width="205.797" height="324" fill="none"/>
    </clipPath>
  </defs>
  <g id="Grupo_56954" data-name="Grupo 56954" transform="translate(-452.21 -7849.473)">
    <rect id="Rectángulo_10535" data-name="Rectángulo 10535" width="205.797" height="324" rx="12.605" transform="translate(452.21 7849.473)" fill="#fff"/>
    <g id="Grupo_56953" data-name="Grupo 56953" transform="translate(452.21 7849.473)">
      <g id="Grupo_56952" data-name="Grupo 56952" clip-path="url(#clip-path)">
        <g id="Grupo_56951" data-name="Grupo 56951" transform="translate(11.131 11.875)">
          <path id="Trazado_111483" data-name="Trazado 111483" d="M602.488,7929.209l3.806,3.542-.632,1.463,1.317,1.293s3.515-1.946,3.629-4l-.738-1.162-1.879.838-4.45-2.992-1.056-.322-.536.5Z" transform="translate(-456.493 -7857.763)" fill="#999"/>
          <path id="Trazado_111484" data-name="Trazado 111484" d="M602.048,7929.125l-2.317,4.654,1.106,1.148-.778,1.672s-3.975-.585-4.805-2.471l.282-1.348,2.054.122,3.113-4.365.874-.673.677.275Z" transform="translate(-456.799 -7857.763)" fill="#999"/>
          <path id="Trazado_111485" data-name="Trazado 111485" d="M630.746,7933.574s-11.265-4.86-15.5-7.694c0,0-4.121-1.989-4.294-10.98s.519-15.215,1.9-19.452l1.729-6.569s-5.014-7.78-19.02-9.6c0,0-9.423-.865-11.585,1.382,0,0-5.706,21.354-13.487,30.863,0,0-1.642,6.312-18.933,9.856l-20.4,4.409s-9.424,1.988-10.893,9.683c0,0-5.706,6.138-2.593,28.961l.865,4.669,10.029,51.7,14.61,57.923.605,2.075v5.793s-16.254,23.255-18.155,40.546-1.481,95.142-1.481,95.142,67.859,8.184,107.619,2.727l-1.012-91.125a77.845,77.845,0,0,0-6.917-30.6l-7.435-14.006s-1.3-1.037-1.037-10.547l6.138-32.073,7.348-23.083,5.533-10.2s7.2-9.395,6.282-17.233l-2.651-9.221s-.346-12.1.115-16.6l3.343-11.988,1.152-10.835s.807-4.956-2.536-7.723A83.983,83.983,0,0,0,630.746,7933.574Z" transform="translate(-460.39 -7859.992)" fill="#fff" stroke="#999" stroke-miterlimit="10" stroke-width="0.75"/>
          <ellipse id="Elipse_4442" data-name="Elipse 4442" cx="2.334" cy="3.501" rx="2.334" ry="3.501" transform="translate(63.933 90.526)" fill="#999"/>
          <path id="Trazado_111486" data-name="Trazado 111486" d="M619.729,7928.464s4.4,3.2,5.615,15.648,1.47,19.191,5.533,32.16l4.334,16.4" transform="translate(-455.68 -7857.735)" fill="none" stroke="#999" stroke-miterlimit="10" stroke-width="0.75"/>
          <path id="Trazado_111487" data-name="Trazado 111487" d="M613.941,8072.678s-6.4,4.149-33.63,3.718-38.3-6.4-38.3-6.4" transform="translate(-459.234 -7851.263)" fill="none" stroke="#999" stroke-miterlimit="10" stroke-width="0.75"/>
          <path id="Trazado_111488" data-name="Trazado 111488" d="M613.9,8078.991s-8.126,6.225-33.63,5.361-37.261-6.83-37.261-6.83" transform="translate(-459.188 -7850.919)" fill="none" stroke="#999" stroke-miterlimit="10" stroke-width="0.75"/>
          <path id="Trazado_111489" data-name="Trazado 111489" d="M565.244,7913.418s11.5,14.956,25.5,18.067,19.6-10.345,19.6-10.345" transform="translate(-458.171 -7858.424)" fill="none" stroke="#999" stroke-miterlimit="10" stroke-width="0.75"/>
          <path id="Trazado_111490" data-name="Trazado 111490" d="M580.015,7887.184s13.2,9.336,28.9,8.414" transform="translate(-457.496 -7859.624)" fill="none" stroke="#999" stroke-miterlimit="10" stroke-width="0.75"/>
          <path id="Trazado_111491" data-name="Trazado 111491" d="M581.227,7881.341s15.677,10.836,30.547,8.069" transform="translate(-457.441 -7859.891)" fill="none" stroke="#999" stroke-miterlimit="10" stroke-width="0.75"/>
          <path id="Trazado_111492" data-name="Trazado 111492" d="M547.056,7920.8s8.415,1.729,13.717,17.982,15.331,38.039,15.331,38.039,7.954,10.374,6.109,20.634-3.112,31.7-3.112,31.7l1.037,53.139.691,19.6s2.767,28.473,2.191,41.5l.078,81.386" transform="translate(-459.003 -7858.085)" fill="none" stroke="#999" stroke-miterlimit="10" stroke-width="0.75"/>
          <path id="Trazado_111493" data-name="Trazado 111493" d="M603.771,8226.007s3.023-104.3-1.991-120.555-3.457-37.175-3.457-37.175l5.878-48.413s2.235-28.874.944-42.707-7.515-37-5.959-56.713l2.634-24.552" transform="translate(-456.669 -7859.225)" fill="none" stroke="#999" stroke-miterlimit="10" stroke-width="0.75"/>
          <path id="Trazado_111494" data-name="Trazado 111494" d="M636.8,7998.811l-26.022-4.323s-28.963-5.878-38.471-3.112-30.086,8.3-30.086,8.3l-2.767-9.04s26.455-11.709,48.672-7.905,48.673,7.263,48.673,7.263l1.642.26S640.167,7995.611,636.8,7998.811Z" transform="translate(-459.351 -7855.289)" fill="none" stroke="#999" stroke-miterlimit="10" stroke-width="0.75"/>
          <path id="Trazado_111495" data-name="Trazado 111495" d="M583.319,8084.271l-2.392-2.393,2.017-2.767-2.731-2.965" transform="translate(-457.487 -7850.982)" fill="none" stroke="#999" stroke-miterlimit="10" stroke-width="0.75"/>
          <path id="Trazado_111496" data-name="Trazado 111496" d="M586.906,8084.271l-2.392-2.393,2.017-2.767-2.731-2.965" transform="translate(-457.323 -7850.982)" fill="none" stroke="#999" stroke-miterlimit="10" stroke-width="0.75"/>
          <path id="Trazado_111497" data-name="Trazado 111497" d="M590.769,8084.271l-2.392-2.393,2.017-2.767-2.731-2.965" transform="translate(-457.146 -7850.982)" fill="none" stroke="#999" stroke-miterlimit="10" stroke-width="0.75"/>
          <path id="Trazado_111498" data-name="Trazado 111498" d="M594.424,8084.271l-2.392-2.393,2.017-2.767-2.731-2.965" transform="translate(-456.979 -7850.982)" fill="none" stroke="#999" stroke-miterlimit="10" stroke-width="0.75"/>
          <path id="Trazado_111499" data-name="Trazado 111499" d="M597.945,8083.667l-2.392-2.392,2.017-2.766-2.731-2.966" transform="translate(-456.818 -7851.01)" fill="none" stroke="#999" stroke-miterlimit="10" stroke-width="0.75"/>
          <path id="Trazado_111500" data-name="Trazado 111500" d="M564.028,8083.365l-2.151-2.535,2.273-2.457-2.433-3.12" transform="translate(-458.333 -7851.022)" fill="none" stroke="#999" stroke-miterlimit="10" stroke-width="0.75"/>
          <path id="Trazado_111501" data-name="Trazado 111501" d="M567.6,8083.722l-2.15-2.535,2.273-2.457-2.433-3.12" transform="translate(-458.169 -7851.006)" fill="none" stroke="#999" stroke-miterlimit="10" stroke-width="0.75"/>
          <path id="Trazado_111502" data-name="Trazado 111502" d="M571.44,8084.1l-2.151-2.535,2.273-2.456-2.433-3.12" transform="translate(-457.994 -7850.989)" fill="none" stroke="#999" stroke-miterlimit="10" stroke-width="0.75"/>
          <path id="Trazado_111503" data-name="Trazado 111503" d="M552.872,8081.018l-2.151-2.535,2.273-2.457-2.433-3.119" transform="translate(-458.843 -7851.13)" fill="none" stroke="#999" stroke-miterlimit="10" stroke-width="0.75"/>
          <path id="Trazado_111504" data-name="Trazado 111504" d="M549.379,8080.015l-2.151-2.535,2.273-2.457-2.433-3.12" transform="translate(-459.003 -7851.176)" fill="none" stroke="#999" stroke-miterlimit="10" stroke-width="0.75"/>
          <path id="Trazado_111505" data-name="Trazado 111505" d="M546.5,8079.032l-2.15-2.535,2.273-2.457-2.433-3.119" transform="translate(-459.134 -7851.221)" fill="none" stroke="#999" stroke-miterlimit="10" stroke-width="0.75"/>
          <path id="Trazado_111506" data-name="Trazado 111506" d="M556.442,8081.975l-2.15-2.535,2.273-2.457-2.433-3.12" transform="translate(-458.68 -7851.086)" fill="none" stroke="#999" stroke-miterlimit="10" stroke-width="0.75"/>
          <path id="Trazado_111507" data-name="Trazado 111507" d="M560.285,8082.358l-2.151-2.535,2.273-2.457-2.433-3.12" transform="translate(-458.504 -7851.069)" fill="none" stroke="#999" stroke-miterlimit="10" stroke-width="0.75"/>
          <path id="Trazado_111508" data-name="Trazado 111508" d="M575.078,8084.469l-2.151-2.536,2.273-2.456-2.433-3.12" transform="translate(-457.827 -7850.972)" fill="none" stroke="#999" stroke-miterlimit="10" stroke-width="0.75"/>
          <path id="Trazado_111509" data-name="Trazado 111509" d="M578.638,8084.239l-2.151-2.534,2.273-2.457-2.433-3.12" transform="translate(-457.665 -7850.982)" fill="none" stroke="#999" stroke-miterlimit="10" stroke-width="0.75"/>
          <path id="Trazado_111510" data-name="Trazado 111510" d="M608.025,8080.617l-2.139-1.9,1.8-2.2-2.443-2.357" transform="translate(-456.342 -7851.073)" fill="none" stroke="#999" stroke-miterlimit="10" stroke-width="0.75"/>
          <path id="Trazado_111511" data-name="Trazado 111511" d="M605.119,8081.511l-2.139-1.9,1.8-2.2-2.443-2.356" transform="translate(-456.475 -7851.032)" fill="none" stroke="#999" stroke-miterlimit="10" stroke-width="0.75"/>
          <path id="Trazado_111512" data-name="Trazado 111512" d="M602.385,8082.375l-2.378-2.05,2.005-2.372-2.715-2.543" transform="translate(-456.614 -7851.016)" fill="none" stroke="#999" stroke-miterlimit="10" stroke-width="0.75"/>
          <path id="Trazado_111513" data-name="Trazado 111513" d="M610.431,8079.891l-1.888-1.827,1.592-2.112-2.156-2.266" transform="translate(-456.217 -7851.094)" fill="none" stroke="#999" stroke-miterlimit="10" stroke-width="0.75"/>
          <path id="Trazado_111514" data-name="Trazado 111514" d="M560.449,8220.679l.865-133,1.556-52.213v-47.532" transform="translate(-458.391 -7855.016)" fill="none" stroke="#999" stroke-miterlimit="10" stroke-width="0.75"/>
          <path id="Trazado_111515" data-name="Trazado 111515" d="M529.6,7972.9l22.944,105.891-1.023,6.457s-9.582,8.729-10.37,37.892-2.9,96.38-2.9,96.38" transform="translate(-459.801 -7855.704)" fill="none" stroke="#999" stroke-miterlimit="10" stroke-width="0.75"/>
          <path id="Trazado_111516" data-name="Trazado 111516" d="M528.668,7972.9l22.944,105.891-1.023,6.457s-9.583,8.729-10.37,37.892-2.85,95.672-2.85,95.672" transform="translate(-459.844 -7855.704)" fill="none" stroke="#999" stroke-miterlimit="10" stroke-width="0.75" stroke-dasharray="2"/>
          <path id="Trazado_111517" data-name="Trazado 111517" d="M530.538,7972.9l22.944,105.892-1.022,6.457s-9.583,8.729-10.37,37.892-2.761,96.383-2.761,96.383" transform="translate(-459.758 -7855.704)" fill="none" stroke="#999" stroke-miterlimit="10" stroke-width="0.75" stroke-dasharray="2"/>
          <ellipse id="Elipse_4443" data-name="Elipse 4443" cx="10.781" cy="23.803" rx="10.781" ry="23.803" transform="translate(56.347 70.325)" fill="none" stroke="#999" stroke-miterlimit="10" stroke-width="0.75"/>
          <path id="Trazado_111518" data-name="Trazado 111518" d="M521.717,8002.213c13.708-4.684,21.426-7.969,21.426-7.969s26.253-10.662,48.039-7.716l17.787,3.624" transform="translate(-460.162 -7855.104)" fill="none" stroke="#999" stroke-miterlimit="10" stroke-width="0.75"/>
          <path id="Trazado_111519" data-name="Trazado 111519" d="M635.629,7993.262l4.841-1.269.865,1.269,1.729-.4s.231-3.862-1.382-5.014h-1.326l-.289,1.959-4.726,2.075-.807.69.126.692Z" transform="translate(-455.003 -7855.02)" fill="#666"/>
          <path id="Trazado_111520" data-name="Trazado 111520" d="M603.771,8226.042s3.023-104.3-1.991-120.555-3.457-37.175-3.457-37.175L604.2,8019.9s2.235-28.874.944-42.707-7.515-37-5.959-56.713l2.938-25.361" transform="translate(-456.669 -7859.261)" fill="none" stroke="#4d4d4d" stroke-linecap="round" stroke-linejoin="round" stroke-width="1"/>
          <path id="Trazado_111521" data-name="Trazado 111521" d="M635.844,7993.79s-25.017-2.727-30.691-3.818" transform="translate(-456.346 -7854.922)" fill="#fff" stroke="#999" stroke-miterlimit="10" stroke-width="0.75"/>
          <path id="Trazado_111522" data-name="Trazado 111522" d="M554.612,7993.2s3.538-60.76,5.581-76.619" transform="translate(-458.658 -7858.278)" fill="none" stroke="#999" stroke-miterlimit="10" stroke-width="1"/>
          <g id="Grupo_56950" data-name="Grupo 56950" transform="translate(131.243)">
            <path id="Trazado_111523" data-name="Trazado 111523" d="M593.988,7876.169v9.338a4.7,4.7,0,0,0,4.294.316l.087-9.654a7.489,7.489,0,0,0,5.648-7.435s.807-8.242-7.493-7.9-6.917,9.913-6.917,9.913S591.106,7875.593,593.988,7876.169Z" transform="translate(-588.304 -7860.829)" fill="#fff" stroke="#999" stroke-miterlimit="10" stroke-width="0.75"/>
            <rect id="Rectángulo_10536" data-name="Rectángulo 10536" width="16.953" height="2.908" rx="1.209" transform="translate(0 3.975)" fill="#fff" stroke="#999" stroke-miterlimit="10" stroke-width="1"/>
            <rect id="Rectángulo_10537" data-name="Rectángulo 10537" width="16.953" height="2.908" rx="1.209" transform="translate(0 9.43)" fill="#fff" stroke="#999" stroke-miterlimit="10" stroke-width="1"/>
          </g>
          <path id="Trazado_111524" data-name="Trazado 111524" d="M561.711,7889.49s-7.457,6.117-13.277,8.482-17.667,7.113-17.667,7.113-8.34,2.524-14.159,7.071-15.823,8.249-15.823,8.249l-15.277,7.757-7.638,5.278s15.641-.369,19.46,5.814l4.728,4.183s2,2-.363,7.821-10.708,18.187-10.708,18.187l-4.023,7.638a7.863,7.863,0,0,0,.364,9.115,69.241,69.241,0,0,0,9.275,9.15s2.364,1.1,3.274,6.559-.637,17.915-.637,17.915-.455,10.548.182,13.82,1.728,12.822,1.728,12.822l.637,11,5.638,24,12.367,40.564s17.1,37.646,17.913,37.646,22.346-11.867,22.346-11.867,3.18-42.476,6.717-46.54c0,0,1.2,38.356,3.732,41.493l22.992-14.322-3.819-31.821,10.515,24.729,16.687-11.048s-9.742-17.324-9.742-19.1,3.192-58.106,3.192-58.106l1.627-37.749s-.649-19.721-2.53-28.087-5.83-34.946-5.83-34.946-39-10.477-35.35-22.684l4.746-7.842Z" transform="translate(-462.167 -7859.518)" fill="#ccc" stroke="#4d4d4d" stroke-linecap="round" stroke-linejoin="round" stroke-width="1" opacity="0.71"/>
          <path id="Trazado_111525" data-name="Trazado 111525" d="M501,8038.357s50.018-35.8,77.593-51.095a17.849,17.849,0,0,1,10.648-2.133c6.617.738,18.428,3.251,21.334,3.681" transform="translate(-461.109 -7855.149)" fill="none" stroke="#4d4d4d" stroke-linecap="round" stroke-linejoin="round" stroke-width="1"/>
          <path id="Trazado_111526" data-name="Trazado 111526" d="M634.014,7992.2l5-.246.586,1.418,1.776-.04s1.019-3.731-.323-5.191l-1.3-.272-.685,1.859-5.051,1.059-.932.511-.019.7Z" transform="translate(-455.07 -7855.019)" fill="#666"/>
          <path id="Trazado_111527" data-name="Trazado 111527" d="M600.468,7933.218l5-.246.585,1.418,1.776-.039s1.02-3.731-.323-5.191l-1.3-.271-.685,1.857-5.051,1.06-.932.511-.019.7Z" transform="translate(-456.604 -7857.716)" fill="#666"/>
          <path id="Trazado_111528" data-name="Trazado 111528" d="M579.073,7984.3l3.816-3.237,1.328.77,1.385-1.113s-1.463-3.58-3.416-3.921l-1.2.573.588,1.892-3.363,3.914-.429.974.413.569Z" transform="translate(-457.598 -7855.525)" fill="#666"/>
          <path id="Trazado_111529" data-name="Trazado 111529" d="M567.3,8077.187l3.817-3.237,1.328.77,1.384-1.111s-1.462-3.582-3.415-3.923l-1.2.573.588,1.892-3.363,3.915-.429.973.413.568Z" transform="translate(-458.136 -7851.278)" fill="#666"/>
          <path id="Trazado_111530" data-name="Trazado 111530" d="M600.213,8078.325l3.816-3.237,1.328.77,1.385-1.112s-1.463-3.582-3.416-3.922l-1.2.573.589,1.892-3.364,3.914-.428.973.413.569Z" transform="translate(-456.631 -7851.226)" fill="#666"/>
          <path id="Trazado_111531" data-name="Trazado 111531" d="M567.735,8081.765l3.816,3.236,1.328-.769,1.385,1.111s-1.462,3.582-3.416,3.923l-1.2-.574.589-1.891-3.364-3.915-.428-.973.413-.568Z" transform="translate(-458.116 -7850.745)" fill="#666"/>
          <path id="Trazado_111532" data-name="Trazado 111532" d="M602.224,8081.765l3.817,3.236,1.328-.769,1.385,1.111s-1.463,3.582-3.416,3.923l-1.2-.574.588-1.891-3.363-3.915-.429-.973.413-.568Z" transform="translate(-456.539 -7850.745)" fill="#666"/>
          <path id="Trazado_111533" data-name="Trazado 111533" d="M563.663,8080.382l-3.816,3.237-1.328-.77-1.385,1.112s1.463,3.581,3.416,3.922l1.2-.572-.589-1.893,3.364-3.915.428-.973-.413-.568Z" transform="translate(-458.542 -7850.808)" fill="#666"/>
          <path id="Trazado_111534" data-name="Trazado 111534" d="M551.023,8075.308l-3.816,3.237-1.328-.769-1.385,1.111s1.462,3.581,3.416,3.923l1.194-.574-.588-1.891,3.364-3.915.428-.973-.413-.568Z" transform="translate(-459.12 -7851.04)" fill="#666"/>
          <path id="Trazado_111535" data-name="Trazado 111535" d="M527.629,7922.616l-.341-4.993,1.408-.611-.073-1.774s-3.75-.948-5.185.422l-.248,1.3,1.872.649,1.154,5.029.528.923.7,0Z" transform="translate(-460.095 -7858.354)" fill="#666"/>
          <path id="Trazado_111536" data-name="Trazado 111536" d="M526.225,7922.951l-3.8-3.262.552-1.433-1.315-1.193s-3.308,2.006-3.339,3.989l.754,1.091,1.776-.877,4.394,2.708,1.028.271.5-.5Z" transform="translate(-460.317 -7858.256)" fill="#666"/>
          <path id="Trazado_111537" data-name="Trazado 111537" d="M565.844,7912.1l-.341-4.992,1.408-.613-.073-1.773s-3.75-.948-5.185.421l-.248,1.3,1.872.649,1.154,5.031.529.922.7,0Z" transform="translate(-458.347 -7858.835)" fill="#666"/>
          <path id="Trazado_111538" data-name="Trazado 111538" d="M564.44,7912.438l-3.8-3.263.552-1.432-1.315-1.193s-3.308,2.007-3.338,3.989l.753,1.091,1.777-.878,4.393,2.709,1.028.271.5-.5Z" transform="translate(-458.569 -7858.737)" fill="#666"/>
          <path id="Trazado_111539" data-name="Trazado 111539" d="M545.414,7993.571l-4.6-1.961.092-1.532-1.615-.738s-2.545,2.912-1.974,4.812l1.048.812,1.427-1.373,5.008,1.252,1.061-.054.323-.624Z" transform="translate(-459.452 -7854.951)" fill="#666"/>
          <path id="Trazado_111540" data-name="Trazado 111540" d="M533,7982.153l-4.208-2.708.349-1.494-1.467-1s-3,2.441-2.758,4.409l.9.978,1.639-1.113,4.725,2.078,1.055.126.424-.562Z" transform="translate(-460.016 -7855.519)" fill="#666"/>
          <path id="Trazado_111541" data-name="Trazado 111541" d="M533.51,7984.418l-4.208,2.71.349,1.494-1.467,1s-3-2.441-2.758-4.41l.9-.977,1.639,1.113,4.725-2.078,1.055-.127.425.562Z" transform="translate(-459.993 -7855.235)" fill="#666"/>
          <path id="Trazado_111542" data-name="Trazado 111542" d="M605.682,7986.193l4.714-1.681.97,1.189,1.688-.552s-.1-3.866-1.81-4.876l-1.321.114-.118,1.978-4.53,2.474-.744.759.185.679Z" transform="translate(-456.375 -7855.366)" fill="#666"/>
          <path id="Trazado_111543" data-name="Trazado 111543" d="M604.607,7988.926l3.775,3.286-.559,1.428,1.307,1.2s3.32-1.985,3.363-3.968l-.747-1.095-1.782.865-4.376-2.735-1.026-.277-.5.5Z" transform="translate(-456.396 -7855.029)" fill="#666"/>
          <path id="Trazado_111544" data-name="Trazado 111544" d="M470.837,8055.9s6.308-16.437,7.842-19.724-6.652,39.111,25.149,79.431l.341-6.642,15.032,26.176-27.892-4.49,5.7-4.569s-29.459-32.716-32.735-54.023a136.164,136.164,0,0,1,.154-40.224Z" transform="translate(-462.854 -7853.009)" fill="none" stroke="#4d4d4d" stroke-linecap="round" stroke-linejoin="round" stroke-width="1"/>
          <path id="Trazado_111545" data-name="Trazado 111545" d="M599.435,7930.49l2.637-11.969-9.385-1.625a42.59,42.59,0,0,1-1.481,7.093,3.858,3.858,0,0,1-2.245,2.387l1.334-8.385v-1.318s.364-1.41-.409-1.684-2.939-1.318-2.939-1.318-3.381,4.659-4.427,6.193-2.874,4.307-2.874,4.307l5.176-11.116a8.34,8.34,0,0,0-2.5-3.008,6.691,6.691,0,0,0-1.664-.253,23.5,23.5,0,0,0-3.7,4.036,18.793,18.793,0,0,1-3.771,3.813l1.416-4.923s1.992-5.547,1.628-6.229a4.59,4.59,0,0,0-1.5-1.318s-2.773-1.729-3.864,0l-4.538,6.866-.318,1.409a29,29,0,0,0,6.129,6.276c4.229,3.319,12.822,6.847,20.249,10.348S599.435,7930.49,599.435,7930.49Z" transform="translate(-458.136 -7858.836)" fill="#ccc" stroke="#4d4d4d" stroke-linecap="round" stroke-linejoin="round" stroke-width="1" opacity="0.71"/>
          <path id="Trazado_111546" data-name="Trazado 111546" d="M583.8,7992.027s.753,36.491,18.645,91.088" transform="translate(-457.323 -7854.829)" fill="none" stroke="#4d4d4d" stroke-linecap="round" stroke-linejoin="round" stroke-width="1"/>
          <path id="Trazado_111547" data-name="Trazado 111547" d="M583.827,7992.027s-2.953,67.092,4.04,87.965" transform="translate(-457.35 -7854.829)" fill="none" stroke="#4d4d4d" stroke-linecap="round" stroke-linejoin="round" stroke-width="1" stroke-dasharray="5"/>
        </g>
      </g>
    </g>
  </g>
</svg>
