<svg xmlns="http://www.w3.org/2000/svg" xmlns:xlink="http://www.w3.org/1999/xlink" width="228.005" height="380.222" viewBox="0 0 228.005 380.222">
  <defs>
    <clipPath id="clip-path">
      <rect id="Rectángulo_10532" data-name="Rectángulo 10532" width="228.005" height="380.222" rx="16" fill="none"/>
    </clipPath>
  </defs>
  <g id="Grupo_56945" data-name="Grupo 56945" transform="translate(-892.007 -7458.799)">
    <g id="Grupo_56944" data-name="Grupo 56944" transform="translate(892.007 7458.799)">
      <rect id="Rectángulo_10525" data-name="Rectángulo 10525" width="228.005" height="380.222" rx="16" fill="#fff"/>
      <g id="Grupo_56943" data-name="Grupo 56943">
        <g id="Grupo_56942" data-name="Grupo 56942" clip-path="url(#clip-path)">
          <g id="Grupo_56941" data-name="Grupo 56941" transform="translate(34.854 24.853)">
            <path id="Trazado_111411" data-name="Trazado 111411" d="M1005.067,7546.99l4.734,4.405-.786,1.82,1.637,1.606s4.373-2.42,4.513-4.98l-.918-1.444-2.337,1.042-5.534-3.721-1.314-.4-.667.616Z" transform="translate(-893.075 -7457.642)" fill="#999"/>
            <path id="Trazado_111412" data-name="Trazado 111412" d="M1006.153,7546.885l-2.884,5.788,1.376,1.428-.968,2.081s-4.944-.729-5.975-3.073l.35-1.676,2.554.151,3.872-5.43,1.087-.837.841.342Z" transform="translate(-895.087 -7457.642)" fill="#999"/>
            <g id="Grupo_56931" data-name="Grupo 56931" transform="translate(0 23.787)">
              <path id="Trazado_111413" data-name="Trazado 111413" d="M1060.983,7564.3s-14.01-6.045-19.283-9.57c0,0-5.126-2.474-5.34-13.656s.645-18.925,2.366-24.193l2.15-8.173s-6.236-9.675-23.656-11.933c0,0-11.72-1.076-14.408,1.719,0,0-7.1,26.559-16.774,38.386,0,0-2.042,7.85-23.548,12.259l-25.375,5.483s-11.72,2.474-13.549,12.042c0,0-7.1,7.636-3.225,36.021l1.076,5.807,12.473,64.3,18.171,72.043.753,2.58v7.2s-20.214,28.923-22.58,50.43-1.842,118.332-1.842,118.332,84.4,10.179,133.851,3.392l-1.259-113.338a96.824,96.824,0,0,0-8.6-38.063l-9.248-17.419s-1.613-1.29-1.29-13.116l7.635-39.895,9.14-28.707,6.882-12.687s8.96-11.686,7.813-21.435l-3.3-11.469s-.43-15.054.143-20.646l4.158-14.91,1.433-13.475s1-6.166-3.154-9.607A104.594,104.594,0,0,0,1060.983,7564.3Z" transform="translate(-918.691 -7496.084)" fill="#fff"/>
              <path id="Trazado_111414" data-name="Trazado 111414" d="M1020.785,7929.687c-44.319,0-91.707-5.635-92.339-5.71l-.428-.051v-.431c-.005-.97-.5-97.1,1.844-118.388,2.274-20.657,21.118-48.408,22.577-50.527V7747.6l-.735-2.512-18.174-72.06L921.05,7608.7l-1.076-5.811c-3.661-26.852,2.367-35.263,3.253-36.331,1.947-9.669,13.78-12.272,13.9-12.3l25.374-5.483c20.843-4.271,23.16-11.832,23.18-11.907l.095-.183c9.5-11.61,16.608-37.938,16.679-38.2l.12-.212c2.82-2.93,14.319-1.911,14.8-1.867,17.46,2.264,23.76,11.754,24.02,12.155l.116.181-2.2,8.38c-1.79,5.486-2.556,13.348-2.349,24.059.206,10.691,5.019,13.2,5.067,13.229,5.232,3.493,19.122,9.5,19.261,9.559l.049.024a106.241,106.241,0,0,1,11.682,7.754c4.322,3.578,3.367,9.8,3.323,10.062l-1.429,13.45-4.172,14.987c-.531,5.237-.156,19.381-.129,20.44l3.281,11.408c1.172,9.909-7.524,21.382-7.9,21.866l-6.839,12.623-9.1,28.624-7.622,39.835c-.291,10.957,1.089,12.608,1.148,12.673l.094.124,9.248,17.421a98.317,98.317,0,0,1,8.659,38.3l1.264,113.749-.428.058C1050.14,7929.053,1035.631,7929.686,1020.785,7929.687Zm-91.8-6.629c6.547.764,85.8,9.745,132.873,3.4l-1.254-112.906a97.235,97.235,0,0,0-8.559-37.867l-9.2-17.333c-.436-.5-1.669-2.86-1.38-13.419l7.644-39.971,9.153-28.764,6.917-12.773c.131-.18,8.87-11.707,7.76-21.143l-3.3-11.514c-.017-.617-.424-15.149.146-20.708l4.174-14.992,1.418-13.4c.013-.084.909-5.96-2.98-9.179a104.442,104.442,0,0,0-11.52-7.644c-.868-.376-14.148-6.133-19.335-9.6-.161-.073-5.339-2.7-5.558-14.054-.208-10.82.573-18.787,2.389-24.353l2.085-7.926c-.939-1.292-7.492-9.512-23.188-11.546-3.136-.29-11.7-.573-13.911,1.492-.553,2.022-7.514,26.981-16.77,38.364-.342,1.03-3.456,8.313-23.888,12.5l-25.371,5.482c-.116.026-11.426,2.525-13.171,11.658l-.026.136-.095.1c-.069.076-6.882,7.9-3.1,35.624l1.072,5.786,12.473,64.294,18.164,72.015.769,2.7v7.356l-.087.127c-.2.288-20.172,29.069-22.5,50.2C928.576,7825.715,928.956,7916,928.99,7923.058Z" transform="translate(-918.805 -7496.196)" fill="#999"/>
            </g>
            <ellipse id="Elipse_4441" data-name="Elipse 4441" cx="2.903" cy="4.355" rx="2.903" ry="4.355" transform="translate(9.928 113.078)" fill="#999"/>
            <path id="Trazado_111415" data-name="Trazado 111415" d="M1041.027,7625.987l-5.39-20.393c-4.483-14.3-5.252-22.538-6.415-35-.15-1.612-.308-3.3-.48-5.074-1.461-15.012-6.733-19.075-6.787-19.113l.575-.79c.23.168,5.672,4.285,7.182,19.81.173,1.778.33,3.463.481,5.078,1.157,12.4,1.922,20.6,6.379,34.823l5.4,20.414Z" transform="translate(-887.796 -7457.553)" fill="#999"/>
            <path id="Trazado_111416" data-name="Trazado 111416" d="M997.034,7696.035q-2.353,0-4.893-.041c-33.6-.532-47.72-7.94-47.858-8.015l.463-.858c.137.073,14.089,7.37,47.41,7.9,33.2.541,41.477-4.493,41.555-4.544l.529.819C1033.927,7691.5,1026.572,7696.035,997.034,7696.035Z" transform="translate(-911.146 -7415.013)" fill="#999"/>
            <path id="Trazado_111417" data-name="Trazado 111417" d="M997.822,7704.162q-2.858,0-5.991-.1c-31.463-1.066-46.4-8.474-46.548-8.547l.442-.871c.144.074,14.919,7.384,46.14,8.442,31.112,1.051,41.413-6.49,41.513-6.567l.593.776C1033.581,7697.588,1024.668,7704.162,997.822,7704.162Z" transform="translate(-910.845 -7412.752)" fill="#999"/>
            <path id="Trazado_111418" data-name="Trazado 111418" d="M1004.546,7554.477a23.688,23.688,0,0,1-5.15-.588c-17.391-3.866-31.856-22.465-32-22.651l.773-.595c.142.183,14.4,18.5,31.439,22.293,16.821,3.729,23.752-12.415,23.82-12.577l.9.373C1024.263,7540.886,1018.436,7554.477,1004.546,7554.477Z" transform="translate(-904.198 -7462.053)" fill="#999"/>
            <path id="Trazado_111419" data-name="Trazado 111419" d="M1015.776,7515.762c-18.277,0-33.373-10.523-33.53-10.637l.564-.8c.163.117,16.523,11.5,35.637,10.38l.059.973C1017.59,7515.736,1016.679,7515.762,1015.776,7515.762Z" transform="translate(-899.734 -7469.963)" fill="#999"/>
            <path id="Trazado_111420" data-name="Trazado 111420" d="M1015.51,7509.967c-16.388,0-31.874-10.56-32.049-10.679l.554-.8c.193.134,19.548,13.336,37.626,9.959l.178.96A34.439,34.439,0,0,1,1015.51,7509.967Z" transform="translate(-899.368 -7471.72)" fill="#999"/>
            <path id="Trazado_111421" data-name="Trazado 111421" d="M993.869,7916.429l-.1-101.224c.709-16-2.686-51.211-2.72-51.564l-.865-24.4-1.289-66.1c.017-.3,1.606-26.881,3.878-39.522,2.231-12.4-7.408-25.152-7.506-25.278-.179-.366-12.616-27.448-19.145-47.458-6.411-19.651-16.593-22.017-16.695-22.038l.2-.955c.44.09,10.82,2.44,17.426,22.69,6.512,19.956,18.924,46.988,19.049,47.259.352.442,9.939,13.128,7.635,25.953-2.262,12.584-3.847,39.1-3.864,39.369l1.29,66.054.862,24.361c.031.325,3.432,35.6,2.722,51.651l.1,101.2Z" transform="translate(-909.599 -7459.874)" fill="#999"/>
            <path id="Trazado_111422" data-name="Trazado 111422" d="M1008.2,7923.949l-.976-.027c.038-1.3,3.686-129.875-2.456-149.781-6.192-20.07-4.34-46.155-4.321-46.415l7.315-60.237c.025-.338,2.753-36.049,1.172-53.014-.509-5.446-1.657-12.2-2.874-19.355-2.612-15.359-5.863-34.473-4.537-51.265l3.275-30.55.97.1-3.274,30.537c-1.315,16.656,1.924,35.705,4.526,51.01,1.221,7.174,2.372,13.948,2.883,19.43,1.591,17.047-1.145,52.841-1.172,53.2l-7.315,60.235c-.017.237-1.855,26.142,4.283,46.034C1011.892,7793.914,1008.356,7918.649,1008.2,7923.949Z" transform="translate(-894.343 -7467.266)" fill="#999"/>
            <path id="Trazado_111423" data-name="Trazado 111423" d="M945.147,7622.147l-3.705-12.108.4-.176c.329-.146,33.354-14.566,60.816-9.865,27.309,4.675,60.189,8.986,60.518,9.029l2.352.372.091.284c.092.284,2.194,7-2.171,11.149l-.176.167-.239-.039-32.366-5.377c-.376-.077-36.048-7.255-47.633-3.886-11.7,3.4-37.172,10.257-37.428,10.326Zm-2.518-11.562,3.176,10.375c3.492-.942,26.131-7.05,36.953-10.2,11.8-3.432,46.607,3.562,48.081,3.861l32.1,5.333c3.241-3.284,2.153-8.432,1.823-9.689l-1.734-.274c-.317-.04-33.217-4.355-60.544-9.033C976.948,7596.594,946.452,7608.972,942.629,7610.586Z" transform="translate(-912 -7441.487)" fill="#999"/>
            <path id="Trazado_111424" data-name="Trazado 111424" d="M986.262,7704.125l-3.269-3.271,2.519-3.455-3.125-3.394.716-.661,3.668,3.984-2.5,3.426,2.68,2.68Z" transform="translate(-899.691 -7413.141)" fill="#999"/>
            <path id="Trazado_111425" data-name="Trazado 111425" d="M989.849,7704.125l-3.269-3.271,2.519-3.455-3.125-3.394.716-.661,3.668,3.984-2.5,3.426,2.68,2.68Z" transform="translate(-898.613 -7413.141)" fill="#999"/>
            <path id="Trazado_111426" data-name="Trazado 111426" d="M993.711,7704.125l-3.269-3.271,2.519-3.455-3.125-3.394.716-.661,3.668,3.984-2.5,3.426,2.68,2.68Z" transform="translate(-897.452 -7413.141)" fill="#999"/>
            <path id="Trazado_111427" data-name="Trazado 111427" d="M997.366,7704.125l-3.269-3.271,2.519-3.455-3.124-3.394.716-.661,3.668,3.984-2.5,3.426,2.68,2.68Z" transform="translate(-896.353 -7413.141)" fill="#999"/>
            <path id="Trazado_111428" data-name="Trazado 111428" d="M1000.887,7703.523l-3.269-3.271,2.519-3.455-3.125-3.394.716-.66,3.668,3.982-2.5,3.428,2.68,2.678Z" transform="translate(-895.295 -7413.323)" fill="#999"/>
            <path id="Trazado_111429" data-name="Trazado 111429" d="M966.771,7703.178l-2.954-3.48,2.839-3.069-2.772-3.554.77-.6,3.282,4.207-2.816,3.043,2.4,2.824Z" transform="translate(-905.273 -7413.402)" fill="#999"/>
            <path id="Trazado_111430" data-name="Trazado 111430" d="M970.341,7703.535l-2.954-3.482,2.839-3.068-2.771-3.554.77-.6,3.28,4.206-2.813,3.043,2.4,2.823Z" transform="translate(-904.201 -7413.296)" fill="#999"/>
            <path id="Trazado_111431" data-name="Trazado 111431" d="M974.184,7703.919l-2.954-3.481,2.839-3.068-2.771-3.555.77-.6,3.282,4.207-2.816,3.042,2.4,2.824Z" transform="translate(-903.045 -7413.181)" fill="#999"/>
            <path id="Trazado_111432" data-name="Trazado 111432" d="M955.616,7700.831l-2.954-3.48,2.839-3.069-2.771-3.553.77-.6,3.282,4.207-2.816,3.043,2.4,2.824Z" transform="translate(-908.627 -7414.108)" fill="#999"/>
            <path id="Trazado_111433" data-name="Trazado 111433" d="M952.123,7699.83l-2.954-3.482,2.839-3.068-2.771-3.554.77-.6,3.28,4.207-2.813,3.044,2.4,2.823Z" transform="translate(-909.677 -7414.41)" fill="#999"/>
            <path id="Trazado_111434" data-name="Trazado 111434" d="M949.24,7698.845l-2.954-3.481,2.839-3.068-2.772-3.554.77-.6,3.282,4.207-2.816,3.043,2.4,2.823Z" transform="translate(-910.544 -7414.706)" fill="#999"/>
            <path id="Trazado_111435" data-name="Trazado 111435" d="M959.186,7701.789l-2.954-3.481,2.839-3.069-2.771-3.554.77-.6,3.279,4.206-2.813,3.043,2.4,2.823Z" transform="translate(-907.554 -7413.822)" fill="#999"/>
            <path id="Trazado_111436" data-name="Trazado 111436" d="M963.028,7702.172l-2.954-3.482,2.839-3.067-2.771-3.555.77-.6,3.282,4.206-2.816,3.044,2.4,2.823Z" transform="translate(-906.399 -7413.705)" fill="#999"/>
            <path id="Trazado_111437" data-name="Trazado 111437" d="M977.821,7704.282l-2.954-3.481,2.839-3.068-2.771-3.554.77-.6,3.282,4.207-2.816,3.044,2.4,2.823Z" transform="translate(-901.952 -7413.071)" fill="#999"/>
            <path id="Trazado_111438" data-name="Trazado 111438" d="M981.382,7704.054l-2.954-3.481,2.839-3.068-2.771-3.555.77-.6,3.282,4.208-2.816,3.043,2.4,2.823Z" transform="translate(-900.881 -7413.139)" fill="#999"/>
            <path id="Trazado_111439" data-name="Trazado 111439" d="M1010.9,7700.09l-3.01-2.676,2.255-2.75-2.714-2.62.678-.7,3.362,3.245-2.232,2.72,2.309,2.054Z" transform="translate(-892.161 -7413.744)" fill="#999"/>
            <path id="Trazado_111440" data-name="Trazado 111440" d="M1008,7700.983l-3.01-2.676,2.254-2.75-2.714-2.619.678-.7,3.362,3.243-2.232,2.72,2.309,2.055Z" transform="translate(-893.035 -7413.475)" fill="#999"/>
            <path id="Trazado_111441" data-name="Trazado 111441" d="M1005.344,7701.979l-3.323-2.867,2.507-2.965-3.038-2.846.666-.712,3.716,3.479L1003.39,7699l2.591,2.234Z" transform="translate(-893.948 -7413.369)" fill="#999"/>
            <path id="Trazado_111442" data-name="Trazado 111442" d="M1013.218,7699.284l-2.657-2.572,1.99-2.642-2.4-2.518.706-.673,2.967,3.117-1.97,2.613,2.037,1.972Z" transform="translate(-891.343 -7413.883)" fill="#999"/>
            <path id="Trazado_111443" data-name="Trazado 111443" d="M943.409,7897.123l-.975-.03c.027-.836,2.634-84.013,3.6-119.867.93-34.482,11.565-46.018,12.929-47.355l1.23-7.779L931.68,7590.479l.952-.206,28.558,131.79-.016.089-1.3,8.2-.125.115c-.118.108-11.78,11.2-12.74,46.781C946.043,7813.109,943.435,7896.288,943.409,7897.123Z" transform="translate(-914.935 -7444.127)" fill="#999"/>
            <g id="Grupo_56932" data-name="Grupo 56932" transform="translate(15.535 146.146)">
              <rect id="Rectángulo_10526" data-name="Rectángulo 10526" width="0.975" height="1.299" transform="translate(0 0.206) rotate(-12.189)" fill="#999"/>
              <path id="Trazado_111444" data-name="Trazado 111444" d="M942.463,7891.579l-.975-.029.082-2.605.975.03Zm.161-5.208-.975-.03.081-2.6.976.03Zm.159-5.2-.976-.03.081-2.6.975.028Zm.16-5.2-.975-.029.081-2.6.975.03Zm.159-5.2-.976-.03.081-2.6.975.03Zm.16-5.2-.975-.027.079-2.6.976.029Zm.159-5.2-.975-.028.078-2.6.976.028Zm.156-5.2-.975-.03.079-2.6.976.029Zm.159-5.2-.975-.027.078-2.6.976.03Zm.157-5.2-.975-.029.078-2.6.976.031Zm.156-5.194-.975-.029.078-2.6.975.031Zm.157-5.2-.976-.031.078-2.6.975.028Zm.156-5.2-.976-.031.078-2.6.975.029Zm.153-5.2-.976-.029.075-2.517.49-.065.485.093Zm.156-5.189-.975-.028.077-2.6.975.027Zm.155-5.2-.976-.027.076-2.6.975.027Zm.151-5.2-.975-.028.075-2.6.975.026Zm.152-5.2-.975-.027.077-2.6.975.028Zm.152-5.2-.975-.028.076-2.6.975.029Zm.147-5.2-.975-.031.075-2.6.975.027Zm.151-5.2-.975-.027.072-2.6.976.029Zm.145-5.2-.975-.028.073-2.6.976.026Zm.143-5.2-.975-.025.023-.846c.016-.593.034-1.18.056-1.757l.976.034c-.022.577-.04,1.157-.056,1.747Zm.2-5.177-.973-.054q.072-1.326.161-2.6l.973.069Q946.136,7770.723,946.064,7772.04Zm.365-5.161-.97-.089q.119-1.323.256-2.591l.97.1C946.595,7765.144,946.51,7766,946.43,7766.879Zm.563-5.146-.969-.122q.172-1.321.363-2.582l.965.147Q947.16,7760.424,946.993,7761.732Zm.776-5.107-.96-.168c.153-.881.316-1.733.484-2.564l.955.193Q948,7755.319,947.769,7756.625Zm1.022-5.062-.949-.219q.3-1.314.623-2.535l.943.246Q949.092,7750.265,948.791,7751.563Zm1.31-4.994-.935-.276c.258-.87.52-1.7.786-2.493l.925.312C950.614,7744.892,950.356,7745.709,950.1,7746.568Zm1.64-4.888-.912-.343q.486-1.291.978-2.428l.9.385Q952.222,7740.414,951.741,7741.681Zm2.036-4.721-.875-.431q.628-1.28,1.224-2.322l.848.479C954.588,7735.369,954.186,7736.123,953.777,7736.96Zm2.537-4.452-.81-.542a25.2,25.2,0,0,1,1.575-2.128l.75.624A24.473,24.473,0,0,0,956.314,7732.508Zm2.678-4.533-.963-.152.4-2.565.964.154Zm.812-5.131-.962-.151.234-1.482-.194-.892.953-.209.233,1.073Zm-1.472-5.066-.549-2.537.952-.206.55,2.538Zm-1.1-5.075-.55-2.539.952-.205.55,2.539Zm-1.1-5.075-.55-2.539.953-.208.549,2.54Zm-1.1-5.078-.55-2.537.953-.206.55,2.538Zm-1.1-5.076-.55-2.538.952-.205.55,2.537Zm-1.1-5.074-.55-2.54.952-.207.55,2.54Zm-1.1-5.079-.55-2.537.953-.206.55,2.538Zm-1.1-5.075-.549-2.538.952-.205.55,2.536Zm-1.1-5.076-.55-2.538.952-.207.55,2.54Zm-1.1-5.076-.55-2.539.953-.205.549,2.538Zm-1.1-5.078-.55-2.537.953-.2.55,2.536Zm-1.1-5.075-.55-2.538.952-.207.55,2.541Zm-1.1-5.075-.55-2.54.952-.205.55,2.538Zm-1.1-5.078-.55-2.537.953-.206.55,2.538Zm-1.1-5.076-.55-2.537.952-.206.55,2.538Zm-1.1-5.074-.55-2.541.952-.205.55,2.538Zm-1.1-5.078-.55-2.538.953-.205.55,2.538Zm-1.1-5.076-.549-2.538.952-.205.55,2.537Zm-1.1-5.076-.55-2.54.952-.205.55,2.539Zm-1.1-5.076-.55-2.538.953-.206.549,2.538Zm-1.1-5.078-.55-2.536.953-.205.55,2.537Zm-1.1-5.075-.55-2.539.952-.205.55,2.537Zm-1.1-5.076-.55-2.539.952-.205.55,2.538Zm-1.1-5.077-.55-2.536.953-.207.55,2.538Zm-1.1-5.075-.549-2.54.952-.2.55,2.536Z" transform="translate(-930.559 -7589.393)" fill="#999"/>
              <rect id="Rectángulo_10527" data-name="Rectángulo 10527" width="1.295" height="0.976" transform="translate(10.81 305.939) rotate(-88.21)" fill="#999"/>
            </g>
            <g id="Grupo_56933" data-name="Grupo 56933" transform="translate(17.968 146.141)">
              <rect id="Rectángulo_10528" data-name="Rectángulo 10528" width="0.975" height="1.302" transform="matrix(0.977, -0.212, 0.212, 0.977, 0, 0.206)" fill="#999"/>
              <path id="Trazado_111445" data-name="Trazado 111445" d="M944.439,7892.452l-.975-.028.077-2.612.975.026Zm.153-5.223-.975-.028.075-2.609.975.029Zm.151-5.219-.976-.028.075-2.606.975.027Zm.152-5.216-.975-.03.077-2.6.975.026Zm.151-5.214-.976-.027.077-2.607.975.027Zm.152-5.214-.975-.028.075-2.606.975.028Zm.153-5.211-.975-.029.074-2.606.975.029Zm.148-5.214-.975-.027.075-2.606.975.028Zm.151-5.213-.976-.026.077-2.607.975.028Zm.152-5.211-.975-.027.075-2.606.975.026Zm.151-5.212-.976-.026.076-2.607.975.029Zm.15-5.211-.976-.027.072-2.53.978-.048Zm.151-5.211-.975-.029.074-2.611.975.028Zm.148-5.22-.975-.026.075-2.6.975.026Zm.15-5.2-.975-.028.074-2.605.975.026Zm.15-5.212-.975-.028.073-2.606.975.027Zm.148-5.215-.976-.027.073-2.605.975.029Zm.147-5.21-.975-.028.074-2.605.975.028Zm.147-5.211-.975-.029.074-2.607.976.029Zm.147-5.215-.975-.027.073-2.606.976.027Zm.144-5.216-.976-.025.073-2.606.975.027Zm.144-5.211-.975-.026.071-2.606.976.025Zm.143-5.214-.975-.027.074-2.607.975.033Zm.185-5.2-.974-.049q.066-1.329.152-2.606l.974.065Q947.974,7771.245,947.907,7772.563Zm.35-5.179-.973-.083q.113-1.327.247-2.6l.97.1Q948.369,7766.068,948.257,7767.385Zm.541-5.159-.968-.121q.168-1.326.352-2.589l.965.143Q948.965,7760.909,948.8,7762.226Zm.758-5.129-.961-.165q.224-1.32.472-2.571l.957.188Q949.779,7755.788,949.557,7757.1Zm1-5.079-.952-.214q.295-1.32.611-2.547l.944.24Q950.853,7750.713,950.559,7752.018Zm1.284-5.015-.938-.272q.38-1.307.774-2.5l.927.307Q952.217,7745.713,951.843,7747Zm1.613-4.911-.914-.341q.482-1.295.965-2.441l.9.378Q953.931,7740.815,953.456,7742.092Zm2.007-4.756-.879-.421c.411-.856.816-1.637,1.2-2.34l.853.473C956.26,7735.737,955.865,7736.5,955.463,7737.336Zm2.5-4.5-.818-.529c.512-.792,1.033-1.517,1.542-2.155l.762.61C958.956,7731.378,958.458,7732.078,957.961,7732.841Zm2.839-4.476-.963-.153.407-2.573.963.154Zm.814-5.146-.963-.152.294-1.862-.113-.523.952-.208.154.7Zm-1.333-5.085-.552-2.544.953-.206.55,2.546Zm-1.1-5.09-.552-2.546.952-.205.553,2.546Zm-1.1-5.09-.551-2.546.952-.207.551,2.546Zm-1.1-5.091-.553-2.546.953-.206.552,2.544Zm-1.1-5.092-.55-2.545.952-.207.551,2.546Zm-1.1-5.09-.553-2.547.952-.206.553,2.546Zm-1.1-5.092-.551-2.547.953-.205.552,2.545Zm-1.1-5.093-.551-2.545.952-.206.553,2.546Zm-1.1-5.091-.551-2.544.952-.206.552,2.546Zm-1.1-5.09-.553-2.546.953-.205.553,2.546Zm-1.1-5.09-.552-2.546.952-.206.551,2.545Zm-1.1-5.092-.553-2.545.953-.205.552,2.545Zm-1.1-5.091-.551-2.544.953-.207.552,2.546Zm-1.1-5.09-.553-2.546.952-.205.553,2.545Zm-1.1-5.091-.552-2.546.953-.205.55,2.546Zm-1.1-5.091-.552-2.545.952-.205.553,2.545Zm-1.1-5.091-.552-2.545.952-.206.552,2.546Zm-1.1-5.09-.553-2.545.953-.207.552,2.546Zm-1.1-5.092-.55-2.546.952-.205.551,2.544Zm-1.1-5.091-.553-2.546.952-.207.553,2.547Zm-1.1-5.092-.552-2.544.953-.208.551,2.546Zm-1.1-5.09-.551-2.546.952-.207.553,2.546Zm-1.1-5.091-.551-2.547.952-.205.552,2.545Zm-1.1-5.093-.553-2.544.953-.205.553,2.545Zm-1.1-5.09-.552-2.545.952-.206.551,2.546Z" transform="translate(-932.429 -7589.386)" fill="#999"/>
              <rect id="Rectángulo_10529" data-name="Rectángulo 10529" width="1.295" height="0.976" transform="matrix(0.029, -1, 1, 0.029, 10.924, 306.825)" fill="#999"/>
            </g>
            <path id="Trazado_111446" data-name="Trazado 111446" d="M932.706,7605.342c-7.663,0-13.9-13.5-13.9-30.094s6.234-30.093,13.9-30.093,13.9,13.5,13.9,30.093S940.369,7605.342,932.706,7605.342Zm0-59.212c-7.125,0-12.922,13.063-12.922,29.118s5.8,29.118,12.922,29.118,12.922-13.062,12.922-29.118S939.831,7546.13,932.706,7546.13Z" transform="translate(-918.804 -7457.691)" fill="#999"/>
            <path id="Trazado_111447" data-name="Trazado 111447" d="M1038.344,7612.036l6.021-1.578,1.076,1.578,2.15-.5s.288-4.8-1.719-6.236h-1.649l-.359,2.438-5.877,2.58-1,.859.157.861Z" transform="translate(-883.279 -7439.61)" fill="#666"/>
            <path id="Trazado_111448" data-name="Trazado 111448" d="M1007.752,7924.957h-.02a.651.651,0,0,1-.631-.671c.038-1.295,3.686-129.846-2.448-149.727-6.2-20.1-4.348-46.214-4.328-46.478l7.316-60.244c.023-.33,2.752-36.025,1.17-52.977-.507-5.439-1.656-12.193-2.872-19.345-2.614-15.368-5.866-34.491-4.538-51.3l3.653-31.567a.651.651,0,1,1,1.293.149l-3.652,31.544c-1.314,16.627,1.924,35.664,4.526,50.96,1.22,7.176,2.372,13.953,2.885,19.439,1.591,17.063-1.146,52.868-1.173,53.229l-7.315,60.242c-.017.229-1.851,26.1,4.276,45.966,6.2,20.085,2.66,144.848,2.506,150.149A.652.652,0,0,1,1007.752,7924.957Z" transform="translate(-894.381 -7467.636)" fill="#4d4d4d"/>
            <g id="Grupo_56934" data-name="Grupo 56934" transform="translate(115.397 167.975)">
              <path id="Trazado_111449" data-name="Trazado 111449" d="M1045.773,7612.173s-31.115-3.391-38.172-4.748" transform="translate(-1007.509 -7606.947)" fill="#fff"/>
              <path id="Trazado_111450" data-name="Trazado 111450" d="M1045.741,7612.77c-.311-.035-31.215-3.409-38.211-4.756l.186-.957c6.956,1.338,37.821,4.709,38.132,4.741Z" transform="translate(-1007.53 -7607.057)" fill="#999"/>
            </g>
            <path id="Trazado_111451" data-name="Trazado 111451" d="M957.859,7629.387l-1.3-.077c.046-.755,4.431-75.815,6.945-95.337l1.29.166C962.287,7553.614,957.9,7628.63,957.859,7629.387Z" transform="translate(-907.455 -7461.051)" fill="#999"/>
            <g id="Grupo_56938" data-name="Grupo 56938" transform="translate(92.996)">
              <g id="Grupo_56935" data-name="Grupo 56935" transform="translate(1.676)">
                <path id="Trazado_111452" data-name="Trazado 111452" d="M997.525,7497.362v11.612a5.853,5.853,0,0,0,5.34.395l.108-12.007s7.092-1.614,7.025-9.247c0,0,1-10.252-9.319-9.82s-8.6,12.33-8.6,12.33S993.942,7496.645,997.525,7497.362Z" transform="translate(-991.482 -7477.794)" fill="#fff"/>
                <path id="Trazado_111453" data-name="Trazado 111453" d="M1000.676,7510.434a6.179,6.179,0,0,1-3.318-.946l-.208-.146v-11.488c-3.564-1.079-5.348-6.725-5.426-6.973-.052-.321-.853-6.156,2.275-9.926a8.854,8.854,0,0,1,6.772-3.036c3.19-.129,5.681.713,7.387,2.517,2.872,3.037,2.457,7.646,2.437,7.838a9.731,9.731,0,0,1-7.026,9.566l-.105,11.969-.3.122A6.469,6.469,0,0,1,1000.676,7510.434Zm-2.551-1.62a5.356,5.356,0,0,0,4.367.33l.108-12.059.376-.086a8.756,8.756,0,0,0,6.646-8.768c.006-.094.389-4.423-2.178-7.131-1.5-1.586-3.746-2.333-6.633-2.206a7.914,7.914,0,0,0-6.058,2.682c-2.852,3.432-2.088,9.033-2.08,9.089h0c.006,0,1.808,5.681,5.059,6.33l.393.079Z" transform="translate(-991.594 -7477.907)" fill="#999"/>
              </g>
              <g id="Grupo_56936" data-name="Grupo 56936" transform="translate(0 4.78)">
                <rect id="Rectángulo_10530" data-name="Rectángulo 10530" width="21.085" height="3.616" rx="1.209" transform="translate(0.649 0.651)" fill="#fff"/>
                <path id="Trazado_111454" data-name="Trazado 111454" d="M1010.467,7486.5H992.527a2.223,2.223,0,0,1-2.221-2.223v-.473a2.225,2.225,0,0,1,2.221-2.222h17.939a2.225,2.225,0,0,1,2.223,2.222v.473A2.223,2.223,0,0,1,1010.467,7486.5Zm-17.939-3.617a.922.922,0,0,0-.921.922v.473a.922.922,0,0,0,.921.922h17.939a.923.923,0,0,0,.922-.922v-.473a.923.923,0,0,0-.922-.922Z" transform="translate(-990.306 -7481.582)" fill="#999"/>
              </g>
              <g id="Grupo_56937" data-name="Grupo 56937" transform="translate(0 11.566)">
                <rect id="Rectángulo_10531" data-name="Rectángulo 10531" width="21.085" height="3.616" rx="1.209" transform="translate(0.649 0.65)" fill="#fff"/>
                <path id="Trazado_111455" data-name="Trazado 111455" d="M1010.467,7491.715H992.527a2.223,2.223,0,0,1-2.221-2.222v-.473a2.223,2.223,0,0,1,2.221-2.222h17.939a2.224,2.224,0,0,1,2.223,2.222v.473A2.224,2.224,0,0,1,1010.467,7491.715Zm-17.939-3.615a.921.921,0,0,0-.921.921v.473a.922.922,0,0,0,.921.922h17.939a.923.923,0,0,0,.922-.922v-.473a.923.923,0,0,0-.922-.921Z" transform="translate(-990.306 -7486.799)" fill="#999"/>
              </g>
            </g>
            <g id="Grupo_56939" data-name="Grupo 56939" transform="translate(6.928 66.446)" opacity="0.71">
              <path id="Trazado_111456" data-name="Trazado 111456" d="M924.631,7547.477s26.465,8.516,21.481,40.22-14.477,29.731-14.477,29.731l15.454,64.069,12.2,53.44.736,9.784s-.441,9.271-1.211,11.759c0,0,7.637-.791,12.369.792l5.862,1.17s1.537-3.768,2.353-3.938a2.582,2.582,0,0,1,1.3,0,16.776,16.776,0,0,1,.99,4.645l16.851.838.679-5.946.9,5.216,19.022-1.417v3.734s7.5-3.231,9.36-3.131-5.131-7.059-4.651-12.937,3.01-35.169,3.01-35.169l6.632-64.239s-.15-24.382-1.348-36.535-8.77-60.917-8.77-60.917-6.9,5.73-16.574-.264a169.311,169.311,0,0,1-18.153-13.233l-5.824-5.654-58.181,16.936Z" transform="translate(-923.982 -7528.845)" fill="#ccc"/>
              <path id="Trazado_111457" data-name="Trazado 111457" d="M1019.279,7762.374a.646.646,0,0,1-.356-.106.653.653,0,0,1-.294-.544v-3.034l-18.323,1.366a.644.644,0,0,1-.689-.54l-.125-.73-.162,1.427a.634.634,0,0,1-.678.574l-16.851-.839a.648.648,0,0,1-.457-.218.655.655,0,0,1-.161-.479,14.194,14.194,0,0,0-.832-4.021,2.619,2.619,0,0,0-.671.06,14.513,14.513,0,0,0-1.883,3.549.644.644,0,0,1-.729.393l-5.863-1.171c-4.624-1.541-12.1-.791-12.172-.782a.665.665,0,0,1-.571-.234.655.655,0,0,1-.118-.6c.738-2.381,1.177-11.506,1.182-11.6l-.736-9.707-12.183-53.34-15.453-64.062a.655.655,0,0,1,.165-.606.644.644,0,0,1,.6-.184,4.241,4.241,0,0,0,2.9-1.038c2.685-1.925,7.657-8.139,10.8-28.159,4.837-30.765-19.978-39.155-21.036-39.5a.649.649,0,0,1-.45-.62v-1.045a.649.649,0,0,1,.468-.625l58.179-16.936a.655.655,0,0,1,.636.159l5.824,5.653a170.429,170.429,0,0,0,18.041,13.146c9.137,5.661,15.549.535,15.818.314a.652.652,0,0,1,1.057.4c.077.49,7.588,48.923,8.774,60.954s1.349,36.352,1.35,36.6l-6.634,64.311s-2.53,29.279-3.01,35.154c-.271,3.311,2.047,7.164,3.581,9.714,1.134,1.89,1.653,2.751,1.262,3.4a.913.913,0,0,1-.874.419c-.021,0-.043,0-.068,0-1.349,0-6.2,1.874-9,3.08A.657.657,0,0,1,1019.279,7762.374Zm0-5.036a.649.649,0,0,1,.65.65v2.753c1.942-.809,6.263-2.54,8.239-2.775-.219-.462-.663-1.2-1.067-1.871-1.62-2.693-4.066-6.765-3.761-10.492.48-5.876,3.01-35.172,3.01-35.172l6.633-64.25c-.005-.174-.168-24.421-1.349-36.4-1.086-11.028-7.517-52.821-8.607-59.872-2.249,1.35-8.5,4.1-16.432-.82a171.54,171.54,0,0,1-18.231-13.291l-5.585-5.418-57.347,16.692v.1c3.51,1.341,26.122,11.2,21.471,40.774-3.088,19.64-7.934,26.664-11.457,29.1a6.411,6.411,0,0,1-2.837,1.178l15.263,63.271,12.2,53.446.752,9.882a109.71,109.71,0,0,1-1.017,11.083c2.194-.157,7.847-.4,11.733.9l5.261,1.046c1.017-2.394,1.9-3.682,2.612-3.833a3.216,3.216,0,0,1,1.649.023.65.65,0,0,1,.4.4,20.077,20.077,0,0,1,1.019,4.243l15.632.777.607-5.343a.652.652,0,0,1,.628-.576.7.7,0,0,1,.661.54l.8,4.634,18.432-1.374Z" transform="translate(-924.132 -7528.994)" fill="#4d4d4d"/>
            </g>
            <path id="Trazado_111458" data-name="Trazado 111458" d="M945.663,7673.078a.633.633,0,0,1-.359-.108.648.648,0,0,1-.183-.9l27.286-41.394,18.039-25.6a.651.651,0,0,1,1.065.749l-18.031,25.587-27.275,41.376A.647.647,0,0,1,945.663,7673.078Z" transform="translate(-910.927 -7439.76)" fill="#4d4d4d"/>
            <g id="Grupo_56940" data-name="Grupo 56940" transform="translate(35.544 167.646)">
              <path id="Trazado_111459" data-name="Trazado 111459" d="M946.784,7672.583a.651.651,0,0,1-.511-1.055s.753-.951,1.956-2.569a.65.65,0,0,1,1.044.773c-1.221,1.643-1.979,2.6-1.979,2.6A.652.652,0,0,1,946.784,7672.583Z" transform="translate(-946.133 -7588.198)" fill="#4d4d4d"/>
              <path id="Trazado_111460" data-name="Trazado 111460" d="M951.308,7681.056a.65.65,0,0,1-.536-1.019c1.306-1.9,2.549-3.787,3.7-5.607a.65.65,0,1,1,1.1.693c-1.155,1.835-2.409,3.736-3.724,5.651A.654.654,0,0,1,951.308,7681.056Zm7.16-11.422a.652.652,0,0,1-.568-.969c.99-1.769,1.881-3.48,2.649-5.087l.417-.871a.651.651,0,0,1,1.173.563l-.418.871c-.78,1.631-1.684,3.367-2.687,5.159A.645.645,0,0,1,958.468,7669.634Zm6.006-12.085a.638.638,0,0,1-.282-.064.649.649,0,0,1-.3-.868l2.925-6.082a.649.649,0,1,1,1.17.562l-2.925,6.085A.647.647,0,0,1,964.474,7657.549Zm5.853-12.165a.64.64,0,0,1-.282-.066.648.648,0,0,1-.3-.867l2.928-6.083a.65.65,0,1,1,1.171.564l-2.928,6.084A.653.653,0,0,1,970.327,7645.384Zm5.855-12.164a.626.626,0,0,1-.282-.065.649.649,0,0,1-.3-.868l2.929-6.078a.65.65,0,1,1,1.171.563l-2.929,6.079A.648.648,0,0,1,976.183,7633.22Zm5.861-12.162a.632.632,0,0,1-.282-.066.648.648,0,0,1-.3-.867l2.93-6.082a.65.65,0,0,1,1.171.563l-2.93,6.082A.651.651,0,0,1,982.043,7621.058Z" transform="translate(-944.773 -7604.739)" fill="#4d4d4d"/>
              <path id="Trazado_111461" data-name="Trazado 111461" d="M979.42,7611.03a.639.639,0,0,1-.281-.065.649.649,0,0,1-.3-.867l1.41-2.927a.651.651,0,0,1,1.172.567l-1.41,2.924A.651.651,0,0,1,979.42,7611.03Z" transform="translate(-936.322 -7606.803)" fill="#4d4d4d"/>
            </g>
            <path id="Trazado_111462" data-name="Trazado 111462" d="M1036.693,7610.709l6.217-.306.728,1.764,2.208-.05s1.268-4.641-.4-6.456l-1.614-.339-.852,2.313-6.282,1.315-1.159.636-.023.874Z" transform="translate(-883.72 -7439.604)" fill="#666"/>
            <path id="Trazado_111463" data-name="Trazado 111463" d="M981.835,7603.583l4.746-4.026,1.652.957,1.722-1.384s-1.82-4.454-4.249-4.878l-1.487.713.731,2.353-4.183,4.869-.533,1.211.514.707Z" transform="translate(-900.338 -7442.93)" fill="#666"/>
            <path id="Trazado_111464" data-name="Trazado 111464" d="M934.814,7542.317l-.424-6.211,1.751-.76-.091-2.208s-4.664-1.179-6.448.525l-.308,1.619,2.328.808,1.436,6.257.658,1.146.874.007Z" transform="translate(-915.652 -7461.423)" fill="#666"/>
            <path id="Trazado_111465" data-name="Trazado 111465" d="M972.129,7534.914l-3.683-5.02,1.072-1.581-1.259-1.814s-4.57,1.5-5.165,3.9l.606,1.533,2.4-.565,4.563,4.518,1.169.616.743-.463Z" transform="translate(-905.491 -7463.298)" fill="#666"/>
            <path id="Trazado_111466" data-name="Trazado 111466" d="M970.342,7535.99l5.234-3.368,1.513,1.164,1.887-1.146s-1.219-4.653-3.572-5.394l-1.567.513.416,2.428-4.786,4.277-.687,1.131.418.769Z" transform="translate(-903.781 -7463.074)" fill="#666"/>
            <path id="Trazado_111467" data-name="Trazado 111467" d="M999.888,7549.456l5.234-3.369,1.511,1.165,1.889-1.145s-1.219-4.655-3.572-5.394l-1.567.512.416,2.429-4.786,4.278-.687,1.13.416.769Z" transform="translate(-894.899 -7459.026)" fill="#666"/>
            <path id="Trazado_111468" data-name="Trazado 111468" d="M946.975,7566.507l-2.734-5.593,1.334-1.364-.916-2.01s-4.766.666-5.775,2.916l.325,1.617,2.459-.131,3.689,5.256,1.042.813.812-.324Z" transform="translate(-912.769 -7453.967)" fill="#666"/>
            <path id="Trazado_111469" data-name="Trazado 111469" d="M934.253,7542.21l-4.721-4.057.687-1.782-1.636-1.484s-4.114,2.5-4.151,4.961l.936,1.356,2.21-1.09,5.464,3.369,1.278.335.618-.617Z" transform="translate(-917.114 -7460.777)" fill="#666"/>
            <path id="Trazado_111470" data-name="Trazado 111470" d="M945.661,7609.928l4.746-4.026,1.652.957,1.722-1.383s-1.82-4.455-4.249-4.879l-1.487.713.731,2.353-4.183,4.87-.533,1.209.514.707Z" transform="translate(-911.213 -7441.023)" fill="#666"/>
            <path id="Trazado_111471" data-name="Trazado 111471" d="M937.417,7600.874l-5.234-3.368.434-1.859-1.825-1.244s-3.731,3.036-3.43,5.485l1.115,1.215,2.038-1.384,5.876,2.584,1.312.157.527-.7Z" transform="translate(-916.238 -7442.885)" fill="#666"/>
            <path id="Trazado_111472" data-name="Trazado 111472" d="M937.932,7602.182l-5.234,3.37.434,1.858-1.825,1.244s-3.731-3.037-3.43-5.485l1.115-1.214,2.038,1.384,5.876-2.585,1.312-.157.528.7Z" transform="translate(-916.083 -7441.023)" fill="#666"/>
            <path id="Trazado_111473" data-name="Trazado 111473" d="M1008.411,7605.089l5.863-2.09,1.207,1.479,2.1-.686s-.127-4.81-2.251-6.064l-1.643.142-.147,2.459-5.634,3.078-.925.942.23.845Z" transform="translate(-892.298 -7441.886)" fill="#666"/>
            <path id="Trazado_111474" data-name="Trazado 111474" d="M1007.188,7606.7l4.7,4.085-.7,1.777,1.626,1.494s4.13-2.47,4.183-4.936l-.929-1.362-2.216,1.077-5.443-3.4-1.276-.345-.623.614Z" transform="translate(-892.439 -7439.675)" fill="#666"/>
            <path id="Trazado_111475" data-name="Trazado 111475" d="M983.128,7703.7l3.326,5.261-1.177,1.5,1.13,1.9s4.664-1.182,5.422-3.527l-.5-1.571-2.431.395-4.24-4.819-1.124-.7-.773.409Z" transform="translate(-899.578 -7410.499)" fill="#666"/>
            <path id="Trazado_111476" data-name="Trazado 111476" d="M1002.815,7700.45l4.249,4.548-.877,1.7,1.465,1.653s4.361-2.03,4.669-4.478l-.784-1.45-2.315.844-5.063-3.946-1.234-.475-.682.548Z" transform="translate(-893.722 -7411.489)" fill="#666"/>
            <path id="Trazado_111477" data-name="Trazado 111477" d="M982.9,7702.2l-4.377,4.426-1.729-.81-1.595,1.528s2.2,4.277,4.659,4.488l1.419-.842-.934-2.277,3.742-5.217.424-1.251-.573-.66Z" transform="translate(-901.853 -7410.665)" fill="#666"/>
            <path id="Trazado_111478" data-name="Trazado 111478" d="M956.511,7697.574l-6.217-.318-.548-1.827-2.2-.172s-1.726,4.49-.246,6.463l1.571.5,1.079-2.213,6.382-.683,1.217-.517.11-.867Z" transform="translate(-910.42 -7412.568)" fill="#666"/>
            <path id="Trazado_111479" data-name="Trazado 111479" d="M932.476,7622.319a.65.65,0,0,1-.65-.651.677.677,0,0,1,.519-.637.7.7,0,0,1,.86.438.6.6,0,0,1-.393.784l-.152.038A.6.6,0,0,1,932.476,7622.319Zm5.421-3.741a.65.65,0,0,1-.481-1.088,25.6,25.6,0,0,0,3.582-5.2.65.65,0,0,1,1.147.612,26.876,26.876,0,0,1-3.767,5.469A.654.654,0,0,1,937.9,7618.578Zm6.238-11.3a.64.64,0,0,1-.213-.035.653.653,0,0,1-.4-.829,60.814,60.814,0,0,0,1.769-6.175.651.651,0,0,1,1.268.295,62.465,62.465,0,0,1-1.808,6.307A.649.649,0,0,1,944.135,7607.28Zm3.008-12.622a.589.589,0,0,1-.1-.009.649.649,0,0,1-.544-.741c.312-2.034.575-4.191.783-6.412a.651.651,0,0,1,1.3.122c-.211,2.246-.477,4.428-.793,6.487A.65.65,0,0,1,947.143,7594.658Zm1.182-12.938h-.013a.649.649,0,0,1-.637-.664c.012-.532.017-1.06.017-1.579,0-1.635-.056-3.268-.169-4.856a.651.651,0,0,1,.6-.694.665.665,0,0,1,.694.6c.114,1.616.173,3.281.172,4.947,0,.531-.005,1.065-.017,1.608A.649.649,0,0,1,948.325,7581.72Zm-.951-12.942a.65.65,0,0,1-.639-.535,52.564,52.564,0,0,0-1.509-6.236.651.651,0,0,1,1.243-.384,54.071,54.071,0,0,1,1.545,6.391.65.65,0,0,1-.526.755A.786.786,0,0,1,947.375,7568.777Zm-3.859-12.375a.651.651,0,0,1-.589-.375,41.79,41.79,0,0,0-3.142-5.569.651.651,0,0,1,1.08-.727,43.126,43.126,0,0,1,3.241,5.745.65.65,0,0,1-.313.864A.629.629,0,0,1,943.516,7556.4Zm-7.26-10.722a.652.652,0,0,1-.468-.2,24.647,24.647,0,0,0-4.845-4.052.651.651,0,0,1,.644-1.132,25.532,25.532,0,0,1,5.138,4.279.652.652,0,0,1-.468,1.1Z" transform="translate(-915.255 -7459.176)" fill="#4d4d4d"/>
            <path id="Trazado_111480" data-name="Trazado 111480" d="M941.3,7630.374a.651.651,0,0,1-.364-1.189c.208-.14,20.944-14.075,41.78-21.871.839-.622,7.248-5,20.554-4.025a166.273,166.273,0,0,1,25.56,3.971.649.649,0,1,1-.32,1.259,165.506,165.506,0,0,0-25.334-3.932c-13.512-.987-19.677,3.766-19.738,3.813a.655.655,0,0,1-.177.1c-20.719,7.733-41.39,21.624-41.6,21.763A.64.64,0,0,1,941.3,7630.374Z" transform="translate(-912.239 -7440.256)" fill="#4d4d4d"/>
            <path id="Trazado_111481" data-name="Trazado 111481" d="M1003.586,7555.058a25.806,25.806,0,0,1-14.944-5.02c-.619-.439-13.52-9.6-19.383-15.458a22.229,22.229,0,0,1-1.933-2.15.65.65,0,1,1,1.034-.789c.141.186.3.38.469.581,4.7,5.492,20.4,16.636,20.563,16.752,10.692,7.493,20.1,3.869,20.192,3.834a.65.65,0,0,1,.486,1.206A18.536,18.536,0,0,1,1003.586,7555.058Z" transform="translate(-904.259 -7461.83)" fill="#4d4d4d"/>
          </g>
        </g>
      </g>
    </g>
    <path id="Trazado_111482" data-name="Trazado 111482" d="M943.341,7587.838a.636.636,0,0,1-.121-.012.649.649,0,0,1-.519-.759,57.688,57.688,0,0,0-6.607-38.711.652.652,0,0,1,.488-1c7.492-.661,40.148-15.622,40.477-15.772a.65.65,0,1,1,.544,1.181c-1.3.6-30.777,14.1-39.906,15.748a59.478,59.478,0,0,1,6.282,38.8A.651.651,0,0,1,943.341,7587.838Z" transform="translate(13.222 21.862)" fill="#4d4d4d"/>
  </g>
</svg>
