<svg xmlns="http://www.w3.org/2000/svg" xmlns:xlink="http://www.w3.org/1999/xlink" width="561.643" height="373.337" viewBox="0 0 561.643 373.337">
  <defs>
    <clipPath id="clip-path">
      <rect id="Rectángulo_10516" data-name="Rectángulo 10516" width="233.937" height="352.283" transform="translate(354.942 7417.889)" fill="none"/>
    </clipPath>
    <clipPath id="clip-path-2">
      <path id="Trazado_111410" data-name="Trazado 111410" d="M922.181,7775.152H691.449l12.017-343.695,214.709-4.006Z" fill="none"/>
    </clipPath>
  </defs>
  <g id="Grupo_56930" data-name="Grupo 56930" transform="translate(-472 -3907)">
    <g id="Grupo_56915" data-name="Grupo 56915" transform="translate(127.45 -3510.889)">
      <rect id="Rectángulo_10509" data-name="Rectángulo 10509" width="249.643" height="371.735" rx="15.155" transform="translate(344.55 7417.889)" fill="#fff"/>
      <g id="Grupo_56914" data-name="Grupo 56914">
        <g id="Grupo_56913" data-name="Grupo 56913" clip-path="url(#clip-path)">
          <g id="Grupo_56912" data-name="Grupo 56912">
            <path id="Trazado_111265" data-name="Trazado 111265" d="M528.325,7505.271l4.192,3.9-.7,1.612,1.449,1.423s3.872-2.143,4-4.409l-.813-1.28-2.069.922-4.9-3.294-1.163-.355-.591.546Z" fill="#999"/>
            <path id="Trazado_111266" data-name="Trazado 111266" d="M527.505,7505.178l-2.552,5.125,1.218,1.265-.857,1.842s-4.378-.645-5.291-2.722l.31-1.485,2.261.136,3.429-4.807.963-.742.745.3Z" fill="#999"/>
            <g id="Grupo_56902" data-name="Grupo 56902">
              <path id="Trazado_111267" data-name="Trazado 111267" d="M555.154,7507.622s-12.4-5.352-17.074-8.473c0,0-4.539-2.19-4.729-12.092s.571-16.757,2.095-21.422l1.9-7.236s-5.522-8.569-20.946-10.568c0,0-10.378-.953-12.758,1.523,0,0-6.284,23.517-14.853,33.99,0,0-1.809,6.95-20.851,10.854l-22.469,4.855s-10.378,2.19-12,10.664c0,0-6.284,6.76-2.856,31.9l.952,5.141,11.044,56.936,16.091,63.79.666,2.285v6.379s-17.9,25.612-19.994,44.654-1.631,104.778-1.631,104.778,74.735,9.013,118.521,3l-1.115-100.357a85.71,85.71,0,0,0-7.617-33.7l-8.188-15.424s-1.428-1.143-1.142-11.616l6.76-35.323,8.092-25.421,6.094-11.234s7.934-10.346,6.918-18.979l-2.919-10.155s-.381-13.33.127-18.281l3.681-13.2,1.269-11.933s.889-5.459-2.792-8.505A92.645,92.645,0,0,0,555.154,7507.622Z" fill="#fff"/>
              <path id="Trazado_111268" data-name="Trazado 111268" d="M519.46,7831.06c-39.242,0-81.2-4.989-81.763-5.056l-.378-.045,0-.381c0-.857-.441-85.98,1.632-104.828,2.013-18.292,18.7-42.864,19.992-44.742v-6.182l-.649-2.227-16.094-63.8-11.05-56.959-.953-5.145c-3.243-23.776,2.1-31.223,2.88-32.17,1.724-8.561,12.2-10.868,12.308-10.89l22.468-4.855c18.454-3.783,20.507-10.477,20.525-10.544l.083-.161c8.411-10.281,14.706-33.594,14.769-33.828l.106-.188c2.5-2.594,12.677-1.7,13.109-1.654,15.461,2,21.039,10.408,21.27,10.764l.1.16-1.952,7.42c-1.584,4.855-2.262,11.816-2.08,21.3.182,9.466,4.444,11.691,4.486,11.712,4.634,3.093,16.932,8.411,17.056,8.464l.044.023a93.4,93.4,0,0,1,10.343,6.865c3.828,3.168,2.982,8.675,2.944,8.908l-1.267,11.909L563.7,7548.2c-.47,4.637-.139,17.162-.114,18.1l2.905,10.1c1.038,8.775-6.661,18.932-6.99,19.36l-6.056,11.178-8.062,25.346-6.748,35.273c-.258,9.7.964,11.164,1.017,11.222l.083.11,8.189,15.425a87.054,87.054,0,0,1,7.667,33.916l1.119,100.722-.378.052A281.11,281.11,0,0,1,519.46,7831.06Zm-81.281-5.869c5.8.677,75.971,8.631,117.653,3.012l-1.11-99.975a86.054,86.054,0,0,0-7.578-33.531L539,7679.35c-.386-.443-1.477-2.533-1.221-11.882l6.768-35.393,8.1-25.47,6.125-11.311c.116-.158,7.853-10.366,6.87-18.721l-2.923-10.194c-.016-.545-.376-13.415.129-18.336l3.7-13.275L567.8,7522.9c.011-.075.8-5.278-2.639-8.127a92.238,92.238,0,0,0-10.2-6.769c-.767-.332-12.527-5.431-17.121-8.5-.143-.064-4.727-2.39-4.921-12.444-.184-9.585.509-16.639,2.116-21.563l1.845-7.019c-.831-1.142-6.633-8.421-20.531-10.223-2.778-.254-10.356-.5-12.318,1.321-.49,1.793-6.654,23.892-14.85,33.971-.3.912-3.059,7.361-21.153,11.07l-22.465,4.854c-.1.023-10.117,2.236-11.663,10.322l-.022.121-.084.091c-.061.067-6.094,7-2.747,31.544l.951,5.122,11.043,56.932,16.085,63.766.679,2.391v6.515l-.078.112c-.179.255-17.861,25.74-19.919,44.453C437.812,7739,438.149,7818.938,438.179,7825.191Z" fill="#999"/>
            </g>
            <ellipse id="Elipse_4439" data-name="Elipse 4439" cx="2.571" cy="3.856" rx="2.571" ry="3.856" transform="translate(437.951 7526.283)" fill="#999"/>
            <path id="Trazado_111269" data-name="Trazado 111269" d="M564.841,7575.3l-4.772-18.058c-3.97-12.666-4.651-19.957-5.681-30.993-.133-1.429-.272-2.92-.425-4.493-1.292-13.293-5.962-16.89-6.009-16.925l.509-.7c.2.149,5.023,3.795,6.359,17.541.153,1.574.293,3.067.426,4.5,1.025,10.982,1.7,18.237,5.65,30.835l4.777,18.077Z" fill="#999"/>
            <path id="Trazado_111270" data-name="Trazado 111270" d="M505.21,7674.992q-2.083,0-4.332-.035c-29.752-.473-42.253-7.032-42.376-7.1l.41-.76c.121.065,12.475,6.526,41.979,6.994,29.394.47,36.726-3.98,36.8-4.025l.469.725C537.878,7670.973,531.365,7674.992,505.21,7674.992Z" fill="#999"/>
            <path id="Trazado_111271" data-name="Trazado 111271" d="M506.174,7684.189q-2.531,0-5.3-.092c-27.859-.945-41.087-7.5-41.217-7.569l.391-.771c.129.067,13.212,6.539,40.855,7.476,27.56.93,36.671-5.747,36.76-5.814l.525.686C537.838,7678.369,529.947,7684.189,506.174,7684.189Z" fill="#999"/>
            <path id="Trazado_111272" data-name="Trazado 111272" d="M518.015,7507.993a20.966,20.966,0,0,1-4.561-.52c-15.4-3.423-28.208-19.891-28.335-20.058l.684-.526c.126.163,12.748,16.386,27.837,19.74,14.88,3.306,20.847-10.545,21.092-11.137l.8.331C535.473,7495.959,530.314,7507.993,518.015,7507.993Z" fill="#999"/>
            <path id="Trazado_111273" data-name="Trazado 111273" d="M531.912,7466.708c-16.185,0-29.551-9.318-29.69-9.417l.5-.705c.144.1,14.645,10.186,31.556,9.19l.052.861C533.518,7466.686,532.71,7466.708,531.912,7466.708Z" fill="#999"/>
            <path id="Trazado_111274" data-name="Trazado 111274" d="M532,7460.021c-14.511,0-28.224-9.348-28.378-9.455l.49-.711c.172.118,17.311,11.8,33.316,8.817l.158.851A30.553,30.553,0,0,1,532,7460.021Z" fill="#999"/>
            <path id="Trazado_111275" data-name="Trazado 111275" d="M503.777,7830.419l-.088-89.629c.628-14.168-2.378-45.344-2.409-45.658l-.763-21.607L499.374,7615c.015-.271,1.422-23.8,3.434-35,1.974-10.983-6.559-22.271-6.646-22.383-.16-.323-11.171-24.3-16.951-42.022-5.678-17.4-14.694-19.5-14.784-19.514l.175-.846c.389.08,9.579,2.161,15.43,20.092,5.765,17.67,16.755,41.606,16.865,41.846.313.391,8.8,11.624,6.761,22.98-2,11.143-3.407,34.624-3.421,34.86l1.143,58.487.762,21.575c.028.288,3.04,31.524,2.411,45.734l.088,89.61Z" fill="#999"/>
            <path id="Trazado_111276" data-name="Trazado 111276" d="M529.977,7830.534l-.863-.025c.033-1.148,3.264-115-2.174-132.626-5.483-17.771-3.843-40.868-3.827-41.1l6.477-53.337c.023-.3,2.44-31.92,1.038-46.942-.449-4.821-1.467-10.8-2.545-17.138-2.312-13.6-5.191-30.526-4.017-45.394l2.9-27.051.859.092-2.9,27.039c-1.165,14.75,1.7,31.617,4.01,45.169,1.079,6.351,2.1,12.349,2.552,17.2,1.409,15.1-1.014,46.79-1.038,47.109l-6.477,53.335c-.015.21-1.642,23.147,3.792,40.761C533.247,7715.392,530.113,7825.841,529.977,7830.534Z" fill="#999"/>
            <path id="Trazado_111277" data-name="Trazado 111277" d="M458.51,7586.124l-3.28-10.72.351-.156c.291-.13,29.521-12.905,53.851-8.735,24.179,4.14,53.294,7.956,53.586,7.994l2.081.33.081.252c.083.252,1.944,6.2-1.922,9.872l-.155.147-.212-.035-28.659-4.76c-.334-.069-31.929-6.428-42.177-3.439-10.357,3.012-32.915,9.081-33.141,9.142Zm-2.229-10.237,2.812,9.186c3.093-.833,23.138-6.241,32.721-9.029,10.455-3.038,41.268,3.153,42.574,3.42l28.427,4.721c2.87-2.908,1.907-7.467,1.614-8.58l-1.535-.243c-.28-.036-29.411-3.855-53.608-8C486.667,7563.5,459.665,7574.458,456.281,7575.887Z" fill="#999"/>
            <path id="Trazado_111278" data-name="Trazado 111278" d="M505.815,7683.813l-2.895-2.9,2.23-3.059-2.767-3.005.634-.585,3.248,3.527-2.212,3.034,2.373,2.372Z" fill="#999"/>
            <path id="Trazado_111279" data-name="Trazado 111279" d="M509.946,7683.813l-2.895-2.9,2.23-3.059-2.767-3.005.634-.585,3.248,3.527-2.212,3.034,2.373,2.372Z" fill="#999"/>
            <path id="Trazado_111280" data-name="Trazado 111280" d="M514.394,7683.813l-2.895-2.9,2.23-3.059-2.767-3.005.634-.585,3.248,3.527-2.212,3.034,2.373,2.372Z" fill="#999"/>
            <path id="Trazado_111281" data-name="Trazado 111281" d="M518.6,7683.813l-2.895-2.9,2.231-3.059-2.768-3.005.634-.585,3.249,3.527-2.213,3.034,2.373,2.372Z" fill="#999"/>
            <path id="Trazado_111282" data-name="Trazado 111282" d="M522.658,7683.119l-2.895-2.9,2.23-3.06-2.767-3,.634-.585,3.248,3.527-2.212,3.034,2.373,2.372Z" fill="#999"/>
            <path id="Trazado_111283" data-name="Trazado 111283" d="M483.614,7682.743,481,7679.66l2.514-2.717-2.454-3.147.682-.531,2.906,3.725-2.493,2.695,2.121,2.5Z" fill="#999"/>
            <path id="Trazado_111284" data-name="Trazado 111284" d="M487.725,7683.153l-2.616-3.083,2.514-2.717-2.454-3.147.682-.531,2.906,3.725-2.493,2.695,2.121,2.5Z" fill="#999"/>
            <path id="Trazado_111285" data-name="Trazado 111285" d="M492.15,7683.6l-2.615-3.083,2.514-2.717-2.455-3.147.682-.531,2.905,3.725-2.491,2.694,2.12,2.5Z" fill="#999"/>
            <path id="Trazado_111286" data-name="Trazado 111286" d="M470.767,7680.04l-2.616-3.083,2.514-2.717-2.454-3.147.682-.531,2.906,3.725-2.493,2.695,2.121,2.5Z" fill="#999"/>
            <path id="Trazado_111287" data-name="Trazado 111287" d="M466.744,7678.885l-2.616-3.083,2.514-2.717-2.454-3.147.682-.531,2.906,3.725-2.493,2.695,2.121,2.5Z" fill="#999"/>
            <path id="Trazado_111288" data-name="Trazado 111288" d="M463.424,7677.752l-2.616-3.083,2.514-2.717-2.454-3.146.682-.531,2.906,3.725-2.493,2.695,2.121,2.5Z" fill="#999"/>
            <path id="Trazado_111289" data-name="Trazado 111289" d="M474.878,7681.141l-2.616-3.083,2.514-2.717-2.454-3.147.682-.531,2.906,3.725-2.493,2.695,2.121,2.5Z" fill="#999"/>
            <path id="Trazado_111290" data-name="Trazado 111290" d="M479.3,7681.584l-2.616-3.084,2.514-2.717-2.454-3.146.682-.531,2.906,3.725-2.493,2.695,2.121,2.5Z" fill="#999"/>
            <path id="Trazado_111291" data-name="Trazado 111291" d="M496.34,7684.014l-2.616-3.083,2.514-2.717-2.454-3.147.682-.531,2.906,3.725-2.493,2.694,2.121,2.5Z" fill="#999"/>
            <path id="Trazado_111292" data-name="Trazado 111292" d="M500.44,7683.75l-2.616-3.083,2.514-2.717-2.454-3.147.682-.531,2.906,3.725-2.493,2.694,2.121,2.5Z" fill="#999"/>
            <path id="Trazado_111293" data-name="Trazado 111293" d="M534.3,7679.706l-2.665-2.37,2-2.435-2.4-2.32.6-.621,2.975,2.874-1.975,2.408,2.045,1.818Z" fill="#999"/>
            <path id="Trazado_111294" data-name="Trazado 111294" d="M530.956,7680.735l-2.665-2.37,2-2.435-2.4-2.319.6-.621,2.977,2.873-1.976,2.408,2.045,1.819Z" fill="#999"/>
            <path id="Trazado_111295" data-name="Trazado 111295" d="M527.8,7681.71l-2.942-2.539,2.22-2.625-2.69-2.519.589-.63,3.291,3.079-2.2,2.6,2.294,1.978Z" fill="#999"/>
            <path id="Trazado_111296" data-name="Trazado 111296" d="M537.077,7678.87l-2.354-2.278,1.762-2.339-2.121-2.228.625-.6,2.627,2.759-1.744,2.314,1.805,1.747Z" fill="#999"/>
            <path id="Trazado_111297" data-name="Trazado 111297" d="M480.37,7829.292l-.864,0,.951-146.478,1.714-57.512v-52.335h.864v52.348l-1.714,57.514Z" fill="#999"/>
            <path id="Trazado_111298" data-name="Trazado 111298" d="M454.373,7827.269l-.864-.027c.024-.74,2.333-74.391,3.19-106.139.824-30.531,10.241-40.746,11.449-41.931l1.089-6.889-25.251-116.537.844-.183,25.287,116.7-.014.08-1.149,7.26-.111.1c-.1.095-10.43,9.92-11.281,41.423C456.7,7752.877,454.395,7826.529,454.373,7827.269Z" fill="#999"/>
            <g id="Grupo_56903" data-name="Grupo 56903">
              <rect id="Rectángulo_10510" data-name="Rectángulo 10510" width="0.863" height="1.152" transform="translate(442.916 7555.746) rotate(-12.232)" fill="#999"/>
              <path id="Trazado_111299" data-name="Trazado 111299" d="M453.456,7823.139l-.864-.027.072-2.306.864.027Zm.143-4.611-.864-.027.071-2.3.864.027Zm.141-4.608-.864-.027.071-2.3.863.027Zm.141-4.6-.863-.027.07-2.3.864.027Zm.141-4.6-.864-.027.071-2.3.864.027Zm.142-4.606-.864-.024.07-2.3.863.027Zm.139-4.6-.864-.024.07-2.3.864.027Zm.138-4.6-.863-.027.07-2.3.864.027Zm.141-4.6-.864-.025.07-2.3.864.027Zm.139-4.6-.863-.025.069-2.3.864.027Zm.139-4.6-.864-.025.07-2.3.863.027Zm.139-4.6-.864-.027.069-2.3.864.025Zm.138-4.6-.863-.027.068-2.305.864.025Zm.137-4.607-.864-.027.066-2.228.434-.057.43.082Zm.138-4.594-.864-.025.068-2.3.863.025Zm.136-4.6-.864-.025.068-2.3.863.025Zm.134-4.6-.864-.025.068-2.3.863.025Zm.135-4.6-.864-.025.068-2.3.863.025Zm.135-4.6-.864-.025.066-2.3.864.024Zm.13-4.6-.864-.027.067-2.3.864.024Zm.133-4.606-.864-.025.064-2.3.864.025Zm.128-4.6-.864-.025.065-2.3.863.023Zm.127-4.6-.864-.023.021-.75q.021-.787.05-1.554l.864.031q-.028.765-.051,1.547Zm.175-4.587-.862-.045q.063-1.175.143-2.3l.861.061C456.735,7715.751,456.686,7716.513,456.645,7717.289Zm.323-4.568-.859-.079q.106-1.17.227-2.294l.86.092Q457.074,7711.556,456.968,7712.721Zm.5-4.555-.857-.11q.152-1.17.32-2.286l.855.131Q457.618,7707.005,457.468,7708.166Zm.687-4.525-.85-.148c.136-.78.28-1.535.428-2.27l.846.171Q458.36,7702.486,458.155,7703.641Zm.906-4.481-.841-.194q.268-1.164.552-2.245l.835.218Q459.327,7698.011,459.061,7699.16Zm1.159-4.423-.828-.245q.34-1.154.7-2.206l.819.274Q460.557,7693.6,460.22,7694.737Zm1.453-4.327-.808-.3q.431-1.145.866-2.15l.794.342C462.241,7688.958,461.955,7689.661,461.673,7690.41Zm1.8-4.181-.776-.38c.371-.757.734-1.441,1.084-2.057l.751.425C464.194,7684.82,463.838,7685.488,463.476,7686.229Zm2.246-3.943-.718-.479a22.194,22.194,0,0,1,1.4-1.884l.663.554A21.686,21.686,0,0,0,465.722,7682.286Zm2.372-4.013-.853-.135.359-2.27.852.135Zm.717-4.542-.852-.135.207-1.313-.171-.789.843-.185.207.95Zm-1.3-4.486-.487-2.248.843-.182.487,2.247Zm-.974-4.5-.487-2.248.843-.182.487,2.248Zm-.974-4.5-.487-2.248.843-.182.487,2.248Zm-.974-4.5-.487-2.247.843-.182.487,2.247Zm-.974-4.495-.487-2.248.843-.182.487,2.247Zm-.974-4.5-.487-2.248.843-.182.487,2.248Zm-.974-4.5-.487-2.247.843-.182.487,2.247Zm-.974-4.5-.487-2.247.843-.182.487,2.247Zm-.974-4.494-.487-2.249.844-.182.487,2.248Zm-.974-4.5-.487-2.247.844-.182.487,2.247Zm-.974-4.5-.487-2.247.844-.182.487,2.247Zm-.974-4.494-.487-2.248.844-.183.487,2.249Zm-.974-4.495-.487-2.249.844-.182.487,2.248Zm-.974-4.5-.487-2.247.844-.182.487,2.247Zm-.974-4.5-.487-2.247.844-.182.487,2.247Zm-.974-4.494-.487-2.248.844-.183.487,2.249Zm-.974-4.495-.487-2.248.844-.182.487,2.247Zm-.974-4.5-.487-2.247.844-.182.487,2.247Zm-.974-4.494-.487-2.248.844-.182.487,2.248Zm-.974-4.5-.487-2.247.844-.182.487,2.247Zm-.974-4.495-.486-2.248.843-.182.487,2.247Zm-.973-4.5-.487-2.247.843-.182.487,2.247Zm-.974-4.494-.487-2.248.843-.182.487,2.248Zm-.974-4.5-.487-2.247.843-.182.487,2.247Zm-.974-4.495-.487-2.248.843-.182.487,2.247Z" fill="#999"/>
              <rect id="Rectángulo_10511" data-name="Rectángulo 10511" width="1.147" height="0.864" transform="matrix(0.029, -1, 1, 0.029, 452.49, 7826.464)" fill="#999"/>
            </g>
            <g id="Grupo_56904" data-name="Grupo 56904">
              <rect id="Rectángulo_10512" data-name="Rectángulo 10512" width="0.863" height="1.152" transform="translate(445.07 7555.743) rotate(-12.232)" fill="#999"/>
              <path id="Trazado_111300" data-name="Trazado 111300" d="M455.7,7823.913l-.863-.025.067-2.312.864.025Zm.135-4.623-.863-.025.067-2.31.864.025Zm.136-4.622-.863-.024.067-2.309.864.024Zm.133-4.618-.864-.027.068-2.306.864.025Zm.135-4.616-.864-.025.068-2.309.864.025Zm.135-4.617-.864-.025.067-2.308.863.025Zm.134-4.617-.864-.025.066-2.307.864.024Zm.133-4.614-.864-.025.067-2.308.864.025Zm.133-4.615-.863-.025.067-2.307.864.024Zm.135-4.614-.863-.025.066-2.308.864.025Zm.133-4.616-.864-.025.067-2.308.863.025Zm.133-4.613-.864-.025.064-2.24.866-.043Zm.132-4.617-.863-.025.066-2.312.864.025Zm.132-4.62-.864-.025.067-2.306.863.025Zm.133-4.607-.864-.025.065-2.307.864.024Zm.132-4.614-.863-.025.065-2.308.864.025Zm.132-4.617-.864-.025.066-2.307.863.025Zm.131-4.615-.864-.024.065-2.307.864.025Zm.128-4.614-.864-.025.065-2.308.864.025Zm.13-4.617-.864-.025.065-2.307.863.024Zm.128-4.617-.863-.023.064-2.308.864.025Zm.13-4.615-.864-.023.063-2.309.864.023Zm.125-4.618-.864-.023.067-2.31.864.03Zm.164-4.6-.864-.043q.062-1.177.136-2.309l.862.059Q458.834,7716.588,458.776,7717.756Zm.31-4.584-.861-.074q.1-1.175.219-2.3l.859.09C459.225,7711.632,459.151,7712.393,459.086,7713.172Zm.478-4.569-.857-.108q.148-1.173.313-2.292l.855.126C459.765,7707.068,459.663,7707.827,459.564,7708.6Zm.67-4.541-.851-.146q.2-1.17.42-2.277l.848.167Q460.434,7702.9,460.234,7704.062Zm.891-4.5-.843-.189q.261-1.168.541-2.255l.836.214Q461.385,7698.41,461.125,7699.563Zm1.135-4.44-.83-.241q.338-1.158.685-2.217l.821.27Q462.591,7693.98,462.26,7695.123Zm1.428-4.348-.809-.3q.426-1.148.854-2.162l.8.335Q464.11,7689.646,463.688,7690.775Zm1.777-4.212-.778-.373c.363-.758.722-1.448,1.066-2.072l.756.419C466.172,7685.147,465.822,7685.821,465.465,7686.563Zm2.213-3.979-.725-.47c.455-.7.915-1.343,1.367-1.908l.675.539C468.559,7681.289,468.117,7681.907,467.678,7682.584Zm2.514-3.964-.852-.135.36-2.278.852.135Zm.721-4.556-.852-.135.259-1.648-.1-.465.844-.183.136.623Zm-1.181-4.5-.488-2.254.844-.182.488,2.254Zm-.977-4.508-.488-2.254.843-.182.488,2.254Zm-.976-4.508-.488-2.253.843-.183.488,2.254Zm-.976-4.507-.49-2.254.844-.182.489,2.254Zm-.978-4.508-.488-2.254.844-.182.488,2.254Zm-.976-4.508-.489-2.253.843-.183.489,2.254Zm-.977-4.507-.488-2.254.843-.182.488,2.254Zm-.977-4.508-.488-2.255.844-.182.488,2.255Zm-.977-4.509-.488-2.254.844-.182.488,2.254Zm-.976-4.507-.488-2.254.843-.182.488,2.253Zm-.977-4.508-.489-2.254.844-.182.488,2.254Zm-.977-4.508-.488-2.254.844-.182.488,2.254Zm-.976-4.507-.489-2.254.843-.182.49,2.253Zm-.977-4.508-.488-2.254.843-.182.488,2.254Zm-.976-4.508-.49-2.253.844-.183.489,2.254Zm-.978-4.507-.488-2.254.844-.182.488,2.253Zm-.976-4.508-.488-2.254.843-.182.489,2.254Zm-.977-4.508-.488-2.253.843-.183.488,2.254Zm-.976-4.507-.489-2.254.844-.182.488,2.254Zm-.978-4.509-.488-2.254.844-.182.488,2.254Zm-.976-4.508-.488-2.254.843-.182.488,2.254Zm-.976-4.507-.489-2.254.843-.182.489,2.253Zm-.978-4.508-.488-2.254.844-.182.488,2.254Zm-.976-4.508-.489-2.254.843-.182.49,2.254Zm-.977-4.507-.488-2.254.843-.182.488,2.253Z" fill="#999"/>
              <rect id="Rectángulo_10513" data-name="Rectángulo 10513" width="1.147" height="0.864" transform="translate(454.741 7827.241) rotate(-88.21)" fill="#999"/>
            </g>
            <path id="Trazado_111301" data-name="Trazado 111301" d="M441.471,7556.9c-6.786,0-12.307-11.953-12.307-26.645s5.521-26.647,12.307-26.647,12.3,11.954,12.3,26.647S448.256,7556.9,441.471,7556.9Zm0-52.428c-6.31,0-11.443,11.566-11.443,25.783s5.133,25.781,11.443,25.781,11.441-11.566,11.441-25.781S447.779,7504.468,441.471,7504.468Z" fill="#999"/>
            <path id="Trazado_111302" data-name="Trazado 111302" d="M435.473,7589.006l-.279-.816c14.9-5.091,23.481-8.729,23.566-8.765.3-.121,29.3-11.741,53.132-8.528l19.617,4-.173.846-19.588-3.991c-23.562-3.177-52.368,8.357-52.657,8.475C459.013,7580.257,450.412,7583.9,435.473,7589.006Z" fill="#999"/>
            <path id="Trazado_111303" data-name="Trazado 111303" d="M566.464,7578.833l5.332-1.4.952,1.4,1.9-.444s.254-4.253-1.523-5.522h-1.46l-.317,2.158-5.205,2.285-.889.761.139.762Z" fill="#666"/>
            <path id="Trazado_111304" data-name="Trazado 111304" d="M529.545,7831.1h-.016a.575.575,0,0,1-.559-.592c.033-1.147,3.264-114.975-2.168-132.579-5.49-17.8-3.849-40.921-3.833-41.153l6.479-53.344c.021-.292,2.438-31.9,1.036-46.911-.448-4.816-1.465-10.795-2.542-17.126-2.315-13.609-5.2-30.544-4.019-45.43l3.236-27.952a.589.589,0,0,1,.639-.506.577.577,0,0,1,.506.638l-3.235,27.931c-1.163,14.723,1.7,31.58,4.009,45.125,1.079,6.354,2.1,12.355,2.554,17.212,1.409,15.109-1.015,46.814-1.04,47.133l-6.477,53.343c-.014.2-1.638,23.114,3.787,40.7,5.489,17.786,2.355,128.258,2.219,132.952A.576.576,0,0,1,529.545,7831.1Z" fill="#4d4d4d"/>
            <g id="Grupo_56905" data-name="Grupo 56905">
              <path id="Trazado_111305" data-name="Trazado 111305" d="M565.223,7579.521s-27.552-3-33.8-4.205" fill="#fff"/>
              <path id="Trazado_111306" data-name="Trazado 111306" d="M565.175,7579.951c-.276-.031-27.64-3.019-33.835-4.211l.165-.848c6.159,1.185,33.489,4.17,33.764,4.2Z" fill="#999"/>
            </g>
            <path id="Trazado_111307" data-name="Trazado 111307" d="M473.791,7575.211l-1.149-.067c.039-.669,3.923-67.134,6.149-84.419l1.143.146C477.712,7508.117,473.831,7574.542,473.791,7575.211Z" fill="#999"/>
            <g id="Grupo_56909" data-name="Grupo 56909">
              <g id="Grupo_56906" data-name="Grupo 56906">
                <path id="Trazado_111308" data-name="Trazado 111308" d="M518.34,7443.483v10.282a5.181,5.181,0,0,0,4.728.349l.1-10.631a8.246,8.246,0,0,0,6.22-8.188s.889-9.077-8.252-8.7-7.616,10.917-7.616,10.917S515.166,7442.848,518.34,7443.483Z" fill="#fff"/>
                <path id="Trazado_111309" data-name="Trazado 111309" d="M521.031,7454.959a5.462,5.462,0,0,1-2.939-.839l-.185-.13v-10.171c-3.154-.956-4.736-5.955-4.8-6.175-.046-.284-.756-5.45,2.015-8.788a7.841,7.841,0,0,1,6-2.689c2.824-.117,5.031.631,6.54,2.228,2.543,2.689,2.175,6.77,2.158,6.942a8.622,8.622,0,0,1-6.22,8.471l-.1,10.6-.265.109A5.743,5.743,0,0,1,521.031,7454.959Zm-2.26-1.435a4.747,4.747,0,0,0,3.868.292l.1-10.678.331-.076a7.752,7.752,0,0,0,5.885-7.764c0-.083.344-3.915-1.928-6.314a7.292,7.292,0,0,0-5.873-1.953,7.012,7.012,0,0,0-5.368,2.376c-2.528,3.047-1.847,8-1.84,8.047h0c.006,0,1.6,5.03,4.481,5.6l.347.069Z" fill="#999"/>
              </g>
              <g id="Grupo_56907" data-name="Grupo 56907">
                <rect id="Rectángulo_10514" data-name="Rectángulo 10514" width="18.67" height="3.202" rx="1.209" transform="translate(512.079 7430.964)" fill="#fff"/>
                <path id="Trazado_111310" data-name="Trazado 111310" d="M529.356,7434.743H513.472a1.971,1.971,0,0,1-1.969-1.968v-.419a1.97,1.97,0,0,1,1.969-1.968h15.884a1.97,1.97,0,0,1,1.969,1.968v.419A1.971,1.971,0,0,1,529.356,7434.743Zm-15.884-3.2a.817.817,0,0,0-.817.816v.419a.818.818,0,0,0,.817.816h15.884a.818.818,0,0,0,.817-.816v-.419a.817.817,0,0,0-.817-.816Z" fill="#999"/>
              </g>
              <g id="Grupo_56908" data-name="Grupo 56908">
                <rect id="Rectángulo_10515" data-name="Rectángulo 10515" width="18.67" height="3.202" rx="1.209" transform="translate(512.079 7436.973)" fill="#fff"/>
                <path id="Trazado_111311" data-name="Trazado 111311" d="M529.356,7440.751H513.472a1.97,1.97,0,0,1-1.969-1.968v-.418a1.971,1.971,0,0,1,1.969-1.968h15.884a1.971,1.971,0,0,1,1.969,1.968v.418A1.97,1.97,0,0,1,529.356,7440.751Zm-15.884-3.2a.818.818,0,0,0-.817.816v.418a.818.818,0,0,0,.817.816h15.884a.818.818,0,0,0,.817-.816v-.418a.818.818,0,0,0-.817-.816Z" fill="#999"/>
              </g>
            </g>
            <g id="Grupo_56910" data-name="Grupo 56910" opacity="0.71">
              <path id="Trazado_111312" data-name="Trazado 111312" d="M477.17,7459.6s-8.213,6.738-14.621,9.341-19.457,7.835-19.457,7.835-9.184,2.781-15.594,7.788-17.425,9.084-17.425,9.084l-16.824,8.541L384.837,7508s17.225-.406,21.431,6.4l5.207,4.606s2.2,2.2-.4,8.613-11.793,20.029-11.793,20.029l-4.431,8.412s-3.505,5.056.4,10.039a76.347,76.347,0,0,0,10.215,10.076s2.6,1.215,3.6,7.224-.7,19.729-.7,19.729-.5,11.616.2,15.221,1.9,14.121,1.9,14.121l.7,12.117,6.209,26.43L431,7715.692s18.828,41.459,19.729,41.459,24.61-13.069,24.61-13.069,3.5-46.778,7.4-51.254c0,0,1.322,42.241,4.111,45.7l25.321-15.772-4.206-35.046,11.58,27.234,18.377-12.167s-10.729-19.078-10.729-21.03,3.515-63.992,3.515-63.992l1.792-41.574s-.715-21.718-2.786-30.931-6.42-38.487-6.42-38.487-42.956-11.537-38.931-24.98l5.226-8.637Z" fill="#ccc"/>
              <path id="Trazado_111313" data-name="Trazado 111313" d="M450.732,7757.726c-.476,0-1.273,0-20.253-41.8l-13.646-44.742-6.218-26.466L409.9,7632.5c-.009-.073-1.2-10.5-1.894-14.044-.705-3.63-.231-14.879-.21-15.356.021-.182,1.684-13.752.709-19.609-.927-5.562-3.265-6.788-3.288-6.8a.551.551,0,0,1-.111-.071,77.412,77.412,0,0,1-10.306-10.169c-4.121-5.256-.459-10.669-.422-10.723l4.4-8.352c.123-.189,9.216-13.7,11.769-19.977,2.392-5.89.539-7.975.52-7.995l-5.176-4.575a.593.593,0,0,1-.109-.13c-3.981-6.449-20.756-6.134-20.927-6.13a.576.576,0,0,1-.34-1.05l8.412-5.813,16.89-8.582c.171-.067,11.068-4.131,17.333-9.024,6.418-5.016,15.4-7.769,15.781-7.885-.005,0,13.008-5.218,19.406-7.817,6.253-2.541,14.391-9.186,14.472-9.254a.577.577,0,0,1,.79.056l12.418,13.548a.575.575,0,0,1,.069.687l-5.187,8.572a6.122,6.122,0,0,0,.714,4.85c5.951,10.671,37.517,19.257,37.835,19.342a.573.573,0,0,1,.419.471c.044.293,4.371,29.357,6.413,38.445,2.058,9.16,2.793,30.821,2.8,31.038l-1.793,41.617c-.036.628-3.516,62.053-3.516,63.968.018,1.2,5.5,11.587,10.655,20.748a.574.574,0,0,1-.183.762l-18.377,12.168a.576.576,0,0,1-.848-.255l-10-23.509,3.724,31.026a.578.578,0,0,1-.267.558l-25.322,15.772a.578.578,0,0,1-.752-.127c-2.54-3.148-3.826-34.271-4.161-43.729-2.778,8.3-5.452,37.312-6.323,48.968a.574.574,0,0,1-.3.461C466.717,7749.494,451.645,7757.726,450.732,7757.726Zm-44.946-182.031c.472.263,2.9,1.871,3.854,7.612,1,6.022-.628,19.33-.7,19.894,0,.07-.486,11.543.194,15.04.7,3.587,1.861,13.734,1.91,14.165l.7,12.15,6.194,26.332,13.61,44.635c6.968,15.331,17.643,38.4,19.368,40.982,1.955-.811,15.035-7.91,23.869-12.777.339-4.434,3.664-46.856,7.513-51.278a.576.576,0,0,1,1.01.36c.506,16.176,1.9,40.708,3.734,44.912l24.507-15.265-4.162-34.682a.576.576,0,0,1,.423-.626.583.583,0,0,1,.678.332l11.308,26.6,17.355-11.489c-2.277-4.062-10.541-18.927-10.541-20.846,0-1.948,3.372-61.491,3.516-64.025l1.792-41.565c-.007-.174-.738-21.727-2.773-30.781-1.925-8.565-5.858-34.719-6.372-38.156-3.754-1.036-32.274-9.209-38.176-19.793a7.3,7.3,0,0,1-.792-5.81.577.577,0,0,1,.058-.132l5-8.268-11.761-12.831c-1.781,1.424-8.686,6.788-14.345,9.087-6.41,2.6-19.459,7.837-19.459,7.837-.138.044-9.207,2.826-15.454,7.706-6.406,5-17.126,9-17.58,9.17L393.51,7502.7l-6.84,4.732c4.619.1,16.449.937,20.042,6.595l5.145,4.551c.127.126,2.468,2.575-.249,9.262-2.6,6.392-11.472,19.576-11.849,20.134l-4.4,8.358a8.041,8.041,0,0,0,.346,9.415A75.607,75.607,0,0,0,405.786,7575.695Z" fill="#4d4d4d"/>
            </g>
            <path id="Trazado_111314" data-name="Trazado 111314" d="M411.476,7628.93a.576.576,0,0,1-.335-1.044c.551-.4,55.458-39.636,85.508-56.306a20.151,20.151,0,0,1,12.07-2.418c4.919.549,12.348,1.968,17.772,3,2.628.5,4.7.9,5.742,1.052a.576.576,0,0,1-.168,1.139c-1.062-.157-3.148-.556-5.79-1.06-5.405-1.032-12.809-2.446-17.684-2.99a18.982,18.982,0,0,0-11.384,2.28c-29.992,16.638-84.845,55.841-85.4,56.235A.568.568,0,0,1,411.476,7628.93Z" fill="#4d4d4d"/>
            <path id="Trazado_111315" data-name="Trazado 111315" d="M564.614,7577.664l5.5-.271.645,1.562,1.955-.043s1.123-4.11-.356-5.717l-1.428-.3-.755,2.046-5.563,1.167-1.026.563-.021.774Z" fill="#666"/>
            <path id="Trazado_111316" data-name="Trazado 111316" d="M525.979,7509.737l5.505-.271.645,1.563,1.955-.044s1.122-4.11-.356-5.717l-1.429-.3-.754,2.046-5.563,1.167-1.027.563-.02.774Z" fill="#666"/>
            <path id="Trazado_111317" data-name="Trazado 111317" d="M501.322,7568.408l4.2-3.565,1.463.847,1.524-1.224s-1.611-3.944-3.762-4.32l-1.316.631.647,2.083-3.7,4.312-.472,1.071.455.627Z" fill="#666"/>
            <path id="Trazado_111318" data-name="Trazado 111318" d="M486.215,7685.284l4.2-3.566,1.462.847,1.525-1.224s-1.611-3.944-3.763-4.32l-1.316.632.648,2.083-3.7,4.311-.471,1.071.455.627Z" fill="#666"/>
            <path id="Trazado_111319" data-name="Trazado 111319" d="M524.51,7688.212l4.2-3.566,1.462.847,1.525-1.224s-1.611-3.944-3.762-4.32l-1.316.632.647,2.083-3.7,4.312-.472,1.071.455.626Z" fill="#666"/>
            <path id="Trazado_111320" data-name="Trazado 111320" d="M487.048,7693.29l4.2,3.565,1.463-.847,1.524,1.224s-1.61,3.944-3.762,4.32l-1.316-.631.647-2.083-3.7-4.312-.471-1.071.454-.627Z" fill="#666"/>
            <path id="Trazado_111321" data-name="Trazado 111321" d="M526.827,7692.529l4.2,3.566,1.462-.847,1.525,1.224s-1.611,3.944-3.763,4.32l-1.316-.632.648-2.083-3.7-4.311-.472-1.072.455-.626Z" fill="#666"/>
            <path id="Trazado_111322" data-name="Trazado 111322" d="M479.452,7691.914l-4.2,3.566-1.462-.847-1.525,1.224s1.611,3.944,3.763,4.32l1.316-.632-.648-2.083,3.7-4.311.472-1.071-.455-.627Z" fill="#666"/>
            <path id="Trazado_111323" data-name="Trazado 111323" d="M464.1,7688.167l-4.2,3.566-1.462-.847-1.525,1.224s1.611,3.944,3.762,4.32l1.317-.632-.648-2.083,3.7-4.311.472-1.072-.455-.626Z" fill="#666"/>
            <path id="Trazado_111324" data-name="Trazado 111324" d="M441.918,7497.358l-.375-5.5,1.549-.674-.08-1.954s-4.13-1.044-5.71.465l-.273,1.434,2.061.715,1.272,5.54.582,1.015.774.006Z" fill="#666"/>
            <path id="Trazado_111325" data-name="Trazado 111325" d="M440.126,7497.835l-4.18-3.592.608-1.578-1.448-1.313s-3.643,2.208-3.677,4.392l.83,1.2,1.956-.966,4.839,2.983,1.131.3.548-.547Z" fill="#666"/>
            <path id="Trazado_111326" data-name="Trazado 111326" d="M485.928,7485.25l-.375-5.5,1.55-.674-.08-1.954s-4.131-1.044-5.71.465l-.273,1.434,2.061.715,1.272,5.54.582,1.015.774.006Z" fill="#666"/>
            <path id="Trazado_111327" data-name="Trazado 111327" d="M484.137,7485.727l-4.18-3.592.608-1.578-1.448-1.313s-3.643,2.208-3.677,4.392l.83,1.2,1.955-.966,4.839,2.983,1.132.3.548-.547Z" fill="#666"/>
            <path id="Trazado_111328" data-name="Trazado 111328" d="M462.211,7579.248l-5.071-2.159.1-1.687-1.778-.814s-2.8,3.208-2.175,5.3l1.155.894,1.571-1.513,5.515,1.379,1.169-.059.356-.687Z" fill="#666"/>
            <path id="Trazado_111329" data-name="Trazado 111329" d="M447.913,7566.05l-4.635-2.983.385-1.646-1.615-1.1s-3.3,2.689-3.037,4.857l.987,1.075,1.8-1.226,5.2,2.289,1.163.139.467-.617Z" fill="#666"/>
            <path id="Trazado_111330" data-name="Trazado 111330" d="M448.506,7568.857l-4.634,2.983.385,1.646-1.616,1.1s-3.3-2.689-3.037-4.857l.987-1.075,1.8,1.225,5.2-2.288,1.162-.14.467.618Z" fill="#666"/>
            <path id="Trazado_111331" data-name="Trazado 111331" d="M531.974,7570.667l5.191-1.851,1.069,1.309,1.859-.606s-.113-4.259-1.993-5.371l-1.455.126-.13,2.177-4.989,2.725-.819.836.2.746Z" fill="#666"/>
            <path id="Trazado_111332" data-name="Trazado 111332" d="M530.766,7574.047l4.158,3.618-.617,1.574,1.44,1.322s3.656-2.186,3.7-4.369l-.822-1.207-1.962.954-4.82-3.012-1.13-.3-.551.544Z" fill="#666"/>
            <path id="Trazado_111333" data-name="Trazado 111333" d="M429.6,7737.874a.484.484,0,0,1-.091-.008l-30.717-4.945a.575.575,0,0,1-.268-1.017l5.8-4.654c-3.762-4.269-32.416-37.4-35.789-59.337a151.948,151.948,0,0,1,.172-44.488.576.576,0,0,1,.543-.474.564.564,0,0,1,.58.427l6.606,24.789c1.763-4.576,6.618-17.113,8.014-20.1.244-.525.57-.573.807-.513.582.138.573.421.491,3.119-.967,31.433,7.922,59.532,26.424,83.542l.3-5.772a.576.576,0,0,1,1.074-.257l16.554,28.827a.577.577,0,0,1-.5.863Zm-29.344-5.883,28.243,4.547-14.978-26.085-.276,5.362a.575.575,0,0,1-1.026.327c-19.319-24.494-28.612-53.263-27.62-85.506v0c-2.483,5.955-7.663,19.446-7.723,19.6a.545.545,0,0,1-.568.369.573.573,0,0,1-.526-.426l-6.349-23.826a152.471,152.471,0,0,0,.243,41.386c3.54,23.026,35.588,58.839,35.91,59.2a.575.575,0,0,1-.067.835Z" fill="#4d4d4d"/>
            <g id="Grupo_56911" data-name="Grupo 56911" opacity="0.71">
              <path id="Trazado_111334" data-name="Trazado 111334" d="M523.153,7505.5l2.9-13.181-10.336-1.792s-.73,5.609-1.632,7.812a4.248,4.248,0,0,1-2.471,2.629l1.469-9.235v-1.452s.4-1.552-.451-1.853-3.236-1.452-3.236-1.452-3.723,5.131-4.874,6.82-3.165,4.744-3.165,4.744l5.7-12.243a9.188,9.188,0,0,0-2.759-3.311,7.4,7.4,0,0,0-1.833-.281,25.921,25.921,0,0,0-4.071,4.446,20.738,20.738,0,0,1-4.153,4.2l1.559-5.423s2.194-6.109,1.793-6.86a5.041,5.041,0,0,0-1.652-1.452s-3.054-1.9-4.256,0l-5,7.561-.35,1.552a31.927,31.927,0,0,0,6.75,6.913c4.657,3.655,14.12,7.54,22.3,11.4S523.153,7505.5,523.153,7505.5Z" fill="#ccc"/>
              <path id="Trazado_111335" data-name="Trazado 111335" d="M521.316,7507.457a16.076,16.076,0,0,1-6.169-1.9c-1.8-.85-3.671-1.7-5.533-2.551-2.819-1.287-5.68-2.592-8.316-3.894a.581.581,0,0,1-.353-.175,50.435,50.435,0,0,1-8.208-4.842,32.263,32.263,0,0,1-6.879-7.054.575.575,0,0,1-.077-.439l.351-1.552a.582.582,0,0,1,.081-.19l5-7.561c1.18-1.876,3.724-.991,5.041-.172a5.41,5.41,0,0,1,1.856,1.67c.345.648-.247,3.113-1.759,7.325l-1.031,3.584a14.8,14.8,0,0,0,2.592-2.856,26.122,26.122,0,0,1,4.183-4.58.5.5,0,0,1,.409-.139c1.731.092,2.039.315,2.14.388a9.731,9.731,0,0,1,2.948,3.545.576.576,0,0,1-.005.477l-2.615,5.615c1.533-2.166,3.936-5.477,3.966-5.519a.575.575,0,0,1,.716-.18c.024.012,2.365,1.142,3.177,1.429,1.031.364,1.016,1.685.835,2.465v1.382l-1.286,8.12a4.572,4.572,0,0,0,1.179-1.732,46.5,46.5,0,0,0,1.593-7.668.576.576,0,0,1,.229-.389.543.543,0,0,1,.44-.1l10.337,1.791a.576.576,0,0,1,.464.691l-2.887,13.1A1.762,1.762,0,0,1,523,7507,2.823,2.823,0,0,1,521.316,7507.457Zm-19.094-9.173c2.5,1.227,5.206,2.46,7.87,3.674,1.867.853,3.738,1.707,5.546,2.559,4.823,2.273,6.286,1.844,6.689,1.551a.6.6,0,0,0,.256-.5.569.569,0,0,1,.009-.193l2.774-12.592-9.156-1.587a41.313,41.313,0,0,1-1.587,7.361,4.8,4.8,0,0,1-2.853,2.965.576.576,0,0,1-.72-.645l1.469-9.235-.007-1.362a.624.624,0,0,1,.018-.143c.106-.419.117-1.1-.084-1.166-.653-.232-2.123-.92-2.86-1.27-.89,1.228-3.634,5.025-4.583,6.418C504.162,7495.356,502.86,7497.319,502.222,7498.284Zm-15.262-11.672a33.081,33.081,0,0,0,6.488,6.577,47.6,47.6,0,0,0,7.657,4.542l5.318-11.423a8.717,8.717,0,0,0-2.456-2.855,9.161,9.161,0,0,0-1.292-.157,24.076,24.076,0,0,0-3.785,4.158,21,21,0,0,1-4.3,4.355.576.576,0,0,1-.9-.617l1.56-5.423c.967-2.7,1.929-5.922,1.814-6.487a4.521,4.521,0,0,0-1.4-1.162c-.047-.028-2.606-1.591-3.488-.2l-4.946,7.484Z" fill="#4d4d4d"/>
            </g>
            <path id="Trazado_111336" data-name="Trazado 111336" d="M527.366,7678.574a.578.578,0,0,1-.548-.4c-19.506-59.52-20.554-100.078-20.562-100.48a.575.575,0,0,1,.563-.588h.013a.575.575,0,0,1,.575.563c.008.4,1.058,40.8,20.506,100.147a.578.578,0,0,1-.368.727A.585.585,0,0,1,527.366,7678.574Z" fill="#4d4d4d"/>
          </g>
        </g>
      </g>
    </g>
    <g id="Grupo_56929" data-name="Grupo 56929" transform="translate(104.745 -3510.088)">
      <rect id="Rectángulo_10517" data-name="Rectángulo 10517" width="249.643" height="373.337" rx="15.155" transform="translate(679.255 7417.088)" fill="#fff"/>
      <g id="Grupo_56928" data-name="Grupo 56928">
        <g id="Grupo_56927" data-name="Grupo 56927" clip-path="url(#clip-path-2)">
          <g id="Grupo_56926" data-name="Grupo 56926">
            <path id="Trazado_111337" data-name="Trazado 111337" d="M869.234,7513.186l4.192,3.9-.7,1.612,1.449,1.424s3.872-2.144,4-4.41l-.812-1.28-2.07.922-4.9-3.294-1.162-.355-.591.546Z" fill="#999"/>
            <path id="Trazado_111338" data-name="Trazado 111338" d="M868.414,7513.093l-2.553,5.125,1.218,1.265-.856,1.842s-4.378-.645-5.292-2.722l.31-1.485,2.262.136,3.429-4.807.963-.742.745.3Z" fill="#999"/>
            <g id="Grupo_56916" data-name="Grupo 56916">
              <path id="Trazado_111339" data-name="Trazado 111339" d="M896.063,7515.537s-12.4-5.352-17.075-8.473c0,0-4.538-2.19-4.728-12.092s.571-16.757,2.094-21.422l1.9-7.236s-5.522-8.569-20.946-10.568c0,0-10.377-.952-12.758,1.523,0,0-6.284,23.517-14.852,33.99,0,0-1.809,6.95-20.851,10.854l-22.47,4.855s-10.378,2.19-12,10.664c0,0-6.284,6.76-2.856,31.9l.952,5.141,11.044,56.936,16.09,63.79.667,2.285v6.379s-17.9,25.612-19.994,44.654-1.631,104.778-1.631,104.778,74.734,9.013,118.521,3l-1.115-100.357a85.71,85.71,0,0,0-7.617-33.7l-8.188-15.424s-1.428-1.143-1.143-11.616l6.76-35.323,8.093-25.421,6.094-11.234s7.934-10.346,6.918-18.979l-2.92-10.155s-.381-13.33.127-18.281l3.682-13.2,1.269-11.933s.889-5.459-2.793-8.505A92.569,92.569,0,0,0,896.063,7515.537Z" fill="#fff"/>
              <path id="Trazado_111340" data-name="Trazado 111340" d="M860.371,7838.975c-39.243,0-81.2-4.988-81.765-5.056l-.378-.045,0-.381c-.005-.857-.441-85.98,1.633-104.829,2.012-18.29,18.7-42.863,19.99-44.741v-6.181l-.648-2.227-16.094-63.806-11.05-56.959-.954-5.144c-3.241-23.776,2.1-31.224,2.88-32.17,1.724-8.561,12.2-10.868,12.31-10.891l22.466-4.854c18.456-3.783,20.507-10.477,20.525-10.544l.083-.162c8.412-10.28,14.707-33.593,14.77-33.827l.1-.188c2.5-2.6,12.679-1.693,13.109-1.653,15.462,2,21.041,10.406,21.271,10.763l.1.159-1.953,7.421c-1.585,4.854-2.263,11.814-2.081,21.3.182,9.466,4.445,11.69,4.488,11.712,4.632,3.092,16.931,8.411,17.054,8.464l.044.022a93.523,93.523,0,0,1,10.344,6.865c3.828,3.168,2.981,8.676,2.943,8.909l-1.265,11.909-3.7,13.272c-.469,4.637-.138,17.162-.112,18.1l2.9,10.1c1.038,8.776-6.663,18.933-6.991,19.361l-6.057,11.177-8.061,25.345-6.747,35.274c-.259,9.7.963,11.165,1.015,11.222l.084.111,8.188,15.423a87.015,87.015,0,0,1,7.667,33.917l1.12,100.723-.377.051A280.776,280.776,0,0,1,860.371,7838.975Zm-81.284-5.869c5.8.677,75.971,8.625,117.655,3.012l-1.112-99.976a86.06,86.06,0,0,0-7.578-33.531l-8.148-15.346c-.384-.443-1.475-2.532-1.22-11.882l6.767-35.393,8.106-25.47,6.125-11.31c.115-.159,7.853-10.366,6.87-18.722l-2.924-10.194c-.016-.546-.375-13.414.129-18.337l3.7-13.274,1.255-11.863c.011-.076.8-5.278-2.638-8.127a92.07,92.07,0,0,0-10.2-6.769c-.766-.331-12.527-5.43-17.12-8.5-.143-.064-4.728-2.39-4.921-12.442-.185-9.588.508-16.642,2.116-21.564l1.846-7.019c-.831-1.143-6.634-8.422-20.533-10.222-2.78-.255-10.356-.506-12.317,1.32-.491,1.793-6.655,23.891-14.851,33.971-.3.912-3.057,7.36-21.152,11.07l-22.464,4.854c-.1.022-10.119,2.237-11.664,10.323l-.023.12-.084.091c-.061.068-6.092,7-2.746,31.545l.95,5.121,11.043,56.931,16.085,63.768.679,2.391v6.514l-.077.111c-.179.256-17.86,25.742-19.918,44.454C778.72,7746.911,779.058,7826.853,779.087,7833.106Z" fill="#999"/>
            </g>
            <ellipse id="Elipse_4440" data-name="Elipse 4440" cx="2.571" cy="3.856" rx="2.571" ry="3.856" transform="translate(778.86 7534.198)" fill="#999"/>
            <path id="Trazado_111341" data-name="Trazado 111341" d="M905.75,7583.215l-4.773-18.058c-3.97-12.667-4.65-19.957-5.681-30.994-.132-1.428-.272-2.919-.425-4.493-1.292-13.293-5.962-16.89-6.009-16.925l.51-.7c.2.148,5.022,3.793,6.359,17.54.153,1.575.292,3.067.426,4.5,1.024,10.981,1.7,18.235,5.649,30.833l4.779,18.077Z" fill="#999"/>
            <path id="Trazado_111342" data-name="Trazado 111342" d="M846.126,7682.906c-1.391,0-2.835-.011-4.34-.035-29.752-.472-42.253-7.03-42.375-7.1l.409-.761c.122.066,12.475,6.526,41.979,6.994,29.4.467,36.728-3.981,36.8-4.026l.469.726C878.787,7678.888,872.273,7682.906,846.126,7682.906Z" fill="#999"/>
            <path id="Trazado_111343" data-name="Trazado 111343" d="M847.088,7692.1q-2.535,0-5.31-.093c-27.859-.943-41.085-7.5-41.215-7.569l.391-.77c.128.066,13.21,6.54,40.853,7.476,27.619.949,36.671-5.747,36.761-5.814l.524.686C878.747,7686.285,870.857,7692.1,847.088,7692.1Z" fill="#999"/>
            <path id="Trazado_111344" data-name="Trazado 111344" d="M858.923,7515.909a20.968,20.968,0,0,1-4.56-.521c-15.4-3.422-28.209-19.892-28.336-20.058l.684-.526c.126.163,12.748,16.387,27.839,19.741,14.883,3.318,20.847-10.546,21.092-11.139l.8.332C876.383,7503.874,871.221,7515.909,858.923,7515.909Z" fill="#999"/>
            <path id="Trazado_111345" data-name="Trazado 111345" d="M872.821,7474.623c-16.186,0-29.552-9.318-29.691-9.417l.5-.705c.144.1,14.652,10.168,31.557,9.189l.052.862Q874.022,7474.624,872.821,7474.623Z" fill="#999"/>
            <path id="Trazado_111346" data-name="Trazado 111346" d="M872.909,7467.935c-14.512,0-28.224-9.347-28.378-9.454l.491-.71c.171.118,17.315,11.805,33.317,8.816l.157.85A30.556,30.556,0,0,1,872.909,7467.935Z" fill="#999"/>
            <path id="Trazado_111347" data-name="Trazado 111347" d="M844.685,7838.335l-.086-89.629c.626-14.17-2.38-45.346-2.41-45.659l-.764-21.607-1.143-58.53c.015-.27,1.423-23.8,3.435-34.994,1.973-10.976-6.56-22.272-6.647-22.384-.159-.323-11.171-24.3-16.951-42.022-5.677-17.4-14.693-19.495-14.783-19.515l.174-.845c.389.08,9.581,2.16,15.43,20.092,5.765,17.671,16.756,41.606,16.866,41.845.312.392,8.8,11.626,6.761,22.982-2,11.142-3.407,34.623-3.422,34.859l1.144,58.488.761,21.573c.028.288,3.04,31.525,2.413,45.736l.086,89.61Z" fill="#999"/>
            <path id="Trazado_111348" data-name="Trazado 111348" d="M870.886,7838.45l-.864-.025c.034-1.148,3.265-115-2.173-132.627-5.483-17.771-3.843-40.869-3.826-41.1l6.476-53.337c.022-.3,2.439-31.919,1.039-46.942-.45-4.821-1.468-10.8-2.545-17.141-2.314-13.6-5.193-30.523-4.019-45.39l2.9-27.053.859.092-2.9,27.041c-1.164,14.748,1.7,31.614,4.009,45.165,1.081,6.352,2.1,12.351,2.553,17.205,1.408,15.1-1.014,46.79-1.039,47.108l-6.476,53.335c-.014.21-1.642,23.148,3.793,40.761C874.155,7723.307,871.022,7833.756,870.886,7838.45Z" fill="#999"/>
            <path id="Trazado_111349" data-name="Trazado 111349" d="M799.419,7594.04l-3.28-10.721.351-.155c.291-.13,29.537-12.907,53.85-8.736,24.179,4.14,53.295,7.956,53.586,7.994l2.083.328.081.253c.082.252,1.943,6.205-1.923,9.873l-.156.147-.212-.035-28.658-4.761c-.334-.067-31.923-6.425-42.177-3.438-10.357,3.013-32.915,9.082-33.142,9.143Zm-2.228-10.237,2.81,9.186c3.093-.833,23.139-6.242,32.722-9.03,10.451-3.038,41.268,3.153,42.575,3.419l28.427,4.721c2.87-2.907,1.906-7.466,1.614-8.58l-1.537-.243c-.28-.035-29.411-3.855-53.608-8C827.572,7571.412,800.575,7582.373,797.191,7583.8Z" fill="#999"/>
            <path id="Trazado_111350" data-name="Trazado 111350" d="M846.723,7691.727l-2.895-2.9,2.231-3.059-2.768-3.005.634-.585,3.249,3.527-2.213,3.034,2.373,2.372Z" fill="#999"/>
            <path id="Trazado_111351" data-name="Trazado 111351" d="M850.856,7691.727l-2.9-2.9,2.231-3.059-2.768-3.005.634-.585,3.249,3.527-2.213,3.034,2.373,2.372Z" fill="#999"/>
            <path id="Trazado_111352" data-name="Trazado 111352" d="M855.3,7691.727l-2.895-2.9,2.231-3.059-2.768-3.005.634-.585,3.249,3.527-2.213,3.034,2.373,2.372Z" fill="#999"/>
            <path id="Trazado_111353" data-name="Trazado 111353" d="M859.513,7691.727l-2.895-2.9,2.23-3.059-2.768-3.005.634-.585,3.249,3.527-2.212,3.034,2.373,2.372Z" fill="#999"/>
            <path id="Trazado_111354" data-name="Trazado 111354" d="M863.569,7691.033l-2.9-2.9,2.231-3.059-2.768-3,.634-.585,3.249,3.527-2.213,3.035,2.373,2.372Z" fill="#999"/>
            <path id="Trazado_111355" data-name="Trazado 111355" d="M824.523,7690.658l-2.616-3.083,2.513-2.716-2.454-3.146.682-.531,2.906,3.725-2.492,2.693,2.121,2.5Z" fill="#999"/>
            <path id="Trazado_111356" data-name="Trazado 111356" d="M828.633,7691.069l-2.615-3.083,2.513-2.716-2.454-3.147.682-.531,2.906,3.725-2.492,2.693,2.12,2.5Z" fill="#999"/>
            <path id="Trazado_111357" data-name="Trazado 111357" d="M833.06,7691.511l-2.616-3.083,2.514-2.716-2.454-3.146.682-.531,2.9,3.725-2.491,2.693,2.121,2.5Z" fill="#999"/>
            <path id="Trazado_111358" data-name="Trazado 111358" d="M811.675,7687.956l-2.615-3.084,2.513-2.716-2.454-3.146.682-.531,2.906,3.725-2.492,2.694,2.12,2.5Z" fill="#999"/>
            <path id="Trazado_111359" data-name="Trazado 111359" d="M807.652,7686.8l-2.616-3.084L807.55,7681l-2.454-3.147.682-.531,2.906,3.725-2.493,2.693,2.121,2.5Z" fill="#999"/>
            <path id="Trazado_111360" data-name="Trazado 111360" d="M804.333,7685.668l-2.616-3.084,2.513-2.716-2.454-3.146.682-.531,2.906,3.725-2.492,2.694,2.121,2.5Z" fill="#999"/>
            <path id="Trazado_111361" data-name="Trazado 111361" d="M815.786,7689.057l-2.616-3.084,2.514-2.716-2.454-3.146.682-.531,2.906,3.725L814.324,7686l2.121,2.5Z" fill="#999"/>
            <path id="Trazado_111362" data-name="Trazado 111362" d="M820.213,7689.5l-2.616-3.083,2.514-2.717-2.455-3.147.682-.531,2.905,3.725-2.491,2.695,2.121,2.5Z" fill="#999"/>
            <path id="Trazado_111363" data-name="Trazado 111363" d="M837.248,7691.929l-2.615-3.083,2.513-2.716-2.454-3.147.682-.531,2.906,3.725-2.492,2.693,2.12,2.5Z" fill="#999"/>
            <path id="Trazado_111364" data-name="Trazado 111364" d="M841.35,7691.666l-2.616-3.083,2.514-2.717-2.455-3.147.682-.531,2.905,3.725-2.491,2.695,2.121,2.5Z" fill="#999"/>
            <path id="Trazado_111365" data-name="Trazado 111365" d="M875.212,7687.622l-2.667-2.37,2-2.436-2.4-2.319.6-.621,2.977,2.872-1.977,2.409,2.046,1.818Z" fill="#999"/>
            <path id="Trazado_111366" data-name="Trazado 111366" d="M871.864,7688.651l-2.665-2.37,2-2.436-2.4-2.319.6-.621,2.975,2.873-1.975,2.409,2.045,1.818Z" fill="#999"/>
            <path id="Trazado_111367" data-name="Trazado 111367" d="M868.706,7689.625l-2.942-2.539,2.219-2.624-2.69-2.521.592-.63,3.289,3.081-2.2,2.6,2.294,1.978Z" fill="#999"/>
            <path id="Trazado_111368" data-name="Trazado 111368" d="M877.986,7686.784l-2.353-2.276,1.762-2.339-2.121-2.229.625-.6,2.625,2.76-1.742,2.314,1.8,1.746Z" fill="#999"/>
            <path id="Trazado_111369" data-name="Trazado 111369" d="M821.279,7837.207l-.864,0,.953-146.478,1.713-57.512v-52.334h.864v52.346l-1.713,57.514Z" fill="#999"/>
            <path id="Trazado_111370" data-name="Trazado 111370" d="M795.282,7835.184l-.864-.027c.024-.74,2.332-74.39,3.189-106.14.825-30.531,10.241-40.744,11.449-41.929l1.09-6.889L784.9,7563.66l.843-.182,25.287,116.7-.013.08-1.15,7.261-.111.1c-.1.1-10.429,9.92-11.28,41.423C797.614,7760.793,795.3,7834.444,795.282,7835.184Z" fill="#999"/>
            <g id="Grupo_56917" data-name="Grupo 56917">
              <rect id="Rectángulo_10518" data-name="Rectángulo 10518" width="0.863" height="1.152" transform="translate(783.824 7563.66) rotate(-12.232)" fill="#999"/>
              <path id="Trazado_111371" data-name="Trazado 111371" d="M794.364,7831.056l-.863-.027.072-2.307.863.027Zm.142-4.612-.864-.027.071-2.3.864.027Zm.142-4.608-.864-.027.071-2.3.864.027Zm.142-4.6-.864-.027.071-2.3.863.027Zm.14-4.6-.864-.027.071-2.3.864.027Zm.141-4.6-.864-.025.07-2.3.863.027Zm.141-4.6-.863-.025.069-2.3.864.027Zm.138-4.6-.864-.027.071-2.3.864.027Zm.141-4.6-.863-.025.069-2.3.864.027Zm.14-4.6-.864-.025.07-2.3.864.027Zm.138-4.6-.864-.025.07-2.3.864.027Zm.14-4.6-.864-.027.068-2.3.864.024Zm.138-4.6-.864-.027.069-2.305.864.025Zm.135-4.607-.864-.027.067-2.228.434-.057.429.082Zm.138-4.6-.863-.025.067-2.3.864.025Zm.136-4.6-.863-.025.067-2.3.864.025Zm.134-4.6-.864-.024.068-2.3.864.025Zm.135-4.6-.864-.024.068-2.3.864.024Zm.135-4.6-.864-.024.067-2.3.863.024Zm.132-4.6-.864-.025.066-2.3.864.025Zm.131-4.6-.863-.025.065-2.3.864.025Zm.13-4.6-.864-.025.064-2.3.864.022Zm.127-4.6-.864-.022.02-.75c.014-.523.031-1.042.05-1.554l.863.032q-.028.763-.049,1.544Zm.173-4.583-.862-.047q.065-1.173.143-2.3l.862.061Q797.617,7724.042,797.553,7725.208Zm.326-4.572-.859-.076c.07-.782.145-1.546.226-2.3l.859.093Q797.983,7719.473,797.879,7720.636Zm.5-4.554-.857-.111q.152-1.169.321-2.285l.854.13Q798.526,7714.922,798.376,7716.082Zm.687-4.524-.85-.148q.2-1.17.429-2.27l.845.171Q799.268,7710.4,799.063,7711.558Zm.906-4.484-.842-.193q.269-1.164.553-2.245l.834.218Q800.234,7705.925,799.969,7707.074Zm1.159-4.42-.828-.245q.342-1.154.7-2.207l.818.275Q801.464,7701.516,801.128,7702.654Zm1.453-4.328-.807-.3q.43-1.145.866-2.151l.794.342Q803.006,7697.2,802.581,7698.326Zm1.8-4.181-.776-.38c.371-.757.735-1.441,1.084-2.057l.752.425C805.1,7692.736,804.746,7693.4,804.384,7694.145Zm2.245-3.943-.718-.479a22.413,22.413,0,0,1,1.4-1.884l.664.553A21.473,21.473,0,0,0,806.629,7690.2Zm2.372-4.013-.853-.135.36-2.271.853.135Zm.719-4.543-.853-.134.207-1.313-.171-.789.844-.185.206.949Zm-1.3-4.486-.487-2.247.844-.182.487,2.247Zm-.973-4.494-.487-2.248.844-.182.487,2.248Zm-.974-4.5-.487-2.247.844-.183.487,2.248Zm-.974-4.5-.487-2.247.844-.182.487,2.247Zm-.974-4.494-.487-2.248.844-.182.487,2.248Zm-.974-4.5-.487-2.247.844-.182.487,2.247Zm-.974-4.5-.487-2.247.844-.183.487,2.248Zm-.974-4.5-.487-2.247.844-.182.487,2.247Zm-.974-4.494-.486-2.248.843-.182.487,2.248Zm-.973-4.5-.487-2.247.843-.182.487,2.247Zm-.974-4.5-.487-2.247.843-.183.487,2.247Zm-.974-4.494-.487-2.249.843-.182.487,2.248Zm-.974-4.5-.487-2.247.843-.182.487,2.247Zm-.974-4.5-.487-2.247.843-.182.487,2.247Zm-.974-4.5-.487-2.247.843-.183.487,2.247Zm-.974-4.494-.487-2.249.843-.182.487,2.248Zm-.974-4.5-.487-2.247.843-.182.487,2.247Zm-.974-4.5-.487-2.247.843-.182.487,2.247Zm-.974-4.494L790.4,7594l.843-.183.487,2.249Zm-.974-4.5-.487-2.247.843-.182.487,2.247Zm-.974-4.495-.487-2.247.843-.182.487,2.247Zm-.974-4.5-.487-2.247.844-.182.486,2.247Zm-.974-4.494-.487-2.248.844-.183.487,2.249Zm-.974-4.5-.487-2.247.844-.182.487,2.247Zm-.974-4.5-.487-2.247.844-.182.487,2.247Z" fill="#999"/>
              <rect id="Rectángulo_10519" data-name="Rectángulo 10519" width="1.147" height="0.864" transform="translate(793.397 7834.378) rotate(-88.21)" fill="#999"/>
            </g>
            <g id="Grupo_56918" data-name="Grupo 56918">
              <rect id="Rectángulo_10520" data-name="Rectángulo 10520" width="0.863" height="1.152" transform="translate(785.979 7563.657) rotate(-12.232)" fill="#999"/>
              <path id="Trazado_111372" data-name="Trazado 111372" d="M796.613,7831.828l-.864-.025.067-2.312.864.024Zm.135-4.625-.864-.025.067-2.31.864.025Zm.133-4.62-.863-.025.067-2.309.864.025Zm.137-4.618-.864-.027.067-2.307.864.025Zm.133-4.617-.863-.025.067-2.308.864.024Zm.135-4.617-.863-.024.066-2.308.864.025Zm.135-4.615-.863-.025.066-2.308.864.025Zm.132-4.616-.864-.025.068-2.307.863.024Zm.134-4.614-.864-.025.067-2.308.864.025Zm.135-4.616-.864-.025.066-2.307.864.024Zm.134-4.613-.864-.025.066-2.308.864.025Zm.131-4.616-.864-.025.064-2.24.866-.043Zm.134-4.616-.864-.024.067-2.313.863.025Zm.132-4.62-.864-.024.066-2.306.864.025Zm.132-4.606-.863-.025.065-2.308.863.025Zm.132-4.616-.864-.025.065-2.308.864.025Zm.131-4.616-.863-.024.065-2.307.864.025Zm.131-4.614-.864-.025.065-2.307.864.025Zm.13-4.615-.863-.024.065-2.308.864.025Zm.13-4.615-.864-.025.065-2.308.864.025Zm.128-4.618-.864-.024.064-2.308.864.025Zm.128-4.616-.864-.022.063-2.309.864.022Zm.126-4.618-.864-.022.067-2.31.863.029Zm.164-4.6-.862-.042q.059-1.178.135-2.309l.861.058Q799.743,7724.5,799.685,7725.67Zm.31-4.584-.862-.074q.1-1.175.219-2.3l.86.09Q800.094,7719.92,799.995,7721.086Zm.479-4.569-.857-.108q.148-1.175.312-2.292l.855.126Q800.62,7715.351,800.474,7716.517Zm.671-4.541-.851-.146c.132-.779.273-1.538.418-2.276l.848.166Q801.342,7710.817,801.145,7711.976Zm.889-4.5-.844-.189q.261-1.17.541-2.255l.837.214Q802.292,7706.323,802.034,7707.478Zm1.135-4.44-.83-.241q.338-1.159.685-2.218l.821.27Q803.5,7701.894,803.169,7703.038Zm1.428-4.348-.81-.3q.426-1.148.855-2.161l.8.335Q805.018,7697.561,804.6,7698.69Zm1.778-4.211-.778-.373c.363-.758.722-1.448,1.066-2.072l.755.418C807.081,7693.063,806.731,7693.737,806.375,7694.479Zm2.211-3.979-.724-.47c.456-.7.916-1.345,1.367-1.909l.675.54C809.47,7689.2,809.027,7689.822,808.586,7690.5Zm2.516-3.966-.853-.135.36-2.277.853.135Zm.72-4.556-.853-.135.26-1.647-.1-.466.843-.182.136.623Zm-1.181-4.5-.488-2.254.843-.182.488,2.254Zm-.978-4.507-.488-2.254.844-.182.488,2.253Zm-.976-4.508-.488-2.254.843-.182.489,2.254Zm-.976-4.508-.489-2.254.843-.182.489,2.254Zm-.977-4.507-.489-2.254.844-.182.488,2.253Zm-.977-4.508-.489-2.254.844-.182.489,2.254Zm-.977-4.508-.488-2.254.843-.182.488,2.254Zm-.976-4.507-.488-2.255.843-.183.488,2.255Zm-.978-4.509-.488-2.254.844-.182.488,2.254Zm-.976-4.508-.488-2.254.844-.182.488,2.254Zm-.977-4.507-.488-2.254.843-.183.488,2.254Zm-.976-4.508-.488-2.254.843-.182.488,2.254Zm-.977-4.508-.489-2.254.844-.182.489,2.254Zm-.977-4.507-.488-2.254.844-.182.488,2.253Zm-.976-4.508-.489-2.254.843-.182.489,2.254Zm-.977-4.508-.488-2.254.843-.182.488,2.254Zm-.977-4.507-.488-2.254.844-.182.488,2.253Zm-.977-4.508-.488-2.254.843-.182.489,2.254Zm-.976-4.508-.488-2.254.843-.182.488,2.254Zm-.977-4.509-.489-2.253.844-.183.488,2.254Zm-.977-4.507-.488-2.254.844-.182.488,2.254Zm-.976-4.508-.489-2.254.843-.182.49,2.254Zm-.977-4.508-.488-2.253.843-.183.488,2.254Zm-.976-4.507-.49-2.254.844-.182.489,2.254Zm-.978-4.508-.488-2.254.844-.182.488,2.254Z" fill="#999"/>
              <rect id="Rectángulo_10521" data-name="Rectángulo 10521" width="1.147" height="0.864" transform="translate(795.649 7835.157) rotate(-88.21)" fill="#999"/>
            </g>
            <path id="Trazado_111373" data-name="Trazado 111373" d="M782.379,7564.812c-6.785,0-12.305-11.954-12.305-26.647s5.52-26.646,12.305-26.646,12.3,11.953,12.3,26.646S789.164,7564.812,782.379,7564.812Zm0-52.429c-6.308,0-11.441,11.566-11.441,25.782s5.133,25.783,11.441,25.783,11.441-11.566,11.441-25.783S788.687,7512.383,782.379,7512.383Z" fill="#999"/>
            <path id="Trazado_111374" data-name="Trazado 111374" d="M776.381,7596.921l-.279-.817c14.905-5.091,23.481-8.727,23.566-8.763.295-.121,29.307-11.745,53.132-8.529l19.617,4-.173.845-19.588-3.99c-23.571-3.177-52.368,8.357-52.657,8.475C799.921,7588.172,791.32,7591.818,776.381,7596.921Z" fill="#999"/>
            <path id="Trazado_111375" data-name="Trazado 111375" d="M907.373,7586.748l5.332-1.4.952,1.4,1.9-.444s.254-4.253-1.523-5.522h-1.46l-.318,2.158-5.2,2.285-.889.761.139.762Z" fill="#666"/>
            <path id="Trazado_111376" data-name="Trazado 111376" d="M870.454,7839.013h-.017a.576.576,0,0,1-.559-.593c.034-1.147,3.265-114.974-2.166-132.58-5.491-17.8-3.85-40.921-3.833-41.152l6.477-53.344c.021-.293,2.438-31.9,1.038-46.91-.449-4.817-1.467-10.8-2.543-17.13-2.314-13.607-5.2-30.541-4.019-45.426l3.235-27.953a.59.59,0,0,1,.639-.506.578.578,0,0,1,.506.639l-3.234,27.931c-1.163,14.722,1.7,31.577,4.008,45.122,1.081,6.354,2.1,12.356,2.555,17.215,1.408,15.109-1.015,46.813-1.04,47.132l-6.476,53.342c-.015.2-1.639,23.114,3.787,40.7,5.487,17.786,2.354,128.259,2.218,132.953A.577.577,0,0,1,870.454,7839.013Z" fill="#4d4d4d"/>
            <g id="Grupo_56919" data-name="Grupo 56919">
              <path id="Trazado_111377" data-name="Trazado 111377" d="M906.131,7587.436s-27.551-3-33.8-4.205" fill="#fff"/>
              <path id="Trazado_111378" data-name="Trazado 111378" d="M906.084,7587.866c-.275-.03-27.641-3.019-33.835-4.212l.164-.848c6.16,1.186,33.49,4.172,33.766,4.2Z" fill="#999"/>
            </g>
            <path id="Trazado_111379" data-name="Trazado 111379" d="M814.7,7583.126l-1.15-.068c.04-.669,3.923-67.132,6.15-84.418l1.142.146C818.62,7516.033,814.739,7582.457,814.7,7583.126Z" fill="#999"/>
            <g id="Grupo_56923" data-name="Grupo 56923">
              <g id="Grupo_56920" data-name="Grupo 56920">
                <path id="Trazado_111380" data-name="Trazado 111380" d="M859.248,7451.4v10.282a5.183,5.183,0,0,0,4.729.349l.1-10.631a8.247,8.247,0,0,0,6.221-8.188s.888-9.077-8.252-8.7-7.617,10.917-7.617,10.917S856.075,7450.763,859.248,7451.4Z" fill="#fff"/>
                <path id="Trazado_111381" data-name="Trazado 111381" d="M861.94,7462.874a5.472,5.472,0,0,1-2.939-.84l-.184-.129v-10.171c-3.156-.957-4.737-5.956-4.806-6.175-.046-.285-.756-5.449,2.016-8.787a7.835,7.835,0,0,1,6-2.69c2.832-.119,5.032.632,6.541,2.229,2.543,2.689,2.175,6.768,2.159,6.94a8.621,8.621,0,0,1-6.222,8.472l-.095,10.6-.265.109A5.77,5.77,0,0,1,861.94,7462.874Zm-2.259-1.436a4.722,4.722,0,0,0,3.866.293l.1-10.677.332-.076a7.754,7.754,0,0,0,5.885-7.765c.006-.083.344-3.915-1.929-6.313a7.266,7.266,0,0,0-5.873-1.955,7.019,7.019,0,0,0-5.366,2.375c-2.526,3.04-1.849,8-1.842,8.049h0c.006,0,1.6,5.029,4.482,5.6l.348.07Z" fill="#999"/>
              </g>
              <g id="Grupo_56921" data-name="Grupo 56921">
                <rect id="Rectángulo_10522" data-name="Rectángulo 10522" width="18.67" height="3.202" rx="1.209" transform="translate(852.988 7438.879)" fill="#fff"/>
                <path id="Trazado_111382" data-name="Trazado 111382" d="M870.266,7442.657H854.38a1.971,1.971,0,0,1-1.968-1.968v-.417a1.97,1.97,0,0,1,1.968-1.968h15.886a1.97,1.97,0,0,1,1.967,1.968v.417A1.97,1.97,0,0,1,870.266,7442.657Zm-15.886-3.2a.818.818,0,0,0-.817.817v.417a.818.818,0,0,0,.817.817h15.886a.817.817,0,0,0,.815-.817v-.417a.817.817,0,0,0-.815-.817Z" fill="#999"/>
              </g>
              <g id="Grupo_56922" data-name="Grupo 56922">
                <rect id="Rectángulo_10523" data-name="Rectángulo 10523" width="18.67" height="3.202" rx="1.209" transform="translate(852.988 7444.888)" fill="#fff"/>
                <path id="Trazado_111383" data-name="Trazado 111383" d="M870.266,7448.666H854.38a1.97,1.97,0,0,1-1.968-1.968v-.418a1.97,1.97,0,0,1,1.968-1.968h15.886a1.97,1.97,0,0,1,1.967,1.968v.418A1.969,1.969,0,0,1,870.266,7448.666Zm-15.886-3.2a.819.819,0,0,0-.817.817v.418a.819.819,0,0,0,.817.817h15.886a.817.817,0,0,0,.815-.817v-.418a.817.817,0,0,0-.815-.817Z" fill="#999"/>
              </g>
            </g>
            <g id="Grupo_56924" data-name="Grupo 56924" opacity="0.71">
              <path id="Trazado_111384" data-name="Trazado 111384" d="M726.156,7521.325H742.78s8.813-.091,9.413,2.763-.45,6.008-4.206,9.463-10.965,12.018-10.965,12.018-3.3,3.6-2.854,7.961a109.3,109.3,0,0,0,2.253,11.567l12.618,29.742,13.97,32.147,10.816,31.846,10.421,29.946,7.154,17.372a12.544,12.544,0,0,1,.826,8.787c-1.277,5.183-5.257,14.947-5.257,14.947s-3.906,14.345-4.207,18.326c0,0,15.128-12.393,22.661-12.618,0,0-.137-21.256,6.064-30.118l.766-1.127s-2.708,27.114-1.453,29.142c0,0,11.7-1.953,13.723-3.6,0,0-.151-19.829,1.427-23.809,0,0,3.516,7.585,3.147,23.208l11.855-1.5s7.63-1.1,10.209-1.5,6.324-.4,8.658-2.6,1.537-3.3.633-3.3-5.812-.651-9.291,1.9-6.434.4-6.434-.551,5.257-2.854,5.257-2.854,7.311-1.953,12.068-1.6,5.257,1.352,5.658,2.754,4.206,1.4,5.107.6,2.584-1.552,2.682-3.054-2.532-3.68-2.532-3.68l-4.706-8.215-4.388-6.69s-.52-1.56,1.083-7.31,1.6-21.273,1.6-21.273l4.064-41.643,2.746-24.652s1.2-19.3.7-24.373-4.507-40.42-4.507-40.42-2.2-17.349-2.852-22.795c0,0-13.271,1.615-20.281-4.119s-22.132-18.852-22.132-18.852-.8,3.6-16.724,6.609-56.982,13.62-56.982,13.62-18.727,3.405-20.129,4.406S726.156,7521.325,726.156,7521.325Z" fill="#ccc"/>
              <path id="Trazado_111385" data-name="Trazado 111385" d="M782.762,7748.786a.566.566,0,0,1-.265-.066.574.574,0,0,1-.309-.554c.3-3.989,4.065-17.846,4.225-18.433.062-.165,4-9.851,5.255-14.934a12.112,12.112,0,0,0-.766-8.36L783.714,7689,773.28,7659.02l-10.817-31.849-13.952-32.1-12.62-29.748a105.732,105.732,0,0,1-2.3-11.731c-.472-4.563,2.859-8.255,3-8.41.279-.333,7.262-8.612,11-12.052,3.332-3.065,4.651-5.984,4.033-8.922-.348-1.65-5.347-2.347-8.846-2.306H726.156a.576.576,0,0,1-.342-1.039s2.908-2.147,4.313-3.151c1.435-1.024,17.213-3.931,20.361-4.5.37-.1,41.219-10.646,56.979-13.618,14.976-2.826,16.265-6.166,16.276-6.2a.55.55,0,0,1,.378-.406.562.562,0,0,1,.554.126c.151.131,15.2,13.179,22.118,18.842,6.737,5.509,19.717,4.006,19.847,3.993a.575.575,0,0,1,.641.5c.646,5.381,2.83,22.617,2.852,22.791.041.361,4.013,35.42,4.509,40.436.5,5.058-.65,23.674-.7,24.465l-2.747,24.68-4.064,41.636c0,.58-.015,15.61-1.621,21.37-1.336,4.8-1.154,6.589-1.1,6.928l4.331,6.6,4.673,8.158c.524.446,2.763,2.456,2.658,4.091-.093,1.407-1.235,2.232-2.154,2.9-.262.189-.514.369-.721.553-.83.742-3.057.855-4.42.458a2.081,2.081,0,0,1-1.623-1.33c-.319-1.118-.571-2-5.147-2.339-4.592-.354-11.8,1.565-11.877,1.585-2.109.765-4.591,1.921-4.848,2.4a3.11,3.11,0,0,0,1.138.8,4.356,4.356,0,0,0,4.4-.818c3.229-2.369,7.549-2.125,9.177-2.034.2.011.354.02.455.02a1.426,1.426,0,0,1,1.37.88c.251.63.175,1.736-1.607,3.42-2.043,1.927-5.043,2.278-7.455,2.559-.531.062-1.041.122-1.51.2-2.582.4-10.216,1.5-10.216,1.5l-11.865,1.5a.547.547,0,0,1-.457-.144.573.573,0,0,1-.19-.441c.263-11.162-1.493-18.227-2.47-21.252-1.058,6.073-.955,21.686-.954,21.862a.578.578,0,0,1-.211.451c-2.086,1.7-12.78,3.525-13.992,3.727a.567.567,0,0,1-.584-.265c-1.141-1.844.447-19.89,1.147-27.22-5.52,9.032-5.46,28.812-5.459,29.017a.577.577,0,0,1-.559.579c-7.251.216-22.162,12.365-22.313,12.487A.568.568,0,0,1,782.762,7748.786Zm-39.719-228.039c2.007,0,9.081.216,9.714,3.221.7,3.324-.774,6.69-4.379,10.008-3.686,3.389-10.844,11.878-10.916,11.964-.047.052-3.139,3.492-2.722,7.531a109.428,109.428,0,0,0,2.24,11.486l12.589,29.657,13.968,32.142,10.833,31.89,10.42,29.943,7.142,17.341a13,13,0,0,1,.853,9.145A150.43,150.43,0,0,1,787.5,7730.1c-.015.07-3.168,11.68-3.989,16.774,3.57-2.8,14.724-11.177,21.336-11.822.021-3.457.413-21.688,6.167-29.909l.762-1.12a.567.567,0,0,1,.672-.217.573.573,0,0,1,.376.6c-1.224,12.253-2.164,25.848-1.646,28.436,3.373-.582,10.843-2.058,12.764-3.252-.012-2.6-.04-19.911,1.47-23.726a.577.577,0,0,1,.519-.364.561.561,0,0,1,.54.334c.142.31,3.47,7.67,3.214,22.795l11.193-1.418h0s7.616-1.1,10.192-1.5c.484-.076,1.007-.136,1.555-.2,2.359-.276,5.033-.589,6.8-2.253,1.254-1.186,1.425-1.914,1.327-2.158-.056-.142-.243-.153-.3-.153-.116,0-.292-.009-.521-.023-1.51-.088-5.532-.312-8.429,1.814-2.741,2.01-4.98,1.242-5.818.817a2.426,2.426,0,0,1-1.533-1.832c0-.335,0-1.356,5.637-3.4.349-.1,7.522-1.97,12.306-1.636,4.6.34,5.621,1.253,6.169,3.171.058.2.371.406.838.542a4.857,4.857,0,0,0,3.333-.214c.234-.207.516-.413.812-.627.8-.574,1.622-1.169,1.678-2.034.054-.832-1.327-2.372-2.324-3.2a.555.555,0,0,1-.132-.157l-4.706-8.216-4.37-6.659a.57.57,0,0,1-.065-.134c-.059-.176-.529-1.893,1.074-7.646,1.563-5.61,1.581-20.964,1.581-21.118l4.067-41.7,2.746-24.659c.01-.164,1.191-19.286.7-24.252-.494-5.008-4.465-40.059-4.506-40.412-.02-.161-2.066-16.3-2.783-22.229-2.673.249-13.777.9-20.142-4.3-6.2-5.074-18.9-16.055-21.624-18.413-1.04,1.309-4.6,4-16.759,6.29-15.722,2.966-56.535,13.5-56.946,13.612-7.22,1.314-18.972,3.637-19.939,4.317-.756.539-1.949,1.412-2.886,2.1h15.133Z" fill="#4d4d4d"/>
            </g>
            <path id="Trazado_111386" data-name="Trazado 111386" d="M761.438,7621.19a.575.575,0,0,1-.365-1.021c.473-.388,47.694-38.811,80.661-43.387a.71.71,0,0,1,.125,0c1.043.083,25.56,2.075,28.98,3.471a.575.575,0,1,1-.434,1.066c-2.6-1.06-19.79-2.674-28.575-3.384-32.647,4.571-79.557,42.743-80.028,43.129A.576.576,0,0,1,761.438,7621.19Z" fill="#4d4d4d"/>
            <path id="Trazado_111387" data-name="Trazado 111387" d="M905.522,7585.579l5.505-.271.645,1.563,1.955-.044s1.122-4.11-.356-5.717l-1.429-.3-.754,2.046-5.563,1.167-1.026.563-.021.774Z" fill="#666"/>
            <path id="Trazado_111388" data-name="Trazado 111388" d="M866.888,7517.652l5.505-.271.644,1.563,1.955-.044s1.123-4.11-.356-5.717l-1.428-.3-.754,2.046-5.564,1.167-1.026.563-.02.774Z" fill="#666"/>
            <path id="Trazado_111389" data-name="Trazado 111389" d="M842.231,7576.323l4.2-3.565,1.462.847,1.525-1.224s-1.611-3.944-3.762-4.32l-1.317.631.648,2.083-3.7,4.312-.472,1.071.455.627Z" fill="#666"/>
            <path id="Trazado_111390" data-name="Trazado 111390" d="M827.123,7693.2l4.2-3.566,1.463.847,1.524-1.224s-1.61-3.944-3.762-4.32l-1.316.632.647,2.083-3.7,4.311-.472,1.072.455.626Z" fill="#666"/>
            <path id="Trazado_111391" data-name="Trazado 111391" d="M865.419,7696.127l4.2-3.566,1.462.848,1.525-1.225s-1.611-3.944-3.762-4.32l-1.317.632.648,2.083-3.7,4.312-.472,1.071.455.626Z" fill="#666"/>
            <path id="Trazado_111392" data-name="Trazado 111392" d="M827.957,7701.205l4.2,3.565,1.462-.847,1.525,1.224s-1.611,3.944-3.762,4.32l-1.316-.631.647-2.083-3.7-4.312-.472-1.071.455-.627Z" fill="#666"/>
            <path id="Trazado_111393" data-name="Trazado 111393" d="M867.735,7700.444l4.2,3.566,1.463-.847,1.524,1.224s-1.61,3.944-3.762,4.32l-1.316-.632.647-2.083-3.7-4.311-.471-1.072.454-.626Z" fill="#666"/>
            <path id="Trazado_111394" data-name="Trazado 111394" d="M820.361,7699.83l-4.2,3.565-1.462-.847-1.525,1.224s1.611,3.944,3.762,4.32l1.316-.632-.647-2.083,3.7-4.311.472-1.071-.455-.627Z" fill="#666"/>
            <path id="Trazado_111395" data-name="Trazado 111395" d="M805,7696.082l-4.2,3.566-1.463-.847-1.524,1.224s1.611,3.944,3.762,4.32l1.316-.632-.647-2.083,3.7-4.311.472-1.072-.455-.626Z" fill="#666"/>
            <path id="Trazado_111396" data-name="Trazado 111396" d="M782.826,7505.273l-.375-5.5,1.55-.674-.081-1.954s-4.13-1.044-5.709.465l-.273,1.434,2.061.715,1.271,5.54.583,1.015.774.006Z" fill="#666"/>
            <path id="Trazado_111397" data-name="Trazado 111397" d="M781.035,7505.75l-4.18-3.592.608-1.578-1.449-1.313s-3.642,2.208-3.676,4.392l.83,1.2,1.955-.966,4.839,2.983,1.132.3.548-.547Z" fill="#666"/>
            <path id="Trazado_111398" data-name="Trazado 111398" d="M826.837,7493.165l-.375-5.5,1.55-.674-.081-1.954s-4.13-1.044-5.709.465l-.273,1.434,2.06.715,1.272,5.54.582,1.015.775.006Z" fill="#666"/>
            <path id="Trazado_111399" data-name="Trazado 111399" d="M825.046,7493.642l-4.18-3.592.607-1.577-1.448-1.314s-3.643,2.208-3.677,4.392l.83,1.2,1.956-.966,4.839,2.983,1.132.3.547-.547Z" fill="#666"/>
            <path id="Trazado_111400" data-name="Trazado 111400" d="M800.571,7583.631l4.2-3.566,1.462.848,1.525-1.225s-1.611-3.944-3.763-4.32l-1.316.632.648,2.083-3.705,4.312-.471,1.071.455.626Z" fill="#666"/>
            <path id="Trazado_111401" data-name="Trazado 111401" d="M788.822,7573.965l-4.635-2.983.385-1.646-1.615-1.1s-3.3,2.689-3.038,4.857l.988,1.075,1.8-1.225,5.2,2.288,1.162.139.467-.617Z" fill="#666"/>
            <path id="Trazado_111402" data-name="Trazado 111402" d="M789.415,7576.772l-4.634,2.983.384,1.646-1.615,1.1s-3.3-2.689-3.037-4.857l.987-1.075,1.8,1.225,5.2-2.288,1.162-.14.467.618Z" fill="#666"/>
            <path id="Trazado_111403" data-name="Trazado 111403" d="M872.882,7578.582l5.192-1.851,1.069,1.31,1.859-.607s-.113-4.259-1.993-5.371l-1.455.126-.13,2.178-4.989,2.724-.82.836.2.746Z" fill="#666"/>
            <path id="Trazado_111404" data-name="Trazado 111404" d="M871.675,7581.962l4.157,3.618-.617,1.574,1.44,1.322s3.657-2.186,3.7-4.369l-.822-1.207-1.962.954-4.821-3.012-1.129-.3-.551.544Z" fill="#666"/>
            <path id="Trazado_111405" data-name="Trazado 111405" d="M738.221,7551.688a.532.532,0,0,1-.148-.02.565.565,0,0,1-.409-.681c.313-1.25,6.164-7.565,7.95-9.47,3.251-5.244,19.067-17.941,19.739-18.48.769-.582,7.493-5.592,10.585-5.056a1.918,1.918,0,0,1,1.324.836,3.536,3.536,0,0,1,.651,2.92,2.839,2.839,0,0,1-1.431,1.672l-6.4,2.972-19.17,15.971a.576.576,0,0,1-.738-.884l19.228-16.02a.548.548,0,0,1,.126-.079l6.473-3a1.7,1.7,0,0,0,.811-.96,2.481,2.481,0,0,0-.516-1.962.75.75,0,0,0-.555-.329c-2.211-.375-7.733,3.357-9.679,4.832-.151.121-16.321,13.1-19.537,18.269-3.664,3.925-7.517,8.328-7.742,9.056A.594.594,0,0,1,738.221,7551.688Z" fill="#4d4d4d"/>
            <path id="Trazado_111406" data-name="Trazado 111406" d="M860.359,7711.651a.575.575,0,0,1-.569-.5l-.8-5.7a.576.576,0,0,1,1.141-.159l.8,5.7a.575.575,0,0,1-.49.65A.751.751,0,0,1,860.359,7711.651Zm-1.6-11.4a.576.576,0,0,1-.569-.5l-.8-5.7a.576.576,0,0,1,1.141-.16l.8,5.7a.577.577,0,0,1-.49.65A.751.751,0,0,1,858.763,7700.246Zm-1.595-11.405a.575.575,0,0,1-.569-.5l-.8-5.7a.575.575,0,0,1,.49-.65.582.582,0,0,1,.65.49l.8,5.7a.575.575,0,0,1-.49.65A.566.566,0,0,1,857.168,7688.841Zm-1.6-11.4a.576.576,0,0,1-.569-.5l-.8-5.7a.576.576,0,1,1,1.14-.16l.8,5.7a.575.575,0,0,1-.49.65A.754.754,0,0,1,855.572,7677.436Zm-1.6-11.407a.576.576,0,0,1-.569-.5l-.8-5.7a.576.576,0,1,1,1.14-.159l.8,5.7a.576.576,0,0,1-.491.65A.75.75,0,0,1,853.977,7666.029Zm-1.594-11.4a.575.575,0,0,1-.569-.5l-.8-5.7a.575.575,0,0,1,.49-.65.581.581,0,0,1,.65.49l.8,5.7a.577.577,0,0,1-.49.651A.751.751,0,0,1,852.383,7654.624Zm-1.6-11.4a.575.575,0,0,1-.569-.5l-.8-5.7a.576.576,0,0,1,.491-.65.583.583,0,0,1,.65.49l.8,5.7a.575.575,0,0,1-.49.65A.565.565,0,0,1,850.787,7643.219Zm-1.595-11.406a.576.576,0,0,1-.569-.5l-.8-5.7a.577.577,0,0,1,.491-.651.587.587,0,0,1,.65.491l.8,5.7a.575.575,0,0,1-.49.65A.754.754,0,0,1,849.192,7631.813Zm-1.6-11.406a.576.576,0,0,1-.569-.5l-.8-5.7a.576.576,0,1,1,1.14-.159l.8,5.7a.575.575,0,0,1-.49.65A.752.752,0,0,1,847.6,7620.407ZM846,7609a.576.576,0,0,1-.569-.5l-.8-5.7a.576.576,0,1,1,1.14-.16l.8,5.7a.576.576,0,0,1-.491.65A.564.564,0,0,1,846,7609Zm-1.6-11.4a.576.576,0,0,1-.569-.5l-.8-5.7a.575.575,0,0,1,.49-.65.583.583,0,0,1,.65.49l.8,5.7a.576.576,0,0,1-.491.65A.5.5,0,0,1,844.405,7597.6Z" fill="#4d4d4d"/>
            <path id="Trazado_111407" data-name="Trazado 111407" d="M770.506,7695.609c-.02,0-.042,0-.062,0l-30.931-3.363a.575.575,0,0,1-.32-1l5.557-4.946c-3.976-4.072-34.292-35.689-38.785-57.423a151.93,151.93,0,0,1-2.111-44.438.576.576,0,0,1,1.119-.1l7.868,24.418c1.526-4.661,5.732-17.431,6.974-20.488.217-.535.539-.594.779-.555.588.11.594.392.649,3.089.645,31.441,10.965,59.048,30.675,82.078v-5.779a.576.576,0,0,1,1.06-.311l18.011,27.94a.574.574,0,0,1-.483.887Zm-29.579-4.37,28.441,3.091-16.3-25.281v5.368a.576.576,0,0,1-1.009.379c-20.551-23.47-31.307-51.728-31.969-83.978-2.176,6.075-6.656,19.814-6.708,19.973a.576.576,0,0,1-.548.4h0a.575.575,0,0,1-.546-.4l-7.563-23.468a152.4,152.4,0,0,0,2.366,41.317c4.716,22.815,38.559,56.936,38.9,57.278a.573.573,0,0,1-.024.836Z" fill="#4d4d4d"/>
            <g id="Grupo_56925" data-name="Grupo 56925" opacity="0.71">
              <path id="Trazado_111408" data-name="Trazado 111408" d="M866.909,7516.977l2.9-8.912-8.882-.3a3.219,3.219,0,0,0-3.085,2.053,57.217,57.217,0,0,1-2.955,5.663v-8.016s.4-1.553-.45-1.853-3.236-1.452-3.236-1.452a2.637,2.637,0,0,0-2.923,1.115c-1.152,1.689-3.165,4.743-3.165,4.743l1.262-7.761s-.15-2-.451-2.153-4.356-2.654-4.356-2.654-2.153-1.552-3.355.4a14.93,14.93,0,0,1-3.7,3.655l2.2-7.661a2.475,2.475,0,0,0,.1-1.853,5.045,5.045,0,0,0-1.652-1.452s-3.055-1.9-4.256,0l-3.3,2.554-.351,1.552s8.513,9.063,13.169,12.719,9.714,8.638,18.727,9.151S866.909,7516.977,866.909,7516.977Z" fill="#ccc"/>
              <path id="Trazado_111409" data-name="Trazado 111409" d="M866.909,7517.553h-.023a.638.638,0,0,1-.1-.013c-.378-.027-1.9-.122-7.671-.45-8.157-.463-13.079-4.45-17.42-7.967-.552-.447-1.094-.885-1.63-1.306-4.638-3.64-12.884-12.406-13.233-12.778a.572.572,0,0,1-.141-.521l.35-1.552a.575.575,0,0,1,.209-.329l3.23-2.5c1.212-1.766,3.694-.9,4.988-.092a5.4,5.4,0,0,1,1.855,1.671,2.974,2.974,0,0,1-.084,2.362l-1.685,5.876a11.283,11.283,0,0,0,2.173-2.41,2.471,2.471,0,0,1,1.639-1.213,3.614,3.614,0,0,1,2.543.646c1.51.93,4.046,2.488,4.277,2.606s.592.3.768,2.626a.559.559,0,0,1-.007.135l-.832,5.119c.575-.862,1.209-1.81,1.691-2.518a3.212,3.212,0,0,1,3.577-1.339c.1.04,2.438,1.171,3.25,1.457,1.03.365,1.016,1.686.835,2.466v5.769a40.471,40.471,0,0,0,1.844-3.7,3.828,3.828,0,0,1,3.659-2.41l8.861.3a.576.576,0,0,1,.528.754l-2.815,8.639a1.057,1.057,0,0,1,0,.124A.629.629,0,0,1,866.909,7517.553Zm-11.338-2.092a23.749,23.749,0,0,0,3.609.48c4.148.235,6.245.354,7.3.485l2.545-7.812-8.116-.274a2.613,2.613,0,0,0-2.534,1.7A53.439,53.439,0,0,1,855.571,7515.461Zm-10.215-4.92a26.556,26.556,0,0,0,8.96,4.614v-7.691a.634.634,0,0,1,.018-.143c.106-.419.117-1.095-.084-1.166-.872-.309-3.2-1.431-3.3-1.478a1.785,1.785,0,0,0-.437-.045,2.067,2.067,0,0,0-1.759.966c-1.15,1.687-3.161,4.736-3.161,4.736A.567.567,0,0,1,845.356,7510.541ZM835.1,7501.8c2.017,1.957,4.083,3.864,5.677,5.115.541.425,1.086.867,1.643,1.318.691.559,1.4,1.131,2.129,1.7v0l1.251-7.693a9.173,9.173,0,0,0-.262-1.687c-.708-.408-3.642-2.22-4.268-2.606a2.592,2.592,0,0,0-1.682-.473,1.352,1.352,0,0,0-.88.686A14.829,14.829,0,0,1,835.1,7501.8Zm-7.218-7.323c.741.783,3.344,3.516,6.227,6.354l2.054-7.142a2.01,2.01,0,0,0,.145-1.422,4.407,4.407,0,0,0-1.425-1.221c-.049-.03-2.605-1.593-3.488-.2a.567.567,0,0,1-.135.148l-3.141,2.427Z" fill="#4d4d4d"/>
            </g>
          </g>
        </g>
      </g>
    </g>
  </g>
</svg>
