<svg xmlns="http://www.w3.org/2000/svg" xmlns:xlink="http://www.w3.org/1999/xlink" width="629.308" height="592.799" viewBox="0 0 629.308 592.799">
  <defs>
    <clipPath id="clip-path">
      <path id="Trazado_105145" data-name="Trazado 105145" d="M317.37,9371.858H584.8v-288H317.37v288Z" fill="none" clip-rule="evenodd"/>
    </clipPath>
  </defs>
  <g id="Grupo_55032" data-name="Grupo 55032" transform="translate(-195.682 -9007.948)">
    <g id="Grupo_54996" data-name="Grupo 54996">
      <path id="Trazado_105129" data-name="Trazado 105129" d="M410.508,9311.6c-1.044-7.13-1.3-16.435-3.392-55.043s-12.872-58.892-12.872-58.892-4.345-19.5-5.78-26.935-3.261-38.956-3.261-38.956c-2.521-13.132-9.478-18.436-9.478-18.436-5.565-6.782-21.3-6.7-21.3-6.7-17.825-5.3-31.564-17.217-31.564-17.217l.086-14.087c3.653-2.087,3.74-15.739,3.74-15.739,4.956-2.521,4.347-4.521,6.174-8.608a5.265,5.265,0,0,0-1.827-6.521v-14.087a14.531,14.531,0,0,0-3.391-9.479c-5.853-12.877-22.392-12.97-23.654-12.957-1.262-.013-17.8.08-23.654,12.957a14.528,14.528,0,0,0-3.392,9.479v14.087a5.265,5.265,0,0,0-1.826,6.521c1.826,4.087,1.218,6.087,6.174,8.608,0,0,.087,13.652,3.739,15.739l.087,14.087s-13.739,11.913-31.565,17.217c0,0-15.739-.086-21.3,6.7,0,0-6.957,5.3-9.479,18.436,0,0-1.826,31.521-3.261,38.956s-5.78,26.935-5.78,26.935-10.785,20.283-12.872,58.892-2.348,47.913-3.391,55.043-4.174,22.87,1.652,29.739,6.261,8.522,15.305,11.565c0,0,7.913,1.608,7.869-1.608s-5.261-3.479-5.261-3.479-7.913-2.652-8.782-8.13a33.163,33.163,0,0,1-.566-8.045s0-3.217,2.261-3.13,2.783,4.3,2.783,4.3l.043,7.957s-.521,4.217,3.3,4.608,3.522-4.608,3.522-4.608l-.043-18.826s1.2-8.306-2.315-12.174a16.191,16.191,0,0,1-1.772-6.913c-.174-4.174,2.695-13.479,2.695-13.479l10.305-23.3s8.783-25.174,10.217-44.608l.913-7.827s5.87-18.912,7.174-26.217l7.566,29.739s4.434,30.131,1.825,46.044-6.28,46.3-6.28,46.3a429.8,429.8,0,0,0-1.415,65.608c2.087,34.436,3.13,57.783.391,72.783s-6.13,31.174,3.261,56.348,9.913,45.652,8.348,53.869c0,0-1.174,3.521-1.174,10.957s-4.956,15.131-4.956,15.131-3.913,6.912.651,8.869l1,.3a1.719,1.719,0,0,0,1.653,2.13c2.043.13,2.174-.3,2.174-.3s.26,2.869,1.956,2.826,5.131,0,5.131,0,1.652,2.3,3.739,2.13a3.678,3.678,0,0,0,2.913-1.782,8.32,8.32,0,0,0,5.348,2.348c3.7.391,6.956-6.956,6.956-6.956l-.739-25.826.348-12a25.207,25.207,0,0,0-2.174-7.479c-1.913-4.261-3.043-24.087-3.043-24.087a83.009,83.009,0,0,1,2.521-19.826c2.7-10.521,1.044-35.3,1.044-35.3s-2.174-16.261,1.565-25.826,10.2-50.956,10.2-50.956l6.235-62.651s-.221-1.693,2.091-1.654h0c.03,0,.055,0,.085,0s.054,0,.084,0h0c2.312-.039,2.092,1.654,2.092,1.654l6.235,62.651s6.461,41.392,10.2,50.956,1.565,25.826,1.565,25.826-1.652,24.783,1.043,35.3a83.044,83.044,0,0,1,2.522,19.826s-1.13,19.826-3.043,24.087a25.208,25.208,0,0,0-2.174,7.479l.348,12-.74,25.826s3.261,7.347,6.957,6.956a8.316,8.316,0,0,0,5.347-2.348,3.681,3.681,0,0,0,2.914,1.782c2.086.174,3.739-2.13,3.739-2.13s3.435-.044,5.13,0,1.957-2.826,1.957-2.826.13.434,2.174.3a1.718,1.718,0,0,0,1.652-2.13l1-.3c4.565-1.957.652-8.869.652-8.869s-4.956-7.7-4.956-15.131-1.174-10.957-1.174-10.957c-1.566-8.217-1.044-28.7,8.348-53.869s6-41.348,3.26-56.348-1.7-38.348.392-72.783a429.725,429.725,0,0,0-1.416-65.608s-3.672-30.392-6.28-46.3,1.826-46.044,1.826-46.044l7.565-29.739c1.3,7.3,7.174,26.217,7.174,26.217l.913,7.827c1.435,19.435,10.218,44.608,10.218,44.608l10.3,23.3s2.87,9.3,2.7,13.479a16.19,16.19,0,0,1-1.772,6.913c-3.511,3.868-2.316,12.174-2.316,12.174l-.043,18.826s-.3,5,3.522,4.608,3.3-4.608,3.3-4.608l.044-7.957s.522-4.218,2.782-4.3,2.261,3.13,2.261,3.13a33.116,33.116,0,0,1-.565,8.045c-.869,5.478-8.783,8.13-8.783,8.13s-5.217.261-5.26,3.479,7.869,1.608,7.869,1.608c9.044-3.043,9.478-4.7,15.3-11.565S411.551,9318.732,410.508,9311.6Z" fill="#fff"/>
      <path id="Trazado_105130" data-name="Trazado 105130" d="M304.1,9008.948c1.74,0,17.165.347,22.631,12.372l.073.157.118.123a13.7,13.7,0,0,1,3.11,8.784v14.622l.446.3a4.213,4.213,0,0,1,1.467,5.281c-.458,1.027-.768,1.923-1.041,2.713-.821,2.375-1.273,3.684-4.673,5.413l-.542.276,0,.608c-.034,5.057-.941,13.565-3.236,14.877l-.5.286,0,.576-.087,14.087,0,.46.347.3c.139.121,14.109,12.117,31.935,17.421l.169.041h.146c.625,0,15.367.072,20.5,6.33l.074.091.091.069c.067.051,6.672,5.265,9.092,17.766.118,2.027,1.861,31.706,3.273,39.021,1.421,7.363,5.743,26.768,5.786,26.962l.03.132.063.12c.107.2,10.708,20.576,12.757,58.478.521,9.645.928,17.461,1.262,23.871,1.009,19.349,1.349,25.866,2.139,31.262.093.643.2,1.354.324,2.124,1.138,7.311,3.258,20.919-1.75,26.824-.733.863-1.381,1.646-1.971,2.358-4.021,4.853-5.243,6.326-12.827,8.884a21.8,21.8,0,0,1-3.7.371c-1.969,0-2.6-.419-2.773-.6a.5.5,0,0,1-.145-.4c.029-2.2,4.269-2.49,4.31-2.492l.138-.008.13-.044c.347-.115,8.5-2.914,9.453-8.921a35.066,35.066,0,0,0,.576-8.259,6.365,6.365,0,0,0-.326-1.835,2.95,2.95,0,0,0-2.844-2.239l-.128,0c-3.023.116-3.673,4.663-3.737,5.181l-.007.059v.06l-.044,7.955v.065l.007.059a4.061,4.061,0,0,1-.642,2.639,2.463,2.463,0,0,1-1.771.857,2.926,2.926,0,0,1-.313.018,1.637,1.637,0,0,1-1.275-.5,4.8,4.8,0,0,1-.833-3.072v-.058l.043-18.826v-.073l-.01-.072c-.011-.078-1.084-7.887,2.067-11.358l.07-.078.053-.09a17.143,17.143,0,0,0,1.907-7.376c.179-4.3-2.62-13.429-2.739-13.814l-.017-.056-.024-.054-10.288-23.268c-.386-1.118-8.768-25.579-10.156-44.356l-.912-7.826-.011-.094-.027-.088c-.059-.187-5.867-18.937-7.145-26.1l-.814-4.553-1.14,4.482-7.565,29.738-.013.05-.007.052c-.182,1.236-4.428,30.468-1.824,46.351,2.575,15.71,6.238,45.959,6.274,46.255a432.756,432.756,0,0,1,1.411,65.437c-2,33.008-3.2,57.566-.378,73.022l.244,1.325c2.734,14.905,5.562,30.316-3.458,54.493-9.821,26.328-9.784,47.1-8.393,54.405l.013.066.021.061c.011.035,1.123,3.506,1.123,10.644,0,7.493,4.717,15.048,5.1,15.645.577,1.034,1.889,4.051,1.244,5.957a2.391,2.391,0,0,1-1.385,1.458l-.945.288-.839.271.147.867a1.1,1.1,0,0,1-.124.729.824.824,0,0,1-.608.222c-.243.017-.456.022-.643.022a4.53,4.53,0,0,1-.636-.036l-1.339-4.455-.488,5.07c-.066.688-.432,1.919-.935,1.919-.568-.015-1.33-.021-2.093-.021-1.532,0-3.076.021-3.076.021l-.5.009-.3.406a4.117,4.117,0,0,1-2.7,1.724c-.047,0-.1,0-.143-.006a2.69,2.69,0,0,1-2.107-1.242l-.679-1.3-.969,1.108a7.376,7.376,0,0,1-4.695,2,1.593,1.593,0,0,1-.181.009c-2.29,0-4.819-4.369-5.663-6.175l.732-25.595v-.057l-.346-11.937a24.963,24.963,0,0,1,2.085-7.1c1.966-4.379,3.083-23.622,3.131-24.478a83.267,83.267,0,0,0-2.553-20.094c-2.582-10.076-1.082-33.939-1.017-34.958.139-1.058,2.111-16.721-1.629-26.287-3.617-9.254-9.939-49.447-10.139-50.72l-6.224-62.544a2.479,2.479,0,0,0-.593-1.712,3.066,3.066,0,0,0-2.424-.924l-.1,0h-.022l-.068,0h-.131a3.069,3.069,0,0,0-2.424.924,2.475,2.475,0,0,0-.592,1.712l-6.224,62.544c-.2,1.272-6.522,41.466-10.14,50.72-3.739,9.566-1.768,25.229-1.629,26.287.065,1.016,1.566,24.879-1.017,34.958a83.189,83.189,0,0,0-2.551,20.133c.047.816,1.164,20.06,3.13,24.438a25.008,25.008,0,0,1,2.085,7.1l-.347,11.938v.057l.733,25.595c-.845,1.806-3.373,6.175-5.664,6.175a1.616,1.616,0,0,1-.181-.009,7.385,7.385,0,0,1-4.689-2l-.948-1.1-.7,1.281a2.687,2.687,0,0,1-2.113,1.253c-.048,0-.1.006-.143.006a4.117,4.117,0,0,1-2.7-1.722l-.294-.411-.506-.006s-1.543-.021-3.075-.021c-.764,0-1.525.006-2.106.021-.491,0-.856-1.23-.922-1.917l-.469-5.153-1.359,4.536a4.53,4.53,0,0,1-.636.036c-.187,0-.4-.006-.643-.022a.822.822,0,0,1-.607-.222,1.086,1.086,0,0,1-.127-.718l.173-.886-.863-.264-.945-.288a2.391,2.391,0,0,1-1.385-1.458c-.645-1.906.667-4.922,1.244-5.956.375-.588,5.1-8.147,5.1-15.646,0-7.138,1.112-10.608,1.123-10.64l.021-.064.012-.066c1.392-7.306,1.428-28.078-8.393-54.405-9.019-24.177-6.192-39.589-3.457-54.493l.243-1.325c2.822-15.453,1.624-40.013-.377-73.022a432.638,432.638,0,0,1,1.41-65.429c.036-.3,3.7-30.553,6.274-46.263,2.6-15.883-1.641-45.114-1.823-46.351l-.007-.052-.013-.05-7.566-29.738-1.14-4.482-.813,4.553c-1.279,7.16-7.086,25.909-7.145,26.1l-.027.088-.011.094-.917,7.868c-1.383,18.735-9.769,43.209-10.151,44.314l-10.288,23.268-.024.054-.017.056c-.119.386-2.919,9.519-2.739,13.814a17.127,17.127,0,0,0,1.907,7.376l.053.09.07.078c3.151,3.472,2.077,11.28,2.066,11.358l-.01.073v.072l.043,18.826v.028l0,.03a4.833,4.833,0,0,1-.829,3.067,1.639,1.639,0,0,1-1.28.5,2.912,2.912,0,0,1-.313-.018,2.463,2.463,0,0,1-1.771-.857,4.06,4.06,0,0,1-.642-2.634l.008-.063v-.065l-.043-7.955v-.06l-.007-.059c-.064-.518-.713-5.064-3.737-5.182l-.127,0c-2.476,0-3.155,2.636-3.171,4.077a35.181,35.181,0,0,0,.577,8.256c.953,6.007,9.1,8.806,9.452,8.921l.131.044.136.008c.042,0,4.282.289,4.312,2.492a.494.494,0,0,1-.145.4c-.178.181-.8.6-2.773.6a21.816,21.816,0,0,1-3.695-.371c-7.585-2.558-8.807-4.031-12.828-8.885-.591-.713-1.238-1.494-1.97-2.357-5.008-5.9-2.889-19.513-1.75-26.824.12-.77.23-1.481.324-2.124.79-5.393,1.129-11.9,2.136-31.236.335-6.415.743-14.24,1.265-23.9,2.048-37.9,12.65-58.276,12.756-58.478l.064-.12.029-.132c.044-.194,4.365-19.6,5.786-26.962,1.412-7.315,3.156-36.994,3.274-39.021,2.419-12.5,9.026-17.715,9.09-17.764l.093-.07.074-.092c5.134-6.258,19.877-6.33,20.524-6.33l.149,0,.143-.043c17.827-5.3,31.8-17.3,31.935-17.421l.348-.3,0-.46-.087-14.087,0-.576-.5-.286c-2.294-1.312-3.2-9.82-3.235-14.877l0-.608-.543-.276c-3.4-1.73-3.852-3.038-4.673-5.413-.273-.79-.583-1.686-1.041-2.713a4.188,4.188,0,0,1,1.468-5.281l.445-.3V9030.4a13.725,13.725,0,0,1,3.108-8.8l.121-.125.073-.158c5.466-12.025,20.89-12.372,22.631-12.372h.226m0-1h-.226c-1.912,0-17.825.38-23.541,12.958a14.528,14.528,0,0,0-3.392,9.479v14.087a5.265,5.265,0,0,0-1.826,6.521c1.826,4.087,1.218,6.087,6.174,8.608,0,0,.087,13.652,3.739,15.739l.087,14.087s-13.739,11.913-31.565,17.217h-.029c-.751,0-15.849.083-21.275,6.7,0,0-6.957,5.3-9.479,18.436,0,0-1.826,31.521-3.261,38.956s-5.78,26.935-5.78,26.935-10.785,20.283-12.872,58.891-2.348,47.914-3.391,55.044-4.174,22.87,1.652,29.739,6.261,8.522,15.305,11.565a22.791,22.791,0,0,0,3.951.4c1.973,0,3.94-.4,3.918-2.01-.043-3.218-5.261-3.479-5.261-3.479s-7.913-2.652-8.782-8.13a33.163,33.163,0,0,1-.566-8.045s0-3.132,2.172-3.132l.089,0c2.261.087,2.783,4.3,2.783,4.3l.043,7.957s-.521,4.217,3.3,4.608a4.12,4.12,0,0,0,.415.022c3.39,0,3.107-4.631,3.107-4.631l-.043-18.826s1.2-8.306-2.315-12.174a16.2,16.2,0,0,1-1.772-6.913c-.174-4.174,2.695-13.479,2.695-13.479l10.305-23.3s8.783-25.174,10.217-44.608l.913-7.827s5.87-18.912,7.174-26.217l7.566,29.739s4.434,30.131,1.825,46.044-6.28,46.3-6.28,46.3a429.8,429.8,0,0,0-1.415,65.608c2.087,34.435,3.13,57.783.391,72.783s-6.13,31.174,3.261,56.348,9.913,45.652,8.348,53.869c0,0-1.174,3.521-1.174,10.957s-4.956,15.131-4.956,15.131-3.913,6.912.651,8.869l1,.3a1.719,1.719,0,0,0,1.653,2.13c.266.018.5.024.706.024,1.369,0,1.468-.328,1.468-.328s.256,2.826,1.918,2.826h.038c.561-.014,1.313-.02,2.068-.02,1.525,0,3.063.021,3.063.021s1.534,2.139,3.512,2.139c.075,0,.151,0,.227-.009a3.678,3.678,0,0,0,2.913-1.782,8.32,8.32,0,0,0,5.348,2.348,2.55,2.55,0,0,0,.286.015c3.576,0,6.67-6.971,6.67-6.971l-.739-25.826.348-12a25.207,25.207,0,0,0-2.174-7.479c-1.913-4.261-3.043-24.087-3.043-24.087a83.019,83.019,0,0,1,2.521-19.827c2.7-10.521,1.044-35.3,1.044-35.3s-2.174-16.261,1.565-25.826,10.2-50.956,10.2-50.956l6.235-62.651s-.216-1.655,2.013-1.655h.325c2.23,0,2.014,1.655,2.014,1.655l6.235,62.651s6.46,41.392,10.2,50.956,1.565,25.826,1.565,25.826-1.652,24.782,1.043,35.3a83.055,83.055,0,0,1,2.522,19.827s-1.13,19.826-3.043,24.087a25.208,25.208,0,0,0-2.174,7.479l.347,12-.739,25.826s3.094,6.971,6.67,6.971a2.58,2.58,0,0,0,.287-.015,8.316,8.316,0,0,0,5.347-2.348,3.681,3.681,0,0,0,2.914,1.782c.076.006.151.009.226.009,1.979,0,3.513-2.139,3.513-2.139s1.537-.021,3.063-.021c.754,0,1.506.006,2.067.02h.038c1.662,0,1.919-2.826,1.919-2.826s.1.328,1.467.328c.206,0,.44-.007.707-.024a1.718,1.718,0,0,0,1.652-2.13l1-.3c4.565-1.957.652-8.869.652-8.869s-4.956-7.7-4.956-15.131-1.174-10.957-1.174-10.957c-1.566-8.217-1.044-28.7,8.347-53.869s6-41.348,3.261-56.348-1.7-38.349.392-72.783a429.725,429.725,0,0,0-1.416-65.608s-3.672-30.392-6.28-46.3,1.826-46.044,1.826-46.044l7.565-29.739c1.3,7.3,7.174,26.217,7.174,26.217l.913,7.827c1.435,19.435,10.218,44.608,10.218,44.608l10.3,23.3s2.87,9.3,2.7,13.479a16.2,16.2,0,0,1-1.772,6.913c-3.511,3.868-2.316,12.174-2.316,12.174l-.043,18.826s-.281,4.631,3.107,4.631a4.1,4.1,0,0,0,.415-.022c3.826-.392,3.3-4.608,3.3-4.608l.044-7.957s.522-4.218,2.782-4.3l.09,0c2.171,0,2.171,3.132,2.171,3.132a33.116,33.116,0,0,1-.565,8.045c-.87,5.478-8.783,8.13-8.783,8.13s-5.217.261-5.26,3.479c-.022,1.608,1.945,2.01,3.918,2.01a22.791,22.791,0,0,0,3.951-.4c9.044-3.043,9.478-4.7,15.3-11.565s2.7-22.608,1.653-29.739-1.3-16.435-3.392-55.044-12.872-58.891-12.872-58.891-4.345-19.5-5.78-26.935-3.261-38.956-3.261-38.956c-2.521-13.132-9.478-18.436-9.478-18.436-5.426-6.613-20.523-6.7-21.275-6.7h-.03c-17.825-5.3-31.565-17.217-31.565-17.217l.087-14.087c3.653-2.087,3.74-15.739,3.74-15.739,4.956-2.521,4.347-4.521,6.173-8.608a5.264,5.264,0,0,0-1.826-6.521v-14.087a14.531,14.531,0,0,0-3.391-9.479c-5.717-12.577-21.627-12.958-23.541-12.958Z"/>
    </g>
    <g id="Grupo_54997" data-name="Grupo 54997">
      <rect id="Rectángulo_9428" data-name="Rectángulo 9428" width="1" height="1.5" transform="translate(303.484 9007.948)"/>
      <path id="Trazado_105131" data-name="Trazado 105131" d="M304.484,9319.469h-1v-2.981h1Zm0-5.962h-1v-2.981h1Zm0-5.962h-1v-2.981h1Zm0-5.962h-1V9298.6h1Zm0-5.962h-1v-2.981h1Zm0-5.962h-1v-2.981h1Zm0-5.962h-1v-2.981h1Zm0-5.962h-1v-2.981h1Zm0-5.962h-1v-2.981h1Zm0-5.963h-1v-2.98h1Zm0-5.962h-1v-2.98h1Zm0-5.961h-1v-2.981h1Zm0-5.962h-1v-2.981h1Zm0-5.962h-1v-2.981h1Zm0-5.962h-1v-2.982h1Zm0-5.962h-1v-2.982h1Zm0-5.962h-1V9221.1h1Zm0-5.962h-1v-2.981h1Zm0-5.962h-1v-2.981h1Zm0-5.962h-1v-2.981h1Zm0-5.962h-1v-2.981h1Zm0-5.963h-1v-2.98h1Zm0-5.961h-1v-2.981h1Zm0-5.962h-1v-2.981h1Zm0-5.962h-1V9173.4h1Zm0-5.962h-1v-2.981h1Zm0-5.962h-1v-2.982h1Zm0-5.962h-1v-2.982h1Zm0-5.962h-1v-2.981h1Zm0-5.962h-1v-2.981h1Zm0-5.962h-1v-2.981h1Zm0-5.962h-1v-2.981h1Zm0-5.963h-1v-2.98h1Zm0-5.962h-1v-2.98h1Zm0-5.961h-1v-2.981h1Zm0-5.962h-1v-2.981h1Zm0-5.962h-1v-2.981h1Zm0-5.962h-1V9095.9h1Zm0-5.962h-1v-2.982h1Zm0-5.962h-1v-2.981h1Zm0-5.962h-1v-2.981h1Zm0-5.962h-1v-2.981h1Zm0-5.962h-1v-2.981h1Zm0-5.962h-1v-2.981h1Zm0-5.963h-1v-2.98h1Zm0-5.962h-1v-2.98h1Zm0-5.961h-1v-2.981h1Zm0-5.962h-1v-2.981h1Zm0-5.962h-1v-2.981h1Zm0-5.962h-1v-2.982h1Zm0-5.962h-1v-2.982h1Zm0-5.962h-1v-2.981h1Z"/>
      <rect id="Rectángulo_9429" data-name="Rectángulo 9429" width="1" height="1.5" transform="translate(303.484 9322.45)"/>
    </g>
    <path id="Trazado_105132" data-name="Trazado 105132" d="M363.2,9169.319h-3v-1h3Zm-6,0h-3v-1h3Zm-6,0h-3v-1h3Zm-6,0h-3v-1h3Zm-6,0h-3v-1h3Zm-6,0h-3v-1h3Zm-6,0h-3v-1h3Zm-6,0h-3v-1h3Zm-6,0h-3v-1h3Zm-6,0h-3v-1h3Zm-6,0h-3v-1h3Zm-6,0h-3v-1h3Zm-6,0h-3v-1h3Zm-6,0h-3v-1h3Zm-6,0h-3v-1h3Zm-6,0h-3v-1h3Zm-6,0h-3v-1h3Zm-6,0h-3v-1h3Zm-6,0h-3v-1h3Zm-6,0h-3v-1h3Z"/>
    <path id="Trazado_105133" data-name="Trazado 105133" d="M349.464,9247.232h-3v-1h3Zm-6,0h-3v-1h3Zm-6,0h-3v-1h3Zm-6,0h-3v-1h3Zm-6,0h-3v-1h3Zm-6,0h-3v-1h3Zm-6,0h-3v-1h3Zm-6,0h-3v-1h3Zm-6,0h-3v-1h3Zm-6,0h-3v-1h3Zm-6,0h-3v-1h3Zm-6,0h-3v-1h3Zm-6,0h-3v-1h3Zm-6,0h-3v-1h3Zm-6,0h-3v-1h3Zm-6,0H257.29v-1h2.174Z"/>
    <path id="Trazado_105134" data-name="Trazado 105134" d="M354.855,9293.319h-3v-1h3Zm-6,0h-3v-1h3Zm-6,0h-3v-1h3Zm-6,0h-3v-1h3Zm-6,0h-3v-1h3Zm-6,0h-3v-1h3Zm-6,0h-3v-1h3Zm-6,0h-3v-1h3Zm-6,0h-3v-1h3Zm-6,0h-3v-1h3Zm-6,0h-3v-1h3Zm-6,0h-3v-1h3Zm-6,0h-3v-1h3Zm-6,0h-3v-1h3Zm-6,0h-3v-1h3Zm-6,0h-3v-1h3Zm-6,0h-3v-1h3Zm-6,0h-.26v-1h.26Z"/>
    <g id="Grupo_55008" data-name="Grupo 55008">
      <rect id="Rectángulo_9430" data-name="Rectángulo 9430" width="252.712" height="1.029" transform="translate(330.441 9088.232)" fill="red"/>
      <path id="Trazado_105135" data-name="Trazado 105135" d="M332.241,9093.891l-10.8-5.144,10.8-5.143v10.286Z" fill="red" fill-rule="evenodd"/>
      <g id="Grupo_55007" data-name="Grupo 55007">
        <g id="Grupo_55006" data-name="Grupo 55006" clip-path="url(#clip-path)">
          <rect id="Rectángulo_9431" data-name="Rectángulo 9431" width="194.857" height="1.029" transform="translate(389.198 9176.43)" fill="#00b050"/>
          <path id="Trazado_105136" data-name="Trazado 105136" d="M390.912,9182.088l-10.285-5.144,10.286-5.143v10.286Z" fill="#00b050" fill-rule="evenodd"/>
          <g id="Grupo_55005" data-name="Grupo 55005">
            <g id="Grupo_55004" data-name="Grupo 55004" clip-path="url(#clip-path)">
              <rect id="Rectángulo_9432" data-name="Rectángulo 9432" width="218.409" height="1.029" transform="translate(365.541 9250.487)" fill="#5597d3"/>
              <path id="Trazado_105137" data-name="Trazado 105137" d="M367.255,9256.145,356.97,9251l10.286-5.143v10.285Z" fill="#5597d3" fill-rule="evenodd"/>
              <g id="Grupo_55003" data-name="Grupo 55003">
                <g id="Grupo_55002" data-name="Grupo 55002" clip-path="url(#clip-path)">
                  <rect id="Rectángulo_9433" data-name="Rectángulo 9433" width="217.715" height="1.029" transform="translate(366.569 9291.63)" fill="#ed7d31"/>
                  <path id="Trazado_105138" data-name="Trazado 105138" d="M368.284,9297.288,358,9292.145,368.284,9287v10.286Z" fill="#ed7d31" fill-rule="evenodd"/>
                  <g id="Grupo_55001" data-name="Grupo 55001">
                    <g id="Grupo_55000" data-name="Grupo 55000" clip-path="url(#clip-path)">
                      <rect id="Rectángulo_9434" data-name="Rectángulo 9434" width="222.913" height="1.029" transform="translate(361.371 9328.658)" fill="#7030a0"/>
                      <path id="Trazado_105139" data-name="Trazado 105139" d="M363.126,9334.316l-10.531-5.144,10.532-5.143v10.286Z" fill="#7030a0" fill-rule="evenodd"/>
                      <g id="Grupo_54999" data-name="Grupo 54999">
                        <g id="Grupo_54998" data-name="Grupo 54998" clip-path="url(#clip-path)">
                          <rect id="Rectángulo_9435" data-name="Rectángulo 9435" width="242.163" height="1.029" transform="translate(336.741 9360.544)" fill="#ffc000"/>
                          <path id="Trazado_105140" data-name="Trazado 105140" d="M338.455,9366.2l-10.285-5.144,10.286-5.143V9366.2Z" fill="#ffc000" fill-rule="evenodd"/>
                        </g>
                      </g>
                    </g>
                  </g>
                </g>
              </g>
            </g>
          </g>
        </g>
      </g>
    </g>
    <rect id="Rectángulo_9436" data-name="Rectángulo 9436" width="163.818" height="1" transform="translate(583.668 9360.754)" fill="aqua"/>
    <rect id="Rectángulo_9437" data-name="Rectángulo 9437" width="163.818" height="1" transform="translate(583.668 9326.493)" fill="aqua"/>
    <rect id="Rectángulo_9438" data-name="Rectángulo 9438" width="163.818" height="1" transform="translate(583.668 9292.232)" fill="aqua"/>
    <rect id="Rectángulo_9439" data-name="Rectángulo 9439" width="163.818" height="1" transform="translate(583.668 9257.363)" fill="aqua"/>
    <g id="Grupo_55010" data-name="Grupo 55010">
      <path id="Trazado_105146" data-name="Trazado 105146" d="M796.929,9361.755h-3v-1h3Zm-6,0h-3v-1h3Zm-6,0h-3v-1h3Zm-6,0h-3v-1h3Zm-6,0h-3v-1h3Zm-6,0h-3v-1h3Zm-6,0h-3v-1h3Zm-6,0h-3v-1h3Z" fill="aqua"/>
      <g id="Grupo_55009" data-name="Grupo 55009">
        <path id="Trazado_105147" data-name="Trazado 105147" d="M796.816,9364.957l1.573-3.7-1.573-3.7,8.778,3.7Z" fill="aqua"/>
      </g>
    </g>
    <g id="Grupo_55012" data-name="Grupo 55012">
      <path id="Trazado_105148" data-name="Trazado 105148" d="M796.929,9327.493h-3v-1h3Zm-6,0h-3v-1h3Zm-6,0h-3v-1h3Zm-6,0h-3v-1h3Zm-6,0h-3v-1h3Zm-6,0h-3v-1h3Zm-6,0h-3v-1h3Zm-6,0h-3v-1h3Z" fill="aqua"/>
      <g id="Grupo_55011" data-name="Grupo 55011">
        <path id="Trazado_105149" data-name="Trazado 105149" d="M796.816,9330.7l1.573-3.7-1.573-3.7,8.778,3.7Z" fill="aqua"/>
      </g>
    </g>
    <g id="Grupo_55014" data-name="Grupo 55014">
      <path id="Trazado_105150" data-name="Trazado 105150" d="M796.929,9293.232h-3v-1h3Zm-6,0h-3v-1h3Zm-6,0h-3v-1h3Zm-6,0h-3v-1h3Zm-6,0h-3v-1h3Zm-6,0h-3v-1h3Zm-6,0h-3v-1h3Zm-6,0h-3v-1h3Z" fill="aqua"/>
      <g id="Grupo_55013" data-name="Grupo 55013">
        <path id="Trazado_105151" data-name="Trazado 105151" d="M796.816,9296.436l1.573-3.7-1.573-3.7,8.778,3.7Z" fill="aqua"/>
      </g>
    </g>
    <g id="Grupo_55016" data-name="Grupo 55016">
      <path id="Trazado_105152" data-name="Trazado 105152" d="M796.929,9258.362h-3v-1h3Zm-6,0h-3v-1h3Zm-6,0h-3v-1h3Zm-6,0h-3v-1h3Zm-6,0h-3v-1h3Zm-6,0h-3v-1h3Zm-6,0h-3v-1h3Zm-6,0h-3v-1h3Z" fill="aqua"/>
      <g id="Grupo_55015" data-name="Grupo 55015">
        <path id="Trazado_105153" data-name="Trazado 105153" d="M796.816,9261.565l1.573-3.7-1.573-3.7,8.778,3.7Z" fill="aqua"/>
      </g>
    </g>
    <rect id="Rectángulo_9440" data-name="Rectángulo 9440" width="163.818" height="1" transform="translate(583.668 9177.363)" fill="aqua"/>
    <g id="Grupo_55018" data-name="Grupo 55018">
      <path id="Trazado_105154" data-name="Trazado 105154" d="M796.929,9178.362h-3v-1h3Zm-6,0h-3v-1h3Zm-6,0h-3v-1h3Zm-6,0h-3v-1h3Zm-6,0h-3v-1h3Zm-6,0h-3v-1h3Zm-6,0h-3v-1h3Zm-6,0h-3v-1h3Z" fill="aqua"/>
      <g id="Grupo_55017" data-name="Grupo 55017">
        <path id="Trazado_105155" data-name="Trazado 105155" d="M796.816,9181.565l1.573-3.7-1.573-3.7,8.778,3.7Z" fill="aqua"/>
      </g>
    </g>
    <rect id="Rectángulo_9441" data-name="Rectángulo 9441" width="163.818" height="1" transform="translate(583.668 9091.059)" fill="aqua"/>
    <g id="Grupo_55020" data-name="Grupo 55020">
      <path id="Trazado_105156" data-name="Trazado 105156" d="M796.929,9092.058h-3v-1h3Zm-6,0h-3v-1h3Zm-6,0h-3v-1h3Zm-6,0h-3v-1h3Zm-6,0h-3v-1h3Zm-6,0h-3v-1h3Zm-6,0h-3v-1h3Zm-6,0h-3v-1h3Z" fill="aqua"/>
      <g id="Grupo_55019" data-name="Grupo 55019">
        <path id="Trazado_105157" data-name="Trazado 105157" d="M796.816,9095.262l1.573-3.7-1.573-3.7,8.778,3.7Z" fill="aqua"/>
      </g>
    </g>
    <g id="Grupo_55021" data-name="Grupo 55021">
      <path id="Trazado_105158" data-name="Trazado 105158" d="M562.462,9328.489v-1.606h12.957v1.606Z"/>
      <path id="Trazado_105159" data-name="Trazado 105159" d="M562.772,9320.934l2.61,2.228v1.132l-2.61-1.607Zm12.647,3.249h-8.833v-1.605h8.833Z"/>
      <path id="Trazado_105160" data-name="Trazado 105160" d="M568.977,9319.915c-.931,0-1.661.017-2.391.073v-1.424l1.442-.091v-.038a3.269,3.269,0,0,1-1.642-2.92c0-1.222.729-3.119,3.759-3.119h5.274V9314h-5.092c-1.423,0-2.628.529-2.628,2.044a2.317,2.317,0,0,0,1.643,2.153,2.385,2.385,0,0,0,.748.108h5.329v1.607Z"/>
      <path id="Trazado_105161" data-name="Trazado 105161" d="M571.295,9308.877a2.81,2.81,0,0,0,3.047-3.011,5.737,5.737,0,0,0-.456-2.445l1.15-.292a7.2,7.2,0,0,1,.566,2.956,4.121,4.121,0,0,1-4.454,4.344c-2.664,0-4.762-1.588-4.762-4.162,0-2.883,2.536-3.631,4.16-3.631a3.955,3.955,0,0,1,.749.055Zm-1.15-4.69a2.285,2.285,0,0,0-2.61,2.208,2.647,2.647,0,0,0,2.61,2.465Z"/>
      <path id="Trazado_105162" data-name="Trazado 105162" d="M573.3,9294.427a15.05,15.05,0,0,0,2.117-.127v1.441l-1.113.146v.055a3.266,3.266,0,0,1,1.314,2.7,2.517,2.517,0,0,1-2.537,2.7c-2.135,0-3.3-1.9-3.285-5.311h-.183a1.815,1.815,0,0,0-2.044,2.007,4.258,4.258,0,0,0,.658,2.318l-1.077.365a5.713,5.713,0,0,1-.766-2.92c0-2.72,1.843-3.377,3.613-3.377Zm-2.391,1.57c-.036,1.752.275,3.74,1.989,3.74a1.407,1.407,0,0,0,1.534-1.5,2.231,2.231,0,0,0-1.479-2.172,1.65,1.65,0,0,0-.511-.072Z"/>
      <path id="Trazado_105163" data-name="Trazado 105163" d="M562.462,9280.36h10.676c.785,0,1.678-.018,2.281-.072v1.44l-1.533.074v.036a3.239,3.239,0,0,1,1.734,2.993c0,2.135-1.807,3.8-4.49,3.8-2.956.019-4.744-1.825-4.744-3.96a2.937,2.937,0,0,1,1.332-2.665v-.036h-5.256Zm7.72,1.606a2.989,2.989,0,0,0-.694.073,2.364,2.364,0,0,0-1.843,2.317c0,1.66,1.46,2.646,3.394,2.646,1.807,0,3.285-.895,3.285-2.611a2.431,2.431,0,0,0-1.934-2.353,2.565,2.565,0,0,0-.676-.073Z"/>
      <path id="Trazado_105164" data-name="Trazado 105164" d="M571.295,9276.787a2.81,2.81,0,0,0,3.047-3.011,5.737,5.737,0,0,0-.456-2.445l1.15-.292A7.2,7.2,0,0,1,575.6,9274a4.121,4.121,0,0,1-4.454,4.344c-2.664,0-4.762-1.588-4.762-4.161,0-2.884,2.536-3.632,4.16-3.632a4.054,4.054,0,0,1,.749.054Zm-1.15-4.689a2.283,2.283,0,0,0-2.61,2.208,2.646,2.646,0,0,0,2.61,2.463Z"/>
      <path id="Trazado_105165" data-name="Trazado 105165" d="M568.977,9264.693c-.931,0-1.661.035-2.391.072v-1.4l1.424-.073v-.055a3.053,3.053,0,0,1-1.624-2.792,2.605,2.605,0,0,1,1.769-2.482v-.036a3.49,3.49,0,0,1-1.149-1,2.964,2.964,0,0,1-.62-1.935c0-1.187.766-2.92,3.832-2.92h5.2v1.569h-5c-1.716,0-2.72.639-2.72,1.916a2.112,2.112,0,0,0,1.442,1.917,2.868,2.868,0,0,0,.8.127h5.475v1.569h-5.311c-1.4,0-2.409.621-2.409,1.844a2.4,2.4,0,0,0,2.391,2.117h5.329v1.569Z"/>
      <path id="Trazado_105166" data-name="Trazado 105166" d="M565.09,9248.711a.954.954,0,0,1-.985.967.995.995,0,1,1,.985-.985Zm10.329.766h-8.833v-1.605h8.833Z"/>
      <path id="Trazado_105167" data-name="Trazado 105167" d="M564.469,9243.274h2.117v-2.3h1.223v2.3h4.745c1.094,0,1.716-.311,1.716-1.2a3.019,3.019,0,0,0-.11-.931l1.223-.073a4.386,4.386,0,0,1,.219,1.423,2.291,2.291,0,0,1-.676,1.734,3.453,3.453,0,0,1-2.318.62h-4.8v1.369h-1.223v-1.369h-1.624Z"/>
      <path id="Trazado_105168" data-name="Trazado 105168" d="M573.3,9232.947a14.9,14.9,0,0,0,2.117-.127v1.441l-1.113.146v.055a3.265,3.265,0,0,1,1.314,2.7,2.517,2.517,0,0,1-2.537,2.7c-2.135,0-3.3-1.9-3.285-5.311h-.183a1.815,1.815,0,0,0-2.044,2.007,4.258,4.258,0,0,0,.658,2.318l-1.077.365a5.719,5.719,0,0,1-.766-2.92c0-2.721,1.843-3.377,3.613-3.377Zm-2.391,1.568c-.036,1.752.275,3.742,1.989,3.742a1.407,1.407,0,0,0,1.534-1.5,2.231,2.231,0,0,0-1.479-2.172,1.652,1.652,0,0,0-.511-.074Z"/>
      <path id="Trazado_105169" data-name="Trazado 105169" d="M562.462,9222.748h10.676c.785,0,1.678-.018,2.281-.072v1.441l-1.533.073v.035a3.243,3.243,0,0,1,1.734,2.994c0,2.134-1.807,3.795-4.49,3.795-2.956.02-4.744-1.824-4.744-3.959a2.939,2.939,0,0,1,1.332-2.666v-.036h-5.256Zm7.72,1.605a2.991,2.991,0,0,0-.694.074,2.364,2.364,0,0,0-1.843,2.317c0,1.661,1.46,2.646,3.394,2.646,1.807,0,3.285-.894,3.285-2.609a2.431,2.431,0,0,0-1.934-2.354,2.563,2.563,0,0,0-.676-.074Z"/>
      <path id="Trazado_105170" data-name="Trazado 105170" d="M562.462,9208.592h10.676c.785,0,1.678-.018,2.281-.073v1.442l-1.533.073v.036a3.24,3.24,0,0,1,1.734,2.993c0,2.135-1.807,3.8-4.49,3.8-2.956.019-4.744-1.825-4.744-3.96a2.937,2.937,0,0,1,1.332-2.665v-.036h-5.256Zm7.72,1.606a2.989,2.989,0,0,0-.694.073,2.364,2.364,0,0,0-1.843,2.317c0,1.661,1.46,2.646,3.394,2.646,1.807,0,3.285-.895,3.285-2.61a2.431,2.431,0,0,0-1.934-2.354,2.565,2.565,0,0,0-.676-.073Z"/>
      <path id="Trazado_105171" data-name="Trazado 105171" d="M571.295,9205.018a2.809,2.809,0,0,0,3.047-3.01,5.746,5.746,0,0,0-.456-2.446l1.15-.292a7.207,7.207,0,0,1,.566,2.956,4.121,4.121,0,0,1-4.454,4.345c-2.664,0-4.762-1.588-4.762-4.161,0-2.883,2.536-3.632,4.16-3.632a3.955,3.955,0,0,1,.749.055Zm-1.15-4.688a2.283,2.283,0,0,0-2.61,2.208,2.647,2.647,0,0,0,2.61,2.464Z"/>
      <path id="Trazado_105172" data-name="Trazado 105172" d="M571.295,9192.011a2.81,2.81,0,0,0,3.047-3.011,5.734,5.734,0,0,0-.456-2.445l1.15-.292a7.2,7.2,0,0,1,.566,2.956,4.12,4.12,0,0,1-4.454,4.343c-2.664,0-4.762-1.588-4.762-4.16,0-2.884,2.536-3.633,4.16-3.633a3.94,3.94,0,0,1,.749.056Zm-1.15-4.689a2.284,2.284,0,0,0-2.61,2.208,2.647,2.647,0,0,0,2.61,2.464Z"/>
      <path id="Trazado_105173" data-name="Trazado 105173" d="M573.776,9184a4.534,4.534,0,0,0,.62-2.135c0-1.15-.565-1.7-1.313-1.7-.767,0-1.168.456-1.606,1.624-.584,1.605-1.459,2.354-2.5,2.354-1.423,0-2.591-1.168-2.591-3.049a4.1,4.1,0,0,1,.547-2.152l1.15.383a3.611,3.611,0,0,0-.512,1.807c0,.949.548,1.46,1.205,1.46.73,0,1.059-.511,1.515-1.661.565-1.514,1.332-2.317,2.647-2.317,1.569,0,2.664,1.223,2.664,3.285a5.025,5.025,0,0,1-.622,2.481Z"/>
      <path id="Trazado_105174" data-name="Trazado 105174" d="M569.47,9176.559c-1.132,0-2.044.019-2.884.074v-1.442l1.515-.092v-.037a3.4,3.4,0,0,1-1.715-3.119c0-2.153,1.806-3.761,4.489-3.761,3.175,0,4.745,1.954,4.745,4.017a3.077,3.077,0,0,1-1.388,2.719v.036h4.8v1.605Zm2.354-1.605a2.627,2.627,0,0,0,.656-.072,2.458,2.458,0,0,0,1.88-2.392c0-1.7-1.386-2.683-3.412-2.683-1.77,0-3.285.913-3.285,2.61a2.563,2.563,0,0,0,1.989,2.445,3.89,3.89,0,0,0,.639.091Z"/>
      <path id="Trazado_105175" data-name="Trazado 105175" d="M573.3,9159.956a14.9,14.9,0,0,0,2.117-.127v1.44l-1.113.146v.055a3.266,3.266,0,0,1,1.314,2.7,2.517,2.517,0,0,1-2.537,2.7c-2.135,0-3.3-1.9-3.285-5.312h-.183a1.815,1.815,0,0,0-2.044,2.008,4.26,4.26,0,0,0,.658,2.318l-1.077.365a5.713,5.713,0,0,1-.766-2.92c0-2.72,1.843-3.377,3.613-3.377Zm-2.391,1.57c-.036,1.752.275,3.739,1.989,3.739a1.407,1.407,0,0,0,1.534-1.5,2.229,2.229,0,0,0-1.479-2.171,1.65,1.65,0,0,0-.511-.072Z"/>
      <path id="Trazado_105176" data-name="Trazado 105176" d="M562.462,9157.387v-1.606h12.957v1.606Z"/>
      <path id="Trazado_105177" data-name="Trazado 105177" d="M562.462,9145.452h10.676c.785,0,1.678-.019,2.281-.072v1.441l-1.533.072v.037a3.24,3.24,0,0,1,1.734,2.993c0,2.134-1.807,3.8-4.49,3.8-2.956.019-4.744-1.826-4.744-3.96a2.935,2.935,0,0,1,1.332-2.665v-.037h-5.256Zm7.72,1.605a2.991,2.991,0,0,0-.694.074,2.364,2.364,0,0,0-1.843,2.317c0,1.661,1.46,2.646,3.394,2.646,1.807,0,3.285-.895,3.285-2.61a2.431,2.431,0,0,0-1.934-2.354,2.563,2.563,0,0,0-.676-.074Z"/>
      <path id="Trazado_105178" data-name="Trazado 105178" d="M573.3,9136.568a14.9,14.9,0,0,0,2.117-.127v1.441l-1.113.146v.055a3.265,3.265,0,0,1,1.314,2.7,2.517,2.517,0,0,1-2.537,2.7c-2.135,0-3.3-1.9-3.285-5.311h-.183a1.815,1.815,0,0,0-2.044,2.007,4.258,4.258,0,0,0,.658,2.318l-1.077.365a5.719,5.719,0,0,1-.766-2.92c0-2.721,1.843-3.377,3.613-3.377Zm-2.391,1.569c-.036,1.752.275,3.741,1.989,3.741a1.408,1.408,0,0,0,1.534-1.5,2.231,2.231,0,0,0-1.479-2.172,1.651,1.651,0,0,0-.511-.073Z"/>
    </g>
    <g id="Grupo_55022" data-name="Grupo 55022">
      <path id="Trazado_105179" data-name="Trazado 105179" d="M811.832,9328.489v-1.606h12.957v1.606Z"/>
      <path id="Trazado_105180" data-name="Trazado 105180" d="M812.143,9320.934l2.609,2.228v1.132l-2.609-1.607Zm12.646,3.249h-8.834v-1.605h8.834Z"/>
      <path id="Trazado_105181" data-name="Trazado 105181" d="M818.346,9319.915c-.93,0-1.66.017-2.391.073v-1.424l1.443-.091v-.038a3.268,3.268,0,0,1-1.642-2.92c0-1.222.728-3.119,3.758-3.119h5.275V9314H819.7c-1.424,0-2.629.529-2.629,2.044a2.317,2.317,0,0,0,1.643,2.153,2.389,2.389,0,0,0,.748.108h5.33v1.607Z"/>
      <path id="Trazado_105182" data-name="Trazado 105182" d="M820.664,9308.877a2.81,2.81,0,0,0,3.047-3.011,5.739,5.739,0,0,0-.455-2.445l1.15-.292a7.22,7.22,0,0,1,.565,2.956,4.12,4.12,0,0,1-4.453,4.344c-2.664,0-4.762-1.588-4.762-4.162,0-2.883,2.535-3.631,4.16-3.631a3.943,3.943,0,0,1,.748.055Zm-1.15-4.69a2.285,2.285,0,0,0-2.61,2.208,2.647,2.647,0,0,0,2.61,2.465Z"/>
      <path id="Trazado_105183" data-name="Trazado 105183" d="M822.672,9294.427a15.05,15.05,0,0,0,2.117-.127v1.441l-1.113.146v.055a3.266,3.266,0,0,1,1.314,2.7,2.517,2.517,0,0,1-2.537,2.7c-2.135,0-3.3-1.9-3.285-5.311h-.184a1.814,1.814,0,0,0-2.043,2.007,4.257,4.257,0,0,0,.657,2.318l-1.077.365a5.713,5.713,0,0,1-.765-2.92c0-2.72,1.842-3.377,3.613-3.377Zm-2.391,1.57c-.037,1.752.274,3.74,1.989,3.74a1.407,1.407,0,0,0,1.533-1.5,2.231,2.231,0,0,0-1.479-2.172,1.639,1.639,0,0,0-.51-.072Z"/>
      <path id="Trazado_105184" data-name="Trazado 105184" d="M811.832,9280.36h10.676c.785,0,1.678-.018,2.281-.072v1.44l-1.533.074v.036a3.241,3.241,0,0,1,1.734,2.993c0,2.135-1.808,3.8-4.49,3.8-2.957.019-4.744-1.825-4.744-3.96a2.939,2.939,0,0,1,1.332-2.665v-.036h-5.256Zm7.719,1.606a3,3,0,0,0-.694.073,2.365,2.365,0,0,0-1.843,2.317c0,1.66,1.461,2.646,3.394,2.646,1.807,0,3.285-.895,3.285-2.611a2.431,2.431,0,0,0-1.933-2.353,2.56,2.56,0,0,0-.676-.073Z"/>
      <path id="Trazado_105185" data-name="Trazado 105185" d="M820.664,9276.787a2.81,2.81,0,0,0,3.047-3.011,5.739,5.739,0,0,0-.455-2.445l1.15-.292a7.216,7.216,0,0,1,.565,2.956,4.12,4.12,0,0,1-4.453,4.344c-2.664,0-4.762-1.588-4.762-4.161,0-2.884,2.535-3.632,4.16-3.632a4.042,4.042,0,0,1,.748.054Zm-1.15-4.689a2.283,2.283,0,0,0-2.61,2.208,2.646,2.646,0,0,0,2.61,2.463Z"/>
      <path id="Trazado_105186" data-name="Trazado 105186" d="M818.346,9264.693c-.93,0-1.66.035-2.391.072v-1.4l1.424-.073v-.055a3.052,3.052,0,0,1-1.623-2.792,2.6,2.6,0,0,1,1.769-2.482v-.036a3.484,3.484,0,0,1-1.15-1,2.969,2.969,0,0,1-.619-1.935c0-1.187.765-2.92,3.832-2.92h5.2v1.569h-5c-1.717,0-2.721.639-2.721,1.916a2.112,2.112,0,0,0,1.442,1.917,2.875,2.875,0,0,0,.8.127h5.475v1.569h-5.31c-1.407,0-2.411.621-2.411,1.844a2.4,2.4,0,0,0,2.391,2.117h5.33v1.569Z"/>
      <path id="Trazado_105187" data-name="Trazado 105187" d="M814.459,9248.711a.953.953,0,0,1-.984.967.995.995,0,1,1,.984-.985Zm10.33.766h-8.834v-1.605h8.834Z"/>
      <path id="Trazado_105188" data-name="Trazado 105188" d="M813.838,9243.274h2.117v-2.3h1.223v2.3h4.746c1.094,0,1.715-.311,1.715-1.2a2.989,2.989,0,0,0-.11-.931l1.223-.073a4.386,4.386,0,0,1,.219,1.423,2.291,2.291,0,0,1-.676,1.734,3.449,3.449,0,0,1-2.316.62h-4.8v1.369h-1.223v-1.369h-1.623Z"/>
      <path id="Trazado_105189" data-name="Trazado 105189" d="M822.672,9232.947a14.9,14.9,0,0,0,2.117-.127v1.441l-1.113.146v.055a3.265,3.265,0,0,1,1.314,2.7,2.517,2.517,0,0,1-2.537,2.7c-2.135,0-3.3-1.9-3.285-5.311h-.184a1.814,1.814,0,0,0-2.043,2.007,4.257,4.257,0,0,0,.657,2.318l-1.077.365a5.719,5.719,0,0,1-.765-2.92c0-2.721,1.842-3.377,3.613-3.377Zm-2.391,1.568c-.037,1.752.274,3.742,1.989,3.742a1.407,1.407,0,0,0,1.533-1.5,2.231,2.231,0,0,0-1.479-2.172,1.641,1.641,0,0,0-.51-.074Z"/>
      <path id="Trazado_105190" data-name="Trazado 105190" d="M811.832,9222.748h10.676c.785,0,1.678-.018,2.281-.072v1.441l-1.533.073v.035a3.245,3.245,0,0,1,1.734,2.994c0,2.134-1.808,3.795-4.49,3.795-2.957.02-4.744-1.824-4.744-3.959a2.941,2.941,0,0,1,1.332-2.666v-.036h-5.256Zm7.719,1.605a3,3,0,0,0-.694.074,2.365,2.365,0,0,0-1.843,2.317c0,1.661,1.461,2.646,3.394,2.646,1.807,0,3.285-.894,3.285-2.609a2.431,2.431,0,0,0-1.933-2.354,2.558,2.558,0,0,0-.676-.074Z"/>
      <path id="Trazado_105191" data-name="Trazado 105191" d="M811.832,9208.592h10.676c.785,0,1.678-.018,2.281-.073v1.442l-1.533.073v.036a3.242,3.242,0,0,1,1.734,2.993c0,2.135-1.808,3.8-4.49,3.8-2.957.019-4.744-1.825-4.744-3.96a2.939,2.939,0,0,1,1.332-2.665v-.036h-5.256Zm7.719,1.606a3,3,0,0,0-.694.073,2.365,2.365,0,0,0-1.843,2.317c0,1.661,1.461,2.646,3.394,2.646,1.807,0,3.285-.895,3.285-2.61a2.431,2.431,0,0,0-1.933-2.354,2.56,2.56,0,0,0-.676-.073Z"/>
      <path id="Trazado_105192" data-name="Trazado 105192" d="M820.664,9205.018a2.808,2.808,0,0,0,3.047-3.01,5.748,5.748,0,0,0-.455-2.446l1.15-.292a7.228,7.228,0,0,1,.565,2.956,4.121,4.121,0,0,1-4.453,4.345c-2.664,0-4.762-1.588-4.762-4.161,0-2.883,2.535-3.632,4.16-3.632a3.943,3.943,0,0,1,.748.055Zm-1.15-4.688a2.283,2.283,0,0,0-2.61,2.208,2.647,2.647,0,0,0,2.61,2.464Z"/>
      <path id="Trazado_105193" data-name="Trazado 105193" d="M811.832,9185.295h10.676c.785,0,1.678-.018,2.281-.072v1.441l-1.533.073v.036a3.241,3.241,0,0,1,1.734,2.992c0,2.136-1.808,3.8-4.49,3.8-2.957.02-4.744-1.824-4.744-3.96a2.942,2.942,0,0,1,1.332-2.665v-.035h-5.256Zm7.719,1.606a3.048,3.048,0,0,0-.694.072,2.367,2.367,0,0,0-1.843,2.318c0,1.661,1.461,2.646,3.394,2.646,1.807,0,3.285-.895,3.285-2.61a2.432,2.432,0,0,0-1.933-2.354,2.6,2.6,0,0,0-.676-.072Z"/>
      <path id="Trazado_105194" data-name="Trazado 105194" d="M820.664,9181.722a2.81,2.81,0,0,0,3.047-3.011,5.741,5.741,0,0,0-.455-2.446l1.15-.291a7.22,7.22,0,0,1,.565,2.956,4.12,4.12,0,0,1-4.453,4.344c-2.664,0-4.762-1.589-4.762-4.161,0-2.884,2.535-3.632,4.16-3.632a3.943,3.943,0,0,1,.748.055Zm-1.15-4.689a2.284,2.284,0,0,0-2.61,2.208,2.647,2.647,0,0,0,2.61,2.464Z"/>
      <path id="Trazado_105195" data-name="Trazado 105195" d="M811.832,9173.5v-1.606h12.957v1.606Z"/>
      <path id="Trazado_105196" data-name="Trazado 105196" d="M822.672,9162.966a14.9,14.9,0,0,0,2.117-.127v1.441l-1.113.146v.055a3.266,3.266,0,0,1,1.314,2.7,2.517,2.517,0,0,1-2.537,2.7c-2.135,0-3.3-1.9-3.285-5.311h-.184a1.814,1.814,0,0,0-2.043,2.007,4.257,4.257,0,0,0,.657,2.318l-1.077.365a5.713,5.713,0,0,1-.765-2.92c0-2.72,1.842-3.377,3.613-3.377Zm-2.391,1.57c-.037,1.752.274,3.74,1.989,3.74a1.407,1.407,0,0,0,1.533-1.5,2.231,2.231,0,0,0-1.479-2.172,1.639,1.639,0,0,0-.51-.072Z"/>
      <path id="Trazado_105197" data-name="Trazado 105197" d="M818.346,9160.4c-.93,0-1.66.019-2.391.073v-1.424l1.443-.092v-.036a3.269,3.269,0,0,1-1.642-2.92c0-1.223.728-3.12,3.758-3.12h5.275v1.605H819.7c-1.424,0-2.629.529-2.629,2.044a2.317,2.317,0,0,0,1.643,2.153,2.388,2.388,0,0,0,.748.109h5.33v1.606Z"/>
      <path id="Trazado_105198" data-name="Trazado 105198" d="M813.838,9148.41h2.117v-2.3h1.223v2.3h4.746c1.094,0,1.715-.312,1.715-1.2a3,3,0,0,0-.11-.932l1.223-.072a4.386,4.386,0,0,1,.219,1.423,2.292,2.292,0,0,1-.676,1.734,3.449,3.449,0,0,1-2.316.619h-4.8v1.37h-1.223v-1.37h-1.623Z"/>
      <path id="Trazado_105199" data-name="Trazado 105199" d="M820.664,9143.5a2.81,2.81,0,0,0,3.047-3.011,5.739,5.739,0,0,0-.455-2.445l1.15-.292a7.22,7.22,0,0,1,.565,2.956,4.12,4.12,0,0,1-4.453,4.344c-2.664,0-4.762-1.588-4.762-4.162,0-2.883,2.535-3.631,4.16-3.631a3.943,3.943,0,0,1,.748.055Zm-1.15-4.69a2.285,2.285,0,0,0-2.61,2.208,2.647,2.647,0,0,0,2.61,2.465Z"/>
    </g>
    <g id="Grupo_55023" data-name="Grupo 55023">
      <path id="Trazado_105200" data-name="Trazado 105200" d="M597.158,9074.362h1.607v12.957h-1.607Z"/>
      <path id="Trazado_105201" data-name="Trazado 105201" d="M604.713,9074.673l-2.227,2.609h-1.131l1.606-2.609Zm-3.249,12.646v-8.833h1.606v8.833Z"/>
      <path id="Trazado_105202" data-name="Trazado 105202" d="M605.732,9080.877c0-.931-.017-1.66-.073-2.391h1.424l.091,1.442h.037a3.27,3.27,0,0,1,2.92-1.643c1.223,0,3.12.729,3.12,3.759v5.274h-1.6v-5.093c0-1.422-.53-2.628-2.044-2.628a2.319,2.319,0,0,0-2.154,1.644,2.392,2.392,0,0,0-.109.748v5.329h-1.607Z"/>
      <path id="Trazado_105203" data-name="Trazado 105203" d="M616.771,9083.2a2.81,2.81,0,0,0,3.01,3.047,5.741,5.741,0,0,0,2.446-.456l.292,1.149a7.186,7.186,0,0,1-2.956.566,4.12,4.12,0,0,1-4.344-4.453c0-2.664,1.588-4.763,4.161-4.763,2.884,0,3.632,2.536,3.632,4.16a3.957,3.957,0,0,1-.055.749Zm4.689-1.15a2.284,2.284,0,0,0-2.208-2.61,2.648,2.648,0,0,0-2.464,2.61Z"/>
      <path id="Trazado_105204" data-name="Trazado 105204" d="M631.221,9085.2a14.869,14.869,0,0,0,.127,2.117h-1.442l-.145-1.113h-.055a3.265,3.265,0,0,1-2.7,1.313,2.516,2.516,0,0,1-2.7-2.536c0-2.135,1.9-3.3,5.31-3.285v-.184a1.814,1.814,0,0,0-2.007-2.043,4.258,4.258,0,0,0-2.318.657l-.365-1.076a5.71,5.71,0,0,1,2.92-.767c2.719,0,3.377,1.843,3.377,3.613Zm-1.571-2.392c-1.752-.035-3.74.275-3.74,1.99a1.407,1.407,0,0,0,1.5,1.533,2.232,2.232,0,0,0,2.172-1.479,1.639,1.639,0,0,0,.072-.511Z"/>
      <path id="Trazado_105205" data-name="Trazado 105205" d="M645.287,9074.362v10.676c0,.785.018,1.679.072,2.281h-1.441l-.073-1.533h-.036a3.241,3.241,0,0,1-2.994,1.733c-2.134,0-3.795-1.807-3.795-4.489-.019-2.956,1.825-4.744,3.96-4.744a2.939,2.939,0,0,1,2.665,1.332h.036v-5.256Zm-1.606,7.72a2.969,2.969,0,0,0-.074-.693,2.365,2.365,0,0,0-2.317-1.844c-1.661,0-2.646,1.46-2.646,3.395,0,1.807.894,3.284,2.61,3.284a2.43,2.43,0,0,0,2.353-1.934,2.545,2.545,0,0,0,.074-.676Z"/>
      <path id="Trazado_105206" data-name="Trazado 105206" d="M648.86,9083.2a2.811,2.811,0,0,0,3.011,3.047,5.736,5.736,0,0,0,2.445-.456l.292,1.149a7.178,7.178,0,0,1-2.956.566,4.12,4.12,0,0,1-4.343-4.453c0-2.664,1.587-4.763,4.161-4.763,2.884,0,3.632,2.536,3.632,4.16a3.958,3.958,0,0,1-.055.749Zm4.69-1.15a2.284,2.284,0,0,0-2.208-2.61,2.648,2.648,0,0,0-2.464,2.61Z"/>
      <path id="Trazado_105207" data-name="Trazado 105207" d="M667.25,9086.991a6.213,6.213,0,0,1-2.536.511,4.2,4.2,0,0,1-4.4-4.508,4.5,4.5,0,0,1,4.746-4.708,5.053,5.053,0,0,1,2.226.475l-.365,1.223a3.924,3.924,0,0,0-1.861-.42,3.066,3.066,0,0,0-3.122,3.34,3.029,3.029,0,0,0,3.067,3.3,4.592,4.592,0,0,0,1.971-.42Z"/>
      <path id="Trazado_105208" data-name="Trazado 105208" d="M676.52,9084.892c0,.932.017,1.734.072,2.428h-1.423l-.092-1.441h-.036a3.3,3.3,0,0,1-2.92,1.642c-1.387,0-3.048-.784-3.048-3.868v-5.165h1.607v4.873c0,1.679.529,2.827,1.97,2.827a2.31,2.31,0,0,0,2.118-1.477,2.235,2.235,0,0,0,.145-.821v-5.4h1.607Z"/>
      <path id="Trazado_105209" data-name="Trazado 105209" d="M680.093,9083.2a2.81,2.81,0,0,0,3.011,3.047,5.74,5.74,0,0,0,2.445-.456l.292,1.149a7.186,7.186,0,0,1-2.956.566,4.12,4.12,0,0,1-4.344-4.453c0-2.664,1.588-4.763,4.161-4.763,2.884,0,3.632,2.536,3.632,4.16a3.958,3.958,0,0,1-.055.749Zm4.689-1.15a2.284,2.284,0,0,0-2.208-2.61,2.649,2.649,0,0,0-2.464,2.61Z"/>
      <path id="Trazado_105210" data-name="Trazado 105210" d="M688.319,9074.362h1.607v12.957h-1.607Z"/>
      <path id="Trazado_105211" data-name="Trazado 105211" d="M692.625,9074.362h1.606v12.957h-1.606Z"/>
      <path id="Trazado_105212" data-name="Trazado 105212" d="M700.525,9087.52a4.209,4.209,0,0,1-4.234-4.545,4.322,4.322,0,0,1,4.38-4.688,4.176,4.176,0,0,1,4.252,4.524,4.328,4.328,0,0,1-4.38,4.709Zm.073-1.2c1.533,0,2.682-1.441,2.682-3.449,0-1.5-.748-3.376-2.645-3.376-1.88,0-2.7,1.752-2.7,3.431,0,1.935,1.094,3.395,2.646,3.395Z"/>
    </g>
    <g id="Grupo_55024" data-name="Grupo 55024">
      <path id="Trazado_105213" data-name="Trazado 105213" d="M775.433,9343.148H775.4l-2.062,1.113-.31-1.223,2.591-1.387h1.369v11.862h-1.551Z"/>
      <path id="Trazado_105214" data-name="Trazado 105214" d="M780.466,9354.244l5.073-13.23h1.26l-5.111,13.23Z"/>
      <path id="Trazado_105215" data-name="Trazado 105215" d="M787.946,9351.689a5.522,5.522,0,0,0,2.628.73c2.044,0,2.7-1.3,2.683-2.3-.018-1.66-1.515-2.372-3.066-2.372H789.3v-1.205h.894c1.168,0,2.647-.6,2.647-2.007,0-.949-.6-1.789-2.081-1.789a4.353,4.353,0,0,0-2.372.785l-.439-1.168a5.762,5.762,0,0,1,3.121-.912c2.336,0,3.395,1.387,3.395,2.828a2.973,2.973,0,0,1-2.191,2.811v.036a3.059,3.059,0,0,1,2.647,3.029c0,1.9-1.5,3.56-4.325,3.56a6.024,6.024,0,0,1-3.084-.8Z"/>
    </g>
    <g id="Grupo_55025" data-name="Grupo 55025">
      <path id="Trazado_105216" data-name="Trazado 105216" d="M775.433,9312.54H775.4l-2.062,1.113-.31-1.223,2.591-1.387h1.369v11.862h-1.551Z"/>
      <path id="Trazado_105217" data-name="Trazado 105217" d="M780.466,9323.636l5.073-13.23h1.26l-5.111,13.23Z"/>
      <path id="Trazado_105218" data-name="Trazado 105218" d="M787.946,9321.081a5.524,5.524,0,0,0,2.628.729c2.044,0,2.7-1.3,2.683-2.3-.018-1.661-1.515-2.372-3.066-2.372H789.3v-1.206h.894c1.168,0,2.647-.6,2.647-2.006,0-.95-.6-1.789-2.081-1.789a4.345,4.345,0,0,0-2.372.785l-.439-1.168a5.762,5.762,0,0,1,3.121-.912c2.336,0,3.395,1.387,3.395,2.828a2.972,2.972,0,0,1-2.191,2.811v.035a3.061,3.061,0,0,1,2.647,3.03c0,1.9-1.5,3.56-4.325,3.56a6.034,6.034,0,0,1-3.084-.8Z"/>
    </g>
    <g id="Grupo_55026" data-name="Grupo 55026">
      <path id="Trazado_105219" data-name="Trazado 105219" d="M775.433,9278.453H775.4l-2.062,1.113-.31-1.223,2.591-1.387h1.369v11.862h-1.551Z"/>
      <path id="Trazado_105220" data-name="Trazado 105220" d="M780.466,9289.549l5.073-13.23h1.26l-5.111,13.23Z"/>
      <path id="Trazado_105221" data-name="Trazado 105221" d="M787.946,9286.994a5.535,5.535,0,0,0,2.628.729c2.044,0,2.7-1.295,2.683-2.3-.018-1.66-1.515-2.372-3.066-2.372H789.3v-1.205h.894c1.168,0,2.647-.6,2.647-2.007,0-.95-.6-1.789-2.081-1.789a4.353,4.353,0,0,0-2.372.785l-.439-1.168a5.762,5.762,0,0,1,3.121-.912c2.336,0,3.395,1.386,3.395,2.828a2.97,2.97,0,0,1-2.191,2.81v.037a3.059,3.059,0,0,1,2.647,3.029c0,1.9-1.5,3.559-4.325,3.559a6.034,6.034,0,0,1-3.084-.8Z"/>
    </g>
    <g id="Grupo_55027" data-name="Grupo 55027">
      <path id="Trazado_105222" data-name="Trazado 105222" d="M595.071,9155.862h1.607v12.957h-1.607Z"/>
      <path id="Trazado_105223" data-name="Trazado 105223" d="M602.626,9156.173l-2.227,2.609h-1.131l1.606-2.609Zm-3.249,12.646v-8.833h1.606v8.833Z"/>
      <path id="Trazado_105224" data-name="Trazado 105224" d="M603.646,9162.377c0-.931-.018-1.66-.074-2.391H605l.091,1.442h.037a3.271,3.271,0,0,1,2.92-1.643c1.223,0,3.12.729,3.12,3.759v5.274h-1.6v-5.093c0-1.422-.53-2.628-2.044-2.628a2.319,2.319,0,0,0-2.154,1.644,2.392,2.392,0,0,0-.109.748v5.329h-1.606Z"/>
      <path id="Trazado_105225" data-name="Trazado 105225" d="M614.684,9164.7a2.81,2.81,0,0,0,3.01,3.047,5.742,5.742,0,0,0,2.446-.456l.292,1.149a7.186,7.186,0,0,1-2.956.566,4.12,4.12,0,0,1-4.344-4.453c0-2.664,1.588-4.763,4.161-4.763,2.884,0,3.632,2.536,3.632,4.16a3.958,3.958,0,0,1-.055.749Zm4.689-1.15a2.284,2.284,0,0,0-2.208-2.61,2.648,2.648,0,0,0-2.464,2.61Z"/>
      <path id="Trazado_105226" data-name="Trazado 105226" d="M629.134,9166.7a14.869,14.869,0,0,0,.127,2.117h-1.442l-.145-1.113h-.055a3.263,3.263,0,0,1-2.7,1.313,2.516,2.516,0,0,1-2.7-2.536c0-2.135,1.9-3.3,5.31-3.285v-.184a1.814,1.814,0,0,0-2.006-2.043,4.259,4.259,0,0,0-2.319.657l-.365-1.076a5.713,5.713,0,0,1,2.92-.767c2.72,0,3.377,1.843,3.377,3.613Zm-1.571-2.392c-1.751-.035-3.74.275-3.74,1.99a1.407,1.407,0,0,0,1.5,1.533,2.232,2.232,0,0,0,2.172-1.479,1.638,1.638,0,0,0,.072-.511Z"/>
      <path id="Trazado_105227" data-name="Trazado 105227" d="M643.2,9155.862v10.676c0,.785.018,1.679.072,2.281h-1.441l-.073-1.533h-.036a3.239,3.239,0,0,1-2.993,1.733c-2.135,0-3.8-1.807-3.8-4.489-.019-2.956,1.825-4.744,3.96-4.744a2.939,2.939,0,0,1,2.665,1.332h.036v-5.256Zm-1.606,7.72a3.02,3.02,0,0,0-.073-.693,2.367,2.367,0,0,0-2.318-1.844c-1.661,0-2.646,1.46-2.646,3.395,0,1.807.894,3.284,2.61,3.284a2.431,2.431,0,0,0,2.354-1.934,2.589,2.589,0,0,0,.073-.676Z"/>
      <path id="Trazado_105228" data-name="Trazado 105228" d="M646.773,9164.7a2.811,2.811,0,0,0,3.011,3.047,5.741,5.741,0,0,0,2.446-.456l.291,1.149a7.179,7.179,0,0,1-2.956.566,4.12,4.12,0,0,1-4.343-4.453c0-2.664,1.588-4.763,4.161-4.763,2.884,0,3.632,2.536,3.632,4.16a3.963,3.963,0,0,1-.055.749Zm4.69-1.15a2.284,2.284,0,0,0-2.208-2.61,2.648,2.648,0,0,0-2.464,2.61Z"/>
      <path id="Trazado_105229" data-name="Trazado 105229" d="M658.867,9162.87c0-1.132-.018-2.044-.073-2.884h1.442l.091,1.515h.037a3.409,3.409,0,0,1,3.12-1.715c2.154,0,3.76,1.807,3.76,4.489,0,3.175-1.953,4.744-4.014,4.744a3.076,3.076,0,0,1-2.72-1.387h-.036v4.8h-1.607Zm1.607,2.354a2.576,2.576,0,0,0,.072.657,2.458,2.458,0,0,0,2.391,1.88c1.7,0,2.683-1.387,2.683-3.412,0-1.771-.913-3.285-2.61-3.285a2.564,2.564,0,0,0-2.446,1.989,3.881,3.881,0,0,0-.09.639Z"/>
      <path id="Trazado_105230" data-name="Trazado 105230" d="M670.161,9164.7a2.81,2.81,0,0,0,3.011,3.047,5.74,5.74,0,0,0,2.445-.456l.292,1.149a7.183,7.183,0,0,1-2.956.566,4.12,4.12,0,0,1-4.344-4.453c0-2.664,1.588-4.763,4.162-4.763,2.882,0,3.631,2.536,3.631,4.16a3.979,3.979,0,0,1-.054.749Zm4.69-1.15a2.284,2.284,0,0,0-2.208-2.61,2.648,2.648,0,0,0-2.464,2.61Z"/>
      <path id="Trazado_105231" data-name="Trazado 105231" d="M684.684,9168.491a6.219,6.219,0,0,1-2.537.511,4.2,4.2,0,0,1-4.4-4.508,4.5,4.5,0,0,1,4.745-4.708,5.062,5.062,0,0,1,2.227.475l-.366,1.223a3.921,3.921,0,0,0-1.861-.42,3.066,3.066,0,0,0-3.121,3.34,3.029,3.029,0,0,0,3.066,3.3,4.588,4.588,0,0,0,1.971-.42Z"/>
      <path id="Trazado_105232" data-name="Trazado 105232" d="M686.561,9155.862h1.606v5.511h.036a2.864,2.864,0,0,1,1.15-1.131,3.128,3.128,0,0,1,1.642-.456c1.187,0,3.084.729,3.084,3.777v5.256h-1.6v-5.093c0-1.422-.53-2.608-2.044-2.608a2.327,2.327,0,0,0-2.154,1.605,1.954,1.954,0,0,0-.109.767v5.329h-1.606Z"/>
      <path id="Trazado_105233" data-name="Trazado 105233" d="M700.281,9169.02a4.209,4.209,0,0,1-4.234-4.545,4.322,4.322,0,0,1,4.38-4.688,4.176,4.176,0,0,1,4.252,4.524,4.328,4.328,0,0,1-4.38,4.709Zm.073-1.2c1.533,0,2.682-1.441,2.682-3.449,0-1.5-.748-3.376-2.645-3.376-1.88,0-2.7,1.752-2.7,3.431,0,1.935,1.095,3.395,2.647,3.395Z"/>
    </g>
    <g id="Grupo_55028" data-name="Grupo 55028">
      <path id="Trazado_105234" data-name="Trazado 105234" d="M595.071,9237.949h1.607v12.957h-1.607Z"/>
      <path id="Trazado_105235" data-name="Trazado 105235" d="M602.626,9238.26l-2.227,2.609h-1.131l1.606-2.609Zm-3.249,12.646v-8.833h1.606v8.833Z"/>
      <path id="Trazado_105236" data-name="Trazado 105236" d="M603.646,9244.464c0-.931-.018-1.66-.074-2.391H605l.091,1.441h.037a3.272,3.272,0,0,1,2.92-1.642c1.223,0,3.12.729,3.12,3.759v5.274h-1.6v-5.092c0-1.424-.53-2.629-2.044-2.629a2.317,2.317,0,0,0-2.154,1.644,2.392,2.392,0,0,0-.109.748v5.329h-1.606Z"/>
      <path id="Trazado_105237" data-name="Trazado 105237" d="M614.684,9246.782a2.81,2.81,0,0,0,3.01,3.047,5.742,5.742,0,0,0,2.446-.456l.292,1.15a7.206,7.206,0,0,1-2.956.565,4.12,4.12,0,0,1-4.344-4.453c0-2.664,1.588-4.763,4.161-4.763,2.884,0,3.632,2.536,3.632,4.16a3.965,3.965,0,0,1-.055.749Zm4.689-1.15a2.283,2.283,0,0,0-2.208-2.609,2.646,2.646,0,0,0-2.464,2.609Z"/>
      <path id="Trazado_105238" data-name="Trazado 105238" d="M629.134,9248.789a14.869,14.869,0,0,0,.127,2.117h-1.442l-.145-1.113h-.055a3.264,3.264,0,0,1-2.7,1.314,2.517,2.517,0,0,1-2.7-2.537c0-2.136,1.9-3.3,5.31-3.285v-.184a1.815,1.815,0,0,0-2.006-2.044,4.26,4.26,0,0,0-2.319.658l-.365-1.076a5.7,5.7,0,0,1,2.92-.767c2.72,0,3.377,1.843,3.377,3.613Zm-1.571-2.391c-1.751-.036-3.74.274-3.74,1.989a1.407,1.407,0,0,0,1.5,1.533,2.231,2.231,0,0,0,2.172-1.479,1.638,1.638,0,0,0,.072-.511Z"/>
      <path id="Trazado_105239" data-name="Trazado 105239" d="M643.2,9237.949v10.676c0,.785.018,1.679.072,2.281h-1.441l-.073-1.533h-.036a3.24,3.24,0,0,1-2.993,1.734c-2.135,0-3.8-1.808-3.8-4.49-.019-2.956,1.825-4.744,3.96-4.744a2.939,2.939,0,0,1,2.665,1.332h.036v-5.256Zm-1.606,7.72a3.034,3.034,0,0,0-.073-.694,2.367,2.367,0,0,0-2.318-1.843c-1.661,0-2.646,1.46-2.646,3.395,0,1.807.894,3.284,2.61,3.284a2.431,2.431,0,0,0,2.354-1.934,2.589,2.589,0,0,0,.073-.676Z"/>
      <path id="Trazado_105240" data-name="Trazado 105240" d="M646.773,9246.782a2.812,2.812,0,0,0,3.011,3.047,5.741,5.741,0,0,0,2.446-.456l.291,1.15a7.2,7.2,0,0,1-2.956.565,4.12,4.12,0,0,1-4.343-4.453c0-2.664,1.588-4.763,4.161-4.763,2.884,0,3.632,2.536,3.632,4.16a3.97,3.97,0,0,1-.055.749Zm4.69-1.15a2.284,2.284,0,0,0-2.208-2.609,2.646,2.646,0,0,0-2.464,2.609Z"/>
      <path id="Trazado_105241" data-name="Trazado 105241" d="M665.163,9250.578a6.213,6.213,0,0,1-2.536.511,4.2,4.2,0,0,1-4.4-4.508,4.5,4.5,0,0,1,4.745-4.708,5.053,5.053,0,0,1,2.226.475l-.365,1.223a3.924,3.924,0,0,0-1.861-.42,3.066,3.066,0,0,0-3.121,3.34,3.028,3.028,0,0,0,3.066,3.3,4.592,4.592,0,0,0,1.971-.42Z"/>
      <path id="Trazado_105242" data-name="Trazado 105242" d="M667.808,9240.577a.954.954,0,0,1-.967-.985.995.995,0,1,1,.985.985Zm-.767,10.329v-8.833h1.606v8.833Z"/>
      <path id="Trazado_105243" data-name="Trazado 105243" d="M671.31,9244.464c0-.931-.018-1.66-.074-2.391h1.424l.091,1.441h.037a3.272,3.272,0,0,1,2.92-1.642c1.223,0,3.12.729,3.12,3.759v5.274h-1.6v-5.092c0-1.424-.53-2.629-2.044-2.629a2.317,2.317,0,0,0-2.154,1.644,2.392,2.392,0,0,0-.109.748v5.329H671.31Z"/>
      <path id="Trazado_105244" data-name="Trazado 105244" d="M683.3,9239.956v2.117h2.3v1.223h-2.3v4.745c0,1.095.31,1.716,1.2,1.716a3.023,3.023,0,0,0,.931-.109l.073,1.223a4.408,4.408,0,0,1-1.423.219,2.289,2.289,0,0,1-1.734-.676,3.449,3.449,0,0,1-.62-2.317v-4.8h-1.37v-1.223h1.37v-1.624Z"/>
      <path id="Trazado_105245" data-name="Trazado 105245" d="M694.792,9248.479c0,.932.018,1.734.072,2.428h-1.423l-.091-1.441h-.037a3.3,3.3,0,0,1-2.919,1.643c-1.387,0-3.048-.785-3.048-3.869v-5.165h1.606v4.873c0,1.679.529,2.828,1.971,2.828a2.311,2.311,0,0,0,2.117-1.478,2.214,2.214,0,0,0,.146-.822v-5.4h1.606Z"/>
      <path id="Trazado_105246" data-name="Trazado 105246" d="M697.452,9244.829c0-1.04-.017-1.936-.073-2.756h1.4l.073,1.733h.055a2.671,2.671,0,0,1,2.464-1.934,3.048,3.048,0,0,1,.437.036v1.515a4.5,4.5,0,0,0-.546-.036,2.251,2.251,0,0,0-2.154,2.044,4.911,4.911,0,0,0-.054.748v4.727h-1.607Z"/>
      <path id="Trazado_105247" data-name="Trazado 105247" d="M709.551,9248.789a14.869,14.869,0,0,0,.127,2.117h-1.442l-.145-1.113h-.055a3.264,3.264,0,0,1-2.7,1.314,2.517,2.517,0,0,1-2.7-2.537c0-2.136,1.9-3.3,5.31-3.285v-.184a1.815,1.815,0,0,0-2.007-2.044,4.259,4.259,0,0,0-2.318.658l-.365-1.076a5.706,5.706,0,0,1,2.92-.767c2.72,0,3.377,1.843,3.377,3.613Zm-1.57-2.391c-1.751-.036-3.741.274-3.741,1.989a1.407,1.407,0,0,0,1.5,1.533,2.231,2.231,0,0,0,2.172-1.479,1.64,1.64,0,0,0,.073-.511Z"/>
    </g>
    <g id="Grupo_55029" data-name="Grupo 55029">
      <path id="Trazado_105248" data-name="Trazado 105248" d="M594.98,9273.969h1.5v12.068h-1.5Z"/>
      <path id="Trazado_105249" data-name="Trazado 105249" d="M602.018,9274.257l-2.075,2.432H598.89l1.5-2.432Zm-3.026,11.78v-8.229h1.495v8.229Z"/>
      <path id="Trazado_105250" data-name="Trazado 105250" d="M602.971,9280.037c0-.867-.018-1.547-.069-2.229h1.327l.084,1.344h.035a3.044,3.044,0,0,1,2.719-1.529c1.139,0,2.907.68,2.907,3.5v4.912h-1.5v-4.742c0-1.326-.493-2.448-1.9-2.448a2.159,2.159,0,0,0-2.006,1.53,2.222,2.222,0,0,0-.1.7v4.964h-1.495Z"/>
      <path id="Trazado_105251" data-name="Trazado 105251" d="M613.255,9282.2a2.618,2.618,0,0,0,2.8,2.839,5.342,5.342,0,0,0,2.277-.425l.272,1.07a6.7,6.7,0,0,1-2.754.527,3.838,3.838,0,0,1-4.045-4.148c0-2.48,1.479-4.436,3.876-4.436,2.685,0,3.382,2.362,3.382,3.876a3.656,3.656,0,0,1-.05.7Zm4.368-1.07a2.126,2.126,0,0,0-2.057-2.431,2.467,2.467,0,0,0-2.295,2.431Z"/>
      <path id="Trazado_105252" data-name="Trazado 105252" d="M626.718,9284.065a13.813,13.813,0,0,0,.119,1.972h-1.343l-.136-1.037h-.051a3.039,3.039,0,0,1-2.516,1.224,2.345,2.345,0,0,1-2.516-2.362c0-1.989,1.768-3.077,4.947-3.06v-.17a1.691,1.691,0,0,0-1.869-1.905,3.97,3.97,0,0,0-2.16.613l-.339-1a5.323,5.323,0,0,1,2.719-.714c2.533,0,3.145,1.717,3.145,3.365Zm-1.462-2.227c-1.632-.034-3.485.255-3.485,1.853a1.311,1.311,0,0,0,1.394,1.428,2.077,2.077,0,0,0,2.023-1.377,1.538,1.538,0,0,0,.068-.477Z"/>
      <path id="Trazado_105253" data-name="Trazado 105253" d="M639.824,9273.969v9.943c0,.73.018,1.563.069,2.125H638.55l-.069-1.428h-.033a3.016,3.016,0,0,1-2.788,1.614c-1.989,0-3.536-1.683-3.536-4.181-.017-2.754,1.7-4.42,3.689-4.42a2.735,2.735,0,0,1,2.482,1.241h.034v-4.9Zm-1.495,7.189a2.782,2.782,0,0,0-.068-.646,2.2,2.2,0,0,0-2.158-1.717c-1.547,0-2.465,1.359-2.465,3.162,0,1.682.832,3.059,2.43,3.059a2.265,2.265,0,0,0,2.193-1.8,2.382,2.382,0,0,0,.068-.629Z"/>
      <path id="Trazado_105254" data-name="Trazado 105254" d="M643.157,9282.2a2.619,2.619,0,0,0,2.8,2.839,5.342,5.342,0,0,0,2.277-.425l.273,1.07a6.7,6.7,0,0,1-2.754.527,3.838,3.838,0,0,1-4.046-4.148c0-2.48,1.479-4.436,3.876-4.436,2.685,0,3.383,2.362,3.383,3.876a3.64,3.64,0,0,1-.051.7Zm4.368-1.07a2.125,2.125,0,0,0-2.056-2.431,2.466,2.466,0,0,0-2.295,2.431Z"/>
      <path id="Trazado_105255" data-name="Trazado 105255" d="M654.429,9280.5c0-1.055-.018-1.9-.069-2.687H655.7l.085,1.412h.034a3.175,3.175,0,0,1,2.907-1.6c2.005,0,3.5,1.683,3.5,4.182,0,2.958-1.818,4.419-3.739,4.419a2.864,2.864,0,0,1-2.533-1.292h-.034v4.471h-1.495Zm1.495,2.192a2.422,2.422,0,0,0,.068.612,2.289,2.289,0,0,0,2.227,1.75c1.581,0,2.5-1.291,2.5-3.179,0-1.648-.85-3.061-2.431-3.061a2.388,2.388,0,0,0-2.278,1.854,3.662,3.662,0,0,0-.085.595Z"/>
      <path id="Trazado_105256" data-name="Trazado 105256" d="M664.951,9282.2a2.619,2.619,0,0,0,2.8,2.839,5.342,5.342,0,0,0,2.277-.425l.273,1.07a6.7,6.7,0,0,1-2.754.527,3.838,3.838,0,0,1-4.046-4.148c0-2.48,1.479-4.436,3.876-4.436,2.685,0,3.383,2.362,3.383,3.876a3.722,3.722,0,0,1-.051.7Zm4.368-1.07a2.125,2.125,0,0,0-2.056-2.431,2.465,2.465,0,0,0-2.295,2.431Z"/>
      <path id="Trazado_105257" data-name="Trazado 105257" d="M674.42,9275.838v1.971h2.142v1.141H674.42v4.419c0,1.021.289,1.6,1.122,1.6a2.808,2.808,0,0,0,.866-.1l.069,1.139a4.065,4.065,0,0,1-1.327.2,2.134,2.134,0,0,1-1.614-.629,3.213,3.213,0,0,1-.578-2.159v-4.47h-1.275v-1.141h1.275V9276.3Z"/>
      <path id="Trazado_105258" data-name="Trazado 105258" d="M678.959,9276.416a.889.889,0,0,1-.9-.918.926.926,0,1,1,.918.918Zm-.714,9.621v-8.229h1.495v8.229Z"/>
      <path id="Trazado_105259" data-name="Trazado 105259" d="M684.024,9275.838v1.971h2.142v1.141h-2.142v4.419c0,1.021.289,1.6,1.122,1.6a2.815,2.815,0,0,0,.867-.1l.068,1.139a4.063,4.063,0,0,1-1.326.2,2.133,2.133,0,0,1-1.614-.629,3.208,3.208,0,0,1-.578-2.159v-4.47h-1.276v-1.141h1.276V9276.3Z"/>
      <path id="Trazado_105260" data-name="Trazado 105260" d="M688.6,9282.2a2.618,2.618,0,0,0,2.8,2.839,5.344,5.344,0,0,0,2.278-.425l.272,1.07a6.7,6.7,0,0,1-2.754.527,3.838,3.838,0,0,1-4.046-4.148c0-2.48,1.48-4.436,3.876-4.436,2.686,0,3.383,2.362,3.383,3.876a3.64,3.64,0,0,1-.051.7Zm4.368-1.07a2.127,2.127,0,0,0-2.057-2.431,2.466,2.466,0,0,0-2.295,2.431Z"/>
      <path id="Trazado_105261" data-name="Trazado 105261" d="M696.061,9284.507a4.217,4.217,0,0,0,1.988.578c1.071,0,1.581-.527,1.581-1.224,0-.714-.425-1.088-1.513-1.5-1.5-.544-2.192-1.359-2.192-2.328a2.547,2.547,0,0,1,2.838-2.414,3.818,3.818,0,0,1,2.006.51l-.357,1.071a3.35,3.35,0,0,0-1.682-.478c-.885,0-1.361.511-1.361,1.122,0,.681.476.987,1.547,1.412,1.411.526,2.159,1.24,2.159,2.464,0,1.462-1.139,2.482-3.06,2.482a4.692,4.692,0,0,1-2.312-.578Z"/>
      <path id="Trazado_105262" data-name="Trazado 105262" d="M706.6,9273.969H708.1v5.132h.034a2.67,2.67,0,0,1,1.071-1.053,2.917,2.917,0,0,1,1.529-.425c1.106,0,2.874.68,2.874,3.518v4.9h-1.5v-4.742c0-1.326-.493-2.431-1.9-2.431a2.166,2.166,0,0,0-2.006,1.5,1.81,1.81,0,0,0-.1.714v4.964H706.6Z"/>
      <path id="Trazado_105263" data-name="Trazado 105263" d="M721.831,9284.065a13.8,13.8,0,0,0,.119,1.972h-1.343l-.135-1.037h-.052a3.037,3.037,0,0,1-2.516,1.224,2.344,2.344,0,0,1-2.515-2.362c0-1.989,1.767-3.077,4.946-3.06v-.17a1.691,1.691,0,0,0-1.869-1.905,3.969,3.969,0,0,0-2.159.613l-.34-1a5.324,5.324,0,0,1,2.72-.714c2.533,0,3.144,1.717,3.144,3.365Zm-1.462-2.227c-1.632-.034-3.484.255-3.484,1.853a1.31,1.31,0,0,0,1.393,1.428,2.079,2.079,0,0,0,2.024-1.377,1.537,1.537,0,0,0,.067-.477Z"/>
      <path id="Trazado_105264" data-name="Trazado 105264" d="M724.23,9280.037c0-.867-.018-1.547-.069-2.229h1.326l.085,1.344h.034a3.047,3.047,0,0,1,2.72-1.529c1.139,0,2.906.68,2.906,3.5v4.912h-1.5v-4.742c0-1.326-.493-2.448-1.9-2.448a2.159,2.159,0,0,0-2.006,1.53,2.22,2.22,0,0,0-.1.7v4.964H724.23Z"/>
      <path id="Trazado_105265" data-name="Trazado 105265" d="M739.528,9285.731a5.789,5.789,0,0,1-2.363.476,3.909,3.909,0,0,1-4.1-4.2,4.194,4.194,0,0,1,4.42-4.386,4.724,4.724,0,0,1,2.075.441l-.341,1.14a3.64,3.64,0,0,0-1.734-.393,2.856,2.856,0,0,0-2.906,3.112,2.821,2.821,0,0,0,2.856,3.076,4.286,4.286,0,0,0,1.835-.391Z"/>
      <path id="Trazado_105266" data-name="Trazado 105266" d="M741.28,9273.969h1.495v5.132h.035a2.67,2.67,0,0,1,1.071-1.053,2.915,2.915,0,0,1,1.529-.425c1.106,0,2.873.68,2.873,3.518v4.9h-1.5v-4.742c0-1.326-.493-2.431-1.9-2.431a2.166,2.166,0,0,0-2.006,1.5,1.81,1.81,0,0,0-.1.714v4.964H741.28Z"/>
      <path id="Trazado_105267" data-name="Trazado 105267" d="M751.564,9282.2a2.619,2.619,0,0,0,2.8,2.839,5.339,5.339,0,0,0,2.277-.425l.273,1.07a6.7,6.7,0,0,1-2.754.527,3.838,3.838,0,0,1-4.046-4.148c0-2.48,1.48-4.436,3.876-4.436,2.686,0,3.383,2.362,3.383,3.876a3.729,3.729,0,0,1-.051.7Zm4.369-1.07a2.127,2.127,0,0,0-2.057-2.431,2.466,2.466,0,0,0-2.295,2.431Z"/>
      <path id="Trazado_105268" data-name="Trazado 105268" d="M759.027,9284.507a4.221,4.221,0,0,0,1.989.578c1.071,0,1.581-.527,1.581-1.224,0-.714-.425-1.088-1.513-1.5-1.5-.544-2.192-1.359-2.192-2.328a2.547,2.547,0,0,1,2.838-2.414,3.812,3.812,0,0,1,2.005.51l-.356,1.071a3.351,3.351,0,0,0-1.683-.478c-.884,0-1.36.511-1.36,1.122,0,.681.476.987,1.547,1.412,1.411.526,2.159,1.24,2.159,2.464,0,1.462-1.14,2.482-3.061,2.482a4.691,4.691,0,0,1-2.311-.578Z"/>
    </g>
    <g id="Grupo_55030" data-name="Grupo 55030">
      <path id="Trazado_105269" data-name="Trazado 105269" d="M595.071,9306.819h1.607v12.957h-1.607Z"/>
      <path id="Trazado_105270" data-name="Trazado 105270" d="M602.626,9307.13l-2.227,2.609h-1.131l1.606-2.609Zm-3.249,12.646v-8.833h1.606v8.833Z"/>
      <path id="Trazado_105271" data-name="Trazado 105271" d="M603.646,9313.334c0-.931-.018-1.66-.074-2.391H605l.091,1.442h.037a3.271,3.271,0,0,1,2.92-1.643c1.223,0,3.12.729,3.12,3.759v5.274h-1.6v-5.093c0-1.422-.53-2.627-2.044-2.627a2.318,2.318,0,0,0-2.154,1.643,2.392,2.392,0,0,0-.109.748v5.329h-1.606Z"/>
      <path id="Trazado_105272" data-name="Trazado 105272" d="M614.684,9315.652a2.81,2.81,0,0,0,3.01,3.047,5.742,5.742,0,0,0,2.446-.456l.292,1.149a7.186,7.186,0,0,1-2.956.566,4.12,4.12,0,0,1-4.344-4.453c0-2.664,1.588-4.763,4.161-4.763,2.884,0,3.632,2.536,3.632,4.16a3.958,3.958,0,0,1-.055.749Zm4.689-1.15a2.284,2.284,0,0,0-2.208-2.61,2.648,2.648,0,0,0-2.464,2.61Z"/>
      <path id="Trazado_105273" data-name="Trazado 105273" d="M629.134,9317.659a14.869,14.869,0,0,0,.127,2.117h-1.442l-.145-1.113h-.055a3.263,3.263,0,0,1-2.7,1.313,2.516,2.516,0,0,1-2.7-2.536c0-2.135,1.9-3.3,5.31-3.285v-.183a1.814,1.814,0,0,0-2.006-2.044,4.259,4.259,0,0,0-2.319.657l-.365-1.076a5.713,5.713,0,0,1,2.92-.767c2.72,0,3.377,1.843,3.377,3.613Zm-1.571-2.392c-1.751-.035-3.74.275-3.74,1.99a1.407,1.407,0,0,0,1.5,1.533,2.232,2.232,0,0,0,2.172-1.479,1.628,1.628,0,0,0,.072-.51Z"/>
      <path id="Trazado_105274" data-name="Trazado 105274" d="M643.2,9306.819V9317.5c0,.785.018,1.679.072,2.281h-1.441l-.073-1.533h-.036a3.241,3.241,0,0,1-2.993,1.733c-2.135,0-3.8-1.807-3.8-4.489-.019-2.956,1.825-4.744,3.96-4.744a2.939,2.939,0,0,1,2.665,1.332h.036v-5.256Zm-1.606,7.72a3.02,3.02,0,0,0-.073-.693A2.367,2.367,0,0,0,639.2,9312c-1.661,0-2.646,1.46-2.646,3.395,0,1.807.894,3.285,2.61,3.285a2.432,2.432,0,0,0,2.354-1.935,2.589,2.589,0,0,0,.073-.676Z"/>
      <path id="Trazado_105275" data-name="Trazado 105275" d="M646.773,9315.652a2.811,2.811,0,0,0,3.011,3.047,5.741,5.741,0,0,0,2.446-.456l.291,1.149a7.179,7.179,0,0,1-2.956.566,4.12,4.12,0,0,1-4.343-4.453c0-2.664,1.588-4.763,4.161-4.763,2.884,0,3.632,2.536,3.632,4.16a3.963,3.963,0,0,1-.055.749Zm4.69-1.15a2.284,2.284,0,0,0-2.208-2.61,2.648,2.648,0,0,0-2.464,2.61Z"/>
      <path id="Trazado_105276" data-name="Trazado 105276" d="M665.163,9319.448a6.213,6.213,0,0,1-2.536.511,4.2,4.2,0,0,1-4.4-4.508,4.5,4.5,0,0,1,4.745-4.708,5.053,5.053,0,0,1,2.226.475l-.365,1.223a3.923,3.923,0,0,0-1.861-.421,3.066,3.066,0,0,0-3.121,3.341,3.028,3.028,0,0,0,3.066,3.3,4.592,4.592,0,0,0,1.971-.42Z"/>
      <path id="Trazado_105277" data-name="Trazado 105277" d="M673.265,9317.659a14.869,14.869,0,0,0,.127,2.117H671.95l-.145-1.113h-.055a3.265,3.265,0,0,1-2.7,1.313,2.516,2.516,0,0,1-2.7-2.536c0-2.135,1.9-3.3,5.31-3.285v-.183a1.814,1.814,0,0,0-2.007-2.044,4.258,4.258,0,0,0-2.318.657l-.365-1.076a5.71,5.71,0,0,1,2.92-.767c2.719,0,3.377,1.843,3.377,3.613Zm-1.571-2.392c-1.752-.035-3.74.275-3.74,1.99a1.407,1.407,0,0,0,1.5,1.533,2.232,2.232,0,0,0,2.172-1.479,1.628,1.628,0,0,0,.072-.51Z"/>
      <path id="Trazado_105278" data-name="Trazado 105278" d="M683.463,9306.819V9317.5c0,.785.017,1.679.072,2.281h-1.441l-.073-1.533h-.037a3.24,3.24,0,0,1-2.993,1.733c-2.135,0-3.8-1.807-3.8-4.489-.018-2.956,1.826-4.744,3.96-4.744a2.938,2.938,0,0,1,2.665,1.332h.036v-5.256Zm-1.607,7.72a2.967,2.967,0,0,0-.073-.693,2.365,2.365,0,0,0-2.317-1.844c-1.661,0-2.647,1.46-2.647,3.395,0,1.807.9,3.285,2.611,3.285a2.431,2.431,0,0,0,2.353-1.935,2.548,2.548,0,0,0,.073-.676Z"/>
      <path id="Trazado_105279" data-name="Trazado 105279" d="M687.036,9315.652a2.81,2.81,0,0,0,3.011,3.047,5.74,5.74,0,0,0,2.445-.456l.292,1.149a7.183,7.183,0,0,1-2.956.566,4.12,4.12,0,0,1-4.344-4.453c0-2.664,1.588-4.763,4.162-4.763,2.882,0,3.631,2.536,3.631,4.16a3.979,3.979,0,0,1-.054.749Zm4.69-1.15a2.284,2.284,0,0,0-2.208-2.61,2.648,2.648,0,0,0-2.464,2.61Z"/>
      <path id="Trazado_105280" data-name="Trazado 105280" d="M695.263,9313.7c0-1.04-.018-1.935-.074-2.756h1.406l.073,1.734h.055a2.67,2.67,0,0,1,2.464-1.935,3.2,3.2,0,0,1,.437.036v1.515a4.5,4.5,0,0,0-.547-.036,2.25,2.25,0,0,0-2.153,2.044,4.909,4.909,0,0,0-.055.748v4.727h-1.606Z"/>
      <path id="Trazado_105281" data-name="Trazado 105281" d="M707.361,9317.659a14.869,14.869,0,0,0,.127,2.117h-1.441l-.146-1.113h-.054a3.266,3.266,0,0,1-2.7,1.313,2.516,2.516,0,0,1-2.7-2.536c0-2.135,1.9-3.3,5.311-3.285v-.183a1.814,1.814,0,0,0-2.008-2.044,4.255,4.255,0,0,0-2.317.657l-.366-1.076a5.718,5.718,0,0,1,2.92-.767c2.72,0,3.377,1.843,3.377,3.613Zm-1.569-2.392c-1.752-.035-3.741.275-3.741,1.99a1.407,1.407,0,0,0,1.5,1.533,2.232,2.232,0,0,0,2.172-1.479,1.659,1.659,0,0,0,.073-.51Z"/>
    </g>
    <g id="Grupo_55031" data-name="Grupo 55031">
      <path id="Trazado_105282" data-name="Trazado 105282" d="M595.071,9340.557h1.607v12.958h-1.607Z"/>
      <path id="Trazado_105283" data-name="Trazado 105283" d="M602.626,9340.868l-2.227,2.608h-1.131l1.606-2.608Zm-3.249,12.646v-8.833h1.606v8.833Z"/>
      <path id="Trazado_105284" data-name="Trazado 105284" d="M603.646,9347.073c0-.933-.018-1.66-.074-2.392H605l.091,1.442h.037a3.273,3.273,0,0,1,2.92-1.643c1.223,0,3.12.73,3.12,3.76v5.273h-1.6v-5.092c0-1.422-.53-2.627-2.044-2.627a2.318,2.318,0,0,0-2.154,1.643,2.386,2.386,0,0,0-.109.747v5.329h-1.606Z"/>
      <path id="Trazado_105285" data-name="Trazado 105285" d="M614.684,9349.391a2.811,2.811,0,0,0,3.01,3.048,5.739,5.739,0,0,0,2.446-.457l.292,1.15a7.186,7.186,0,0,1-2.956.566,4.12,4.12,0,0,1-4.344-4.453c0-2.664,1.588-4.764,4.161-4.764,2.884,0,3.632,2.536,3.632,4.159a3.955,3.955,0,0,1-.055.75Zm4.689-1.149a2.283,2.283,0,0,0-2.208-2.609,2.647,2.647,0,0,0-2.464,2.609Z"/>
      <path id="Trazado_105286" data-name="Trazado 105286" d="M629.134,9351.4a14.85,14.85,0,0,0,.127,2.117h-1.442l-.145-1.113h-.055a3.264,3.264,0,0,1-2.7,1.314,2.517,2.517,0,0,1-2.7-2.537c0-2.135,1.9-3.3,5.31-3.286v-.181a1.814,1.814,0,0,0-2.006-2.045,4.26,4.26,0,0,0-2.319.658l-.365-1.076a5.713,5.713,0,0,1,2.92-.768c2.72,0,3.377,1.844,3.377,3.613Zm-1.571-2.391c-1.751-.035-3.74.275-3.74,1.99a1.407,1.407,0,0,0,1.5,1.533,2.231,2.231,0,0,0,2.172-1.479,1.645,1.645,0,0,0,.072-.512Z"/>
      <path id="Trazado_105287" data-name="Trazado 105287" d="M643.2,9340.557v10.677c0,.784.018,1.68.072,2.281h-1.441l-.073-1.533h-.036a3.238,3.238,0,0,1-2.993,1.734c-2.135,0-3.8-1.807-3.8-4.491-.019-2.955,1.825-4.743,3.96-4.743a2.939,2.939,0,0,1,2.665,1.332h.036v-5.257Zm-1.606,7.722a3.009,3.009,0,0,0-.073-.693,2.367,2.367,0,0,0-2.318-1.844c-1.661,0-2.646,1.459-2.646,3.395,0,1.807.894,3.285,2.61,3.285a2.432,2.432,0,0,0,2.354-1.936,2.592,2.592,0,0,0,.073-.677Z"/>
      <path id="Trazado_105288" data-name="Trazado 105288" d="M646.773,9349.391a2.812,2.812,0,0,0,3.011,3.048,5.739,5.739,0,0,0,2.446-.457l.291,1.15a7.179,7.179,0,0,1-2.956.566,4.12,4.12,0,0,1-4.343-4.453c0-2.664,1.588-4.764,4.161-4.764,2.884,0,3.632,2.536,3.632,4.159a3.96,3.96,0,0,1-.055.75Zm4.69-1.149a2.284,2.284,0,0,0-2.208-2.609,2.647,2.647,0,0,0-2.464,2.609Z"/>
      <path id="Trazado_105289" data-name="Trazado 105289" d="M659.78,9349.391a2.811,2.811,0,0,0,3.011,3.048,5.738,5.738,0,0,0,2.445-.457l.292,1.15a7.179,7.179,0,0,1-2.956.566,4.12,4.12,0,0,1-4.343-4.453c0-2.664,1.587-4.764,4.161-4.764,2.882,0,3.631,2.536,3.631,4.159a3.97,3.97,0,0,1-.054.75Zm4.69-1.149a2.284,2.284,0,0,0-2.208-2.609,2.647,2.647,0,0,0-2.464,2.609Z"/>
      <path id="Trazado_105290" data-name="Trazado 105290" d="M668.008,9347.073c0-.933-.019-1.66-.073-2.392h1.423l.092,1.442h.036a3.273,3.273,0,0,1,2.92-1.643c1.223,0,3.12.73,3.12,3.76v5.273h-1.6v-5.092c0-1.422-.529-2.627-2.044-2.627a2.317,2.317,0,0,0-2.153,1.643,2.357,2.357,0,0,0-.11.747v5.329h-1.606Z"/>
      <path id="Trazado_105291" data-name="Trazado 105291" d="M679.994,9342.565v2.116h2.3v1.224h-2.3v4.744c0,1.1.311,1.717,1.2,1.717a3.025,3.025,0,0,0,.932-.109l.072,1.222a4.345,4.345,0,0,1-1.423.22,2.291,2.291,0,0,1-1.734-.676,3.45,3.45,0,0,1-.62-2.318v-4.8h-1.369v-1.224h1.369v-1.625Z"/>
      <path id="Trazado_105292" data-name="Trazado 105292" d="M684.1,9347.438c0-1.041-.019-1.936-.074-2.757h1.406l.073,1.735h.055a2.668,2.668,0,0,1,2.463-1.936,3.241,3.241,0,0,1,.439.036v1.515a4.767,4.767,0,0,0-.548-.035,2.249,2.249,0,0,0-2.153,2.043,4.918,4.918,0,0,0-.055.748v4.727H684.1Z"/>
      <path id="Trazado_105293" data-name="Trazado 105293" d="M690.794,9349.391a2.81,2.81,0,0,0,3.011,3.048,5.738,5.738,0,0,0,2.445-.457l.292,1.15a7.182,7.182,0,0,1-2.956.566,4.121,4.121,0,0,1-4.344-4.453c0-2.664,1.588-4.764,4.161-4.764,2.883,0,3.632,2.536,3.632,4.159a3.87,3.87,0,0,1-.055.75Zm4.689-1.149a2.283,2.283,0,0,0-2.208-2.609,2.646,2.646,0,0,0-2.463,2.609Z"/>
      <path id="Trazado_105294" data-name="Trazado 105294" d="M699.021,9347.565c0-1.132-.018-2.043-.073-2.884h1.443l.09,1.515h.038a3.407,3.407,0,0,1,3.12-1.715c2.153,0,3.759,1.807,3.759,4.49,0,3.173-1.953,4.744-4.014,4.744a3.078,3.078,0,0,1-2.72-1.387h-.036v4.8h-1.607Zm1.607,2.355a2.622,2.622,0,0,0,.072.656,2.458,2.458,0,0,0,2.391,1.879c1.7,0,2.683-1.387,2.683-3.412,0-1.77-.913-3.285-2.61-3.285a2.563,2.563,0,0,0-2.445,1.99,3.853,3.853,0,0,0-.091.639Z"/>
      <path id="Trazado_105295" data-name="Trazado 105295" d="M710.168,9343.186a.955.955,0,0,1-.967-.985.995.995,0,1,1,.986.985Zm-.767,10.329v-8.833h1.607v8.833Z"/>
      <path id="Trazado_105296" data-name="Trazado 105296" d="M714.583,9349.391a2.81,2.81,0,0,0,3.011,3.048,5.738,5.738,0,0,0,2.445-.457l.292,1.15a7.182,7.182,0,0,1-2.956.566,4.121,4.121,0,0,1-4.344-4.453c0-2.664,1.588-4.764,4.161-4.764,2.883,0,3.632,2.536,3.632,4.159a3.971,3.971,0,0,1-.054.75Zm4.689-1.149a2.282,2.282,0,0,0-2.208-2.609,2.647,2.647,0,0,0-2.463,2.609Z"/>
      <path id="Trazado_105297" data-name="Trazado 105297" d="M722.811,9347.438c0-1.041-.019-1.936-.074-2.757h1.406l.073,1.735h.055a2.668,2.668,0,0,1,2.463-1.936,3.253,3.253,0,0,1,.439.036v1.515a4.765,4.765,0,0,0-.548-.035,2.248,2.248,0,0,0-2.153,2.043,4.918,4.918,0,0,0-.055.748v4.727h-1.606Z"/>
      <path id="Trazado_105298" data-name="Trazado 105298" d="M728.849,9347.073c0-.933-.018-1.66-.074-2.392H730.2l.091,1.442h.037a3.273,3.273,0,0,1,2.92-1.643c1.223,0,3.12.73,3.12,3.76v5.273h-1.6v-5.092c0-1.422-.53-2.627-2.044-2.627a2.318,2.318,0,0,0-2.154,1.643,2.386,2.386,0,0,0-.109.747v5.329h-1.606Z"/>
      <path id="Trazado_105299" data-name="Trazado 105299" d="M745.2,9351.4a14.851,14.851,0,0,0,.127,2.117h-1.441l-.146-1.113h-.054a3.267,3.267,0,0,1-2.7,1.314,2.517,2.517,0,0,1-2.7-2.537c0-2.135,1.9-3.3,5.311-3.286v-.181a1.815,1.815,0,0,0-2.008-2.045,4.256,4.256,0,0,0-2.317.658l-.366-1.076a5.718,5.718,0,0,1,2.92-.768c2.72,0,3.377,1.844,3.377,3.613Zm-1.569-2.391c-1.752-.035-3.741.275-3.741,1.99a1.407,1.407,0,0,0,1.5,1.533,2.231,2.231,0,0,0,2.172-1.479,1.675,1.675,0,0,0,.073-.512Z"/>
    </g>
    <rect id="Rectángulo_9442" data-name="Rectángulo 9442" width="2" height="272.094" transform="translate(582.668 9091.559)" fill="red"/>
    <rect id="Rectángulo_9443" data-name="Rectángulo 9443" width="2" height="272.094" transform="translate(804.595 9091.559)" fill="red"/>
  </g>
</svg>
