<svg xmlns="http://www.w3.org/2000/svg" xmlns:xlink="http://www.w3.org/1999/xlink" width="1228" height="527" viewBox="0 0 1228 527">
  <defs>
    <clipPath id="clip-path">
      <rect id="Rectángulo_9424" data-name="Rectángulo 9424" width="1228" height="527" rx="10" transform="translate(0 0)" fill="none"/>
    </clipPath>
    <linearGradient id="linear-gradient" x1="0.549" y1="0.796" x2="0.479" y2="0.373" gradientUnits="objectBoundingBox">
      <stop offset="0.227" stop-color="#d988ad"/>
      <stop offset="0.34" stop-color="#d57ca4"/>
      <stop offset="0.598" stop-color="#ce6896"/>
      <stop offset="0.771" stop-color="#cc6191"/>
    </linearGradient>
    <linearGradient id="linear-gradient-2" x1="0.538" y1="0.743" x2="0.515" y2="0.596" xlink:href="#linear-gradient"/>
  </defs>
  <g id="Grupo_57048" data-name="Grupo 57048" transform="translate(0)" clip-path="url(#clip-path)">
    <path id="Trazado_112015" data-name="Trazado 112015" d="M2682.055-7.87c-49.082,38.811-111.864,53.919-173.274,58.7s-123.21.261-184.648,4.645-124.3,18.628-174.069,56.469c-68.355,51.968-104.3,142.177-175.824,189.274-54.855,36.121-122.863,41.647-187.726,41.788s-131.231-3.878-193.1,16.435-119.6,72.022-126.065,139.372l-2.983,36.759h288.217c15.4-16.067,30.465-32.694,46.358-49.074,49.8-51.331,118.423-90.822,190.36-99.553,43.614-5.293,87.376-2.126,130.883.312,67.189,3.764,139.3,6,199.792-31.536,67.57-41.93,100.312-123.3,168.519-164.236,38-22.8,83.062-30.534,126.877-35.252,25.624-2.76,51.5-4.715,76.994-8.6V-16.676C2689.016-13.611,2685.585-10.661,2682.055-7.87Z" transform="translate(-1464.362 -8.577)" opacity="0.17" fill="url(#linear-gradient)"/>
    <path id="Trazado_112016" data-name="Trazado 112016" d="M1864.907,521.864c57.2-63.38,136.016-112.14,218.64-122.92,50.093-6.536,100.357-2.625,150.326.385,77.171,4.648,159.995,7.411,229.474-38.939,77.608-51.773,115.215-152.243,193.554-202.785,43.64-28.155,95.4-37.7,145.727-43.526,12.549-1.454,25.15-2.731,37.748-4.085V56.465c-3.132,2.718-6.344,5.334-9.648,7.808-45.945,34.413-104.715,47.808-162.2,52.051s-115.335.232-172.846,4.118-116.352,16.516-162.944,50.069c-63.986,46.078-97.635,126.062-164.587,167.821-51.348,32.028-115.01,36.927-175.727,37.053s-122.844-3.439-180.762,14.572S1699.7,453.815,1693.653,513.533l-2.792,32.592h152.592C1850.511,538.031,1857.633,529.924,1864.907,521.864Z" transform="translate(-1464.362 -5.39)" opacity="0.17" fill="url(#linear-gradient-2)"/>
  </g>
</svg>
