<svg xmlns="http://www.w3.org/2000/svg" width="123.387" height="363.033" viewBox="0 0 123.387 363.033">
  <g id="Grupo_54985" data-name="Grupo 54985" transform="translate(-41.28 -8122.58)">
    <g id="Grupo_54992" data-name="Grupo 54992" transform="translate(41.28 8122.58)">
      <g id="Grupo_54991" data-name="Grupo 54991">
        <g id="Grupo_54986" data-name="Grupo 54986" transform="translate(0 4.768)">
          <path id="Trazado_105110" data-name="Trazado 105110" d="M121.878,8127.342s.039,22.412,10.973,29.842c0,0,24.774,6.619,30.824,9.059,0,0-2.095,24.733-7.328,38.2l-15.006,52.834s-2.559,7.78,0,18.58l8.608,32.862s3.839,16.606,3.14,31.352l-5,56.318s-.466,17.768-22.8,21.948c0,0-31.522,3.6-48.274-.812,0,0-12.445-1.511-18.842-16.374l-4.77-48.964v-25.7s2.017-19.507,6.669-32.822,7.445-22.914,4.808-35.3l-22.954-88.252s-1.259-3.521,1.707-4.741,25.591-6.562,28.5-8.187,7.794-3.251,11.632-26.707l-.116-4.8Z" transform="translate(-40.988 -8124.984)" fill="#fff"/>
          <path id="Trazado_105111" data-name="Trazado 105111" d="M100.245,8420.67c-8.155,0-16.718-.521-23.1-2.2h0c-.048,0-12.81-1.719-19.283-16.751l-.051-.2-4.768-48.964,0-25.766c.025-.262,2.082-19.8,6.706-33.041,4.59-13.13,7.4-22.656,4.786-34.944L41.578,8170.58c-.49-1.369-.712-4.366,2.1-5.52,1.275-.525,5.863-1.733,11.177-3.132,6.961-1.834,15.624-4.113,17.248-5.02l.416-.229c2.721-1.475,7.274-3.944,10.885-26.009l-.141-5.387,39.566,1.725,0,.632c0,.22.168,22.021,10.594,29.235,2.022.54,24.917,6.685,30.791,9.054l.453.182-.042.486c-.021.249-2.162,24.984-7.369,38.387l-14.986,52.777c-.034.1-2.474,7.775.009,18.244l8.6,32.847c.044.186,3.856,16.884,3.163,31.554l-5,56.344c0,.142-.739,18.31-23.335,22.537A254.278,254.278,0,0,1,100.245,8420.67Zm-41.132-19.386c6.175,14.229,18.157,15.869,18.278,15.887,16.527,4.35,47.8.849,48.115.811,21.51-4.027,22.21-21.135,22.214-21.308l5-56.357c.686-14.458-3.086-30.981-3.125-31.146l-8.6-32.845c-2.576-10.869-.1-18.626.011-18.951l15-52.81c4.752-12.242,6.93-34.046,7.259-37.586-6.642-2.53-30.05-8.793-30.292-8.855l-.2-.092c-10.185-6.923-11.162-25.963-11.253-29.758l-36.9-1.606.1,4.094c-3.724,22.828-8.444,25.388-11.567,27.08l-.4.221c-1.769.989-9.8,3.1-17.557,5.145-5.047,1.33-9.814,2.585-11.01,3.076-2.34.96-1.377,3.787-1.335,3.908l22.97,88.306c2.694,12.655-.16,22.345-4.824,35.687-4.572,13.087-6.614,32.479-6.635,32.67l0,25.636Z" transform="translate(-41.28 -8125.284)" fill="#999"/>
        </g>
        <g id="Grupo_54987" data-name="Grupo 54987" transform="translate(42.462)">
          <ellipse id="Elipse_4276" data-name="Elipse 4276" cx="18.882" cy="4.8" rx="18.882" ry="4.8" transform="translate(0.662 0.661)" fill="#fff"/>
          <path id="Trazado_105112" data-name="Trazado 105112" d="M84.905,8133.5c-9.71,0-19.544-1.877-19.544-5.462s9.834-5.46,19.544-5.46,19.543,1.874,19.543,5.46S94.617,8133.5,84.905,8133.5Zm0-9.6c-11.289,0-18.222,2.41-18.222,4.138s6.933,4.139,18.222,4.139,18.22-2.409,18.22-4.139S96.2,8123.9,84.905,8123.9Z" transform="translate(-65.361 -8122.581)" fill="#999"/>
        </g>
        <path id="Trazado_105113" data-name="Trazado 105113" d="M85.957,8133.949a56.465,56.465,0,0,1-20.946-3.9l.543-1.2c.18.079,18.227,8,38.272.675l.455,1.243A53.263,53.263,0,0,1,85.957,8133.949Z" transform="translate(-23.166 -8117.797)" fill="#999"/>
        <rect id="Rectángulo_9421" data-name="Rectángulo 9421" width="1.322" height="4.181" transform="translate(61.346 10.724)" fill="#999"/>
        <path id="Trazado_105114" data-name="Trazado 105114" d="M89.832,8157.091c-.46,0-.931-.009-1.407-.022-20.581-.7-27.423-13.176-27.7-13.706l1.167-.619c.065.121,6.8,12.327,26.58,13,19.754.712,25.9-13.388,25.966-13.532l1.218.515C115.592,8142.875,109.371,8157.091,89.832,8157.091Z" transform="translate(-26.44 -8107.594)" fill="#999"/>
        <g id="Grupo_54988" data-name="Grupo 54988" transform="translate(114.046 45.348)">
          <path id="Trazado_105115" data-name="Trazado 105115" d="M112.922,8148.463a69.258,69.258,0,0,0-5.895,22.837s-.693,4.955-.693,18.04" transform="translate(-105.671 -8148.172)" fill="#fff"/>
          <path id="Trazado_105116" data-name="Trazado 105116" d="M107.28,8189.466h-1.322c0-12.982.674-17.929.7-18.133a70.5,70.5,0,0,1,5.955-23.035l1.188.582a69.136,69.136,0,0,0-5.828,22.593C107.963,8171.567,107.28,8176.6,107.28,8189.466Z" transform="translate(-105.958 -8148.298)" fill="#999"/>
        </g>
        <g id="Grupo_54989" data-name="Grupo 54989" transform="translate(3.086 44.514)">
          <path id="Trazado_105117" data-name="Trazado 105117" d="M43.369,8147.985a75.391,75.391,0,0,1,6.112,23.68s.695,4.955.695,18.04" transform="translate(-42.771 -8147.704)" fill="#fff"/>
          <path id="Trazado_105118" data-name="Trazado 105118" d="M51.1,8189.827H49.773c0-12.865-.681-17.9-.688-17.949a75.46,75.46,0,0,0-6.055-23.488l1.2-.563a76.711,76.711,0,0,1,6.173,23.913C50.423,8171.9,51.1,8176.845,51.1,8189.827Z" transform="translate(-43.03 -8147.826)" fill="#999"/>
        </g>
        <rect id="Rectángulo_9422" data-name="Rectángulo 9422" width="10.701" height="63.527" transform="translate(56.385 299.506)" fill="#999"/>
        <g id="Grupo_54990" data-name="Grupo 54990" transform="translate(61.346 48.812)">
          <line id="Línea_188" data-name="Línea 188" y2="250.694" transform="translate(0.661)" fill="#fff"/>
          <rect id="Rectángulo_9423" data-name="Rectángulo 9423" width="1.322" height="250.693" fill="#999"/>
        </g>
      </g>
    </g>
    <path id="Trazado_105119" data-name="Trazado 105119" d="M95.787,8401.432l-1.763-.039c.011-.553,1.241-55.627,2.454-78.379,1.206-22.631-6.806-67.348-6.887-67.8a28.255,28.255,0,0,1-.9-16.047l19.761-92.955,1.726.365L90.4,8239.6a27.263,27.263,0,0,0,.89,15.17c.115.584,8.164,45.5,6.946,68.336C97.028,8345.832,95.8,8400.877,95.787,8401.432Z" transform="translate(35.619 18.04)" fill="red"/>
    <path id="Trazado_105120" data-name="Trazado 105120" d="M66.344,8401.432c-.012-.555-1.241-55.6-2.451-78.324-1.218-22.836,6.831-67.752,6.912-68.205a27.528,27.528,0,0,0,.942-15.234l-19.8-93.087,1.726-.365,19.779,93.023a28.49,28.49,0,0,1-.95,16.111c-.046.316-8.058,45.033-6.852,67.664,1.213,22.752,2.442,77.826,2.454,78.379Z" transform="translate(8.145 18.04)" fill="red"/>
  </g>
</svg>
