<svg xmlns="http://www.w3.org/2000/svg" width="396" height="313.199" viewBox="0 0 396 313.199">
  <g id="Grupo_57047" data-name="Grupo 57047" transform="translate(132.561 -7855.356)">
    <g id="Grupo_54959" data-name="Grupo 54959" transform="translate(-132.561 7855.88)">
      <g id="Grupo_54955" data-name="Grupo 54955" transform="translate(0 4.039)">
        <path id="Trazado_105049" data-name="Trazado 105049" d="M-64.23,7860.214s.033,18.984,9.295,25.278c0,0,20.987,5.606,26.111,7.673,0,0-1.773,20.951-6.208,32.361l-12.711,44.756s-2.167,6.59,0,15.737l7.292,27.837s3.252,14.065,2.66,26.559l-4.236,47.706s-.394,15.05-19.313,18.591c0,0-26.7,3.049-40.89-.688,0,0-10.544-1.278-15.963-13.869l-4.039-41.476v-21.772s1.707-16.525,5.649-27.8,6.306-19.41,4.072-29.9l-19.443-74.757s-1.068-2.984,1.444-4.017,21.677-5.557,24.14-6.935,6.6-2.754,9.854-22.623l-.1-4.065Z" transform="translate(132.75 -7858.217)" fill="#fff"/>
        <path id="Trazado_105050" data-name="Trazado 105050" d="M-82.607,8108.626c-6.911,0-14.166-.441-19.577-1.867h0c-.042,0-10.854-1.454-16.333-14.187l-.043-.17-4.04-41.476,0-21.825c.021-.222,1.764-16.777,5.682-27.989,3.885-11.123,6.267-19.193,4.052-29.6l-19.438-74.731c-.415-1.159-.6-3.7,1.776-4.675,1.08-.446,4.962-1.468,9.458-2.652,5.9-1.554,13.246-3.486,14.621-4.255l.354-.194c2.3-1.249,6.161-3.341,9.22-22.031l-.121-4.562,33.518,1.461,0,.534c0,.188.14,18.654,8.972,24.764,1.713.458,21.107,5.664,26.084,7.67l.384.153-.036.412c-.018.211-1.831,21.165-6.243,32.517l-12.695,44.707a31.209,31.209,0,0,0,.007,15.457l7.286,27.823c.039.157,3.267,14.3,2.68,26.726l-4.24,47.73c0,.118-.623,15.51-19.765,19.091A215.666,215.666,0,0,1-82.607,8108.626Zm-34.848-16.42c5.229,12.053,15.38,13.441,15.483,13.455,14,3.687,40.493.722,40.757.688,18.223-3.411,18.813-17.9,18.816-18.05l4.239-47.741c.58-12.249-2.615-26.241-2.647-26.383l-7.288-27.82c-2.182-9.208-.082-15.779.009-16.056l12.7-44.732c4.027-10.37,5.872-28.84,6.151-31.839-5.628-2.142-25.456-7.448-25.661-7.5l-.17-.078c-8.627-5.862-9.453-21.991-9.531-25.205l-31.259-1.361.085,3.466c-3.155,19.338-7.153,21.506-9.8,22.939l-.341.187c-1.5.84-8.3,2.632-14.883,4.363-4.272,1.124-8.306,2.187-9.317,2.6-1.994.82-1.168,3.207-1.131,3.31l19.458,74.8c2.282,10.719-.137,18.927-4.085,30.229-3.876,11.088-5.6,27.514-5.622,27.677l0,21.715Z" transform="translate(132.561 -7858.411)" fill="#999"/>
      </g>
      <g id="Grupo_54956" data-name="Grupo 54956" transform="translate(35.97)">
        <ellipse id="Elipse_4275" data-name="Elipse 4275" cx="15.995" cy="4.066" rx="15.995" ry="4.066" transform="translate(0.56 0.559)" fill="#fff"/>
        <path id="Trazado_105051" data-name="Trazado 105051" d="M-91.925,7864.957c-8.227,0-16.554-1.588-16.554-4.624s8.327-4.626,16.554-4.626,16.556,1.588,16.556,4.626S-83.7,7864.957-91.925,7864.957Zm0-8.13c-9.562,0-15.434,2.042-15.434,3.506s5.872,3.5,15.434,3.5,15.435-2.041,15.435-3.5S-82.361,7856.827-91.925,7856.827Z" transform="translate(108.479 -7855.707)" fill="#999"/>
      </g>
      <path id="Trazado_105052" data-name="Trazado 105052" d="M-91.085,7866.3a47.871,47.871,0,0,1-17.745-3.3l.46-1.021c.152.069,15.449,6.781,32.421.573l.385,1.053A45.109,45.109,0,0,1-91.085,7866.3Z" transform="translate(144.276 -7852.614)" fill="#999"/>
      <rect id="Rectángulo_9404" data-name="Rectángulo 9404" width="1.12" height="3.542" transform="translate(51.965 9.084)" fill="#999"/>
      <path id="Trazado_105053" data-name="Trazado 105053" d="M-88.464,7887.942q-.585,0-1.189-.019c-17.432-.6-23.228-11.161-23.465-11.61l.989-.525c.055.1,5.764,10.443,22.514,11.016,16.72.545,21.945-11.342,22-11.463l1.034.437C-66.639,7875.9-71.911,7887.942-88.464,7887.942Z" transform="translate(142.159 -7846.015)" fill="#999"/>
      <g id="Grupo_54957" data-name="Grupo 54957" transform="translate(96.608 38.413)">
        <path id="Trazado_105054" data-name="Trazado 105054" d="M-61.927,7881.588a58.665,58.665,0,0,0-4.992,19.347s-.589,4.2-.589,15.281" transform="translate(68.067 -7881.343)" fill="#fff"/>
        <path id="Trazado_105055" data-name="Trazado 105055" d="M-66.762,7916.3h-1.12c0-11,.569-15.186.593-15.357a59.783,59.783,0,0,1,5.044-19.514l1.007.493a58.629,58.629,0,0,0-4.938,19.139A131.214,131.214,0,0,0-66.762,7916.3Z" transform="translate(67.882 -7881.424)" fill="#999"/>
      </g>
      <g id="Grupo_54958" data-name="Grupo 54958" transform="translate(2.614 37.707)">
        <path id="Trazado_105056" data-name="Trazado 105056" d="M-130.472,7881.112a63.814,63.814,0,0,1,5.177,20.059s.589,4.2.589,15.281" transform="translate(130.978 -7880.874)" fill="#fff"/>
        <path id="Trazado_105057" data-name="Trazado 105057" d="M-123.979,7916.529h-1.12a130.788,130.788,0,0,0-.583-15.2,63.974,63.974,0,0,0-5.129-19.9l1.013-.478a64.967,64.967,0,0,1,5.229,20.257C-124.548,7901.343-123.979,7905.534-123.979,7916.529Z" transform="translate(130.811 -7880.953)" fill="#999"/>
      </g>
      <rect id="Rectángulo_9405" data-name="Rectángulo 9405" width="9.065" height="53.813" transform="translate(47.763 253.706)" fill="#999"/>
      <rect id="Rectángulo_9406" data-name="Rectángulo 9406" width="2.987" height="220.998" transform="translate(51.031 41.348)" fill="red"/>
    </g>
    <g id="Grupo_54962" data-name="Grupo 54962" transform="translate(-91.407 8112.597)">
      <g id="Grupo_54961" data-name="Grupo 54961">
        <g id="Grupo_54960" data-name="Grupo 54960">
          <path id="Trazado_105058" data-name="Trazado 105058" d="M-97.1,8066.914l.548-1.23s.805-11.1,1.362-19.339c-1.341-1.14-2.551-2.174-3.5-2.991Z" transform="translate(108.128 -8019.793)" fill="#b3b3b3"/>
          <path id="Trazado_105059" data-name="Trazado 105059" d="M-96.809,8049.886c1.94-5.8,7.434-8.967,7.831-9.188a6.163,6.163,0,0,0,3.658-4.9,6.406,6.406,0,0,0-.923-4.407,5.077,5.077,0,0,0-3.558-2.34,4.852,4.852,0,0,0-1.407,0A5.971,5.971,0,0,0-96,8034.265l0,.032-.018-.035-2.938,16.464-.007.006,1.736.563C-96.984,8050.516-96.832,8050.011-96.809,8049.886Zm2.538-15.373a4.221,4.221,0,0,1,3.319-3.73,3.113,3.113,0,0,1,.9,0,3.364,3.364,0,0,1,2.341,1.565,4.651,4.651,0,0,1,.66,3.2,4.226,4.226,0,0,1-3.317,3.729,3.047,3.047,0,0,1-.9,0,3.367,3.367,0,0,1-2.342-1.563A4.666,4.666,0,0,1-94.271,8034.513Z" transform="translate(107.991 -8026.876)"/>
          <path id="Trazado_105060" data-name="Trazado 105060" d="M-104.976,8033.092a6.135,6.135,0,0,0,2.506,5.708c.5.476,4.813,4.741,5.305,10.705-.054.959,2.372,24.874,2.372,24.874l.541.992,1.1-22.2-2.121-2.343.995-16.369c.015-.107.034-.215.045-.32a5.947,5.947,0,0,0-3.471-6.223h0a4.767,4.767,0,0,0-1.31-.315,5.082,5.082,0,0,0-4.012,1.426A6.4,6.4,0,0,0-104.976,8033.092Zm10.217,19.758a.923.923,0,0,1,.521,1.194.923.923,0,0,1-1.2.521.923.923,0,0,1-.521-1.194A.923.923,0,0,1-94.76,8052.85Zm-7.074-22.547a3.379,3.379,0,0,1,2.647-.964,3.272,3.272,0,0,1,.839.2,4.207,4.207,0,0,1,2.373,4.428,4.66,4.66,0,0,1-1.4,2.956,3.354,3.354,0,0,1-2.645.961,3.172,3.172,0,0,1-.841-.2,4.206,4.206,0,0,1-2.373-4.428A4.682,4.682,0,0,1-101.834,8030.3Z" transform="translate(105.009 -8027.579)"/>
        </g>
      </g>
    </g>
    <rect id="Rectángulo_9407" data-name="Rectángulo 9407" width="8.767" height="53.577" transform="translate(56.926 8113.421)" fill="#999"/>
    <g id="Grupo_54963" data-name="Grupo 54963" transform="translate(29.87 7855.356)">
      <path id="Trazado_105061" data-name="Trazado 105061" d="M30.659,7868.534s-4.351-11.819-24.093-12.663l-12.339,26.04S-20,7903.341-16.878,7917.174s4.675,32.73,4.675,32.73,6.624,27.081,1.17,40.912-10.131,28.835-10.131,28.835-4.091,8.572-.974,35.068,3.507,45.2,3.507,45.2,3.8,12.858,31.659,12.858,29.417-16.269,29.417-16.269l2.24-93.937s-2.468-14.157-2.727-23.119,2.339-28.314,4.547-32.989,3.117-8.055,3.117-11.172-1.949-7.662-7.534-13.637-14.807-17.4-15.715-32.99A42.446,42.446,0,0,1,30.659,7868.534Z" transform="translate(24.062 -7855.103)" fill="#fff"/>
      <path id="Trazado_105062" data-name="Trazado 105062" d="M13.275,8113.778c-28.093,0-32.212-12.849-32.375-13.4l-.03-.2c0-.187-.424-18.976-3.5-45.128-3.107-26.406.871-35.118,1.041-35.477.007-.051,4.708-15.086,10.111-28.786,5.307-13.456-1.134-40.192-1.2-40.462-.034-.3-1.61-19.122-4.678-32.743-3.153-13.983,10.621-34.954,11.208-35.841l12.5-26.4.494.021c20.007.854,24.577,12.649,24.76,13.151l.112.3-.145.288a41.965,41.965,0,0,0-4.209,19.741c.659,11.285,5.878,22.228,15.518,32.537,6.391,6.838,7.733,11.469,7.733,14.149,0,3.275-.983,6.818-3.187,11.487-2.1,4.45-4.735,23.673-4.475,32.65.255,8.807,2.693,22.87,2.717,23.013l-2.229,94.084C43.423,8097,41.488,8113.778,13.275,8113.778Zm-30.914-13.739c.393,1.054,5.19,12.246,30.914,12.246,26.786,0,28.612-14.959,28.677-15.594l2.237-93.884h0c-.015,0-2.471-14.169-2.729-23.08-.269-9.331,2.406-28.646,4.617-33.332,2.106-4.459,3.046-7.8,3.046-10.849,0-2.41-1.271-6.646-7.331-13.128-9.882-10.572-15.237-21.829-15.915-33.458a42.763,42.763,0,0,1,4.208-20.2c-.816-1.737-5.933-10.979-22.807-11.871l-12.127,25.589c-.194.307-14.064,21.419-11.053,34.78,3.093,13.724,4.678,32.644,4.693,32.833.254,1,6.6,27.354,1.119,41.248-5.383,13.648-10.066,28.632-10.112,28.781-.078.183-3.988,8.905-.945,34.759C-18.189,8080.033-17.68,8098.4-17.639,8100.039Z" transform="translate(23.814 -7855.355)" fill="#999"/>
    </g>
    <path id="Trazado_105063" data-name="Trazado 105063" d="M19.628,7870.678c-10.7-12.407-23.818-11.486-23.96-11.474l-.124-1.488c.569-.047,14-1.021,25.214,11.986Z" transform="translate(63.239 1.149)" fill="#999"/>
    <path id="Trazado_105064" data-name="Trazado 105064" d="M91.509,7871.186c-10.7-12.408-23.816-11.48-23.958-11.475l-.124-1.488c.568-.044,14-1.021,25.214,11.986Z" transform="translate(98.724 1.399)" fill="#999"/>
    <path id="Trazado_105065" data-name="Trazado 105065" d="M22.4,7889.1c-21.143-11.348-35.128-12.755-35.265-12.767l.136-1.487c.578.053,14.394,1.431,35.836,12.938Z" transform="translate(59.087 9.622)" fill="#999"/>
    <path id="Trazado_105066" data-name="Trazado 105066" d="M3.37,7921.092c-.92,0-12.524-.313-17.144-15.235-2.993-9.666-.088-15.92,1.91-18.79,2.36-3.386,5.888-5.682,8.992-5.846l.072,0,.072.011c.173.023,17.295,2.614,17.5,18.751.188,15.134-5.235,19.072-11.123,21.076l-.217.038Zm-6.235-38.376c-2.181.147-5.406,1.806-7.773,5.205-3.183,4.566-3.789,10.779-1.709,17.5,4.258,13.757,14.4,14.184,15.621,14.184,4.956-1.7,10.182-4.826,10-19.6C13.094,7885.506-1.556,7882.917-2.864,7882.716Z" transform="translate(58.005 12.766)" fill="#999"/>
    <path id="Trazado_105067" data-name="Trazado 105067" d="M-4.028,7884.816l-1.383-.566,2.8-6.831,1.383.566Z" transform="translate(62.768 10.892)" fill="#999"/>
    <path id="Trazado_105068" data-name="Trazado 105068" d="M29.044,8110.138H26.057V7909.929c-2.248-2.3-11.919-12.8-15.249-26.233l2.9-.718c3.486,14.071,14.768,25.151,14.883,25.262l.453.44Z" transform="translate(70.774 13.635)" fill="red"/>
    <g id="Grupo_54966" data-name="Grupo 54966" transform="translate(85.591 8113.664)">
      <g id="Grupo_54965" data-name="Grupo 54965" transform="translate(0)">
        <g id="Grupo_54964" data-name="Grupo 54964">
          <path id="Trazado_105069" data-name="Trazado 105069" d="M35.387,8073.18l.185-1.6s-3.053-12.976-5.367-22.6c-1.942-.824-3.7-1.572-5.072-2.169Z" transform="translate(-7.745 -8019.152)" fill="#b3b3b3"/>
          <path id="Trazado_105070" data-name="Trazado 105070" d="M27.915,8054.7c.139-7.333,5.288-12.915,5.662-13.311a7.383,7.383,0,0,0,2.429-6.909,7.678,7.678,0,0,0-2.632-4.708,6.091,6.091,0,0,0-4.907-1.4,5.849,5.849,0,0,0-1.609.506,7.156,7.156,0,0,0-3.613,7.673l.009.039-.033-.033,2.536,19.874-.007.008,2.187.022C27.94,8055.482,27.934,8054.851,27.915,8054.7Zm-2.6-18.486a5.057,5.057,0,0,1,2.459-5.453,3.7,3.7,0,0,1,1.034-.324,4.029,4.029,0,0,1,3.237.952,5.573,5.573,0,0,1,1.9,3.426,5.058,5.058,0,0,1-2.457,5.452,3.757,3.757,0,0,1-1.032.325,4.043,4.043,0,0,1-3.238-.948A5.6,5.6,0,0,1,25.311,8036.214Z" transform="translate(-8.728 -8028.293)"/>
          <path id="Trazado_105071" data-name="Trazado 105071" d="M13.666,8038.071a7.339,7.339,0,0,0,4.91,5.63c.739.365,7.2,3.7,9.9,10.341.281,1.115,11.616,27.591,11.616,27.591l.974.938-6.69-25.771-3.265-1.919-4.723-19.072c-.021-.129-.037-.257-.063-.383a7.128,7.128,0,0,0-6.2-5.871h0a5.678,5.678,0,0,0-1.61.109,6.089,6.089,0,0,0-4.078,3.067A7.653,7.653,0,0,0,13.666,8038.071ZM32.42,8057a1.1,1.1,0,1,1-1.18,1.023A1.1,1.1,0,0,1,32.42,8057Zm-16.161-23.246a4.044,4.044,0,0,1,2.683-2.048,3.854,3.854,0,0,1,1.032-.069,5.042,5.042,0,0,1,4.3,4.214,5.587,5.587,0,0,1-.547,3.882,4.025,4.025,0,0,1-2.681,2.045,3.788,3.788,0,0,1-1.034.072,5.041,5.041,0,0,1-4.3-4.213A5.619,5.619,0,0,1,16.259,8033.758Z" transform="translate(-13.491 -8027.678)"/>
        </g>
      </g>
    </g>
    <rect id="Rectángulo_9408" data-name="Rectángulo 9408" width="8.767" height="53.577" transform="translate(164.988 8113.421)" fill="#999"/>
    <g id="Grupo_54967" data-name="Grupo 54967" transform="translate(137.932 7855.356)">
      <path id="Trazado_105072" data-name="Trazado 105072" d="M103.007,7868.534s-4.351-11.819-24.094-12.663l-12.338,26.04s-14.223,21.431-11.105,35.264,4.675,32.73,4.675,32.73,6.624,27.081,1.17,40.912-10.131,28.835-10.131,28.835-4.091,8.572-.974,35.068,3.507,45.2,3.507,45.2,3.8,12.858,31.659,12.858,29.417-16.269,29.417-16.269l2.24-93.937s-2.468-14.157-2.727-23.119,2.338-28.314,4.547-32.989,3.117-8.055,3.117-11.172-1.949-7.662-7.534-13.637-14.807-17.4-15.716-32.99A42.458,42.458,0,0,1,103.007,7868.534Z" transform="translate(-48.286 -7855.103)" fill="#fff"/>
      <path id="Trazado_105073" data-name="Trazado 105073" d="M85.624,8113.778c-28.1,0-32.214-12.849-32.376-13.4l-.03-.2c0-.187-.426-18.976-3.5-45.128-3.107-26.406.871-35.118,1.041-35.477.007-.051,4.708-15.086,10.111-28.786,5.305-13.456-1.134-40.192-1.2-40.462-.034-.3-1.61-19.122-4.68-32.743-3.152-13.983,10.623-34.954,11.211-35.841l12.5-26.4.494.021c20.009.854,24.577,12.649,24.76,13.151l.114.3-.145.288a42.111,42.111,0,0,0-4.209,19.742c.659,11.284,5.878,22.227,15.516,32.536,6.393,6.839,7.736,11.47,7.736,14.149,0,3.272-.983,6.815-3.189,11.487-2.1,4.448-4.736,23.672-4.475,32.65.255,8.807,2.693,22.87,2.715,23.013l-2.229,94.084C115.771,8097,113.836,8113.778,85.624,8113.778Zm-30.916-13.739c.391,1.054,5.189,12.246,30.916,12.246,26.784,0,28.609-14.959,28.674-15.594l2.237-93.884h0c-.015,0-2.469-14.169-2.727-23.08-.27-9.332,2.4-28.646,4.618-33.332,2.106-4.461,3.046-7.808,3.046-10.849,0-2.41-1.273-6.645-7.332-13.128-9.882-10.572-15.237-21.829-15.916-33.458a42.838,42.838,0,0,1,4.209-20.2c-.816-1.737-5.934-10.979-22.808-11.871L67.5,7882.483c-.194.307-14.064,21.419-11.053,34.78,3.093,13.724,4.678,32.644,4.692,32.833.254,1,6.6,27.354,1.119,41.248-5.382,13.648-10.064,28.632-10.111,28.781-.078.183-3.988,8.905-.945,34.759C54.159,8080.033,54.667,8098.4,54.709,8100.039Z" transform="translate(-48.534 -7855.355)" fill="#999"/>
    </g>
    <path id="Trazado_105074" data-name="Trazado 105074" d="M94.747,7889.1c-21.146-11.348-35.129-12.755-35.268-12.767l.137-1.487c.578.053,14.394,1.431,35.836,12.938Z" transform="translate(94.801 9.622)" fill="#999"/>
    <path id="Trazado_105075" data-name="Trazado 105075" d="M75.718,7921.092c-.922,0-12.524-.313-17.144-15.235-2.995-9.666-.088-15.92,1.909-18.79,2.361-3.386,5.889-5.682,8.993-5.846l.072,0,.072.011c.173.023,17.295,2.614,17.5,18.751.188,15.134-5.235,19.072-11.125,21.076l-.215.038Zm-6.234-38.376c-2.181.147-5.406,1.806-7.773,5.205-3.183,4.566-3.789,10.779-1.71,17.5,4.26,13.757,14.4,14.184,15.621,14.184,4.957-1.7,10.184-4.826,10-19.6C85.441,7885.506,70.792,7882.917,69.484,7882.716Z" transform="translate(93.719 12.766)" fill="#999"/>
    <rect id="Rectángulo_9409" data-name="Rectángulo 9409" width="7.385" height="1.495" transform="translate(165.419 7895.139) rotate(-67.638)" fill="#999"/>
    <path id="Trazado_105076" data-name="Trazado 105076" d="M101.393,8110.138H98.406V7909.929c-2.248-2.3-11.922-12.8-15.25-26.233l2.9-.718c3.486,14.071,14.771,25.151,14.884,25.262l.454.44Z" transform="translate(106.489 13.635)" fill="red"/>
    <g id="Grupo_54970" data-name="Grupo 54970" transform="translate(193.653 8113.664)">
      <g id="Grupo_54969" data-name="Grupo 54969">
        <g id="Grupo_54968" data-name="Grupo 54968">
          <path id="Trazado_105077" data-name="Trazado 105077" d="M107.734,8073.18l.187-1.6s-3.053-12.976-5.367-22.6c-1.942-.824-3.7-1.572-5.074-2.169Z" transform="translate(-80.092 -8019.152)" fill="#b3b3b3"/>
          <path id="Trazado_105078" data-name="Trazado 105078" d="M100.263,8054.7c.139-7.333,5.288-12.915,5.662-13.311a7.387,7.387,0,0,0,2.429-6.909,7.673,7.673,0,0,0-2.633-4.708,6.086,6.086,0,0,0-4.905-1.4,5.875,5.875,0,0,0-1.61.506,7.155,7.155,0,0,0-3.612,7.673l.009.039-.033-.033,2.536,19.874-.007.008,2.185.022C100.288,8055.482,100.282,8054.851,100.263,8054.7Zm-2.6-18.486a5.057,5.057,0,0,1,2.459-5.453,3.707,3.707,0,0,1,1.032-.324,4.027,4.027,0,0,1,3.237.952,5.567,5.567,0,0,1,1.9,3.426,5.058,5.058,0,0,1-2.457,5.452,3.757,3.757,0,0,1-1.032.325,4.041,4.041,0,0,1-3.238-.948A5.589,5.589,0,0,1,97.659,8036.214Z" transform="translate(-81.075 -8028.293)"/>
          <path id="Trazado_105079" data-name="Trazado 105079" d="M86.014,8038.071a7.34,7.34,0,0,0,4.908,5.63c.741.365,7.2,3.7,9.9,10.341.281,1.115,11.616,27.591,11.616,27.591l.974.938-6.69-25.771-3.265-1.919-4.723-19.072c-.022-.129-.037-.257-.063-.383a7.131,7.131,0,0,0-6.2-5.871h0a5.678,5.678,0,0,0-1.61.109,6.089,6.089,0,0,0-4.078,3.067A7.645,7.645,0,0,0,86.014,8038.071ZM104.768,8057a1.1,1.1,0,1,1-1.181,1.023A1.107,1.107,0,0,1,104.768,8057Zm-16.161-23.246a4.045,4.045,0,0,1,2.681-2.048,3.869,3.869,0,0,1,1.034-.069,5.04,5.04,0,0,1,4.3,4.214,5.571,5.571,0,0,1-.547,3.882,4.019,4.019,0,0,1-2.68,2.045,3.792,3.792,0,0,1-1.034.072,5.041,5.041,0,0,1-4.3-4.213A5.6,5.6,0,0,1,88.607,8033.758Z" transform="translate(-85.839 -8027.678)"/>
        </g>
      </g>
    </g>
    <path id="Trazado_105080" data-name="Trazado 105080" d="M148.551,7967.064V7949.92h-3.767s-.974-.13-1.071-.682-4.027-6.721-7.988-7.177-11.852-2.435-11.852-2.435-3.8-1.4-4.739,1.655,1.558,2.987,6.851,4.514l4.708.746s.714.943-.586.943-27.892-.423-27.892-.423-2.076.323-2.045,3.344,2.987,2.4,2.987,2.4l14.937.032a4.629,4.629,0,0,0-2.824,4.252,2.377,2.377,0,0,0,2.857,2.534s-3.41,4.188,2.012,6.234c0,0-1.234,5.715,2.826,5.877s13.053,0,13.053,0,5.455-.812,7.4-4.578Z" transform="translate(114.888 41.444)"/>
    <path id="Trazado_105081" data-name="Trazado 105081" d="M92.054,7870.678c-10.7-12.407-23.812-11.486-23.96-11.474l-.124-1.488c.577-.047,14-1.021,25.216,11.986Z" transform="translate(98.993 1.149)" fill="#999"/>
  </g>
</svg>
