<svg xmlns="http://www.w3.org/2000/svg" width="124.611" height="366.634" viewBox="0 0 124.611 366.634">
  <g id="Grupo_55043" data-name="Grupo 55043" transform="translate(-577.537 -8599.376)">
    <g id="Grupo_55042" data-name="Grupo 55042" transform="translate(577.537 8599.376)">
      <g id="Grupo_55039" data-name="Grupo 55039">
        <g id="Grupo_55038" data-name="Grupo 55038">
          <g id="Grupo_55033" data-name="Grupo 55033" transform="translate(0 4.819)">
            <path id="Trazado_105300" data-name="Trazado 105300" d="M658.929,8604.155s.039,22.633,11.082,30.139c0,0,25.022,6.683,31.13,9.146,0,0-2.114,24.98-7.4,38.583l-15.154,53.358s-2.584,7.856,0,18.763l8.692,33.19s3.877,16.771,3.172,31.66l-5.05,56.881s-.47,17.941-23.026,22.162c0,0-31.835,3.638-48.751-.819,0,0-12.569-1.525-19.029-16.536l-4.817-49.451v-25.954s2.035-19.7,6.735-33.148,7.518-23.145,4.856-35.652l-23.182-89.127s-1.272-3.557,1.724-4.787,25.843-6.628,28.781-8.269,7.869-3.283,11.746-26.973l-.117-4.848Z" transform="translate(-577.239 -8601.779)" fill="#fff"/>
            <path id="Trazado_105301" data-name="Trazado 105301" d="M637.087,8900.393c-8.238,0-16.885-.525-23.335-2.226h0c-.048,0-12.937-1.734-19.473-16.916l-.052-.2-4.815-49.45,0-26.021c.025-.267,2.1-20,6.772-33.371,4.634-13.26,7.474-22.883,4.833-35.29l-23.175-89.1c-.495-1.38-.719-4.409,2.117-5.574,1.287-.53,5.921-1.748,11.286-3.161,7.032-1.853,15.781-4.155,17.421-5.071l.42-.23c2.748-1.489,7.346-3.982,10.993-26.268l-.142-5.435,39.959,1.735,0,.638c0,.223.169,22.241,10.7,29.526,2.043.549,25.166,6.753,31.1,9.145l.458.185-.043.49c-.021.251-2.183,25.232-7.444,38.769l-15.133,53.3c-.034.1-2.5,7.852.007,18.424l8.687,33.174c.046.188,3.895,17.054,3.195,31.866l-5.056,56.9c0,.144-.742,18.491-23.563,22.762C662.571,8899.028,650.36,8900.393,637.087,8900.393Zm-41.542-19.572c6.252,14.4,18.335,16.025,18.458,16.04,16.695,4.39,48.281.857,48.6.819,21.685-4.061,22.411-20.81,22.431-21.519l5.054-56.917c.691-14.6-3.118-31.289-3.155-31.456l-8.687-33.169c-2.6-10.979-.1-18.812.011-19.14l15.145-53.334c4.8-12.363,7-34.382,7.333-37.961-6.708-2.551-30.35-8.875-30.594-8.939l-.2-.093c-10.286-6.994-11.271-26.222-11.363-30.052l-37.266-1.623.1,4.133c-3.761,23.056-8.528,25.641-11.684,27.348l-.406.224c-1.786,1-9.892,3.134-17.731,5.2-5.1,1.343-9.914,2.61-11.119,3.106-2.363.972-1.392,3.827-1.348,3.949l23.2,89.179c2.721,12.781-.164,22.567-4.872,36.042-4.618,13.215-6.68,32.8-6.7,32.994l0,25.89Z" transform="translate(-577.537 -8602.084)" fill="#999"/>
          </g>
          <g id="Grupo_55034" data-name="Grupo 55034" transform="translate(42.883)">
            <ellipse id="Elipse_4277" data-name="Elipse 4277" cx="19.07" cy="4.847" rx="19.07" ry="4.847" transform="translate(0.668 0.668)" fill="#fff"/>
            <path id="Trazado_105302" data-name="Trazado 105302" d="M621.356,8610.406c-9.809,0-19.738-1.895-19.738-5.515s9.93-5.516,19.738-5.516,19.736,1.9,19.736,5.516S631.165,8610.406,621.356,8610.406Zm0-9.694c-11.4,0-18.4,2.435-18.4,4.18s7,4.18,18.4,4.18,18.4-2.436,18.4-4.18S632.759,8600.712,621.356,8600.712Z" transform="translate(-601.618 -8599.376)" fill="#999"/>
          </g>
          <path id="Trazado_105303" data-name="Trazado 105303" d="M622.422,8610.8a57.024,57.024,0,0,1-21.154-3.935l.549-1.219c.182.085,18.408,8.083,38.652.686l.459,1.256A53.758,53.758,0,0,1,622.422,8610.8Z" transform="translate(-559.008 -8594.484)" fill="#999"/>
          <rect id="Rectángulo_9445" data-name="Rectángulo 9445" width="1.336" height="4.221" transform="translate(61.954 10.832)" fill="#999"/>
          <path id="Trazado_105304" data-name="Trazado 105304" d="M626.378,8634.035c-.465,0-.94-.01-1.423-.025-20.783-.708-27.693-13.3-27.976-13.841l1.179-.628c.066.126,6.872,12.454,26.844,13.132q.7.026,1.371.026c18.823,0,24.792-13.548,24.851-13.689l1.232.52C652.393,8619.677,646.109,8634.035,626.378,8634.035Z" transform="translate(-562.357 -8584.046)" fill="#999"/>
          <g id="Grupo_55035" data-name="Grupo 55035" transform="translate(115.178 45.798)">
            <path id="Trazado_105305" data-name="Trazado 105305" d="M649.245,8625.26a69.944,69.944,0,0,0-5.953,23.062s-.7,5-.7,18.222" transform="translate(-641.922 -8624.966)" fill="#fff"/>
            <path id="Trazado_105306" data-name="Trazado 105306" d="M643.551,8666.671h-1.336c0-13.111.68-18.107.709-18.313a71.226,71.226,0,0,1,6.012-23.263l1.2.586a69.9,69.9,0,0,0-5.886,22.818C644.24,8648.594,643.551,8653.677,643.551,8666.671Z" transform="translate(-642.215 -8625.095)" fill="#999"/>
          </g>
          <g id="Grupo_55036" data-name="Grupo 55036" transform="translate(3.117 44.956)">
            <path id="Trazado_105307" data-name="Trazado 105307" d="M579.626,8624.782a76.087,76.087,0,0,1,6.17,23.911s.7,5,.7,18.223" transform="translate(-579.022 -8624.497)" fill="#fff"/>
            <path id="Trazado_105308" data-name="Trazado 105308" d="M587.431,8667.04h-1.336c0-12.994-.686-18.077-.693-18.128a76.319,76.319,0,0,0-6.115-23.721l1.207-.57a77.561,77.561,0,0,1,6.235,24.148C586.754,8648.933,587.431,8653.928,587.431,8667.04Z" transform="translate(-579.287 -8624.621)" fill="#999"/>
          </g>
          <rect id="Rectángulo_9446" data-name="Rectángulo 9446" width="10.807" height="64.158" transform="translate(56.943 302.477)" fill="#999"/>
          <g id="Grupo_55037" data-name="Grupo 55037" transform="translate(61.954 49.297)">
            <line id="Línea_189" data-name="Línea 189" y2="253.18" transform="translate(0.667)" fill="#fff"/>
            <rect id="Rectángulo_9447" data-name="Rectángulo 9447" width="1.336" height="253.182" fill="#999"/>
          </g>
        </g>
      </g>
      <g id="Grupo_55040" data-name="Grupo 55040" transform="translate(83.323 42.133)">
        <path id="Trazado_105309" data-name="Trazado 105309" d="M645.391,8623.114l-19.977,93.947a28.1,28.1,0,0,0,.93,15.793s8.208,45.45,6.968,68.676-2.477,79.129-2.477,79.129" transform="translate(-624.029 -8622.976)" fill="#fff"/>
        <path id="Trazado_105310" data-name="Trazado 105310" d="M631.8,8880.736l-1.336-.031c.013-.558,1.256-56.178,2.481-79.146,1.22-22.889-6.877-68.071-6.959-68.524a28.339,28.339,0,0,1-.912-16.1l19.961-93.9,1.307.277-19.973,93.947a27.718,27.718,0,0,0,.9,15.436c.109.557,8.234,45.891,7,68.93C633.055,8824.579,631.812,8880.175,631.8,8880.736Z" transform="translate(-624.327 -8623.037)" fill="#999"/>
      </g>
      <g id="Grupo_55041" data-name="Grupo 55041" transform="translate(19.217 42.133)">
        <path id="Trazado_105311" data-name="Trazado 105311" d="M588.7,8623.114l19.975,93.947a28.1,28.1,0,0,1-.93,15.793s-8.206,45.45-6.968,68.676,2.479,79.129,2.479,79.129" transform="translate(-588.041 -8622.976)" fill="#fff"/>
        <path id="Trazado_105312" data-name="Trazado 105312" d="M602.87,8880.734c-.013-.56-1.252-56.155-2.474-79.107-1.232-23.039,6.9-68.373,6.975-68.829a27.958,27.958,0,0,0,.947-15.489l-19.991-93.994,1.309-.277,19.975,93.946a28.532,28.532,0,0,1-.951,16.153c-.055.351-8.154,45.533-6.932,68.422,1.225,22.969,2.465,78.589,2.477,79.148Z" transform="translate(-588.328 -8623.037)" fill="#999"/>
      </g>
    </g>
    <path id="Trazado_105313" data-name="Trazado 105313" d="M629.9,8690.534a223.176,223.176,0,0,1-38.386-3.423l.675-3.5c.435.085,43.83,8.271,74.615-1.458l1.076,3.394C655.882,8689.344,642.275,8690.534,629.9,8690.534Z" transform="translate(10.912 64.632)" fill="red"/>
  </g>
</svg>
