<svg xmlns="http://www.w3.org/2000/svg" width="124.611" height="366.632" viewBox="0 0 124.611 366.632">
  <g id="Grupo_57739" data-name="Grupo 57739" transform="translate(-738 -9726)">
    <g id="Grupo_55066" data-name="Grupo 55066" transform="translate(660.616 1126.624)">
      <g id="Grupo_55076" data-name="Grupo 55076" transform="translate(77.384 8599.376)">
        <g id="Grupo_55075" data-name="Grupo 55075">
          <g id="Grupo_55072" data-name="Grupo 55072">
            <g id="Grupo_55071" data-name="Grupo 55071">
              <g id="Grupo_55066-2" data-name="Grupo 55066" transform="translate(0 4.817)">
                <path id="Trazado_105344" data-name="Trazado 105344" d="M158.776,8604.154s.039,22.634,11.082,30.14c0,0,25.022,6.683,31.131,9.146,0,0-2.116,24.979-7.4,38.582l-15.154,53.36s-2.584,7.855,0,18.763l8.692,33.188s3.877,16.77,3.173,31.661l-5.052,56.879s-.47,17.941-23.025,22.164c0,0-31.835,3.636-48.75-.821,0,0-12.569-1.525-19.029-16.535l-4.817-49.45v-25.955s2.035-19.7,6.735-33.149,7.518-23.142,4.856-35.65l-23.182-89.127s-1.271-3.557,1.724-4.788,25.844-6.625,28.781-8.267,7.869-3.283,11.746-26.973l-.118-4.849Z" transform="translate(-77.086 -8601.775)" fill="#fff"/>
                <path id="Trazado_105345" data-name="Trazado 105345" d="M136.933,8900.391c-8.236,0-16.882-.525-23.332-2.226h0c-.05,0-12.939-1.734-19.474-16.916l-.05-.2L89.26,8831.6l0-26.021c.023-.267,2.1-20,6.772-33.371,4.634-13.26,7.474-22.882,4.831-35.29l-23.173-89.1c-.5-1.381-.719-4.409,2.116-5.574,1.289-.53,5.921-1.749,11.286-3.161,7.03-1.851,15.783-4.154,17.423-5.071l.422-.231c2.748-1.488,7.346-3.982,10.991-26.266l-.144-5.438,39.962,1.737,0,.64c0,.223.167,22.241,10.7,29.525,2.041.546,25.162,6.753,31.1,9.145l.456.184-.041.49c-.023.253-2.185,25.233-7.445,38.769l-15.135,53.3c-.032.1-2.5,7.852.009,18.423l8.688,33.174c.045.188,3.895,17.053,3.195,31.866l-5.056,56.9c0,.143-.744,18.489-23.565,22.761C162.419,8899.025,150.207,8900.391,136.933,8900.391Zm-41.538-19.572c6.251,14.4,18.335,16.025,18.456,16.041,16.7,4.389,48.28.856,48.594.818,21.727-4.067,22.431-21.343,22.434-21.517l5.054-56.919c.691-14.6-3.118-31.288-3.157-31.455l-8.687-33.169c-2.6-10.977-.1-18.811.009-19.14l15.147-53.332c4.8-12.365,7-34.383,7.333-37.962-6.708-2.551-30.35-8.876-30.592-8.94l-.2-.092c-10.287-6.994-11.272-26.222-11.363-30.053l-37.268-1.622.1,4.132c-3.763,23.057-8.528,25.641-11.684,27.35l-.406.223c-1.788,1-9.894,3.134-17.735,5.2-5.1,1.341-9.912,2.608-11.119,3.1-2.377.977-1.391,3.823-1.346,3.947l23.2,89.181c2.719,12.78-.164,22.565-4.872,36.04-4.618,13.217-6.68,32.8-6.7,32.994l0,25.89Z" transform="translate(-77.384 -8602.081)" fill="#999"/>
              </g>
              <g id="Grupo_55067" data-name="Grupo 55067" transform="translate(42.884)">
                <ellipse id="Elipse_4280" data-name="Elipse 4280" cx="19.07" cy="4.847" rx="19.07" ry="4.847" transform="translate(0.668 0.668)" fill="#fff"/>
                <path id="Trazado_105346" data-name="Trazado 105346" d="M121.2,8610.406c-9.808,0-19.738-1.895-19.738-5.514s9.93-5.518,19.738-5.518,19.738,1.9,19.738,5.518S131.012,8610.406,121.2,8610.406Zm0-9.7c-11.4,0-18.4,2.436-18.4,4.182s7,4.178,18.4,4.178,18.4-2.434,18.4-4.178S132.6,8600.711,121.2,8600.711Z" transform="translate(-101.466 -8599.375)" fill="#999"/>
              </g>
              <path id="Trazado_105347" data-name="Trazado 105347" d="M122.272,8610.8a57.017,57.017,0,0,1-21.157-3.936l.55-1.219c.18.084,18.41,8.084,38.653.688l.459,1.256A53.786,53.786,0,0,1,122.272,8610.8Z" transform="translate(-58.856 -8594.483)" fill="#999"/>
              <rect id="Rectángulo_9456" data-name="Rectángulo 9456" width="1.336" height="4.221" transform="translate(61.954 10.832)" fill="#999"/>
              <path id="Trazado_105348" data-name="Trazado 105348" d="M126.226,8634.035q-.7,0-1.423-.025c-20.783-.707-27.694-13.3-27.978-13.84l1.179-.627c.066.125,6.876,12.453,26.845,13.131s26.161-13.52,26.222-13.664l1.232.52C152.24,8619.678,145.957,8634.035,126.226,8634.035Z" transform="translate(-62.205 -8584.047)" fill="#999"/>
              <g id="Grupo_55068" data-name="Grupo 55068" transform="translate(115.178 45.797)">
                <path id="Trazado_105349" data-name="Trazado 105349" d="M149.093,8625.26a69.936,69.936,0,0,0-5.953,23.063s-.7,5-.7,18.219" transform="translate(-141.77 -8624.966)" fill="#fff"/>
                <path id="Trazado_105350" data-name="Trazado 105350" d="M143.4,8666.67h-1.336c0-13.11.678-18.106.709-18.312a71.167,71.167,0,0,1,6.014-23.265l1.2.588A69.805,69.805,0,0,0,144.1,8648.5C144.086,8648.593,143.4,8653.677,143.4,8666.67Z" transform="translate(-142.063 -8625.094)" fill="#999"/>
              </g>
              <g id="Grupo_55069" data-name="Grupo 55069" transform="translate(3.118 44.956)">
                <path id="Trazado_105351" data-name="Trazado 105351" d="M79.474,8624.781a76.132,76.132,0,0,1,6.172,23.913s.7,5,.7,18.22" transform="translate(-78.87 -8624.496)" fill="#fff"/>
                <path id="Trazado_105352" data-name="Trazado 105352" d="M87.278,8667.039H85.943c0-12.993-.687-18.077-.695-18.127a76.222,76.222,0,0,0-6.113-23.721l1.207-.57a77.483,77.483,0,0,1,6.233,24.148C86.6,8648.933,87.278,8653.929,87.278,8667.039Z" transform="translate(-79.135 -8624.621)" fill="#999"/>
              </g>
              <rect id="Rectángulo_9457" data-name="Rectángulo 9457" width="10.807" height="64.157" transform="translate(56.944 302.475)" fill="#999"/>
              <g id="Grupo_55070" data-name="Grupo 55070" transform="translate(61.954 49.296)">
                <line id="Línea_192" data-name="Línea 192" y2="253.179" transform="translate(0.668)" fill="#fff"/>
                <rect id="Rectángulo_9458" data-name="Rectángulo 9458" width="1.336" height="253.18" fill="#999"/>
              </g>
            </g>
          </g>
          <g id="Grupo_55073" data-name="Grupo 55073" transform="translate(83.322 42.133)">
            <path id="Trazado_105353" data-name="Trazado 105353" d="M145.239,8623.114l-19.977,93.946a28.1,28.1,0,0,0,.93,15.794s8.208,45.447,6.968,68.674-2.477,79.13-2.477,79.13" transform="translate(-123.875 -8622.976)" fill="#fff"/>
            <path id="Trazado_105354" data-name="Trazado 105354" d="M131.649,8880.732l-1.336-.027c.012-.561,1.252-56.18,2.479-79.148,1.22-22.887-6.879-68.07-6.961-68.523a28.328,28.328,0,0,1-.91-16.1l19.962-93.895,1.307.277-19.977,93.945a27.731,27.731,0,0,0,.906,15.436c.109.557,8.234,45.893,7,68.932C132.9,8824.578,131.662,8880.174,131.649,8880.732Z" transform="translate(-124.174 -8623.037)" fill="#999"/>
          </g>
          <g id="Grupo_55074" data-name="Grupo 55074" transform="translate(19.219 42.133)">
            <path id="Trazado_105355" data-name="Trazado 105355" d="M88.544,8623.114l19.975,93.946a28.1,28.1,0,0,1-.93,15.794s-8.206,45.447-6.968,68.674,2.479,79.13,2.479,79.13" transform="translate(-87.89 -8622.976)" fill="#fff"/>
            <path id="Trazado_105356" data-name="Trazado 105356" d="M102.719,8880.732c-.012-.559-1.252-56.154-2.477-79.105-1.229-23.039,6.9-68.375,6.977-68.83a27.912,27.912,0,0,0,.946-15.49l-19.987-93.992,1.307-.277,19.975,93.945a28.509,28.509,0,0,1-.951,16.152c-.055.352-8.152,45.535-6.934,68.422,1.229,22.969,2.468,78.588,2.481,79.148Z" transform="translate(-88.177 -8623.037)" fill="#999"/>
          </g>
        </g>
        <path id="Trazado_105357" data-name="Trazado 105357" d="M132.061,8725.889a353.08,353.08,0,0,1-47.771-3.26l.484-3.529c57.944,7.93,99.358-1.2,99.771-1.293l.785,3.477C185.039,8721.35,164.424,8725.889,132.061,8725.889Z" transform="translate(-71.992 -8506.909)" fill="red"/>
      </g>
      <path id="Trazado_105358" data-name="Trazado 105358" d="M129.723,8688.894a228.7,228.7,0,0,1-38.329-3.339l.253-1.312c.438.082,44.1,8.326,75.159-1.492l.4,1.273C155.5,8687.729,142.027,8688.894,129.723,8688.894Z" transform="translate(10.938 65.096)" fill="#999"/>
    </g>
  </g>
</svg>
