<svg xmlns="http://www.w3.org/2000/svg" width="708" height="318.36" viewBox="0 0 708 318.36">
  <g id="Grupo_54954" data-name="Grupo 54954" transform="translate(-171.68 -7827.189)">
    <g id="Grupo_54934" data-name="Grupo 54934" transform="translate(171.68 7967.065)">
      <rect id="Rectángulo_9392" data-name="Rectángulo 9392" width="172.579" height="6.072" transform="translate(0 19.449)" fill="#eb792a"/>
      <g id="Grupo_54933" data-name="Grupo 54933" transform="translate(155.524)">
        <path id="Trazado_105023" data-name="Trazado 105023" d="M274.132,7964.3l9.553-22.485-9.553-22.485,53.3,22.485Z" transform="translate(-274.132 -7919.333)" fill="#eb792a"/>
      </g>
    </g>
    <g id="Grupo_54936" data-name="Grupo 54936" transform="translate(538.445 7967.065)">
      <rect id="Rectángulo_9393" data-name="Rectángulo 9393" width="172.576" height="6.072" transform="translate(0 19.449)" fill="#eb792a"/>
      <g id="Grupo_54935" data-name="Grupo 54935" transform="translate(155.523)">
        <path id="Trazado_105024" data-name="Trazado 105024" d="M515.741,7964.3l9.553-22.485-9.553-22.485,53.3,22.485Z" transform="translate(-515.741 -7919.333)" fill="#eb792a"/>
      </g>
    </g>
    <g id="Grupo_54937" data-name="Grupo 54937" transform="translate(419.696 7836.757)">
      <path id="Trazado_105025" data-name="Trazado 105025" d="M403.716,7835.3s.033,19.108,9.34,25.444c0,0,21.087,5.642,26.234,7.72,0,0-1.782,21.089-6.236,32.572l-12.773,45.045s-2.177,6.633,0,15.841l7.327,28.017s3.267,14.157,2.672,26.73l-4.256,48.015s-.4,15.148-19.4,18.711c0,0-26.828,3.069-41.085-.692,0,0-10.593-1.286-16.038-13.959L345.439,8027v-21.913s1.717-16.631,5.676-27.982,6.336-19.537,4.093-30.1l-19.537-75.242s-1.072-3,1.453-4.042,21.78-5.593,24.255-6.979,6.634-2.773,9.9-22.771l-.1-4.093Z" transform="translate(-334.864 -7833.289)" fill="#fff"/>
      <path id="Trazado_105026" data-name="Trazado 105026" d="M385.258,8085.338c-6.943,0-14.233-.444-19.669-1.879h0c-.042,0-10.908-1.467-16.417-14.283l-.042-.17-4.059-41.745,0-21.967c.021-.227,1.77-16.888,5.708-28.175,3.906-11.193,6.3-19.315,4.073-29.789l-19.531-75.216c-.419-1.166-.607-3.726,1.787-4.71,1.087-.448,4.99-1.478,9.51-2.669,5.926-1.562,13.3-3.507,14.684-4.281l.357-.2c2.315-1.257,6.186-3.361,9.26-22.171l-.121-4.6,33.689,1.469,0,.543c0,.188.141,18.772,9.011,24.922,1.729.464,21.208,5.7,26.208,7.719l.389.158-.033.418c-.018.212-1.841,21.3-6.275,32.729l-12.756,44.994a31.533,31.533,0,0,0,.008,15.554L428.357,7990c.036.158,3.282,14.394,2.691,26.9l-4.26,48.04c0,.12-.627,15.611-19.866,19.22A216.773,216.773,0,0,1,385.258,8085.338Zm-35.005-16.531c5.252,12.125,15.449,13.524,15.55,13.538,14.061,3.7,40.683.723,40.95.692,18.271-3.428,18.886-17.562,18.9-18.161l4.26-48.05c.581-12.329-2.629-26.412-2.661-26.553l-7.323-28c-2.194-9.268-.08-15.886.011-16.161l12.765-45.024c4.045-10.434,5.9-29.008,6.18-32.04-5.659-2.156-25.574-7.492-25.777-7.547l-.175-.08c-8.666-5.9-9.5-22.122-9.579-25.367l-31.394-1.37.085,3.484c-3.171,19.464-7.189,21.646-9.847,23.092l-.343.188c-1.507.844-8.341,2.646-14.951,4.389-4.294,1.132-8.351,2.2-9.368,2.62-2,.822-1.167,3.223-1.131,3.325l19.55,75.286c2.294,10.79-.138,19.051-4.1,30.427-3.894,11.162-5.632,27.693-5.648,27.857l0,21.854Z" transform="translate(-335.062 -7833.493)" fill="#999"/>
    </g>
    <g id="Grupo_54938" data-name="Grupo 54938" transform="translate(455.836 7832.691)">
      <ellipse id="Elipse_4273" data-name="Elipse 4273" cx="16.071" cy="4.092" rx="16.071" ry="4.092" transform="translate(0.57 0.57)" fill="#fff"/>
      <path id="Trazado_105027" data-name="Trazado 105027" d="M375.51,7840.138c-8.269,0-16.64-1.6-16.64-4.662s8.372-4.662,16.64-4.662,16.64,1.6,16.64,4.662S383.779,7840.138,375.51,7840.138Zm0-8.186c-9.6,0-15.5,2.053-15.5,3.523s5.9,3.523,15.5,3.523,15.5-2.053,15.5-3.523S385.115,7831.952,375.51,7831.952Z" transform="translate(-358.87 -7830.813)" fill="#999"/>
    </g>
    <path id="Trazado_105028" data-name="Trazado 105028" d="M376.358,7841.38a48.012,48.012,0,0,1-17.832-3.321l.469-1.038c.153.071,15.514,6.822,32.569.578l.392,1.07A45.269,45.269,0,0,1,376.358,7841.38Z" transform="translate(96.788 5.093)" fill="#999"/>
    <rect id="Rectángulo_9394" data-name="Rectángulo 9394" width="1.139" height="3.564" transform="translate(471.908 7841.842)" fill="#999"/>
    <path id="Trazado_105029" data-name="Trazado 105029" d="M379.066,7862.952q-.59,0-1.2-.021c-17.519-.6-23.344-11.234-23.582-11.687l1.005-.533c.056.1,5.793,10.508,22.617,11.081,16.851.611,22.043-11.409,22.093-11.53l1.05.441C401,7850.827,395.7,7862.952,379.066,7862.952Z" transform="translate(94.591 11.951)" fill="#999"/>
    <rect id="Rectángulo_9395" data-name="Rectángulo 9395" width="98.011" height="1.518" transform="translate(423.736 7873.575)" fill="red"/>
    <g id="Grupo_54939" data-name="Grupo 54939" transform="translate(516.765 7871.357)">
      <path id="Trazado_105030" data-name="Trazado 105030" d="M404.989,7856.45a59.11,59.11,0,0,0-5.016,19.47s-.592,4.226-.592,15.381" transform="translate(-398.813 -7856.199)" fill="#fff"/>
      <path id="Trazado_105031" data-name="Trazado 105031" d="M400.146,7891.386h-1.138c0-11.069.571-15.285.6-15.459a60.184,60.184,0,0,1,5.069-19.642l1.023.5a59.053,59.053,0,0,0-4.959,19.262A131.573,131.573,0,0,0,400.146,7891.386Z" transform="translate(-399.007 -7856.285)" fill="#999"/>
    </g>
    <g id="Grupo_54940" data-name="Grupo 54940" transform="translate(422.323 7870.646)">
      <path id="Trazado_105032" data-name="Trazado 105032" d="M337.132,7855.977a64.353,64.353,0,0,1,5.2,20.188s.591,4.226.591,15.381" transform="translate(-336.617 -7855.734)" fill="#fff"/>
      <path id="Trazado_105033" data-name="Trazado 105033" d="M343.67,7891.628h-1.139a132.5,132.5,0,0,0-.584-15.3,64.412,64.412,0,0,0-5.154-20.022l1.029-.487a65.572,65.572,0,0,1,5.255,20.391C343.1,7876.343,343.67,7880.559,343.67,7891.628Z" transform="translate(-336.793 -7855.817)" fill="#999"/>
    </g>
    <rect id="Rectángulo_9396" data-name="Rectángulo 9396" width="9.108" height="54.162" transform="translate(467.692 8088.048)" fill="#999"/>
    <g id="Grupo_54942" data-name="Grupo 54942" transform="translate(517.319 7827.189)">
      <rect id="Rectángulo_9397" data-name="Rectángulo 9397" width="1.518" height="33.309" transform="translate(4.862)"/>
      <g id="Grupo_54941" data-name="Grupo 54941" transform="translate(0 29.046)">
        <path id="Trazado_105034" data-name="Trazado 105034" d="M399.372,7846.323l5.621,2.389,5.621-2.389-5.621,13.326Z" transform="translate(-399.372 -7846.323)"/>
      </g>
    </g>
    <g id="Grupo_54944" data-name="Grupo 54944" transform="translate(466.427 7880.649)">
      <rect id="Rectángulo_9398" data-name="Rectángulo 9398" width="1.518" height="33.31" transform="translate(4.862 9.061)"/>
      <g id="Grupo_54943" data-name="Grupo 54943">
        <path id="Trazado_105035" data-name="Trazado 105035" d="M377.089,7875.732l-5.621-2.389-5.621,2.389,5.621-13.325Z" transform="translate(-365.847 -7862.407)"/>
      </g>
    </g>
    <g id="Grupo_54946" data-name="Grupo 54946" transform="translate(415.673 7827.189)">
      <rect id="Rectángulo_9399" data-name="Rectángulo 9399" width="1.518" height="33.309" transform="translate(4.862)"/>
      <g id="Grupo_54945" data-name="Grupo 54945" transform="translate(0 29.046)">
        <path id="Trazado_105036" data-name="Trazado 105036" d="M332.412,7846.323l5.621,2.389,5.621-2.389-5.621,13.326Z" transform="translate(-332.412 -7846.323)"/>
      </g>
    </g>
    <g id="Grupo_54947" data-name="Grupo 54947" transform="translate(773.456 7837.12)">
      <path id="Trazado_105037" data-name="Trazado 105037" d="M637.543,7835.557s.033,19.294,9.447,25.691c0,0,21.33,5.7,26.538,7.8,0,0-1.8,21.292-6.309,32.889L654.3,7947.42s-2.2,6.7,0,16l7.409,28.29s3.3,14.3,2.705,26.992l-4.307,48.483s-.4,15.3-19.628,18.895c0,0-27.137,3.1-41.557-.7,0,0-10.714-1.3-16.221-14.1l-4.106-42.152V8007s1.735-16.793,5.741-28.257,6.409-19.727,4.14-30.39l-19.761-75.976s-1.084-3.031,1.469-4.083,22.031-5.647,24.534-7.047,6.708-2.8,10.013-22.992l-.1-4.132Z" transform="translate(-567.907 -7833.527)" fill="#fff"/>
      <path id="Trazado_105038" data-name="Trazado 105038" d="M618.866,8088.026c-7.022,0-14.392-.447-19.891-1.9h0c-.042,0-11.03-1.479-16.6-14.419l-.042-.17-4.106-42.154,0-22.182c.021-.228,1.791-17.051,5.773-28.445,3.95-11.307,6.371-19.508,4.118-30.082l-19.754-75.951c-.422-1.178-.613-3.759,1.8-4.751,1.1-.452,5.055-1.493,9.636-2.7,5.987-1.577,13.439-3.54,14.837-4.32l.358-.2c2.342-1.269,6.262-3.395,9.371-22.391l-.121-4.636,34.064,1.484v.543c0,.19.141,18.961,9.117,25.168,1.741.466,21.451,5.756,26.509,7.794l.39.158-.035.418c-.02.215-1.863,21.51-6.347,33.049l-12.9,45.434a31.734,31.734,0,0,0,.008,15.708l7.406,28.279c.038.158,3.318,14.533,2.723,27.16l-4.31,48.508c0,.122-.635,15.763-20.089,19.4C640.59,8086.86,630.181,8088.026,618.866,8088.026Zm-35.409-16.686c5.315,12.247,15.631,13.66,15.734,13.673,14.228,3.743,41.152.729,41.422.7,18.486-3.46,19.106-17.736,19.124-18.344l4.308-48.517c.587-12.451-2.658-26.672-2.691-26.814l-7.406-28.274c-2.218-9.358-.082-16.036.009-16.317l12.912-45.463c4.093-10.539,5.969-29.309,6.251-32.357-5.718-2.178-25.871-7.569-26.078-7.624l-.175-.077c-8.768-5.96-9.607-22.352-9.686-25.616l-31.766-1.385.083,3.523c-3.206,19.652-7.27,21.854-9.958,23.312l-.348.19c-1.523.852-8.426,2.67-15.1,4.426-4.351,1.147-8.461,2.229-9.492,2.652-2.013.827-1.184,3.262-1.148,3.366l19.775,76.021c2.32,10.892-.14,19.234-4.153,30.723-3.938,11.267-5.694,27.96-5.711,28.127l0,22.068Z" transform="translate(-568.105 -7833.731)" fill="#999"/>
    </g>
    <g id="Grupo_54948" data-name="Grupo 54948" transform="translate(810.014 7833.015)">
      <ellipse id="Elipse_4274" data-name="Elipse 4274" cx="16.256" cy="4.132" rx="16.256" ry="4.132" transform="translate(0.568 0.569)" fill="#fff"/>
      <path id="Trazado_105039" data-name="Trazado 105039" d="M609.011,7840.43c-8.361,0-16.824-1.615-16.824-4.7s8.463-4.7,16.824-4.7,16.826,1.615,16.826,4.7S617.371,7840.43,609.011,7840.43Zm0-8.265c-9.72,0-15.686,2.075-15.686,3.563s5.966,3.563,15.686,3.563,15.687-2.076,15.687-3.562S618.729,7832.165,609.011,7832.165Z" transform="translate(-592.187 -7831.026)" fill="#999"/>
    </g>
    <path id="Trazado_105040" data-name="Trazado 105040" d="M609.869,7841.685a48.612,48.612,0,0,1-18.034-3.353l.469-1.037c.155.069,15.7,6.889,32.95.583l.39,1.069A45.844,45.844,0,0,1,609.869,7841.685Z" transform="translate(217.644 5.235)" fill="#999"/>
    <rect id="Rectángulo_9400" data-name="Rectángulo 9400" width="1.139" height="3.599" transform="translate(826.268 7842.248)" fill="#999"/>
    <path id="Trazado_105041" data-name="Trazado 105041" d="M612.606,7863.47q-.6,0-1.211-.021c-17.717-.605-23.607-11.343-23.848-11.8l1-.532c.056.1,5.858,10.612,22.881,11.193,16.918.539,22.306-11.527,22.356-11.648l1.049.443C634.784,7851.23,629.429,7863.47,612.606,7863.47Z" transform="translate(215.423 12.159)" fill="#999"/>
    <g id="Grupo_54949" data-name="Grupo 54949" transform="translate(871.639 7872.055)">
      <path id="Trazado_105042" data-name="Trazado 105042" d="M638.831,7856.91a59.629,59.629,0,0,0-5.075,19.66s-.6,4.266-.6,15.53" transform="translate(-632.589 -7856.659)" fill="#fff"/>
      <path id="Trazado_105043" data-name="Trazado 105043" d="M633.922,7892.186h-1.138c0-11.177.578-15.434.6-15.609a60.665,60.665,0,0,1,5.126-19.831l1.022.5a59.569,59.569,0,0,0-5.017,19.452A132.474,132.474,0,0,0,633.922,7892.186Z" transform="translate(-632.783 -7856.745)" fill="#999"/>
    </g>
    <g id="Grupo_54950" data-name="Grupo 54950" transform="translate(776.113 7871.337)">
      <path id="Trazado_105044" data-name="Trazado 105044" d="M570.194,7856.432a64.907,64.907,0,0,1,5.261,20.386s.6,4.266.6,15.53" transform="translate(-569.679 -7856.188)" fill="#fff"/>
      <path id="Trazado_105045" data-name="Trazado 105045" d="M576.8,7892.431H575.66a132.618,132.618,0,0,0-.594-15.451,64.937,64.937,0,0,0-5.211-20.221l1.029-.487a66.083,66.083,0,0,1,5.313,20.588C576.219,7877,576.8,7881.254,576.8,7892.431Z" transform="translate(-569.855 -7856.271)" fill="#999"/>
    </g>
    <rect id="Rectángulo_9401" data-name="Rectángulo 9401" width="9.213" height="54.691" transform="translate(821.998 8090.859)" fill="#999"/>
    <rect id="Rectángulo_9402" data-name="Rectángulo 9402" width="3.036" height="224.602" transform="translate(825.319 7875.038)" fill="red"/>
    <g id="Grupo_54953" data-name="Grupo 54953" transform="translate(803.807 8090.858)">
      <g id="Grupo_54952" data-name="Grupo 54952">
        <g id="Grupo_54951" data-name="Grupo 54951">
          <path id="Trazado_105046" data-name="Trazado 105046" d="M604.151,8040.263l.484-1.105s.44-10.008.729-17.438c-1.307-1.043-2.485-1.99-3.409-2.738Z" transform="translate(-580.921 -7991.51)"/>
          <path id="Trazado_105047" data-name="Trazado 105047" d="M605.611,8023.251c.261-6.217,4.738-10.848,5.063-11.178a6.265,6.265,0,0,0,2.2-5.812,6.519,6.519,0,0,0-2.14-4.044,5.167,5.167,0,0,0-4.134-1.285,5.018,5.018,0,0,0-1.375.4,6.074,6.074,0,0,0-3.214,6.438l.006.033-.026-.029,1.761,16.905-.008.007,1.853.062C605.617,8023.916,605.625,8023.378,605.611,8023.251Zm-1.844-15.729a4.289,4.289,0,0,1,2.192-4.576,3.085,3.085,0,0,1,.882-.254,3.417,3.417,0,0,1,2.726.868,4.731,4.731,0,0,1,1.544,2.944,4.291,4.291,0,0,1-2.191,4.576,3.2,3.2,0,0,1-.882.255,3.423,3.423,0,0,1-2.726-.867A4.734,4.734,0,0,1,603.767,8007.522Z" transform="translate(-580.927 -8000.883)"/>
          <path id="Trazado_105048" data-name="Trazado 105048" d="M589.689,8016.644a6.227,6.227,0,0,0,5.938,2.208c.7-.029,6.865-.161,11.567,3.694.662.719,19.836,15.855,19.836,15.855l1.107.307-15.429-16.5-3.211-.108-11.245-12.3c-.07-.087-.134-.176-.2-.26a6.049,6.049,0,0,0-7-1.865h0a4.9,4.9,0,0,0-1.155.734,5.171,5.171,0,0,0-1.8,3.939A6.485,6.485,0,0,0,589.689,8016.644Zm21.647,6.513a.937.937,0,1,1-.465,1.241A.938.938,0,0,1,611.335,8023.157Zm-21.462-10.777a3.426,3.426,0,0,1,1.169-2.612,3.231,3.231,0,0,1,.741-.47,4.273,4.273,0,0,1,4.911,1.4,4.736,4.736,0,0,1,1.166,3.115,3.411,3.411,0,0,1-1.169,2.608,3.19,3.19,0,0,1-.742.473,4.272,4.272,0,0,1-4.909-1.4A4.752,4.752,0,0,1,589.874,8012.379Z" transform="translate(-588.099 -7997.604)"/>
        </g>
      </g>
    </g>
  </g>
</svg>
