<svg xmlns="http://www.w3.org/2000/svg" width="122.615" height="373.571" viewBox="0 0 122.615 373.571">
  <g id="Grupo_55119" data-name="Grupo 55119" transform="translate(-676.259 -9087.569)">
    <rect id="Rectángulo_9477" data-name="Rectángulo 9477" width="11.315" height="58.183" transform="translate(739.399 9402.958)" fill="#999"/>
    <g id="Grupo_55119-2" data-name="Grupo 55119" transform="translate(676.259 9087.569)">
      <path id="Trazado_105437" data-name="Trazado 105437" d="M766.579,9100.435s-10.707-12.572-33.093-12.491c0,0-7.462,18.412-9.976,22.549s-2.758,6.57-7.95,6.813-15.491,0-15.491,0-16.384-1.7-22.062,15.006,7.948,33.013,7.948,33.013,7.3,13.544,9.084,22.71,9.815,30.66,9.815,30.66,8.192,20.2,1.784,30.739-13.545,28.633-13.545,28.633-10.949,17.952-6.624,48.232,7.138,73.107,7.138,73.107,12.545,14.924,37.852,14.491,47.152-14.708,52.992-27.253l3.676-41.095s3.678-36.554-1.3-63.158a219.292,219.292,0,0,0-6.057-28.767c-4.217-14.6,6.6-41.529,6.6-41.529s11.572-13.843,10.923-23.358-9.517-16.547-11.247-19.25-1.231-7.354-1.318-9.733.886-6.381-5.171-10.49-17.412-9.409-17.52-19.683S765.146,9102.976,766.579,9100.435Z" transform="translate(-676.171 -9087.477)" fill="#fff"/>
      <path id="Trazado_105438" data-name="Trazado 105438" d="M730.485,9414.463c-24.529,0-37.021-14.517-37.146-14.666l-.1-.117-.01-.152c-.027-.429-2.861-43.155-7.134-73.071-4.3-30.1,6.577-48.36,6.687-48.542.036-.109,7.19-18.174,13.546-28.631,6.21-10.222-1.739-30.123-1.82-30.323-.086-.228-8.069-21.649-9.84-30.746-1.751-8.991-8.964-22.443-9.037-22.578-.085-.089-13.676-16.622-7.981-33.384,5.732-16.863,22.379-15.334,22.553-15.319.065,0,10.306.239,15.422,0,4.006-.187,4.8-1.638,6.394-4.525.347-.632.726-1.321,1.178-2.062,2.466-4.058,9.87-22.3,9.943-22.482l.118-.29h.527c22.2,0,33.125,12.526,33.234,12.655l.211.248-.16.284c-1.291,2.29-3.59,18.412-3.481,28.91.09,8.474,8.283,13.6,14.265,17.345,1.1.688,2.135,1.336,3.051,1.957,5.491,3.725,5.422,7.438,5.376,9.895-.006.347-.012.668,0,.965.017.486.01,1.072.005,1.715-.029,2.424-.065,5.746,1.239,7.782a23.316,23.316,0,0,0,2.127,2.506c3.248,3.554,8.685,9.5,9.193,16.966.639,9.377-10.054,22.512-10.982,23.631-.592,1.506-10.579,27.232-6.554,41.157a221.345,221.345,0,0,1,6.069,28.838c4.926,26.338,1.337,62.9,1.3,63.264l-3.719,41.246c-6,12.9-28.131,27.089-53.4,27.522C731.2,9414.461,730.839,9414.463,730.485,9414.463Zm-36.334-15.157c1.2,1.343,13.4,14.225,36.333,14.225.352,0,.7,0,1.055-.008,24.866-.426,46.606-14.284,52.543-26.912l3.67-41.011c.037-.371,3.613-36.8-1.292-63.031a220.451,220.451,0,0,0-6.046-28.724c-4.215-14.585,6.169-40.727,6.613-41.831l.075-.125c.116-.138,11.443-13.81,10.815-23.028-.486-7.14-5.786-12.937-8.952-16.4a23.774,23.774,0,0,1-2.222-2.631c-1.454-2.272-1.417-5.754-1.387-8.3,0-.625.012-1.193-.005-1.67-.011-.312,0-.65,0-1.014.045-2.392.106-5.665-4.969-9.107-.905-.615-1.932-1.256-3.02-1.937-6.165-3.858-14.608-9.142-14.7-18.126-.1-9.9,1.974-25.654,3.451-29.068-1.566-1.663-12.171-12.072-32.22-12.106-1,2.451-7.532,18.44-9.893,22.324-.444.731-.817,1.407-1.158,2.028-1.589,2.888-2.639,4.8-7.167,5.009-5.145.236-15.423,0-15.525,0-.693-.064-16.121-1.463-21.609,14.689-5.526,16.262,7.731,32.4,7.865,32.563.126.213,7.406,13.789,9.185,22.919,1.756,9.022,9.712,30.372,9.793,30.587.332.819,8.2,20.523,1.746,31.145-6.313,10.39-13.439,28.381-13.51,28.562-.144.251-10.846,18.251-6.6,48C691.167,9355.354,693.957,9396.414,694.151,9399.306Z" transform="translate(-676.259 -9087.569)" fill="#999"/>
    </g>
    <path id="Trazado_105439" data-name="Trazado 105439" d="M794.555,9170.8c-6.169-1.916-31.046-5.787-31.3-5.826-36.133-2.979-71.3,5.35-71.647,5.435l-.218-.906c.352-.086,35.656-8.455,71.976-5.454,1.058.164,25.228,3.926,31.461,5.86Z" transform="translate(3.688 18.478)" fill="#999"/>
    <path id="Trazado_105440" data-name="Trazado 105440" d="M749.228,9218.85c-20.557,0-32.119-2.025-34.558-3.047s-11.737-2.793-11.831-2.812l.175-.914c.384.072,9.484,1.8,12.017,2.867,2.475,1.037,14.635,3.121,36.558,2.963,20.485-.152,22.266-.3,22.4-.318l.182.912c-.338.086-6.448.221-22.577.34Q750.393,9218.849,749.228,9218.85Z" transform="translate(6.477 30.34)" fill="#999"/>
    <path id="Trazado_105441" data-name="Trazado 105441" d="M733.338,9282.462q-.709,0-1.43,0c-38.737-.162-48.111-13.825-48.491-14.407l.78-.512c.091.139,9.563,13.827,47.716,13.985,40.9.157,52.073-6.875,54.977-9.912l.675.644C784.612,9275.346,773.435,9282.462,733.338,9282.462Z" transform="translate(1.744 43.857)" fill="#999"/>
    <path id="Trazado_105442" data-name="Trazado 105442" d="M698.749,9387.988l-5.569-75.432c-.025-.172-2.868-20.545,2.809-36.687,5.636-16.031,10.84-31.951,10.892-32.111a62.752,62.752,0,0,0,3.389-33.355c-3.436-20.111-9.712-40.512-14.408-51.811l.863-.357c4.715,11.348,11.015,31.828,14.466,52.01a63.677,63.677,0,0,1-3.444,33.852c-.032.111-5.238,16.041-10.88,32.082-5.6,15.924-2.791,36.076-2.762,36.277l5.573,75.465Z" transform="translate(3.944 17.221)" fill="#999"/>
    <path id="Trazado_105443" data-name="Trazado 105443" d="M745.533,9403.326l-.933-.018.812-44.12,1.783-117.122c.162-36.947,1.607-42.655,4.773-55.161l.108-.426c3.149-12.436-2.145-20.143-2.2-20.218-15.215-20.821-44.923-53.484-45.223-53.811l.69-.629c.3.327,30.041,33.027,45.29,53.895.234.331,5.608,8.115,2.347,20.992l-.107.425c-3.148,12.431-4.586,18.1-4.746,54.942L746.345,9359.2Z" transform="translate(6.919 5.91)" fill="#999"/>
    <path id="Trazado_105444" data-name="Trazado 105444" d="M752.4,9133.085a6.6,6.6,0,0,1-2.041-.312c-21.36-6.228-39.545-20.829-39.726-20.976l1.565-1.934c.178.142,17.991,14.437,38.9,20.536.315.1,2.772.822,3.924-1.205l2.163,1.229A5.26,5.26,0,0,1,752.4,9133.085Z" transform="translate(8.375 5.433)" fill="red"/>
    <path id="Trazado_105445" data-name="Trazado 105445" d="M754.538,9103.5s-3.566-1.675-7.452-3.471c-11.556-5.339-26.075-7.082-26.221-7.1l.109-.926c.146.016,14.809,1.773,26.5,7.177,3.889,1.8,7.457,3.474,7.457,3.474Z" transform="translate(10.87 1.081)" fill="#999"/>
    <path id="Trazado_105446" data-name="Trazado 105446" d="M758.763,9395.564l-.933-.031,1.946-55.479c2.49-29.389,1.688-70.117.326-89.66a161.4,161.4,0,0,1,2.6-39.875c.627-26.086-5.692-40.664-5.756-40.807-.046-.148-2.174-8.051-10.381-26.389-8.292-18.518-3.78-44.617-3.734-44.877l.918.162c-.046.26-4.506,26.082,3.665,44.334,8.248,18.424,10.387,26.383,10.408,26.461.04.074,6.445,14.822,5.8,41.225a161.063,161.063,0,0,0-2.6,39.7c1.364,19.57,2.168,60.365-.325,89.779Z" transform="translate(15.915 2.651)" fill="#999"/>
    <path id="Trazado_105447" data-name="Trazado 105447" d="M697.792,9171.027c-4.526,0-11.075-5.621-11.41-5.913l.609-.7c2.622,2.271,10.025,7.6,12.785,4.987l.341-.319c3.916-3.66,14.321-13.385,11.413-35.616-.008-.177-.568-13.216-11.487-20.931l.54-.764c11.305,7.991,11.871,21.482,11.876,21.618,2.966,22.662-7.693,32.624-11.706,36.374l-.338.317A3.689,3.689,0,0,1,697.792,9171.027Z" transform="translate(2.467 5.897)" fill="#999"/>
  </g>
</svg>
