<svg xmlns="http://www.w3.org/2000/svg" width="47.188" height="38.531" viewBox="0 0 47.188 38.531">
  <g id="Grupo_57682" data-name="Grupo 57682" transform="translate(-221.5 -4573.897)">
    <g id="Grupo_57684" data-name="Grupo 57684" transform="translate(221.501 4573.898)">
      <g id="Grupo_57683" data-name="Grupo 57683">
        <g id="Grupo_57682-2" data-name="Grupo 57682">
          <circle id="Elipse_4469" data-name="Elipse 4469" cx="0.786" cy="0.786" r="0.786" transform="translate(25.164 11.796)" fill="#0ac4bf"/>
          <circle id="Elipse_4470" data-name="Elipse 4470" cx="0.786" cy="0.786" r="0.786" transform="translate(24.378 17.3)" fill="#0ac4bf"/>
          <circle id="Elipse_4471" data-name="Elipse 4471" cx="0.786" cy="0.786" r="0.786" transform="translate(23.591 22.805)" fill="#0ac4bf"/>
          <circle id="Elipse_4472" data-name="Elipse 4472" cx="0.786" cy="0.786" r="0.786" transform="translate(22.805 28.31)" fill="#0ac4bf"/>
          <path id="Trazado_117842" data-name="Trazado 117842" d="M266.857,4595.53a3.139,3.139,0,0,0-2.359,1.064,3.139,3.139,0,0,0-2.359-1.064.787.787,0,0,0,0,1.573,1.572,1.572,0,0,1,1.573,1.573.787.787,0,0,0,1.573,0,1.572,1.572,0,0,1,1.573-1.573.787.787,0,1,0,0-1.573Z" transform="translate(-233.828 -4580.589)" fill="#0ac4bf"/>
          <path id="Trazado_117843" data-name="Trazado 117843" d="M268.687,4597.366a1.946,1.946,0,0,0-.27-.968l-1.392-2.368a.8.8,0,0,0-.11-.145l-9.048-15.382a4.536,4.536,0,0,0-3.919-2.247H251.21c-.666-1.461-3.183-2.359-6.117-2.359s-5.451.9-6.117,2.359h-2.738a4.542,4.542,0,0,0-3.919,2.249l-9.02,15.446a.807.807,0,0,0-.108.144l-1.437,2.462a1.9,1.9,0,0,0,.67,2.571l2.255,1.3a1.844,1.844,0,0,0,2.513-.663l5.319-9.057v17a.787.787,0,0,0,.454.713l5.421,2.53a15.768,15.768,0,0,0,2.644.937h0a15.839,15.839,0,0,0,10.769-.937l5.421-2.53a.787.787,0,0,0,.454-.713v-17.031l5.371,9.044a1.844,1.844,0,0,0,2.509.655l2.151-1.241A1.965,1.965,0,0,0,268.687,4597.366Zm-1.626-.128a.384.384,0,0,1,.052.188.393.393,0,0,1-.193.308l-2.152,1.243a.273.273,0,0,1-.37-.1l-.982-1.653,2.648-1.685Zm-16.107-19.409h1.452l-2.694,4.849-1.385-1.847Zm-9.444-1.732a10.55,10.55,0,0,1,7.166,0,2.41,2.41,0,0,1,1.062.735l-3.013,3.444v0l-1.629,1.861-1.631-1.863h0l-3.013-3.443A2.4,2.4,0,0,1,241.51,4576.1Zm-2.279,1.732,2.627,3-1.385,1.847-2.694-4.849Zm-13.4,21.1a.271.271,0,0,1-.37.1l-2.255-1.3a.27.27,0,0,1-.135-.212.274.274,0,0,1,.035-.119l1.077-1.843,2.771,1.467Zm8.247,8.284,0-19.395a.787.787,0,0,0-1.465-.4l-4.846,8.25-2.793-1.479,8.7-14.891a2.965,2.965,0,0,1,2.31-1.459l3.7,6.662a.787.787,0,0,0,1.317.09l1.912-2.551,1.348,1.541-3.687,26.54a12.823,12.823,0,0,1-1.529-.593Zm23.484-19.8a.786.786,0,0,0-1.463.4v19.395l-4.967,2.318a14.254,14.254,0,0,1-9.026,1l3.732-26.858,1.43-1.634,1.913,2.551a.786.786,0,0,0,1.316-.09l3.7-6.662a2.962,2.962,0,0,1,2.31,1.46l8.756,14.886-2.671,1.7Z" transform="translate(-221.501 -4573.898)" fill="#0ac4bf"/>
        </g>
      </g>
    </g>
  </g>
</svg>
