<svg id="Grupo_55164" data-name="Grupo 55164" xmlns="http://www.w3.org/2000/svg" xmlns:xlink="http://www.w3.org/1999/xlink" width="20.226" height="46.944" viewBox="0 0 20.226 46.944">
  <defs>
    <clipPath id="clip-path">
      <path id="Trazado_105495" data-name="Trazado 105495" d="M692.274,6973.331l2.119,13.635h14.663v-44.8l-19.411-2.147-.815,24.546Z" transform="translate(-688.83 -6940.021)" fill="none"/>
    </clipPath>
  </defs>
  <g id="Grupo_55163" data-name="Grupo 55163" clip-path="url(#clip-path)">
    <path id="Trazado_105494" data-name="Trazado 105494" d="M700.416,6949.538l1.98-7.58-1.2-.748-3.552,5.484,2.776,2.844Zm-15.249.348,2.893-2.959-3.707-5.72-1.256.772,2.069,7.907Zm7.608.023,5.72-8.828-1.792.256a42.4,42.4,0,0,1-4.27.217,36.361,36.361,0,0,1-3.786-.2l-1.586-.268,5.714,8.823Zm.852,8.93a1.166,1.166,0,0,1-1.134-1.2l.013-.518a1.168,1.168,0,0,1,2.336.064l-.014.518a1.171,1.171,0,0,1-1.2,1.136Zm-7.421,7.014a.533.533,0,0,0,.037-.18v-5.665l-4.937.019-.022,5.648a.276.276,0,0,0,.035.149l4.876.028Zm16.838.056a.524.524,0,0,0,.037-.182v-5.661l-4.937.017-.022,5.648a.3.3,0,0,0,.035.153l4.876.024Zm-21.784,2.28a2.2,2.2,0,0,1-1.406-.514,2.6,2.6,0,0,1-.9-2.005l.027-6.813a1.161,1.161,0,0,1,1.162-1.161l7.266-.028a1.17,1.17,0,0,1,1.173,1.168v6.837a2.6,2.6,0,0,1-.914,2.007,2.2,2.2,0,0,1-1.4.509Zm16.838.057a2.191,2.191,0,0,1-1.406-.515,2.6,2.6,0,0,1-.906-2l.026-6.812a1.166,1.166,0,0,1,1.165-1.162l7.269-.027a1.167,1.167,0,0,1,1.173,1.167v6.833a2.6,2.6,0,0,1-.917,2.011,2.2,2.2,0,0,1-1.4.507Zm-4.471,1.694a1.162,1.162,0,0,1-1.134-1.2l.013-.518a1.168,1.168,0,1,1,2.336.062l-.014.519a1.167,1.167,0,0,1-1.2,1.135Zm19.922,6.4,7.456-2.149-.217-1.069c-1.669-7.351-5.932-17.889-8.206-23.625l-.316-.8-.37.695a25.2,25.2,0,0,0-1.27,3.335,32.238,32.238,0,0,0-1.221,6.594l-.145,2.547.715,3.857a39.732,39.732,0,0,0,2.387,8.321l1.187,2.294Zm-42.566.929,1.122-3.031c1.393-4.134,2.417-8.286,3.555-12.512l.014-.029-.113-2.029a35.784,35.784,0,0,0-1.221-7,28.388,28.388,0,0,0-1.275-3.541l-.692-1.379-.332.886c-2.18,5.716-7.223,18.216-8.329,25.656l-.1.86,7.368,2.123Zm22.644,3.3a1.165,1.165,0,0,1-1.134-1.2l.013-.519a1.168,1.168,0,0,1,2.336.063l-.014.518a1.17,1.17,0,0,1-1.2,1.137Zm21.937,2.18,7.531-2.149-.456-1.337-.2-.59.014.085a1.163,1.163,0,0,1-.767,1.04l-.487.179a.972.972,0,0,1-.343.069,1.168,1.168,0,0,1-.459-2.264l.49-.177a1.171,1.171,0,0,1,1.256.3l.077.131-.238-.706-.311-.9-7.367,2.123,1.262,4.195Zm-46.641,1,1.307-4.269-7.154-2.058-.284.886-.31.955.223-.363a1.176,1.176,0,0,1,1.259-.3l.485.177a1.168,1.168,0,0,1-.458,2.264,1.089,1.089,0,0,1-.345-.071l-.488-.177a1.166,1.166,0,0,1-.764-1.04l.062-.4-.244.757-.4,1.243,7.111,2.4Zm24.7,8.63a1.163,1.163,0,0,1-1.134-1.2l.013-.518a1.168,1.168,0,0,1,2.336.064l-.014.518a1.167,1.167,0,0,1-1.2,1.133Zm-3.724,1.745,0-.036v-37.853a1.2,1.2,0,0,1,.086-.446l1.486-3.592-2.109-3.258L685.4,6953a1.166,1.166,0,0,1-1.964-.517l-2.44-9.325-2.377,1.25a41.786,41.786,0,0,1-4.37,1.724l-.062.019,1.023,2.04a31.269,31.269,0,0,1,1.382,3.834,41.862,41.862,0,0,1,1.469,10.528,1.107,1.107,0,0,1-.08.456l-.011.021-.024.248c-.33,4.377-.177,19.239-.689,27.883l-.059.85.7.249a46.013,46.013,0,0,0,10.184,1.787l1.824.082Zm2.306.086,3.783-.062a47.288,47.288,0,0,0,11.293-1.793l1.039-.355-.067-.847c-.654-8.754-1.174-24.226-1.316-28.594l-.014-.465-.013-.066,0-.1,0-.087.014-.07.15-2.653a34.755,34.755,0,0,1,1.312-7.065,27.914,27.914,0,0,1,1.385-3.636l1.192-2.256-2.1-.813c-.965-.414-1.9-.85-2.835-1.327l-1.533-.846-2.339,8.959a1.166,1.166,0,0,1-1.967.521l-3.85-3.943-2.476,3.824-1.629,3.937v37.62l-.024.122Zm.949,2.343c-.4,0-.8,0-1.192,0-6.342-.089-12.426-1.061-16.432-2.657a1.171,1.171,0,0,1-.729-1.178c.341-4.281.442-11.023.523-17.136l.051-3.96-.054.19c-.319,1.063-.651,2.126-1.011,3.188l-1.548,4.179-1.959,6.41a1.174,1.174,0,0,1-1.023.824,1.208,1.208,0,0,1-.466-.062l-9.343-3.153a1.168,1.168,0,0,1-.74-1.467c.222-.686.7-2.155,1.334-4.135l.651-2.033.185-1.634c1.441-9.525,8.759-26.411,9.335-28.582a1.172,1.172,0,0,1,.8-.823,42.787,42.787,0,0,0,12.544-5.889,1.167,1.167,0,0,1,.432-.167l.29.007.1-.04a1.146,1.146,0,0,1,.464.008,37.082,37.082,0,0,0,15.153-.008,1.3,1.3,0,0,1,.464.008l.134.059.346.138a48.933,48.933,0,0,0,11.2,5.672,1.173,1.173,0,0,1,.736.775c.617,2.113,7.371,17.517,9.648,27.461l.325,1.6.091.078a1.186,1.186,0,0,1,.215.41,1.215,1.215,0,0,1,.037.463l-.021.067.488,1.409c.729,2.124,1.275,3.72,1.513,4.456a1.167,1.167,0,0,1-.788,1.481l-9.812,2.805a1.172,1.172,0,0,1-1.441-.787l-2.081-6.912-.91-1.672c-.265-.542-.509-1.094-.736-1.649l-.254-.688.064,1.578c.26,6.25.6,13.178.984,17.523a1.175,1.175,0,0,1-.745,1.191,49.289,49.289,0,0,1-16.825,2.655Z" transform="translate(-706.49 -6940.98)" fill="#0ac4bf"/>
  </g>
</svg>
