<svg xmlns="http://www.w3.org/2000/svg" width="36.405" height="40.599" viewBox="0 0 36.405 40.599">
  <path id="Trazado_105498" data-name="Trazado 105498" d="M611.572,6973.906c-6.125-6.123-11.091-14.815-11.75-15.994v-2.66a15.59,15.59,0,0,1,.335-2.555.6.6,0,0,0-1.186-.225c-.171.895-.279,1.615-.327,2.177h-10.2a52.605,52.605,0,0,0-1.339-6.6,1.8,1.8,0,0,1,1.051-1.034c1.559-.578,4.2.607,5.088,1.112a.608.608,0,0,0,.6,0c.887-.505,3.531-1.691,5.09-1.112a1.806,1.806,0,0,1,1.051,1.034c-.091.345-.289,1.121-.5,2.046a.6.6,0,1,0,1.176.275c.287-1.233.541-2.192.544-2.2a.622.622,0,0,0-.014-.358,3.1,3.1,0,0,0-1.286-1.661,6.221,6.221,0,0,0-2.015-4.27.6.6,0,0,0-.913.151,10.87,10.87,0,0,0-1.361,4.03c-.093.03-.185.06-.279.092a14.025,14.025,0,0,0-1.787.764,14.057,14.057,0,0,0-1.789-.764c-.093-.032-.185-.062-.278-.092a10.889,10.889,0,0,0-1.363-4.03.6.6,0,0,0-.911-.151,6.216,6.216,0,0,0-2.017,4.27,3.1,3.1,0,0,0-1.285,1.661.6.6,0,0,0-.014.358,46.582,46.582,0,0,1,1.377,7.081v2.66c-.659,1.178-5.624,9.871-11.748,15.994a.6.6,0,0,0,.045.894,25.837,25.837,0,0,0,4.049,2.556h0a.6.6,0,0,0,.123.864,20.038,20.038,0,0,0,3.087,1.711.577.577,0,0,0,.252.056.6.6,0,0,0,.252-1.151,22.5,22.5,0,0,1-2.361-1.254,86.33,86.33,0,0,0,8.795-15.4.6.6,0,1,0-1.109-.477,86.618,86.618,0,0,1-8.294,14.673,28.47,28.47,0,0,1-3.5-2.118,84.921,84.921,0,0,0,11.365-15.592h10.641a84.989,84.989,0,0,0,11.365,15.592,28.159,28.159,0,0,1-3.5,2.118,86.437,86.437,0,0,1-8.3-14.673.6.6,0,1,0-1.109.477,86.558,86.558,0,0,0,8.795,15.4,24.983,24.983,0,0,1-12.579,3.549,24.116,24.116,0,0,1-8.032-1.41.6.6,0,0,0-.4,1.138,25.065,25.065,0,0,0,22.243-2.639.6.6,0,0,0,.123-.864h0a25.865,25.865,0,0,0,4.048-2.556.6.6,0,0,0,.046-.894Zm-13.929-30.541a5.171,5.171,0,0,1,.989,2.34,5.55,5.55,0,0,0-1.768.048A9.441,9.441,0,0,1,597.643,6943.366Zm-8.2,0a9.376,9.376,0,0,1,.779,2.388,5.54,5.54,0,0,0-1.766-.048A5.165,5.165,0,0,1,589.446,6943.366Zm9.169,14.1H588.475v-1.609h10.141Z" transform="translate(-575.342 -6941.739)" fill="#0ac4bf"/>
</svg>
