<svg xmlns="http://www.w3.org/2000/svg" width="492.107" height="496.106" viewBox="0 0 492.107 496.106">
  <g id="Grupo_57271" data-name="Grupo 57271" transform="translate(-223.764 -661.501)">
    <g id="Grupo_57185" data-name="Grupo 57185" transform="translate(223.764 671.129)">
      <g id="Grupo_57183" data-name="Grupo 57183" transform="translate(0 3.315)">
        <path id="Trazado_112018" data-name="Trazado 112018" d="M560.478,947.335a4.687,4.687,0,0,0-2.537-1.93,8.765,8.765,0,0,0-4.84.055,14.606,14.606,0,0,0-4.44,1.926,5.581,5.581,0,0,0-2.561,3.12,3.916,3.916,0,0,0,.528,3.3,4.5,4.5,0,0,0,3.17,2.05,6.144,6.144,0,0,0,4.494-.974,4.18,4.18,0,0,0,2.073-3.041,3.645,3.645,0,0,0-.563-2.53,3.809,3.809,0,0,0-1.043-1.064,7.708,7.708,0,0,0-1.713-.831,8.152,8.152,0,0,1,4.276-.459,2.712,2.712,0,0,1,1.828,1.139,1.75,1.75,0,0,1,.256,1.353,3.036,3.036,0,0,1-1.1,1.559l1.083,1.346a4.031,4.031,0,0,0,1.659-2.39A3.445,3.445,0,0,0,560.478,947.335Zm-7.4,1.431a2.619,2.619,0,0,1,1.253.978,2.3,2.3,0,0,1,.27,1.932,3.2,3.2,0,0,1-1.458,1.836,4.957,4.957,0,0,1-1.341.579,4.222,4.222,0,0,1-1.616.161,3.7,3.7,0,0,1-1.39-.391,2.461,2.461,0,0,1-.923-.822,2.4,2.4,0,0,1-.368-1.241,2.538,2.538,0,0,1,.393-1.407,3.555,3.555,0,0,1,1.128-1.158,4.512,4.512,0,0,1,2.058-.7A4.173,4.173,0,0,1,553.083,948.766Z" transform="translate(-257.094 -703.782)" fill="#21409a"/>
        <path id="Trazado_112019" data-name="Trazado 112019" d="M551.081,942.307a5.623,5.623,0,0,0,2.562-3.041,3.6,3.6,0,0,0-.441-3.075,4.35,4.35,0,0,0-2.491-1.839,9.3,9.3,0,0,0-5,.166,15.554,15.554,0,0,0-4.505,2,5.278,5.278,0,0,0-2.435,2.944,3.659,3.659,0,0,0,.49,3.069,3.943,3.943,0,0,0,1.122,1.157,5.582,5.582,0,0,0,1.6.69,7.655,7.655,0,0,0,2.3.2,15.262,15.262,0,0,0,6.791-2.266Zm-7.8.655a3.8,3.8,0,0,1-1.735-.309,2.637,2.637,0,0,1-1.056-.936,2.032,2.032,0,0,1-.288-1.738,3.505,3.505,0,0,1,1.6-1.771,18.914,18.914,0,0,1,3.924-1.8,8.806,8.806,0,0,1,4.353-.588,2.578,2.578,0,0,1,1.86,1.094,1.988,1.988,0,0,1,.108,2.112,4.188,4.188,0,0,1-1.539,1.546,16.078,16.078,0,0,1-3.228,1.491A12.835,12.835,0,0,1,543.277,942.962Z" transform="translate(-256.338 -702.643)" fill="#21409a"/>
        <path id="Trazado_112020" data-name="Trazado 112020" d="M472.762,1007.3l-12.993,7.89.724.777a5.642,5.642,0,0,1,1.241-.107,13.433,13.433,0,0,1,2.486.411,14.809,14.809,0,0,1,2.881.994l1.446-.881a11.654,11.654,0,0,0-4.309-1.813l9.78-5.927Z" transform="translate(-248.179 -710.218)" fill="#21409a"/>
        <path id="Trazado_112021" data-name="Trazado 112021" d="M464.152,1005.088a5.612,5.612,0,0,0,2-3.437,3.6,3.6,0,0,0-.966-2.951,4.355,4.355,0,0,0-2.77-1.383,9.28,9.28,0,0,0-4.892,1.031,15.414,15.414,0,0,0-4.092,2.742,5.274,5.274,0,0,0-1.89,3.323,3.653,3.653,0,0,0,1.011,2.934,3.949,3.949,0,0,0,1.307.948,5.51,5.51,0,0,0,1.695.4,7.538,7.538,0,0,0,2.3-.2,15.291,15.291,0,0,0,6.3-3.405Zm-7.57,1.995a3.817,3.817,0,0,1-1.763-.006,2.623,2.623,0,0,1-1.2-.739,2.022,2.022,0,0,1-.583-1.66,3.5,3.5,0,0,1,1.267-2.021,18.889,18.889,0,0,1,3.552-2.453,8.807,8.807,0,0,1,4.187-1.332,2.57,2.57,0,0,1,2.019.755,1.993,1.993,0,0,1,.474,2.062,4.183,4.183,0,0,1-1.248,1.789,15.959,15.959,0,0,1-2.923,2.024A12.817,12.817,0,0,1,456.581,1007.083Z" transform="translate(-247.326 -709.181)" fill="#21409a"/>
        <path id="Trazado_112022" data-name="Trazado 112022" d="M455.113,995.509a5.51,5.51,0,0,0,1.972-3.523,3.979,3.979,0,0,0-1.108-3.165,4.487,4.487,0,0,0-3.477-1.453,6.171,6.171,0,0,0-4.272,1.75,4.3,4.3,0,0,0-1.516,2.924,3.7,3.7,0,0,0,1.062,2.824,3.86,3.86,0,0,0,1.265.889,6.084,6.084,0,0,0,1.743.465,10.706,10.706,0,0,1-2.188.923,5.069,5.069,0,0,1-2.351.247,2.706,2.706,0,0,1-1.59-.771,1.8,1.8,0,0,1-.51-1.328,2.884,2.884,0,0,1,.805-1.688l-1.278-1.13a4.086,4.086,0,0,0-1.231,2.645,3.384,3.384,0,0,0,1,2.455,4.63,4.63,0,0,0,1.956,1.28,6.231,6.231,0,0,0,2.572.2,10.417,10.417,0,0,0,3.23-.963A14.655,14.655,0,0,0,455.113,995.509Zm-6.005-1.363a2.345,2.345,0,0,1-.63-1.866,3.089,3.089,0,0,1,1.079-2.024,4.653,4.653,0,0,1,1.909-1.051,4.052,4.052,0,0,1,2.046-.127,2.626,2.626,0,0,1,1.375.709,2.331,2.331,0,0,1,.577,1.867,3.011,3.011,0,0,1-1.01,2.008,4.453,4.453,0,0,1-2.938,1.32A2.994,2.994,0,0,1,449.108,994.147Z" transform="translate(-246.386 -708.156)" fill="#21409a"/>
        <path id="Trazado_112023" data-name="Trazado 112023" d="M594.4,1097.1a4.324,4.324,0,0,1-.549-2.529,2.6,2.6,0,0,1,1-1.7,2.445,2.445,0,0,1,1.85-.53,2.361,2.361,0,0,1,1.646.931,2.717,2.717,0,0,1,.508,1.036,5.671,5.671,0,0,1,.081,1.908,22.7,22.7,0,0,1-.516,2.552q-.711,2.964-.874,4.114a7.53,7.53,0,0,0-.005,2.171,7.93,7.93,0,0,0,.749,2.247l7.018-5.459-.755-1.551-5.268,4.1a6.416,6.416,0,0,1-.01-1.643,21.544,21.544,0,0,1,.516-2.645,28.248,28.248,0,0,0,.953-5.005,4.624,4.624,0,0,0-.921-2.906,4.1,4.1,0,0,0-1.621-1.241,3.562,3.562,0,0,0-2.137-.22,4.981,4.981,0,0,0-2.144,1,4.588,4.588,0,0,0-1.807,2.854,4.907,4.907,0,0,0,.7,3.417Z" transform="translate(-261.863 -718.841)" fill="#21409a"/>
        <path id="Trazado_112024" data-name="Trazado 112024" d="M604.564,1088.807a3.418,3.418,0,0,1-.447-2.224,2.581,2.581,0,0,1,.962-1.657,2.31,2.31,0,0,1,1.775-.49,2.352,2.352,0,0,1,1.612.937,2.441,2.441,0,0,1,.488,2.011,3.5,3.5,0,0,1-1.443,2.1,3.315,3.315,0,0,1-.426.279l.693,1.406c.219-.205.367-.333.441-.395a2.752,2.752,0,0,1,2.015-.656,2.408,2.408,0,0,1,1.7.976,3.054,3.054,0,0,1,.591,2.375,3.245,3.245,0,0,1-1.259,2.218,2.51,2.51,0,0,1-1.857.587,3.745,3.745,0,0,1-2.09-1.217l-1.276,1.276a4.364,4.364,0,0,0,2.955,1.535,4.655,4.655,0,0,0,3.279-1.112,4.939,4.939,0,0,0,1.929-3.362,4.71,4.71,0,0,0-.949-3.664,3.246,3.246,0,0,0-1.372-1.06,3.622,3.622,0,0,0-1.8-.185,4.527,4.527,0,0,0,.56-2.287,3.481,3.481,0,0,0-.777-2,3.662,3.662,0,0,0-2.569-1.457,4.059,4.059,0,0,0-3.023.946,4.7,4.7,0,0,0-1.758,2.643,5,5,0,0,0,.391,3.3Z" transform="translate(-262.933 -718.019)" fill="#21409a"/>
        <path id="Trazado_112025" data-name="Trazado 112025" d="M611.219,1034.7l.011-.008c-1.317-2.042-132.089-204.74-152.545-235.487-12.758-19.183-41.15-74.475-41.436-75.032h0a.937.937,0,0,0-.238-.3.947.947,0,0,0-1.331.129c-16.945,20.59-28.69,20.062-43.255,12.2-20.677-11.168-37.812-26.787-55.952-43.322-5.892-5.37-11.984-10.924-18.24-16.348l-.687-.6L224.31,753.986l-.546.581.481.636c.2.27,10.735,14.2,22.9,29.831a.9.9,0,0,0,.067.085c11.507,14.781,24.462,31.058,31.527,38.741,14.525,15.794,250.985,269.8,253.372,272.367a.94.94,0,0,0,1.336.046c.009-.007.013-.021.022-.03a.614.614,0,0,0,.083-.045l77.463-60.248A.936.936,0,0,0,611.219,1034.7ZM249.356,784.792l78.524-38.96,1.282,1.613-78.455,39.081Q250.029,785.655,249.356,784.792Zm80.255-39.82,29.451-14.612q.947.627,1.9,1.243l-30.072,14.98Zm-76.1-19.343c7.283,9.177,14.649,19.624,18.3,24.9l-27-15.633Zm-10.023,10.683,34.544,20-2.294-3.4c-.106-.158-10.621-15.727-20.919-28.677l42.862-45.679c6,5.22,11.852,10.555,17.519,15.721,13.912,12.681,27.24,24.817,42.053,34.872l-28.843,14.31-39.592-49.805a.945.945,0,1,0-1.479,1.175l39.34,49.489L248.171,783.27c-10.539-13.548-19.764-25.7-21.938-28.571Zm8.409,51.732,78.47-39.089,27.087,34.076-3.558,2.829,17.046,12.622-8.45-19.454-3.559,2.829L332.094,748.1l30.638-15.262c.03-.016.05-.043.079-.061,2.841,1.777,5.737,3.484,8.715,5.093,14.78,7.982,27.473,8.8,44.691-11.567,4.32,8.377,29.157,56.305,40.894,73.953,19.832,29.808,143.418,221.341,152.063,234.738l-76.263,59.317C519.727,1080.145,294.3,837.986,280.134,822.58,273.747,815.636,262.507,801.608,251.9,788.044Z" transform="translate(-223.764 -675.938)" fill="#21409a"/>
      </g>
      <g id="Grupo_57184" data-name="Grupo 57184" transform="translate(322.947)">
        <path id="Trazado_112026" data-name="Trazado 112026" d="M752.951,748.258c-17.305-25.79-20.516-74.641-20.546-75.133l-.056-.886H601.968v81.8h14.681c-.022,7.216-.039,11.765-.039,11.905-.931,10.17-12.094,16.069-31.434,16.612a.929.929,0,0,0-.783.489.942.942,0,0,0-.4.965c.119.612,11.933,61.357,13.639,84.33,2.7,36.379,23.434,271.321,24.142,279.337a.926.926,0,0,0-.026.127.944.944,0,0,0,.945.945l98.173-.006a.709.709,0,0,0,.086-.019c.02,0,.034.013.053.015s.049,0,.074,0a.946.946,0,0,0,.941-.871l31.088-399.015.026-.327Zm-136.316,3.526a.921.921,0,0,0-.177.366h-12.6V674.13h12.754q.012,1.825.023,3.733ZM720.2,1146.853l-96.607.008c-1.4-15.816-21.434-242.954-24.082-278.661-1.61-21.675-12.142-76.652-13.52-83.785,26.87-.958,31.905-11.847,32.5-18.38,0-.155.018-4.342.039-11.041l5.19,5.52-3.312,3.114,18.035,11.162-10.034-18.684L625.1,759.22l-4.869-5.179h9.081V737.231a.945.945,0,0,0-1.891,0V752.15h-8.88c.053-18.271.114-50.8-.016-74.258V674.13h65.851a.943.943,0,0,0-.048.241v8.539l-1.21-1.783a.945.945,0,0,0-1.564,1.062l2.183,3.215v.359l-2.183,3.215a.945.945,0,1,0,1.564,1.062l1.21-1.783v82.1h-4.546l5.491,20.486,5.49-20.486h-4.546V700.6a.776.776,0,0,0,.019-.091V689.085l.646.954a.949.949,0,0,0,.783.414.946.946,0,0,0,.782-1.476l-1.615-2.379H693.2a4.015,4.015,0,1,0-.143-1.89h-6.321l1.711-2.52a.945.945,0,0,0-1.564-1.062l-.646.953v-4a.706.706,0,0,0-.019-.091v-3.621a.946.946,0,0,0-.048-.241h44.415c.524,6.776,4.483,50.578,20.617,74.906ZM694.877,685.374a2.139,2.139,0,1,1,2.139,2.138A2.143,2.143,0,0,1,694.877,685.374Z" transform="translate(-583.975 -672.24)" fill="#21409a"/>
        <path id="Trazado_112027" data-name="Trazado 112027" d="M733.369,1077.633a14.612,14.612,0,0,0-4.687-1.2,5.582,5.582,0,0,0-3.934.889,3.916,3.916,0,0,0-1.61,2.929,4.485,4.485,0,0,0,1.245,3.564,6.138,6.138,0,0,0,4.145,1.989,4.168,4.168,0,0,0,3.5-1.127,3.64,3.64,0,0,0,1.109-2.341,3.809,3.809,0,0,0-.169-1.482,7.794,7.794,0,0,0-.841-1.707,8.155,8.155,0,0,1,3.655,2.263,2.706,2.706,0,0,1,.744,2.021,1.771,1.771,0,0,1-.628,1.225,3.021,3.021,0,0,1-1.824.558l.03,1.726a4.008,4.008,0,0,0,2.776-.867,3.445,3.445,0,0,0,1.161-2.426,4.665,4.665,0,0,0-.818-3.08A8.765,8.765,0,0,0,733.369,1077.633Zm-2.628,5.833a3.212,3.212,0,0,1-2.277.554,5,5,0,0,1-1.415-.368,4.246,4.246,0,0,1-1.374-.866,3.651,3.651,0,0,1-.857-1.163,2.445,2.445,0,0,1-.223-1.214,2.368,2.368,0,0,1,.472-1.2,2.515,2.515,0,0,1,1.173-.87,3.577,3.577,0,0,1,1.6-.223,4.527,4.527,0,0,1,2.057.711,4.145,4.145,0,0,1,1.429,1.407,2.637,2.637,0,0,1,.389,1.544A2.3,2.3,0,0,1,730.741,1083.466Z" transform="translate(-598.37 -714.05)" fill="#21409a"/>
        <path id="Trazado_112028" data-name="Trazado 112028" d="M726.537,1062.644l-1.645-.481-.788,9.432,1.643.491.617-7.364a21.4,21.4,0,0,0,4,3.741,28.963,28.963,0,0,0,4.817,2.879,19.439,19.439,0,0,0,3.5,1.329l.159-1.9a27.817,27.817,0,0,1-7.228-3.476A19.434,19.434,0,0,1,726.537,1062.644Z" transform="translate(-598.472 -712.578)" fill="#21409a"/>
        <path id="Trazado_112029" data-name="Trazado 112029" d="M635.774,1075.536a8.742,8.742,0,0,0-4.3-2.219,14.539,14.539,0,0,0-4.826-.376,5.572,5.572,0,0,0-3.722,1.556,3.92,3.92,0,0,0-1.079,3.162,4.5,4.5,0,0,0,1.841,3.3,6.14,6.14,0,0,0,4.426,1.242,4.174,4.174,0,0,0,3.256-1.716,3.635,3.635,0,0,0,.688-2.5,3.824,3.824,0,0,0-.425-1.429,7.794,7.794,0,0,0-1.123-1.537,8.144,8.144,0,0,1,3.991,1.6,2.712,2.712,0,0,1,1.083,1.86,1.753,1.753,0,0,1-.409,1.315,3,3,0,0,1-1.7.864l.326,1.7a4.01,4.01,0,0,0,2.586-1.336,3.446,3.446,0,0,0,.726-2.587A4.674,4.674,0,0,0,635.774,1075.536Zm-5.215,2.146a2.3,2.3,0,0,1-.667,1.833,3.212,3.212,0,0,1-2.149.942,5.026,5.026,0,0,1-1.457-.118,4.336,4.336,0,0,1-1.5-.615,3.7,3.7,0,0,1-1.044-1,2.429,2.429,0,0,1-.429-1.161,2.38,2.38,0,0,1,.255-1.267,2.535,2.535,0,0,1,1.006-1.059,3.556,3.556,0,0,1,1.538-.495,4.507,4.507,0,0,1,2.148.343,4.156,4.156,0,0,1,1.651,1.139A2.646,2.646,0,0,1,630.558,1077.682Z" transform="translate(-587.891 -713.687)" fill="#21409a"/>
        <path id="Trazado_112030" data-name="Trazado 112030" d="M624.112,1068.414a15.232,15.232,0,0,0,7.06,1.178,5.6,5.6,0,0,0,3.687-1.487,3.6,3.6,0,0,0,1.05-2.921,4.353,4.353,0,0,0-1.339-2.794,9.29,9.29,0,0,0-4.493-2.192,15.563,15.563,0,0,0-4.915-.347,5.271,5.271,0,0,0-3.531,1.463,3.663,3.663,0,0,0-1,2.939,3.986,3.986,0,0,0,.451,1.548,5.553,5.553,0,0,0,1.092,1.357A7.588,7.588,0,0,0,624.112,1068.414Zm-1.466-5.972a3.491,3.491,0,0,1,2.24-.818,18.889,18.889,0,0,1,4.312.245,8.812,8.812,0,0,1,4.122,1.519,2.571,2.571,0,0,1,1.13,1.836,1.994,1.994,0,0,1-.892,1.919,4.2,4.2,0,0,1-2.084.644,16,16,0,0,1-3.55-.2,12.909,12.909,0,0,1-3.956-1.072,3.864,3.864,0,0,1-1.388-1.086,2.648,2.648,0,0,1-.495-1.323A2.028,2.028,0,0,1,622.646,1062.442Z" transform="translate(-587.765 -712.333)" fill="#21409a"/>
        <path id="Trazado_112031" data-name="Trazado 112031" d="M684.029,1177.787a4.979,4.979,0,0,0-2.305-.528,4.585,4.585,0,0,0-3.18,1.143,4.905,4.905,0,0,0-1.54,3.128l1.8.265a4.324,4.324,0,0,1,1.119-2.335,2.614,2.614,0,0,1,1.832-.726,2.449,2.449,0,0,1,1.786.716,2.358,2.358,0,0,1,.727,1.745,2.7,2.7,0,0,1-.234,1.129,5.642,5.642,0,0,1-1.108,1.557,22.967,22.967,0,0,1-1.973,1.7q-2.383,1.9-3.216,2.712A7.469,7.469,0,0,0,676.4,1190a8.013,8.013,0,0,0-.789,2.233H684.5l.356-1.689h-6.675a6.4,6.4,0,0,1,1-1.3,21.224,21.224,0,0,1,2.03-1.769,28.16,28.16,0,0,0,3.826-3.368,4.631,4.631,0,0,0,1.058-2.86,4.082,4.082,0,0,0-.52-1.973A3.567,3.567,0,0,0,684.029,1177.787Z" transform="translate(-593.455 -724.485)" fill="#21409a"/>
        <path id="Trazado_112032" data-name="Trazado 112032" d="M695.126,1177.259a3.981,3.981,0,0,0-1.592.308,5.549,5.549,0,0,0-1.461.973,7.7,7.7,0,0,0-1.434,1.83,15.387,15.387,0,0,0-1.821,6.971,5.647,5.647,0,0,0,1.155,3.83,3.62,3.62,0,0,0,2.834,1.317,4.381,4.381,0,0,0,2.919-1.088,9.344,9.344,0,0,0,2.6-4.3,15.591,15.591,0,0,0,.794-4.893,5.323,5.323,0,0,0-1.144-3.673A3.681,3.681,0,0,0,695.126,1177.259Zm1.613,8.806a8.9,8.9,0,0,1-1.9,3.992,2.591,2.591,0,0,1-1.944.967,2,2,0,0,1-1.842-1.069,4.237,4.237,0,0,1-.457-2.146,16.243,16.243,0,0,1,.518-3.54,12.993,12.993,0,0,1,1.435-3.866,3.832,3.832,0,0,1,1.215-1.293,2.65,2.65,0,0,1,1.369-.376,2.041,2.041,0,0,1,1.622.711,3.526,3.526,0,0,1,.617,2.319A19.116,19.116,0,0,1,696.739,1186.065Z" transform="translate(-594.821 -724.485)" fill="#21409a"/>
      </g>
    </g>
    <g id="Grupo_57249" data-name="Grupo 57249" transform="translate(237.247 829.255)">
      <g id="Grupo_57186" data-name="Grupo 57186" transform="translate(234.09 264.997)">
        <path id="Trazado_112033" data-name="Trazado 112033" d="M519.3,1158.982a3.215,3.215,0,0,1,.5,1.666,3.072,3.072,0,0,1-.416,1.566,3.849,3.849,0,0,1-2.127,1.7,4.974,4.974,0,0,1-6.067-2.917,3.443,3.443,0,0,1,.316-2.836,3.393,3.393,0,0,1,1.533-1.412,4.135,4.135,0,0,1,2.385-.254,3.9,3.9,0,0,1-.52-1.695,3.671,3.671,0,0,1,.539-1.94,5.23,5.23,0,0,1,3.055-2.413,4.924,4.924,0,0,1,4.112.541,4.283,4.283,0,0,1,2.107,2.577,3.932,3.932,0,0,1-.427,3.148,4.747,4.747,0,0,1-2.168,2.041A4.194,4.194,0,0,1,519.3,1158.982Zm-1.461,2.241a2.05,2.05,0,0,0,.239-1.664,2.386,2.386,0,0,0-1.189-1.374,2.85,2.85,0,0,0-2.187-.365,2.558,2.558,0,0,0-1.65,1.256,2.072,2.072,0,0,0-.242,1.664,2.371,2.371,0,0,0,1.183,1.382,3.09,3.09,0,0,0,1.5.428,2.453,2.453,0,0,0,1.408-.383A2.845,2.845,0,0,0,517.839,1161.224Zm4.907-5.582a2.537,2.537,0,0,0,.34-1.2,2.212,2.212,0,0,0-.339-1.258,2.9,2.9,0,0,0-1.053-1,2.838,2.838,0,0,0-2.838,0,4.238,4.238,0,0,0-1.843,1.709,2.3,2.3,0,0,0-.268,1.833,2.461,2.461,0,0,0,1.222,1.481,3.125,3.125,0,0,0,2.578.288A3.807,3.807,0,0,0,522.746,1155.642Z" transform="translate(-501.054 -1144.811)"/>
        <path id="Trazado_112034" data-name="Trazado 112034" d="M511.865,1145.126l-7.784,8.685a11.87,11.87,0,0,1,4.742.491l-1.149,1.288a15.215,15.215,0,0,0-3.107-.117,13.977,13.977,0,0,0-2.547.338,5.543,5.543,0,0,0-1.178.474l-.937-.543,10.337-11.555Z" transform="translate(-499.904 -1144.187)"/>
      </g>
      <g id="Grupo_57248" data-name="Grupo 57248">
        <g id="Grupo_57202" data-name="Grupo 57202" transform="translate(0.398 157.348)">
          <path id="Trazado_112035" data-name="Trazado 112035" d="M251.944,1031.877a.5.5,0,0,1-.23-.059L239.489,1025a.472.472,0,0,1,.461-.824l12.225,6.817a.472.472,0,0,1-.231.884Z" transform="translate(-239.247 -1024.116)" fill="#231f20"/>
          <g id="Grupo_57187" data-name="Grupo 57187" transform="translate(13.904 6.889)">
            <path id="Trazado_112036" data-name="Trazado 112036" d="M255.545,1033.336a1.692,1.692,0,1,1,.549,2.466A1.793,1.793,0,0,1,255.545,1033.336Z" transform="translate(-254.81 -1031.853)" fill="#231f20"/>
            <path id="Trazado_112037" data-name="Trazado 112037" d="M256.785,1036.415a2,2,0,0,1-.977-.253,2.266,2.266,0,0,1-.73-3.108,2.309,2.309,0,0,1,3.029-1.014,2.267,2.267,0,0,1,.731,3.109A2.386,2.386,0,0,1,256.785,1036.415Zm.346-3.682a1.462,1.462,0,0,0-1.227.78,1.326,1.326,0,0,0,.365,1.825,1.36,1.36,0,0,0,1.744-.648,1.326,1.326,0,0,0-.365-1.824A1.055,1.055,0,0,0,257.131,1032.732Z" transform="translate(-254.755 -1031.8)" fill="#231f20"/>
          </g>
          <path id="Trazado_112038" data-name="Trazado 112038" d="M273.184,1043.722a.463.463,0,0,1-.23-.061l-12.224-6.816a.472.472,0,1,1,.461-.824l12.224,6.816a.473.473,0,0,1-.23.886Z" transform="translate(-241.444 -1025.341)" fill="#231f20"/>
          <g id="Grupo_57188" data-name="Grupo 57188" transform="translate(32.947 17.509)">
            <path id="Trazado_112039" data-name="Trazado 112039" d="M276.786,1045.181a1.691,1.691,0,1,1,.546,2.466A1.792,1.792,0,0,1,276.786,1045.181Z" transform="translate(-276.051 -1043.698)" fill="#231f20"/>
            <path id="Trazado_112040" data-name="Trazado 112040" d="M278.024,1048.259a2,2,0,0,1-.976-.252,2.267,2.267,0,0,1-.729-3.108,2.31,2.31,0,0,1,3.029-1.015,2.05,2.05,0,0,1,1,1.371,2.477,2.477,0,0,1-.27,1.739A2.385,2.385,0,0,1,278.024,1048.259Zm.347-3.681a1.459,1.459,0,0,0-1.226.78,1.326,1.326,0,0,0,.364,1.824,1.358,1.358,0,0,0,1.744-.647,1.536,1.536,0,0,0,.172-1.075,1.127,1.127,0,0,0-.537-.752A1.046,1.046,0,0,0,278.371,1044.577Z" transform="translate(-275.996 -1043.645)" fill="#231f20"/>
          </g>
          <path id="Trazado_112041" data-name="Trazado 112041" d="M294.425,1055.565a.467.467,0,0,1-.23-.06l-12.224-6.815a.473.473,0,0,1,.46-.827l12.225,6.817a.472.472,0,0,1-.23.884Z" transform="translate(-243.642 -1026.566)" fill="#231f20"/>
          <g id="Grupo_57189" data-name="Grupo 57189" transform="translate(51.988 28.125)">
            <path id="Trazado_112042" data-name="Trazado 112042" d="M298.025,1057.026a1.691,1.691,0,1,1,.548,2.464A1.792,1.792,0,0,1,298.025,1057.026Z" transform="translate(-297.289 -1055.54)" fill="#231f20"/>
            <path id="Trazado_112043" data-name="Trazado 112043" d="M299.266,1060.1a2,2,0,0,1-.977-.255,2.038,2.038,0,0,1-1-1.371,2.459,2.459,0,0,1,.27-1.735,2.306,2.306,0,0,1,3.029-1.017,2.268,2.268,0,0,1,.73,3.11A2.384,2.384,0,0,1,299.266,1060.1Zm.347-3.684a1.465,1.465,0,0,0-1.228.782,1.528,1.528,0,0,0-.172,1.074,1.108,1.108,0,0,0,.536.749,1.356,1.356,0,0,0,1.745-.647,1.325,1.325,0,0,0-.366-1.824A1.043,1.043,0,0,0,299.613,1056.419Z" transform="translate(-297.234 -1055.486)" fill="#231f20"/>
          </g>
          <path id="Trazado_112044" data-name="Trazado 112044" d="M315.665,1067.411a.473.473,0,0,1-.23-.063l-12.224-6.815a.472.472,0,1,1,.46-.825l12.224,6.815a.474.474,0,0,1-.23.887Z" transform="translate(-245.839 -1027.792)" fill="#231f20"/>
          <g id="Grupo_57190" data-name="Grupo 57190" transform="translate(71.034 38.732)">
            <path id="Trazado_112045" data-name="Trazado 112045" d="M319.266,1068.868a1.691,1.691,0,1,1,.548,2.466A1.794,1.794,0,0,1,319.266,1068.868Z" transform="translate(-318.531 -1067.372)" fill="#231f20"/>
            <path id="Trazado_112046" data-name="Trazado 112046" d="M320.507,1071.946a1.99,1.99,0,0,1-.977-.254,2.265,2.265,0,0,1-.73-3.108,2.385,2.385,0,0,1,2.053-1.267,2.017,2.017,0,0,1,.975.253,2.044,2.044,0,0,1,1,1.373,2.46,2.46,0,0,1-.27,1.737A2.385,2.385,0,0,1,320.507,1071.946Zm.346-3.682a1.463,1.463,0,0,0-1.228.779,1.327,1.327,0,0,0,.365,1.825,1.357,1.357,0,0,0,1.743-.646,1.531,1.531,0,0,0,.173-1.075,1.115,1.115,0,0,0-.537-.751A1.039,1.039,0,0,0,320.853,1068.264Z" transform="translate(-318.477 -1067.317)" fill="#231f20"/>
          </g>
          <path id="Trazado_112047" data-name="Trazado 112047" d="M336.905,1079.253a.462.462,0,0,1-.229-.06l-12.224-6.816a.473.473,0,0,1,.461-.826l12.224,6.817a.472.472,0,0,1-.231.884Z" transform="translate(-248.036 -1029.017)" fill="#231f20"/>
          <g id="Grupo_57191" data-name="Grupo 57191" transform="translate(90.076 49.35)">
            <path id="Trazado_112048" data-name="Trazado 112048" d="M340.507,1080.714a1.691,1.691,0,1,1,.548,2.466A1.794,1.794,0,0,1,340.507,1080.714Z" transform="translate(-339.771 -1079.215)" fill="#231f20"/>
            <path id="Trazado_112049" data-name="Trazado 112049" d="M341.747,1083.789a2.014,2.014,0,0,1-.976-.251,2.266,2.266,0,0,1-.731-3.108,2.386,2.386,0,0,1,2.052-1.27,2.01,2.01,0,0,1,.977.254,2.046,2.046,0,0,1,1,1.372,2.477,2.477,0,0,1-.27,1.739A2.385,2.385,0,0,1,341.747,1083.789Zm.345-3.682a1.462,1.462,0,0,0-1.227.782,1.326,1.326,0,0,0,.365,1.825,1.358,1.358,0,0,0,1.744-.65,1.527,1.527,0,0,0,.172-1.072,1.124,1.124,0,0,0-.537-.752A1.059,1.059,0,0,0,342.092,1080.107Z" transform="translate(-339.717 -1079.16)" fill="#231f20"/>
          </g>
          <path id="Trazado_112050" data-name="Trazado 112050" d="M358.145,1091.1a.461.461,0,0,1-.229-.059l-12.224-6.818a.472.472,0,0,1,.46-.825l12.225,6.818a.472.472,0,0,1-.231.884Z" transform="translate(-250.234 -1030.242)" fill="#231f20"/>
          <g id="Grupo_57192" data-name="Grupo 57192" transform="translate(109.117 59.983)">
            <path id="Trazado_112051" data-name="Trazado 112051" d="M361.747,1092.557a1.691,1.691,0,1,1,.548,2.466A1.8,1.8,0,0,1,361.747,1092.557Z" transform="translate(-361.01 -1091.074)" fill="#231f20"/>
            <path id="Trazado_112052" data-name="Trazado 112052" d="M362.987,1095.636a2.008,2.008,0,0,1-.977-.254,2.046,2.046,0,0,1-1-1.372,2.474,2.474,0,0,1,.269-1.737,2.313,2.313,0,0,1,3.029-1.016,2.045,2.045,0,0,1,1,1.374,2.462,2.462,0,0,1-.269,1.737A2.388,2.388,0,0,1,362.987,1095.636Zm.345-3.683a1.462,1.462,0,0,0-1.228.78,1.532,1.532,0,0,0-.171,1.072,1.121,1.121,0,0,0,.537.752,1.356,1.356,0,0,0,1.744-.648,1.533,1.533,0,0,0,.172-1.074,1.121,1.121,0,0,0-.537-.752A1.046,1.046,0,0,0,363.333,1091.953Z" transform="translate(-360.955 -1091.021)" fill="#231f20"/>
          </g>
          <path id="Trazado_112053" data-name="Trazado 112053" d="M379.386,1102.943a.481.481,0,0,1-.23-.06l-12.224-6.816a.473.473,0,0,1,.461-.827l12.224,6.817a.473.473,0,0,1-.231.886Z" transform="translate(-252.431 -1031.468)" fill="#231f20"/>
          <g id="Grupo_57193" data-name="Grupo 57193" transform="translate(128.163 70.603)">
            <path id="Trazado_112054" data-name="Trazado 112054" d="M382.988,1104.4a1.691,1.691,0,1,1,.547,2.466A1.792,1.792,0,0,1,382.988,1104.4Z" transform="translate(-382.253 -1102.919)" fill="#231f20"/>
            <path id="Trazado_112055" data-name="Trazado 112055" d="M384.228,1107.479a2.012,2.012,0,0,1-.977-.253,2.266,2.266,0,0,1-.729-3.109,2.309,2.309,0,0,1,3.029-1.013,2.266,2.266,0,0,1,.73,3.11A2.384,2.384,0,0,1,384.228,1107.479Zm.346-3.684a1.464,1.464,0,0,0-1.227.782,1.328,1.328,0,0,0,.365,1.825,1.357,1.357,0,0,0,1.743-.649,1.326,1.326,0,0,0-.364-1.825A1.039,1.039,0,0,0,384.574,1103.8Z" transform="translate(-382.198 -1102.866)" fill="#231f20"/>
          </g>
          <path id="Trazado_112056" data-name="Trazado 112056" d="M400.627,1114.786a.462.462,0,0,1-.23-.06l-12.224-6.816a.472.472,0,0,1,.461-.825l12.224,6.816a.472.472,0,0,1-.23.885Z" transform="translate(-254.629 -1032.693)" fill="#231f20"/>
          <path id="Trazado_112057" data-name="Trazado 112057" d="M421.868,1126.631a.482.482,0,0,1-.23-.06l-12.225-6.817a.472.472,0,0,1,.46-.825l12.224,6.815a.473.473,0,0,1-.23.887Z" transform="translate(-256.826 -1033.918)" fill="#231f20"/>
          <g id="Grupo_57194" data-name="Grupo 57194" transform="translate(166.247 91.839)">
            <path id="Trazado_112058" data-name="Trazado 112058" d="M425.469,1128.089a1.691,1.691,0,1,1,.547,2.467A1.79,1.79,0,0,1,425.469,1128.089Z" transform="translate(-424.732 -1126.605)" fill="#231f20"/>
            <path id="Trazado_112059" data-name="Trazado 112059" d="M426.708,1131.167a2.015,2.015,0,0,1-.977-.252,2.045,2.045,0,0,1-1-1.371,2.467,2.467,0,0,1,.27-1.737,2.307,2.307,0,0,1,3.028-1.015,2.051,2.051,0,0,1,1,1.372,2.468,2.468,0,0,1-.269,1.738A2.384,2.384,0,0,1,426.708,1131.167Zm.348-3.682a1.464,1.464,0,0,0-1.229.782,1.522,1.522,0,0,0-.171,1.072,1.116,1.116,0,0,0,.536.752,1.357,1.357,0,0,0,1.745-.65,1.528,1.528,0,0,0,.171-1.072,1.116,1.116,0,0,0-.537-.752A1.049,1.049,0,0,0,427.056,1127.484Z" transform="translate(-424.677 -1126.552)" fill="#231f20"/>
          </g>
          <path id="Trazado_112060" data-name="Trazado 112060" d="M443.108,1138.474a.474.474,0,0,1-.23-.059l-12.224-6.818a.472.472,0,0,1,.459-.825l12.225,6.818a.472.472,0,0,1-.23.884Z" transform="translate(-259.023 -1035.143)" fill="#231f20"/>
          <g id="Grupo_57195" data-name="Grupo 57195" transform="translate(185.292 102.459)">
            <path id="Trazado_112061" data-name="Trazado 112061" d="M446.709,1139.933a1.691,1.691,0,1,1,.547,2.466A1.793,1.793,0,0,1,446.709,1139.933Z" transform="translate(-445.973 -1138.45)" fill="#231f20"/>
            <path id="Trazado_112062" data-name="Trazado 112062" d="M447.949,1143.012a2.01,2.01,0,0,1-.977-.253,2.265,2.265,0,0,1-.729-3.109,2.31,2.31,0,0,1,3.029-1.013,2.265,2.265,0,0,1,.73,3.108A2.382,2.382,0,0,1,447.949,1143.012Zm.347-3.683a1.457,1.457,0,0,0-1.228.783,1.323,1.323,0,0,0,.366,1.823,1.356,1.356,0,0,0,1.743-.648,1.325,1.325,0,0,0-.366-1.825A1.044,1.044,0,0,0,448.3,1139.329Z" transform="translate(-445.919 -1138.397)" fill="#231f20"/>
          </g>
          <path id="Trazado_112063" data-name="Trazado 112063" d="M464.349,1150.319a.468.468,0,0,1-.23-.062l-12.225-6.816a.472.472,0,1,1,.461-.824l12.224,6.816a.473.473,0,0,1-.229.886Z" transform="translate(-261.22 -1036.369)" fill="#231f20"/>
          <g id="Grupo_57196" data-name="Grupo 57196" transform="translate(204.333 113.065)">
            <path id="Trazado_112064" data-name="Trazado 112064" d="M467.949,1151.777a1.691,1.691,0,1,1,.547,2.466A1.792,1.792,0,0,1,467.949,1151.777Z" transform="translate(-467.212 -1150.282)" fill="#231f20"/>
            <path id="Trazado_112065" data-name="Trazado 112065" d="M469.19,1154.856a1.994,1.994,0,0,1-.976-.255,2.048,2.048,0,0,1-1-1.371,2.476,2.476,0,0,1,.27-1.739,2.383,2.383,0,0,1,2.052-1.265,2.015,2.015,0,0,1,.977.252,2.266,2.266,0,0,1,.73,3.11A2.383,2.383,0,0,1,469.19,1154.856Zm.345-3.686a1.464,1.464,0,0,0-1.227.782,1.53,1.53,0,0,0-.171,1.073,1.117,1.117,0,0,0,.536.751,1.36,1.36,0,0,0,1.745-.646,1.326,1.326,0,0,0-.366-1.824A1.039,1.039,0,0,0,469.535,1151.17Z" transform="translate(-467.157 -1150.227)" fill="#231f20"/>
          </g>
          <path id="Trazado_112066" data-name="Trazado 112066" d="M485.589,1162.163a.462.462,0,0,1-.229-.06l-12.225-6.815a.472.472,0,1,1,.46-.825l12.224,6.815a.472.472,0,0,1-.23.885Z" transform="translate(-263.418 -1037.594)" fill="#231f20"/>
          <g id="Grupo_57197" data-name="Grupo 57197" transform="translate(223.376 123.696)">
            <path id="Trazado_112067" data-name="Trazado 112067" d="M489.19,1163.622a1.691,1.691,0,1,1,.548,2.465A1.794,1.794,0,0,1,489.19,1163.622Z" transform="translate(-488.453 -1162.139)" fill="#231f20"/>
            <path id="Trazado_112068" data-name="Trazado 112068" d="M490.429,1166.7a1.993,1.993,0,0,1-.977-.254,2.04,2.04,0,0,1-1-1.371,2.461,2.461,0,0,1,.27-1.736,2.308,2.308,0,0,1,3.028-1.015,2.265,2.265,0,0,1,.732,3.108A2.385,2.385,0,0,1,490.429,1166.7Zm.348-3.683a1.468,1.468,0,0,0-1.229.782,1.531,1.531,0,0,0-.172,1.073,1.113,1.113,0,0,0,.537.75,1.36,1.36,0,0,0,1.746-.646,1.328,1.328,0,0,0-.367-1.825A1.04,1.04,0,0,0,490.777,1163.017Z" transform="translate(-488.398 -1162.085)" fill="#231f20"/>
          </g>
          <path id="Trazado_112069" data-name="Trazado 112069" d="M506.831,1174.006a.466.466,0,0,1-.23-.059l-12.224-6.817a.472.472,0,0,1,.46-.825l12.224,6.817a.472.472,0,0,1-.23.884Z" transform="translate(-265.615 -1038.819)" fill="#231f20"/>
          <g id="Grupo_57198" data-name="Grupo 57198" transform="translate(242.423 134.314)">
            <path id="Trazado_112070" data-name="Trazado 112070" d="M510.432,1175.467a1.69,1.69,0,1,1,.547,2.465A1.794,1.794,0,0,1,510.432,1175.467Z" transform="translate(-509.697 -1173.981)" fill="#231f20"/>
            <path id="Trazado_112071" data-name="Trazado 112071" d="M511.673,1178.544a2.007,2.007,0,0,1-.978-.254,2.265,2.265,0,0,1-.729-3.108,2.308,2.308,0,0,1,3.029-1.015,2.268,2.268,0,0,1,.731,3.11A2.386,2.386,0,0,1,511.673,1178.544Zm.345-3.682a1.459,1.459,0,0,0-1.227.782,1.322,1.322,0,0,0,.367,1.822,1.355,1.355,0,0,0,1.742-.647,1.327,1.327,0,0,0-.366-1.826A1.048,1.048,0,0,0,512.018,1174.862Z" transform="translate(-509.643 -1173.928)" fill="#231f20"/>
          </g>
          <path id="Trazado_112072" data-name="Trazado 112072" d="M528.072,1185.85a.462.462,0,0,1-.229-.06l-12.225-6.816a.473.473,0,0,1,.46-.827l12.224,6.818a.471.471,0,0,1,.183.642A.476.476,0,0,1,528.072,1185.85Z" transform="translate(-267.813 -1040.045)" fill="#231f20"/>
          <g id="Grupo_57199" data-name="Grupo 57199" transform="translate(261.466 144.934)">
            <path id="Trazado_112073" data-name="Trazado 112073" d="M531.672,1187.31a1.691,1.691,0,1,1,.547,2.467A1.793,1.793,0,0,1,531.672,1187.31Z" transform="translate(-530.938 -1185.826)" fill="#231f20"/>
            <path id="Trazado_112074" data-name="Trazado 112074" d="M532.911,1190.388a2.016,2.016,0,0,1-.975-.251,2.267,2.267,0,0,1-.73-3.109,2.309,2.309,0,0,1,3.029-1.015,2.266,2.266,0,0,1,.729,3.11A2.387,2.387,0,0,1,532.911,1190.388Zm.347-3.683a1.462,1.462,0,0,0-1.226.783,1.327,1.327,0,0,0,.364,1.824,1.362,1.362,0,0,0,1.744-.65,1.327,1.327,0,0,0-.365-1.824A1.052,1.052,0,0,0,533.258,1186.7Z" transform="translate(-530.883 -1185.773)" fill="#231f20"/>
          </g>
          <path id="Trazado_112075" data-name="Trazado 112075" d="M549.313,1197.7a.463.463,0,0,1-.23-.06l-12.225-6.817a.472.472,0,0,1,.461-.825l12.224,6.817a.473.473,0,0,1-.229.885Z" transform="translate(-270.01 -1041.27)" fill="#231f20"/>
          <g id="Grupo_57200" data-name="Grupo 57200" transform="translate(280.508 155.539)">
            <path id="Trazado_112076" data-name="Trazado 112076" d="M552.913,1199.153a1.691,1.691,0,1,1,.547,2.466A1.793,1.793,0,0,1,552.913,1199.153Z" transform="translate(-552.177 -1197.657)" fill="#231f20"/>
            <path id="Trazado_112077" data-name="Trazado 112077" d="M554.153,1202.232a2.011,2.011,0,0,1-.978-.255,2.051,2.051,0,0,1-.966-1.24,2.479,2.479,0,0,1,.238-1.867,2.383,2.383,0,0,1,2.052-1.268,2.007,2.007,0,0,1,.975.252,2.27,2.27,0,0,1,.731,3.112A2.385,2.385,0,0,1,554.153,1202.232Zm.346-3.684a1.458,1.458,0,0,0-1.227.782,1.527,1.527,0,0,0-.153,1.147,1.114,1.114,0,0,0,.517.675,1.355,1.355,0,0,0,1.744-.647,1.329,1.329,0,0,0-.365-1.826A1.04,1.04,0,0,0,554.5,1198.548Z" transform="translate(-552.122 -1197.602)" fill="#231f20"/>
          </g>
          <path id="Trazado_112078" data-name="Trazado 112078" d="M570.553,1209.54a.481.481,0,0,1-.23-.06l-12.224-6.816a.473.473,0,1,1,.458-.827l12.225,6.817a.473.473,0,0,1-.229.887Z" transform="translate(-272.207 -1042.495)" fill="#231f20"/>
          <g id="Grupo_57201" data-name="Grupo 57201" transform="translate(147.206 81.222)">
            <path id="Trazado_112079" data-name="Trazado 112079" d="M404.229,1116.244a1.691,1.691,0,1,1,.546,2.466A1.79,1.79,0,0,1,404.229,1116.244Z" transform="translate(-403.493 -1114.762)" fill="#231f20"/>
            <path id="Trazado_112080" data-name="Trazado 112080" d="M405.467,1119.323a1.99,1.99,0,0,1-.976-.254,2.264,2.264,0,0,1-.729-3.108,2.308,2.308,0,0,1,3.029-1.012,2.037,2.037,0,0,1,1,1.371,2.474,2.474,0,0,1-.27,1.737A2.385,2.385,0,0,1,405.467,1119.323Zm.347-3.682a1.46,1.46,0,0,0-1.227.781,1.322,1.322,0,0,0,.364,1.823,1.354,1.354,0,0,0,1.743-.646,1.538,1.538,0,0,0,.173-1.076,1.113,1.113,0,0,0-.537-.75A1.059,1.059,0,0,0,405.814,1115.641Z" transform="translate(-403.438 -1114.709)" fill="#231f20"/>
          </g>
        </g>
        <g id="Grupo_57219" data-name="Grupo 57219" transform="translate(29.149)">
          <path id="Trazado_112081" data-name="Trazado 112081" d="M271.375,875.7l340.906-26.012Z" transform="translate(-271.322 -848.723)" fill="#fff"/>
          <g id="Grupo_57218" data-name="Grupo 57218">
            <path id="Trazado_112082" data-name="Trazado 112082" d="M271.788,878.962a.472.472,0,0,1-.035-.943l13.956-1.066a.472.472,0,1,1,.072.942l-13.956,1.065Z" transform="translate(-271.315 -851.544)" fill="#231f20"/>
            <g id="Grupo_57203" data-name="Grupo 57203" transform="translate(16.167 23.224)">
              <path id="Trazado_112083" data-name="Trazado 112083" d="M289.881,877.057a1.691,1.691,0,1,1,1.818,1.755A1.794,1.794,0,0,1,289.881,877.057Z" transform="translate(-289.403 -874.57)" fill="#231f20"/>
              <path id="Trazado_112084" data-name="Trazado 112084" d="M291.53,879.234a2.288,2.288,0,0,1-2.174-2.2,2.472,2.472,0,0,1,.484-1.691,2.048,2.048,0,0,1,1.482-.827,2.269,2.269,0,0,1,2.326,2.191,2.474,2.474,0,0,1-.484,1.69,2.051,2.051,0,0,1-1.482.827C291.631,879.233,291.58,879.234,291.53,879.234Zm-.057-3.775a1.149,1.149,0,0,0-.881.46,1.533,1.533,0,0,0-.293,1.047,1.343,1.343,0,0,0,1.232,1.322l.079,0a1.118,1.118,0,0,0,.8-.457,1.528,1.528,0,0,0,.294-1.046A1.344,1.344,0,0,0,291.473,875.46Z" transform="translate(-289.348 -874.515)" fill="#231f20"/>
            </g>
            <path id="Trazado_112085" data-name="Trazado 112085" d="M296.037,877.111a.472.472,0,0,1-.035-.943l13.957-1.065a.472.472,0,0,1,.072.942l-13.957,1.065Z" transform="translate(-273.824 -851.353)" fill="#231f20"/>
            <g id="Grupo_57204" data-name="Grupo 57204" transform="translate(37.909 21.566)">
              <path id="Trazado_112086" data-name="Trazado 112086" d="M314.131,875.207a1.691,1.691,0,1,1,1.817,1.754A1.793,1.793,0,0,1,314.131,875.207Z" transform="translate(-313.653 -872.721)" fill="#231f20"/>
              <path id="Trazado_112087" data-name="Trazado 112087" d="M315.778,877.385a2.288,2.288,0,0,1-2.172-2.2,2.473,2.473,0,0,1,.483-1.691,2.049,2.049,0,0,1,1.481-.827,2.275,2.275,0,0,1,2.327,2.191,2.478,2.478,0,0,1-.484,1.69,2.053,2.053,0,0,1-1.482.827C315.88,877.382,315.829,877.385,315.778,877.385Zm-.056-3.774a1.146,1.146,0,0,0-.88.46,1.537,1.537,0,0,0-.294,1.047,1.345,1.345,0,0,0,1.231,1.322l.08,0a1.118,1.118,0,0,0,.8-.457,1.529,1.529,0,0,0,.294-1.046A1.346,1.346,0,0,0,315.722,873.61Z" transform="translate(-313.598 -872.666)" fill="#231f20"/>
            </g>
            <path id="Trazado_112088" data-name="Trazado 112088" d="M320.287,875.261a.472.472,0,0,1-.036-.943l13.956-1.065a.465.465,0,0,1,.507.435.474.474,0,0,1-.436.508l-13.956,1.065Z" transform="translate(-276.333 -851.161)" fill="#231f20"/>
            <g id="Grupo_57205" data-name="Grupo 57205" transform="translate(59.649 19.906)">
              <path id="Trazado_112089" data-name="Trazado 112089" d="M338.38,873.357a1.691,1.691,0,1,1,1.818,1.754A1.793,1.793,0,0,1,338.38,873.357Z" transform="translate(-337.902 -870.869)" fill="#231f20"/>
              <path id="Trazado_112090" data-name="Trazado 112090" d="M340.028,875.534a2.287,2.287,0,0,1-2.173-2.195,2.471,2.471,0,0,1,.483-1.692,2.054,2.054,0,0,1,1.482-.827,2.272,2.272,0,0,1,2.326,2.191,2.471,2.471,0,0,1-.484,1.69,2.051,2.051,0,0,1-1.482.827C340.129,875.531,340.079,875.534,340.028,875.534Zm-.056-3.774a1.15,1.15,0,0,0-.882.459,1.538,1.538,0,0,0-.293,1.048,1.344,1.344,0,0,0,1.232,1.321l.079,0a1.112,1.112,0,0,0,.8-.457,1.529,1.529,0,0,0,.294-1.045A1.344,1.344,0,0,0,339.972,871.76Z" transform="translate(-337.847 -870.815)" fill="#231f20"/>
            </g>
            <path id="Trazado_112091" data-name="Trazado 112091" d="M344.536,873.41a.472.472,0,0,1-.036-.943l13.957-1.064a.468.468,0,0,1,.507.435.473.473,0,0,1-.435.507l-13.957,1.064Z" transform="translate(-278.841 -850.97)" fill="#231f20"/>
            <g id="Grupo_57206" data-name="Grupo 57206" transform="translate(81.39 18.248)">
              <path id="Trazado_112092" data-name="Trazado 112092" d="M362.629,871.507a1.691,1.691,0,1,1,1.818,1.754A1.793,1.793,0,0,1,362.629,871.507Z" transform="translate(-362.151 -869.02)" fill="#231f20"/>
              <path id="Trazado_112093" data-name="Trazado 112093" d="M364.277,873.684a2.362,2.362,0,1,1,2.119-2.523,2.475,2.475,0,0,1-.484,1.691,2.052,2.052,0,0,1-1.483.826C364.379,873.681,364.328,873.684,364.277,873.684Zm-.056-3.774a1.433,1.433,0,0,0,.056,2.829l.08,0a1.112,1.112,0,0,0,.8-.457,1.527,1.527,0,0,0,.294-1.045A1.344,1.344,0,0,0,364.221,869.91Z" transform="translate(-362.097 -868.966)" fill="#231f20"/>
            </g>
            <path id="Trazado_112094" data-name="Trazado 112094" d="M368.786,871.56a.472.472,0,0,1-.036-.943l13.956-1.064a.466.466,0,0,1,.507.435.473.473,0,0,1-.436.507l-13.956,1.065Z" transform="translate(-281.35 -850.778)" fill="#231f20"/>
            <g id="Grupo_57207" data-name="Grupo 57207" transform="translate(103.13 16.588)">
              <path id="Trazado_112095" data-name="Trazado 112095" d="M386.878,869.657a1.691,1.691,0,1,1,1.819,1.754A1.792,1.792,0,0,1,386.878,869.657Z" transform="translate(-386.4 -867.169)" fill="#231f20"/>
              <path id="Trazado_112096" data-name="Trazado 112096" d="M388.527,871.833a2.151,2.151,0,1,1,.152-.005C388.628,871.831,388.577,871.833,388.527,871.833Zm-.056-3.774a1.33,1.33,0,0,0-1.176,1.507,1.345,1.345,0,0,0,1.233,1.322l.079,0a1.325,1.325,0,0,0,1.1-1.5A1.344,1.344,0,0,0,388.471,868.059Z" transform="translate(-386.345 -867.115)" fill="#231f20"/>
            </g>
            <path id="Trazado_112097" data-name="Trazado 112097" d="M393.034,869.71a.472.472,0,0,1-.036-.943l13.957-1.065a.487.487,0,0,1,.507.436.474.474,0,0,1-.436.507l-13.957,1.064A.241.241,0,0,1,393.034,869.71Z" transform="translate(-283.858 -850.587)" fill="#231f20"/>
            <g id="Grupo_57208" data-name="Grupo 57208" transform="translate(124.87 14.929)">
              <path id="Trazado_112098" data-name="Trazado 112098" d="M411.127,867.806a1.691,1.691,0,1,1,1.818,1.755A1.792,1.792,0,0,1,411.127,867.806Z" transform="translate(-410.649 -865.318)" fill="#231f20"/>
              <path id="Trazado_112099" data-name="Trazado 112099" d="M412.775,869.982a2.363,2.363,0,1,1,2.119-2.523,2.47,2.47,0,0,1-.484,1.691,2.05,2.05,0,0,1-1.484.827Q412.851,869.983,412.775,869.982Zm-.057-3.774a1.329,1.329,0,0,0-1.174,1.506,1.344,1.344,0,0,0,1.231,1.323l.079,0a1.113,1.113,0,0,0,.8-.457,1.519,1.519,0,0,0,.293-1.044A1.344,1.344,0,0,0,412.719,866.209Z" transform="translate(-410.594 -865.264)" fill="#231f20"/>
            </g>
            <path id="Trazado_112100" data-name="Trazado 112100" d="M417.282,867.86a.473.473,0,0,1-.035-.944l13.957-1.065a.488.488,0,0,1,.507.436.473.473,0,0,1-.436.507l-13.957,1.065Z" transform="translate(-286.367 -850.395)" fill="#231f20"/>
            <g id="Grupo_57209" data-name="Grupo 57209" transform="translate(146.611 13.271)">
              <path id="Trazado_112101" data-name="Trazado 112101" d="M435.377,865.956a1.691,1.691,0,1,1,1.818,1.755A1.792,1.792,0,0,1,435.377,865.956Z" transform="translate(-434.899 -863.469)" fill="#231f20"/>
              <path id="Trazado_112102" data-name="Trazado 112102" d="M437.025,868.133a2.288,2.288,0,0,1-2.173-2.2,2.47,2.47,0,0,1,.483-1.69,2.052,2.052,0,0,1,1.483-.827,2.268,2.268,0,0,1,2.326,2.191,2.474,2.474,0,0,1-.484,1.69,2.05,2.05,0,0,1-1.484.827Q437.1,868.133,437.025,868.133Zm-.057-3.775a1.148,1.148,0,0,0-.881.461,1.52,1.52,0,0,0-.293,1.046,1.344,1.344,0,0,0,1.231,1.323l.079,0a1.115,1.115,0,0,0,.8-.457,1.529,1.529,0,0,0,.293-1.047A1.345,1.345,0,0,0,436.969,864.358Z" transform="translate(-434.844 -863.414)" fill="#231f20"/>
            </g>
            <path id="Trazado_112103" data-name="Trazado 112103" d="M441.532,866.01a.473.473,0,0,1-.035-.944L455.454,864a.488.488,0,0,1,.507.436.473.473,0,0,1-.436.507l-13.957,1.065Z" transform="translate(-288.876 -850.204)" fill="#231f20"/>
            <path id="Trazado_112104" data-name="Trazado 112104" d="M465.781,864.159a.472.472,0,0,1-.036-.943l13.957-1.065a.485.485,0,0,1,.507.435.472.472,0,0,1-.436.508l-13.955,1.065Z" transform="translate(-291.384 -850.013)" fill="#231f20"/>
            <g id="Grupo_57210" data-name="Grupo 57210" transform="translate(190.093 9.953)">
              <path id="Trazado_112105" data-name="Trazado 112105" d="M483.876,862.255a1.69,1.69,0,1,1,1.817,1.754A1.793,1.793,0,0,1,483.876,862.255Z" transform="translate(-483.397 -859.768)" fill="#231f20"/>
              <path id="Trazado_112106" data-name="Trazado 112106" d="M485.523,864.432a2.363,2.363,0,1,1,2.118-2.522,2.47,2.47,0,0,1-.484,1.69,2.049,2.049,0,0,1-1.482.827C485.625,864.431,485.574,864.432,485.523,864.432Zm-.057-3.774a1.433,1.433,0,0,0,.057,2.829l.079,0a1.119,1.119,0,0,0,.8-.457,1.534,1.534,0,0,0,.293-1.046A1.344,1.344,0,0,0,485.467,860.658Z" transform="translate(-483.343 -859.714)" fill="#231f20"/>
            </g>
            <path id="Trazado_112107" data-name="Trazado 112107" d="M490.031,862.309a.472.472,0,0,1-.036-.943l13.958-1.065a.483.483,0,0,1,.507.435.472.472,0,0,1-.435.507l-13.957,1.065Z" transform="translate(-293.893 -849.821)" fill="#231f20"/>
            <g id="Grupo_57211" data-name="Grupo 57211" transform="translate(211.835 8.295)">
              <path id="Trazado_112108" data-name="Trazado 112108" d="M508.127,860.405a1.691,1.691,0,1,1,1.818,1.754A1.792,1.792,0,0,1,508.127,860.405Z" transform="translate(-507.648 -857.919)" fill="#231f20"/>
              <path id="Trazado_112109" data-name="Trazado 112109" d="M509.774,862.583a2.29,2.29,0,0,1-2.173-2.2,2.161,2.161,0,1,1,2.326,2.189C509.876,862.58,509.825,862.583,509.774,862.583Zm-.056-3.774a1.328,1.328,0,0,0-1.174,1.507,1.342,1.342,0,0,0,1.23,1.322l.08,0a1.324,1.324,0,0,0,1.1-1.5A1.344,1.344,0,0,0,509.718,858.808Z" transform="translate(-507.594 -857.864)" fill="#231f20"/>
            </g>
            <path id="Trazado_112110" data-name="Trazado 112110" d="M514.281,860.458a.472.472,0,0,1-.037-.943l13.958-1.064a.483.483,0,0,1,.507.435.473.473,0,0,1-.435.508l-13.957,1.064Z" transform="translate(-296.402 -849.63)" fill="#231f20"/>
            <g id="Grupo_57212" data-name="Grupo 57212" transform="translate(233.574 6.635)">
              <path id="Trazado_112111" data-name="Trazado 112111" d="M532.375,858.555a1.691,1.691,0,1,1,1.818,1.754A1.792,1.792,0,0,1,532.375,858.555Z" transform="translate(-531.896 -856.067)" fill="#231f20"/>
              <path id="Trazado_112112" data-name="Trazado 112112" d="M534.023,860.732a2.379,2.379,0,0,1-.207-4.714,2.266,2.266,0,0,1,2.327,2.19,2.476,2.476,0,0,1-.485,1.691,2.044,2.044,0,0,1-1.482.826C534.124,860.73,534.074,860.732,534.023,860.732Zm-.057-3.774a1.433,1.433,0,0,0,.057,2.829l.08,0a1.112,1.112,0,0,0,.8-.457,1.522,1.522,0,0,0,.294-1.046A1.344,1.344,0,0,0,533.966,856.958Z" transform="translate(-531.842 -856.012)" fill="#231f20"/>
            </g>
            <path id="Trazado_112113" data-name="Trazado 112113" d="M538.53,858.608a.472.472,0,0,1-.035-.943l13.957-1.064a.488.488,0,0,1,.507.435.473.473,0,0,1-.436.507l-13.956,1.064Z" transform="translate(-298.91 -849.438)" fill="#231f20"/>
            <g id="Grupo_57213" data-name="Grupo 57213" transform="translate(255.315 4.976)">
              <path id="Trazado_112114" data-name="Trazado 112114" d="M556.624,856.7a1.691,1.691,0,1,1,1.818,1.755A1.792,1.792,0,0,1,556.624,856.7Z" transform="translate(-556.145 -854.217)" fill="#231f20"/>
              <path id="Trazado_112115" data-name="Trazado 112115" d="M558.272,858.882a2.291,2.291,0,0,1-2.174-2.2,2.475,2.475,0,0,1,.484-1.691,2.049,2.049,0,0,1,1.483-.828,2.271,2.271,0,0,1,2.326,2.19,2.477,2.477,0,0,1-.485,1.692,2.048,2.048,0,0,1-1.482.827C558.373,858.88,558.322,858.882,558.272,858.882Zm-.056-3.775a1.151,1.151,0,0,0-.881.46,1.521,1.521,0,0,0-.292,1.046,1.341,1.341,0,0,0,1.23,1.323l.079,0a1.111,1.111,0,0,0,.8-.457,1.521,1.521,0,0,0,.294-1.046A1.344,1.344,0,0,0,558.216,855.107Z" transform="translate(-556.09 -854.162)" fill="#231f20"/>
            </g>
            <path id="Trazado_112116" data-name="Trazado 112116" d="M562.78,856.758a.472.472,0,0,1-.035-.943l13.956-1.064a.482.482,0,0,1,.507.435.474.474,0,0,1-.436.507l-13.955,1.064Z" transform="translate(-301.419 -849.247)" fill="#231f20"/>
            <g id="Grupo_57214" data-name="Grupo 57214" transform="translate(277.056 3.317)">
              <path id="Trazado_112117" data-name="Trazado 112117" d="M580.874,854.854a1.691,1.691,0,1,1,1.818,1.755A1.792,1.792,0,0,1,580.874,854.854Z" transform="translate(-580.395 -852.366)" fill="#231f20"/>
              <path id="Trazado_112118" data-name="Trazado 112118" d="M582.522,857.031a2.289,2.289,0,0,1-2.174-2.194,2.479,2.479,0,0,1,.484-1.693,2.051,2.051,0,0,1,1.483-.827,2.264,2.264,0,0,1,2.325,2.19,2.466,2.466,0,0,1-.485,1.691,2.046,2.046,0,0,1-1.481.827C582.623,857.029,582.572,857.031,582.522,857.031Zm-.056-3.774a1.148,1.148,0,0,0-.881.46,1.521,1.521,0,0,0-.293,1.046,1.344,1.344,0,0,0,1.231,1.323l.079,0a1.1,1.1,0,0,0,.8-.457,1.524,1.524,0,0,0,.295-1.044A1.344,1.344,0,0,0,582.466,853.257Z" transform="translate(-580.34 -852.312)" fill="#231f20"/>
            </g>
            <path id="Trazado_112119" data-name="Trazado 112119" d="M587.03,854.908a.473.473,0,0,1-.036-.944L600.95,852.9a.488.488,0,0,1,.507.436.472.472,0,0,1-.435.507l-13.956,1.064A.249.249,0,0,1,587.03,854.908Z" transform="translate(-303.928 -849.056)" fill="#231f20"/>
            <g id="Grupo_57215" data-name="Grupo 57215" transform="translate(298.797 1.658)">
              <path id="Trazado_112120" data-name="Trazado 112120" d="M605.124,853a1.69,1.69,0,1,1,1.816,1.755A1.79,1.79,0,0,1,605.124,853Z" transform="translate(-604.645 -850.516)" fill="#231f20"/>
              <path id="Trazado_112121" data-name="Trazado 112121" d="M606.77,855.18a2.363,2.363,0,1,1,2.119-2.522,2.474,2.474,0,0,1-.485,1.69,2.046,2.046,0,0,1-1.481.827C606.871,855.179,606.822,855.18,606.77,855.18Zm-.056-3.774a1.434,1.434,0,0,0,.056,2.83l.081,0a1.105,1.105,0,0,0,.8-.457,1.519,1.519,0,0,0,.295-1.044A1.346,1.346,0,0,0,606.714,851.406Z" transform="translate(-604.591 -850.462)" fill="#231f20"/>
            </g>
            <path id="Trazado_112122" data-name="Trazado 112122" d="M611.278,853.058a.473.473,0,0,1-.035-.944L625.2,851.05a.481.481,0,0,1,.507.435.473.473,0,0,1-.435.507l-13.956,1.064A.253.253,0,0,1,611.278,853.058Z" transform="translate(-306.436 -848.864)" fill="#231f20"/>
            <g id="Grupo_57216" data-name="Grupo 57216" transform="translate(320.538)">
              <path id="Trazado_112123" data-name="Trazado 112123" d="M629.373,851.154a1.691,1.691,0,1,1,1.816,1.754A1.79,1.79,0,0,1,629.373,851.154Z" transform="translate(-628.894 -848.667)" fill="#231f20"/>
              <path id="Trazado_112124" data-name="Trazado 112124" d="M631.02,853.331a2.286,2.286,0,0,1-2.173-2.2,2.475,2.475,0,0,1,.483-1.691,2.048,2.048,0,0,1,1.482-.827,2.269,2.269,0,0,1,2.327,2.19,2.476,2.476,0,0,1-.485,1.691,2.048,2.048,0,0,1-1.482.827C631.12,853.329,631.071,853.331,631.02,853.331Zm-.057-3.775a1.15,1.15,0,0,0-.882.461,1.528,1.528,0,0,0-.291,1.047,1.341,1.341,0,0,0,1.23,1.322l.08,0a1.117,1.117,0,0,0,.8-.457,1.524,1.524,0,0,0,.295-1.045A1.345,1.345,0,0,0,630.964,849.556Z" transform="translate(-628.839 -848.612)" fill="#231f20"/>
            </g>
            <path id="Trazado_112125" data-name="Trazado 112125" d="M635.527,851.207a.472.472,0,0,1-.034-.943l13.956-1.065a.488.488,0,0,1,.507.435.472.472,0,0,1-.436.507l-13.956,1.065Z" transform="translate(-308.945 -848.673)" fill="#231f20"/>
            <g id="Grupo_57217" data-name="Grupo 57217" transform="translate(168.352 11.611)">
              <path id="Trazado_112126" data-name="Trazado 112126" d="M459.627,864.105a1.691,1.691,0,1,1,1.816,1.754A1.792,1.792,0,0,1,459.627,864.105Z" transform="translate(-459.148 -861.618)" fill="#231f20"/>
              <path id="Trazado_112127" data-name="Trazado 112127" d="M461.273,866.282a2.288,2.288,0,0,1-2.172-2.2,2.471,2.471,0,0,1,.483-1.691,2.051,2.051,0,0,1,1.482-.827,2.264,2.264,0,0,1,2.326,2.191,2.469,2.469,0,0,1-.484,1.69,2.05,2.05,0,0,1-1.482.827C461.375,866.281,461.325,866.282,461.273,866.282Zm-.056-3.775a1.148,1.148,0,0,0-.881.461,1.525,1.525,0,0,0-.292,1.047,1.342,1.342,0,0,0,1.229,1.322l.08,0a1.121,1.121,0,0,0,.8-.457,1.524,1.524,0,0,0,.292-1.046A1.344,1.344,0,0,0,461.218,862.508Z" transform="translate(-459.093 -861.563)" fill="#231f20"/>
            </g>
          </g>
        </g>
        <g id="Grupo_57235" data-name="Grupo 57235" transform="translate(299.928 0.918)">
          <path id="Trazado_112128" data-name="Trazado 112128" d="M661.279,862.042a.475.475,0,0,1-.419-.25l-.3-.554c-.062-.1-.135-.244-.214-.4a9.821,9.821,0,0,0-.58-1.006l-.479-.758a33.377,33.377,0,0,0-2.325-3.378l-.834-1.105c-.167-.2-.358-.407-.547-.609l-.315-.343c-.205-.216-.408-.443-.605-.662a12.917,12.917,0,0,0-.968-1.006l-1.722-1.507a.472.472,0,0,1,.62-.711l1.727,1.509a13.805,13.805,0,0,1,1.046,1.084c.192.212.387.433.6.652l.313.342c.2.215.4.434.6.666l.836,1.109a34.491,34.491,0,0,1,2.379,3.458l.469.741a10.857,10.857,0,0,1,.629,1.089c.073.14.137.266.2.373l.307.57a.472.472,0,0,1-.2.639A.459.459,0,0,1,661.279,862.042Z" transform="translate(-581.457 -849.636)" fill="#231f20"/>
          <g id="Grupo_57220" data-name="Grupo 57220" transform="translate(79.316 13.317)">
            <path id="Trazado_112129" data-name="Trazado 112129" d="M663.456,865.221a1.764,1.764,0,1,1,1.468,3.2,1.764,1.764,0,1,1-1.468-3.2Z" transform="translate(-661.861 -864.545)" fill="#231f20"/>
            <path id="Trazado_112130" data-name="Trazado 112130" d="M664.054,869.005a2.248,2.248,0,0,1-2.062-1.252,2.352,2.352,0,0,1,1.2-3.012,2.407,2.407,0,0,1,1.062-.252,2.206,2.206,0,0,1,2.079,3,2.327,2.327,0,0,1-1.276,1.305A2.529,2.529,0,0,1,664.054,869.005Zm.2-3.57a1.426,1.426,0,0,0-.64.153,1.4,1.4,0,0,0-.761,1.769,1.432,1.432,0,0,0,1.834.572,1.385,1.385,0,0,0,.766-.776,1.262,1.262,0,0,0-1.2-1.718Z" transform="translate(-661.807 -864.49)" fill="#231f20"/>
          </g>
          <path id="Trazado_112131" data-name="Trazado 112131" d="M670.553,885.614a.472.472,0,0,1-.458-.356l-.563-2.222c-.213-.852-.519-1.88-.845-2.97-.18-.606-.367-1.232-.547-1.86-.376-1.181-.782-2.363-1.141-3.409-.167-.482-.322-.937-.461-1.348l-.834-2.109a.472.472,0,1,1,.878-.347l.844,2.131c.147.433.3.885.467,1.366.36,1.052.77,2.242,1.151,3.442.183.637.369,1.261.549,1.865.328,1.1.637,2.138.856,3.008l.561,2.221a.474.474,0,0,1-.342.575A.514.514,0,0,1,670.553,885.614Z" transform="translate(-582.891 -851.815)" fill="#231f20"/>
          <g id="Grupo_57221" data-name="Grupo 57221" transform="translate(86.243 35.067)">
            <path id="Trazado_112132" data-name="Trazado 112132" d="M671.566,889.327a1.764,1.764,0,1,1,.747,3.438,1.764,1.764,0,1,1-.747-3.438Z" transform="translate(-669.587 -888.804)" fill="#231f20"/>
            <path id="Trazado_112133" data-name="Trazado 112133" d="M671.841,893.227a2.252,2.252,0,0,1-2.26-1.73,2.327,2.327,0,0,1,1.824-2.685,2.3,2.3,0,0,1,2.786,1.672,2.173,2.173,0,0,1-.312,1.66,2.374,2.374,0,0,1-1.525,1.029A2.471,2.471,0,0,1,671.841,893.227Zm.126-3.535a1.514,1.514,0,0,0-.347.04,1.293,1.293,0,1,0,.542,2.516,1.438,1.438,0,0,0,.926-.62,1.242,1.242,0,0,0,.179-.945A1.3,1.3,0,0,0,671.967,889.692Z" transform="translate(-669.533 -888.749)" fill="#231f20"/>
          </g>
          <path id="Trazado_112134" data-name="Trazado 112134" d="M675.287,910.624a.472.472,0,0,1-.467-.412l-.718-5.425-.284-1.827c-.3-2.025-.588-3.737-.829-4.953l-.417-2.259a.472.472,0,1,1,.928-.172l.417,2.254c.307,1.548.624,3.567.836,4.988l.413,2.659.593,4.615a.473.473,0,0,1-.409.529C675.328,910.622,675.308,910.624,675.287,910.624Z" transform="translate(-583.604 -854.349)" fill="#231f20"/>
          <g id="Grupo_57222" data-name="Grupo 57222" transform="translate(89.776 57.634)">
            <path id="Trazado_112135" data-name="Trazado 112135" d="M675.705,914.458a1.764,1.764,0,1,1,.363,3.5,1.764,1.764,0,1,1-.363-3.5Z" transform="translate(-673.529 -913.975)" fill="#231f20"/>
            <path id="Trazado_112136" data-name="Trazado 112136" d="M675.817,918.388a2.285,2.285,0,0,1-2.331-1.989,2.364,2.364,0,0,1,4.7-.489,2.169,2.169,0,0,1-.49,1.607,2.374,2.374,0,0,1-1.633.858C675.977,918.383,675.9,918.388,675.817,918.388Zm.061-3.523a1.628,1.628,0,0,0-.174.009,1.294,1.294,0,1,0,.264,2.561,1.438,1.438,0,0,0,.992-.516,1.237,1.237,0,0,0,.281-.911A1.329,1.329,0,0,0,675.878,914.864Z" transform="translate(-673.474 -913.92)" fill="#231f20"/>
          </g>
          <path id="Trazado_112137" data-name="Trazado 112137" d="M677.4,936.01a.543.543,0,0,1-.474-.528c-.041-1.168-.159-4.214-.359-7.239-.094-1.859-.246-3.687-.356-5.021l-.185-2.286a.472.472,0,0,1,.432-.508.48.48,0,0,1,.509.434l.185,2.284c.1,1.264.263,3.176.357,5.043.2,3.032.32,6.088.361,7.259l-.005,0a.463.463,0,0,1,.008.087A.473.473,0,0,1,677.4,936.01Z" transform="translate(-583.962 -856.96)" fill="#231f20"/>
          <g id="Grupo_57223" data-name="Grupo 57223" transform="translate(91.215 80.434)">
            <path id="Trazado_112138" data-name="Trazado 112138" d="M677.443,939.878a1.815,1.815,0,0,1,1.937,1.712,1.892,1.892,0,1,1-1.937-1.712Z" transform="translate(-675.133 -939.406)" fill="#231f20"/>
            <path id="Trazado_112139" data-name="Trazado 112139" d="M677.43,943.817a2.234,2.234,0,1,1-.057-4.465h0a2.237,2.237,0,1,1,.1,4.464Zm.024-3.521a1.375,1.375,0,0,0-1.43,1.33,1.351,1.351,0,0,0,1.406,1.245v.473l.032-.473a1.365,1.365,0,0,0,1.392-1.329A1.341,1.341,0,0,0,677.454,940.3Z" transform="translate(-675.079 -939.352)" fill="#231f20"/>
          </g>
          <path id="Trazado_112140" data-name="Trazado 112140" d="M677.643,961.49h-.007a.475.475,0,0,1-.465-.481l.117-7.332V948.64c0-1.362-.029-2.27-.029-2.274a.474.474,0,0,1,.456-.489.456.456,0,0,1,.489.457s.03.923.028,2.307v5.041l-.117,7.339A.473.473,0,0,1,677.643,961.49Z" transform="translate(-584.08 -859.593)" fill="#231f20"/>
          <g id="Grupo_57224" data-name="Grupo 57224" transform="translate(91.063 103.278)">
            <path id="Trazado_112141" data-name="Trazado 112141" d="M677.387,965.359a1.765,1.765,0,1,1-1.95,1.691A1.824,1.824,0,0,1,677.387,965.359Z" transform="translate(-674.964 -964.885)" fill="#231f20"/>
            <path id="Trazado_112142" data-name="Trazado 112142" d="M677.291,969.3h-.1a2.234,2.234,0,1,1,.081-4.465,2.476,2.476,0,0,1,1.766.754,2.16,2.16,0,0,1,.594,1.565A2.278,2.278,0,0,1,677.291,969.3Zm.024-3.52a1.294,1.294,0,1,0-.09,2.575l.065.473v-.472a1.34,1.34,0,0,0,1.393-1.237,1.229,1.229,0,0,0-.34-.886,1.472,1.472,0,0,0-1.027-.454Z" transform="translate(-674.91 -964.831)" fill="#231f20"/>
          </g>
          <path id="Trazado_112143" data-name="Trazado 112143" d="M676.249,986.935a.471.471,0,0,1-.472-.472.364.364,0,0,1,.005-.064c.009-.1.1-.972.178-2.252l.355-5.031.411-7.317a.458.458,0,0,1,.5-.445.471.471,0,0,1,.444.5l-.41,7.323-.355,5.036C676.727,986.935,676.727,986.935,676.249,986.935Z" transform="translate(-583.936 -862.228)" fill="#231f20"/>
          <g id="Grupo_57225" data-name="Grupo 57225" transform="translate(89.599 126.076)">
            <path id="Trazado_112144" data-name="Trazado 112144" d="M675.842,990.8a1.764,1.764,0,1,1-2.033,1.581A1.827,1.827,0,0,1,675.842,990.8Z" transform="translate(-673.331 -990.315)" fill="#231f20"/>
            <path id="Trazado_112145" data-name="Trazado 112145" d="M675.677,994.729c-.08,0-.16,0-.242-.012a2.316,2.316,0,0,1-2.15-2.438,2.28,2.28,0,0,1,2.544-2.01,2.411,2.411,0,0,1,1.6.787,2.173,2.173,0,0,1,.562,1.65A2.263,2.263,0,0,1,675.677,994.729Zm-.068-3.525a1.329,1.329,0,0,0-1.383,1.157,1.37,1.37,0,0,0,1.3,1.416,1.333,1.333,0,0,0,1.519-1.152,1.239,1.239,0,0,0-.323-.937,1.478,1.478,0,0,0-.975-.477C675.7,991.206,675.655,991.2,675.609,991.2Z" transform="translate(-673.277 -990.26)" fill="#231f20"/>
          </g>
          <path id="Trazado_112146" data-name="Trazado 112146" d="M673.487,1012.275a.411.411,0,0,1-.066-.005.471.471,0,0,1-.4-.532l.361-2.665.562-4.6c.186-1.462.375-3.145.561-5l.238-2.282a.472.472,0,0,1,.94.1l-.239,2.278c-.187,1.862-.376,3.55-.564,5.02l-.925,7.28A.472.472,0,0,1,673.487,1012.275Z" transform="translate(-583.65 -864.857)" fill="#231f20"/>
          <g id="Grupo_57226" data-name="Grupo 57226" transform="translate(86.918 148.762)">
            <path id="Trazado_112147" data-name="Trazado 112147" d="M672.938,1016.111a1.763,1.763,0,1,1-2.109,1.472A1.817,1.817,0,0,1,672.938,1016.111Z" transform="translate(-670.341 -1015.618)" fill="#231f20"/>
            <path id="Trazado_112148" data-name="Trazado 112148" d="M672.684,1020.036a2.5,2.5,0,0,1-.37-.029,2.236,2.236,0,1,1,2.665-1.873A2.27,2.27,0,0,1,672.684,1020.036Zm-.085-3.529a1.332,1.332,0,0,0-1.357,1.084,1.422,1.422,0,1,0,1.577-1.067A1.554,1.554,0,0,0,672.6,1016.507Z" transform="translate(-670.286 -1015.564)" fill="#231f20"/>
          </g>
          <path id="Trazado_112149" data-name="Trazado 112149" d="M669.391,1037.438a.581.581,0,0,1-.093-.007.474.474,0,0,1-.371-.556c.007-.036.712-3.633,1.306-7.2.314-1.791.631-3.617.829-4.962l.355-2.269a.473.473,0,0,1,.934.145l-.353,2.266c-.2,1.355-.52,3.185-.829,4.957-.6,3.6-1.308,7.213-1.316,7.248A.47.47,0,0,1,669.391,1037.438Z" transform="translate(-583.227 -867.472)" fill="#231f20"/>
          <path id="Trazado_112150" data-name="Trazado 112150" d="M663.906,1062.341a.514.514,0,0,1-.115-.015.47.47,0,0,1-.342-.573l.559-2.222c.308-1.17.651-2.669,1.015-4.254l.147-.644c.839-3.522,1.574-7.112,1.58-7.148a.473.473,0,1,1,.928.189c-.007.035-.746,3.642-1.588,7.175l-.146.638c-.366,1.593-.711,3.1-1.021,4.278l-.559,2.216A.472.472,0,0,1,663.906,1062.341Z" transform="translate(-582.659 -870.065)" fill="#231f20"/>
          <g id="Grupo_57227" data-name="Grupo 57227" transform="translate(77.88 193.531)">
            <path id="Trazado_112151" data-name="Trazado 112151" d="M663.059,1066.084a1.817,1.817,0,0,1,1.382,2.185,1.893,1.893,0,1,1-1.382-2.185Z" transform="translate(-660.26 -1065.553)" fill="#231f20"/>
            <path id="Trazado_112152" data-name="Trazado 112152" d="M662.621,1069.974a2.526,2.526,0,0,1-.647-.086,2.443,2.443,0,0,1-1.475-1.123,2.141,2.141,0,0,1-.22-1.639,2.355,2.355,0,0,1,2.843-1.554,2.441,2.441,0,0,1,1.5,1.13,2.122,2.122,0,0,1,.217,1.641A2.276,2.276,0,0,1,662.621,1069.974Zm-.126-3.537a1.323,1.323,0,0,0-1.305.942,1.2,1.2,0,0,0,.128.915,1.486,1.486,0,0,0,.9.681,1.389,1.389,0,0,0,1.709-.884,1.185,1.185,0,0,0-.125-.919,1.5,1.5,0,0,0-.919-.686A1.625,1.625,0,0,0,662.5,1066.438Z" transform="translate(-660.205 -1065.499)" fill="#231f20"/>
          </g>
          <path id="Trazado_112153" data-name="Trazado 112153" d="M656.909,1086.867a.462.462,0,0,1-.142-.022.472.472,0,0,1-.308-.592l.724-2.3c.4-1.262.948-2.991,1.436-4.7l2.021-7.042a.472.472,0,1,1,.911.247l-1.271,4.489-.754,2.57c-.49,1.716-1.04,3.452-1.442,4.719l-.724,2.3A.468.468,0,0,1,656.909,1086.867Z" transform="translate(-581.936 -872.627)" fill="#231f20"/>
          <g id="Grupo_57228" data-name="Grupo 57228" transform="translate(71.357 215.423)">
            <path id="Trazado_112154" data-name="Trazado 112154" d="M655.893,1090.538a1.764,1.764,0,1,1-1.122,3.335,1.764,1.764,0,1,1,1.122-3.335Z" transform="translate(-652.984 -1089.971)" fill="#231f20"/>
            <path id="Trazado_112155" data-name="Trazado 112155" d="M655.356,1094.4a2.482,2.482,0,0,1-.79-.131,2.3,2.3,0,0,1-1.528-2.862,2.351,2.351,0,0,1,2.946-1.371,2.383,2.383,0,0,1,1.408,1.193,2.158,2.158,0,0,1,.125,1.668A2.252,2.252,0,0,1,655.356,1094.4Zm-.147-3.543a1.316,1.316,0,0,0-1.276.851,1.361,1.361,0,0,0,.935,1.666,1.382,1.382,0,0,0,1.754-.776,1.219,1.219,0,0,0-.074-.944,1.451,1.451,0,0,0-.856-.72A1.578,1.578,0,0,0,655.209,1090.856Z" transform="translate(-652.929 -1089.917)" fill="#231f20"/>
          </g>
          <path id="Trazado_112156" data-name="Trazado 112156" d="M648.4,1110.918a.485.485,0,0,1-.168-.031.473.473,0,0,1-.273-.611l2.6-6.854,1.7-4.738c.4-1.105.669-1.9.737-2.1l.109-.32.356-.055a.474.474,0,0,1,.473.473.445.445,0,0,1-.03.165c-.088.261-.357,1.058-.758,2.158l-1.7,4.746-2.6,6.864A.475.475,0,0,1,648.4,1110.918Z" transform="translate(-581.055 -875.144)" fill="#231f20"/>
          <g id="Grupo_57229" data-name="Grupo 57229" transform="translate(63.475 236.854)">
            <path id="Trazado_112157" data-name="Trazado 112157" d="M647.19,1114.483a1.765,1.765,0,1,1-2.406.923A1.826,1.826,0,0,1,647.19,1114.483Z" transform="translate(-644.193 -1113.874)" fill="#231f20"/>
            <path id="Trazado_112158" data-name="Trazado 112158" d="M646.577,1118.32a2.427,2.427,0,0,1-.935-.187,2.319,2.319,0,0,1-1.351-2.958,2.343,2.343,0,0,1,3.02-1.186,2.4,2.4,0,0,1,1.33,1.283,2.172,2.172,0,0,1,.026,1.677A2.222,2.222,0,0,1,646.577,1118.32Zm-.186-3.562a1.286,1.286,0,0,0-1.223.771,1.421,1.421,0,0,0,2.622,1.067,1.239,1.239,0,0,0-.017-.95,1.477,1.477,0,0,0-.812-.777A1.543,1.543,0,0,0,646.391,1114.758Z" transform="translate(-644.138 -1113.82)" fill="#231f20"/>
          </g>
          <path id="Trazado_112159" data-name="Trazado 112159" d="M638.286,1134.349a.472.472,0,0,1-.425-.678c.015-.033,1.6-3.336,3.058-6.645.867-1.9,1.633-3.7,2.015-4.615l.9-2.111a.473.473,0,1,1,.87.371l-.9,2.109c-.381.912-1.153,2.731-2.023,4.632-1.458,3.319-3.053,6.636-3.07,6.669A.473.473,0,0,1,638.286,1134.349Z" transform="translate(-580.009 -877.607)" fill="#231f20"/>
          <g id="Grupo_57230" data-name="Grupo 57230" transform="translate(54.165 257.714)">
            <path id="Trazado_112160" data-name="Trazado 112160" d="M636.923,1137.8a1.807,1.807,0,0,1,.919,2.412,1.892,1.892,0,1,1-.919-2.412Z" transform="translate(-633.809 -1137.141)" fill="#231f20"/>
            <path id="Trazado_112161" data-name="Trazado 112161" d="M636.192,1141.587a2.464,2.464,0,0,1-1.1-.259,2.428,2.428,0,0,1-1.2-1.312,2.135,2.135,0,0,1,.076-1.731,2.36,2.36,0,0,1,3.1-.96,2.418,2.418,0,0,1,1.247,1.391,2.136,2.136,0,0,1-.112,1.661A2.224,2.224,0,0,1,636.192,1141.587Zm-.19-3.565a1.3,1.3,0,0,0-1.18.688,1.208,1.208,0,0,0-.038.974,1.485,1.485,0,0,0,.734.8,1.393,1.393,0,0,0,1.848-.532,1.2,1.2,0,0,0,.059-.931,1.483,1.483,0,0,0-.762-.845A1.516,1.516,0,0,0,636,1138.022Z" transform="translate(-633.754 -1137.088)" fill="#231f20"/>
          </g>
          <path id="Trazado_112162" data-name="Trazado 112162" d="M626.461,1156.967a.453.453,0,0,1-.237-.063.474.474,0,0,1-.172-.646l1.149-1.983,2.443-4.4,2.351-4.45c.591-1.1.975-1.882,1.035-2.007l.167-.336.374.067a.473.473,0,0,1,.314.673l-.422-.21.417.223c-.064.126-.451.918-1.049,2.033l-2.353,4.456-3.606,6.407A.472.472,0,0,1,626.461,1156.967Z" transform="translate(-578.786 -879.994)" fill="#231f20"/>
          <g id="Grupo_57231" data-name="Grupo 57231" transform="translate(43.271 277.777)">
            <path id="Trazado_112163" data-name="Trazado 112163" d="M624.883,1160.254a1.766,1.766,0,1,1-1.821,3.012,1.763,1.763,0,1,1,1.821-3.012Z" transform="translate(-621.657 -1159.518)" fill="#231f20"/>
            <path id="Trazado_112164" data-name="Trazado 112164" d="M624.042,1163.983a2.472,2.472,0,0,1-2.379-1.866,2.136,2.136,0,0,1,.255-1.624,2.345,2.345,0,0,1,3.152-.7,2.444,2.444,0,0,1,1.121,1.483,2.162,2.162,0,0,1-.233,1.658A2.226,2.226,0,0,1,624.042,1163.983Zm-.224-3.592a1.254,1.254,0,0,0-1.094.594,1.2,1.2,0,0,0-.14.914,1.487,1.487,0,0,0,.673.912,1.4,1.4,0,0,0,1.894-.368,1.222,1.222,0,0,0,.123-.934,1.524,1.524,0,0,0-1.457-1.118Z" transform="translate(-621.603 -1159.465)" fill="#231f20"/>
          </g>
          <path id="Trazado_112165" data-name="Trazado 112165" d="M612.532,1178.388a.473.473,0,0,1-.379-.753l1.362-1.842c.521-.715,1.133-1.6,1.785-2.539.358-.516.728-1.051,1.1-1.582.672-.983,1.325-1.987,1.91-2.881.31-.475.6-.92.862-1.314.377-.568.682-1.043.888-1.382l.333-.54a.473.473,0,1,1,.8.5l-.333.534c-.206.344-.519.833-.9,1.413-.263.394-.552.836-.858,1.31-.589.9-1.247,1.908-1.927,2.9-.375.535-.743,1.067-1.1,1.583-.655.946-1.272,1.838-1.8,2.559l-1.365,1.845A.474.474,0,0,1,612.532,1178.388Z" transform="translate(-577.345 -882.295)" fill="#231f20"/>
          <g id="Grupo_57232" data-name="Grupo 57232" transform="translate(30.401 296.625)">
            <path id="Trazado_112166" data-name="Trazado 112166" d="M610.7,1181.408a1.763,1.763,0,1,1-2.181,2.759,1.763,1.763,0,1,1,2.181-2.759Z" transform="translate(-607.302 -1180.54)" fill="#231f20"/>
            <path id="Trazado_112167" data-name="Trazado 112167" d="M609.674,1185.024a2.4,2.4,0,0,1-1.508-.542,2.314,2.314,0,0,1-.466-3.207,2.39,2.39,0,0,1,3.231-.3,2.362,2.362,0,0,1,.927,1.589,2.165,2.165,0,0,1-.447,1.626A2.2,2.2,0,0,1,609.674,1185.024Zm-.248-3.613a1.236,1.236,0,0,0-.984.45,1.422,1.422,0,0,0,2.228,1.747,1.225,1.225,0,0,0,.251-.924,1.417,1.417,0,0,0-.561-.953A1.557,1.557,0,0,0,609.426,1181.411Z" transform="translate(-607.248 -1180.488)" fill="#231f20"/>
          </g>
          <path id="Trazado_112168" data-name="Trazado 112168" d="M595.641,1197.583a.471.471,0,0,1-.35-.152.475.475,0,0,1,.029-.668l1.69-1.547c.953-.917,2.243-2.215,3.534-3.554,2.254-2.393,4.4-4.959,4.81-5.448l.142-.169.241-.025a.474.474,0,0,1,.361.778l-.362-.306.343.324c-.576.694-2.631,3.14-4.851,5.5-1.3,1.35-2.6,2.658-3.571,3.592l-1.7,1.556A.462.462,0,0,1,595.641,1197.583Z" transform="translate(-575.597 -884.436)" fill="#231f20"/>
          <g id="Grupo_57233" data-name="Grupo 57233" transform="translate(14.663 313.035)">
            <path id="Trazado_112169" data-name="Trazado 112169" d="M593.373,1200.019a1.817,1.817,0,0,1-.177,2.593,1.788,1.788,0,0,1-2.569-.4,1.871,1.871,0,0,1,.212-2.554A1.832,1.832,0,0,1,593.373,1200.019Z" transform="translate(-589.749 -1198.844)" fill="#231f20"/>
            <path id="Trazado_112170" data-name="Trazado 112170" d="M592.089,1203.415a2.374,2.374,0,0,1-1.9-.97,2.235,2.235,0,1,1,4.048-1.047,2.2,2.2,0,0,1-.8,1.524A2.052,2.052,0,0,1,592.089,1203.415Zm-.272-3.7a1.138,1.138,0,0,0-.732.256,1.4,1.4,0,0,0-.134,1.906,1.348,1.348,0,0,0,1.883.32,1.273,1.273,0,0,0,.466-.887,1.406,1.406,0,0,0-.341-1.044A1.533,1.533,0,0,0,591.817,1199.72Z" transform="translate(-589.694 -1198.792)" fill="#231f20"/>
          </g>
          <path id="Trazado_112171" data-name="Trazado 112171" d="M573.622,1210.217a.355.355,0,0,1-.283-.1l.3-.363-.063-.469c.06-.009.942-.15,2.229-.4l2.206-.66c.489-.165,1-.381,1.538-.611.3-.129.611-.259.92-.383a14.764,14.764,0,0,0,1.529-.752c.283-.152.563-.3.839-.442a17.5,17.5,0,0,0,1.753-1.017l1.61-1.014a4.522,4.522,0,0,0,.483-.327.5.5,0,0,1,.786.352c0,.213-.032.333-.75.762l-1.624,1.024a18.667,18.667,0,0,1-1.842,1.069c-.266.13-.534.275-.807.423a15.626,15.626,0,0,1-1.629.8c-.3.121-.6.247-.9.375-.532.224-1.082.456-1.621.638l-2.267.677A20.973,20.973,0,0,1,573.622,1210.217Z" transform="translate(-573.339 -886.252)" fill="#231f20"/>
          <g id="Grupo_57234" data-name="Grupo 57234" transform="translate(83.037 171.273)">
            <path id="Trazado_112172" data-name="Trazado 112172" d="M668.7,1041.237a1.766,1.766,0,1,1-.692,3.452,1.764,1.764,0,1,1,.692-3.452Z" transform="translate(-666.012 -1040.727)" fill="#231f20"/>
            <path id="Trazado_112173" data-name="Trazado 112173" d="M668.362,1045.147a2.367,2.367,0,0,1-.5-.053,2.417,2.417,0,0,1-1.538-1.027,2.141,2.141,0,0,1-.319-1.624,2.286,2.286,0,0,1,2.734-1.723,2.315,2.315,0,0,1,1.894,2.651A2.288,2.288,0,0,1,668.362,1045.147Zm-.106-3.53a1.313,1.313,0,0,0-1.327,1.01,1.215,1.215,0,0,0,.18.921,1.493,1.493,0,0,0,.94.622,1.391,1.391,0,0,0,1.655-.984,1.367,1.367,0,0,0-1.149-1.539A1.486,1.486,0,0,0,668.256,1041.617Z" transform="translate(-665.958 -1040.672)" fill="#231f20"/>
          </g>
        </g>
        <g id="Grupo_57241" data-name="Grupo 57241" transform="translate(0 27.709)">
          <path id="Trazado_112174" data-name="Trazado 112174" d="M271.384,895.665h0a.473.473,0,0,1-.47-.476l.023-3.261c.011-1.278.023-2.8-.007-4.327l-.091-7.6a.473.473,0,1,1,.945-.012l.091,7.6c.03,1.529.018,3.063.008,4.348l-.024,3.259A.473.473,0,0,1,271.384,895.665Z" transform="translate(-242.116 -879.518)" fill="#231f20"/>
          <g id="Grupo_57236" data-name="Grupo 57236" transform="translate(26.869 17.614)">
            <path id="Trazado_112175" data-name="Trazado 112175" d="M271.208,899.693a1.826,1.826,0,1,1-.08,3.647,1.825,1.825,0,1,1,.08-3.647Z" transform="translate(-268.826 -899.22)" fill="#231f20"/>
            <path id="Trazado_112176" data-name="Trazado 112176" d="M271.126,903.759h-.065a2.37,2.37,0,0,1-1.674-.741,2.221,2.221,0,0,1-.614-1.608,2.315,2.315,0,0,1,2.352-2.245,2.441,2.441,0,0,1,1.732.733,2.24,2.24,0,0,1,.636,1.612A2.335,2.335,0,0,1,271.126,903.759Zm.02-3.647a1.381,1.381,0,0,0-1.429,1.324,1.292,1.292,0,0,0,.357.933,1.426,1.426,0,0,0,1.012.444l.04.474v-.472a1.393,1.393,0,0,0,1.421-1.33,1.3,1.3,0,0,0-.372-.931,1.461,1.461,0,0,0-1.029-.442Z" transform="translate(-268.772 -899.165)" fill="#231f20"/>
          </g>
          <path id="Trazado_112177" data-name="Trazado 112177" d="M270.221,922.042a.473.473,0,0,1-.473-.472.5.5,0,0,1,0-.064c.01-.089.11-1,.21-2.336l.325-5.209c.152-2.253.238-3.952.261-5.2l.076-2.38a.491.491,0,0,1,.488-.456.472.472,0,0,1,.456.487l-.076,2.374c-.022,1.255-.109,2.969-.262,5.234l-.325,5.213C270.7,922.042,270.7,922.042,270.221,922.042Z" transform="translate(-242.004 -882.25)" fill="#231f20"/>
          <g id="Grupo_57237" data-name="Grupo 57237" transform="translate(25.454 41.241)">
            <path id="Trazado_112178" data-name="Trazado 112178" d="M269.78,926.055a1.862,1.862,0,0,1,1.7,2.01,1.829,1.829,0,0,1-2.053,1.621,1.885,1.885,0,0,1-1.7-2.012A1.851,1.851,0,0,1,269.78,926.055Z" transform="translate(-267.248 -925.573)" fill="#231f20"/>
            <path id="Trazado_112179" data-name="Trazado 112179" d="M269.595,930.116a2.56,2.56,0,0,1-.273-.015,2.361,2.361,0,0,1-2.119-2.526,2.314,2.314,0,0,1,2.567-2.044,2.364,2.364,0,0,1,1.613.85,2.28,2.28,0,0,1-1.789,3.736Zm-.058-3.653a1.364,1.364,0,0,0-1.393,1.2,1.415,1.415,0,0,0,1.286,1.5,1.358,1.358,0,0,0,1.53-1.2,1.337,1.337,0,0,0-.3-.983,1.427,1.427,0,0,0-.974-.511A1.309,1.309,0,0,0,269.537,926.464Z" transform="translate(-267.193 -925.518)" fill="#231f20"/>
          </g>
          <path id="Trazado_112180" data-name="Trazado 112180" d="M266.7,948.223c-.026,0-.053,0-.08,0a.476.476,0,0,1-.387-.546l1.268-7.5,1.014-7.516a.473.473,0,1,1,.937.127l-1.017,7.531-1.27,7.51A.472.472,0,0,1,266.7,948.223Z" transform="translate(-241.64 -884.974)" fill="#231f20"/>
          <g id="Grupo_57238" data-name="Grupo 57238" transform="translate(21.89 64.643)">
            <path id="Trazado_112181" data-name="Trazado 112181" d="M266,952.182a1.836,1.836,0,0,1,1.489,2.154A1.889,1.889,0,1,1,266,952.182Z" transform="translate(-263.272 -951.675)" fill="#231f20"/>
            <path id="Trazado_112182" data-name="Trazado 112182" d="M265.6,956.214a2.489,2.489,0,0,1-.487-.048,2.329,2.329,0,0,1-1.854-2.71,2.384,2.384,0,0,1,4.289-.793,2.249,2.249,0,0,1,.341,1.712A2.327,2.327,0,0,1,265.6,956.214Zm-.034-3.649a1.358,1.358,0,1,0,1.4,1.621,1.315,1.315,0,0,0-.2-1,1.4,1.4,0,0,0-.915-.6A1.521,1.521,0,0,0,265.57,952.565Z" transform="translate(-263.218 -951.62)" fill="#231f20"/>
          </g>
          <path id="Trazado_112183" data-name="Trazado 112183" d="M260.281,973.852a.448.448,0,0,1-.156-.026.473.473,0,0,1-.29-.6l.786-2.24c.291-.854.607-1.909.942-3.029.191-.635.386-1.291.589-1.946.333-1.174.628-2.386.888-3.453.14-.574.271-1.11.4-1.589l.479-2.3a.464.464,0,0,1,.559-.368.473.473,0,0,1,.366.559l-.483,2.323c-.128.5-.258,1.029-.4,1.6-.263,1.077-.559,2.294-.9,3.5-.205.662-.4,1.315-.591,1.95-.339,1.132-.659,2.2-.955,3.065l-.787,2.246A.471.471,0,0,1,260.281,973.852Z" transform="translate(-240.976 -887.667)" fill="#231f20"/>
          <g id="Grupo_57239" data-name="Grupo 57239" transform="translate(15.506 87.407)">
            <path id="Trazado_112184" data-name="Trazado 112184" d="M259.153,977.65a1.825,1.825,0,0,1,1.121,2.372,1.866,1.866,0,0,1-2.429,1.031,1.847,1.847,0,0,1-1.1-2.368A1.886,1.886,0,0,1,259.153,977.65Z" transform="translate(-256.152 -977.065)" fill="#231f20"/>
            <path id="Trazado_112185" data-name="Trazado 112185" d="M258.49,981.6a2.4,2.4,0,0,1-.871-.165,2.322,2.322,0,0,1-1.372-2.979,2.389,2.389,0,0,1,4.372-.05,2.209,2.209,0,0,1,.039,1.733A2.3,2.3,0,0,1,258.49,981.6Zm-.061-3.655a1.338,1.338,0,0,0-.466,2.61,1.414,1.414,0,0,0,1.816-.763,1.271,1.271,0,0,0-.022-1,1.448,1.448,0,0,0-.821-.756A1.472,1.472,0,0,0,258.429,977.95Z" transform="translate(-256.097 -977.011)" fill="#231f20"/>
          </g>
          <path id="Trazado_112186" data-name="Trazado 112186" d="M250.3,998.367a.482.482,0,0,1-.191-.04.471.471,0,0,1-.241-.621l.959-2.174c.2-.451.42-.958.661-1.5.449-1.011.951-2.14,1.426-3.281l2.022-4.819c.557-1.3.883-2.178.885-2.183a.472.472,0,0,1,.886.328s-.334.9-.9,2.223l-2.02,4.815c-.476,1.147-.983,2.285-1.434,3.3-.238.537-.463,1.041-.658,1.495l-.961,2.173A.469.469,0,0,1,250.3,998.367Z" transform="translate(-239.943 -890.27)" fill="#231f20"/>
          <g id="Grupo_57240" data-name="Grupo 57240" transform="translate(6.274 109.203)">
            <path id="Trazado_112187" data-name="Trazado 112187" d="M248.965,1002.006a1.825,1.825,0,1,1-2.478.881A1.869,1.869,0,0,1,248.965,1002.006Z" transform="translate(-245.855 -1001.375)" fill="#231f20"/>
            <path id="Trazado_112188" data-name="Trazado 112188" d="M248.2,1005.92a2.415,2.415,0,0,1-1-.219,2.371,2.371,0,0,1-1.252-1.331,2.252,2.252,0,0,1,.056-1.732,2.393,2.393,0,0,1,3.1-1.115,2.361,2.361,0,0,1,1.255,1.328,2.247,2.247,0,0,1-.056,1.738A2.312,2.312,0,0,1,248.2,1005.92Zm-.087-3.667a1.364,1.364,0,0,0-1.249.778,1.306,1.306,0,0,0-.03,1.007,1.432,1.432,0,0,0,2.611.156,1.306,1.306,0,0,0,.031-1.011,1.424,1.424,0,0,0-.758-.8A1.441,1.441,0,0,0,248.111,1002.253Z" transform="translate(-245.801 -1001.322)" fill="#231f20"/>
          </g>
          <path id="Trazado_112189" data-name="Trazado 112189" d="M239.275,1022.385a.449.449,0,0,1-.2-.045.471.471,0,0,1-.229-.627l6.392-13.788a.473.473,0,0,1,.859.4l-6.4,13.792A.473.473,0,0,1,239.275,1022.385Z" transform="translate(-238.802 -892.774)" fill="#231f20"/>
        </g>
        <g id="Grupo_57242" data-name="Grupo 57242" transform="translate(290.199 16.332)">
          <path id="Trazado_112190" data-name="Trazado 112190" d="M580.2,875.325a3.2,3.2,0,0,1,1.346,1.1,3.053,3.053,0,0,1,.529,1.529,3.84,3.84,0,0,1-.815,2.6,4.971,4.971,0,0,1-6.661.968,3.535,3.535,0,0,1-.839-4.558,4.151,4.151,0,0,1,1.837-1.541,3.922,3.922,0,0,1-1.378-1.114,3.681,3.681,0,0,1-.637-1.91,5.234,5.234,0,0,1,1.187-3.71,4.917,4.917,0,0,1,3.713-1.846,4.272,4.272,0,0,1,3.187.96,3.938,3.938,0,0,1,1.4,2.849,4.751,4.751,0,0,1-.66,2.9A4.206,4.206,0,0,1,580.2,875.325ZM580.24,878a2.058,2.058,0,0,0-.731-1.516,2.385,2.385,0,0,0-1.753-.475,2.856,2.856,0,0,0-2.021.918,2.568,2.568,0,0,0-.666,1.964,2.075,2.075,0,0,0,.729,1.516,2.363,2.363,0,0,0,1.753.485,3.091,3.091,0,0,0,1.489-.485,2.452,2.452,0,0,0,.95-1.1A2.82,2.82,0,0,0,580.24,878Zm.951-7.373a2.568,2.568,0,0,0-.386-1.183,2.2,2.2,0,0,0-.983-.852,2.865,2.865,0,0,0-1.432-.244,2.831,2.831,0,0,0-2.352,1.588,4.246,4.246,0,0,0-.577,2.448,2.306,2.306,0,0,0,.8,1.67,2.463,2.463,0,0,0,1.842.547,3.131,3.131,0,0,0,2.3-1.2A3.8,3.8,0,0,0,581.191,870.626Z" transform="translate(-563.602 -866.828)"/>
          <path id="Trazado_112191" data-name="Trazado 112191" d="M566.481,867.976l-1.608,11.551a11.859,11.859,0,0,1,4.207-2.241L568.848,879a15.24,15.24,0,0,0-2.644,1.638,14.1,14.1,0,0,0-1.924,1.7,5.863,5.863,0,0,0-.714,1.051l-1.079.074,2.121-15.359Z" transform="translate(-562.487 -866.947)"/>
        </g>
        <g id="Grupo_57243" data-name="Grupo 57243" transform="translate(364.191 156.475)">
          <path id="Trazado_112192" data-name="Trazado 112192" d="M651.28,1043.69a3.2,3.2,0,0,1-1.445.991,3.072,3.072,0,0,1-1.625.078,3.875,3.875,0,0,1-2.28-1.52,5.008,5.008,0,0,1,.949-6.71,3.462,3.462,0,0,1,2.816-.56,3.41,3.41,0,0,1,1.823,1.037,4.178,4.178,0,0,1,.969,2.211,3.944,3.944,0,0,1,1.467-1.017,3.7,3.7,0,0,1,2.023-.074,5.265,5.265,0,0,1,3.249,2.194,4.944,4.944,0,0,1,.732,4.108,4.293,4.293,0,0,1-1.828,2.806,3.951,3.951,0,0,1-3.149.552,4.794,4.794,0,0,1-2.617-1.457A4.236,4.236,0,0,1,651.28,1043.69Zm-2.592-.718a2.065,2.065,0,0,0,1.668-.274,2.409,2.409,0,0,0,.955-1.56,2.873,2.873,0,0,0-.317-2.211,2.574,2.574,0,0,0-1.706-1.2,2.1,2.1,0,0,0-1.672.276,2.379,2.379,0,0,0-.963,1.556,3.108,3.108,0,0,0,.047,1.573,2.456,2.456,0,0,0,.8,1.231A2.783,2.783,0,0,0,648.688,1042.972Zm6.851,3a2.588,2.588,0,0,0,1.252-.038,2.235,2.235,0,0,0,1.1-.709,2.91,2.91,0,0,0,.637-1.315,2.848,2.848,0,0,0-.867-2.72,4.291,4.291,0,0,0-2.2-1.248,2.307,2.307,0,0,0-1.841.3,2.477,2.477,0,0,0-1.048,1.623,3.155,3.155,0,0,0,.511,2.562A3.843,3.843,0,0,0,655.539,1045.976Z" transform="translate(-645.017 -1024.46)"/>
          <path id="Trazado_112193" data-name="Trazado 112193" d="M661.511,1036.091a8.139,8.139,0,0,1-2.052-1.275,7.582,7.582,0,0,1-1.408-1.707c-.419-.672-1.081-1.937-2-3.8a23.4,23.4,0,0,0-1.26-2.339,5.762,5.762,0,0,0-1.309-1.444,2.766,2.766,0,0,0-1.072-.481,2.407,2.407,0,0,0-1.9.343,2.492,2.492,0,0,0-1.1,1.622,2.656,2.656,0,0,0,.324,1.983,4.4,4.4,0,0,0,2.082,1.626l-.657,1.736a5.012,5.012,0,0,1-2.781-2.221,4.685,4.685,0,0,1-.444-3.418,5.1,5.1,0,0,1,1.032-2.18,3.628,3.628,0,0,1,1.819-1.22,4.181,4.181,0,0,1,2.079-.086,4.73,4.73,0,0,1,2.617,1.681,28.638,28.638,0,0,1,2.517,4.547,22.162,22.162,0,0,0,1.319,2.411,6.435,6.435,0,0,0,1.079,1.281l1.46-6.648,1.6.724Z" transform="translate(-645.304 -1023.143)"/>
        </g>
        <g id="Grupo_57245" data-name="Grupo 57245" transform="translate(66.747 170.565)">
          <path id="Trazado_112194" data-name="Trazado 112194" d="M314.2,1064.08a.946.946,0,0,1-.168-1.877l105.307-19.1a.945.945,0,0,1,.337,1.86l-105.306,19.1A1,1,0,0,1,314.2,1064.08Z" transform="translate(-313.252 -1039.296)" fill="#231f20"/>
          <g id="Grupo_57244" data-name="Grupo 57244" transform="translate(101.588)">
            <path id="Trazado_112195" data-name="Trazado 112195" d="M428.521,1049.662,447.7,1040.6l-21.138-1.746Z" transform="translate(-426.562 -1038.858)" fill="#231f20"/>
          </g>
        </g>
        <g id="Grupo_57247" data-name="Grupo 57247" transform="translate(98.761 20.783)">
          <path id="Trazado_112196" data-name="Trazado 112196" d="M353.818,879.729a.962.962,0,0,1-.223-.026.946.946,0,0,1-.7-1.142l1.466-6.044a.945.945,0,0,1,1.837.445l-1.466,6.045A.945.945,0,0,1,353.818,879.729Z" transform="translate(-349.364 -871.793)" fill="#231f20"/>
          <g id="Grupo_57246" data-name="Grupo 57246" transform="translate(0 2.058)">
            <path id="Trazado_112197" data-name="Trazado 112197" d="M348.959,874.089l.508,21.2,10.163-18.617Z" transform="translate(-348.959 -874.089)" fill="#231f20"/>
          </g>
        </g>
        <path id="Trazado_112198" data-name="Trazado 112198" d="M392.413,995.315a8.219,8.219,0,0,1-4.32-1.181l-56.516-34.277,36.369-59.988,56.526,34.271c4.537,2.752,5.594,9.426,2.975,18.8C422.275,971.439,404.355,995.315,392.413,995.315ZM332.874,959.54l55.709,33.786a7.278,7.278,0,0,0,3.83,1.044c11.573,0,29.036-23.483,34.124-41.688,2.494-8.922,1.587-15.221-2.553-17.733l-55.72-33.781Z" transform="translate(-248.4 -853.915)" fill="#231f20"/>
      </g>
    </g>
    <g id="Grupo_57258" data-name="Grupo 57258" transform="translate(262.931 666.064)">
      <g id="Grupo_57252" data-name="Grupo 57252" transform="translate(0 340.289)">
        <path id="Trazado_112199" data-name="Trazado 112199" d="M622.193,1100.991l-.007-.785-.776-.135c-42.9-7.471-45.606-17.892-44.663-28.812.39-4.5.473-13.883.478-14.281l.008-.923-.923-.028s-21.774-.7-42.531-1.381l-.063,1.887c18.236.6,37.253,1.211,41.608,1.351-.031,2.525-.147,9.6-.46,13.212-1.19,13.768,6.021,23.723,45.445,30.7.125,17.942-.959,69.118-2.558,77.854-1.738.167-8.977-1.733-16.644-3.746-19.521-5.132-52.2-13.714-84.6-14.766-16.946-.559-26.25,2.454-32.028,6.648l-.7-.384a114.977,114.977,0,0,0-17.958-8.216l-.888-.32-.645,1.775.888.324a112.915,112.915,0,0,1,17.687,8.091l.005,0a36,36,0,0,0-7.309,9.375c-3.02,5-5.408,8.945-12.9,9.039l-.422.01c-8.34.165-39,.5-83.323-2.24-59.81-3.7-102.9-7.709-109.513-8.338l4.3-128.807,63.312,2.054.061-1.887-64.256-2.086-.943-.032-4.417,132.469.882.086c.449.043,45.643,4.422,110.463,8.427,31.8,1.965,56.583,2.352,71.159,2.352,5.774,0,9.947-.062,12.319-.109l.405-.007c8.547-.109,11.436-4.89,14.5-9.952,4.667-7.717,10.472-17.323,39.27-16.384,32.193,1.044,64.737,9.595,84.182,14.7,12.494,3.283,16.885,4.373,18.3,3.5a1.3,1.3,0,0,0,.6-.834C621.332,1172.036,622.343,1116.721,622.193,1100.991Z" transform="translate(-267.45 -1046.145)" fill="#ed1c24"/>
        <rect id="Rectngulo_10620" data-name="Rectngulo 10620" width="1.889" height="52.486" transform="translate(203.315 8.443) rotate(-88.141)" fill="#ed1c24"/>
        <rect id="Rectngulo_10621" data-name="Rectngulo 10621" width="1.889" height="52.487" transform="translate(139.492 6.372) rotate(-88.142)" fill="#ed1c24"/>
        <rect id="Rectngulo_10622" data-name="Rectngulo 10622" width="1.889" height="52.482" transform="translate(75.672 4.301) rotate(-88.144)" fill="#ed1c24"/>
        <g id="Grupo_57250" data-name="Grupo 57250" transform="translate(80.026 10.536)">
          <path id="Trazado_112200" data-name="Trazado 112200" d="M356.734,1068.17l1.891-.119c-.022.264-.035.42-.037.473a2.936,2.936,0,0,0,.3,1.355,2.5,2.5,0,0,0,.9,1.067,2.355,2.355,0,0,0,1.233.4,3.185,3.185,0,0,0,1.772-.529,4.233,4.233,0,0,0,1.5-1.661,4.984,4.984,0,0,0,.627-2.205,2.7,2.7,0,0,0-.676-2.016,2.628,2.628,0,0,0-1.928-.809,3.2,3.2,0,0,0-1.544.332,4.448,4.448,0,0,0-1.385,1.11l-1.615-.164,2.516-7.506,7.336.239-.415,1.666-5.707-.187-1.252,3.733a4.928,4.928,0,0,1,1.33-.637,4.182,4.182,0,0,1,1.384-.183,3.8,3.8,0,0,1,2.79,1.211,4.181,4.181,0,0,1,1,3.108,6.646,6.646,0,0,1-.863,3.123,5.417,5.417,0,0,1-2.159,2.145,5.582,5.582,0,0,1-2.889.68,4.474,4.474,0,0,1-2.266-.649,3.668,3.668,0,0,1-1.438-1.634,4.558,4.558,0,0,1-.43-2.038C356.715,1068.406,356.722,1068.306,356.734,1068.17Z" transform="translate(-356.71 -1057.897)" fill="#ed1c24"/>
          <path id="Trazado_112201" data-name="Trazado 112201" d="M371.347,1072.873a19.209,19.209,0,0,1,1.165-3.564,29.012,29.012,0,0,1,2.668-4.957,21.374,21.374,0,0,1,3.587-4.189l-7.491-.243.415-1.666,9.589.311-.405,1.667a19.472,19.472,0,0,0-4.443,5.308,27.591,27.591,0,0,0-3.149,7.394Z" transform="translate(-358.217 -1057.934)" fill="#ed1c24"/>
        </g>
        <g id="Grupo_57251" data-name="Grupo 57251" transform="translate(9.973 59.403)">
          <path id="Trazado_112202" data-name="Trazado 112202" d="M279.435,1112.4a8.118,8.118,0,0,1,2.223.856,7.473,7.473,0,0,1,1.677,1.384q.787.854,2.624,3.282a22.852,22.852,0,0,0,1.645,2.015,5.748,5.748,0,0,0,1.531,1.153,2.758,2.758,0,0,0,1.13.268,2.4,2.4,0,0,0,1.781-.664,2.422,2.422,0,0,0,.782-1.752,2.564,2.564,0,0,0-.672-1.841,4.363,4.363,0,0,0-2.315-1.188l.326-1.778a4.954,4.954,0,0,1,3.1,1.63,4.52,4.52,0,0,1,1.047,3.2,4.895,4.895,0,0,1-.609,2.271,3.569,3.569,0,0,1-1.547,1.493,4.182,4.182,0,0,1-2.006.451,4.7,4.7,0,0,1-2.844-1.144,28.174,28.174,0,0,1-3.264-3.91,21.569,21.569,0,0,0-1.715-2.073,6.358,6.358,0,0,0-1.279-1.038l-.221,6.629-1.688-.41Z" transform="translate(-278.633 -1112.402)" fill="#ed1c24"/>
          <path id="Trazado_112203" data-name="Trazado 112203" d="M287.6,1128.551a6.057,6.057,0,0,1,.917,1.561,3.843,3.843,0,0,1,.273,1.521,3.676,3.676,0,0,1-1.261,2.752,4.406,4.406,0,0,1-3.183,1,6.322,6.322,0,0,1-4.319-1.779,4.452,4.452,0,0,1-1.453-3.486,3.959,3.959,0,0,1,1.469-3.023,5.651,5.651,0,0,1,3.939-1.1,15.086,15.086,0,0,1,4.658.94,10.716,10.716,0,0,1,3.008,1.6,6.217,6.217,0,0,1,1.7,1.958,4.559,4.559,0,0,1,.489,2.286,3.364,3.364,0,0,1-1.041,2.445,4.161,4.161,0,0,1-2.777,1l-.107-1.7a2.944,2.944,0,0,0,1.784-.627,1.792,1.792,0,0,0,.588-1.3,2.692,2.692,0,0,0-.591-1.67,5.134,5.134,0,0,0-1.864-1.485A10.848,10.848,0,0,0,287.6,1128.551Zm-4.466-.784a3.071,3.071,0,0,0-2.162.708,2.321,2.321,0,0,0-.925,1.731,2.606,2.606,0,0,0,.478,1.47,4.109,4.109,0,0,0,1.561,1.357,4.761,4.761,0,0,0,2.123.6,3.147,3.147,0,0,0,2.223-.672,2.326,2.326,0,0,0,.884-1.766,2.973,2.973,0,0,0-1.128-2.292A4.55,4.55,0,0,0,283.137,1127.768Z" transform="translate(-278.574 -1113.808)" fill="#ed1c24"/>
        </g>
      </g>
      <g id="Grupo_57257" data-name="Grupo 57257" transform="translate(11.849)">
        <path id="Trazado_112204" data-name="Trazado 112204" d="M625.409,823.225c-2.144,0-6.78-1.511-16.713-4.841-18.818-6.311-50.316-16.872-81.948-19.918-28.276-2.727-34.593,6.495-39.671,13.9-3.334,4.864-6.46,9.459-14.915,9.032l-.309-.013c-8.174-.345-38.252-1.9-82.114-7.445-63.553-8.029-107.76-15.21-108.2-15.282l-.873-.142,12.713-131.927,64.053,6.171-.181,1.883-62.172-5.991L282.717,796.936c6.506,1.045,48.649,7.726,107.257,15.131,43.79,5.537,73.8,7.088,81.956,7.432l.326.013c7.36.372,9.973-3.415,13.262-8.211,5.358-7.817,12.025-17.544,41.41-14.714,31.847,3.065,63.472,13.671,82.368,20.006,7.392,2.479,14.435,4.8,16.107,4.771,2.126-8.629,6.423-59.634,7.431-77.542-38.365-9.416-44.833-19.8-42.791-33.47.533-3.584,1.094-10.635,1.285-13.152l-171.2-16.54.181-1.883,173.044,16.72-.066.918c-.029.4-.706,9.756-1.369,14.217-1.619,10.845.384,21.419,42.132,31.542l.763.185-.041.784c-.845,15.7-5.331,70.839-7.634,79.081a1.294,1.294,0,0,1-.656.8A2.261,2.261,0,0,1,625.409,823.225Z" transform="translate(-280.666 -666.591)" fill="#ed1c24"/>
        <path id="Trazado_112205" data-name="Trazado 112205" d="M517.381,817.879l-1.913-1.234a93.5,93.5,0,0,0-15.223-8.164l-.864-.381.762-1.729.865.38a95.129,95.129,0,0,1,15.49,8.309l1.9,1.229Z" transform="translate(-303.292 -681.051)" fill="#ed1c24"/>
        <rect id="Rectngulo_10623" data-name="Rectngulo 10623" width="1.891" height="51.764" transform="translate(82.585 8.729) rotate(-84.498)" fill="#ed1c24"/>
        <g id="Grupo_57253" data-name="Grupo 57253" transform="translate(102.137 15.055)">
          <path id="Trazado_112206" data-name="Trazado 112206" d="M397.3,689.387a6.058,6.058,0,0,1,1.594-.845,3.9,3.9,0,0,1,1.53-.212,3.7,3.7,0,0,1,2.7,1.347,4.306,4.306,0,0,1,.88,3.172,6.2,6.2,0,0,1-1.937,4.193,4.492,4.492,0,0,1-3.538,1.3,3.98,3.98,0,0,1-2.966-1.563,5.512,5.512,0,0,1-.955-3.923,14.674,14.674,0,0,1,1.112-4.554,10.466,10.466,0,0,1,1.71-2.9,6.18,6.18,0,0,1,2.019-1.606,4.615,4.615,0,0,1,2.3-.4,3.387,3.387,0,0,1,2.4,1.117,4.078,4.078,0,0,1,.9,2.775l-1.7.042a2.877,2.877,0,0,0-.559-1.782,1.8,1.8,0,0,0-1.279-.628,2.712,2.712,0,0,0-1.688.52,5.059,5.059,0,0,0-1.555,1.781A10.783,10.783,0,0,0,397.3,689.387Zm-.948,4.372a3.022,3.022,0,0,0,.628,2.158,2.339,2.339,0,0,0,1.7.975,2.63,2.63,0,0,0,1.49-.417,4.066,4.066,0,0,0,1.411-1.487,4.656,4.656,0,0,0,.684-2.07,3.1,3.1,0,0,0-.589-2.216,2.353,2.353,0,0,0-1.733-.939,3,3,0,0,0-2.333,1.027A4.459,4.459,0,0,0,396.352,693.759Z" transform="translate(-394.589 -683.383)" fill="#ed1c24"/>
          <path id="Trazado_112207" data-name="Trazado 112207" d="M407.052,694.449l1.868-.051c-.033.262-.049.42-.053.473a2.976,2.976,0,0,0,.242,1.365,2.492,2.492,0,0,0,.845,1.1,2.3,2.3,0,0,0,1.2.444,3.108,3.108,0,0,0,1.767-.464,4.206,4.206,0,0,0,1.541-1.6,5.078,5.078,0,0,0,.7-2.181,2.729,2.729,0,0,0-.591-2.038,2.575,2.575,0,0,0-1.867-.882,3.137,3.137,0,0,0-1.536.277,4.421,4.421,0,0,0-1.408,1.057l-1.584-.224,2.76-7.406,7.223.509-.472,1.65-5.617-.4L410.7,689.76a4.913,4.913,0,0,1,1.334-.591,4.156,4.156,0,0,1,1.371-.131,3.731,3.731,0,0,1,2.7,1.315,4.231,4.231,0,0,1,.873,3.144,6.76,6.76,0,0,1-.966,3.089,5.409,5.409,0,0,1-2.209,2.064,5.468,5.468,0,0,1-2.873.573,4.378,4.378,0,0,1-2.209-.734,3.651,3.651,0,0,1-1.355-1.687,4.589,4.589,0,0,1-.347-2.05C407.025,694.683,407.035,694.583,407.052,694.449Z" transform="translate(-395.874 -683.479)" fill="#ed1c24"/>
        </g>
        <g id="Grupo_57255" data-name="Grupo 57255" transform="translate(237.383 23.187)">
          <rect id="Rectngulo_10624" data-name="Rectngulo 10624" width="11.455" height="1.889" transform="translate(8.174 11.402) rotate(-84.497)" fill="#ed1c24"/>
          <g id="Grupo_57254" data-name="Grupo 57254" transform="translate(0 7.845)">
            <path id="Trazado_112208" data-name="Trazado 112208" d="M545.44,701.2l7.814,17.148L564.2,703.011Z" transform="translate(-545.44 -701.204)" fill="#ed1c24"/>
          </g>
        </g>
        <g id="Grupo_57256" data-name="Grupo 57256" transform="translate(14.02 60.888)">
          <path id="Trazado_112209" data-name="Trazado 112209" d="M298.3,734.505a7.916,7.916,0,0,1,2.129,1A7.392,7.392,0,0,1,301.99,737q.715.9,2.358,3.448a22.751,22.751,0,0,0,1.484,2.121,5.664,5.664,0,0,0,1.429,1.252,2.7,2.7,0,0,0,1.092.344,2.357,2.357,0,0,0,1.8-.545,2.423,2.423,0,0,0,.887-1.694,2.587,2.587,0,0,0-.535-1.883,4.292,4.292,0,0,0-2.2-1.341l.442-1.754a4.881,4.881,0,0,1,2.94,1.837,4.557,4.557,0,0,1,.814,3.257,4.924,4.924,0,0,1-.754,2.225,3.537,3.537,0,0,1-1.624,1.386,4.06,4.06,0,0,1-2,.316,4.6,4.6,0,0,1-2.721-1.331,28.048,28.048,0,0,1-2.947-4.12,21.22,21.22,0,0,0-1.547-2.182,6.337,6.337,0,0,0-1.188-1.122l-.667,6.6-1.634-.521Z" transform="translate(-296.419 -734.505)" fill="#ed1c24"/>
          <path id="Trazado_112210" data-name="Trazado 112210" d="M301.223,748.01l-.006,1.868c-.26-.039-.419-.062-.471-.068a2.983,2.983,0,0,0-1.372.2,2.5,2.5,0,0,0-1.123.81,2.3,2.3,0,0,0-.481,1.186,3.122,3.122,0,0,0,.409,1.78,4.2,4.2,0,0,0,1.556,1.591,5.072,5.072,0,0,0,2.159.766,2.722,2.722,0,0,0,2.056-.529,2.58,2.58,0,0,0,.938-1.841,3.141,3.141,0,0,0-.231-1.543,4.419,4.419,0,0,0-1.013-1.437l.272-1.579,7.319,2.986-.727,7.2-1.635-.521.566-5.6L305.8,751.8a4.91,4.91,0,0,1,.549,1.351,4.13,4.13,0,0,1,.09,1.375,3.719,3.719,0,0,1-1.4,2.664,4.209,4.209,0,0,1-3.166.778,6.74,6.74,0,0,1-3.059-1.062,5.388,5.388,0,0,1-2-2.269,5.452,5.452,0,0,1-.486-2.89,4.362,4.362,0,0,1,.8-2.185,3.656,3.656,0,0,1,1.726-1.3,4.611,4.611,0,0,1,2.061-.285C300.988,747.976,301.091,747.989,301.223,748.01Z" transform="translate(-296.304 -735.896)" fill="#ed1c24"/>
        </g>
      </g>
    </g>
    <g id="Grupo_57269" data-name="Grupo 57269" transform="translate(236.639 661.501)">
      <path id="Trazado_112211" data-name="Trazado 112211" d="M467.665,1157.607l-229.54-20.9.319-1.1c.889-3.07,89.008-307.108,89.5-308.912,2.073-7.928,6.311-10.711,10.8-13.657,7.229-4.746,15.422-10.127,15.422-41.723,0-33.3-6.618-67.5-10.573-87.938-1.185-6.128-2.122-10.969-2.629-14.417-.618-4.216-.654-6.273.817-6.558,8.308-1.6,62.925-.725,78.443-.014l.789.035.1.784c6,45.385,16.18,48.605,26.98,47.992,4.45-.256,18.52-.012,19.115,0l.928.016v.929s0,40.381,0,62.222h-1.889c0-19.884,0-55.135,0-61.293-3.281-.05-14.318-.2-18.047.013-13.655.771-23.238-7.161-28.855-48.845-17.718-.763-68.252-1.418-76.871-.041-.329,1.76,1.207,9.7,2.971,18.819,3.968,20.5,10.608,54.815,10.608,88.3,0,32.616-8.646,38.293-16.274,43.3-4.355,2.86-8.116,5.329-10.006,12.559-.32,1.222-82.456,284.621-89.19,307.857l225.212,20.5c.057-8.534.453-67.494.453-84.979h1.889c0,18.778-.454,85.35-.459,86.02Z" transform="translate(-238.125 -661.501)" fill="#231f20"/>
      <g id="Grupo_57259" data-name="Grupo 57259" transform="translate(111.464 139.849)">
        <path id="Trazado_112212" data-name="Trazado 112212" d="M363.331,818.067c2.726,4.14,3.4,4.883,7.61,15.082Z" transform="translate(-362.542 -817.547)" fill="#fff"/>
        <path id="Trazado_112213" data-name="Trazado 112213" d="M369.977,833.449c-3.89-9.429-4.736-10.707-7-14.129l-.525-.793,1.578-1.041.523.791c2.337,3.532,3.211,4.853,7.172,14.451Z" transform="translate(-362.451 -817.487)" fill="#231f20"/>
      </g>
      <g id="Grupo_57260" data-name="Grupo 57260" transform="translate(228.117 338.232)">
        <path id="Trazado_112214" data-name="Trazado 112214" d="M493.618,1038.761v0Z" transform="translate(-492.673 -1038.761)" fill="#fff"/>
        <rect id="Rectngulo_10625" data-name="Rectngulo 10625" width="1.89" height="55.196" fill="#231f20"/>
      </g>
      <g id="Grupo_57262" data-name="Grupo 57262" transform="translate(199.066 117.823)">
        <path id="Trazado_112215" data-name="Trazado 112215" d="M491.743,804.407h-.009l-16.566-.173a.945.945,0,0,1,.011-1.891h.009l16.566.174a.945.945,0,0,1-.011,1.89Z" transform="translate(-461.617 -793.894)" fill="#231f20"/>
        <g id="Grupo_57261" data-name="Grupo 57261">
          <path id="Trazado_112216" data-name="Trazado 112216" d="M476.577,792.919l-16.415,9.253,16.22,9.593Z" transform="translate(-460.161 -792.919)" fill="#231f20"/>
        </g>
      </g>
      <g id="Grupo_57263" data-name="Grupo 57263" transform="translate(107.875 458.407)">
        <path id="Trazado_112217" data-name="Trazado 112217" d="M363.3,1188.249l1.095-3.947-5.949-.534.527-1.89,8.917-9.075,1.472.131-2.708,9.84,2.049.183-.46,1.691-2.049-.186-1.095,3.948Zm1.555-5.636,1.778-6.463-5.936,6.09Z" transform="translate(-358.447 -1172.803)" fill="#ed1c24"/>
        <path id="Trazado_112218" data-name="Trazado 112218" d="M371.753,1183.769a15.576,15.576,0,0,1,.865-4.012,15.019,15.019,0,0,1,1.48-3.189,7.875,7.875,0,0,1,1.552-1.807,5.274,5.274,0,0,1,1.505-.9,3.693,3.693,0,0,1,4.268,1.4,5.985,5.985,0,0,1,.82,3.978,17.623,17.623,0,0,1-1.172,5.1,9.913,9.913,0,0,1-2.894,4.318,4.1,4.1,0,0,1-2.944.894,3.511,3.511,0,0,1-2.663-1.64A6.365,6.365,0,0,1,371.753,1183.769Zm1.7.648a4.807,4.807,0,0,0,.273,2.308,1.982,1.982,0,0,0,1.714,1.29,2.438,2.438,0,0,0,1.977-.851,9.577,9.577,0,0,0,2.179-4.051,21.514,21.514,0,0,0,.971-4.484,3.98,3.98,0,0,0-.414-2.5,1.966,1.966,0,0,0-1.528-.9,2.423,2.423,0,0,0-1.368.278,3.872,3.872,0,0,0-1.295,1.257,14.279,14.279,0,0,0-1.714,3.957A18.364,18.364,0,0,0,373.456,1184.417Z" transform="translate(-359.82 -1172.891)" fill="#ed1c24"/>
      </g>
      <g id="Grupo_57264" data-name="Grupo 57264" transform="translate(61.47 268.598)">
        <path id="Trazado_112219" data-name="Trazado 112219" d="M311.652,982.625a6.873,6.873,0,0,1-.446-1.864,4.462,4.462,0,0,1,.147-1.638,3.874,3.874,0,0,1,1.911-2.47,3.958,3.958,0,0,1,3.249-.129,6.219,6.219,0,0,1,3.579,3.047,5.114,5.114,0,0,1,.438,3.991,4.145,4.145,0,0,1-2.18,2.688,5.064,5.064,0,0,1-3.985.021,14.163,14.163,0,0,1-4.118-2.28,10.787,10.787,0,0,1-2.4-2.492,6.863,6.863,0,0,1-1.078-2.492,5.268,5.268,0,0,1,.147-2.485,3.575,3.575,0,0,1,1.624-2.218,3.764,3.764,0,0,1,2.871-.245l-.351,1.779a2.642,2.642,0,0,0-1.84.137,1.9,1.9,0,0,0-.895,1.171,3.1,3.1,0,0,0,.111,1.879,5.419,5.419,0,0,0,1.354,2.054A10.745,10.745,0,0,0,311.652,982.625Zm3.981,2.064a2.775,2.775,0,0,0,2.215-.117,2.424,2.424,0,0,0,1.325-1.516,3,3,0,0,0-.06-1.65,4.387,4.387,0,0,0-1.1-1.83,4.543,4.543,0,0,0-1.831-1.222,2.841,2.841,0,0,0-2.262.062,2.449,2.449,0,0,0-1.3,1.565,3.41,3.41,0,0,0,.452,2.674A4.444,4.444,0,0,0,315.633,984.689Z" transform="translate(-306.688 -962.416)"/>
        <path id="Trazado_112220" data-name="Trazado 112220" d="M318.157,973.526a13.114,13.114,0,0,1-3.432-1.792,13.8,13.8,0,0,1-2.553-2.264,8.1,8.1,0,0,1-1.291-2.032,6.226,6.226,0,0,1-.48-1.783,4.518,4.518,0,0,1,.178-1.71,3.824,3.824,0,0,1,2.03-2.481,4.859,4.859,0,0,1,3.774.011,14.965,14.965,0,0,1,4.345,2.358,9.722,9.722,0,0,1,3.261,4,4.987,4.987,0,0,1,.159,3.3,3.746,3.746,0,0,1-2.067,2.445A5.144,5.144,0,0,1,318.157,973.526Zm.963-1.651a3.852,3.852,0,0,0,2.143.22,2.034,2.034,0,0,0,1.542-1.522,2.928,2.928,0,0,0-.334-2.27,9.012,9.012,0,0,0-3.177-3.187,18.069,18.069,0,0,0-3.835-2.009,3.216,3.216,0,0,0-2.351-.116,2.115,2.115,0,0,0-1.145,1.414,3.013,3.013,0,0,0-.05,1.5,4.168,4.168,0,0,0,.851,1.64,12.979,12.979,0,0,0,3.2,2.679A15.347,15.347,0,0,0,319.12,971.876Z" transform="translate(-307.07 -961.092)"/>
      </g>
      <g id="Grupo_57265" data-name="Grupo 57265" transform="translate(206.293 270.431)">
        <path id="Trazado_112221" data-name="Trazado 112221" d="M474.865,983.989a3.237,3.237,0,0,1-1.154,1.325,2.8,2.8,0,0,1-1.512.442,3.571,3.571,0,0,1-2.454-1.037,4.792,4.792,0,0,1-1.524-3.743,4.844,4.844,0,0,1,1.035-3.274,3.217,3.217,0,0,1,2.531-1.2,3.116,3.116,0,0,1,1.924.646,4.334,4.334,0,0,1,1.367,2.028,3.974,3.974,0,0,1,1.168-1.356,3.362,3.362,0,0,1,1.886-.528,4.874,4.874,0,0,1,3.5,1.507,5.346,5.346,0,0,1,1.535,4.006,4.685,4.685,0,0,1-1.139,3.255,3.68,3.68,0,0,1-2.846,1.26,4.363,4.363,0,0,1-2.759-.9A4.412,4.412,0,0,1,474.865,983.989Zm-2.585-.152a1.914,1.914,0,0,0,1.513-.652,2.619,2.619,0,0,0,.575-1.795,3.114,3.114,0,0,0-.752-2.171,2.393,2.393,0,0,0-1.851-.836,1.934,1.934,0,0,0-1.512.649,2.6,2.6,0,0,0-.585,1.795,3.407,3.407,0,0,0,.368,1.584,2.457,2.457,0,0,0,1,1.074A2.558,2.558,0,0,0,472.281,983.836Zm7.056,1.526a2.315,2.315,0,0,0,1.167-.317,2.249,2.249,0,0,0,.888-.965,3.2,3.2,0,0,0,.331-1.475,3.02,3.02,0,0,0-1.376-2.569,3.9,3.9,0,0,0-2.325-.777,2.152,2.152,0,0,0-1.668.715,2.712,2.712,0,0,0-.649,1.883,3.394,3.394,0,0,0,1.006,2.484A3.536,3.536,0,0,0,479.336,985.362Z" transform="translate(-468.222 -964.52)"/>
        <path id="Trazado_112222" data-name="Trazado 112222" d="M479.562,973.824l-.168-1.832a2.871,2.871,0,0,0,1.746-.754,1.95,1.95,0,0,0,.52-1.358,3,3,0,0,0-.9-2.08,7.851,7.851,0,0,0-3.782-2.084,8.446,8.446,0,0,1,.967,1.743,4.328,4.328,0,0,1,.289,1.557,4.071,4.071,0,0,1-.9,2.586,3.985,3.985,0,0,1-3.355,1.506,5.815,5.815,0,0,1-4.239-1.748,4.967,4.967,0,0,1-1.514-3.678,4.326,4.326,0,0,1,1.344-3.254,5.248,5.248,0,0,1,3.8-1.291,13.433,13.433,0,0,1,4.71.865,8.6,8.6,0,0,1,4.03,2.775,5.219,5.219,0,0,1,1.056,3.2,3.611,3.611,0,0,1-3.606,3.844Zm-5.785-2.6a3.023,3.023,0,0,0,2.2-.79,2.526,2.526,0,0,0,.819-1.88,2.945,2.945,0,0,0-.507-1.606,4.554,4.554,0,0,0-3.6-1.945,3.279,3.279,0,0,0-1.557.377,2.55,2.55,0,0,0-1.083,1.027,2.672,2.672,0,0,0-.366,1.319A2.8,2.8,0,0,0,470,969a3.9,3.9,0,0,0,.938,1.158,4.1,4.1,0,0,0,1.422.8A4.562,4.562,0,0,0,473.777,971.221Z" transform="translate(-468.223 -963.137)"/>
      </g>
      <g id="Grupo_57266" data-name="Grupo 57266" transform="translate(228.117 261.888)">
        <path id="Trazado_112223" data-name="Trazado 112223" d="M493.618,953.608v0Z" transform="translate(-492.673 -953.608)" fill="#fff"/>
        <rect id="Rectngulo_10626" data-name="Rectngulo 10626" width="1.89" height="55.186" transform="translate(0 0)" fill="#231f20"/>
      </g>
      <g id="Grupo_57267" data-name="Grupo 57267" transform="translate(228.117 191.061)">
        <path id="Trazado_112224" data-name="Trazado 112224" d="M493.618,874.608v0Z" transform="translate(-492.673 -874.608)" fill="#fff"/>
        <rect id="Rectngulo_10627" data-name="Rectngulo 10627" width="1.89" height="55.193" fill="#231f20"/>
      </g>
      <g id="Grupo_57268" data-name="Grupo 57268" transform="translate(228.117 122.07)">
        <path id="Trazado_112225" data-name="Trazado 112225" d="M493.618,797.657v0Z" transform="translate(-492.673 -797.657)" fill="#fff"/>
        <rect id="Rectngulo_10628" data-name="Rectngulo 10628" width="1.89" height="55.193" transform="translate(0 0)" fill="#231f20"/>
      </g>
    </g>
  </g>
</svg>
