<svg xmlns="http://www.w3.org/2000/svg" width="81.225" height="81.226" viewBox="0 0 81.225 81.226">
  <g id="Grupo_57736" data-name="Grupo 57736" transform="translate(-299.243 -3354.887)">
    <g id="Grupo_57732" data-name="Grupo 57732" transform="translate(-155.799 -1305.626)">
      <path id="Trazado_117845" data-name="Trazado 117845" d="M547.5,4719.065a2.378,2.378,0,0,0,0-3.364l-13.573-13.574a3.807,3.807,0,0,0-5.385,0l-.673.673,16.266,16.266a2.38,2.38,0,0,0,3.365,0Z" transform="translate(-28.749 -15.988)" fill="#ebad88"/>
      <path id="Trazado_117846" data-name="Trazado 117846" d="M534.6,4709.53l3.366-3.365-4.039-4.039a3.808,3.808,0,0,0-5.385,0l-.673.674Z" transform="translate(-28.749 -15.988)" fill="#0ac4bf"/>
      <path id="Trazado_117847" data-name="Trazado 117847" d="M483.534,4719.065a2.379,2.379,0,0,1,0-3.364l13.574-13.574a3.806,3.806,0,0,1,5.384,0l.673.673L486.9,4719.066A2.38,2.38,0,0,1,483.534,4719.065Z" transform="translate(-10.973 -15.988)" fill="#ebad88"/>
      <path id="Trazado_117848" data-name="Trazado 117848" d="M503.108,4709.53l-3.365-3.365,4.039-4.039a3.807,3.807,0,0,1,5.384,0l.673.674Z" transform="translate(-17.647 -15.988)" fill="#0ac4bf"/>
      <path id="Trazado_117849" data-name="Trazado 117849" d="M510.35,4701.012h14.278v19.117H510.35Z" transform="translate(-21.834 -15.988)" fill="#0ac4bf"/>
      <path id="Trazado_117850" data-name="Trazado 117850" d="M526.077,4701.012h4.76v19.117h-4.76Z" transform="translate(-28.043 -15.988)" fill="#08938f"/>
      <path id="Trazado_117851" data-name="Trazado 117851" d="M524.628,4729.846V4758.4h-4.759v-21.417a2.38,2.38,0,1,0-4.759,0V4758.4H510.35v-28.556Z" transform="translate(-21.834 -27.371)" fill="#339ce9"/>
      <g id="Grupo_57734" data-name="Grupo 57734" transform="translate(498.034 4702.475)">
        <path id="Trazado_117852" data-name="Trazado 117852" d="M526.077,4729.846h4.76V4758.4h-4.76Z" transform="translate(-526.077 -4729.846)" fill="#2675af"/>
      </g>
      <path id="Trazado_117853" data-name="Trazado 117853" d="M515.109,4773.717H510.35v-2.7a2.379,2.379,0,0,1,4.759,0Z" transform="translate(-21.834 -42.686)" fill="#be652b"/>
      <path id="Trazado_117854" data-name="Trazado 117854" d="M530.837,4773.717h-4.76v-2.7a2.38,2.38,0,0,1,4.76,0Z" transform="translate(-28.043 -42.686)" fill="#be652b"/>
      <path id="Trazado_117855" data-name="Trazado 117855" d="M520.593,4701.08a2.379,2.379,0,0,1-2.38-2.378v-5.553h4.76v5.553A2.379,2.379,0,0,1,520.593,4701.08Z" transform="translate(-24.938 -12.884)" fill="#e8916f"/>
      <path id="Trazado_117856" data-name="Trazado 117856" d="M519.041,4690.265a4.759,4.759,0,0,1-4.759-4.76v-2.539a4.759,4.759,0,1,1,9.518,0v2.539A4.76,4.76,0,0,1,519.041,4690.265Z" transform="translate(-23.386 -6.985)" fill="#ebad88"/>
      <path id="Trazado_117857" data-name="Trazado 117857" d="M519.041,4678.207a4.759,4.759,0,0,0-4.759,4.759v.152a9.93,9.93,0,0,0,9.518,0v-.152A4.76,4.76,0,0,0,519.041,4678.207Z" transform="translate(-23.386 -6.985)" fill="#be652b"/>
      <g id="Grupo_57735" data-name="Grupo 57735" transform="translate(455.042 4660.513)">
        <path id="Trazado_117858" data-name="Trazado 117858" d="M479.157,4697.046a1.19,1.19,0,0,0-2.331-.479c-.163.8-.294,1.613-.387,2.423a1.19,1.19,0,0,0,1.047,1.318,1.175,1.175,0,0,0,.137.008,1.19,1.19,0,0,0,1.181-1.054C478.888,4698.521,479.007,4697.775,479.157,4697.046Z" transform="translate(-463.486 -4674.372)" fill="#fff"/>
        <path id="Trazado_117859" data-name="Trazado 117859" d="M478.522,4720.047a1.19,1.19,0,1,0-2.379,0v2.351a1.19,1.19,0,1,0,2.379,0Z" transform="translate(-463.372 -4683.546)" fill="#fff"/>
        <path id="Trazado_117860" data-name="Trazado 117860" d="M477.333,4742.162a1.19,1.19,0,0,0-1.19,1.19v2.351a1.19,1.19,0,1,0,2.379,0v-2.351A1.19,1.19,0,0,0,477.333,4742.162Z" transform="translate(-463.372 -4692.746)" fill="#fff"/>
        <path id="Trazado_117861" data-name="Trazado 117861" d="M478.522,4708.395a1.19,1.19,0,0,0-2.379,0v2.351a1.19,1.19,0,1,0,2.379,0Z" transform="translate(-463.372 -4678.946)" fill="#fff"/>
        <path id="Trazado_117862" data-name="Trazado 117862" d="M482.323,4765.6a1.19,1.19,0,1,0-2.167.983c.337.742.71,1.478,1.111,2.188a1.19,1.19,0,1,0,2.072-1.17c-.366-.649-.708-1.322-1.016-2Z" transform="translate(-464.914 -4701.724)" fill="#fff"/>
        <path id="Trazado_117863" data-name="Trazado 117863" d="M488.3,4775.188a1.19,1.19,0,1,0-1.835,1.515c.519.628,1.071,1.242,1.643,1.822a1.19,1.19,0,1,0,1.7-1.669c-.523-.531-1.029-1.093-1.5-1.667Z" transform="translate(-467.341 -4705.614)" fill="#fff"/>
        <path id="Trazado_117864" data-name="Trazado 117864" d="M487.11,4678.783c.448-.6.928-1.179,1.427-1.732a1.191,1.191,0,0,0-1.769-1.594c-.545.606-1.07,1.244-1.56,1.9a1.19,1.19,0,1,0,1.9,1.431Z" transform="translate(-466.856 -4666.257)" fill="#fff"/>
        <path id="Trazado_117865" data-name="Trazado 117865" d="M566.6,4723.834a1.19,1.19,0,0,0-2.38,0v2.351a1.19,1.19,0,0,0,2.38,0Z" transform="translate(-498.141 -4685.042)" fill="#fff"/>
        <path id="Trazado_117866" data-name="Trazado 117866" d="M495.03,4671.014c.588-.459,1.2-.9,1.828-1.3a1.19,1.19,0,0,0-1.294-2c-.683.442-1.355.922-2,1.423a1.19,1.19,0,1,0,1.465,1.876Z" transform="translate(-470.069 -4663.28)" fill="#fff"/>
        <path id="Trazado_117867" data-name="Trazado 117867" d="M565.276,4704.075h.035a1.191,1.191,0,0,0,1.155-1.224c-.024-.815-.083-1.639-.178-2.447a1.19,1.19,0,1,0-2.363.277c.086.739.141,1.492.162,2.238A1.189,1.189,0,0,0,565.276,4704.075Z" transform="translate(-498.023 -4675.846)" fill="#fff"/>
        <path id="Trazado_117868" data-name="Trazado 117868" d="M566.6,4735.486a1.19,1.19,0,1,0-2.38,0v2.35a1.19,1.19,0,1,0,2.38,0Z" transform="translate(-498.141 -4689.641)" fill="#fff"/>
        <path id="Trazado_117869" data-name="Trazado 117869" d="M565.217,4750.674l.083,0a1.19,1.19,0,0,0,1.186-1.108c.045-.646.068-1.3.068-1.954v-.478a1.19,1.19,0,0,0-2.38,0v.478c0,.6-.021,1.2-.062,1.789a1.19,1.19,0,0,0,1.1,1.27Z" transform="translate(-498.099 -4694.241)" fill="#fff"/>
        <path id="Trazado_117870" data-name="Trazado 117870" d="M478.522,4731.7a1.19,1.19,0,1,0-2.379,0v2.351a1.19,1.19,0,0,0,2.379,0Z" transform="translate(-463.372 -4688.146)" fill="#fff"/>
        <path id="Trazado_117871" data-name="Trazado 117871" d="M566.6,4712.182a1.19,1.19,0,1,0-2.38,0v2.351a1.19,1.19,0,1,0,2.38,0Z" transform="translate(-498.141 -4680.441)" fill="#fff"/>
        <path id="Trazado_117872" data-name="Trazado 117872" d="M480.019,4689.083a1.188,1.188,0,0,0,1.546-.664c.277-.692.587-1.38.924-2.045a1.19,1.19,0,1,0-2.123-1.075c-.369.727-.709,1.48-1.011,2.237A1.191,1.191,0,0,0,480.019,4689.083Z" transform="translate(-464.606 -4670.041)" fill="#fff"/>
        <path id="Trazado_117873" data-name="Trazado 117873" d="M561.139,4689.731c.278.691.528,1.4.744,2.117a1.19,1.19,0,1,0,2.277-.688c-.236-.781-.51-1.56-.813-2.316a1.19,1.19,0,0,0-2.208.888Z" transform="translate(-496.892 -4671.402)" fill="#fff"/>
        <path id="Trazado_117874" data-name="Trazado 117874" d="M479.521,4756.98c-.183-.722-.335-1.46-.453-2.2a1.19,1.19,0,1,0-2.349.378c.13.805.3,1.614.5,2.4a1.19,1.19,0,1,0,2.306-.584Z" transform="translate(-463.593 -4697.333)" fill="#fff"/>
        <path id="Trazado_117875" data-name="Trazado 117875" d="M529.439,4663.631a1.19,1.19,0,0,0,.257-2.353c-.795-.177-1.608-.319-2.417-.425a1.19,1.19,0,0,0-.308,2.36c.74.1,1.483.227,2.21.389a1.145,1.145,0,0,0,.258.029Z" transform="translate(-483.029 -4660.644)" fill="#fff"/>
        <path id="Trazado_117876" data-name="Trazado 117876" d="M540.465,4667.243a1.19,1.19,0,0,0,.555-2.243c-.721-.38-1.469-.732-2.221-1.047a1.19,1.19,0,0,0-.918,2.2c.688.287,1.37.609,2.031.957a1.193,1.193,0,0,0,.553.137Z" transform="translate(-487.456 -4661.835)" fill="#fff"/>
        <path id="Trazado_117877" data-name="Trazado 117877" d="M541.715,4784.894c-.642.377-1.309.731-1.982,1.051a1.19,1.19,0,1,0,1.021,2.15c.736-.35,1.465-.737,2.167-1.15a1.19,1.19,0,0,0-1.207-2.051Z" transform="translate(-488.208 -4709.55)" fill="#fff"/>
        <path id="Trazado_117878" data-name="Trazado 117878" d="M531.167,4789.284c-.718.2-1.454.362-2.188.494a1.19,1.19,0,0,0,.42,2.343c.8-.145,1.608-.326,2.394-.54a1.19,1.19,0,0,0-.626-2.3Z" transform="translate(-483.844 -4711.332)" fill="#fff"/>
        <path id="Trazado_117879" data-name="Trazado 117879" d="M550.16,4673.622a1.19,1.19,0,0,0,.81-2.062c-.6-.554-1.226-1.089-1.869-1.59a1.19,1.19,0,0,0-1.46,1.88c.589.458,1.164.947,1.71,1.455a1.182,1.182,0,0,0,.809.318Z" transform="translate(-491.416 -4664.148)" fill="#fff"/>
        <path id="Trazado_117880" data-name="Trazado 117880" d="M559.563,4768.434a1.189,1.189,0,0,0-1.62.455c-.364.649-.763,1.291-1.184,1.907a1.19,1.19,0,0,0,.31,1.654,1.177,1.177,0,0,0,.671.209,1.19,1.19,0,0,0,.984-.519c.46-.673.9-1.375,1.3-2.085a1.19,1.19,0,0,0-.455-1.62Z" transform="translate(-495.115 -4703.057)" fill="#fff"/>
        <path id="Trazado_117881" data-name="Trazado 117881" d="M557.859,4682.305a1.19,1.19,0,0,0,1.007-1.822c-.431-.69-.9-1.371-1.391-2.021a1.19,1.19,0,1,0-1.9,1.436c.449.595.878,1.217,1.273,1.848a1.189,1.189,0,0,0,1.01.56Z" transform="translate(-494.636 -4667.413)" fill="#fff"/>
        <path id="Trazado_117882" data-name="Trazado 117882" d="M550.849,4777.929c-.522.533-1.074,1.048-1.64,1.533a1.191,1.191,0,0,0,1.548,1.81c.619-.53,1.221-1.094,1.792-1.676a1.19,1.19,0,0,0-1.7-1.667Z" transform="translate(-492.052 -4706.725)" fill="#fff"/>
        <path id="Trazado_117883" data-name="Trazado 117883" d="M564.1,4761.319c.267-.771.5-1.562.7-2.352a1.19,1.19,0,1,0-2.308-.579c-.181.722-.4,1.446-.641,2.15a1.189,1.189,0,0,0,.734,1.514,1.164,1.164,0,0,0,.39.067,1.19,1.19,0,0,0,1.124-.8Z" transform="translate(-497.181 -4698.796)" fill="#fff"/>
        <path id="Trazado_117884" data-name="Trazado 117884" d="M508.71,4788.844c-.72-.193-1.439-.424-2.138-.681a1.19,1.19,0,0,0-.821,2.234c.764.281,1.551.532,2.338.744a1.19,1.19,0,0,0,.621-2.3Z" transform="translate(-474.753 -4710.877)" fill="#fff"/>
        <path id="Trazado_117885" data-name="Trazado 117885" d="M517.907,4662.893a1.19,1.19,0,0,0-.106-2.378c-.816.037-1.637.109-2.443.216a1.191,1.191,0,0,0,.155,2.371,1.233,1.233,0,0,0,.158-.01c.737-.1,1.489-.165,2.236-.2Z" transform="translate(-478.445 -4660.513)" fill="#fff"/>
        <path id="Trazado_117886" data-name="Trazado 117886" d="M519.9,4790.722h-.059c-.747,0-1.5-.033-2.242-.1a1.191,1.191,0,0,0-.207,2.372c.809.07,1.633.105,2.459.105h.05a1.19,1.19,0,0,0,0-2.38Z" transform="translate(-479.226 -4711.875)" fill="#fff"/>
        <path id="Trazado_117887" data-name="Trazado 117887" d="M504.772,4665.653c.687-.288,1.394-.55,2.1-.775a1.191,1.191,0,0,0-.724-2.269c-.775.248-1.549.534-2.3.85a1.19,1.19,0,1,0,.922,2.194Z" transform="translate(-474.022 -4661.318)" fill="#fff"/>
        <path id="Trazado_117888" data-name="Trazado 117888" d="M498.464,4784.108c-.643-.377-1.278-.787-1.885-1.218a1.19,1.19,0,1,0-1.378,1.94c.664.472,1.358.92,2.061,1.333a1.19,1.19,0,0,0,1.2-2.054Z" transform="translate(-470.698 -4708.738)" fill="#fff"/>
        <path id="Trazado_117889" data-name="Trazado 117889" d="M580.816,4723.662h-5.853l.983-.983a1.19,1.19,0,0,0-1.682-1.683l-3.015,3.016a1.191,1.191,0,0,0,0,1.683l3.015,3.015a1.19,1.19,0,0,0,1.682-1.683l-.983-.984h5.853a1.19,1.19,0,0,0,0-2.38Z" transform="translate(-500.78 -4684.252)" fill="#fff"/>
        <path id="Trazado_117890" data-name="Trazado 117890" d="M568.933,4778.433h1.39a1.19,1.19,0,0,0,0-2.38h-4.263a1.19,1.19,0,0,0-1.19,1.19v4.264a1.19,1.19,0,1,0,2.379,0v-1.391l4.139,4.14a1.191,1.191,0,0,0,1.683-1.684Z" transform="translate(-498.4 -4706.125)" fill="#fff"/>
        <path id="Trazado_117891" data-name="Trazado 117891" d="M566.061,4673.56h4.263a1.19,1.19,0,0,0,0-2.38h-1.39l4.139-4.14a1.19,1.19,0,0,0-1.683-1.683l-4.138,4.14v-1.391a1.19,1.19,0,1,0-2.38,0v4.264A1.19,1.19,0,0,0,566.061,4673.56Z" transform="translate(-498.4 -4662.288)" fill="#fff"/>
        <path id="Trazado_117892" data-name="Trazado 117892" d="M462.784,4728.709l3.014-3.015a1.189,1.189,0,0,0,0-1.683L462.784,4721a1.19,1.19,0,0,0-1.683,1.684l.983.982h-5.853a1.19,1.19,0,0,0,0,2.38h5.853l-.983.984a1.19,1.19,0,1,0,1.683,1.683Z" transform="translate(-455.042 -4684.252)" fill="#fff"/>
        <path id="Trazado_117893" data-name="Trazado 117893" d="M472.654,4776.053h-4.263a1.19,1.19,0,0,0,0,2.38h1.39l-4.139,4.14a1.19,1.19,0,0,0,1.683,1.684l4.139-4.14v1.391a1.19,1.19,0,0,0,2.38,0v-4.264A1.19,1.19,0,0,0,472.654,4776.053Z" transform="translate(-459.089 -4706.125)" fill="#fff"/>
        <path id="Trazado_117894" data-name="Trazado 117894" d="M469.781,4671.18h-1.39a1.19,1.19,0,0,0,0,2.38h4.263a1.19,1.19,0,0,0,1.19-1.19v-4.264a1.19,1.19,0,1,0-2.38,0v1.391l-4.139-4.14a1.19,1.19,0,1,0-1.683,1.683Z" transform="translate(-459.089 -4662.288)" fill="#fff"/>
      </g>
    </g>
  </g>
</svg>
