<svg xmlns="http://www.w3.org/2000/svg" width="434.852" height="375.244" viewBox="0 0 434.852 375.244">
  <g id="Grupo_54931" data-name="Grupo 54931" transform="translate(-156.263 -7545.95)">
    <g id="Grupo_54911" data-name="Grupo 54911">
      <path id="Trazado_104869" data-name="Trazado 104869" d="M200.246,7921.059l2.347-8.348s1.435-2.348,0-10.044-3.521-21.521-3.521-21.521-4.438-20.479-4.111-35.479,0-19.695,0-19.695a37.683,37.683,0,0,1-10.5-26.479c.261-16.434,11.217-31.043,11.217-31.043a42.982,42.982,0,0,0,6.522-24.261c-.522-14.217-9.913-36.913-9.913-36.913s-7.565-18.522-4.957-48.913c0,0-.391-14.739,10.827-29.217l4.3-9s4.927-7.305.768-14.348l-13.812-20.348s-5.869-19.7,1.566-28.044,11.869-10.956,23.869-10.956,23.348,9.391,23.348,9.391,10.435,9.783,9.522,15.522-1.7,6-1.7,6a1.842,1.842,0,0,0,.391,2.609c1.435,1.434,6.131,7.695,6.131,7.695s2.022,2.348,0,3.326a39.332,39.332,0,0,0-4.37,2.609s-.456,1.174,0,1.826a9.642,9.642,0,0,0,2.413,1.631s1.7,1.5-1.239,3c0,0,2.87,2.413,1.109,3.978,0,0-1.826,1.3-1.3,3s4.434,5.413-1.566,8.478l-11.478.978-3.478,4.3s-3.218,5.3-.174,7.826,11.826,9.913,11.826,9.913l11.565,14.435,10.261,11.652,2.087,4.869v4.609l-.522,7.739-.521,11.565-2.087,12.7-.609,8.522.087,7.565.522,9.217-2.087,19.826-3.826,24.522-2.609,13.392-7.131,23.478.174,21.739s2.087,16.522-4.7,33.043l-6.957,21.913s-3.478,8.348-3.478,15.131l.174,16.609" fill="#fff"/>
      <path id="Trazado_104870" data-name="Trazado 104870" d="M200.727,7921.194l-.963-.271,2.4-8.473c.01-.017,1.3-2.374-.064-9.691-1.421-7.617-3.5-21.4-3.526-21.539-.039-.174-4.44-20.677-4.116-35.564.289-13.2.065-18.452.012-19.463a38.616,38.616,0,0,1-10.51-26.708c.261-16.407,11.207-31.187,11.317-31.335a42.862,42.862,0,0,0,6.422-23.942c-.512-13.964-9.781-36.515-9.875-36.74-.077-.189-7.582-18.986-4.993-49.148-.006-.093-.267-15,10.9-29.438l4.282-8.952c.084-.134,4.734-7.2.789-13.878l-13.862-20.459c-.242-.815-5.862-20.061,1.672-28.52,7.433-8.346,11.979-11.123,24.244-11.123,12.041,0,23.2,9.117,23.666,9.506.458.427,10.64,10.053,9.7,15.985-.406,2.553-1.044,5.613-1.839,6.283-.149.194-.577.922.393,1.894,1.445,1.443,5.985,7.492,6.178,7.749a3.743,3.743,0,0,1,.958,2.727,1.923,1.923,0,0,1-1.14,1.349,37.878,37.878,0,0,0-4.168,2.479,1.687,1.687,0,0,0-.01,1.219,8.7,8.7,0,0,0,2.227,1.47l.108.073a2.031,2.031,0,0,1,.642,1.654,2.68,2.68,0,0,1-1.383,1.821,4.346,4.346,0,0,1,1.35,2.648,2.067,2.067,0,0,1-.739,1.6c-.056.043-1.566,1.153-1.159,2.479a6.731,6.731,0,0,0,.536,1.076c.673,1.2,1.6,2.838,1.064,4.6-.4,1.316-1.514,2.428-3.415,3.4l-.185.053-11.266.96-3.345,4.138h0c.006,0-2.917,4.912-.243,7.127,3.044,2.522,11.829,9.915,11.829,9.915l11.634,14.505,10.33,11.768,2.127,5.066v4.609l-.522,7.772-.523,11.555-2.093,12.754-.6,8.476.088,7.524.52,9.195-2.089,19.907-3.829,24.546-2.611,13.41L249.92,7812.7l.174,21.663c.016.108,2.021,16.784-4.734,33.237l-6.942,21.875c-.05.123-3.455,8.377-3.455,14.979l.174,16.6-1,.009-.174-16.608c0-6.81,3.373-14.983,3.517-15.328l6.941-21.872c6.67-16.251,4.7-32.665,4.677-32.829l-.18-21.874.022-.074L256.071,7789l2.6-13.342,3.823-24.5,2.084-19.8-.523-9.135-.088-7.588.609-8.563,2.093-12.742.517-11.507.521-7.749V7669.6l-2.014-4.7L255.48,7653.3,243.9,7638.85h0c-.013,0-8.726-7.332-11.755-9.841-3.338-2.765-.076-8.239.065-8.471l3.651-4.525,11.592-.988a5.168,5.168,0,0,0,2.827-2.752c.408-1.35-.361-2.718-.979-3.817a7.1,7.1,0,0,1-.619-1.272c-.621-2.018,1.4-3.492,1.492-3.554a1.035,1.035,0,0,0,.361-.809,4.2,4.2,0,0,0-1.5-2.381l-.574-.484.669-.343c.884-.452,1.385-.933,1.447-1.393a.984.984,0,0,0-.277-.751,8.875,8.875,0,0,1-2.526-1.753,2.755,2.755,0,0,1-.056-2.295l.056-.142.125-.088a39.2,39.2,0,0,1,4.436-2.648.963.963,0,0,0,.6-.653,2.883,2.883,0,0,0-.759-1.9c-.067-.089-4.711-6.274-6.106-7.668a2.341,2.341,0,0,1-.411-3.294l.12-.11c.142-.187.752-1.212,1.456-5.636.861-5.415-9.267-14.983-9.37-15.079-.089-.072-11.33-9.256-23.005-9.256-11.973,0-16.17,2.562-23.5,10.789-6.94,7.792-1.855,26.184-1.48,27.5l13.769,20.281c4.287,7.259-.717,14.833-.769,14.909l-4.323,9.027c-10.981,14.173-10.726,28.752-10.722,28.9-2.568,29.959,4.845,48.554,4.92,48.739.094.224,9.431,22.939,9.95,37.083a43.908,43.908,0,0,1-6.612,24.566c-.118.158-10.872,14.688-11.127,30.764a37.483,37.483,0,0,0,10.34,26.1l.143.134.014.2c0,.048.326,4.891,0,19.742-.322,14.767,4.055,35.157,4.1,35.362.027.169,2.108,13.936,3.525,21.535,1.337,7.168.214,9.857-.024,10.323Z"/>
    </g>
    <g id="Grupo_54912" data-name="Grupo 54912">
      <rect id="Rectángulo_9376" data-name="Rectángulo 9376" width="1" height="1.5" transform="translate(223.121 7547.937)"/>
      <path id="Trazado_104871" data-name="Trazado 104871" d="M224.121,7916.55h-1v-3.01h1Zm0-6.019h-1v-3.009h1Zm0-6.018h-1V7901.5h1Zm0-6.018h-1v-3.01h1Zm0-6.019h-1v-3.008h1Zm0-6.018h-1v-3.009h1Zm0-6.018h-1v-3.009h1Zm0-6.018h-1v-3.01h1Zm0-6.019h-1v-3.009h1Zm0-6.018h-1v-3.009h1Zm0-6.018h-1v-3.01h1Zm0-6.018h-1v-3.009h1Zm0-6.019h-1v-3.009h1Zm0-6.018h-1V7835.3h1Zm0-6.018h-1v-3.009h1Zm0-6.019h-1v-3.009h1Zm0-6.017h-1v-3.01h1Zm0-6.019h-1v-3.009h1Zm0-6.018h-1v-3.009h1Zm0-6.018h-1v-3.01h1Zm0-6.019h-1v-3.008h1Zm0-6.018h-1v-3.009h1Zm0-6.019h-1v-3.008h1Zm0-6.017h-1v-3.01h1Zm0-6.019h-1V7769.1h1Zm0-6.018h-1v-3.009h1Zm0-6.018h-1v-3.01h1Zm0-6.018h-1v-3.009h1Zm0-6.019h-1v-3.009h1Zm0-6.018h-1v-3.009h1Zm0-6.018h-1v-3.009h1Zm0-6.019h-1v-3.009h1Zm0-6.017h-1v-3.01h1Zm0-6.019h-1v-3.009h1Zm0-6.018h-1v-3.009h1Zm0-6.018h-1v-3.01h1Zm0-6.019h-1v-3.008h1Zm0-6.018h-1v-3.009h1Zm0-6.018h-1v-3.009h1Zm0-6.018h-1v-3.01h1Zm0-6.019h-1v-3.009h1Zm0-6.018h-1v-3.009h1Zm0-6.018h-1v-3.01h1Zm0-6.018h-1v-3.009h1Zm0-6.019h-1v-3.009h1Zm0-6.018h-1v-3.009h1Zm0-6.018h-1V7636.7h1Zm0-6.019h-1v-3.009h1Zm0-6.017h-1v-3.01h1Zm0-6.019h-1v-3.009h1Zm0-6.018h-1v-3.009h1Zm0-6.018h-1v-3.01h1Zm0-6.019h-1v-3.008h1Zm0-6.018h-1v-3.009h1Zm0-6.019h-1v-3.008h1Zm0-6.017h-1v-3.01h1Zm0-6.019h-1v-3.009h1Zm0-6.018h-1V7570.5h1Zm0-6.018h-1v-3.01h1Zm0-6.018h-1v-3.009h1Zm0-6.019h-1v-3.009h1Z"/>
      <rect id="Rectángulo_9377" data-name="Rectángulo 9377" width="1" height="1.5" transform="translate(223.121 7919.559)"/>
    </g>
    <path id="Trazado_104872" data-name="Trazado 104872" d="M267.335,7690h-3v-1h3Zm-6,0h-3v-1h3Zm-6,0h-3v-1h3Zm-6,0h-3v-1h3Zm-6,0h-3v-1h3Zm-6,0h-3v-1h3Z"/>
    <path id="Trazado_104873" data-name="Trazado 104873" d="M261.865,7758.9h-3v-1h3Zm-6,0h-3v-1h3Zm-6,0h-3v-1h3Zm-6,0h-3v-1h3Zm-6,0h-3v-1h3Zm-6,0h-3v-1h3Zm-6,0h-3v-1h3Zm-6,0h-3v-1h3Zm-6,0h-3v-1h3Zm-6,0h-3v-1h3Zm-6,0h-.794v-1h.794Z"/>
    <path id="Trazado_104874" data-name="Trazado 104874" d="M241.463,7799.993h-3v-1h3Zm-6,0h-3v-1h3Zm-6,0h-3v-1h3Zm-6,0h-3v-1h3Zm-6,0h-3v-1h3Zm-6,0h-3v-1h3Zm-6,0h-3v-1h3Zm-6,0h-3v-1h3Zm-6,0h-3v-1h3Zm-6,0h-3v-1h3Z"/>
    <g id="Grupo_54913" data-name="Grupo 54913">
      <path id="Trazado_104875" data-name="Trazado 104875" d="M238.463,7658.885s-7.652,7.13-6.957,20.521,1.566,21.74,1.566,21.74l1.043,8.173s.708,4.283-2.352,11.409c0,0-1.648,5.113.613,8.244,0,0,8.174,15.347,12.217,28.652l16.174,44.348s2.131,8.3,6.218,13.434a53,53,0,0,1,6.434,10.522s.87,2.609-.521,4.348-2.261,7.478-2.261,7.478.261,5.044-4.348,6.7a32.06,32.06,0,0,1-7.652,2.261c-3.044.261-5.515.257-7.131-3.305,0,0-.347-1.13,1.653-2.869s2-7.478,2-7.478l-3.653-8.087s-4.434-7.131-4.608-14.348c0,0,1.043-3.478-.609-5.478s-16.174-21.653-16.174-21.653-22.956-27.565-23.826-40.087c0,0-.522-3.826-1.565-5.478s-.609-2.435,0-6-.609-16.348-2.087-24-2.435-26.609-2.435-26.609-1.826-3.478-3.391-6.608a35.349,35.349,0,0,1-2.348-8.522" fill="#fff"/>
      <path id="Trazado_104876" data-name="Trazado 104876" d="M256.8,7847.307a5.556,5.556,0,0,1-5.743-3.7c-.069-.206-.4-1.555,1.778-3.452,1.466-1.275,1.813-5.38,1.827-7l-3.606-7.987c-.153-.239-4.479-7.273-4.654-14.542v-.079l.022-.077c.01-.032.945-3.249-.515-5.016-1.641-1.988-15.6-20.871-16.19-21.674-.924-1.108-23.053-27.81-23.923-40.35,0,0-.516-3.705-1.489-5.244s-.789-2.465-.365-4.722c.088-.472.189-1.008.294-1.629.609-3.565-.658-16.442-2.084-23.822-1.41-7.3-2.356-25-2.438-26.569-.307-.586-1.94-3.711-3.345-6.52a35.313,35.313,0,0,1-2.4-8.672l.99-.145a35.02,35.02,0,0,0,2.3,8.37c1.545,3.09,3.369,6.565,3.387,6.6l.056.207c.01.189.972,19.01,2.427,26.54s2.729,20.422,2.089,24.179c-.108.627-.209,1.169-.3,1.645-.415,2.212-.527,2.807.228,4,1.089,1.723,1.617,5.516,1.638,5.677.852,12.251,23.487,39.559,23.715,39.834.163.219,14.551,19.687,16.176,21.654,1.676,2.029.88,5.293.724,5.86.2,6.975,4.489,13.951,4.533,14.021l3.726,8.35c0,.244-.024,5.989-2.172,7.856-1.669,1.452-1.5,2.355-1.5,2.364,1.425,3.128,3.539,3.2,6.6,2.935a31.718,31.718,0,0,0,7.5-2.222c4.223-1.516,4.056-6.021,4.048-6.212.041-.34.912-5.992,2.369-7.815,1.208-1.509.445-3.854.437-3.877a53.094,53.094,0,0,0-6.35-10.369c-4.107-5.155-6.223-13.279-6.311-13.622l-16.159-44.3c-3.991-13.13-12.107-28.436-12.189-28.588-2.346-3.241-.718-8.414-.648-8.633,2.971-6.923,2.342-11.133,2.335-11.175l-1.047-8.19c-.01-.1-.88-8.526-1.567-21.777-.7-13.468,6.795-20.616,7.114-20.914l.682.732c-.074.07-7.473,7.148-6.8,20.13.686,13.223,1.554,21.631,1.562,21.714l1.043,8.162c.028.163.694,4.492-2.389,11.669,0,.005-1.524,4.869.559,7.754.118.211,8.28,15.6,12.291,28.8l16.165,44.323c.036.129,2.167,8.309,6.138,13.294a54,54,0,0,1,6.5,10.634c.056.159.955,2.93-.589,4.86-1.061,1.327-1.9,5.6-2.15,7.2.009.588-.054,5.476-4.68,7.135a31.938,31.938,0,0,1-7.778,2.288C258.025,7847.265,257.4,7847.307,256.8,7847.307Z"/>
    </g>
    <g id="Grupo_54915" data-name="Grupo 54915">
      <rect id="Rectángulo_9378" data-name="Rectángulo 9378" width="171.713" height="2" transform="translate(251.793 7608.493)" fill="#eb792a"/>
      <g id="Grupo_54914" data-name="Grupo 54914">
        <path id="Trazado_104877" data-name="Trazado 104877" d="M257.411,7602.087l-3.146,7.406,3.146,7.406-17.557-7.406Z" fill="#eb792a"/>
      </g>
    </g>
    <g id="Grupo_54917" data-name="Grupo 54917">
      <rect id="Rectángulo_9379" data-name="Rectángulo 9379" width="171.713" height="2" transform="translate(251.793 7908.485)" fill="#eb792a"/>
      <g id="Grupo_54916" data-name="Grupo 54916">
        <path id="Trazado_104878" data-name="Trazado 104878" d="M257.411,7902.079l-3.146,7.406,3.146,7.406-17.557-7.406Z" fill="#eb792a"/>
      </g>
    </g>
    <g id="Grupo_54919" data-name="Grupo 54919">
      <rect id="Rectángulo_9380" data-name="Rectángulo 9380" width="253.279" height="2" transform="translate(251.793 7760.015)"/>
      <g id="Grupo_54918" data-name="Grupo 54918">
        <path id="Trazado_104879" data-name="Trazado 104879" d="M257.411,7753.609l-3.146,7.406,3.146,7.406-17.557-7.406Z"/>
      </g>
    </g>
    <g id="Grupo_54921" data-name="Grupo 54921">
      <rect id="Rectángulo_9381" data-name="Rectángulo 9381" width="316.311" height="2" transform="translate(273.805 7703.972)" fill="#4472c4"/>
      <g id="Grupo_54920" data-name="Grupo 54920">
        <path id="Trazado_104880" data-name="Trazado 104880" d="M279.422,7697.565l-3.146,7.406,3.146,7.406-17.557-7.406Z" fill="#4472c4"/>
      </g>
    </g>
    <g id="Grupo_54923" data-name="Grupo 54923">
      <path id="Trazado_104881" data-name="Trazado 104881" d="M191.343,7691.436c-10.612-2.947-21.962-6.564-22.075-6.6-9.33-3.635-13.423-7.066-12.971-10.826.93-7.746,23.461-11.14,27.968-11.742,56.357-11.016,239.879-11.144,241.725-11.144v3c-1.844,0-185.076.127-241.239,11.1-10.34,1.386-24.993,5.123-25.476,9.141-.09.752.436,3.525,10.994,7.643.024.005,11.321,3.6,21.877,6.536Z" fill="#8cc63f"/>
      <g id="Grupo_54922" data-name="Grupo 54922">
        <path id="Trazado_104882" data-name="Trazado 104882" d="M181.092,7698.772l7.087-9.771-2.112-11.884,23.179,16.724Z" fill="#8cc63f"/>
      </g>
    </g>
    <g id="Grupo_54924" data-name="Grupo 54924">
      <path id="Trazado_104883" data-name="Trazado 104883" d="M414.759,7861.231v-1.606h12.957v1.606Z"/>
      <path id="Trazado_104884" data-name="Trazado 104884" d="M415.069,7853.677l2.61,2.226v1.132l-2.61-1.606Zm12.647,3.249h-8.833v-1.607h8.833Z"/>
      <path id="Trazado_104885" data-name="Trazado 104885" d="M421.273,7852.657c-.93,0-1.66.018-2.39.073v-1.423l1.442-.091v-.037a3.272,3.272,0,0,1-1.642-2.92c0-1.223.729-3.12,3.758-3.12h5.275v1.6h-5.092c-1.423,0-2.628.529-2.628,2.044a2.316,2.316,0,0,0,1.643,2.153,2.355,2.355,0,0,0,.748.11h5.329v1.606Z"/>
      <path id="Trazado_104886" data-name="Trazado 104886" d="M423.592,7841.619a2.811,2.811,0,0,0,3.047-3.011,5.753,5.753,0,0,0-.456-2.445l1.15-.292a7.2,7.2,0,0,1,.565,2.956,4.12,4.12,0,0,1-4.453,4.344c-2.664,0-4.762-1.588-4.762-4.161,0-2.884,2.536-3.632,4.16-3.632a3.963,3.963,0,0,1,.749.054Zm-1.151-4.689a2.282,2.282,0,0,0-2.609,2.208,2.646,2.646,0,0,0,2.609,2.463Z"/>
      <path id="Trazado_104887" data-name="Trazado 104887" d="M425.6,7827.169a14.9,14.9,0,0,0,2.117-.127v1.441l-1.113.146v.054a3.268,3.268,0,0,1,1.314,2.7,2.517,2.517,0,0,1-2.537,2.7c-2.135,0-3.3-1.9-3.285-5.311h-.183a1.815,1.815,0,0,0-2.044,2.007,4.256,4.256,0,0,0,.657,2.318l-1.076.366a5.714,5.714,0,0,1-.766-2.92c0-2.72,1.842-3.377,3.613-3.377Zm-2.391,1.57c-.036,1.752.274,3.74,1.989,3.74a1.406,1.406,0,0,0,1.533-1.5,2.23,2.23,0,0,0-1.478-2.172,1.664,1.664,0,0,0-.511-.072Z"/>
      <path id="Trazado_104888" data-name="Trazado 104888" d="M414.759,7813.1h10.676c.785,0,1.678-.017,2.281-.072v1.442l-1.533.073v.036a3.24,3.24,0,0,1,1.734,2.993c0,2.135-1.808,3.8-4.49,3.8-2.956.019-4.744-1.825-4.744-3.96a2.937,2.937,0,0,1,1.332-2.665v-.036h-5.256Zm7.72,1.607a2.963,2.963,0,0,0-.694.073,2.364,2.364,0,0,0-1.844,2.317c0,1.662,1.46,2.647,3.395,2.647,1.807,0,3.285-.9,3.285-2.61a2.431,2.431,0,0,0-1.934-2.354,2.545,2.545,0,0,0-.676-.073Z"/>
      <path id="Trazado_104889" data-name="Trazado 104889" d="M423.592,7809.529a2.81,2.81,0,0,0,3.047-3.011,5.753,5.753,0,0,0-.456-2.445l1.15-.292a7.208,7.208,0,0,1,.565,2.956,4.12,4.12,0,0,1-4.453,4.344c-2.664,0-4.762-1.588-4.762-4.161,0-2.884,2.536-3.632,4.16-3.632a4,4,0,0,1,.749.055Zm-1.151-4.689a2.283,2.283,0,0,0-2.609,2.208,2.648,2.648,0,0,0,2.609,2.464Z"/>
      <path id="Trazado_104890" data-name="Trazado 104890" d="M421.273,7797.435c-.93,0-1.66.037-2.39.074V7796.1l1.424-.073v-.055a3.052,3.052,0,0,1-1.624-2.792,2.6,2.6,0,0,1,1.769-2.482v-.036a3.491,3.491,0,0,1-1.149-1,2.96,2.96,0,0,1-.62-1.935c0-1.186.766-2.919,3.832-2.919h5.2v1.569h-5c-1.716,0-2.72.639-2.72,1.916a2.111,2.111,0,0,0,1.442,1.917,2.886,2.886,0,0,0,.8.127h5.475v1.569H422.4c-1.4,0-2.409.621-2.409,1.844a2.4,2.4,0,0,0,2.391,2.117h5.329v1.569Z"/>
      <path id="Trazado_104891" data-name="Trazado 104891" d="M417.387,7781.453a.954.954,0,0,1-.986.967.994.994,0,1,1,.986-.986Zm10.329.767h-8.833v-1.607h8.833Z"/>
      <path id="Trazado_104892" data-name="Trazado 104892" d="M416.766,7776.016h2.117v-2.3h1.222v2.3h4.746c1.094,0,1.715-.31,1.715-1.2a3.024,3.024,0,0,0-.109-.93l1.223-.074a4.393,4.393,0,0,1,.218,1.423,2.292,2.292,0,0,1-.675,1.735,3.457,3.457,0,0,1-2.318.62h-4.8v1.369h-1.222v-1.369h-1.624Z"/>
      <path id="Trazado_104893" data-name="Trazado 104893" d="M425.6,7765.689a14.9,14.9,0,0,0,2.117-.127V7767l-1.113.145v.055a3.266,3.266,0,0,1,1.314,2.7,2.517,2.517,0,0,1-2.537,2.7c-2.135,0-3.3-1.9-3.285-5.31h-.183a1.815,1.815,0,0,0-2.044,2.008,4.257,4.257,0,0,0,.657,2.317l-1.076.365a5.712,5.712,0,0,1-.766-2.92c0-2.719,1.842-3.377,3.613-3.377Zm-2.391,1.57c-.036,1.752.274,3.741,1.989,3.741a1.406,1.406,0,0,0,1.533-1.5,2.23,2.23,0,0,0-1.478-2.172,1.637,1.637,0,0,0-.511-.073Z"/>
      <path id="Trazado_104894" data-name="Trazado 104894" d="M414.759,7755.49h10.676c.785,0,1.678-.017,2.281-.072v1.441l-1.533.073v.037a3.239,3.239,0,0,1,1.734,2.993c0,2.135-1.808,3.8-4.49,3.8-2.956.018-4.744-1.826-4.744-3.96a2.937,2.937,0,0,1,1.332-2.665v-.036h-5.256Zm7.72,1.607a2.989,2.989,0,0,0-.694.073,2.365,2.365,0,0,0-1.844,2.317c0,1.661,1.46,2.647,3.395,2.647,1.807,0,3.285-.9,3.285-2.611a2.431,2.431,0,0,0-1.934-2.353,2.566,2.566,0,0,0-.676-.073Z"/>
      <path id="Trazado_104895" data-name="Trazado 104895" d="M414.759,7741.334h10.676c.785,0,1.678-.018,2.281-.072v1.441l-1.533.073v.036a3.242,3.242,0,0,1,1.734,2.994c0,2.134-1.808,3.795-4.49,3.795-2.956.019-4.744-1.825-4.744-3.96a2.937,2.937,0,0,1,1.332-2.665v-.036h-5.256Zm7.72,1.606a2.964,2.964,0,0,0-.694.074,2.364,2.364,0,0,0-1.844,2.317c0,1.661,1.46,2.646,3.395,2.646,1.807,0,3.285-.894,3.285-2.61a2.431,2.431,0,0,0-1.934-2.353,2.543,2.543,0,0,0-.676-.074Z"/>
      <path id="Trazado_104896" data-name="Trazado 104896" d="M423.592,7737.761a2.811,2.811,0,0,0,3.047-3.011,5.749,5.749,0,0,0-.456-2.445l1.15-.292a7.2,7.2,0,0,1,.565,2.956,4.119,4.119,0,0,1-4.453,4.343c-2.664,0-4.762-1.588-4.762-4.161,0-2.883,2.536-3.632,4.16-3.632a3.948,3.948,0,0,1,.749.055Zm-1.151-4.69a2.284,2.284,0,0,0-2.609,2.208,2.647,2.647,0,0,0,2.609,2.464Z"/>
      <path id="Trazado_104897" data-name="Trazado 104897" d="M423.592,7724.753a2.81,2.81,0,0,0,3.047-3.011,5.754,5.754,0,0,0-.456-2.445l1.15-.292a7.2,7.2,0,0,1,.565,2.956,4.12,4.12,0,0,1-4.453,4.344c-2.664,0-4.762-1.588-4.762-4.162,0-2.882,2.536-3.631,4.16-3.631a3.971,3.971,0,0,1,.749.054Zm-1.151-4.69a2.283,2.283,0,0,0-2.609,2.208,2.647,2.647,0,0,0,2.609,2.464Z"/>
      <path id="Trazado_104898" data-name="Trazado 104898" d="M426.073,7716.745a4.534,4.534,0,0,0,.62-2.135c0-1.15-.565-1.7-1.313-1.7-.767,0-1.168.456-1.607,1.624-.584,1.6-1.459,2.354-2.5,2.354-1.422,0-2.59-1.167-2.59-3.047a4.1,4.1,0,0,1,.547-2.154l1.15.383a3.609,3.609,0,0,0-.512,1.807c0,.949.548,1.46,1.2,1.46.73,0,1.059-.511,1.515-1.66.565-1.515,1.332-2.319,2.646-2.319,1.57,0,2.664,1.223,2.664,3.285a5.025,5.025,0,0,1-.621,2.482Z"/>
      <path id="Trazado_104899" data-name="Trazado 104899" d="M421.767,7709.3c-1.132,0-2.044.017-2.884.073v-1.443l1.514-.09v-.037a3.409,3.409,0,0,1-1.714-3.121c0-2.153,1.806-3.759,4.489-3.759,3.175,0,4.745,1.953,4.745,4.015a3.077,3.077,0,0,1-1.388,2.719v.036h4.8v1.607Zm2.354-1.607a2.561,2.561,0,0,0,.656-.072,2.458,2.458,0,0,0,1.88-2.392c0-1.7-1.386-2.682-3.412-2.682-1.77,0-3.285.913-3.285,2.61a2.562,2.562,0,0,0,1.989,2.445,3.873,3.873,0,0,0,.639.091Z"/>
      <path id="Trazado_104900" data-name="Trazado 104900" d="M425.6,7692.7a14.827,14.827,0,0,0,2.117-.127v1.442l-1.113.145v.055a3.265,3.265,0,0,1,1.314,2.7,2.517,2.517,0,0,1-2.537,2.7c-2.135,0-3.3-1.9-3.285-5.31h-.183a1.814,1.814,0,0,0-2.044,2.006,4.259,4.259,0,0,0,.657,2.319l-1.076.365a5.713,5.713,0,0,1-.766-2.92c0-2.72,1.842-3.377,3.613-3.377Zm-2.391,1.57c-.036,1.752.274,3.741,1.989,3.741a1.407,1.407,0,0,0,1.533-1.5,2.231,2.231,0,0,0-1.478-2.172,1.65,1.65,0,0,0-.511-.073Z"/>
      <path id="Trazado_104901" data-name="Trazado 104901" d="M414.759,7690.129v-1.607h12.957v1.607Z"/>
      <path id="Trazado_104902" data-name="Trazado 104902" d="M414.759,7678.194h10.676c.785,0,1.678-.017,2.281-.072v1.441l-1.533.074v.036a3.24,3.24,0,0,1,1.734,2.993c0,2.135-1.808,3.8-4.49,3.8-2.956.018-4.744-1.825-4.744-3.96a2.938,2.938,0,0,1,1.332-2.665v-.036h-5.256Zm7.72,1.607a2.963,2.963,0,0,0-.694.073,2.364,2.364,0,0,0-1.844,2.317c0,1.661,1.46,2.647,3.395,2.647,1.807,0,3.285-.9,3.285-2.611a2.431,2.431,0,0,0-1.934-2.353,2.545,2.545,0,0,0-.676-.073Z"/>
      <path id="Trazado_104903" data-name="Trazado 104903" d="M425.6,7669.31a14.9,14.9,0,0,0,2.117-.127v1.442l-1.113.145v.055a3.265,3.265,0,0,1,1.314,2.7,2.517,2.517,0,0,1-2.537,2.7c-2.135,0-3.3-1.9-3.285-5.31h-.183a1.815,1.815,0,0,0-2.044,2.008,4.255,4.255,0,0,0,.657,2.317l-1.076.365a5.713,5.713,0,0,1-.766-2.92c0-2.719,1.842-3.377,3.613-3.377Zm-2.391,1.57c-.036,1.752.274,3.741,1.989,3.741a1.406,1.406,0,0,0,1.533-1.5,2.23,2.23,0,0,0-1.478-2.172,1.637,1.637,0,0,0-.511-.073Z"/>
    </g>
    <g id="Grupo_54925" data-name="Grupo 54925">
      <path id="Trazado_104904" data-name="Trazado 104904" d="M461.545,7867.841v-1.607H474.5v1.607Z"/>
      <path id="Trazado_104905" data-name="Trazado 104905" d="M461.855,7860.286l2.61,2.227v1.131l-2.61-1.606Zm12.647,3.249h-8.834v-1.606H474.5Z"/>
      <path id="Trazado_104906" data-name="Trazado 104906" d="M468.059,7859.266c-.93,0-1.661.018-2.391.074v-1.424l1.443-.091v-.037a3.269,3.269,0,0,1-1.642-2.92c0-1.223.728-3.12,3.758-3.12H474.5v1.6H469.41c-1.424,0-2.629.53-2.629,2.044a2.317,2.317,0,0,0,1.643,2.154,2.388,2.388,0,0,0,.748.109h5.33v1.606Z"/>
      <path id="Trazado_104907" data-name="Trazado 104907" d="M470.377,7848.228a2.81,2.81,0,0,0,3.047-3.01,5.741,5.741,0,0,0-.455-2.446l1.15-.292a7.221,7.221,0,0,1,.565,2.956,4.12,4.12,0,0,1-4.454,4.344c-2.664,0-4.761-1.588-4.761-4.161,0-2.884,2.535-3.632,4.16-3.632a3.936,3.936,0,0,1,.748.055Zm-1.15-4.689a2.283,2.283,0,0,0-2.61,2.208,2.647,2.647,0,0,0,2.61,2.464Z"/>
      <path id="Trazado_104908" data-name="Trazado 104908" d="M472.385,7833.778a14.851,14.851,0,0,0,2.117-.127v1.442l-1.113.145v.055a3.265,3.265,0,0,1,1.314,2.7,2.516,2.516,0,0,1-2.537,2.7c-2.135,0-3.3-1.9-3.285-5.31H468.7a1.814,1.814,0,0,0-2.043,2.006,4.259,4.259,0,0,0,.657,2.319l-1.077.365a5.713,5.713,0,0,1-.765-2.92c0-2.72,1.842-3.377,3.613-3.377Zm-2.391,1.571c-.037,1.751.274,3.74,1.988,3.74a1.408,1.408,0,0,0,1.534-1.5,2.231,2.231,0,0,0-1.479-2.172,1.643,1.643,0,0,0-.51-.072Z"/>
      <path id="Trazado_104909" data-name="Trazado 104909" d="M461.545,7819.712h10.676c.785,0,1.677-.018,2.281-.072v1.441l-1.533.073v.036a3.243,3.243,0,0,1,1.734,2.993c0,2.135-1.808,3.8-4.49,3.8-2.957.019-4.744-1.825-4.744-3.96a2.937,2.937,0,0,1,1.332-2.665v-.036h-5.256Zm7.719,1.606a3.022,3.022,0,0,0-.694.073,2.365,2.365,0,0,0-1.843,2.318c0,1.661,1.461,2.646,3.394,2.646,1.807,0,3.285-.894,3.285-2.61a2.432,2.432,0,0,0-1.933-2.354,2.585,2.585,0,0,0-.676-.073Z"/>
      <path id="Trazado_104910" data-name="Trazado 104910" d="M470.377,7816.139a2.811,2.811,0,0,0,3.047-3.011,5.741,5.741,0,0,0-.455-2.446l1.15-.292a7.223,7.223,0,0,1,.565,2.957,4.12,4.12,0,0,1-4.454,4.343c-2.664,0-4.761-1.588-4.761-4.161,0-2.884,2.535-3.632,4.16-3.632a3.936,3.936,0,0,1,.748.055Zm-1.15-4.69a2.284,2.284,0,0,0-2.61,2.208,2.647,2.647,0,0,0,2.61,2.464Z"/>
      <path id="Trazado_104911" data-name="Trazado 104911" d="M470.377,7803.132a2.81,2.81,0,0,0,3.047-3.011,5.741,5.741,0,0,0-.455-2.445l1.15-.292a7.217,7.217,0,0,1,.565,2.956,4.12,4.12,0,0,1-4.454,4.343c-2.664,0-4.761-1.587-4.761-4.161,0-2.882,2.535-3.632,4.16-3.632a3.985,3.985,0,0,1,.748.055Zm-1.15-4.69a2.284,2.284,0,0,0-2.61,2.208,2.647,2.647,0,0,0,2.61,2.464Z"/>
      <path id="Trazado_104912" data-name="Trazado 104912" d="M468.059,7794.9c-.93,0-1.661.019-2.391.073v-1.423l1.443-.092v-.036a3.269,3.269,0,0,1-1.642-2.92c0-1.223.728-3.12,3.758-3.12H474.5v1.6H469.41c-1.424,0-2.629.529-2.629,2.044a2.316,2.316,0,0,0,1.643,2.153,2.359,2.359,0,0,0,.748.11h5.33v1.606Z"/>
      <path id="Trazado_104913" data-name="Trazado 104913" d="M463.551,7782.918h2.117v-2.3h1.223v2.3h4.746c1.093,0,1.715-.311,1.715-1.2a3.027,3.027,0,0,0-.11-.932l1.223-.072a4.386,4.386,0,0,1,.219,1.423,2.292,2.292,0,0,1-.676,1.734,3.449,3.449,0,0,1-2.317.62h-4.8v1.369h-1.223v-1.369h-1.623Z"/>
      <path id="Trazado_104914" data-name="Trazado 104914" d="M472.385,7772.591a14.851,14.851,0,0,0,2.117-.127v1.441l-1.113.146v.054a3.268,3.268,0,0,1,1.314,2.7,2.516,2.516,0,0,1-2.537,2.7c-2.135,0-3.3-1.9-3.285-5.311H468.7a1.814,1.814,0,0,0-2.043,2.007,4.255,4.255,0,0,0,.657,2.318l-1.077.366a5.716,5.716,0,0,1-.765-2.92c0-2.72,1.842-3.377,3.613-3.377Zm-2.391,1.57c-.037,1.752.274,3.74,1.988,3.74a1.407,1.407,0,0,0,1.534-1.5,2.231,2.231,0,0,0-1.479-2.172,1.672,1.672,0,0,0-.51-.072Z"/>
      <path id="Trazado_104915" data-name="Trazado 104915" d="M461.545,7770.02v-1.606H474.5v1.606Z"/>
      <path id="Trazado_104916" data-name="Trazado 104916" d="M461.545,7765.716v-1.607H474.5v1.607Z"/>
      <path id="Trazado_104917" data-name="Trazado 104917" d="M470.377,7760.5a2.81,2.81,0,0,0,3.047-3.011,5.739,5.739,0,0,0-.455-2.445l1.15-.292a7.217,7.217,0,0,1,.565,2.956,4.121,4.121,0,0,1-4.454,4.344c-2.664,0-4.761-1.588-4.761-4.161,0-2.883,2.535-3.632,4.16-3.632a3.951,3.951,0,0,1,.748.054Zm-1.15-4.69a2.284,2.284,0,0,0-2.61,2.208,2.647,2.647,0,0,0,2.61,2.464Z"/>
      <path id="Trazado_104918" data-name="Trazado 104918" d="M461.545,7740.774h10.676c.785,0,1.677-.017,2.281-.072v1.441l-1.533.074v.036a3.243,3.243,0,0,1,1.734,2.993c0,2.135-1.808,3.8-4.49,3.8-2.957.018-4.744-1.825-4.744-3.96a2.937,2.937,0,0,1,1.332-2.665v-.036h-5.256Zm7.719,1.607a2.969,2.969,0,0,0-.694.073,2.363,2.363,0,0,0-1.843,2.317c0,1.661,1.461,2.647,3.394,2.647,1.807,0,3.285-.9,3.285-2.611a2.431,2.431,0,0,0-1.933-2.353,2.544,2.544,0,0,0-.676-.073Z"/>
      <path id="Trazado_104919" data-name="Trazado 104919" d="M470.377,7737.2a2.81,2.81,0,0,0,3.047-3.011,5.739,5.739,0,0,0-.455-2.445l1.15-.292a7.217,7.217,0,0,1,.565,2.956,4.121,4.121,0,0,1-4.454,4.344c-2.664,0-4.761-1.588-4.761-4.161,0-2.883,2.535-3.632,4.16-3.632a3.856,3.856,0,0,1,.748.055Zm-1.15-4.689a2.283,2.283,0,0,0-2.61,2.208,2.646,2.646,0,0,0,2.61,2.463Z"/>
      <path id="Trazado_104920" data-name="Trazado 104920" d="M470.377,7724.193a2.81,2.81,0,0,0,3.047-3.011,5.741,5.741,0,0,0-.455-2.445l1.15-.292a7.225,7.225,0,0,1,.565,2.956,4.121,4.121,0,0,1-4.454,4.344c-2.664,0-4.761-1.588-4.761-4.161,0-2.884,2.535-3.632,4.16-3.632a3.985,3.985,0,0,1,.748.055Zm-1.15-4.689a2.283,2.283,0,0,0-2.61,2.208,2.648,2.648,0,0,0,2.61,2.464Z"/>
      <path id="Trazado_104921" data-name="Trazado 104921" d="M472.859,7716.185a4.548,4.548,0,0,0,.62-2.134c0-1.151-.565-1.7-1.313-1.7-.768,0-1.168.456-1.607,1.624-.584,1.606-1.459,2.355-2.5,2.355-1.422,0-2.59-1.168-2.59-3.048a4.089,4.089,0,0,1,.547-2.153l1.15.383a3.605,3.605,0,0,0-.512,1.806c0,.949.547,1.46,1.205,1.46.729,0,1.059-.511,1.514-1.66.566-1.516,1.332-2.318,2.647-2.318,1.57,0,2.664,1.222,2.664,3.285a5.035,5.035,0,0,1-.621,2.482Z"/>
      <path id="Trazado_104922" data-name="Trazado 104922" d="M468.553,7708.742c-1.133,0-2.045.019-2.885.073v-1.442l1.516-.091v-.037a3.406,3.406,0,0,1-1.715-3.12c0-2.153,1.806-3.76,4.488-3.76,3.176,0,4.746,1.953,4.746,4.015a3.076,3.076,0,0,1-1.389,2.719v.037h4.8v1.606Zm2.353-1.606a2.568,2.568,0,0,0,.657-.073,2.457,2.457,0,0,0,1.88-2.39c0-1.7-1.386-2.684-3.412-2.684-1.771,0-3.285.913-3.285,2.61a2.563,2.563,0,0,0,1.988,2.446,3.9,3.9,0,0,0,.639.091Z"/>
      <path id="Trazado_104923" data-name="Trazado 104923" d="M472.385,7692.139a15.069,15.069,0,0,0,2.117-.127v1.441l-1.113.146v.054a3.268,3.268,0,0,1,1.314,2.7,2.518,2.518,0,0,1-2.537,2.7c-2.135,0-3.3-1.9-3.285-5.311H468.7a1.814,1.814,0,0,0-2.043,2.008,4.253,4.253,0,0,0,.657,2.317l-1.077.365a5.713,5.713,0,0,1-.765-2.92c0-2.719,1.842-3.376,3.613-3.376Zm-2.391,1.569c-.037,1.752.274,3.741,1.988,3.741a1.407,1.407,0,0,0,1.534-1.5,2.232,2.232,0,0,0-1.479-2.172,1.644,1.644,0,0,0-.51-.073Z"/>
      <path id="Trazado_104924" data-name="Trazado 104924" d="M461.545,7689.568v-1.606H474.5v1.606Z"/>
      <path id="Trazado_104925" data-name="Trazado 104925" d="M461.545,7677.635h10.676c.785,0,1.677-.018,2.281-.073V7679l-1.533.073v.036a3.243,3.243,0,0,1,1.734,2.993c0,2.135-1.808,3.8-4.49,3.8-2.957.019-4.744-1.825-4.744-3.96a2.938,2.938,0,0,1,1.332-2.665v-.036h-5.256Zm7.719,1.606a3.021,3.021,0,0,0-.694.073,2.366,2.366,0,0,0-1.843,2.318c0,1.661,1.461,2.646,3.394,2.646,1.807,0,3.285-.894,3.285-2.61a2.432,2.432,0,0,0-1.933-2.354,2.586,2.586,0,0,0-.676-.073Z"/>
      <path id="Trazado_104926" data-name="Trazado 104926" d="M472.385,7668.75a14.923,14.923,0,0,0,2.117-.127v1.441l-1.113.146v.055a3.264,3.264,0,0,1,1.314,2.7,2.517,2.517,0,0,1-2.537,2.7c-2.135,0-3.3-1.9-3.285-5.311H468.7a1.815,1.815,0,0,0-2.043,2.008,4.261,4.261,0,0,0,.657,2.318l-1.077.365a5.718,5.718,0,0,1-.765-2.92c0-2.72,1.842-3.377,3.613-3.377Zm-2.391,1.569c-.037,1.752.274,3.741,1.988,3.741a1.407,1.407,0,0,0,1.534-1.5,2.231,2.231,0,0,0-1.479-2.172,1.659,1.659,0,0,0-.51-.073Z"/>
    </g>
    <g id="Grupo_54926" data-name="Grupo 54926">
      <path id="Trazado_104927" data-name="Trazado 104927" d="M495.631,7867.841v-1.607h12.957v1.607Z"/>
      <path id="Trazado_104928" data-name="Trazado 104928" d="M495.941,7860.286l2.61,2.227v1.131l-2.61-1.606Zm12.647,3.249h-8.832v-1.606h8.832Z"/>
      <path id="Trazado_104929" data-name="Trazado 104929" d="M502.146,7859.266c-.931,0-1.66.018-2.39.074v-1.424l1.441-.091v-.037a3.273,3.273,0,0,1-1.642-2.92c0-1.223.73-3.12,3.759-3.12h5.274v1.6H503.5c-1.422,0-2.627.53-2.627,2.044a2.317,2.317,0,0,0,1.643,2.154,2.379,2.379,0,0,0,.748.109h5.328v1.606Z"/>
      <path id="Trazado_104930" data-name="Trazado 104930" d="M504.465,7848.228a2.811,2.811,0,0,0,3.047-3.01,5.736,5.736,0,0,0-.457-2.446l1.15-.292a7.184,7.184,0,0,1,.566,2.956,4.119,4.119,0,0,1-4.453,4.344c-2.664,0-4.763-1.588-4.763-4.161,0-2.884,2.537-3.632,4.16-3.632a3.96,3.96,0,0,1,.75.055Zm-1.151-4.689a2.283,2.283,0,0,0-2.609,2.208,2.647,2.647,0,0,0,2.609,2.464Z"/>
      <path id="Trazado_104931" data-name="Trazado 104931" d="M506.471,7833.778a14.813,14.813,0,0,0,2.117-.127v1.442l-1.113.145v.055a3.265,3.265,0,0,1,1.314,2.7,2.516,2.516,0,0,1-2.537,2.7c-2.135,0-3.3-1.9-3.285-5.31h-.182a1.815,1.815,0,0,0-2.045,2.006,4.268,4.268,0,0,0,.658,2.319l-1.076.365a5.714,5.714,0,0,1-.767-2.92c0-2.72,1.843-3.377,3.613-3.377Zm-2.391,1.571c-.035,1.751.275,3.74,1.99,3.74a1.408,1.408,0,0,0,1.534-1.5,2.231,2.231,0,0,0-1.479-2.172,1.655,1.655,0,0,0-.512-.072Z"/>
      <path id="Trazado_104932" data-name="Trazado 104932" d="M495.631,7827.341v-1.607h12.957v1.607Z"/>
      <path id="Trazado_104933" data-name="Trazado 104933" d="M506.471,7816.812a14.885,14.885,0,0,0,2.117-.127v1.442l-1.113.145v.055a3.265,3.265,0,0,1,1.314,2.7,2.517,2.517,0,0,1-2.537,2.7c-2.135,0-3.3-1.9-3.285-5.31h-.182a1.815,1.815,0,0,0-2.045,2.008,4.266,4.266,0,0,0,.658,2.317l-1.076.365a5.713,5.713,0,0,1-.767-2.92c0-2.719,1.843-3.377,3.613-3.377Zm-2.391,1.57c-.035,1.752.275,3.741,1.99,3.741a1.407,1.407,0,0,0,1.534-1.5,2.231,2.231,0,0,0-1.479-2.172,1.643,1.643,0,0,0-.512-.073Z"/>
      <path id="Trazado_104934" data-name="Trazado 104934" d="M497.639,7812.381h2.117v-2.3h1.223v2.3h4.744c1.1,0,1.716-.311,1.716-1.2a3.032,3.032,0,0,0-.109-.932l1.223-.072a4.388,4.388,0,0,1,.218,1.423,2.29,2.29,0,0,1-.675,1.734,3.457,3.457,0,0,1-2.319.62h-4.8v1.369h-1.223v-1.369h-1.625Z"/>
      <path id="Trazado_104935" data-name="Trazado 104935" d="M504.465,7807.474a2.812,2.812,0,0,0,3.047-3.011,5.736,5.736,0,0,0-.457-2.446l1.15-.292a7.186,7.186,0,0,1,.566,2.957,4.119,4.119,0,0,1-4.453,4.343c-2.664,0-4.763-1.588-4.763-4.161,0-2.883,2.537-3.632,4.16-3.632a3.96,3.96,0,0,1,.75.055Zm-1.151-4.69a2.283,2.283,0,0,0-2.609,2.208,2.647,2.647,0,0,0,2.609,2.464Z"/>
      <path id="Trazado_104936" data-name="Trazado 104936" d="M502.512,7799.246c-1.041,0-1.936.019-2.756.073v-1.4l1.734-.073v-.055a2.671,2.671,0,0,1-1.935-2.464,3.007,3.007,0,0,1,.037-.438h1.513a4.907,4.907,0,0,0-.035.548,2.251,2.251,0,0,0,2.043,2.153,4.907,4.907,0,0,0,.748.055h4.727v1.606Z"/>
      <path id="Trazado_104937" data-name="Trazado 104937" d="M506.471,7787.148a14.885,14.885,0,0,0,2.117-.127v1.442l-1.113.145v.055a3.266,3.266,0,0,1,1.314,2.7,2.517,2.517,0,0,1-2.537,2.7c-2.135,0-3.3-1.9-3.285-5.31h-.182a1.815,1.815,0,0,0-2.045,2.008,4.266,4.266,0,0,0,.658,2.317l-1.076.365a5.712,5.712,0,0,1-.767-2.92c0-2.719,1.843-3.377,3.613-3.377Zm-2.391,1.57c-.035,1.752.275,3.741,1.99,3.741a1.408,1.408,0,0,0,1.534-1.5,2.231,2.231,0,0,0-1.479-2.172,1.643,1.643,0,0,0-.512-.073Z"/>
      <path id="Trazado_104938" data-name="Trazado 104938" d="M495.631,7784.579v-1.606h12.957v1.606Z"/>
      <path id="Trazado_104939" data-name="Trazado 104939" d="M495.631,7768.777h10.676c.785,0,1.679-.017,2.281-.072v1.441l-1.533.074v.036a3.238,3.238,0,0,1,1.734,2.993c0,2.135-1.807,3.8-4.49,3.8-2.955.018-4.744-1.825-4.744-3.96a2.938,2.938,0,0,1,1.332-2.665v-.036h-5.256Zm7.721,1.607a2.958,2.958,0,0,0-.694.073,2.364,2.364,0,0,0-1.844,2.317c0,1.661,1.459,2.647,3.4,2.647,1.807,0,3.285-.9,3.285-2.611a2.43,2.43,0,0,0-1.935-2.353,2.544,2.544,0,0,0-.676-.073Z"/>
      <path id="Trazado_104940" data-name="Trazado 104940" d="M504.465,7765.2a2.811,2.811,0,0,0,3.047-3.011,5.735,5.735,0,0,0-.457-2.445l1.15-.292a7.18,7.18,0,0,1,.566,2.956,4.12,4.12,0,0,1-4.453,4.344c-2.664,0-4.763-1.588-4.763-4.161,0-2.884,2.537-3.632,4.16-3.632a3.974,3.974,0,0,1,.75.054Zm-1.151-4.689a2.282,2.282,0,0,0-2.609,2.208,2.647,2.647,0,0,0,2.609,2.463Z"/>
      <path id="Trazado_104941" data-name="Trazado 104941" d="M495.631,7756.976v-1.606h12.957v1.606Z"/>
      <path id="Trazado_104942" data-name="Trazado 104942" d="M508.26,7742.508a6.2,6.2,0,0,1,.511,2.536,4.2,4.2,0,0,1-4.507,4.4,4.5,4.5,0,0,1-4.709-4.745,5.072,5.072,0,0,1,.474-2.226l1.223.365a3.926,3.926,0,0,0-.42,1.861,3.066,3.066,0,0,0,3.34,3.121,3.028,3.028,0,0,0,3.3-3.066,4.6,4.6,0,0,0-.42-1.971Z"/>
      <path id="Trazado_104943" data-name="Trazado 104943" d="M506.162,7733.239c.93,0,1.733-.017,2.426-.072v1.423l-1.442.092v.036a3.3,3.3,0,0,1,1.643,2.92c0,1.386-.785,3.047-3.869,3.047h-5.164v-1.606h4.873c1.678,0,2.828-.529,2.828-1.971a2.31,2.31,0,0,0-1.478-2.117,2.205,2.205,0,0,0-.821-.145h-5.4v-1.607Z"/>
      <path id="Trazado_104944" data-name="Trazado 104944" d="M504.465,7729.666a2.811,2.811,0,0,0,3.047-3.011,5.735,5.735,0,0,0-.457-2.445l1.15-.292a7.182,7.182,0,0,1,.566,2.956,4.12,4.12,0,0,1-4.453,4.344c-2.664,0-4.763-1.588-4.763-4.161,0-2.884,2.537-3.632,4.16-3.632a3.974,3.974,0,0,1,.75.054Zm-1.151-4.69a2.283,2.283,0,0,0-2.609,2.208,2.647,2.647,0,0,0,2.609,2.464Z"/>
      <path id="Trazado_104945" data-name="Trazado 104945" d="M502.512,7721.439c-1.041,0-1.936.019-2.756.074v-1.406l1.734-.073v-.055a2.67,2.67,0,0,1-1.935-2.464,3.013,3.013,0,0,1,.037-.438h1.513a4.9,4.9,0,0,0-.035.548,2.25,2.25,0,0,0,2.043,2.153,4.907,4.907,0,0,0,.748.055h4.727v1.606Z"/>
      <path id="Trazado_104946" data-name="Trazado 104946" d="M502.639,7715.4c-1.131,0-2.043.019-2.883.074v-1.443l1.514-.091v-.037a3.407,3.407,0,0,1-1.715-3.12c0-2.153,1.806-3.76,4.49-3.76,3.174,0,4.744,1.953,4.744,4.015a3.08,3.08,0,0,1-1.387,2.72v.036h4.8v1.606Zm2.355-1.606a2.632,2.632,0,0,0,.656-.072,2.458,2.458,0,0,0,1.879-2.391c0-1.7-1.386-2.684-3.412-2.684-1.769,0-3.285.913-3.285,2.611a2.565,2.565,0,0,0,1.99,2.445,3.911,3.911,0,0,0,.639.091Z"/>
      <path id="Trazado_104947" data-name="Trazado 104947" d="M508.789,7701.425a4.21,4.21,0,0,1-4.545,4.234,4.323,4.323,0,0,1-4.689-4.38,4.177,4.177,0,0,1,4.525-4.252,4.329,4.329,0,0,1,4.709,4.38Zm-1.2-.073c0-1.533-1.441-2.682-3.449-2.682-1.5,0-3.375.748-3.375,2.645,0,1.88,1.752,2.7,3.429,2.7,1.936,0,3.4-1.094,3.4-2.646Z"/>
    </g>
    <g id="Grupo_54927" data-name="Grupo 54927">
      <path id="Trazado_104948" data-name="Trazado 104948" d="M528.811,7867.841v-1.607h12.957v1.607Z"/>
      <path id="Trazado_104949" data-name="Trazado 104949" d="M529.121,7860.286l2.609,2.227v1.131l-2.609-1.606Zm12.647,3.249h-8.834v-1.606h8.834Z"/>
      <path id="Trazado_104950" data-name="Trazado 104950" d="M535.324,7859.266c-.929,0-1.66.018-2.39.074v-1.424l1.443-.091v-.037a3.27,3.27,0,0,1-1.643-2.92c0-1.223.729-3.12,3.758-3.12h5.276v1.6h-5.092c-1.424,0-2.629.53-2.629,2.044a2.318,2.318,0,0,0,1.642,2.154,2.4,2.4,0,0,0,.749.109h5.33v1.606Z"/>
      <path id="Trazado_104951" data-name="Trazado 104951" d="M537.643,7848.228a2.809,2.809,0,0,0,3.046-3.01,5.741,5.741,0,0,0-.455-2.446l1.151-.292a7.225,7.225,0,0,1,.564,2.956,4.119,4.119,0,0,1-4.453,4.344c-2.664,0-4.762-1.588-4.762-4.161,0-2.884,2.536-3.632,4.161-3.632a3.936,3.936,0,0,1,.748.055Zm-1.151-4.689a2.283,2.283,0,0,0-2.609,2.208,2.647,2.647,0,0,0,2.609,2.464Z"/>
      <path id="Trazado_104952" data-name="Trazado 104952" d="M539.65,7833.778a14.856,14.856,0,0,0,2.118-.127v1.442l-1.114.145v.055a3.263,3.263,0,0,1,1.315,2.7,2.516,2.516,0,0,1-2.537,2.7c-2.135,0-3.3-1.9-3.286-5.31h-.183a1.813,1.813,0,0,0-2.043,2.006,4.258,4.258,0,0,0,.656,2.319l-1.076.365a5.714,5.714,0,0,1-.766-2.92c0-2.72,1.842-3.377,3.614-3.377Zm-2.39,1.571c-.037,1.751.273,3.74,1.988,3.74a1.407,1.407,0,0,0,1.533-1.5,2.23,2.23,0,0,0-1.478-2.172,1.643,1.643,0,0,0-.51-.072Z"/>
      <path id="Trazado_104953" data-name="Trazado 104953" d="M528.811,7819.712h10.675c.785,0,1.678-.018,2.282-.072v1.441l-1.534.073v.036a3.242,3.242,0,0,1,1.735,2.993c0,2.135-1.809,3.8-4.49,3.8-2.958.019-4.745-1.825-4.745-3.96a2.939,2.939,0,0,1,1.332-2.665v-.036h-5.255Zm7.718,1.606a3.019,3.019,0,0,0-.693.073,2.366,2.366,0,0,0-1.844,2.318c0,1.661,1.461,2.646,3.4,2.646,1.806,0,3.285-.894,3.285-2.61a2.433,2.433,0,0,0-1.934-2.354,2.577,2.577,0,0,0-.675-.073Z"/>
      <path id="Trazado_104954" data-name="Trazado 104954" d="M537.643,7816.139a2.81,2.81,0,0,0,3.046-3.011,5.741,5.741,0,0,0-.455-2.446l1.151-.292a7.227,7.227,0,0,1,.564,2.957,4.119,4.119,0,0,1-4.453,4.343c-2.664,0-4.762-1.588-4.762-4.161,0-2.884,2.536-3.632,4.161-3.632a3.936,3.936,0,0,1,.748.055Zm-1.151-4.69a2.283,2.283,0,0,0-2.609,2.208,2.647,2.647,0,0,0,2.609,2.464Z"/>
      <path id="Trazado_104955" data-name="Trazado 104955" d="M537.643,7803.132a2.809,2.809,0,0,0,3.046-3.011,5.742,5.742,0,0,0-.455-2.445l1.151-.292a7.221,7.221,0,0,1,.564,2.956,4.119,4.119,0,0,1-4.453,4.343c-2.664,0-4.762-1.587-4.762-4.161,0-2.882,2.536-3.632,4.161-3.632a3.985,3.985,0,0,1,.748.055Zm-1.151-4.69a2.283,2.283,0,0,0-2.609,2.208,2.647,2.647,0,0,0,2.609,2.464Z"/>
      <path id="Trazado_104956" data-name="Trazado 104956" d="M535.324,7794.9c-.929,0-1.66.019-2.39.073v-1.423l1.443-.092v-.036a3.27,3.27,0,0,1-1.643-2.92c0-1.223.729-3.12,3.758-3.12h5.276v1.6h-5.092c-1.424,0-2.629.529-2.629,2.044a2.316,2.316,0,0,0,1.642,2.153,2.37,2.37,0,0,0,.749.11h5.33v1.606Z"/>
      <path id="Trazado_104957" data-name="Trazado 104957" d="M530.816,7782.918h2.118v-2.3h1.222v2.3H538.9c1.094,0,1.715-.311,1.715-1.2a3.032,3.032,0,0,0-.109-.932l1.222-.072a4.358,4.358,0,0,1,.219,1.423,2.292,2.292,0,0,1-.676,1.734,3.446,3.446,0,0,1-2.316.62h-4.8v1.369h-1.222v-1.369h-1.623Z"/>
      <path id="Trazado_104958" data-name="Trazado 104958" d="M539.65,7772.591a14.856,14.856,0,0,0,2.118-.127v1.441l-1.114.146v.054a3.266,3.266,0,0,1,1.315,2.7,2.516,2.516,0,0,1-2.537,2.7c-2.135,0-3.3-1.9-3.286-5.311h-.183a1.814,1.814,0,0,0-2.043,2.007,4.255,4.255,0,0,0,.656,2.318l-1.076.366a5.717,5.717,0,0,1-.766-2.92c0-2.72,1.842-3.377,3.614-3.377Zm-2.39,1.57c-.037,1.752.273,3.74,1.988,3.74a1.406,1.406,0,0,0,1.533-1.5,2.23,2.23,0,0,0-1.478-2.172,1.672,1.672,0,0,0-.51-.072Z"/>
      <path id="Trazado_104959" data-name="Trazado 104959" d="M528.811,7770.02v-1.606h12.957v1.606Z"/>
      <path id="Trazado_104960" data-name="Trazado 104960" d="M528.811,7765.716v-1.607h12.957v1.607Z"/>
      <path id="Trazado_104961" data-name="Trazado 104961" d="M537.643,7760.5a2.809,2.809,0,0,0,3.046-3.011,5.739,5.739,0,0,0-.455-2.445l1.151-.292a7.221,7.221,0,0,1,.564,2.956,4.12,4.12,0,0,1-4.453,4.344c-2.664,0-4.762-1.588-4.762-4.161,0-2.883,2.536-3.632,4.161-3.632a3.951,3.951,0,0,1,.748.054Zm-1.151-4.69a2.283,2.283,0,0,0-2.609,2.208,2.647,2.647,0,0,0,2.609,2.464Z"/>
      <path id="Trazado_104962" data-name="Trazado 104962" d="M528.811,7740.774h10.675c.785,0,1.678-.017,2.282-.072v1.441l-1.534.074v.036a3.242,3.242,0,0,1,1.735,2.993c0,2.135-1.809,3.8-4.49,3.8-2.958.018-4.745-1.825-4.745-3.96a2.939,2.939,0,0,1,1.332-2.665v-.036h-5.255Zm7.718,1.607a2.966,2.966,0,0,0-.693.073,2.364,2.364,0,0,0-1.844,2.317c0,1.661,1.461,2.647,3.4,2.647,1.806,0,3.285-.9,3.285-2.611a2.432,2.432,0,0,0-1.934-2.353,2.537,2.537,0,0,0-.675-.073Z"/>
      <path id="Trazado_104963" data-name="Trazado 104963" d="M537.643,7737.2a2.809,2.809,0,0,0,3.046-3.011,5.739,5.739,0,0,0-.455-2.445l1.151-.292a7.221,7.221,0,0,1,.564,2.956,4.12,4.12,0,0,1-4.453,4.344c-2.664,0-4.762-1.588-4.762-4.161,0-2.883,2.536-3.632,4.161-3.632a3.856,3.856,0,0,1,.748.055Zm-1.151-4.689a2.283,2.283,0,0,0-2.609,2.208,2.646,2.646,0,0,0,2.609,2.463Z"/>
      <path id="Trazado_104964" data-name="Trazado 104964" d="M528.811,7728.974v-1.607h12.957v1.607Z"/>
      <path id="Trazado_104965" data-name="Trazado 104965" d="M539.65,7718.444a14.856,14.856,0,0,0,2.118-.127v1.442l-1.114.145v.055a3.263,3.263,0,0,1,1.315,2.7,2.516,2.516,0,0,1-2.537,2.7c-2.135,0-3.3-1.9-3.286-5.31h-.183a1.813,1.813,0,0,0-2.043,2.006,4.258,4.258,0,0,0,.656,2.319l-1.076.365a5.714,5.714,0,0,1-.766-2.92c0-2.72,1.842-3.377,3.614-3.377Zm-2.39,1.571c-.037,1.751.273,3.74,1.988,3.74a1.407,1.407,0,0,0,1.533-1.5,2.23,2.23,0,0,0-1.478-2.172,1.643,1.643,0,0,0-.51-.072Z"/>
      <path id="Trazado_104966" data-name="Trazado 104966" d="M535.324,7715.875c-.929,0-1.66.018-2.39.073v-1.424l1.443-.092v-.036a3.269,3.269,0,0,1-1.643-2.92c0-1.222.729-3.12,3.758-3.12h5.276v1.606h-5.092c-1.424,0-2.629.529-2.629,2.044a2.317,2.317,0,0,0,1.642,2.153,2.413,2.413,0,0,0,.749.109h5.33v1.607Z"/>
      <path id="Trazado_104967" data-name="Trazado 104967" d="M530.816,7703.889h2.118v-2.3h1.222v2.3H538.9c1.094,0,1.715-.311,1.715-1.205a3.035,3.035,0,0,0-.109-.931l1.222-.072a4.348,4.348,0,0,1,.219,1.422,2.292,2.292,0,0,1-.676,1.735,3.452,3.452,0,0,1-2.316.62h-4.8v1.369h-1.222v-1.369h-1.623Z"/>
      <path id="Trazado_104968" data-name="Trazado 104968" d="M537.643,7698.98a2.809,2.809,0,0,0,3.046-3.01,5.742,5.742,0,0,0-.455-2.446l1.151-.292a7.227,7.227,0,0,1,.564,2.956,4.12,4.12,0,0,1-4.453,4.344c-2.664,0-4.762-1.588-4.762-4.161,0-2.884,2.536-3.632,4.161-3.632a3.936,3.936,0,0,1,.748.055Zm-1.151-4.689a2.283,2.283,0,0,0-2.609,2.208,2.647,2.647,0,0,0,2.609,2.464Z"/>
      <path id="Trazado_104969" data-name="Trazado 104969" d="M535.689,7690.754c-1.039,0-1.933.018-2.755.073v-1.405l1.734-.073v-.055a2.671,2.671,0,0,1-1.934-2.464,3.344,3.344,0,0,1,.036-.439h1.515a4.465,4.465,0,0,0-.037.548,2.25,2.25,0,0,0,2.045,2.154,4.88,4.88,0,0,0,.748.054h4.727v1.607Z"/>
      <path id="Trazado_104970" data-name="Trazado 104970" d="M541.969,7681.375a4.209,4.209,0,0,1-4.545,4.234,4.322,4.322,0,0,1-4.69-4.38,4.176,4.176,0,0,1,4.526-4.252,4.329,4.329,0,0,1,4.709,4.38Zm-1.205-.072c0-1.534-1.442-2.683-3.45-2.683-1.5,0-3.376.748-3.376,2.645,0,1.88,1.751,2.7,3.431,2.7,1.934,0,3.395-1.095,3.395-2.647Z"/>
    </g>
    <g id="Grupo_54928" data-name="Grupo 54928">
      <path id="Trazado_104971" data-name="Trazado 104971" d="M572.371,7867.841v-1.607h12.957v1.607Z"/>
      <path id="Trazado_104972" data-name="Trazado 104972" d="M572.682,7860.286l2.609,2.227v1.131l-2.609-1.606Zm12.646,3.249H576.5v-1.606h8.832Z"/>
      <path id="Trazado_104973" data-name="Trazado 104973" d="M578.887,7859.266c-.932,0-1.66.018-2.391.074v-1.424l1.442-.091v-.037a3.272,3.272,0,0,1-1.643-2.92c0-1.223.73-3.12,3.76-3.12h5.273v1.6h-5.092c-1.422,0-2.627.53-2.627,2.044a2.317,2.317,0,0,0,1.643,2.154,2.379,2.379,0,0,0,.748.109h5.328v1.606Z"/>
      <path id="Trazado_104974" data-name="Trazado 104974" d="M581.205,7848.228a2.811,2.811,0,0,0,3.047-3.01,5.736,5.736,0,0,0-.457-2.446l1.15-.292a7.181,7.181,0,0,1,.567,2.956,4.12,4.12,0,0,1-4.453,4.344c-2.664,0-4.764-1.588-4.764-4.161,0-2.884,2.537-3.632,4.16-3.632a3.96,3.96,0,0,1,.75.055Zm-1.15-4.689a2.283,2.283,0,0,0-2.61,2.208,2.647,2.647,0,0,0,2.61,2.464Z"/>
      <path id="Trazado_104975" data-name="Trazado 104975" d="M583.211,7833.778a14.794,14.794,0,0,0,2.117-.127v1.442l-1.113.145v.055a3.265,3.265,0,0,1,1.314,2.7,2.516,2.516,0,0,1-2.537,2.7c-2.135,0-3.3-1.9-3.285-5.31h-.182a1.815,1.815,0,0,0-2.045,2.006,4.26,4.26,0,0,0,.659,2.319l-1.076.365a5.7,5.7,0,0,1-.768-2.92c0-2.72,1.844-3.377,3.613-3.377Zm-2.391,1.571c-.035,1.751.276,3.74,1.991,3.74a1.407,1.407,0,0,0,1.533-1.5,2.231,2.231,0,0,0-1.479-2.172,1.649,1.649,0,0,0-.511-.072Z"/>
      <path id="Trazado_104976" data-name="Trazado 104976" d="M572.371,7819.712h10.676c.785,0,1.68-.018,2.281-.072v1.441l-1.533.073v.036a3.239,3.239,0,0,1,1.734,2.993c0,2.135-1.806,3.8-4.49,3.8-2.955.019-4.744-1.825-4.744-3.96a2.939,2.939,0,0,1,1.332-2.665v-.036h-5.256Zm7.721,1.606a3.01,3.01,0,0,0-.694.073,2.366,2.366,0,0,0-1.843,2.318c0,1.661,1.459,2.646,3.394,2.646,1.807,0,3.285-.894,3.285-2.61a2.432,2.432,0,0,0-1.935-2.354,2.581,2.581,0,0,0-.676-.073Z"/>
      <path id="Trazado_104977" data-name="Trazado 104977" d="M581.205,7816.139a2.812,2.812,0,0,0,3.047-3.011,5.736,5.736,0,0,0-.457-2.446l1.15-.292a7.183,7.183,0,0,1,.567,2.957,4.12,4.12,0,0,1-4.453,4.343c-2.664,0-4.764-1.588-4.764-4.161,0-2.884,2.537-3.632,4.16-3.632a3.96,3.96,0,0,1,.75.055Zm-1.15-4.69a2.284,2.284,0,0,0-2.61,2.208,2.647,2.647,0,0,0,2.61,2.464Z"/>
      <path id="Trazado_104978" data-name="Trazado 104978" d="M578.887,7804.045c-.932,0-1.66.036-2.391.073v-1.405l1.424-.073v-.055a3.054,3.054,0,0,1-1.625-2.792,2.607,2.607,0,0,1,1.769-2.483v-.036a3.479,3.479,0,0,1-1.148-1,2.957,2.957,0,0,1-.621-1.934c0-1.187.768-2.92,3.832-2.92h5.2v1.569h-5c-1.715,0-2.719.639-2.719,1.916a2.111,2.111,0,0,0,1.442,1.917,2.862,2.862,0,0,0,.8.127h5.474v1.57h-5.31c-1.405,0-2.409.621-2.409,1.843a2.215,2.215,0,0,0,1.606,1.99,2.252,2.252,0,0,0,.785.127h5.328v1.57Z"/>
      <path id="Trazado_104979" data-name="Trazado 104979" d="M575,7788.062a.955.955,0,0,1-.986.967.994.994,0,1,1,.986-.985Zm10.328.767H576.5v-1.606h8.832Z"/>
      <path id="Trazado_104980" data-name="Trazado 104980" d="M574.379,7782.626H576.5v-2.3h1.223v2.3h4.744c1.1,0,1.717-.311,1.717-1.2a2.985,2.985,0,0,0-.11-.931l1.223-.073a4.388,4.388,0,0,1,.219,1.423,2.292,2.292,0,0,1-.676,1.734,3.449,3.449,0,0,1-2.318.62h-4.8v1.369H576.5v-1.369h-1.625Z"/>
      <path id="Trazado_104981" data-name="Trazado 104981" d="M583.211,7772.3a14.794,14.794,0,0,0,2.117-.127v1.441l-1.113.146v.054a3.268,3.268,0,0,1,1.314,2.7,2.516,2.516,0,0,1-2.537,2.7c-2.135,0-3.3-1.9-3.285-5.311h-.182a1.815,1.815,0,0,0-2.045,2.008,4.256,4.256,0,0,0,.659,2.317l-1.076.366a5.709,5.709,0,0,1-.768-2.92c0-2.72,1.844-3.377,3.613-3.377Zm-2.391,1.569c-.035,1.752.276,3.741,1.991,3.741a1.407,1.407,0,0,0,1.533-1.5,2.231,2.231,0,0,0-1.479-2.172,1.68,1.68,0,0,0-.511-.073Z"/>
      <path id="Trazado_104982" data-name="Trazado 104982" d="M572.371,7762.1h10.676c.785,0,1.68-.017,2.281-.072v1.442l-1.533.073v.036a3.238,3.238,0,0,1,1.734,2.993c0,2.135-1.806,3.8-4.49,3.8-2.955.019-4.744-1.825-4.744-3.96a2.939,2.939,0,0,1,1.332-2.665v-.036h-5.256Zm7.721,1.607a2.983,2.983,0,0,0-.694.073,2.366,2.366,0,0,0-1.843,2.318c0,1.661,1.459,2.646,3.394,2.646,1.807,0,3.285-.894,3.285-2.61a2.432,2.432,0,0,0-1.935-2.354,2.561,2.561,0,0,0-.676-.073Z"/>
      <path id="Trazado_104983" data-name="Trazado 104983" d="M572.371,7747.943h10.676c.785,0,1.68-.017,2.281-.072v1.441l-1.533.074v.036a3.239,3.239,0,0,1,1.734,2.993c0,2.135-1.806,3.8-4.49,3.8-2.955.018-4.744-1.825-4.744-3.96a2.94,2.94,0,0,1,1.332-2.665v-.036h-5.256Zm7.721,1.607a2.957,2.957,0,0,0-.694.073,2.364,2.364,0,0,0-1.843,2.317c0,1.661,1.459,2.647,3.394,2.647,1.807,0,3.285-.9,3.285-2.611a2.43,2.43,0,0,0-1.935-2.353,2.54,2.54,0,0,0-.676-.073Z"/>
      <path id="Trazado_104984" data-name="Trazado 104984" d="M581.205,7744.37a2.811,2.811,0,0,0,3.047-3.011,5.734,5.734,0,0,0-.457-2.445l1.15-.292a7.177,7.177,0,0,1,.567,2.956,4.121,4.121,0,0,1-4.453,4.344c-2.664,0-4.764-1.588-4.764-4.161,0-2.883,2.537-3.632,4.16-3.632a3.975,3.975,0,0,1,.75.054Zm-1.15-4.689a2.283,2.283,0,0,0-2.61,2.208,2.647,2.647,0,0,0,2.61,2.463Z"/>
      <path id="Trazado_104985" data-name="Trazado 104985" d="M572.371,7724.646h10.676c.785,0,1.68-.017,2.281-.072v1.441l-1.533.074v.036a3.239,3.239,0,0,1,1.734,2.993c0,2.135-1.806,3.8-4.49,3.8-2.955.018-4.744-1.825-4.744-3.96a2.939,2.939,0,0,1,1.332-2.665v-.036h-5.256Zm7.721,1.607a2.957,2.957,0,0,0-.694.073,2.364,2.364,0,0,0-1.843,2.317c0,1.662,1.459,2.647,3.394,2.647,1.807,0,3.285-.9,3.285-2.61a2.431,2.431,0,0,0-1.935-2.354,2.54,2.54,0,0,0-.676-.073Z"/>
      <path id="Trazado_104986" data-name="Trazado 104986" d="M581.205,7721.073a2.811,2.811,0,0,0,3.047-3.011,5.734,5.734,0,0,0-.457-2.445l1.15-.292a7.177,7.177,0,0,1,.567,2.956,4.121,4.121,0,0,1-4.453,4.344c-2.664,0-4.764-1.588-4.764-4.161,0-2.883,2.537-3.632,4.16-3.632a3.88,3.88,0,0,1,.75.055Zm-1.15-4.689a2.284,2.284,0,0,0-2.61,2.208,2.648,2.648,0,0,0,2.61,2.464Z"/>
      <path id="Trazado_104987" data-name="Trazado 104987" d="M572.371,7712.847v-1.607h12.957v1.607Z"/>
      <path id="Trazado_104988" data-name="Trazado 104988" d="M583.211,7702.317a14.866,14.866,0,0,0,2.117-.127v1.442l-1.113.145v.055a3.266,3.266,0,0,1,1.314,2.7,2.516,2.516,0,0,1-2.537,2.7c-2.135,0-3.3-1.9-3.285-5.31h-.182a1.815,1.815,0,0,0-2.045,2.007,4.259,4.259,0,0,0,.659,2.318l-1.076.365a5.7,5.7,0,0,1-.768-2.92c0-2.72,1.844-3.377,3.613-3.377Zm-2.391,1.571c-.035,1.752.276,3.74,1.991,3.74a1.407,1.407,0,0,0,1.533-1.5,2.231,2.231,0,0,0-1.479-2.172,1.634,1.634,0,0,0-.511-.072Z"/>
      <path id="Trazado_104989" data-name="Trazado 104989" d="M578.887,7699.748c-.932,0-1.66.018-2.391.073V7698.4l1.442-.091v-.037a3.271,3.271,0,0,1-1.643-2.92c0-1.222.73-3.12,3.76-3.12h5.273v1.606h-5.092c-1.422,0-2.627.529-2.627,2.044a2.317,2.317,0,0,0,1.643,2.153,2.394,2.394,0,0,0,.748.109h5.328v1.607Z"/>
      <path id="Trazado_104990" data-name="Trazado 104990" d="M574.379,7687.762H576.5v-2.3h1.223v2.3h4.744c1.1,0,1.717-.311,1.717-1.205a3,3,0,0,0-.11-.931l1.223-.072a4.376,4.376,0,0,1,.219,1.422,2.292,2.292,0,0,1-.676,1.735,3.454,3.454,0,0,1-2.318.62h-4.8v1.369H576.5v-1.369h-1.625Z"/>
      <path id="Trazado_104991" data-name="Trazado 104991" d="M581.205,7682.853a2.811,2.811,0,0,0,3.047-3.01,5.736,5.736,0,0,0-.457-2.446l1.15-.292a7.181,7.181,0,0,1,.567,2.956,4.12,4.12,0,0,1-4.453,4.344c-2.664,0-4.764-1.588-4.764-4.161,0-2.884,2.537-3.632,4.16-3.632a3.96,3.96,0,0,1,.75.055Zm-1.15-4.689a2.283,2.283,0,0,0-2.61,2.208,2.647,2.647,0,0,0,2.61,2.464Z"/>
    </g>
    <rect id="Rectángulo_9382" data-name="Rectángulo 9382" width="152.696" height="1" transform="translate(437.419 7912.646)" fill="aqua"/>
    <rect id="Rectángulo_9383" data-name="Rectángulo 9383" width="152.696" height="1" transform="translate(437.419 7873.603)" fill="aqua"/>
    <rect id="Rectángulo_9384" data-name="Rectángulo 9384" width="152.696" height="1" transform="translate(437.419 7834.559)" fill="aqua"/>
    <rect id="Rectángulo_9385" data-name="Rectángulo 9385" width="152.696" height="1" transform="translate(437.419 7794.559)" fill="aqua"/>
    <rect id="Rectángulo_9386" data-name="Rectángulo 9386" width="152.696" height="1" transform="translate(437.419 7611.337)" fill="aqua"/>
    <rect id="Rectángulo_9387" data-name="Rectángulo 9387" width="2" height="303.652" transform="translate(436.419 7609.493)" fill="red"/>
    <rect id="Rectángulo_9388" data-name="Rectángulo 9388" width="2" height="303.652" transform="translate(480.071 7609.493)" fill="red"/>
    <rect id="Rectángulo_9389" data-name="Rectángulo 9389" width="2" height="303.652" transform="translate(513.984 7609.493)" fill="red"/>
    <rect id="Rectángulo_9390" data-name="Rectángulo 9390" width="2" height="303.652" transform="translate(544.869 7609.493)" fill="red"/>
    <rect id="Rectángulo_9391" data-name="Rectángulo 9391" width="2" height="303.652" transform="translate(589.115 7609.493)" fill="red"/>
    <g id="Grupo_54929" data-name="Grupo 54929">
      <path id="Trazado_104992" data-name="Trazado 104992" d="M437.752,7896.151h1.606v12.957h-1.606Z"/>
      <path id="Trazado_104993" data-name="Trazado 104993" d="M445.307,7896.462l-2.227,2.609h-1.132l1.607-2.609Zm-3.249,12.646v-8.833h1.606v8.833Z"/>
      <path id="Trazado_104994" data-name="Trazado 104994" d="M446.326,7902.666c0-.931-.017-1.66-.073-2.391h1.424l.091,1.443h.037a3.269,3.269,0,0,1,2.92-1.643c1.222,0,3.12.73,3.12,3.759v5.274h-1.606v-5.092c0-1.422-.529-2.627-2.044-2.627a2.317,2.317,0,0,0-2.153,1.642,2.392,2.392,0,0,0-.109.748v5.329h-1.607Z"/>
      <path id="Trazado_104995" data-name="Trazado 104995" d="M457.364,7904.984a2.81,2.81,0,0,0,3.011,3.047,5.741,5.741,0,0,0,2.445-.456l.292,1.15a7.2,7.2,0,0,1-2.956.566,4.12,4.12,0,0,1-4.343-4.453c0-2.664,1.587-4.763,4.161-4.763,2.883,0,3.631,2.536,3.631,4.16a3.969,3.969,0,0,1-.054.749Zm4.69-1.15a2.284,2.284,0,0,0-2.208-2.61,2.648,2.648,0,0,0-2.464,2.61Z"/>
      <path id="Trazado_104996" data-name="Trazado 104996" d="M471.814,7906.991a15.006,15.006,0,0,0,.127,2.117H470.5l-.145-1.113H470.3a3.268,3.268,0,0,1-2.7,1.314,2.517,2.517,0,0,1-2.7-2.537c0-2.134,1.9-3.3,5.311-3.285v-.182a1.814,1.814,0,0,0-2.007-2.044,4.256,4.256,0,0,0-2.318.657l-.365-1.076a5.71,5.71,0,0,1,2.92-.767c2.719,0,3.376,1.843,3.376,3.613Zm-1.57-2.391c-1.752-.036-3.74.275-3.74,1.99a1.407,1.407,0,0,0,1.5,1.533,2.231,2.231,0,0,0,2.172-1.479,1.636,1.636,0,0,0,.072-.51Z"/>
      <path id="Trazado_104997" data-name="Trazado 104997" d="M485.881,7896.151v10.676c0,.785.017,1.679.072,2.281h-1.441l-.074-1.533H484.4a3.24,3.24,0,0,1-2.993,1.734c-2.135,0-3.8-1.807-3.8-4.49-.018-2.956,1.825-4.744,3.96-4.744a2.938,2.938,0,0,1,2.665,1.332h.036v-5.256Zm-1.607,7.72a2.953,2.953,0,0,0-.073-.693,2.364,2.364,0,0,0-2.317-1.844c-1.661,0-2.647,1.46-2.647,3.394,0,1.807.895,3.286,2.611,3.286a2.432,2.432,0,0,0,2.353-1.935,2.548,2.548,0,0,0,.073-.676Z"/>
      <path id="Trazado_104998" data-name="Trazado 104998" d="M489.454,7904.984a2.81,2.81,0,0,0,3.011,3.047,5.741,5.741,0,0,0,2.445-.456l.292,1.15a7.2,7.2,0,0,1-2.956.566,4.121,4.121,0,0,1-4.344-4.453c0-2.664,1.588-4.763,4.161-4.763,2.884,0,3.632,2.536,3.632,4.16a3.969,3.969,0,0,1-.054.749Zm4.69-1.15a2.284,2.284,0,0,0-2.208-2.61,2.648,2.648,0,0,0-2.464,2.61Z"/>
      <path id="Trazado_104999" data-name="Trazado 104999" d="M502.461,7904.984a2.809,2.809,0,0,0,3.011,3.047,5.741,5.741,0,0,0,2.445-.456l.292,1.15a7.2,7.2,0,0,1-2.956.566,4.121,4.121,0,0,1-4.344-4.453c0-2.664,1.588-4.763,4.161-4.763,2.883,0,3.632,2.536,3.632,4.16a3.874,3.874,0,0,1-.055.749Zm4.689-1.15a2.283,2.283,0,0,0-2.208-2.61,2.647,2.647,0,0,0-2.463,2.61Z"/>
      <path id="Trazado_105000" data-name="Trazado 105000" d="M510.688,7902.666c0-.931-.018-1.66-.073-2.391h1.424l.092,1.443h.036a3.27,3.27,0,0,1,2.92-1.643c1.223,0,3.12.73,3.12,3.759v5.274h-1.6v-5.092c0-1.422-.53-2.627-2.044-2.627a2.318,2.318,0,0,0-2.154,1.642,2.392,2.392,0,0,0-.109.748v5.329h-1.607Z"/>
      <path id="Trazado_105001" data-name="Trazado 105001" d="M522.675,7898.158v2.117h2.3v1.223h-2.3v4.745c0,1.095.31,1.716,1.2,1.716a3.016,3.016,0,0,0,.932-.11l.072,1.223a4.352,4.352,0,0,1-1.423.219,2.289,2.289,0,0,1-1.734-.676,3.449,3.449,0,0,1-.621-2.317v-4.8h-1.369v-1.223H521.1v-1.624Z"/>
      <path id="Trazado_105002" data-name="Trazado 105002" d="M526.778,7903.031c0-1.04-.018-1.934-.073-2.756h1.4l.074,1.735h.054a2.672,2.672,0,0,1,2.464-1.935,3.336,3.336,0,0,1,.439.036v1.515a4.438,4.438,0,0,0-.548-.036,2.25,2.25,0,0,0-2.154,2.044,4.9,4.9,0,0,0-.054.748v4.726h-1.607Z"/>
      <path id="Trazado_105003" data-name="Trazado 105003" d="M533.475,7904.984a2.809,2.809,0,0,0,3.01,3.047,5.743,5.743,0,0,0,2.446-.456l.292,1.15a7.2,7.2,0,0,1-2.956.566,4.12,4.12,0,0,1-4.344-4.453c0-2.664,1.588-4.763,4.161-4.763,2.883,0,3.632,2.536,3.632,4.16a3.954,3.954,0,0,1-.055.749Zm4.689-1.15a2.283,2.283,0,0,0-2.208-2.61,2.648,2.648,0,0,0-2.464,2.61Z"/>
      <path id="Trazado_105004" data-name="Trazado 105004" d="M541.7,7903.159c0-1.132-.018-2.044-.073-2.884h1.442l.091,1.515h.037a3.407,3.407,0,0,1,3.12-1.715c2.154,0,3.76,1.807,3.76,4.489,0,3.175-1.953,4.745-4.015,4.745a3.076,3.076,0,0,1-2.719-1.387h-.036v4.8H541.7Zm1.607,2.355a2.572,2.572,0,0,0,.072.656,2.458,2.458,0,0,0,2.39,1.88c1.7,0,2.684-1.387,2.684-3.412,0-1.771-.913-3.286-2.61-3.286a2.564,2.564,0,0,0-2.446,1.99,3.875,3.875,0,0,0-.09.638Z"/>
      <path id="Trazado_105005" data-name="Trazado 105005" d="M552.849,7898.779a.954.954,0,0,1-.967-.985.995.995,0,1,1,.985.985Zm-.767,10.329v-8.833h1.606v8.833Z"/>
      <path id="Trazado_105006" data-name="Trazado 105006" d="M557.264,7904.984a2.809,2.809,0,0,0,3.01,3.047,5.742,5.742,0,0,0,2.446-.456l.292,1.15a7.2,7.2,0,0,1-2.956.566,4.121,4.121,0,0,1-4.344-4.453c0-2.664,1.588-4.763,4.161-4.763,2.883,0,3.632,2.536,3.632,4.16a3.954,3.954,0,0,1-.055.749Zm4.689-1.15a2.283,2.283,0,0,0-2.208-2.61,2.649,2.649,0,0,0-2.464,2.61Z"/>
      <path id="Trazado_105007" data-name="Trazado 105007" d="M565.491,7903.031c0-1.04-.018-1.934-.073-2.756h1.4l.073,1.735h.055a2.672,2.672,0,0,1,2.464-1.935,3.338,3.338,0,0,1,.439.036v1.515a4.467,4.467,0,0,0-.548-.036,2.25,2.25,0,0,0-2.154,2.044,4.911,4.911,0,0,0-.054.748v4.726h-1.607Z"/>
      <path id="Trazado_105008" data-name="Trazado 105008" d="M571.529,7902.666c0-.931-.017-1.66-.073-2.391h1.424l.091,1.443h.037a3.269,3.269,0,0,1,2.92-1.643c1.222,0,3.12.73,3.12,3.759v5.274h-1.606v-5.092c0-1.422-.529-2.627-2.044-2.627a2.317,2.317,0,0,0-2.153,1.642,2.392,2.392,0,0,0-.109.748v5.329h-1.607Z"/>
      <path id="Trazado_105009" data-name="Trazado 105009" d="M587.878,7906.991a14.857,14.857,0,0,0,.127,2.117h-1.442l-.145-1.113h-.055a3.265,3.265,0,0,1-2.7,1.314,2.516,2.516,0,0,1-2.7-2.537c0-2.134,1.9-3.3,5.31-3.285v-.182a1.814,1.814,0,0,0-2.007-2.044,4.258,4.258,0,0,0-2.318.657l-.365-1.076a5.718,5.718,0,0,1,2.92-.767c2.72,0,3.377,1.843,3.377,3.613Zm-1.569-2.391c-1.752-.036-3.742.275-3.742,1.99a1.408,1.408,0,0,0,1.5,1.533,2.23,2.23,0,0,0,2.172-1.479,1.638,1.638,0,0,0,.074-.51Z"/>
    </g>
    <g id="Grupo_54930" data-name="Grupo 54930">
      <path id="Trazado_105010" data-name="Trazado 105010" d="M437.752,7621.369h1.606v12.957h-1.606Z"/>
      <path id="Trazado_105011" data-name="Trazado 105011" d="M445.307,7621.68l-2.227,2.609h-1.132l1.607-2.609Zm-3.249,12.646v-8.833h1.606v8.833Z"/>
      <path id="Trazado_105012" data-name="Trazado 105012" d="M446.326,7627.884c0-.931-.017-1.66-.073-2.391h1.424l.091,1.442h.037a3.27,3.27,0,0,1,2.92-1.642c1.222,0,3.12.729,3.12,3.759v5.274h-1.606v-5.092c0-1.423-.529-2.628-2.044-2.628a2.316,2.316,0,0,0-2.153,1.643,2.392,2.392,0,0,0-.109.748v5.329h-1.607Z"/>
      <path id="Trazado_105013" data-name="Trazado 105013" d="M457.364,7630.2a2.811,2.811,0,0,0,3.011,3.047,5.74,5.74,0,0,0,2.445-.456l.292,1.15a7.188,7.188,0,0,1-2.956.566,4.12,4.12,0,0,1-4.343-4.453c0-2.665,1.587-4.763,4.161-4.763,2.883,0,3.631,2.536,3.631,4.16a3.976,3.976,0,0,1-.054.749Zm4.69-1.15a2.284,2.284,0,0,0-2.208-2.61,2.647,2.647,0,0,0-2.464,2.61Z"/>
      <path id="Trazado_105014" data-name="Trazado 105014" d="M471.814,7632.209a15.018,15.018,0,0,0,.127,2.117H470.5l-.145-1.113H470.3a3.268,3.268,0,0,1-2.7,1.314,2.517,2.517,0,0,1-2.7-2.537c0-2.135,1.9-3.3,5.311-3.285v-.183a1.815,1.815,0,0,0-2.007-2.044,4.253,4.253,0,0,0-2.318.658l-.365-1.077a5.71,5.71,0,0,1,2.92-.766c2.719,0,3.376,1.843,3.376,3.613Zm-1.57-2.391c-1.752-.036-3.74.275-3.74,1.989a1.407,1.407,0,0,0,1.5,1.534,2.231,2.231,0,0,0,2.172-1.479,1.637,1.637,0,0,0,.072-.511Z"/>
      <path id="Trazado_105015" data-name="Trazado 105015" d="M485.881,7621.369v10.676c0,.785.017,1.679.072,2.281h-1.441l-.074-1.533H484.4a3.24,3.24,0,0,1-2.993,1.734c-2.135,0-3.8-1.807-3.8-4.49-.018-2.956,1.825-4.744,3.96-4.744a2.939,2.939,0,0,1,2.665,1.332h.036v-5.256Zm-1.607,7.72a2.97,2.97,0,0,0-.073-.694,2.364,2.364,0,0,0-2.317-1.843c-1.661,0-2.647,1.46-2.647,3.394,0,1.807.895,3.285,2.611,3.285a2.431,2.431,0,0,0,2.353-1.934,2.544,2.544,0,0,0,.073-.676Z"/>
      <path id="Trazado_105016" data-name="Trazado 105016" d="M489.454,7630.2a2.81,2.81,0,0,0,3.011,3.047,5.74,5.74,0,0,0,2.445-.456l.292,1.15a7.192,7.192,0,0,1-2.956.566,4.12,4.12,0,0,1-4.344-4.453c0-2.665,1.588-4.763,4.161-4.763,2.884,0,3.632,2.536,3.632,4.16a3.976,3.976,0,0,1-.054.749Zm4.69-1.15a2.284,2.284,0,0,0-2.208-2.61,2.647,2.647,0,0,0-2.464,2.61Z"/>
      <path id="Trazado_105017" data-name="Trazado 105017" d="M507.844,7634a6.213,6.213,0,0,1-2.536.511,4.2,4.2,0,0,1-4.4-4.508,4.5,4.5,0,0,1,4.745-4.708,5.059,5.059,0,0,1,2.227.474l-.365,1.223a3.928,3.928,0,0,0-1.862-.42,3.067,3.067,0,0,0-3.121,3.34,3.029,3.029,0,0,0,3.067,3.3,4.587,4.587,0,0,0,1.97-.42Z"/>
      <path id="Trazado_105018" data-name="Trazado 105018" d="M517.113,7631.9c0,.931.018,1.734.073,2.427h-1.423l-.092-1.441h-.036a3.3,3.3,0,0,1-2.92,1.642c-1.387,0-3.048-.785-3.048-3.869v-5.165h1.606v4.873c0,1.679.53,2.828,1.971,2.828a2.311,2.311,0,0,0,2.117-1.477,2.214,2.214,0,0,0,.146-.822v-5.4h1.606Z"/>
      <path id="Trazado_105019" data-name="Trazado 105019" d="M520.687,7630.2a2.81,2.81,0,0,0,3.01,3.047,5.741,5.741,0,0,0,2.446-.456l.292,1.15a7.2,7.2,0,0,1-2.956.566,4.12,4.12,0,0,1-4.344-4.453c0-2.665,1.588-4.763,4.161-4.763,2.884,0,3.632,2.536,3.632,4.16a3.961,3.961,0,0,1-.055.749Zm4.689-1.15a2.283,2.283,0,0,0-2.208-2.61,2.647,2.647,0,0,0-2.464,2.61Z"/>
      <path id="Trazado_105020" data-name="Trazado 105020" d="M528.913,7621.369h1.607v12.957h-1.607Z"/>
      <path id="Trazado_105021" data-name="Trazado 105021" d="M533.219,7621.369h1.606v12.957h-1.606Z"/>
      <path id="Trazado_105022" data-name="Trazado 105022" d="M541.119,7634.527a4.209,4.209,0,0,1-4.234-4.545,4.322,4.322,0,0,1,4.38-4.689,4.177,4.177,0,0,1,4.252,4.525,4.329,4.329,0,0,1-4.38,4.709Zm.072-1.205c1.534,0,2.683-1.441,2.683-3.449,0-1.5-.748-3.376-2.645-3.376-1.88,0-2.7,1.752-2.7,3.431,0,1.934,1.1,3.394,2.647,3.394Z"/>
    </g>
  </g>
</svg>
