<svg xmlns="http://www.w3.org/2000/svg" width="290.379" height="465.75" viewBox="0 0 290.379 465.75">
  <g id="Grupo_55330" data-name="Grupo 55330" transform="translate(-1076.27 -9180.857)">
    <g id="Grupo_55321" data-name="Grupo 55321" transform="translate(1076.27 9180.857)">
      <g id="Grupo_55320" data-name="Grupo 55320">
        <rect id="Rectángulo_9550" data-name="Rectángulo 9550" width="290.379" height="465.75" rx="15.73" fill="#fff"/>
      </g>
    </g>
    <g id="Grupo_55329" data-name="Grupo 55329" transform="translate(1137.091 9204.659)">
      <g id="Grupo_55325" data-name="Grupo 55325" transform="translate(86.268)">
        <g id="Grupo_55322" data-name="Grupo 55322" transform="translate(1.219)">
          <path id="Trazado_106080" data-name="Trazado 106080" d="M1213.366,9212.641c0-6.8-4.122-12.316-9.207-12.316s-9.207,5.514-9.207,12.316c0,5.32,2.526,9.836,6.057,11.561v11.779h6.956v-12.133C1211.149,9221.908,1213.366,9217.625,1213.366,9212.641Z" transform="translate(-1194.325 -9199.696)" fill="#fff"/>
          <path id="Trazado_106081" data-name="Trazado 106081" d="M1208.72,9236.733h-8.212V9224.71c-3.638-1.99-6.056-6.727-6.056-11.942,0-7.137,4.411-12.943,9.835-12.943s9.835,5.807,9.835,12.943c0,4.878-2.109,9.363-5.4,11.552Zm-6.957-1.255h5.7v-11.856l.3-.184c3.1-1.887,5.1-6.075,5.1-10.671,0-6.444-3.85-11.688-8.58-11.688s-8.58,5.244-8.58,11.688c0,4.913,2.293,9.332,5.7,11l.351.172Z" transform="translate(-1194.452 -9199.824)" fill="#999"/>
        </g>
        <g id="Grupo_55323" data-name="Grupo 55323" transform="translate(0 14.868)">
          <rect id="Rectángulo_9551" data-name="Rectángulo 9551" width="21.592" height="3.601" rx="1.435" transform="translate(0.627 0.627)" fill="#fff"/>
          <path id="Trazado_106082" data-name="Trazado 106082" d="M1213.9,9216.527h-17.992a2.428,2.428,0,1,1,0-4.855H1213.9a2.428,2.428,0,0,1,0,4.855Zm-17.992-3.6a1.172,1.172,0,1,0,0,2.344H1213.9a1.172,1.172,0,1,0,0-2.344Z" transform="translate(-1193.481 -9211.672)" fill="#999"/>
        </g>
        <g id="Grupo_55324" data-name="Grupo 55324" transform="translate(0 7.993)">
          <rect id="Rectángulo_9552" data-name="Rectángulo 9552" width="21.592" height="3.601" rx="1.435" transform="translate(0.627 0.627)" fill="#fff"/>
          <path id="Trazado_106083" data-name="Trazado 106083" d="M1213.9,9211.047h-17.992a2.427,2.427,0,1,1,0-4.854H1213.9a2.427,2.427,0,1,1,0,4.854Zm-17.992-3.6a1.172,1.172,0,1,0,0,2.344H1213.9a1.172,1.172,0,1,0,0-2.344Z" transform="translate(-1193.481 -9206.193)" fill="#999"/>
        </g>
      </g>
      <g id="Grupo_55326" data-name="Grupo 55326" transform="translate(0 30.305)">
        <path id="Trazado_106084" data-name="Trazado 106084" d="M1287.4,9304.96c-3.056-8.076-7.965-8.84-7.965-8.84l-8.84-3.493-33.609-15.275c-.764-2.948-.109-10.478-.109-10.478,1.091-7.421,6.547-20.405,6.547-20.405,1.746-4.693.546-7.638.546-7.638-12-16.261-30.01-14.3-33.283-14.3s-5.456,4.039-5.456,4.039l-13.2,29.681-49.983,41.247a135.463,135.463,0,0,0-13.683,14.379c-5.347,6.875-2.184,19.478-2.184,19.478L1140.8,9382.3l24.457,74.449-.069,5.741s-6.537,12.656-10.093,20.912c-4.234,9.827-6.548,17.624-9.6,23.679-9.167,18.169-7.9,43.312-7.9,43.312v55c67.648,12.769,135.836,0,135.836,0s.464-67.765,0-76.275c-.379-6.938-2.6-30.5-4.85-38.182-1.157-3.937-5.3-10.763-6-15.277-.6-3.846-3.368-7.324-2.4-10.366,4.583-14.4,9.259-23.326,12.222-38.521,4.04-20.718,16.521-36.19,18.77-57.835C1294.412,9337.715,1288.514,9307.9,1287.4,9304.96Z" transform="translate(-1124.606 -9223.851)" fill="#fff"/>
        <path id="Trazado_106085" data-name="Trazado 106085" d="M1202.814,9611.777a355.314,355.314,0,0,1-65.2-5.648l-.511-.1v-55.52c-.013-.221-1.172-25.484,7.962-43.594a121.377,121.377,0,0,0,4.769-11.518c1.359-3.6,2.9-7.674,4.819-12.127,3.329-7.729,9.335-19.441,10.043-20.818l.067-5.49-24.424-74.35-14.628-48.955c-.139-.555-3.184-13.01,2.289-20.043a136.927,136.927,0,0,1,13.761-14.461l49.888-41.172,13.144-29.545c.118-.221,2.425-4.412,6.03-4.412.241,0,.563-.01.959-.023,14.3-.49,25.334,4.424,32.828,14.576l.075.135c.053.129,1.272,3.229-.538,8.1-.063.152-5.446,13.021-6.513,20.277,0,.035-.594,6.949.027,9.939l33.329,15.15,8.754,3.457c.686.137,5.4,1.355,8.378,9.223h0c1.22,3.227,7.006,33.467,3.807,64.262-1.239,11.922-5.617,22.127-9.852,32-3.493,8.141-7.105,16.561-8.924,25.889-1.954,10.016-4.676,17.4-7.557,25.211-1.53,4.148-3.11,8.436-4.683,13.381-.52,1.635.232,3.553,1.031,5.586a21.541,21.541,0,0,1,1.391,4.494c.4,2.576,2.03,6.076,3.465,9.164a49.321,49.321,0,0,1,2.519,6.033c2.354,8.014,4.536,32.111,4.875,38.326.46,8.432.006,75.635,0,76.313l0,.52-.508.094A432.374,432.374,0,0,1,1202.814,9611.777Zm-64.459-6.785c63.535,11.865,128.209,1.115,134.585-.006.042-6.33.433-67.715,0-75.715-.373-6.82-2.61-30.492-4.826-38.041a48.607,48.607,0,0,0-2.453-5.857c-1.542-3.318-3.136-6.75-3.567-9.5a20.459,20.459,0,0,0-1.32-4.229c-.881-2.246-1.713-4.365-1.058-6.424,1.581-4.973,3.168-9.275,4.7-13.436,2.864-7.768,5.568-15.1,7.5-25.016,1.846-9.461,5.484-17.943,9-26.146,4.2-9.783,8.54-19.9,9.757-31.631,3.177-30.58-2.527-60.5-3.732-63.689h0c-2.87-7.582-7.434-8.434-7.479-8.441l-.131-.035-8.84-3.492-33.91-15.412-.077-.289c-.782-3.018-.153-10.377-.125-10.687,1.094-7.451,6.369-20.062,6.593-20.6a11.047,11.047,0,0,0,.565-7.1c-10.9-14.7-26.574-14.164-31.72-13.994-.415.016-.752.025-1,.025-2.856,0-4.884,3.674-4.9,3.709l-13.242,29.773-.114.094-49.983,41.248a135.755,135.755,0,0,0-13.59,14.279c-5.095,6.549-2.1,18.816-2.069,18.939l14.616,48.914,24.484,74.531-.072,6-.069.133c-.065.127-6.567,12.73-10.074,20.871-1.907,4.426-3.442,8.488-4.8,12.074a122.836,122.836,0,0,1-4.823,11.639c-8.983,17.807-7.842,42.746-7.829,43Z" transform="translate(-1124.737 -9223.973)" fill="#999"/>
      </g>
      <path id="Trazado_106086" data-name="Trazado 106086" d="M1144.142,9599.414l-1.255-.021,1.329-79.473c.019-.2,1.61-14.521,7.477-27.343,5.6-12.241,15.074-33.634,15.876-35.444v-5.89l-29-100.525c-.062-.181-7.2-21.288-3.059-37.648a56.6,56.6,0,0,1,17.222-28.972c8.589-8.154,27.974-23.8,28.169-23.96l9.569-8.919.855.919-9.6,8.949c-.228.184-19.574,15.8-28.126,23.919a55.464,55.464,0,0,0-16.87,28.373c-4.051,15.992,2.969,36.753,3.039,36.962l29.062,100.726-.054,6.452c-.1.227-10.108,22.849-15.935,35.581-5.781,12.631-7.352,26.758-7.367,26.9Z" transform="translate(-1122.321 -9186.724)" fill="#999"/>
      <path id="Trazado_106087" data-name="Trazado 106087" d="M1158.313,9609.389l-1.255-.017,1.064-73.233a85.952,85.952,0,0,1,2.265-18.373,134.069,134.069,0,0,1,6.753-21.265c6.443-15.3,8.455-25.793,8.474-25.9,0-.067,1.1-12.725-1.153-32.714-2.265-20.067-6.342-58.545-6.382-58.931l-4.746-34.19c-.039-1.372-.749-32.141,6.108-47.16,6.8-14.89,20.977-44.561,21.12-44.859.134-.221,10-15.937,13.217-28.414l1.216.313c-3.261,12.668-13.235,28.549-13.336,28.707-.107.234-14.281,29.894-21.075,44.775-6.736,14.753-6.009,46.221-6,46.535l4.742,34.142c.044.405,4.12,38.88,6.386,58.942,2.271,20.125,1.157,32.9,1.147,33.025-.029.164-2.061,10.779-8.56,26.214a132.655,132.655,0,0,0-6.69,21.063,84.826,84.826,0,0,0-2.23,18.1Z" transform="translate(-1116.498 -9193.576)" fill="#999"/>
      <path id="Trazado_106088" data-name="Trazado 106088" d="M1244.324,9341.242c-.1,0-.2,0-.3-.01-6.537-.377-10.958-12.811-10.064-28.307.88-15.254,6.536-26.971,12.948-26.971.1,0,.2,0,.3.01,6.537.377,10.957,12.811,10.063,28.3v0C1256.39,9329.525,1250.734,9341.242,1244.324,9341.242Zm2.585-54.031c-5.559,0-10.885,11.68-11.7,25.787-.824,14.3,3.244,26.656,8.883,26.982.075,0,.152.006.227.006,5.558,0,10.884-11.68,11.7-25.787.826-14.3-3.244-26.656-8.883-26.982C1247.061,9287.213,1246.984,9287.211,1246.909,9287.211Z" transform="translate(-1096.925 -9177.868)" fill="#999"/>
      <ellipse id="Elipse_4302" data-name="Elipse 4302" cx="1.761" cy="4.311" rx="1.761" ry="4.311" transform="translate(148.296 130.554)" fill="#999"/>
      <path id="Trazado_106089" data-name="Trazado 106089" d="M1210.859,9426.721h-.543l.01-1.256.533,0c1.944,0,3.861-.053,5.7-.158l.07,1.254C1214.767,9426.668,1212.827,9426.721,1210.859,9426.721Zm-6.847-.2c-2.048-.119-4.164-.295-6.287-.52l.132-1.248c2.1.223,4.2.4,6.228.516Zm18.906-.529-.159-1.246c2.109-.27,4.172-.621,6.133-1.043l.265,1.229C1227.162,9425.355,1225.063,9425.713,1222.919,9425.988Zm-31.445-.793c-2.059-.309-4.149-.666-6.214-1.064l.236-1.23c2.049.393,4.122.748,6.164,1.055Zm43.806-1.9-.385-1.193a53.368,53.368,0,0,0,5.78-2.236l.522,1.139A53.711,53.711,0,0,1,1235.28,9423.295Zm-56.188-.48c-3.795-.893-6.1-1.6-6.12-1.611l.37-1.2c.024.008,2.29.705,6.037,1.59Z" transform="translate(-1112.442 -9143.735)" fill="#999"/>
      <path id="Trazado_106090" data-name="Trazado 106090" d="M1176.82,9424.664l-19.762-8.735v-7.206l20.09,7.865Zm-18.507-9.551,17.329,7.659.217-5.341-17.546-6.871Z" transform="translate(-1116.498 -9146.575)" fill="#999"/>
      <path id="Trazado_106091" data-name="Trazado 106091" d="M1160.13,9416.471l-1.931-2.276,1.811-1.956-1.722-2.209.622-.484,2.135,2.736-1.792,1.937,1.479,1.744Z" transform="translate(-1116.207 -9146.365)" fill="#999"/>
      <path id="Trazado_106092" data-name="Trazado 106092" d="M1162.837,9417.775l-1.931-2.275,1.811-1.957-1.723-2.209.622-.484,2.135,2.736-1.792,1.936,1.479,1.744Z" transform="translate(-1115.517 -9146.032)" fill="#999"/>
      <path id="Trazado_106093" data-name="Trazado 106093" d="M1166.2,9419.229l-1.931-2.274,1.811-1.958-1.723-2.208.622-.484,2.135,2.735-1.792,1.937,1.479,1.744Z" transform="translate(-1114.661 -9145.662)" fill="#999"/>
      <path id="Trazado_106094" data-name="Trazado 106094" d="M1168.8,9420.273l-1.931-2.275,1.811-1.957-1.723-2.209.622-.484,2.135,2.736-1.792,1.936,1.479,1.744Z" transform="translate(-1113.996 -9145.396)" fill="#999"/>
      <path id="Trazado_106095" data-name="Trazado 106095" d="M1171.927,9421.721l-1.931-2.4,1.811-2.063-1.722-2.332.622-.512,2.135,2.889-1.792,2.043,1.479,1.841Z" transform="translate(-1113.2 -9145.125)" fill="#999"/>
      <path id="Trazado_106096" data-name="Trazado 106096" d="M1167.25,9351.035l-4.622-.371-1.281,1.354s-.533.592-.879-.023l-.143-3.262s.013-1.441,1.065-.752l1.5,1.492,4.326.553.954.541Z" transform="translate(-1115.665 -9162.105)" fill="#999"/>
      <path id="Trazado_106097" data-name="Trazado 106097" d="M1171.033,9385.208l-4.623-.37-1.281,1.354s-.533.593-.877-.021l-.144-3.264s.014-1.439,1.065-.754l1.5,1.494,4.324.552.955.543Z" transform="translate(-1114.701 -9153.394)" fill="#999"/>
      <path id="Trazado_106098" data-name="Trazado 106098" d="M1173.417,9421.875l-4.575.746-.92,1.623s-.377.7-.859.189l-.921-3.135s-.333-1.4.854-.986l1.813,1.09,4.332-.5,1.057.3Z" transform="translate(-1114.193 -9143.64)" fill="#999"/>
      <path id="Trazado_106099" data-name="Trazado 106099" d="M1191.814,9373.024l4.577.747.919,1.622s.376.7.858.187l.921-3.131s.333-1.4-.853-.988l-1.815,1.092-4.332-.5-1.057.3Z" transform="translate(-1107.838 -9156.093)" fill="#999"/>
      <path id="Trazado_106100" data-name="Trazado 106100" d="M1193.314,9398.98l4.577.748.919,1.621s.376.7.858.188l.921-3.133s.333-1.4-.853-.986l-1.814,1.09-4.332-.5-1.057.3Z" transform="translate(-1107.455 -9149.477)" fill="#999"/>
      <path id="Trazado_106101" data-name="Trazado 106101" d="M1192.326,9421.316l4.576.747.919,1.622s.376.7.858.188l.921-3.134s.333-1.4-.853-.986l-1.815,1.091-4.331-.5-1.058.3Z" transform="translate(-1107.707 -9143.783)" fill="#999"/>
      <path id="Trazado_106102" data-name="Trazado 106102" d="M1224.578,9420.443l-4.528-1-1.454,1.168s-.609.514-.866-.144l.3-3.251s.208-1.426,1.158-.6l1.282,1.684,4.209,1.134.872.669Z" transform="translate(-1101.032 -9144.629)" fill="#999"/>
      <path id="Trazado_106103" data-name="Trazado 106103" d="M1231.993,9395.748l-4.528-1-1.454,1.167s-.609.513-.867-.143l.3-3.253s.208-1.424,1.157-.6l1.282,1.684,4.21,1.136.872.669Z" transform="translate(-1099.142 -9150.923)" fill="#999"/>
      <path id="Trazado_106104" data-name="Trazado 106104" d="M1239.261,9369.182l-4.528-1-1.454,1.168s-.609.514-.867-.145l.3-3.25s.208-1.424,1.157-.6l1.283,1.684,4.21,1.135.872.67Z" transform="translate(-1097.29 -9157.695)" fill="#999"/>
      <path id="Trazado_106105" data-name="Trazado 106105" d="M1245.767,9345.766l-4.48,1.2-.753,1.705s-.305.736-.836.271l-1.227-3.025s-.471-1.361.752-1.066l1.914.9,4.259-.928,1.082.191Z" transform="translate(-1095.768 -9162.867)" fill="#999"/>
      <path id="Trazado_106106" data-name="Trazado 106106" d="M1164.746,9299.467l-4.324-1.676-1.614.934s-.68.416-.834-.273l.793-3.168s.423-1.375,1.236-.418l1.011,1.861,3.988,1.76.761.795Z" transform="translate(-1116.265 -9175.684)" fill="#999"/>
      <path id="Trazado_106107" data-name="Trazado 106107" d="M1205.837,9285.792l4.2,1.961.444,1.812s.172.777.776.414l1.737-2.767s.7-1.258-.553-1.181l-2.043.558-4.032-1.658h-1.1Z" transform="translate(-1104.209 -9178.13)" fill="#999"/>
      <path id="Trazado_106108" data-name="Trazado 106108" d="M1214.705,9274.9l4.2,1.962.444,1.812s.171.776.774.412l1.737-2.764s.7-1.259-.553-1.183l-2.042.558-4.033-1.658h-1.1Z" transform="translate(-1101.948 -9180.906)" fill="#999"/>
      <path id="Trazado_106109" data-name="Trazado 106109" d="M1183.428,9450.04l-1.237-.21s.415-2.437.97-6.2l1.242.185C1183.845,9447.6,1183.428,9450.04,1183.428,9450.04Zm1.842-12.455-1.245-.162c.257-1.966.516-4.063.757-6.223l1.247.14C1185.786,9433.506,1185.528,9435.611,1185.271,9437.585Zm1.385-12.512-1.25-.107q.086-.993.161-1.977c.1-1.306.213-2.749.34-4.283l1.25.1c-.125,1.532-.24,2.974-.338,4.276C1186.768,9423.744,1186.714,9424.409,1186.656,9425.073Zm1.023-12.528-1.25-.105.54-6.263,1.25.108Zm1.093-12.517-1.25-.11.559-6.259,1.251.11Zm1.129-12.522-1.25-.111.626-6.27,1.247.136Zm1.3-12.481-1.247-.136.68-6.238,1.247.135Zm1.359-12.477-1.247-.137.68-6.237,1.247.136Z" transform="translate(-1110.091 -9159.97)" fill="#999"/>
      <path id="Trazado_106110" data-name="Trazado 106110" d="M1225.753,9247.746c-4.947-8.84-11.873-11.611-11.943-11.639-16.6-6.914-26.55-3.467-26.647-3.43l-.431-1.18c.419-.154,10.456-3.67,27.545,3.445.285.111,7.39,2.934,12.57,12.189Z" transform="translate(-1108.933 -9192.006)" fill="#999"/>
      <path id="Trazado_106111" data-name="Trazado 106111" d="M1251.25,9307.656c-.264-.062-26.6-6.193-45.251-5.705-18.755.486-41.615-.643-41.845-.656l.064-1.252c.228.012,23.031,1.143,41.748.652,18.793-.5,45.3,5.678,45.571,5.74Z" transform="translate(-1114.689 -9174.278)" fill="#999"/>
      <path id="Trazado_106112" data-name="Trazado 106112" d="M1223.879,9451.88l-3.171-6.847a2.008,2.008,0,0,1-.486-.562c-.607-1.032-.989-3.327,2.7-11.336,4.65-10.088,14.075-44.192,14.17-44.536l9.822-35.142,4.776-15.9,2.4.725-4.77,15.878-9.816,35.111c-.386,1.407-9.574,34.644-14.308,44.915-2.682,5.818-2.9,8.023-2.86,8.734l.157.014,3.654,7.893Z" transform="translate(-1100.496 -9164.716)" fill="#999"/>
      <rect id="Rectángulo_9553" data-name="Rectángulo 9553" width="103.061" height="1.255" transform="translate(120.785 274.046) rotate(-75.638)" fill="#999"/>
      <path id="Trazado_106113" data-name="Trazado 106113" d="M1223.27,9440.021l-1.191-.4,36.99-110.57,1.191.4Z" transform="translate(-1099.924 -9166.882)" fill="#999"/>
      <path id="Trazado_106114" data-name="Trazado 106114" d="M1200.625,9305.824l-1.2-.354c.315-1.066,7.9-26.225,24.308-35.192l.6,1.1C1208.382,9280.095,1200.7,9305.569,1200.625,9305.824Z" transform="translate(-1105.699 -9181.865)" fill="#999"/>
      <path id="Trazado_106115" data-name="Trazado 106115" d="M1261.247,9292.109l-.99-.457.525-1.139.99.455Zm-6.688-3.086-5.7-2.629.527-1.141,5.7,2.631Zm-11.393-5.258-5.7-2.629.525-1.139,5.7,2.629Zm-11.395-5.258-5.7-2.629.525-1.139,5.7,2.627Zm-11.4-5.256-.814-.42c-1.335-1.324-2.687-2.611-4.016-3.826l.844-.926c1.318,1.2,2.655,2.475,3.977,3.783l.536.248Zm-9.546-8.33c-1.64-1.344-3.3-2.625-4.934-3.807l.735-1.018c1.654,1.2,3.334,2.494,5,3.855Zm-10.1-7.283c-1.812-1.127-3.633-2.154-5.412-3.059l.568-1.119c1.811.92,3.663,1.967,5.505,3.111Zm-11.082-5.572a28.174,28.174,0,0,0-5.884-1.645l.137-1.246a28.254,28.254,0,0,1,6.189,1.717Z" transform="translate(-1109.692 -9187.245)" fill="#999"/>
      <path id="Trazado_106116" data-name="Trazado 106116" d="M1224.087,9272.7c-.891-.905-1.974-2.07-3.226-3.417a169.9,169.9,0,0,0-15.932-15.526c-12.549-10.405-25.057-1.558-25.584-1.177l-.738-1.015c.135-.1,13.8-9.821,27.122,1.226a170.929,170.929,0,0,1,16.05,15.637c1.244,1.339,2.318,2.493,3.2,3.393Z" transform="translate(-1111.005 -9187.665)" fill="#999"/>
      <path id="Trazado_106117" data-name="Trazado 106117" d="M1242.879,9359.374c-.59-.157-14.434-4.183-14.434-34.544,0-30.176,15.678-43.245,15.836-43.373l.792.975c-.154.125-15.373,12.858-15.373,42.4,0,29.405,13.365,33.295,13.5,33.331Z" transform="translate(-1098.301 -9179.016)" fill="#999"/>
      <path id="Trazado_106118" data-name="Trazado 106118" d="M1199.428,9305.793c-.082-.842-.124-1.711-.124-2.584,0-.666.025-1.328.07-2l1.252.086c-.043.637-.067,1.275-.068,1.91,0,.832.04,1.662.119,2.461Zm2.188-10.57-1.216-.307a49.278,49.278,0,0,1,1.969-6.043l1.166.461A48.49,48.49,0,0,0,1201.617,9295.223Zm4.5-11.543-1.115-.574c.935-1.814,1.985-3.666,3.127-5.506l1.065.664C1208.074,9280.074,1207.039,9281.9,1206.121,9283.68Zm6.552-10.6-1.018-.736c2.228-3.084,3.846-4.928,3.914-5.006l.941.828C1216.495,9268.188,1214.861,9270.051,1212.673,9273.084Z" transform="translate(-1105.729 -9182.613)" fill="#999"/>
      <g id="Grupo_55327" data-name="Grupo 55327" transform="translate(45.842 59.764)" opacity="0.36">
        <path id="Trazado_106119" data-name="Trazado 106119" d="M1269.86,9291.689l-38.411-17.459a77.489,77.489,0,0,1-13.2-13.422s-12.876-16.807-27.826-12.006l-19.86,38.631s-11.785,21.389-8.075,46.486,7.857,73.314,7.857,73.314l5.675,48.277s.167,11.211-3.464,15.9c0,0,7.173,6.33,33.909,6.113s37.32-1.094,49.65-12.824l-5.437-4.2,11.875-37.537,16.478-51.322s4.255-8.8,4.365-22.771S1280.553,9300.418,1269.86,9291.689Zm9.516,36.918c-1.093,18.949-8.252,33.945-15.991,33.5s-13.126-16.17-12.033-35.117,8.254-33.945,15.993-33.5S1280.469,9309.66,1279.376,9328.607Z" transform="translate(-1161.141 -9247.323)" fill="#999"/>
        <path id="Trazado_106120" data-name="Trazado 106120" d="M1205.231,9478.282c-25.564,0-32.675-6.014-32.97-6.273a.625.625,0,0,1-.08-.853c3.455-4.467,3.333-15.4,3.332-15.51l-5.671-48.213c-.044-.5-4.189-48.5-7.853-73.3-3.7-25.019,8.028-46.666,8.147-46.882l19.85-38.612a.622.622,0,0,1,.365-.311c15.2-4.886,28.386,12.047,28.518,12.218a78.653,78.653,0,0,0,13.027,13.262l38.349,17.432a.624.624,0,0,1,.137.084c10.67,8.712,13.88,42.617,13.762,57.672-.11,13.947-4.25,22.676-4.427,23.041l-16.447,51.24-11.741,37.115,5.091,3.936a.629.629,0,0,1,.049.951c-12.309,11.71-22.319,12.768-50.078,12.994C1206.132,9478.28,1205.678,9478.282,1205.231,9478.282Zm-31.681-6.886c1.91,1.246,10.167,5.63,31.709,5.63.436,0,.874,0,1.321,0,26.978-.221,36.948-1.225,48.689-12.147l-4.855-3.753a.628.628,0,0,1-.215-.686l11.875-37.537,16.479-51.324c.074-.17,4.227-8.939,4.334-22.585a178.748,178.748,0,0,0-2.87-31.472,81.472,81.472,0,0,1,.109,11.25l-.626-.036.626.036c-1.113,19.286-8.222,34.1-16.276,34.1-.126,0-.251,0-.377-.011-8.21-.475-13.754-16.19-12.624-35.779.533-9.243,2.508-17.857,5.564-24.257,3.139-6.571,7.027-10.064,11.09-9.832a7.581,7.581,0,0,1,4.671,2.124,14.912,14.912,0,0,0-2.526-2.764l-38.335-17.426a.507.507,0,0,1-.11-.064,78.921,78.921,0,0,1-13.325-13.538c-.133-.172-12.648-16.225-26.9-11.872l-19.739,38.395c-.125.228-11.648,21.521-8.014,46.107,3.672,24.83,7.819,72.873,7.861,73.354l5.673,48.255C1176.774,9456.075,1176.887,9466.354,1173.55,9471.4Zm93.592-177.161c-3.333,0-6.814,3.3-9.595,9.129-2.987,6.256-4.919,14.7-5.444,23.789-1.07,18.571,4.062,34.027,11.443,34.453.1.007.207.009.311.009,7.262,0,13.961-14.607,15.017-32.918.525-9.085-.425-17.7-2.672-24.256-2.154-6.283-5.351-10-8.771-10.2C1267.337,9294.239,1267.24,9294.235,1267.142,9294.235Z" transform="translate(-1161.267 -9247.448)" fill="#4d4d4d"/>
      </g>
      <rect id="Rectángulo_9554" data-name="Rectángulo 9554" width="10.015" height="1.256" transform="matrix(0.131, -0.991, 0.991, 0.131, 144.991, 173.122)" fill="#999"/>
      <g id="Grupo_55328" data-name="Grupo 55328" transform="translate(121.095 278.611)">
        <path id="Trazado_106121" data-name="Trazado 106121" d="M1232.319,9556.416l-1.255-.052c1.826-44.214-5.07-110.165-5.139-110.826l-3.939-19.114v-4.582h1.255v4.519l3.922,18.985C1227.243,9446.068,1234.146,9512.112,1232.319,9556.416Z" transform="translate(-1221.042 -9421.842)" fill="#999"/>
        <path id="Trazado_106122" data-name="Trazado 106122" d="M1231.328,9554.389l-.941-.035q.043-1.242.079-2.5l.941.026Q1231.372,9553.142,1231.328,9554.389Zm.139-5.027-.941-.02q.028-1.248.045-2.509l.941.016Q1231.5,9548.113,1231.468,9549.361Zm.075-5.025-.941-.008.016-2.51.941,0Zm.019-5.025h-.941c0-.832,0-1.671-.009-2.51l.941,0Q1231.561,9538.059,1231.562,9539.311Zm-.971-5.018-.031-2.51.941-.015.031,2.515Zm-.073-5.018-.051-2.511.941-.021.051,2.515Zm-.113-5.025-.072-2.518.941-.026.069,2.449Zm-.148-5.028-.088-2.509.941-.034.088,2.514Zm-.182-5.014-.1-2.5.941-.04.1,2.507Zm-.209-5-.117-2.509.941-.044.117,2.511Zm-.239-5.015-.128-2.508.939-.049.13,2.51Zm-.264-5.014-.142-2.508.939-.054.142,2.51Zm-.287-5.014-.153-2.506.939-.058.153,2.509Zm-.311-5.011-.164-2.5.939-.065.164,2.509Zm-.334-5.012-.173-2.5.938-.065.173,2.506Zm-.354-5.01-.184-2.5.939-.068.185,2.5Zm-.373-5.01-.195-2.5.939-.073.194,2.5Zm-.394-5.006-.2-2.5.939-.077.2,2.5Zm-.414-5-.215-2.5.939-.081.215,2.5Zm-.432-5.007-.224-2.5.936-.086.224,2.5Zm-.456-5.007-.236-2.5.936-.091.236,2.506Zm-.477-5.007-.25-2.5.936-.094.25,2.5Zm-.646-4.938-.507-2.457.921-.191.508,2.457Zm-1.014-4.916-.509-2.458.922-.191.508,2.458Zm-1.016-4.915-.507-2.459.921-.19.507,2.458Zm-1.015-4.917-.508-2.457.922-.191.507,2.457Zm.335-5.054h-.941v-2.51h.941Z" transform="translate(-1221.234 -9421.842)" fill="#999"/>
        <path id="Trazado_106123" data-name="Trazado 106123" d="M1233.023,9554.39l-.941-.034q.045-1.242.079-2.506l.941.026Q1233.066,9553.143,1233.023,9554.39Zm.141-5.028-.941-.02q.027-1.248.045-2.509l.941.016Q1233.189,9548.113,1233.163,9549.361Zm.074-5.025-.941-.008.016-2.51.941,0Zm.019-5.025h-.941c0-.832,0-1.671-.009-2.51l.941,0Q1233.255,9538.059,1233.256,9539.311Zm-.971-5.018-.031-2.51.941-.015.031,2.515Zm-.073-5.018-.052-2.511.941-.021.052,2.515Zm-.113-5.026-.072-2.518.941-.026.069,2.449Zm-.149-5.027-.087-2.509.941-.034.087,2.514Zm-.181-5.014-.1-2.5.941-.04.1,2.507Zm-.211-5-.115-2.509.941-.044.115,2.511Zm-.237-5.018-.128-2.507.939-.049.13,2.51Zm-.263-5.012-.141-2.508.939-.054.141,2.51Zm-.287-5.014-.153-2.507.939-.058.153,2.508Zm-.311-5.011-.163-2.5.939-.065.163,2.509Zm-.334-5.012-.174-2.5.939-.065.174,2.506Zm-.353-5.01-.186-2.5.939-.068.186,2.5Zm-.375-5.01-.2-2.5.939-.073.2,2.5Zm-.393-5.006-.2-2.5.939-.077.2,2.5Zm-.414-5-.214-2.5.939-.081.215,2.5Zm-.433-5.007-.223-2.5.936-.086.225,2.5Zm-.455-5-.235-2.5.936-.091.235,2.507Zm-.477-5.009-.25-2.5.936-.094.25,2.507Zm-.644-4.938-.51-2.457.922-.191.508,2.457Zm-1.016-4.916-.507-2.458.921-.191.507,2.458Zm-1.015-4.915-.508-2.459.922-.19.508,2.458Zm-1.015-4.917-.507-2.457.921-.191.507,2.457Zm.335-5.054h-.941v-2.51h.941Z" transform="translate(-1220.802 -9421.842)" fill="#999"/>
      </g>
      <path id="Trazado_106124" data-name="Trazado 106124" d="M1185.008,9577.237c-.011-.475-1.152-47.647-.331-76.617a110.3,110.3,0,0,1,1.621-15.93c2.442-13.882,6.715-38.114,7.887-44.444,1.1-5.961.18-34.054-1.054-58.357-.093-1.854-.141-3.732-.141-5.583V9350.5h1.255v25.808c0,1.83.046,3.687.138,5.519.6,11.829,2.448,51.016,1.034,58.651-1.171,6.324-5.441,30.553-7.885,44.433a109.022,109.022,0,0,0-1.6,15.749c-.821,28.934.319,76.076.331,76.548Z" transform="translate(-1109.533 -9161.417)" fill="#999"/>
    </g>
  </g>
</svg>
