<svg xmlns="http://www.w3.org/2000/svg" width="264.128" height="418.02" viewBox="0 0 264.128 418.02">
  <g id="Grupo_55249" data-name="Grupo 55249" transform="translate(-47.506 -8157.913)">
    <rect id="Rectángulo_9521" data-name="Rectángulo 9521" width="264.128" height="418.02" rx="19.826" transform="translate(47.506 8157.913)" fill="#fff"/>
    <g id="Grupo_55248" data-name="Grupo 55248" transform="translate(76.721 8171.906)">
      <g id="Grupo_55247" data-name="Grupo 55247" transform="translate(31.517)">
        <g id="Grupo_55246" data-name="Grupo 55246">
          <g id="Grupo_55242" data-name="Grupo 55242" transform="translate(0 24.967)">
            <path id="Trazado_105770" data-name="Trazado 105770" d="M241.28,8258s-14.715-6.35-20.253-10.051c0,0-5.383-2.6-5.609-14.344s.678-19.875,2.484-25.408l2.26-8.584s-6.551-10.163-24.845-12.534c0,0-12.31-1.13-15.133,1.807,0,0-7.453,27.893-17.616,40.315,0,0-2.146,8.246-24.733,12.875l-26.651,5.76s-12.31,2.6-14.23,12.648c0,0-7.453,8.018-3.388,37.832l1.129,6.1,13.1,67.533,19.085,75.662.79,2.711v7.568s-21.231,30.377-23.716,52.963-2.484,39.525-2.484,39.525,95.991,2.26,139.809,0v-30.717a101.655,101.655,0,0,0-9.035-39.977l-9.712-18.295s-1.693-1.355-1.355-13.779l8.018-41.9,9.6-30.152,7.227-13.326s9.41-12.271,8.206-22.51l-3.463-12.047s-.452-15.811.151-21.684l4.366-15.658,1.506-14.154s1.054-6.475-3.313-10.088A109.629,109.629,0,0,0,241.28,8258Z" transform="translate(-91.699 -8186.196)" fill="#fff"/>
            <path id="Trazado_105771" data-name="Trazado 105771" d="M185.856,8552.2c-41.126,0-83.585-.981-84.224-1l-.634-.018v-.634c0-.168.029-17.232,2.487-39.6,2.379-21.616,22-50.607,23.713-53.1v-7.27l-.767-2.621-19.089-75.687-13.109-67.569-1.131-6.1c-3.82-28.011,2.4-36.984,3.423-38.243,2.079-10.215,14.181-12.882,14.7-12.991l26.649-5.756c21.774-4.468,24.221-12.334,24.243-12.412l.125-.24c9.957-12.171,17.418-39.8,17.492-40.073l.16-.282c2.954-3.072,14.368-2.126,15.66-2,18.4,2.386,25.057,12.4,25.331,12.83l.153.24-2.331,8.861c-1.878,5.754-2.679,14-2.462,25.23.214,11.125,5.2,13.745,5.245,13.77,5.5,3.671,20.076,9.976,20.223,10.039l.067.033a109.356,109.356,0,0,1,12.288,8.156c4.6,3.809,3.585,10.413,3.54,10.7l-1.5,14.117-4.387,15.767c-.549,5.44-.162,20.168-.129,21.407l3.44,11.966c1.241,10.484-7.924,22.575-8.314,23.085l-7.173,13.241-9.551,30.04-8,41.822c-.3,11.331,1.113,13.124,1.174,13.193l.116.157,9.712,18.295a103.4,103.4,0,0,1,9.111,40.3v31.319l-.616.03C226.968,8551.95,206.581,8552.2,185.856,8552.2Zm-83.556-2.28c8.4.189,96.818,2.1,138.506.017v-30.1a101.942,101.942,0,0,0-8.978-39.712l-9.657-18.188c-.494-.609-1.766-3.248-1.466-14.168l8.029-42,9.619-30.227,7.274-13.441c.149-.207,9.293-12.27,8.135-22.125l-3.469-12.1c-.019-.647-.445-15.921.153-21.768l4.387-15.768,1.487-14.051c.015-.093.94-6.191-3.081-9.517a109.082,109.082,0,0,0-12.074-8.013c-.976-.421-14.877-6.455-20.321-10.094-.157-.068-5.668-2.863-5.9-14.869-.219-11.383.6-19.763,2.516-25.623l2.172-8.255c-1.1-1.491-7.987-9.913-24.222-12.019-3.259-.295-12.144-.6-14.471,1.5-.7,2.585-7.827,28.234-17.615,40.29-.413,1.2-3.845,8.819-25.185,13.2l-26.645,5.756c-.122.026-11.913,2.635-13.728,12.138l-.036.183-.126.135c-.07.079-7.178,8.284-3.222,37.3l1.127,6.07,13.1,67.527,19.077,75.627.812,2.87v7.77l-.116.168c-.212.3-21.166,30.5-23.6,52.664C102.59,8530.968,102.331,8546.634,102.3,8549.919Z" transform="translate(-91.875 -8186.375)" fill="#999"/>
          </g>
          <ellipse id="Elipse_4295" data-name="Elipse 4295" cx="3.049" cy="4.574" rx="3.049" ry="4.574" transform="translate(10.563 118.9)" fill="#999"/>
          <g id="Grupo_55243" data-name="Grupo 55243" transform="translate(99.432)">
            <path id="Trazado_105772" data-name="Trazado 105772" d="M170.824,8188.65v12.2a6.148,6.148,0,0,0,5.609.414l.112-12.61s7.45-1.694,7.379-9.712c0,0,1.054-10.768-9.788-10.315s-9.034,12.95-9.034,12.95S167.06,8187.9,170.824,8188.65Z" transform="translate(-164.342 -8167.961)" fill="#fff"/>
            <path id="Trazado_105773" data-name="Trazado 105773" d="M174.192,8202.572a6.633,6.633,0,0,1-3.566-1.02l-.278-.193v-12.036c-3.746-1.229-5.611-7.123-5.691-7.383-.059-.361-.91-6.549,2.415-10.552a9.428,9.428,0,0,1,7.212-3.24c3.4-.132,6.046.761,7.865,2.687,3.058,3.233,2.616,8.132,2.6,8.339a10.328,10.328,0,0,1-7.379,10.136l-.111,12.561-.4.164A6.958,6.958,0,0,1,174.192,8202.572Zm-2.545-1.92a5.488,5.488,0,0,0,4.314.33l.115-12.675.5-.115a9.065,9.065,0,0,0,6.874-9.075c.007-.113.4-4.6-2.249-7.4-1.549-1.633-3.86-2.41-6.862-2.273a8.181,8.181,0,0,0-6.262,2.765c-2.958,3.558-2.164,9.385-2.156,9.442h0c.008,0,1.877,5.866,5.2,6.533l.523.1Z" transform="translate(-164.517 -8168.136)" fill="#999"/>
          </g>
          <path id="Trazado_105774" data-name="Trazado 105774" d="M214.834,8320.283l-5.66-21.418c-4.711-15.028-5.518-23.682-6.741-36.777-.159-1.7-.324-3.467-.505-5.336-1.525-15.686-7.018-19.936-7.071-19.979l.765-1.05c.244.178,6.006,4.538,7.6,20.9.182,1.87.348,3.643.505,5.34,1.215,13.015,2.019,21.61,6.695,36.538l5.668,21.446Z" transform="translate(-53.895 -8143.209)" fill="#999"/>
          <path id="Trazado_105775" data-name="Trazado 105775" d="M172.813,8386.557q-2.468,0-5.134-.043c-35.326-.561-49.731-8.112-50.327-8.434l.616-1.145c.144.076,14.778,7.726,49.731,8.28,34.8.534,43.485-4.7,43.569-4.755l.7,1.091C211.642,8381.767,203.884,8386.557,172.813,8386.557Z" transform="translate(-82.479 -8091.13)" fill="#999"/>
          <path id="Trazado_105776" data-name="Trazado 105776" d="M173.591,8394.7c-2,0-4.1-.032-6.292-.108-33.077-1.12-48.79-8.913-48.946-8.992l.589-1.159c.152.079,15.651,7.744,48.4,8.854,32.577,1.1,43.406-6.789,43.513-6.87l.79,1.032C211.233,8387.768,201.838,8394.7,173.591,8394.7Z" transform="translate(-82.11 -8088.364)" fill="#999"/>
          <path id="Trazado_105777" data-name="Trazado 105777" d="M179.516,8246.055a24.946,24.946,0,0,1-5.442-.62c-18.313-4.07-33.538-23.641-33.689-23.84l1.028-.792c.149.194,15.092,19.4,32.942,23.363,17.534,3.9,24.571-12.433,24.863-13.129l1.2.5C200.349,8231.7,194.193,8246.055,179.516,8246.055Z" transform="translate(-73.984 -8148.712)" fill="#999"/>
          <path id="Trazado_105778" data-name="Trazado 105778" d="M190.523,8206.775c-19.241,0-35.129-11.074-35.3-11.193l.751-1.059c.171.121,17.333,12.033,37.342,10.873l.078,1.295C192.434,8206.75,191.473,8206.775,190.523,8206.775Z" transform="translate(-68.511 -8158.405)" fill="#999"/>
          <path id="Trazado_105779" data-name="Trazado 105779" d="M190.183,8201c-17.259,0-33.559-11.111-33.741-11.237l.738-1.069c.2.14,20.492,13.973,39.416,10.436l.237,1.278A36.355,36.355,0,0,1,190.183,8201Z" transform="translate(-68.063 -8160.555)" fill="#999"/>
          <path id="Trazado_105780" data-name="Trazado 105780" d="M169.08,8536.205l-.1-16.809c.742-16.807-2.822-53.776-2.858-54.148l-.908-25.638-1.355-69.427c.018-.332,1.688-28.248,4.075-41.535,2.331-12.954-7.753-26.309-7.856-26.439-.205-.409-13.269-28.863-20.128-49.887-6.7-20.547-17.328-23.03-17.434-23.054l.263-1.271c.465.095,11.442,2.578,18.406,23.922,6.834,20.951,19.867,49.336,20,49.62.356.439,10.46,13.813,8.028,27.339-2.374,13.209-4.039,41.052-4.056,41.331l1.355,69.365.9,25.586c.034.333,3.608,37.394,2.862,54.261l.1,16.777Z" transform="translate(-80.576 -8146.059)" fill="#999"/>
          <path id="Trazado_105781" data-name="Trazado 105781" d="M183.019,8545.155l-1.3-.075c.027-.464,2.628-46.428-3.811-67.3-6.513-21.1-4.566-48.524-4.546-48.8l7.683-63.271c.025-.35,2.891-37.842,1.232-55.649-.534-5.712-1.74-12.8-3.017-20.314-2.746-16.14-6.162-36.228-4.769-53.879l3.441-32.91,1.292.135-3.44,32.893c-1.38,17.477,2.023,37.476,4.755,53.544,1.283,7.532,2.491,14.65,3.029,20.41,1.671,17.918-1.2,55.521-1.233,55.9l-7.682,63.268c-.016.241-1.945,27.427,4.5,48.293C185.663,8498.493,183.047,8544.691,183.019,8545.155Z" transform="translate(-61.927 -8155.295)" fill="#999"/>
          <path id="Trazado_105782" data-name="Trazado 105782" d="M118.408,8313.593l-3.965-12.958.528-.232c.346-.152,35.073-15.32,63.952-10.373,28.679,4.91,63.207,9.438,63.553,9.482l2.557.405.122.378c.1.3,2.332,7.442-2.316,11.852l-.234.222-34.31-5.7c-.4-.079-37.84-7.61-49.968-4.082-12.285,3.572-39.042,10.771-39.311,10.846Zm-2.384-12.229,3.26,10.65c4.063-1.095,27.439-7.405,38.681-10.676,12.437-3.614,49.015,3.739,50.565,4.054l33.641,5.587c3.228-3.331,2.216-8.482,1.853-9.907l-1.733-.275c-.329-.043-34.885-4.573-63.588-9.488C152.141,8286.763,120.484,8299.489,116.024,8301.364Z" transform="translate(-83.552 -8123.548)" fill="#999"/>
          <path id="Trazado_105783" data-name="Trazado 105783" d="M159.426,8394.68l-3.517-3.52,2.65-3.632-3.206-3.482.954-.879,3.93,4.267-2.623,3.595,2.733,2.73Z" transform="translate(-68.464 -8088.832)" fill="#999"/>
          <path id="Trazado_105784" data-name="Trazado 105784" d="M163.007,8394.68l-3.517-3.52,2.648-3.632-3.206-3.482.954-.879,3.93,4.267-2.621,3.595,2.733,2.73Z" transform="translate(-67.145 -8088.832)" fill="#999"/>
          <path id="Trazado_105785" data-name="Trazado 105785" d="M166.859,8394.678l-3.516-3.518,2.648-3.632-3.206-3.482.954-.879,3.93,4.267-2.621,3.595,2.731,2.733Z" transform="translate(-65.723 -8088.832)" fill="#999"/>
          <path id="Trazado_105786" data-name="Trazado 105786" d="M170.508,8394.678l-3.516-3.518,2.648-3.632-3.206-3.482.954-.879,3.93,4.267-2.621,3.595,2.731,2.733Z" transform="translate(-64.378 -8088.832)" fill="#999"/>
          <path id="Trazado_105787" data-name="Trazado 105787" d="M174.021,8394.075l-3.516-3.517,2.648-3.632-3.206-3.48.954-.88,3.93,4.266-2.621,3.594,2.731,2.734Z" transform="translate(-63.082 -8089.053)" fill="#999"/>
          <path id="Trazado_105788" data-name="Trazado 105788" d="M139.941,8393.721l-3.181-3.75,2.985-3.227-2.839-3.641,1.025-.8,3.519,4.512-2.954,3.189,2.437,2.875Z" transform="translate(-75.321 -8089.148)" fill="#999"/>
          <path id="Trazado_105789" data-name="Trazado 105789" d="M143.5,8394.076l-3.181-3.751,2.985-3.225-2.839-3.641,1.025-.8,3.519,4.51-2.954,3.191,2.437,2.874Z" transform="translate(-74.007 -8089.018)" fill="#999"/>
          <path id="Trazado_105790" data-name="Trazado 105790" d="M147.339,8394.459l-3.181-3.75,2.985-3.225-2.839-3.641,1.025-.8,3.516,4.51-2.951,3.193,2.437,2.871Z" transform="translate(-72.593 -8088.877)" fill="#999"/>
          <path id="Trazado_105791" data-name="Trazado 105791" d="M128.809,8391.378l-3.181-3.749,2.985-3.226-2.839-3.642,1.025-.8,3.516,4.51-2.951,3.192,2.437,2.873Z" transform="translate(-79.427 -8090.013)" fill="#999"/>
          <path id="Trazado_105792" data-name="Trazado 105792" d="M125.323,8390.377l-3.181-3.748,2.985-3.227-2.839-3.642,1.025-.8,3.516,4.51-2.951,3.192,2.437,2.874Z" transform="translate(-80.712 -8090.382)" fill="#999"/>
          <path id="Trazado_105793" data-name="Trazado 105793" d="M122.446,8389.4l-3.181-3.751,2.985-3.227-2.839-3.639,1.025-.8,3.519,4.507L121,8385.683l2.437,2.874Z" transform="translate(-81.774 -8090.744)" fill="#999"/>
          <path id="Trazado_105794" data-name="Trazado 105794" d="M132.371,8392.333l-3.181-3.751,2.985-3.226-2.839-3.64,1.025-.8,3.516,4.51-2.951,3.19,2.437,2.874Z" transform="translate(-78.113 -8089.661)" fill="#999"/>
          <path id="Trazado_105795" data-name="Trazado 105795" d="M136.207,8392.717l-3.182-3.751,2.985-3.225-2.839-3.641,1.025-.8,3.519,4.511L134.76,8389l2.438,2.874Z" transform="translate(-76.699 -8089.52)" fill="#999"/>
          <path id="Trazado_105796" data-name="Trazado 105796" d="M150.969,8394.822l-3.181-3.75,2.985-3.227-2.839-3.64,1.025-.8,3.519,4.51-2.954,3.194,2.437,2.872Z" transform="translate(-71.254 -8088.744)" fill="#999"/>
          <path id="Trazado_105797" data-name="Trazado 105797" d="M154.523,8394.595l-3.182-3.751,2.985-3.227-2.839-3.641,1.025-.8,3.519,4.51-2.954,3.193,2.438,2.874Z" transform="translate(-69.944 -8088.828)" fill="#999"/>
          <path id="Trazado_105798" data-name="Trazado 105798" d="M184,8390.554l-3.26-2.9,2.372-2.894-2.761-2.663.9-.935,3.62,3.5-2.339,2.853,2.327,2.07Z" transform="translate(-59.244 -8089.571)" fill="#999"/>
          <path id="Trazado_105799" data-name="Trazado 105799" d="M181.1,8391.445l-3.26-2.9,2.373-2.893-2.761-2.664.9-.934,3.62,3.5-2.339,2.853,2.327,2.069Z" transform="translate(-60.314 -8089.241)" fill="#999"/>
          <path id="Trazado_105800" data-name="Trazado 105800" d="M178.474,8392.474l-3.592-3.1,2.635-3.117-3.095-2.9.886-.948,4,3.743-2.6,3.08,2.618,2.259Z" transform="translate(-61.431 -8089.112)" fill="#999"/>
          <path id="Trazado_105801" data-name="Trazado 105801" d="M186.287,8389.726l-2.878-2.786,2.092-2.777-2.435-2.559.94-.9,3.2,3.356-2.065,2.742,2.053,1.986Z" transform="translate(-58.244 -8089.739)" fill="#999"/>
          <path id="Trazado_105802" data-name="Trazado 105802" d="M136.8,8492.27l-1.3-.023,1.13-66.512,2.033-68.213v-62.07h1.3v62.09l-2.033,68.223Z" transform="translate(-75.785 -8121.182)" fill="#999"/>
          <path id="Trazado_105803" data-name="Trazado 105803" d="M119.6,8517.037l-1.268-.275c.015-.094.469-3.177,1.466-40.032.97-35.984,12.011-48.23,13.589-49.8l1.28-8.1-29.945-138.2,1.269-.274,30,138.441-.021.12-1.37,8.66-.167.152c-.123.113-12.329,11.748-13.335,49.037C120.079,8514.486,119.621,8516.951,119.6,8517.037Z" transform="translate(-87.136 -8126.75)" fill="#999"/>
          <g id="Grupo_55244" data-name="Grupo 55244" transform="translate(16.318 153.601)">
            <rect id="Rectángulo_9522" data-name="Rectángulo 9522" width="1.298" height="1.732" transform="matrix(0.978, -0.211, 0.211, 0.978, 0, 0.274)" fill="#999"/>
            <path id="Trazado_105804" data-name="Trazado 105804" d="M118.721,8510.324l-1.3-.059.151-3.457,1.3.055Zm.286-6.926-1.3-.045.126-3.461,1.3.049Zm.245-6.922-1.3-.041.112-3.461,1.3.041Zm.219-6.928-1.3-.037.1-3.461,1.3.037Zm.2-6.92-1.3-.037.1-3.461,1.3.037Zm.193-6.93-1.3-.021.008-.322q.043-1.605.114-3.16l1.3.061q-.072,1.538-.114,3.139Zm.313-6.889-1.295-.086q.117-1.778.27-3.465l1.291.115Q120.3,8467.048,120.18,8468.811Zm.62-6.869-1.292-.143c.136-1.186.282-2.334.441-3.453l1.285.184C121.078,8459.633,120.932,8460.773,120.8,8461.941Zm.966-6.814-1.278-.221q.306-1.775.643-3.422l1.272.26C122.181,8452.83,121.969,8453.955,121.767,8455.127Zm1.385-6.738-1.262-.3q.427-1.767.883-3.375l1.248.355Q123.575,8446.646,123.152,8448.389Zm1.874-6.607-1.232-.41q.585-1.755,1.18-3.287l1.21.469Q125.6,8440.059,125.026,8441.781Zm2.486-6.383-1.18-.543c.5-1.1,1.029-2.158,1.562-3.139l1.14.619C128.516,8433.293,128,8434.32,127.511,8435.4Zm3.274-5.979-1.08-.723a23.578,23.578,0,0,1,2.167-2.822l.957.875A22.567,22.567,0,0,0,130.786,8429.42Zm3.074-6.266-1.283-.2.541-3.42,1.283.2Zm-.652-6.793-.734-3.385,1.268-.275.735,3.387Zm-1.467-6.771-.735-3.385,1.269-.273.734,3.385Zm-1.466-6.77-.735-3.387,1.269-.273.734,3.385Zm-1.469-6.771-.734-3.385,1.269-.273.734,3.385Zm-1.467-6.771-.732-3.385,1.269-.273.731,3.383Zm-1.466-6.768-.734-3.387,1.268-.273.734,3.385Zm-1.469-6.771-.734-3.385,1.269-.275.734,3.387Zm-1.466-6.771-.734-3.385,1.269-.273.734,3.385Zm-1.467-6.771-.734-3.385,1.268-.273.735,3.385Zm-1.466-6.77-.734-3.387,1.268-.271.734,3.385Zm-1.467-6.771-.735-3.385,1.269-.273.734,3.385Zm-1.469-6.77-.732-3.385,1.269-.273.732,3.385Zm-1.466-6.77-.734-3.387,1.269-.273.734,3.385Zm-1.467-6.771-.734-3.385,1.268-.273.734,3.385Zm-1.466-6.771-.734-3.385,1.268-.273.734,3.385ZM111.2,8314.8l-.734-3.385,1.269-.275.734,3.389Zm-1.466-6.77-.734-3.387,1.269-.271.734,3.385Zm-1.467-6.77-.734-3.385,1.268-.273.735,3.385Zm-1.467-6.771-.732-3.385,1.268-.273.732,3.385Zm-1.466-6.77-.735-3.385,1.269-.275.734,3.387Z" transform="translate(-103.5 -8278.985)" fill="#999"/>
            <path id="Trazado_105805" data-name="Trazado 105805" d="M115.01,8453.773l-1.272-.271c.007-.036.045-.344.129-1.624l1.295.082C115.1,8452.951,115.042,8453.611,115.01,8453.773Z" transform="translate(-100.13 -8217.092)" fill="#999"/>
          </g>
          <g id="Grupo_55245" data-name="Grupo 55245" transform="translate(18.873 153.597)">
            <rect id="Rectángulo_9523" data-name="Rectángulo 9523" width="1.298" height="1.73" transform="matrix(0.977, -0.212, 0.212, 0.977, 0, 0.275)" fill="#999"/>
            <path id="Trazado_105806" data-name="Trazado 105806" d="M120.589,8510.32l-1.3-.058.151-3.457,1.3.055Zm.286-6.927-1.3-.045.123-3.458,1.3.046Zm.242-6.919-1.3-.042.111-3.462,1.3.042Zm.219-6.927-1.3-.04.1-3.459,1.3.038Zm.2-6.922-1.3-.037.1-3.461,1.3.036Zm.193-6.933-1.3-.019.008-.322c.027-1.07.067-2.126.114-3.161l1.3.061c-.048,1.025-.086,2.069-.114,3.14Zm.315-6.885-1.295-.086q.115-1.778.27-3.469l1.292.117C122.212,8466.489,122.123,8467.632,122.045,8468.809Zm.616-6.867-1.289-.148c.136-1.182.282-2.334.442-3.45l1.285.182Q122.865,8460.186,122.661,8461.941Zm.972-6.817-1.278-.221q.3-1.775.642-3.422l1.272.26C124.048,8452.828,123.836,8453.953,123.633,8455.124Zm1.382-6.737-1.261-.306q.425-1.767.883-3.374l1.247.354Q125.439,8446.645,125.016,8448.387Zm1.877-6.608-1.232-.409q.583-1.756,1.179-3.289l1.211.469Q127.467,8440.055,126.892,8441.778Zm2.483-6.386-1.18-.538c.494-1.086,1.02-2.142,1.563-3.141l1.139.619C130.37,8433.3,129.857,8434.336,129.375,8435.393Zm3.276-5.977-1.079-.72a23.364,23.364,0,0,1,2.167-2.823l.957.875A22.641,22.641,0,0,0,132.651,8429.416Zm3.074-6.264-1.281-.2.541-3.424,1.283.2Zm-.65-6.794-.735-3.385,1.269-.274.734,3.385Zm-1.469-6.771-.734-3.387,1.269-.273.734,3.387Zm-1.466-6.771-.734-3.387,1.269-.272.734,3.385Zm-1.467-6.771-.734-3.387,1.268-.273.734,3.385Zm-1.466-6.771-.734-3.385,1.268-.274.734,3.385Zm-1.469-6.77L127,8379.12l1.269-.274.734,3.387Zm-1.466-6.771-.734-3.386,1.269-.273.734,3.385Zm-1.467-6.771-.734-3.386,1.268-.274.735,3.385Zm-1.466-6.772-.734-3.384,1.268-.274.735,3.386Zm-1.467-6.771-.735-3.386,1.269-.272.734,3.385Zm-1.466-6.769-.735-3.385,1.269-.274.734,3.385Zm-1.469-6.771-.734-3.386,1.269-.274.734,3.385Zm-1.467-6.771-.732-3.386,1.268-.274.732,3.386ZM116,8328.342l-.734-3.388,1.268-.272.734,3.385Zm-1.469-6.772-.731-3.384,1.268-.274.732,3.385Zm-1.466-6.771-.734-3.385,1.269-.273.734,3.386Zm-1.467-6.769-.732-3.385,1.269-.273.732,3.384Zm-1.466-6.77-.734-3.386,1.268-.274.734,3.385Zm-1.467-6.771-.732-3.385,1.268-.274.732,3.385Zm-1.467-6.771-.734-3.387,1.269-.273.734,3.386Z" transform="translate(-105.367 -8278.98)" fill="#999"/>
            <path id="Trazado_105807" data-name="Trazado 105807" d="M116.874,8453.774l-1.268-.278c0-.036.047-.347.126-1.62l1.3.081C116.965,8452.949,116.909,8453.611,116.874,8453.774Z" transform="translate(-101.996 -8217.089)" fill="#999"/>
          </g>
          <path id="Trazado_105808" data-name="Trazado 105808" d="M106.61,8298.733c-8.261,0-14.732-13.941-14.732-31.741s6.472-31.745,14.732-31.745,14.732,13.943,14.732,31.745S114.871,8298.733,106.61,8298.733Zm0-62.187c-7.407,0-13.433,13.657-13.433,30.445s6.027,30.442,13.433,30.442,13.433-13.656,13.433-30.442S114.017,8236.547,106.61,8236.547Z" transform="translate(-91.874 -8143.385)" fill="#999"/>
          <path id="Trazado_105809" data-name="Trazado 105809" d="M211.219,8302.917l6.324-1.656,1.129,1.656,2.259-.526s.3-5.044-1.807-6.551h-1.732l-.376,2.561-6.173,2.711-1.054.9.166.9Z" transform="translate(-48.388 -8121.038)" fill="#999"/>
          <path id="Trazado_105810" data-name="Trazado 105810" d="M133.1,8228.518l.29-6.533,1.916-.588.166-2.313s-4.729-1.781-6.792-.212l-.512,1.654,2.332,1.115.762,6.7.55,1.272.912.111Z" transform="translate(-78.491 -8149.663)" fill="#999"/>
          <path id="Trazado_105811" data-name="Trazado 105811" d="M128.039,8228.854l-2.182-6.164,1.556-1.264-.715-2.205s-5.052.123-6.376,2.35l.145,1.725,2.583.16,3.219,5.926.988.973.886-.24Z" transform="translate(-81.383 -8149.297)" fill="#999"/>
          <path id="Trazado_105812" data-name="Trazado 105812" d="M106.678,8234.854l-2.181-6.164,1.555-1.264-.715-2.205s-5.052.121-6.376,2.35l.146,1.725,2.582.16,3.219,5.926.988.973.887-.24Z" transform="translate(-89.261 -8147.084)" fill="#999"/>
          <path id="Trazado_105813" data-name="Trazado 105813" d="M156.327,8292.463l2.936-3.463-1.129-1.431.6-1.355s4.065,0,4.668,3.915l-1.129.589-1.807-.438-3.538,2.711Z" transform="translate(-68.105 -8124.588)" fill="#999"/>
          <path id="Trazado_105814" data-name="Trazado 105814" d="M157.537,8296.367l2.936,3.463-1.129,1.431.6,1.355s4.065,0,4.668-3.915l-1.129-.589-1.807.438-3.538-2.711Z" transform="translate(-67.659 -8121.038)" fill="#999"/>
          <path id="Trazado_105815" data-name="Trazado 105815" d="M181.622,8296.619l4.028-2.095,1.144,1.419,1.455-.286s.9-3.967-2.783-5.421l-.823.971.025,1.858-3.427,2.85Z" transform="translate(-58.917 -8123.105)" fill="#999"/>
          <path id="Trazado_105816" data-name="Trazado 105816" d="M181.194,8297.624l4.42,1.042-.059,1.82,1.289.732s3.27-2.414,1.429-5.922l-1.258.2-1.194,1.426-4.457-.078Z" transform="translate(-58.934 -8121.238)" fill="#999"/>
          <path id="Trazado_105817" data-name="Trazado 105817" d="M119.87,8300.954l-4.418,1.04.059,1.822-1.291.732s-3.27-2.414-1.428-5.922l1.257.2,1.194,1.423,4.457-.076Z" transform="translate(-84.368 -8120.01)" fill="#999"/>
        </g>
        <path id="Trazado_105818" data-name="Trazado 105818" d="M185.6,8244.892s1.125-7.67-4.794-9.6c0,0-9.365-4.029-11.889,3.419,0,0,1.742-4.927-2.55-7.83s-7.86,2.128-7.86,2.128,3.415-2.831-.372-6.619-7.364.339-7.364.339,2.454-4.509-.715-7.072-8.548,2.471-8.548,2.471S158.076,8248.3,185.6,8244.892Z" transform="translate(-73.57 -8149.402)" fill="#999" stroke="#4d4d4d" stroke-linecap="round" stroke-linejoin="round" stroke-width="1" opacity="0.39"/>
        <path id="Trazado_105819" data-name="Trazado 105819" d="M175.067,8239.813l4.787,4.453-.794,1.841,1.655,1.624s4.421-2.448,4.562-5.034l-.927-1.463-2.364,1.055-5.6-3.761-1.328-.407-.673.625Z" transform="translate(-61.444 -8142.325)" fill="#999"/>
        <path id="Trazado_105820" data-name="Trazado 105820" d="M176.5,8239.706l-2.914,5.851,1.391,1.445-.979,2.1s-5-.735-6.042-3.106l.355-1.7,2.582.155,3.916-5.489,1.1-.848.851.347Z" transform="translate(-63.815 -8142.325)" fill="#999"/>
      </g>
      <path id="Trazado_105821" data-name="Trazado 105821" d="M87.89,8242.892s9.639-.071,6.129,24.721a75.864,75.864,0,0,0,6.7,43.438l4.55,7.985s5.475,18.855,0,35.748c0,0,3.441,22.7,11.361,40.624s8.337,39.109,8.337,39.109l83.819.3,6.728-73.265s1-42.362-1.059-62.9-9.015-54.151-9.015-54.151-21.375,1.583-40.658-23.7c0,0-22.755,7.625-41.967,10.571s-29.469,7.47-29.469,7.47Z" transform="translate(-61.827 -8148.712)" fill="#999" stroke="#4d4d4d" stroke-linecap="round" stroke-linejoin="round" stroke-width="1" opacity="0.36"/>
      <path id="Trazado_105822" data-name="Trazado 105822" d="M101.021,8285.442s-.693-1.071-4.71,0-4.553-.237-4.553-.237-2.857.327-3.928,2.291-3.392-2.679-5.534-3.214-5.178,1.848-5.178,1.848.535,2.17-4.106-2.65c0,0-2.231-.358-3.3.8s-1.339-1.6.357-2.541,9.552-10.933,9.552-10.933,6.517-13.308,7.589-18.308,5.237-15.5,7.706-15.561,4.722,3.638,4.722,3.638,1.86.445,2.035,9.4a77.378,77.378,0,0,1-.538,13.059l-.761,9.017.65,11.338Z" transform="translate(-68.849 -8142.762)" fill="#999" stroke="#4d4d4d" stroke-linecap="round" stroke-linejoin="round" stroke-width="1" opacity="0.66"/>
    </g>
  </g>
</svg>
