<svg xmlns="http://www.w3.org/2000/svg" width="86.704" height="363.034" viewBox="0 0 86.704 363.034">
  <g id="Grupo_54984" data-name="Grupo 54984" transform="translate(-76.058 -8108.921)">
    <path id="Trazado_105104" data-name="Trazado 105104" d="M123.005,8126.9c-12.493-14.494-27.761-13.381-27.909-13.369l-.146-1.732c.665-.061,16.312-1.187,29.374,13.967Z" transform="translate(13.979 2.094)" fill="#999"/>
    <rect id="Rectángulo_9417" data-name="Rectángulo 9417" width="10.213" height="62.412" transform="translate(107.575 8409.543)" fill="#999"/>
    <g id="Grupo_54983" data-name="Grupo 54983" transform="translate(76.058 8108.921)">
      <path id="Trazado_105105" data-name="Trazado 105105" d="M139.429,8124.187s-5.069-13.768-28.066-14.751l-14.374,30.336s-16.568,24.963-12.937,41.077,5.448,38.128,5.448,38.128,7.717,31.548,1.361,47.662-11.8,33.587-11.8,33.587-4.766,9.986-1.134,40.853,4.084,52.652,4.084,52.652,4.426,14.979,36.88,14.979,34.27-18.951,34.27-18.951l2.61-109.428s-2.874-16.492-3.177-26.932,2.723-32.985,5.295-38.431,3.631-9.381,3.631-13.012-2.269-8.928-8.775-15.888-17.248-20.273-18.308-38.43A49.455,49.455,0,0,1,139.429,8124.187Z" transform="translate(-75.686 -8108.541)" fill="#fff"/>
      <path id="Trazado_105106" data-name="Trazado 105106" d="M119.263,8409.957c-32.727,0-37.526-14.963-37.714-15.6l-.037-.229c-.005-.217-.494-22.1-4.077-52.568-3.619-30.762,1.014-40.912,1.213-41.33.009-.057,5.483-17.572,11.776-33.533,6.18-15.67-1.319-46.82-1.4-47.131-.042-.355-1.876-22.277-5.451-38.144-3.671-16.291,12.373-40.721,13.058-41.75l14.56-30.751.576.022c23.309,1,28.631,14.737,28.845,15.322l.13.354-.167.338a48.886,48.886,0,0,0-4.9,22.993c.769,13.147,6.849,25.894,18.077,37.905,7.445,7.964,9.01,13.357,9.01,16.478,0,3.82-1.147,7.947-3.715,13.387-2.446,5.182-5.516,27.574-5.211,38.033.3,10.26,3.137,26.643,3.163,26.807l-2.6,109.6C154.381,8390.42,152.127,8409.957,119.263,8409.957Zm-36.014-16c.458,1.227,6.046,14.26,36.014,14.26,31.2,0,33.329-17.422,33.4-18.162l2.606-109.365h0c-.017,0-2.876-16.506-3.177-26.885-.315-10.871,2.8-33.369,5.378-38.828,2.453-5.193,3.548-9.094,3.548-12.643,0-2.807-1.482-7.74-8.541-15.291-11.512-12.314-17.749-25.427-18.539-38.973a49.856,49.856,0,0,1,4.9-23.528c-.95-2.025-6.913-12.789-26.571-13.83l-14.125,29.812c-.226.355-16.382,24.951-12.874,40.515,3.6,15.989,5.448,38.028,5.465,38.247.3,1.164,7.687,31.867,1.3,48.053-6.269,15.9-11.724,33.354-11.778,33.527-.09.211-4.646,10.373-1.1,40.49C82.609,8370.65,83.2,8392.047,83.249,8393.957Z" transform="translate(-76.058 -8108.921)" fill="#999"/>
    </g>
    <path id="Trazado_105107" data-name="Trazado 105107" d="M128.084,8145.019C103.454,8131.8,87.165,8130.161,87,8130.146l.16-1.733c.672.061,16.766,1.665,41.744,15.073Z" transform="translate(8.099 14.422)" fill="#999"/>
    <path id="Trazado_105108" data-name="Trazado 105108" d="M106.28,8181.233c-1.072,0-14.588-.365-19.971-17.748-3.487-11.259-.1-18.547,2.225-21.888,2.749-3.943,6.861-6.617,10.476-6.811l.084-.006.082.013c.2.03,20.147,3.043,20.38,21.843.219,17.63-6.1,22.218-12.958,24.552l-.252.045Zm-7.261-44.7c-2.54.173-6.3,2.1-9.058,6.062-3.7,5.321-4.413,12.559-1.991,20.382,4.964,16.024,16.775,16.522,18.2,16.522,5.773-1.983,11.861-5.62,11.647-22.839C117.606,8139.777,100.544,8136.765,99.02,8136.529Z" transform="translate(6.477 19.135)" fill="#999"/>
    <rect id="Rectángulo_9418" data-name="Rectángulo 9418" width="8.6" height="1.742" transform="translate(108.076 8155.264) rotate(-67.638)" fill="#999"/>
    <path id="Trazado_105109" data-name="Trazado 105109" d="M123.547,8126.388c-12.488-14.491-27.759-13.376-27.907-13.367l-.146-1.733c.654-.062,16.3-1.2,29.372,13.965Z" transform="translate(14.382 1.721)" fill="#999"/>
    <rect id="Rectángulo_9419" data-name="Rectángulo 9419" width="3.48" height="210.459" transform="translate(110.941 8199.083)" fill="red"/>
  </g>
</svg>
