<svg xmlns="http://www.w3.org/2000/svg" xmlns:xlink="http://www.w3.org/1999/xlink" width="604" height="389.046" viewBox="0 0 604 389.046">
  <defs>
    <clipPath id="clip-path">
      <ellipse id="Elipse_4300" data-name="Elipse 4300" cx="133.619" cy="116.218" rx="133.619" ry="116.218" fill="none"/>
    </clipPath>
  </defs>
  <g id="Grupo_55307" data-name="Grupo 55307" transform="translate(-568.394 -8862.608)">
    <rect id="Rectángulo_9538" data-name="Rectángulo 9538" width="604" height="389.046" rx="15.73" transform="translate(568.394 8862.608)" fill="#fff"/>
    <g id="Grupo_55295" data-name="Grupo 55295" transform="translate(605.269 8888.768)">
      <g id="Grupo_55288" data-name="Grupo 55288" transform="translate(97.444)">
        <path id="Trazado_105994" data-name="Trazado 105994" d="M689.695,8895.855c0-7.184-4.353-13.008-9.723-13.008s-9.723,5.824-9.723,13.008c0,5.618,2.668,10.39,6.4,12.209V8920.5h7.347v-12.812C687.353,8905.643,689.695,8901.118,689.695,8895.855Z" transform="translate(-669.585 -8882.185)" fill="#fff"/>
        <path id="Trazado_105995" data-name="Trazado 105995" d="M684.816,8921.327h-8.672v-12.7c-3.842-2.1-6.4-7.1-6.4-12.612,0-7.538,4.658-13.67,10.386-13.67s10.386,6.132,10.386,13.67c0,5.149-2.228,9.889-5.7,12.2ZM677.469,8920h6.022v-12.523l.318-.191c3.272-1.993,5.386-6.415,5.386-11.27,0-6.808-4.066-12.345-9.061-12.345s-9.061,5.537-9.061,12.345c0,5.189,2.421,9.855,6.025,11.614l.371.182Z" transform="translate(-669.748 -8882.348)" fill="#999"/>
      </g>
      <g id="Grupo_55289" data-name="Grupo 55289" transform="translate(96.156 15.701)">
        <rect id="Rectángulo_9539" data-name="Rectángulo 9539" width="22.803" height="3.803" rx="1.435" transform="translate(0.663 0.663)" fill="#fff"/>
        <path id="Trazado_105996" data-name="Trazado 105996" d="M690.34,8899.324h-19a2.564,2.564,0,1,1,0-5.129h19a2.564,2.564,0,0,1,0,5.129Zm-19-3.8a1.238,1.238,0,1,0,0,2.477h19a1.238,1.238,0,1,0,0-2.477Z" transform="translate(-668.776 -8894.195)" fill="#999"/>
      </g>
      <g id="Grupo_55290" data-name="Grupo 55290" transform="translate(96.156 8.442)">
        <rect id="Rectángulo_9540" data-name="Rectángulo 9540" width="22.803" height="3.803" rx="1.435" transform="translate(0.663 0.663)" fill="#fff"/>
        <path id="Trazado_105997" data-name="Trazado 105997" d="M690.34,8893.847h-19a2.564,2.564,0,1,1,0-5.129h19a2.564,2.564,0,0,1,0,5.129Zm-19-3.8a1.239,1.239,0,1,0,0,2.478h19a1.239,1.239,0,1,0,0-2.478Z" transform="translate(-668.776 -8888.718)" fill="#999"/>
      </g>
      <g id="Grupo_55291" data-name="Grupo 55291" transform="translate(0 33.171)">
        <path id="Trazado_105998" data-name="Trazado 105998" d="M633.132,9179.906l7.375-13.6,1.267-9.217-28.118-81.7-16.134-51.975s-3-12.675,2.65-19.936,17.626-16.364,17.626-16.364l52.785-43.56,13.944-31.346s2.3-4.263,5.762-4.263,22.472-2.074,35.148,15.1c0,0,1.267,3.11-.576,8.065,0,0-5.762,13.714-6.914,21.551,0,0-.692,7.951.115,11.063l35.493,16.134,9.335,3.687s5.186.808,8.411,9.335,10.027,23.277,10.027,23.277l10.948,26.391,6.107,11.063s4.955,6.682,4.725,11.294-2.88,9.1-9.564,15.1-19.591,16.594-19.591,16.594l-2.189,2.736s.346,18.93-7.432,35.351c0,0-11.063,25.269-10.717,38.648l.172,10.27-.172,9.161S668.914,9209.063,633.132,9179.906Z" transform="translate(-596.053 -8907.223)" fill="#fff"/>
        <path id="Trazado_105999" data-name="Trazado 105999" d="M702.773,9198.042c-24.846,0-52.925-3.636-69.892-17.462l-.427-.348,7.578-13.974,1.231-8.944L613.2,9075.759l-16.14-51.99c-.136-.575-3.014-13.115,2.76-20.54,5.635-7.245,17.257-16.11,17.749-16.485l52.644-43.442,13.879-31.2c.125-.235,2.56-4.658,6.368-4.658.254,0,.595-.012,1.012-.026,15.115-.514,26.754,4.672,34.669,15.392l.079.145c.056.134,1.344,3.409-.567,8.549-.068.161-5.753,13.751-6.879,21.412,0,.04-.627,7.341.031,10.5l35.2,16,9.245,3.653c.726.146,5.7,1.43,8.847,9.738,3.182,8.408,9.941,23.089,10.008,23.236l10.958,26.413,6.075,11c.16.206,5.045,6.854,4.807,11.646-.249,4.978-3.175,9.632-9.784,15.557-6.4,5.737-18.641,15.815-19.559,16.569l-2,2.5c0,2.274-.217,20.032-7.5,35.4-.1.235-10.993,25.271-10.654,38.35l.172,10.275-.183,9.722-.526.1A307.325,307.325,0,0,1,702.773,9198.042ZM634.145,9179.9c33.9,26.979,111.8,13.756,118.983,12.465l.162-8.621-.172-10.245c-.347-13.368,10.318-37.889,10.773-38.928,7.627-16.1,7.38-34.883,7.376-35.07l0-.239,2.436-3.022c.13-.1,12.973-10.661,19.569-16.574,6.321-5.669,9.116-10.044,9.347-14.638.216-4.321-4.548-10.8-4.6-10.864l-6.156-11.138-10.98-26.457c-.058-.123-6.836-14.846-10.033-23.3-3.03-8.008-7.849-8.9-7.9-8.912l-.138-.039-9.334-3.687-35.812-16.278-.081-.3c-.826-3.185-.162-10.957-.133-11.287,1.156-7.869,6.726-21.186,6.963-21.748,1.564-4.207.753-7.026.6-7.494-11.512-15.521-28.065-14.957-33.5-14.778-.437.016-.794.027-1.059.027-3.027,0-5.158,3.876-5.179,3.917l-13.984,31.441-.121.1-52.785,43.56c-.139.108-12,9.153-17.526,16.26-5.382,6.923-2.556,19.255-2.528,19.378l16.122,51.928,28.164,81.835-1.364,9.6Z" transform="translate(-596.219 -8907.378)" fill="#999"/>
      </g>
      <path id="Trazado_106000" data-name="Trazado 106000" d="M635.9,9166.209l-1.179-.6,7.779-15.279v-7.464l-23.942-80.575-11.535-49.13c-.09-.877-1.822-19.511,2.81-29.585,4.589-9.982,13.935-21.685,14.029-21.8l1.034.827c-.093.115-9.338,11.693-13.859,21.525-4.481,9.749-2.726,28.626-2.708,28.818l11.508,49,23.988,80.722v7.976Z" transform="translate(-592.832 -8856.517)" fill="#999"/>
      <path id="Trazado_106001" data-name="Trazado 106001" d="M651.811,9193.532h-1.325c0-21.323-5.7-75.643-5.757-76.188-.074-.688-7.452-69.054-8.99-90.254-1.549-21.354,8.594-44.68,8.7-44.913l13.313-29.222,21.44-45.126,1.2.569-21.433,45.116-13.3,29.2c-.1.223-10.11,23.257-8.585,44.275,1.536,21.177,8.912,89.521,8.985,90.209C646.1,9117.751,651.811,9172.138,651.811,9193.532Z" transform="translate(-583.418 -8874.061)" fill="#999"/>
      <path id="Trazado_106002" data-name="Trazado 106002" d="M667.023,9181.646H665.7V9048.594c2.4-40.5,13.609-64.015,13.72-64.246,10.026-27.146,26.276-29.5,26.962-29.582l.167,1.314c-.16.021-16.161,2.4-25.911,28.784-.136.292-11.23,23.6-13.614,63.769Z" transform="translate(-573.621 -8858.795)" fill="#999"/>
      <path id="Trazado_106003" data-name="Trazado 106003" d="M700.129,9160.72l-4.17-20.251.017-4.989,27.657-119.861,1.292.3L697.284,9135.7v4.7l4.141,20.051Z" transform="translate(-563.779 -8839.003)" fill="#999"/>
      <path id="Trazado_106004" data-name="Trazado 106004" d="M711.511,9163l-5.9-21.638.015-7.967c.445-2.076,10.932-50.9,13.517-57.277,2.567-6.334,3.263-7.909,3.291-7.973a272.452,272.452,0,0,0,13.055-24.378c5.248-11.494,2.179-19.45,2.148-19.529l-4.356-21.727,1.3-.258,4.322,21.607c.1.225,3.293,8.408-2.207,20.457a271.215,271.215,0,0,1-13.088,24.439h0c.005,0-.729,1.671-3.235,7.856-2.5,6.164-12.975,54.852-13.435,56.988v7.67l5.854,21.379Z" transform="translate(-560.64 -8843.351)" fill="#999"/>
      <path id="Trazado_106005" data-name="Trazado 106005" d="M780.737,9056.371l-6.4-13.657c-6.313-13.48-16.817-32.788-16.923-32.979-.1-.255-6.359-16.72-26.322-24.01-20.19-7.373-91.863-12.245-92.584-12.292l.089-1.322c.724.048,72.584,4.933,92.95,12.369,20.564,7.509,27.009,24.539,27.072,24.711.065.1,10.587,19.445,16.919,32.962l6.4,13.654Z" transform="translate(-582.463 -8853.153)" fill="#999"/>
      <path id="Trazado_106006" data-name="Trazado 106006" d="M655.2,8935.605l-2.922-7-2.927-.848s-1.26-.332-.624-1.295l4.634-2.65s2.1-1.059,1.892.984l-1.047,3.3,2.438,6.7-.076,1.795Z" transform="translate(-579.2 -8868.95)" fill="#999"/>
      <path id="Trazado_106007" data-name="Trazado 106007" d="M655.7,8937.313l-7.46-1.355-2.306,1.994s-.963.876-1.425-.181l.3-5.331s.254-2.342,1.855-1.053l2.2,2.674,6.947,1.6,1.464,1.04Z" transform="translate(-580.512 -8866.522)" fill="#999"/>
      <path id="Trazado_106008" data-name="Trazado 106008" d="M638.953,8975.563l-3.288-6.831-2.969-.691s-1.276-.266-.692-1.26l4.489-2.895s2.044-1.168,1.941.884l-.871,3.351,2.788,6.562.02,1.795Z" transform="translate(-584.63 -8855.935)" fill="#999"/>
      <path id="Trazado_106009" data-name="Trazado 106009" d="M639.935,9031.828l-6.084-4.524-2.95.767s-1.254.359-1.2-.794l2.632-4.646s1.267-1.983,2.13-.12l.783,3.372,5.516,4.515.852,1.582Z" transform="translate(-585.328 -8837.021)" fill="#999"/>
      <path id="Trazado_106010" data-name="Trazado 106010" d="M645.865,9104.984l-3.956-6.467-3.023-.39s-1.3-.138-.815-1.185l4.176-3.328s1.916-1.369,2.021.683l-.531,3.42,3.432,6.25.2,1.785Z" transform="translate(-582.641 -8813.78)" fill="#999"/>
      <path id="Trazado_106011" data-name="Trazado 106011" d="M668.212,9108.617l3.989-6.447-1.014-2.874s-.464-1.219.689-1.262l4.853,2.227s2.086,1.094.3,2.111l-3.292,1.069-4.03,5.88-1.5.983Z" transform="translate(-572.806 -8812.197)" fill="#999"/>
      <path id="Trazado_106012" data-name="Trazado 106012" d="M675.759,8977.211l-2.893-7.008-2.925-.859s-1.259-.338-.619-1.295l4.646-2.633s2.107-1.051,1.888.99L674.8,8969.7l2.409,6.711-.082,1.795Z" transform="translate(-572.501 -8855.419)" fill="#999"/>
      <path id="Trazado_106013" data-name="Trazado 106013" d="M677.509,8978.278,670.8,8981.8l-.589,2.991s-.22,1.283-1.234.734l-3.048-4.384s-1.24-2,.814-1.973l3.378.755,6.459-3.018,1.794-.082Z" transform="translate(-573.668 -8851.617)" fill="#999"/>
      <path id="Trazado_106014" data-name="Trazado 106014" d="M697.854,8956.05l3.538-6.706-1.209-2.8s-.546-1.182.6-1.3l4.994,1.889s2.156.947.445,2.086l-3.211,1.29-3.618,6.144-1.433,1.085Z" transform="translate(-563.162 -8861.892)" fill="#999"/>
      <path id="Trazado_106015" data-name="Trazado 106015" d="M718.051,8964.813l3.538-6.707-1.21-2.8s-.545-1.184.6-1.306l4.995,1.89s2.155.948.445,2.087l-3.212,1.29-3.617,6.144-1.433,1.084Z" transform="translate(-556.593 -8859.044)" fill="#999"/>
      <path id="Trazado_106016" data-name="Trazado 106016" d="M705.663,8982.588l-2.077-7.291-2.808-1.188s-1.211-.478-.466-1.357l4.915-2.086s2.213-.8,1.764,1.2l-1.43,3.153,1.63,6.94-.286,1.772Z" transform="translate(-562.442 -8853.676)" fill="#999"/>
      <path id="Trazado_106017" data-name="Trazado 106017" d="M714.377,9033.17l5.366-5.356-.326-3.031s-.171-1.292.961-1.068l4.21,3.282s1.779,1.544-.192,2.126l-3.45.281-5.274,4.8-1.69.61Z" transform="translate(-557.917 -8836.378)" fill="#999"/>
      <path id="Trazado_106018" data-name="Trazado 106018" d="M699.454,9105.444l3.36-6.8-1.283-2.763s-.576-1.169.566-1.32l5.043,1.755s2.18.889.5,2.073l-3.177,1.376L701.011,9106l-1.4,1.123Z" transform="translate(-562.642 -8813.328)" fill="#999"/>
      <ellipse id="Elipse_4298" data-name="Elipse 4298" cx="2.55" cy="4.669" rx="2.55" ry="4.669" transform="translate(160.499 141.395)" fill="#999"/>
      <path id="Trazado_106019" data-name="Trazado 106019" d="M720.028,9031.444c-.1,0-.2,0-.306-.006-8.19-.343-14.04-14.21-13.317-31.572s7.72-30.639,15.891-30.361c8.189.342,14.038,14.21,13.317,31.573C734.9,9018.225,728.086,9031.444,720.028,9031.444Zm1.961-60.618c-7.22,0-13.589,12.936-14.26,29.094h0c-.68,16.345,4.725,29.89,12.046,30.193.085,0,.168,0,.252,0,7.22,0,13.59-12.937,14.26-29.094.68-16.345-4.725-29.89-12.046-30.194C722.157,8970.827,722.073,8970.826,721.99,8970.826Z" transform="translate(-560.401 -8854.001)" fill="#999"/>
      <g id="Grupo_55292" data-name="Grupo 55292" transform="translate(80.168 55.813)" opacity="0.36">
        <path id="Trazado_106020" data-name="Trazado 106020" d="M699.082,8958.72l2.651-6.884-7.26-5.909L688,8951.836l4.287-9.6-7.375-8.181-6.8,7.721.691-7.721-5.779-6.108-5.745,8.18,2.42-5.3-7.6-5.869-4.886,10.283,9.834,1.363,5.975,3.095,6.451,3.571,7.049,7.261,7.951,6.455Z" transform="translate(-656.549 -8924.301)" fill="#999"/>
        <path id="Trazado_106021" data-name="Trazado 106021" d="M699.245,8959.544a.627.627,0,0,1-.232-.042l-4.611-1.728a.692.692,0,0,1-.185-.106l-6.184-5.019a.653.653,0,0,1-.262-.115.66.66,0,0,1-.223-.279l-1.283-1.039-7.037-7.244-6.365-3.524-5.858-3.033-9.722-1.348a.662.662,0,0,1-.508-.941l4.886-10.284a.661.661,0,0,1,.444-.36.675.675,0,0,1,.559.121l7.6,5.869a.648.648,0,0,1,.227.325l2.151-3.062a.664.664,0,0,1,.494-.28.645.645,0,0,1,.53.205l5.778,6.108a.659.659,0,0,1,.179.514l-.512,5.706,5.463-6.2a.66.66,0,0,1,.493-.226h0a.66.66,0,0,1,.492.219l7.375,8.183a.663.663,0,0,1,.113.714l-2.99,6.693,4.128-3.765a.664.664,0,0,1,.864-.025l7.261,5.906a.666.666,0,0,1,.2.753l-2.651,6.885A.663.663,0,0,1,699.245,8959.544Zm-4.275-2.972,3.894,1.459,2.242-5.822-6.446-5.243-5.428,4.953Zm-16.1-14.312,1.083.6a.721.721,0,0,1,.154.117l7.049,7.26.779.631,3.728-8.343-6.589-7.309Zm-10.765-5.769,5.38,2.786,4.151,2.3.636-7.119-5.015-5.3Zm-9.747-1.615,8.462,1.175.013-.034,2.2-4.819-6.531-5.045Z" transform="translate(-656.712 -8924.464)" fill="#4d4d4d"/>
      </g>
      <g id="Grupo_55293" data-name="Grupo 55293" transform="translate(75.613 65.453)">
        <line id="Línea_201" data-name="Línea 201" x2="4.467" y2="0.829" transform="translate(0.662 0.665)" fill="#fff"/>
        <path id="Trazado_106022" data-name="Trazado 106022" d="M658.4,8933.895a.75.75,0,0,1-.122-.012l-4.466-.828a.662.662,0,0,1,.241-1.3l4.466.828a.662.662,0,0,1-.119,1.313Z" transform="translate(-653.274 -8931.738)" fill="#999"/>
      </g>
      <path id="Trazado_106023" data-name="Trazado 106023" d="M701.661,8930.348c-5.106-8.883-12.264-11.668-12.334-11.7-17.166-6.955-27.447-3.488-27.549-3.453l-.444-1.248c.436-.156,10.81-3.689,28.474,3.467.3.111,7.645,2.951,13,12.27Z" transform="translate(-575.04 -8872.396)" fill="#999"/>
      <g id="Grupo_55294" data-name="Grupo 55294" transform="translate(52.159 66.287)" opacity="0.36">
        <path id="Trazado_106024" data-name="Trazado 106024" d="M639.348,9050.61l10.044,104.1,2.229,30.818s45.635,9.94,89.2-.907v-19.432s.474-10.939,3.089-17.6,9.432-25.259,9.432-25.259,5.974-14.85,5.628-31.141l2.189-2.735,14.208-11.9s13.785-10.549,14.684-17.771-9.9-23.165-9.9-23.165l-10.178-24.133-10.019-23.081s-2.708-9.763-7.129-11.718-16.976-7.2-16.976-7.2l-25.107-11.413-10.006-4.151-11.2-9.932-4-3.729-7.921-4.306-6.466-2.4-7.519-.7-12.938,28.67-9.358,22.45L639,8992.3l-1.332,6.142-1.186,8.158-.4,6.683.452,9.353,1.178,12.859,1.124,10.371Z" transform="translate(-635.415 -8932.205)" fill="#999"/>
        <path id="Trazado_106025" data-name="Trazado 106025" d="M696.281,9190.485a235.37,235.37,0,0,1-44.638-4.144.666.666,0,0,1-.521-.6l-2.228-30.817L638.853,9050.84l-1.643-15.114-1.18-12.869-.453-9.381.4-6.757,1.191-8.214,1.341-6.187,2.35-8.35,9.383-22.523,12.948-28.69a.711.711,0,0,1,.665-.387l7.519.694a.676.676,0,0,1,.168.041l6.466,2.4,8.006,4.344a.6.6,0,0,1,.137.1l4,3.731,11.1,9.845,9.9,4.109,25.128,11.422c.107.044,12.592,5.268,16.97,7.2,4.654,2.057,7.386,11.735,7.5,12.146l9.988,22.993,10.181,24.14c.384.545,10.864,16.122,9.946,23.506-.922,7.411-14.367,17.776-14.94,18.215l-14.183,11.881-1.949,2.454c.282,16.147-5.62,31.014-5.68,31.162-.061.167-6.842,18.665-9.429,25.254-2.544,6.479-3.04,17.277-3.044,17.387v19.4a.666.666,0,0,1-.5.645A187.736,187.736,0,0,1,696.281,9190.485Zm-43.872-5.338c4.995,1,47.53,9.023,87.907-.879v-18.912c.021-.481.509-11.155,3.134-17.841,2.583-6.576,9.36-25.061,9.428-25.245.066-.167,5.927-14.938,5.587-30.9a.664.664,0,0,1,.146-.429l2.189-2.737,14.3-11.993c.159-.121,13.6-10.48,14.452-17.343.857-6.894-9.684-22.556-9.79-22.715l-10.24-24.246-10.015-23.074c-.057-.181-2.7-9.569-6.791-11.375-4.363-1.925-16.839-7.145-16.963-7.2l-25.125-11.421-9.984-4.144a.67.67,0,0,1-.187-.117l-11.2-9.93-3.947-3.685-7.846-4.265-6.3-2.327-6.963-.646-12.744,28.243-9.35,22.431-2.315,8.238-1.323,6.1-1.177,8.113-.4,6.627.452,9.28,1.177,12.831,1.642,15.106v.009l10.044,104.1Z" transform="translate(-635.577 -8932.367)" fill="#4d4d4d"/>
      </g>
    </g>
    <g id="Grupo_55306" data-name="Grupo 55306" transform="translate(864.769 8923.686)">
      <g id="Grupo_55296" data-name="Grupo 55296" transform="translate(0 20.808)">
        <ellipse id="Elipse_4299" data-name="Elipse 4299" cx="133.619" cy="116.218" rx="133.619" ry="116.218" transform="translate(0.663 0.661)" fill="#fff"/>
        <path id="Trazado_106026" data-name="Trazado 106026" d="M926.314,9158.158c-74.043,0-134.282-52.432-134.282-116.881S852.271,8924.4,926.314,8924.4,1060.6,8976.83,1060.6,9041.277,1000.357,9158.158,926.314,9158.158Zm0-232.435c-73.313,0-132.957,51.836-132.957,115.554S853,9156.833,926.314,9156.833s132.957-51.838,132.957-115.556S999.627,8925.724,926.314,8925.724Z" transform="translate(-792.032 -8924.398)" fill="#999"/>
      </g>
      <g id="Grupo_55299" data-name="Grupo 55299" transform="translate(0.663 21.469)">
        <g id="Grupo_55298" data-name="Grupo 55298" clip-path="url(#clip-path)">
          <g id="Grupo_55297" data-name="Grupo 55297" transform="translate(29.068 60.278)" opacity="0.59">
            <path id="Trazado_106027" data-name="Trazado 106027" d="M816.349,9137.57c0-2.061-1.382-131.5-1.382-131.5s48.573.861,64.476-10.812,22.471-24.377,22.471-24.377l71.391,22.145H991.8l14.44,8.412,58.161,18.883v134.586Z" transform="translate(-814.303 -8970.219)" fill="#999"/>
            <path id="Trazado_106028" data-name="Trazado 106028" d="M1064.564,9155.734h-.046l-248.052-17.339a.664.664,0,0,1-.616-.661c0-2.033-1.369-130.2-1.384-131.492a.664.664,0,0,1,.2-.478.712.712,0,0,1,.478-.192c.48.016,48.531.725,64.073-10.685,15.579-11.435,22.211-24.021,22.275-24.145a.653.653,0,0,1,.786-.329l71.294,22.114h18.394a.66.66,0,0,1,.334.092l14.379,8.374,58.092,18.86a.664.664,0,0,1,.459.632v134.586a.662.662,0,0,1-.663.663Zm-247.393-18.619,246.73,17.244V9020.966l-57.7-18.735a.54.54,0,0,1-.128-.058l-14.286-8.32H973.468a.75.75,0,0,1-.2-.028L902.4,8971.84c-1.4,2.458-8.3,13.767-22.4,24.115-15.06,11.054-58.025,11.022-64.2,10.951C815.9,9016.691,817.089,9127.646,817.171,9137.115Z" transform="translate(-814.466 -8970.381)" fill="#4d4d4d"/>
          </g>
          <rect id="Rectángulo_9541" data-name="Rectángulo 9541" width="180.965" height="1.326" transform="matrix(0.115, -0.993, 0.993, 0.115, 166.275, 248.95)" fill="#666"/>
          <rect id="Rectángulo_9542" data-name="Rectángulo 9542" width="1.326" height="24.024" transform="translate(158.813 216.497) rotate(-81.168)" fill="#666"/>
          <rect id="Rectángulo_9543" data-name="Rectángulo 9543" width="147.836" height="1.324" transform="translate(170.174 217.435) rotate(-67.595)" fill="#666"/>
        </g>
      </g>
      <g id="Grupo_55300" data-name="Grupo 55300" transform="translate(193.864 91.613)">
        <path id="Trazado_106029" data-name="Trazado 106029" d="M953.088,8978.12c-.453,2.463.7,3.031,1.792,3.235a16.955,16.955,0,0,0,2.672.205,17.106,17.106,0,0,1,2.64.2c2.871.532,3.7,2.87,3.153,5.819l-.13.693-1.716-.316.11-.589c.347-2.054-.485-2.961-2.171-3.273a17.1,17.1,0,0,0-2.261-.166,13.164,13.164,0,0,1-2.421-.16,3.1,3.1,0,0,1-2.908-3.119l-.064-.01a3.115,3.115,0,0,1-3.862,1.867,13.65,13.65,0,0,1-2.35-.72,16.538,16.538,0,0,0-2.2-.659c-1.745-.323-2.836.336-3.224,2.273l-.109.589-1.719-.316.135-.729c.526-2.844,2.052-4.822,5.2-4.238a13.152,13.152,0,0,1,2.5.783,21.749,21.749,0,0,0,2.482.71c1,.185,2.405.085,2.859-2.376Z" transform="translate(-938.317 -8977.825)" fill="#666"/>
      </g>
      <g id="Grupo_55301" data-name="Grupo 55301" transform="translate(160.702 114.103)">
        <path id="Trazado_106030" data-name="Trazado 106030" d="M913.766,9048.252c3.336.214,4.167-5.427,4.491-10.513.26-4.073.333-8.155.4-12.238s.144-8.165.394-12.09c.855-13.376,4.082-18.86,8.073-18.606l.94.06-.512,8-.8-.051c-2.78-.03-4.054,4.411-4.556,12.262-.212,3.345-.246,6.846-.329,10.345-.045,3.646-.078,7.146-.33,11.071-.547,9.309-2.207,13.873-4.384,15.485l-.019.292c1.964,1.73,3.01,6.76,2.37,16.063-.25,3.925-.672,7.548-1.089,11.17-.366,3.48-.776,6.956-1,10.445-.521,8.144.329,12.575,2.949,12.891l.8.051-.512,7.994-.986-.062c-3.851-.245-6.475-5.668-5.538-20.352.252-3.925.7-7.985,1.185-11.895.4-4.062.84-7.976,1.08-11.757.3-4.652.228-10.933-3.1-11.145Z" transform="translate(-913.294 -8994.796)" fill="#666"/>
      </g>
      <g id="Grupo_55303" data-name="Grupo 55303" transform="translate(203.876 21.469)">
        <rect id="Rectángulo_9544" data-name="Rectángulo 9544" width="1.325" height="56.161" transform="translate(4.246)" fill="#666"/>
        <g id="Grupo_55302" data-name="Grupo 55302" transform="translate(0 52.439)">
          <path id="Trazado_106031" data-name="Trazado 106031" d="M945.872,8964.466l4.907,2.086,4.908-2.086L950.78,8976.1Z" transform="translate(-945.872 -8964.466)" fill="#666"/>
        </g>
      </g>
      <g id="Grupo_55304" data-name="Grupo 55304" transform="translate(199.773)">
        <path id="Trazado_106032" data-name="Trazado 106032" d="M945.439,8911.9H945.4l-2.185,1.132-.441-2.188,3.051-1.535h2.2v12.474h-2.592Z" transform="translate(-942.776 -8908.498)" fill="#666"/>
        <path id="Trazado_106033" data-name="Trazado 106033" d="M949.24,8922.71l3.774-13.912h1.78l-3.773,13.912Z" transform="translate(-940.674 -8908.665)" fill="#666"/>
        <path id="Trazado_106034" data-name="Trazado 106034" d="M954,8921.83v-1.766l1.463-1.438c2.521-2.455,3.737-3.858,3.756-5.316a1.682,1.682,0,0,0-1.869-1.823,4.071,4.071,0,0,0-2.452,1.018l-.758-2.071a5.942,5.942,0,0,1,3.737-1.287,3.691,3.691,0,0,1,4.022,3.914c0,2.093-1.377,3.762-3.051,5.374l-1.059.959v.039h4.338v2.4Z" transform="translate(-939.125 -8908.551)" fill="#666"/>
        <path id="Trazado_106035" data-name="Trazado 106035" d="M964.869,8908.7a26,26,0,0,1-2.115,5.182l-1.624.173a31.435,31.435,0,0,0,1.235-5.183Zm3.456,0a27.078,27.078,0,0,1-2.115,5.182l-1.624.173a33.415,33.415,0,0,0,1.235-5.183Z" transform="translate(-936.806 -8908.697)" fill="#666"/>
      </g>
      <g id="Grupo_55305" data-name="Grupo 55305" transform="translate(141.614 163.761)">
        <path id="Trazado_106036" data-name="Trazado 106036" d="M899.437,9042.542a5.712,5.712,0,0,0,2.662.768c1.394,0,2.1-.729,2.1-1.649,0-1.247-1.128-1.8-2.291-1.8h-1.095v-2.091h1.042c.9,0,2.027-.384,2.027-1.439,0-.75-.547-1.306-1.694-1.306a4.791,4.791,0,0,0-2.38.747l-.546-2.111a6.693,6.693,0,0,1,3.544-.939c2.433,0,3.792,1.4,3.792,3.109a2.941,2.941,0,0,1-2.1,2.9v.038a3.026,3.026,0,0,1,2.486,3.051c0,2.19-1.782,3.8-4.692,3.8a6.541,6.541,0,0,1-3.4-.863Z" transform="translate(-898.891 -9032.12)" fill="#666"/>
        <path id="Trazado_106037" data-name="Trazado 106037" d="M909.826,9032.267a25.92,25.92,0,0,1-2.118,5.183l-1.621.172a31.533,31.533,0,0,0,1.234-5.181Zm3.455,0a26.969,26.969,0,0,1-2.115,5.183l-1.622.172a33.669,33.669,0,0,0,1.234-5.181Z" transform="translate(-896.551 -9032.267)" fill="#666"/>
      </g>
    </g>
  </g>
</svg>
