<svg xmlns="http://www.w3.org/2000/svg" width="298.733" height="479.149" viewBox="0 0 298.733 479.149">
  <g id="Grupo_55319" data-name="Grupo 55319" transform="translate(-487.159 -9180.857)">
    <g id="Grupo_55308" data-name="Grupo 55308" transform="translate(487.159 9180.857)">
      <rect id="Rectángulo_9546" data-name="Rectángulo 9546" width="298.733" height="479.15" rx="15.73" fill="#fff"/>
    </g>
    <g id="Grupo_55318" data-name="Grupo 55318" transform="translate(538.857 9200.486)">
      <g id="Grupo_55309" data-name="Grupo 55309" transform="translate(94.927)">
        <path id="Trazado_106038" data-name="Trazado 106038" d="M620.176,9209.233c0-7-4.24-12.671-9.472-12.671s-9.472,5.675-9.472,12.671c0,5.473,2.6,10.122,6.232,11.894v12.116h7.156v-12.482C617.9,9218.767,620.176,9214.361,620.176,9209.233Z" transform="translate(-600.586 -9195.917)" fill="#fff"/>
        <path id="Trazado_106039" data-name="Trazado 106039" d="M615.411,9234.034h-8.448v-12.37c-3.743-2.048-6.23-6.919-6.23-12.285,0-7.342,4.539-13.317,10.118-13.317s10.118,5.976,10.118,13.317c0,5.019-2.17,9.634-5.557,11.885Zm-7.157-1.291h5.866v-12.2l.31-.188c3.187-1.941,5.247-6.25,5.247-10.979,0-6.63-3.96-12.025-8.827-12.025s-8.827,5.4-8.827,12.025c0,5.055,2.359,9.6,5.869,11.313l.361.177Z" transform="translate(-600.732 -9196.062)" fill="#999"/>
      </g>
      <g id="Grupo_55310" data-name="Grupo 55310" transform="translate(93.673 15.297)">
        <rect id="Rectángulo_9547" data-name="Rectángulo 9547" width="22.214" height="3.705" rx="1.435" transform="translate(0.646 0.646)" fill="#fff"/>
        <path id="Trazado_106040" data-name="Trazado 106040" d="M620.768,9212.906H602.259a2.5,2.5,0,1,1,0-5h18.509a2.5,2.5,0,0,1,0,5Zm-18.509-3.7a1.206,1.206,0,1,0,0,2.412h18.509a1.206,1.206,0,0,0,0-2.412Z" transform="translate(-599.761 -9207.91)" fill="#999"/>
      </g>
      <g id="Grupo_55311" data-name="Grupo 55311" transform="translate(93.673 8.224)">
        <rect id="Rectángulo_9548" data-name="Rectángulo 9548" width="22.214" height="3.705" rx="1.435" transform="translate(0.646 0.646)" fill="#fff"/>
        <path id="Trazado_106041" data-name="Trazado 106041" d="M620.768,9207.429H602.259a2.5,2.5,0,0,1,0-5h18.509a2.5,2.5,0,0,1,0,5Zm-18.509-3.705a1.207,1.207,0,1,0,0,2.414h18.509a1.207,1.207,0,0,0,0-2.414Z" transform="translate(-599.761 -9202.432)" fill="#999"/>
      </g>
      <g id="Grupo_55312" data-name="Grupo 55312" transform="translate(0 32.318)">
        <path id="Trazado_106042" data-name="Trazado 106042" d="M724.16,9363.555l-5.95-10.776-10.665-25.709s-6.623-14.368-9.766-22.677-8.2-9.093-8.2-9.093l-9.093-3.592-34.577-15.717c-.786-3.032-.112-10.778-.112-10.778,1.123-7.633,6.737-20.99,6.737-20.99,1.8-4.829.56-7.859.56-7.859-12.349-16.727-30.872-14.707-34.239-14.707s-5.613,4.155-5.613,4.155l-13.584,30.534L548.24,9298.78s-11.671,8.869-17.17,15.94-2.582,19.421-2.582,19.421l15.716,50.632,27.393,79.593-1.235,8.981a127.365,127.365,0,0,0-7.632,14.921c-4.356,10.111-8.729,22.987-11.872,29.217-9.43,18.69-7.192,39.4-7.192,39.4v56.579c69.6,13.135,139.745,0,139.745,0s.478-69.715,0-78.472c-.391-7.138-2.959-29.937-3.9-38.122l-.062-6.943-.139-10.014c-.336-13.034,11.675-37.386,11.675-37.386,7.578-16,7.241-34.437,7.241-34.437l2.133-2.666s12.573-10.327,19.085-16.166,9.093-10.216,9.317-14.705S724.16,9363.555,724.16,9363.555Z" transform="translate(-527.055 -9220.956)" fill="#fff"/>
        <path id="Trazado_106043" data-name="Trazado 106043" d="M610.771,9620.054a365.534,365.534,0,0,1-67.08-5.812l-.525-.1V9557.03c-.019-.141-2.146-21.05,7.262-39.7,1.745-3.455,3.9-9.06,6.188-14.992,1.841-4.781,3.744-9.723,5.667-14.187a130.884,130.884,0,0,1,7.6-14.887l1.2-8.7-27.342-79.445-15.722-50.65c-.134-.559-2.937-12.774,2.689-20.007,5.489-7.06,16.81-15.7,17.289-16.061l51.284-42.321,13.522-30.4c.12-.229,2.493-4.539,6.2-4.539.249,0,.58-.012.988-.025,14.7-.476,26.062,4.549,33.772,15l.079.139c.054.133,1.308,3.321-.554,8.326-.066.157-5.6,13.4-6.7,20.862,0,.036-.609,7.15.03,10.227l34.288,15.586,9,3.557c.706.14,5.557,1.393,8.62,9.488,3.1,8.189,9.683,22.491,9.748,22.634l10.675,25.732,5.9,10.676c.429.584,4.929,6.84,4.7,11.383-.241,4.848-3.092,9.381-9.532,15.152-6.233,5.591-18.158,15.405-19.054,16.144l-1.947,2.433c0,2.219-.212,19.517-7.3,34.489-.124.253-11.942,24.367-11.613,37.094l.2,16.964c1.039,9.055,3.508,31.031,3.894,38.1.474,8.675.006,77.812,0,78.51l0,.533-.523.1A444.954,444.954,0,0,1,610.771,9620.054Zm-66.314-6.98c65.369,12.211,131.9,1.146,138.457,0,.043-6.514.447-69.663,0-77.894-.394-7.228-3.079-30.979-3.892-38.088l-.205-17.019c-.336-13.036,11.249-36.681,11.742-37.682,7.422-15.669,7.178-33.955,7.174-34.14l0-.23,2.373-2.947c.125-.1,12.638-10.385,19.062-16.146,6.159-5.521,8.881-9.785,9.106-14.259.209-4.205-4.431-10.521-4.477-10.584l-.047-.073-5.949-10.776-10.7-25.773c-.057-.121-6.659-14.462-9.774-22.694-2.953-7.8-7.647-8.677-7.694-8.686l-.133-.037-9.094-3.592-34.887-15.856-.077-.3c-.8-3.1-.157-10.673-.13-10.993,1.126-7.667,6.552-20.64,6.783-21.188,1.525-4.1.735-6.843.581-7.3-11.215-15.119-27.323-14.581-32.634-14.395-.425.014-.772.025-1.03.025-2.937,0-5.023,3.779-5.045,3.817l-13.623,30.628-.117.1L548.8,9299.42c-.136.1-11.687,8.915-17.072,15.839-5.244,6.743-2.492,18.756-2.463,18.876l15.705,50.588,27.437,79.72-1.346,9.386a127.469,127.469,0,0,0-7.59,14.836c-1.913,4.441-3.811,9.372-5.648,14.141-2.3,5.964-4.466,11.6-6.24,15.112-9.232,18.3-7.15,38.838-7.128,39.044Z" transform="translate(-527.203 -9221.095)" fill="#999"/>
      </g>
      <path id="Trazado_106044" data-name="Trazado 106044" d="M546.767,9598.352c-.006-.381-.661-38.453.449-61.114,1.115-22.74,4.644-32.352,4.793-32.75l12.951-30.392,7.6-14.923V9451.9l-23.323-78.493L538,9325.548c-.089-.855-1.775-19.008,2.736-28.82,4.472-9.727,13.576-21.125,13.668-21.238l1.006.807c-.089.114-9.1,11.39-13.5,20.972-4.365,9.494-2.654,27.885-2.638,28.069l11.212,47.738,23.367,78.638v7.771l-7.719,15.158-12.922,30.326c-.025.069-3.6,9.834-4.7,32.334-1.108,22.617-.453,60.646-.447,61.027Z" transform="translate(-524.172 -9172.947)" fill="#999"/>
      <path id="Trazado_106045" data-name="Trazado 106045" d="M560.952,9617.245h-1.291v-57.092c.048-.37,4.149-28.019,10.581-48.91,6.285-20.409,9.531-30.229,9.562-30.324a72.413,72.413,0,0,0,1.973-7.9c1.748-18.221-.866-30.707-2.967-40.739-.48-2.293-.933-4.457-1.319-6.587-3.971-21.936-7.329-68.209-8.765-87.969-1.509-20.8,8.374-43.524,8.473-43.754l12.971-28.462,20.885-43.963,1.166.556-20.881,43.95L578.378,9294.5c-.1.217-9.849,22.655-8.363,43.13,1.433,19.74,4.787,65.966,8.748,87.834.382,2.109.833,4.268,1.31,6.551,2.119,10.117,4.756,22.711,2.99,41.128a70.925,70.925,0,0,1-2.028,8.167c-.036.113-3.279,9.923-9.56,30.315-6.4,20.8-10.489,48.35-10.529,48.624Z" transform="translate(-517.758 -9188.646)" fill="#999"/>
      <path id="Trazado_106046" data-name="Trazado 106046" d="M588.778,9605.624h-1.291v-64.518c.056-1.537,1.414-37.272,6.777-51.829l4.246-16.81a46.481,46.481,0,0,0,.851-5.4l0-107.181c2.339-39.45,13.257-62.362,13.367-62.586,9.765-26.442,25.6-28.733,26.266-28.819l.163,1.282c-.158.021-15.745,2.338-25.242,28.04-.134.284-10.941,22.987-13.264,62.119v107.206a45.791,45.791,0,0,1-.888,5.658l-4.267,16.874c-5.31,14.427-6.7,51.1-6.716,51.473Z" transform="translate(-509.66 -9174.987)" fill="#999"/>
      <path id="Trazado_106047" data-name="Trazado 106047" d="M637.573,9584.689l-1.291-.054c1.878-45.482-5.216-113.334-5.287-114.014l-4.052-19.663.017-4.861L653.9,9329.332l1.259.29-26.927,116.693v4.577l4.034,19.53C632.351,9471.167,639.454,9539.111,637.573,9584.689Z" transform="translate(-498.178 -9157.28)" fill="#999"/>
      <path id="Trazado_106048" data-name="Trazado 106048" d="M636.5,9584.674l-.968-.04.022-.557.968.041Zm.114-3.141-.968-.03q.042-1.28.074-2.579l.968.021Q636.653,9580.25,636.612,9581.533Zm.128-5.173-.968-.017c.017-.855.028-1.716.04-2.58l.968.012C636.768,9574.643,636.757,9575.5,636.74,9576.36Zm.066-5.172-.968,0,.01-2.581.968,0Zm-.961-5.165-.014-2.581.968-.008.014,2.586Zm-.04-5.16-.037-2.582.968-.015.037,2.583Zm-.085-5.163-.057-2.582.968-.022.057,2.584Zm-.123-5.17-.076-2.586.968-.03.076,2.588Zm-.161-5.17-.092-2.579.968-.036.092,2.582Zm-.192-5.155-.107-2.575.968-.039.107,2.575Zm-.221-5.152-.123-2.578.968-.048.123,2.582Zm-.252-5.157-.134-2.581.966-.051.137,2.581Zm-.276-5.159-.147-2.577.966-.058.147,2.582Zm-.3-5.156-.16-2.578.966-.061.16,2.58Zm-.327-5.156-.169-2.577.966-.065.169,2.58Zm-.345-5.155-.183-2.576.966-.068.183,2.577Zm-.369-5.153-.192-2.576.966-.073.192,2.579Zm-.389-5.15-.2-2.576.966-.076.2,2.577Zm-.409-5.152-.214-2.575.967-.081.213,2.577Zm-.429-5.148-.223-2.575.966-.085.223,2.576Zm-.451-5.151-.234-2.576.963-.087.234,2.576Zm-.472-5.148-.245-2.576.963-.092.245,2.577Zm-.5-5.152-.25-2.474.47-.158.482-.049-.482.049.493.059.25,2.478Zm-.775-5.063-.522-2.527.948-.2.523,2.528Zm-1.043-5.057-.523-2.529.949-.2.522,2.528Zm-1.046-5.057-.522-2.529.948-.2.522,2.529Zm-1.043-5.058-.4-1.931-.01-.709h.968v.612l.389,1.83Zm.559-5.222h-.968v-1.521l.25-1.143.944.217-.239,1.034Zm.807-4.962-.942-.218.58-2.516.943.216Zm1.162-5.033-.944-.217.58-2.516.944.217Zm1.159-5.032-.943-.217.581-2.516.943.217Zm1.161-5.031-.942-.217.581-2.515.944.217Zm1.162-5.031-.944-.218.582-2.518.942.217Zm1.161-5.032-.943-.216.581-2.518.943.217Zm1.162-5.031-.944-.217.581-2.518.944.218Zm1.161-5.032-.943-.217.58-2.516.942.217Zm1.161-5.033-.942-.217.58-2.515.944.217Zm1.162-5.032-.944-.218.581-2.514.942.217Zm1.161-5.03-.943-.217.58-2.516.944.217Zm1.162-5.033-.944-.216.58-2.517.944.218Zm1.159-5.03-.942-.217.581-2.517.942.217Zm1.162-5.032-.944-.217.581-2.518.944.219Zm1.161-5.031-.944-.217.582-2.517.942.217Zm1.161-5.031-.942-.217.581-2.519.944.217Zm1.162-5.033-.944-.217.582-2.515.943.217Zm1.161-5.032-.942-.217.58-2.515.942.216Zm1.162-5.031-.944-.217.58-2.516.944.217Zm1.161-5.031-.943-.217.58-2.517.942.216Zm1.161-5.032-.942-.218.58-2.516.944.218Zm1.162-5.031-.944-.217.581-2.517.942.217Zm1.161-5.033-.942-.217.58-2.515.942.216Z" transform="translate(-498.397 -9157.271)" fill="#999"/>
      <path id="Trazado_106049" data-name="Trazado 106049" d="M638.193,9584.674l-.968-.04.022-.558.968.04Zm.115-3.141-.968-.03q.041-1.28.072-2.579l.968.021Q638.349,9580.25,638.308,9581.533Zm.127-5.174-.968-.018q.025-1.283.041-2.58l.968.013Q638.458,9575.074,638.434,9576.359Zm.066-5.171-.968,0,.01-2.581.968,0Zm-.961-5.165-.014-2.581.968-.008.014,2.586Zm-.039-5.161-.039-2.582.968-.016.039,2.584Zm-.087-5.162-.057-2.582.968-.022.057,2.584Zm-.121-5.17-.077-2.586.968-.03.077,2.588Zm-.161-5.171-.093-2.579.968-.037.093,2.583Zm-.194-5.154-.107-2.575.968-.039.107,2.575Zm-.222-5.153-.121-2.578.968-.048.121,2.581Zm-.25-5.156-.134-2.581.966-.051.136,2.581Zm-.276-5.16-.147-2.577.966-.059.147,2.583Zm-.3-5.156-.16-2.579.966-.061.16,2.58Zm-.327-5.155-.17-2.577.966-.065.17,2.58Zm-.346-5.155-.182-2.576.966-.068.182,2.577Zm-.369-5.152-.191-2.576.966-.072.191,2.578Zm-.389-5.152-.2-2.577.966-.075.2,2.577Zm-.408-5.152-.213-2.575.966-.081.213,2.577Zm-.43-5.149-.223-2.574.966-.086.223,2.577Zm-.451-5.149-.232-2.576.963-.087.232,2.576Zm-.473-5.149-.244-2.576.963-.094.244,2.579Zm-.5-5.151-.256-2.509.474-.123.482-.05-.482.05.489.023.256,2.513Zm-.775-5.063-.523-2.528.949-.2.522,2.529Zm-1.046-5.057-.521-2.529.948-.2.522,2.528Zm-1.044-5.058-.523-2.528.949-.2.523,2.528Zm-1.044-5.057-.4-1.931-.01-.71h.968v.613l.389,1.83Zm.559-5.223h-.968v-1.521l.252-1.143.943.217-.238,1.034Zm.807-4.962-.942-.218.58-2.515.944.216Zm1.162-5.032-.944-.217.581-2.516.942.217Zm1.161-5.032-.943-.217.58-2.518.944.218Zm1.162-5.031-.944-.217.58-2.517.944.217Zm1.161-5.031-.942-.218.58-2.518.943.217Zm1.161-5.032-.944-.216.581-2.518.944.217Zm1.161-5.031-.943-.217.581-2.518.942.218Zm1.161-5.033-.943-.217.581-2.515.944.217Zm1.162-5.032-.944-.217.582-2.515.942.217Zm1.161-5.032-.943-.218.581-2.514.942.217Zm1.162-5.03-.944-.217.581-2.517.944.216Zm1.161-5.033-.942-.216.581-2.517.942.218Zm1.161-5.03-.943-.217.581-2.517.944.217Zm1.162-5.032-.944-.217.581-2.518.943.219Zm1.161-5.031-.942-.217.58-2.517.944.217Zm1.162-5.033-.944-.216.58-2.518.944.217Zm1.161-5.031-.942-.217.58-2.515.943.217Zm1.162-5.032-.944-.217.58-2.515.944.216Zm1.161-5.031-.944-.217.581-2.517.942.217Zm1.161-5.031-.942-.217.58-2.517.944.216Zm1.162-5.032-.944-.218.581-2.516.942.218Zm1.161-5.031-.942-.217.58-2.517.942.217Zm1.162-5.033-.944-.217.58-2.515.944.216Z" transform="translate(-497.904 -9157.271)" fill="#999"/>
      <path id="Trazado_106050" data-name="Trazado 106050" d="M708.047,9367.907l-6.23-13.3c-6.152-13.131-16.382-31.938-16.485-32.126-.1-.247-6.194-16.289-25.643-23.389-19.667-7.184-89.489-11.929-90.191-11.976l.085-1.289c.7.048,70.71,4.806,90.55,12.051,20.031,7.314,26.312,23.905,26.374,24.071.062.1,10.313,18.942,16.48,32.112l6.23,13.3Z" transform="translate(-514.895 -9169.939)" fill="#999"/>
      <path id="Trazado_106051" data-name="Trazado 106051" d="M586.011,9249.009l-2.848-6.816-2.852-.825s-1.228-.323-.608-1.261l4.515-2.582s2.049-1.033,1.845.958l-1.021,3.215,2.375,6.523-.072,1.749Z" transform="translate(-511.976 -9184.074)" fill="#999"/>
      <path id="Trazado_106052" data-name="Trazado 106052" d="M586.4,9250.865l-7.267-1.32-2.245,1.943s-.94.852-1.388-.176l.291-5.2s.249-2.279,1.807-1.025l2.141,2.607,6.768,1.561,1.428,1.012Z" transform="translate(-513.149 -9181.903)" fill="#999"/>
      <path id="Trazado_106053" data-name="Trazado 106053" d="M569.754,9288.969l-3.2-6.657-2.893-.672s-1.242-.259-.673-1.229l4.371-2.816s1.992-1.141,1.893.859l-.85,3.262,2.716,6.393.019,1.751Z" transform="translate(-516.834 -9172.429)" fill="#999"/>
      <path id="Trazado_106054" data-name="Trazado 106054" d="M570.656,9345.28l-5.927-4.4-2.875.744s-1.22.349-1.166-.772l2.564-4.526s1.234-1.933,2.075-.115l.763,3.282,5.374,4.4.829,1.538Z" transform="translate(-517.459 -9155.504)" fill="#999"/>
      <path id="Trazado_106055" data-name="Trazado 106055" d="M575.736,9423.7l-3.854-6.3-2.945-.382s-1.263-.13-.794-1.151l4.068-3.241s1.867-1.334,1.969.666l-.518,3.33,3.344,6.087.195,1.739Z" transform="translate(-515.319 -9133.168)" fill="#999"/>
      <path id="Trazado_106056" data-name="Trazado 106056" d="M574.923,9423.243l-3.855,6.3-2.945.381s-1.263.131-.793,1.152l4.068,3.243s1.865,1.333,1.969-.668l-.519-3.332,3.344-6.085.195-1.739Z" transform="translate(-515.556 -9130.169)" fill="#999"/>
      <path id="Trazado_106057" data-name="Trazado 106057" d="M599.2,9426.018l3.886-6.282-.989-2.8s-.451-1.187.671-1.229l4.729,2.169s2.031,1.066.293,2.06l-3.208,1.039-3.925,5.729-1.465.958Z" transform="translate(-506.254 -9132.143)" fill="#999"/>
      <path id="Trazado_106058" data-name="Trazado 106058" d="M599.2,9428.469l3.886,6.281-.989,2.8s-.451,1.187.671,1.228l4.729-2.168s2.031-1.066.293-2.06l-3.208-1.039-3.925-5.729-1.465-.959Z" transform="translate(-506.254 -9128.907)" fill="#999"/>
      <path id="Trazado_106059" data-name="Trazado 106059" d="M606.572,9290.615l-2.818-6.828-2.849-.837s-1.225-.328-.6-1.264l4.525-2.562s2.053-1.025,1.841.965l-1.034,3.21,2.347,6.536-.08,1.748Z" transform="translate(-505.982 -9171.968)" fill="#999"/>
      <path id="Trazado_106060" data-name="Trazado 106060" d="M608.184,9291.955l-6.539,3.436-.572,2.914s-.214,1.251-1.2.717l-2.969-4.271s-1.208-1.951.793-1.921l3.291.732,6.292-2.937,1.748-.083Z" transform="translate(-507.025 -9168.566)" fill="#999"/>
      <path id="Trazado_106061" data-name="Trazado 106061" d="M628.839,9269.483l3.447-6.532-1.179-2.725s-.531-1.154.586-1.272l4.866,1.84s2.1.924.434,2.033l-3.129,1.257-3.523,5.985-1.4,1.055Z" transform="translate(-497.626 -9177.759)" fill="#999"/>
      <path id="Trazado_106062" data-name="Trazado 106062" d="M649.035,9278.247l3.447-6.531-1.177-2.727s-.532-1.154.586-1.271l4.865,1.839s2.1.926.434,2.032l-3.128,1.258-3.524,5.985-1.4,1.056Z" transform="translate(-491.749 -9175.21)" fill="#999"/>
      <path id="Trazado_106063" data-name="Trazado 106063" d="M636.5,9295.991l-2.023-7.1-2.734-1.155s-1.18-.467-.454-1.324l4.788-2.032s2.156-.783,1.717,1.169l-1.392,3.071,1.588,6.761-.279,1.729Z" transform="translate(-496.981 -9170.408)" fill="#999"/>
      <path id="Trazado_106064" data-name="Trazado 106064" d="M645.352,9346.64l5.227-5.219-.318-2.953s-.167-1.258.936-1.04l4.1,3.2s1.733,1.5-.187,2.067l-3.362.274-5.137,4.673-1.646.6Z" transform="translate(-492.933 -9154.931)" fill="#999"/>
      <path id="Trazado_106065" data-name="Trazado 106065" d="M630.439,9423.615l3.271-6.621-1.25-2.7s-.562-1.136.552-1.285l4.912,1.712s2.124.865.488,2.02l-3.095,1.34-3.364,6.077-1.367,1.091Z" transform="translate(-497.16 -9132.927)" fill="#999"/>
      <ellipse id="Elipse_4301" data-name="Elipse 4301" cx="2.484" cy="4.548" rx="2.484" ry="4.548" transform="translate(156.354 137.744)" fill="#999"/>
      <path id="Trazado_106066" data-name="Trazado 106066" d="M650.659,9343.558c-.1,0-.2,0-.3,0-3.895-.162-7.381-3.518-9.816-9.445-2.369-5.768-3.49-13.335-3.159-21.312.7-16.915,7.518-29.854,15.481-29.574,3.895.163,7.379,3.517,9.814,9.445,2.368,5.767,3.491,13.337,3.159,21.313C665.147,9330.682,658.508,9343.558,650.659,9343.558Zm1.911-59.051c-7.033,0-13.238,12.6-13.891,28.342-.324,7.795.764,15.17,3.062,20.769,2.232,5.435,5.313,8.506,8.674,8.645.081,0,.163,0,.244,0,7.033,0,13.238-12.6,13.891-28.342.325-7.794-.763-15.169-3.061-20.768-2.233-5.436-5.314-8.507-8.674-8.646C652.733,9284.508,652.651,9284.507,652.57,9284.507Z" transform="translate(-495.155 -9170.7)" fill="#999"/>
      <g id="Grupo_55313" data-name="Grupo 55313" transform="translate(78.097 54.374)" opacity="0.36">
        <path id="Trazado_106067" data-name="Trazado 106067" d="M628.985,9271.563l2.582-6.708-7.072-5.754-6.309,5.754,4.176-9.346-7.185-7.972-6.623,7.521.674-7.521-5.63-5.95-5.6,7.969,2.357-5.162-7.4-5.716L588.2,9248.7l9.58,1.328,5.821,3.016,6.284,3.479,6.867,7.072,7.746,6.286Z" transform="translate(-587.55 -9238.035)" fill="#999"/>
        <path id="Trazado_106068" data-name="Trazado 106068" d="M629.131,9272.354a.618.618,0,0,1-.227-.042l-4.492-1.685a.7.7,0,0,1-.179-.1l-6.026-4.892a.614.614,0,0,1-.253-.11.623.623,0,0,1-.216-.271l-1.251-1.014-6.855-7.057-6.2-3.433-5.706-2.955-9.471-1.315a.643.643,0,0,1-.494-.915l4.759-10.018a.64.64,0,0,1,.432-.351.656.656,0,0,1,.545.117l7.4,5.716a.641.641,0,0,1,.22.316l2.1-2.983a.653.653,0,0,1,.482-.274.673.673,0,0,1,.515.2l5.629,5.952a.64.64,0,0,1,.174.5l-.5,5.556,5.322-6.04c.123-.142.311-.155.484-.219a.64.64,0,0,1,.48.213l7.185,7.97a.646.646,0,0,1,.11.7l-2.913,6.519,4.02-3.667a.647.647,0,0,1,.843-.024l7.072,5.754a.647.647,0,0,1,.2.732l-2.582,6.708A.647.647,0,0,1,629.131,9272.354Zm-4.166-2.9,3.794,1.422,2.183-5.672-6.278-5.107-5.291,4.823Zm-15.679-13.939,1.055.582a.7.7,0,0,1,.15.115l6.867,7.073.759.614,3.632-8.128-6.42-7.118ZM598.8,9249.9l5.24,2.714,4.043,2.239.62-6.935-4.885-5.165Zm-9.5-1.573,8.243,1.144.014-.033,2.144-4.7-6.363-4.915Z" transform="translate(-587.696 -9238.18)" fill="#4d4d4d"/>
      </g>
      <g id="Grupo_55314" data-name="Grupo 55314" transform="translate(73.659 63.766)">
        <line id="Línea_202" data-name="Línea 202" x2="4.352" y2="0.807" transform="translate(0.645 0.644)" fill="#fff"/>
        <path id="Trazado_106069" data-name="Trazado 106069" d="M589.257,9247.553a.6.6,0,0,1-.119-.012l-4.351-.807a.645.645,0,1,1,.234-1.269l4.351.808a.645.645,0,0,1-.115,1.279Z" transform="translate(-584.259 -9245.454)" fill="#999"/>
      </g>
      <path id="Trazado_106070" data-name="Trazado 106070" d="M631.6,9243.612c-4.976-8.654-11.947-11.367-12.017-11.393-16.721-6.776-26.739-3.4-26.837-3.363l-.432-1.216c.423-.151,10.535-3.6,27.739,3.376.288.107,7.448,2.874,12.667,11.952Z" transform="translate(-508.254 -9187.159)" fill="#999"/>
      <path id="Trazado_106071" data-name="Trazado 106071" d="M613.945,9429.815q-1.456,0-2.872-.029l.026-1.29q3.112.062,6.425-.016l.032,1.291Q615.719,9429.815,613.945,9429.815Zm-9.352-.309c-2.172-.147-4.343-.351-6.458-.6l.151-1.28c2.093.247,4.244.445,6.394.592Zm19.437-.031-.086-1.287c2.115-.139,4.269-.326,6.406-.55l.137,1.283C628.334,9429.148,626.161,9429.337,624.031,9429.476Zm12.883-1.354-.182-1.279c2.075-.295,4.211-.64,6.35-1.022l.227,1.272C641.156,9427.476,639,9427.822,636.914,9428.121Zm-45.2-.153c-2.159-.375-4.3-.811-6.359-1.3l.294-1.256c2.037.48,4.153.911,6.287,1.284Zm57.948-2.124-.27-1.265c2.067-.439,4.176-.924,6.272-1.437l.309,1.253C653.866,9424.913,651.742,9425.4,649.664,9425.844Zm-70.582-.859c-2.115-.643-4.183-1.354-6.148-2.113l.465-1.205c1.937.749,3.975,1.448,6.059,2.083Zm-12.12-4.709a40.814,40.814,0,0,1-5.7-3.259l.76-1.043a40.8,40.8,0,0,0,5.511,3.142Z" transform="translate(-517.293 -9132.064)" fill="#999"/>
      <g id="Grupo_55315" data-name="Grupo 55315" transform="translate(45.721 65.253)" opacity="0.36">
        <path id="Trazado_106072" data-name="Trazado 106072" d="M708.771,9347.207l-9.915-23.509-9.76-22.485s-2.638-9.51-6.944-11.412-16.538-7.019-16.538-7.019l-24.458-11.117-9.747-4.045-10.908-9.675-3.892-3.636-7.716-4.193-6.3-2.333-7.324-.68-12.605,27.932-9.116,21.868-2.28,8.1-1.3,5.981-1.155,7.947-.394,6.511.44,9.111,1.148,12.526,1.095,10.1,1.13,4.762s3.513,51.068,7.976,72c5.713,26.791-3.172,49.171-8.265,63.288-4.318,11.97-8.827,30.338-8.827,30.338a21.214,21.214,0,0,1,12.811-1.4,23.294,23.294,0,0,1,6.539,1.975l4.226,2.346,2.245,3.591,6.286,1.8s14.595,3.255,18.411,3.366,4.3-7.184,4.3-7.184l1.05-6.288,5.478-28.551q2.258.015,4.591-.021c1.468,7.472,5.244,26.449,7.031,33.063,2.247,8.309,11.13,3.367,11.13,3.367l20.08-6.511,18.41-7.635-7.184-21.1s-4.266-17.963-6.974-24.845a25.17,25.17,0,0,1-1.409-5.577,85.265,85.265,0,0,1,3.326-11.673c2.547-6.486,9.189-24.605,9.189-24.605s5.819-14.466,5.482-30.336l2.134-2.667,13.84-11.591s13.429-10.276,14.3-17.312S708.771,9347.207,708.771,9347.207Z" transform="translate(-562.473 -9246.461)" fill="#999"/>
        <path id="Trazado_106073" data-name="Trazado 106073" d="M613.871,9540.035c-.036,0-.074,0-.11,0-3.834-.112-17.933-3.249-18.531-3.385l-6.325-1.8a.642.642,0,0,1-.369-.279l-2.157-3.451-4.08-2.266a18.95,18.95,0,0,0-5.427-1.707l-.936-.2a20.619,20.619,0,0,0-12.383,1.349.646.646,0,0,1-.915-.732c.045-.184,4.565-18.54,8.845-30.4l.733-2.021c5.145-14.155,12.917-35.548,7.509-60.913-4.422-20.732-7.954-71.574-7.99-72.086l-1.112-4.659-1.109-10.183-1.149-12.537-.443-9.141.395-6.579,1.161-8,1.305-6.026,2.29-8.135,9.14-21.943,12.612-27.948a.667.667,0,0,1,.648-.377l7.325.679a.566.566,0,0,1,.165.037l6.3,2.334,7.8,4.231a.519.519,0,0,1,.132.1l3.892,3.635,10.815,9.592,9.648,4,24.478,11.126c.1.043,12.266,5.133,16.531,7.017,4.534,2,7.194,11.431,7.3,11.831l9.732,22.4,9.893,23.459c.788,1.168,10.592,15.9,9.714,22.955-.9,7.222-14,17.317-14.552,17.745l-13.819,11.572-1.9,2.394c.276,15.729-5.475,30.211-5.532,30.356-.059.162-6.667,18.183-9.188,24.6a85.179,85.179,0,0,0-3.271,11.461,24.459,24.459,0,0,0,1.353,5.316c2.7,6.847,6.828,24.2,7,24.932l7.169,21.046a.646.646,0,0,1-.365.8l-18.41,7.634-20.128,6.528c-.076.056-4.583,2.522-8.223.989a6.707,6.707,0,0,1-3.728-4.8c-1.739-6.43-5.354-24.522-6.938-32.579-1.192.014-2.373.019-3.528.016l-5.378,28.024-1.046,6.272C618.706,9532.568,618.159,9540.033,613.871,9540.035Zm-24.372-6.363,6.048,1.728c.108.023,14.539,3.234,18.251,3.343h.063c3.048,0,3.574-6.517,3.577-6.582l1.056-6.351,5.48-28.565a.6.6,0,0,1,.638-.525c1.505.011,3.031,0,4.579-.021a.621.621,0,0,1,.642.52c1.523,7.752,5.256,26.485,7.022,33.021a5.5,5.5,0,0,0,2.981,3.948c3.053,1.294,7.17-.951,7.212-.976l20.194-6.561,17.8-7.385-6.991-20.532c-.059-.238-4.3-18.056-6.964-24.815a25.671,25.671,0,0,1-1.447-5.722.635.635,0,0,1,.009-.232,86.811,86.811,0,0,1,3.355-11.769c2.516-6.405,9.118-24.412,9.184-24.592.066-.163,5.775-14.552,5.443-30.1a.65.65,0,0,1,.141-.417l2.133-2.668,13.931-11.684c.155-.118,13.245-10.208,14.078-16.9.834-6.713-9.435-21.973-9.538-22.126a.764.764,0,0,1-.061-.111l-9.914-23.509-9.759-22.478c-.055-.178-2.635-9.324-6.613-11.081-4.253-1.877-16.4-6.962-16.528-7.014L641.034,9272.4l-9.727-4.036a.636.636,0,0,1-.182-.113l-10.908-9.675-3.843-3.589-7.644-4.154-6.135-2.267-6.783-.627L583.4,9275.444,574.29,9297.3l-2.255,8.023-1.287,5.944-1.148,7.9-.39,6.458.441,9.04,1.146,12.5,1.094,10.093,1.115,4.684c.052.616,3.577,51.366,7.98,72.01,5.486,25.729-2.364,47.329-7.557,61.624l-.732,2.018c-3.611,10.008-7.4,24.687-8.495,29.024a21.846,21.846,0,0,1,12.009-.937l.926.2a20.274,20.274,0,0,1,5.788,1.843l4.227,2.347a.626.626,0,0,1,.234.223Z" transform="translate(-562.618 -9246.605)" fill="#4d4d4d"/>
      </g>
      <path id="Trazado_106074" data-name="Trazado 106074" d="M642.344,9472.56l-5.749-21.08.014-7.761c.434-2.024,10.649-49.586,13.168-55.8,2.5-6.17,3.18-7.7,3.208-7.768a265.171,265.171,0,0,0,12.715-23.749c5.112-11.2,2.124-18.947,2.093-19.024l-4.244-21.163,1.267-.252,4.21,21.047c.1.218,3.207,8.192-2.151,19.93a264.983,264.983,0,0,1-12.749,23.811h0c.005,0-.71,1.627-3.153,7.653-2.436,6-12.64,53.432-13.088,55.515v7.471l5.7,20.828Z" transform="translate(-495.369 -9161.17)" fill="#999"/>
      <path id="Trazado_106075" data-name="Trazado 106075" d="M583.982,9489.847l-1.221-.418c.607-1.768,1.233-3.836,1.86-6.15l1.246.338C585.232,9485.959,584.6,9488.056,583.982,9489.847Zm3.461-12.528-1.257-.295c.478-2.052.941-4.168,1.385-6.3l1.264.265C588.389,9473.128,587.924,9475.252,587.444,9477.318Zm2.656-12.684-1.268-.241c.413-2.169.8-4.3,1.163-6.354l1.27.226C590.9,9460.321,590.512,9462.461,590.1,9464.635Zm2.253-12.755-1.273-.211c.394-2.411.736-4.578,1.012-6.386l1.276.2C593.09,9447.289,592.75,9449.461,592.352,9451.88Zm1.911-12.869-1.286-.107.524-6.434,1.286.107Zm1.048-12.868-1.286-.105.524-6.434,1.286.105Zm1.05-12.869-1.286-.105.524-6.434,1.286.105Zm1.048-12.866-1.286-.1.523-6.436,1.286.105Zm1.048-12.867-1.286-.105L597.7,9381l1.286.107Zm1.048-12.866-1.286-.107.524-6.434,1.286.105Z" transform="translate(-511.035 -9145.986)" fill="#999"/>
      <g id="Grupo_55316" data-name="Grupo 55316" transform="translate(155.707 337.633)" opacity="0.36">
        <path id="Trazado_106076" data-name="Trazado 106076" d="M648.415,9469.707s13.173-6.231,12.5-11.62l-12.6,5.226Z" transform="translate(-647.666 -9457.443)" fill="#999"/>
        <path id="Trazado_106077" data-name="Trazado 106077" d="M648.561,9470.5a.665.665,0,0,1-.339-.1.651.651,0,0,1-.306-.54l-.1-6.393a.641.641,0,0,1,.4-.605l12.6-5.228a.661.661,0,0,1,.571.038.652.652,0,0,1,.316.478c.713,5.689-11.472,11.627-12.864,12.284A.648.648,0,0,1,648.561,9470.5Zm.55-6.608.08,4.935c3.663-1.867,10.5-6.05,11.193-9.61Z" transform="translate(-647.812 -9457.589)" fill="#4d4d4d"/>
      </g>
      <g id="Grupo_55317" data-name="Grupo 55317" transform="translate(45.721 344.041)" opacity="0.36">
        <path id="Trazado_106078" data-name="Trazado 106078" d="M577.375,9463.777l-2.02,7.733s-11-2.021-12.236-6.735C563.118,9464.775,568.394,9461.693,577.375,9463.777Z" transform="translate(-562.472 -9462.405)" fill="#999"/>
        <path id="Trazado_106079" data-name="Trazado 106079" d="M575.5,9472.3a.928.928,0,0,1-.115-.009c-.467-.086-11.423-2.152-12.746-7.207a.646.646,0,0,1,.3-.721c.225-.129,5.6-3.186,14.728-1.069a.656.656,0,0,1,.407.295.645.645,0,0,1,.071.5l-2.019,7.73A.644.644,0,0,1,575.5,9472.3Zm-11.437-7.055c1.381,3.044,7.843,5,10.967,5.658l1.7-6.494C569.951,9463,565.469,9464.612,564.063,9465.246Z" transform="translate(-562.618 -9462.551)" fill="#4d4d4d"/>
      </g>
    </g>
  </g>
</svg>
