<svg xmlns="http://www.w3.org/2000/svg" width="296.254" height="489.801" viewBox="0 0 296.254 489.801">
  <g id="Grupo_55287" data-name="Grupo 55287" transform="translate(-1073.724 -8509.858)">
    <g id="Grupo_55274" data-name="Grupo 55274" transform="translate(1073.724 8509.858)">
      <rect id="Rectángulo_9534" data-name="Rectángulo 9534" width="296.254" height="489.801" rx="19.826" fill="#fff"/>
    </g>
    <g id="Grupo_55286" data-name="Grupo 55286" transform="translate(1104.613 8524.761)">
      <g id="Grupo_55275" data-name="Grupo 55275" transform="translate(0 34.034)">
        <path id="Trazado_105936" data-name="Trazado 105936" d="M1287.384,8692.333a74.3,74.3,0,0,0,7.069-32.842l-5.09-37.915-59.947-19.491s-11.594-6.143-11.877-40.318h1.273l1.7-10.68s-7.175-9.146-29.249-8.845v.008c-20.41-.133-27.085,8.837-27.085,8.837l1.6,10.68h1.2c-.267,34.178-11.214,40.318-11.214,40.318l-56.606,19.491-4.805,37.916a77.865,77.865,0,0,0,6.674,32.841c2.137,35.245,25.366,149.792,25.366,149.792l.267,10.145c-19.223,48.061-23.763,113.746-23.763,113.746H1285.4s-4.807-65.686-25.167-113.746l.282-10.145S1285.122,8727.578,1287.384,8692.333Z" transform="translate(-1093.575 -8541.467)" fill="#fff"/>
        <path id="Trazado_105937" data-name="Trazado 105937" d="M1286.5,8967.051H1102.341l.057-.822c.046-.656,4.758-66.217,23.757-113.827l-.263-9.988c-.216-1.013-23.182-114.54-25.355-149.613a79.907,79.907,0,0,1-6.686-33.054l4.873-38.471,57.056-19.647c-.023,0,10.277-6.353,10.69-38.826h-1.087l-1.748-11.649.19-.256c.281-.376,7.042-9.147,27.248-9.147h.18l.264-.006c22.23-.33,29.562,8.753,29.865,9.139l.207.263-1.853,11.657h-1.151c.437,32.477,11.352,38.815,11.464,38.876l60.28,19.587.063.479,5.09,37.914a76.362,76.362,0,0,1-7.073,33.152c-2.3,35.084-26.623,148.6-26.868,149.745l-.263,9.839c20.122,47.613,25.114,113.176,25.162,113.832Zm-182.508-1.534h180.85c-.645-7.747-6.19-68.181-25.042-112.678l-.066-.156.288-10.311c.262-1.286,24.632-115.034,26.864-149.82l.086-.31a74.178,74.178,0,0,0,6.981-32.471l-5.019-37.347-59.487-19.341c-.612-.311-12.125-6.8-12.408-41.044l-.006-.773h1.391l1.537-9.673c-1.3-1.385-8.791-8.323-27.391-8.323h-.276v.012l-.771,0c-17.906-.177-25.04,6.921-26.27,8.3l1.452,9.683h1.314l-.006.773c-.267,34.231-11.145,40.723-11.608,40.984l-56.277,19.391-4.747,37.44a77.715,77.715,0,0,0,6.6,32.4l.08.3c2.109,34.789,25.121,148.542,25.354,149.686l.286,10.436-.06.147C1109.834,8897.333,1104.6,8957.78,1103.991,8965.517Z" transform="translate(-1093.843 -8541.734)" fill="#999"/>
      </g>
      <g id="Grupo_55276" data-name="Grupo 55276" transform="translate(86.185)">
        <path id="Trazado_105938" data-name="Trazado 105938" d="M1173.008,8535.134c0-8.321-5.043-15.068-11.264-15.068s-11.264,6.747-11.264,15.068c0,6.511,3.091,12.036,7.41,14.146v4.829h8.511v-5.266C1170.3,8546.472,1173.008,8541.231,1173.008,8535.134Z" transform="translate(-1149.711 -8519.298)" fill="#fff"/>
        <path id="Trazado_105939" data-name="Trazado 105939" d="M1167.434,8555.145h-10.045v-5.132c-4.451-2.437-7.41-8.231-7.41-14.611,0-8.731,5.4-15.836,12.032-15.836s12.032,7.1,12.032,15.836c0,5.964-2.581,11.454-6.609,14.133Zm-8.51-1.535h6.975v-4.929l.37-.223c3.789-2.31,6.239-7.434,6.239-13.057,0-7.885-4.709-14.3-10.5-14.3s-10.5,6.415-10.5,14.3c0,6.011,2.8,11.417,6.979,13.453l.43.211Z" transform="translate(-1149.979 -8519.565)" fill="#999"/>
      </g>
      <path id="Trazado_105940" data-name="Trazado 105940" d="M1125.134,8943.51c-3.643-37.229,17.733-117.818,18.684-121.382-.192-4.361-5.306-119.683-8.4-146.011-3.682-31.317-19.048-88.23-19.2-88.8l1.48-.4c.157.573,15.552,57.595,19.246,89.024,3.144,26.754,8.364,145.05,8.417,146.241l0,.117-.032.117c-.223.827-22.349,83.34-18.667,120.946Z" transform="translate(-1081.868 -8483.517)" fill="#999"/>
      <path id="Trazado_105941" data-name="Trazado 105941" d="M1202.7,8943.51l-1.529-.149c3.682-37.606-18.443-120.119-18.666-120.946l-.032-.117,0-.117c.052-1.191,5.272-119.487,8.418-146.241,3.692-31.43,19.088-88.451,19.245-89.024l1.482.4c-.155.571-15.522,57.484-19.2,88.8-3.1,26.328-8.209,141.649-8.4,146.011C1184.97,8825.691,1206.345,8906.28,1202.7,8943.51Z" transform="translate(-1046.4 -8483.517)" fill="#999"/>
      <path id="Trazado_105942" data-name="Trazado 105942" d="M1100.782,8661.546l-1.5-.324c1.5-6.938,1.971-15.229,1.584-27.716-.393-12.732-4.627-32.935-4.669-33.137l1.5-.319c.045.2,4.3,20.539,4.7,33.406C1102.793,8646.078,1102.308,8654.479,1100.782,8661.546Z" transform="translate(-1092.582 -8476.48)" fill="#999"/>
      <path id="Trazado_105943" data-name="Trazado 105943" d="M1219.87,8661.688c-1.523-7.07-2.007-15.47-1.616-28.089.4-12.869,4.861-33.6,4.905-33.813l1.5.325c-.044.207-4.477,20.808-4.87,33.537-.387,12.484.086,20.774,1.583,27.716Z" transform="translate(-1027.316 -8476.624)" fill="#999"/>
      <path id="Trazado_105944" data-name="Trazado 105944" d="M1136.148,8586.008l-.992-1.171a56.863,56.863,0,0,1,33.738-11.6h.136c18.288,0,27.7,5.281,34.575,9.143,1.3.729,2.527,1.418,3.669,1.98l-.682,1.376c-1.176-.577-2.421-1.277-3.739-2.017-6.729-3.779-15.939-8.947-33.825-8.947h-.132A55.17,55.17,0,0,0,1136.148,8586.008Z" transform="translate(-1071.729 -8490.835)" fill="#999"/>
      <path id="Trazado_105945" data-name="Trazado 105945" d="M1160.278,8615.873l-6.008-6.407-3.522.268s-1.5.151-1.2-1.152l3.955-4.756s1.852-2,2.452.3l.2,4,5.361,6.283.646,1.976Z" transform="translate(-1064.046 -8474.896)" fill="#999"/>
      <path id="Trazado_105946" data-name="Trazado 105946" d="M1160.278,8662.309l-6.008-6.409-3.522.268s-1.5.15-1.2-1.15l3.955-4.758s1.852-2,2.452.3l.2,4.007,5.361,6.279.646,1.979Z" transform="translate(-1064.046 -8450.039)" fill="#999"/>
      <path id="Trazado_105947" data-name="Trazado 105947" d="M1160.278,8578.7l-6.008-6.408-3.522.268s-1.5.149-1.2-1.151l3.955-4.755s1.852-2,2.452.3l.2,4,5.361,6.281.646,1.977Z" transform="translate(-1064.046 -8494.794)" fill="#999"/>
      <path id="Trazado_105948" data-name="Trazado 105948" d="M1160.278,8575.072l-6.008,6.409-3.522-.27s-1.5-.149-1.2,1.151l3.955,4.759s1.852,2,2.452-.3l.2-4,5.361-6.281.646-1.979Z" transform="translate(-1064.046 -8490.132)" fill="#999"/>
      <g id="Grupo_55277" data-name="Grupo 55277" transform="translate(94.896 48.464)" opacity="0.36">
        <path id="Trazado_105949" data-name="Trazado 105949" d="M1156.153,8551.63s1.5,7.211,10.013,5.708c0,0,14.218-4.105,17.122-1.4s3.3,8.212,8.41,9.112a18.5,18.5,0,0,1,9.613-.9c5.007,1,2.7,3.3,13.666.9l5.258-2.1s7.21-2.3,12.917,1l4.705,3.705s1.8,2.6,7.21,2.4,10.613,7.512,10.613,7.512,1.2,4.4,3.6,6.006,13.217,10.515,13.217,10.515a23.548,23.548,0,0,0,16.42.8s4.105-.5,5.307-2.9-13.417,67.287-13.417,67.287-15.02,54.27-13.217,78.9,1.4,39.652,5.206,50.865,7.144,62.48,7.409,99.86l-2.937,47.261s.668-6.407-11.347-4.54-18.958-.133-18.958-.133-8.41-.4-13.082,3.871-16.555,1.737-16.555,1.737-1.868-1.6-7.61-1.737-13.483,1.871-19.891-2-9.345-2.8-14.418.134-8.412,5.206-10.948,3.605-2.269-5.209-7.743-4.406Z" transform="translate(-1155.385 -8550.865)" fill="#999"/>
        <path id="Trazado_105950" data-name="Trazado 105950" d="M1225.016,8938.872a40.155,40.155,0,0,1-7.578-.768.778.778,0,0,1-.339-.167c-.008-.007-1.824-1.43-7.127-1.551-1.435-.034-3.023.07-4.7.182-4.968.331-10.6.707-15.57-2.3-5.963-3.6-8.605-2.771-13.635.142l-1.369.8c-4.455,2.609-7.676,4.493-10.372,2.791a7.672,7.672,0,0,1-2.079-2.158c-1.059-1.46-1.89-2.615-5.146-2.136a.814.814,0,0,1-.613-.178.774.774,0,0,1-.266-.581l-.567-381.052a.767.767,0,0,1,1.518-.16c.055.265,1.5,6.454,9.129,5.11,1.416-.415,14.643-4.124,17.779-1.209a14.571,14.571,0,0,1,2.641,3.843c1.239,2.29,2.412,4.456,5.176,5.035a19.258,19.258,0,0,1,9.833-.856,11.652,11.652,0,0,1,3.313,1.173c1.557.782,2.679,1.343,10.038-.269l5.138-2.066c.356-.116,7.647-2.388,13.586,1.05l4.8,3.766a.765.765,0,0,1,.157.167c.063.084,1.72,2.271,6.549,2.073.077,0,.156-.006.237-.006,5.673,0,10.822,7.525,11.04,7.851a.741.741,0,0,1,.106.229c.009.041,1.156,4.148,3.288,5.569,2.331,1.555,12.163,9.644,13.205,10.5a23.063,23.063,0,0,0,15.769.725c1.175-.161,4.027-.855,4.858-2.518a.872.872,0,0,1,.99-.441c.9.314,1.019.355-6,34.632-3.444,16.813-6.965,33.6-6.965,33.6-.161.589-14.974,54.471-13.2,78.688.5,6.8.829,12.919,1.122,18.319.768,14.124,1.324,24.331,4.046,32.351,3.875,11.423,7.187,63.189,7.451,100.1l-2.934,47.248c0,.054-.006.089-.008.1a.788.788,0,0,1-.826.685.767.767,0,0,1-.7-.812l.006-.087a3.279,3.279,0,0,0-1.084-2.421c-1.125-1.05-3.674-2.116-9.387-1.224-11.43,1.776-18.276.118-19.193-.128-.864-.027-8.3-.112-12.448,3.671C1232.354,8938.3,1228.495,8938.872,1225.016,8938.872Zm-7.094-2.238c1.409.275,11.668,2.111,15.715-1.581,4.848-4.436,13.283-4.092,13.636-4.071a.706.706,0,0,1,.175.029c.068.021,6.953,1.928,18.628.112,5.114-.792,8.717-.243,10.707,1.651.07.069.138.137.2.206l2.727-43.868c-.264-36.745-3.541-88.278-7.371-99.565-2.79-8.224-3.35-18.517-4.124-32.765-.293-5.393-.626-11.506-1.122-18.292-1.79-24.479,13.091-78.617,13.243-79.162,4.788-22.84,11.647-56.125,13.157-64.916a10.9,10.9,0,0,1-4.214,1.5,23.914,23.914,0,0,1-16.853-.872.725.725,0,0,1-.15-.1c-.107-.088-10.81-8.906-13.153-10.471-2.4-1.6-3.651-5.523-3.883-6.31-.61-.867-5.3-7.271-9.881-7.076-5.182.2-7.353-2.09-7.787-2.626l-4.632-3.646c-5.243-3.026-12.141-.895-12.209-.874l-5.206,2.086c-7.649,1.686-9.158,1.191-11.175.177a10.3,10.3,0,0,0-2.926-1.038,17.915,17.915,0,0,0-9.169.857.771.771,0,0,1-.427.047c-3.642-.642-5.14-3.412-6.462-5.856a13.178,13.178,0,0,0-2.338-3.449c-1.882-1.752-11.05.036-16.386,1.577-5.142.909-7.967-1.134-9.453-3.131l.56,376.881c3.5-.261,4.673,1.392,5.733,2.853a6.342,6.342,0,0,0,1.655,1.761c1.9,1.2,4.64-.4,8.779-2.82l1.374-.8c5.352-3.1,8.594-4.117,15.2-.126,4.551,2.751,9.927,2.4,14.676,2.076,1.71-.113,3.33-.214,4.838-.185C1215.1,8934.969,1217.3,8936.2,1217.922,8936.634Z" transform="translate(-1155.653 -8551.13)" fill="#4d4d4d"/>
      </g>
      <g id="Grupo_55278" data-name="Grupo 55278" transform="translate(217.085 77.333)" opacity="0.66">
        <path id="Trazado_105951" data-name="Trazado 105951" d="M1235.74,8584.722v-14.286s2.536,5.606,7.343,5.074,5.74,1.335,6.674,3.2l1.4,3.9S1245.085,8586.856,1235.74,8584.722Z" transform="translate(-1234.972 -8569.67)" fill="#999"/>
        <path id="Trazado_105952" data-name="Trazado 105952" d="M1241.257,8586.36a24.245,24.245,0,0,1-5.42-.627.762.762,0,0,1-.6-.746V8570.7a.768.768,0,0,1,1.466-.318c.025.055,2.389,5.11,6.559,4.631,5.337-.586,6.461,1.646,7.448,3.62l1.432,3.983a.769.769,0,0,1-.282.889A19.531,19.531,0,0,1,1241.257,8586.36Zm-4.482-1.992a20.132,20.132,0,0,0,13.715-1.82l-1.187-3.31c-.874-1.734-1.589-3.179-5.868-2.7a7.488,7.488,0,0,1-6.66-3.192Z" transform="translate(-1235.24 -8569.936)" fill="#4d4d4d"/>
      </g>
      <g id="Grupo_55279" data-name="Grupo 55279" transform="translate(93.944 429.2)" opacity="0.36">
        <path id="Trazado_105953" data-name="Trazado 105953" d="M1165.045,8805.089s-1.4,3.391-4.4,1.439-2.254-2.905-4.156-3.1-.505-3.947.35-3.754,3.781-.875,5.47,1.89A13.152,13.152,0,0,0,1165.045,8805.089Z" transform="translate(-1154.765 -8798.854)" fill="#999"/>
        <path id="Trazado_105954" data-name="Trazado 105954" d="M1162.679,8808.17a4.03,4.03,0,0,1-2.188-.73,10.319,10.319,0,0,1-2.587-2.271,1.4,1.4,0,0,0-1.233-.713,1.709,1.709,0,0,1-1.472-1.1,4.143,4.143,0,0,1,.777-3.627,1.3,1.3,0,0,1,1.3-.541,4.238,4.238,0,0,0,.649-.021c1.311-.092,3.76-.271,5.306,2.262a13.163,13.163,0,0,0,2.544,3.313.776.776,0,0,1,.25.91,4.442,4.442,0,0,1-2.441,2.383A3.018,3.018,0,0,1,1162.679,8808.17Zm-5.533-7.451a2.877,2.877,0,0,0-.545,1.99c.048.182.1.205.232.217a2.872,2.872,0,0,1,2.251,1.26,8.9,8.9,0,0,0,2.245,1.967,2.161,2.161,0,0,0,1.792.416,2.433,2.433,0,0,0,1.234-1.051,18.565,18.565,0,0,1-2.437-3.291c-1.058-1.732-2.69-1.615-3.886-1.529A6.106,6.106,0,0,1,1157.146,8800.719Z" transform="translate(-1155.033 -8799.122)" fill="#4d4d4d"/>
      </g>
      <g id="Grupo_55280" data-name="Grupo 55280" transform="translate(196.626 428.223)" opacity="0.36">
        <path id="Trazado_105955" data-name="Trazado 105955" d="M1223.415,8800.409s.6,7.911-1,10.113c0,0,16.755-1.535,19.391-6.776s-9.7-4.748-9.7-4.748Z" transform="translate(-1221.647 -8798.218)" fill="#999"/>
        <path id="Trazado_105956" data-name="Trazado 105956" d="M1222.682,8811.56a.768.768,0,0,1-.622-1.22c1.045-1.439,1.082-6.652.857-9.6a.77.77,0,0,1,.643-.817l8.695-1.412c.967-.046,8.636-.262,10.521,2.664a3.051,3.051,0,0,1-.017,3.188c-2.748,5.465-18.25,7.032-20.006,7.2C1222.728,8811.558,1222.7,8811.56,1222.682,8811.56Zm1.812-10.234c.1,1.739.23,5.99-.562,8.561,5.235-.626,15.621-2.572,17.456-6.214.46-.916.275-1.392.1-1.668-1.064-1.653-6.117-2.086-9.077-1.971Z" transform="translate(-1221.914 -8798.485)" fill="#4d4d4d"/>
      </g>
      <path id="Trazado_105957" data-name="Trazado 105957" d="M1179.044,8839.13l-.774-1.324c18.758-10.942,39.506-71.6,39.712-72.21l30.812-116.272,1.485.395-30.827,116.321C1218.582,8768.605,1198.3,8827.9,1179.044,8839.13Z" transform="translate(-1048.65 -8450.105)" fill="#999"/>
      <path id="Trazado_105958" data-name="Trazado 105958" d="M1270.958,8635.882c-8.206,0-25.862-1.795-61.3-11.539l-51.085-13.078.381-1.487,51.1,13.084c54.162,14.885,66.629,11,66.744,10.967l.516,1.446C1277.134,8635.336,1275.479,8635.882,1270.958,8635.882Z" transform="translate(-1059.196 -8471.278)" fill="#999"/>
      <g id="Grupo_55281" data-name="Grupo 55281" transform="translate(32.021 333.63)">
        <path id="Trazado_105959" data-name="Trazado 105959" d="M1115.218,8737.565s57.054,18.424,134.129,0l-.283,10.146s-38.057,7.568-66.782,7.476c-30.769-.1-58.253-5.072-66.8-7.476Z" transform="translate(-1114.423 -8736.502)" fill="#fff"/>
        <path id="Trazado_105960" data-name="Trazado 105960" d="M1183.071,8756.329h-.515c-30.815-.1-58.447-5.1-67-7.508l-.545-.152-.31-11.8,1.032.335c.566.181,57.759,18.135,133.715-.018l.972-.232-.328,11.76-.6.117C1249.112,8748.91,1211.486,8756.329,1183.071,8756.329Zm-66.555-8.835c9.067,2.438,36.016,7.2,66.047,7.3h.51c26.3,0,60.575-6.4,65.519-7.346l.238-8.533c-70.322,16.561-124.486,2.385-132.539.062Z" transform="translate(-1114.7 -8736.873)" fill="#999"/>
      </g>
      <g id="Grupo_55282" data-name="Grupo 55282" transform="translate(33.608 334.3)">
        <path id="Trazado_105961" data-name="Trazado 105961" d="M1153.4,8753.355l-3.49-3.365,2.629-3.476-3.181-3.33.946-.842,3.9,4.081-2.6,3.438,2.711,2.614Z" transform="translate(-1097.731 -8734.615)" fill="#999"/>
        <path id="Trazado_105962" data-name="Trazado 105962" d="M1156.968,8753.355l-3.489-3.365,2.627-3.476-3.181-3.33.946-.842,3.9,4.081-2.6,3.438,2.711,2.614Z" transform="translate(-1095.825 -8734.615)" fill="#999"/>
        <path id="Trazado_105963" data-name="Trazado 105963" d="M1135.112,8752.245l-3.282-3.869,3.08-3.329-2.93-3.757,1.057-.824,3.632,4.654-3.049,3.293,2.515,2.968Z" transform="translate(-1107.117 -8735.62)" fill="#999"/>
        <path id="Trazado_105964" data-name="Trazado 105964" d="M1138.381,8752.334l-3.092-3.645,2.9-3.137-2.759-3.538,1-.774,3.42,4.382-2.871,3.1,2.368,2.795Z" transform="translate(-1105.265 -8735.206)" fill="#999"/>
        <path id="Trazado_105965" data-name="Trazado 105965" d="M1141.909,8752.639l-3.053-3.6,2.865-3.1-2.725-3.494.983-.767,3.374,4.328-2.832,3.065,2.339,2.758Z" transform="translate(-1103.356 -8734.97)" fill="#999"/>
        <path id="Trazado_105966" data-name="Trazado 105966" d="M1124.87,8750.272l-3.282-3.868,3.08-3.331-2.93-3.755,1.057-.824,3.628,4.653-3.045,3.295,2.515,2.964Z" transform="translate(-1112.599 -8736.678)" fill="#999"/>
        <path id="Trazado_105967" data-name="Trazado 105967" d="M1121.663,8749.754l-3.282-3.869,3.08-3.328-2.93-3.758,1.058-.824,3.628,4.654-3.045,3.295,2.514,2.963Z" transform="translate(-1114.316 -8736.953)" fill="#999"/>
        <path id="Trazado_105968" data-name="Trazado 105968" d="M1119.015,8749.088l-3.282-3.871,3.08-3.328-2.93-3.756,1.057-.823,3.631,4.652-3.048,3.294,2.515,2.968Z" transform="translate(-1115.733 -8737.31)" fill="#999"/>
        <path id="Trazado_105969" data-name="Trazado 105969" d="M1128.147,8750.969l-3.282-3.87,3.08-3.327-2.93-3.757,1.057-.825,3.628,4.655-3.045,3.292,2.515,2.968Z" transform="translate(-1110.845 -8736.303)" fill="#999"/>
        <path id="Trazado_105970" data-name="Trazado 105970" d="M1131.677,8751.774l-3.284-3.872,3.08-3.327-2.93-3.757,1.058-.823,3.631,4.653-3.048,3.293,2.516,2.966Z" transform="translate(-1108.957 -8735.872)" fill="#999"/>
        <path id="Trazado_105971" data-name="Trazado 105971" d="M1145.678,8752.984l-3.156-3.586,2.961-3.086-2.817-3.481,1.017-.765,3.491,4.314-2.931,3.052,2.417,2.749Z" transform="translate(-1101.393 -8734.765)" fill="#999"/>
        <path id="Trazado_105972" data-name="Trazado 105972" d="M1149.34,8752.986l-3.157-3.588,2.961-3.086-2.817-3.483,1.017-.763,3.491,4.313-2.931,3.054,2.419,2.751Z" transform="translate(-1099.434 -8734.765)" fill="#999"/>
        <path id="Trazado_105973" data-name="Trazado 105973" d="M1175.858,8752.537l-3.685-3.149,2.417-3.626-3.375-3.136.894-.9,4.136,3.84-2.391,3.588,2.862,2.445Z" transform="translate(-1086.034 -8734.943)" fill="#999"/>
        <path id="Trazado_105974" data-name="Trazado 105974" d="M1179.242,8752.213l-3.685-3.152,2.414-3.626-3.374-3.133.894-.9,4.136,3.839-2.39,3.59,2.863,2.445Z" transform="translate(-1084.224 -8735.117)" fill="#999"/>
        <path id="Trazado_105975" data-name="Trazado 105975" d="M1182.826,8751.821l-3.685-3.152,2.415-3.624-3.374-3.135.894-.9,4.136,3.842-2.39,3.588,2.862,2.446Z" transform="translate(-1082.305 -8735.327)" fill="#999"/>
        <path id="Trazado_105976" data-name="Trazado 105976" d="M1185.83,8751.517l-3.685-3.15,2.414-3.626-3.374-3.135.894-.9,4.136,3.842-2.39,3.588,2.863,2.444Z" transform="translate(-1080.697 -8735.488)" fill="#999"/>
        <path id="Trazado_105977" data-name="Trazado 105977" d="M1189,8750.908l-3.685-3.152,2.415-3.624-3.374-3.135.894-.9,4.136,3.841-2.39,3.588,2.862,2.445Z" transform="translate(-1078.999 -8735.816)" fill="#999"/>
        <path id="Trazado_105978" data-name="Trazado 105978" d="M1192.028,8750.454l-3.685-3.152,2.415-3.625-3.374-3.134.894-.9,4.136,3.839-2.39,3.589,2.862,2.446Z" transform="translate(-1077.379 -8736.062)" fill="#999"/>
        <path id="Trazado_105979" data-name="Trazado 105979" d="M1195.113,8750.117l-3.685-3.149,2.414-3.624-3.375-3.137.894-.895,4.136,3.84-2.39,3.588,2.862,2.444Z" transform="translate(-1075.728 -8736.239)" fill="#999"/>
        <path id="Trazado_105980" data-name="Trazado 105980" d="M1198.219,8749.4l-3.685-3.151,2.415-3.625-3.375-3.134.894-.9,4.136,3.841-2.39,3.589,2.862,2.445Z" transform="translate(-1074.066 -8736.624)" fill="#999"/>
        <path id="Trazado_105981" data-name="Trazado 105981" d="M1201.566,8748.969l-3.685-3.152,2.415-3.624-3.374-3.133.894-.9,4.136,3.842-2.39,3.588,2.863,2.445Z" transform="translate(-1072.274 -8736.854)" fill="#999"/>
        <path id="Trazado_105982" data-name="Trazado 105982" d="M1160.362,8753.527l-3.3-3.454,2.708-3.3-2.966-3.366.948-.835,3.677,4.171-2.681,3.269,2.531,2.646Z" transform="translate(-1093.751 -8734.496)" fill="#999"/>
        <path id="Trazado_105983" data-name="Trazado 105983" d="M1163.9,8753.227l-3.263-3.409,2.674-3.263-2.929-3.325.936-.823,3.627,4.119-2.644,3.227,2.5,2.614Z" transform="translate(-1091.832 -8734.583)" fill="#999"/>
        <path id="Trazado_105984" data-name="Trazado 105984" d="M1167.684,8753.2l-3.364-3.393,2.771-3.255-3.02-3.309.969-.822,3.743,4.1-2.743,3.224,2.578,2.6Z" transform="translate(-1089.859 -8734.575)" fill="#999"/>
        <path id="Trazado_105985" data-name="Trazado 105985" d="M1171.339,8752.891l-3.366-3.393,2.771-3.258-3.02-3.308.969-.822,3.743,4.1-2.743,3.223,2.579,2.6Z" transform="translate(-1087.903 -8734.74)" fill="#999"/>
      </g>
      <path id="Trazado_105986" data-name="Trazado 105986" d="M1161.54,8750.829l-6.009-6.406-3.52.267s-1.5.151-1.2-1.151l3.955-4.755s1.853-2,2.453.3l.2,4,5.361,6.281.646,1.979Z" transform="translate(-1063.372 -8402.655)" fill="#999"/>
      <path id="Trazado_105987" data-name="Trazado 105987" d="M1159.908,8748.448l-6.008,6.409-3.52-.269s-1.5-.15-1.2,1.153l3.955,4.754s1.853,2,2.453-.3l.2-4,5.361-6.282.646-1.978Z" transform="translate(-1064.244 -8397.324)" fill="#999"/>
      <path id="Trazado_105988" data-name="Trazado 105988" d="M1142.381,8558.1l-1.083-1.088c.284-.283,3.238-2.86,18.8-5.616a61.661,61.661,0,0,1,12.218-.625c.811.095,1.643.162,2.506.236a43.062,43.062,0,0,1,19.223,5.576l-.735,1.347a41.26,41.26,0,0,0-18.617-5.395c-.88-.072-1.725-.144-2.552-.238a60.775,60.775,0,0,0-11.776.611C1145.252,8555.583,1142.406,8558.074,1142.381,8558.1Z" transform="translate(-1068.441 -8502.921)" fill="#999"/>
      <g id="Grupo_55283" data-name="Grupo 55283" transform="translate(94.896 44.771)" opacity="0.36">
        <path id="Trazado_105989" data-name="Trazado 105989" d="M1167,8549.28s-1,5.741-.467,8.411c0,0-7.21,3.337-10.38-5.342C1156.153,8552.35,1158.857,8548.746,1167,8549.28Z" transform="translate(-1155.386 -8548.461)" fill="#999"/>
        <path id="Trazado_105990" data-name="Trazado 105990" d="M1163.638,8559.358a7.619,7.619,0,0,1-2.936-.569c-2.225-.924-3.909-2.911-5-5.908a.77.77,0,0,1,.108-.724c.121-.16,3.054-3.918,11.512-3.375a.77.77,0,0,1,.706.9c-.009.056-.97,5.63-.471,8.128a.77.77,0,0,1-.43.849A9.028,9.028,0,0,1,1163.638,8559.358Zm-6.328-6.562a7.714,7.714,0,0,0,3.967,4.567,6.949,6.949,0,0,0,4.672.092,33.417,33.417,0,0,1,.425-7.182C1160.767,8550.088,1158.119,8552.042,1157.31,8552.8Z" transform="translate(-1155.653 -8548.729)" fill="#4d4d4d"/>
      </g>
      <g id="Grupo_55284" data-name="Grupo 55284" transform="translate(84.694 18.19)">
        <rect id="Rectángulo_9535" data-name="Rectángulo 9535" width="26.417" height="4.406" rx="1.435" transform="translate(0.767 0.768)" fill="#fff"/>
        <path id="Trazado_105991" data-name="Trazado 105991" d="M1173.989,8537.355h-22.011a2.971,2.971,0,0,1,0-5.941h22.011a2.971,2.971,0,1,1,0,5.941Zm-22.011-4.406a1.436,1.436,0,0,0,0,2.871h22.011a1.436,1.436,0,0,0,0-2.871Z" transform="translate(-1149.008 -8531.414)" fill="#999"/>
      </g>
      <g id="Grupo_55285" data-name="Grupo 55285" transform="translate(84.694 9.777)">
        <rect id="Rectángulo_9536" data-name="Rectángulo 9536" width="26.417" height="4.406" rx="1.435" transform="translate(0.767 0.769)" fill="#fff"/>
        <path id="Trazado_105992" data-name="Trazado 105992" d="M1173.989,8531.878h-22.011a2.972,2.972,0,0,1,0-5.944h22.011a2.972,2.972,0,0,1,0,5.944Zm-22.011-4.409a1.437,1.437,0,0,0,0,2.873h22.011a1.437,1.437,0,0,0,0-2.873Z" transform="translate(-1149.008 -8525.934)" fill="#999"/>
      </g>
      <path id="Trazado_105993" data-name="Trazado 105993" d="M1156.477,8948.9l-.51-85.642.084-289.04h1.535l-.084,289.034.51,85.639Z" transform="translate(-1060.589 -8490.311)" fill="#999"/>
    </g>
  </g>
</svg>
