<svg xmlns="http://www.w3.org/2000/svg" width="287.139" height="363.033" viewBox="0 0 287.139 363.033">
  <g id="Grupo_54972" data-name="Grupo 54972" transform="translate(-1138.806 -7595.383)">
    <g id="Grupo_54972-2" data-name="Grupo 54972" transform="translate(1138.806 7595.383)">
      <path id="Trazado_105082" data-name="Trazado 105082" d="M1218.28,7603.028s.038,22.1,10.819,29.425c0,0,24.429,6.525,30.392,8.929,0,0-2.063,24.387-7.225,37.667l-14.794,52.1s-2.524,7.671,0,18.32l8.486,32.4s3.785,16.372,3.1,30.912l-4.93,55.53s-.459,17.516-22.48,21.638c0,0-31.081,3.551-47.6-.8,0,0-12.271-1.489-18.58-16.143l-4.7-48.278v-25.342s1.987-19.234,6.575-32.362,7.341-22.6,4.741-34.807L1139.45,7645.2s-1.243-3.471,1.683-4.676,25.23-6.467,28.1-8.069,7.306-.981,11.09-24.109l.264-6.958a32.914,32.914,0,0,1,18.754-5.629C1214.439,7595.757,1218.28,7603.028,1218.28,7603.028Z" transform="translate(-1138.524 -7595.104)" fill="#fff"/>
      <path id="Trazado_105083" data-name="Trazado 105083" d="M1196.944,7892.228c-8.041,0-16.481-.514-22.779-2.173h0c-.049,0-12.632-1.694-19.013-16.516l-.048-.194-4.7-48.279,0-25.4c.022-.26,2.051-19.528,6.61-32.581,4.526-12.946,7.3-22.339,4.719-34.453l-22.624-86.987c-.485-1.349-.7-4.3,2.065-5.441,1.259-.518,5.783-1.706,11.023-3.088,6.864-1.805,15.406-4.053,17.007-4.949.328-.185.674-.341,1.04-.5,2.7-1.212,6.406-2.875,9.725-23.143l.266-7.182.244-.187a33.244,33.244,0,0,1,19.15-5.765c15.317,0,19.354,7.307,19.519,7.618l.075.3c0,.217.161,21.716,10.443,28.826,1.994.535,24.566,6.591,30.359,8.925l.447.181-.04.479c-.023.247-2.134,24.635-7.269,37.852L1238.38,7731.6c-.031.1-2.437,7.668.009,17.991l8.483,32.388c.044.182,3.8,16.647,3.117,31.107l-4.934,55.557c0,.141-.727,18.053-23.006,22.224C1221.827,7890.894,1209.9,7892.228,1196.944,7892.228Zm-40.554-19.112c6.087,14.028,17.9,15.648,18.02,15.665,16.294,4.286,47.135.837,47.441.8,21.211-3.972,21.9-20.84,21.9-21.008l4.932-55.571c.676-14.259-3.043-30.546-3.081-30.707l-8.483-32.384c-2.538-10.717-.094-18.368.01-18.688l14.789-52.069c4.687-12.07,6.834-33.569,7.159-37.061-6.549-2.494-29.631-8.666-29.867-8.73l-.2-.088c-10.539-7.164-11.076-27.485-11.1-29.782-.6-.932-4.913-6.8-18.292-6.8a32.987,32.987,0,0,0-18.114,5.321l-.25,6.642c-3.441,21.038-7.514,22.866-10.489,24.2-.327.148-.641.289-.936.452-1.745.977-9.658,3.06-17.311,5.074-4.979,1.309-9.68,2.548-10.859,3.032-2.307.947-1.358,3.736-1.316,3.854l22.65,87.069c2.655,12.477-.16,22.029-4.758,35.188-4.508,12.9-6.521,32.022-6.541,32.213l0,25.275Z" transform="translate(-1138.806 -7595.383)" fill="#999"/>
    </g>
    <g id="Grupo_54973" data-name="Grupo 54973" transform="translate(1251.256 7640.993)">
      <path id="Trazado_105084" data-name="Trazado 105084" d="M1210.355,7621.782a68.311,68.311,0,0,0-5.81,22.516s-.685,4.885-.685,17.787" transform="translate(-1203.208 -7621.495)" fill="#fff"/>
      <path id="Trazado_105085" data-name="Trazado 105085" d="M1204.789,7662.208h-1.3c0-12.8.663-17.678.692-17.877a69.419,69.419,0,0,1,5.871-22.714l1.172.574a68.181,68.181,0,0,0-5.748,22.278C1205.46,7644.559,1204.789,7649.523,1204.789,7662.208Z" transform="translate(-1203.485 -7621.617)" fill="#999"/>
    </g>
    <g id="Grupo_54974" data-name="Grupo 54974" transform="translate(1141.85 7640.17)">
      <path id="Trazado_105086" data-name="Trazado 105086" d="M1140.9,7621.3a74.309,74.309,0,0,1,6.024,23.348s.685,4.885.685,17.787" transform="translate(-1140.307 -7621.024)" fill="#fff"/>
      <path id="Trazado_105087" data-name="Trazado 105087" d="M1148.507,7662.557h-1.3c0-12.685-.671-17.649-.678-17.7a74.414,74.414,0,0,0-5.969-23.159l1.177-.557a75.586,75.586,0,0,1,6.087,23.579C1147.845,7644.88,1148.507,7649.755,1148.507,7662.557Z" transform="translate(-1140.557 -7621.144)" fill="#999"/>
    </g>
    <rect id="Rectángulo_9411" data-name="Rectángulo 9411" width="10.551" height="62.637" transform="translate(1194.401 7891.59)" fill="#999"/>
    <rect id="Rectángulo_9412" data-name="Rectángulo 9412" width="3.477" height="262.557" transform="translate(1198.206 7634.472)" fill="red"/>
    <g id="Grupo_54977" data-name="Grupo 54977" transform="translate(1180.363 7889.965)">
      <g id="Grupo_54976" data-name="Grupo 54976">
        <g id="Grupo_54975" data-name="Grupo 54975">
          <path id="Trazado_105088" data-name="Trazado 105088" d="M1177.744,7806.615l.375-1.524s-1.368-12.88-2.43-22.435c-1.772-1.029-3.371-1.963-4.626-2.7Z" transform="translate(-1156.539 -7753.645)" fill="#b3b3b3"/>
          <path id="Trazado_105089" data-name="Trazado 105089" d="M1173.134,7790.136c1.024-7.05,6.664-11.805,7.072-12.14a7.176,7.176,0,0,0,3.182-6.367,7.456,7.456,0,0,0-1.966-4.857,5.923,5.923,0,0,0-4.559-1.947,5.747,5.747,0,0,0-1.613.292,6.955,6.955,0,0,0-4.414,6.957c0,.012,0,.024,0,.039l-.026-.037.031,19.468-.009.006,2.105.286C1173.063,7790.893,1173.134,7790.283,1173.134,7790.136Zm-.266-18.132a4.911,4.911,0,0,1,3.032-4.958,3.621,3.621,0,0,1,1.034-.187,3.906,3.906,0,0,1,3,1.31,5.409,5.409,0,0,1,1.417,3.532,4.919,4.919,0,0,1-3.03,4.959,3.619,3.619,0,0,1-1.035.188,3.922,3.922,0,0,1-3.006-1.308A5.431,5.431,0,0,1,1172.868,7772Z" transform="translate(-1156.723 -7764.82)"/>
          <path id="Trazado_105090" data-name="Trazado 105090" d="M1162.735,7772.378a7.13,7.13,0,0,0,4.049,6.021c.669.441,6.49,4.439,8.286,11.17.136,1.109,7.848,28,7.848,28l.824,1.025-3.319-25.656-2.914-2.247-2.238-18.956c-.005-.128-.005-.253-.014-.377a6.931,6.931,0,0,0-5.261-6.414h0a5.7,5.7,0,0,0-1.565-.09,5.923,5.923,0,0,0-4.3,2.463A7.437,7.437,0,0,0,1162.735,7772.378Zm15.781,20.525a1.072,1.072,0,1,1-1.264.844A1.074,1.074,0,0,1,1178.516,7792.9Zm-12.756-24.369a3.928,3.928,0,0,1,2.832-1.648,3.729,3.729,0,0,1,1,.058,4.9,4.9,0,0,1,3.632,4.583,5.419,5.419,0,0,1-1,3.675,3.9,3.9,0,0,1-2.832,1.647,3.652,3.652,0,0,1-1.005-.056,4.9,4.9,0,0,1-3.63-4.583A5.437,5.437,0,0,1,1165.76,7768.535Z" transform="translate(-1162.709 -7764.805)"/>
        </g>
      </g>
    </g>
    <path id="Trazado_105091" data-name="Trazado 105091" d="M1219.974,7703.488v-19.955h4.385s1.133-.15,1.247-.794,4.687-7.823,9.3-8.352,13.8-2.833,13.8-2.833,4.423-1.626,5.518,1.926-1.815,3.477-7.975,5.254l-5.48.869s-.831,1.095.679,1.095,32.467-.488,32.467-.488,2.416.375,2.38,3.892-3.475,2.8-3.475,2.8l-17.386.036s3.439,1.4,3.288,4.951a2.767,2.767,0,0,1-3.326,2.949s3.968,4.874-2.344,7.256c0,0,1.436,6.652-3.288,6.841s-15.194,0-15.194,0-6.351-.945-8.618-5.33Z" transform="translate(59.95 55.984)"/>
    <path id="Trazado_105092" data-name="Trazado 105092" d="M1301.057,7613.507c-12.452-14.442-27.723-13.364-27.889-13.355l-.144-1.732c.667-.057,16.3-1.185,29.351,13.955Z" transform="translate(99.131 2.216)" fill="#999"/>
    <rect id="Rectángulo_9413" data-name="Rectángulo 9413" width="10.205" height="62.362" transform="translate(1370.802 7896.053)" fill="#999"/>
    <g id="Grupo_54978" data-name="Grupo 54978" transform="translate(1339.31 7595.671)">
      <path id="Trazado_105093" data-name="Trazado 105093" d="M1317.453,7610.8s-5.064-13.757-28.043-14.739l-14.363,30.312s-16.555,24.945-12.926,41.043,5.443,38.1,5.443,38.1,7.709,31.52,1.36,47.621-11.791,33.562-11.791,33.562-4.762,9.979-1.133,40.818,4.08,52.612,4.08,52.612,4.423,14.967,36.851,14.967,34.243-18.935,34.243-18.935l2.608-109.344s-2.874-16.478-3.175-26.909,2.721-32.956,5.291-38.4,3.629-9.372,3.629-13-2.267-8.919-8.768-15.875-17.236-20.257-18.294-38.4A49.423,49.423,0,0,1,1317.453,7610.8Z" transform="translate(-1253.76 -7595.169)" fill="#fff"/>
      <path id="Trazado_105094" data-name="Trazado 105094" d="M1297.3,7896.347c-32.7,0-37.5-14.955-37.684-15.59l-.035-.229c-.005-.218-.5-22.087-4.075-52.527-3.616-30.738,1.012-40.88,1.21-41.3.009-.059,5.48-17.56,11.77-33.506,6.174-15.657-1.321-46.784-1.4-47.095-.04-.356-1.872-22.26-5.445-38.114-3.669-16.278,12.363-40.688,13.048-41.717l14.549-30.725.575.022c23.292,1,28.609,14.724,28.822,15.309l.132.353-.169.338a49,49,0,0,0-4.9,22.977c.767,13.134,6.843,25.871,18.062,37.873,7.439,7.96,9,13.348,9,16.467,0,3.816-1.144,7.938-3.712,13.374-2.446,5.177-5.513,27.554-5.207,38,.3,10.251,3.133,26.621,3.159,26.784l-2.594,109.513C1332.392,7876.821,1330.143,7896.347,1297.3,7896.347Zm-35.984-15.992c.456,1.225,6.038,14.253,35.984,14.253,31.178,0,33.3-17.412,33.376-18.152l2.6-109.277h0c-.017,0-2.872-16.489-3.173-26.864-.316-10.86,2.8-33.339,5.374-38.8,2.452-5.189,3.545-9.086,3.545-12.63,0-2.806-1.481-7.732-8.533-15.28-11.5-12.305-17.737-25.407-18.528-38.942a49.856,49.856,0,0,1,4.9-23.508c-.949-2.022-6.907-12.779-26.55-13.819l-14.114,29.788c-.226.355-16.369,24.931-12.864,40.481,3.6,15.974,5.444,38,5.459,38.217.3,1.163,7.683,31.842,1.3,48.014-6.264,15.884-11.716,33.328-11.77,33.5-.09.213-4.64,10.366-1.1,40.46C1260.678,7857.07,1261.271,7878.45,1261.319,7880.354Z" transform="translate(-1254.132 -7595.548)" fill="#999"/>
    </g>
    <path id="Trazado_105095" data-name="Trazado 105095" d="M1306.126,7631.631c-24.613-13.209-40.888-14.846-41.05-14.861l.16-1.732c.673.063,16.753,1.666,41.71,15.062Z" transform="translate(93.262 14.519)" fill="#999"/>
    <path id="Trazado_105096" data-name="Trazado 105096" d="M1284.337,7667.822c-1.073,0-14.576-.364-19.955-17.734-3.484-11.25-.1-18.532,2.224-21.869,2.747-3.941,6.855-6.613,10.466-6.806l.083,0,.083.012c.2.03,20.131,3.042,20.366,21.828.217,17.615-6.1,22.2-12.951,24.53l-.25.044Zm-7.257-44.669c-2.537.173-6.29,2.1-9.046,6.058-3.705,5.316-4.411,12.548-1.992,20.366,4.96,16.012,16.762,16.509,18.182,16.509,5.77-1.982,11.854-5.614,11.641-22.819C1295.654,7626.4,1278.6,7623.39,1277.08,7623.153Z" transform="translate(91.643 19.222)" fill="#999"/>
    <rect id="Rectángulo_9414" data-name="Rectángulo 9414" width="8.594" height="1.74" transform="translate(1371.302 7641.977) rotate(-67.638)" fill="#999"/>
    <path id="Trazado_105097" data-name="Trazado 105097" d="M1301.6,7613c-12.483-14.484-27.739-13.375-27.887-13.358l-.146-1.731c.666-.061,16.3-1.187,29.351,13.955Z" transform="translate(99.532 1.84)" fill="#999"/>
    <path id="Trazado_105098" data-name="Trazado 105098" d="M1256.536,7880.107l-3.477-.013,1.005-229.218,17.146-34.509,3.114,1.548-16.786,33.783Z" transform="translate(84.385 15.5)" fill="red"/>
    <g id="Grupo_54981" data-name="Grupo 54981" transform="translate(1317.241 7888.963)">
      <g id="Grupo_54980" data-name="Grupo 54980">
        <g id="Grupo_54979" data-name="Grupo 54979">
          <path id="Trazado_105099" data-name="Trazado 105099" d="M1265.015,7813.454l.217-1.865s-3.555-15.1-6.247-26.3c-2.26-.958-4.3-1.829-5.906-2.523Z" transform="translate(-1232.841 -7750.565)" fill="#b3b3b3"/>
          <path id="Trazado_105100" data-name="Trazado 105100" d="M1256.645,7794.98c.163-8.532,6.156-15.03,6.591-15.49a8.6,8.6,0,0,0,2.829-8.044,8.926,8.926,0,0,0-3.065-5.478,7.089,7.089,0,0,0-5.709-1.634,6.907,6.907,0,0,0-1.874.588,8.335,8.335,0,0,0-4.206,8.934l.01.044-.036-.04,2.952,23.135-.008.01,2.543.025C1256.676,7795.894,1256.667,7795.156,1256.645,7794.98Zm-3.029-21.515a5.882,5.882,0,0,1,2.862-6.346,4.2,4.2,0,0,1,1.2-.377,4.689,4.689,0,0,1,3.767,1.105,6.48,6.48,0,0,1,2.213,3.988,5.893,5.893,0,0,1-2.86,6.348,4.341,4.341,0,0,1-1.2.379,4.707,4.707,0,0,1-3.768-1.1A6.5,6.5,0,0,1,1253.616,7773.465Z" transform="translate(-1234.312 -7764.245)"/>
          <path id="Trazado_105101" data-name="Trazado 105101" d="M1241.641,7775.423a8.549,8.549,0,0,0,5.715,6.552c.861.427,8.38,4.3,11.521,12.037.327,1.3,13.523,32.115,13.523,32.115l1.132,1.093-7.787-30-3.8-2.235-5.5-22.2c-.026-.147-.045-.3-.075-.445a8.3,8.3,0,0,0-7.214-6.835h0a6.785,6.785,0,0,0-1.874.129,7.087,7.087,0,0,0-4.745,3.571A8.907,8.907,0,0,0,1241.641,7775.423Zm21.831,22.037a1.286,1.286,0,1,1-1.375,1.191A1.289,1.289,0,0,1,1263.472,7797.46Zm-18.811-27.057a4.7,4.7,0,0,1,3.121-2.384,4.514,4.514,0,0,1,1.2-.082,5.866,5.866,0,0,1,5,4.9,6.5,6.5,0,0,1-.636,4.52,4.681,4.681,0,0,1-3.121,2.383,4.4,4.4,0,0,1-1.2.082,5.869,5.869,0,0,1-5-4.9A6.516,6.516,0,0,1,1244.661,7770.4Z" transform="translate(-1241.438 -7763.324)"/>
        </g>
      </g>
    </g>
    <path id="Trazado_105102" data-name="Trazado 105102" d="M1183.048,7620.877c-18.65,0-24.387-4.963-24.633-5.184l.869-.971c.059.053,6.17,5.246,26.162,4.824,19.957-.44,25.521-4.8,25.573-4.839l.834,1c-.229.191-5.828,4.688-26.379,5.141C1184.644,7620.87,1183.834,7620.877,1183.048,7620.877Z" transform="translate(14.484 14.274)" fill="#999"/>
    <path id="Trazado_105103" data-name="Trazado 105103" d="M1200.749,7606.151c-.054-.069-5.578-6.861-18.523-6.861-.2,0-.4,0-.607.007-13.35.219-17.935,6.752-17.981,6.818l-1.081-.729c.195-.292,4.952-7.163,19.041-7.394,14.022-.189,19.935,7.046,20.177,7.356Z" transform="translate(17.542 1.926)" fill="#999"/>
    <rect id="Rectángulo_9415" data-name="Rectángulo 9415" width="1.304" height="4.874" transform="translate(1198.479 7595.807)" fill="#999"/>
  </g>
</svg>
