<svg xmlns="http://www.w3.org/2000/svg" width="43.369" height="38.965" viewBox="0 0 43.369 38.965">
  <g id="Grupo_57681" data-name="Grupo 57681" transform="translate(-153.735 -4574.273)">
    <path id="Trazado_117840" data-name="Trazado 117840" d="M197.778,4597.5a.847.847,0,1,0,.848.847A.847.847,0,0,0,197.778,4597.5Z" transform="translate(-11.685 -6.283)" fill="#0ac4bf"/>
    <path id="Trazado_117841" data-name="Trazado 117841" d="M188.634,4580.067v-4.946a.847.847,0,0,0-.847-.847H163.053a.847.847,0,0,0-.847.847v4.946l-8.428,25.551a.845.845,0,0,0,.29.938c.892.683,2.833,1.327,5.92,1.962l-.195.822a.846.846,0,0,0,.665,1.027,64.467,64.467,0,0,0,6.98.893l-.105.8a.847.847,0,0,0,.783.956c3.113.209,6.377.226,7.3.226s4.191-.016,7.3-.226a.849.849,0,0,0,.783-.956l-.105-.8a64.428,64.428,0,0,0,6.979-.893.847.847,0,0,0,.666-1.027l-.195-.822c3.086-.636,5.028-1.279,5.92-1.962a.845.845,0,0,0,.29-.937Zm-24.734-4.1h23.04v3.388H163.9Zm-8.3,29.536,8.067-24.454H166.5l-6.12,25.819A22.068,22.068,0,0,1,155.6,4605.5Zm12.641-24.454h3.165l-3.747,28.527c-2.188-.168-4.2-.409-6.011-.717Zm7.18,30.494c-.824,0-3.523-.013-6.29-.167l3.983-30.327h4.613l3.879,29.541.1.787C178.942,4611.532,176.244,4611.545,175.42,4611.545Zm15.041-4.675-2.774-11.7a.847.847,0,0,0-1.649.391l3.154,13.3c-1.808.309-3.823.549-6.012.717l-3.747-28.527H182.6l1.876,7.913a.847.847,0,0,0,1.648-.391l-1.783-7.522h2.833l8.067,24.455A22.149,22.149,0,0,1,190.462,4606.87Z" fill="#0ac4bf"/>
  </g>
</svg>
