<svg xmlns="http://www.w3.org/2000/svg" width="122.614" height="373.571" viewBox="0 0 122.614 373.571">
  <g id="Grupo_55113" data-name="Grupo 55113" transform="translate(-848.098 -9087.569)">
    <rect id="Rectángulo_9471" data-name="Rectángulo 9471" width="11.315" height="58.183" transform="translate(911.237 9402.958)" fill="#999"/>
    <g id="Grupo_55113-2" data-name="Grupo 55113" transform="translate(848.098 9087.569)">
      <path id="Trazado_105413" data-name="Trazado 105413" d="M938.417,9100.435s-10.706-12.572-33.092-12.491c0,0-7.462,18.412-9.977,22.549s-2.759,6.57-7.95,6.813-15.491,0-15.491,0-16.384-1.7-22.062,15.006,7.948,33.013,7.948,33.013,7.3,13.544,9.084,22.71,9.815,30.66,9.815,30.66,8.192,20.2,1.785,30.739-13.546,28.633-13.546,28.633-10.949,17.952-6.624,48.232,7.137,73.107,7.137,73.107,12.545,14.924,37.852,14.491,47.152-14.708,52.992-27.253l3.676-41.095s3.678-36.554-1.3-63.158a219.04,219.04,0,0,0-6.057-28.767c-4.217-14.6,6.6-41.529,6.6-41.529s11.571-13.843,10.922-23.358-9.517-16.547-11.247-19.25-1.231-7.354-1.318-9.733.886-6.381-5.171-10.49-17.412-9.409-17.52-19.683S936.984,9102.976,938.417,9100.435Z" transform="translate(-848.009 -9087.477)" fill="#fff"/>
      <path id="Trazado_105414" data-name="Trazado 105414" d="M902.323,9414.463c-24.529,0-37.021-14.517-37.146-14.666l-.1-.117-.01-.152c-.027-.429-2.86-43.155-7.134-73.071-4.3-30.1,6.577-48.36,6.687-48.542.036-.109,7.19-18.174,13.545-28.631,6.212-10.222-1.736-30.123-1.818-30.323-.084-.228-8.069-21.649-9.84-30.746-1.75-8.992-8.964-22.443-9.037-22.578-.086-.089-13.676-16.622-7.979-33.384,5.73-16.863,22.381-15.334,22.552-15.319.065,0,10.305.239,15.422,0,4.006-.187,4.8-1.637,6.394-4.524.347-.632.728-1.321,1.179-2.063,2.465-4.058,9.867-22.3,9.942-22.482l.118-.29h.527c22.2,0,33.125,12.526,33.234,12.655l.211.248-.16.284c-1.291,2.29-3.591,18.412-3.481,28.91.09,8.473,8.283,13.6,14.264,17.344,1.1.688,2.137,1.337,3.052,1.958,5.491,3.725,5.422,7.438,5.375,9.895-.005.347-.011.668,0,.965.017.489.011,1.074,0,1.72-.026,2.424-.062,5.742,1.24,7.777a23.551,23.551,0,0,0,2.128,2.507c3.249,3.554,8.683,9.5,9.192,16.965.639,9.377-10.054,22.512-10.982,23.631-.593,1.506-10.579,27.232-6.556,41.157a221.349,221.349,0,0,1,6.072,28.838c4.926,26.338,1.336,62.9,1.3,63.264l-3.717,41.246c-6.006,12.9-28.132,27.089-53.406,27.522C903.034,9414.461,902.676,9414.463,902.323,9414.463Zm-36.335-15.157c1.205,1.343,13.4,14.225,36.334,14.225.352,0,.7,0,1.055-.008,24.866-.426,46.606-14.284,52.544-26.911l3.669-41.012c.036-.371,3.613-36.8-1.291-63.031a220.828,220.828,0,0,0-6.047-28.724c-4.215-14.585,6.169-40.727,6.613-41.831l.075-.125c.114-.138,11.443-13.81,10.815-23.028-.488-7.139-5.784-12.936-8.95-16.4a23.631,23.631,0,0,1-2.224-2.632c-1.454-2.271-1.417-5.751-1.389-8.291.008-.628.014-1.2,0-1.677-.011-.312-.005-.65,0-1.014.046-2.392.106-5.665-4.967-9.107-.905-.615-1.932-1.258-3.022-1.938-6.164-3.859-14.606-9.143-14.7-18.125-.1-9.9,1.974-25.654,3.451-29.068-1.566-1.663-12.171-12.072-32.22-12.106-1,2.451-7.532,18.438-9.893,22.323-.444.732-.817,1.41-1.158,2.03-1.591,2.887-2.64,4.795-7.167,5.008-5.148.236-15.423,0-15.525,0-.694-.064-16.121-1.463-21.608,14.689-5.527,16.262,7.729,32.4,7.864,32.563.126.213,7.407,13.789,9.185,22.919,1.756,9.022,9.713,30.372,9.794,30.587.332.819,8.2,20.523,1.745,31.145-6.313,10.39-13.439,28.381-13.51,28.562-.144.251-10.846,18.251-6.6,48C863,9355.354,865.794,9396.414,865.987,9399.306Z" transform="translate(-848.098 -9087.569)" fill="#999"/>
    </g>
    <path id="Trazado_105415" data-name="Trazado 105415" d="M966.393,9170.8c-6.167-1.916-31.045-5.787-31.295-5.826-36.125-2.98-71.3,5.35-71.649,5.434l-.219-.906c.353-.086,35.66-8.447,71.977-5.453,1.06.164,25.229,3.926,31.461,5.859Z" transform="translate(3.688 18.478)" fill="#999"/>
    <path id="Trazado_105416" data-name="Trazado 105416" d="M921.066,9218.85c-20.559,0-32.119-2.025-34.558-3.047s-11.735-2.793-11.83-2.812l.174-.914c.386.072,9.484,1.8,12.016,2.867,2.474,1.037,14.653,3.135,36.558,2.963,20.485-.152,22.266-.3,22.4-.318l.182.912c-.338.086-6.448.221-22.577.34Q922.231,9218.849,921.066,9218.85Z" transform="translate(6.477 30.34)" fill="#999"/>
    <path id="Trazado_105417" data-name="Trazado 105417" d="M905.178,9282.462q-.709,0-1.43,0c-38.738-.162-48.112-13.825-48.492-14.407l.78-.512c.091.139,9.563,13.827,47.718,13.985.484,0,.966,0,1.443,0,39.724,0,50.663-6.916,53.533-9.915l.675.644C956.45,9275.346,945.274,9282.462,905.178,9282.462Z" transform="translate(1.744 43.857)" fill="#999"/>
    <path id="Trazado_105418" data-name="Trazado 105418" d="M870.587,9387.988l-5.569-75.432c-.025-.172-2.867-20.545,2.811-36.687,5.636-16.031,10.84-31.951,10.892-32.111a62.766,62.766,0,0,0,3.389-33.355c-3.438-20.111-9.713-40.514-14.409-51.811l.863-.357c4.714,11.346,11.015,31.828,14.467,52.01a63.684,63.684,0,0,1-3.443,33.852c-.032.111-5.238,16.041-10.88,32.082-5.6,15.924-2.792,36.076-2.763,36.277l5.573,75.465Z" transform="translate(3.945 17.221)" fill="#999"/>
    <path id="Trazado_105419" data-name="Trazado 105419" d="M917.372,9403.326l-.933-.018.811-44.12,1.785-117.122c.16-36.95,1.606-42.657,4.775-55.163l.107-.424c3.148-12.436-2.147-20.143-2.2-20.218-15.216-20.821-44.926-53.484-45.224-53.811l.69-.629c.3.327,30.041,33.027,45.291,53.895.234.331,5.607,8.115,2.347,20.992l-.107.424c-3.149,12.43-4.587,18.1-4.746,54.943L918.183,9359.2Z" transform="translate(6.919 5.91)" fill="#999"/>
    <path id="Trazado_105420" data-name="Trazado 105420" d="M924.137,9132.191a5.823,5.823,0,0,1-1.793-.274c-21.24-6.193-39.3-20.7-39.484-20.844l.588-.725c.179.146,18.1,14.533,39.175,20.677.147.05,3.327,1.06,4.817-1.563l.811.459A4.509,4.509,0,0,1,924.137,9132.191Z" transform="translate(8.471 5.551)" fill="#999"/>
    <path id="Trazado_105421" data-name="Trazado 105421" d="M926.375,9103.5s-3.564-1.675-7.452-3.471c-11.555-5.339-26.074-7.082-26.219-7.1l.109-.926c.146.016,14.808,1.773,26.5,7.177,3.89,1.8,7.457,3.474,7.457,3.474Z" transform="translate(10.87 1.081)" fill="#999"/>
    <path id="Trazado_105422" data-name="Trazado 105422" d="M930.6,9395.564l-.933-.031,1.948-55.479c2.49-29.389,1.688-70.117.326-89.66a161.4,161.4,0,0,1,2.6-39.875c.627-26.086-5.692-40.664-5.757-40.807-.045-.148-2.173-8.051-10.38-26.389-8.29-18.518-3.78-44.617-3.733-44.877l.918.162c-.046.26-4.5,26.082,3.665,44.334,8.248,18.424,10.387,26.383,10.408,26.461.04.074,6.445,14.822,5.8,41.225a160.992,160.992,0,0,0-2.6,39.7c1.364,19.57,2.168,60.365-.325,89.779Z" transform="translate(15.915 2.651)" fill="#999"/>
    <path id="Trazado_105423" data-name="Trazado 105423" d="M869.748,9171.922c-4.736,0-11.071-5.345-11.938-6.1l1.628-1.88c2.9,2.51,9.589,7.033,11.745,5.009l.343-.323c3.837-3.585,14.029-13.112,11.171-34.945-.014-.247-.579-12.917-11.163-20.4l1.435-2.029c11.619,8.21,12.186,21.657,12.2,22.226,3.013,22.979-7.856,33.142-11.948,36.965l-.337.318A4.426,4.426,0,0,1,869.748,9171.922Z" transform="translate(2.367 5.773)" fill="red"/>
  </g>
</svg>
