<svg xmlns="http://www.w3.org/2000/svg" width="91.993" height="385.183" viewBox="0 0 91.993 385.183">
  <g id="Grupo_55115" data-name="Grupo 55115" transform="translate(-880.399 -9079.864)">
    <path id="Trazado_105425" data-name="Trazado 105425" d="M929.059,9098.761c-13.257-15.38-29.451-14.194-29.612-14.184l-.155-1.839c.713-.056,17.306-1.26,31.166,14.817Z" transform="translate(15.986 2.398)" fill="#999"/>
    <rect id="Rectángulo_9472" data-name="Rectángulo 9472" width="10.836" height="66.219" transform="translate(913.84 9398.826)" fill="#999"/>
    <g id="Grupo_55114" data-name="Grupo 55114" transform="translate(880.399 9079.864)">
      <path id="Trazado_105426" data-name="Trazado 105426" d="M947.607,9096.029s-5.378-14.608-29.778-15.652l-15.251,32.188s-17.579,26.488-13.726,43.583,5.778,40.455,5.778,40.455,8.188,33.47,1.446,50.566-12.522,35.64-12.522,35.64-5.057,10.593-1.2,43.341,4.334,55.865,4.334,55.865,4.7,15.895,39.131,15.895,36.359-20.106,36.359-20.106l2.769-116.105s-3.05-17.5-3.371-28.574,2.889-35,5.62-40.776,3.853-9.953,3.853-13.8-2.409-9.473-9.312-16.855-18.3-21.514-19.425-40.776A52.486,52.486,0,0,1,947.607,9096.029Z" transform="translate(-879.973 -9079.429)" fill="#fff"/>
      <path id="Trazado_105427" data-name="Trazado 105427" d="M926.24,9399.268c-34.724,0-39.813-15.878-40.013-16.553l-.039-.242c-.006-.23-.524-23.453-4.327-55.775-3.84-32.64,1.076-43.408,1.289-43.853.009-.061,5.817-18.645,12.495-35.578,6.557-16.626-1.4-49.676-1.481-50.008-.044-.376-1.992-23.636-5.784-40.471-3.9-17.283,13.128-43.206,13.855-44.3l15.448-32.625.611.025c24.731,1.058,30.378,15.636,30.605,16.255l.138.377-.179.356a52.031,52.031,0,0,0-5.2,24.4c.816,13.945,7.268,27.472,19.181,40.215,7.9,8.451,9.557,14.173,9.557,17.486,0,4.051-1.215,8.43-3.94,14.2-2.6,5.5-5.852,29.256-5.529,40.353.314,10.887,3.327,28.271,3.356,28.445l-2.754,116.285C963.5,9378.537,961.111,9399.268,926.24,9399.268Zm-38.209-16.979c.486,1.3,6.413,15.134,38.209,15.134,33.107,0,35.364-18.487,35.444-19.274l2.766-116.036h0c-.018,0-3.054-17.513-3.371-28.525-.334-11.537,2.972-35.408,5.7-41.2,2.6-5.509,3.764-9.646,3.764-13.41,0-2.982-1.571-8.217-9.061-16.225-12.214-13.068-18.834-26.979-19.672-41.351a52.95,52.95,0,0,1,5.2-24.964c-1.008-2.148-7.333-13.57-28.19-14.678l-14.987,31.632c-.24.377-17.381,26.475-13.661,42.984,3.825,16.967,5.782,40.351,5.8,40.586.314,1.234,8.156,33.809,1.383,50.98-6.654,16.869-12.439,35.39-12.5,35.573-.094.226-4.929,11-1.167,42.962C887.351,9357.562,887.981,9380.265,888.031,9382.289Z" transform="translate(-880.399 -9079.864)" fill="#999"/>
    </g>
    <path id="Trazado_105428" data-name="Trazado 105428" d="M934.932,9116.974c-26.132-14.027-43.415-15.763-43.587-15.781l.17-1.838c.713.063,17.789,1.765,44.29,15.99Z" transform="translate(9.261 16.493)" fill="#999"/>
    <path id="Trazado_105429" data-name="Trazado 105429" d="M911.932,9155.013c-1.137,0-15.48-.389-21.19-18.83-3.7-11.949-.109-19.682,2.361-23.227,2.915-4.185,7.277-7.021,11.113-7.229l.089,0,.089.012c.214.031,21.375,3.23,21.624,23.178.231,18.7-6.471,23.572-13.748,26.047l-.267.052Zm-7.706-47.437c-2.7.188-6.683,2.234-9.609,6.438-3.932,5.645-4.682,13.323-2.112,21.623,5.265,17,17.8,17.53,19.308,17.53,6.124-2.107,12.583-5.965,12.358-24.23C923.948,9111.026,905.844,9107.827,904.227,9107.575Z" transform="translate(7.407 21.879)" fill="#999"/>
    <rect id="Rectángulo_9473" data-name="Rectángulo 9473" width="9.125" height="1.848" transform="translate(914.371 9129.033) rotate(-67.638)" fill="red"/>
    <path id="Trazado_105430" data-name="Trazado 105430" d="M929.6,9098.253c-13.22-15.338-29.444-14.2-29.612-14.179l-.155-1.84c.7-.069,17.3-1.271,31.166,14.815Z" transform="translate(16.445 1.968)" fill="#999"/>
    <path id="Trazado_105431" data-name="Trazado 105431" d="M901.664,9353.513H900.28v-89.2l2.946-29.688,4.174-39.6c2.684-28.062-5.52-61.929-5.6-62.265l1.344-.332c.083.342,8.343,34.427,5.634,62.738l-4.174,39.6-2.943,29.615Z" transform="translate(16.822 44.479)" fill="#999"/>
    <path id="Trazado_105432" data-name="Trazado 105432" d="M887.786,9139.127l-.362-1.338c.655-.176,16.761-4.36,77.9-4.6l0,1.385C904.475,9134.811,887.946,9139.083,887.786,9139.127Z" transform="translate(5.944 45.12)" fill="#999"/>
    <rect id="Rectángulo_9474" data-name="Rectángulo 9474" width="69.815" height="1.385" transform="translate(895.294 9202.533) rotate(-0.895)" fill="#999"/>
    <path id="Trazado_105433" data-name="Trazado 105433" d="M945.645,9171.092c-27.817,0-54.892-5.605-55.192-5.67l.284-1.354c.331.069,33.175,6.872,63.569,5.442l.065,1.384C951.475,9171.031,948.555,9171.092,945.645,9171.092Z" transform="translate(8.508 71.246)" fill="#999"/>
    <path id="Trazado_105434" data-name="Trazado 105434" d="M936.292,9192.53c-34.437,0-51.876-7.951-52.086-8.05l.587-1.257c.255.122,26.137,11.9,77.376,6.523l.144,1.377A249.5,249.5,0,0,1,936.292,9192.53Z" transform="translate(3.221 87.456)" fill="#999"/>
    <path id="Trazado_105435" data-name="Trazado 105435" d="M938.492,9209.149c-36.646,0-57.664-8.023-57.918-8.124l.506-1.288c.3.119,31.245,11.92,83.688,6.7l.137,1.378C955.382,9208.762,946.556,9209.149,938.492,9209.149Z" transform="translate(0.148 101.427)" fill="#999"/>
  </g>
</svg>
