<svg xmlns="http://www.w3.org/2000/svg" width="396" height="266.187" viewBox="0 0 396 266.187">
  <g id="Grupo_55347" data-name="Grupo 55347" transform="translate(-736.361 -7302.106)">
    <rect id="Rectángulo_9556" data-name="Rectángulo 9556" width="266.187" height="396" transform="translate(736.361 7568.292) rotate(-90)" fill="#dcdcde"/>
    <rect id="Rectángulo_9557" data-name="Rectángulo 9557" width="197.833" height="290.176" transform="translate(780.195 7541.365) rotate(-90)" fill="#f7f2e6"/>
    <rect id="Rectángulo_9558" data-name="Rectángulo 9558" width="262.356" height="2.291" transform="translate(802.041 7494.429)" fill="#333"/>
    <rect id="Rectángulo_9559" data-name="Rectángulo 9559" width="235.341" height="2.291" transform="translate(829.055 7519.931)" fill="#333"/>
    <rect id="Rectángulo_9560" data-name="Rectángulo 9560" width="2.291" height="177.975" transform="translate(795.963 7353.461)" fill="#333"/>
    <g id="Grupo_55334" data-name="Grupo 55334" transform="translate(757.789 7433.964)">
      <rect id="Rectángulo_9561" data-name="Rectángulo 9561" width="18.391" height="2.291" transform="translate(0 7.339)" fill="#333"/>
      <g id="Grupo_55333" data-name="Grupo 55333" transform="translate(11.956)">
        <path id="Trazado_106125" data-name="Trazado 106125" d="M765.5,7434.178l3.6-8.484-3.6-8.484,20.112,8.484Z" transform="translate(-765.503 -7417.209)" fill="#333"/>
      </g>
    </g>
    <g id="Grupo_55337" data-name="Grupo 55337" transform="translate(1075.835 7362.406)">
      <rect id="Rectángulo_9562" data-name="Rectángulo 9562" width="2.291" height="117.371" transform="translate(7.339 13.677)" fill="#333"/>
      <g id="Grupo_55335" data-name="Grupo 55335" transform="translate(0)">
        <path id="Trazado_106126" data-name="Trazado 106126" d="M1032.7,7374.856l8.484-3.6,8.484,3.6-8.484-20.112Z" transform="translate(-1032.7 -7354.744)" fill="#333"/>
      </g>
      <g id="Grupo_55336" data-name="Grupo 55336" transform="translate(0 124.612)">
        <path id="Trazado_106127" data-name="Trazado 106127" d="M1032.7,7463.522l8.484,3.6,8.484-3.6-8.484,20.112Z" transform="translate(-1032.7 -7463.522)" fill="#333"/>
      </g>
    </g>
    <g id="Grupo_55343" data-name="Grupo 55343" transform="translate(829.056 7316.565)">
      <g id="Grupo_55339" data-name="Grupo 55339" transform="translate(122.475)">
        <rect id="Rectángulo_9563" data-name="Rectángulo 9563" width="56.303" height="2.291" transform="translate(0 7.338)" fill="#333"/>
        <g id="Grupo_55338" data-name="Grupo 55338" transform="translate(49.867)">
          <path id="Trazado_106128" data-name="Trazado 106128" d="M967.721,7331.7l3.6-8.484-3.6-8.484,20.112,8.484Z" transform="translate(-967.721 -7314.728)" fill="#333"/>
        </g>
      </g>
      <g id="Grupo_55341" data-name="Grupo 55341">
        <rect id="Rectángulo_9564" data-name="Rectángulo 9564" width="59.838" height="2.291" transform="translate(13.678 7.338)" fill="#333"/>
        <g id="Grupo_55340" data-name="Grupo 55340">
          <path id="Trazado_106129" data-name="Trazado 106129" d="M837.39,7314.728l-3.6,8.484,3.6,8.484-20.112-8.484Z" transform="translate(-817.278 -7314.728)" fill="#333"/>
        </g>
      </g>
      <g id="Grupo_55342" data-name="Grupo 55342" transform="translate(79.451 4.209)">
        <path id="Trazado_106130" data-name="Trazado 106130" d="M888.3,7321.613h.842a1.025,1.025,0,0,0,.792-.279,1.111,1.111,0,0,0,.257-.779,1.009,1.009,0,0,0-.257-.724.975.975,0,0,0-.745-.271,1.048,1.048,0,0,0-.709.246.812.812,0,0,0-.287.647h-1.455l-.009-.031a1.7,1.7,0,0,1,.672-1.449,2.683,2.683,0,0,1,1.747-.57,2.866,2.866,0,0,1,1.852.556,1.911,1.911,0,0,1,.691,1.581,1.594,1.594,0,0,1-.308.929,2.069,2.069,0,0,1-.848.686,1.9,1.9,0,0,1,.947.677,1.785,1.785,0,0,1,.326,1.063,1.947,1.947,0,0,1-.747,1.617,3,3,0,0,1-1.914.588,2.932,2.932,0,0,1-1.79-.551,1.773,1.773,0,0,1-.723-1.561l.011-.031H888.1a.913.913,0,0,0,.308.708,1.121,1.121,0,0,0,.781.278,1.136,1.136,0,0,0,.819-.287,1.026,1.026,0,0,0,.3-.778,1.128,1.128,0,0,0-.3-.864,1.236,1.236,0,0,0-.872-.275H888.3Z" transform="translate(-886.633 -7318.402)"/>
        <path id="Trazado_106131" data-name="Trazado 106131" d="M892.218,7322.663l.431-4.166h4.171v1.2h-2.943l-.206,1.727a1.807,1.807,0,0,1,.5-.254,2.043,2.043,0,0,1,.646-.105,2.079,2.079,0,0,1,1.673.652,2.7,2.7,0,0,1,.593,1.86,2.557,2.557,0,0,1-.65,1.792,2.4,2.4,0,0,1-1.872.714,2.811,2.811,0,0,1-1.768-.565,1.783,1.783,0,0,1-.709-1.552l.009-.025,1.445-.072a1.051,1.051,0,0,0,.282.779,1.008,1.008,0,0,0,.741.279.868.868,0,0,0,.773-.371,1.729,1.729,0,0,0,.247-.973,1.807,1.807,0,0,0-.266-1.036.9.9,0,0,0-.792-.39,1.157,1.157,0,0,0-.661.159.88.88,0,0,0-.325.432Z" transform="translate(-885.84 -7318.388)"/>
        <path id="Trazado_106132" data-name="Trazado 106132" d="M902.014,7324.7a.891.891,0,0,0,.643-.23.828.828,0,0,0,.242-.622h1.361l.016.03a1.731,1.731,0,0,1-.635,1.411,2.679,2.679,0,0,1-3.543-.218,3,3,0,0,1-.672-2.019v-.154a3.016,3.016,0,0,1,.67-2.019,2.37,2.37,0,0,1,1.914-.792,2.335,2.335,0,0,1,1.658.586,1.942,1.942,0,0,1,.608,1.541l-.01.031H902.9a1.092,1.092,0,0,0-.236-.718.807.807,0,0,0-.653-.284.869.869,0,0,0-.84.461,2.527,2.527,0,0,0-.244,1.19v.155a2.513,2.513,0,0,0,.244,1.2A.876.876,0,0,0,902.014,7324.7Z" transform="translate(-884.771 -7318.157)"/>
        <path id="Trazado_106133" data-name="Trazado 106133" d="M905.8,7320.188l.062.734a1.854,1.854,0,0,1,.67-.618,1.905,1.905,0,0,1,.933-.219,1.687,1.687,0,0,1,.914.237,1.446,1.446,0,0,1,.575.714,1.937,1.937,0,0,1,.668-.7,1.811,1.811,0,0,1,.967-.252,1.6,1.6,0,0,1,1.3.568,2.644,2.644,0,0,1,.475,1.728v3.365h-1.5v-3.377a1.413,1.413,0,0,0-.205-.88.747.747,0,0,0-.612-.247,1,1,0,0,0-.926.534c0,.066,0,.122.006.169s.006.094.006.141v3.661h-1.5v-3.377a1.43,1.43,0,0,0-.2-.875.753.753,0,0,0-.616-.253,1.171,1.171,0,0,0-.533.115,1.026,1.026,0,0,0-.377.327v4.063h-1.5v-5.558Z" transform="translate(-884.047 -7318.157)"/>
        <path id="Trazado_106134" data-name="Trazado 106134" d="M915.386,7324.214a.526.526,0,0,0-.239-.427,2.424,2.424,0,0,0-.886-.317,3.57,3.57,0,0,1-1.487-.594,1.286,1.286,0,0,1-.5-1.071,1.534,1.534,0,0,1,.6-1.221,2.456,2.456,0,0,1,1.616-.5,2.655,2.655,0,0,1,1.693.5,1.469,1.469,0,0,1,.6,1.258l-.01.03H915.33a.729.729,0,0,0-.213-.542,1.018,1.018,0,0,0-1.2-.034.559.559,0,0,0-.208.443.5.5,0,0,0,.219.422,2.348,2.348,0,0,0,.885.292,3.577,3.577,0,0,1,1.526.606,1.322,1.322,0,0,1,.5,1.1,1.459,1.459,0,0,1-.643,1.226,2.782,2.782,0,0,1-1.694.474,2.574,2.574,0,0,1-1.754-.561,1.576,1.576,0,0,1-.615-1.282l.01-.032h1.372a.779.779,0,0,0,.292.648,1.211,1.211,0,0,0,.724.2,1.051,1.051,0,0,0,.636-.165A.532.532,0,0,0,915.386,7324.214Z" transform="translate(-882.922 -7318.157)"/>
      </g>
    </g>
    <g id="Grupo_55344" data-name="Grupo 55344" transform="translate(746.093 7418.937)">
      <path id="Trazado_106135" data-name="Trazado 106135" d="M746.6,7407.45h.88a1.073,1.073,0,0,0,.828-.292,1.161,1.161,0,0,0,.268-.814,1.064,1.064,0,0,0-.268-.759,1.022,1.022,0,0,0-.779-.284,1.1,1.1,0,0,0-.741.258.848.848,0,0,0-.3.678h-1.521l-.01-.034a1.784,1.784,0,0,1,.7-1.515,2.81,2.81,0,0,1,1.827-.6,3,3,0,0,1,1.937.581,2,2,0,0,1,.723,1.654,1.659,1.659,0,0,1-.322.971,2.142,2.142,0,0,1-.887.717,1.983,1.983,0,0,1,.991.71,1.859,1.859,0,0,1,.342,1.111,2.033,2.033,0,0,1-.782,1.69,3.141,3.141,0,0,1-2,.615,3.055,3.055,0,0,1-1.873-.579,1.843,1.843,0,0,1-.755-1.629l.011-.032h1.52a.952.952,0,0,0,.323.74,1.176,1.176,0,0,0,.817.291,1.19,1.19,0,0,0,.857-.3,1.075,1.075,0,0,0,.315-.815,1.179,1.179,0,0,0-.309-.9,1.3,1.3,0,0,0-.912-.287h-.88Z" transform="translate(-744.856 -7404.091)"/>
      <path id="Trazado_106136" data-name="Trazado 106136" d="M755.433,7410.676a.922.922,0,0,0,.671-.243.857.857,0,0,0,.252-.648h1.424l.016.031a1.808,1.808,0,0,1-.663,1.476,2.8,2.8,0,0,1-3.7-.229,3.13,3.13,0,0,1-.7-2.112v-.161a3.151,3.151,0,0,1,.7-2.112,2.478,2.478,0,0,1,2-.829,2.432,2.432,0,0,1,1.732.614,2.031,2.031,0,0,1,.637,1.612l-.01.032h-1.43a1.133,1.133,0,0,0-.247-.749.835.835,0,0,0-.682-.3.91.91,0,0,0-.879.484,2.661,2.661,0,0,0-.257,1.245v.162a2.651,2.651,0,0,0,.257,1.252A.917.917,0,0,0,755.433,7410.676Z" transform="translate(-743.711 -7403.835)"/>
      <path id="Trazado_106137" data-name="Trazado 106137" d="M759.388,7405.957l.064.769a1.96,1.96,0,0,1,.7-.646,2.006,2.006,0,0,1,.975-.23,1.78,1.78,0,0,1,.957.248,1.533,1.533,0,0,1,.6.748,1.993,1.993,0,0,1,.7-.731,1.9,1.9,0,0,1,1.01-.265,1.675,1.675,0,0,1,1.356.595,2.769,2.769,0,0,1,.5,1.809v3.519h-1.569v-3.533a1.48,1.48,0,0,0-.215-.921.781.781,0,0,0-.638-.259,1.091,1.091,0,0,0-.579.149,1.067,1.067,0,0,0-.39.411c0,.069,0,.127.006.175s.006.1.006.15v3.828h-1.564v-3.533a1.472,1.472,0,0,0-.215-.912.778.778,0,0,0-.645-.269,1.188,1.188,0,0,0-.557.123,1.056,1.056,0,0,0-.394.34v4.25h-1.565v-5.815Z" transform="translate(-742.953 -7403.835)"/>
      <path id="Trazado_106138" data-name="Trazado 106138" d="M769.42,7410.172a.548.548,0,0,0-.25-.447,2.539,2.539,0,0,0-.927-.333,3.736,3.736,0,0,1-1.557-.621,1.348,1.348,0,0,1-.523-1.119,1.6,1.6,0,0,1,.632-1.277,2.563,2.563,0,0,1,1.69-.525,2.77,2.77,0,0,1,1.77.523,1.537,1.537,0,0,1,.632,1.316l-.011.032h-1.516a.763.763,0,0,0-.222-.569,1.07,1.07,0,0,0-1.252-.034.582.582,0,0,0-.218.464.53.53,0,0,0,.228.441,2.5,2.5,0,0,0,.927.307,3.763,3.763,0,0,1,1.6.63,1.39,1.39,0,0,1,.521,1.147,1.532,1.532,0,0,1-.672,1.282,2.911,2.911,0,0,1-1.773.5,2.692,2.692,0,0,1-1.835-.589,1.648,1.648,0,0,1-.643-1.341l.011-.031h1.435a.813.813,0,0,0,.306.677,1.262,1.262,0,0,0,.758.209,1.082,1.082,0,0,0,.663-.173A.55.55,0,0,0,769.42,7410.172Z" transform="translate(-741.776 -7403.835)"/>
    </g>
    <g id="Grupo_55345" data-name="Grupo 55345" transform="translate(977.91 7501.479)">
      <path id="Trazado_106139" data-name="Trazado 106139" d="M954.6,7486.858h-7.209v-1.385l3.415-3.663a8.135,8.135,0,0,0,1.052-1.433,2.324,2.324,0,0,0,.313-1.085,1.635,1.635,0,0,0-.36-1.092,1.262,1.262,0,0,0-1.018-.424,1.32,1.32,0,0,0-1.114.5,2.121,2.121,0,0,0-.38,1.324h-2.06l-.015-.043a3.193,3.193,0,0,1,.939-2.419,3.524,3.524,0,0,1,2.629-.99,3.657,3.657,0,0,1,2.564.85,2.907,2.907,0,0,1,.931,2.262,3.163,3.163,0,0,1-.526,1.766,17.375,17.375,0,0,1-1.736,2.123l-1.88,2.044.015.036H954.6Z" transform="translate(-947.218 -7476.145)"/>
      <path id="Trazado_106140" data-name="Trazado 106140" d="M957.143,7485.633l-1.152,2.285h-1.415l.508-2.352v-1.653h2.06Z" transform="translate(-946.147 -7475.014)"/>
      <path id="Trazado_106141" data-name="Trazado 106141" d="M958.406,7482.161l.608-5.883H964.9v1.7h-4.156l-.29,2.437a2.516,2.516,0,0,1,.7-.36,2.994,2.994,0,0,1,.914-.149,2.938,2.938,0,0,1,2.36.922,3.809,3.809,0,0,1,.838,2.625,3.618,3.618,0,0,1-.918,2.532,3.391,3.391,0,0,1-2.644,1.008,3.971,3.971,0,0,1-2.494-.8,2.516,2.516,0,0,1-1-2.19l.014-.036,2.039-.1a1.481,1.481,0,0,0,.4,1.1,1.419,1.419,0,0,0,1.045.4,1.219,1.219,0,0,0,1.092-.525,2.426,2.426,0,0,0,.352-1.372,2.539,2.539,0,0,0-.377-1.462,1.267,1.267,0,0,0-1.117-.55,1.624,1.624,0,0,0-.931.224,1.226,1.226,0,0,0-.461.61Z" transform="translate(-945.617 -7476.126)"/>
      <path id="Trazado_106142" data-name="Trazado 106142" d="M972.235,7485.032a1.252,1.252,0,0,0,.907-.328,1.159,1.159,0,0,0,.341-.876h1.922l.021.043a2.448,2.448,0,0,1-.9,1.993,3.779,3.779,0,0,1-5-.309,4.229,4.229,0,0,1-.95-2.851v-.218a4.255,4.255,0,0,1,.946-2.85,3.347,3.347,0,0,1,2.7-1.117,3.3,3.3,0,0,1,2.339.828,2.744,2.744,0,0,1,.859,2.175l-.014.043h-1.929a1.533,1.533,0,0,0-.335-1.012,1.128,1.128,0,0,0-.921-.4,1.23,1.23,0,0,0-1.186.653,3.586,3.586,0,0,0-.345,1.679v.218a3.581,3.581,0,0,0,.345,1.691A1.24,1.24,0,0,0,972.235,7485.032Z" transform="translate(-944.108 -7475.799)"/>
      <path id="Trazado_106143" data-name="Trazado 106143" d="M977.574,7478.664l.087,1.038a2.657,2.657,0,0,1,.946-.874,2.709,2.709,0,0,1,1.317-.309,2.408,2.408,0,0,1,1.291.333,2.082,2.082,0,0,1,.812,1.008,2.725,2.725,0,0,1,.943-.986,2.555,2.555,0,0,1,1.362-.355,2.259,2.259,0,0,1,1.832.8,3.735,3.735,0,0,1,.671,2.44v4.75h-2.118v-4.769a2,2,0,0,0-.29-1.243,1.06,1.06,0,0,0-.864-.35,1.476,1.476,0,0,0-.779.2,1.446,1.446,0,0,0-.526.556c0,.092,0,.172.008.236s.006.133.006.2v5.169h-2.109v-4.769a2,2,0,0,0-.291-1.232,1.053,1.053,0,0,0-.871-.361,1.622,1.622,0,0,0-.75.166,1.416,1.416,0,0,0-.533.46v5.736h-2.111v-7.849Z" transform="translate(-943.085 -7475.799)"/>
      <path id="Trazado_106144" data-name="Trazado 106144" d="M991.115,7484.351a.74.74,0,0,0-.338-.6,3.458,3.458,0,0,0-1.251-.451,5.041,5.041,0,0,1-2.1-.837,1.82,1.82,0,0,1-.707-1.513,2.156,2.156,0,0,1,.852-1.72,3.447,3.447,0,0,1,2.281-.709,3.744,3.744,0,0,1,2.39.7,2.078,2.078,0,0,1,.852,1.777l-.014.045h-2.046a1.033,1.033,0,0,0-.3-.77,1.447,1.447,0,0,0-1.69-.047.787.787,0,0,0-.293.627.715.715,0,0,0,.308.6,3.348,3.348,0,0,0,1.251.413,5.073,5.073,0,0,1,2.155.853,1.875,1.875,0,0,1,.7,1.549,2.064,2.064,0,0,1-.907,1.729,3.926,3.926,0,0,1-2.393.671,3.633,3.633,0,0,1-2.477-.794,2.22,2.22,0,0,1-.867-1.81l.015-.043h1.936a1.1,1.1,0,0,0,.414.915,1.716,1.716,0,0,0,1.023.283,1.473,1.473,0,0,0,.895-.232A.748.748,0,0,0,991.115,7484.351Z" transform="translate(-941.497 -7475.799)"/>
    </g>
    <g id="Grupo_55346" data-name="Grupo 55346" transform="translate(1096.916 7436.049)">
      <path id="Trazado_106145" data-name="Trazado 106145" d="M1053.65,7425.417h-1.266v-5.19H1051.1v-.892l2.548-.227Z" transform="translate(-1051.102 -7419.018)"/>
      <path id="Trazado_106146" data-name="Trazado 106146" d="M1059.525,7422.973a2.782,2.782,0,0,1-.574,1.9,2.2,2.2,0,0,1-3.117,0,2.776,2.776,0,0,1-.575-1.9v-1.392a2.8,2.8,0,0,1,.573-1.9,2.185,2.185,0,0,1,3.115,0,2.778,2.778,0,0,1,.579,1.9Zm-1.26-1.522a2.078,2.078,0,0,0-.226-1.1.784.784,0,0,0-1.3,0,2.127,2.127,0,0,0-.22,1.1v1.64a2.117,2.117,0,0,0,.222,1.107.733.733,0,0,0,.657.348.717.717,0,0,0,.645-.348,2.118,2.118,0,0,0,.221-1.107Z" transform="translate(-1050.497 -7419.029)"/>
      <path id="Trazado_106147" data-name="Trazado 106147" d="M1063.69,7424.339a.744.744,0,0,0,.541-.2.691.691,0,0,0,.2-.523h1.148l.014.025a1.461,1.461,0,0,1-.535,1.189,2.258,2.258,0,0,1-2.988-.184,2.528,2.528,0,0,1-.567-1.7v-.13a2.55,2.55,0,0,1,.565-1.7,2,2,0,0,1,1.614-.667,1.972,1.972,0,0,1,1.4.495,1.642,1.642,0,0,1,.513,1.3l-.009.025h-1.152a.908.908,0,0,0-.2-.6.673.673,0,0,0-.55-.24.732.732,0,0,0-.708.39,2.135,2.135,0,0,0-.206,1v.13a2.138,2.138,0,0,0,.206,1.011A.741.741,0,0,0,1063.69,7424.339Z" transform="translate(-1049.587 -7418.823)"/>
      <path id="Trazado_106148" data-name="Trazado 106148" d="M1066.877,7420.534l.053.62a1.58,1.58,0,0,1,.565-.522,1.634,1.634,0,0,1,.787-.184,1.43,1.43,0,0,1,.771.2,1.224,1.224,0,0,1,.485.6,1.641,1.641,0,0,1,.563-.589,1.543,1.543,0,0,1,.815-.212,1.353,1.353,0,0,1,1.094.479,2.238,2.238,0,0,1,.4,1.458v2.837h-1.264v-2.848a1.19,1.19,0,0,0-.174-.744.632.632,0,0,0-.515-.208.841.841,0,0,0-.779.45c0,.057,0,.1,0,.142s0,.08,0,.119v3.087h-1.26v-2.848a1.191,1.191,0,0,0-.174-.737.625.625,0,0,0-.52-.214.988.988,0,0,0-.448.1.843.843,0,0,0-.318.276v3.425h-1.26v-4.688Z" transform="translate(-1048.977 -7418.823)"/>
      <path id="Trazado_106149" data-name="Trazado 106149" d="M1074.967,7423.931a.442.442,0,0,0-.2-.358,2.043,2.043,0,0,0-.747-.27,2.994,2.994,0,0,1-1.254-.5,1.085,1.085,0,0,1-.423-.9,1.291,1.291,0,0,1,.509-1.03,2.068,2.068,0,0,1,1.363-.422,2.239,2.239,0,0,1,1.427.42,1.243,1.243,0,0,1,.509,1.063l-.008.026h-1.221a.621.621,0,0,0-.18-.46.726.726,0,0,0-.527-.177.715.715,0,0,0-.482.149.469.469,0,0,0-.176.375.427.427,0,0,0,.184.355,1.994,1.994,0,0,0,.747.247,3.01,3.01,0,0,1,1.286.511,1.114,1.114,0,0,1,.42.924,1.235,1.235,0,0,1-.541,1.034,2.355,2.355,0,0,1-1.431.4,2.17,2.17,0,0,1-1.479-.475,1.324,1.324,0,0,1-.518-1.08l.009-.027h1.157a.66.66,0,0,0,.246.547,1.021,1.021,0,0,0,.61.168.883.883,0,0,0,.536-.139A.451.451,0,0,0,1074.967,7423.931Z" transform="translate(-1048.028 -7418.823)"/>
    </g>
  </g>
</svg>
