<svg xmlns="http://www.w3.org/2000/svg" width="708" height="290.579" viewBox="0 0 708 290.579">
  <g id="Grupo_55500" data-name="Grupo 55500" transform="translate(-304.531 -9723.131)">
    <rect id="Rectángulo_9634" data-name="Rectángulo 9634" width="708" height="290.579" rx="20.87" transform="translate(304.531 9723.131)" fill="#fff"/>
    <g id="Grupo_55499" data-name="Grupo 55499" transform="translate(328.201 9747.007)">
      <g id="Grupo_55488" data-name="Grupo 55488" transform="translate(0 2.04)">
        <g id="Grupo_55482" data-name="Grupo 55482" transform="translate(0 24.357)">
          <path id="Trazado_106510" data-name="Trazado 106510" d="M347.8,9967.266H450.391l6.174-23.239s3.777-11.337,5.792-13.6,8.371-16.816,8.461-19.839-3.359-19.46-3.359-19.46a116.165,116.165,0,0,1,2.179-26.451c2.814-12.755,3.541-20.311-.182-25.224s-19.066-11.524-19.066-11.524l-14.163-6.99s-2.452-.473-2.634-7.086,0-19.082,0-19.082a38.106,38.106,0,0,1,2.906-11.336c2.451-5.386,2.632-6.519.18-8.691s-11.348-8.407-22.607-8.5-12.665,1.7-12.665,1.7a74.5,74.5,0,0,1-2.769,12.377s-6.854,19.6-10.6,24.845-11.236,11.124-19.747,13.744-27.17,6.235-27.17,6.235-6.4,1.652-9.215,3.447-3,8.125-3,8.125a43.074,43.074,0,0,0-3.722,20.5c.817,11.524,2.087,20.4,2.087,20.4l7.082,32.971Z" transform="translate(-324.501 -9765.646)" fill="#fff"/>
          <path id="Trazado_106511" data-name="Trazado 106511" d="M450.935,9967.947H347.421l-13.544-57.136-7.086-32.981c-.02-.132-1.291-9.074-2.1-20.488a43.417,43.417,0,0,1,3.726-20.688c.044-.969.421-6.661,3.264-8.476,2.86-1.822,9.12-3.449,9.385-3.521.221-.044,18.758-3.646,27.142-6.227,8.663-2.669,16.006-8.715,19.441-13.525,3.654-5.113,10.453-24.5,10.523-24.7a75.04,75.04,0,0,0,2.74-12.241l.018-.169.105-.135c.264-.338,2.185-1.99,13.134-1.926,13.209.11,22.6,8.3,22.994,8.65,2.755,2.441,2.476,3.857-.037,9.377a37.762,37.762,0,0,0-2.853,11.137c0,.088-.179,12.5,0,19.021.161,5.908,2.156,6.521,2.175,6.527l.13.046,14.163,6.988c.6.26,15.5,6.72,19.275,11.7,3.881,5.121,3.1,12.984.287,25.7a116.434,116.434,0,0,0-2.166,26.3c.13.581,3.453,16.447,3.362,19.5-.1,3.231-6.587,17.937-8.61,20.213-1.588,1.785-4.635,10.276-5.674,13.4Zm-102.581-1.181H450.027l6.058-22.8c.166-.5,3.85-11.513,5.922-13.844,1.89-2.128,8.222-16.473,8.313-19.464.087-2.92-3.313-19.158-3.348-19.322a116.971,116.971,0,0,1,2.179-26.7c2.733-12.375,3.529-19.983-.074-24.74-3.587-4.732-18.678-11.273-18.83-11.34l-14.136-6.975c-.558-.164-2.841-1.22-3.016-7.626-.18-6.55,0-18.982,0-19.106a38.246,38.246,0,0,1,2.958-11.572c2.439-5.358,2.469-6.108.327-8a37.026,37.026,0,0,0-22.22-8.354c-9.049-.076-11.566,1.088-12.1,1.422a77.556,77.556,0,0,1-2.764,12.233c-.289.827-6.932,19.767-10.683,25.018a40.6,40.6,0,0,1-20.053,13.966c-8.445,2.6-27.044,6.215-27.231,6.252-.027.007-6.307,1.642-9.009,3.365-2.09,1.331-2.675,5.97-2.725,7.644l-.064.25a42.867,42.867,0,0,0-3.659,20.19c.8,11.369,2.071,20.276,2.083,20.362l7.075,32.93Z" transform="translate(-324.591 -9765.736)" fill="#999"/>
        </g>
        <g id="Grupo_55486" data-name="Grupo 55486" transform="translate(85.157)">
          <g id="Grupo_55483" data-name="Grupo 55483" transform="translate(1.014)">
            <path id="Trazado_106512" data-name="Trazado 106512" d="M413.44,9756.257c0-5.889-3.429-10.663-7.66-10.663s-7.66,4.774-7.66,10.663c0,4.606,2.1,8.518,5.039,10.01v10.2h5.788v-10.5C411.594,9764.279,413.44,9760.572,413.44,9756.257Z" transform="translate(-397.529 -9745.004)" fill="#fff"/>
            <path id="Trazado_106513" data-name="Trazado 106513" d="M409.626,9777.141h-6.969v-10.435c-3.028-1.74-5.038-5.845-5.038-10.359,0-6.2,3.7-11.253,8.25-11.253s8.25,5.049,8.25,11.253c0,4.222-1.753,8.108-4.493,10.018Zm-5.789-1.18h4.609v-10.237l.274-.173c2.564-1.625,4.22-5.237,4.22-9.2,0-5.554-3.172-10.072-7.07-10.072s-7.07,4.519-7.07,10.072c0,4.239,1.9,8.051,4.716,9.482l.322.164Z" transform="translate(-397.619 -9745.094)" fill="#999"/>
          </g>
          <g id="Grupo_55484" data-name="Grupo 55484" transform="translate(0 12.871)">
            <rect id="Rectángulo_9635" data-name="Rectángulo 9635" width="17.965" height="3.117" rx="1.12" transform="translate(0.589 0.59)" fill="#fff"/>
            <path id="Trazado_106514" data-name="Trazado 106514" d="M413.992,9760.3H398.672a1.913,1.913,0,0,1-1.911-1.91v-.476a1.913,1.913,0,0,1,1.911-1.911h15.321a1.913,1.913,0,0,1,1.912,1.911v.476A1.913,1.913,0,0,1,413.992,9760.3Zm-15.321-3.116a.732.732,0,0,0-.732.73v.476a.733.733,0,0,0,.732.73h15.321a.733.733,0,0,0,.732-.73v-.476a.732.732,0,0,0-.732-.73Z" transform="translate(-396.76 -9756.002)" fill="#999"/>
          </g>
          <g id="Grupo_55485" data-name="Grupo 55485" transform="translate(0 6.92)">
            <rect id="Rectángulo_9636" data-name="Rectángulo 9636" width="17.965" height="3.117" rx="1.12" transform="translate(0.589 0.59)" fill="#fff"/>
            <path id="Trazado_106515" data-name="Trazado 106515" d="M413.992,9755.257H398.672a1.913,1.913,0,0,1-1.911-1.91v-.477a1.913,1.913,0,0,1,1.911-1.911h15.321a1.913,1.913,0,0,1,1.912,1.911v.477A1.913,1.913,0,0,1,413.992,9755.257Zm-15.321-3.118a.733.733,0,0,0-.732.731v.477a.733.733,0,0,0,.732.73h15.321a.733.733,0,0,0,.732-.73v-.477a.733.733,0,0,0-.732-.731Z" transform="translate(-396.76 -9750.959)" fill="#999"/>
          </g>
        </g>
        <g id="Grupo_55487" data-name="Grupo 55487" transform="translate(16.578 146.371)">
          <line id="Línea_216" data-name="Línea 216" x2="18.128" y2="78.527" transform="translate(0.575 0.133)" fill="#fff"/>
          <rect id="Rectángulo_9637" data-name="Rectángulo 9637" width="1.18" height="80.593" transform="translate(0 0.265) rotate(-12.999)" fill="#999"/>
        </g>
        <path id="Trazado_106516" data-name="Trazado 106516" d="M357.614,9946.294l-.277-1.2,1.149-.266.278,1.206Zm-1.074-4.653-.8-3.449,1.15-.265.8,3.448Zm-1.593-6.9-.8-3.449,1.149-.265.8,3.45Zm-1.592-6.9-.8-3.448,1.15-.266.8,3.447Zm-1.593-6.9-.8-3.449,1.15-.265.8,3.449Zm-1.592-6.9-.8-3.45,1.149-.265.8,3.449Zm-1.593-6.9-.8-3.447,1.15-.267.8,3.449Zm-1.592-6.9-.8-3.45,1.149-.266.8,3.45Zm-1.592-6.9-.8-3.448,1.15-.265.8,3.448Zm-1.593-6.9-.8-3.447,1.15-.267.8,3.449Zm-1.592-6.9-.8-3.449,1.149-.265.8,3.449Zm-1.593-6.9-.8-3.448,1.15-.265.8,3.448Z" transform="translate(-321.85 -9722.806)" fill="#999"/>
        <path id="Trazado_106517" data-name="Trazado 106517" d="M355.737,9947.814l-.447-1.909,1.15-.27.446,1.911Zm-1.254-5.355-.807-3.445,1.147-.27.808,3.445Zm-1.615-6.893-.807-3.445,1.147-.27.808,3.445Zm-1.615-6.892-.808-3.447,1.148-.27.808,3.447Zm-1.617-6.893-.807-3.448,1.15-.27.807,3.447Zm-1.613-6.895-.808-3.445,1.148-.271.807,3.446ZM346.407,9908l-.808-3.446,1.148-.269.807,3.445Zm-1.617-6.894-.807-3.446,1.148-.27.807,3.447Zm-1.615-6.893-.807-3.446,1.147-.271.808,3.447Zm-1.617-6.893-.806-3.446,1.149-.271.807,3.447Zm-1.613-6.894-.808-3.446,1.148-.27.808,3.446Zm-1.615-6.894-.808-3.446,1.148-.269.808,3.447Z" transform="translate(-322.264 -9722.648)" fill="#999"/>
        <ellipse id="Elipse_4313" data-name="Elipse 4313" cx="2.138" cy="3.864" rx="2.138" ry="3.864" transform="matrix(0.973, -0.232, 0.232, 0.973, 8.996, 114.826)" fill="#999"/>
        <path id="Trazado_106518" data-name="Trazado 106518" d="M339.5,9879.285a7.973,7.973,0,0,1-5.291-2.277c-5.009-4.438-8.681-14.835-9.356-26.486-.962-16.589,4.142-29.949,11.616-30.42a7.793,7.793,0,0,1,5.693,2.266c5.008,4.439,8.68,14.835,9.355,26.486.962,16.59-4.141,29.948-11.614,30.419C339.765,9879.281,339.631,9879.285,339.5,9879.285Zm-2.635-58.016c-.107,0-.215,0-.323.01-6.7.422-11.418,13.509-10.511,29.173.658,11.354,4.175,21.432,8.961,25.672a6.639,6.639,0,0,0,4.837,1.971c6.7-.422,11.418-13.508,10.511-29.171-.657-11.355-4.175-21.432-8.959-25.674A6.854,6.854,0,0,0,336.863,9821.27Z" transform="translate(-324.565 -9731.598)" fill="#999"/>
        <path id="Trazado_106519" data-name="Trazado 106519" d="M396.267,9959.063l-1.18-.038.957-28.909c0-.12.378-12.484,1.592-24.553,1.189-11.825-2.62-17.2-2.66-17.252l-12.215-24.227c-.09-.243-6.084-17.427-11.646-32.175-5.464-14.49-15.1-18.867-15.2-18.909l.473-1.082c.413.182,10.175,4.589,15.827,19.574,5.567,14.763,11.566,31.961,11.626,32.132L395.98,9887.7c.119.147,4.064,5.714,2.828,17.981-1.208,12.026-1.581,24.35-1.585,24.474Z" transform="translate(-318.953 -9733.067)" fill="#999"/>
        <path id="Trazado_106520" data-name="Trazado 106520" d="M415.585,9964.342l-1.162-.205c.012-.066,1.179-6.824,2.812-27.506,1.562-19.8.733-44.3.724-44.545l-3.648-24.5c-.041-.227-4.355-24.574-5.791-41.224-1.443-16.691,2.415-43.045,2.456-43.309l1.166.173c-.038.263-3.876,26.482-2.446,43.034,1.432,16.6,5.737,40.893,5.779,41.135l3.658,24.579c.014.311.847,24.882-.722,44.744C416.771,9957.482,415.6,9964.273,415.585,9964.342Z" transform="translate(-309.545 -9738.262)" fill="#999"/>
        <path id="Trazado_106521" data-name="Trazado 106521" d="M450.058,9891.756c-.054-.162-5.385-16.416-7.719-23.7-2.288-7.141-3.386-13.705-5.109-30.537-1.586-15.484-7.9-19.244-7.959-19.279l.583-1.025c.282.16,6.9,4.1,8.55,20.184,1.713,16.738,2.8,23.252,5.06,30.3,2.332,7.281,7.661,23.531,7.715,23.693Z" transform="translate(-305.753 -9732.114)" fill="#999"/>
        <path id="Trazado_106522" data-name="Trazado 106522" d="M419.831,9778.892a77.862,77.862,0,0,1-8.9-.818l-.814-.1c-8.063-1-20.269-8.063-20.785-8.363l.595-1.02c.124.073,12.514,7.249,20.335,8.213l.813.1c7.361.911,10.117,1.254,14.466-.078l.346,1.129A19.521,19.521,0,0,1,419.831,9778.892Z" transform="translate(-312.941 -9740.865)" fill="#999"/>
        <path id="Trazado_106523" data-name="Trazado 106523" d="M416.223,9785.184a28.688,28.688,0,0,1-7.02-.781c-8.29-.645-20.089-8.068-20.587-8.385l.631-.994c.12.074,12.051,7.58,20.158,8.223a32.037,32.037,0,0,0,13.81.012l.251,1.152A34.144,34.144,0,0,1,416.223,9785.184Z" transform="translate(-313.069 -9739.707)" fill="#999"/>
        <path id="Trazado_106524" data-name="Trazado 106524" d="M411.209,9826.372h-.048c-20.482-.568-36.257-21.85-36.414-22.064l.952-.7c.153.209,15.6,21.026,35.493,21.58a16.106,16.106,0,0,0,14.825-10.541l1.1.44A17.592,17.592,0,0,1,411.209,9826.372Z" transform="translate(-315.565 -9734.563)" fill="#999"/>
        <path id="Trazado_106525" data-name="Trazado 106525" d="M390.93,9881.842l3.274-5.361-.788-2.416s-.361-1.025.568-1.051l3.884,1.914s1.668.938.223,1.771l-2.662.861-3.3,4.887-1.219.809Z" transform="translate(-312.656 -9722.073)" fill="#999"/>
        <path id="Trazado_106526" data-name="Trazado 106526" d="M448.1,9887.619l5.657-2.389.706-2.446s.278-1.053,1.048-.511l2.1,3.9s.837,1.77-.807,1.577l-2.648-.905-5.412,1.985-1.445-.078Z" transform="translate(-302.509 -9720.435)" fill="#999"/>
        <path id="Trazado_106527" data-name="Trazado 106527" d="M355.625,9891.073l-5.657-2.39-.707-2.444s-.277-1.052-1.047-.512l-2.1,3.9s-.835,1.772.808,1.577l2.647-.9,5.414,1.985,1.444-.077Z" transform="translate(-320.755 -9719.813)" fill="#999"/>
        <path id="Trazado_106528" data-name="Trazado 106528" d="M352.953,9900.369l-3.2-10.908,27.649-9.836,9.4-2.268c11.094-1.982,30.924,2.09,31.762,2.264l46.682,5.215.153.2c4.163,5.439-.766,10.68-.817,10.732l-.2.211-.29-.033c-.406-.047-40.774-4.705-56.668-6.947-15.711-2.217-25.486,1.42-25.582,1.455ZM351.2,9890.2l2.54,8.656,27.7-9.508c.387-.148,10.108-3.773,26.149-1.514,15.147,2.139,52.565,6.473,56.335,6.908.792-.939,3.6-4.746.688-8.789l-46.231-5.166c-.257-.051-20.5-4.211-31.335-2.273l-9.332,2.252Z" transform="translate(-320.063 -9721.389)" fill="#999"/>
      </g>
      <g id="Grupo_55489" data-name="Grupo 55489" transform="translate(50.298 41.798)" opacity="0.36">
        <path id="Trazado_106529" data-name="Trazado 106529" d="M384.75,9779.288s3.51,5.925,25.15,15.158,38.876,17.854,38.876,17.854l-8.135,20.111s-7.257,11.081-7.257,19.494c0,0-13.557-2.747-14.473-4.144l-1.327-10.017-3.693,8.415-6.566-.822-.205-10.258-3.528,7.182-7.258-3.079,2.636-7.183-6.274,3.9-6.918-4.72,4.923-6.628-10.053,3.346-4.157-3.346,4.157-6.218-6.772,1.971-6.157-4.708,7.466-3.091S379.619,9784.649,384.75,9779.288Z" transform="translate(-367.128 -9778.698)" fill="#999"/>
        <path id="Trazado_106530" data-name="Trazado 106530" d="M433.474,9852.586a.611.611,0,0,1-.118-.011c-4.148-.841-13.9-2.952-14.849-4.4a.614.614,0,0,1-.092-.247L417.366,9840l-2.847,6.482a.579.579,0,0,1-.614.349l-6.567-.821a.587.587,0,0,1-.517-.573l-.157-7.831-2.455,5a.589.589,0,0,1-.76.282l-7.258-3.078a.589.589,0,0,1-.323-.745l2.045-5.574-4.819,3a.6.6,0,0,1-.644-.015l-6.918-4.721a.589.589,0,0,1-.14-.839l3.808-5.125-8.277,2.754a.6.6,0,0,1-.557-.1l-4.157-3.346a.592.592,0,0,1-.122-.788l3.258-4.869-5.217,1.517a.605.605,0,0,1-.523-.1l-6.156-4.707a.59.59,0,0,1,.132-1.014l7.161-2.966c.539-3.3,4.717-28.028,9.671-33.206a.607.607,0,0,1,.493-.18.6.6,0,0,1,.439.282h0c.035.058,3.809,5.932,24.875,14.922,21.408,9.136,38.736,17.781,38.909,17.869a.588.588,0,0,1,.283.747l-8.136,20.111c-.125.211-7.213,11.136-7.213,19.273a.592.592,0,0,1-.59.59Zm-13.912-4.99c.926.776,7.29,2.429,13.338,3.681.373-8.373,7.043-18.652,7.336-19.1l7.877-19.5c-2.959-1.465-18.984-9.329-38.357-17.595-17.79-7.593-23.431-12.97-24.942-14.761-4.76,6.289-8.917,32.1-8.959,32.369a.59.59,0,0,1-.358.452l-6.518,2.7,5.1,3.9,6.486-1.887a.591.591,0,0,1,.656.9l-3.858,5.768,3.486,2.8,9.749-3.244a.591.591,0,0,1,.661.912l-4.558,6.135,6.093,4.158,5.948-3.7a.591.591,0,0,1,.866.7l-2.443,6.657,6.227,2.64,3.28-6.683a.59.59,0,0,1,1.12.249l.195,9.75,5.625.7,3.516-8.012a.608.608,0,0,1,.624-.347.589.589,0,0,1,.5.506Z" transform="translate(-367.218 -9778.789)" fill="#4d4d4d"/>
      </g>
      <path id="Trazado_106531" data-name="Trazado 106531" d="M430.824,9829.735c-.12-.068-12.111-6.746-23.368-8.757l.208-1.162c11.456,2.047,23.616,8.82,23.738,8.889Z" transform="translate(-309.679 -9729.605)" fill="#666"/>
      <path id="Trazado_106532" data-name="Trazado 106532" d="M432.964,9837.42c-1.491-.423-36.651-10.5-47.93-19.969l-11.312-9.49.759-.9,11.312,9.49c11.086,9.3,47.13,19.635,47.493,19.738Z" transform="translate(-315.749 -9731.903)" fill="#666"/>
      <path id="Trazado_106533" data-name="Trazado 106533" d="M411.212,9823.257a51.22,51.22,0,0,1-5.928-.863l.228-1.157a51.064,51.064,0,0,0,5.778.842Zm-11.718-2.275c-1.943-.57-3.84-1.229-5.631-1.956l.443-1.093c1.757.713,3.614,1.356,5.521,1.916Zm-11.027-4.51a42.561,42.561,0,0,1-5.029-3.235l.709-.944a40.824,40.824,0,0,0,4.889,3.145Zm-9.5-7.223q-.589-.624-1.148-1.283l.9-.761c.356.425.725.835,1.1,1.234Z" transform="translate(-315.013 -9731.877)" fill="#666"/>
      <path id="Trazado_106534" data-name="Trazado 106534" d="M410.749,9816.7a40.373,40.373,0,0,0-4.012-4.205l.8-.87a41.521,41.521,0,0,1,4.13,4.33Zm-8.521-7.928c-1.486-1.118-3.107-2.246-4.815-3.353l.641-.989c1.732,1.121,3.376,2.265,4.885,3.4Zm-9.837-6.407c-1.647-.944-3.388-1.889-5.168-2.807l.539-1.048c1.8.925,3.552,1.876,5.218,2.83Zm-10.456-5.389c-3.231-1.5-5.377-2.343-5.4-2.351l.431-1.1c.022.011,2.2.865,5.464,2.379Z" transform="translate(-315.243 -9734.336)" fill="#666"/>
      <path id="Trazado_106535" data-name="Trazado 106535" d="M371.847,9806.116l-1.345-6.136-2.242-1.2s-.97-.491-.316-1.149l4.13-1.306s1.853-.478,1.386,1.125l-1.326,2.464,1,5.811-.322,1.429Z" transform="translate(-316.83 -9733.847)" fill="#999"/>
      <path id="Trazado_106536" data-name="Trazado 106536" d="M381.733,9810.649l.066-6.28-1.915-1.674s-.835-.7-.05-1.19l4.317-.346s1.913-.051,1.1,1.407l-1.844,2.1-.334,5.887-.634,1.32Z" transform="translate(-314.71 -9732.966)" fill="#999"/>
      <path id="Trazado_106537" data-name="Trazado 106537" d="M392.72,9818.954l-.826-6.228-2.135-1.384s-.925-.568-.218-1.17l4.224-.956s1.886-.322,1.287,1.237l-1.527,2.343.506,5.874-.439,1.4Z" transform="translate(-312.95 -9731.521)" fill="#999"/>
      <path id="Trazado_106538" data-name="Trazado 106538" d="M406.855,9821.759l-3.207-5.4-2.506-.435s-1.075-.16-.662-.99l3.508-2.542s1.608-1.035,1.671.634l-.484,2.754,2.775,5.2.144,1.457Z" transform="translate(-310.951 -9731)" fill="#999"/>
      <g id="Grupo_55496" data-name="Grupo 55496" transform="translate(501.163)">
        <g id="Grupo_55490" data-name="Grupo 55490" transform="translate(0 25.015)">
          <path id="Trazado_106539" data-name="Trazado 106539" d="M773.14,9971.53H878.507l6.341-23.866s3.878-11.644,5.949-13.973,8.6-17.27,8.689-20.375-3.449-19.986-3.449-19.986a119.219,119.219,0,0,1,2.237-27.165c2.891-13.1,3.637-20.86-.186-25.9s-19.581-11.838-19.581-11.838l-14.547-7.179s-2.517-.485-2.7-7.276,0-19.6,0-19.6a39.14,39.14,0,0,1,2.983-11.642c2.518-5.531,2.7-6.694.187-8.927s-11.656-8.634-23.218-8.73-13.007,1.745-13.007,1.745a76.565,76.565,0,0,1-2.845,12.71s-7.04,20.132-10.886,25.517-11.539,11.425-20.28,14.117-27.9,6.4-27.9,6.4-6.574,1.7-9.464,3.541-3.077,8.344-3.077,8.344a44.238,44.238,0,0,0-3.823,21.054c.839,11.837,2.145,20.956,2.145,20.956l7.272,33.86Z" transform="translate(-749.229 -9764.476)" fill="#fff"/>
          <path id="Trazado_106540" data-name="Trazado 106540" d="M879.05,9972.211H772.763l-13.907-58.668-7.277-33.871c-.019-.133-1.325-9.316-2.156-21.041a44.569,44.569,0,0,1,3.828-21.242c.044-.984.428-6.836,3.344-8.693,2.936-1.873,9.362-3.545,9.633-3.615.228-.043,19.268-3.744,27.878-6.4,8.9-2.738,16.445-8.953,19.974-13.9,3.755-5.252,10.74-25.166,10.811-25.367a76.832,76.832,0,0,0,2.814-12.576l.016-.17.105-.133c.271-.348,2.2-2.061,13.476-1.973,13.557.113,23.2,8.523,23.605,8.881,2.823,2.5,2.536,3.951-.041,9.611a38.891,38.891,0,0,0-2.931,11.443c0,.09-.184,12.836,0,19.537.166,6.084,2.225,6.713,2.247,6.719l.129.045,14.545,7.18c.622.268,15.919,6.9,19.792,12.01,3.981,5.256,3.174,13.328.291,26.387-2.839,12.869-2.231,26.873-2.225,27.014.133.6,3.546,16.893,3.451,20.029-.1,3.316-6.761,18.412-8.838,20.75-1.573,1.77-4.5,9.779-5.831,13.766Zm-105.354-1.18H878.143l6.224-23.43c.171-.516,3.954-11.818,6.079-14.211,1.942-2.186,8.448-16.928,8.541-20,.09-3-3.4-19.68-3.437-19.848a120.231,120.231,0,0,1,2.238-27.416c2.807-12.713,3.626-20.529-.079-25.422-3.686-4.861-19.19-11.582-19.347-11.65l-14.517-7.162c-.568-.166-2.907-1.242-3.088-7.818-.185-6.727,0-19.5,0-19.623a39.269,39.269,0,0,1,3.036-11.879c2.51-5.512,2.54-6.283.332-8.24-3.307-2.93-12.335-8.5-22.831-8.582-9.277-.049-11.9,1.129-12.444,1.465a79.879,79.879,0,0,1-2.838,12.57c-.3.85-7.12,20.3-10.971,25.689a41.669,41.669,0,0,1-20.587,14.336c-8.672,2.674-27.774,6.383-27.966,6.42-.028.01-6.48,1.688-9.259,3.461-2.592,1.652-2.8,7.8-2.8,7.861l-.062.25a44.037,44.037,0,0,0-3.762,20.746c.827,11.68,2.127,20.822,2.14,20.914l7.266,33.82Z" transform="translate(-749.319 -9764.565)" fill="#999"/>
        </g>
        <g id="Grupo_55494" data-name="Grupo 55494" transform="translate(87.458)">
          <g id="Grupo_55491" data-name="Grupo 55491" transform="translate(1.042)">
            <path id="Trazado_106541" data-name="Trazado 106541" d="M840.557,9754.817c0-6.049-3.522-10.952-7.868-10.952s-7.868,4.9-7.868,10.952c0,4.729,2.158,8.746,5.175,10.278v10.472h5.945V9764.78C838.662,9763.056,840.557,9759.249,840.557,9754.817Z" transform="translate(-824.231 -9743.273)" fill="#fff"/>
            <path id="Trazado_106542" data-name="Trazado 106542" d="M836.621,9776.248H829.5v-10.712c-3.109-1.783-5.175-6-5.175-10.629,0-6.365,3.795-11.542,8.458-11.542s8.457,5.177,8.457,11.542c0,4.334-1.8,8.323-4.615,10.28Zm-5.945-1.181h4.765v-10.521l.274-.174c2.637-1.672,4.341-5.388,4.341-9.466,0-5.714-3.265-10.362-7.277-10.362s-7.278,4.648-7.278,10.362c0,4.36,1.949,8.278,4.852,9.751l.323.165Z" transform="translate(-824.321 -9743.365)" fill="#999"/>
          </g>
          <g id="Grupo_55492" data-name="Grupo 55492" transform="translate(0 13.219)">
            <rect id="Rectángulo_9638" data-name="Rectángulo 9638" width="18.451" height="3.202" rx="1.12" transform="translate(0.591 0.59)" fill="#fff"/>
            <path id="Trazado_106543" data-name="Trazado 106543" d="M841.158,9758.95H825.35a1.914,1.914,0,0,1-1.912-1.911v-.558a1.914,1.914,0,0,1,1.912-1.914h15.808a1.914,1.914,0,0,1,1.911,1.914v.558A1.914,1.914,0,0,1,841.158,9758.95Zm-15.808-3.2a.734.734,0,0,0-.732.733v.558a.734.734,0,0,0,.732.732h15.808a.733.733,0,0,0,.732-.732v-.558a.733.733,0,0,0-.732-.733Z" transform="translate(-823.438 -9754.567)" fill="#999"/>
          </g>
          <g id="Grupo_55493" data-name="Grupo 55493" transform="translate(0 7.107)">
            <rect id="Rectángulo_9639" data-name="Rectángulo 9639" width="18.451" height="3.202" rx="1.12" transform="translate(0.591 0.59)" fill="#fff"/>
            <path id="Trazado_106544" data-name="Trazado 106544" d="M841.158,9753.77H825.35a1.913,1.913,0,0,1-1.912-1.91v-.559a1.914,1.914,0,0,1,1.912-1.912h15.808a1.914,1.914,0,0,1,1.911,1.912v.559A1.913,1.913,0,0,1,841.158,9753.77Zm-15.808-3.2a.733.733,0,0,0-.732.732v.559a.733.733,0,0,0,.732.73h15.808a.732.732,0,0,0,.732-.73v-.559a.733.733,0,0,0-.732-.732Z" transform="translate(-823.438 -9749.389)" fill="#999"/>
          </g>
        </g>
        <g id="Grupo_55495" data-name="Grupo 55495" transform="translate(17.027 150.318)">
          <line id="Línea_217" data-name="Línea 217" x2="18.618" y2="80.65" transform="translate(0.574 0.132)" fill="#fff"/>
          <rect id="Rectángulo_9640" data-name="Rectángulo 9640" width="1.18" height="82.771" transform="matrix(0.974, -0.225, 0.225, 0.974, 0, 0.265)" fill="#999"/>
        </g>
        <path id="Trazado_106545" data-name="Trazado 106545" d="M783.235,9949.986l-.759-3.287,1.149-.266.76,3.289Zm-1.555-6.736-.8-3.45,1.15-.265.8,3.451Zm-1.593-6.9-.8-3.45,1.151-.265.8,3.449Zm-1.593-6.9-.8-3.45,1.149-.265.8,3.448Zm-1.592-6.9-.8-3.449,1.15-.265.8,3.45Zm-1.593-6.9-.8-3.45,1.15-.265.8,3.449Zm-1.592-6.9-.8-3.449,1.149-.265.8,3.449Zm-1.593-6.9-.8-3.448,1.15-.266.8,3.45Zm-1.593-6.9-.8-3.446,1.149-.268.8,3.449Zm-1.592-6.9-.8-3.448,1.15-.266.8,3.449Zm-1.593-6.9-.8-3.449,1.151-.264.8,3.448Zm-1.592-6.9-.8-3.448,1.149-.266.8,3.449Z" transform="translate(-746.504 -9720.477)" fill="#999"/>
        <path id="Trazado_106546" data-name="Trazado 106546" d="M781.175,9950.988l-.807-3.447,1.15-.27.806,3.445Zm-1.614-6.895-.807-3.446,1.148-.27.807,3.446Zm-1.615-6.894-.807-3.446,1.147-.269.808,3.445Zm-1.615-6.893-.807-3.447,1.147-.27.808,3.447Zm-1.615-6.894-.808-3.444,1.148-.27.808,3.444Zm-1.615-6.891-.808-3.447,1.148-.27.808,3.446Zm-1.615-6.895-.808-3.446,1.148-.27.807,3.446Zm-1.615-6.893-.808-3.447,1.148-.269.807,3.446Zm-1.615-6.894-.807-3.445,1.148-.271.807,3.447Zm-1.615-6.893-.807-3.445,1.147-.271.808,3.446Zm-1.615-6.893-.807-3.447,1.147-.27.808,3.446Zm-1.615-6.895-.808-3.446,1.148-.27.808,3.447Z" transform="translate(-746.929 -9720.314)" fill="#999"/>
        <ellipse id="Elipse_4314" data-name="Elipse 4314" cx="2.196" cy="3.969" rx="2.196" ry="3.969" transform="matrix(0.973, -0.232, 0.232, 0.973, 9.223, 117.914)" fill="#999"/>
        <path id="Trazado_106547" data-name="Trazado 106547" d="M764.613,9881.152a8.176,8.176,0,0,1-5.424-2.334c-5.141-4.557-8.911-15.23-9.6-27.191-.985-17.029,4.249-30.744,11.915-31.225a8.029,8.029,0,0,1,5.835,2.32c5.141,4.557,8.911,15.232,9.6,27.193.986,17.027-4.248,30.742-11.915,31.225Q764.818,9881.152,764.613,9881.152Zm-2.706-59.584c-.112,0-.223,0-.334.012-6.892.432-11.742,13.879-10.811,29.977.677,11.666,4.29,22.02,9.208,26.377a6.919,6.919,0,0,0,4.979,2.027c6.893-.432,11.743-13.879,10.811-29.977-.676-11.664-4.29-22.02-9.208-26.377A7.057,7.057,0,0,0,761.908,9821.568Z" transform="translate(-749.292 -9729.503)" fill="#999"/>
        <path id="Trazado_106548" data-name="Trazado 106548" d="M822.9,9963.1l-1.18-.038.983-29.689c0-.124.387-12.823,1.635-25.217,1.215-12.1-2.7-17.676-2.735-17.73l-12.545-24.877c-.092-.248-6.249-17.9-11.96-33.045-5.615-14.889-15.517-19.385-15.616-19.429l.473-1.08c.424.184,10.444,4.707,16.246,20.093,5.718,15.161,11.88,32.825,11.94,33l12.466,24.726c.123.154,4.17,5.865,2.9,18.46-1.243,12.351-1.625,25.009-1.628,25.135Z" transform="translate(-743.53 -9731.015)" fill="#999"/>
        <path id="Trazado_106549" data-name="Trazado 106549" d="M842.742,9968.523l-1.162-.205c.012-.065,1.21-7.009,2.889-28.25,1.6-20.334.752-45.5.742-45.752l-3.746-25.16c-.042-.234-4.471-25.239-5.948-42.337-1.48-17.141,2.481-44.2,2.522-44.476l1.167.173c-.04.27-3.981,27.2-2.513,44.2,1.473,17.046,5.892,42,5.936,42.249l3.757,25.244c.014.317.871,25.551-.741,45.95C843.958,9961.481,842.753,9968.455,842.742,9968.523Z" transform="translate(-733.866 -9736.351)" fill="#999"/>
        <path id="Trazado_106550" data-name="Trazado 106550" d="M878.18,9893.973c-.055-.168-5.532-16.859-7.929-24.342-2.349-7.34-3.477-14.08-5.245-31.361-1.62-15.824-8.118-19.775-8.184-19.812l.585-1.023c.288.164,7.081,4.205,8.772,20.715,1.758,17.184,2.876,23.875,5.2,31.123,2.4,7.479,7.87,24.164,7.925,24.332Z" transform="translate(-729.973 -9730.037)" fill="#999"/>
        <path id="Trazado_106551" data-name="Trazado 106551" d="M847.117,9778.045a79.949,79.949,0,0,1-9.155-.842l-.82-.1c-8.277-1.023-20.811-8.281-21.341-8.588l.595-1.02c.126.074,12.853,7.443,20.891,8.438l.82.1c7.573.939,10.406,1.289,14.878-.082l.346,1.129A20.037,20.037,0,0,1,847.117,9778.045Z" transform="translate(-737.355 -9739.024)" fill="#999"/>
        <path id="Trazado_106552" data-name="Trazado 106552" d="M843.414,9784.511a29.361,29.361,0,0,1-7.2-.8c-8.515-.662-20.627-8.283-21.139-8.607l.631-1c.124.079,12.38,7.789,20.711,8.449a32.975,32.975,0,0,0,14.188.013l.251,1.15A34.937,34.937,0,0,1,843.414,9784.511Z" transform="translate(-737.486 -9737.834)" fill="#999"/>
        <path id="Trazado_106553" data-name="Trazado 106553" d="M838.265,9826.81h-.05c-21.028-.584-37.225-22.435-37.386-22.654l.952-.7c.157.215,16.023,21.6,36.464,22.171a16.565,16.565,0,0,0,15.242-10.836l1.095.44A18.049,18.049,0,0,1,838.265,9826.81Z" transform="translate(-740.049 -9732.551)" fill="#999"/>
        <path id="Trazado_106554" data-name="Trazado 106554" d="M817.438,9883.8l3.363-5.506-.809-2.482s-.371-1.053.583-1.077l3.99,1.966s1.713.963.229,1.82l-2.734.884-3.39,5.018-1.253.83Z" transform="translate(-737.064 -9719.724)" fill="#999"/>
        <path id="Trazado_106555" data-name="Trazado 106555" d="M876.156,9889.729l5.81-2.452.726-2.513s.284-1.081,1.075-.525l2.153,4.011s.858,1.818-.829,1.621l-2.719-.932-5.56,2.038-1.484-.079Z" transform="translate(-726.642 -9718.042)" fill="#999"/>
        <path id="Trazado_106556" data-name="Trazado 106556" d="M781.178,9893.275l-5.809-2.451-.726-2.512s-.285-1.08-1.075-.525l-2.153,4.012s-.859,1.818.829,1.619l2.719-.932,5.56,2.039,1.483-.078Z" transform="translate(-745.382 -9717.404)" fill="#999"/>
        <path id="Trazado_106557" data-name="Trazado 106557" d="M778.441,9902.8l-3.276-11.172,28.383-10.1,9.65-2.328c11.389-2.042,31.753,2.146,32.614,2.324l47.938,5.355.153.2c4.267,5.579-.785,10.95-.837,11l-.2.211-.29-.031c-.417-.05-41.877-4.832-58.2-7.135-16.16-2.279-26.181,1.457-26.281,1.494Zm-1.831-10.436,2.617,8.919,28.463-9.768c.4-.151,10.381-3.875,26.849-1.555,15.568,2.2,54.042,6.651,57.867,7.095.81-.955,3.714-4.887.709-9.058l-47.488-5.309c-.264-.052-21.054-4.332-32.187-2.333l-9.586,2.313Z" transform="translate(-744.668 -9719.02)" fill="#999"/>
      </g>
      <g id="Grupo_55497" data-name="Grupo 55497" transform="translate(192.241 94.356)" opacity="0.61">
        <path id="Trazado_106558" data-name="Trazado 106558" d="M570.929,9909.865,573.7,9921.1h22.163s1.077-10.8.924-14.48l4.309,14.48h25.549l.769-14.48,3.848,14.48h23.547v-13.7l3.233,13.7H678.2l-4.156-13.7,8.465,13.7h68.951V9823.83H488.012v78.8l90.3.615.616,1.23-9.542,2.143s-8.773,3.348-9.49,11.249.923,9.028-3.9,11.9-13.133,2.359-13.133,2.359l-11.7.719s-8.721.1-7.285,4.821l2.771,3.386s1.744,1.643-.308,2.463-24.215,8.555-24.215,8.555l9.542,19.047,16.622-7.284-4.617-13.34,8.618,11.082,13.545-7.284-7.9-13.648,11.594,11.428,17.135-6.811-5.952-12.312,6.977,9.337s4.515-4.105,4.925-8.209-3.385-12.619-3.385-12.619S568.98,9913.894,570.929,9909.865Z" transform="translate(-487.422 -9823.24)" fill="#999"/>
        <path id="Trazado_106559" data-name="Trazado 106559" d="M511.764,9971.8a.59.59,0,0,1-.527-.327l-9.542-19.046a.589.589,0,0,1,.333-.819c.223-.078,22.174-7.738,24.19-8.546.212-.085.576-.264.623-.506.06-.317-.32-.807-.5-.982l-2.821-3.439a.585.585,0,0,1-.109-.2,3.261,3.261,0,0,1,.418-3.016c1.809-2.474,7.2-2.565,7.425-2.567l11.669-.718c.15,0,8.261.465,12.868-2.277,3.294-1.964,3.31-2.833,3.373-6.492.024-1.29.051-2.9.238-4.955.745-8.176,9.5-11.605,9.869-11.747l8.889-2-.118-.232-89.941-.612a.591.591,0,0,1-.586-.591v-78.8a.589.589,0,0,1,.59-.59h263.45a.59.59,0,0,1,.59.59v97.271a.589.589,0,0,1-.59.589H682.6a.592.592,0,0,1-.5-.279l-6.084-9.844,2.841,9.362a.588.588,0,0,1-.565.761H658.13a.588.588,0,0,1-.573-.453l-2.068-8.765v8.629a.59.59,0,0,1-.59.589H631.351a.589.589,0,0,1-.57-.438l-2.887-10.863-.571,10.744a.589.589,0,0,1-.589.558h-25.55a.59.59,0,0,1-.565-.421l-3.23-10.854c-.231,4.5-.818,10.414-.851,10.746a.588.588,0,0,1-.586.529H573.79a.588.588,0,0,1-.573-.448l-2.315-9.386a36.784,36.784,0,0,0-.989,9.473c.463,1.056,3.788,8.806,3.387,12.812-.43,4.281-4.924,8.412-5.115,8.586a.628.628,0,0,1-.453.151.6.6,0,0,1-.416-.234l-3.3-4.418,3.278,6.783a.592.592,0,0,1-.314.806l-17.134,6.81a.59.59,0,0,1-.631-.128l-8.477-8.354,5.706,9.856a.591.591,0,0,1-.23.816l-13.544,7.285a.594.594,0,0,1-.746-.158l-6.43-8.267,3.451,9.97a.59.59,0,0,1-.321.733L512,9971.751A.6.6,0,0,1,511.764,9971.8Zm-8.714-19.3,8.991,17.945,15.61-6.842-4.44-12.824a.59.59,0,0,1,1.024-.554l8.313,10.687,12.568-6.761-7.6-13.119a.59.59,0,0,1,.925-.716l11.319,11.157,16.189-6.434-5.676-11.741a.59.59,0,0,1,1-.609l6.574,8.8c1.134-1.152,3.962-4.306,4.27-7.375.389-3.9-3.3-12.237-3.34-12.319a.621.621,0,0,1-.051-.222c-.009-.315-.237-7.759,1.752-11.87a.6.6,0,0,1,.592-.33.586.586,0,0,1,.511.444l2.661,10.787h21.165c.212-2.216,1-10.732.868-13.866a.591.591,0,0,1,1.156-.192l4.184,14.059h24.548l.741-13.921a.592.592,0,0,1,.527-.557.574.574,0,0,1,.632.436L631.8,9920.6h22.5v-13.108a.593.593,0,0,1,.521-.587.586.586,0,0,1,.642.452L658.6,9920.6h18.9l-3.924-12.937a.59.59,0,0,1,1.067-.482l8.292,13.419h68.032v-96.09H488.692v77.625l89.719.611a.592.592,0,0,1,.524.326l.616,1.23a.592.592,0,0,1-.4.841l-9.542,2.144c0,.006-8.357,3.292-9.034,10.725-.183,2.02-.21,3.6-.234,4.87-.066,3.775-.091,5.186-3.949,7.485-4.923,2.932-13.125,2.463-13.473,2.441l-11.625.718c-1.422.02-5.3.428-6.516,2.086a2.069,2.069,0,0,0-.271,1.868l2.693,3.292a2.494,2.494,0,0,1,.8,2,1.913,1.913,0,0,1-1.344,1.383C524.785,9944.905,506.755,9951.207,503.05,9952.5Z" transform="translate(-487.512 -9823.33)" fill="#4d4d4d"/>
      </g>
      <path id="Trazado_106560" data-name="Trazado 106560" d="M578.3,9900.846a.59.59,0,0,1-.016-1.18c.169,0,17.24-.5,49.873-3.844a348.053,348.053,0,0,0,61.755-12.642c-4.671-21.447-7.847-25.134-12.63-30.693-.8-.923-1.635-1.9-2.531-3.011-6.412-7.965-26.077-9.432-41.386-6.257-16.166,3.356-75.409,7.563-76.006,7.6H488.721a.59.59,0,0,1,0-1.181h68.591c.553-.039,59.718-4.24,75.808-7.579,15.442-3.2,35.6-1.952,42.545,6.672.886,1.1,1.717,2.065,2.505,2.98,4.942,5.741,8.206,9.534,13,31.741a.589.589,0,0,1-.4.686,348.546,348.546,0,0,1-62.506,12.85c-32.683,3.351-49.791,3.848-49.961,3.852Z" transform="translate(-295.16 -9725.893)" fill="#4d4d4d"/>
      <path id="Trazado_106561" data-name="Trazado 106561" d="M555.3,9895.572l-2.6-.021.011-1.181,2.569.024,3.313-.15.053,1.178Zm-8.5-.072-5.9-.053.009-1.181,5.9.053Zm-11.8-.105-5.9-.051.009-1.181,5.9.053Zm-11.8-.1-5.9-.052.008-1.18,5.9.051Zm-11.8-.1-5.9-.053.008-1.18,5.9.052Zm53.149-.031-.052-1.181,5.9-.261.053,1.178Zm-64.949-.072-5.9-.053.008-1.181,5.9.053Zm76.758-.451-.053-1.179,5.9-.261.051,1.181Zm11.8-.516-.051-1.181,5.9-.252.051,1.18Zm11.806-.506-.051-1.181,5.9-.248.048,1.181Zm11.8-.491-.048-1.181,5.9-.236.046,1.179Zm11.859-.471-.074-.588v-.591c1.841-.07,3.794-.2,5.836-.4l.11,1.176C627.437,9892.445,625.463,9892.579,623.629,9892.65Zm11.762-1.085-.159-1.169c1.851-.253,3.809-.554,5.82-.895l.2,1.166C639.226,9891.008,637.257,9891.312,635.391,9891.565Zm11.68-1.967-.228-1.156c1.943-.383,3.873-.784,5.77-1.2l.251,1.151C650.961,9888.813,649.022,9889.217,647.072,9889.6Zm11.563-2.523-.275-1.146c1.975-.47,3.891-.947,5.725-1.419l.293,1.146C662.537,9886.126,660.617,9886.6,658.634,9887.075Zm11.464-2.937-.312-1.138c2.085-.57,4-1.109,5.68-1.6l.328,1.135C674.1,9883.025,672.19,9883.566,670.1,9884.139Zm11.372-3.3-.348-1.127c.752-.231,1.324-.413,1.69-.528-.1-.532-.293-1.515-.668-2.992l1.142-.29a34.076,34.076,0,0,1,.776,3.614l.061.485-.465.15S682.881,9880.407,681.471,9880.842Zm-.951-10.278c-.557-1.76-1.188-3.634-1.876-5.571l1.11-.395c.694,1.951,1.33,3.837,1.89,5.608Zm-3.921-11.09-.29-.753a16.578,16.578,0,0,0-2.419-4.249l.929-.729a17.676,17.676,0,0,1,2.591,4.552l.291.755Zm-128.97-3.3v-1.181l5.873-.023.074,1.177-.427.026Zm-5.9,0h-5.9v-1.181h5.9Zm-11.8,0h-5.9v-1.181h5.9Zm-11.8,0h-5.9v-1.181h5.9Zm-11.8,0h-5.9v-1.181h5.9Zm-11.8,0h-5.9v-1.181h5.9Zm64.964-.4-.076-1.178c1.709-.11,3.7-.245,5.9-.395l.08,1.177C563.2,9855.529,561.207,9855.663,559.495,9855.773Zm11.808-.811-.085-1.179c1.894-.136,3.871-.281,5.894-.438l.09,1.176C575.177,9854.68,573.2,9854.826,571.3,9854.963Zm11.793-.905-.1-1.176c1.96-.159,3.932-.325,5.889-.5l.1,1.175C587.032,9853.731,585.058,9853.9,583.1,9854.058Zm11.787-1.036-.113-1.176c2.025-.193,4-.393,5.875-.595l.128,1.173C598.886,9852.626,596.91,9852.826,594.882,9853.021Zm11.774-1.285-.15-1.17c2.3-.295,4.261-.583,5.829-.857l.2,1.161C610.952,9851.147,608.973,9851.439,606.656,9851.736Zm63.05-1.124a25.8,25.8,0,0,0-5.108-2.655l.431-1.1a26.94,26.94,0,0,1,5.341,2.779Zm-51.376-1.071-.268-1.15c1.686-.392,3.644-.788,5.82-1.178l.208,1.161C621.934,9848.761,620,9849.153,618.33,9849.541Zm11.573-2.119-.175-1.165c2-.3,3.986-.573,5.863-.819l.151,1.171C633.874,9846.852,631.9,9847.124,629.9,9847.422Zm29.132-1.122a47.706,47.706,0,0,0-5.767-.872l.106-1.175a48.52,48.52,0,0,1,5.911.895Zm-17.434-.409-.133-1.174c3.037-.348,5.241-.566,5.893-.63l.116,1.175C646.828,9845.324,644.63,9845.543,641.6,9845.891Z" transform="translate(-295.07 -9725.239)" fill="#666"/>
      <path id="Trazado_106562" data-name="Trazado 106562" d="M741.066,9876.163H546.372a.59.59,0,0,1,0-1.181H741.066a.59.59,0,0,1,0,1.181Z" transform="translate(-284.785 -9719.678)" fill="#4d4d4d"/>
      <path id="Trazado_106563" data-name="Trazado 106563" d="M735.855,9886.923H575.329a.59.59,0,0,1,0-1.181H735.855a.59.59,0,0,1,0,1.181Z" transform="translate(-279.574 -9717.741)" fill="#4d4d4d"/>
      <rect id="Rectángulo_9641" data-name="Rectángulo 9641" width="5.541" height="8.003" transform="translate(281.442 165.128)" fill="#4d4d4d"/>
      <g id="Grupo_55498" data-name="Grupo 55498" transform="translate(557.742 53.468)" opacity="0.61">
        <path id="Trazado_106564" data-name="Trazado 106564" d="M842.931,9827.99s1.052-20.752-16.186-27.935-21.137-10.878-21.137-10.878l-7.84,19.888,14.3,12.074S826.848,9832.223,842.931,9827.99Z" transform="translate(-797.178 -9788.589)" fill="#999"/>
        <path id="Trazado_106565" data-name="Trazado 106565" d="M835.513,9829.622c-12.967,0-23.578-7.826-23.7-7.921l-14.332-12.1a.585.585,0,0,1-.168-.666l7.84-19.889a.591.591,0,0,1,.953-.212c.039.035,4.111,3.741,20.958,10.761,17.42,7.259,16.561,28.3,16.549,28.509a.589.589,0,0,1-.439.541A30.007,30.007,0,0,1,835.513,9829.622Zm-36.951-20.644,13.981,11.8c.117.087,14.452,10.636,29.9,6.839.016-2.982-.546-20.56-15.833-26.928-13.643-5.686-18.969-9.187-20.656-10.458Zm44.46,19.1h0Z" transform="translate(-797.268 -9788.679)" fill="#4d4d4d"/>
      </g>
      <path id="Trazado_106566" data-name="Trazado 106566" d="M833.638,9824.752c-4.716,0-11.116-.786-16.135-4.307a148.211,148.211,0,0,1-17.159-14.606.59.59,0,0,1-.076-.735l7.285-11.286a.591.591,0,0,1,.768-.2l11.587,6.053c.829.4,20.713,10.131,20.713,23.994a.593.593,0,0,1-.484.581A39.314,39.314,0,0,1,833.638,9824.752Zm6.394-1.09h0Zm-38.514-18.319a145.58,145.58,0,0,0,16.662,14.138c7.534,5.284,18.774,4.035,21.252,3.678-.5-12.867-19.854-22.341-20.052-22.436l-11.128-5.813Z" transform="translate(-239.004 -9734.333)" fill="#4d4d4d"/>
      <path id="Trazado_106567" data-name="Trazado 106567" d="M798.074,9807.328l-1.7-6.223-2.364-1.111s-1.021-.452-.385-1.163l4.167-1.559s1.875-.589,1.481,1.081l-1.228,2.6,1.33,5.907-.254,1.481Z" transform="translate(-240.221 -9733.682)" fill="#999"/>
      <path id="Trazado_106568" data-name="Trazado 106568" d="M807.669,9813.881l-.158-6.45-2.027-1.647s-.881-.683-.094-1.22l4.419-.512s1.961-.12,1.179,1.405l-1.817,2.226-.13,6.054-.6,1.377Z" transform="translate(-238.124 -9732.445)" fill="#999"/>
      <path id="Trazado_106569" data-name="Trazado 106569" d="M824.1,9822.313l-1.735-6.213L820,9815s-1.022-.448-.391-1.161l4.159-1.579s1.871-.6,1.487,1.074l-1.217,2.6,1.359,5.9-.246,1.483Z" transform="translate(-235.544 -9730.985)" fill="#999"/>
      <path id="Trazado_106570" data-name="Trazado 106570" d="M837.9,9823.286l3.421-5.47,2.583-.385s1.108-.14.7-1l-3.542-2.691s-1.627-1.1-1.73.611l.431,2.841-2.972,5.274-.183,1.492Z" transform="translate(-232.448 -9730.764)" fill="#999"/>
    </g>
  </g>
</svg>
