<svg xmlns="http://www.w3.org/2000/svg" width="126.968" height="373.571" viewBox="0 0 126.968 373.571">
  <g id="Grupo_55088" data-name="Grupo 55088" transform="translate(-913.931 -8846.077)">
    <g id="Grupo_55110" data-name="Grupo 55110" transform="translate(913.931 8846.077)">
      <g id="Grupo_55109" data-name="Grupo 55109">
        <g id="Grupo_55106" data-name="Grupo 55106">
          <g id="Grupo_55105" data-name="Grupo 55105">
            <g id="Grupo_55100" data-name="Grupo 55100" transform="translate(0 4.907)">
              <path id="Trazado_105394" data-name="Trazado 105394" d="M996.857,8850.887s.04,23.063,11.292,30.707c0,0,25.5,6.813,31.719,9.322,0,0-2.154,25.451-7.541,39.311l-15.439,54.369s-2.635,8.006,0,19.117l8.856,33.818s3.95,17.086,3.232,32.262l-5.146,57.953s-.479,18.283-23.461,22.586c0,0-32.437,3.7-49.673-.836,0,0-12.808-1.555-19.391-16.85L926.4,9082.26v-26.447s2.074-20.074,6.862-33.775,7.661-23.578,4.946-36.326L914.587,8894.9s-1.3-3.625,1.755-4.881,26.333-6.75,29.325-8.424,8.02-3.344,11.97-27.48l-.12-4.939Z" transform="translate(-913.62 -8848.462)" fill="#fff"/>
              <path id="Trazado_105395" data-name="Trazado 105395" d="M974.607,9152.738c-8.394,0-17.2-.535-23.773-2.268h0c-.053,0-13.186-1.767-19.843-17.235l-.051-.2-4.908-50.386,0-26.515c.024-.27,2.141-20.38,6.9-34,4.721-13.513,7.615-23.315,4.923-35.958l-23.612-90.783c-.506-1.407-.735-4.492,2.156-5.68,1.314-.54,6.03-1.782,11.495-3.22,7.165-1.887,16.085-4.234,17.758-5.17l.428-.236c2.8-1.519,7.483-4.06,11.2-26.764l-.147-5.54,40.717,1.773,0,.65c0,.227.171,22.661,10.9,30.082,2.079.557,25.637,6.881,31.683,9.317l.466.186-.042.5c-.024.255-2.226,25.711-7.584,39.5l-15.421,54.308c-.033.105-2.544,8,.009,18.776l8.851,33.8c.045.19,3.968,17.373,3.255,32.466l-5.149,57.981c0,.146-.76,18.842-24.011,23.189A261.694,261.694,0,0,1,974.607,9152.738Zm-42.324-19.946c6.353,14.642,18.684,16.33,18.807,16.346,17.005,4.477,49.19.869,49.512.835,22.095-4.136,22.837-21.2,22.859-21.926l5.148-58c.706-14.874-3.177-31.877-3.217-32.046l-8.851-33.8c-2.649-11.187-.1-19.169.011-19.5l15.434-54.342c4.89-12.595,7.131-35.035,7.47-38.678-6.833-2.6-30.922-9.046-31.169-9.111l-.209-.1c-10.48-7.122-11.486-26.714-11.578-30.619l-37.971-1.652.1,4.211c-3.832,23.488-8.69,26.122-11.9,27.865l-.417.227c-1.822,1.02-10.083,3.2-18.076,5.3-5.189,1.367-10.094,2.657-11.322,3.162-2.408.989-1.417,3.9-1.373,4.022l23.639,90.869c2.771,13.021-.167,22.991-4.966,36.722-4.7,13.465-6.806,33.421-6.826,33.619l0,26.379Z" transform="translate(-913.931 -8848.781)" fill="#999"/>
            </g>
            <g id="Grupo_55101" data-name="Grupo 55101" transform="translate(43.696)">
              <ellipse id="Elipse_4283" data-name="Elipse 4283" cx="19.43" cy="4.939" rx="19.43" ry="4.939" transform="translate(0.68 0.68)" fill="#fff"/>
              <path id="Trazado_105396" data-name="Trazado 105396" d="M958.125,8857.313c-9.994,0-20.112-1.928-20.112-5.617s10.117-5.619,20.112-5.619,20.11,1.93,20.11,5.619S968.119,8857.313,958.125,8857.313Zm0-9.875c-11.618,0-18.751,2.48-18.751,4.258s7.133,4.256,18.751,4.256,18.749-2.479,18.749-4.256S969.741,8847.438,958.125,8847.438Z" transform="translate(-938.013 -8846.076)" fill="#999"/>
            </g>
            <path id="Trazado_105397" data-name="Trazado 105397" d="M959.216,8857.593a58.177,58.177,0,0,1-21.554-4.008l.561-1.24c.183.081,18.764,8.237,39.383.694l.468,1.279A54.751,54.751,0,0,1,959.216,8857.593Z" transform="translate(-894.603 -8840.973)" fill="#999"/>
            <rect id="Rectángulo_9467" data-name="Rectángulo 9467" width="1.361" height="4.302" transform="translate(63.127 11.036)" fill="#999"/>
            <path id="Trazado_105398" data-name="Trazado 105398" d="M963.326,8881.02c-.475,0-.954-.012-1.446-.025-21.177-.723-28.219-13.557-28.507-14.1l1.2-.639c.067.125,7.006,12.686,27.351,13.379,20.382.738,26.66-13.775,26.72-13.922l1.254.529C989.836,8866.391,983.434,8881.02,963.326,8881.02Z" transform="translate(-898.096 -8830.084)" fill="#999"/>
            <g id="Grupo_55102" data-name="Grupo 55102" transform="translate(117.358 46.664)">
              <path id="Trazado_105399" data-name="Trazado 105399" d="M985.764,8871.959a71.268,71.268,0,0,0-6.064,23.5s-.715,5.1-.715,18.563" transform="translate(-978.305 -8871.661)" fill="#fff"/>
              <path id="Trazado_105400" data-name="Trazado 105400" d="M979.971,8914.154H978.61c0-13.356.691-18.447.722-18.654a72.466,72.466,0,0,1,6.127-23.706l1.223.6a71.132,71.132,0,0,0-6,23.249C980.671,8895.738,979.971,8900.918,979.971,8914.154Z" transform="translate(-978.61 -8871.794)" fill="#999"/>
            </g>
            <g id="Grupo_55103" data-name="Grupo 55103" transform="translate(3.177 45.807)">
              <path id="Trazado_105401" data-name="Trazado 105401" d="M916.021,8871.482a77.544,77.544,0,0,1,6.287,24.366s.715,5.1.715,18.563" transform="translate(-915.406 -8871.191)" fill="#fff"/>
              <path id="Trazado_105402" data-name="Trazado 105402" d="M923.98,8914.539h-1.361c0-13.236-.7-18.416-.708-18.467a77.684,77.684,0,0,0-6.229-24.17l1.228-.58a78.875,78.875,0,0,1,6.352,24.607C923.288,8896.092,923.98,8901.184,923.98,8914.539Z" transform="translate(-915.682 -8871.322)" fill="#999"/>
            </g>
            <rect id="Rectángulo_9468" data-name="Rectángulo 9468" width="11.012" height="65.372" transform="translate(58.022 308.2)" fill="#999"/>
            <g id="Grupo_55104" data-name="Grupo 55104" transform="translate(63.127 50.229)">
              <line id="Línea_195" data-name="Línea 195" y2="257.971" transform="translate(0.68)" fill="#fff"/>
              <rect id="Rectángulo_9469" data-name="Rectángulo 9469" width="1.361" height="257.971" fill="#999"/>
            </g>
          </g>
        </g>
        <g id="Grupo_55107" data-name="Grupo 55107" transform="translate(84.9 42.931)">
          <path id="Trazado_105403" data-name="Trazado 105403" d="M982.175,8869.815l-20.353,95.722a28.64,28.64,0,0,0,.947,16.095s8.361,46.308,7.1,69.975-2.526,80.627-2.526,80.627" transform="translate(-960.409 -8869.674)" fill="#fff"/>
          <path id="Trazado_105404" data-name="Trazado 105404" d="M968.336,9132.311l-1.361-.031c.013-.569,1.277-57.238,2.527-80.646,1.243-23.318-7.009-69.357-7.093-69.819a28.871,28.871,0,0,1-.927-16.407l20.34-95.671,1.332.282L962.8,8965.742a28.26,28.26,0,0,0,.924,15.729c.111.566,8.39,46.762,7.136,70.234C969.613,9075.093,968.349,9131.74,968.336,9132.311Z" transform="translate(-960.721 -8869.736)" fill="#999"/>
        </g>
        <g id="Grupo_55108" data-name="Grupo 55108" transform="translate(19.584 42.931)">
          <path id="Trazado_105405" data-name="Trazado 105405" d="M925.09,8869.815l20.355,95.722a28.64,28.64,0,0,1-.947,16.095s-8.363,46.308-7.1,69.975,2.524,80.627,2.524,80.627" transform="translate(-924.426 -8869.674)" fill="#fff"/>
          <path id="Trazado_105406" data-name="Trazado 105406" d="M939.541,9132.311c-.013-.57-1.277-57.218-2.524-80.605-1.252-23.473,7.026-69.668,7.109-70.132a28.471,28.471,0,0,0,.964-15.781l-20.366-95.773,1.332-.282,20.353,95.723a29.083,29.083,0,0,1-.969,16.456c-.058.361-8.307,46.4-7.066,69.719,1.25,23.407,2.515,80.076,2.528,80.646Z" transform="translate(-924.724 -8869.736)" fill="#999"/>
        </g>
      </g>
      <path id="Trazado_105407" data-name="Trazado 105407" d="M969.455,8971.113a358.76,358.76,0,0,1-48.533-3.312l.183-1.348c59.226,8.092,101.645-1.238,102.064-1.336l.3,1.326C1023.175,8966.512,1002.288,8971.113,969.455,8971.113Z" transform="translate(-908.237 -8749.122)" fill="#999"/>
      <path id="Trazado_105408" data-name="Trazado 105408" d="M967.264,8935.709a233.062,233.062,0,0,1-39.06-3.4l.259-1.336c.446.085,44.935,8.489,76.583-1.519l.41,1.3C993.523,8934.521,979.8,8935.709,967.264,8935.709Z" transform="translate(-902.306 -8778.171)" fill="#999"/>
      <path id="Trazado_105409" data-name="Trazado 105409" d="M968.849,8953.531a326.8,326.8,0,0,1-44.574-3.229l.185-1.347c59.736,8.224,90.58-1.9,90.887-2.007l.436,1.29C1015.565,8948.313,999.683,8953.531,968.849,8953.531Z" transform="translate(-905.506 -8763.92)" fill="#999"/>
      <path id="Trazado_105410" data-name="Trazado 105410" d="M1025.154,8904.121a105.218,105.218,0,0,0-52.8-12.684c-30.107.934-51.858,10.574-52.073,10.672l-.559-1.24c.219-.1,22.2-9.85,52.591-10.791a107.493,107.493,0,0,1,53.547,12.881Z" transform="translate(-909.211 -8810.274)" fill="#999"/>
    </g>
    <path id="Trazado_105411" data-name="Trazado 105411" d="M1010.627,8902.559c-.156-.074-15.977-7.477-42.132-6.383-.3-.014-27.565-.279-42.284,4.211l-.4-1.3c14.917-4.553,42.388-4.264,42.662-4.271,26.477-1.1,42.582,6.441,42.74,6.518Z" transform="translate(9.678 39.606)" fill="#999"/>
    <path id="Trazado_105412" data-name="Trazado 105412" d="M965.87,8917.9c-29.144,0-41.778-4.045-42.328-4.225l1.132-3.449c.138.045,14.1,4.479,45.89,4.01,31.77-.461,45.338-5.508,45.473-5.561l1.3,3.387c-.562.219-14.178,5.328-46.721,5.8Q968.175,8917.9,965.87,8917.9Z" transform="translate(7.828 50.985)" fill="red"/>
  </g>
</svg>
