<svg xmlns="http://www.w3.org/2000/svg" width="604" height="349.006" viewBox="0 0 604 349.006">
  <g id="Grupo_55445" data-name="Grupo 55445" transform="translate(-384.751 -8880)">
    <rect id="Rectángulo_9605" data-name="Rectángulo 9605" width="604" height="349.006" rx="17.512" transform="translate(384.751 8880)" fill="#fff"/>
    <g id="Grupo_55441" data-name="Grupo 55441" transform="translate(751.29 8899.183)">
      <g id="Grupo_55435" data-name="Grupo 55435" transform="translate(0 31.618)">
        <path id="Trazado_106393" data-name="Trazado 106393" d="M723.767,9184.3H856.949l8.014-30.169s4.9-14.718,7.519-17.658,10.867-21.829,10.984-25.753-4.361-25.263-4.361-25.263-.824-17.781,2.829-34.337,4.6-26.367-.235-32.743-24.75-14.962-24.75-14.962l-18.386-9.073s-3.183-.613-3.418-9.2,0-24.772,0-24.772a49.472,49.472,0,0,1,3.772-14.715c3.182-6.99,3.417-8.462.235-11.283s-14.732-10.912-29.346-11.037-16.442,2.208-16.442,2.208a96.718,96.718,0,0,1-3.594,16.065s-8.9,25.446-13.76,32.251-14.585,14.441-25.635,17.844S715.1,8999.8,715.1,8999.8s-8.308,2.146-11.962,4.477-3.889,10.546-3.889,10.546a55.906,55.906,0,0,0-4.832,26.612c1.06,14.96,2.71,26.488,2.71,26.488l9.193,42.8Z" transform="translate(-693.701 -8922.738)" fill="#fff"/>
        <path id="Trazado_106394" data-name="Trazado 106394" d="M857.5,9184.983H723.392l-.108-.457-17.443-73.578-9.2-42.811c-.024-.157-1.672-11.761-2.722-26.571a57.3,57.3,0,0,1,4.836-26.8c.049-1.119.5-8.567,4.16-10.9,3.69-2.354,11.789-4.462,12.133-4.551.276-.054,24.351-4.731,35.242-8.085,11.282-3.476,20.849-11.355,25.327-17.624,4.757-6.657,13.594-31.848,13.683-32.1a97.165,97.165,0,0,0,3.564-15.933l.018-.169.1-.134c.206-.263,2.418-2.546,16.914-2.436,17.083.144,29.228,10.736,29.735,11.186,3.49,3.095,3.129,4.9-.09,11.974a49.251,49.251,0,0,0-3.718,14.514c0,.126-.232,16.237,0,24.711.216,7.853,2.926,8.628,2.954,8.635l.134.048,18.386,9.075c.791.341,20.089,8.706,24.96,15.135,5,6.593,3.976,16.764.343,33.228-3.6,16.291-2.824,34-2.816,34.183.171.78,4.479,21.358,4.362,25.307-.127,4.176-8.518,23.185-11.135,26.129-2.506,2.819-7.351,17.308-7.4,17.453ZM724.33,9183.8H856.585l7.9-29.727c.211-.643,4.983-14.9,7.649-17.9,2.465-2.772,10.718-21.476,10.836-25.377.113-3.808-4.3-24.91-4.348-25.122-.021-.272-.8-18.145,2.829-34.586,3.556-16.118,4.59-26.032-.129-32.259-4.682-6.179-24.315-14.687-24.513-14.774l-18.355-9.059c-.648-.177-3.578-1.44-3.807-9.741-.232-8.5,0-24.636,0-24.8a49.531,49.531,0,0,1,3.825-14.952c3.182-6.988,3.221-8.077.382-10.595-4.193-3.717-15.64-10.774-28.957-10.887-12.115-.114-15.279,1.517-15.875,1.919a102.118,102.118,0,0,1-3.589,15.931c-.371,1.067-8.99,25.631-13.845,32.426-4.257,5.96-13.605,14.267-25.942,18.065-10.953,3.374-35.089,8.063-35.332,8.11-.046.013-8.224,2.14-11.756,4.395-3.351,2.136-3.613,9.982-3.615,10.063l-.063.25a55.816,55.816,0,0,0-4.77,26.3c1.046,14.767,2.69,26.33,2.705,26.445L707,9110.687Z" transform="translate(-693.794 -8922.831)" fill="#999"/>
      </g>
      <g id="Grupo_55439" data-name="Grupo 55439" transform="translate(110.541)">
        <g id="Grupo_55436" data-name="Grupo 55436" transform="translate(1.317)">
          <path id="Trazado_106395" data-name="Trazado 106395" d="M808.495,8910.514c0-7.643-4.452-13.841-9.944-13.841s-9.945,6.2-9.945,13.841c0,5.979,2.728,11.058,6.541,12.994v13.234h7.514v-13.633C806.1,8920.931,808.495,8916.117,808.495,8910.514Z" transform="translate(-788.013 -8896.08)" fill="#fff"/>
          <path id="Trazado_106396" data-name="Trazado 106396" d="M803.348,8937.43h-8.7v-13.473c-3.928-2.2-6.542-7.508-6.542-13.348,0-7.959,4.727-14.436,10.538-14.436s10.537,6.477,10.537,14.436c0,5.463-2.28,10.484-5.833,12.912Zm-7.514-1.187h6.328v-13.367l.275-.172c3.377-2.141,5.558-6.889,5.558-12.094,0-7.307-4.2-13.25-9.351-13.25s-9.352,5.943-9.352,13.25c0,5.566,2.5,10.574,6.217,12.461l.325.168Z" transform="translate(-788.106 -8896.174)" fill="#999"/>
        </g>
        <g id="Grupo_55437" data-name="Grupo 55437" transform="translate(0 16.709)">
          <rect id="Rectángulo_9606" data-name="Rectángulo 9606" width="23.321" height="4.047" rx="1.31" transform="translate(0.593 0.593)" fill="#fff"/>
          <path id="Trazado_106397" data-name="Trazado 106397" d="M809.356,8915.494H789.142a2.147,2.147,0,0,1-2.146-2.146v-.939a2.148,2.148,0,0,1,2.146-2.146h20.215a2.149,2.149,0,0,1,2.147,2.146v.939A2.148,2.148,0,0,1,809.356,8915.494Zm-20.215-4.045a.96.96,0,0,0-.96.959v.939a.962.962,0,0,0,.96.961h20.215a.962.962,0,0,0,.961-.961v-.939a.96.96,0,0,0-.961-.959Z" transform="translate(-786.996 -8910.262)" fill="#999"/>
        </g>
        <g id="Grupo_55438" data-name="Grupo 55438" transform="translate(0 8.982)">
          <rect id="Rectángulo_9607" data-name="Rectángulo 9607" width="23.321" height="4.047" rx="1.31" transform="translate(0.593 0.593)" fill="#fff"/>
          <path id="Trazado_106398" data-name="Trazado 106398" d="M809.356,8908.979H789.142a2.147,2.147,0,0,1-2.146-2.146v-.94a2.147,2.147,0,0,1,2.146-2.146h20.215a2.148,2.148,0,0,1,2.147,2.146v.94A2.148,2.148,0,0,1,809.356,8908.979Zm-20.215-4.047a.962.962,0,0,0-.96.96v.94a.961.961,0,0,0,.96.961h20.215a.961.961,0,0,0,.961-.961v-.94a.962.962,0,0,0-.961-.96Z" transform="translate(-786.996 -8903.747)" fill="#999"/>
        </g>
      </g>
      <g id="Grupo_55440" data-name="Grupo 55440" transform="translate(21.514 189.876)">
        <line id="Línea_208" data-name="Línea 208" x2="23.532" y2="101.94" transform="translate(0.577 0.134)" fill="#fff"/>
        <rect id="Rectángulo_9608" data-name="Rectángulo 9608" width="1.186" height="104.621" transform="translate(0 0.267) rotate(-12.999)" fill="#999"/>
      </g>
      <path id="Trazado_106399" data-name="Trazado 106399" d="M736.555,9156.345l-.692-2.993,1.156-.267.692,2.993Zm-1.491-6.46-.8-3.468,1.155-.267.8,3.467Zm-1.6-6.937-.8-3.465,1.156-.267.8,3.468Zm-1.6-6.932-.8-3.468,1.156-.267.8,3.468Zm-1.6-6.934-.8-3.468,1.155-.265.8,3.465Zm-1.6-6.935-.8-3.468,1.156-.265.8,3.466Zm-1.6-6.934-.8-3.468,1.155-.267.8,3.468Zm-1.6-6.935-.8-3.466,1.156-.269.8,3.468Zm-1.6-6.933-.8-3.47,1.156-.265.8,3.468Zm-1.6-6.935-.8-3.467,1.155-.267.8,3.467Zm-1.6-6.934-.8-3.468,1.156-.267.8,3.468Zm-1.6-6.935-.8-3.466,1.155-.267.8,3.466Zm-1.6-6.936-.8-3.465,1.156-.267.8,3.466Zm-1.6-6.933-.8-3.466,1.156-.267.8,3.468Zm-1.6-6.934-.8-3.467,1.155-.267.8,3.466Z" transform="translate(-690.136 -8866.438)" fill="#999"/>
      <path id="Trazado_106400" data-name="Trazado 106400" d="M734.031,9157.87l-.812-3.464,1.154-.271.811,3.464Zm-1.625-6.931-.811-3.463,1.154-.271.811,3.464Zm-1.625-6.927-.81-3.465,1.155-.271.811,3.465Zm-1.621-6.929-.811-3.465,1.153-.272.812,3.467Zm-1.624-6.929-.812-3.464,1.154-.271.813,3.464Zm-1.624-6.929-.812-3.464,1.154-.271.812,3.464Zm-1.624-6.93-.812-3.464,1.154-.271.811,3.465Zm-1.624-6.928-.812-3.463,1.154-.271.811,3.463Zm-1.625-6.928-.811-3.464,1.154-.271.811,3.465Zm-1.624-6.928-.811-3.465,1.153-.271.813,3.464Zm-1.625-6.929-.81-3.464,1.155-.271.811,3.464Zm-1.621-6.93-.812-3.463,1.154-.271.813,3.464Zm-1.624-6.927-.812-3.466,1.154-.271.812,3.465Zm-1.624-6.93-.812-3.465,1.154-.272.811,3.467Zm-1.624-6.929-.812-3.464,1.154-.271.811,3.465Z" transform="translate(-690.689 -8866.227)" fill="#999"/>
      <ellipse id="Elipse_4310" data-name="Elipse 4310" cx="2.776" cy="5.016" rx="2.776" ry="5.016" transform="matrix(0.973, -0.232, 0.232, 0.973, 11.501, 148.887)" fill="#999"/>
      <path id="Trazado_106401" data-name="Trazado 106401" d="M712.967,9069.527a10.193,10.193,0,0,1-6.753-2.912c-6.469-5.733-11.214-19.183-12.088-34.266-1.22-21.079,5.472-38.712,14.917-39.3a9.964,9.964,0,0,1,7.265,2.9c6.469,5.732,11.214,19.182,12.088,34.263,1.222,21.08-5.471,38.713-14.917,39.306C713.307,9069.522,713.138,9069.527,712.967,9069.527Zm-3.419-75.312c-.144,0-.287,0-.431.014-8.8.554-14.99,17.623-13.808,38.052.857,14.784,5.445,27.913,11.691,33.447a8.8,8.8,0,0,0,6.4,2.6c8.8-.553,14.992-17.622,13.808-38.053-.857-14.781-5.445-27.909-11.691-33.443A9.057,9.057,0,0,0,709.548,8994.215Z" transform="translate(-693.76 -8878.154)" fill="#999"/>
      <path id="Trazado_106402" data-name="Trazado 106402" d="M786.3,9173.315l-1.186-.04,1.241-37.524c0-.157.49-16.2,2.066-31.863,1.55-15.415-3.434-22.445-3.485-22.514l-15.843-31.426c-.109-.294-7.891-22.6-15.111-41.751-7.138-18.924-19.693-24.589-19.819-24.645l.474-1.086c.533.232,13.141,5.924,20.453,25.31,7.227,19.163,15.014,41.487,15.091,41.71l15.764,31.271c.167.214,5.251,7.387,3.654,23.249-1.57,15.618-2.054,31.622-2.059,31.782Z" transform="translate(-686.284 -8880.119)" fill="#999"/>
      <path id="Trazado_106403" data-name="Trazado 106403" d="M811.015,9180.354l-1.167-.208c.014-.083,1.528-8.858,3.651-35.719,2.032-25.707.952-57.527.94-57.846l-4.737-31.82c-.055-.3-5.651-31.9-7.517-53.5-1.87-21.646,3.135-55.838,3.186-56.179l1.173.171c-.05.344-5.035,34.4-3.177,55.906,1.862,21.554,7.45,53.1,7.505,53.415l4.747,31.9c.018.386,1.1,32.271-.938,58.047C812.552,9171.462,811.03,9180.269,811.015,9180.354Z" transform="translate(-673.707 -8887.077)" fill="#999"/>
      <path id="Trazado_106404" data-name="Trazado 106404" d="M855.973,9085.86c-.07-.213-6.988-21.312-10.02-30.768-2.966-9.258-4.39-17.772-6.624-39.608-2.058-20.1-10.336-25.111-10.419-25.16l.588-1.03c.362.207,8.882,5.28,11.01,26.069,2.225,21.739,3.639,30.2,6.575,39.368,3.029,9.452,9.946,30.546,10.015,30.758Z" transform="translate(-668.657 -8878.849)" fill="#999"/>
      <path id="Trazado_106405" data-name="Trazado 106405" d="M816.83,8939.547a101.163,101.163,0,0,1-11.539-1.061l-1.048-.13c-10.43-1.286-26.247-10.446-26.915-10.837l.6-1.023c.16.094,16.274,9.428,26.463,10.684l1.049.13c9.587,1.185,13.173,1.631,18.858-.108l.347,1.134A25.152,25.152,0,0,1,816.83,8939.547Z" transform="translate(-678.254 -8890.531)" fill="#999"/>
      <path id="Trazado_106406" data-name="Trazado 106406" d="M812.154,8947.678a36.934,36.934,0,0,1-9.062-1.011c-10.754-.841-26.034-10.454-26.679-10.863l.635-1c.155.1,15.678,9.862,26.248,10.7a41.665,41.665,0,0,0,17.977.011l.253,1.158A44.091,44.091,0,0,1,812.154,8947.678Z" transform="translate(-678.424 -8888.986)" fill="#999"/>
      <path id="Trazado_106407" data-name="Trazado 106407" d="M805.737,9000.959h-.063c-26.5-.736-46.932-28.293-47.135-28.571l.956-.7c.2.273,20.294,27.366,46.209,28.086a21.041,21.041,0,0,0,19.412-13.793l1.1.442A22.658,22.658,0,0,1,805.737,9000.959Z" transform="translate(-681.749 -8882.124)" fill="#999"/>
      <path id="Trazado_106408" data-name="Trazado 106408" d="M779.322,9072.7l4.251-6.961-1.024-3.139s-.469-1.33.736-1.36l5.043,2.484s2.166,1.217.288,2.3l-3.454,1.119-4.286,6.342-1.583,1.05Z" transform="translate(-677.888 -8865.465)" fill="#999"/>
      <path id="Trazado_106409" data-name="Trazado 106409" d="M853.165,9080.132l7.343-3.1.917-3.175s.36-1.365,1.359-.663l2.722,5.067s1.085,2.3-1.048,2.049l-3.437-1.176-7.027,2.576-1.875-.1Z" transform="translate(-664.339 -8863.278)" fill="#999"/>
      <path id="Trazado_106410" data-name="Trazado 106410" d="M733.79,9084.593l-7.343-3.1-.917-3.175s-.361-1.365-1.359-.664l-2.722,5.069s-1.085,2.3,1.048,2.047l3.437-1.176,7.027,2.577,1.875-.1Z" transform="translate(-688.701 -8862.447)" fill="#999"/>
      <path id="Trazado_106411" data-name="Trazado 106411" d="M730.377,9096.471l-4.055-13.831,35.721-12.71,12.2-2.942c14.368-2.569,40.892,2.882,41.157,2.939l60.54,6.763.154.2c5.317,6.945-.98,13.642-1.045,13.709l-.2.213-.293-.034c-.527-.061-52.928-6.105-73.56-9.017-20.469-2.889-33.169,1.85-33.293,1.9Zm-2.6-13.089,3.392,11.564,36.128-12.4c.109-.042,13.089-4.89,33.865-1.957,19.8,2.793,68.889,8.476,73.226,8.977.962-1.116,4.915-6.276.914-11.753l-60.089-6.717c-.318-.063-26.621-5.472-40.728-2.949l-12.133,2.929Z" transform="translate(-687.743 -8864.523)" fill="#999"/>
    </g>
    <path id="Trazado_106412" data-name="Trazado 106412" d="M803.193,8995.669l3.519-7.292-1.433-2.847s-.643-1.2.591-1.411l5.482,1.616s2.372.834.576,2.153l-3.412,1.589-3.63,6.708-1.5,1.241Z" transform="translate(77.848 19.371)" fill="#999"/>
    <path id="Trazado_106413" data-name="Trazado 106413" d="M708.893,8994.271l-1.155-.273c.052-.225,1.42-5.547,13.584-8.191l.253,1.158C710.249,8989.428,708.9,8994.225,708.893,8994.271Z" transform="translate(60.089 19.685)" fill="#999"/>
    <g id="Grupo_55442" data-name="Grupo 55442" transform="translate(818.941 8964.492)" opacity="0.36">
      <path id="Trazado_106414" data-name="Trazado 106414" d="M751.334,8977.264s5.879,21.66,51.052,48.576c0,0,10.829-15.16,10.984-26.3,0,0-35.272-30.939-43.78-47.8C769.59,8951.739,761.407,8968.6,751.334,8977.264Z" transform="translate(-750.741 -8951.146)" fill="#999"/>
      <path id="Trazado_106415" data-name="Trazado 106415" d="M802.479,9026.527a.589.589,0,0,1-.3-.084c-44.863-26.734-51.078-48.038-51.32-48.932a.593.593,0,0,1,.186-.6c9.864-8.485,18.025-25.167,18.106-25.336a.591.591,0,0,1,.529-.332h0a.593.593,0,0,1,.53.325c8.358,16.567,43.291,47.316,43.642,47.624a.6.6,0,0,1,.2.454c-.154,11.194-10.647,26.012-11.093,26.636A.6.6,0,0,1,802.479,9026.527Zm-50.365-48.98c1,2.867,9.306,23.109,50.193,47.593,1.749-2.559,10.268-15.5,10.557-25.243-3.132-2.762-34.172-30.34-43.172-46.772C767.744,8956.9,760.589,8970.094,752.114,8977.547Z" transform="translate(-750.834 -8951.239)" fill="#4d4d4d"/>
    </g>
    <path id="Trazado_106416" data-name="Trazado 106416" d="M799.617,9016.8a.568.568,0,0,1-.263-.061c-18.885-9.34-45.224-44.377-45.488-44.73a.594.594,0,0,1,.95-.713c.261.35,26.026,34.627,44.628,44.16,1.566-2.084,8.9-12.223,9.793-20.516a.6.6,0,0,1,.653-.525.591.591,0,0,1,.525.652c-1.036,9.586-9.954,21.023-10.334,21.506A.592.592,0,0,1,799.617,9016.8Z" transform="translate(68.649 16.942)" fill="#4d4d4d"/>
    <g id="Grupo_55443" data-name="Grupo 55443" transform="translate(837.196 8962.28)" opacity="0.56">
      <path id="Trazado_106417" data-name="Trazado 106417" d="M771.27,8950.156s-2.836-1.346-4.544,1.929l2.271,3.7Z" transform="translate(-766.132 -8949.279)" fill="#999"/>
      <path id="Trazado_106418" data-name="Trazado 106418" d="M769.09,8956.474a.592.592,0,0,1-.5-.282l-2.272-3.7a.592.592,0,0,1-.021-.585c1.562-2.991,4.168-2.739,5.325-2.19a.6.6,0,0,1,.3.759l-2.273,5.629a.59.59,0,0,1-.5.368Zm-1.586-4.311,1.477,2.405,1.594-3.95A2.774,2.774,0,0,0,767.5,8952.163Z" transform="translate(-766.225 -8949.374)" fill="#4d4d4d"/>
    </g>
    <g id="Grupo_55444" data-name="Grupo 55444" transform="translate(413.16 9015.957)" opacity="0.61">
      <path id="Trazado_106419" data-name="Trazado 106419" d="M411.473,8995.129H692.822l-2.063,139.85H495.63s-7.374-1.8-7.528,3.3,2.166,14.388-4.8,19.492c0,0-1.547,3.712-11.138,5.415s-15.315.154-22.741,5.57-5.57,4.95-5.57,4.95l-10.519-11.758-2.631-4.95s-.927-5.261,2.321-8.046,17.172-1.546,17.172-1.546,13.172.214,15.522-6.272c1.624-4.487-.98-8.734-.98-8.734s-2.475-4.253,4.331-9.9a34.082,34.082,0,0,1,10.211-3.578l1.6-1.165H409.2Z" transform="translate(-408.611 -8994.537)" fill="#999"/>
      <path id="Trazado_106420" data-name="Trazado 106420" d="M443.868,9174.4a.7.7,0,0,1-.654-.393.866.866,0,0,1-.083-.237l-10.144-11.335a.547.547,0,0,1-.081-.117l-2.629-4.95a.618.618,0,0,1-.06-.176c-.04-.228-.948-5.626,2.519-8.6,3.4-2.912,17.03-1.74,17.609-1.687h.071c1.02,0,12.752-.113,14.84-5.886,1.505-4.152-.9-8.179-.927-8.22-.117-.2-2.652-4.767,4.46-10.667a33.739,33.739,0,0,1,10.342-3.675l.027-.02H409.3a.593.593,0,0,1-.593-.6l2.269-122.625a.593.593,0,0,1,.593-.583H692.917a.6.6,0,0,1,.593.6l-2.064,139.85a.591.591,0,0,1-.593.584H495.724a.558.558,0,0,1-.14-.018c-.039-.006-3.887-.922-5.775.517a2.71,2.71,0,0,0-1.022,2.227c-.03.985.038,2.165.108,3.414.292,5.138.689,12.161-5.03,16.453-.432.78-2.724,4.048-11.5,5.605-2.9.514-5.493.738-7.78.935-5.391.467-9.647.834-14.714,4.529a43.475,43.475,0,0,0-5.357,4.281.593.593,0,0,1-.418.765A.92.92,0,0,1,443.868,9174.4Zm-9.947-12.7,9.833,10.988a47.562,47.562,0,0,1,5.415-4.32c5.335-3.89,9.737-4.271,15.312-4.751,2.373-.205,4.828-.417,7.676-.922,9.051-1.605,10.683-5.031,10.7-5.067a.64.64,0,0,1,.193-.242c5.322-3.9,4.956-10.341,4.664-15.515-.072-1.275-.141-2.48-.11-3.517a3.877,3.877,0,0,1,1.491-3.136c2.206-1.677,6.1-.878,6.7-.74H690.268l2.046-138.663H412.148l-2.246,121.44h71.072a.592.592,0,0,1,.35,1.07l-1.6,1.168a.563.563,0,0,1-.23.1,33.957,33.957,0,0,0-10.018,3.5c-6.223,5.171-4.218,8.945-4.127,9.1s2.722,4.527,1.02,9.227c-2.463,6.81-15.554,6.657-16.088,6.665-3.845-.339-14.268-.748-16.777,1.405-2.741,2.347-2.232,6.733-2.135,7.4Z" transform="translate(-408.704 -8994.63)" fill="#4d4d4d"/>
    </g>
    <path id="Trazado_106421" data-name="Trazado 106421" d="M490.1,9115.613c-3.612,0-6.864-.074-9.688-.236l.068-1.184c37.118,2.1,149.361-10.758,157.907-11.746l1.971-59.436c-11.91,1.145-76.648-9.232-79.459-9.684-.331-.053-33.643-5.363-63.955-13.781-30.194-8.389-84.832-7.215-85.379-7.2l-.027-1.186c.548-.01,55.358-1.2,85.722,7.24,30.249,8.4,63.492,13.7,63.826,13.752.7.115,70.246,11.262,79.785,9.6l.72-.127-2.053,61.883-.506.059C637.925,9103.7,535.715,9115.613,490.1,9115.613Z" transform="translate(4.984 24.39)" fill="#4d4d4d"/>
    <path id="Trazado_106422" data-name="Trazado 106422" d="M519.79,9106.322q-1.937,0-3.773-.025l-106.68-.836.008-1.186,106.686.836c37.841.553,109.281-8.18,115.963-9.01l1.813-47.771c-27.407-.363-83.5-11.242-84.067-11.35-.435-.09-43.362-8.727-63.561-13.83-20.113-5.078-73.677-4.727-74.212-4.725l-.008-1.186c.537,0,54.25-.355,74.51,4.762,20.172,5.094,63.071,13.727,63.5,13.813.567.113,57.393,11.131,84.458,11.334l.611.006-1.9,50-.5.064C631.9,9097.311,560.26,9106.322,519.79,9106.322Z" transform="translate(4.574 25.532)" fill="#4d4d4d"/>
    <rect id="Rectángulo_9609" data-name="Rectángulo 9609" width="1.186" height="212.182" transform="matrix(0.019, -1, 1, 0.019, 483.667, 9118.214)" fill="#4d4d4d"/>
    <rect id="Rectángulo_9610" data-name="Rectángulo 9610" width="1.186" height="165.044" transform="translate(529.665 9131.857) rotate(-88.936)" fill="#4d4d4d"/>
    <rect id="Rectángulo_9611" data-name="Rectángulo 9611" width="1.186" height="7.632" transform="translate(499.483 9126.696)" fill="#4d4d4d"/>
    <rect id="Rectángulo_9612" data-name="Rectángulo 9612" width="1.186" height="7.116" transform="translate(497.937 9127.213)" fill="#4d4d4d"/>
  </g>
</svg>
