<svg xmlns="http://www.w3.org/2000/svg" width="126.969" height="373.574" viewBox="0 0 126.969 373.574">
  <g id="Grupo_55055" data-name="Grupo 55055" transform="translate(-39.784 -8846.077)">
    <g id="Grupo_55065" data-name="Grupo 55065" transform="translate(39.784 8846.077)">
      <g id="Grupo_55062" data-name="Grupo 55062">
        <g id="Grupo_55061" data-name="Grupo 55061">
          <g id="Grupo_55056" data-name="Grupo 55056" transform="translate(0 4.907)">
            <path id="Trazado_105328" data-name="Trazado 105328" d="M122.709,8850.887s.04,23.063,11.292,30.709c0,0,25.5,6.811,31.719,9.32,0,0-2.154,25.453-7.539,39.313L142.739,8984.6s-2.633,8.006,0,19.117l8.857,33.818s3.95,17.088,3.232,32.262l-5.146,57.955s-.479,18.281-23.461,22.584c0,0-32.438,3.7-49.673-.836,0,0-12.807-1.555-19.39-16.85l-4.908-50.385v-26.449s2.074-20.074,6.862-33.775,7.661-23.58,4.948-36.326L40.439,8894.9s-1.3-3.627,1.756-4.881,26.332-6.752,29.326-8.424,8.018-3.346,11.968-27.482l-.12-4.939Z" transform="translate(-39.473 -8848.462)" fill="#fff"/>
            <path id="Trazado_105329" data-name="Trazado 105329" d="M100.459,9152.742c-8.394,0-17.2-.535-23.775-2.269h0c-.051,0-13.182-1.767-19.841-17.236l-.053-.2-4.906-50.386,0-26.516c.025-.27,2.143-20.38,6.9-34,4.719-13.513,7.614-23.315,4.923-35.958l-23.614-90.784c-.5-1.407-.733-4.492,2.157-5.68,1.31-.54,6.03-1.78,11.491-3.22,7.167-1.887,16.089-4.234,17.758-5.171l.43-.235c2.8-1.517,7.485-4.058,11.2-26.764l-.145-5.541,40.715,1.774,0,.649c0,.228.172,22.662,10.9,30.083,2.083.559,25.642,6.881,31.686,9.317l.466.186-.044.5c-.022.255-2.225,25.711-7.585,39.5l-15.42,54.309c-.034.1-2.548,8,.009,18.775l8.849,33.8c.047.189,3.968,17.372,3.255,32.466l-5.15,57.981c0,.146-.758,18.842-24.011,23.189A261.482,261.482,0,0,1,100.459,9152.742Zm-42.327-19.947c6.354,14.642,18.684,16.33,18.809,16.346,17.007,4.471,49.193.874,49.514.835,22.095-4.136,22.835-21.2,22.855-21.926l5.15-58c.7-14.879-3.177-31.877-3.215-32.047l-8.851-33.8c-2.653-11.188-.1-19.169.011-19.5l15.432-54.343c4.892-12.6,7.133-35.035,7.472-38.678-6.835-2.6-30.924-9.046-31.173-9.111l-.207-.1c-10.479-7.122-11.484-26.715-11.578-30.62l-37.972-1.651.1,4.21c-3.832,23.491-8.69,26.124-11.9,27.866l-.414.227c-1.82,1.021-10.085,3.2-18.076,5.3-5.189,1.366-10.092,2.656-11.321,3.161-2.408.989-1.417,3.9-1.374,4.022l23.637,90.87c2.773,13.021-.167,22.991-4.964,36.722-4.7,13.465-6.806,33.421-6.828,33.619l0,26.38Z" transform="translate(-39.784 -8848.781)" fill="#999"/>
          </g>
          <g id="Grupo_55057" data-name="Grupo 55057" transform="translate(43.695)">
            <ellipse id="Elipse_4279" data-name="Elipse 4279" cx="19.431" cy="4.939" rx="19.431" ry="4.939" transform="translate(0.681 0.68)" fill="#fff"/>
            <path id="Trazado_105330" data-name="Trazado 105330" d="M83.977,8857.314c-9.994,0-20.112-1.93-20.112-5.617s10.118-5.619,20.112-5.619,20.11,1.928,20.11,5.619S93.971,8857.314,83.977,8857.314Zm0-9.877c-11.616,0-18.751,2.482-18.751,4.26s7.135,4.256,18.751,4.256,18.749-2.479,18.749-4.256S95.595,8847.438,83.977,8847.438Z" transform="translate(-63.865 -8846.078)" fill="#999"/>
          </g>
          <path id="Trazado_105331" data-name="Trazado 105331" d="M85.069,8857.594a58.131,58.131,0,0,1-21.554-4.009l.559-1.24c.183.082,18.756,8.234,39.383.7l.468,1.279A54.773,54.773,0,0,1,85.069,8857.594Z" transform="translate(-20.455 -8840.973)" fill="#999"/>
          <rect id="Rectángulo_9453" data-name="Rectángulo 9453" width="1.361" height="4.302" transform="translate(63.127 11.036)" fill="#999"/>
          <path id="Trazado_105332" data-name="Trazado 105332" d="M89.178,8881.02c-.474,0-.954-.01-1.444-.023-21.179-.723-28.219-13.559-28.507-14.1l1.2-.639c.067.127,7,12.686,27.352,13.381,20.355.736,26.657-13.777,26.72-13.922l1.254.527C115.689,8866.391,109.286,8881.02,89.178,8881.02Z" transform="translate(-23.948 -8830.086)" fill="#999"/>
          <g id="Grupo_55058" data-name="Grupo 55058" transform="translate(117.358 46.665)">
            <path id="Trazado_105333" data-name="Trazado 105333" d="M111.618,8871.959a71.3,71.3,0,0,0-6.066,23.5s-.715,5.1-.715,18.563" transform="translate(-104.157 -8871.661)" fill="#fff"/>
            <path id="Trazado_105334" data-name="Trazado 105334" d="M105.823,8914.156h-1.361c0-13.357.693-18.448.722-18.655a72.594,72.594,0,0,1,6.126-23.706l1.223.6a71.21,71.21,0,0,0-6,23.25C106.525,8895.74,105.823,8900.919,105.823,8914.156Z" transform="translate(-104.462 -8871.795)" fill="#999"/>
          </g>
          <g id="Grupo_55059" data-name="Grupo 55059" transform="translate(3.176 45.807)">
            <path id="Trazado_105335" data-name="Trazado 105335" d="M41.873,8871.482a77.584,77.584,0,0,1,6.289,24.367s.713,5.1.713,18.563" transform="translate(-41.258 -8871.191)" fill="#fff"/>
            <path id="Trazado_105336" data-name="Trazado 105336" d="M49.832,8914.541H48.471c0-13.237-.7-18.416-.706-18.468a77.718,77.718,0,0,0-6.231-24.171l1.23-.58a79,79,0,0,1,6.353,24.607C49.142,8896.093,49.832,8901.184,49.832,8914.541Z" transform="translate(-41.534 -8871.322)" fill="#999"/>
          </g>
          <rect id="Rectángulo_9454" data-name="Rectángulo 9454" width="11.012" height="65.372" transform="translate(58.021 308.202)" fill="#999"/>
          <g id="Grupo_55060" data-name="Grupo 55060" transform="translate(63.127 50.23)">
            <line id="Línea_191" data-name="Línea 191" y2="257.973" transform="translate(0.68)" fill="#fff"/>
            <rect id="Rectángulo_9455" data-name="Rectángulo 9455" width="1.361" height="257.973" fill="#999"/>
          </g>
        </g>
      </g>
      <g id="Grupo_55063" data-name="Grupo 55063" transform="translate(84.9 42.931)">
        <path id="Trazado_105337" data-name="Trazado 105337" d="M108.029,8869.815l-20.355,95.724a28.64,28.64,0,0,0,.947,16.095s8.363,46.309,7.1,69.975-2.524,80.628-2.524,80.628" transform="translate(-86.263 -8869.674)" fill="#fff"/>
        <path id="Trazado_105338" data-name="Trazado 105338" d="M94.189,9132.313l-1.361-.031c.011-.569,1.277-57.238,2.526-80.646,1.243-23.317-7.008-69.358-7.091-69.821a28.876,28.876,0,0,1-.929-16.406l20.339-95.672,1.334.282-20.353,95.725a28.235,28.235,0,0,0,.924,15.728c.109.567,8.388,46.763,7.135,70.235C95.467,9075.1,94.2,9131.743,94.189,9132.313Z" transform="translate(-86.574 -8869.737)" fill="#999"/>
      </g>
      <g id="Grupo_55064" data-name="Grupo 55064" transform="translate(19.581 42.931)">
        <path id="Trazado_105339" data-name="Trazado 105339" d="M50.943,8869.815,71.3,8965.539a28.64,28.64,0,0,1-.947,16.095s-8.361,46.309-7.1,69.975,2.526,80.628,2.526,80.628" transform="translate(-50.275 -8869.674)" fill="#fff"/>
        <path id="Trazado_105340" data-name="Trazado 105340" d="M65.392,9132.312c-.013-.568-1.276-57.216-2.52-80.6-1.256-23.473,7.026-69.668,7.109-70.132a28.471,28.471,0,0,0,.963-15.781L50.575,8870.02l1.334-.282,20.353,95.724a29.063,29.063,0,0,1-.969,16.456c-.056.361-8.309,46.4-7.064,69.72,1.248,23.407,2.511,80.076,2.524,80.646Z" transform="translate(-50.575 -8869.737)" fill="#999"/>
      </g>
    </g>
    <path id="Trazado_105341" data-name="Trazado 105341" d="M95.306,8971.114a358.9,358.9,0,0,1-48.532-3.312l.185-1.348c59.214,8.092,101.644-1.242,102.065-1.337l.3,1.327C149.029,8966.512,128.141,8971.114,95.306,8971.114Z" transform="translate(5.694 96.957)" fill="#999"/>
    <path id="Trazado_105342" data-name="Trazado 105342" d="M93.117,8935.709a233.067,233.067,0,0,1-39.06-3.4l.258-1.336c.446.086,44.938,8.49,76.584-1.518l.412,1.3C119.377,8934.521,105.652,8935.709,93.117,8935.709Z" transform="translate(11.625 67.907)" fill="#999"/>
    <path id="Trazado_105343" data-name="Trazado 105343" d="M95.232,8955.2a331.278,331.278,0,0,1-45.19-3.292l.5-3.6c59.355,8.176,90.064-1.854,90.369-1.956l1.165,3.438C141.175,8950.1,125.639,8955.2,95.232,8955.2Z" transform="translate(8.355 81.677)" fill="red"/>
  </g>
</svg>
