<svg xmlns="http://www.w3.org/2000/svg" width="1020" height="325.141" viewBox="0 0 1020 325.141">
  <g id="Grupo_55434" data-name="Grupo 55434" transform="translate(-108.569 -8733.875)">
    <rect id="Rectángulo_9591" data-name="Rectángulo 9591" width="1020" height="325.14" rx="14.718" transform="translate(108.569 8733.875)" fill="#fff"/>
    <g id="Grupo_55433" data-name="Grupo 55433" transform="translate(143.522 8766.595)">
      <g id="Grupo_55401" data-name="Grupo 55401" transform="translate(349.553 7.855)">
        <g id="Grupo_55398" data-name="Grupo 55398" transform="translate(1.198)">
          <path id="Trazado_106269" data-name="Trazado 106269" d="M412.66,8776.511c0-6.684-4.05-12.1-9.046-12.1s-9.048,5.419-9.048,12.1c0,5.228,2.482,9.668,5.951,11.361V8806.3h6.836v-18.782C410.481,8785.618,412.66,8781.409,412.66,8776.511Z" transform="translate(-393.891 -8763.732)" fill="#fff"/>
          <path id="Trazado_106270" data-name="Trazado 106270" d="M408.2,8807.154h-8.187v-18.7c-3.576-1.975-5.951-6.639-5.951-11.77,0-7.045,4.362-12.777,9.722-12.777s9.724,5.732,9.724,12.777c0,4.8-2.072,9.213-5.308,11.381Zm-6.836-1.35h5.485v-18.486l.324-.2c3.026-1.846,4.984-5.939,4.984-10.436,0-6.3-3.757-11.426-8.373-11.426s-8.371,5.125-8.371,11.426c0,4.8,2.239,9.127,5.571,10.754l.38.184Z" transform="translate(-394.066 -8763.908)" fill="#999"/>
        </g>
        <g id="Grupo_55399" data-name="Grupo 55399" transform="translate(0 14.608)">
          <rect id="Rectángulo_9592" data-name="Rectángulo 9592" width="21.217" height="3.538" rx="1.31" transform="translate(0.676 0.677)" fill="#fff"/>
          <path id="Trazado_106271" data-name="Trazado 106271" d="M413.3,8779.61H395.624a2.445,2.445,0,1,1,0-4.89H413.3a2.445,2.445,0,0,1,0,4.89Zm-17.679-3.539a1.094,1.094,0,1,0,0,2.188H413.3a1.094,1.094,0,0,0,0-2.187Z" transform="translate(-393.179 -8774.721)" fill="#999"/>
        </g>
        <g id="Grupo_55400" data-name="Grupo 55400" transform="translate(0 7.853)">
          <rect id="Rectángulo_9593" data-name="Rectángulo 9593" width="21.217" height="3.538" rx="1.31" transform="translate(0.676 0.677)" fill="#fff"/>
          <path id="Trazado_106272" data-name="Trazado 106272" d="M413.3,8774.61H395.624a2.445,2.445,0,1,1,0-4.89H413.3a2.445,2.445,0,0,1,0,4.89Zm-17.679-3.539a1.094,1.094,0,1,0,0,2.188H413.3a1.094,1.094,0,0,0,0-2.187Z" transform="translate(-393.179 -8769.721)" fill="#999"/>
        </g>
      </g>
      <g id="Grupo_55408" data-name="Grupo 55408">
        <g id="Grupo_55402" data-name="Grupo 55402" transform="translate(0 27.645)">
          <path id="Trazado_106273" data-name="Trazado 106273" d="M161.758,9007.236H282.923l7.291-26.378s4.461-12.866,6.841-15.439,9.885-19.087,9.993-22.518-3.968-22.088-3.968-22.088-.751-15.55,2.574-30.024,4.181-23.052-.215-28.628-22.517-13.082-22.517-13.082l-16.728-7.935s-2.894-.535-3.109-8.043,0-21.658,0-21.658a41.877,41.877,0,0,1,3.432-12.868c2.9-6.111,3.109-7.4.213-9.863s-13.4-9.544-26.7-9.651-14.958,1.931-14.958,1.931a81.77,81.77,0,0,1-3.271,14.046s-8.1,22.249-12.518,28.2-13.269,12.627-23.322,15.6-32.086,7.077-32.086,7.077-7.56,1.876-10.884,3.915-3.538,9.221-3.538,9.221a47.291,47.291,0,0,0-4.4,23.269c.965,13.081,2.466,23.159,2.466,23.159l8.364,37.423Z" transform="translate(-134.265 -8778.381)" fill="#fff"/>
          <path id="Trazado_106274" data-name="Trazado 106274" d="M283.613,9008.086H161.4l-16-64.848-8.367-37.436c-.024-.15-1.525-10.3-2.48-23.258a47.723,47.723,0,0,1,4.4-23.5c.053-1.117.5-7.566,3.854-9.621,3.372-2.066,10.761-3.914,11.074-3.992.258-.049,22.152-4.139,32.058-7.068,10.235-3.031,18.913-9.9,22.971-15.357,4.312-5.8,12.345-27.807,12.425-28.029a81.863,81.863,0,0,0,3.234-13.889l.02-.2.127-.154c.313-.383,2.53-2.273,15.488-2.178,15.584.127,26.666,9.418,27.131,9.813,3.242,2.762,2.887,4.484-.041,10.666a41.572,41.572,0,0,0-3.369,12.635c0,.1-.209,14.182,0,21.584.19,6.709,2.555,7.395,2.579,7.4l.143.047,16.728,7.936c.716.3,18.3,7.625,22.759,13.275,4.588,5.82,3.66,14.75.342,29.2-3.263,14.213-2.564,29.684-2.557,29.838.153.654,4.077,18.67,3.969,22.143-.115,3.668-7.78,20.369-10.173,22.955-1.874,2.025-5.472,11.66-6.7,15.2Zm-121.152-1.35H282.584l7.155-25.881c.2-.574,4.549-13.074,7-15.721,2.232-2.414,9.708-18.687,9.814-22.078.1-3.309-3.911-21.74-3.952-21.926-.023-.268-.732-15.918,2.574-30.316,3.225-14.039,4.165-22.668-.085-28.061-4.238-5.373-22.066-12.8-22.245-12.875l-16.7-7.92c-.643-.176-3.348-1.355-3.557-8.66-.212-7.436,0-21.549,0-21.689a42.044,42.044,0,0,1,3.5-13.148c2.874-6.066,2.909-6.912.386-9.061a44.758,44.758,0,0,0-26.266-9.488c-10.815-.094-13.688,1.221-14.315,1.611a85.506,85.506,0,0,1-3.263,13.893c-.342.941-8.191,22.438-12.621,28.4-3.885,5.229-12.418,12.518-23.673,15.848-9.972,2.951-31.933,7.051-32.154,7.092-.036.012-7.459,1.867-10.654,3.828-2.472,1.516-3.16,6.768-3.217,8.664l-.005.156-.073.137a47.059,47.059,0,0,0-4.319,22.9c.951,12.9,2.445,23.012,2.459,23.111l8.356,37.373Z" transform="translate(-134.441 -8778.557)" fill="#999"/>
        </g>
        <g id="Grupo_55406" data-name="Grupo 55406" transform="translate(100.572)">
          <g id="Grupo_55403" data-name="Grupo 55403" transform="translate(1.197)">
            <path id="Trazado_106275" data-name="Trazado 106275" d="M228.364,8770.7c0-6.682-4.05-12.1-9.046-12.1s-9.048,5.42-9.048,12.1c0,5.229,2.482,9.668,5.951,11.361v11.574h6.836v-11.922C226.185,8779.8,228.364,8775.6,228.364,8770.7Z" transform="translate(-209.595 -8757.918)" fill="#fff"/>
            <path id="Trazado_106276" data-name="Trazado 106276" d="M223.908,8794.482h-8.187v-11.84c-3.576-1.977-5.951-6.641-5.951-11.771,0-7.045,4.362-12.777,9.723-12.777s9.722,5.732,9.722,12.777c0,4.8-2.071,9.216-5.307,11.382Zm-6.836-1.352h5.485V8781.5l.324-.2c3.028-1.845,4.982-5.941,4.982-10.437,0-6.3-3.754-11.427-8.371-11.427s-8.372,5.126-8.372,11.427c0,4.808,2.239,9.127,5.571,10.754l.38.187Z" transform="translate(-209.77 -8758.094)" fill="#999"/>
          </g>
          <g id="Grupo_55404" data-name="Grupo 55404" transform="translate(0 14.61)">
            <rect id="Rectángulo_9594" data-name="Rectángulo 9594" width="21.217" height="3.538" rx="1.31" transform="translate(0.675 0.675)" fill="#fff"/>
            <path id="Trazado_106277" data-name="Trazado 106277" d="M229.006,8773.8H211.328a2.445,2.445,0,0,1,0-4.89h17.678a2.445,2.445,0,1,1,0,4.89Zm-17.678-3.539a1.094,1.094,0,0,0,0,2.188h17.678a1.094,1.094,0,1,0,0-2.187Z" transform="translate(-208.884 -8768.908)" fill="#999"/>
          </g>
          <g id="Grupo_55405" data-name="Grupo 55405" transform="translate(0 7.855)">
            <rect id="Rectángulo_9595" data-name="Rectángulo 9595" width="21.217" height="3.538" rx="1.31" transform="translate(0.675 0.674)" fill="#fff"/>
            <path id="Trazado_106278" data-name="Trazado 106278" d="M229.006,8768.8H211.328a2.445,2.445,0,0,1,0-4.891h17.678a2.445,2.445,0,0,1,0,4.891Zm-17.678-3.539a1.094,1.094,0,0,0,0,2.188h17.678a1.094,1.094,0,1,0,0-2.187Z" transform="translate(-208.884 -8763.908)" fill="#999"/>
          </g>
        </g>
        <g id="Grupo_55407" data-name="Grupo 55407" transform="translate(19.973 167.775)">
          <line id="Línea_204" data-name="Línea 204" x2="21.016" y2="87.496" transform="translate(0.657 0.157)" fill="#fff"/>
          <rect id="Rectángulo_9596" data-name="Rectángulo 9596" width="1.352" height="89.984" transform="matrix(0.972, -0.234, 0.234, 0.972, 0, 0.315)" fill="#999"/>
        </g>
        <path id="Trazado_106279" data-name="Trazado 106279" d="M171.293,8970.093l-.192-.8,1.315-.317.19.795Zm-1.138-4.736-.947-3.941,1.313-.317.948,3.94Zm-1.893-7.882-.948-3.94,1.315-.318.947,3.94Zm-1.894-7.883-.947-3.941,1.315-.315.947,3.941Zm-1.893-7.882-.947-3.94,1.313-.315.947,3.94Zm-1.894-7.882-.946-3.94,1.315-.315.946,3.94Zm-1.893-7.883-.946-3.94,1.315-.315.946,3.94Zm-1.893-7.882-.946-3.94,1.313-.315.946,3.94Zm-1.894-7.882-.946-3.94,1.315-.315.946,3.94Zm-1.893-7.882-.946-3.94,1.313-.315.947,3.941Zm-1.893-7.881-.947-3.941,1.315-.315.946,3.941Zm-1.894-7.882-.946-3.941,1.315-.314.946,3.94Z" transform="translate(-128.883 -8714.506)" fill="#999"/>
        <path id="Trazado_106280" data-name="Trazado 106280" d="M169.164,8970.093l-.192-.8,1.315-.317.19.795Zm-1.138-4.736-.947-3.941,1.315-.317.947,3.94Zm-1.893-7.882-.948-3.94,1.315-.318.947,3.94Zm-1.894-7.883-.947-3.941,1.314-.315.947,3.941Zm-1.893-7.882-.947-3.94,1.313-.315.948,3.94Zm-1.893-7.882-.947-3.94,1.315-.315.946,3.94Zm-1.894-7.883-.946-3.94,1.315-.315.946,3.94Zm-1.893-7.882-.946-3.94,1.313-.315.946,3.94Zm-1.894-7.882-.946-3.94,1.315-.315.946,3.94Zm-1.893-7.882-.946-3.94,1.314-.315.946,3.941Zm-1.893-7.881-.946-3.941,1.313-.315.946,3.941Zm-1.894-7.882-.946-3.941,1.315-.314.946,3.94Z" transform="translate(-129.63 -8714.506)" fill="#999"/>
        <ellipse id="Elipse_4306" data-name="Elipse 4306" cx="2.52" cy="4.396" rx="2.52" ry="4.396" transform="translate(10.582 130.413) rotate(-14.41)" fill="#999"/>
        <path id="Trazado_106281" data-name="Trazado 106281" d="M152,8899.643c-8.623,0-16.162-14.159-17.275-32.653-.535-8.886.546-17.347,3.049-23.822,2.568-6.649,6.351-10.454,10.65-10.711,8.835-.513,16.615,13.807,17.748,32.639s-4.882,34-13.7,34.533C152.317,8899.637,152.158,8899.643,152,8899.643Zm-3.1-65.851c-.131,0-.261,0-.392.012-3.74.226-7.1,3.724-9.47,9.852-2.434,6.3-3.487,14.557-2.961,23.252,1.071,17.779,8.45,31.876,16.319,31.372,7.926-.476,13.5-15.329,12.432-33.1C163.772,8847.7,156.673,8833.792,148.9,8833.792Z" transform="translate(-134.388 -8731.998)" fill="#999"/>
        <path id="Trazado_106282" data-name="Trazado 106282" d="M214.478,8988.149l-1.351-.047,1.019-29.594c0-.139.446-14.174,1.879-27.872,1.4-13.352-3.092-19.506-3.138-19.566l-14.426-27.5c-.108-.278-7.187-19.785-13.756-36.523-6.455-16.447-17.838-21.418-17.953-21.465l.523-1.246c.489.206,12.013,5.206,18.688,22.218,6.575,16.754,13.661,36.276,13.73,36.473l14.331,27.319c.139.168,4.8,6.49,3.344,20.428-1.427,13.646-1.867,27.636-1.871,27.775Z" transform="translate(-123.1 -8734.842)" fill="#999"/>
        <path id="Trazado_106283" data-name="Trazado 106283" d="M229.228,9000.467l-1.317-.311c.016-.063,1.517-6.682,3.445-30.11,1.845-22.47.865-50.278.855-50.557l-4.31-27.8c-.047-.257-5.142-27.894-6.839-46.793-1.7-18.949,2.853-48.865,2.9-49.165l1.335.205c-.046.3-4.577,30.054-2.888,48.84,1.693,18.833,6.774,46.41,6.824,46.687l4.322,27.9c.016.356,1,28.247-.852,50.794C230.761,8993.738,229.287,9000.2,229.228,9000.467Z" transform="translate(-104.172 -8744.884)" fill="#999"/>
        <path id="Trazado_106284" data-name="Trazado 106284" d="M266.971,8914.216c-.063-.185-6.359-18.63-9.118-26.9-2.7-8.106-4-15.562-6.034-34.668-1.862-17.473-9.329-21.833-9.4-21.877l.651-1.184c.331.181,8.149,4.655,10.095,22.917,2.024,18.994,3.307,26.384,5.974,34.383,2.756,8.269,9.05,26.709,9.114,26.9Z" transform="translate(-96.543 -8733.001)" fill="#999"/>
        <path id="Trazado_106285" data-name="Trazado 106285" d="M237.221,8793.092a95.553,95.553,0,0,1-10.508-.926l-.961-.115c-9.514-1.129-23.925-9.15-24.534-9.49l.661-1.18c.146.084,14.785,8.23,24.031,9.33l.962.113c8.7,1.033,11.956,1.42,17.1-.094l.382,1.3A23.782,23.782,0,0,1,237.221,8793.092Z" transform="translate(-111.003 -8749.92)" fill="#999"/>
        <path id="Trazado_106286" data-name="Trazado 106286" d="M233.066,8799.313a35.1,35.1,0,0,1-8.276-.886c-9.791-.733-23.717-9.154-24.3-9.512l.7-1.155c.141.088,14.239,8.609,23.826,9.339a39.287,39.287,0,0,0,16.323.013l.277,1.323A41.843,41.843,0,0,1,233.066,8799.313Z" transform="translate(-111.26 -8747.682)" fill="#999"/>
        <path id="Trazado_106287" data-name="Trazado 106287" d="M229.22,8841.953h-.058c-24.171-.645-42.8-24.793-42.983-25.037l1.077-.817c.181.24,18.426,23.877,41.942,24.5a19.139,19.139,0,0,0,17.535-11.971l1.246.521C242.738,8841.694,230.185,8841.953,229.22,8841.953Z" transform="translate(-116.282 -8737.734)" fill="#999"/>
        <path id="Trazado_106288" data-name="Trazado 106288" d="M202.859,8894.934l3.867-6.085-.931-2.746s-.427-1.163.67-1.189l4.588,2.173s1.971,1.062.262,2.011l-3.142.978-3.9,5.545-1.441.917Z" transform="translate(-110.437 -8713.581)" fill="#999"/>
        <path id="Trazado_106289" data-name="Trazado 106289" d="M185.084,8818.83l-4.931-5.26-2.89.219s-1.232.123-.986-.945l3.246-3.9s1.52-1.643,2.013.248l.165,3.287,4.4,5.156.531,1.623Z" transform="translate(-119.769 -8740.479)" fill="#999"/>
        <path id="Trazado_106290" data-name="Trazado 106290" d="M261.949,8900.18l6.681-2.711.834-2.775s.328-1.193,1.236-.58l2.476,4.432s.988,2.01-.954,1.791l-3.126-1.027-6.393,2.252-1.706-.088Z" transform="translate(-90.021 -8710.413)" fill="#999"/>
        <path id="Trazado_106291" data-name="Trazado 106291" d="M167.89,8903.605l-6.681-2.712-.834-2.775s-.328-1.193-1.236-.58l-2.476,4.433s-.988,2.008.954,1.789l3.126-1.027,6.394,2.253,1.7-.088Z" transform="translate(-126.73 -8709.213)" fill="#999"/>
        <path id="Trazado_106292" data-name="Trazado 106292" d="M164.173,8915.416l-3.78-12.389,32.649-11.162,11.1-2.574c13.094-2.25,36.5,2.37,37.493,2.571l55.12,5.917.177.222c4.927,6.191-.9,12.151-.963,12.21l-.23.229-.322-.036c-.481-.053-48.156-5.338-66.925-7.884-18.592-2.516-30.122,1.614-30.235,1.655Zm-2.106-11.533,3,9.819,32.748-10.8c.454-.17,11.932-4.283,30.861-1.716,17.918,2.43,62.224,7.358,66.554,7.842.924-1.048,4.256-5.376.817-9.962l-54.614-5.867c-.3-.056-24.214-4.791-37.021-2.58l-11.025,2.558Z" transform="translate(-125.332 -8712.261)" fill="#999"/>
      </g>
      <g id="Grupo_55409" data-name="Grupo 55409" transform="translate(287.804 38.559)">
        <path id="Trazado_106293" data-name="Trazado 106293" d="M454.378,9006.861H358.4l-8.692-65.2s-8.694-60.853,12.452-86.7,35.515-57.8,35.515-57.8l-2.475-1.614,4.23-8.283,43.878,17.269-3,8.2h-1.058s-9.6,21.5-9.955,33.567,12.041,31.925,12.041,31.925l18.561,35.243s10.455,12.748,10.631,23.849-9.692,38.874-9.692,38.874Z" transform="translate(-347.311 -8786.413)" fill="#fff"/>
        <path id="Trazado_106294" data-name="Trazado 106294" d="M455.088,9007.758H357.97l-.08-.586-8.692-65.2c-.086-.606-8.491-61.439,12.6-87.217,19.375-23.678,33.213-52.869,35.183-57.123l-2.5-1.629,4.782-9.37,45.062,17.735-3.384,9.258h-1.089c-1.3,2.992-9.4,22.012-9.72,32.912-.343,11.728,11.816,31.352,11.939,31.548l18.553,35.228c.843,1.037,10.567,13.254,10.742,24.212.176,11.095-9.326,37.97-9.731,39.109Zm-95.935-1.351h94.84l6.348-30.138c.123-.361,9.849-27.87,9.677-38.722-.172-10.742-10.376-23.3-10.478-23.431l-.076-.113-18.56-35.242c-.486-.776-12.474-20.126-12.12-32.26.353-12.066,9.62-32.942,10.015-33.825l.178-.4H440l2.607-7.134-42.694-16.8-3.675,7.192,2.452,1.6-.238.525c-.145.322-14.65,32.333-35.611,57.95-20.715,25.317-12.393,85.57-12.3,86.175Z" transform="translate(-347.473 -8786.635)" fill="#999"/>
      </g>
      <g id="Grupo_55410" data-name="Grupo 55410" transform="translate(49.634 18.146)" opacity="0.36">
        <path id="Trazado_106295" data-name="Trazado 106295" d="M263.312,8814.2s1.41,8.5,5.111,10.771,2.114,7.026,0,9.493-7.753,7.225-7.4,12.687a42.532,42.532,0,0,0,1.939,11.279c.7,1.762,3.523,4.581,3.876,10.4s3.806,13.922,3.806,13.922,1.658,7.575,1.128,12.861-46.956-16.21-49.646-19.911c0,0-.4-9.691-1.809-12.511L215.244,8872l-9.2-4.406,1.762-12.272-8.987,6.457-9.692-7.224,5.463-8.283-11.278,2.819-11.631-11.807s9.679-1.233,13.65-2.994,6.867-4.23,6.477-7.931S189.125,8799,189.125,8799l-3.795-26.978,9.258,2s-1.41,9.111,3.876,16.449a47.328,47.328,0,0,0,13.452,11.922l1.879,18.327s2.135-12.865,8.821-14.626c0,0,9.5,9.339,21.837,11.983S263.312,8814.2,263.312,8814.2Z" transform="translate(-171.005 -8771.35)" fill="#999"/>
        <path id="Trazado_106296" data-name="Trazado 106296" d="M270.285,8897.293c-9.149,0-46.307-17.956-48.53-21.018a.675.675,0,0,1-.13-.369c0-.084-.312-7.332-1.277-10.935L216,8872.516a.678.678,0,0,1-.877.271l-9.2-4.405a.676.676,0,0,1-.377-.705l1.537-10.7-7.7,5.532a.673.673,0,0,1-.8-.008l-9.691-7.227a.673.673,0,0,1-.161-.912l4.507-6.833-9.595,2.4a.68.68,0,0,1-.646-.182l-11.629-11.806a.676.676,0,0,1,.4-1.144c.1-.011,9.627-1.241,13.461-2.942,4.4-1.953,6.386-4.321,6.079-7.241-.386-3.661-2.659-27.126-2.683-27.363l-3.791-26.95a.675.675,0,0,1,.208-.587.664.664,0,0,1,.6-.166l9.258,2a.676.676,0,0,1,.526.763c-.014.09-1.3,8.936,3.757,15.952,5.134,7.127,13.153,11.681,13.234,11.729a.674.674,0,0,1,.34.519l1.475,14.383c1.215-4.08,3.749-10.047,8.383-11.267a.678.678,0,0,1,.644.171c.093.093,9.51,9.233,21.505,11.8,11.8,2.531,18.179-3.629,18.241-3.693a.689.689,0,0,1,.684-.164.678.678,0,0,1,.459.532c.012.081,1.4,8.225,4.8,10.307a5.092,5.092,0,0,1,2.472,3.621c.409,2.615-.989,5.344-2.312,6.889-.363.42-.827.91-1.344,1.457-2.457,2.588-6.171,6.5-5.9,10.745a42.511,42.511,0,0,0,1.893,11.07,11.451,11.451,0,0,0,.823,1.481,18.381,18.381,0,0,1,3.1,9.127c.342,5.629,3.719,13.616,3.753,13.7.107.435,1.713,7.865,1.178,13.2a1.5,1.5,0,0,1-1.247,1.318A4.3,4.3,0,0,1,270.285,8897.293Zm-47.32-21.665c3.664,4.167,42.67,21.684,48.053,20.242.073-.021.249-.077.257-.148.512-5.116-1.1-12.575-1.116-12.652-.1-.213-3.465-8.159-3.821-14.022a16.941,16.941,0,0,0-2.9-8.5,11.96,11.96,0,0,1-.924-1.686,42.729,42.729,0,0,1-1.987-11.484c-.311-4.838,3.645-9.006,6.265-11.765.5-.524.948-1,1.3-1.405a7.9,7.9,0,0,0,2-5.8,3.726,3.726,0,0,0-1.843-2.681c-3.1-1.9-4.656-7.619-5.2-10.09-2.239,1.708-8.506,5.429-18.559,3.279-11.339-2.43-20.161-10.272-21.878-11.883-5.913,2-7.953,13.855-7.974,13.977a.675.675,0,0,1-1.337-.043l-1.845-17.982a47.419,47.419,0,0,1-13.361-11.939c-4.639-6.439-4.3-14.075-4.073-16.312l-7.71-1.667,3.661,26.021c.026.266,2.3,23.726,2.683,27.38.372,3.528-1.941,6.428-6.874,8.618-3.161,1.4-9.674,2.454-12.5,2.864L183.7,8848.52l10.9-2.726a.684.684,0,0,1,.716.266.671.671,0,0,1,.011.762l-5.109,7.75L199,8861.12l8.586-6.168a.675.675,0,0,1,1.063.644l-1.693,11.782,8.188,3.92,4.761-8.268a.8.8,0,0,1,.605-.339.675.675,0,0,1,.585.375C222.449,8865.772,222.9,8874.118,222.965,8875.628Z" transform="translate(-171.181 -8771.526)" fill="#4d4d4d"/>
      </g>
      <path id="Trazado_106297" data-name="Trazado 106297" d="M198.281,8828.039,197,8820.945l-2.545-1.387s-1.1-.564-.315-1.326l4.845-1.518s2.17-.553,1.558,1.3l-1.648,2.85.9,6.721-.436,1.65Z" transform="translate(-113.588 -8737.545)" fill="#999"/>
      <path id="Trazado_106298" data-name="Trazado 106298" d="M227.46,8832.7l-1.283-7.094-2.547-1.387s-1.1-.566-.315-1.33l4.846-1.514s2.17-.555,1.556,1.3l-1.647,2.848.894,6.721-.436,1.65Z" transform="translate(-103.346 -8735.908)" fill="#999"/>
      <path id="Trazado_106299" data-name="Trazado 106299" d="M378.494,8807.579l-3.694-6.191-2.87-.4s-1.231-.144-.762-1.135l4.006-3.12s1.836-1.281,1.913.672l-.54,3.246,3.2,5.977.172,1.7Z" transform="translate(-51.389 -8744.679)" fill="#999"/>
      <path id="Trazado_106300" data-name="Trazado 106300" d="M373.2,8818.361l-3.694-6.191-2.869-.4s-1.231-.141-.762-1.133l4.006-3.119s1.836-1.283,1.914.67l-.542,3.246,3.2,5.979.17,1.7Z" transform="translate(-53.248 -8740.892)" fill="#999"/>
      <path id="Trazado_106301" data-name="Trazado 106301" d="M369.286,8822.361l-3.694-6.191-2.87-.4s-1.231-.142-.762-1.134l4.006-3.119s1.836-1.282,1.914.671l-.542,3.245,3.2,5.979.17,1.7Z" transform="translate(-54.621 -8739.489)" fill="#999"/>
      <path id="Trazado_106302" data-name="Trazado 106302" d="M265.254,8866.616a.775.775,0,0,1-.162-.019c-.378-.095-38.4-9.815-78.8-47.855a.676.676,0,0,1,.927-.985c40.131,37.782,77.824,47.437,78.2,47.528a.675.675,0,0,1-.162,1.331Z" transform="translate(-116.317 -8737.217)" fill="#4d4d4d"/>
      <path id="Trazado_106303" data-name="Trazado 106303" d="M255.736,8851.109a.618.618,0,0,1-.215-.036c-1.929-.645-47.409-15.923-57.624-23.233a.676.676,0,0,1,.786-1.1c10.051,7.2,56.8,22.9,57.269,23.054a.675.675,0,0,1-.216,1.314Z" transform="translate(-112.268 -8734.044)" fill="#4d4d4d"/>
      <path id="Trazado_106304" data-name="Trazado 106304" d="M232.378,8831.14a.676.676,0,0,1-.147-1.336l54.981-12.215a.676.676,0,0,1,.293,1.319l-54.981,12.214A.581.581,0,0,1,232.378,8831.14Z" transform="translate(-100.304 -8737.216)" fill="#4d4d4d"/>
      <g id="Grupo_55411" data-name="Grupo 55411" transform="translate(163.468 49.083)">
        <path id="Trazado_106305" data-name="Trazado 106305" d="M255.884,8795.023a20.964,20.964,0,0,1,3.013-.227,6.253,6.253,0,0,1,4.423,1.361,4.984,4.984,0,0,1,1.556,3.922,5.84,5.84,0,0,1-1.571,4.244,6.8,6.8,0,0,1-4.845,1.572,19.3,19.3,0,0,1-2.576-.131Zm1.425,9.674a9.211,9.211,0,0,0,1.427.064c3.013.016,4.649-1.686,4.649-4.633.018-2.576-1.442-4.215-4.422-4.215a7.911,7.911,0,0,0-1.654.148Z" transform="translate(-255.284 -8794.294)"/>
        <path id="Trazado_106306" data-name="Trazado 106306" d="M264.578,8796.612a.849.849,0,0,1-.859-.876.884.884,0,1,1,.877.876Zm-.68,9.171v-7.844h1.425v7.844Z" transform="translate(-252.534 -8794.277)"/>
        <path id="Trazado_106307" data-name="Trazado 106307" d="M266.677,8794.425H268.1v4.91h.032a2.907,2.907,0,0,1,2.672-1.426c1.945,0,3.307,1.62,3.307,3.985,0,2.819-1.783,4.214-3.533,4.214a2.813,2.813,0,0,1-2.625-1.475h-.032l-.081,1.3h-1.232c.049-.536.066-1.33.066-2.025Zm1.425,8.361a2.659,2.659,0,0,0,.049.518,2.212,2.212,0,0,0,2.139,1.67c1.506,0,2.382-1.216,2.382-3.015,0-1.585-.809-2.933-2.333-2.933a2.369,2.369,0,0,0-2.236,2.352Z" transform="translate(-251.519 -8794.425)"/>
        <path id="Trazado_106308" data-name="Trazado 106308" d="M280.061,8802.823c0,.826.018,1.54.066,2.156h-1.263l-.082-1.28h-.031a2.934,2.934,0,0,1-2.593,1.458c-1.232,0-2.706-.7-2.706-3.436v-4.586h1.425v4.326c0,1.492.47,2.514,1.75,2.514a2.051,2.051,0,0,0,1.879-1.314,1.931,1.931,0,0,0,.131-.729v-4.8h1.424Z" transform="translate(-249.118 -8793.474)"/>
        <path id="Trazado_106309" data-name="Trazado 106309" d="M278.672,8808.083a2.281,2.281,0,0,0,1.555-.6c.389-.439.551-1.07.551-2.951v-6.595H282.2v7.146a4.3,4.3,0,0,1-.939,3.225,3.611,3.611,0,0,1-2.43.891Zm2.786-11.471a.848.848,0,0,1-.858-.876.86.86,0,0,1,.892-.892.884.884,0,0,1-.016,1.768Z" transform="translate(-247.286 -8794.277)"/>
        <path id="Trazado_106310" data-name="Trazado 106310" d="M288.7,8803.144a13.4,13.4,0,0,0,.113,1.882h-1.279l-.13-.989h-.049a2.894,2.894,0,0,1-2.4,1.167,2.235,2.235,0,0,1-2.4-2.252c0-1.9,1.685-2.933,4.716-2.918v-.161a1.611,1.611,0,0,0-1.783-1.814,3.791,3.791,0,0,0-2.058.582l-.324-.955A5.074,5.074,0,0,1,285.7,8797c2.416,0,3,1.636,3,3.207Zm-1.393-2.121c-1.555-.033-3.321.244-3.321,1.767a1.248,1.248,0,0,0,1.328,1.36,1.977,1.977,0,0,0,1.928-1.312,1.473,1.473,0,0,0,.065-.454Z" transform="translate(-245.921 -8793.52)"/>
        <path id="Trazado_106311" data-name="Trazado 106311" d="M288.817,8799.629c0-.925-.018-1.718-.066-2.447H290l.064,1.541h.05A2.368,2.368,0,0,1,292.3,8797a2.691,2.691,0,0,1,.389.033v1.346a3.621,3.621,0,0,0-.488-.034,2,2,0,0,0-1.912,1.814,4.6,4.6,0,0,0-.049.664v4.2h-1.424Z" transform="translate(-243.748 -8793.52)"/>
        <path id="Trazado_106312" data-name="Trazado 106312" d="M256.818,8812.363a2.494,2.494,0,0,0,2.672,2.706,5.107,5.107,0,0,0,2.172-.406l.258,1.022a6.4,6.4,0,0,1-2.624.5,3.658,3.658,0,0,1-3.857-3.954c0-2.365,1.409-4.229,3.695-4.229,2.559,0,3.223,2.253,3.223,3.7a3.461,3.461,0,0,1-.049.663Zm4.164-1.021a2.029,2.029,0,0,0-1.96-2.316,2.352,2.352,0,0,0-2.189,2.316Z" transform="translate(-255.44 -8789.658)"/>
        <path id="Trazado_106313" data-name="Trazado 106313" d="M261.815,8814.568a4.06,4.06,0,0,0,1.9.549c1.02,0,1.506-.5,1.506-1.165,0-.681-.405-1.039-1.443-1.428-1.425-.519-2.089-1.3-2.089-2.219a2.428,2.428,0,0,1,2.7-2.3,3.643,3.643,0,0,1,1.913.487l-.34,1.021a3.208,3.208,0,0,0-1.6-.454c-.842,0-1.3.484-1.3,1.07,0,.646.454.938,1.474,1.344,1.346.5,2.058,1.183,2.058,2.349,0,1.394-1.085,2.365-2.915,2.365a4.488,4.488,0,0,1-2.2-.55Z" transform="translate(-253.322 -8789.658)"/>
        <path id="Trazado_106314" data-name="Trazado 106314" d="M272.36,8815.733a5.507,5.507,0,0,1-2.253.453,3.725,3.725,0,0,1-3.9-4,4,4,0,0,1,4.212-4.18,4.485,4.485,0,0,1,1.977.423l-.324,1.086a3.479,3.479,0,0,0-1.652-.375,2.723,2.723,0,0,0-2.771,2.966,2.689,2.689,0,0,0,2.722,2.933,4.061,4.061,0,0,0,1.75-.373Z" transform="translate(-251.662 -8789.658)"/>
        <path id="Trazado_106315" data-name="Trazado 106315" d="M275.267,8816.2a3.737,3.737,0,0,1-3.758-4.036A3.837,3.837,0,0,1,275.4,8808a3.71,3.71,0,0,1,3.776,4.02,3.844,3.844,0,0,1-3.889,4.181Zm.065-1.068c1.36,0,2.38-1.283,2.38-3.065,0-1.327-.663-3-2.348-3-1.669,0-2.4,1.557-2.4,3.046,0,1.72.971,3.017,2.349,3.017Z" transform="translate(-249.8 -8789.658)"/>
        <path id="Trazado_106316" data-name="Trazado 106316" d="M280.465,8806.745v1.879h2.043v1.087h-2.043v4.211c0,.974.276,1.522,1.07,1.522a2.7,2.7,0,0,0,.825-.095l.065,1.083a3.81,3.81,0,0,1-1.265.2,2.033,2.033,0,0,1-1.537-.6,3.064,3.064,0,0,1-.551-2.059v-4.26h-1.216v-1.087h1.216v-1.44Z" transform="translate(-247.572 -8790.101)"/>
        <path id="Trazado_106317" data-name="Trazado 106317" d="M283.373,8812.363a2.5,2.5,0,0,0,2.674,2.706,5.1,5.1,0,0,0,2.171-.406l.259,1.022a6.4,6.4,0,0,1-2.625.5,3.658,3.658,0,0,1-3.856-3.954c0-2.365,1.409-4.229,3.694-4.229,2.56,0,3.225,2.253,3.225,3.7a3.463,3.463,0,0,1-.049.663Zm4.164-1.021a2.027,2.027,0,0,0-1.96-2.316,2.351,2.351,0,0,0-2.187,2.316Z" transform="translate(-246.119 -8789.658)"/>
      </g>
      <g id="Grupo_55412" data-name="Grupo 55412" transform="translate(228.668 104.918)">
        <path id="Trazado_106318" data-name="Trazado 106318" d="M304.156,8835.981a14.674,14.674,0,0,1,2.706-.228,4.493,4.493,0,0,1,3.063.908,2.936,2.936,0,0,1,.971,2.269,3.158,3.158,0,0,1-.859,2.333,4.522,4.522,0,0,1-3.336,1.2,4.954,4.954,0,0,1-1.135-.1v4.392h-1.41Zm1.41,5.233a4.672,4.672,0,0,0,1.166.113c1.7,0,2.74-.827,2.74-2.316,0-1.442-1.021-2.14-2.578-2.14a5.991,5.991,0,0,0-1.328.113Z" transform="translate(-303.541 -8835.754)"/>
        <path id="Trazado_106319" data-name="Trazado 106319" d="M311.039,8837.57a.849.849,0,0,1-.859-.876.884.884,0,1,1,.877.876Zm-.68,9.171V8838.9h1.425v7.844Z" transform="translate(-301.427 -8835.737)"/>
        <path id="Trazado_106320" data-name="Trazado 106320" d="M318.614,8844.782h-.032a2.812,2.812,0,0,1-2.56,1.379c-1.831,0-3.321-1.571-3.321-3.972,0-2.933,1.9-4.229,3.548-4.229a2.581,2.581,0,0,1,2.414,1.36h.032l.05-1.182H320.1c-.049.649-.063,1.345-.063,2.155v8.9h-1.427Zm0-3.466a2.348,2.348,0,0,0-.065-.6,2.1,2.1,0,0,0-2.041-1.621c-1.475,0-2.366,1.248-2.366,3.016,0,1.571.746,2.916,2.317,2.916a2.121,2.121,0,0,0,2.041-1.557,2.385,2.385,0,0,0,.113-.679Z" transform="translate(-300.542 -8834.979)"/>
        <path id="Trazado_106321" data-name="Trazado 106321" d="M326.45,8843.78c0,.826.018,1.54.066,2.156h-1.265l-.081-1.28h-.032a2.93,2.93,0,0,1-2.593,1.458c-1.232,0-2.7-.7-2.7-3.436v-4.586h1.424v4.326c0,1.492.471,2.513,1.751,2.513a2.053,2.053,0,0,0,1.879-1.313,1.96,1.96,0,0,0,.13-.729v-4.8h1.425Z" transform="translate(-298.036 -8834.933)"/>
        <path id="Trazado_106322" data-name="Trazado 106322" d="M327.447,8842.319a2.494,2.494,0,0,0,2.672,2.707,5.107,5.107,0,0,0,2.172-.406l.258,1.022a6.4,6.4,0,0,1-2.624.5,3.658,3.658,0,0,1-3.857-3.954c0-2.365,1.409-4.229,3.694-4.229,2.56,0,3.225,2.253,3.225,3.7a3.442,3.442,0,0,1-.049.662Zm4.164-1.021a2.029,2.029,0,0,0-1.962-2.316,2.351,2.351,0,0,0-2.187,2.316Z" transform="translate(-295.85 -8834.979)"/>
        <path id="Trazado_106323" data-name="Trazado 106323" d="M334.448,8836.7v1.879h2.043v1.087h-2.043v4.211c0,.974.276,1.522,1.07,1.522a2.69,2.69,0,0,0,.827-.095l.064,1.083a3.807,3.807,0,0,1-1.263.2,2.036,2.036,0,0,1-1.539-.6,3.064,3.064,0,0,1-.551-2.059v-4.26h-1.215v-1.087h1.215v-1.44Z" transform="translate(-293.824 -8835.421)"/>
        <path id="Trazado_106324" data-name="Trazado 106324" d="M337.358,8842.319a2.5,2.5,0,0,0,2.672,2.707,5.107,5.107,0,0,0,2.172-.406l.258,1.022a6.394,6.394,0,0,1-2.624.5,3.658,3.658,0,0,1-3.857-3.954c0-2.365,1.409-4.229,3.695-4.229,2.559,0,3.223,2.253,3.223,3.7a3.447,3.447,0,0,1-.049.662Zm4.164-1.021a2.029,2.029,0,0,0-1.96-2.316,2.352,2.352,0,0,0-2.189,2.316Z" transform="translate(-292.371 -8834.979)"/>
        <path id="Trazado_106325" data-name="Trazado 106325" d="M311.041,8846.382v9.48c0,.7.015,1.49.064,2.025h-1.279l-.065-1.363h-.032a2.873,2.873,0,0,1-2.657,1.541c-1.9,0-3.369-1.605-3.369-3.986-.018-2.626,1.62-4.213,3.515-4.213a2.608,2.608,0,0,1,2.366,1.183h.032v-4.667Zm-1.427,6.854a2.643,2.643,0,0,0-.065-.614,2.1,2.1,0,0,0-2.058-1.638c-1.474,0-2.349,1.3-2.349,3.015,0,1.6.794,2.916,2.317,2.916a2.155,2.155,0,0,0,2.09-1.717,2.265,2.265,0,0,0,.065-.6Z" transform="translate(-303.701 -8832.023)"/>
        <path id="Trazado_106326" data-name="Trazado 106326" d="M311.846,8853.318a2.5,2.5,0,0,0,2.674,2.708,5.088,5.088,0,0,0,2.171-.407l.258,1.023a6.394,6.394,0,0,1-2.624.5,3.659,3.659,0,0,1-3.857-3.954c0-2.365,1.409-4.229,3.695-4.229,2.559,0,3.225,2.252,3.225,3.7a3.421,3.421,0,0,1-.05.662Zm4.164-1.02a2.027,2.027,0,0,0-1.96-2.316,2.352,2.352,0,0,0-2.187,2.316Z" transform="translate(-301.326 -8831.118)"/>
        <path id="Trazado_106327" data-name="Trazado 106327" d="M325.183,8856.689a5.5,5.5,0,0,1-2.253.454,3.726,3.726,0,0,1-3.9-4,4,4,0,0,1,4.212-4.18,4.487,4.487,0,0,1,1.976.422l-.324,1.086a3.493,3.493,0,0,0-1.652-.374,2.723,2.723,0,0,0-2.771,2.966,2.69,2.69,0,0,0,2.722,2.933,4.055,4.055,0,0,0,1.75-.374Z" transform="translate(-298.322 -8831.118)"/>
        <path id="Trazado_106328" data-name="Trazado 106328" d="M331.393,8854.781c0,.825.018,1.539.066,2.155H330.2l-.082-1.279h-.031a2.935,2.935,0,0,1-2.593,1.457c-1.232,0-2.706-.7-2.706-3.436v-4.586h1.425v4.326c0,1.492.47,2.514,1.75,2.514a2.05,2.05,0,0,0,1.879-1.314,1.928,1.928,0,0,0,.131-.729v-4.8h1.424Z" transform="translate(-296.301 -8831.072)"/>
        <path id="Trazado_106329" data-name="Trazado 106329" d="M332.39,8853.318a2.5,2.5,0,0,0,2.672,2.708,5.09,5.09,0,0,0,2.172-.407l.258,1.023a6.394,6.394,0,0,1-2.624.5,3.659,3.659,0,0,1-3.857-3.954c0-2.365,1.409-4.229,3.7-4.229,2.559,0,3.225,2.252,3.225,3.7a3.313,3.313,0,0,1-.05.662Zm4.164-1.02a2.027,2.027,0,0,0-1.96-2.316,2.352,2.352,0,0,0-2.187,2.316Z" transform="translate(-294.115 -8831.118)"/>
        <path id="Trazado_106330" data-name="Trazado 106330" d="M337.444,8846.382h1.425v11.506h-1.425Z" transform="translate(-291.857 -8832.023)"/>
        <path id="Trazado_106331" data-name="Trazado 106331" d="M340.276,8846.382H341.7v11.506h-1.425Z" transform="translate(-290.863 -8832.023)"/>
        <path id="Trazado_106332" data-name="Trazado 106332" d="M346.446,8857.16a3.738,3.738,0,0,1-3.758-4.035,3.837,3.837,0,0,1,3.888-4.164,3.709,3.709,0,0,1,3.776,4.019,3.843,3.843,0,0,1-3.89,4.181Zm.065-1.068c1.362,0,2.382-1.282,2.382-3.064,0-1.327-.663-3-2.348-3s-2.4,1.558-2.4,3.047c0,1.719.973,3.016,2.351,3.016Z" transform="translate(-290.017 -8831.118)"/>
      </g>
      <g id="Grupo_55413" data-name="Grupo 55413" transform="translate(337.492 179.579)">
        <line id="Línea_205" data-name="Línea 205" x2="1.666" y2="78.416" transform="translate(0.675 0.013)" fill="#fff"/>
        <rect id="Rectángulo_9597" data-name="Rectángulo 9597" width="1.351" height="78.433" transform="matrix(1, -0.021, 0.021, 1, 0, 0.029)" fill="#999"/>
      </g>
      <path id="Trazado_106333" data-name="Trazado 106333" d="M361.793,8991.428l-8.81-72.6c-.072-.369-7.621-41.553,7.864-64.254,14.9-21.844,24.485-24.475,25.554-24.705,1.392-.588,19.272-7.465,37.237,18.713,18.34,26.721,20.605,32.51,20.692,32.744a126.286,126.286,0,0,0,17.475,22.5l-.969.943a126.51,126.51,0,0,1-17.726-22.871c-.065-.15-2.445-6.117-20.585-32.549-17.928-26.123-35.459-18.3-35.632-18.221l-.17.055c-.092.018-9.674,2.043-24.76,24.156-15.168,22.236-7.722,62.877-7.647,63.285l8.818,72.641Z" transform="translate(-58.403 -8733.339)" fill="#999"/>
      <path id="Trazado_106334" data-name="Trazado 106334" d="M420.078,8965.191l-1.321-.283c.042-.2,4.314-20.092,9.935-30.385,5.747-10.525,13.1-25.823,14.593-29.468l1.251.513c-1.5,3.667-8.891,19.039-14.66,29.6C424.35,8945.292,420.12,8964.992,420.078,8965.191Z" transform="translate(-34.649 -8706.512)" fill="#999"/>
      <path id="Trazado_106335" data-name="Trazado 106335" d="M440.906,8884.35c-.082-.179-8.372-17.949-17.24-33.25-8.773-15.138-50.888-33.194-51.313-33.375l.531-1.243c1.75.744,42.955,18.417,51.951,33.938,8.9,15.357,17.213,33.182,17.3,33.359Z" transform="translate(-50.936 -8737.601)" fill="#999"/>
      <ellipse id="Elipse_4307" data-name="Elipse 4307" cx="4.347" cy="5.169" rx="4.347" ry="5.169" transform="translate(336.25 137.888)" fill="#999"/>
      <path id="Trazado_106336" data-name="Trazado 106336" d="M392.816,8910.338c-15.19,0-27.549-16.634-27.549-37.079s12.359-37.079,27.549-37.079,27.548,16.635,27.548,37.079S408.006,8910.338,392.816,8910.338Zm0-72.807c-14.445,0-26.2,16.027-26.2,35.728s11.754,35.729,26.2,35.729,26.2-16.028,26.2-35.729S407.261,8837.531,392.816,8837.531Z" transform="translate(-53.423 -8730.687)" fill="#999"/>
      <g id="Grupo_55414" data-name="Grupo 55414" transform="translate(313.078 61.382)" opacity="0.36">
        <path id="Trazado_106337" data-name="Trazado 106337" d="M383.773,8804.029l-17.093,23.963s43.526,24.373,52.513,31.922,24.318,22.529,32.247,39.975c0,0,4.406.529,2.2-10.4-.458-2.271-15.369-42.982-30.75-58.15C405.494,8814.182,394.347,8808.256,383.773,8804.029Z" transform="translate(-366.005 -8803.354)" fill="#999"/>
        <path id="Trazado_106338" data-name="Trazado 106338" d="M451.715,8900.744a1.383,1.383,0,0,1-.18-.009.676.676,0,0,1-.534-.391c-8.495-18.685-25.257-34.016-32.068-39.737-8.836-7.424-51.973-31.607-52.408-31.85a.675.675,0,0,1-.22-.981l17.093-23.965a.673.673,0,0,1,.8-.234c11.612,4.642,22.745,11.09,39.344,27.458,15.574,15.359,30.574,56.7,30.938,58.5,1.039,5.153.794,8.6-.731,10.257A2.777,2.777,0,0,1,451.715,8900.744Zm-83.872-72.8c5.685,3.193,43.525,24.537,51.959,31.625,6.829,5.737,23.559,21.036,32.227,39.772a1.635,1.635,0,0,0,.759-.5c.666-.755,1.6-2.931.367-9.04-.358-1.777-15.178-42.633-30.562-57.8-16.2-15.979-27.12-22.4-38.4-26.971Z" transform="translate(-366.18 -8803.528)" fill="#4d4d4d"/>
      </g>
      <path id="Trazado_106339" data-name="Trazado 106339" d="M382.9,8830a.65.65,0,0,1-.289-.065.674.674,0,0,1-.32-.9c1.733-3.65,8.494-8.185,8.781-8.377,3.613-2.193,5.834-2.863,6.624-2.014a2.131,2.131,0,0,1,.644,1.914c-.263,1.318-1.851,2.075-2.032,2.158l-2.7,1.961a.676.676,0,0,1-.789-1.1l2.82-2.027c.485-.234,1.281-.752,1.382-1.258.015-.082.062-.326-.311-.728-.393-.09-2.753.924-4.908,2.231-.043.029-6.712,4.5-8.287,7.818A.672.672,0,0,1,382.9,8830Z" transform="translate(-47.472 -8736.965)" fill="#4d4d4d"/>
      <path id="Trazado_106340" data-name="Trazado 106340" d="M348.11,8849.127a.675.675,0,0,1-.2-1.321l44.179-13.511a.676.676,0,0,1,.4,1.293L348.309,8849.1A.7.7,0,0,1,348.11,8849.127Z" transform="translate(-59.682 -8731.356)" fill="#4d4d4d"/>
      <g id="Grupo_55415" data-name="Grupo 55415" transform="translate(310.983 85.878)" opacity="0.36">
        <path id="Trazado_106341" data-name="Trazado 106341" d="M367.577,8822.782l-2.446,2.944,6.411,4.273,2.6-3.609,1.674.922-.22,4.626,4.078,1.581h5.937l1.645,3.558,2.937,1.293,2.115-1.528,1.762.248-1.2,3.16,4.259,2.819,3.391-2.128L368.17,8822.16Z" transform="translate(-364.454 -8821.484)" fill="#999"/>
        <path id="Trazado_106342" data-name="Trazado 106342" d="M397.3,8843.918a.665.665,0,0,1-.373-.111l-4.257-2.82a.673.673,0,0,1-.258-.8l.9-2.367-.653-.092-1.9,1.367a.7.7,0,0,1-.667.072l-2.937-1.291a.7.7,0,0,1-.342-.338l-1.463-3.162h-5.505a.692.692,0,0,1-.243-.047l-4.079-1.584a.671.671,0,0,1-.43-.662l.2-4.205-.781-.428-2.249,3.121a.674.674,0,0,1-.923.168l-6.41-4.273a.672.672,0,0,1-.145-.992l2.445-2.945.032-.035.593-.621a.678.678,0,0,1,.828-.119l25.651,14.846a.683.683,0,0,1,.488.324l.008.014,6.194,3.6a.677.677,0,0,1,.02,1.158l-3.391,2.127A.662.662,0,0,1,397.3,8843.918Zm-3.434-3.76,3.444,2.281,2.075-1.3-4.824-2.8Zm-5.927-3.42,2.349,1.031,1.47-1.061-5.239-3.043Zm-7.961-3.717H385.4l-8.758-5.086-.177,3.723Zm-13.669-7.264,5.245,3.494,2.171-3.016-5.254-3.051-.209.221Z" transform="translate(-364.63 -8821.66)" fill="#4d4d4d"/>
      </g>
      <path id="Trazado_106343" data-name="Trazado 106343" d="M145.49,8836.275a5.682,5.682,0,0,1,4.352-6.413c4.666-1.4,17.77-4.357,17.9-4.387l.3,1.318c-.132.028-13.19,2.977-17.811,4.361-4.035,1.214-3.44,4.718-3.411,4.868Z" transform="translate(-130.584 -8734.443)" fill="#999"/>
      <g id="Grupo_55422" data-name="Grupo 55422" transform="translate(516.874)">
        <g id="Grupo_55416" data-name="Grupo 55416" transform="translate(0 27.645)">
          <path id="Trazado_106344" data-name="Trazado 106344" d="M544.347,9007.236H665.512l7.291-26.378s4.461-12.866,6.841-15.439,9.885-19.087,9.992-22.518-3.966-22.088-3.966-22.088-.751-15.55,2.574-30.024,4.181-23.052-.215-28.628-22.517-13.082-22.517-13.082l-16.728-7.935s-2.9-.535-3.109-8.043,0-21.658,0-21.658a41.854,41.854,0,0,1,3.43-12.868c2.9-6.111,3.11-7.4.215-9.863s-13.4-9.544-26.7-9.651-14.958,1.931-14.958,1.931a81.77,81.77,0,0,1-3.271,14.046s-8.1,22.249-12.518,28.2-13.269,12.627-23.322,15.6-32.087,7.077-32.087,7.077-7.559,1.876-10.882,3.915-3.54,9.221-3.54,9.221a47.31,47.31,0,0,0-4.4,23.269c.966,13.081,2.467,23.159,2.467,23.159l8.364,37.423Z" transform="translate(-516.853 -8778.381)" fill="#fff"/>
          <path id="Trazado_106345" data-name="Trazado 106345" d="M666.2,9008.086H543.993l-16-64.848-8.367-37.436c-.024-.15-1.525-10.3-2.482-23.258a47.715,47.715,0,0,1,4.4-23.5c.053-1.117.5-7.566,3.854-9.621,3.372-2.066,10.761-3.914,11.073-3.992.259-.049,22.153-4.139,32.059-7.068,10.235-3.031,18.913-9.9,22.971-15.357,4.312-5.8,12.345-27.807,12.425-28.029a81.849,81.849,0,0,0,3.234-13.889l.02-.2.127-.154c.312-.383,2.532-2.275,15.486-2.178,15.585.127,26.667,9.418,27.132,9.813,3.241,2.762,2.887,4.484-.041,10.666a41.479,41.479,0,0,0-3.369,12.635c0,.1-.209,14.182,0,21.584.19,6.709,2.555,7.395,2.579,7.4l.143.047,16.728,7.936c.716.3,18.3,7.625,22.759,13.275,4.588,5.82,3.66,14.75.342,29.2-3.263,14.213-2.564,29.684-2.557,29.838.153.654,4.077,18.67,3.969,22.143-.115,3.67-7.782,20.369-10.174,22.955-1.873,2.023-5.472,11.66-6.7,15.2Zm-121.151-1.35H665.173l7.155-25.881c.2-.574,4.547-13.074,7-15.721,2.233-2.412,9.708-18.687,9.815-22.078.1-3.309-3.911-21.74-3.952-21.926-.023-.268-.732-15.918,2.573-30.316,3.225-14.039,4.165-22.668-.085-28.061-4.238-5.373-22.066-12.8-22.245-12.875l-16.7-7.92c-.643-.176-3.348-1.355-3.557-8.66-.212-7.436,0-21.549,0-21.689a41.984,41.984,0,0,1,3.495-13.148c2.874-6.066,2.91-6.912.388-9.061a44.763,44.763,0,0,0-26.267-9.488c-10.776-.064-13.687,1.223-14.315,1.611a85.2,85.2,0,0,1-3.263,13.893c-.342.941-8.19,22.438-12.62,28.4-3.885,5.229-12.418,12.518-23.673,15.848-9.972,2.951-31.935,7.051-32.155,7.092-.035.012-7.458,1.867-10.653,3.828-2.472,1.516-3.16,6.768-3.217,8.664l-.005.156-.073.137a47.068,47.068,0,0,0-4.32,22.9c.952,12.9,2.445,23.012,2.46,23.111l8.356,37.373Z" transform="translate(-517.029 -8778.557)" fill="#999"/>
        </g>
        <g id="Grupo_55420" data-name="Grupo 55420" transform="translate(100.571)">
          <g id="Grupo_55417" data-name="Grupo 55417" transform="translate(1.198)">
            <path id="Trazado_106346" data-name="Trazado 106346" d="M610.953,8770.7c0-6.682-4.05-12.1-9.048-12.1s-9.046,5.42-9.046,12.1c0,5.229,2.482,9.668,5.951,11.361v11.574h6.835v-11.922C608.774,8779.8,610.953,8775.6,610.953,8770.7Z" transform="translate(-592.184 -8757.918)" fill="#fff"/>
            <path id="Trazado_106347" data-name="Trazado 106347" d="M606.5,8794.482h-8.188v-11.84c-3.575-1.977-5.95-6.641-5.95-11.771,0-7.045,4.362-12.777,9.722-12.777s9.723,5.732,9.723,12.777c0,4.8-2.072,9.216-5.307,11.382Zm-6.837-1.352h5.486V8781.5l.324-.2c3.026-1.845,4.982-5.941,4.982-10.437,0-6.3-3.756-11.427-8.372-11.427s-8.371,5.126-8.371,11.427c0,4.808,2.239,9.127,5.572,10.754l.378.187Z" transform="translate(-592.359 -8758.094)" fill="#999"/>
          </g>
          <g id="Grupo_55418" data-name="Grupo 55418" transform="translate(0 14.61)">
            <rect id="Rectángulo_9598" data-name="Rectángulo 9598" width="21.217" height="3.538" rx="1.31" transform="translate(0.676 0.675)" fill="#fff"/>
            <path id="Trazado_106348" data-name="Trazado 106348" d="M611.6,8773.8H593.917a2.445,2.445,0,1,1,0-4.89H611.6a2.445,2.445,0,0,1,0,4.89Zm-17.678-3.539a1.094,1.094,0,1,0,0,2.188H611.6a1.094,1.094,0,0,0,0-2.187Z" transform="translate(-591.472 -8768.908)" fill="#999"/>
          </g>
          <g id="Grupo_55419" data-name="Grupo 55419" transform="translate(0 7.855)">
            <rect id="Rectángulo_9599" data-name="Rectángulo 9599" width="21.217" height="3.538" rx="1.31" transform="translate(0.676 0.674)" fill="#fff"/>
            <path id="Trazado_106349" data-name="Trazado 106349" d="M611.6,8768.8H593.917a2.445,2.445,0,0,1,0-4.891H611.6a2.445,2.445,0,0,1,0,4.891Zm-17.678-3.539a1.094,1.094,0,1,0,0,2.188H611.6a1.094,1.094,0,0,0,0-2.187Z" transform="translate(-591.472 -8763.908)" fill="#999"/>
          </g>
        </g>
        <g id="Grupo_55421" data-name="Grupo 55421" transform="translate(19.581 166.138)">
          <line id="Línea_206" data-name="Línea 206" x2="21.409" y2="89.132" transform="translate(0.657 0.158)" fill="#fff"/>
          <rect id="Rectángulo_9600" data-name="Rectángulo 9600" width="1.352" height="91.668" transform="translate(0 0.315) rotate(-13.506)" fill="#999"/>
        </g>
        <path id="Trazado_106350" data-name="Trazado 106350" d="M553.756,8968.686l-.192-.8,1.315-.318.19.8Zm-1.139-4.738-.946-3.941,1.313-.318.946,3.941Zm-1.894-7.883-.946-3.939,1.314-.318.946,3.941Zm-1.893-7.881-.946-3.941,1.315-.316.946,3.939Zm-1.893-7.881-.946-3.941,1.313-.318.946,3.941Zm-1.894-7.883-.946-3.941,1.315-.318.946,3.941Zm-1.893-7.883-.946-3.941,1.313-.316.947,3.939Zm-1.893-7.881-.947-3.941,1.315-.318.946,3.941Zm-1.894-7.883-.946-3.939,1.315-.318.946,3.941Zm-1.893-7.881-.946-3.941,1.313-.318.947,3.941Zm-1.893-7.881-.947-3.941,1.315-.318.946,3.941Zm-1.894-7.883-.946-3.941,1.314-.316.946,3.939Z" transform="translate(-511.516 -8715.001)" fill="#999"/>
        <path id="Trazado_106351" data-name="Trazado 106351" d="M551.884,8970.284l-.39-1.6,1.31-.318.39,1.6Zm-1.351-5.54-.961-3.937,1.31-.318.961,3.938Zm-1.92-7.876-.961-3.937,1.312-.318.959,3.937Zm-1.921-7.875-.961-3.936,1.312-.319.961,3.937Zm-1.92-7.874-.961-3.937,1.312-.32.961,3.937Zm-1.921-7.875-.961-3.937,1.312-.321.961,3.938Zm-1.921-7.875-.959-3.938,1.312-.32.959,3.938Zm-1.92-7.876-.961-3.938,1.312-.319.961,3.938Zm-1.921-7.875-.958-3.938,1.31-.319.959,3.938Zm-1.919-7.876-.961-3.937,1.31-.319.961,3.938Zm-1.921-7.875-.959-3.937,1.31-.318.959,3.938Zm-1.92-7.875-.961-3.937,1.312-.318.959,3.938Z" transform="translate(-512.347 -8714.696)" fill="#999"/>
        <ellipse id="Elipse_4308" data-name="Elipse 4308" cx="2.52" cy="4.396" rx="2.52" ry="4.396" transform="translate(10.583 130.413) rotate(-14.41)" fill="#999"/>
        <path id="Trazado_106352" data-name="Trazado 106352" d="M534.59,8899.643c-8.623,0-16.162-14.158-17.275-32.652-.535-8.887.546-17.348,3.049-23.822,2.568-6.65,6.351-10.455,10.65-10.711,8.825-.535,16.613,13.8,17.748,32.639h0c1.135,18.832-4.883,34-13.7,34.533C534.9,8899.637,534.747,8899.643,534.59,8899.643Zm-3.1-65.85c-.131,0-.261,0-.392.012-3.74.225-7.1,3.723-9.472,9.852-2.433,6.3-3.486,14.557-2.96,23.252,1.052,17.48,8.152,31.383,15.927,31.383.132,0,.261,0,.392-.012,7.926-.475,13.5-15.328,12.432-33.1C546.36,8847.7,539.26,8833.793,531.487,8833.793Z" transform="translate(-516.976 -8731.999)" fill="#999"/>
        <path id="Trazado_106353" data-name="Trazado 106353" d="M596.056,8991.386l-1.348-.085,2.029-32.812c0-.118.445-14.153,1.878-27.852,1.4-13.352-3.092-19.506-3.138-19.566l-14.426-27.5c-.108-.278-7.187-19.785-13.756-36.523-6.455-16.447-17.84-21.418-17.953-21.465l.523-1.246c.489.206,12.013,5.206,18.688,22.218,6.574,16.754,13.661,36.276,13.73,36.473l14.331,27.319c.139.168,4.8,6.49,3.344,20.428-1.427,13.646-1.867,27.636-1.871,27.775Z" transform="translate(-505.688 -8734.842)" fill="#999"/>
        <path id="Trazado_106354" data-name="Trazado 106354" d="M611.71,9001.711l-1.321-.277c.015-.078,1.625-7.931,3.556-31.388,1.845-22.47.865-50.278.854-50.557l-4.308-27.8c-.047-.257-5.142-27.894-6.841-46.793-1.7-18.949,2.856-48.865,2.9-49.165l1.335.205c-.046.3-4.577,30.054-2.89,48.84,1.693,18.835,6.775,46.41,6.825,46.687l4.322,27.9c.016.356,1,28.247-.852,50.794C613.352,8993.729,611.726,9001.633,611.71,9001.711Z" transform="translate(-486.76 -8744.884)" fill="#999"/>
        <path id="Trazado_106355" data-name="Trazado 106355" d="M649.559,8914.216c-.062-.185-6.359-18.63-9.116-26.9-2.7-8.106-4-15.562-6.034-34.668-1.862-17.473-9.329-21.833-9.4-21.877l.651-1.184c.331.181,8.149,4.655,10.095,22.917,2.024,18.994,3.307,26.384,5.974,34.383,2.755,8.269,9.05,26.709,9.114,26.9Z" transform="translate(-479.131 -8733.001)" fill="#999"/>
        <path id="Trazado_106356" data-name="Trazado 106356" d="M619.81,8793.092a95.6,95.6,0,0,1-10.509-.926l-.959-.115c-9.514-1.129-23.925-9.15-24.534-9.49l.661-1.18c.146.084,14.785,8.23,24.031,9.33l.962.113c8.7,1.033,11.955,1.42,17.1-.094l.382,1.3A23.782,23.782,0,0,1,619.81,8793.092Z" transform="translate(-493.591 -8749.92)" fill="#999"/>
        <path id="Trazado_106357" data-name="Trazado 106357" d="M615.655,8799.313a35.1,35.1,0,0,1-8.276-.886c-9.791-.733-23.717-9.154-24.3-9.512l.7-1.155c.142.088,14.241,8.609,23.827,9.339a39.28,39.28,0,0,0,16.323.013l.277,1.323A41.843,41.843,0,0,1,615.655,8799.313Z" transform="translate(-493.848 -8747.682)" fill="#999"/>
        <path id="Trazado_106358" data-name="Trazado 106358" d="M611.809,8841.953h-.058c-24.171-.645-42.8-24.793-42.983-25.037l1.077-.817c.181.24,18.426,23.877,41.942,24.5a19.156,19.156,0,0,0,17.535-11.971l1.244.521C625.327,8841.694,612.774,8841.953,611.809,8841.953Z" transform="translate(-498.87 -8737.734)" fill="#999"/>
        <path id="Trazado_106359" data-name="Trazado 106359" d="M585.448,8894.934l3.867-6.085-.931-2.746s-.427-1.163.669-1.189l4.589,2.173s1.97,1.062.262,2.011l-3.142.978-3.9,5.545-1.441.917Z" transform="translate(-493.025 -8713.581)" fill="#999"/>
        <path id="Trazado_106360" data-name="Trazado 106360" d="M567.673,8818.83l-4.931-5.26-2.89.219s-1.233.123-.986-.945l3.246-3.9s1.52-1.643,2.013.248l.165,3.287,4.4,5.156.531,1.623Z" transform="translate(-502.357 -8740.479)" fill="#999"/>
        <path id="Trazado_106361" data-name="Trazado 106361" d="M644.538,8900.18l6.681-2.711.834-2.775s.328-1.193,1.236-.58l2.476,4.432s.988,2.01-.954,1.791l-3.126-1.027-6.393,2.252-1.706-.088Z" transform="translate(-472.609 -8710.413)" fill="#999"/>
        <path id="Trazado_106362" data-name="Trazado 106362" d="M550.479,8903.605l-6.681-2.712-.834-2.775s-.328-1.193-1.236-.58l-2.476,4.433s-.988,2.008.954,1.789l3.126-1.027,6.393,2.253,1.706-.088Z" transform="translate(-509.318 -8709.213)" fill="#999"/>
        <path id="Trazado_106363" data-name="Trazado 106363" d="M546.762,8915.416l-3.78-12.389,32.649-11.162,11.1-2.574c13.1-2.25,36.5,2.37,37.493,2.571l55.12,5.917.177.222c4.927,6.191-.9,12.151-.963,12.21l-.23.229L678,8910.4c-.481-.053-48.156-5.338-66.927-7.884-18.595-2.516-30.119,1.614-30.234,1.655Zm-2.108-11.533,3,9.819,32.747-10.8c.457-.17,11.936-4.283,30.862-1.716,17.918,2.43,62.224,7.358,66.554,7.842.923-1.048,4.256-5.376.816-9.962l-54.612-5.867c-.3-.056-24.21-4.791-37.021-2.58l-11.025,2.558Z" transform="translate(-507.92 -8712.261)" fill="#999"/>
      </g>
      <path id="Trazado_106364" data-name="Trazado 106364" d="M528.079,8836.275a5.682,5.682,0,0,1,4.35-6.413c4.668-1.4,17.771-4.357,17.9-4.387l.3,1.318c-.132.028-13.19,2.977-17.813,4.361-4.034,1.214-3.438,4.718-3.41,4.868Z" transform="translate(3.702 -8734.443)" fill="#999"/>
      <g id="Grupo_55423" data-name="Grupo 55423" transform="translate(553.507 59.909)" opacity="0.36">
        <path id="Trazado_106365" data-name="Trazado 106365" d="M651.891,8867.318s-19.384,25.374-19.031,34.186c0,0-31.538-15.859-33.126-19.208,0,0,1.252-7.93,4.589-11.983l-11.287,7.333-16.8-12.441,8.7-16.036-15.923,7.577-9.453-8.986,11.1-10.574s-15.508,3-17.27,3.349l-8.741-9.34s27.031-7.577,33.129-20.088l5.393-8.164s36.124,44.641,49.692,50.984Z" transform="translate(-543.97 -8802.262)" fill="#999"/>
        <path id="Trazado_106366" data-name="Trazado 106366" d="M633.035,8902.356a.677.677,0,0,1-.3-.073c-3.25-1.634-31.793-16.063-33.434-19.52a.69.69,0,0,1-.057-.4,36.883,36.883,0,0,1,3.011-9.612l-8.675,5.634a.668.668,0,0,1-.77-.025L576,8865.922a.673.673,0,0,1-.19-.864l7.707-14.213-14.049,6.687a.668.668,0,0,1-.755-.12l-9.453-8.987a.673.673,0,0,1,0-.979l9.433-8.983c-4.37.846-13.663,2.643-15,2.91a.671.671,0,0,1-.625-.2l-8.741-9.34a.677.677,0,0,1,.311-1.113c.267-.074,26.809-7.639,32.7-19.734l5.438-8.24a.67.67,0,0,1,.53-.3.616.616,0,0,1,.559.248c.359.444,36.181,44.592,49.453,50.8l19.134,13.451a.678.678,0,0,1,.147.965c-.192.251-19.231,25.279-18.892,33.747a.678.678,0,0,1-.676.7Zm-32.418-20.012c1.794,2.517,19.9,12.25,31.785,18.26.944-9,15.9-29.237,18.7-32.959l-18.46-12.99c-12.672-5.916-44.384-44.432-49.246-50.4l-4.886,7.395c-5.5,11.3-27.3,18.493-32.451,20.059l7.737,8.264c2.923-.575,16.9-3.277,16.9-3.277a.677.677,0,0,1,.594,1.154l-10.588,10.084,8.6,8.176,15.5-7.378a.676.676,0,0,1,.884.934l-8.417,15.519L593.234,8877l10.9-7.075a.675.675,0,0,1,.889.994C602.154,8874.4,600.854,8881.02,600.616,8882.345Z" transform="translate(-544.146 -8802.439)" fill="#4d4d4d"/>
      </g>
      <g id="Grupo_55424" data-name="Grupo 55424" transform="translate(648.476 123.413)" opacity="0.63">
        <path id="Trazado_106367" data-name="Trazado 106367" d="M614.941,8869.909l4.347,2.057s8.634-17.21,9.28-18.679c0,0,1.762-5.4-1.351-2.467Z" transform="translate(-614.266 -8849.268)" fill="#999"/>
        <path id="Trazado_106368" data-name="Trazado 106368" d="M619.464,8872.818a.674.674,0,0,1-.289-.063l-4.348-2.058a.677.677,0,0,1-.28-.976l12.276-19.089a.609.609,0,0,1,.105-.126c.719-.678,1.641-1.393,2.421-.9.934.59.535,2.537.037,4.066-.67,1.528-8.967,18.068-9.319,18.771A.678.678,0,0,1,619.464,8872.818ZM616.1,8869.8l3.055,1.445c1.521-3.036,8.4-16.775,8.969-18.058a8.85,8.85,0,0,0,.444-2.281,4.542,4.542,0,0,0-.654.521Z" transform="translate(-614.441 -8849.444)" fill="#4d4d4d"/>
      </g>
      <g id="Grupo_55431" data-name="Grupo 55431" transform="translate(766.685 2.525)">
        <g id="Grupo_55425" data-name="Grupo 55425" transform="translate(0 27.647)">
          <path id="Trazado_106369" data-name="Trazado 106369" d="M729.257,9009.106H850.422l7.291-26.379s4.461-12.866,6.84-15.44,9.887-19.085,9.993-22.517-3.967-22.09-3.967-22.09-.751-15.547,2.574-30.022,4.181-23.053-.215-28.628-22.517-13.082-22.517-13.082l-16.728-7.935s-2.9-.536-3.109-8.043,0-21.658,0-21.658a41.853,41.853,0,0,1,3.43-12.867c2.9-6.112,3.11-7.4.215-9.864s-13.4-9.544-26.7-9.651-14.957,1.932-14.957,1.932a81.79,81.79,0,0,1-3.271,14.046s-8.1,22.249-12.518,28.2-13.269,12.625-23.322,15.6-32.087,7.076-32.087,7.076-7.559,1.876-10.882,3.913-3.54,9.223-3.54,9.223a47.3,47.3,0,0,0-4.4,23.268c.966,13.081,2.467,23.161,2.467,23.161l8.363,37.421Z" transform="translate(-701.764 -8780.252)" fill="#fff"/>
          <path id="Trazado_106370" data-name="Trazado 106370" d="M851.111,9009.957H728.9l-16-64.848-8.367-37.436c-.024-.15-1.525-10.3-2.482-23.258a47.743,47.743,0,0,1,4.4-23.5c.054-1.117.505-7.566,3.853-9.621,3.376-2.066,10.763-3.912,11.077-3.992.258-.049,22.152-4.135,32.056-7.066,10.236-3.033,18.914-9.9,22.971-15.359,4.315-5.8,12.347-27.807,12.427-28.027a81.864,81.864,0,0,0,3.234-13.889l.02-.2.127-.158c.313-.381,2.557-2.258,15.486-2.178,15.589.127,26.667,9.418,27.132,9.813,3.242,2.762,2.886,4.486-.041,10.668a41.494,41.494,0,0,0-3.369,12.633c0,.1-.211,14.18,0,21.584.19,6.711,2.553,7.4,2.579,7.4l.143.049,16.727,7.934c.716.3,18.3,7.627,22.76,13.275,4.588,5.82,3.66,14.752.342,29.2-3.263,14.213-2.564,29.684-2.557,29.838.153.656,4.077,18.67,3.969,22.143-.116,3.67-7.783,20.369-10.174,22.955-1.872,2.025-5.47,11.66-6.7,15.2Zm-121.15-1.352H850.082l7.156-25.883c.2-.57,4.549-13.07,7-15.717,2.232-2.414,9.708-18.686,9.815-22.08.1-3.311-3.911-21.738-3.952-21.924-.023-.268-.732-15.92,2.574-30.32,3.225-14.037,4.165-22.664-.085-28.059-4.238-5.373-22.067-12.8-22.247-12.875l-16.7-7.918c-.645-.178-3.349-1.357-3.557-8.662-.214-7.436,0-21.549,0-21.691a41.924,41.924,0,0,1,3.5-13.143c2.872-6.068,2.909-6.916.386-9.062a44.746,44.746,0,0,0-26.267-9.49c-10.781-.076-13.687,1.221-14.314,1.613a85.566,85.566,0,0,1-3.263,13.891c-.342.941-8.191,22.438-12.622,28.4-3.884,5.229-12.416,12.518-23.673,15.85-9.97,2.949-31.932,7.051-32.152,7.092-.037.01-7.459,1.867-10.657,3.826-2.971,1.82-3.214,8.6-3.215,8.666l-.005.152-.073.141a47.06,47.06,0,0,0-4.319,22.9c.953,12.9,2.447,23.012,2.46,23.111l8.356,37.373Z" transform="translate(-701.94 -8780.427)" fill="#999"/>
        </g>
        <g id="Grupo_55429" data-name="Grupo 55429" transform="translate(100.571)">
          <g id="Grupo_55426" data-name="Grupo 55426" transform="translate(1.197)">
            <path id="Trazado_106371" data-name="Trazado 106371" d="M795.863,8772.565c0-6.684-4.05-12.1-9.047-12.1s-9.046,5.418-9.046,12.1c0,5.228,2.482,9.669,5.951,11.361V8795.5h6.835v-11.922C793.684,8781.673,795.863,8777.463,795.863,8772.565Z" transform="translate(-777.092 -8759.787)" fill="#fff"/>
            <path id="Trazado_106372" data-name="Trazado 106372" d="M791.406,8796.352H783.22v-11.84c-3.577-1.977-5.952-6.639-5.952-11.77,0-7.047,4.362-12.779,9.724-12.779s9.722,5.732,9.722,12.779c0,4.8-2.071,9.215-5.308,11.381ZM784.572,8795h5.484v-11.627l.324-.2c3.028-1.844,4.984-5.941,4.984-10.436,0-6.3-3.754-11.428-8.371-11.428s-8.373,5.127-8.373,11.428c0,4.8,2.239,9.125,5.573,10.752l.38.186Z" transform="translate(-777.268 -8759.963)" fill="#999"/>
          </g>
          <g id="Grupo_55427" data-name="Grupo 55427" transform="translate(0 14.612)">
            <rect id="Rectángulo_9601" data-name="Rectángulo 9601" width="21.217" height="3.538" rx="1.31" transform="translate(0.675 0.674)" fill="#fff"/>
            <path id="Trazado_106373" data-name="Trazado 106373" d="M796.505,8775.668H778.826a2.445,2.445,0,0,1,0-4.89h17.679a2.445,2.445,0,1,1,0,4.89Zm-17.679-3.539a1.094,1.094,0,0,0,0,2.188h17.679a1.094,1.094,0,1,0,0-2.187Z" transform="translate(-776.382 -8770.778)" fill="#999"/>
          </g>
          <g id="Grupo_55428" data-name="Grupo 55428" transform="translate(0 7.855)">
            <rect id="Rectángulo_9602" data-name="Rectángulo 9602" width="21.217" height="3.538" rx="1.31" transform="translate(0.675 0.675)" fill="#fff"/>
            <path id="Trazado_106374" data-name="Trazado 106374" d="M796.505,8770.666H778.826a2.444,2.444,0,0,1,0-4.889h17.679a2.444,2.444,0,1,1,0,4.889Zm-17.679-3.537a1.094,1.094,0,0,0,0,2.188h17.679a1.094,1.094,0,1,0,0-2.187Z" transform="translate(-776.382 -8765.777)" fill="#999"/>
          </g>
        </g>
        <g id="Grupo_55430" data-name="Grupo 55430" transform="translate(19.581 166.139)">
          <line id="Línea_207" data-name="Línea 207" x2="21.409" y2="89.132" transform="translate(0.657 0.157)" fill="#fff"/>
          <rect id="Rectángulo_9603" data-name="Rectángulo 9603" width="1.352" height="91.668" transform="translate(0 0.315) rotate(-13.506)" fill="#999"/>
        </g>
        <path id="Trazado_106375" data-name="Trazado 106375" d="M738.665,8970.554l-.192-.8,1.315-.318.19.8Zm-1.139-4.738-.946-3.94,1.313-.318.947,3.941Zm-1.891-7.882-.948-3.94,1.314-.318.947,3.941Zm-1.894-7.882-.947-3.94,1.315-.318.947,3.941Zm-1.893-7.881-.947-3.941,1.313-.317.948,3.94Zm-1.893-7.882-.948-3.942,1.315-.315.947,3.939Zm-1.894-7.885-.946-3.941,1.315-.313.946,3.941Zm-1.893-7.882-.946-3.94,1.313-.315.946,3.941Zm-1.894-7.881-.946-3.941,1.315-.315.946,3.941Zm-1.893-7.882-.946-3.941,1.314-.314.946,3.94Zm-1.893-7.882-.947-3.94,1.315-.315.946,3.94ZM718.595,8887l-.946-3.94,1.315-.315.946,3.94Z" transform="translate(-696.426 -8716.869)" fill="#999"/>
        <path id="Trazado_106376" data-name="Trazado 106376" d="M736.794,8972.154l-.39-1.6,1.31-.319.392,1.6Zm-1.351-5.541-.961-3.938,1.312-.317.961,3.937Zm-1.921-7.876-.959-3.937,1.312-.317.959,3.937Zm-1.92-7.875-.961-3.937,1.312-.317.961,3.937Zm-1.921-7.875-.959-3.936,1.312-.319.959,3.937Zm-1.92-7.874-.961-3.937,1.312-.321.961,3.938Zm-1.921-7.875-.959-3.937,1.312-.32.959,3.938Zm-1.92-7.875-.959-3.938,1.31-.32.961,3.938Zm-1.92-7.875-.959-3.939,1.31-.319.959,3.938Zm-1.92-7.877-.961-3.937,1.31-.319.961,3.938Zm-1.921-7.875-.959-3.938,1.312-.318.959,3.938Zm-1.92-7.875-.961-3.938,1.312-.317.961,3.937Z" transform="translate(-697.257 -8716.565)" fill="#999"/>
        <ellipse id="Elipse_4309" data-name="Elipse 4309" cx="2.52" cy="4.396" rx="2.52" ry="4.396" transform="translate(10.582 130.413) rotate(-14.41)" fill="#999"/>
        <path id="Trazado_106377" data-name="Trazado 106377" d="M719.5,8901.513c-8.621,0-16.158-14.155-17.274-32.652-1.135-18.832,4.882-34,13.7-34.533,8.839-.553,16.612,13.8,17.748,32.638h0c1.135,18.832-4.882,34-13.7,34.533C719.816,8901.507,719.656,8901.513,719.5,8901.513Zm-3.1-65.851c-.13,0-.261,0-.392.013-7.926.477-13.5,15.328-12.433,33.1s8.39,31.878,16.319,31.37c7.928-.477,13.5-15.328,12.433-33.1C731.271,8849.563,724.173,8835.662,716.4,8835.662Z" transform="translate(-701.888 -8733.868)" fill="#999"/>
        <path id="Trazado_106378" data-name="Trazado 106378" d="M781.865,8993.234l-1.351-.047,1.129-32.811c.005-.137.447-14.172,1.881-27.871,1.4-13.354-3.092-19.5-3.138-19.566l-14.427-27.5c-.108-.277-7.187-19.781-13.756-36.523-6.454-16.445-17.837-21.416-17.952-21.463l.523-1.246c.489.205,12.013,5.205,18.687,22.217,6.575,16.756,13.661,36.275,13.732,36.473l14.331,27.318c.139.168,4.8,6.49,3.344,20.43-1.427,13.646-1.868,27.637-1.872,27.775Z" transform="translate(-690.598 -8736.711)" fill="#999"/>
        <path id="Trazado_106379" data-name="Trazado 106379" d="M796.863,9003.374l-1.329-.241c.015-.077,1.389-7.746,3.319-31.219,1.847-22.469.866-50.278.857-50.557l-4.31-27.8c-.047-.257-5.142-27.892-6.84-46.791-1.7-18.949,2.855-48.865,2.9-49.166l1.335.206c-.046.3-4.577,30.054-2.89,48.839,1.694,18.835,6.775,46.41,6.825,46.687l4.322,27.9c.016.355,1,28.245-.854,50.794C798.261,8995.593,796.877,9003.3,796.863,9003.374Z" transform="translate(-671.67 -8746.753)" fill="#999"/>
        <path id="Trazado_106380" data-name="Trazado 106380" d="M834.469,8916.085c-.064-.185-6.358-18.632-9.117-26.9-2.7-8.107-4-15.559-6.034-34.668-1.862-17.473-9.328-21.833-9.4-21.877l.651-1.184c.331.181,8.149,4.654,10.095,22.917,2.024,19,3.307,26.388,5.974,34.386,2.755,8.266,9.049,26.706,9.112,26.893Z" transform="translate(-664.041 -8734.87)" fill="#999"/>
        <path id="Trazado_106381" data-name="Trazado 106381" d="M804.72,8794.962a95.692,95.692,0,0,1-10.5-.926l-.966-.115c-9.514-1.128-23.925-9.15-24.534-9.491l.661-1.179c.146.083,14.785,8.23,24.031,9.33l.967.114c8.7,1.03,11.951,1.419,17.1-.094l.38,1.3A23.788,23.788,0,0,1,804.72,8794.962Z" transform="translate(-678.501 -8751.79)" fill="#999"/>
        <path id="Trazado_106382" data-name="Trazado 106382" d="M800.563,8801.181a35.135,35.135,0,0,1-8.276-.885c-9.791-.733-23.715-9.155-24.3-9.513l.7-1.154c.14.087,14.238,8.608,23.825,9.339a39.3,39.3,0,0,0,16.323.013l.277,1.323A41.887,41.887,0,0,1,800.563,8801.181Z" transform="translate(-678.758 -8749.551)" fill="#999"/>
        <path id="Trazado_106383" data-name="Trazado 106383" d="M796.719,8843.823h-.058c-24.172-.646-42.8-24.792-42.983-25.035l1.077-.819c.181.24,18.425,23.876,41.942,24.5a19.178,19.178,0,0,0,17.534-11.971l1.246.521C810.237,8843.565,797.684,8843.823,796.719,8843.823Z" transform="translate(-683.78 -8739.604)" fill="#999"/>
        <path id="Trazado_106384" data-name="Trazado 106384" d="M770.357,8896.8l3.868-6.084-.932-2.744s-.426-1.164.67-1.19l4.589,2.172s1.97,1.063.262,2.012l-3.142.977-3.9,5.546-1.442.917Z" transform="translate(-677.935 -8715.45)" fill="#999"/>
        <path id="Trazado_106385" data-name="Trazado 106385" d="M752.583,8820.7l-4.931-5.259-2.89.218s-1.233.125-.986-.943l3.246-3.905s1.52-1.643,2.013.248l.165,3.286,4.4,5.157.531,1.624Z" transform="translate(-687.267 -8742.35)" fill="#999"/>
        <path id="Trazado_106386" data-name="Trazado 106386" d="M829.448,8902.05l6.681-2.71.834-2.775s.328-1.194,1.236-.582l2.476,4.433s.988,2.01-.954,1.79l-3.126-1.027-6.394,2.254-1.705-.09Z" transform="translate(-657.519 -8712.282)" fill="#999"/>
        <path id="Trazado_106387" data-name="Trazado 106387" d="M735.389,8905.475l-6.681-2.711-.834-2.776s-.328-1.193-1.237-.579l-2.475,4.431s-.988,2.011.954,1.791l3.126-1.027,6.393,2.252,1.706-.088Z" transform="translate(-694.228 -8711.08)" fill="#999"/>
        <path id="Trazado_106388" data-name="Trazado 106388" d="M731.672,8917.285l-3.78-12.389,32.648-11.161,11.1-2.574c13.091-2.251,36.5,2.369,37.493,2.57l55.119,5.918.177.221c4.928,6.19-.9,12.152-.963,12.212l-.23.229-.322-.037c-.481-.053-48.155-5.338-66.925-7.885-18.567-2.513-30.12,1.614-30.234,1.654Zm-2.106-11.533,3,9.819,32.748-10.8c.455-.17,11.933-4.287,30.859-1.718,17.92,2.431,62.224,7.361,66.554,7.844.924-1.048,4.257-5.378.817-9.964l-54.612-5.868c-.3-.058-24.221-4.788-37.021-2.576l-11.027,2.556Z" transform="translate(-692.83 -8714.129)" fill="#999"/>
      </g>
      <path id="Trazado_106389" data-name="Trazado 106389" d="M712.989,8838.146a5.682,5.682,0,0,1,4.35-6.414c4.668-1.4,17.771-4.355,17.9-4.386l.3,1.318c-.132.029-13.19,2.977-17.813,4.36-4.035,1.214-3.438,4.719-3.41,4.869Z" transform="translate(68.604 -8733.787)" fill="#999"/>
      <g id="Grupo_55432" data-name="Grupo 55432" transform="translate(809.924 57.326)" opacity="0.36">
        <path id="Trazado_106390" data-name="Trazado 106390" d="M772.062,8801.028s6.52,20.971,25.023,36.213l41.234,34.8L817,8905.876l-29.481-19.207,4.591-11.631-11.03,7.753-20.109-15.682,8.98-16.917-16.623,8.752-10.339-12.806,9.214-11.631-13.09,3.878-4.665-5.991S762.723,8823.407,772.062,8801.028Z" transform="translate(-733.769 -8800.351)" fill="#999"/>
        <path id="Trazado_106391" data-name="Trazado 106391" d="M817.173,8906.727a.656.656,0,0,1-.369-.109l-29.48-19.207a.673.673,0,0,1-.261-.812l3.762-9.534-9.185,6.456a.676.676,0,0,1-.8-.019l-20.11-15.684a.676.676,0,0,1-.181-.85l7.952-14.979-14.681,7.729a.675.675,0,0,1-.84-.173l-10.339-12.8a.673.673,0,0,1,0-.845l7.889-9.957-11.044,3.271a.688.688,0,0,1-.724-.231l-4.666-5.993a.675.675,0,0,1,.33-1.059c.28-.089,28.09-9.156,37.2-30.983a.676.676,0,0,1,1.269.06c.065.208,6.685,20.965,24.808,35.895l41.24,34.806a.679.679,0,0,1,.136.877l-21.324,33.833a.675.675,0,0,1-.427.3A.642.642,0,0,1,817.173,8906.727Zm-28.65-20.147,28.444,18.533,20.643-32.755-40.785-34.424c-15.461-12.736-22.688-29.648-24.658-34.9-8.945,19.064-31.613,28.128-36.434,29.871l3.8,4.883,12.649-3.747a.681.681,0,0,1,.751.271.673.673,0,0,1-.031.8l-8.877,11.207,9.65,11.953,16.129-8.493a.676.676,0,0,1,.912.915l-8.712,16.415,19.266,15.026,10.622-7.465a.675.675,0,0,1,1.016.8Z" transform="translate(-733.945 -8800.526)" fill="#4d4d4d"/>
      </g>
      <path id="Trazado_106392" data-name="Trazado 106392" d="M785.739,8866.445c-1.543-1.432-3.159-3.057-4.806-4.83l.99-.916c1.624,1.746,3.215,3.346,4.733,4.754Zm5.635-.879-1.069-.826c1.343-1.732,2.647-3.574,3.873-5.471l1.135.734C794.065,8861.932,792.738,8863.8,791.374,8865.566Zm-14.928-9.055c-1.385-1.654-2.813-3.436-4.25-5.293l1.069-.826c1.427,1.844,2.845,3.611,4.218,5.254Zm22.327-2.381-1.193-.631a66.065,66.065,0,0,0,2.84-6.057l1.251.508A66.711,66.711,0,0,1,798.772,8854.131Zm-30.641-8.346c-1.348-1.861-2.653-3.719-3.9-5.545l1.113-.764c1.246,1.816,2.544,3.664,3.885,5.518Zm-7.676-11.18c-1.315-2.01-2.537-3.932-3.649-5.711l1.144-.717c1.111,1.773,2.328,3.688,3.637,5.688Zm-7.186-11.5c-2.139-3.584-3.4-5.861-3.418-5.887l1.182-.652c.012.021,1.268,2.283,3.4,5.848Z" transform="translate(81.563 -8737.569)" fill="#999"/>
    </g>
  </g>
</svg>
