<svg xmlns="http://www.w3.org/2000/svg" width="250.454" height="566.692" viewBox="0 0 250.454 566.692">
  <g id="Grupo_55532" data-name="Grupo 55532" transform="translate(-584.55 -6042.81)">
    <rect id="Rectángulo_9663" data-name="Rectángulo 9663" width="250.454" height="566.692" rx="10.435" transform="translate(584.55 6042.81)" fill="#fff"/>
    <g id="Grupo_55531" data-name="Grupo 55531" transform="translate(596.805 6054.039)">
      <g id="Grupo_55520" data-name="Grupo 55520" transform="translate(42.025 44.125)" opacity="0.33">
        <path id="Trazado_106600" data-name="Trazado 106600" d="M777.852,6378.138l-9.9-24.617v-8.295l8.967-56.01,12.192-55.778v-22.118s3.971-10.891,4.3-28.755-1.323-25.012-3.971-32.327l-25.477-9.188-19.632-6.976s-16.324-3.855-15.663-23.593l-1.1-31.08-20.68,4.267L686.2,6079.4l.111,31.022c.662,19.737-16.875,23.65-16.875,23.65l-19.632,6.976-24.651,6.806c-2.648,7.316-5.128,16.845-4.8,34.71s4.3,28.755,4.3,28.755v22.118l12.193,55.776h0l1.777,8.134,10.248,47.878v9.634s-18.2,38.53-20.069,69.3V6576.95H793.421l-2.189-127.9S790.962,6401.418,777.852,6378.138Z" transform="translate(-619.56 -6078.456)" fill="#fff"/>
        <path id="Trazado_106601" data-name="Trazado 106601" d="M794.473,6578.049H628.311V6424.491c1.8-29.614,18.8-66.735,20.066-69.474v-9.381l-12.005-55.928-12.212-55.942V6211.78c-.449-1.309-3.991-12.131-4.3-28.872-.334-18.106,2.262-27.846,4.847-34.984l.135-.375,25.033-6.912,19.58-6.957c.78-.181,17-4.056,16.363-22.9l-.114-31.992,21.454,4.427,21.417-4.419,1.135,31.988c-.632,18.9,14.427,22.72,15.069,22.873l19.712,7,25.822,9.31.123.339c2.851,7.879,4.336,15.408,4.017,32.6-.311,16.741-3.854,27.563-4.3,28.872l-.019,22.15-12.192,55.779-8.958,55.968.009,8.025,9.827,24.433c13.033,23.2,13.45,70.759,13.453,71.236ZM629.85,6576.51H792.907l-2.176-127.119c0-.483-.42-47.707-13.281-70.546l-.043-.089-9.956-24.905v-8.295l8.976-56.132,12.183-55.739.046-22.3c.04-.109,3.931-11,4.257-28.509.309-16.706-1.1-24.126-3.8-31.712l-25.139-9.063-19.628-6.977c-.089-.015-16.85-4.209-16.174-24.343L727.1,6080.67l-19.945,4.114-.155-.032-19.754-4.076.108,30.073c.676,20.12-17.3,24.364-17.477,24.406l-19.543,6.948-24.319,6.718c-2.491,6.974-4.943,16.52-4.619,34.06.326,17.509,4.217,28.4,4.256,28.507l.046.262v22.035l13.953,63.828,10.264,48.043-.072,9.961c-.183.384-18.154,38.756-20,69.022Z" transform="translate(-619.829 -6078.786)"/>
      </g>
      <g id="Grupo_55521" data-name="Grupo 55521" transform="translate(70.47 310.162)">
        <path id="Trazado_106602" data-name="Trazado 106602" d="M715.788,6262.754l-3.081-3.632L715.6,6256l-2.75-3.527.993-.772,3.406,4.368-2.859,3.093,2.361,2.783Z" transform="translate(-598.252 -6251.697)" fill="#999"/>
        <path id="Trazado_106603" data-name="Trazado 106603" d="M713.534,6262.754l-3.081-3.632,2.891-3.125-2.75-3.527.993-.772,3.406,4.368-2.859,3.093,2.361,2.783Z" transform="translate(-599.466 -6251.697)" fill="#999"/>
        <path id="Trazado_106604" data-name="Trazado 106604" d="M711.28,6262.754l-3.081-3.632L711.09,6256l-2.75-3.527.993-.772,3.406,4.368-2.859,3.093,2.361,2.783Z" transform="translate(-600.68 -6251.697)" fill="#999"/>
        <path id="Trazado_106605" data-name="Trazado 106605" d="M709.026,6262.754l-3.081-3.632,2.891-3.125-2.751-3.527.993-.772,3.406,4.368-2.859,3.093,2.361,2.783Z" transform="translate(-601.894 -6251.697)" fill="#999"/>
        <path id="Trazado_106606" data-name="Trazado 106606" d="M706.772,6262.754l-3.081-3.632,2.891-3.125-2.75-3.527.993-.772,3.406,4.368-2.859,3.093,2.361,2.783Z" transform="translate(-603.108 -6251.697)" fill="#999"/>
        <path id="Trazado_106607" data-name="Trazado 106607" d="M704.517,6262.754l-3.081-3.632,2.891-3.125-2.751-3.527.993-.772,3.406,4.368-2.859,3.093,2.361,2.783Z" transform="translate(-604.322 -6251.697)" fill="#999"/>
        <path id="Trazado_106608" data-name="Trazado 106608" d="M702.263,6262.754l-3.081-3.632,2.891-3.125-2.75-3.527.993-.772,3.406,4.368-2.859,3.093,2.361,2.783Z" transform="translate(-605.536 -6251.697)" fill="#999"/>
        <path id="Trazado_106609" data-name="Trazado 106609" d="M700.009,6262.754l-3.081-3.632,2.891-3.125-2.751-3.527.993-.772,3.406,4.368-2.859,3.093,2.361,2.783Z" transform="translate(-606.751 -6251.697)" fill="#999"/>
        <path id="Trazado_106610" data-name="Trazado 106610" d="M697.755,6262.754l-3.081-3.632,2.891-3.125-2.75-3.527.993-.772,3.406,4.368-2.859,3.093,2.36,2.783Z" transform="translate(-607.965 -6251.697)" fill="#999"/>
        <path id="Trazado_106611" data-name="Trazado 106611" d="M695.5,6262.754l-3.081-3.632L695.31,6256l-2.75-3.527.993-.772,3.406,4.368-2.859,3.093,2.36,2.783Z" transform="translate(-609.179 -6251.697)" fill="#999"/>
        <path id="Trazado_106612" data-name="Trazado 106612" d="M693.246,6262.754l-3.081-3.632,2.891-3.125-2.75-3.527.993-.772,3.406,4.368-2.859,3.093,2.361,2.783Z" transform="translate(-610.393 -6251.697)" fill="#999"/>
        <path id="Trazado_106613" data-name="Trazado 106613" d="M690.992,6262.754l-3.081-3.632L690.8,6256l-2.75-3.527.993-.772,3.406,4.368-2.859,3.093,2.36,2.783Z" transform="translate(-611.607 -6251.697)" fill="#999"/>
        <path id="Trazado_106614" data-name="Trazado 106614" d="M688.738,6262.754l-3.081-3.632,2.891-3.125-2.75-3.527.993-.772,3.406,4.368-2.859,3.093,2.361,2.783Z" transform="translate(-612.821 -6251.697)" fill="#999"/>
        <path id="Trazado_106615" data-name="Trazado 106615" d="M686.483,6262.754l-3.081-3.632,2.891-3.125-2.75-3.527.993-.772,3.406,4.368-2.859,3.093,2.361,2.783Z" transform="translate(-614.035 -6251.697)" fill="#999"/>
        <path id="Trazado_106616" data-name="Trazado 106616" d="M684.229,6262.754l-3.081-3.632,2.891-3.125-2.75-3.527.993-.772,3.406,4.368-2.859,3.093,2.361,2.783Z" transform="translate(-615.249 -6251.697)" fill="#999"/>
        <path id="Trazado_106617" data-name="Trazado 106617" d="M681.975,6262.754l-3.081-3.632,2.891-3.125-2.75-3.527.993-.772,3.406,4.368-2.859,3.093,2.361,2.783Z" transform="translate(-616.463 -6251.697)" fill="#999"/>
        <path id="Trazado_106618" data-name="Trazado 106618" d="M679.721,6262.754l-3.081-3.632,2.891-3.125-2.75-3.527.993-.772,3.406,4.368-2.859,3.093,2.361,2.783Z" transform="translate(-617.677 -6251.697)" fill="#999"/>
        <path id="Trazado_106619" data-name="Trazado 106619" d="M677.466,6262.754l-3.081-3.632,2.891-3.125-2.75-3.527.993-.772,3.406,4.368-2.859,3.093,2.361,2.783Z" transform="translate(-618.892 -6251.697)" fill="#999"/>
        <path id="Trazado_106620" data-name="Trazado 106620" d="M675.212,6262.754l-3.081-3.632,2.891-3.125-2.751-3.527.993-.772,3.406,4.368-2.859,3.093,2.361,2.783Z" transform="translate(-620.106 -6251.697)" fill="#999"/>
        <path id="Trazado_106621" data-name="Trazado 106621" d="M672.958,6262.754l-3.081-3.632,2.891-3.125-2.75-3.527.993-.772,3.406,4.368-2.859,3.093,2.36,2.783Z" transform="translate(-621.32 -6251.697)" fill="#999"/>
        <path id="Trazado_106622" data-name="Trazado 106622" d="M670.7,6262.754l-3.081-3.632,2.891-3.125-2.75-3.527.993-.772,3.406,4.368-2.859,3.093,2.361,2.783Z" transform="translate(-622.534 -6251.697)" fill="#999"/>
        <path id="Trazado_106623" data-name="Trazado 106623" d="M668.449,6262.754l-3.081-3.632,2.891-3.125-2.75-3.527.993-.772,3.406,4.368-2.859,3.093,2.36,2.783Z" transform="translate(-623.748 -6251.697)" fill="#999"/>
        <path id="Trazado_106624" data-name="Trazado 106624" d="M666.2,6262.754l-3.081-3.632,2.891-3.125-2.751-3.527.993-.772,3.406,4.368-2.859,3.093,2.361,2.783Z" transform="translate(-624.962 -6251.697)" fill="#999"/>
        <path id="Trazado_106625" data-name="Trazado 106625" d="M663.941,6262.754l-3.081-3.632,2.891-3.125L661,6252.47l.993-.772,3.406,4.368-2.859,3.093,2.361,2.783Z" transform="translate(-626.176 -6251.697)" fill="#999"/>
        <path id="Trazado_106626" data-name="Trazado 106626" d="M661.687,6262.754l-3.081-3.632L661.5,6256l-2.751-3.527.993-.772,3.406,4.368-2.859,3.093,2.361,2.783Z" transform="translate(-627.39 -6251.697)" fill="#999"/>
        <path id="Trazado_106627" data-name="Trazado 106627" d="M659.432,6262.754l-3.081-3.632,2.891-3.125-2.75-3.527.993-.772,3.406,4.368-2.859,3.093,2.361,2.783Z" transform="translate(-628.604 -6251.697)" fill="#999"/>
        <path id="Trazado_106628" data-name="Trazado 106628" d="M657.178,6262.754l-3.081-3.632,2.891-3.125-2.75-3.527.993-.772,3.406,4.368-2.859,3.093,2.361,2.783Z" transform="translate(-629.818 -6251.697)" fill="#999"/>
        <path id="Trazado_106629" data-name="Trazado 106629" d="M654.924,6262.754l-3.081-3.632,2.891-3.125-2.75-3.527.993-.772,3.406,4.368-2.859,3.093,2.361,2.783Z" transform="translate(-631.032 -6251.697)" fill="#999"/>
        <path id="Trazado_106630" data-name="Trazado 106630" d="M652.67,6262.754l-3.081-3.632L652.48,6256l-2.75-3.527.993-.772,3.406,4.368-2.859,3.093,2.361,2.783Z" transform="translate(-632.247 -6251.697)" fill="#999"/>
        <path id="Trazado_106631" data-name="Trazado 106631" d="M650.415,6262.754l-3.081-3.632,2.891-3.125-2.75-3.527.993-.772,3.406,4.368-2.859,3.093,2.361,2.783Z" transform="translate(-633.461 -6251.697)" fill="#999"/>
        <path id="Trazado_106632" data-name="Trazado 106632" d="M648.161,6262.754l-3.081-3.632,2.891-3.125-2.75-3.527.993-.772,3.406,4.368-2.859,3.093,2.36,2.783Z" transform="translate(-634.675 -6251.697)" fill="#999"/>
        <path id="Trazado_106633" data-name="Trazado 106633" d="M645.907,6262.754l-3.081-3.632,2.891-3.125-2.75-3.527.993-.772,3.406,4.368-2.859,3.093,2.361,2.783Z" transform="translate(-635.889 -6251.697)" fill="#999"/>
        <path id="Trazado_106634" data-name="Trazado 106634" d="M643.653,6262.754l-3.081-3.632,2.891-3.125-2.75-3.527.993-.772,3.406,4.368-2.859,3.093,2.361,2.783Z" transform="translate(-637.103 -6251.697)" fill="#999"/>
        <path id="Trazado_106635" data-name="Trazado 106635" d="M641.4,6262.754l-3.081-3.632,2.891-3.125-2.75-3.527.993-.772,3.406,4.368L640,6259.158l2.361,2.783Z" transform="translate(-638.317 -6251.697)" fill="#999"/>
      </g>
      <path id="Trazado_106636" data-name="Trazado 106636" d="M682.311,6095.172c-14.8,0-19.335-5.734-19.534-6l1.223-.935c.048.062,4.985,6.117,21.309,5.314,16.2-.81,19.058-6.952,19.086-7.014l1.422.592c-.118.289-3.1,7.094-20.431,7.957C684.316,6095.148,683.289,6095.172,682.311,6095.172Z" transform="translate(-554.673 -6030.484)" fill="#999"/>
      <rect id="Rectángulo_9664" data-name="Rectángulo 9664" width="159.56" height="1.539" transform="translate(49.21 207.868)" fill="#999"/>
      <rect id="Rectángulo_9665" data-name="Rectángulo 9665" width="164.009" height="1.539" transform="translate(47.126 198.338)" fill="#999"/>
      <rect id="Rectángulo_9666" data-name="Rectángulo 9666" width="1.539" height="56.03" transform="translate(128.588 208.638)" fill="#999"/>
      <path id="Trazado_106637" data-name="Trazado 106637" d="M710.7,6212.559l-1.539-.014.612-61.934c1.615-26.758.566-31.877.52-32.083l1.5-.348c.048.2,1.162,5.291-.482,32.485Z" transform="translate(-529.694 -6013.444)" fill="#999"/>
      <path id="Trazado_106638" data-name="Trazado 106638" d="M718.734,6519.762c-.02-.6-2.156-60.948-3.494-124.7-1.335-63.543-17.141-97.019-17.3-97.349l-.077-.334v-9.633l8.2-45.055,9.188-57.057,1.517.243-9.19,57.074-8.188,44.932.012,9.322c1.2,2.617,16.081,36.19,17.377,97.821,1.337,63.744,3.473,124.079,3.494,124.683Z" transform="translate(-535.777 -5977.117)" fill="#999"/>
      <path id="Trazado_106639" data-name="Trazado 106639" d="M646.007,6519.737l-.269-56.459c-.014-.466-1.32-48.837.271-82.989,1.552-33.431,15.036-80.183,15.784-82.756v-10.246l-9.23-45.35-8.953-56.062,1.52-.243,8.948,56.03,9.253,45.545-.031,10.653c-.142.481-14.175,48.473-15.757,82.5-1.586,34.094-.281,82.409-.268,82.894l.269,56.476Z" transform="translate(-564.996 -5977.117)" fill="#999"/>
      <rect id="Rectángulo_9667" data-name="Rectángulo 9667" width="1.539" height="488.379" transform="translate(127.234 54.264) rotate(-0.494)" fill="#999"/>
      <path id="Trazado_106640" data-name="Trazado 106640" d="M644.62,6212.559l-.612-61.933c-1.64-27.154-.529-32.244-.48-32.445l1.5.354-.748-.177.749.171c-.045.206-1.094,5.325.52,32.044l.614,61.973Z" transform="translate(-565.263 -6013.444)" fill="#999"/>
      <path id="Trazado_106641" data-name="Trazado 106641" d="M669.2,6123.8l-.972-7.562-2.548-1.592s-1.1-.653-.258-1.421l5.053-1.356s2.255-.476,1.535,1.453l-1.831,2.929.589,7.146-.529,1.723Z" transform="translate(-553.418 -6016.87)" fill="#666"/>
      <path id="Trazado_106642" data-name="Trazado 106642" d="M686.519,6130.678c-20.949,0-27.15-19.943-27.211-20.146l1.474-.441c.235.78,5.953,19.049,25.734,19.049h.174c19.911-.111,24.945-18.253,25.15-19.025l1.488.393c-.052.2-5.522,20.054-26.628,20.171Z" transform="translate(-556.542 -6017.801)" fill="#999"/>
      <path id="Trazado_106643" data-name="Trazado 106643" d="M662.842,6116.142l-5.071-5.563-2.972.232s-1.269.131-1.016-1l3.34-4.13s1.563-1.738,2.071.262l.169,3.478,4.527,5.454.545,1.717Z" transform="translate(-559.535 -6020.555)" fill="#666"/>
      <path id="Trazado_106644" data-name="Trazado 106644" d="M676.623,6126.8l-.972-7.562-2.548-1.592s-1.1-.654-.259-1.42l5.053-1.357s2.257-.477,1.537,1.452l-1.832,2.928.591,7.146-.529,1.724Z" transform="translate(-549.423 -6015.259)" fill="#666"/>
      <path id="Trazado_106645" data-name="Trazado 106645" d="M647.246,6186.317l-5.071-5.565-2.974.231s-1.268.131-1.014-1l3.339-4.13s1.565-1.738,2.071.261l.169,3.479,4.526,5.454.546,1.719Z" transform="translate(-567.935 -5982.761)" fill="#666"/>
      <path id="Trazado_106646" data-name="Trazado 106646" d="M710.284,6186.906l5.073-5.565,2.973.233s1.268.13,1.014-1L716,6176.444s-1.563-1.739-2.071.262l-.169,3.477-4.526,5.454-.546,1.719Z" transform="translate(-529.944 -5982.443)" fill="#666"/>
      <path id="Trazado_106647" data-name="Trazado 106647" d="M673.584,6186.687l-2.812,6.983-2.868.82s-1.234.32-.6,1.291l4.569,2.705s2.073,1.085,1.851-.966l-1.055-3.319,2.34-6.69-.088-1.8Z" transform="translate(-552.333 -5977.074)" fill="#666"/>
      <path id="Trazado_106648" data-name="Trazado 106648" d="M678.244,6278.234l6.513-3.779,2.765,1.117s1.169.506,1.268-.648l-1.94-4.943s-.968-2.129-2.054-.375l-1.208,3.265-5.959,3.839-1.039,1.474Z" transform="translate(-547.234 -5932.264)" fill="#666"/>
      <path id="Trazado_106649" data-name="Trazado 106649" d="M678.734,6325.191l6.511-3.779,2.766,1.115s1.169.507,1.268-.647l-1.94-4.943s-.968-2.128-2.054-.374l-1.208,3.265-5.959,3.839-1.039,1.473Z" transform="translate(-546.97 -5906.974)" fill="#666"/>
      <g id="Grupo_55522" data-name="Grupo 55522" transform="translate(107.901 35.112)">
        <ellipse id="Elipse_4315" data-name="Elipse 4315" cx="20.68" cy="9.188" rx="20.68" ry="9.188" transform="translate(0.77 0.769)" fill="#fff"/>
        <path id="Trazado_106650" data-name="Trazado 106650" d="M684.1,6092.843c-12.029,0-21.451-4.375-21.451-9.958s9.422-9.956,21.451-9.956,21.449,4.372,21.449,9.956S696.123,6092.843,684.1,6092.843Zm0-18.375c-10.793,0-19.912,3.854-19.912,8.417s9.119,8.419,19.912,8.419,19.911-3.855,19.911-8.419S694.887,6074.468,684.1,6074.468Z" transform="translate(-662.645 -6072.929)" fill="#999"/>
      </g>
      <g id="Grupo_55526" data-name="Grupo 55526" transform="translate(118.071 5.073)">
        <g id="Grupo_55523" data-name="Grupo 55523" transform="translate(1.259)">
          <path id="Trazado_106651" data-name="Trazado 106651" d="M689.593,6066.989c0-7.226-4.257-13.083-9.51-13.083s-9.51,5.857-9.51,13.083c0,5.65,2.609,10.451,6.256,12.28v12.512h7.185v-12.889C687.3,6076.833,689.593,6072.285,689.593,6066.989Z" transform="translate(-669.804 -6053.135)" fill="#fff"/>
          <path id="Trazado_106652" data-name="Trazado 106652" d="M685.053,6092.818h-8.724V6080c-3.76-2.15-6.256-7.193-6.256-12.74,0-7.64,4.611-13.854,10.281-13.854s10.278,6.215,10.278,13.854c0,5.186-2.177,9.963-5.579,12.319Zm-7.185-1.538h5.647v-12.542l.361-.227c3.17-1.986,5.217-6.4,5.217-11.253,0-6.79-3.92-12.315-8.739-12.315s-8.742,5.525-8.742,12.315c0,5.183,2.343,9.844,5.833,11.593l.423.214Z" transform="translate(-670.073 -6053.404)" fill="#999"/>
        </g>
        <g id="Grupo_55524" data-name="Grupo 55524" transform="translate(0 15.795)">
          <rect id="Rectángulo_9668" data-name="Rectángulo 9668" width="22.303" height="3.825" rx="1.209" transform="translate(0.769 0.769)" fill="#fff"/>
          <path id="Trazado_106653" data-name="Trazado 106653" d="M690.467,6069.034H671.884a2.682,2.682,0,0,1,0-5.363h18.583a2.682,2.682,0,0,1,0,5.363Zm-18.583-3.825a1.09,1.09,0,0,0-1.091,1.09,1.12,1.12,0,0,0,1.091,1.2h18.583a1.094,1.094,0,0,0,1.091-1.091,1.119,1.119,0,0,0-1.091-1.2Z" transform="translate(-669.255 -6063.671)" fill="#999"/>
        </g>
        <g id="Grupo_55525" data-name="Grupo 55525" transform="translate(0 8.491)">
          <rect id="Rectángulo_9669" data-name="Rectángulo 9669" width="22.303" height="3.825" rx="1.209" transform="translate(0.769 0.769)" fill="#fff"/>
          <path id="Trazado_106654" data-name="Trazado 106654" d="M690.467,6064.287H671.884a2.682,2.682,0,0,1,0-5.363h18.583a2.682,2.682,0,0,1,0,5.363Zm-18.583-3.825a1.093,1.093,0,0,0-1.091,1.091,1.12,1.12,0,0,0,1.091,1.2h18.583a1.094,1.094,0,0,0,1.091-1.091,1.121,1.121,0,0,0-1.091-1.2Z" transform="translate(-669.255 -6058.924)" fill="#999"/>
        </g>
      </g>
      <rect id="Rectángulo_9670" data-name="Rectángulo 9670" width="1.539" height="424.158" transform="matrix(1, -0.008, 0.008, 1, 138.004, 54.263)" fill="#999"/>
      <g id="Grupo_55527" data-name="Grupo 55527" opacity="0.5">
        <path id="Trazado_106655" data-name="Trazado 106655" d="M593.015,6591.053s4.416-14.65,19.868-19.267,5.217-19.064,5.217-19.064l-8.227-9.633s-5.62-7.025,1.6-13.445,28.5-4.817,28.5-4.817,60.2,5.017,73.65,5.017,74.053-.2,74.053-.2-1.2-59.4,0-75.459-.8-63.416-6.222-84.487-1.806-80.876-1.806-80.876l3.211-63.216,2.409-107.165.4-67.832L618.7,6052.815s-15.052,2.042-14.45,11.355,2.308,37.411,2.308,37.411l-10.135,6.823s-2.608,2.274-2.408,5.352,1.4,118.673,1.4,118.673l-1,159.944-1.4,89.306Z" transform="translate(-592.246 -6049.837)" fill="#999"/>
        <path id="Trazado_106656" data-name="Trazado 106656" d="M593.284,6592.092a.636.636,0,0,1-.112-.01.767.767,0,0,1-.657-.76V6481.949l1.4-89.318,1-159.937c-.012-1.143-1.2-115.6-1.4-118.617-.225-3.416,2.551-5.878,2.668-5.981l9.845-6.636c-.217-3.6-1.723-28.341-2.28-36.969-.64-9.914,14.47-12.079,15.113-12.166l167.062-2.217a1.149,1.149,0,0,1,.554.225.776.776,0,0,1,.226.549l-.4,67.832L783.9,6225.892l-3.213,63.237c-.035.6-3.543,59.933,1.783,80.646,5.537,21.527,7.416,69.123,6.245,84.737-1.188,15.835-.011,74.79,0,75.385a.769.769,0,0,1-.766.785c-.608,0-60.762.2-74.057.2-13.323,0-73.113-4.97-73.715-5.02-.2-.015-21.025-1.5-27.922,4.626-6.577,5.845-1.725,12.125-1.515,12.39l8.211,9.613c.249.346,5.08,7.269,2.986,13.338-1.123,3.257-4.006,5.6-8.567,6.964-14.857,4.438-19.309,18.608-19.352,18.752A.771.771,0,0,1,593.284,6592.092Zm.769-.77h0Zm3.073-482.01c.011,0-2.242,2.042-2.069,4.665.2,3.062,1.355,113.993,1.4,118.713l-1,159.958-1.4,89.313v105.6c2.4-4.755,7.979-12.983,18.878-16.239,4.059-1.211,6.6-3.227,7.551-5.985,1.839-5.32-2.7-11.831-2.742-11.9l-8.184-9.58c-.077-.095-6-7.691,1.679-14.52,7.382-6.563,28.185-5.075,29.067-5.009.606.05,60.332,5.015,73.592,5.015,12.464,0,66.128-.173,73.269-.2-.135-7.079-1.1-59.845.017-74.749,1.165-15.53-.7-62.853-6.2-84.239-5.387-20.947-1.977-78.667-1.829-81.115l3.211-63.208,2.406-107.145.4-67.033-166.185,2.2c-.049.012-14.24,2.047-13.692,10.535.6,9.315,2.308,37.415,2.308,37.415a.768.768,0,0,1-.338.685l-10.135,6.822Z" transform="translate(-592.515 -6050.107)" fill="#4d4d4d"/>
      </g>
      <path id="Trazado_106657" data-name="Trazado 106657" d="M603.656,6516.875a.769.769,0,0,1-.769-.748l-2.409-90.04-.266-67.581.668-94.867L601.916,6137v-52.661a.769.769,0,1,1,1.539,0V6137l-1.037,126.649-.668,94.858.266,67.555,2.409,90.022a.771.771,0,0,1-.748.789Z" transform="translate(-588.37 -6032.088)" fill="#4d4d4d"/>
      <g id="Grupo_55528" data-name="Grupo 55528" transform="translate(71.343 310.125)" opacity="0.33">
        <line id="Línea_218" data-name="Línea 218" x2="118.404" transform="translate(0 0.769)" fill="#fff"/>
        <rect id="Rectángulo_9671" data-name="Rectángulo 9671" width="118.405" height="1.539"/>
      </g>
      <g id="Grupo_55529" data-name="Grupo 55529" transform="translate(71.343 319.758)" opacity="0.33">
        <line id="Línea_219" data-name="Línea 219" x2="118.404" transform="translate(0 0.77)" fill="#fff"/>
        <rect id="Rectángulo_9672" data-name="Rectángulo 9672" width="118.405" height="1.539"/>
      </g>
      <g id="Grupo_55530" data-name="Grupo 55530" transform="translate(15.165 474.881)" opacity="0.63">
        <path id="Trazado_106658" data-name="Trazado 106658" d="M616.806,6361.47v36.659L615.2,6390.1l-2.943-5.284-5.605-5.517-3.779-5.88.209-5.795,3.465-4.53,3.76-2.087,2.588-.854,2.963-.683,1.225-.215Z" transform="translate(-602.102 -6358.487)" fill="#999"/>
        <path id="Trazado_106659" data-name="Trazado 106659" d="M617.075,6399.166a.769.769,0,0,1-.754-.618l-1.582-7.908-2.833-5.083-5.527-5.439a.885.885,0,0,1-.108-.131l-3.779-5.881a.776.776,0,0,1-.122-.443l.209-5.795a.775.775,0,0,1,.157-.442l3.466-4.527a.8.8,0,0,1,.237-.207l3.76-2.086,2.72-.912,4.3-.923a.766.766,0,0,1,.9.851l-.271,2.166v36.61a.77.77,0,0,1-.694.767Zm-9.555-20.085,5.545,5.458a.7.7,0,0,1,.132.174l2.943,5.283a.757.757,0,0,1,.083.225l.082.411v-28.894a.636.636,0,0,1,.006-.094l.148-1.182-.2.036-2.922.674-2.52.835-3.488,1.951-3.219,4.208-.192,5.31Z" transform="translate(-602.372 -6358.756)" fill="#4d4d4d"/>
      </g>
      <path id="Trazado_106660" data-name="Trazado 106660" d="M730.435,6186.392c-5.313-18.78-.665-58.633-.463-60.32l1.526.18c-.048.411-4.811,41.237.417,59.724Z" transform="translate(-519.6 -6009.195)" opacity="0.33"/>
      <path id="Trazado_106661" data-name="Trazado 106661" d="M624.692,6187.393l-1.485-.4c5.233-19.4.468-62.21.419-62.639l1.529-.174C625.355,6125.948,630,6167.716,624.692,6187.393Z" transform="translate(-575.985 -6010.213)" opacity="0.33"/>
    </g>
  </g>
</svg>
