<svg xmlns="http://www.w3.org/2000/svg" width="126.97" height="373.573" viewBox="0 0 126.97 373.573">
  <g id="Grupo_55077" data-name="Grupo 55077" transform="translate(-404.923 -8846.077)">
    <g id="Grupo_55087" data-name="Grupo 55087" transform="translate(404.923 8846.077)">
      <g id="Grupo_55084" data-name="Grupo 55084">
        <g id="Grupo_55083" data-name="Grupo 55083">
          <g id="Grupo_55078" data-name="Grupo 55078" transform="translate(0 4.907)">
            <path id="Trazado_105359" data-name="Trazado 105359" d="M487.849,8850.887s.04,23.063,11.292,30.709c0,0,25.5,6.811,31.719,9.32,0,0-2.154,25.451-7.539,39.313L507.879,8984.6s-2.633,8.006,0,19.117l8.857,33.818s3.95,17.086,3.233,32.262l-5.148,57.953s-.479,18.283-23.461,22.586c0,0-32.437,3.7-49.673-.836,0,0-12.807-1.555-19.39-16.85l-4.908-50.387v-26.447s2.074-20.074,6.862-33.775,7.661-23.58,4.948-36.328L405.579,8894.9s-1.3-3.625,1.756-4.879,26.332-6.752,29.326-8.424,8.018-3.346,11.968-27.482l-.12-4.939Z" transform="translate(-404.611 -8848.462)" fill="#fff"/>
            <path id="Trazado_105360" data-name="Trazado 105360" d="M465.6,9152.74c-8.394,0-17.2-.534-23.773-2.268h0c-.053,0-13.186-1.767-19.843-17.236l-.051-.2-4.908-50.386,0-26.516c.025-.27,2.143-20.379,6.9-34,4.719-13.514,7.614-23.315,4.921-35.959l-23.612-90.784c-.506-1.407-.735-4.492,2.156-5.679,1.314-.541,6.031-1.783,11.495-3.22,7.165-1.888,16.085-4.235,17.758-5.171l.432-.235c2.8-1.519,7.483-4.06,11.2-26.764l-.149-5.541,40.719,1.773,0,.65c0,.228.171,22.662,10.9,30.083,2.079.556,25.64,6.88,31.686,9.316l.464.187-.042.5c-.024.256-2.226,25.711-7.586,39.5L508.844,8985.1c-.033.1-2.544,8,.009,18.775l8.853,33.8c.045.189,3.968,17.372,3.253,32.466l-5.149,57.981c0,.146-.759,18.842-24.011,23.189A261.7,261.7,0,0,1,465.6,9152.74Zm-42.325-19.946c6.352,14.642,18.684,16.33,18.807,16.346,17.005,4.477,49.191.869,49.512.835,22.1-4.136,22.837-21.2,22.859-21.926l5.148-58c.706-14.88-3.175-31.878-3.214-32.048l-8.853-33.8c-2.651-11.186-.1-19.169.011-19.5l15.432-54.342c4.894-12.6,7.135-35.035,7.474-38.679-6.837-2.6-30.924-9.046-31.173-9.111l-.207-.1c-10.482-7.121-11.486-26.714-11.578-30.619l-37.973-1.651.1,4.21c-3.832,23.489-8.688,26.122-11.9,27.866l-.415.227c-1.822,1.019-10.085,3.194-18.076,5.3-5.191,1.368-10.1,2.658-11.324,3.163-2.408.989-1.417,3.9-1.372,4.022l23.637,90.869c2.771,13.021-.167,22.991-4.964,36.723-4.7,13.465-6.806,33.42-6.828,33.619l0,26.379Z" transform="translate(-404.923 -8848.781)" fill="#999"/>
          </g>
          <g id="Grupo_55079" data-name="Grupo 55079" transform="translate(43.696)">
            <ellipse id="Elipse_4281" data-name="Elipse 4281" cx="19.431" cy="4.939" rx="19.431" ry="4.939" transform="translate(0.681 0.68)" fill="#fff"/>
            <path id="Trazado_105361" data-name="Trazado 105361" d="M449.117,8857.313c-9.994,0-20.112-1.928-20.112-5.617s10.118-5.617,20.112-5.617,20.112,1.928,20.112,5.617S459.111,8857.313,449.117,8857.313Zm0-9.875c-11.616,0-18.751,2.482-18.751,4.258s7.135,4.258,18.751,4.258,18.751-2.48,18.751-4.258S460.733,8847.438,449.117,8847.438Z" transform="translate(-429.005 -8846.078)" fill="#999"/>
          </g>
          <path id="Trazado_105362" data-name="Trazado 105362" d="M450.21,8857.594a58.181,58.181,0,0,1-21.556-4.009l.561-1.24c.185.082,18.767,8.238,39.385.694l.468,1.279A54.769,54.769,0,0,1,450.21,8857.594Z" transform="translate(-385.594 -8840.973)" fill="#999"/>
          <rect id="Rectángulo_9460" data-name="Rectángulo 9460" width="1.361" height="4.302" transform="translate(63.127 11.036)" fill="#999"/>
          <path id="Trazado_105363" data-name="Trazado 105363" d="M454.318,8881.02c-.475,0-.954-.01-1.446-.023-21.177-.725-28.219-13.559-28.507-14.1l1.2-.639c.067.127,7.006,12.686,27.353,13.381,20.349.736,26.657-13.777,26.718-13.922l1.256.527C480.828,8866.391,474.427,8881.02,454.318,8881.02Z" transform="translate(-389.088 -8830.086)" fill="#999"/>
          <g id="Grupo_55080" data-name="Grupo 55080" transform="translate(117.361 46.664)">
            <path id="Trazado_105364" data-name="Trazado 105364" d="M476.758,8871.959a71.286,71.286,0,0,0-6.066,23.5s-.715,5.1-.715,18.563" transform="translate(-469.298 -8871.661)" fill="#fff"/>
            <path id="Trazado_105365" data-name="Trazado 105365" d="M470.964,8914.155H469.6c0-13.356.69-18.447.72-18.655a72.5,72.5,0,0,1,6.128-23.705l1.223.6a71.142,71.142,0,0,0-6,23.25C471.662,8895.739,470.964,8900.919,470.964,8914.155Z" transform="translate(-469.603 -8871.795)" fill="#999"/>
          </g>
          <g id="Grupo_55081" data-name="Grupo 55081" transform="translate(3.177 45.807)">
            <path id="Trazado_105366" data-name="Trazado 105366" d="M407.013,8871.482a77.563,77.563,0,0,1,6.289,24.365s.713,5.1.713,18.564" transform="translate(-406.398 -8871.191)" fill="#fff"/>
            <path id="Trazado_105367" data-name="Trazado 105367" d="M414.972,8914.54h-1.361c0-13.236-.7-18.416-.708-18.467a77.688,77.688,0,0,0-6.229-24.172l1.23-.579a79,79,0,0,1,6.353,24.607C414.28,8896.093,414.972,8901.184,414.972,8914.54Z" transform="translate(-406.674 -8871.322)" fill="#999"/>
          </g>
          <rect id="Rectángulo_9461" data-name="Rectángulo 9461" width="11.012" height="65.372" transform="translate(58.023 308.201)" fill="#999"/>
          <g id="Grupo_55082" data-name="Grupo 55082" transform="translate(63.127 50.23)">
            <line id="Línea_193" data-name="Línea 193" y2="257.972" transform="translate(0.68)" fill="#fff"/>
            <rect id="Rectángulo_9462" data-name="Rectángulo 9462" width="1.361" height="257.972" fill="#999"/>
          </g>
        </g>
      </g>
      <g id="Grupo_55085" data-name="Grupo 55085" transform="translate(84.901 42.931)">
        <path id="Trazado_105368" data-name="Trazado 105368" d="M473.169,8869.815l-20.355,95.723a28.64,28.64,0,0,0,.947,16.095s8.363,46.309,7.1,69.975-2.524,80.628-2.524,80.628" transform="translate(-451.402 -8869.674)" fill="#fff"/>
        <path id="Trazado_105369" data-name="Trazado 105369" d="M459.33,9132.311l-1.361-.029c.013-.569,1.276-57.238,2.526-80.646,1.243-23.319-7.009-69.358-7.091-69.82a28.858,28.858,0,0,1-.929-16.406l20.34-95.672,1.332.282-20.355,95.724a28.258,28.258,0,0,0,.924,15.729c.111.566,8.39,46.762,7.136,70.234C460.605,9075.095,459.342,9131.742,459.33,9132.311Z" transform="translate(-451.714 -8869.737)" fill="#999"/>
      </g>
      <g id="Grupo_55086" data-name="Grupo 55086" transform="translate(19.584 42.931)">
        <path id="Trazado_105370" data-name="Trazado 105370" d="M416.083,8869.815l20.353,95.723a28.64,28.64,0,0,1-.947,16.095s-8.361,46.309-7.1,69.975,2.526,80.628,2.526,80.628" transform="translate(-415.417 -8869.674)" fill="#fff"/>
        <path id="Trazado_105371" data-name="Trazado 105371" d="M430.533,9132.313c-.013-.57-1.277-57.218-2.524-80.606-1.252-23.473,7.026-69.668,7.109-70.132a28.451,28.451,0,0,0,.964-15.781l-20.366-95.773,1.332-.282L437.4,8965.46a29.063,29.063,0,0,1-.969,16.456c-.056.361-8.307,46.4-7.066,69.72,1.25,23.407,2.515,80.076,2.528,80.646Z" transform="translate(-415.716 -8869.737)" fill="#999"/>
      </g>
    </g>
    <path id="Trazado_105372" data-name="Trazado 105372" d="M460.448,8971.113a359.055,359.055,0,0,1-48.534-3.311l.185-1.35c59.225,8.094,101.642-1.238,102.065-1.336l.3,1.328C514.169,8966.512,493.281,8971.113,460.448,8971.113Z" transform="translate(5.694 96.956)" fill="#999"/>
    <path id="Trazado_105373" data-name="Trazado 105373" d="M458.257,8935.709a233.093,233.093,0,0,1-39.06-3.4l.259-1.336c.446.085,44.934,8.491,76.582-1.519l.41,1.3C484.515,8934.521,470.792,8935.709,458.257,8935.709Z" transform="translate(11.626 67.907)" fill="#999"/>
    <path id="Trazado_105374" data-name="Trazado 105374" d="M459.841,8953.532a326.777,326.777,0,0,1-44.573-3.229l.183-1.347c59.74,8.224,90.583-1.9,90.888-2.008l.435,1.29C506.556,8948.313,490.674,8953.532,459.841,8953.532Z" transform="translate(8.426 82.158)" fill="#999"/>
    <path id="Trazado_105375" data-name="Trazado 105375" d="M515.767,8905.6a104.26,104.26,0,0,0-52.172-12.52c-29.857.926-51.432,10.475-51.646,10.572l-1.488-3.312c.9-.4,22.4-9.937,53.021-10.889,30.821-.944,53.231,12.473,54.169,13.047Z" transform="translate(4.511 35.292)" fill="red"/>
  </g>
</svg>
