<svg xmlns="http://www.w3.org/2000/svg" width="396" height="266.187" viewBox="0 0 396 266.187">
  <g id="Grupo_55451" data-name="Grupo 55451" transform="translate(-819.89 -8885.708)">
    <rect id="Rectángulo_9614" data-name="Rectángulo 9614" width="266.187" height="396" transform="translate(819.89 9151.895) rotate(-90)" fill="#dcdcde"/>
    <rect id="Rectángulo_9615" data-name="Rectángulo 9615" width="197.833" height="290.176" transform="translate(863.723 9124.967) rotate(-90)" fill="#f7f2e6"/>
    <line id="Línea_209" data-name="Línea 209" x2="262.356" transform="translate(885.569 9079.176)" fill="none" stroke="#333" stroke-miterlimit="10" stroke-width="2"/>
    <line id="Línea_210" data-name="Línea 210" x2="235.341" transform="translate(912.584 9104.678)" fill="none" stroke="#333" stroke-miterlimit="10" stroke-width="2"/>
    <line id="Línea_211" data-name="Línea 211" y1="177.975" transform="translate(880.636 8937.063)" fill="none" stroke="#333" stroke-miterlimit="10" stroke-width="2"/>
    <line id="Línea_212" data-name="Línea 212" x2="32.068" transform="translate(841.317 9026.051)" fill="none" stroke="#333" stroke-miterlimit="10" stroke-width="2"/>
    <line id="Línea_213" data-name="Línea 213" y2="144.725" transform="translate(1167.848 8946.007)" fill="none" stroke="#333" stroke-miterlimit="10" stroke-width="2"/>
    <g id="Grupo_55447" data-name="Grupo 55447" transform="translate(912.584 8904.377)">
      <line id="Línea_214" data-name="Línea 214" x2="69.979" transform="translate(122.475 4.273)" fill="none" stroke="#333" stroke-miterlimit="10" stroke-width="2"/>
      <line id="Línea_215" data-name="Línea 215" x1="73.515" transform="translate(0 4.273)" fill="none" stroke="#333" stroke-miterlimit="10" stroke-width="2"/>
      <g id="Grupo_55446" data-name="Grupo 55446" transform="translate(79.452)">
        <path id="Trazado_106423" data-name="Trazado 106423" d="M971.828,8905.214h.842a1.026,1.026,0,0,0,.793-.278,1.11,1.11,0,0,0,.255-.778,1.012,1.012,0,0,0-.255-.724.978.978,0,0,0-.746-.272,1.053,1.053,0,0,0-.709.246.812.812,0,0,0-.288.647h-1.454l-.01-.031a1.7,1.7,0,0,1,.673-1.448,2.68,2.68,0,0,1,1.746-.57,2.872,2.872,0,0,1,1.852.556,1.909,1.909,0,0,1,.691,1.583,1.586,1.586,0,0,1-.308.926,2.067,2.067,0,0,1-.848.687,1.9,1.9,0,0,1,.947.678,1.772,1.772,0,0,1,.326,1.063,1.946,1.946,0,0,1-.747,1.617,3.011,3.011,0,0,1-1.914.587,2.937,2.937,0,0,1-1.789-.551,1.764,1.764,0,0,1-.723-1.56l.011-.033h1.453a.917.917,0,0,0,.309.71,1.117,1.117,0,0,0,.78.278,1.133,1.133,0,0,0,.819-.287,1.026,1.026,0,0,0,.3-.778,1.127,1.127,0,0,0-.3-.864,1.241,1.241,0,0,0-.872-.274h-.842Z" transform="translate(-970.162 -8902.005)"/>
        <path id="Trazado_106424" data-name="Trazado 106424" d="M980.606,8906.681a3.3,3.3,0,0,1-.682,2.252,2.609,2.609,0,0,1-3.7,0,3.293,3.293,0,0,1-.683-2.252v-1.649a3.309,3.309,0,0,1,.681-2.253,2.593,2.593,0,0,1,3.694,0,3.3,3.3,0,0,1,.686,2.253Zm-1.5-1.806a2.446,2.446,0,0,0-.267-1.3.926.926,0,0,0-1.541,0,2.49,2.49,0,0,0-.262,1.3v1.945a2.491,2.491,0,0,0,.265,1.314.866.866,0,0,0,.778.41.849.849,0,0,0,.765-.41,2.516,2.516,0,0,0,.262-1.314Z" transform="translate(-969.379 -8902.005)"/>
        <path id="Trazado_106425" data-name="Trazado 106425" d="M985.543,8908.3a.887.887,0,0,0,.641-.231.821.821,0,0,0,.242-.621h1.362l.015.03a1.73,1.73,0,0,1-.633,1.409,2.677,2.677,0,0,1-3.543-.217,2.994,2.994,0,0,1-.673-2.02v-.153a3.006,3.006,0,0,1,.67-2.019,2.368,2.368,0,0,1,1.914-.793,2.331,2.331,0,0,1,1.656.588,1.943,1.943,0,0,1,.608,1.541l-.01.03h-1.367a1.085,1.085,0,0,0-.236-.718.8.8,0,0,0-.652-.283.87.87,0,0,0-.841.46,2.541,2.541,0,0,0-.244,1.19v.154a2.527,2.527,0,0,0,.244,1.2A.878.878,0,0,0,985.543,8908.3Z" transform="translate(-968.3 -8901.762)"/>
        <path id="Trazado_106426" data-name="Trazado 106426" d="M989.324,8903.791l.062.733a1.853,1.853,0,0,1,.67-.618,1.919,1.919,0,0,1,.932-.22,1.708,1.708,0,0,1,.914.237,1.447,1.447,0,0,1,.575.714,1.942,1.942,0,0,1,.668-.7,1.814,1.814,0,0,1,.967-.253,1.6,1.6,0,0,1,1.3.568,2.654,2.654,0,0,1,.476,1.729v3.365h-1.5v-3.378a1.407,1.407,0,0,0-.205-.881.743.743,0,0,0-.612-.246,1.063,1.063,0,0,0-.552.14,1.038,1.038,0,0,0-.372.395c0,.066,0,.12.006.167s0,.094,0,.141v3.663h-1.495v-3.378a1.42,1.42,0,0,0-.2-.873.746.746,0,0,0-.616-.254,1.152,1.152,0,0,0-.533.114,1.037,1.037,0,0,0-.377.326v4.064h-1.5v-5.559Z" transform="translate(-967.576 -8901.762)"/>
        <path id="Trazado_106427" data-name="Trazado 106427" d="M998.915,8907.818a.528.528,0,0,0-.239-.427,2.47,2.47,0,0,0-.887-.319,3.571,3.571,0,0,1-1.487-.593,1.286,1.286,0,0,1-.5-1.07,1.531,1.531,0,0,1,.6-1.22,2.457,2.457,0,0,1,1.616-.5,2.66,2.66,0,0,1,1.693.5,1.471,1.471,0,0,1,.6,1.26l-.009.029h-1.449a.727.727,0,0,0-.213-.543,1.023,1.023,0,0,0-1.2-.034.558.558,0,0,0-.207.444.506.506,0,0,0,.218.422,2.384,2.384,0,0,0,.887.292,3.589,3.589,0,0,1,1.526.6,1.324,1.324,0,0,1,.5,1.1,1.458,1.458,0,0,1-.642,1.225,2.779,2.779,0,0,1-1.7.475,2.581,2.581,0,0,1-1.754-.562,1.57,1.57,0,0,1-.614-1.281l.01-.032h1.371a.783.783,0,0,0,.293.648,1.219,1.219,0,0,0,.724.2,1.04,1.04,0,0,0,.635-.165A.529.529,0,0,0,998.915,8907.818Z" transform="translate(-966.451 -8901.762)"/>
      </g>
    </g>
    <g id="Grupo_55448" data-name="Grupo 55448" transform="translate(829.621 9002.539)">
      <path id="Trazado_106428" data-name="Trazado 106428" d="M830.128,8991.053h.881a1.072,1.072,0,0,0,.827-.293,1.161,1.161,0,0,0,.269-.813,1.065,1.065,0,0,0-.269-.759,1.024,1.024,0,0,0-.779-.285,1.11,1.11,0,0,0-.741.258.849.849,0,0,0-.3.679h-1.521l-.01-.032a1.782,1.782,0,0,1,.7-1.517,2.812,2.812,0,0,1,1.826-.6,3.009,3.009,0,0,1,1.938.579,2,2,0,0,1,.723,1.655,1.655,1.655,0,0,1-.323.97,2.14,2.14,0,0,1-.887.719,1.991,1.991,0,0,1,.991.709,1.861,1.861,0,0,1,.341,1.112,2.025,2.025,0,0,1-.781,1.689,3.136,3.136,0,0,1-2,.616,3.053,3.053,0,0,1-1.872-.578,1.846,1.846,0,0,1-.756-1.629l.011-.034h1.52a.95.95,0,0,0,.324.74,1.166,1.166,0,0,0,.816.291,1.193,1.193,0,0,0,.858-.3,1.082,1.082,0,0,0,.314-.815,1.183,1.183,0,0,0-.309-.9,1.3,1.3,0,0,0-.911-.285h-.881Z" transform="translate(-828.384 -8987.694)"/>
      <path id="Trazado_106429" data-name="Trazado 106429" d="M838.961,8994.278a.926.926,0,0,0,.671-.242.858.858,0,0,0,.253-.647h1.424l.015.03a1.8,1.8,0,0,1-.663,1.475,2.795,2.795,0,0,1-3.7-.229,3.132,3.132,0,0,1-.7-2.111v-.163a3.162,3.162,0,0,1,.7-2.111,2.483,2.483,0,0,1,2-.827,2.447,2.447,0,0,1,1.733.613,2.036,2.036,0,0,1,.636,1.612l-.009.032h-1.43a1.145,1.145,0,0,0-.247-.75.838.838,0,0,0-.683-.3.91.91,0,0,0-.879.483,2.658,2.658,0,0,0-.255,1.242v.162a2.653,2.653,0,0,0,.255,1.253A.918.918,0,0,0,838.961,8994.278Z" transform="translate(-827.239 -8987.438)"/>
      <path id="Trazado_106430" data-name="Trazado 106430" d="M842.916,8989.56l.064.771a1.954,1.954,0,0,1,.7-.647,1.986,1.986,0,0,1,.976-.23,1.769,1.769,0,0,1,.957.249,1.532,1.532,0,0,1,.6.746,2.009,2.009,0,0,1,.7-.731,1.91,1.91,0,0,1,1.01-.264,1.681,1.681,0,0,1,1.357.595,2.776,2.776,0,0,1,.5,1.809v3.52h-1.569v-3.533a1.483,1.483,0,0,0-.214-.922.784.784,0,0,0-.639-.257,1.047,1.047,0,0,0-.968.559c0,.068,0,.128.006.175s.006.1.006.149v3.829h-1.564v-3.533a1.478,1.478,0,0,0-.215-.913.786.786,0,0,0-.645-.266,1.215,1.215,0,0,0-.556.12,1.057,1.057,0,0,0-.4.343v4.249H841.46v-5.815Z" transform="translate(-826.481 -8987.438)"/>
      <path id="Trazado_106431" data-name="Trazado 106431" d="M852.948,8993.774a.548.548,0,0,0-.249-.446,2.517,2.517,0,0,0-.928-.334,3.725,3.725,0,0,1-1.556-.619,1.353,1.353,0,0,1-.523-1.121,1.6,1.6,0,0,1,.631-1.276,2.571,2.571,0,0,1,1.69-.525,2.769,2.769,0,0,1,1.771.521,1.549,1.549,0,0,1,.632,1.316l-.011.033H852.89a.761.761,0,0,0-.223-.568.891.891,0,0,0-.653-.224.9.9,0,0,0-.6.187.589.589,0,0,0-.218.466.528.528,0,0,0,.228.441,2.521,2.521,0,0,0,.928.307,3.75,3.75,0,0,1,1.6.631,1.389,1.389,0,0,1,.521,1.147,1.535,1.535,0,0,1-.671,1.282,2.915,2.915,0,0,1-1.773.5,2.7,2.7,0,0,1-1.836-.588,1.652,1.652,0,0,1-.642-1.342l.01-.032h1.435a.814.814,0,0,0,.306.677,1.261,1.261,0,0,0,.758.209,1.073,1.073,0,0,0,.663-.172A.548.548,0,0,0,852.948,8993.774Z" transform="translate(-825.304 -8987.438)"/>
    </g>
    <g id="Grupo_55449" data-name="Grupo 55449" transform="translate(1061.439 9085.08)">
      <path id="Trazado_106432" data-name="Trazado 106432" d="M1038.123,9070.461h-7.209v-1.386l3.416-3.662a8.311,8.311,0,0,0,1.052-1.432,2.34,2.34,0,0,0,.312-1.085,1.631,1.631,0,0,0-.359-1.092,1.262,1.262,0,0,0-1.019-.423,1.318,1.318,0,0,0-1.114.5,2.118,2.118,0,0,0-.38,1.322h-2.06l-.014-.042a3.193,3.193,0,0,1,.938-2.42,3.528,3.528,0,0,1,2.629-.991,3.662,3.662,0,0,1,2.564.852,2.907,2.907,0,0,1,.932,2.262,3.18,3.18,0,0,1-.526,1.766,17.813,17.813,0,0,1-1.737,2.123l-1.879,2.044.014.037h4.439Z" transform="translate(-1030.747 -9059.747)"/>
      <path id="Trazado_106433" data-name="Trazado 106433" d="M1040.671,9069.234l-1.151,2.285H1038.1l.509-2.349v-1.655h2.059Z" transform="translate(-1029.676 -9058.616)"/>
      <path id="Trazado_106434" data-name="Trazado 106434" d="M1041.934,9065.763l.608-5.883h5.891v1.7h-4.156l-.291,2.438a2.51,2.51,0,0,1,.7-.358,3.308,3.308,0,0,1,3.275.771,3.819,3.819,0,0,1,.838,2.625,3.621,3.621,0,0,1-.918,2.533,3.389,3.389,0,0,1-2.643,1.007,3.977,3.977,0,0,1-2.495-.8,2.52,2.52,0,0,1-1-2.19l.015-.036,2.038-.1a1.48,1.48,0,0,0,.4,1.1,1.422,1.422,0,0,0,1.046.394,1.219,1.219,0,0,0,1.092-.524,2.425,2.425,0,0,0,.351-1.372,2.532,2.532,0,0,0-.377-1.46,1.264,1.264,0,0,0-1.116-.552,1.62,1.62,0,0,0-.933.226,1.218,1.218,0,0,0-.46.61Z" transform="translate(-1029.146 -9059.728)"/>
      <path id="Trazado_106435" data-name="Trazado 106435" d="M1055.765,9068.635a1.246,1.246,0,0,0,.907-.329,1.151,1.151,0,0,0,.34-.873h1.922l.022.042a2.443,2.443,0,0,1-.9,1.991,3.779,3.779,0,0,1-5-.308,4.226,4.226,0,0,1-.95-2.851v-.218a4.261,4.261,0,0,1,.946-2.851,3.344,3.344,0,0,1,2.7-1.117,3.291,3.291,0,0,1,2.339.829,2.751,2.751,0,0,1,.859,2.175l-.015.042h-1.929a1.529,1.529,0,0,0-.335-1.011,1.128,1.128,0,0,0-.92-.4,1.229,1.229,0,0,0-1.186.654,3.567,3.567,0,0,0-.345,1.68v.218a3.565,3.565,0,0,0,.345,1.69A1.239,1.239,0,0,0,1055.765,9068.635Z" transform="translate(-1027.637 -9059.401)"/>
      <path id="Trazado_106436" data-name="Trazado 106436" d="M1061.1,9062.269l.087,1.035a2.677,2.677,0,0,1,.947-.873,2.722,2.722,0,0,1,1.316-.309,2.417,2.417,0,0,1,1.291.334,2.083,2.083,0,0,1,.812,1.01,2.737,2.737,0,0,1,.943-.988,2.554,2.554,0,0,1,1.363-.355,2.253,2.253,0,0,1,1.83.8,3.742,3.742,0,0,1,.671,2.441v4.75h-2.117v-4.77a2.007,2.007,0,0,0-.29-1.244,1.062,1.062,0,0,0-.864-.348,1.463,1.463,0,0,0-.78.2,1.443,1.443,0,0,0-.526.556c0,.092,0,.172.008.237s.007.132.007.2v5.169h-2.11v-4.77a2,2,0,0,0-.291-1.231,1.051,1.051,0,0,0-.871-.36,1.623,1.623,0,0,0-.75.166,1.428,1.428,0,0,0-.533.46v5.735h-2.111v-7.847Z" transform="translate(-1026.615 -9059.401)"/>
      <path id="Trazado_106437" data-name="Trazado 106437" d="M1074.643,9067.954a.746.746,0,0,0-.338-.6,3.5,3.5,0,0,0-1.25-.448,5.042,5.042,0,0,1-2.1-.837,1.818,1.818,0,0,1-.708-1.512,2.158,2.158,0,0,1,.854-1.724,3.457,3.457,0,0,1,2.281-.708,3.754,3.754,0,0,1,2.389.7,2.084,2.084,0,0,1,.852,1.778l-.015.042h-2.046a1.031,1.031,0,0,0-.3-.769,1.2,1.2,0,0,0-.88-.3,1.212,1.212,0,0,0-.809.25.794.794,0,0,0-.294.629.716.716,0,0,0,.308.595,3.379,3.379,0,0,0,1.251.412,5.092,5.092,0,0,1,2.155.853,1.873,1.873,0,0,1,.7,1.549,2.054,2.054,0,0,1-.907,1.728,3.911,3.911,0,0,1-2.393.672,3.633,3.633,0,0,1-2.477-.793,2.219,2.219,0,0,1-.867-1.809l.015-.045H1072a1.1,1.1,0,0,0,.412.915,1.71,1.71,0,0,0,1.024.282,1.475,1.475,0,0,0,.895-.232A.75.75,0,0,0,1074.643,9067.954Z" transform="translate(-1025.026 -9059.401)"/>
    </g>
    <g id="Grupo_55450" data-name="Grupo 55450" transform="translate(1180.446 9019.651)">
      <path id="Trazado_106438" data-name="Trazado 106438" d="M1137.179,9009.02h-1.265v-5.191h-1.282v-.891l2.547-.226Z" transform="translate(-1134.632 -9002.62)"/>
      <path id="Trazado_106439" data-name="Trazado 106439" d="M1143.054,9006.575a2.786,2.786,0,0,1-.574,1.9,2.2,2.2,0,0,1-3.116,0,2.78,2.78,0,0,1-.576-1.9v-1.392a2.792,2.792,0,0,1,.574-1.9,2.185,2.185,0,0,1,3.115,0,2.782,2.782,0,0,1,.577,1.9Zm-1.26-1.521a2.082,2.082,0,0,0-.225-1.1.782.782,0,0,0-1.3,0,2.112,2.112,0,0,0-.221,1.1v1.639a2.1,2.1,0,0,0,.224,1.107.73.73,0,0,0,.656.348.715.715,0,0,0,.645-.348,2.115,2.115,0,0,0,.221-1.107Z" transform="translate(-1134.027 -9002.632)"/>
      <path id="Trazado_106440" data-name="Trazado 106440" d="M1147.219,9007.941a.75.75,0,0,0,.542-.2.693.693,0,0,0,.2-.523h1.148l.014.026a1.459,1.459,0,0,1-.535,1.189,2.258,2.258,0,0,1-2.988-.184,2.526,2.526,0,0,1-.567-1.7v-.13a2.544,2.544,0,0,1,.565-1.7,2,2,0,0,1,1.614-.668,1.967,1.967,0,0,1,1.4.5,1.635,1.635,0,0,1,.513,1.3l-.009.025h-1.152a.912.912,0,0,0-.2-.6.677.677,0,0,0-.551-.241.733.733,0,0,0-.708.391,2.134,2.134,0,0,0-.206,1v.13a2.129,2.129,0,0,0,.206,1.01A.739.739,0,0,0,1147.219,9007.941Z" transform="translate(-1133.118 -9002.426)"/>
      <path id="Trazado_106441" data-name="Trazado 106441" d="M1150.407,9004.137l.052.62a1.566,1.566,0,0,1,.566-.522,1.609,1.609,0,0,1,.786-.185,1.433,1.433,0,0,1,.771.2,1.235,1.235,0,0,1,.486.6,1.635,1.635,0,0,1,.562-.59,1.548,1.548,0,0,1,.815-.212,1.354,1.354,0,0,1,1.094.479,2.241,2.241,0,0,1,.4,1.458v2.838h-1.265v-2.848a1.2,1.2,0,0,0-.173-.743.635.635,0,0,0-.516-.209.842.842,0,0,0-.78.452c0,.055,0,.1,0,.143s0,.077,0,.117v3.088h-1.261v-2.848a1.2,1.2,0,0,0-.173-.736.628.628,0,0,0-.52-.216.989.989,0,0,0-.449.1.876.876,0,0,0-.318.275v3.427h-1.261v-4.687Z" transform="translate(-1132.507 -9002.426)"/>
      <path id="Trazado_106442" data-name="Trazado 106442" d="M1158.5,9007.533a.441.441,0,0,0-.2-.359,2.03,2.03,0,0,0-.747-.269,3.011,3.011,0,0,1-1.254-.5,1.088,1.088,0,0,1-.423-.9,1.293,1.293,0,0,1,.51-1.029,2.062,2.062,0,0,1,1.362-.423,2.236,2.236,0,0,1,1.427.421,1.236,1.236,0,0,1,.509,1.061l-.007.027h-1.222a.617.617,0,0,0-.18-.459.86.86,0,0,0-1.009-.029.47.47,0,0,0-.175.373.429.429,0,0,0,.183.357,2.029,2.029,0,0,0,.747.247,2.992,2.992,0,0,1,1.286.509,1.117,1.117,0,0,1,.421.926,1.231,1.231,0,0,1-.541,1.032,2.355,2.355,0,0,1-1.43.4,2.169,2.169,0,0,1-1.479-.475,1.319,1.319,0,0,1-.518-1.08l.008-.025h1.157a.656.656,0,0,0,.246.545,1.025,1.025,0,0,0,.611.17.874.874,0,0,0,.536-.14A.451.451,0,0,0,1158.5,9007.533Z" transform="translate(-1131.557 -9002.426)"/>
    </g>
  </g>
</svg>
