<svg xmlns="http://www.w3.org/2000/svg" width="311.262" height="405.364" viewBox="0 0 311.262 405.364">
  <g id="Grupo_55519" data-name="Grupo 55519" transform="translate(-774.999 -3812.604)">
    <rect id="Rectángulo_9643" data-name="Rectángulo 9643" width="311.262" height="405.364" transform="translate(774.999 3812.604)" fill="#dcdcde"/>
    <rect id="Rectángulo_9644" data-name="Rectángulo 9644" width="243.071" height="356.529" transform="translate(801.016 3838.674)" fill="#f7f2e6"/>
    <rect id="Rectángulo_9645" data-name="Rectángulo 9645" width="232.137" height="1.809" transform="translate(806.443 3958.203)" fill="#333"/>
    <rect id="Rectángulo_9646" data-name="Rectángulo 9646" width="232.137" height="1.809" transform="translate(806.443 4026.483)" fill="#333"/>
    <rect id="Rectángulo_9647" data-name="Rectángulo 9647" width="1.809" height="340.373" transform="translate(1020.785 3847.486)" fill="#333"/>
    <g id="Grupo_55502" data-name="Grupo 55502" transform="translate(1050.24 4034.012)">
      <rect id="Rectángulo_9648" data-name="Rectángulo 9648" width="1.809" height="147.456" transform="translate(5.794)" fill="#333"/>
      <g id="Grupo_55501" data-name="Grupo 55501" transform="translate(0 142.375)">
        <path id="Trazado_106571" data-name="Trazado 106571" d="M1079.328,4214.833l6.7,2.846,6.7-2.846-6.7,15.878Z" transform="translate(-1079.328 -4214.833)" fill="#333"/>
      </g>
    </g>
    <g id="Grupo_55504" data-name="Grupo 55504" transform="translate(1050.24 3843.447)">
      <rect id="Rectángulo_9649" data-name="Rectángulo 9649" width="1.809" height="118.081" transform="translate(5.794 10.798)" fill="#333"/>
      <g id="Grupo_55503" data-name="Grupo 55503" transform="translate(0)">
        <path id="Trazado_106572" data-name="Trazado 106572" d="M1092.725,3862.585l-6.7-2.846-6.7,2.846,6.7-15.878Z" transform="translate(-1079.328 -3846.707)" fill="#333"/>
      </g>
    </g>
    <g id="Grupo_55506" data-name="Grupo 55506" transform="translate(946.329 3843.447)">
      <rect id="Rectángulo_9650" data-name="Rectángulo 9650" width="1.809" height="101.191" transform="translate(5.793)" fill="#333"/>
      <g id="Grupo_55505" data-name="Grupo 55505" transform="translate(0 96.111)">
        <path id="Trazado_106573" data-name="Trazado 106573" d="M964.436,3952.975l6.7,2.846,6.7-2.846-6.7,15.878Z" transform="translate(-964.436 -3952.975)" fill="#333"/>
      </g>
    </g>
    <g id="Grupo_55508" data-name="Grupo 55508" transform="translate(877.13 3843.448)">
      <path id="Trazado_106574" data-name="Trazado 106574" d="M896.139,3947.9H894.33v-7.131h1.809Zm0-9.844H894.33v-1.809h1.809Zm0-9.044H894.33V3926.3h1.809Zm0-4.522H894.33v-7.235h1.809Zm0-9.948H894.33v-1.809h1.809Zm0-9.044H894.33v-2.713h1.809Zm0-4.522H894.33v-7.235h1.809Zm0-9.948H894.33v-1.809h1.809Zm0-9.044H894.33v-2.713h1.809Zm0-4.522H894.33v-7.235h1.809Zm0-9.949H894.33V3865.7h1.809Zm0-9.044H894.33v-2.713h1.809Zm0-4.522H894.33v-7.235h1.809Z" transform="translate(-888.536 -3846.707)" fill="#333"/>
      <g id="Grupo_55507" data-name="Grupo 55507" transform="translate(0 96.11)">
        <path id="Trazado_106575" data-name="Trazado 106575" d="M887.923,3952.975l6.7,2.846,6.7-2.846-6.7,15.878Z" transform="translate(-887.923 -3952.975)" fill="#333"/>
      </g>
    </g>
    <g id="Grupo_55510" data-name="Grupo 55510" transform="translate(826.64 3843.448)">
      <path id="Trazado_106576" data-name="Trazado 106576" d="M840.313,4014.187H838.5v-2.876h1.809Zm0-5.589H838.5v-1.809h1.809Zm0-9.044H838.5v-2.713h1.809Zm0-4.522H838.5V3987.8h1.809Zm0-9.948H838.5v-1.809h1.809Zm0-9.044H838.5v-2.713h1.809Zm0-4.522H838.5v-7.235h1.809Zm0-9.948H838.5v-1.809h1.809Zm0-9.044H838.5v-2.713h1.809Zm0-4.522H838.5v-7.235h1.809Zm0-9.948H838.5v-1.809h1.809Zm0-9.044H838.5V3926.3h1.809Zm0-4.522H838.5v-7.235h1.809Zm0-9.948H838.5v-1.809h1.809Zm0-9.044H838.5v-2.713h1.809Zm0-4.522H838.5v-7.235h1.809Zm0-9.948H838.5v-1.809h1.809Zm0-9.044H838.5v-2.713h1.809Zm0-4.522H838.5v-7.235h1.809Zm0-9.949H838.5V3865.7h1.809Zm0-9.044H838.5v-2.713h1.809Zm0-4.522H838.5v-7.235h1.809Z" transform="translate(-832.709 -3846.707)" fill="#333"/>
      <g id="Grupo_55509" data-name="Grupo 55509" transform="translate(0 162.399)">
        <path id="Trazado_106577" data-name="Trazado 106577" d="M832.1,4026.269l6.7,2.846,6.7-2.846-6.7,15.878Z" transform="translate(-832.097 -4026.269)" fill="#333"/>
      </g>
    </g>
    <g id="Grupo_55512" data-name="Grupo 55512" transform="translate(954.435 3818.757)">
      <rect id="Rectángulo_9651" data-name="Rectángulo 9651" width="75.182" height="1.809" transform="translate(0 5.793)" fill="#333"/>
      <g id="Grupo_55511" data-name="Grupo 55511" transform="translate(70.102)">
        <path id="Trazado_106578" data-name="Trazado 106578" d="M1050.909,3832.8l2.846-6.7-2.846-6.7,15.879,6.7Z" transform="translate(-1050.909 -3819.407)" fill="#333"/>
      </g>
    </g>
    <g id="Grupo_55514" data-name="Grupo 55514" transform="translate(803.954 3818.757)">
      <rect id="Rectángulo_9652" data-name="Rectángulo 9652" width="79.527" height="1.809" transform="translate(10.798 5.793)" fill="#333"/>
      <g id="Grupo_55513" data-name="Grupo 55513">
        <path id="Trazado_106579" data-name="Trazado 106579" d="M822.892,3819.407l-2.846,6.7,2.846,6.7-15.879-6.7Z" transform="translate(-807.014 -3819.407)" fill="#333"/>
      </g>
    </g>
    <g id="Grupo_55515" data-name="Grupo 55515" transform="translate(901.491 3820.205)">
      <path id="Trazado_106580" data-name="Trazado 106580" d="M920.528,3826.93h1.041v1.42h-1.041v1.994H918.69v-1.994h-3.749l-.082-1.1,3.813-6.092h1.856Zm-3.952,0h2.115v-3.314l-.037-.014-.146.26Z" transform="translate(-914.859 -3821.022)"/>
      <path id="Trazado_106581" data-name="Trazado 106581" d="M929.542,3826.752a4.057,4.057,0,0,1-.836,2.769,3.205,3.205,0,0,1-4.542,0,4.043,4.043,0,0,1-.839-2.769v-2.026a4.067,4.067,0,0,1,.837-2.768,3.185,3.185,0,0,1,4.537,0,4.05,4.05,0,0,1,.843,2.768Zm-1.836-2.218a3.008,3.008,0,0,0-.329-1.6,1.137,1.137,0,0,0-1.893,0,3.061,3.061,0,0,0-.322,1.6v2.391a3.07,3.07,0,0,0,.325,1.614,1.065,1.065,0,0,0,.956.5,1.046,1.046,0,0,0,.941-.5,3.1,3.1,0,0,0,.323-1.614Z" transform="translate(-915.668 -3821.008)"/>
      <path id="Trazado_106582" data-name="Trazado 106582" d="M938.037,3829.293a1.089,1.089,0,0,0,.789-.285,1.007,1.007,0,0,0,.3-.762H940.8l.019.038a2.127,2.127,0,0,1-.78,1.732,3.287,3.287,0,0,1-4.353-.268,3.684,3.684,0,0,1-.827-2.481v-.189a3.706,3.706,0,0,1,.824-2.481,2.912,2.912,0,0,1,2.352-.972,2.867,2.867,0,0,1,2.036.72,2.392,2.392,0,0,1,.748,1.894l-.013.038h-1.679a1.337,1.337,0,0,0-.289-.88.988.988,0,0,0-.8-.351,1.071,1.071,0,0,0-1.033.568,3.13,3.13,0,0,0-.3,1.461v.189a3.122,3.122,0,0,0,.3,1.473A1.081,1.081,0,0,0,938.037,3829.293Z" transform="translate(-916.77 -3821.258)"/>
      <path id="Trazado_106583" data-name="Trazado 106583" d="M944.312,3823.751l.076.9a2.3,2.3,0,0,1,.824-.761,2.364,2.364,0,0,1,1.146-.269,2.086,2.086,0,0,1,1.123.291,1.794,1.794,0,0,1,.706.877,2.372,2.372,0,0,1,.82-.858,2.231,2.231,0,0,1,1.188-.309,1.971,1.971,0,0,1,1.594.7,3.261,3.261,0,0,1,.584,2.125v4.134H950.53v-4.15a1.743,1.743,0,0,0-.252-1.082.923.923,0,0,0-.752-.3,1.288,1.288,0,0,0-.678.174,1.269,1.269,0,0,0-.457.484c0,.08,0,.149.005.205s.006.115.006.174v4.5h-1.836v-4.15a1.743,1.743,0,0,0-.252-1.072.917.917,0,0,0-.758-.314,1.424,1.424,0,0,0-.654.143,1.252,1.252,0,0,0-.464.4v4.991H942.6v-6.829Z" transform="translate(-917.511 -3821.258)"/>
      <path id="Trazado_106584" data-name="Trazado 106584" d="M958.629,3828.7a.643.643,0,0,0-.293-.524,3,3,0,0,0-1.089-.391,4.394,4.394,0,0,1-1.827-.729,1.585,1.585,0,0,1-.616-1.317,1.88,1.88,0,0,1,.742-1.5,3.011,3.011,0,0,1,1.986-.616,3.251,3.251,0,0,1,2.079.613,1.806,1.806,0,0,1,.742,1.545l-.013.038h-1.78a.9.9,0,0,0-.262-.669,1.259,1.259,0,0,0-1.471-.042.694.694,0,0,0-.256.547.624.624,0,0,0,.269.517,2.944,2.944,0,0,0,1.089.36,4.42,4.42,0,0,1,1.875.742,1.63,1.63,0,0,1,.612,1.348,1.793,1.793,0,0,1-.79,1.5,3.411,3.411,0,0,1-2.083.584,3.172,3.172,0,0,1-2.156-.691,1.936,1.936,0,0,1-.754-1.576l.014-.037h1.685a.959.959,0,0,0,.36.795,1.486,1.486,0,0,0,.89.246,1.285,1.285,0,0,0,.781-.2A.653.653,0,0,0,958.629,3828.7Z" transform="translate(-918.66 -3821.258)"/>
    </g>
    <g id="Grupo_55516" data-name="Grupo 55516" transform="translate(958.339 3893.334)">
      <path id="Trazado_106585" data-name="Trazado 106585" d="M984.135,3911.19h-6.273v-1.206l2.973-3.188a7.216,7.216,0,0,0,.914-1.247,2.007,2.007,0,0,0,.271-.943,1.421,1.421,0,0,0-.312-.95,1.1,1.1,0,0,0-.887-.37,1.147,1.147,0,0,0-.969.433,1.844,1.844,0,0,0-.331,1.151h-1.794l-.013-.038a2.778,2.778,0,0,1,.818-2.1,3.062,3.062,0,0,1,2.287-.862,3.2,3.2,0,0,1,2.232.738,2.539,2.539,0,0,1,.81,1.97,2.763,2.763,0,0,1-.458,1.536,14.972,14.972,0,0,1-1.511,1.847l-1.635,1.78.014.032h3.862Z" transform="translate(-977.715 -3901.866)"/>
      <path id="Trazado_106586" data-name="Trazado 106586" d="M992.075,3904.435a2.1,2.1,0,0,1-.364,1.218,2.413,2.413,0,0,1-1,.828,2.688,2.688,0,0,1,1.155.883,2.156,2.156,0,0,1,.423,1.313,2.355,2.355,0,0,1-.865,1.96,4.1,4.1,0,0,1-4.536,0,2.35,2.35,0,0,1-.868-1.96,2.166,2.166,0,0,1,.421-1.317,2.731,2.731,0,0,1,1.158-.886,2.4,2.4,0,0,1-1-.823,2.1,2.1,0,0,1-.361-1.216,2.342,2.342,0,0,1,.8-1.9,3.663,3.663,0,0,1,4.229,0A2.332,2.332,0,0,1,992.075,3904.435Zm-1.629,4.112a1.36,1.36,0,0,0-.36-.989,1.242,1.242,0,0,0-.934-.372,1.219,1.219,0,0,0-.931.372,1.382,1.382,0,0,0-.351.989,1.356,1.356,0,0,0,.355.991,1.25,1.25,0,0,0,.94.363,1.236,1.236,0,0,0,.928-.365A1.362,1.362,0,0,0,990.446,3908.548Zm-.209-4.03a1.311,1.311,0,0,0-.293-.894,1,1,0,0,0-.792-.338.981.981,0,0,0-.789.332,1.336,1.336,0,0,0-.284.9,1.368,1.368,0,0,0,.287.912.993.993,0,0,0,.8.337.977.977,0,0,0,.786-.337A1.364,1.364,0,0,0,990.237,3904.518Z" transform="translate(-978.509 -3901.866)"/>
      <path id="Trazado_106587" data-name="Trazado 106587" d="M1000.761,3910.152a1.088,1.088,0,0,0,.789-.286,1.009,1.009,0,0,0,.3-.762h1.672l.02.038a2.13,2.13,0,0,1-.78,1.732,3.288,3.288,0,0,1-4.352-.268,3.677,3.677,0,0,1-.827-2.48v-.189a3.7,3.7,0,0,1,.824-2.482,2.913,2.913,0,0,1,2.351-.972,2.87,2.87,0,0,1,2.036.72,2.392,2.392,0,0,1,.749,1.894l-.014.038h-1.679a1.333,1.333,0,0,0-.29-.881.987.987,0,0,0-.8-.35,1.069,1.069,0,0,0-1.032.568,3.119,3.119,0,0,0-.3,1.462v.189a3.111,3.111,0,0,0,.3,1.472A1.08,1.08,0,0,0,1000.761,3910.152Z" transform="translate(-979.614 -3902.116)"/>
      <path id="Trazado_106588" data-name="Trazado 106588" d="M1007.036,3904.609l.076.9a2.308,2.308,0,0,1,.825-.761,2.373,2.373,0,0,1,1.145-.269,2.086,2.086,0,0,1,1.123.291,1.792,1.792,0,0,1,.707.876,2.381,2.381,0,0,1,.82-.858,2.237,2.237,0,0,1,1.187-.309,1.972,1.972,0,0,1,1.595.7,3.257,3.257,0,0,1,.584,2.124v4.135h-1.844v-4.151a1.733,1.733,0,0,0-.252-1.082.921.921,0,0,0-.752-.3,1.283,1.283,0,0,0-.678.174,1.269,1.269,0,0,0-.458.484c0,.081,0,.149.006.206s.006.115.006.173v4.5h-1.836v-4.151a1.739,1.739,0,0,0-.253-1.072.917.917,0,0,0-.758-.313,1.416,1.416,0,0,0-.653.143,1.256,1.256,0,0,0-.464.4v4.993h-1.837v-6.831Z" transform="translate(-980.354 -3902.116)"/>
      <path id="Trazado_106589" data-name="Trazado 106589" d="M1021.354,3909.559a.646.646,0,0,0-.293-.525,3.019,3.019,0,0,0-1.089-.391,4.394,4.394,0,0,1-1.828-.729,1.586,1.586,0,0,1-.615-1.317,1.88,1.88,0,0,1,.742-1.5,3.012,3.012,0,0,1,1.985-.616,3.257,3.257,0,0,1,2.08.613,1.807,1.807,0,0,1,.741,1.546l-.012.038h-1.78a.9.9,0,0,0-.262-.668,1.258,1.258,0,0,0-1.471-.042.688.688,0,0,0-.256.546.623.623,0,0,0,.269.518,2.941,2.941,0,0,0,1.089.359,4.44,4.44,0,0,1,1.875.742,1.633,1.633,0,0,1,.612,1.349,1.8,1.8,0,0,1-.79,1.5,3.417,3.417,0,0,1-2.083.583,3.172,3.172,0,0,1-2.156-.691,1.933,1.933,0,0,1-.754-1.576l.014-.037h1.685a.958.958,0,0,0,.359.8,1.489,1.489,0,0,0,.891.247,1.28,1.28,0,0,0,.78-.2A.652.652,0,0,0,1021.354,3909.559Z" transform="translate(-981.504 -3902.116)"/>
    </g>
    <g id="Grupo_55517" data-name="Grupo 55517" transform="translate(1021.843 3867.513)">
      <path id="Trazado_106590" data-name="Trazado 106590" d="M1051.059,3881.19h-1.554v-6.377h-1.575v-1.1l3.129-.277Z" transform="translate(-1047.93 -3873.328)"/>
      <path id="Trazado_106591" data-name="Trazado 106591" d="M1059.641,3878.16a3.419,3.419,0,0,1-.705,2.334,2.7,2.7,0,0,1-3.83,0,3.414,3.414,0,0,1-.707-2.334v-1.709a3.432,3.432,0,0,1,.7-2.333,2.686,2.686,0,0,1,3.828,0,3.411,3.411,0,0,1,.711,2.333Zm-1.549-1.87a2.541,2.541,0,0,0-.277-1.348.96.96,0,0,0-1.6,0,2.588,2.588,0,0,0-.272,1.351v2.015a2.594,2.594,0,0,0,.275,1.362.9.9,0,0,0,.806.425.884.884,0,0,0,.793-.425,2.616,2.616,0,0,0,.271-1.362Z" transform="translate(-1048.548 -3873.316)"/>
      <path id="Trazado_106592" data-name="Trazado 106592" d="M1066.8,3880.3a.916.916,0,0,0,.665-.241.85.85,0,0,0,.25-.643h1.411l.015.032a1.792,1.792,0,0,1-.657,1.461,2.77,2.77,0,0,1-3.671-.227,3.1,3.1,0,0,1-.7-2.091v-.16a3.125,3.125,0,0,1,.694-2.091,2.456,2.456,0,0,1,1.984-.82,2.418,2.418,0,0,1,1.717.607,2.012,2.012,0,0,1,.63,1.6l-.01.032h-1.416a1.124,1.124,0,0,0-.245-.742.828.828,0,0,0-.676-.3.9.9,0,0,0-.87.478,2.623,2.623,0,0,0-.253,1.233v.16a2.618,2.618,0,0,0,.253,1.241A.909.909,0,0,0,1066.8,3880.3Z" transform="translate(-1049.478 -3873.527)"/>
      <path id="Trazado_106593" data-name="Trazado 106593" d="M1072.1,3875.629l.064.762a1.929,1.929,0,0,1,.695-.641,1.994,1.994,0,0,1,.966-.226,1.759,1.759,0,0,1,.948.245,1.511,1.511,0,0,1,.6.739,2,2,0,0,1,.692-.724,1.878,1.878,0,0,1,1-.26,1.66,1.66,0,0,1,1.344.588,2.743,2.743,0,0,1,.492,1.791v3.488h-1.553v-3.5a1.462,1.462,0,0,0-.214-.913.773.773,0,0,0-.633-.255,1.077,1.077,0,0,0-.572.147,1.053,1.053,0,0,0-.385.408c0,.067,0,.125.005.173s.005.1.005.146v3.794H1074v-3.5a1.469,1.469,0,0,0-.213-.9.769.769,0,0,0-.638-.264,1.194,1.194,0,0,0-.552.12,1.052,1.052,0,0,0-.391.338v4.21h-1.549v-5.76Z" transform="translate(-1050.102 -3873.527)"/>
      <path id="Trazado_106594" data-name="Trazado 106594" d="M1084.17,3879.8a.545.545,0,0,0-.248-.442,2.544,2.544,0,0,0-.918-.33,3.708,3.708,0,0,1-1.541-.614,1.334,1.334,0,0,1-.519-1.111,1.583,1.583,0,0,1,.626-1.263,2.536,2.536,0,0,1,1.674-.519,2.744,2.744,0,0,1,1.754.517,1.522,1.522,0,0,1,.625,1.3l-.01.032h-1.5a.755.755,0,0,0-.222-.564,1.06,1.06,0,0,0-1.24-.035.58.58,0,0,0-.215.46.522.522,0,0,0,.226.436,2.471,2.471,0,0,0,.919.3,3.726,3.726,0,0,1,1.581.626,1.373,1.373,0,0,1,.516,1.136,1.514,1.514,0,0,1-.665,1.27,2.885,2.885,0,0,1-1.757.493,2.667,2.667,0,0,1-1.817-.583,1.63,1.63,0,0,1-.637-1.329l.011-.032h1.421a.81.81,0,0,0,.3.67,1.251,1.251,0,0,0,.751.208,1.073,1.073,0,0,0,.657-.171A.546.546,0,0,0,1084.17,3879.8Z" transform="translate(-1051.072 -3873.527)"/>
    </g>
    <g id="Grupo_55518" data-name="Grupo 55518" transform="translate(1046.71 3997.311)">
      <path id="Trazado_106595" data-name="Trazado 106595" d="M1080.9,4018.151a9.084,9.084,0,0,0-1.7,2.72,13.346,13.346,0,0,0-.652,3.044l-.074.788h-1.555l.074-.788a11.207,11.207,0,0,1,.777-3.139,9.7,9.7,0,0,1,1.635-2.626h-3.982v-1.2h5.477Z" transform="translate(-1075.425 -4016.843)"/>
      <path id="Trazado_106596" data-name="Trazado 106596" d="M1085.683,4016.831a3.687,3.687,0,0,1,.807.082,4.158,4.158,0,0,1,.742.241l-.276,1.139a5.631,5.631,0,0,0-.626-.183,2.93,2.93,0,0,0-.637-.061,1.39,1.39,0,0,0-1.136.529,2.146,2.146,0,0,0-.4,1.467l.015.026a1.8,1.8,0,0,1,.66-.426,2.476,2.476,0,0,1,.9-.155,1.965,1.965,0,0,1,1.626.738,2.924,2.924,0,0,1,.588,1.881,2.687,2.687,0,0,1-.727,1.933,2.486,2.486,0,0,1-1.881.76,2.6,2.6,0,0,1-2-.834,3.256,3.256,0,0,1-.772-2.306v-1.512a3.316,3.316,0,0,1,.878-2.422A2.989,2.989,0,0,1,1085.683,4016.831Zm-.356,3.837a1.778,1.778,0,0,0-.734.137,1.135,1.135,0,0,0-.469.377v.516a2.522,2.522,0,0,0,.333,1.413,1.023,1.023,0,0,0,.886.495.885.885,0,0,0,.769-.439,1.877,1.877,0,0,0,.29-1.06,1.713,1.713,0,0,0-.293-1.041A.923.923,0,0,0,1085.327,4020.668Z" transform="translate(-1076.108 -4016.831)"/>
      <path id="Trazado_106597" data-name="Trazado 106597" d="M1094.952,4023.818a.916.916,0,0,0,.665-.241.851.851,0,0,0,.251-.643h1.41l.016.032a1.8,1.8,0,0,1-.657,1.462,2.773,2.773,0,0,1-3.67-.227,3.1,3.1,0,0,1-.7-2.092v-.159a3.123,3.123,0,0,1,.695-2.092,2.455,2.455,0,0,1,1.982-.819,2.422,2.422,0,0,1,1.718.607,2.018,2.018,0,0,1,.63,1.6l-.011.032h-1.415a1.124,1.124,0,0,0-.246-.743.828.828,0,0,0-.676-.295.9.9,0,0,0-.87.478,2.64,2.64,0,0,0-.253,1.234v.16a2.625,2.625,0,0,0,.253,1.241A.911.911,0,0,0,1094.952,4023.818Z" transform="translate(-1077.035 -4017.042)"/>
      <path id="Trazado_106598" data-name="Trazado 106598" d="M1100.245,4019.144l.064.761a1.926,1.926,0,0,1,.694-.641,1.994,1.994,0,0,1,.966-.226,1.763,1.763,0,0,1,.948.244,1.515,1.515,0,0,1,.6.74,2.009,2.009,0,0,1,.692-.724,1.881,1.881,0,0,1,1-.26,1.664,1.664,0,0,1,1.345.587,2.754,2.754,0,0,1,.492,1.792v3.487h-1.554v-3.5a1.466,1.466,0,0,0-.213-.913.778.778,0,0,0-.634-.255,1.082,1.082,0,0,0-.572.146,1.063,1.063,0,0,0-.385.408c0,.068,0,.126.006.174s.005.1.005.147v3.793h-1.549v-3.5a1.465,1.465,0,0,0-.214-.9.77.77,0,0,0-.638-.264,1.193,1.193,0,0,0-.551.12,1.053,1.053,0,0,0-.392.338v4.209H1098.8v-5.759Z" transform="translate(-1077.659 -4017.042)"/>
      <path id="Trazado_106599" data-name="Trazado 106599" d="M1112.318,4023.317a.542.542,0,0,0-.248-.441,2.5,2.5,0,0,0-.918-.33,3.709,3.709,0,0,1-1.541-.615,1.336,1.336,0,0,1-.519-1.11,1.589,1.589,0,0,1,.626-1.264,2.536,2.536,0,0,1,1.674-.518,2.747,2.747,0,0,1,1.755.515,1.529,1.529,0,0,1,.625,1.305l-.011.031h-1.5a.759.759,0,0,0-.221-.564,1.06,1.06,0,0,0-1.24-.034.576.576,0,0,0-.215.459.522.522,0,0,0,.226.437,2.473,2.473,0,0,0,.918.3,3.739,3.739,0,0,1,1.581.625,1.377,1.377,0,0,1,.516,1.137,1.514,1.514,0,0,1-.666,1.269,2.877,2.877,0,0,1-1.756.493,2.67,2.67,0,0,1-1.818-.583,1.63,1.63,0,0,1-.636-1.328l.011-.032h1.421a.807.807,0,0,0,.3.67,1.254,1.254,0,0,0,.751.208,1.077,1.077,0,0,0,.657-.171A.549.549,0,0,0,1112.318,4023.317Z" transform="translate(-1078.629 -4017.042)"/>
    </g>
  </g>
</svg>
