<svg xmlns="http://www.w3.org/2000/svg" width="604" height="379.941" viewBox="0 0 604 379.941">
  <g id="Grupo_55397" data-name="Grupo 55397" transform="translate(-508.202 -7922.865)">
    <rect id="Rectángulo_9582" data-name="Rectángulo 9582" width="604" height="379.942" rx="14.087" transform="translate(508.202 7922.866)" fill="#fff"/>
    <g id="Grupo_55396" data-name="Grupo 55396" transform="translate(553.659 7951.27)">
      <g id="Grupo_55379" data-name="Grupo 55379" transform="translate(122.105)">
        <g id="Grupo_55376" data-name="Grupo 55376" transform="translate(1.492)">
          <path id="Trazado_106215" data-name="Trazado 106215" d="M641.377,7956.937c0-8.319-5.041-15.063-11.26-15.063s-11.26,6.744-11.26,15.063c0,6.506,3.089,12.029,7.406,14.137v14.405h8.508v-14.838C638.665,7968.271,641.377,7963.033,641.377,7956.937Z" transform="translate(-618.09 -7941.106)" fill="#fff"/>
          <path id="Trazado_106216" data-name="Trazado 106216" d="M635.806,7986.514H625.763v-14.705c-4.449-2.434-7.406-8.226-7.406-14.605,0-8.729,5.394-15.829,12.027-15.829s12.027,7.1,12.027,15.829c0,5.966-2.58,11.451-6.605,14.126Zm-8.508-1.534h6.974v-14.5l.368-.225c3.789-2.308,6.237-7.43,6.237-13.05,0-7.881-4.708-14.294-10.493-14.294s-10.493,6.413-10.493,14.294c0,6.008,2.8,11.413,6.977,13.449l.43.211Z" transform="translate(-618.357 -7941.374)" fill="#999"/>
        </g>
        <g id="Grupo_55377" data-name="Grupo 55377" transform="translate(0 18.182)">
          <rect id="Rectángulo_9583" data-name="Rectángulo 9583" width="26.406" height="4.404" rx="1.435" transform="translate(0.768 0.767)" fill="#fff"/>
          <path id="Trazado_106217" data-name="Trazado 106217" d="M642.357,7959.159h-22a2.969,2.969,0,1,1,0-5.938h22a2.969,2.969,0,1,1,0,5.938Zm-22-4.4a1.435,1.435,0,1,0,0,2.87h22a1.435,1.435,0,0,0,0-2.87Z" transform="translate(-617.385 -7953.221)" fill="#999"/>
        </g>
        <g id="Grupo_55378" data-name="Grupo 55378" transform="translate(0 9.775)">
          <rect id="Rectángulo_9584" data-name="Rectángulo 9584" width="26.406" height="4.404" rx="1.435" transform="translate(0.768 0.767)" fill="#fff"/>
          <path id="Trazado_106218" data-name="Trazado 106218" d="M642.357,7953.681h-22a2.969,2.969,0,1,1,0-5.938h22a2.969,2.969,0,1,1,0,5.938Zm-22-4.4a1.435,1.435,0,1,0,0,2.87h22a1.435,1.435,0,0,0,0-2.87Z" transform="translate(-617.385 -7947.743)" fill="#999"/>
        </g>
      </g>
      <g id="Grupo_55380" data-name="Grupo 55380" transform="translate(0 41.087)">
        <path id="Trazado_106219" data-name="Trazado 106219" d="M767.907,8131.653l6.406,24.421a40.742,40.742,0,0,1-1.4,30.428c-7.406,15.814-13.611,26.623-13.611,26.623s-8.409,15.614-10.81,33.629H578.34l-33.229-99.087-6.206-22.42s-3.4-19.217,6.406-29.426,18.016-18.416,18.016-18.416l41.837-34.229s22.42-21.819,25.422-25.423,10.81-22.62,10.81-22.62,5.6-15.613,5.8-19.418,8.008-7.606,19.817-7.006,33.03,10.01,38.034,21.42c0,0-7.006,19.817-9.009,28.424s-2.6,23.222-2.6,23.222,19.818,13.011,42.037,20.418,29.026,18.015,29.026,18.015,5,9.946,4.2,27.494S767.907,8131.653,767.907,8131.653Z" transform="translate(-537.548 -7967.879)" fill="#fff"/>
        <path id="Trazado_106220" data-name="Trazado 106220" d="M749.434,8247.789H578.062l-33.4-99.611-6.217-22.459c-.16-.871-3.373-19.791,6.592-30.162,9.7-10.1,17.943-18.344,18.026-18.427l41.894-34.282c.173-.174,22.374-21.788,25.318-25.32,2.894-3.472,10.612-22.229,10.689-22.418.043-.122,5.557-15.521,5.749-19.168.221-4.212,8.158-8.362,20.622-7.731,11.988.61,33.518,10.063,38.7,21.875l.121.279-.1.286c-.071.2-7.015,19.878-8.986,28.344-1.769,7.61-2.442,20.149-2.563,22.64,2.805,1.795,21.265,13.354,41.495,20.1,22.219,7.408,29.144,17.886,29.428,18.33.247.483,5.124,10.4,4.323,27.941-.738,16.18-.795,22.947-.8,23.82l6.38,24.323a41.041,41.041,0,0,1-1.447,30.947c-7.336,15.665-13.579,26.573-13.642,26.68-.072.137-8.359,15.689-10.714,33.352Zm-170.269-1.535h168.93c2.509-17.67,10.72-33.07,10.8-33.225.072-.127,6.286-10.984,13.593-26.585a40.3,40.3,0,0,0,1.386-29.811l-6.463-24.713c0-.064.009-6.624.8-23.987.78-17.11-4.075-27.016-4.124-27.114-.024-.031-6.935-10.417-28.582-17.632-22.06-7.354-42.017-20.374-42.216-20.5l-.362-.238.017-.436c.006-.146.628-14.782,2.621-23.36,1.857-7.983,8.056-25.728,8.93-28.219-5.1-11-26-20.115-37.247-20.687-12.007-.607-18.857,3.327-19.013,6.28-.2,3.87-5.617,18.994-5.849,19.637-.331.813-7.9,19.2-10.942,22.852-2.994,3.594-24.558,24.588-25.476,25.479l-41.886,34.275c-.026.032-8.26,8.269-17.948,18.354-9.422,9.8-6.237,28.571-6.2,28.76l6.188,22.349Z" transform="translate(-537.822 -7968.146)" fill="#999"/>
      </g>
      <path id="Trazado_106221" data-name="Trazado 106221" d="M595.615,8246.035l-8.608-65.658c-.06-.5-6-49.766-5.21-71.791.8-22.1,17.9-62.918,18.076-63.327L614.5,8015.2l20.006-45.017,1.4.624L615.9,8015.841l-14.627,30.051c-.153.372-17.15,40.926-17.937,62.748-.79,21.905,5.14,71.051,5.2,71.544l8.607,65.65Z" transform="translate(-514.348 -7925.972)" fill="#999"/>
      <path id="Trazado_106222" data-name="Trazado 106222" d="M618.387,8217.343h-1.535l.009-55.648c-.4-55.945,11.74-87.842,11.863-88.155,15.376-49.332,37.97-51.323,38.926-51.383l.1,1.531c-.223.016-22.54,2.121-37.575,50.355-.14.362-12.172,32.019-11.777,87.645Z" transform="translate(-495.565 -7898.179)" fill="#999"/>
      <path id="Trazado_106223" data-name="Trazado 106223" d="M579.767,8209.719l-18.016-59.453c-.1-.333-10.261-33.848-12.64-63.215-2.4-29.614,15.625-50.016,15.806-50.22l1.143,1.026c-.18.2-17.767,20.135-15.421,49.068,2.368,29.205,12.479,62.561,12.58,62.894l18.016,59.455Z" transform="translate(-531.903 -7890.334)" fill="#999"/>
      <ellipse id="Elipse_4304" data-name="Elipse 4304" cx="3.136" cy="5.472" rx="3.136" ry="5.472" transform="translate(212.544 183.843)" fill="#999"/>
      <path id="Trazado_106224" data-name="Trazado 106224" d="M682.592,8121.664c-10.384,0-18.516-18.363-18.516-41.8s8.132-41.806,18.516-41.806,18.516,18.363,18.516,41.806S692.976,8121.664,682.592,8121.664Zm0-82.073c-9.365,0-16.981,18.064-16.981,40.271s7.617,40.269,16.981,40.269,16.981-18.064,16.981-40.269S691.957,8039.591,682.592,8039.591Z" transform="translate(-470.315 -7889.679)" fill="#999"/>
      <path id="Trazado_106225" data-name="Trazado 106225" d="M662.353,7996.69c-6.647-10.34-16.117-16.066-31.667-19.146-14.244-2.822-21.076,2.081-21.143,2.132l-.919-1.23c.3-.219,7.389-5.373,22.364-2.406,16,3.169,25.763,9.1,32.658,19.822Z" transform="translate(-499.965 -7923.33)" fill="#999"/>
      <g id="Grupo_55381" data-name="Grupo 55381" transform="translate(99.277 68.04)" opacity="0.36">
        <path id="Trazado_106226" data-name="Trazado 106226" d="M614.221,7986.209s17.749,8.808,21.753,9.876,19.616,7.873,30.026,18.148,21.753,22.953,21.753,22.953,28.825,24.288,46.041,27.758,19.884,5.473,19.884,5.473-7.74,9.075-7.606,19.885.267,17.281.267,17.281l-13.726-8.491s9.418-24.854-16.968-39.351c-30.307-16.65-66.426-30.879-74.066-34.564-15.213-7.341-38.568-14.547-38.568-14.547Z" transform="translate(-602.243 -7985.442)" fill="#999"/>
        <path id="Trazado_106227" data-name="Trazado 106227" d="M746.6,8108.618a.774.774,0,0,1-.4-.115l-13.726-8.493a.765.765,0,0,1-.315-.922c.373-.992,8.854-24.412-16.619-38.407-22.651-12.445-48.145-23.357-63.374-29.877-5.061-2.169-8.719-3.732-10.655-4.668-14.986-7.23-38.228-14.434-38.461-14.5a.766.766,0,0,1-.471-1.053l11.211-24.422a.767.767,0,0,1,.44-.4.778.778,0,0,1,.6.037c.178.087,17.726,8.786,21.61,9.821,3.56.951,19.555,7.671,30.369,18.345,10.305,10.176,21.671,22.862,21.785,22.99.209.166,28.8,24.125,45.62,27.515,16.9,3.406,19.9,5.4,20.192,5.612a.766.766,0,0,1,.124,1.11c-.077.089-7.552,8.991-7.423,19.377.133,10.8.267,17.273.267,17.274a.769.769,0,0,1-.767.784Zm-12.808-9.594,12.013,7.432c-.046-2.455-.143-8.021-.239-15.878-.115-9.312,5.342-17.233,7.195-19.647-1.588-.714-6.3-2.436-18.857-4.965-17.212-3.468-45.2-26.926-46.383-27.924-.19-.2-11.525-12.854-21.8-23-10.594-10.455-26.211-17.026-29.685-17.953-3.619-.965-17.793-7.906-21.188-9.577l-10.516,22.909c4.312,1.364,24.366,7.827,37.839,14.327,1.906.92,5.549,2.479,10.593,4.638,15.256,6.533,40.792,17.464,63.51,29.943C740.636,8072.718,735.023,8095.068,733.8,8099.024Z" transform="translate(-602.51 -7985.709)" fill="#4d4d4d"/>
      </g>
      <g id="Grupo_55382" data-name="Grupo 55382" transform="translate(241.313 151.602)" opacity="0.6">
        <path id="Trazado_106228" data-name="Trazado 106228" d="M698.946,8071.43l7.773,1.368v-22.82s-1.036-11.982-3.269-8.774c-10.308,14.813-7.54,29.325-7.54,29.325Z" transform="translate(-694.787 -8039.89)" fill="#999"/>
        <path id="Trazado_106229" data-name="Trazado 106229" d="M706.993,8073.833a.9.9,0,0,1-.133-.012l-7.773-1.368c-.029,0-.057-.014-.086-.02l-3.034-.9a.767.767,0,0,1-.536-.591c-.115-.606-2.71-15,7.664-29.908.623-.9,1.268-.944,1.694-.833,1.782.475,2.6,5.688,2.968,9.979l0,22.887a.766.766,0,0,1-.767.768Zm-7.6-2.884,6.829,1.2v-21.908c-.344-3.947-1.131-7.692-1.766-8.472-.029.033-.065.08-.1.136a41.73,41.73,0,0,0-7.485,28.292Z" transform="translate(-695.061 -8040.157)" fill="#4d4d4d"/>
      </g>
      <path id="Trazado_106230" data-name="Trazado 106230" d="M610.4,7990.441l-6.137-6.547-3.6.271s-1.535.154-1.228-1.176l4.039-4.857s1.892-2.046,2.506.307l.206,4.091,5.476,6.417.66,2.021Z" transform="translate(-504.897 -7922.161)" fill="#999"/>
      <path id="Trazado_106231" data-name="Trazado 106231" d="M604.628,8002.667l-6.137-6.544-3.6.271s-1.535.153-1.228-1.177l4.039-4.858s1.892-2.045,2.506.307l.206,4.093,5.476,6.416.66,2.021Z" transform="translate(-507.984 -7915.622)" fill="#999"/>
      <rect id="Rectángulo_9585" data-name="Rectángulo 9585" width="90.633" height="1.534" transform="translate(193.602 319.805) rotate(-78.273)" fill="#999"/>
      <path id="Trazado_106232" data-name="Trazado 106232" d="M664.682,8177.852l-1.5-.314.947-4.506,1.5.314Zm1.894-9.011-1.5-.314.95-4.508,1.5.315Zm1.9-9.012-1.5-.314.947-4.506,1.5.314Zm1.9-9.009-1.5-.317.947-4.5,1.5.314Zm1.894-9.013-1.5-.318.948-4.5,1.5.316Zm1.9-9.012-1.5-.314.947-4.5,1.5.314Zm1.9-9.011-1.5-.314.947-4.506,1.5.314Zm1.894-9.011-1.5-.317.948-4.5,1.5.317Zm1.9-9.012-1.5-.312.947-4.506,1.5.313Zm1.9-9.01-1.5-.315.947-4.506,1.5.315Z" transform="translate(-470.794 -7860.872)" fill="#999"/>
      <g id="Grupo_55383" data-name="Grupo 55383" transform="translate(195.392 231.062)">
        <rect id="Rectángulo_9586" data-name="Rectángulo 9586" width="2.302" height="1.534" transform="translate(17.937 2.254) rotate(-78.273)" fill="#999"/>
        <path id="Trazado_106233" data-name="Trazado 106233" d="M667.545,8171.973l-1.5-.312.919-4.435,1.5.313Zm1.839-8.868-1.5-.311.918-4.435,1.5.312Zm1.837-8.866-1.5-.312.919-4.433,1.5.312Zm1.84-8.869-1.5-.312.921-4.433,1.5.312Zm1.839-8.865-1.5-.312.921-4.435,1.5.313Zm1.839-8.868-1.5-.312.918-4.433,1.5.312Zm1.839-8.866-1.5-.312.918-4.434,1.5.313Zm1.84-8.867-1.5-.311.919-4.436,1.5.313Zm1.839-8.867-1.5-.312.919-4.432,1.5.311Z" transform="translate(-664.655 -8089.604)" fill="#999"/>
        <rect id="Rectángulo_9587" data-name="Rectángulo 9587" width="2.302" height="1.534" transform="translate(0 88.745) rotate(-78.273)" fill="#999"/>
      </g>
      <g id="Grupo_55384" data-name="Grupo 55384" transform="translate(95.088 91.582)" opacity="0.36">
        <path id="Trazado_106234" data-name="Trazado 106234" d="M613.544,8006.031l-3.47,7.739-9.794-4.76,3.63-7.461Z" transform="translate(-599.513 -8000.78)" fill="#999"/>
        <path id="Trazado_106235" data-name="Trazado 106235" d="M610.341,8014.805a.745.745,0,0,1-.335-.077l-9.794-4.762a.754.754,0,0,1-.39-.438.772.772,0,0,1,.035-.587l3.633-7.458a.76.76,0,0,1,1.013-.36l9.632,4.479a.765.765,0,0,1,.376,1.009l-3.468,7.742a.761.761,0,0,1-.439.406A.734.734,0,0,1,610.341,8014.805Zm-8.766-5.882,8.39,4.08,2.836-6.329-8.263-3.842Z" transform="translate(-599.781 -8001.048)" fill="#4d4d4d"/>
      </g>
      <g id="Grupo_55385" data-name="Grupo 55385" transform="translate(109.287 96.734)" opacity="0.36">
        <path id="Trazado_106236" data-name="Trazado 106236" d="M609.532,8004.9l.667,8.274,14.413,5.872,2.433-8.683Z" transform="translate(-608.766 -8004.138)" fill="#999"/>
        <path id="Trazado_106237" data-name="Trazado 106237" d="M624.879,8020.084a.8.8,0,0,1-.29-.057l-14.411-5.872a.77.77,0,0,1-.476-.649l-.666-8.274a.764.764,0,0,1,.284-.66.775.775,0,0,1,.708-.132l17.512,5.461a.768.768,0,0,1,.511.939l-2.434,8.683a.764.764,0,0,1-.4.482A.752.752,0,0,1,624.879,8020.084Zm-13.685-7.172,13.178,5.367,2-7.134-15.717-4.9Z" transform="translate(-609.033 -8004.406)" fill="#4d4d4d"/>
      </g>
      <g id="Grupo_55386" data-name="Grupo 55386" transform="translate(128.77 103.805)" opacity="0.36">
        <path id="Trazado_106238" data-name="Trazado 106238" d="M622.228,8009.513v9.075l14.279,4.8-.439-8.541Z" transform="translate(-621.461 -8008.746)" fill="#999"/>
        <path id="Trazado_106239" data-name="Trazado 106239" d="M636.776,8024.426a.756.756,0,0,1-.246-.04l-14.279-4.8a.765.765,0,0,1-.523-.726v-9.076a.767.767,0,0,1,1.044-.716l13.838,5.339a.765.765,0,0,1,.491.678l.44,8.538a.768.768,0,0,1-.766.807Zm-13.513-6.123,12.689,4.269-.358-6.915-12.331-4.757Z" transform="translate(-621.728 -8009.013)" fill="#4d4d4d"/>
      </g>
      <g id="Grupo_55387" data-name="Grupo 55387" transform="translate(146.325 112.212)" opacity="0.36">
        <path id="Trazado_106240" data-name="Trazado 106240" d="M633.668,8014.992l4.063,11.077,20.418-.668Z" transform="translate(-632.9 -8014.224)" fill="#999"/>
        <path id="Trazado_106241" data-name="Trazado 106241" d="M638,8027.1a.769.769,0,0,1-.721-.5l-4.062-11.076a.767.767,0,0,1,1.021-.97l24.481,10.408a.768.768,0,0,1-.275,1.474l-20.419.668Zm-2.732-10.444,3.261,8.891,16.391-.535Z" transform="translate(-633.167 -8014.491)" fill="#4d4d4d"/>
      </g>
      <path id="Trazado_106242" data-name="Trazado 106242" d="M647.152,8022.921a.762.762,0,0,1-.3-.062c-.132-.056-3.313-1.5-12.276-11.812-8.625-9.929-24.633-10.409-24.793-10.413a.767.767,0,0,1-.749-.784.831.831,0,0,1,.784-.75c.684.017,16.851.5,25.916,10.939,8.6,9.894,11.7,11.4,11.734,11.414a.769.769,0,0,1-.316,1.468Z" transform="translate(-499.746 -7910.509)" fill="#4d4d4d"/>
      <path id="Trazado_106243" data-name="Trazado 106243" d="M657.664,8028.17a.751.751,0,0,1-.427-.13c-5.955-3.993-12.617-9.448-12.684-9.5-.533-.364-3.436-2.469-3.338-4.418a2.041,2.041,0,0,1,1.186-1.72c2.6-1.426,5.12.979,6.083,2.454a.767.767,0,0,1-1.283.841c-.02-.031-2.056-3.07-4.061-1.949-.381.209-.39.385-.394.451-.04.812,1.6,2.338,2.73,3.116.117.091,6.722,5.5,12.614,9.452a.766.766,0,0,1-.427,1.4Z" transform="translate(-482.54 -7903.631)" fill="#4d4d4d"/>
      <path id="Trazado_106244" data-name="Trazado 106244" d="M603.88,8009.907a.767.767,0,0,1-.534-1.318c.5-.484,1-.951,1.493-1.414a37.116,37.116,0,0,0,6.547-7.449c2.511-3.89,2.416-11.511,2.414-11.586a.767.767,0,0,1,.753-.782h.014a.769.769,0,0,1,.767.754c0,.331.1,8.164-2.66,12.447a38.979,38.979,0,0,1-6.786,7.736c-.49.459-.981.919-1.476,1.4A.764.764,0,0,1,603.88,8009.907Z" transform="translate(-502.912 -7916.788)" fill="#4d4d4d"/>
      <g id="Grupo_55388" data-name="Grupo 55388" transform="translate(284.898 37.606)">
        <path id="Trazado_106245" data-name="Trazado 106245" d="M757.334,8250.367h150.8l9.075-32.827s5.552-16.015,8.514-19.217,12.3-23.755,12.437-28.026-4.937-27.49-4.937-27.49-.935-19.35,3.2-37.364,5.2-28.694-.267-35.634-28.025-16.281-28.025-16.281l-20.818-9.874s-3.6-.668-3.87-10.01,0-26.956,0-26.956a52.112,52.112,0,0,1,4.271-16.015c3.6-7.608,3.869-9.208.266-12.278s-16.681-11.876-33.229-12.011-18.616,2.4-18.616,2.4a101.649,101.649,0,0,1-4.07,17.48s-10.077,27.692-15.58,35.1-16.515,15.714-29.027,19.417-39.934,8.808-39.934,8.808-9.409,2.336-13.545,4.872-4.4,11.476-4.4,11.476a58.871,58.871,0,0,0-5.471,28.96c1.2,16.281,3.069,28.825,3.069,28.825l10.408,46.573Z" transform="translate(-723.194 -7965.609)" fill="#fff"/>
        <path id="Trazado_106246" data-name="Trazado 106246" d="M908.985,8251.405H757l-19.9-80.653-10.413-46.592c-.029-.18-1.9-12.815-3.086-28.937a60.455,60.455,0,0,1,5.477-29.213c.061-1.329.606-9.385,4.762-11.936,4.19-2.566,13.373-4.863,13.763-4.959.318-.061,27.572-5.15,39.9-8.8,12.755-3.774,23.568-12.332,28.626-19.139,5.376-7.232,15.376-34.627,15.476-34.9a102.127,102.127,0,0,0,4.029-17.3l.025-.225.143-.178c.384-.471,3.137-2.838,19.217-2.684,19.371.154,33.145,11.7,33.722,12.193,4.022,3.426,3.61,5.417-.071,13.19a51.684,51.684,0,0,0-4.2,15.744c0,.129-.261,17.659,0,26.876.241,8.427,3.235,9.274,3.264,9.282l.167.055,20.818,9.877c.893.37,22.767,9.482,28.3,16.5,5.691,7.217,4.535,18.317.411,36.278-4.064,17.7-3.194,36.965-3.184,37.156.192.826,5.075,23.237,4.94,27.552-.144,4.56-9.672,25.311-12.643,28.522-2.821,3.05-8.3,18.79-8.352,18.947ZM758.2,8249.87H907.816l8.921-32.267c.243-.707,5.652-16.25,8.689-19.532,2.781-3.009,12.1-23.3,12.234-27.529.129-4.128-4.87-27.071-4.92-27.3-.028-.321-.909-19.79,3.2-37.7,4.018-17.5,5.187-28.251-.121-34.985-5.285-6.7-27.492-15.954-27.715-16.046l-20.781-9.858c-.771-.208-4.122-1.634-4.381-10.715-.264-9.251,0-26.813,0-26.99a52.311,52.311,0,0,1,4.343-16.33c3.6-7.6,3.642-8.659.464-11.365-4.741-4.038-17.681-11.707-32.738-11.827-13.525-.086-17.142,1.56-17.884,2.036a105.934,105.934,0,0,1-4.064,17.31c-.424,1.168-10.189,27.915-15.7,35.326-4.83,6.5-15.433,15.554-29.425,19.7-12.4,3.672-39.738,8.774-40.011,8.826-.051.013-9.3,2.327-13.286,4.772-3.732,2.287-4.035,10.76-4.036,10.844l-.006.177-.083.157a58.613,58.613,0,0,0-5.385,28.546c1.185,16.063,3.045,28.645,3.062,28.771l10.4,46.518Z" transform="translate(-723.461 -7965.878)" fill="#999"/>
      </g>
      <g id="Grupo_55392" data-name="Grupo 55392" transform="translate(410.063 3.203)">
        <g id="Grupo_55389" data-name="Grupo 55389" transform="translate(1.492)">
          <path id="Trazado_106247" data-name="Trazado 106247" d="M829.009,7959.023c0-8.319-5.04-15.062-11.26-15.062s-11.26,6.743-11.26,15.063c0,6.506,3.089,12.031,7.408,14.139v14.4H822.4v-14.837C826.3,7970.357,829.009,7965.12,829.009,7959.023Z" transform="translate(-805.723 -7943.194)" fill="#fff"/>
          <path id="Trazado_106248" data-name="Trazado 106248" d="M823.438,7988.6H813.4V7973.9c-4.45-2.434-7.406-8.227-7.406-14.605,0-8.728,5.394-15.829,12.027-15.829s12.026,7.1,12.026,15.829c0,5.964-2.578,11.45-6.605,14.127Zm-8.507-1.535H821.9v-14.5l.368-.225c3.789-2.308,6.237-7.43,6.237-13.051,0-7.882-4.707-14.295-10.491-14.295s-10.493,6.413-10.493,14.295c0,6.009,2.8,11.413,6.977,13.45l.43.21Z" transform="translate(-805.99 -7943.46)" fill="#999"/>
        </g>
        <g id="Grupo_55390" data-name="Grupo 55390" transform="translate(0 18.182)">
          <rect id="Rectángulo_9588" data-name="Rectángulo 9588" width="26.406" height="4.404" rx="1.435" transform="translate(0.767 0.767)" fill="#fff"/>
          <path id="Trazado_106249" data-name="Trazado 106249" d="M829.989,7961.248h-22a2.97,2.97,0,0,1,0-5.939h22a2.97,2.97,0,0,1,0,5.939Zm-22-4.4a1.435,1.435,0,0,0,0,2.87h22a1.435,1.435,0,1,0,0-2.87Z" transform="translate(-805.018 -7955.308)" fill="#999"/>
        </g>
        <g id="Grupo_55391" data-name="Grupo 55391" transform="translate(0 9.775)">
          <rect id="Rectángulo_9589" data-name="Rectángulo 9589" width="26.406" height="4.404" rx="1.435" transform="translate(0.767 0.767)" fill="#fff"/>
          <path id="Trazado_106250" data-name="Trazado 106250" d="M829.989,7955.769h-22a2.97,2.97,0,1,1,0-5.939h22a2.97,2.97,0,1,1,0,5.939Zm-22-4.4a1.435,1.435,0,0,0,0,2.87h22a1.435,1.435,0,1,0,0-2.87Z" transform="translate(-805.018 -7949.83)" fill="#999"/>
        </g>
      </g>
      <g id="Grupo_55393" data-name="Grupo 55393" transform="translate(309.751 211.955)">
        <line id="Línea_203" data-name="Línea 203" x2="26.156" y2="108.896" transform="translate(0.746 0.179)" fill="#fff"/>
        <rect id="Rectángulo_9590" data-name="Rectángulo 9590" width="1.535" height="111.993" transform="translate(0 0.359) rotate(-13.506)" fill="#999"/>
      </g>
      <path id="Trazado_106251" data-name="Trazado 106251" d="M766.963,8188.738l-.35-1.453,1.493-.359.35,1.453Zm-1.424-5.931-1.076-4.477,1.493-.359,1.076,4.478Zm-2.15-8.953-1.076-4.477,1.492-.359,1.077,4.477Zm-2.15-8.954-1.077-4.476,1.493-.358,1.076,4.476Zm-2.152-8.952-1.076-4.477,1.493-.36,1.076,4.478Zm-2.15-8.953-1.076-4.478,1.492-.359,1.076,4.477Zm-2.152-8.954-1.074-4.477,1.493-.359,1.074,4.476Zm-2.15-8.954-1.074-4.478,1.493-.359,1.074,4.477Zm-2.15-8.953-1.076-4.476,1.493-.361,1.074,4.476Zm-2.152-8.952-1.074-4.477,1.493-.361,1.074,4.477Zm-2.15-8.954-1.074-4.477,1.492-.361,1.076,4.478Zm-2.15-8.953-1.076-4.478,1.493-.36,1.074,4.477Zm-2.152-8.953-1.074-4.478,1.493-.361,1.074,4.478Z" transform="translate(-429.288 -7867.528)" fill="#999"/>
      <path id="Trazado_106252" data-name="Trazado 106252" d="M764.63,8188.738l-.35-1.453,1.493-.359.35,1.453Zm-1.424-5.931-1.076-4.477,1.493-.359,1.076,4.478Zm-2.15-8.953-1.076-4.477,1.492-.359,1.077,4.477Zm-2.15-8.954-1.077-4.476,1.493-.358,1.076,4.476Zm-2.152-8.952-1.076-4.477,1.493-.36,1.076,4.478ZM754.6,8147l-1.076-4.478,1.492-.359,1.076,4.477Zm-2.152-8.954-1.074-4.477,1.493-.359,1.074,4.476Zm-2.15-8.954-1.074-4.478,1.493-.359,1.074,4.477Zm-2.15-8.953-1.076-4.476,1.493-.361,1.074,4.476ZM746,8111.182l-1.074-4.477,1.493-.361,1.074,4.477Zm-2.15-8.954-1.074-4.477,1.492-.361,1.076,4.478Zm-2.15-8.953-1.076-4.478,1.493-.36,1.074,4.477Zm-2.152-8.953-1.074-4.478,1.493-.361,1.074,4.478Z" transform="translate(-430.535 -7867.528)" fill="#999"/>
      <ellipse id="Elipse_4305" data-name="Elipse 4305" cx="3.136" cy="5.472" rx="3.136" ry="5.472" transform="translate(297.991 165.438) rotate(-14.41)" fill="#999"/>
      <path id="Trazado_106253" data-name="Trazado 106253" d="M745.244,8108.4c-10.532,0-20.091-17.956-21.453-40.567-.668-11.05.68-21.567,3.791-29.618,3.186-8.245,7.868-12.964,13.189-13.283,5.358-.329,10.539,3.8,14.693,11.6,4.053,7.621,6.653,17.9,7.319,28.948h0c.668,11.051-.68,21.568-3.791,29.619-3.186,8.247-7.87,12.964-13.189,13.284C745.616,8108.4,745.428,8108.4,745.244,8108.4Zm-3.9-81.953c-.161,0-.322.007-.484.016-4.687.282-8.9,4.652-11.852,12.3-3.031,7.849-4.343,18.137-3.689,28.972,1.337,22.165,10.5,39.739,20.387,39.113,4.687-.283,8.9-4.653,11.853-12.3,3.031-7.851,4.343-18.141,3.689-28.974h0c-.652-10.834-3.189-20.892-7.142-28.319C750.386,8030.267,745.873,8026.452,741.347,8026.452Z" transform="translate(-438.476 -7896.705)" fill="#999"/>
      <path id="Trazado_106254" data-name="Trazado 106254" d="M817.889,8219.487l-1.535-.054,1.268-36.832c.006-.172.557-17.638,2.34-34.683,1.742-16.653-3.864-24.328-3.92-24.4l-17.95-34.213c-.13-.337-8.941-24.614-17.118-45.45-8.034-20.475-21.567-25.665-21.7-25.713l.528-1.444c.58.212,14.3,5.434,22.6,26.6,8.181,20.853,17,45.149,17.087,45.392l17.841,34.012c.18.219,5.967,8.065,4.154,25.383-1.777,16.99-2.327,34.4-2.331,34.574Z" transform="translate(-419.414 -7901.1)" fill="#999"/>
      <path id="Trazado_106255" data-name="Trazado 106255" d="M828.434,8239.438l-1.495-.351c.02-.08,1.891-8.315,4.288-37.487,2.3-27.969,1.079-62.583,1.065-62.929l-5.364-34.61c-.06-.322-6.4-34.715-8.513-58.234-2.118-23.572,3.553-60.8,3.61-61.173l1.516.234c-.057.372-5.7,37.415-3.6,60.8,2.109,23.446,8.435,57.769,8.5,58.114l5.376,34.721c.021.438,1.246,35.143-1.062,63.2C830.345,8231.072,828.511,8239.109,828.434,8239.438Z" transform="translate(-388.044 -7918.232)" fill="#999"/>
      <path id="Trazado_106256" data-name="Trazado 106256" d="M872.324,8127.022c-.077-.229-7.914-23.187-11.344-33.48-3.364-10.091-4.977-19.362-7.508-43.133-2.333-21.9-11.644-27.231-11.737-27.281l.737-1.346c.411.226,10.109,5.773,12.526,28.465,2.517,23.641,4.116,32.843,7.439,42.81,3.429,10.29,11.263,33.241,11.343,33.473Z" transform="translate(-375.323 -7898.38)" fill="#999"/>
      <path id="Trazado_106257" data-name="Trazado 106257" d="M841.366,7983.406a119.053,119.053,0,0,1-13.065-1.153l-1.2-.145c-11.828-1.4-29.75-11.376-30.507-11.8l.749-1.339c.184.1,18.415,10.248,29.937,11.617l1.2.143c10.839,1.287,14.894,1.769,21.312-.118l.434,1.472A29.561,29.561,0,0,1,841.366,7983.406Z" transform="translate(-399.458 -7926.619)" fill="#999"/>
      <path id="Trazado_106258" data-name="Trazado 106258" d="M836.305,7990.2a43.437,43.437,0,0,1-10.281-1.1c-12.182-.913-29.5-11.386-30.23-11.83l.8-1.31c.176.106,17.736,10.725,29.687,11.634a48.936,48.936,0,0,0,20.335.014l.315,1.5A51.991,51.991,0,0,1,836.305,7990.2Z" transform="translate(-399.887 -7922.883)" fill="#999"/>
      <path id="Trazado_106259" data-name="Trazado 106259" d="M833.644,8039.052h-.072c-30.048-.8-53.206-30.827-53.438-31.132l1.223-.928c.226.3,22.951,29.743,52.256,30.525a23.9,23.9,0,0,0,21.892-14.942l1.413.592C850.417,8038.734,834.84,8039.052,833.644,8039.052Z" transform="translate(-408.26 -7906.288)" fill="#999"/>
      <path id="Trazado_106260" data-name="Trazado 106260" d="M798.373,8094.829l4.813-7.573-1.159-3.415s-.531-1.45.833-1.483l5.711,2.705s2.453,1.323.327,2.5l-3.912,1.215-4.853,6.9-1.792,1.144Z" transform="translate(-398.525 -7865.992)" fill="#999"/>
      <path id="Trazado_106261" data-name="Trazado 106261" d="M782.07,8010.3l-6.137-6.545-3.6.272s-1.535.153-1.228-1.177l4.041-4.858s1.892-2.046,2.506.307l.2,4.091,5.477,6.418.66,2.021Z" transform="translate(-413.108 -7911.544)" fill="#999"/>
      <path id="Trazado_106262" data-name="Trazado 106262" d="M863.252,8100.016l8.315-3.375,1.037-3.454s.408-1.487,1.539-.723l3.082,5.516s1.229,2.5-1.188,2.229l-3.89-1.28-7.957,2.8-2.122-.108Z" transform="translate(-364.452 -7860.706)" fill="#999"/>
      <path id="Trazado_106263" data-name="Trazado 106263" d="M761.767,8103.767l-8.313-3.375-1.039-3.454s-.408-1.487-1.538-.723l-3.082,5.517s-1.229,2.5,1.186,2.229l3.892-1.28,7.956,2.8,2.124-.11Z" transform="translate(-425.719 -7858.698)" fill="#999"/>
      <path id="Trazado_106264" data-name="Trazado 106264" d="M756.565,8119.642l-4.661-15.277,40.557-13.868,13.812-3.2c16.278-2.8,45.4,2.954,46.633,3.2l68.578,7.363.2.25c6.093,7.655-1.12,15.025-1.194,15.1l-.261.261-.365-.04c-.6-.065-59.933-6.645-83.292-9.812-23.131-3.135-37.523,2.011-37.666,2.063Zm-2.761-14.306,3.771,12.357,40.827-13.466c.121-.047,14.833-5.327,38.376-2.132,22.357,3.029,77.712,9.19,82.872,9.762,1.123-1.263,5.407-6.74,1.027-12.546l-68-7.3c-.367-.07-30.146-5.963-46.1-3.208l-13.733,3.185Z" transform="translate(-423.355 -7863.763)" fill="#999"/>
      <g id="Grupo_55394" data-name="Grupo 55394" transform="translate(355.371 78.05)" opacity="0.63">
        <path id="Trazado_106265" data-name="Trazado 106265" d="M784.025,8040.373l10.276,8.941,7.873-9.609-2.8,12.41,11.077,9.477,5.872-12.812,3.6,20.419,60.536,26.156s1.252-14.679-7.423-34.431-21.087-43.771-21.286-45.106-5.27-4.536-5.27-4.536l-2.078-1.736-13.937,43.906s-13.732-25.489-19.211-34.564-22.826-25.355-22.826-25.355l-1.068-.8s.869,17.011-4.8,22.353a29.93,29.93,0,0,1-12.678,6.873l9.742,11.478,13.745-3.2Z" transform="translate(-769.114 -7991.963)" fill="#999"/>
        <path id="Trazado_106266" data-name="Trazado 106266" d="M880.728,8096.389a.748.748,0,0,1-.3-.062l-60.537-26.157a.769.769,0,0,1-.451-.57l-3.175-17.993-4.847,10.572a.765.765,0,0,1-1.2.264l-11.077-9.475a.766.766,0,0,1-.249-.753l2.087-9.243-5.816,7.1a.762.762,0,0,1-.529.277.8.8,0,0,1-.568-.187l-10.276-8.941a.762.762,0,0,1-.262-.535.772.772,0,0,1,.2-.563l7.654-8.309-11.318,2.639a.761.761,0,0,1-.758-.252l-9.742-11.478a.766.766,0,0,1,.42-1.244,29.469,29.469,0,0,0,12.316-6.685c5.351-5.039,4.572-21.589,4.564-21.754a.767.767,0,0,1,1.226-.653l1.068.8c.776.724,17.552,16.512,23.022,25.573,4.633,7.674,15.272,27.279,18.37,33l13.389-42.181a.768.768,0,0,1,.516-.5.76.76,0,0,1,.707.147l2.08,1.732c1.532.962,5.31,3.5,5.536,5.015.146.59,2.446,5.293,5.107,10.739,4.362,8.917,10.95,22.393,16.123,34.172,8.654,19.7,7.537,34.2,7.485,34.8a.762.762,0,0,1-.37.593A.743.743,0,0,1,880.728,8096.389Zm-59.853-27.465,59.133,25.552c.081-3.722-.242-16.664-7.406-32.975-5.16-11.751-11.74-25.211-16.1-34.116-3.89-7.958-5.157-10.58-5.246-11.186-.153-.578-2.408-2.415-4.922-4l-1.282-1.063-13.593,42.817a.77.77,0,0,1-.658.533.809.809,0,0,1-.749-.4c-.135-.256-13.786-25.576-19.191-34.531-4.988-8.267-20.2-22.83-22.423-24.937.061,4.487-.239,16.726-5.091,21.3a30.711,30.711,0,0,1-11.836,6.741l8.656,10.2,13.289-3.1a.768.768,0,0,1,.738,1.268l-8.808,9.56,9.085,7.907,7.373-9a.767.767,0,0,1,1.341.656l-2.7,11.96,9.953,8.513,5.45-11.887a.757.757,0,0,1,.793-.441.768.768,0,0,1,.658.628Z" transform="translate(-769.381 -7992.231)" fill="#4d4d4d"/>
      </g>
      <g id="Grupo_55395" data-name="Grupo 55395" transform="translate(358.906 38.319)" opacity="0.36">
        <path id="Trazado_106267" data-name="Trazado 106267" d="M794,7967.071l-8.409,7.706s-4.1,2.987-8.706,2.5l-4.705.508s8.464,25.179,18.045,32.5,21.172,24.771,21.172,24.771l15.367,27.68,2.466,4.557,9.646-30.386,4.165-13.123L820.327,8005.9l-14.182-13.312,2.172-15.915s-4.1-7.606-7.508-9.007A12.36,12.36,0,0,0,794,7967.071Z" transform="translate(-771.417 -7966.074)" fill="#999"/>
        <path id="Trazado_106268" data-name="Trazado 106268" d="M829.5,8068.328a.77.77,0,0,1-.675-.4l-2.465-4.558L811,8035.7c-.083-.121-11.6-17.368-20.968-24.533-9.655-7.388-17.957-31.838-18.306-32.873a.77.77,0,0,1,.644-1.009l4.705-.508a.769.769,0,0,1,.164,0c4.207.446,8.135-2.324,8.174-2.352l8.341-7.65a.747.747,0,0,1,.342-.181,13.043,13.043,0,0,1,7.274.637c3.614,1.487,7.716,9.031,7.89,9.353a.763.763,0,0,1,.084.468l-2.118,15.521,13.893,13.043,22.667,17.837a.764.764,0,0,1,.256.834l-13.811,43.508a.77.77,0,0,1-.658.533Zm-56.007-89.621c1.614,4.545,9.2,24.914,17.468,31.238,9.572,7.322,20.87,24.238,21.346,24.957l17.009,30.7,13.1-41.279-22.3-17.553-14.233-13.354a.758.758,0,0,1-.235-.662l2.136-15.664c-1.217-2.2-4.509-7.418-7-8.445a11.61,11.61,0,0,0-6.153-.6l-8.251,7.562c-.241.183-4.4,3.181-9.225,2.7Z" transform="translate(-771.684 -7966.342)" fill="#4d4d4d"/>
      </g>
    </g>
  </g>
</svg>
