<svg xmlns="http://www.w3.org/2000/svg" width="126.969" height="373.573" viewBox="0 0 126.969 373.573">
  <g id="Grupo_57737" data-name="Grupo 57737" transform="translate(-192.819 -3833.726)">
    <g id="Grupo_57748" data-name="Grupo 57748" transform="translate(192.819 3833.726)">
      <g id="Grupo_57747" data-name="Grupo 57747">
        <g id="Grupo_57744" data-name="Grupo 57744">
          <g id="Grupo_57743" data-name="Grupo 57743">
            <g id="Grupo_57738" data-name="Grupo 57738" transform="translate(0 4.91)">
              <path id="Trazado_117895" data-name="Trazado 117895" d="M275.745,3838.537s.04,23.06,11.29,30.708c0,0,25.5,6.812,31.721,9.321,0,0-2.156,25.452-7.541,39.313l-15.441,54.369s-2.633,8.006,0,19.118l8.858,33.816s3.948,17.087,3.232,32.263l-5.148,57.953s-.479,18.282-23.459,22.585c0,0-32.437,3.7-49.675-.837,0,0-12.807-1.553-19.389-16.849l-4.908-50.384v-26.448s2.076-20.075,6.862-33.776,7.661-23.579,4.948-36.326l-23.621-90.813s-1.3-3.625,1.756-4.879,26.333-6.751,29.326-8.425,8.02-3.346,11.968-27.482l-.12-4.939Z" transform="translate(-192.507 -3836.112)" fill="#fff"/>
              <path id="Trazado_117896" data-name="Trazado 117896" d="M253.5,4140.389c-8.394,0-17.2-.537-23.775-2.268h0c-.051,0-13.184-1.769-19.843-17.236l-.051-.2-4.908-50.386,0-26.513c.025-.272,2.141-20.382,6.9-34,4.721-13.512,7.617-23.314,4.924-35.959l-23.612-90.782c-.508-1.408-.735-4.494,2.156-5.681,1.312-.541,6.033-1.782,11.5-3.221,7.165-1.887,16.082-4.233,17.753-5.167l.43-.235c2.8-1.517,7.483-4.058,11.2-26.764l-.145-5.54,40.717,1.771,0,.65c0,.227.171,22.663,10.9,30.085,2.083.558,25.64,6.881,31.686,9.316l.466.188-.044.5c-.02.257-2.225,25.709-7.584,39.5l-15.419,54.307c-.034.1-2.546,8,.007,18.774l8.853,33.8c.045.188,3.968,17.373,3.253,32.468l-5.15,57.981c0,.146-.758,18.838-24.011,23.191C279.462,4139,267.02,4140.389,253.5,4140.389Zm-42.326-19.944c6.352,14.637,18.684,16.328,18.807,16.345,17,4.473,49.19.873,49.513.834,22.137-4.146,22.851-21.748,22.857-21.924l5.149-58c.7-14.875-3.177-31.882-3.217-32.05l-8.853-33.8c-2.651-11.187-.1-19.168.013-19.5l15.432-54.343c4.892-12.6,7.133-35.032,7.472-38.677-6.835-2.6-30.924-9.045-31.171-9.111l-.209-.094c-10.48-7.125-11.482-26.718-11.578-30.621l-37.971-1.653.1,4.211c-3.83,23.49-8.69,26.123-11.9,27.865l-.414.227c-1.822,1.02-10.081,3.193-18.07,5.3-5.193,1.366-10.1,2.658-11.328,3.164-2.408.989-1.417,3.9-1.374,4.023l23.637,90.867c2.773,13.022-.167,22.993-4.964,36.723-4.7,13.467-6.808,33.422-6.828,33.621l0,26.378Z" transform="translate(-192.819 -3836.432)" fill="#999"/>
            </g>
            <g id="Grupo_57739" data-name="Grupo 57739" transform="translate(43.695)">
              <ellipse id="Elipse_4481" data-name="Elipse 4481" cx="19.43" cy="4.939" rx="19.43" ry="4.939" transform="translate(0.681 0.682)" fill="#fff"/>
              <path id="Trazado_117897" data-name="Trazado 117897" d="M237.012,3844.967c-9.994,0-20.112-1.931-20.112-5.62s10.117-5.621,20.112-5.621,20.112,1.933,20.112,5.621S247.006,3844.967,237.012,3844.967Zm0-9.88c-11.618,0-18.751,2.482-18.751,4.26s7.133,4.259,18.751,4.259,18.751-2.48,18.751-4.259S248.628,3835.087,237.012,3835.087Z" transform="translate(-216.9 -3833.726)" fill="#999"/>
            </g>
            <path id="Trazado_117898" data-name="Trazado 117898" d="M238.106,3845.245a58.111,58.111,0,0,1-21.556-4.01l.559-1.241c.185.083,18.762,8.239,39.385.7l.468,1.279A54.784,54.784,0,0,1,238.106,3845.245Z" transform="translate(-173.49 -3828.621)" fill="#999"/>
            <rect id="Rectángulo_15235" data-name="Rectángulo 15235" width="1.361" height="4.301" transform="translate(63.127 11.038)" fill="#999"/>
            <path id="Trazado_117899" data-name="Trazado 117899" d="M242.219,3868.67c-.477,0-.96-.009-1.452-.025-21.177-.721-28.217-13.558-28.507-14.1l1.2-.639c.067.125,7,12.688,27.351,13.38,20.284.664,26.658-13.777,26.72-13.924l1.254.53C268.725,3854.041,262.321,3868.67,242.219,3868.67Z" transform="translate(-176.984 -3817.734)" fill="#999"/>
            <g id="Grupo_57740" data-name="Grupo 57740" transform="translate(117.357 46.665)">
              <path id="Trazado_117900" data-name="Trazado 117900" d="M264.653,3859.609a71.29,71.29,0,0,0-6.066,23.5s-.715,5.1-.715,18.563" transform="translate(-257.192 -3859.31)" fill="#fff"/>
              <path id="Trazado_117901" data-name="Trazado 117901" d="M258.858,3901.808H257.5c0-13.36.693-18.449.722-18.658a72.527,72.527,0,0,1,6.128-23.706l1.223.6a71.214,71.214,0,0,0-6,23.25C259.56,3883.388,258.858,3888.568,258.858,3901.808Z" transform="translate(-257.497 -3859.444)" fill="#999"/>
            </g>
            <g id="Grupo_57741" data-name="Grupo 57741" transform="translate(3.176 45.808)">
              <path id="Trazado_117902" data-name="Trazado 117902" d="M194.908,3859.132A77.58,77.58,0,0,1,201.2,3883.5s.715,5.1.715,18.563" transform="translate(-194.293 -3858.842)" fill="#fff"/>
              <path id="Trazado_117903" data-name="Trazado 117903" d="M202.868,3902.193h-1.361c0-13.24-.7-18.42-.709-18.471a77.555,77.555,0,0,0-6.229-24.169l1.23-.581a78.99,78.99,0,0,1,6.352,24.606C202.175,3883.743,202.868,3888.833,202.868,3902.193Z" transform="translate(-194.569 -3858.972)" fill="#999"/>
            </g>
            <rect id="Rectángulo_15236" data-name="Rectángulo 15236" width="11.012" height="65.372" transform="translate(58.021 308.202)" fill="#999"/>
            <g id="Grupo_57742" data-name="Grupo 57742" transform="translate(63.127 50.23)">
              <line id="Línea_283" data-name="Línea 283" y2="257.971" transform="translate(0.68 0.001)" fill="#fff"/>
              <rect id="Rectángulo_15237" data-name="Rectángulo 15237" width="1.361" height="257.972" fill="#999"/>
            </g>
          </g>
        </g>
        <g id="Grupo_57745" data-name="Grupo 57745" transform="translate(84.9 42.932)">
          <path id="Trazado_117904" data-name="Trazado 117904" d="M261.064,3857.465l-20.355,95.722a28.66,28.66,0,0,0,.947,16.095s8.363,46.307,7.1,69.975-2.524,80.626-2.524,80.626" transform="translate(-239.297 -3857.323)" fill="#fff"/>
          <path id="Trazado_117905" data-name="Trazado 117905" d="M247.224,4119.961l-1.361-.029c.013-.571,1.277-57.241,2.526-80.646,1.243-23.322-7.008-69.358-7.091-69.821a28.877,28.877,0,0,1-.929-16.407l20.34-95.672,1.33.283-20.353,95.725a28.273,28.273,0,0,0,.924,15.728c.111.566,8.388,46.759,7.138,70.235C248.5,4062.742,247.237,4119.391,247.224,4119.961Z" transform="translate(-239.609 -3857.387)" fill="#999"/>
        </g>
        <g id="Grupo_57746" data-name="Grupo 57746" transform="translate(19.583 42.932)">
          <path id="Trazado_117906" data-name="Trazado 117906" d="M203.978,3857.465l20.353,95.722a28.649,28.649,0,0,1-.945,16.095s-8.363,46.307-7.1,69.975,2.524,80.626,2.524,80.626" transform="translate(-203.312 -3857.323)" fill="#fff"/>
          <path id="Trazado_117907" data-name="Trazado 117907" d="M218.428,4119.961c-.013-.57-1.277-57.219-2.524-80.6-1.252-23.476,7.027-69.668,7.109-70.133a28.447,28.447,0,0,0,.964-15.78l-20.366-95.773,1.33-.283,20.355,95.723a29.073,29.073,0,0,1-.969,16.459c-.056.359-8.308,46.4-7.064,69.718,1.248,23.4,2.513,80.075,2.526,80.646Z" transform="translate(-203.611 -3857.387)" fill="#999"/>
        </g>
      </g>
      <path id="Trazado_117908" data-name="Trazado 117908" d="M248.343,3958.765a358.767,358.767,0,0,1-48.534-3.313l.185-1.347c59.223,8.09,101.641-1.243,102.064-1.339l.3,1.33C302.062,3954.161,281.172,3958.765,248.343,3958.765Z" transform="translate(-187.125 -3736.771)" fill="#999"/>
      <path id="Trazado_117909" data-name="Trazado 117909" d="M246.147,3923.361a233.1,233.1,0,0,1-39.055-3.4l.259-1.337c.445.085,44.934,8.486,76.582-1.521l.412,1.3C272.409,3922.172,258.685,3923.361,246.147,3923.361Z" transform="translate(-181.193 -3765.819)" fill="#999"/>
      <path id="Trazado_117910" data-name="Trazado 117910" d="M247.729,3941.18a326.841,326.841,0,0,1-44.567-3.227l.187-1.346c59.736,8.225,90.58-1.905,90.885-2.008l.437,1.288C294.452,3935.961,278.568,3941.18,247.729,3941.18Z" transform="translate(-184.394 -3751.568)" fill="#999"/>
      <path id="Trazado_117911" data-name="Trazado 117911" d="M304.042,3891.77a105.245,105.245,0,0,0-52.8-12.68c-30.109.931-51.858,10.571-52.074,10.669l-.559-1.241c.218-.1,22.2-9.851,52.589-10.789a107.317,107.317,0,0,1,53.547,12.877Z" transform="translate(-188.098 -3797.922)" fill="#999"/>
    </g>
    <path id="Trazado_117912" data-name="Trazado 117912" d="M289.174,3891.742c-.154-.073-15.766-7.336-41.6-6.272-.376,0-27.457-.276-42,4.161l-1.06-3.469c15.086-4.6,41.876-4.342,43-4.319,26.707-1.1,42.555,6.309,43.215,6.625Z" transform="translate(9.529 39.098)" fill="red"/>
  </g>
</svg>
