<svg xmlns="http://www.w3.org/2000/svg" width="812" height="301.989" viewBox="0 0 812 301.989">
  <g id="Grupo_55375" data-name="Grupo 55375" transform="translate(-273.854 -7943.478)">
    <rect id="Rectángulo_9565" data-name="Rectángulo 9565" width="812" height="301.989" rx="18.783" transform="translate(273.854 7943.478)" fill="#fff"/>
    <g id="Grupo_55374" data-name="Grupo 55374" transform="translate(315.938 7961.01)">
      <g id="Grupo_55350" data-name="Grupo 55350" transform="translate(545.305 39.776)">
        <path id="Trazado_106150" data-name="Trazado 106150" d="M893.814,8059.349,867.147,8050l-20.548-7.1s-17.086-3.925-16.393-24.012l-1.155-31.63-21.644,4.343-21.646-4.343.115,31.571c.693,20.088-17.662,24.07-17.662,24.07l-20.548,7.1-25.8,6.927c-2.771,7.446-5.367,17.143-5.022,35.323s4.5,29.265,4.5,29.265v22.511l15.238,67.784H878.23l15.238-67.784v-22.511s4.155-11.082,4.5-29.265S896.585,8066.795,893.814,8059.349Z" transform="translate(-716.15 -7986.447)" fill="#fff"/>
        <path id="Trazado_106151" data-name="Trazado 106151" d="M878.925,8212.672H736.217l-15.369-68.45v-22.4c-.442-1.243-4.176-12.265-4.5-29.364-.349-18.414,2.364-28.315,5.065-35.571l.12-.319,26.13-7.016,20.5-7.085c.8-.181,17.882-4.139,17.216-23.419l-.118-32.406,22.312,4.477,22.279-4.47,1.184,32.409c-.667,19.331,15.2,23.232,15.878,23.389l20.616,7.119,26.964,9.455.109.29c2.978,8.009,4.53,15.66,4.2,33.147-.327,17.1-4.062,28.121-4.5,29.364l-.015,22.543Zm-141.644-1.328H877.861l15.1-67.194.042-22.672c.041-.109,4.121-11.2,4.462-29.042.324-17.061-1.156-24.617-4.008-32.365l-26.37-9.247-20.547-7.1c-.109-.021-17.542-4.265-16.839-24.661l-1.127-30.8-21.009,4.217-20.979-4.21.113,30.76c.7,20.383-18,24.68-18.185,24.72l-20.472,7.079-25.514,6.851c-2.617,7.109-5.2,16.839-4.862,34.76.341,17.84,4.419,28.933,4.461,29.042l.042.233v22.438Z" transform="translate(-716.314 -7986.646)" fill="#999"/>
      </g>
      <g id="Grupo_55351" data-name="Grupo 55351" transform="translate(614.252 30.571)">
        <ellipse id="Elipse_4303" data-name="Elipse 4303" cx="21.645" cy="9.351" rx="21.645" ry="9.351" transform="translate(0.664 0.664)" fill="#fff"/>
        <path id="Trazado_106152" data-name="Trazado 106152" d="M790.56,7999.741c-12.509,0-22.31-4.4-22.31-10.016s9.8-10.014,22.31-10.014,22.308,4.4,22.308,10.014S803.069,7999.741,790.56,7999.741Zm0-18.7c-11.373,0-20.982,3.979-20.982,8.687s9.609,8.687,20.982,8.687,20.981-3.978,20.981-8.687S801.931,7981.039,790.56,7981.039Z" transform="translate(-768.25 -7979.712)" fill="#999"/>
      </g>
      <path id="Trazado_106153" data-name="Trazado 106153" d="M788.716,8004.334c-15.406,0-20.118-5.784-20.322-6.048l1.045-.816-.523.407.522-.409c.05.062,5.232,6.293,22.428,5.461,17.076-.829,20.074-7.153,20.1-7.217l1.221.521c-.123.291-3.213,7.145-21.259,8.02Q790.252,8004.337,788.716,8004.334Z" transform="translate(-153.95 -7943.901)" fill="#999"/>
      <rect id="Rectángulo_9566" data-name="Rectángulo 9566" width="167.002" height="1.328" transform="translate(552.682 206.388)" fill="#999"/>
      <rect id="Rectángulo_9567" data-name="Rectángulo 9567" width="171.659" height="1.328" transform="translate(550.502 196.689)" fill="#999"/>
      <rect id="Rectángulo_9568" data-name="Rectángulo 9568" width="1.328" height="57.025" transform="translate(635.905 207.051)" fill="#999"/>
      <path id="Trazado_106154" data-name="Trazado 106154" d="M826,8129.042l-1.328-.014.643-63.03c1.693-27.272.591-32.467.543-32.674l1.29-.311c.05.206,1.212,5.372-.507,33.032Z" transform="translate(-135.518 -7931.682)" fill="#999"/>
      <rect id="Rectángulo_9569" data-name="Rectángulo 9569" width="58.877" height="1.327" transform="translate(679.521 265.025) rotate(-80.556)" fill="#999"/>
      <rect id="Rectángulo_9570" data-name="Rectángulo 9570" width="1.327" height="57.789" transform="translate(583.599 207.159) rotate(-9.327)" fill="#999"/>
      <g id="Grupo_55352" data-name="Grupo 55352" transform="translate(401.873 42.403)" opacity="0.36">
        <path id="Trazado_106155" data-name="Trazado 106155" d="M609.811,7989.125s4.329,7.1,14.545,8.4,43.377-.346,43.377-.346,10.563-1.559,9.091,5.107-7.186,25.2-7.1,39.136-.692,24.067-.692,24.067l-60.26-16.882Z" transform="translate(-608.108 -7988.462)" fill="#999"/>
        <path id="Trazado_106156" data-name="Trazado 106156" d="M669.195,8066.316a.657.657,0,0,1-.178-.024l-60.26-16.882a.664.664,0,0,1-.485-.651l1.039-59.479a.664.664,0,0,1,1.231-.335,19.961,19.961,0,0,0,14.063,8.086c10.042,1.275,42.928-.334,43.26-.351.2-.033,6.372-.909,8.881,1.783a4.354,4.354,0,0,1,.891,4.131c-.3,1.374-.791,3.269-1.357,5.46-2.167,8.425-5.8,22.525-5.728,33.526.085,13.809-.686,24.022-.7,24.123a.66.66,0,0,1-.661.613Zm-59.586-18.046,58.98,16.523c.178-2.667.706-11.675.635-23.206-.069-11.173,3.587-25.377,5.772-33.863.56-2.181,1.046-4.063,1.343-5.417a3.075,3.075,0,0,0-.565-2.941c-1.69-1.814-6.192-1.6-7.781-1.366-1.419.073-33.4,1.639-43.557.348a21.677,21.677,0,0,1-13.83-7.132Z" transform="translate(-608.272 -7988.625)" fill="#4d4d4d"/>
      </g>
      <g id="Grupo_55353" data-name="Grupo 55353" transform="translate(462.12 61.782)" opacity="0.36">
        <path id="Trazado_106157" data-name="Trazado 106157" d="M654.426,8069.021s14.286,1.3,16.017,0-1.731-19.31,1.646-32.208,3.548-31.343,3.548-31.343a2.274,2.274,0,0,0-2.336-1.3c-1.819.087-9.507,2.216-12.892-.448,0,0-5.953,22.272-5.492,30.062S653.474,8059.968,654.426,8069.021Z" transform="translate(-653.49 -8003.06)" fill="#999"/>
        <path id="Trazado_106158" data-name="Trazado 106158" d="M665.414,8070.431c-3.96,0-8.836-.4-10.883-.587a.663.663,0,0,1-.6-.592c-.543-5.15-.178-13.076.175-20.738.263-5.741.513-11.163.313-14.527-.462-7.807,5.269-29.358,5.512-30.273a.663.663,0,0,1,1.053-.349c2.459,1.936,7.748,1.046,10.589.569.809-.136,1.447-.242,1.861-.262.068,0,.134,0,.2,0a2.9,2.9,0,0,1,2.79,1.733.637.637,0,0,1,.042.239c0,.186-.212,18.673-3.571,31.5-1.991,7.611-1.577,16.941-1.272,23.751.256,5.752.323,8.114-.617,8.819C670.287,8070.252,668.053,8070.431,665.414,8070.431Zm-10.216-1.86c6.751.587,14.079.778,15.011.081.406-.53.236-4.338.088-7.7-.308-6.895-.729-16.339,1.314-24.146,3.157-12.062,3.5-29.248,3.525-31.029a1.65,1.65,0,0,0-1.64-.781c-.334.018-.97.124-1.7.248-2.972.5-7.773,1.3-10.808-.308-1.089,4.2-5.637,22.247-5.24,28.972.2,3.433-.047,8.891-.312,14.667C655.108,8055.582,654.745,8063.487,655.2,8068.571Z" transform="translate(-653.654 -8003.223)" fill="#4d4d4d"/>
      </g>
      <g id="Grupo_55354" data-name="Grupo 55354" transform="translate(462.86 114.379)">
        <path id="Trazado_106159" data-name="Trazado 106159" d="M669.424,8045.652s-11.995-.116-14.713-2.31" transform="translate(-654.048 -8042.677)" fill="#999"/>
        <path id="Trazado_106160" data-name="Trazado 106160" d="M669.588,8046.48h-.007c-1.251-.012-12.306-.184-15.124-2.458a.663.663,0,1,1,.835-1.031c2.082,1.68,11.029,2.129,14.3,2.162a.664.664,0,0,1-.007,1.327Z" transform="translate(-654.211 -8042.843)" fill="#4d4d4d"/>
      </g>
      <g id="Grupo_55355" data-name="Grupo 55355" transform="translate(464.209 118.767)">
        <path id="Trazado_106161" data-name="Trazado 106161" d="M669.091,8048.37s-9.967-.5-13.363-1.722" transform="translate(-655.063 -8045.985)" fill="#999"/>
        <path id="Trazado_106162" data-name="Trazado 106162" d="M669.255,8049.2h-.032c-.413-.021-10.105-.516-13.557-1.76a.665.665,0,0,1,.451-1.251c3.264,1.179,13.071,1.68,13.171,1.686a.664.664,0,0,1-.033,1.326Z" transform="translate(-655.227 -8046.148)" fill="#4d4d4d"/>
      </g>
      <g id="Grupo_55359" data-name="Grupo 55359" transform="translate(75.995 14.482)">
        <g id="Grupo_55356" data-name="Grupo 55356" transform="translate(1.29)">
          <path id="Trazado_106163" data-name="Trazado 106163" d="M383.751,7981.124c0-7.2-4.361-13.031-9.74-13.031s-9.74,5.833-9.74,13.031c0,5.627,2.672,10.407,6.407,12.23v12.458h7.36v-12.834C381.406,7990.927,383.751,7986.4,383.751,7981.124Z" transform="translate(-363.607 -7967.429)" fill="#fff"/>
          <path id="Trazado_106164" data-name="Trazado 106164" d="M378.865,8006.639h-8.687V7993.92c-3.849-2.105-6.407-7.115-6.407-12.633,0-7.55,4.666-13.693,10.4-13.693s10.4,6.144,10.4,13.693c0,5.158-2.232,9.906-5.714,12.22Zm-7.36-1.327h6.032V7992.77l.319-.192c3.278-2,5.4-6.429,5.4-11.29,0-6.818-4.073-12.366-9.076-12.366s-9.077,5.548-9.077,12.366c0,5.2,2.425,9.873,6.035,11.633l.372.183Z" transform="translate(-363.771 -7967.594)" fill="#999"/>
        </g>
        <g id="Grupo_55357" data-name="Grupo 55357" transform="translate(0 15.729)">
          <rect id="Rectángulo_9571" data-name="Rectángulo 9571" width="22.842" height="3.809" rx="1.435" transform="translate(0.664 0.663)" fill="#fff"/>
          <path id="Trazado_106165" data-name="Trazado 106165" d="M384.4,7984.579H365.369a2.569,2.569,0,1,1,0-5.138H384.4a2.569,2.569,0,0,1,0,5.138Zm-19.032-3.81a1.24,1.24,0,1,0,0,2.48H384.4a1.24,1.24,0,1,0,0-2.48Z" transform="translate(-362.799 -7979.441)" fill="#999"/>
        </g>
        <g id="Grupo_55358" data-name="Grupo 55358" transform="translate(0 8.455)">
          <rect id="Rectángulo_9572" data-name="Rectángulo 9572" width="22.842" height="3.809" rx="1.435" transform="translate(0.664 0.664)" fill="#fff"/>
          <path id="Trazado_106166" data-name="Trazado 106166" d="M384.4,7979.1H365.369a2.569,2.569,0,1,1,0-5.139H384.4a2.569,2.569,0,0,1,0,5.139Zm-19.032-3.81a1.241,1.241,0,1,0,0,2.482H384.4a1.241,1.241,0,1,0,0-2.482Z" transform="translate(-362.799 -7973.962)" fill="#999"/>
        </g>
      </g>
      <g id="Grupo_55360" data-name="Grupo 55360" transform="translate(0 45.11)">
        <path id="Trazado_106167" data-name="Trazado 106167" d="M485.332,8076.767l-.692-13.853-53.507-15.757s-10.216-.521-12.467-18.874c0,0-2.165-17.921-1.645-29.178,0,0-5.508-6.877-21.125-7.826v-.054c-.24,0-.461.021-.7.027-.692-.033-1.371-.075-2.1-.084v.162c-15.859.879-23.434,7.168-23.434,7.168.519,11.256-1.3,30.5-1.3,30.5-2.251,18.355-14.113,20.318-14.113,20.318l-44.164,13.592-.693,13.853s-3.81,4.676-3.29,23.724,5.723,28.917,5.723,28.917l.866,22.337,11.592,59.568H470.44l14.545-63.723v-21.125s3.117-6.928,3.637-25.974S485.332,8076.767,485.332,8076.767Z" transform="translate(-305.39 -7990.499)" fill="#fff"/>
        <path id="Trazado_106168" data-name="Trazado 106168" d="M471.133,8212.144H323.9l-11.7-60.105-.871-22.292c-.654-1.3-5.24-11.064-5.731-29.071-.469-17.253,2.593-22.9,3.3-23.967l.708-14.125,44.607-13.729c.551-.1,11.493-2.164,13.651-19.764.015-.173,1.8-19.313,1.294-30.394l-.016-.331.255-.21c.312-.26,7.726-6.277,23.194-7.284v-.207l.672.007c.613.008,1.192.037,1.77.067l.357.019,1.329-.037v.105c15.258,1.1,20.751,7.745,20.981,8.031l.155.2-.012.25c-.511,11.069,1.62,28.89,1.64,29.068,2.149,17.51,11.453,18.269,11.847,18.291l.151.026,53.957,15.89.708,14.131c.708,1.065,3.77,6.714,3.3,23.967-.486,17.761-3.19,25.008-3.637,26.092L485.8,8147.9ZM325,8210.814H470.075l14.411-63.134.058-21.322c.031-.067,3.071-7.087,3.579-25.721.5-18.413-3.108-23.244-3.145-23.29l-.129-.167-.015-.215-.67-13.381-52.985-15.6c-1.09-.093-10.8-1.432-13.009-19.451-.021-.18-2.129-17.819-1.661-29.018-1-1.062-6.8-6.572-20.489-7.4l-.512-.03-.131.006-.4-.02c-.348-.017-.694-.034-1.049-.047v.107l-.627.035c-13.853.769-21.356,5.771-22.793,6.824.462,11.219-1.3,30.06-1.316,30.25-2.287,18.65-14.542,20.889-14.665,20.908l-43.634,13.437-.68,13.6-.138.168c-.032.043-3.643,4.874-3.141,23.287.508,18.642,5.6,28.529,5.647,28.627l.077.283.866,22.338Z" transform="translate(-305.554 -7990.664)" fill="#999"/>
      </g>
      <rect id="Rectángulo_9573" data-name="Rectángulo 9573" width="1.328" height="219.982" transform="translate(87.735 45.942)" fill="#999"/>
      <path id="Trazado_106169" data-name="Trazado 106169" d="M349.823,8194.928l-2.857-57.835c0-.339.239-30.394-18.315-97.829l1.281-.352c18.615,67.657,18.365,97.861,18.36,98.158l2.856,57.792Z" transform="translate(-297.989 -7929.751)" fill="#999"/>
      <path id="Trazado_106170" data-name="Trazado 106170" d="M402.61,8194.928l-1.325-.065,2.857-57.835c-.007-.254-.256-30.458,18.359-98.115l1.281.352c-18.554,67.436-18.319,97.49-18.314,97.785Z" transform="translate(-274.198 -7929.751)" fill="#999"/>
      <path id="Trazado_106171" data-name="Trazado 106171" d="M311.717,8108.613l-1.309-.221c.024-.143,2.4-14.427,1.723-25.417-.682-11.028-3.712-27.578-3.742-27.743l1.306-.24c.031.167,3.073,16.793,3.761,27.9C314.147,8094.037,311.741,8108.469,311.717,8108.613Z" transform="translate(-304.626 -7924.484)" fill="#999"/>
      <path id="Trazado_106172" data-name="Trazado 106172" d="M441.081,8105.708c-.035-.152-3.563-15.521-2.873-26.686.688-11.1,2.866-23.9,2.889-24.024l1.309.226c-.023.126-2.189,12.85-2.873,23.883-.678,10.972,2.806,26.149,2.842,26.3Z" transform="translate(-262.133 -7924.483)" fill="#999"/>
      <path id="Trazado_106173" data-name="Trazado 106173" d="M354.552,8006.918l-.936-.941c.361-.358,9.007-8.831,24.619-8.235.542-.056,15.434-1.384,23.374,6.617l-.941.937c-7.5-7.554-22.251-6.248-22.394-6.229C363.241,7998.512,354.637,8006.834,354.552,8006.918Z" transform="translate(-289.812 -7943.274)" fill="#999"/>
      <path id="Trazado_106174" data-name="Trazado 106174" d="M341.8,8039.439l-.39-1.268c9.313-2.866,12.689-4.853,16.265-6.956,1.724-1.013,3.51-2.062,6.012-3.237,7.663-3.6,18.079-3.7,18.518-3.7.419,0,10.2.1,17.862,3.7l2.013.948c5.939,2.81,7.733,3.658,20.265,7.516l-.392,1.268c-12.622-3.885-14.592-4.817-20.442-7.582l-2.01-.949c-7.393-3.474-17.2-3.573-17.3-3.573s-10.558.1-17.953,3.573a66.858,66.858,0,0,0-5.906,3.184C354.7,8034.5,351.261,8036.528,341.8,8039.439Z" transform="translate(-293.81 -7934.544)" fill="#999"/>
      <g id="Grupo_55361" data-name="Grupo 55361" transform="translate(87.417 34.598)" opacity="0.36">
        <path id="Trazado_106175" data-name="Trazado 106175" d="M521.944,7990.543l2.424,68.57s-34.631,14.2-81.384,1.732-51.544-11.291-70.1-8.589l-.981-64.138s25.367-12.121,77.662,1.73S521.944,7990.543,521.944,7990.543Z" transform="translate(-371.239 -7982.594)" fill="#999"/>
        <path id="Trazado_106176" data-name="Trazado 106176" d="M481.749,8066.749a150.307,150.307,0,0,1-38.773-5.109c-45.5-12.132-51.3-11.289-68.519-8.766l-1.314.191a.663.663,0,0,1-.759-.646l-.981-64.136a.665.665,0,0,1,.377-.61c.256-.123,26.186-12.067,78.118,1.688,51.313,13.593,71.648.91,71.847.778a.665.665,0,0,1,1.026.532l2.424,68.572a.665.665,0,0,1-.412.638C524.543,8059.979,507.6,8066.749,481.749,8066.749ZM390.4,8049.994c10.184,0,23.056,2.4,52.916,10.363,43.217,11.527,76.414,0,80.533-1.541l-2.37-67c-4.644,2.434-25.651,11.085-71.924-1.173-47.991-12.708-73.447-3.339-76.821-1.939l.962,62.938.567-.082A106.939,106.939,0,0,1,390.4,8049.994Z" transform="translate(-371.403 -7982.746)" fill="#4d4d4d"/>
      </g>
      <path id="Trazado_106177" data-name="Trazado 106177" d="M373.624,8015.978l-5.195-5.541-3.044.23s-1.3.131-1.039-1l3.42-4.112s1.6-1.732,2.121.26l.174,3.463,4.636,5.432.559,1.711Z" transform="translate(-286.309 -7940.905)" fill="#999"/>
      <path id="Trazado_106178" data-name="Trazado 106178" d="M374.6,8025.937l-5.195-5.541-3.045.23s-1.3.129-1.039-1l3.421-4.111s1.6-1.732,2.12.259l.174,3.463,4.636,5.433.559,1.711Z" transform="translate(-285.988 -7937.643)" fill="#999"/>
      <path id="Trazado_106179" data-name="Trazado 106179" d="M483.06,8044.983c-2.626,0-5.386-.114-8.281-.365a243.087,243.087,0,0,1-50.893-10.247,206.242,206.242,0,0,0-37.064-6.2.664.664,0,0,1,.1-1.325,207.557,207.557,0,0,1,37.363,6.261,241.63,241.63,0,0,0,50.61,10.192c27.293,2.383,42.536-7.751,42.685-7.854a.664.664,0,0,1,.747,1.1C518.187,8036.635,505.651,8044.983,483.06,8044.983Z" transform="translate(-279.137 -7933.705)" fill="#666"/>
      <path id="Trazado_106180" data-name="Trazado 106180" d="M475.473,8039.979c-1.284,0-2.59-.025-3.919-.083-23.717-1.031-35.738-5.017-35.856-5.056l-30.607-8.127a.664.664,0,0,1,.34-1.283l30.649,8.139c.159.052,12.029,3.979,35.531,5,23.421,1.008,39.841-7.564,40-7.652a.664.664,0,1,1,.625,1.172C512.083,8032.17,497.17,8039.979,475.473,8039.979Z" transform="translate(-273.113 -7934.174)" fill="#666"/>
      <g id="Grupo_55365" data-name="Grupo 55365" transform="translate(357.586 10.936)">
        <g id="Grupo_55362" data-name="Grupo 55362" transform="translate(1.32)">
          <path id="Trazado_106181" data-name="Trazado 106181" d="M596.313,7978.739c0-7.354-4.456-13.315-9.954-13.315s-9.953,5.961-9.953,13.315c0,5.751,2.729,10.635,6.547,12.5v12.73h7.521v-13.113C593.915,7988.759,596.313,7984.128,596.313,7978.739Z" transform="translate(-575.742 -7964.758)" fill="#fff"/>
          <path id="Trazado_106182" data-name="Trazado 106182" d="M591.3,8004.8h-8.848V7991.8c-3.932-2.146-6.546-7.266-6.546-12.9,0-7.709,4.763-13.979,10.618-13.979s10.616,6.271,10.616,13.979c0,5.271-2.281,10.118-5.84,12.479Zm-7.521-1.329h6.193v-12.826l.32-.192c3.353-2.043,5.52-6.574,5.52-11.549,0-6.976-4.167-12.652-9.289-12.652s-9.29,5.677-9.29,12.652c0,5.317,2.481,10.1,6.174,11.9l.372.183Z" transform="translate(-575.906 -7964.923)" fill="#999"/>
        </g>
        <g id="Grupo_55363" data-name="Grupo 55363" transform="translate(0 16.074)">
          <rect id="Rectángulo_9574" data-name="Rectángulo 9574" width="23.343" height="3.893" rx="1.435" transform="translate(0.665 0.664)" fill="#fff"/>
          <path id="Trazado_106183" data-name="Trazado 106183" d="M597.016,7982.25H577.482a2.61,2.61,0,0,1,0-5.22h19.534a2.61,2.61,0,0,1,0,5.22Zm-19.534-3.893a1.245,1.245,0,0,0-1.243,1.241,1.264,1.264,0,0,0,1.243,1.324h19.534a1.242,1.242,0,0,0,1.24-1.24,1.264,1.264,0,0,0-1.24-1.325Z" transform="translate(-574.912 -7977.03)" fill="#999"/>
        </g>
        <g id="Grupo_55364" data-name="Grupo 55364" transform="translate(0 8.643)">
          <rect id="Rectángulo_9575" data-name="Rectángulo 9575" width="23.343" height="3.893" rx="1.435" transform="translate(0.665 0.663)" fill="#fff"/>
          <path id="Trazado_106184" data-name="Trazado 106184" d="M597.016,7976.652H577.482a2.611,2.611,0,0,1,0-5.221h19.534a2.611,2.611,0,0,1,0,5.221Zm-19.534-3.893A1.243,1.243,0,0,0,576.24,7974a1.264,1.264,0,0,0,1.243,1.324h19.534a1.242,1.242,0,0,0,1.24-1.241,1.262,1.262,0,0,0-1.24-1.324Z" transform="translate(-574.912 -7971.432)" fill="#999"/>
        </g>
      </g>
      <g id="Grupo_55369" data-name="Grupo 55369" transform="translate(624.897)">
        <g id="Grupo_55366" data-name="Grupo 55366" transform="translate(1.318)">
          <path id="Trazado_106185" data-name="Trazado 106185" d="M797.668,7970.5c0-7.354-4.457-13.315-9.954-13.315s-9.953,5.961-9.953,13.315c0,5.752,2.729,10.636,6.547,12.5v12.732h7.521v-13.116C795.27,7980.521,797.668,7975.89,797.668,7970.5Z" transform="translate(-777.097 -7956.521)" fill="#fff"/>
          <path id="Trazado_106186" data-name="Trazado 106186" d="M792.657,7996.56h-8.848v-12.992c-3.932-2.148-6.547-7.269-6.547-12.9,0-7.709,4.763-13.979,10.617-13.979s10.618,6.271,10.618,13.979c0,5.271-2.281,10.117-5.839,12.48Zm-7.521-1.328h6.193v-12.825l.319-.193c3.353-2.043,5.52-6.576,5.52-11.549,0-6.978-4.167-12.652-9.29-12.652s-9.289,5.675-9.289,12.652c0,5.316,2.481,10.1,6.174,11.9l.373.182Z" transform="translate(-777.261 -7956.685)" fill="#999"/>
        </g>
        <g id="Grupo_55367" data-name="Grupo 55367" transform="translate(0 16.074)">
          <rect id="Rectángulo_9576" data-name="Rectángulo 9576" width="23.343" height="3.893" rx="1.435" transform="translate(0.664 0.664)" fill="#fff"/>
          <path id="Trazado_106187" data-name="Trazado 106187" d="M798.369,7974.012H778.836a2.61,2.61,0,0,1,0-5.22h19.534a2.61,2.61,0,0,1,0,5.22Zm-19.534-3.892a1.241,1.241,0,0,0-1.24,1.241,1.262,1.262,0,0,0,1.24,1.323h19.534a1.241,1.241,0,0,0,1.241-1.239,1.262,1.262,0,0,0-1.241-1.325Z" transform="translate(-776.268 -7968.792)" fill="#999"/>
        </g>
        <g id="Grupo_55368" data-name="Grupo 55368" transform="translate(0 8.642)">
          <rect id="Rectángulo_9577" data-name="Rectángulo 9577" width="23.343" height="3.893" rx="1.435" transform="translate(0.664 0.663)" fill="#fff"/>
          <path id="Trazado_106188" data-name="Trazado 106188" d="M798.369,7968.414H778.836a2.61,2.61,0,0,1,0-5.219h19.534a2.61,2.61,0,0,1,0,5.219Zm-19.534-3.892a1.242,1.242,0,0,0-1.24,1.241,1.262,1.262,0,0,0,1.24,1.323h19.534a1.241,1.241,0,0,0,1.241-1.24,1.263,1.263,0,0,0-1.241-1.324Z" transform="translate(-776.268 -7963.195)" fill="#999"/>
        </g>
      </g>
      <g id="Grupo_55371" data-name="Grupo 55371" transform="translate(271.257 44.096)">
        <g id="Grupo_55370" data-name="Grupo 55370">
          <path id="Trazado_106189" data-name="Trazado 106189" d="M703.965,8076.4l-.747-13.916-57.775-15.828s-11.032-.523-13.463-18.962c0,0-2.338-18-1.776-29.311,0,0-5.947-6.909-22.811-7.862v-.053c-.259,0-.5.019-.753.027-.747-.036-1.482-.077-2.27-.087v.163c-17.125.884-25.3,7.2-25.3,7.2.56,11.309-1.4,30.645-1.4,30.645-2.431,18.439-15.238,20.411-15.238,20.411l-47.688,13.654-.749,13.916s-4.113,4.7-3.552,23.832,6.18,29.052,6.18,29.052l.936,22.439,12.517,59.841H687.885l15.706-64.016v-21.223s3.367-6.959,3.927-26.094S703.965,8076.4,703.965,8076.4Z" transform="translate(-509.719 -7989.734)" fill="#fff"/>
          <path id="Trazado_106190" data-name="Trazado 106190" d="M688.57,8212.389H529.693l-12.628-60.369-.943-22.393c-.717-1.334-5.655-11.142-6.186-29.213-.508-17.327,2.795-23.009,3.564-24.091l.762-14.186,48.144-13.784c.583-.1,12.431-2.173,14.762-19.86.017-.174,1.95-19.4,1.4-30.526l-.017-.347.275-.211c.337-.26,8.34-6.3,25.042-7.3v-.205l.677.006c.66.01,1.282.037,1.9.068l.388.017,1.387-.037v.1c16.476,1.089,22.4,7.767,22.651,8.052l.174.2-.015.264c-.551,11.12,1.748,29.015,1.772,29.192,2.32,17.612,12.41,18.361,12.837,18.386l.141.022,58.238,15.956.763,14.19c.77,1.082,4.072,6.764,3.563,24.091-.522,17.812-3.434,25.1-3.927,26.22l-.019,21.233Zm-157.8-1.327H687.528l15.563-63.433.066-21.429c.032-.068,3.312-7.117,3.861-25.824.543-18.49-3.352-23.334-3.391-23.381l-.145-.171-.016-.227-.721-13.437L645.5,8047.475c-1.109-.084-11.616-1.369-14.011-19.532-.024-.182-2.3-17.891-1.795-29.146-1.087-1.076-7.371-6.615-22.171-7.452l-.556-.032-.146.006-.432-.017c-.392-.021-.782-.04-1.183-.051v.112l-.636.033c-14.988.773-23.106,5.81-24.658,6.869.5,11.276-1.4,30.189-1.423,30.381-2.469,18.737-15.664,20.979-15.8,21l-47.152,13.509-.736,13.671-.151.172c-.035.044-3.931,4.888-3.388,23.378.55,18.753,6.039,28.642,6.093,28.741l.08.14.007.16.936,22.439Z" transform="translate(-509.883 -7989.901)" fill="#999"/>
        </g>
        <rect id="Rectángulo_9578" data-name="Rectángulo 9578" width="1.328" height="220.991" transform="translate(98.573 0.834)" fill="#999"/>
        <path id="Trazado_106191" data-name="Trazado 106191" d="M559.391,8195.1l-3.085-58.1c0-.344.258-30.533-19.774-98.269l1.273-.376c20.1,67.974,19.832,98.321,19.827,98.621l3.084,58.055Z" transform="translate(-501.154 -7974.028)" fill="#999"/>
        <path id="Trazado_106192" data-name="Trazado 106192" d="M615.514,8195.1l-1.325-.07,3.084-58.1c-.007-.254-.276-30.6,19.827-98.575l1.273.376c-20.046,67.78-19.779,97.927-19.774,98.222Z" transform="translate(-475.718 -7974.028)" fill="#999"/>
        <path id="Trazado_106193" data-name="Trazado 106193" d="M516.431,8108.4l-1.308-.236c.027-.143,2.594-14.489,1.861-25.523-.737-11.078-4.008-27.7-4.04-27.864l1.3-.256c.035.166,3.32,16.87,4.064,28.031C519.053,8093.75,516.456,8108.252,516.431,8108.4Z" transform="translate(-508.88 -7968.736)" fill="#999"/>
        <path id="Trazado_106194" data-name="Trazado 106194" d="M656.225,8105.482c-.039-.154-3.849-15.6-3.1-26.82.742-11.16,3.1-24.012,3.12-24.141l1.306.241c-.025.126-2.364,12.906-3.1,23.987-.732,11.013,3.028,26.257,3.068,26.411Z" transform="translate(-462.997 -7968.733)" fill="#999"/>
        <path id="Trazado_106195" data-name="Trazado 106195" d="M562.681,8006.239l-.9-.975c.39-.361,9.744-8.826,26.526-8.255.6-.059,16.637-1.387,25.19,6.631l-.908.97c-8.117-7.608-24.085-6.29-24.248-6.275-.524-.02-1.046-.026-1.557-.026C571.459,7998.309,562.77,8006.159,562.681,8006.239Z" transform="translate(-492.884 -7987.609)" fill="#999"/>
        <path id="Trazado_106196" data-name="Trazado 106196" d="M548.945,8038.9l-.366-1.275c10.066-2.884,13.716-4.88,17.581-6.991,1.862-1.021,3.787-2.073,6.486-3.253,8.257-3.607,19.483-3.705,19.957-3.708.451,0,10.991.1,19.248,3.708l2.176.956c6.416,2.823,8.353,3.677,21.89,7.554l-.366,1.275c-13.623-3.9-15.747-4.836-22.059-7.614l-2.173-.955c-8-3.5-18.61-3.6-18.716-3.6s-11.424.1-19.425,3.6c-2.644,1.157-4.546,2.2-6.383,3.2C562.865,8033.944,559.153,8035.975,548.945,8038.9Z" transform="translate(-497.208 -7978.84)" fill="#999"/>
      </g>
      <path id="Trazado_106197" data-name="Trazado 106197" d="M584.869,8018.337l-6.613-6.895-3.875.286s-1.653.162-1.322-1.237l4.353-5.118s2.039-2.154,2.7.323l.22,4.309,5.9,6.759.712,2.13Z" transform="translate(-217.947 -7941.021)" fill="#999"/>
      <path id="Trazado_106198" data-name="Trazado 106198" d="M585.176,8027.163l-6.611-6.9-3.875.288s-1.653.161-1.322-1.24l4.353-5.117s2.038-2.153,2.7.323l.22,4.311,5.9,6.759.711,2.128Z" transform="translate(-217.846 -7938.13)" fill="#999"/>
      <g id="Grupo_55372" data-name="Grupo 55372" transform="translate(368.327 35.088)" opacity="0.36">
        <path id="Trazado_106199" data-name="Trazado 106199" d="M584.033,7985.558s20.172-4.964,33.794,1.038c0,0-2.078,62.685,0,67.705l-8.312,1.214s-3.117-8.875-2.943-11.1c0,0-2.078,8.333-1.731,11.1,0,0-8.293-1.354-9.168-4.141,0,0-.779-8.307-.741-11.954,0,0-2.732,10.064-2.385,11.954,0,0-7.329,1.056-8.514,0S584.033,7985.558,584.033,7985.558Z" transform="translate(-582.838 -7982.947)" fill="#999"/>
        <path id="Trazado_106200" data-name="Trazado 106200" d="M609.68,8056.347a.667.667,0,0,1-.627-.443c-.222-.632-1.618-4.65-2.421-7.86-.546,2.6-1.159,6.027-.968,7.558a.668.668,0,0,1-.2.561.646.646,0,0,1-.567.177c-.889-.146-8.726-1.509-9.694-4.6a.665.665,0,0,1-.029-.137c-.02-.226-.361-3.879-.573-7.368-.753,3.164-1.393,6.344-1.237,7.187a.664.664,0,0,1-.559.777c-1.79.258-7.734,1.011-9.049-.162-1.167-1.038-.766-36.641-.222-66.323a.662.662,0,0,1,.506-.633c.831-.205,20.545-4.947,34.219,1.076a.665.665,0,0,1,.4.629c-.578,17.395-1.709,63.418-.05,67.43a.667.667,0,0,1-.518.912l-8.312,1.211A.641.641,0,0,1,609.68,8056.347Zm-2.943-12.431a.648.648,0,0,1,.106.008.661.661,0,0,1,.555.707c-.123,1.605,1.784,7.565,2.729,10.315l7.031-1.024c-1.681-8.441-.036-60.842.155-66.726-12.074-5.07-29.328-1.631-32.46-.938-.451,24.821-.84,61.826-.117,64.852.733.367,3.884.308,7.288-.143.1-2.87,2.173-10.6,2.431-11.552a.68.68,0,0,1,.732-.483.663.663,0,0,1,.573.665c-.037,3.383.652,10.955.729,11.806.588,1.572,4.794,2.89,7.815,3.479.029-3.368,1.71-10.148,1.788-10.465A.664.664,0,0,1,606.737,8043.917Z" transform="translate(-583.003 -7983.116)" fill="#4d4d4d"/>
      </g>
      <path id="Trazado_106201" data-name="Trazado 106201" d="M598.53,8030.7l-5.134-8.057-3.857-.476s-1.653-.165-1.054-1.475l5.27-4.165s2.421-1.714,2.585.845l-.628,4.269,4.463,7.784.28,2.228Z" transform="translate(-212.923 -7937.266)" fill="#999"/>
      <path id="Trazado_106202" data-name="Trazado 106202" d="M608.795,8033.064l7.151-6.333,3.839.6s1.634.3,1.419-1.127l-3.922-5.455s-1.856-2.313-2.716.1l-.572,4.277-6.432,6.255-.881,2.063Z" transform="translate(-206.92 -7936.026)" fill="#999"/>
      <path id="Trazado_106203" data-name="Trazado 106203" d="M607.951,8033.309l5.135,6.548-.723,3.308s-.342,1.405.907,1.291l4.948-3.125s2.108-1.494.052-2.368l-3.689-.721-5.106-5.917-1.748-.875Z" transform="translate(-206.578 -7932.195)" fill="#999"/>
      <rect id="Rectángulo_9579" data-name="Rectángulo 9579" width="1.328" height="136.738" transform="translate(636.569 59.691)" fill="#999"/>
      <path id="Trazado_106204" data-name="Trazado 106204" d="M746.135,8129.042l-.641-63.03c-1.718-27.626-.556-32.792-.506-33l1.289.313-.644-.157.645.154c-.048.207-1.15,5.4.542,32.64l.642,63.064Z" transform="translate(-161.758 -7931.682)" fill="#999"/>
      <g id="Grupo_55373" data-name="Grupo 55373" transform="translate(599.122 37.727)" opacity="0.36">
        <path id="Trazado_106205" data-name="Trazado 106205" d="M842.574,8013.655l-9.946,72.5s-18.283.866-41.349-10.88c0,0,1.074-7.244,2.857-8.86,0,0-5.985,6.119-6.546,7.618l-9.1-7.85,6.119-6.926-10.043,6.118-8.081-8.589,5.888-6.071-2.31-2.771-7.114,5.542-5.592-10.809,10.8-4.181a49.579,49.579,0,0,0-.287-10.643c-.807-4.5-3-20.87-3-20.87s-.231-14.451.346-21.377a40.544,40.544,0,0,0,26.667,17.53C810.348,8006.5,839.591,8013.424,842.574,8013.655Z" transform="translate(-756.689 -7984.938)" fill="#999"/>
        <path id="Trazado_106206" data-name="Trazado 106206" d="M832.046,8086.99c-3.75,0-20.6-.623-40.9-10.963a.662.662,0,0,1-.356-.687,42.994,42.994,0,0,1,1.144-5.293,27.062,27.062,0,0,0-3.555,4.381.664.664,0,0,1-.458.41.648.648,0,0,1-.6-.141l-9.1-7.849a.664.664,0,0,1-.065-.943l3.213-3.634-6.294,3.834a.659.659,0,0,1-.828-.111l-8.081-8.59a.664.664,0,0,1,.005-.916l5.473-5.645-1.516-1.82-6.609,5.147a.674.674,0,0,1-.551.124.665.665,0,0,1-.447-.344l-5.59-10.806a.661.661,0,0,1-.032-.54.672.672,0,0,1,.381-.385l10.409-4.029a47.579,47.579,0,0,0-.309-10.058c-.8-4.462-2.984-20.736-3.006-20.9-.009-.223-.231-14.641.343-21.521a.658.658,0,0,1,.515-.59.65.65,0,0,1,.719.313,40.221,40.221,0,0,0,26.213,17.209c10.326,1.881,23.783,4.824,34.595,7.188,8.248,1.8,14.762,3.228,16.033,3.326a.672.672,0,0,1,.467.245.663.663,0,0,1,.139.506l-9.946,72.5a.658.658,0,0,1-.626.57C832.8,8086.979,832.536,8086.99,832.046,8086.99Zm-39.873-11.928c20.253,10.2,36.825,10.59,40.039,10.6l9.779-71.272c-2.2-.35-7.931-1.6-15.518-3.262-10.8-2.361-24.248-5.3-34.551-7.179a41.969,41.969,0,0,1-26.016-16.215c-.4,7.267-.216,19.268-.214,19.4.016.086,2.194,16.329,2.991,20.763a49.627,49.627,0,0,1,.3,10.815.667.667,0,0,1-.422.563l-10.111,3.913,4.885,9.44,6.484-5.049a.661.661,0,0,1,.917.1l2.309,2.771a.662.662,0,0,1-.032.886l-5.447,5.617,7.278,7.736,9.584-5.84a.664.664,0,0,1,.843,1.007l-5.674,6.424,7.987,6.887a73.434,73.434,0,0,1,6.071-6.878,2.753,2.753,0,0,1,.2-.206.664.664,0,0,1,.92.956l-.174.179C793.551,8068.441,792.6,8072.432,792.173,8075.062Z" transform="translate(-756.853 -7985.104)" fill="#4d4d4d"/>
      </g>
      <path id="Trazado_106207" data-name="Trazado 106207" d="M775.418,8037.692,774.4,8030l-2.666-1.621s-1.156-.664-.271-1.445l5.289-1.381s2.36-.484,1.606,1.479l-1.917,2.98.619,7.271-.555,1.753Z" transform="translate(-153.054 -7934.145)" fill="#666"/>
      <path id="Trazado_106208" data-name="Trazado 106208" d="M792.54,8044.28c-21.82,0-28.278-20.206-28.339-20.411l1.268-.39c.061.2,6.253,19.474,27.073,19.474h.179c20.982-.112,26.408-19.259,26.461-19.451l1.28.346c-.054.2-5.754,20.316-27.732,20.433Z" transform="translate(-155.324 -7934.807)" fill="#999"/>
      <path id="Trazado_106209" data-name="Trazado 106209" d="M766.87,8028.787l-5.309-5.662-3.112.236s-1.326.133-1.061-1.018l3.494-4.2s1.637-1.77,2.168.266l.177,3.539,4.738,5.552.571,1.748Z" transform="translate(-157.567 -7936.788)" fill="#666"/>
      <path id="Trazado_106210" data-name="Trazado 106210" d="M784.418,8041.22l-1.018-7.7-2.666-1.62s-1.156-.664-.271-1.444l5.289-1.383s2.36-.483,1.606,1.479l-1.917,2.979.619,7.271-.555,1.754Z" transform="translate(-150.106 -7932.99)" fill="#666"/>
      <path id="Trazado_106211" data-name="Trazado 106211" d="M830.176,8064.191c-49-3.795-64.988-38.06-65.143-38.407l1.211-.546c.153.341,15.848,33.9,64.036,37.632Z" transform="translate(-155.051 -7934.229)" fill="#666"/>
      <path id="Trazado_106212" data-name="Trazado 106212" d="M829.347,8058.236c-.393-.059-39.44-6.2-59.284-29.839l1.016-.854c19.52,23.254,58.079,29.321,58.467,29.379Z" transform="translate(-153.404 -7933.475)" fill="#666"/>
      <path id="Trazado_106213" data-name="Trazado 106213" d="M747.952,8111.557l-5.309-5.663-3.112.237s-1.328.133-1.062-1.019l3.5-4.2s1.637-1.771,2.168.265l.177,3.538,4.738,5.552.571,1.749Z" transform="translate(-163.764 -7909.677)" fill="#666"/>
      <path id="Trazado_106214" data-name="Trazado 106214" d="M825.666,8112.253l5.309-5.662,3.112.236s1.326.133,1.061-1.019l-3.494-4.2s-1.637-1.77-2.168.266l-.177,3.54-4.738,5.552-.571,1.748Z" transform="translate(-135.737 -7909.449)" fill="#666"/>
    </g>
  </g>
</svg>
