<svg xmlns="http://www.w3.org/2000/svg" width="279.293" height="567.604" viewBox="0 0 279.293 567.604">
  <g id="Grupo_55634" data-name="Grupo 55634" transform="translate(-998.28 -6932.862)">
    <rect id="Rectángulo_9713" data-name="Rectángulo 9713" width="279.293" height="567.604" rx="19.826" transform="translate(998.28 6932.862)" fill="#fff"/>
    <g id="Grupo_55633" data-name="Grupo 55633" transform="translate(1032.541 6949.362)">
      <g id="Grupo_55620" data-name="Grupo 55620" transform="translate(97.362 62.683)">
        <path id="Trazado_106971" data-name="Trazado 106971" d="M1095.088,6991.3l5.547.09.186,6.774s-4.664-1.873-5.733-6.418" transform="translate(-1094.404 -6990.617)" fill="#999"/>
        <path id="Trazado_106972" data-name="Trazado 106972" d="M1101,6999.03a.689.689,0,0,1-.254-.048c-.2-.083-5.006-2.061-6.143-6.895a.677.677,0,0,1,.018-.381.7.7,0,0,1-.037-.234.684.684,0,0,1,.683-.672h.011l5.546.091a.684.684,0,0,1,.674.664l.186,6.773a.683.683,0,0,1-.683.7Zm-4.959-6.85a9.141,9.141,0,0,0,4.245,5.036l-.137-4.97Z" transform="translate(-1094.588 -6990.8)" fill="#4d4d4d"/>
      </g>
      <g id="Grupo_55630" data-name="Grupo 55630" transform="translate(37.422)">
        <g id="Grupo_55621" data-name="Grupo 55621" transform="translate(0 38.811)" opacity="0.33">
          <path id="Trazado_106973" data-name="Trazado 106973" d="M1207.714,7270.716l-9.836-24.454v-8.241l8.908-55.641,12.112-55.412V7105s3.944-10.817,4.274-28.564-1.315-24.847-3.944-32.115l-25.31-9.127-19.5-6.929s-16.216-3.833-15.558-23.439l-1.1-30.873-20.543,4.237-20.544-4.237.109,30.817c.657,19.606-16.764,23.5-16.764,23.5l-19.5,6.929-24.488,6.761c-2.631,7.268-5.1,16.733-4.767,34.48s4.274,28.564,4.274,28.564v21.973l12.111,55.41h0l1.766,8.079,10.18,47.563v9.569s-18.076,38.276-19.936,68.845v151.782h163.525L1221,7341.157S1220.739,7293.842,1207.714,7270.716Z" transform="translate(-1050.547 -6973.107)" fill="#fff"/>
          <path id="Trazado_106974" data-name="Trazado 106974" d="M1224.058,7469.125h-164.9V7316.661c1.792-29.463,18.739-66.419,19.936-69v-9.347l-11.931-55.567-12.127-55.555v-21.857c-.425-1.232-3.965-11.99-4.274-28.669-.332-17.972,2.244-27.639,4.808-34.724l.119-.334,24.829-6.854,19.458-6.914c.767-.179,16.939-4.036,16.307-22.829l-.112-31.68,21.232,4.382,21.2-4.375,1.125,31.685c-.631,18.875,14.875,22.759,15.034,22.8l19.574,6.951,25.615,9.235.108.3c2.829,7.815,4.3,15.288,3.987,32.358-.307,16.68-3.848,27.438-4.274,28.669l-.016,22-12.112,55.41-8.9,55.6.008,8,9.771,24.29c12.94,23.029,13.353,70.261,13.355,70.733Zm-163.537-1.366h162.146l-2.163-126.365c0-.479-.416-47.412-13.2-70.119l-.038-.08-9.885-24.708v-8.244l8.916-55.749,12.1-55.374.041-22.132c.039-.109,3.911-10.935,4.233-28.346.309-16.639-1.095-24.014-3.8-31.567l-25.008-9.018-19.5-6.929c-.1-.018-16.682-4.17-16.013-24.1l-1.066-30.02-19.889,4.1-.138-.029-19.721-4.068.106,29.975c.67,19.921-17.118,24.125-17.3,24.164l-19.425,6.906-24.193,6.682c-2.481,6.94-4.928,16.435-4.606,33.9.321,17.411,4.193,28.236,4.233,28.346l.041.232v21.9l13.861,63.414,10.2,47.708-.065,9.864c-.181.383-18.042,38.511-19.872,68.6Z" transform="translate(-1050.73 -6973.333)"/>
        </g>
        <g id="Grupo_55622" data-name="Grupo 55622" transform="translate(28.176 302.996)">
          <path id="Trazado_106975" data-name="Trazado 106975" d="M1157.6,7177.62l-3.061-3.609,2.872-3.1-2.732-3.5.986-.768,3.383,4.34-2.84,3.072,2.345,2.765Z" transform="translate(-1040.839 -7166.635)" fill="#999"/>
          <path id="Trazado_106976" data-name="Trazado 106976" d="M1155.08,7177.62l-3.061-3.609,2.872-3.1-2.732-3.5.986-.768,3.383,4.34-2.84,3.072,2.345,2.765Z" transform="translate(-1041.764 -7166.635)" fill="#999"/>
          <path id="Trazado_106977" data-name="Trazado 106977" d="M1152.559,7177.62l-3.061-3.609,2.872-3.1-2.732-3.5.986-.768,3.383,4.34-2.84,3.072,2.345,2.765Z" transform="translate(-1042.688 -7166.635)" fill="#999"/>
          <path id="Trazado_106978" data-name="Trazado 106978" d="M1150.038,7177.62l-3.061-3.609,2.872-3.1-2.732-3.5.986-.768,3.383,4.34-2.84,3.072,2.345,2.765Z" transform="translate(-1043.613 -7166.635)" fill="#999"/>
          <path id="Trazado_106979" data-name="Trazado 106979" d="M1147.517,7177.62l-3.061-3.609,2.872-3.1-2.732-3.5.986-.768,3.383,4.34-2.84,3.072,2.345,2.765Z" transform="translate(-1044.537 -7166.635)" fill="#999"/>
          <path id="Trazado_106980" data-name="Trazado 106980" d="M1145,7177.62l-3.061-3.609,2.872-3.1-2.732-3.5.986-.768,3.383,4.34-2.84,3.072,2.345,2.765Z" transform="translate(-1045.462 -7166.635)" fill="#999"/>
          <path id="Trazado_106981" data-name="Trazado 106981" d="M1142.475,7177.62l-3.061-3.609,2.872-3.1-2.733-3.5.986-.768,3.383,4.34-2.84,3.072,2.345,2.765Z" transform="translate(-1046.386 -7166.635)" fill="#999"/>
          <path id="Trazado_106982" data-name="Trazado 106982" d="M1139.954,7177.62l-3.061-3.609,2.872-3.1-2.732-3.5.986-.768,3.383,4.34-2.84,3.072,2.345,2.765Z" transform="translate(-1047.31 -7166.635)" fill="#999"/>
          <path id="Trazado_106983" data-name="Trazado 106983" d="M1137.433,7177.62l-3.061-3.609,2.872-3.1-2.732-3.5.986-.768,3.383,4.34-2.84,3.072,2.345,2.765Z" transform="translate(-1048.235 -7166.635)" fill="#999"/>
          <path id="Trazado_106984" data-name="Trazado 106984" d="M1134.912,7177.62l-3.061-3.609,2.872-3.1-2.732-3.5.986-.768,3.383,4.34-2.84,3.072,2.345,2.765Z" transform="translate(-1049.159 -7166.635)" fill="#999"/>
          <path id="Trazado_106985" data-name="Trazado 106985" d="M1132.391,7177.62l-3.061-3.609,2.872-3.1-2.732-3.5.986-.768,3.383,4.34-2.84,3.072,2.345,2.765Z" transform="translate(-1050.084 -7166.635)" fill="#999"/>
          <path id="Trazado_106986" data-name="Trazado 106986" d="M1129.87,7177.62l-3.061-3.609,2.872-3.1-2.732-3.5.986-.768,3.383,4.34-2.84,3.072,2.345,2.765Z" transform="translate(-1051.008 -7166.635)" fill="#999"/>
          <path id="Trazado_106987" data-name="Trazado 106987" d="M1127.349,7177.62l-3.061-3.609,2.872-3.1-2.732-3.5.986-.768,3.383,4.34-2.84,3.072,2.345,2.765Z" transform="translate(-1051.932 -7166.635)" fill="#999"/>
          <path id="Trazado_106988" data-name="Trazado 106988" d="M1124.828,7177.62l-3.061-3.609,2.872-3.1-2.732-3.5.986-.768,3.383,4.34-2.84,3.072,2.345,2.765Z" transform="translate(-1052.857 -7166.635)" fill="#999"/>
          <path id="Trazado_106989" data-name="Trazado 106989" d="M1122.307,7177.62l-3.061-3.609,2.872-3.1-2.732-3.5.986-.768,3.383,4.34-2.84,3.072,2.345,2.765Z" transform="translate(-1053.782 -7166.635)" fill="#999"/>
          <path id="Trazado_106990" data-name="Trazado 106990" d="M1119.786,7177.62l-3.061-3.609,2.872-3.1-2.732-3.5.986-.768,3.383,4.34-2.84,3.072,2.345,2.765Z" transform="translate(-1054.706 -7166.635)" fill="#999"/>
          <path id="Trazado_106991" data-name="Trazado 106991" d="M1117.265,7177.62l-3.061-3.609,2.872-3.1-2.732-3.5.986-.768,3.383,4.34-2.84,3.072,2.345,2.765Z" transform="translate(-1055.63 -7166.635)" fill="#999"/>
          <path id="Trazado_106992" data-name="Trazado 106992" d="M1114.744,7177.62l-3.061-3.609,2.872-3.1-2.732-3.5.986-.768,3.383,4.34-2.84,3.072,2.345,2.765Z" transform="translate(-1056.555 -7166.635)" fill="#999"/>
          <path id="Trazado_106993" data-name="Trazado 106993" d="M1112.223,7177.62l-3.061-3.609,2.872-3.1-2.732-3.5.986-.768,3.383,4.34-2.84,3.072,2.345,2.765Z" transform="translate(-1057.479 -7166.635)" fill="#999"/>
          <path id="Trazado_106994" data-name="Trazado 106994" d="M1109.7,7177.62l-3.061-3.609,2.872-3.1-2.732-3.5.986-.768,3.383,4.34-2.84,3.072,2.345,2.765Z" transform="translate(-1058.404 -7166.635)" fill="#999"/>
          <path id="Trazado_106995" data-name="Trazado 106995" d="M1107.181,7177.62l-3.061-3.609,2.872-3.1-2.732-3.5.986-.768,3.383,4.34-2.84,3.072,2.345,2.765Z" transform="translate(-1059.328 -7166.635)" fill="#999"/>
          <path id="Trazado_106996" data-name="Trazado 106996" d="M1104.659,7177.62l-3.061-3.609,2.872-3.1-2.732-3.5.986-.768,3.383,4.34-2.84,3.072,2.345,2.765Z" transform="translate(-1060.253 -7166.635)" fill="#999"/>
          <path id="Trazado_106997" data-name="Trazado 106997" d="M1102.138,7177.62l-3.061-3.609,2.872-3.1-2.732-3.5.986-.768,3.383,4.34-2.84,3.072,2.345,2.765Z" transform="translate(-1061.177 -7166.635)" fill="#999"/>
          <path id="Trazado_106998" data-name="Trazado 106998" d="M1099.618,7177.62l-3.061-3.609,2.872-3.1-2.732-3.5.986-.768,3.383,4.34-2.84,3.072,2.345,2.765Z" transform="translate(-1062.102 -7166.635)" fill="#999"/>
          <path id="Trazado_106999" data-name="Trazado 106999" d="M1097.1,7177.62l-3.061-3.609,2.872-3.1-2.732-3.5.986-.768,3.383,4.34-2.84,3.072,2.345,2.765Z" transform="translate(-1063.026 -7166.635)" fill="#999"/>
          <path id="Trazado_107000" data-name="Trazado 107000" d="M1094.575,7177.62l-3.061-3.609,2.872-3.1-2.732-3.5.986-.768,3.383,4.34-2.84,3.072,2.345,2.765Z" transform="translate(-1063.95 -7166.635)" fill="#999"/>
          <path id="Trazado_107001" data-name="Trazado 107001" d="M1092.054,7177.62l-3.061-3.609,2.872-3.1-2.732-3.5.986-.768,3.383,4.34-2.84,3.072,2.345,2.765Z" transform="translate(-1064.875 -7166.635)" fill="#999"/>
          <path id="Trazado_107002" data-name="Trazado 107002" d="M1089.533,7177.62l-3.061-3.609,2.872-3.1-2.732-3.5.986-.768,3.383,4.34-2.84,3.072,2.345,2.765Z" transform="translate(-1065.799 -7166.635)" fill="#999"/>
          <path id="Trazado_107003" data-name="Trazado 107003" d="M1087.012,7177.62l-3.061-3.609,2.872-3.1-2.732-3.5.986-.768,3.383,4.34-2.84,3.072,2.345,2.765Z" transform="translate(-1066.724 -7166.635)" fill="#999"/>
          <path id="Trazado_107004" data-name="Trazado 107004" d="M1084.491,7177.62l-3.061-3.609,2.872-3.1-2.732-3.5.986-.768,3.383,4.34-2.84,3.072,2.345,2.765Z" transform="translate(-1067.648 -7166.635)" fill="#999"/>
          <path id="Trazado_107005" data-name="Trazado 107005" d="M1081.97,7177.62l-3.061-3.609,2.872-3.1-2.732-3.5.986-.768,3.383,4.34-2.84,3.072,2.345,2.765Z" transform="translate(-1068.573 -7166.635)" fill="#999"/>
          <path id="Trazado_107006" data-name="Trazado 107006" d="M1079.449,7177.62l-3.061-3.609,2.872-3.1-2.732-3.5.986-.768,3.383,4.34-2.84,3.072,2.345,2.765Z" transform="translate(-1069.497 -7166.635)" fill="#999"/>
          <path id="Trazado_107007" data-name="Trazado 107007" d="M1076.928,7177.62l-3.061-3.609,2.872-3.1-2.732-3.5.986-.768,3.383,4.34-2.84,3.072,2.345,2.765Z" transform="translate(-1070.422 -7166.635)" fill="#999"/>
          <path id="Trazado_107008" data-name="Trazado 107008" d="M1074.407,7177.62l-3.061-3.609,2.872-3.1-2.732-3.5.986-.768,3.383,4.34-2.84,3.072,2.345,2.765Z" transform="translate(-1071.346 -7166.635)" fill="#999"/>
        </g>
        <path id="Trazado_107009" data-name="Trazado 107009" d="M1118.085,6990.419c-14.654,0-19.141-5.667-19.337-5.923l1.089-.828-.544.415.541-.417c.047.062,4.965,6.127,21.236,5.311,16.165-.807,19.005-6.953,19.032-7.016l1.263.525c-.118.286-3.061,7-20.226,7.855C1120.077,6990.393,1119.056,6990.419,1118.085,6990.419Z" transform="translate(-1033.122 -6931.359)" fill="#999"/>
        <rect id="Rectángulo_9714" data-name="Rectángulo 9714" width="158.509" height="1.367" transform="translate(7.055 201.458)" fill="#999"/>
        <rect id="Rectángulo_9715" data-name="Rectángulo 9715" width="162.928" height="1.367" transform="translate(4.986 191.99)" fill="#999"/>
        <rect id="Rectángulo_9716" data-name="Rectángulo 9716" width="1.367" height="55.662" transform="translate(85.991 202.141)" fill="#999"/>
        <path id="Trazado_107010" data-name="Trazado 107010" d="M1151.995,7111.067l-1.367-.012.609-61.525c1.606-26.615.561-31.687.515-31.889l1.331-.311c.048.2,1.151,5.243-.481,32.247Z" transform="translate(-1014.098 -6918.388)" fill="#999"/>
        <path id="Trazado_107011" data-name="Trazado 107011" d="M1158.732,7424.673c-.022-.6-2.142-60.546-3.473-123.88-1.326-63.146-17.035-96.412-17.193-96.74l-.068-.3v-9.567l8.144-44.744,9.127-56.682,1.348.215-9.128,56.7-8.135,44.636.011,9.293c1.137,2.465,15.974,35.813,17.261,97.161,1.33,63.324,3.451,123.262,3.473,123.86Z" transform="translate(-1018.729 -6890.729)" fill="#999"/>
        <path id="Trazado_107012" data-name="Trazado 107012" d="M1079.7,7424.651l-.266-56.086c-.014-.466-1.311-48.515.268-82.437,1.546-33.253,14.976-79.781,15.682-82.2v-10.2l-9.171-45.056-8.893-55.69,1.352-.215,8.886,55.661,9.193,45.232-.028,10.562c-.141.479-14.082,48.16-15.657,81.975-1.574,33.872-.279,81.874-.265,82.352l.267,56.1Z" transform="translate(-1040.978 -6890.729)" fill="#999"/>
        <rect id="Rectángulo_9717" data-name="Rectángulo 9717" width="1.367" height="485.161" transform="translate(84.647 48.783) rotate(-0.494)" fill="#999"/>
        <path id="Trazado_107013" data-name="Trazado 107013" d="M1078.267,7111.067l-.61-61.523c-1.629-26.97-.527-32.012-.48-32.213l1.33.314-.664-.158.665.154c-.045.2-1.091,5.273.514,31.855l.611,61.559Z" transform="translate(-1041.181 -6918.388)" fill="#999"/>
        <path id="Trazado_107014" data-name="Trazado 107014" d="M1121.83,7028.633c-20.75,0-26.891-19.754-26.951-19.952l1.309-.393c.057.189,5.929,18.977,25.643,18.977H1122c19.842-.107,24.857-18.185,25.063-18.957l1.32.349c-.052.2-5.471,19.862-26.375,19.976Z" transform="translate(-1034.54 -6921.704)" fill="#999"/>
        <path id="Trazado_107015" data-name="Trazado 107015" d="M1151.631,7092.782l5.039-5.527,2.953.23s1.26.13,1.007-.992l-3.317-4.1s-1.553-1.727-2.057.26l-.168,3.454-4.5,5.419-.542,1.707Z" transform="translate(-1014.31 -6894.788)" fill="#666"/>
        <path id="Trazado_107016" data-name="Trazado 107016" d="M1104.574,7040.54l-1.195-7.383,2.017-2.168s.884-.907-.152-1.408l-5.274.046s-2.319.142-1.077,1.772l2.6,2.28,1.446,6.89,1,1.486Z" transform="translate(-1033.202 -6913.896)" fill="#666"/>
        <path id="Trazado_107017" data-name="Trazado 107017" d="M1107.013,7060.018l-1.194-7.384,2.017-2.169s.885-.906-.15-1.406l-5.276.045s-2.319.142-1.077,1.772l2.6,2.28,1.446,6.891,1,1.486Z" transform="translate(-1032.308 -6906.753)" fill="#666"/>
        <path id="Trazado_107018" data-name="Trazado 107018" d="M1111.795,7086.019l-1.193-7.385,2.017-2.168s.884-.907-.152-1.407l-5.275.045s-2.318.141-1.077,1.773l2.6,2.28,1.446,6.892,1,1.486Z" transform="translate(-1030.554 -6897.219)" fill="#666"/>
        <path id="Trazado_107019" data-name="Trazado 107019" d="M1080.667,7092.782l-5.039-5.527-2.953.23s-1.259.13-1.007-.992l3.317-4.1s1.554-1.727,2.057.26l.168,3.454,4.5,5.419.541,1.707Z" transform="translate(-1043.064 -6894.788)" fill="#666"/>
        <g id="Grupo_55623" data-name="Grupo 55623" transform="translate(65.44 29.84)">
          <ellipse id="Elipse_4323" data-name="Elipse 4323" cx="20.544" cy="9.127" rx="20.544" ry="9.127" transform="translate(0.684 0.683)" fill="#fff"/>
          <path id="Trazado_107020" data-name="Trazado 107020" d="M1119.841,6986.389c-11.9,0-21.229-4.309-21.229-9.809s9.325-9.812,21.229-9.812,21.228,4.31,21.228,9.812S1131.745,6986.389,1119.841,6986.389Zm0-18.253c-10.766,0-19.862,3.866-19.862,8.444s9.1,8.441,19.862,8.441,19.861-3.866,19.861-8.441S1130.606,6968.136,1119.841,6968.136Z" transform="translate(-1098.612 -6966.769)" fill="#999"/>
        </g>
        <g id="Grupo_55627" data-name="Grupo 55627" transform="translate(75.543)">
          <g id="Grupo_55624" data-name="Grupo 55624" transform="translate(1.252)">
            <path id="Trazado_107021" data-name="Trazado 107021" d="M1126.314,6958.432c0-7.177-4.23-13-9.448-13s-9.447,5.82-9.447,13c0,5.615,2.591,10.382,6.214,12.2v12.428h7.138v-12.8C1124.039,6968.213,1126.314,6963.693,1126.314,6958.432Z" transform="translate(-1106.737 -6944.751)" fill="#fff"/>
            <path id="Trazado_107022" data-name="Trazado 107022" d="M1121.639,6983.926h-8.5v-12.7c-3.734-2.109-6.214-7.108-6.214-12.609,0-7.544,4.544-13.68,10.13-13.68s10.131,6.136,10.131,13.68c0,5.145-2.164,9.879-5.542,12.2Zm-7.138-1.366h5.771v-12.5l.32-.2c3.172-1.985,5.222-6.4,5.222-11.246,0-6.79-3.932-12.314-8.765-12.314s-8.763,5.524-8.763,12.314c0,5.18,2.346,9.837,5.837,11.588l.377.19Z" transform="translate(-1106.92 -6944.935)" fill="#999"/>
          </g>
          <g id="Grupo_55625" data-name="Grupo 55625" transform="translate(0 15.69)">
            <rect id="Rectángulo_9718" data-name="Rectángulo 9718" width="22.156" height="3.8" rx="1.209" transform="translate(0.684 0.683)" fill="#fff"/>
            <path id="Trazado_107023" data-name="Trazado 107023" d="M1127.192,6961.58H1108.34a2.338,2.338,0,0,1-2.336-2.334v-.5a2.338,2.338,0,0,1,2.336-2.334h18.852a2.338,2.338,0,0,1,2.336,2.334v.5A2.338,2.338,0,0,1,1127.192,6961.58Zm-18.852-3.8a.97.97,0,0,0-.969.968v.5a.969.969,0,0,0,.969.968h18.852a.969.969,0,0,0,.969-.968v-.5a.97.97,0,0,0-.969-.968Z" transform="translate(-1106.004 -6956.415)" fill="#999"/>
          </g>
          <g id="Grupo_55626" data-name="Grupo 55626" transform="translate(0 8.435)">
            <rect id="Rectángulo_9719" data-name="Rectángulo 9719" width="22.156" height="3.8" rx="1.209" transform="translate(0.684 0.683)" fill="#fff"/>
            <path id="Trazado_107024" data-name="Trazado 107024" d="M1127.192,6956.274H1108.34a2.339,2.339,0,0,1-2.336-2.335v-.5a2.338,2.338,0,0,1,2.336-2.336h18.852a2.338,2.338,0,0,1,2.336,2.336v.5A2.339,2.339,0,0,1,1127.192,6956.274Zm-18.852-3.8a.97.97,0,0,0-.969.969v.5a.97.97,0,0,0,.969.968h18.852a.97.97,0,0,0,.969-.968v-.5a.97.97,0,0,0-.969-.969Z" transform="translate(-1106.004 -6951.107)" fill="#999"/>
          </g>
        </g>
        <rect id="Rectángulo_9720" data-name="Rectángulo 9720" width="1.367" height="421.362" transform="translate(95.345 48.784) rotate(-0.478)" fill="#999"/>
        <g id="Grupo_55628" data-name="Grupo 55628" transform="translate(29.043 303.04)" opacity="0.33">
          <line id="Línea_222" data-name="Línea 222" x2="117.624" transform="translate(0 0.684)" fill="#fff"/>
          <rect id="Rectángulo_9721" data-name="Rectángulo 9721" width="117.624" height="1.367"/>
        </g>
        <g id="Grupo_55629" data-name="Grupo 55629" transform="translate(29.043 312.611)" opacity="0.33">
          <line id="Línea_223" data-name="Línea 223" x2="117.624" transform="translate(0 0.683)" fill="#fff"/>
          <rect id="Rectángulo_9722" data-name="Rectángulo 9722" width="117.624" height="1.367"/>
        </g>
        <path id="Trazado_107025" data-name="Trazado 107025" d="M1055.824,7086.8l-1.319-.354c5.2-19.28.467-61.831.418-62.257l1.359-.155C1056.329,7024.463,1061.092,7067.269,1055.824,7086.8Z" transform="translate(-1049.345 -6915.931)" opacity="0.33"/>
      </g>
      <rect id="Rectángulo_9723" data-name="Rectángulo 9723" width="1.367" height="32.763" transform="translate(38.306 198.44)" fill="#4d4d4d"/>
      <g id="Grupo_55631" data-name="Grupo 55631" transform="translate(3.09 63.543)" opacity="0.5">
        <path id="Trazado_107026" data-name="Trazado 107026" d="M1054.156,7412.161s18.777,8.318,49.2,9.506a376.423,376.423,0,0,0,52.767-1.426s.7-35.89,1.42-54.191,1.554-69.4,1.554-69.4.122-48.94,3.445-65.947,10.938-58.967,8.083-100.854-13.552-87.523-30.9-113.192-18.972-24.719-18.972-24.719l.536,12.992a18.566,18.566,0,0,1-13.7,18.686l-81.474,22.037s4.992,58.234,25.671,88.658c0,0,10.954,11.884,12.965,34.227s0,82.715,0,82.715l-4.3,32.563a305.9,305.9,0,0,0-5.808,66.314C1055.345,7387.679,1054.156,7412.161,1054.156,7412.161Z" transform="translate(-1025.426 -6991.248)" fill="#999"/>
        <path id="Trazado_107027" data-name="Trazado 107027" d="M1119.394,7422.841c-4.969,0-10.294-.09-15.881-.307-30.2-1.183-49.262-9.484-49.45-9.566a.681.681,0,0,1-.406-.66c.011-.243,1.179-24.892.474-61.988a309.606,309.606,0,0,1,5.826-66.48l4.291-32.5c.015-.537,1.98-60.518,0-82.563-1.964-21.826-12.679-33.707-12.788-33.825-20.6-30.3-25.8-88.479-25.847-89.062a.685.685,0,0,1,.5-.719l81.474-22.037a17.789,17.789,0,0,0,13.2-18l-.536-12.992a.687.687,0,0,1,.339-.618c.536-.321,2.167-1.281,19.883,24.925,15.97,23.627,27.854,67.128,31.018,113.529,2,29.343-.724,63.336-8.094,101.032-3.274,16.749-3.431,65.328-3.433,65.817-.008.521-.843,51.33-1.555,69.429s-1.412,53.821-1.418,54.18a.684.684,0,0,1-.6.666A356.735,356.735,0,0,1,1119.394,7422.841Zm-64.349-10.945c2.963,1.217,21.081,8.2,48.522,9.272a387.186,387.186,0,0,0,52.07-1.358c.094-4.783.746-36.8,1.406-53.605.712-18.084,1.547-68.879,1.555-69.389,0-.479.16-49.189,3.459-66.065,7.346-37.582,10.063-71.455,8.07-100.678-3.147-46.174-14.943-89.417-30.786-112.856-11.528-17.055-16.025-22.218-17.669-23.776l.481,11.639a19.147,19.147,0,0,1-14.207,19.374l-80.919,21.888c.589,6.1,6.244,59.433,25.5,87.764.049.042,11.073,12.233,13.081,34.548,1.991,22.128.023,82.194,0,82.8l-4.308,32.629a308.318,308.318,0,0,0-5.8,66.213C1056.151,7384.6,1055.2,7408.288,1055.045,7411.9Z" transform="translate(-1025.609 -6991.429)" fill="#4d4d4d"/>
      </g>
      <g id="Grupo_55632" data-name="Grupo 55632" transform="translate(0 135.207)" opacity="0.88">
        <path id="Trazado_107028" data-name="Trazado 107028" d="M1028.365,7044.365s-2.5,36.01-4.515,37.437c0,0,8.555,3.8,13.9,2.614Z" transform="translate(-1023.165 -7043.682)" fill="#999"/>
        <path id="Trazado_107029" data-name="Trazado 107029" d="M1035.614,7085.511c-5.256,0-11.552-2.767-11.859-2.9a.682.682,0,0,1-.116-1.182c1.166-1.38,3.059-20.062,4.226-36.924a.682.682,0,0,1,.627-.632.667.667,0,0,1,.72.523l9.389,40.05a.678.678,0,0,1-.086.519.69.69,0,0,1-.431.306A11.46,11.46,0,0,1,1035.614,7085.511Zm-10.649-3.879c1.964.793,7.917,2.981,12.142,2.42l-8.2-34.977C1028.086,7060.077,1026.583,7077.368,1024.965,7081.632Z" transform="translate(-1023.349 -7043.865)" fill="#4d4d4d"/>
      </g>
      <path id="Trazado_107030" data-name="Trazado 107030" d="M1061.461,7113.308a.684.684,0,0,1-.67-.547l-6.372-31.71c-3.115-10.05-8.576-24.56-10.914-25.139-.053-.013-.081-.02-.159.061-2.962,2.962.115,10.349.145,10.421l5.007,14.3a.683.683,0,1,1-1.289.451l-4.991-14.252c-.129-.3-3.451-8.269.161-11.881a1.482,1.482,0,0,1,1.453-.42c3.94.976,10.612,21.935,11.909,26.127l6.389,31.777a.684.684,0,0,1-.536.805A.668.668,0,0,1,1061.461,7113.308Z" transform="translate(-1016.985 -6904.744)" fill="#4d4d4d"/>
      <path id="Trazado_107031" data-name="Trazado 107031" d="M1119.037,7160.255a.684.684,0,0,1-.672-.567L1094.323,7020.4a.684.684,0,0,1,.559-.79.7.7,0,0,1,.79.558l24.042,139.284a.685.685,0,0,1-.559.79A.626.626,0,0,1,1119.037,7160.255Z" transform="translate(-997.326 -6917.554)" fill="#4d4d4d"/>
    </g>
  </g>
</svg>
