<svg xmlns="http://www.w3.org/2000/svg" width="281.739" height="521.232" viewBox="0 0 281.739 521.232">
  <g id="Grupo_55734" data-name="Grupo 55734" transform="translate(-838.463 -8932.681)">
    <rect id="Rectángulo_9789" data-name="Rectángulo 9789" width="281.739" height="521.232" rx="14.609" transform="translate(838.463 8932.681)" fill="#fff"/>
    <g id="Grupo_55733" data-name="Grupo 55733">
      <g id="Grupo_55718" data-name="Grupo 55718">
        <path id="Trazado_107246" data-name="Trazado 107246" d="M1056.762,9337.468c0-.027.006-.056.008-.085h-.009l-1.464-85.456s-.194-34.62-9.724-51.541l-7.2-17.893v-6.03l6.518-40.712,8.861-40.544V9079.13s2.887-7.916,3.127-20.9-.961-18.18-2.886-23.5l-18.519-6.679-14.271-5.07s-11.865-2.8-11.384-17.148l-.8-22.592-15.032,3.1-15.032-3.1.08,22.55c.481,14.346-12.266,17.19-12.266,17.19l-14.27,5.07L934.584,9033c-1.925,5.318-3.728,12.244-3.488,25.229s3.127,20.9,3.127,20.9v16.077l8.862,40.543,1.292,5.911,7.449,34.8v7s-13.226,28.007-14.587,50.374v102.148c0,.106,0,.224,0,.349l1.958,8.561c3.229,6.915,11.679,14.737,33.575,13.236l41.3.051s32.595,4.288,40.862-13.287Z" fill="#fff"/>
        <path id="Trazado_107247" data-name="Trazado 107247" d="M1022.307,9358.991a71.933,71.933,0,0,1-8.288-.436l-41.247-.048c-22.133,1.512-30.658-6.478-33.915-13.454l-1.983-8.634c-.012-.208-.012-.329-.01-.439V9233.839c1.315-21.631,13.819-48.808,14.587-50.457v-6.919l-8.733-40.632-8.862-40.543-.009-16.094c-.273-.787-2.9-8.669-3.127-20.958-.243-13.133,1.639-20.191,3.511-25.364l.066-.182,18.1-5,14.243-5.063c.552-.127,12.483-2.966,12.018-16.825l-.082-23.021,15.409,3.179,15.391-3.175.817,23.034c-.465,13.885,10.623,16.685,11.1,16.8l14.31,5.082,18.686,6.738.059.164c2.065,5.705,3.14,11.161,2.91,23.634-.229,12.289-2.855,20.171-3.128,20.958v16.014l-8.871,40.623-6.513,40.692.005,5.9,7.169,17.828c9.446,16.766,9.75,51.331,9.752,51.678l1.456,85.083h.032l-.034.549-1.833,7.43C1049.624,9357.051,1032.638,9358.991,1022.307,9358.991Zm-49.56-1.232,41.321.05c.373.047,32.467,4.051,40.523-13.071l1.8-7.313v-.034l-1.462-85.456c0-.349-.3-34.723-9.677-51.363L1038,9182.493v-6.03l6.522-40.771,8.865-40.564-.008-16.063.022-.062c.029-.08,2.868-8.017,3.106-20.78.226-12.233-.81-17.637-2.805-23.2l-18.353-6.618-14.27-5.07c-.082-.017-12.118-3.03-11.633-17.515l-.786-22.121-14.672,3.026-14.655-3.022.078,22.087c.486,14.478-12.43,17.529-12.56,17.558l-14.225,5.059-17.757,4.9c-1.827,5.094-3.639,12.059-3.4,24.913.238,12.764,3.076,20.7,3.105,20.78l.022.127v16.079l10.146,46.373,7.45,34.8.008,7.164-.036.077c-.132.279-13.21,28.2-14.552,50.236v102.125c0,.109,0,.223,0,.344l1.948,8.48C942.693,9351.5,951.021,9359.249,972.747,9357.759Z" fill="#999"/>
      </g>
      <g id="Grupo_55719" data-name="Grupo 55719">
        <path id="Trazado_107248" data-name="Trazado 107248" d="M1036.625,9183.967l-2.24-2.64,2.1-2.271-2-2.563.722-.562,2.475,3.176-2.078,2.248,1.716,2.023Z" fill="#999"/>
        <path id="Trazado_107249" data-name="Trazado 107249" d="M1034.1,9183.967l-2.24-2.64,2.1-2.271-2-2.563.722-.562,2.475,3.176-2.078,2.248,1.716,2.023Z" fill="#999"/>
        <path id="Trazado_107250" data-name="Trazado 107250" d="M1031.583,9183.967l-2.24-2.64,2.1-2.271-2-2.563.722-.562,2.476,3.176-2.078,2.248,1.716,2.023Z" fill="#999"/>
        <path id="Trazado_107251" data-name="Trazado 107251" d="M1029.062,9183.967l-2.24-2.64,2.1-2.271-2-2.563.722-.562,2.476,3.176-2.078,2.248,1.716,2.023Z" fill="#999"/>
        <path id="Trazado_107252" data-name="Trazado 107252" d="M1026.541,9183.967l-2.24-2.64,2.1-2.271-2-2.563.722-.562,2.475,3.176-2.078,2.248,1.716,2.023Z" fill="#999"/>
        <path id="Trazado_107253" data-name="Trazado 107253" d="M1024.02,9183.967l-2.24-2.64,2.1-2.271-2-2.563.722-.562,2.476,3.176-2.078,2.248,1.716,2.023Z" fill="#999"/>
        <path id="Trazado_107254" data-name="Trazado 107254" d="M1021.5,9183.967l-2.24-2.64,2.1-2.271-2-2.563.722-.562,2.476,3.176-2.078,2.248,1.716,2.023Z" fill="#999"/>
        <path id="Trazado_107255" data-name="Trazado 107255" d="M1018.978,9183.967l-2.24-2.64,2.1-2.271-2-2.563.722-.562,2.476,3.176-2.078,2.248,1.716,2.023Z" fill="#999"/>
        <path id="Trazado_107256" data-name="Trazado 107256" d="M1016.457,9183.967l-2.24-2.64,2.1-2.271-2-2.563.722-.562,2.476,3.176-2.078,2.248,1.716,2.023Z" fill="#999"/>
        <path id="Trazado_107257" data-name="Trazado 107257" d="M1013.936,9183.967l-2.24-2.64,2.1-2.271-2-2.563.722-.562,2.476,3.176-2.078,2.248,1.716,2.023Z" fill="#999"/>
        <path id="Trazado_107258" data-name="Trazado 107258" d="M1011.415,9183.967l-2.24-2.64,2.1-2.271-2-2.563.722-.562,2.476,3.176-2.078,2.248,1.716,2.023Z" fill="#999"/>
        <path id="Trazado_107259" data-name="Trazado 107259" d="M1008.894,9183.967l-2.24-2.64,2.1-2.271-2-2.563.722-.562,2.476,3.176-2.078,2.248,1.716,2.023Z" fill="#999"/>
        <path id="Trazado_107260" data-name="Trazado 107260" d="M1006.373,9183.967l-2.24-2.64,2.1-2.271-2-2.563.722-.562,2.476,3.176-2.078,2.248,1.716,2.023Z" fill="#999"/>
        <path id="Trazado_107261" data-name="Trazado 107261" d="M1003.852,9183.967l-2.24-2.64,2.1-2.271-2-2.563.722-.562,2.476,3.176-2.078,2.248,1.716,2.023Z" fill="#999"/>
        <path id="Trazado_107262" data-name="Trazado 107262" d="M1001.331,9183.967l-2.24-2.64,2.1-2.271-2-2.563.722-.562,2.476,3.176-2.078,2.248,1.716,2.023Z" fill="#999"/>
        <path id="Trazado_107263" data-name="Trazado 107263" d="M998.81,9183.967l-2.24-2.64,2.1-2.271-2-2.563.722-.562,2.476,3.176-2.078,2.248,1.716,2.023Z" fill="#999"/>
        <path id="Trazado_107264" data-name="Trazado 107264" d="M996.289,9183.967l-2.24-2.64,2.1-2.271-2-2.563.722-.562,2.476,3.176-2.078,2.248,1.716,2.023Z" fill="#999"/>
        <path id="Trazado_107265" data-name="Trazado 107265" d="M993.767,9183.967l-2.24-2.64,2.1-2.271-2-2.563.722-.562,2.476,3.176-2.078,2.248,1.716,2.023Z" fill="#999"/>
        <path id="Trazado_107266" data-name="Trazado 107266" d="M991.246,9183.967l-2.24-2.64,2.1-2.271-2-2.563.722-.562,2.476,3.176-2.078,2.248,1.716,2.023Z" fill="#999"/>
        <path id="Trazado_107267" data-name="Trazado 107267" d="M988.725,9183.967l-2.24-2.64,2.1-2.271-2-2.563.722-.562,2.476,3.176-2.078,2.248,1.716,2.023Z" fill="#999"/>
        <path id="Trazado_107268" data-name="Trazado 107268" d="M986.2,9183.967l-2.24-2.64,2.1-2.271-2-2.563.722-.562,2.476,3.176-2.078,2.248,1.716,2.023Z" fill="#999"/>
        <path id="Trazado_107269" data-name="Trazado 107269" d="M983.683,9183.967l-2.24-2.64,2.1-2.271-2-2.563.722-.562,2.476,3.176-2.078,2.248,1.716,2.023Z" fill="#999"/>
        <path id="Trazado_107270" data-name="Trazado 107270" d="M981.162,9183.967l-2.24-2.64,2.1-2.271-2-2.563.722-.562,2.476,3.176-2.078,2.248,1.716,2.023Z" fill="#999"/>
        <path id="Trazado_107271" data-name="Trazado 107271" d="M978.641,9183.967l-2.24-2.64,2.1-2.271-2-2.563.722-.562,2.476,3.176-2.078,2.248,1.716,2.023Z" fill="#999"/>
        <path id="Trazado_107272" data-name="Trazado 107272" d="M976.12,9183.967l-2.24-2.64,2.1-2.271-2-2.563.722-.562,2.476,3.176-2.078,2.248,1.716,2.023Z" fill="#999"/>
        <path id="Trazado_107273" data-name="Trazado 107273" d="M973.6,9183.967l-2.24-2.64,2.1-2.271-2-2.563.722-.562,2.476,3.176-2.078,2.248,1.716,2.023Z" fill="#999"/>
        <path id="Trazado_107274" data-name="Trazado 107274" d="M971.078,9183.967l-2.24-2.64,2.1-2.271-2-2.563.722-.562,2.476,3.176-2.078,2.248,1.716,2.023Z" fill="#999"/>
        <path id="Trazado_107275" data-name="Trazado 107275" d="M968.557,9183.967l-2.24-2.64,2.1-2.271-2-2.563.722-.562,2.476,3.176-2.078,2.248,1.716,2.023Z" fill="#999"/>
        <path id="Trazado_107276" data-name="Trazado 107276" d="M966.036,9183.967l-2.24-2.64,2.1-2.271-2-2.563.722-.562,2.476,3.176-2.078,2.248,1.716,2.023Z" fill="#999"/>
        <path id="Trazado_107277" data-name="Trazado 107277" d="M963.515,9183.967l-2.24-2.64,2.1-2.271-2-2.563.722-.562,2.476,3.176-2.078,2.248,1.716,2.023Z" fill="#999"/>
        <path id="Trazado_107278" data-name="Trazado 107278" d="M960.994,9183.967l-2.24-2.64,2.1-2.271-2-2.563.722-.562,2.476,3.176-2.078,2.248,1.716,2.023Z" fill="#999"/>
        <path id="Trazado_107279" data-name="Trazado 107279" d="M958.473,9183.967l-2.24-2.64,2.1-2.271-2-2.563.722-.562,2.476,3.176-2.078,2.248,1.716,2.023Z" fill="#999"/>
        <path id="Trazado_107280" data-name="Trazado 107280" d="M955.952,9183.967l-2.24-2.64,2.1-2.271-2-2.563.722-.562,2.476,3.176-2.078,2.248,1.716,2.023Z" fill="#999"/>
        <path id="Trazado_107281" data-name="Trazado 107281" d="M953.431,9183.967l-2.24-2.64,2.1-2.271-2-2.563.722-.562,2.476,3.176-2.078,2.248,1.716,2.023Z" fill="#999"/>
      </g>
      <path id="Trazado_107282" data-name="Trazado 107282" d="M992.745,8997.444c-10.725,0-14.008-4.147-14.152-4.334l.8-.606-.4.3.4-.3c.035.045,3.63,4.477,15.538,3.886,11.931-.595,13.906-5.084,13.924-5.129l.926.379c-.086.209-2.24,5.122-14.8,5.748Q993.812,8997.444,992.745,8997.444Z" fill="#999"/>
      <rect id="Rectángulo_9790" data-name="Rectángulo 9790" width="115.979" height="1" transform="translate(935.737 9101.636)" fill="#999"/>
      <rect id="Rectángulo_9791" data-name="Rectángulo 9791" width="119.213" height="1" transform="translate(934.223 9094.708)" fill="#999"/>
      <rect id="Rectángulo_9792" data-name="Rectángulo 9792" width="1" height="40.728" transform="translate(993.494 9102.136)" fill="#999"/>
      <path id="Trazado_107283" data-name="Trazado 107283" d="M1031.473,9095.212l-1-.009.447-45.018c1.174-19.474.41-23.184.377-23.333l.973-.227c.035.147.842,3.836-.351,23.595Z" fill="#999"/>
      <path id="Trazado_107284" data-name="Trazado 107284" d="M1033.014,9344.914c-.015-.438-1.567-44.3-2.541-90.642-.969-46.2-12.464-70.545-12.58-70.784l-.05-.219v-7l5.958-32.736,6.679-41.476.987.158-6.68,41.486-5.951,32.658.007,6.8c.833,1.8,11.688,26.2,12.63,71.092.973,46.334,2.526,90.19,2.541,90.627Z" fill="#999"/>
      <path id="Trazado_107285" data-name="Trazado 107285" d="M958.911,9344.9l-.194-41.038c-.01-.342-.96-35.5.2-60.319,1.131-24.331,10.959-58.376,11.474-60.148v-7.463l-6.71-32.968-6.507-40.748.988-.158,6.5,40.729,6.725,33.095-.02,7.728c-.1.35-10.305,35.239-11.456,59.98-1.152,24.785-.2,59.906-.193,60.257l.194,41.05Z" fill="#999"/>
      <rect id="Rectángulo_9793" data-name="Rectángulo 9793" width="1" height="354.989" transform="translate(993.797 8989.925) rotate(-0.494)" fill="#999"/>
      <path id="Trazado_107286" data-name="Trazado 107286" d="M957.711,9095.212l-.447-45.016c-1.192-19.734-.385-23.423-.35-23.57l.972.23-.486-.115.487.111c-.033.149-.8,3.859.376,23.309l.448,45.042Z" fill="#999"/>
      <path id="Trazado_107287" data-name="Trazado 107287" d="M994.444,9032.469c-15.183,0-19.677-14.453-19.721-14.6l.958-.287c.042.139,4.339,13.886,18.764,13.886h.125c14.519-.079,18.189-13.307,18.338-13.871l.967.255c-.038.146-4,14.533-19.3,14.616Z" fill="#999"/>
      <path id="Trazado_107288" data-name="Trazado 107288" d="M1031.053,9099.1l3.686-4.044,2.161.168s.922.1.738-.727l-2.428-3s-1.136-1.264-1.505.188l-.123,2.528-3.29,3.965-.4,1.248Z" fill="#666"/>
      <path id="Trazado_107289" data-name="Trazado 107289" d="M958.088,9099.1l-3.687-4.044-2.161.168s-.921.1-.737-.727l2.427-3s1.137-1.264,1.506.188l.123,2.528,3.29,3.965.4,1.248Z" fill="#666"/>
      <g id="Grupo_55720" data-name="Grupo 55720" opacity="0.33">
        <line id="Línea_226" data-name="Línea 226" x2="86.064" transform="translate(951.826 9176.463)" fill="#fff"/>
        <rect id="Rectángulo_9794" data-name="Rectángulo 9794" width="86.064" height="1" transform="translate(951.826 9175.963)"/>
      </g>
      <g id="Grupo_55721" data-name="Grupo 55721" opacity="0.33">
        <line id="Línea_227" data-name="Línea 227" x2="86.064" transform="translate(951.826 9183.465)" fill="#fff"/>
        <rect id="Rectángulo_9795" data-name="Rectángulo 9795" width="86.064" height="1" transform="translate(951.826 9182.966)"/>
      </g>
      <path id="Trazado_107290" data-name="Trazado 107290" d="M935.315,9079.252l-.965-.259c3.806-14.107.342-45.241.306-45.553l.994-.113C935.685,9033.642,939.171,9064.963,935.315,9079.252Z" opacity="0.33"/>
      <path id="Trazado_107291" data-name="Trazado 107291" d="M1053.044,9079.252c-3.857-14.292-.053-44.452-.014-44.754l.992.127c-.039.3-3.818,30.264-.013,44.368Z" opacity="0.33"/>
      <rect id="Rectángulo_9796" data-name="Rectángulo 9796" width="11.826" height="73.662" transform="translate(990.746 9358.646)" fill="#404040"/>
      <path id="Trazado_107292" data-name="Trazado 107292" d="M989.608,9408.983c-21.327,0-39.424-.215-44.554-5.763a5.527,5.527,0,0,1-1.5-4.344c.525-6.653,17.851-10.026,51.5-10.026,28.176,0,51.5.759,51.5,10.066,0,10.064-22.727,10.064-51.5,10.064h-5.443Zm5.443-19.133c-41.147,0-50.174,4.951-50.5,9.105a4.505,4.505,0,0,0,1.24,3.587c5.044,5.456,24.231,5.435,46.483,5.439h2.779c27.1,0,50.5,0,50.5-9.064C1045.551,9390.544,1021.663,9389.851,995.051,9389.851Z" fill="#404040"/>
      <g id="Grupo_55722" data-name="Grupo 55722">
        <rect id="Rectángulo_9797" data-name="Rectángulo 9797" width="73.736" height="0.999" transform="matrix(0.045, -0.999, 0.999, 0.045, 1018.676, 9432.284)" fill="#404040"/>
        <rect id="Rectángulo_9798" data-name="Rectángulo 9798" width="73.801" height="1" transform="matrix(0.061, -0.998, 0.998, 0.061, 1022.013, 9432.278)" fill="#404040"/>
        <rect id="Rectángulo_9799" data-name="Rectángulo 9799" width="76.18" height="1" transform="matrix(0.084, -0.996, 0.996, 0.084, 1033.003, 9432.264)" fill="#404040"/>
        <rect id="Rectángulo_9800" data-name="Rectángulo 9800" width="77.934" height="1.001" transform="translate(1036.199 9432.258) rotate(-84.401)" fill="#404040"/>
        <rect id="Rectángulo_9801" data-name="Rectángulo 9801" width="84.006" height="1" transform="matrix(0.111, -0.994, 0.994, 0.111, 1042.533, 9432.254)" fill="#404040"/>
        <rect id="Rectángulo_9802" data-name="Rectángulo 9802" width="73.663" height="1" transform="translate(1003.929 9432.306) rotate(-89.776)" fill="#404040"/>
        <rect id="Rectángulo_9803" data-name="Rectángulo 9803" width="73.664" height="1" transform="translate(1006.654 9432.303) rotate(-89.552)" fill="#404040"/>
      </g>
      <g id="Grupo_55723" data-name="Grupo 55723">
        <rect id="Rectángulo_9804" data-name="Rectángulo 9804" width="0.999" height="73.736" transform="translate(969.116 9358.668) rotate(-2.569)" fill="#404040"/>
        <rect id="Rectángulo_9805" data-name="Rectángulo 9805" width="1" height="73.801" transform="translate(964.595 9358.676) rotate(-3.512)" fill="#404040"/>
        <rect id="Rectángulo_9806" data-name="Rectángulo 9806" width="1" height="76.18" transform="translate(951.714 9356.437) rotate(-4.8)" fill="#404040"/>
        <rect id="Rectángulo_9807" data-name="Rectángulo 9807" width="1.001" height="78.686" transform="translate(947.23 9354.045) rotate(-5.594)" fill="#404040"/>
        <rect id="Rectángulo_9808" data-name="Rectángulo 9808" width="1.001" height="87.97" transform="translate(938.7 9344.953) rotate(-6.459)" fill="#404040"/>
        <rect id="Rectángulo_9809" data-name="Rectángulo 9809" width="1" height="73.663" transform="translate(986.854 9358.647) rotate(-0.27)" fill="#404040"/>
        <rect id="Rectángulo_9810" data-name="Rectángulo 9810" width="1" height="73.664" transform="translate(983.898 9358.649) rotate(-0.406)" fill="#404040"/>
      </g>
      <g id="Grupo_55724" data-name="Grupo 55724">
        <path id="Trazado_107293" data-name="Trazado 107293" d="M993.585,9305.539l4.37-3.4,2.127.538s.9.252.86-.6l-1.907-3.41s-.918-1.455-1.535-.068l-.555,2.5-3.961,3.392-.61,1.178Z" fill="#666"/>
      </g>
      <g id="Grupo_55725" data-name="Grupo 55725">
        <path id="Trazado_107294" data-name="Trazado 107294" d="M993.585,9355.477l4.37-3.4,2.127.539s.9.252.86-.6l-1.907-3.41s-.918-1.454-1.535-.068l-.555,2.5-3.961,3.391-.61,1.179Z" fill="#666"/>
      </g>
      <g id="Grupo_55726" data-name="Grupo 55726">
        <path id="Trazado_107295" data-name="Trazado 107295" d="M994.274,9243.13l4.371-3.4,2.126.538s.9.252.86-.6l-1.907-3.41s-.917-1.455-1.534-.069l-.556,2.5-3.961,3.391-.609,1.178Z" fill="#666"/>
      </g>
      <g id="Grupo_55727" data-name="Grupo 55727" opacity="0.74">
        <path id="Trazado_107296" data-name="Trazado 107296" d="M1001.633,9155.438s-3.508,17.811-4.285,32.774-1.649,79.66-1.649,79.66l.871,90.29.089,64.927s-42.609-.8-54.609,2.467-27.218-2.467-27.218-2.467l-12.956-7.826,8.087-122.608s3.391-59.479,3.131-85.826-.261-55.826-.261-55.826,8.869,11.479,22.7,6,41.652-1.3,41.652-1.3S999.911,9158.568,1001.633,9155.438Z" fill="#999"/>
        <path id="Trazado_107297" data-name="Trazado 107297" d="M933.728,9427.076a60.62,60.62,0,0,1-19.072-3.519l-13.039-7.865a.5.5,0,0,1-.24-.461l8.087-122.608c.034-.59,3.387-59.759,3.129-85.788-.257-26.05-.26-55.537-.26-55.832a.5.5,0,0,1,.9-.3c.353.456,8.809,11.11,22.115,5.841,13.8-5.465,40.771-1.506,41.912-1.334,8.646,1.089,22.8,2.055,23.939-.008a.5.5,0,0,1,.929.338c-.035.177-3.51,17.949-4.276,32.705-.766,14.783-1.639,78.993-1.648,79.639l.871,90.279.089,64.931a.5.5,0,0,1-.15.358.522.522,0,0,1-.36.143c-.426-.01-42.675-.766-54.467,2.45A32.3,32.3,0,0,1,933.728,9427.076Zm-31.334-12.082,12.7,7.669c.067.016,15.126,5.6,26.827,2.412,11.364-3.1,49.157-2.579,54.239-2.493l-.088-64.418-.871-90.287c.009-.658.882-64.887,1.65-79.69a272.291,272.291,0,0,1,4.063-31.633c-4.642,1.92-20.36.075-23.794-.358-.288-.043-27.864-4.093-41.4,1.272-11.51,4.559-19.75-2.441-22.379-5.158,0,6,.033,31.592.259,54.516.258,26.062-3.1,85.264-3.131,85.858Z" fill="#4d4d4d"/>
      </g>
      <path id="Trazado_107298" data-name="Trazado 107298" d="M978.5,9242.613c-6.437,0-15.135-.038-26.748-.153-34.841-.346-39.392-3.449-39.569-3.581a.5.5,0,0,1,.588-.807c.208.138,5.029,3.051,38.99,3.388,34.645.343,43.322,0,43.406,0a.5.5,0,0,1,.52.479.5.5,0,0,1-.479.521C995.15,9242.461,991.289,9242.613,978.5,9242.613Z" fill="#4d4d4d"/>
      <path id="Trazado_107299" data-name="Trazado 107299" d="M930.137,9426.911a.5.5,0,0,1-.5-.5V9378.83l-2.4-220.353a.5.5,0,0,1,.494-.506h.006a.5.5,0,0,1,.5.494l2.4,220.358v47.587A.5.5,0,0,1,930.137,9426.911Z" fill="#4d4d4d"/>
      <path id="Trazado_107300" data-name="Trazado 107300" d="M935.7,9205.938a.5.5,0,0,1-.5-.5V9163a.5.5,0,0,1,1,0v42.436A.5.5,0,0,1,935.7,9205.938Z" fill="#4d4d4d"/>
      <g id="Grupo_55728" data-name="Grupo 55728">
        <ellipse id="Elipse_4328" data-name="Elipse 4328" cx="15.032" cy="6.678" rx="15.032" ry="6.678" transform="translate(978.958 8976.564)" fill="#fff"/>
        <path id="Trazado_107301" data-name="Trazado 107301" d="M993.99,8990.42c-8.71,0-15.532-3.153-15.532-7.177s6.822-7.179,15.532-7.179,15.531,3.152,15.531,7.179S1002.7,8990.42,993.99,8990.42Zm0-13.355c-7.877,0-14.532,2.828-14.532,6.179s6.655,6.177,14.532,6.177,14.531-2.829,14.531-6.177S1001.867,8977.064,993.99,8977.064Z" fill="#999"/>
      </g>
      <g id="Grupo_55732" data-name="Grupo 55732">
        <g id="Grupo_55729" data-name="Grupo 55729">
          <path id="Trazado_107302" data-name="Trazado 107302" d="M1001.09,8964.24c0-5.252-3.1-9.51-6.913-9.51s-6.912,4.258-6.912,9.51c0,4.107,1.9,7.6,4.547,8.927v9.093h5.223v-9.367C999.425,8971.4,1001.09,8968.089,1001.09,8964.24Z" fill="#fff"/>
          <path id="Trazado_107303" data-name="Trazado 107303" d="M997.535,8982.76h-6.223v-9.294c-2.732-1.543-4.548-5.2-4.548-9.226,0-5.521,3.326-10.01,7.413-10.01s7.413,4.489,7.413,10.01c0,3.764-1.583,7.228-4.055,8.923Zm-5.223-1h4.223v-9.143l.234-.148c2.322-1.453,3.821-4.683,3.821-8.229,0-4.968-2.876-9.01-6.413-9.01s-6.413,4.042-6.413,9.01c0,3.79,1.717,7.2,4.273,8.479l.275.14Z" fill="#999"/>
        </g>
        <g id="Grupo_55730" data-name="Grupo 55730">
          <rect id="Rectángulo_9811" data-name="Rectángulo 9811" width="16.211" height="2.78" rx="1.209" transform="translate(986.349 8966.21)" fill="#fff"/>
          <path id="Trazado_107304" data-name="Trazado 107304" d="M1001.352,8969.49H987.558a1.712,1.712,0,0,1-1.709-1.708v-.363a1.711,1.711,0,0,1,1.709-1.709h13.794a1.71,1.71,0,0,1,1.708,1.709v.363A1.711,1.711,0,0,1,1001.352,8969.49Zm-13.794-2.78a.711.711,0,0,0-.709.709v.363a.71.71,0,0,0,.709.708h13.794a.709.709,0,0,0,.708-.708v-.363a.709.709,0,0,0-.708-.709Z" fill="#999"/>
        </g>
        <g id="Grupo_55731" data-name="Grupo 55731">
          <rect id="Rectángulo_9812" data-name="Rectángulo 9812" width="16.211" height="2.78" rx="1.209" transform="translate(986.349 8960.901)" fill="#fff"/>
          <path id="Trazado_107305" data-name="Trazado 107305" d="M1001.352,8964.182H987.558a1.711,1.711,0,0,1-1.709-1.709v-.362a1.711,1.711,0,0,1,1.709-1.708h13.794a1.71,1.71,0,0,1,1.708,1.708v.362A1.71,1.71,0,0,1,1001.352,8964.182Zm-13.794-2.779a.709.709,0,0,0-.709.708v.362a.71.71,0,0,0,.709.709h13.794a.708.708,0,0,0,.708-.709v-.362a.708.708,0,0,0-.708-.708Z" fill="#999"/>
        </g>
      </g>
    </g>
  </g>
</svg>
