<svg xmlns="http://www.w3.org/2000/svg" width="318.084" height="554.046" viewBox="0 0 318.084 554.046">
  <g id="Grupo_55562" data-name="Grupo 55562" transform="translate(-587.332 -6429.217)">
    <rect id="Rectángulo_9679" data-name="Rectángulo 9679" width="318.084" height="554.046" rx="14.304" transform="translate(587.332 6429.217)" fill="#fff"/>
    <g id="Grupo_55561" data-name="Grupo 55561" transform="translate(608.466 6442.898)">
      <g id="Grupo_55549" data-name="Grupo 55549" transform="translate(49.118 8.275)">
        <g id="Grupo_55547" data-name="Grupo 55547" transform="translate(0.594 0.175)">
          <g id="Grupo_55543" data-name="Grupo 55543" transform="translate(20.464 26.052)">
            <path id="Trazado_106718" data-name="Trazado 106718" d="M811.16,6537.6s-15.344-6.621-21.119-10.482c0,0-5.614-2.707-5.849-14.954s.707-20.726,2.591-26.5l2.355-8.95s-6.83-10.6-25.908-13.071c0,0-12.836-1.179-15.78,1.884,0,0-7.772,29.087-18.37,42.041,0,0-2.238,8.6-25.791,13.424L675.5,6527s-12.836,2.707-14.839,13.188c0,0-7.772,8.361-3.533,39.449l1.178,6.359,13.661,70.422,19.9,78.9.825,2.826v7.89s-30.1,30.707-32.692,54.259-8.175,151.982-8.175,151.982,91.135,7.432,145.293,0l7.06-123.742s2.6-27.125-4.83-41.988l-15.514-34.673a98.543,98.543,0,0,1,2-11.3l9.34-38.306,13.4-42.079,7.537-13.9s9.813-12.795,8.557-23.473l-3.611-12.561s-.47-16.486.157-22.61l4.554-16.33,1.57-14.76s1.1-6.752-3.454-10.52A114.281,114.281,0,0,0,811.16,6537.6Z" transform="translate(-651.268 -6462.883)" fill="#fff"/>
            <path id="Trazado_106719" data-name="Trazado 106719" d="M735.7,6956.248c-42.757,0-83.142-3.234-83.747-3.283l-.514-.041.023-.515c.057-1.285,5.614-128.717,8.178-152.017,2.486-22.595,30.359-51.993,32.69-54.415v-7.6l-.8-2.753-19.906-78.918-13.666-70.45-1.181-6.364c-4.008-29.406,2.594-38.619,3.563-39.789,2.132-10.59,15.094-13.442,15.226-13.471l27.79-6c22.825-4.681,25.362-12.96,25.385-13.043l.1-.2c10.4-12.716,18.192-41.551,18.268-41.84l.131-.232c3.085-3.211,15.68-2.1,16.213-2.047,19.125,2.479,26.025,12.873,26.31,13.314l.127.2-2.416,9.18c-1.96,6-2.8,14.613-2.573,26.349.225,11.71,5.5,14.46,5.55,14.486,5.732,3.825,20.941,10.4,21.095,10.469l.054.028a115.69,115.69,0,0,1,12.793,8.491c4.736,3.919,3.689,10.73,3.642,11.018l-1.567,14.731-4.571,16.415c-.58,5.735-.17,21.228-.137,22.385l3.591,12.5c1.285,10.854-8.24,23.417-8.646,23.946l-7.491,13.824-13.357,41.987-9.33,38.271a96.209,96.209,0,0,0-1.97,11.091L800,6786.482c7.4,14.811,4.9,41.989,4.873,42.261L797.791,6952.9l-.435.06C779.4,6955.426,757.243,6956.248,735.7,6956.248Zm-83.148-4.308c7.421.578,92.794,6.979,144.228.021l7.035-123.3c.026-.29,2.5-27.168-4.775-41.72l-15.585-34.828.019-.146a96.939,96.939,0,0,1,2.016-11.38l9.334-38.291,13.407-42.114L815.8,6646.2c.142-.2,9.713-12.822,8.5-23.157l-3.615-12.607c-.02-.676-.466-16.592.158-22.681l4.571-16.419,1.554-14.672c.014-.094.994-6.528-3.265-10.053a113.463,113.463,0,0,0-12.618-8.372c-.95-.411-15.494-6.719-21.174-10.516-.177-.08-5.846-2.956-6.087-15.391-.228-11.857.628-20.583,2.618-26.671l2.282-8.682c-1.028-1.411-8.2-10.415-25.4-12.645-3.437-.316-12.806-.624-15.233,1.636-.607,2.216-8.233,29.549-18.37,42.016-.375,1.129-3.782,9.1-26.161,13.692l-27.787,6c-.127.027-12.515,2.765-14.427,12.769l-.027.148-.105.112c-.074.084-7.535,8.655-3.4,39.016l1.175,6.334,13.659,70.418,19.9,78.87.84,2.957v8.108l-.152.156c-.3.306-30,30.845-32.543,53.942C658.22,6823.021,652.937,6943.022,652.548,6951.94Z" transform="translate(-651.434 -6463.043)" fill="#999"/>
          </g>
          <ellipse id="Elipse_4317" data-name="Elipse 4317" cx="3.18" cy="4.769" rx="3.18" ry="4.769" transform="translate(35.391 123.845)" fill="#999"/>
          <g id="Grupo_55544" data-name="Grupo 55544" transform="translate(128.203)">
            <path id="Trazado_106720" data-name="Trazado 106720" d="M733.529,6466.027v12.718a6.413,6.413,0,0,0,5.849.433l.118-13.15s7.767-1.767,7.693-10.128c0,0,1.1-11.226-10.206-10.756s-9.42,13.5-9.42,13.5S729.6,6465.242,733.529,6466.027Z" transform="translate(-726.911 -6444.595)" fill="#fff"/>
            <path id="Trazado_106721" data-name="Trazado 106721" d="M737.015,6480.381a6.759,6.759,0,0,1-3.632-1.038l-.228-.16V6466.6c-3.9-1.182-5.859-7.366-5.943-7.638-.057-.353-.936-6.74,2.491-10.87a9.689,9.689,0,0,1,7.417-3.324c3.488-.154,6.223.78,8.089,2.755,3.145,3.326,2.691,8.372,2.669,8.585a10.661,10.661,0,0,1-7.695,10.478l-.117,13.106-.328.136A7.12,7.12,0,0,1,737.015,6480.381Zm-2.792-1.776a5.854,5.854,0,0,0,4.782.362l.12-13.206.41-.1a9.585,9.585,0,0,0,7.279-9.6c.007-.1.426-4.841-2.385-7.809-1.645-1.737-4.1-2.553-7.265-2.415a8.665,8.665,0,0,0-6.635,2.936c-3.125,3.759-2.288,9.894-2.279,9.955h0c.007,0,1.981,6.221,5.542,6.933l.43.086Z" transform="translate(-727.07 -6444.754)" fill="#999"/>
          </g>
          <path id="Trazado_106722" data-name="Trazado 106722" d="M778.318,6600.488l-5.9-22.336c-4.91-15.666-5.752-24.685-7.027-38.335-.164-1.767-.336-3.611-.526-5.557-1.6-16.441-7.374-20.891-7.433-20.936l.631-.863c.252.184,6.212,4.693,7.864,21.694.189,1.947.362,3.794.527,5.562,1.268,13.583,2.105,22.558,6.988,38.138l5.91,22.359Z" transform="translate(-585.981 -6416.016)" fill="#999"/>
          <path id="Trazado_106723" data-name="Trazado 106723" d="M736.334,6663.708q-2.013,0-4.158-.021c-36.806-.386-52.27-8.7-52.421-8.782l.516-.934c.15.08,15.424,8.266,51.917,8.647,32.218.32,41.5-3.382,41.585-3.42l.415.985C773.832,6660.333,765.488,6663.708,736.334,6663.708Z" transform="translate(-618.95 -6355.953)" fill="#999"/>
          <path id="Trazado_106724" data-name="Trazado 106724" d="M738.318,6671.927q-3.179,0-6.584-.125c-34.452-1.316-50.811-9.279-50.974-9.358l.476-.958c.161.08,16.348,7.94,50.539,9.248,23.717.913,39.476-3.4,39.632-3.446l.286,1.03C771.553,6668.358,758.514,6671.927,738.318,6671.927Z" transform="translate(-618.523 -6352.764)" fill="#999"/>
          <path id="Trazado_106725" data-name="Trazado 106725" d="M743.558,6523.593a25.875,25.875,0,0,1-5.641-.645c-19.046-4.231-34.89-24.6-35.047-24.808l.846-.65c.155.2,15.769,20.27,34.432,24.416,18.427,4.085,26.013-13.6,26.089-13.774l.987.409C765.152,6508.709,758.771,6523.593,743.558,6523.593Z" transform="translate(-609.139 -6422.37)" fill="#999"/>
          <path id="Trazado_106726" data-name="Trazado 106726" d="M754.445,6483.7c-20.019,0-36.551-11.525-36.724-11.647l.618-.871c.178.126,18.117,12.592,39.03,11.365l.064,1.064C756.43,6483.669,755.432,6483.7,754.445,6483.7Z" transform="translate(-602.835 -6433.539)" fill="#999"/>
          <path id="Trazado_106727" data-name="Trazado 106727" d="M754.037,6477.906c-17.949,0-34.909-11.561-35.1-11.693l.607-.879c.211.146,21.421,14.595,41.209,10.9l.194,1.052A37.724,37.724,0,0,1,754.037,6477.906Z" transform="translate(-602.319 -6436.019)" fill="#999"/>
          <path id="Trazado_106728" data-name="Trazado 106728" d="M722.175,6932.771l-1.068-.033,3.956-124.854c.776-17.526-.769-63.911-.785-64.377l0-.084.023-.081,5.242-18.175-1.412-72.3c.017-.334,1.759-29.44,4.248-43.284,2.443-13.585-8.114-27.546-8.22-27.686-.2-.4-13.817-30.061-20.966-51.975-7.022-21.522-18.174-24.113-18.286-24.136l.215-1.048c.482.1,11.851,2.672,19.086,24.852,7.131,21.854,20.724,51.461,20.859,51.757.388.484,10.888,14.378,8.363,28.425-2.477,13.782-4.215,42.824-4.232,43.116l1.416,72.423-5.262,18.246c.074,2.258,1.544,47.164.782,64.367Z" transform="translate(-616.765 -6419.294)" fill="#999"/>
          <path id="Trazado_106729" data-name="Trazado 106729" d="M743.8,6943.6l-1.068-.025c.034-1.419,3.356-142.048-2.692-164.059-5.981-21.756-1.2-39.118,1.662-49.491l7.381-65.689c.027-.395,2.8-42.089,1.065-60.672-.575-6.169-1.936-13.624-3.377-21.518-3.054-16.734-6.515-35.7-5.087-53.8l13.7-80.489,1.054.178-13.693,80.443c-1.412,17.909,2.036,36.8,5.078,53.474,1.446,7.916,2.81,15.395,3.389,21.609,1.742,18.669-1.036,60.447-1.064,60.867l-7.4,65.8c-2.846,10.349-7.582,27.533-1.679,49C747.156,6801.391,743.937,6937.8,743.8,6943.6Z" transform="translate(-594.581 -6443.438)" fill="#999"/>
          <path id="Trazado_106730" data-name="Trazado 106730" d="M680.975,6591.193l-4.057-13.259.433-.193c.36-.16,36.511-15.968,66.606-10.8,29.909,5.121,65.919,9.84,66.278,9.887l3.159.35.114.312a16.036,16.036,0,0,1-1.214,12.633l-.187.326L774.629,6584c-.407-.081-39.474-7.942-52.165-4.252-12.81,3.727-40.711,11.233-40.99,11.307Zm-2.756-12.662,3.477,11.362c3.826-1.031,28.619-7.72,40.471-11.169,12.931-3.759,51.044,3.9,52.659,4.23l36.719,6.31a15.292,15.292,0,0,0,1.06-11.1l-2.5-.276c-.372-.049-36.4-4.772-66.332-9.9C715.8,6563.2,682.4,6576.763,678.219,6578.531Z" transform="translate(-620.154 -6393.333)" fill="#999"/>
          <path id="Trazado_106731" data-name="Trazado 106731" d="M722.106,6672l-3.58-3.582,2.758-3.784-3.423-3.717.785-.723,4.019,4.362-2.736,3.753,2.935,2.934Z" transform="translate(-602.776 -6353.312)" fill="#999"/>
          <path id="Trazado_106732" data-name="Trazado 106732" d="M725.693,6672l-3.581-3.582,2.758-3.784-3.423-3.717.785-.723,4.019,4.362-2.736,3.753,2.935,2.934Z" transform="translate(-601.253 -6353.312)" fill="#999"/>
          <path id="Trazado_106733" data-name="Trazado 106733" d="M729.557,6672l-3.583-3.582,2.76-3.784-3.423-3.717.785-.723,4.019,4.362-2.738,3.753,2.935,2.934Z" transform="translate(-599.614 -6353.312)" fill="#999"/>
          <path id="Trazado_106734" data-name="Trazado 106734" d="M733.211,6672l-3.581-3.582,2.758-3.784-3.423-3.717.785-.723,4.019,4.362-2.736,3.753,2.935,2.934Z" transform="translate(-598.063 -6353.312)" fill="#999"/>
          <path id="Trazado_106735" data-name="Trazado 106735" d="M736.732,6671.4l-3.581-3.582,2.758-3.783-3.423-3.718.785-.723,4.019,4.362-2.736,3.753,2.935,2.934Z" transform="translate(-596.568 -6353.568)" fill="#999"/>
          <path id="Trazado_106736" data-name="Trazado 106736" d="M702.528,6671.045l-3.236-3.812,3.109-3.361-3.035-3.892.843-.657,3.592,4.607-3.081,3.333,2.624,3.093Z" transform="translate(-610.657 -6353.681)" fill="#999"/>
          <path id="Trazado_106737" data-name="Trazado 106737" d="M706.1,6671.4l-3.236-3.812,3.109-3.361-3.037-3.892.843-.657,3.593,4.607-3.081,3.333,2.624,3.093Z" transform="translate(-609.142 -6353.53)" fill="#999"/>
          <path id="Trazado_106738" data-name="Trazado 106738" d="M709.94,6671.786l-3.236-3.812,3.109-3.361-3.035-3.892.843-.657,3.592,4.607L708.132,6668l2.624,3.092Z" transform="translate(-607.511 -6353.367)" fill="#999"/>
          <path id="Trazado_106739" data-name="Trazado 106739" d="M691.373,6668.7l-3.236-3.812,3.109-3.361-3.037-3.892.843-.656,3.593,4.606-3.081,3.333,2.624,3.093Z" transform="translate(-615.392 -6354.678)" fill="#999"/>
          <path id="Trazado_106740" data-name="Trazado 106740" d="M687.878,6667.7l-3.234-3.812,3.109-3.36-3.037-3.893.843-.656,3.593,4.606-3.081,3.333,2.622,3.093Z" transform="translate(-616.875 -6355.103)" fill="#999"/>
          <path id="Trazado_106741" data-name="Trazado 106741" d="M685,6666.713l-3.236-3.812,3.109-3.361-3.035-3.892.843-.657,3.592,4.607-3.081,3.333,2.624,3.092Z" transform="translate(-618.098 -6355.521)" fill="#999"/>
          <path id="Trazado_106742" data-name="Trazado 106742" d="M694.941,6669.656l-3.234-3.814,3.109-3.36-3.037-3.893.843-.656,3.593,4.607-3.081,3.333,2.622,3.094Z" transform="translate(-613.877 -6354.271)" fill="#999"/>
          <path id="Trazado_106743" data-name="Trazado 106743" d="M698.785,6670.04l-3.236-3.814,3.109-3.36-3.035-3.891.843-.657,3.592,4.606-3.081,3.333,2.624,3.094Z" transform="translate(-612.246 -6354.108)" fill="#999"/>
          <path id="Trazado_106744" data-name="Trazado 106744" d="M713.578,6672.149l-3.236-3.813,3.109-3.36-3.037-3.893.843-.656,3.593,4.607-3.081,3.333,2.624,3.092Z" transform="translate(-605.967 -6353.213)" fill="#999"/>
          <path id="Trazado_106745" data-name="Trazado 106745" d="M717.139,6671.921l-3.236-3.813,3.109-3.36-3.035-3.893.843-.656,3.592,4.606-3.081,3.333,2.624,3.093Z" transform="translate(-604.456 -6353.31)" fill="#999"/>
          <path id="Trazado_106746" data-name="Trazado 106746" d="M744.462,6669.116l-3.821-3.067,2.864-3.154-3.446-3.006.7-.8,4.269,3.721-2.834,3.12,2.934,2.358Z" transform="translate(-593.354 -6353.783)" fill="#999"/>
          <path id="Trazado_106747" data-name="Trazado 106747" d="M741.186,6669.72l-3.639-3.14,2.745-3.247-3.326-3.116.729-.778,4.069,3.809-2.717,3.216,2.838,2.447Z" transform="translate(-594.667 -6353.633)" fill="#999"/>
          <path id="Trazado_106748" data-name="Trazado 106748" d="M691.094,6894.729l-1.066-.072,12.529-186.595,2.119-71.1v-64.731h1.068v64.747l-2.12,71.137Z" transform="translate(-614.589 -6390.648)" fill="#999"/>
          <path id="Trazado_106749" data-name="Trazado 106749" d="M669.552,6911.284l-1.068-.052c.046-.912,4.585-91.525,5.645-130.79,1.036-38.327,16.156-70.057,17.118-72.035l.778-10.126L667.152,6557.32l1.051-.186,24.9,141.092-.852,10.561c-.16.322-15.994,32.541-17.052,71.684C674.138,6819.747,669.6,6910.373,669.552,6911.284Z" transform="translate(-624.299 -6397.054)" fill="#999"/>
          <g id="Grupo_55545" data-name="Grupo 55545" transform="translate(41.527 160.081)">
            <rect id="Rectángulo_9680" data-name="Rectángulo 9680" width="1.068" height="1.424" transform="translate(0 0.184) rotate(-9.959)" fill="#999"/>
            <path id="Trazado_106750" data-name="Trazado 106750" d="M668.528,6905.271l-1.068-.038.1-2.852,1.068.038Zm.2-5.7-1.068-.038.105-2.847,1.068.038Zm.209-5.688-1.068-.042.105-2.845,1.068.039Zm.211-5.692-1.068-.039.108-2.844,1.068.041Zm.218-5.688-1.068-.039.108-2.843,1.068.042Zm.218-5.684-1.068-.041.111-2.842,1.068.041Zm.222-5.685-1.068-.042.112-2.84,1.068.041Zm.225-5.683-1.068-.042.115-2.844,1.068.045Zm.234-5.682-1.068-.046.117-2.842,1.068.044Zm.237-5.687-1.068-.041.118-2.844,1.068.044Zm.238-5.679-1.068-.045.12-2.842,1.068.044Zm.241-5.683-1.068-.044.124-2.845,1.068.049Zm.252-5.682-1.068-.048.125-2.841,1.068.048Zm.252-5.68-1.068-.047.13-2.852,1.068.046Zm.261-5.7-1.068-.047.131-2.845,1.068.051Zm.263-5.678-1.068-.053.137-2.834,1.068.054Zm.274-5.673-1.068-.054.14-2.84,1.068.053Zm.281-5.68-1.066-.056.144-2.84,1.066.056Zm.288-5.68-1.067-.056.15-2.84,1.065.056Zm.3-5.679-1.065-.06.154-2.841,1.065.059Zm.311-5.677-1.065-.062.161-2.84,1.065.062Zm.325-5.679-1.066-.064.168-2.839,1.065.063Zm.343-5.68-1.066-.062.178-2.843,1.065.069Zm.362-5.673-1.066-.07.192-2.841,1.066.073Zm.393-5.676-1.066-.075.208-2.841,1.066.08Zm.427-5.669-1.065-.089.048-.593c.067-.815.134-1.53.208-2.247l1.063.108q-.111,1.065-.2,2.125Zm.585-5.629-1.061-.141q.186-1.409.409-2.827l1.054.167Q676.082,6756.194,675.9,6757.593Zm.872-5.6-1.051-.188q.254-1.408.533-2.807l1.048.208Q677.023,6750.6,676.773,6751.993Zm1.111-5.557-1.043-.229c.2-.929.416-1.857.634-2.778l1.041.249Q678.187,6745.05,677.884,6746.437Zm1.308-5.513-1.034-.266c.235-.927.479-1.846.724-2.756l1.033.277Q679.544,6739.541,679.192,6740.924Zm1.483-5.474-1.027-.294q.4-1.387.8-2.738l1.024.31Q681.069,6734.069,680.674,6735.45Zm1.632-5.436-1.019-.32q.434-1.384.872-2.715l1.016.333Q682.74,6728.635,682.307,6730.015Zm1.768-5.391-1.01-.35q.474-1.383.936-2.69l1.007.355Q684.546,6723.24,684.074,6724.624Zm1.9-5.355-1-.367q.513-1.4,1-2.672l1,.379Q686.481,6717.873,685.97,6719.269Zm2.014-5.312-.993-.39c.379-.972.735-1.857,1.058-2.648l.99.4C688.718,6712.109,688.365,6712.991,687.984,6713.956Zm2.145-5.255-.983-.418c.4-.945.67-1.554.765-1.767l.057-.752,1.066.082-.111,1.021S690.633,6707.519,690.13,6708.7Zm1.12-5.687-1.066-.081.214-2.834,1.065.08Zm.43-5.666-1.066-.081.054-.722-.359-1.952,1.051-.185.366,2.086Zm-1.862-5.555-.491-2.8,1.053-.184.49,2.8Zm-.981-5.6-.492-2.8,1.051-.184.491,2.8Zm-.983-5.6-.491-2.8,1.053-.183.49,2.8Zm-.981-5.595-.491-2.8,1.051-.184.491,2.8Zm-.983-5.6-.49-2.8,1.051-.185.491,2.8Zm-.981-5.6-.492-2.8,1.051-.184.491,2.8Zm-.983-5.6-.49-2.8,1.051-.184.491,2.8Zm-.981-5.6-.491-2.8,1.053-.184.49,2.8Zm-.983-5.6-.49-2.8,1.051-.184.491,2.8Zm-.981-5.6-.491-2.8,1.053-.184.49,2.8Zm-.981-5.6-.491-2.8,1.051-.184.491,2.8Zm-.983-5.6-.491-2.8,1.053-.184.49,2.8Zm-.981-5.6-.491-2.8,1.051-.183.491,2.8Zm-.983-5.6-.49-2.8,1.051-.184.491,2.8Zm-.981-5.6-.491-2.8,1.051-.185.491,2.8Zm-.983-5.6-.49-2.8,1.051-.184.491,2.8Zm-.981-5.6-.491-2.8,1.051-.184.491,2.8Zm-.983-5.6-.49-2.8,1.051-.184.491,2.8Zm-.981-5.6-.491-2.8,1.053-.184.49,2.8Zm-.981-5.6-.491-2.8,1.051-.184.491,2.8Zm-.983-5.595-.491-2.8,1.053-.184.49,2.8Zm-.981-5.6-.491-2.8,1.051-.184.491,2.8Zm-.983-5.6-.492-2.8,1.053-.182.49,2.8Zm-.982-5.595-.491-2.8,1.051-.184.492,2.8Z" transform="translate(-666.002 -6555.883)" fill="#999"/>
            <path id="Trazado_106751" data-name="Trazado 106751" d="M668.214,6805.664l-1.068-.036.05-1.42,1.068.039Z" transform="translate(-665.829 -6452.267)" fill="#999"/>
          </g>
          <g id="Grupo_55546" data-name="Grupo 55546" transform="translate(44.193 160.077)">
            <rect id="Rectángulo_9681" data-name="Rectángulo 9681" width="1.068" height="1.425" transform="translate(0 0.184) rotate(-9.95)" fill="#999"/>
            <path id="Trazado_106752" data-name="Trazado 106752" d="M670.469,6905.918l-1.068-.022.066-2.856,1.068.024Zm.134-5.708-1.068-.023.068-2.854,1.068.027Zm.141-5.7-1.068-.024.074-2.852,1.068.027Zm.15-5.7-1.068-.027.078-2.851,1.068.03Zm.161-5.7-1.068-.03.083-2.847,1.068.029Zm.167-5.7-1.068-.029.087-2.848,1.068.033Zm.174-5.689-1.068-.033.093-2.846,1.068.032Zm.184-5.692L670.51,6866l.1-2.847,1.068.036Zm.2-5.689-1.068-.04.1-2.846,1.068.037Zm.2-5.693-1.068-.04.107-2.849,1.068.042Zm.214-5.691-1.068-.042.11-2.847,1.068.044Zm.224-5.689-1.068-.044.111-2.73,1.073-.072Zm.232-5.689-1.068-.044.123-2.848,1.068.047Zm.248-5.7-1.068-.048.128-2.849,1.068.047Zm.259-5.692-1.068-.05.134-2.842,1.068.053Zm.274-5.672-1.068-.056.145-2.845,1.068.056Zm.292-5.686-1.065-.055.152-2.847,1.066.059Zm.309-5.687-1.065-.061.164-2.845,1.065.063Zm.332-5.685-1.066-.064.177-2.845,1.065.066Zm.36-5.683-1.065-.07.189-2.842,1.066.072Zm.389-5.681-1.066-.075.207-2.842,1.065.078Zm.424-5.678-1.066-.083q.113-1.441.231-2.842l1.066.089C675.682,6784.515,675.605,6785.463,675.53,6786.42Zm.474-5.671-1.066-.094q.13-1.449.261-2.842l1.063.1Q676.132,6779.3,676,6780.749Zm.536-5.668-1.063-.105q.147-1.458.3-2.84l1.063.117Q676.687,6773.628,676.54,6775.081Zm.625-5.66-1.063-.117.024-.2c.11-.883.219-1.762.332-2.631l1.06.137q-.169,1.3-.33,2.63Zm.729-5.626-1.058-.148q.2-1.431.4-2.82l1.057.155Q678.093,6762.367,677.895,6763.795Zm.829-5.623-1.056-.163q.222-1.428.453-2.815l1.054.177C679.023,6756.29,678.87,6757.223,678.724,6758.172Zm.93-5.6-1.051-.187q.25-1.422.507-2.8l1.05.194Q679.9,6751.148,679.654,6752.569Zm1.038-5.584-1.05-.206q.278-1.424.564-2.795l1.046.218Q680.968,6745.567,680.692,6746.985Zm1.148-5.562-1.043-.229q.31-1.421.623-2.782l1.041.239C682.255,6739.558,682.048,6740.479,681.84,6741.424Zm1.271-5.533-1.038-.253q.344-1.418.688-2.767l1.034.263Q683.453,6734.477,683.111,6735.891Zm1.4-5.5-1.031-.275c.251-.947.5-1.863.754-2.75l1.028.29Q684.89,6728.973,684.511,6730.386Zm1.538-5.462-1.024-.3q.423-1.424.83-2.729l1.021.315C686.606,6723.076,686.33,6723.979,686.049,6724.924Zm1.7-5.414-1.016-.338q.474-1.433.92-2.7l1.007.354Q688.22,6718.082,687.749,6719.51Zm1.877-5.352-1-.374c.373-1,.721-1.887,1.031-2.666l.991.4Q690.184,6712.671,689.626,6714.158Zm2.115-5.249-.976-.43c.328-.749.55-1.213.64-1.4l.111-1.134,1.063.105-.175,1.418C692.4,6707.477,692.162,6707.955,691.741,6708.909Zm1.115-5.688-1.064-.1.279-2.831,1.063.105Zm.555-5.663-1.063-.1.12-1.218-.255-1.454,1.053-.184.279,1.6Zm-1.689-5.578-.491-2.8,1.051-.184.491,2.8Zm-.984-5.605-.491-2.8,1.053-.184.491,2.8Zm-.983-5.6-.491-2.8,1.051-.184.491,2.8Zm-.984-5.6-.49-2.8,1.051-.185.491,2.8Zm-.983-5.605-.491-2.8,1.051-.184.491,2.8Zm-.983-5.6-.493-2.8,1.051-.184.493,2.8Zm-.984-5.605-.493-2.8,1.053-.184.491,2.8Zm-.983-5.6-.493-2.8,1.051-.184.493,2.8Zm-.984-5.607-.491-2.8,1.051-.184.491,2.8Zm-.983-5.6-.493-2.8,1.051-.184.493,2.8Zm-.984-5.6-.491-2.8,1.051-.184.493,2.8Zm-.983-5.6-.493-2.8,1.053-.185.491,2.8Zm-.984-5.6-.491-2.8,1.051-.184.493,2.8Zm-.983-5.605-.493-2.8,1.053-.183.492,2.8Zm-.983-5.6-.493-2.8,1.051-.184.493,2.8Zm-.984-5.605-.492-2.8,1.051-.184.491,2.8Zm-.983-5.605-.493-2.8,1.051-.184.493,2.8ZM675,6596.7l-.491-2.8,1.051-.184.493,2.8Zm-.983-5.6-.493-2.8,1.051-.185.493,2.8Zm-.984-5.6-.491-2.8,1.051-.184.493,2.8Zm-.983-5.605-.493-2.8,1.053-.182.491,2.8Zm-.983-5.6-.493-2.8,1.051-.184.493,2.8Zm-.984-5.6-.493-2.8,1.053-.184.491,2.8Zm-.983-5.6-.493-2.8,1.051-.184.493,2.8Z" transform="translate(-667.873 -6555.879)" fill="#999"/>
            <rect id="Rectángulo_9682" data-name="Rectángulo 9682" width="1.418" height="1.069" transform="matrix(0.021, -1, 1, 0.021, 1.438, 354.115)" fill="#999"/>
          </g>
          <path id="Trazado_106753" data-name="Trazado 106753" d="M669.5,6577.92c-8.391,0-15.219-14.785-15.219-32.958S661.112,6512,669.5,6512s15.22,14.786,15.22,32.958S677.9,6577.92,669.5,6577.92Zm0-64.848c-7.8,0-14.15,14.306-14.15,31.89s6.349,31.89,14.15,31.89,14.152-14.306,14.152-31.89S677.307,6513.072,669.5,6513.072Z" transform="translate(-629.76 -6416.21)" fill="#999"/>
          <path id="Trazado_106754" data-name="Trazado 106754" d="M637.3,6598.923l-.236-1.041c.107-.024,10.841-2.456,27.6-5.869a170.553,170.553,0,0,0,33.514-10.813c.383-.159,36.258-14.54,65.732-10.557l24.265,4.942-.214,1.047-24.23-4.936c-29.143-3.936-64.771,10.336-65.128,10.481a171.529,171.529,0,0,1-33.727,10.882C648.134,6596.47,637.41,6598.9,637.3,6598.923Z" transform="translate(-637.068 -6391.617)" fill="#999"/>
        </g>
        <path id="Trazado_106755" data-name="Trazado 106755" d="M719.513,6569.467l3.061-3.61-1.177-1.492.628-1.412s4.239,0,4.867,4.082l-1.178.612-1.885-.455-3.689,2.825Z" transform="translate(-601.481 -6394.41)" fill="#999"/>
        <path id="Trazado_106756" data-name="Trazado 106756" d="M736.567,6516.651l-2.49-5.136,1.822-1.388-.309-1.838s-4.95-1.271-6.909,3.3l1.191,1.069,2.337.033,3.46,4.407Z" transform="translate(-597.59 -6417.679)" fill="#999"/>
        <path id="Trazado_106757" data-name="Trazado 106757" d="M661.363,6595.389a.712.712,0,0,1-.266-1.373l5.759-2.322a.712.712,0,0,1,.534,1.32l-5.759,2.323A.7.7,0,0,1,661.363,6595.389Z" transform="translate(-626.465 -6382.233)" fill="#4d4d4d"/>
        <path id="Trazado_106758" data-name="Trazado 106758" d="M667.733,6596.608a.712.712,0,0,1-.357-1.328l8.484-4.924,15.676-7a.713.713,0,1,1,.581,1.3l-15.609,6.966-8.417,4.89A.706.706,0,0,1,667.733,6596.608Z" transform="translate(-623.761 -6385.776)" fill="#4d4d4d"/>
        <path id="Trazado_106759" data-name="Trazado 106759" d="M637.362,6596.574a.713.713,0,0,1-.144-1.41l21.367-4.457c.167-.037,17.407-3.822,23.144-5.829,2.487-.87,6.008-2.259,9.737-3.73,5.052-1.994,10.277-4.056,13.81-5.18a.713.713,0,0,1,.432,1.358c-3.486,1.107-8.688,3.16-13.719,5.145-3.742,1.478-7.278,2.872-9.79,3.75-5.818,2.037-22.6,5.723-23.315,5.878l-21.374,4.46A.714.714,0,0,1,637.362,6596.574Z" transform="translate(-636.651 -6388.9)" fill="#4d4d4d"/>
        <path id="Trazado_106760" data-name="Trazado 106760" d="M736.154,6960.465h-.03a.714.714,0,0,1-.682-.744c.07-1.56,6.748-156.107.033-177.875-6.814-22.088,1.457-51.645,1.543-51.939L745,6664.069c.027-.36,3.016-39.456,1.283-58.021-.554-5.958-1.813-13.355-3.145-21.187-2.862-16.829-6.424-37.775-4.971-56.187l15.807-83.465a.712.712,0,0,1,1.4.266l-15.8,83.388c-1.429,18.159,2.118,39.007,4.967,55.76,1.336,7.86,2.6,15.285,3.161,21.293,1.741,18.688-1.256,57.9-1.288,58.3l-8.01,65.976c-.1.4-8.26,29.559-1.573,51.237,6.787,22,.309,171.983.031,178.357A.715.715,0,0,1,736.154,6960.465Z" transform="translate(-595.848 -6444.631)" fill="#4d4d4d"/>
        <g id="Grupo_55548" data-name="Grupo 55548" transform="translate(151.496 184.142)">
          <path id="Trazado_106761" data-name="Trazado 106761" d="M784.882,6579.474s-34.077-3.715-41.806-5.2" transform="translate(-742.976 -6573.747)" fill="#fff"/>
          <path id="Trazado_106762" data-name="Trazado 106762" d="M784.853,6580.161c-.34-.038-34.187-3.733-41.847-5.209l.2-1.049c7.618,1.466,41.421,5.158,41.763,5.2Z" transform="translate(-743.006 -6573.903)" fill="#999"/>
        </g>
      </g>
      <g id="Grupo_55550" data-name="Grupo 55550" transform="translate(15.025 96.685)" opacity="0.73">
        <path id="Trazado_106763" data-name="Trazado 106763" d="M613.216,6558.857s.124-22.9,22.791-40.236c0,0,7.853-10.584,21.887-11.423l-1.531,3.343,6.486,6.036,1.229,2.431.379,4.439-1.074,3.6-5.793,5.983-5.97,4.134L631.966,6548.1Z" transform="translate(-612.505 -6506.485)" fill="#999"/>
        <path id="Trazado_106764" data-name="Trazado 106764" d="M613.429,6559.781a.716.716,0,0,1-.712-.717c0-.232.389-23.392,22.992-40.737a31.836,31.836,0,0,1,22.352-11.627.7.7,0,0,1,.631.309.714.714,0,0,1,.061.7l-1.318,2.876,6.109,5.684a.737.737,0,0,1,.151.2l1.228,2.434a.686.686,0,0,1,.074.259l.379,4.438a.734.734,0,0,1-.026.267l-1.075,3.6a.737.737,0,0,1-.171.29l-5.793,5.984-6.074,4.224-19.714,10.971-18.74,10.756A.727.727,0,0,1,613.429,6559.781Zm43.522-51.563c-12.8,1.313-20.085,10.939-20.16,11.04a.7.7,0,0,1-.14.143c-19.072,14.59-21.991,33.371-22.434,38.393l17.6-10.1,19.662-10.937,5.91-4.1,5.565-5.768.987-3.3-.358-4.169-1.108-2.2-6.391-5.946a.719.719,0,0,1-.164-.818Z" transform="translate(-612.717 -6506.698)" fill="#4d4d4d"/>
      </g>
      <rect id="Rectángulo_9683" data-name="Rectángulo 9683" width="60.733" height="1.423" transform="translate(49.6 225.188) rotate(-18.577)" fill="#999"/>
      <g id="Grupo_55551" data-name="Grupo 55551" transform="translate(165.893 176.169)">
        <path id="Trazado_106765" data-name="Trazado 106765" d="M720.105,6572.831l4.695-5.15,2.754.215s1.174.12.939-.926l-3.091-3.823s-1.449-1.609-1.917.241l-.157,3.22-4.191,5.051-.506,1.589Z" transform="translate(-718.631 -6562.498)" fill="#666"/>
      </g>
      <g id="Grupo_55552" data-name="Grupo 55552" transform="translate(179.61 97.272)">
        <path id="Trazado_106766" data-name="Trazado 106766" d="M734.573,6518.265l-2.875-6.35-2.684-.647s-1.154-.247-.607-1.17l4.121-2.681s1.875-1.083,1.749.821l-.846,3.111,2.424,6.1-.01,1.668Z" transform="translate(-728.261 -6507.11)" fill="#666"/>
      </g>
      <g id="Grupo_55553" data-name="Grupo 55553" transform="translate(192.922 387.168)">
        <path id="Trazado_106767" data-name="Trazado 106767" d="M739.129,6720.114l5.5-4.282,2.676.679s1.137.317,1.083-.754l-2.4-4.292s-1.154-1.831-1.93-.086l-.7,3.147-4.984,4.268-.768,1.481Z" transform="translate(-737.606 -6710.625)" fill="#666"/>
      </g>
      <g id="Grupo_55554" data-name="Grupo 55554" transform="translate(0 51.058)">
        <path id="Trazado_106768" data-name="Trazado 106768" d="M610.882,6485.975a7.32,7.32,0,0,1-3.043.547c-3.245,0-5.671-2.05-5.671-5.826a5.716,5.716,0,0,1,6.013-6.029,6.576,6.576,0,0,1,2.734.5l-.375,1.229a5.277,5.277,0,0,0-2.308-.479c-2.7,0-4.493,1.727-4.493,4.732,0,2.818,1.624,4.612,4.409,4.612a5.953,5.953,0,0,0,2.443-.479Z" transform="translate(-602.169 -6474.666)"/>
        <path id="Trazado_106769" data-name="Trazado 106769" d="M612.984,6485.577a3.941,3.941,0,0,1-3.963-4.254,4.046,4.046,0,0,1,4.1-4.392,3.912,3.912,0,0,1,3.981,4.238,4.052,4.052,0,0,1-4.1,4.407Zm.068-1.127c1.436,0,2.511-1.351,2.511-3.23,0-1.4-.7-3.159-2.476-3.159-1.761,0-2.53,1.639-2.53,3.21,0,1.813,1.026,3.18,2.479,3.18Z" transform="translate(-599.261 -6473.704)"/>
        <path id="Trazado_106770" data-name="Trazado 106770" d="M616.05,6479.7c0-.975-.019-1.811-.07-2.579H617.3l.068,1.624h.051a2.5,2.5,0,0,1,2.306-1.812,2.967,2.967,0,0,1,.41.034v1.419a4,4,0,0,0-.513-.034,2.106,2.106,0,0,0-2.016,1.913,4.663,4.663,0,0,0-.051.7v4.424h-1.5Z" transform="translate(-596.307 -6473.704)"/>
        <path id="Trazado_106771" data-name="Trazado 106771" d="M622.33,6475.673v1.981h2.154v1.146H622.33v4.44c0,1.026.292,1.605,1.128,1.605a2.814,2.814,0,0,0,.872-.1l.068,1.144a4.1,4.1,0,0,1-1.333.205,2.143,2.143,0,0,1-1.622-.633,3.221,3.221,0,0,1-.581-2.169V6478.8h-1.281v-1.146h1.281v-1.521Z" transform="translate(-594.779 -6474.239)"/>
        <path id="Trazado_106772" data-name="Trazado 106772" d="M630.23,6483.406a14.063,14.063,0,0,0,.12,1.982H629l-.137-1.041h-.051a3.052,3.052,0,0,1-2.528,1.229,2.355,2.355,0,0,1-2.527-2.375c0-2,1.776-3.092,4.971-3.075v-.169a1.7,1.7,0,0,0-1.88-1.915,4,4,0,0,0-2.169.614l-.342-1.008a5.376,5.376,0,0,1,2.733-.718c2.546,0,3.16,1.726,3.16,3.384Zm-1.469-2.236c-1.64-.035-3.5.256-3.5,1.861a1.318,1.318,0,0,0,1.4,1.437,2.087,2.087,0,0,0,2.031-1.385,1.509,1.509,0,0,0,.068-.479Z" transform="translate(-593.006 -6473.704)"/>
        <path id="Trazado_106773" data-name="Trazado 106773" d="M630.018,6479.7c0-.975-.019-1.811-.07-2.579h1.316l.068,1.624h.051a2.5,2.5,0,0,1,2.306-1.812,2.983,2.983,0,0,1,.41.034v1.419a4,4,0,0,0-.513-.034,2.106,2.106,0,0,0-2.016,1.913,4.661,4.661,0,0,0-.053.7v4.424h-1.5Z" transform="translate(-590.378 -6473.704)"/>
      </g>
      <g id="Grupo_55556" data-name="Grupo 55556" transform="translate(36.634 63.576)">
        <rect id="Rectángulo_9684" data-name="Rectángulo 9684" width="1.424" height="48.717" transform="translate(0 1.308) rotate(-66.662)"/>
        <g id="Grupo_55555" data-name="Grupo 55555" transform="translate(39.25 13.525)">
          <path id="Trazado_106774" data-name="Trazado 106774" d="M655.442,6502.636l4.147-3.956.032-5.73,9.392,9.8Z" transform="translate(-655.442 -6492.949)"/>
        </g>
      </g>
      <g id="Grupo_55557" data-name="Grupo 55557" transform="translate(24.166)" opacity="0.5">
        <path id="Trazado_106775" data-name="Trazado 106775" d="M844.6,6607.228l-.929,64.5S842,6698.3,839.58,6716.69s-6.688,69.489-6.688,69.489l-8.733,101.443-4.83,47.751s-32.7,17.465-94.385,18.209c0,0-53.137.556-70.417-21.367l-6.5-115.937-3.437-107.393-6.967-53.509s-1.053-4.273,6.967-5.759l.836-.279s.5-20.159-11.271-37.872l-12.263-17.961s-5.078-4.21,0-10.527a73.207,73.207,0,0,1,20.934-13.873c13.253-5.945,17.837-13.254,17.837-13.254s3.839-7.094-2.355-12.466-7.8-6.733-7.8-6.733,39.014-5.574,54.313-5.7l31.9-4.335s0-9.786-26.631-14.988-41.618-7.555-41.618-7.555A27.335,27.335,0,0,1,658.18,6499s52.39-47.067,111.786-58.958c0,0,20.75-1.61,27.315,0,0,0,11.085,3.9,18.146,47.563s19.344,61.429,19.344,61.429,7.968,15.491,9.826,47.077Z" transform="translate(-618.923 -6438.609)" fill="#999"/>
        <path id="Trazado_106776" data-name="Trazado 106776" d="M724.563,6954.509c-6.216,0-53.877-.7-70.383-21.64a.711.711,0,0,1-.151-.4l-6.5-115.937-3.439-107.408-6.963-53.441h0a4.1,4.1,0,0,1,.674-2.943c1.135-1.758,3.447-2.972,6.871-3.606l.255-.088c-.029-3.181-.661-21.174-11.153-36.97l-12.21-17.883c-.687-.636-5.088-5.136-.014-11.446a74.5,74.5,0,0,1,21.2-14.076c12.866-5.771,17.479-12.91,17.525-12.983.12-.228,3.459-6.626-2.216-11.548-6.181-5.359-7.793-6.724-7.8-6.727a.713.713,0,0,1,.36-1.249c.39-.056,39.235-5.583,54.407-5.706l31.074-4.229c-.6-2.139-4.218-9.437-25.938-13.681-26.311-5.14-41.444-7.527-41.592-7.552a27.729,27.729,0,0,1-10.635-5.24.711.711,0,0,1-.013-1.07c.524-.472,53.216-47.338,112.122-59.13.936-.078,21.03-1.611,27.624.008.536.186,11.633,4.563,18.679,48.142,6.947,42.954,19.106,60.959,19.227,61.136.128.236,8.105,16.069,9.951,47.44v11.171l-.929,64.5c-.019.3-1.7,26.84-4.092,45.047-2.387,18.167-6.644,68.943-6.688,69.455l-8.73,101.447-4.833,47.76a.713.713,0,0,1-.373.557c-.328.176-33.56,17.556-94.711,18.292Zm-69.125-22.347c17.009,21.219,69.182,20.934,69.711,20.921,57.5-.694,90.11-16.147,93.723-17.953l4.792-47.364,8.73-101.435c.044-.51,4.3-51.319,6.693-69.521,2.383-18.159,4.065-44.647,4.083-44.914l.927-64.462v-11.113c-1.825-31-9.669-46.6-9.747-46.752-.075-.1-12.408-18.318-19.414-61.639-6.854-42.4-17.58-46.969-17.689-47.009-6.3-1.546-26.809.024-27.013.04-54.991,11.015-104.63,52.925-110.741,58.231a27.454,27.454,0,0,0,9.34,4.4c.1.015,15.256,2.4,41.6,7.551,26.9,5.254,27.207,15.263,27.207,15.686a.712.712,0,0,1-.617.705l-31.9,4.336c-13.424.114-45.319,4.444-52.746,5.479,1.121.961,3.149,2.71,6.605,5.709,6.551,5.679,2.555,13.267,2.514,13.345-.215.344-4.873,7.6-18.17,13.562a73.312,73.312,0,0,0-20.713,13.719c-4.544,5.656-.242,9.331-.057,9.487a.7.7,0,0,1,.134.146l12.262,17.959c11.76,17.7,11.4,38.088,11.4,38.291a.712.712,0,0,1-.487.658l-.836.281c-3.825.714-5.367,2-6.005,2.964a2.715,2.715,0,0,0-.493,1.958l6.98,53.578,3.443,107.46ZM844.808,6607.44h0Z" transform="translate(-619.134 -6438.822)" fill="#4d4d4d"/>
      </g>
      <g id="Grupo_55558" data-name="Grupo 55558" transform="translate(189.424 469.663)">
        <path id="Trazado_106777" data-name="Trazado 106777" d="M736.673,6778.028l5.5-4.283,2.677.678s1.137.318,1.083-.753l-2.4-4.292s-1.154-1.831-1.93-.086l-.7,3.146-4.984,4.268-.768,1.482Z" transform="translate(-735.15 -6768.538)" fill="#666"/>
      </g>
      <g id="Grupo_55559" data-name="Grupo 55559" transform="translate(85.198 469.663)">
        <path id="Trazado_106778" data-name="Trazado 106778" d="M671.24,6778.028l-5.5-4.283-2.677.678s-1.135.318-1.081-.753l2.4-4.292s1.155-1.831,1.932-.086l.7,3.146,4.984,4.268.768,1.482Z" transform="translate(-661.981 -6768.538)" fill="#666"/>
      </g>
      <g id="Grupo_55560" data-name="Grupo 55560" transform="translate(89.472 382.343)">
        <path id="Trazado_106779" data-name="Trazado 106779" d="M674.24,6716.728l-5.5-4.282-2.677.677s-1.135.317-1.081-.754l2.4-4.29s1.155-1.832,1.932-.087l.7,3.146,4.984,4.268.768,1.483Z" transform="translate(-664.981 -6707.238)" fill="#666"/>
      </g>
    </g>
  </g>
</svg>
