<svg xmlns="http://www.w3.org/2000/svg" width="282.87" height="545.842" viewBox="0 0 282.87 545.842">
  <g id="Grupo_55542" data-name="Grupo 55542" transform="translate(-394.707 -6451.826)">
    <rect id="Rectángulo_9673" data-name="Rectángulo 9673" width="282.87" height="545.842" rx="19.252" transform="translate(394.707 6451.826)" fill="#fff"/>
    <g id="Grupo_55541" data-name="Grupo 55541" transform="translate(416.482 6460.536)">
      <g id="Grupo_55533" data-name="Grupo 55533" transform="translate(20.971 1.02)" opacity="0.5">
        <path id="Trazado_106662" data-name="Trazado 106662" d="M424.42,6509.7l43.134-22.354,60.437-28.373-89.37,63.681a14.014,14.014,0,0,0-3.766-9.479C430.909,6509.234,424.42,6509.7,424.42,6509.7Z" transform="translate(-423.689 -6458.244)" fill="#999"/>
        <path id="Trazado_106663" data-name="Trazado 106663" d="M438.852,6523.62a.735.735,0,0,1-.732-.755,13.377,13.377,0,0,0-3.553-8.937c-3.652-3.653-9.8-3.277-9.864-3.265a.713.713,0,0,1-.756-.531.734.734,0,0,1,.367-.848l43.134-22.353,60.461-28.387a.732.732,0,0,1,.736,1.259l-89.37,63.68A.725.725,0,0,1,438.852,6523.62Zm-11.4-14.312a13.762,13.762,0,0,1,8.153,3.585,14.337,14.337,0,0,1,3.914,8.623l81.685-58.206-53.1,24.932Z" transform="translate(-423.921 -6458.476)" fill="#4d4d4d"/>
      </g>
      <path id="Trazado_106664" data-name="Trazado 106664" d="M520.091,6528.1l5.326,4.956-.884,2.049,1.842,1.807s4.919-2.723,5.077-5.6l-1.033-1.627-2.629,1.173-6.226-4.186-1.478-.452-.751.693Z" transform="translate(-358.752 -6426.078)" fill="#999"/>
      <path id="Trazado_106665" data-name="Trazado 106665" d="M522.15,6527.98l-3.242,6.511,1.547,1.608-1.087,2.34s-5.563-.82-6.723-3.458l.394-1.886,2.874.171,4.356-6.107,1.225-.942.945.385Z" transform="translate(-361.852 -6426.078)" fill="#999"/>
      <g id="Grupo_55538" data-name="Grupo 55538" transform="translate(10.161 1.503)">
        <g id="Grupo_55534" data-name="Grupo 55534" transform="translate(25.185 26.761)">
          <path id="Trazado_106666" data-name="Trazado 106666" d="M593.649,6553.667s-15.76-6.8-21.694-10.767c0,0-5.766-2.783-6.008-15.362s.726-21.291,2.661-27.219l2.419-9.193s-7.016-10.887-26.613-13.427c0,0-13.185-1.21-16.209,1.937,0,0-7.983,29.877-18.87,43.184,0,0-2.3,8.83-26.492,13.791l-28.549,6.169s-13.185,2.782-15.242,13.547c0,0-7.983,8.59-3.629,40.526l1.21,6.531,14.032,72.338,20.443,81.048.847,2.9v8.105s-22.741,32.538-25.4,56.732-2.072,133.125-2.072,133.125,94.952,11.451,150.584,3.815l-1.416-127.5a108.887,108.887,0,0,0-9.678-42.822l-10.4-19.6s-1.814-1.452-1.452-14.758l8.589-44.88,10.282-32.3,7.742-14.273s10.08-13.145,8.791-24.113l-3.711-12.9s-.483-16.936.162-23.226l4.676-16.775,1.612-15.16s1.13-6.935-3.548-10.807A117.623,117.623,0,0,0,593.649,6553.667Z" transform="translate(-433.569 -6476.92)" fill="#fff"/>
          <path id="Trazado_106667" data-name="Trazado 106667" d="M548.474,6964.776c-49.859,0-103.171-6.339-103.882-6.424l-.48-.057,0-.484c-.006-1.088-.559-109.239,2.075-133.187,2.558-23.238,23.758-54.458,25.4-56.845v-7.854l-.825-2.829-20.448-81.065-14.039-72.369-1.21-6.537c-4.119-30.208,2.663-39.67,3.658-40.873,2.192-10.877,15.5-13.808,15.64-13.837l28.546-6.168c23.446-4.807,26.054-13.31,26.077-13.4l.105-.205c10.687-13.062,18.685-42.682,18.764-42.98l.135-.238c3.174-3.3,16.109-2.149,16.656-2.1,19.644,2.547,26.73,13.224,27.024,13.676l.129.2-2.48,9.428c-2.013,6.169-2.875,15.011-2.641,27.068.231,12.024,5.645,14.852,5.7,14.878,5.887,3.932,21.512,10.688,21.67,10.756l.056.029a118.852,118.852,0,0,1,13.141,8.722c4.862,4.025,3.788,11.021,3.74,11.316l-1.61,15.133-4.694,16.861c-.6,5.892-.176,21.8-.143,23l3.69,12.836c1.318,11.149-8.465,24.054-8.882,24.6l-7.7,14.2-10.241,32.2-8.574,44.815c-.328,12.327,1.225,14.185,1.292,14.257l.107.142,10.4,19.595a110.619,110.619,0,0,1,9.742,43.093L595.8,6962.1l-.48.065C581.5,6964.063,565.175,6964.776,548.474,6964.776ZM445.2,6957.319c7.366.86,96.53,10.966,149.483,3.827l-1.411-127.021a109.4,109.4,0,0,0-9.629-42.6l-10.351-19.5c-.49-.563-1.876-3.218-1.552-15.1l8.6-44.968,10.3-32.36,7.783-14.37c.146-.2,9.978-13.171,8.73-23.786l-3.715-12.952c-.019-.692-.477-17.044.165-23.3l4.694-16.865,1.6-15.074c.013-.095,1.021-6.7-3.352-10.323a116.884,116.884,0,0,0-12.961-8.6c-.976-.422-15.917-6.9-21.752-10.8-.182-.082-6.007-3.036-6.251-15.809-.237-12.178.644-21.141,2.686-27.4l2.346-8.919c-1.056-1.451-8.428-10.7-26.086-12.988-3.531-.325-13.157-.646-15.649,1.677-.623,2.278-8.456,30.354-18.868,43.162-.385,1.158-3.886,9.352-26.875,14.063l-28.543,6.17c-.13.027-12.854,2.84-14.819,13.113l-.028.153-.108.116c-.076.085-7.74,8.891-3.488,40.078l1.207,6.506,14.031,72.335,20.435,81.017.865,3.037v8.278l-.1.142c-.227.323-22.693,32.7-25.308,56.479C444.74,6847.808,445.165,6949.374,445.2,6957.319Z" transform="translate(-433.745 -6477.095)" fill="#999"/>
        </g>
        <ellipse id="Elipse_4316" data-name="Elipse 4316" cx="3.266" cy="4.899" rx="3.266" ry="4.899" transform="translate(36.355 127.216)" fill="#999"/>
        <g id="Grupo_55535" data-name="Grupo 55535" transform="translate(131.691)">
          <path id="Trazado_106668" data-name="Trazado 106668" d="M513.159,6480.646v13.064a6.584,6.584,0,0,0,6.008.443l.121-13.508s7.979-1.814,7.9-10.4c0,0,1.13-11.533-10.482-11.049s-9.678,13.871-9.678,13.871S509.128,6479.84,513.159,6480.646Z" transform="translate(-506.361 -6458.632)" fill="#fff"/>
          <path id="Trazado_106669" data-name="Trazado 106669" d="M516.751,6495.4a6.946,6.946,0,0,1-3.731-1.064l-.236-.165v-12.924c-4.009-1.214-6.017-7.564-6.1-7.844-.059-.361-.96-6.925,2.561-11.166a9.957,9.957,0,0,1,7.619-3.417c3.592-.146,6.391.8,8.31,2.832,3.231,3.416,2.764,8.6,2.742,8.818a10.948,10.948,0,0,1-7.9,10.763l-.119,13.464-.338.139A7.3,7.3,0,0,1,516.751,6495.4Zm-2.869-1.823a6.055,6.055,0,0,0,4.915.373l.121-13.565.421-.1a9.849,9.849,0,0,0,7.477-9.863c.007-.106.438-4.974-2.451-8.021-1.689-1.784-4.213-2.636-7.461-2.483a8.9,8.9,0,0,0-6.816,3.018c-3.21,3.859-2.35,10.163-2.341,10.227h0c.007,0,2.035,6.39,5.693,7.119l.44.09Z" transform="translate(-506.535 -6458.806)" fill="#999"/>
        </g>
        <path id="Trazado_106670" data-name="Trazado 106670" d="M558.351,6616.934l-6.064-22.942c-5.042-16.088-5.905-25.349-7.217-39.369-.17-1.817-.347-3.715-.541-5.718-1.642-16.891-7.574-21.46-7.634-21.5l.648-.887c.258.188,6.38,4.818,8.077,22.285.2,2,.373,3.9.543,5.722,1.3,13.949,2.164,23.165,7.176,39.166l6.072,22.968Z" transform="translate(-360.779 -6427.442)" fill="#999"/>
        <path id="Trazado_106671" data-name="Trazado 106671" d="M518.568,6678.049q-2.647,0-5.5-.043c-37.8-.6-53.684-8.936-53.84-9.019l.521-.967c.154.083,15.85,8.29,53.337,8.888,37.515.582,46.659-5.056,46.748-5.114l.6.921C560.073,6672.943,551.8,6678.049,518.568,6678.049Z" transform="translate(-396.758 -6361.896)" fill="#999"/>
        <path id="Trazado_106672" data-name="Trazado 106672" d="M519.329,6686.251q-3.215,0-6.74-.117c-35.4-1.2-52.2-9.532-52.367-9.616l.5-.979c.164.085,16.784,8.308,51.907,9.5,35.013,1.189,46.59-7.3,46.7-7.388l.666.873C559.559,6678.857,549.532,6686.251,519.329,6686.251Z" transform="translate(-396.295 -6358.412)" fill="#999"/>
        <path id="Trazado_106673" data-name="Trazado 106673" d="M524.13,6538.355a26.711,26.711,0,0,1-5.794-.661c-19.565-4.349-35.838-25.272-36-25.483l.868-.669c.161.207,16.2,20.819,35.369,25.08,18.93,4.205,26.486-13.4,26.8-14.15l1.014.421C546.312,6523.065,539.755,6538.355,524.13,6538.355Z" transform="translate(-386.052 -6434.377)" fill="#999"/>
        <path id="Trazado_106674" data-name="Trazado 106674" d="M534.909,6498.09c-20.564,0-37.546-11.838-37.723-11.964l.635-.9c.184.131,18.6,12.93,40.092,11.676l.066,1.095C536.949,6498.062,535.923,6498.09,534.909,6498.09Z" transform="translate(-379.174 -6446.566)" fill="#999"/>
        <path id="Trazado_106675" data-name="Trazado 106675" d="M534.458,6492.3c-18.438,0-35.86-11.876-36.056-12.013l.623-.9c.218.149,21.985,15,42.331,11.2l.2,1.079A38.739,38.739,0,0,1,534.458,6492.3Z" transform="translate(-378.61 -6449.273)" fill="#999"/>
        <path id="Trazado_106676" data-name="Trazado 106676" d="M514.365,6944.65l-.111-113.876c.8-18-3.023-57.613-3.061-58.013l-.972-27.45-1.451-74.362c.018-.344,1.807-30.242,4.363-44.464,2.506-13.945-8.333-28.3-8.443-28.439-.2-.41-14.195-30.878-21.538-53.389-7.214-22.108-18.669-24.771-18.783-24.795l.221-1.074c.495.1,12.174,2.747,19.606,25.528,7.326,22.452,21.288,52.86,21.429,53.165.4.5,11.183,14.771,8.589,29.2-2.545,14.16-4.33,43.991-4.347,44.291l1.453,74.31.969,27.409c.035.365,3.863,40.053,3.064,58.108l.111,113.853Z" transform="translate(-394.375 -6431.021)" fill="#999"/>
        <path id="Trazado_106677" data-name="Trazado 106677" d="M524.145,6956.183l-1.1-.03c.042-1.459,4.147-146.109-2.763-168.5-6.966-22.581-4.883-51.924-4.861-52.218l8.229-67.768c.028-.38,3.1-40.554,1.318-59.64-.571-6.125-1.864-13.729-3.234-21.776-2.938-17.277-6.6-38.782-5.1-57.673l3.686-34.369,1.092.117-3.684,34.355c-1.479,18.737,2.166,40.167,5.093,57.385,1.372,8.07,2.669,15.692,3.242,21.857,1.789,19.18-1.288,59.447-1.318,59.852l-8.229,67.767c-.019.266-2.087,29.406,4.818,51.786C528.3,6809.893,524.318,6950.22,524.145,6956.183Z" transform="translate(-370.868 -6442.409)" fill="#999"/>
        <path id="Trazado_106678" data-name="Trazado 106678" d="M460.55,6605.933l-4.167-13.621.445-.2c.37-.164,37.526-16.39,68.418-11.1,30.723,5.258,67.713,10.108,68.083,10.156l2.646.419.1.32c.1.32,2.47,7.883-2.442,12.543l-.2.188-.269-.045-36.412-6.049c-.423-.086-40.557-8.157-53.587-4.369-13.159,3.828-41.819,11.538-42.105,11.615Zm-2.831-13.007,3.572,11.672c3.93-1.059,29.4-7.931,41.573-11.473,13.283-3.858,52.433,4.008,54.092,4.346l36.118,6c3.646-3.694,2.422-9.485,2.05-10.9l-1.951-.309c-.356-.046-37.368-4.9-68.113-10.161C496.329,6577.175,462.018,6591.11,457.719,6592.926Z" transform="translate(-398.074 -6402.688)" fill="#999"/>
        <path id="Trazado_106679" data-name="Trazado 106679" d="M501.686,6686.371l-3.678-3.68,2.834-3.887-3.515-3.816.806-.743,4.127,4.479-2.811,3.855,3.015,3.017Z" transform="translate(-379.108 -6359.011)" fill="#999"/>
        <path id="Trazado_106680" data-name="Trazado 106680" d="M505.273,6686.371l-3.678-3.68,2.834-3.887-3.515-3.816.806-.743,4.127,4.479-2.811,3.855,3.015,3.017Z" transform="translate(-377.447 -6359.011)" fill="#999"/>
        <path id="Trazado_106681" data-name="Trazado 106681" d="M509.136,6686.371l-3.678-3.68,2.833-3.887-3.517-3.816.806-.743,4.128,4.479-2.811,3.855,3.015,3.017Z" transform="translate(-375.658 -6359.011)" fill="#999"/>
        <path id="Trazado_106682" data-name="Trazado 106682" d="M512.791,6686.371l-3.678-3.68,2.834-3.887-3.515-3.816.806-.743,4.127,4.479-2.811,3.855,3.015,3.017Z" transform="translate(-373.965 -6359.011)" fill="#999"/>
        <path id="Trazado_106683" data-name="Trazado 106683" d="M516.311,6685.769l-3.678-3.68,2.834-3.885-3.515-3.818.806-.743,4.127,4.481-2.811,3.854,3.015,3.017Z" transform="translate(-372.334 -6359.291)" fill="#999"/>
        <path id="Trazado_106684" data-name="Trazado 106684" d="M482.081,6685.417l-3.324-3.917,3.194-3.452-3.118-4,.866-.675,3.692,4.733-3.168,3.423,2.695,3.177Z" transform="translate(-387.71 -6359.415)" fill="#999"/>
        <path id="Trazado_106685" data-name="Trazado 106685" d="M485.651,6685.773l-3.324-3.917,3.194-3.452-3.118-4,.866-.675,3.689,4.733-3.165,3.424,2.695,3.176Z" transform="translate(-386.056 -6359.249)" fill="#999"/>
        <path id="Trazado_106686" data-name="Trazado 106686" d="M489.493,6686.157l-3.324-3.917,3.194-3.452-3.118-4,.866-.674,3.692,4.732-3.168,3.424,2.695,3.176Z" transform="translate(-384.276 -6359.072)" fill="#999"/>
        <path id="Trazado_106687" data-name="Trazado 106687" d="M470.926,6683.07l-3.324-3.917,3.194-3.452-3.118-4,.866-.675,3.689,4.732-3.165,3.424,2.695,3.177Z" transform="translate(-392.877 -6360.501)" fill="#999"/>
        <path id="Trazado_106688" data-name="Trazado 106688" d="M467.433,6682.067l-3.324-3.917,3.194-3.452-3.118-4,.866-.674,3.689,4.732-3.165,3.424,2.695,3.176Z" transform="translate(-394.495 -6360.967)" fill="#999"/>
        <path id="Trazado_106689" data-name="Trazado 106689" d="M464.55,6681.084l-3.324-3.917,3.194-3.452-3.118-4,.866-.675,3.692,4.732-3.168,3.424,2.695,3.177Z" transform="translate(-395.831 -6361.421)" fill="#999"/>
        <path id="Trazado_106690" data-name="Trazado 106690" d="M474.5,6684.025l-3.324-3.916,3.194-3.452-3.118-4,.866-.674,3.689,4.732-3.165,3.424,2.695,3.177Z" transform="translate(-391.224 -6360.059)" fill="#999"/>
        <path id="Trazado_106691" data-name="Trazado 106691" d="M478.338,6684.409l-3.324-3.916,3.194-3.452-3.118-4,.866-.674,3.692,4.732-3.168,3.424,2.695,3.177Z" transform="translate(-389.444 -6359.881)" fill="#999"/>
        <path id="Trazado_106692" data-name="Trazado 106692" d="M493.131,6686.52l-3.324-3.916,3.194-3.452-3.118-4,.866-.674,3.689,4.732-3.165,3.424,2.695,3.177Z" transform="translate(-382.591 -6358.903)" fill="#999"/>
        <path id="Trazado_106693" data-name="Trazado 106693" d="M496.692,6686.292l-3.324-3.917,3.194-3.452-3.118-4,.866-.675,3.692,4.733-3.168,3.423,2.695,3.177Z" transform="translate(-380.942 -6359.009)" fill="#999"/>
        <path id="Trazado_106694" data-name="Trazado 106694" d="M526.279,6682.083l-3.387-3.011,2.536-3.094-3.054-2.947.763-.789,3.782,3.651-2.511,3.059,2.6,2.311Z" transform="translate(-367.506 -6359.939)" fill="#999"/>
        <path id="Trazado_106695" data-name="Trazado 106695" d="M523.372,6682.977l-3.388-3.011,2.538-3.094-3.054-2.946.763-.789,3.782,3.649-2.512,3.06,2.6,2.311Z" transform="translate(-368.852 -6359.525)" fill="#999"/>
        <path id="Trazado_106696" data-name="Trazado 106696" d="M520.766,6684.052l-3.738-3.226,2.821-3.335-3.418-3.2.749-.8,4.181,3.913-2.792,3.3,2.915,2.514Z" transform="translate(-370.259 -6359.362)" fill="#999"/>
        <path id="Trazado_106697" data-name="Trazado 106697" d="M528.542,6681.235l-2.989-2.894,2.239-2.973-2.695-2.832.794-.757,3.338,3.506-2.216,2.941,2.292,2.219Z" transform="translate(-366.245 -6360.154)" fill="#999"/>
        <path id="Trazado_106698" data-name="Trazado 106698" d="M478.56,6911.955l-1.1-.006,1.209-186.1,2.178-73.072v-66.492h1.1v66.508l-2.178,73.075Z" transform="translate(-388.31 -6399.757)" fill="#999"/>
        <path id="Trazado_106699" data-name="Trazado 106699" d="M459.815,6916.382l-1.1-.035c.031-.939,2.963-94.516,4.053-134.852,1.048-38.793,13.011-51.769,14.546-53.274l1.384-8.753L446.62,6571.4l1.071-.231,32.126,148.265-.016.1-1.459,9.226-.142.13c-.133.122-13.252,12.6-14.332,52.63C462.778,6821.865,459.845,6915.44,459.815,6916.382Z" transform="translate(-402.596 -6406.756)" fill="#999"/>
        <g id="Grupo_55536" data-name="Grupo 55536" transform="translate(42.662 164.416)">
          <rect id="Rectángulo_9674" data-name="Rectángulo 9674" width="1.097" height="1.464" transform="matrix(0.977, -0.213, 0.213, 0.977, 0, 0.234)" fill="#999"/>
          <path id="Trazado_106700" data-name="Trazado 106700" d="M458.788,6909.781l-1.1-.035.091-2.932,1.1.036Zm.181-5.862-1.1-.035.089-2.927,1.1.035Zm.178-5.853-1.1-.035.089-2.925,1.1.034Zm.181-5.851-1.1-.035.089-2.925,1.1.036Zm.179-5.847-1.1-.034.089-2.926,1.1.035Zm.178-5.851-1.1-.032.088-2.925,1.1.033Zm.179-5.849-1.1-.031.088-2.925,1.1.033Zm.176-5.846-1.1-.034.089-2.923,1.1.033Zm.179-5.849-1.1-.031.089-2.925,1.1.033Zm.177-5.848-1.1-.03.089-2.925,1.1.034Zm.176-5.845-1.1-.03.089-2.926,1.1.034Zm.177-5.843-1.1-.035.088-2.922,1.1.032Zm.176-5.848-1.1-.034.088-2.928,1.1.031Zm.174-5.854-1.1-.035.083-2.83.552-.073.546.1Zm.176-5.837-1.1-.032.085-2.923,1.1.03Zm.173-5.847-1.1-.031.085-2.923,1.1.03Zm.17-5.848-1.1-.03.086-2.922,1.1.03Zm.171-5.849-1.1-.03.086-2.922,1.1.03Zm.171-5.846-1.1-.03.085-2.923,1.1.03Zm.167-5.843-1.1-.034.083-2.924,1.1.032Zm.168-5.852-1.1-.032.082-2.924,1.1.032Zm.162-5.849-1.1-.032.082-2.924,1.1.029Zm.162-5.851-1.1-.029.025-.952c.019-.669.041-1.326.064-1.977l1.1.04q-.035.971-.064,1.966Zm.221-5.824-1.094-.061q.081-1.488.181-2.924l1.094.078C462.953,6773.339,462.893,6774.31,462.839,6775.3Zm.411-5.807-1.092-.1c.091-.99.186-1.964.288-2.915l1.093.117Q463.384,6768.01,463.25,6769.489Zm.634-5.786-1.089-.142q.193-1.485.407-2.9l1.086.167Q464.075,6762.228,463.884,6763.7Zm.875-5.751-1.081-.188q.259-1.487.544-2.885l1.075.218Q465.019,6756.485,464.759,6757.952Zm1.151-5.693-1.07-.246q.34-1.479.7-2.852l1.059.278Q466.247,6750.8,465.911,6752.259Zm1.472-5.617-1.052-.312q.432-1.465.882-2.8l1.04.35Q467.81,6745.194,467.383,6746.642Zm1.845-5.5-1.026-.387q.546-1.453,1.1-2.732l1.008.436Q469.768,6739.718,469.228,6741.145Zm2.291-5.313-.986-.483c.471-.962.934-1.83,1.377-2.614l.956.541C472.432,6734.04,471.979,6734.889,471.519,6735.831Zm2.853-5.01-.912-.608a28.143,28.143,0,0,1,1.773-2.395l.843.7A27.131,27.131,0,0,0,474.372,6730.821Zm3.013-5.1-1.083-.173.456-2.885,1.083.172Zm.912-5.773-1.083-.17.263-1.667-.216-1.006,1.071-.23.263,1.205Zm-1.655-5.7-.619-2.855,1.071-.231.619,2.855Zm-1.238-5.71-.619-2.856,1.073-.231.617,2.856Zm-1.238-5.711-.619-2.855,1.073-.23.619,2.854Zm-1.236-5.711-.619-2.854,1.071-.233.619,2.855Zm-1.238-5.713-.619-2.854,1.071-.23.619,2.854Zm-1.238-5.709-.619-2.856,1.073-.231.619,2.856Zm-1.238-5.711-.617-2.854,1.071-.233.619,2.855Zm-1.236-5.713-.619-2.854,1.071-.23.619,2.854Zm-1.238-5.709-.619-2.856,1.073-.231.617,2.856Zm-1.238-5.711-.619-2.854,1.073-.233.619,2.856Zm-1.236-5.713-.619-2.854,1.071-.23.619,2.854Zm-1.238-5.709-.619-2.856,1.071-.231.619,2.856Zm-1.238-5.711-.619-2.855,1.073-.233.619,2.857Zm-1.236-5.712-.619-2.855,1.071-.23.619,2.854Zm-1.238-5.711-.619-2.855,1.071-.231.619,2.855Zm-1.238-5.71-.619-2.855,1.073-.233.619,2.858Zm-1.238-5.712-.617-2.855,1.071-.23.619,2.854Zm-1.236-5.711-.619-2.855,1.071-.231.619,2.855Zm-1.238-5.71-.619-2.855,1.073-.233.617,2.858Zm-1.238-5.712-.619-2.855,1.073-.23.619,2.854Zm-1.236-5.711-.619-2.854,1.071-.232.619,2.855Zm-1.238-5.711-.619-2.854,1.071-.233.619,2.856Zm-1.238-5.711-.619-2.856,1.072-.23.619,2.855Zm-1.238-5.712-.617-2.854,1.071-.231.619,2.854Zm-1.236-5.71-.619-2.855,1.071-.232.619,2.856Z" transform="translate(-445.395 -6569.814)" fill="#999"/>
          <rect id="Rectángulo_9675" data-name="Rectángulo 9675" width="1.458" height="1.098" transform="matrix(0.029, -1, 1, 0.029, 12.165, 344.189)" fill="#999"/>
        </g>
        <g id="Grupo_55537" data-name="Grupo 55537" transform="translate(45.4 164.412)">
          <rect id="Rectángulo_9676" data-name="Rectángulo 9676" width="1.096" height="1.462" transform="matrix(0.977, -0.212, 0.212, 0.977, 0, 0.232)" fill="#999"/>
          <path id="Trazado_106701" data-name="Trazado 106701" d="M460.776,6910.761l-1.1-.031.085-2.94,1.1.032Zm.173-5.877-1.1-.032.085-2.935,1.1.032Zm.171-5.872-1.1-.03.086-2.934,1.1.03Zm.17-5.866-1.1-.033.086-2.931,1.1.031Zm.17-5.864-1.1-.031.086-2.935,1.1.032Zm.174-5.867-1.1-.032.083-2.933,1.1.032Zm.17-5.863-1.1-.032.083-2.931,1.1.031Zm.168-5.865-1.1-.03.086-2.932,1.1.03Zm.168-5.862-1.1-.031.086-2.932,1.1.03Zm.173-5.863-1.1-.032L461.3,6855l1.1.032Zm.17-5.861-1.1-.032.083-2.933,1.1.032Zm.168-5.863-1.1-.032.082-2.846,1.1-.055Zm.168-5.866-1.1-.03.085-2.938,1.1.03Zm.167-5.87-1.1-.031.085-2.929,1.1.03Zm.17-5.853-1.1-.031.082-2.932,1.1.03Zm.168-5.864-1.1-.031.083-2.932,1.1.031Zm.167-5.864-1.1-.032.083-2.931,1.1.032Zm.165-5.862-1.1-.032.083-2.931,1.1.032Zm.164-5.863-1.1-.03.082-2.933,1.1.031Zm.165-5.865-1.1-.03.082-2.933,1.1.031Zm.162-5.867-1.1-.029.082-2.932,1.1.03Zm.165-5.862-1.1-.029.079-2.935,1.1.029Zm.158-5.868-1.1-.029.086-2.935,1.1.038Zm.206-5.844-1.094-.058q.077-1.494.173-2.932l1.094.074Q464.753,6774.4,464.677,6775.886Zm.4-5.827-1.094-.093q.129-1.494.279-2.926l1.092.114Q465.2,6768.577,465.074,6770.059Zm.607-5.806-1.089-.136q.189-1.493.4-2.912l1.086.159C465.937,6762.3,465.807,6763.268,465.681,6764.253Zm.855-5.768-1.081-.187q.252-1.485.531-2.891l1.078.21Q466.787,6757.013,466.535,6758.485Zm1.128-5.716-1.073-.24q.334-1.485.688-2.864l1.064.271Q467.991,6751.3,467.664,6752.77Zm1.443-5.642-1.055-.306q.43-1.471.871-2.816l1.043.342Q469.528,6745.676,469.106,6747.128Zm1.814-5.523-1.029-.384q.542-1.458,1.086-2.746l1.013.426Q471.457,6740.169,470.921,6741.6Zm2.259-5.351-.989-.474c.462-.964.917-1.84,1.355-2.633l.96.532C474.077,6734.455,473.634,6735.311,473.18,6736.254Zm2.809-5.057-.92-.6c.581-.894,1.165-1.708,1.738-2.425l.857.687C477.113,6729.549,476.55,6730.336,475.989,6731.2Zm3.2-5.037-1.084-.172.458-2.893,1.083.171Zm.916-5.789-1.084-.171.331-2.094-.127-.591,1.073-.231.173.791Zm-1.5-5.719-.62-2.864,1.073-.231.62,2.864Zm-1.241-5.728-.62-2.863,1.071-.231.62,2.863Zm-1.241-5.728-.62-2.863,1.073-.231.619,2.863Zm-1.241-5.727-.62-2.863,1.071-.231.622,2.863Zm-1.241-5.728-.62-2.863,1.071-.23.62,2.863Zm-1.241-5.727-.622-2.863,1.073-.231.62,2.864Zm-1.242-5.728-.619-2.863,1.071-.232.62,2.863Zm-1.239-5.727-.62-2.865,1.071-.232.62,2.865Zm-1.242-5.729-.62-2.863,1.073-.232.62,2.863Zm-1.241-5.727-.619-2.863,1.071-.233.62,2.863Zm-1.241-5.729-.62-2.863,1.071-.231.62,2.863Zm-1.241-5.728-.62-2.863,1.073-.231.62,2.863Zm-1.239-5.727-.622-2.864,1.071-.23.622,2.863Zm-1.242-5.728-.62-2.863,1.073-.23.619,2.863Zm-1.241-5.727-.622-2.864,1.073-.23.622,2.863Zm-1.241-5.728-.62-2.863,1.071-.231.62,2.864Zm-1.241-5.727-.62-2.863,1.073-.231.619,2.863Zm-1.242-5.727-.619-2.864,1.071-.231.62,2.864Zm-1.239-5.728-.62-2.863,1.071-.231.62,2.863Zm-1.242-5.729-.62-2.863,1.073-.231.619,2.863Zm-1.241-5.727-.619-2.864,1.071-.231.62,2.864Zm-1.239-5.728-.622-2.863,1.071-.231.622,2.864Zm-1.242-5.728-.62-2.863,1.073-.23.62,2.863Zm-1.241-5.727-.62-2.863,1.071-.232.622,2.863Zm-1.241-5.727-.62-2.863,1.071-.233.62,2.864Z" transform="translate(-447.265 -6569.81)" fill="#999"/>
          <rect id="Rectángulo_9677" data-name="Rectángulo 9677" width="1.458" height="1.098" transform="matrix(0.029, -1, 1, 0.029, 12.288, 345.182)" fill="#999"/>
        </g>
        <path id="Trazado_106702" data-name="Trazado 106702" d="M449.383,6593.765c-8.62,0-15.633-15.187-15.633-33.854s7.013-33.854,15.633-33.854,15.634,15.187,15.634,33.854S458,6593.765,449.383,6593.765Zm0-66.611c-8.014,0-14.536,14.7-14.536,32.757s6.522,32.757,14.536,32.757,14.537-14.7,14.537-32.757S457.4,6527.153,449.383,6527.153Z" transform="translate(-408.558 -6427.654)" fill="#999"/>
        <path id="Trazado_106703" data-name="Trazado 106703" d="M416.776,6613.763l-.243-1.069c.11-.024,11.138-2.521,28.35-6.03a175.051,175.051,0,0,0,34.426-11.108c.4-.16,37.258-14.929,67.521-10.842l24.926,5.077-.219,1.074-24.889-5.07c-29.958-4.04-66.534,10.618-66.9,10.768A176.267,176.267,0,0,1,445.1,6607.74C427.9,6611.245,416.884,6613.74,416.776,6613.763Z" transform="translate(-416.533 -6400.815)" fill="#999"/>
      </g>
      <path id="Trazado_106704" data-name="Trazado 106704" d="M498.978,6583.7l3.146-3.709-1.21-1.533.645-1.452s4.354,0,5,4.194l-1.21.63-1.936-.468-3.79,2.9Z" transform="translate(-368.182 -6402.553)" fill="#999"/>
      <path id="Trazado_106705" data-name="Trazado 106705" d="M516.248,6530.935l-2.559-5.274,1.871-1.426-.318-1.889s-5.085-1.307-7.1,3.4l1.225,1.1,2.4.035,3.554,4.525Z" transform="translate(-363.936 -6427.948)" fill="#999"/>
      <g id="Grupo_55539" data-name="Grupo 55539" opacity="0.5">
        <path id="Trazado_106706" data-name="Trazado 106706" d="M622.23,6459.6s-2.386,46.2-.717,64.908,3.961,68.9,3.961,68.9,4.39,54.775.764,85.312-4.725,111.841-4.725,111.841l-2.337,136.65v19.276s-63.364,2.863-75.578,6.68-51.471,6.489-62.094,5.153-39.059-9.543-41.921-13.933c0,0,2.672-46,0-65.463s-7.443-110.476-7.443-110.476l-15.269-89.729s-4.008-5.153-1.146-7.443a32.293,32.293,0,0,1,4.7-3.244l-7.756-50s-4.39-53.861-1.718-66.247,6.489-29.371,6.489-29.371,4.772-11.557,16.032-11.5,11.782,12.076,11.782,12.076l47.382-36.62,32.445-21.59,14.536-6.489Z" transform="translate(-409.355 -6457.547)" fill="#999"/>
        <path id="Trazado_106707" data-name="Trazado 106707" d="M489.737,6959.618a71.344,71.344,0,0,1-8.09-.344c-9.561-1.2-39.258-9.375-42.443-14.259a.715.715,0,0,1-.117-.442c.026-.459,2.637-46.146.006-65.318-2.647-19.277-7.4-109.629-7.449-110.539l-15.231-89.469c-.691-.941-4.028-5.819-.91-8.313a37.254,37.254,0,0,1,4.359-3.062l-7.679-49.5c-.186-2.258-4.374-54.163-1.709-66.513,2.643-12.247,6.451-29.208,6.489-29.377.086-.239,5.11-12.076,16.67-12.076h.079c9.495.044,11.8,8.178,12.347,11.442l46.368-35.832,32.486-21.621,14.642-6.549a.681.681,0,0,1,.31-.063l82.61,1.318a.731.731,0,0,1,.719.769c-.023.461-2.363,46.367-.717,64.806,1.652,18.5,3.938,68.429,3.961,68.93.042.524,4.352,55.173.759,85.432-3.579,30.149-4.706,110.951-4.717,111.765l-2.338,136.653v19.264a.731.731,0,0,1-.7.731c-.634.028-63.408,2.9-75.393,6.646C533.595,6957.362,505.274,6959.618,489.737,6959.618ZM440.562,6944.4c3.257,4,30.312,12.05,41.267,13.427,10.153,1.28,49.149-1.177,61.783-5.127,11.616-3.629,67.763-6.341,75.066-6.679V6927.44l2.338-136.665c.012-.809,1.138-81.688,4.729-111.912,3.575-30.117-.724-84.621-.767-85.168-.025-.528-2.31-50.418-3.959-68.893-1.539-17.228.378-58.171.676-64.254l-81.693-1.3-14.386,6.423L493.279,6487.2l-47.342,36.588a.73.73,0,0,1-1.176-.546c-.022-.462-.638-11.328-11.055-11.376h-.073c-10.6,0-15.235,10.941-15.28,11.051,0,.052-3.809,17.006-6.45,29.247-2.618,12.138,1.689,65.494,1.731,66.032l7.751,49.952a.727.727,0,0,1-.386.759,32.516,32.516,0,0,0-4.581,3.168c-2.237,1.788,1.228,6.379,1.264,6.424a.7.7,0,0,1,.143.326l15.27,89.729c.057.994,4.81,91.284,7.446,110.5C443.086,6897.606,440.772,6940.619,440.562,6944.4Z" transform="translate(-409.589 -6457.779)" fill="#4d4d4d"/>
      </g>
      <path id="Trazado_106708" data-name="Trazado 106708" d="M533.126,6948.135h-1.463V6862.9l-5.515-90.544c.007-.673.939-62.116,4.125-88.944,3.85-32.444-1.318-58.272-2.4-63.118-2.6-11.73-5.732-36.462-5.762-36.711l-.006-27.565,17.932-96.923,1.437.265-17.919,96.791.013,27.341c.026.156,3.147,24.82,5.734,36.485,1.084,4.888,6.3,30.93,2.417,63.608-3.175,26.753-4.106,88.12-4.115,88.737l5.515,90.534Z" transform="translate(-357.468 -6457.172)" fill="#999"/>
      <path id="Trazado_106709" data-name="Trazado 106709" d="M420.3,6619.767a.732.732,0,0,1-.262-1.415l17.94-6.87a.731.731,0,0,1,.522,1.365l-17.939,6.872A.746.746,0,0,1,420.3,6619.767Z" transform="translate(-404.964 -6386.605)" fill="#4d4d4d"/>
      <path id="Trazado_106710" data-name="Trazado 106710" d="M434.357,6613.414a.732.732,0,0,1-.316-1.393l7.43-3.562a.732.732,0,0,1,.632,1.321l-7.43,3.562A.745.745,0,0,1,434.357,6613.414Z" transform="translate(-398.455 -6388.014)" fill="#4d4d4d"/>
      <path id="Trazado_106711" data-name="Trazado 106711" d="M440.848,6609.541a.732.732,0,0,1-.274-1.41l5.917-2.386a.738.738,0,0,1,.953.407.73.73,0,0,1-.407.951l-5.917,2.385A.737.737,0,0,1,440.848,6609.541Z" transform="translate(-395.448 -6389.263)" fill="#4d4d4d"/>
      <path id="Trazado_106712" data-name="Trazado 106712" d="M447.218,6611.023a.731.731,0,0,1-.367-1.363l8.715-5.059,16.1-7.191a.732.732,0,1,1,.6,1.337l-16.035,7.154-8.646,5.023A.724.724,0,0,1,447.218,6611.023Z" transform="translate(-392.497 -6393.13)" fill="#4d4d4d"/>
      <path id="Trazado_106713" data-name="Trazado 106713" d="M416.846,6611.187a.732.732,0,0,1-.149-1.448l21.948-4.579c.173-.036,17.882-3.926,23.774-5.986,2.556-.9,6.175-2.321,10.007-3.835,5.19-2.047,10.556-4.164,14.183-5.317a.739.739,0,0,1,.919.476.731.731,0,0,1-.477.919c-3.578,1.139-8.92,3.247-14.088,5.285-3.845,1.516-7.479,2.949-10.06,3.853-5.976,2.092-23.221,5.877-23.951,6.037L417,6611.171A.615.615,0,0,1,416.846,6611.187Z" transform="translate(-406.565 -6396.539)" fill="#4d4d4d"/>
      <path id="Trazado_106714" data-name="Trazado 106714" d="M421.9,6620.611a.731.731,0,0,1-.732-.731c0-13.4-4.34-14.024-4.382-14.029a.74.74,0,0,1-.663-.787.675.675,0,0,1,.755-.672c.59.028,5.753.716,5.753,15.488A.731.731,0,0,1,421.9,6620.611Z" transform="translate(-406.562 -6389.868)" fill="#4d4d4d"/>
      <path id="Trazado_106715" data-name="Trazado 106715" d="M523.655,6973.354h-.022a.732.732,0,0,1-.71-.753c.042-1.457,4.147-146.078-2.754-168.445-6.977-22.612-4.892-51.991-4.87-52.284l8.231-67.778c.026-.371,3.1-40.529,1.317-59.6-.569-6.119-1.861-13.718-3.231-21.763-2.941-17.289-6.6-38.8-5.105-57.717l16.236-85.737a.731.731,0,1,1,1.437.271l-16.226,85.659c-1.469,18.654,2.174,40.072,5.1,57.28,1.371,8.071,2.669,15.7,3.244,21.87,1.789,19.2-1.289,59.478-1.32,59.882l-8.229,67.773c-.019.259-2.082,29.367,4.811,51.712,6.972,22.6,2.992,162.955,2.82,168.919A.733.733,0,0,1,523.655,6973.354Z" transform="translate(-360.765 -6457.361)" fill="#4d4d4d"/>
      <g id="Grupo_55540" data-name="Grupo 55540" transform="translate(165.169 190.477)">
        <path id="Trazado_106716" data-name="Trazado 106716" d="M565.486,6593.668s-35.006-3.816-42.944-5.344" transform="translate(-522.437 -6587.786)" fill="#fff"/>
        <path id="Trazado_106717" data-name="Trazado 106717" d="M565.458,6594.384c-.35-.04-35.117-3.837-42.988-5.352l.209-1.076c7.827,1.5,42.549,5.3,42.9,5.335Z" transform="translate(-522.47 -6587.957)" fill="#999"/>
      </g>
    </g>
  </g>
</svg>
