<svg xmlns="http://www.w3.org/2000/svg" width="604" height="488.762" viewBox="0 0 604 488.762">
  <g id="Grupo_55672" data-name="Grupo 55672" transform="translate(-378.981 -7979.735)">
    <rect id="Rectángulo_9725" data-name="Rectángulo 9725" width="604" height="488.762" rx="22.974" transform="translate(378.981 7979.735)" fill="#fff"/>
    <g id="Grupo_55671" data-name="Grupo 55671" transform="translate(421.386 8009.319)">
      <g id="Grupo_55641" data-name="Grupo 55641" transform="translate(107.629)">
        <g id="Grupo_55639" data-name="Grupo 55639" transform="translate(0.435)">
          <g id="Grupo_55635" data-name="Grupo 55635" transform="translate(16.975 21.557)">
            <path id="Trazado_107032" data-name="Trazado 107032" d="M672.016,8090.6s-12.7-5.478-17.475-8.673c0,0-4.646-2.241-4.84-12.376s.584-17.152,2.144-21.928l1.948-7.4s-5.652-8.772-21.439-10.818c0,0-10.622-.974-13.059,1.561,0,0-6.432,24.069-15.2,34.789,0,0-1.852,7.114-21.341,11.109l-23,4.971s-10.622,2.24-12.279,10.913c0,0-6.432,6.919-2.923,32.646l.975,5.262,11.3,58.275,16.468,65.292.682,2.34v6.528s-24.91,25.409-27.053,44.9-6.766,125.767-6.766,125.767,75.417,6.151,120.234,0l5.842-102.4s2.153-22.447-4-34.747L649.4,8267.922a81.534,81.534,0,0,1,1.655-9.352l7.729-31.7,11.085-34.821,6.237-11.5s8.121-10.59,7.081-19.426l-2.989-10.394s-.389-13.644.13-18.711l3.768-13.514,1.3-12.213s.909-5.586-2.859-8.707A94.8,94.8,0,0,0,672.016,8090.6Z" transform="translate(-539.756 -8028.83)" fill="#fff"/>
            <path id="Trazado_107033" data-name="Trazado 107033" d="M609.447,8436.882c-35.379,0-68.8-2.676-69.3-2.717l-.376-.03.017-.376c.047-1.063,4.647-106.516,6.768-125.794,2.06-18.729,25.228-43.122,27.052-45.015v-6.316l-.668-2.284-16.471-65.307-11.31-58.3-.975-5.264c-3.33-24.415,2.181-31.98,2.945-32.9,1.75-8.741,12.453-11.1,12.561-11.12l23-4.968c18.933-3.881,21.029-10.761,21.047-10.829l.076-.147c8.615-10.53,15.061-34.4,15.126-34.643l.1-.169c2.537-2.639,12.935-1.72,13.375-1.679,15.8,2.048,21.5,10.63,21.732,10.994l.092.145-1.992,7.573c-1.622,4.969-2.317,12.1-2.131,21.818s4.577,12.012,4.622,12.034c4.739,3.163,17.333,8.612,17.459,8.665l.04.021a95.906,95.906,0,0,1,10.579,7.021c3.9,3.225,3.034,8.832,2.995,9.07l-1.3,12.192-3.78,13.576c-.484,4.77-.142,17.642-.116,18.546l2.973,10.346c1.059,8.954-6.811,19.333-7.146,19.772l-6.2,11.448L659.176,8227l-7.722,31.674a80.367,80.367,0,0,0-1.634,9.2l12.794,28.593c6.122,12.244,4.051,34.72,4.029,34.945l-5.86,102.7-.318.043C645.607,8436.2,627.277,8436.882,609.447,8436.882Zm-68.861-3.466c5.808.454,76.772,5.8,119.456.017l5.823-102.077c.023-.238,2.072-22.494-3.956-34.551L649.019,8268l.012-.106a82.562,82.562,0,0,1,1.667-9.41l7.726-31.687,11.092-34.847,6.266-11.568c.113-.155,8.045-10.618,7.038-19.192l-2.991-10.43c0-.136-.386-13.726.13-18.762l3.78-13.578,1.288-12.15c.01-.074.829-5.426-2.72-8.361a94.325,94.325,0,0,0-10.45-6.936c-.757-.327-12.813-5.555-17.517-8.7-.152-.068-4.817-2.436-5.014-12.693-.188-9.808.52-17.023,2.164-22.054l1.9-7.21c-.8-1.111-6.741-8.646-21.066-10.5-2.857-.261-10.653-.52-12.659,1.374-.473,1.728-6.793,24.442-15.2,34.773-.289.885-3.044,7.5-21.615,11.306l-22.994,4.968c-.106.022-10.391,2.295-11.978,10.607l-.021.109-.076.083c-.063.069-6.254,7.168-2.824,32.328l.972,5.244,11.3,58.272,16.464,65.27.695,2.436v6.688l-.112.114c-.248.253-24.839,25.538-26.943,44.668C545.278,8326.722,540.892,8426.438,540.586,8433.416Z" transform="translate(-539.772 -8028.844)" fill="#999"/>
          </g>
          <ellipse id="Elipse_4324" data-name="Elipse 4324" cx="2.631" cy="3.947" rx="2.631" ry="3.947" transform="translate(29.275 102.433)" fill="#999"/>
          <g id="Grupo_55636" data-name="Grupo 55636" transform="translate(106.129)">
            <path id="Trazado_107034" data-name="Trazado 107034" d="M630.795,8025.812v10.524a5.3,5.3,0,0,0,4.839.357l.1-10.882a8.441,8.441,0,0,0,6.367-8.381s.909-9.291-8.446-8.9-7.8,11.175-7.8,11.175S627.546,8025.162,630.795,8025.812Z" transform="translate(-625.368 -8008.128)" fill="#fff"/>
            <path id="Trazado_107035" data-name="Trazado 107035" d="M633.563,8037.523a5.536,5.536,0,0,1-2.976-.851l-.167-.117v-10.422c-3.228-.942-4.851-6.072-4.921-6.3-.046-.282-.768-5.547,2.054-8.948a7.98,7.98,0,0,1,6.1-2.733c2.887-.115,5.122.643,6.656,2.266,2.586,2.735,2.213,6.888,2.2,7.063a8.783,8.783,0,0,1-6.368,8.639l-.1,10.849-.239.1A5.852,5.852,0,0,1,633.563,8037.523Zm-2.362-1.389a4.9,4.9,0,0,0,4.06.3l.1-10.923.3-.069a7.986,7.986,0,0,0,6.064-8c.006-.08.355-4.024-1.987-6.5-1.372-1.449-3.4-2.131-6.052-2.017a7.224,7.224,0,0,0-5.531,2.452c-2.6,3.135-1.9,8.225-1.9,8.276h0c.005,0,1.648,5.185,4.628,5.779l.314.063Z" transform="translate(-625.384 -8008.144)" fill="#999"/>
          </g>
          <path id="Trazado_107036" data-name="Trazado 107036" d="M677.036,8157.563l-4.886-18.482c-4.061-12.962-4.758-20.424-5.812-31.719-.136-1.459-.279-2.985-.435-4.594-1.326-13.639-6.123-17.326-6.172-17.361l.461-.632c.208.152,5.123,3.872,6.488,17.918.157,1.609.3,3.136.435,4.6,1.05,11.244,1.743,18.672,5.785,31.573l4.89,18.5Z" transform="translate(-517.834 -8004.974)" fill="#999"/>
          <path id="Trazado_107037" data-name="Trazado 107037" d="M618.6,8252.919c-1.113,0-2.26-.006-3.448-.019-30.445-.318-43.228-7.191-43.354-7.26l.377-.684c.125.068,12.773,6.846,42.986,7.162,26.76.3,34.359-2.8,34.434-2.834l.3.72C649.608,8250.129,642.712,8252.919,618.6,8252.919Z" transform="translate(-521.471 -7998.347)" fill="#999"/>
          <path id="Trazado_107038" data-name="Trazado 107038" d="M620.543,8262.007q-2.627,0-5.444-.1c-28.5-1.089-42.027-7.673-42.16-7.739l.348-.7c.132.066,13.536,6.576,41.842,7.658,19.64.752,32.684-2.818,32.814-2.854l.209.753C648.034,8259.054,637.25,8262.007,620.543,8262.007Z" transform="translate(-521.424 -7997.994)" fill="#999"/>
          <path id="Trazado_107039" data-name="Trazado 107039" d="M631.609,8089.336a21.461,21.461,0,0,1-4.654-.531c-15.745-3.5-28.843-20.341-28.973-20.512l.619-.476c.129.168,13.059,16.789,28.523,20.224,15.271,3.4,21.585-11.281,21.647-11.43l.722.3C649.434,8077.051,644.165,8089.336,631.609,8089.336Z" transform="translate(-520.388 -8005.675)" fill="#999"/>
          <path id="Trazado_107040" data-name="Trazado 107040" d="M646.216,8048.394c-16.743,0-32.274-9.884-32.437-9.99l.423-.657c.17.11,17.029,10.813,34.37,9.8l.047.779C647.816,8048.371,647.013,8048.394,646.216,8048.394Z" transform="translate(-519.735 -8006.919)" fill="#999"/>
          <path id="Trazado_107041" data-name="Trazado 107041" d="M645.174,8041.74c-14.835,0-28.859-9.56-29.016-9.668l.444-.642c.176.121,17.73,12.087,34.139,9.032l.143.769A31.116,31.116,0,0,1,645.174,8041.74Z" transform="translate(-519.636 -8007.18)" fill="#999"/>
          <path id="Trazado_107042" data-name="Trazado 107042" d="M608.4,8430.194l-.781-.023,3.273-103.321c.641-14.5-.637-52.889-.651-53.274l0-.062.018-.06,4.339-15.047-1.168-59.839c.015-.273,1.455-24.355,3.515-35.809,2.023-11.258-6.724-22.837-6.813-22.952-.158-.32-11.426-24.862-17.342-43-5.822-17.844-15.078-19.988-15.171-20.007l.157-.764c.4.081,9.776,2.2,15.756,20.53,5.9,18.089,17.151,42.591,17.264,42.836.046.045,9,11.892,6.917,23.49-2.052,11.409-3.49,35.445-3.5,35.687l1.172,59.928-4.355,15.1c.058,1.765,1.28,39.015.649,53.269Z" transform="translate(-521.231 -8005.335)" fill="#999"/>
          <path id="Trazado_107043" data-name="Trazado 107043" d="M642.2,8419.686l-.781-.019c.029-1.173,2.778-117.557-2.23-135.778-4.944-17.986-.988-32.347,1.377-40.928l6.109-54.368c.023-.33,2.316-34.835.882-50.218-.477-5.105-1.6-11.277-2.795-17.809-2.527-13.845-5.391-29.537-4.209-44.506l4.816-28.307.771.13-4.812,28.272c-1.169,14.834,1.685,30.474,4.2,44.272,1.2,6.55,2.324,12.736,2.8,17.875,1.441,15.445-.857,50.014-.881,50.36l-6.122,54.447c-2.354,8.563-6.275,22.793-1.389,40.572C644.977,8302.013,642.226,8418.511,642.2,8419.686Z" transform="translate(-518.782 -8006.505)" fill="#999"/>
          <path id="Trazado_107044" data-name="Trazado 107044" d="M571.956,8166.09l-3.329-10.881.318-.142c.3-.132,30.213-13.2,55.088-8.937,24.75,4.235,54.551,8.144,54.849,8.183l2.583.285.083.228a13.213,13.213,0,0,1-1,10.412l-.135.238-.27-.047-30.708-5.276c-.337-.068-32.682-6.578-43.191-3.518-10.6,3.084-33.688,9.294-33.92,9.356Zm-2.378-10.445,2.906,9.5c3-.81,23.679-6.388,33.541-9.256,10.692-3.108,42.215,3.229,43.551,3.5L680,8164.612a12.656,12.656,0,0,0,.889-9.292l-2.1-.232c-.306-.041-30.122-3.949-54.888-8.189C600.637,8142.92,572.852,8154.259,569.578,8155.645Z" transform="translate(-521.603 -8002.47)" fill="#999"/>
          <path id="Trazado_107045" data-name="Trazado 107045" d="M618.46,8261.687l-2.932-2.933,2.281-3.13-2.861-3.106.574-.529,3.3,3.579-2.265,3.106,2.46,2.459Z" transform="translate(-519.686 -7998.054)" fill="#999"/>
          <path id="Trazado_107046" data-name="Trazado 107046" d="M622.519,8261.687l-2.932-2.933,2.282-3.13-2.861-3.106.574-.529,3.3,3.579-2.266,3.106,2.46,2.459Z" transform="translate(-519.518 -7998.054)" fill="#999"/>
          <path id="Trazado_107047" data-name="Trazado 107047" d="M626.891,8261.687l-2.932-2.933,2.282-3.13-2.862-3.106.574-.529,3.3,3.579-2.266,3.106,2.46,2.459Z" transform="translate(-519.337 -7998.054)" fill="#999"/>
          <path id="Trazado_107048" data-name="Trazado 107048" d="M631.029,8261.687l-2.932-2.933,2.282-3.13-2.862-3.106.574-.529,3.3,3.579-2.266,3.106,2.46,2.459Z" transform="translate(-519.166 -7998.054)" fill="#999"/>
          <path id="Trazado_107049" data-name="Trazado 107049" d="M635.013,8261.006l-2.932-2.934,2.282-3.13-2.861-3.107.574-.528,3.3,3.578-2.266,3.108,2.46,2.459Z" transform="translate(-519.001 -7998.083)" fill="#999"/>
          <path id="Trazado_107050" data-name="Trazado 107050" d="M596.607,8260.638l-2.647-3.121,2.571-2.779-2.538-3.255.616-.48,2.947,3.777L595,8257.538l2.2,2.6Z" transform="translate(-520.555 -7998.097)" fill="#999"/>
          <path id="Trazado_107051" data-name="Trazado 107051" d="M600.647,8261.041,598,8257.92l2.571-2.779-2.538-3.256.616-.479,2.947,3.777-2.553,2.759,2.2,2.595Z" transform="translate(-520.388 -7998.079)" fill="#999"/>
          <path id="Trazado_107052" data-name="Trazado 107052" d="M605,8261.476l-2.648-3.121,2.571-2.779-2.538-3.256.616-.479,2.947,3.778-2.553,2.759,2.2,2.594Z" transform="translate(-520.208 -7998.061)" fill="#999"/>
          <path id="Trazado_107053" data-name="Trazado 107053" d="M583.98,8257.982l-2.648-3.122,2.571-2.778-2.538-3.257.616-.479,2.947,3.777-2.553,2.759,2.2,2.594Z" transform="translate(-521.077 -7998.207)" fill="#999"/>
          <path id="Trazado_107054" data-name="Trazado 107054" d="M580.026,8256.846l-2.648-3.122,2.571-2.778-2.538-3.256.616-.479,2.947,3.777-2.553,2.759,2.2,2.595Z" transform="translate(-521.241 -7998.252)" fill="#999"/>
          <path id="Trazado_107055" data-name="Trazado 107055" d="M576.763,8255.732l-2.648-3.12,2.571-2.78-2.538-3.255.616-.48,2.947,3.778-2.553,2.76,2.2,2.594Z" transform="translate(-521.376 -7998.299)" fill="#999"/>
          <path id="Trazado_107056" data-name="Trazado 107056" d="M588.02,8259.064l-2.648-3.121,2.571-2.779-2.538-3.255.616-.48,2.947,3.777-2.553,2.759,2.2,2.6Z" transform="translate(-520.91 -7998.162)" fill="#999"/>
          <path id="Trazado_107057" data-name="Trazado 107057" d="M592.371,8259.5l-2.648-3.121,2.571-2.779-2.538-3.256.616-.479,2.947,3.778-2.553,2.759,2.2,2.594Z" transform="translate(-520.73 -7998.143)" fill="#999"/>
          <path id="Trazado_107058" data-name="Trazado 107058" d="M609.115,8261.888l-2.648-3.121,2.571-2.779-2.538-3.256.616-.479,2.947,3.777-2.553,2.759,2.2,2.595Z" transform="translate(-520.037 -7998.045)" fill="#999"/>
          <path id="Trazado_107059" data-name="Trazado 107059" d="M613.145,8261.627l-2.648-3.121,2.572-2.779-2.539-3.256.616-.48,2.946,3.779-2.552,2.759,2.2,2.594Z" transform="translate(-519.87 -7998.054)" fill="#999"/>
          <path id="Trazado_107060" data-name="Trazado 107060" d="M643.713,8258.961l-3.12-2.5,2.369-2.607-2.89-2.522.513-.588,3.492,3.045-2.346,2.583,2.471,1.986Z" transform="translate(-518.647 -7998.106)" fill="#999"/>
          <path id="Trazado_107061" data-name="Trazado 107061" d="M640.061,8259.569,637.088,8257l2.271-2.685-2.789-2.612.533-.57,3.332,3.119-2.25,2.663,2.388,2.059Z" transform="translate(-518.792 -7998.09)" fill="#999"/>
          <path id="Trazado_107062" data-name="Trazado 107062" d="M584.236,8419.26l-.779-.052,10.368-154.413,1.753-58.84v-53.567h.781v53.578l-1.754,58.867Z" transform="translate(-520.989 -8002.176)" fill="#999"/>
          <path id="Trazado_107063" data-name="Trazado 107063" d="M559.445,8428.363l-.781-.038c.038-.754,3.795-75.738,4.672-108.232.86-31.767,13.413-58.055,14.165-59.6l.645-8.4L557.56,8135.446l.77-.136,20.6,116.75,0,.049-.695,8.664c-.132.266-13.241,26.938-14.117,59.342C563.24,8352.616,559.482,8427.61,559.445,8428.363Z" transform="translate(-522.061 -8002.882)" fill="#999"/>
          <g id="Grupo_55637" data-name="Grupo 55637" transform="translate(34.405 132.428)">
            <rect id="Rectángulo_9726" data-name="Rectángulo 9726" width="0.78" height="1.042" transform="translate(0 0.134) rotate(-9.895)" fill="#999"/>
            <path id="Trazado_107064" data-name="Trazado 107064" d="M558.459,8424.7l-.781-.028.075-2.092.781.027Zm.15-4.183-.781-.029.076-2.091.781.028Zm.153-4.18-.781-.03.077-2.089.781.028Zm.155-4.179-.781-.029.078-2.088.781.029Zm.157-4.178-.781-.028.079-2.087.781.029Zm.158-4.172-.781-.03.082-2.088.781.031Zm.162-4.176-.781-.03.082-2.087.781.03Zm.164-4.173-.781-.03.083-2.089.781.033Zm.168-4.173-.781-.031.084-2.088.781.033Zm.169-4.173-.781-.032.085-2.086.781.032Zm.173-4.173-.781-.031.086-2.088.781.032Zm.174-4.172-.781-.032.089-2.087.781.032Zm.178-4.173-.781-.032.09-2.088.781.035Zm.18-4.173-.781-.034.092-2.086.781.034Zm.184-4.172-.781-.032.092-2.088.781.035Zm.187-4.168-.781-.037.1-2.09.781.033Zm.192-4.183-.781-.036.1-2.087.781.036Zm.195-4.17-.781-.038.1-2.08.781.039Zm.2-4.166-.781-.038.1-2.085.781.038Zm.2-4.169-.779-.04.1-2.086.781.04Zm.212-4.171-.779-.041.108-2.086.779.04Zm.216-4.169-.779-.043.111-2.084.779.04Zm.225-4.171-.779-.043.115-2.085.779.043Zm.231-4.171-.779-.043.12-2.086.779.046Zm.242-4.166-.779-.047.125-2.086.779.047Zm.252-4.168-.779-.05.132-2.084.779.048Zm.268-4.17-.779-.051.141-2.085.779.053Zm.286-4.167-.779-.055.15-2.085.779.058Zm-.081-4.2-.389-.03.169-2.085.779.068-.163,2Zm.763-4.115-.777-.085c.077-.691.163-1.387.259-2.082l.773.105C564.537,8302.359,564.451,8303.046,564.376,8303.731Zm.558-4.119-.771-.121c.107-.69.225-1.382.348-2.072l.769.14Q565.1,8298.584,564.934,8299.612Zm.731-4.1-.766-.151q.2-1.027.421-2.051l.764.163Q565.867,8294.486,565.665,8295.509Zm.871-4.065-.76-.177q.236-1.024.485-2.038l.759.188Q566.772,8290.422,566.536,8291.443Zm1-4.047-.756-.2q.264-1.02.542-2.022l.753.207C567.89,8286.051,567.708,8286.722,567.534,8287.4Zm1.1-4.017-.751-.217c.194-.678.393-1.346.591-2.006l.749.224Q568.93,8282.368,568.638,8283.38Zm1.2-3.991-.747-.231c.211-.678.424-1.341.637-2l.742.242Q570.157,8278.377,569.841,8279.389Zm1.29-3.963-.74-.249c.227-.677.455-1.336.679-1.98l.738.257Q571.472,8274.414,571.131,8275.426Zm1.374-3.938-.735-.265q.365-1.018.719-1.966l.732.272C572.986,8270.156,572.748,8270.811,572.5,8271.487Zm1.454-3.911-.73-.278c.264-.69.518-1.343.758-1.952l.727.287C574.474,8266.24,574.221,8266.891,573.959,8267.576Zm1.532-3.879-.725-.295c.307-.754.579-1.4.8-1.936l.72.3C576.064,8262.3,575.8,8262.947,575.491,8263.7Zm1.575-3.994-.779-.06.158-2.08.779.06Zm.317-4.16-.779-.06.157-2.08.779.059Zm-.523-4.119-.361-2.056.77-.135.36,2.055Zm-.722-4.11-.36-2.056.769-.134.36,2.054Zm-.722-4.11-.359-2.056.768-.134.36,2.056Zm-.721-4.11-.36-2.055.77-.135.359,2.056Zm-.721-4.108-.36-2.056.769-.135.36,2.056Zm-.722-4.111-.36-2.054.768-.135.361,2.054Zm-.721-4.109-.361-2.056.769-.133.361,2.055Zm-.721-4.109-.361-2.056.768-.134.361,2.056Zm-.722-4.109-.361-2.057.77-.134.36,2.056Zm-.721-4.11-.361-2.055.768-.135.361,2.055Zm-.723-4.11-.359-2.055.769-.134.36,2.054Zm-.721-4.109-.36-2.056.77-.134.359,2.056Zm-.721-4.11-.36-2.055.769-.134.36,2.054Zm-.722-4.11-.359-2.054.768-.134.36,2.054Zm-.721-4.108-.361-2.056.769-.134.361,2.055Zm-.722-4.109-.36-2.055.769-.136.361,2.057Zm-.721-4.11-.361-2.054.77-.135.36,2.053Zm-.721-4.11-.361-2.055.768-.134.361,2.054Zm-.722-4.108-.36-2.057.768-.134.361,2.056Zm-.722-4.111-.36-2.055.77-.134.359,2.055Zm-.721-4.11-.36-2.054.768-.134.36,2.054Zm-.722-4.108-.36-2.055.77-.135.359,2.055Zm-.721-4.109-.36-2.056.769-.134.36,2.056Zm-.722-4.11-.36-2.055.768-.134.361,2.054Zm-.721-4.11-.361-2.056.77-.134.36,2.055Zm-.721-4.108-.361-2.056.769-.135.361,2.055Zm-.722-4.111-.36-2.055.769-.134.361,2.055Zm-.721-4.109-.361-2.056.769-.133.361,2.055Z" transform="translate(-556.487 -8135.189)" fill="#999"/>
            <rect id="Rectángulo_9727" data-name="Rectángulo 9727" width="1.036" height="0.781" transform="matrix(0.034, -0.999, 0.999, 0.034, 1.091, 292.406)" fill="#999"/>
          </g>
          <g id="Grupo_55638" data-name="Grupo 55638" transform="translate(36.609 132.425)">
            <rect id="Rectángulo_9728" data-name="Rectángulo 9728" width="0.78" height="1.041" transform="translate(0 0.135) rotate(-9.959)" fill="#999"/>
            <path id="Trazado_107065" data-name="Trazado 107065" d="M560.64,8425.229l-.781-.016.048-2.1.781.019Zm.1-4.191-.781-.019.051-2.095.781.021Zm.1-4.187-.781-.019.053-2.094.781.021Zm.109-4.184-.781-.02.055-2.093.781.021Zm.112-4.182-.781-.022.059-2.091.781.022Zm.119-4.184-.781-.022.061-2.092.781.025Zm.125-4.181-.781-.023.065-2.089.781.023Zm.13-4.18-.781-.024.067-2.092.781.025Zm.134-4.181-.781-.026.071-2.089.781.025Zm.142-4.178-.781-.026.074-2.092.781.027Zm.148-4.181-.781-.028.076-2.09.781.028Zm.153-4.177-.781-.03.079-2.091.781.032Zm-.229-4.2-.391-.016.083-2.091.781.032-.081,2.008Zm.168-4.178-.39-.016.086-2.091.781.033-.083,2Zm.565-4.162-.781-.033.091-2.091.781.034Zm.182-4.184-.781-.034.1-2.092.781.037Zm.194-4.176-.781-.037.1-2.086.781.038Zm.2-4.166-.781-.038.107-2.089.779.04Zm.211-4.172-.779-.044.112-2.089.779.044Zm.226-4.178-.779-.042.118-2.089.78.044Zm.239-4.172-.779-.049.126-2.088.779.049Zm.256-4.176-.779-.048.134-2.089.779.051Zm.273-4.17-.779-.056.145-2.086.779.055Zm.3-4.172-.779-.058.156-2.086.779.059Zm.321-4.168-.779-.062.172-2.087.779.065Zm.352-4.166-.777-.069q.1-1.061.193-2.085l.777.075Q565.366,8319.734,565.271,8320.792Zm.4-4.16-.777-.079c.072-.712.146-1.407.219-2.082l.777.082Q565.776,8315.568,565.667,8316.632Zm.453-4.154-.775-.09.255-2.078.775.1Zm.525-4.14-.776-.1q.142-1.047.287-2.072l.773.109Q566.784,8307.294,566.645,8308.338Zm.585-4.13-.773-.115q.156-1.046.32-2.068l.771.121C567.44,8302.825,567.335,8303.513,567.23,8304.208Zm.653-4.121-.771-.128q.173-1.046.353-2.062l.768.134Q568.056,8299.044,567.883,8300.087Zm.72-4.108-.768-.143q.194-1.042.388-2.056l.768.149Q568.795,8294.939,568.6,8295.979Zm.792-4.1-.764-.157q.212-1.04.425-2.047l.764.162Q569.607,8290.843,569.394,8291.882Zm.867-4.08-.762-.171q.231-1.039.464-2.04l.761.178Q570.492,8286.766,570.262,8287.8Zm.945-4.061-.758-.186q.253-1.04.506-2.031l.757.193Q571.46,8282.7,571.206,8283.741Zm1.032-4.042-.755-.2q.278-1.039.551-2.019l.753.209Q572.514,8278.666,572.238,8279.7Zm1.122-4.017-.751-.219q.3-1.037.6-2.006l.747.229C573.761,8274.33,573.56,8275,573.36,8275.683Zm1.224-3.984-.745-.238q.336-1.044.656-1.99l.74.251Q574.915,8270.66,574.583,8271.7Zm1.334-3.945-.736-.263q.378-1.062.722-1.968l.73.275C576.408,8266.4,576.167,8267.048,575.917,8267.753Zm1.472-3.9-.724-.293c.317-.785.591-1.431.811-1.937l.715.314C577.974,8262.441,577.7,8263.08,577.39,8263.857Zm1.516-3.986-.777-.075.2-2.079.777.074Zm.408-4.159-.778-.075.2-2.079.777.075Zm.407-4.157-.777-.076.016-.157-.315-1.8.768-.135.334,1.9Zm-1.438-4.089-.36-2.059.768-.134.361,2.059Zm-.722-4.115-.361-2.059.77-.135.36,2.059Zm-.723-4.115-.361-2.059.769-.135.361,2.059Zm-.723-4.115-.36-2.06.768-.134.361,2.059Zm-.722-4.117-.361-2.058.769-.134.361,2.058Zm-.722-4.115-.361-2.058.769-.134.361,2.058Zm-.723-4.116-.361-2.058.77-.134.36,2.058Zm-.722-4.114-.361-2.058.768-.135.361,2.058Zm-.723-4.116-.36-2.058.768-.135.361,2.058Zm-.723-4.116-.361-2.057.77-.134.36,2.056Zm-.722-4.115-.361-2.058.768-.134.361,2.058Zm-.723-4.116-.36-2.058.769-.134.361,2.058Zm-.722-4.115-.361-2.058.77-.134.36,2.058Zm-.722-4.115-.361-2.058.768-.133.361,2.057Zm-.723-4.115-.36-2.059.768-.134.361,2.059Zm-.722-4.115-.361-2.059.77-.134.36,2.059Zm-.723-4.115-.361-2.059.768-.135.361,2.06Zm-.723-4.116-.36-2.058.769-.135.361,2.059Zm-.722-4.115-.361-2.058.77-.136.36,2.058Zm-.722-4.115-.361-2.059.768-.134.361,2.058Zm-.723-4.116-.36-2.058.768-.134.36,2.058Zm-.722-4.116-.361-2.057.769-.135.361,2.058Zm-.723-4.115-.36-2.058.769-.134.361,2.058Zm-.723-4.114-.361-2.059.77-.135.36,2.059Zm-.722-4.117-.361-2.057.769-.135.361,2.057Zm-.723-4.115-.36-2.057.769-.134.361,2.056Zm-.722-4.116-.361-2.058.769-.133.36,2.057Z" transform="translate(-558.604 -8135.186)" fill="#999"/>
            <rect id="Rectángulo_9729" data-name="Rectángulo 9729" width="1.037" height="0.781" transform="matrix(0.021, -1, 1, 0.021, 1.19, 293.03)" fill="#999"/>
          </g>
          <path id="Trazado_107066" data-name="Trazado 107066" d="M555.54,8138.709c-6.917,0-12.543-12.212-12.543-27.222s5.627-27.222,12.543-27.222,12.543,12.211,12.543,27.222S562.456,8138.709,555.54,8138.709Zm0-53.662c-6.487,0-11.762,11.861-11.762,26.44s5.276,26.44,11.762,26.44,11.762-11.862,11.762-26.44S562.026,8085.047,555.54,8085.047Z" transform="translate(-522.663 -8004.994)" fill="#999"/>
          <path id="Trazado_107067" data-name="Trazado 107067" d="M523.644,8173.729l-.173-.76c.089-.021,8.971-2.034,22.836-4.857a141.03,141.03,0,0,0,27.746-8.953c.315-.128,29.994-12.023,54.366-8.73l20.077,4.089-.156.765-20.051-4.084c-24.141-3.261-53.63,8.556-53.924,8.678a142.067,142.067,0,0,1-27.9,9C532.607,8171.7,523.732,8173.711,523.644,8173.729Z" transform="translate(-523.471 -8002.281)" fill="#999"/>
        </g>
        <path id="Trazado_107068" data-name="Trazado 107068" d="M616.781,8147.278l2.534-2.989-.974-1.234.52-1.17s3.508,0,4.028,3.38l-.975.507-1.559-.378-3.054,2.339Z" transform="translate(-519.176 -8002.61)" fill="#999"/>
        <path id="Trazado_107069" data-name="Trazado 107069" d="M633.685,8086.882l-2.062-4.25,1.508-1.148-.255-1.522s-4.1-1.051-5.717,2.736l.986.885,1.934.027,2.863,3.646Z" transform="translate(-518.746 -8005.178)" fill="#999"/>
        <path id="Trazado_107070" data-name="Trazado 107070" d="M550.741,8177.39a.52.52,0,0,1-.195-1l4.766-1.923a.521.521,0,1,1,.388.967l-4.766,1.921A.5.5,0,0,1,550.741,8177.39Z" transform="translate(-521.93 -8001.264)" fill="#4d4d4d"/>
        <path id="Trazado_107071" data-name="Trazado 107071" d="M557.951,8175.858a.52.52,0,0,1-.261-.971l7.021-4.075,12.966-5.791a.521.521,0,1,1,.425.952l-12.917,5.767-6.972,4.048A.532.532,0,0,1,557.951,8175.858Z" transform="translate(-521.631 -8001.655)" fill="#4d4d4d"/>
        <path id="Trazado_107072" data-name="Trazado 107072" d="M523.574,8173.59a.521.521,0,0,1-.106-1.031l17.682-3.689c.138-.03,14.411-3.164,19.161-4.825,2.059-.72,4.974-1.87,8.059-3.089,4.181-1.648,8.505-3.355,11.425-4.284a.521.521,0,0,1,.316.993c-2.887.918-7.194,2.617-11.358,4.261-3.095,1.222-6.019,2.375-8.1,3.1-4.81,1.683-18.7,4.731-19.286,4.86l-17.687,3.691A.509.509,0,0,1,523.574,8173.59Z" transform="translate(-523.054 -8002)" fill="#4d4d4d"/>
        <path id="Trazado_107073" data-name="Trazado 107073" d="M634.589,8433.128h-.022a.523.523,0,0,1-.5-.544c.057-1.29,5.585-129.194.024-147.221-5.633-18.257,1.207-42.7,1.277-42.94l6.611-54.492c.022-.3,2.5-32.66,1.062-48.029-.46-4.933-1.5-11.052-2.6-17.534-2.368-13.924-5.316-31.254-4.113-46.481l5.363-28.269a.52.52,0,1,1,1.023.193l-5.355,28.212c-1.185,15.044,1.751,32.3,4.109,46.171,1.1,6.5,2.149,12.642,2.614,17.61,1.44,15.458-1.038,47.9-1.064,48.23l-6.628,54.593c-.084.321-6.84,24.471-1.3,42.429,5.614,18.2.254,142.3.023,147.572A.522.522,0,0,1,634.589,8433.128Z" transform="translate(-518.552 -8006.528)" fill="#4d4d4d"/>
        <g id="Grupo_55640" data-name="Grupo 55640" transform="translate(125.308 152.236)">
          <path id="Trazado_107074" data-name="Trazado 107074" d="M678.048,8159s-28.2-3.075-34.594-4.3" transform="translate(-643.38 -8154.316)" fill="#fff"/>
          <path id="Trazado_107075" data-name="Trazado 107075" d="M678.01,8159.408c-.282-.032-28.289-3.092-34.627-4.311l.148-.767c6.305,1.214,34.281,4.271,34.564,4.3Z" transform="translate(-643.383 -8154.331)" fill="#999"/>
        </g>
      </g>
      <rect id="Rectángulo_9730" data-name="Rectángulo 9730" width="50.258" height="1.041" transform="translate(107.981 179.369) rotate(-18.577)" fill="#999"/>
      <g id="Grupo_55642" data-name="Grupo 55642" transform="translate(204.195 138.739)">
        <path id="Trazado_107076" data-name="Trazado 107076" d="M617,8149.923l3.886-4.262,2.277.177s.972.1.777-.766l-2.558-3.163s-1.2-1.334-1.587.2l-.129,2.664-3.468,4.179-.419,1.316Z" transform="translate(-615.783 -8141.371)" fill="#666"/>
      </g>
      <g id="Grupo_55643" data-name="Grupo 55643" transform="translate(215.545 73.451)">
        <path id="Trazado_107077" data-name="Trazado 107077" d="M631.907,8087.906l-2.379-5.254-2.221-.535s-.955-.206-.5-.969l3.41-2.219s1.551-.9,1.448.682l-.7,2.573,2.008,5.046-.009,1.381Z" transform="translate(-626.683 -8078.676)" fill="#666"/>
      </g>
      <g id="Grupo_55644" data-name="Grupo 55644" transform="translate(0 281.34)">
        <path id="Trazado_107078" data-name="Trazado 107078" d="M430.164,8291.886a8.768,8.768,0,0,1-3.652.657c-3.9,0-6.811-2.462-6.811-7a6.865,6.865,0,0,1,7.222-7.242,7.93,7.93,0,0,1,3.281.595l-.452,1.478a6.337,6.337,0,0,0-2.769-.575c-3.241,0-5.394,2.073-5.394,5.684,0,3.385,1.948,5.539,5.292,5.539a7.174,7.174,0,0,0,2.934-.575Z" transform="translate(-419.701 -8278.306)"/>
        <path id="Trazado_107079" data-name="Trazado 107079" d="M435.711,8292.41c-2.666,0-4.758-1.969-4.758-5.108,0-3.323,2.194-5.272,4.924-5.272,2.851,0,4.779,2.072,4.779,5.088,0,3.692-2.565,5.293-4.923,5.293Zm.082-1.354c1.724,0,3.016-1.621,3.016-3.878,0-1.682-.841-3.8-2.975-3.8-2.112,0-3.036,1.97-3.036,3.857,0,2.175,1.231,3.816,2.975,3.816Z" transform="translate(-419.235 -8278.152)"/>
        <path id="Trazado_107080" data-name="Trazado 107080" d="M442.463,8285.353c0-1.169-.022-2.174-.082-3.1h1.579l.082,1.948h.061a3,3,0,0,1,2.77-2.175,3.859,3.859,0,0,1,.493.041v1.7a5.163,5.163,0,0,0-.617-.041,2.529,2.529,0,0,0-2.42,2.3,5.67,5.67,0,0,0-.061.842v5.313h-1.8Z" transform="translate(-418.763 -8278.152)"/>
        <path id="Trazado_107081" data-name="Trazado 107081" d="M451.594,8279.961v2.38h2.584v1.374h-2.584v5.336c0,1.229.349,1.926,1.354,1.926a3.371,3.371,0,0,0,1.046-.122l.083,1.375a4.964,4.964,0,0,1-1.6.245,2.574,2.574,0,0,1-1.948-.759,3.883,3.883,0,0,1-.7-2.6v-5.4h-1.538v-1.374h1.538v-1.825Z" transform="translate(-418.518 -8278.236)"/>
        <path id="Trazado_107082" data-name="Trazado 107082" d="M456.833,8287.548a3.16,3.16,0,0,0,3.384,3.426,6.463,6.463,0,0,0,2.749-.513l.328,1.292a8.071,8.071,0,0,1-3.324.637,4.631,4.631,0,0,1-4.881-5.006c0-3,1.784-5.354,4.677-5.354,3.241,0,4.082,2.852,4.082,4.679a4.336,4.336,0,0,1-.062.84Zm5.271-1.293c.021-1.147-.472-2.931-2.482-2.931-1.846,0-2.625,1.681-2.77,2.931Z" transform="translate(-418.237 -8278.152)"/>
      </g>
      <g id="Grupo_55646" data-name="Grupo 55646" transform="translate(54.796 266.346)">
        <rect id="Rectángulo_9731" data-name="Rectángulo 9731" width="54.563" height="1.04" transform="translate(0 23.771) rotate(-23.507)"/>
        <g id="Grupo_55645" data-name="Grupo 55645" transform="translate(46.021)">
          <path id="Trazado_107083" data-name="Trazado 107083" d="M519.589,8271.092l-.036-4.188-3.041-2.883,9.921-.112Z" transform="translate(-516.513 -8263.908)"/>
        </g>
      </g>
      <g id="Grupo_55647" data-name="Grupo 55647" transform="translate(223.666 381.612)">
        <path id="Trazado_107084" data-name="Trazado 107084" d="M635.742,8382.447l4.551-3.543,2.215.56s.94.263.9-.624l-1.986-3.551s-.956-1.515-1.6-.07l-.579,2.6-4.125,3.532-.635,1.225Z" transform="translate(-634.481 -8374.595)" fill="#666"/>
      </g>
      <g id="Grupo_55648" data-name="Grupo 55648" transform="translate(137.417 381.612)">
        <path id="Trazado_107085" data-name="Trazado 107085" d="M559.322,8382.447l-4.551-3.543-2.215.56s-.94.263-.9-.624l1.986-3.551s.956-1.515,1.6-.07l.579,2.6,4.125,3.532.635,1.225Z" transform="translate(-551.659 -8374.595)" fill="#666"/>
      </g>
      <g id="Grupo_55649" data-name="Grupo 55649" transform="translate(140.954 309.354)">
        <path id="Trazado_107086" data-name="Trazado 107086" d="M562.717,8313.06l-4.551-3.544-2.215.561s-.94.264-.9-.622l1.986-3.551s.955-1.517,1.6-.072l.579,2.6,4.125,3.533.634,1.227Z" transform="translate(-555.055 -8305.207)" fill="#666"/>
      </g>
      <g id="Grupo_55650" data-name="Grupo 55650" transform="translate(380.974 50.633)">
        <path id="Trazado_107087" data-name="Trazado 107087" d="M786.039,8057.266l4.577.069.154,5.252s-3.849-1.451-4.731-4.976" transform="translate(-785.518 -8056.745)" fill="#999"/>
        <path id="Trazado_107088" data-name="Trazado 107088" d="M790.791,8063.128a.536.536,0,0,1-.184-.034c-.167-.063-4.115-1.592-5.052-5.337a.519.519,0,0,1,.013-.3.525.525,0,0,1-.029-.182.519.519,0,0,1,.521-.512h.008l4.576.068a.52.52,0,0,1,.512.5l.155,5.253a.521.521,0,0,1-.521.537Zm-4.138-5.313a7.334,7.334,0,0,0,3.593,3.956l-.115-3.9Z" transform="translate(-785.539 -8056.766)" fill="#4d4d4d"/>
      </g>
      <g id="Grupo_55651" data-name="Grupo 55651" transform="translate(331.517 32.133)" opacity="0.33">
        <path id="Trazado_107089" data-name="Trazado 107089" d="M867.661,8269.723l-8.115-18.962v-6.39l7.35-43.146,9.993-42.965v-17.037s3.255-8.389,3.527-22.149-1.085-19.267-3.255-24.9l-20.883-7.077-16.092-5.374s-13.379-2.971-12.837-18.173l-.9-23.941-16.95,3.288-16.951-3.288.091,23.9c.543,15.2-13.833,18.217-13.833,18.217l-16.091,5.374-20.2,5.242c-2.17,5.636-4.2,12.976-3.933,26.737s3.526,22.149,3.526,22.149v17.037l9.993,42.965h0l1.457,6.265,8.4,36.882v7.419s-14.914,29.682-16.449,53.384v117.692H880.422l-1.8-98.523S878.407,8287.654,867.661,8269.723Z" transform="translate(-738.026 -8038.975)" fill="#fff"/>
        <path id="Trazado_107090" data-name="Trazado 107090" d="M880.972,8423.411H745V8305.2c1.478-22.84,15.449-51.479,16.449-53.506v-7.238l-8.386-36.825L741.6,8158.286v-16.946c-.356-.969-3.271-9.308-3.526-22.231-.274-13.94,1.852-21.438,3.968-26.933l.1-.251,20.463-5.309,16.058-5.363c.626-.135,14-3.131,13.476-17.706L792.04,8039l17.474,3.387,17.447-3.382.927,24.547c-.52,14.614,11.9,17.567,12.43,17.686l16.144,5.386,21.117,7.157.087.227c2.334,6.066,3.55,11.862,3.289,25.1-.255,12.924-3.17,21.263-3.526,22.231l-.013,17.064-9.993,42.965-7.345,43.112.007,6.2,8.059,18.833c10.678,17.858,11.02,54.486,11.022,54.854Zm-134.933-1.042H879.912l-1.786-97.992c0-.372-.343-36.76-10.892-54.361l-.032-.063-8.157-19.168v-6.39l7.358-43.231,9.985-42.938.036-17.166c.031-.083,3.223-8.476,3.49-21.972.254-12.9-.9-18.616-3.132-24.477l-20.651-7-16.09-5.373c-.086-.016-13.744-3.229-13.193-18.687l-.88-23.3-16.453,3.191-16.429-3.186.089,23.263c.552,15.446-14.1,18.7-14.246,18.729l-16.034,5.358-19.979,5.185c-2.048,5.379-4.071,12.741-3.8,26.289.267,13.5,3.458,21.889,3.491,21.972l.035.188v16.978l11.436,49.17,8.413,37v7.544l-.055.11c-.149.3-14.883,29.859-16.394,53.184Z" transform="translate(-738.047 -8039)"/>
      </g>
      <g id="Grupo_55652" data-name="Grupo 55652" transform="translate(354.722 236.963)">
        <path id="Trazado_107091" data-name="Trazado 107091" d="M852.942,8244.209l-2.526-2.8,2.37-2.407-2.255-2.717.814-.595,2.792,3.364-2.343,2.383,1.935,2.144Z" transform="translate(-756.603 -8235.693)" fill="#999"/>
        <path id="Trazado_107092" data-name="Trazado 107092" d="M850.212,8244.209l-2.526-2.8,2.37-2.407-2.254-2.717.814-.595,2.792,3.364-2.343,2.383,1.935,2.144Z" transform="translate(-756.716 -8235.693)" fill="#999"/>
        <path id="Trazado_107093" data-name="Trazado 107093" d="M847.482,8244.209l-2.526-2.8,2.37-2.407-2.255-2.717.814-.595,2.792,3.364-2.343,2.383,1.935,2.144Z" transform="translate(-756.829 -8235.693)" fill="#999"/>
        <path id="Trazado_107094" data-name="Trazado 107094" d="M844.752,8244.209l-2.526-2.8L844.6,8239l-2.254-2.717.814-.595,2.792,3.364-2.343,2.383,1.935,2.144Z" transform="translate(-756.942 -8235.693)" fill="#999"/>
        <path id="Trazado_107095" data-name="Trazado 107095" d="M842.023,8244.209l-2.526-2.8,2.37-2.407-2.255-2.717.814-.595,2.792,3.364-2.343,2.383,1.935,2.144Z" transform="translate(-757.055 -8235.693)" fill="#999"/>
        <path id="Trazado_107096" data-name="Trazado 107096" d="M839.293,8244.209l-2.526-2.8,2.37-2.407-2.254-2.717.814-.595,2.792,3.364-2.343,2.383,1.935,2.144Z" transform="translate(-757.168 -8235.693)" fill="#999"/>
        <path id="Trazado_107097" data-name="Trazado 107097" d="M836.563,8244.209l-2.526-2.8,2.37-2.407-2.254-2.717.814-.595,2.792,3.364-2.343,2.383,1.935,2.144Z" transform="translate(-757.281 -8235.693)" fill="#999"/>
        <path id="Trazado_107098" data-name="Trazado 107098" d="M833.833,8244.209l-2.526-2.8,2.37-2.407-2.254-2.717.814-.595,2.792,3.364-2.343,2.383,1.935,2.144Z" transform="translate(-757.393 -8235.693)" fill="#999"/>
        <path id="Trazado_107099" data-name="Trazado 107099" d="M831.1,8244.209l-2.526-2.8,2.37-2.407-2.254-2.717.814-.595,2.792,3.364-2.343,2.383,1.935,2.144Z" transform="translate(-757.506 -8235.693)" fill="#999"/>
        <path id="Trazado_107100" data-name="Trazado 107100" d="M828.373,8244.209l-2.526-2.8,2.37-2.407-2.254-2.717.814-.595,2.792,3.364-2.343,2.383,1.935,2.144Z" transform="translate(-757.619 -8235.693)" fill="#999"/>
        <path id="Trazado_107101" data-name="Trazado 107101" d="M825.643,8244.209l-2.526-2.8,2.37-2.407-2.254-2.717.814-.595,2.792,3.364-2.343,2.383,1.935,2.144Z" transform="translate(-757.732 -8235.693)" fill="#999"/>
        <path id="Trazado_107102" data-name="Trazado 107102" d="M822.913,8244.209l-2.526-2.8,2.37-2.407-2.254-2.717.814-.595,2.792,3.364-2.343,2.383,1.935,2.144Z" transform="translate(-757.845 -8235.693)" fill="#999"/>
        <path id="Trazado_107103" data-name="Trazado 107103" d="M820.183,8244.209l-2.526-2.8,2.37-2.407-2.254-2.717.814-.595,2.792,3.364-2.343,2.383,1.935,2.144Z" transform="translate(-757.958 -8235.693)" fill="#999"/>
        <path id="Trazado_107104" data-name="Trazado 107104" d="M817.453,8244.209l-2.526-2.8L817.3,8239l-2.254-2.717.814-.595,2.792,3.364-2.343,2.383,1.935,2.144Z" transform="translate(-758.071 -8235.693)" fill="#999"/>
        <path id="Trazado_107105" data-name="Trazado 107105" d="M814.724,8244.209l-2.526-2.8,2.37-2.407-2.254-2.717.814-.595,2.792,3.364-2.343,2.383,1.935,2.144Z" transform="translate(-758.184 -8235.693)" fill="#999"/>
        <path id="Trazado_107106" data-name="Trazado 107106" d="M811.994,8244.209l-2.526-2.8,2.37-2.407-2.254-2.717.814-.595,2.792,3.364-2.343,2.383,1.935,2.144Z" transform="translate(-758.297 -8235.693)" fill="#999"/>
        <path id="Trazado_107107" data-name="Trazado 107107" d="M809.264,8244.209l-2.526-2.8,2.37-2.407-2.254-2.717.814-.595,2.792,3.364-2.343,2.383,1.935,2.144Z" transform="translate(-758.41 -8235.693)" fill="#999"/>
        <path id="Trazado_107108" data-name="Trazado 107108" d="M806.534,8244.209l-2.526-2.8,2.37-2.407-2.255-2.717.814-.595,2.792,3.364-2.343,2.383,1.935,2.144Z" transform="translate(-758.523 -8235.693)" fill="#999"/>
        <path id="Trazado_107109" data-name="Trazado 107109" d="M803.8,8244.209l-2.526-2.8,2.37-2.407-2.254-2.717.814-.595,2.792,3.364-2.343,2.383,1.935,2.144Z" transform="translate(-758.636 -8235.693)" fill="#999"/>
        <path id="Trazado_107110" data-name="Trazado 107110" d="M801.074,8244.209l-2.526-2.8,2.37-2.407-2.255-2.717.814-.595,2.792,3.364-2.343,2.383,1.935,2.144Z" transform="translate(-758.749 -8235.693)" fill="#999"/>
        <path id="Trazado_107111" data-name="Trazado 107111" d="M798.344,8244.209l-2.526-2.8,2.37-2.407-2.254-2.717.814-.595,2.792,3.364-2.343,2.383,1.935,2.144Z" transform="translate(-758.862 -8235.693)" fill="#999"/>
        <path id="Trazado_107112" data-name="Trazado 107112" d="M795.614,8244.209l-2.526-2.8,2.37-2.407-2.255-2.717.814-.595,2.792,3.364-2.343,2.383,1.935,2.144Z" transform="translate(-758.975 -8235.693)" fill="#999"/>
        <path id="Trazado_107113" data-name="Trazado 107113" d="M792.885,8244.209l-2.526-2.8,2.37-2.407-2.254-2.717.814-.595,2.792,3.364-2.343,2.383,1.935,2.144Z" transform="translate(-759.088 -8235.693)" fill="#999"/>
        <path id="Trazado_107114" data-name="Trazado 107114" d="M790.155,8244.209l-2.526-2.8L790,8239l-2.255-2.717.814-.595,2.792,3.364-2.343,2.383,1.935,2.144Z" transform="translate(-759.201 -8235.693)" fill="#999"/>
        <path id="Trazado_107115" data-name="Trazado 107115" d="M787.425,8244.209l-2.526-2.8,2.37-2.407-2.254-2.717.814-.595,2.792,3.364-2.343,2.383,1.935,2.144Z" transform="translate(-759.314 -8235.693)" fill="#999"/>
        <path id="Trazado_107116" data-name="Trazado 107116" d="M784.695,8244.209l-2.526-2.8,2.37-2.407-2.255-2.717.814-.595,2.792,3.364-2.343,2.383,1.935,2.144Z" transform="translate(-759.427 -8235.693)" fill="#999"/>
        <path id="Trazado_107117" data-name="Trazado 107117" d="M781.965,8244.209l-2.526-2.8,2.37-2.407-2.254-2.717.814-.595,2.792,3.364-2.343,2.383,1.935,2.144Z" transform="translate(-759.539 -8235.693)" fill="#999"/>
        <path id="Trazado_107118" data-name="Trazado 107118" d="M779.235,8244.209l-2.526-2.8,2.37-2.407-2.255-2.717.814-.595,2.792,3.364-2.343,2.383,1.935,2.144Z" transform="translate(-759.652 -8235.693)" fill="#999"/>
        <path id="Trazado_107119" data-name="Trazado 107119" d="M776.505,8244.209l-2.526-2.8,2.37-2.407-2.254-2.717.814-.595,2.792,3.364-2.343,2.383,1.935,2.144Z" transform="translate(-759.765 -8235.693)" fill="#999"/>
        <path id="Trazado_107120" data-name="Trazado 107120" d="M773.775,8244.209l-2.526-2.8,2.37-2.407-2.254-2.717.814-.595,2.792,3.364-2.343,2.383,1.935,2.144Z" transform="translate(-759.878 -8235.693)" fill="#999"/>
        <path id="Trazado_107121" data-name="Trazado 107121" d="M771.045,8244.209l-2.526-2.8,2.37-2.407-2.254-2.717.814-.595,2.792,3.364-2.343,2.383,1.935,2.144Z" transform="translate(-759.991 -8235.693)" fill="#999"/>
        <path id="Trazado_107122" data-name="Trazado 107122" d="M768.315,8244.209l-2.526-2.8,2.37-2.407-2.254-2.717.814-.595,2.792,3.364-2.343,2.383,1.935,2.144Z" transform="translate(-760.104 -8235.693)" fill="#999"/>
        <path id="Trazado_107123" data-name="Trazado 107123" d="M765.586,8244.209l-2.526-2.8,2.37-2.407-2.254-2.717.814-.595,2.792,3.364-2.343,2.383,1.935,2.144Z" transform="translate(-760.217 -8235.693)" fill="#999"/>
        <path id="Trazado_107124" data-name="Trazado 107124" d="M762.856,8244.209l-2.526-2.8L762.7,8239l-2.254-2.717.814-.595,2.792,3.364-2.343,2.383,1.935,2.144Z" transform="translate(-760.33 -8235.693)" fill="#999"/>
      </g>
      <path id="Trazado_107125" data-name="Trazado 107125" d="M805.958,8054.311c-12.061,0-15.753-4.378-15.913-4.578l.807-.657c.041.047,4.1,4.763,17.57,4.134,13.488-.631,15.721-5.4,15.741-5.453l.954.417c-.095.221-2.517,5.414-16.646,6.075Q807.159,8054.312,805.958,8054.311Z" transform="translate(-404.379 -8006.505)" fill="#999"/>
      <rect id="Rectángulo_9732" data-name="Rectángulo 9732" width="130.784" height="1.041" transform="translate(337.295 158.239)" fill="#999"/>
      <rect id="Rectángulo_9733" data-name="Rectángulo 9733" width="134.431" height="1.041" transform="translate(335.588 150.897)" fill="#999"/>
      <rect id="Rectángulo_9734" data-name="Rectángulo 9734" width="1.041" height="43.161" transform="translate(402.467 158.76)" fill="#999"/>
      <path id="Trazado_107126" data-name="Trazado 107126" d="M847.264,8156.438l-1.041-.01.5-47.7c1.324-20.631.462-24.566.426-24.725l1.01-.25c.04.156.95,4.071-.4,25.013Z" transform="translate(-402.054 -8005.016)" fill="#999"/>
      <path id="Trazado_107127" data-name="Trazado 107127" d="M849.653,8417.883c-.018-.463-1.767-46.946-2.864-96.057-1.095-48.959-14.055-74.751-14.186-75.006l-.057-.111v-7.547l6.719-34.7,7.53-43.954,1.028.175-7.533,43.964-6.712,34.609.009,7.2c.949,1.935,13.18,27.792,14.243,75.343,1.1,49.1,2.845,95.578,2.864,96.042Z" transform="translate(-402.62 -8001.84)" fill="#999"/>
      <path id="Trazado_107128" data-name="Trazado 107128" d="M768.809,8417.867l-.22-43.49c-.01-.361-1.082-37.619.221-63.924,1.276-25.776,12.348-61.832,12.939-63.743v-7.9l-7.567-34.937-7.337-43.183,1.027-.175,7.333,43.161,7.585,35.077-.023,8.194c-.118.37-11.621,37.342-12.918,63.561-1.3,26.264-.229,63.48-.219,63.854l.22,43.5Z" transform="translate(-405.339 -8001.84)" fill="#999"/>
      <rect id="Rectángulo_9735" data-name="Rectángulo 9735" width="1.041" height="376.198" transform="translate(401.359 39.846) rotate(-0.526)" fill="#999"/>
      <path id="Trazado_107129" data-name="Trazado 107129" d="M767.48,8156.438l-.5-47.706c-1.346-20.914-.434-24.828-.395-24.983l1.01.251c-.036.157-.9,4.092.425,24.693l.5,47.734Z" transform="translate(-405.363 -8005.016)" fill="#999"/>
      <path id="Trazado_107130" data-name="Trazado 107130" d="M808.049,8090.319c-17.084,0-22.145-15.3-22.195-15.456l.992-.316c.047.148,4.9,14.73,21.2,14.73h.141a21.123,21.123,0,0,0,20.721-14.712l1,.281c-.043.154-4.508,15.385-21.719,15.473Z" transform="translate(-404.552 -8005.396)" fill="#999"/>
      <path id="Trazado_107131" data-name="Trazado 107131" d="M846.86,8157.85l4.157-4.285,2.437.178s1.039.1.831-.77l-2.737-3.182s-1.282-1.339-1.7.2l-.138,2.679-3.71,4.2-.447,1.322Z" transform="translate(-402.082 -8002.306)" fill="#666"/>
      <path id="Trazado_107132" data-name="Trazado 107132" d="M819.274,8221.771l4.157-4.286,2.437.18s1.039.1.832-.771l-2.738-3.18s-1.281-1.341-1.7.2l-.139,2.68-3.709,4.2-.448,1.323Z" transform="translate(-403.223 -7999.661)" fill="#666"/>
      <path id="Trazado_107133" data-name="Trazado 107133" d="M794.752,8104.719l-.985-5.726,1.664-1.682s.73-.7-.124-1.091l-4.353.036s-1.913.109-.888,1.374l2.145,1.769,1.193,5.343.824,1.152Z" transform="translate(-404.39 -8004.5)" fill="#666"/>
      <path id="Trazado_107134" data-name="Trazado 107134" d="M797.393,8124.541l-.985-5.725,1.665-1.683s.73-.7-.125-1.091l-4.353.035s-1.913.11-.888,1.375l2.145,1.769,1.193,5.343.825,1.151Z" transform="translate(-404.281 -8003.68)" fill="#666"/>
      <path id="Trazado_107135" data-name="Trazado 107135" d="M802.572,8151l-.985-5.724,1.664-1.684s.731-.7-.124-1.09l-4.353.035s-1.913.11-.888,1.373l2.145,1.769,1.193,5.345.825,1.151Z" transform="translate(-404.067 -8002.585)" fill="#666"/>
      <path id="Trazado_107136" data-name="Trazado 107136" d="M768.094,8157.85l-4.157-4.285-2.437.178s-1.039.1-.831-.77l2.737-3.182s1.282-1.339,1.7.2l.139,2.679,3.71,4.2.447,1.322Z" transform="translate(-405.595 -8002.306)" fill="#666"/>
      <g id="Grupo_55653" data-name="Grupo 55653" transform="translate(385.512 25.167)">
        <ellipse id="Elipse_4325" data-name="Elipse 4325" cx="16.951" cy="7.077" rx="16.951" ry="7.077" transform="translate(0.521 0.52)" fill="#fff"/>
        <path id="Trazado_107137" data-name="Trazado 107137" d="M807.369,8047.5c-9.8,0-17.472-3.336-17.472-7.6s7.674-7.6,17.472-7.6,17.47,3.338,17.47,7.6S817.165,8047.5,807.369,8047.5Zm0-14.152c-8.906,0-16.431,3-16.431,6.555s7.525,6.556,16.431,6.556,16.429-3,16.429-6.556S816.274,8033.353,807.369,8033.353Z" transform="translate(-789.897 -8032.311)" fill="#999"/>
      </g>
      <g id="Grupo_55657" data-name="Grupo 55657" transform="translate(393.847 2.028)">
        <g id="Grupo_55654" data-name="Grupo 55654" transform="translate(1.032)">
          <path id="Trazado_107138" data-name="Trazado 107138" d="M814.982,8020.669c0-5.566-3.49-10.079-7.8-10.079s-7.795,4.513-7.795,10.079c0,4.353,2.139,8.05,5.128,9.46v9.637h5.89v-9.928C813.1,8028.253,814.982,8024.748,814.982,8020.669Z" transform="translate(-798.871 -8010.07)" fill="#fff"/>
          <path id="Trazado_107139" data-name="Trazado 107139" d="M810.951,8040.309H804.02v-9.837c-3.08-1.628-5.128-5.508-5.128-9.781,0-5.845,3.73-10.6,8.316-10.6s8.315,4.754,8.315,10.6c0,4-1.786,7.669-4.573,9.461Zm-5.89-1.042h4.849v-9.7l.256-.15c2.622-1.543,4.316-4.967,4.316-8.721,0-5.27-3.264-9.558-7.274-9.558s-7.275,4.288-7.275,9.558c0,4.014,1.941,7.626,4.829,8.987l.3.141Z" transform="translate(-798.892 -8010.091)" fill="#999"/>
        </g>
        <g id="Grupo_55655" data-name="Grupo 55655" transform="translate(0 12.165)">
          <rect id="Rectángulo_9736" data-name="Rectángulo 9736" width="18.281" height="2.947" rx="1.209" transform="translate(0.521 0.521)" fill="#fff"/>
          <path id="Trazado_107140" data-name="Trazado 107140" d="M815.444,8025.762H799.681a1.782,1.782,0,0,1-1.78-1.78v-.43a1.782,1.782,0,0,1,1.78-1.778h15.763a1.782,1.782,0,0,1,1.779,1.778v.43A1.782,1.782,0,0,1,815.444,8025.762Zm-15.763-2.947a.739.739,0,0,0-.738.737v.43a.741.741,0,0,0,.738.739h15.763a.739.739,0,0,0,.737-.739v-.43a.738.738,0,0,0-.737-.737Z" transform="translate(-797.901 -8021.773)" fill="#999"/>
        </g>
        <g id="Grupo_55656" data-name="Grupo 55656" transform="translate(0 6.54)">
          <rect id="Rectángulo_9737" data-name="Rectángulo 9737" width="18.281" height="2.947" rx="1.209" transform="translate(0.521 0.521)" fill="#fff"/>
          <path id="Trazado_107141" data-name="Trazado 107141" d="M815.444,8020.359H799.681a1.781,1.781,0,0,1-1.78-1.779v-.429a1.782,1.782,0,0,1,1.78-1.779h15.763a1.782,1.782,0,0,1,1.779,1.779v.429A1.781,1.781,0,0,1,815.444,8020.359Zm-15.763-2.947a.74.74,0,0,0-.738.739v.429a.741.741,0,0,0,.738.739h15.763a.739.739,0,0,0,.737-.739v-.429a.739.739,0,0,0-.737-.739Z" transform="translate(-797.901 -8016.372)" fill="#999"/>
        </g>
      </g>
      <rect id="Rectángulo_9738" data-name="Rectángulo 9738" width="1.041" height="326.727" transform="translate(410.186 39.846) rotate(-0.508)" fill="#999"/>
      <g id="Grupo_55658" data-name="Grupo 55658" transform="translate(355.438 237.007)" opacity="0.33">
        <line id="Línea_224" data-name="Línea 224" x2="97.05" transform="translate(0 0.521)" fill="#fff"/>
        <rect id="Rectángulo_9739" data-name="Rectángulo 9739" width="97.05" height="1.041" transform="translate(0)"/>
      </g>
      <g id="Grupo_55659" data-name="Grupo 55659" transform="translate(355.438 244.428)" opacity="0.33">
        <line id="Línea_225" data-name="Línea 225" x2="97.05" transform="translate(0 0.521)" fill="#fff"/>
        <rect id="Rectángulo_9740" data-name="Rectángulo 9740" width="97.05" height="1.041" transform="translate(0)"/>
      </g>
      <path id="Trazado_107142" data-name="Trazado 107142" d="M743.137,8139.249l-1-.287c4.29-14.943.384-47.934.345-48.266l1.033-.124C743.554,8090.906,747.484,8124.1,743.137,8139.249Z" transform="translate(-406.361 -8004.733)" opacity="0.33"/>
      <g id="Grupo_55660" data-name="Grupo 55660" transform="translate(308.736 107.537)" opacity="0.88">
        <path id="Trazado_107143" data-name="Trazado 107143" d="M719.455,8111.909s-1.116,27.253-2.784,28.359c0,0,8.06,1.629,12.473.707Z" transform="translate(-716.15 -8111.388)" fill="#999"/>
        <path id="Trazado_107144" data-name="Trazado 107144" d="M725.821,8141.8a54.018,54.018,0,0,1-9.233-1,.522.522,0,0,1-.185-.944c.948-1.055,2.03-15.193,2.551-27.945a.521.521,0,0,1,1.014-.145l9.69,29.068a.518.518,0,0,1-.043.423.525.525,0,0,1-.345.251A17.3,17.3,0,0,1,725.821,8141.8Zm-8.365-1.9c1.9.339,7.438,1.223,11.024.688l-8.608-25.82C719.5,8122.96,718.709,8136.373,717.456,8139.9Z" transform="translate(-716.171 -8111.408)" fill="#4d4d4d"/>
      </g>
      <path id="Trazado_107145" data-name="Trazado 107145" d="M739.538,8168.8a.29.29,0,0,1-.042,0,.52.52,0,0,1-.478-.561l.871-11.23a59.86,59.86,0,0,0-.62-14.309c-2.308-14.008-3.555-15.359-3.782-15.487a1.089,1.089,0,0,0-1.123.207c-.972.906-.833,4.043-.517,5.808l4.093,10.963a.52.52,0,1,1-.976.362l-4.118-11.051c-.118-.613-.895-5.253.806-6.843a2.163,2.163,0,0,1,2.113-.448c.624.157,1.921.482,4.53,16.32a60.808,60.808,0,0,1,.63,14.56l-.871,11.231A.521.521,0,0,1,739.538,8168.8Z" transform="translate(-406.757 -8003.263)" fill="#4d4d4d"/>
      <g id="Grupo_55661" data-name="Grupo 55661" transform="translate(358.905 51.859)" opacity="0.5">
        <path id="Trazado_107146" data-name="Trazado 107146" d="M787.22,8058.441l4.427,9.949s2.393,5.977-.852,11.592l-25.949,38.443,13.825-39.893s1.815-12.315,6.343-17.024Z" transform="translate(-764.326 -8057.921)" fill="#999"/>
        <path id="Trazado_107147" data-name="Trazado 107147" d="M764.868,8118.967a.505.505,0,0,1-.233-.056.52.52,0,0,1-.259-.636l13.824-39.894c.052-.414,1.869-12.439,6.46-17.214l2.159-3.01a.534.534,0,0,1,.476-.214.521.521,0,0,1,.423.307l4.427,9.949a14.772,14.772,0,0,1-.878,12.063L765.3,8118.735A.516.516,0,0,1,764.868,8118.967Zm22.266-59.464-1.676,2.332c-4.406,4.59-6.233,16.673-6.25,16.8l-12.546,36.228,23.722-35.146c3.055-5.29.824-11.052.8-11.107Z" transform="translate(-764.346 -8057.942)" fill="#4d4d4d"/>
      </g>
      <g id="Grupo_55662" data-name="Grupo 55662" transform="translate(359.887 76.69)" opacity="0.88">
        <path id="Trazado_107148" data-name="Trazado 107148" d="M765.79,8115.982s2.259,31.563,18.918,55.2a455.545,455.545,0,0,1,29.41,48.627,81.109,81.109,0,0,1,7.782,22.233c2.013,11.725-.715-16.8-10.625-50.214s-15.2-72.807-15.2-72.807l-7.546-36.73Z" transform="translate(-765.269 -8081.766)" fill="#999"/>
        <path id="Trazado_107149" data-name="Trazado 107149" d="M822.5,8245.262a.525.525,0,0,1-.159-.024c-.338-.11-.43-.14-.936-3.089a81.294,81.294,0,0,0-7.726-22.071A459,459,0,0,0,784.3,8171.5c-16.552-23.482-18.989-55.144-19.012-55.459a.516.516,0,0,1,.089-.328l22.743-33.7a.513.513,0,0,1,.531-.22.52.52,0,0,1,.41.406l7.546,36.73c.058.43,5.4,39.771,15.185,72.763,7.619,25.685,11.912,52.608,11.085,53.414A.539.539,0,0,1,822.5,8245.262Zm-56.159-129.118c.219,2.58,3.069,32.425,18.808,54.756a460.245,460.245,0,0,1,29.449,48.69,85.767,85.767,0,0,1,6.064,14.934A365.788,365.788,0,0,0,810.8,8192c-9.808-33.071-15.159-72.49-15.212-72.886l-7.292-35.483Z" transform="translate(-765.29 -8081.788)" fill="#4d4d4d"/>
      </g>
      <path id="Trazado_107150" data-name="Trazado 107150" d="M739.248,8343.816l-5.378-2.594-2.226,1s-.941.453-1.046-.437l1.476-3.928s.742-1.7,1.663-.4l1.051,2.468,4.93,2.668.875,1.089Z" transform="translate(-406.838 -7994.539)" fill="#666"/>
      <path id="Trazado_107151" data-name="Trazado 107151" d="M739.248,8308.469l-5.378-2.595-2.226,1.006s-.941.453-1.046-.437l1.476-3.929s.742-1.7,1.663-.4l1.051,2.468,4.93,2.67.875,1.088Z" transform="translate(-406.838 -7996.001)" fill="#666"/>
      <path id="Trazado_107152" data-name="Trazado 107152" d="M744.016,8089.693l-1.543-5.768-2.215-1.031s-.957-.417-.351-1.076l3.939-1.446s1.771-.545,1.385,1l-1.184,2.407,1.193,5.476-.253,1.374Z" transform="translate(-406.461 -8005.159)" fill="#666"/>
      <g id="Grupo_55663" data-name="Grupo 55663" transform="translate(308.735 51.3)" opacity="0.5">
        <path id="Trazado_107153" data-name="Trazado 107153" d="M810.808,8183.939c-8.108-31.533-7.38-32.437-13.48-67.717-4.133-23.91-6.82-58.314-6.82-58.314l.428,10.075a14.455,14.455,0,0,1-10.959,14.49l-63.306,15.333s4.719,36.108,21.257,59.7c0,0,6.181,20.016,7.788,37.339,1.16,12.5.646,40.365.269,54.9h11.095l-11.407,9.554-3.4,24.93a230.274,230.274,0,0,0-4.647,51.42c.571,29.12.155,52.373.155,52.373s14.775,7.092,39.108,8.014a438.521,438.521,0,0,0,44.029-.543s-1.562-33.3-.986-47.5,1.244-53.816,1.244-53.816.1-37.947,2.755-51.134S819.47,8217.626,810.808,8183.939Z" transform="translate(-716.15 -8057.385)" fill="#999"/>
        <path id="Trazado_107154" data-name="Trazado 107154" d="M793.283,8396.88c-5.077,0-10.611-.082-16.391-.3-24.161-.915-39.164-7.993-39.314-8.064a.523.523,0,0,1-.295-.479c0-.232.409-23.576-.154-52.353a233.145,233.145,0,0,1,4.658-51.549l3.39-24.882a.525.525,0,0,1,.181-.329l10.311-8.633h-9.663a.523.523,0,0,1-.521-.534c.393-15.175.881-42.477-.268-54.843-1.533-16.531-7.322-35.775-7.743-37.157-16.383-23.427-21.251-59.5-21.3-59.863a.522.522,0,0,1,.394-.574l63.306-15.332a13.861,13.861,0,0,0,10.562-13.961l-.428-10.075a.52.52,0,0,1,.489-.542.5.5,0,0,1,.55.479c.027.344,2.733,34.654,6.815,58.267,1.419,8.213,2.489,14.676,3.347,19.868,2.924,17.681,3.908,23.637,10.124,47.81,2.889,11.236,5.639,20.187,7.848,27.379,4.414,14.373,7.08,23.048,5.283,31.961-2.619,12.985-2.745,50.653-2.746,51.032-.007.4-.675,39.8-1.243,53.837-.569,14,.971,47.117.985,47.449a.52.52,0,0,1-.481.544C820.83,8396.046,809.352,8396.88,793.283,8396.88Zm-54.953-9.168c2.221.988,16.544,6.99,38.6,7.825,21.892.831,40.231-.289,43.468-.507-.194-4.253-1.5-33.938-.964-47.032.57-14.021,1.236-53.407,1.243-53.8,0-.373.127-38.145,2.767-51.229,1.744-8.654-.742-16.75-5.258-31.447-2.212-7.2-4.966-16.168-7.861-27.427-6.227-24.217-7.214-30.185-10.142-47.9-.859-5.193-1.928-11.655-3.347-19.863-2.478-14.341-4.451-32.614-5.625-44.858A15.014,15.014,0,0,1,780.13,8083l-62.857,15.225c.625,4.283,5.834,37.226,21.1,59a.51.51,0,0,1,.071.145c.063.2,6.215,20.266,7.809,37.447,1.139,12.275.676,39.136.285,54.431H757.1a.522.522,0,0,1,.335.921l-11.254,9.423-3.371,24.73a232.138,232.138,0,0,0-4.64,51.34C738.7,8362.562,738.377,8384.721,738.329,8387.712Z" transform="translate(-716.171 -8057.405)" fill="#4d4d4d"/>
      </g>
      <path id="Trazado_107155" data-name="Trazado 107155" d="M811.923,8349.576h-8.331v-1.041h8.331Zm-16.662,0H786.93v-1.041h8.331Zm-16.662,0h-8.331v-1.041H778.6Zm-16.662,0h-8.331v-1.041h8.331Zm-16.662,0h-8.331v-1.041h8.331Z" transform="translate(-406.576 -7994.061)" fill="#4d4d4d"/>
      <path id="Trazado_107156" data-name="Trazado 107156" d="M745.463,8150.045l-.039-8.33,1.041,0,.039,8.33Zm-.077-16.661-.039-8.332,1.041,0,.039,8.332Zm-.077-16.663-.04-8.33,1.041,0,.04,8.331Zm-.078-16.66-.039-8.331,1.041,0,.039,8.332Zm6.681-11.545-.278-1,8.029-2.224.278,1Zm16.058-4.446-.278-1,8.029-2.225.278,1Zm16.058-4.446-.278-1,5.5-1.521.279,1Z" transform="translate(-406.234 -8005.291)" fill="#4d4d4d"/>
      <path id="Trazado_107157" data-name="Trazado 107157" d="M807.8,8347.1l5.378-2.594,2.226,1.006s.941.452,1.045-.437l-1.476-3.929s-.743-1.7-1.663-.395l-1.052,2.466-4.929,2.67-.875,1.089Z" transform="translate(-403.7 -7994.403)" fill="#666"/>
      <path id="Trazado_107158" data-name="Trazado 107158" d="M808.355,8284.127l4.157-4.286,2.437.178s1.039.1.831-.77l-2.737-3.181s-1.282-1.339-1.7.2l-.139,2.678-3.71,4.2-.447,1.323Z" transform="translate(-403.675 -7997.081)" fill="#666"/>
      <g id="Grupo_55664" data-name="Grupo 55664" transform="translate(97.984 75.029)" opacity="0.73">
        <path id="Trazado_107159" data-name="Trazado 107159" d="M514.326,8114.248s-1.706-18.317,17.052-32.668l1.4-.889,3.987.724,2.681,2.719,2.118,4.3,1.841,6.428.575,3.452.5,5.219-13.811,3.737Z" transform="translate(-513.772 -8080.17)" fill="#999"/>
        <path id="Trazado_107160" data-name="Trazado 107160" d="M514.346,8114.79a.52.52,0,0,1-.519-.474c-.018-.185-1.515-18.771,17.254-33.129l1.433-.915a.534.534,0,0,1,.373-.074l3.987.725a.506.506,0,0,1,.278.147l2.68,2.718a.564.564,0,0,1,.1.134l2.119,4.3,1.873,6.516.588,3.509.508,5.254a.521.521,0,0,1-.382.552l-13.811,3.737-16.275,6.955A.53.53,0,0,1,514.346,8114.79ZM532.9,8081.26l-1.224.779c-16.174,12.375-16.9,27.938-16.842,31.454l15.649-6.682,13.455-3.646-.461-4.781-.57-3.417-1.828-6.37-2.048-4.138-2.506-2.541Z" transform="translate(-513.793 -8080.191)" fill="#4d4d4d"/>
      </g>
      <g id="Grupo_55665" data-name="Grupo 55665" transform="translate(95.702 35.716)" opacity="0.5">
        <path id="Trazado_107161" data-name="Trazado 107161" d="M657.432,8164.964c-1.152,8.766-8.007,39.452-10.739,64.893a183.872,183.872,0,0,0-.234,35.152l2.011,93.071,1.982,48.258s-21.01,15.618-67.871,18.844c0,0-32.563-5.9-46.862-24.042l-2.309-118.309s12.148-10.226,16.639-13.107c4.391-2.818,18.892-9.688,18.892-9.688l-35.259,4.808a354.678,354.678,0,0,0-.815-44.9c-2.162-24.285-6.747-49.481-3.327-50.117l-.748-15.162s-2.806-8.838,12.535-33.468l3.342-13.4s0-25.537-11.8-25.537c0,0-7.181,3.884-13.22,13.945-2.762,4.6-1.817,10.659-5.977,17.93-3.593,6.28-.738-6.9,3.985-17.658a50.711,50.711,0,0,1,5.661-9.6,12.8,12.8,0,0,1,7.225-4.782c7.538-1.862,18.265-1.375,32.889-5.587l31.785-4.482s4.52-4.735,6.634-13.584c1.492-6.243,4.1-15.5,4.1-15.5,42.458,26.146,40.463,61.163,45.9,62.5C651.839,8105.435,659.43,8149.741,657.432,8164.964Z" transform="translate(-511.582 -8042.42)" fill="#999"/>
        <path id="Trazado_107162" data-name="Trazado 107162" d="M582.6,8425.724a.6.6,0,0,1-.093-.009c-.327-.061-32.922-6.145-47.177-24.232a.516.516,0,0,1-.112-.312l-2.309-118.309a.526.526,0,0,1,.185-.409c.5-.417,12.225-10.279,16.693-13.146,3.18-2.041,11.459-6.112,15.957-8.286l-31.972,4.359a.524.524,0,0,1-.424-.135.511.511,0,0,1-.167-.41,356.947,356.947,0,0,0-.814-44.829c-.676-7.588-1.6-15.382-2.419-22.259-2.106-17.723-3.076-26.8-.928-28.235l-.726-14.746c-.257-.952-2.137-10.128,12.566-33.759l3.306-13.258c-.014-1.387-.405-24.756-11.145-24.954-.93.543-7.43,4.564-12.911,13.692a21.686,21.686,0,0,0-2.222,6.95,34.492,34.492,0,0,1-3.749,10.97c-.787,1.376-1.41,2.168-2.1,1.816-1.8-.906,2.376-13.6,5.159-19.941a51.542,51.542,0,0,1,5.72-9.7,13.359,13.359,0,0,1,7.517-4.977,81.464,81.464,0,0,1,10.287-1.526,126.477,126.477,0,0,0,22.583-4.055l31.67-4.471a31.937,31.937,0,0,0,6.387-13.215c1.478-6.182,4.075-15.425,4.1-15.518a.516.516,0,0,1,.312-.343.523.523,0,0,1,.461.042c30.868,19.008,38.25,42.311,42.215,54.831,1.342,4.239,2.312,7.3,3.532,7.6a.52.52,0,0,1,.39.417c.31,1.812,7.581,44.558,5.6,59.684l-.516-.068.516.068c-.383,2.915-1.39,8.224-2.664,14.942-2.637,13.9-6.247,32.937-8.073,49.939a185.118,185.118,0,0,0-.235,35.042l2.016,93.116,1.981,48.245a.519.519,0,0,1-.21.438c-.21.157-21.67,15.747-68.146,18.948Zm-46.344-24.749c13.77,17.3,44.769,23.4,46.374,23.7,43.585-3.014,64.938-16.944,67.309-18.583l-1.969-47.972-2.013-93.083a185.963,185.963,0,0,1,.238-35.221c1.83-17.044,5.444-36.1,8.084-50.021,1.272-6.7,2.276-12,2.654-14.885h0c1.882-14.316-4.879-55.148-5.538-59.072-1.575-.713-2.488-3.6-3.94-8.182-3.9-12.31-11.136-35.157-41.179-53.894-.623,2.235-2.663,9.612-3.905,14.812-2.122,8.883-6.574,13.624-6.764,13.821a.511.511,0,0,1-.3.156l-31.785,4.483a126.6,126.6,0,0,1-22.686,4.074c-2.322.251-4.455.484-6.409.781,10.656,2.013,10.783,24.9,10.783,25.917a.515.515,0,0,1-.016.126l-3.342,13.4a.543.543,0,0,1-.062.149c-14.958,24.014-12.507,32.948-12.481,33.036a.548.548,0,0,1,.023.13l.748,15.164a.518.518,0,0,1-.426.536c-1.868.349-.17,14.65,1.33,27.27.818,6.885,1.745,14.687,2.422,22.291a359.044,359.044,0,0,1,.848,44.347l34.638-4.721a.52.52,0,0,1,.293.986c-.144.068-14.52,6.888-18.833,9.656-4.106,2.633-14.832,11.6-16.394,12.908Zm-4.547-318.595q-.522.111-1.025.235a12.315,12.315,0,0,0-6.932,4.586,50.592,50.592,0,0,0-5.6,9.5c-3.418,7.781-5.558,16.013-5.578,18.228a10.08,10.08,0,0,0,.664-1.037,33.649,33.649,0,0,0,3.631-10.665,22.8,22.8,0,0,1,2.35-7.276A41.973,41.973,0,0,1,531.708,8082.38Z" transform="translate(-511.601 -8042.44)" fill="#4d4d4d"/>
      </g>
      <path id="Trazado_107163" data-name="Trazado 107163" d="M560.626,8079.143l-1.543-5.768-2.216-1.031s-.956-.419-.351-1.078l3.941-1.445s1.771-.544,1.384,1l-1.183,2.407,1.193,5.477-.254,1.373Z" transform="translate(-414.049 -8005.597)" fill="#666"/>
      <path id="Trazado_107164" data-name="Trazado 107164" d="M595.9,8068.986l-4.679-3.71-2.393.493s-1.017.235-.925-.655l2.3-3.509s1.1-1.494,1.709-.021l.485,2.638,4.225,3.684.614,1.254Z" transform="translate(-412.742 -8005.959)" fill="#666"/>
      <path id="Trazado_107165" data-name="Trazado 107165" d="M594.163,8376.74c-.393,0-.783,0-1.168-.008l.015-1.042c2.635.039,5.437-.056,8.275-.279l.081,1.038C598.91,8376.643,596.487,8376.74,594.163,8376.74Zm-9.531-.589a58.08,58.08,0,0,1-8.233-1.654l.283-1a56.534,56.534,0,0,0,8.084,1.623Zm25.044-.683-.16-1.029c2.636-.41,5.379-.929,8.152-1.54l.224,1.017C615.1,8374.533,612.334,8375.056,609.676,8375.469Zm16.33-3.49-.246-1.013,8.1-1.964.247,1.014Zm-57.465-.491a23.907,23.907,0,0,1-6.967-4.869l.786-.684a23.511,23.511,0,0,0,6.648,4.623Zm73.658-3.436-.246-1.014,5.23-1.269.246,1.014Z" transform="translate(-413.831 -7993.348)" fill="#4d4d4d"/>
      <path id="Trazado_107166" data-name="Trazado 107166" d="M558.995,8417.123l-1.039-.053.414-8.32,1.039.053Zm.83-16.643-1.039-.051.415-8.32,1.039.052Zm.83-16.64-1.039-.053.416-8.32,1.039.052Zm.831-16.643-1.039-.051.416-8.321,1.039.052Zm.831-16.641-1.039-.052.414-8.32,1.039.054Zm.83-16.64-1.039-.053.416-8.322,1.039.054Zm.831-16.643-1.039-.053.177-3.542c.008-.077.375-1.87,1.022-4.793l1.017.226c-.646,2.91-1.009,4.7-1.009,4.7Zm3.053-16.29-1.012-.245c.68-2.827,1.365-5.555,2.038-8.106l1.007.264C568.393,8295.443,567.71,8298.164,567.031,8300.985Zm4.253-16.119-1-.292c.847-2.892,1.69-5.578,2.51-7.984l.986.334C572.967,8279.316,572.126,8281.989,571.284,8284.866Zm5.471-15.687-.952-.423a29.939,29.939,0,0,1,3.171-5.723l.23-1.621,1.031.146-.269,1.893-.084.11A28.207,28.207,0,0,0,576.755,8269.179Zm4.653-15.867-1.031-.146.427-3.009-1.039-5,1.018-.212,1.079,5.181ZM578.069,8237l-1.7-8.157,1.019-.211,1.694,8.156Zm-3.391-16.313-1.7-8.157,1.02-.211,1.7,8.157Zm-3.391-16.314-1.7-8.155,1.019-.212,1.7,8.156Zm-3.391-16.312-1.7-8.155,1.02-.211,1.7,8.155Zm75.055-12.746q-1.386-4.022-2.735-7.873l.982-.343c.9,2.562,1.813,5.193,2.737,7.876Zm-78.445-3.566-1.7-8.156,1.018-.211,1.7,8.156Zm72.931-12.162c-.979-2.738-1.923-5.361-2.822-7.841l.978-.356c.9,2.482,1.846,5.106,2.824,7.848Zm-76.321-4.151-1.72-8.148,1.02-.217,1.719,8.154Zm70.636-11.518c-1.1-2.972-2.078-5.6-2.905-7.811l.974-.366c.83,2.212,1.811,4.843,2.908,7.818Zm-74.083-4.782-.276-1.3.482-.127a12.819,12.819,0,0,0,5.715-4.207l.795.674a14.706,14.706,0,0,1-5.773,4.386l.077.36Zm68.226-10.783-3.626-7.5.938-.454,3.625,7.5Zm-57.285-1.5-.971-.38a40.711,40.711,0,0,0,2.122-7.923l1.028.175A41.947,41.947,0,0,1,568.611,8126.843Zm50.034-13.5-3.626-7.5.938-.454,3.625,7.5Zm-47.038-2.979-1.041-.036q.027-.784.04-1.6h0a54.315,54.315,0,0,0-1.632-6.369l.99-.319a50.646,50.646,0,0,1,1.676,6.61C571.638,8109.3,571.624,8109.837,571.607,8110.367Zm39.787-12.024-3.625-7.5.937-.453,3.625,7.5Zm-45.625-3.562a22.005,22.005,0,0,0-5.011-6.358l.665-.8a23.026,23.026,0,0,1,5.257,6.655Zm-9.171-9.509-.287-1c1.632-.467,4.509-1.3,8.024-2.333l.3,1C561.111,8083.976,558.23,8084.8,556.6,8085.272Zm47.545-1.929-3.625-7.5.937-.453,3.625,7.5Zm-31.511-2.811-.305-1c2.62-.8,5.328-1.643,7.964-2.488l.317.992C577.966,8078.885,575.256,8079.729,572.631,8080.532Zm15.914-5.13-.343-.984c3.414-1.189,6.023-2.193,7.755-2.981l.431.948C594.628,8073.187,591.99,8074.2,588.546,8075.4Z" transform="translate(-414.049 -8005.525)" fill="#4d4d4d"/>
      <g id="Grupo_55666" data-name="Grupo 55666" transform="translate(226.562 313.347)">
        <path id="Trazado_107167" data-name="Trazado 107167" d="M638.522,8316.895l4.551-3.544,2.215.561s.94.263.9-.623l-1.986-3.551s-.956-1.517-1.6-.073l-.579,2.605L637.9,8315.8l-.634,1.226Z" transform="translate(-637.262 -8309.041)" fill="#666"/>
      </g>
      <g id="Grupo_55667" data-name="Grupo 55667" transform="translate(265.742 151.974)">
        <path id="Trazado_107168" data-name="Trazado 107168" d="M676.107,8159.674l5.534-1.625,1.855,1.334s.779.589,1.062-.252l-.545-4.032s-.332-1.761-1.46-.653l-1.493,2.211-5.134,1.771-1.04.907Z" transform="translate(-674.885 -8154.08)" fill="#666"/>
      </g>
      <g id="Grupo_55668" data-name="Grupo 55668" transform="translate(197.625 82.079)">
        <path id="Trazado_107169" data-name="Trazado 107169" d="M614.46,8095.428l-1.161-5.649,1.483-1.738s.652-.727-.163-1.079l-4.063.208s-1.782.186-.772,1.4l2.079,1.672,1.34,5.263.819,1.111Z" transform="translate(-609.474 -8086.962)" fill="#666"/>
      </g>
      <g id="Grupo_55669" data-name="Grupo 55669" transform="translate(206.813 103.23)">
        <path id="Trazado_107170" data-name="Trazado 107170" d="M623.284,8115.739l-1.162-5.649,1.483-1.737s.653-.727-.162-1.08l-4.062.208s-1.783.186-.773,1.4l2.079,1.673,1.34,5.262.819,1.112Z" transform="translate(-618.297 -8107.272)" fill="#666"/>
      </g>
      <g id="Grupo_55670" data-name="Grupo 55670" transform="translate(215.675 126.148)">
        <path id="Trazado_107171" data-name="Trazado 107171" d="M631.793,8137.747l-1.162-5.65,1.484-1.737s.652-.726-.162-1.079l-4.063.208s-1.782.187-.772,1.4l2.079,1.671,1.339,5.263.818,1.111Z" transform="translate(-626.807 -8129.28)" fill="#666"/>
      </g>
    </g>
  </g>
</svg>
