<svg xmlns="http://www.w3.org/2000/svg" width="742.775" height="456.341" viewBox="0 0 742.775 456.341">
  <g id="Grupo_55717" data-name="Grupo 55717" transform="translate(-245.256 -8931.991)">
    <g id="Grupo_55703" data-name="Grupo 55703">
      <rect id="Rectángulo_9770" data-name="Rectángulo 9770" width="409.954" height="456.34" transform="translate(988.031 9388.332) rotate(180)" fill="#dcdcde"/>
      <rect id="Rectángulo_9771" data-name="Rectángulo 9771" width="268.76" height="394.208" transform="translate(930.728 9355.024) rotate(180)" fill="#f7f2e6"/>
      <rect id="Rectángulo_9772" data-name="Rectángulo 9772" width="256.67" height="2" transform="translate(668.058 9092.979)" fill="#333"/>
      <rect id="Rectángulo_9773" data-name="Rectángulo 9773" width="2" height="376.346" transform="translate(685.733 8970.56)" fill="#333"/>
      <g id="Grupo_55692" data-name="Grupo 55692">
        <rect id="Rectángulo_9774" data-name="Rectángulo 9774" width="2" height="163.039" transform="translate(964.075 9176.798)" fill="#333"/>
        <g id="Grupo_55691" data-name="Grupo 55691">
          <path id="Trazado_107232" data-name="Trazado 107232" d="M957.668,9334.22l7.406,3.146,7.406-3.146-7.406,17.557Z" fill="#333"/>
        </g>
      </g>
      <g id="Grupo_55694" data-name="Grupo 55694">
        <rect id="Rectángulo_9775" data-name="Rectángulo 9775" width="2" height="130.561" transform="translate(964.075 8978.033)" fill="#333"/>
        <g id="Grupo_55693" data-name="Grupo 55693">
          <path id="Trazado_107233" data-name="Trazado 107233" d="M972.481,8983.65l-7.406-3.146-7.406,3.146,7.406-17.557Z" fill="#333"/>
        </g>
      </g>
      <g id="Grupo_55696" data-name="Grupo 55696">
        <path id="Trazado_107234" data-name="Trazado 107234" d="M808.876,9077.979h-2v-1.885h2Zm0-3.885h-2v-8h2Zm0-10h-2v-8h2Zm0-10h-2v-8h2Zm0-10h-2v-8h2Zm0-10h-2v-8h2Zm0-10h-2v-8h2Zm0-10h-2v-8h2Zm0-10h-2v-8h2Zm0-10h-2v-8h2Zm0-10h-2v-8h2Zm0-10h-2v-8h2Z" fill="#333"/>
        <g id="Grupo_55695" data-name="Grupo 55695">
          <path id="Trazado_107235" data-name="Trazado 107235" d="M800.47,9072.361l7.406,3.146,7.406-3.146-7.406,17.557Z" fill="#333"/>
        </g>
      </g>
      <g id="Grupo_55698" data-name="Grupo 55698">
        <rect id="Rectángulo_9776" data-name="Rectángulo 9776" width="83.129" height="2" transform="translate(677.967 8945.2)" fill="#333"/>
        <g id="Grupo_55697" data-name="Grupo 55697">
          <path id="Trazado_107236" data-name="Trazado 107236" d="M683.585,8938.794l-3.146,7.406,3.146,7.406-17.557-7.406Z" fill="#333"/>
        </g>
      </g>
      <g id="Grupo_55700" data-name="Grupo 55700">
        <rect id="Rectángulo_9777" data-name="Rectángulo 9777" width="87.933" height="2" transform="translate(827.609 8945.2)" fill="#333"/>
        <g id="Grupo_55699" data-name="Grupo 55699">
          <path id="Trazado_107237" data-name="Trazado 107237" d="M909.924,8953.606l3.146-7.406-3.146-7.406,17.557,7.406Z" fill="#333"/>
        </g>
      </g>
      <g id="Grupo_55702" data-name="Grupo 55702">
        <rect id="Rectángulo_9778" data-name="Rectángulo 9778" width="9.186" height="2" transform="translate(661.968 9012.724)" fill="#333"/>
        <g id="Grupo_55701" data-name="Grupo 55701">
          <path id="Trazado_107238" data-name="Trazado 107238" d="M665.537,9021.129l3.146-7.406-3.146-7.406,17.557,7.406Z" fill="#333"/>
        </g>
      </g>
      <text id="_45_cms" data-name="45 cms" transform="translate(796.484 8950.703)" font-size="14.293" font-family="Roboto-Bold, Roboto" font-weight="700"><tspan x="-23.569" y="0">45 cms</tspan></text>
      <text id="_20_cms" data-name="20 cms" transform="translate(771.326 9031.562)" font-size="14.293" font-family="Roboto-Bold, Roboto" font-weight="700"><tspan x="-23.569" y="0">20 cms</tspan></text>
      <text id="POSTERIOR" transform="translate(700.943 9371.735)" font-size="14.293" font-family="Roboto-Bold, Roboto" font-weight="700"><tspan x="-38.518" y="0">POSTERIOR</tspan></text>
      <text id="_3_cms" data-name="3 cms" transform="translate(667.712 9001.396)" font-size="12.053" font-family="Roboto-Bold, Roboto" font-weight="700"><tspan x="-16.418" y="0">3 cms</tspan></text>
      <text id="_60_cms" data-name="60 cms" transform="translate(956.879 9144.91)" font-size="12.053" font-family="Roboto-Bold, Roboto" font-weight="700"><tspan x="-19.875" y="0">60 cms</tspan></text>
    </g>
    <g id="Grupo_55716" data-name="Grupo 55716">
      <rect id="Rectángulo_9779" data-name="Rectángulo 9779" width="344.157" height="456.34" transform="translate(245.256 8931.991)" fill="#dcdcde"/>
      <rect id="Rectángulo_9780" data-name="Rectángulo 9780" width="268.76" height="394.208" transform="translate(274.023 8960.816)" fill="#f7f2e6"/>
      <rect id="Rectángulo_9781" data-name="Rectángulo 9781" width="256.67" height="2" transform="translate(280.023 9092.979)" fill="#333"/>
      <rect id="Rectángulo_9782" data-name="Rectángulo 9782" width="2" height="376.346" transform="translate(517.018 8970.56)" fill="#333"/>
      <g id="Grupo_55705" data-name="Grupo 55705">
        <rect id="Rectángulo_9783" data-name="Rectángulo 9783" width="2" height="163.039" transform="translate(555.993 9176.798)" fill="#333"/>
        <g id="Grupo_55704" data-name="Grupo 55704">
          <path id="Trazado_107239" data-name="Trazado 107239" d="M549.586,9334.22l7.407,3.146,7.406-3.146-7.406,17.557Z" fill="#333"/>
        </g>
      </g>
      <g id="Grupo_55707" data-name="Grupo 55707">
        <rect id="Rectángulo_9784" data-name="Rectángulo 9784" width="2" height="130.561" transform="translate(555.993 8978.033)" fill="#333"/>
        <g id="Grupo_55706" data-name="Grupo 55706">
          <path id="Trazado_107240" data-name="Trazado 107240" d="M564.4,8983.65l-7.406-3.146-7.407,3.146,7.407-17.557Z" fill="#333"/>
        </g>
      </g>
      <g id="Grupo_55709" data-name="Grupo 55709">
        <path id="Trazado_107241" data-name="Trazado 107241" d="M397.876,9077.979h-2v-1.885h2Zm0-3.885h-2v-8h2Zm0-10h-2v-8h2Zm0-10h-2v-8h2Zm0-10h-2v-8h2Zm0-10h-2v-8h2Zm0-10h-2v-8h2Zm0-10h-2v-8h2Zm0-10h-2v-8h2Zm0-10h-2v-8h2Zm0-10h-2v-8h2Zm0-10h-2v-8h2Z" fill="#333"/>
        <g id="Grupo_55708" data-name="Grupo 55708">
          <path id="Trazado_107242" data-name="Trazado 107242" d="M389.469,9072.361l7.406,3.146,7.406-3.146-7.406,17.557Z" fill="#333"/>
        </g>
      </g>
      <g id="Grupo_55711" data-name="Grupo 55711">
        <rect id="Rectángulo_9785" data-name="Rectángulo 9785" width="83.129" height="2" transform="translate(443.655 8945.2)" fill="#333"/>
        <g id="Grupo_55710" data-name="Grupo 55710">
          <path id="Trazado_107243" data-name="Trazado 107243" d="M521.166,8953.606l3.146-7.406-3.146-7.406,17.557,7.406Z" fill="#333"/>
        </g>
      </g>
      <g id="Grupo_55713" data-name="Grupo 55713">
        <rect id="Rectángulo_9786" data-name="Rectángulo 9786" width="87.933" height="2" transform="translate(289.21 8945.2)" fill="#333"/>
        <g id="Grupo_55712" data-name="Grupo 55712">
          <path id="Trazado_107244" data-name="Trazado 107244" d="M294.827,8938.794l-3.146,7.406,3.146,7.406-17.557-7.406Z" fill="#333"/>
        </g>
      </g>
      <g id="Grupo_55715" data-name="Grupo 55715">
        <rect id="Rectángulo_9787" data-name="Rectángulo 9787" width="9.186" height="2" transform="translate(533.597 9012.724)" fill="#333"/>
        <g id="Grupo_55714" data-name="Grupo 55714">
          <path id="Trazado_107245" data-name="Trazado 107245" d="M539.215,9006.316l-3.146,7.406,3.146,7.406-17.557-7.406Z" fill="#333"/>
        </g>
      </g>
      <text id="_45_cms-2" data-name="45 cms" transform="translate(408.267 8950.703)" font-size="14.293" font-family="Roboto-Bold, Roboto" font-weight="700"><tspan x="-23.569" y="0">45 cms</tspan></text>
      <text id="_20_cms-2" data-name="20 cms" transform="translate(433.426 9031.562)" font-size="14.293" font-family="Roboto-Bold, Roboto" font-weight="700"><tspan x="-23.569" y="0">20 cms</tspan></text>
      <text id="DELANTERO" transform="translate(312.383 9371.735)" font-size="14.293" font-family="Roboto-Bold, Roboto" font-weight="700"><tspan x="-40.392" y="0">DELANTERO</tspan></text>
      <text id="_3_cms-2" data-name="3 cms" transform="translate(537.038 9001.396)" font-size="12.053" font-family="Roboto-Bold, Roboto" font-weight="700"><tspan x="-16.418" y="0">3 cms</tspan></text>
      <text id="_60_cms-2" data-name="60 cms" transform="translate(565.187 9144.91)" font-size="12.053" font-family="Roboto-Bold, Roboto" font-weight="700"><tspan x="-19.875" y="0">60 cms</tspan></text>
    </g>
  </g>
</svg>
