<svg xmlns="http://www.w3.org/2000/svg" width="242.726" height="514.963" viewBox="0 0 242.726 514.963">
  <g id="Grupo_55851" data-name="Grupo 55851" transform="translate(-730.414 -4868.87)">
    <rect id="Rectángulo_9881" data-name="Rectángulo 9881" width="242.726" height="514.962" rx="14.609" transform="translate(730.414 4868.87)" fill="#fff"/>
    <g id="Grupo_55850" data-name="Grupo 55850" transform="translate(765.394 4900.417)">
      <g id="Grupo_55843" data-name="Grupo 55843">
        <path id="Trazado_107573" data-name="Trazado 107573" d="M756.912,4931.087s56.6-58.013,142.435-31.6a67.507,67.507,0,0,1-1,33.191s-1.238,19.986-3.006,28.122-15.918,79.943-15.918,79.943l-.885,2.123.62,9.992,14.532,43.066s5.9,24.29,5.9,46.929-1.178,89.376-1.178,89.376v11.555s6.248,15.682-21.7,18.276-49.523,2.477-49.523,2.477H787.922s-28.534-2.124-31.01-16.273V5133.185s.354-27.472,7.31-43.625c.236-1.062,11.792-37.733,11.792-37.733l-.118-8.37-17.805-89.023S756.087,4939.93,756.912,4931.087Z" transform="translate(-756.032 -4891.973)" fill="#fff"/>
        <path id="Trazado_107574" data-name="Trazado 107574" d="M827.707,5265.379H788.1c-1.238-.09-29.143-2.33-31.68-16.833l-.011-115.2c0-.285.438-27.8,7.367-43.895.2-.939,10.924-34.992,11.733-37.562l-.117-8.264-17.79-88.9c-.088-.634-2.012-14.722-1.19-23.542l.023-.238.168-.172c.141-.146,14.524-14.724,39.235-25.85,22.808-10.267,59.34-19.629,103.886-5.924l.354.108.1.357a68.885,68.885,0,0,1-.983,33.489c-.095,1.517-1.292,20.221-3.017,28.152-1.747,8.037-15.773,79.212-15.915,79.93l-.862,2.105.6,9.747,14.5,42.981c.076.3,5.931,24.685,5.931,47.146,0,22.386-1.166,88.722-1.178,89.389v11.421a11.8,11.8,0,0,1-1.1,9.82c-3.138,5.124-10.277,8.237-21.215,9.252C851.2,5265.292,830.6,5265.379,827.707,5265.379Zm-69.964-333.822c-.75,8.685,1.178,22.8,1.2,22.947l17.8,88.983.132,8.6-.033.1c-3.2,10.167-11.564,36.757-11.775,37.674-6.86,15.963-7.291,43.215-7.3,43.489V5248.43c2.347,13.35,30.105,15.576,30.385,15.6h39.213c.221.005,21.865.089,49.46-2.474,10.475-.972,17.263-3.861,20.173-8.591a10.6,10.6,0,0,0,.955-8.761l-.047-.249v-11.555c.012-.679,1.178-67,1.178-89.376,0-22.294-5.817-46.525-5.877-46.769l-14.549-43.185-.628-10.149.944-2.269c.1-.588,14.132-71.777,15.881-79.826,1.737-7.994,2.98-27.82,2.993-28.02l.024-.139a68.145,68.145,0,0,0,1.092-32.474c-43.948-13.412-79.994-4.176-102.515,5.955C773.384,4916.516,759.413,4929.908,757.743,4931.557Z" transform="translate(-756.211 -4892.136)" fill="#999"/>
      </g>
      <g id="Grupo_55844" data-name="Grupo 55844" transform="translate(59.824 233.059)">
        <path id="Trazado_107575" data-name="Trazado 107575" d="M810.984,5073.627l-5.036-5.57.515-2.931s.252-1.246-.895-1.1l-4.422,2.919s-1.877,1.386.06,2.082l3.437.5,4.981,5.019,1.653.707Z" transform="translate(-800.33 -5064.012)" fill="#666"/>
      </g>
      <g id="Grupo_55845" data-name="Grupo 55845" transform="translate(59.078 354.136)">
        <path id="Trazado_107576" data-name="Trazado 107576" d="M810.434,5162.919l-5.038-5.571.517-2.929s.251-1.246-.895-1.1l-4.422,2.919s-1.877,1.384.06,2.082l3.437.5,4.98,5.018,1.653.708Z" transform="translate(-799.78 -5153.304)" fill="#666"/>
      </g>
      <rect id="Rectángulo_9882" data-name="Rectángulo 9882" width="1.356" height="370.941" transform="translate(70.476 3.04)" fill="#999"/>
      <path id="Trazado_107577" data-name="Trazado 107577" d="M778.555,5259.454c-.012-.816-1.239-82.151-1.239-127.266a288.664,288.664,0,0,1,12.594-82.812l1.2-7.415c-.155-1.91-2.861-35.7-3.886-66.1-1.047-31.075-7.709-70.24-7.776-70.633l1.337-.228c.068.393,6.745,39.646,7.8,70.814,1.048,31.1,3.86,65.77,3.887,66.114l.007.084-1.252,7.688a287.813,287.813,0,0,0-12.548,82.486c0,45.1,1.227,126.43,1.239,127.246Z" transform="translate(-748.698 -4887.556)" fill="#999"/>
      <path id="Trazado_107578" data-name="Trazado 107578" d="M843.143,5263.711l-1.356-.02c.012-.816,1.238-82.143,1.238-127.246a287.231,287.231,0,0,0-12.521-82.376l-1.276-7.788,0-.074c.019-.357,1.951-35.947,2.594-67.069.816-39.58,11.114-85.631,11.218-86.092l1.322.3c-.1.458-10.37,46.381-11.184,85.822-.629,30.464-2.492,65.2-2.593,67.041l1.227,7.535a288.179,288.179,0,0,1,12.566,82.7C844.381,5181.56,843.155,5262.894,843.143,5263.711Z" transform="translate(-730.219 -4891.813)" fill="#999"/>
      <path id="Trazado_107579" data-name="Trazado 107579" d="M825.609,5010.193q-1.7,0-3.435-.032a302.291,302.291,0,0,1-51.42-5.321l.283-1.328a300.784,300.784,0,0,0,51.162,5.292,193.24,193.24,0,0,0,51.15-5.87l.376,1.3A194.051,194.051,0,0,1,825.609,5010.193Z" transform="translate(-751.034 -4852.694)" fill="#999"/>
      <path id="Trazado_107580" data-name="Trazado 107580" d="M825.608,5015.394q-1.7,0-3.433-.031a302.561,302.561,0,0,1-51.42-5.32l.283-1.328a300.757,300.757,0,0,0,51.162,5.292,193.349,193.349,0,0,0,51.15-5.869l.376,1.3A194.14,194.14,0,0,1,825.608,5015.394Z" transform="translate(-751.034 -4850.843)" fill="#999"/>
      <rect id="Rectángulo_9883" data-name="Rectángulo 9883" width="13.442" height="80.944" transform="translate(65.2 373.982)" fill="#404040"/>
      <rect id="Rectángulo_9884" data-name="Rectángulo 9884" width="1.356" height="91.12" transform="translate(3.377 362.489) rotate(-6.323)" fill="#404040"/>
      <rect id="Rectángulo_9885" data-name="Rectángulo 9885" width="1.356" height="85.474" transform="translate(12.35 368.273) rotate(-6.297)" fill="#404040"/>
      <rect id="Rectángulo_9886" data-name="Rectángulo 9886" width="1.357" height="83.488" transform="translate(17.037 370.637) rotate(-6.508)" fill="#404040"/>
      <rect id="Rectángulo_9887" data-name="Rectángulo 9887" width="1.356" height="80.02" transform="translate(32.158 374.041) rotate(-5.073)" fill="#404040"/>
      <rect id="Rectángulo_9888" data-name="Rectángulo 9888" width="1.357" height="81.043" transform="translate(35.696 373.457) rotate(-5.636)" fill="#404040"/>
      <rect id="Rectángulo_9889" data-name="Rectángulo 9889" width="1.357" height="80.117" transform="matrix(0.999, -0.038, 0.038, 0.999, 53.911, 374.007)" fill="#404040"/>
      <rect id="Rectángulo_9890" data-name="Rectángulo 9890" width="1.356" height="82.388" transform="translate(57.979 372.583) rotate(-1.476)" fill="#404040"/>
      <g id="Grupo_55846" data-name="Grupo 55846" transform="translate(81.133 365.615)">
        <rect id="Rectángulo_9891" data-name="Rectángulo 9891" width="89.341" height="1.355" transform="translate(45.511 88.704) rotate(-83.153)" fill="#404040"/>
        <rect id="Rectángulo_9892" data-name="Rectángulo 9892" width="85.407" height="1.355" transform="matrix(0.1, -0.995, 0.995, 0.1, 37.99, 89.248)" fill="#404040"/>
        <rect id="Rectángulo_9893" data-name="Rectángulo 9893" width="84.767" height="1.357" transform="translate(33.785 89.244) rotate(-84.401)" fill="#404040"/>
        <rect id="Rectángulo_9894" data-name="Rectángulo 9894" width="83.298" height="1.355" transform="translate(20.563 89.261) rotate(-85.515)" fill="#404040"/>
        <rect id="Rectángulo_9895" data-name="Rectángulo 9895" width="82.526" height="1.356" transform="translate(16.229 89.271) rotate(-86.417)" fill="#404040"/>
        <rect id="Rectángulo_9896" data-name="Rectángulo 9896" width="80.976" height="1.356" transform="translate(2.941 89.293) rotate(-88.434)" fill="#404040"/>
        <rect id="Rectángulo_9897" data-name="Rectángulo 9897" width="82.367" height="1.356" transform="translate(0 89.302) rotate(-89.217)" fill="#404040"/>
      </g>
      <path id="Trazado_107581" data-name="Trazado 107581" d="M824.657,5218.544c-29.332,0-60.677-3.167-60.677-12.058s30.85-14.182,60.677-14.182,60.676,5.3,60.676,14.182S853.988,5218.544,824.657,5218.544Zm0-24.884c-35.483,0-59.321,6.63-59.321,12.826,0,6.3,24.394,10.7,59.321,10.7s59.32-4.4,59.32-10.7C883.977,5200.291,860.14,5193.66,824.657,5193.66Z" transform="translate(-753.445 -4785.285)" fill="#999"/>
      <rect id="Rectángulo_9898" data-name="Rectángulo 9898" width="1.356" height="6.604" transform="matrix(1, -0.011, 0.011, 1, 66.559, 157.092)" fill="#999"/>
      <rect id="Rectángulo_9899" data-name="Rectángulo 9899" width="1.356" height="6.605" transform="matrix(1, -0.011, 0.011, 1, 64.582, 156.828)" fill="#999"/>
      <rect id="Rectángulo_9900" data-name="Rectángulo 9900" width="1.356" height="6.605" transform="translate(62.24 156.828) rotate(-0.643)" fill="#999"/>
      <rect id="Rectángulo_9901" data-name="Rectángulo 9901" width="1.356" height="6.605" transform="translate(59.455 156.828) rotate(-0.643)" fill="#999"/>
      <rect id="Rectángulo_9902" data-name="Rectángulo 9902" width="1.356" height="6.605" transform="matrix(1, -0.011, 0.011, 1, 56.625, 156.342)" fill="#999"/>
      <rect id="Rectángulo_9903" data-name="Rectángulo 9903" width="1.356" height="6.605" transform="translate(53.663 155.811) rotate(-0.643)" fill="#999"/>
      <rect id="Rectángulo_9904" data-name="Rectángulo 9904" width="1.356" height="6.605" transform="matrix(1, -0.011, 0.011, 1, 50.921, 156.033)" fill="#999"/>
      <rect id="Rectángulo_9905" data-name="Rectángulo 9905" width="1.356" height="6.604" transform="matrix(1, -0.011, 0.011, 1, 48.223, 155.874)" fill="#999"/>
      <rect id="Rectángulo_9906" data-name="Rectángulo 9906" width="1.356" height="6.604" transform="translate(44.996 155.609) rotate(-0.643)" fill="#999"/>
      <rect id="Rectángulo_9907" data-name="Rectángulo 9907" width="1.356" height="6.604" transform="matrix(1, -0.011, 0.011, 1, 39.55, 154.651)" fill="#999"/>
      <rect id="Rectángulo_9908" data-name="Rectángulo 9908" width="1.356" height="6.604" transform="translate(36.765 154.32) rotate(-0.643)" fill="#999"/>
      <rect id="Rectángulo_9909" data-name="Rectángulo 9909" width="1.356" height="6.604" transform="matrix(1, -0.011, 0.011, 1, 34.068, 153.815)" fill="#999"/>
      <rect id="Rectángulo_9910" data-name="Rectángulo 9910" width="1.356" height="6.604" transform="matrix(1, -0.011, 0.011, 1, 30.486, 153.815)" fill="#999"/>
      <rect id="Rectángulo_9911" data-name="Rectángulo 9911" width="1.356" height="6.604" transform="matrix(1, -0.011, 0.011, 1, 27.865, 152.992)" fill="#999"/>
      <rect id="Rectángulo_9912" data-name="Rectángulo 9912" width="1.356" height="6.605" transform="matrix(1, -0.011, 0.011, 1, 25.345, 153.02)" fill="#999"/>
      <rect id="Rectángulo_9913" data-name="Rectángulo 9913" width="1.356" height="6.605" transform="translate(22.383 152.224) rotate(-0.643)" fill="#999"/>
      <g id="Grupo_55847" data-name="Grupo 55847" transform="translate(63.874 141.595)" opacity="0.39">
        <path id="Trazado_107582" data-name="Trazado 107582" d="M891.9,5185.493c0-2-.944-13.677-1.77-15.682s-1.178-12.262-1.178-12.262-1.06-18.748-1.886-24.643-1.3-29.714-1.3-29.714.354-20.163.826-23.582a67.079,67.079,0,0,1,2.712-9.669l-.279-1.757c-14.528.746-24.134,6.865-25.542,8.023s-10.731,8.708-10.731,8.708-3.184-15.8-4.6-17.451-3.006-18.276-3.006-18.276,2.652-16.713-4.687-26.088-29.182-23.7-34.754-25.114a2.256,2.256,0,0,1-.967-.929l-.919.251,2,2.83c4.716,11.2,4.362,46.1,4.362,46.1l-.442,132.531s1.15,60.37.678,65.027-5.188,52.059-5.188,52.059,16.272-1.3,24.289-.944,20.752-4.009,24.172-5.778,14.738-1.768,14.738-1.768c6.486-1.65,12.027-6.25,16.389-7.782a16.464,16.464,0,0,1,8.373-.59l-1.18-87.254S891.9,5187.5,891.9,5185.493Z" transform="translate(-803.138 -4996.381)" fill="#999"/>
        <path id="Trazado_107583" data-name="Trazado 107583" d="M805.409,5296.714a.681.681,0,0,1-.484-.2.671.671,0,0,1-.19-.541s4.716-47.4,5.187-52.06c.462-4.563-.67-64.342-.681-64.944l.442-132.548c0-.351.3-34.751-4.281-45.77l-1.962-2.769a.68.68,0,0,1-.084-.621.672.672,0,0,1,.46-.425l.919-.252a.681.681,0,0,1,.8.379,1.522,1.522,0,0,0,.6.568c5.66,1.52,27.585,15.813,35.038,25.332,7.242,9.248,5.059,25.062,4.838,26.526.773,8.045,2.042,16.889,2.838,17.816,1.31,1.528,3.675,12.534,4.525,16.66,2.344-1.9,8.708-7.058,9.858-8,1.878-1.543,11.782-7.451,25.94-8.175a.643.643,0,0,1,.7.57l.281,1.756a.7.7,0,0,1-.033.335,66.708,66.708,0,0,0-2.679,9.533c-.461,3.341-.815,23.3-.819,23.5s.48,23.819,1.291,29.608c.82,5.855,1.881,24.511,1.892,24.7.1,2.834.491,10.491,1.13,12.041.888,2.157,1.82,13.993,1.82,15.94,0,2,.118,6.23.118,6.231l1.18,87.263a.689.689,0,0,1-.253.538.677.677,0,0,1-.58.133,15.861,15.861,0,0,0-7.991.568,38.247,38.247,0,0,0-5.779,2.935,43.413,43.413,0,0,1-10.669,4.864.636.636,0,0,1-.167.021c-.111,0-11.193.021-14.429,1.692-3.692,1.911-16.49,6.187-24.512,5.854-7.881-.351-24.043.926-24.205.94C805.446,5296.713,805.428,5296.714,805.409,5296.714Zm.374-297.874.769,1.084a.687.687,0,0,1,.072.129c4.716,11.2,4.429,44.942,4.415,46.373l-.442,132.526c.046,2.452,1.144,60.448.674,65.094-.435,4.3-4.484,45-5.107,51.252,3.4-.256,16.626-1.178,23.565-.884,7.762.376,20.231-3.84,23.828-5.7,3.4-1.757,13.824-1.839,14.965-1.844a42.69,42.69,0,0,0,10.248-4.706,39.228,39.228,0,0,1,6-3.038,17.232,17.232,0,0,1,7.908-.758l-1.169-86.437h0s-.118-4.249-.118-6.258c0-1.982-.944-13.543-1.717-15.424-.847-2.055-1.195-11.434-1.231-12.5-.01-.172-1.067-18.772-1.879-24.573-.823-5.867-1.284-28.82-1.3-29.793.015-.85.361-20.269.833-23.688a64.333,64.333,0,0,1,2.688-9.64l-.157-.981c-13.459.839-22.763,6.374-24.539,7.834-1.414,1.163-10.734,8.712-10.734,8.712a.687.687,0,0,1-.656.111.674.674,0,0,1-.435-.5c-1.216-6.042-3.5-16.039-4.449-17.144-1.479-1.726-2.9-15.84-3.166-18.651a.716.716,0,0,1,.005-.171c.026-.164,2.518-16.536-4.552-25.564C832.776,5014.341,811.3,5000.312,805.784,4998.84Z" transform="translate(-803.317 -4996.56)" fill="#4d4d4d"/>
      </g>
      <g id="Grupo_55848" data-name="Grupo 55848" transform="translate(64.699 134.607)" opacity="0.72">
        <path id="Trazado_107584" data-name="Trazado 107584" d="M911.134,5055.151s-7.547,14.149-22.167,14.857-24.29,6.87-25.705,8.035-10.73,8.709-10.73,8.709-3.184-15.8-4.6-17.452-3.006-18.276-3.006-18.276,2.652-16.713-4.687-26.087-29.183-23.7-34.754-25.115c0,0-2.388-1.149,0-2.83s10.346-4.068,10.346-4.068,3.98-2.3,4.51,0,.088,6.544,2.476,8.136,15.476,9.021,15.476,9.021,8.49,6.766,13.353,7.451,19.809,1.126,19.809,1.126,6.544-.884,9.374,4.6,14.5,19.988,18.748,23.169S911.134,5055.151,911.134,5055.151Z" transform="translate(-803.747 -4991.229)" fill="#999"/>
        <path id="Trazado_107585" data-name="Trazado 107585" d="M852.71,5087.605a.676.676,0,0,1-.664-.543c-1.216-6.042-3.5-16.039-4.449-17.144-1.479-1.726-2.9-15.84-3.166-18.651a.716.716,0,0,1,.005-.171c.026-.164,2.518-16.536-4.552-25.564-7.356-9.4-28.988-23.506-34.386-24.876a2.555,2.555,0,0,1-1.567-1.869,2.511,2.511,0,0,1,1.344-2.172c2.353-1.656,9.6-3.877,10.468-4.141.506-.283,2.881-1.527,4.355-.887a1.858,1.858,0,0,1,1.083,1.362,18.458,18.458,0,0,1,.309,2.313c.194,2.078.416,4.432,1.883,5.411,2.339,1.559,15.3,8.92,15.434,8.995.171.126,8.488,6.718,13.112,7.369,4.772.672,19.587,1.117,19.735,1.121-.045,0,6.943-.877,9.957,4.964,2.841,5.5,14.456,19.866,18.551,22.938,4.247,3.184,11.56,8.727,11.56,8.727a.68.68,0,0,1,.19.86c-.079.146-7.9,14.5-22.734,15.215-13.869.671-23.49,6.386-25.307,7.881-1.416,1.164-10.734,8.712-10.734,8.712A.675.675,0,0,1,852.71,5087.605Zm-6.921-36.385c.773,8.045,2.042,16.889,2.838,17.816,1.31,1.528,3.675,12.534,4.525,16.661,2.344-1.9,8.708-7.058,9.858-8,1.892-1.554,11.861-7.5,26.1-8.187,12.517-.607,19.813-11.521,21.315-14-1.691-1.283-7.482-5.667-11.076-8.36-4.293-3.221-15.979-17.657-18.944-23.4-2.567-4.978-8.434-4.271-8.681-4.236-.721-.014-15.148-.446-19.992-1.128-4.99-.7-13.329-7.311-13.682-7.592-.447-.245-13.048-7.4-15.43-8.987-2.005-1.335-2.269-4.15-2.48-6.412a18.026,18.026,0,0,0-.281-2.135.523.523,0,0,0-.3-.422c-.679-.3-2.282.324-3.207.857a.644.644,0,0,1-.145.063c-.077.023-7.88,2.376-10.149,3.973-.5.354-.792.709-.773.95.02.273.41.567.629.689,5.657,1.519,27.586,15.813,35.04,25.333C848.193,5033.944,846.01,5049.757,845.789,5051.221Z" transform="translate(-803.925 -4991.406)" fill="#4d4d4d"/>
      </g>
      <path id="Trazado_107586" data-name="Trazado 107586" d="M840.531,5073.85H809.887v-1.356H840.33c.18,0,17.91.065,28.383-4.483,10.2-4.429,10.529-4.033,10.918-3.582l.327.379-.262.47-1.15-.72.575.361-.591.289a.58.58,0,0,0,.453.311h0c-.188,0-1.542.182-9.73,3.737C859.008,5073.7,842.655,5073.85,840.531,5073.85Z" transform="translate(-737.104 -4830.898)" fill="#666"/>
      <path id="Trazado_107587" data-name="Trazado 107587" d="M821.4,5076.306c-.119-10.729,8.62-21.781,8.991-22.246l1.059.848c-.088.11-8.808,11.142-8.694,21.382Z" transform="translate(-733.005 -4834.496)" fill="#666"/>
      <path id="Trazado_107588" data-name="Trazado 107588" d="M816.013,5073.813c-.121-4.841,3.917-12.4,4.09-12.72l1.195.643c-.041.075-4.041,7.562-3.928,12.042Z" transform="translate(-734.924 -4831.992)" fill="#666"/>
      <path id="Trazado_107589" data-name="Trazado 107589" d="M827.753,5082.942c-.121-4.84,3.919-12.4,4.091-12.719l1.193.643c-.041.075-4.041,7.561-3.928,12.043Z" transform="translate(-730.745 -4828.742)" fill="#666"/>
      <path id="Trazado_107590" data-name="Trazado 107590" d="M853.079,5078.727c-.121-4.843,3.919-12.4,4.091-12.721l1.195.643c-.042.075-4.042,7.563-3.93,12.042Z" transform="translate(-721.73 -4830.243)" fill="#666"/>
      <path id="Trazado_107591" data-name="Trazado 107591" d="M846.847,5071.184c-.115-.281-.381-.937,3.2-8.333l1.222.591a49.94,49.94,0,0,0-3.131,7.388l-.388-.013Z" transform="translate(-723.967 -4831.367)" fill="#666"/>
      <path id="Trazado_107592" data-name="Trazado 107592" d="M854.019,5068.944l-1.356-.042a22.732,22.732,0,0,1,1.159-5.053l1.281.442A22,22,0,0,0,854.019,5068.944Z" transform="translate(-721.877 -4831.011)" fill="#666"/>
      <g id="Grupo_55849" data-name="Grupo 55849" transform="translate(122.012 138.424)" opacity="0.72">
        <path id="Trazado_107593" data-name="Trazado 107593" d="M849.868,4994.722s2.594,4.245,10.73,4.127l-6.486,7.074a13.219,13.219,0,0,0-1.414,5.66,25.216,25.216,0,0,0,.814,5.975l-6.115-.252-.705-7.828.306-4.141,1.249-5.277Z" transform="translate(-846.014 -4994.043)" fill="#999"/>
        <path id="Trazado_107594" data-name="Trazado 107594" d="M853.689,5018.413h-.028l-6.116-.252a.677.677,0,0,1-.647-.617l-.706-7.829.306-4.25,1.266-5.385,1.633-5.378a.678.678,0,0,1,1.226-.159c.107.173,2.583,3.905,10.141,3.805a.689.689,0,0,1,.628.4.675.675,0,0,1-.119.736l-6.423,7.009a12.667,12.667,0,0,0-1.3,5.268,24.671,24.671,0,0,0,.788,5.793.678.678,0,0,1-.652.859Zm-5.494-1.584,4.621.192a25.429,25.429,0,0,1-.618-5.261,13.812,13.812,0,0,1,1.5-5.983.755.755,0,0,1,.1-.135l5.469-5.966c-4.97-.264-7.68-2.168-8.926-3.391l-1.261,4.15-1.238,5.236-.29,4.034Z" transform="translate(-846.192 -4994.221)" fill="#4d4d4d"/>
      </g>
    </g>
  </g>
</svg>
