<svg xmlns="http://www.w3.org/2000/svg" xmlns:xlink="http://www.w3.org/1999/xlink" width="243.344" height="494.414" viewBox="0 0 243.344 494.414">
  <defs>
    <clipPath id="clip-path">
      <rect id="Rectángulo_9950" data-name="Rectángulo 9950" width="201.628" height="414.193" fill="none"/>
    </clipPath>
  </defs>
  <g id="Grupo_55884" data-name="Grupo 55884" transform="translate(-980.376 -5472.348)">
    <rect id="Rectángulo_9933" data-name="Rectángulo 9933" width="243.344" height="494.414" rx="19.594" transform="translate(980.376 5472.348)" fill="#fff"/>
    <g id="Grupo_55883" data-name="Grupo 55883" transform="translate(1001.234 5512.458)">
      <g id="Grupo_55882" data-name="Grupo 55882" clip-path="url(#clip-path)">
        <g id="Grupo_55881" data-name="Grupo 55881" transform="translate(8.361 -119.435)">
          <g id="Grupo_55864" data-name="Grupo 55864">
            <path id="Trazado_107636" data-name="Trazado 107636" d="M1189.877,5469.032s-18.541-40.326-95.483-60.72c0,0-54.231-12.516-87.14,3.708,0,0-3.245,12.63,3.36,29.665s40.673,122.02,40.673,122.02v6.952s-28.738,46.7-29.9,83.316-1.159,149.483-1.159,149.483,0,6.257,8.344,8.807,44.5,19.7,44.5,19.7,50.754,16.455,76.479,0l13.674-11.356s5.562-2.317,5.794-16.223l.463-168.95s-3.708-44.729-15.3-58.171l-.231-7.88,15.064-55.622s5.331-12.514,8.575-18.772S1189.877,5469.032,1189.877,5469.032Z" transform="translate(-1005.771 -5403.088)" fill="#fff"/>
            <path id="Trazado_107637" data-name="Trazado 107637" d="M1118.221,5840.064c-22.093,0-43.9-6.945-45.268-7.39-.442-.2-36.285-17.19-44.486-19.694-8.716-2.665-8.815-9.169-8.815-9.446,0-1.128.013-113.294,1.159-149.5,1.117-35.295,28.036-80.409,29.9-83.482v-6.662c-1.227-3.779-34.195-105.292-40.627-121.883-6.607-17.039-3.519-29.548-3.385-30.07l.077-.3.275-.136c32.74-16.144,87.036-3.887,87.583-3.761,76.385,20.248,95.753,60.686,95.939,61.092l.129.279-.129.278c-.089.2-9.08,19.785-12.3,25.986-3.2,6.162-8.5,18.6-8.554,18.727l-15.007,55.439.221,7.546c11.474,13.655,15.149,56.542,15.3,58.369l-.461,169.006c-.221,13.316-5.277,16.379-6.1,16.788l-13.608,11.3C1141.256,5838.19,1129.7,5840.064,1118.221,5840.064Zm-110.3-427.507c-.417,1.979-2.5,13.756,3.4,28.965,6.536,16.855,40.345,121,40.686,122.054l.032.206v7.143l-.1.16c-.287.466-28.659,46.971-29.8,82.987-1.147,36.188-1.159,148.334-1.159,149.462,0,.233.136,5.807,7.873,8.17,8.294,2.535,43.11,19.034,44.587,19.734.427.132,50.674,16.137,75.836.042l13.776-11.41c.046-.019,5.165-2.436,5.385-15.62l.463-168.941c-.036-.389-3.819-44.609-15.134-57.734l-.154-.178-.242-8.215.026-.1,15.063-55.622c.084-.212,5.408-12.7,8.626-18.905,2.987-5.759,11.006-23.179,12.137-25.639-1.812-3.539-22.484-40.888-94.916-60.087C1093.792,5408.914,1040.266,5396.836,1007.92,5412.558Z" transform="translate(-1005.858 -5403.167)" fill="#999"/>
          </g>
          <path id="Trazado_107638" data-name="Trazado 107638" d="M1027.178,5809.547l-1,0c.006-1.4.462-140.395.233-156.428a95.356,95.356,0,0,1,4.9-30.307l22.7-49.565,1.133-8.442c-1.183-3.624-29.78-91.325-34.971-113.672a99.238,99.238,0,0,1,0-43.117l.965.257a98.186,98.186,0,0,0,0,42.633c5.263,22.661,34.687,112.789,34.983,113.7l.036.107-.015.114-1.2,8.77-22.712,49.6a94.357,94.357,0,0,0-4.82,29.912C1027.64,5669.144,1027.183,5808.146,1027.178,5809.547Z" transform="translate(-1004.107 -5402.456)" fill="#999"/>
          <path id="Trazado_107639" data-name="Trazado 107639" d="M1045.107,5819.659l-1-.008c.009-1.207.922-121.073.463-149.934-.459-28.967,6.684-47.29,6.756-47.472l15.724-42.548v-8.253c-.117-1.065-12.068-112.077-13.9-128.8-1.84-16.8,2.1-38.562,2.136-38.779l.984.179c-.04.218-3.951,21.842-2.126,38.491,1.832,16.725,13.784,127.738,13.905,128.857l0,8.487-.031.083L1052.26,5622.6c-.076.19-7.146,18.346-6.689,47.1C1046.027,5698.576,1045.116,5818.452,1045.107,5819.659Z" transform="translate(-1000.25 -5403.065)" fill="#999"/>
          <path id="Trazado_107640" data-name="Trazado 107640" d="M1078.1,5833.312l-1-.008c.011-1.41,1.22-141.422,1.564-175.789.345-34.42,9.4-73.589,9.5-73.979l.064-6.671c0-.773-.171-78.18,0-105.332.173-27.229,10.526-57.735,10.63-58.04l.945.324c-.1.3-10.4,30.658-10.575,57.722-.171,27.147,0,104.552,0,105.33l-.077,6.786c-.1.5-9.14,39.564-9.484,73.871C1079.323,5691.891,1078.113,5831.9,1078.1,5833.312Z" transform="translate(-995.412 -5401.652)" fill="#999"/>
          <path id="Trazado_107641" data-name="Trazado 107641" d="M1110.479,5816.673l-1.39-251.167v-25.9h1v25.9l1.39,251.164Z" transform="translate(-990.722 -5383.161)" fill="#999"/>
          <rect id="Rectángulo_9934" data-name="Rectángulo 9934" width="14.392" height="146.779" transform="translate(86.282 433.509)" fill="#313131"/>
          <rect id="Rectángulo_9935" data-name="Rectángulo 9935" width="1.331" height="171.988" transform="translate(17.042 408.888) rotate(-4.521)" fill="#313131"/>
          <rect id="Rectángulo_9936" data-name="Rectángulo 9936" width="1.333" height="166.328" transform="translate(27.121 414.454) rotate(-4.195)" fill="#313131"/>
          <rect id="Rectángulo_9937" data-name="Rectángulo 9937" width="1.333" height="162.906" transform="translate(33.205 417.763) rotate(-3.691)" fill="#313131"/>
          <rect id="Rectángulo_9938" data-name="Rectángulo 9938" width="1.333" height="143.231" transform="translate(78.918 437.093) rotate(-1.043)" fill="#313131"/>
          <rect id="Rectángulo_9939" data-name="Rectángulo 9939" width="1.333" height="147.356" transform="matrix(1, -0.022, 0.022, 1, 66.634, 434.972)" fill="#313131"/>
          <rect id="Rectángulo_9940" data-name="Rectángulo 9940" width="1.332" height="156.597" transform="translate(47.979 423.991) rotate(-3.309)" fill="#313131"/>
          <rect id="Rectángulo_9941" data-name="Rectángulo 9941" width="1.333" height="140.144" transform="translate(118.201 440.144)" fill="#313131"/>
          <rect id="Rectángulo_9942" data-name="Rectángulo 9942" width="140.155" height="1.333" transform="translate(125.896 580.281) rotate(-89.329)" fill="#313131"/>
          <rect id="Rectángulo_9943" data-name="Rectángulo 9943" width="1.333" height="147.164" transform="translate(141.129 433.124)" fill="#313131"/>
          <rect id="Rectángulo_9944" data-name="Rectángulo 9944" width="1.333" height="151.648" transform="translate(146.386 428.64)" fill="#313131"/>
          <rect id="Rectángulo_9945" data-name="Rectángulo 9945" width="162.613" height="1.333" transform="matrix(0.023, -1, 1, 0.023, 156.794, 580.273)" fill="#313131"/>
          <path id="Trazado_107642" data-name="Trazado 107642" d="M1125.653,5862.123c-26.174,0-49.134-13-49.953-13.468-.335-.167-5.395-2.7-11.618-5.693a180.48,180.48,0,0,1-31.42-19.726c-.4-.435-7.838-8.972-6.131-17.7.908-4.64,4.24-8.417,9.907-11.226,19.7-9.757,49.212,3.592,50.459,4.165l47.251,19.194c19.239,8.549,28.858,17.048,28.61,25.271-.3,10.014-15.022,15.627-15.649,15.863A67.705,67.705,0,0,1,1125.653,5862.123Zm-72.287-69.985a36.755,36.755,0,0,0-16.337,3.368c-5.271,2.613-8.364,6.071-9.189,10.282-1.585,8.079,5.669,16.407,5.744,16.491a180.138,180.138,0,0,0,31.076,19.482c6.421,3.089,11.6,5.685,11.656,5.712l.038.021c.366.212,36.931,21.179,70.313,10.052.123-.046,14.487-5.526,14.762-14.648.228-7.628-9.125-15.7-27.8-24l-47.258-19.2C1086.125,5799.586,1069.66,5792.138,1053.366,5792.138Z" transform="translate(-1002.864 -5346.335)" fill="#313131"/>
          <path id="Trazado_107643" data-name="Trazado 107643" d="M1120.038,5913.751a65.718,65.718,0,0,1-18.323-2.444l-.008,0a160.559,160.559,0,0,1-14.928-6c-17.281-8.312-35.771-18.455-35.956-18.555-.8-.341-21.027-9.089-21.275-17.923-.085-3,2.073-5.6,6.411-7.754,19.7-9.763,49.212,3.591,50.459,4.163l47.251,19.193c13,4.569,19.688,9.489,19.84,14.61.179,6.036-8.694,9.832-9.071,9.989A63.042,63.042,0,0,1,1120.038,5913.751Zm-17.907-3.71c.354.113,20.823,6.558,41.792-2.241.083-.036,8.407-3.6,8.252-8.724-.093-3.1-3.462-7.949-18.979-13.4l-47.308-19.218c-.328-.148-30.211-13.667-49.339-4.189-3.83,1.9-5.738,4.092-5.67,6.522.226,7.993,20.324,16.678,20.527,16.763.243.13,18.7,10.257,35.95,18.553A158.894,158.894,0,0,0,1102.131,5910.042Z" transform="translate(-1002.385 -5336.546)" fill="#313131"/>
          <path id="Trazado_107644" data-name="Trazado 107644" d="M1137.255,5821.7c0-1.249-.359-125.278,1.2-168.362,1.559-42.952-14.008-76.725-14.166-77.061l-.047-.212v-7.3l31.391-126.087.971.242-31.377,125.966.015,7.071c.954,2.1,15.736,35.406,14.213,77.418-1.563,43.063-1.209,167.075-1.2,168.322Z" transform="translate(-988.499 -5397.374)" fill="#999"/>
          <g id="Grupo_55865" data-name="Grupo 55865" transform="translate(137.436 45.072)">
            <rect id="Rectángulo_9946" data-name="Rectángulo 9946" width="1.333" height="1.001" transform="translate(31.069 1.294) rotate(-76)" fill="#999"/>
            <path id="Trazado_107645" data-name="Trazado 107645" d="M1138.715,5815.661l-.006-2.662,1,0,0,2.662Zm-.01-5.323,0-2.661,1,0,0,2.662Zm.992-5.326h-1l0-2.57.5-.09.5,0-.5,0,.5.089Zm-.006-5.321h-1v-2.661h1Zm-1-5.321v-2.662h1l0,2.659Zm1-5.324h-1v-2.661h1Zm0-5.321-1,0v-2.663h1Zm0-5.326h-1l0-2.638,1-.025Zm0-5.328-1,0,0-2.663,1,0Zm.008-5.324-1,0,.006-2.663,1,0Zm.01-5.325-1,0,.007-2.662,1,0Zm.01-5.324-1,0,.008-2.665,1,0Zm.016-5.324-1-.006.009-2.662,1,0Zm.016-5.326-1-.005.01-2.663,1,0Zm.021-5.324-1-.005.011-2.662,1,0Zm.023-5.322-1-.006.014-2.673,1,0Zm.026-5.342-1-.006.014-2.667,1,.006Zm.026-5.33-1-.008.017-2.645.5-.012.5.017Zm.034-5.322-1,0,.018-2.658,1,.008Zm.037-5.306-1-.008.021-2.624.5-.035.5.043Zm.041-5.325-1-.008.024-2.663,1,.007Zm.047-5.324-1-.011.026-2.663,1,.011Zm.053-5.326-1-.01.028-2.662,1,.01Zm.057-5.323-1-.011.031-2.664,1,.012Zm.064-5.324-1-.013.036-2.662,1,.012Zm.074-5.324-1-.016.039-2.663,1,.016Zm.081-5.324-1-.017.045-2.663,1,.019Zm.1-5.324-1-.018.053-2.664,1,.021Zm.107-5.325-1-.021.062-2.664,1,.024Zm.127-5.323-1-.026.072-2.664,1,.029Zm.153-5.322-1-.031.089-2.665,1,.034Zm.172-5.329-1-.022q.031-1.332.044-2.652l1,.008C1141.028,5648.828,1141.013,5649.719,1140.992,5650.61Zm-.955-5.327q-.01-1.333-.039-2.654l1-.022q.031,1.326.04,2.668Zm-.118-5.3c-.034-.892-.075-1.775-.119-2.653l1-.053q.07,1.326.12,2.667Zm-.276-5.3q-.091-1.334-.2-2.648l1-.082q.107,1.319.2,2.662Zm-.433-5.292q-.129-1.333-.276-2.639l1-.113q.146,1.316.275,2.657Zm-.587-5.278q-.167-1.328-.35-2.632l.988-.138q.186,1.308.353,2.645Zm-.735-5.256q-.2-1.328-.423-2.622l.986-.166q.22,1.3.427,2.636Zm-.88-5.235q-.243-1.323-.5-2.611l.982-.191c.17.861.335,1.736.5,2.62Zm-1.026-5.211q-.277-1.321-.565-2.594l.976-.221q.289,1.282.569,2.608Zm-1.168-5.183q-.31-1.313-.634-2.577l.969-.247q.323,1.269.639,2.595Zm-1.3-5.149c-.233-.872-.47-1.727-.705-2.558l.96-.272q.358,1.255.711,2.574Zm-1.448-5.106q-.4-1.313-.78-2.54l.953-.3q.387,1.233.784,2.551Zm-1.6-5.068q-.439-1.321-.857-2.514l.945-.331q.418,1.2.861,2.53Zm-1.751-5.012q-.5-1.36-.939-2.485l.932-.361c.292.753.609,1.587.944,2.5Zm-1.925-4.948c-.638-1.537-1.019-2.354-1.022-2.359l-.047-.212.6-.046.355-.167s.387.832,1.04,2.4Zm-.069-5.31h-1v-2.661h1Zm.169-5.179-.97-.242.642-2.582.971.242Zm1.286-5.163-.971-.243.644-2.581.971.242Zm1.287-5.164-.97-.242.642-2.582.971.242Zm1.286-5.166-.971-.242.642-2.581.971.242Zm1.286-5.163-.971-.243.643-2.582.971.242Zm1.286-5.164-.97-.243.642-2.581.971.242Zm1.287-5.164-.971-.242.643-2.583.97.242Zm1.285-5.163-.971-.243.643-2.581.971.242Zm1.286-5.165-.97-.242.644-2.582.97.242Zm1.287-5.166-.971-.242.643-2.581.971.242Zm1.286-5.163-.97-.242.642-2.583.971.242Zm1.288-5.164-.971-.243.643-2.581.97.242Zm1.285-5.165-.971-.242.643-2.582.971.242Zm1.287-5.163-.97-.243.642-2.581.971.242Zm1.286-5.165-.971-.242.643-2.582.97.242Zm1.285-5.165-.971-.242.644-2.582.971.243Zm1.288-5.164-.971-.242.643-2.582.97.242Zm1.285-5.164-.971-.243.643-2.581.971.242Zm1.287-5.164-.97-.242.642-2.582.971.242Zm1.286-5.164-.971-.243.643-2.581.97.242Zm1.287-5.164-.97-.242.642-2.582.971.242Zm1.286-5.166-.971-.242.643-2.581.97.242Zm1.285-5.164-.971-.242.644-2.582.971.242Zm1.287-5.164-.97-.243.642-2.581.971.242Z" transform="translate(-1125.719 -5441.98)" fill="#999"/>
            <rect id="Rectángulo_9947" data-name="Rectángulo 9947" width="0.999" height="1.327" transform="translate(13.002 376.218) rotate(-0.112)" fill="#999"/>
          </g>
          <g id="Grupo_55866" data-name="Grupo 55866" transform="translate(134.077 45.131)">
            <rect id="Rectángulo_9948" data-name="Rectángulo 9948" width="1.332" height="1.001" transform="translate(31.068 1.292) rotate(-76)" fill="#999"/>
            <path id="Trazado_107646" data-name="Trazado 107646" d="M1135.919,5818.17l-.009-2.68,1,0,.009,2.676Zm-.015-5.358-.007-2.68,1,0,.006,2.68Zm-.015-5.36,0-2.678,1,0,.006,2.678Zm-.01-5.356,0-2.68,1,0,.006,2.679Zm-.009-5.359,0-2.678,1,0,0,2.679Zm.992-5.36h-1l0-2.638,1-.042-.5,0,.5.037Zm-1-5.354v-2.681h1v2.679Zm1-5.359h-1v-2.679h1Zm0-5.357-1,0v-2.678h1Zm0-5.358-1,0v-2.68h1Zm0-5.362h-1l0-2.669,1-.008Zm.007-5.355-1,0,0-2.681,1,0Zm.006-5.362-1,0,0-2.68,1,0Zm.013-5.359-1,0,.007-2.664,1-.014Zm.013-5.357-1-.006.009-2.679,1,0Zm.018-5.358-1-.006.01-2.687,1,0Zm.02-5.374-1-.006.011-2.683,1,0Zm.024-5.365-1,0,.013-2.68,1,.006Zm.028-5.354-1,0,.015-2.675,1,.006Zm.03-5.346-1-.008.018-2.68,1,.008Zm.036-5.358-1-.007.021-2.641.5-.037.5.042Zm.04-5.361-1-.007.024-2.681,1,.007Zm.048-5.356-1-.008.025-2.682,1,.01Zm.054-5.361-1-.011.028-2.679,1,.01Zm.057-5.355-1-.011.032-2.683,1,.014Zm.068-5.361-1-.014.037-2.681,1,.016Zm.074-5.357-1-.015.041-2.681,1,.015Zm.089-5.361-1-.015.048-2.681,1,.018Zm.1-5.356-1-.021.057-2.681,1,.023Zm.118-5.359-1-.025.069-2.68,1,.025Zm.143-5.357-1-.029.083-2.684,1,.035Zm.178-5.358-1-.031q.043-1.341.065-2.669l1,.016Q1138.068,5650.706,1138.024,5652.055Zm.088-5.37h-1v-.143q0-1.269-.02-2.529l1-.013c.011.841.018,1.69.019,2.541Zm-1.078-5.341c-.026-.894-.06-1.786-.1-2.668l1-.045q.06,1.334.1,2.685Zm-.241-5.336q-.083-1.342-.181-2.665l1-.076q.1,1.332.18,2.681Zm-.4-5.33q-.122-1.34-.259-2.658l.994-.1q.139,1.324.259,2.674Zm-.555-5.312q-.16-1.338-.336-2.65l.992-.133q.175,1.319.336,2.666Zm-.705-5.3q-.2-1.334-.409-2.64l.986-.161q.213,1.311.413,2.655Zm-.855-5.276q-.236-1.331-.483-2.629l.981-.186q.25,1.3.486,2.641Zm-1-5.251q-.273-1.325-.556-2.615l.976-.213q.284,1.293.558,2.628Zm-1.146-5.221q-.309-1.326-.626-2.6l.971-.24q.317,1.278.628,2.612Zm-1.289-5.188q-.347-1.321-.7-2.579l.963-.268q.351,1.264.7,2.592Zm-1.431-5.151q-.389-1.32-.771-2.561l.955-.293q.383,1.246.773,2.573Zm-1.578-5.106q-.433-1.328-.845-2.538l.945-.322c.276.81.562,1.659.851,2.55Zm-1.73-5.059c-.327-.9-.639-1.742-.931-2.506l.935-.356q.44,1.154.936,2.524Zm-1.907-4.994c-.444-1.094-.8-1.922-1.034-2.459l.914-.4c.239.546.6,1.38,1.047,2.488Zm-.411-5.273h-1v-2.679h1Zm-.015-5.311-.985-.107.014-.136.63-2.525.97.243Zm1.276-5.125-.97-.242.647-2.6.971.243Zm1.3-5.2-.971-.242.647-2.6.971.243Zm1.295-5.2-.971-.242.647-2.6.971.243Zm1.295-5.2-.97-.242.647-2.6.97.243Zm1.293-5.2-.97-.242.648-2.6.971.242Zm1.3-5.2-.971-.242.648-2.6.971.242Zm1.295-5.2-.971-.243.648-2.6.971.243Zm1.295-5.2-.97-.242.648-2.6.97.243Zm1.295-5.2-.97-.242.647-2.6.971.244Zm1.3-5.2-.971-.242.647-2.6.971.243Zm1.294-5.2-.971-.242.647-2.6.971.243Zm1.295-5.2-.97-.243.647-2.6.97.242Zm1.3-5.2-.971-.242.647-2.6.971.242Zm1.295-5.2-.971-.242.647-2.6.971.242Zm1.293-5.2-.971-.242.649-2.6.97.242Zm1.295-5.2-.97-.242.648-2.6.97.243Zm1.3-5.2-.971-.242.648-2.6.971.243Zm1.295-5.2-.971-.242.648-2.6.971.243Zm1.295-5.2-.971-.242.647-2.6.971.243Zm1.294-5.2-.97-.242.647-2.6.97.242Zm1.3-5.2-.971-.242.647-2.6.971.242Zm1.295-5.2-.971-.242.647-2.6.971.242Zm1.295-5.2-.97-.242.647-2.6.97.242Z" transform="translate(-1122.79 -5442.029)" fill="#999"/>
            <path id="Trazado_107647" data-name="Trazado 107647" d="M1134.254,5774.135l-.005-1.327,1,0,.005,1.325Z" transform="translate(-1121.11 -5394.098)" fill="#999"/>
          </g>
          <g id="Grupo_55867" data-name="Grupo 55867" transform="translate(43.701 149.873)" opacity="0.39">
            <path id="Trazado_107648" data-name="Trazado 107648" d="M1159.54,5924.5s-7.462,13.555-60.3,3.474-54.694-20.511-54.694-20.511l.961-87.359V5672.345s-3.413-42.759,5.537-67.122c0,0,9.383-25.474,16.446-44.584,1.267-3.431-.612-3.858,0-7.029,1.352-7.012-1.743-15.847-1.743-17.5,0,0,22.6-3.979,31.407.425s41.947-.464,41.947-.464h20.377s-6.129,3.2-5.665,19.886c.247,8.895,9.749,24.673,12.33,48.02,2.26,20.445,0,54.462,0,54.462l-2.493,102.436-2.618,59.228-1.373,58.374S1158.15,5918.242,1159.54,5924.5Z" transform="translate(-1043.887 -5533.787)" fill="#999"/>
            <path id="Trazado_107649" data-name="Trazado 107649" d="M1133.11,5932.463c-8.476,0-19.531-1.005-33.914-3.75-52.686-10.05-55.146-20.6-55.225-21.046l.951-87.485V5672.43c-.033-.376-3.321-43.13,5.577-67.352,0,0,9.384-25.473,16.446-44.585a4.856,4.856,0,0,0,.153-3.5,6.9,6.9,0,0,1-.182-3.429c.971-5.026-.407-11.01-1.229-14.585a16.683,16.683,0,0,1-.525-2.787.667.667,0,0,1,.552-.656c.932-.164,22.92-3.964,31.82.483,8.521,4.265,41.224-.477,41.554-.526l20.472-.007a.666.666,0,0,1,.308,1.256c-.052.029-5.749,3.333-5.307,19.277.1,3.609,1.791,8.452,3.932,14.583,3.066,8.778,6.881,19.7,8.393,33.382,2.24,20.27.025,54.239,0,54.58l-2.49,102.409-2.617,59.241-1.374,58.359c-.015.407-1.488,39.759-.133,45.863a.666.666,0,0,1-.065.466C1159.979,5925.323,1155.693,5932.463,1133.11,5932.463Zm-87.816-25c.275.759,4.777,10.526,54.152,19.944,48.072,9.175,58.274-1.424,59.468-2.964-1.292-7.075.1-44.3.161-45.9l1.373-58.365,2.619-59.241,2.49-102.423c.024-.368,2.232-34.221,0-54.374-1.5-13.527-5.283-24.374-8.327-33.089-2.18-6.239-3.9-11.168-4.006-14.984-.331-11.9,2.657-17.136,4.548-19.239h-18.593c-1.265.193-33.355,4.839-42.245.394-7.708-3.852-26.7-1.054-30.374-.466.087.484.245,1.173.42,1.933.847,3.679,2.265,9.834,1.242,15.137a5.6,5.6,0,0,0,.163,2.839,6.1,6.1,0,0,1-.193,4.3c-7.062,19.11-16.445,44.583-16.445,44.583-8.8,23.944-5.532,66.413-5.5,66.838l0,147.812Z" transform="translate(-1043.971 -5533.874)" fill="#4d4d4d"/>
          </g>
          <g id="Grupo_55868" data-name="Grupo 55868" transform="translate(44.059 160.715)">
            <path id="Trazado_107650" data-name="Trazado 107650" d="M1100.8,5554.9c-.985,0-1.983,0-3-.013-38.712-.3-52.132-10.341-52.683-10.768l.611-.791c.133.1,13.769,10.262,52.08,10.561,33.992.261,50.139-4.028,50.3-4.07l.263.962C1148.211,5550.825,1132.886,5554.9,1100.8,5554.9Z" transform="translate(-1044.161 -5543.33)" fill="#999"/>
            <path id="Trazado_107651" data-name="Trazado 107651" d="M1101.536,5563.008q-1.816,0-3.628-.051c-36.242-1.029-53.455-13.491-53.626-13.617l.6-.8c.166.125,17.162,12.4,53.058,13.42,24.97.708,51.179-6.312,51.441-6.385l.26.967C1149.389,5556.607,1125.491,5563.008,1101.536,5563.008Z" transform="translate(-1044.283 -5542.566)" fill="#999"/>
            <path id="Trazado_107652" data-name="Trazado 107652" d="M1097.31,5562.1l-3.883-2.888,2.9-2.959-3.481-2.809.627-.778,4.337,3.5-2.871,2.928,2.963,2.2Z" transform="translate(-1037.162 -5541.961)" fill="#999"/>
            <path id="Trazado_107653" data-name="Trazado 107653" d="M1101.994,5562.1l-3.886-2.888,2.9-2.959-3.481-2.809.627-.778,4.338,3.5-2.871,2.928,2.964,2.2Z" transform="translate(-1036.475 -5541.961)" fill="#999"/>
            <path id="Trazado_107654" data-name="Trazado 107654" d="M1106.7,5561.842l-3.626-2.81,2.706-2.877-3.239-2.725.643-.766,4.049,3.407-2.677,2.844,2.756,2.135Z" transform="translate(-1035.74 -5541.961)" fill="#999"/>
            <path id="Trazado_107655" data-name="Trazado 107655" d="M1111.468,5561.265l-3.65-2.664,2.7-2.7-3.188-2.526.622-.784,4.065,3.225-2.663,2.665,2.706,1.977Z" transform="translate(-1035.039 -5541.972)" fill="#999"/>
            <path id="Trazado_107656" data-name="Trazado 107656" d="M1115.732,5560.732l-3.648-2.663,2.694-2.7-3.188-2.527.622-.783,4.066,3.225-2.663,2.666,2.705,1.976Z" transform="translate(-1034.414 -5542.05)" fill="#999"/>
            <path id="Trazado_107657" data-name="Trazado 107657" d="M1072.319,5560.429l-3.527-3.091,3.273-2.63-3.071-2.925.69-.724,3.9,3.714-3.234,2.6,2.631,2.3Z" transform="translate(-1040.689 -5542.196)" fill="#999"/>
            <path id="Trazado_107658" data-name="Trazado 107658" d="M1076.986,5560.911l-3.527-3.091,3.273-2.63-3.071-2.925.69-.723,3.9,3.714-3.234,2.6,2.631,2.305Z" transform="translate(-1040.005 -5542.126)" fill="#999"/>
            <path id="Trazado_107659" data-name="Trazado 107659" d="M1081.7,5561.536l-3.527-3.091,3.273-2.63-3.071-2.925.69-.723,3.9,3.713-3.234,2.6,2.631,2.305Z" transform="translate(-1039.314 -5542.034)" fill="#999"/>
            <path id="Trazado_107660" data-name="Trazado 107660" d="M1058.4,5557.147l-3.527-3.091,3.273-2.63-3.071-2.925.69-.724,3.9,3.714-3.234,2.6,2.631,2.3Z" transform="translate(-1042.729 -5542.678)" fill="#999"/>
            <path id="Trazado_107661" data-name="Trazado 107661" d="M1053.639,5555.15l-3.527-3.09,3.273-2.631-3.071-2.925.69-.724,3.9,3.714-3.234,2.6,2.631,2.3Z" transform="translate(-1043.428 -5542.971)" fill="#999"/>
            <path id="Trazado_107662" data-name="Trazado 107662" d="M1049.589,5553.62l-3.525-3.089,3.273-2.63-3.071-2.925.69-.724,3.9,3.714-3.234,2.6,2.63,2.3Z" transform="translate(-1044.022 -5543.195)" fill="#999"/>
            <path id="Trazado_107663" data-name="Trazado 107663" d="M1063.044,5558.5l-3.527-3.09,3.273-2.63-3.071-2.925.69-.723,3.9,3.713-3.234,2.6,2.631,2.305Z" transform="translate(-1042.049 -5542.479)" fill="#999"/>
            <path id="Trazado_107664" data-name="Trazado 107664" d="M1067.467,5559.422l-3.525-3.09,3.272-2.629-3.07-2.926.69-.724,3.9,3.714-3.235,2.6,2.63,2.305Z" transform="translate(-1041.4 -5542.344)" fill="#999"/>
            <path id="Trazado_107665" data-name="Trazado 107665" d="M1086.448,5561.951l-3.527-3.091,3.273-2.629-3.07-2.926.69-.723,3.9,3.714-3.234,2.6,2.631,2.3Z" transform="translate(-1038.617 -5541.974)" fill="#999"/>
            <path id="Trazado_107666" data-name="Trazado 107666" d="M1091.1,5562.041l-3.525-3.09,3.273-2.63-3.071-2.926.69-.724,3.9,3.714-3.234,2.6,2.63,2.3Z" transform="translate(-1037.936 -5541.96)" fill="#999"/>
            <path id="Trazado_107667" data-name="Trazado 107667" d="M1124.508,5558.943l-3.942-2.288,2.813-2.24-3.184-2,.534-.846,4.374,2.757-2.769,2.2,2.677,1.554Z" transform="translate(-1033.152 -5542.123)" fill="#999"/>
            <path id="Trazado_107668" data-name="Trazado 107668" d="M1128.751,5558.17l-3.942-2.288,2.812-2.239-3.183-2.006.534-.846,4.373,2.757-2.768,2.2,2.677,1.554Z" transform="translate(-1032.53 -5542.236)" fill="#999"/>
            <path id="Trazado_107669" data-name="Trazado 107669" d="M1133.084,5557.374l-3.941-2.288,2.812-2.24-3.183-2.005.534-.846,4.373,2.757-2.768,2.2,2.676,1.554Z" transform="translate(-1031.894 -5542.353)" fill="#999"/>
            <path id="Trazado_107670" data-name="Trazado 107670" d="M1119.622,5559.431l-3.751-2.338,2.7-2.3-3.079-2.085.56-.828,4.167,2.819-2.656,2.271,2.592,1.618Z" transform="translate(-1033.842 -5542.077)" fill="#999"/>
          </g>
          <g id="Grupo_55869" data-name="Grupo 55869" transform="translate(43.914 256.79)">
            <path id="Trazado_107671" data-name="Trazado 107671" d="M1047,5630.066a20.821,20.821,0,0,1-2.846-1.947l.882-1a19.783,19.783,0,0,0,2.646,1.8Z" transform="translate(-1044.157 -5627.119)" fill="#666"/>
            <path id="Trazado_107672" data-name="Trazado 107672" d="M1118.808,5642.341l-.013-1.333q3.292-.029,6.757-.129l.039,1.333Q1122.11,5642.312,1118.808,5642.341Zm-6.786-.011q-3.5-.043-6.784-.161l.047-1.333q3.27.116,6.751.161Zm20.348-.376-.063-1.33q3.3-.154,6.748-.374l.086,1.329Q1135.68,5641.8,1132.37,5641.954Zm-33.91-.117c-2.269-.14-4.547-.313-6.77-.515l.12-1.328c2.21.2,4.475.374,6.733.513Zm47.442-.77-.1-1.33,6.751-.516.1,1.328Zm-60.964-.47c-2.273-.282-4.535-.6-6.727-.961l.214-1.314c2.175.352,4.422.672,6.677.952Zm-13.413-2.191c-2.276-.472-4.505-.993-6.625-1.548l.338-1.289c2.1.549,4.3,1.065,6.557,1.533Zm-13.156-3.477c-2.274-.756-4.423-1.565-6.388-2.408l.526-1.226c1.93.829,4.043,1.626,6.28,2.369Z" transform="translate(-1043.01 -5626.507)" fill="#666"/>
            <rect id="Rectángulo_9949" data-name="Rectángulo 9949" width="3.332" height="1.333" transform="translate(116.323 12.191) rotate(-4.369)" fill="#666"/>
          </g>
          <g id="Grupo_55870" data-name="Grupo 55870" transform="translate(72.71 257.29)">
            <path id="Trazado_107673" data-name="Trazado 107673" d="M1079.294,5637.286l-6.045-4.235-2.794.859s-1.186.4-1.184-.74l2.309-4.666s1.124-2,2.038-.195l.906,3.291,5.5,4.249.89,1.526Z" transform="translate(-1069.27 -5627.555)" fill="#666"/>
          </g>
          <g id="Grupo_55871" data-name="Grupo 55871" transform="translate(110.835 260.027)">
            <path id="Trazado_107674" data-name="Trazado 107674" d="M1112.544,5639.673l-6.045-4.236-2.794.859s-1.184.4-1.184-.74l2.309-4.666s1.124-2,2.037-.195l.907,3.291,5.5,4.248.89,1.526Z" transform="translate(-1102.52 -5629.942)" fill="#666"/>
          </g>
          <g id="Grupo_55872" data-name="Grupo 55872" transform="translate(139.677 260.027)">
            <path id="Trazado_107675" data-name="Trazado 107675" d="M1137.7,5639.673l-6.044-4.236-2.794.859s-1.186.4-1.186-.74l2.311-4.666s1.123-2,2.036-.195l.907,3.291,5.5,4.248.891,1.526Z" transform="translate(-1127.674 -5629.942)" fill="#666"/>
          </g>
          <g id="Grupo_55873" data-name="Grupo 55873" transform="translate(66.887 166.775)">
            <path id="Trazado_107676" data-name="Trazado 107676" d="M1065.812,5558.346l6.044-4.236,2.794.858s1.186.4,1.186-.738l-2.31-4.667s-1.123-2-2.036-.193l-.907,3.29-5.5,4.249-.891,1.527Z" transform="translate(-1064.192 -5548.615)" fill="#666"/>
          </g>
          <g id="Grupo_55874" data-name="Grupo 55874" transform="translate(92.877 169.377)">
            <path id="Trazado_107677" data-name="Trazado 107677" d="M1088.478,5560.615l6.044-4.236,2.794.859s1.186.4,1.186-.74l-2.31-4.666s-1.124-2-2.036-.195l-.907,3.291-5.5,4.249-.891,1.526Z" transform="translate(-1086.858 -5550.884)" fill="#666"/>
          </g>
          <g id="Grupo_55875" data-name="Grupo 55875" transform="translate(117.787 162.816)">
            <path id="Trazado_107678" data-name="Trazado 107678" d="M1110.2,5554.894l6.045-4.236,2.794.859s1.186.4,1.185-.739l-2.309-4.667s-1.124-2-2.037-.194l-.907,3.291-5.5,4.249-.89,1.526Z" transform="translate(-1108.583 -5545.163)" fill="#666"/>
          </g>
          <g id="Grupo_55876" data-name="Grupo 55876" transform="translate(129.131 159.944)">
            <path id="Trazado_107679" data-name="Trazado 107679" d="M1125.829,5554.339l-3.6-6.443-2.89-.443s-1.24-.158-.745-1.18l4.108-3.2s1.882-1.312,1.919.711l-.615,3.357,3.105,6.217.138,1.761Z" transform="translate(-1118.476 -5542.657)" fill="#666"/>
          </g>
          <g id="Grupo_55877" data-name="Grupo 55877" transform="translate(147.53 161.935)">
            <path id="Trazado_107680" data-name="Trazado 107680" d="M1136.133,5552.876l6.677-3.146,2.608,1.323s1.1.593,1.293-.526l-1.48-4.991s-.767-2.161-1.974-.538l-1.455,3.087-6.143,3.25-1.136,1.352Z" transform="translate(-1134.522 -5544.394)" fill="#666"/>
          </g>
          <g id="Grupo_55878" data-name="Grupo 55878" transform="translate(35.004 406.771)">
            <path id="Trazado_107681" data-name="Trazado 107681" d="M1046.41,5767.652l-6.045-4.237-2.794.859s-1.184.4-1.184-.738l2.309-4.667s1.124-2,2.038-.194l.907,3.291,5.5,4.248.89,1.526Z" transform="translate(-1036.386 -5757.92)" fill="#666"/>
          </g>
          <g id="Grupo_55879" data-name="Grupo 55879" transform="translate(137.53 411.146)">
            <path id="Trazado_107682" data-name="Trazado 107682" d="M1135.825,5771.468l-6.045-4.236-2.794.859s-1.184.4-1.184-.74l2.309-4.665s1.124-2,2.038-.195l.907,3.291,5.5,4.249.89,1.526Z" transform="translate(-1125.801 -5761.736)" fill="#666"/>
          </g>
          <g id="Grupo_55880" data-name="Grupo 55880" transform="translate(137.267 321.406)">
            <path id="Trazado_107683" data-name="Trazado 107683" d="M1135.6,5693.2l-6.045-4.235-2.794.859s-1.184.4-1.184-.74l2.309-4.666s1.124-2,2.037-.195l.907,3.291,5.5,4.249.89,1.526Z" transform="translate(-1125.572 -5683.472)" fill="#666"/>
          </g>
        </g>
      </g>
    </g>
  </g>
</svg>
