<svg xmlns="http://www.w3.org/2000/svg" width="217.424" height="543.002" viewBox="0 0 217.424 543.002">
  <g id="Grupo_55980" data-name="Grupo 55980" transform="translate(-530.289 -6983.955)">
    <rect id="Rectángulo_10004" data-name="Rectángulo 10004" width="217.424" height="543.001" rx="19.321" transform="translate(530.289 6983.955)" fill="#fff"/>
    <g id="Grupo_55979" data-name="Grupo 55979">
      <g id="Grupo_55963" data-name="Grupo 55963">
        <path id="Trazado_107906" data-name="Trazado 107906" d="M720.157,7395.216c0-.028.005-.055.007-.084h-.008l-1.464-85.456s-.2-34.62-9.724-51.541l-7.2-17.894v-6.029l6.518-40.713,8.862-40.543v-16.077s2.886-7.916,3.127-20.9-.962-18.18-2.887-23.5l-18.518-6.679-14.271-5.07s-11.865-2.8-11.384-17.149l-.8-22.591-15.031,3.1-15.033-3.1.081,22.549c.481,14.347-12.267,17.191-12.267,17.191L615.9,7085.8l-17.919,4.947c-1.924,5.319-3.728,12.244-3.488,25.23s3.127,20.9,3.127,20.9v16.077l8.863,40.543,1.292,5.91,7.448,34.8v7s-13.225,28.007-14.586,50.374v102.148c0,.106,0,.224,0,.349l1.958,8.56c3.229,6.916,11.678,14.738,33.575,13.237l41.3.051s32.594,4.287,40.861-13.288Z" fill="#fff"/>
        <path id="Trazado_107907" data-name="Trazado 107907" d="M685.7,7416.74a72.255,72.255,0,0,1-8.288-.435l-41.248-.048c-22.126,1.513-30.657-6.477-33.914-13.454l-1.984-8.634-.009-.438V7291.588c1.315-21.632,13.819-48.809,14.586-50.458v-6.919l-8.732-40.633-8.862-40.543-.009-16.092c-.273-.787-2.9-8.669-3.127-20.958-.242-13.131,1.639-20.191,3.511-25.365l.066-.181,18.1-5,14.244-5.063c.551-.127,12.482-2.966,12.017-16.824l-.082-23.023,15.408,3.18,15.391-3.176.817,23.035c-.464,13.884,10.624,16.684,11.1,16.8l14.31,5.082,18.686,6.739.06.165c2.065,5.705,3.14,11.161,2.909,23.633-.228,12.289-2.854,20.171-3.127,20.958v16.012l-8.871,40.624-6.514,40.692.005,5.9,7.17,17.827c9.446,16.767,9.749,51.331,9.751,51.679l1.457,85.083h.033l-.036.549-1.832,7.429C713.019,7414.8,696.033,7416.74,685.7,7416.74Zm-49.561-1.232,41.322.05c.372.044,32.466,4.053,40.522-13.072l1.8-7.315,0-.032-1.463-85.456c0-.35-.3-34.723-9.676-51.364l-7.245-18.077v-6.031l6.523-40.771,8.865-40.565-.008-16.063.022-.062c.029-.079,2.869-8.016,3.105-20.779.227-12.234-.81-17.637-2.8-23.2l-18.353-6.619-14.269-5.07c-.082-.017-12.118-3.029-11.633-17.514l-.786-22.122-14.673,3.028-14.655-3.025.079,22.088c.485,14.479-12.429,17.529-12.56,17.558l-14.226,5.058-17.757,4.9c-1.826,5.094-3.637,12.059-3.4,24.913.237,12.763,3.076,20.7,3.1,20.779l.022.128v16.077l10.146,46.374,7.449,34.8.008,7.164-.035.076c-.133.28-13.211,28.2-14.552,50.238v102.47l1.948,8.48C606.089,7409.249,614.41,7416.993,636.141,7415.508Z" fill="#999"/>
      </g>
      <g id="Grupo_55964" data-name="Grupo 55964">
        <path id="Trazado_107908" data-name="Trazado 107908" d="M700.02,7241.716l-2.24-2.64,2.1-2.272-2-2.564.722-.562,2.476,3.176L699,7239.1l1.716,2.023Z" fill="#999"/>
        <path id="Trazado_107909" data-name="Trazado 107909" d="M697.5,7241.716l-2.24-2.64,2.1-2.272-2-2.564.722-.562,2.476,3.176-2.078,2.248,1.716,2.023Z" fill="#999"/>
        <path id="Trazado_107910" data-name="Trazado 107910" d="M694.978,7241.716l-2.24-2.64,2.1-2.272-2-2.564.722-.562,2.476,3.176-2.078,2.248,1.716,2.023Z" fill="#999"/>
        <path id="Trazado_107911" data-name="Trazado 107911" d="M692.457,7241.716l-2.24-2.64,2.1-2.272-2-2.564.722-.562,2.476,3.176-2.078,2.248,1.716,2.023Z" fill="#999"/>
        <path id="Trazado_107912" data-name="Trazado 107912" d="M689.935,7241.716l-2.24-2.64,2.1-2.272-2-2.564.722-.562,2.476,3.176-2.078,2.248,1.716,2.023Z" fill="#999"/>
        <path id="Trazado_107913" data-name="Trazado 107913" d="M687.414,7241.716l-2.24-2.64,2.1-2.272-2-2.564.722-.562,2.476,3.176L686.4,7239.1l1.716,2.023Z" fill="#999"/>
        <path id="Trazado_107914" data-name="Trazado 107914" d="M684.893,7241.716l-2.24-2.64,2.1-2.272-2-2.564.722-.562,2.476,3.176-2.078,2.248,1.716,2.023Z" fill="#999"/>
        <path id="Trazado_107915" data-name="Trazado 107915" d="M682.372,7241.716l-2.24-2.64,2.1-2.272-2-2.564.722-.562,2.476,3.176-2.078,2.248,1.716,2.023Z" fill="#999"/>
        <path id="Trazado_107916" data-name="Trazado 107916" d="M679.851,7241.716l-2.24-2.64,2.1-2.272-2-2.564.722-.562,2.476,3.176-2.078,2.248,1.716,2.023Z" fill="#999"/>
        <path id="Trazado_107917" data-name="Trazado 107917" d="M677.33,7241.716l-2.24-2.64,2.1-2.272-2-2.564.722-.562,2.476,3.176-2.078,2.248,1.716,2.023Z" fill="#999"/>
        <path id="Trazado_107918" data-name="Trazado 107918" d="M674.809,7241.716l-2.24-2.64,2.1-2.272-2-2.564.722-.562,2.476,3.176-2.078,2.248,1.716,2.023Z" fill="#999"/>
        <path id="Trazado_107919" data-name="Trazado 107919" d="M672.288,7241.716l-2.24-2.64,2.1-2.272-2-2.564.722-.562,2.476,3.176-2.078,2.248,1.716,2.023Z" fill="#999"/>
        <path id="Trazado_107920" data-name="Trazado 107920" d="M669.767,7241.716l-2.24-2.64,2.1-2.272-2-2.564.722-.562,2.476,3.176-2.078,2.248,1.716,2.023Z" fill="#999"/>
        <path id="Trazado_107921" data-name="Trazado 107921" d="M667.246,7241.716l-2.24-2.64,2.1-2.272-2-2.564.722-.562,2.476,3.176-2.078,2.248,1.716,2.023Z" fill="#999"/>
        <path id="Trazado_107922" data-name="Trazado 107922" d="M664.725,7241.716l-2.24-2.64,2.1-2.272-2-2.564.722-.562,2.476,3.176-2.078,2.248,1.716,2.023Z" fill="#999"/>
        <path id="Trazado_107923" data-name="Trazado 107923" d="M662.2,7241.716l-2.24-2.64,2.1-2.272-2-2.564.722-.562,2.476,3.176-2.078,2.248,1.716,2.023Z" fill="#999"/>
        <path id="Trazado_107924" data-name="Trazado 107924" d="M659.683,7241.716l-2.24-2.64,2.1-2.272-2-2.564.722-.562,2.476,3.176-2.078,2.248,1.716,2.023Z" fill="#999"/>
        <path id="Trazado_107925" data-name="Trazado 107925" d="M657.162,7241.716l-2.24-2.64,2.1-2.272-2-2.564.722-.562,2.476,3.176-2.078,2.248,1.716,2.023Z" fill="#999"/>
        <path id="Trazado_107926" data-name="Trazado 107926" d="M654.641,7241.716l-2.24-2.64,2.1-2.272-2-2.564.722-.562,2.476,3.176-2.078,2.248,1.716,2.023Z" fill="#999"/>
        <path id="Trazado_107927" data-name="Trazado 107927" d="M652.12,7241.716l-2.24-2.64,2.1-2.272-2-2.564.722-.562,2.476,3.176L651.1,7239.1l1.716,2.023Z" fill="#999"/>
        <path id="Trazado_107928" data-name="Trazado 107928" d="M649.6,7241.716l-2.24-2.64,2.1-2.272-2-2.564.722-.562,2.476,3.176-2.078,2.248,1.716,2.023Z" fill="#999"/>
        <path id="Trazado_107929" data-name="Trazado 107929" d="M647.078,7241.716l-2.24-2.64,2.1-2.272-2-2.564.722-.562,2.476,3.176-2.078,2.248,1.716,2.023Z" fill="#999"/>
        <path id="Trazado_107930" data-name="Trazado 107930" d="M644.557,7241.716l-2.24-2.64,2.1-2.272-2-2.564.722-.562,2.476,3.176-2.078,2.248,1.716,2.023Z" fill="#999"/>
        <path id="Trazado_107931" data-name="Trazado 107931" d="M642.036,7241.716l-2.24-2.64,2.1-2.272-2-2.564.722-.562,2.476,3.176-2.078,2.248,1.716,2.023Z" fill="#999"/>
        <path id="Trazado_107932" data-name="Trazado 107932" d="M639.515,7241.716l-2.24-2.64,2.1-2.272-2-2.564.722-.562,2.476,3.176L638.5,7239.1l1.716,2.023Z" fill="#999"/>
        <path id="Trazado_107933" data-name="Trazado 107933" d="M636.994,7241.716l-2.24-2.64,2.1-2.272-2-2.564.722-.562,2.476,3.176-2.078,2.248,1.716,2.023Z" fill="#999"/>
        <path id="Trazado_107934" data-name="Trazado 107934" d="M634.473,7241.716l-2.24-2.64,2.1-2.272-2-2.564.722-.562,2.476,3.176-2.078,2.248,1.716,2.023Z" fill="#999"/>
        <path id="Trazado_107935" data-name="Trazado 107935" d="M631.952,7241.716l-2.24-2.64,2.1-2.272-2-2.564.722-.562,2.476,3.176-2.078,2.248,1.716,2.023Z" fill="#999"/>
        <path id="Trazado_107936" data-name="Trazado 107936" d="M629.431,7241.716l-2.24-2.64,2.1-2.272-2-2.564.722-.562,2.476,3.176-2.078,2.248,1.716,2.023Z" fill="#999"/>
        <path id="Trazado_107937" data-name="Trazado 107937" d="M626.91,7241.716l-2.24-2.64,2.1-2.272-2-2.564.722-.562,2.476,3.176-2.078,2.248,1.716,2.023Z" fill="#999"/>
        <path id="Trazado_107938" data-name="Trazado 107938" d="M624.389,7241.716l-2.24-2.64,2.1-2.272-2-2.564.722-.562,2.476,3.176-2.078,2.248,1.716,2.023Z" fill="#999"/>
        <path id="Trazado_107939" data-name="Trazado 107939" d="M621.868,7241.716l-2.24-2.64,2.1-2.272-2-2.564.722-.562,2.476,3.176-2.078,2.248,1.716,2.023Z" fill="#999"/>
        <path id="Trazado_107940" data-name="Trazado 107940" d="M619.347,7241.716l-2.24-2.64,2.1-2.272-2-2.564.722-.562,2.476,3.176-2.078,2.248,1.716,2.023Z" fill="#999"/>
        <path id="Trazado_107941" data-name="Trazado 107941" d="M616.826,7241.716l-2.24-2.64,2.1-2.272-2-2.564.722-.562,2.476,3.176-2.078,2.248,1.716,2.023Z" fill="#999"/>
      </g>
      <path id="Trazado_107942" data-name="Trazado 107942" d="M656.139,7055.193c-10.724,0-14.007-4.147-14.151-4.334l.8-.608c.035.044,3.625,4.467,15.538,3.886,11.828-.591,13.906-5.088,13.926-5.134l.924.384c-.086.209-2.241,5.122-14.8,5.748Q657.206,7055.193,656.139,7055.193Z" fill="#999"/>
      <rect id="Rectángulo_10005" data-name="Rectángulo 10005" width="115.979" height="1" transform="translate(599.132 7159.384)" fill="#999"/>
      <rect id="Rectángulo_10006" data-name="Rectángulo 10006" width="119.212" height="1" transform="translate(597.618 7152.457)" fill="#999"/>
      <rect id="Rectángulo_10007" data-name="Rectángulo 10007" width="1" height="40.728" transform="translate(656.889 7159.884)" fill="#999"/>
      <path id="Trazado_107943" data-name="Trazado 107943" d="M694.868,7152.961l-1-.01.446-45.017c1.175-19.473.41-23.185.377-23.333l.973-.228c.035.148.842,3.838-.351,23.6Z" fill="#999"/>
      <path id="Trazado_107944" data-name="Trazado 107944" d="M696.409,7402.662c-.016-.437-1.567-44.3-2.541-90.641-.971-46.231-12.464-70.544-12.58-70.784l-.05-.218v-7l5.959-32.737,6.678-41.475.987.158-6.68,41.486-5.952,32.658.008,6.8c.832,1.8,11.687,26.2,12.63,71.091.974,46.333,2.525,90.191,2.54,90.628Z" fill="#999"/>
      <path id="Trazado_107945" data-name="Trazado 107945" d="M622.306,7402.647l-.194-41.039c-.01-.341-.96-35.5.194-60.319,1.132-24.331,10.959-58.376,11.475-60.147v-7.463l-6.71-32.968-6.507-40.748.987-.158,6.5,40.728,6.726,33.095-.021,7.727c-.1.349-10.3,35.24-11.455,59.981-1.152,24.783-.2,59.905-.193,60.256l.194,41.051Z" fill="#999"/>
      <rect id="Rectángulo_10008" data-name="Rectángulo 10008" width="1" height="354.989" transform="translate(657.192 7047.673) rotate(-0.494)" fill="#999"/>
      <path id="Trazado_107946" data-name="Trazado 107946" d="M621.1,7152.961l-.446-45.017c-1.192-19.733-.386-23.423-.351-23.571l.974.228c-.033.148-.8,3.86.376,23.308l.447,45.042Z" fill="#999"/>
      <path id="Trazado_107947" data-name="Trazado 107947" d="M657.84,7090.218c-15.185,0-19.678-14.454-19.721-14.6l.958-.287c.042.14,4.336,13.887,18.764,13.887h.124c14.519-.079,18.188-13.308,18.337-13.871l.967.255c-.038.145-4,14.533-19.3,14.616Z" fill="#999"/>
      <path id="Trazado_107948" data-name="Trazado 107948" d="M694.447,7156.85l3.687-4.045,2.161.169s.922.095.737-.727l-2.427-3s-1.137-1.264-1.505.189l-.123,2.528-3.29,3.965-.4,1.248Z" fill="#666"/>
      <path id="Trazado_107949" data-name="Trazado 107949" d="M621.483,7156.85l-3.687-4.045-2.161.169s-.922.095-.737-.727l2.427-3s1.137-1.264,1.505.189l.123,2.528,3.29,3.965.4,1.248Z" fill="#666"/>
      <g id="Grupo_55965" data-name="Grupo 55965" opacity="0.33">
        <line id="Línea_228" data-name="Línea 228" x2="86.064" transform="translate(615.22 7234.211)" fill="#fff"/>
        <rect id="Rectángulo_10009" data-name="Rectángulo 10009" width="86.064" height="1" transform="translate(615.22 7233.711)"/>
      </g>
      <g id="Grupo_55966" data-name="Grupo 55966" opacity="0.33">
        <line id="Línea_229" data-name="Línea 229" x2="86.064" transform="translate(615.22 7241.214)" fill="#fff"/>
        <rect id="Rectángulo_10010" data-name="Rectángulo 10010" width="86.064" height="1" transform="translate(615.22 7240.714)"/>
      </g>
      <path id="Trazado_107950" data-name="Trazado 107950" d="M598.71,7137l-.966-.259c3.807-14.109.342-45.241.307-45.553l.993-.114C599.08,7091.391,602.566,7122.712,598.71,7137Z" opacity="0.33"/>
      <path id="Trazado_107951" data-name="Trazado 107951" d="M716.438,7137c-3.856-14.293-.052-44.452-.013-44.755l.992.127c-.039.3-3.818,30.265-.013,44.369Z" opacity="0.33"/>
      <rect id="Rectángulo_10011" data-name="Rectángulo 10011" width="11.826" height="73.662" transform="translate(654.14 7416.394)" fill="#404040"/>
      <path id="Trazado_107952" data-name="Trazado 107952" d="M653.015,7466.732c-21.334,0-39.435-.213-44.566-5.763a5.528,5.528,0,0,1-1.5-4.343c.525-6.653,17.852-10.026,51.5-10.026,28.176,0,51.5.758,51.5,10.065,0,10.065-22.728,10.065-51.5,10.065h-5.43Zm5.43-19.132c-41.146,0-50.174,4.951-50.5,9.1a4.5,4.5,0,0,0,1.24,3.586c5.046,5.456,24.244,5.446,46.491,5.441h2.771c27.1,0,50.5,0,50.5-9.065C708.945,7448.293,685.057,7447.6,658.445,7447.6Z" fill="#404040"/>
      <g id="Grupo_55967" data-name="Grupo 55967">
        <rect id="Rectángulo_10012" data-name="Rectángulo 10012" width="73.736" height="1" transform="matrix(0.045, -0.999, 0.999, 0.045, 682.072, 7490.033)" fill="#404040"/>
        <rect id="Rectángulo_10013" data-name="Rectángulo 10013" width="73.801" height="1" transform="matrix(0.061, -0.998, 0.998, 0.061, 685.407, 7490.027)" fill="#404040"/>
        <rect id="Rectángulo_10014" data-name="Rectángulo 10014" width="76.18" height="1" transform="matrix(0.084, -0.996, 0.996, 0.084, 696.398, 7490.013)" fill="#404040"/>
        <rect id="Rectángulo_10015" data-name="Rectángulo 10015" width="77.934" height="1" transform="translate(699.591 7490.006) rotate(-84.395)" fill="#404040"/>
        <rect id="Rectángulo_10016" data-name="Rectángulo 10016" width="84.006" height="1" transform="matrix(0.111, -0.994, 0.994, 0.111, 705.928, 7490.003)" fill="#404040"/>
        <rect id="Rectángulo_10017" data-name="Rectángulo 10017" width="73.663" height="1" transform="translate(667.323 7490.054) rotate(-89.776)" fill="#404040"/>
        <rect id="Rectángulo_10018" data-name="Rectángulo 10018" width="73.664" height="1" transform="translate(670.048 7490.052) rotate(-89.552)" fill="#404040"/>
      </g>
      <g id="Grupo_55968" data-name="Grupo 55968">
        <rect id="Rectángulo_10019" data-name="Rectángulo 10019" width="1" height="73.736" transform="translate(632.51 7416.417) rotate(-2.568)" fill="#404040"/>
        <rect id="Rectángulo_10020" data-name="Rectángulo 10020" width="1" height="73.801" transform="translate(627.989 7416.425) rotate(-3.513)" fill="#404040"/>
        <rect id="Rectángulo_10021" data-name="Rectángulo 10021" width="1" height="76.18" transform="translate(615.108 7414.185) rotate(-4.8)" fill="#404040"/>
        <rect id="Rectángulo_10022" data-name="Rectángulo 10022" width="1" height="78.686" transform="matrix(0.995, -0.097, 0.097, 0.995, 610.626, 7411.793)" fill="#404040"/>
        <rect id="Rectángulo_10023" data-name="Rectángulo 10023" width="1" height="87.97" transform="translate(602.095 7402.701) rotate(-6.459)" fill="#404040"/>
        <rect id="Rectángulo_10024" data-name="Rectángulo 10024" width="1" height="73.663" transform="translate(650.249 7416.396) rotate(-0.27)" fill="#404040"/>
        <rect id="Rectángulo_10025" data-name="Rectángulo 10025" width="1" height="73.664" transform="translate(647.293 7416.397) rotate(-0.406)" fill="#404040"/>
      </g>
      <g id="Grupo_55969" data-name="Grupo 55969">
        <path id="Trazado_107953" data-name="Trazado 107953" d="M656.979,7363.287l4.371-3.4,2.126.539s.9.252.86-.6l-1.907-3.41s-.917-1.455-1.534-.069l-.555,2.5-3.962,3.391-.609,1.178Z" fill="#666"/>
      </g>
      <g id="Grupo_55970" data-name="Grupo 55970">
        <path id="Trazado_107954" data-name="Trazado 107954" d="M656.979,7413.226l4.371-3.4,2.126.538s.9.253.86-.6l-1.907-3.41s-.917-1.456-1.534-.069l-.555,2.5-3.962,3.392-.609,1.177Z" fill="#666"/>
      </g>
      <g id="Grupo_55971" data-name="Grupo 55971">
        <path id="Trazado_107955" data-name="Trazado 107955" d="M657.669,7300.878l4.37-3.4,2.127.538s.9.253.86-.6l-1.907-3.41s-.918-1.456-1.534-.069l-.556,2.5-3.961,3.391-.61,1.178Z" fill="#666"/>
      </g>
      <g id="Grupo_55972" data-name="Grupo 55972">
        <ellipse id="Elipse_4333" data-name="Elipse 4333" cx="15.032" cy="6.678" rx="15.032" ry="6.678" transform="translate(642.352 7034.313)" fill="#fff"/>
        <path id="Trazado_107956" data-name="Trazado 107956" d="M657.384,7048.169c-8.709,0-15.532-3.153-15.532-7.178s6.823-7.178,15.532-7.178,15.532,3.153,15.532,7.178S666.094,7048.169,657.384,7048.169Zm0-13.356c-7.877,0-14.532,2.829-14.532,6.178s6.655,6.178,14.532,6.178,14.532-2.829,14.532-6.178S665.261,7034.813,657.384,7034.813Z" fill="#999"/>
      </g>
      <g id="Grupo_55976" data-name="Grupo 55976">
        <g id="Grupo_55973" data-name="Grupo 55973">
          <path id="Trazado_107957" data-name="Trazado 107957" d="M664.485,7021.989c0-5.252-3.095-9.51-6.913-9.51s-6.913,4.258-6.913,9.51c0,4.107,1.9,7.6,4.547,8.926v9.094h5.223v-9.368C662.82,7029.145,664.485,7025.837,664.485,7021.989Z" fill="#fff"/>
          <path id="Trazado_107958" data-name="Trazado 107958" d="M660.929,7040.509h-6.223v-9.294c-2.731-1.544-4.547-5.2-4.547-9.226,0-5.52,3.326-10.01,7.413-10.01s7.413,4.49,7.413,10.01c0,3.763-1.583,7.228-4.056,8.922Zm-5.223-1h4.223v-9.143l.235-.148c2.321-1.454,3.821-4.684,3.821-8.229,0-4.968-2.877-9.01-6.413-9.01s-6.413,4.042-6.413,9.01c0,3.79,1.717,7.2,4.271,8.479l.276.139Z" fill="#999"/>
        </g>
        <g id="Grupo_55974" data-name="Grupo 55974">
          <rect id="Rectángulo_10026" data-name="Rectángulo 10026" width="16.211" height="2.78" rx="1.209" transform="translate(649.744 7023.958)" fill="#fff"/>
          <path id="Trazado_107959" data-name="Trazado 107959" d="M664.747,7027.239H650.953a1.711,1.711,0,0,1-1.709-1.709v-.363a1.711,1.711,0,0,1,1.709-1.709h13.794a1.711,1.711,0,0,1,1.708,1.709v.363A1.71,1.71,0,0,1,664.747,7027.239Zm-13.794-2.781a.71.71,0,0,0-.709.709v.363a.71.71,0,0,0,.709.709h13.794a.71.71,0,0,0,.708-.709v-.363a.71.71,0,0,0-.708-.709Z" fill="#999"/>
        </g>
        <g id="Grupo_55975" data-name="Grupo 55975">
          <rect id="Rectángulo_10027" data-name="Rectángulo 10027" width="16.211" height="2.78" rx="1.209" transform="translate(649.744 7018.65)" fill="#fff"/>
          <path id="Trazado_107960" data-name="Trazado 107960" d="M664.747,7021.931H650.953a1.711,1.711,0,0,1-1.709-1.709v-.363a1.711,1.711,0,0,1,1.709-1.708h13.794a1.71,1.71,0,0,1,1.708,1.708v.363A1.711,1.711,0,0,1,664.747,7021.931Zm-13.794-2.78a.709.709,0,0,0-.709.708v.363a.71.71,0,0,0,.709.709h13.794a.71.71,0,0,0,.708-.709v-.363a.709.709,0,0,0-.708-.708Z" fill="#999"/>
        </g>
      </g>
      <g id="Grupo_55977" data-name="Grupo 55977" opacity="0.74">
        <path id="Trazado_107961" data-name="Trazado 107961" d="M657.889,7210.694s.776,21.819,0,36.783,1.2,78.144,1.2,78.144l-2.715,86.555-6.418,69.04s-32.844-13.66-49.7-9.783c-3.6.829-10.6,4.511-8.674,8.152,1.746,3.3,12.22,6.449,13.3,9.457,1,2.778-2.625,5.109-3.978,5.478-12,3.272-9.8-2.03-20.869-1.3-7.957.521-14.776,5.217-14.776,5.217s2.627-59.6,1.906-80.87c-.8-23.686-8-98.956-8-98.956s-.956-39.391-1.217-65.739c-.079-7.974-.672-28.639,1.391-51.305,1.39-15.27,5.58-30.5,5.913-46.956a563.649,563.649,0,0,0-4.174-76.7,21,21,0,0,0,15.217.783c15.044-4.7,20.941-11.6,30.087-13.652,16.261-3.652,50.99,6.087,50.99,6.087S656.167,7213.824,657.889,7210.694Z" fill="#ccc"/>
        <path id="Trazado_107962" data-name="Trazado 107962" d="M565.271,7498.933a.494.494,0,0,1-.242-.063.5.5,0,0,1-.258-.46c.027-.6,2.618-59.823,1.906-80.83-.793-23.4-7.926-98.173-8-98.925-.011-.43-.962-39.732-1.219-65.783-.009-.873-.024-1.9-.04-3.06a453.229,453.229,0,0,1,1.433-48.293c.57-6.26,1.631-12.648,2.657-18.825,1.5-9.047,3.058-18.4,3.254-28.1a567.954,567.954,0,0,0-4.17-76.619.5.5,0,0,1,.211-.477.5.5,0,0,1,.521-.03,20.71,20.71,0,0,0,14.832.745,83.321,83.321,0,0,0,17.85-8.17c4.222-2.416,7.867-4.5,12.277-5.493,16.2-3.631,49.811,5.7,51.234,6.094a.5.5,0,0,1,.365.485c-.317,37.177-.871,133.472.294,139.154a.5.5,0,0,1,.21.39c.008.218.769,22.013,0,36.827-.766,14.772,1.185,77.471,1.205,78.1l-2.715,86.586-6.42,69.07a.5.5,0,0,1-.69.416c-.327-.136-32.894-13.554-49.392-9.758-2.709.623-7.248,2.878-8.367,5.325a2.252,2.252,0,0,0,.023,2.106c.8,1.5,3.765,3.077,6.636,4.6,3.13,1.66,6.086,3.227,6.7,4.921a3.418,3.418,0,0,1-.234,2.833,7.667,7.667,0,0,1-4.082,3.3c-6.856,1.87-9.2,1-11.909-.01a18.626,18.626,0,0,0-9.06-1.277c-7.72.506-14.458,5.084-14.525,5.13A.5.5,0,0,1,565.271,7498.933Zm-3.57-420.191a570.947,570.947,0,0,1,4.063,75.875c-.2,9.767-1.758,19.159-3.267,28.241-1.071,6.443-2.082,12.529-2.648,18.751a452.642,452.642,0,0,0-1.43,48.188c.017,1.165.032,2.192.041,3.066.257,26.044,1.207,65.337,1.217,65.732.07.717,7.206,75.521,8,98.952.664,19.566-1.531,72.166-1.864,79.945a33.149,33.149,0,0,1,14.2-4.775,19.7,19.7,0,0,1,9.474,1.338c2.549.949,4.751,1.769,11.3-.018a6.613,6.613,0,0,0,3.457-2.794,2.458,2.458,0,0,0,.182-2.032c-.48-1.332-3.4-2.88-6.225-4.377-3.143-1.667-6.111-3.241-7.051-5.014a3.234,3.234,0,0,1-.048-2.991c1.267-2.771,6.071-5.2,9.052-5.883,15.733-3.617,44.615,7.629,49.372,9.552l6.357-68.368,2.712-86.524c-.02-.6-1.972-63.342-1.2-78.156.73-14.056.078-34.437.006-36.56-.554-1.556-1.059-10.837-.9-70.115.087-32.5.355-65.357.387-69.266-3.768-1.024-35.315-9.364-50.377-5.979-4.263.957-7.848,3.008-12,5.384a84.249,84.249,0,0,1-18.049,8.257A21.885,21.885,0,0,1,561.7,7078.742Z" fill="#4d4d4d"/>
      </g>
      <path id="Trazado_107963" data-name="Trazado 107963" d="M560.426,7327.28l-.063-1c.08-.005,8.155-.549,14.084-3.26,6.017-2.751,34.321-15.866,34.606-16,.435-.175,10.163-4.052,18.182-3.349,7.863.683,29.914-.075,30.136-.083l.035,1c-.222.008-22.333.772-30.258.079-7.773-.666-17.6,3.232-17.7,3.271-.261.122-28.568,13.239-34.587,15.991C568.762,7326.72,560.763,7327.258,560.426,7327.28Z" fill="#666"/>
      <path id="Trazado_107964" data-name="Trazado 107964" d="M566.647,7171.363a5.214,5.214,0,0,1-1.156-.1l.238-.972c.042.011,4.215.9,14.793-4.309,10.824-5.327,15.6-7.8,15.642-7.823.387-.185,9.257-4.4,16.96-3.88,7.545.515,43.082-.038,43.44-.044l.016,1c-.359.005-35.938.559-43.524.042-7.423-.5-16.356,3.735-16.445,3.777-.034.018-4.812,2.492-15.648,7.824C573.021,7170.789,568.572,7171.363,566.647,7171.363Z" fill="#666"/>
      <path id="Trazado_107965" data-name="Trazado 107965" d="M591.758,7478.294l-.988-.156c.018-.115,1.833-11.554,2.6-19.147.759-7.455-1.457-11.61-1.48-11.651l.877-.48c.1.179,2.387,4.471,1.6,12.232C593.595,7466.714,591.776,7478.18,591.758,7478.294Z" fill="#666"/>
      <g id="Grupo_55978" data-name="Grupo 55978">
        <path id="Trazado_107966" data-name="Trazado 107966" d="M601.764,7471.759l2.674,15.717-5.544-2.87-6.561-4.063-.962-3.012,2.371-2.642,2.674-1.5,3.522-1.761Z" fill="#ccc"/>
        <path id="Trazado_107967" data-name="Trazado 107967" d="M605.1,7488.382l-6.435-3.331-6.75-4.179-1.106-3.462,2.69-2.957,2.674-1.5,3.665-1.834,2.354.169Zm-12.345-8.166,6.4,3.966,4.62,2.39-2.44-14.342-1.3-.093-3.4,1.7-2.581,1.448-2.124,2.368Z" fill="gray"/>
      </g>
      <path id="Trazado_107968" data-name="Trazado 107968" d="M622.722,7153.6l3.687-4.045,2.161.169s.922.095.737-.727l-2.427-3s-1.136-1.263-1.505.19l-.123,2.528-3.29,3.964-.4,1.249Z" fill="#666"/>
      <path id="Trazado_107969" data-name="Trazado 107969" d="M660.25,7088.383l3.687-4.045,2.161.169s.922.1.737-.727l-2.427-3s-1.137-1.264-1.505.189l-.123,2.528-3.29,3.964-.4,1.249Z" fill="#666"/>
      <path id="Trazado_107970" data-name="Trazado 107970" d="M654.777,7086.49l-3.687-4.044-2.161.168s-.921.1-.737-.726l2.427-3s1.137-1.264,1.505.19l.123,2.527,3.29,3.965.4,1.249Z" fill="#666"/>
    </g>
  </g>
</svg>
