<svg xmlns="http://www.w3.org/2000/svg" width="229.731" height="584.57" viewBox="0 0 229.731 584.57">
  <g id="Grupo_56001" data-name="Grupo 56001" transform="translate(-950.115 -6983.955)">
    <rect id="Rectángulo_10030" data-name="Rectángulo 10030" width="229.731" height="584.57" rx="24.296" transform="translate(950.115 6983.955)" fill="#fff"/>
    <g id="Grupo_56000" data-name="Grupo 56000" transform="translate(976.076 7006.767)">
      <g id="Grupo_55981" data-name="Grupo 55981" transform="translate(46.199 21.836)">
        <path id="Trazado_107971" data-name="Trazado 107971" d="M1153.608,7094.28a85.221,85.221,0,0,0-9.469-6.3s-11.424-4.943-15.725-7.825c0,0-4.179-2.022-4.355-11.166s.525-15.475,1.93-19.782l1.753-6.683s-5.086-7.913-19.291-9.759c0,0-9.557-.88-11.75,1.406,0,0-5.787,21.717-13.679,31.388,0,0-1.666,6.419-19.2,10.023l-20.695,4.484s-9.557,2.023-11.048,9.848c0,0-5.787,6.242-2.631,29.453l.877,4.749,23.358,112.7.624,2.141v5.977s-13.059,36.224-15.021,54.061c-1.244,11.3-.508,53.109.2,82.217-.04,14.93.644,47.19.644,47.19s-1.944,14.157,17.039,20.432c0,0,17.536,12.548,46.01,2.252l37.323-9.652a24.481,24.481,0,0,0,10.94-21.075c-.442-14.254-.687-23.413-.688-23.479l-2.368-88.812s-1.652-18.423-4.28-31.906a58.469,58.469,0,0,0-1.966-10.386c-2.322-7.289-11.489-22.169-11.489-22.169s-1.356-3.929-.489-7.085l3.748-23.524,8.243-33.237,5.621-10.364s7.433-9.691,6.481-17.777l-2.735-9.513s-.23-8.1-.072-13.672c.038-1.2.1-2.264.178-3.082l3.39-12.191.05-.472.021-.073.64-6.016h-.016l.474-4.46S1157,7097.094,1153.608,7094.28Z" transform="translate(-1028.151 -7032.249)" fill="#fff"/>
        <path id="Trazado_107972" data-name="Trazado 107972" d="M1081.341,7455.429c-14.757,0-23.645-5.825-24.363-6.315-18.985-6.3-17.246-20.646-17.227-20.791-.01-.269-.685-32.38-.647-47.145-.761-31.408-1.412-71.183-.2-82.254,1.907-17.343,14.429-52.437,15.019-54.084v-5.864l-.61-2.093-23.365-112.726-.878-4.755c-3-22.036,1.967-28.857,2.648-29.674,1.574-7.884,11.2-10.01,11.3-10.03l20.692-4.482c17.04-3.5,18.924-9.712,18.941-9.774l.067-.13c7.754-9.5,13.554-31.042,13.613-31.258l.084-.151c2.282-2.379,11.635-1.55,12.032-1.512,14.215,1.848,19.34,9.589,19.551,9.917l.082.129-1.792,6.828c-1.461,4.487-2.086,10.921-1.918,19.689s4.121,10.841,4.161,10.86c4.264,2.855,15.6,7.769,15.71,7.819a85.839,85.839,0,0,1,9.554,6.352c3.5,2.907,2.728,7.963,2.693,8.178l-1.166,11-3.4,12.248c-.067.7-.126,1.727-.166,3-.151,5.29.053,12.957.071,13.607l2.722,9.469c.969,8.188-6.232,17.685-6.539,18.085l-5.57,10.279-8.233,33.2-3.743,23.5c-.836,3.054.462,6.879.475,6.918.059.08,9.183,14.93,11.491,22.176a58.4,58.4,0,0,1,1.98,10.451c2.6,13.319,4.264,31.73,4.28,31.915l2.37,88.834c.009.36.253,9.452.688,23.479.445,14.344-10.994,21.314-11.109,21.383l-.091.038-37.323,9.651A64.148,64.148,0,0,1,1081.341,7455.429Zm1.965-389.732c-.258.792-2.73,6.762-19.446,10.2l-20.69,4.482c-.1.021-9.351,2.071-10.781,9.574l-.018.1-.068.073c-.056.063-5.63,6.471-2.542,29.173l.874,4.731,23.356,112.69.631,2.211-.02,6.093c-.13.361-13.067,36.389-15,53.981-1.214,11.033-.562,50.774.2,82.171-.039,14.764.636,46.868.644,47.191-.022.193-1.669,14,16.8,20.108l.092.048c.174.124,17.734,12.315,45.691,2.207l37.3-9.648c.734-.46,11.149-7.238,10.729-20.74-.435-14.027-.678-23.12-.687-23.472l-2.37-88.823c-.015-.16-1.678-18.537-4.273-31.848a57.823,57.823,0,0,0-1.956-10.347c-2.281-7.165-11.361-21.943-11.453-22.093-.09-.233-1.413-4.136-.529-7.357l3.741-23.487,8.281-33.35,5.621-10.364c.1-.142,7.365-9.72,6.441-17.571l-2.737-9.543c0-.081-.229-8.171-.072-13.691.041-1.289.1-2.335.18-3.107l3.4-12.25.071-.545.588-5.574h0l.025-.384.474-4.461c.01-.066.745-4.9-2.449-7.55h0a85.7,85.7,0,0,0-9.421-6.267c-.433-.185-11.469-4.971-15.746-7.838-.136-.062-4.331-2.2-4.509-11.448-.17-8.846.466-15.354,1.946-19.9l1.707-6.508c-.717-1-6.057-7.8-18.959-9.481-2.571-.236-9.591-.469-11.395,1.243C1096.561,7035.868,1090.873,7056.372,1083.306,7065.7Z" transform="translate(-1028.123 -7032.22)" fill="#999"/>
      </g>
      <path id="Trazado_107973" data-name="Trazado 107973" d="M1097.369,7260.3c-.71,0-1.426,0-2.157-.012-27.86-.291-39.558-6.58-39.673-6.644l.336-.606c.114.062,11.688,6.267,39.344,6.556,24.484.227,36.105-3.9,36.22-3.942l.239.65C1131.565,7256.34,1120.509,7260.3,1097.369,7260.3Z" transform="translate(-983.979 -7026.938)" fill="#999"/>
      <path id="Trazado_107974" data-name="Trazado 107974" d="M1097.906,7269.553q-1.31,0-2.616-.049c-26.079-1-38.458-7.021-38.58-7.082l.309-.622c.121.061,12.388,6.02,38.3,7.01,17.975.691,36.853-6.116,37.041-6.186l.238.652C1132.415,7263.343,1115.182,7269.553,1097.906,7269.553Z" transform="translate(-984.067 -7027.594)" fill="#999"/>
      <path id="Trazado_107975" data-name="Trazado 107975" d="M1103.208,7269.139l-2.677-2.678,2.088-2.864-2.625-2.85.51-.47,3.01,3.27-2.074,2.844,2.257,2.256Z" transform="translate(-987.312 -7027.48)" fill="#999"/>
      <path id="Trazado_107976" data-name="Trazado 107976" d="M1107.391,7269.139l-2.677-2.678,2.088-2.864-2.625-2.85.51-.47,3.01,3.27-2.074,2.844,2.258,2.256Z" transform="translate(-987.625 -7027.48)" fill="#999"/>
      <path id="Trazado_107977" data-name="Trazado 107977" d="M1111.652,7268.888l-2.5-2.6,1.946-2.782-2.445-2.768.52-.459,2.807,3.176-1.933,2.764,2.1,2.19Z" transform="translate(-987.961 -7027.48)" fill="#999"/>
      <path id="Trazado_107978" data-name="Trazado 107978" d="M1115.908,7268.313l-2.5-2.46,1.938-2.611-2.416-2.576.506-.475,2.812,3-1.923,2.591,2.074,2.037Z" transform="translate(-988.281 -7027.474)" fill="#999"/>
      <path id="Trazado_107979" data-name="Trazado 107979" d="M1119.717,7267.673l-2.5-2.461,1.938-2.61-2.416-2.577.506-.475,2.813,3-1.923,2.591,2.074,2.038Z" transform="translate(-988.567 -7027.426)" fill="#999"/>
      <path id="Trazado_107980" data-name="Trazado 107980" d="M1080.794,7268.065l-2.417-2.849,2.353-2.544-2.329-2.986.547-.426,2.692,3.451-2.336,2.526,2.02,2.381Z" transform="translate(-985.691 -7027.404)" fill="#999"/>
      <path id="Trazado_107981" data-name="Trazado 107981" d="M1084.956,7268.481l-2.417-2.85,2.353-2.542-2.329-2.987.547-.426,2.691,3.451-2.336,2.525,2.02,2.381Z" transform="translate(-986.003 -7027.435)" fill="#999"/>
      <path id="Trazado_107982" data-name="Trazado 107982" d="M1089.438,7268.929l-2.417-2.849,2.353-2.544-2.329-2.986.547-.426,2.692,3.45-2.336,2.525,2.02,2.381Z" transform="translate(-986.339 -7027.469)" fill="#999"/>
      <path id="Trazado_107983" data-name="Trazado 107983" d="M1067.785,7265.329l-2.417-2.85,2.353-2.543-2.329-2.986.547-.426,2.691,3.451-2.336,2.525,2.02,2.381Z" transform="translate(-984.716 -7027.199)" fill="#999"/>
      <path id="Trazado_107984" data-name="Trazado 107984" d="M1063.711,7264.159l-2.417-2.849,2.353-2.544-2.329-2.986.547-.427,2.691,3.451-2.336,2.526,2.02,2.381Z" transform="translate(-984.411 -7027.111)" fill="#999"/>
      <path id="Trazado_107985" data-name="Trazado 107985" d="M1060.349,7263.012l-2.417-2.849,2.353-2.543-2.329-2.986.547-.427,2.692,3.451-2.336,2.525,2.02,2.381Z" transform="translate(-984.159 -7027.025)" fill="#999"/>
      <path id="Trazado_107986" data-name="Trazado 107986" d="M1071.947,7266.443l-2.417-2.849,2.353-2.543-2.329-2.986.547-.426,2.691,3.451-2.336,2.525,2.02,2.381Z" transform="translate(-985.028 -7027.282)" fill="#999"/>
      <path id="Trazado_107987" data-name="Trazado 107987" d="M1076.429,7266.892l-2.417-2.85,2.353-2.543-2.329-2.987.547-.426,2.692,3.451-2.336,2.526,2.02,2.381Z" transform="translate(-985.364 -7027.316)" fill="#999"/>
      <path id="Trazado_107988" data-name="Trazado 107988" d="M1093.68,7269.353l-2.417-2.849,2.353-2.544-2.329-2.987.547-.426,2.691,3.45-2.336,2.526,2.019,2.381Z" transform="translate(-986.657 -7027.5)" fill="#999"/>
      <path id="Trazado_107989" data-name="Trazado 107989" d="M1097.833,7269.085l-2.417-2.849,2.353-2.543-2.329-2.987.547-.426,2.691,3.451-2.336,2.525,2.02,2.381Z" transform="translate(-986.968 -7027.48)" fill="#999"/>
      <path id="Trazado_107990" data-name="Trazado 107990" d="M1127.524,7265.823l-2.683-2.1,2.021-2.165-2.445-2.073.449-.529,3,2.545-2,2.143,2.085,1.629Z" transform="translate(-989.143 -7027.381)" fill="#999"/>
      <path id="Trazado_107991" data-name="Trazado 107991" d="M1131.313,7264.894l-2.682-2.1,2.021-2.164-2.445-2.073.449-.529,3,2.544-2,2.143,2.085,1.628Z" transform="translate(-989.427 -7027.312)" fill="#999"/>
      <path id="Trazado_107992" data-name="Trazado 107992" d="M1135.185,7263.936l-2.683-2.1,2.021-2.164-2.445-2.073.449-.53,3,2.545-2,2.143,2.085,1.627Z" transform="translate(-989.717 -7027.24)" fill="#999"/>
      <path id="Trazado_107993" data-name="Trazado 107993" d="M1123.191,7266.367l-2.556-2.145,1.937-2.229-2.359-2.149.467-.513,2.861,2.606-1.919,2.207,2.016,1.691Z" transform="translate(-988.827 -7027.409)" fill="#999"/>
      <path id="Trazado_107994" data-name="Trazado 107994" d="M1057.646,7456.44c-.063-1.217-6.275-122.141-5.471-151.895a145.224,145.224,0,0,1,11.743-52.9v-4.769l-24.37-112.836.678-.146,24.378,112.909.007,5-.034.071a144.168,144.168,0,0,0-11.709,52.686c-.8,29.729,5.407,150.624,5.47,151.841Z" transform="translate(-982.781 -7018.006)" fill="#999"/>
      <g id="Grupo_55982" data-name="Grupo 55982" transform="translate(55.577 116.615)">
        <rect id="Rectángulo_10031" data-name="Rectángulo 10031" width="0.694" height="0.925" transform="translate(0 0.148) rotate(-12.325)" fill="#999"/>
        <path id="Trazado_107995" data-name="Trazado 107995" d="M1056.21,7453.87l-.1-1.853.693-.036.1,1.853Zm-.2-3.707-.1-1.852.693-.036.1,1.852Zm-.193-3.7-.094-1.851.693-.035.094,1.85Zm-.188-3.7-.093-1.851.693-.034.094,1.851Zm-.186-3.7-.093-1.85.693-.034.093,1.85Zm-.183-3.7-.092-1.85.693-.034.092,1.85Zm-.181-3.7-.089-1.85.693-.034.089,1.85Zm-.178-3.7-.088-1.85.693-.033.088,1.85Zm-.176-3.7-.087-1.85.693-.032.087,1.85Zm-.173-3.7-.085-1.85.693-.032.085,1.85Zm-.17-3.7L1054.3,7415l.693-.03.084,1.849Zm-.167-3.7-.083-1.851.693-.03.083,1.849Zm-.166-3.7-.081-1.85.693-.03.081,1.85Zm-.162-3.7-.08-1.851.693-.029.079,1.85Zm-.16-3.7-.079-1.85.693-.028.079,1.85Zm-.156-3.7-.077-1.85.693-.028.077,1.85Zm-.153-3.7-.076-1.85.693-.028.076,1.851Zm-.15-3.7-.074-1.851.693-.026.074,1.85Zm-.147-3.7-.073-1.851.693-.027.073,1.851Zm-.144-3.7-.07-1.851.693-.026.07,1.851Zm-.14-3.7-.068-1.85.693-.025.068,1.85Zm-.137-3.7-.066-1.85.694-.025.066,1.85Zm-.131-3.707-.065-1.854.694-.024.064,1.855Zm-.128-3.708-.063-1.851.694-.024.063,1.851Zm-.124-3.7-.06-1.848.694-.022.06,1.847Zm-.118-3.692-.057-1.844.694-.021.057,1.844Zm-.113-3.7-.055-1.852.694-.02.055,1.85Zm-.108-3.7-.052-1.851.694-.019.052,1.851Zm-.1-3.7-.049-1.851.694-.019.049,1.851Zm-.1-3.7-.045-1.852.694-.017.045,1.85Zm-.088-3.7-.042-1.852.694-.015.042,1.85Zm-.081-3.7-.038-1.852.694-.014.038,1.852Zm-.073-3.7-.033-1.853.694-.011.033,1.852Zm-.064-3.7-.027-1.853.694-.01.027,1.851Zm-.053-3.7-.022-1.853.694-.008.022,1.851Zm-.041-3.7-.015-1.853.694-.006.015,1.851Zm-.027-3.706-.008-1.853.694,0,.008,1.851Zm.682-3.7h-.694l0-1.853.694,0Zm.007-3.7-.694,0,.012-1.852.694.005Zm.031-3.7-.694-.006.026-1.853.694.01Zm.059-3.7-.694-.013q.019-.946.043-1.853l.694.018Q1052.157,7304.871,1052.137,7305.812Zm.1-3.7-.694-.021q.031-.95.067-1.852l.693.027Q1052.264,7301.169,1052.235,7302.116Zm.146-3.691-.693-.034q.047-.96.1-1.852l.693.042Q1052.427,7297.468,1052.381,7298.425Zm.233-3.683-.691-.058c.051-.612.11-1.23.176-1.851l.69.072Q1052.69,7293.831,1052.614,7294.742Zm.388-3.668-.688-.086c.078-.611.16-1.226.25-1.842l.686.1Q1053.118,7290.162,1053,7291.073Zm.528-3.655-.685-.11q.148-.914.311-1.831l.683.121Q1053.677,7286.509,1053.53,7287.418Zm.643-3.641-.681-.13q.174-.911.361-1.821l.679.139C1054.409,7282.567,1054.288,7283.173,1054.173,7283.777Zm.74-3.619-.678-.148q.2-.907.4-1.807l.676.156Q1055.109,7279.253,1054.913,7280.158Zm.823-3.6-.674-.163q.218-.907.442-1.8l.672.168Q1055.954,7275.654,1055.736,7276.559Zm.9-3.588-.672-.175q.236-.906.476-1.793l.669.181Q1056.87,7272.066,1056.635,7272.971Zm.964-3.57-.669-.188q.254-.907.507-1.784l.667.191Q1057.852,7268.5,1057.6,7269.4Zm1.024-3.556-.664-.2q.269-.908.535-1.778l.663.2Q1058.893,7264.938,1058.623,7265.845Zm1.081-3.54-.661-.208q.287-.913.562-1.769l.66.214Q1059.991,7261.394,1059.7,7262.305Zm1.137-3.523-.659-.216c.2-.619.4-1.208.589-1.761l.657.222Q1061.147,7257.854,1060.84,7258.782Zm1.19-3.507-.655-.228c.23-.661.438-1.248.619-1.752l.654.235C1062.467,7254.032,1062.259,7254.617,1062.03,7255.275Zm1.254-3.486-.65-.243.11-.292v-1.417h.694l-.023,1.6Zm.154-3.8h-.694v-1.246l-.121-.517.678-.148.129.591Zm-1.21-3.572-.4-1.807.678-.148.395,1.808Zm-.791-3.615-.395-1.808.677-.148.395,1.808Zm-.791-3.615-.4-1.808.677-.149.395,1.809Zm-.791-3.615-.4-1.81.678-.148.4,1.808Zm-.791-3.617-.4-1.808.678-.147.4,1.807Zm-.79-3.615-.395-1.807.677-.148.4,1.808Zm-.791-3.615-.395-1.808.677-.148.4,1.808Zm-.79-3.616-.4-1.808.678-.147.395,1.807Zm-.791-3.615-.4-1.809.678-.148.395,1.808Zm-.791-3.616-.4-1.808.677-.148.395,1.808Zm-.791-3.615-.4-1.808.677-.148.4,1.809Zm-.79-3.616-.4-1.808.677-.148.4,1.808Zm-.791-3.615-.4-1.808.678-.147.4,1.807Zm-.791-3.615-.4-1.809.678-.148.4,1.808Zm-.791-3.617-.4-1.808.677-.148.4,1.808Zm-.79-3.615-.4-1.807.677-.148.4,1.808Zm-.791-3.615-.4-1.808.678-.148.4,1.808Zm-.791-3.615-.4-1.809.678-.147.4,1.808Zm-.791-3.616-.4-1.808.677-.149.4,1.808Zm-.79-3.616-.4-1.808.677-.148.4,1.808Zm-.791-3.615-.4-1.808.678-.148.4,1.808Zm-.791-3.616-.4-1.808.678-.148.4,1.808Zm-.791-3.615-.4-1.808.677-.148.4,1.807Zm-.791-3.615-.4-1.807.677-.149.4,1.808Zm-.79-3.616-.4-1.809.677-.148.4,1.809Zm-.791-3.616-.4-1.808.677-.148.4,1.808Zm-.791-3.615-.4-1.808.677-.148.4,1.808Zm-.791-3.615-.395-1.808.677-.148.4,1.807Zm-.79-3.616-.4-1.807.677-.149.4,1.808Zm-.791-3.616-.4-1.808.677-.148.395,1.808Z" transform="translate(-1038.31 -7134.9)" fill="#999"/>
        <rect id="Rectángulo_10032" data-name="Rectángulo 10032" width="0.694" height="0.921" transform="translate(17.99 320.659) rotate(-3.093)" fill="#999"/>
      </g>
      <g id="Grupo_55983" data-name="Grupo 55983" transform="translate(57.645 115.362)">
        <rect id="Rectángulo_10033" data-name="Rectángulo 10033" width="0.694" height="0.925" transform="matrix(0.977, -0.214, 0.214, 0.977, 0, 0.149)" fill="#999"/>
        <path id="Trazado_107996" data-name="Trazado 107996" d="M1059.049,7454.127l-.1-1.846.693-.038.1,1.846Zm-.2-3.69-.1-1.843.693-.04.1,1.843Zm-.207-3.686-.1-1.842.693-.04.1,1.842Zm-.207-3.686-.1-1.843.693-.038.1,1.84Zm-.206-3.685-.1-1.841.693-.038.1,1.841Zm-.2-3.682-.1-1.841.693-.039.1,1.843Zm-.2-3.683-.1-1.841.693-.038.1,1.841Zm-.2-3.683-.1-1.842.694-.038.1,1.841Zm-.2-3.685-.1-1.842.693-.036.1,1.84Zm-.2-3.682-.1-1.842.693-.036.1,1.842Zm-.193-3.683-.1-1.841.693-.036.1,1.841Zm-.191-3.682-.1-1.841.693-.036.1,1.841Zm-.189-3.682-.093-1.843.693-.034.094,1.842Zm-.185-3.685-.092-1.84.693-.035.092,1.841Zm-.183-3.682-.09-1.841.693-.035.09,1.842Zm-.18-3.683-.088-1.842.693-.033.088,1.841Zm-.177-3.683-.086-1.842.693-.033.086,1.843Zm-.172-3.683-.085-1.842.693-.032.085,1.841Zm-.168-3.684-.084-1.843.693-.031.084,1.841Zm-.167-3.684-.081-1.842.693-.03.081,1.841Zm-.162-3.685-.08-1.841.693-.028.08,1.841Zm-.157-3.683-.077-1.843.693-.029.077,1.842Zm-.154-3.69-.075-1.848.693-.027.075,1.846Zm-.148-3.69-.073-1.844.693-.027.073,1.842Zm-.143-3.685-.068-1.773.69-.092.07,1.838Zm-.139-3.676-.067-1.836.694-.025.067,1.836Zm-.131-3.678-.065-1.844.694-.023.064,1.841Zm-.128-3.685-.06-1.844.694-.021.06,1.842Zm-.119-3.686-.057-1.842.694-.022.057,1.842Zm-.112-3.685-.054-1.844.694-.02.054,1.842Zm-.105-3.686-.049-1.844.694-.019.049,1.842Zm-.1-3.687-.044-1.844.694-.016.044,1.842Zm-.086-3.687-.04-1.844.694-.014.04,1.842Zm-.076-3.687-.034-1.844.694-.013.034,1.844Zm-.065-3.687-.028-1.844.694-.01.028,1.843Zm-.051-3.689-.019-1.844.694-.007.019,1.845Zm-.036-3.689-.01-1.845.694,0,.01,1.842Zm-.017-3.688v-1.846l.694,0v1.841Zm.7-3.685-.694,0,.012-1.844.694.005Zm.031-3.683-.694-.007q.011-.938.027-1.846l.694.013Q1054.233,7309.49,1054.222,7310.425Zm.063-3.683-.694-.014q.021-.939.046-1.844l.694.02Q1054.3,7305.807,1054.285,7306.743Zm.1-3.677-.694-.025q.035-.946.074-1.844l.693.031Q1054.422,7302.121,1054.389,7303.065Zm.163-3.675-.693-.038q.053-.955.113-1.844l.693.047Q1054.6,7298.44,1054.552,7299.39Zm.252-3.665-.691-.059q.079-.923.168-1.751l.621-.014.079.011C1054.913,7294.537,1054.857,7295.116,1054.8,7295.725Zm.385-3.652-.689-.082q.108-.929.222-1.832l.688.086Q1055.3,7291.146,1055.189,7292.073Zm.458-3.65-.688-.092q.125-.929.254-1.828l.686.1Q1055.771,7287.5,1055.647,7288.423Zm.522-3.642-.686-.1q.142-.927.289-1.822l.684.112Q1056.311,7283.858,1056.169,7284.781Zm.595-3.628-.684-.119q.162-.927.328-1.815l.683.125Q1056.925,7280.232,1056.764,7281.153Zm.674-3.612-.681-.135q.185-.926.372-1.809l.678.145Q1057.621,7276.622,1057.438,7277.541Zm.764-3.594-.677-.154q.21-.924.423-1.8l.673.164Q1058.41,7273.029,1058.2,7273.947Zm.868-3.567-.671-.174q.239-.923.481-1.785l.668.188Q1059.308,7269.465,1059.07,7270.38Zm.99-3.533-.664-.2q.277-.918.553-1.764l.659.215Q1060.336,7265.935,1060.06,7266.848Zm1.137-3.485-.654-.231q.325-.919.641-1.736l.647.25Q1061.518,7262.454,1061.2,7263.363Zm1.32-3.413-.638-.27q.391-.923.758-1.694l.627.3C1063.023,7258.791,1062.774,7259.344,1062.517,7259.95Zm1.566-3.3-.611-.329c.312-.58.626-1.122.937-1.612l.586.371C1064.693,7255.56,1064.386,7256.088,1064.083,7256.654Zm2-3.062-.325-.242h-.27v-1.762h.694v1.9Zm.1-3.846h-.694V7247.9h.694Zm-.917-3.585-.4-1.8.678-.148.4,1.8Zm-.791-3.6-.4-1.8.678-.148.4,1.8Zm-.791-3.6-.4-1.8.678-.147.4,1.8Zm-.791-3.6-.4-1.8.678-.148.4,1.8Zm-.791-3.6-.4-1.8.677-.148.4,1.8Zm-.791-3.6-.4-1.8.677-.148.4,1.8Zm-.791-3.6-.4-1.8.677-.148.4,1.8Zm-.792-3.6-.4-1.8.677-.149.4,1.8Zm-.791-3.6-.4-1.8.677-.148.4,1.8Zm-.791-3.6-.4-1.8.677-.147.4,1.8Zm-.791-3.6-.4-1.8.677-.149.4,1.8Zm-.791-3.6-.4-1.8.677-.148.4,1.8Zm-.791-3.6-.4-1.8.677-.148.4,1.8Zm-.791-3.6-.395-1.8.677-.147.395,1.8Zm-.791-3.6-.395-1.8.677-.148.4,1.8Zm-.791-3.6-.4-1.8.677-.148.395,1.8Zm-.791-3.6-.4-1.8.678-.148.4,1.8Zm-.791-3.6-.4-1.8.678-.148.395,1.8Zm-.791-3.6-.4-1.8.678-.149.4,1.8Zm-.792-3.6-.4-1.8.678-.148.4,1.8Zm-.791-3.6-.395-1.8.678-.148.4,1.8Zm-.791-3.6-.4-1.8.678-.148.4,1.8Zm-.791-3.6-.395-1.8.677-.148.4,1.8Zm-.79-3.6-.4-1.8.677-.148.4,1.8Zm-.791-3.6-.4-1.8.677-.148.4,1.8Zm-.792-3.6-.4-1.8.677-.148.4,1.8Zm-.791-3.6-.4-1.8.677-.149.4,1.8Zm-.791-3.6-.4-1.8.677-.148.4,1.8Zm-.791-3.6-.4-1.8.678-.148.4,1.8Zm-.791-3.6-.4-1.8.678-.148.4,1.8Zm-.791-3.6-.4-1.8.678-.148.4,1.8Z" transform="translate(-1040.544 -7133.545)" fill="#999"/>
        <path id="Trazado_107997" data-name="Trazado 107997" d="M1061.229,7482.939l-.252-.24-.344-.035c0-.073-.008-.368-.033-.868l.693-.034C1061.345,7482.817,1061.345,7482.817,1061.229,7482.939Z" transform="translate(-1042.003 -7159.445)" fill="#999"/>
      </g>
      <path id="Trazado_107998" data-name="Trazado 107998" d="M1131.308,7446.566a.463.463,0,0,1-.463-.46c0-.531-.217-53.665-.8-102.5-.048-4.018-.089-8.012-.129-11.951-.329-32.272-.613-60.142-4.56-68.461-6.866-14.476-2.622-52.493.187-77.653.289-2.59.562-5.034.8-7.291.306-2.848.628-5.369.939-7.809,1.068-8.382,1.912-15,.882-26.055-1.292-13.858-8.2-54.173-8.494-55.886-.237-.58-1.77-4.993-.012-18.209,1.838-13.825,2.456-20.311,2.462-20.374a.463.463,0,0,1,.922.086c-.007.064-.625,6.563-2.466,20.408-1.809,13.6-.056,17.726-.037,17.766a.485.485,0,0,1,.034.113c.072.418,7.2,41.887,8.513,56.009,1.04,11.152.19,17.818-.885,26.258-.311,2.435-.632,4.953-.936,7.792-.243,2.257-.516,4.7-.806,7.295-2.8,25.054-7.023,62.916-.27,77.153,4.033,8.5,4.319,36.467,4.649,68.849.04,3.937.08,7.93.129,11.949.587,48.837.8,101.975.8,102.505a.463.463,0,0,1-.461.464Z" transform="translate(-988.723 -7011.68)" fill="#4d4d4d"/>
      <path id="Trazado_107999" data-name="Trazado 107999" d="M1111.57,7539.25l-11.835,2.484v-54.242l11.835-3.425Z" transform="translate(-987.292 -7044.256)" fill="#404040"/>
      <path id="Trazado_108000" data-name="Trazado 108000" d="M1111.57,7586.618v-51.3l-11.835,3.425v47.878Z" transform="translate(-987.292 -7048.097)" fill="#404040"/>
      <rect id="Rectángulo_10034" data-name="Rectángulo 10034" width="0.925" height="109.991" transform="translate(61.618 430.049) rotate(-8.081)" fill="#404040"/>
      <rect id="Rectángulo_10035" data-name="Rectángulo 10035" width="0.925" height="102.451" transform="matrix(0.99, -0.139, 0.139, 0.99, 70.683, 437.497)" fill="#404040"/>
      <rect id="Rectángulo_10036" data-name="Rectángulo 10036" width="0.925" height="99.982" transform="matrix(0.991, -0.135, 0.135, 0.991, 77.132, 439.873)" fill="#404040"/>
      <rect id="Rectángulo_10037" data-name="Rectángulo 10037" width="0.925" height="94.819" transform="translate(88.104 444.779) rotate(-6.769)" fill="#404040"/>
      <rect id="Rectángulo_10038" data-name="Rectángulo 10038" width="0.925" height="94.635" transform="matrix(0.995, -0.1, 0.1, 0.995, 98.239, 444.771)" fill="#404040"/>
      <rect id="Rectángulo_10039" data-name="Rectángulo 10039" width="0.925" height="94.343" transform="translate(104.511 444.754) rotate(-3.595)" fill="#404040"/>
      <rect id="Rectángulo_10040" data-name="Rectángulo 10040" width="0.925" height="98.716" transform="translate(127.194 439.816) rotate(-0.639)" fill="#404040"/>
      <rect id="Rectángulo_10041" data-name="Rectángulo 10041" width="0.925" height="101.089" transform="translate(136.847 437.434) rotate(-0.214)" fill="#404040"/>
      <rect id="Rectángulo_10042" data-name="Rectángulo 10042" width="104.469" height="0.925" transform="translate(144.914 538.514) rotate(-89.217)" fill="#404040"/>
      <rect id="Rectángulo_10043" data-name="Rectángulo 10043" width="106.581" height="0.925" transform="translate(151.453 538.507) rotate(-88.434)" fill="#404040"/>
      <rect id="Rectángulo_10044" data-name="Rectángulo 10044" width="107.578" height="0.925" transform="translate(157.24 538.503) rotate(-87.873)" fill="#404040"/>
      <rect id="Rectángulo_10045" data-name="Rectángulo 10045" width="117.993" height="0.925" transform="matrix(0.045, -0.999, 0.999, 0.045, 161.609, 538.5)" fill="#404040"/>
      <path id="Trazado_108001" data-name="Trazado 108001" d="M1077.973,7548.171c-8.366,0-16.776-1.111-21.149-4.9-2.469-2.142-3.448-4.321-2.908-6.478,1.59-6.36,15.915-9.895,16.059-9.927,2.978-.679,31.372-7.105,31.372-7.105l.039-.007,7.4-1.018c1.249-.2,30.82-4.695,37.109,3.391,1.612,2.073,2.227,4.01,1.826,5.753-.7,3.061-4.257,4.811-6.851,6.088a12.677,12.677,0,0,0-2.12,1.182c-2.112,1.787-33.6,9.876-37.186,10.794A144.73,144.73,0,0,1,1077.973,7548.171Zm23.558-27.508c-.834.189-28.419,6.434-31.35,7.1s-14.1,4.189-15.368,9.25c-.449,1.791.433,3.66,2.617,5.555,10.013,8.684,43.6,2.533,43.934,2.47,13.962-3.572,35.313-9.349,36.788-10.6a12.719,12.719,0,0,1,2.31-1.305c2.427-1.2,5.752-2.833,6.357-5.465.336-1.46-.221-3.136-1.654-4.98-5.958-7.659-35.942-3.091-36.244-3.043Z" transform="translate(-983.847 -7046.748)" fill="#404040"/>
      <path id="Trazado_108002" data-name="Trazado 108002" d="M1079.488,7585.485c-8.365,0-16.776-1.11-21.148-4.9-2.47-2.142-3.449-4.321-2.909-6.478,1.591-6.359,15.916-9.895,16.06-9.926,2.976-.68,31.372-7.105,31.372-7.105l.039-.006,7.4-1.021c1.248-.193,30.819-4.694,37.108,3.392,1.612,2.073,2.226,4.009,1.826,5.753-.7,3.061-4.257,4.812-6.851,6.09a12.716,12.716,0,0,0-2.12,1.182c-2.112,1.787-33.6,9.876-37.186,10.793A144.673,144.673,0,0,1,1079.488,7585.485Zm23.558-27.507c-.834.189-28.419,6.432-31.35,7.1s-14.1,4.19-15.369,9.25c-.448,1.791.433,3.66,2.618,5.555,10.01,8.681,43.6,2.533,43.933,2.469,13.962-3.572,35.313-9.348,36.788-10.6a12.772,12.772,0,0,1,2.309-1.305c2.428-1.2,5.753-2.833,6.358-5.466.336-1.461-.22-3.136-1.654-4.98-5.956-7.656-35.941-3.09-36.244-3.044Z" transform="translate(-983.96 -7049.545)" fill="#404040"/>
      <g id="Grupo_55984" data-name="Grupo 55984" transform="translate(68.541 131.099)">
        <path id="Trazado_108003" data-name="Trazado 108003" d="M1154.412,7168.447l-28.1-4.83s-29.877-6.064-39.687-3.21-31.036,8.562-31.036,8.562l-2.854-9.325s27.29-12.079,50.21-8.154,50.21,7.491,50.21,7.491l2.152.237A11.856,11.856,0,0,1,1154.412,7168.447Z" transform="translate(-1052.31 -7150.365)" fill="#fff"/>
        <path id="Trazado_108004" data-name="Trazado 108004" d="M1055.318,7169.363l-3.042-9.939.281-.125c.274-.121,27.649-12.079,50.409-8.179,22.651,3.878,49.924,7.454,50.2,7.489l2.358.26.075.2a12.088,12.088,0,0,1-.917,9.52l-.12.212-28.343-4.871c-.309-.062-29.916-6.021-39.531-3.218-9.7,2.822-30.832,8.506-31.043,8.563Zm-2.2-9.551,2.664,8.708c2.71-.73,21.671-5.844,30.706-8.474,9.78-2.844,38.629,2.956,39.852,3.2l27.851,4.785a11.622,11.622,0,0,0,.815-8.525l-1.929-.212c-.279-.037-27.566-3.614-50.23-7.5C1081.532,7148.158,1056.079,7158.558,1053.12,7159.812Z" transform="translate(-1052.276 -7150.338)" fill="#999"/>
      </g>
      <g id="Grupo_55985" data-name="Grupo 55985" transform="translate(169.729 139.952)">
        <path id="Trazado_108005" data-name="Trazado 108005" d="M1162.787,7166.663l4.2-2.94,1.94.6s.822.276.822-.512l-1.6-3.239s-.78-1.388-1.414-.135l-.63,2.284-3.817,2.948-.618,1.06Z" transform="translate(-1161.663 -7159.908)" fill="#666"/>
      </g>
      <g id="Grupo_55986" data-name="Grupo 55986" transform="translate(65.868 137.162)">
        <path id="Trazado_108006" data-name="Trazado 108006" d="M1056.344,7163.647l-4.2-2.94-1.94.6s-.822.275-.822-.513l1.6-3.24s.78-1.387,1.413-.134l.63,2.284,3.818,2.949.618,1.059Z" transform="translate(-1049.386 -7156.892)" fill="#666"/>
      </g>
      <path id="Trazado_108007" data-name="Trazado 108007" d="M1128.922,7050.309c-14.872,0-28.669-8.782-28.813-8.875l.375-.584c.15.1,15.1,9.6,30.531,8.7l.041.692C1130.344,7050.289,1129.631,7050.309,1128.922,7050.309Z" transform="translate(-987.32 -7011.031)" fill="#999"/>
      <g id="Grupo_55990" data-name="Grupo 55990" transform="translate(121.985)">
        <g id="Grupo_55987" data-name="Grupo 55987" transform="translate(0.917)">
          <path id="Trazado_108008" data-name="Trazado 108008" d="M1125.39,7018.067c0-4.944-3.1-8.953-6.924-8.953s-6.925,4.008-6.925,8.953c0,3.867,1.9,7.15,4.555,8.4v8.56h5.232v-8.818C1123.722,7024.8,1125.39,7021.69,1125.39,7018.067Z" transform="translate(-1111.078 -7008.652)" fill="#fff"/>
          <path id="Trazado_108009" data-name="Trazado 108009" d="M1121.752,7035.457H1115.6v-8.738c-2.735-1.446-4.555-4.893-4.555-8.688,0-5.191,3.313-9.415,7.387-9.415s7.386,4.224,7.386,9.415c0,3.548-1.586,6.812-4.063,8.4Zm-5.231-.925h4.306v-8.621l.229-.133c2.329-1.372,3.834-4.413,3.834-7.747,0-4.682-2.9-8.49-6.461-8.49s-6.462,3.808-6.462,8.49c0,3.566,1.724,6.775,4.289,7.984l.266.125Z" transform="translate(-1111.041 -7008.615)" fill="#999"/>
        </g>
        <g id="Grupo_55988" data-name="Grupo 55988" transform="translate(0 10.807)">
          <rect id="Rectángulo_10046" data-name="Rectángulo 10046" width="16.238" height="2.617" rx="1.209" transform="translate(0.463 0.462)" fill="#fff"/>
          <path id="Trazado_108010" data-name="Trazado 108010" d="M1125.633,7023.84h-14a1.583,1.583,0,0,1-1.581-1.581v-.381a1.582,1.582,0,0,1,1.581-1.58h14a1.581,1.581,0,0,1,1.58,1.58v.381A1.582,1.582,0,0,1,1125.633,7023.84Zm-14-2.617a.656.656,0,0,0-.656.655v.381a.657.657,0,0,0,.656.656h14a.657.657,0,0,0,.655-.656v-.381a.656.656,0,0,0-.655-.655Z" transform="translate(-1110.05 -7020.298)" fill="#999"/>
        </g>
        <g id="Grupo_55989" data-name="Grupo 55989" transform="translate(0 5.809)">
          <rect id="Rectángulo_10047" data-name="Rectángulo 10047" width="16.238" height="2.617" rx="1.209" transform="translate(0.463 0.463)" fill="#fff"/>
          <path id="Trazado_108011" data-name="Trazado 108011" d="M1125.633,7018.438h-14a1.582,1.582,0,0,1-1.581-1.581v-.381a1.583,1.583,0,0,1,1.581-1.581h14a1.582,1.582,0,0,1,1.58,1.581v.381A1.582,1.582,0,0,1,1125.633,7018.438Zm-14-2.618a.657.657,0,0,0-.656.656v.381a.657.657,0,0,0,.656.656h14a.657.657,0,0,0,.655-.656v-.381a.657.657,0,0,0-.655-.656Z" transform="translate(-1110.05 -7014.895)" fill="#999"/>
        </g>
      </g>
      <g id="Grupo_55991" data-name="Grupo 55991" transform="translate(45.525 77.509)">
        <ellipse id="Elipse_4334" data-name="Elipse 4334" cx="10.738" cy="23.227" rx="10.738" ry="23.227" transform="translate(0.462 0.463)" fill="#fff"/>
        <path id="Trazado_108012" data-name="Trazado 108012" d="M1038.6,7139.784c-6.177,0-11.2-10.627-11.2-23.688s5.025-23.69,11.2-23.69,11.2,10.627,11.2,23.69S1044.771,7139.784,1038.6,7139.784Zm0-46.453c-5.667,0-10.276,10.211-10.276,22.765s4.609,22.763,10.276,22.763,10.275-10.211,10.275-22.763S1044.261,7093.331,1038.6,7093.331Z" transform="translate(-1027.394 -7092.405)" fill="gray"/>
      </g>
      <ellipse id="Elipse_4335" data-name="Elipse 4335" cx="2.262" cy="2.976" rx="2.262" ry="2.976" transform="translate(53.46 98.223)" fill="#454545"/>
      <path id="Trazado_108013" data-name="Trazado 108013" d="M1039.921,7092.177l-.911-.16c.054-.308,1.444-7.565,12.933-9.906l.185.907C1041.292,7085.225,1039.972,7091.894,1039.921,7092.177Z" transform="translate(-982.74 -7014.125)" fill="gray"/>
      <g id="Grupo_55992" data-name="Grupo 55992" transform="translate(73.055 457.01)">
        <path id="Trazado_108014" data-name="Trazado 108014" d="M1065.232,7505.3l-5.1-.535-1.072-1.723s-.44-.748-.958-.153l-.916,3.5s-.322,1.559.979,1.029l1.974-1.311,4.816.28,1.162-.394Z" transform="translate(-1057.156 -7502.659)" fill="#666"/>
      </g>
      <path id="Trazado_108015" data-name="Trazado 108015" d="M1101.785,7456.229h0a.463.463,0,0,1-.461-.465c.007-1.389.68-138.884,1.081-146.767.4-7.833-2.238-28.667-2.265-28.876l-3.2-20.015L1095.249,7227c0-.422-.316-40.3.12-50.793.123-2.938.379-6.131.628-9.219.651-8.094,1.324-16.463-.285-21.46-2.225-6.913-15.607-34.78-15.742-35.061l-4.04-11.144c-.041-.116-3.97-11.181-8.823-14.913l-5.02-3.861a.463.463,0,0,1,.564-.733l5.019,3.861c5.071,3.9,8.967,14.87,9.131,15.335l4.02,11.1c.534,1.105,13.526,28.163,15.772,35.136,1.664,5.17.983,13.634.326,21.818-.248,3.078-.5,6.262-.626,9.182-.436,10.475-.123,50.327-.12,50.727l1.683,33.041,3.2,19.98c.029.224,2.674,21.141,2.273,29.054-.4,7.862-1.072,145.336-1.079,146.724A.463.463,0,0,1,1101.785,7456.229Z" transform="translate(-984.457 -7013.945)" fill="#4d4d4d"/>
      <g id="Grupo_55993" data-name="Grupo 55993" transform="translate(0 53.09)" opacity="0.74">
        <path id="Trazado_108016" data-name="Trazado 108016" d="M1108.879,7079.189l7.2,51.628,4.243,155.84-1.547,164.473,2.774,59.3v12.28s3.02,4.021-.742,4.344-21.137.644-28.215,1.93a164.945,164.945,0,0,1-17.536,1.77s-29.279,7.239-33.461,10.457-18.984,1.931-18.984,1.931l-5.47.254s-2.413-58.491-3.057-75.705-.8-106.661-.8-106.661,4.183-74.164,3.7-96.2,1.126-59.363-9.492-74.647-17.7-31.587-15.766-47.969l-9.33-5.965-3.621-3.258s-.6-.659,1.327-3.346S1008.931,7098,1008.931,7098s11.947-16.289,27.269-20.392,30.285-7.6,33.9-9.893l2.9-1.207s3.137,7.6,12.669,13.755,14.357,6.877,14.357,6.877l5.913-5.068Z" transform="translate(-978.218 -7066.045)" fill="#ccc"/>
        <path id="Trazado_108017" data-name="Trazado 108017" d="M1029.1,7543.828c-3.476,0-6.306-.238-6.57-.262l-5.408.255a.456.456,0,0,1-.334-.12.468.468,0,0,1-.15-.323c-.024-.584-2.421-58.689-3.056-75.706s-.8-105.784-.8-106.679c.043-.769,4.177-74.425,3.7-96.194-.073-3.326-.1-7-.125-10.887-.147-21.373-.349-50.644-9.285-63.506-12.309-17.716-17.5-33.42-15.878-48l-9.088-5.81-3.68-3.3c-.29-.313-.679-1.259,1.261-3.96,1.926-2.68,27.774-30.507,28.874-31.69.086-.123,12.185-16.426,27.488-20.523,3.468-.928,6.917-1.825,10.221-2.685,11.169-2.907,20.815-5.417,23.555-7.152l2.965-1.243a.464.464,0,0,1,.606.25c.031.075,3.207,7.548,12.493,13.543,8.248,5.324,12.975,6.554,13.975,6.769l5.743-4.921,2.917-2.862a.463.463,0,0,1,.783.266l7.195,51.628,4.248,155.89L1119.2,7451.1l2.774,59.276v12.151c.379.538,1.582,2.41.982,3.749a2.339,2.339,0,0,1-2.146,1.206c-1.1.094-3.318.187-6.127.3-6.788.283-17.047.711-22.046,1.621a166.167,166.167,0,0,1-17.6,1.776c-.2.059-29.143,7.24-33.2,10.362C1039.4,7543.413,1033.686,7543.828,1029.1,7543.828Zm-6.551-1.184c.208.011,14.73,1.234,18.724-1.835,4.211-3.239,32.434-10.243,33.632-10.54a169.165,169.165,0,0,0,17.565-1.775c5.061-.921,15.358-1.351,22.171-1.636,2.8-.116,5.008-.209,6.088-.3.749-.064,1.214-.287,1.381-.661.377-.846-.6-2.45-.97-2.944a.459.459,0,0,1-.093-.277v-12.281l-2.774-59.281,1.547-164.5-4.243-155.822-7.064-50.668-2.284,2.24-5.935,5.088a.46.46,0,0,1-.37.106c-.2-.031-5.034-.808-14.54-6.946-8.375-5.407-11.844-11.836-12.655-13.543l-2.481,1.033c-2.793,1.776-12.5,4.3-23.748,7.23-3.3.859-6.749,1.756-10.214,2.685-14.986,4.012-26.9,20.055-27.017,20.218-.3.33-26.943,29.008-28.834,31.64-1.364,1.9-1.349,2.639-1.323,2.8l3.549,3.193,9.271,5.921a.46.46,0,0,1,.21.443c-1.7,14.424,3.432,30.012,15.687,47.651,9.1,13.1,9.3,42.532,9.449,64.026.027,3.885.052,7.555.125,10.874.476,21.806-3.659,95.5-3.7,96.24,0,.867.169,89.609.8,106.618.606,16.2,2.808,69.673,3.038,75.239Zm99.423-19.969h0Z" transform="translate(-978.18 -7066.008)" fill="#4d4d4d"/>
      </g>
      <path id="Trazado_108018" data-name="Trazado 108018" d="M992.737,7146.5a.463.463,0,0,1-.256-.848c8.3-5.506,15.67-27.6,15.743-27.82a.463.463,0,0,1,.879.292c-.3.92-7.549,22.617-16.11,28.3A.472.472,0,0,1,992.737,7146.5Z" transform="translate(-979.237 -7016.778)" fill="#4d4d4d"/>
      <path id="Trazado_108019" data-name="Trazado 108019" d="M1001.346,7182.42a.462.462,0,0,1-.191-.884c2.144-.974,52.71-23.87,68.891-25.143a.462.462,0,1,1,.072.922c-16.019,1.261-68.058,24.825-68.581,25.063A.446.446,0,0,1,1001.346,7182.42Z" transform="translate(-979.882 -7019.693)" fill="#4d4d4d"/>
      <path id="Trazado_108020" data-name="Trazado 108020" d="M1070.649,7355.028c-35.8,0-52.664-5.693-52.9-5.774a.462.462,0,1,1,.305-.873c.322.111,33.094,11.154,104.7,2.27a.458.458,0,0,1,.516.4.463.463,0,0,1-.4.517A425.056,425.056,0,0,1,1070.649,7355.028Z" transform="translate(-981.123 -7034.083)" fill="#4d4d4d"/>
      <rect id="Rectángulo_10048" data-name="Rectángulo 10048" width="0.925" height="171.941" transform="translate(61.623 145.876) rotate(-2.574)" fill="#666"/>
      <g id="Grupo_55994" data-name="Grupo 55994" transform="translate(94.32 45.368)" opacity="0.74">
        <path id="Trazado_108021" data-name="Trazado 108021" d="M1080.644,7065.881l4.223-7.722.845,3.861-3.62,5.912,3.62-3.74h1.81l1.448,5.55-2.292,4.1,4.706-5.188,2.172-1.327,3.982,3.981v2.534l-2.779,5.912,4.709-6.033,1.448-1.568,2.654,1.568-.73,9.412,3.324-6.878,3.68.6,1.689,7.3.483-8.084h4.1l1.151,8.379.177,1.7-9.17.295-11.98-4.967-10.341-7.514Z" transform="translate(-1080.181 -7057.697)" fill="#ccc"/>
        <path id="Trazado_108022" data-name="Trazado 108022" d="M1108.236,7086.872a.461.461,0,0,1-.177-.035l-11.98-4.966a.465.465,0,0,1-.1-.054l-10.341-7.515a.448.448,0,0,1-.115-.12l-5.309-8.083a.462.462,0,0,1-.019-.477l4.224-7.722a.462.462,0,0,1,.858.124l.844,3.861a.467.467,0,0,1-.057.34l-1.429,2.335.7-.727a.459.459,0,0,1,.332-.141h1.81a.463.463,0,0,1,.448.346l1.448,5.55a.464.464,0,0,1-.044.342l-.314.562,1.982-2.185a.454.454,0,0,1,.1-.084l2.172-1.328a.461.461,0,0,1,.568.068l3.982,3.981a.466.466,0,0,1,.135.327v2.534a.466.466,0,0,1-.044.2l-1.025,2.179,2.172-2.781,1.473-1.6a.461.461,0,0,1,.575-.085l2.655,1.569a.462.462,0,0,1,.226.434l-.54,6.967,2.257-4.67a.456.456,0,0,1,.491-.255l3.68.6a.462.462,0,0,1,.376.353l.967,4.181.292-4.888a.462.462,0,0,1,.462-.436h4.1a.463.463,0,0,1,.458.4l1.151,8.378.179,1.712a.463.463,0,0,1-.445.51l-9.17.294Zm-11.753-5.835,11.838,4.907,8.574-.276-.125-1.2-1.094-7.965h-3.264l-.457,7.649a.46.46,0,0,1-.423.433.468.468,0,0,1-.489-.356l-1.619-7-3.033-.5-3.174,6.567a.463.463,0,0,1-.878-.238l.708-9.123-2.085-1.232-1.194,1.293-4.684,6-.007.01Zm-9.508-6.911,7.351,5.343,2.71-5.764v-2.239l-3.589-3.589-1.8,1.1-4.661,5.14Zm-4.392-6.113,3.655,5.564,2.2-3.936-1.31-5.023h-1.257Zm-1.438-2.19.847,1.29,3.19-5.211-.54-2.472Z" transform="translate(-1080.143 -7057.66)" fill="#4d4d4d"/>
      </g>
      <g id="Grupo_55995" data-name="Grupo 55995" transform="translate(63.262 310.439)">
        <path id="Trazado_108023" data-name="Trazado 108023" d="M1051.52,7351.719l-1.43-4.92,1.19-1.644s.525-.69-.221-.943l-3.583.473s-1.564.292-.584,1.3l1.959,1.333,1.561,4.564.8.927Z" transform="translate(-1046.569 -7344.211)" fill="#666"/>
      </g>
      <g id="Grupo_55996" data-name="Grupo 55996" transform="translate(95.706 310.439)">
        <path id="Trazado_108024" data-name="Trazado 108024" d="M1086.593,7351.719l-1.43-4.92,1.19-1.644s.526-.69-.22-.943l-3.584.473s-1.564.292-.584,1.3l1.959,1.333,1.561,4.564.8.927Z" transform="translate(-1081.642 -7344.211)" fill="#666"/>
      </g>
      <g id="Grupo_55997" data-name="Grupo 55997" transform="translate(142.466 310.445)">
        <path id="Trazado_108025" data-name="Trazado 108025" d="M1132.756,7349.208l4.525-2.4.349-2s.129-.858.831-.5l2.158,2.9s.882,1.325-.522,1.321l-2.321-.476-4.361,2.062-1.225.069Z" transform="translate(-1132.191 -7344.217)" fill="#666"/>
      </g>
      <path id="Trazado_108026" data-name="Trazado 108026" d="M1161.9,7154.672l-5.591-15.889c-1.8-5.755-3.311-14.586-4.768-23.127-1.919-11.253-3.9-22.889-6.487-26.74l.576-.387c2.665,3.975,4.574,15.164,6.6,27.01,1.453,8.518,2.955,17.326,4.742,23.025l5.586,15.877Z" transform="translate(-990.689 -7014.606)" fill="#999"/>
      <g id="Grupo_55998" data-name="Grupo 55998" transform="translate(108.896 129.257)">
        <path id="Trazado_108027" data-name="Trazado 108027" d="M1097.025,7155.1l4.2-2.94,1.94.6s.822.275.822-.513l-1.6-3.239s-.78-1.388-1.414-.136l-.63,2.285-3.817,2.948-.618,1.06Z" transform="translate(-1095.901 -7148.347)" fill="#666"/>
      </g>
      <g id="Grupo_55999" data-name="Grupo 55999" transform="translate(85.902 46.592)">
        <path id="Trazado_108028" data-name="Trazado 108028" d="M1078.068,7065.754l-3.194-4.006.476-1.974s.224-.838-.563-.789l-3.134,1.8s-1.336.864-.047,1.42l2.319.487,3.179,3.628,1.1.551Z" transform="translate(-1071.044 -7058.983)" fill="#666"/>
      </g>
    </g>
  </g>
</svg>
