<svg xmlns="http://www.w3.org/2000/svg" width="201.941" height="568.162" viewBox="0 0 201.941 568.162">
  <g id="Grupo_55842" data-name="Grupo 55842" transform="translate(-760.011 -4817.791)">
    <rect id="Rectángulo_9863" data-name="Rectángulo 9863" width="201.941" height="568.163" rx="21.468" transform="translate(760.011 4817.791)" fill="#fff"/>
    <g id="Grupo_55841" data-name="Grupo 55841" transform="translate(794.876 4832.552)">
      <g id="Grupo_55812" data-name="Grupo 55812" transform="translate(0.674 21.824)">
        <path id="Trazado_107501" data-name="Trazado 107501" d="M923.866,4919.388a85.212,85.212,0,0,0-9.464-6.3s-11.419-4.94-15.716-7.821c0,0-4.178-2.021-4.353-11.159s.525-15.466,1.928-19.771l1.753-6.678s-5.083-7.909-19.28-9.754c0,0-9.552-.878-11.744,1.406,0,0-5.783,21.7-13.671,31.371,0,0-1.665,6.414-19.192,10.017l-20.682,4.481s-9.552,2.022-11.041,9.842c0,0-5.785,6.239-2.629,29.437l.876,4.745L824,5061.839l.624,2.139v5.972s-13.051,36.2-15.012,54.03c-1.243,11.3-.508,53.079.2,82.169-.04,14.921.643,47.164.643,47.164s-1.942,14.148,17.03,20.419c0,0,17.525,12.541,45.983,2.25l37.3-9.646a24.469,24.469,0,0,0,10.933-21.063c-.442-14.246-.686-23.4-.688-23.466l-2.368-88.761s-1.651-18.413-4.277-31.888a58.5,58.5,0,0,0-1.965-10.379c-2.32-7.285-11.481-22.156-11.481-22.156s-1.355-3.927-.489-7.08l3.746-23.512,8.238-33.218,5.617-10.358s7.428-9.686,6.477-17.767l-2.733-9.507s-.231-8.091-.073-13.664c.038-1.2.1-2.263.179-3.081l3.388-12.185.05-.471.02-.074.64-6.012h-.015l.473-4.458S927.255,4922.2,923.866,4919.388Z" transform="translate(-798.481 -4857.392)" fill="#fff"/>
        <path id="Trazado_107502" data-name="Trazado 107502" d="M851.64,5280.329c-14.748,0-23.63-5.822-24.348-6.312-18.975-6.3-17.237-20.635-17.217-20.779-.01-.268-.686-32.361-.646-47.117-.762-31.388-1.414-71.139-.2-82.206,1.906-17.334,14.42-52.407,15.01-54.054V5064l-.61-2.091-23.351-112.66-.877-4.752c-3-22.023,1.966-28.841,2.648-29.657,1.573-7.88,11.2-10,11.292-10.024l20.681-4.48c17.03-3.5,18.913-9.706,18.93-9.768l.066-.13c7.75-9.5,13.547-31.023,13.6-31.24l.022-.086.063-.064c2.278-2.377,11.627-1.549,12.024-1.511,14.208,1.846,19.33,9.583,19.54,9.911l.082.129-1.791,6.824c-1.461,4.483-2.085,10.913-1.917,19.678s4.119,10.834,4.158,10.854c4.263,2.853,15.587,7.764,15.7,7.814a85.9,85.9,0,0,1,9.548,6.348c3.5,2.907,2.726,7.96,2.692,8.174l-1.167,10.994-3.4,12.241c-.068.7-.127,1.732-.166,3-.15,5.287.054,12.95.072,13.6l2.72,9.464c.968,8.183-6.227,17.674-6.534,18.074l-5.566,10.273-8.228,33.176-3.741,23.482c-.835,3.047.46,6.875.474,6.914.059.08,9.178,14.921,11.485,22.163a58.263,58.263,0,0,1,1.977,10.446c2.6,13.311,4.263,31.711,4.279,31.9l2.37,88.784c.01.381.252,9.462.688,23.464.444,14.335-10.988,21.3-11.1,21.371l-.09.038-37.3,9.646A64.1,64.1,0,0,1,851.64,5280.329ZM853.6,4890.82c-.257.791-2.725,6.758-19.435,10.193l-20.678,4.479c-.094.021-9.346,2.07-10.774,9.569l-.018.1-.067.073c-.056.063-5.627,6.467-2.541,29.156l.874,4.729,23.343,112.625.631,2.21-.02,6.088c-.13.362-13.06,36.369-14.994,53.951-1.215,11.029-.562,50.746.2,82.123-.04,14.756.635,46.842.643,47.165-.021.193-1.668,14,16.792,20.1l.093.048c.174.124,17.727,12.308,45.663,2.207l37.284-9.644c.735-.46,11.143-7.234,10.724-20.729-.435-14-.678-23.086-.688-23.456l-2.368-88.774c-.015-.161-1.678-18.527-4.271-31.83a57.873,57.873,0,0,0-1.954-10.342c-2.281-7.16-11.356-21.929-11.447-22.079-.09-.233-1.413-4.134-.527-7.354l3.738-23.473,8.275-33.33,5.617-10.358c.1-.142,7.362-9.714,6.438-17.561l-2.736-9.538c0-.081-.229-8.166-.073-13.684.041-1.282.1-2.327.18-3.105l3.4-12.243.071-.544,1.087-10.413c.011-.067.745-4.9-2.448-7.546a85.514,85.514,0,0,0-9.415-6.264c-.433-.185-11.462-4.968-15.737-7.833-.136-.062-4.329-2.2-4.506-11.442-.169-8.843.467-15.347,1.946-19.885l1.707-6.5c-.717-1-6.055-7.8-18.95-9.477-2.569-.236-9.584-.468-11.388,1.243C866.852,4861.009,861.166,4881.5,853.6,4890.82Z" transform="translate(-798.452 -4857.364)" fill="#999"/>
      </g>
      <path id="Trazado_107503" data-name="Trazado 107503" d="M932.217,4979.777l-5.588-15.879c-1.8-5.751-3.308-14.576-4.764-23.112-1.918-11.248-3.9-22.878-6.485-26.727l.576-.386c2.664,3.973,4.573,15.157,6.592,27,1.453,8.512,2.955,17.314,4.738,23.01l5.584,15.868Z" transform="translate(-806.605 -4839.791)" fill="#999"/>
      <path id="Trazado_107504" data-name="Trazado 107504" d="M867.682,5085.435q-1.064,0-2.163-.012c-27.844-.29-39.535-6.575-39.649-6.639l.336-.606c.113.062,11.681,6.263,39.321,6.552,24.448.239,36.083-3.9,36.2-3.941l.239.651C901.851,5081.481,890.805,5085.435,867.682,5085.435Z" transform="translate(-799.848 -4852.21)" fill="#999"/>
      <path id="Trazado_107505" data-name="Trazado 107505" d="M868.212,5094.691q-1.309,0-2.615-.049c-26.064-1-38.436-7.017-38.557-7.077l.309-.622c.12.06,12.381,6.016,38.276,7,17.935.694,36.83-6.111,37.019-6.181l.239.652C902.7,5088.486,885.478,5094.691,868.212,5094.691Z" transform="translate(-799.936 -4852.872)" fill="#999"/>
      <path id="Trazado_107506" data-name="Trazado 107506" d="M873.536,5094.277l-2.677-2.676,2.087-2.862-2.623-2.848.509-.47,3.009,3.268-2.073,2.842,2.256,2.255Z" transform="translate(-803.204 -4852.757)" fill="#999"/>
      <path id="Trazado_107507" data-name="Trazado 107507" d="M877.718,5094.277l-2.675-2.676,2.086-2.862-2.623-2.848.509-.47,3.009,3.268-2.072,2.842,2.256,2.255Z" transform="translate(-803.52 -4852.757)" fill="#999"/>
      <path id="Trazado_107508" data-name="Trazado 107508" d="M881.98,5094.026l-2.495-2.6,1.945-2.78-2.444-2.766.52-.459,2.805,3.174-1.932,2.762,2.1,2.189Z" transform="translate(-803.858 -4852.756)" fill="#999"/>
      <path id="Trazado_107509" data-name="Trazado 107509" d="M886.236,5093.452l-2.5-2.459,1.938-2.609-2.414-2.575.506-.475,2.81,3-1.921,2.589,2.072,2.037Z" transform="translate(-804.18 -4852.75)" fill="#999"/>
      <path id="Trazado_107510" data-name="Trazado 107510" d="M890.045,5092.811l-2.5-2.459,1.938-2.609-2.414-2.575.506-.475,2.811,3-1.923,2.589,2.073,2.037Z" transform="translate(-804.468 -4852.702)" fill="#999"/>
      <path id="Trazado_107511" data-name="Trazado 107511" d="M851.122,5093.2l-2.415-2.848,2.351-2.542-2.328-2.984.547-.426,2.69,3.448-2.335,2.524,2.018,2.38Z" transform="translate(-801.572 -4852.68)" fill="#999"/>
      <path id="Trazado_107512" data-name="Trazado 107512" d="M855.285,5093.619l-2.416-2.848,2.351-2.542-2.328-2.985.547-.426,2.69,3.449-2.335,2.523,2.019,2.38Z" transform="translate(-801.886 -4852.711)" fill="#999"/>
      <path id="Trazado_107513" data-name="Trazado 107513" d="M859.766,5094.067l-2.416-2.847,2.352-2.542-2.328-2.984.547-.426,2.69,3.448-2.336,2.524,2.019,2.38Z" transform="translate(-802.224 -4852.745)" fill="#999"/>
      <path id="Trazado_107514" data-name="Trazado 107514" d="M838.113,5090.467l-2.416-2.848,2.352-2.542-2.328-2.985.547-.426,2.689,3.449-2.334,2.524,2.019,2.38Z" transform="translate(-800.59 -4852.473)" fill="#999"/>
      <path id="Trazado_107515" data-name="Trazado 107515" d="M834.039,5089.3l-2.415-2.848,2.351-2.542-2.328-2.984.547-.426,2.69,3.448-2.335,2.524,2.018,2.38Z" transform="translate(-800.282 -4852.384)" fill="#999"/>
      <path id="Trazado_107516" data-name="Trazado 107516" d="M830.677,5088.15l-2.416-2.848,2.352-2.542-2.328-2.984.547-.426,2.69,3.449-2.336,2.523,2.019,2.38Z" transform="translate(-800.028 -4852.298)" fill="#999"/>
      <path id="Trazado_107517" data-name="Trazado 107517" d="M842.275,5091.582l-2.416-2.848,2.352-2.542-2.328-2.985.547-.426,2.69,3.449-2.336,2.523,2.019,2.38Z" transform="translate(-800.904 -4852.557)" fill="#999"/>
      <path id="Trazado_107518" data-name="Trazado 107518" d="M846.757,5092.03l-2.416-2.847,2.351-2.542-2.328-2.984.547-.426,2.69,3.448-2.335,2.524,2.019,2.38Z" transform="translate(-801.242 -4852.591)" fill="#999"/>
      <path id="Trazado_107519" data-name="Trazado 107519" d="M864.008,5094.491l-2.416-2.848,2.352-2.542-2.328-2.984.547-.426,2.689,3.448-2.334,2.524,2.019,2.38Z" transform="translate(-802.545 -4852.777)" fill="#999"/>
      <path id="Trazado_107520" data-name="Trazado 107520" d="M868.161,5094.224l-2.416-2.848,2.352-2.542-2.328-2.984.547-.426,2.689,3.449-2.334,2.524,2.019,2.38Z" transform="translate(-802.858 -4852.757)" fill="#999"/>
      <path id="Trazado_107521" data-name="Trazado 107521" d="M897.852,5090.962l-2.681-2.1,2.02-2.163-2.443-2.071.448-.529,3,2.542-2,2.142,2.084,1.627Z" transform="translate(-805.048 -4852.657)" fill="#999"/>
      <path id="Trazado_107522" data-name="Trazado 107522" d="M901.641,5090.033l-2.681-2.094,2.02-2.165-2.443-2.071.448-.529,3,2.542-2,2.142,2.084,1.628Z" transform="translate(-805.334 -4852.587)" fill="#999"/>
      <path id="Trazado_107523" data-name="Trazado 107523" d="M905.513,5089.075l-2.681-2.095,2.02-2.163-2.443-2.072.448-.529,3,2.543-2,2.142,2.084,1.627Z" transform="translate(-805.626 -4852.515)" fill="#999"/>
      <path id="Trazado_107524" data-name="Trazado 107524" d="M893.519,5091.506l-2.554-2.144,1.936-2.227-2.359-2.148.468-.513,2.859,2.6-1.918,2.206,2.014,1.69Z" transform="translate(-804.73 -4852.685)" fill="#999"/>
      <path id="Trazado_107525" data-name="Trazado 107525" d="M827.965,5281.4c-.063-1.217-6.271-122.07-5.469-151.807a145.146,145.146,0,0,1,11.738-52.865v-4.767l-24.357-112.77.678-.147,24.364,112.844.008,5-.034.071a144.045,144.045,0,0,0-11.7,52.655c-.8,29.71,5.4,150.537,5.467,151.753Z" transform="translate(-798.641 -4843.215)" fill="#999"/>
      <g id="Grupo_55813" data-name="Grupo 55813" transform="translate(10.048 116.548)">
        <rect id="Rectángulo_9864" data-name="Rectángulo 9864" width="0.693" height="0.925" transform="matrix(0.977, -0.213, 0.213, 0.977, 0, 0.148)" fill="#999"/>
        <path id="Trazado_107526" data-name="Trazado 107526" d="M826.53,5278.833l-.1-1.853.691-.036.1,1.851Zm-.2-3.706-.1-1.851.693-.036.1,1.851Zm-.19-3.7-.1-1.851.691-.035.1,1.85Zm-.189-3.7-.1-1.851.693-.034.093,1.849Zm-.188-3.7-.092-1.849.693-.034.092,1.849Zm-.181-3.7-.091-1.849.693-.034.091,1.849Zm-.181-3.7-.09-1.85.693-.032.09,1.848Zm-.178-3.7-.088-1.849.693-.033.088,1.849Zm-.177-3.7-.086-1.849.693-.033.086,1.849Zm-.172-3.7-.086-1.849.693-.032.086,1.849Zm-.17-3.7-.084-1.85.693-.031.084,1.848Zm-.166-3.7-.083-1.849.693-.031.083,1.849Zm-.166-3.7-.081-1.849.693-.031.081,1.849Zm-.162-3.7-.08-1.848.693-.03.08,1.85Zm-.159-3.7-.079-1.849.693-.028.079,1.849Zm-.157-3.7-.077-1.849.693-.028.077,1.849Zm-.154-3.7-.071-1.77.343-.092.347-.015-.347.015.349.065.072,1.771Zm-.151-3.7-.073-1.849.693-.027.073,1.849Zm-.145-3.7-.068-1.773.343-.089.347-.013-.347.013.349.063.069,1.773Zm-.143-3.7-.071-1.85.693-.027.071,1.85Zm-.141-3.7-.068-1.849.693-.025.068,1.849Zm-.135-3.7-.067-1.85.693-.023.067,1.848Zm-.132-3.7-.065-1.854.693-.024.065,1.854Zm-.129-3.707-.063-1.85.693-.024.063,1.85Zm-.123-3.7-.06-1.846.693-.022.06,1.846Zm-.118-3.691-.057-1.844.693-.021.057,1.842Zm-.113-3.693-.054-1.8.691-.074.055,1.849Zm-.108-3.7-.052-1.849.693-.02.052,1.85Zm-.1-3.7-.049-1.85.693-.019.049,1.85Zm-.1-3.7-.045-1.851.693-.016.045,1.849Zm-.089-3.7-.042-1.851.693-.015.042,1.849Zm-.081-3.7-.037-1.852.693-.013.037,1.85Zm-.072-3.7-.033-1.851.693-.013.033,1.851Zm-.063-3.7-.029-1.851.693-.011.029,1.851Zm-.053-3.7-.022-1.851.693-.009.022,1.851Zm-.042-3.7-.016-1.851.693-.005.016,1.851Zm-.027-3.7-.007-1.852.693,0,.007,1.794-.347.057Zm.682-3.7h-.693V5140.1l.693,0Zm.007-3.7-.693,0,.013-1.85.693,0Zm.031-3.7-.693-.006q.011-.942.025-1.852l.693.01Q822.412,5133.617,822.4,5134.554Zm.06-3.7-.693-.014q.018-.943.042-1.851l.693.018Q822.48,5129.918,822.461,5130.859Zm.1-3.694-.693-.023q.032-.948.066-1.85l.693.026Q822.587,5126.217,822.556,5127.165Zm.149-3.689-.693-.033q.047-.961.1-1.852l.692.042Q822.751,5122.52,822.7,5123.475Zm.231-3.68-.692-.058q.078-.918.177-1.851l.69.074Q823.011,5118.884,822.936,5119.8Zm.388-3.667-.688-.086c.077-.61.161-1.225.249-1.841l.687.1Q823.439,5115.218,823.324,5116.128Zm.526-3.652-.684-.111q.148-.915.31-1.83l.682.121Q824,5111.567,823.85,5112.476Zm.644-3.64-.681-.13q.173-.912.361-1.821l.679.139C824.73,5107.627,824.61,5108.232,824.495,5108.836Zm.74-3.619-.678-.146q.2-.907.4-1.807l.675.156C825.5,5104.016,825.364,5104.617,825.234,5105.218Zm.822-3.6-.673-.161q.216-.909.441-1.8l.673.168Q826.274,5100.717,826.056,5101.621Zm.9-3.586-.672-.175q.237-.905.475-1.792l.67.181C827.269,5096.837,827.111,5097.434,826.955,5098.035Zm.963-3.567-.668-.186q.252-.905.507-1.786l.667.193Q828.169,5093.564,827.918,5094.468Zm1.024-3.553-.665-.2q.27-.908.535-1.777l.662.2Q829.213,5090.009,828.943,5090.915Zm1.079-3.538-.661-.208q.286-.913.563-1.768l.66.213Q830.308,5086.466,830.021,5087.376Zm1.136-3.521-.659-.216q.308-.929.59-1.76l.656.224C831.557,5082.654,831.36,5083.239,831.158,5083.855Zm1.189-3.5-.655-.228c.231-.661.439-1.248.62-1.751l.652.235C832.784,5079.108,832.576,5079.693,832.347,5080.351Zm1.253-3.484-.65-.242.11-.292v-1.416h.693l-.022,1.6Zm.154-3.8h-.693v-1.247l-.12-.516.677-.148.129.59Zm-1.209-3.57-.395-1.807.677-.148.395,1.807Zm-.79-3.613-.394-1.807.677-.148.395,1.806Zm-.79-3.613-.4-1.807.677-.147.4,1.806Zm-.79-3.613-.395-1.808.677-.149.4,1.808Zm-.79-3.615-.395-1.807.677-.148.395,1.806Zm-.79-3.613-.395-1.807.677-.147.4,1.807Zm-.79-3.613-.4-1.807.678-.148.395,1.807Zm-.79-3.614-.395-1.806.677-.148.4,1.806Zm-.79-3.613-.395-1.806.678-.149.394,1.807Zm-.79-3.614-.395-1.807.677-.148.4,1.807Zm-.79-3.613-.4-1.807.678-.148.395,1.808Zm-.791-3.613-.394-1.807.677-.148.395,1.807Zm-.79-3.613-.395-1.807.678-.147.394,1.806Zm-.79-3.613-.395-1.806.677-.149.4,1.807Zm-.789-3.614-.4-1.807.678-.148.395,1.807Zm-.791-3.613-.394-1.807.677-.147.395,1.806Zm-.79-3.613-.395-1.807.678-.148.394,1.807Zm-.79-3.613-.4-1.808.677-.148.4,1.808Zm-.79-3.614-.4-1.806.678-.149.395,1.807Zm-.791-3.614-.395-1.807.677-.148.395,1.807Zm-.79-3.613-.4-1.807.678-.147.395,1.806Zm-.79-3.614-.4-1.806.677-.148.4,1.807Zm-.79-3.613-.4-1.807.678-.148.395,1.807Zm-.79-3.613-.395-1.806.677-.149.395,1.808Zm-.79-3.614-.4-1.807.678-.148.4,1.808Zm-.79-3.614-.4-1.807.677-.147.4,1.806Zm-.791-3.613-.395-1.807.678-.148.395,1.807Zm-.79-3.613-.395-1.807.677-.148.395,1.807Zm-.79-3.614-.4-1.806.678-.149.4,1.808Zm-.79-3.613-.4-1.808.677-.148.4,1.807Z" transform="translate(-808.64 -4960.044)" fill="#999"/>
        <rect id="Rectángulo_9865" data-name="Rectángulo 9865" width="0.693" height="0.92" transform="translate(17.98 320.476) rotate(-3.093)" fill="#999"/>
      </g>
      <g id="Grupo_55814" data-name="Grupo 55814" transform="translate(12.114 115.296)">
        <path id="Trazado_107527" data-name="Trazado 107527" d="M811.024,4959.521l-.2-.9.677-.15.2.9Z" transform="translate(-810.826 -4958.468)" fill="#999"/>
        <path id="Trazado_107528" data-name="Trazado 107528" d="M829.37,5279.088l-.1-1.845.692-.038.1,1.843Zm-.205-3.688-.1-1.842.691-.038.1,1.841Zm-.207-3.683-.1-1.842.692-.04.1,1.842Zm-.207-3.685-.1-1.841.692-.037.1,1.84Zm-.205-3.683-.1-1.839.692-.04.1,1.842Zm-.206-3.68-.1-1.841.692-.038.1,1.841Zm-.2-3.682-.1-1.84.692-.038.1,1.84Zm-.2-3.68-.1-1.841.692-.038.1,1.841Zm-.2-3.682-.1-1.84.692-.038.1,1.841Zm-.2-3.679-.1-1.841.692-.036.1,1.841Zm-.193-3.682-.1-1.841.692-.036.1,1.84Zm-.19-3.682-.1-1.84.692-.036.1,1.84Zm-.189-3.679-.094-1.843.693-.034.093,1.841Zm-.187-3.684-.091-1.839.693-.034.092,1.84Zm-.182-3.679-.09-1.841.693-.034.09,1.841Zm-.179-3.682-.089-1.84.693-.034.089,1.842Zm-.176-3.68-.087-1.841.693-.033.087,1.842Zm-.174-3.682-.085-1.842.693-.03.085,1.84Zm-.169-3.68-.082-1.841.693-.031.082,1.841Zm-.166-3.683-.081-1.841.693-.03.081,1.841Zm-.161-3.682-.079-1.841.693-.028.08,1.839Zm-.157-3.681-.078-1.842.693-.029.078,1.84Zm-.154-3.688-.075-1.847.693-.026.071,1.772-.343.087Zm-.148-3.69-.072-1.842.693-.027.072,1.842Zm-.143-3.68-.07-1.84.693-.025.07,1.838Zm-.138-3.675-.067-1.835.693-.025.067,1.835Zm-.132-3.675-.065-1.844.693-.023.062,1.776-.344.077Zm-.127-3.684-.061-1.843.693-.021.061,1.84Zm-.12-3.685-.056-1.841.693-.022.056,1.842Zm-.112-3.685-.054-1.842.693-.02.054,1.842Zm-.1-3.683-.049-1.842.693-.019.049,1.842Zm-.1-3.684-.044-1.778.692-.081.045,1.841Zm-.087-3.687-.04-1.843.693-.013.04,1.842Zm-.077-3.684-.033-1.843.693-.013.033,1.842Zm-.063-3.686-.027-1.843.693-.01.027,1.842Zm-.052-3.687-.019-1.844.693-.006.018,1.843Zm-.034-3.686-.011-1.844.693,0,.011,1.842Zm-.018-3.687v-1.844h.693v1.842Zm.7-3.683-.693,0,.01-1.843.693,0Zm.028-3.68-.693-.009.027-1.843.693.011Zm.063-3.681-.693-.016q.022-.94.047-1.842l.693.019Q824.626,5130.853,824.605,5131.789Zm.105-3.675-.693-.025q.035-.946.074-1.844l.693.032Q824.744,5127.169,824.711,5128.114Zm.164-3.674-.692-.038q.053-.954.112-1.842l.692.047C824.946,5123.2,824.909,5123.809,824.874,5124.44Zm.251-3.663-.692-.059q.081-.924.169-1.751l.011-.095.688.084-.008.079C825.234,5119.589,825.177,5120.168,825.126,5120.777Zm.385-3.651-.688-.081q.108-.93.221-1.831l.688.087Q825.619,5116.2,825.51,5117.126Zm.458-3.647-.688-.092c.084-.62.168-1.228.254-1.827l.686.1Q826.093,5112.553,825.968,5113.479Zm.522-3.64-.686-.1c.1-.618.191-1.225.289-1.821l.684.112Q826.631,5108.917,826.49,5109.839Zm.594-3.625-.682-.119c.107-.616.216-1.223.326-1.813l.681.125Q827.246,5105.292,827.084,5106.214Zm.673-3.611-.68-.135q.186-.924.372-1.806l.68.144Q827.94,5101.685,827.757,5102.6Zm.765-3.591-.676-.153q.209-.923.423-1.8l.674.164Q828.731,5098.1,828.521,5099.012Zm.866-3.562-.67-.178q.241-.92.482-1.78l.668.186Q829.628,5094.532,829.388,5095.449Zm.99-3.532-.664-.2q.277-.92.552-1.763l.659.215Q830.653,5091,830.378,5091.917Zm1.137-3.484-.654-.229q.322-.918.64-1.736l.646.25C831.94,5087.256,831.728,5087.827,831.515,5088.433Zm1.319-3.41-.638-.271q.391-.921.757-1.693l.626.3C833.34,5083.863,833.091,5084.417,832.834,5085.022Zm1.564-3.295-.61-.328c.313-.583.629-1.125.936-1.611l.586.37C835.011,5080.632,834.7,5081.159,834.4,5081.728Zm1.994-3.057-.334-.245H835.8v-1.761h.693v1.9Zm.1-3.847H835.8v-1.841h.693Zm-.917-3.583-.394-1.8.677-.147.395,1.8Zm-.789-3.6-.4-1.8.678-.148.395,1.8Zm-.791-3.6-.395-1.8.677-.147.4,1.8Zm-.789-3.6-.4-1.8.678-.148.395,1.8Zm-.791-3.6-.395-1.8.677-.148.4,1.8Zm-.789-3.6-.4-1.8.678-.147.395,1.8Zm-.79-3.6-.4-1.8.677-.148.4,1.8Zm-.79-3.6-.4-1.8.678-.148.395,1.8Zm-.791-3.6-.4-1.8.677-.148.4,1.8Zm-.791-3.6-.395-1.8.678-.148.394,1.8Zm-.79-3.6-.4-1.8.677-.147.4,1.8Zm-.791-3.6-.395-1.8.678-.148.395,1.8Zm-.79-3.6-.4-1.8.677-.148.4,1.8Zm-.791-3.6-.4-1.8.678-.147.4,1.8Zm-.79-3.6-.4-1.8.677-.148.4,1.8Zm-.791-3.6-.4-1.8.678-.148.4,1.8Zm-.79-3.6-.4-1.8.677-.148.4,1.8Zm-.791-3.6-.4-1.8.678-.148.4,1.8Zm-.79-3.6-.395-1.8.677-.147.395,1.8Zm-.79-3.6-.395-1.8.677-.149.4,1.8Zm-.79-3.6-.395-1.8.677-.148.395,1.8Zm-.79-3.6-.395-1.8.677-.147.4,1.8Zm-.79-3.6-.4-1.8.678-.148.395,1.8Zm-.791-3.6-.395-1.8.677-.148.4,1.8Zm-.79-3.6-.4-1.8.678-.148.395,1.8Zm-.79-3.6-.395-1.8.677-.148.4,1.8Zm-.79-3.6-.4-1.8.678-.148.395,1.8Zm-.791-3.6-.394-1.8.677-.148.395,1.8Zm-.79-3.6-.4-1.8.678-.148.395,1.8Zm-.791-3.6-.394-1.8.677-.147.395,1.8Zm-.79-3.6-.4-1.8.678-.148.395,1.8Z" transform="translate(-810.874 -4958.688)" fill="#999"/>
        <path id="Trazado_107529" data-name="Trazado 107529" d="M831.547,5308.092l-.469-.51.228.26-.344-.037c0-.076-.007-.369-.033-.865l.693-.034C831.675,5307.968,831.675,5307.968,831.547,5308.092Z" transform="translate(-812.343 -4984.773)" fill="#999"/>
      </g>
      <path id="Trazado_107530" data-name="Trazado 107530" d="M901.631,5271.481a.463.463,0,0,1-.462-.46c0-.531-.217-53.633-.8-102.44-.048-4.013-.089-8-.129-11.938-.328-32.256-.613-60.113-4.557-68.427-6.861-14.465-2.621-52.459.187-77.6.288-2.591.561-5.036.8-7.294.306-2.848.627-5.37.937-7.809,1.069-8.376,1.912-14.994.881-26.034-1.291-13.85-8.195-54.142-8.489-55.854-.236-.581-1.768-4.991-.012-18.2,1.837-13.817,2.455-20.3,2.46-20.362a.487.487,0,0,1,.5-.417.462.462,0,0,1,.417.5c-.006.063-.625,6.561-2.464,20.4-1.808,13.6-.055,17.716-.038,17.756a.441.441,0,0,1,.035.113c.072.418,7.192,41.862,8.508,55.977,1.039,11.145.19,17.8-.885,26.238-.311,2.435-.631,4.953-.937,7.792-.243,2.258-.516,4.705-.805,7.3-2.795,25.039-7.018,62.875-.268,77.1,4.029,8.5,4.315,36.449,4.645,68.814.04,3.934.081,7.923.129,11.937.587,48.811.8,101.916.8,102.446a.462.462,0,0,1-.46.464Z" transform="translate(-804.626 -4836.844)" fill="#4d4d4d"/>
      <path id="Trazado_107531" data-name="Trazado 107531" d="M872.092,5281.155a.455.455,0,0,1-.462-.465c.006-1.387.68-138.8,1.08-146.682.4-7.827-2.236-28.65-2.263-28.86l-3.2-20-1.686-33.091c0-.421-.316-40.272.12-50.764.122-2.937.379-6.127.627-9.212.651-8.09,1.324-16.455-.283-21.449-2.225-6.909-15.6-34.76-15.734-35.041l-4.037-11.138c-.041-.115-3.968-11.174-8.818-14.9l-5.017-3.859a.462.462,0,1,1,.564-.733l5.016,3.859c5.068,3.9,8.962,14.861,9.125,15.326l4.018,11.09c.533,1.105,13.519,28.147,15.763,35.116,1.664,5.168.984,13.626.325,21.807-.247,3.076-.5,6.257-.624,9.176-.436,10.469-.125,50.3-.121,50.7l1.681,33.022,3.2,19.968c.029.225,2.673,21.13,2.271,29.038-.4,7.857-1.072,145.253-1.078,146.64A.461.461,0,0,1,872.092,5281.155Z" transform="translate(-800.329 -4839.125)" fill="#4d4d4d"/>
      <path id="Trazado_107532" data-name="Trazado 107532" d="M881.893,5364.361l-11.828,2.482v-54.211l11.828-3.423Z" transform="translate(-803.184 -4869.65)" fill="#404040"/>
      <path id="Trazado_107533" data-name="Trazado 107533" d="M881.893,5412.978v-36.011l-11.828,3.422v32.589Z" transform="translate(-803.184 -4874.766)" fill="#404040"/>
      <rect id="Rectángulo_9866" data-name="Rectángulo 9866" width="0.925" height="109.928" transform="translate(16.085 429.802) rotate(-8.081)" fill="#404040"/>
      <rect id="Rectángulo_9867" data-name="Rectángulo 9867" width="0.924" height="102.392" transform="matrix(0.99, -0.139, 0.139, 0.99, 25.144, 437.246)" fill="#404040"/>
      <rect id="Rectángulo_9868" data-name="Rectángulo 9868" width="0.924" height="99.925" transform="matrix(0.991, -0.135, 0.135, 0.991, 31.59, 439.62)" fill="#404040"/>
      <rect id="Rectángulo_9869" data-name="Rectángulo 9869" width="0.924" height="94.763" transform="translate(42.556 444.525) rotate(-6.769)" fill="#404040"/>
      <rect id="Rectángulo_9870" data-name="Rectángulo 9870" width="0.924" height="94.579" transform="translate(52.684 444.517) rotate(-5.753)" fill="#404040"/>
      <rect id="Rectángulo_9871" data-name="Rectángulo 9871" width="0.925" height="94.288" transform="translate(58.954 444.5) rotate(-3.594)" fill="#404040"/>
      <rect id="Rectángulo_9872" data-name="Rectángulo 9872" width="0.925" height="98.659" transform="translate(81.623 439.563) rotate(-0.639)" fill="#404040"/>
      <rect id="Rectángulo_9873" data-name="Rectángulo 9873" width="0.925" height="101.031" transform="translate(91.27 437.183) rotate(-0.214)" fill="#404040"/>
      <rect id="Rectángulo_9874" data-name="Rectángulo 9874" width="104.409" height="0.925" transform="translate(99.332 538.205) rotate(-89.217)" fill="#404040"/>
      <rect id="Rectángulo_9875" data-name="Rectángulo 9875" width="106.519" height="0.925" transform="translate(105.868 538.199) rotate(-88.434)" fill="#404040"/>
      <rect id="Rectángulo_9876" data-name="Rectángulo 9876" width="107.516" height="0.925" transform="translate(111.653 538.194) rotate(-87.875)" fill="#404040"/>
      <rect id="Rectángulo_9877" data-name="Rectángulo 9877" width="117.925" height="0.924" transform="matrix(0.045, -0.999, 0.999, 0.045, 116.015, 538.191)" fill="#404040"/>
      <path id="Trazado_107534" data-name="Trazado 107534" d="M848.286,5373.3c-8.359,0-16.765-1.111-21.134-4.9-2.468-2.14-3.447-4.32-2.908-6.474,1.59-6.357,15.906-9.89,16.05-9.922,2.974-.678,31.354-7.1,31.354-7.1l.039-.008,7.4-1.018c1.245-.2,30.8-4.694,37.087,3.389,1.612,2.072,2.226,4.007,1.826,5.751-.7,3.059-4.255,4.808-6.847,6.085a12.624,12.624,0,0,0-2.12,1.181c-2.111,1.786-33.583,9.871-37.164,10.787A144.543,144.543,0,0,1,848.286,5373.3Zm23.547-27.492c-.834.189-28.4,6.43-31.333,7.1s-14.093,4.189-15.359,9.245c-.448,1.791.433,3.659,2.615,5.552,10.007,8.678,43.571,2.532,43.909,2.468,13.954-3.57,35.293-9.343,36.767-10.591a12.789,12.789,0,0,1,2.309-1.3c2.426-1.2,5.749-2.832,6.354-5.463.335-1.458-.221-3.134-1.654-4.977-5.954-7.654-35.923-3.088-36.223-3.042Z" transform="translate(-799.714 -4872.161)" fill="#404040"/>
      <path id="Trazado_107535" data-name="Trazado 107535" d="M849.8,5410.61c-8.361,0-16.767-1.11-21.136-4.9-2.468-2.14-3.447-4.317-2.909-6.473,1.591-6.357,15.907-9.89,16.05-9.922,2.975-.678,31.354-7.1,31.354-7.1l.039-.006,7.4-1.019c1.247-.194,30.8-4.691,37.087,3.389,1.611,2.072,2.225,4.008,1.824,5.751-.7,3.059-4.253,4.808-6.846,6.085a12.731,12.731,0,0,0-2.119,1.18c-2.111,1.787-33.583,9.871-37.164,10.787A144.611,144.611,0,0,1,849.8,5410.61Zm23.545-27.491c-.835.188-28.4,6.429-31.333,7.1s-14.094,4.188-15.359,9.245c-.448,1.789.432,3.657,2.615,5.551,10.008,8.679,43.571,2.531,43.909,2.468,13.954-3.571,35.293-9.344,36.766-10.592a12.769,12.769,0,0,1,2.309-1.3c2.426-1.195,5.748-2.831,6.353-5.463.336-1.458-.221-3.133-1.653-4.977-5.954-7.653-35.922-3.086-36.223-3.042Z" transform="translate(-799.829 -4874.977)" fill="#404040"/>
      <g id="Grupo_55815" data-name="Grupo 55815" transform="translate(23.004 131.026)">
        <path id="Trazado_107536" data-name="Trazado 107536" d="M924.683,4993.58l-28.087-4.826s-29.859-6.061-39.664-3.209-31.018,8.556-31.018,8.556l-2.852-9.32s27.275-12.071,50.182-8.15,50.181,7.487,50.181,7.487l2.15.237A11.849,11.849,0,0,1,924.683,4993.58Z" transform="translate(-822.639 -4975.51)" fill="#fff"/>
        <path id="Trazado_107537" data-name="Trazado 107537" d="M825.645,4994.5l-3.04-9.934.282-.125c.274-.122,27.635-12.069,50.38-8.173,22.638,3.875,49.9,7.449,50.167,7.484l2.357.26.074.2a12.081,12.081,0,0,1-.915,9.514l-.121.212-.24-.042-28.086-4.826c-.308-.061-29.9-6.017-39.509-3.216-9.7,2.819-30.813,8.5-31.025,8.557Zm-2.2-9.545,2.664,8.7c2.709-.729,21.658-5.84,30.688-8.468,9.775-2.84,38.607,2.953,39.829,3.2l27.835,4.781a11.621,11.621,0,0,0,.815-8.52l-1.928-.213c-.28-.037-27.55-3.612-50.2-7.49C851.852,4973.3,826.4,4983.7,823.449,4984.95Z" transform="translate(-822.605 -4975.482)" fill="#999"/>
      </g>
      <g id="Grupo_55816" data-name="Grupo 55816" transform="translate(124.133 139.872)">
        <path id="Trazado_107538" data-name="Trazado 107538" d="M933.116,4991.8l4.194-2.939,1.938.6s.823.276.823-.512l-1.6-3.238s-.779-1.386-1.413-.135l-.63,2.283-3.816,2.947-.618,1.059Z" transform="translate(-931.992 -4985.052)" fill="#666"/>
      </g>
      <g id="Grupo_55817" data-name="Grupo 55817" transform="translate(63.335 129.184)">
        <path id="Trazado_107539" data-name="Trazado 107539" d="M867.353,4980.242l4.194-2.939,1.939.6s.823.276.822-.512l-1.6-3.237s-.779-1.387-1.414-.135l-.629,2.283-3.815,2.948-.618,1.059Z" transform="translate(-866.23 -4973.49)" fill="#666"/>
      </g>
      <g id="Grupo_55818" data-name="Grupo 55818" transform="translate(20.333 137.084)">
        <path id="Trazado_107540" data-name="Trazado 107540" d="M826.67,4988.787l-4.194-2.939-1.939.6s-.822.274-.822-.513l1.6-3.237s.779-1.387,1.414-.135l.629,2.282,3.815,2.947.618,1.06Z" transform="translate(-819.716 -4982.036)" fill="#666"/>
      </g>
      <path id="Trazado_107541" data-name="Trazado 107541" d="M899.236,4875.446c-14.864,0-28.652-8.776-28.8-8.87l.375-.582c.149.1,15.1,9.593,30.512,8.7l.042.691C900.656,4875.426,899.944,4875.446,899.236,4875.446Z" transform="translate(-803.213 -4836.191)" fill="#999"/>
      <g id="Grupo_55822" data-name="Grupo 55822" transform="translate(76.416)">
        <g id="Grupo_55819" data-name="Grupo 55819" transform="translate(0.917)">
          <path id="Trazado_107542" data-name="Trazado 107542" d="M895.711,4843.205c0-4.941-3.1-8.947-6.92-8.947s-6.92,4.006-6.92,8.947c0,3.865,1.9,7.147,4.552,8.4v8.556h5.228v-8.812C894.045,4849.938,895.711,4846.826,895.711,4843.205Z" transform="translate(-881.409 -4833.795)" fill="#fff"/>
          <path id="Trazado_107543" data-name="Trazado 107543" d="M892.076,4860.584h-6.154v-8.732c-2.735-1.446-4.551-4.892-4.551-8.684,0-5.188,3.312-9.41,7.382-9.41s7.382,4.222,7.382,9.41c0,3.547-1.586,6.808-4.06,8.4Zm-5.229-.924h4.3v-8.616l.227-.133c2.328-1.371,3.832-4.41,3.832-7.743,0-4.679-2.9-8.485-6.458-8.485s-6.458,3.807-6.458,8.485c0,3.563,1.722,6.771,4.287,7.981l.264.125Z" transform="translate(-881.371 -4833.758)" fill="#999"/>
        </g>
        <g id="Grupo_55820" data-name="Grupo 55820" transform="translate(0 10.801)">
          <rect id="Rectángulo_9878" data-name="Rectángulo 9878" width="16.229" height="2.616" rx="1.209" transform="translate(0.463 0.462)" fill="#fff"/>
          <path id="Trazado_107544" data-name="Trazado 107544" d="M895.953,4848.98H881.959a1.582,1.582,0,0,1-1.58-1.579v-.381a1.582,1.582,0,0,1,1.58-1.58h13.994a1.582,1.582,0,0,1,1.58,1.58v.381A1.582,1.582,0,0,1,895.953,4848.98Zm-13.994-2.615a.657.657,0,0,0-.655.655v.381a.657.657,0,0,0,.655.655h13.994a.656.656,0,0,0,.656-.655v-.381a.656.656,0,0,0-.656-.655Z" transform="translate(-880.379 -4845.44)" fill="#999"/>
        </g>
        <g id="Grupo_55821" data-name="Grupo 55821" transform="translate(0 5.806)">
          <rect id="Rectángulo_9879" data-name="Rectángulo 9879" width="16.229" height="2.616" rx="1.209" transform="translate(0.463 0.463)" fill="#fff"/>
          <path id="Trazado_107545" data-name="Trazado 107545" d="M895.953,4843.58H881.959a1.582,1.582,0,0,1-1.58-1.58v-.382a1.582,1.582,0,0,1,1.58-1.58h13.994a1.582,1.582,0,0,1,1.58,1.58V4842A1.582,1.582,0,0,1,895.953,4843.58Zm-13.994-2.617a.657.657,0,0,0-.655.656V4842a.658.658,0,0,0,.655.655h13.994a.657.657,0,0,0,.656-.655v-.382a.657.657,0,0,0-.656-.656Z" transform="translate(-880.379 -4840.038)" fill="#999"/>
        </g>
      </g>
      <g id="Grupo_55823" data-name="Grupo 55823" transform="translate(0 77.465)">
        <ellipse id="Elipse_4330" data-name="Elipse 4330" cx="10.732" cy="23.213" rx="10.732" ry="23.213" transform="translate(0.463 0.463)" fill="#fff"/>
        <path id="Trazado_107546" data-name="Trazado 107546" d="M808.919,4964.9c-6.173,0-11.2-10.621-11.2-23.676s5.023-23.676,11.2-23.676,11.194,10.621,11.194,23.676S815.091,4964.9,808.919,4964.9Zm0-46.427c-5.664,0-10.271,10.206-10.271,22.751s4.608,22.751,10.271,22.751,10.269-10.207,10.269-22.751S814.581,4918.473,808.919,4918.473Z" transform="translate(-797.723 -4917.549)" fill="gray"/>
      </g>
      <ellipse id="Elipse_4331" data-name="Elipse 4331" cx="2.26" cy="2.975" rx="2.26" ry="2.975" transform="translate(7.931 98.167)" fill="#454545"/>
      <path id="Trazado_107547" data-name="Trazado 107547" d="M810.251,4917.314l-.911-.16c.054-.307,1.443-7.56,12.925-9.9l.184.907C811.621,4910.367,810.3,4917.031,810.251,4917.314Z" transform="translate(-798.6 -4839.306)" fill="gray"/>
      <g id="Grupo_55824" data-name="Grupo 55824" transform="translate(9.876 228.713)">
        <path id="Trazado_107548" data-name="Trazado 107548" d="M817.2,5347.151s19.156,16.561,48.556,11.736,32.579-8.722,33.132-9.224.771-45.574.738-57.634c-.021-7.587,2.929-45.99,2.468-72.38-.272-15.564-2.251-61.259-2.251-61.259s-4.934-34.271-7.013-41.33-4.727-18.993-5.055-20.872-1.057-8.417-1.253-11.781l-10.475.384-3.739.186-6.978.314h-5.643l-5.432-.543-10.01-.83a68.158,68.158,0,0,1-11.771-1.481c-6.685-1.355-7.614-.56-7.614-.56s-.155,2.533-.585,5.446c-1.607,10.885-9.792,29.323-11.844,42.18-.907,5.684-2.373,15.259-2.627,21.009-.374,8.468-.558,19.762-.85,33.443-.483,22.671,2.779,80.392,2.779,80.392Z" transform="translate(-808.443 -5081.184)" fill="#ccc"/>
        <path id="Trazado_107549" data-name="Trazado 107549" d="M855.125,5360.185c-23.246,0-38.1-12.575-38.267-12.722a.467.467,0,0,1-.159-.318l-5.467-82.8c-.032-.583-3.256-58-2.778-80.433l.154-7.5c.21-10.236.391-19.078.694-25.95.278-6.315,2.051-17.414,2.632-21.061,1.058-6.625,3.719-14.678,6.293-22.465,2.454-7.427,4.772-14.441,5.55-19.709.422-2.859.58-5.381.581-5.406a.459.459,0,0,1,.16-.324c.258-.222,1.6-.841,8.008.458a68.427,68.427,0,0,0,11.681,1.472l10.045.832,5.441.544,5.6,0,10.694-.5,10.48-.385a.457.457,0,0,1,.479.436c.2,3.482.937,9.95,1.246,11.729.308,1.76,2.969,13.777,5.044,20.82,2.064,7.011,6.825,40,7.027,41.4.024.5,1.987,45.925,2.256,61.317.312,17.875-.943,41.323-1.773,56.839-.393,7.324-.7,13.108-.7,15.548,0,.57.013,57.159-.889,57.977-3.141,3.024-14.971,6.321-33.367,9.339A65.816,65.816,0,0,1,855.125,5360.185Zm-37.517-13.3c1.829,1.489,20.531,16.019,48.034,11.511,25.408-4.17,31.4-7.691,32.8-9.025.484-2.573.714-44.342.678-57.378-.007-2.465.3-8.261.7-15.6.829-15.5,2.085-38.931,1.772-56.773-.268-15.38-2.231-60.79-2.251-61.247-.044-.3-4.948-34.272-6.994-41.219-2.125-7.213-4.748-19.091-5.068-20.923-.33-1.891-1-7.982-1.231-11.381l-10.024.367-10.713.5h-5.663l-5.48-.546-10-.829h0a69.331,69.331,0,0,1-11.823-1.487c-4.872-.989-6.577-.811-7.081-.691-.055.755-.226,2.863-.569,5.192-.79,5.347-3.12,12.4-5.588,19.863-2.562,7.753-5.212,15.77-6.257,22.322-.581,3.633-2.345,14.691-2.622,20.956-.3,6.86-.484,15.7-.693,25.926l-.154,7.506c-.478,22.393,2.744,79.78,2.776,80.356Z" transform="translate(-808.406 -5081.146)" fill="#4d4d4d"/>
      </g>
      <path id="Trazado_107550" data-name="Trazado 107550" d="M834.466,5354.939a.462.462,0,0,1-.461-.436l-9.9-172.944c-.141-1.93-3.38-47.576,3.864-61.361,6.708-12.767,11.445-20.973,12.087-22.079l-1.616-18.537a.462.462,0,1,1,.921-.08l1.629,18.683a.458.458,0,0,1-.061.272c-.049.084-4.965,8.512-12.142,22.17-7.121,13.553-3.794,60.4-3.759,60.872l9.9,172.952a.461.461,0,0,1-.435.487Z" transform="translate(-799.651 -4852.277)" fill="#4d4d4d"/>
      <path id="Trazado_107551" data-name="Trazado 107551" d="M862.669,5132.583l-1.254-35.453,1.256-14.67.921.08-1.254,14.614,1.256,35.4Z" transform="translate(-802.531 -4852.533)" fill="#666"/>
      <path id="Trazado_107552" data-name="Trazado 107552" d="M875.536,5134.363l-1.254-35.453,1.256-14.67.921.079-1.254,14.614,1.256,35.4Z" transform="translate(-803.503 -4852.667)" fill="#666"/>
      <g id="Grupo_55825" data-name="Grupo 55825" transform="translate(27.516 456.748)">
        <path id="Trazado_107553" data-name="Trazado 107553" d="M835.558,5330.441l-5.093-.534-1.071-1.723s-.44-.747-.957-.153l-.915,3.5s-.322,1.558.978,1.029l1.973-1.309,4.812.279,1.161-.394Z" transform="translate(-827.486 -5327.802)" fill="#666"/>
      </g>
      <g id="Grupo_55826" data-name="Grupo 55826" transform="translate(26.291 423.587)">
        <path id="Trazado_107554" data-name="Trazado 107554" d="M834.233,5294.571l-5.093-.534-1.072-1.721s-.44-.748-.957-.153l-.915,3.494s-.322,1.558.978,1.03l1.973-1.31,4.813.28,1.161-.394Z" transform="translate(-826.161 -5291.933)" fill="#666"/>
      </g>
      <g id="Grupo_55827" data-name="Grupo 55827" transform="translate(24.85 393.198)">
        <path id="Trazado_107555" data-name="Trazado 107555" d="M832.674,5261.7l-5.093-.534-1.071-1.722s-.44-.748-.957-.153l-.915,3.495s-.322,1.558.977,1.029l1.973-1.31,4.813.28,1.161-.394Z" transform="translate(-824.602 -5259.063)" fill="#666"/>
      </g>
      <g id="Grupo_55828" data-name="Grupo 55828" transform="translate(21.811 360.644)">
        <path id="Trazado_107556" data-name="Trazado 107556" d="M829.387,5226.49l-5.092-.534-1.073-1.722s-.439-.747-.956-.153l-.916,3.495s-.322,1.558.978,1.029l1.973-1.309,4.813.279,1.161-.394Z" transform="translate(-821.315 -5223.852)" fill="#666"/>
      </g>
      <g id="Grupo_55829" data-name="Grupo 55829" transform="translate(20.44 332.631)">
        <path id="Trazado_107557" data-name="Trazado 107557" d="M827.9,5196.189l-5.093-.534-1.071-1.723s-.44-.747-.957-.152l-.915,3.5s-.322,1.558.978,1.028l1.973-1.31,4.813.28,1.16-.395Z" transform="translate(-819.832 -5193.55)" fill="#666"/>
      </g>
      <g id="Grupo_55830" data-name="Grupo 55830" transform="translate(20.44 309.48)">
        <path id="Trazado_107558" data-name="Trazado 107558" d="M827.9,5171.147l-5.093-.534-1.071-1.723s-.44-.747-.957-.151l-.915,3.494s-.322,1.558.978,1.029l1.973-1.309,4.813.279,1.16-.394Z" transform="translate(-819.832 -5168.509)" fill="#666"/>
      </g>
      <g id="Grupo_55831" data-name="Grupo 55831" transform="translate(21.811 291.03)">
        <path id="Trazado_107559" data-name="Trazado 107559" d="M829.387,5151.191l-5.092-.535-1.073-1.722s-.439-.747-.956-.153l-.916,3.494s-.322,1.558.978,1.03L824.3,5152l4.813.28,1.161-.394Z" transform="translate(-821.315 -5148.552)" fill="#666"/>
      </g>
      <g id="Grupo_55832" data-name="Grupo 55832" transform="translate(24.344 272.58)">
        <path id="Trazado_107560" data-name="Trazado 107560" d="M832.126,5131.235l-5.092-.535-1.072-1.723s-.439-.747-.956-.151l-.915,3.494s-.322,1.558.977,1.029l1.973-1.309,4.813.279,1.161-.394Z" transform="translate(-824.055 -5128.596)" fill="#666"/>
      </g>
      <g id="Grupo_55833" data-name="Grupo 55833" transform="translate(34.772 243.306)">
        <path id="Trazado_107561" data-name="Trazado 107561" d="M843.407,5099.57l-5.092-.534-1.072-1.722s-.439-.747-.956-.153l-.916,3.495s-.322,1.558.978,1.029l1.973-1.309,4.813.279,1.161-.394Z" transform="translate(-835.335 -5096.932)" fill="#666"/>
      </g>
      <g id="Grupo_55834" data-name="Grupo 55834" transform="translate(56.119 245.115)">
        <path id="Trazado_107562" data-name="Trazado 107562" d="M866.5,5101.528l-5.093-.536-1.071-1.722s-.44-.747-.957-.152l-.915,3.493s-.322,1.558.978,1.03l1.973-1.31,4.813.28,1.161-.394Z" transform="translate(-858.425 -5098.889)" fill="#666"/>
      </g>
      <g id="Grupo_55835" data-name="Grupo 55835" transform="translate(66.761 245.737)">
        <path id="Trazado_107563" data-name="Trazado 107563" d="M878.008,5102.2l-5.093-.535-1.072-1.722s-.44-.747-.957-.152l-.915,3.494s-.322,1.558.978,1.029l1.973-1.31,4.813.28,1.161-.394Z" transform="translate(-869.936 -5099.562)" fill="#666"/>
      </g>
      <g id="Grupo_55836" data-name="Grupo 55836" transform="translate(68.016 258.399)">
        <path id="Trazado_107564" data-name="Trazado 107564" d="M879.365,5115.9l-5.093-.535-1.071-1.722s-.44-.748-.957-.153l-.915,3.494s-.322,1.558.978,1.03l1.973-1.31,4.813.28,1.16-.394Z" transform="translate(-871.293 -5113.257)" fill="#666"/>
      </g>
      <g id="Grupo_55837" data-name="Grupo 55837" transform="translate(69.964 271.064)">
        <path id="Trazado_107565" data-name="Trazado 107565" d="M881.472,5129.6l-5.093-.534-1.071-1.722s-.44-.748-.957-.153l-.915,3.495s-.322,1.558.978,1.029l1.973-1.31,4.813.28,1.16-.394Z" transform="translate(-873.4 -5126.956)" fill="#666"/>
      </g>
      <g id="Grupo_55838" data-name="Grupo 55838" transform="translate(56.678 256.646)">
        <path id="Trazado_107566" data-name="Trazado 107566" d="M867.1,5114l-5.093-.535-1.071-1.722s-.44-.747-.957-.153l-.915,3.5s-.322,1.557.978,1.029l1.973-1.31,4.813.28,1.161-.394Z" transform="translate(-859.029 -5111.361)" fill="#666"/>
      </g>
      <g id="Grupo_55839" data-name="Grupo 55839" transform="translate(56.119 272.006)">
        <path id="Trazado_107567" data-name="Trazado 107567" d="M866.5,5130.614l-5.093-.536-1.071-1.721s-.44-.747-.957-.152l-.915,3.494s-.322,1.557.978,1.029l1.973-1.31,4.813.28,1.161-.394Z" transform="translate(-858.425 -5127.975)" fill="#666"/>
      </g>
      <path id="Trazado_107568" data-name="Trazado 107568" d="M838,5174.157c-24.247,0-27.98-4.245-28.148-4.454l.714-.587c.05.057,5.262,5.534,40.676,3.757,35.937-1.807,48.587-4.82,48.711-4.85l.22.9c-.124.031-12.831,3.064-48.885,4.876C846.29,5174.048,841.884,5174.157,838,5174.157Z" transform="translate(-798.639 -4858.993)" fill="#666"/>
      <path id="Trazado_107569" data-name="Trazado 107569" d="M817.316,5135.1a.448.448,0,0,1-.145-.024.462.462,0,0,1-.294-.583c.462-1.4,11.237-33.924,15.966-38.427l-.32-7.46a.464.464,0,0,1,.443-.482.438.438,0,0,1,.482.443l.329,7.679a.464.464,0,0,1-.168.375c-4.427,3.664-15.74,37.818-15.853,38.163A.463.463,0,0,1,817.316,5135.1Z" transform="translate(-799.167 -4852.961)" fill="#4d4d4d"/>
      <g id="Grupo_55840" data-name="Grupo 55840" transform="translate(33.685 244.039)">
        <path id="Trazado_107570" data-name="Trazado 107570" d="M892.149,5102.027a.462.462,0,0,1-.041-.923l.913-.085a.473.473,0,0,1,.506.416.462.462,0,0,1-.415.505l-.921.085Z" transform="translate(-838.501 -5097.973)" fill="#4d4d4d"/>
        <path id="Trazado_107571" data-name="Trazado 107571" d="M863.448,5103l-.934,0a.462.462,0,0,1,0-.925h0l.935,0,.886,0h0a.462.462,0,0,1,0,.925Zm2.712-.017a.462.462,0,0,1-.006-.924q.917-.012,1.819-.029h.009a.462.462,0,0,1,.009.925q-.907.017-1.827.029Zm-5.47,0h-.006q-.915-.012-1.828-.033a.461.461,0,0,1-.451-.474.445.445,0,0,1,.472-.451c.606.015,1.213.024,1.819.033a.462.462,0,0,1-.006.924Zm9.117-.066a.462.462,0,0,1-.013-.925q.921-.026,1.82-.056a.45.45,0,0,1,.477.448.462.462,0,0,1-.447.477q-.9.03-1.826.056Zm-12.763-.021h-.016q-.919-.031-1.829-.074a.46.46,0,0,1-.44-.482.444.444,0,0,1,.484-.44q.9.04,1.816.072a.462.462,0,0,1-.015.924Zm16.407-.1a.463.463,0,0,1-.018-.925c.618-.024,1.225-.051,1.819-.077a.429.429,0,0,1,.483.441.462.462,0,0,1-.441.481c-.6.027-1.206.055-1.825.079Zm-20.052-.069h-.028q-.919-.056-1.825-.123a.463.463,0,0,1,.068-.923q.9.068,1.813.123a.462.462,0,0,1-.029.923Zm23.7-.1a.462.462,0,0,1-.023-.924q.936-.047,1.819-.1a.444.444,0,0,1,.487.435.462.462,0,0,1-.435.488c-.59.034-1.2.067-1.824.1Zm-27.331-.179h-.043q-.925-.086-1.823-.187a.462.462,0,1,1,.1-.919c.593.066,1.2.127,1.8.185a.462.462,0,0,1-.042.922Zm30.975-.029a.462.462,0,0,1-.03-.923q.953-.061,1.817-.12a.462.462,0,1,1,.064.922c-.577.04-1.186.08-1.822.119Zm3.637-.248a.463.463,0,0,1-.033-.924c.671-.05,1.279-.1,1.816-.14a.473.473,0,0,1,.5.423.461.461,0,0,1-.423.5c-.539.043-1.148.091-1.821.141A.275.275,0,0,1,884.375,5102.173Zm-38.235-.133a.335.335,0,0,1-.063,0q-.928-.126-1.816-.272a.462.462,0,0,1,.148-.912q.878.143,1.792.268a.463.463,0,0,1-.061.921Zm-3.6-.6a.448.448,0,0,1-.092-.009c-.619-.123-1.22-.257-1.8-.4a.462.462,0,1,1,.221-.9c.566.139,1.154.269,1.76.391a.462.462,0,0,1-.091.916Zm-3.54-.875a.442.442,0,0,1-.135-.021c-.624-.191-1.215-.4-1.756-.608a.463.463,0,0,1,.338-.861c.52.2,1.087.4,1.689.585a.463.463,0,0,1-.136.905Z" transform="translate(-834.359 -5097.824)" fill="#4d4d4d"/>
        <path id="Trazado_107572" data-name="Trazado 107572" d="M835.418,5099.111a.457.457,0,0,1-.216-.055q-.438-.231-.829-.48a.463.463,0,0,1,.5-.781c.241.154.5.3.766.446a.462.462,0,0,1-.216.87Z" transform="translate(-834.158 -5097.724)" fill="#4d4d4d"/>
      </g>
    </g>
  </g>
</svg>
