<svg xmlns="http://www.w3.org/2000/svg" width="220.022" height="570.486" viewBox="0 0 220.022 570.486">
  <g id="Grupo_55921" data-name="Grupo 55921" transform="translate(-989.368 -5972.869)">
    <rect id="Rectángulo_9970" data-name="Rectángulo 9970" width="220.022" height="570.486" rx="21.391" transform="translate(989.368 5972.87)" fill="#fff"/>
    <g id="Grupo_55920" data-name="Grupo 55920" transform="translate(1026.852 5992.113)">
      <g id="Grupo_55907" data-name="Grupo 55907" transform="translate(74.423)">
        <g id="Grupo_55904" data-name="Grupo 55904" transform="translate(1.052)">
          <path id="Trazado_107732" data-name="Trazado 107732" d="M1110.093,6001.77c0-5.867-3.555-10.625-7.943-10.625s-7.943,4.758-7.943,10.625c0,4.59,2.179,8.488,5.226,9.974V6021.9h6v-10.466C1108.18,6009.766,1110.093,6006.071,1110.093,6001.77Z" transform="translate(-1093.667 -5990.604)" fill="#fff"/>
          <path id="Trazado_107733" data-name="Trazado 107733" d="M1106.016,6022.488h-7.084v-10.374c-3.14-1.718-5.225-5.8-5.225-10.3,0-6.157,3.805-11.167,8.484-11.167s8.484,5.009,8.484,11.167c0,4.207-1.82,8.078-4.66,9.966Zm-6-1.083h4.918v-10.229l.26-.157c2.673-1.628,4.4-5.242,4.4-9.207,0-5.56-3.321-10.084-7.4-10.084s-7.4,4.525-7.4,10.084c0,4.239,1.978,8.051,4.921,9.487l.3.148Z" transform="translate(-1093.708 -5990.645)" fill="#999"/>
        </g>
        <g id="Grupo_55905" data-name="Grupo 55905" transform="translate(0 12.827)">
          <rect id="Rectángulo_9971" data-name="Rectángulo 9971" width="18.628" height="3.107" rx="1.435" transform="translate(0.541 0.541)" fill="#fff"/>
          <path id="Trazado_107734" data-name="Trazado 107734" d="M1110.352,6006.681h-15.521a2.094,2.094,0,1,1,0-4.187h15.521a2.094,2.094,0,0,1,0,4.188Zm-15.521-3.105a1.011,1.011,0,1,0,0,2.022h15.521a1.011,1.011,0,0,0,0-2.022Z" transform="translate(-1092.736 -6002.493)" fill="#999"/>
        </g>
        <g id="Grupo_55906" data-name="Grupo 55906" transform="translate(0 6.895)">
          <rect id="Rectángulo_9972" data-name="Rectángulo 9972" width="18.628" height="3.107" rx="1.435" transform="translate(0.541 0.542)" fill="#fff"/>
          <path id="Trazado_107735" data-name="Trazado 107735" d="M1110.352,6001.2h-15.521a2.095,2.095,0,1,1,0-4.189h15.521a2.095,2.095,0,0,1,0,4.189Zm-15.521-3.106a1.012,1.012,0,1,0,0,2.024h15.521a1.012,1.012,0,0,0,0-2.024Z" transform="translate(-1092.736 -5997.014)" fill="#999"/>
        </g>
      </g>
      <g id="Grupo_55908" data-name="Grupo 55908" transform="translate(12.066 392.625)">
        <rect id="Rectángulo_9973" data-name="Rectángulo 9973" width="11.692" height="119.244" transform="translate(56.251 20.087)" fill="#313131"/>
        <rect id="Rectángulo_9974" data-name="Rectángulo 9974" width="1.082" height="139.723" transform="translate(0 0.085) rotate(-4.521)" fill="#313131"/>
        <rect id="Rectángulo_9975" data-name="Rectángulo 9975" width="1.083" height="135.126" transform="translate(8.189 4.606) rotate(-4.195)" fill="#313131"/>
        <rect id="Rectángulo_9976" data-name="Rectángulo 9976" width="1.083" height="132.346" transform="matrix(0.998, -0.064, 0.064, 0.998, 13.132, 7.295)" fill="#313131"/>
        <rect id="Rectángulo_9977" data-name="Rectángulo 9977" width="1.083" height="116.362" transform="translate(50.268 22.998) rotate(-1.043)" fill="#313131"/>
        <rect id="Rectángulo_9978" data-name="Rectángulo 9978" width="1.082" height="127.221" transform="translate(25.135 12.354) rotate(-3.309)" fill="#313131"/>
        <rect id="Rectángulo_9979" data-name="Rectángulo 9979" width="1.083" height="113.853" transform="translate(82.182 25.477)" fill="#313131"/>
        <rect id="Rectángulo_9980" data-name="Rectángulo 9980" width="113.862" height="1.083" transform="translate(88.433 139.325) rotate(-89.329)" fill="#313131"/>
        <rect id="Rectángulo_9981" data-name="Rectángulo 9981" width="1.083" height="119.557" transform="translate(100.81 19.774)" fill="#313131"/>
        <rect id="Rectángulo_9982" data-name="Rectángulo 9982" width="1.083" height="123.2" transform="translate(105.08 16.13)" fill="#313131"/>
        <rect id="Rectángulo_9983" data-name="Rectángulo 9983" width="132.108" height="1.083" transform="matrix(0.023, -1, 1, 0.023, 113.536, 139.318)" fill="#313131"/>
        <path id="Trazado_107736" data-name="Trazado 107736" d="M1120.653,6438.033c-21.265,0-39.918-10.561-40.583-10.942-.273-.136-4.383-2.193-9.439-4.625a146.57,146.57,0,0,1-25.523-16.025c-.323-.353-6.369-7.288-4.982-14.379.738-3.77,3.446-6.836,8.049-9.118,16.009-7.933,39.98,2.918,40.993,3.382l38.386,15.594c15.63,6.945,23.444,13.85,23.243,20.53-.247,8.136-12.2,12.7-12.714,12.888A54.983,54.983,0,0,1,1120.653,6438.033Zm-58.725-56.856a29.862,29.862,0,0,0-13.274,2.737c-4.284,2.124-6.8,4.934-7.466,8.357-1.286,6.572,4.605,13.325,4.665,13.393a146.607,146.607,0,0,0,25.246,15.828c5.217,2.508,9.427,4.618,9.468,4.639l.031.018c.3.173,30.007,17.207,57.122,8.167.1-.037,11.77-4.49,11.993-11.9.185-6.2-7.414-12.758-22.585-19.5l-38.392-15.6C1088.541,6387.228,1075.164,6381.176,1061.928,6381.176Z" transform="translate(-1034.742 -6351.103)" fill="#313131"/>
        <path id="Trazado_107737" data-name="Trazado 107737" d="M1116.246,6483.183a53.436,53.436,0,0,1-14.886-1.985l-.005,0a130.566,130.566,0,0,1-12.128-4.873c-14.038-6.753-29.058-14.993-29.209-15.075-.652-.276-17.082-7.381-17.284-14.561-.068-2.434,1.685-4.554,5.209-6.3,16-7.932,39.979,2.917,40.993,3.384l38.386,15.591c10.563,3.712,15.994,7.708,16.118,11.87.145,4.9-7.062,7.987-7.368,8.114A51.212,51.212,0,0,1,1116.246,6483.183Zm-14.547-3.014c.273.087,16.907,5.331,33.953-1.821.068-.027,6.831-2.924,6.706-7.086-.077-2.521-2.814-6.458-15.421-10.888l-38.432-15.611c-.265-.122-24.544-11.106-40.082-3.405-3.111,1.541-4.662,3.324-4.607,5.3.182,6.491,16.511,13.549,16.675,13.619.2.1,15.194,8.331,29.205,15.073A129.17,129.17,0,0,0,1101.7,6480.169Z" transform="translate(-1034.51 -6346.357)" fill="#313131"/>
      </g>
      <g id="Grupo_55909" data-name="Grupo 55909" transform="translate(0 26.147)">
        <path id="Trazado_107738" data-name="Trazado 107738" d="M1164.392,6084.727c-2.637-6.967-6.872-7.627-6.872-7.627l-7.626-3.011-28.994-13.18c-.659-2.542-.094-9.038-.094-9.038.941-6.4,5.648-17.6,5.648-17.6,1.506-4.047.471-6.589.471-6.589-10.355-14.026-25.888-12.332-28.713-12.332s-4.707,3.483-4.707,3.483l-11.39,25.605-43.121,35.585a116.919,116.919,0,0,0-11.8,12.4c-4.613,5.931-1.884,16.8-1.884,16.8l12.615,42.222,21.1,64.225-.06,4.955s-5.639,10.918-8.707,18.04c-3.653,8.478-5.649,15.205-8.284,20.429-7.907,15.674-6.812,37.364-6.812,37.364l-.418,101.008c51.847,34.274,117.5,20.313,117.5,20.313s.508-132.335.107-139.678c-.327-5.986-2.238-26.312-4.184-32.94-1-3.4-4.569-9.284-5.178-13.18-.519-3.316-2.906-6.319-2.071-8.943,3.954-12.426,7.988-20.123,10.544-33.23,3.485-17.875,14.253-31.223,16.193-49.894C1170.442,6112.985,1165.352,6087.265,1164.392,6084.727Z" transform="translate(-1023.949 -6014.757)" fill="#fff"/>
        <path id="Trazado_107739" data-name="Trazado 107739" d="M1119.978,6421.1c-23.82,0-56.877-4.222-85.5-23.141l-.244-.16.418-101.3c-.01-.189-1.011-21.985,6.869-37.607a105.2,105.2,0,0,0,4.114-9.937c1.173-3.1,2.5-6.622,4.157-10.463,2.872-6.667,8.055-16.771,8.665-17.958l.055-4.736-21.07-64.141-12.62-42.235c-.12-.479-2.747-11.222,1.974-17.293a118.161,118.161,0,0,1,11.871-12.473l43.039-35.519,11.34-25.489c.1-.192,2.089-3.805,5.2-3.805.208,0,.486-.009.827-.021,12.316-.4,21.854,3.816,28.32,12.573l.066.119c.046.111,1.1,2.785-.465,6.982-.055.133-4.7,11.234-5.62,17.495,0,.03-.512,6,.025,8.577l28.753,13.069,7.55,2.982c.593.119,4.66,1.168,7.229,7.958h0c1.052,2.782,6.044,28.87,3.283,55.437-1.067,10.285-4.845,19.088-8.5,27.6-3.013,7.023-6.13,14.287-7.7,22.337a130.868,130.868,0,0,1-6.519,21.745c-1.32,3.58-2.683,7.279-4.04,11.546-.448,1.409.2,3.065.889,4.817a18.531,18.531,0,0,1,1.2,3.878c.347,2.221,1.751,5.243,2.989,7.908a42.239,42.239,0,0,1,2.173,5.2c2.028,6.9,3.912,27.7,4.207,33.063.4,7.274-.1,138.386-.107,139.711l0,.436-.426.091A175.472,175.472,0,0,1,1119.978,6421.1Zm-84.654-23.882c48.852,32.121,110.675,21.26,116.414,20.158.031-8.439.49-132.173.107-139.2-.293-5.335-2.162-26-4.165-32.818a42.138,42.138,0,0,0-2.115-5.052c-1.332-2.862-2.707-5.823-3.078-8.2a17.666,17.666,0,0,0-1.139-3.647c-.76-1.938-1.478-3.768-.912-5.542,1.364-4.291,2.734-8,4.057-11.591a130,130,0,0,0,6.47-21.58c1.592-8.164,4.731-15.481,7.768-22.557,3.622-8.441,7.367-17.168,8.417-27.289,2.741-26.38-2.18-52.192-3.22-54.943h0c-2.475-6.543-6.412-7.276-6.452-7.282l-.112-.032-7.625-3.012-29.255-13.3-.066-.25c-.673-2.6-.132-8.951-.108-9.22.945-6.429,5.5-17.308,5.689-17.767a9.544,9.544,0,0,0,.487-6.124c-9.406-12.676-22.911-12.213-27.367-12.071-.356.013-.646.023-.863.023-2.475,0-4.213,3.167-4.232,3.2l-11.424,25.685-.1.082-43.12,35.584a117.139,117.139,0,0,0-11.724,12.317c-4.4,5.652-1.811,16.236-1.784,16.341l12.608,42.2,21.122,64.3-.06,5.173-.059.114c-.056.109-5.666,10.983-8.692,18.006-1.646,3.817-2.968,7.324-4.138,10.416a106.42,106.42,0,0,1-4.16,10.043c-7.753,15.367-6.764,36.877-6.754,37.093Z" transform="translate(-1023.992 -6014.796)" fill="#999"/>
      </g>
      <path id="Trazado_107740" data-name="Trazado 107740" d="M1042.035,6342.427l-1.083-.018,1.145-68.562a87.278,87.278,0,0,1,6.45-23.586c4.833-10.561,13-29.017,13.7-30.579V6214.6l-25.02-86.722c-.054-.157-6.216-18.365-2.641-32.479a48.81,48.81,0,0,1,14.859-24.994c7.409-7.035,24.131-20.534,24.3-20.67l8.255-7.693.737.792-8.284,7.719c-.2.159-16.885,13.632-24.263,20.637a47.827,47.827,0,0,0-14.554,24.475c-3.495,13.8,2.562,31.707,2.623,31.887l25.071,86.9-.046,5.567c-.087.2-8.72,19.711-13.747,30.7a86.235,86.235,0,0,0-6.356,23.2Z" transform="translate(-1023.209 -5986.399)" fill="#999"/>
      <path id="Trazado_107741" data-name="Trazado 107741" d="M1057.4,6347.341l-1.083-.015.918-63.177a74.161,74.161,0,0,1,1.954-15.851,115.612,115.612,0,0,1,5.826-18.345,123.4,123.4,0,0,0,7.311-22.341c0-.058.953-10.98-.995-28.224-1.954-17.312-5.472-50.505-5.507-50.838l-4.093-29.5c-.033-1.184-.645-27.729,5.268-40.685,5.866-12.847,18.1-38.443,18.22-38.7.117-.19,8.633-13.75,11.4-24.513l1.048.271c-2.812,10.929-11.417,24.629-11.5,24.766-.091.2-12.319,25.788-18.18,38.628-5.81,12.726-5.185,39.875-5.177,40.147l4.091,29.452c.038.35,3.554,33.54,5.508,50.849,1.961,17.362,1,28.383.99,28.493a123.989,123.989,0,0,1-7.384,22.613,114.557,114.557,0,0,0-5.771,18.173,73.163,73.163,0,0,0-1.924,15.617Z" transform="translate(-1021.322 -5988.621)" fill="#999"/>
      <path id="Trazado_107742" data-name="Trazado 107742" d="M1142.14,6124.472c-.088,0-.174,0-.262-.007-2.776-.16-5.2-2.852-6.816-7.577a50.71,50.71,0,0,1,1.925-33.36c2.153-4.509,4.862-6.908,7.643-6.742,5.638.326,9.45,11.051,8.679,24.419a45.637,45.637,0,0,1-3.789,16.516C1147.436,6122.088,1144.823,6124.472,1142.14,6124.472Zm2.236-46.611c-2.217,0-4.544,2.221-6.412,6.134a49.654,49.654,0,0,0-1.877,32.542c1.446,4.22,3.58,6.716,5.855,6.848.063,0,.127,0,.191,0,2.217,0,4.544-2.22,6.412-6.134a44.564,44.564,0,0,0,3.685-16.112c.711-12.337-2.8-23-7.662-23.277C1144.5,6077.863,1144.44,6077.86,1144.375,6077.86Z" transform="translate(-1014.979 -5983.53)" fill="#999"/>
      <ellipse id="Elipse_4332" data-name="Elipse 4332" cx="1.519" cy="3.719" rx="1.519" ry="3.719" transform="translate(127.935 112.63)" fill="#999"/>
      <path id="Trazado_107743" data-name="Trazado 107743" d="M1104.912,6216.6h-.469l.009-1.082h.46c1.677,0,3.331-.045,4.915-.135l.061,1.08C1108.283,6216.553,1106.609,6216.6,1104.912,6216.6Zm-5.907-.176c-1.767-.1-3.592-.253-5.424-.448l.114-1.076c1.816.193,3.624.341,5.373.443Zm16.311-.457-.138-1.073c1.82-.233,3.6-.536,5.291-.9l.228,1.059C1118.976,6215.422,1117.166,6215.731,1115.316,6215.968Zm-27.129-.684c-1.776-.266-3.578-.575-5.36-.917l.2-1.063c1.768.339,3.556.646,5.318.91Zm37.793-1.639-.332-1.03a45.442,45.442,0,0,0,4.986-1.93l.45.982A46.051,46.051,0,0,1,1125.979,6213.645Zm-48.474-.414c-3.274-.77-5.26-1.383-5.28-1.389l.319-1.034c.021.006,1.975.608,5.208,1.37Z" transform="translate(-1020.007 -5972.468)" fill="#999"/>
      <path id="Trazado_107744" data-name="Trazado 107744" d="M1073.362,6213.3l-17.049-7.537v-6.216l17.332,6.785Zm-15.966-8.242,14.95,6.61.187-4.609-15.137-5.927Z" transform="translate(-1021.322 -5973.388)" fill="#999"/>
      <path id="Trazado_107745" data-name="Trazado 107745" d="M1059.12,6206.34l-1.666-1.962,1.562-1.688-1.486-1.906.537-.417,1.842,2.36-1.546,1.67,1.276,1.5Z" transform="translate(-1021.227 -5973.321)" fill="#999"/>
      <path id="Trazado_107746" data-name="Trazado 107746" d="M1061.827,6207.645l-1.666-1.963,1.562-1.688-1.486-1.906.536-.417,1.842,2.36-1.546,1.671,1.276,1.5Z" transform="translate(-1021.004 -5973.213)" fill="#999"/>
      <path id="Trazado_107747" data-name="Trazado 107747" d="M1065.186,6209.1l-1.666-1.962,1.562-1.687-1.486-1.906.536-.417,1.842,2.36-1.546,1.669,1.276,1.5Z" transform="translate(-1020.727 -5973.093)" fill="#999"/>
      <path id="Trazado_107748" data-name="Trazado 107748" d="M1067.794,6210.143l-1.666-1.962,1.562-1.687-1.486-1.906.536-.418,1.842,2.36-1.546,1.67,1.276,1.5Z" transform="translate(-1020.511 -5973.006)" fill="#999"/>
      <path id="Trazado_107749" data-name="Trazado 107749" d="M1070.917,6211.538l-1.666-2.072,1.562-1.781-1.486-2.011.536-.441,1.842,2.492-1.546,1.762,1.276,1.588Z" transform="translate(-1020.253 -5972.918)" fill="#999"/>
      <path id="Trazado_107750" data-name="Trazado 107750" d="M1119.651,6036.2c-4.268-7.625-10.242-10.016-10.3-10.039-14.323-5.964-22.9-2.99-22.989-2.962l-.371-1.016c.364-.132,9.023-3.166,23.764,2.973.246.1,6.375,2.53,10.843,10.516Z" transform="translate(-1018.871 -5988.112)" fill="#999"/>
      <path id="Trazado_107751" data-name="Trazado 107751" d="M1117.1,6060.067c-.769-.781-1.7-1.784-2.78-2.944a146.547,146.547,0,0,0-13.747-13.4c-10.827-8.978-21.617-1.344-22.071-1.015l-.637-.876c.117-.085,11.91-8.466,23.4,1.058a147.362,147.362,0,0,1,13.849,13.495c1.072,1.152,2,2.148,2.76,2.923Z" transform="translate(-1019.542 -5986.704)" fill="#999"/>
      <rect id="Rectángulo_9984" data-name="Rectángulo 9984" width="8.641" height="1.083" transform="matrix(0.131, -0.991, 0.991, 0.131, 125.084, 149.354)" fill="#999"/>
      <g id="Grupo_55910" data-name="Grupo 55910" transform="translate(104.468 140.63)">
        <path id="Trazado_107752" data-name="Trazado 107752" d="M1130.155,6336.369l-1.083-.044c1.575-38.141-4.374-95.038-4.433-95.607l-3.4-16.491v-3.953l2.648-19,19.477-80.73,1.053.254-19.467,80.677-2.634,18.871.005,3.823,3.383,16.378C1125.775,6241.172,1131.733,6298.149,1130.155,6336.369Z" transform="translate(-1120.427 -6120.545)" fill="#999"/>
        <path id="Trazado_107753" data-name="Trazado 107753" d="M1129.133,6336.361l-.812-.033c.03-.713.056-1.434.082-2.161l.812.027C1129.189,6334.923,1129.163,6335.646,1129.133,6336.361Zm.146-4.333-.812-.021q.029-1.074.05-2.162l.812.015Q1129.307,6330.952,1129.279,6332.028Zm.087-4.333-.812-.011.024-2.164.812.006Zm.035-4.335-.812,0v-2.164l.812,0v2.167Zm-.822-4.33-.021-2.165.812-.008.021,2.167Zm-.048-4.33-.038-2.16.812-.014.038,2.161Zm-.086-4.319-.054-2.165.812-.021.054,2.166Zm-.116-4.329-.068-2.169.812-.025.068,2.17Zm-.145-4.339-.082-2.165.812-.031.082,2.166Zm-.172-4.327-.1-2.165.812-.035.1,2.166Zm-.195-4.326-.107-2.165.812-.039.107,2.163Zm-.219-4.326-.117-2.162.81-.044.117,2.164Zm-.239-4.324-.128-2.164.81-.048.128,2.165Zm-.262-4.324-.136-2.162.81-.053.138,2.164Zm-.279-4.323-.147-2.163.81-.056.147,2.164Zm-.3-4.324-.156-2.16.81-.059.156,2.162Zm-.316-4.32-.165-2.159.81-.063.165,2.161Zm-.332-4.32-.169-2.1.4-.093.4-.033.173,2.162Zm-.351-4.317-.182-2.16.811-.069.181,2.161Zm-.366-4.321-.189-2.16.807-.071.192,2.161Zm-.384-4.317-.2-2.16.809-.075.2,2.161Zm-.4-4.318-.21-2.161.807-.08.21,2.163Zm-.427-4.321c-.027-.269-.043-.431-.049-.482l-.333-1.612.795-.164.337,1.627-.013,0a5.131,5.131,0,0,1,.073.544Zm-.82-4.215-.44-2.12.8-.164.438,2.12Zm-.877-4.24-.437-2.121.794-.165.438,2.121Zm-.876-4.241-.438-2.121.8-.165.437,2.121Zm-.065-4.325h-.812v-2.166h.812Zm.052-4.271-.8-.112.3-2.145.8.112Zm.591-4.29-.8-.11.3-2.145.8.109Zm.591-4.29-.8-.111.3-2.145.8.11Zm.591-4.291-.8-.11.3-2.145.8.11Zm.591-4.289-.8-.111.3-2.145.8.111Zm.591-4.291-.8-.109.133-.971.305-1.194.787.2-.3,1.148Zm.964-4.167-.787-.2.542-2.1.787.2Zm1.085-4.193-.787-.2.541-2.1.787.2Zm1.084-4.193-.787-.2.542-2.1.787.2Zm1.084-4.192-.787-.2.543-2.1.787.2Zm1.055-4.208-.79-.187.5-2.108.79.186Zm.994-4.216-.79-.186.5-2.107.79.187Zm.994-4.215-.79-.186.5-2.108.791.187Zm.995-4.214-.79-.187.5-2.107.79.186Zm.994-4.216-.79-.185.5-2.107.79.186Zm.984-4.22-.794-.18.477-2.111.793.179Zm.954-4.223-.792-.179.477-2.114.794.18Zm.956-4.224-.792-.18.476-2.112.794.18Zm.955-4.223-.792-.18.476-2.112.792.18Zm.955-4.225-.794-.18.479-2.111.793.179Zm.955-4.224-.794-.179.479-2.111.792.18Zm.954-4.223-.793-.18.478-2.113.793.18Zm.955-4.225-.792-.18.478-2.112.793.18Zm.956-4.223-.792-.18.424-1.881.794.18Z" transform="translate(-1120.489 -6120.542)" fill="#999"/>
        <path id="Trazado_107754" data-name="Trazado 107754" d="M1130.826,6336.362l-.812-.033q.044-1.07.081-2.16l.812.027Q1130.869,6335.288,1130.826,6336.362Zm.145-4.333-.812-.02q.029-1.074.05-2.162l.812.014Q1131,6330.953,1130.971,6332.029Zm.088-4.335-.812-.009.023-2.165.812.006Zm.035-4.333-.812,0v-2.165l.812,0v2.169Zm-.823-4.331-.021-2.165.812-.007.021,2.167Zm-.048-4.329-.038-2.16.812-.014.038,2.162Zm-.084-4.32-.054-2.165.812-.02.054,2.167Zm-.116-4.327-.069-2.169.812-.025.069,2.169Zm-.146-4.338-.082-2.165.812-.031.082,2.167Zm-.17-4.328-.1-2.165.812-.035.1,2.165Zm-.2-4.326-.107-2.165.812-.039.107,2.165Zm-.218-4.327-.118-2.161.81-.044.118,2.164Zm-.241-4.324-.128-2.164.81-.048.128,2.166Zm-.259-4.325-.137-2.162.81-.052.138,2.164Zm-.28-4.322-.147-2.164.81-.055.147,2.164Zm-.3-4.324-.157-2.16.81-.058.157,2.162Zm-.316-4.32-.166-2.159.81-.063.166,2.161Zm-.333-4.32-.168-2.1.4-.093.4-.033.173,2.162Zm-.35-4.319-.182-2.158.81-.07.182,2.161Zm-.368-4.32-.189-2.16.808-.071.192,2.161Zm-.383-4.317-.2-2.161.807-.075.2,2.163Zm-.4-4.318-.21-2.161.807-.08.21,2.163Zm-.428-4.321c-.028-.269-.043-.431-.05-.482l-.333-1.612.8-.164.336,1.627-.012,0c.029.131.047.31.071.544Zm-.82-4.215-.438-2.121.795-.164.438,2.121Zm-.877-4.24-.437-2.121.8-.165.437,2.121Zm-.876-4.241-.437-2.121.794-.164.438,2.12Zm-.065-4.325h-.812v-2.166h.812Zm.079-4.236-.8-.169.451-2.118.8.168Zm.9-4.235-.8-.169.453-2.119.8.17Zm.9-4.235-.8-.17.453-2.116.795.17Zm.9-4.235-.795-.169.451-2.117.795.168Zm.9-4.236-.795-.169.451-2.117.795.169Zm.9-4.235-.795-.169.453-2.118.795.168Zm.9-4.235-.795-.168.453-2.118.795.168Zm.9-4.236-.795-.168.451-2.117.795.169Zm.9-4.235-.795-.168.451-2.117.795.17Zm.9-4.234-.794-.168.453-2.119.795.169Zm.9-4.235-.795-.169.451-2.119.795.17Zm.9-4.235-.794-.169.481-2.119.791.184Zm.969-4.214-.792-.183.492-2.108.791.184Zm.983-4.217-.791-.184.493-2.108.79.184Zm.983-4.218-.79-.183.492-2.108.79.185Zm.983-4.217-.79-.184.491-2.108.79.185Zm.984-4.217-.791-.185.492-2.107.791.185Zm.983-4.218-.791-.184.491-2.108.792.184Zm.984-4.217-.791-.185.493-2.107.79.184Zm.983-4.218-.79-.183.491-2.108.79.183Zm.983-4.217-.79-.184.491-2.108.79.184Zm.984-4.219-.791-.182.491-2.108.792.184Zm.983-4.216-.791-.184.491-2.108.791.185Zm.983-4.218-.791-.183.467-2,.791.184Z" transform="translate(-1120.349 -6120.542)" fill="#999"/>
      </g>
      <path id="Trazado_107755" data-name="Trazado 107755" d="M1084.175,6343.62c-.009-.408-.993-41.1-.285-66.1a95.038,95.038,0,0,1,1.4-13.743c2.577-14.644,5.848-33.184,6.8-38.341,1.194-6.456-.393-40.169-.908-50.346-.081-1.592-.122-3.212-.122-4.817v-22.263c.013-.59,1.643-57.977,24.116-82.135.066-.094,2.576-3.405,8.59-5.6l.372,1.017c-5.687,2.075-8.108,5.244-8.132,5.275-22.234,23.907-23.851,80.884-23.864,81.457v22.25c0,1.586.04,3.188.12,4.762.517,10.208,2.108,44.026.891,50.6-.953,5.154-4.225,23.689-6.8,38.331a94.145,94.145,0,0,0-1.381,13.586c-.708,24.965.275,65.632.285,66.039Z" transform="translate(-1019.065 -5984.892)" fill="#999"/>
      <g id="Grupo_55911" data-name="Grupo 55911" transform="translate(32.284 217.879)">
        <path id="Trazado_107756" data-name="Trazado 107756" d="M1088.532,6203.416s-10.355-.189-11.768-1.883-5.742-3.011-5.836-2.73-1.412.433,0,2.287,2.448,7.5.282,14.564-8.112,23.064-8.112,23.064a120.857,120.857,0,0,0-7.139,33.42c-1.317,19.016-1.648,108.261-1.648,108.261v84.725l48.294,21.888s22.311,7.342,35.585,0,18.074-8.9,18.216-17.37-1.271-89.808-1.271-89.808l-1.413-77.382v-58.1s-2.074-22.672-6.049-27.614-7.223-8.609-7.223-8.609a24.851,24.851,0,0,1,1.27-6.125,22.816,22.816,0,0,1,4.143-6.59s.941-2.919-2.071-3.013-1.507,3.295-2.542,4.142-4.311,2.73-4.311,2.73l-2.75,1.653s.848-1.559-.754-1.088-6.508.105-6.125,1.088,1.974,2.74.473,3.085-7.245,1.852-7.245,1.852-5.271,1.423-5.46.43,1.412-2.783,1.412-2.783.659-1.883-3.577-.658a51.76,51.76,0,0,0-7.512,2.823s-1.62,1.318-2.467-.941-.407-3.389-1.9-3.2-6.952,1.788-8.552,1.694l-1.6-.094Z" transform="translate(-1053.771 -6191.857)" fill="#ccc"/>
        <path id="Trazado_107757" data-name="Trazado 107757" d="M1123.052,6490.881a73.654,73.654,0,0,1-20.575-3.315l-48.347-21.909a.541.541,0,0,1-.318-.492v-84.726c0-.895.345-89.482,1.649-108.3a122.673,122.673,0,0,1,7.177-33.584c.053-.146,5.959-16.056,8.095-23.021,2.085-6.8,1.141-12.323-.195-14.077a2.65,2.65,0,0,1-.744-1.917,1.419,1.419,0,0,1,.669-.957c.076-.054.025-.011-.008.085a.667.667,0,0,1,.469-.39c.794-.15,4.9,1.273,6.3,2.947.863,1.034,7.127,1.609,11.324,1.687l2.318-.277,1.7.091a33.009,33.009,0,0,0,5.469-1.039c1.286-.31,2.4-.577,2.984-.651,1.51-.183,1.734.789,1.976,1.825a13.223,13.223,0,0,0,.5,1.722c.142.376.388.848.755.949a1.207,1.207,0,0,0,.868-.241.493.493,0,0,1,.1-.063,52.986,52.986,0,0,1,7.6-2.858c2.1-.6,3.358-.583,3.971.066a1.3,1.3,0,0,1,.266,1.291.542.542,0,0,1-.106.182,5.229,5.229,0,0,0-1.291,2.2,15.55,15.55,0,0,0,4.794-.729c.238-.062,5.771-1.513,7.263-1.857a.409.409,0,0,0,.209-.086c.092-.195-.379-1-.581-1.35a7.348,7.348,0,0,1-.483-.923.78.78,0,0,1,.067-.723c.391-.6,1.545-.694,3.722-.808a15.268,15.268,0,0,0,2.688-.274c.683-.2,1.179-.123,1.467.232a.883.883,0,0,1,.16.309l1.75-1.052c.042-.024,3.258-1.875,4.247-2.684.194-.159.23-.741.264-1.257.074-1.153.146-3.082,2.637-3.009a2.725,2.725,0,0,1,2.29,1.038,3.35,3.35,0,0,1,.279,2.683.529.529,0,0,1-.115.2,22.392,22.392,0,0,0-4.03,6.4,25.059,25.059,0,0,0-1.227,5.763c.687.781,3.63,4.153,7.089,8.455,4.032,5.012,6.082,26.971,6.167,27.9l0,58.149,1.413,77.374c.014.814,1.411,81.443,1.271,89.827-.131,7.844-4.3,10.107-14.365,15.576-1.274.693-2.65,1.439-4.13,2.258C1133.943,6490.044,1128.406,6490.881,1123.052,6490.881Zm-68.158-26.065,47.976,21.744c.166.05,22.187,7.159,35.1.019,1.483-.82,2.86-1.569,4.138-2.262,10.232-5.559,13.679-7.432,13.8-14.643.139-8.366-1.257-88.977-1.271-89.789l-1.413-77.384v-58.109c-.017-.176-2.1-22.515-5.93-27.275-3.92-4.875-7.174-8.551-7.206-8.588a.536.536,0,0,1-.135-.386,25.106,25.106,0,0,1,1.3-6.273,22.8,22.8,0,0,1,4.166-6.682,2.171,2.171,0,0,0-.163-1.629,1.726,1.726,0,0,0-1.437-.575c-1.365-.032-1.439.655-1.523,2a2.7,2.7,0,0,1-.659,2.024,50.571,50.571,0,0,1-4.384,2.78l-2.739,1.649a.537.537,0,0,1-.651-.074.543.543,0,0,1-.1-.647.2.2,0,1,0-.124-.312,15.245,15.245,0,0,1-2.936.317,16.71,16.71,0,0,0-2.735.278c.085.166.194.354.307.549.464.8.944,1.619.638,2.327a1.269,1.269,0,0,1-.958.71c-1.477.339-7.171,1.833-7.228,1.848-1.393.375-4.744,1.185-5.733.568a.835.835,0,0,1-.4-.561c-.208-1.1,1-2.625,1.44-3.132a.17.17,0,0,0-.042-.123c-.045-.047-.533-.445-2.881.232a51.974,51.974,0,0,0-7.378,2.768,2.162,2.162,0,0,1-1.769.4,2.346,2.346,0,0,1-1.489-1.617,14.089,14.089,0,0,1-.539-1.855c-.247-1.063-.248-1.066-.785-1s-1.663.338-2.867.628a30.092,30.092,0,0,1-5.784,1.068l-1.6-.095-2.258.279a.6.6,0,0,1-.074,0c-1.771-.033-10.678-.284-12.173-2.076-1.092-1.311-4.288-2.438-5.154-2.563-.05.041-.1.076-.146.109-.157.112-.214.164-.226.237s-.008.384.536,1.1c1.374,1.8,2.689,7.486.369,15.05-2.145,6.995-8.062,22.935-8.122,23.094a121.491,121.491,0,0,0-7.106,33.268c-1.3,18.781-1.644,107.333-1.647,108.225Zm16.588-265.8v0Zm-1.026-.345v0Z" transform="translate(-1053.812 -6191.898)" fill="#4d4d4d"/>
      </g>
      <path id="Trazado_107758" data-name="Trazado 107758" d="M1103.266,6266.986h-.013a.543.543,0,0,1-.528-.556l.707-27.111,1.554-23.181c.236-1.151.682-4.25.048-5.644-.192-.421-.431-.841-.665-1.25-.786-1.377-1.762-3.091-.09-4.242a29.411,29.411,0,0,1,4.573-2.336.535.535,0,0,1,.706.3.541.541,0,0,1-.3.706,28.778,28.778,0,0,0-4.367,2.226c-.776.534-.486,1.232.416,2.814.25.437.506.887.71,1.338.911,2,.074,6.067.037,6.239l-1.542,23.083-.706,27.091A.542.542,0,0,1,1103.266,6266.986Z" transform="translate(-1017.488 -5973.134)" fill="#4d4d4d" opacity="0.39"/>
      <path id="Trazado_107759" data-name="Trazado 107759" d="M1084.174,6265.626a.642.642,0,0,1-.075-.005.541.541,0,0,1-.462-.61c.13-.931,3.179-22.816,4.3-26.9,1.106-4.013,3.106-18.558,3.126-18.7l1.388-10.7-1.363-3.9a.541.541,0,0,1,.185-.611,13.666,13.666,0,0,1,4.415-2.2.551.551,0,0,1,.643.416.542.542,0,0,1-.417.644,11.85,11.85,0,0,0-3.67,1.778l1.27,3.637a.528.528,0,0,1,.027.25l-1.405,10.826c-.083.6-2.03,14.767-3.155,18.85-1.109,4.016-4.245,26.534-4.276,26.761A.541.541,0,0,1,1084.174,6265.626Z" transform="translate(-1019.065 -5973.186)" fill="#4d4d4d" opacity="0.39"/>
      <g id="Grupo_55912" data-name="Grupo 55912" transform="translate(62.635 275.58)">
        <path id="Trazado_107760" data-name="Trazado 107760" d="M1091.2,6247.888l-5.988-.325-1.355-1.951s-.559-.848-1.128-.121l-.864,4.14s-.285,1.841,1.2,1.146l2.229-1.649,5.646.043,1.335-.528Z" transform="translate(-1081.848 -6245.197)" fill="#666"/>
      </g>
      <g id="Grupo_55913" data-name="Grupo 55913" transform="translate(65.707 254.884)">
        <path id="Trazado_107761" data-name="Trazado 107761" d="M1094.042,6228.771l-5.988-.324-1.355-1.952s-.559-.847-1.127-.121l-.865,4.14s-.284,1.842,1.2,1.146l2.23-1.647,5.645.042,1.335-.528Z" transform="translate(-1084.685 -6226.08)" fill="#666"/>
      </g>
      <g id="Grupo_55914" data-name="Grupo 55914" transform="translate(82.128 255.935)">
        <path id="Trazado_107762" data-name="Trazado 107762" d="M1109.209,6229.742l-5.987-.325-1.355-1.951s-.559-.848-1.128-.121l-.864,4.14s-.285,1.842,1.2,1.146l2.23-1.648,5.646.042,1.334-.528Z" transform="translate(-1099.853 -6227.051)" fill="#666"/>
      </g>
      <g id="Grupo_55915" data-name="Grupo 55915" transform="translate(25.791 287.573)">
        <path id="Trazado_107763" data-name="Trazado 107763" d="M1057.172,6258.965l-5.988-.324-1.356-1.951s-.559-.848-1.127-.123l-.865,4.142s-.285,1.84,1.2,1.146l2.23-1.649,5.645.043,1.335-.529Z" transform="translate(-1047.815 -6256.275)" fill="#666"/>
      </g>
      <g id="Grupo_55916" data-name="Grupo 55916" transform="translate(118.553 281.837)">
        <path id="Trazado_107764" data-name="Trazado 107764" d="M1134.578,6253.667l5.988-.324,1.354-1.951s.559-.847,1.128-.122l.864,4.141s.285,1.84-1.2,1.145l-2.23-1.647-5.646.043-1.334-.529Z" transform="translate(-1133.499 -6250.977)" fill="#666"/>
      </g>
      <g id="Grupo_55917" data-name="Grupo 55917" transform="translate(117.848 228.576)">
        <path id="Trazado_107765" data-name="Trazado 107765" d="M1133.927,6204.471l5.988-.326,1.356-1.95s.559-.848,1.128-.122l.864,4.14s.285,1.841-1.205,1.146l-2.23-1.648-5.645.043-1.335-.53Z" transform="translate(-1132.848 -6201.78)" fill="#666"/>
      </g>
      <g id="Grupo_55918" data-name="Grupo 55918" transform="translate(115.453 414.597)">
        <path id="Trazado_107766" data-name="Trazado 107766" d="M1131.714,6376.3l5.988-.324,1.354-1.95s.559-.848,1.128-.123l.864,4.141s.285,1.84-1.2,1.147l-2.23-1.649-5.646.043-1.334-.529Z" transform="translate(-1130.635 -6373.606)" fill="#666"/>
      </g>
      <g id="Grupo_55919" data-name="Grupo 55919" transform="translate(23.256 408.86)">
        <path id="Trazado_107767" data-name="Trazado 107767" d="M1054.83,6371l-5.988-.325-1.354-1.95s-.559-.847-1.128-.122l-.865,4.141s-.284,1.84,1.2,1.145l2.23-1.647,5.646.043,1.334-.529Z" transform="translate(-1045.473 -6368.308)" fill="#666"/>
      </g>
      <path id="Trazado_107768" data-name="Trazado 107768" d="M1105.969,6212.584c-.73,0-1.456-.018-2.175-.038l.029-1.083q1.068.031,2.154.038Zm2.178-.008-.017-1.083q1.072-.016,2.152-.058l.042,1.082Q1109.232,6212.56,1108.147,6212.576Zm-6.527-.115q-1.1-.052-2.175-.125l.074-1.081q1.064.073,2.152.125Zm10.879-.051-.068-1.081c.712-.044,1.428-.1,2.145-.159l.1,1.078Q1113.581,6212.342,1112.5,6212.41Zm-15.223-.243q-1.1-.1-2.167-.21l.115-1.076q1.057.112,2.146.208Zm19.563-.135-.122-1.076c.709-.081,1.422-.172,2.133-.272l.153,1.072C1118.279,6211.858,1117.558,6211.948,1116.839,6212.032Zm-23.892-.324q-1.1-.136-2.157-.287l.153-1.072q1.046.15,2.137.285Zm28.209-.288-.182-1.067q1.056-.18,2.111-.393l.213,1.061Q1122.228,6211.237,1121.156,6211.419Zm-32.517-.321q-1.1-.177-2.146-.362l.188-1.065c.69.121,1.4.242,2.128.358Zm36.791-.543-.246-1.055.39-.093.26,1.051Zm-41.075-.219q-1.117-.218-2.134-.434l.226-1.06q1.007.215,2.114.433Zm-4.258-.908c-.768-.178-1.475-.351-2.117-.511l.264-1.052c.636.16,1.336.332,2.1.508Zm-4.224-1.069c-1.36-.375-2.107-.617-2.107-.617l.334-1.029c.007,0,.736.237,2.059.6Z" transform="translate(-1019.88 -5972.796)" fill="#666"/>
      <path id="Trazado_107769" data-name="Trazado 107769" d="M1106.669,6215.541c-.73,0-1.458-.014-2.183-.039l.036-1.082c.714.023,1.431.038,2.148.038Zm2.185-.039-.04-1.082q1.078-.038,2.137-.125l.089,1.079C1110.32,6215.434,1109.59,6215.475,1108.854,6215.5Zm-6.547-.1c-.734-.044-1.462-.1-2.175-.161l.093-1.08q1.059.094,2.148.16Zm10.917-.265-.151-1.073c.729-.1,1.434-.223,2.1-.363l.224,1.059C1114.706,6214.9,1113.975,6215.031,1113.224,6215.136Zm-15.26-.107c-.744-.081-1.466-.167-2.162-.256l.137-1.074c.69.089,1.405.173,2.141.254Zm-4.319-.557c-.772-.114-1.492-.229-2.151-.339l.18-1.068c.653.109,1.366.223,2.131.337Zm23.893-.267-.322-1.034q.218-.066.429-.14l.355,1.024C1117.848,6214.107,1117.693,6214.156,1117.538,6214.205Zm-28.189-.454c-1.355-.256-2.146-.434-2.146-.434l.237-1.058s.783.178,2.11.428Z" transform="translate(-1018.77 -5972.338)" fill="#666"/>
      <path id="Trazado_107770" data-name="Trazado 107770" d="M1108.176,6285.1c-.557,0-1.113-.005-1.681-.016-32.571-.56-52.189-12.79-52.384-12.913l.435-.686c.193.123,19.634,12.23,51.963,12.787,32.21.536,46.223-15.093,46.36-15.251l.613.533C1153.345,6269.716,1139.626,6285.1,1108.176,6285.1Z" transform="translate(-1021.504 -5967.649)" fill="#999"/>
      <path id="Trazado_107771" data-name="Trazado 107771" d="M1131.125,6486.6h-.008a.542.542,0,0,1-.534-.549l.848-59.309.74-135.274c.014-.371,1.361-35.5,0-53.474-1.346-17.809-9.215-27.4-9.3-27.5a.541.541,0,0,1-.1-.52l3.031-9.052a.541.541,0,1,1,1.026.345l-2.939,8.774c1.24,1.617,8.1,11.261,9.355,27.868,1.364,18.039.015,53.228,0,53.581l-.74,135.261-.848,59.313A.543.543,0,0,1,1131.125,6486.6Z" transform="translate(-1015.834 -5973.306)" fill="#4d4d4d"/>
      <path id="Trazado_107772" data-name="Trazado 107772" d="M1124.1,6295.891l-1.076-.119c3.649-33.065-3.437-84.122-3.51-84.634l1.073-.151C1120.657,6211.5,1127.762,6262.694,1124.1,6295.891Z" transform="translate(-1016.101 -5972.443)" fill="#999"/>
      <path id="Trazado_107773" data-name="Trazado 107773" d="M1142.354,6285.341l-1.082-.065c3.537-58.275-15.832-75.823-16.027-75.994l.708-.818C1126.771,6209.17,1145.928,6226.443,1142.354,6285.341Z" transform="translate(-1015.628 -5972.652)" fill="#999"/>
    </g>
  </g>
</svg>
