<svg xmlns="http://www.w3.org/2000/svg" xmlns:xlink="http://www.w3.org/1999/xlink" width="427.277" height="569.705" viewBox="0 0 427.277 569.705">
  <defs>
    <clipPath id="clip-path">
      <rect id="Rectángulo_10167" data-name="Rectángulo 10167" width="341.304" height="542.057" transform="translate(696.333 9418.236)" fill="none"/>
    </clipPath>
  </defs>
  <g id="Grupo_56174" data-name="Grupo 56174" transform="translate(-656.91 -9404.869)">
    <rect id="Rectángulo_10135" data-name="Rectángulo 10135" width="427.277" height="569.705" rx="31.279" transform="translate(656.91 9404.869)" fill="#fff"/>
    <g id="Grupo_56173" data-name="Grupo 56173">
      <g id="Grupo_56172" data-name="Grupo 56172" clip-path="url(#clip-path)">
        <g id="Grupo_56171" data-name="Grupo 56171">
          <g id="Grupo_56147" data-name="Grupo 56147">
            <g id="Grupo_56117" data-name="Grupo 56117">
              <path id="Trazado_108366" data-name="Trazado 108366" d="M847.318,9508.9a92.215,92.215,0,0,0-10.237-6.812s-12.35-5.344-17-8.46c0,0-4.518-2.186-4.708-12.07s.569-16.729,2.086-21.386l1.895-7.224s-5.5-8.555-20.854-10.55c0,0-10.332-.951-12.7,1.521,0,0-6.256,23.477-14.787,33.931,0,0-1.8,6.939-20.759,10.836l-22.372,4.848s-10.332,2.187-11.943,10.646c0,0-6.256,6.748-2.844,31.84l.948,5.134,25.251,121.83.674,2.313v6.46s-14.117,39.16-16.238,58.442c-1.345,12.221-.549,57.413.214,88.879-.043,16.14.7,51.015.7,51.015s-2.1,15.3,18.42,22.087c0,0,18.957,13.565,49.739,2.435l40.348-10.435s12.306-7.317,11.826-22.782c-.478-15.409-.742-25.311-.744-25.383l-2.56-96.009s-1.786-19.916-4.627-34.492a63.182,63.182,0,0,0-2.125-11.227c-2.51-7.88-12.42-23.965-12.42-23.965s-1.466-4.248-.529-7.659l4.052-25.431,8.911-35.932,6.077-11.2s8.035-10.477,7.006-19.218l-2.957-10.284s-.249-8.752-.078-14.778c.041-1.295.1-2.448.193-3.332l3.665-13.181.054-.509.023-.08.692-6.5h-.016l.511-4.822S850.984,9511.942,847.318,9508.9Z" fill="#fff"/>
              <path id="Trazado_108367" data-name="Trazado 108367" d="M769.226,9899.345c-15.953,0-25.561-6.3-26.337-6.827-20.524-6.81-18.644-22.319-18.623-22.476-.011-.29-.741-35-.7-50.965-.823-33.953-1.527-76.951-.211-88.919,2.062-18.749,15.6-56.686,16.236-58.467v-6.341l-.659-2.262-25.258-121.86-.949-5.14c-3.241-23.822,2.126-31.2,2.863-32.079,1.7-8.522,12.109-10.82,12.215-10.843l22.369-4.846c18.421-3.787,20.458-10.5,20.476-10.566l.072-.141c8.382-10.272,14.653-33.558,14.716-33.791l.091-.163c2.467-2.572,12.578-1.675,13.007-1.634,15.367,2,20.907,10.364,21.135,10.72l.09.139-1.938,7.382c-1.579,4.852-2.255,11.807-2.073,21.285s4.455,11.72,4.5,11.741c4.61,3.086,16.86,8.4,16.983,8.452a92.7,92.7,0,0,1,10.328,6.866c3.787,3.144,2.949,8.609,2.911,8.841l-1.261,11.892-3.677,13.241c-.071.755-.136,1.867-.179,3.243-.163,5.718.057,14.006.077,14.71l2.943,10.237c1.047,8.851-6.737,19.116-7.069,19.55l-6.021,11.111-8.9,35.886-4.046,25.4c-.9,3.3.5,7.436.514,7.478.064.087,9.927,16.14,12.422,23.973a63.15,63.15,0,0,1,2.141,11.3c2.807,14.4,4.609,34.3,4.627,34.5l2.562,96.033c.01.389.274,10.218.744,25.38.481,15.506-11.885,23.042-12.01,23.116l-.1.041-40.348,10.434A69.327,69.327,0,0,1,769.226,9899.345Zm2.124-421.314c-.278.854-2.95,7.31-21.022,11.024l-22.367,4.846c-.1.022-10.109,2.238-11.655,10.35l-.019.1-.073.079c-.061.068-6.086,7-2.748,31.537l.945,5.115,25.249,121.822.682,2.391-.022,6.586c-.141.392-14.126,39.339-16.218,58.356-1.312,11.927-.607,54.889.215,88.829-.042,15.961.688,50.667.7,51.016-.024.209-1.8,15.139,18.163,21.738l.1.052c.188.134,19.17,13.311,49.393,2.387L833,9883.831c.795-.5,12.052-7.825,11.6-22.422-.47-15.164-.733-24.993-.743-25.373l-2.561-96.021c-.017-.174-1.815-20.04-4.62-34.429a62.515,62.515,0,0,0-2.115-11.185c-2.466-7.746-12.282-23.722-12.381-23.884-.1-.252-1.528-4.471-.571-7.953l4.043-25.391,8.952-36.052,6.076-11.2c.112-.153,7.962-10.508,6.963-19l-2.959-10.316c0-.089-.247-8.833-.078-14.8.044-1.395.109-2.524.2-3.359l3.677-13.243.077-.589.636-6.026h0l.027-.415.512-4.822c.011-.071.806-5.3-2.647-8.161a92.588,92.588,0,0,0-10.184-6.775c-.468-.2-12.4-5.374-17.022-8.473-.147-.067-4.682-2.376-4.874-12.376-.184-9.563.5-16.6,2.1-21.509l1.845-7.035c-.775-1.077-6.549-8.437-20.495-10.25-2.778-.257-10.368-.507-12.318,1.344C785.679,9445.785,779.53,9467.95,771.35,9478.03Z" fill="#999"/>
            </g>
            <path id="Trazado_108368" data-name="Trazado 108368" d="M784.331,9670.506c-.767,0-1.541,0-2.332-.013-30.118-.314-42.764-7.113-42.888-7.183l.363-.655c.123.067,12.635,6.775,42.532,7.088,26.475.245,39.031-4.218,39.155-4.262l.258.7C821.3,9666.229,809.346,9670.506,784.331,9670.506Z" fill="#999"/>
            <path id="Trazado_108369" data-name="Trazado 108369" d="M784.816,9679.8q-1.416,0-2.828-.053c-28.192-1.079-41.574-7.591-41.706-7.656l.334-.672c.131.065,13.392,6.507,41.4,7.578,19.436.752,39.839-6.611,40.043-6.687l.257.705C822.122,9673.089,803.492,9679.8,784.816,9679.8Z" fill="#999"/>
            <path id="Trazado_108370" data-name="Trazado 108370" d="M787.04,9679.479l-2.895-2.895,2.257-3.1-2.837-3.08.552-.508,3.254,3.533-2.242,3.075,2.44,2.439Z" fill="#999"/>
            <path id="Trazado_108371" data-name="Trazado 108371" d="M791.223,9679.479l-2.895-2.895,2.257-3.1-2.837-3.08.552-.508,3.254,3.533-2.242,3.075,2.44,2.439Z" fill="#999"/>
            <path id="Trazado_108372" data-name="Trazado 108372" d="M795.467,9679.207l-2.7-2.813,2.1-3.008-2.644-2.992.563-.5,3.034,3.434-2.089,2.988,2.272,2.368Z" fill="#999"/>
            <path id="Trazado_108373" data-name="Trazado 108373" d="M799.722,9678.592l-2.708-2.659,2.095-2.822-2.611-2.785.547-.514,3.04,3.242-2.079,2.8,2.242,2.2Z" fill="#999"/>
            <path id="Trazado_108374" data-name="Trazado 108374" d="M803.531,9677.952l-2.708-2.66,2.095-2.822-2.612-2.785.547-.514,3.041,3.242-2.079,2.8,2.242,2.2Z" fill="#999"/>
            <path id="Trazado_108375" data-name="Trazado 108375" d="M764.562,9678.4l-2.613-3.08,2.544-2.75-2.518-3.229.592-.461,2.91,3.73-2.525,2.73,2.184,2.574Z" fill="#999"/>
            <path id="Trazado_108376" data-name="Trazado 108376" d="M768.724,9678.815l-2.613-3.08,2.544-2.749-2.518-3.229.592-.461,2.909,3.73-2.525,2.729,2.184,2.574Z" fill="#999"/>
            <path id="Trazado_108377" data-name="Trazado 108377" d="M773.206,9679.264l-2.613-3.08,2.544-2.75-2.518-3.228.592-.461,2.91,3.729-2.525,2.73,2.184,2.574Z" fill="#999"/>
            <path id="Trazado_108378" data-name="Trazado 108378" d="M751.553,9675.663l-2.613-3.08,2.543-2.749-2.518-3.229.592-.461,2.909,3.73-2.525,2.729,2.184,2.574Z" fill="#999"/>
            <path id="Trazado_108379" data-name="Trazado 108379" d="M747.479,9674.493l-2.613-3.08,2.543-2.749-2.518-3.229.592-.461,2.909,3.73-2.525,2.729,2.183,2.574Z" fill="#999"/>
            <path id="Trazado_108380" data-name="Trazado 108380" d="M744.117,9673.347l-2.613-3.08,2.544-2.749-2.518-3.229.592-.461,2.91,3.73-2.525,2.729,2.184,2.574Z" fill="#999"/>
            <path id="Trazado_108381" data-name="Trazado 108381" d="M755.715,9676.778l-2.613-3.08,2.544-2.749-2.518-3.229.592-.461,2.909,3.73-2.525,2.729,2.184,2.574Z" fill="#999"/>
            <path id="Trazado_108382" data-name="Trazado 108382" d="M760.2,9677.227l-2.613-3.08,2.544-2.75-2.518-3.229.592-.461,2.91,3.73-2.525,2.73,2.184,2.574Z" fill="#999"/>
            <path id="Trazado_108383" data-name="Trazado 108383" d="M777.448,9679.688l-2.613-3.08,2.543-2.75-2.518-3.229.592-.461,2.909,3.73-2.525,2.73,2.183,2.574Z" fill="#999"/>
            <path id="Trazado_108384" data-name="Trazado 108384" d="M781.6,9679.42l-2.613-3.08,2.543-2.749-2.518-3.229.592-.461,2.909,3.73-2.525,2.729,2.184,2.574Z" fill="#999"/>
            <path id="Trazado_108385" data-name="Trazado 108385" d="M811.348,9676l-2.9-2.267,2.185-2.34-2.643-2.241.485-.572,3.243,2.751-2.162,2.316,2.254,1.761Z" fill="#999"/>
            <path id="Trazado_108386" data-name="Trazado 108386" d="M815.137,9675.071l-2.9-2.267,2.185-2.34-2.644-2.241.485-.572,3.243,2.751-2.163,2.316,2.254,1.761Z" fill="#999"/>
            <path id="Trazado_108387" data-name="Trazado 108387" d="M819.008,9674.113l-2.9-2.265,2.185-2.342-2.644-2.24.485-.572,3.243,2.75-2.163,2.316,2.254,1.761Z" fill="#999"/>
            <path id="Trazado_108388" data-name="Trazado 108388" d="M807,9676.559l-2.763-2.318,2.094-2.409-2.551-2.323.5-.555,3.093,2.817-2.074,2.386,2.179,1.828Z" fill="#999"/>
            <path id="Trazado_108389" data-name="Trazado 108389" d="M815.892,9888.364a.5.5,0,0,1-.5-.5c0-.574-.235-58.014-.869-110.806-.053-4.343-.1-8.66-.14-12.919-.356-34.887-.663-65.016-4.929-74.009-7.422-15.647-2.834-56.747.2-83.944.312-2.8.607-5.442.869-7.882.331-3.079.679-5.8,1.015-8.441,1.155-9.062,2.067-16.222.953-28.166-1.4-14.981-8.865-58.563-9.182-60.415-.256-.627-1.913-5.4-.013-19.686,1.987-14.944,2.655-21.956,2.662-22.024a.51.51,0,0,1,.544-.451.5.5,0,0,1,.451.545c-.007.069-.676,7.1-2.666,22.063-1.955,14.706-.06,19.161-.04,19.2a.539.539,0,0,1,.037.122c.078.452,7.779,45.281,9.2,60.549,1.124,12.056.2,19.262-.957,28.386-.336,2.632-.683,5.354-1.012,8.423-.263,2.439-.558,5.085-.871,7.886-3.023,27.084-7.592,68.015-.292,83.405,4.36,9.189,4.669,39.422,5.026,74.428.043,4.257.087,8.573.14,12.917.634,52.8.867,110.238.869,110.813a.5.5,0,0,1-.5.5Z" fill="#4d4d4d"/>
            <path id="Trazado_108390" data-name="Trazado 108390" d="M796.1,9953.343l-12.794,2.685V9897.39l12.794-3.7Z" fill="#404040"/>
            <path id="Trazado_108391" data-name="Trazado 108391" d="M796.1,10000.4v-51.645l-12.794,3.7v47.942Z" fill="#404040"/>
            <rect id="Rectángulo_10136" data-name="Rectángulo 10136" width="1" height="118.904" transform="translate(728.364 9883.135) rotate(-8.081)" fill="#404040"/>
            <rect id="Rectángulo_10137" data-name="Rectángulo 10137" width="1" height="110.753" transform="matrix(0.99, -0.139, 0.139, 0.99, 738.163, 9891.186)" fill="#404040"/>
            <rect id="Rectángulo_10138" data-name="Rectángulo 10138" width="1" height="108.085" transform="matrix(0.991, -0.135, 0.135, 0.991, 745.135, 9893.755)" fill="#404040"/>
            <rect id="Rectángulo_10139" data-name="Rectángulo 10139" width="1" height="102.503" transform="translate(756.996 9899.059) rotate(-6.769)" fill="#404040"/>
            <rect id="Rectángulo_10140" data-name="Rectángulo 10140" width="1" height="102.303" transform="matrix(0.995, -0.1, 0.1, 0.995, 767.952, 9899.05)" fill="#404040"/>
            <rect id="Rectángulo_10141" data-name="Rectángulo 10141" width="1" height="101.989" transform="translate(774.733 9899.031) rotate(-3.595)" fill="#404040"/>
            <rect id="Rectángulo_10142" data-name="Rectángulo 10142" width="1" height="106.716" transform="translate(799.253 9893.692) rotate(-0.639)" fill="#404040"/>
            <rect id="Rectángulo_10143" data-name="Rectángulo 10143" width="1" height="109.281" transform="translate(809.689 9891.117) rotate(-0.214)" fill="#404040"/>
            <rect id="Rectángulo_10144" data-name="Rectángulo 10144" width="112.934" height="1" transform="translate(818.409 10000.389) rotate(-89.217)" fill="#404040"/>
            <rect id="Rectángulo_10145" data-name="Rectángulo 10145" width="115.218" height="1" transform="translate(825.479 10000.383) rotate(-88.434)" fill="#404040"/>
            <rect id="Rectángulo_10146" data-name="Rectángulo 10146" width="116.296" height="1" transform="translate(831.734 10000.377) rotate(-87.873)" fill="#404040"/>
            <rect id="Rectángulo_10147" data-name="Rectángulo 10147" width="127.555" height="1" transform="matrix(0.045, -0.999, 0.999, 0.045, 836.457, 10000.374)" fill="#404040"/>
            <path id="Trazado_108392" data-name="Trazado 108392" d="M763.506,9960.293c-9.044,0-18.135-1.2-22.863-5.3-2.67-2.315-3.727-4.672-3.144-7,1.72-6.875,17.2-10.7,17.36-10.731,3.218-.734,33.914-7.681,33.914-7.681l.042-.008,8-1.1c1.35-.209,33.318-5.075,40.116,3.667,1.743,2.241,2.407,4.335,1.974,6.22-.761,3.31-4.6,5.2-7.405,6.582a13.769,13.769,0,0,0-2.293,1.278c-2.283,1.931-36.325,10.676-40.2,11.668A156.414,156.414,0,0,1,763.506,9960.293Zm25.467-29.736c-.9.2-30.722,6.953-33.891,7.676s-15.245,4.529-16.613,10c-.485,1.937.468,3.957,2.829,6,10.824,9.388,47.129,2.737,47.494,2.67,15.093-3.861,38.174-10.106,39.769-11.456a13.716,13.716,0,0,1,2.5-1.411c2.624-1.292,6.218-3.063,6.872-5.908.363-1.579-.239-3.391-1.788-5.384-6.439-8.276-38.854-3.339-39.182-3.291Z" fill="#404040"/>
            <path id="Trazado_108393" data-name="Trazado 108393" d="M765.021,9997.607c-9.043,0-18.135-1.2-22.862-5.3-2.67-2.315-3.728-4.672-3.145-7,1.72-6.876,17.206-10.7,17.361-10.731,3.217-.734,33.914-7.682,33.914-7.682l.042-.007,8-1.1c1.349-.21,33.317-5.075,40.115,3.667,1.743,2.241,2.408,4.334,1.974,6.22-.761,3.309-4.6,5.2-7.406,6.583a13.731,13.731,0,0,0-2.292,1.277c-2.283,1.932-36.325,10.677-40.2,11.668A156.414,156.414,0,0,1,765.021,9997.607Zm25.467-29.736c-.9.2-30.722,6.953-33.89,7.676s-15.245,4.529-16.614,10c-.484,1.937.468,3.957,2.83,6,10.82,9.384,47.128,2.738,47.493,2.67,15.093-3.861,38.174-10.106,39.769-11.456a13.847,13.847,0,0,1,2.5-1.412c2.625-1.293,6.219-3.062,6.873-5.908.363-1.579-.238-3.39-1.788-5.384-6.439-8.276-38.854-3.341-39.181-3.291Z" fill="#404040"/>
            <g id="Grupo_56118" data-name="Grupo 56118">
              <path id="Trazado_108394" data-name="Trazado 108394" d="M846.224,9579.506l-30.381-5.221s-32.3-6.557-42.9-3.47-33.551,9.255-33.551,9.255l-3.085-10.081s29.5-13.059,54.279-8.815,54.279,8.1,54.279,8.1l2.327.257A12.814,12.814,0,0,1,846.224,9579.506Z" fill="#fff"/>
              <path id="Trazado_108395" data-name="Trazado 108395" d="M739.136,9580.526l-3.288-10.745.3-.135c.3-.132,29.891-13.054,54.495-8.842,24.486,4.192,53.969,8.058,54.264,8.1l2.549.281.081.219a13.068,13.068,0,0,1-.992,10.291l-.13.229-30.64-5.266c-.333-.066-32.34-6.506-42.734-3.479-10.488,3.051-33.33,9.2-33.559,9.257Zm-2.375-10.325,2.88,9.413c2.93-.789,23.427-6.317,33.194-9.16,10.573-3.071,41.759,3.2,43.083,3.464l30.107,5.173a12.563,12.563,0,0,0,.881-9.216l-2.085-.23c-.3-.039-29.8-3.906-54.3-8.1C767.478,9557.606,739.959,9568.847,736.761,9570.2Z" fill="#999"/>
            </g>
            <g id="Grupo_56119" data-name="Grupo 56119">
              <path id="Trazado_108396" data-name="Trazado 108396" d="M846.45,9576.832l4.536-3.179,2.1.644s.889.3.889-.554l-1.733-3.5s-.843-1.5-1.529-.146l-.68,2.471-4.127,3.188-.668,1.146Z" fill="#666"/>
            </g>
            <path id="Trazado_108397" data-name="Trazado 108397" d="M814.829,9460.7c-16.077,0-30.992-9.493-31.148-9.595l.406-.63c.162.1,16.331,10.382,33.005,9.409l.044.748C816.366,9460.675,815.595,9460.7,814.829,9460.7Z" fill="#999"/>
            <g id="Grupo_56123" data-name="Grupo 56123">
              <g id="Grupo_56120" data-name="Grupo 56120">
                <path id="Trazado_108398" data-name="Trazado 108398" d="M810.084,9428.414c0-5.345-3.351-9.678-7.485-9.678s-7.486,4.333-7.486,9.678c0,4.18,2.054,7.729,4.924,9.084v9.254h5.656v-9.533C808.281,9435.7,810.084,9432.331,810.084,9428.414Z" fill="#fff"/>
                <path id="Trazado_108399" data-name="Trazado 108399" d="M806.192,9447.252h-6.655v-9.445c-2.957-1.563-4.924-5.29-4.924-9.393,0-5.612,3.582-10.178,7.986-10.178s7.985,4.565,7.985,10.178c0,3.836-1.715,7.364-4.392,9.085Zm-5.655-1h4.655v-9.319l.247-.144c2.518-1.482,4.145-4.771,4.145-8.375,0-5.062-3.134-9.178-6.985-9.178s-6.986,4.116-6.986,9.178c0,3.854,1.864,7.324,4.638,8.632l.286.135Z" fill="#999"/>
              </g>
              <g id="Grupo_56121" data-name="Grupo 56121">
                <rect id="Rectángulo_10148" data-name="Rectángulo 10148" width="17.554" height="2.829" rx="1.209" transform="translate(794.122 9430.418)" fill="#fff"/>
                <path id="Trazado_108400" data-name="Trazado 108400" d="M810.468,9433.748H795.331a1.711,1.711,0,0,1-1.709-1.709v-.412a1.71,1.71,0,0,1,1.709-1.708h15.137a1.709,1.709,0,0,1,1.708,1.708v.412A1.71,1.71,0,0,1,810.468,9433.748Zm-15.137-2.829a.709.709,0,0,0-.709.708v.412a.71.71,0,0,0,.709.709h15.137a.71.71,0,0,0,.708-.709v-.412a.709.709,0,0,0-.708-.708Z" fill="#999"/>
              </g>
              <g id="Grupo_56122" data-name="Grupo 56122">
                <rect id="Rectángulo_10149" data-name="Rectángulo 10149" width="17.554" height="2.829" rx="1.209" transform="translate(794.122 9425.017)" fill="#fff"/>
                <path id="Trazado_108401" data-name="Trazado 108401" d="M810.468,9428.347H795.331a1.711,1.711,0,0,1-1.709-1.709v-.413a1.712,1.712,0,0,1,1.709-1.709h15.137a1.711,1.711,0,0,1,1.708,1.709v.413A1.71,1.71,0,0,1,810.468,9428.347Zm-15.137-2.831a.711.711,0,0,0-.709.709v.413a.71.71,0,0,0,.709.709h15.137a.71.71,0,0,0,.708-.709v-.413a.71.71,0,0,0-.708-.709Z" fill="#999"/>
              </g>
            </g>
            <g id="Grupo_56124" data-name="Grupo 56124">
              <ellipse id="Elipse_4342" data-name="Elipse 4342" cx="11.609" cy="25.109" rx="11.609" ry="25.109" transform="translate(711.466 9502.527)" fill="#fff"/>
              <path id="Trazado_108402" data-name="Trazado 108402" d="M723.075,9553.244c-6.677,0-12.109-11.488-12.109-25.608s5.432-25.608,12.109-25.608,12.108,11.487,12.108,25.608S729.752,9553.244,723.075,9553.244Zm0-50.217c-6.126,0-11.109,11.039-11.109,24.608s4.983,24.608,11.109,24.608,11.108-11.039,11.108-24.608S729.2,9503.027,723.075,9503.027Z" fill="gray"/>
            </g>
            <ellipse id="Elipse_4343" data-name="Elipse 4343" cx="2.445" cy="3.217" rx="2.445" ry="3.217" transform="translate(719.545 9524.418)" fill="#454545"/>
            <path id="Trazado_108403" data-name="Trazado 108403" d="M723.567,9502.614l-.985-.173c.058-.333,1.561-8.179,13.982-10.709l.2.98C725.049,9495.1,723.622,9502.308,723.567,9502.614Z" fill="gray"/>
            <path id="Trazado_108404" data-name="Trazado 108404" d="M788.589,9896.361h0a.5.5,0,0,1-.5-.5c.008-1.5.735-150.14,1.168-158.661.43-8.467-2.419-30.989-2.448-31.216l-3.461-21.637-1.825-35.793c0-.455-.342-43.561.13-54.909.133-3.177.41-6.628.679-9.965.7-8.75,1.431-17.8-.308-23.2-2.4-7.473-16.872-37.6-17.018-37.9l-4.367-12.047c-.044-.125-4.292-12.087-9.538-16.121l-5.427-4.174a.5.5,0,0,1,.61-.793l5.426,4.174c5.482,4.216,9.694,16.075,9.871,16.578l4.346,12c.577,1.194,14.622,30.444,17.05,37.982,1.8,5.59,1.063,14.739.352,23.586-.268,3.328-.545,6.77-.677,9.926-.471,11.324-.133,54.405-.129,54.839l1.818,35.718,3.458,21.6c.031.243,2.891,22.854,2.457,31.409-.432,8.5-1.159,157.114-1.167,158.614A.5.5,0,0,1,788.589,9896.361Z" fill="#4d4d4d"/>
            <path id="Trazado_108405" data-name="Trazado 108405" d="M846.835,9569.653l-6.043-17.177c-1.951-6.221-3.58-15.768-5.155-25-2.075-12.165-4.221-24.743-7.013-28.906l.623-.418c2.881,4.3,4.945,16.393,7.13,29.2,1.571,9.208,3.2,18.73,5.126,24.892l6.039,17.164Z" fill="#999"/>
            <path id="Trazado_108406" data-name="Trazado 108406" d="M742.684,9892.2c-.068-1.316-6.783-132.038-5.914-164.2a156.978,156.978,0,0,1,12.7-57.182v-5.156L723.12,9543.68l.733-.158,26.354,122.058.008,5.4-.037.076a155.852,155.852,0,0,0-12.658,56.955c-.868,32.138,5.845,162.829,5.913,164.146Z" fill="#999"/>
            <g id="Grupo_56125" data-name="Grupo 56125">
              <rect id="Rectángulo_10150" data-name="Rectángulo 10150" width="0.75" height="1.001" transform="translate(721.833 9544.461) rotate(-12.313)" fill="#999"/>
              <path id="Trazado_108407" data-name="Trazado 108407" d="M741.184,9889.119l-.106-2,.749-.039.106,2Zm-.212-4.007-.1-2,.749-.039.1,2Zm-.207-4-.1-2,.749-.038.1,2Zm-.2-4-.1-2,.749-.036.1,2Zm-.2-4-.1-2,.749-.036.1,2Zm-.2-4-.1-2,.75-.036.1,2Zm-.2-4-.1-2,.749-.036.1,2Zm-.193-4-.095-2,.749-.034.1,2Zm-.189-4-.094-2,.749-.034.094,2Zm-.187-4-.092-2,.749-.034.092,2Zm-.184-4-.091-2,.749-.032.091,2Zm-.181-4-.09-2,.749-.032.09,2Zm-.179-4-.088-2,.749-.032.088,2Zm-.175-4-.086-2,.749-.031.086,2Zm-.172-4-.085-2,.749-.03.085,2Zm-.17-4-.083-2,.749-.03.083,2Zm-.165-4-.082-2,.749-.03.082,2Zm-.162-4-.08-2,.749-.028.08,2Zm-.159-4-.078-2,.749-.028.078,2Zm-.155-4-.076-2,.749-.028.076,2Zm-.152-4-.074-2,.749-.026.074,2Zm-.147-4-.072-2,.75-.026.072,2Zm-.143-4.008-.07-2,.75-.026.069,2.006Zm-.138-4.009-.068-2,.75-.026.068,2Zm-.134-4-.064-2,.75-.023.064,2Zm-.127-3.993-.062-1.993.75-.023.062,1.993Zm-.123-3.993-.059-2,.75-.021.059,2Zm-.117-4-.056-2,.75-.021.056,2Zm-.11-4-.053-2,.75-.02.053,2Zm-.1-4-.049-2,.75-.018.049,2Zm-.095-4-.045-2,.75-.016.045,2Zm-.088-4-.041-2,.75-.016.041,2Zm-.079-4-.035-2,.75-.013.035,2Zm-.069-4-.029-2,.75-.01.029,2Zm-.057-4-.024-2,.75-.008.024,2Zm-.044-4-.016-2,.75-.007.016,2Zm-.029-4.006-.009-2,.75,0,.009,2Zm.737-4.006h-.75v-2h.75Zm.008-4-.75,0,.013-2,.75,0Zm.034-4-.75-.007.027-2,.75.011Zm.063-4-.75-.016q.021-1.021.047-2l.75.02Q736.8,9728.044,736.782,9729.063Zm.105-4-.75-.023q.031-1.027.072-2l.749.029Q736.919,9724.042,736.887,9725.066Zm.158-3.989-.749-.037q.051-1.037.109-2l.749.045Q737.1,9720.044,737.045,9721.077Zm.252-3.981-.747-.062q.082-.993.19-2l.746.078Q737.379,9716.111,737.3,9717.1Zm.419-3.966-.744-.094c.084-.66.174-1.325.27-1.991l.742.107Q737.841,9712.146,737.716,9713.13Zm.57-3.951-.74-.12q.159-.987.335-1.979l.739.131Q738.444,9708.2,738.286,9709.179Zm.7-3.937-.736-.142q.189-.984.39-1.969l.735.15C739.237,9703.934,739.108,9704.589,738.982,9705.242Zm.8-3.913-.732-.16q.213-.981.435-1.953l.732.168Q739.995,9700.351,739.782,9701.329Zm.891-3.891-.73-.176q.237-.981.478-1.948l.728.182Q740.907,9696.46,740.673,9697.438Zm.971-3.879-.726-.188q.255-.98.515-1.939l.723.2Q741.9,9692.583,741.644,9693.56Zm1.042-3.859-.723-.2q.276-.98.549-1.929l.72.207Q742.959,9688.722,742.686,9689.7Zm1.108-3.843-.719-.214q.291-.981.579-1.921l.717.219Q744.085,9684.877,743.794,9685.857Zm1.168-3.827-.715-.225q.31-.987.609-1.913l.713.231Q745.274,9681.045,744.962,9682.03Zm1.228-3.809-.711-.234c.22-.669.434-1.306.637-1.9l.71.24Q746.523,9677.219,746.19,9678.222Zm1.287-3.792-.708-.247c.249-.715.474-1.349.669-1.893l.706.254C747.949,9673.086,747.725,9673.718,747.477,9674.43Zm1.355-3.767-.7-.264.119-.314v-1.533H749l-.025,1.736Zm.166-4.111h-.75v-1.346l-.131-.56.732-.16.14.64Zm-1.309-3.86-.427-1.954.733-.16.427,1.954Zm-.854-3.908-.428-1.954.733-.16.427,1.954Zm-.855-3.908-.427-1.954.732-.16.427,1.954Zm-.854-3.908-.428-1.955.732-.161.428,1.956Zm-.855-3.91-.428-1.954.733-.159L745,9646.9Zm-.855-3.907-.428-1.954.733-.16.427,1.954Zm-.855-3.908-.427-1.954.732-.16.427,1.954Zm-.854-3.909-.428-1.954.732-.16.428,1.954Zm-.855-3.908-.428-1.954.733-.161.427,1.955Zm-.855-3.909-.428-1.954.733-.159.427,1.954Zm-.855-3.907-.427-1.955.732-.16.428,1.955Zm-.855-3.909-.427-1.954.732-.16.428,1.954Zm-.854-3.908-.428-1.954.733-.16.427,1.954Zm-.855-3.908-.428-1.954.733-.161.427,1.955Zm-.855-3.909-.427-1.955.732-.159.428,1.953Zm-.855-3.908-.427-1.954.732-.16.428,1.954Zm-.854-3.908-.428-1.954.733-.16.427,1.954Zm-.855-3.908-.428-1.955.733-.16.427,1.955Zm-.855-3.909-.427-1.954.732-.161.428,1.955Zm-.855-3.908-.427-1.955.732-.159.428,1.953Zm-.854-3.908-.427-1.954.732-.16.427,1.954Zm-.855-3.909-.427-1.954.732-.16.427,1.954Zm-.855-3.908-.427-1.954.732-.16.428,1.954Zm-.855-3.908-.427-1.954.732-.161.428,1.955Zm-.854-3.908-.427-1.956.732-.159.427,1.954Zm-.855-3.91-.427-1.953.732-.16.427,1.954Zm-.855-3.907-.427-1.954.733-.16.427,1.954Zm-.855-3.908-.427-1.954.733-.16.427,1.954Zm-.854-3.909-.427-1.954.732-.16.427,1.954Zm-.855-3.908-.427-1.955.732-.159.427,1.953Z" fill="#999"/>
              <rect id="Rectángulo_10151" data-name="Rectángulo 10151" width="0.75" height="0.995" transform="matrix(0.999, -0.054, 0.054, 0.999, 741.282, 9890.945)" fill="#999"/>
            </g>
            <g id="Grupo_56126" data-name="Grupo 56126">
              <rect id="Rectángulo_10152" data-name="Rectángulo 10152" width="0.75" height="1" transform="matrix(0.977, -0.214, 0.214, 0.977, 724.068, 9543.107)" fill="#999"/>
              <path id="Trazado_108408" data-name="Trazado 108408" d="M744.073,9889.508l-.11-1.994.749-.041.11,1.994Zm-.22-3.99-.113-1.991.749-.043.113,1.991Zm-.225-3.983-.112-1.993.749-.041.112,1.991Zm-.224-3.983-.111-1.992.749-.041.111,1.99Zm-.223-3.983-.111-1.991.749-.041.111,1.991Zm-.221-3.981-.11-1.991.749-.041.11,1.991Zm-.219-3.983-.109-1.989.749-.041.109,1.989Zm-.217-3.979-.107-1.991.749-.041.107,1.991Zm-.214-3.983-.107-1.99.749-.039.107,1.988Zm-.213-3.979-.1-1.991.749-.039.1,1.991Zm-.209-3.982-.1-1.99.749-.039.1,1.99Zm-.206-3.98-.1-1.99.749-.039.1,1.99Zm-.2-3.98-.1-1.992.75-.036.1,1.991Zm-.2-3.981-.1-1.99.749-.037.1,1.99Zm-.2-3.981-.1-1.99.749-.038.1,1.991Zm-.194-3.979-.095-1.992.749-.035.1,1.99Zm-.191-3.982-.093-1.991.749-.036.093,1.992Zm-.186-3.982-.092-1.99.749-.035.092,1.991Zm-.182-3.979-.091-1.992.749-.033.091,1.99Zm-.18-3.983-.088-1.991.749-.033.088,1.991Zm-.175-3.983-.086-1.99.749-.031.086,1.99Zm-.17-3.981-.083-1.992.749-.03.083,1.99Zm-.166-3.99-.081-2,.749-.03.081,2Zm-.16-3.988-.079-1.993.749-.029.079,1.991Zm-.155-3.982-.073-1.917.746-.1.076,1.986Zm-.15-3.976-.072-1.984.75-.028.072,1.985Zm-.142-3.976-.07-1.994.75-.024.069,1.991Zm-.138-3.984-.065-1.993.75-.023.065,1.991Zm-.129-3.984-.062-1.992.75-.023.062,1.991Zm-.121-3.984-.058-1.992.75-.021.058,1.991Zm-.114-3.984-.053-1.993.75-.021.053,1.992Zm-.1-3.985-.048-1.993.75-.018.048,1.991Zm-.093-3.986-.043-1.993.75-.016.043,1.992Zm-.082-3.986-.037-1.993.75-.014.037,1.992Zm-.07-3.986-.03-1.994.75-.01.03,1.992Zm-.055-3.988-.021-1.992.75-.009.021,1.994Zm-.038-3.987-.012-1.994.75,0,.012,1.992Zm-.019-3.987v-2l.75,0v1.991Zm.754-3.984-.75,0,.013-1.994.75.007Zm.034-3.98-.75-.008q.012-1.015.029-2l.75.014Q738.867,9733.15,738.854,9734.161Zm.068-3.98-.75-.016q.023-1.015.05-1.993l.75.021Q738.944,9729.167,738.922,9730.181Zm.113-3.976-.75-.027q.038-1.022.08-1.994l.749.034Q739.071,9725.185,739.035,9726.205Zm.176-3.973-.749-.041q.057-1.033.123-1.993l.748.051Q739.267,9721.2,739.211,9722.232Zm.273-3.963-.747-.063q.086-1,.182-1.893l.671-.016.085.011C739.6,9716.985,739.541,9717.611,739.484,9718.27Zm.416-3.948-.745-.088q.117-1,.24-1.98l.744.094Q740.017,9713.319,739.9,9714.321Zm.495-3.945-.744-.1q.135-1,.275-1.977l.742.107Q740.529,9709.374,740.4,9710.376Zm.565-3.937-.742-.113q.153-1,.312-1.97l.741.12Q741.112,9705.442,740.96,9706.439Zm.642-3.923-.739-.128q.176-1,.354-1.963l.738.136Q741.776,9701.521,741.6,9702.517Zm.729-3.9-.736-.146q.2-1,.4-1.954l.734.156Q742.529,9697.617,742.331,9698.612Zm.826-3.886-.732-.166q.227-1,.457-1.942l.728.178Q743.382,9693.735,743.157,9694.727Zm.938-3.855-.725-.188q.258-1,.52-1.929l.722.2Q744.353,9689.881,744.095,9690.871Zm1.07-3.819-.718-.217q.3-.993.6-1.906l.713.232Q745.464,9686.066,745.165,9687.052Zm1.229-3.767-.707-.25q.351-.993.693-1.877l.7.27Q746.741,9682.3,746.394,9683.285Zm1.427-3.689-.69-.293q.423-1,.819-1.83l.678.32Q748.24,9678.616,747.821,9679.6Zm1.693-3.563-.661-.355c.337-.627.677-1.213,1.013-1.743l.634.4C750.174,9674.849,749.842,9675.421,749.514,9676.032Zm2.16-3.31-.351-.262h-.292v-1.9h.75v2.057Zm.107-4.157h-.75v-1.992h.75Zm-.991-3.876-.428-1.945.733-.16.428,1.945Zm-.855-3.891-.428-1.946.733-.159.427,1.945Zm-.855-3.891-.428-1.945.733-.16.427,1.945Zm-.855-3.892-.428-1.944.733-.16.427,1.945Zm-.855-3.89-.428-1.945.732-.16.428,1.945Zm-.855-3.891-.428-1.945.732-.16.428,1.945Zm-.855-3.89-.428-1.945.732-.16.428,1.944Zm-.856-3.891-.427-1.945.732-.161.428,1.946Zm-.855-3.891-.427-1.945.732-.16.428,1.945Zm-.855-3.891-.427-1.946.732-.159.428,1.945Zm-.855-3.891-.427-1.945.732-.16.428,1.945Zm-.855-3.892-.427-1.944.732-.16.428,1.945Zm-.855-3.89-.427-1.946.732-.159.428,1.945Zm-.855-3.89-.427-1.945.732-.16.427,1.945Zm-.855-3.891-.427-1.945.732-.16.427,1.944Zm-.855-3.891-.427-1.945.732-.161.427,1.946Zm-.855-3.891-.428-1.945.733-.16.427,1.945Zm-.855-3.891-.428-1.945.733-.16.427,1.944Zm-.855-3.891-.428-1.945.733-.16.427,1.945Zm-.856-3.892-.427-1.944.733-.16.427,1.945Zm-.854-3.889-.428-1.946.733-.159.427,1.945Zm-.855-3.891-.428-1.945.733-.16.427,1.945Zm-.855-3.891-.428-1.945.732-.16.428,1.945Zm-.855-3.891-.428-1.945.732-.161.428,1.946Zm-.855-3.891-.428-1.945.732-.16.428,1.945Zm-.856-3.891-.427-1.945.732-.16.428,1.944Zm-.855-3.891-.427-1.945.732-.16.428,1.945Zm-.855-3.89-.427-1.945.732-.16.428,1.945Zm-.855-3.891-.428-1.946.733-.159.428,1.945Zm-.855-3.891-.428-1.945.733-.16.428,1.945Zm-.855-3.892-.428-1.944.733-.16.428,1.945Z" fill="#999"/>
              <path id="Trazado_108409" data-name="Trazado 108409" d="M744.852,9892.656l-.272-.259-.372-.038c0-.079-.009-.4-.036-.938l.749-.037C744.977,9892.524,744.977,9892.524,744.852,9892.656Z" fill="#999"/>
            </g>
            <path id="Trazado_108410" data-name="Trazado 108410" d="M804.084,9499.1a.5.5,0,0,1-.005-1c8.126-.076,13.406-6.833,13.458-6.9a.5.5,0,0,1,.794.608c-.225.294-5.62,7.212-14.242,7.293Z" fill="#4d4d4d"/>
            <g id="Grupo_56130" data-name="Grupo 56130">
              <g id="Grupo_56127" data-name="Grupo 56127" opacity="0.74">
                <path id="Trazado_108411" data-name="Trazado 108411" d="M705.682,9533.2c.2,5.815.734,9.824.734,9.824l1.925,7.321A168.678,168.678,0,0,1,705.682,9533.2Z" fill="#ccc"/>
                <path id="Trazado_108412" data-name="Trazado 108412" d="M708.34,9550.849a.5.5,0,0,1-.483-.374l-1.924-7.32c-.018-.1-.553-4.16-.75-9.935a.5.5,0,0,1,.466-.516.493.493,0,0,1,.531.45,167.628,167.628,0,0,0,2.649,17.084.5.5,0,0,1-.369.6A.511.511,0,0,1,708.34,9550.849Z" fill="#4d4d4d"/>
              </g>
              <g id="Grupo_56128" data-name="Grupo 56128" opacity="0.74">
                <path id="Trazado_108413" data-name="Trazado 108413" d="M706.777,9513.642a100.568,100.568,0,0,0-1.095,19.541Z" fill="#ccc"/>
                <path id="Trazado_108414" data-name="Trazado 108414" d="M705.682,9533.682h-.006a.5.5,0,0,1-.494-.482,102.125,102.125,0,0,1,1.1-19.641.508.508,0,0,1,.549-.414.5.5,0,0,1,.443.526l-1.094,19.54A.5.5,0,0,1,705.682,9533.682Z" fill="#4d4d4d"/>
              </g>
              <g id="Grupo_56129" data-name="Grupo 56129" opacity="0.74">
                <path id="Trazado_108415" data-name="Trazado 108415" d="M818.938,9816.926s-.522-54.957.3-71.478-6.388-68.912-6.388-68.912l3.041-68.827-4.883-68.7-6.925-40.416c-26.064-2.607-32.8-19.584-32.8-19.584-6.783,8-32.348,13.21-32.348,13.21-30.435,1.209-28.522,9.052-28.522,9.052a47.668,47.668,0,0,0-3.628,12.3c.181-.656,2.992-10.748,5.288-12.736,2.373-2.055,6.644-3.913,10.124-1.7s14.912,28.435,15.173,41.608c.167,8.469-4.732,15.429-8.253,19.319a10.2,10.2,0,0,1-8.608,3.321c-6.764-.723-8.436-3.988-8.436-3.988-.985-.573-1.87-2.434-2.645-4.911l6.724,25.577s17.044,76.855,19.256,82.913,0,14.7,0,14.7l-5.691,20.111c-10.26,19.827-10.087,69.218-10.087,69.218s3.3,140,3.853,149.565,12.156,14.261,12.156,14.261a71.814,71.814,0,0,0,43.644,0l40.7-12Z" fill="#ccc"/>
                <path id="Trazado_108416" data-name="Trazado 108416" d="M757.171,9934.716a69.023,69.023,0,0,1-21.686-3.4c-.516-.208-11.938-4.937-12.5-14.707-.543-9.465-3.82-148.182-3.854-149.582,0-.506-.057-49.678,10.12-69.413l5.678-20.062c.018-.074,2.144-8.555.011-14.394-2.2-6.02-18.579-79.837-19.275-82.977l-6.72-25.559a.5.5,0,0,1,.961-.276c1.018,3.255,1.878,4.313,2.419,4.628a.5.5,0,0,1,.194.205c.014.027,1.68,3.039,8.044,3.72a9.722,9.722,0,0,0,8.185-3.161c3.793-4.192,8.283-10.887,8.123-18.974-.257-12.984-11.52-39.016-14.942-41.2-3.464-2.208-7.619,0-9.528,1.651-1.759,1.524-4.127,8.837-5.133,12.491a.5.5,0,0,1-.975-.216A48.284,48.284,0,0,1,709.9,9501.2a3.573,3.573,0,0,1,.852-2.445c2.095-2.779,8.682-6.254,28.166-7.029.174-.042,25.393-5.257,31.986-13.033a.5.5,0,0,1,.462-.171.505.505,0,0,1,.385.31c.066.167,6.953,16.727,32.383,19.271a.5.5,0,0,1,.443.414l6.925,40.415,4.889,68.745-3.041,68.884c.068.435,7.205,52.536,6.389,68.915-.813,16.315-.307,70.878-.3,71.448l1.043,101.913a.5.5,0,0,1-.358.484l-40.7,12A70.761,70.761,0,0,1,757.171,9934.716Zm-45.946-375.365,5.414,20.593c.175.787,17.066,76.91,19.242,82.867,2.24,6.134.107,14.639.015,15l-5.7,20.124a.427.427,0,0,1-.037.094c-10.087,19.491-10.033,68.492-10.031,68.985.033,1.39,3.31,140.09,3.852,149.539.525,9.144,11.731,13.78,11.845,13.825,22.665,7.5,43.078.072,43.281,0l40.367-11.9-1.04-101.535h0c-.006-.55-.513-55.161.3-71.507.812-16.288-6.313-68.3-6.384-68.82l3.037-68.918-4.883-68.638-6.855-39.992c-22.725-2.416-30.858-15.9-32.5-19.152-7.463,7.712-31.089,12.6-32.114,12.81-20.019.8-25.774,4.458-27.43,6.566a2.508,2.508,0,0,0-.7,1.886.537.537,0,0,1-.036.323l-.066.141a5.418,5.418,0,0,1,.947-1.168c2.837-2.459,7.253-3.949,10.719-1.739,3.749,2.39,15.14,28.648,15.4,42.021.166,8.414-4.467,15.338-8.382,19.665a10.71,10.71,0,0,1-9.032,3.482c-6.27-.67-8.352-3.478-8.753-4.128A2.889,2.889,0,0,1,711.225,9559.351Z" fill="#4d4d4d"/>
              </g>
            </g>
            <path id="Trazado_108417" data-name="Trazado 108417" d="M737.216,9930.817h-.009a.5.5,0,0,1-.491-.511l.7-37.918,2.236-47.661c-.016-.908-1.568-94.281-1.74-113.711-.173-19.544,6.112-32.445,6.176-32.574l7.412-20.455.767-4.438c.01-.16.39-5.046.657-7.057.246-1.855-1.392-5.5-1.409-5.533l-8.892-35.433-17.793-62.67a.5.5,0,1,1,.962-.273l17.8,62.684,8.867,35.363c.042.075,1.743,3.854,1.459,5.993-.263,1.984-.653,7-.657,7.051l-.8,4.57-7.457,20.592c-.085.177-6.264,12.882-6.094,32.172.172,19.425,1.724,112.795,1.739,113.736l-2.236,47.677-.7,37.905A.5.5,0,0,1,737.216,9930.817Z" fill="#4d4d4d"/>
            <g id="Grupo_56131" data-name="Grupo 56131">
              <path id="Trazado_108418" data-name="Trazado 108418" d="M727.4,9573.147l4.536-3.18,2.1.646s.889.3.889-.556l-1.733-3.5s-.843-1.5-1.529-.146l-.681,2.469-4.126,3.188-.668,1.146Z" fill="#666"/>
            </g>
            <g id="Grupo_56132" data-name="Grupo 56132">
              <path id="Trazado_108419" data-name="Trazado 108419" d="M740.029,9620.451l4.536-3.178,2.1.644s.89.3.889-.554l-1.733-3.5s-.843-1.5-1.529-.146l-.68,2.47-4.127,3.188-.668,1.146Z" fill="#666"/>
            </g>
            <g id="Grupo_56133" data-name="Grupo 56133">
              <path id="Trazado_108420" data-name="Trazado 108420" d="M752.356,9665.03l5.194-1.927,1.865,1.155s.785.514,1-.311l-.789-3.827s-.436-1.664-1.442-.528l-1.284,2.216-4.8,2.039-.936.939Z" fill="#666"/>
            </g>
            <g id="Grupo_56134" data-name="Grupo 56134">
              <path id="Trazado_108421" data-name="Trazado 108421" d="M742.191,9699.379l5.537.156,1.3,1.768s.536.771,1.044.086l.7-3.844s.218-1.707-1.14-1.03l-2.02,1.576-5.213.095-1.22.521Z" fill="#666"/>
            </g>
            <g id="Grupo_56135" data-name="Grupo 56135">
              <path id="Trazado_108422" data-name="Trazado 108422" d="M735.6,9756.6l5.536.156,1.3,1.77s.537.769,1.045.085l.7-3.845s.219-1.707-1.139-1.028l-2.02,1.574-5.214.1-1.219.52Z" fill="#666"/>
            </g>
            <g id="Grupo_56136" data-name="Grupo 56136">
              <path id="Trazado_108423" data-name="Trazado 108423" d="M738.935,9806.857l5.537.155,1.3,1.769s.536.77,1.044.086l.7-3.844s.218-1.707-1.14-1.029l-2.02,1.575-5.213.1-1.22.52Z" fill="#666"/>
            </g>
            <g id="Grupo_56137" data-name="Grupo 56137">
              <path id="Trazado_108424" data-name="Trazado 108424" d="M738.024,9865.946l5.537.155,1.3,1.769s.536.77,1.044.086l.7-3.844s.218-1.707-1.14-1.03l-2.019,1.576-5.214.095-1.22.521Z" fill="#666"/>
            </g>
            <g id="Grupo_56138" data-name="Grupo 56138">
              <path id="Trazado_108425" data-name="Trazado 108425" d="M820.892,9879.8l4.381-3.388,2.125.546s.9.255.862-.6l-1.9-3.416s-.913-1.459-1.534-.074l-.564,2.5-3.973,3.378-.613,1.176Z" fill="#666"/>
            </g>
            <g id="Grupo_56139" data-name="Grupo 56139">
              <path id="Trazado_108426" data-name="Trazado 108426" d="M818.927,9769.356l4.382-3.389,2.125.545s.9.255.862-.6l-1.9-3.416s-.913-1.459-1.534-.074l-.564,2.5-3.972,3.379-.614,1.175Z" fill="#666"/>
            </g>
            <g id="Grupo_56140" data-name="Grupo 56140">
              <path id="Trazado_108427" data-name="Trazado 108427" d="M818.927,9720.747l4.382-3.388,2.125.545s.9.256.862-.6l-1.9-3.416s-.913-1.458-1.534-.073l-.564,2.5-3.972,3.378-.614,1.175Z" fill="#666"/>
            </g>
            <g id="Grupo_56141" data-name="Grupo 56141">
              <path id="Trazado_108428" data-name="Trazado 108428" d="M815.782,9720.747l-4.382-3.388-2.125.545s-.9.256-.862-.6l1.9-3.416s.912-1.458,1.534-.073l.564,2.5,3.972,3.378.614,1.175Z" fill="#666"/>
            </g>
            <g id="Grupo_56142" data-name="Grupo 56142">
              <path id="Trazado_108429" data-name="Trazado 108429" d="M819.971,9768.342l4.381,3.389,2.125-.546s.9-.256.862.6l-1.9,3.417s-.913,1.458-1.534.074l-.564-2.5-3.973-3.379-.613-1.176Z" fill="#666"/>
            </g>
            <g id="Grupo_56143" data-name="Grupo 56143">
              <path id="Trazado_108430" data-name="Trazado 108430" d="M817.762,9879.017l-4.381-3.388-2.125.545s-.9.255-.862-.6l1.9-3.416s.913-1.459,1.534-.074l.564,2.5,3.973,3.378.613,1.175Z" fill="#666"/>
            </g>
            <g id="Grupo_56144" data-name="Grupo 56144">
              <path id="Trazado_108431" data-name="Trazado 108431" d="M728.153,9495.537l-2.6-4.891.9-2s.4-.846-.442-.949l-3.687,1.292s-1.591.652-.332,1.5l2.368.978,2.659,4.485,1.055.8Z" fill="#666"/>
            </g>
            <g id="Grupo_56145" data-name="Grupo 56145">
              <path id="Trazado_108432" data-name="Trazado 108432" d="M755.273,9490.32l-2.6-4.892.9-2s.4-.847-.442-.951l-3.687,1.292s-1.592.653-.332,1.5l2.368.978,2.659,4.486,1.055.8Z" fill="#666"/>
            </g>
            <g id="Grupo_56146" data-name="Grupo 56146">
              <path id="Trazado_108433" data-name="Trazado 108433" d="M770.96,9485.363l-2.6-4.892.9-2s.4-.846-.442-.95l-3.687,1.292s-1.592.653-.332,1.5l2.368.979,2.659,4.485,1.055.8Z" fill="#666"/>
            </g>
            <path id="Trazado_108434" data-name="Trazado 108434" d="M774.926,9543.735c-9.3-33.147-27.545-51.7-27.728-51.882l.707-.706c.185.186,18.615,18.9,27.984,52.318Z" fill="#666"/>
            <path id="Trazado_108435" data-name="Trazado 108435" d="M768.39,9741.633l-1-.021c.006-.264.6-26.534,3.034-38.956,2.428-12.365,4.22-24.449,4.238-24.57a229.39,229.39,0,0,0,0-23.557c-.727-9.731-4.162-43.816-4.24-44.585-.231-.085-.437-.181-.605-.259-.1-.048-.193-.09-.264-.115-1.143-.415-1.2-2.168-1.256-4.2-.008-.285-.017-.574-.029-.861-.054-1.307.2-3.6,1.137-4.576a1.388,1.388,0,0,1,1.015-.466c1.9,0,2.258,3.058,2.355,6.048a8.174,8.174,0,0,1-.447,3.245c.555-.678,1.16-2.606.552-8.042-1.047-9.351-1.8-10.431-1.886-10.523a.349.349,0,0,0,.222.087l.024-.447-.372-.412.583-.1c.362.138,1.211.46,2.423,11.285.58,5.185.191,8.188-1.189,9.183a1.93,1.93,0,0,1-1.236.37c.36,3.576,3.516,35,4.21,44.292a229.225,229.225,0,0,1,0,23.73c-.023.167-1.819,12.274-4.251,24.664C768.984,9715.184,768.4,9741.37,768.39,9741.633Zm2.026-141.163c-.035,0-.141,0-.293.158-.584.609-.916,2.479-.86,3.843.012.29.021.583.03.872.039,1.31.093,3.1.6,3.287.091.033.207.086.341.147a5.378,5.378,0,0,0,.787.309,5.641,5.641,0,0,0,.753-3.534C771.627,9601.13,770.86,9600.47,770.416,9600.47Z" fill="#666"/>
            <path id="Trazado_108436" data-name="Trazado 108436" d="M772.352,9736.314c-.351-4.334-1.674-15.981-3.554-17.806l.7-.717c2.489,2.415,3.722,16.808,3.854,18.442Z" fill="#666"/>
            <path id="Trazado_108437" data-name="Trazado 108437" d="M797.271,9734.793c-.018-.1-1.821-10.6-3.632-17.622-1.833-7.1-1.639-24.889-1.63-25.642l-1.021-34.284v-41.884c0-.087.148-7.584-1.648-10.289l.833-.554c1.97,2.967,1.823,10.533,1.815,10.854v41.857l1.021,34.289c0,.2-.2,18.428,1.6,25.4,1.821,7.058,3.63,17.6,3.648,17.7Z" fill="#666"/>
            <path id="Trazado_108438" data-name="Trazado 108438" d="M795.524,9732.628l-1-.012c0-.1.106-10.482-.724-14.811l.983-.187C795.631,9722.044,795.529,9732.2,795.524,9732.628Z" fill="#666"/>
            <path id="Trazado_108439" data-name="Trazado 108439" d="M788.067,9608.294l-.085-1,.042.5-.044-.5c.107-.011,2.656-.293,3.011-3.6.43-4.008.567-7.1-1.606-10.364l.833-.555c2.54,3.82,2.13,7.648,1.767,11.026C791.541,9607.95,788.1,9608.291,788.067,9608.294Z" fill="#666"/>
            <path id="Trazado_108440" data-name="Trazado 108440" d="M790.981,9606.413l-1-.043c.39-9.182-2.188-10.912-2.214-10.928l.5-.864C788.592,9594.76,791.4,9596.639,790.981,9606.413Z" fill="#666"/>
          </g>
          <g id="Grupo_56170" data-name="Grupo 56170">
            <g id="Grupo_56168" data-name="Grupo 56168">
              <g id="Grupo_56151" data-name="Grupo 56151">
                <g id="Grupo_56148" data-name="Grupo 56148">
                  <path id="Trazado_108441" data-name="Trazado 108441" d="M964.575,9445.956c0-5.682-3.443-10.289-7.691-10.289s-7.691,4.607-7.691,10.289c0,4.444,2.11,8.218,5.059,9.657v9.838h5.811v-10.134C962.723,9453.7,964.575,9450.12,964.575,9445.956Z" fill="#fff"/>
                  <path id="Trazado_108442" data-name="Trazado 108442" d="M960.563,9465.951h-6.811v-10.033c-3.038-1.655-5.059-5.609-5.059-9.962,0-5.949,3.674-10.789,8.191-10.789s8.191,4.84,8.191,10.789c0,4.071-1.762,7.813-4.512,9.636Zm-5.811-1h4.811v-9.915l.24-.146c2.6-1.581,4.272-5.087,4.272-8.934,0-5.4-3.226-9.789-7.191-9.789s-7.191,4.391-7.191,9.789c0,4.112,1.92,7.812,4.778,9.208l.281.137Z" fill="#999"/>
                </g>
                <g id="Grupo_56149" data-name="Grupo 56149">
                  <rect id="Rectángulo_10153" data-name="Rectángulo 10153" width="18.037" height="3.008" rx="1.435" transform="translate(948.175 9448.087)" fill="#fff"/>
                  <path id="Trazado_108443" data-name="Trazado 108443" d="M964.776,9451.595H949.609a1.938,1.938,0,0,1-1.934-1.935v-.139a1.937,1.937,0,0,1,1.934-1.935h15.167a1.937,1.937,0,0,1,1.935,1.935v.139A1.938,1.938,0,0,1,964.776,9451.595Zm-15.167-3.008a.935.935,0,0,0-.934.935v.139a.935.935,0,0,0,.934.935h15.167a.935.935,0,0,0,.935-.935v-.139a.935.935,0,0,0-.935-.935Z" fill="#999"/>
                </g>
                <g id="Grupo_56150" data-name="Grupo 56150">
                  <rect id="Rectángulo_10154" data-name="Rectángulo 10154" width="18.037" height="3.008" rx="1.435" transform="translate(948.175 9442.344)" fill="#fff"/>
                  <path id="Trazado_108444" data-name="Trazado 108444" d="M964.776,9445.852H949.609a1.936,1.936,0,0,1-1.934-1.935v-.138a1.937,1.937,0,0,1,1.934-1.936h15.167a1.937,1.937,0,0,1,1.935,1.936v.138A1.937,1.937,0,0,1,964.776,9445.852Zm-15.167-3.008a.936.936,0,0,0-.934.936v.138a.936.936,0,0,0,.934.935h15.167a.936.936,0,0,0,.935-.935v-.138a.936.936,0,0,0-.935-.936Z" fill="#999"/>
                </g>
              </g>
              <g id="Grupo_56152" data-name="Grupo 56152">
                <rect id="Rectángulo_10155" data-name="Rectángulo 10155" width="11.321" height="115.46" transform="translate(941.739 9834.76)" fill="#313131"/>
                <rect id="Rectángulo_10156" data-name="Rectángulo 10156" width="1" height="135.29" transform="translate(887.296 9815.39) rotate(-4.521)" fill="#313131"/>
                <rect id="Rectángulo_10157" data-name="Rectángulo 10157" width="1" height="130.839" transform="translate(895.227 9819.768) rotate(-4.195)" fill="#313131"/>
                <rect id="Rectángulo_10158" data-name="Rectángulo 10158" width="1" height="128.146" transform="matrix(0.998, -0.064, 0.064, 0.998, 900.011, 9822.372)" fill="#313131"/>
                <rect id="Rectángulo_10159" data-name="Rectángulo 10159" width="1" height="112.67" transform="translate(935.97 9837.577) rotate(-1.043)" fill="#313131"/>
                <rect id="Rectángulo_10160" data-name="Rectángulo 10160" width="1" height="123.183" transform="translate(911.633 9827.271) rotate(-3.309)" fill="#313131"/>
                <rect id="Rectángulo_10161" data-name="Rectángulo 10161" width="1" height="110.241" transform="translate(966.871 9839.979)" fill="#313131"/>
                <rect id="Rectángulo_10162" data-name="Rectángulo 10162" width="110.25" height="1" transform="translate(972.924 9950.214) rotate(-89.329)" fill="#313131"/>
                <rect id="Rectángulo_10163" data-name="Rectángulo 10163" width="1" height="115.764" transform="translate(984.908 9834.456)" fill="#313131"/>
                <rect id="Rectángulo_10164" data-name="Rectángulo 10164" width="1" height="119.291" transform="translate(989.043 9830.929)" fill="#313131"/>
                <rect id="Rectángulo_10165" data-name="Rectángulo 10165" width="127.915" height="1" transform="matrix(0.023, -1, 1, 0.023, 997.23, 9950.208)" fill="#313131"/>
                <path id="Trazado_108445" data-name="Trazado 108445" d="M970.456,9899.458c-20.591,0-38.655-10.232-39.282-10.592-.26-.13-4.241-2.122-9.14-4.479a141.826,141.826,0,0,1-24.71-15.513c-.309-.339-6.156-7.045-4.815-13.9.712-3.642,3.33-6.607,7.779-8.812,15.486-7.672,38.692,2.825,39.672,3.274l37.17,15.1c15.123,6.72,22.685,13.4,22.49,19.855-.238,7.862-11.8,12.272-12.294,12.457A53.219,53.219,0,0,1,970.456,9899.458Zm-56.861-55.053a28.952,28.952,0,0,0-12.863,2.651c-4.154,2.06-6.59,4.787-7.241,8.106-1.249,6.366,4.465,12.927,4.523,12.992a141.839,141.839,0,0,0,24.453,15.331c5.051,2.43,9.128,4.472,9.168,4.491l.028.017c.287.167,29.058,16.664,55.33,7.91.1-.036,11.411-4.354,11.627-11.545.181-6.012-7.181-12.372-21.881-18.9l-37.175-15.1C939.374,9850.266,926.418,9844.405,913.595,9844.405Z" fill="#313131"/>
                <path id="Trazado_108446" data-name="Trazado 108446" d="M966.416,9947.769a51.679,51.679,0,0,1-14.406-1.92l-.006,0a126.391,126.391,0,0,1-11.74-4.718c-13.593-6.538-28.136-14.517-28.281-14.6-.632-.269-16.529-7.144-16.724-14.079-.066-2.346,1.627-4.391,5.029-6.077,15.488-7.672,38.692,2.824,39.672,3.275l37.17,15.1c10.218,3.591,15.472,7.453,15.591,11.471.141,4.731-6.823,7.71-7.12,7.835A49.576,49.576,0,0,1,966.416,9947.769Zm-14.092-2.87c.29.094,16.393,5.158,32.89-1.764.066-.028,6.63-2.837,6.507-6.885-.073-2.449-2.726-6.27-14.945-10.565l-37.212-15.115c-.257-.116-23.774-10.758-38.832-3.3-3.022,1.5-4.527,3.231-4.473,5.153.177,6.3,16,13.14,16.161,13.208.189.1,14.71,8.066,28.278,14.593A124.77,124.77,0,0,0,952.324,9944.9Z" fill="#313131"/>
              </g>
              <g id="Grupo_56153" data-name="Grupo 56153">
                <path id="Trazado_108447" data-name="Trazado 108447" d="M1011.575,9528.21c-2.553-6.745-6.654-7.384-6.654-7.384l-7.384-2.916-28.075-12.761c-.638-2.463-.091-8.751-.091-8.751.912-6.2,5.469-17.047,5.469-17.047,1.459-3.92.456-6.38.456-6.38-10.027-13.582-25.067-11.941-27.8-11.941s-4.558,3.373-4.558,3.373l-11.03,24.793-41.752,34.456a113.172,113.172,0,0,0-11.431,12.01c-4.466,5.743-1.823,16.271-1.823,16.271l12.215,40.883L909.545,9655l-.057,4.8s-5.461,10.572-8.431,17.468c-3.537,8.209-5.47,14.723-8.022,19.78-7.656,15.176-6.595,36.179-6.595,36.179l-.4,97.8c50.2,33.187,113.767,19.669,113.767,19.669s.492-128.138.1-135.246c-.317-5.8-2.167-25.478-4.052-31.9-.965-3.289-4.423-8.988-5.013-12.761-.5-3.213-2.814-6.119-2.005-8.66,3.828-12.032,7.734-19.484,10.209-32.177,3.374-17.3,13.8-30.231,15.678-48.31C1017.432,9555.572,1012.505,9530.668,1011.575,9528.21Z" fill="#fff"/>
                <path id="Trazado_108448" data-name="Trazado 108448" d="M968.53,9853.849c-23.06,0-55.064-4.087-82.77-22.4l-.225-.148v-.271l.4-97.8c-.01-.184-.979-21.281,6.649-36.4a102.116,102.116,0,0,0,3.984-9.623c1.136-3,2.423-6.411,4.025-10.13,2.785-6.466,7.813-16.268,8.392-17.393l.054-4.6-20.4-62.109-12.219-40.895c-.116-.461-2.656-10.854,1.908-16.721a114.476,114.476,0,0,1,11.491-12.075l41.677-34.395L942.48,9464.2c.1-.184,2.016-3.67,5.015-3.67.2,0,.471-.009.8-.021,11.913-.4,21.145,3.689,27.4,12.165l.061.108c.044.106,1.058,2.688-.45,6.743-.053.128-4.551,10.88-5.443,16.944,0,.031-.5,5.828.027,8.324l27.852,12.66,7.315,2.889c.56.111,4.495,1.118,6.983,7.689,1.018,2.691,5.85,27.94,3.178,53.668-1.033,9.954-4.691,18.479-8.228,26.722-2.918,6.8-5.936,13.836-7.456,21.633a126.653,126.653,0,0,1-6.311,21.053c-1.277,3.465-2.6,7.048-3.913,11.18-.436,1.372.194,2.978.862,4.681a17.869,17.869,0,0,1,1.161,3.75c.337,2.155,1.7,5.081,2.9,7.663a40.817,40.817,0,0,1,2.1,5.035c1.963,6.686,3.788,26.815,4.071,32.008.385,7.043-.1,133.994-.1,135.275v.4l-.4.084A169.823,169.823,0,0,1,968.53,9853.849Zm-81.993-23.088c47.366,31.152,107.328,20.572,112.768,19.526.03-8,.475-127.993.1-134.809-.282-5.164-2.092-25.171-4.032-31.78a40.522,40.522,0,0,0-2.05-4.895c-1.288-2.771-2.619-5.636-2.978-7.931a17.126,17.126,0,0,0-1.1-3.539c-.734-1.871-1.428-3.639-.884-5.349,1.322-4.154,2.647-7.747,3.928-11.223a125.883,125.883,0,0,0,6.267-20.9c1.541-7.9,4.58-14.985,7.519-21.836,3.508-8.176,7.135-16.627,8.153-26.431,2.654-25.557-2.113-50.551-3.12-53.211-2.4-6.35-6.228-7.061-6.266-7.067l-.1-.028-7.383-2.916-28.316-12.87-.059-.23c-.653-2.516-.129-8.66-.106-8.921.914-6.219,5.319-16.75,5.506-17.194a9.248,9.248,0,0,0,.472-5.949c-9.114-12.287-22.213-11.848-26.52-11.7-.345.01-.626.021-.836.021-2.409,0-4.1,3.08-4.118,3.109l-11.061,24.867-.09.075-41.752,34.456a113.42,113.42,0,0,0-11.355,11.931c-4.263,5.481-1.759,15.739-1.733,15.841l12.209,40.861,20.451,62.255-.059,5-.054.105c-.055.105-5.488,10.635-8.417,17.436-1.593,3.7-2.876,7.091-4.008,10.087a102.419,102.419,0,0,1-4.027,9.721c-7.506,14.88-6.552,35.719-6.542,35.928Z" fill="#999"/>
              </g>
              <path id="Trazado_108449" data-name="Trazado 108449" d="M892.888,9833.99l-1-.018,2.015-120.5a84.444,84.444,0,0,1,6.244-22.83c4.684-10.235,12.607-28.131,13.262-29.612v-4.93l-24.227-83.974c-.053-.152-6.017-17.776-2.556-31.436a47.25,47.25,0,0,1,14.38-24.189c7.174-6.811,23.365-19.881,23.528-20.013l7.994-7.451.682.731-8.021,7.476c-.19.154-16.35,13.2-23.5,19.98a46.342,46.342,0,0,0-14.1,23.711c-3.386,13.368,2.481,30.716,2.54,30.89l24.274,84.135-.043,5.377c-.083.189-8.443,19.086-13.31,29.721a83.535,83.535,0,0,0-6.156,22.477Z" fill="#999"/>
              <path id="Trazado_108450" data-name="Trazado 108450" d="M910.494,9843.3l-1-.008.889-121.993a71.9,71.9,0,0,1,1.89-15.345,112.122,112.122,0,0,1,5.642-17.759,119.7,119.7,0,0,0,7.08-21.638c0-.059.923-10.635-.964-27.335-1.892-16.762-5.3-48.9-5.332-49.226l-3.963-28.562c-.033-1.143-.626-26.84,5.1-39.38,5.679-12.438,17.522-37.223,17.642-37.472.111-.183,8.359-13.315,11.042-23.739l.968.25c-2.722,10.577-11.053,23.838-11.136,23.972-.091.2-11.931,24.974-17.606,37.405-5.629,12.329-5.021,38.619-5.014,38.883l3.96,28.521c.037.339,3.442,32.476,5.334,49.235,1.9,16.81.968,27.478.959,27.583a119.96,119.96,0,0,1-7.148,21.89,111.1,111.1,0,0,0-5.589,17.6,70.865,70.865,0,0,0-1.864,15.126Z" fill="#999"/>
              <path id="Trazado_108451" data-name="Trazado 108451" d="M998.715,9571.59c-.084,0-.168,0-.252-.008-5.446-.315-9.128-10.69-8.382-23.619s5.626-22.846,11.043-22.5c5.446.314,9.128,10.689,8.382,23.619C1008.772,9561.812,1004.059,9571.59,998.715,9571.59Zm2.16-45.134c-4.656,0-9.116,9.767-9.8,21.563-.69,11.958,2.718,22.291,7.442,22.565.063,0,.127,0,.19,0,4.656,0,9.117-9.767,9.8-21.563h0c.69-11.958-2.718-22.291-7.442-22.564C1001,9526.457,1000.939,9526.456,1000.875,9526.456Z" fill="#999"/>
              <ellipse id="Elipse_4344" data-name="Elipse 4344" cx="1.471" cy="3.601" rx="1.471" ry="3.601" transform="translate(999.465 9544.199)" fill="#999"/>
              <path id="Trazado_108452" data-name="Trazado 108452" d="M970.845,9670.258a354.034,354.034,0,0,1-45.424-3.114c-4.245-.552-15.206-6.646-15.67-6.906l-.257-.143v-5.985l.709.325c.115.054,11.575,5.312,15.609,6.119,25.356,5.074,62.466,2.635,62.838,2.608l.391-.026,1.983,6.2-.6.074A181.679,181.679,0,0,1,970.845,9670.258Zm-60.351-10.752c1.7.933,11.345,6.163,15.056,6.646,36.535,4.759,60.155,2.739,64.152,2.334l-1.375-4.3c-4.062.246-38.63,2.166-62.712-2.649-3.6-.721-12.517-4.688-15.121-5.867Z" fill="#999"/>
              <path id="Trazado_108453" data-name="Trazado 108453" d="M914.251,9661.863l-1.613-1.9,1.513-1.634-1.439-1.846.519-.4,1.783,2.286-1.5,1.616,1.236,1.457Z" fill="#999"/>
              <path id="Trazado_108454" data-name="Trazado 108454" d="M916.627,9662.978l-1.613-1.9,1.513-1.635-1.439-1.845.519-.4,1.783,2.285-1.5,1.617,1.236,1.457Z" fill="#999"/>
              <path id="Trazado_108455" data-name="Trazado 108455" d="M919,9664.254l-1.613-1.9,1.513-1.634-1.439-1.845.519-.405,1.783,2.286-1.5,1.617,1.236,1.457Z" fill="#999"/>
              <path id="Trazado_108456" data-name="Trazado 108456" d="M921.38,9665.383l-1.613-2.006,1.513-1.725-1.439-1.947.519-.427,1.783,2.412-1.5,1.707,1.236,1.537Z" fill="#999"/>
              <path id="Trazado_108457" data-name="Trazado 108457" d="M923.23,9666.03l-1.613-2.006,1.513-1.726-1.439-1.947.519-.427,1.783,2.412-1.5,1.707,1.236,1.538Z" fill="#999"/>
              <path id="Trazado_108458" data-name="Trazado 108458" d="M925.178,9666.414l-1.613-2.007,1.513-1.725-1.439-1.947.519-.427,1.783,2.412-1.5,1.707,1.236,1.537Z" fill="#999"/>
              <path id="Trazado_108459" data-name="Trazado 108459" d="M927.366,9667.307l-1.613-2.007,1.513-1.725-1.439-1.947.519-.427,1.783,2.412-1.5,1.707,1.236,1.537Z" fill="#999"/>
              <path id="Trazado_108460" data-name="Trazado 108460" d="M929.518,9667.307l-1.613-2.007,1.513-1.725-1.439-1.947.519-.427,1.783,2.412-1.5,1.707,1.236,1.537Z" fill="#999"/>
              <path id="Trazado_108461" data-name="Trazado 108461" d="M931.894,9667.72l-1.613-2.007,1.513-1.725-1.439-1.947.519-.427,1.783,2.412-1.5,1.707,1.236,1.537Z" fill="#999"/>
              <path id="Trazado_108462" data-name="Trazado 108462" d="M933.85,9667.968l-1.613-2.006,1.513-1.725-1.439-1.947.519-.427,1.783,2.412-1.5,1.706,1.236,1.538Z" fill="#999"/>
              <path id="Trazado_108463" data-name="Trazado 108463" d="M935.914,9668.2,934.3,9666.2l1.513-1.725-1.439-1.947.519-.427,1.783,2.412-1.5,1.707,1.236,1.537Z" fill="#999"/>
              <path id="Trazado_108464" data-name="Trazado 108464" d="M938.1,9668.654l-1.613-2.006,1.513-1.726-1.439-1.947.519-.427,1.783,2.412-1.5,1.707,1.236,1.538Z" fill="#999"/>
              <path id="Trazado_108465" data-name="Trazado 108465" d="M940.112,9668.581l-1.48-1.841,1.388-1.584-1.321-1.787.477-.392,1.637,2.214-1.374,1.566,1.134,1.411Z" fill="#999"/>
              <path id="Trazado_108466" data-name="Trazado 108466" d="M942.293,9668.832l-1.48-1.841,1.388-1.584-1.321-1.787.477-.392,1.637,2.214-1.374,1.566,1.134,1.411Z" fill="#999"/>
              <path id="Trazado_108467" data-name="Trazado 108467" d="M944.226,9668.832l-1.48-1.841,1.388-1.584-1.321-1.787.477-.392,1.637,2.214-1.374,1.566,1.134,1.411Z" fill="#999"/>
              <path id="Trazado_108468" data-name="Trazado 108468" d="M946.072,9669.174l-1.48-1.841,1.388-1.584-1.32-1.787.477-.392,1.637,2.214-1.374,1.566,1.134,1.411Z" fill="#999"/>
              <path id="Trazado_108469" data-name="Trazado 108469" d="M948.556,9669.447l-1.48-1.841,1.388-1.583-1.321-1.788.477-.392,1.637,2.214-1.374,1.566,1.134,1.411Z" fill="#999"/>
              <path id="Trazado_108470" data-name="Trazado 108470" d="M950.483,9669.447l-1.48-1.841,1.388-1.583-1.321-1.788.477-.392,1.637,2.214-1.374,1.566,1.134,1.411Z" fill="#999"/>
              <path id="Trazado_108471" data-name="Trazado 108471" d="M952.329,9669.447l-1.48-1.841,1.388-1.583-1.32-1.788.477-.392,1.637,2.214-1.374,1.566,1.134,1.411Z" fill="#999"/>
              <path id="Trazado_108472" data-name="Trazado 108472" d="M954.175,9669.652l-1.48-1.841,1.388-1.583-1.321-1.788.477-.392,1.637,2.214-1.374,1.566,1.134,1.411Z" fill="#999"/>
              <path id="Trazado_108473" data-name="Trazado 108473" d="M955.861,9669.652l-1.48-1.841,1.388-1.583-1.321-1.788.477-.392,1.637,2.214-1.374,1.566,1.134,1.411Z" fill="#999"/>
              <path id="Trazado_108474" data-name="Trazado 108474" d="M957.775,9669.652l-1.48-1.841,1.388-1.583-1.321-1.788.477-.392,1.637,2.214-1.374,1.566,1.134,1.411Z" fill="#999"/>
              <path id="Trazado_108475" data-name="Trazado 108475" d="M959.735,9669.652l-1.48-1.841,1.388-1.583-1.321-1.788.477-.392,1.637,2.214-1.374,1.566,1.134,1.411Z" fill="#999"/>
              <path id="Trazado_108476" data-name="Trazado 108476" d="M961.6,9669.948l-1.48-1.841,1.388-1.583-1.321-1.787.477-.393,1.637,2.215-1.374,1.566,1.134,1.411Z" fill="#999"/>
              <path id="Trazado_108477" data-name="Trazado 108477" d="M963.609,9669.948l-1.48-1.841,1.388-1.583-1.321-1.787.477-.393,1.637,2.215-1.374,1.566,1.134,1.411Z" fill="#999"/>
              <path id="Trazado_108478" data-name="Trazado 108478" d="M965.569,9669.948l-1.48-1.841,1.388-1.583-1.321-1.787.477-.393,1.637,2.215-1.374,1.566,1.134,1.411Z" fill="#999"/>
              <path id="Trazado_108479" data-name="Trazado 108479" d="M967.415,9669.771l-1.48-1.841,1.388-1.583L966,9664.56l.477-.392,1.637,2.214-1.374,1.566,1.134,1.411Z" fill="#999"/>
              <path id="Trazado_108480" data-name="Trazado 108480" d="M969.169,9669.771l-1.48-1.841,1.388-1.583-1.321-1.788.477-.392,1.637,2.214-1.374,1.566,1.134,1.411Z" fill="#999"/>
              <path id="Trazado_108481" data-name="Trazado 108481" d="M971.038,9669.771l-1.48-1.841,1.388-1.583-1.321-1.788.477-.392,1.637,2.214-1.374,1.566,1.134,1.411Z" fill="#999"/>
              <path id="Trazado_108482" data-name="Trazado 108482" d="M973.219,9669.652l-1.48-1.841,1.388-1.583-1.321-1.788.477-.392,1.637,2.214-1.374,1.566,1.134,1.411Z" fill="#999"/>
              <path id="Trazado_108483" data-name="Trazado 108483" d="M975.361,9669.652l-1.48-1.841,1.388-1.583-1.321-1.788.477-.392,1.637,2.214-1.374,1.566,1.134,1.411Z" fill="#999"/>
              <path id="Trazado_108484" data-name="Trazado 108484" d="M977.731,9669.771l-1.48-1.841,1.388-1.583-1.321-1.788.477-.392,1.637,2.214-1.374,1.566,1.134,1.411Z" fill="#999"/>
              <path id="Trazado_108485" data-name="Trazado 108485" d="M979.912,9669.948l-1.48-1.841,1.388-1.583-1.321-1.787.477-.393,1.637,2.215-1.374,1.566,1.134,1.411Z" fill="#999"/>
              <path id="Trazado_108486" data-name="Trazado 108486" d="M981.861,9669.771l-1.48-1.841,1.388-1.583-1.321-1.788.477-.392,1.637,2.214-1.374,1.566,1.134,1.411Z" fill="#999"/>
              <path id="Trazado_108487" data-name="Trazado 108487" d="M983.638,9669.652l-1.48-1.841,1.388-1.583-1.321-1.788.477-.392,1.637,2.214-1.374,1.566,1.134,1.411Z" fill="#999"/>
              <path id="Trazado_108488" data-name="Trazado 108488" d="M985.245,9669.652l-1.48-1.841,1.388-1.583-1.321-1.788.477-.392,1.637,2.214-1.374,1.566,1.134,1.411Z" fill="#999"/>
              <path id="Trazado_108489" data-name="Trazado 108489" d="M987.125,9669.413l-1.48-1.841,1.388-1.583-1.32-1.788.477-.392,1.637,2.214-1.374,1.566,1.134,1.411Z" fill="#999"/>
              <path id="Trazado_108490" data-name="Trazado 108490" d="M988.934,9669.174l-1.48-1.841,1.388-1.584-1.321-1.787.477-.392,1.637,2.214-1.374,1.566,1.134,1.411Z" fill="#999"/>
              <path id="Trazado_108491" data-name="Trazado 108491" d="M973.192,9481.692c-4.135-7.392-9.929-9.708-9.987-9.73-13.878-5.78-22.194-2.9-22.277-2.868l-.342-.939c.349-.129,8.728-3.062,22.992,2.879.237.092,6.165,2.445,10.487,10.171Z" fill="#999"/>
              <path id="Trazado_108492" data-name="Trazado 108492" d="M970.067,9506.16c-.744-.756-1.648-1.729-2.694-2.854a142.023,142.023,0,0,0-13.311-12.973c-10.5-8.706-20.96-1.3-21.4-.984l-.589-.808c.115-.082,11.519-8.19,22.627,1.022a142.793,142.793,0,0,1,13.4,13.062c1.039,1.117,1.936,2.082,2.675,2.833Z" fill="#999"/>
              <rect id="Rectángulo_10166" data-name="Rectángulo 10166" width="8.367" height="1" transform="matrix(0.131, -0.991, 0.991, 0.131, 996.728, 9579.761)" fill="#999"/>
              <g id="Grupo_56154" data-name="Grupo 56154">
                <path id="Trazado_108493" data-name="Trazado 108493" d="M985.9,9852.723l-.992-.125c6.73-53.807-3.958-163.83-4.067-164.935l-3.289-15.961v-3.828l2.563-18.392,18.86-78.165.972.234L981.1,9649.669l-2.549,18.274.005,3.707,3.276,15.862C981.949,9688.672,992.648,9798.8,985.9,9852.723Z" fill="#999"/>
                <path id="Trazado_108494" data-name="Trazado 108494" d="M984.848,9852.7l-.745-.084q.109-.981.212-1.985l.747.076Q984.958,9851.717,984.848,9852.7Zm.41-3.986-.747-.071q.093-.983.179-1.988l.747.064Q985.35,9847.727,985.258,9848.716Zm.343-3.992-.748-.058q.078-.987.15-1.993l.749.054Q985.678,9843.736,985.6,9844.724Zm.288-4-.748-.048q.065-.989.124-2l.749.046Q985.954,9839.74,985.889,9840.729Zm.238-4-.749-.041.1-2,.75.037Zm.2-4-.749-.033q.043-.992.083-2l.749.029Q986.368,9831.74,986.324,9832.733Zm.157-4-.749-.027q.035-.993.066-2l.75.023Q986.516,9827.736,986.481,9828.732Zm.125-4-.75-.019.05-2,.75.017Zm.093-4-.75-.015.036-2,.75.011Zm.066-4-.75-.009.023-2,.75.007Zm.04-4-.75,0,.011-2,.75,0Zm.017-3.994-.75,0v-2l.75,0v2Zm-.756-4-.01-2,.75-.007.01,2Zm-.024-4-.02-2,.75-.009.02,2ZM986,9796.74l-.029-1.994.75-.012.029,2Zm-.061-3.991-.037-2,.75-.014.037,2Zm-.079-4-.044-2,.75-.018.044,2Zm-.093-4-.053-2,.75-.021.053,2Zm-.109-4.01-.06-2.007.75-.023.06,2.009Zm-.122-4.007-.066-2,.75-.025.066,2Zm-.136-4-.073-2,.75-.027.073,2Zm-.147-4-.079-2,.749-.029.079,2Zm-.161-4-.084-2,.749-.031.084,2Zm-.172-4-.089-2,.749-.033.09,2Zm-.183-4-.095-2,.749-.037.1,2Zm-.193-4-.1-2,.749-.037.1,2Zm-.2-4-.106-2,.749-.041.106,2Zm-.214-4-.111-2,.749-.041.111,2Zm-.224-4-.115-2,.749-.042.115,2Zm-.233-3.994-.121-2,.749-.046.121,2Zm-.243-3.994-.124-2,.748-.047.125,2Zm-.251-3.993-.129-2,.748-.049.129,2Zm-.26-3.994-.134-2,.748-.051.134,2Zm-.27-3.992-.138-2,.748-.053.138,2Zm-.278-3.992-.142-2,.748-.053.142,2Zm-.286-3.993-.147-1.994.748-.057.147,2Zm-.3-3.991-.151-2,.748-.058.151,2Zm-.3-3.991-.156-2,.748-.059.156,2Zm-.314-3.991-.161-2,.748-.061.161,2Zm-.324-3.994-.165-2,.747-.062.165,2Zm-.334-3.992-.172-2,.747-.065.172,2Zm-.349-4-.091-1c-.006-.073-.011-.13-.015-.174l-.158-.767.734-.152.188.91-.01.02.1,1.1Zm-.669-3.9-.4-1.959.734-.152.405,1.959Zm-.809-3.917-.4-1.959.735-.152.4,1.959Zm-.809-3.918-.4-1.958.735-.152.4,1.958Zm-.809-3.917-.293-1.418-.008-.628h.75v.552l.285,1.342Zm.449-4.046h-.75v-1.277l.1-.767.743.1-.1.716Zm.368-3.925-.743-.1.273-1.982.743.1Zm.546-3.962-.743-.1.273-1.981.743.1Zm.546-3.962-.743-.1.273-1.981.743.1Zm.546-3.963-.744-.1.273-1.981.744.1Zm.546-3.963-.744-.1.273-1.981.743.1Zm.584-3.91-.727-.187.5-1.937.727.188Zm1-3.873-.727-.187.5-1.937.726.188Zm1-3.872-.726-.187.5-1.937.727.188Zm1-3.873-.726-.187.5-1.937.727.188Zm1-3.874-.727-.187.5-1.937.726.188Zm.965-3.889-.731-.172.46-1.946.729.172Zm.918-3.893-.731-.172.46-1.947.729.172Zm.918-3.894-.73-.172.459-1.946.73.171Zm.918-3.894-.73-.172.459-1.946.73.172Zm.918-3.893-.73-.172.459-1.948.73.173Zm.913-3.9-.731-.166.441-1.951.731.166Zm.882-3.9-.731-.166.441-1.95.731.166Zm.882-3.9-.731-.165.441-1.95.731.166Zm.882-3.9-.731-.166.441-1.95.731.166Zm.883-3.9-.732-.166.441-1.952.731.166Zm.881-3.9-.731-.166.441-1.951.731.166Zm.883-3.9-.732-.166.441-1.951.732.166Zm.882-3.9-.732-.166.441-1.95.731.165Zm.882-3.9-.732-.166.441-1.95.732.166Z" fill="#999"/>
                <path id="Trazado_108495" data-name="Trazado 108495" d="M986.8,9852.615l-.743-.1q.129-.977.251-1.979l.744.09Q986.928,9851.635,986.8,9852.615Zm.483-3.979-.745-.082q.108-.983.211-1.986l.746.075C987.424,9847.314,987.354,9847.978,987.28,9848.636Zm.407-3.984-.748-.07q.093-.986.178-1.989l.747.064Q987.779,9843.663,987.687,9844.651Zm.34-3.992-.748-.06q.077-.986.148-1.99l.748.053Q988.1,9839.668,988.027,9840.659Zm.284-4-.748-.049q.063-.99.122-1.993l.749.043Q988.376,9835.669,988.311,9836.663Zm.234-4-.749-.039q.052-.993.1-2l.749.035Q988.6,9831.671,988.545,9832.665Zm.19-4-.749-.031q.043-.995.08-2l.749.027Q988.779,9827.67,988.735,9828.665Zm.152-4-.75-.025.063-2,.75.022Zm.116-4-.75-.021.046-2,.75.016Zm.085-4-.75-.014.032-2,.75.01Zm.056-4-.75-.008.018-2,.75.006Zm.028-4-.75,0,.005-2,.75,0Zm-.745-4-.007-2,.75,0,.007,2Zm-.019-4-.017-2,.75-.008.017,2Zm-.04-4-.027-1.994.75-.012.027,2Zm-.059-3.987-.037-2,.75-.015.037,2Zm-.078-4-.046-2,.75-.017.046,2Zm-.1-4-.054-2,.75-.021.054,2Zm-.113-4.006-.062-2.006.75-.023.062,2.007Zm-.128-4.013-.07-2,.75-.027.07,2Zm-.143-4-.077-2,.749-.029.077,2Zm-.157-4-.083-2,.749-.032.083,2Zm-.171-4-.09-2,.749-.034.09,2Zm-.183-4-.1-2,.749-.038.1,2Zm-.2-4-.1-2,.749-.039.1,2Zm-.208-4-.108-2,.749-.041.108,2Zm-.22-3.993-.114-2,.75-.043.113,2Zm-.23-3.994-.12-2,.749-.045.12,2Zm-.242-4-.125-2,.749-.047.125,2Zm-.251-3.993-.13-2,.748-.049.13,2Zm-.263-3.992-.135-2,.748-.051.135,2Zm-.273-3.994-.139-2,.748-.052.14,2Zm-.281-3.988-.145-2,.748-.056.145,2Zm-.292-3.992-.15-2,.748-.057.15,2Zm-.3-3.99-.154-1.994.748-.059.154,2Zm-.311-3.99-.159-2,.748-.06.159,2Zm-.32-3.989-.164-1.994.747-.062.164,2Zm-.33-3.99-.169-1.994.747-.065.169,2Zm-.341-3.988-.174-1.994.747-.066.174,2Zm-.351-3.988-.18-2,.748-.067.179,2Zm-.362-3.989-.185-2,.747-.07.185,2Zm-.375-3.992-.193-2,.746-.073.194,2Zm-.478-3.934-.456-1.947.731-.172.456,1.948Zm-.912-3.9-.455-1.947.73-.17.456,1.947Zm-.911-3.895-.456-1.946.73-.172.456,1.947Zm-.913-3.895-.332-1.418-.009-.629h.75v.543l.322,1.333Zm.409-4.047h-.75v-1.286l.157-.776.733.156-.149.7Zm.558-3.861-.734-.157.418-1.956.733.157Zm.834-3.912-.733-.156.417-1.956.734.156Zm.835-3.913-.733-.155.417-1.956.734.155Zm.835-3.912-.733-.155.417-1.956.733.156Zm.835-3.911-.734-.156.418-1.956.733.156Zm.835-3.912-.734-.156.418-1.955.733.156Zm.835-3.911-.734-.156.417-1.956.734.156Zm.834-3.912-.733-.156.417-1.956.734.156Zm.835-3.912-.733-.156.417-1.957.733.157Zm.834-3.912-.733-.157.418-1.956.733.157Zm.835-3.912-.733-.156.418-1.955.733.156Zm.835-3.912-.733-.155.447-1.957.73.17Zm.9-3.89-.73-.17.454-1.948.73.17Zm.909-3.9-.731-.171.454-1.947.731.17Zm.908-3.9-.731-.17.454-1.948.731.17Zm.908-3.9-.731-.171.455-1.947.731.17Zm.909-3.9-.731-.17.454-1.948.731.17Zm.908-3.9-.731-.171.454-1.947.731.17Zm.908-3.9-.73-.17.454-1.948.73.17Zm.908-3.9-.73-.17.454-1.948.73.17Zm.908-3.9-.73-.17.454-1.948.731.17Zm.909-3.9-.73-.17.454-1.948.73.17Zm.908-3.9-.73-.17.454-1.948.73.17Zm.909-3.9-.731-.17.454-1.948.731.17Zm.908-3.9-.731-.17.026-.112.731.17Z" fill="#999"/>
              </g>
              <path id="Trazado_108496" data-name="Trazado 108496" d="M939.252,9849.9c-.016-1.069-1.556-107.213-.87-131.408a92.127,92.127,0,0,1,1.354-13.3c2.035-11.566,5.6-31.771,6.588-37.124,1.159-6.258-.38-38.9-.88-48.754-.078-1.544-.118-3.112-.118-4.662v-21.556c.014-.571,1.592-56.126,23.345-79.513.066-.093,2.492-3.292,8.308-5.416l.343.938c-5.513,2.014-7.861,5.086-7.883,5.117-21.534,23.153-23.1,78.33-23.113,78.884v21.545c0,1.533.04,3.083.117,4.612.5,9.883,2.043,42.621.864,48.986-.991,5.35-4.552,25.551-6.586,37.116a91.069,91.069,0,0,0-1.339,13.157c-.686,24.176.854,130.3.87,131.367Z" fill="#999"/>
              <g id="Grupo_56155" data-name="Grupo 56155" opacity="0.74">
                <path id="Trazado_108497" data-name="Trazado 108497" d="M1028.359,9562.262s-7.3-7.565-11.739-1.826c-3.693,4.778-1.092,15.242-1.092,15.242s3.927,23.605,2.013,39.192-5.217,56.7-5.217,56.7l-5.562,87.229,3.555,96.8s.547,42.387-1.094,57.427a215.671,215.671,0,0,0-1.367,25.978s-76.868,8.2-107.345-9.844a29.875,29.875,0,0,0,11.361-24.885c-.547-16.682-.82-84.226-.82-84.226l-1.058-70,5.021-115.4-1.189-73.833s-1.264-31.627,9.739-52.184,9.661-20.587,9.661-20.587l7.011-2.4a24.319,24.319,0,0,1,19.043,8.187l9.652,9.826,5.74,3.478s2.478,1.131,10.869,5.479l13.391,5.913s8.181,2.279,12.14,6.229C1020.272,9533.933,1028.359,9562.262,1028.359,9562.262Z" fill="#ccc"/>
                <path id="Trazado_108498" data-name="Trazado 108498" d="M969.119,9941.319c-23.864,0-52.848-2.246-68.864-11.729a.5.5,0,0,1-.028-.842,29.63,29.63,0,0,0,11.146-24.457c-.541-16.5-.818-83.564-.821-84.239l-1.058-70,5.021-115.428-1.189-73.8c-.012-.306-1.143-31.985,9.8-52.428,8.834-16.5,9.613-19.585,9.652-20.13a.5.5,0,0,1,.287-.692l7.011-2.4a.463.463,0,0,1,.12-.026c.115-.012,11.55-.843,19.464,8.359l9.586,9.757,5.686,3.446h0c.008,0,2.591,1.186,10.841,5.461l13.364,5.9c.271.07,8.285,2.337,12.29,6.334,9.186,9.166,17.083,36.563,17.415,37.725a.5.5,0,0,1-.84.485c-.04-.04-3.9-3.994-7.549-3.817a4.584,4.584,0,0,0-3.436,1.949c-3.5,4.531-1.027,14.715-1,14.816.048.275,3.925,23.894,2.024,39.373-1.89,15.4-5.182,56.265-5.215,56.676l-5.561,87.222,3.555,96.753c.006.436.529,42.6-1.1,57.5a217.353,217.353,0,0,0-1.364,25.91.5.5,0,0,1-.447.51C1007.546,9939.54,990.361,9941.319,969.119,9941.319ZM901.406,9929.1c29.179,16.574,99.588,10.078,105.942,9.452a223.87,223.87,0,0,1,1.378-25.581c1.618-14.838,1.1-56.942,1.09-57.365l-3.554-96.792,5.563-87.28c.033-.419,3.326-41.306,5.22-56.726,1.883-15.335-1.971-38.812-2.01-39.048-.1-.4-2.608-10.717,1.189-15.631a5.537,5.537,0,0,1,4.174-2.336c2.7-.153,5.409,1.636,6.972,2.906-1.91-6.238-8.941-27.9-16.651-35.594-3.819-3.811-11.84-6.08-11.921-6.1l-13.459-5.937c-8.3-4.3-10.85-5.469-10.875-5.479l-5.791-3.506a.566.566,0,0,1-.1-.077l-9.653-9.826c-7.308-8.5-17.713-8.093-18.587-8.043l-6.583,2.255c-.167,1.257-1.662,5.373-9.747,20.477-10.812,20.2-9.693,51.61-9.68,51.927l1.189,73.846-5.021,115.428,1.058,69.977c0,.681.28,67.733.82,84.216A30.819,30.819,0,0,1,901.406,9929.1Zm31.8-440.558h0Zm-.14-.026a.444.444,0,0,0,.139.026A.473.473,0,0,1,933.07,9488.517Z" fill="#4d4d4d"/>
              </g>
              <path id="Trazado_108499" data-name="Trazado 108499" d="M1026.632,9560.856a.5.5,0,0,1-.263-.075c-26.379-16.432-56.9-13.632-57.2-13.6a.514.514,0,0,1-.274-.052c-11.3-5.7-27.719-3.888-27.884-3.868a.513.513,0,0,1-.248-.036c-7.735-3.2-24.86-2.34-25.032-2.333a.481.481,0,0,1-.526-.472.5.5,0,0,1,.473-.526c.708-.039,17.357-.872,25.349,2.359,1.584-.158,17.165-1.564,28.19,3.919,2.346-.2,31.955-2.267,57.684,13.759a.5.5,0,0,1-.265.925Z" fill="#4d4d4d"/>
              <path id="Trazado_108500" data-name="Trazado 108500" d="M960.64,9744.072c-12.891,0-20.156-2.15-21-2.414-19.814-.047-28.9-5.443-29.28-5.674a.5.5,0,0,1,.52-.854c.091.055,9.287,5.5,28.839,5.528a.516.516,0,0,1,.159.025c.11.037,11.293,3.7,31.813,1.889a.511.511,0,0,1,.139.007,32.508,32.508,0,0,0,19.785-3.637.5.5,0,0,1,.234-.062c.1,0,10.457-.17,15.072-4.767a.5.5,0,0,1,.706.709c-4.675,4.654-14.362,5.025-15.641,5.056a32.983,32.983,0,0,1-20.276,3.7C967.66,9743.93,963.961,9744.072,960.64,9744.072Z" fill="#4d4d4d"/>
              <path id="Trazado_108501" data-name="Trazado 108501" d="M991.9,9939.14a.5.5,0,0,1-.5-.5l-1.54-164.073,8.128-203.507a.5.5,0,1,1,1,.038l-8.127,203.483,1.54,164.05a.5.5,0,0,1-.495.5Z" fill="#4d4d4d"/>
              <g id="Grupo_56156" data-name="Grupo 56156">
                <path id="Trazado_108502" data-name="Trazado 108502" d="M932.962,9485.275l-4.646-3.483-.042-2.3s.006-.983-.843-.705l-2.923,2.869s-1.219,1.329.353,1.569l2.682-.127,4.522,3.072,1.359.292Z" fill="#666"/>
              </g>
              <g id="Grupo_56157" data-name="Grupo 56157">
                <path id="Trazado_108503" data-name="Trazado 108503" d="M933.882,9483.983l-1.262-5.668,1.465-1.773s.644-.742-.181-1.083l-4.086.275s-1.791.216-.754,1.423l2.119,1.647,1.434,5.275.842,1.105Z" fill="#666"/>
              </g>
              <g id="Grupo_56158" data-name="Grupo 56158">
                <path id="Trazado_108504" data-name="Trazado 108504" d="M914.823,9538.779l-5.156-2.669-.421-2.262s-.155-.97-.947-.556l-2.41,3.311s-.983,1.513.607,1.491l2.625-.567,4.966,2.283,1.388.064Z" fill="#666"/>
              </g>
              <g id="Grupo_56159" data-name="Grupo 56159">
                <path id="Trazado_108505" data-name="Trazado 108505" d="M941.216,9542.391l-1.966-5.463,1.229-1.942s.546-.818-.316-1.053l-4.019.789s-1.749.44-.569,1.506l2.311,1.368,2.088,5.053.975.99Z" fill="#666"/>
              </g>
              <g id="Grupo_56160" data-name="Grupo 56160">
                <path id="Trazado_108506" data-name="Trazado 108506" d="M969.908,9546.18l-.78-5.754,1.609-1.643s.705-.686-.089-1.095l-4.1-.069s-1.8.063-.871,1.354l1.973,1.821.985,5.377.745,1.173Z" fill="#666"/>
              </g>
              <g id="Grupo_56161" data-name="Grupo 56161">
                <path id="Trazado_108507" data-name="Trazado 108507" d="M940.32,9739.961l-.78-5.753,1.609-1.644s.705-.686-.089-1.095l-4.095-.069s-1.8.063-.871,1.354l1.972,1.821.985,5.377.746,1.173Z" fill="#666"/>
              </g>
              <g id="Grupo_56162" data-name="Grupo 56162">
                <path id="Trazado_108508" data-name="Trazado 108508" d="M973.193,9742.714l-1.8-5.519,1.286-1.906s.57-.8-.285-1.062l-4.04.671s-1.761.388-.613,1.488l2.269,1.437,1.939,5.11.945,1.02Z" fill="#666"/>
              </g>
              <g id="Grupo_56163" data-name="Grupo 56163">
                <path id="Trazado_108509" data-name="Trazado 108509" d="M993.962,9713.741l-5.5-1.869-.752-2.173s-.3-.937-1.02-.409l-1.889,3.634s-.747,1.642.823,1.383l2.51-.953,5.251,1.519,1.383-.145Z" fill="#666"/>
              </g>
              <g id="Grupo_56164" data-name="Grupo 56164">
                <path id="Trazado_108510" data-name="Trazado 108510" d="M998.692,9632.792l-5.5-1.87-.753-2.173s-.3-.936-1.02-.408l-1.889,3.633s-.747,1.643.823,1.385l2.51-.953,5.252,1.518,1.382-.144Z" fill="#666"/>
              </g>
              <g id="Grupo_56165" data-name="Grupo 56165">
                <path id="Trazado_108511" data-name="Trazado 108511" d="M993.024,9749.522l-5.5-1.87-.753-2.172s-.3-.937-1.019-.409l-1.89,3.633s-.746,1.642.823,1.384l2.511-.953,5.251,1.519,1.382-.145Z" fill="#666"/>
              </g>
              <g id="Grupo_56166" data-name="Grupo 56166">
                <path id="Trazado_108512" data-name="Trazado 108512" d="M992.808,9793.137l-5.5-1.869-.753-2.173s-.3-.937-1.019-.409l-1.89,3.635s-.746,1.641.823,1.383l2.511-.953,5.251,1.518,1.383-.144Z" fill="#666"/>
              </g>
              <g id="Grupo_56167" data-name="Grupo 56167">
                <path id="Trazado_108513" data-name="Trazado 108513" d="M993.962,9845.63l-5.5-1.87-.752-2.173s-.3-.936-1.02-.408l-1.889,3.633s-.747,1.643.823,1.385l2.51-.953,5.251,1.517,1.383-.144Z" fill="#666"/>
              </g>
            </g>
            <g id="Grupo_56169" data-name="Grupo 56169" opacity="0.74">
              <path id="Trazado_108514" data-name="Trazado 108514" d="M933.093,9487.338l2.29-11.031,9.88.34-.919,6.971.8.288,3.723-6.609,7.233,2.322-1.382,6.949,1.121.9,3.479-6.726,6.174,3.738-2,7.684,3.571-4.783,2.631,4.924-.627,10.191s-14.9-14.187-20.2-16.258S934.659,9487.077,933.093,9487.338Z" fill="#ccc"/>
              <path id="Trazado_108515" data-name="Trazado 108515" d="M969.071,9503a.5.5,0,0,1-.344-.138c-.149-.142-14.886-14.142-20.038-16.154-4.282-1.674-11.2.066-14.155.808-.624.157-1.093.274-1.358.318a.487.487,0,0,1-.443-.147.5.5,0,0,1-.129-.447l2.289-11.032a.494.494,0,0,1,.507-.4l9.88.34a.5.5,0,0,1,.479.565l-.867,6.57.027.01,3.516-6.24a.5.5,0,0,1,.588-.231l7.234,2.32a.5.5,0,0,1,.338.575l-1.324,6.652.409.329,3.2-6.183a.5.5,0,0,1,.309-.252.493.493,0,0,1,.4.054l6.173,3.738a.5.5,0,0,1,.226.554l-1.357,5.213,2.044-2.736a.518.518,0,0,1,.438-.2.5.5,0,0,1,.4.264l2.631,4.923a.492.492,0,0,1,.058.266l-.627,10.191a.5.5,0,0,1-.316.436A.515.515,0,0,1,969.071,9503Zm-24.861-17.992a13.479,13.479,0,0,1,4.843.769c4.693,1.834,16.419,12.657,19.585,15.627l.552-8.984-2.193-4.1-3.1,4.151a.5.5,0,0,1-.617.151.5.5,0,0,1-.267-.576l1.906-7.323-5.4-3.268-3.232,6.251a.5.5,0,0,1-.342.26.5.5,0,0,1-.416-.1l-1.122-.9a.5.5,0,0,1-.177-.487l1.3-6.512-6.421-2.061-3.522,6.253a.506.506,0,0,1-.6.226l-.8-.288a.5.5,0,0,1-.327-.536l.847-6.425-8.908-.306-2.047,9.86.55-.138A42.461,42.461,0,0,1,944.21,9485.006Z" fill="#4d4d4d"/>
            </g>
            <path id="Trazado_108516" data-name="Trazado 108516" d="M997.771,9587.806a.5.5,0,0,1-.051-1l17.757-1.825a.49.49,0,0,1,.548.446.5.5,0,0,1-.446.547l-17.756,1.827Z" fill="#4d4d4d"/>
          </g>
        </g>
      </g>
    </g>
  </g>
</svg>
