<svg xmlns="http://www.w3.org/2000/svg" width="230.522" height="572.411" viewBox="0 0 230.522 572.411">
  <g id="Grupo_56180" data-name="Grupo 56180" transform="translate(-838.463 -5179.826)">
    <rect id="Rectángulo_10168" data-name="Rectángulo 10168" width="230.522" height="572.411" rx="21.913" transform="translate(838.463 5179.826)" fill="#fff"/>
    <g id="Grupo_56179" data-name="Grupo 56179" transform="translate(868.743 5205.123)">
      <path id="Trazado_108517" data-name="Trazado 108517" d="M1033.3,5618.868c0-.031.006-.061.009-.093h-.01l-1.6-93.459s-.212-37.862-10.635-56.368l-7.87-19.569v-6.594l7.128-44.525,9.691-44.34v-17.583s3.157-8.657,3.42-22.858-1.051-19.883-3.156-25.7l-20.253-7.3-15.608-5.546s-12.976-3.065-12.45-18.755l-.876-24.707-16.44,3.392-16.44-3.392.088,24.661c.526,15.691-13.415,18.8-13.415,18.8l-15.606,5.546-19.6,5.409c-2.105,5.817-4.077,13.391-3.815,27.593s3.42,22.858,3.42,22.858v17.583l9.692,44.34,1.413,6.463,8.146,38.062v7.658s-14.464,30.63-15.953,55.092v111.714c0,.117,0,.245,0,.382l2.141,9.362c3.531,7.564,12.773,16.118,36.719,14.477l45.163.056s35.648,4.688,44.689-14.533Z" transform="translate(-863.369 -5200.287)" fill="#fff" stroke="#999" stroke-miterlimit="10" stroke-width="0.75"/>
      <g id="Grupo_56175" data-name="Grupo 56175" transform="translate(54.475 241.915)">
        <path id="Trazado_108518" data-name="Trazado 108518" d="M1001.6,5432.946l-2.45-2.887,2.3-2.485-2.187-2.8.789-.615,2.707,3.473-2.272,2.459,1.877,2.212Z" transform="translate(-908.169 -5424.157)" fill="#999"/>
        <path id="Trazado_108519" data-name="Trazado 108519" d="M999.083,5432.946l-2.449-2.887,2.3-2.485-2.186-2.8.789-.615,2.707,3.473-2.272,2.459,1.877,2.212Z" transform="translate(-908.405 -5424.157)" fill="#999"/>
        <path id="Trazado_108520" data-name="Trazado 108520" d="M996.562,5432.946l-2.45-2.887,2.3-2.485-2.186-2.8.789-.615,2.707,3.473-2.272,2.459,1.876,2.212Z" transform="translate(-908.641 -5424.157)" fill="#999"/>
        <path id="Trazado_108521" data-name="Trazado 108521" d="M994.041,5432.946l-2.449-2.887,2.3-2.485-2.186-2.8.789-.615,2.707,3.473-2.272,2.459,1.877,2.212Z" transform="translate(-908.877 -5424.157)" fill="#999"/>
        <path id="Trazado_108522" data-name="Trazado 108522" d="M991.52,5432.946l-2.45-2.887,2.3-2.485-2.187-2.8.789-.615,2.708,3.473-2.272,2.459,1.876,2.212Z" transform="translate(-909.113 -5424.157)" fill="#999"/>
        <path id="Trazado_108523" data-name="Trazado 108523" d="M989,5432.946l-2.45-2.887,2.3-2.485-2.187-2.8.789-.615,2.707,3.473-2.272,2.459,1.876,2.212Z" transform="translate(-909.35 -5424.157)" fill="#999"/>
        <path id="Trazado_108524" data-name="Trazado 108524" d="M986.478,5432.946l-2.449-2.887,2.3-2.485-2.186-2.8.789-.615,2.707,3.473-2.272,2.459,1.877,2.212Z" transform="translate(-909.586 -5424.157)" fill="#999"/>
        <path id="Trazado_108525" data-name="Trazado 108525" d="M983.957,5432.946l-2.449-2.887,2.3-2.485-2.186-2.8.789-.615,2.707,3.473-2.272,2.459,1.876,2.212Z" transform="translate(-909.822 -5424.157)" fill="#999"/>
        <path id="Trazado_108526" data-name="Trazado 108526" d="M981.435,5432.946l-2.449-2.887,2.3-2.485-2.186-2.8.789-.615,2.707,3.473-2.272,2.459,1.877,2.212Z" transform="translate(-910.058 -5424.157)" fill="#999"/>
        <path id="Trazado_108527" data-name="Trazado 108527" d="M978.914,5432.946l-2.45-2.887,2.3-2.485-2.187-2.8.789-.615,2.707,3.473-2.272,2.459,1.877,2.212Z" transform="translate(-910.294 -5424.157)" fill="#999"/>
        <path id="Trazado_108528" data-name="Trazado 108528" d="M976.393,5432.946l-2.45-2.887,2.3-2.485-2.186-2.8.789-.615,2.707,3.473-2.272,2.459,1.876,2.212Z" transform="translate(-910.53 -5424.157)" fill="#999"/>
        <path id="Trazado_108529" data-name="Trazado 108529" d="M973.872,5432.946l-2.45-2.887,2.3-2.485-2.187-2.8.789-.615,2.707,3.473-2.272,2.459,1.877,2.212Z" transform="translate(-910.766 -5424.157)" fill="#999"/>
        <path id="Trazado_108530" data-name="Trazado 108530" d="M971.351,5432.946l-2.449-2.887,2.3-2.485-2.186-2.8.789-.615,2.707,3.473-2.272,2.459,1.876,2.212Z" transform="translate(-911.002 -5424.157)" fill="#999"/>
        <path id="Trazado_108531" data-name="Trazado 108531" d="M968.83,5432.946l-2.45-2.887,2.3-2.485-2.186-2.8.789-.615,2.707,3.473-2.272,2.459,1.877,2.212Z" transform="translate(-911.238 -5424.157)" fill="#999"/>
        <path id="Trazado_108532" data-name="Trazado 108532" d="M966.309,5432.946l-2.449-2.887,2.3-2.485-2.187-2.8.789-.615,2.707,3.473-2.272,2.459,1.877,2.212Z" transform="translate(-911.474 -5424.157)" fill="#999"/>
        <path id="Trazado_108533" data-name="Trazado 108533" d="M963.788,5432.946l-2.45-2.887,2.3-2.485-2.187-2.8.789-.615,2.708,3.473-2.272,2.459,1.876,2.212Z" transform="translate(-911.711 -5424.157)" fill="#999"/>
        <path id="Trazado_108534" data-name="Trazado 108534" d="M961.267,5432.946l-2.45-2.887,2.3-2.485-2.187-2.8.789-.615,2.707,3.473-2.272,2.459,1.877,2.212Z" transform="translate(-911.947 -5424.157)" fill="#999"/>
        <path id="Trazado_108535" data-name="Trazado 108535" d="M958.746,5432.946l-2.449-2.887,2.3-2.485-2.186-2.8.789-.615,2.707,3.473-2.272,2.459,1.877,2.212Z" transform="translate(-912.183 -5424.157)" fill="#999"/>
        <path id="Trazado_108536" data-name="Trazado 108536" d="M956.225,5432.946l-2.449-2.887,2.3-2.485-2.186-2.8.789-.615,2.707,3.473-2.272,2.459,1.876,2.212Z" transform="translate(-912.419 -5424.157)" fill="#999"/>
        <path id="Trazado_108537" data-name="Trazado 108537" d="M953.7,5432.946l-2.449-2.887,2.3-2.485-2.186-2.8.789-.615,2.707,3.473-2.272,2.459,1.877,2.212Z" transform="translate(-912.655 -5424.157)" fill="#999"/>
        <path id="Trazado_108538" data-name="Trazado 108538" d="M951.183,5432.946l-2.45-2.887,2.3-2.485-2.187-2.8.789-.615,2.707,3.473-2.272,2.459,1.876,2.212Z" transform="translate(-912.891 -5424.157)" fill="#999"/>
        <path id="Trazado_108539" data-name="Trazado 108539" d="M948.662,5432.946l-2.45-2.887,2.3-2.485-2.186-2.8.789-.615,2.707,3.473-2.272,2.459,1.876,2.212Z" transform="translate(-913.127 -5424.157)" fill="#999"/>
        <path id="Trazado_108540" data-name="Trazado 108540" d="M946.141,5432.946l-2.45-2.887,2.3-2.485-2.187-2.8.789-.615,2.707,3.473-2.272,2.459,1.877,2.212Z" transform="translate(-913.363 -5424.157)" fill="#999"/>
        <path id="Trazado_108541" data-name="Trazado 108541" d="M943.62,5432.946l-2.449-2.887,2.3-2.485-2.186-2.8.789-.615,2.707,3.473-2.272,2.459,1.876,2.212Z" transform="translate(-913.599 -5424.157)" fill="#999"/>
        <path id="Trazado_108542" data-name="Trazado 108542" d="M941.1,5432.946l-2.45-2.887,2.3-2.485-2.186-2.8.789-.615,2.707,3.473-2.272,2.459,1.877,2.212Z" transform="translate(-913.835 -5424.157)" fill="#999"/>
        <path id="Trazado_108543" data-name="Trazado 108543" d="M938.578,5432.946l-2.449-2.887,2.3-2.485-2.187-2.8.789-.615,2.707,3.473-2.272,2.459,1.877,2.212Z" transform="translate(-914.071 -5424.157)" fill="#999"/>
        <path id="Trazado_108544" data-name="Trazado 108544" d="M936.057,5432.946l-2.449-2.887,2.3-2.485-2.186-2.8.789-.615,2.707,3.473-2.272,2.459,1.877,2.212Z" transform="translate(-914.308 -5424.157)" fill="#999"/>
        <path id="Trazado_108545" data-name="Trazado 108545" d="M933.536,5432.946l-2.45-2.887,2.3-2.485-2.186-2.8.789-.615,2.707,3.473-2.272,2.459,1.877,2.212Z" transform="translate(-914.544 -5424.157)" fill="#999"/>
        <path id="Trazado_108546" data-name="Trazado 108546" d="M931.015,5432.946l-2.45-2.887,2.3-2.485-2.186-2.8.789-.615,2.707,3.473-2.272,2.459,1.877,2.212Z" transform="translate(-914.78 -5424.157)" fill="#999"/>
        <path id="Trazado_108547" data-name="Trazado 108547" d="M928.494,5432.946l-2.45-2.887,2.3-2.485-2.187-2.8.789-.615,2.707,3.473-2.272,2.459,1.876,2.212Z" transform="translate(-915.016 -5424.157)" fill="#999"/>
        <path id="Trazado_108548" data-name="Trazado 108548" d="M925.973,5432.946l-2.449-2.887,2.3-2.485-2.186-2.8.789-.615,2.707,3.473-2.272,2.459,1.877,2.212Z" transform="translate(-915.252 -5424.157)" fill="#999"/>
        <path id="Trazado_108549" data-name="Trazado 108549" d="M923.452,5432.946,921,5430.06l2.3-2.485-2.186-2.8.789-.615,2.707,3.473-2.272,2.459,1.877,2.212Z" transform="translate(-915.488 -5424.157)" fill="#999"/>
        <path id="Trazado_108550" data-name="Trazado 108550" d="M920.931,5432.946l-2.449-2.887,2.3-2.485-2.186-2.8.789-.615,2.707,3.473-2.272,2.459,1.877,2.212Z" transform="translate(-915.724 -5424.157)" fill="#999"/>
        <path id="Trazado_108551" data-name="Trazado 108551" d="M918.41,5432.946l-2.45-2.887,2.3-2.485-2.187-2.8.789-.615,2.707,3.473-2.272,2.459,1.877,2.212Z" transform="translate(-915.96 -5424.157)" fill="#999"/>
      </g>
      <path id="Trazado_108552" data-name="Trazado 108552" d="M943.761,5241.162s3.908,5.139,17.455,4.461,15.706-5.948,15.706-5.948" transform="translate(-858.882 -5199.519)" fill="none" stroke="#999" stroke-miterlimit="10" stroke-width="1"/>
      <line id="Línea_232" data-name="Línea 232" x2="126.841" transform="translate(37.574 161.209)" fill="none" stroke="#999" stroke-miterlimit="10" stroke-width="1"/>
      <line id="Línea_233" data-name="Línea 233" x2="130.377" transform="translate(35.918 153.633)" fill="none" stroke="#999" stroke-miterlimit="10" stroke-width="1"/>
      <path id="Trazado_108553" data-name="Trazado 108553" d="M996.628,5274.967s.918,3.871-.4,25.646l-.488,49.233" transform="translate(-854.014 -5196.213)" fill="none" stroke="#999" stroke-miterlimit="10" stroke-width="1"/>
      <path id="Trazado_108554" data-name="Trazado 108554" d="M996.925,5350.362l-7.3,45.371-6.508,35.706v7.658s12.737,26.377,13.813,77.639,4.583,112.954,4.583,112.954" transform="translate(-855.197 -5189.152)" fill="none" stroke="#999" stroke-miterlimit="10" stroke-width="1"/>
      <path id="Trazado_108555" data-name="Trazado 108555" d="M922.432,5350.362l7.112,44.542,7.349,36.109v8.3s-11.273,38.288-12.55,65.728-.212,65.939-.212,65.939l-1.459,58.687" transform="translate(-860.879 -5189.152)" fill="none" stroke="#999" stroke-miterlimit="10" stroke-width="1"/>
      <line id="Línea_234" data-name="Línea 234" x1="3.35" y1="402.729" transform="translate(101.617 38.486)" fill="none" stroke="#999" stroke-miterlimit="10" stroke-width="1"/>
      <path id="Trazado_108556" data-name="Trazado 108556" d="M922.2,5274.967s-.917,3.871.4,25.646l.487,49.233" transform="translate(-860.931 -5196.213)" fill="none" stroke="#999" stroke-miterlimit="10" stroke-width="1"/>
      <path id="Trazado_108557" data-name="Trazado 108557" d="M939.972,5265.953s4.681,15.667,21.184,15.577,20.58-15.577,20.58-15.577" transform="translate(-859.237 -5197.058)" fill="none" stroke="#999" stroke-miterlimit="10" stroke-width="1"/>
      <path id="Trazado_108558" data-name="Trazado 108558" d="M995.93,5348.088l4.031-4.424,2.363.185s1.008.1.807-.795l-2.655-3.282s-1.242-1.382-1.646.207l-.135,2.765-3.6,4.336-.434,1.365Z" transform="translate(-854.115 -5190.196)" fill="#666"/>
      <path id="Trazado_108559" data-name="Trazado 108559" d="M923.476,5348.088l-4.032-4.424-2.363.185s-1.007.1-.806-.795l2.654-3.282s1.243-1.382,1.647.207l.135,2.765,3.6,4.336.433,1.365Z" transform="translate(-861.458 -5190.196)" fill="#666"/>
      <line id="Línea_235" data-name="Línea 235" x2="94.124" transform="translate(55.169 242.498)" fill="#fff" stroke="#000" stroke-miterlimit="10" stroke-width="1" opacity="0.33"/>
      <line id="Línea_236" data-name="Línea 236" x2="94.124" transform="translate(55.169 250.156)" fill="#fff" stroke="#000" stroke-miterlimit="10" stroke-width="1" opacity="0.33"/>
      <path id="Trazado_108560" data-name="Trazado 108560" d="M899.952,5281.61s3.888,34.314-.35,50.023" transform="translate(-863.017 -5195.591)" fill="none" stroke="#000" stroke-miterlimit="10" stroke-width="1" opacity="0.33"/>
      <path id="Trazado_108561" data-name="Trazado 108561" d="M1018.456,5282.788s-4.238,33.026,0,48.734" transform="translate(-852.063 -5195.481)" fill="none" stroke="#000" stroke-miterlimit="10" stroke-width="1" opacity="0.33"/>
      <rect id="Rectángulo_10169" data-name="Rectángulo 10169" width="12.934" height="80.561" transform="translate(97.734 441.742)" fill="#404040"/>
      <path id="Trazado_108562" data-name="Trazado 108562" d="M1020.373,5648.039c0,10.46-24.971,10.46-55.776,10.46s-56.632.381-55.776-10.46c.621-7.869,24.972-10.461,55.776-10.461S1020.373,5638.528,1020.373,5648.039Z" transform="translate(-862.156 -5162.254)" fill="none" stroke="#404040" stroke-miterlimit="10" stroke-width="1"/>
      <g id="Grupo_56176" data-name="Grupo 56176" transform="translate(112.664 431.006)">
        <line id="Línea_237" data-name="Línea 237" x1="3.614" y2="80.561" transform="translate(16.167 10.736)" fill="none" stroke="#404040" stroke-miterlimit="10" stroke-width="1"/>
        <line id="Línea_238" data-name="Línea 238" x1="4.945" y2="80.561" transform="translate(19.781 10.736)" fill="none" stroke="#404040" stroke-miterlimit="10" stroke-width="1"/>
        <line id="Línea_239" data-name="Línea 239" x1="6.972" y2="83.022" transform="translate(31.843 8.274)" fill="none" stroke="#404040" stroke-miterlimit="10" stroke-width="1"/>
        <line id="Línea_240" data-name="Línea 240" x1="8.308" y2="84.827" transform="translate(35.329 6.47)" fill="none" stroke="#404040" stroke-miterlimit="10" stroke-width="1"/>
        <line id="Línea_241" data-name="Línea 241" x1="10.277" y2="91.296" transform="translate(42.224)" fill="none" stroke="#404040" stroke-miterlimit="10" stroke-width="1"/>
        <line id="Línea_242" data-name="Línea 242" x1="0.38" y2="80.561" transform="translate(0 10.736)" fill="none" stroke="#404040" stroke-miterlimit="10" stroke-width="1"/>
        <line id="Línea_243" data-name="Línea 243" x1="0.571" y2="80.561" transform="translate(3.043 10.736)" fill="none" stroke="#404040" stroke-miterlimit="10" stroke-width="1"/>
      </g>
      <g id="Grupo_56177" data-name="Grupo 56177" transform="translate(41.357 426.705)">
        <line id="Línea_244" data-name="Línea 244" x2="3.614" y2="80.561" transform="translate(33.267 15.037)" fill="none" stroke="#404040" stroke-miterlimit="10" stroke-width="1"/>
        <line id="Línea_245" data-name="Línea 245" x2="4.945" y2="80.561" transform="translate(28.322 15.037)" fill="none" stroke="#404040" stroke-miterlimit="10" stroke-width="1"/>
        <line id="Línea_246" data-name="Línea 246" x2="6.972" y2="83.022" transform="translate(14.233 12.575)" fill="none" stroke="#404040" stroke-miterlimit="10" stroke-width="1"/>
        <line id="Línea_247" data-name="Línea 247" x2="8.388" y2="85.646" transform="translate(9.331 9.952)" fill="none" stroke="#404040" stroke-miterlimit="10" stroke-width="1"/>
        <line id="Línea_248" data-name="Línea 248" x2="10.823" y2="95.598" fill="none" stroke="#404040" stroke-miterlimit="10" stroke-width="1"/>
        <line id="Línea_249" data-name="Línea 249" x2="0.38" y2="80.561" transform="translate(52.667 15.037)" fill="none" stroke="#404040" stroke-miterlimit="10" stroke-width="1"/>
        <line id="Línea_250" data-name="Línea 250" x2="0.571" y2="80.561" transform="translate(49.434 15.037)" fill="none" stroke="#404040" stroke-miterlimit="10" stroke-width="1"/>
      </g>
      <ellipse id="Elipse_4345" data-name="Elipse 4345" cx="16.44" cy="7.304" rx="16.44" ry="7.304" transform="translate(84.842 23.878)" fill="#fff" stroke="#999" stroke-miterlimit="10" stroke-width="1"/>
      <g id="Grupo_56178" data-name="Grupo 56178" transform="translate(92.926)">
        <path id="Trazado_108563" data-name="Trazado 108563" d="M967.154,5213.357c0-5.744-3.385-10.4-7.56-10.4s-7.559,4.656-7.559,10.4c0,4.492,2.074,8.308,4.973,9.763v9.944h5.712v-10.244C965.333,5221.184,967.154,5217.567,967.154,5213.357Z" transform="translate(-951.033 -5202.957)" fill="#fff" stroke="#999" stroke-miterlimit="10" stroke-width="1"/>
        <rect id="Rectángulo_10170" data-name="Rectángulo 10170" width="17.729" height="3.041" rx="1.209" transform="translate(0 12.555)" fill="#fff" stroke="#999" stroke-miterlimit="10" stroke-width="1"/>
        <rect id="Rectángulo_10171" data-name="Rectángulo 10171" width="17.729" height="3.041" rx="1.209" transform="translate(0 6.749)" fill="#fff" stroke="#999" stroke-miterlimit="10" stroke-width="1"/>
      </g>
      <path id="Trazado_108564" data-name="Trazado 108564" d="M899.609,5282.114s12.554-4.985,20.542-6.506c0,0-.761,14.55-7.038,24.726,0,0-7.448,12.268-10.191,14.74C902.922,5315.074,899.419,5288.812,899.609,5282.114Z" transform="translate(-863.018 -5196.153)" fill="#999" stroke="#4d4d4d" stroke-linecap="round" stroke-linejoin="round" stroke-width="1" opacity="0.39"/>
      <path id="Trazado_108565" data-name="Trazado 108565" d="M878.9,5516.335s-11.319-.856-12.6-3.139,6.3-99.427,6.3-99.427l13.527-102.708s7.133-24.963,15.929-29.813l4.122,32.762-.97,47.55-15.372,87.729S879.662,5513.909,878.9,5516.335Z" transform="translate(-866.15 -5195.625)" fill="#999" stroke="#4d4d4d" stroke-linecap="round" stroke-linejoin="round" stroke-width="1" opacity="0.43"/>
      <path id="Trazado_108566" data-name="Trazado 108566" d="M871.36,5499.131s4.066,0,5.92-2.782c0,0-8.369-1.012-10.6-2.611C866.677,5493.738,866.225,5498.132,871.36,5499.131Z" transform="translate(-866.102 -5175.725)" fill="#999" stroke="#4d4d4d" stroke-linecap="round" stroke-linejoin="round" stroke-width="1" opacity="0.43"/>
    </g>
  </g>
</svg>
