<svg xmlns="http://www.w3.org/2000/svg" width="379.181" height="467.33" viewBox="0 0 379.181 467.33">
  <g id="Grupo_56251" data-name="Grupo 56251" transform="translate(-254.636 -6598.957)">
    <rect id="Rectángulo_10204" data-name="Rectángulo 10204" width="379.181" height="467.329" rx="16.174" transform="translate(254.636 6598.957)" fill="#fff"/>
    <g id="Grupo_56250" data-name="Grupo 56250" transform="translate(276.615 6621.245)">
      <g id="Grupo_56247" data-name="Grupo 56247" transform="translate(197.583)">
        <g id="Grupo_56236" data-name="Grupo 56236" transform="translate(0 25.521)">
          <path id="Trazado_108671" data-name="Trazado 108671" d="M612.981,6969.552c0-.025.005-.049.007-.075h-.008l-1.309-76.392s-.173-30.948-8.693-46.074l-6.433-16v-5.39l5.827-36.394,7.921-36.242v-14.373s2.581-7.076,2.8-18.684-.86-16.251-2.58-21.005l-16.555-5.97-12.757-4.532s-10.606-2.506-10.176-15.33L570.3,6652.9l-13.437,2.773L543.43,6652.9l.072,20.157a14.7,14.7,0,0,1-10.965,15.368l-12.756,4.532-16.017,4.422c-1.721,4.754-3.333,10.945-3.118,22.553s2.8,18.684,2.8,18.684v14.373l7.922,36.242,1.155,5.284,6.659,31.11v6.259s-11.823,25.037-13.04,45.032v91.312c0,.1,0,.2,0,.313l1.75,7.651c2.887,6.183,10.44,13.175,30.014,11.834l36.916.045s29.138,3.832,36.528-11.879Z" transform="translate(-500.29 -6652.488)" fill="#fff"/>
          <path id="Trazado_108672" data-name="Trazado 108672" d="M582.142,6988.743a64.946,64.946,0,0,1-7.41-.388l-36.872-.043c-19.776,1.36-27.407-5.792-30.318-12.027l-1.774-7.718-.008-.392v-91.308c1.176-19.337,12.354-43.633,13.04-45.106v-6.185L511,6789.253l-7.922-36.242-.008-14.386a64.781,64.781,0,0,1-2.8-18.735c-.217-11.737,1.464-18.048,3.138-22.674l.059-.162,16.185-4.47,12.733-4.525c.493-.114,11.158-2.652,10.742-15.04l-.073-20.582,13.775,2.844,13.758-2.84.731,20.592c-.416,12.412,9.5,14.916,9.919,15.015l12.792,4.543,16.7,6.025.054.147c1.846,5.1,2.807,9.977,2.6,21.125a64.778,64.778,0,0,1-2.8,18.735v14.314l-7.929,36.314-5.823,36.376,0,5.271,6.409,15.936c8.445,14.988,8.715,45.886,8.717,46.2l1.3,76.058h.03l-.032.49-1.639,6.641C606.56,6987.01,591.377,6988.743,582.142,6988.743Zm-44.3-1.1,36.938.044c.333.041,29.023,3.62,36.224-11.686l1.606-6.538v-.029l-1.309-76.392c0-.312-.271-31.04-8.65-45.917l-6.476-16.16v-5.39l5.83-36.447,7.926-36.261-.008-14.359.02-.056c.026-.07,2.565-7.167,2.776-18.575.2-10.937-.723-15.766-2.507-20.738l-16.406-5.917-12.755-4.531c-.074-.016-10.833-2.708-10.4-15.657l-.7-19.775-13.117,2.708-13.1-2.7.071,19.746a15.128,15.128,0,0,1-11.228,15.695l-12.716,4.521-15.873,4.384c-1.633,4.553-3.252,10.779-3.039,22.27.211,11.409,2.749,18.5,2.775,18.575l.021.115v14.372l9.069,41.455,6.659,31.112.008,6.4-.032.068c-.118.25-11.81,25.208-13.008,44.908v91.6l1.742,7.581C510.973,6982.048,518.413,6988.979,537.838,6987.643Z" transform="translate(-500.251 -6652.439)" fill="#999"/>
        </g>
        <g id="Grupo_56237" data-name="Grupo 56237" transform="translate(18.318 198.183)">
          <path id="Trazado_108673" data-name="Trazado 108673" d="M605.938,6852.773l-2-2.36,1.879-2.031-1.787-2.292.645-.5,2.213,2.838-1.857,2.01,1.534,1.808Z" transform="translate(-529.567 -6845.588)" fill="#999"/>
          <path id="Trazado_108674" data-name="Trazado 108674" d="M603.417,6852.773l-2-2.36,1.879-2.031-1.787-2.292.645-.5,2.213,2.838-1.857,2.01,1.534,1.808Z" transform="translate(-529.299 -6845.588)" fill="#999"/>
          <path id="Trazado_108675" data-name="Trazado 108675" d="M600.9,6852.773l-2-2.36,1.879-2.031-1.787-2.292.645-.5,2.213,2.838-1.857,2.01,1.534,1.808Z" transform="translate(-529.032 -6845.588)" fill="#999"/>
          <path id="Trazado_108676" data-name="Trazado 108676" d="M598.375,6852.773l-2-2.36,1.879-2.031-1.787-2.292.645-.5,2.213,2.838-1.857,2.01,1.534,1.808Z" transform="translate(-528.765 -6845.588)" fill="#999"/>
          <path id="Trazado_108677" data-name="Trazado 108677" d="M595.854,6852.773l-2-2.36,1.879-2.031-1.787-2.292.645-.5,2.213,2.838-1.857,2.01,1.534,1.808Z" transform="translate(-528.497 -6845.588)" fill="#999"/>
          <path id="Trazado_108678" data-name="Trazado 108678" d="M593.333,6852.773l-2-2.36,1.879-2.031-1.787-2.292.645-.5,2.213,2.838-1.857,2.01,1.534,1.808Z" transform="translate(-528.23 -6845.588)" fill="#999"/>
          <path id="Trazado_108679" data-name="Trazado 108679" d="M590.812,6852.773l-2-2.36,1.879-2.031-1.787-2.292.645-.5,2.213,2.838-1.857,2.01,1.534,1.808Z" transform="translate(-527.962 -6845.588)" fill="#999"/>
          <path id="Trazado_108680" data-name="Trazado 108680" d="M588.291,6852.773l-2-2.36,1.879-2.031-1.787-2.292.645-.5,2.213,2.838-1.857,2.01,1.534,1.808Z" transform="translate(-527.695 -6845.588)" fill="#999"/>
          <path id="Trazado_108681" data-name="Trazado 108681" d="M585.77,6852.773l-2-2.36,1.879-2.031-1.787-2.292.645-.5,2.213,2.838-1.857,2.01,1.534,1.808Z" transform="translate(-527.427 -6845.588)" fill="#999"/>
          <path id="Trazado_108682" data-name="Trazado 108682" d="M583.249,6852.773l-2-2.36,1.879-2.031-1.787-2.292.645-.5,2.213,2.838-1.857,2.01,1.534,1.808Z" transform="translate(-527.16 -6845.588)" fill="#999"/>
          <path id="Trazado_108683" data-name="Trazado 108683" d="M580.728,6852.773l-2-2.36,1.879-2.031-1.787-2.292.645-.5,2.213,2.838-1.857,2.01,1.534,1.808Z" transform="translate(-526.893 -6845.588)" fill="#999"/>
          <path id="Trazado_108684" data-name="Trazado 108684" d="M578.207,6852.773l-2-2.36,1.879-2.031-1.787-2.292.645-.5,2.213,2.838-1.857,2.01,1.534,1.808Z" transform="translate(-526.625 -6845.588)" fill="#999"/>
          <path id="Trazado_108685" data-name="Trazado 108685" d="M575.686,6852.773l-2-2.36,1.879-2.031-1.787-2.292.645-.5,2.213,2.838-1.857,2.01,1.534,1.808Z" transform="translate(-526.358 -6845.588)" fill="#999"/>
          <path id="Trazado_108686" data-name="Trazado 108686" d="M573.165,6852.773l-2-2.36,1.879-2.031-1.787-2.292.645-.5,2.213,2.838-1.857,2.01,1.534,1.808Z" transform="translate(-526.09 -6845.588)" fill="#999"/>
          <path id="Trazado_108687" data-name="Trazado 108687" d="M570.644,6852.773l-2-2.36,1.879-2.031-1.787-2.292.645-.5,2.213,2.838-1.857,2.01,1.534,1.808Z" transform="translate(-525.823 -6845.588)" fill="#999"/>
          <path id="Trazado_108688" data-name="Trazado 108688" d="M568.123,6852.773l-2-2.36,1.879-2.031-1.787-2.292.645-.5,2.213,2.838-1.857,2.01,1.534,1.808Z" transform="translate(-525.556 -6845.588)" fill="#999"/>
          <path id="Trazado_108689" data-name="Trazado 108689" d="M565.6,6852.773l-2-2.36,1.879-2.031-1.787-2.292.645-.5,2.213,2.838-1.857,2.01,1.534,1.808Z" transform="translate(-525.288 -6845.588)" fill="#999"/>
          <path id="Trazado_108690" data-name="Trazado 108690" d="M563.081,6852.773l-2-2.36,1.879-2.031-1.787-2.292.645-.5,2.213,2.838-1.857,2.01,1.534,1.808Z" transform="translate(-525.021 -6845.588)" fill="#999"/>
          <path id="Trazado_108691" data-name="Trazado 108691" d="M560.56,6852.773l-2-2.36,1.879-2.031-1.787-2.292.645-.5,2.213,2.838-1.857,2.01,1.534,1.808Z" transform="translate(-524.753 -6845.588)" fill="#999"/>
          <path id="Trazado_108692" data-name="Trazado 108692" d="M558.039,6852.773l-2-2.36,1.879-2.031-1.787-2.292.645-.5,2.213,2.838-1.857,2.01,1.534,1.808Z" transform="translate(-524.486 -6845.588)" fill="#999"/>
          <path id="Trazado_108693" data-name="Trazado 108693" d="M555.518,6852.773l-2-2.36,1.879-2.031-1.787-2.292.645-.5,2.213,2.838-1.857,2.01,1.534,1.808Z" transform="translate(-524.219 -6845.588)" fill="#999"/>
          <path id="Trazado_108694" data-name="Trazado 108694" d="M553,6852.773l-2-2.36,1.879-2.031-1.787-2.292.645-.5,2.213,2.838-1.857,2.01,1.534,1.808Z" transform="translate(-523.951 -6845.588)" fill="#999"/>
          <path id="Trazado_108695" data-name="Trazado 108695" d="M550.476,6852.773l-2-2.36,1.879-2.031-1.787-2.292.645-.5,2.213,2.838-1.857,2.01,1.534,1.808Z" transform="translate(-523.684 -6845.588)" fill="#999"/>
          <path id="Trazado_108696" data-name="Trazado 108696" d="M547.955,6852.773l-2-2.36,1.879-2.031-1.787-2.292.645-.5,2.213,2.838-1.857,2.01,1.534,1.808Z" transform="translate(-523.416 -6845.588)" fill="#999"/>
          <path id="Trazado_108697" data-name="Trazado 108697" d="M545.434,6852.773l-2-2.36,1.879-2.031-1.787-2.292.645-.5,2.213,2.838-1.857,2.01,1.534,1.808Z" transform="translate(-523.149 -6845.588)" fill="#999"/>
          <path id="Trazado_108698" data-name="Trazado 108698" d="M542.913,6852.773l-2-2.36,1.879-2.031L541,6846.091l.645-.5,2.213,2.838-1.857,2.01,1.534,1.808Z" transform="translate(-522.881 -6845.588)" fill="#999"/>
          <path id="Trazado_108699" data-name="Trazado 108699" d="M540.392,6852.773l-2-2.36,1.879-2.031-1.787-2.292.645-.5,2.213,2.838-1.857,2.01,1.534,1.808Z" transform="translate(-522.614 -6845.588)" fill="#999"/>
          <path id="Trazado_108700" data-name="Trazado 108700" d="M537.871,6852.773l-2-2.36,1.879-2.031-1.787-2.292.645-.5,2.213,2.838-1.857,2.01,1.534,1.808Z" transform="translate(-522.347 -6845.588)" fill="#999"/>
          <path id="Trazado_108701" data-name="Trazado 108701" d="M535.35,6852.773l-2-2.36,1.879-2.031-1.787-2.292.645-.5,2.213,2.838-1.857,2.01,1.534,1.808Z" transform="translate(-522.079 -6845.588)" fill="#999"/>
          <path id="Trazado_108702" data-name="Trazado 108702" d="M532.828,6852.773l-2-2.36,1.879-2.031-1.787-2.292.645-.5,2.213,2.838-1.857,2.01,1.534,1.808Z" transform="translate(-521.812 -6845.588)" fill="#999"/>
          <path id="Trazado_108703" data-name="Trazado 108703" d="M530.307,6852.773l-2-2.36,1.879-2.031-1.787-2.292.645-.5,2.213,2.838-1.857,2.01,1.534,1.808Z" transform="translate(-521.544 -6845.588)" fill="#999"/>
          <path id="Trazado_108704" data-name="Trazado 108704" d="M527.786,6852.773l-2-2.36,1.879-2.031-1.787-2.292.645-.5,2.213,2.838-1.857,2.01,1.534,1.808Z" transform="translate(-521.277 -6845.588)" fill="#999"/>
          <path id="Trazado_108705" data-name="Trazado 108705" d="M525.265,6852.773l-2-2.36,1.879-2.031-1.787-2.292.645-.5,2.213,2.838-1.857,2.01,1.534,1.808Z" transform="translate(-521.01 -6845.588)" fill="#999"/>
          <path id="Trazado_108706" data-name="Trazado 108706" d="M522.744,6852.773l-2-2.36,1.879-2.031-1.787-2.292.645-.5,2.213,2.838-1.857,2.01,1.534,1.808Z" transform="translate(-520.742 -6845.588)" fill="#999"/>
        </g>
        <path id="Trazado_108707" data-name="Trazado 108707" d="M560.795,6666.446c-9.586,0-12.522-3.706-12.65-3.875l.71-.542c.031.041,3.241,4,13.891,3.474,10.572-.528,12.431-4.548,12.448-4.589l.826.343c-.077.187-2,4.579-13.229,5.138Q561.748,6666.447,560.795,6666.446Z" transform="translate(-505.331 -6627.816)" fill="#999"/>
        <rect id="Rectángulo_10205" data-name="Rectángulo 10205" width="103.677" height="0.894" transform="translate(4.503 131.769)" fill="#999"/>
        <rect id="Rectángulo_10206" data-name="Rectángulo 10206" width="106.567" height="0.894" transform="translate(3.15 125.576)" fill="#999"/>
        <path id="Trazado_108708" data-name="Trazado 108708" d="M600.918,6757.6l-.894-.009.4-40.242c1.051-17.407.367-20.725.337-20.857l.871-.2c.031.132.752,3.43-.315,21.092Z" transform="translate(-510.834 -6631.568)" fill="#999"/>
        <path id="Trazado_108709" data-name="Trazado 108709" d="M602.432,7000.126c-.029-.5-2.877-50.912-3.747-92.341-.867-41.3-11.142-63.061-11.246-63.277l-.045-.194v-6.26l5.327-29.265,5.97-37.075.882.142-5.971,37.084-5.322,29.194.007,6.08c.744,1.613,10.447,23.423,11.29,63.551.87,41.414,3.717,91.805,3.746,92.31Z" transform="translate(-509.494 -6639.569)" fill="#999"/>
        <path id="Trazado_108710" data-name="Trazado 108710" d="M527.805,7000.09l-.894-.022L528.1,6952.1c-.009-.292-.858-31.719.174-53.907,1.012-21.749,9.795-52.18,10.257-53.767v-6.671l-6-29.471-5.817-36.426.882-.142,5.813,36.407,6.013,29.585-.018,6.907c-.092.312-9.211,31.5-10.24,53.619-1.031,22.155-.182,53.55-.173,53.864Z" transform="translate(-503.059 -6639.569)" fill="#999"/>
        <rect id="Rectángulo_10207" data-name="Rectángulo 10207" width="0.894" height="329.194" transform="matrix(1, -0.008, 0.008, 1, 56.404, 31.908)" fill="#999"/>
        <path id="Trazado_108711" data-name="Trazado 108711" d="M527.145,6757.6l-.4-40.243c-1.066-17.639-.346-20.937-.314-21.069l.869.207-.434-.1.435.1c-.029.132-.713,3.45.337,20.833l.4,40.265Z" transform="translate(-503 -6631.568)" fill="#999"/>
        <path id="Trazado_108712" data-name="Trazado 108712" d="M561.9,6700.549c-13.574,0-17.59-12.921-17.629-13.051l.856-.256c.038.125,3.877,12.414,16.774,12.414h.111c13-.071,16.36-12.276,16.392-12.4l.864.228c-.034.13-3.578,12.991-17.251,13.065Z" transform="translate(-504.921 -6630.609)" fill="#999"/>
        <path id="Trazado_108713" data-name="Trazado 108713" d="M600.481,6767.9l3.295-3.615,1.932.151s.824.084.659-.649l-2.17-2.684s-1.016-1.129-1.345.17l-.11,2.26-2.941,3.543-.355,1.116Z" transform="translate(-510.773 -6638.396)" fill="#666"/>
        <path id="Trazado_108714" data-name="Trazado 108714" d="M526.938,6767.9l-3.3-3.615-1.932.151s-.823.084-.659-.649l2.17-2.684s1.016-1.129,1.346.17l.11,2.26,2.941,3.543.354,1.116Z" transform="translate(-502.455 -6638.396)" fill="#666"/>
        <g id="Grupo_56238" data-name="Grupo 56238" transform="translate(18.885 198.212)" opacity="0.33">
          <line id="Línea_252" data-name="Línea 252" x2="76.935" transform="translate(0 0.447)" fill="#fff"/>
          <rect id="Rectángulo_10208" data-name="Rectángulo 10208" width="76.935" height="0.894"/>
        </g>
        <g id="Grupo_56239" data-name="Grupo 56239" transform="translate(18.885 204.472)" opacity="0.33">
          <line id="Línea_253" data-name="Línea 253" x2="76.935" transform="translate(0 0.447)" fill="#fff"/>
          <rect id="Rectángulo_10209" data-name="Rectángulo 10209" width="76.935" height="0.894"/>
        </g>
        <path id="Trazado_108715" data-name="Trazado 108715" d="M504.765,6744.04l-.864-.233c3.4-12.611.3-40.44.274-40.72l.888-.1C505.1,6703.268,508.211,6731.267,504.765,6744.04Z" transform="translate(-500.638 -6632.28)" opacity="0.33"/>
        <path id="Trazado_108716" data-name="Trazado 108716" d="M622.411,6744.164c-3.447-12.777-.046-39.737-.012-40.008l.887.114c-.035.269-3.413,27.054-.012,39.661Z" transform="translate(-513.045 -6632.403)" opacity="0.33"/>
        <rect id="Rectángulo_10210" data-name="Rectángulo 10210" width="10.572" height="65.849" transform="translate(53.677 361.517)" fill="#404040"/>
        <path id="Trazado_108717" data-name="Trazado 108717" d="M554.271,7076.506c-19.064,0-35.241-.19-39.827-5.15a4.944,4.944,0,0,1-1.344-3.883c.47-5.947,15.958-8.962,46.036-8.962,25.188,0,46.037.677,46.037,9,0,9-20.316,9-46.037,9h-4.866Zm4.866-17.1c-36.781,0-44.851,4.426-45.145,8.139a4.029,4.029,0,0,0,1.109,3.207c4.509,4.877,21.69,4.874,41.552,4.862h2.483c24.224,0,45.143,0,45.143-8.1C604.28,7060.024,582.925,7059.4,559.136,7059.4Z" transform="translate(-501.612 -6669.991)" fill="#404040"/>
        <g id="Grupo_56240" data-name="Grupo 56240" transform="translate(65.461 352.69)">
          <rect id="Rectángulo_10211" data-name="Rectángulo 10211" width="65.915" height="0.894" transform="matrix(0.045, -0.999, 0.999, 0.045, 13.184, 74.656)" fill="#404040"/>
          <rect id="Rectángulo_10212" data-name="Rectángulo 10212" width="65.972" height="0.894" transform="matrix(0.061, -0.998, 0.998, 0.061, 16.166, 74.65)" fill="#404040"/>
          <rect id="Rectángulo_10213" data-name="Rectángulo 10213" width="68.1" height="0.894" transform="matrix(0.084, -0.996, 0.996, 0.084, 25.991, 74.638)" fill="#404040"/>
          <rect id="Rectángulo_10214" data-name="Rectángulo 10214" width="69.667" height="0.894" transform="translate(28.845 74.632) rotate(-84.395)" fill="#404040"/>
          <rect id="Rectángulo_10215" data-name="Rectángulo 10215" width="75.095" height="0.894" transform="matrix(0.111, -0.994, 0.994, 0.111, 34.51, 74.629)" fill="#404040"/>
          <rect id="Rectángulo_10216" data-name="Rectángulo 10216" width="65.849" height="0.894" transform="translate(0 74.674) rotate(-89.776)" fill="#404040"/>
          <rect id="Rectángulo_10217" data-name="Rectángulo 10217" width="65.85" height="0.894" transform="translate(2.436 74.672) rotate(-89.552)" fill="#404040"/>
        </g>
        <g id="Grupo_56241" data-name="Grupo 56241" transform="translate(7.152 349.176)">
          <rect id="Rectángulo_10218" data-name="Rectángulo 10218" width="0.894" height="65.915" transform="translate(27.189 12.361) rotate(-2.568)" fill="#404040"/>
          <rect id="Rectángulo_10219" data-name="Rectángulo 10219" width="0.894" height="65.973" transform="translate(23.147 12.368) rotate(-3.513)" fill="#404040"/>
          <rect id="Rectángulo_10220" data-name="Rectángulo 10220" width="0.894" height="68.1" transform="translate(11.633 10.366) rotate(-4.8)" fill="#404040"/>
          <rect id="Rectángulo_10221" data-name="Rectángulo 10221" width="0.894" height="70.34" transform="matrix(0.995, -0.097, 0.097, 0.995, 7.626, 8.228)" fill="#404040"/>
          <rect id="Rectángulo_10222" data-name="Rectángulo 10222" width="0.894" height="78.638" transform="translate(0 0.1) rotate(-6.459)" fill="#404040"/>
          <rect id="Rectángulo_10223" data-name="Rectángulo 10223" width="0.894" height="65.849" transform="translate(43.046 12.343) rotate(-0.27)" fill="#404040"/>
          <rect id="Rectángulo_10224" data-name="Rectángulo 10224" width="0.894" height="65.85" transform="translate(40.404 12.344) rotate(-0.406)" fill="#404040"/>
        </g>
        <g id="Grupo_56242" data-name="Grupo 56242" transform="translate(42.692 19.518)">
          <ellipse id="Elipse_4346" data-name="Elipse 4346" cx="13.437" cy="5.97" rx="13.437" ry="5.97" transform="translate(0.447 0.446)" fill="#fff"/>
          <path id="Trazado_108718" data-name="Trazado 108718" d="M561.893,6658.557c-7.786,0-13.885-2.819-13.885-6.418s6.1-6.416,13.885-6.416,13.884,2.818,13.884,6.416S569.679,6658.557,561.893,6658.557Zm0-11.939c-7.042,0-12.991,2.528-12.991,5.521s5.948,5.524,12.991,5.524,12.991-2.529,12.991-5.524S568.935,6646.617,561.893,6646.617Z" transform="translate(-548.009 -6645.723)" fill="#999"/>
        </g>
        <g id="Grupo_56246" data-name="Grupo 56246" transform="translate(49.299)">
          <g id="Grupo_56243" data-name="Grupo 56243" transform="translate(0.819)">
            <path id="Trazado_108719" data-name="Trazado 108719" d="M569.175,6632.889c0-4.695-2.767-8.5-6.18-8.5s-6.179,3.806-6.179,8.5c0,3.672,1.695,6.792,4.065,7.98V6649h4.669v-8.375C567.686,6639.286,569.175,6636.33,569.175,6632.889Z" transform="translate(-556.369 -6623.942)" fill="#fff"/>
            <path id="Trazado_108720" data-name="Trazado 108720" d="M565.944,6649.393h-5.563v-8.308c-2.442-1.38-4.065-4.649-4.065-8.249,0-4.934,2.972-8.947,6.626-8.947s6.627,4.014,6.627,8.947c0,3.365-1.415,6.462-3.625,7.977Zm-4.669-.894h3.775v-8.174l.209-.131c2.075-1.3,3.416-4.187,3.416-7.357,0-4.44-2.572-8.053-5.733-8.053s-5.732,3.613-5.732,8.053c0,3.388,1.534,6.436,3.818,7.581l.247.124Z" transform="translate(-556.316 -6623.889)" fill="#999"/>
          </g>
          <g id="Grupo_56244" data-name="Grupo 56244" transform="translate(0 10.261)">
            <rect id="Rectángulo_10225" data-name="Rectángulo 10225" width="14.492" height="2.486" rx="1.209" transform="translate(0.447 0.447)" fill="#fff"/>
            <path id="Trazado_108721" data-name="Trazado 108721" d="M569.259,6638.748H556.928a1.529,1.529,0,0,1-1.528-1.528v-.324a1.529,1.529,0,0,1,1.528-1.527h12.331a1.529,1.529,0,0,1,1.528,1.527v.324A1.53,1.53,0,0,1,569.259,6638.748Zm-12.331-2.485a.634.634,0,0,0-.634.634v.324a.634.634,0,0,0,.634.634h12.331a.634.634,0,0,0,.634-.634v-.324a.634.634,0,0,0-.634-.634Z" transform="translate(-555.4 -6635.369)" fill="#999"/>
          </g>
          <g id="Grupo_56245" data-name="Grupo 56245" transform="translate(0 5.516)">
            <rect id="Rectángulo_10226" data-name="Rectángulo 10226" width="14.492" height="2.486" rx="1.209" transform="translate(0.447 0.447)" fill="#fff"/>
            <path id="Trazado_108722" data-name="Trazado 108722" d="M569.259,6633.439H556.928a1.529,1.529,0,0,1-1.528-1.527v-.325a1.529,1.529,0,0,1,1.528-1.526h12.331a1.53,1.53,0,0,1,1.528,1.526v.325A1.529,1.529,0,0,1,569.259,6633.439Zm-12.331-2.485a.634.634,0,0,0-.634.633v.325a.635.635,0,0,0,.634.634h12.331a.635.635,0,0,0,.634-.634v-.325a.634.634,0,0,0-.634-.633Z" transform="translate(-555.4 -6630.061)" fill="#999"/>
          </g>
        </g>
      </g>
      <g id="Grupo_56248" data-name="Grupo 56248" transform="translate(39.064 62.723)">
        <path id="Trazado_108723" data-name="Trazado 108723" d="M502.761,6700.873s-2.345,19.253-25.2,28.582-33.814,9.561-33.814,9.561-26.818,6.53-46.406,7.229-39.876,3.031-39.876,3.031l-32.415,4.354s-.7-12.982-1.632-15.548c0,0,82.5-19.355,91.269-20.521s37-7.229,37-7.229l17.012-2.1s18.89-11.543,29.5-12.826l6.3-.9Z" transform="translate(-322.975 -6694.104)" fill="#fff"/>
        <path id="Trazado_108724" data-name="Trazado 108724" d="M324.683,6753.962l-.02-.362c-.006-.129-.707-12.962-1.613-15.452l-.129-.354.367-.086c.825-.194,82.613-19.373,91.3-20.527,8.659-1.15,36.691-7.164,36.974-7.224l16.97-2.1c1.211-.732,19.316-11.6,29.572-12.835l6.794-.971-1.864,6.835c-.113.821-3.013,19.687-25.4,28.826-22.649,9.245-33.824,9.583-33.933,9.586-.2.055-27,6.536-46.4,7.229-19.35.69-39.647,3.006-39.849,3.029Zm-.889-15.684c.805,2.938,1.4,12.854,1.52,14.923l32.055-4.306c.209-.023,20.532-2.342,39.909-3.034,19.329-.691,46.071-7.154,46.338-7.22.181-.012,11.255-.357,33.767-9.547,22.394-9.14,24.968-28.12,24.992-28.311l.009-.048,1.6-5.873-5.792.828c-10.423,1.261-29.184,12.667-29.372,12.781l-.134.046-17.012,2.1c-.253.055-28.312,6.074-37,7.229C406.314,6718.958,329.674,6736.9,323.794,6738.279Z" transform="translate(-322.922 -6694.056)" fill="#999"/>
      </g>
      <g id="Grupo_56249" data-name="Grupo 56249" transform="translate(0 42.965)" opacity="0.43">
        <path id="Trazado_108725" data-name="Trazado 108725" d="M539.782,6672.546s-6.028,79.6-5.931,83.951c0,0-45.742-7.773-74.282,0s-41.6,12.127-41.6,12.127l-24.252,12.438s-42.6,22.7-61.565,27.051-28.406,12.748-28.406,12.748a34.38,34.38,0,0,1-3.619-13.992s.467-6.18,2.566-9.444-2.566-6.879-2.566-6.879-4.547-2.332-4.781-14.808c0,0,2.332-11.426-1.632-14.458s-8.512-5.946-8.512-5.946-5.48-3.735-5.48-15.043,10.611-18.559,10.611-18.559l27.75-26.446s19.822,76.023,22.27,79.754l-6.709-37.778s-3.318-11.194,2.861-13.176.932-7.229.932-7.229-4.2-4.431-1.982-8.979,9.911-.35,9.911-.35,44.774,5.13,57.716,2.448,59-17.256,59-17.256l43.958-14.925S526.417,6671.613,539.782,6672.546Z" transform="translate(-279.276 -6672.005)" fill="#999"/>
        <path id="Trazado_108726" data-name="Trazado 108726" d="M303.694,6821.255a.405.405,0,0,1-.076-.006.447.447,0,0,1-.316-.226,34.479,34.479,0,0,1-3.675-14.194c.021-.3.5-6.378,2.636-9.7,1.852-2.88-2.42-6.25-2.464-6.284-.125-.056-4.717-2.554-4.953-15.153a.453.453,0,0,1,.009-.1c.023-.112,2.231-11.187-1.465-14.014-3.9-2.985-8.437-5.9-8.482-5.926-.242-.165-5.685-4.006-5.685-15.419s10.7-18.854,10.8-18.929l27.695-26.4a.448.448,0,0,1,.741.211c5.766,22.114,16.215,61.364,20.512,74.959l-5.823-32.792c-.13-.426-3.357-11.588,3.164-13.681,1.522-.488,2.41-1.212,2.639-2.153.471-1.942-1.862-4.31-1.886-4.333-.188-.2-4.392-4.72-2.068-9.49a3.958,3.958,0,0,1,2.431-2.115c3.067-.979,7.362,1.181,8.018,1.526,2.2.248,45.03,5.021,57.49,2.446,12.772-2.647,58.5-17.1,58.955-17.245l43.949-14.922c.218-.066,20.625-6.191,33.916-5.27a.452.452,0,0,1,.307.154.446.446,0,0,1,.107.327c-.06.794-6.025,79.625-5.929,83.908a.445.445,0,0,1-.155.348.455.455,0,0,1-.367.1c-.456-.078-45.975-7.669-74.09-.009-28.2,7.679-41.444,12.076-41.575,12.12l-24.19,12.41c-.42.224-42.861,22.772-61.668,27.088-18.639,4.278-28.116,12.563-28.209,12.648A.45.45,0,0,1,303.694,6821.255Zm-7.952-45.531c.235,11.933,4.5,14.349,4.54,14.372.27.2,5.027,3.948,2.734,7.517-2.012,3.13-2.49,9.176-2.495,9.237a34.394,34.394,0,0,0,3.32,13.257c2.089-1.675,11.553-8.672,28.16-12.482,18.692-4.291,61.029-26.783,61.455-27.01l24.258-12.441c.194-.069,13.46-4.472,41.686-12.16,26.679-7.267,68.817-.913,73.957-.093.214-7.808,5.372-76.126,5.893-83.01-13.142-.753-32.93,5.2-33.131,5.257l-43.944,14.922c-.47.148-46.237,14.613-59.052,17.27-12.866,2.667-56.028-2.232-57.859-2.442a.461.461,0,0,1-.163-.051c-.045-.025-4.507-2.425-7.4-1.5a3.057,3.057,0,0,0-1.9,1.655c-2.051,4.21,1.866,8.433,1.906,8.475.1.1,2.7,2.736,2.113,5.166-.306,1.266-1.395,2.206-3.234,2.8-5.693,1.825-2.6,12.515-2.57,12.623l6.721,37.827a.447.447,0,0,1-.813.323c-2.359-3.594-19.972-70.861-22.137-79.152L290.588,6722c-.16.116-10.471,7.3-10.471,18.236,0,10.9,5.233,14.638,5.286,14.675.034.021,4.6,2.952,8.531,5.96C297.978,6763.964,295.928,6774.788,295.742,6775.724Z" transform="translate(-279.223 -6671.953)" fill="#4d4d4d"/>
      </g>
    </g>
  </g>
</svg>
