<svg xmlns="http://www.w3.org/2000/svg" width="193.043" height="624.018" viewBox="0 0 193.043 624.018">
  <g id="Grupo_56060" data-name="Grupo 56060" transform="translate(-994.985 -7599.634)">
    <rect id="Rectángulo_10069" data-name="Rectángulo 10069" width="193.043" height="624.018" rx="24.522" transform="translate(994.985 7599.634)" fill="#fff"/>
    <g id="Grupo_56059" data-name="Grupo 56059">
      <g id="Grupo_56028" data-name="Grupo 56028">
        <path id="Trazado_108093" data-name="Trazado 108093" d="M1159.283,7711a92.093,92.093,0,0,0-10.237-6.812s-12.351-5.343-17-8.459c0,0-4.519-2.186-4.708-12.071s.568-16.728,2.085-21.386l1.9-7.223s-5.5-8.554-20.854-10.551c0,0-10.333-.95-12.7,1.521,0,0-6.256,23.477-14.787,33.932,0,0-1.8,6.939-20.759,10.836l-22.371,4.847s-10.332,2.186-11.943,10.645c0,0-6.257,6.749-2.844,31.841l.948,5.133,25.25,121.83.675,2.314v6.459s-14.117,39.16-16.238,58.443c-1.345,12.22-.55,57.412.213,88.879-.043,16.14.7,51.014.7,51.014s-2.1,15.3,18.421,22.087c0,0,18.956,13.565,49.738,2.435l40.349-10.435s12.305-7.317,11.826-22.783c-.478-15.408-.742-25.309-.744-25.381l-2.561-96.01s-1.786-19.915-4.626-34.491a63.291,63.291,0,0,0-2.126-11.227c-2.509-7.881-12.419-23.965-12.419-23.965s-1.466-4.248-.529-7.659l4.052-25.432,8.911-35.93,6.076-11.205s8.035-10.476,7.006-19.218l-2.956-10.283s-.25-8.752-.079-14.779c.041-1.295.1-2.449.193-3.333l3.665-13.18.055-.508.022-.08.692-6.5h-.016l.512-4.821S1162.948,7714.037,1159.283,7711Z" fill="#fff"/>
        <path id="Trazado_108094" data-name="Trazado 108094" d="M1081.191,8101.44c-15.953,0-25.561-6.3-26.337-6.826-20.524-6.811-18.645-22.321-18.623-22.476-.011-.29-.741-35.005-.7-50.965-.823-33.953-1.528-76.951-.211-88.919,2.062-18.749,15.6-56.686,16.236-58.467v-6.341l-.66-2.261-25.258-121.86-.949-5.14c-3.24-23.823,2.126-31.2,2.864-32.08,1.7-8.522,12.109-10.82,12.214-10.842l22.37-4.847c18.42-3.786,20.458-10.5,20.476-10.565l.072-.141c8.382-10.272,14.653-33.557,14.715-33.791l.092-.163c2.467-2.572,12.578-1.675,13.007-1.635,15.367,2,20.907,10.366,21.135,10.721l.089.138-1.937,7.383c-1.579,4.851-2.255,11.806-2.073,21.284s4.454,11.719,4.5,11.741c4.611,3.087,16.86,8.4,16.983,8.453a92.661,92.661,0,0,1,10.327,6.866h0c3.787,3.143,2.95,8.609,2.912,8.841l-.462,4.359h0l-.031.441-.768,7.091-3.677,13.241c-.072.755-.136,1.867-.18,3.244-.162,5.718.058,14.006.077,14.709l2.944,10.238c1.047,8.851-6.737,19.117-7.069,19.55l-6.022,11.112-8.9,35.884-4.046,25.4c-.9,3.3.5,7.437.513,7.479.064.087,9.928,16.14,12.423,23.973a63.072,63.072,0,0,1,2.14,11.3c2.808,14.4,4.61,34.3,4.628,34.5l2.562,96.033c.01.391.273,10.219.744,25.379.48,15.508-11.885,23.043-12.009,23.118l-.1.041-40.348,10.434A69.337,69.337,0,0,1,1081.191,8101.44Zm2.123-421.314c-.278.855-2.95,7.31-21.021,11.023L1039.926,7696c-.1.023-10.11,2.238-11.655,10.35l-.02.1-.072.079c-.061.068-6.086,6.993-2.749,31.536l.945,5.116L1051.624,7865l.683,2.39-.023,6.586c-.14.392-14.125,39.339-16.218,58.357-1.312,11.926-.607,54.888.216,88.829-.042,15.96.688,50.667.7,51.016-.024.209-1.8,15.138,18.163,21.738l.1.052c.187.132,19.17,13.314,49.393,2.386l40.327-10.43c.795-.5,12.052-7.825,11.6-22.423-.47-15.162-.734-24.992-.744-25.372l-2.561-96.021c-.016-.175-1.815-20.04-4.619-34.43a62.71,62.71,0,0,0-2.115-11.184c-2.467-7.746-12.282-23.722-12.382-23.883-.1-.252-1.527-4.471-.571-7.955l4.044-25.39,8.951-36.051,6.077-11.2c.111-.154,7.962-10.508,6.963-19l-2.959-10.318c0-.088-.248-8.832-.079-14.8.045-1.4.11-2.525.2-3.36l3.676-13.242.077-.59.634-6h0l.031-.44.512-4.822c.011-.072.8-5.3-2.647-8.162h0a92.347,92.347,0,0,0-10.185-6.774c-.468-.2-12.4-5.374-17.021-8.474-.148-.067-4.682-2.375-4.874-12.375-.184-9.563.5-16.6,2.1-21.509l1.845-7.035c-.775-1.076-6.548-8.438-20.5-10.251-2.778-.255-10.366-.506-12.318,1.345C1097.643,7647.884,1091.494,7670.047,1083.314,7680.126Z" fill="#999"/>
      </g>
      <path id="Trazado_108095" data-name="Trazado 108095" d="M1096.3,7872.6c-.767,0-1.542,0-2.333-.013-30.118-.315-42.763-7.113-42.887-7.182l.362-.656c.123.067,12.636,6.775,42.533,7.088,26.462.279,39.03-4.216,39.154-4.262l.259.7C1133.263,7868.325,1121.31,7872.6,1096.3,7872.6Z" fill="#999"/>
      <path id="Trazado_108096" data-name="Trazado 108096" d="M1096.784,7881.9q-1.418,0-2.831-.052c-28.192-1.078-41.574-7.59-41.706-7.656l.334-.671c.131.065,13.392,6.506,41.4,7.577,19.429.753,39.84-6.611,40.044-6.686l.257.7C1134.086,7875.185,1115.459,7881.9,1096.784,7881.9Z" fill="#999"/>
      <path id="Trazado_108097" data-name="Trazado 108097" d="M1099,7881.574l-2.895-2.9,2.258-3.1-2.837-3.08.552-.508,3.254,3.533-2.242,3.074,2.44,2.44Z" fill="#999"/>
      <path id="Trazado_108098" data-name="Trazado 108098" d="M1103.187,7881.574l-2.895-2.9,2.258-3.1-2.838-3.08.552-.508,3.255,3.533-2.242,3.074,2.44,2.44Z" fill="#999"/>
      <path id="Trazado_108099" data-name="Trazado 108099" d="M1107.432,7881.3l-2.7-2.814,2.1-3.007-2.644-2.992.562-.5,3.035,3.434-2.09,2.987,2.273,2.369Z" fill="#999"/>
      <path id="Trazado_108100" data-name="Trazado 108100" d="M1111.686,7880.688l-2.708-2.659,2.095-2.822-2.612-2.786.547-.514,3.041,3.243-2.079,2.8,2.242,2.2Z" fill="#999"/>
      <path id="Trazado_108101" data-name="Trazado 108101" d="M1115.495,7880.047l-2.708-2.659,2.095-2.822-2.611-2.785.547-.514,3.04,3.242-2.079,2.8,2.242,2.2Z" fill="#999"/>
      <path id="Trazado_108102" data-name="Trazado 108102" d="M1076.526,7880.5l-2.613-3.08,2.543-2.749-2.518-3.229.592-.461,2.909,3.73-2.525,2.729,2.183,2.574Z" fill="#999"/>
      <path id="Trazado_108103" data-name="Trazado 108103" d="M1080.689,7880.911l-2.613-3.08,2.544-2.749-2.518-3.229.592-.461,2.91,3.73-2.525,2.729,2.184,2.574Z" fill="#999"/>
      <path id="Trazado_108104" data-name="Trazado 108104" d="M1085.17,7881.358l-2.613-3.08,2.543-2.749-2.518-3.229.592-.461,2.909,3.73-2.525,2.729,2.183,2.574Z" fill="#999"/>
      <path id="Trazado_108105" data-name="Trazado 108105" d="M1063.517,7877.759l-2.613-3.08,2.544-2.749-2.518-3.229.592-.461,2.909,3.73-2.525,2.729,2.184,2.574Z" fill="#999"/>
      <path id="Trazado_108106" data-name="Trazado 108106" d="M1059.443,7876.589l-2.613-3.08,2.544-2.749-2.518-3.229.592-.461,2.91,3.73-2.525,2.729,2.184,2.574Z" fill="#999"/>
      <path id="Trazado_108107" data-name="Trazado 108107" d="M1056.081,7875.442l-2.613-3.08,2.543-2.749-2.518-3.229.592-.461,2.909,3.73-2.525,2.729,2.183,2.574Z" fill="#999"/>
      <path id="Trazado_108108" data-name="Trazado 108108" d="M1067.68,7878.874l-2.613-3.08,2.543-2.75-2.518-3.228.592-.461,2.909,3.729-2.525,2.73,2.184,2.574Z" fill="#999"/>
      <path id="Trazado_108109" data-name="Trazado 108109" d="M1072.161,7879.321l-2.613-3.08,2.543-2.749-2.518-3.229.592-.461,2.909,3.73-2.525,2.729,2.183,2.574Z" fill="#999"/>
      <path id="Trazado_108110" data-name="Trazado 108110" d="M1089.412,7881.782l-2.613-3.08,2.544-2.749-2.518-3.229.592-.461,2.91,3.73-2.525,2.729,2.184,2.574Z" fill="#999"/>
      <path id="Trazado_108111" data-name="Trazado 108111" d="M1093.565,7881.516l-2.613-3.08,2.544-2.749-2.518-3.229.592-.461,2.909,3.73-2.525,2.729,2.184,2.574Z" fill="#999"/>
      <path id="Trazado_108112" data-name="Trazado 108112" d="M1123.312,7878.095l-2.9-2.266,2.185-2.34-2.644-2.241.485-.572,3.243,2.751-2.163,2.316,2.254,1.76Z" fill="#999"/>
      <path id="Trazado_108113" data-name="Trazado 108113" d="M1127.1,7877.167l-2.9-2.267,2.185-2.34-2.643-2.241.485-.572,3.243,2.751-2.162,2.316,2.254,1.761Z" fill="#999"/>
      <path id="Trazado_108114" data-name="Trazado 108114" d="M1130.973,7876.209l-2.9-2.267,2.185-2.34-2.643-2.24.485-.572,3.243,2.75-2.162,2.316,2.254,1.761Z" fill="#999"/>
      <path id="Trazado_108115" data-name="Trazado 108115" d="M1118.97,7878.653l-2.764-2.317,2.095-2.409-2.551-2.323.5-.555,3.093,2.817-2.074,2.386,2.178,1.827Z" fill="#999"/>
      <path id="Trazado_108116" data-name="Trazado 108116" d="M1127.856,8090.46a.5.5,0,0,1-.5-.5c0-.574-.235-58.013-.869-110.8-.053-4.344-.1-8.661-.14-12.919-.356-34.887-.663-65.016-4.929-74.01-7.423-15.647-2.834-56.748.2-83.946.312-2.8.607-5.44.87-7.88.33-3.079.678-5.8,1.014-8.442,1.155-9.063,2.068-16.221.953-28.165-1.4-14.983-8.865-58.569-9.182-60.415-.256-.628-1.912-5.4-.013-19.686,1.987-14.944,2.655-21.955,2.662-22.024a.5.5,0,1,1,.995.094c-.006.069-.676,7.095-2.666,22.061-1.955,14.708-.06,19.163-.04,19.206a.522.522,0,0,1,.037.122c.078.451,7.78,45.281,9.2,60.548,1.124,12.056.206,19.262-.957,28.386-.336,2.632-.683,5.353-1.012,8.423-.262,2.44-.557,5.083-.87,7.884-3.024,27.084-7.593,68.015-.292,83.407,4.359,9.19,4.668,39.422,5.025,74.427.043,4.257.087,8.574.14,12.917.634,52.8.867,110.239.869,110.813a.5.5,0,0,1-.5.5Z" fill="#4d4d4d"/>
      <path id="Trazado_108117" data-name="Trazado 108117" d="M1108.066,8155.438l-12.794,2.685v-58.638l12.794-3.7Z" fill="#404040"/>
      <path id="Trazado_108118" data-name="Trazado 108118" d="M1108.066,8202.492v-51.645l-12.794,3.7v47.942Z" fill="#404040"/>
      <rect id="Rectángulo_10070" data-name="Rectángulo 10070" width="1" height="118.904" transform="translate(1040.328 8085.23) rotate(-8.081)" fill="#404040"/>
      <rect id="Rectángulo_10071" data-name="Rectángulo 10071" width="1" height="110.753" transform="translate(1050.128 8093.282) rotate(-8.012)" fill="#404040"/>
      <rect id="Rectángulo_10072" data-name="Rectángulo 10072" width="1" height="108.085" transform="matrix(0.991, -0.135, 0.135, 0.991, 1057.099, 8095.851)" fill="#404040"/>
      <rect id="Rectángulo_10073" data-name="Rectángulo 10073" width="1" height="102.503" transform="translate(1068.96 8101.154) rotate(-6.769)" fill="#404040"/>
      <rect id="Rectángulo_10074" data-name="Rectángulo 10074" width="1" height="102.303" transform="matrix(0.995, -0.1, 0.1, 0.995, 1079.916, 8101.146)" fill="#404040"/>
      <rect id="Rectángulo_10075" data-name="Rectángulo 10075" width="1" height="101.989" transform="translate(1086.697 8101.127) rotate(-3.595)" fill="#404040"/>
      <rect id="Rectángulo_10076" data-name="Rectángulo 10076" width="1" height="106.716" transform="translate(1111.218 8095.789) rotate(-0.639)" fill="#404040"/>
      <rect id="Rectángulo_10077" data-name="Rectángulo 10077" width="1" height="109.281" transform="translate(1121.653 8093.214) rotate(-0.214)" fill="#404040"/>
      <rect id="Rectángulo_10078" data-name="Rectángulo 10078" width="112.935" height="1" transform="translate(1130.373 8202.485) rotate(-89.217)" fill="#404040"/>
      <rect id="Rectángulo_10079" data-name="Rectángulo 10079" width="115.218" height="1" transform="translate(1137.443 8202.479) rotate(-88.434)" fill="#404040"/>
      <rect id="Rectángulo_10080" data-name="Rectángulo 10080" width="116.296" height="1" transform="translate(1143.699 8202.473) rotate(-87.873)" fill="#404040"/>
      <rect id="Rectángulo_10081" data-name="Rectángulo 10081" width="127.555" height="1" transform="matrix(0.045, -0.999, 0.999, 0.045, 1148.421, 8202.47)" fill="#404040"/>
      <path id="Trazado_108119" data-name="Trazado 108119" d="M1075.468,8162.389c-9.042,0-18.134-1.2-22.86-5.3-2.67-2.316-3.728-4.672-3.145-7,1.72-6.875,17.206-10.7,17.361-10.732,3.217-.734,33.914-7.68,33.914-7.68l.042-.008,8-1.1c1.349-.209,33.317-5.074,40.115,3.667,1.744,2.242,2.408,4.334,1.974,6.22-.761,3.31-4.6,5.2-7.405,6.583a13.67,13.67,0,0,0-2.293,1.278c-2.282,1.931-36.324,10.675-40.2,11.667A156.369,156.369,0,0,1,1075.468,8162.389Zm25.47-29.737c-.9.2-30.723,6.953-33.891,7.676s-15.245,4.529-16.614,10c-.484,1.937.468,3.957,2.83,6,10.82,9.383,47.128,2.735,47.494,2.669,15.093-3.861,38.174-10.106,39.769-11.455a13.723,13.723,0,0,1,2.5-1.411c2.624-1.293,6.218-3.064,6.873-5.909.363-1.58-.239-3.39-1.789-5.383-6.439-8.277-38.854-3.34-39.181-3.291Z" fill="#404040"/>
      <path id="Trazado_108120" data-name="Trazado 108120" d="M1076.983,8199.7c-9.042,0-18.134-1.2-22.86-5.3-2.67-2.315-3.728-4.672-3.145-7,1.721-6.875,17.206-10.7,17.361-10.731,3.217-.734,33.914-7.681,33.914-7.681l.042-.008,8-1.1c1.349-.209,33.318-5.074,40.115,3.667,1.744,2.241,2.408,4.334,1.974,6.22-.761,3.309-4.6,5.2-7.405,6.583a13.681,13.681,0,0,0-2.293,1.277c-2.282,1.932-36.324,10.676-40.2,11.667A156.4,156.4,0,0,1,1076.983,8199.7Zm25.47-29.736c-.9.2-30.723,6.953-33.891,7.676s-15.245,4.529-16.613,10c-.485,1.936.467,3.957,2.829,6,10.82,9.383,47.128,2.736,47.494,2.669,15.093-3.861,38.174-10.105,39.769-11.456a13.825,13.825,0,0,1,2.5-1.411c2.624-1.293,6.218-3.063,6.873-5.909.363-1.579-.239-3.39-1.789-5.383-6.439-8.277-38.854-3.341-39.181-3.291Z" fill="#404040"/>
      <g id="Grupo_56029" data-name="Grupo 56029">
        <path id="Trazado_108121" data-name="Trazado 108121" d="M1158.188,7781.6l-30.381-5.22s-32.3-6.556-42.9-3.471-33.551,9.256-33.551,9.256l-3.085-10.081s29.5-13.058,54.279-8.816,54.28,8.1,54.28,8.1l2.326.257A12.814,12.814,0,0,1,1158.188,7781.6Z" fill="#fff"/>
        <path id="Trazado_108122" data-name="Trazado 108122" d="M1051.1,7782.622l-3.289-10.745.3-.135c.3-.132,29.888-13.059,54.495-8.842,24.486,4.192,53.969,8.058,54.265,8.1l2.549.281.08.219a13.07,13.07,0,0,1-.991,10.291l-.13.229-30.641-5.266c-.333-.065-32.338-6.509-42.734-3.48-10.488,3.051-33.329,9.2-33.558,9.258Zm-2.376-10.325,2.881,9.413c2.93-.79,23.427-6.318,33.193-9.16,10.574-3.074,41.76,3.2,43.083,3.464l30.108,5.172a12.571,12.571,0,0,0,.881-9.215l-2.085-.23c-.3-.04-29.8-3.907-54.3-8.1C1079.442,7759.693,1051.92,7770.942,1048.725,7772.3Z" fill="#999"/>
      </g>
      <g id="Grupo_56030" data-name="Grupo 56030">
        <path id="Trazado_108123" data-name="Trazado 108123" d="M1158.414,7778.927l4.537-3.179,2.1.645s.89.3.889-.555l-1.733-3.5s-.843-1.5-1.528-.146l-.681,2.469-4.127,3.188-.668,1.146Z" fill="#666"/>
      </g>
      <path id="Trazado_108124" data-name="Trazado 108124" d="M1126.792,7662.791c-16.076,0-30.99-9.492-31.146-9.593l.406-.631c.162.1,16.334,10.38,33,9.409l.044.748C1128.33,7662.769,1127.558,7662.791,1126.792,7662.791Z" fill="#999"/>
      <g id="Grupo_56034" data-name="Grupo 56034">
        <g id="Grupo_56031" data-name="Grupo 56031">
          <path id="Trazado_108125" data-name="Trazado 108125" d="M1122.048,7630.51c0-5.345-3.351-9.678-7.485-9.678s-7.485,4.333-7.485,9.678c0,4.18,2.053,7.73,4.923,9.084v9.254h5.656v-9.533C1120.245,7637.792,1122.048,7634.426,1122.048,7630.51Z" fill="#fff"/>
          <path id="Trazado_108126" data-name="Trazado 108126" d="M1118.157,7649.348H1111.5V7639.9c-2.957-1.564-4.924-5.29-4.924-9.392,0-5.613,3.582-10.178,7.986-10.178s7.985,4.565,7.985,10.178c0,3.836-1.715,7.364-4.391,9.085Zm-5.656-1h4.656v-9.319l.247-.144c2.517-1.483,4.144-4.77,4.144-8.375,0-5.061-3.134-9.178-6.985-9.178s-6.986,4.117-6.986,9.178c0,3.854,1.864,7.324,4.638,8.632l.286.134Z" fill="#999"/>
        </g>
        <g id="Grupo_56032" data-name="Grupo 56032">
          <rect id="Rectángulo_10082" data-name="Rectángulo 10082" width="17.554" height="2.829" rx="1.209" transform="translate(1106.087 7632.514)" fill="#fff"/>
          <path id="Trazado_108127" data-name="Trazado 108127" d="M1122.432,7635.844H1107.3a1.711,1.711,0,0,1-1.708-1.709v-.412a1.71,1.71,0,0,1,1.708-1.709h15.137a1.71,1.71,0,0,1,1.709,1.709v.412A1.712,1.712,0,0,1,1122.432,7635.844Zm-15.137-2.83a.709.709,0,0,0-.708.709v.412a.71.71,0,0,0,.708.709h15.137a.711.711,0,0,0,.709-.709v-.412a.71.71,0,0,0-.709-.709Z" fill="#999"/>
        </g>
        <g id="Grupo_56033" data-name="Grupo 56033">
          <rect id="Rectángulo_10083" data-name="Rectángulo 10083" width="17.554" height="2.829" rx="1.209" transform="translate(1106.087 7627.112)" fill="#fff"/>
          <path id="Trazado_108128" data-name="Trazado 108128" d="M1122.432,7630.441H1107.3a1.71,1.71,0,0,1-1.708-1.708v-.412a1.711,1.711,0,0,1,1.708-1.709h15.137a1.711,1.711,0,0,1,1.709,1.709v.412A1.711,1.711,0,0,1,1122.432,7630.441Zm-15.137-2.829a.71.71,0,0,0-.708.709v.412a.709.709,0,0,0,.708.708h15.137a.709.709,0,0,0,.709-.708v-.412a.711.711,0,0,0-.709-.709Z" fill="#999"/>
        </g>
      </g>
      <g id="Grupo_56035" data-name="Grupo 56035">
        <ellipse id="Elipse_4338" data-name="Elipse 4338" cx="11.609" cy="25.109" rx="11.609" ry="25.109" transform="translate(1023.43 7704.623)" fill="#fff"/>
        <path id="Trazado_108129" data-name="Trazado 108129" d="M1035.039,7755.34c-6.677,0-12.109-11.488-12.109-25.609s5.432-25.609,12.109-25.609,12.109,11.488,12.109,25.609S1041.716,7755.34,1035.039,7755.34Zm0-50.218c-6.125,0-11.109,11.04-11.109,24.609s4.984,24.609,11.109,24.609,11.109-11.039,11.109-24.609S1041.164,7705.122,1035.039,7705.122Z" fill="gray"/>
      </g>
      <ellipse id="Elipse_4339" data-name="Elipse 4339" cx="2.445" cy="3.217" rx="2.445" ry="3.217" transform="translate(1031.509 7726.514)" fill="#454545"/>
      <path id="Trazado_108130" data-name="Trazado 108130" d="M1035.531,7704.709l-.985-.173c.058-.333,1.561-8.178,13.982-10.708l.2.981C1037.013,7697.194,1035.586,7704.4,1035.531,7704.709Z" fill="gray"/>
      <path id="Trazado_108131" data-name="Trazado 108131" d="M1100.554,8098.457h0a.5.5,0,0,1-.5-.5c.007-1.5.734-150.139,1.167-158.661.431-8.466-2.419-30.988-2.448-31.215l-3.461-21.637-1.824-35.793c0-.455-.343-43.56.13-54.909.132-3.177.41-6.626.678-9.962.7-8.751,1.432-17.8-.307-23.2-2.406-7.474-16.872-37.6-17.018-37.9l-4.368-12.047c-.044-.124-4.292-12.087-9.538-16.121l-5.427-4.175a.5.5,0,0,1,.61-.793l5.427,4.175c5.481,4.216,9.693,16.075,9.87,16.578l4.347,12c.577,1.194,14.622,30.443,17.049,37.983,1.8,5.59,1.064,14.74.352,23.588-.268,3.327-.545,6.767-.676,9.923-.472,11.324-.133,54.406-.13,54.839l1.818,35.718,3.458,21.6c.031.243,2.892,22.854,2.457,31.408-.432,8.5-1.159,157.115-1.166,158.615A.5.5,0,0,1,1100.554,8098.457Z" fill="#4d4d4d"/>
      <path id="Trazado_108132" data-name="Trazado 108132" d="M1158.8,7771.749l-6.044-17.176c-1.95-6.221-3.579-15.767-5.154-25-2.075-12.166-4.222-24.746-7.014-28.909l.623-.418c2.882,4.3,4.946,16.394,7.131,29.2,1.57,9.207,3.194,18.728,5.125,24.889l6.04,17.164Z" fill="#999"/>
      <path id="Trazado_108133" data-name="Trazado 108133" d="M1054.648,8094.295c-.068-1.317-6.782-132.038-5.914-164.2a156.973,156.973,0,0,1,12.7-57.182v-5.156l-26.346-121.98.733-.158,26.355,122.059.008,5.4-.037.077a155.808,155.808,0,0,0-12.659,56.955c-.868,32.137,5.845,162.828,5.913,164.145Z" fill="#999"/>
      <g id="Grupo_56036" data-name="Grupo 56036">
        <rect id="Rectángulo_10084" data-name="Rectángulo 10084" width="0.75" height="1" transform="matrix(0.977, -0.214, 0.214, 0.977, 1033.798, 7746.557)" fill="#999"/>
        <path id="Trazado_108134" data-name="Trazado 108134" d="M1053.148,8091.216l-.106-2,.749-.039.106,2Zm-.211-4.008-.1-2,.749-.039.1,2Zm-.207-4-.1-2,.749-.038.1,2Zm-.2-4-.1-2,.749-.037.1,2Zm-.2-4-.1-2,.749-.037.1,2Zm-.2-4-.1-2,.749-.037.1,2Zm-.195-4-.1-2,.749-.037.1,2Zm-.193-4-.095-2,.749-.035.1,2Zm-.19-4-.094-2,.749-.035.094,2Zm-.187-4-.092-2,.749-.035.092,2Zm-.184-4-.091-2,.749-.033.091,2Zm-.181-4-.089-2,.749-.033.089,2Zm-.178-4-.089-2,.749-.033.089,2Zm-.176-4-.086-2,.749-.032.086,2Zm-.172-4-.085-2,.749-.031.085,2Zm-.169-4-.083-2,.749-.031.083,2Zm-.166-4-.081-2,.749-.031.081,2Zm-.162-4-.08-2,.749-.029.08,2Zm-.159-4-.078-2,.749-.029.078,2Zm-.155-4-.076-2,.749-.029.076,2Zm-.151-4-.075-2,.749-.027.075,2Zm-.148-4-.072-2,.75-.027.071,2Zm-.143-4.007-.07-2,.75-.026.07,2Zm-.138-4.008-.067-2,.75-.026.067,2Zm-.134-4-.065-2,.75-.024.065,2Zm-.127-3.992-.062-1.993.75-.023.062,1.993Zm-.123-3.994-.059-2,.75-.021.059,2Zm-.117-4-.056-2,.75-.021.056,2Zm-.11-4-.053-2,.75-.019.053,2Zm-.1-4-.049-2,.75-.017.049,2Zm-.1-4-.045-2,.75-.016.045,2Zm-.087-4-.041-2,.75-.016.041,2Zm-.079-4-.035-2,.75-.013.035,2Zm-.069-4-.029-2,.75-.01.029,2Zm-.057-4-.024-2,.75-.008.024,2Zm-.044-4-.016-2,.75-.006.016,2Zm-.029-4.006-.009-2,.75,0,.009,2Zm.737-4.006h-.75l0-2,.75,0Zm.008-4-.75,0,.013-2,.75.006Zm.034-4-.75-.008.028-2,.75.012Zm.064-4-.75-.016q.021-1.02.046-2l.75.019Q1048.768,7930.14,1048.747,7931.16Zm.1-4-.75-.023q.033-1.028.072-2l.749.029Q1048.884,7926.138,1048.851,7927.164Zm.159-3.99-.749-.037q.051-1.039.109-2l.749.045Q1049.06,7922.14,1049.01,7923.174Zm.252-3.982-.748-.062q.084-.993.19-2l.747.078Q1049.344,7918.208,1049.262,7919.192Zm.419-3.965-.744-.094c.083-.66.173-1.325.27-1.991l.742.107Q1049.805,7914.242,1049.681,7915.227Zm.57-3.953-.74-.119q.159-.988.335-1.979l.738.131Q1050.41,7910.291,1050.251,7911.274Zm.7-3.935-.736-.141q.188-.986.39-1.97l.734.151C1051.2,7906.031,1051.073,7906.686,1050.947,7907.339Zm.8-3.913-.733-.16q.214-.981.436-1.954l.731.168Q1051.961,7902.448,1051.747,7903.426Zm.89-3.891-.729-.176q.235-.981.478-1.948l.727.182Q1052.872,7898.556,1052.637,7899.535Zm.971-3.879-.726-.189q.255-.981.515-1.939l.723.2Q1053.863,7894.678,1053.608,7895.656Zm1.042-3.859-.722-.2q.274-.981.548-1.929l.721.207Q1054.923,7890.818,1054.65,7891.8Zm1.108-3.843-.719-.213q.291-.983.579-1.922l.717.219Q1056.049,7886.974,1055.758,7887.954Zm1.169-3.827-.716-.225q.31-.987.609-1.912l.714.231Q1057.237,7883.142,1056.927,7884.127Zm1.228-3.809-.712-.234c.221-.669.434-1.305.637-1.9l.71.24Q1058.487,7879.317,1058.155,7880.318Zm1.286-3.791-.708-.246c.249-.716.473-1.349.669-1.894l.706.254C1059.913,7875.184,1059.689,7875.815,1059.441,7876.527Zm1.356-3.768-.7-.262.119-.316v-1.533h.75l-.025,1.735Zm.166-4.112h-.75V7867.3l-.131-.559.732-.16.14.639Zm-1.308-3.859-.428-1.954.733-.16.427,1.954Zm-.855-3.908-.428-1.954.733-.16.427,1.954Zm-.855-3.908-.428-1.954.733-.161.428,1.954Zm-.855-3.91-.427-1.954.732-.16.428,1.954Zm-.854-3.908-.428-1.954.732-.16.428,1.954Zm-.855-3.908-.428-1.954.733-.16.427,1.954Zm-.855-3.908-.428-1.955.733-.16.427,1.955Zm-.855-3.909-.427-1.954.732-.161.428,1.955Zm-.855-3.909-.427-1.954.732-.16.428,1.954Zm-.854-3.908-.428-1.954.732-.16.428,1.954Zm-.855-3.909-.427-1.954.732-.16.427,1.954Zm-.855-3.908-.427-1.954.732-.16.428,1.954Zm-.855-3.908-.427-1.954.732-.161.428,1.955Zm-.855-3.909-.427-1.955.732-.16.428,1.955Zm-.854-3.909-.427-1.954.732-.16.427,1.954Zm-.855-3.908-.427-1.954.732-.16.427,1.954Zm-.855-3.908-.427-1.954.732-.16.428,1.954Zm-.855-3.909-.427-1.954.733-.161.427,1.955Zm-.854-3.908-.428-1.955.733-.16.427,1.954Zm-.855-3.909-.427-1.954.732-.16.427,1.954Zm-.855-3.908-.427-1.954.732-.16.427,1.954Zm-.855-3.909-.427-1.954.733-.16.427,1.954Zm-.855-3.908-.427-1.954.733-.161.427,1.955Zm-.854-3.908-.428-1.955.733-.16.427,1.954Zm-.855-3.909-.427-1.955.732-.16.427,1.955Zm-.855-3.909-.427-1.954.732-.16.428,1.954Zm-.855-3.908-.427-1.954.733-.16.427,1.954Zm-.854-3.908-.428-1.954.733-.161.427,1.955Zm-.855-3.909-.427-1.955.732-.16.427,1.954Zm-.855-3.909-.427-1.954.732-.16.427,1.954Z" fill="#999"/>
        <rect id="Rectángulo_10085" data-name="Rectángulo 10085" width="0.75" height="0.995" transform="matrix(0.999, -0.054, 0.054, 0.999, 1053.246, 8093.042)" fill="#999"/>
      </g>
      <g id="Grupo_56037" data-name="Grupo 56037">
        <path id="Trazado_108135" data-name="Trazado 108135" d="M1036.247,7746.181l-.215-.977.732-.162.215.977Z" fill="#999"/>
        <path id="Trazado_108136" data-name="Trazado 108136" d="M1056.037,8091.6l-.109-1.994.749-.041.109,1.994Zm-.22-3.989-.113-1.992.749-.043.113,1.992Zm-.224-3.984-.113-1.993.749-.041.113,1.991Zm-.225-3.984-.111-1.991.749-.041.112,1.989Zm-.222-3.982-.111-1.991.749-.041.111,1.991Zm-.222-3.982-.11-1.992.749-.041.11,1.992Zm-.219-3.983-.108-1.99.749-.041.108,1.99Zm-.217-3.979-.107-1.992.749-.041.107,1.992Zm-.214-3.982-.106-1.991.749-.039.106,1.989Zm-.212-3.981-.1-1.991.749-.039.1,1.991Zm-.21-3.983-.1-1.99.749-.039.1,1.99Zm-.206-3.98-.1-1.99.749-.039.1,1.99Zm-.2-3.981-.1-1.991.749-.037.1,1.991Zm-.2-3.981-.1-1.99.749-.037.1,1.99Zm-.2-3.981-.1-1.991.749-.037.1,1.99Zm-.194-3.98-.095-1.992.749-.035.095,1.99Zm-.19-3.982-.094-1.992.749-.035.094,1.991Zm-.187-3.982-.092-1.991.749-.035.092,1.991Zm-.182-3.981-.09-1.992.749-.034.09,1.991Zm-.18-3.983-.088-1.991.749-.033.088,1.991Zm-.175-3.984-.086-1.99.749-.032.086,1.991Zm-.17-3.982-.083-1.991.749-.031.083,1.991Zm-.165-3.988-.081-2,.749-.03.081,2Zm-.161-3.99-.079-1.993.749-.029.079,1.991Zm-.155-3.981-.073-1.917.746-.1.076,1.987Zm-.149-3.976-.073-1.984.75-.028.072,1.985Zm-.143-3.976-.07-1.993.75-.025.069,1.991Zm-.138-3.983-.065-1.993.75-.024.065,1.992Zm-.129-3.984-.062-1.993.75-.023.062,1.992Zm-.121-3.985-.058-1.993.75-.021.058,1.991Zm-.113-3.985-.054-1.993.75-.02.054,1.991Zm-.1-3.985-.049-1.994.75-.017.049,1.991Zm-.094-3.986-.043-1.994.75-.016.043,1.993Zm-.082-3.987-.037-1.993.75-.014.037,1.993Zm-.07-3.986-.029-2,.75-.009.029,1.992Zm-.055-3.988-.021-1.993.75-.008.021,1.993Zm-.038-3.988-.012-1.994.75,0,.012,1.992Zm-.018-3.987,0-1.3v-.7h.75v.7l0,1.294Zm.754-3.984-.75,0,.013-1.993.75.006Zm.033-3.981-.75-.008q.012-1.014.029-2l.75.014Q1050.831,7935.246,1050.818,7936.257Zm.068-3.981-.75-.015q.023-1.016.05-1.993l.75.021C1050.917,7930.938,1050.9,7931.6,1050.886,7932.276Zm.113-3.975-.75-.028q.038-1.022.08-1.993l.749.033Q1051.036,7927.281,1051,7928.3Zm.177-3.973-.749-.041q.055-1.032.122-1.993l.748.051C1051.253,7922.981,1051.213,7923.644,1051.176,7924.328Zm.273-3.962-.748-.064c.057-.665.118-1.3.183-1.893l.671-.015.084.011C1051.565,7919.081,1051.505,7919.707,1051.449,7920.366Zm.415-3.949-.745-.088q.117-1,.24-1.98l.744.093Q1051.981,7915.415,1051.864,7916.417Zm.495-3.946-.743-.1q.135-1,.274-1.977l.743.108Q1052.494,7911.468,1052.359,7912.471Zm.565-3.936-.742-.113q.153-1,.312-1.97l.741.121Q1053.076,7907.537,1052.924,7908.535Zm.642-3.922-.739-.129q.175-1,.354-1.963l.738.137Q1053.741,7903.616,1053.566,7904.613Zm.729-3.906-.736-.146q.2-1,.4-1.955l.734.157Q1054.493,7899.711,1054.3,7900.707Zm.825-3.884-.731-.166q.227-1,.457-1.943l.729.178Q1055.346,7895.831,1055.12,7896.823Zm.939-3.856-.725-.188q.258-1,.52-1.929l.722.2Q1056.318,7891.977,1056.059,7892.967Zm1.07-3.821-.718-.216q.3-.993.6-1.907l.713.233Q1057.428,7888.16,1057.129,7889.146Zm1.229-3.765-.707-.25q.351-.992.693-1.877l.7.269Q1058.705,7884.4,1058.358,7885.381Zm1.427-3.691-.69-.293q.423-1,.819-1.83l.678.321Q1060.2,7880.71,1059.785,7881.69Zm1.693-3.562-.661-.356c.337-.627.677-1.212,1.013-1.742l.634.4C1062.138,7876.945,1061.806,7877.517,1061.478,7878.128Zm2.16-3.31-.351-.261h-.292v-1.905h.75v2.057Zm.107-4.157h-.75v-1.992h.75Zm-.991-3.876-.428-1.945.733-.16.428,1.945Zm-.855-3.891-.427-1.945.732-.16.428,1.945Zm-.855-3.89-.427-1.945.732-.161.428,1.946Zm-.855-3.891-.427-1.945.732-.16.427,1.945Zm-.855-3.89-.427-1.946.732-.16.427,1.945Zm-.855-3.891-.427-1.945.732-.16.427,1.945Zm-.855-3.89-.428-1.945.733-.161.427,1.945Zm-.855-3.89-.428-1.946.733-.16.427,1.946Zm-.855-3.891-.428-1.945.733-.16.427,1.945Zm-.856-3.891-.427-1.945.733-.16.427,1.945Zm-.855-3.89-.427-1.945.733-.161.427,1.946Zm-.855-3.891-.427-1.945.732-.16.428,1.945Zm-.855-3.89-.427-1.946.732-.16.428,1.945Zm-.855-3.89-.427-1.945.732-.161.428,1.946Zm-.854-3.891-.428-1.945.732-.16.428,1.945Zm-.856-3.89-.427-1.946.732-.16.427,1.946Zm-.855-3.891-.427-1.945.732-.16.427,1.945Zm-.855-3.891-.428-1.945.733-.16.428,1.945Zm-.855-3.89-.428-1.945.733-.161.428,1.946Zm-.855-3.891-.428-1.945.733-.16.428,1.945Zm-.855-3.889-.428-1.946.733-.16.427,1.945Zm-.855-3.891-.428-1.945.733-.161.427,1.946Zm-.855-3.891-.428-1.945.732-.16.428,1.945Zm-.855-3.89-.428-1.946.732-.16.428,1.946Zm-.855-3.891-.428-1.945.732-.16.428,1.945Zm-.855-3.891-.428-1.945.732-.16.428,1.945Zm-.856-3.89-.427-1.946.732-.16.428,1.946Zm-.855-3.89-.427-1.945.732-.16.428,1.945Zm-.855-3.89-.427-1.946.732-.16.428,1.945Zm-.855-3.891-.427-1.945.732-.161.428,1.946Zm-.855-3.891-.427-1.945.732-.16.428,1.945Z" fill="#999"/>
        <path id="Trazado_108137" data-name="Trazado 108137" d="M1056.8,8094.763l-.506-.554.246.283-.372-.037c0-.08-.009-.4-.035-.939l.749-.036C1056.941,8094.631,1056.941,8094.631,1056.8,8094.763Z" fill="#999"/>
      </g>
      <path id="Trazado_108138" data-name="Trazado 108138" d="M1116.048,7701.193a.5.5,0,0,1-.005-1c8.126-.077,13.406-6.834,13.458-6.9a.5.5,0,0,1,.794.607c-.225.295-5.619,7.213-14.242,7.294Z" fill="#4d4d4d"/>
      <g id="Grupo_56041" data-name="Grupo 56041">
        <g id="Grupo_56038" data-name="Grupo 56038" opacity="0.74">
          <path id="Trazado_108139" data-name="Trazado 108139" d="M1017.647,7735.3c.2,5.816.733,9.824.733,9.824l1.925,7.321A168.256,168.256,0,0,1,1017.647,7735.3Z" fill="#ccc"/>
          <path id="Trazado_108140" data-name="Trazado 108140" d="M1020.3,7752.944a.5.5,0,0,1-.483-.373l-1.925-7.321c-.018-.1-.552-4.16-.75-9.935a.5.5,0,0,1,.467-.515.494.494,0,0,1,.53.45,167.945,167.945,0,0,0,2.649,17.084.5.5,0,0,1-.369.6A.55.55,0,0,1,1020.3,7752.944Z" fill="#4d4d4d"/>
        </g>
        <g id="Grupo_56039" data-name="Grupo 56039" opacity="0.74">
          <path id="Trazado_108141" data-name="Trazado 108141" d="M1018.741,7715.738a100.636,100.636,0,0,0-1.1,19.54Z" fill="#ccc"/>
          <path id="Trazado_108142" data-name="Trazado 108142" d="M1017.646,7735.778h-.005a.5.5,0,0,1-.494-.483,102.053,102.053,0,0,1,1.1-19.64.5.5,0,0,1,.992.112l-1.095,19.54A.5.5,0,0,1,1017.646,7735.778Z" fill="#4d4d4d"/>
        </g>
        <g id="Grupo_56040" data-name="Grupo 56040" opacity="0.74">
          <path id="Trazado_108143" data-name="Trazado 108143" d="M1130.9,8019.021s-.522-54.956.3-71.478-6.389-68.911-6.389-68.911l3.041-68.828-4.883-68.7-6.925-40.416c-26.064-2.609-32.8-19.585-32.8-19.585-6.783,8-32.348,13.21-32.348,13.21-30.435,1.21-28.522,9.052-28.522,9.052a47.7,47.7,0,0,0-3.628,12.3c.181-.655,2.992-10.747,5.288-12.735,2.373-2.056,6.645-3.914,10.124-1.7s14.912,28.435,15.173,41.609c.168,8.468-4.732,15.428-8.253,19.319a10.2,10.2,0,0,1-8.607,3.322c-6.765-.723-8.437-3.989-8.437-3.989-.985-.573-1.87-2.434-2.645-4.912l6.725,25.577s17.043,76.856,19.256,82.914,0,14.7,0,14.7l-5.691,20.111c-10.261,19.826-10.087,69.217-10.087,69.217s3.3,140,3.853,149.566,12.156,14.261,12.156,14.261a71.815,71.815,0,0,0,43.643,0l40.7-12Z" fill="#ccc"/>
          <path id="Trazado_108144" data-name="Trazado 108144" d="M1069.136,8136.811a69.018,69.018,0,0,1-21.686-3.4c-.517-.208-11.938-4.937-12.5-14.707-.542-9.464-3.82-148.182-3.853-149.582,0-.5-.055-49.676,10.12-69.414l5.677-20.062c.018-.074,2.144-8.554.011-14.393-2.2-6.02-18.579-79.837-19.275-82.977l-6.72-25.559a.5.5,0,0,1,.961-.277c1.018,3.255,1.878,4.315,2.42,4.629a.513.513,0,0,1,.194.205c.014.028,1.679,3.039,8.044,3.719a9.7,9.7,0,0,0,8.184-3.16c3.794-4.192,8.283-10.888,8.123-18.974-.257-12.984-11.52-39.015-14.942-41.2-3.465-2.21-7.618,0-9.527,1.651-1.756,1.521-4.126,8.835-5.134,12.491a.5.5,0,0,1-.975-.216,48.373,48.373,0,0,1,3.605-12.295,3.567,3.567,0,0,1,.853-2.445c2.094-2.78,8.681-6.254,28.165-7.029.174-.042,25.394-5.257,31.986-13.033a.492.492,0,0,1,.462-.17.5.5,0,0,1,.385.309c.066.167,6.953,16.726,32.383,19.272a.5.5,0,0,1,.443.413l6.925,40.415,4.889,68.745-3.04,68.885c.068.434,7.205,52.535,6.388,68.914-.813,16.315-.306,70.879-.3,71.449l1.044,101.913a.5.5,0,0,1-.359.484l-40.7,12A70.767,70.767,0,0,1,1069.136,8136.811Zm-45.947-375.364,5.414,20.592c.175.787,17.066,76.911,19.243,82.868,2.24,6.133.106,14.637.014,15l-5.694,20.123a.466.466,0,0,1-.037.094c-10.088,19.492-10.033,68.494-10.031,68.986.033,1.39,3.31,140.091,3.852,149.539.523,9.133,11.731,13.78,11.844,13.826,22.665,7.5,43.078.071,43.281-.005l40.367-11.9-1.04-101.535h0c-.005-.549-.513-55.161.3-71.507.812-16.287-6.312-68.295-6.384-68.819l3.037-68.918-4.882-68.638-6.856-39.993c-22.725-2.415-30.858-15.9-32.5-19.152-7.464,7.712-31.089,12.6-32.115,12.81-20.019.8-25.774,4.457-27.43,6.566a2.51,2.51,0,0,0-.7,1.885.536.536,0,0,1-.036.323c-.024.05-.047.1-.07.15a5.4,5.4,0,0,1,.951-1.176c2.838-2.459,7.254-3.949,10.719-1.74,3.749,2.39,15.14,28.649,15.405,42.021.167,8.414-4.466,15.338-8.382,19.665a10.7,10.7,0,0,1-9.032,3.482c-6.27-.67-8.351-3.477-8.753-4.127A2.95,2.95,0,0,1,1023.189,7761.447Z" fill="#4d4d4d"/>
        </g>
      </g>
      <g id="Grupo_56042" data-name="Grupo 56042" opacity="0.74">
        <line id="Línea_231" data-name="Línea 231" x2="1.021" y2="3.815" transform="translate(1020.305 7752.63)" fill="#ccc"/>
        <path id="Trazado_108145" data-name="Trazado 108145" d="M1021.326,7756.945a.5.5,0,0,1-.483-.371l-1.02-3.815a.5.5,0,0,1,.353-.613.505.505,0,0,1,.612.355l1.021,3.815a.5.5,0,0,1-.354.613A.59.59,0,0,1,1021.326,7756.945Z" fill="#4d4d4d"/>
      </g>
      <path id="Trazado_108146" data-name="Trazado 108146" d="M1049.181,8132.913h-.009a.5.5,0,0,1-.491-.51l.7-37.921,2.235-47.658c-.016-.909-1.567-94.282-1.74-113.711-.173-19.546,6.113-32.446,6.176-32.575l7.413-20.456.767-4.438c.01-.16.389-5.045.656-7.057.205-1.541-.947-4.517-1.408-5.532l-8.893-35.433-17.792-62.67a.5.5,0,1,1,.962-.273l17.8,62.684,8.867,35.363c.043.075,1.744,3.854,1.46,5.992-.264,1.985-.653,7-.657,7.051l-.8,4.57-7.458,20.593c-.085.176-6.265,12.88-6.094,32.171.173,19.426,1.724,112.795,1.739,113.737l-2.235,47.676-.7,37.906A.5.5,0,0,1,1049.181,8132.913Z" fill="#4d4d4d"/>
      <g id="Grupo_56043" data-name="Grupo 56043">
        <path id="Trazado_108147" data-name="Trazado 108147" d="M1039.366,7775.243l4.536-3.179,2.1.644s.89.3.889-.554l-1.733-3.5s-.843-1.5-1.529-.146l-.68,2.47-4.127,3.188-.668,1.145Z" fill="#666"/>
      </g>
      <g id="Grupo_56044" data-name="Grupo 56044">
        <path id="Trazado_108148" data-name="Trazado 108148" d="M1051.994,7822.547l4.536-3.179,2.1.645s.889.3.889-.555l-1.733-3.5s-.844-1.5-1.529-.146l-.681,2.469-4.127,3.188-.668,1.146Z" fill="#666"/>
      </g>
      <g id="Grupo_56045" data-name="Grupo 56045">
        <path id="Trazado_108149" data-name="Trazado 108149" d="M1064.321,7867.126l5.193-1.926,1.865,1.155s.785.513,1-.312l-.79-3.826s-.435-1.665-1.442-.528l-1.284,2.216-4.8,2.039-.937.939Z" fill="#666"/>
      </g>
      <g id="Grupo_56046" data-name="Grupo 56046">
        <path id="Trazado_108150" data-name="Trazado 108150" d="M1054.155,7901.474l5.537.156,1.3,1.769s.536.769,1.045.085l.7-3.844s.219-1.706-1.14-1.029l-2.019,1.575-5.214.1-1.219.521Z" fill="#666"/>
      </g>
      <g id="Grupo_56047" data-name="Grupo 56047">
        <path id="Trazado_108151" data-name="Trazado 108151" d="M1047.56,7958.692l5.537.156,1.3,1.768s.536.77,1.044.086l.7-3.844s.218-1.707-1.14-1.03l-2.02,1.576-5.213.1-1.22.521Z" fill="#666"/>
      </g>
      <g id="Grupo_56048" data-name="Grupo 56048">
        <path id="Trazado_108152" data-name="Trazado 108152" d="M1050.9,8008.953l5.537.156,1.3,1.768s.536.769,1.044.085l.7-3.844s.219-1.706-1.14-1.029l-2.019,1.576-5.214.095-1.22.521Z" fill="#666"/>
      </g>
      <g id="Grupo_56049" data-name="Grupo 56049">
        <path id="Trazado_108153" data-name="Trazado 108153" d="M1049.988,8068.041l5.537.156,1.3,1.769s.536.769,1.045.085l.7-3.844s.219-1.706-1.139-1.029l-2.02,1.575-5.214.1-1.219.521Z" fill="#666"/>
      </g>
      <g id="Grupo_56050" data-name="Grupo 56050">
        <path id="Trazado_108154" data-name="Trazado 108154" d="M1132.856,8081.9l4.382-3.388,2.125.545s.9.256.862-.6l-1.9-3.416s-.913-1.458-1.534-.074l-.564,2.5-3.972,3.378-.614,1.175Z" fill="#666"/>
      </g>
      <g id="Grupo_56051" data-name="Grupo 56051">
        <path id="Trazado_108155" data-name="Trazado 108155" d="M1130.891,7971.451l4.382-3.388,2.125.545s.9.256.862-.595l-1.9-3.417s-.912-1.458-1.533-.074l-.564,2.5-3.973,3.378-.613,1.176Z" fill="#666"/>
      </g>
      <g id="Grupo_56052" data-name="Grupo 56052">
        <path id="Trazado_108156" data-name="Trazado 108156" d="M1130.891,7922.843l4.382-3.389,2.125.546s.9.255.862-.6l-1.9-3.416s-.912-1.459-1.533-.074l-.564,2.5-3.973,3.378-.613,1.176Z" fill="#666"/>
      </g>
      <g id="Grupo_56053" data-name="Grupo 56053">
        <path id="Trazado_108157" data-name="Trazado 108157" d="M1127.746,7922.843l-4.381-3.389-2.125.546s-.9.255-.862-.6l1.895-3.416s.913-1.459,1.534-.074l.564,2.5,3.973,3.378.613,1.176Z" fill="#666"/>
      </g>
      <g id="Grupo_56054" data-name="Grupo 56054">
        <path id="Trazado_108158" data-name="Trazado 108158" d="M1131.935,7970.437l4.382,3.389,2.125-.546s.9-.255.862.6l-1.9,3.416s-.913,1.459-1.534.074l-.564-2.5-3.972-3.379-.614-1.175Z" fill="#666"/>
      </g>
      <g id="Grupo_56055" data-name="Grupo 56055">
        <path id="Trazado_108159" data-name="Trazado 108159" d="M1129.727,8081.112l-4.382-3.388-2.125.546s-.9.255-.862-.6l1.9-3.417s.912-1.458,1.534-.073l.564,2.5,3.972,3.378.613,1.176Z" fill="#666"/>
      </g>
      <g id="Grupo_56056" data-name="Grupo 56056">
        <path id="Trazado_108160" data-name="Trazado 108160" d="M1040.117,7697.633l-2.6-4.891.9-2s.4-.847-.442-.951l-3.687,1.292s-1.592.653-.332,1.5l2.367.977,2.66,4.486,1.055.8Z" fill="#666"/>
      </g>
      <g id="Grupo_56057" data-name="Grupo 56057">
        <path id="Trazado_108161" data-name="Trazado 108161" d="M1067.237,7692.415l-2.6-4.89.9-2s.405-.846-.441-.95l-3.688,1.292s-1.591.653-.331,1.5l2.367.978,2.659,4.486,1.056.8Z" fill="#666"/>
      </g>
      <g id="Grupo_56058" data-name="Grupo 56058">
        <path id="Trazado_108162" data-name="Trazado 108162" d="M1082.924,7687.459l-2.6-4.891.9-2s.4-.847-.441-.951l-3.688,1.292s-1.591.654-.331,1.5l2.367.977,2.659,4.486,1.055.8Z" fill="#666"/>
      </g>
      <path id="Trazado_108163" data-name="Trazado 108163" d="M1086.891,7745.83c-9.3-33.146-27.546-51.7-27.729-51.881l.707-.707c.185.186,18.615,18.9,27.985,52.319Z" fill="#666"/>
      <path id="Trazado_108164" data-name="Trazado 108164" d="M1080.355,7943.728l-1-.021c.006-.264.6-26.535,3.033-38.956,2.428-12.365,4.22-24.45,4.238-24.571a229.024,229.024,0,0,0,0-23.556c-.727-9.733-4.163-43.829-4.239-44.585-.231-.085-.437-.18-.605-.258-.1-.048-.193-.091-.264-.116-1.143-.415-1.2-2.168-1.256-4.2-.009-.285-.017-.575-.029-.862-.055-1.305.2-3.6,1.136-4.575a1.385,1.385,0,0,1,1.015-.467c1.9,0,2.258,3.058,2.356,6.048a8.135,8.135,0,0,1-.448,3.245c.556-.678,1.161-2.606.552-8.042-1.047-9.35-1.8-10.43-1.886-10.523a.351.351,0,0,0,.222.087l.024-.447-.372-.413.583-.1c.362.138,1.211.46,2.423,11.285.58,5.184.192,8.188-1.188,9.183a1.9,1.9,0,0,1-1.236.37c.36,3.576,3.515,35,4.209,44.292a229.2,229.2,0,0,1,0,23.73c-.023.167-1.818,12.275-4.25,24.664C1080.949,7917.279,1080.36,7943.466,1080.355,7943.728Zm2.025-141.163c-.035,0-.141,0-.293.16-.585.608-.916,2.477-.859,3.841.012.29.021.583.03.872.039,1.31.092,3.1.6,3.288.091.033.207.085.342.148a5.576,5.576,0,0,0,.785.308,5.64,5.64,0,0,0,.754-3.536C1083.592,7803.226,1082.825,7802.565,1082.38,7802.565Z" fill="#666"/>
      <path id="Trazado_108165" data-name="Trazado 108165" d="M1084.317,7938.409c-.351-4.334-1.675-15.981-3.554-17.806l.7-.716c2.489,2.415,3.722,16.808,3.855,18.442Z" fill="#666"/>
      <path id="Trazado_108166" data-name="Trazado 108166" d="M1109.236,7936.889c-.018-.1-1.821-10.6-3.633-17.622-1.833-7.1-1.639-24.889-1.63-25.643l-1.021-34.283v-41.885c0-.087.149-7.583-1.648-10.288l.833-.553c1.97,2.966,1.823,10.531,1.815,10.853v41.858l1.021,34.289c0,.2-.2,18.428,1.6,25.4,1.822,7.058,3.631,17.6,3.649,17.7Z" fill="#666"/>
      <path id="Trazado_108167" data-name="Trazado 108167" d="M1107.489,7934.724l-1-.012c0-.1.1-10.483-.725-14.811l.983-.187C1107.595,7924.14,1107.494,7934.293,1107.489,7934.724Z" fill="#666"/>
      <path id="Trazado_108168" data-name="Trazado 108168" d="M1100.031,7810.39l-.085-1,.043.5-.046-.5c.109-.011,2.657-.294,3.012-3.6.431-4.008.568-7.1-1.606-10.364l.833-.555c2.541,3.821,2.13,7.649,1.768,11.026C1103.505,7810.045,1100.066,7810.387,1100.031,7810.39Z" fill="#666"/>
      <path id="Trazado_108169" data-name="Trazado 108169" d="M1102.946,7808.509l-1-.043c.389-9.182-2.188-10.912-2.215-10.928l.5-.864C1100.556,7796.855,1103.36,7798.734,1102.946,7808.509Z" fill="#666"/>
    </g>
  </g>
</svg>
