<svg xmlns="http://www.w3.org/2000/svg" width="700.72" height="392.443" viewBox="0 0 700.72 392.443">
  <g id="Grupo_56276" data-name="Grupo 56276" transform="translate(-84.268 -7053.789)">
    <rect id="Rectángulo_10228" data-name="Rectángulo 10228" width="700.72" height="392.443" rx="35.411" transform="translate(84.268 7053.789)" fill="#fff"/>
    <g id="Grupo_56275" data-name="Grupo 56275">
      <g id="Grupo_56255" data-name="Grupo 56255">
        <g id="Grupo_56252" data-name="Grupo 56252">
          <path id="Trazado_108727" data-name="Trazado 108727" d="M212.85,7088.338c0-5.289-3.205-9.577-7.16-9.577s-7.159,4.288-7.159,9.577c0,4.136,1.964,7.65,4.71,8.99v14.586h5.409v-14.862C211.125,7095.544,212.85,7092.214,212.85,7088.338Z" fill="#fff"/>
          <path id="Trazado_108728" data-name="Trazado 108728" d="M209.65,7112.914h-7.409V7097.92c-2.84-1.716-4.71-5.472-4.71-9.582,0-5.832,3.66-10.577,8.159-10.577s8.16,4.745,8.16,10.577c0,3.847-1.632,7.4-4.2,9.25Zm-5.409-2h3.409V7096.49l.48-.293c2.26-1.376,3.72-4.461,3.72-7.859,0-4.729-2.764-8.577-6.16-8.577s-6.159,3.848-6.159,8.577c0,3.629,1.667,6.88,4.148,8.091l.562.273Z" fill="#999"/>
        </g>
        <g id="Grupo_56253" data-name="Grupo 56253">
          <rect id="Rectángulo_10229" data-name="Rectángulo 10229" width="16.79" height="2.8" rx="1.31" transform="translate(197.583 7090.321)" fill="#fff"/>
          <path id="Trazado_108729" data-name="Trazado 108729" d="M213.063,7094.121h-14.17a2.313,2.313,0,0,1-2.31-2.309v-.181a2.314,2.314,0,0,1,2.31-2.31h14.17a2.313,2.313,0,0,1,2.31,2.31v.181A2.312,2.312,0,0,1,213.063,7094.121Zm-14.17-2.8a.31.31,0,0,0-.31.31v.181a.31.31,0,0,0,.31.309h14.17a.31.31,0,0,0,.31-.309v-.181a.31.31,0,0,0-.31-.31Z" fill="#999"/>
        </g>
        <g id="Grupo_56254" data-name="Grupo 56254">
          <rect id="Rectángulo_10230" data-name="Rectángulo 10230" width="16.79" height="2.8" rx="1.31" transform="translate(197.583 7084.976)" fill="#fff"/>
          <path id="Trazado_108730" data-name="Trazado 108730" d="M213.063,7088.776h-14.17a2.314,2.314,0,0,1-2.31-2.31v-.181a2.313,2.313,0,0,1,2.31-2.309h14.17a2.312,2.312,0,0,1,2.31,2.309v.181A2.313,2.313,0,0,1,213.063,7088.776Zm-14.17-2.8a.309.309,0,0,0-.31.309v.181a.31.31,0,0,0,.31.31h14.17a.31.31,0,0,0,.31-.31v-.181a.309.309,0,0,0-.31-.309Z" fill="#999"/>
        </g>
      </g>
      <g id="Grupo_56256" data-name="Grupo 56256">
        <path id="Trazado_108731" data-name="Trazado 108731" d="M229.435,7310.314s-3.087-9.261-1.235-17.7c1.071-4.877,5.875-21.174,5.875-21.174h0l3.948-18.743s7.809-21.977,7.67-30.762-8.413-18.872-8.413-18.872l-14.689-27.889s-9.807-15.71-9.528-25.262,7.878-26.564,7.878-26.564h.837l2.37-6.485L189.427,7103.2l-3.347,6.554,1.959,1.278s-11.371,25.286-28.1,45.738-9.854,68.606-9.854,68.606l11.44,79.383.411,2.058v7.2l-16.67,36.427s-6.791,15.024-7.615,38.486-1.186,30.459-1.186,30.459l102.975,1.852,1.5-55.233s1.261-27.5-3.061-37.379C232.78,7316.99,229.435,7310.314,229.435,7310.314Z" fill="#fff"/>
        <path id="Trazado_108732" data-name="Trazado 108732" d="M240.408,7422.261l-105-1.889.054-1.033c0-.07.373-7.265,1.186-30.442.821-23.389,7.634-38.71,7.7-38.863l16.581-36.233v-6.887l-.392-1.96-11.449-79.436c-.283-1.986-6.748-48.826,10.071-69.382,14.826-18.123,25.55-40.341,27.608-44.739l-1.988-1.3,4.168-8.163,36.474,14.355-2.946,8.058H221.6c-1.325,3.071-7.293,17.337-7.534,25.594-.267,9.137,9.281,24.547,9.377,24.7l14.68,27.865c.848,1.052,8.435,10.7,8.574,19.409s-7.152,29.487-7.7,31.049l-3.964,18.79c-.493,1.675-4.842,16.493-5.847,21.07-1.691,7.705.927,16.288,1.187,17.107.369.743,3.653,7.385,8.425,18.295,4.365,9.977,3.2,36.692,3.144,37.825Zm-102.9-3.852,100.955,1.817,1.472-54.243c.013-.291,1.2-27.4-2.978-36.952-5.022-11.478-8.383-18.2-8.416-18.268l-.055-.132c-.129-.389-3.152-9.622-1.262-18.23,1.065-4.856,5.7-20.576,5.892-21.243l3.965-18.8c.078-.217,7.747-21.906,7.612-30.411-.132-8.328-8.106-18.154-8.187-18.253l-.111-.168-14.688-27.889c-.371-.588-9.928-16.015-9.644-25.757.281-9.64,7.652-26.241,7.965-26.943l.265-.592h.786l1.795-4.911L189.9,7104.461l-2.526,4.946,1.923,1.254-.351.781c-.114.253-11.618,25.64-28.243,45.96-16.261,19.876-9.706,67.355-9.638,67.832l11.439,79.381.422,2.2v7.42l-16.761,36.626c-.065.145-6.718,15.137-7.524,38.1C138,7407.379,137.633,7415.717,137.508,7418.409Z" fill="#999"/>
      </g>
      <path id="Trazado_108733" data-name="Trazado 108733" d="M143.843,7418.259h-2V7386a105.082,105.082,0,0,1,6.872-37.129l16-33.533.9-8.331-5.541-30.648-6.981-57.509c-.244-1.278-6.061-33.04,6.3-51.162,11.614-17.026,19.285-19.451,20.449-19.731,1.5-.654,15.565-6.056,30.007,14.988,13.423,19.557,16,25.011,16.375,25.882a152.579,152.579,0,0,0,14.858,17.9l-1.436,1.392a153.736,153.736,0,0,1-15.133-18.255l-.11-.21c-.07-.18-1.944-4.806-16.2-25.583-13.937-20.307-27.064-14.516-27.615-14.258l-.252.079c-.063.013-7.517,1.665-19.287,18.919-11.894,17.433-6.04,49.408-5.98,49.729l6.982,57.517,5.584,30.874-.963,8.956-16.126,33.8A103.058,103.058,0,0,0,143.843,7386Z" fill="#999"/>
      <path id="Trazado_108734" data-name="Trazado 108734" d="M232.412,7421.265l-2-.043.956-45.432c.006-.239.615-23.579.463-35-.144-10.829-6.052-22.7-6.5-23.581-.375-.558-2.78-4.384-3.371-11.387-.613-7.271,1.856-28.44,1.961-29.337.153-.741,3.444-16.058,7.924-24.264,4.7-8.6,10.834-20.38,12.016-23.271l1.851.758c-1.358,3.319-8.023,15.985-12.111,23.472-4.34,7.948-7.675,23.474-7.708,23.629-.011.126-2.536,21.774-1.94,28.846.578,6.85,3.032,10.432,3.057,10.467l.07.116c.269.518,6.594,12.846,6.75,24.525.152,11.464-.457,34.843-.464,35.078Z" fill="#999"/>
      <path id="Trazado_108735" data-name="Trazado 108735" d="M228.521,7188.575c-.065-.142-6.531-14.433-13.535-26.517-6.865-11.846-40.049-26.073-40.383-26.216l.783-1.84c1.39.592,34.135,14.637,41.331,27.054,7.055,12.173,13.562,26.554,13.627,26.7Z" fill="#999"/>
      <g id="Grupo_56257" data-name="Grupo 56257">
        <path id="Trazado_108736" data-name="Trazado 108736" d="M187.762,7111.088s21.683,8.959,33.179,12.261" fill="#fff"/>
        <path id="Trazado_108737" data-name="Trazado 108737" d="M220.666,7124.31c-11.418-3.28-33.069-12.208-33.286-12.3l.764-1.848c.216.089,21.763,8.975,33.073,12.224Z" fill="#999"/>
      </g>
      <rect id="Rectángulo_10231" data-name="Rectángulo 10231" width="86.322" height="2" transform="translate(185.522 7420.272) rotate(-88.993)" fill="#999"/>
      <rect id="Rectángulo_10232" data-name="Rectángulo 10232" width="12.468" height="1.999" transform="translate(184.72 7153.5) rotate(-64.048)" fill="#999"/>
      <path id="Trazado_108738" data-name="Trazado 108738" d="M181.728,7317.281a149.1,149.1,0,0,1-20.362-1.375l-.846-.131v-8.819l1.089.1c.226.02,22.769,2.014,36.667-.6,6.5-1.224,29.741-5.557,29.741-5.557l1.071-.2.8,8.065-.772.245c-.2.062-19.723,6.224-35.853,7.759C189.311,7317.14,185.393,7317.281,181.728,7317.281Zm-19.208-3.232a145.21,145.21,0,0,0,30.55.724c14.113-1.344,30.9-6.288,34.665-7.436l-.423-4.278c-4.637.864-23,4.29-28.666,5.356-12.569,2.369-31.376,1.1-36.126.723Z" fill="#999"/>
      <path id="Trazado_108739" data-name="Trazado 108739" d="M165.071,7315.2l-1.935-2.28,1.816-1.963-1.727-2.215.623-.485,2.139,2.743-1.8,1.942,1.482,1.748Z" fill="#999"/>
      <path id="Trazado_108740" data-name="Trazado 108740" d="M168.033,7315.833l-2.047-2.413,1.92-2.076L166.08,7309l.659-.514,2.262,2.9-1.9,2.054,1.568,1.849Z" fill="#999"/>
      <path id="Trazado_108741" data-name="Trazado 108741" d="M170.737,7315.833l-2.047-2.413,1.921-2.076L168.783,7309l.659-.514,2.262,2.9-1.9,2.054,1.568,1.849Z" fill="#999"/>
      <path id="Trazado_108742" data-name="Trazado 108742" d="M173.4,7316.287l-2.173-2.562,2.039-2.2-1.94-2.488.7-.545,2.4,3.082-2.016,2.182,1.665,1.963Z" fill="#999"/>
      <path id="Trazado_108743" data-name="Trazado 108743" d="M176.077,7316.287l-2.173-2.562,2.039-2.2-1.94-2.488.7-.545,2.4,3.082-2.016,2.182,1.665,1.963Z" fill="#999"/>
      <path id="Trazado_108744" data-name="Trazado 108744" d="M178.6,7316.544l-2.173-2.562,2.039-2.2-1.94-2.487.7-.545,2.4,3.082-2.016,2.181,1.665,1.963Z" fill="#999"/>
      <path id="Trazado_108745" data-name="Trazado 108745" d="M181.8,7316.544l-2.173-2.562,2.039-2.2-1.94-2.487.7-.545,2.4,3.082-2.016,2.181,1.665,1.963Z" fill="#999"/>
      <path id="Trazado_108746" data-name="Trazado 108746" d="M184.579,7316.544l-2.173-2.562,2.039-2.2-1.94-2.487.7-.545,2.4,3.082-2.016,2.181,1.665,1.963Z" fill="#999"/>
      <path id="Trazado_108747" data-name="Trazado 108747" d="M187.177,7316.544,185,7313.982l2.039-2.2-1.94-2.487.7-.545,2.4,3.082-2.016,2.181,1.665,1.963Z" fill="#999"/>
      <path id="Trazado_108748" data-name="Trazado 108748" d="M189.827,7316.416l-2.173-2.562,2.039-2.2-1.94-2.488.7-.545,2.4,3.082-2.016,2.182,1.665,1.963Z" fill="#999"/>
      <path id="Trazado_108749" data-name="Trazado 108749" d="M192.528,7316.416l-2.173-2.663,2.039-2.292-1.94-2.586.7-.567,2.4,3.2-2.016,2.268,1.665,2.041Z" fill="#999"/>
      <path id="Trazado_108750" data-name="Trazado 108750" d="M195.737,7315.833l-2.173-2.663,2.039-2.292-1.94-2.586.7-.567,2.4,3.2-2.016,2.268,1.665,2.041Z" fill="#999"/>
      <path id="Trazado_108751" data-name="Trazado 108751" d="M198.31,7315.575l-2.173-2.663,2.039-2.292-1.94-2.586.7-.567,2.4,3.2-2.016,2.268,1.665,2.041Z" fill="#999"/>
      <path id="Trazado_108752" data-name="Trazado 108752" d="M200.738,7315.292l-2.173-2.663,2.039-2.292-1.94-2.585.7-.567,2.4,3.2-2.016,2.267,1.665,2.041Z" fill="#999"/>
      <path id="Trazado_108753" data-name="Trazado 108753" d="M203.362,7314.958l-2.173-2.663,2.039-2.292-1.94-2.585.7-.567,2.4,3.2-2.016,2.268,1.665,2.041Z" fill="#999"/>
      <path id="Trazado_108754" data-name="Trazado 108754" d="M205.919,7314.459l-2.173-2.663,2.039-2.292-1.94-2.586.7-.567,2.4,3.2-2.016,2.268,1.665,2.041Z" fill="#999"/>
      <path id="Trazado_108755" data-name="Trazado 108755" d="M208.26,7313.945l-2.173-2.663,2.039-2.292-1.94-2.585.7-.567,2.4,3.2-2.016,2.267,1.665,2.041Z" fill="#999"/>
      <path id="Trazado_108756" data-name="Trazado 108756" d="M211.116,7313.135l-2.173-2.663,2.039-2.292-1.94-2.585.7-.567,2.4,3.2-2.016,2.268,1.665,2.041Z" fill="#999"/>
      <path id="Trazado_108757" data-name="Trazado 108757" d="M214.317,7312.518l-2.173-2.663,2.039-2.292-1.94-2.586.7-.567,2.4,3.2-2.016,2.268,1.665,2.041Z" fill="#999"/>
      <path id="Trazado_108758" data-name="Trazado 108758" d="M217.391,7311.72l-2.173-2.663,2.039-2.292-1.94-2.586.7-.567,2.4,3.2-2.016,2.268,1.665,2.041Z" fill="#999"/>
      <path id="Trazado_108759" data-name="Trazado 108759" d="M220.169,7311.239,218,7308.576l2.039-2.292-1.94-2.586.7-.567,2.4,3.2-2.016,2.268,1.665,2.041Z" fill="#999"/>
      <path id="Trazado_108760" data-name="Trazado 108760" d="M223.53,7310.406l-2.173-2.5,2.039-2.154-1.94-2.43.7-.533,2.4,3.011-2.016,2.131,1.665,1.918Z" fill="#999"/>
      <path id="Trazado_108761" data-name="Trazado 108761" d="M226.791,7309.1l-1.935-2.373,1.816-2.042-1.727-2.3.623-.5,2.139,2.854-1.8,2.02,1.482,1.818Z" fill="#999"/>
      <g id="Grupo_56258" data-name="Grupo 56258" opacity="0.43">
        <path id="Trazado_108762" data-name="Trazado 108762" d="M241.392,7199.45c-8.782-12.521-25.54-37.893-25.54-37.893a89.36,89.36,0,0,1-.808-11.368s-27.772-17.325-39.381-20.456c0,0-6.144,13.413-10.793,17.2s-14.826,24.348-14.826,24.348-4.963,14.358-3.916,38.783a350.762,350.762,0,0,0,4.743,44.217l7.647,43.435,2.265,9.474v5.459l-5.391,5.067s17.463,6.961,33.862,4.7,45.617-8.051,48.573-11.505l-5.391-5.416s-1.739-3.255-.348-10.559,5.739-37.044,10.783-52.87c0,0,6.695-16.174,6.825-21.739C249.7,7220.32,250.174,7211.972,241.392,7199.45Zm-52.695,20c-14.264,0-25.826-14.718-25.826-32.873S174.433,7153.7,188.7,7153.7s25.826,14.718,25.826,32.874S202.96,7219.45,188.7,7219.45Z" fill="#999"/>
        <path id="Trazado_108763" data-name="Trazado 108763" d="M182.432,7323.357c-14.04,0-27.074-5.121-27.225-5.181a.5.5,0,0,1-.157-.829l5.234-4.918v-5.185l-2.252-9.417-7.654-43.464a354.62,354.62,0,0,1-4.749-44.283c-1.04-24.239,3.892-38.822,3.942-38.967.442-.9,10.3-20.765,14.984-24.572,4.505-3.666,10.592-16.883,10.653-17.015a.5.5,0,0,1,.585-.275c11.548,3.113,38.379,19.806,39.516,20.515a.5.5,0,0,1,.235.438,87.808,87.808,0,0,0,.788,11.173c1.14,1.724,17.063,25.8,25.469,37.786,8.781,12.52,8.414,20.837,8.394,21.185-.13,5.578-6.588,21.238-6.862,21.9-3.963,12.441-7.572,33.986-9.511,45.562-.531,3.171-.951,5.676-1.243,7.211-1.234,6.481.06,9.707.271,10.172l5.332,5.357a.5.5,0,0,1,.025.678c-3.184,3.719-33.056,9.49-48.884,11.674A50.276,50.276,0,0,1,182.432,7323.357Zm-26.112-5.832c3.493,1.268,18.682,6.346,32.866,4.389,16.852-2.326,43.75-7.786,47.923-11.022l-5.027-5.051a.469.469,0,0,1-.087-.117c-.075-.139-1.806-3.5-.4-10.889.29-1.523.709-4.023,1.239-7.189,1.943-11.6,5.56-33.191,9.558-45.739.081-.2,6.676-16.19,6.8-21.6.006-.1.345-8.367-8.214-20.571-8.685-12.383-25.38-37.651-25.547-37.9a.488.488,0,0,1-.079-.208,90.662,90.662,0,0,1-.818-11.16c-2.726-1.687-27.553-16.946-38.6-20.135-1.066,2.278-6.458,13.493-10.751,16.988-4.513,3.67-14.593,23.976-14.694,24.181-.025.084-4.894,14.507-3.864,38.539a353.59,353.59,0,0,0,4.734,44.148l7.648,43.439,2.26,9.445a.521.521,0,0,1,.014.117v5.459a.5.5,0,0,1-.158.364ZM188.7,7219.95c-14.516,0-26.326-14.971-26.326-33.374s11.81-33.374,26.326-33.374,26.326,14.972,26.326,33.374S203.213,7219.95,188.7,7219.95Zm0-65.748c-13.965,0-25.326,14.523-25.326,32.374s11.361,32.374,25.326,32.374,25.326-14.522,25.326-32.374S202.662,7154.2,188.7,7154.2Z" fill="#4d4d4d"/>
      </g>
      <path id="Trazado_108764" data-name="Trazado 108764" d="M188.142,7208.308c-11.935,0-21.646-12.308-21.646-27.437s9.711-27.435,21.646-27.435,21.647,12.307,21.647,27.435S200.078,7208.308,188.142,7208.308Zm0-53.872c-11.384,0-20.646,11.859-20.646,26.435s9.262,26.437,20.646,26.437,20.647-11.86,20.647-26.437S199.526,7154.436,188.142,7154.436Z" fill="#4d4d4d" opacity="0.43"/>
      <g id="Grupo_56259" data-name="Grupo 56259" opacity="0.43">
        <path id="Trazado_108765" data-name="Trazado 108765" d="M174.994,7178.1l-13.3,10.062s-2.74,8.721,2.217,16.678,13.435,13.3,13.435,13.3,13.3,9,22.7,0a21.418,21.418,0,0,0,10.212-18.022l24.4-17.848s35.956-27.977,41.956-33.945,29.608-28.142,29.608-28.142l13.232-14.739s3.073-3.261.725-6.13-13.044-12.261-13.044-12.261-3.13-4.1-6.782-.683-31.7,27.031-31.7,27.031l-17.869,15.521-19.827,18.392-12.913,14.223s-5.138-1.8-9.025,1.966-10.488,9.115-10.488,9.115-2.921,12.913-5.139,10.826,9.652-14.608,3.261-12.782a97.693,97.693,0,0,0-13.179,5.087l20.223-11.74-11.218-8.478s1.435-14.673-8.217-7.206a20.072,20.072,0,0,0-7.7,18.424Z" fill="#999"/>
        <path id="Trazado_108766" data-name="Trazado 108766" d="M190.028,7222.618c-6.842,0-12.869-4-12.96-4.058-.072-.045-8.618-5.492-13.578-13.453-5.021-8.06-2.385-16.728-2.27-17.092a.491.491,0,0,1,.175-.249l13.132-9.937,1.534-11.071a20.74,20.74,0,0,1,7.895-18.822c2.71-2.1,4.893-2.713,6.488-1.832,2.929,1.619,2.659,7.783,2.556,9.2l11,8.313a.5.5,0,0,1-.05.831l-13.3,7.718c1.855-.706,3.884-1.413,5.866-1.979.741-.213,1.787-.415,2.306.264a1.421,1.421,0,0,1,.216,1.113c1.89-1.555,6.613-5.488,9.632-8.414a9.59,9.59,0,0,1,9.217-2.177l12.7-13.989,19.857-18.421,17.881-15.535c.287-.24,28.081-23.643,31.682-27.017a4.765,4.765,0,0,1,3.7-1.483,6.014,6.014,0,0,1,3.819,2.227c.37.313,10.686,9.38,13.033,12.248,2.077,2.539.419,5.552-.748,6.79l-13.224,14.731c-.265.252-23.7,22.267-29.628,28.162-5.953,5.921-40.532,32.842-42,33.985l-24.211,17.711a22.116,22.116,0,0,1-10.4,18.168A14.505,14.505,0,0,1,190.028,7222.618Zm-27.9-34.156c-.32,1.171-2.217,9.013,2.207,16.115,4.84,7.77,13.194,13.093,13.277,13.146.144.1,13.1,8.674,22.083.061a.493.493,0,0,1,.109-.078,21.093,21.093,0,0,0,9.949-17.591.5.5,0,0,1,.2-.394l24.4-17.848c.348-.27,35.989-28.018,41.9-33.9,5.936-5.905,29.383-27.93,29.619-28.152l13.2-14.709c.121-.129,2.748-2.989.71-5.48-2.295-2.805-12.88-12.108-12.987-12.2a5.183,5.183,0,0,0-3.18-1.91,3.812,3.812,0,0,0-2.931,1.216c-3.619,3.392-31.434,26.812-31.715,27.048l-17.863,15.518L231.3,7147.686l-12.882,14.193a.5.5,0,0,1-.535.136,8.675,8.675,0,0,0-8.513,1.853c-3.553,3.443-9.426,8.252-10.387,9.035-.485,2.114-2.553,10.556-4.737,11.223a1.185,1.185,0,0,1-1.194-.311c-1.287-1.212.472-4.118,2.508-7.482,1.075-1.775,2.874-4.747,2.471-5.275-.046-.06-.358-.159-1.237.09a97.8,97.8,0,0,0-13.1,5.057.5.5,0,0,1-.467-.884l19.572-11.36-10.617-8.025a.5.5,0,0,1-.2-.448c.19-1.951.2-7.284-2.022-8.509-1.211-.672-3.026-.082-5.391,1.748a19.729,19.729,0,0,0-7.51,17.939.51.51,0,0,1,0,.156l-1.572,11.349a.5.5,0,0,1-.193.33Zm35.218-13.179c-.285.489-.6,1.011-.936,1.568-1.345,2.221-3.377,5.578-2.678,6.235.119.113.175.1.216.084C194.94,7182.867,196.339,7178.975,197.349,7175.283Zm-22.355,2.82h0Z" fill="#4d4d4d"/>
      </g>
      <path id="Trazado_108767" data-name="Trazado 108767" d="M205.347,7197.025a.5.5,0,0,1-.255-.93c23.382-13.872,106.1-87.065,106.93-87.8a.5.5,0,1,1,.664.748c-.834.738-83.621,73.993-107.084,87.913A.5.5,0,0,1,205.347,7197.025Z" fill="#4d4d4d" opacity="0.43"/>
      <path id="Trazado_108768" data-name="Trazado 108768" d="M173.614,7201.109a2.8,2.8,0,0,1-.611-.065,2.512,2.512,0,0,1-1.7-1.358c-1.486-2.785,5.992-9.227,7.7-10.649.439-.761,3.63-6,9.191-7.8,1.9-.615,3.133-.539,3.772.236,1.062,1.284-.292,3.845-.449,4.132a.6.6,0,0,1-.044.067c-.422.541-10.29,13.159-14.652,14.244A6.322,6.322,0,0,1,173.614,7201.109Zm16.714-19.28a6.278,6.278,0,0,0-1.828.358c-5.491,1.775-8.639,7.362-8.67,7.419a.526.526,0,0,1-.119.143c-3.625,3-8.357,7.916-7.53,9.466a1.536,1.536,0,0,0,1.037.853,4.715,4.715,0,0,0,3.092-1.018.5.5,0,0,1,.2-.089c3.267-.681,11.3-10.212,14.15-13.872.4-.742,1.027-2.39.537-2.98A1.094,1.094,0,0,0,190.328,7181.829Zm.749,3.534h0Z" fill="#4d4d4d" opacity="0.52"/>
      <path id="Trazado_108769" data-name="Trazado 108769" d="M166.715,7190.944a7.022,7.022,0,0,1-2-.235.5.5,0,0,1,.3-.953c.077.022,6.42,1.836,16.379-7.026,5.938-5.286,7.728-5.193,8.558-4.664,1.146.729.589,2.723.522,2.949a.5.5,0,0,1-.959-.286c.177-.6.266-1.587-.1-1.82-.3-.193-1.734-.436-7.355,4.567C174.844,7189.9,169.45,7190.944,166.715,7190.944Z" fill="#4d4d4d" opacity="0.52"/>
      <g id="Grupo_56260" data-name="Grupo 56260" opacity="0.43">
        <path id="Trazado_108770" data-name="Trazado 108770" d="M319.45,7102.059s-11.71,3.13-14.493-1.044-4-5.022-3.13-9.293,1.568-6.705,1.568-6.705l2.4.823,9.134,8.261,5.243,5.219S321.338,7101.632,319.45,7102.059Z" fill="#999"/>
        <path id="Trazado_108771" data-name="Trazado 108771" d="M311.313,7103.684c-2.807,0-5.542-.546-6.772-2.391-.391-.588-.752-1.109-1.08-1.583-2-2.892-2.913-4.213-2.124-8.088.864-4.242,1.57-6.719,1.577-6.743a.5.5,0,0,1,.249-.306.5.5,0,0,1,.394-.029l2.4.823a.511.511,0,0,1,.174.1l9.134,8.262,5.259,5.234a.528.528,0,0,1,.1.13,3.234,3.234,0,0,1,.229,2.494,1.762,1.762,0,0,1-1.281.955A36.337,36.337,0,0,1,311.313,7103.684Zm-7.576-18.022c-.245.922-.79,3.064-1.42,6.159-.7,3.458-.031,4.431,1.967,7.32.33.478.694,1,1.09,1.6,2.118,3.178,10.785,1.682,13.947.837l.019,0c.463-.1.571-.334.607-.409a2.227,2.227,0,0,0-.186-1.55l-5.181-5.156-9.041-8.177Z" fill="#4d4d4d"/>
      </g>
      <g id="Grupo_56264" data-name="Grupo 56264">
        <g id="Grupo_56261" data-name="Grupo 56261">
          <path id="Trazado_108772" data-name="Trazado 108772" d="M455.389,7088.338c0-5.289-3.205-9.577-7.159-9.577s-7.159,4.288-7.159,9.577c0,4.136,1.963,7.65,4.709,8.99v14.586h5.409v-14.862C453.665,7095.544,455.389,7092.214,455.389,7088.338Z" fill="#fff"/>
          <path id="Trazado_108773" data-name="Trazado 108773" d="M452.189,7112.914H444.78V7097.92c-2.84-1.716-4.71-5.472-4.71-9.582,0-5.832,3.66-10.577,8.159-10.577s8.16,4.745,8.16,10.577c0,3.847-1.632,7.4-4.2,9.25Zm-5.409-2h3.409V7096.49l.48-.293c2.26-1.376,3.72-4.461,3.72-7.859,0-4.729-2.764-8.577-6.16-8.577s-6.159,3.848-6.159,8.577c0,3.628,1.667,6.88,4.148,8.091l.562.273Z" fill="#999"/>
        </g>
        <g id="Grupo_56262" data-name="Grupo 56262">
          <rect id="Rectángulo_10233" data-name="Rectángulo 10233" width="16.79" height="2.8" rx="1.31" transform="translate(440.123 7090.321)" fill="#fff"/>
          <path id="Trazado_108774" data-name="Trazado 108774" d="M455.6,7094.121H441.432a2.312,2.312,0,0,1-2.309-2.309v-.181a2.313,2.313,0,0,1,2.309-2.31H455.6a2.313,2.313,0,0,1,2.309,2.31v.181A2.312,2.312,0,0,1,455.6,7094.121Zm-14.171-2.8a.31.31,0,0,0-.309.31v.181a.309.309,0,0,0,.309.309H455.6a.309.309,0,0,0,.309-.309v-.181a.31.31,0,0,0-.309-.31Z" fill="#999"/>
        </g>
        <g id="Grupo_56263" data-name="Grupo 56263">
          <rect id="Rectángulo_10234" data-name="Rectángulo 10234" width="16.79" height="2.8" rx="1.31" transform="translate(440.123 7084.976)" fill="#fff"/>
          <path id="Trazado_108775" data-name="Trazado 108775" d="M455.6,7088.776H441.432a2.313,2.313,0,0,1-2.309-2.31v-.181a2.312,2.312,0,0,1,2.309-2.309H455.6a2.312,2.312,0,0,1,2.309,2.309v.181A2.313,2.313,0,0,1,455.6,7088.776Zm-14.171-2.8a.308.308,0,0,0-.309.309v.181a.309.309,0,0,0,.309.31H455.6a.31.31,0,0,0,.309-.31v-.181a.309.309,0,0,0-.309-.309Z" fill="#999"/>
        </g>
      </g>
      <g id="Grupo_56265" data-name="Grupo 56265">
        <path id="Trazado_108776" data-name="Trazado 108776" d="M471.974,7310.314s-3.087-9.261-1.235-17.7c1.071-4.877,5.875-21.174,5.875-21.174h0l3.948-18.743s7.809-21.977,7.67-30.762-8.413-18.872-8.413-18.872l-14.688-27.889s-9.808-15.71-9.529-25.262,7.879-26.564,7.879-26.564h.836l2.371-6.485L431.966,7103.2l-3.347,6.554,1.959,1.278s-11.371,25.286-28.1,45.738-9.854,68.606-9.854,68.606l11.439,79.383.411,2.058v7.2l-16.67,36.427s-6.791,15.024-7.614,38.486S379,7419.391,379,7419.391l102.976,1.852,1.5-55.233s1.26-27.5-3.062-37.379C475.319,7316.99,471.974,7310.314,471.974,7310.314Z" fill="#fff"/>
        <path id="Trazado_108777" data-name="Trazado 108777" d="M482.947,7422.261l-105-1.889.053-1.033c0-.07.373-7.265,1.186-30.442.821-23.389,7.634-38.71,7.7-38.863l16.582-36.233v-6.887l-.392-1.96-11.449-79.436c-.284-1.986-6.749-48.826,10.07-69.382,14.827-18.123,25.55-40.341,27.608-44.739l-1.988-1.3,4.168-8.163,36.474,14.355-2.945,8.058h-.882c-1.325,3.071-7.292,17.337-7.533,25.594-.267,9.137,9.281,24.547,9.377,24.7l14.678,27.865c.849,1.052,8.436,10.7,8.575,19.409s-7.152,29.487-7.7,31.049l-3.964,18.79c-.493,1.675-4.842,16.493-5.847,21.071-1.691,7.7.927,16.287,1.187,17.106.369.743,3.653,7.385,8.425,18.295,4.365,9.977,3.2,36.692,3.145,37.825Zm-102.9-3.852L481,7420.226l1.472-54.243c.013-.291,1.2-27.4-2.978-36.952-5.022-11.478-8.383-18.2-8.416-18.268l-.055-.132c-.129-.389-3.152-9.622-1.262-18.23,1.066-4.856,5.7-20.576,5.892-21.243l3.965-18.8c.078-.217,7.747-21.906,7.612-30.411-.132-8.328-8.106-18.154-8.187-18.253l-.111-.168-14.688-27.889c-.371-.588-9.928-16.015-9.643-25.757.281-9.64,7.651-26.241,7.964-26.943l.265-.592h.786l1.8-4.911-32.97-12.977-2.525,4.946,1.922,1.254-.351.781c-.114.253-11.617,25.64-28.242,45.96-16.268,19.882-9.707,67.355-9.639,67.832l11.44,79.381.422,2.2v7.42l-16.762,36.626c-.064.145-6.718,15.137-7.524,38.1C380.539,7407.379,380.173,7415.717,380.047,7418.409Z" fill="#999"/>
      </g>
      <path id="Trazado_108778" data-name="Trazado 108778" d="M386.382,7418.259h-2V7386a105.108,105.108,0,0,1,6.872-37.129l16-33.533.9-8.331-5.541-30.648-6.981-57.509c-.244-1.278-6.06-33.04,6.3-51.162,11.614-17.026,19.285-19.451,20.449-19.731,1.5-.653,15.566-6.058,30.008,14.988,13.422,19.557,16,25.011,16.374,25.882a152.58,152.58,0,0,0,14.858,17.9l-1.436,1.392a153.738,153.738,0,0,1-15.133-18.255l-.109-.21c-.071-.18-1.945-4.806-16.2-25.583-13.937-20.308-27.064-14.514-27.615-14.258l-.252.079c-.063.013-7.517,1.665-19.287,18.919-11.893,17.433-6.04,49.408-5.98,49.729l6.983,57.517,5.584,30.874-.963,8.956-16.127,33.8A103.058,103.058,0,0,0,386.382,7386Z" fill="#999"/>
      <path id="Trazado_108779" data-name="Trazado 108779" d="M474.951,7421.265l-2-.043.956-45.432c.006-.239.615-23.579.463-35-.144-10.829-6.052-22.7-6.5-23.581-.375-.558-2.78-4.384-3.371-11.387-.613-7.271,1.856-28.44,1.961-29.337.153-.741,3.444-16.058,7.925-24.264,4.7-8.6,10.833-20.38,12.016-23.271l1.851.758c-1.358,3.319-8.023,15.985-12.112,23.472-4.34,7.948-7.675,23.474-7.708,23.629-.011.126-2.536,21.774-1.939,28.846.577,6.85,3.032,10.432,3.057,10.467l.07.116c.269.518,6.593,12.846,6.749,24.525.153,11.464-.457,34.843-.464,35.078Z" fill="#999"/>
      <path id="Trazado_108780" data-name="Trazado 108780" d="M471.06,7188.575c-.065-.142-6.531-14.433-13.535-26.517-6.862-11.843-40.048-26.073-40.383-26.216l.783-1.84c1.391.592,34.135,14.637,41.331,27.054,7.056,12.173,13.562,26.554,13.627,26.7Z" fill="#999"/>
      <g id="Grupo_56266" data-name="Grupo 56266">
        <path id="Trazado_108781" data-name="Trazado 108781" d="M430.3,7111.088s21.684,8.959,33.18,12.261" fill="#fff"/>
        <path id="Trazado_108782" data-name="Trazado 108782" d="M463.2,7124.31c-11.418-3.28-33.068-12.208-33.286-12.3l.764-1.848c.216.089,21.764,8.975,33.073,12.224Z" fill="#999"/>
      </g>
      <rect id="Rectángulo_10235" data-name="Rectángulo 10235" width="86.322" height="2" transform="translate(428.061 7420.272) rotate(-88.993)" fill="#999"/>
      <rect id="Rectángulo_10236" data-name="Rectángulo 10236" width="12.468" height="1.999" transform="translate(427.259 7153.5) rotate(-64.048)" fill="#999"/>
      <path id="Trazado_108783" data-name="Trazado 108783" d="M424.267,7317.281a149.052,149.052,0,0,1-20.361-1.375l-.847-.131v-8.819l1.09.1c.226.02,22.768,2.014,36.666-.6,6.5-1.224,29.741-5.557,29.741-5.557l1.071-.2.8,8.065-.772.245c-.2.062-19.723,6.224-35.853,7.759C431.85,7317.14,427.932,7317.281,424.267,7317.281Zm-19.208-3.232a145.182,145.182,0,0,0,30.551.724c14.107-1.343,30.9-6.288,34.664-7.436l-.423-4.278c-4.638.865-23,4.29-28.665,5.356-12.569,2.37-31.376,1.1-36.127.723Z" fill="#999"/>
      <path id="Trazado_108784" data-name="Trazado 108784" d="M407.61,7315.2l-1.935-2.28,1.816-1.963-1.727-2.215.623-.485,2.139,2.743-1.8,1.942,1.482,1.748Z" fill="#999"/>
      <path id="Trazado_108785" data-name="Trazado 108785" d="M410.572,7315.833l-2.047-2.413,1.921-2.076L408.619,7309l.659-.514,2.262,2.9-1.9,2.054,1.568,1.849Z" fill="#999"/>
      <path id="Trazado_108786" data-name="Trazado 108786" d="M413.276,7315.833l-2.047-2.413,1.921-2.076L411.323,7309l.659-.514,2.262,2.9-1.9,2.054,1.568,1.849Z" fill="#999"/>
      <path id="Trazado_108787" data-name="Trazado 108787" d="M415.94,7316.287l-2.173-2.562,2.039-2.2-1.94-2.488.7-.545,2.4,3.082-2.016,2.182,1.665,1.963Z" fill="#999"/>
      <path id="Trazado_108788" data-name="Trazado 108788" d="M418.617,7316.287l-2.173-2.562,2.039-2.2-1.94-2.488.7-.545,2.4,3.082-2.016,2.182,1.665,1.963Z" fill="#999"/>
      <path id="Trazado_108789" data-name="Trazado 108789" d="M421.138,7316.544l-2.173-2.562,2.039-2.2-1.94-2.487.7-.545,2.4,3.082-2.016,2.181,1.665,1.963Z" fill="#999"/>
      <path id="Trazado_108790" data-name="Trazado 108790" d="M424.339,7316.544l-2.173-2.562,2.039-2.2-1.94-2.487.7-.545,2.4,3.082-2.016,2.181,1.665,1.963Z" fill="#999"/>
      <path id="Trazado_108791" data-name="Trazado 108791" d="M427.118,7316.544l-2.173-2.562,2.039-2.2-1.94-2.487.7-.545,2.4,3.082-2.016,2.181,1.665,1.963Z" fill="#999"/>
      <path id="Trazado_108792" data-name="Trazado 108792" d="M429.716,7316.544l-2.173-2.562,2.039-2.2-1.94-2.487.7-.545,2.4,3.082-2.016,2.181,1.665,1.963Z" fill="#999"/>
      <path id="Trazado_108793" data-name="Trazado 108793" d="M432.366,7316.416l-2.173-2.562,2.039-2.2-1.94-2.488.7-.545,2.4,3.082-2.016,2.182,1.665,1.963Z" fill="#999"/>
      <path id="Trazado_108794" data-name="Trazado 108794" d="M435.067,7316.416l-2.173-2.663,2.039-2.292-1.94-2.586.7-.567,2.4,3.2-2.016,2.268,1.665,2.041Z" fill="#999"/>
      <path id="Trazado_108795" data-name="Trazado 108795" d="M438.277,7315.833l-2.173-2.663,2.039-2.292-1.94-2.586.7-.567,2.4,3.2-2.016,2.268,1.665,2.041Z" fill="#999"/>
      <path id="Trazado_108796" data-name="Trazado 108796" d="M440.849,7315.575l-2.173-2.663,2.039-2.292-1.94-2.586.7-.567,2.4,3.2-2.016,2.268,1.665,2.041Z" fill="#999"/>
      <path id="Trazado_108797" data-name="Trazado 108797" d="M443.277,7315.292l-2.173-2.663,2.039-2.292-1.94-2.585.7-.567,2.4,3.2-2.016,2.267,1.665,2.041Z" fill="#999"/>
      <path id="Trazado_108798" data-name="Trazado 108798" d="M445.9,7314.958l-2.173-2.663,2.039-2.292-1.94-2.585.7-.567,2.4,3.2-2.016,2.268,1.665,2.041Z" fill="#999"/>
      <path id="Trazado_108799" data-name="Trazado 108799" d="M448.458,7314.459l-2.173-2.663,2.039-2.292-1.94-2.586.7-.567,2.4,3.2-2.016,2.268,1.665,2.041Z" fill="#999"/>
      <path id="Trazado_108800" data-name="Trazado 108800" d="M450.8,7313.945l-2.173-2.663,2.039-2.292-1.94-2.585.7-.567,2.4,3.2-2.016,2.267,1.665,2.041Z" fill="#999"/>
      <path id="Trazado_108801" data-name="Trazado 108801" d="M453.655,7313.135l-2.173-2.663,2.039-2.292-1.94-2.585.7-.567,2.4,3.2-2.016,2.268,1.665,2.041Z" fill="#999"/>
      <path id="Trazado_108802" data-name="Trazado 108802" d="M456.857,7312.518l-2.173-2.663,2.039-2.292-1.94-2.586.7-.567,2.4,3.2-2.016,2.268,1.665,2.041Z" fill="#999"/>
      <path id="Trazado_108803" data-name="Trazado 108803" d="M459.93,7311.72l-2.173-2.663,2.039-2.292-1.94-2.586.7-.567,2.4,3.2-2.016,2.268,1.665,2.041Z" fill="#999"/>
      <path id="Trazado_108804" data-name="Trazado 108804" d="M462.708,7311.239l-2.173-2.663,2.039-2.292-1.94-2.586.7-.567,2.4,3.2-2.016,2.268,1.665,2.041Z" fill="#999"/>
      <path id="Trazado_108805" data-name="Trazado 108805" d="M466.07,7310.406l-2.173-2.5,2.039-2.154-1.94-2.43.7-.533,2.4,3.011-2.016,2.131,1.665,1.918Z" fill="#999"/>
      <path id="Trazado_108806" data-name="Trazado 108806" d="M469.33,7309.1l-1.935-2.373,1.816-2.042-1.727-2.3.623-.5,2.139,2.854-1.8,2.02,1.482,1.818Z" fill="#999"/>
      <g id="Grupo_56267" data-name="Grupo 56267" opacity="0.43">
        <path id="Trazado_108807" data-name="Trazado 108807" d="M483.931,7199.45c-8.782-12.521-25.54-37.893-25.54-37.893a89.237,89.237,0,0,1-.807-11.368s-28.319-17.544-39.927-20.675c0,0-7.333,13.762-11.982,17.545s-15.12,30.522-15.12,30.522-2.3,8.835-1.25,33.261a416.861,416.861,0,0,0,4.105,43.434l7.647,43.435,2.266,9.474v5.459l-5.392,5.067s17.463,6.961,33.862,4.7,45.617-8.051,48.573-11.505l-5.391-5.416s-1.739-3.255-.348-10.559,5.739-37.044,10.783-52.87c0,0,6.7-16.174,6.826-21.739C492.236,7220.32,492.713,7211.972,483.931,7199.45Zm-52.7,20c-14.264,0-25.826-14.718-25.826-32.873s11.562-32.874,25.826-32.874,25.826,14.718,25.826,32.874S445.5,7219.45,431.236,7219.45Z" fill="#999"/>
        <path id="Trazado_108808" data-name="Trazado 108808" d="M424.971,7323.357c-14.04,0-27.074-5.121-27.225-5.181a.5.5,0,0,1-.157-.829l5.234-4.918v-5.185l-2.252-9.417-7.654-43.464a421.174,421.174,0,0,1-4.111-43.5c-1.039-24.221,1.17-33.044,1.265-33.409.448-1.153,10.591-26.962,15.288-30.783,4.519-3.676,11.784-17.256,11.856-17.393a.5.5,0,0,1,.572-.247c11.546,3.115,38.9,20.016,40.06,20.734a.5.5,0,0,1,.236.439,87.811,87.811,0,0,0,.788,11.173c1.14,1.724,17.063,25.8,25.469,37.786,8.781,12.52,8.414,20.837,8.394,21.185-.13,5.578-6.588,21.238-6.862,21.9-3.962,12.438-7.57,33.979-9.509,45.552-.532,3.176-.952,5.684-1.245,7.221-1.234,6.481.06,9.707.271,10.172l5.332,5.357a.5.5,0,0,1,.025.678c-3.184,3.719-33.056,9.49-48.884,11.674A50.276,50.276,0,0,1,424.971,7323.357Zm-26.112-5.832c3.493,1.268,18.682,6.346,32.866,4.389,16.852-2.326,43.75-7.786,47.923-11.022l-5.027-5.051a.469.469,0,0,1-.087-.117c-.075-.139-1.806-3.5-.4-10.889.29-1.524.71-4.028,1.241-7.2,1.942-11.6,5.559-33.185,9.556-45.73.081-.2,6.676-16.19,6.8-21.6.006-.1.345-8.367-8.214-20.571-8.685-12.383-25.38-37.651-25.547-37.9a.489.489,0,0,1-.079-.208,90.643,90.643,0,0,1-.818-11.159c-2.762-1.7-28.118-17.182-39.169-20.362-1.207,2.23-7.608,13.838-11.918,17.343-4.494,3.658-14.865,30.05-14.97,30.317,0,.031-2.246,9.028-1.215,33.057a420.548,420.548,0,0,0,4.1,43.377l7.646,43.427,2.26,9.445a.521.521,0,0,1,.014.117v5.459a.5.5,0,0,1-.158.364Zm32.377-97.575c-14.516,0-26.326-14.971-26.326-33.374s11.81-33.374,26.326-33.374,26.326,14.972,26.326,33.374S445.752,7219.95,431.236,7219.95Zm0-65.748c-13.965,0-25.326,14.523-25.326,32.374s11.361,32.374,25.326,32.374,25.326-14.522,25.326-32.374S445.2,7154.2,431.236,7154.2Z" fill="#4d4d4d"/>
      </g>
      <path id="Trazado_108809" data-name="Trazado 108809" d="M430.682,7208.308c-11.936,0-21.647-12.308-21.647-27.437s9.711-27.435,21.647-27.435,21.646,12.307,21.646,27.435S442.617,7208.308,430.682,7208.308Zm0-53.872c-11.385,0-20.647,11.859-20.647,26.435s9.262,26.437,20.647,26.437,20.646-11.86,20.646-26.437S442.066,7154.436,430.682,7154.436Z" fill="#4d4d4d" opacity="0.43"/>
      <g id="Grupo_56272" data-name="Grupo 56272">
        <path id="Trazado_108810" data-name="Trazado 108810" d="M424.512,7302.064l-.22-1.989c.162-.017,16.264-1.807,26.193-3.862l10.091-2.087.4,1.959-10.091,2.087C440.869,7300.245,424.675,7302.045,424.512,7302.064Z" fill="#999"/>
        <g id="Grupo_56271" data-name="Grupo 56271">
          <g id="Grupo_56269" data-name="Grupo 56269">
            <path id="Trazado_108811" data-name="Trazado 108811" d="M465.141,7393.15a279.6,279.6,0,0,1-13.389-38.317c-.784-2.812-1.4-5.034-2.009-6.771-2.334-6.7-10.805-48.161-11.164-49.923l-5.183-50.788-2.164-28.2-3.952-63.475,2-.125,3.951,63.461,2.161,28.163,5.166,50.664c.072.332,8.788,43,11.078,49.566.626,1.8,1.253,4.046,2.047,6.893a277.593,277.593,0,0,0,13.3,38.066Z" fill="#999"/>
            <path id="Trazado_108812" data-name="Trazado 108812" d="M457.465,7397.8c-3.189,0-5.752-.419-6.042-1.323l-.28-.875.9-.419c1.247-.518,11.094-2.577,13.056-2.985,12.447-2.586,12.456-2.567,12.859-1.6l.385.921-1.005.44c-.076.045-.2.152-.373.289-1.145.908-3.825,3.033-10.684,4.608A41.919,41.919,0,0,1,457.465,7397.8Zm-4.651-.771Zm19.521-4.254c-4.178.815-10.256,2.085-14.532,3.038a36.268,36.268,0,0,0,8.033-.9A32.359,32.359,0,0,0,472.335,7392.779Z" fill="#999"/>
            <g id="Grupo_56268" data-name="Grupo 56268" opacity="0.43">
              <path id="Trazado_108813" data-name="Trazado 108813" d="M433.645,7333.271l11.732,42.788,5.5,17.837.868,2.178h.5l24.953-5.33.975-.721-9.094-52.975-8.3-43.582-8.2-118.821s-4.621-20.872-24.3-19.828-21.468,29.966-21.468,29.966l6.783,49.943,10.809,68.728Z" fill="#ccc"/>
              <path id="Trazado_108814" data-name="Trazado 108814" d="M452.244,7396.573h-.5a.5.5,0,0,1-.465-.314l-.867-2.178-5.51-17.875-11.733-42.794-9.241-29.809-10.826-68.8-6.785-49.955c.015-.392,2.044-29.478,21.938-30.532,19.863-1.087,24.768,20.006,24.815,20.218l8.211,118.9,8.291,43.522,9.1,52.985a.5.5,0,0,1-.2.487l-.975.72a.506.506,0,0,1-.193.087l-24.953,5.33A.615.615,0,0,1,452.244,7396.573Zm-.164-1h.111l24.8-5.3.64-.473-9.042-52.671-8.3-43.573-8.208-118.881c-.035-.13-4.742-20.389-23.775-19.363-19.014,1.008-20.978,29.212-21,29.5l6.78,49.845,10.807,68.717,9.227,29.747.005.017,11.732,42.787,5.491,17.821Z" fill="#4d4d4d"/>
            </g>
          </g>
          <g id="Grupo_56270" data-name="Grupo 56270" opacity="0.43">
            <line id="Línea_254" data-name="Línea 254" x1="43.469" y2="6.869" transform="translate(411.733 7212.653)" fill="#999"/>
            <path id="Trazado_108815" data-name="Trazado 108815" d="M411.733,7220.022a.5.5,0,0,1-.078-.994l43.469-6.87a.507.507,0,0,1,.572.416.5.5,0,0,1-.416.573l-43.468,6.869A.548.548,0,0,1,411.733,7220.022Z" fill="#4d4d4d"/>
          </g>
        </g>
      </g>
      <g id="Grupo_56273" data-name="Grupo 56273" opacity="0.43">
        <path id="Trazado_108816" data-name="Trazado 108816" d="M485.222,7385.437s-30.006,13.447-36.394,10.637l-9.233-33.333-12.329-42.261-6.524-18.18s-4.1-10.5-4.506-28.116-1.563-36.393-3.2-43.57-7.639-11.428-7.639-11.428-12.261-10.358-13.3-15.054-6.782-10.956-12.521-17.739-3.913-4.417-3.913-4.417,16.348-11.175,25.13-7.292,20.437,4.144,26.479,8.318,21.241,7.161,24.859,5.928a30.633,30.633,0,0,0,6.058-2.8l.7,23.739,1.673,55.566-.778,4.174s4.013,6.782,3.074,21.565,3.2,19.415,3.2,19.415l13.8,60.358Z" fill="#999"/>
        <path id="Trazado_108817" data-name="Trazado 108817" d="M451.189,7396.944a6.5,6.5,0,0,1-2.563-.413.5.5,0,0,1-.28-.324l-9.233-33.332-12.327-42.256-6.515-18.15c-.036-.093-4.132-10.771-4.535-28.274-.459-19.93-1.71-36.994-3.189-43.47-1.578-6.91-7.382-11.09-7.441-11.131-.539-.453-12.435-10.548-13.5-15.354-.894-4.023-5.513-9.433-10.4-15.161q-1-1.169-2.013-2.363c-2.114-2.5-3.146-3.689-3.647-4.253a.5.5,0,0,1-.279-.181c-.292-.379-.594-.769-.194-1.093.189-.155.3-.245.7.11,2.623-1.727,16.948-10.725,25.218-7.072a69.33,69.33,0,0,0,12.8,3.712c5.333,1.188,10.371,2.31,13.761,4.652,6.048,4.177,20.979,7.04,24.414,5.865a30.36,30.36,0,0,0,5.949-2.745.5.5,0,0,1,.77.406l2.378,79.3a.539.539,0,0,1-.008.106l-.745,4c.622,1.157,3.917,8,3.047,21.682-.91,14.325,3.04,19.007,3.08,19.053a.5.5,0,0,1,.113.22l13.8,60.357,5.338,14.426a.5.5,0,0,1-.264.63C484.315,7386.391,460.646,7396.944,451.189,7396.944Zm-1.946-1.244c6.12,2.145,31.713-8.931,35.347-10.531l-5.194-14.047-13.8-60.3c-.624-.79-4.12-5.869-3.243-19.674.917-14.422-2.965-21.213-3-21.281a.5.5,0,0,1-.062-.345l.769-4.121-2.352-78.4a32.668,32.668,0,0,1-5.421,2.409c-4.033,1.377-19.329-1.862-25.3-5.99-3.23-2.23-8.175-3.332-13.411-4.5a70.082,70.082,0,0,1-12.986-3.774c-7.547-3.334-21.2,5.019-24.1,6.888.67.739,1.727,1.988,3.464,4.04q1.01,1.192,2.009,2.362c4.974,5.824,9.671,11.326,10.62,15.593,1,4.478,13.017,14.677,13.138,14.78a21.52,21.52,0,0,1,7.8,11.7c1.813,7.942,2.864,28.488,3.214,43.67.4,17.312,4.431,27.842,4.472,27.946l6.529,18.193,12.338,42.291Z" fill="#4d4d4d"/>
      </g>
      <path id="Trazado_108818" data-name="Trazado 108818" d="M454.981,7291.371a.49.49,0,0,1-.179-.033.5.5,0,0,1-.288-.645l1.6-4.174c.045-.092,1.441-2.62.119-3.9-1.059-1.021-3.689.754-4.527,1.458l-2.52,2.609a4.758,4.758,0,0,1-2.675,1.894,1.842,1.842,0,0,1-1.463-.464c-1.746-1.516.451-6.024.708-6.533a43.665,43.665,0,0,1,6.923-7.153c3.542-2.74,6.8-5.22,6.8-5.22a.5.5,0,0,1,.606.795s-3.256,2.478-6.794,5.216a44.174,44.174,0,0,0-6.691,6.89c-.845,1.7-1.729,4.527-.9,5.249a.823.823,0,0,0,.692.227,3.928,3.928,0,0,0,2.026-1.541l2.6-2.7c.439-.372,4.013-3.27,5.9-1.447s.162,4.91.088,5.041l-1.569,4.106A.5.5,0,0,1,454.981,7291.371Z" fill="#4d4d4d"/>
      <path id="Trazado_108819" data-name="Trazado 108819" d="M435.292,7295.606a.5.5,0,0,1-.461-.308c-.019-.043-1.111-2.406-6.013-2.885a44.2,44.2,0,0,0-10.6.446.5.5,0,1,1-.177-.985,44.893,44.893,0,0,1,10.878-.457c5.577.545,6.791,3.38,6.84,3.5a.5.5,0,0,1-.276.652A.489.489,0,0,1,435.292,7295.606Z" fill="#4d4d4d"/>
      <path id="Trazado_108820" data-name="Trazado 108820" d="M405.368,7217.676h-.106a.5.5,0,0,1-.5-.5.533.533,0,0,1,.5-.5c.148-.017,14.94.03,22.761-4.457a148.679,148.679,0,0,0,14.16-9.268c.143-.121,4.051-3.415,6.357-1.735a2.3,2.3,0,0,1,.876,2.406c-.351,1.9-2.593,4.322-6.2,5.3a.5.5,0,1,1-.261-.965c3.174-.858,5.191-2.966,5.477-4.513a1.315,1.315,0,0,0-.481-1.416c-1.391-1.015-4.182.887-5.141,1.705a149.42,149.42,0,0,1-14.289,9.356C420.739,7217.555,406.836,7217.676,405.368,7217.676Z" fill="#4d4d4d"/>
      <path id="Trazado_108821" data-name="Trazado 108821" d="M414.265,7229.545a.5.5,0,0,1-.078-.994c.127-.02,12.761-2.057,18.064-5.82a82.351,82.351,0,0,0,9.882-8.418c.413-.469,4.247-4.689,6.438-2.869a2.055,2.055,0,0,1,.637,1.9c-.252,2.648-3.429,6.848-5.615,8.051a.5.5,0,0,1-.482-.877c1.922-1.057,4.885-4.994,5.1-7.269a1.145,1.145,0,0,0-.281-1.038c-1.231-1.025-4.143,1.732-5.066,2.779a83.265,83.265,0,0,1-10.035,8.555c-5.5,3.9-17.96,5.908-18.488,5.992A.524.524,0,0,1,414.265,7229.545Z" fill="#4d4d4d"/>
      <path id="Trazado_108822" data-name="Trazado 108822" d="M450.177,7193.452a.5.5,0,0,1-.048-1c.663-.063,1.316-.152,1.941-.265a.5.5,0,1,1,.178.984c-.652.117-1.333.211-2.023.277Zm-7.981-.248a.4.4,0,0,1-.068,0c-.966-.13-1.973-.3-2.991-.5a.5.5,0,1,1,.193-.98c1,.195,1.985.36,2.933.489a.5.5,0,0,1-.067,1Zm-4.918-.913a.476.476,0,0,1-.113-.013,75.017,75.017,0,0,1-7.733-2.265.5.5,0,0,1,.33-.944,74.065,74.065,0,0,0,7.629,2.235.5.5,0,0,1-.113.987Zm-10.5-3.289a.516.516,0,0,1-.18-.033c-.659-.255-1.284-.506-1.87-.749a.5.5,0,0,1,.382-.924c.579.239,1.2.488,1.848.739a.5.5,0,0,1-.18.967Zm-9.18-4.014a.5.5,0,0,1-.192-.038c-.747-.31-1.682-.69-2.776-1.117a.5.5,0,1,1,.364-.931c1.1.43,2.044.812,2.8,1.125a.5.5,0,0,1-.192.961Zm-36.724-.182a.5.5,0,0,1-.3-.9A36.607,36.607,0,0,1,387.7,7180a.5.5,0,1,1,.383.924,36.363,36.363,0,0,0-6.907,3.786A.491.491,0,0,1,380.875,7184.806Zm32.07-1.655a.474.474,0,0,1-.176-.033c-2.517-.946-5.052-1.826-7.536-2.616a.5.5,0,0,1,.3-.953c2.5.8,5.052,1.682,7.585,2.634a.5.5,0,0,1-.176.968Zm-23.188-2.9a.5.5,0,0,1-.162-.972,28.613,28.613,0,0,1,2.935-.844.5.5,0,0,1,.222.974,27.744,27.744,0,0,0-2.832.815A.514.514,0,0,1,389.757,7180.249Zm12.758-.6a.491.491,0,0,1-.141-.021l-.64-.186q-.623-.182-1.25-.3a.5.5,0,0,1-.4-.586.508.508,0,0,1,.586-.4q.672.131,1.34.324l.642.188a.5.5,0,0,1-.141.98Z" fill="#4d4d4d"/>
      <path id="Trazado_108823" data-name="Trazado 108823" d="M405.675,7208.876h-.033c-13.739-.9-26.473-14.338-27.008-14.909a.5.5,0,1,1,.73-.684c.128.137,13,13.719,26.344,14.595a.5.5,0,0,1-.033,1Z" fill="#4d4d4d"/>
      <path id="Trazado_108824" data-name="Trazado 108824" d="M424.583,7227.142a.5.5,0,0,1-.459-.3l-2.752-6.373a.466.466,0,0,1-.034-.109c-.005-.03-.742-3.381-7.242-5.711-6.955-2.494-18.163-15.252-18.637-15.794a.5.5,0,0,1,.753-.659c.115.131,11.51,13.1,18.222,15.511,6.683,2.4,7.748,5.874,7.875,6.409l2.733,6.33a.5.5,0,0,1-.459.7Z" fill="#4d4d4d"/>
      <path id="Trazado_108825" data-name="Trazado 108825" d="M458.889,7210.371a.5.5,0,0,1-.266-.924l46.243-29a.5.5,0,0,1,.531.848l-46.243,29A.5.5,0,0,1,458.889,7210.371Z" fill="#4d4d4d"/>
      <g id="Grupo_56274" data-name="Grupo 56274">
        <path id="Trazado_108826" data-name="Trazado 108826" d="M532.921,7137.38v7.3h-4.035v-20.12H536.9a7.932,7.932,0,0,1,5.459,1.768,6.428,6.428,0,0,1,0,9.3,7.963,7.963,0,0,1-5.459,1.755Zm0-3.108h3.98a3.362,3.362,0,0,0,2.557-.919,3.274,3.274,0,0,0,.87-2.343,3.425,3.425,0,0,0-.863-2.4,3.3,3.3,0,0,0-2.564-.946h-3.98Z"/>
        <path id="Trazado_108827" data-name="Trazado 108827" d="M551.231,7126.146H547.2v-3.027h4.035Zm0,18.531H547.2v-14.952h4.035Z"/>
        <path id="Trazado_108828" data-name="Trazado 108828" d="M558.238,7129.725l.179,2.141a5.475,5.475,0,0,1,1.838-1.782,4.771,4.771,0,0,1,2.446-.636,4.5,4.5,0,0,1,3.538,1.424,6.573,6.573,0,0,1,1.271,4.463v9.342h-4.049v-9.35a3.038,3.038,0,0,0-.607-2.139,2.448,2.448,0,0,0-1.838-.63,3.112,3.112,0,0,0-1.438.325,2.971,2.971,0,0,0-1.064.921v10.873h-4.035v-14.952Z"/>
        <path id="Trazado_108829" data-name="Trazado 108829" d="M579.3,7144.677a8.241,8.241,0,0,1-.38-1.078,7.485,7.485,0,0,1-.228-1.16,5.561,5.561,0,0,1-1.638,1.809,4.082,4.082,0,0,1-2.425.719,5.047,5.047,0,0,1-3.621-1.209,4.332,4.332,0,0,1-1.271-3.3,3.94,3.94,0,0,1,1.693-3.406,8.452,8.452,0,0,1,4.94-1.209h2.253v-1.189a2.326,2.326,0,0,0-.567-1.672,2.647,2.647,0,0,0-3.185-.118,1.682,1.682,0,0,0-.532,1.321l-3.9-.014-.014-.083a3.8,3.8,0,0,1,1.644-3.269,7.164,7.164,0,0,1,4.575-1.375A6.679,6.679,0,0,1,581,7130.81a4.712,4.712,0,0,1,1.672,3.876v6.176a11.68,11.68,0,0,0,.159,1.977,9.945,9.945,0,0,0,.5,1.838Zm-3.69-2.694a3.453,3.453,0,0,0,1.893-.526,2.74,2.74,0,0,0,1.12-1.216v-2.114h-2.253a2.688,2.688,0,0,0-1.948.643,2.082,2.082,0,0,0-.664,1.554,1.556,1.556,0,0,0,.5,1.2A1.929,1.929,0,0,0,575.608,7141.983Z"/>
        <path id="Trazado_108830" data-name="Trazado 108830" d="M593.586,7133.194l-1.478-.042a2.694,2.694,0,0,0-1.479.373,2.362,2.362,0,0,0-.884,1.05v10.1h-4.021v-14.952h3.744l.18,2.211a4.714,4.714,0,0,1,1.361-1.831,3.174,3.174,0,0,1,2.488-.608c.17.032.343.072.518.117Z"/>
        <path id="Trazado_108831" data-name="Trazado 108831" d="M608.954,7141.858a2.385,2.385,0,0,0,1.727-.625,2.208,2.208,0,0,0,.649-1.669h3.662l.042.083a4.665,4.665,0,0,1-1.707,3.794,7.2,7.2,0,0,1-9.528-.588,8.055,8.055,0,0,1-1.81-5.431v-.415a8.112,8.112,0,0,1,1.8-5.431,6.375,6.375,0,0,1,5.147-2.128,6.281,6.281,0,0,1,4.457,1.576,5.237,5.237,0,0,1,1.638,4.145l-.028.083H611.33a2.921,2.921,0,0,0-.636-1.928,2.156,2.156,0,0,0-1.755-.766,2.342,2.342,0,0,0-2.259,1.242,6.834,6.834,0,0,0-.656,3.2v.414a6.818,6.818,0,0,0,.656,3.222A2.364,2.364,0,0,0,608.954,7141.858Z"/>
        <path id="Trazado_108832" data-name="Trazado 108832" d="M616.706,7137.063a8.029,8.029,0,0,1,1.865-5.48,6.506,6.506,0,0,1,5.169-2.135,6.575,6.575,0,0,1,5.2,2.128,7.987,7.987,0,0,1,1.879,5.487v.29a8,8,0,0,1-1.873,5.493,7.392,7.392,0,0,1-10.364,0,8,8,0,0,1-1.872-5.493Zm4.021.283a6.478,6.478,0,0,0,.719,3.277,2.763,2.763,0,0,0,4.608-.007,6.44,6.44,0,0,0,.726-3.27v-.29a6.37,6.37,0,0,0-.733-3.242,2.478,2.478,0,0,0-2.307-1.256,2.448,2.448,0,0,0-2.287,1.262,6.435,6.435,0,0,0-.726,3.236Z"/>
        <path id="Trazado_108833" data-name="Trazado 108833" d="M641.386,7140.559a1.41,1.41,0,0,0-.642-1.147,6.562,6.562,0,0,0-2.384-.857,9.609,9.609,0,0,1-4-1.6,3.466,3.466,0,0,1-1.347-2.882,4.117,4.117,0,0,1,1.624-3.281,6.59,6.59,0,0,1,4.346-1.348,7.137,7.137,0,0,1,4.553,1.341,3.958,3.958,0,0,1,1.624,3.386l-.028.082h-3.9a1.971,1.971,0,0,0-.573-1.465,2.754,2.754,0,0,0-3.22-.09,1.509,1.509,0,0,0-.56,1.2,1.358,1.358,0,0,0,.588,1.132,6.4,6.4,0,0,0,2.384.788,9.671,9.671,0,0,1,4.1,1.624,3.569,3.569,0,0,1,1.34,2.95,3.93,3.93,0,0,1-1.727,3.3,7.488,7.488,0,0,1-4.561,1.278,6.932,6.932,0,0,1-4.719-1.513,4.23,4.23,0,0,1-1.651-3.448l.027-.083h3.69a2.1,2.1,0,0,0,.788,1.741,3.247,3.247,0,0,0,1.948.539,2.805,2.805,0,0,0,1.707-.442A1.426,1.426,0,0,0,641.386,7140.559Z"/>
        <path id="Trazado_108834" data-name="Trazado 108834" d="M652.69,7126.063v3.662h2.515v2.833H652.69v7.614a1.76,1.76,0,0,0,.359,1.243,1.281,1.281,0,0,0,.968.374,3.557,3.557,0,0,0,.545-.035,4.687,4.687,0,0,0,.533-.117l.345,2.916a8.081,8.081,0,0,1-1.189.31,7.035,7.035,0,0,1-1.257.1,4.3,4.3,0,0,1-3.213-1.147,5.025,5.025,0,0,1-1.126-3.634v-7.628h-2.183v-2.833h2.183v-3.662Z"/>
        <path id="Trazado_108835" data-name="Trazado 108835" d="M666.91,7142.522a5.03,5.03,0,0,1-1.755,1.809,5.175,5.175,0,0,1-6.142-.877,6.984,6.984,0,0,1-1.334-4.706v-9.023H661.7v9.072a3.879,3.879,0,0,0,.553,2.348,1.938,1.938,0,0,0,1.631.713,4.011,4.011,0,0,0,1.658-.312,2.8,2.8,0,0,0,1.133-.921v-10.9h4.035v14.952h-3.44Z"/>
        <path id="Trazado_108836" data-name="Trazado 108836" d="M681.613,7133.194l-1.478-.042a2.7,2.7,0,0,0-1.479.373,2.37,2.37,0,0,0-.885,1.05v10.1H673.75v-14.952h3.745l.18,2.211a4.714,4.714,0,0,1,1.361-1.831,3.172,3.172,0,0,1,2.487-.608c.171.032.344.072.518.117Z"/>
        <path id="Trazado_108837" data-name="Trazado 108837" d="M692.434,7144.677a8.233,8.233,0,0,1-.38-1.078,7.485,7.485,0,0,1-.228-1.16,5.561,5.561,0,0,1-1.638,1.809,4.082,4.082,0,0,1-2.425.719,5.045,5.045,0,0,1-3.621-1.209,4.328,4.328,0,0,1-1.271-3.3,3.942,3.942,0,0,1,1.692-3.406,8.457,8.457,0,0,1,4.941-1.209h2.252v-1.189a2.33,2.33,0,0,0-.566-1.672,2.648,2.648,0,0,0-3.186-.118,1.685,1.685,0,0,0-.531,1.321l-3.9-.014-.014-.083a3.8,3.8,0,0,1,1.644-3.269,7.163,7.163,0,0,1,4.574-1.375,6.677,6.677,0,0,1,4.353,1.362,4.71,4.71,0,0,1,1.673,3.876v6.176a11.676,11.676,0,0,0,.158,1.977,9.868,9.868,0,0,0,.505,1.838Zm-3.69-2.694a3.456,3.456,0,0,0,1.893-.526,2.732,2.732,0,0,0,1.119-1.216v-2.114H689.5a2.688,2.688,0,0,0-1.948.643,2.078,2.078,0,0,0-.664,1.554,1.556,1.556,0,0,0,.5,1.2A1.929,1.929,0,0,0,688.744,7141.983Z"/>
        <path id="Trazado_108838" data-name="Trazado 108838" d="M712.526,7144.967a6.732,6.732,0,0,1-5.168-2.072,7.414,7.414,0,0,1-1.935-5.266v-.553a8.186,8.186,0,0,1,1.831-5.486,6.827,6.827,0,0,1,9.612-.317,7.019,7.019,0,0,1,1.672,4.933v2.2H709.61l-.027.083a3.878,3.878,0,0,0,.988,2.422,3.088,3.088,0,0,0,2.384.95,7.748,7.748,0,0,0,2.225-.27,10.222,10.222,0,0,0,1.934-.85l1.092,2.494a7.449,7.449,0,0,1-2.391,1.243A10.368,10.368,0,0,1,712.526,7144.967Zm-.359-12.409a2.1,2.1,0,0,0-1.769.856,4.459,4.459,0,0,0-.8,2.253l.041.069h4.947v-.359a3.238,3.238,0,0,0-.6-2.053A2.169,2.169,0,0,0,712.167,7132.558Z"/>
        <path id="Trazado_108839" data-name="Trazado 108839" d="M724.576,7129.725l.18,2.141a5.467,5.467,0,0,1,1.838-1.782,4.768,4.768,0,0,1,2.446-.636,4.5,4.5,0,0,1,3.538,1.424,6.573,6.573,0,0,1,1.271,4.463v9.342H729.8v-9.35a3.038,3.038,0,0,0-.608-2.139,2.446,2.446,0,0,0-1.838-.63,3.112,3.112,0,0,0-1.438.325,2.968,2.968,0,0,0-1.063.921v10.873h-4.036v-14.952Z"/>
        <path id="Trazado_108840" data-name="Trazado 108840" d="M532.8,7178.639h-4.035v-21.558H532.8Z"/>
        <path id="Trazado_108841" data-name="Trazado 108841" d="M544.889,7178.639a8.283,8.283,0,0,1-.38-1.078,7.492,7.492,0,0,1-.228-1.16,5.561,5.561,0,0,1-1.638,1.809,4.082,4.082,0,0,1-2.425.719,5.047,5.047,0,0,1-3.621-1.209,4.334,4.334,0,0,1-1.271-3.3,3.941,3.941,0,0,1,1.693-3.406,8.452,8.452,0,0,1,4.94-1.209h2.252v-1.189a2.329,2.329,0,0,0-.566-1.672,2.648,2.648,0,0,0-3.186-.118,1.685,1.685,0,0,0-.531,1.321l-3.9-.014-.014-.083a3.8,3.8,0,0,1,1.644-3.269,7.166,7.166,0,0,1,4.574-1.375,6.672,6.672,0,0,1,4.353,1.362,4.711,4.711,0,0,1,1.673,3.876v6.176a11.674,11.674,0,0,0,.158,1.977,9.9,9.9,0,0,0,.505,1.838Zm-3.69-2.7a3.452,3.452,0,0,0,1.893-.525,2.732,2.732,0,0,0,1.119-1.216v-2.114h-2.252a2.69,2.69,0,0,0-1.948.643,2.08,2.08,0,0,0-.664,1.554,1.552,1.552,0,0,0,.5,1.2A1.925,1.925,0,0,0,541.2,7175.944Z"/>
        <path id="Trazado_108842" data-name="Trazado 108842" d="M566.446,7174.521a1.408,1.408,0,0,0-.642-1.147,6.562,6.562,0,0,0-2.384-.857,9.6,9.6,0,0,1-4-1.6,3.466,3.466,0,0,1-1.347-2.882,4.116,4.116,0,0,1,1.624-3.281,6.592,6.592,0,0,1,4.346-1.348,7.137,7.137,0,0,1,4.553,1.341,3.959,3.959,0,0,1,1.624,3.386l-.028.082h-3.9a1.971,1.971,0,0,0-.573-1.465,2.754,2.754,0,0,0-3.22-.09,1.509,1.509,0,0,0-.56,1.2,1.36,1.36,0,0,0,.588,1.132,6.394,6.394,0,0,0,2.384.787,9.7,9.7,0,0,1,4.1,1.624,3.573,3.573,0,0,1,1.34,2.951,3.93,3.93,0,0,1-1.727,3.3,7.488,7.488,0,0,1-4.561,1.278,6.932,6.932,0,0,1-4.719-1.513,4.232,4.232,0,0,1-1.651-3.448l.028-.083h3.689a2.1,2.1,0,0,0,.788,1.741,3.247,3.247,0,0,0,1.948.539,2.805,2.805,0,0,0,1.707-.442A1.426,1.426,0,0,0,566.446,7174.521Z"/>
        <path id="Trazado_108843" data-name="Trazado 108843" d="M577.2,7160.108h-4.035v-3.027H577.2Zm0,18.531h-4.035v-14.952H577.2Z"/>
        <path id="Trazado_108844" data-name="Trazado 108844" d="M588.6,7174.521a1.408,1.408,0,0,0-.642-1.147,6.569,6.569,0,0,0-2.384-.857,9.6,9.6,0,0,1-4-1.6,3.466,3.466,0,0,1-1.347-2.882,4.116,4.116,0,0,1,1.624-3.281,6.59,6.59,0,0,1,4.346-1.348,7.138,7.138,0,0,1,4.553,1.341,3.964,3.964,0,0,1,1.624,3.386l-.028.082h-3.9a1.971,1.971,0,0,0-.573-1.465,2.754,2.754,0,0,0-3.22-.09,1.509,1.509,0,0,0-.56,1.2,1.36,1.36,0,0,0,.588,1.132,6.394,6.394,0,0,0,2.383.787,9.685,9.685,0,0,1,4.1,1.624,3.571,3.571,0,0,1,1.341,2.951,3.93,3.93,0,0,1-1.727,3.3,7.488,7.488,0,0,1-4.561,1.278,6.93,6.93,0,0,1-4.719-1.513,4.229,4.229,0,0,1-1.651-3.448l.027-.083h3.69a2.1,2.1,0,0,0,.787,1.741,3.25,3.25,0,0,0,1.949.539,2.805,2.805,0,0,0,1.707-.442A1.426,1.426,0,0,0,588.6,7174.521Z"/>
        <path id="Trazado_108845" data-name="Trazado 108845" d="M603.882,7178.639a8.265,8.265,0,0,1-.38-1.078,7.485,7.485,0,0,1-.228-1.16,5.561,5.561,0,0,1-1.638,1.809,4.082,4.082,0,0,1-2.425.719,5.049,5.049,0,0,1-3.621-1.209,4.334,4.334,0,0,1-1.271-3.3,3.941,3.941,0,0,1,1.693-3.406,8.452,8.452,0,0,1,4.94-1.209h2.253v-1.189a2.325,2.325,0,0,0-.567-1.672,2.646,2.646,0,0,0-3.185-.118,1.683,1.683,0,0,0-.532,1.321l-3.9-.014-.014-.083a3.8,3.8,0,0,1,1.644-3.269,7.167,7.167,0,0,1,4.575-1.375,6.674,6.674,0,0,1,4.353,1.362,4.714,4.714,0,0,1,1.672,3.876v6.176a11.672,11.672,0,0,0,.159,1.977,9.976,9.976,0,0,0,.5,1.838Zm-3.69-2.7a3.453,3.453,0,0,0,1.893-.525,2.741,2.741,0,0,0,1.12-1.216v-2.114h-2.253a2.69,2.69,0,0,0-1.948.643,2.084,2.084,0,0,0-.664,1.554,1.551,1.551,0,0,0,.5,1.2A1.925,1.925,0,0,0,600.192,7175.944Z"/>
        <path id="Trazado_108846" data-name="Trazado 108846" d="M618.392,7174.521a1.409,1.409,0,0,0-.643-1.147,6.554,6.554,0,0,0-2.384-.857,9.6,9.6,0,0,1-4-1.6,3.464,3.464,0,0,1-1.348-2.882,4.119,4.119,0,0,1,1.624-3.281,6.594,6.594,0,0,1,4.346-1.348,7.141,7.141,0,0,1,4.554,1.341,3.96,3.96,0,0,1,1.623,3.386l-.027.082h-3.9a1.972,1.972,0,0,0-.574-1.465,2.754,2.754,0,0,0-3.22-.09,1.508,1.508,0,0,0-.559,1.2,1.359,1.359,0,0,0,.587,1.132,6.394,6.394,0,0,0,2.384.787,9.7,9.7,0,0,1,4.1,1.624,3.573,3.573,0,0,1,1.34,2.951,3.927,3.927,0,0,1-1.727,3.3,7.487,7.487,0,0,1-4.56,1.278,6.935,6.935,0,0,1-4.72-1.513,4.232,4.232,0,0,1-1.651-3.448l.028-.083h3.689a2.1,2.1,0,0,0,.788,1.741,3.248,3.248,0,0,0,1.949.539,2.8,2.8,0,0,0,1.706-.442A1.424,1.424,0,0,0,618.392,7174.521Z"/>
        <path id="Trazado_108847" data-name="Trazado 108847" d="M631.326,7171.287a9.717,9.717,0,0,1,1.527-5.707,4.959,4.959,0,0,1,4.3-2.17,4.174,4.174,0,0,1,2.017.484,4.86,4.86,0,0,1,1.576,1.382v-8.195H644.8v21.558h-3.469l-.331-1.824a4.96,4.96,0,0,1-1.666,1.575,4.43,4.43,0,0,1-2.2.539,5.055,5.055,0,0,1-4.277-2.018,8.613,8.613,0,0,1-1.527-5.334Zm4.022.292a6.16,6.16,0,0,0,.663,3.108,2.3,2.3,0,0,0,2.155,1.132,3.129,3.129,0,0,0,1.521-.354,2.813,2.813,0,0,0,1.064-1.035v-6.409a3.111,3.111,0,0,0-1.057-1.1,2.8,2.8,0,0,0-1.5-.4,2.275,2.275,0,0,0-2.162,1.32,7.507,7.507,0,0,0-.684,3.448Z"/>
        <path id="Trazado_108848" data-name="Trazado 108848" d="M654.542,7178.929a6.735,6.735,0,0,1-5.168-2.072,7.413,7.413,0,0,1-1.935-5.266v-.553a8.18,8.18,0,0,1,1.831-5.486,6.826,6.826,0,0,1,9.611-.317,7.016,7.016,0,0,1,1.672,4.933v2.2h-8.927l-.027.082a3.873,3.873,0,0,0,.987,2.423,3.088,3.088,0,0,0,2.384.949,7.747,7.747,0,0,0,2.225-.269,10.228,10.228,0,0,0,1.935-.85l1.092,2.494a7.46,7.46,0,0,1-2.391,1.243A10.372,10.372,0,0,1,654.542,7178.929Zm-.359-12.409a2.1,2.1,0,0,0-1.769.856,4.467,4.467,0,0,0-.8,2.253l.042.069H656.6v-.359a3.238,3.238,0,0,0-.6-2.053A2.17,2.17,0,0,0,654.183,7166.52Z"/>
        <path id="Trazado_108849" data-name="Trazado 108849" d="M676.39,7171.577a8.742,8.742,0,0,1-1.493,5.348,5.046,5.046,0,0,1-4.312,2,4.573,4.573,0,0,1-2.273-.546,4.694,4.694,0,0,1-1.651-1.6l-.3,1.852H662.9v-21.558h4.021v8.195a4.573,4.573,0,0,1,1.555-1.382,4.339,4.339,0,0,1,2.08-.484,4.953,4.953,0,0,1,4.339,2.149,9.865,9.865,0,0,1,1.493,5.728Zm-4.022-.289a7.874,7.874,0,0,0-.642-3.482,2.254,2.254,0,0,0-2.191-1.286,3,3,0,0,0-1.589.4,2.746,2.746,0,0,0-1.023,1.133v6.366a2.569,2.569,0,0,0,1.03,1.043,3.3,3.3,0,0,0,1.61.361,2.292,2.292,0,0,0,2.184-1.1,6.479,6.479,0,0,0,.621-3.136Z"/>
        <path id="Trazado_108850" data-name="Trazado 108850" d="M687.652,7178.639a8.583,8.583,0,0,1-.38-1.078,7.492,7.492,0,0,1-.228-1.16,5.548,5.548,0,0,1-1.637,1.809,4.088,4.088,0,0,1-2.426.719,5.045,5.045,0,0,1-3.62-1.209,4.33,4.33,0,0,1-1.271-3.3,3.942,3.942,0,0,1,1.692-3.406,8.457,8.457,0,0,1,4.941-1.209h2.252v-1.189a2.329,2.329,0,0,0-.566-1.672,2.647,2.647,0,0,0-3.186-.118,1.686,1.686,0,0,0-.532,1.321l-3.9-.014-.013-.083a3.8,3.8,0,0,1,1.644-3.269A7.164,7.164,0,0,1,685,7163.41a6.674,6.674,0,0,1,4.353,1.362,4.711,4.711,0,0,1,1.672,3.876v6.176a11.678,11.678,0,0,0,.159,1.977,9.976,9.976,0,0,0,.5,1.838Zm-3.689-2.7a3.455,3.455,0,0,0,1.893-.525,2.732,2.732,0,0,0,1.119-1.216v-2.114h-2.252a2.693,2.693,0,0,0-1.949.643,2.083,2.083,0,0,0-.663,1.554,1.554,1.554,0,0,0,.5,1.2A1.93,1.93,0,0,0,683.963,7175.944Z"/>
        <path id="Trazado_108851" data-name="Trazado 108851" d="M698.431,7163.687v15.5a5.562,5.562,0,0,1-1.4,4.055,5.173,5.173,0,0,1-3.883,1.431,7.83,7.83,0,0,1-1.976-.235l.194-3.082a5.209,5.209,0,0,0,.635.125,5.3,5.3,0,0,0,.677.041,1.494,1.494,0,0,0,1.258-.574,2.879,2.879,0,0,0,.442-1.761v-15.5Zm-.083-3.607H694.3v-3h4.049Z"/>
        <path id="Trazado_108852" data-name="Trazado 108852" d="M700.96,7171.025a8.025,8.025,0,0,1,1.866-5.48,6.5,6.5,0,0,1,5.168-2.135,6.575,6.575,0,0,1,5.2,2.128,7.987,7.987,0,0,1,1.879,5.487v.29a8,8,0,0,1-1.872,5.493,7.391,7.391,0,0,1-10.364,0,7.99,7.99,0,0,1-1.873-5.493Zm4.021.283a6.487,6.487,0,0,0,.719,3.277,2.765,2.765,0,0,0,4.609-.007,6.452,6.452,0,0,0,.725-3.27v-.29a6.378,6.378,0,0,0-.732-3.242,2.481,2.481,0,0,0-2.308-1.256,2.448,2.448,0,0,0-2.287,1.262,6.432,6.432,0,0,0-.726,3.236Z"/>
        <path id="Trazado_108853" data-name="Trazado 108853" d="M527.933,7205.248a9.715,9.715,0,0,1,1.526-5.707,4.963,4.963,0,0,1,4.3-2.17,4.183,4.183,0,0,1,2.018.484,4.866,4.866,0,0,1,1.575,1.381v-8.194h4.049V7212.6h-3.469l-.331-1.824a4.963,4.963,0,0,1-1.665,1.575,4.433,4.433,0,0,1-2.2.539,5.057,5.057,0,0,1-4.278-2.018,8.613,8.613,0,0,1-1.526-5.334Zm4.021.292a6.16,6.16,0,0,0,.663,3.108,2.307,2.307,0,0,0,2.156,1.132,3.122,3.122,0,0,0,1.52-.354,2.81,2.81,0,0,0,1.064-1.035v-6.409a3.1,3.1,0,0,0-1.057-1.1,2.788,2.788,0,0,0-1.5-.4,2.276,2.276,0,0,0-2.163,1.32,7.507,7.507,0,0,0-.684,3.448Z"/>
        <path id="Trazado_108854" data-name="Trazado 108854" d="M551.148,7212.89a6.735,6.735,0,0,1-5.168-2.072,7.413,7.413,0,0,1-1.935-5.266V7205a8.182,8.182,0,0,1,1.831-5.486,6.828,6.828,0,0,1,9.612-.318,7.025,7.025,0,0,1,1.672,4.934v2.2h-8.928l-.027.082a3.878,3.878,0,0,0,.988,2.423,3.088,3.088,0,0,0,2.384.949,7.771,7.771,0,0,0,2.225-.269,10.285,10.285,0,0,0,1.934-.85l1.092,2.493a7.451,7.451,0,0,1-2.391,1.244A10.368,10.368,0,0,1,551.148,7212.89Zm-.359-12.409a2.1,2.1,0,0,0-1.768.856,4.45,4.45,0,0,0-.8,2.253l.041.069h4.948v-.359a3.238,3.238,0,0,0-.6-2.053A2.165,2.165,0,0,0,550.789,7200.481Z"/>
        <path id="Trazado_108855" data-name="Trazado 108855" d="M563.751,7212.6h-4.035v-21.558h4.035Z"/>
        <path id="Trazado_108856" data-name="Trazado 108856" d="M587.6,7205.538a8.745,8.745,0,0,1-1.493,5.348,5.046,5.046,0,0,1-4.311,2,4.573,4.573,0,0,1-2.273-.546,4.687,4.687,0,0,1-1.651-1.6l-.3,1.852h-3.454v-21.558h4.021v8.194a4.587,4.587,0,0,1,1.554-1.381,4.345,4.345,0,0,1,2.08-.484,4.952,4.952,0,0,1,4.339,2.149,9.864,9.864,0,0,1,1.493,5.728Zm-4.021-.289a7.873,7.873,0,0,0-.643-3.482,2.252,2.252,0,0,0-2.19-1.286,2.984,2.984,0,0,0-1.589.4,2.745,2.745,0,0,0-1.023,1.133v6.366a2.569,2.569,0,0,0,1.029,1.043,3.3,3.3,0,0,0,1.61.361,2.292,2.292,0,0,0,2.184-1.1,6.466,6.466,0,0,0,.622-3.136Z"/>
        <path id="Trazado_108857" data-name="Trazado 108857" d="M597.953,7201.116l-1.478-.042a2.7,2.7,0,0,0-1.479.373,2.373,2.373,0,0,0-.885,1.051v10.1H590.09v-14.952h3.745l.18,2.211a4.7,4.7,0,0,1,1.361-1.831,3.172,3.172,0,0,1,2.487-.608q.257.048.518.117Z"/>
        <path id="Trazado_108858" data-name="Trazado 108858" d="M608.773,7212.6a8.419,8.419,0,0,1-.379-1.078,7.362,7.362,0,0,1-.228-1.161,5.556,5.556,0,0,1-1.638,1.81,4.085,4.085,0,0,1-2.425.719,5.052,5.052,0,0,1-3.621-1.209,4.33,4.33,0,0,1-1.271-3.3,3.942,3.942,0,0,1,1.692-3.406,8.457,8.457,0,0,1,4.941-1.209H608.1v-1.189a2.328,2.328,0,0,0-.566-1.672,2.648,2.648,0,0,0-3.186-.118,1.685,1.685,0,0,0-.532,1.32l-3.9-.013-.014-.083a3.8,3.8,0,0,1,1.644-3.269,7.164,7.164,0,0,1,4.574-1.375,6.677,6.677,0,0,1,4.353,1.362,4.711,4.711,0,0,1,1.673,3.876v6.176a11.684,11.684,0,0,0,.158,1.977,9.894,9.894,0,0,0,.505,1.838Zm-3.689-2.7a3.455,3.455,0,0,0,1.893-.525,2.737,2.737,0,0,0,1.119-1.216v-2.114h-2.252a2.689,2.689,0,0,0-1.948.643,2.08,2.08,0,0,0-.664,1.554,1.556,1.556,0,0,0,.5,1.2A1.931,1.931,0,0,0,605.084,7209.9Z"/>
        <path id="Trazado_108859" data-name="Trazado 108859" d="M619.705,7209.49h7.406v3.11H614.688v-2.388l7.117-9.455h-6.9v-3.109h11.967v2.3Z"/>
        <path id="Trazado_108860" data-name="Trazado 108860" d="M628.77,7204.986a8.03,8.03,0,0,1,1.865-5.48,6.506,6.506,0,0,1,5.169-2.135,6.575,6.575,0,0,1,5.2,2.128,7.987,7.987,0,0,1,1.879,5.487v.29a8,8,0,0,1-1.873,5.493,7.39,7.39,0,0,1-10.364,0,7.994,7.994,0,0,1-1.872-5.493Zm4.021.283a6.476,6.476,0,0,0,.719,3.277,2.764,2.764,0,0,0,4.608-.007,6.44,6.44,0,0,0,.726-3.27v-.29a6.373,6.373,0,0,0-.733-3.243,2.479,2.479,0,0,0-2.307-1.255,2.447,2.447,0,0,0-2.287,1.262,6.432,6.432,0,0,0-.726,3.236Z"/>
      </g>
    </g>
  </g>
</svg>
