<svg xmlns="http://www.w3.org/2000/svg" width="179.451" height="578.813" viewBox="0 0 179.451 578.813">
  <g id="Grupo_56392" data-name="Grupo 56392" transform="translate(-554.637 -8486.437)">
    <rect id="Rectángulo_10277" data-name="Rectángulo 10277" width="179.451" height="578.813" rx="22.089" transform="translate(554.637 8486.437)" fill="#fff"/>
    <g id="Grupo_56391" data-name="Grupo 56391" transform="translate(578.574 8503.719)">
      <g id="Grupo_56389" data-name="Grupo 56389" transform="translate(0 0)">
        <g id="Grupo_56374" data-name="Grupo 56374" transform="translate(0 464.328)">
          <path id="Trazado_109168" data-name="Trazado 109168" d="M614.6,9128.932l7.054-3.775a9.482,9.482,0,0,1,9.1-6.061c6.9.2,9.977,2.682,12.262,6.756s2.882,4.074,5.365,5.166,31.861,16.393,34.609,18.678a8.228,8.228,0,0,0,6.423,1.49s10.333-1.787,14.7,2.087,3.676,9.538-.6,11.624-10.829,3.18-16.095,0-36.825-21.261-36.825-21.261-19.607-7.452-24.376-6.161a20.056,20.056,0,0,0-7.054,3.181s-4.471,6.358,3.08,14.6,20.665,17.784,20.665,17.784l9.438,6.061s15.346,4.57,15.92,10.333-2.209,8.445-8.269,8.941-16.393-2.086-19.275-9.041a14.317,14.317,0,0,1-.6-3.875c-.1-2.484-38.35-25.533-38.35-25.533s-11.624-3.279-14.506-9.24,2.484-12.021,2.484-12.021a12.18,12.18,0,0,1,9.24-1.988l6.855-3.873Z" transform="translate(-586.15 -9118.805)" fill="#fff"/>
          <path id="Trazado_109169" data-name="Trazado 109169" d="M658.388,9198.636c-6.216,0-15.288-2.711-18.009-9.277a14.431,14.431,0,0,1-.618-3.974c-.2-1.772-23.507-16.438-38.18-25.281-.855-.244-11.8-3.481-14.648-9.379-2.93-6.062,2.472-12.273,2.527-12.336a12.3,12.3,0,0,1,9.4-2.095l6.769-3.826,8.758-3.883,6.952-3.722a9.778,9.778,0,0,1,9.335-6.144c6.232.18,9.854,2.179,12.5,6.9,2.062,3.677,2.671,3.939,4.688,4.81l.542.235c2.572,1.13,31.964,16.463,34.677,18.72a8.009,8.009,0,0,0,6.181,1.432c.439-.078,10.53-1.771,14.953,2.15a8.123,8.123,0,0,1,3,7.122,6.456,6.456,0,0,1-3.656,4.974c-4.37,2.134-10.965,3.25-16.368-.012-5.2-3.143-36.5-21.078-36.82-21.259-.155-.055-19.532-7.39-24.159-6.132a20.447,20.447,0,0,0-6.917,3.1c-.364.546-4.021,6.462,3.079,14.216,7.445,8.131,20.492,17.65,20.623,17.746l9.391,6.029c1.047.314,15.506,4.771,16.083,10.566.276,2.778-.2,4.865-1.466,6.381-1.382,1.657-3.692,2.6-7.063,2.873C659.449,9198.614,658.929,9198.636,658.388,9198.636Zm-61.656-61.93a11.492,11.492,0,0,0-6.874,2.092c-.021.028-5.173,5.961-2.409,11.678,2.793,5.778,14.211,9.057,14.326,9.089l.07.03c6.41,3.862,38.388,23.257,38.487,25.768a14.273,14.273,0,0,0,.58,3.79c2.843,6.863,13.007,9.347,18.982,8.852,3.211-.263,5.394-1.136,6.672-2.67,1.16-1.392,1.6-3.34,1.337-5.958-.548-5.507-15.565-10.042-15.717-10.088l-.072-.033-9.438-6.061c-.146-.105-13.238-9.658-20.722-17.831-7.618-8.319-3.149-14.9-3.1-14.963l.052-.055a20.122,20.122,0,0,1,7.162-3.235c4.807-1.293,23.748,5.862,24.552,6.169.356.2,31.663,18.139,36.872,21.284s11.781,1.961,15.822-.013a5.894,5.894,0,0,0,3.341-4.537,7.564,7.564,0,0,0-2.809-6.617c-4.22-3.739-14.364-2.035-14.466-2.019a8.418,8.418,0,0,1-6.656-1.553c-2.693-2.239-31.977-17.508-34.541-18.636l-.538-.233c-2.1-.9-2.8-1.21-4.961-5.055-2.143-3.822-5.008-6.408-12.021-6.61a9.219,9.219,0,0,0-8.821,5.869l-.037.105-7.171,3.837-8.743,3.875-6.917,3.911-.1-.016A14.024,14.024,0,0,0,596.731,9136.706Z" transform="translate(-586.063 -9118.714)" fill="#999"/>
        </g>
        <path id="Trazado_109170" data-name="Trazado 109170" d="M614.6,9119.54l7.054-3.775a9.482,9.482,0,0,1,9.1-6.061c6.9.2,9.977,2.682,12.262,6.756s2.882,4.073,5.365,5.166,31.861,16.394,34.609,18.679a8.228,8.228,0,0,0,6.423,1.49s10.333-1.788,14.7,2.087,3.676,9.537-.6,11.624-10.829,3.179-16.095,0-36.825-21.262-36.825-21.262-19.607-7.452-24.376-6.16a20.046,20.046,0,0,0-7.054,3.18s-4.471,6.358,3.08,14.6,20.665,17.785,20.665,17.785l9.438,6.062s15.346,4.569,15.92,10.332-2.209,8.444-8.269,8.941-16.393-2.086-19.275-9.041a14.314,14.314,0,0,1-.6-3.874c-.1-2.484-38.35-25.534-38.35-25.534s-11.624-3.278-14.506-9.24,2.484-12.021,2.484-12.021a12.177,12.177,0,0,1,9.24-1.987l6.855-3.875Z" transform="translate(-586.15 -8652.238)" fill="#464646"/>
        <g id="Grupo_56375" data-name="Grupo 56375" transform="translate(21.213 451.024)">
          <rect id="Rectángulo_10278" data-name="Rectángulo 10278" width="11.922" height="23.149" rx="5.961" transform="translate(0.381 0.381)" fill="#fff"/>
          <path id="Trazado_109171" data-name="Trazado 109171" d="M620.7,9125.159h-.894a5.9,5.9,0,0,1-5.895-5.894v-12.121a5.9,5.9,0,0,1,5.895-5.9h.894a5.9,5.9,0,0,1,5.895,5.9v12.121A5.9,5.9,0,0,1,620.7,9125.159Zm-.894-23.148a5.139,5.139,0,0,0-5.133,5.134v12.121a5.138,5.138,0,0,0,5.133,5.132h.894a5.138,5.138,0,0,0,5.133-5.132v-12.121a5.139,5.139,0,0,0-5.133-5.134Z" transform="translate(-613.913 -9101.249)" fill="#999"/>
        </g>
        <ellipse id="Elipse_4350" data-name="Elipse 4350" cx="5.961" cy="4.123" rx="5.961" ry="4.123" transform="translate(21.594 449.815)" fill="#464646"/>
        <g id="Grupo_56376" data-name="Grupo 56376" transform="translate(37.498 38.622)">
          <path id="Trazado_109172" data-name="Trazado 109172" d="M718.952,8724.552c-1.659-5.21-9.194-13.773-9.194-13.773a6.64,6.64,0,0,1-.663-4.5l1.9-18.491,5.89-23.752,4.017-7.405s5.311-6.925,4.631-12.7l-1.955-6.8s-.165-5.785-.052-9.77c.027-.855.068-1.618.127-2.2l2.423-8.712.036-.336.015-.054.457-4.3h-.011l.338-3.187s.585-3.6-1.838-5.613a61.007,61.007,0,0,0-6.767-4.5s-8.164-3.533-11.237-5.592c0,0-2.987-1.445-3.112-7.98s-.575-6.659.427-9.738l2.329-7.45a30.179,30.179,0,0,0-16.15-7.207s-9.891-1.488-9.229,2.384a153.723,153.723,0,0,1-5.62,19.342s-4.509,7.551-9.665,8.145l-10.8,2.188s-15.962,1.7-17.026,7.293c0,0-4.136,4.459-1.88,21.047l.626,3.393,21.319,80.533.9,2.241-.9,3.558s-12.781,20.268-14.449,37.953c0,0,.277,44.609,2.265,61.1s8.155,52.459,8.155,52.459,2.377,17.486.389,28.813-3.577,22.057,0,39.741,2.186,35.966,2.186,35.966l-.6,9.537s1.931,5.1,9.808,4.969,9.2-7.617,9.2-7.617l3.643-47.027s1.756-22.852,1.077-28.614,1.364-14.8,1.364-14.8l4.514-22.951,1.2,14.705s-.409,8.146-2.6,12.32-2.783,20.068-2.087,24.241,2.683,21.858,2.683,21.858l.6,30.2s3.974,5.762,9.141,5.762,8.942-6.159,8.942-6.159l1.192-33.78,4.173-27.024s.2-13.711.2-16.492,2.186-9.736,3.974-12.319.6-14.307,1.193-19.474,5.564-37.953,5.564-37.953,2.384-42.125.6-57.624A330.011,330.011,0,0,1,718.952,8724.552Z" transform="translate(-635.383 -8559.92)" fill="#fff"/>
          <path id="Trazado_109173" data-name="Trazado 109173" d="M665.661,8981.346c-7.737,0-9.76-5.1-9.779-5.153l-.022-.058.6-9.6c.015-.186,1.347-18.449-2.18-35.891-3.469-17.15-2.123-27.76,0-39.847,1.956-11.154-.367-28.552-.391-28.725-.06-.351-6.191-36.152-8.156-52.464s-2.263-60.687-2.266-61.134c1.622-17.212,13.837-37.055,14.468-38.068l.864-3.425-.863-2.155-21.329-80.565-.631-3.414c-2.134-15.7,1.382-20.607,1.9-21.229,1.215-5.673,16.6-7.376,17.261-7.445l10.769-2.184c4.984-.576,9.433-7.937,9.477-8.012a154.24,154.24,0,0,0,5.574-19.2,1.9,1.9,0,0,1,.523-1.7c1.961-2,8.751-1,9.039-.962a30.768,30.768,0,0,1,16.307,7.285l.124.123-2.381,7.617a11.624,11.624,0,0,0-.557,5.457c.048,1.051.107,2.359.142,4.191.12,6.246,2.924,7.713,2.952,7.728,3.049,2.041,11.143,5.552,11.224,5.587a61.241,61.241,0,0,1,6.836,4.544c2.521,2.092,1.963,5.725,1.938,5.879l-.3,2.831h0l-.026.34-.508,4.688-2.431,8.759c-.046.49-.089,1.224-.117,2.135-.107,3.766.037,9.22.051,9.716l1.944,6.764c.695,5.871-4.459,12.669-4.679,12.955l-3.975,7.337-5.882,23.716-1.888,18.451a6.444,6.444,0,0,0,.627,4.33c.275.3,7.56,8.62,9.218,13.826l.014.045v.045a332.414,332.414,0,0,0,1.667,33.813c1.77,15.346-.57,57.251-.595,57.673-.052.354-4.976,32.867-5.565,37.97a71.886,71.886,0,0,0-.166,7.683c.047,5.028.1,10.227-1.076,11.921-1.686,2.436-3.923,9.367-3.923,12.156,0,2.753-.2,16.36-.2,16.5l-4.176,27.064-1.192,33.821-.039.063c-.158.257-3.92,6.3-9.185,6.3s-9.211-5.646-9.376-5.886l-.049-.07,0-.086-.6-30.2c-.018-.151-1.992-17.7-2.68-21.816-.663-3.979-.191-20.016,2.117-24.423,2.13-4.067,2.558-12.12,2.562-12.2l-1.035-12.619-4.117,20.935c-.023.1-2.026,9.067-1.36,14.715.675,5.725-1,27.735-1.076,28.669l-3.643,47.028c-.018.1-1.462,7.745-9.482,7.88C665.861,8981.346,665.76,8981.346,665.661,8981.346Zm-9.223-5.3c.238.564,2.263,4.834,9.514,4.729,7.542-.126,8.872-7.085,8.926-7.382l3.639-47c.018-.229,1.747-22.889,1.078-28.558-.677-5.745,1.348-14.809,1.369-14.9l4.91-24.962,1.371,16.756c-.016.372-.436,8.295-2.626,12.475-2.1,4-2.778,19.75-2.059,24.063.689,4.133,2.665,21.7,2.685,21.872l.6,30.141c.466.643,4.2,5.571,8.857,5.571,4.676,0,8.248-5.323,8.659-5.962l1.19-33.7,4.176-27.058c0-.1.195-13.7.195-16.449,0-2.928,2.257-9.928,4.025-12.482,1.069-1.543,1.018-6.881.973-11.59a72.06,72.06,0,0,1,.17-7.753c.59-5.112,5.516-37.636,5.565-37.964.021-.395,2.36-42.251.595-57.548a331.982,331.982,0,0,1-1.67-33.836c-1.65-5.1-9.048-13.543-9.123-13.628a6.837,6.837,0,0,1-.724-4.766l1.887-18.443,5.924-23.858,4.016-7.406c.077-.107,5.257-6.939,4.6-12.533l-1.956-6.823c0-.059-.164-5.84-.052-9.786.029-.925.072-1.673.13-2.223l2.431-8.762.052-.389.412-3.912h0l.026-.339.338-3.187c.008-.05.529-3.482-1.736-5.362a60.96,60.96,0,0,0-6.727-4.475c-.305-.13-8.194-3.552-11.253-5.6-.094-.042-3.112-1.576-3.239-8.21-.035-1.824-.094-3.128-.142-4.176a12.169,12.169,0,0,1,.584-5.657l2.274-7.275a30.431,30.431,0,0,0-15.86-7.011c-.073-.012-6.794-1-8.552.8a1.353,1.353,0,0,0-.359,1.255l.009.056-.011.054a155.028,155.028,0,0,1-5.632,19.384c-.209.356-4.662,7.723-9.9,8.326l-10.772,2.184c-.184.021-15.789,1.745-16.8,7.065l-.015.079-.055.062c-.04.043-4.01,4.618-1.807,20.814l.624,3.38,21.313,80.512.921,2.295-.955,3.729c-.128.2-12.763,20.415-14.405,37.828,0,.417.3,44.752,2.263,61.04s8.092,52.086,8.153,52.445c.025.185,2.36,17.669.389,28.909-2.111,12.027-3.45,22.583,0,39.636,3.543,17.521,2.2,35.86,2.19,36.044Z" transform="translate(-635.293 -8559.83)" fill="#999"/>
        </g>
        <path id="Trazado_109174" data-name="Trazado 109174" d="M741.463,8815.641" transform="translate(-623.094 -8582.166)" fill="#fff" stroke="#999" stroke-miterlimit="10" stroke-width="0.75" opacity="0.58"/>
        <path id="Trazado_109175" data-name="Trazado 109175" d="M748.807,8654.273l-4-11.354c-1.29-4.117-2.367-10.429-3.409-16.532-1.371-8.038-2.789-16.349-4.63-19.095l.475-.318c1.91,2.848,3.274,10.848,4.719,19.316,1.038,6.086,2.112,12.379,3.387,16.449l3.992,11.344Z" transform="translate(-621.976 -8532.442)" fill="#999"/>
        <path id="Trazado_109176" data-name="Trazado 109176" d="M718.025,8787.1a.38.38,0,0,1-.273-.646c4.5-4.6,4.378-21.2,4.376-21.368-.169-14.092-1.447-33.755-3.7-56.864-.094-.961-.059-6.671.023-7.7.66-8.156,1.081-14.422,1.42-19.456.387-5.764.667-9.929,1.086-13.838.218-2.03.468-3.991.709-5.886.846-6.646,1.645-12.923.909-20.818-.924-9.906-7.715-38.786-7.981-39.915-.163-.4-1.276-3.552-.015-13.044,1.313-9.87,1.663-15.764,1.666-15.821a.371.371,0,0,1,.4-.358.381.381,0,0,1,.358.4c0,.058-.354,5.976-1.67,15.876-1.29,9.7-.044,12.64-.031,12.667.094.369,7.088,30.016,8.03,40.121.744,7.979-.06,14.3-.912,20.985-.241,1.892-.49,3.849-.708,5.872-.418,3.894-.7,8.052-1.084,13.807-.338,5.036-.759,11.306-1.42,19.466-.078.96-.114,6.645-.024,7.561,2.251,23.132,3.53,42.817,3.7,56.932.008.7.128,17.081-4.593,21.907A.372.372,0,0,1,718.025,8787.1Z" transform="translate(-616.547 -8523.962)" fill="#4d4d4d"/>
        <path id="Trazado_109177" data-name="Trazado 109177" d="M694.769,8778.123a.381.381,0,0,1-.381-.377l-.449-44.708-1.144-24.626c-.008-.3-.789-29.687-.476-37.191.469-11.265.08-18.926-1.158-22.771-1.59-4.937-11.151-24.848-11.247-25.047l-2.889-7.968c-.029-.083-2.833-7.977-6.288-10.634l-3.588-2.76a.381.381,0,1,1,.464-.6l3.588,2.759c3.635,2.8,6.425,10.649,6.542,10.982l2.873,7.929c.379.785,9.665,20.123,11.27,25.108,1.265,3.933,1.667,11.683,1.194,23.036-.312,7.479.468,36.836.476,37.132l1.145,24.633.449,44.723a.38.38,0,0,1-.377.384Z" transform="translate(-605.35 -8531.104)" fill="#4d4d4d"/>
        <g id="Grupo_56377" data-name="Grupo 56377" transform="translate(53.456 115.374)">
          <path id="Trazado_109178" data-name="Trazado 109178" d="M729.357,8673.638l-20.082-3.45s-21.35-4.334-28.36-2.295-22.178,6.118-22.178,6.118l-2.04-6.663s19.5-8.632,35.88-5.827,35.88,5.353,35.88,5.353l1.537.17A8.47,8.47,0,0,1,729.357,8673.638Z" transform="translate(-656.35 -8660.681)" fill="#fff"/>
          <path id="Trazado_109179" data-name="Trazado 109179" d="M658.436,8674.271l-2.194-7.169.232-.1c.2-.087,19.766-8.633,36.044-5.848,16.185,2.771,35.673,5.326,35.868,5.351l1.708.189.061.166a8.682,8.682,0,0,1-.657,6.835l-.1.173-20.28-3.484c-.221-.044-21.371-4.3-28.231-2.3-6.933,2.016-22.032,6.077-22.184,6.118Zm-1.5-6.85,1.883,6.155c2.06-.555,15.488-4.178,21.907-6.045,7-2.033,27.622,2.111,28.5,2.289l19.874,3.414a8.28,8.28,0,0,0,.574-6.016l-1.353-.148c-.2-.027-19.7-2.583-35.9-5.356C677.272,8659.122,659.189,8666.47,656.938,8667.421Z" transform="translate(-656.242 -8660.594)" fill="#999"/>
        </g>
        <g id="Grupo_56378" data-name="Grupo 56378" transform="translate(125.809 121.736)">
          <path id="Trazado_109180" data-name="Trazado 109180" d="M752.033,8673.773l3-2.1,1.386.426s.588.2.588-.366l-1.146-2.314s-.558-.991-1.011-.1l-.449,1.632-2.728,2.107-.441.756Z" transform="translate(-751.23 -8668.946)" fill="#666"/>
        </g>
        <g id="Grupo_56379" data-name="Grupo 56379" transform="translate(82.338 114.095)">
          <path id="Trazado_109181" data-name="Trazado 109181" d="M694.964,8663.741l3-2.1,1.386.425s.588.2.588-.365l-1.146-2.314s-.557-.991-1.01-.1l-.45,1.632-2.728,2.107-.442.757Z" transform="translate(-694.16 -8658.914)" fill="#666"/>
        </g>
        <g id="Grupo_56380" data-name="Grupo 56380" transform="translate(51.591 119.743)">
          <path id="Trazado_109182" data-name="Trazado 109182" d="M658.766,8671.156l-3-2.1-1.386.425s-.588.2-.588-.365l1.146-2.314s.558-.991,1.011-.1l.45,1.632,2.728,2.107.442.757Z" transform="translate(-653.794 -8666.33)" fill="#666"/>
        </g>
        <path id="Trazado_109183" data-name="Trazado 109183" d="M713.74,8570.139c-9.511,0-18.235-6.2-18.343-6.274l.334-.463c.135.1,13.6,9.655,25.1,4.791l.222.527A18.676,18.676,0,0,1,713.74,8570.139Z" transform="translate(-612.117 -8522.06)" fill="#999"/>
        <g id="Grupo_56384" data-name="Grupo 56384" transform="translate(90.007)">
          <g id="Grupo_56381" data-name="Grupo 56381" transform="translate(0.746)">
            <path id="Trazado_109184" data-name="Trazado 109184" d="M716.975,8516.91c0-4.022-2.522-7.284-5.634-7.284s-5.634,3.262-5.634,7.284c0,3.146,1.546,5.818,3.706,6.838v27.07h4.256v-27.281A7.617,7.617,0,0,0,716.975,8516.91Z" transform="translate(-705.326 -8509.245)" fill="#fff"/>
            <path id="Trazado_109185" data-name="Trazado 109185" d="M713.932,8551.08h-5.018v-27.217c-2.226-1.179-3.707-3.983-3.707-7.072,0-4.227,2.7-7.665,6.015-7.665s6.014,3.438,6.014,7.665a8.127,8.127,0,0,1-3.3,6.841Zm-4.256-.762h3.495V8523.2l.188-.109a7.272,7.272,0,0,0,3.117-6.3c0-3.807-2.356-6.9-5.253-6.9s-5.254,3.1-5.254,6.9c0,2.9,1.4,5.51,3.488,6.493l.219.1Z" transform="translate(-705.207 -8509.126)" fill="#999"/>
          </g>
          <g id="Grupo_56382" data-name="Grupo 56382" transform="translate(0 8.793)">
            <rect id="Rectángulo_10279" data-name="Rectángulo 10279" width="13.213" height="2.13" rx="1.065" transform="translate(0.381 0.381)" fill="#fff"/>
            <path id="Trazado_109186" data-name="Trazado 109186" d="M716.9,8523.562H705.53a1.3,1.3,0,0,1-1.3-1.3v-.288a1.3,1.3,0,0,1,1.3-1.3H716.9a1.3,1.3,0,0,1,1.3,1.3v.288A1.3,1.3,0,0,1,716.9,8523.562Zm-11.371-2.13a.541.541,0,0,0-.54.54v.288a.541.541,0,0,0,.54.54H716.9a.541.541,0,0,0,.54-.54v-.288a.54.54,0,0,0-.539-.54Z" transform="translate(-704.228 -8520.67)" fill="#999"/>
          </g>
          <g id="Grupo_56383" data-name="Grupo 56383" transform="translate(0 4.727)">
            <rect id="Rectángulo_10280" data-name="Rectángulo 10280" width="13.213" height="2.13" rx="1.065" transform="translate(0.381 0.381)" fill="#fff"/>
            <path id="Trazado_109187" data-name="Trazado 109187" d="M716.9,8518.224H705.53a1.3,1.3,0,0,1-1.3-1.3v-.289a1.3,1.3,0,0,1,1.3-1.3H716.9a1.3,1.3,0,0,1,1.3,1.3v.289A1.3,1.3,0,0,1,716.9,8518.224Zm-11.371-2.13a.541.541,0,0,0-.54.54v.289a.54.54,0,0,0,.54.539H716.9a.54.54,0,0,0,.54-.539v-.289a.541.541,0,0,0-.54-.54Z" transform="translate(-704.228 -8515.332)" fill="#999"/>
          </g>
        </g>
        <g id="Grupo_56385" data-name="Grupo 56385" transform="translate(37.004 77.065)">
          <ellipse id="Elipse_4351" data-name="Elipse 4351" cx="7.674" cy="16.597" rx="7.674" ry="16.597" transform="translate(0.381 0.381)" fill="#fff"/>
          <path id="Trazado_109188" data-name="Trazado 109188" d="M642.7,8644.258c-4.517,0-8.054-7.458-8.054-16.979s3.537-16.979,8.054-16.979,8.054,7.458,8.054,16.979S647.214,8644.258,642.7,8644.258Zm0-33.2c-4.021,0-7.293,7.274-7.293,16.217s3.272,16.217,7.293,16.217,7.293-7.275,7.293-16.217S646.718,8611.063,642.7,8611.063Z" transform="translate(-634.643 -8610.301)" fill="gray"/>
        </g>
        <ellipse id="Elipse_4352" data-name="Elipse 4352" cx="1.616" cy="2.127" rx="1.616" ry="2.127" transform="translate(42.725 91.917)" fill="#454545"/>
        <path id="Trazado_109189" data-name="Trazado 109189" d="M645.446,8609.073l-.668-.366c.1-.174,2.412-4.264,10.575-5.927l.152.747C647.721,8605.113,645.468,8609.033,645.446,8609.073Z" transform="translate(-600.055 -8531.443)" fill="gray"/>
        <g id="Grupo_56386" data-name="Grupo 56386" transform="translate(60.219 183.582)">
          <path id="Trazado_109190" data-name="Trazado 109190" d="M693.252,8754.415c-.478,0-.961,0-1.453-.007-18.731-.164-26.6-3.712-26.677-3.748l.24-.52c.077.037,7.857,3.533,26.443,3.7,16.423.151,24.267-2.2,24.344-2.223l.168.546C716.24,8752.184,708.806,8754.415,693.252,8754.415Z" transform="translate(-665.121 -8750.141)" fill="#999"/>
          <path id="Trazado_109191" data-name="Trazado 109191" d="M693.779,8760.694q-.88,0-1.76-.027c-17.533-.563-25.858-3.962-25.941-4l.22-.527c.082.034,8.327,3.394,25.739,3.952,12.065.386,24.77-3.449,24.9-3.487l.167.546A92,92,0,0,1,693.779,8760.694Z" transform="translate(-665.349 -8751.571)" fill="#999"/>
          <path id="Trazado_109192" data-name="Trazado 109192" d="M703.558,8760.271l-1.881-1.578,1.406-1.618-1.688-1.536.385-.423,2.1,1.913-1.391,1.6,1.436,1.205Z" transform="translate(-673.765 -8751.326)" fill="#999"/>
          <path id="Trazado_109193" data-name="Trazado 109193" d="M706.973,8760.271l-1.881-1.578,1.406-1.618-1.688-1.536.385-.423,2.1,1.913-1.391,1.6,1.436,1.205Z" transform="translate(-674.579 -8751.326)" fill="#999"/>
          <path id="Trazado_109194" data-name="Trazado 109194" d="M710.483,8760.129l-1.756-1.535,1.311-1.572-1.571-1.491.393-.415,1.96,1.86-1.3,1.556,1.336,1.168Z" transform="translate(-675.45 -8751.326)" fill="#999"/>
          <path id="Trazado_109195" data-name="Trazado 109195" d="M713.961,8759.795l-1.767-1.457,1.306-1.475-1.546-1.383.381-.426,1.969,1.761-1.29,1.458,1.311,1.08Z" transform="translate(-676.281 -8751.312)" fill="#999"/>
          <path id="Trazado_109196" data-name="Trazado 109196" d="M717.071,8759.355,715.3,8757.9l1.305-1.476-1.546-1.383.381-.425,1.969,1.761-1.29,1.459,1.31,1.08Z" transform="translate(-677.022 -8751.207)" fill="#999"/>
          <path id="Trazado_109197" data-name="Trazado 109197" d="M685.345,8759.54l-1.706-1.687,1.586-1.437-1.49-1.6.418-.389,1.885,2.026-1.567,1.421,1.277,1.263Z" transform="translate(-669.534 -8751.161)" fill="#999"/>
          <path id="Trazado_109198" data-name="Trazado 109198" d="M688.743,8759.825l-1.706-1.687,1.585-1.437-1.49-1.6.418-.389,1.885,2.026-1.567,1.421,1.276,1.263Z" transform="translate(-670.344 -8751.229)" fill="#999"/>
          <path id="Trazado_109199" data-name="Trazado 109199" d="M692.4,8760.132l-1.706-1.687,1.586-1.437-1.49-1.6.418-.389,1.885,2.026-1.567,1.421,1.277,1.263Z" transform="translate(-671.215 -8751.303)" fill="#999"/>
          <path id="Trazado_109200" data-name="Trazado 109200" d="M674.725,8757.666l-1.706-1.687,1.585-1.437-1.49-1.6.418-.389,1.885,2.026L673.85,8756l1.276,1.263Z" transform="translate(-667.003 -8750.715)" fill="#999"/>
          <path id="Trazado_109201" data-name="Trazado 109201" d="M671.4,8756.865l-1.706-1.687,1.586-1.437-1.49-1.6.418-.389,1.885,2.026-1.567,1.421,1.277,1.263Z" transform="translate(-666.21 -8750.523)" fill="#999"/>
          <path id="Trazado_109202" data-name="Trazado 109202" d="M668.655,8756.079l-1.706-1.687,1.585-1.437-1.49-1.6.418-.389,1.885,2.026-1.567,1.421,1.277,1.262Z" transform="translate(-665.556 -8750.337)" fill="#999"/>
          <path id="Trazado_109203" data-name="Trazado 109203" d="M678.123,8758.43l-1.706-1.687,1.585-1.437-1.49-1.6.418-.388,1.885,2.026-1.567,1.42,1.277,1.264Z" transform="translate(-667.813 -8750.896)" fill="#999"/>
          <path id="Trazado_109204" data-name="Trazado 109204" d="M681.781,8758.736l-1.706-1.687,1.586-1.437-1.49-1.6.418-.388,1.885,2.026-1.567,1.421,1.277,1.263Z" transform="translate(-668.685 -8750.97)" fill="#999"/>
          <path id="Trazado_109205" data-name="Trazado 109205" d="M695.865,8760.422l-1.706-1.687,1.586-1.437-1.49-1.6.418-.389,1.885,2.026-1.567,1.421,1.277,1.263Z" transform="translate(-672.041 -8751.371)" fill="#999"/>
          <path id="Trazado_109206" data-name="Trazado 109206" d="M699.255,8760.239l-1.706-1.687,1.586-1.437-1.49-1.6.418-.389,1.885,2.026-1.567,1.421,1.277,1.263Z" transform="translate(-672.848 -8751.328)" fill="#999"/>
          <path id="Trazado_109207" data-name="Trazado 109207" d="M723.433,8758.243l-1.913-1.253,1.363-1.224-1.539-1.1.331-.466,2.121,1.51-1.341,1.2,1.292.847Z" transform="translate(-678.518 -8751.109)" fill="#999"/>
          <path id="Trazado_109208" data-name="Trazado 109208" d="M726.527,8757.607l-1.913-1.253,1.362-1.225-1.539-1.095.331-.466,2.121,1.509-1.341,1.205,1.292.848Z" transform="translate(-679.256 -8750.958)" fill="#999"/>
          <path id="Trazado_109209" data-name="Trazado 109209" d="M729.687,8756.952l-1.913-1.253,1.362-1.225-1.539-1.095.331-.466,2.121,1.509-1.341,1.205,1.292.847Z" transform="translate(-680.009 -8750.802)" fill="#999"/>
          <path id="Trazado_109210" data-name="Trazado 109210" d="M719.913,8758.6l-1.819-1.281,1.305-1.259-1.491-1.14.347-.453,2.019,1.542-1.286,1.241,1.254.883Z" transform="translate(-677.7 -8751.171)" fill="#999"/>
        </g>
        <path id="Trazado_109211" data-name="Trazado 109211" d="M671.909,9105.313c-5.475,0-9.1-5.875-9.143-5.939l.489-.295c.04.065,4.084,6.6,9.922,5.55,6.02-1.076,7.3-3.439,8.555-6.922l.537.2c-1.286,3.556-2.684,6.161-8.991,7.289A7.928,7.928,0,0,1,671.909,9105.313Z" transform="translate(-604.341 -8649.381)" fill="#999"/>
        <path id="Trazado_109212" data-name="Trazado 109212" d="M709.719,9089.814c-5.535,0-8.775-6.771-8.913-7.066l.517-.243c.033.071,3.4,7.087,8.833,6.724,5.522-.386,7.533-4.043,9-6.713l.516.248c-1.461,2.656-3.646,6.627-9.477,7.034C710.036,9089.809,709.876,9089.814,709.719,9089.814Z" transform="translate(-613.406 -8645.759)" fill="#999"/>
        <path id="Trazado_109213" data-name="Trazado 109213" d="M664.889,8997.9h-.571v-27.275c0-.129-.267-13.59-.561-16.229a124.118,124.118,0,0,1-.6-17.832c.393-6.479,1.151-26.125,1.159-26.323,0-.173-.022-18.527-1.275-25.772-1.048-6.062-3.278-26.758-4.611-39.123-.292-2.7-.543-5.039-.737-6.795-1.082-9.835-1.389-40.75-1.392-41.061.059-1.348,1.492-32.75,4.784-41.566,3.273-8.764,7-21.433,7.036-21.56l1.721-5.46-21.033-76.22.551-.151,21.078,76.381-1.77,5.615c-.036.122-3.767,12.812-7.047,21.595-3.262,8.732-4.735,41.051-4.749,41.375,0,.3.311,31.183,1.39,40.989.193,1.756.445,4.095.736,6.8,1.332,12.357,3.561,33.045,4.606,39.088,1.261,7.292,1.283,25.7,1.283,25.881-.008.209-.766,19.86-1.159,26.346a123.6,123.6,0,0,0,.595,17.735c.3,2.665.554,15.732.564,16.287Z" transform="translate(-601.016 -8543.299)" fill="#999"/>
        <path id="Trazado_109214" data-name="Trazado 109214" d="M680.221,9024.74H680.2a.381.381,0,0,1-.362-.4c.04-.8,4.03-80.084,4.03-83.413,0-3.407.608-11.566,2.016-14.981,1.353-3.284,2.975-23.526,2.991-23.73l1.793-69.129,2.583-69.949a.375.375,0,0,1,.395-.367.382.382,0,0,1,.366.4l-2.582,69.944-1.794,69.145c-.068.858-1.651,20.587-3.048,23.981-1.367,3.318-1.958,11.334-1.958,14.691s-3.866,80.183-4.031,83.451A.382.382,0,0,1,680.221,9024.74Z" transform="translate(-608.409 -8569.567)" fill="#4d4d4d"/>
        <path id="Trazado_109215" data-name="Trazado 109215" d="M705.3,8804.282c-2.383,0-9.313-.1-28.638-.819-26.318-.978-27.888-5.2-27.98-5.674a.381.381,0,0,1,.743-.165c.047.118,1.9,4.135,27.265,5.077,26.337.978,29.611.812,29.739.8a.381.381,0,0,1,.047.76C706.441,8804.268,706.183,8804.282,705.3,8804.282Z" transform="translate(-600.983 -8577.806)" fill="#4d4d4d"/>
        <path id="Trazado_109216" data-name="Trazado 109216" d="M738.97,8811.839l-.57-.038c.013-.2,1.315-19.724.667-31.361-.646-11.587-6.4-22.354-6.462-22.463l.5-.271c.059.108,5.877,10.984,6.531,22.7C740.288,8792.081,738.984,8811.642,738.97,8811.839Z" transform="translate(-620.983 -8568.36)" fill="#999"/>
        <path id="Trazado_109217" data-name="Trazado 109217" d="M698.983,8843.109c-.6-5.223-2.284-7.347-7.27-13.65-.739-.935-1.549-1.958-2.436-3.1-10.087-12.924-20.608-17.717-28.647-20.448-7.941-2.7-14,3.456-14.064,3.519l-.411-.4c.063-.065,6.369-6.479,14.66-3.663,8.114,2.758,18.732,7.595,28.913,20.639.887,1.135,1.7,2.158,2.434,3.091,4.924,6.227,6.767,8.557,7.39,13.94Z" transform="translate(-600.382 -8579.55)" fill="#999"/>
        <path id="Trazado_109218" data-name="Trazado 109218" d="M701.739,8919.877l-.569-.054c.03-.325,3.086-32.653,3.577-38.446s1.381-23.065,1.39-23.24c.063-.475,1.544-11.123,6.734-12.48,4.215-1.1,4.729-1.551,7.584-4.032.53-.461,1.14-.99,1.867-1.606,4.585-3.885,12.5-22.36,12.584-22.547l.525.224c-.326.765-8.051,18.788-12.74,22.759-.724.614-1.332,1.143-1.861,1.6-2.941,2.556-3.47,3.017-7.815,4.153-4.822,1.263-6.295,11.875-6.309,11.982-.007.15-.9,17.435-1.389,23.233S701.769,8919.551,701.739,8919.877Z" transform="translate(-613.492 -8582.603)" fill="#999"/>
        <path id="Trazado_109219" data-name="Trazado 109219" d="M705.7,9047.454l-.571-.009c0-.338.492-33.98.1-40.518-.409-6.824.433-23.248,2.393-31.084,1.954-7.816,1.323-21.637,1.316-21.775l-3.707-37.474.568-.057,3.709,37.489c.008.153.643,14.057-1.331,21.955-1.947,7.788-2.784,24.121-2.377,30.912C706.188,9013.451,705.7,9047.115,705.7,9047.454Z" transform="translate(-614.434 -8606.21)" fill="#999"/>
        <path id="Trazado_109220" data-name="Trazado 109220" d="M704.675,8608.027c-11.512,0-22.249-10.986-22.748-11.5a.38.38,0,1,1,.548-.527c.132.137,13.377,13.686,25.772,10.878a16.269,16.269,0,0,0,8.508-6.07.381.381,0,1,1,.613.451,16.738,16.738,0,0,1-8.954,6.362A16.911,16.911,0,0,1,704.675,8608.027Z" transform="translate(-608.881 -8529.799)" fill="#4d4d4d"/>
        <rect id="Rectángulo_10281" data-name="Rectángulo 10281" width="3.941" height="11.989" transform="translate(92.665 19.385)" fill="#464646"/>
        <rect id="Rectángulo_10282" data-name="Rectángulo 10282" width="2.856" height="11.989" transform="translate(97.824 19.385)" fill="#464646"/>
        <rect id="Rectángulo_10283" data-name="Rectángulo 10283" width="2.921" height="4.968" transform="translate(100.679 22.299)" fill="#464646"/>
        <rect id="Rectángulo_10284" data-name="Rectángulo 10284" width="6.663" height="322.649" transform="translate(23.624 53.893)" fill="#464646"/>
        <rect id="Rectángulo_10285" data-name="Rectángulo 10285" width="6.663" height="35.833" transform="translate(92.665 20.741) rotate(90)" fill="#464646"/>
        <path id="Trazado_109221" data-name="Trazado 109221" d="M623.664,8572.886s-2.136-16.1,8.4-23.746a42.528,42.528,0,0,1,24.54-6.121v-6.663s-17.244-.369-27.355,7.121c-9.857,7.3-12.712,14.8-12.478,28.116Z" transform="translate(-593.376 -8515.614)" fill="#464646"/>
        <g id="Grupo_56387" data-name="Grupo 56387" transform="translate(23.243 384.755)">
          <rect id="Rectángulo_10286" data-name="Rectángulo 10286" width="6.663" height="69.467" rx="3.332" transform="translate(0.381 0.381)" fill="#fff"/>
          <path id="Trazado_109222" data-name="Trazado 109222" d="M620.673,9084.478h-.765a3.333,3.333,0,0,1-3.33-3.329v-63.57a3.334,3.334,0,0,1,3.33-3.329h.765a3.334,3.334,0,0,1,3.33,3.329v63.57A3.333,3.333,0,0,1,620.673,9084.478Zm-.765-69.467a2.571,2.571,0,0,0-2.568,2.567v63.57a2.571,2.571,0,0,0,2.568,2.567h.765a2.571,2.571,0,0,0,2.568-2.567v-63.57a2.571,2.571,0,0,0-2.568-2.567Z" transform="translate(-616.578 -9014.249)" fill="#999"/>
        </g>
        <rect id="Rectángulo_10287" data-name="Rectángulo 10287" width="9.29" height="15.996" transform="translate(22.29 375.25)" fill="#464646"/>
        <path id="Trazado_109223" data-name="Trazado 109223" d="M631.058,9140.765l4.808-3.842,53.452,31.263-3.246,2.98Z" transform="translate(-596.785 -8658.726)" fill="#464646"/>
        <g id="Grupo_56388" data-name="Grupo 56388" transform="translate(82.951 509.371)">
          <path id="Trazado_109224" data-name="Trazado 109224" d="M718.352,9186.08l-9.279,8.263-13.456-7.286,9.935-8.743Z" transform="translate(-695.12 -9177.96)" fill="#fff"/>
          <path id="Trazado_109225" data-name="Trazado 109225" d="M708.958,9194.578,694.965,9187l10.4-9.152.179.11,13.132,7.965Zm-13-7.687,12.92,7,8.841-7.873-12.291-7.456Z" transform="translate(-694.965 -9177.85)" fill="#999"/>
        </g>
        <path id="Trazado_109226" data-name="Trazado 109226" d="M719.631,9180.838l-10.929,9.539-11.724-6.436,10.94-9.628Z" transform="translate(-612.493 -8667.636)" fill="#9f9f9f"/>
      </g>
      <g id="Grupo_56390" data-name="Grupo 56390" transform="translate(32.664 167.107)" opacity="0.43">
        <path id="Trazado_109227" data-name="Trazado 109227" d="M722.565,8733.713v21.393s.3,5.234,1.391,7.023.7,13.511.7,13.511l.839,39.245s.144,70.739,0,76.3-1.43,87.729-1.43,87.729l-.4,23.847a5.4,5.4,0,0,1-4.9,4.768c-4.641.7-11.2-.832-14.576,2.415s-6.359,6.181-6.359,6.181-2.384,3.184-6.061,2.857-3.974-1.165-5.464,0-2.094,2.725-4.674,2.392-3.871-1.922-4.964-1.625-2.6,2.583-2.6,2.583a3.539,3.539,0,0,1-3.46,1.292c-2.285-.4-4.382,0-5.072-1.391s-4.366,0-4.366,0-1.593,3.179-6.161.1-5.762-7.551-8.047-8.246a16.325,16.325,0,0,0-4.967-.529s1.192-18.05.5-20.931-4.769-35.271-4.968-39.146-6.557-99.353-6.557-99.353-3.377-55.35,0-67.217,3.711-32.96,3.711-32.96l-2.518-24.942s6.094.4,7.948,2.518,7.021,1.854,7.021,1.854,4.218,3.179,5.222,5.962,5.118-1.325,5.118-1.325,2.784-1.458,4.633.662a26.136,26.136,0,0,0,5.122,4.106,5.456,5.456,0,0,0,5.5-1.458c2.222-2.516,5.375-.661,5.375-.661s2.731,2.781,5.22,2.252a23.74,23.74,0,0,0,5.886-2.649s3.864-2.517,7.652-1.192a33.319,33.319,0,0,0,8.565,1.457s5.158,1.723,7.278.133,5.384-4.77,5.384-4.77S720.909,8733.25,722.565,8733.713Z" transform="translate(-629.068 -8728.63)" fill="#999"/>
        <path id="Trazado_109228" data-name="Trazado 109228" d="M671.175,9023.949a4.394,4.394,0,0,1-.759-.068c-.649-.112-1.277-.159-1.886-.2-1.543-.114-2.877-.213-3.462-1.392-.39-.785-2.624-.268-3.765.141a3.29,3.29,0,0,1-1.928,1.4c-1.331.349-2.914-.086-4.706-1.292a20.508,20.508,0,0,1-5.208-5.432c-1-1.385-1.795-2.48-2.737-2.767a16.113,16.113,0,0,0-4.834-.515.352.352,0,0,1-.293-.111.383.383,0,0,1-.11-.293c.012-.181,1.181-18.023.507-20.816-.669-2.771-4.763-35.023-4.978-39.215-.2-3.828-6.494-98.393-6.558-99.348-.138-2.265-3.343-55.551.014-67.347,3.326-11.683,3.693-32.649,3.7-32.86l-2.517-24.9a.377.377,0,0,1,.105-.3.372.372,0,0,1,.3-.115c.255.016,6.273.433,8.21,2.646,1.711,1.954,6.663,1.725,6.714,1.725a.34.34,0,0,1,.249.076c.175.133,4.32,3.28,5.351,6.137a.949.949,0,0,0,.659.691c1.118.245,3.145-1.473,3.832-2.157a.448.448,0,0,1,.092-.068c.031-.016,3.073-1.569,5.1.749a25.6,25.6,0,0,0,4.992,4.008,5,5,0,0,0,5.059-1.359c2.4-2.719,5.82-.758,5.854-.738a.308.308,0,0,1,.078.061c.026.027,2.61,2.627,4.87,2.146a23.425,23.425,0,0,0,5.763-2.6c.158-.1,4.059-2.6,7.98-1.229a33.171,33.171,0,0,0,8.45,1.436.378.378,0,0,1,.11.02c.05.018,4.995,1.641,6.928.189,2.076-1.557,5.315-4.705,5.348-4.737.311-.291,3.042-2.791,4.853-2.279a.381.381,0,0,1,.278.366v21.393c0,.03.3,5.138,1.335,6.824,1.12,1.834.792,12.512.751,13.723l.839,39.225c0,.715.142,70.815,0,76.32s-1.418,86.9-1.431,87.726l-.4,23.847a5.816,5.816,0,0,1-5.222,5.137,33.75,33.75,0,0,1-4.9.219c-3.572-.014-7.279-.014-9.473,2.1-3.337,3.209-6.325,6.147-6.355,6.178-.065.094-2.519,3.3-6.361,2.965a24.018,24.018,0,0,1-2.84-.426c-1.2-.24-1.521-.307-2.358.346a11.058,11.058,0,0,0-.957.878,4.225,4.225,0,0,1-4,1.592,9.378,9.378,0,0,1-3.25-1.132c-.66-.34-1.183-.606-1.565-.5-.694.188-1.83,1.588-2.383,2.426A3.882,3.882,0,0,1,671.175,9023.949Zm-7.23-2.829a1.851,1.851,0,0,1,1.8.825c.374.753,1.322.859,2.837.971.6.046,1.274.095,1.96.215A3.144,3.144,0,0,0,673.63,9022c.156-.237,1.614-2.406,2.811-2.732a3.087,3.087,0,0,1,2.115.561,8.721,8.721,0,0,0,3,1.054,3.474,3.474,0,0,0,3.364-1.376,11.269,11.269,0,0,1,1.026-.937c1.111-.869,1.735-.741,2.975-.492a23.674,23.674,0,0,0,2.757.413c3.425.309,5.7-2.677,5.722-2.707.068-.071,3.058-3.015,6.4-6.226,2.416-2.324,6.27-2.327,10-2.309a33.148,33.148,0,0,0,4.781-.209,4.987,4.987,0,0,0,4.573-4.416l.4-23.828c.013-.821,1.29-82.23,1.431-87.732s0-75.584,0-76.292l-.839-39.237c.158-4.687.119-12.081-.639-13.321-1.13-1.849-1.434-6.981-1.446-7.2v-21.09c-1.227-.068-3.154,1.493-3.844,2.139-.129.125-3.3,3.209-5.417,4.795-2.156,1.619-6.976.135-7.572-.059a33.1,33.1,0,0,1-8.624-1.477c-3.562-1.246-7.282,1.129-7.319,1.152a23.8,23.8,0,0,1-6.014,2.7c-2.521.542-5.164-1.957-5.531-2.318-.369-.2-2.978-1.52-4.857.607a5.791,5.791,0,0,1-5.9,1.568.394.394,0,0,1-.08-.037,26.221,26.221,0,0,1-5.212-4.182c-1.509-1.73-3.77-.764-4.123-.6-.442.434-2.832,2.687-4.49,2.315a1.672,1.672,0,0,1-1.21-1.177c-.868-2.4-4.334-5.2-4.987-5.7-.879.022-5.387.064-7.184-1.991-1.449-1.654-5.818-2.209-7.237-2.349l2.472,24.486c0,.255-.37,21.321-3.723,33.1-3.322,11.67-.02,66.537.014,67.091.064.952,6.361,95.522,6.558,99.356.214,4.179,4.292,36.315,4.957,39.075.65,2.69-.281,17.824-.46,20.624a16,16,0,0,1,4.672.561c1.188.361,2.045,1.549,3.132,3.051a19.848,19.848,0,0,0,5.016,5.244c1.6,1.076,2.966,1.476,4.074,1.191a2.471,2.471,0,0,0,1.536-1.147.393.393,0,0,1,.2-.184A9.924,9.924,0,0,1,663.945,9021.12Z" transform="translate(-628.946 -8728.511)" fill="#4d4d4d"/>
      </g>
    </g>
  </g>
</svg>
