<svg xmlns="http://www.w3.org/2000/svg" width="937.421" height="365.136" viewBox="0 0 937.421 365.136">
  <g id="Grupo_56593" data-name="Grupo 56593" transform="translate(-232.61 -2092.417)">
    <g id="Grupo_56545" data-name="Grupo 56545" transform="translate(598.19 2094.875)">
      <path id="Trazado_109695" data-name="Trazado 109695" d="M578.921,2134.393a151.08,151.08,0,0,1,7.658-25.84l-33.53-13.866s-8.824,7.059-16.26,6.933c-7.438.126-16.26-6.933-16.26-6.933L487,2108.553a151.069,151.069,0,0,1,7.658,25.84c3.4,15.976-9.266,20.7-9.266,20.7l10.683,47.386H577.5l10.682-47.386S575.518,2150.369,578.921,2134.393Z" transform="translate(-484.549 -2093.855)" fill="#fff"/>
      <path id="Trazado_109696" data-name="Trazado 109696" d="M578.344,2203.466H495.758L484.811,2154.9l.59-.223c.494-.186,12.039-4.724,8.809-19.875a152.091,152.091,0,0,0-7.613-25.7l-.291-.676,34.605-14.308.333.267c.086.068,8.561,6.775,15.609,6.775.125,0,.248,0,.372,0,7.074,0,15.548-6.707,15.634-6.775l.335-.267,34.6,14.308-.293.676a152.264,152.264,0,0,0-7.613,25.7c-3.227,15.151,8.318,19.689,8.812,19.875l.59.222Zm-81.427-1.449h80.269l10.425-46.244c-2.522-1.215-12.2-6.9-9.137-21.273a160.151,160.151,0,0,1,7.42-25.3l-32.47-13.427c-1.731,1.319-9.525,6.981-16.386,6.826h-.21c-6.79,0-14.436-5.523-16.148-6.828L488.207,2109.2a160.1,160.1,0,0,1,7.422,25.3c3.063,14.376-6.614,20.059-9.135,21.273Z" transform="translate(-484.811 -2094.113)" fill="#4d4d4d"/>
    </g>
    <g id="Grupo_56546" data-name="Grupo 56546" transform="translate(484.745 2094.875)">
      <path id="Trazado_109697" data-name="Trazado 109697" d="M500.66,2134.393a151.073,151.073,0,0,1,7.658-25.84l-33.53-13.866s-8.823,7.059-16.26,6.933c-7.436.126-16.26-6.933-16.26-6.933l-33.53,13.866a151.075,151.075,0,0,1,7.658,25.84c3.4,15.976-9.266,20.7-9.266,20.7l10.683,47.386h81.427l10.682-47.386S497.257,2150.369,500.66,2134.393Z" transform="translate(-406.287 -2093.855)" fill="#fff"/>
      <path id="Trazado_109698" data-name="Trazado 109698" d="M500.083,2203.466H417.5l-10.95-48.567.59-.223c.494-.186,12.039-4.724,8.81-19.875a151.926,151.926,0,0,0-7.613-25.7l-.291-.676,34.6-14.308.335.267c.084.069,8.735,6.927,15.794,6.774,7.11.156,15.734-6.7,15.819-6.774l.335-.267,34.605,14.308-.291.676a151.943,151.943,0,0,0-7.613,25.7h0c-3.23,15.151,8.315,19.689,8.809,19.875l.59.222Zm-81.426-1.449h80.269l10.422-46.244c-2.521-1.215-12.2-6.9-9.135-21.273h0a160.329,160.329,0,0,1,7.42-25.3l-32.472-13.427c-1.731,1.319-9.489,6.981-16.384,6.826-6.782.145-14.63-5.507-16.36-6.826l-32.47,13.427a160.161,160.161,0,0,1,7.42,25.3c3.061,14.376-6.616,20.059-9.137,21.273Z" transform="translate(-406.549 -2094.113)" fill="#4d4d4d"/>
    </g>
    <g id="Grupo_56547" data-name="Grupo 56547" transform="translate(362.793 2092.417)">
      <path id="Trazado_109699" data-name="Trazado 109699" d="M416.53,2132.7a151.161,151.161,0,0,1,7.657-25.84l-33.528-13.865s-8.823,7.058-16.26,6.932c-7.438.126-16.261-6.932-16.261-6.932l-33.528,13.865a151.159,151.159,0,0,1,7.657,25.84c3.4,15.977-9.264,20.7-9.264,20.7l10.683,47.387h81.426l10.683-47.387S413.127,2148.674,416.53,2132.7Z" transform="translate(-322.157 -2092.158)" fill="#fff"/>
      <path id="Trazado_109700" data-name="Trazado 109700" d="M415.953,2201.77H333.367L322.419,2153.2l.59-.223c.494-.186,12.039-4.724,8.81-19.873a152.2,152.2,0,0,0-7.613-25.7l-.293-.675,34.605-14.31.335.267c.084.068,8.56,6.775,15.607,6.775.125,0,.248,0,.372,0,7.074,0,15.549-6.707,15.634-6.775l.335-.267,34.605,14.31-.291.675a151.953,151.953,0,0,0-7.615,25.7c-3.228,15.149,8.316,19.688,8.81,19.873l.59.222Zm-81.427-1.45H414.8l10.424-46.243c-2.521-1.215-12.2-6.9-9.137-21.272a160.31,160.31,0,0,1,7.422-25.3l-32.472-13.427c-1.713,1.306-9.361,6.827-16.174,6.827h-.42c-6.791,0-14.436-5.521-16.15-6.827l-32.472,13.427a160.3,160.3,0,0,1,7.422,25.3c3.061,14.377-6.614,20.057-9.137,21.272Z" transform="translate(-322.419 -2092.417)" fill="#4d4d4d"/>
    </g>
    <g id="Grupo_56548" data-name="Grupo 56548" transform="translate(240.487 2095.165)">
      <path id="Trazado_109701" data-name="Trazado 109701" d="M332.154,2134.594a151.072,151.072,0,0,1,7.658-25.84l-33.528-13.866s-8.823,7.059-16.261,6.933c-7.436.126-16.26-6.933-16.26-6.933l-33.528,13.866a151.164,151.164,0,0,1,7.657,25.84c3.4,15.977-9.264,20.7-9.264,20.7l10.682,47.387h81.428L341.42,2155.3S328.752,2150.57,332.154,2134.594Z" transform="translate(-237.782 -2094.055)" fill="#fff"/>
      <path id="Trazado_109702" data-name="Trazado 109702" d="M331.578,2203.666H248.992L238.044,2155.1l.59-.223c.494-.186,12.039-4.724,8.81-19.874a152.245,152.245,0,0,0-7.613-25.705l-.293-.676,34.605-14.309.335.267c.084.068,8.56,6.775,15.607,6.775h.373c7.074,0,15.549-6.707,15.633-6.775l.335-.267,34.6,14.309-.291.676A152.083,152.083,0,0,0,333.126,2135c-3.228,15.15,8.316,19.688,8.81,19.874l.59.222Zm-81.428-1.45H330.42l10.424-46.244c-2.521-1.215-12.2-6.9-9.137-21.272a160.153,160.153,0,0,1,7.422-25.3l-32.472-13.427c-1.729,1.319-9.512,6.965-16.386,6.826-6.887.162-14.626-5.506-16.358-6.826L241.442,2109.4a160.221,160.221,0,0,1,7.42,25.3c3.063,14.376-6.613,20.057-9.135,21.272Z" transform="translate(-238.044 -2094.313)" fill="#4d4d4d"/>
    </g>
    <circle id="Elipse_4371" data-name="Elipse 4371" cx="3.841" cy="3.841" r="3.841" transform="translate(310.414 2145.89)" fill="#4d4d4d"/>
    <path id="Trazado_109703" data-name="Trazado 109703" d="M247.2,2197.6l-1.447-.077c1.757-33.387,18.473-53.422,18.641-53.619,24.783-22.806,70.715-39.41,71.175-39.576l.49,1.364c-.46.165-46.119,16.673-70.621,39.215C265.339,2145.038,248.935,2164.728,247.2,2197.6Z" transform="translate(5.911 5.355)" fill="#4d4d4d"/>
    <circle id="Elipse_4372" data-name="Elipse 4372" cx="3.841" cy="3.841" r="3.841" transform="translate(267.022 2145.89)" fill="#4d4d4d"/>
    <path id="Trazado_109704" data-name="Trazado 109704" d="M246.606,2198.072l-.533-1.349c.21-.083,21.242-8.508,43.566-27.669.1-.09,11.366-10.29,15.044-17.641a101.868,101.868,0,0,0,4.244-10.346c1.6-4.359,3.119-8.477,5.072-11.3.529-.763,1.2-1.784,1.993-2.979,4.494-6.8,12.018-18.177,18.457-22.09l.754,1.238c-6.164,3.744-13.865,15.393-18,21.652-.8,1.2-1.477,2.232-2.011,3-1.847,2.67-3.333,6.7-4.905,10.975a102.879,102.879,0,0,1-4.305,10.492c-3.8,7.6-14.913,17.657-15.384,18.081C268.061,2189.483,246.818,2197.988,246.606,2198.072Z" transform="translate(6.052 5.522)" fill="#4d4d4d"/>
    <path id="Trazado_109705" data-name="Trazado 109705" d="M280.03,2198.858l-.847-1.177c.08-.058,8.154-6.047,16.366-24.871,5.9-13.53,7.5-24.14,7.922-29.261a60.169,60.169,0,0,1,1.664-9.856c1.918-7.51,8.149-24.473,15.171-28.987l.784,1.219c-6.013,3.864-12.237,19.067-14.551,28.125a58.729,58.729,0,0,0-1.625,9.618c-.432,5.21-2.051,16-8.038,29.719C288.48,2192.635,280.37,2198.613,280.03,2198.858Z" transform="translate(20.937 5.525)" fill="#4d4d4d"/>
    <circle id="Elipse_4373" data-name="Elipse 4373" cx="3.841" cy="3.841" r="3.841" transform="translate(432.721 2143.142)" fill="#4d4d4d"/>
    <circle id="Elipse_4374" data-name="Elipse 4374" cx="3.841" cy="3.841" r="3.841" transform="translate(389.329 2143.142)" fill="#4d4d4d"/>
    <path id="Trazado_109706" data-name="Trazado 109706" d="M367.895,2163.072c-.407,0-.657-.013-.713-.016-15.845-.481-22.444-19.869-22.509-20.065l-5.716-45.231,1.438-.181,5.684,45.093c.032.049,6.322,18.483,21.169,18.936.1.012,8.89.454,15.342-5.327,4.233-3.789,6.566-9.4,6.939-16.674,1.216-23.769,3.854-43.352,3.882-43.548l1.435.2c-.026.194-2.657,19.723-3.87,43.426-.393,7.683-2.893,13.633-7.432,17.692C377.66,2162.633,370.218,2163.072,367.895,2163.072Z" transform="translate(47.809 1.637)" fill="#4d4d4d"/>
    <circle id="Elipse_4375" data-name="Elipse 4375" cx="3.841" cy="3.841" r="3.841" transform="translate(555.933 2146.104)" fill="#4d4d4d"/>
    <circle id="Elipse_4376" data-name="Elipse 4376" cx="3.841" cy="3.841" r="3.841" transform="translate(512.447 2146.104)" fill="#4d4d4d"/>
    <circle id="Elipse_4377" data-name="Elipse 4377" cx="3.841" cy="3.841" r="3.841" transform="translate(669.377 2146.104)" fill="#4d4d4d"/>
    <circle id="Elipse_4378" data-name="Elipse 4378" cx="3.841" cy="3.841" r="3.841" transform="translate(625.89 2146.104)" fill="#4d4d4d"/>
    <path id="Trazado_109707" data-name="Trazado 109707" d="M455.405,2191.22c-2.192-9.462,1.089-41.967,1.231-43.345,2.861-24.419,23.019-30.07,23.222-30.124l.374,1.4c-.194.052-19.414,5.477-22.155,28.88-.035.326-3.4,33.633-1.258,42.86Z" transform="translate(99.821 11.39)" fill="#4d4d4d"/>
    <path id="Trazado_109708" data-name="Trazado 109708" d="M438.643,2191.22l-1.413-.328c2.14-9.229-1.225-42.534-1.258-42.87-2.748-23.431-21.962-28.817-22.155-28.87l.372-1.4c.2.054,20.36,5.7,23.223,30.112C437.554,2149.253,440.833,2181.758,438.643,2191.22Z" transform="translate(81.463 11.39)" fill="#4d4d4d"/>
    <rect id="Rectángulo_10362" data-name="Rectángulo 10362" width="1.45" height="47.823" transform="translate(650.232 2102.627)" fill="#4d4d4d"/>
    <rect id="Rectángulo_10363" data-name="Rectángulo 10363" width="40.378" height="1.45" transform="translate(630.287 2149.726)" fill="#4d4d4d"/>
    <g id="Grupo_56550" data-name="Grupo 56550" transform="translate(714.691 2096.091)">
      <g id="Grupo_56549" data-name="Grupo 56549" transform="translate(0)">
        <path id="Trazado_109709" data-name="Trazado 109709" d="M659.292,2135.231a151.2,151.2,0,0,1,7.657-25.84l-33.528-13.865s-8.823,7.06-16.26,6.934c-7.438.126-16.261-6.934-16.261-6.934l-33.528,13.865a151.045,151.045,0,0,1,7.657,25.84c3.4,15.977-9.264,20.7-9.264,20.7l10.683,47.386h81.427l10.682-47.386S655.889,2151.208,659.292,2135.231Z" transform="translate(-564.919 -2094.694)" fill="#fff"/>
        <path id="Trazado_109710" data-name="Trazado 109710" d="M658.715,2204.3H576.131l-10.95-48.566.59-.224c.494-.185,12.039-4.724,8.81-19.874a151.924,151.924,0,0,0-7.613-25.7l-.291-.676,34.6-14.309.335.267c.084.068,8.56,6.775,15.609,6.775.125,0,.248,0,.373,0,7.081,0,15.548-6.707,15.632-6.775l.335-.267,34.605,14.309-.291.676a151.955,151.955,0,0,0-7.615,25.7c-3.228,15.15,8.316,19.689,8.81,19.874l.59.222Zm-81.427-1.449h80.269l10.424-46.242c-2.521-1.215-12.2-6.9-9.137-21.274h0a160.242,160.242,0,0,1,7.422-25.294l-32.472-13.429c-1.731,1.321-9.557,6.936-16.384,6.827H617.2c-6.793,0-14.438-5.523-16.151-6.829l-32.47,13.429a160.33,160.33,0,0,1,7.42,25.294c3.061,14.377-6.616,20.059-9.137,21.274Z" transform="translate(-565.181 -2094.952)" fill="#4d4d4d"/>
      </g>
      <circle id="Elipse_4379" data-name="Elipse 4379" cx="3.841" cy="3.841" r="3.841" transform="translate(69.928 50.724)" fill="#4d4d4d"/>
      <circle id="Elipse_4380" data-name="Elipse 4380" cx="3.841" cy="3.841" r="3.841" transform="translate(26.535 50.724)" fill="#4d4d4d"/>
      <path id="Trazado_109711" data-name="Trazado 109711" d="M651.563,2200.066a1.145,1.145,0,0,1-.6-.216l.228-.356-.262.109c-.588-.977-11.708-11.657-23.726-18.844-11.555-6.911-27.636-7.386-27.8-7.389-7.442-1.177-12.511-3.771-15.162-7.717a10.9,10.9,0,0,1-1.787-8.047c2.356-13.087,17.65-11.5,17.8-11.485l31.687.159a8.355,8.355,0,0,0,5.749-3.588c2.215-3.508.994-8.26.981-8.307-2.1-8.769-15.141-8.164-15.267-8.159-.242-.011-15.68-1.013-24.021-1.386-8-.358-11.14-3.79-11.691-4.478-6.778-4.717-9.547-18.584-9.663-19.175l1.425-.277c.026.139,2.795,14,9.15,18.32l.184.179c.023.034,2.731,3.627,10.66,3.982,8.354.374,23.809,1.377,23.963,1.387.509-.029,14.285-.677,16.665,9.251.054.2,1.393,5.379-1.158,9.427a9.783,9.783,0,0,1-6.848,4.26l-31.9-.154c-.649-.066-14.178-1.445-16.3,10.334a9.621,9.621,0,0,0,1.587,6.974c2.425,3.583,7.161,5.957,14.072,7.056.578.009,16.522.475,28.411,7.587,11.476,6.863,24.4,18.563,24.364,19.823l-.01.423-.384.216A.724.724,0,0,1,651.563,2200.066Zm.028-1.461a.749.749,0,0,0-.545.235l.351.326.344-.538A.387.387,0,0,0,651.591,2198.6Z" transform="translate(-559.403 -2092.274)" fill="#4d4d4d"/>
    </g>
    <g id="Grupo_56552" data-name="Grupo 56552" transform="translate(831.192 2096.09)">
      <g id="Grupo_56551" data-name="Grupo 56551">
        <path id="Trazado_109712" data-name="Trazado 109712" d="M739.661,2135.231a151.075,151.075,0,0,1,7.658-25.84l-33.53-13.867s-8.822,7.059-16.259,6.933c-7.436.126-16.26-6.933-16.26-6.933l-33.53,13.867a151.073,151.073,0,0,1,7.658,25.84c3.4,15.976-9.264,20.7-9.264,20.7l10.682,47.387h81.427l10.683-47.387S736.257,2151.207,739.661,2135.231Z" transform="translate(-645.289 -2094.693)" fill="#fff"/>
        <path id="Trazado_109713" data-name="Trazado 109713" d="M739.084,2204.3H656.5l-10.948-48.567.59-.222c.494-.187,12.039-4.726,8.809-19.875a151.849,151.849,0,0,0-7.613-25.7l-.291-.674,34.605-14.312.335.267c.084.068,8.56,6.775,15.607,6.775h.373c7.074,0,15.549-6.707,15.633-6.775l.335-.267,34.6,14.31-.292.676a151.86,151.86,0,0,0-7.613,25.7c-3.228,15.149,8.316,19.688,8.81,19.875l.59.222Zm-81.426-1.449h80.269l10.424-46.242c-2.521-1.216-12.2-6.9-9.137-21.275a160.3,160.3,0,0,1,7.42-25.293l-32.47-13.429c-1.713,1.3-9.361,6.827-16.174,6.827h-.42c-6.791,0-14.436-5.523-16.15-6.827l-32.472,13.429a160.1,160.1,0,0,1,7.42,25.293c3.063,14.378-6.614,20.059-9.135,21.275Z" transform="translate(-645.551 -2094.951)" fill="#4d4d4d"/>
      </g>
      <circle id="Elipse_4381" data-name="Elipse 4381" cx="3.841" cy="3.841" r="3.841" transform="translate(69.927 50.724)" fill="#4d4d4d"/>
      <circle id="Elipse_4382" data-name="Elipse 4382" cx="3.841" cy="3.841" r="3.841" transform="translate(26.535 50.724)" fill="#4d4d4d"/>
      <path id="Trazado_109714" data-name="Trazado 109714" d="M664.749,2201.447l-1.344-.541c.094-.235,9.471-23.622,11.46-29.214s3.186-17.924-1.638-21.484c-5.336-3.938-9.818-10.614-10-10.9-9.147-12.957-3.5-38.072-3.256-39.136l1.413.326c-.058.254-5.746,25.547,3.037,37.99.057.081,4.544,6.764,9.671,10.548,5.734,4.231,4.192,17.369,2.141,23.136C674.232,2177.8,664.844,2201.211,664.749,2201.447Z" transform="translate(-639.945 -2092.601)" fill="#4d4d4d"/>
      <path id="Trazado_109715" data-name="Trazado 109715" d="M705.509,2201.447c-.094-.236-9.482-23.649-11.481-29.27-2.051-5.768-3.591-18.9,2.144-23.136,5.127-3.784,9.614-10.467,9.658-10.534,8.8-12.463,3.1-37.751,3.047-38l1.413-.326c.245,1.064,5.891,26.179-3.266,39.152-.177.266-4.657,6.942-9.992,10.88-4.827,3.562-3.633,15.879-1.64,21.482s11.366,28.981,11.46,29.216Z" transform="translate(-624.59 -2092.601)" fill="#4d4d4d"/>
    </g>
    <g id="Grupo_56554" data-name="Grupo 56554" transform="translate(946.6 2096.09)">
      <g id="Grupo_56553" data-name="Grupo 56553" transform="translate(0)">
        <path id="Trazado_109716" data-name="Trazado 109716" d="M819.278,2135.231a151.079,151.079,0,0,1,7.658-25.84l-33.53-13.867s-8.824,7.059-16.26,6.933c-7.438.126-16.261-6.933-16.261-6.933l-33.528,13.867a151.017,151.017,0,0,1,7.656,25.84c3.4,15.976-9.264,20.7-9.264,20.7l10.683,47.387h81.427l10.682-47.387S815.875,2151.207,819.278,2135.231Z" transform="translate(-724.905 -2094.693)" fill="#fff"/>
        <path id="Trazado_109717" data-name="Trazado 109717" d="M818.7,2204.3H736.115l-10.949-48.567.59-.222c.494-.187,12.039-4.726,8.812-19.875a152.091,152.091,0,0,0-7.614-25.7l-.293-.676,34.605-14.31.335.267c.086.068,8.56,6.775,15.609,6.775h.371c7.074,0,15.549-6.707,15.635-6.775l.333-.267,34.605,14.31-.291.676a152.153,152.153,0,0,0-7.615,25.7h0c-3.228,15.149,8.316,19.688,8.81,19.875l.59.222Zm-81.428-1.449h80.269l10.424-46.242c-2.521-1.216-12.2-6.9-9.137-21.275a159.958,159.958,0,0,1,7.423-25.293l-32.473-13.429c-1.729,1.319-9.516,6.988-16.386,6.826h-.209c-6.791,0-14.436-5.523-16.149-6.827l-32.472,13.429a160.226,160.226,0,0,1,7.422,25.293c3.061,14.378-6.614,20.059-9.136,21.275Z" transform="translate(-725.167 -2094.951)" fill="#4d4d4d"/>
      </g>
      <circle id="Elipse_4383" data-name="Elipse 4383" cx="3.841" cy="3.841" r="3.841" transform="translate(69.928 50.724)" fill="#4d4d4d"/>
      <circle id="Elipse_4384" data-name="Elipse 4384" cx="3.841" cy="3.841" r="3.841" transform="translate(26.536 50.724)" fill="#4d4d4d"/>
      <path id="Trazado_109718" data-name="Trazado 109718" d="M799.661,2176.015c-1.148-.634-28.059-15.742-23.961-35.263,4.07-19.4,23.87-26.566,24.07-26.636l.481,1.367c-.193.068-19.233,6.979-23.133,25.566-3.876,18.473,22.972,33.547,23.244,33.7Z" transform="translate(-702.64 -2086.335)" fill="#4d4d4d"/>
      <path id="Trazado_109719" data-name="Trazado 109719" d="M778.834,2195.485c-6.094-6.182-17.929-22.114-26.427-37.072a71.386,71.386,0,0,1-7.167-17.336c-2.484-8.688,16.154-17.348,16.948-17.712,14.12-7.816,49.765-9.221,51.275-9.277l.054,1.449c-.367.013-36.81,1.447-50.675,9.119-.232.109-18.351,8.524-16.2,16.057a71.289,71.289,0,0,0,7.025,16.984c8.438,14.855,20.169,30.654,26.2,36.771Z" transform="translate(-716.245 -2086.348)" fill="#4d4d4d"/>
    </g>
    <g id="Grupo_56556" data-name="Grupo 56556" transform="translate(1060.179 2095.272)">
      <g id="Grupo_56555" data-name="Grupo 56555">
        <path id="Trazado_109720" data-name="Trazado 109720" d="M897.632,2134.667a151.169,151.169,0,0,1,7.657-25.84l-33.528-13.867s-8.824,7.059-16.26,6.933c-7.438.126-16.261-6.933-16.261-6.933l-33.528,13.867a151.174,151.174,0,0,1,7.656,25.84c3.4,15.977-9.264,20.7-9.264,20.7l10.683,47.387h81.426L906.9,2155.37S894.229,2150.645,897.632,2134.667Z" transform="translate(-803.259 -2094.129)" fill="#fff"/>
        <path id="Trazado_109721" data-name="Trazado 109721" d="M897.055,2203.74H814.469l-10.948-48.567.59-.222c.494-.187,12.039-4.726,8.81-19.875a152.206,152.206,0,0,0-7.613-25.7l-.292-.674,34.6-14.311.333.266c.085.068,8.561,6.776,15.61,6.776.125,0,.248,0,.373,0,7.081,0,15.547-6.707,15.632-6.776l.335-.266,34.605,14.31-.293.676a152.206,152.206,0,0,0-7.613,25.7h0c-3.228,15.149,8.316,19.688,8.81,19.875l.59.222Zm-81.427-1.449H895.9l10.424-46.242c-2.522-1.217-12.2-6.9-9.135-21.275h0a160.11,160.11,0,0,1,7.42-25.293l-32.472-13.429c-1.732,1.319-9.568,6.964-16.384,6.826-.07,0-.141,0-.21,0-6.791,0-14.437-5.522-16.15-6.827l-32.471,13.429a160.067,160.067,0,0,1,7.422,25.293c3.062,14.378-6.616,20.059-9.136,21.275Z" transform="translate(-803.521 -2094.387)" fill="#4d4d4d"/>
      </g>
      <circle id="Elipse_4385" data-name="Elipse 4385" cx="3.841" cy="3.841" r="3.841" transform="translate(69.928 50.724)" fill="#4d4d4d"/>
      <circle id="Elipse_4386" data-name="Elipse 4386" cx="3.841" cy="3.841" r="3.841" transform="translate(26.535 50.724)" fill="#4d4d4d"/>
      <path id="Trazado_109722" data-name="Trazado 109722" d="M810.678,2199.483,811.93,2198c16.777-19.862,18.015-48.931,18.025-49.221l.01-.271,2.157-2.3c14.106-16.817,52.738-46.15,53.126-46.444l.875,1.154c-.387.294-38.889,29.531-52.918,46.25l-1.816,1.94c-.164,2.969-2.024,29.151-17.067,48.253,6.94-1.554,30.913-8.25,48.144-29.474.159-.187,14.93-17.9,26.579-66.014l1.41.339c-11.744,48.515-26.726,66.427-26.876,66.6-20.6,25.37-50.684,30.323-50.985,30.37Z" transform="translate(-800.303 -2091.97)" fill="#4d4d4d"/>
    </g>
    <g id="Grupo_56558" data-name="Grupo 56558" transform="translate(236.215 2223.896)">
      <g id="Grupo_56557" data-name="Grupo 56557">
        <path id="Trazado_109723" data-name="Trazado 109723" d="M329.207,2223.4a151.117,151.117,0,0,1,7.658-25.84l-33.528-13.865s-8.823,7.06-16.261,6.933c-7.436.126-16.26-6.933-16.26-6.933l-33.528,13.865a151.2,151.2,0,0,1,7.657,25.84c3.4,15.977-9.264,20.7-9.264,20.7l10.682,47.386h81.428l10.683-47.386S325.8,2239.376,329.207,2223.4Z" transform="translate(-234.835 -2182.862)" fill="#fff"/>
        <path id="Trazado_109724" data-name="Trazado 109724" d="M328.631,2292.472H246.045L235.1,2243.906l.59-.224c.494-.187,12.039-4.725,8.81-19.875a152.106,152.106,0,0,0-7.613-25.7l-.291-.675,34.6-14.31.333.267c.086.069,8.561,6.774,15.61,6.774.125,0,.248,0,.373,0,7.081,0,15.546-6.705,15.632-6.774l.333-.267,34.605,14.309-.291.677a152.221,152.221,0,0,0-7.615,25.7h0c-3.227,15.149,8.318,19.688,8.81,19.875l.591.224Zm-81.427-1.449h80.269L337.9,2244.78c-2.522-1.216-12.2-6.9-9.137-21.275h0a160.262,160.262,0,0,1,7.422-25.293l-32.472-13.429c-1.732,1.319-9.461,6.942-16.384,6.826-6.9.161-14.629-5.507-16.36-6.826l-32.472,13.429a159.979,159.979,0,0,1,7.42,25.293c3.063,14.378-6.614,20.059-9.135,21.275Z" transform="translate(-235.097 -2183.12)" fill="#4d4d4d"/>
      </g>
      <circle id="Elipse_4387" data-name="Elipse 4387" cx="3.841" cy="3.841" r="3.841" transform="translate(69.927 50.724)" fill="#4d4d4d"/>
      <circle id="Elipse_4388" data-name="Elipse 4388" cx="3.841" cy="3.841" r="3.841" transform="translate(26.535 50.724)" fill="#4d4d4d"/>
      <path id="Trazado_109725" data-name="Trazado 109725" d="M277.67,2281.1,258.1,2233.1c-.241-.387-6.913-11.841-1.9-20.306a6.837,6.837,0,0,1,4.488-3.259c6.148-1.445,15.043,3.718,17.008,4.925,2.579-1.471,16.682-9.026,22.241-1.867,5.885,7.588-8.393,35.755-9,36.95Zm-14.632-70.38a8.732,8.732,0,0,0-2.022.219,5.365,5.365,0,0,0-3.57,2.586c-4.57,7.723,1.884,18.813,1.951,18.924l18.292,44.861,11.928-28.385c4.065-7.964,13.591-29.756,9.17-35.451-5.211-6.721-20.579,2.354-20.736,2.445l-.386.232-.38-.245C277.2,2215.852,269.167,2210.723,263.038,2210.723Z" transform="translate(-226.447 -2171.361)" fill="#4d4d4d"/>
    </g>
    <g id="Grupo_56562" data-name="Grupo 56562" transform="translate(358.756 2224.286)">
      <g id="Grupo_56559" data-name="Grupo 56559">
        <path id="Trazado_109726" data-name="Trazado 109726" d="M413.744,2223.669a151.059,151.059,0,0,1,7.658-25.84l-33.53-13.867s-8.823,7.06-16.26,6.934c-7.436.126-16.26-6.934-16.26-6.934l-33.53,13.867a151.057,151.057,0,0,1,7.658,25.84c3.4,15.976-9.264,20.7-9.264,20.7L330.9,2291.76h81.428l10.683-47.387S410.34,2239.645,413.744,2223.669Z" transform="translate(-319.372 -2183.131)" fill="#fff"/>
        <path id="Trazado_109727" data-name="Trazado 109727" d="M413.167,2292.742H330.581l-10.947-48.567.59-.222c.494-.187,12.039-4.726,8.81-19.875a151.919,151.919,0,0,0-7.615-25.7l-.291-.676,34.605-14.31.333.267c.086.068,8.561,6.775,15.609,6.775.125,0,.248,0,.372,0,7.074,0,15.548-6.707,15.633-6.775l.335-.267,34.605,14.31-.293.676a152.15,152.15,0,0,0-7.615,25.7h0c-3.227,15.149,8.318,19.688,8.812,19.875l.59.222Zm-81.427-1.45h80.269l10.425-46.242c-2.522-1.216-12.2-6.9-9.137-21.275a160.076,160.076,0,0,1,7.422-25.293l-32.472-13.43c-1.732,1.321-9.482,6.99-16.386,6.828h-.21c-6.79,0-14.436-5.523-16.148-6.829l-32.473,13.43a160.169,160.169,0,0,1,7.423,25.293c3.061,14.378-6.616,20.059-9.137,21.275Z" transform="translate(-319.634 -2183.389)" fill="#4d4d4d"/>
      </g>
      <circle id="Elipse_4389" data-name="Elipse 4389" cx="3.841" cy="3.841" r="3.841" transform="translate(69.927 50.724)" fill="#4d4d4d"/>
      <circle id="Elipse_4390" data-name="Elipse 4390" cx="3.841" cy="3.841" r="3.841" transform="translate(26.535 50.724)" fill="#4d4d4d"/>
      <rect id="Rectángulo_10364" data-name="Rectángulo 10364" width="1.45" height="53.791" transform="translate(50.359 7.765)" fill="#4d4d4d"/>
      <g id="Grupo_56560" data-name="Grupo 56560" transform="translate(52.643 39.344)">
        <path id="Trazado_109728" data-name="Trazado 109728" d="M375.353,2214.182c-1.47-.374-2.938-.645-4.4-.885a35.454,35.454,0,0,0-4.4-.4,24.788,24.788,0,0,0-4.385.241,26.283,26.283,0,0,0-4.336,1.048A12.985,12.985,0,0,1,362,2212.3a16.548,16.548,0,0,1,4.583-.5A19.029,19.029,0,0,1,375.353,2214.182Z" transform="translate(-355.105 -2209.963)" fill="#4d4d4d"/>
        <path id="Trazado_109729" data-name="Trazado 109729" d="M375.958,2216.11c-1.47-.375-2.938-.645-4.4-.884a35.455,35.455,0,0,0-4.4-.4,24.787,24.787,0,0,0-4.385.24,26.331,26.331,0,0,0-4.336,1.048,12.922,12.922,0,0,1,4.167-1.879,16.534,16.534,0,0,1,4.582-.5A19.027,19.027,0,0,1,375.958,2216.11Z" transform="translate(-354.833 -2209.096)" fill="#4d4d4d"/>
        <path id="Trazado_109730" data-name="Trazado 109730" d="M375.958,2218.252c-1.47-.374-2.938-.643-4.4-.883a35.646,35.646,0,0,0-4.4-.406,24.881,24.881,0,0,0-4.385.242,26.473,26.473,0,0,0-4.336,1.047,12.955,12.955,0,0,1,4.167-1.877,16.543,16.543,0,0,1,4.582-.5A19.045,19.045,0,0,1,375.958,2218.252Z" transform="translate(-354.833 -2208.132)" fill="#4d4d4d"/>
        <path id="Trazado_109731" data-name="Trazado 109731" d="M357.832,2218.614a66.617,66.617,0,0,0,8.786.857,36.38,36.38,0,0,0,4.368-.149,37.988,37.988,0,0,0,4.367-.708,14.95,14.95,0,0,1-4.24,1.547,20.4,20.4,0,0,1-4.517.4A22.193,22.193,0,0,1,357.832,2218.614Z" transform="translate(-355.105 -2206.897)" fill="#4d4d4d"/>
        <path id="Trazado_109732" data-name="Trazado 109732" d="M358.049,2220.057a66.718,66.718,0,0,0,8.787.856,36.542,36.542,0,0,0,4.368-.149,37.85,37.85,0,0,0,4.366-.707,14.937,14.937,0,0,1-4.238,1.545,20.372,20.372,0,0,1-4.518.4A22.216,22.216,0,0,1,358.049,2220.057Z" transform="translate(-355.007 -2206.249)" fill="#4d4d4d"/>
        <path id="Trazado_109733" data-name="Trazado 109733" d="M358.049,2222.449a66.965,66.965,0,0,0,8.787.855,36.288,36.288,0,0,0,4.368-.149,38.434,38.434,0,0,0,4.366-.706,14.98,14.98,0,0,1-4.238,1.545,20.371,20.371,0,0,1-4.518.4A22.232,22.232,0,0,1,358.049,2222.449Z" transform="translate(-355.007 -2205.173)" fill="#4d4d4d"/>
        <path id="Trazado_109734" data-name="Trazado 109734" d="M358.049,2224.084a66.923,66.923,0,0,0,8.787.855,36.288,36.288,0,0,0,4.368-.149,38.38,38.38,0,0,0,4.366-.706,14.981,14.981,0,0,1-4.238,1.545,20.4,20.4,0,0,1-4.518.4A22.236,22.236,0,0,1,358.049,2224.084Z" transform="translate(-355.007 -2204.438)" fill="#4d4d4d"/>
        <path id="Trazado_109735" data-name="Trazado 109735" d="M359.71,2210.531c-.38.962-.751,1.916-1.032,2.9-.322.968-.59,1.952-.815,2.943a32.5,32.5,0,0,0-.807,5.993,22.937,22.937,0,0,0,.536,5.983l.357,1.473.526,1.425a29.838,29.838,0,0,0,1.235,2.816,16.387,16.387,0,0,1-2.925-5.5,18.285,18.285,0,0,1-.815-6.238,23.248,23.248,0,0,1,1.092-6.177A21.872,21.872,0,0,1,359.71,2210.531Z" transform="translate(-355.951 -2210.531)" fill="#4d4d4d"/>
      </g>
      <g id="Grupo_56561" data-name="Grupo 56561" transform="translate(27.629 39.344)">
        <path id="Trazado_109736" data-name="Trazado 109736" d="M339.3,2214.182a19.024,19.024,0,0,1,8.77-2.376,16.544,16.544,0,0,1,4.582.5,13.006,13.006,0,0,1,4.169,1.879,26.3,26.3,0,0,0-4.337-1.048,24.782,24.782,0,0,0-4.385-.241,35.454,35.454,0,0,0-4.4.4C342.236,2213.537,340.767,2213.808,339.3,2214.182Z" transform="translate(-338.422 -2209.963)" fill="#4d4d4d"/>
        <path id="Trazado_109737" data-name="Trazado 109737" d="M338.694,2216.11a19.021,19.021,0,0,1,8.77-2.376,16.546,16.546,0,0,1,4.584.5,12.936,12.936,0,0,1,4.167,1.879,26.331,26.331,0,0,0-4.336-1.048,24.8,24.8,0,0,0-4.386-.24,35.481,35.481,0,0,0-4.4.4C341.632,2215.465,340.162,2215.735,338.694,2216.11Z" transform="translate(-338.694 -2209.096)" fill="#4d4d4d"/>
        <path id="Trazado_109738" data-name="Trazado 109738" d="M338.694,2218.252a19.04,19.04,0,0,1,8.77-2.374,16.555,16.555,0,0,1,4.584.5,12.969,12.969,0,0,1,4.167,1.877,26.473,26.473,0,0,0-4.336-1.047,24.89,24.89,0,0,0-4.386-.242,35.672,35.672,0,0,0-4.4.406C341.632,2217.609,340.162,2217.878,338.694,2218.252Z" transform="translate(-338.694 -2208.132)" fill="#4d4d4d"/>
        <path id="Trazado_109739" data-name="Trazado 109739" d="M356.82,2218.614a22.2,22.2,0,0,1-8.764,1.943,20.407,20.407,0,0,1-4.518-.4,14.925,14.925,0,0,1-4.238-1.547,38.012,38.012,0,0,0,4.366.708,36.389,36.389,0,0,0,4.368.149A66.639,66.639,0,0,0,356.82,2218.614Z" transform="translate(-338.422 -2206.897)" fill="#4d4d4d"/>
        <path id="Trazado_109740" data-name="Trazado 109740" d="M356.6,2220.057a22.2,22.2,0,0,1-8.764,1.942,20.351,20.351,0,0,1-4.517-.4,14.948,14.948,0,0,1-4.24-1.545,37.927,37.927,0,0,0,4.368.707,36.532,36.532,0,0,0,4.368.149A66.7,66.7,0,0,0,356.6,2220.057Z" transform="translate(-338.52 -2206.249)" fill="#4d4d4d"/>
        <path id="Trazado_109741" data-name="Trazado 109741" d="M356.6,2222.449a22.22,22.22,0,0,1-8.764,1.941,20.351,20.351,0,0,1-4.517-.4,14.991,14.991,0,0,1-4.24-1.545,38.513,38.513,0,0,0,4.368.706,36.279,36.279,0,0,0,4.368.149A66.944,66.944,0,0,0,356.6,2222.449Z" transform="translate(-338.52 -2205.173)" fill="#4d4d4d"/>
        <path id="Trazado_109742" data-name="Trazado 109742" d="M356.6,2224.084a22.225,22.225,0,0,1-8.764,1.941,20.38,20.38,0,0,1-4.517-.4,14.991,14.991,0,0,1-4.24-1.545,38.458,38.458,0,0,0,4.368.706,36.279,36.279,0,0,0,4.368.149A66.9,66.9,0,0,0,356.6,2224.084Z" transform="translate(-338.52 -2204.438)" fill="#4d4d4d"/>
        <path id="Trazado_109743" data-name="Trazado 109743" d="M350.674,2210.531a21.972,21.972,0,0,1,2.648,5.626,23.308,23.308,0,0,1,1.091,6.177,18.283,18.283,0,0,1-.815,6.238,16.412,16.412,0,0,1-2.925,5.5,30.2,30.2,0,0,0,1.234-2.816l.528-1.425.357-1.473a23,23,0,0,0,.536-5.983,32.5,32.5,0,0,0-.809-5.993,30.346,30.346,0,0,0-.815-2.943C351.425,2212.447,351.052,2211.493,350.674,2210.531Z" transform="translate(-333.308 -2210.531)" fill="#4d4d4d"/>
      </g>
    </g>
    <g id="Grupo_56564" data-name="Grupo 56564" transform="translate(480.032 2224.286)">
      <g id="Grupo_56563" data-name="Grupo 56563">
        <path id="Trazado_109744" data-name="Trazado 109744" d="M497.409,2223.669a151.067,151.067,0,0,1,7.658-25.84l-33.53-13.865s-8.823,7.058-16.26,6.932c-7.436.126-16.26-6.932-16.26-6.932l-33.53,13.865a151.066,151.066,0,0,1,7.658,25.84c3.4,15.977-9.264,20.7-9.264,20.7l10.682,47.387h81.427l10.683-47.387S494.005,2239.646,497.409,2223.669Z" transform="translate(-403.035 -2183.13)" fill="#fff"/>
        <path id="Trazado_109745" data-name="Trazado 109745" d="M496.834,2292.742H414.248l-10.95-48.567.59-.222c.494-.187,12.039-4.726,8.812-19.875a152.184,152.184,0,0,0-7.613-25.7l-.293-.674,34.605-14.312.333.267c.086.068,8.56,6.775,15.61,6.775.125,0,.246,0,.371,0,7.081,0,15.548-6.707,15.634-6.775l.333-.267,34.605,14.31-.291.676a152.316,152.316,0,0,0-7.615,25.7h0c-3.228,15.149,8.316,19.688,8.81,19.875l.59.222Zm-81.427-1.45h80.269L506.1,2245.05c-2.521-1.216-12.2-6.9-9.135-21.275h0a160.078,160.078,0,0,1,7.422-25.293l-32.473-13.428c-1.731,1.318-9.487,6.914-16.383,6.826-6.866.177-14.629-5.507-16.361-6.826l-32.47,13.428a160.147,160.147,0,0,1,7.42,25.293c3.061,14.378-6.614,20.059-9.137,21.275Z" transform="translate(-403.298 -2183.389)" fill="#4d4d4d"/>
      </g>
      <circle id="Elipse_4391" data-name="Elipse 4391" cx="3.841" cy="3.841" r="3.841" transform="translate(69.928 50.725)" fill="#4d4d4d"/>
      <circle id="Elipse_4392" data-name="Elipse 4392" cx="3.841" cy="3.841" r="3.841" transform="translate(26.536 50.725)" fill="#4d4d4d"/>
      <path id="Trazado_109746" data-name="Trazado 109746" d="M494.394,2282.023l-2.2-1.019c-20.539-9.519-52.18-38.656-52.5-38.95-.393-.42-8.773-9.472-9.541-14.993a23.563,23.563,0,0,0-3.709-9.316c-5.366-9.064-16.8-9.6-16.913-9.608l.057-1.45c.5.021,12.339.582,18.069,10.263a24.566,24.566,0,0,1,3.933,9.912c.706,5.072,9.045,14.075,9.129,14.165.267.245,29.539,27.2,49.861,37.574-4.124-6.775-16.561-27.688-18.7-36.788-2.6-11.056,1.776-14.383,1.963-14.519l22.02-21.5,1.015,1.037-22.1,21.569c-.113.092-3.841,3.072-1.486,13.084,2.466,10.474,19.653,38.2,19.827,38.479Z" transform="translate(-400.496 -2173.317)" fill="#4d4d4d"/>
    </g>
    <g id="Grupo_56566" data-name="Grupo 56566" transform="translate(593.792 2224.286)">
      <g id="Grupo_56565" data-name="Grupo 56565">
        <path id="Trazado_109747" data-name="Trazado 109747" d="M575.888,2223.669a151,151,0,0,1,7.657-25.84l-33.528-13.865s-8.823,7.058-16.261,6.932c-7.436.126-16.26-6.932-16.26-6.932l-33.528,13.865a151.153,151.153,0,0,1,7.657,25.84c3.4,15.977-9.264,20.7-9.264,20.7l10.682,47.387h81.428l10.683-47.387S572.485,2239.646,575.888,2223.669Z" transform="translate(-481.515 -2183.13)" fill="#fff"/>
        <path id="Trazado_109748" data-name="Trazado 109748" d="M575.311,2292.742H492.726l-10.949-48.567.59-.222c.494-.187,12.039-4.726,8.81-19.875a152.024,152.024,0,0,0-7.613-25.7l-.291-.674,34.6-14.312.335.267c.084.068,8.56,6.775,15.609,6.775.126,0,.248,0,.373,0,7.081,0,15.548-6.707,15.632-6.775l.335-.267,34.605,14.31-.293.676a152.244,152.244,0,0,0-7.613,25.7h0c-3.228,15.149,8.316,19.688,8.81,19.875l.59.222Zm-81.427-1.45h80.269l10.424-46.242c-2.522-1.216-12.2-6.9-9.137-21.275h0a160.231,160.231,0,0,1,7.422-25.293l-32.472-13.428c-1.731,1.318-9.547,6.914-16.384,6.826H533.8c-6.793,0-14.438-5.523-16.151-6.827l-32.47,13.428a160.305,160.305,0,0,1,7.42,25.293c3.061,14.378-6.616,20.059-9.137,21.275Z" transform="translate(-481.777 -2183.389)" fill="#4d4d4d"/>
      </g>
      <circle id="Elipse_4393" data-name="Elipse 4393" cx="3.841" cy="3.841" r="3.841" transform="translate(69.927 50.725)" fill="#4d4d4d"/>
      <circle id="Elipse_4394" data-name="Elipse 4394" cx="3.841" cy="3.841" r="3.841" transform="translate(26.535 50.725)" fill="#4d4d4d"/>
      <path id="Trazado_109749" data-name="Trazado 109749" d="M503.22,2236.748l-.745-1.244,19.794-11.849c-2.353-1.545-7.5-6.013-7.048-15.265a44.7,44.7,0,0,1,5.591-19.821l1.232.764a44.1,44.1,0,0,0-5.376,19.129c-.536,10.911,7.244,14.487,7.322,14.522l1.278.566Z" transform="translate(-472.472 -2181.06)" fill="#4d4d4d"/>
      <path id="Trazado_109750" data-name="Trazado 109750" d="M540.481,2236.865l-22.042-13.194,1.27-.571c.322-.143,7.858-3.653,7.325-14.522a45.389,45.389,0,0,0-5.585-19.508l1.235-.761a45.984,45.984,0,0,1,5.8,20.2c.455,9.253-4.7,13.72-7.049,15.266l19.8,11.848Z" transform="translate(-465.295 -2181.177)" fill="#4d4d4d"/>
    </g>
    <g id="Grupo_56568" data-name="Grupo 56568" transform="translate(712.179 2224.286)">
      <g id="Grupo_56567" data-name="Grupo 56567">
        <path id="Trazado_109751" data-name="Trazado 109751" d="M657.558,2223.669a151.072,151.072,0,0,1,7.658-25.84l-33.528-13.865s-8.824,7.058-16.261,6.932c-7.436.126-16.26-6.932-16.26-6.932l-33.528,13.865a151.163,151.163,0,0,1,7.656,25.84c3.4,15.977-9.264,20.7-9.264,20.7l10.682,47.387H656.14l10.683-47.387S654.156,2239.646,657.558,2223.669Z" transform="translate(-563.186 -2183.13)" fill="#fff"/>
        <path id="Trazado_109752" data-name="Trazado 109752" d="M656.982,2292.742H574.4l-10.948-48.567.59-.222c.494-.187,12.039-4.726,8.81-19.875a152.2,152.2,0,0,0-7.613-25.7l-.292-.674,34.6-14.312.333.267c.086.068,8.741,6.838,15.8,6.774.062,0,.125,0,.187,0,7.081,0,15.547-6.707,15.632-6.775l.333-.267,34.607,14.31-.293.676a152.313,152.313,0,0,0-7.615,25.7h0c-3.227,15.149,8.318,19.688,8.812,19.875l.59.222Zm-81.427-1.45h80.269l10.424-46.242c-2.522-1.216-12.2-6.9-9.137-21.275h0a160.234,160.234,0,0,1,7.422-25.293l-32.471-13.428c-1.732,1.318-9.495,6.914-16.384,6.826-6.807.177-14.63-5.507-16.36-6.826l-32.472,13.428a160.073,160.073,0,0,1,7.422,25.293c3.061,14.378-6.616,20.059-9.136,21.275Z" transform="translate(-563.448 -2183.389)" fill="#4d4d4d"/>
      </g>
      <circle id="Elipse_4395" data-name="Elipse 4395" cx="3.841" cy="3.841" r="3.841" transform="translate(69.927 50.725)" fill="#4d4d4d"/>
      <circle id="Elipse_4396" data-name="Elipse 4396" cx="3.841" cy="3.841" r="3.841" transform="translate(26.535 50.725)" fill="#4d4d4d"/>
      <path id="Trazado_109753" data-name="Trazado 109753" d="M604.4,2187.942a63.354,63.354,0,0,0,2.518,6.419,55.084,55.084,0,0,0,3.241,6.021,40.223,40.223,0,0,0,4.063,5.471l1.154,1.265,1.251,1.17c.783.851,1.761,1.458,2.622,2.249a23.688,23.688,0,0,1-5.632-4.105,28.833,28.833,0,0,1-4.38-5.472,35.439,35.439,0,0,1-3.088-6.278A30.622,30.622,0,0,1,604.4,2187.942Z" transform="translate(-545.038 -2181.342)" fill="#4d4d4d"/>
      <path id="Trazado_109754" data-name="Trazado 109754" d="M600.93,2189.256c.628,3.464,1.26,6.918,1.945,10.36s1.389,6.876,2.251,10.271a103,103,0,0,0,2.843,10.094c.52,1.672,1.183,3.287,1.861,4.9l1.118,2.374,1.347,2.261a31.668,31.668,0,0,1-5.111-9.245,83.634,83.634,0,0,1-3.112-10.126c-.78-3.441-1.506-6.894-2.016-10.383S601.113,2192.775,600.93,2189.256Z" transform="translate(-546.598 -2180.751)" fill="#4d4d4d"/>
      <path id="Trazado_109755" data-name="Trazado 109755" d="M601.721,2189.256c-.183,3.519-.609,7.018-1.125,10.5s-1.235,6.942-2.015,10.383a83.9,83.9,0,0,1-3.112,10.126,31.668,31.668,0,0,1-5.112,9.245l1.348-2.261,1.118-2.374c.677-1.611,1.339-3.226,1.86-4.9a103.419,103.419,0,0,0,2.844-10.094c.861-3.4,1.567-6.83,2.25-10.271S601.094,2192.721,601.721,2189.256Z" transform="translate(-551.351 -2180.751)" fill="#4d4d4d"/>
      <path id="Trazado_109756" data-name="Trazado 109756" d="M598.23,2188.886a54.466,54.466,0,0,1-.57,7.993,62.235,62.235,0,0,1-1.592,7.874,48.4,48.4,0,0,1-2.753,7.565,29.193,29.193,0,0,1-4.35,6.743,45.94,45.94,0,0,0,3.583-7.078,78.072,78.072,0,0,0,2.471-7.517c.713-2.544,1.27-5.132,1.818-7.726C597.363,2194.141,597.818,2191.524,598.23,2188.886Z" transform="translate(-551.976 -2180.918)" fill="#4d4d4d"/>
      <path id="Trazado_109757" data-name="Trazado 109757" d="M598.836,2188.886a29.209,29.209,0,0,1-1.708,6.675,34,34,0,0,1-3.082,6.2,28.38,28.38,0,0,1-4.357,5.394,24.321,24.321,0,0,1-5.55,4.091c.842-.792,1.8-1.411,2.574-2.251l1.235-1.161,1.136-1.257a39.6,39.6,0,0,0,4.043-5.4,52.307,52.307,0,0,0,3.232-5.939A58.566,58.566,0,0,0,598.836,2188.886Z" transform="translate(-554.146 -2180.918)" fill="#4d4d4d"/>
      <path id="Trazado_109758" data-name="Trazado 109758" d="M600.93,2189.256c1,1.25,1.869,2.554,2.758,3.84l1.344,1.907a8.189,8.189,0,0,0,1.58,1.706,4.762,4.762,0,0,1-2-1.341,14.272,14.272,0,0,1-1.518-1.863A17.829,17.829,0,0,1,600.93,2189.256Z" transform="translate(-546.598 -2180.751)" fill="#4d4d4d"/>
    </g>
    <g id="Grupo_56571" data-name="Grupo 56571" transform="translate(833.018 2224.286)">
      <g id="Grupo_56569" data-name="Grupo 56569">
        <path id="Trazado_109759" data-name="Trazado 109759" d="M740.921,2223.669a151.072,151.072,0,0,1,7.658-25.84l-33.53-13.865s-8.822,7.058-16.26,6.932c-7.436.126-16.26-6.932-16.26-6.932L649,2197.829a151.162,151.162,0,0,1,7.657,25.84c3.4,15.977-9.264,20.7-9.264,20.7l10.682,47.387H739.5l10.683-47.387S737.517,2239.646,740.921,2223.669Z" transform="translate(-646.549 -2183.13)" fill="#fff"/>
        <path id="Trazado_109760" data-name="Trazado 109760" d="M740.344,2292.742H657.76l-10.949-48.567.59-.222c.494-.187,12.039-4.726,8.809-19.875a151.866,151.866,0,0,0-7.613-25.7l-.291-.674,34.605-14.312.335.267c.084.068,8.56,6.775,15.607,6.775.125,0,.248,0,.372,0,7.074,0,15.549-6.707,15.633-6.775l.335-.267,34.6,14.31-.291.676a151.913,151.913,0,0,0-7.613,25.7h0c-3.228,15.149,8.316,19.688,8.81,19.875l.59.222Zm-81.426-1.45h80.269l10.424-46.242c-2.521-1.216-12.2-6.9-9.137-21.275a160.294,160.294,0,0,1,7.42-25.293l-32.47-13.428c-1.713,1.3-9.361,6.827-16.174,6.827h-.42c-6.791,0-14.436-5.523-16.15-6.827l-32.472,13.428a160.14,160.14,0,0,1,7.42,25.293c3.063,14.378-6.614,20.059-9.135,21.275Z" transform="translate(-646.811 -2183.389)" fill="#4d4d4d"/>
      </g>
      <circle id="Elipse_4397" data-name="Elipse 4397" cx="3.841" cy="3.841" r="3.841" transform="translate(69.927 50.725)" fill="#4d4d4d"/>
      <circle id="Elipse_4398" data-name="Elipse 4398" cx="3.841" cy="3.841" r="3.841" transform="translate(26.535 50.725)" fill="#4d4d4d"/>
      <path id="Trazado_109761" data-name="Trazado 109761" d="M667.766,2228.32a30.334,30.334,0,0,0,1.247,5.952c.251.98.618,1.929.919,2.893l1.094,2.833a77.159,77.159,0,0,0,5.51,10.808,114.051,114.051,0,0,0,6.748,10.114c1.213,1.628,2.48,3.217,3.719,4.83,1.286,1.577,2.6,3.129,3.867,4.733-1.448-1.435-2.846-2.923-4.273-4.387-1.326-1.551-2.673-3.089-3.976-4.666a95.822,95.822,0,0,1-7.019-10.068,69.04,69.04,0,0,1-5.353-11.062A36.142,36.142,0,0,1,667.766,2228.32Z" transform="translate(-637.39 -2163.19)" fill="#4d4d4d"/>
      <path id="Trazado_109762" data-name="Trazado 109762" d="M671.313,2230.146a47.488,47.488,0,0,0,1.5,5.013c.549,1.654,1.18,3.279,1.832,4.891,1.321,3.221,2.756,6.394,4.349,9.49,1.5,3.145,3.237,6.167,4.939,9.209,1.722,3.036,3.553,6.008,5.34,9.022-1.076-1.381-2.1-2.8-3.146-4.211-.971-1.459-1.968-2.9-2.911-4.379-1.863-2.972-3.6-6.023-5.194-9.155a94.627,94.627,0,0,1-4.156-9.681A47.859,47.859,0,0,1,671.313,2230.146Z" transform="translate(-635.796 -2162.369)" fill="#4d4d4d"/>
      <g id="Grupo_56570" data-name="Grupo 56570" transform="translate(54.505 65.13)">
        <path id="Trazado_109763" data-name="Trazado 109763" d="M707.515,2228.32a36.142,36.142,0,0,1-2.483,11.979,68.921,68.921,0,0,1-5.353,11.062,95.6,95.6,0,0,1-7.019,10.068c-1.3,1.577-2.65,3.115-3.976,4.666-1.428,1.464-2.825,2.951-4.272,4.387,1.266-1.6,2.58-3.156,3.866-4.733,1.239-1.614,2.506-3.2,3.72-4.83a113.73,113.73,0,0,0,6.748-10.114,77.166,77.166,0,0,0,5.51-10.808l1.094-2.833c.3-.964.668-1.913.919-2.893A30.22,30.22,0,0,0,707.515,2228.32Z" transform="translate(-684.412 -2228.32)" fill="#4d4d4d"/>
        <path id="Trazado_109764" data-name="Trazado 109764" d="M702.373,2230.146a47.859,47.859,0,0,1-2.557,10.2,94.626,94.626,0,0,1-4.156,9.681c-1.589,3.132-3.331,6.183-5.194,9.155-.942,1.479-1.94,2.92-2.911,4.379-1.044,1.409-2.07,2.829-3.144,4.211,1.786-3.015,3.617-5.987,5.339-9.022,1.7-3.042,3.44-6.064,4.939-9.209,1.593-3.1,3.028-6.269,4.349-9.49.654-1.612,1.283-3.236,1.832-4.891A47.5,47.5,0,0,0,702.373,2230.146Z" transform="translate(-684.412 -2227.499)" fill="#4d4d4d"/>
        <path id="Trazado_109765" data-name="Trazado 109765" d="M697.08,2233.537a31.135,31.135,0,0,1-1.534,8.093,61.931,61.931,0,0,1-2.934,7.712c-1.129,2.508-2.4,4.947-3.76,7.331l-2.128,3.523c-.773,1.135-1.513,2.289-2.312,3.4l3.7-7.322c1.18-2.462,2.411-4.891,3.505-7.384,1.144-2.47,2.174-4.987,3.137-7.531.486-1.27.919-2.56,1.313-3.862A30.749,30.749,0,0,0,697.08,2233.537Z" transform="translate(-684.412 -2225.975)" fill="#4d4d4d"/>
      </g>
    </g>
    <g id="Grupo_56573" data-name="Grupo 56573" transform="translate(944.324 2223.895)">
      <g id="Grupo_56572" data-name="Grupo 56572">
        <path id="Trazado_109766" data-name="Trazado 109766" d="M817.708,2223.4a151.1,151.1,0,0,1,7.658-25.841l-33.53-13.865s-8.823,7.06-16.26,6.933c-7.438.126-16.261-6.933-16.261-6.933l-33.528,13.865a151.109,151.109,0,0,1,7.658,25.841c3.4,15.975-9.266,20.7-9.266,20.7l10.683,47.386h81.428l10.682-47.386S814.3,2239.376,817.708,2223.4Z" transform="translate(-723.335 -2182.86)" fill="#fff"/>
        <path id="Trazado_109767" data-name="Trazado 109767" d="M817.131,2292.474H734.547l-10.95-48.567.59-.222c.494-.187,12.039-4.725,8.81-19.875a151.9,151.9,0,0,0-7.613-25.7l-.291-.676,34.6-14.312.335.269c.084.068,8.56,6.775,15.609,6.775.126,0,.249,0,.373,0,7.081,0,15.548-6.707,15.632-6.775l.335-.269,34.605,14.311-.291.677a152,152,0,0,0-7.615,25.7h0c-3.228,15.149,8.316,19.688,8.81,19.875l.59.222Zm-81.426-1.45h80.269L826.4,2244.78c-2.521-1.216-12.2-6.9-9.137-21.274h0a160.451,160.451,0,0,1,7.422-25.294l-32.471-13.427c-1.731,1.317-9.576,6.913-16.384,6.826-6.883.177-14.628-5.507-16.36-6.826L727,2198.212a160.162,160.162,0,0,1,7.42,25.294c3.061,14.378-6.616,20.058-9.137,21.274Z" transform="translate(-723.597 -2183.119)" fill="#4d4d4d"/>
      </g>
      <circle id="Elipse_4399" data-name="Elipse 4399" cx="3.841" cy="3.841" r="3.841" transform="translate(69.928 50.726)" fill="#4d4d4d"/>
      <circle id="Elipse_4400" data-name="Elipse 4400" cx="3.841" cy="3.841" r="3.841" transform="translate(26.536 50.726)" fill="#4d4d4d"/>
      <path id="Trazado_109768" data-name="Trazado 109768" d="M814.634,2273.116c-.042-.262-4.284-26.292-7.174-37.945-2.672-10.773-10.715-13.439-11.686-13.724-1.954,0-31.648-.09-40.638,0-9.009.091-19.684,8.365-19.789,8.449l-8.445,8.45-1.025-1.025,8.51-8.508c.517-.413,11.238-8.72,20.734-8.816,9.257-.093,40.443,0,40.756,0l.181.024c.4.1,9.809,2.7,12.808,14.8,2.9,11.71,7.155,37.8,7.2,38.061Z" transform="translate(-722.572 -2166.558)" fill="#4d4d4d"/>
      <path id="Trazado_109769" data-name="Trazado 109769" d="M732.418,2274.281l-.354-1.4c.065-.018,6.7-1.813,23.447-14.126,16.863-12.4,36.342-37.3,36.538-37.551l1.144.893c-.2.25-19.8,25.307-36.825,37.825C739.307,2272.463,732.692,2274.212,732.418,2274.281Z" transform="translate(-719.791 -2166)" fill="#4d4d4d"/>
    </g>
    <g id="Grupo_56575" data-name="Grupo 56575" transform="translate(1058.2 2225.288)">
      <g id="Grupo_56574" data-name="Grupo 56574">
        <path id="Trazado_109770" data-name="Trazado 109770" d="M896.267,2224.362a151.065,151.065,0,0,1,7.658-25.84L870.4,2184.655s-8.823,7.059-16.261,6.933c-7.436.126-16.26-6.933-16.26-6.933l-33.528,13.866a151.141,151.141,0,0,1,7.657,25.84c3.4,15.975-9.264,20.7-9.264,20.7l10.682,47.387h81.428l10.683-47.387S892.865,2240.337,896.267,2224.362Z" transform="translate(-801.893 -2183.822)" fill="#fff"/>
        <path id="Trazado_109771" data-name="Trazado 109771" d="M895.692,2293.433H813.106l-10.95-48.566.591-.223c.494-.187,12.037-4.726,8.81-19.874a152.162,152.162,0,0,0-7.613-25.7l-.291-.677,34.6-14.31.334.268c.085.067,8.561,6.775,15.61,6.775h.373c7.072,0,15.546-6.708,15.632-6.775l.333-.268,34.605,14.31-.291.677a152.281,152.281,0,0,0-7.615,25.7h0c-3.235,15.19,8.689,19.827,8.809,19.872l.594.223-.141.616Zm-81.428-1.449h80.269l10.422-46.242c-2.521-1.216-12.2-6.9-9.135-21.274h0a160.3,160.3,0,0,1,7.422-25.3l-32.473-13.428c-1.731,1.319-9.486,6.932-16.383,6.827-6.867.134-14.629-5.507-16.36-6.827l-32.472,13.428a160.061,160.061,0,0,1,7.42,25.3c3.063,14.377-6.614,20.057-9.135,21.274Z" transform="translate(-802.156 -2184.08)" fill="#4d4d4d"/>
      </g>
      <circle id="Elipse_4401" data-name="Elipse 4401" cx="3.841" cy="3.841" r="3.841" transform="translate(69.929 50.726)" fill="#4d4d4d"/>
      <circle id="Elipse_4402" data-name="Elipse 4402" cx="3.841" cy="3.841" r="3.841" transform="translate(26.536 50.726)" fill="#4d4d4d"/>
      <path id="Trazado_109772" data-name="Trazado 109772" d="M856.708,2281.115l-.467-1.373c5.756-1.959,6.31-14.655,6.314-14.783l2.956-37.375c-1.925-10.842-14.794-14.057-17.361-14.593-.333-.024-5.646-.031-6.119,0-2.458.351-14.952,2.663-16.876,13.526l2.259,37.955c.006.142.565,12.9,6.321,14.861l-.467,1.373c-6.7-2.277-7.28-15.6-7.3-16.162l-2.268-38.108.014-.083c2.045-11.926,15.476-14.42,18.147-14.8.254-.038,6.22-.056,6.588.021,2.734.57,16.48,4.017,18.509,15.853l.015.092L864,2265.043C863.983,2265.576,863.4,2278.837,856.708,2281.115Z" transform="translate(-792.472 -2171.744)" fill="#4d4d4d"/>
      <path id="Trazado_109773" data-name="Trazado 109773" d="M829.483,2231.927l1.163,4.76,1.1,4.762,2.218,9.5c.722,3.169,1.544,6.307,2.374,9.442a64.818,64.818,0,0,0,3.106,9.225c-.435-.688-.881-1.381-1.279-2.1l-1.106-2.2c-.631-1.515-1.248-3.038-1.786-4.588a93.08,93.08,0,0,1-2.719-9.439c-.733-3.188-1.4-6.389-1.9-9.621C830.143,2238.434,829.7,2235.194,829.483,2231.927Z" transform="translate(-789.871 -2162.57)" fill="#4d4d4d"/>
      <path id="Trazado_109774" data-name="Trazado 109774" d="M826.178,2227.136c.889,3.75,1.679,7.507,2.489,11.26l2.429,11.246c.806,3.747,1.683,7.472,2.579,11.195.461,1.857.957,3.7,1.522,5.53.244.928.587,1.816.878,2.731s.726,1.764,1.07,2.671a44.759,44.759,0,0,1-4.543-10.631c-1.158-3.682-2.08-7.429-2.922-11.188-.8-3.767-1.532-7.546-2.1-11.353S826.477,2230.979,826.178,2227.136Z" transform="translate(-791.357 -2164.724)" fill="#4d4d4d"/>
      <path id="Trazado_109775" data-name="Trazado 109775" d="M851.543,2231.927c-.42,3.285-1.054,6.529-1.747,9.758-.677,3.236-1.519,6.432-2.412,9.616-.919,3.175-1.931,6.33-3.144,9.415-.6,1.545-1.267,3.067-1.944,4.579l-1.158,2.2c-.407.725-.862,1.422-1.308,2.115a84.61,84.61,0,0,0,3.357-9.268c.955-3.141,1.922-6.28,2.8-9.447l2.727-9.486,1.371-4.749C850.587,2235.09,851.032,2233.5,851.543,2231.927Z" transform="translate(-785.219 -2162.57)" fill="#4d4d4d"/>
      <path id="Trazado_109776" data-name="Trazado 109776" d="M855.72,2227.318c-.6,3.931-1.409,7.82-2.276,11.695s-1.858,7.722-2.909,11.552c-1.1,3.818-2.254,7.623-3.621,11.363a55.659,55.659,0,0,1-5,10.831,57.9,57.9,0,0,0,2.131-5.539c.651-1.865,1.239-3.751,1.807-5.645,1.109-3.8,2.224-7.59,3.285-11.4l3.228-11.433C853.457,2234.928,854.534,2231.113,855.72,2227.318Z" transform="translate(-784.281 -2164.642)" fill="#4d4d4d"/>
    </g>
    <g id="Grupo_56578" data-name="Grupo 56578" transform="translate(357.442 2348.199)">
      <g id="Grupo_56576" data-name="Grupo 56576">
        <path id="Trazado_109777" data-name="Trazado 109777" d="M412.838,2309.152a151.11,151.11,0,0,1,7.658-25.84l-33.53-13.865s-8.823,7.06-16.26,6.933c-7.438.126-16.261-6.933-16.261-6.933l-33.528,13.865a151.113,151.113,0,0,1,7.658,25.84c3.4,15.977-9.266,20.7-9.266,20.7l10.683,47.386h81.428l10.682-47.386S409.435,2325.129,412.838,2309.152Z" transform="translate(-318.465 -2268.614)" fill="#fff"/>
        <path id="Trazado_109778" data-name="Trazado 109778" d="M412.261,2378.225H329.677l-10.95-48.566.59-.223c.494-.187,12.039-4.725,8.81-19.874a151.746,151.746,0,0,0-7.613-25.7l-.291-.675,34.6-14.312.335.268c.084.067,8.75,6.91,15.794,6.772h.187c7.081,0,15.548-6.707,15.632-6.773l.335-.268,34.605,14.31-.291.677a151.749,151.749,0,0,0-7.613,25.7h0c-3.23,15.148,8.315,19.687,8.809,19.874l.59.223Zm-81.426-1.449H411.1l10.422-46.242c-2.521-1.215-12.2-6.9-9.135-21.274h0a160.312,160.312,0,0,1,7.42-25.295l-32.472-13.429c-1.731,1.319-9.519,6.914-16.384,6.826-6.8.118-14.63-5.506-16.36-6.826l-32.47,13.429a160.151,160.151,0,0,1,7.42,25.295c3.061,14.377-6.616,20.057-9.137,21.274Z" transform="translate(-318.727 -2268.872)" fill="#4d4d4d"/>
      </g>
      <circle id="Elipse_4403" data-name="Elipse 4403" cx="3.841" cy="3.841" r="3.841" transform="translate(69.928 50.725)" fill="#4d4d4d"/>
      <circle id="Elipse_4404" data-name="Elipse 4404" cx="3.841" cy="3.841" r="3.841" transform="translate(26.536 50.725)" fill="#4d4d4d"/>
      <path id="Trazado_109779" data-name="Trazado 109779" d="M352.615,2313.258a102.449,102.449,0,0,0-2.079-10.686,126.734,126.734,0,0,0-6.985-20.541c-1.418-3.339-3.1-6.552-4.756-9.8,1,1.519,2.015,3.04,2.934,4.617.887,1.594,1.793,3.182,2.58,4.832a83.432,83.432,0,0,1,7.041,20.713A60.478,60.478,0,0,1,352.615,2313.258Z" transform="translate(-309.705 -2267.363)" fill="#4d4d4d"/>
      <path id="Trazado_109780" data-name="Trazado 109780" d="M350.743,2309.227c-.413-1.588-.868-3.158-1.39-4.706-.486-1.56-1.025-3.1-1.593-4.63-1.131-3.061-2.324-6.1-3.657-9.072-2.574-6-5.587-11.789-8.612-17.612.935,1.348,1.831,2.723,2.724,4.1.829,1.415,1.7,2.806,2.49,4.249,1.613,2.865,3.024,5.835,4.392,8.825,1.263,3.037,2.482,6.1,3.451,9.24A55.637,55.637,0,0,1,350.743,2309.227Z" transform="translate(-311.191 -2266.923)" fill="#4d4d4d"/>
      <path id="Trazado_109781" data-name="Trazado 109781" d="M349.215,2312.165c-1.077-3.266-2.286-6.474-3.559-9.653s-2.595-6.339-4.046-9.439q-2.1-4.684-4.439-9.265c-1.518-3.073-3.156-6.085-4.73-9.146.975,1.416,1.919,2.855,2.847,4.3.878,1.479,1.792,2.941,2.622,4.448,1.716,2.987,3.2,6.1,4.688,9.208,1.379,3.159,2.712,6.339,3.837,9.6A72.694,72.694,0,0,1,349.215,2312.165Z" transform="translate(-312.561 -2266.27)" fill="#4d4d4d"/>
      <path id="Trazado_109782" data-name="Trazado 109782" d="M346.733,2313.045a80.094,80.094,0,0,1-5.732-8.482c-1.755-2.929-3.343-5.956-4.879-9.006-1.442-3.1-2.888-6.192-4.108-9.381-.632-1.586-1.193-3.2-1.774-4.8-.538-1.619-1.052-3.247-1.532-4.882,1.376,3.124,2.669,6.268,4.078,9.361,1.374,3.106,2.8,6.188,4.313,9.228,1.447,3.073,3.038,6.072,4.628,9.073S344.985,2310.116,346.733,2313.045Z" transform="translate(-314.24 -2265.447)" fill="#4d4d4d"/>
      <path id="Trazado_109783" data-name="Trazado 109783" d="M344.249,2313.413a80.139,80.139,0,0,1-5.73-8.479c-1.755-2.931-3.343-5.958-4.879-9.008-1.442-3.095-2.889-6.191-4.109-9.381-.632-1.585-1.193-3.2-1.774-4.8-.538-1.621-1.052-3.247-1.531-4.884,1.374,3.125,2.667,6.268,4.076,9.361,1.374,3.108,2.8,6.188,4.314,9.229,1.447,3.072,3.037,6.071,4.627,9.073S342.5,2310.485,344.249,2313.413Z" transform="translate(-315.356 -2265.281)" fill="#4d4d4d"/>
      <g id="Grupo_56577" data-name="Grupo 56577" transform="translate(63.486 4.867)">
        <path id="Trazado_109784" data-name="Trazado 109784" d="M362.524,2313.258a60.333,60.333,0,0,1,1.264-10.867,83.346,83.346,0,0,1,7.042-20.713c.786-1.65,1.692-3.238,2.579-4.832.919-1.577,1.934-3.1,2.934-4.617-1.653,3.25-3.338,6.462-4.755,9.8a126.536,126.536,0,0,0-6.987,20.541A102.018,102.018,0,0,0,362.524,2313.258Z" transform="translate(-362.524 -2272.23)" fill="#4d4d4d"/>
        <path id="Trazado_109785" data-name="Trazado 109785" d="M364.84,2309.227a55.5,55.5,0,0,1,2.193-9.6c.971-3.144,2.189-6.2,3.451-9.24,1.368-2.99,2.779-5.961,4.392-8.825.786-1.443,1.661-2.834,2.49-4.249.893-1.379,1.789-2.754,2.724-4.1-3.025,5.823-6.037,11.614-8.612,17.612-1.334,2.976-2.527,6.011-3.657,9.072-.567,1.529-1.107,3.07-1.592,4.63C365.707,2306.069,365.252,2307.639,364.84,2309.227Z" transform="translate(-361.483 -2271.791)" fill="#4d4d4d"/>
        <path id="Trazado_109786" data-name="Trazado 109786" d="M366.84,2312.165a72.481,72.481,0,0,1,2.779-9.944c1.125-3.259,2.458-6.439,3.836-9.6,1.49-3.107,2.972-6.22,4.688-9.208.831-1.508,1.744-2.97,2.622-4.448.928-1.449,1.871-2.889,2.847-4.3-1.574,3.061-3.212,6.073-4.73,9.146q-2.335,4.579-4.439,9.265c-1.451,3.1-2.76,6.265-4.046,9.439S367.917,2308.9,366.84,2312.165Z" transform="translate(-360.584 -2271.137)" fill="#4d4d4d"/>
        <path id="Trazado_109787" data-name="Trazado 109787" d="M369.709,2313.045c1.748-2.928,3.405-5.9,5.007-8.892s3.182-6,4.628-9.073c1.509-3.04,2.938-6.122,4.312-9.228,1.41-3.094,2.7-6.238,4.078-9.361-.48,1.635-.994,3.263-1.531,4.882-.583,1.6-1.144,3.217-1.776,4.8-1.221,3.189-2.666,6.285-4.108,9.381-1.537,3.05-3.124,6.077-4.879,9.006A80.079,80.079,0,0,1,369.709,2313.045Z" transform="translate(-359.294 -2270.314)" fill="#4d4d4d"/>
        <path id="Trazado_109788" data-name="Trazado 109788" d="M372.193,2313.413c1.748-2.928,3.4-5.9,5.007-8.89s3.18-6,4.628-9.073c1.509-3.042,2.938-6.122,4.312-9.229,1.409-3.093,2.7-6.236,4.078-9.361-.48,1.636-.994,3.263-1.532,4.884-.581,1.6-1.142,3.216-1.774,4.8-1.22,3.19-2.667,6.287-4.108,9.381-1.537,3.05-3.124,6.077-4.879,9.008A80.146,80.146,0,0,1,372.193,2313.413Z" transform="translate(-358.177 -2270.148)" fill="#4d4d4d"/>
      </g>
    </g>
    <path id="Trazado_109789" data-name="Trazado 109789" d="M438.308,2281.174a24.325,24.325,0,0,0,6.4-2.367c1-.533,1.979-1.116,2.937-1.74s1.876-1.309,2.832-1.974c-.378.439-.781.859-1.187,1.279-.438.381-.857.791-1.319,1.147a18.454,18.454,0,0,1-2.927,1.929,16.745,16.745,0,0,1-3.266,1.293A10.728,10.728,0,0,1,438.308,2281.174Z" transform="translate(92.473 82.124)" fill="#4d4d4d"/>
    <path id="Trazado_109790" data-name="Trazado 109790" d="M444.308,2279.644a29.467,29.467,0,0,0,4.86-1.571c1.574-.637,3.1-1.384,4.688-2.1a13.769,13.769,0,0,1-2.084,1.574,15.284,15.284,0,0,1-2.331,1.2,13.614,13.614,0,0,1-2.516.755A8.225,8.225,0,0,1,444.308,2279.644Z" transform="translate(95.171 82.52)" fill="#4d4d4d"/>
    <path id="Trazado_109791" data-name="Trazado 109791" d="M447.895,2283.613a26.468,26.468,0,0,1,3.043-3.447,26.088,26.088,0,0,1,3.544-2.926,29.2,29.2,0,0,1-6.587,6.373Z" transform="translate(96.783 83.089)" fill="#4d4d4d"/>
    <g id="Grupo_56580" data-name="Grupo 56580" transform="translate(232.61 2348.199)">
      <g id="Grupo_56579" data-name="Grupo 56579">
        <path id="Trazado_109792" data-name="Trazado 109792" d="M326.72,2309.152a151.11,151.11,0,0,1,7.658-25.84l-33.53-13.865s-8.823,7.06-16.26,6.933c-7.436.126-16.26-6.933-16.26-6.933l-33.53,13.865a151.112,151.112,0,0,1,7.658,25.84c3.4,15.977-9.266,20.7-9.266,20.7l10.683,47.386H325.3l10.682-47.386S323.317,2325.129,326.72,2309.152Z" transform="translate(-232.348 -2268.614)" fill="#fff"/>
        <path id="Trazado_109793" data-name="Trazado 109793" d="M326.143,2378.225H243.558l-10.948-48.566.59-.223c.494-.187,12.039-4.725,8.809-19.874a151.748,151.748,0,0,0-7.613-25.7l-.291-.677,34.605-14.31.335.268c.084.067,8.56,6.773,15.607,6.773h.373c7.074,0,15.549-6.707,15.633-6.773l.335-.268,34.6,14.31-.293.677a152,152,0,0,0-7.612,25.7c-3.237,15.19,8.689,19.827,8.809,19.872l.593.223-.141.616Zm-81.427-1.449h80.269l10.425-46.242c-2.522-1.216-12.2-6.9-9.137-21.274a160.14,160.14,0,0,1,7.42-25.295l-32.47-13.429c-1.732,1.319-9.467,6.922-16.386,6.826h-.209c-6.791,0-14.436-5.521-16.149-6.827l-32.472,13.429a160.315,160.315,0,0,1,7.42,25.295c3.063,14.377-6.614,20.057-9.135,21.274Z" transform="translate(-232.61 -2268.872)" fill="#4d4d4d"/>
      </g>
      <circle id="Elipse_4405" data-name="Elipse 4405" cx="3.841" cy="3.841" r="3.841" transform="translate(69.927 50.725)" fill="#4d4d4d"/>
      <circle id="Elipse_4406" data-name="Elipse 4406" cx="3.841" cy="3.841" r="3.841" transform="translate(26.535 50.725)" fill="#4d4d4d"/>
      <path id="Trazado_109794" data-name="Trazado 109794" d="M262.287,2315.113l8.641-10.287c2.854-3.446,5.723-6.878,8.493-10.39,2.835-3.459,5.547-7.013,8.265-10.565,2.7-3.564,5.31-7.2,7.9-10.858-2.208,3.9-4.655,7.671-7.223,11.352-2.587,3.666-5.317,7.229-8.094,10.751-2.848,3.466-5.713,6.917-8.709,10.254S265.505,2311.989,262.287,2315.113Z" transform="translate(-219.268 -2267.011)" fill="#4d4d4d"/>
      <path id="Trazado_109795" data-name="Trazado 109795" d="M270.388,2312.825q3.79-4.6,7.425-9.292c2.411-3.141,4.8-6.3,7.054-9.548,2.34-3.192,4.486-6.516,6.617-9.847,1.06-1.671,2.1-3.354,3.079-5.076,1.061-1.677,1.935-3.456,2.948-5.169a93.532,93.532,0,0,1-5.311,10.677c-2,3.441-4.165,6.784-6.446,10.042-2.341,3.218-4.731,6.4-7.293,9.442A116.683,116.683,0,0,1,270.388,2312.825Z" transform="translate(-215.627 -2266.615)" fill="#4d4d4d"/>
      <path id="Trazado_109796" data-name="Trazado 109796" d="M278.3,2310.6c1.858-2.8,3.612-5.66,5.292-8.557s3.333-5.808,4.808-8.812c1.56-2.96,3-5.984,4.36-9.041,1.407-3.042,2.638-6.158,3.943-9.263a85.7,85.7,0,0,1-3.172,9.588c-1.213,3.146-2.67,6.19-4.165,9.213-1.57,2.983-3.231,5.921-5.065,8.75A71.562,71.562,0,0,1,278.3,2310.6Z" transform="translate(-212.069 -2266.151)" fill="#4d4d4d"/>
      <path id="Trazado_109797" data-name="Trazado 109797" d="M285.605,2315.661c.706-1.6,1.365-3.206,1.957-4.842.626-1.62,1.2-3.261,1.741-4.911,1.087-3.3,2.109-6.616,2.98-9.976.928-3.346,1.719-6.729,2.464-10.124.765-3.392,1.4-6.811,2.108-10.231-.135,1.739-.317,3.475-.5,5.213-.261,1.725-.471,3.461-.783,5.179-.578,3.448-1.384,6.852-2.237,10.244-.965,3.362-1.979,6.713-3.246,9.976A61.276,61.276,0,0,1,285.605,2315.661Z" transform="translate(-208.786 -2265.857)" fill="#4d4d4d"/>
      <path id="Trazado_109798" data-name="Trazado 109798" d="M288.725,2282.275a12.593,12.593,0,0,0,1.874-1.34c.573-.5,1.125-1.019,1.648-1.57,1.064-1.089,2.021-2.277,3.063-3.463-.136.371-.315.72-.475,1.084l-.6,1.019a12.023,12.023,0,0,1-1.47,1.864,9.99,9.99,0,0,1-1.841,1.514A5.778,5.778,0,0,1,288.725,2282.275Z" transform="translate(-207.383 -2265.711)" fill="#4d4d4d"/>
    </g>
    <g id="Grupo_56582" data-name="Grupo 56582" transform="translate(478.101 2348.199)">
      <g id="Grupo_56581" data-name="Grupo 56581">
        <path id="Trazado_109799" data-name="Trazado 109799" d="M496.077,2309.152a151.113,151.113,0,0,1,7.658-25.84l-33.53-13.865s-8.823,7.06-16.26,6.933c-7.438.126-16.26-6.933-16.26-6.933l-33.53,13.865a142.9,142.9,0,0,1,6.619,21.248q.528,2.2,1.039,4.592c3.4,15.977-9.266,20.7-9.266,20.7l10.683,47.386H494.66l10.682-47.386S492.674,2325.129,496.077,2309.152Z" transform="translate(-401.704 -2268.614)" fill="#fff"/>
        <path id="Trazado_109800" data-name="Trazado 109800" d="M495.5,2378.225H412.916l-10.95-48.566.59-.223c.494-.187,12.039-4.725,8.812-19.874q-.509-2.381-1.035-4.577a144.1,144.1,0,0,0-6.578-21.127l-.293-.677,34.605-14.31.333.268c.086.067,8.56,6.773,15.61,6.773h.371c7.081,0,15.548-6.707,15.633-6.773l.333-.268,34.605,14.31-.291.677a152.154,152.154,0,0,0-7.614,25.7c-3.235,15.19,8.689,19.827,8.809,19.872l.593.223-.139.616Zm-81.427-1.449h80.269l10.422-46.242c-2.521-1.216-12.2-6.9-9.137-21.274h0a160.187,160.187,0,0,1,7.423-25.295l-32.473-13.429c-1.731,1.319-9.46,6.914-16.384,6.826-6.894.118-14.628-5.506-16.36-6.826l-32.47,13.429a153.1,153.1,0,0,1,6.377,20.685q.531,2.21,1.044,4.61c3.061,14.377-6.614,20.057-9.137,21.274Z" transform="translate(-401.966 -2268.872)" fill="#4d4d4d"/>
      </g>
      <circle id="Elipse_4407" data-name="Elipse 4407" cx="3.841" cy="3.841" r="3.841" transform="translate(69.928 50.725)" fill="#4d4d4d"/>
      <circle id="Elipse_4408" data-name="Elipse 4408" cx="3.841" cy="3.841" r="3.841" transform="translate(26.536 50.725)" fill="#4d4d4d"/>
      <path id="Trazado_109801" data-name="Trazado 109801" d="M407,2345.834l-.626-1.309c4.884-2.331,12.066-9.2,17.837-14.72,1.545-1.479,2.973-2.844,4.2-3.972,4.665-4.283,3.434-10.925,3.024-12.611l-3.46-.751-18.3-18.109,1.019-1.031,18,17.812,3.894.845.126.4c.113.364,2.715,8.969-3.322,14.51-1.223,1.125-2.643,2.481-4.181,3.953C419.37,2336.444,412.1,2343.4,407,2345.834Z" transform="translate(-399.983 -2257.876)" fill="#4d4d4d"/>
      <path id="Trazado_109802" data-name="Trazado 109802" d="M437.654,2361.75l-1.187-.835c.152-.216,15.215-21.7,18.172-32.669.091-.226,5.11-11.322,4.012-20.744l-.348-3,1.671,2.513c.37.555,9.058,13.717,11.327,25.949.209.563,5.675,16.5-1.995,28.26l-1.215-.793c7.284-11.167,1.87-26.937,1.815-27.095-1.677-9-7.016-18.721-9.647-23.118.046,9-4.069,18.1-4.263,18.517C453.014,2339.837,438.279,2360.86,437.654,2361.75Z" transform="translate(-386.456 -2252.853)" fill="#4d4d4d"/>
    </g>
    <g id="Grupo_56584" data-name="Grupo 56584" transform="translate(599.213 2348.199)">
      <g id="Grupo_56583" data-name="Grupo 56583" transform="translate(0)">
        <path id="Trazado_109803" data-name="Trazado 109803" d="M579.628,2309.152a151.106,151.106,0,0,1,7.658-25.84l-33.53-13.865s-8.823,7.06-16.26,6.933c-7.438.126-16.261-6.933-16.261-6.933l-33.528,13.865a142.9,142.9,0,0,1,6.619,21.248q.526,2.2,1.038,4.592c3.4,15.977-9.264,20.7-9.264,20.7l10.683,47.386h81.427l10.682-47.386S576.225,2325.129,579.628,2309.152Z" transform="translate(-485.255 -2268.614)" fill="#fff"/>
        <path id="Trazado_109804" data-name="Trazado 109804" d="M579.051,2378.225H496.467l-10.95-48.566.59-.223c.494-.187,12.039-4.725,8.81-19.874q-.507-2.381-1.035-4.577a143.666,143.666,0,0,0-6.578-21.127l-.291-.677,34.6-14.31.335.268c.084.067,8.56,6.773,15.609,6.773h.373c7.081,0,15.548-6.707,15.632-6.773l.335-.268,34.605,14.31-.291.677a151.811,151.811,0,0,0-7.615,25.7c-3.237,15.19,8.689,19.827,8.809,19.872l.593.223-.141.616Zm-81.426-1.449h80.269l10.422-46.242c-2.521-1.216-12.2-6.9-9.136-21.274h0a160.409,160.409,0,0,1,7.422-25.295l-32.472-13.429c-1.731,1.319-9.576,6.914-16.384,6.826-6.883.118-14.629-5.506-16.36-6.826l-32.47,13.429a153.116,153.116,0,0,1,6.377,20.685q.528,2.21,1.044,4.61c3.061,14.377-6.616,20.057-9.137,21.274Z" transform="translate(-485.517 -2268.872)" fill="#4d4d4d"/>
      </g>
      <circle id="Elipse_4409" data-name="Elipse 4409" cx="3.841" cy="3.841" r="3.841" transform="translate(69.928 50.725)" fill="#4d4d4d"/>
      <circle id="Elipse_4410" data-name="Elipse 4410" cx="3.841" cy="3.841" r="3.841" transform="translate(26.536 50.725)" fill="#4d4d4d"/>
      <path id="Trazado_109805" data-name="Trazado 109805" d="M554.747,2319.016l-1.45-.029c0-.058.055-5.941-4.262-12.837-4.194-6.7-16.825-4.729-16.956-4.711-.1.015-8.674,1.27-13.693,1.521-5.613.293-10.17-1.35-15.241-5.455-5.517-4.465-4.717-21.8-4.679-22.531l1.447.072c-.009.173-.8,17.327,4.144,21.332,4.83,3.911,8.976,5.394,14.255,5.134,4.95-.248,13.459-1.493,13.546-1.506.544-.087,13.7-2.134,18.405,5.374C554.825,2312.665,554.753,2318.76,554.747,2319.016Z" transform="translate(-479.722 -2266.129)" fill="#4d4d4d"/>
      <path id="Trazado_109806" data-name="Trazado 109806" d="M551.5,2359.438h-1.45v-14.621c.252-2.425.309-8.912-2.382-10.675l-.209-.206c-.03-.048-3.611-5.066-17.516-5.729-13.881-.66-18.4-3.338-20.1-4.349l-.268-.155c-.12-.069-.251-.138-.387-.208-2.674-1.4-5.411-3.862-4.005-15.383l1.438.175c-1.4,11.492,1.5,13.014,3.24,13.923.154.08.3.156.433.233l.289.168c1.616.96,5.908,3.505,19.428,4.149,13.681.652,17.9,5.376,18.566,6.248,3.849,2.7,2.959,11.508,2.918,11.885Z" transform="translate(-476.849 -2251.232)" fill="#4d4d4d"/>
    </g>
    <g id="Grupo_56586" data-name="Grupo 56586" transform="translate(717.47 2348.199)">
      <g id="Grupo_56585" data-name="Grupo 56585" transform="translate(0)">
        <path id="Trazado_109807" data-name="Trazado 109807" d="M661.208,2309.152a151.11,151.11,0,0,1,7.658-25.84l-33.528-13.865s-8.823,7.06-16.261,6.933c-7.436.126-16.26-6.933-16.26-6.933l-33.528,13.865a151.2,151.2,0,0,1,7.657,25.84c3.4,15.977-9.264,20.7-9.264,20.7l10.682,47.386H659.79l10.683-47.386S657.806,2325.129,661.208,2309.152Z" transform="translate(-566.836 -2268.614)" fill="#fff"/>
        <path id="Trazado_109808" data-name="Trazado 109808" d="M660.632,2378.225H578.047L567.1,2329.659l.59-.223c.494-.187,12.039-4.725,8.81-19.875a152.086,152.086,0,0,0-7.613-25.7l-.291-.675,34.6-14.312.333.268c.086.067,8.561,6.773,15.61,6.773h.373c7.081,0,15.546-6.707,15.632-6.773l.333-.268,34.605,14.31-.291.677a152.2,152.2,0,0,0-7.615,25.7h0c-3.227,15.15,8.318,19.688,8.81,19.875l.591.223Zm-81.428-1.449h80.269l10.424-46.242c-2.522-1.216-12.2-6.9-9.137-21.275h0a160.259,160.259,0,0,1,7.422-25.293l-32.472-13.429c-1.731,1.319-9.522,6.932-16.384,6.826-6.828.133-14.63-5.506-16.36-6.826L570.5,2283.965a160.012,160.012,0,0,1,7.42,25.293c3.063,14.379-6.614,20.059-9.135,21.275Z" transform="translate(-567.098 -2268.872)" fill="#4d4d4d"/>
      </g>
      <circle id="Elipse_4411" data-name="Elipse 4411" cx="3.841" cy="3.841" r="3.841" transform="translate(69.927 50.725)" fill="#4d4d4d"/>
      <circle id="Elipse_4412" data-name="Elipse 4412" cx="3.841" cy="3.841" r="3.841" transform="translate(26.535 50.725)" fill="#4d4d4d"/>
      <path id="Trazado_109809" data-name="Trazado 109809" d="M642.228,2375.6c-3.65-1.326-10.325-6.054-19.842-14.053-7.907-6.646-2.164-29.033-1.915-29.982,3.685-17.933.049-29.349.013-29.462-2.48-12.984-15-27.426-15.128-27.571l1.093-.954c.526.6,12.905,14.887,15.435,28.162.133.384,3.775,11.775,0,30.154-.068.262-5.774,22.483,1.435,28.543,9.254,7.778,15.964,12.552,19.405,13.8Z" transform="translate(-549.898 -2266.757)" fill="#4d4d4d"/>
      <path id="Trazado_109810" data-name="Trazado 109810" d="M575.506,2375.549l-.5-1.362c3.225-1.171,8.067-5.319,13.672-10.118,1.39-1.19,2.835-2.429,4.33-3.683,7.207-6.061,1.5-28.281,1.445-28.506-3.786-18.417-.145-29.807.013-30.283,2.506-13.2,15.5-27.31,16.055-27.9l1.061.985c-.132.144-13.265,14.4-15.717,27.28-.061.2-3.694,11.62,0,29.591.239.912,5.982,23.3-1.925,29.945-1.487,1.251-2.93,2.484-4.317,3.674C583.677,2370.262,578.977,2374.287,575.506,2375.549Z" transform="translate(-563.541 -2266.705)" fill="#4d4d4d"/>
    </g>
    <g id="Grupo_56588" data-name="Grupo 56588" transform="translate(827.654 2348.153)">
      <g id="Grupo_56587" data-name="Grupo 56587" transform="translate(0)">
        <path id="Trazado_109811" data-name="Trazado 109811" d="M737.221,2309.121a151.218,151.218,0,0,1,7.657-25.841l-33.528-13.865s-8.823,7.059-16.261,6.933c-7.436.126-16.26-6.933-16.26-6.933L645.3,2283.28a151.215,151.215,0,0,1,7.656,25.841c3.4,15.976-9.264,20.7-9.264,20.7l10.683,47.386H735.8l10.683-47.386S733.818,2325.1,737.221,2309.121Z" transform="translate(-642.848 -2268.582)" fill="#fff"/>
        <path id="Trazado_109812" data-name="Trazado 109812" d="M736.644,2378.193H654.059l-10.949-48.568.59-.221c.494-.187,12.037-4.726,8.81-19.874a152.147,152.147,0,0,0-7.613-25.7l-.291-.677,34.6-14.31.333.267c.085.068,8.561,6.777,15.61,6.777h.373c7.072,0,15.546-6.709,15.632-6.777l.333-.267,34.605,14.31-.291.677a152.147,152.147,0,0,0-7.613,25.7h0c-3.228,15.148,8.316,19.687,8.809,19.874l.591.221Zm-81.427-1.45h80.269L745.91,2330.5c-2.522-1.214-12.2-6.9-9.135-21.274h0a160.18,160.18,0,0,1,7.42-25.294L711.723,2270.5c-1.732,1.319-9.479,6.978-16.384,6.827h-.21c-6.791,0-14.437-5.522-16.149-6.829l-32.472,13.429a160.01,160.01,0,0,1,7.42,25.294c3.063,14.377-6.614,20.058-9.135,21.274Z" transform="translate(-643.11 -2268.84)" fill="#4d4d4d"/>
      </g>
      <circle id="Elipse_4413" data-name="Elipse 4413" cx="3.841" cy="3.841" r="3.841" transform="translate(69.928 50.725)" fill="#4d4d4d"/>
      <circle id="Elipse_4414" data-name="Elipse 4414" cx="3.841" cy="3.841" r="3.841" transform="translate(26.535 50.725)" fill="#4d4d4d"/>
      <path id="Trazado_109813" data-name="Trazado 109813" d="M688.954,2376.126l-26.072-54.844L687,2273.541,711.5,2320.21ZM664.5,2321.3l24.348,51.217,21.064-52.23-22.887-43.583Z" transform="translate(-634.221 -2266.727)" fill="#4d4d4d"/>
    </g>
    <g id="Grupo_56590" data-name="Grupo 56590" transform="translate(949.203 2348.199)">
      <g id="Grupo_56589" data-name="Grupo 56589">
        <path id="Trazado_109814" data-name="Trazado 109814" d="M821.074,2309.152a151.113,151.113,0,0,1,7.658-25.84l-33.53-13.865s-8.823,7.06-16.26,6.933c-7.438.126-16.261-6.933-16.261-6.933l-33.528,13.865a151.11,151.11,0,0,1,7.658,25.84c3.4,15.977-9.266,20.7-9.266,20.7l10.683,47.386h81.427l10.682-47.386S817.671,2325.129,821.074,2309.152Z" transform="translate(-726.701 -2268.614)" fill="#fff"/>
        <path id="Trazado_109815" data-name="Trazado 109815" d="M820.5,2378.225H737.913l-10.95-48.566.59-.223c.494-.187,12.039-4.725,8.81-19.875a151.755,151.755,0,0,0-7.613-25.7l-.291-.675,34.6-14.312.335.268c.084.067,8.56,6.773,15.609,6.773h.372c7.081,0,15.548-6.707,15.632-6.773l.335-.268,34.605,14.31-.291.677a151.868,151.868,0,0,0-7.615,25.7h0c-3.228,15.15,8.316,19.688,8.81,19.875l.59.223Zm-81.426-1.449H819.34l10.422-46.242c-2.521-1.216-12.2-6.9-9.137-21.275h0a160.44,160.44,0,0,1,7.422-25.293l-32.472-13.429c-1.731,1.319-9.482,6.932-16.384,6.826-6.774.133-14.629-5.506-16.36-6.826l-32.47,13.429a160.186,160.186,0,0,1,7.42,25.293c3.061,14.379-6.616,20.059-9.136,21.275Z" transform="translate(-726.963 -2268.872)" fill="#4d4d4d"/>
      </g>
      <circle id="Elipse_4415" data-name="Elipse 4415" cx="3.841" cy="3.841" r="3.841" transform="translate(69.928 50.725)" fill="#4d4d4d"/>
      <circle id="Elipse_4416" data-name="Elipse 4416" cx="3.841" cy="3.841" r="3.841" transform="translate(26.536 50.725)" fill="#4d4d4d"/>
      <path id="Trazado_109816" data-name="Trazado 109816" d="M769.313,2375.069l-3.654-18.4a39.424,39.424,0,0,0-10.39-18.409c-8.848-8.848-7.875-17.029-7.831-17.373l2.7-49.986,1.447.08-2.708,50.041c-.014.132-.9,7.9,7.413,16.213a40.157,40.157,0,0,1,10.789,19.16l3.651,18.394Z" transform="translate(-717.782 -2267.961)" fill="#4d4d4d"/>
      <path id="Trazado_109817" data-name="Trazado 109817" d="M764.719,2375.069l-1.422-.284,3.654-18.4a40.112,40.112,0,0,1,10.785-19.152c8.309-8.309,7.428-16.082,7.417-16.158l-2.712-50.1,1.447-.08,2.708,50.042c.042.287,1.015,8.468-7.835,17.316a39.443,39.443,0,0,0-10.388,18.4Z" transform="translate(-710.629 -2267.961)" fill="#4d4d4d"/>
    </g>
    <g id="Grupo_56592" data-name="Grupo 56592" transform="translate(1065.548 2348.199)">
      <g id="Grupo_56591" data-name="Grupo 56591" transform="translate(0)">
        <path id="Trazado_109818" data-name="Trazado 109818" d="M901.336,2309.152a151.106,151.106,0,0,1,7.658-25.84l-33.53-13.865s-8.823,7.06-16.26,6.933c-7.438.126-16.26-6.933-16.26-6.933l-33.53,13.865a151.11,151.11,0,0,1,7.658,25.84c3.4,15.977-9.266,20.7-9.266,20.7l10.683,47.386h81.428l10.682-47.386S897.933,2325.129,901.336,2309.152Z" transform="translate(-806.963 -2268.614)" fill="#fff"/>
        <path id="Trazado_109819" data-name="Trazado 109819" d="M900.759,2378.225H818.175l-10.95-48.566.59-.223c.494-.187,12.039-4.725,8.81-19.875a151.934,151.934,0,0,0-7.613-25.7l-.291-.675,34.6-14.312.335.268c.084.067,8.56,6.773,15.609,6.773h.373c7.081,0,15.548-6.707,15.632-6.773l.335-.268,34.605,14.31-.293.677a152.021,152.021,0,0,0-7.612,25.7h0c-3.23,15.15,8.315,19.688,8.809,19.875l.59.223Zm-81.427-1.449H899.6l10.424-46.242c-2.521-1.215-12.2-6.9-9.135-21.275h0a160.184,160.184,0,0,1,7.42-25.293l-32.471-13.429c-1.732,1.319-9.512,6.932-16.384,6.826-6.9.133-14.629-5.506-16.36-6.826l-32.47,13.429a160.323,160.323,0,0,1,7.42,25.293c3.061,14.379-6.616,20.059-9.137,21.275Z" transform="translate(-807.225 -2268.872)" fill="#4d4d4d"/>
      </g>
      <circle id="Elipse_4417" data-name="Elipse 4417" cx="3.841" cy="3.841" r="3.841" transform="translate(69.928 50.725)" fill="#4d4d4d"/>
      <circle id="Elipse_4418" data-name="Elipse 4418" cx="3.841" cy="3.841" r="3.841" transform="translate(26.536 50.725)" fill="#4d4d4d"/>
      <path id="Trazado_109820" data-name="Trazado 109820" d="M857.17,2372.948h-1.45v-35.923c0-7.209,2.664-16.1,2.777-16.479l11.425-45.713,1.406.351L859.9,2320.933c-.038.125-2.725,9.1-2.725,16.093Z" transform="translate(-785.423 -2266.192)" fill="gray"/>
      <path id="Trazado_109821" data-name="Trazado 109821" d="M836.171,2372.948h-1.449v-35.923c0-6.993-2.687-15.969-2.715-16.06l-11.444-45.781,1.406-.351,11.436,45.746c.1.342,2.767,9.236,2.767,16.445Z" transform="translate(-801.229 -2266.192)" fill="gray"/>
    </g>
  </g>
</svg>
