<svg xmlns="http://www.w3.org/2000/svg" width="812" height="369.767" viewBox="0 0 812 369.767">
  <g id="Grupo_56624" data-name="Grupo 56624" transform="translate(-261.18 -2794.018)">
    <rect id="Rectángulo_10371" data-name="Rectángulo 10371" width="812" height="369.766" rx="26.031" transform="translate(261.18 2794.018)" fill="#fff"/>
    <g id="Grupo_56623" data-name="Grupo 56623" transform="translate(303.962 2822.086)">
      <g id="Grupo_56611" data-name="Grupo 56611" transform="translate(0 3.874)">
        <path id="Trazado_109870" data-name="Trazado 109870" d="M331.762,3043.995l-1.084-.33c.272-.89,6.393-20.854,10.117-25.4-.843-.487-2.518-1.5-5.114-3.259l-14.788.35-.145-.366-21.79-54.848,13.217-15.645c.524-.685,13.349-17.291,23.151-20.558l.358,1.076c-9.472,3.156-22.5,20.021-22.626,20.192l-12.8,15.148,21.393,53.85,14.364-.34.151.1c3.9,2.653,5.786,3.651,5.805,3.662l.747.394-.649.542C339.268,3020.9,333.68,3037.712,331.762,3043.995Z" transform="translate(-298.957 -2808.746)" fill="#454545"/>
        <path id="Trazado_109871" data-name="Trazado 109871" d="M341.447,3013.234l-.844-.756c.656-.733,2.281-2.916,1.942-4.205-.5-1.909-1.361-22.829-1.4-23.719a45.037,45.037,0,0,0-3.1-11.938c-2.429-5.342-7.138-18.507-7.24-23.13-.1-4.307.792-22.211.88-23.99a56.567,56.567,0,0,1-2.749-14.027c-.685-8.5-.009-27.448,0-27.64l1.133.042c-.008.189-.681,19.071,0,27.508a55.407,55.407,0,0,0,2.721,13.828l.043.111-.007.119c-.01.2-.982,19.627-.884,24.025.1,4.313,4.687,17.3,7.138,22.686a45.269,45.269,0,0,1,3.2,12.327c.249,6.061.973,22.025,1.363,23.512C344.195,3010.091,341.73,3012.918,341.447,3013.234Z" transform="translate(-295.025 -2814.06)" fill="#454545"/>
        <path id="Trazado_109872" data-name="Trazado 109872" d="M308.875,2919.718l-.926-.65,19.2-27.377c.168-.3,4.928-8.571,13.942-10.374,8.667-1.733,18.247-7.169,18.343-7.224l4.195-2.033-.1,1.007c-.037.376-.8,9.227,9.248,12.2a83.058,83.058,0,0,0,13.391,3.132c5.371.575,14.149-4.315,14.238-4.364a6.307,6.307,0,0,0,3.265-4.236,1.994,1.994,0,0,0-.255-1.7,1.825,1.825,0,0,0-1.443-.306.924.924,0,0,1-.818-.188c-.713-.546-.916-2.026-.642-4.66.49-4.714,3.13-15.383,3.242-15.834l1.1.272c-.028.111-2.733,11.045-3.216,15.68-.291,2.792.079,3.484.18,3.616a2.484,2.484,0,0,1,2.966,3.321,7.344,7.344,0,0,1-3.863,5.04c-.335.189-9.159,5.088-14.874,4.481a82.254,82.254,0,0,1-13.606-3.177c-8.925-2.643-9.977-9.816-10.055-12.429l-2.425,1.174c-.062.037-9.8,5.563-18.65,7.333-8.495,1.7-13.162,9.785-13.207,9.867Zm92.9-43.026a.3.3,0,0,0-.109.024c.019,0,.059-.014.116-.024Zm.075.02Z" transform="translate(-297.766 -2817.599)" fill="#454545"/>
        <path id="Trazado_109873" data-name="Trazado 109873" d="M377.817,3002.507c-25.32,0-35.589-7.519-36.021-7.846l.682-.9c.1.078,10.855,7.9,36.779,7.609,26.037-.289,38.553-5.707,38.676-5.761l.46,1.036c-.125.054-12.82,5.565-39.122,5.857Q378.535,3002.508,377.817,3002.507Z" transform="translate(-293.281 -2799.494)" fill="#454545"/>
        <path id="Trazado_109874" data-name="Trazado 109874" d="M356.062,3014.4l-1.13-.07c.01-.166,1.019-16.632,0-27.685a58.092,58.092,0,0,0-5.7-19.8,101.711,101.711,0,0,0-5.672-11.867c-2.853-4.728-3.031-11.87-3.037-12.172l.506-28.234-.653-35.8,1.132-.019.653,35.821-.506,28.233c0,.05.179,7.123,2.873,11.59a101.757,101.757,0,0,1,5.729,11.974,59.213,59.213,0,0,1,5.8,20.172C357.087,2997.683,356.072,3014.236,356.062,3014.4Z" transform="translate(-293.468 -2814.733)" fill="#454545"/>
        <path id="Trazado_109875" data-name="Trazado 109875" d="M397.339,3014.71l-1.133-.032c0-.05.156-5.094.887-23.745.672-17.17,3.379-21.158,4.062-21.9a76.956,76.956,0,0,1,5.768-12.39c3.114-5.146,3.895-25.047,3.709-26.31l.034-.006c-.149-.954-.168-5.745.386-33.6,0,0-.567-6.4-.665-11.87-.091-5.1-4.858-7.555-4.907-7.579l.507-1.014c.221.111,5.428,2.78,5.532,8.573.1,5.43.657,11.787.662,11.852-.254,12.932-.588,32.431-.459,33.387l-.011,0c.3,2.052-.529,21.71-3.82,27.148a75.792,75.792,0,0,0-5.71,12.3l-.051.147-.119.1c-.018.018-3.079,3.112-3.787,21.2C397.494,3009.62,397.34,3014.663,397.339,3014.71Z" transform="translate(-286.071 -2815.062)" fill="#454545"/>
        <path id="Trazado_109876" data-name="Trazado 109876" d="M428.436,3105.392l-.666-.916c.059-.043,5.954-4.339,7.085-5.543.775-.823,1.907-6.1,2.439-9.235l2.231-7.6a53.55,53.55,0,0,1,2.482-7.275c.746-1.378,1.488-5.82,1.71-7.417l.962-29.089v-20.161c0-.122-.245-13.293-1.786-19.166-1.582-6.031-.837-15.638-.8-16.044l1.575-16.373.492-31.057a141.848,141.848,0,0,0,0-24.164c-.947-10.092-3.869-14.442-6.963-19.048-.7-1.044-1.426-2.123-2.118-3.264-3.427-5.653-10.24-5.452-10.324-5.438l-.155.006-3.921-2.111-6.14-1.658-10.556-3.255-12.907-4.137.345-1.079,12.9,4.136,10.531,3.248,6.306,1.717,3.709,2c1.094-.005,7.668.2,11.179,5.987.678,1.119,1.4,2.188,2.089,3.221,3.037,4.52,6.177,9.195,7.151,19.572a142.68,142.68,0,0,1,0,24.336l-.49,31.054-1.578,16.409c-.007.088-.761,9.813.771,15.657,1.575,6,1.814,18.9,1.823,19.444v20.19l-.967,29.168c-.038.3-.844,6.018-1.841,7.859a54.084,54.084,0,0,0-2.388,7.044l-2.219,7.543c-.224,1.344-1.48,8.442-2.717,9.757C434.477,3100.988,428.683,3105.212,428.436,3105.392Z" transform="translate(-286.751 -2815.711)" fill="#454545"/>
        <path id="Trazado_109877" data-name="Trazado 109877" d="M409.228,2997.041l9.159,23.34,5.243,17.873,3.324,13.516s1.108,10.119-1.182,12.409a6.532,6.532,0,0,0-1.55,5.613l-.369,39.22,1.92-8.347.665-27.918s2.216-5.908,3.989-7.165,4.875-3.989,3.324-9.9-6.352-27.549-6.352-27.549,1.182-6.574-.516-10.636-4.941-15.289-11.039-19.2l-3.734-2.733-2.88.812Z" transform="translate(-284.346 -2799.255)" fill="#454545"/>
        <path id="Trazado_109878" data-name="Trazado 109878" d="M410.655,3011.951l-.143-10.993s-.2-6.5,2.954-9.011,3.1-2.855,3.3-6.055-.148-4.236,1.034-6.205,3.4-6.992,3.4-6.992l3.84-7.73,2.314-7.435a48.864,48.864,0,0,0,.69-7.645c.3-6.143-.64-21.456-.64-21.456l-1.772-34.861s-1.256-7.164-3.693-11.3l-2.632-1.552,1.672,3.028a76.306,76.306,0,0,1,1.7,11.227c.147,4.432-.3,12.851-.3,12.851l-1.33,19.425-.074,19.794s-1.838,12.482-4.982,17.579a113.045,113.045,0,0,0-6.614,13.812s-1.552,12.556-1.256,18.1.168,14.786.168,14.786Z" transform="translate(-284.497 -2814.472)" fill="#454545"/>
        <path id="Trazado_109879" data-name="Trazado 109879" d="M420.632,2888.208s3.84,1.021,6.536-4.271-.294-11.682-.294-11.682l-2.254-3.693a2.272,2.272,0,0,1,.48-2.216s3.361,0,4.4-2.658,2.289-6.057,1-9.787-6.277-9.639-6.277-9.639l-11.006-20.2a3.182,3.182,0,0,0-3.729-1.7,6.273,6.273,0,0,0,0,5.983c1.7,3.287,7.311,15.916,7.311,15.916a37.374,37.374,0,0,0,6.241,7.94s1.145,2.548.629,3.693-1.81,3.8-1.81,3.8-1.219.849-1.736.185-8.236-16.175-8.716-18.76l-.59-1.921s-1.663-3.324-1.33.554,4.247,14.513,4.247,14.513,1.846,4.949,4.173,7.313a7.634,7.634,0,0,0,1.292,5.576l1.366,1.588s2.807,5.983.075,8.678c0,0-2.364,5.281-7.164,6.869l-2.475.7Z" transform="translate(-284.413 -2822.223)" fill="#3c3c3c"/>
        <g id="Grupo_56610" data-name="Grupo 56610" transform="translate(32.813 240.419)">
          <path id="Trazado_109880" data-name="Trazado 109880" d="M340.64,3051.03a10.656,10.656,0,0,1-4.435.8c-4.735,0-8.274-2.99-8.274-8.5,0-5.258,3.563-8.8,8.771-8.8a9.593,9.593,0,0,1,3.988.723l-.549,1.794a7.685,7.685,0,0,0-3.364-.7c-3.937,0-6.554,2.518-6.554,6.9,0,4.111,2.367,6.728,6.429,6.728a8.718,8.718,0,0,0,3.564-.7Z" transform="translate(-327.931 -3034.51)"/>
          <path id="Trazado_109881" data-name="Trazado 109881" d="M347.779,3051.856c-4.461,0-7.55-3.438-7.55-8.522,0-5.333,3.289-8.821,7.775-8.821,4.609,0,7.575,3.513,7.575,8.5,0,5.756-3.514,8.847-7.775,8.847Zm.125-1.77c3.438,0,5.382-3.163,5.382-6.977,0-3.338-1.744-6.826-5.357-6.826s-5.408,3.364-5.408,7c0,3.539,1.943,6.8,5.358,6.8Z" transform="translate(-326.301 -3034.513)"/>
          <path id="Trazado_109882" data-name="Trazado 109882" d="M356.267,3035.018a22.6,22.6,0,0,1,4.162-.374c2.318,0,3.837.449,4.883,1.4a4.189,4.189,0,0,1,1.32,3.189,4.431,4.431,0,0,1-3.164,4.261v.074c1.271.449,2.043,1.646,2.468,3.389a30.156,30.156,0,0,0,1.271,4.611h-2.242a20.985,20.985,0,0,1-1.1-4.013c-.5-2.317-1.42-3.19-3.388-3.264h-2.043v7.277h-2.169Zm2.169,7.626h2.217c2.317,0,3.788-1.271,3.788-3.19,0-2.168-1.571-3.116-3.863-3.116a9.063,9.063,0,0,0-2.143.2Z" transform="translate(-324.176 -3034.496)"/>
          <path id="Trazado_109883" data-name="Trazado 109883" d="M371.715,3036.6h-5.109v-1.844h12.435v1.844h-5.134v14.951h-2.193Z" transform="translate(-322.807 -3034.481)"/>
          <path id="Trazado_109884" data-name="Trazado 109884" d="M387.909,3043.676h-6.5v6.054h7.276v1.82h-9.47v-16.8h9.1v1.819h-6.9v5.308h6.5Z" transform="translate(-321.136 -3034.481)"/>
          <path id="Trazado_109885" data-name="Trazado 109885" d="M328.811,3061.394a22.344,22.344,0,0,1,4.162-.349,6.905,6.905,0,0,1,4.71,1.4,4.517,4.517,0,0,1,1.494,3.488,4.851,4.851,0,0,1-1.32,3.589,6.957,6.957,0,0,1-5.133,1.844,7.394,7.394,0,0,1-1.744-.149v6.753h-2.169Zm2.169,8.049a7.267,7.267,0,0,0,1.794.174c2.616,0,4.212-1.271,4.212-3.563,0-2.217-1.571-3.29-3.963-3.29a9.067,9.067,0,0,0-2.043.176Z" transform="translate(-327.814 -3030.998)"/>
          <path id="Trazado_109886" data-name="Trazado 109886" d="M340.515,3061.419a22.648,22.648,0,0,1,4.162-.374c2.318,0,3.837.448,4.883,1.4a4.192,4.192,0,0,1,1.32,3.19,4.431,4.431,0,0,1-3.164,4.26v.075c1.271.448,2.043,1.646,2.468,3.389a30.174,30.174,0,0,0,1.271,4.609h-2.242a20.93,20.93,0,0,1-1.1-4.013c-.5-2.317-1.42-3.189-3.388-3.264h-2.043v7.276h-2.169Zm2.169,7.625H344.9c2.317,0,3.788-1.271,3.788-3.189,0-2.168-1.571-3.115-3.863-3.115a9.058,9.058,0,0,0-2.143.2Z" transform="translate(-326.264 -3030.998)"/>
          <path id="Trazado_109887" data-name="Trazado 109887" d="M354.523,3061.155v16.795h-2.194v-16.795Z" transform="translate(-324.698 -3030.983)"/>
          <path id="Trazado_109888" data-name="Trazado 109888" d="M357.609,3077.95v-16.795H360l5.358,8.5a47.006,47.006,0,0,1,2.99,5.456l.075-.024c-.2-2.243-.248-4.286-.248-6.877v-7.052h2.042v16.795h-2.193l-5.332-8.522a49.128,49.128,0,0,1-3.116-5.606l-.074.024c.123,2.118.148,4.136.148,6.927v7.177Z" transform="translate(-323.999 -3030.983)"/>
          <path id="Trazado_109889" data-name="Trazado 109889" d="M383.913,3077.431a10.668,10.668,0,0,1-4.435.8c-4.735,0-8.274-2.99-8.274-8.5,0-5.258,3.564-8.8,8.772-8.8a9.612,9.612,0,0,1,3.986.723l-.548,1.794a7.69,7.69,0,0,0-3.364-.7c-3.938,0-6.554,2.516-6.554,6.9,0,4.11,2.367,6.727,6.429,6.727a8.709,8.709,0,0,0,3.563-.7Z" transform="translate(-322.197 -3031.012)"/>
          <path id="Trazado_109890" data-name="Trazado 109890" d="M393.518,3070.076h-6.5v6.055h7.276v1.819h-9.469v-16.795h9.1v1.82h-6.9v5.307h6.5Z" transform="translate(-320.393 -3030.983)"/>
          <path id="Trazado_109891" data-name="Trazado 109891" d="M395.494,3075.338a7.593,7.593,0,0,0,3.862,1.071c2.217,0,3.514-1.146,3.514-2.84,0-1.57-.9-2.493-3.165-3.34-2.741-.947-4.435-2.392-4.435-4.734,0-2.617,2.168-4.561,5.433-4.561a7.862,7.862,0,0,1,3.687.8l-.6,1.794a6.216,6.216,0,0,0-3.164-.8c-2.292,0-3.165,1.37-3.165,2.517,0,1.544,1.023,2.317,3.341,3.214,2.839,1.121,4.26,2.468,4.26,4.933,0,2.567-1.895,4.834-5.856,4.834a8.675,8.675,0,0,1-4.286-1.1Z" transform="translate(-319.055 -3031.012)"/>
          <path id="Trazado_109892" data-name="Trazado 109892" d="M409.378,3072.667l-1.744,5.283h-2.242l5.707-16.795h2.617l5.73,16.795h-2.317l-1.8-5.283Zm5.508-1.695-1.67-4.834c-.349-1.1-.6-2.092-.847-3.065h-.075c-.224.973-.5,2.019-.822,3.041l-1.644,4.858Z" transform="translate(-317.667 -3030.983)"/>
        </g>
      </g>
      <g id="Grupo_56620" data-name="Grupo 56620" transform="translate(280.598 8.041)">
        <g id="Grupo_56612" data-name="Grupo 56612" transform="translate(15.749 242.188)">
          <path id="Trazado_109893" data-name="Trazado 109893" d="M560.632,3040.174a19.342,19.342,0,0,1,3.622-.3,6.009,6.009,0,0,1,4.1,1.214,3.935,3.935,0,0,1,1.3,3.037,4.225,4.225,0,0,1-1.15,3.122,6.059,6.059,0,0,1-4.468,1.606,6.476,6.476,0,0,1-1.519-.132v5.878h-1.887Zm1.887,7a6.337,6.337,0,0,0,1.562.152c2.278,0,3.665-1.106,3.665-3.1,0-1.932-1.366-2.864-3.449-2.864a7.892,7.892,0,0,0-1.778.153Z" transform="translate(-560.632 -3039.74)"/>
          <path id="Trazado_109894" data-name="Trazado 109894" d="M576.628,3054.849c-3.883,0-6.572-2.993-6.572-7.418,0-4.641,2.862-7.676,6.767-7.676,4.012,0,6.592,3.058,6.592,7.394,0,5.01-3.058,7.7-6.767,7.7Zm.108-1.542c2.993,0,4.684-2.753,4.684-6.071,0-2.906-1.518-5.942-4.663-5.942s-4.706,2.928-4.706,6.094c0,3.08,1.692,5.919,4.662,5.919Z" transform="translate(-559.383 -3039.755)"/>
          <path id="Trazado_109895" data-name="Trazado 109895" d="M583.867,3052.309a6.589,6.589,0,0,0,3.361.933c1.93,0,3.058-1,3.058-2.474,0-1.366-.781-2.168-2.754-2.906-2.385-.824-3.861-2.082-3.861-4.12,0-2.278,1.887-3.97,4.728-3.97a6.829,6.829,0,0,1,3.21.7l-.52,1.561a5.417,5.417,0,0,0-2.755-.694c-1.994,0-2.753,1.194-2.753,2.191,0,1.343.889,2.016,2.9,2.8,2.473.977,3.709,2.148,3.709,4.294,0,2.235-1.649,4.207-5.1,4.207a7.553,7.553,0,0,1-3.729-.954Z" transform="translate(-557.62 -3039.752)"/>
          <path id="Trazado_109896" data-name="Trazado 109896" d="M596.433,3041.57h-4.445v-1.6h10.821v1.6h-4.467v13.013h-1.909Z" transform="translate(-556.477 -3039.727)"/>
          <path id="Trazado_109897" data-name="Trazado 109897" d="M610.531,3047.729h-5.66V3053H611.2v1.583h-8.241v-14.617h7.915v1.583h-6.007v4.62h5.66Z" transform="translate(-555.023 -3039.727)"/>
          <path id="Trazado_109898" data-name="Trazado 109898" d="M612.405,3040.194a19.709,19.709,0,0,1,3.622-.325c2.017,0,3.34.391,4.251,1.214a3.652,3.652,0,0,1,1.148,2.776,3.857,3.857,0,0,1-2.754,3.71v.064c1.106.39,1.778,1.432,2.147,2.95a26.291,26.291,0,0,0,1.106,4.012h-1.952a18.33,18.33,0,0,1-.955-3.492c-.433-2.017-1.236-2.776-2.949-2.841h-1.778v6.333h-1.887Zm1.887,6.637h1.931c2.016,0,3.3-1.105,3.3-2.776,0-1.887-1.366-2.71-3.361-2.71a7.9,7.9,0,0,0-1.865.173Z" transform="translate(-553.772 -3039.74)"/>
          <path id="Trazado_109899" data-name="Trazado 109899" d="M624.6,3039.965v14.617h-1.907v-14.617Z" transform="translate(-552.409 -3039.727)"/>
          <path id="Trazado_109900" data-name="Trazado 109900" d="M633.094,3054.849c-3.882,0-6.572-2.993-6.572-7.418,0-4.641,2.862-7.676,6.766-7.676,4.013,0,6.594,3.058,6.594,7.394,0,5.01-3.059,7.7-6.767,7.7Zm.108-1.542c2.993,0,4.684-2.753,4.684-6.071,0-2.906-1.518-5.942-4.663-5.942s-4.707,2.928-4.707,6.094c0,3.08,1.693,5.919,4.664,5.919Z" transform="translate(-551.901 -3039.755)"/>
          <path id="Trazado_109901" data-name="Trazado 109901" d="M640.485,3040.194a19.709,19.709,0,0,1,3.622-.325c2.017,0,3.34.391,4.251,1.214a3.652,3.652,0,0,1,1.148,2.776,3.857,3.857,0,0,1-2.754,3.71v.064c1.106.39,1.778,1.432,2.147,2.95a26.306,26.306,0,0,0,1.106,4.012h-1.952a18.313,18.313,0,0,1-.955-3.492c-.433-2.017-1.236-2.776-2.949-2.841h-1.778v6.333h-1.887Zm1.887,6.637H644.3c2.016,0,3.3-1.105,3.3-2.776,0-1.887-1.366-2.71-3.361-2.71a7.9,7.9,0,0,0-1.865.173Z" transform="translate(-550.051 -3039.74)"/>
          <path id="Trazado_109902" data-name="Trazado 109902" d="M560.632,3063.159a19.4,19.4,0,0,1,3.622-.3,6,6,0,0,1,4.1,1.215,3.932,3.932,0,0,1,1.3,3.036,4.225,4.225,0,0,1-1.15,3.122,6.056,6.056,0,0,1-4.468,1.606,6.575,6.575,0,0,1-1.519-.13v5.876h-1.887Zm1.887,7a6.338,6.338,0,0,0,1.562.151c2.278,0,3.665-1.105,3.665-3.1,0-1.931-1.366-2.863-3.449-2.863a7.878,7.878,0,0,0-1.778.152Z" transform="translate(-560.632 -3036.694)"/>
          <path id="Trazado_109903" data-name="Trazado 109903" d="M570.822,3063.179a19.773,19.773,0,0,1,3.622-.325c2.017,0,3.34.391,4.251,1.215a3.648,3.648,0,0,1,1.148,2.775,3.856,3.856,0,0,1-2.754,3.709v.065c1.105.391,1.778,1.432,2.147,2.949a26.282,26.282,0,0,0,1.106,4.012h-1.952a18.3,18.3,0,0,1-.955-3.492c-.433-2.017-1.236-2.775-2.949-2.841h-1.778v6.333h-1.887Zm1.887,6.637h1.931c2.016,0,3.3-1.106,3.3-2.775,0-1.887-1.366-2.712-3.361-2.712a7.863,7.863,0,0,0-1.865.174Z" transform="translate(-559.282 -3036.694)"/>
          <path id="Trazado_109904" data-name="Trazado 109904" d="M583.016,3062.95v14.617h-1.907V3062.95Z" transform="translate(-557.919 -3036.681)"/>
          <path id="Trazado_109905" data-name="Trazado 109905" d="M585.7,3077.567V3062.95h2.083l4.662,7.4a40.609,40.609,0,0,1,2.6,4.751l.066-.023c-.173-1.953-.216-3.73-.216-5.985v-6.138h1.778v14.617H594.77l-4.64-7.417a42.521,42.521,0,0,1-2.712-4.88l-.065.021c.109,1.844.13,3.6.13,6.029v6.246Z" transform="translate(-557.31 -3036.681)"/>
          <path id="Trazado_109906" data-name="Trazado 109906" d="M608.6,3077.116a9.3,9.3,0,0,1-3.861.694c-4.121,0-7.2-2.6-7.2-7.4a7.257,7.257,0,0,1,7.634-7.655,8.365,8.365,0,0,1,3.47.628l-.477,1.562a6.706,6.706,0,0,0-2.929-.607c-3.426,0-5.7,2.19-5.7,6.007,0,3.579,2.06,5.856,5.595,5.856a7.592,7.592,0,0,0,3.1-.607Z" transform="translate(-555.741 -3036.707)"/>
          <path id="Trazado_109907" data-name="Trazado 109907" d="M616.966,3070.713h-5.66v5.272h6.333v1.582H609.4V3062.95h7.915v1.583h-6.008v4.621h5.66Z" transform="translate(-554.17 -3036.681)"/>
          <path id="Trazado_109908" data-name="Trazado 109908" d="M618.688,3075.293a6.591,6.591,0,0,0,3.361.933c1.93,0,3.058-1,3.058-2.472,0-1.366-.78-2.169-2.753-2.907-2.386-.823-3.862-2.081-3.862-4.12,0-2.276,1.887-3.968,4.728-3.968a6.829,6.829,0,0,1,3.21.694l-.52,1.562a5.412,5.412,0,0,0-2.754-.694c-2,0-2.754,1.193-2.754,2.19,0,1.344.889,2.016,2.9,2.8,2.473.976,3.71,2.147,3.71,4.294,0,2.233-1.649,4.208-5.1,4.208a7.538,7.538,0,0,1-3.729-.955Z" transform="translate(-553.005 -3036.707)"/>
          <path id="Trazado_109909" data-name="Trazado 109909" d="M630.777,3072.971l-1.518,4.6h-1.952l4.967-14.617h2.276l4.989,14.617h-2.018l-1.561-4.6Zm4.793-1.476-1.452-4.207c-.3-.955-.521-1.821-.738-2.667h-.065c-.195.846-.434,1.757-.716,2.646l-1.432,4.228Z" transform="translate(-551.797 -3036.681)"/>
        </g>
        <path id="Trazado_109910" data-name="Trazado 109910" d="M555.72,3092.762c-.042-.121-4.231-12.195-4.993-13.719-.772-1.544-3.5-6.325-3.531-6.374l-.057-.14a22.712,22.712,0,0,1-.01-8.8c.889-5.134,5.841-16.026,6.051-16.487l5.009-12.969c.023-.085,3.833-13.388,5-18.725a109.166,109.166,0,0,0,1.564-14.184v-5.195c-.008-.344-.172-8.83,2.1-15.159,2.261-6.29,2.98-7.453,3.01-7.5l.955.608a56.35,56.35,0,0,0-2.9,7.274c-2.2,6.126-2.037,14.678-2.035,14.763v5.233a109.993,109.993,0,0,1-1.589,14.4c-1.172,5.371-4.993,18.71-5.032,18.844l-5.037,13.049c-.065.142-5.115,11.249-5.977,16.239a22.493,22.493,0,0,0-.027,8.263c.359.626,2.777,4.871,3.521,6.357.8,1.589,4.877,13.354,5.051,13.854Z" transform="translate(-546.725 -2806.345)" fill="#454545"/>
        <path id="Trazado_109911" data-name="Trazado 109911" d="M565.175,3052.178l-1.028-.471,9.947-21.616s1.031-1.266,1.031-5.427c0-4.43-2.916-21.595-2.947-21.768l-8.071-39.829c-.039-.334-2.915-28.306-2.769-51.263.136-21.315,1.091-21.564,1.66-21.714l.42-.11.308.421-.985.562.493-.281-.08.519h.008a.442.442,0,0,0,.357-.165c-.154.252-.93,2.442-1.048,20.775-.145,22.893,2.725,50.806,2.754,51.084l8.068,39.793c.123.727,2.965,17.449,2.965,21.975,0,4.167-.973,5.737-1.263,6.113Z" transform="translate(-544.79 -2817.413)" fill="#454545"/>
        <path id="Trazado_109912" data-name="Trazado 109912" d="M672.893,3063.049l-.127-1.126c.086-.01,8.752-1.012,15.378-4.182a20.834,20.834,0,0,0,9.282-9.078c.134-.209,8.213-11.706,9.555-14.581.832-1.784,6.132-8.54,10.807-14.5,3.2-4.084,6.23-7.941,6.95-9.106,2.247-3.636,9.451-15.682,9.792-16.709.3-.9,2.775-5.678,5.5-10.923.568-1.094,1.068-2.055,1.425-2.748a4.648,4.648,0,0,0,.05-4.861c-.043-.057-4.532-5.963-6.076-7.7s-16.942-16.164-17.1-16.309l-9.681-10.468c-3.127-2.535-9.633-12.649-9.908-13.08-.1-.154-10.1-15.655-14.391-23.064-4.2-7.254-12.886-11.948-12.973-11.994a38.5,38.5,0,0,1-4.386-3.908c-1.48-1.611-6.236-3.172-6.849-3.368-.761-.043-6.7-.379-8.531-.59a15.955,15.955,0,0,1-7.544-3.755c-1.709-1.487-6.049-1.092-7.578-.813-.015,0-5.148,1.312-7.908,2.183-2.873.907-12.358.344-12.76.32-.377-.006-9.882-.167-13.636-1.819-3.447-1.518-8.113,0-8.16.019l-8.262,2.95c-.123.045-12.827,4.725-15.266,6.159-2.646,1.556-5.805,1.556-9.151,1.556-2.952,0-6.19,3.612-6.223,3.649l-6.667,6.817-.809-.793,6.648-6.795c.126-.144,3.587-4.01,7.051-4.01,3.188,0,6.2,0,8.576-1.4,2.527-1.486,14.927-6.054,15.454-6.249l8.279-2.954c.217-.074,5.138-1.676,8.984.015,3.546,1.56,13.128,1.723,13.224,1.725.121.008,9.7.574,12.377-.269,2.79-.881,7.955-2.2,8.007-2.208.282-.054,6.1-1.084,8.563,1.065a14.856,14.856,0,0,0,6.931,3.483c1.882.218,8.467.584,8.533.589l.137.024c.229.072,5.632,1.767,7.413,3.7a39.423,39.423,0,0,0,4.163,3.728c.288.144,8.976,4.836,13.341,12.375,4.276,7.386,14.263,22.865,14.362,23.02.068.106,6.685,10.394,9.729,12.868l9.711,10.494c.607.567,15.569,14.584,17.142,16.355s5.948,7.526,6.134,7.769a5.738,5.738,0,0,1,.052,6.062c-.357.693-.857,1.656-1.428,2.752-1.921,3.691-5.136,9.871-5.43,10.759-.434,1.3-8.4,14.511-9.9,16.946-.754,1.22-3.659,4.922-7.023,9.21-4.408,5.619-9.895,12.613-10.673,14.281-1.384,2.966-9.267,14.185-9.6,14.661a21.459,21.459,0,0,1-9.771,9.54C681.831,3062.016,673.254,3063.008,672.893,3063.049Z" transform="translate(-546.603 -2818.896)" fill="#454545"/>
        <path id="Trazado_109913" data-name="Trazado 109913" d="M658.23,3028.986c-3.274,0-3.47-.1-3.573-.151l.506-1.014-.254.508.16-.542c.595.118,6.856.046,10.662-.025h4.177a2.846,2.846,0,0,0,1.81-1.228c.49-1.173,9.187-21.027,9.557-21.871l9.148-24.309c.667-1.752,4.07-10.535,5.591-11.753l.708.885c-.989.791-3.74,7.331-5.241,11.269l-9.157,24.334c-.1.235-9.074,20.718-9.561,21.88a4.051,4.051,0,0,1-2.665,1.912l-.122.014h-4.233C662.238,3028.961,659.854,3028.986,658.23,3028.986Z" transform="translate(-532.424 -2806.995)" fill="#454545"/>
        <path id="Trazado_109914" data-name="Trazado 109914" d="M700.41,2975.663a31.585,31.585,0,0,1-11.152-9.147c-4.754-6.2-17.659-20-17.789-20.134l-5.921-6.709.849-.75,5.909,6.7c.118.127,13.062,13.966,17.849,20.206a31.013,31.013,0,0,0,10.71,8.8Z" transform="translate(-530.981 -2810.927)" fill="#454545"/>
        <path id="Trazado_109915" data-name="Trazado 109915" d="M663.251,3118.844s-.3-6.943,1.625-10.267a35.247,35.247,0,0,0,2.659-5.465s1.55-1.847,1.328-5.834-6.647-29.543-6.647-29.543l-4.58-25.777s-.147-7.682-2.88-8.716a10.533,10.533,0,0,1-3.767-2.141l.665-2.364,7.755-32.2s4.209-12.852,4.357-20.089-2.142-26.811-2.142-26.811,0-3,2.167-2.511,2.61,1.083,2.9,2.167,2.315,1.034,2.413-.1a15.951,15.951,0,0,0-.247-3.1s-.787-7.337-2.757-11.964-4.039-10.44-4.087-11.818.493-16.791-.788-22.551a47.775,47.775,0,0,0-2.855-9.11l-.985-.739a70.39,70.39,0,0,1,2.363,15.708c.147,7.927-.05,17.036-.05,17.036s.591,14.624,1.182,19.105c0,0,1.33,1.673-.147,2.9s-2.709,14.131-2.709,14.131l-7.041,36.437-6.549,28.854s-1.181,1.576-.493,5.712a17.933,17.933,0,0,0,2.561,6.795s2.561,14.574,3.94,18.218,6.6,27.771,6.6,27.771l3.151,12.507a50.045,50.045,0,0,1,.985,7.682C661.281,3106.313,660.69,3113.944,663.251,3118.844Z" transform="translate(-533.872 -2817.422)" fill="#454545"/>
        <path id="Trazado_109916" data-name="Trazado 109916" d="M624.793,2881.722a20.387,20.387,0,0,0,2.265-7.485c.394-4.234.887-11.816.887-11.816s.294-5.712.984-4.629,1.772,18.907,1.281,21.271c0,0,.292,2.15-1.085,3.094l-4.332.627Z" transform="translate(-536.381 -2821.696)" fill="#454545"/>
        <path id="Trazado_109917" data-name="Trazado 109917" d="M605.791,2881.957a1.248,1.248,0,0,0,.3-1.181c-.246-.591-.541-.387-1.33-.563s-3.3.092-3.5-.633-5.218-2.743-6.5-2.5-2.363,1.231-1.822,2.166l2.168.887,3.446.688,4.383.788Z" transform="translate(-540.621 -2819.124)" fill="#454545"/>
        <g id="Grupo_56613" data-name="Grupo 56613" transform="translate(96.021 65.855)">
          <path id="Trazado_109918" data-name="Trazado 109918" d="M642.592,2886.927a7.29,7.29,0,0,0-1.725-1.927l.618-.947a8.082,8.082,0,0,1,2.051,2.25Z" transform="translate(-630.272 -2884.053)" fill="#454545"/>
          <path id="Trazado_109919" data-name="Trazado 109919" d="M633.477,3022.568l-1.126-.13.658-5.722,1.126.128Zm1.316-11.443-1.126-.13.657-5.717,1.126.129Zm1.314-11.434-1.126-.128.656-5.717,1.126.127Zm1.313-11.434-1.126-.128.655-5.715,1.127.127Zm1.31-11.431-1.126-.128.655-5.715,1.126.128Zm1.31-11.428-1.126-.129.654-5.714,1.126.129Zm1.307-11.428-1.126-.129.653-5.714,1.126.128Zm1.309-11.432-1.127-.128.651-5.7,1.127.115,0,.015Zm1.3-11.432-1.126-.128.651-5.718,1.126.128Zm1.3-11.436-1.126-.129.648-5.719,1.127.126Zm1.291-11.445-1.126-.126c.268-2.4.485-4.342.634-5.728l1.127.123C647.033,2903.88,646.816,2905.821,646.548,2908.224Zm-.143-11.52a26.562,26.562,0,0,0-.613-5.578l1.1-.251a27.757,27.757,0,0,1,.641,5.816Z" transform="translate(-631.401 -2883.149)" fill="#454545"/>
          <rect id="Rectángulo_10372" data-name="Rectángulo 10372" width="2.828" height="1.133" transform="matrix(0.115, -0.993, 0.993, 0.115, 0, 147.535)" fill="#454545"/>
        </g>
        <g id="Grupo_56614" data-name="Grupo 56614" transform="translate(29.47 65.855)">
          <path id="Trazado_109920" data-name="Trazado 109920" d="M576.229,2886.927l-.944-.624a8.1,8.1,0,0,1,2.051-2.25l.617.948-.309-.474.311.474A7.256,7.256,0,0,0,576.229,2886.927Z" transform="translate(-572.411 -2884.053)" fill="#454545"/>
          <path id="Trazado_109921" data-name="Trazado 109921" d="M586.808,3022.568l-.658-5.723,1.126-.128.659,5.722Zm-1.316-11.443-.657-5.718,1.126-.129.657,5.717Zm-1.314-11.434-.656-5.718,1.126-.127.656,5.717Zm-1.312-11.434-.655-5.715,1.126-.127.655,5.715Zm-1.309-11.431-.655-5.715,1.126-.128.655,5.715Zm-1.311-11.428-.654-5.713,1.126-.129.655,5.714Zm-1.307-11.428-.653-5.715,1.126-.128.654,5.714Zm-1.308-11.432-.649-5.7,1.123-.143-.563.063.564-.05.65,5.7Zm-1.3-11.432-.651-5.718,1.126-.128.652,5.718Zm-1.3-11.436-.648-5.723,1.126-.126.648,5.719Zm-1.291-11.445c-.268-2.4-.484-4.344-.634-5.731l1.126-.123c.151,1.386.366,3.327.635,5.728Zm.143-11.52-1.133-.013a27.742,27.742,0,0,1,.642-5.816l1.1.251A26.716,26.716,0,0,0,573.88,2896.7Z" transform="translate(-572.747 -2883.149)" fill="#454545"/>
          <rect id="Rectángulo_10373" data-name="Rectángulo 10373" width="1.133" height="2.828" transform="matrix(0.993, -0.114, 0.114, 0.993, 14.688, 144.856)" fill="#454545"/>
        </g>
        <path id="Trazado_109922" data-name="Trazado 109922" d="M611.081,3048.208l-2.228-.406c2.511-13.717.4-163.711.375-165.224l2.265-.033C611.581,2888.733,613.632,3034.276,611.081,3048.208Z" transform="translate(-538.493 -2818.398)" fill="#454545"/>
        <g id="Grupo_56615" data-name="Grupo 56615" transform="translate(64.537 64.67)">
          <path id="Trazado_109923" data-name="Trazado 109923" d="M605.312,2888.785l8.146-.7,2.2,2.376s.915,1.039,1.546-.05l.379-5.754s.034-2.539-1.844-1.318l-2.7,2.649-7.63,1.015-1.7.967Z" transform="translate(-603.712 -2883.007)" fill="#666"/>
        </g>
        <g id="Grupo_56616" data-name="Grupo 56616" transform="translate(63.877 102.88)">
          <path id="Trazado_109924" data-name="Trazado 109924" d="M604.73,2922.524l8.146-.7,2.2,2.376s.915,1.039,1.546-.05l.38-5.754s.034-2.54-1.844-1.318l-2.7,2.649-7.631,1.015-1.7.967Z" transform="translate(-603.129 -2916.746)" fill="#666"/>
        </g>
        <g id="Grupo_56617" data-name="Grupo 56617" transform="translate(65.161 141.592)">
          <path id="Trazado_109925" data-name="Trazado 109925" d="M605.864,2956.707l8.146-.7,2.2,2.376s.916,1.038,1.546-.05l.38-5.754s.034-2.54-1.844-1.318l-2.7,2.649-7.631,1.014-1.7.969Z" transform="translate(-604.263 -2950.928)" fill="#666"/>
        </g>
        <g id="Grupo_56618" data-name="Grupo 56618" transform="translate(65.161 180.303)">
          <path id="Trazado_109926" data-name="Trazado 109926" d="M605.864,2990.889l8.146-.7,2.2,2.376s.916,1.038,1.546-.05l.38-5.754s.034-2.539-1.844-1.318l-2.7,2.648-7.631,1.015-1.7.969Z" transform="translate(-604.263 -2985.111)" fill="#666"/>
        </g>
        <g id="Grupo_56619" data-name="Grupo 56619" transform="translate(64.537 209.505)">
          <path id="Trazado_109927" data-name="Trazado 109927" d="M605.312,3016.674l8.146-.7,2.2,2.376s.915,1.038,1.546-.05l.379-5.754s.034-2.539-1.844-1.318l-2.7,2.649-7.63,1.015-1.7.967Z" transform="translate(-603.712 -3010.896)" fill="#666"/>
        </g>
        <path id="Trazado_109928" data-name="Trazado 109928" d="M616.97,3021.664c-25.923,0-42.727-8.915-43.436-9.3l1.077-1.993c.17.092,17.355,9.189,42.984,9.023,25.5-.143,35.7-7.668,35.805-7.744l1.377,1.8c-.429.33-10.8,8.063-37.17,8.211Z" transform="translate(-543.173 -2801.46)" fill="#454545"/>
        <path id="Trazado_109929" data-name="Trazado 109929" d="M659.428,2894.711l4.629-5.121a6.755,6.755,0,0,0,1.969-6.464c-.787-4.27-3.939-11.458-3.939-11.458s-9.158-18.219-13.294-21.37c0,0,10.34,18.613,10.34,24.226,0,0,1.281,3.6-.688,6.085a13.235,13.235,0,0,1-3.152,3.151s-1.477-.077-1.083,3.074,1.412,2.875.984,4.458l-.591,1.007,3.743,3.152Z" transform="translate(-533.201 -2822.671)" fill="#454545"/>
        <path id="Trazado_109930" data-name="Trazado 109930" d="M651.575,2833.588s3.62,6.647,5.688,9.6,6.869,9.085,7.164,11a41.863,41.863,0,0,1,.738,6.013c-.074,1.3,1.416,6.764,1.446,9.054s.783,4.356,0,4.874-3.588-4.5-3.588-4.5l-6.2-10.119s-7.829-6.8-8.642-12.409c0,0,.156-3.144,1.625,1.625a21.48,21.48,0,0,0,2.659,3.841c.96.812,5.1,5.674,5.982,7.638s4.654,6.469,4.654,6.469.665,1.107.887.369-.738-7.238-3.915-11.153-6.721-11.448-6.721-11.448l-5.465-10.857-1.7-4.8a5.059,5.059,0,0,1-.738-2.438c-.074-1.477,2.955,1.182,2.955,1.182l1.7,3.767Z" transform="translate(-533.645 -2825.903)" fill="#454545"/>
      </g>
      <g id="Grupo_56622" data-name="Grupo 56622" transform="translate(522.78)">
        <g id="Grupo_56621" data-name="Grupo 56621" transform="translate(63.614 271.195)">
          <path id="Trazado_109931" data-name="Trazado 109931" d="M827.8,3072.645a9.32,9.32,0,0,1-3.861.693c-4.121,0-7.2-2.6-7.2-7.4a7.258,7.258,0,0,1,7.634-7.656,8.35,8.35,0,0,1,3.47.63l-.477,1.561a6.705,6.705,0,0,0-2.929-.607c-3.426,0-5.7,2.19-5.7,6.007,0,3.579,2.061,5.856,5.6,5.856a7.6,7.6,0,0,0,3.1-.607Z" transform="translate(-816.743 -3058.266)"/>
          <path id="Trazado_109932" data-name="Trazado 109932" d="M834.022,3073.362c-3.882,0-6.572-2.992-6.572-7.417,0-4.641,2.863-7.677,6.767-7.677,4.012,0,6.592,3.059,6.592,7.4,0,5.009-3.058,7.7-6.766,7.7Zm.109-1.54c2.993,0,4.684-2.753,4.684-6.072,0-2.907-1.518-5.942-4.664-5.942s-4.706,2.927-4.706,6.094c0,3.079,1.692,5.92,4.662,5.92Z" transform="translate(-815.324 -3058.268)"/>
          <path id="Trazado_109933" data-name="Trazado 109933" d="M841.413,3058.708a19.73,19.73,0,0,1,3.623-.325c2.017,0,3.34.39,4.251,1.214a3.654,3.654,0,0,1,1.148,2.776,3.857,3.857,0,0,1-2.754,3.709v.065c1.105.391,1.778,1.433,2.147,2.95a26.355,26.355,0,0,0,1.106,4.013h-1.952a18.324,18.324,0,0,1-.955-3.491c-.434-2.018-1.237-2.777-2.949-2.842H843.3v6.333h-1.887Zm1.887,6.636h1.931c2.017,0,3.3-1.105,3.3-2.776,0-1.886-1.366-2.711-3.361-2.711a7.867,7.867,0,0,0-1.866.175Z" transform="translate(-813.474 -3058.252)"/>
          <path id="Trazado_109934" data-name="Trazado 109934" d="M854.861,3060.083h-4.446v-1.6h10.822v1.6h-4.467V3073.1h-1.909Z" transform="translate(-812.281 -3058.24)"/>
          <path id="Trazado_109935" data-name="Trazado 109935" d="M868.959,3066.242H863.3v5.271h6.333v1.583h-8.24v-14.619h7.915v1.585H863.3v4.619h5.661Z" transform="translate(-810.827 -3058.24)"/>
          <path id="Trazado_109936" data-name="Trazado 109936" d="M817.491,3081.464h7.872v1.583H819.4v4.857h5.508v1.562H819.4v6.615h-1.907Z" transform="translate(-816.644 -3055.195)"/>
          <path id="Trazado_109937" data-name="Trazado 109937" d="M826.837,3081.693a19.728,19.728,0,0,1,3.622-.325c2.018,0,3.341.391,4.251,1.214a3.653,3.653,0,0,1,1.15,2.776,3.859,3.859,0,0,1-2.755,3.71v.063c1.107.391,1.779,1.433,2.148,2.95a26.341,26.341,0,0,0,1.105,4.012h-1.951a18.317,18.317,0,0,1-.955-3.491c-.434-2.017-1.237-2.776-2.949-2.841h-1.779v6.333h-1.887Zm1.887,6.636h1.931c2.017,0,3.3-1.105,3.3-2.776,0-1.887-1.366-2.71-3.36-2.71a7.911,7.911,0,0,0-1.866.173Z" transform="translate(-815.405 -3055.207)"/>
          <path id="Trazado_109938" data-name="Trazado 109938" d="M839.731,3091.483l-1.518,4.6h-1.952l4.967-14.617h2.278l4.987,14.617h-2.017l-1.562-4.6Zm4.793-1.475-1.452-4.207c-.3-.955-.521-1.822-.738-2.668h-.065c-.195.846-.434,1.758-.716,2.647l-1.432,4.229Z" transform="translate(-814.157 -3055.195)"/>
          <path id="Trazado_109939" data-name="Trazado 109939" d="M848.959,3096.082v-14.617h2.083l4.662,7.4a40.879,40.879,0,0,1,2.6,4.75l.066-.022c-.174-1.952-.218-3.73-.218-5.985v-6.138h1.779v14.617h-1.909l-4.64-7.417a42.478,42.478,0,0,1-2.712-4.88l-.065.022c.109,1.844.13,3.6.13,6.029v6.247Z" transform="translate(-812.474 -3055.195)"/>
          <path id="Trazado_109940" data-name="Trazado 109940" d="M871.858,3095.63a9.3,9.3,0,0,1-3.861.693c-4.121,0-7.2-2.6-7.2-7.4a7.257,7.257,0,0,1,7.633-7.656,8.365,8.365,0,0,1,3.471.63l-.477,1.562a6.689,6.689,0,0,0-2.929-.607c-3.426,0-5.7,2.189-5.7,6.006,0,3.58,2.06,5.856,5.595,5.856a7.587,7.587,0,0,0,3.1-.607Z" transform="translate(-810.906 -3055.22)"/>
          <path id="Trazado_109941" data-name="Trazado 109941" d="M880.221,3089.228h-5.66v5.27h6.333v1.584h-8.24v-14.617h7.915v1.583h-6.008v4.619h5.66Z" transform="translate(-809.335 -3055.195)"/>
          <path id="Trazado_109942" data-name="Trazado 109942" d="M881.944,3093.808a6.6,6.6,0,0,0,3.361.933c1.93,0,3.058-1,3.058-2.474,0-1.365-.78-2.169-2.754-2.906-2.385-.825-3.861-2.082-3.861-4.12,0-2.278,1.887-3.97,4.728-3.97a6.833,6.833,0,0,1,3.21.7l-.52,1.561a5.416,5.416,0,0,0-2.755-.694c-1.995,0-2.753,1.194-2.753,2.191,0,1.344.889,2.016,2.9,2.8,2.473.978,3.71,2.149,3.71,4.295,0,2.234-1.65,4.207-5.1,4.207a7.532,7.532,0,0,1-3.729-.954Z" transform="translate(-808.17 -3055.22)"/>
        </g>
        <path id="Trazado_109943" data-name="Trazado 109943" d="M896.028,3116.371s4.136-11.719,6.894-14.87,2.955-5.121,3.349-9.06,2.068-17.43,2.167-18.416.886-31.612.886-31.612-1.772-15.658-8.272-27.377A77.718,77.718,0,0,0,885.1,2995.4h1.871l.591-21.919s2.364-11.69,4.628-13.525,5.81-8.041,5.023-14.048-3.644-17.53-3.644-17.53l-.393,16.545a29.319,29.319,0,0,1-3.25,7.189c-2.068,3.052-7.682,17.233-7.583,18.514s-2.167,22.749-.984,24.225,13.886,12.8,18.12,30.725,1.969,49.043,0,56.232-2.856,21.96-2.856,21.96Z" transform="translate(-744.614 -2804.283)" fill="#454545"/>
        <path id="Trazado_109944" data-name="Trazado 109944" d="M761.468,2950.4l-.9-.692c.181-.236,18.267-23.578,27.566-31.115l.712.881C779.654,2926.931,761.649,2950.17,761.468,2950.4Z" transform="translate(-760.572 -2805.58)" fill="#454545"/>
        <path id="Trazado_109945" data-name="Trazado 109945" d="M817.879,3003.069c-.053-.027-5.473-2.651-15.231-2.554l-.365,0-.154-.332c-.464-1-11.361-24.522-12.251-28.476-.957-4.26-6.61-18.015-7.753-18.867l-.494-.367.4-.468,15.461-17.529.849.75-15.133,17.156c2.069,2.823,7.051,15.855,7.777,19.078.806,3.589,10.665,24.986,12.018,27.916h.179c9.719,0,14.978,2.563,15.2,2.674Z" transform="translate(-757.782 -2803.474)" fill="#454545"/>
        <path id="Trazado_109946" data-name="Trazado 109946" d="M803.307,2950.052l-.444-.5c-.691-.785-16.973-19.375-20.119-33.437l-.039-.169.062-.158c.335-.869,8.259-21.323,12.8-26.844,4.678-5.7,6.819-7.567,11.091-8.179,3.937-.561,16.471-2.949,17.444-3.136l17.376-7.361.443,1.042-17.547,7.421c-.134.026-13.453,2.57-17.556,3.155-3.925.562-5.838,2.254-10.375,7.776-4.214,5.131-11.786,24.407-12.551,26.373,2.886,12.494,16.733,29.151,19.386,32.259l6.929-8.586.441.369a19.085,19.085,0,0,0,4.4.535l-.046,1.133a22,22,0,0,1-4.546-.543Z" transform="translate(-757.639 -2811.984)" fill="#454545"/>
        <path id="Trazado_109947" data-name="Trazado 109947" d="M839.465,2901.92l-.432-.365c-.032-.025-3.136-2.626-10.528-8.56-7.61-6.108-7.649-15.464-7.647-15.86l0-.386,15.024-5.785.249.179a100.11,100.11,0,0,0,14.549,8.224,29.7,29.7,0,0,1,3.229,1.676c1.39,1.021.69,2.78.126,3.567ZM822,2877.523c.1,1.794.874,9.5,7.21,14.589,5.856,4.7,9.027,7.314,10.112,8.214l13.819-16.409c.011-.019.935-1.345.1-1.962a33.539,33.539,0,0,0-3.053-1.57,102.5,102.5,0,0,1-14.468-8.145Z" transform="translate(-752.584 -2811.89)" fill="#454545"/>
        <path id="Trazado_109948" data-name="Trazado 109948" d="M868.356,2902.657l-14.546-17.271c-.591-.823-1.291-2.582.1-3.6a30.055,30.055,0,0,1,3.231-1.677,100.047,100.047,0,0,0,14.547-8.223l.249-.179,15.024,5.785,0,.386c0,.4-.036,9.752-7.648,15.859-7.391,5.934-10.495,8.535-10.527,8.561Zm3.744-29.678a102.432,102.432,0,0,1-14.465,8.144,33.432,33.432,0,0,0-3.054,1.571c-.839.616.085,1.942.125,2l13.79,16.372c1.085-.9,4.255-3.513,10.11-8.214,6.351-5.1,7.12-12.8,7.213-14.59Z" transform="translate(-748.312 -2811.793)" fill="#454545"/>
        <path id="Trazado_109949" data-name="Trazado 109949" d="M822.19,2974.4a.705.705,0,0,1-.562-.327l.292-.223-.268.016c-.046-.213-.573-1.6-5.39-10.49-6.809-12.567-5.442-21.705-5.38-22.088l3.393-36.744,1.128.1-3.4,36.782c-.019.127-1.358,9.205,5.251,21.407,5.965,11.009,5.814,11.106,5.255,11.47A.6.6,0,0,1,822.19,2974.4Zm.008-1.133a.549.549,0,0,0-.262.066l.19.358.4-.307A.479.479,0,0,0,822.2,2973.271Z" transform="translate(-753.926 -2807.441)" fill="#454545"/>
        <path id="Trazado_109950" data-name="Trazado 109950" d="M823.655,2992.417l-1.034-17.652c-1.445-27.893-7.935-32.156-8-32.2l.589-.967c.289.176,7.068,4.619,8.542,33.1l1.034,17.648Z" transform="translate(-753.41 -2802.531)" fill="#454545"/>
        <path id="Trazado_109951" data-name="Trazado 109951" d="M812.729,2937.841c-2.06-3.774-3.068-10.437-3.877-15.789-.189-1.25-.364-2.41-.536-3.413-.878-5.121-1.621-10.6-1.627-10.656h0a134.476,134.476,0,0,1-4.134-16.228c-1.357-7.845,1.934-11.992,2.075-12.164l.879.713c-.031.038-3.1,3.954-1.838,11.258a136.374,136.374,0,0,0,4.118,16.169c.029.155.77,5.615,1.644,10.717.172,1.01.35,2.177.54,3.435.753,4.988,1.785,11.818,3.749,15.418Z" transform="translate(-755.052 -2810.748)" fill="#454545"/>
        <path id="Trazado_109952" data-name="Trazado 109952" d="M836.292,3000.013l-1.133,0c0-.409.039-41.054-5.189-56.541s-22.848-37.52-23.025-37.741l.882-.71c.179.223,17.926,22.417,23.215,38.088S836.293,2999.6,836.292,3000.013Z" transform="translate(-754.428 -2807.379)" fill="#454545"/>
        <path id="Trazado_109953" data-name="Trazado 109953" d="M870.014,3002.557c-.027-1.78-.63-43.78,4.658-59.45s23.036-37.865,23.215-38.088l.883.71c-.178.221-17.8,22.262-23.025,37.741s-4.606,58.635-4.6,59.07Z" transform="translate(-746.075 -2807.379)" fill="#454545"/>
        <path id="Trazado_109954" data-name="Trazado 109954" d="M892.029,2933.685c-.336-1.657-1.523-11.806-1.574-12.238-1.37-10.37-.016-26.344,0-26.5l1.128.1c-.013.159-1.358,16.013,0,26.268.014.114,1.232,10.541,1.56,12.152Z" transform="translate(-743.443 -2808.714)" fill="#454545"/>
        <path id="Trazado_109955" data-name="Trazado 109955" d="M892.882,2935.521l-1.108-.23c1.034-4.974,3.579-16.916,3.579-16.916.011-.1,1.862-14.689,3.55-21.536,1.656-6.72.806-16.678.8-16.777l1.128-.1c.036.415.875,10.244-.827,17.148-1.67,6.783-3.514,21.307-3.533,21.453C896.46,2918.612,893.916,2930.55,892.882,2935.521Z" transform="translate(-743.187 -2810.698)" fill="#454545"/>
        <path id="Trazado_109956" data-name="Trazado 109956" d="M881.644,2986.91l-1.132-.037c.007-.19.655-19.154,1.97-29.693,1.34-10.727,7.37-16.088,7.628-16.31l.744.854c-.06.052-5.965,5.322-7.248,15.6C882.3,2967.808,881.65,2986.721,881.644,2986.91Z" transform="translate(-744.68 -2802.628)" fill="#454545"/>
        <path id="Trazado_109957" data-name="Trazado 109957" d="M857.37,2994.893c-3.192,0-5.4-.206-5.626-.229l.111-1.128c.141.015,14.372,1.338,24.016-2.909l9.135-4.013.455,1.038-9.135,4.012C870.208,2994.358,862.51,2994.893,857.37,2994.893Z" transform="translate(-748.492 -2796.567)" fill="#454545"/>
        <path id="Trazado_109958" data-name="Trazado 109958" d="M878.96,3056.373c-.086-.207-8.66-21.11-8.85-64.125l.849,0c.19,42.823,8.7,63.594,8.785,63.8Z" transform="translate(-746.058 -2795.821)" fill="#454545"/>
        <path id="Trazado_109959" data-name="Trazado 109959" d="M900.642,3058.646a165.228,165.228,0,0,0-17.351-67.279l.744-.411a166.169,166.169,0,0,1,17.456,67.664Z" transform="translate(-744.312 -2795.991)" fill="#454545"/>
        <path id="Trazado_109960" data-name="Trazado 109960" d="M861.433,3053.044c-.181-2.077-4.39-50.974.043-59.986l.762.374c-4.33,8.8,0,59.033.043,59.54Z" transform="translate(-747.47 -2795.713)" fill="#454545"/>
        <path id="Trazado_109961" data-name="Trazado 109961" d="M842.166,3011.594c-.029-.51-.68-12.556,2.918-19.148l.745.406c-3.48,6.378-2.822,18.571-2.815,18.693Z" transform="translate(-749.769 -2795.794)" fill="#454545"/>
        <path id="Trazado_109962" data-name="Trazado 109962" d="M826.963,3063.911l-.849-.031c.017-.5,1.854-49.979,8.733-73.175l.813.241C828.813,3014.039,826.98,3063.415,826.963,3063.911Z" transform="translate(-751.888 -2796.025)" fill="#454545"/>
        <path id="Trazado_109963" data-name="Trazado 109963" d="M837.135,3013.047l-.847-.076c.068-.754,1.653-18.5,3.308-21.353l.735.425C839.082,2994.2,837.695,3006.724,837.135,3013.047Z" transform="translate(-750.539 -2795.904)" fill="#454545"/>
        <path id="Trazado_109964" data-name="Trazado 109964" d="M811.712,3030.173l-.847-.073c.139-1.594,3.523-39.066,13.667-44l.371.763C815.188,2991.589,811.745,3029.789,811.712,3030.173Z" transform="translate(-753.908 -2796.635)" fill="#454545"/>
        <path id="Trazado_109965" data-name="Trazado 109965" d="M822.266,3014.489l-.847-.055c.053-.836,1.36-20.561,5.519-26.341l.691.495C823.612,2994.172,822.28,3014.285,822.266,3014.489Z" transform="translate(-752.51 -2796.371)" fill="#454545"/>
        <path id="Trazado_109966" data-name="Trazado 109966" d="M820.3,3000.6l-.813-.244c.132-.441,3.256-10.805,5.353-13.359l.657.539C823.506,2989.958,820.334,3000.491,820.3,3000.6Z" transform="translate(-752.766 -2796.516)" fill="#454545"/>
        <path id="Trazado_109967" data-name="Trazado 109967" d="M855.6,2994.433c-23.077-1.393-32.549-7.667-32.642-7.731l.319-.469c.092.063,9.459,6.253,32.356,7.633Z" transform="translate(-752.306 -2796.617)" fill="#454545"/>
        <path id="Trazado_109968" data-name="Trazado 109968" d="M808.3,3009.359l-.824-.205c.036-.144,3.737-14.49,16.725-23.026l.467.71C811.96,2995.186,808.332,3009.219,808.3,3009.359Z" transform="translate(-754.358 -2796.632)" fill="#454545"/>
        <rect id="Rectángulo_10374" data-name="Rectángulo 10374" width="4.038" height="1.133" transform="translate(150.036 128.087)" fill="#454545"/>
        <path id="Trazado_109969" data-name="Trazado 109969" d="M903.159,2948l-7.7-11.3.937-.636,6.795,9.969,18.2-25.151c-.293-1.7-2.212-12.406-5.241-19.533-3.321-7.813-7.455-15.279-9.834-17.751l.817-.786c2.5,2.6,6.636,10.043,10.059,18.1,3.336,7.849,5.336,19.9,5.356,20.022l.04.232Z" transform="translate(-742.7 -2810.321)" fill="#454545"/>
        <path id="Trazado_109970" data-name="Trazado 109970" d="M900.063,3022.5l-11.025-19.527.772-.149a81.047,81.047,0,0,1,13.875-1.344l1.018-1.952,9.723-25.516c.134-.521,3.754-14.119,8.738-19.075a2.17,2.17,0,0,1,.772-.618l-16.057-17.5,12.855-18.576,26.054,32.836a3.43,3.43,0,0,1,.08,3.188l-.255.636c-5.637,14.212-9.836,21.372-12.367,24.875-5.907,8.18-13.573,19.818-13.649,19.934l-7.631,12.18a11.894,11.894,0,0,1-4.941,6.3,57.347,57.347,0,0,1-7.5,4.109Zm-9.26-18.7,9.741,17.251a56.967,56.967,0,0,0,6.865-3.806,10.849,10.849,0,0,0,4.488-5.72l.069-.162,7.681-12.26c.084-.128,7.762-11.787,13.685-19.986,2.493-3.452,6.638-10.526,12.232-24.63l.258-.648a2.38,2.38,0,0,0,.049-2.1L920.8,2920.135l-11.47,16.577,16.961,18.49H925a1.175,1.175,0,0,0-.932.412l-.074.09c-4.781,4.708-8.455,18.51-8.492,18.647l-9.768,25.634-1.374,2.646-.358-.012A71.7,71.7,0,0,0,890.8,3003.791Z" transform="translate(-743.55 -2805.627)" fill="#454545"/>
        <path id="Trazado_109971" data-name="Trazado 109971" d="M925.981,2919.369l5.318-2.6s-5.023-20.079-13.442-29.163-12.482-11.3-23.266-11.449-11.844.517-11.844.517v1.478s21.716.123,29.89,9.576a46.816,46.816,0,0,1,10.044,20.484Z" transform="translate(-744.383 -2811.205)" fill="#454545"/>
        <path id="Trazado_109972" data-name="Trazado 109972" d="M851.849,2884.045l-10.231,14.575s-.96,1.674-1.994.886a4.569,4.569,0,0,1-1.337-1.424l13.155-14.924Z" transform="translate(-750.275 -2810.275)" fill="#454545"/>
        <path id="Trazado_109973" data-name="Trazado 109973" d="M850.461,2881.2s-8.789-1.663-12.223-3.657-4.062-2.511-4.211-3.1-.061-1.661.874-1a35,35,0,0,0,6.143,2.622c1.813.58,7.5,3.767,7.607,3.767s1.81.887,1.81.887S850.831,2881.272,850.461,2881.2Z" transform="translate(-750.846 -2811.59)" fill="#454545"/>
        <path id="Trazado_109974" data-name="Trazado 109974" d="M884.974,2872.989s-.493,3.643-2.758,3.4-12.162-4.087-12.162-4.087,1.428-2.167,2.364-1.921,3.151,1.625,5.317,1.3S885.042,2872.621,884.974,2872.989Z" transform="translate(-746.065 -2811.971)" fill="#454545"/>
        <path id="Trazado_109975" data-name="Trazado 109975" d="M869.34,2873.87s-.985-14.993,0-16.963c0,0-.394-6.007-2.659-1.181s-.886,16.347-.493,17.233,1.073,5.243,2.211,5.625,1.828-.208,1.729-1.095S868.945,2875.667,869.34,2873.87Z" transform="translate(-746.68 -2814.158)" fill="#454545"/>
        <path id="Trazado_109976" data-name="Trazado 109976" d="M872.913,2835.046s-2.363-2.856-1.527-5.121,2.215-3.84,1.527-4.333-1.588-2.955-3.8-2.955a4.361,4.361,0,0,0-3.786,2.265c0,.394-1.181,1.182-1.674.986s-3.349-.591-3.644.2,3.841,2.068,4.826,2.068,3.829-1.183,4.279-.493.271,4.136,1.738,5.908S872.913,2835.046,872.913,2835.046Z" transform="translate(-747.398 -2818.294)" fill="#454545"/>
        <path id="Trazado_109977" data-name="Trazado 109977" d="M889.693,2847.494s3.4-5.023,3.324-8.42a9.49,9.49,0,0,0-2.364-6.426c-1.108-1.4-2.437-3.4-1.994-4.948s3.915-.442,3.915-.442,3.471.738,4.505-1.33,1.33-4.211.812-5.318-2.584-2.437-5.244-1.477-1.478,2.584-1.478,2.584-.074,1.675-1.181,1.428-1.417-1.649-1.417-1.649-.873-1.33-.873.885c0,0,1.108,1.109,0,1.772s-.738,2.659-.738,2.659l1.994,4.949s2.733,2.954,1.256,5.392-5.171,7.976-5.171,7.976a14.886,14.886,0,0,0-1.846,7.682,39.264,39.264,0,0,1-.518,7.311s-1.034,1.7-1.993,1.994-7.9,3.25-7.9,3.25-3.531,1.406-4.276,1.847,5.015-1.773,11.293-2.66a31.526,31.526,0,0,1,4.848-1.329c1.5-.147,3.793-1.551,5.418-1.255,0,0,1.256-1.034-.443-2.585a1.784,1.784,0,0,0-2.881.443s-2.51.212-1.55-1.334a30.816,30.816,0,0,0,3.028-5.135A56.33,56.33,0,0,0,889.693,2847.494Z" transform="translate(-746.28 -2818.802)" fill="#454545"/>
      </g>
    </g>
  </g>
</svg>
