<svg xmlns="http://www.w3.org/2000/svg" xmlns:xlink="http://www.w3.org/1999/xlink" width="281.813" height="460.933" viewBox="0 0 281.813 460.933">
  <defs>
    <clipPath id="clip-path">
      <rect id="Rectángulo_10389" data-name="Rectángulo 10389" width="266.86" height="459.82" fill="none"/>
    </clipPath>
  </defs>
  <g id="Grupo_56646" data-name="Grupo 56646" transform="translate(-956.028 -2793.255)">
    <rect id="Rectángulo_10386" data-name="Rectángulo 10386" width="281.813" height="460.932" rx="10.087" transform="translate(956.028 2793.255)" fill="#fff"/>
    <g id="Grupo_56645" data-name="Grupo 56645" transform="translate(963.504 2793.811)">
      <g id="Grupo_56644" data-name="Grupo 56644" clip-path="url(#clip-path)">
        <g id="Grupo_56643" data-name="Grupo 56643" transform="translate(17.658 13.534)">
          <path id="Trazado_110002" data-name="Trazado 110002" d="M1163.18,3147.861l-10.486-26.074V3113l9.5-59.326,12.914-59.082v-23.428s4.206-11.534,4.557-30.457-1.4-26.491-4.205-34.242l-26.986-9.731-20.8-7.388s-17.29-4.086-16.589-24.991l-1.169-32.918-21.9,4.519-21.906-4.519.118,32.859c.7,20.9-17.876,25.051-17.876,25.051l-20.793,7.388-26.112,7.209c-2.8,7.749-5.432,17.842-5.081,36.764s4.555,30.457,4.555,30.457v23.428l12.915,59.08h0l1.883,8.613L1026.571,3113v10.2s-19.272,40.813-21.256,73.406v161.834h174.357l-2.32-135.476S1177.067,3172.518,1163.18,3147.861Z" transform="translate(-962.735 -2789.888)" fill="#fff" stroke="#000" stroke-miterlimit="10" stroke-width="1" opacity="0.33"/>
          <g id="Grupo_56641" data-name="Grupo 56641" transform="translate(62.912 322.336)">
            <path id="Trazado_110003" data-name="Trazado 110003" d="M1102.907,3035.836l-3.264-3.847,3.063-3.311-2.913-3.736,1.051-.819,3.608,4.627-3.028,3.276,2.5,2.948Z" transform="translate(-978.411 -3024.124)" fill="#999"/>
            <path id="Trazado_110004" data-name="Trazado 110004" d="M1100.386,3035.836l-3.264-3.847,3.063-3.311-2.913-3.736,1.052-.819,3.607,4.627-3.028,3.276,2.5,2.948Z" transform="translate(-979.564 -3024.124)" fill="#999"/>
            <path id="Trazado_110005" data-name="Trazado 110005" d="M1097.865,3035.836l-3.264-3.847,3.063-3.311-2.913-3.736,1.052-.819,3.607,4.627-3.028,3.276,2.5,2.948Z" transform="translate(-980.717 -3024.124)" fill="#999"/>
            <path id="Trazado_110006" data-name="Trazado 110006" d="M1095.344,3035.836l-3.264-3.847,3.063-3.311-2.913-3.736,1.052-.819,3.607,4.627-3.028,3.276,2.5,2.948Z" transform="translate(-981.869 -3024.124)" fill="#999"/>
            <path id="Trazado_110007" data-name="Trazado 110007" d="M1092.823,3035.836l-3.264-3.847,3.063-3.311-2.913-3.736,1.051-.819,3.608,4.627-3.028,3.276,2.5,2.948Z" transform="translate(-983.022 -3024.124)" fill="#999"/>
            <path id="Trazado_110008" data-name="Trazado 110008" d="M1090.3,3035.836l-3.264-3.847,3.062-3.311-2.913-3.736,1.052-.819,3.607,4.627-3.028,3.276,2.5,2.948Z" transform="translate(-984.175 -3024.124)" fill="#999"/>
            <path id="Trazado_110009" data-name="Trazado 110009" d="M1087.781,3035.836l-3.264-3.847,3.063-3.311-2.913-3.736,1.052-.819,3.607,4.627-3.028,3.276,2.5,2.948Z" transform="translate(-985.327 -3024.124)" fill="#999"/>
            <path id="Trazado_110010" data-name="Trazado 110010" d="M1085.26,3035.836l-3.264-3.847,3.063-3.311-2.913-3.736,1.052-.819,3.607,4.627-3.028,3.276,2.5,2.948Z" transform="translate(-986.48 -3024.124)" fill="#999"/>
            <path id="Trazado_110011" data-name="Trazado 110011" d="M1082.738,3035.836l-3.264-3.847,3.063-3.311-2.913-3.736,1.051-.819,3.608,4.627-3.028,3.276,2.5,2.948Z" transform="translate(-987.633 -3024.124)" fill="#999"/>
            <path id="Trazado_110012" data-name="Trazado 110012" d="M1080.218,3035.836l-3.264-3.847,3.062-3.311-2.913-3.736,1.052-.819,3.607,4.627-3.028,3.276,2.5,2.948Z" transform="translate(-988.785 -3024.124)" fill="#999"/>
            <path id="Trazado_110013" data-name="Trazado 110013" d="M1077.7,3035.836l-3.264-3.847,3.063-3.311-2.913-3.736,1.052-.819,3.607,4.627-3.028,3.276,2.5,2.948Z" transform="translate(-989.938 -3024.124)" fill="#999"/>
            <path id="Trazado_110014" data-name="Trazado 110014" d="M1075.175,3035.836l-3.264-3.847,3.063-3.311-2.913-3.736,1.052-.819,3.607,4.627-3.028,3.276,2.5,2.948Z" transform="translate(-991.091 -3024.124)" fill="#999"/>
            <path id="Trazado_110015" data-name="Trazado 110015" d="M1072.654,3035.836l-3.264-3.847,3.063-3.311-2.913-3.736,1.052-.819,3.607,4.627-3.028,3.276,2.5,2.948Z" transform="translate(-992.243 -3024.124)" fill="#999"/>
            <path id="Trazado_110016" data-name="Trazado 110016" d="M1070.133,3035.836l-3.264-3.847,3.062-3.311-2.913-3.736,1.052-.819,3.607,4.627-3.028,3.276,2.5,2.948Z" transform="translate(-993.396 -3024.124)" fill="#999"/>
            <path id="Trazado_110017" data-name="Trazado 110017" d="M1067.612,3035.836l-3.264-3.847,3.063-3.311-2.913-3.736,1.052-.819,3.607,4.627-3.028,3.276,2.5,2.948Z" transform="translate(-994.549 -3024.124)" fill="#999"/>
            <path id="Trazado_110018" data-name="Trazado 110018" d="M1065.091,3035.836l-3.264-3.847,3.063-3.311-2.913-3.736,1.052-.819,3.607,4.627-3.028,3.276,2.5,2.948Z" transform="translate(-995.701 -3024.124)" fill="#999"/>
            <path id="Trazado_110019" data-name="Trazado 110019" d="M1062.57,3035.836l-3.264-3.847,3.063-3.311-2.913-3.736,1.051-.819,3.607,4.627-3.028,3.276,2.5,2.948Z" transform="translate(-996.854 -3024.124)" fill="#999"/>
            <path id="Trazado_110020" data-name="Trazado 110020" d="M1060.049,3035.836l-3.264-3.847,3.062-3.311-2.913-3.736,1.052-.819,3.607,4.627-3.028,3.276,2.5,2.948Z" transform="translate(-998.007 -3024.124)" fill="#999"/>
            <path id="Trazado_110021" data-name="Trazado 110021" d="M1057.528,3035.836l-3.264-3.847,3.063-3.311-2.913-3.736,1.052-.819,3.607,4.627-3.028,3.276,2.5,2.948Z" transform="translate(-999.159 -3024.124)" fill="#999"/>
            <path id="Trazado_110022" data-name="Trazado 110022" d="M1055.007,3035.836l-3.264-3.847,3.063-3.311-2.913-3.736,1.052-.819,3.607,4.627-3.028,3.276,2.5,2.948Z" transform="translate(-1000.312 -3024.124)" fill="#999"/>
            <path id="Trazado_110023" data-name="Trazado 110023" d="M1052.486,3035.836l-3.264-3.847,3.062-3.311-2.913-3.736,1.052-.819,3.607,4.627-3.028,3.276,2.5,2.948Z" transform="translate(-1001.464 -3024.124)" fill="#999"/>
            <path id="Trazado_110024" data-name="Trazado 110024" d="M1049.965,3035.836l-3.264-3.847,3.063-3.311-2.913-3.736,1.052-.819,3.607,4.627-3.028,3.276,2.5,2.948Z" transform="translate(-1002.617 -3024.124)" fill="#999"/>
            <path id="Trazado_110025" data-name="Trazado 110025" d="M1047.444,3035.836l-3.264-3.847,3.063-3.311-2.913-3.736,1.052-.819,3.607,4.627-3.028,3.276,2.5,2.948Z" transform="translate(-1003.77 -3024.124)" fill="#999"/>
            <path id="Trazado_110026" data-name="Trazado 110026" d="M1044.923,3035.836l-3.264-3.847,3.063-3.311-2.913-3.736,1.052-.819,3.607,4.627-3.028,3.276,2.5,2.948Z" transform="translate(-1004.922 -3024.124)" fill="#999"/>
            <path id="Trazado_110027" data-name="Trazado 110027" d="M1042.4,3035.836l-3.264-3.847,3.063-3.311-2.913-3.736,1.052-.819,3.607,4.627-3.028,3.276,2.5,2.948Z" transform="translate(-1006.075 -3024.124)" fill="#999"/>
            <path id="Trazado_110028" data-name="Trazado 110028" d="M1039.881,3035.836l-3.264-3.847,3.063-3.311-2.913-3.736,1.051-.819,3.608,4.627-3.028,3.276,2.5,2.948Z" transform="translate(-1007.228 -3024.124)" fill="#999"/>
            <path id="Trazado_110029" data-name="Trazado 110029" d="M1037.36,3035.836l-3.264-3.847,3.063-3.311-2.913-3.736,1.052-.819,3.607,4.627-3.028,3.276,2.5,2.948Z" transform="translate(-1008.38 -3024.124)" fill="#999"/>
            <path id="Trazado_110030" data-name="Trazado 110030" d="M1034.839,3035.836l-3.264-3.847,3.063-3.311-2.913-3.736,1.052-.819,3.607,4.627-3.028,3.276,2.5,2.948Z" transform="translate(-1009.533 -3024.124)" fill="#999"/>
            <path id="Trazado_110031" data-name="Trazado 110031" d="M1032.318,3035.836l-3.264-3.847,3.063-3.311-2.913-3.736,1.052-.819,3.607,4.627-3.028,3.276,2.5,2.948Z" transform="translate(-1010.686 -3024.124)" fill="#999"/>
            <path id="Trazado_110032" data-name="Trazado 110032" d="M1029.8,3035.836l-3.264-3.847,3.063-3.311-2.913-3.736,1.051-.819,3.608,4.627-3.028,3.276,2.5,2.948Z" transform="translate(-1011.838 -3024.124)" fill="#999"/>
            <path id="Trazado_110033" data-name="Trazado 110033" d="M1027.276,3035.836l-3.264-3.847,3.063-3.311-2.913-3.736,1.052-.819,3.607,4.627-3.028,3.276,2.5,2.948Z" transform="translate(-1012.991 -3024.124)" fill="#999"/>
            <path id="Trazado_110034" data-name="Trazado 110034" d="M1024.755,3035.836l-3.264-3.847,3.063-3.311-2.913-3.736,1.052-.819,3.607,4.627-3.028,3.276,2.5,2.948Z" transform="translate(-1014.144 -3024.124)" fill="#999"/>
            <path id="Trazado_110035" data-name="Trazado 110035" d="M1022.234,3035.836l-3.264-3.847,3.063-3.311-2.913-3.736,1.051-.819,3.607,4.627-3.028,3.276,2.5,2.948Z" transform="translate(-1015.296 -3024.124)" fill="#999"/>
            <path id="Trazado_110036" data-name="Trazado 110036" d="M1019.713,3035.836l-3.264-3.847,3.063-3.311-2.913-3.736,1.051-.819,3.608,4.627-3.028,3.276,2.5,2.948Z" transform="translate(-1016.449 -3024.124)" fill="#999"/>
          </g>
          <path id="Trazado_110037" data-name="Trazado 110037" d="M1044.249,2841.622s5.208,6.848,23.257,5.947,20.929-7.926,20.929-7.926" transform="translate(-940.827 -2786.136)" fill="none" stroke="#999" stroke-miterlimit="10" stroke-width="1"/>
          <line id="Línea_259" data-name="Línea 259" x2="169.007" transform="translate(40.392 214.801)" fill="none" stroke="#999" stroke-miterlimit="10" stroke-width="1"/>
          <line id="Línea_260" data-name="Línea 260" x2="173.719" transform="translate(38.186 204.706)" fill="none" stroke="#999" stroke-miterlimit="10" stroke-width="1"/>
          <line id="Línea_261" data-name="Línea 261" y2="59.349" transform="translate(125.285 214.801)" fill="none" stroke="#999" stroke-miterlimit="10" stroke-width="1"/>
          <path id="Trazado_110038" data-name="Trazado 110038" d="M1097.411,2874.935s1.221,5.156-.53,34.172l-.65,65.6" transform="translate(-917.06 -2770)" fill="none" stroke="#999" stroke-miterlimit="10" stroke-width="1"/>
          <path id="Trazado_110039" data-name="Trazado 110039" d="M1102.006,2950.329l-9.733,60.454-8.672,47.575v10.2s16.971,35.144,18.4,103.447,3.7,132.075,3.7,132.075" transform="translate(-922.834 -2735.528)" fill="none" stroke="#999" stroke-miterlimit="10" stroke-width="1"/>
          <path id="Trazado_110040" data-name="Trazado 110040" d="M1022.921,2950.329l9.476,59.349,9.793,48.113v11.053s-15.021,51.016-16.722,87.577-.284,87.861-.284,87.861l.284,59.8" transform="translate(-950.578 -2735.528)" fill="none" stroke="#999" stroke-miterlimit="10" stroke-width="1"/>
          <line id="Línea_262" data-name="Línea 262" x1="4.464" y1="517.275" transform="translate(123.851 51.28)" fill="none" stroke="#999" stroke-miterlimit="10" stroke-width="1"/>
          <path id="Trazado_110041" data-name="Trazado 110041" d="M1022.788,2874.935s-1.221,5.156.53,34.172l.65,65.6" transform="translate(-950.828 -2770)" fill="none" stroke="#999" stroke-miterlimit="10" stroke-width="1"/>
          <path id="Trazado_110042" data-name="Trazado 110042" d="M1040.461,2865.921s6.235,20.875,28.225,20.755,27.422-20.755,27.422-20.755" transform="translate(-942.558 -2774.122)" fill="none" stroke="#999" stroke-miterlimit="10" stroke-width="1"/>
          <path id="Trazado_110043" data-name="Trazado 110043" d="M1096.839,2951l5.373-5.893,3.149.245s1.344.138,1.074-1.058l-3.537-4.375s-1.657-1.842-2.193.277l-.179,3.682-4.794,5.778-.579,1.82Z" transform="translate(-917.552 -2740.625)" fill="#666"/>
          <path id="Trazado_110044" data-name="Trazado 110044" d="M1026.368,2951l-5.373-5.893-3.149.245s-1.344.138-1.074-1.058l3.537-4.375s1.657-1.842,2.193.277l.179,3.682,4.794,5.778.579,1.82Z" transform="translate(-953.406 -2740.625)" fill="#666"/>
          <ellipse id="Elipse_4423" data-name="Elipse 4423" cx="21.905" cy="9.732" rx="21.905" ry="9.732" transform="translate(103.374 31.817)" fill="#fff" stroke="#999" stroke-miterlimit="10" stroke-width="1"/>
          <g id="Grupo_56642" data-name="Grupo 56642" transform="translate(114.145)">
            <path id="Trazado_110045" data-name="Trazado 110045" d="M1072.67,2816.782c0-7.653-4.51-13.858-10.074-13.858s-10.074,6.2-10.074,13.858c0,5.986,2.764,11.07,6.626,13.008v13.252h7.611v-13.651C1070.243,2827.21,1072.67,2822.391,1072.67,2816.782Z" transform="translate(-1051.189 -2802.924)" fill="#fff" stroke="#999" stroke-miterlimit="10" stroke-width="1"/>
            <rect id="Rectángulo_10387" data-name="Rectángulo 10387" width="23.623" height="4.052" rx="1.209" transform="translate(0 16.728)" fill="#fff" stroke="#999" stroke-miterlimit="10" stroke-width="1"/>
            <rect id="Rectángulo_10388" data-name="Rectángulo 10388" width="23.623" height="4.052" rx="1.209" transform="translate(0 8.993)" fill="#fff" stroke="#999" stroke-miterlimit="10" stroke-width="1"/>
          </g>
          <line id="Línea_263" data-name="Línea 263" x2="125.414" transform="translate(63.837 323.112)" fill="#fff" stroke="#000" stroke-miterlimit="10" stroke-width="1" opacity="0.33"/>
          <line id="Línea_264" data-name="Línea 264" x2="125.414" transform="translate(63.837 333.316)" fill="#fff" stroke="#000" stroke-miterlimit="10" stroke-width="1" opacity="0.33"/>
          <path id="Trazado_110046" data-name="Trazado 110046" d="M1000.558,2881.578s5.18,45.722-.468,66.651" transform="translate(-961.017 -2766.963)" fill="none" stroke="#000" stroke-miterlimit="10" stroke-width="1" opacity="0.33"/>
          <path id="Trazado_110047" data-name="Trazado 110047" d="M1120.125,2882.925s-6,43.769-.351,64.7" transform="translate(-907.403 -2766.346)" fill="none" stroke="#000" stroke-miterlimit="10" stroke-width="1" opacity="0.33"/>
          <path id="Trazado_110048" data-name="Trazado 110048" d="M987.243,3178.813s3.675-4.308,8.616-2.661,7.477,3.422,14.572,2.661,10.391-3.035,10.391-3.035,9-3.932,13.178-.385a55.516,55.516,0,0,1,4.689,4.181s5.068,1.52,7.222,0a2.879,2.879,0,0,1,3.675-.127s2.154,2.281,4.182,1.647,6.208-3.535,6.208-3.535,6.716-3.939,9.25-2.166,3.295,2.533,5.07,1.013,6.588-5.449,6.588-5.449,5.575-3.294,8.11,0,4.563,5.575,4.563,5.575,3.422,2.915,6.336,2.534,4.561-7.095,4.561-7.095-2.992-27.751-3.081-31.3-1.269-74.761-1.269-74.761l.042-92.628s-1.521-84.645,3.547-95.544,5.07-30.917,5.07-30.917.759-3.681-3.421-1.46-7.856,7.162-9.25,7.923-2.661,2.914-5.322,2.28-11.531-1.52-11.531-1.52-6.336-1.141-6.59-1.775-2.281-3.421-4.688-1.773-15.84,9.124-15.84,9.124l-13.177,7.476s-6.716,3.548-4.182,6.209,7.856,5.068,7.856,5.068,7.857,1.775,13.94,2.914,3.547.254,3.547.254a25.684,25.684,0,0,0-13.685,13.306c-4.688,10.263-8.363,30.538-8.363,30.538l-2.39,21.922.616,21.421s.252,25.588,1.647,39.528,1.141,13.431,1.141,13.431a211.542,211.542,0,0,0-5.45-26.356c-3.927-14.319-8.616-33.959-8.616-33.959l-8.49-25.6s-4.561-19.769-6.335-22.81-8.491-14.065-13.94-15.838a27.571,27.571,0,0,0,15.17-6.463c7.513-6.209,9.794-5.322,9.794-11.531s-7.73-6.97-10.391-6.083-12.038,4.815-12.038,4.815l-7.6,5.45a6.2,6.2,0,0,1-4.561,2.027,4.881,4.881,0,0,1-4.182-2.407s-3.168-1.775-5.2-.127l-1.9.634s7.667,26.039,7.286,35.732.191,24.9.191,24.9.95,31.878,4.561,50.628,8.743,45.928,8.743,45.928,5.513,35.164,4.372,54.551-6.461,53.22-6.461,53.22l-4.372,21.667Z" transform="translate(-972.336 -2783.847)" fill="#999" stroke="#4d4d4d" stroke-linecap="round" stroke-linejoin="round" stroke-width="1" opacity="0.5"/>
          <path id="Trazado_110049" data-name="Trazado 110049" d="M975.449,2888.76a8.848,8.848,0,0,1-2.154-5.891c.254-3.232,4.815-9.061,4.815-9.061s3.739-5.131,8.047-6.145,6.463-5.2,6.463-5.2,3.231-3.484,9.44-2.407,7.793,2.027,11.911-1.2,16.093-12.988,16.093-12.988l12.354-12.1s2.85-3.634,5.448-2.228,1.33,7.233,1.33,7.233l-1.077,19.26v10.043l-7.1,4.054-5.036,3.548-.982,1.646.57,2.409-1.395,17.169-9.226,2.917-.657-7.653-1.6-7.225a6.45,6.45,0,0,0-1.883-3.309l-1.348-1.268a5.481,5.481,0,0,0-3.269-1.463l-2.012-.178a7.168,7.168,0,0,0-3.528.583l-6.335,2.8-5.568,2.592-4.562,3.27-4.759,3.22-2.76.219-2.927-1.566-2.788-1.393-2.788.507Z" transform="translate(-973.276 -2789.989)" fill="#999" stroke="#4d4d4d" stroke-linecap="round" stroke-linejoin="round" stroke-width="1" opacity="0.81"/>
          <path id="Trazado_110050" data-name="Trazado 110050" d="M1014.792,2871.1l.055.485c.49,4.275,4.06,35.574,4.886,46.778l5.829,58.162-19.626-67.953s-7.407-19.77-15.748-23.235C990.188,2885.334,1002.5,2884.909,1014.792,2871.1Z" transform="translate(-965.544 -2771.755)" fill="#999" stroke="#4d4d4d" stroke-linecap="round" stroke-linejoin="round" stroke-width="1" opacity="0.81"/>
          <path id="Trazado_110051" data-name="Trazado 110051" d="M1015.072,2882.726s.506,46.668,2.958,74.038c0,0-2.409-66.92,22.088-83.5,0,0-21.436-4.351-23.654-8.753A144.661,144.661,0,0,0,1015.072,2882.726Z" transform="translate(-954.167 -2774.766)" fill="#999" stroke="#4d4d4d" stroke-linecap="round" stroke-linejoin="round" stroke-width="1"/>
        </g>
      </g>
    </g>
  </g>
</svg>
