<svg xmlns="http://www.w3.org/2000/svg" width="207.559" height="394.436" viewBox="0 0 207.559 394.436">
  <g id="Grupo_56785" data-name="Grupo 56785" transform="translate(-151.332 -4864.695)">
    <rect id="Rectángulo_10453" data-name="Rectángulo 10453" width="207.559" height="394.435" rx="19.826" transform="translate(151.332 4864.696)" fill="#fff"/>
    <g id="Grupo_56784" data-name="Grupo 56784">
      <g id="Grupo_56776" data-name="Grupo 56776">
        <path id="Trazado_110659" data-name="Trazado 110659" d="M276.176,4905.2c0-5.42-3.284-9.815-7.336-9.815s-7.337,4.4-7.337,9.815c0,4.239,2.012,7.84,4.826,9.213v9.385h5.543v-9.668C274.409,4912.583,276.176,4909.17,276.176,4905.2Z" fill="#fff"/>
        <path id="Trazado_110660" data-name="Trazado 110660" d="M272.373,4924.3h-6.544v-9.581c-2.9-1.586-4.827-5.361-4.827-9.517,0-5.687,3.516-10.315,7.837-10.315s7.837,4.628,7.837,10.315c0,3.886-1.68,7.461-4.3,9.2Zm-5.544-1h4.544v-9.449l.24-.146c2.469-1.5,4.063-4.841,4.063-8.5,0-5.137-3.067-9.315-6.837-9.315S262,4900.061,262,4905.2c0,3.915,1.828,7.437,4.546,8.764l.281.137Z" fill="#999"/>
      </g>
      <g id="Grupo_56777" data-name="Grupo 56777">
        <rect id="Rectángulo_10454" data-name="Rectángulo 10454" width="17.206" height="2.87" rx="1.435" transform="translate(260.531 4907.231)" fill="#fff"/>
        <path id="Trazado_110661" data-name="Trazado 110661" d="M276.3,4910.6H261.966a1.936,1.936,0,0,1,0-3.871H276.3a1.936,1.936,0,1,1,0,3.871Zm-14.336-2.871a.936.936,0,0,0,0,1.871H276.3a.936.936,0,1,0,0-1.871Z" fill="#999"/>
      </g>
      <g id="Grupo_56778" data-name="Grupo 56778">
        <rect id="Rectángulo_10455" data-name="Rectángulo 10455" width="17.206" height="2.87" rx="1.435" transform="translate(260.531 4901.752)" fill="#fff"/>
        <path id="Trazado_110662" data-name="Trazado 110662" d="M276.3,4905.122H261.966a1.935,1.935,0,1,1,0-3.869H276.3a1.935,1.935,0,1,1,0,3.869Zm-14.336-2.869a.935.935,0,1,0,0,1.869H276.3a.935.935,0,1,0,0-1.869Z" fill="#999"/>
      </g>
      <g id="Grupo_56779" data-name="Grupo 56779">
        <path id="Trazado_110663" data-name="Trazado 110663" d="M317.04,4988.681a40.2,40.2,0,0,0-3.674-11.179l-7.044-2.782-26.783-12.174c-.609-2.348-.087-8.348-.087-8.348.87-5.913,5.218-16.261,5.218-16.261,1.391-3.739.434-6.087.434-6.087-9.565-12.956-23.913-11.391-26.521-11.391s-4.348,3.218-4.348,3.218l-10.522,23.651-39.83,32.87s-9.039,6.87-13.3,12.348-2,15.043-2,15.043l12.174,39.218,21.217,61.652-.957,6.956a98.755,98.755,0,0,0-5.912,11.558c-3.374,7.831-6.761,17.806-9.2,22.63-7.3,14.478-5.57,30.522-5.57,30.522v43.826c53.907,10.174,108.244,0,108.244,0s.37-54,0-60.782c-.3-5.53-5.643-18.8-6.369-25.14l-.414-2.079-4.435-16.2v-5.908s8.218-38.31,10.174-43.136,2.479-6,2.479-6a202.487,202.487,0,0,0,9.847-18.391c4.109-9,1.631-15.131,1.631-15.131l-3.261-16.3.831-8.775a20.826,20.826,0,0,0,.061-3.079l-.652-8.376a17.361,17.361,0,0,0-.287-1.954Z" fill="#fff"/>
        <path id="Trazado_110664" data-name="Trazado 110664" d="M252.205,5228.943a283.119,283.119,0,0,1-51.959-4.5l-.408-.077v-44.24c-.014-.108-1.662-16.305,5.625-30.747,1.351-2.677,3.022-7.017,4.792-11.611,1.426-3.7,2.9-7.534,4.391-10.993a101.1,101.1,0,0,1,5.89-11.531l.926-6.734-21.178-61.539L188.1,5007.737c-.1-.433-2.274-9.9,2.083-15.5,4.252-5.468,13.021-12.157,13.393-12.439l39.723-32.782,10.474-23.544c.094-.177,1.931-3.515,4.805-3.515.192,0,.449-.009.764-.02,11.39-.379,20.187,3.524,26.159,11.615l.061.108c.042.1,1.014,2.572-.429,6.45-.051.122-4.341,10.377-5.19,16.158,0,.03-.473,5.54.022,7.922l26.559,12.073,7.186,2.837.087.157a40.27,40.27,0,0,1,3.726,11.306l1.14,4a17.506,17.506,0,0,1,.3,2.046l.652,8.382a21.276,21.276,0,0,1-.061,3.166l-.824,8.7,3.246,16.234c.078.169,2.484,6.344-1.665,15.435a205.562,205.562,0,0,1-9.876,18.444h0s-.55,1.259-2.442,5.927c-1.886,4.651-9.791,41.389-10.137,43v5.788l4.417,16.131.422,2.114c.351,3.056,1.79,7.772,3.18,12.333,1.563,5.121,3.037,9.958,3.2,12.878.367,6.719,0,60.272,0,60.812l0,.413-.406.075A344.553,344.553,0,0,1,252.205,5228.943Zm-51.367-5.407c50.629,9.456,102.165.888,107.247,0,.034-5.045.346-53.961,0-60.336-.153-2.8-1.678-7.8-3.154-12.64-1.4-4.6-2.856-9.364-3.212-12.471l-.407-2.038-4.444-16.294.01-6.012c.336-1.566,8.249-38.409,10.2-43.22,1.936-4.779,2.462-5.966,2.483-6.015a205.8,205.8,0,0,0,9.851-18.4c3.973-8.7,1.645-14.674,1.621-14.734l-3.3-16.466.838-8.848a20.227,20.227,0,0,0,.06-3l-.651-8.365a17.071,17.071,0,0,0-.278-1.891l-1.15-4.028a41.218,41.218,0,0,0-3.538-10.873l-6.873-2.714L279.116,4962.9l-.061-.23c-.623-2.4-.122-8.269-.1-8.517.872-5.937,5.075-15.986,5.253-16.411a8.8,8.8,0,0,0,.451-5.655c-8.688-11.711-21.179-11.283-25.278-11.151-.33.012-.6.021-.8.021-2.276,0-3.892,2.927-3.909,2.956l-10.551,23.724-.091.075-39.83,32.87c-.106.081-9.054,6.9-13.225,12.268-4.061,5.224-1.93,14.529-1.908,14.622l12.165,39.184,21.252,61.751-1.043,7.269a98.828,98.828,0,0,0-5.879,11.493c-1.481,3.44-2.953,7.261-4.376,10.955-1.779,4.618-3.459,8.98-4.832,11.7-7.155,14.181-5.538,30.083-5.521,30.242Z" fill="#999"/>
      </g>
      <path id="Trazado_110665" data-name="Trazado 110665" d="M204.975,5224.394c-.005-.295-.512-29.784.349-47.336.862-17.616,3.6-25.061,3.713-25.37l10.031-23.54,5.885-11.559v-5.634l-18.067-60.8-8.7-37.072c-.068-.661-1.375-14.723,2.119-22.323,3.464-7.534,10.516-16.364,10.587-16.451l.779.625c-.069.087-7.045,8.823-10.458,16.244-3.38,7.354-2.056,21.6-2.043,21.743l8.685,36.977,18.1,60.912v6.018l-5.98,11.742-10.009,23.49c-.019.053-2.788,7.618-3.642,25.045-.859,17.52-.352,46.975-.347,47.271Z" fill="#999"/>
      <path id="Trazado_110666" data-name="Trazado 110666" d="M220.931,5226.868h-1v-44.222c.037-.287,3.213-21.7,8.2-37.885,4.869-15.809,7.383-23.413,7.408-23.489a56.034,56.034,0,0,0,1.527-6.122c1.354-14.112-.671-23.784-2.3-31.555-.372-1.776-.723-3.452-1.021-5.1-3.077-16.994-5.678-52.835-6.789-68.14-1.169-16.111,6.485-33.712,6.562-33.888l10.046-22.05,16.179-34.051.9.43-16.175,34.043-10.039,22.036c-.074.168-7.629,17.549-6.477,33.408,1.109,15.289,3.708,51.093,6.775,68.034.3,1.636.646,3.306,1.016,5.075,1.641,7.837,3.683,17.592,2.315,31.856a55.263,55.263,0,0,1-1.57,6.328c-.029.088-2.54,7.685-7.405,23.482-4.96,16.109-8.125,37.45-8.157,37.663Z" fill="#999"/>
      <path id="Trazado_110667" data-name="Trazado 110667" d="M248.757,5228.447h-1v-1.689h1Zm0-6.689h-1v-5h1Zm0-10h-1v-5h1Zm0-10h-1v-5h1Zm0-10h-1v-5h1Zm0-10h-1l.021-3.785c.012-.293.03-.715.055-1.248l1,.046c-.038.806-.06,1.356-.07,1.591a.967.967,0,0,1-.009.111h0Zm.353-9.986-1-.062c.1-1.5.211-3.194.352-5.006l1,.078C249.321,5168.588,249.205,5170.273,249.11,5171.772Zm.779-9.973-1-.094c.155-1.635.329-3.311.523-4.991l.995.115C250.216,5158.5,250.042,5160.172,249.889,5161.8Zm1.16-9.925-.99-.143c.257-1.784.528-3.454.806-4.962l.984.181C251.573,5148.445,251.3,5150.1,251.049,5151.874Zm1.853-9.784-.969-.25c.343-1.331.7-2.514,1.073-3.514l.324-1.289.968.246-.339,1.339C253.587,5139.641,253.237,5140.791,252.9,5142.09Zm2.621-9.654-.969-.247,1.226-4.846.969.245Zm2.26-9.8-.991-.133c.106-.792.163-1.381.163-1.385l0-3.542h1v3.59C257.951,5121.217,257.892,5121.822,257.783,5122.639Zm.17-10.06h-1v-5h1Zm0-10h-1v-5h1Zm0-10h-1v-5h1Zm0-10h-1v-5h1Zm0-10h-1v-5h1Zm0-10h-1v-5h1Zm0-10h-1v-5h1Zm0-10h-1l.033-5.03,1,.062-.032.521Zm.4-9.942-1-.088c.148-1.667.32-3.345.511-4.988l.994.116C258.676,5029.311,258.505,5030.979,258.358,5032.637Zm1.153-9.9-.99-.144c.245-1.676.512-3.342.794-4.951l.984.172C260.019,5019.412,259.753,5021.068,259.511,5022.734Zm1.724-9.819-.979-.2c.34-1.643.709-3.29,1.1-4.9l.973.235C261.94,5009.646,261.573,5011.282,261.235,5012.915Zm2.347-9.686-.963-.269c.464-1.656.952-3.274,1.449-4.809l.951.309C264.526,4999.981,264.042,5001.586,263.582,5003.229Zm3.084-9.465-.935-.356c.935-2.462,1.55-3.733,1.575-3.786.094-.259.206-.556.318-.849l.934.36c-.111.289-.223.582-.333.881C268.2,4990.07,267.583,4991.349,266.666,4993.764Zm3.873-9.168-.9-.442a47.142,47.142,0,0,1,2.461-4.407l.844.535A46.119,46.119,0,0,0,270.539,4984.6Zm5.307-8.3-.767-.643a30.968,30.968,0,0,1,3.556-3.62l.651.76A29.669,29.669,0,0,0,275.846,4976.3Zm7.445-6.3-.482-.877a15.027,15.027,0,0,1,4.842-1.818l.126.992A14.355,14.355,0,0,0,283.291,4970Z" fill="#999"/>
      <path id="Trazado_110668" data-name="Trazado 110668" d="M295.447,5225.948l-1-.041c1.455-35.231-4.039-87.787-4.1-88.313l-3.139-15.233.013-3.764,20.869-90.446.975.225-20.857,90.39v3.545l3.125,15.128C291.4,5138.016,296.9,5190.644,295.447,5225.948Z" fill="#999"/>
      <path id="Trazado_110669" data-name="Trazado 110669" d="M294.445,5225.943l-.75-.031.017-.432.75.032Zm.089-2.432-.75-.024q.031-.991.056-2l.75.018Q294.566,5222.517,294.534,5223.511Zm.1-4.007-.75-.014q.02-.995.032-2l.75.01Q294.65,5218.509,294.632,5219.5Zm.051-4.006-.75,0,.008-2,.75,0Zm-.744-4-.011-2,.75-.006.011,2Zm-.03-4-.03-2,.75-.012.03,2Zm-.067-4-.044-2,.75-.018.044,2Zm-.094-4.006-.06-2,.75-.023.06,2Zm-.125-4-.072-2,.75-.027.072,2Zm-.15-3.993-.083-1.994.75-.031.083,1.994Zm-.171-3.991-.094-2,.75-.037.094,2Zm-.2-4-.1-2,.748-.039.1,2Zm-.214-4-.114-2,.748-.044.114,2Zm-.232-3.994-.124-2,.748-.047.124,2Zm-.253-3.993-.132-2,.748-.051.132,2Zm-.268-3.994-.141-2,.748-.053.141,2Zm-.286-3.991-.148-2,.748-.057.148,2Zm-.3-3.989-.157-2,.748-.059.157,2Zm-.317-3.992-.165-1.994.748-.062.165,2Zm-.332-3.989-.173-1.994.748-.066.173,2Zm-.349-3.989-.181-1.994.747-.069.18,2Zm-.366-3.988-.19-2,.747-.073.189,2Zm-.384-3.991-.2-1.942.367-.1.373-.039-.373.039.379.018.2,1.946Zm-.6-3.921-.4-1.959.735-.153.4,1.959Zm-.809-3.917-.4-1.959.734-.153.4,1.959Zm-.81-3.918-.4-1.958.734-.153.405,1.958Zm-.809-3.917-.309-1.5-.008-.549h.75v.473l.3,1.419Zm.433-4.045h-.75v-1.179l.2-.884.73.168-.184.8Zm.625-3.844-.73-.168.449-1.948.731.168Zm.9-3.9-.731-.168.451-1.948.73.168Zm.9-3.9-.73-.168.45-1.949.73.168Zm.9-3.9-.731-.168.45-1.95.731.168Zm.9-3.9-.73-.168.45-1.949.73.168Zm.9-3.9-.731-.168.45-1.95.731.168Zm.9-3.9-.731-.168.451-1.949.73.168Zm.9-3.9-.73-.168.45-1.949.731.168Zm.9-3.9-.731-.168.45-1.948.731.168Zm.9-3.9-.73-.168.45-1.948.73.168Zm.9-3.9-.731-.168.45-1.949.731.168Zm.9-3.9L297,5073l.449-1.949.73.168Zm.9-3.9-.73-.168.449-1.949.731.168Zm.9-3.9-.731-.168.45-1.949.73.168Zm.9-3.9-.73-.167.449-1.95.73.168Zm.9-3.9-.731-.168.449-1.948.731.168Zm.9-3.9-.73-.168.449-1.949.73.168Zm.9-3.9-.73-.168.449-1.948.731.168Zm.9-3.9-.731-.168.45-1.95.73.168Zm.9-3.9-.73-.168.449-1.949.731.168Zm.9-3.9-.731-.168.449-1.949.731.168Zm.9-3.9-.73-.168.449-1.949.73.168Zm.9-3.9-.731-.168.449-1.949.731.168Z" fill="#999"/>
      <path id="Trazado_110670" data-name="Trazado 110670" d="M296.139,5225.943l-.75-.031.018-.432.75.032Zm.089-2.432-.75-.024q.031-.991.057-2l.75.018Q296.26,5222.517,296.228,5223.511Zm.1-4.007-.75-.014q.018-.995.031-2l.75.01Q296.344,5218.509,296.327,5219.5Zm.05-4.006-.75,0,.008-2,.75,0Zm-.744-4-.01-2,.75-.006.01,2Zm-.03-4-.029-2,.75-.012.029,2Zm-.066-4-.044-2,.75-.018.044,2Zm-.1-4.006-.06-2,.75-.023.06,2Zm-.125-4-.071-2,.75-.027.071,2Zm-.15-3.993-.083-1.994.75-.031.083,1.994Zm-.17-3.991-.1-2,.75-.037.1,2Zm-.2-4-.1-2,.748-.039.1,2Zm-.214-4-.114-2,.748-.044.114,2Zm-.232-3.994-.124-2,.748-.047.124,2Zm-.253-3.993-.132-2,.748-.051.132,2Zm-.268-3.994-.141-2,.748-.053.142,2Zm-.286-3.991-.148-2,.748-.057.148,2Zm-.3-3.989-.158-2,.748-.059.158,2Zm-.318-3.992-.165-1.994.748-.062.165,2Zm-.332-3.989-.173-1.994.748-.066.173,2Zm-.349-3.989-.18-1.994.746-.069.181,2Zm-.366-3.988-.189-2,.746-.073.189,2Zm-.384-3.991-.2-1.942.367-.1.373-.039-.373.039.379.018.2,1.946Zm-.6-3.921-.4-1.959.734-.153.4,1.959Zm-.809-3.917-.4-1.959.734-.153.406,1.959Zm-.809-3.918-.4-1.958.735-.153.4,1.958Zm-.81-3.917-.308-1.5-.008-.549h.75v.473l.3,1.419Zm.434-4.045h-.75v-1.179l.194-.884.731.168-.185.8Zm.625-3.844-.731-.168.45-1.948.73.168Zm.9-3.9-.73-.168.45-1.948.73.168Zm.9-3.9-.731-.168.45-1.949.731.168Zm.9-3.9-.73-.168.45-1.95.73.168Zm.9-3.9-.73-.168.45-1.949.731.168Zm.9-3.9-.731-.168.451-1.95.73.168Zm.9-3.9-.73-.168.45-1.949.73.168Zm.9-3.9-.731-.168.45-1.949.731.168Zm.9-3.9-.73-.168.45-1.948.73.168Zm.9-3.9-.731-.168.45-1.948.731.168Zm.9-3.9-.731-.168.451-1.949.73.168Zm.9-3.9-.73-.168.449-1.949.731.168Zm.9-3.9-.731-.168.45-1.949.73.168Zm.9-3.9-.73-.168.449-1.949.73.168Zm.9-3.9-.731-.167.449-1.95.731.168Zm.9-3.9-.73-.168.449-1.948.73.168Zm.9-3.9-.73-.168.449-1.949.731.168Zm.9-3.9-.731-.168.45-1.948.73.168Zm.9-3.9-.73-.168.449-1.95.73.168Zm.9-3.9-.731-.168.449-1.949.731.168Zm.9-3.9-.73-.168.449-1.949.73.168Zm.9-3.9-.73-.168.449-1.949.731.168Zm.9-3.9-.731-.168.45-1.949.73.168Z" fill="#999"/>
      <path id="Trazado_110671" data-name="Trazado 110671" d="M286.664,4993.169c-15.228-5.562-55.492-7.458-55.9-7.477l.045-1c.407.019,40.822,1.922,56.194,7.535Z" fill="#999"/>
      <path id="Trazado_110672" data-name="Trazado 110672" d="M228.679,5041.881l-4.591-3.414-2.226.578s-.946.27-.9-.6l1.986-3.506s.956-1.5,1.607-.09l.591,2.544,4.163,3.407.643,1.194Z" fill="#999"/>
      <path id="Trazado_110673" data-name="Trazado 110673" d="M235.512,5120.839l-2.985-4.88-2.282-.295s-.977-.1-.614-.893l3.151-2.511s1.446-1.033,1.525.515l-.4,2.581,2.59,4.715.151,1.347Z" fill="#999"/>
      <path id="Trazado_110674" data-name="Trazado 110674" d="M235.388,5120.821l-5.276,2.214-2.023-1.1s-.853-.488-1.02.366l1.087,3.879s.57,1.683,1.539.473l1.183-2.328,4.858-2.31.911-1Z" fill="#999"/>
      <ellipse id="Elipse_4430" data-name="Elipse 4430" cx="1.924" cy="3.523" rx="1.924" ry="3.523" transform="translate(308.583 5001.577)" fill="#999"/>
      <path id="Trazado_110675" data-name="Trazado 110675" d="M307.922,5028.775c-.076,0-.152,0-.228,0-3.017-.126-5.716-2.723-7.6-7.316a40.306,40.306,0,0,1-2.446-16.507c.538-12.938,5.681-22.913,11.76-22.913.077,0,.153,0,.23,0,3.017.126,5.717,2.724,7.6,7.316a44.486,44.486,0,0,1-1.361,32.756C313.673,5026.42,310.857,5028.775,307.922,5028.775Zm1.483-45.74c-5.448,0-10.254,9.762-10.76,21.954h0a39.294,39.294,0,0,0,2.371,16.086c1.73,4.211,4.115,6.589,6.719,6.7s5.179-2.061,7.252-6.115a43.521,43.521,0,0,0,1.326-31.921c-1.73-4.21-4.115-6.589-6.719-6.7C309.531,4983.036,309.467,4983.035,309.4,4983.035Z" fill="#999"/>
      <g id="Grupo_56780" data-name="Grupo 56780" opacity="0.36">
        <path id="Trazado_110676" data-name="Trazado 110676" d="M280.061,4962.97l2-5.195-5.478-4.457-4.887,4.457,3.235-7.24-5.565-6.174-5.13,5.826.522-5.826-4.361-4.609-4.335,6.172,1.826-4-5.734-4.428-3.687,7.76,7.421,1.029,4.509,2.335,4.868,2.7,5.319,5.478,6,4.87Z" fill="#999"/>
        <path id="Trazado_110677" data-name="Trazado 110677" d="M280.061,4963.47a.478.478,0,0,1-.176-.033l-3.478-1.3a.531.531,0,0,1-.14-.079l-4.666-3.788a.5.5,0,0,1-.2-.086.515.515,0,0,1-.168-.211l-.968-.785-5.31-5.466-4.8-2.659-4.42-2.29-7.336-1.017a.5.5,0,0,1-.383-.71l3.687-7.76a.492.492,0,0,1,.335-.271.5.5,0,0,1,.421.09l5.735,4.429a.506.506,0,0,1,.171.245l1.623-2.31a.5.5,0,0,1,.373-.212.522.522,0,0,1,.4.155l4.361,4.609a.5.5,0,0,1,.134.388l-.385,4.305,4.122-4.68a.631.631,0,0,1,.375-.17.5.5,0,0,1,.371.165l5.564,6.174a.5.5,0,0,1,.085.539l-2.256,5.051,3.116-2.842a.5.5,0,0,1,.652-.018l5.478,4.458a.5.5,0,0,1,.152.567l-2,5.194A.5.5,0,0,1,280.061,4963.47Zm-3.227-2.243,2.939,1.1,1.691-4.392-4.863-3.958-4.1,3.738Zm-12.145-10.8.816.452a.5.5,0,0,1,.117.089l5.319,5.478.588.477,2.812-6.3-4.971-5.515Zm-8.123-4.353,4.059,2.1,3.132,1.734.481-5.371-3.784-4Zm-7.356-1.219,6.385.886.011-.025,1.661-3.637-4.929-3.807Z" fill="#4d4d4d"/>
      </g>
      <g id="Grupo_56781" data-name="Grupo 56781">
        <line id="Línea_271" data-name="Línea 271" x2="3.371" y2="0.625" transform="translate(245.028 4944.774)" fill="#fff"/>
        <path id="Trazado_110678" data-name="Trazado 110678" d="M248.4,4945.9a.585.585,0,0,1-.092-.008l-3.37-.625a.5.5,0,0,1,.182-.983l3.37.625a.5.5,0,0,1-.09.991Z" fill="#999"/>
      </g>
      <path id="Trazado_110679" data-name="Trazado 110679" d="M283.791,4939.273a24.332,24.332,0,0,0-10.1-9.5c-12.931-5.238-20.688-2.622-20.765-2.595l-.335-.943c.329-.116,8.158-2.784,21.487,2.615a24.886,24.886,0,0,1,10.584,9.922Z" fill="#999"/>
      <path id="Trazado_110680" data-name="Trazado 110680" d="M262.339,5125.516q-1.128,0-2.224-.023l.019-1q2.412.049,4.977-.012l.025,1Q263.713,5125.517,262.339,5125.516Zm-7.244-.24c-1.681-.114-3.364-.27-5-.465l.117-.992c1.622.192,3.288.346,4.954.459Zm15.056-.022-.067-1c1.638-.109,3.307-.252,4.962-.427l.106.994C273.484,5125,271.8,5125.144,270.151,5125.254Zm9.979-1.051-.14-.99c1.606-.23,3.261-.5,4.919-.792l.175.984C283.416,5123.7,281.749,5123.972,280.13,5124.2Zm-35.009-.117c-1.672-.291-3.33-.63-4.927-1.006l.228-.973c1.578.371,3.217.705,4.87,1Zm44.885-1.648-.209-.978c1.6-.341,3.236-.716,4.859-1.114l.238.97C293.261,5121.718,291.617,5122.1,290.006,5122.438Zm-54.672-.665c-1.637-.5-3.24-1.048-4.761-1.636l.359-.934c1.5.58,3.079,1.122,4.693,1.613Zm-9.387-3.647a31.828,31.828,0,0,1-4.419-2.524l.59-.807a31.488,31.488,0,0,0,4.268,2.432Z" fill="#999"/>
      <g id="Grupo_56782" data-name="Grupo 56782" opacity="0.36">
        <path id="Trazado_110681" data-name="Trazado 110681" d="M234.431,5162.434l-1.565,5.991s-8.522-1.566-9.478-5.218C223.388,5163.207,227.475,5160.821,234.431,5162.434Z" fill="#999"/>
        <path id="Trazado_110682" data-name="Trazado 110682" d="M232.867,5168.925a.56.56,0,0,1-.09-.008c-.361-.066-8.848-1.668-9.872-5.583a.5.5,0,0,1,.231-.559c.174-.1,4.343-2.464,11.408-.828a.5.5,0,0,1,.371.614l-1.565,5.99A.5.5,0,0,1,232.867,5168.925Zm-8.86-5.467c1.071,2.358,6.076,3.873,8.495,4.385l1.314-5.032A16.161,16.161,0,0,0,224.007,5163.458Z" fill="#4d4d4d"/>
      </g>
      <g id="Grupo_56783" data-name="Grupo 56783" opacity="0.36">
        <path id="Trazado_110683" data-name="Trazado 110683" d="M269.693,5130.274c4.174-19.9,4.7-28.246,4.956-37.115s-.261-9.913,1.044-16.957a254.486,254.486,0,0,0,2.869-26.347c.522-8.348-.046-25.305,3.5-38.87s5.538-25.3,11.976-31.3c2.83-2.637,5.7-4.954,8.072-6.905l-18.375-8.353-7.55-3.133-8.449-7.494-3.015-2.815-5.977-3.248-4.879-1.808-5.673-.526-9.764,21.635-7.061,16.94-1.766,6.272-1.005,4.634-.9,6.156-.3,5.043.341,7.057.889,9.7.848,7.827.875,3.689s2.721,39.556,6.178,55.767c4.425,20.752-2.457,38.087-6.4,49.022-3.345,9.271-6.837,23.5-6.837,23.5a16.424,16.424,0,0,1,9.923-1.085,18.061,18.061,0,0,1,5.064,1.529l3.273,1.816,1.74,2.783,4.869,1.391s7.1,1.584,11.519,2.284C261.583,5165.359,266.116,5147.327,269.693,5130.274Z" fill="#999"/>
        <path id="Trazado_110684" data-name="Trazado 110684" d="M259.675,5171.862a.545.545,0,0,1-.078-.006c-4.383-.695-11.478-2.274-11.549-2.29l-4.9-1.4a.492.492,0,0,1-.286-.216l-1.671-2.673-3.159-1.754a14.665,14.665,0,0,0-4.2-1.323l-.73-.155a16.075,16.075,0,0,0-9.593,1.044.5.5,0,0,1-.709-.567c.035-.142,3.536-14.36,6.852-23.549l.566-1.56c3.986-10.966,10.008-27.537,5.818-47.188-3.424-16.06-6.161-55.442-6.188-55.838l-.862-3.608-.859-7.887-.89-9.711-.342-7.08.306-5.1.9-6.2,1.012-4.668,1.773-6.3,7.08-17,9.77-21.649a.528.528,0,0,1,.5-.292l5.674.526a.478.478,0,0,1,.128.029l4.878,1.809,6.041,3.277a.422.422,0,0,1,.1.074l3.015,2.816,8.378,7.428,7.471,3.1,18.391,8.358a.5.5,0,0,1,.11.842l-.673.552c-2.258,1.851-4.819,3.951-7.375,6.333-5.315,4.953-7.6,14.15-10.249,24.8-.505,2.033-1.025,4.126-1.585,6.264-2.687,10.286-3,22.552-3.224,31.508-.072,2.83-.134,5.274-.259,7.267a259.03,259.03,0,0,1-2.877,26.407,48.341,48.341,0,0,0-.941,10.741c-.008,1.575-.018,3.535-.094,6.14-.263,8.913-.794,17.311-4.967,37.2-3.535,16.854-8.041,34.878-10.03,41.137A.5.5,0,0,1,259.675,5171.862Zm-16.066-4.6,4.685,1.338c.041.007,6.663,1.482,11.034,2.2,2.009-6.487,6.473-24.41,9.876-40.628l.489.1-.489-.1c4.155-19.811,4.684-28.165,4.945-37.028.076-2.591.086-4.545.094-6.115a49.077,49.077,0,0,1,.959-10.918,258.187,258.187,0,0,0,2.861-26.288c.124-1.974.186-4.41.257-7.229.227-9.005.54-21.337,3.258-31.735.557-2.134,1.077-4.224,1.581-6.254,2.685-10.8,5.005-20.134,10.538-25.291,2.579-2.4,5.152-4.512,7.423-6.374l.05-.042-17.643-8.019-7.534-3.127a.511.511,0,0,1-.141-.088l-8.449-7.493-2.978-2.78-5.92-3.218-4.752-1.756-5.254-.487-9.616,21.31-7.054,16.926-1.747,6.216-1,4.6-.887,6.122-.3,5,.341,7,.889,9.682.846,7.818.864,3.627c.04.477,2.772,39.788,6.181,55.779,4.25,19.932-1.832,36.666-5.856,47.739l-.565,1.557c-2.8,7.752-5.732,19.122-6.58,22.481a16.906,16.906,0,0,1,9.3-.725l.723.154a15.629,15.629,0,0,1,4.479,1.426l3.272,1.817a.491.491,0,0,1,.181.173Z" fill="#4d4d4d"/>
      </g>
      <path id="Trazado_110685" data-name="Trazado 110685" d="M267.182,4987.98,265,4982.692l-2.206-.649s-.95-.255-.467-.978l3.506-1.986s1.59-.793,1.425.748l-.8,2.486,1.818,5.063-.062,1.354Z" fill="#999"/>
      <path id="Trazado_110686" data-name="Trazado 110686" d="M268.014,4989.305l-5.065,2.661-.443,2.257s-.167.969-.932.554l-2.3-3.308s-.936-1.51.614-1.488l2.55.569,4.873-2.276,1.355-.063Z" fill="#999"/>
      <path id="Trazado_110687" data-name="Trazado 110687" d="M246.994,4945.318l-2.205-5.279-2.21-.639s-.95-.251-.47-.977l3.5-2s1.586-.8,1.428.743l-.79,2.489,1.839,5.055-.056,1.355Z" fill="#999"/>
      <path id="Trazado_110688" data-name="Trazado 110688" d="M247.34,4946.743l-5.629-1.024-1.739,1.5s-.728.661-1.076-.136l.226-4.023s.193-1.766,1.4-.794l1.658,2.018,5.242,1.209,1.1.785Z" fill="#999"/>
      <path id="Trazado_110689" data-name="Trazado 110689" d="M229.6,4985.815l-5.629-1.024-1.739,1.506s-.728.661-1.076-.137l.226-4.023s.193-1.766,1.4-.794l1.658,2.018,5.242,1.209,1.1.785Z" fill="#999"/>
      <path id="Trazado_110690" data-name="Trazado 110690" d="M229.965,4984.662l-2.481-5.155-2.24-.522s-.963-.2-.522-.95l3.387-2.183s1.542-.882,1.465.666l-.658,2.528,2.1,4.951.015,1.355Z" fill="#999"/>
      <path id="Trazado_110691" data-name="Trazado 110691" d="M248.757,5228.447h-1v-49.974c.043-1.192,1.1-28.871,5.249-40.147l3.288-13.018.969.244-3.3,13.069c-4.114,11.178-5.192,39.584-5.2,39.87Z" fill="#999"/>
      <path id="Trazado_110692" data-name="Trazado 110692" d="M256.6,5123.861l3.01-4.865-.766-2.169s-.349-.919.52-.951l3.662,1.68s1.574.825.228,1.593l-2.485.806-3.04,4.438-1.135.742Z" fill="#999"/>
      <path id="Trazado_110693" data-name="Trazado 110693" d="M256.6,5125.989l3.01,4.865-.766,2.169s-.349.919.52.951l3.662-1.68s1.574-.825.228-1.593l-2.485-.806-3.04-4.437-1.135-.743Z" fill="#999"/>
    </g>
  </g>
</svg>
