<svg xmlns="http://www.w3.org/2000/svg" width="812" height="359.361" viewBox="0 0 812 359.361">
  <g id="Grupo_56846" data-name="Grupo 56846" transform="translate(-148.341 -5975.969)">
    <rect id="Rect치ngulo_10476" data-name="Rect치ngulo 10476" width="812" height="359.361" rx="23.352" transform="translate(148.341 5975.969)" fill="#fff"/>
    <path id="Trazado_110944" data-name="Trazado 110944" d="M249.8,6172.374a.562.562,0,0,1-.205-.04,37.04,37.04,0,0,0-11.541-2.154c-4.556-.132-5.726.187-5.995.3a.538.538,0,0,1-.284.24.545.545,0,0,1-.7-.321l0,0-5.436-14.783a.553.553,0,0,1,.159-.606,4.157,4.157,0,0,0,.919-1.045c-.416-.824-2.815-5.538-2.815-5.538l-4.359-10.724c-.048-.144-3.378-10.482-6.41-13.86a64.91,64.91,0,0,0-8.567-7.358h0a18.136,18.136,0,0,0-10.6-1.838c-5.293.915-6.162,2.662-6.169,2.68a.75.75,0,0,1-.059.1,1.316,1.316,0,0,0,.29,1.784c.758.716,4.252.637,6.493.354.124-.05,5.507-1.8,9.414-1.115a.547.547,0,1,1-.189,1.079c-3.633-.629-8.931,1.086-8.985,1.1-1.089.149-6.083.706-7.487-.622a2.425,2.425,0,0,1-.46-3.176c.215-.439,1.44-2.317,6.966-3.272a18.992,18.992,0,0,1,11.377,2,64.43,64.43,0,0,1,8.8,7.55c3.188,3.55,6.484,13.784,6.623,14.219l4.325,10.642h0s2.606,5.113,2.844,5.589c.311.621-.284,1.405-.944,2.024l5.078,13.809c.773-.224,2.444-.413,6.215-.3A37.5,37.5,0,0,1,250,6171.316a.549.549,0,0,1-.206,1.057Zm-17.7-2.361v0l0,.011Z" transform="translate(3.684 13.295)" fill="#999"/>
    <path id="Trazado_110945" data-name="Trazado 110945" d="M203.99,6161.015a.549.549,0,0,1-.433-.887c.254-.325,6.381-8.012,19.222-10.216a.548.548,0,1,1,.186,1.081c-12.428,2.133-18.484,9.734-18.543,9.811A.549.549,0,0,1,203.99,6161.015Z" transform="translate(5.332 16.832)" fill="#999"/>
    <path id="Trazado_110946" data-name="Trazado 110946" d="M216.272,6168.263a.549.549,0,0,1-.479-.28c-1.255-2.24-7.5-11.214-7.557-11.3a.548.548,0,1,1,.9-.625c.258.37,6.333,9.108,7.615,11.394a.548.548,0,0,1-.478.816Z" transform="translate(5.787 17.404)" fill="#999"/>
    <path id="Trazado_110947" data-name="Trazado 110947" d="M207.794,6173.421c-.077,0-.152,0-.227-.008-.152-.012-.3-.01-.446-.009-1.625.021-2.917-.336-5.705-4.928-3.225-5.311-12.7-26.717-13.1-27.625l-5.916-13.933c-.061-.1-2.18-3.8-1.355-6.388.784-2.446,4.416-7.214,4.569-7.416l15-16.533c.225-.21,19.027-17.486,21.529-26.108a.549.549,0,0,1,1.054.307c-2.588,8.915-21.023,25.857-21.806,26.574l-14.938,16.463c-.007.013-3.64,4.78-4.365,7.047-.68,2.123,1.268,5.532,1.287,5.567l5.943,13.984c.1.214,9.842,22.242,13.031,27.491,2.682,4.419,3.752,4.393,4.759,4.4.179,0,.355,0,.533.011a7.173,7.173,0,0,0,2.959-.8l3.538-1.673a.548.548,0,1,1,.469.991l-3.528,1.669A8.981,8.981,0,0,1,207.794,6173.421Z" transform="translate(3.147 9.107)" fill="#999"/>
    <path id="Trazado_110948" data-name="Trazado 110948" d="M191.493,6142.152a.577.577,0,0,1-.115-.012.551.551,0,0,1-.422-.652c0-.006.237-1.363-.574-5.6-.836-4.357-5.533-13.879-5.58-13.975a.549.549,0,0,1,.984-.487c.2.4,4.81,9.752,5.674,14.256.854,4.463.6,5.888.57,6.036A.549.549,0,0,1,191.493,6142.152Z" transform="translate(3.523 14.047)" fill="#999"/>
    <path id="Trazado_110949" data-name="Trazado 110949" d="M209.38,6088.627a.536.536,0,0,1-.264-.068.548.548,0,0,1-.215-.745l6.581-11.92c.418-.823,10.52-20.567,16.852-25.075l4.76-3.523a.582.582,0,0,1,.12-.067c.169-.068,16.9-6.874,19.149-7.906s9.894-5.37,9.971-5.414l3.409-2.178a.548.548,0,1,1,.591.922l-3.433,2.193c-.341.2-7.8,4.426-10.082,5.474-2.225,1.02-17.825,7.369-19.127,7.9l-4.713,3.487c-6.122,4.36-16.425,24.5-16.528,24.7l-6.589,11.937A.546.546,0,0,1,209.38,6088.627Z" transform="translate(5.854 5.388)" fill="#999"/>
    <path id="Trazado_110950" data-name="Trazado 110950" d="M211.127,6123.842a3.2,3.2,0,0,1-2.659-1.614.548.548,0,0,1,.954-.541,1.977,1.977,0,0,0,2.351.943c1.409-.48,2.579-2.689,2.911-3.5l4.844-8.74c.28-.5,6.88-12.3,11.032-15.294a.548.548,0,0,1,.641.889c-3.955,2.852-10.646,14.819-10.714,14.938l-4.816,8.682c-.029.08-1.379,3.326-3.545,4.066A3.107,3.107,0,0,1,211.127,6123.842Z" transform="translate(5.812 11.518)" fill="#999"/>
    <path id="Trazado_110951" data-name="Trazado 110951" d="M222.728,6107.845a.548.548,0,0,1-.3-1.01c.292-.187,7.2-4.58,11.31-6.109a19.4,19.4,0,0,0,5.839-3.247,64.466,64.466,0,0,0,4.486-25.356.547.547,0,0,1,.53-.566h.019a.548.548,0,0,1,.548.53,65.391,65.391,0,0,1-4.626,25.944.527.527,0,0,1-.122.173,19.46,19.46,0,0,1-6.292,3.55c-4,1.487-11.031,5.96-11.1,6A.538.538,0,0,1,222.728,6107.845Z" transform="translate(7.146 9.251)" fill="#999"/>
    <path id="Trazado_110952" data-name="Trazado 110952" d="M239.248,6185.849a.624.624,0,0,1-.128-.016c-2.486-.6-5.494-3.2-5.621-3.315a.548.548,0,1,1,.722-.826c.029.025,2.932,2.54,5.156,3.074a.549.549,0,0,1-.128,1.083Z" transform="translate(8.223 19.895)" fill="#999"/>
    <path id="Trazado_110953" data-name="Trazado 110953" d="M239.453,6190.463a.534.534,0,0,1-.188-.033.547.547,0,0,1-.328-.7c.254-.7,6.266-17.167,8.9-22.125,2.3-4.323,2.73-6.1,2.792-6.4-.042-.526-.321-3.918-.775-6.974l-2.575-17.165-1.569-7.915a17.328,17.328,0,0,0-1.837-4.72l-.386-.519c-1.567-2.1-5.241-7.021-5.511-11.212-.284-4.408-.013-16.009,0-16.5a.538.538,0,0,1,.562-.535.548.548,0,0,1,.535.562c0,.12-.283,12.043,0,16.4.25,3.866,3.786,8.6,5.3,10.626l.394.532a18.041,18.041,0,0,1,2.021,5.131l1.578,7.958,2.579,17.194c.5,3.343.789,7.083.791,7.12a.555.555,0,0,1,0,.113c-.01.071-.258,1.8-2.921,6.814-2.6,4.893-8.776,21.815-8.839,21.984A.546.546,0,0,1,239.453,6190.463Z" transform="translate(8.662 11.584)" fill="#999"/>
    <path id="Trazado_110954" data-name="Trazado 110954" d="M241.9,6087.965a.547.547,0,0,1-.485-.8c2.777-5.233,10.577-11.808,10.909-12.085a.548.548,0,1,1,.7.84c-.079.066-7.967,6.715-10.644,11.76A.548.548,0,0,1,241.9,6087.965Z" transform="translate(9.001 9.579)" fill="#999"/>
    <path id="Trazado_110955" data-name="Trazado 110955" d="M241.2,6089.021a141.009,141.009,0,0,0-3.917-22.075,66.053,66.053,0,0,1-2.379-19.927l1.095.083a64.931,64.931,0,0,0,2.342,19.557,142.07,142.07,0,0,1,3.952,22.271Z" transform="translate(8.372 6.876)" fill="#999"/>
    <path id="Trazado_110956" data-name="Trazado 110956" d="M249.469,6150l-1.092-.085a130.28,130.28,0,0,1,11.333-42.433l.984.489A129.044,129.044,0,0,0,249.469,6150Z" transform="translate(9.681 12.727)" fill="#999"/>
    <path id="Trazado_110957" data-name="Trazado 110957" d="M281.3,6160.649c-19.485,0-30.925-5.042-31.043-5.095l.45-1c.123.053,12.543,5.519,33.617,4.958a148.219,148.219,0,0,0,36.662-5.411l.332,1.046a149.36,149.36,0,0,1-36.965,5.461Q282.8,6160.65,281.3,6160.649Z" transform="translate(9.863 17.238)" fill="#999"/>
    <path id="Trazado_110958" data-name="Trazado 110958" d="M336.027,6270.046l-1.089-.13c.012-.1,1.125-9.886,0-26.936-1.129-17.087-3.264-31-3.285-31.141l-2-11c-1.127-11.677-7.752-24.9-7.818-25.03l-6.714-12.213a.549.549,0,0,1-.068-.265v-.882l1.289-17.254c.026-.16,1.872-10.252,2.436-14.2a16.023,16.023,0,0,1,3.4-8.268c1.353-1.758,3.465-8.765,3.487-8.835.021-.095,2.906-12.465-.687-20.064-3.721-7.873-4.594-20-4.629-20.513l1.095-.075c.009.123.895,12.436,4.526,20.119,3.759,7.95.877,20.3.753,20.817-.1.327-2.2,7.3-3.675,9.221a15.009,15.009,0,0,0-3.182,7.754c-.568,3.971-2.417,14.083-2.436,14.185l-1.28,17.156v.7L322.8,6175.3c.077.151,6.793,13.55,7.935,25.391l2,10.969c.024.154,2.166,14.113,3.3,31.249C337.165,6260.07,336.039,6269.948,336.027,6270.046Z" transform="translate(16.133 9.413)" fill="#999"/>
    <path id="Trazado_110959" data-name="Trazado 110959" d="M317.159,6146.369c-2.6-13.366-13.7-38.817-13.806-39.073l1-.439c.112.256,11.261,25.818,13.879,39.3Z" transform="translate(15.001 12.666)" fill="#999"/>
    <path id="Trazado_110960" data-name="Trazado 110960" d="M322.383,6083.972l-1.052-.314c.022-.068,2.093-7.053,4.28-18.826a78.713,78.713,0,0,0,1.423-19.8l1.093-.106a80.077,80.077,0,0,1-1.439,20.109C324.491,6076.869,322.4,6083.9,322.383,6083.972Z" transform="translate(16.741 6.672)" fill="#999"/>
    <path id="Trazado_110961" data-name="Trazado 110961" d="M281.452,6049.79c-15.338,0-18.079-10.939-18.107-11.058l1.068-.249c.111.468,2.906,11.46,19.808,10.094,16.863-1.372,18.591-7.879,18.608-7.944a.56.56,0,0,1,.157-.278,1.435,1.435,0,0,0,.433-.92.966.966,0,0,0-.409-.693,6.244,6.244,0,0,0-1.156-.708,4.776,4.776,0,0,1-3.04-4.076l-.129-.986c-.446-3.35-1.055-7.939-.655-10.542a20.8,20.8,0,0,1,1.012-4.215,3.524,3.524,0,0,1,1.18-2.106,2.065,2.065,0,0,1,1.583-.36c1.753.28,5.935.708,5.979.711a.527.527,0,0,1,.139.034c.609.231,2.394.713,3.32.18a13.821,13.821,0,0,0,3.19-3.413c.1-.328.554-1.343,2.531-5.3l.981.491c-1.12,2.239-2.363,4.788-2.461,5.1l-.007,0a13.13,13.13,0,0,1-3.684,4.071c-1.451.84-3.7.1-4.192-.078-.576-.06-4.292-.444-5.97-.711a.966.966,0,0,0-.762.16,2.541,2.541,0,0,0-.755,1.454.541.541,0,0,1-.036.13,19.308,19.308,0,0,0-.965,4.021c-.377,2.446.22,6.945.658,10.229l.13.989a3.679,3.679,0,0,0,2.46,3.245,7.2,7.2,0,0,1,1.354.841,2.017,2.017,0,0,1,.8,1.5,2.442,2.442,0,0,1-.66,1.626c-.349,1.116-3.019,7.293-19.546,8.636Q282.813,6049.791,281.452,6049.79Z" transform="translate(11.13 3.096)" fill="#999"/>
    <path id="Trazado_110962" data-name="Trazado 110962" d="M297.778,6033.682a17.422,17.422,0,0,1,3.576,0c.716.239,8.155,4.817,8.155,4.817l14.02,6.581s7.511,1.216,11.015,3.791,7.011,5.508,8.512,7.868a36.121,36.121,0,0,1,2.861,6.581l2.432,11.659.787,15.021.358,13.663v28.4s1.788,7.082,1.859,11.3.644,20.314.644,20.314,0,23.176-.358,34.62.071,13.09.071,13.09a3.807,3.807,0,0,1-3.29,4.149,55.531,55.531,0,0,1-2.36,13.232,119.359,119.359,0,0,0-3.362,14.021s-1,7.3-4.649,7.51l-.35,23.676a2.474,2.474,0,0,0,1.351-1.431c.286-1,1.86-12.231,1.288-13.947s-1.574-3.648-.787-4.15,4.578.859,6.724-5.292l2-3.792s2.146-1.788-.573-9.155c0,0-1.288-5.079-.286-8.012s2.433-8.726,2.433-8.726a11.838,11.838,0,0,0,3.719-3.076c1.43-1.931,2.289-3.934,2.36-8.44s.5-34.978.5-34.978v-12.445s-.859-9.371-2.575-12.3-.358-7.939-.358-7.939a9.206,9.206,0,0,0,.93-4.221c.143-3-.43-18.239-.43-18.239l-3.147-30.9-2.218-21.28.429-6.9s.716-5.722-4.219-8.8-9.3-6.08-13.52-6.866a76.094,76.094,0,0,1-9.871-2.861l-9.656-4.363-7.009-3.219a17.075,17.075,0,0,0-5.364-.573c-2.218.286-2,.573-2,.573Z" transform="translate(14.427 5.423)" fill="#999"/>
    <g id="Grupo_56843" data-name="Grupo 56843" transform="translate(259.232 6205.837)">
      <path id="Trazado_110963" data-name="Trazado 110963" d="M249.955,6185.8a22.347,22.347,0,0,1,3.7-.25,5.689,5.689,0,0,1,3.7.986,3.419,3.419,0,0,1,1.291,2.78,3.739,3.739,0,0,1-1.111,2.87,5.694,5.694,0,0,1-3.929,1.275,4.62,4.62,0,0,1-.933-.073v4.342h-2.709Zm2.709,5.49a4.078,4.078,0,0,0,.915.072c1.453,0,2.35-.736,2.35-1.957,0-1.11-.772-1.775-2.153-1.775a4.793,4.793,0,0,0-1.112.09Z" transform="translate(-249.398 -6185.554)"/>
      <path id="Trazado_110964" data-name="Trazado 110964" d="M262.2,6185.635v12.093h-2.727v-12.093Z" transform="translate(-248.477 -6185.546)"/>
      <path id="Trazado_110965" data-name="Trazado 110965" d="M264.119,6197.728v-12.093h3.194l2.512,4.433a38.122,38.122,0,0,1,1.974,4.144h.036a49.651,49.651,0,0,1-.216-5.059v-3.518h2.512v12.093h-2.87l-2.583-4.665a42.5,42.5,0,0,1-2.1-4.27h-.072c.09,1.614.126,3.319.126,5.292v3.642Z" transform="translate(-248.027 -6185.546)"/>
      <path id="Trazado_110966" data-name="Trazado 110966" d="M274.72,6196.255l5.759-8.306v-.054h-5.238v-2.261h8.773v1.579l-5.634,8.181v.073H284.1v2.26H274.72Z" transform="translate(-247.001 -6185.546)"/>
      <path id="Trazado_110967" data-name="Trazado 110967" d="M287.853,6194.623l-.843,3.1h-2.834l3.7-12.093h3.57l3.768,12.093h-2.943l-.933-3.1Zm3.068-2.044-.754-2.565c-.2-.717-.412-1.633-.592-2.333h-.054c-.16.717-.359,1.632-.537,2.333l-.736,2.565Z" transform="translate(-246.086 -6185.546)"/>
      <path id="Trazado_110968" data-name="Trazado 110968" d="M301.888,6194.623l-.844,3.1h-2.834l3.7-12.093h3.571l3.767,12.093H306.3l-.932-3.1Zm3.068-2.044-.755-2.565c-.2-.717-.412-1.633-.591-2.333h-.055c-.161.717-.359,1.632-.537,2.333l-.736,2.565Z" transform="translate(-244.728 -6185.546)"/>
      <path id="Trazado_110969" data-name="Trazado 110969" d="M309.757,6185.635h2.727v9.8h4.808v2.3h-7.535Z" transform="translate(-243.61 -6185.546)"/>
      <path id="Trazado_110970" data-name="Trazado 110970" d="M258.866,6217.031a8.012,8.012,0,0,1-3.085.521c-4.181,0-6.334-2.621-6.334-6.064,0-4.108,2.943-6.387,6.6-6.387a7.507,7.507,0,0,1,2.979.521l-.575,2.171a5.749,5.749,0,0,0-2.3-.45,3.967,3.967,0,0,0,.018,7.93,6.513,6.513,0,0,0,2.3-.395Z" transform="translate(-249.447 -6183.663)"/>
      <path id="Trazado_110971" data-name="Trazado 110971" d="M264.377,6217.571c-3.57,0-5.687-2.709-5.687-6.155,0-3.623,2.333-6.333,5.884-6.333,3.715,0,5.741,2.78,5.741,6.118,0,3.982-2.387,6.37-5.919,6.37Zm.144-2.171c1.848,0,2.906-1.741,2.906-4.108,0-2.17-1.022-4.038-2.906-4.038s-2.943,1.831-2.943,4.091c0,2.278,1.095,4.055,2.924,4.055Z" transform="translate(-248.553 -6183.664)"/>
      <path id="Trazado_110972" data-name="Trazado 110972" d="M271.056,6214.556a6.919,6.919,0,0,0,3.033.753c1.255,0,1.919-.521,1.919-1.31,0-.753-.575-1.183-2.027-1.687-2.009-.718-3.337-1.829-3.337-3.588,0-2.063,1.741-3.624,4.575-3.624a7.083,7.083,0,0,1,3.085.609l-.609,2.189a5.669,5.669,0,0,0-2.512-.574c-1.185,0-1.759.557-1.759,1.167,0,.771.665,1.112,2.243,1.7,2.134.789,3.121,1.9,3.121,3.606,0,2.027-1.542,3.75-4.862,3.75a7.881,7.881,0,0,1-3.426-.754Z" transform="translate(-247.41 -6183.663)"/>
      <path id="Trazado_110973" data-name="Trazado 110973" d="M282.19,6207.559h-3.266v-2.294h9.294v2.294h-3.3v9.8H282.19Z" transform="translate(-246.594 -6183.647)"/>
      <path id="Trazado_110974" data-name="Trazado 110974" d="M290.421,6214.252l-.843,3.1h-2.834l3.7-12.092h3.57l3.769,12.092h-2.943l-.932-3.1Zm3.069-2.044-.755-2.565c-.2-.718-.412-1.634-.592-2.333h-.054c-.16.717-.359,1.633-.537,2.333l-.736,2.565Z" transform="translate(-245.838 -6183.647)"/>
      <path id="Trazado_110975" data-name="Trazado 110975" d="M298.276,6205.453a21.919,21.919,0,0,1,3.676-.271,7.885,7.885,0,0,1,4.969,1.292,5.326,5.326,0,0,1,2.046,4.558,6.181,6.181,0,0,1-1.992,4.9,8.736,8.736,0,0,1-5.6,1.561,23.431,23.431,0,0,1-3.1-.179ZM301,6215.3a5.126,5.126,0,0,0,.95.054c2.5.019,4.127-1.346,4.127-4.234a3.5,3.5,0,0,0-3.84-3.839,5.824,5.824,0,0,0-1.237.107Z" transform="translate(-244.722 -6183.655)"/>
      <path id="Trazado_110976" data-name="Trazado 110976" d="M314.84,6217.571c-3.57,0-5.687-2.709-5.687-6.155,0-3.623,2.332-6.333,5.884-6.333,3.714,0,5.741,2.78,5.741,6.118,0,3.982-2.387,6.37-5.919,6.37Zm.144-2.171c1.848,0,2.906-1.741,2.906-4.108,0-2.17-1.022-4.038-2.906-4.038s-2.943,1.831-2.943,4.091c0,2.278,1.095,4.055,2.924,4.055Z" transform="translate(-243.669 -6183.664)"/>
    </g>
    <g id="Grupo_56844" data-name="Grupo 56844" transform="translate(506.675 6205.837)">
      <path id="Trazado_110977" data-name="Trazado 110977" d="M475.565,6185.8a22.328,22.328,0,0,1,3.7-.25,5.686,5.686,0,0,1,3.7.986,3.416,3.416,0,0,1,1.292,2.78,3.739,3.739,0,0,1-1.112,2.87,5.692,5.692,0,0,1-3.929,1.275,4.627,4.627,0,0,1-.933-.073v4.342h-2.708Zm2.708,5.49a4.078,4.078,0,0,0,.915.072c1.454,0,2.35-.736,2.35-1.957,0-1.11-.771-1.775-2.153-1.775a4.8,4.8,0,0,0-1.112.09Z" transform="translate(-475.008 -6185.554)"/>
      <path id="Trazado_110978" data-name="Trazado 110978" d="M487.811,6185.635v12.093h-2.727v-12.093Z" transform="translate(-474.087 -6185.546)"/>
      <path id="Trazado_110979" data-name="Trazado 110979" d="M489.729,6197.728v-12.093h3.194l2.512,4.433a38.345,38.345,0,0,1,1.974,4.144h.035a49.647,49.647,0,0,1-.215-5.059v-3.518h2.512v12.093h-2.871l-2.583-4.665a42.752,42.752,0,0,1-2.1-4.27h-.072c.091,1.614.127,3.319.127,5.292v3.642Z" transform="translate(-473.637 -6185.546)"/>
      <path id="Trazado_110980" data-name="Trazado 110980" d="M500.329,6196.255l5.759-8.306v-.054H500.85v-2.261h8.773v1.579l-5.634,8.181v.073h5.723v2.26h-9.383Z" transform="translate(-472.611 -6185.546)"/>
      <path id="Trazado_110981" data-name="Trazado 110981" d="M513.462,6194.623l-.843,3.1h-2.834l3.7-12.093h3.569l3.769,12.093h-2.943l-.932-3.1Zm3.069-2.044-.755-2.565c-.2-.717-.412-1.633-.592-2.333h-.054c-.16.717-.359,1.632-.537,2.333l-.736,2.565Z" transform="translate(-471.696 -6185.546)"/>
      <path id="Trazado_110982" data-name="Trazado 110982" d="M527.5,6194.623l-.843,3.1h-2.834l3.7-12.093h3.571l3.766,12.093h-2.943l-.932-3.1Zm3.068-2.044-.755-2.565c-.2-.717-.412-1.633-.591-2.333h-.054c-.162.717-.36,1.632-.538,2.333l-.736,2.565Z" transform="translate(-470.338 -6185.546)"/>
      <path id="Trazado_110983" data-name="Trazado 110983" d="M535.366,6185.635h2.728v9.8H542.9v2.3h-7.536Z" transform="translate(-469.221 -6185.546)"/>
      <path id="Trazado_110984" data-name="Trazado 110984" d="M484.476,6217.031a8.023,8.023,0,0,1-3.086.521c-4.18,0-6.333-2.621-6.333-6.064,0-4.108,2.942-6.387,6.6-6.387a7.5,7.5,0,0,1,2.979.521l-.574,2.171a5.755,5.755,0,0,0-2.3-.45,3.967,3.967,0,0,0,.019,7.93,6.506,6.506,0,0,0,2.3-.395Z" transform="translate(-475.057 -6183.663)"/>
      <path id="Trazado_110985" data-name="Trazado 110985" d="M492.489,6212.243h-4.45v2.87h4.969v2.243h-7.7v-12.092h7.446v2.241H488.04v2.513h4.45Z" transform="translate(-474.064 -6183.647)"/>
      <path id="Trazado_110986" data-name="Trazado 110986" d="M494.031,6217.356v-12.092h3.195l2.512,4.431a38.124,38.124,0,0,1,1.973,4.144h.036a49.573,49.573,0,0,1-.216-5.058v-3.517h2.512v12.092h-2.87l-2.583-4.665a42.609,42.609,0,0,1-2.1-4.271h-.072c.09,1.616.126,3.319.126,5.294v3.642Z" transform="translate(-473.221 -6183.647)"/>
      <path id="Trazado_110987" data-name="Trazado 110987" d="M507.749,6207.559h-3.265v-2.294h9.293v2.294h-3.3v9.8h-2.727Z" transform="translate(-472.209 -6183.647)"/>
      <path id="Trazado_110988" data-name="Trazado 110988" d="M514.281,6205.453a21.284,21.284,0,0,1,3.644-.271,6.059,6.059,0,0,1,3.91.969,3.032,3.032,0,0,1,1.131,2.53,3.2,3.2,0,0,1-2.135,2.959v.054a3.016,3.016,0,0,1,1.615,2.243c.377,1.38.735,2.958.969,3.426h-2.8a16.19,16.19,0,0,1-.825-2.816c-.342-1.525-.861-1.919-1.992-1.938h-.807v4.754h-2.71Zm2.71,5.184h1.077c1.363,0,2.17-.682,2.17-1.74,0-1.095-.754-1.668-2.009-1.668a5.477,5.477,0,0,0-1.238.09Z" transform="translate(-471.261 -6183.655)"/>
      <path id="Trazado_110989" data-name="Trazado 110989" d="M529.1,6217.571c-3.57,0-5.688-2.709-5.688-6.155,0-3.623,2.333-6.333,5.885-6.333,3.713,0,5.74,2.78,5.74,6.118,0,3.982-2.385,6.37-5.919,6.37Zm.144-2.171c1.847,0,2.905-1.741,2.905-4.108,0-2.17-1.021-4.038-2.905-4.038s-2.943,1.831-2.943,4.091c0,2.278,1.095,4.055,2.924,4.055Z" transform="translate(-470.378 -6183.664)"/>
    </g>
    <g id="Grupo_56845" data-name="Grupo 56845" transform="translate(778.468 6212.899)">
      <path id="Trazado_110990" data-name="Trazado 110990" d="M722.868,6192.245a22.259,22.259,0,0,1,3.7-.251,5.692,5.692,0,0,1,3.7.985,3.423,3.423,0,0,1,1.291,2.782,3.742,3.742,0,0,1-1.111,2.87,5.7,5.7,0,0,1-3.929,1.274,4.623,4.623,0,0,1-.933-.073v4.342h-2.709Zm2.709,5.489a4.073,4.073,0,0,0,.915.072c1.453,0,2.35-.736,2.35-1.956,0-1.112-.771-1.777-2.153-1.777a4.776,4.776,0,0,0-1.112.091Z" transform="translate(-722.868 -6191.993)"/>
      <path id="Trazado_110991" data-name="Trazado 110991" d="M735.115,6192.074v12.092h-2.727v-12.092Z" transform="translate(-721.947 -6191.985)"/>
      <path id="Trazado_110992" data-name="Trazado 110992" d="M737.032,6204.166v-12.092h3.2l2.512,4.433a38.063,38.063,0,0,1,1.973,4.143h.036a49.629,49.629,0,0,1-.216-5.059v-3.517h2.512v12.092h-2.87l-2.583-4.663a42.687,42.687,0,0,1-2.1-4.271h-.072c.09,1.615.126,3.318.126,5.293v3.641Z" transform="translate(-721.497 -6191.985)"/>
      <path id="Trazado_110993" data-name="Trazado 110993" d="M747.633,6202.695l5.759-8.306v-.053h-5.238v-2.262h8.773v1.58l-5.634,8.181v.072h5.723v2.259h-9.383Z" transform="translate(-720.471 -6191.985)"/>
      <path id="Trazado_110994" data-name="Trazado 110994" d="M760.766,6201.062l-.843,3.1h-2.834l3.695-12.092h3.57l3.769,12.092h-2.943l-.933-3.1Zm3.068-2.044-.753-2.565c-.2-.717-.412-1.633-.592-2.333h-.054c-.16.719-.359,1.633-.537,2.333l-.736,2.565Z" transform="translate(-719.556 -6191.985)"/>
      <path id="Trazado_110995" data-name="Trazado 110995" d="M779.116,6199.053h-4.45v2.872h4.969v2.241h-7.7v-12.092h7.445v2.243h-4.718v2.512h4.45Z" transform="translate(-718.119 -6191.985)"/>
      <path id="Trazado_110996" data-name="Trazado 110996" d="M780.659,6204.166v-12.092h3.193l2.513,4.433a37.841,37.841,0,0,1,1.972,4.143h.037a49.611,49.611,0,0,1-.216-5.059v-3.517h2.512v12.092H787.8l-2.583-4.663a42.634,42.634,0,0,1-2.1-4.271h-.072c.09,1.615.125,3.318.125,5.293v3.641Z" transform="translate(-717.275 -6191.985)"/>
      <path id="Trazado_110997" data-name="Trazado 110997" d="M722.868,6211.891a21.282,21.282,0,0,1,3.534-.269,6.678,6.678,0,0,1,3.57.681,2.623,2.623,0,0,1,1.436,2.386,2.749,2.749,0,0,1-1.973,2.565v.037a3.011,3.011,0,0,1,2.4,2.978,3.172,3.172,0,0,1-1.255,2.567c-.88.7-2.35,1.093-4.754,1.093a21.1,21.1,0,0,1-2.96-.178Zm2.709,4.61h.9c1.454,0,2.207-.592,2.207-1.489,0-.915-.7-1.4-1.936-1.4a5.166,5.166,0,0,0-1.167.09Zm0,5.365a5.782,5.782,0,0,0,1.058.054c1.238,0,2.332-.485,2.332-1.758,0-1.22-1.093-1.706-2.457-1.706h-.933Z" transform="translate(-722.868 -6190.094)"/>
      <path id="Trazado_110998" data-name="Trazado 110998" d="M732.747,6211.891a21.515,21.515,0,0,1,3.643-.269,6.051,6.051,0,0,1,3.91.968,3.03,3.03,0,0,1,1.131,2.529,3.2,3.2,0,0,1-2.135,2.961v.052a3.021,3.021,0,0,1,1.615,2.243c.376,1.38.735,2.96.967,3.426h-2.8a16.22,16.22,0,0,1-.825-2.817c-.342-1.525-.861-1.919-1.992-1.937h-.807v4.754h-2.71Zm2.71,5.186h1.076c1.364,0,2.172-.682,2.172-1.741,0-1.095-.755-1.669-2.009-1.669a5.431,5.431,0,0,0-1.238.09Z" transform="translate(-721.912 -6190.094)"/>
      <path id="Trazado_110999" data-name="Trazado 110999" d="M749.64,6218.682h-4.45v2.87h4.971v2.243h-7.7V6211.7h7.446v2.243h-4.719v2.512h4.45Z" transform="translate(-720.972 -6190.086)"/>
      <path id="Trazado_111000" data-name="Trazado 111000" d="M753.7,6214H750.43v-2.3h9.294v2.3h-3.3v9.8H753.7Z" transform="translate(-720.201 -6190.086)"/>
      <path id="Trazado_111001" data-name="Trazado 111001" d="M767.42,6218.682h-4.448v2.87h4.969v2.243h-7.7V6211.7h7.445v2.243h-4.717v2.512h4.448Z" transform="translate(-719.251 -6190.086)"/>
      <path id="Trazado_111002" data-name="Trazado 111002" d="M768.979,6211.7h2.727v9.8h4.808v2.3h-7.535Z" transform="translate(-718.406 -6190.086)"/>
    </g>
    <path id="Trazado_111003" data-name="Trazado 111003" d="M461.82,6277.2c-.122,0-.239,0-.355-.005a1.122,1.122,0,0,1-.911-.469,2.864,2.864,0,0,1-.1-2.17l.27-1.887c.037-.453-.057-.621-.092-.641-.2-.1-.962.2-1.545.626l-1.988,1.11-.533-.96,1.93-1.072c.228-.172,1.711-1.2,2.671-.661.5.281.72.86.647,1.722l-.291,2a2.106,2.106,0,0,0-.076,1.3c1.254.036,1.9-.142,2.166-.609.392-.69.869-1.4,1.04-1.648l.464-2.112v-2.3c0-.3.046-2.915,1.658-3.015,1.9-.107,2.46,1.649,2.755,3.2a9.872,9.872,0,0,0,1.344,3.366.606.606,0,0,1,.065.125,2.454,2.454,0,0,0,.763,1.16c.662-.293,1-.452.961-2.215-.005-.3-.005-.568-.007-.829a7.21,7.21,0,0,0-.761-3.771,58.711,58.711,0,0,0-3.216-5.331l-1.333-1.684a.548.548,0,0,1,.754-.782l6.974,5.114,1.873,1.477h0c.011,0,1.271.7,1.69.138.541-.719-.364-2.036-.952-2.758-.744-.913-7.57-8.829-8.142-9.494a2.818,2.818,0,0,1-1.135-1.843c-.05-1.071,1.328-1.889,1.6-2.043.123-.049.9-.329.9-.986a4.5,4.5,0,0,0-.751-1.839c-.91-1.6-3.441-9.076-3.547-9.393l-2.651-8.489a14.919,14.919,0,0,0-2.062-5.381c-.429-.573-.887-1.1-1.329-1.6-1.186-1.354-2.305-2.632-2.531-4.525a2.086,2.086,0,0,1,.433-1.649,1.437,1.437,0,0,1,1.305-.354c1.6.254,3.665.133,4.657-.968h0a5.258,5.258,0,0,0,.325-2.084c.071-2.006.013-12.037.012-12.138.049-.593,1.163-13.4,2.3-18.437,1.191-5.264,1.225-15.085,1.225-16.187,0-2.1-.1-8.1-.1-8.1a.528.528,0,0,1,.014-.131,99.792,99.792,0,0,0,1.8-10.228c.367-3.946-1.959-11.825-1.982-11.9l-2.3-9.566c-.059-.48-1.154-10.313-.393-16.788.751-6.387.95-10.789.951-10.831a99.7,99.7,0,0,0,1.246-11.8c-.008-4.035-2.416-9.549-2.44-9.6l1-.442c.1.233,2.525,5.782,2.532,10.045a97.016,97.016,0,0,1-1.254,11.914h0s-.2,4.433-.95,10.849c-.748,6.35.369,16.368.381,16.468l2.277,9.471c.091.3,2.4,8.132,2.016,12.291a99.785,99.785,0,0,1-1.809,10.307c.011.661.094,6.079.094,8.049,0,1.116-.035,11.05-1.254,16.43-1.123,4.96-2.265,18.107-2.277,18.238,0,.363.061,10.105-.01,12.132s-.462,2.636-.625,2.8c-1.6,1.776-4.707,1.442-5.624,1.3-.121-.019-.285-.028-.36.045a1.064,1.064,0,0,0-.121.727c.188,1.571,1.152,2.674,2.269,3.948.457.522.93,1.062,1.383,1.67a15.523,15.523,0,0,1,2.247,5.781l2.63,8.4c.021.065,2.6,7.681,3.457,9.191a4.571,4.571,0,0,1,.89,2.454,2.167,2.167,0,0,1-1.55,1.915c-.408.237-.96.738-.95.992.02.423.556.913.742,1.05a.583.583,0,0,1,.091.084c.3.35,7.418,8.6,8.2,9.562,1.4,1.721,1.732,3.1.977,4.107-.825,1.1-2.393.585-3.189.1l-1.915-1.5-4.06-2.979a46.794,46.794,0,0,1,2.532,4.312,8.176,8.176,0,0,1,.871,4.247c0,.253,0,.521.007.81.037,1.89-.32,2.644-1.527,3.222a1.146,1.146,0,0,1-.948.027,3.187,3.187,0,0,1-1.355-1.737,10.914,10.914,0,0,1-1.478-3.726c-.416-2.193-1.012-2.345-1.608-2.308-.385.024-.631,1.153-.631,1.92v2.361a.535.535,0,0,1-.012.118l-.5,2.274a.519.519,0,0,1-.086.193c-.005.009-.6.865-1.046,1.653A2.916,2.916,0,0,1,461.82,6277.2Z" transform="translate(29.829 9.759)" fill="#999"/>
    <path id="Trazado_111004" data-name="Trazado 111004" d="M468.253,6239.671c-4.7-3.98-11.117-20.755-11.389-21.467l1.027-.39c.066.172,6.583,17.222,11.072,21.019Z" transform="translate(29.857 23.404)" fill="#999"/>
    <path id="Trazado_111005" data-name="Trazado 111005" d="M466.944,6245.316c-1.559-.632-4.127-4.8-4.627-5.626l.94-.565c1.083,1.8,3.154,4.792,4.1,5.174Z" transform="translate(30.385 25.467)" fill="#999"/>
    <path id="Trazado_111006" data-name="Trazado 111006" d="M466.016,6251.039c-.239,0-.967,0-2.915-3.228l.938-.568a10.829,10.829,0,0,0,2.063,2.712Z" transform="translate(30.461 26.253)" fill="#999"/>
    <path id="Trazado_111007" data-name="Trazado 111007" d="M443.636,6223.285a1.092,1.092,0,0,1-.213-.022c-.481-.1-.838-.523-1.061-1.253-.48-1.587-1.7-18.9-1.834-20.865v-27.792c.061-.954,1.495-22.6,2.727-29.02,1.213-6.324.193-21.221.182-21.369l-.669-30.76v-7.546c-.013-.034-2.041-12.566,5.746-22.466,7.759-9.868,24.5-13.4,25.212-13.549,2.707-.818,7.112-2.313,7.958-3.03,1.118-.945,10.3-4.5,11.537-4.217l-.239,1.071h-.021c-1.007,0-9.454,3.042-10.569,3.984-1.29,1.091-7.675,3.036-8.4,3.254-.217.047-17.11,3.615-24.619,13.166-7.478,9.508-5.538,21.573-5.517,21.695l.007,7.626.668,30.723c.042.591,1.039,15.163-.2,21.624-1.219,6.358-2.694,28.626-2.708,28.851v27.717c.533,7.643,1.451,19.473,1.787,20.584.128.421.252.5.253.5s.094-.077.146-.134a26.051,26.051,0,0,1,12.219-4.9c7.436-.906,8.163,2.656,8.189,2.809l-1.079.193.54-.1-.537.1c-.007-.026-.647-2.689-6.979-1.92a25.644,25.644,0,0,0-11.6,4.6h0A1.328,1.328,0,0,1,443.636,6223.285Z" transform="translate(28.277 6.33)" fill="#999"/>
    <path id="Trazado_111008" data-name="Trazado 111008" d="M471.371,6172.062c-.013-.219-.268-5.433,2.667-8.292h0a2.744,2.744,0,0,0,.208-1.99c-.356-1.563-3.722-18.189-3.866-18.9l-1.653-15.789-1.713-11.275,1.084-.166,1.718,11.3,1.648,15.763c.027.12,3.5,17.269,3.851,18.817a3.669,3.669,0,0,1-.457,2.96c-2.626,2.566-2.392,7.455-2.39,7.5Z" transform="translate(30.839 13.518)" fill="#999"/>
    <path id="Trazado_111009" data-name="Trazado 111009" d="M507.213,6163.909a143.3,143.3,0,0,1-32.856-3.681l.28-1.061a142.445,142.445,0,0,0,34.615,3.63,137.259,137.259,0,0,0,34.253-4.7l.32,1.051a138.649,138.649,0,0,1-34.558,4.745C508.578,6163.9,507.891,6163.909,507.213,6163.909Z" transform="translate(31.55 17.626)" fill="#999"/>
    <path id="Trazado_111010" data-name="Trazado 111010" d="M510.2,6168.794h-1.712a.549.549,0,0,1-.477-.278l-34.262-60.426.953-.542,34.105,60.149h1.064L542.1,6107.56l.965.519L510.684,6168.5A.549.549,0,0,1,510.2,6168.794Z" transform="translate(31.492 12.734)" fill="#999"/>
    <path id="Trazado_111011" data-name="Trazado 111011" d="M466.649,6097.089c-.034-1.583-1.629-5.074-3.836-9.908-1.294-2.835-2.905-6.363-4.61-10.4a52.88,52.88,0,0,1-4.238-20.841l1.095.055a51.775,51.775,0,0,0,4.155,20.359c1.7,4.019,3.3,7.54,4.6,10.368,2.345,5.137,3.9,8.531,3.934,10.338Z" transform="translate(29.576 7.74)" fill="#999"/>
    <path id="Trazado_111012" data-name="Trazado 111012" d="M504.93,6057.652a20.682,20.682,0,0,1-18.7-10.769l1-.458a19.584,19.584,0,0,0,17.711,10.13c.173,0,.346,0,.52-.005,6.327-.13,14.951-1.63,20.115-8.023.218-.27.882-1.092.84-1.4-.027-.2-.492-.531-1.03-.915-.247-.176-.474-.324-.728-.493-1.827-1.2-5.229-3.442-5.5-7.4l-.053-.769a145.559,145.559,0,0,1-.375-17.393l1.095.054a144.722,144.722,0,0,0,.375,17.265l.053.767c.231,3.415,3.221,5.382,5.007,6.558.269.178.508.333.7.473.9.639,1.449,1.033,1.54,1.7.089.648-.327,1.31-1.075,2.235-5.427,6.721-14.385,8.294-20.943,8.43C505.293,6057.649,505.111,6057.652,504.93,6057.652Z" transform="translate(32.699 4.277)" fill="#999"/>
    <path id="Trazado_111013" data-name="Trazado 111013" d="M523.49,6030.349c-4.687,0-6.537-2.469-6.628-2.595l.886-.646c.092.126,2.349,3.062,8.538,1.86,1.906-.427,4.863-1.3,5.425-1.909,1.068-1.15,3.761-1.11,4.065-1.1a.575.575,0,0,1,.287.09c.019.012,1.758,1.145,2.642.1,1.106-1.3,2.16-6.81,2.3-12.033a40.607,40.607,0,0,1,.875-8.2l1.063.272a40.487,40.487,0,0,0-.841,7.963c-.134,4.925-1.129,11.028-2.563,12.713-1.149,1.353-3,.759-3.942.191h-.021c-.978,0-2.541.195-3.063.758-.995,1.07-5.176,2.05-6,2.236A15.976,15.976,0,0,1,523.49,6030.349Z" transform="translate(35.664 2.898)" fill="#999"/>
    <path id="Trazado_111014" data-name="Trazado 111014" d="M537.854,6026.3s3.339-2.146,4.005-4.959.812-8.155.954-9.394a49.166,49.166,0,0,1,1.43-5.2v-.906l-3.862.524-.773,5.772-.862,9.44-.893,3.91Z" transform="translate(37.695 2.891)" fill="#999"/>
    <path id="Trazado_111015" data-name="Trazado 111015" d="M503.209,6053.835s-2.528-1.479-3.148-1.718-8.089-5.534-12.7-6.606a6.958,6.958,0,0,0,3.128,3.728c2.657,1.734,5.3,3.547,5.3,3.547l5.124,1.549h2.293Z" transform="translate(32.809 6.73)" fill="#999"/>
    <path id="Trazado_111016" data-name="Trazado 111016" d="M574.9,6223.465s5.722-1.955,5.913-12.779-.429-29.327-.429-29.327-3.434-25.7-4.387-36.644-2.289-28.114-2.289-28.114a128.039,128.039,0,0,1,2.575-16.213,42.469,42.469,0,0,0,.995-12.875l-.995-14.5s-1.336-8.2-4.864-11.826-13.066-8.394-13.066-8.394l-15.26-6.2s-8.965-2.115-11.254-4.395a13.617,13.617,0,0,0-8.073-3.711c-2.037,0-4.611,1.717-4.611,1.717l1.907,2.384s3.624-.668,4.863.286,3.339,5.721,13.734,7.725,20.219,7.63,20.219,7.63,7.63,6.008,8.679,14.591a138.077,138.077,0,0,0,3.052,16.213l-.1,14.4s-.859,24.892-.668,25.274-1.239,1.431-1.239,1.431,5.245,32.808,4.863,42.822.382,23.365.382,23.365L573.9,6209.4l.858,1.145S575.523,6222.082,574.9,6223.465Z" transform="translate(35.886 6.05)" fill="#999"/>
    <path id="Trazado_111017" data-name="Trazado 111017" d="M553.419,6268.62s5.246-3.434,6.2-7.725,0-16.5,0-16.5.1-3.529,1.621-4.864,4.96-4.673,4.864-7.153-.477-10.585.476-13.543,2.289-14.877,2.289-14.877l-.667-.857-6.581,26.132s.191,3.242-1.622,4.2-3.624,3.814-3.624,3.814a15.131,15.131,0,0,0-1.43,5.437c0,2.479-.382,16.5-.382,16.5Z" transform="translate(39.202 21.981)" fill="#999"/>
    <path id="Trazado_111018" data-name="Trazado 111018" d="M554.464,6213.636c-.026-.148-2.684-14.9-4.508-20.232-1.836-5.365-7.661-20.522-7.719-20.674l-5.11-8.55a.549.549,0,0,1-.077-.28v-4.22l2.438-16.39,2.788-21.948,1.088.14-2.79,21.958-2.434,16.32.007,3.989,5.073,8.5c.1.236,5.93,15.412,7.773,20.8,1.851,5.413,4.442,19.786,4.551,20.4Z" transform="translate(37.617 14.068)" fill="#999"/>
    <path id="Trazado_111019" data-name="Trazado 111019" d="M541.568,6142.137l-1.033-.368,4.15-11.659a25.153,25.153,0,0,0,1.755-10.025c-.211-5.632-2.028-19.953-2.045-20.1-.037-.375-.871-8.843-.915-11.6-.045-2.863.544-9.11,1.419-11.542l1.032.371c-.809,2.25-1.4,8.359-1.355,11.154.043,2.713.9,11.409.908,11.5.016.129,1.839,14.5,2.052,20.18a25.746,25.746,0,0,1-1.835,10.472Z" transform="translate(37.955 9.762)" fill="#999"/>
    <path id="Trazado_111020" data-name="Trazado 111020" d="M545.138,6096.575l-1.081-.18c.341-2.059,2.914-9.143,3.024-9.444.019-.065,2.847-9.233,5.681-16.884a40.036,40.036,0,0,0,1.972-15.775l1.09-.113a40.356,40.356,0,0,1-2.033,16.27c-2.822,7.621-5.643,16.759-5.672,16.852S545.464,6094.615,545.138,6096.575Z" transform="translate(38.296 7.569)" fill="#999"/>
    <path id="Trazado_111021" data-name="Trazado 111021" d="M569.219,6204.776c-.04-.015-3.93-1.533-6.464-2.4-2.426-.833-9.873.019-9.948.026l-.126-1.09c.316-.035,7.766-.887,10.43.027,2.557.876,6.468,2.4,6.506,2.417Z" transform="translate(39.13 21.769)" fill="#999"/>
    <path id="Trazado_111022" data-name="Trazado 111022" d="M536.216,6252.8a2.272,2.272,0,0,1-.7-.113c-.918-.289-1.043-2.012-.371-5.121l1.07.232c-.377,1.755-.509,3.578-.279,3.9.558.152,1.157-.117,3.5-1.618,2.316-1.484,16-14.119,16.137-14.247l4.262-3.594.707.839-4.245,3.578c-.547.5-13.874,12.812-16.271,14.348C538.115,6252.228,537.123,6252.8,536.216,6252.8Z" transform="translate(37.392 24.8)" fill="#999"/>
    <path id="Trazado_111023" data-name="Trazado 111023" d="M542.888,6258.861a1.783,1.783,0,0,1-1.369-.775c-1.191-1.179-.809-4.156-.761-4.49-.2-3.688,3.354-8.051,3.505-8.236l.847.7c-.034.043-3.438,4.22-3.262,7.587-.154,1.164-.146,3.086.509,3.742.063.074.331.42.567.375.29-.041.769-.559,1.247-1.89a28.026,28.026,0,0,1,4.486-7.467l7.453-8.122.808.741-7.441,8.106a27.542,27.542,0,0,0-4.274,7.111c-.589,1.643-1.29,2.5-2.14,2.607A1.352,1.352,0,0,1,542.888,6258.861Z" transform="translate(37.967 25.579)" fill="#999"/>
    <path id="Trazado_111024" data-name="Trazado 111024" d="M551.979,6259.884a4.873,4.873,0,0,1-3.22-1.589c-2.8-2.594-2.246-7.38-2.222-7.582l1.089.133c-.005.043-.5,4.435,1.878,6.644,1.641,1.518,2.639,1.362,3.048,1.182l-1.39-11.1,1.088-.137,1.431,11.432a.545.545,0,0,1-.156.456A2.254,2.254,0,0,1,551.979,6259.884Z" transform="translate(38.53 26.271)" fill="#999"/>
    <path id="Trazado_111025" data-name="Trazado 111025" d="M553.82,6256.57a3.215,3.215,0,0,1-1.531-.429l.572-.936-.286.468.284-.469a1.892,1.892,0,0,0,1.279.226,1.28,1.28,0,0,0,.761-.72l.979.495a2.335,2.335,0,0,1-1.447,1.281A2.231,2.231,0,0,1,553.82,6256.57Z" transform="translate(39.092 26.975)" fill="#999"/>
    <path id="Trazado_111026" data-name="Trazado 111026" d="M715.085,6195.918a.579.579,0,0,1-.1-.01.549.549,0,0,1-.44-.465h0s-.4-1.2-4.133-2.613c-4.119-1.557-12.162-.738-12.243-.73a.554.554,0,0,1-.54-.285l-.668-1.24L689.732,6175c-3.6-.2-10.56,3.458-10.631,3.5-.009.017-8.287,6.326-9.756,8.072-.635.751-.619,1-.618,1.005.047.033.353.191,1.818.191,2.058,0,6.89-2.035,6.939-2.056l.428,1.01c-.206.087-5.089,2.142-7.367,2.142-1.537,0-2.491-.138-2.819-.845s.245-1.522.778-2.156c1.548-1.837,9.661-8.022,10.007-8.284.387-.216,7.789-4.13,11.656-3.638a.554.554,0,0,1,.428.314l7.343,15.833.479.889c1.674-.146,8.488-.639,12.378.83a10.824,10.824,0,0,1,4.266,2.487l7.652-13.592a.553.553,0,0,1,.069-.1l.688-.763L720.36,6157.2c-.469-3.13-2.015-11.628-3.487-13.249-1.974-2.169-6.628-13.578-6.628-17.917,0-4.156.377-18.373.381-18.516.048-.365,4.329-30.429,4.453-36.43l1.1.023c-.125,6.067-4.282,35.259-4.458,36.5,0,.08-.375,14.283-.375,18.423,0,4.057,4.5,15.157,6.343,17.18,1.962,2.158,3.582,12.643,3.76,13.83l3.149,22.9a.555.555,0,0,1-.135.442l-.819.907-8.077,14.349A.55.55,0,0,1,715.085,6195.918Z" transform="translate(50.254 9.205)" fill="#999"/>
    <path id="Trazado_111027" data-name="Trazado 111027" d="M707.253,6204.481a36.684,36.684,0,0,1-18.8-9.313l.786-.765a36.29,36.29,0,0,0,18.2,9Z" transform="translate(52.27 21.139)" fill="#999"/>
    <rect id="Rect치ngulo_10477" data-name="Rect치ngulo 10477" width="1.096" height="17.65" transform="translate(725.295 6191.132) rotate(-31.973)" fill="#999"/>
    <path id="Trazado_111028" data-name="Trazado 111028" d="M669.882,6187.265l-13.751-27.085c-.07-.176-4.7-12.355-6.1-14.963a59.977,59.977,0,0,0-3.774-5.848c-.121-.191-2.372-3.88-.6-6.851,1.586-2.661,3.857-7.668,3.881-7.719l4.038-6.548a.653.653,0,0,1,.073-.094c14.7-15.118,36.592-38.925,36.659-42.545l1.1.021c-.1,5.2-32.957,39.162-36.927,43.247l-3.974,6.435c-.061.145-2.288,5.052-3.906,7.765-1.429,2.395.546,5.644.567,5.676A60.024,60.024,0,0,1,651,6144.7c1.431,2.672,5.941,14.534,6.133,15.038l13.727,27.032Z" transform="translate(48.063 9.643)" fill="#999"/>
    <path id="Trazado_111029" data-name="Trazado 111029" d="M676.119,6095.349l-.967-.516c.146-.274,14.682-27.484,19.78-35.05,5.179-7.687,21.039-13.689,21.713-13.942.2-.073,19.974-7.347,23.763-10.765l.735.813c-3.944,3.559-23.3,10.68-24.118,10.981-.157.06-16.2,6.13-21.182,13.526C690.775,6067.915,676.265,6095.077,676.119,6095.349Z" transform="translate(50.982 5.72)" fill="#999"/>
    <path id="Trazado_111030" data-name="Trazado 111030" d="M660.034,6163.579l-8.487-30.667,1.056-.293,8.487,30.667Z" transform="translate(48.698 15.159)" fill="#999"/>
    <path id="Trazado_111031" data-name="Trazado 111031" d="M680.628,6134.688a14.128,14.128,0,0,1-6.177-1.877c-.16-.115-2.812-2.117-9.148-7.789-5.731-5.133-10.622-3.435-11.267-3.176-.983.829-3.248,3.211-2.867,5.1.23,1.146,1.407,2.046,3.5,2.674,7.844,2.352,10.44-1.292,10.546-1.449l.912.608c-.123.185-3.1,4.495-11.773,1.891-2.512-.754-3.946-1.935-4.262-3.508-.6-2.971,3.148-6.083,3.308-6.214a.481.481,0,0,1,.124-.077c.238-.106,5.932-2.558,12.512,3.335,6.29,5.632,9,7.674,9.023,7.694h0c.008,0,3.993,2.316,6.869,1.531l.29,1.059A6.047,6.047,0,0,1,680.628,6134.688Z" transform="translate(48.551 13.965)" fill="#999"/>
    <path id="Trazado_111032" data-name="Trazado 111032" d="M709.178,6093.833c-.019-.062-1.951-6.59-5.256-22.17-3.347-15.777.394-21.722.555-21.968l.917.6-.458-.3.46.3c-.036.057-3.636,5.887-.4,21.14,3.291,15.526,5.214,22.021,5.234,22.084Z" transform="translate(53.632 7.135)" fill="#999"/>
    <path id="Trazado_111033" data-name="Trazado 111033" d="M732.089,6178.478l-1.1-.041c.186-5.122-9.595-52.132-9.693-52.607l1.074-.223C722.777,6127.549,732.28,6173.223,732.089,6178.478Z" transform="translate(55.448 14.481)" fill="#999"/>
    <path id="Trazado_111034" data-name="Trazado 111034" d="M775.408,6180.054h-1.1v-7.412c1.9-11.418,9.852-46.689,9.932-47.044l1.069.241c-.079.354-8.029,35.595-9.913,46.893Z" transform="translate(60.578 14.48)" fill="#999"/>
    <path id="Trazado_111035" data-name="Trazado 111035" d="M693.219,6167.835s1.145,2,0,2.36-1.859.931-2.932-1.18-7.368-16.2-7.368-16.2a73.925,73.925,0,0,1-2.575-8.871,58.418,58.418,0,0,0-1.859-7.151s-.048-2.5.835-3.434,4.672-7.224,5.388-10.014,4.434-9.728,9.727-11.66a55.335,55.335,0,0,0,10.515-5.507l4.435-1.86h.429l-.358,3.362s-13.519,5.865-17.524,9.442-4.316,6.581-4.316,6.581-3.195,7.08-5.985,9.871c0,0-1,3.934-.286,5.078s3.29,12.186,3.29,12.186l6.438,13.708Z" transform="translate(51.305 12.42)" fill="#999"/>
    <path id="Trazado_111036" data-name="Trazado 111036" d="M799.655,6111.515l-1.1-.03c0-.1.257-10.278-1.972-16.687-2.293-6.592-2.32-19.792-2.32-20.352h1.1c0,.135.026,13.574,2.259,19.992C799.919,6101.038,799.668,6111.09,799.655,6111.515Z" transform="translate(62.51 9.53)" fill="#999"/>
    <path id="Trazado_111037" data-name="Trazado 111037" d="M797.315,6091.965l-1.078-.208c.339-1.754.59-3.134.819-4.4.74-4.087,1.277-7.041,3.9-17.658,3.326-13.441.089-19.376.056-19.433l.952-.546c.145.251,3.5,6.312.057,20.243-2.619,10.583-3.152,13.522-3.889,17.59C797.905,6088.824,797.654,6090.207,797.315,6091.965Z" transform="translate(62.7 7.137)" fill="#999"/>
    <path id="Trazado_111038" data-name="Trazado 111038" d="M788.078,6178.266l-2.18-.236,1.2-11.015c.019-.463.653-13.191,7.5-32.157,6.679-18.5,5.233-30.266,5.217-30.382l2.175-.291c.066.5,1.551,12.359-5.329,31.419-6.731,18.654-7.369,31.451-7.374,31.578Z" transform="translate(61.7 12.408)" fill="#999"/>
    <path id="Trazado_111039" data-name="Trazado 111039" d="M806.346,6208.43c-.048-.182-5.04-18.34-9.323-26.131-2.915-5.307-3.821-8.349-4.1-9.828-4.326,3.2-15.479,4.853-35.678,5.32-18.5.416-37.886-6.233-38.08-6.3l.36-1.037c.193.068,19.46,6.678,37.694,6.241,13.242-.3,31.354-1.229,35.744-5.7a.549.549,0,0,1,.938.428c0,.019-.09,2.757,4.082,10.349,4.344,7.907,9.214,25.622,9.419,26.371Z" transform="translate(55.242 18.821)" fill="#999"/>
    <path id="Trazado_111040" data-name="Trazado 111040" d="M793.077,6189.42l-.249-1.07c.521-.12,12.719-2.98,15.517-2.875,2.82.078,3.623-.075,3.739-.7.2-1.066,3.419-11.124,5.305-14.151l-1.18-.615a2.635,2.635,0,0,1-1.058-2.262c-.1-1.47,4.182-9.863,5.5-12.4.417-.76,10.1-18.342,12.344-20.2l.7.846c-1.733,1.432-9.3,14.829-12.076,19.871-2.665,5.146-5.407,10.979-5.37,11.812.07,1.068.5,1.379.508,1.382l1.7.885a.545.545,0,0,1,.285.386.538.538,0,0,1-.128.462c-1.5,1.7-5.228,13-5.451,14.187-.321,1.709-2.413,1.656-4.846,1.592C805.727,6186.478,793.2,6189.39,793.077,6189.42Z" transform="translate(62.37 15.404)" fill="#999"/>
    <path id="Trazado_111041" data-name="Trazado 111041" d="M831.911,6136.258a10.83,10.83,0,0,1-3.491-.584c-5.659-1.92-8.669-14.491-8.669-15.875a4.814,4.814,0,0,0-2.035-3.258c-.815-.516-12.278-6.51-18.226-9.607l.506-.973c.705.366,17.251,8.982,18.31,9.656a5.817,5.817,0,0,1,2.542,4.182c0,1.106,2.932,13.14,7.926,14.835a10.109,10.109,0,0,0,8.924-1.341l9.364-6.786c1.064-.55,9.841-4.9,12.616-2.342,1.419,1.315,2.1,2.342,2.094,3.142a1.147,1.147,0,0,1-.065.371,2.756,2.756,0,0,1-.213,2.075,2.8,2.8,0,0,1-2.219,1.217c-.985.117-2.375.251-3.873.4-2.853.274-6.087.586-7.626.893l-.215-1.075c1.595-.319,4.857-.633,7.736-.909,1.488-.144,2.869-.276,3.848-.394a1.436,1.436,0,0,0,1.46-2.063.553.553,0,0,1,.069-.519c0-.115-.077-.787-1.741-2.327s-7.819.7-11.3,2.47l-9.274,6.728A11.151,11.151,0,0,1,831.911,6136.258Zm28.843-9.049Zm0,0h0Zm0,0h0Zm0,0h0Z" transform="translate(63.015 12.58)" fill="#999"/>
    <path id="Trazado_111042" data-name="Trazado 111042" d="M819.878,6119.233c-1.791-5.787-13.445-15.666-13.563-15.765l.706-.837c.489.412,12.018,10.188,13.9,16.28Z" transform="translate(63.676 12.257)" fill="#999"/>
    <path id="Trazado_111043" data-name="Trazado 111043" d="M755.749,6052.451c-20.15-.577-21.807-12.006-21.869-12.495l1.088-.137c.059.449,1.657,10.989,20.739,11.538.1-.015,16.794-1.844,17.948-8.322a.5.5,0,0,1,.049-.148,4.79,4.79,0,0,0,.521-2.337l1.083-.18a5.763,5.763,0,0,1-.588,2.932C773.318,6050.525,756.468,6052.375,755.749,6052.451Z" transform="translate(56.666 6.179)" fill="#999"/>
    <path id="Trazado_111044" data-name="Trazado 111044" d="M771.29,6043.819c-7.955-5.891-7.92-34.3-7.914-35.507l2.194.011c-.034,7.91,1.16,29.391,7.025,33.733Z" transform="translate(59.52 3.13)" fill="#999"/>
    <path id="Trazado_111045" data-name="Trazado 111045" d="M770.071,6021.016a4.138,4.138,0,0,1-2.754-1.283,2.414,2.414,0,0,0-1.172-.728l-1.555-.17.238-2.181,1.555.169a4.314,4.314,0,0,1,2.372,1.251c.567.49.926.793,1.368.747a21.428,21.428,0,0,0,5.433-1.609.96.96,0,0,1,.451-.09c.048,0,4.965.076,7.672-.018,1.78-.062,1.99-2.067,2-2.154a1.089,1.089,0,0,1,.23-.575l5.245-6.676,1.724,1.355-5.062,6.442a4.318,4.318,0,0,1-4.059,3.8c-2.453.085-6.53.036-7.55.022a22.6,22.6,0,0,1-5.982,1.695Z" transform="translate(59.638 3.071)" fill="#999"/>
    <path id="Trazado_111046" data-name="Trazado 111046" d="M817.2,6167.247l13.924,7.151,2.1-1.048s2.1-1.049,3.434,1.526.858,1.4.858,1.4,2.1-2.644-4.863-7.508-13.925-4.959-16.882-2.861Z" transform="translate(64.59 18.255)" fill="#999"/>
    <path id="Trazado_111047" data-name="Trazado 111047" d="M810.97,6247.335h-5.008l-3.79-24.893s15.235-4.434,18.239-11.158,12.227-23.141,14.306-23.94l2.289,1.864,6.437,3.051s9.585-14.592,12.16-25.036c0,0,5.293-13.017,5.723-19.169s2.145-5.362,2.145-5.362-1.144,4.79-1.144,5.362,6.581-6.151,6.151-8.3-5.149-16.88-11.015-22.03-15.736-15.593-15.736-15.593-11.445-10.3-13.877-16.881c0,0,6.247,9.012,7.916,9.012s-4.673-8.153-4.673-8.153L820.936,6067.7s-8.25-14.305-19.409-17.453-18.741-6.151-20.982-8.011-7.391-6.1-11.635-5.961l-1.13-2.05A18.623,18.623,0,0,1,780.5,6035.9c6.343,3.434,17.691,8.06,24.988,9.156s15.069,9.108,15.069,9.108l7.677,12.875s4.721,13.018,5.007,15.021c0,0-5.246-7.582-6.962-9.2,0,0-1.192-.381-.811.764s11.11,19.742,14.735,20.218,19.456,17.549,19.456,17.549,10.324,8.2,13.113,16.68,3.076,8.975,3.076,8.975,1.574,2.026,1.144,3.517a2.559,2.559,0,0,1-2.575,2.137c-1.215,0-2.431-.5-2.789.57s.5,3.075-.573,4.219-4.434,8.656-4.434,8.656-2.862,7.438-3.076,8.154-.786,6.509-2.432,9.013-4.435,10.657-4.435,10.657-3.933,10.157-6.938,13.519-5.651,6.509-8.011,7.153.358-3.076.358-3.076l1.716-2.861s.93-1.717-.071-2.36-5.436-2.432-5.579-2.791-1.979-.714-2.384.216-8.488,20.1-8.488,20.1a9.274,9.274,0,0,1-4.855,5.626c-3.8,1.669-13.814,5.532-13.814,5.532Z" transform="translate(59.947 5.594)" fill="#999"/>
  </g>
</svg>
