<svg xmlns="http://www.w3.org/2000/svg" width="524.195" height="394.436" viewBox="0 0 524.195 394.436">
  <g id="Grupo_56809" data-name="Grupo 56809" transform="translate(-503.506 -4864.695)">
    <rect id="Rectángulo_10456" data-name="Rectángulo 10456" width="524.195" height="394.435" rx="19.826" transform="translate(503.506 4864.696)" fill="#fff"/>
    <g id="Grupo_56793" data-name="Grupo 56793">
      <g id="Grupo_56786" data-name="Grupo 56786">
        <path id="Trazado_110694" data-name="Trazado 110694" d="M652.515,4905.2c0-5.42-3.284-9.815-7.337-9.815s-7.336,4.4-7.336,9.815c0,4.239,2.012,7.84,4.826,9.213v9.385h5.543v-9.668C650.748,4912.583,652.515,4909.17,652.515,4905.2Z" fill="#fff"/>
        <path id="Trazado_110695" data-name="Trazado 110695" d="M648.711,4924.3h-6.543v-9.581c-2.9-1.586-4.827-5.361-4.827-9.517,0-5.687,3.516-10.315,7.837-10.315s7.837,4.628,7.837,10.315c0,3.886-1.681,7.461-4.3,9.2Zm-5.543-1h4.543v-9.449l.241-.146c2.468-1.5,4.063-4.841,4.063-8.5,0-5.137-3.067-9.315-6.837-9.315s-6.837,4.178-6.837,9.315c0,3.915,1.827,7.437,4.546,8.764l.281.137Z" fill="#999"/>
      </g>
      <g id="Grupo_56787" data-name="Grupo 56787">
        <rect id="Rectángulo_10457" data-name="Rectángulo 10457" width="17.206" height="2.87" rx="1.435" transform="translate(636.87 4907.231)" fill="#fff"/>
        <path id="Trazado_110696" data-name="Trazado 110696" d="M652.641,4910.6H638.3a1.936,1.936,0,0,1,0-3.871h14.336a1.936,1.936,0,1,1,0,3.871ZM638.3,4907.73a.936.936,0,0,0,0,1.871h14.336a.936.936,0,1,0,0-1.871Z" fill="#999"/>
      </g>
      <g id="Grupo_56788" data-name="Grupo 56788">
        <rect id="Rectángulo_10458" data-name="Rectángulo 10458" width="17.206" height="2.87" rx="1.435" transform="translate(636.87 4901.752)" fill="#fff"/>
        <path id="Trazado_110697" data-name="Trazado 110697" d="M652.641,4905.122H638.3a1.935,1.935,0,1,1,0-3.869h14.336a1.935,1.935,0,1,1,0,3.869Zm-14.336-2.869a.935.935,0,1,0,0,1.869h14.336a.935.935,0,1,0,0-1.869Z" fill="#999"/>
      </g>
      <g id="Grupo_56789" data-name="Grupo 56789">
        <path id="Trazado_110698" data-name="Trazado 110698" d="M693.379,4988.681A40.185,40.185,0,0,0,689.7,4977.5l-7.043-2.782-26.783-12.174c-.609-2.348-.087-8.348-.087-8.348.87-5.913,5.218-16.261,5.218-16.261,1.391-3.739.434-6.087.434-6.087-9.565-12.956-23.913-11.391-26.521-11.391s-4.348,3.218-4.348,3.218l-10.522,23.651-39.83,32.87s-9.04,6.87-13.3,12.348-2,15.043-2,15.043l12.173,39.218,21.218,61.652-.957,6.956a98.759,98.759,0,0,0-5.912,11.558c-3.374,7.831-6.761,17.806-9.2,22.63-7.3,14.478-5.571,30.522-5.571,30.522v43.826c53.908,10.174,108.245,0,108.245,0s.37-54,0-60.782c-.3-5.53-5.643-18.8-6.369-25.14l-.414-2.079-4.435-16.2v-5.908s8.218-38.31,10.174-43.136,2.478-6,2.478-6a202.649,202.649,0,0,0,9.848-18.391c4.109-9,1.631-15.131,1.631-15.131l-3.261-16.3.83-8.775a20.694,20.694,0,0,0,.062-3.079l-.652-8.376a17.594,17.594,0,0,0-.287-1.954Z" fill="#fff"/>
        <path id="Trazado_110699" data-name="Trazado 110699" d="M628.543,5228.943a283.133,283.133,0,0,1-51.959-4.5l-.407-.077v-44.24c-.014-.108-1.662-16.305,5.625-30.747,1.35-2.676,3.02-7.012,4.787-11.6,1.428-3.706,2.905-7.539,4.4-11a101.09,101.09,0,0,1,5.89-11.531l.926-6.734-21.178-61.539-12.179-39.233c-.1-.433-2.275-9.9,2.083-15.5,4.252-5.468,13.021-12.157,13.392-12.439l39.724-32.782,10.474-23.544c.093-.177,1.931-3.515,4.8-3.515.193,0,.45-.009.765-.02,11.394-.379,20.188,3.524,26.159,11.615l.061.108c.042.1,1.013,2.572-.429,6.45-.051.122-4.341,10.377-5.19,16.158,0,.03-.473,5.54.022,7.922l26.559,12.073,7.186,2.837.087.157a40.271,40.271,0,0,1,3.726,11.306l1.14,4a17.728,17.728,0,0,1,.3,2.046l.652,8.382a21.421,21.421,0,0,1-.061,3.166l-.824,8.7,3.246,16.234c.078.169,2.484,6.344-1.665,15.435a205.845,205.845,0,0,1-9.876,18.444h0s-.55,1.259-2.442,5.927c-1.886,4.651-9.791,41.389-10.137,43v5.788l4.417,16.131.421,2.114c.352,3.056,1.791,7.772,3.181,12.333,1.563,5.121,3.037,9.958,3.2,12.878.368,6.719.005,60.272,0,60.812l0,.413-.405.075A344.559,344.559,0,0,1,628.543,5228.943Zm-51.366-5.407c50.629,9.456,102.166.888,107.247,0,.034-5.045.346-53.961,0-60.336-.153-2.8-1.678-7.8-3.154-12.64-1.4-4.6-2.856-9.364-3.212-12.471l-.407-2.038-4.444-16.294.01-6.012c.336-1.566,8.249-38.409,10.2-43.22,1.936-4.779,2.461-5.966,2.483-6.015a205.8,205.8,0,0,0,9.851-18.4c3.973-8.7,1.645-14.674,1.621-14.734l-3.3-16.466.838-8.848a20.364,20.364,0,0,0,.06-3l-.651-8.365a17.078,17.078,0,0,0-.278-1.891l-1.15-4.028a41.217,41.217,0,0,0-3.538-10.873l-6.873-2.714L655.455,4962.9l-.061-.23c-.623-2.4-.122-8.269-.1-8.517.873-5.937,5.076-15.986,5.254-16.411a8.8,8.8,0,0,0,.451-5.655c-8.688-11.711-21.177-11.283-25.278-11.151-.33.012-.6.021-.8.021-2.275,0-3.891,2.927-3.908,2.956l-10.552,23.724-.09.075-39.83,32.87c-.106.081-9.054,6.9-13.225,12.268-4.062,5.224-1.93,14.529-1.908,14.622l12.165,39.184,21.252,61.751-1.043,7.269a98.822,98.822,0,0,0-5.879,11.493c-1.484,3.443-2.956,7.266-4.38,10.964-1.777,4.615-3.456,8.973-4.828,11.694-7.155,14.181-5.538,30.083-5.521,30.242Z" fill="#999"/>
      </g>
      <path id="Trazado_110700" data-name="Trazado 110700" d="M581.314,5224.394c-.005-.295-.513-29.784.349-47.336.862-17.616,3.6-25.061,3.713-25.37l10.031-23.54,5.885-11.559v-5.634l-18.067-60.8-8.7-37.072c-.068-.661-1.375-14.723,2.119-22.323,3.464-7.534,10.516-16.364,10.587-16.451l.779.625c-.069.087-7.046,8.823-10.458,16.244-3.381,7.354-2.056,21.6-2.043,21.743l8.685,36.977,18.1,60.912v6.018l-5.98,11.742-10.009,23.49c-.019.053-2.788,7.618-3.642,25.045-.86,17.52-.352,46.975-.347,47.271Z" fill="#999"/>
      <path id="Trazado_110701" data-name="Trazado 110701" d="M597.27,5226.868h-1v-44.222c.037-.287,3.213-21.7,8.2-37.885,4.868-15.809,7.383-23.413,7.408-23.489a56.273,56.273,0,0,0,1.527-6.122c1.353-14.112-.671-23.784-2.3-31.555-.372-1.776-.723-3.452-1.021-5.1-3.078-16.994-5.678-52.835-6.789-68.14-1.169-16.111,6.485-33.712,6.562-33.888l10.046-22.05,16.178-34.051.9.43-16.174,34.043-10.039,22.036c-.074.168-7.629,17.549-6.477,33.408,1.109,15.289,3.708,51.093,6.775,68.034.3,1.636.645,3.306,1.016,5.075,1.641,7.837,3.683,17.592,2.315,31.856a55.262,55.262,0,0,1-1.57,6.328c-.029.088-2.54,7.685-7.406,23.482-4.96,16.109-8.125,37.45-8.156,37.663Z" fill="#999"/>
      <path id="Trazado_110702" data-name="Trazado 110702" d="M625.1,5228.447h-1v-49.974c.043-1.192,1.095-28.871,5.249-40.147l3.288-13.018a35.464,35.464,0,0,0,.66-4.188V5038.1c1.811-30.559,10.268-48.3,10.353-48.479,7.551-20.446,19.77-23.716,20.286-23.846l.243.97c-.121.031-12.238,3.314-19.61,23.267-.1.219-8.475,17.8-10.273,48.117v83.039a35.656,35.656,0,0,1-.69,4.384l-3.3,13.068c-4.113,11.176-5.192,39.584-5.2,39.87Z" fill="#999"/>
      <path id="Trazado_110703" data-name="Trazado 110703" d="M671.786,5225.948l-1-.041c1.455-35.231-4.039-87.787-4.1-88.313l-3.139-15.233.013-3.764,20.869-90.446.975.225-20.857,90.39v3.545l3.125,15.128C667.741,5138.016,673.243,5190.644,671.786,5225.948Z" fill="#999"/>
      <path id="Trazado_110704" data-name="Trazado 110704" d="M670.784,5225.943l-.75-.031.017-.432.75.032Zm.089-2.432-.75-.024q.031-.991.056-2l.75.018Q670.905,5222.517,670.873,5223.511Zm.1-4.007-.75-.014q.02-.995.031-2l.75.01Q670.99,5218.509,670.971,5219.5Zm.051-4.006-.75,0,.008-2,.75,0Zm-.744-4-.011-2,.75-.006.011,2Zm-.03-4-.03-2,.75-.012.03,2Zm-.067-4-.044-2,.75-.018.044,2Zm-.1-4.006-.059-2,.75-.023.059,2Zm-.125-4-.071-2,.75-.027.071,2Zm-.149-3.993-.083-1.994.75-.031.083,1.994Zm-.171-3.991-.095-2,.75-.037.095,2Zm-.2-4-.1-2,.748-.039.1,2Zm-.214-4-.114-2,.748-.044.114,2Zm-.232-3.994-.124-2,.748-.047.124,2Zm-.253-3.993-.132-2,.748-.051.132,2Zm-.268-3.994-.142-2,.748-.053.142,2Zm-.286-3.991-.149-2,.749-.057.148,2Zm-.3-3.989-.157-2,.748-.059.157,2Zm-.317-3.992-.165-1.994.748-.062.165,2Zm-.332-3.989-.173-1.994.748-.066.173,2Zm-.349-3.989-.181-1.994.746-.069.181,2Zm-.366-3.988-.19-2,.746-.073.19,2Zm-.384-3.991-.2-1.942.367-.1.373-.039-.373.039.379.018.2,1.946Zm-.6-3.921-.4-1.959.735-.153.4,1.959Zm-.808-3.917-.4-1.959.734-.153.4,1.959Zm-.81-3.918-.4-1.958.734-.153.4,1.958Zm-.809-3.917-.309-1.5-.008-.549h.75v.473l.3,1.419Zm.433-4.045h-.75v-1.179l.2-.884.73.168-.184.8Zm.625-3.844-.73-.168.449-1.948.731.168Zm.9-3.9-.731-.168.451-1.948.73.168Zm.9-3.9-.73-.168.45-1.949.73.168Zm.9-3.9-.731-.168.45-1.95.731.168Zm.9-3.9-.73-.168.45-1.949.73.168Zm.9-3.9-.73-.168.45-1.95.731.168Zm.9-3.9-.731-.168.451-1.949.73.168Zm.9-3.9-.73-.168.45-1.949.73.168Zm.9-3.9-.731-.168.45-1.948.731.168Zm.9-3.9-.73-.168.45-1.948.73.168Zm.9-3.9-.731-.168.45-1.949.731.168Zm.9-3.9-.731-.168.45-1.949.73.168Zm.9-3.9-.73-.168.449-1.949.731.168Zm.9-3.9-.731-.168.449-1.949.731.168Zm.9-3.9-.73-.167.449-1.95.73.168Zm.9-3.9-.731-.168.449-1.948.731.168Zm.9-3.9-.73-.168.449-1.949.73.168Zm.9-3.9-.73-.168.449-1.948.731.168Zm.9-3.9-.731-.168.45-1.95.73.168Zm.9-3.9-.73-.168.449-1.949.73.168Zm.9-3.9-.731-.168.449-1.949.731.168Zm.9-3.9-.73-.168.449-1.949.73.168Zm.9-3.9-.73-.168.449-1.949.731.168Z" fill="#999"/>
      <path id="Trazado_110705" data-name="Trazado 110705" d="M672.478,5225.943l-.75-.031.018-.432.75.032Zm.089-2.433-.75-.024q.031-.991.057-2l.75.018Q672.6,5222.516,672.567,5223.51Zm.1-4.006-.75-.014.031-2,.75.01Zm.05-4.006-.75,0,.008-2,.75,0Zm-.744-4-.011-2,.75-.006.011,2Zm-.03-4-.029-2,.75-.012.029,2Zm-.067-4-.043-2,.75-.018.043,2Zm-.094-4-.06-2,.75-.023.06,2Zm-.125-4-.072-2,.75-.027.072,2Zm-.15-3.992-.083-1.994.75-.031.083,1.994Zm-.172-3.991-.094-2,.75-.037.094,2Zm-.194-3.995-.1-2,.748-.039.1,2Zm-.214-4-.114-2,.748-.044.114,2Zm-.232-4-.124-2,.748-.047.124,2Zm-.253-3.992-.132-2,.748-.051.132,2Zm-.268-3.993-.141-2,.748-.053.141,2Zm-.286-3.991-.148-2,.748-.057.148,2Zm-.3-3.991-.157-2,.748-.059.157,2Zm-.318-3.992-.165-1.994.748-.062.165,2Zm-.332-3.988-.173-1.994.748-.066.173,2Zm-.349-3.989-.18-1.994.746-.069.18,2Zm-.366-3.988-.189-2,.746-.073.189,2Zm-.384-3.991-.2-1.942.367-.1.373-.039-.373.039.379.018.2,1.946Zm-.6-3.921-.4-1.959.734-.153.4,1.959Zm-.809-3.917-.405-1.959.734-.153.406,1.959Zm-.809-3.918-.4-1.958.735-.153.4,1.958Zm-.81-3.917-.309-1.5-.007-.549h.75v.473l.3,1.419Zm.434-4.045h-.75v-1.179l.194-.884.73.168-.184.8Zm.625-3.844-.731-.168.449-1.948.731.168Zm.9-3.9-.73-.168.45-1.948.73.168Zm.9-3.9-.731-.168.45-1.949.731.168Zm.9-3.9-.731-.168.451-1.95.73.168Zm.9-3.9-.73-.168.45-1.949.731.168Zm.9-3.9-.731-.168.45-1.95.731.168Zm.9-3.9-.73-.168.45-1.949.73.168Zm.9-3.9-.731-.168.45-1.949.731.168Zm.9-3.9-.73-.168.45-1.948.73.168Zm.9-3.9-.73-.168.45-1.948.731.168Zm.9-3.9-.731-.168.451-1.949.73.168Zm.9-3.9-.73-.168.449-1.949.73.168Zm.9-3.9-.731-.168.449-1.949.731.168Zm.9-3.9-.73-.168.449-1.949.73.168Zm.9-3.9-.73-.167.449-1.95.731.168Zm.9-3.9-.731-.168.45-1.948.73.168Zm.9-3.9-.73-.168.449-1.949.731.168Zm.9-3.9-.731-.168.449-1.948.731.168Zm.9-3.9-.73-.168.449-1.95.73.168Zm.9-3.9-.731-.168.449-1.949.731.168Zm.9-3.9-.73-.168.449-1.949.73.168Zm.9-3.9-.73-.168.449-1.949.731.168Zm.9-3.9-.731-.168.45-1.949.73.168Z" fill="#999"/>
      <path id="Trazado_110706" data-name="Trazado 110706" d="M605.018,5041.881l-4.591-3.414-2.227.578s-.945.27-.9-.6l1.986-3.506s.956-1.5,1.607-.09l.591,2.544,4.163,3.407.642,1.194Z" fill="#999"/>
      <path id="Trazado_110707" data-name="Trazado 110707" d="M611.851,5120.839l-2.986-4.88-2.281-.295s-.977-.1-.614-.893l3.151-2.511s1.446-1.033,1.525.515l-.4,2.581,2.59,4.715.151,1.347Z" fill="#999"/>
      <path id="Trazado_110708" data-name="Trazado 110708" d="M611.727,5120.821l-5.276,2.214-2.023-1.1s-.853-.488-1.021.366l1.088,3.879s.569,1.683,1.539.473l1.183-2.328,4.858-2.31.91-1Z" fill="#999"/>
      <ellipse id="Elipse_4431" data-name="Elipse 4431" cx="1.924" cy="3.523" rx="1.924" ry="3.523" transform="translate(684.922 5001.577)" fill="#999"/>
      <path id="Trazado_110709" data-name="Trazado 110709" d="M684.261,5028.775c-.076,0-.152,0-.228,0-3.017-.126-5.716-2.723-7.6-7.316a40.306,40.306,0,0,1-2.446-16.507c.538-12.938,5.681-22.913,11.76-22.913.077,0,.153,0,.23,0,3.017.126,5.717,2.724,7.6,7.316a44.486,44.486,0,0,1-1.361,32.756C690.012,5026.42,687.2,5028.775,684.261,5028.775Zm1.483-45.74c-5.449,0-10.254,9.762-10.76,21.954h0a39.294,39.294,0,0,0,2.371,16.086c1.729,4.211,4.115,6.589,6.719,6.7s5.178-2.061,7.252-6.115a43.521,43.521,0,0,0,1.326-31.921c-1.73-4.21-4.115-6.589-6.719-6.7C685.87,4983.036,685.806,4983.035,685.744,4983.035Z" fill="#999"/>
      <g id="Grupo_56790" data-name="Grupo 56790">
        <line id="Línea_272" data-name="Línea 272" x2="3.371" y2="0.625" transform="translate(621.367 4944.774)" fill="#fff"/>
        <path id="Trazado_110710" data-name="Trazado 110710" d="M624.739,4945.9a.585.585,0,0,1-.092-.008l-3.37-.625a.5.5,0,1,1,.182-.983l3.37.625a.5.5,0,0,1-.09.991Z" fill="#999"/>
      </g>
      <path id="Trazado_110711" data-name="Trazado 110711" d="M660.13,4939.273a24.332,24.332,0,0,0-10.1-9.5c-12.93-5.238-20.689-2.622-20.765-2.595l-.335-.943c.328-.116,8.157-2.784,21.487,2.615A24.891,24.891,0,0,1,661,4938.775Z" fill="#999"/>
      <path id="Trazado_110712" data-name="Trazado 110712" d="M638.678,5125.516q-1.128,0-2.224-.023l.019-1q2.412.049,4.977-.012l.025,1Q640.052,5125.517,638.678,5125.516Zm-7.244-.24c-1.682-.114-3.364-.27-5-.465l.117-.992c1.621.192,3.287.346,4.953.459Zm15.056-.022-.067-1c1.638-.109,3.307-.252,4.962-.427l.106.994C649.823,5125,648.14,5125.144,646.49,5125.254Zm9.979-1.051-.14-.99c1.606-.23,3.261-.5,4.919-.792l.175.984C659.755,5123.7,658.088,5123.972,656.469,5124.2Zm-35.01-.117c-1.671-.291-3.33-.63-4.926-1.006l.228-.973c1.578.371,3.217.705,4.87,1Zm44.886-1.648-.209-.978c1.6-.341,3.236-.716,4.859-1.114l.238.97C669.6,5121.718,667.956,5122.1,666.345,5122.438Zm-54.672-.665c-1.637-.5-3.24-1.048-4.761-1.636l.359-.934c1.5.58,3.079,1.122,4.693,1.613Zm-9.387-3.647a31.752,31.752,0,0,1-4.419-2.524l.59-.807a31.492,31.492,0,0,0,4.268,2.432Z" fill="#999"/>
      <path id="Trazado_110713" data-name="Trazado 110713" d="M643.521,4987.98l-2.183-5.288-2.206-.649s-.95-.255-.467-.978l3.506-1.986s1.59-.793,1.425.748l-.8,2.486,1.818,5.063-.062,1.354Z" fill="#999"/>
      <path id="Trazado_110714" data-name="Trazado 110714" d="M644.353,4989.305l-5.065,2.661-.443,2.257s-.167.969-.932.554l-2.3-3.308s-.936-1.51.614-1.488l2.549.569,4.874-2.276,1.354-.063Z" fill="#999"/>
      <path id="Trazado_110715" data-name="Trazado 110715" d="M623.333,4945.318l-2.205-5.279-2.21-.639s-.95-.251-.471-.977l3.5-2s1.586-.8,1.428.743l-.791,2.489,1.84,5.055-.056,1.355Z" fill="#999"/>
      <path id="Trazado_110716" data-name="Trazado 110716" d="M623.678,4946.743l-5.628-1.024-1.74,1.5s-.727.661-1.075-.136l.226-4.023s.192-1.766,1.4-.794l1.658,2.018,5.242,1.209,1.105.785Z" fill="#999"/>
      <path id="Trazado_110717" data-name="Trazado 110717" d="M605.942,4985.815l-5.629-1.024-1.739,1.506s-.728.661-1.076-.137l.226-4.023s.193-1.766,1.4-.794l1.658,2.018,5.242,1.209,1.105.785Z" fill="#999"/>
      <path id="Trazado_110718" data-name="Trazado 110718" d="M606.3,4984.662l-2.481-5.155-2.241-.522s-.962-.2-.521-.95l3.386-2.183s1.543-.882,1.466.666l-.658,2.528,2.1,4.951.015,1.355Z" fill="#999"/>
      <g id="Grupo_56791" data-name="Grupo 56791">
        <path id="Trazado_110719" data-name="Trazado 110719" d="M650.748,5123.861,647.737,5119l.766-2.169s.349-.919-.52-.951l-3.662,1.68s-1.574.825-.228,1.593l2.485.806,3.04,4.438,1.135.742Z" fill="#999"/>
        <path id="Trazado_110720" data-name="Trazado 110720" d="M650.748,5125.989l-3.011,4.865.766,2.169s.349.919-.52.951l-3.662-1.68s-1.574-.825-.228-1.593l2.485-.806,3.04-4.437,1.135-.743Z" fill="#999"/>
      </g>
      <path id="Trazado_110721" data-name="Trazado 110721" d="M707,4999.059s-31.631-3-38.935-3.681c-7.225-.673-32.25-3.384-32.5-3.411-17.115-2.5-29.215-4.019-29.335-4.033a.5.5,0,0,1-.433-.559.493.493,0,0,1,.558-.434c.12.015,12.228,1.538,29.336,4.034.233.025,25.252,2.736,32.468,3.407,7.306.68,38.936,3.68,38.936,3.68Z" fill="#4d4d4d" opacity="0.36"/>
      <path id="Trazado_110722" data-name="Trazado 110722" d="M647.152,5163.039l-.045,0a.5.5,0,0,1-.454-.542c.121-1.357,2.968-33.3,3.832-38.046l.516-5.436,2.085-45.8,3.74-64.619L659,4989.441c.108-.635,2.6-15,7.212-21.922a.5.5,0,1,1,.832.554c-4.5,6.743-7.029,21.363-7.053,21.509l-2.17,19.1-3.738,64.585L652,5119.083l-.523,5.5c-.862,4.747-3.8,37.664-3.826,38A.5.5,0,0,1,647.152,5163.039Z" fill="#4d4d4d" opacity="0.36"/>
      <path id="Trazado_110723" data-name="Trazado 110723" d="M616.65,5132.082a.534.534,0,0,1-.169-.029.5.5,0,0,1-.3-.64c.013-.036,1.276-3.552,1.613-5.15s1.458-14.936,1.469-15.071c0-.069.514-7.87.265-9.536-.261-1.735-.608-3.8-.608-3.8l-.334-7.991c.007-.148.677-9.119.762-11.515a41.6,41.6,0,0,0-.6-7.787c-.358-1.611-.026-10.449-.012-10.824l1.22-12.378,1.985-24.165s.448-8.684.535-10.248c.1-1.788,2.681-5.6,3.578-6.794.783-1.046,1.261-5.126,1.379-6.61l1.655-11.4c0-.03.526-4.914.958-7.738s3.818-7.543,4.23-8.109c.216-.516,1.766-4.136,3.225-5.509a11.112,11.112,0,0,0,2.165-4.226v-6.279c.009-.24.206-5.467.556-7.477a15.891,15.891,0,0,1,1.711-4.418.5.5,0,1,1,.865.5,15.225,15.225,0,0,0-1.591,4.09c-.339,1.943-.539,7.27-.541,7.324v6.329a.472.472,0,0,1-.017.13c-.035.134-.9,3.284-2.462,4.756-1.383,1.3-2.994,5.178-3.011,5.217a.427.427,0,0,1-.058.106c-.037.05-3.672,5.027-4.083,7.718-.429,2.8-.95,7.662-.954,7.711l-1.655,11.39c-.042.543-.474,5.633-1.572,7.1-1.321,1.76-3.309,4.962-3.38,6.249-.087,1.565-.536,10.259-.536,10.259l-1.986,24.19-1.218,12.355c-.1,2.492-.283,9.306-.01,10.539a42.158,42.158,0,0,1,.62,8.039c-.087,2.417-.757,11.406-.763,11.5l.328,7.869h0s.346,2.041.6,3.759c.266,1.772-.234,9.434-.256,9.76-.047.56-1.137,13.537-1.488,15.2s-1.6,5.135-1.649,5.282A.5.5,0,0,1,616.65,5132.082Zm3.262-34.331h0Z" fill="#4d4d4d" opacity="0.36"/>
      <g id="Grupo_56792" data-name="Grupo 56792" opacity="0.36">
        <path id="Trazado_110724" data-name="Trazado 110724" d="M642.368,4944.556s-.35-.265-.674-.5c-.6-.44-1.326-1.031-1.326-1.031s-1.087-1.408-2.174-.53a4.019,4.019,0,0,0-1.348,2.008l-1.956-.335a1.057,1.057,0,0,1-.5-.834c-.065-.614,0-2.244,0-2.244s.985-.978-.029-1.043a15.257,15.257,0,0,0-2.942.333l.3-2.29-2.348-.519-1.294,2.476-.728,1.108-1.253,2.159-6.768,14.08L606.4,4988.211a113.29,113.29,0,0,0-2.856,24.241c.134,11.913,2.744,30,2.744,30l3.151,33.782,4.617,21.888-.077,15.547s-1.435,8-2.131,9.305a37.155,37.155,0,0,0-1.7,5l-.435,1.565-.705,2.305,2.227.869,1.043-2.609,2.957,1.13,1.412.348-1.63,16.522s-.678,6-2.035,7.826a18.63,18.63,0,0,0-2.215,5.348s-.184,1.7.6,2.087,4.564.13,5.282-.652,4.864-1.957,5.791-1.565,4.71,1.434,4.71,1.434,4.3,3.522,7.174,3.131a46.772,46.772,0,0,0,6.782-1.7s5.609-.783,6.261,0,2.739.652,4.435.261,4.435-1.3,4.826-1.3,4.957.26,5.348.782,5.217,2.409,6,1.987,4.483-1.726,5.633-1.2,5.715,1.482,7.019.611,0-3.481,0-7.133-2.87-13.7-2.87-13.7-1.753-13.516.689-19.606,4.138-11.828,4.138-11.828a34.569,34.569,0,0,0,0-7.044,51.123,51.123,0,0,1,.173-9s1.045-9.13,2.979-11.087,5.717-12.782,5.717-12.782a40.036,40.036,0,0,0,1.435-7.305c.13-2.869,2.348-8.122,2.348-8.122l5.217-9.747s2.478-7.435,2.478-10.3v-18.13s-.13-8.223,2.87-13.959,5.739-11.867,5.739-11.867l4.957-6.391a6.824,6.824,0,0,0,0-4.566c-.913-2.217-3.261-2.019-4.566-1.531a9.216,9.216,0,0,1-3.782,0s-4.044-2.1-5.478-2.176-4.174.727-5.087,0-4.957-1.123-6-3.273a32.752,32.752,0,0,0-4.174-5.541s-2.479-2.573-4.826-2.265a11.175,11.175,0,0,1-3.653,0,14.61,14.61,0,0,1-4.565-1.431c-2.435-1.217-3.3-1.391-4.956-2.783s-2.348-2.695-3.218-2.869-3.019-.348-3.019-.348a5.723,5.723,0,0,1-1.329-2.87,9.577,9.577,0,0,0-.869-4.261,21.284,21.284,0,0,1-1.391-3.652s-.261-2.018-.348-4.183a10.861,10.861,0,0,0-.838-4.26,7.822,7.822,0,0,1-.727-2.774c-.087-1.044-.522-4.087-1.131-4.7s-.869-1.739-2.869-1.913-3.74.957-4,2.087a6.3,6.3,0,0,1-1.479,2.957c-.608.521-2.311,1.565-2.721,3.391a10.216,10.216,0,0,1-1.974,3.652Z" fill="#999"/>
        <path id="Trazado_110725" data-name="Trazado 110725" d="M667.663,5166.285c-1.692,0-5.67-1.674-6.086-2.229a26.017,26.017,0,0,0-4.948-.582c-.174.013-1.1.285-1.844.5-.95.278-2.026.593-2.869.789-.9.208-3.918.789-4.932-.428-.419-.312-3.348-.168-5.808.175a44.893,44.893,0,0,1-6.784,1.695c-2.859.387-6.83-2.66-7.474-3.172-.62-.172-3.8-1.059-4.671-1.428-.716-.311-4.621.778-5.229,1.443-.883.964-4.916,1.24-5.874.761-1.041-.521-.908-2.247-.871-2.587a18.819,18.819,0,0,1,2.311-5.593c1.046-1.409,1.754-5.952,1.939-7.584l1.587-16.084-.991-.244-2.557-.973-.86,2.151a.505.505,0,0,1-.646.281l-2.226-.869a.5.5,0,0,1-.3-.613l1.136-3.857a36.693,36.693,0,0,1,1.736-5.1c.484-.906,1.509-5.972,2.08-9.157l.069-15.408-4.606-21.835-3.159-33.839c-.024-.156-2.614-18.231-2.746-30.041a114.758,114.758,0,0,1,2.869-24.365l12.952-30.893,6.779-14.1,1.271-2.193.743-1.132,1.267-2.433a.5.5,0,0,1,.552-.257l2.349.52a.5.5,0,0,1,.387.552l-.21,1.61a11.545,11.545,0,0,1,2.391-.216.889.889,0,0,1,.878.535,1.291,1.291,0,0,1-.388,1.211c-.018.54-.041,1.569,0,1.988a.61.61,0,0,0,.195.411l1.43.245a4.663,4.663,0,0,1,1.367-1.832,1.692,1.692,0,0,1,1.269-.388,2.658,2.658,0,0,1,1.576.952c.157.128.755.61,1.265.981.139.1.284.209.4.3l.773-.487a9.589,9.589,0,0,0,1.82-3.38,6.159,6.159,0,0,1,2.552-3.4c.13-.1.243-.189.332-.265a5.9,5.9,0,0,0,1.316-2.69c.308-1.328,2.258-2.679,4.53-2.472a3.437,3.437,0,0,1,2.841,1.632,3.477,3.477,0,0,0,.34.425c.9.9,1.272,4.968,1.274,5.009a7.357,7.357,0,0,0,.679,2.595,11.5,11.5,0,0,1,.889,4.46c.085,2.117.341,4.119.344,4.139a20.128,20.128,0,0,0,1.317,3.448,10.2,10.2,0,0,1,.947,4.529,4.823,4.823,0,0,0,1.083,2.39c.573.05,2.131.191,2.863.338a3.856,3.856,0,0,1,1.833,1.4,16.9,16.9,0,0,0,1.609,1.58,11.891,11.891,0,0,0,3.169,1.91c.478.223,1.026.478,1.688.809a14.314,14.314,0,0,0,4.393,1.381,10.927,10.927,0,0,0,3.536,0c2.572-.329,5.143,2.3,5.252,2.414a32.682,32.682,0,0,1,4.264,5.669c.606,1.25,2.569,1.875,4,2.331a6.441,6.441,0,0,1,1.859.77c.423.336,1.817.163,2.835.038a12.762,12.762,0,0,1,1.967-.146c1.44.074,4.966,1.861,5.617,2.2a8.335,8.335,0,0,0,3.441.01c1.924-.719,4.279-.438,5.2,1.809a7.275,7.275,0,0,1,0,4.937.5.5,0,0,1-.07.125l-4.92,6.344c-.281.628-2.905,6.442-5.727,11.839-2.909,5.559-2.815,13.639-2.814,13.72V5037.5c0,2.918-2.4,10.156-2.5,10.463l-5.252,9.825c0,.01-2.164,5.162-2.289,7.908a39.866,39.866,0,0,1-1.454,7.423c-.163.471-3.851,10.981-5.841,12.993-1.486,1.5-2.552,8.3-2.838,10.792a51.084,51.084,0,0,0-.172,8.9,34.84,34.84,0,0,1,0,7.156c-.034.135-1.748,5.909-4.17,11.951-2.366,5.9-.674,19.221-.657,19.355.1.34,2.874,10.081,2.874,13.761a23.106,23.106,0,0,0,.351,3.638c.276,1.786.494,3.2-.573,3.909-1.576,1.055-6.473-.1-7.5-.571-.863-.394-4.341.732-5.189,1.19A1.2,1.2,0,0,1,667.663,5166.285Zm-11.034-3.811c.05,0,5.123.15,5.747.982.519.509,4.714,2.041,5.384,1.838.551-.3,4.582-1.882,6.056-1.21,1.185.537,5.5,1.341,6.535.649.513-.341.394-1.285.141-2.924a24.28,24.28,0,0,1-.363-3.791c0-3.541-2.822-13.459-2.85-13.559-.088-.631-1.758-13.79.705-19.93,2.4-5.985,4.1-11.707,4.122-11.784h0a35.652,35.652,0,0,0-.019-6.855,51.12,51.12,0,0,1,.175-9.1c.11-.952,1.123-9.36,3.121-11.382,1.522-1.539,4.559-9.614,5.6-12.595a39.873,39.873,0,0,0,1.407-7.163c.132-2.924,2.294-8.076,2.386-8.294l5.238-9.789h0c-.008,0,2.418-7.312,2.418-10.068v-18.13c-.005-.333-.1-8.409,2.927-14.191,2.958-5.656,5.7-11.778,5.726-11.839a.572.572,0,0,1,.061-.1l4.907-6.328a6.307,6.307,0,0,0-.017-4.132c-.946-2.291-3.626-1.368-3.929-1.253a9.594,9.594,0,0,1-4.054.022.45.45,0,0,1-.134-.047c-1.1-.57-4.186-2.063-5.273-2.12a11.824,11.824,0,0,0-1.791.141c-1.391.171-2.829.35-3.582-.248a6.782,6.782,0,0,0-1.539-.6c-1.606-.511-3.8-1.211-4.6-2.847a32.5,32.5,0,0,0-4.091-5.421c-.015-.015-2.338-2.384-4.393-2.107a11.655,11.655,0,0,1-3.833-.01h0a14.859,14.859,0,0,1-4.674-1.47c-.652-.326-1.191-.577-1.663-.8a12.891,12.891,0,0,1-3.392-2.051,18.638,18.638,0,0,1-1.7-1.667c-.529-.573-.947-1.026-1.294-1.095-.831-.166-2.941-.338-2.962-.34a.5.5,0,0,1-.341-.175,6.144,6.144,0,0,1-1.447-3.193,9.173,9.173,0,0,0-.791-3.992,21.344,21.344,0,0,1-1.45-3.781c-.018-.1-.28-2.14-.367-4.3a10.323,10.323,0,0,0-.787-4.061,8.345,8.345,0,0,1-.777-2.952c-.124-1.493-.592-3.992-.985-4.385a4.312,4.312,0,0,1-.442-.545,2.463,2.463,0,0,0-2.118-1.223c-1.844-.161-3.285.9-3.469,1.7a6.76,6.76,0,0,1-1.641,3.225c-.1.085-.226.182-.37.295a5.321,5.321,0,0,0-2.188,2.826,10.6,10.6,0,0,1-2.083,3.867.536.536,0,0,1-.113.1l-1.131.712a.5.5,0,0,1-.568-.024s-.347-.262-.667-.5c-.612-.447-1.348-1.049-1.348-1.049a.51.51,0,0,1-.079-.081,1.721,1.721,0,0,0-.944-.619.656.656,0,0,0-.52.173,3.568,3.568,0,0,0-1.175,1.734.509.509,0,0,1-.571.378l-1.956-.335a.484.484,0,0,1-.141-.047,1.54,1.54,0,0,1-.772-1.226c-.068-.643-.005-2.25,0-2.319a.511.511,0,0,1,.147-.333,2,2,0,0,0,.167-.2,19.564,19.564,0,0,0-2.684.329.482.482,0,0,1-.441-.123.5.5,0,0,1-.157-.431l.24-1.836-1.529-.337-1.115,2.136-.754,1.152-1.238,2.134-6.751,14.047L606.859,4988.4a114.314,114.314,0,0,0-2.816,24.042c.131,11.743,2.712,29.754,2.739,29.935l3.153,33.806,4.608,21.832a.54.54,0,0,1,.011.106l-.077,15.547c-.156.912-1.476,8.2-2.189,9.537a36.839,36.839,0,0,0-1.655,4.9l-.435,1.569-.573,1.874,1.333.519.859-2.147a.5.5,0,0,1,.642-.281l2.958,1.13,1.352.329a.5.5,0,0,1,.379.534l-1.63,16.522c-.029.258-.711,6.163-2.132,8.074a18.312,18.312,0,0,0-2.131,5.169c-.046.489.036,1.372.336,1.522.679.337,4.171.021,4.691-.543.815-.891,5.2-2.169,6.353-1.689.887.375,4.612,1.4,4.649,1.414a.486.486,0,0,1,.183.095c.042.034,4.162,3.373,6.79,3.023a46.416,46.416,0,0,0,6.692-1.675c2.285-.328,6.08-.715,6.8.155.4.485,2.061.524,3.939.093.815-.189,1.877-.5,2.812-.773A11.9,11.9,0,0,1,656.629,5162.474Z" fill="#4d4d4d"/>
      </g>
      <path id="Trazado_110726" data-name="Trazado 110726" d="M637.835,4952.64c-1.152-.766-2.591-1.609-4.277-2.505l.469-.883c1.715.912,3.182,1.771,4.361,2.554Zm-8.736-4.733c-2.559-1.21-4.535-2.038-4.555-2.047l.387-.922c.02.008,2.014.845,4.6,2.065Z" fill="#999"/>
      <rect id="Rectángulo_10459" data-name="Rectángulo 10459" width="1" height="17.414" transform="translate(640.594 4954.187) rotate(-59.683)" fill="#999"/>
    </g>
    <g id="Grupo_56808" data-name="Grupo 56808">
      <g id="Grupo_56795" data-name="Grupo 56795">
        <path id="Trazado_110727" data-name="Trazado 110727" d="M909.913,5200.855a.5.5,0,0,1-.5-.5v-6.943a.5.5,0,0,1,1,0v6.943A.5.5,0,0,1,909.913,5200.855Z" fill="#4d4d4d"/>
        <g id="Grupo_56794" data-name="Grupo 56794">
          <path id="Trazado_110728" data-name="Trazado 110728" d="M913.616,5196.22l-3.7-1.573-3.7,1.573,3.7-8.778Z" fill="#4d4d4d"/>
        </g>
      </g>
      <g id="Grupo_56796" data-name="Grupo 56796">
        <path id="Trazado_110729" data-name="Trazado 110729" d="M919.88,4905.2c0-5.42-3.284-9.815-7.336-9.815s-7.337,4.4-7.337,9.815c0,4.239,2.012,7.84,4.826,9.213v9.385h5.543v-9.668C918.113,4912.583,919.88,4909.17,919.88,4905.2Z" fill="#fff"/>
        <path id="Trazado_110730" data-name="Trazado 110730" d="M916.077,4924.3h-6.544v-9.581c-2.9-1.586-4.826-5.361-4.826-9.517,0-5.687,3.515-10.315,7.836-10.315s7.837,4.628,7.837,10.315c0,3.886-1.68,7.461-4.3,9.2Zm-5.544-1h4.544v-9.449l.24-.146c2.469-1.5,4.063-4.841,4.063-8.5,0-5.137-3.067-9.315-6.837-9.315s-6.836,4.178-6.836,9.315c0,3.915,1.827,7.437,4.545,8.764l.281.137Z" fill="#999"/>
      </g>
      <g id="Grupo_56797" data-name="Grupo 56797">
        <rect id="Rectángulo_10460" data-name="Rectángulo 10460" width="17.206" height="2.87" rx="1.435" transform="translate(904.235 4907.231)" fill="#fff"/>
        <path id="Trazado_110731" data-name="Trazado 110731" d="M920.006,4910.6H905.669a1.936,1.936,0,0,1,0-3.871h14.337a1.936,1.936,0,0,1,0,3.871Zm-14.337-2.871a.936.936,0,0,0,0,1.871h14.337a.936.936,0,0,0,0-1.871Z" fill="#999"/>
      </g>
      <g id="Grupo_56798" data-name="Grupo 56798">
        <rect id="Rectángulo_10461" data-name="Rectángulo 10461" width="17.206" height="2.87" rx="1.435" transform="translate(904.235 4901.752)" fill="#fff"/>
        <path id="Trazado_110732" data-name="Trazado 110732" d="M920.006,4905.122H905.669a1.935,1.935,0,0,1,0-3.869h14.337a1.935,1.935,0,1,1,0,3.869Zm-14.337-2.869a.935.935,0,0,0,0,1.869h14.337a.935.935,0,1,0,0-1.869Z" fill="#999"/>
      </g>
      <g id="Grupo_56799" data-name="Grupo 56799">
        <path id="Trazado_110733" data-name="Trazado 110733" d="M960.744,4988.681a40.182,40.182,0,0,0-3.675-11.179l-7.043-2.782-26.783-12.174c-.609-2.348-.087-8.348-.087-8.348.87-5.913,5.218-16.261,5.218-16.261,1.391-3.739.434-6.087.434-6.087-9.565-12.956-23.913-11.391-26.521-11.391s-4.348,3.218-4.348,3.218l-10.522,23.651-39.83,32.87s-9.04,6.87-13.3,12.348-2,15.043-2,15.043l12.174,39.218,21.217,61.652-.957,6.956a98.753,98.753,0,0,0-5.912,11.558c-3.374,7.831-6.761,17.806-9.2,22.63-7.3,14.478-5.57,30.522-5.57,30.522v43.826c53.907,10.174,108.244,0,108.244,0s.37-54,0-60.782c-.3-5.53-5.643-18.8-6.369-25.14l-.414-2.079-4.435-16.2v-5.908s8.218-38.31,10.174-43.136,2.478-6,2.478-6a202.357,202.357,0,0,0,9.848-18.391c4.109-9,1.631-15.131,1.631-15.131l-3.261-16.3.831-8.775a20.818,20.818,0,0,0,.061-3.079l-.652-8.376a17.368,17.368,0,0,0-.287-1.954Z" fill="#fff"/>
        <path id="Trazado_110734" data-name="Trazado 110734" d="M895.909,5228.943a283.118,283.118,0,0,1-51.959-4.5l-.407-.077v-44.24c-.015-.108-1.663-16.305,5.625-30.747,1.349-2.676,3.019-7.012,4.787-11.6,1.427-3.706,2.9-7.539,4.395-11a101.277,101.277,0,0,1,5.89-11.531l.927-6.734-21.179-61.539-12.179-39.233c-.1-.433-2.274-9.9,2.083-15.5,4.252-5.468,13.022-12.157,13.393-12.439l39.723-32.782,10.474-23.544c.094-.177,1.932-3.515,4.8-3.515.192,0,.449-.009.764-.02,11.4-.379,20.188,3.524,26.159,11.615l.061.108c.042.1,1.014,2.572-.429,6.45-.05.122-4.341,10.377-5.19,16.158,0,.03-.473,5.54.022,7.922l26.559,12.073,7.186,2.837.087.157a40.269,40.269,0,0,1,3.726,11.306l1.141,4a17.709,17.709,0,0,1,.3,2.046l.653,8.382a21.148,21.148,0,0,1-.063,3.167l-.823,8.7,3.246,16.234c.078.169,2.484,6.344-1.666,15.435a205.388,205.388,0,0,1-9.875,18.444h0s-.55,1.259-2.443,5.927c-1.885,4.651-9.79,41.389-10.137,43v5.788l4.418,16.131.422,2.114c.351,3.056,1.79,7.772,3.18,12.333,1.563,5.121,3.037,9.958,3.2,12.878.367,6.719.005,60.272,0,60.812l0,.413-.406.075A344.537,344.537,0,0,1,895.909,5228.943Zm-51.366-5.407c50.629,9.456,102.165.888,107.247,0,.033-5.045.345-53.961,0-60.336-.154-2.8-1.679-7.8-3.155-12.64-1.4-4.6-2.856-9.364-3.212-12.471l-.407-2.038-4.445-16.294.011-6.012c.336-1.566,8.25-38.409,10.2-43.22,1.937-4.779,2.463-5.966,2.484-6.015a205.633,205.633,0,0,0,9.85-18.4c3.961-8.673,1.645-14.675,1.622-14.735l-3.3-16.465.837-8.848a20.353,20.353,0,0,0,.062-3l-.652-8.365a16.851,16.851,0,0,0-.278-1.891l-1.15-4.028a41.179,41.179,0,0,0-3.538-10.873l-6.873-2.714L922.82,4962.9l-.061-.23c-.623-2.4-.122-8.269-.1-8.517.872-5.937,5.075-15.986,5.254-16.411a8.8,8.8,0,0,0,.45-5.655c-8.688-11.711-21.174-11.283-25.278-11.151-.33.012-.6.021-.8.021-2.276,0-3.892,2.927-3.909,2.956l-10.551,23.724-.091.075-39.83,32.87c-.106.081-9.054,6.9-13.225,12.268-4.061,5.224-1.93,14.529-1.908,14.622l12.165,39.184,21.252,61.751-1.043,7.269a98.833,98.833,0,0,0-5.879,11.493c-1.483,3.443-2.956,7.266-4.38,10.964-1.777,4.615-3.456,8.973-4.828,11.694-7.155,14.181-5.538,30.083-5.52,30.242Z" fill="#999"/>
      </g>
      <path id="Trazado_110735" data-name="Trazado 110735" d="M848.679,5224.394c-.005-.295-.512-29.784.349-47.336.862-17.616,3.6-25.061,3.713-25.37l10.031-23.54,5.884-11.559v-5.634l-18.067-60.8-8.7-37.072c-.068-.661-1.376-14.723,2.119-22.323,3.464-7.534,10.515-16.364,10.586-16.451l.78.625c-.07.087-7.045,8.823-10.457,16.244-3.383,7.357-2.057,21.6-2.043,21.743l8.683,36.977,18.1,60.912v6.018l-5.979,11.742-10.009,23.49c-.019.053-2.788,7.618-3.642,25.045-.859,17.52-.352,46.975-.347,47.271Z" fill="#999"/>
      <path id="Trazado_110736" data-name="Trazado 110736" d="M864.635,5226.868h-1v-44.222c.037-.287,3.213-21.7,8.2-37.885,4.867-15.809,7.382-23.413,7.407-23.489a55.8,55.8,0,0,0,1.527-6.122c1.354-14.112-.671-23.784-2.3-31.555-.372-1.776-.722-3.452-1.021-5.1-3.073-16.974-5.678-52.829-6.79-68.14-1.169-16.111,6.486-33.712,6.563-33.888l10.046-22.05,16.178-34.051.9.43-16.174,34.043-10.039,22.036c-.074.168-7.63,17.549-6.478,33.408,1.11,15.3,3.712,51.112,6.776,68.034.3,1.636.646,3.306,1.016,5.075,1.641,7.837,3.683,17.592,2.315,31.856a55.051,55.051,0,0,1-1.57,6.328c-.028.088-2.541,7.685-7.405,23.482-4.96,16.109-8.125,37.45-8.157,37.663Z" fill="#999"/>
      <path id="Trazado_110737" data-name="Trazado 110737" d="M892.461,5228.447h-1v-49.974c.043-1.192,1.094-28.871,5.249-40.147L900,5125.308a35.858,35.858,0,0,0,.659-4.187l0-83.02c1.811-30.559,10.269-48.3,10.354-48.479,7.551-20.446,19.77-23.716,20.286-23.846l.244.97c-.122.031-12.239,3.314-19.611,23.267-.1.219-8.475,17.8-10.274,48.117v83.039a35.611,35.611,0,0,1-.689,4.384l-3.3,13.068c-4.116,11.178-5.193,39.584-5.2,39.87Z" fill="#999"/>
      <path id="Trazado_110738" data-name="Trazado 110738" d="M939.151,5225.948l-1-.041c1.455-35.231-4.04-87.787-4.1-88.313l-3.137-15.233.012-3.764,20.869-90.446.975.225-20.856,90.39v3.545l3.124,15.128C935.1,5138.016,940.608,5190.644,939.151,5225.948Z" fill="#999"/>
      <path id="Trazado_110739" data-name="Trazado 110739" d="M938.149,5225.943l-.75-.031.018-.432.75.032Zm.089-2.432-.75-.024q.031-.991.056-2l.75.018Q938.27,5222.517,938.238,5223.511Zm.1-4.007-.75-.014q.02-.995.032-2l.75.01Q938.355,5218.509,938.336,5219.5Zm.051-4.006-.75,0,.008-2,.75,0Zm-.744-4-.011-2,.75-.006.011,2Zm-.03-4-.029-2,.75-.012.029,2Zm-.067-4-.044-2,.75-.018.044,2Zm-.094-4.006-.06-2,.75-.023.06,2Zm-.125-4-.072-2,.75-.027.072,2Zm-.15-3.993-.083-1.994.75-.031.083,1.994Zm-.171-3.991-.094-2,.75-.037.094,2Zm-.2-4-.1-2,.748-.039.1,2Zm-.214-4-.114-2,.748-.044.114,2Zm-.232-3.994-.124-2,.748-.047.124,2Zm-.253-3.993-.132-2,.748-.051.132,2Zm-.268-3.994-.141-2,.748-.053.141,2Zm-.286-3.991-.148-2,.748-.057.148,2Zm-.3-3.989-.157-2,.748-.059.157,2Zm-.317-3.992-.165-1.994.748-.062.165,2Zm-.332-3.989-.173-1.994.748-.066.173,2Zm-.349-3.989-.18-1.994.746-.069.18,2Zm-.366-3.988-.189-2,.746-.073.189,2Zm-.384-3.991-.2-1.942.367-.1.373-.039-.373.039.379.018.2,1.946Zm-.6-3.921-.4-1.959.735-.153.4,1.959Zm-.809-3.917-.4-1.959.734-.153.4,1.959Zm-.809-3.918-.405-1.958.735-.153.4,1.958Zm-.81-3.917-.309-1.5-.007-.549h.75v.473l.3,1.419Zm.434-4.045h-.75v-1.179l.194-.884.73.168-.184.8Zm.625-3.844-.731-.168.449-1.948.731.168Zm.9-3.9-.73-.168.45-1.948.73.168Zm.9-3.9-.73-.168.45-1.949.731.168Zm.9-3.9-.731-.168.451-1.95.73.168Zm.9-3.9-.73-.168.45-1.949.73.168Zm.9-3.9-.731-.168.45-1.95.731.168Zm.9-3.9-.73-.168.45-1.949.73.168Zm.9-3.9-.73-.168.45-1.949.731.168Zm.9-3.9-.731-.168.451-1.948.73.168Zm.9-3.9-.73-.168.45-1.948.731.168Zm.9-3.9-.731-.168.45-1.949.731.168Zm.9-3.9-.73-.168.449-1.949.73.168Zm.9-3.9-.731-.168.449-1.949.731.168Zm.9-3.9-.73-.168.449-1.949.73.168Zm.9-3.9-.73-.167.449-1.95.731.168Zm.9-3.9-.731-.168.45-1.948.73.168Zm.9-3.9-.73-.168.449-1.949.73.168Zm.9-3.9-.731-.168.449-1.948.731.168Zm.9-3.9-.73-.168.449-1.95.73.168Zm.9-3.9-.73-.168.449-1.949.731.168Zm.9-3.9-.731-.168.45-1.949.73.168Zm.9-3.9-.73-.168.449-1.949.731.168Zm.9-3.9-.731-.168.449-1.949.731.168Z" fill="#999"/>
      <path id="Trazado_110740" data-name="Trazado 110740" d="M939.843,5225.943l-.75-.031.018-.432.75.032Zm.089-2.432-.75-.024q.033-.991.057-2l.75.018Q939.963,5222.517,939.932,5223.511Zm.1-4.007-.75-.014.031-2,.75.01Zm.051-4.006-.75,0,.007-2,.75,0Zm-.745-4-.01-2,.75-.006.01,2Zm-.03-4-.029-2,.75-.012.029,2Zm-.066-4-.044-2,.75-.018.044,2Zm-.1-4.006-.06-2,.75-.023.06,2Zm-.125-4-.071-2,.75-.027.071,2Zm-.149-3.992-.083-1.994.75-.031.083,1.994Zm-.172-3.992-.095-2,.75-.037.095,2Zm-.2-4-.1-2,.748-.039.1,2Zm-.213-4-.115-2,.748-.044.115,2Zm-.233-4-.124-2,.748-.047.124,2Zm-.253-3.992-.132-2,.748-.051.132,2Zm-.267-3.993-.142-2,.748-.053.142,2Zm-.287-3.992-.148-2,.748-.057.148,2Zm-.3-3.99-.158-2,.748-.059.158,2Zm-.319-3.992-.165-1.994.748-.062.165,2Zm-.332-3.987-.173-1.994.748-.066.173,2Zm-.348-3.99-.181-1.994.746-.069.181,2Zm-.367-3.988-.189-2,.746-.073.19,2Zm-.384-3.99-.2-1.919.365-.12.373-.038-.373.038.381.043.195,1.922Zm-.6-3.922-.4-1.959.734-.153.4,1.959Zm-.809-3.917-.405-1.959.735-.153.4,1.959Zm-.809-3.918-.4-1.958.734-.153.4,1.958Zm-.81-3.917-.308-1.5-.008-.548h.75v.472l.3,1.419Zm.434-4.044h-.75v-1.18l.194-.884.731.168-.185.8Zm.624-3.845-.731-.168.451-1.948.73.168Zm.9-3.9-.73-.168.45-1.948.731.168Zm.9-3.9-.731-.168.45-1.948.731.168Zm.9-3.9-.73-.168.45-1.949.73.168Zm.9-3.9-.731-.168.45-1.949.731.168Zm.9-3.9-.73-.168.449-1.95.73.168Zm.9-3.9-.73-.168.449-1.949.731.168Zm.9-3.9-.731-.168.45-1.95.73.168Zm.9-3.9-.73-.168.449-1.948.73.168Zm.9-3.9-.731-.168.449-1.948.731.168Zm.9-3.9-.73-.168.449-1.948.73.168Zm.9-3.9L942.4,5073l.45-1.949.731.168Zm.9-3.9-.731-.168.451-1.949.73.168Zm.9-3.9-.73-.168.45-1.949.731.168Zm.9-3.9-.731-.167.45-1.95.731.168Zm.9-3.9-.73-.168.45-1.948.73.168Zm.9-3.9-.731-.168.45-1.949.731.168Zm.9-3.9-.73-.168.449-1.948.73.168Zm.9-3.9-.73-.168.449-1.949.731.168Zm.9-3.9-.731-.168.45-1.949.73.168Zm.9-3.9-.73-.168.449-1.949.73.168Zm.9-3.9-.731-.168.449-1.949.731.168Zm.9-3.9-.73-.168.449-1.949.73.168Z" fill="#999"/>
      <path id="Trazado_110741" data-name="Trazado 110741" d="M872.383,5041.881l-4.591-3.414-2.227.578s-.945.27-.9-.6l1.986-3.506s.956-1.5,1.607-.09l.591,2.544,4.163,3.407.643,1.194Z" fill="#999"/>
      <path id="Trazado_110742" data-name="Trazado 110742" d="M879.216,5120.839l-2.985-4.88-2.282-.295s-.977-.1-.614-.893l3.151-2.511s1.446-1.033,1.525.515l-.4,2.581,2.59,4.715.15,1.347Z" fill="#999"/>
      <path id="Trazado_110743" data-name="Trazado 110743" d="M879.092,5120.821l-5.276,2.214-2.023-1.1s-.853-.488-1.02.366l1.087,3.879s.569,1.683,1.539.473l1.183-2.328,4.858-2.31.91-1Z" fill="#999"/>
      <ellipse id="Elipse_4432" data-name="Elipse 4432" cx="1.924" cy="3.523" rx="1.924" ry="3.523" transform="translate(952.287 5001.577)" fill="#999"/>
      <path id="Trazado_110744" data-name="Trazado 110744" d="M951.626,5028.775c-.076,0-.152,0-.228,0-3.017-.126-5.716-2.723-7.6-7.316a40.306,40.306,0,0,1-2.446-16.507c.538-12.938,5.681-22.913,11.76-22.913.077,0,.153,0,.23,0,3.017.126,5.717,2.724,7.6,7.316a44.486,44.486,0,0,1-1.361,32.756C957.377,5026.42,954.561,5028.775,951.626,5028.775Zm1.483-45.74c-5.448,0-10.254,9.762-10.76,21.954h0a39.294,39.294,0,0,0,2.371,16.086c1.73,4.211,4.115,6.589,6.719,6.7s5.179-2.061,7.252-6.115a43.522,43.522,0,0,0,1.326-31.921c-1.729-4.21-4.115-6.589-6.719-6.7C953.235,4983.036,953.171,4983.035,953.109,4983.035Z" fill="#999"/>
      <g id="Grupo_56800" data-name="Grupo 56800">
        <line id="Línea_273" data-name="Línea 273" x2="3.371" y2="0.625" transform="translate(888.732 4944.774)" fill="#fff"/>
        <path id="Trazado_110745" data-name="Trazado 110745" d="M892.1,4945.9a.6.6,0,0,1-.092-.008l-3.371-.625a.5.5,0,0,1,.182-.983l3.371.625a.5.5,0,0,1-.09.991Z" fill="#999"/>
      </g>
      <path id="Trazado_110746" data-name="Trazado 110746" d="M927.5,4939.273a24.332,24.332,0,0,0-10.1-9.5c-12.931-5.238-20.687-2.622-20.765-2.595l-.334-.943c.328-.116,8.157-2.784,21.486,2.615a24.885,24.885,0,0,1,10.584,9.922Z" fill="#999"/>
      <path id="Trazado_110747" data-name="Trazado 110747" d="M906.043,5125.516c-.751,0-1.494-.008-2.224-.023l.019-1q2.41.049,4.977-.012l.025,1Q907.416,5125.517,906.043,5125.516Zm-7.244-.24c-1.681-.114-3.364-.27-5-.465l.118-.992c1.621.192,3.287.346,4.953.459Zm15.056-.022-.066-1c1.637-.109,3.306-.252,4.962-.427l.105.994C917.188,5125,915.505,5125.144,913.855,5125.254Zm9.979-1.051-.14-.99c1.606-.23,3.262-.5,4.919-.792l.176.984C927.121,5123.7,925.454,5123.972,923.834,5124.2Zm-35.009-.117c-1.672-.291-3.33-.63-4.927-1.006l.228-.973c1.579.371,3.217.705,4.871,1Zm44.885-1.648-.209-.978c1.6-.341,3.236-.716,4.859-1.114l.238.97C936.965,5121.718,935.321,5122.1,933.71,5122.438Zm-54.671-.665c-1.638-.5-3.241-1.048-4.762-1.636l.359-.934c1.5.58,3.079,1.122,4.694,1.613Zm-9.388-3.647a31.906,31.906,0,0,1-4.419-2.524l.59-.807a31.482,31.482,0,0,0,4.268,2.432Z" fill="#999"/>
      <path id="Trazado_110748" data-name="Trazado 110748" d="M910.886,4987.98l-2.183-5.288-2.206-.649s-.95-.255-.467-.978l3.506-1.986s1.59-.793,1.425.748l-.8,2.486,1.818,5.063-.062,1.354Z" fill="#999"/>
      <path id="Trazado_110749" data-name="Trazado 110749" d="M911.718,4989.305l-5.065,2.661-.443,2.257s-.167.969-.932.554l-2.3-3.308s-.936-1.51.614-1.488l2.549.569,4.874-2.276,1.355-.063Z" fill="#999"/>
      <path id="Trazado_110750" data-name="Trazado 110750" d="M890.7,4945.318l-2.205-5.279-2.21-.639s-.95-.251-.47-.977l3.5-2s1.586-.8,1.428.743l-.79,2.489,1.839,5.055-.056,1.355Z" fill="#999"/>
      <path id="Trazado_110751" data-name="Trazado 110751" d="M891.044,4946.743l-5.629-1.024-1.74,1.5s-.727.661-1.075-.136l.226-4.023s.193-1.766,1.4-.794l1.658,2.018,5.242,1.209,1.105.785Z" fill="#999"/>
      <path id="Trazado_110752" data-name="Trazado 110752" d="M873.307,4985.815l-5.629-1.024-1.739,1.506s-.728.661-1.076-.137l.226-4.023s.193-1.766,1.4-.794l1.658,2.018,5.242,1.209,1.105.785Z" fill="#999"/>
      <path id="Trazado_110753" data-name="Trazado 110753" d="M873.669,4984.662l-2.481-5.155-2.24-.522s-.963-.2-.522-.95l3.386-2.183s1.543-.882,1.466.666l-.658,2.528,2.1,4.951.016,1.355Z" fill="#999"/>
      <g id="Grupo_56801" data-name="Grupo 56801">
        <path id="Trazado_110754" data-name="Trazado 110754" d="M918.113,5123.861,915.1,5119l.765-2.169s.349-.919-.52-.951l-3.662,1.68s-1.574.825-.228,1.593l2.485.806,3.04,4.438,1.135.742Z" fill="#999"/>
        <path id="Trazado_110755" data-name="Trazado 110755" d="M918.113,5125.989l-3.01,4.865.765,2.169s.349.919-.52.951l-3.662-1.68s-1.574-.825-.228-1.593l2.485-.806,3.04-4.437,1.135-.743Z" fill="#999"/>
      </g>
      <path id="Trazado_110756" data-name="Trazado 110756" d="M974.36,4999.059s-31.63-3-38.935-3.681c-7.223-.673-32.249-3.384-32.5-3.411-17.115-2.5-29.215-4.019-29.335-4.033a.5.5,0,0,1-.433-.559.492.492,0,0,1,.558-.434c.12.015,12.228,1.538,29.336,4.034.234.025,25.252,2.736,32.468,3.407,7.306.68,38.936,3.68,38.936,3.68Z" fill="#4d4d4d" opacity="0.36"/>
      <path id="Trazado_110757" data-name="Trazado 110757" d="M914.517,5163.039l-.045,0a.5.5,0,0,1-.454-.542c.121-1.357,2.968-33.3,3.832-38.046l.516-5.436,2.086-45.8,3.739-64.619,2.176-19.152c.107-.635,2.6-15,7.211-21.922a.5.5,0,1,1,.832.554c-4.5,6.74-7.029,21.363-7.053,21.509l-2.17,19.1-3.737,64.585-2.087,45.819-.523,5.5c-.862,4.747-3.8,37.664-3.826,38A.5.5,0,0,1,914.517,5163.039Z" fill="#4d4d4d" opacity="0.36"/>
      <path id="Trazado_110758" data-name="Trazado 110758" d="M884.015,5132.082a.539.539,0,0,1-.169-.029.5.5,0,0,1-.3-.64c.013-.036,1.276-3.552,1.613-5.15s1.458-14.936,1.469-15.071c0-.069.514-7.87.265-9.536-.261-1.735-.607-3.8-.607-3.8l-.336-7.991c.008-.148.678-9.119.763-11.515a41.511,41.511,0,0,0-.6-7.787c-.358-1.611-.026-10.449-.012-10.824l1.219-12.378,1.986-24.165s.448-8.684.535-10.248c.1-1.785,2.68-5.6,3.576-6.794.786-1.047,1.263-5.126,1.381-6.609l1.656-11.4c0-.03.525-4.914.957-7.737s3.818-7.544,4.23-8.11c.216-.516,1.767-4.136,3.226-5.509a11.112,11.112,0,0,0,2.165-4.226v-6.279c.009-.24.205-5.467.555-7.477a15.924,15.924,0,0,1,1.711-4.418.5.5,0,0,1,.866.5,15.175,15.175,0,0,0-1.592,4.09c-.339,1.943-.538,7.27-.54,7.324v6.329a.473.473,0,0,1-.018.13c-.035.134-.9,3.284-2.462,4.756-1.383,1.3-2.994,5.178-3.011,5.217a.429.429,0,0,1-.058.106c-.037.05-3.672,5.028-4.084,7.718-.428,2.8-.948,7.662-.953,7.711l-1.655,11.39c-.042.543-.474,5.633-1.573,7.1-1.32,1.761-3.307,4.964-3.379,6.249-.087,1.565-.536,10.259-.536,10.259l-1.987,24.19-1.217,12.355c-.1,2.492-.283,9.306-.01,10.539a42.158,42.158,0,0,1,.62,8.039c-.086,2.417-.757,11.407-.764,11.5l.329,7.869s.347,2.041.6,3.759c.266,1.772-.234,9.434-.255,9.76-.047.56-1.139,13.537-1.489,15.2s-1.6,5.136-1.649,5.283A.5.5,0,0,1,884.015,5132.082Zm3.262-34.331h0Z" fill="#4d4d4d" opacity="0.36"/>
      <g id="Grupo_56802" data-name="Grupo 56802" opacity="0.36">
        <path id="Trazado_110759" data-name="Trazado 110759" d="M993.931,4963.608c-.913-2.218-3.261-2.019-4.565-1.532a9.229,9.229,0,0,1-3.783,0s-4.044-2.1-5.478-2.176-4.174.727-5.087,0-4.957-1.123-6-3.273a32.752,32.752,0,0,0-4.174-5.541s-2.478-2.573-4.826-2.265a11.166,11.166,0,0,1-3.652,0,14.58,14.58,0,0,1-4.566-1.431c-2.434-1.217-3.3-1.391-4.956-2.782s-2.348-2.7-3.218-2.87-19.11-7.46-19.719-8.069-.869-1.739-2.869-1.913-3.74.957-4,2.087a6.3,6.3,0,0,1-1.479,2.957c-.608.521-2.311,1.565-2.721,3.391a10.216,10.216,0,0,1-1.974,3.652l-1.131.713s-.35-.265-.674-.5c-.6-.44-1.326-1.031-1.326-1.031s-1.087-1.408-2.174-.53a4.013,4.013,0,0,0-1.347,2.008l-1.957-.335a1.056,1.056,0,0,1-.5-.833c-.065-.614,0-2.245,0-2.245s.986-.978-.029-1.044a15.324,15.324,0,0,0-2.942.334l.3-2.29-2.348-.519-1.293,2.475-.728,1.109-1.254,2.159-6.768,14.08-12.927,30.818a113.29,113.29,0,0,0-2.856,24.241c.134,11.913,2.744,30,2.744,30l3.151,33.782,4.617,21.888-.077,15.547s-1.435,8-2.13,9.305a37.056,37.056,0,0,0-1.7,5l-.435,1.565-.705,2.305,2.227.869,1.043-2.609,2.957,1.13,1.412.348-1.63,16.522s-.678,6-2.035,7.826a18.63,18.63,0,0,0-2.215,5.348s-.184,1.7.6,2.087,4.564.13,5.282-.652,4.864-1.957,5.791-1.565,4.71,1.434,4.71,1.434,4.3,3.522,7.174,3.131a46.77,46.77,0,0,0,6.782-1.7s5.609-.783,6.261,0a1.78,1.78,0,0,0,1.077.5c.777-6.154,2.142-20.056-.251-27.365,0,0,6.214,7.036,6.495,26.336a15.57,15.57,0,0,1,1.94-.51c.391,0,4.957.26,5.348.782s5.217,2.409,6,1.987,4.483-1.726,5.633-1.2,5.715,1.482,7.019.61,0-3.48,0-7.132-2.869-13.7-2.869-13.7-1.754-13.516.688-19.606,4.138-11.828,4.138-11.828a34.569,34.569,0,0,0,0-7.044,51.08,51.08,0,0,1,.174-9s1.044-9.13,2.979-11.087,5.716-12.782,5.716-12.782a39.941,39.941,0,0,0,1.435-7.305c.13-2.869,2.348-8.122,2.348-8.122l5.217-9.747s2.478-7.435,2.478-10.3v-18.13s-.13-8.223,2.87-13.959,15.806-30.842,15.806-30.842l4.957-6.391A6.821,6.821,0,0,0,993.931,4963.608Z" fill="#999"/>
        <path id="Trazado_110760" data-name="Trazado 110760" d="M935.028,5166.285c-1.692,0-5.67-1.674-6.086-2.229a26.006,26.006,0,0,0-4.947-.582c-.176.013-1.115.289-1.8.489a.5.5,0,0,1-.641-.473c-.184-12.652-2.967-20.011-4.793-23.5,1.378,7.822.189,19.487-.455,24.587a.5.5,0,0,1-.582.43,2.2,2.2,0,0,1-1.375-.668c-.42-.314-3.35-.169-5.807.175a44.955,44.955,0,0,1-6.785,1.695c-2.843.392-6.831-2.66-7.474-3.172-.619-.172-3.8-1.059-4.671-1.428-.714-.3-4.618.779-5.229,1.443-.882.964-4.916,1.24-5.874.761-1.041-.521-.908-2.247-.871-2.587a18.807,18.807,0,0,1,2.311-5.592c1.046-1.409,1.755-5.952,1.939-7.585l1.587-16.084-.991-.244-2.557-.973-.86,2.151a.506.506,0,0,1-.646.281l-2.226-.869a.5.5,0,0,1-.3-.613l1.137-3.857a36.672,36.672,0,0,1,1.735-5.1c.484-.906,1.509-5.972,2.08-9.157l.069-15.408-4.606-21.835-3.159-33.839c-.024-.156-2.613-18.231-2.746-30.041a114.83,114.83,0,0,1,2.869-24.365l12.952-30.893,6.779-14.1,1.271-2.193.743-1.132,1.268-2.433a.5.5,0,0,1,.551-.257l2.349.52a.5.5,0,0,1,.388.552l-.21,1.61a11.53,11.53,0,0,1,2.39-.216.89.89,0,0,1,.878.536,1.288,1.288,0,0,1-.387,1.21c-.019.54-.041,1.569,0,1.988a.628.628,0,0,0,.192.411l1.433.245a4.657,4.657,0,0,1,1.368-1.832,1.69,1.69,0,0,1,1.268-.388,2.658,2.658,0,0,1,1.576.952c.158.128.755.61,1.265.983.14.1.284.208.4.3l.773-.487a9.563,9.563,0,0,0,1.82-3.38,6.155,6.155,0,0,1,2.552-3.4c.13-.1.243-.189.332-.265a5.9,5.9,0,0,0,1.316-2.69c.308-1.328,2.259-2.679,4.531-2.472a3.441,3.441,0,0,1,2.84,1.632,3.572,3.572,0,0,0,.34.425c.98.725,18.554,7.728,19.466,7.933a3.864,3.864,0,0,1,1.829,1.4,17.319,17.319,0,0,0,1.611,1.581,11.929,11.929,0,0,0,3.167,1.909c.479.223,1.027.478,1.69.809a14.291,14.291,0,0,0,4.393,1.381,10.947,10.947,0,0,0,3.536,0c2.575-.322,5.142,2.3,5.252,2.414a32.817,32.817,0,0,1,4.263,5.67c.606,1.25,2.569,1.874,4,2.33a6.474,6.474,0,0,1,1.86.771c.422.335,1.815.163,2.835.038a12.365,12.365,0,0,1,1.966-.147c1.441.076,4.965,1.862,5.617,2.2a8.3,8.3,0,0,0,3.443.008c1.923-.715,4.277-.436,5.2,1.81h0a7.275,7.275,0,0,1,0,4.937.529.529,0,0,1-.07.125l-4.957,6.392c-.078.172-12.791,25.093-15.758,30.766-2.908,5.559-2.815,13.639-2.814,13.72V5037.5c0,2.918-2.4,10.156-2.5,10.463l-5.251,9.825c0,.01-2.164,5.162-2.289,7.908a39.757,39.757,0,0,1-1.455,7.423c-.163.471-3.849,10.981-5.84,12.993-1.486,1.5-2.552,8.3-2.837,10.792a50.927,50.927,0,0,0-.173,8.9,34.848,34.848,0,0,1,0,7.156c-.033.135-1.747,5.909-4.17,11.951-2.365,5.9-.674,19.221-.656,19.355.1.34,2.874,10.081,2.874,13.761a23.121,23.121,0,0,0,.35,3.638c.277,1.786.494,3.2-.573,3.909-1.577,1.055-6.472-.1-7.5-.571-.864-.394-4.34.732-5.188,1.19A1.212,1.212,0,0,1,935.028,5166.285Zm-11.033-3.811c.049,0,5.123.15,5.747.982.519.509,4.718,2.041,5.384,1.838.55-.3,4.583-1.882,6.055-1.21,1.185.537,5.5,1.341,6.535.649.513-.341.394-1.285.141-2.924a24.29,24.29,0,0,1-.362-3.791c0-3.541-2.823-13.459-2.851-13.559-.088-.631-1.758-13.79.705-19.93,2.4-5.985,4.1-11.707,4.122-11.784h0a35.6,35.6,0,0,0-.018-6.855,51.057,51.057,0,0,1,.174-9.1c.11-.952,1.124-9.36,3.122-11.382,1.52-1.538,4.557-9.614,5.6-12.595a39.835,39.835,0,0,0,1.408-7.163c.132-2.924,2.294-8.076,2.386-8.294l5.237-9.789h0c-.007,0,2.419-7.312,2.419-10.068v-18.13c0-.333-.1-8.409,2.927-14.191,2.965-5.669,15.676-30.586,15.8-30.837l4.958-6.407a6.319,6.319,0,0,0-.018-4.132c-.945-2.295-3.626-1.366-3.928-1.253a9.553,9.553,0,0,1-4.055.021.425.425,0,0,1-.134-.047c-1.1-.57-4.185-2.062-5.273-2.12a11.749,11.749,0,0,0-1.791.141c-1.391.171-2.828.351-3.581-.248a6.773,6.773,0,0,0-1.54-.6c-1.606-.51-3.8-1.211-4.6-2.845a32.452,32.452,0,0,0-4.091-5.422c-.016-.015-2.315-2.381-4.393-2.108a11.616,11.616,0,0,1-3.833-.009h0a14.858,14.858,0,0,1-4.674-1.47c-.653-.326-1.193-.577-1.664-.8a12.866,12.866,0,0,1-3.391-2.051,18.324,18.324,0,0,1-1.7-1.667c-.53-.573-.948-1.025-1.294-1.1-.148-.029-19.091-7.32-19.975-8.206a4.224,4.224,0,0,1-.441-.545,2.467,2.467,0,0,0-2.119-1.223c-1.847-.164-3.285.9-3.469,1.7a6.761,6.761,0,0,1-1.641,3.225c-.1.085-.225.182-.37.295a5.315,5.315,0,0,0-2.187,2.826,10.634,10.634,0,0,1-2.083,3.867.567.567,0,0,1-.114.1l-1.13.712a.5.5,0,0,1-.569-.024s-.346-.262-.666-.494c-.613-.448-1.348-1.05-1.348-1.05a.481.481,0,0,1-.08-.081,1.72,1.72,0,0,0-.944-.619.654.654,0,0,0-.519.173,3.574,3.574,0,0,0-1.176,1.734.509.509,0,0,1-.571.378l-1.956-.335a.5.5,0,0,1-.141-.047,1.536,1.536,0,0,1-.772-1.226c-.068-.643-.005-2.25,0-2.319a.509.509,0,0,1,.148-.334,1.872,1.872,0,0,0,.166-.195,17.521,17.521,0,0,0-2.684.329.482.482,0,0,1-.441-.123.5.5,0,0,1-.156-.431l.239-1.836-1.528-.337-1.116,2.136-.754,1.152-1.238,2.134-6.751,14.047L874.224,4988.4a114.318,114.318,0,0,0-2.816,24.042c.132,11.743,2.713,29.754,2.739,29.935l3.153,33.806,4.609,21.832a.535.535,0,0,1,.01.106l-.077,15.547c-.156.912-1.476,8.2-2.189,9.537a36.794,36.794,0,0,0-1.654,4.9l-.436,1.569-.573,1.874,1.333.519.859-2.147a.5.5,0,0,1,.643-.281l2.957,1.13,1.352.329a.5.5,0,0,1,.379.534l-1.63,16.522c-.029.258-.711,6.163-2.132,8.075a18.228,18.228,0,0,0-2.13,5.168c-.047.489.035,1.372.336,1.522.679.337,4.17.021,4.69-.543.816-.891,5.2-2.175,6.354-1.689.886.375,4.611,1.4,4.648,1.414a.5.5,0,0,1,.184.095c.041.034,4.173,3.373,6.79,3.023a46.389,46.389,0,0,0,6.691-1.675c2.285-.328,6.08-.715,6.8.155a.723.723,0,0,0,.267.18c.741-6.06,2-19.532-.3-26.575a.5.5,0,0,1,.85-.487c.256.29,6.2,7.235,6.609,26A7.3,7.3,0,0,1,923.995,5162.474Z" fill="#4d4d4d"/>
      </g>
      <path id="Trazado_110761" data-name="Trazado 110761" d="M905.2,4952.64c-1.153-.766-2.592-1.609-4.278-2.505l.469-.883c1.715.912,3.183,1.771,4.361,2.554Zm-8.737-4.733c-2.559-1.21-4.535-2.038-4.554-2.047l.386-.922c.02.008,2.014.845,4.6,2.065Z" fill="#999"/>
      <rect id="Rectángulo_10462" data-name="Rectángulo 10462" width="1" height="17.414" transform="translate(907.959 4954.187) rotate(-59.683)" fill="#999"/>
      <g id="Grupo_56803" data-name="Grupo 56803">
        <path id="Trazado_110762" data-name="Trazado 110762" d="M915.864,5163.627s-1.456-5.693-9.463-4.27c0,0,10.19-11.7,9.463-22.139C915.864,5137.218,917.465,5158.725,915.864,5163.627Z" fill="#999"/>
        <path id="Trazado_110763" data-name="Trazado 110763" d="M915.864,5164.126h-.015a.5.5,0,0,1-.47-.373c-.057-.214-1.46-5.229-8.89-3.9a.51.51,0,0,1-.523-.247.5.5,0,0,1,.058-.574c.1-.115,10.046-11.67,9.341-21.775a.5.5,0,0,1,.463-.534.492.492,0,0,1,.535.462c.065.881,1.59,21.661-.024,26.6A.5.5,0,0,1,915.864,5164.126Zm-7.044-5.5c4.019,0,5.985,2.023,6.875,3.463.639-4.117.348-12.831.041-18.763-1.71,6.78-6.253,12.991-8.136,15.358C908.026,5158.649,908.433,5158.631,908.82,5158.631Z" fill="#4d4d4d"/>
      </g>
      <g id="Grupo_56805" data-name="Grupo 56805">
        <rect id="Rectángulo_10463" data-name="Rectángulo 10463" width="54.65" height="25.39" rx="2.56" transform="translate(889.25 5176.734)" fill="#fff"/>
        <g id="Grupo_56804" data-name="Grupo 56804">
          <path id="Trazado_110764" data-name="Trazado 110764" d="M901.2,5198.55a7.507,7.507,0,0,1-3.12.561c-3.331,0-5.822-2.1-5.822-5.978a5.868,5.868,0,0,1,6.172-6.19,6.748,6.748,0,0,1,2.8.509l-.386,1.262a5.419,5.419,0,0,0-2.366-.49c-2.771,0-4.611,1.77-4.611,4.856,0,2.893,1.666,4.733,4.523,4.733a6.111,6.111,0,0,0,2.507-.491Z"/>
          <path id="Trazado_110765" data-name="Trazado 110765" d="M907.374,5199.128c-3.138,0-5.313-2.419-5.313-6,0-3.752,2.315-6.207,5.471-6.207,3.243,0,5.329,2.471,5.329,5.978,0,4.05-2.472,6.224-5.47,6.224Zm.087-1.244c2.419,0,3.788-2.227,3.788-4.909,0-2.35-1.228-4.8-3.77-4.8s-3.8,2.366-3.8,4.927c0,2.489,1.368,4.786,3.77,4.786Z"/>
          <path id="Trazado_110766" data-name="Trazado 110766" d="M914.847,5187.294a16.017,16.017,0,0,1,2.929-.263,4.877,4.877,0,0,1,3.435.982,2.945,2.945,0,0,1,.93,2.244,3.117,3.117,0,0,1-2.226,3v.053a3.014,3.014,0,0,1,1.735,2.384,21.418,21.418,0,0,0,.894,3.244h-1.578a14.856,14.856,0,0,1-.771-2.823c-.351-1.631-1-2.244-2.384-2.3h-1.438v5.12h-1.526Zm1.526,5.365h1.56c1.631,0,2.665-.894,2.665-2.244,0-1.525-1.1-2.191-2.718-2.191a6.429,6.429,0,0,0-1.507.139Z"/>
          <path id="Trazado_110767" data-name="Trazado 110767" d="M926.685,5188.416h-3.594v-1.3h8.749v1.3h-3.612v10.52h-1.543Z"/>
          <path id="Trazado_110768" data-name="Trazado 110768" d="M939.259,5193.4h-4.576v4.26h5.12v1.281H933.14v-11.817h6.4v1.279h-4.857v3.735h4.576Z"/>
        </g>
      </g>
      <g id="Grupo_56807" data-name="Grupo 56807">
        <path id="Trazado_110769" data-name="Trazado 110769" d="M918.618,5183.821a.5.5,0,0,1-.5-.5v-11.047a.5.5,0,0,1,1,0v11.047A.5.5,0,0,1,918.618,5183.821Z" fill="#4d4d4d"/>
        <g id="Grupo_56806" data-name="Grupo 56806">
          <path id="Trazado_110770" data-name="Trazado 110770" d="M922.321,5175.083l-3.7-1.573-3.7,1.573,3.7-8.778Z" fill="#4d4d4d"/>
        </g>
      </g>
    </g>
  </g>
</svg>
