<svg xmlns="http://www.w3.org/2000/svg" xmlns:xlink="http://www.w3.org/1999/xlink" width="203.74" height="328.999" viewBox="0 0 203.74 328.999">
  <defs>
    <clipPath id="clip-path">
      <rect id="Rectángulo_10497" data-name="Rectángulo 10497" width="199.034" height="317.927" transform="translate(541.853 6477.088)" fill="none"/>
    </clipPath>
  </defs>
  <g id="Grupo_56882" data-name="Grupo 56882" transform="translate(-541.853 -6477.088)">
    <rect id="Rectángulo_10490" data-name="Rectángulo 10490" width="203.74" height="328.999" rx="13.565" transform="translate(541.853 6477.088)" fill="#fff"/>
    <g id="Grupo_56881" data-name="Grupo 56881">
      <g id="Grupo_56880" data-name="Grupo 56880" clip-path="url(#clip-path)">
        <g id="Grupo_56879" data-name="Grupo 56879">
          <path id="Trazado_111121" data-name="Trazado 111121" d="M676.411,6556l3.64,3.387-.6,1.4,1.258,1.236s3.362-1.861,3.47-3.829l-.705-1.111-1.8.8-4.256-2.861-1.009-.308-.513.474Z" fill="#999"/>
          <path id="Trazado_111122" data-name="Trazado 111122" d="M675.7,6555.914l-2.216,4.45,1.057,1.1-.743,1.6s-3.8-.56-4.595-2.363l.269-1.289,1.964.117,2.977-4.174.837-.644.647.263Z" fill="#999"/>
          <g id="Grupo_56866" data-name="Grupo 56866">
            <path id="Trazado_111123" data-name="Trazado 111123" d="M699.707,6558.037s-10.771-4.648-14.826-7.358c0,0-3.94-1.9-4.106-10.5s.5-14.55,1.819-18.6l1.654-6.283s-4.795-7.44-18.188-9.176c0,0-9.011-.827-11.078,1.322,0,0-5.457,20.42-12.9,29.514,0,0-1.571,6.035-18.105,9.425l-19.511,4.216s-9.011,1.9-10.416,9.259c0,0-5.457,5.87-2.481,27.695l.827,4.465,9.59,49.437,13.972,55.39.578,1.985v5.539S601,6726.6,599.178,6743.139s-1.416,90.981-1.416,90.981,64.893,7.826,102.913,2.608l-.968-87.141a74.421,74.421,0,0,0-6.614-29.266l-7.109-13.393s-1.24-.992-.992-10.086l5.869-30.671,7.027-22.073,5.291-9.755s6.89-8.984,6.008-16.48l-2.535-8.818s-.331-11.574.11-15.873l3.2-11.464,1.1-10.361s.771-4.74-2.425-7.386A80.432,80.432,0,0,0,699.707,6558.037Z" fill="#fff"/>
            <path id="Trazado_111124" data-name="Trazado 111124" d="M668.713,6838.883c-34.075,0-70.51-4.332-71-4.391l-.328-.039,0-.331c0-.744-.382-74.658,1.418-91.024,1.748-15.882,16.237-37.218,17.359-38.849v-5.368l-.564-1.933-13.974-55.4-9.595-49.458-.828-4.467c-2.815-20.645,1.821-27.111,2.5-27.934,1.5-7.433,10.6-9.437,10.688-9.457l19.509-4.214c16.024-3.286,17.806-9.1,17.822-9.157l.072-.139c7.3-8.927,12.77-29.17,12.824-29.373l.092-.163c2.168-2.253,11.01-1.47,11.383-1.436,13.425,1.739,18.268,9.036,18.469,9.346l.089.138-1.7,6.444c-1.376,4.218-1.965,10.262-1.8,18.5.158,8.218,3.858,10.15,3.9,10.169,4.024,2.684,14.7,7.3,14.81,7.35l.038.02a81.254,81.254,0,0,1,8.981,5.961c3.323,2.751,2.589,7.532,2.556,7.734l-1.1,10.341-3.208,11.524c-.408,4.027-.12,14.9-.1,15.715l2.522,8.773c.9,7.62-5.785,16.439-6.07,16.811l-5.258,9.705-7,22.008-5.859,30.629c-.225,8.425.836,9.694.882,9.744l.073.1,7.109,13.392a75.571,75.571,0,0,1,6.658,29.451l.972,87.459-.328.044A244.1,244.1,0,0,1,668.713,6838.883Zm-70.578-5.1c5.034.587,65.969,7.492,102.161,2.615l-.964-86.81a74.738,74.738,0,0,0-6.581-29.116l-7.074-13.325c-.335-.385-1.282-2.2-1.061-10.317l5.877-30.733,7.038-22.116,5.318-9.82c.1-.138,6.819-9,5.966-16.257l-2.538-8.851c-.014-.474-.327-11.648.112-15.922l3.208-11.527,1.091-10.3c.009-.066.7-4.583-2.291-7.056a79.794,79.794,0,0,0-8.858-5.878c-.666-.288-10.878-4.717-14.866-7.383-.124-.056-4.1-2.075-4.272-10.8-.161-8.321.44-14.446,1.836-18.724l1.6-6.095c-.722-.991-5.76-7.312-17.828-8.876-2.411-.221-8.992-.44-10.7,1.147-.426,1.556-5.779,20.745-12.9,29.5-.263.791-2.656,6.39-18.367,9.611l-19.507,4.215c-.089.019-8.785,1.942-10.127,8.964l-.019.1-.074.079c-.052.059-5.291,6.077-2.384,27.391l.825,4.446,9.589,49.435,13.965,55.37.591,2.076v5.657l-.067.1c-.155.222-15.509,22.351-17.3,38.6C597.818,6758.941,598.11,6828.356,598.135,6833.786Z" fill="#999"/>
          </g>
          <ellipse id="Elipse_4437" data-name="Elipse 4437" cx="2.232" cy="3.348" rx="2.232" ry="3.348" transform="translate(597.938 6574.24)" fill="#999"/>
          <path id="Trazado_111125" data-name="Trazado 111125" d="M708.118,6616.8l-4.143-15.68c-3.447-11-4.038-17.329-4.933-26.912-.115-1.24-.236-2.535-.369-3.9-1.122-11.543-5.177-14.666-5.218-14.7l.443-.606c.176.129,4.361,3.294,5.521,15.23.133,1.367.254,2.663.37,3.9.89,9.536,1.479,15.834,4.906,26.774l4.148,15.7Z" fill="#999"/>
          <path id="Trazado_111126" data-name="Trazado 111126" d="M656.347,6703.365c-1.208,0-2.462-.01-3.769-.03-25.835-.41-36.689-6.1-36.8-6.162l.356-.66c.1.056,10.832,5.666,36.452,6.072,25.523.413,31.89-3.456,31.95-3.5l.407.63C684.706,6699.876,679.051,6703.365,656.347,6703.365Z" fill="#999"/>
          <path id="Trazado_111127" data-name="Trazado 111127" d="M657.182,6711.351q-2.2,0-4.611-.08c-24.19-.819-35.675-6.513-35.789-6.571l.34-.669c.112.058,11.472,5.678,35.475,6.49,23.979.821,31.841-4.989,31.918-5.047l.457.595C684.671,6706.3,677.821,6711.351,657.182,6711.351Z" fill="#999"/>
          <path id="Trazado_111128" data-name="Trazado 111128" d="M667.458,6558.359a18.174,18.174,0,0,1-3.96-.452c-13.371-2.972-24.493-17.271-24.6-17.416l.593-.457c.11.142,11.07,14.229,24.172,17.141,12.922,2.873,18.1-9.158,18.315-9.672l.693.288C682.618,6547.909,678.137,6558.359,667.458,6558.359Z" fill="#999"/>
          <path id="Trazado_111129" data-name="Trazado 111129" d="M679.526,6522.51c-14.054,0-25.66-8.091-25.781-8.177l.434-.612c.125.089,12.7,8.837,27.4,7.979l.045.748C680.92,6522.49,680.219,6522.51,679.526,6522.51Z" fill="#999"/>
          <path id="Trazado_111130" data-name="Trazado 111130" d="M679.6,6516.7c-12.6,0-24.507-8.116-24.641-8.209l.426-.617c.148.1,15.025,10.252,28.929,7.655l.136.738A26.522,26.522,0,0,1,679.6,6516.7Z" fill="#999"/>
          <path id="Trazado_111131" data-name="Trazado 111131" d="M655.1,6838.326l-.076-77.826c.545-12.3-2.066-39.374-2.092-39.647l-.664-18.761-.991-50.823c.012-.234,1.234-20.666,2.981-30.385,1.713-9.531-5.7-19.339-5.77-19.437-.139-.28-9.7-21.1-14.719-36.487-4.931-15.111-12.76-16.929-12.838-16.945l.151-.735c.338.069,8.32,1.876,13.4,17.447,5.006,15.343,14.549,36.126,14.644,36.334.272.34,7.643,10.095,5.87,19.955-1.739,9.676-2.958,30.064-2.97,30.269l.992,50.786.662,18.733c.024.25,2.64,27.373,2.094,39.712l.076,77.81Z" fill="#999"/>
          <path id="Trazado_111132" data-name="Trazado 111132" d="M677.846,6838.426l-.75-.022c.029-1,2.834-99.855-1.888-115.162-4.761-15.431-3.337-35.486-3.322-35.686l5.624-46.314c.019-.26,2.118-27.716.9-40.76-.39-4.186-1.274-9.382-2.21-14.883-2.007-11.808-4.507-26.5-3.488-39.414l2.519-23.49.746.08-2.518,23.48c-1.011,12.806,1.48,27.452,3.481,39.219.938,5.515,1.824,10.724,2.216,14.938,1.224,13.108-.879,40.628-.9,40.9l-5.624,46.312c-.013.182-1.426,20.1,3.293,35.393C680.684,6738.446,677.964,6834.35,677.846,6838.426Z" fill="#999"/>
          <path id="Trazado_111133" data-name="Trazado 111133" d="M615.79,6626.2l-2.848-9.309.3-.134c.254-.113,25.637-11.2,46.759-7.586,21,3.594,46.277,6.908,46.53,6.941l1.808.286.07.219c.072.219,1.688,5.388-1.669,8.572l-.134.128-.185-.03-24.885-4.134c-.29-.059-27.72-5.577-36.623-2.985-8.993,2.616-28.58,7.886-28.776,7.938Zm-1.935-8.889,2.441,7.977c2.686-.724,20.091-5.42,28.412-7.841,9.076-2.641,35.834,2.737,36.968,2.969l24.685,4.1c2.486-2.519,1.653-6.482,1.4-7.45l-1.333-.211c-.243-.031-25.538-3.347-46.55-6.945C640.245,6606.55,616.794,6616.071,613.855,6617.312Z" fill="#999"/>
          <path id="Trazado_111134" data-name="Trazado 111134" d="M656.865,6711.024l-2.514-2.515,1.937-2.656-2.4-2.609.551-.508,2.82,3.063-1.921,2.635,2.061,2.06Z" fill="#999"/>
          <path id="Trazado_111135" data-name="Trazado 111135" d="M660.452,6711.024l-2.514-2.515,1.937-2.656-2.4-2.609.551-.508,2.82,3.063-1.921,2.635,2.061,2.06Z" fill="#999"/>
          <path id="Trazado_111136" data-name="Trazado 111136" d="M664.315,6711.024l-2.514-2.515,1.937-2.656-2.4-2.609.551-.508,2.82,3.063-1.921,2.635,2.061,2.06Z" fill="#999"/>
          <path id="Trazado_111137" data-name="Trazado 111137" d="M667.97,6711.024l-2.514-2.515,1.937-2.656-2.4-2.609.551-.508,2.82,3.063-1.921,2.635,2.061,2.06Z" fill="#999"/>
          <path id="Trazado_111138" data-name="Trazado 111138" d="M671.49,6710.422l-2.514-2.515,1.937-2.656-2.4-2.609.551-.508,2.82,3.063-1.921,2.635,2.061,2.06Z" fill="#999"/>
          <path id="Trazado_111139" data-name="Trazado 111139" d="M637.588,6710.1l-2.271-2.678,2.183-2.358-2.131-2.732.592-.461,2.523,3.234-2.165,2.339,1.842,2.172Z" fill="#999"/>
          <path id="Trazado_111140" data-name="Trazado 111140" d="M641.157,6710.453l-2.271-2.678,2.183-2.358-2.131-2.732.592-.461,2.523,3.234-2.165,2.339,1.842,2.172Z" fill="#999"/>
          <path id="Trazado_111141" data-name="Trazado 111141" d="M645,6710.837l-2.271-2.678,2.182-2.358-2.131-2.732.592-.461,2.523,3.234-2.164,2.339,1.841,2.172Z" fill="#999"/>
          <path id="Trazado_111142" data-name="Trazado 111142" d="M626.433,6707.75l-2.271-2.678,2.183-2.358-2.131-2.732.592-.461,2.523,3.234-2.165,2.339,1.842,2.172Z" fill="#999"/>
          <path id="Trazado_111143" data-name="Trazado 111143" d="M622.94,6706.747l-2.271-2.678,2.183-2.358-2.131-2.732.592-.461,2.523,3.234-2.165,2.339,1.842,2.172Z" fill="#999"/>
          <path id="Trazado_111144" data-name="Trazado 111144" d="M620.057,6705.764l-2.271-2.678,2.183-2.358L617.837,6698l.592-.461,2.523,3.234-2.165,2.339,1.842,2.172Z" fill="#999"/>
          <path id="Trazado_111145" data-name="Trazado 111145" d="M630,6708.706l-2.271-2.677,2.183-2.359-2.131-2.732.592-.461,2.521,3.234-2.163,2.34,1.842,2.171Z" fill="#999"/>
          <path id="Trazado_111146" data-name="Trazado 111146" d="M633.845,6709.09l-2.271-2.677,2.183-2.359-2.131-2.732.592-.461,2.523,3.234-2.165,2.34,1.842,2.171Z" fill="#999"/>
          <path id="Trazado_111147" data-name="Trazado 111147" d="M648.638,6711.2l-2.271-2.678,2.183-2.358-2.131-2.732.592-.461,2.523,3.234-2.165,2.339,1.842,2.172Z" fill="#999"/>
          <path id="Trazado_111148" data-name="Trazado 111148" d="M652.2,6710.972l-2.271-2.678,2.183-2.358-2.131-2.732.592-.461,2.523,3.234-2.165,2.339,1.842,2.172Z" fill="#999"/>
          <path id="Trazado_111149" data-name="Trazado 111149" d="M681.6,6707.46l-2.314-2.058,1.734-2.115-2.087-2.014.521-.539,2.583,2.494-1.715,2.092,1.775,1.579Z" fill="#999"/>
          <path id="Trazado_111150" data-name="Trazado 111150" d="M678.7,6708.354l-2.314-2.058,1.733-2.114-2.087-2.015.521-.539,2.585,2.5-1.716,2.091,1.775,1.579Z" fill="#999"/>
          <path id="Trazado_111151" data-name="Trazado 111151" d="M675.952,6709.2,673.4,6707l1.928-2.278-2.336-2.188.512-.547,2.857,2.675-1.908,2.257,1.992,1.719Z" fill="#999"/>
          <path id="Trazado_111152" data-name="Trazado 111152" d="M684.011,6706.732l-2.044-1.977,1.53-2.031-1.842-1.936.543-.518,2.281,2.4-1.515,2.01,1.567,1.516Z" fill="#999"/>
          <path id="Trazado_111153" data-name="Trazado 111153" d="M634.772,6837.347l-.75,0,.826-127.188,1.488-49.938v-45.442h.75v45.453l-1.488,49.94Z" fill="#999"/>
          <path id="Trazado_111154" data-name="Trazado 111154" d="M612.2,6835.59l-.75-.024c.021-.642,2.026-64.593,2.77-92.162.716-26.511,8.893-35.379,9.941-36.408l.947-5.981-21.926-101.192.732-.158,21.957,101.328-.011.069-1,6.305-.1.089c-.091.083-9.057,8.613-9.8,35.968C614.223,6771,612.217,6834.947,612.2,6835.59Z" fill="#999"/>
          <g id="Grupo_56867" data-name="Grupo 56867">
            <rect id="Rectángulo_10491" data-name="Rectángulo 10491" width="0.749" height="1.001" transform="translate(602.249 6599.822) rotate(-12.165)" fill="#999"/>
            <path id="Trazado_111155" data-name="Trazado 111155" d="M611.4,6832.006l-.75-.024.062-2,.75.024Zm.123-4-.75-.024.061-2,.75.024Zm.123-4-.75-.024.061-2,.75.024Zm.123-4-.75-.024.061-2,.75.024Zm.122-4-.75-.024.061-2,.75.024Zm.122-4-.75-.022.06-2,.75.024Zm.123-4-.75-.022.06-2,.75.024Zm.119-4-.75-.023.062-2,.75.023Zm.123-4-.75-.021.061-2,.75.023Zm.121-3.994-.75-.021.061-2,.75.023Zm.12-4-.75-.021.061-2,.75.023Zm.121-3.995-.75-.023.06-2,.75.021Zm.12-4-.75-.023.06-2,.75.021Zm.118-4-.75-.023.057-1.935.377-.05.373.071Zm.12-3.99-.75-.022.058-2,.75.022Zm.118-3.994-.75-.022.059-2,.75.022Zm.116-4-.75-.022.059-2,.75.021Zm.117-4-.75-.021.059-2,.75.021Zm.118-3.994-.75-.021.057-2,.75.021Zm.114-4-.75-.021.057-2,.75.021Zm.114-4-.75-.021.057-2,.75.021Zm.112-4-.75-.021.056-2,.75.019Zm.111-4-.75-.019.017-.652c.012-.454.027-.9.043-1.348l.75.027q-.024.663-.043,1.341Zm.151-3.979-.748-.041q.056-1.019.124-2l.748.053Q614.226,6739.085,614.171,6740.1Zm.282-3.97-.746-.067q.092-1.017.2-1.993l.746.08Q614.543,6735.117,614.453,6736.127Zm.432-3.955-.744-.1q.132-1.016.278-1.984l.742.113Q615.016,6731.165,614.885,6732.172Zm.6-3.928-.739-.129c.119-.677.244-1.333.372-1.971l.735.149Q615.66,6727.241,615.482,6728.244Zm.787-3.893-.731-.168q.234-1.01.48-1.949l.724.19Q616.5,6723.354,616.269,6724.351Zm1.006-3.838-.719-.213q.3-1,.6-1.916l.711.238C617.668,6719.224,617.47,6719.852,617.275,6720.513Zm1.261-3.758-.7-.264q.373-.993.752-1.867l.69.3C619.029,6715.494,618.781,6716.1,618.536,6716.755Zm1.566-3.631-.674-.33c.322-.657.637-1.251.94-1.786l.653.369C620.725,6711.9,620.416,6712.48,620.1,6713.124Zm1.948-3.424-.623-.416a19.207,19.207,0,0,1,1.212-1.636l.576.481A18.848,18.848,0,0,0,622.05,6709.7Zm2.061-3.484-.741-.117.312-1.972.74.117Zm.624-3.945-.741-.117.18-1.139-.148-.686.732-.16.18.824Zm-1.132-3.9-.423-1.951.732-.159.423,1.952Zm-.845-3.9-.423-1.953.733-.158.422,1.952Zm-.846-3.9-.423-1.951.733-.158.423,1.951Zm-.845-3.9-.423-1.951.732-.159.423,1.952Zm-.846-3.9-.423-1.953.732-.158.423,1.952Zm-.846-3.9-.423-1.951.733-.158.423,1.951Zm-.846-3.9-.422-1.951.732-.158.423,1.951Zm-.845-3.9-.423-1.952.732-.158.423,1.951Zm-.846-3.9-.423-1.952.733-.158.422,1.952Zm-.846-3.9-.422-1.951.732-.158.423,1.951Zm-.845-3.9-.423-1.952.732-.158.423,1.951Zm-.846-3.9-.423-1.952.733-.158.422,1.952Zm-.846-3.9-.423-1.951.733-.158.423,1.951Zm-.845-3.9-.423-1.952.732-.158.423,1.951Zm-.846-3.9-.423-1.951.732-.158.423,1.951Zm-.846-3.9-.423-1.952.733-.158.423,1.952Zm-.846-3.9-.422-1.952.732-.158.423,1.951Zm-.845-3.9-.423-1.951.732-.158.423,1.951Zm-.846-3.9-.423-1.952.733-.158.422,1.952Zm-.846-3.9-.423-1.952.733-.158.423,1.951Zm-.845-3.9-.423-1.951.732-.158.423,1.951Zm-.846-3.9-.423-1.951.733-.158.422,1.951Zm-.846-3.9-.423-1.953.733-.158.423,1.952Zm-.845-3.9-.423-1.951.732-.158.423,1.951Zm-.846-3.9-.423-1.951.732-.158.423,1.951Z" fill="#999"/>
            <rect id="Rectángulo_10492" data-name="Rectángulo 10492" width="0.996" height="0.75" transform="matrix(0.034, -0.999, 0.999, 0.034, 610.559, 6834.89)" fill="#999"/>
          </g>
          <g id="Grupo_56868" data-name="Grupo 56868">
            <rect id="Rectángulo_10493" data-name="Rectángulo 10493" width="0.749" height="0.999" transform="translate(604.12 6599.82) rotate(-12.189)" fill="#999"/>
            <path id="Trazado_111156" data-name="Trazado 111156" d="M613.354,6832.675l-.75-.022.058-2.008.75.022Zm.118-4.015-.75-.021.058-2.006.75.021Zm.116-4.013-.75-.021.059-2,.75.021Zm.116-4.009-.75-.024.059-2,.75.022Zm.116-4.009-.75-.022.059-2,.75.022Zm.119-4.009-.75-.021.057-2,.75.021Zm.116-4.007-.75-.021.057-2,.75.021Zm.115-4.008-.75-.021.059-2,.75.021Zm.116-4.007-.75-.022.059-2,.75.022Zm.118-4.007-.75-.022.057-2,.75.022Zm.115-4.008-.75-.022.057-2,.75.022Zm.115-4-.75-.021.056-1.946.752-.037Zm.115-4.009-.75-.021.058-2.008.75.021Zm.114-4.012-.75-.021.058-2,.75.022Zm.116-4-.75-.022.056-2,.75.022Zm.115-4.007-.75-.022.057-2,.75.022Zm.114-4.009-.75-.022.057-2,.75.022Zm.113-4.006-.75-.021.057-2,.75.021Zm.112-4.007-.75-.021.056-2,.75.021Zm.113-4.009-.75-.021.056-2,.75.021Zm.111-4.009-.75-.021.056-2,.75.022Zm.113-4.007-.75-.02.054-2,.75.02Zm.108-4.01-.75-.019.058-2.006.75.025Zm.143-4-.749-.037q.051-1.023.117-2l.748.051Q616.071,6739.484,616.021,6740.5Zm.269-3.981-.748-.064q.089-1.02.191-2l.746.078Q616.375,6735.506,616.29,6736.517Zm.416-3.967-.744-.094q.129-1.02.272-1.99l.742.109Q616.833,6731.538,616.706,6732.55Zm.582-3.943-.739-.127c.115-.676.237-1.336.363-1.976l.737.144Q617.46,6727.6,617.288,6728.607Zm.772-3.907-.733-.164q.228-1.016.47-1.958l.727.186C618.364,6723.387,618.209,6724.031,618.06,6724.7Zm.985-3.855-.721-.209q.294-1.007.6-1.926l.713.234Q619.333,6719.853,619.045,6720.845Zm1.241-3.776-.7-.262q.371-1,.742-1.876l.692.291Q620.652,6716.089,620.286,6717.069Zm1.544-3.655-.676-.324c.316-.658.627-1.257.926-1.8l.657.363C622.444,6712.184,622.14,6712.769,621.83,6713.414Zm1.92-3.456-.629-.408c.4-.611.8-1.168,1.188-1.658l.586.469C624.518,6708.831,624.133,6709.369,623.75,6709.958Zm2.184-3.443-.74-.117.312-1.978.74.117Zm.626-3.956-.74-.117.225-1.43-.087-.405.733-.158.118.541Zm-1.026-3.909-.423-1.957.732-.158.424,1.957Zm-.848-3.914-.424-1.957.732-.158.424,1.957Zm-.848-3.914-.424-1.957.733-.158.423,1.957Zm-.849-3.914-.423-1.957.732-.158.424,1.957Zm-.847-3.914-.424-1.957.732-.158.424,1.957Zm-.849-3.914-.424-1.958.733-.158.424,1.958Zm-.848-3.915-.423-1.957.732-.158.424,1.957Zm-.848-3.914-.424-1.957.732-.158.424,1.957Zm-.848-3.914-.424-1.957.733-.158.424,1.957Zm-.847-3.914-.425-1.957.732-.159.425,1.958Zm-.849-3.914-.424-1.957.733-.159.423,1.957Zm-.848-3.914-.425-1.957.733-.159.425,1.957Zm-.848-3.914-.424-1.957.732-.159.424,1.957Zm-.848-3.915-.425-1.957.733-.158.424,1.957Zm-.849-3.914-.423-1.957.732-.158.424,1.957Zm-.847-3.914-.425-1.957.732-.158.425,1.957Zm-.849-3.914-.424-1.957.733-.158.423,1.957Zm-.848-3.914-.424-1.957.732-.158.425,1.957Zm-.848-3.915-.424-1.957.732-.158.424,1.957Zm-.848-3.914-.425-1.957.733-.158.425,1.957Zm-.849-3.914-.423-1.957.732-.158.424,1.957Zm-.847-3.914-.425-1.957.732-.158.425,1.957Zm-.849-3.914-.424-1.957.733-.158.424,1.957Zm-.847-3.914-.425-1.957.732-.158.425,1.957Zm-.849-3.914-.424-1.957.732-.158.424,1.957Z" fill="#999"/>
            <rect id="Rectángulo_10494" data-name="Rectángulo 10494" width="0.996" height="0.75" transform="matrix(0.029, -1, 1, 0.029, 612.518, 6835.567)" fill="#999"/>
          </g>
          <path id="Trazado_111157" data-name="Trazado 111157" d="M600.993,6600.822c-5.891,0-10.684-10.38-10.684-23.138s4.793-23.136,10.684-23.136,10.686,10.379,10.686,23.136S606.885,6600.822,600.993,6600.822Zm0-45.524c-5.477,0-9.934,10.043-9.934,22.386s4.457,22.388,9.934,22.388,9.936-10.043,9.936-22.388S606.472,6555.3,600.993,6555.3Z" fill="#999"/>
          <path id="Trazado_111158" data-name="Trazado 111158" d="M595.786,6628.7l-.242-.709c12.942-4.421,20.389-7.578,20.463-7.609.256-.107,25.446-10.2,46.134-7.407l17.035,3.47-.15.734-17.01-3.464c-20.464-2.76-45.471,7.257-45.722,7.359C616.227,6621.106,608.757,6624.272,595.786,6628.7Z" fill="#999"/>
          <path id="Trazado_111159" data-name="Trazado 111159" d="M709.528,6619.87l4.63-1.213.826,1.213,1.654-.386s.22-3.693-1.323-4.795h-1.268l-.275,1.874-4.519,1.984-.772.661.121.662Z" fill="#666"/>
          <path id="Trazado_111160" data-name="Trazado 111160" d="M677.471,6838.915h-.015a.5.5,0,0,1-.485-.515c.029-1,2.834-99.834-1.882-115.121-4.768-15.453-3.343-35.532-3.328-35.733l5.625-46.32c.018-.253,2.117-27.7.9-40.732-.389-4.182-1.272-9.375-2.208-14.873-2.009-11.815-4.509-26.521-3.489-39.445l2.81-24.272a.5.5,0,0,1,.994.115l-2.809,24.253c-1.01,12.784,1.48,27.42,3.481,39.181.937,5.518,1.824,10.729,2.217,14.947,1.224,13.119-.88,40.649-.9,40.926l-5.624,46.317c-.013.176-1.423,20.071,3.288,35.341,4.765,15.445,2.045,111.369,1.927,115.446A.5.5,0,0,1,677.471,6838.915Z" fill="#4d4d4d"/>
          <g id="Grupo_56869" data-name="Grupo 56869">
            <path id="Trazado_111161" data-name="Trazado 111161" d="M708.45,6620.467s-23.924-2.607-29.349-3.651" fill="#fff"/>
            <path id="Trazado_111162" data-name="Trazado 111162" d="M708.408,6620.841c-.239-.027-24-2.622-29.379-3.658l.143-.736c5.349,1.029,29.079,3.622,29.318,3.648Z" fill="#999"/>
          </g>
          <path id="Trazado_111163" data-name="Trazado 111163" d="M629.059,6616.724l-1-.058c.034-.581,3.406-58.292,5.34-73.3l.992.127C632.463,6558.467,629.093,6616.143,629.059,6616.724Z" fill="#999"/>
          <g id="Grupo_56873" data-name="Grupo 56873">
            <g id="Grupo_56870" data-name="Grupo 56870">
              <path id="Trazado_111164" data-name="Trazado 111164" d="M667.741,6502.343v8.929a4.5,4.5,0,0,0,4.106.3l.082-9.232a7.161,7.161,0,0,0,5.4-7.11s.771-7.881-7.165-7.55-6.614,9.48-6.614,9.48S664.985,6501.792,667.741,6502.343Z" fill="#fff"/>
              <path id="Trazado_111165" data-name="Trazado 111165" d="M670.078,6512.308a4.748,4.748,0,0,1-2.552-.729l-.161-.112v-8.831c-2.74-.831-4.112-5.171-4.171-5.362-.04-.247-.657-4.732,1.75-7.631a6.807,6.807,0,0,1,5.207-2.336,7.047,7.047,0,0,1,5.679,1.936c2.207,2.335,1.888,5.877,1.873,6.026a7.485,7.485,0,0,1-5.4,7.357l-.082,9.2-.231.095A5,5,0,0,1,670.078,6512.308Zm-1.963-1.247a4.129,4.129,0,0,0,3.359.254l.084-9.27.288-.067a6.729,6.729,0,0,0,5.109-6.742c.005-.072.3-3.4-1.674-5.481a6.334,6.334,0,0,0-5.1-1.7,6.088,6.088,0,0,0-4.661,2.065c-2.2,2.645-1.6,6.944-1.6,6.987h0c.005,0,1.391,4.366,3.891,4.866l.3.061Z" fill="#999"/>
            </g>
            <g id="Grupo_56871" data-name="Grupo 56871">
              <rect id="Rectángulo_10495" data-name="Rectángulo 10495" width="16.211" height="2.78" rx="1.209" transform="translate(662.305 6491.474)" fill="#fff"/>
              <path id="Trazado_111166" data-name="Trazado 111166" d="M677.307,6494.754H663.514a1.711,1.711,0,0,1-1.709-1.709v-.363a1.71,1.71,0,0,1,1.709-1.708h13.793a1.711,1.711,0,0,1,1.709,1.708v.363A1.711,1.711,0,0,1,677.307,6494.754Zm-13.793-2.78a.709.709,0,0,0-.709.708v.363a.71.71,0,0,0,.709.709h13.793a.711.711,0,0,0,.709-.709v-.363a.71.71,0,0,0-.709-.708Z" fill="#999"/>
            </g>
            <g id="Grupo_56872" data-name="Grupo 56872">
              <rect id="Rectángulo_10496" data-name="Rectángulo 10496" width="16.211" height="2.78" rx="1.209" transform="translate(662.305 6496.691)" fill="#fff"/>
              <path id="Trazado_111167" data-name="Trazado 111167" d="M677.307,6499.972H663.514a1.711,1.711,0,0,1-1.709-1.709v-.364a1.711,1.711,0,0,1,1.709-1.708h13.793a1.711,1.711,0,0,1,1.709,1.708v.364A1.711,1.711,0,0,1,677.307,6499.972Zm-13.793-2.781a.709.709,0,0,0-.709.708v.364a.711.711,0,0,0,.709.709h13.793a.711.711,0,0,0,.709-.709v-.364a.71.71,0,0,0-.709-.708Z" fill="#999"/>
            </g>
          </g>
          <g id="Grupo_56874" data-name="Grupo 56874" opacity="0.71">
            <path id="Trazado_111168" data-name="Trazado 111168" d="M657.131,6723.45s12.027-3.043,17.94-2.26l-4.348-10.215a30.531,30.531,0,0,1-.956-10.268c.434-5.778,3.479-35.6,3.479-35.6L676.9,6631.8l1.13-11.194a104,104,0,0,0,.435-13.154c-.348-4.956-3.727-33.21-3.727-33.21s-2.853-16.019-2.693-19.317c0,0-8.971.788-15.319-2.081l-11.391-10.261-9.392-6s-1.652,2.956-18.086,6.435-19.479,5.565-19.479,5.565L558.462,6577.1s8.261,5.739,12.087,25.043,6.087,32.215,6.087,32.215,7.739,26.481,16.7,43.35l8.435,18.174,2.719,4.822s2.585,4.231,3.454,2.922a4.319,4.319,0,0,0,.522-4.526,65.647,65.647,0,0,0-3.976-6.957s-1.684-3.739-.941-5.565,3.526,1.391,3.526,1.391l3.391,8.435s2.348,4.516,0,8.562-11.3,16.308-11.3,16.308,3.913-2.261,13.217.956,20.348,6.783,20.348,6.783.926-12.957,2.941-15.826c0,0,1.3,12.087,3.569,14.782l13.751-3.739.348-12.7S656.583,6720.407,657.131,6723.45Z" fill="#ccc"/>
            <path id="Trazado_111169" data-name="Trazado 111169" d="M632.723,6729.515a.477.477,0,0,1-.153-.024c-.111-.035-11.155-3.6-20.358-6.785-8.917-3.085-12.769-1.018-12.808-1a.5.5,0,0,1-.65-.73c.089-.122,8.968-12.286,11.275-16.262,2.178-3.753.011-8.039-.011-8.081l-3.38-8.4c-.792-.9-1.9-1.817-2.408-1.714-.039.006-.131.022-.222.245-.542,1.333.49,4.186.934,5.172a63.215,63.215,0,0,1,3.986,6.98,4.822,4.822,0,0,1-.57,4.984,1,1,0,0,1-.87.475c-1.262-.024-2.944-2.618-3.429-3.412l-2.728-4.837-8.452-18.208c-8.867-16.7-16.645-43.157-16.723-43.421-.035-.184-2.316-13.182-6.1-32.258-3.734-18.835-11.8-24.675-11.883-24.731a.5.5,0,0,1-.005-.818l39.913-28.521c.136-.093,3.322-2.189,19.666-5.648,15.693-3.321,17.745-6.177,17.764-6.206a.517.517,0,0,1,.7-.16l9.392,6,11.4,10.258c6.148,2.744,14.912,2.014,15,2.007a.542.542,0,0,1,.391.137.5.5,0,0,1,.152.385c-.155,3.2,2.657,19.046,2.686,19.205.038.312,3.389,28.352,3.734,33.263a105.413,105.413,0,0,1-.435,13.236l-1.132,11.2-3.652,33.308c-.03.294-3.047,29.882-3.476,35.587a30.385,30.385,0,0,0,.934,10.084l4.33,10.165a.5.5,0,0,1-.061.5.508.508,0,0,1-.464.193c-5.75-.764-17.632,2.22-17.751,2.249a.476.476,0,0,1-.393-.064.5.5,0,0,1-.222-.331,88.416,88.416,0,0,0-2.88-9.322l-.275,10.03a.5.5,0,0,1-.37.469l-13.75,3.739a.5.5,0,0,1-.513-.16c-1.828-2.17-3.014-9.814-3.472-13.3-1.444,4.3-2.149,13.949-2.157,14.062a.5.5,0,0,1-.5.463ZM603.453,6720a28.016,28.016,0,0,1,9.085,1.759c7.96,2.752,17.3,5.794,19.736,6.584.216-2.683,1.149-12.834,2.981-15.443a.493.493,0,0,1,.534-.2.5.5,0,0,1,.372.431c.013.116,1.232,11.277,3.267,14.265l13.066-3.552.338-12.326a.5.5,0,0,1,.419-.479.492.492,0,0,1,.551.321c.126.345,2.952,8.071,3.715,11.476,2.261-.547,11.3-2.624,16.762-2.233l-4.016-9.436a30.629,30.629,0,0,1-.995-10.5c.43-5.719,3.449-35.32,3.48-35.618l3.652-33.308,1.13-11.19a104.337,104.337,0,0,0,.433-13.069c-.343-4.887-3.691-32.9-3.725-33.185-.107-.6-2.6-14.629-2.7-18.84-2.07.121-9.459.353-15.022-2.162a.518.518,0,0,1-.129-.085L645,6542.952l-8.964-5.719c-1.014.974-4.769,3.455-18.076,6.272-16,3.386-19.271,5.469-19.3,5.491l-39.361,28.127c1.939,1.653,8.447,8.279,11.746,24.926,3.784,19.089,6.067,32.1,6.089,32.226.066.21,7.816,26.572,16.646,43.2l8.446,18.2,2.7,4.787c.926,1.512,2.165,2.919,2.573,2.919h.018a3.843,3.843,0,0,0,.484-4.095,65.834,65.834,0,0,0-3.93-6.868c-.218-.468-1.785-4.057-.984-6.025a1.271,1.271,0,0,1,.986-.855c1.286-.2,3.043,1.719,3.38,2.108a.475.475,0,0,1,.086.141l3.392,8.435c.081.15,2.426,4.763-.031,9-1.912,3.294-8.051,11.826-10.41,15.08A13.561,13.561,0,0,1,603.453,6720Z" fill="#4d4d4d"/>
          </g>
          <path id="Trazado_111170" data-name="Trazado 111170" d="M582.81,6649.776a.5.5,0,0,1-.317-.886c.411-.337,41.414-33.7,70.04-37.673a.678.678,0,0,1,.109,0c.9.072,22.193,1.8,25.163,3.012a.5.5,0,0,1-.377.926c-2.258-.921-17.184-2.321-24.812-2.937-28.344,3.967-69.081,37.113-69.49,37.448A.5.5,0,0,1,582.81,6649.776Z" fill="#4d4d4d"/>
          <path id="Trazado_111171" data-name="Trazado 111171" d="M604.486,6685.689a.491.491,0,0,1-.276-.083.5.5,0,0,1-.141-.692l33.505-50.828,13.871-19.685a.5.5,0,1,1,.818.576L638.4,6634.649l-33.5,50.816A.5.5,0,0,1,604.486,6685.689Z" fill="#4d4d4d"/>
          <g id="Grupo_56875" data-name="Grupo 56875">
            <path id="Trazado_111172" data-name="Trazado 111172" d="M611.375,6696.494a.5.5,0,0,1-.433-.749l1.238-2.166a.5.5,0,1,1,.869.5l-1.24,2.168A.5.5,0,0,1,611.375,6696.494Z" fill="#4d4d4d"/>
            <path id="Trazado_111173" data-name="Trazado 111173" d="M615.057,6690.031a.481.481,0,0,1-.246-.065.5.5,0,0,1-.189-.681c.742-1.311,1.565-2.767,2.434-4.31a.5.5,0,0,1,.871.491c-.869,1.545-1.691,3-2.436,4.311A.5.5,0,0,1,615.057,6690.031Zm4.852-8.628a.5.5,0,0,1-.436-.743c.794-1.425,1.6-2.878,2.4-4.327a.5.5,0,0,1,.875.482c-.8,1.451-1.607,2.907-2.4,4.331A.5.5,0,0,1,619.909,6681.4Zm4.781-8.668a.508.508,0,0,1-.24-.06.5.5,0,0,1-.2-.679c.821-1.511,1.611-2.977,2.342-4.355a.5.5,0,0,1,.883.469c-.732,1.38-1.523,2.85-2.346,4.364A.5.5,0,0,1,624.69,6672.735Zm4.623-8.755a.5.5,0,0,1-.447-.724c.331-.658.632-1.269.9-1.821l1.26-2.628a.5.5,0,0,1,.9.434l-1.26,2.626c-.267.558-.57,1.174-.905,1.838A.5.5,0,0,1,629.313,6663.98Zm4.3-8.922a.488.488,0,0,1-.216-.049.5.5,0,0,1-.234-.667l2.147-4.463a.5.5,0,1,1,.9.433l-2.146,4.463A.5.5,0,0,1,633.617,6655.058Zm4.295-8.924a.5.5,0,0,1-.45-.717l2.148-4.459a.5.5,0,1,1,.9.433l-2.148,4.459A.5.5,0,0,1,637.912,6646.134Zm4.295-8.92a.492.492,0,0,1-.217-.05.5.5,0,0,1-.233-.667l2.149-4.462a.5.5,0,0,1,.9.434l-2.15,4.462A.5.5,0,0,1,642.207,6637.214Zm4.3-8.921a.5.5,0,0,1-.45-.717l2.15-4.462a.5.5,0,0,1,.9.434l-2.151,4.462A.5.5,0,0,1,646.506,6628.293Z" fill="#4d4d4d"/>
            <path id="Trazado_111174" data-name="Trazado 111174" d="M650.77,6619.444a.474.474,0,0,1-.217-.05.5.5,0,0,1-.233-.667l1.084-2.249a.5.5,0,0,1,.9.436l-1.084,2.247A.5.5,0,0,1,650.77,6619.444Z" fill="#4d4d4d"/>
          </g>
          <path id="Trazado_111175" data-name="Trazado 111175" d="M707.921,6618.855l4.78-.235.56,1.356,1.7-.038s.975-3.568-.309-4.964l-1.24-.261-.655,1.778-4.831,1.012-.891.489-.018.672Z" fill="#666"/>
          <path id="Trazado_111176" data-name="Trazado 111176" d="M652.964,6610.818l3.65-3.1,1.27.736,1.323-1.064s-1.4-3.424-3.266-3.75l-1.143.548.562,1.809-3.217,3.743-.409.931.4.544Z" fill="#666"/>
          <path id="Trazado_111177" data-name="Trazado 111177" d="M605.238,6545.359l-.325-4.775,1.345-.586-.07-1.7s-3.586-.907-4.957.4l-.237,1.245,1.789.621,1.1,4.811.506.882.672,0Z" fill="#666"/>
          <path id="Trazado_111178" data-name="Trazado 111178" d="M603.683,6545.773l-3.63-3.12.528-1.369-1.257-1.141s-3.164,1.918-3.193,3.814l.721,1.043,1.7-.839,4.2,2.59.983.259.476-.475Z" fill="#666"/>
          <path id="Trazado_111179" data-name="Trazado 111179" d="M616.79,6617.163l3.65-3.1,1.269.736,1.324-1.063s-1.4-3.425-3.267-3.751l-1.142.548.562,1.809-3.217,3.744-.409.93.4.544Z" fill="#666"/>
          <path id="Trazado_111180" data-name="Trazado 111180" d="M606.588,6608.77l-4.024-2.59.334-1.429-1.4-.957s-2.87,2.335-2.638,4.217l.858.934,1.566-1.064,4.518,1.987,1.009.121.406-.537Z" fill="#666"/>
          <path id="Trazado_111181" data-name="Trazado 111181" d="M607.1,6611.207l-4.025,2.591.334,1.429-1.4.957s-2.869-2.335-2.637-4.218l.857-.933,1.567,1.064,4.518-1.987,1.009-.121.4.536Z" fill="#666"/>
          <path id="Trazado_111182" data-name="Trazado 111182" d="M679.579,6612.779l4.508-1.607.928,1.137,1.615-.527s-.1-3.7-1.731-4.663l-1.263.109-.113,1.891-4.332,2.366-.712.725.177.649Z" fill="#666"/>
          <path id="Trazado_111183" data-name="Trazado 111183" d="M678.531,6615.714l3.61,3.142-.536,1.366,1.25,1.149s3.175-1.9,3.217-3.795l-.715-1.047-1.7.828-4.186-2.616-.981-.265-.478.473Z" fill="#666"/>
          <g id="Grupo_56876" data-name="Grupo 56876" opacity="0.81">
            <path id="Trazado_111184" data-name="Trazado 111184" d="M663.875,6722.668l.326,4.043s5.437,1.239,9.045-.652,2.434-2.674,2.694-3.391-.739-1.239-.739-1.239a17.641,17.641,0,0,0-7.916.065l-3.41.8Z" fill="#999"/>
            <path id="Trazado_111185" data-name="Trazado 111185" d="M668.114,6727.614a19.873,19.873,0,0,1-4.024-.415.5.5,0,0,1-.387-.447l-.326-4.044c0-.014,0-.026,0-.04v-.369a.5.5,0,0,1,.385-.487l3.41-.8a17.986,17.986,0,0,1,8.165-.061.527.527,0,0,1,.1.038c.515.269,1.3.962.977,1.854a.885.885,0,0,0,0,.295c.081.923-.083,1.875-2.932,3.368A11.754,11.754,0,0,1,668.114,6727.614Zm-3.445-1.319c1.245.225,5.46.832,8.344-.678,2.5-1.309,2.441-1.937,2.4-2.4a1.6,1.6,0,0,1,.057-.725c.081-.223-.3-.5-.459-.6a17.475,17.475,0,0,0-7.615.085l-3.018.712Z" fill="#4d4d4d"/>
          </g>
          <g id="Grupo_56877" data-name="Grupo 56877" opacity="0.81">
            <path id="Trazado_111186" data-name="Trazado 111186" d="M570.288,6603.794l-5.391,4.613-6.87-11.913s-4.434-6.087-3.391-11.13a18.444,18.444,0,0,1,3.391-7.776s4.174,1.341,7.131,9.515,4.348,13.826,4.348,13.826Z" fill="#999"/>
            <path id="Trazado_111187" data-name="Trazado 111187" d="M564.9,6608.907a.491.491,0,0,1-.085-.007.5.5,0,0,1-.349-.243l-6.869-11.913c-.157-.211-4.524-6.281-3.447-11.482a18.766,18.766,0,0,1,3.5-8,.5.5,0,0,1,.531-.15c.181.058,4.442,1.51,7.447,9.819,2.933,8.1,4.351,13.82,4.364,13.877l.78,2.853a.5.5,0,0,1-.158.512l-5.391,4.613A.5.5,0,0,1,564.9,6608.907Zm-6.713-30.7a19.032,19.032,0,0,0-3.059,7.261c-.985,4.764,3.264,10.675,3.307,10.735l6.6,11.436,4.694-4.016-.7-2.56c-.017-.068-1.424-5.736-4.336-13.788C562.329,6580.754,559.175,6578.707,558.184,6578.2Z" fill="#4d4d4d"/>
          </g>
          <g id="Grupo_56878" data-name="Grupo 56878">
            <path id="Trazado_111188" data-name="Trazado 111188" d="M610.94,6698.748l-1.434,2.659-3.013-6.01-2.468-4.437s-1.6-3.688-.236-4.751,3.526,2.37,3.526,2.37l2.924,7.274Z" fill="#999"/>
            <path id="Trazado_111189" data-name="Trazado 111189" d="M609.506,6701.907H609.5a.5.5,0,0,1-.439-.275l-3.014-6.01-2.457-4.419c-.2-.458-1.733-4.125-.105-5.389a1.455,1.455,0,0,1,1.173-.284c1.457.257,2.92,2.526,3.082,2.783l2.965,7.354.724,2.963a.5.5,0,0,1-.046.355l-1.435,2.659A.5.5,0,0,1,609.506,6701.907Zm-5.131-15.4a.44.44,0,0,0-.279.1c-.8.623-.085,3.071.388,4.158l2.445,4.393,2.594,5.17.886-1.644-.656-2.708-2.9-7.207c-.482-.749-1.6-2.115-2.369-2.25A.551.551,0,0,0,604.375,6686.5Z" fill="#4d4d4d"/>
          </g>
        </g>
      </g>
    </g>
  </g>
</svg>
