<svg xmlns="http://www.w3.org/2000/svg" width="257.056" height="420.148" viewBox="0 0 257.056 420.148">
  <g id="Grupo_56842" data-name="Grupo 56842" transform="translate(-659.127 -5219.479)">
    <rect id="Rectángulo_10472" data-name="Rectángulo 10472" width="257.056" height="420.149" rx="20.87" transform="translate(659.127 5219.478)" fill="#fff"/>
    <g id="Grupo_56841" data-name="Grupo 56841" transform="translate(703.88 5246.268)">
      <g id="Grupo_56840" data-name="Grupo 56840">
        <path id="Trazado_110879" data-name="Trazado 110879" d="M703.365,5375.465s-9.2-9.539-9.378-37.858c-.091-14.841,1.139-28.676,16.133-31.914l7.031,2.262,26.24,42.891-7.871,18.087-19.9,11.476Z" transform="translate(-693.983 -5221.786)" fill="#999" stroke="#4d4d4d" stroke-linecap="round" stroke-linejoin="round" stroke-width="1" opacity="0.36"/>
        <g id="Grupo_56839" data-name="Grupo 56839" transform="translate(6.329)">
          <g id="Grupo_56838" data-name="Grupo 56838">
            <g id="Grupo_56833" data-name="Grupo 56833" transform="translate(0 23.42)">
              <path id="Trazado_110880" data-name="Trazado 110880" d="M839.086,5325.793s-13.8-5.955-19-9.428c0,0-5.05-2.436-5.262-13.452s.635-18.645,2.33-23.835l2.119-8.05s-6.144-9.533-23.3-11.758c0,0-11.547-1.06-14.2,1.695,0,0-6.991,26.165-16.525,37.818,0,0-2.013,7.733-23.2,12.075l-25,5.4s-11.547,2.437-13.348,11.864c0,0-6.991,7.521-3.178,35.488l1.059,5.719,12.288,63.347,17.9,70.975.741,2.542v7.1s-19.915,28.5-22.246,49.683-2.33,37.076-2.33,37.076,90.042,2.118,131.144,0v-28.813a95.354,95.354,0,0,0-8.475-37.5l-9.11-17.162s-1.589-1.271-1.271-12.923l7.521-39.3,9-28.285,6.781-12.5s8.827-11.51,7.7-21.116l-3.249-11.3s-.424-14.831.141-20.339l4.1-14.688,1.412-13.278s.989-6.073-3.107-9.462A103.079,103.079,0,0,0,839.086,5325.793Z" transform="translate(-698.776 -5258.446)" fill="#fff"/>
              <path id="Trazado_110881" data-name="Trazado 110881" d="M787.066,5601.732c-38.577,0-78.4-.921-79-.936l-.594-.014v-.594c0-.159.027-16.166,2.333-37.144,2.232-20.276,20.64-47.47,22.243-49.8v-6.819l-.719-2.459-17.906-71-12.3-63.38-1.061-5.726c-3.583-26.274,2.252-34.69,3.211-35.873,1.95-9.583,13.3-12.083,13.787-12.187l25-5.4c20.424-4.189,22.72-11.568,22.74-11.642l.117-.227c9.34-11.416,16.338-37.329,16.408-37.588l.149-.265c2.772-2.882,13.479-1.994,14.69-1.879,17.265,2.238,23.505,11.634,23.762,12.034l.144.225-2.187,8.313c-1.762,5.4-2.513,13.129-2.31,23.667.2,10.436,4.874,12.892,4.92,12.917,5.16,3.443,18.832,9.358,18.969,9.416l.062.032a102.483,102.483,0,0,1,11.527,7.65c4.314,3.572,3.363,9.769,3.32,10.032l-1.408,13.243-4.115,14.789c-.515,5.105-.151,18.92-.121,20.082l3.227,11.224c1.165,9.835-7.433,21.176-7.8,21.655l-6.728,12.419-8.961,28.18-7.5,39.229c-.283,10.629,1.044,12.311,1.1,12.375l.11.147,9.11,17.162a96.994,96.994,0,0,1,8.546,37.8v29.378l-.578.028C825.631,5601.5,806.508,5601.732,787.066,5601.732Zm-78.375-2.14c7.882.179,90.817,1.971,129.921.017v-28.234a95.639,95.639,0,0,0-8.422-37.249l-9.058-17.064c-.464-.57-1.656-3.047-1.375-13.289l7.532-39.4,9.022-28.353,6.823-12.607c.14-.194,8.717-11.511,7.631-20.754l-3.254-11.353c-.018-.607-.417-14.935.144-20.417l4.115-14.792,1.394-13.179c.014-.088.882-5.809-2.89-8.929a102.267,102.267,0,0,0-11.326-7.516c-.915-.395-13.955-6.054-19.062-9.468-.148-.062-5.317-2.685-5.533-13.947-.207-10.676.566-18.538,2.36-24.035l2.038-7.743c-1.034-1.4-7.492-9.3-22.721-11.274-3.057-.277-11.391-.561-13.574,1.413-.656,2.423-7.342,26.483-16.523,37.791-.389,1.128-3.607,8.273-23.624,12.379l-24.994,5.4c-.114.024-11.174,2.47-12.877,11.383l-.033.173-.119.127c-.064.072-6.732,7.771-3.021,34.989l1.057,5.693,12.286,63.343,17.894,70.94.761,2.691v7.289l-.109.157c-.2.284-19.854,28.614-22.141,49.4C708.963,5581.815,708.72,5596.51,708.691,5599.592Z" transform="translate(-698.912 -5258.583)" fill="#999"/>
            </g>
            <ellipse id="Elipse_4435" data-name="Elipse 4435" cx="2.86" cy="4.29" rx="2.86" ry="4.29" transform="translate(9.908 111.532)" fill="#999"/>
            <g id="Grupo_56834" data-name="Grupo 56834" transform="translate(93.269)">
              <path id="Trazado_110882" data-name="Trazado 110882" d="M777.5,5259.614v11.441a5.767,5.767,0,0,0,5.262.388l.105-11.829a9.175,9.175,0,0,0,6.922-9.11s.989-10.1-9.182-9.674-8.474,12.146-8.474,12.146S773.968,5258.908,777.5,5259.614Z" transform="translate(-771.419 -5240.208)" fill="#fff"/>
              <path id="Trazado_110883" data-name="Trazado 110883" d="M780.629,5272.646a6.238,6.238,0,0,1-3.345-.957l-.261-.182v-11.291c-3.514-1.153-5.263-6.68-5.339-6.925-.055-.339-.854-6.141,2.265-9.9a8.845,8.845,0,0,1,6.765-3.041c3.187-.124,5.671.714,7.378,2.521,2.868,3.033,2.454,7.628,2.434,7.821a9.69,9.69,0,0,1-6.922,9.507l-.105,11.783-.374.154A6.537,6.537,0,0,1,780.629,5272.646Zm-2.387-1.8a5.141,5.141,0,0,0,4.047.309l.108-11.888.467-.108a8.505,8.505,0,0,0,6.448-8.514c.006-.105.377-4.313-2.109-6.937-1.453-1.533-3.622-2.262-6.437-2.134a7.681,7.681,0,0,0-5.874,2.594c-2.775,3.337-2.03,8.8-2.022,8.858h0c.008,0,1.76,5.5,4.882,6.127l.49.1Z" transform="translate(-771.554 -5240.343)" fill="#999"/>
            </g>
            <path id="Trazado_110884" data-name="Trazado 110884" d="M820.631,5387.25l-5.308-20.092c-4.419-14.1-5.177-22.213-6.323-34.5-.149-1.592-.3-3.252-.474-5-1.43-14.714-6.583-18.7-6.634-18.74l.719-.983c.229.166,5.634,4.255,7.127,19.606.171,1.755.326,3.416.474,5.01,1.14,12.206,1.894,20.271,6.28,34.272l5.317,20.118Z" transform="translate(-669.67 -5221.149)" fill="#999"/>
            <path id="Trazado_110885" data-name="Trazado 110885" d="M784.126,5316.7a23.473,23.473,0,0,1-5.1-.583c-17.178-3.817-31.46-22.177-31.6-22.362l.964-.743c.14.181,14.157,18.2,30.9,21.916,16.448,3.654,23.047-11.662,23.322-12.316l1.125.468C803.67,5303.23,797.894,5316.7,784.126,5316.7Z" transform="translate(-685.137 -5225.387)" fill="#999"/>
            <path id="Trazado_110886" data-name="Trazado 110886" d="M795.372,5278.225c-18.049,0-32.953-10.39-33.108-10.5l.7-.994c.161.114,16.259,11.287,35.028,10.2l.073,1.216C797.165,5278.2,796.263,5278.225,795.372,5278.225Z" transform="translate(-680.922 -5232.85)" fill="#999"/>
            <path id="Trazado_110887" data-name="Trazado 110887" d="M795.129,5272.442c-16.189,0-31.479-10.423-31.65-10.542l.691-1c.193.132,19.223,13.105,36.973,9.789l.222,1.2A34.125,34.125,0,0,1,795.129,5272.442Z" transform="translate(-680.577 -5234.506)" fill="#999"/>
            <path id="Trazado_110888" data-name="Trazado 110888" d="M773.23,5589.309l-.1-15.768c.7-15.764-2.648-50.442-2.681-50.791L769.6,5498.7l-1.271-65.124c.015-.311,1.583-26.5,3.822-38.961,2.187-12.152-7.272-24.679-7.369-24.8-.193-.383-12.448-27.073-18.881-46.792-6.288-19.275-16.255-21.6-16.354-21.626l.247-1.192c.436.09,10.733,2.419,17.264,22.441,6.412,19.651,18.637,46.278,18.761,46.544.334.412,9.812,12.956,7.53,25.644-2.226,12.392-3.789,38.506-3.8,38.771l1.271,65.064.849,24c.032.313,3.383,35.076,2.685,50.9l.1,15.737Z" transform="translate(-690.212 -5223.344)" fill="#999"/>
            <path id="Trazado_110889" data-name="Trazado 110889" d="M789.44,5596.151l-1.216-.069c.026-.435,2.465-43.551-3.575-63.132-6.109-19.8-4.283-45.519-4.264-45.775l7.206-59.35c.024-.326,2.713-35.5,1.157-52.2-.5-5.359-1.632-12.011-2.83-19.055-2.576-15.139-5.78-33.981-4.473-50.54l3.228-30.869,1.212.127-3.227,30.854c-1.294,16.394,1.9,35.151,4.46,50.223,1.2,7.067,2.337,13.744,2.841,19.146,1.566,16.808-1.13,52.08-1.157,52.435l-7.206,59.347c-.017.227-1.825,25.727,4.216,45.3C791.92,5552.382,789.465,5595.717,789.44,5596.151Z" transform="translate(-675.853 -5230.456)" fill="#999"/>
            <path id="Trazado_110890" data-name="Trazado 110890" d="M725.2,5384.279l-3.72-12.156.494-.219c.326-.143,32.9-14.37,59.989-9.729,26.9,4.606,59.289,8.853,59.614,8.894l2.4.381.114.355c.092.284,2.188,6.979-2.172,11.116l-.219.208-32.184-5.346c-.372-.074-35.5-7.14-46.871-3.83-11.524,3.353-36.622,10.105-36.874,10.173Zm-2.237-11.473,3.058,9.99c3.81-1.028,25.738-6.945,36.283-10.014,11.666-3.39,45.977,3.507,47.431,3.8l31.556,5.241c3.028-3.125,2.079-7.956,1.739-9.293l-1.627-.26c-.307-.039-32.722-4.288-59.645-8.9C756.842,5359.11,727.146,5371.048,722.963,5372.807Z" transform="translate(-692.504 -5206.011)" fill="#999"/>
            <g id="Grupo_56835" data-name="Grupo 56835" transform="translate(32.711 268.091)">
              <path id="Trazado_110891" data-name="Trazado 110891" d="M776.412,5458.166q-2.315,0-4.816-.04c-33.138-.526-46.649-7.61-47.207-7.912l.578-1.072c.135.072,13.862,7.246,46.649,7.767,32.64.5,40.789-4.411,40.868-4.459l.66,1.023C812.835,5453.675,805.557,5458.166,776.412,5458.166Z" transform="translate(-724.389 -5449.143)" fill="#999"/>
              <path id="Trazado_110892" data-name="Trazado 110892" d="M777.2,5466.269q-2.816,0-5.9-.1c-31.027-1.052-45.765-8.362-45.912-8.436l.552-1.087c.143.072,14.681,7.262,45.4,8.3,30.558,1.032,40.716-6.369,40.816-6.442l.741.967C812.513,5459.768,803.7,5466.269,777.2,5466.269Z" transform="translate(-724.105 -5447.012)" fill="#999"/>
              <path id="Trazado_110893" data-name="Trazado 110893" d="M766.21,5466.173l-3.3-3.3,2.486-3.407-3.007-3.266.895-.825,3.686,4-2.46,3.372,2.563,2.562Z" transform="translate(-713.598 -5447.373)" fill="#999"/>
              <path id="Trazado_110894" data-name="Trazado 110894" d="M769.791,5466.173l-3.3-3.3,2.484-3.407-3.008-3.266.895-.825,3.686,4-2.459,3.372,2.563,2.562Z" transform="translate(-712.582 -5447.373)" fill="#999"/>
              <path id="Trazado_110895" data-name="Trazado 110895" d="M773.644,5466.171l-3.3-3.3,2.484-3.407-3.007-3.266.895-.825,3.686,4-2.459,3.372,2.562,2.563Z" transform="translate(-711.488 -5447.373)" fill="#999"/>
              <path id="Trazado_110896" data-name="Trazado 110896" d="M777.292,5466.171l-3.3-3.3,2.484-3.407-3.008-3.266.895-.825,3.686,4-2.459,3.372,2.562,2.563Z" transform="translate(-710.452 -5447.373)" fill="#999"/>
              <path id="Trazado_110897" data-name="Trazado 110897" d="M780.805,5465.57l-3.3-3.3,2.484-3.407-3.007-3.265.895-.825,3.686,4-2.459,3.372,2.562,2.563Z" transform="translate(-709.454 -5447.544)" fill="#999"/>
              <path id="Trazado_110898" data-name="Trazado 110898" d="M746.781,5465.22,743.8,5461.7l2.8-3.025-2.663-3.415.961-.749,3.3,4.23-2.771,2.994,2.286,2.7Z" transform="translate(-718.878 -5447.618)" fill="#999"/>
              <path id="Trazado_110899" data-name="Trazado 110899" d="M750.343,5465.576l-2.984-3.518,2.8-3.025-2.663-3.416.961-.749,3.3,4.23-2.771,2.993,2.286,2.7Z" transform="translate(-717.866 -5447.517)" fill="#999"/>
              <path id="Trazado_110900" data-name="Trazado 110900" d="M754.179,5465.959l-2.984-3.517,2.8-3.026L751.332,5456l.961-.749,3.3,4.23-2.768,2.994,2.286,2.7Z" transform="translate(-716.777 -5447.408)" fill="#999"/>
              <path id="Trazado_110901" data-name="Trazado 110901" d="M735.649,5462.878l-2.984-3.517,2.8-3.026-2.663-3.415.961-.749,3.3,4.23-2.768,3,2.286,2.694Z" transform="translate(-722.039 -5448.283)" fill="#999"/>
              <path id="Trazado_110902" data-name="Trazado 110902" d="M732.163,5461.877l-2.984-3.517,2.8-3.026-2.663-3.416.961-.749,3.3,4.23-2.768,3,2.286,2.694Z" transform="translate(-723.029 -5448.567)" fill="#999"/>
              <path id="Trazado_110903" data-name="Trazado 110903" d="M729.285,5460.9l-2.984-3.518,2.8-3.027-2.663-3.414.961-.749,3.3,4.229-2.771,2.995,2.286,2.7Z" transform="translate(-723.846 -5448.846)" fill="#999"/>
              <path id="Trazado_110904" data-name="Trazado 110904" d="M739.211,5463.833l-2.984-3.518,2.8-3.025-2.663-3.416.961-.749,3.3,4.231-2.768,2.993,2.286,2.7Z" transform="translate(-721.027 -5448.012)" fill="#999"/>
              <path id="Trazado_110905" data-name="Trazado 110905" d="M743.047,5464.216l-2.985-3.519,2.8-3.025-2.663-3.415.961-.749,3.3,4.23-2.771,2.994,2.287,2.7Z" transform="translate(-719.938 -5447.903)" fill="#999"/>
              <path id="Trazado_110906" data-name="Trazado 110906" d="M757.808,5466.321l-2.984-3.517,2.8-3.027-2.663-3.415.961-.749,3.3,4.231-2.771,2.995,2.286,2.695Z" transform="translate(-715.746 -5447.305)" fill="#999"/>
              <path id="Trazado_110907" data-name="Trazado 110907" d="M761.363,5466.094l-2.985-3.519,2.8-3.027-2.663-3.415.961-.749,3.3,4.23-2.771,2.994,2.287,2.7Z" transform="translate(-714.737 -5447.371)" fill="#999"/>
              <path id="Trazado_110908" data-name="Trazado 110908" d="M790.813,5462.178l-3.058-2.719,2.225-2.714-2.59-2.5.847-.875,3.4,3.278-2.194,2.677,2.183,1.941Z" transform="translate(-706.499 -5447.942)" fill="#999"/>
              <path id="Trazado_110909" data-name="Trazado 110909" d="M787.912,5463.07l-3.058-2.719,2.225-2.714-2.59-2.5.847-.876,3.4,3.278-2.194,2.677,2.183,1.94Z" transform="translate(-707.323 -5447.689)" fill="#999"/>
              <path id="Trazado_110910" data-name="Trazado 110910" d="M785.259,5464.057l-3.369-2.908,2.471-2.924-2.9-2.721.831-.888,3.75,3.51-2.44,2.889,2.455,2.119Z" transform="translate(-708.183 -5447.589)" fill="#999"/>
              <path id="Trazado_110911" data-name="Trazado 110911" d="M793.125,5461.372l-2.7-2.612,1.962-2.605-2.284-2.4.882-.841,3,3.148-1.937,2.572,1.926,1.863Z" transform="translate(-705.729 -5448.072)" fill="#999"/>
            </g>
            <path id="Trazado_110912" data-name="Trazado 110912" d="M743.757,5552.277l-1.218-.022,1.06-62.389,1.907-63.985v-58.223h1.218V5425.9l-1.907,64Z" transform="translate(-686.524 -5204.19)" fill="#999"/>
            <path id="Trazado_110913" data-name="Trazado 110913" d="M725.716,5574.575l-1.189-.261c.014-.087.44-2.979,1.375-37.549.91-33.755,11.267-45.24,12.746-46.712l1.2-7.6-28.089-129.639,1.19-.256,28.139,129.86-.019.113-1.285,8.123-.157.144c-.115.107-11.565,11.019-12.51,46C726.164,5572.181,725.734,5574.494,725.716,5574.575Z" transform="translate(-695.263 -5208.478)" fill="#999"/>
            <g id="Grupo_56836" data-name="Grupo 56836" transform="translate(15.306 144.082)">
              <rect id="Rectángulo_10473" data-name="Rectángulo 10473" width="1.217" height="1.624" transform="matrix(0.978, -0.211, 0.211, 0.978, 0, 0.256)" fill="#999"/>
              <path id="Trazado_110914" data-name="Trazado 110914" d="M724.883,5568.5l-1.218-.054.141-3.242,1.218.052Zm.268-6.493-1.218-.044.118-3.244,1.217.043Zm.23-6.494-1.218-.039.105-3.247,1.218.038Zm.2-6.5-1.217-.039.1-3.243,1.218.034Zm.191-6.493-1.218-.034.092-3.248,1.217.035Zm.18-6.5-1.217-.018.008-.3q.04-1.509.107-2.965l1.217.056q-.065,1.443-.105,2.944Zm.3-6.459-1.215-.08q.11-1.668.252-3.253l1.212.108Q726.364,5527.914,726.251,5529.567Zm.58-6.442-1.211-.137q.189-1.665.413-3.237l1.206.17Q727.02,5521.476,726.832,5523.125Zm.908-6.394-1.2-.207q.285-1.666.6-3.21l1.193.244Q728.025,5515.085,727.739,5516.731Zm1.3-6.32-1.184-.286q.4-1.659.828-3.166l1.171.333Q729.434,5508.777,729.039,5510.411Zm1.758-6.2-1.156-.384q.547-1.646,1.106-3.085l1.136.44Q731.336,5502.6,730.8,5504.212Zm2.332-5.989-1.108-.507c.474-1.035.967-2.026,1.466-2.944l1.07.58C734.071,5496.249,733.589,5497.213,733.128,5498.224Zm3.071-5.607-1.013-.675a21.938,21.938,0,0,1,2.032-2.649l.9.822A21.189,21.189,0,0,0,736.2,5492.617Zm2.882-5.877-1.2-.19.507-3.21,1.2.192Zm-.61-6.372-.688-3.175,1.189-.257.688,3.176Zm-1.376-6.351-.69-3.176,1.19-.257.688,3.177Zm-1.376-6.352-.688-3.175,1.19-.257.688,3.175Zm-1.376-6.35-.688-3.177,1.189-.256.689,3.175Zm-1.376-6.352-.687-3.175,1.189-.257.687,3.175Zm-1.375-6.35-.689-3.176,1.19-.257.688,3.177Zm-1.378-6.351-.688-3.176,1.19-.257.688,3.175Zm-1.375-6.351-.688-3.176,1.19-.257.688,3.175Zm-1.376-6.352-.688-3.175,1.189-.256.688,3.175Zm-1.375-6.352-.688-3.175,1.189-.257.688,3.175Zm-1.378-6.35-.688-3.175,1.19-.256.688,3.174Zm-1.376-6.349-.687-3.177,1.19-.257.687,3.175Zm-1.375-6.352-.688-3.175,1.189-.256.689,3.175Zm-1.376-6.352-.688-3.175,1.189-.257.688,3.175Zm-1.375-6.351-.689-3.175,1.19-.257.688,3.176Zm-1.378-6.352-.688-3.175,1.19-.256.688,3.175Zm-1.375-6.351-.688-3.175,1.19-.258.688,3.176Zm-1.376-6.351-.688-3.175,1.189-.256.688,3.175Zm-1.376-6.35-.687-3.175,1.189-.257.687,3.176Zm-1.376-6.352-.688-3.175,1.19-.256.688,3.175Z" transform="translate(-710.605 -5351.506)" fill="#999"/>
              <path id="Trazado_110915" data-name="Trazado 110915" d="M721.968,5525.863l-1.193-.254c.005-.032.042-.321.119-1.523l1.216.077C722.051,5525.092,722,5525.712,721.968,5525.863Z" transform="translate(-708.01 -5303.853)" fill="#999"/>
            </g>
            <g id="Grupo_56837" data-name="Grupo 56837" transform="translate(17.703 144.078)">
              <rect id="Rectángulo_10474" data-name="Rectángulo 10474" width="1.217" height="1.623" transform="matrix(0.977, -0.212, 0.212, 0.977, 0, 0.258)" fill="#999"/>
              <path id="Trazado_110916" data-name="Trazado 110916" d="M726.751,5568.5l-1.218-.054.141-3.242,1.219.051Zm.268-6.5-1.219-.04.116-3.246,1.218.042Zm.227-6.489-1.218-.039.1-3.247,1.219.038Zm.205-6.5-1.218-.038.1-3.244,1.217.034Zm.189-6.492-1.218-.034.092-3.248,1.218.035Zm.181-6.5L726.6,5536l.008-.3c.026-1.006.063-2,.107-2.966l1.219.058q-.067,1.441-.107,2.945Zm.3-6.461-1.216-.08q.11-1.667.254-3.253l1.212.111C728.273,5527.389,728.19,5528.46,728.117,5529.563Zm.576-6.44-1.208-.139q.191-1.664.413-3.237l1.206.173Q728.886,5521.476,728.693,5523.123Zm.913-6.4-1.2-.205q.285-1.667.6-3.211l1.193.243Q729.89,5515.084,729.606,5516.728Zm1.3-6.319-1.183-.285q.4-1.658.828-3.167l1.17.335Q731.3,5508.773,730.9,5510.408Zm1.759-6.2-1.154-.384q.547-1.645,1.106-3.084l1.136.44Q733.2,5502.594,732.662,5504.209Zm2.33-5.989-1.107-.5c.464-1.018.957-2.011,1.465-2.946l1.07.581C735.926,5496.263,735.444,5497.229,734.992,5498.22Zm3.073-5.6-1.012-.677a22.117,22.117,0,0,1,2.032-2.649l.9.821A21.088,21.088,0,0,0,738.065,5492.615Zm2.884-5.876-1.2-.191.507-3.21,1.2.19Zm-.61-6.373-.689-3.176,1.19-.258.688,3.177Zm-1.378-6.352-.688-3.176,1.19-.257.688,3.175Zm-1.375-6.352-.688-3.176,1.189-.257.689,3.177Zm-1.376-6.352-.688-3.175,1.189-.257.688,3.175Zm-1.375-6.35-.688-3.175,1.189-.258.688,3.177Zm-1.378-6.351-.688-3.176,1.19-.257.688,3.175Zm-1.375-6.351-.688-3.177,1.19-.257.688,3.177Zm-1.376-6.353-.688-3.175,1.189-.257.688,3.176Zm-1.375-6.35-.688-3.177,1.189-.257.688,3.175Zm-1.378-6.353-.688-3.175,1.19-.257.688,3.176Zm-1.375-6.349-.688-3.177,1.19-.257.688,3.177ZM725.2,5410.5l-.688-3.175,1.189-.257.689,3.176Zm-1.376-6.35-.687-3.177,1.189-.257.687,3.175Zm-1.375-6.352-.689-3.176,1.19-.257.688,3.176Zm-1.378-6.353-.687-3.175,1.19-.257.687,3.176Zm-1.375-6.35-.688-3.176,1.19-.258.688,3.176Zm-1.376-6.353-.687-3.174,1.19-.257.686,3.175Zm-1.375-6.349-.688-3.176,1.189-.256.688,3.175Zm-1.378-6.353-.686-3.175,1.189-.257.687,3.176Zm-1.375-6.35-.688-3.176,1.19-.258.688,3.176Z" transform="translate(-712.472 -5351.502)" fill="#999"/>
              <path id="Trazado_110917" data-name="Trazado 110917" d="M723.832,5525.863l-1.19-.259c.005-.036.045-.326.119-1.521l1.215.076C723.918,5525.089,723.865,5525.711,723.832,5525.863Z" transform="translate(-709.877 -5303.849)" fill="#999"/>
            </g>
            <path id="Trazado_110918" data-name="Trazado 110918" d="M712.734,5367c-7.749,0-13.819-13.078-13.819-29.774s6.071-29.776,13.819-29.776,13.819,13.08,13.819,29.776S720.483,5367,712.734,5367Zm0-58.333c-6.947,0-12.6,12.813-12.6,28.559s5.653,28.557,12.6,28.557,12.6-12.81,12.6-28.557S719.682,5308.672,712.734,5308.672Z" transform="translate(-698.911 -5221.285)" fill="#999"/>
            <path id="Trazado_110919" data-name="Trazado 110919" d="M818.168,5374.685l5.932-1.554,1.059,1.554,2.119-.494s.282-4.731-1.695-6.144h-1.624l-.353,2.4-5.791,2.542-.989.847.154.847Z" transform="translate(-665.429 -5204.08)" fill="#999"/>
            <path id="Trazado_110920" data-name="Trazado 110920" d="M739.829,5300.086l.272-6.126,1.8-.552.154-2.17s-4.435-1.671-6.37-.2l-.482,1.553,2.189,1.048.715,6.284.516,1.194.855.1Z" transform="translate(-688.607 -5226.119)" fill="#999"/>
            <path id="Trazado_110921" data-name="Trazado 110921" d="M734.6,5300.463l-2.047-5.78,1.46-1.186-.67-2.07s-4.739.116-5.981,2.205l.136,1.619,2.423.15,3.019,5.557.928.914.831-.225Z" transform="translate(-690.834 -5225.836)" fill="#999"/>
            <path id="Trazado_110922" data-name="Trazado 110922" d="M713.237,5306.463l-2.047-5.78,1.46-1.186-.67-2.07s-4.739.116-5.981,2.205l.136,1.619,2.423.15,3.019,5.557.928.914.831-.224Z" transform="translate(-696.9 -5224.133)" fill="#999"/>
            <path id="Trazado_110923" data-name="Trazado 110923" d="M763.364,5364.283l2.754-3.248-1.059-1.342.565-1.271s3.813,0,4.378,3.673l-1.059.55-1.695-.41-3.319,2.542Z" transform="translate(-680.61 -5206.813)" fill="#999"/>
            <path id="Trazado_110924" data-name="Trazado 110924" d="M764.574,5368.542l2.754,3.248-1.059,1.341.565,1.271s3.813,0,4.378-3.672l-1.059-.551-1.695.409-3.319-2.542Z" transform="translate(-680.267 -5204.08)" fill="#999"/>
            <path id="Trazado_110925" data-name="Trazado 110925" d="M788.635,5368.431l3.779-1.965,1.073,1.331,1.365-.27s.846-3.718-2.61-5.084l-.773.911.024,1.744-3.215,2.671Z" transform="translate(-673.536 -5205.671)" fill="#999"/>
            <path id="Trazado_110926" data-name="Trazado 110926" d="M788.231,5369.687l4.146.977-.055,1.709,1.209.688s3.067-2.267,1.341-5.556l-1.18.186-1.12,1.337-4.181-.073Z" transform="translate(-673.549 -5204.234)" fill="#999"/>
            <path id="Trazado_110927" data-name="Trazado 110927" d="M726.433,5373.017l-4.145.977.054,1.709-1.209.687s-3.067-2.267-1.34-5.556l1.18.187,1.12,1.336,4.181-.073Z" transform="translate(-693.132 -5203.288)" fill="#999"/>
          </g>
          <path id="Trazado_110928" data-name="Trazado 110928" d="M789.9,5315.489s1.057-7.2-4.5-9c0,0-8.784-3.779-11.153,3.208,0,0,1.636-4.622-2.392-7.346s-7.373,2-7.373,2,3.2-2.657-.348-6.21-6.908.319-6.908.319,2.3-4.23-.67-6.634-8.018,2.317-8.018,2.317S764.086,5318.687,789.9,5315.489Z" transform="translate(-684.818 -5225.918)" fill="#999" stroke="#4d4d4d" stroke-linecap="round" stroke-linejoin="round" stroke-width="1" opacity="0.39"/>
          <path id="Trazado_110929" data-name="Trazado 110929" d="M782.062,5311.915l4.49,4.177-.745,1.727,1.552,1.524s4.146-2.3,4.279-4.723l-.869-1.372-2.217.988-5.249-3.528-1.245-.38-.633.584Z" transform="translate(-675.482 -5220.469)" fill="#999"/>
          <path id="Trazado_110930" data-name="Trazado 110930" d="M783.009,5311.814l-2.734,5.49,1.3,1.354-.917,1.972s-4.689-.689-5.667-2.915l.333-1.589,2.422.145,3.673-5.149,1.031-.794.8.325Z" transform="translate(-677.307 -5220.469)" fill="#999"/>
        </g>
        <path id="Trazado_110931" data-name="Trazado 110931" d="M709.069,5309.294s19.168-3.136,18.477,37.616c-.464,27.329-8.61,33.264-14.463,33.264-4.468,0-15.4-9.067-15.4-9.067s7.376,30.222,13.218,49.274c0,0,5.719,18.789,11.622,35.554,6.107,17.342,9.223,46.883,9.223,46.883l-5.493,6.577,34.8,6.328,2.071-3.229,3.272,3.688,42.748-.877,4.719-90.267s.94-39.734-.994-59-8.456-50.795-8.456-50.795-20.05,1.483-38.137-22.236c0,0-18.386,9.081-36.408,11.843S709.069,5309.294,709.069,5309.294Z" transform="translate(-692.932 -5225.387)" fill="#ccc" stroke="#4d4d4d" stroke-linecap="round" stroke-linejoin="round" stroke-width="1" opacity="0.84"/>
      </g>
      <path id="Trazado_110932" data-name="Trazado 110932" d="M766.946,5362.714l-6.036,1.08-.933-1.633-2.151.325s-.656,4.694,1.2,6.259l1.619.128.542-2.365,5.974-2.076,1.053-.767-.087-.856Z" transform="translate(-675.886 -5205.751)" fill="#999"/>
      <path id="Trazado_110933" data-name="Trazado 110933" d="M765.986,5383.508l-6.035-1.088-.307-1.855-2.13-.444s-2.248,4.173-1.049,6.286l1.473.684,1.332-2.028,6.323.132,1.253-.353.217-.833Z" transform="translate(-676.34 -5200.651)" fill="#999"/>
      <path id="Trazado_110934" data-name="Trazado 110934" d="M765.7,5404.13l-6.035-1.088-.307-1.855-2.13-.444s-2.248,4.173-1.049,6.286l1.473.684,1.331-2.029,6.324.132,1.253-.353.217-.833Z" transform="translate(-676.421 -5194.796)" fill="#999"/>
      <path id="Trazado_110935" data-name="Trazado 110935" d="M765.076,5424.752l-6.035-1.089-.307-1.855-2.129-.444s-2.25,4.173-1.05,6.288l1.474.683,1.33-2.029,6.323.132,1.253-.353.217-.833Z" transform="translate(-676.598 -5188.939)" fill="#999"/>
      <path id="Trazado_110936" data-name="Trazado 110936" d="M765.986,5448.646l-6.035-1.089-.307-1.855-2.13-.443s-2.248,4.173-1.049,6.286l1.473.685,1.332-2.03,6.323.132,1.253-.352.217-.834Z" transform="translate(-676.34 -5182.154)" fill="#999"/>
      <path id="Trazado_110937" data-name="Trazado 110937" d="M737.987,5450.607l-6.126-.28-.549-1.8-2.17-.157s-1.676,4.434-.207,6.37l1.55.482,1.052-2.188,6.285-.706,1.2-.516.1-.855Z" transform="translate(-684.229 -5181.271)" fill="#999"/>
      <path id="Trazado_110938" data-name="Trazado 110938" d="M733.281,5430.028l-6.126-.28-.549-1.8-2.17-.156s-1.676,4.434-.208,6.369l1.551.483,1.052-2.188,6.285-.706,1.2-.516.1-.855Z" transform="translate(-685.565 -5187.114)" fill="#999"/>
      <path id="Trazado_110939" data-name="Trazado 110939" d="M729.335,5406.631l-6.126-.278-.55-1.8-2.17-.157s-1.676,4.434-.207,6.37l1.551.482,1.05-2.187,6.285-.706,1.2-.517.1-.854Z" transform="translate(-686.686 -5193.757)" fill="#999"/>
      <path id="Trazado_110940" data-name="Trazado 110940" d="M724.317,5388.183l-6.126-.278-.55-1.8-2.17-.157s-1.676,4.435-.208,6.371l1.551.482,1.052-2.188,6.284-.708,1.2-.515.1-.855Z" transform="translate(-688.111 -5198.996)" fill="#999"/>
      <path id="Trazado_110941" data-name="Trazado 110941" d="M719.233,5364.341l-6.126-.279-.55-1.8-2.17-.158s-1.676,4.435-.207,6.371l1.551.483,1.05-2.187,6.285-.708,1.2-.515.1-.855Z" transform="translate(-689.554 -5205.767)" fill="#999"/>
      <path id="Trazado_110942" data-name="Trazado 110942" d="M772.661,5498.854s-2.4-74.352-1.357-81.244,3.083-32.9,3.083-32.9,4.111-41.8-53.785-43.176" transform="translate(-686.424 -5211.608)" fill="none" stroke="#999" stroke-miterlimit="10" stroke-width="1"/>
      <path id="Trazado_110943" data-name="Trazado 110943" d="M698.615,5372.937s12.625,12.292,18.756,9.206,13.046-7.456,14.624-29.6-4.359-46.668-14.722-48.93" transform="translate(-692.667 -5222.376)" fill="none" stroke="#999" stroke-miterlimit="10" stroke-width="1"/>
    </g>
  </g>
</svg>
