<svg xmlns="http://www.w3.org/2000/svg" xmlns:xlink="http://www.w3.org/1999/xlink" width="203.741" height="325.996" viewBox="0 0 203.741 325.996">
  <defs>
    <clipPath id="clip-path">
      <rect id="Rectángulo_10506" data-name="Rectángulo 10506" width="203.741" height="325.996" rx="16" fill="none"/>
    </clipPath>
  </defs>
  <g id="Grupo_56884" data-name="Grupo 56884" transform="translate(-523.332 -6579.478)">
    <rect id="Rectángulo_10499" data-name="Rectángulo 10499" width="203.741" height="325.996" rx="16" transform="translate(523.332 6579.478)" fill="#fff"/>
    <g id="Grupo_56897" data-name="Grupo 56897" transform="translate(523.332 6579.478)">
      <g id="Grupo_56896" data-name="Grupo 56896" clip-path="url(#clip-path)">
        <g id="Grupo_56895" data-name="Grupo 56895" transform="translate(31.145 21.309)">
          <path id="Trazado_111190" data-name="Trazado 111190" d="M636.32,6667.433l4.231,3.776-.7,1.561,1.462,1.378s3.907-2.077,4.033-4.27l-.819-1.24-2.089.893-4.946-3.189-1.173-.345-.6.529Z" transform="translate(-536.246 -6590.827)" fill="#999"/>
          <path id="Trazado_111191" data-name="Trazado 111191" d="M636.579,6667.341,634,6672.3l1.228,1.225-.864,1.783s-4.419-.625-5.34-2.635l.313-1.437,2.283.131,3.461-4.655.972-.718.752.293Z" transform="translate(-537.332 -6590.827)" fill="#999"/>
          <g id="Grupo_56885" data-name="Grupo 56885" transform="translate(0 20.394)">
            <path id="Trazado_111192" data-name="Trazado 111192" d="M677.218,6675.321s-12.518-5.184-17.231-8.206c0,0-4.579-2.12-4.772-11.708s.576-16.225,2.114-20.742l1.922-7.006s-5.573-8.3-21.138-10.233c0,0-10.473-.922-12.875,1.475,0,0-6.342,22.771-14.989,32.912,0,0-1.826,6.729-21.042,10.509l-22.676,4.7s-10.473,2.121-12.106,10.325c0,0-6.342,6.545-2.883,30.883l.961,4.979,11.146,55.13,16.238,61.767.672,2.213v6.176s-18.063,24.8-20.177,43.237-1.646,101.456-1.646,101.456,75.419,8.727,119.606,2.909l-1.125-97.174a80.079,80.079,0,0,0-7.687-32.635l-8.262-14.935s-1.441-1.106-1.153-11.247l6.821-34.2,8.167-24.615,6.149-10.878s8.008-10.018,6.983-18.376l-2.946-9.833s-.385-12.908.128-17.7l3.716-12.784,1.281-11.555s.9-5.286-2.818-8.235A93.862,93.862,0,0,0,677.218,6675.321Z" transform="translate(-550.069 -6616.833)" fill="#fff"/>
            <path id="Trazado_111193" data-name="Trazado 111193" d="M641.258,6988.543c-39.6,0-81.948-4.831-82.512-4.9l-.381-.043,0-.369c0-.83-.444-83.252,1.648-101.5,2.032-17.712,18.871-41.5,20.175-43.323v-5.986l-.655-2.155-16.241-61.782-11.151-55.152-.962-4.982c-3.272-23.021,2.116-30.233,2.907-31.149,1.741-8.29,12.314-10.523,12.422-10.545l22.674-4.7c18.623-3.663,20.694-10.144,20.713-10.21l.084-.155c8.489-9.955,14.841-32.528,14.9-32.755l.107-.181c2.52-2.513,12.795-1.64,13.229-1.6,15.6,1.94,21.232,10.077,21.465,10.423l.1.154-1.971,7.186c-1.6,4.7-2.283,11.442-2.1,20.628.184,9.165,4.484,11.319,4.527,11.34,4.677,2.995,17.087,8.144,17.212,8.2l.044.022a94.857,94.857,0,0,1,10.438,6.647c3.863,3.068,3.009,8.4,2.971,8.625l-1.279,11.532-3.728,12.851c-.474,4.49-.14,16.617-.114,17.524l2.931,9.783c1.048,8.5-6.723,18.33-7.055,18.745l-6.112,10.824-8.134,24.542-6.809,34.154c-.262,9.4.973,10.81,1.026,10.866l.084.107,8.262,14.935a81.349,81.349,0,0,1,7.738,32.841l1.13,97.527-.381.05A295.653,295.653,0,0,1,641.258,6988.543Zm-82.026-5.684c5.851.654,76.671,8.354,118.733,2.916l-1.12-96.8a80.427,80.427,0,0,0-7.649-32.467l-8.221-14.861c-.389-.428-1.49-2.452-1.232-11.5l6.83-34.269,8.178-24.664,6.181-10.952c.117-.154,7.925-10.037,6.934-18.128l-2.95-9.87c-.016-.528-.379-12.99.13-17.755l3.728-12.854,1.268-11.485c.012-.074.811-5.111-2.663-7.87a93.281,93.281,0,0,0-10.295-6.555c-.775-.321-12.643-5.259-17.277-8.232-.144-.061-4.77-2.315-4.965-12.048-.186-9.278.511-16.108,2.135-20.879l1.862-6.8c-.838-1.106-6.694-8.153-20.72-9.9-2.8-.247-10.453-.491-12.43,1.28-.494,1.733-6.715,23.134-14.987,32.893-.3.883-3.087,7.127-21.346,10.718l-22.671,4.7c-.1.021-10.21,2.164-11.77,9.995l-.022.116-.086.088c-.06.066-6.149,6.777-2.771,30.545l.958,4.958,11.146,55.126,16.231,61.744.686,2.315v6.308l-.078.108c-.18.248-18.025,24.924-20.1,43.044C558.863,6899.4,559.2,6976.8,559.231,6982.86Z" transform="translate(-550.13 -6616.876)" fill="#999"/>
          </g>
          <ellipse id="Elipse_4438" data-name="Elipse 4438" cx="2.594" cy="3.734" rx="2.594" ry="3.734" transform="translate(8.872 96.951)" fill="#999"/>
          <path id="Trazado_111194" data-name="Trazado 111194" d="M670.324,6735.2l-4.816-17.485c-4.006-12.263-4.693-19.323-5.733-30.009-.134-1.383-.274-2.827-.429-4.351-1.305-12.871-6.017-16.354-6.065-16.389l.515-.676c.206.144,5.067,3.674,6.417,16.983.155,1.524.3,2.97.43,4.355,1.034,10.633,1.719,17.658,5.7,29.855l4.821,17.5Z" transform="translate(-533.398 -6590.793)" fill="#999"/>
          <path id="Trazado_111195" data-name="Trazado 111195" d="M622.745,6815.443q-2.1,0-4.372-.033c-30.025-.458-42.64-6.81-42.764-6.873l.413-.736c.123.063,12.589,6.319,42.365,6.772,29.67.464,37.064-3.853,37.133-3.9l.474.7C655.712,6811.553,649.14,6815.443,622.745,6815.443Z" transform="translate(-545.997 -6574.501)" fill="#999"/>
          <path id="Trazado_111196" data-name="Trazado 111196" d="M623.555,6823.483q-2.554,0-5.352-.089c-28.116-.914-41.463-7.264-41.594-7.329l.394-.746c.13.064,13.332,6.332,41.229,7.238,27.8.9,37.007-5.564,37.1-5.629l.529.663C655.509,6817.848,647.546,6823.483,623.555,6823.483Z" transform="translate(-545.835 -6573.636)" fill="#999"/>
          <path id="Trazado_111197" data-name="Trazado 111197" d="M631.917,6671.757a21.979,21.979,0,0,1-4.6-.5c-15.54-3.313-28.466-19.259-28.594-19.421l.69-.509c.127.158,12.864,15.867,28.093,19.114,15.03,3.2,21.223-10.644,21.285-10.783l.805.32C649.537,6660.105,644.33,6671.757,631.917,6671.757Z" transform="translate(-542.248 -6592.517)" fill="#999"/>
          <path id="Trazado_111198" data-name="Trazado 111198" d="M643.534,6634.811c-16.334,0-29.821-9.022-29.963-9.118l.5-.683c.145.1,14.765,9.856,31.845,8.9l.052.834C645.154,6634.789,644.339,6634.811,643.534,6634.811Z" transform="translate(-539.84 -6595.546)" fill="#999"/>
          <path id="Trazado_111199" data-name="Trazado 111199" d="M643.426,6629.009c-14.645,0-28.483-9.052-28.639-9.155l.5-.688c.173.114,17.468,11.434,33.623,8.537l.158.823A32.076,32.076,0,0,1,643.426,6629.009Z" transform="translate(-539.642 -6596.219)" fill="#999"/>
          <path id="Trazado_111200" data-name="Trazado 111200" d="M620.464,6983.122l-.088-86.786c.633-13.72-2.4-43.907-2.431-44.211l-.772-20.92-1.152-56.673c.015-.262,1.434-23.047,3.465-33.886,1.993-10.635-6.619-21.564-6.706-21.674-.161-.312-11.273-23.533-17.108-40.688-5.73-16.849-14.829-18.877-14.919-18.895l.176-.82c.393.079,9.67,2.092,15.572,19.455,5.819,17.109,16.91,40.286,17.021,40.518.316.379,8.883,11.256,6.823,22.252-2.022,10.789-3.438,33.525-3.453,33.754l1.153,56.633.769,20.888c.029.279,3.068,30.526,2.434,44.286l.088,86.767Z" transform="translate(-545.163 -6591.682)" fill="#999"/>
          <path id="Trazado_111201" data-name="Trazado 111201" d="M638.673,6986.064l-.872-.024c.034-1.112,3.294-111.351-2.194-128.419-5.532-17.208-3.878-39.571-3.861-39.794l6.536-51.647c.023-.29,2.46-30.907,1.047-45.453-.453-4.668-1.481-10.46-2.567-16.594-2.334-13.169-5.239-29.557-4.055-43.953l2.928-26.194.867.089-2.927,26.182c-1.174,14.28,1.72,30.612,4.046,43.735,1.09,6.148,2.12,11.957,2.577,16.657,1.42,14.617-1.023,45.305-1.048,45.613l-6.536,51.645c-.015.2-1.657,22.413,3.827,39.468C641.971,6874.573,638.81,6981.52,638.673,6986.064Z" transform="translate(-536.931 -6594.513)" fill="#999"/>
          <path id="Trazado_111202" data-name="Trazado 111202" d="M576.078,6739.533l-3.31-10.379.353-.151c.294-.126,29.806-12.489,54.344-8.458,24.4,4.008,53.785,7.7,54.079,7.74l2.1.319.081.244c.084.244,1.962,6.007-1.94,9.559l-.156.143-.215-.033-28.922-4.61c-.336-.065-32.211-6.22-42.564-3.33-10.452,2.917-33.216,8.793-33.444,8.852Zm-2.249-9.912,2.837,8.9c3.122-.808,23.35-6.044,33.021-8.744,10.548-2.941,41.647,3.053,42.965,3.312l28.688,4.572c2.9-2.817,1.923-7.231,1.628-8.309l-1.549-.235c-.283-.035-29.681-3.733-54.1-7.744C604.5,6717.625,577.244,6728.237,573.829,6729.621Z" transform="translate(-546.458 -6584.64)" fill="#999"/>
          <path id="Trazado_111203" data-name="Trazado 111203" d="M617.175,6823.268l-2.921-2.8,2.251-2.962-2.792-2.91.64-.566,3.278,3.415-2.232,2.938,2.395,2.3Z" transform="translate(-539.817 -6573.785)" fill="#999"/>
          <path id="Trazado_111204" data-name="Trazado 111204" d="M620.762,6823.268l-2.921-2.8,2.251-2.962-2.792-2.91.64-.566,3.278,3.415-2.232,2.938,2.395,2.3Z" transform="translate(-539.235 -6573.785)" fill="#999"/>
          <path id="Trazado_111205" data-name="Trazado 111205" d="M624.624,6823.268l-2.921-2.8,2.251-2.962-2.792-2.91.64-.566,3.278,3.415-2.232,2.938,2.395,2.3Z" transform="translate(-538.608 -6573.785)" fill="#999"/>
          <path id="Trazado_111206" data-name="Trazado 111206" d="M628.279,6823.268l-2.921-2.8,2.251-2.962-2.792-2.91.64-.566,3.278,3.415-2.232,2.938,2.395,2.3Z" transform="translate(-538.015 -6573.785)" fill="#999"/>
          <path id="Trazado_111207" data-name="Trazado 111207" d="M631.8,6822.666l-2.921-2.8,2.251-2.962-2.792-2.91.64-.566,3.278,3.415-2.232,2.938,2.395,2.3Z" transform="translate(-537.444 -6573.854)" fill="#999"/>
          <path id="Trazado_111208" data-name="Trazado 111208" d="M597.783,6822.333l-2.64-2.985,2.537-2.631-2.477-3.047.688-.514,2.933,3.606-2.516,2.609,2.141,2.421Z" transform="translate(-542.829 -6573.885)" fill="#999"/>
          <path id="Trazado_111209" data-name="Trazado 111209" d="M601.352,6822.689l-2.64-2.985,2.537-2.631-2.477-3.047.688-.514,2.93,3.606-2.514,2.609,2.141,2.421Z" transform="translate(-542.25 -6573.844)" fill="#999"/>
          <path id="Trazado_111210" data-name="Trazado 111210" d="M605.195,6823.072l-2.64-2.984,2.537-2.631-2.477-3.047.688-.515,2.933,3.607-2.516,2.608,2.141,2.421Z" transform="translate(-541.627 -6573.799)" fill="#999"/>
          <path id="Trazado_111211" data-name="Trazado 111211" d="M586.627,6819.986l-2.64-2.985,2.537-2.631-2.477-3.047.688-.514,2.933,3.607-2.516,2.609,2.141,2.42Z" transform="translate(-544.638 -6574.155)" fill="#999"/>
          <path id="Trazado_111212" data-name="Trazado 111212" d="M583.134,6818.983l-2.64-2.985,2.537-2.631-2.477-3.047.688-.514,2.93,3.606-2.514,2.609,2.141,2.421Z" transform="translate(-545.205 -6574.271)" fill="#999"/>
          <path id="Trazado_111213" data-name="Trazado 111213" d="M580.251,6818l-2.64-2.985,2.537-2.631-2.477-3.047.688-.514,2.933,3.607-2.516,2.609,2.141,2.421Z" transform="translate(-545.673 -6574.384)" fill="#999"/>
          <path id="Trazado_111214" data-name="Trazado 111214" d="M590.2,6820.942l-2.64-2.985,2.537-2.631-2.477-3.047.688-.514,2.93,3.606-2.514,2.609,2.141,2.421Z" transform="translate(-544.059 -6574.045)" fill="#999"/>
          <path id="Trazado_111215" data-name="Trazado 111215" d="M594.04,6821.326l-2.64-2.985,2.537-2.631-2.477-3.047.688-.514,2.933,3.607-2.516,2.609,2.141,2.421Z" transform="translate(-543.436 -6574)" fill="#999"/>
          <path id="Trazado_111216" data-name="Trazado 111216" d="M608.833,6823.436l-2.64-2.985,2.537-2.631-2.476-3.047.688-.514,2.933,3.606-2.516,2.609,2.141,2.421Z" transform="translate(-541.036 -6573.758)" fill="#999"/>
          <path id="Trazado_111217" data-name="Trazado 111217" d="M612.393,6823.208l-2.64-2.985,2.537-2.631-2.477-3.047.688-.514,2.933,3.606-2.516,2.609,2.141,2.421Z" transform="translate(-540.459 -6573.784)" fill="#999"/>
          <path id="Trazado_111218" data-name="Trazado 111218" d="M641.861,6819.522l-2.69-2.294,2.015-2.357-2.425-2.247.606-.6,3,2.783-1.994,2.332,2.063,1.761Z" transform="translate(-535.754 -6574.015)" fill="#999"/>
          <path id="Trazado_111219" data-name="Trazado 111219" d="M638.954,6820.416l-2.69-2.294,2.015-2.358-2.425-2.246.606-.6,3,2.781-1.994,2.332,2.063,1.761Z" transform="translate(-536.225 -6573.912)" fill="#999"/>
          <path id="Trazado_111220" data-name="Trazado 111220" d="M636.259,6821.32l-2.969-2.458,2.24-2.542-2.715-2.44.595-.61,3.321,2.983-2.218,2.518,2.315,1.916Z" transform="translate(-536.718 -6573.871)" fill="#999"/>
          <path id="Trazado_111221" data-name="Trazado 111221" d="M644.218,6818.766l-2.374-2.205,1.778-2.265-2.141-2.159.631-.577,2.651,2.672-1.76,2.241,1.82,1.691Z" transform="translate(-535.312 -6574.068)" fill="#999"/>
          <path id="Trazado_111222" data-name="Trazado 111222" d="M573.487,6974.042l-.872-.027c.023-.716,2.354-72.03,3.218-102.773.832-29.562,10.335-39.453,11.555-40.6l1.1-6.669-25.483-112.843.851-.176,25.52,112.993-.014.078-1.16,7.03-.113.1c-.106.093-10.526,9.6-11.384,40.11C575.84,6902.009,573.509,6973.324,573.487,6974.042Z" transform="translate(-548.042 -6585.651)" fill="#999"/>
          <g id="Grupo_56886" data-name="Grupo 56886" transform="translate(13.883 125.302)">
            <path id="Trazado_111261" data-name="Trazado 111261" d="M0,0,.869.007l.01,1.116L.01,1.116Z" transform="translate(0 0.176) rotate(-12.189)" fill="#999"/>
            <path id="Trazado_111223" data-name="Trazado 111223" d="M572.61,6969.706l-.872-.026.072-2.234.872.027Zm.144-4.466-.872-.027.071-2.23.872.026Zm.142-4.46-.872-.027.071-2.229.872.026Zm.143-4.458-.872-.026.071-2.229.872.027Zm.142-4.457-.872-.027.071-2.229.872.026Zm.143-4.458-.872-.024.071-2.229.872.026Zm.141-4.456-.872-.024.071-2.229.872.027Zm.139-4.456-.872-.027.072-2.228.872.027Zm.142-4.458-.872-.024.071-2.229.872.025Zm.141-4.456-.872-.023.071-2.229.872.025Zm.139-4.455-.872-.023.071-2.229.872.025Zm.142-4.455-.872-.025.069-2.227.872.023Zm.139-4.455-.872-.025.069-2.232.872.024Zm.137-4.46-.872-.025.066-2.158.438-.056.433.081Zm.139-4.45-.872-.024.069-2.228.872.024Zm.137-4.455-.872-.024.069-2.228.872.024Zm.135-4.457-.872-.025.069-2.227.872.024Zm.137-4.455-.872-.024.067-2.227.872.023Zm.136-4.456-.872-.023.066-2.228.872.023Zm.131-4.455-.872-.026.067-2.227.872.023Zm.134-4.459-.872-.023.065-2.228.872.023Zm.13-4.458-.872-.023.064-2.228.872.021Zm.128-4.458-.872-.021.02-.728q.021-.761.05-1.5l.872.03q-.028.739-.05,1.5Zm.176-4.438-.869-.045q.064-1.135.144-2.228l.869.058Q575.891,6866.086,575.827,6867.214Zm.328-4.424-.868-.076q.108-1.135.23-2.223l.867.089Q576.26,6861.663,576.155,6862.79Zm.5-4.412-.865-.107q.153-1.132.323-2.212l.864.126Q576.808,6857.255,576.657,6858.378Zm.695-4.382-.858-.144q.206-1.132.432-2.2l.853.165Q577.558,6852.879,577.352,6854Zm.914-4.338-.85-.187q.272-1.128.558-2.175l.843.211Q578.532,6848.546,578.265,6849.658Zm1.17-4.282-.836-.238q.343-1.117.7-2.136l.825.266C579.892,6843.939,579.662,6844.64,579.436,6845.376Zm1.466-4.19-.816-.295q.434-1.107.874-2.082l.8.331Q581.33,6840.1,580.9,6841.186Zm1.819-4.048-.783-.368c.374-.733.741-1.4,1.095-1.992l.758.412C583.445,6835.772,583.085,6836.419,582.72,6837.138Zm2.266-3.819-.724-.464a21.78,21.78,0,0,1,1.409-1.824l.669.536A21.192,21.192,0,0,0,584.986,6833.319Zm2.394-3.885-.861-.13.363-2.2.86.131Zm.725-4.4-.861-.131.209-1.27-.172-.765.851-.179.209.918Zm-1.316-4.344-.492-2.176.851-.176.492,2.175Zm-.983-4.351-.492-2.178.852-.176.492,2.177Zm-.983-4.354-.49-2.177.851-.176.492,2.177Zm-.982-4.352-.492-2.176.851-.176.492,2.175Zm-.983-4.353-.492-2.176.852-.176.492,2.176Zm-.983-4.352-.49-2.177.851-.176.492,2.177Zm-.982-4.352-.492-2.176.851-.176.492,2.175Zm-.983-4.353-.492-2.176.852-.176.49,2.176Zm-.983-4.352-.492-2.177.852-.176.492,2.177Zm-.982-4.352-.492-2.176.851-.176.492,2.175Zm-.983-4.353-.492-2.177.851-.176.492,2.176Zm-.983-4.353-.492-2.177.852-.176.492,2.177Zm-.983-4.352-.491-2.177.851-.176.492,2.177Zm-.982-4.353-.492-2.175.851-.178.492,2.176Zm-.983-4.354-.492-2.176.852-.176.49,2.175Zm-.983-4.351-.492-2.177.852-.176.492,2.177Zm-.982-4.353-.492-2.175.851-.177.492,2.176Zm-.983-4.353-.492-2.176.852-.176.49,2.175Zm-.983-4.351-.492-2.177.852-.176.492,2.177Zm-.982-4.353-.492-2.175.851-.177.492,2.177Zm-.983-4.353-.492-2.176.851-.176.492,2.175Zm-.983-4.352-.492-2.176.852-.177.492,2.176Zm-.983-4.352-.49-2.176.851-.177.492,2.178Zm-.982-4.353-.492-2.176.851-.176.492,2.175Zm-.983-4.352-.492-2.176.852-.177.49,2.176Z" transform="translate(-561.973 -6710.616)" fill="#999"/>
            <path id="Trazado_111263" data-name="Trazado 111263" d="M0,0H1.11V.874H0Z" transform="translate(9.66 262.307) rotate(-88.21)" fill="#999"/>
          </g>
          <g id="Grupo_56887" data-name="Grupo 56887" transform="translate(16.056 125.298)">
            <path id="Trazado_111262" data-name="Trazado 111262" d="M0,0,.869.007l.01,1.119L.01,1.119Z" transform="matrix(0.977, -0.212, 0.212, 0.977, 0, 0.177)" fill="#999"/>
            <path id="Trazado_111224" data-name="Trazado 111224" d="M574.575,6970.454l-.872-.024.067-2.24.872.024Zm.136-4.478-.872-.023.069-2.237.872.023Zm.135-4.474-.872-.023.069-2.236.872.023Zm.136-4.472-.872-.027.068-2.233.872.024Zm.136-4.469-.872-.024.067-2.236.872.024Zm.136-4.471-.872-.023.066-2.235.872.023Zm.136-4.469-.872-.023.067-2.235.872.023Zm.133-4.469-.872-.023.069-2.235.872.023Zm.136-4.468-.872-.024.067-2.235.872.024Zm.136-4.469-.872-.024.066-2.235.872.025Zm.135-4.468-.872-.024.068-2.233.872.023Zm.133-4.468-.872-.023.065-2.17.874-.042Zm.135-4.47-.872-.023.067-2.239.872.023Zm.134-4.473-.872-.024.066-2.232.872.024Zm.134-4.46-.872-.024.066-2.235.872.024Zm.133-4.469-.872-.024.066-2.235.872.024Zm.133-4.47-.872-.024.066-2.233.872.023Zm.132-4.468-.872-.023.065-2.234.872.023Zm.131-4.469-.872-.023.066-2.234.872.023Zm.13-4.47-.872-.023.066-2.235.872.025Zm.13-4.471-.872-.023.064-2.235.872.024Zm.129-4.468-.872-.022.064-2.236.872.022Zm.127-4.472-.872-.021.067-2.237.872.028Zm.166-4.455-.87-.041q.059-1.141.136-2.236l.869.057Q577.733,6866.532,577.674,6867.664Zm.311-4.439-.869-.073q.1-1.137.222-2.229l.867.086C578.127,6861.733,578.052,6862.47,577.986,6863.225Zm.483-4.424-.865-.1q.15-1.137.316-2.219l.862.122Q578.617,6857.672,578.469,6858.8Zm.678-4.4-.859-.142c.134-.754.275-1.49.422-2.2l.857.16Q579.347,6853.28,579.147,6854.4Zm.9-4.356-.851-.182q.263-1.133.545-2.184l.845.208C580.4,6848.583,580.217,6849.3,580.044,6850.046Zm1.146-4.3-.837-.233q.34-1.122.69-2.147l.829.261Q581.525,6844.643,581.19,6845.749Zm1.441-4.212-.817-.291q.431-1.113.864-2.093l.8.325Q583.057,6840.444,582.631,6841.537Zm1.793-4.077-.785-.361c.366-.733.729-1.4,1.075-2.006l.764.4C585.138,6836.09,584.785,6836.741,584.425,6837.46Zm2.233-3.853-.731-.455a22.987,22.987,0,0,1,1.38-1.847l.681.521C587.547,6832.353,587.1,6832.952,586.657,6833.607Zm2.538-3.838-.86-.132.362-2.206.86.13Zm.728-4.412-.86-.132.261-1.6-.1-.449.852-.179.137.6Zm-1.191-4.36-.493-2.182.851-.176.493,2.182Zm-.986-4.365-.494-2.182.851-.176.494,2.182Zm-.987-4.365-.493-2.182.852-.176.493,2.182Zm-.984-4.364-.494-2.182.851-.176.494,2.182Zm-.987-4.364-.493-2.183.852-.176.492,2.183Zm-.986-4.365-.494-2.184.852-.176.494,2.184Zm-.986-4.366-.493-2.183.851-.176.493,2.183Zm-.986-4.365-.494-2.182.852-.177.493,2.183Zm-.987-4.365-.492-2.182.851-.176.493,2.182Zm-.984-4.365-.494-2.182.851-.176.494,2.182Zm-.987-4.365-.493-2.182.852-.177.493,2.184Zm-.986-4.365-.493-2.182.851-.177.494,2.182Zm-.986-4.364-.493-2.183.851-.177.493,2.182Zm-.986-4.365-.494-2.183.852-.177.494,2.182Zm-.986-4.366-.493-2.183.851-.176.493,2.182Zm-.986-4.365-.494-2.183.851-.176.494,2.183Zm-.987-4.365-.493-2.182.852-.176.493,2.182Zm-.984-4.365-.494-2.182.851-.176.494,2.183Zm-.987-4.366-.493-2.182.852-.176.492,2.183Zm-.986-4.365-.494-2.182.852-.176.494,2.183Zm-.986-4.365-.493-2.182.851-.176.493,2.182Zm-.986-4.364-.494-2.182.852-.176.493,2.182Zm-.987-4.364-.492-2.183.851-.176.493,2.182Zm-.984-4.365-.494-2.183.851-.176.494,2.182Zm-.987-4.365-.493-2.183.852-.176.492,2.183Z" transform="translate(-563.843 -6710.611)" fill="#999"/>
            <path id="Trazado_111264" data-name="Trazado 111264" d="M0,0H1.11V.873H0Z" transform="matrix(0.029, -1, 1, 0.029, 9.761, 263.066)" fill="#999"/>
          </g>
          <path id="Trazado_111225" data-name="Trazado 111225" d="M562.553,6717.438c-6.848,0-12.418-11.574-12.418-25.8s5.57-25.8,12.418-25.8,12.417,11.575,12.417,25.8S569.4,6717.438,562.553,6717.438Zm0-50.765c-6.367,0-11.547,11.2-11.547,24.966s5.18,24.963,11.547,24.963,11.545-11.2,11.545-24.963S568.919,6666.673,562.553,6666.673Z" transform="translate(-550.129 -6590.846)" fill="#999"/>
          <path id="Trazado_111226" data-name="Trazado 111226" d="M669.524,6731.755l5.381-1.352.96,1.352,1.922-.431s.256-4.117-1.538-5.346h-1.472l-.321,2.089-5.252,2.213-.9.737.141.737Z" transform="translate(-530.961 -6583.921)" fill="#666"/>
          <path id="Trazado_111227" data-name="Trazado 111227" d="M638.257,6986.751h-.017a.569.569,0,0,1-.564-.574c.034-1.111,3.294-111.328-2.187-128.374-5.54-17.231-3.885-39.623-3.868-39.847l6.537-51.652c.022-.283,2.459-30.89,1.046-45.423-.452-4.664-1.478-10.454-2.566-16.585-2.335-13.175-5.24-29.572-4.055-43.987l3.266-27.066a.583.583,0,0,1,.644-.49.565.565,0,0,1,.511.618l-3.265,27.045c-1.173,14.257,1.72,30.578,4.046,43.692,1.089,6.153,2.12,11.964,2.578,16.667,1.42,14.629-1.024,45.329-1.049,45.638l-6.536,51.651c-.014.2-1.654,22.381,3.821,39.41,5.538,17.222,2.377,124.19,2.24,128.736A.571.571,0,0,1,638.257,6986.751Z" transform="translate(-536.951 -6594.654)" fill="#4d4d4d"/>
          <g id="Grupo_56888" data-name="Grupo 56888" transform="translate(103.118 144.017)">
            <path id="Trazado_111228" data-name="Trazado 111228" d="M673.037,6732.177s-27.8-2.908-34.11-4.072" transform="translate(-638.844 -6727.694)" fill="#fff"/>
            <path id="Trazado_111229" data-name="Trazado 111229" d="M673,6732.635c-.279-.03-27.893-2.923-34.145-4.076l.165-.822c6.217,1.147,33.8,4.038,34.075,4.066Z" transform="translate(-638.856 -6727.736)" fill="#999"/>
          </g>
          <path id="Trazado_111230" data-name="Trazado 111230" d="M589.047,6736.46l-1.16-.066c.039-.648,3.958-65,6.206-81.742l1.153.142C593,6671.494,589.086,6735.811,589.047,6736.46Z" transform="translate(-544.006 -6592.133)" fill="#999"/>
          <g id="Grupo_56892" data-name="Grupo 56892" transform="translate(83.099)">
            <g id="Grupo_56889" data-name="Grupo 56889" transform="translate(1.498)">
              <path id="Trazado_111231" data-name="Trazado 111231" d="M628.26,6615.321v9.956a5.414,5.414,0,0,0,4.772.338l.1-10.294s6.339-1.382,6.278-7.928c0,0,.9-8.789-8.327-8.42s-7.687,10.571-7.687,10.571S625.057,6614.707,628.26,6615.321Z" transform="translate(-622.859 -6598.545)" fill="#fff"/>
              <path id="Trazado_111232" data-name="Trazado 111232" d="M631.036,6626.477a5.674,5.674,0,0,1-2.965-.813l-.186-.125v-9.849c-3.186-.925-4.78-5.766-4.849-5.979-.047-.276-.764-5.277,2.033-8.508a8.048,8.048,0,0,1,6.052-2.6c2.851-.11,5.077.61,6.6,2.156,2.566,2.6,2.2,6.555,2.178,6.721.057,5.87-4.922,7.79-6.278,8.2l-.094,10.26-.267.105A6.026,6.026,0,0,1,631.036,6626.477Zm-2.279-1.391a4.96,4.96,0,0,0,3.9.283l.1-10.338.335-.075c.245-.054,6-1.4,5.939-7.518.006-.08.347-3.79-1.946-6.113-1.342-1.36-3.347-2-5.927-1.891a7.2,7.2,0,0,0-5.414,2.3c-2.55,2.942-1.867,7.746-1.859,7.793h0c.006,0,1.617,4.871,4.522,5.427l.351.067Z" transform="translate(-622.92 -6598.587)" fill="#999"/>
            </g>
            <g id="Grupo_56890" data-name="Grupo 56890" transform="translate(0 4.098)">
              <rect id="Rectángulo_10504" data-name="Rectángulo 10504" width="18.841" height="3.101" rx="1.209" transform="translate(0.581 0.557)" fill="#fff"/>
              <path id="Trazado_111233" data-name="Trazado 111233" d="M639.648,6606.479H623.616a1.95,1.95,0,0,1-1.985-1.906v-.4a1.949,1.949,0,0,1,1.985-1.906h16.032a1.949,1.949,0,0,1,1.986,1.906v.4A1.95,1.95,0,0,1,639.648,6606.479Zm-16.032-3.1a.808.808,0,0,0-.823.791v.4a.808.808,0,0,0,.823.791h16.032a.809.809,0,0,0,.824-.791v-.4a.809.809,0,0,0-.824-.791Z" transform="translate(-621.631 -6602.262)" fill="#999"/>
            </g>
            <g id="Grupo_56891" data-name="Grupo 56891" transform="translate(0 9.915)">
              <rect id="Rectángulo_10505" data-name="Rectángulo 10505" width="18.841" height="3.101" rx="1.209" transform="translate(0.581 0.558)" fill="#fff"/>
              <path id="Trazado_111234" data-name="Trazado 111234" d="M639.648,6611.7H623.616a1.949,1.949,0,0,1-1.985-1.906v-.4a1.95,1.95,0,0,1,1.985-1.906h16.032a1.95,1.95,0,0,1,1.986,1.906v.4A1.95,1.95,0,0,1,639.648,6611.7Zm-16.032-3.1a.808.808,0,0,0-.823.791v.4a.808.808,0,0,0,.823.791h16.032a.809.809,0,0,0,.824-.791v-.4a.809.809,0,0,0-.824-.791Z" transform="translate(-621.631 -6607.479)" fill="#999"/>
            </g>
          </g>
          <g id="Grupo_56893" data-name="Grupo 56893" transform="translate(6.191 56.968)" opacity="0.71">
            <path id="Trazado_111235" data-name="Trazado 111235" d="M555.957,6665.592s23.648,7.3,19.194,34.483-12.935,25.492-12.935,25.492l13.809,54.931,10.9,45.818.658,8.39s-.394,7.95-1.082,10.083c0,0,6.823-.68,11.052.678l5.239,1s1.374-3.23,2.1-3.378a2.4,2.4,0,0,1,1.159,0,13.9,13.9,0,0,1,.883,3.983l15.059.718.606-5.1.8,4.473,17-1.216v3.2s6.7-2.771,8.366-2.684-4.586-6.054-4.156-11.092,2.689-30.154,2.689-30.154l5.925-55.076s-.133-20.9-1.2-31.325-7.837-52.229-7.837-52.229-6.17,4.913-14.811-.226a151.062,151.062,0,0,1-16.22-11.346l-5.2-4.849L555.957,6664.7Z" transform="translate(-555.376 -6649.616)" fill="#ccc"/>
            <path id="Trazado_111236" data-name="Trazado 111236" d="M640.479,6849.77a.587.587,0,0,1-.318-.092.553.553,0,0,1-.263-.466v-2.6l-16.372,1.171a.568.568,0,0,1-.617-.461l-.11-.627-.145,1.223a.56.56,0,0,1-.607.493l-15.058-.718a.589.589,0,0,1-.408-.187.554.554,0,0,1-.144-.41,11.74,11.74,0,0,0-.743-3.448,2.373,2.373,0,0,0-.6.052,12.257,12.257,0,0,0-1.682,3.041.582.582,0,0,1-.652.336l-5.238-1c-4.132-1.323-10.812-.679-10.878-.672a.6.6,0,0,1-.509-.2.538.538,0,0,1-.106-.519c.658-2.041,1.051-9.865,1.055-9.944l-.657-8.322L575.54,6780.68l-13.808-54.925a.541.541,0,0,1,.147-.519.587.587,0,0,1,.536-.157,3.9,3.9,0,0,0,2.587-.891c2.4-1.65,6.843-6.979,9.656-24.143,4.321-26.377-17.853-33.573-18.8-33.867a.558.558,0,0,1-.4-.53v-.9a.562.562,0,0,1,.42-.535l51.988-14.521a.606.606,0,0,1,.567.136l5.206,4.849a152.085,152.085,0,0,0,16.121,11.271c8.163,4.855,13.894.459,14.135.271a.588.588,0,0,1,.577-.09.559.559,0,0,1,.367.434c.069.419,6.78,41.944,7.841,52.261s1.205,31.168,1.206,31.376l-5.93,55.139s-2.259,25.1-2.688,30.142c-.242,2.838,1.829,6.143,3.2,8.328,1.013,1.62,1.476,2.358,1.126,2.916a.825.825,0,0,1-.781.358h-.059c-1.205,0-5.545,1.606-8.043,2.64A.584.584,0,0,1,640.479,6849.77Zm0-4.318a.594.594,0,0,1,.4.149.543.543,0,0,1,.186.408v2.361a41.771,41.771,0,0,1,7.363-2.378c-.2-.4-.592-1.03-.953-1.606-1.447-2.309-3.633-5.8-3.36-9,.429-5.039,2.689-30.155,2.689-30.155l5.927-55.088c0-.148-.15-20.936-1.206-31.212-.969-9.454-6.718-45.287-7.691-51.332-2.008,1.157-7.594,3.513-14.682-.7a152.575,152.575,0,0,1-16.291-11.4l-4.991-4.646-51.245,14.313v.088c3.137,1.151,23.342,9.6,19.187,34.962-2.759,16.836-7.091,22.861-10.239,24.95a5.851,5.851,0,0,1-2.534,1.008l13.637,54.249,10.9,45.823.671,8.473a90.291,90.291,0,0,1-.908,9.5c1.96-.136,7.01-.343,10.483.771l4.7.9c.91-2.052,1.693-3.157,2.334-3.287a2.974,2.974,0,0,1,1.475.021.565.565,0,0,1,.352.34,16.559,16.559,0,0,1,.911,3.637l13.967.667.544-4.58a.573.573,0,0,1,.56-.5.623.623,0,0,1,.59.463l.712,3.974,16.47-1.178Z" transform="translate(-555.457 -6649.674)" fill="#4d4d4d"/>
          </g>
          <path id="Trazado_111237" data-name="Trazado 111237" d="M576.919,6784.02a.583.583,0,0,1-.32-.093.542.542,0,0,1-.165-.771l24.383-35.489,16.12-21.953a.6.6,0,0,1,.81-.135.545.545,0,0,1,.141.777l-16.111,21.938L577.4,6783.77A.588.588,0,0,1,576.919,6784.02Z" transform="translate(-545.879 -6583.979)" fill="#4d4d4d"/>
          <g id="Grupo_56894" data-name="Grupo 56894" transform="translate(31.762 143.736)">
            <path id="Trazado_111238" data-name="Trazado 111238" d="M578.04,6792.708a.593.593,0,0,1-.36-.119.544.544,0,0,1-.1-.784s.673-.816,1.747-2.2a.6.6,0,0,1,.814-.116.544.544,0,0,1,.12.78c-1.09,1.407-1.768,2.231-1.768,2.231A.592.592,0,0,1,578.04,6792.708Z" transform="translate(-577.459 -6720.359)" fill="#4d4d4d"/>
            <path id="Trazado_111239" data-name="Trazado 111239" d="M582.565,6792.126a.6.6,0,0,1-.33-.1.545.545,0,0,1-.15-.775c1.167-1.628,2.278-3.246,3.3-4.809a.6.6,0,0,1,.8-.173.544.544,0,0,1,.181.768c-1.033,1.575-2.154,3.205-3.327,4.845A.589.589,0,0,1,582.565,6792.126Zm6.4-9.793a.6.6,0,0,1-.284-.071.545.545,0,0,1-.223-.758c.884-1.518,1.679-2.984,2.366-4.361l.373-.747a.6.6,0,0,1,.775-.264.549.549,0,0,1,.274.744l-.374.747c-.7,1.4-1.505,2.888-2.4,4.425A.586.586,0,0,1,588.962,6782.333Zm5.368-10.361a.6.6,0,0,1-.252-.055.547.547,0,0,1-.272-.744l2.614-5.217a.59.59,0,0,1,.775-.26.547.547,0,0,1,.272.744l-2.614,5.217A.585.585,0,0,1,594.33,6771.972Zm5.23-10.432a.582.582,0,0,1-.252-.056.547.547,0,0,1-.272-.744l2.616-5.215a.589.589,0,0,1,.775-.261.547.547,0,0,1,.272.744l-2.616,5.216A.584.584,0,0,1,599.56,6761.54Zm5.232-10.428a.589.589,0,0,1-.252-.056.547.547,0,0,1-.272-.744l2.617-5.213a.593.593,0,0,1,.775-.26.547.547,0,0,1,.272.744l-2.617,5.213A.585.585,0,0,1,604.792,6751.112Zm5.236-10.429a.57.57,0,0,1-.251-.056.547.547,0,0,1-.272-.744l2.618-5.214a.593.593,0,0,1,.775-.261.547.547,0,0,1,.272.744l-2.618,5.216A.584.584,0,0,1,610.028,6740.684Z" transform="translate(-576.726 -6726.693)" fill="#4d4d4d"/>
            <path id="Trazado_111240" data-name="Trazado 111240" d="M610.677,6731.107a.582.582,0,0,1-.252-.056.546.546,0,0,1-.271-.744l1.26-2.509a.592.592,0,0,1,.776-.259.549.549,0,0,1,.27.745l-1.26,2.507A.584.584,0,0,1,610.677,6731.107Z" transform="translate(-572.166 -6727.484)" fill="#4d4d4d"/>
          </g>
          <path id="Trazado_111241" data-name="Trazado 111241" d="M667.894,6730.62l5.555-.262.651,1.513,1.972-.042s1.133-3.979-.359-5.536l-1.441-.291-.761,1.981-5.615,1.13-1.036.545-.021.75Z" transform="translate(-531.199 -6583.918)" fill="#666"/>
          <path id="Trazado_111242" data-name="Trazado 111242" d="M612.99,6722.933l4.242-3.453,1.476.821,1.538-1.186s-1.625-3.819-3.8-4.183l-1.328.61.653,2.018-3.738,4.176-.476,1.036.459.606Z" transform="translate(-540.166 -6585.193)" fill="#666"/>
          <path id="Trazado_111243" data-name="Trazado 111243" d="M565.553,6661.631l-.379-5.324,1.564-.653-.081-1.891s-4.169-1.012-5.762.449l-.275,1.388,2.079.693,1.284,5.365.587.982.781.005Z" transform="translate(-548.429 -6592.275)" fill="#666"/>
          <path id="Trazado_111244" data-name="Trazado 111244" d="M602.493,6654.393l-3.29-4.3.956-1.354-1.124-1.557s-4.085,1.287-4.616,3.339l.543,1.314,2.143-.483,4.077,3.872,1.045.529.662-.4Z" transform="translate(-542.946 -6592.994)" fill="#666"/>
          <path id="Trazado_111245" data-name="Trazado 111245" d="M601.5,6655.423l4.677-2.889,1.35,1,1.688-.981s-1.089-3.991-3.193-4.625l-1.4.438.372,2.082-4.276,3.669-.614.968.372.659Z" transform="translate(-542.024 -6592.907)" fill="#666"/>
          <path id="Trazado_111246" data-name="Trazado 111246" d="M631.048,6668.889l4.677-2.888,1.35,1,1.688-.982s-1.09-3.99-3.193-4.625l-1.4.439.372,2.082-4.276,3.669-.614.968.372.659Z" transform="translate(-537.231 -6591.356)" fill="#666"/>
          <path id="Trazado_111247" data-name="Trazado 111247" d="M577.439,6685.91l-2.442-4.8,1.192-1.171-.818-1.723s-4.258.571-5.161,2.5l.291,1.387,2.2-.111,3.3,4.505.93.7.726-.277Z" transform="translate(-546.873 -6589.42)" fill="#666"/>
          <path id="Trazado_111248" data-name="Trazado 111248" d="M564.533,6661.845l-4.218-3.478.612-1.527-1.461-1.272s-3.676,2.139-3.711,4.253l.838,1.163,1.973-.936,4.884,2.888,1.141.289.553-.531Z" transform="translate(-549.218 -6592.028)" fill="#666"/>
          <path id="Trazado_111249" data-name="Trazado 111249" d="M576.816,6729.278l4.242-3.452,1.475.819,1.539-1.186s-1.625-3.819-3.8-4.183l-1.328.612.653,2.016-3.739,4.176-.475,1.037.459.606Z" transform="translate(-546.034 -6584.463)" fill="#666"/>
          <path id="Trazado_111250" data-name="Trazado 111250" d="M567.67,6720.632l-4.677-2.89.388-1.593-1.629-1.067s-3.334,2.6-3.066,4.7l1,1.041,1.82-1.187,5.251,2.215,1.173.135.472-.6Z" transform="translate(-548.745 -6585.175)" fill="#666"/>
          <path id="Trazado_111251" data-name="Trazado 111251" d="M568.186,6722.637l-4.678,2.888.388,1.594-1.63,1.067s-3.334-2.6-3.065-4.7l1-1.041,1.821,1.187,5.251-2.216,1.173-.135.471.6Z" transform="translate(-548.661 -6584.463)" fill="#666"/>
          <path id="Trazado_111252" data-name="Trazado 111252" d="M639.583,6724.719l5.239-1.791,1.08,1.267,1.876-.587s-.115-4.124-2.012-5.2l-1.468.123-.131,2.108-5.035,2.638-.828.81.206.723Z" transform="translate(-535.827 -6584.792)" fill="#666"/>
          <path id="Trazado_111253" data-name="Trazado 111253" d="M638.442,6727.146l4.2,3.5-.623,1.523,1.453,1.282s3.69-2.117,3.739-4.231l-.831-1.169-1.979.925-4.865-2.917-1.14-.3-.555.526Z" transform="translate(-535.904 -6583.945)" fill="#666"/>
          <path id="Trazado_111254" data-name="Trazado 111254" d="M614.414,6824.155l2.973,4.511-1.052,1.288,1.009,1.627s4.168-1.013,4.845-3.025l-.446-1.348-2.172.341-3.789-4.133-1-.6-.69.351Z" transform="translate(-539.756 -6572.772)" fill="#666"/>
          <path id="Trazado_111255" data-name="Trazado 111255" d="M634.079,6820.9l3.8,3.9-.783,1.455,1.307,1.417s3.9-1.741,4.172-3.839l-.7-1.244-2.069.723-4.526-3.382-1.1-.406-.61.468Z" transform="translate(-536.596 -6573.152)" fill="#666"/>
          <path id="Trazado_111256" data-name="Trazado 111256" d="M613.4,6822.791l-3.911,3.795-1.546-.694-1.424,1.31s1.966,3.668,4.163,3.849l1.267-.72-.834-1.955,3.344-4.472.38-1.074-.513-.565Z" transform="translate(-540.983 -6572.835)" fill="#666"/>
          <path id="Trazado_111257" data-name="Trazado 111257" d="M586.792,6817.922l-5.554-.271-.49-1.568-1.967-.146s-1.542,3.851-.22,5.543l1.4.427.964-1.9,5.7-.586,1.087-.442.1-.744Z" transform="translate(-545.606 -6573.565)" fill="#666"/>
          <path id="Trazado_111258" data-name="Trazado 111258" d="M563.6,6731.289a.569.569,0,0,1-.581-.558.588.588,0,0,1,.465-.546.633.633,0,0,1,.768.375.513.513,0,0,1-.352.673l-.135.033A.561.561,0,0,1,563.6,6731.289Zm4.844-3.207a.6.6,0,0,1-.392-.145.543.543,0,0,1-.038-.788,21.869,21.869,0,0,0,3.2-4.462.6.6,0,0,1,.787-.229.547.547,0,0,1,.239.754,22.974,22.974,0,0,1-3.367,4.688A.587.587,0,0,1,568.447,6728.082Zm5.574-9.686a.625.625,0,0,1-.191-.03.556.556,0,0,1-.359-.711,50.916,50.916,0,0,0,1.582-5.294.584.584,0,0,1,.7-.417.556.556,0,0,1,.435.669,52.271,52.271,0,0,1-1.614,5.409A.581.581,0,0,1,574.021,6718.4Zm2.689-10.822a.642.642,0,0,1-.091-.007.56.56,0,0,1-.485-.635c.279-1.746.514-3.594.7-5.5a.578.578,0,0,1,.633-.5.564.564,0,0,1,.524.608c-.187,1.923-.425,3.795-.708,5.563A.574.574,0,0,1,576.71,6707.574Zm1.056-11.092h-.013a.569.569,0,0,1-.568-.57c.01-.456.014-.909.014-1.354,0-1.4-.049-2.8-.15-4.164a.566.566,0,0,1,.538-.6.591.591,0,0,1,.622.517c.1,1.386.153,2.814.152,4.244,0,.453,0,.912-.014,1.377A.571.571,0,0,1,577.767,6696.481Zm-.851-11.1a.574.574,0,0,1-.571-.459,43.648,43.648,0,0,0-1.347-5.347.553.553,0,0,1,.383-.7.584.584,0,0,1,.726.368,44.817,44.817,0,0,1,1.382,5.48.561.561,0,0,1-.471.648A.8.8,0,0,1,576.916,6685.384Zm-3.447-10.61a.587.587,0,0,1-.528-.32,35.252,35.252,0,0,0-2.808-4.776.545.545,0,0,1,.158-.774.6.6,0,0,1,.807.151,36.671,36.671,0,0,1,2.9,4.926.549.549,0,0,1-.281.741A.588.588,0,0,1,573.469,6674.774Zm-6.487-9.192a.6.6,0,0,1-.42-.172,21.97,21.97,0,0,0-4.328-3.473.546.546,0,0,1-.216-.762.592.592,0,0,1,.791-.208,22.626,22.626,0,0,1,4.591,3.67.542.542,0,0,1-.016.789A.589.589,0,0,1,566.982,6665.582Z" transform="translate(-548.214 -6591.414)" fill="#4d4d4d"/>
          <path id="Trazado_111259" data-name="Trazado 111259" d="M572.553,6747.171a.588.588,0,0,1-.481-.246.542.542,0,0,1,.156-.773c.186-.122,18.714-12.07,37.334-18.754.748-.533,6.477-4.284,18.365-3.451a154.486,154.486,0,0,1,22.841,3.4.557.557,0,0,1,.419.678.582.582,0,0,1-.705.4,153.221,153.221,0,0,0-22.639-3.372c-12.074-.847-17.583,3.229-17.638,3.268a.569.569,0,0,1-.157.086c-18.514,6.632-36.986,18.54-37.17,18.661A.6.6,0,0,1,572.553,6747.171Z" transform="translate(-546.587 -6584.169)" fill="#4d4d4d"/>
          <path id="Trazado_111260" data-name="Trazado 111260" d="M631.038,6672.361a23.723,23.723,0,0,1-13.353-4.3c-.628-.427-15.371-10.467-19.049-15.1a.542.542,0,0,1,.11-.781.6.6,0,0,1,.813.106c3.57,4.493,18.642,14.757,18.794,14.86,9.556,6.424,17.96,3.316,18.044,3.286a.589.589,0,0,1,.755.309.552.552,0,0,1-.321.726A17.233,17.233,0,0,1,631.038,6672.361Z" transform="translate(-542.281 -6592.431)" fill="#4d4d4d"/>
        </g>
      </g>
    </g>
  </g>
</svg>
