<svg xmlns="http://www.w3.org/2000/svg" width="613.522" height="423.652" viewBox="0 0 613.522 423.652">
  <g id="Grupo_57745" data-name="Grupo 57745" transform="translate(-301 -3201.639)">
    <g id="Grupo_56900" data-name="Grupo 56900" transform="translate(-119.341 -2800.33)">
      <rect id="Rectángulo_10476" data-name="Rectángulo 10476" width="314.01" height="423.652" rx="23.352" transform="translate(420.341 6001.969)" fill="#fff"/>
      <g id="Grupo_56844" data-name="Grupo 56844" transform="translate(543.611 6296.849)">
        <path id="Trazado_110977" data-name="Trazado 110977" d="M475.565,6185.8a22.273,22.273,0,0,1,3.7-.25,5.689,5.689,0,0,1,3.7.985,3.417,3.417,0,0,1,1.292,2.78,3.739,3.739,0,0,1-1.112,2.87,5.692,5.692,0,0,1-3.929,1.274,4.631,4.631,0,0,1-.933-.072v4.342h-2.708Zm2.708,5.49a4.143,4.143,0,0,0,.915.071c1.454,0,2.35-.736,2.35-1.956,0-1.11-.771-1.775-2.153-1.775a4.829,4.829,0,0,0-1.112.09Z" transform="translate(-475.008 -6185.555)"/>
        <path id="Trazado_110978" data-name="Trazado 110978" d="M487.811,6185.635v12.093h-2.727v-12.093Z" transform="translate(-474.087 -6185.546)"/>
        <path id="Trazado_110979" data-name="Trazado 110979" d="M489.729,6197.728v-12.093h3.194l2.512,4.433a38.309,38.309,0,0,1,1.974,4.145h.035a49.666,49.666,0,0,1-.215-5.06v-3.518h2.512v12.093h-2.871l-2.583-4.664a42.754,42.754,0,0,1-2.1-4.271h-.072c.091,1.614.127,3.319.127,5.293v3.642Z" transform="translate(-473.637 -6185.546)"/>
        <path id="Trazado_110980" data-name="Trazado 110980" d="M500.329,6196.255l5.759-8.306v-.054H500.85v-2.261h8.773v1.579l-5.634,8.181v.073h5.723v2.26h-9.383Z" transform="translate(-472.611 -6185.546)"/>
        <path id="Trazado_110981" data-name="Trazado 110981" d="M513.462,6194.623l-.843,3.1h-2.834l3.7-12.093h3.569l3.769,12.093h-2.943l-.932-3.1Zm3.069-2.044-.755-2.565c-.2-.717-.412-1.633-.592-2.333h-.054c-.16.717-.359,1.632-.537,2.333l-.736,2.565Z" transform="translate(-471.696 -6185.546)"/>
        <path id="Trazado_110982" data-name="Trazado 110982" d="M527.5,6194.623l-.843,3.1h-2.834l3.7-12.093h3.571l3.766,12.093h-2.943l-.932-3.1Zm3.068-2.044-.755-2.565c-.2-.717-.412-1.633-.591-2.333h-.054c-.162.717-.36,1.632-.538,2.333l-.736,2.565Z" transform="translate(-470.338 -6185.546)"/>
        <path id="Trazado_110983" data-name="Trazado 110983" d="M535.366,6185.635h2.728v9.8H542.9v2.3h-7.536Z" transform="translate(-469.221 -6185.546)"/>
        <path id="Trazado_110984" data-name="Trazado 110984" d="M484.476,6217.031a8.025,8.025,0,0,1-3.086.521c-4.18,0-6.333-2.62-6.333-6.064,0-4.108,2.942-6.387,6.6-6.387a7.5,7.5,0,0,1,2.979.521l-.574,2.171a5.756,5.756,0,0,0-2.3-.449,3.967,3.967,0,0,0,.019,7.93,6.506,6.506,0,0,0,2.3-.395Z" transform="translate(-475.057 -6183.663)"/>
        <path id="Trazado_110985" data-name="Trazado 110985" d="M492.489,6212.244h-4.45v2.87h4.969v2.243h-7.7v-12.092h7.446v2.241H488.04v2.513h4.45Z" transform="translate(-474.064 -6183.647)"/>
        <path id="Trazado_110986" data-name="Trazado 110986" d="M494.031,6217.357v-12.092h3.195l2.512,4.432a38.124,38.124,0,0,1,1.973,4.144h.036a49.564,49.564,0,0,1-.216-5.058v-3.518h2.512v12.092h-2.87l-2.583-4.665a42.565,42.565,0,0,1-2.1-4.271h-.072c.09,1.616.126,3.32.126,5.294v3.642Z" transform="translate(-473.221 -6183.647)"/>
        <path id="Trazado_110987" data-name="Trazado 110987" d="M507.749,6207.559h-3.265v-2.294h9.293v2.294h-3.3v9.8h-2.727Z" transform="translate(-472.209 -6183.647)"/>
        <path id="Trazado_110988" data-name="Trazado 110988" d="M514.281,6205.452a21.342,21.342,0,0,1,3.644-.27,6.056,6.056,0,0,1,3.91.969,3.031,3.031,0,0,1,1.131,2.53,3.2,3.2,0,0,1-2.135,2.959v.055a3.016,3.016,0,0,1,1.615,2.243c.377,1.38.735,2.958.969,3.426h-2.8a16.194,16.194,0,0,1-.825-2.816c-.342-1.526-.861-1.92-1.992-1.938h-.807v4.754h-2.71Zm2.71,5.184h1.077c1.363,0,2.17-.681,2.17-1.74,0-1.095-.754-1.669-2.009-1.669a5.465,5.465,0,0,0-1.238.09Z" transform="translate(-471.261 -6183.655)"/>
        <path id="Trazado_110989" data-name="Trazado 110989" d="M529.1,6217.571c-3.57,0-5.688-2.709-5.688-6.155,0-3.623,2.333-6.332,5.885-6.332,3.713,0,5.74,2.78,5.74,6.117,0,3.982-2.385,6.37-5.919,6.37Zm.144-2.171c1.847,0,2.905-1.741,2.905-4.108,0-2.17-1.021-4.038-2.905-4.038s-2.943,1.831-2.943,4.091c0,2.278,1.095,4.055,2.924,4.055Z" transform="translate(-470.378 -6183.664)"/>
      </g>
      <path id="Trazado_111003" data-name="Trazado 111003" d="M461.82,6277.2c-.122,0-.239,0-.355-.005a1.122,1.122,0,0,1-.911-.469,2.864,2.864,0,0,1-.1-2.17l.27-1.887c.037-.453-.057-.621-.092-.641-.2-.1-.962.2-1.545.626l-1.988,1.11-.533-.96,1.93-1.072c.228-.172,1.711-1.2,2.671-.661a1.634,1.634,0,0,1,.647,1.722l-.291,2a2.1,2.1,0,0,0-.076,1.3c1.254.036,1.9-.142,2.166-.609.392-.69.869-1.4,1.04-1.648l.464-2.112v-2.3c0-.3.046-2.915,1.658-3.015,1.9-.107,2.46,1.649,2.755,3.2a9.872,9.872,0,0,0,1.344,3.366.606.606,0,0,1,.065.125,2.454,2.454,0,0,0,.763,1.16c.663-.293,1-.453.961-2.215-.005-.3-.005-.569-.007-.83a7.21,7.21,0,0,0-.761-3.771,58.57,58.57,0,0,0-3.216-5.331l-1.333-1.684a.548.548,0,0,1,.754-.782l6.974,5.114,1.873,1.476h0c.011,0,1.271.7,1.69.138.541-.719-.364-2.036-.952-2.758-.744-.913-7.57-8.829-8.142-9.494a2.818,2.818,0,0,1-1.135-1.843c-.05-1.071,1.328-1.889,1.6-2.043.123-.048.9-.328.9-.986a4.5,4.5,0,0,0-.751-1.839c-.91-1.6-3.441-9.076-3.547-9.392l-2.651-8.489a14.914,14.914,0,0,0-2.062-5.38c-.429-.573-.887-1.1-1.329-1.6-1.186-1.354-2.305-2.632-2.531-4.525a2.086,2.086,0,0,1,.433-1.649,1.439,1.439,0,0,1,1.305-.354c1.6.254,3.665.133,4.657-.968h0a5.257,5.257,0,0,0,.325-2.083c.071-2.006.013-12.038.012-12.138.049-.593,1.163-13.4,2.3-18.437,1.191-5.264,1.225-15.085,1.225-16.187,0-2.1-.1-8.1-.1-8.1a.53.53,0,0,1,.014-.131,99.773,99.773,0,0,0,1.8-10.228c.367-3.946-1.959-11.825-1.982-11.9l-2.3-9.566c-.059-.48-1.154-10.313-.393-16.787.751-6.387.95-10.789.951-10.832a99.69,99.69,0,0,0,1.246-11.8c-.008-4.035-2.416-9.549-2.44-9.6l1-.441c.1.233,2.525,5.782,2.532,10.045a97.025,97.025,0,0,1-1.254,11.914h0s-.2,4.433-.95,10.849c-.748,6.35.369,16.368.381,16.468l2.277,9.47c.091.3,2.4,8.132,2.016,12.291a99.8,99.8,0,0,1-1.809,10.307c.011.661.094,6.079.094,8.049,0,1.116-.035,11.05-1.254,16.431-1.123,4.96-2.265,18.107-2.277,18.237,0,.364.061,10.105-.01,12.132s-.462,2.636-.625,2.8c-1.6,1.776-4.707,1.443-5.624,1.3-.121-.019-.285-.028-.36.045a1.066,1.066,0,0,0-.121.728c.188,1.57,1.152,2.673,2.269,3.947.457.522.93,1.062,1.383,1.67a15.523,15.523,0,0,1,2.247,5.781l2.63,8.4c.021.065,2.6,7.681,3.457,9.191a4.572,4.572,0,0,1,.89,2.454,2.166,2.166,0,0,1-1.55,1.915c-.408.237-.96.738-.95.992.02.423.556.913.742,1.05a.608.608,0,0,1,.091.084c.3.35,7.418,8.6,8.2,9.562,1.4,1.722,1.732,3.1.977,4.107-.825,1.1-2.393.585-3.189.1l-1.915-1.5-4.06-2.979a46.866,46.866,0,0,1,2.532,4.312,8.178,8.178,0,0,1,.871,4.247c0,.254,0,.521.007.81.037,1.89-.32,2.644-1.527,3.223a1.146,1.146,0,0,1-.948.027,3.184,3.184,0,0,1-1.355-1.737,10.914,10.914,0,0,1-1.478-3.726c-.416-2.193-1.012-2.345-1.608-2.308-.385.024-.631,1.153-.631,1.92v2.361a.542.542,0,0,1-.012.118l-.5,2.274a.519.519,0,0,1-.086.193c-.005.01-.6.865-1.046,1.654A2.917,2.917,0,0,1,461.82,6277.2Z" transform="translate(51.583 130.049)" fill="#999"/>
      <path id="Trazado_111004" data-name="Trazado 111004" d="M468.253,6239.671c-4.7-3.98-11.117-20.755-11.389-21.467l1.027-.39c.066.172,6.583,17.222,11.072,21.019Z" transform="translate(50.649 143.695)" fill="#999"/>
      <path id="Trazado_111005" data-name="Trazado 111005" d="M466.944,6245.316c-1.559-.632-4.127-4.8-4.627-5.626l.94-.565c1.083,1.8,3.154,4.791,4.1,5.174Z" transform="translate(52.375 145.758)" fill="#999"/>
      <path id="Trazado_111006" data-name="Trazado 111006" d="M466.016,6251.039c-.239,0-.967,0-2.915-3.228l.938-.568a10.819,10.819,0,0,0,2.063,2.712Z" transform="translate(52.522 146.543)" fill="#999"/>
      <path id="Trazado_111007" data-name="Trazado 111007" d="M443.636,6223.285a1.092,1.092,0,0,1-.213-.022c-.481-.1-.838-.523-1.061-1.253-.48-1.587-1.7-18.9-1.834-20.864v-27.792c.061-.954,1.495-22.6,2.727-29.02,1.213-6.324.193-21.22.182-21.369l-.669-30.761v-7.546c-.013-.034-2.041-12.566,5.746-22.466,7.759-9.867,24.5-13.4,25.212-13.549,2.707-.818,7.111-2.313,7.958-3.03,1.118-.945,10.3-4.5,11.537-4.217l-.239,1.072h-.021c-1.007,0-9.454,3.041-10.569,3.984-1.29,1.091-7.675,3.036-8.4,3.254-.217.047-17.11,3.614-24.619,13.166-7.478,9.508-5.538,21.573-5.517,21.695l.007,7.626.668,30.723c.042.591,1.039,15.163-.2,21.624-1.219,6.358-2.694,28.626-2.708,28.851v27.717c.533,7.643,1.451,19.473,1.787,20.584.128.421.252.5.253.5s.094-.077.146-.134a26.051,26.051,0,0,1,12.219-4.9c7.436-.906,8.163,2.656,8.189,2.809l-1.079.193.54-.1-.537.1c-.007-.026-.647-2.689-6.979-1.92a25.644,25.644,0,0,0-11.6,4.6h0A1.328,1.328,0,0,1,443.636,6223.285Z" transform="translate(46.712 51.632)" fill="#999"/>
      <path id="Trazado_111008" data-name="Trazado 111008" d="M471.371,6172.061c-.013-.219-.268-5.432,2.667-8.291h0a2.745,2.745,0,0,0,.208-1.99c-.356-1.563-3.723-18.188-3.866-18.9l-1.653-15.789-1.713-11.275,1.084-.166,1.718,11.3,1.648,15.763c.027.12,3.5,17.269,3.851,18.816a3.67,3.67,0,0,1-.457,2.961c-2.626,2.566-2.392,7.455-2.39,7.5Z" transform="translate(54.735 75.478)" fill="#999"/>
      <path id="Trazado_111009" data-name="Trazado 111009" d="M507.213,6163.909a143.3,143.3,0,0,1-32.856-3.681l.28-1.061a142.387,142.387,0,0,0,34.615,3.63,137.246,137.246,0,0,0,34.253-4.7l.32,1.05a138.622,138.622,0,0,1-34.558,4.745C508.577,6163.9,507.891,6163.909,507.213,6163.909Z" transform="translate(67.264 87.87)" fill="#999"/>
      <path id="Trazado_111010" data-name="Trazado 111010" d="M510.2,6168.794h-1.712a.55.55,0,0,1-.477-.278l-34.262-60.426.953-.542,34.105,60.149h1.064L542.1,6107.56l.965.519L510.684,6168.5A.549.549,0,0,1,510.2,6168.794Z" transform="translate(66.895 71.516)" fill="#999"/>
      <path id="Trazado_111011" data-name="Trazado 111011" d="M466.649,6097.088c-.034-1.583-1.629-5.074-3.837-9.907-1.294-2.835-2.905-6.363-4.61-10.4a52.88,52.88,0,0,1-4.238-20.84l1.095.055a51.774,51.774,0,0,0,4.155,20.359c1.7,4.02,3.3,7.54,4.6,10.368,2.345,5.137,3.9,8.531,3.934,10.338Z" transform="translate(49.514 36.051)" fill="#999"/>
      <path id="Trazado_111012" data-name="Trazado 111012" d="M504.93,6057.652a20.682,20.682,0,0,1-18.7-10.768l1-.459a19.584,19.584,0,0,0,17.711,10.13c.173,0,.345,0,.52-.005,6.327-.13,14.951-1.629,20.115-8.023.218-.27.882-1.092.84-1.4-.027-.2-.492-.531-1.03-.915-.247-.175-.474-.324-.728-.493-1.827-1.2-5.229-3.442-5.5-7.4l-.053-.77a145.553,145.553,0,0,1-.375-17.393l1.095.054a144.708,144.708,0,0,0,.375,17.265l.053.768c.231,3.415,3.221,5.382,5.007,6.558.269.178.508.333.7.472.9.639,1.449,1.033,1.54,1.7.089.648-.327,1.309-1.075,2.234-5.427,6.722-14.385,8.294-20.943,8.43C505.293,6057.65,505.111,6057.652,504.93,6057.652Z" transform="translate(68.067 4.277)" fill="#999"/>
      <path id="Trazado_111013" data-name="Trazado 111013" d="M523.49,6030.349c-4.687,0-6.537-2.47-6.628-2.6l.886-.646c.092.126,2.349,3.062,8.538,1.86,1.906-.427,4.863-1.3,5.425-1.909,1.068-1.15,3.761-1.11,4.065-1.1a.566.566,0,0,1,.287.09c.019.012,1.758,1.144,2.642.1,1.106-1.3,2.16-6.81,2.3-12.033a40.589,40.589,0,0,1,.875-8.2l1.063.272a40.483,40.483,0,0,0-.841,7.963c-.134,4.925-1.129,11.028-2.563,12.713-1.149,1.353-3,.759-3.942.191h-.021c-.978,0-2.541.195-3.063.757-.995,1.071-5.176,2.05-6,2.236A15.938,15.938,0,0,1,523.49,6030.349Z" transform="translate(79.749 2.898)" fill="#999"/>
      <path id="Trazado_111014" data-name="Trazado 111014" d="M537.854,6026.3s3.339-2.146,4.005-4.959.812-8.155.954-9.394a49.183,49.183,0,0,1,1.43-5.2v-.906l-3.862.524-.773,5.772-.862,9.44-.893,3.91Z" transform="translate(85.132 2.891)" fill="#999"/>
      <path id="Trazado_111015" data-name="Trazado 111015" d="M503.209,6053.835s-2.528-1.479-3.148-1.718-8.089-5.534-12.7-6.606a6.958,6.958,0,0,0,3.128,3.728c2.657,1.734,5.3,3.547,5.3,3.547l5.124,1.548h2.293Z" transform="translate(64.596 6.73)" fill="#999"/>
      <path id="Trazado_111016" data-name="Trazado 111016" d="M574.9,6223.465s5.722-1.954,5.913-12.779-.429-29.327-.429-29.327-3.434-25.7-4.387-36.644-2.289-28.114-2.289-28.114a128.055,128.055,0,0,1,2.575-16.213,42.466,42.466,0,0,0,.995-12.874l-.995-14.5s-1.336-8.2-4.864-11.826-13.066-8.393-13.066-8.393l-15.259-6.2s-8.965-2.115-11.254-4.394a13.618,13.618,0,0,0-8.073-3.712c-2.037,0-4.611,1.717-4.611,1.717l1.907,2.384s3.624-.668,4.863.286,3.339,5.72,13.734,7.725,20.219,7.63,20.219,7.63,7.63,6.008,8.679,14.591a138.077,138.077,0,0,0,3.052,16.213l-.1,14.4s-.859,24.892-.668,25.274-1.239,1.431-1.239,1.431,5.245,32.808,4.863,42.822.382,23.365.382,23.365L573.9,6209.4l.858,1.145S575.523,6222.082,574.9,6223.465Z" transform="translate(89.684 6.05)" fill="#999"/>
      <path id="Trazado_111017" data-name="Trazado 111017" d="M553.419,6268.62s5.246-3.435,6.2-7.725,0-16.5,0-16.5.1-3.529,1.621-4.864,4.96-4.673,4.864-7.153-.477-10.585.476-13.543,2.289-14.877,2.289-14.877l-.667-.857-6.581,26.132s.191,3.242-1.622,4.2-3.624,3.815-3.624,3.815a15.131,15.131,0,0,0-1.43,5.437c0,2.479-.382,16.5-.382,16.5Z" transform="translate(93.962 142.272)" fill="#999"/>
      <path id="Trazado_111018" data-name="Trazado 111018" d="M554.464,6213.636c-.026-.148-2.684-14.9-4.508-20.232-1.836-5.365-7.661-20.522-7.719-20.674l-5.11-8.55a.549.549,0,0,1-.077-.28v-4.22l2.438-16.39,2.788-21.948,1.088.14-2.79,21.958-2.434,16.32.007,3.989,5.073,8.5c.1.236,5.93,15.412,7.773,20.8,1.851,5.413,4.442,19.786,4.551,20.4Z" transform="translate(87.339 90.119)" fill="#999"/>
      <path id="Trazado_111019" data-name="Trazado 111019" d="M541.568,6142.137l-1.033-.368,4.15-11.659a25.155,25.155,0,0,0,1.755-10.025c-.211-5.632-2.028-19.953-2.045-20.1-.037-.375-.871-8.843-.915-11.6-.045-2.863.544-9.11,1.419-11.542l1.032.371c-.81,2.25-1.4,8.359-1.355,11.154.043,2.713.9,11.409.908,11.5.016.129,1.839,14.5,2.052,20.18a25.748,25.748,0,0,1-1.835,10.472Z" transform="translate(86.42 52.527)" fill="#999"/>
      <path id="Trazado_111020" data-name="Trazado 111020" d="M545.138,6096.575l-1.081-.18c.341-2.059,2.914-9.143,3.024-9.444.019-.065,2.847-9.233,5.681-16.884a40.036,40.036,0,0,0,1.972-15.775l1.09-.113a40.356,40.356,0,0,1-2.033,16.27c-2.822,7.621-5.643,16.759-5.672,16.852S545.464,6094.615,545.138,6096.575Z" transform="translate(88.997 35.124)" fill="#999"/>
      <path id="Trazado_111021" data-name="Trazado 111021" d="M569.219,6204.776c-.04-.015-3.93-1.533-6.464-2.4-2.426-.833-9.873.019-9.948.026l-.126-1.09c.316-.035,7.766-.887,10.43.027,2.557.877,6.468,2.4,6.506,2.418Z" transform="translate(93.993 110.417)" fill="#999"/>
      <path id="Trazado_111022" data-name="Trazado 111022" d="M536.216,6252.8a2.272,2.272,0,0,1-.7-.113c-.918-.289-1.043-2.012-.371-5.121l1.07.232c-.377,1.755-.509,3.578-.279,3.9.558.152,1.157-.117,3.5-1.618,2.316-1.484,16-14.119,16.137-14.247l4.262-3.594.707.839-4.245,3.578c-.547.5-13.874,12.812-16.271,14.348C538.115,6252.228,537.123,6252.8,536.216,6252.8Z" transform="translate(87.947 145.091)" fill="#999"/>
      <path id="Trazado_111023" data-name="Trazado 111023" d="M542.888,6258.861a1.783,1.783,0,0,1-1.369-.775c-1.191-1.179-.809-4.155-.761-4.49-.2-3.688,3.354-8.051,3.505-8.236l.847.7c-.034.044-3.438,4.22-3.262,7.587-.154,1.163-.146,3.085.509,3.742.063.074.331.419.567.375.29-.041.769-.559,1.247-1.89a28.026,28.026,0,0,1,4.486-7.467l7.453-8.122.808.741-7.441,8.106a27.522,27.522,0,0,0-4.274,7.111c-.589,1.643-1.29,2.5-2.14,2.607A1.269,1.269,0,0,1,542.888,6258.861Z" transform="translate(88.46 145.87)" fill="#999"/>
      <path id="Trazado_111024" data-name="Trazado 111024" d="M551.979,6259.884a4.872,4.872,0,0,1-3.22-1.589c-2.8-2.594-2.246-7.38-2.222-7.582l1.089.133c-.006.043-.5,4.435,1.878,6.644,1.641,1.518,2.639,1.362,3.048,1.182l-1.389-11.1,1.088-.137,1.431,11.432a.545.545,0,0,1-.156.456A2.254,2.254,0,0,1,551.979,6259.884Z" transform="translate(89.033 146.562)" fill="#999"/>
      <path id="Trazado_111025" data-name="Trazado 111025" d="M553.82,6256.57a3.217,3.217,0,0,1-1.531-.428l.572-.936-.286.468.284-.469a1.9,1.9,0,0,0,1.279.226,1.28,1.28,0,0,0,.761-.72l.979.495a2.333,2.333,0,0,1-1.447,1.281A2.213,2.213,0,0,1,553.82,6256.57Z" transform="translate(90.754 147.266)" fill="#999"/>
    </g>
    <g id="Grupo_56899" data-name="Grupo 56899" transform="translate(449.624 -2922.535)">
      <rect id="Rectángulo_10486" data-name="Rectángulo 10486" width="241.043" height="423.652" rx="20.87" transform="translate(223.854 6124.174)" fill="#fff"/>
      <g id="Grupo_56863" data-name="Grupo 56863">
        <path id="Trazado_111070" data-name="Trazado 111070" d="M405.118,6388.183l-7.2-17.893v-6.03l6.517-40.712L413.3,6283v-16.078s2.887-7.915,3.127-20.9-.962-18.179-2.886-23.5l-18.519-6.679-14.271-5.07s-11.865-2.8-11.384-17.149l-.8-22.591-15.032,3.1-15.032-3.1.08,22.549c.481,14.346-12.266,17.191-12.266,17.191l-14.27,5.07-17.918,4.947c-1.925,5.318-3.728,12.244-3.488,25.229s3.127,20.9,3.127,20.9V6283l8.862,40.542h0l1.292,5.911,7.449,34.8v7s-13.226,28.008-14.587,50.375v111.056h119.65l-1.591-92.968S414.648,6405.1,405.118,6388.183Z" fill="#fff" stroke="#000" stroke-miterlimit="10" stroke-width="1" opacity="0.33"/>
        <g id="Grupo_56861" data-name="Grupo 56861">
          <path id="Trazado_111071" data-name="Trazado 111071" d="M396.17,6371.765l-2.24-2.64,2.1-2.272-2-2.563.722-.562,2.476,3.176-2.078,2.248,1.716,2.023Z" fill="#999"/>
          <path id="Trazado_111072" data-name="Trazado 111072" d="M393.649,6371.765l-2.24-2.64,2.1-2.272-2-2.563.722-.562,2.476,3.176-2.078,2.248,1.716,2.023Z" fill="#999"/>
          <path id="Trazado_111073" data-name="Trazado 111073" d="M391.128,6371.765l-2.24-2.64,2.1-2.272-2-2.563.722-.562,2.476,3.176-2.078,2.248,1.716,2.023Z" fill="#999"/>
          <path id="Trazado_111074" data-name="Trazado 111074" d="M388.607,6371.765l-2.24-2.64,2.1-2.272-2-2.563.722-.562,2.476,3.176-2.078,2.248,1.716,2.023Z" fill="#999"/>
          <path id="Trazado_111075" data-name="Trazado 111075" d="M386.086,6371.765l-2.24-2.64,2.1-2.272-2-2.563.722-.562,2.476,3.176-2.078,2.248,1.716,2.023Z" fill="#999"/>
          <path id="Trazado_111076" data-name="Trazado 111076" d="M383.565,6371.765l-2.24-2.64,2.1-2.272-2-2.563.722-.562,2.476,3.176-2.078,2.248,1.716,2.023Z" fill="#999"/>
          <path id="Trazado_111077" data-name="Trazado 111077" d="M381.044,6371.765l-2.24-2.64,2.1-2.272-2-2.563.722-.562,2.476,3.176-2.078,2.248,1.716,2.023Z" fill="#999"/>
          <path id="Trazado_111078" data-name="Trazado 111078" d="M378.523,6371.765l-2.24-2.64,2.1-2.272-2-2.563.722-.562,2.476,3.176-2.078,2.248,1.716,2.023Z" fill="#999"/>
          <path id="Trazado_111079" data-name="Trazado 111079" d="M376,6371.765l-2.24-2.64,2.1-2.272-2-2.563.722-.562,2.476,3.176-2.078,2.248,1.716,2.023Z" fill="#999"/>
          <path id="Trazado_111080" data-name="Trazado 111080" d="M373.481,6371.765l-2.24-2.64,2.1-2.272-2-2.563.722-.562,2.476,3.176-2.078,2.248,1.716,2.023Z" fill="#999"/>
          <path id="Trazado_111081" data-name="Trazado 111081" d="M370.96,6371.765l-2.24-2.64,2.1-2.272-2-2.563.722-.562,2.476,3.176-2.078,2.248,1.716,2.023Z" fill="#999"/>
          <path id="Trazado_111082" data-name="Trazado 111082" d="M368.439,6371.765l-2.24-2.64,2.1-2.272-2-2.563.722-.562,2.476,3.176-2.078,2.248,1.716,2.023Z" fill="#999"/>
          <path id="Trazado_111083" data-name="Trazado 111083" d="M365.918,6371.765l-2.24-2.64,2.1-2.272-2-2.563.722-.562,2.476,3.176-2.078,2.248,1.716,2.023Z" fill="#999"/>
          <path id="Trazado_111084" data-name="Trazado 111084" d="M363.4,6371.765l-2.24-2.64,2.1-2.272-2-2.563.722-.562,2.476,3.176-2.078,2.248,1.716,2.023Z" fill="#999"/>
          <path id="Trazado_111085" data-name="Trazado 111085" d="M360.876,6371.765l-2.24-2.64,2.1-2.272-2-2.563.722-.562,2.476,3.176-2.078,2.248,1.716,2.023Z" fill="#999"/>
          <path id="Trazado_111086" data-name="Trazado 111086" d="M358.355,6371.765l-2.24-2.64,2.1-2.272-2-2.563.722-.562,2.476,3.176-2.078,2.248,1.716,2.023Z" fill="#999"/>
          <path id="Trazado_111087" data-name="Trazado 111087" d="M355.833,6371.765l-2.24-2.64,2.1-2.272-2-2.563.722-.562,2.476,3.176-2.078,2.248,1.716,2.023Z" fill="#999"/>
          <path id="Trazado_111088" data-name="Trazado 111088" d="M353.312,6371.765l-2.24-2.64,2.1-2.272-2-2.563.722-.562,2.476,3.176-2.078,2.248,1.716,2.023Z" fill="#999"/>
          <path id="Trazado_111089" data-name="Trazado 111089" d="M350.791,6371.765l-2.24-2.64,2.1-2.272-2-2.563.722-.562,2.476,3.176-2.078,2.248,1.716,2.023Z" fill="#999"/>
          <path id="Trazado_111090" data-name="Trazado 111090" d="M348.27,6371.765l-2.24-2.64,2.1-2.272-2-2.563.722-.562,2.476,3.176-2.078,2.248,1.716,2.023Z" fill="#999"/>
          <path id="Trazado_111091" data-name="Trazado 111091" d="M345.749,6371.765l-2.24-2.64,2.1-2.272-2-2.563.722-.562,2.476,3.176-2.078,2.248,1.716,2.023Z" fill="#999"/>
          <path id="Trazado_111092" data-name="Trazado 111092" d="M343.228,6371.765l-2.24-2.64,2.1-2.272-2-2.563.722-.562,2.476,3.176-2.078,2.248,1.716,2.023Z" fill="#999"/>
          <path id="Trazado_111093" data-name="Trazado 111093" d="M340.707,6371.765l-2.24-2.64,2.1-2.272-2-2.563.722-.562,2.476,3.176-2.078,2.248,1.716,2.023Z" fill="#999"/>
          <path id="Trazado_111094" data-name="Trazado 111094" d="M338.186,6371.765l-2.24-2.64,2.1-2.272-2-2.563.722-.562,2.476,3.176-2.078,2.248,1.716,2.023Z" fill="#999"/>
          <path id="Trazado_111095" data-name="Trazado 111095" d="M335.665,6371.765l-2.24-2.64,2.1-2.272-2-2.563.722-.562,2.476,3.176-2.078,2.248,1.716,2.023Z" fill="#999"/>
          <path id="Trazado_111096" data-name="Trazado 111096" d="M333.144,6371.765l-2.24-2.64,2.1-2.272-2-2.563.722-.562,2.476,3.176-2.078,2.248,1.716,2.023Z" fill="#999"/>
          <path id="Trazado_111097" data-name="Trazado 111097" d="M330.623,6371.765l-2.24-2.64,2.1-2.272-2-2.563.722-.562,2.476,3.176-2.078,2.248,1.716,2.023Z" fill="#999"/>
          <path id="Trazado_111098" data-name="Trazado 111098" d="M328.1,6371.765l-2.24-2.64,2.1-2.272-2-2.563.722-.562,2.476,3.176-2.078,2.248,1.716,2.023Z" fill="#999"/>
          <path id="Trazado_111099" data-name="Trazado 111099" d="M325.581,6371.765l-2.24-2.64,2.1-2.272-2-2.563.722-.562,2.476,3.176-2.078,2.248,1.716,2.023Z" fill="#999"/>
          <path id="Trazado_111100" data-name="Trazado 111100" d="M323.06,6371.765l-2.24-2.64,2.1-2.272-2-2.563.722-.562,2.476,3.176-2.078,2.248,1.716,2.023Z" fill="#999"/>
          <path id="Trazado_111101" data-name="Trazado 111101" d="M320.539,6371.765l-2.24-2.64,2.1-2.272-2-2.563.722-.562,2.476,3.176-2.078,2.248,1.716,2.023Z" fill="#999"/>
          <path id="Trazado_111102" data-name="Trazado 111102" d="M318.018,6371.765l-2.24-2.64,2.1-2.272-2-2.563.722-.562,2.476,3.176L317,6369.151l1.716,2.023Z" fill="#999"/>
          <path id="Trazado_111103" data-name="Trazado 111103" d="M315.5,6371.765l-2.24-2.64,2.1-2.272-2-2.563.722-.562,2.476,3.176-2.078,2.248,1.716,2.023Z" fill="#999"/>
          <path id="Trazado_111104" data-name="Trazado 111104" d="M312.976,6371.765l-2.24-2.64,2.1-2.272-2-2.563.722-.562,2.476,3.176-2.078,2.248,1.716,2.023Z" fill="#999"/>
        </g>
        <path id="Trazado_111105" data-name="Trazado 111105" d="M338.537,6180.6s3.573,4.7,15.96,4.081,14.361-5.439,14.361-5.439" fill="none" stroke="#999" stroke-miterlimit="10" stroke-width="1"/>
        <line id="Línea_275" data-name="Línea 275" x2="115.979" transform="translate(295.282 6289.933)" fill="none" stroke="#999" stroke-miterlimit="10" stroke-width="1"/>
        <line id="Línea_276" data-name="Línea 276" x2="119.213" transform="translate(293.768 6283.005)" fill="none" stroke="#999" stroke-miterlimit="10" stroke-width="1"/>
        <line id="Línea_277" data-name="Línea 277" y2="40.728" transform="translate(353.539 6289.933)" fill="none" stroke="#999" stroke-miterlimit="10" stroke-width="1"/>
        <path id="Trazado_111106" data-name="Trazado 111106" d="M391.328,6214.538s.839,3.538-.364,23.45L390.518,6283" fill="none" stroke="#999" stroke-miterlimit="10" stroke-width="1"/>
        <path id="Trazado_111107" data-name="Trazado 111107" d="M390.518,6289.932l-6.679,41.486-5.951,32.648v7s11.646,24.117,12.63,70.99,2.541,90.635,2.541,90.635" fill="none" stroke="#999" stroke-miterlimit="10" stroke-width="1"/>
        <path id="Trazado_111108" data-name="Trazado 111108" d="M317.208,6289.932l6.5,40.728,6.72,33.017v7.585s-10.308,35.009-11.475,60.1-.194,60.294-.194,60.294l.194,41.038" fill="none" stroke="#999" stroke-miterlimit="10" stroke-width="1"/>
        <line id="Línea_278" data-name="Línea 278" x1="3.063" y1="354.975" transform="translate(352.555 6177.718)" fill="none" stroke="#999" stroke-miterlimit="10" stroke-width="1"/>
        <path id="Trazado_111109" data-name="Trazado 111109" d="M316.945,6214.538s-.838,3.538.365,23.45l.445,45.017" fill="none" stroke="#999" stroke-miterlimit="10" stroke-width="1"/>
        <path id="Trazado_111110" data-name="Trazado 111110" d="M334.748,6205.524s4.28,14.325,19.37,14.243,18.818-14.243,18.818-14.243" fill="none" stroke="#999" stroke-miterlimit="10" stroke-width="1"/>
        <path id="Trazado_111111" data-name="Trazado 111111" d="M390.6,6286.9l3.686-4.044,2.161.169s.922.094.738-.727l-2.428-3s-1.136-1.264-1.505.19l-.123,2.527-3.29,3.965-.4,1.249Z" fill="#666"/>
        <ellipse id="Elipse_4436" data-name="Elipse 4436" cx="15.032" cy="6.678" rx="15.032" ry="6.678" transform="translate(338.503 6164.361)" fill="#fff" stroke="#999" stroke-miterlimit="10" stroke-width="1"/>
        <g id="Grupo_56862" data-name="Grupo 56862">
          <path id="Trazado_111112" data-name="Trazado 111112" d="M360.635,6152.037c0-5.252-3.1-9.51-6.913-9.51s-6.912,4.258-6.912,9.51c0,4.108,1.9,7.6,4.547,8.927v9.094h5.223v-9.368C358.97,6159.193,360.635,6155.886,360.635,6152.037Z" fill="#fff" stroke="#999" stroke-miterlimit="10" stroke-width="1"/>
          <rect id="Rectángulo_10487" data-name="Rectángulo 10487" width="16.211" height="2.78" rx="1.209" transform="translate(345.894 6154.007)" fill="#fff" stroke="#999" stroke-miterlimit="10" stroke-width="1"/>
          <rect id="Rectángulo_10488" data-name="Rectángulo 10488" width="16.211" height="2.78" rx="1.209" transform="translate(345.894 6148.699)" fill="#fff" stroke="#999" stroke-miterlimit="10" stroke-width="1"/>
        </g>
        <line id="Línea_279" data-name="Línea 279" x2="86.064" transform="translate(311.371 6364.26)" fill="#fff" stroke="#000" stroke-miterlimit="10" stroke-width="1" opacity="0.33"/>
        <line id="Línea_280" data-name="Línea 280" x2="86.064" transform="translate(311.371 6371.262)" fill="#fff" stroke="#000" stroke-miterlimit="10" stroke-width="1" opacity="0.33"/>
        <path id="Trazado_111113" data-name="Trazado 111113" d="M294.7,6221.181s3.555,31.376-.32,45.739" fill="none" stroke="#000" stroke-miterlimit="10" stroke-width="1" opacity="0.33"/>
        <path id="Trazado_111114" data-name="Trazado 111114" d="M413.542,6222.529s-4.116,30.035-.241,44.4" fill="none" stroke="#000" stroke-miterlimit="10" stroke-width="1" opacity="0.33"/>
        <path id="Trazado_111115" data-name="Trazado 111115" d="M316.6,6286.126l-3.687-4.045-2.161.169s-.921.1-.737-.727l2.427-3s1.137-1.264,1.506.189l.122,2.528,3.291,3.965.4,1.248Z" fill="#666"/>
        <path id="Trazado_111116" data-name="Trazado 111116" d="M272.438,6311.958l.652-22.026s.131-7.453,1.565-10.583,2.87-9.131,2.609-17.087a114.784,114.784,0,0,0-1.174-13.491s0-9.6,2.87-10.509,6.913-2.348,7.3-3.391-8.609-7.044-8.609-7.044-4.956.4-5.217-6.646,12.652-11.354,12.652-11.354l16.174-6.13s5.739-3.131,10.044-2.348,13.043-1.435,13.043-1.435,14.739-3.652,15.652-3.13,9.261-1.957,9.261-1.957L359.308,6193s4.565-.565,5.217,1.022-.652,6.333-.522,8.982-.261,48.692-.261,48.692l-2.585,67.391s-2.845,46.087-2.521,63.826,0,50.435,0,50.435.019,3.043-1.937,3.761-3.457.848-3.848.326-3.13-.018-3.326.317-2.609,2.1-4.044.6-5.673-2.348-5.673-2.348l-7.566.457-2.217,1.173s-.522,1.194-3.783,1.314-11.478-.4-11.478-.4-4.37.13-5.413,1.3a3.381,3.381,0,0,1-3.587.652c-.587-.326-2.935-1.826-4.37-1.7s-6.326.2-8.934-.717-2.674-1.3-6.066-.913c0,0-6.521-.13-7.869.348s-1.913,1.174-3.3,1.348-2.783-1-4.131.087a7.584,7.584,0,0,1-3.913,1.391c-.348-.044-1.3-.609-2.261,1.043s-3.217.7-3.217.7-.174-.739-1.391.7a12.888,12.888,0,0,1-2.7,2.347l1.087-10.3s1.652-18,2.435-34.174.087-40.087.087-40.087l-2.348-41.043-3.826-47.131-1.653-30.869-1.565-21.756s.87-2.331,2.522.712l4.7,4.7,3.217,3.391s2.609,2.609,2.522,4.783-2.435,5.826-2.435,5.826l-5.478,9.13s-1.565.7-.087,1.826,3.478.522,4.956,1.392,2.609,1.478,3.3,2.869,1.391,7.044,1.391,7.044l.609,11.391s.869,10.783,1.565,12.261,2.348,13.652,2.348,13.652Z" fill="#999" stroke="#4d4d4d" stroke-linecap="round" stroke-linejoin="round" stroke-width="1" opacity="0.5"/>
        <path id="Trazado_111117" data-name="Trazado 111117" d="M315.134,6186.218s-2.261,3.922-8.522,3.787-8.99.192-12.234,2.9-8.636,2.185-8.636,2.185-11.826,1.043-18.261,4S252.873,6207.61,252.7,6209s0,6.783,0,6.783l-.077,1.565v1.043l3.99,4.348,4.847,4.978,2.468,3,.625,1.3-.386,3.679-4.685,8.965-2.608,3.648-.718.853.631.973,1.836.709,2.276.339,2.531,1.394,1.618,1.819,1.017,4.425.542,5.759.38,7.11.347,4.364.486,4.573.324,2.382,1.042,4.384,1.2,7.32,1.55,12.754.549,2.931.737-17.132.058-6.81.985-6.147,2.261-6.521.7-8.261-.261-8.7-.609-6.782.348-7.914,1.826-3.913,4.054-1.214,3.308-1.67.2-1.289-5.652-4.174-3.217-2.261h-1.305l-2.522-2-1.043-2.435.261-4.435,2.087-2.869,4.326-3.226,7.544-3.378,14.7-5.57,5.154-1.994,3.68-.469,5.376.2Z" fill="#999" stroke="#4d4d4d" stroke-linecap="round" stroke-linejoin="round" stroke-width="1"/>
        <path id="Trazado_111118" data-name="Trazado 111118" d="M287.308,6173.349s2.782,5.826,8.521,5.043,8,.783,8.435,1.3,2.261,4,4.87,3.3a10.3,10.3,0,0,1,5.13.092l.783,1.648s1.019,1.091-.688,2.442a19.942,19.942,0,0,1-3.291,2.119l-3.021.66H304.7s-4.449.258-4.794.323-2.969.928-2.969.928l-3.061,2.071-2.339,1.143-3.52.661-.491-.435Z" fill="#999" stroke="#4d4d4d" stroke-linecap="round" stroke-linejoin="round" stroke-width="1" opacity="0.5"/>
        <path id="Trazado_111119" data-name="Trazado 111119" d="M288.221,6437.958s.391,55.3.521,57.391-2.478-4.957-2.478-4.957-2.739-4.565-6.261-5.347-4.13-1.2-4.13-1.2-2.652-.739-2.479-2.957,6.022-4.782,6.022-4.782l5.413-2.413s1.7-1.174,1.435-2.152-2.87-3.131-2.87-3.131l-7.7-6.456s-3.652-3.718-5.935-3.718-6.065-.13-6.065-.13a4.934,4.934,0,0,1-3.131-3.065c-.978-2.544-2.543-6-2.543-6l-.522-3.327,3.065-2.543.64-1.206,1.621.684,1.869-.954,1.386-1.418,1.528.068,1.98-.553,1.5-.838,1.654-.446,2,.446,3.427-1.3,3.486-.461,4.218-.034,2.131-.132Z" fill="#999" stroke="#4d4d4d" stroke-linecap="round" stroke-linejoin="round" stroke-width="1"/>
        <path id="Trazado_111120" data-name="Trazado 111120" d="M275.894,6463.131l.261,13.957a14.76,14.76,0,0,0,4.005-1.31l3.78-1.685,2.04-1.519a12.929,12.929,0,0,1-.694-1.812c-.222-.82-3.049-3.319-3.049-3.319l-3.96-3.322-1.625-1.364Z" fill="#999" stroke="#4d4d4d" stroke-linecap="round" stroke-linejoin="round" stroke-width="1" opacity="0.5"/>
      </g>
    </g>
  </g>
</svg>
