<svg xmlns="http://www.w3.org/2000/svg" width="344.156" height="448.203" viewBox="0 0 344.156 448.203">
  <g id="Grupo_56858" data-name="Grupo 56858" transform="translate(-786.892 -5624.835)">
    <rect id="Rectángulo_10478" data-name="Rectángulo 10478" width="344.157" height="448.204" transform="translate(786.892 5624.835)" fill="#dcdcde"/>
    <rect id="Rectángulo_10479" data-name="Rectángulo 10479" width="268.76" height="394.208" transform="translate(815.659 5653.66)" fill="#f7f2e6"/>
    <rect id="Rectángulo_10480" data-name="Rectángulo 10480" width="256.67" height="2" transform="translate(821.659 5786.588)" fill="#333"/>
    <rect id="Rectángulo_10481" data-name="Rectángulo 10481" width="2" height="376.345" transform="translate(1051.007 5663.403)" fill="#333"/>
    <g id="Grupo_56849" data-name="Grupo 56849">
      <rect id="Rectángulo_10482" data-name="Rectángulo 10482" width="2" height="163.039" transform="translate(1097.628 5869.642)" fill="#333"/>
      <g id="Grupo_56848" data-name="Grupo 56848">
        <path id="Trazado_111048" data-name="Trazado 111048" d="M1091.222,6027.063l7.406,3.146,7.406-3.146-7.406,17.557Z" fill="#333"/>
      </g>
    </g>
    <g id="Grupo_56851" data-name="Grupo 56851">
      <rect id="Rectángulo_10483" data-name="Rectángulo 10483" width="2" height="130.56" transform="translate(1097.628 5670.877)" fill="#333"/>
      <g id="Grupo_56850" data-name="Grupo 56850">
        <path id="Trazado_111049" data-name="Trazado 111049" d="M1106.034,5676.494l-7.406-3.146-7.406,3.146,7.406-17.557Z" fill="#333"/>
      </g>
    </g>
    <g id="Grupo_56853" data-name="Grupo 56853">
      <rect id="Rectángulo_10484" data-name="Rectángulo 10484" width="2" height="108.351" transform="translate(963.355 5658.938)" fill="#333"/>
      <g id="Grupo_56852" data-name="Grupo 56852">
        <path id="Trazado_111050" data-name="Trazado 111050" d="M956.948,5761.671l7.406,3.146,7.406-3.146-7.406,17.557Z" fill="#333"/>
      </g>
    </g>
    <g id="Grupo_56854" data-name="Grupo 56854">
      <path id="Trazado_111051" data-name="Trazado 111051" d="M929.1,5637.6h1.144a1.386,1.386,0,0,0,1.074-.38,1.5,1.5,0,0,0,.35-1.057,1.37,1.37,0,0,0-.35-.984,1.32,1.32,0,0,0-1.011-.371,1.434,1.434,0,0,0-.963.335,1.1,1.1,0,0,0-.391.88h-1.975l-.014-.042a2.305,2.305,0,0,1,.914-1.967,3.647,3.647,0,0,1,2.373-.776,3.9,3.9,0,0,1,2.516.754,2.6,2.6,0,0,1,.939,2.149,2.155,2.155,0,0,1-.419,1.26,2.775,2.775,0,0,1-1.151.932,2.594,2.594,0,0,1,1.287.922,2.417,2.417,0,0,1,.443,1.444,2.643,2.643,0,0,1-1.015,2.195,4.077,4.077,0,0,1-2.6.8,3.985,3.985,0,0,1-2.433-.75,2.4,2.4,0,0,1-.98-2.118l.015-.042h1.974a1.242,1.242,0,0,0,.419.962,1.524,1.524,0,0,0,1.061.378,1.545,1.545,0,0,0,1.113-.39,1.393,1.393,0,0,0,.408-1.058,1.531,1.531,0,0,0-.4-1.173,1.679,1.679,0,0,0-1.183-.373H929.1Z"/>
      <path id="Trazado_111052" data-name="Trazado 111052" d="M935.5,5639.045l.586-5.66h5.667v1.633h-4l-.279,2.345a2.461,2.461,0,0,1,.677-.346,2.847,2.847,0,0,1,.879-.142,2.815,2.815,0,0,1,2.272.886,3.67,3.67,0,0,1,.806,2.526,3.483,3.483,0,0,1-.882,2.437,3.268,3.268,0,0,1-2.544.969,3.827,3.827,0,0,1-2.4-.767,2.428,2.428,0,0,1-.963-2.108l.014-.035,1.962-.1a1.423,1.423,0,0,0,.384,1.058,1.368,1.368,0,0,0,1.005.38,1.175,1.175,0,0,0,1.05-.5,2.329,2.329,0,0,0,.338-1.32,2.451,2.451,0,0,0-.363-1.408,1.218,1.218,0,0,0-1.074-.529,1.559,1.559,0,0,0-.9.217,1.173,1.173,0,0,0-.442.586Z"/>
      <path id="Trazado_111053" data-name="Trazado 111053" d="M950.266,5642.123a1.207,1.207,0,0,0,.872-.316,1.113,1.113,0,0,0,.328-.842h1.85l.021.042a2.351,2.351,0,0,1-.862,1.915,3.637,3.637,0,0,1-4.813-.3,4.073,4.073,0,0,1-.914-2.743v-.209a4.093,4.093,0,0,1,.911-2.743,3.219,3.219,0,0,1,2.6-1.076,3.174,3.174,0,0,1,2.251.8,2.647,2.647,0,0,1,.827,2.094l-.015.042h-1.856a1.474,1.474,0,0,0-.32-.974,1.1,1.1,0,0,0-.887-.387,1.183,1.183,0,0,0-1.142.628,3.46,3.46,0,0,0-.331,1.616v.209a3.45,3.45,0,0,0,.331,1.628A1.2,1.2,0,0,0,950.266,5642.123Z"/>
      <path id="Trazado_111054" data-name="Trazado 111054" d="M956.386,5636l.084,1a2.551,2.551,0,0,1,.911-.841,2.629,2.629,0,0,1,1.267-.3,2.311,2.311,0,0,1,1.242.322,1.98,1.98,0,0,1,.781.969,2.637,2.637,0,0,1,.907-.949,2.479,2.479,0,0,1,1.313-.342,2.18,2.18,0,0,1,1.763.772,3.608,3.608,0,0,1,.645,2.348v4.572h-2.038v-4.589a1.922,1.922,0,0,0-.279-1.2,1.019,1.019,0,0,0-.831-.336,1.362,1.362,0,0,0-1.256.727c0,.089,0,.165.007.228s.006.127.006.192v4.974h-2.03v-4.589a1.931,1.931,0,0,0-.279-1.186,1.017,1.017,0,0,0-.838-.346,1.569,1.569,0,0,0-.723.158,1.376,1.376,0,0,0-.512.443v5.52h-2.032V5636Z"/>
      <path id="Trazado_111055" data-name="Trazado 111055" d="M970.945,5641.467a.71.71,0,0,0-.325-.579,3.29,3.29,0,0,0-1.2-.433,4.858,4.858,0,0,1-2.02-.806,1.754,1.754,0,0,1-.681-1.456,2.079,2.079,0,0,1,.82-1.657,3.335,3.335,0,0,1,2.2-.681,3.6,3.6,0,0,1,2.3.678,2,2,0,0,1,.82,1.709l-.014.042h-1.968a.989.989,0,0,0-.29-.739,1.151,1.151,0,0,0-.847-.286,1.166,1.166,0,0,0-.779.24.763.763,0,0,0-.283.6.691.691,0,0,0,.3.573,3.259,3.259,0,0,0,1.2.4,4.894,4.894,0,0,1,2.073.82,1.8,1.8,0,0,1,.677,1.491,1.985,1.985,0,0,1-.873,1.664,3.779,3.779,0,0,1-2.3.645,3.507,3.507,0,0,1-2.383-.763,2.139,2.139,0,0,1-.834-1.743l.014-.041H968.4a1.058,1.058,0,0,0,.4.879,1.639,1.639,0,0,0,.984.273,1.415,1.415,0,0,0,.863-.224A.72.72,0,0,0,970.945,5641.467Z"/>
    </g>
    <g id="Grupo_56855" data-name="Grupo 56855">
      <path id="Trazado_111056" data-name="Trazado 111056" d="M986.926,5712.927h-6.937v-1.333l3.288-3.525a7.973,7.973,0,0,0,1.011-1.379,2.229,2.229,0,0,0,.3-1.043,1.567,1.567,0,0,0-.346-1.05,1.211,1.211,0,0,0-.98-.409,1.269,1.269,0,0,0-1.071.479,2.033,2.033,0,0,0-.367,1.273h-1.982l-.014-.042a3.073,3.073,0,0,1,.9-2.327,3.385,3.385,0,0,1,2.529-.953,3.534,3.534,0,0,1,2.468.816,2.806,2.806,0,0,1,.9,2.178,3.056,3.056,0,0,1-.506,1.7,16.57,16.57,0,0,1-1.672,2.042l-1.807,1.968.014.035h4.271Z"/>
      <path id="Trazado_111057" data-name="Trazado 111057" d="M994.826,5705.459a2.325,2.325,0,0,1-.4,1.347,2.681,2.681,0,0,1-1.106.915,2.981,2.981,0,0,1,1.277.976,2.392,2.392,0,0,1,.468,1.452,2.6,2.6,0,0,1-.956,2.167,4.53,4.53,0,0,1-5.015,0,2.6,2.6,0,0,1-.96-2.167,2.393,2.393,0,0,1,.465-1.456,3.011,3.011,0,0,1,1.28-.98,2.647,2.647,0,0,1-1.109-.91,2.325,2.325,0,0,1-.4-1.344,2.589,2.589,0,0,1,.887-2.1,4.051,4.051,0,0,1,4.676,0A2.578,2.578,0,0,1,994.826,5705.459Zm-1.8,4.547a1.5,1.5,0,0,0-.4-1.093,1.374,1.374,0,0,0-1.033-.411,1.346,1.346,0,0,0-1.029.411,1.527,1.527,0,0,0-.388,1.093,1.5,1.5,0,0,0,.392,1.1,1.382,1.382,0,0,0,1.039.4,1.365,1.365,0,0,0,1.026-.4A1.5,1.5,0,0,0,993.026,5710.006Zm-.231-4.456a1.449,1.449,0,0,0-.324-.988,1.1,1.1,0,0,0-.876-.374,1.084,1.084,0,0,0-.872.367,1.475,1.475,0,0,0-.315.995,1.509,1.509,0,0,0,.318,1.008,1.1,1.1,0,0,0,.883.374,1.081,1.081,0,0,0,.869-.374A1.5,1.5,0,0,0,992.795,5705.55Z"/>
      <path id="Trazado_111058" data-name="Trazado 111058" d="M1003.209,5711.5a1.207,1.207,0,0,0,.872-.316,1.114,1.114,0,0,0,.328-.842h1.85l.021.042a2.351,2.351,0,0,1-.862,1.915,3.634,3.634,0,0,1-4.812-.3,4.067,4.067,0,0,1-.914-2.743v-.209a4.093,4.093,0,0,1,.911-2.744,3.22,3.22,0,0,1,2.6-1.075,3.174,3.174,0,0,1,2.251.8,2.643,2.643,0,0,1,.827,2.094l-.014.042h-1.857a1.475,1.475,0,0,0-.32-.974,1.092,1.092,0,0,0-.887-.387,1.182,1.182,0,0,0-1.141.627,3.451,3.451,0,0,0-.331,1.617v.209a3.447,3.447,0,0,0,.331,1.628A1.193,1.193,0,0,0,1003.209,5711.5Z"/>
      <path id="Trazado_111059" data-name="Trazado 111059" d="M1009.329,5705.375l.084,1a2.549,2.549,0,0,1,.911-.841,2.629,2.629,0,0,1,1.267-.3,2.307,2.307,0,0,1,1.242.322,1.973,1.973,0,0,1,.781.969,2.639,2.639,0,0,1,.908-.949,2.462,2.462,0,0,1,1.312-.342,2.181,2.181,0,0,1,1.763.772,3.6,3.6,0,0,1,.645,2.348v4.572H1016.2v-4.589a1.922,1.922,0,0,0-.279-1.2,1.021,1.021,0,0,0-.831-.335,1.424,1.424,0,0,0-.75.192,1.409,1.409,0,0,0-.506.535c0,.089,0,.165.007.228s.007.127.007.192v4.974h-2.031v-4.589a1.924,1.924,0,0,0-.279-1.186,1.015,1.015,0,0,0-.838-.346,1.565,1.565,0,0,0-.722.158,1.384,1.384,0,0,0-.513.443v5.52h-2.031v-7.552Z"/>
      <path id="Trazado_111060" data-name="Trazado 111060" d="M1023.888,5710.847a.715.715,0,0,0-.324-.58,3.327,3.327,0,0,0-1.2-.432,4.858,4.858,0,0,1-2.021-.806,1.754,1.754,0,0,1-.681-1.456,2.081,2.081,0,0,1,.821-1.657,3.332,3.332,0,0,1,2.2-.681,3.6,3.6,0,0,1,2.3.678,2,2,0,0,1,.819,1.709l-.014.042h-1.967a.994.994,0,0,0-.29-.739,1.392,1.392,0,0,0-1.626-.046.762.762,0,0,0-.284.6.692.692,0,0,0,.3.573,3.278,3.278,0,0,0,1.2.4,4.906,4.906,0,0,1,2.074.82,1.8,1.8,0,0,1,.676,1.491,1.986,1.986,0,0,1-.873,1.664,3.779,3.779,0,0,1-2.3.645,3.506,3.506,0,0,1-2.384-.764,2.138,2.138,0,0,1-.834-1.742l.015-.041h1.863a1.057,1.057,0,0,0,.4.879,1.64,1.64,0,0,0,.985.273,1.416,1.416,0,0,0,.862-.224A.721.721,0,0,0,1023.888,5710.847Z"/>
    </g>
    <g id="Grupo_56856" data-name="Grupo 56856">
      <path id="Trazado_111061" data-name="Trazado 111061" d="M1064.594,5689.224h.965a1.169,1.169,0,0,0,.906-.32,1.271,1.271,0,0,0,.294-.891,1.162,1.162,0,0,0-.294-.831,1.115,1.115,0,0,0-.853-.311,1.208,1.208,0,0,0-.813.282.93.93,0,0,0-.329.741H1062.8l-.012-.035a1.951,1.951,0,0,1,.772-1.66,3.081,3.081,0,0,1,2-.652,3.293,3.293,0,0,1,2.122.635,2.191,2.191,0,0,1,.791,1.813,1.815,1.815,0,0,1-.353,1.062,2.353,2.353,0,0,1-.971.786,2.185,2.185,0,0,1,1.085.777,2.043,2.043,0,0,1,.374,1.218,2.229,2.229,0,0,1-.856,1.851,3.433,3.433,0,0,1-2.192.674,3.352,3.352,0,0,1-2.051-.633,2.02,2.02,0,0,1-.827-1.786l.011-.036h1.665a1.051,1.051,0,0,0,.354.812,1.286,1.286,0,0,0,.9.319,1.3,1.3,0,0,0,.938-.329,1.18,1.18,0,0,0,.345-.893,1.292,1.292,0,0,0-.339-.989,1.415,1.415,0,0,0-1-.314h-.965Z"/>
      <path id="Trazado_111062" data-name="Trazado 111062" d="M1075.523,5693.039a1.012,1.012,0,0,0,.735-.267.938.938,0,0,0,.277-.711h1.56l.017.036a1.984,1.984,0,0,1-.726,1.616,3.066,3.066,0,0,1-4.059-.251,3.434,3.434,0,0,1-.77-2.313v-.176a3.458,3.458,0,0,1,.767-2.313,2.717,2.717,0,0,1,2.193-.906,2.671,2.671,0,0,1,1.9.671,2.225,2.225,0,0,1,.7,1.765l-.011.035h-1.566a1.242,1.242,0,0,0-.271-.821.916.916,0,0,0-.747-.326,1,1,0,0,0-.962.528,2.907,2.907,0,0,0-.28,1.364v.176a2.887,2.887,0,0,0,.28,1.372A1,1,0,0,0,1075.523,5693.039Z"/>
      <path id="Trazado_111063" data-name="Trazado 111063" d="M1080.684,5687.871l.071.842a2.127,2.127,0,0,1,.768-.709,2.2,2.2,0,0,1,1.068-.25,1.955,1.955,0,0,1,1.048.27,1.674,1.674,0,0,1,.659.818,2.2,2.2,0,0,1,.765-.8,2.068,2.068,0,0,1,1.106-.288,1.84,1.84,0,0,1,1.486.649,3.04,3.04,0,0,1,.544,1.981v3.855h-1.717v-3.87a1.614,1.614,0,0,0-.237-1.009.857.857,0,0,0-.7-.282,1.2,1.2,0,0,0-.633.162,1.176,1.176,0,0,0-.425.451c0,.074,0,.139,0,.192s.006.107.006.162v4.194h-1.713v-3.87a1.623,1.623,0,0,0-.235-1,.852.852,0,0,0-.706-.292,1.319,1.319,0,0,0-.609.133,1.156,1.156,0,0,0-.433.374v4.654h-1.713v-6.368Z"/>
      <path id="Trazado_111064" data-name="Trazado 111064" d="M1092.962,5692.485a.6.6,0,0,0-.274-.488,2.77,2.77,0,0,0-1.015-.365,4.1,4.1,0,0,1-1.7-.68,1.475,1.475,0,0,1-.574-1.228,1.752,1.752,0,0,1,.692-1.4,2.8,2.8,0,0,1,1.851-.573,3.032,3.032,0,0,1,1.939.57,1.687,1.687,0,0,1,.692,1.442l-.012.036h-1.66a.837.837,0,0,0-.244-.624,1.168,1.168,0,0,0-1.372-.038.636.636,0,0,0-.238.508.577.577,0,0,0,.25.483,2.736,2.736,0,0,0,1.016.336,4.122,4.122,0,0,1,1.748.691,1.52,1.52,0,0,1,.57,1.257,1.672,1.672,0,0,1-.735,1.4,3.179,3.179,0,0,1-1.943.545,2.954,2.954,0,0,1-2.009-.644,1.8,1.8,0,0,1-.7-1.469l.011-.035h1.572a.892.892,0,0,0,.334.741,1.391,1.391,0,0,0,.831.229,1.187,1.187,0,0,0,.726-.188A.606.606,0,0,0,1092.962,5692.485Z"/>
    </g>
    <g id="Grupo_56857" data-name="Grupo 56857">
      <path id="Trazado_111065" data-name="Trazado 111065" d="M1087.766,5833.958l.494-4.774h4.779v1.377h-3.373l-.235,1.978a2.067,2.067,0,0,1,.571-.291,2.681,2.681,0,0,1,2.657.627,3.1,3.1,0,0,1,.68,2.131,2.936,2.936,0,0,1-.744,2.053,2.758,2.758,0,0,1-2.146.819,3.217,3.217,0,0,1-2.024-.648,2.045,2.045,0,0,1-.813-1.777l.012-.03,1.655-.082a1.2,1.2,0,0,0,.323.891,1.152,1.152,0,0,0,.847.322.991.991,0,0,0,.886-.427,1.953,1.953,0,0,0,.285-1.113,2.063,2.063,0,0,0-.305-1.187,1.029,1.029,0,0,0-.907-.446,1.31,1.31,0,0,0-.756.182.99.99,0,0,0-.373.494Z"/>
      <path id="Trazado_111066" data-name="Trazado 111066" d="M1100.237,5834.417a3.775,3.775,0,0,1-.781,2.581,2.987,2.987,0,0,1-4.234,0,3.77,3.77,0,0,1-.782-2.581v-1.89a3.79,3.79,0,0,1,.779-2.58,2.969,2.969,0,0,1,4.231,0,3.766,3.766,0,0,1,.787,2.58Zm-1.713-2.068a2.819,2.819,0,0,0-.306-1.491,1.064,1.064,0,0,0-1.766,0,2.862,2.862,0,0,0-.3,1.494v2.228a2.87,2.87,0,0,0,.3,1.506,1,1,0,0,0,.892.471.979.979,0,0,0,.877-.471,2.893,2.893,0,0,0,.3-1.506Z"/>
      <path id="Trazado_111067" data-name="Trazado 111067" d="M1107.128,5836.554a1.01,1.01,0,0,0,.735-.267.94.94,0,0,0,.278-.711h1.559l.018.035a1.984,1.984,0,0,1-.727,1.616,3.062,3.062,0,0,1-4.058-.251,3.427,3.427,0,0,1-.771-2.312v-.177a3.45,3.45,0,0,1,.768-2.312,2.712,2.712,0,0,1,2.192-.907,2.679,2.679,0,0,1,1.9.671,2.23,2.23,0,0,1,.7,1.766l-.012.035h-1.565a1.242,1.242,0,0,0-.272-.821.913.913,0,0,0-.747-.326,1,1,0,0,0-.962.528,2.917,2.917,0,0,0-.28,1.363v.177a2.9,2.9,0,0,0,.28,1.372A1.007,1.007,0,0,0,1107.128,5836.554Z"/>
      <path id="Trazado_111068" data-name="Trazado 111068" d="M1112.29,5831.386l.072.841a2.128,2.128,0,0,1,.767-.709,2.205,2.205,0,0,1,1.068-.25,1.94,1.94,0,0,1,1.048.271,1.676,1.676,0,0,1,.659.817,2.216,2.216,0,0,1,.765-.8,2.071,2.071,0,0,1,1.107-.289,1.836,1.836,0,0,1,1.486.65,3.042,3.042,0,0,1,.544,1.98v3.856h-1.718v-3.87a1.616,1.616,0,0,0-.236-1.009.857.857,0,0,0-.7-.282,1.188,1.188,0,0,0-.633.162,1.165,1.165,0,0,0-.426.451c0,.074,0,.139.006.191s.006.108.006.162v4.195h-1.713v-3.87a1.618,1.618,0,0,0-.236-1,.849.849,0,0,0-.706-.292,1.335,1.335,0,0,0-.609.132,1.164,1.164,0,0,0-.433.374v4.655h-1.713v-6.368Z"/>
      <path id="Trazado_111069" data-name="Trazado 111069" d="M1124.568,5836a.6.6,0,0,0-.275-.488,2.771,2.771,0,0,0-1.014-.366,4.1,4.1,0,0,1-1.705-.679,1.477,1.477,0,0,1-.574-1.228,1.752,1.752,0,0,1,.693-1.4,2.8,2.8,0,0,1,1.85-.574,3.039,3.039,0,0,1,1.94.571,1.687,1.687,0,0,1,.691,1.442l-.012.035h-1.66a.839.839,0,0,0-.244-.624,1.173,1.173,0,0,0-1.371-.038.641.641,0,0,0-.238.509.577.577,0,0,0,.25.482,2.727,2.727,0,0,0,1.015.336,4.14,4.14,0,0,1,1.748.692,1.52,1.52,0,0,1,.571,1.257,1.673,1.673,0,0,1-.736,1.4,3.186,3.186,0,0,1-1.942.545,2.948,2.948,0,0,1-2.01-.645,1.8,1.8,0,0,1-.7-1.468l.012-.036h1.571a.9.9,0,0,0,.335.742,1.388,1.388,0,0,0,.83.229,1.19,1.19,0,0,0,.727-.188A.607.607,0,0,0,1124.568,5836Z"/>
    </g>
  </g>
</svg>
