<svg xmlns="http://www.w3.org/2000/svg" xmlns:xlink="http://www.w3.org/1999/xlink" width="187.192" height="339.371" viewBox="0 0 187.192 339.371">
  <defs>
    <clipPath id="clip-path">
      <rect id="Rectángulo_10547" data-name="Rectángulo 10547" width="187.192" height="339.371" rx="12.941" fill="none"/>
    </clipPath>
  </defs>
  <g id="Grupo_56968" data-name="Grupo 56968" transform="translate(-1143.854 -7831.588)">
    <rect id="Rectángulo_10540" data-name="Rectángulo 10540" width="187.192" height="339.371" rx="12.941" transform="translate(1143.854 7831.588)" fill="#fff"/>
    <g id="Grupo_56967" data-name="Grupo 56967" transform="translate(1143.854 7831.588)">
      <g id="Grupo_56966" data-name="Grupo 56966" clip-path="url(#clip-path)">
        <g id="Grupo_56965" data-name="Grupo 56965" transform="translate(30.088 14.835)">
          <path id="Trazado_111548" data-name="Trazado 111548" d="M1256.75,7913.625l4.1,3.813-.679,1.575,1.416,1.392s3.785-2.1,3.907-4.311l-.794-1.252-2.024.9-4.791-3.221-1.136-.348-.578.533Z" transform="translate(-1159.803 -7836.279)" fill="#999"/>
          <path id="Trazado_111549" data-name="Trazado 111549" d="M1256.791,7913.534l-2.5,5.011,1.19,1.236-.836,1.8s-4.281-.63-5.174-2.661l.3-1.451,2.211.133,3.352-4.7.942-.726.729.3Z" transform="translate(-1160.646 -7836.279)" fill="#999"/>
          <g id="Grupo_56955" data-name="Grupo 56955" transform="translate(0 20.592)">
            <path id="Trazado_111550" data-name="Trazado 111550" d="M1293.706,7922.061s-12.127-5.232-16.693-8.283c0,0-4.436-2.142-4.623-11.822s.558-16.382,2.048-20.942l1.861-7.074s-5.4-8.376-20.477-10.332c0,0-10.146-.931-12.473,1.489,0,0-6.144,22.991-14.521,33.229,0,0-1.769,6.795-20.384,10.611l-21.967,4.747s-10.145,2.141-11.728,10.425c0,0-6.143,6.608-2.792,31.182l.931,5.025,10.8,55.662,15.73,62.363.652,2.233v6.237s-17.5,25.038-19.547,43.653-1.594,102.436-1.594,102.436,73.063,8.812,115.869,2.938l-1.09-98.111a83.786,83.786,0,0,0-7.447-32.95l-8-15.08s-1.4-1.116-1.118-11.355l6.609-34.532,7.912-24.852,5.957-10.984s7.757-10.113,6.765-18.554l-2.855-9.928s-.372-13.031.125-17.871l3.6-12.908,1.242-11.666s.868-5.335-2.73-8.314A90.573,90.573,0,0,0,1293.706,7922.061Z" transform="translate(-1170.531 -7863.007)" fill="#fff"/>
            <path id="Trazado_111551" data-name="Trazado 111551" d="M1258.858,8238.31c-38.365,0-79.386-4.878-79.934-4.942l-.369-.044,0-.373c0-.837-.43-84.056,1.6-102.484,1.967-17.881,18.282-41.9,19.545-43.738v-6.044l-.636-2.177-15.733-62.378-10.8-55.685-.932-5.03c-3.17-23.244,2.049-30.524,2.816-31.45,1.685-8.369,11.929-10.624,12.034-10.646l21.965-4.747c18.041-3.7,20.047-10.242,20.064-10.308l.082-.158c8.222-10.05,14.378-32.843,14.44-33.071l.1-.184c2.44-2.537,12.392-1.655,12.814-1.615,15.116,1.958,20.57,10.174,20.8,10.521l.1.156-1.908,7.254c-1.549,4.746-2.212,11.551-2.035,20.828.178,9.254,4.345,11.429,4.386,11.449,4.531,3.024,16.553,8.225,16.673,8.276l.043.022a91.266,91.266,0,0,1,10.113,6.711c3.742,3.1,2.914,8.48,2.877,8.708l-1.236,11.643-3.613,12.976c-.459,4.533-.135,16.778-.11,17.693l2.84,9.876c1.016,8.581-6.513,18.51-6.834,18.929l-5.921,10.927-7.881,24.779-6.6,34.484c-.253,9.486.942,10.915.994,10.971l.081.108,8,15.077a85.085,85.085,0,0,1,7.5,33.158l1.094,98.469-.369.051A274.813,274.813,0,0,1,1258.858,8238.31Zm-79.463-5.737c5.669.66,74.274,8.435,115.022,2.944l-1.085-97.74a84.153,84.153,0,0,0-7.408-32.78l-7.966-15c-.377-.435-1.443-2.477-1.193-11.616l6.616-34.6,7.924-24.9,5.987-11.057c.114-.155,7.679-10.135,6.717-18.3l-2.859-9.967c-.016-.532-.366-13.113.126-17.926l3.613-12.978,1.227-11.6c.011-.073.786-5.159-2.579-7.943a89.785,89.785,0,0,0-9.972-6.618c-.751-.324-12.246-5.311-16.737-8.312-.14-.062-4.621-2.336-4.811-12.164-.18-9.373.5-16.269,2.069-21.081l1.8-6.862c-.812-1.115-6.484-8.233-20.074-9.993-2.719-.249-10.125-.5-12.04,1.29-.479,1.753-6.506,23.356-14.519,33.211-.3.892-2.989,7.2-20.678,10.822l-21.963,4.747c-.1.021-9.892,2.186-11.4,10.091l-.022.118-.082.089c-.06.066-5.956,6.842-2.685,30.839l.929,5.006,10.8,55.659,15.725,62.341.665,2.337v6.369l-.077.108c-.175.249-17.461,25.164-19.474,43.458C1179.037,8148.305,1179.367,8226.459,1179.4,8232.572Z" transform="translate(-1170.578 -7863.055)" fill="#999"/>
          </g>
          <ellipse id="Elipse_4444" data-name="Elipse 4444" cx="2.513" cy="3.77" rx="2.513" ry="3.77" transform="translate(8.595 97.889)" fill="#999"/>
          <path id="Trazado_111552" data-name="Trazado 111552" d="M1290.239,7982.049l-4.667-17.653c-3.881-12.384-4.546-19.51-5.553-30.3-.131-1.4-.267-2.855-.417-4.394-1.263-13-5.828-16.513-5.874-16.546l.5-.682c.2.144,4.91,3.707,6.217,17.146.149,1.539.285,3,.417,4.4,1,10.735,1.664,17.827,5.523,30.145l4.671,17.673Z" transform="translate(-1157.592 -7836.242)" fill="#999"/>
          <path id="Trazado_111553" data-name="Trazado 111553" d="M1241.728,8061.7q-2.04,0-4.242-.034c-29.088-.463-41.309-6.873-41.428-6.938l.4-.743c.119.064,12.2,6.379,41.041,6.838,28.746.458,35.9-3.892,35.973-3.937l.458.709C1273.658,8057.768,1267.289,8061.7,1241.728,8061.7Z" transform="translate(-1167.371 -7818.426)" fill="#999"/>
          <path id="Trazado_111554" data-name="Trazado 111554" d="M1242.542,8069.741q-2.478,0-5.191-.091c-27.237-.922-40.167-7.333-40.294-7.4l.383-.753c.125.064,12.914,6.392,39.94,7.307,26.918.914,35.851-5.617,35.938-5.684l.512.671C1273.492,8064.052,1265.779,8069.741,1242.542,8069.741Z" transform="translate(-1167.245 -7817.48)" fill="#999"/>
          <path id="Trazado_111555" data-name="Trazado 111555" d="M1251.328,7918.134a20.5,20.5,0,0,1-4.458-.509c-15.055-3.347-27.578-19.446-27.7-19.608l.669-.515c.123.159,12.463,16.02,27.216,19.3,14.554,3.241,20.381-10.312,20.62-10.889l.781.324C1268.4,7906.369,1263.35,7918.134,1251.328,7918.134Z" transform="translate(-1164.461 -7838.126)" fill="#999"/>
          <path id="Trazado_111556" data-name="Trazado 111556" d="M1263.046,7881.084c-15.823,0-28.891-9.108-29.027-9.205l.488-.69c.141.1,14.32,9.946,30.852,8.984l.051.843C1264.616,7881.063,1263.826,7881.084,1263.046,7881.084Z" transform="translate(-1162.591 -7841.438)" fill="#999"/>
          <path id="Trazado_111557" data-name="Trazado 111557" d="M1262.978,7875.282c-14.186,0-27.592-9.138-27.742-9.242l.479-.694c.168.114,16.931,11.533,32.572,8.618l.154.831A29.855,29.855,0,0,1,1262.978,7875.282Z" transform="translate(-1162.438 -7842.174)" fill="#999"/>
          <path id="Trazado_111558" data-name="Trazado 111558" d="M1239.671,8232.435l-.085-87.624c.613-13.853-2.326-44.33-2.356-44.638l-.747-21.124-1.117-57.22c.015-.264,1.39-23.269,3.359-34.212,1.927-10.73-6.414-21.772-6.5-21.883-.156-.315-10.921-23.76-16.572-41.08-5.549-17.014-14.365-19.061-14.453-19.08l.171-.826c.381.077,9.366,2.112,15.085,19.644,5.636,17.274,16.381,40.674,16.489,40.908.305.383,8.605,11.366,6.61,22.467-1.958,10.895-3.331,33.849-3.346,34.08l1.118,57.179.744,21.091c.028.281,2.972,30.819,2.359,44.713l.084,87.6Z" transform="translate(-1166.723 -7837.214)" fill="#999"/>
          <path id="Trazado_111559" data-name="Trazado 111559" d="M1258.9,8235.642l-.844-.023c.034-1.122,3.192-112.427-2.124-129.66-5.36-17.374-3.757-39.953-3.741-40.18l6.331-52.144c.023-.292,2.386-31.205,1.017-45.891-.44-4.714-1.436-10.565-2.488-16.759-2.262-13.293-5.077-29.84-3.928-44.375l2.836-26.446.84.09-2.835,26.436c-1.138,14.417,1.665,30.907,3.919,44.154,1.057,6.211,2.054,12.075,2.5,16.82,1.376,14.759-.992,45.743-1.017,46.055l-6.331,52.142c-.014.205-1.6,22.629,3.708,39.849C1262.092,8123.076,1259.029,8231.054,1258.9,8235.642Z" transform="translate(-1160.334 -7840.309)" fill="#999"/>
          <path id="Trazado_111560" data-name="Trazado 111560" d="M1196.424,7985.9l-3.208-10.481.344-.151c.286-.126,28.872-12.611,52.645-8.54,23.639,4.047,52.1,7.777,52.388,7.815l2.036.32.08.248c.08.246,1.9,6.066-1.88,9.651l-.152.144-.208-.034-28.016-4.654c-.326-.067-31.211-6.28-41.234-3.36-10.126,2.945-32.178,8.878-32.4,8.938Zm-2.18-10.008,2.748,8.98c3.024-.814,22.62-6.1,31.99-8.827,10.22-2.971,40.345,3.081,41.621,3.342l27.792,4.615c2.806-2.842,1.863-7.3,1.577-8.388l-1.5-.237c-.274-.035-28.753-3.77-52.408-7.819C1223.944,7963.778,1197.553,7974.5,1194.244,7975.9Z" transform="translate(-1167.728 -7829.513)" fill="#999"/>
          <path id="Trazado_111561" data-name="Trazado 111561" d="M1237.516,8069.536l-2.833-2.831,2.182-2.991-2.706-2.937.62-.571,3.177,3.447-2.164,2.967,2.32,2.319Z" transform="translate(-1162.574 -7817.643)" fill="#999"/>
          <path id="Trazado_111562" data-name="Trazado 111562" d="M1241.1,8069.536l-2.832-2.831,2.181-2.991-2.706-2.937.62-.571,3.177,3.447-2.164,2.967,2.32,2.319Z" transform="translate(-1162.122 -7817.643)" fill="#999"/>
          <path id="Trazado_111563" data-name="Trazado 111563" d="M1244.965,8069.536l-2.832-2.831,2.181-2.991-2.706-2.937.62-.571,3.176,3.447-2.164,2.967,2.32,2.319Z" transform="translate(-1161.636 -7817.643)" fill="#999"/>
          <path id="Trazado_111564" data-name="Trazado 111564" d="M1248.62,8069.536l-2.83-2.831,2.18-2.991-2.706-2.937.62-.571,3.177,3.447-2.163,2.967,2.32,2.319Z" transform="translate(-1161.176 -7817.643)" fill="#999"/>
          <path id="Trazado_111565" data-name="Trazado 111565" d="M1252.141,8068.933l-2.833-2.831,2.182-2.99-2.706-2.938.62-.571,3.177,3.448-2.164,2.966,2.32,2.319Z" transform="translate(-1160.733 -7817.719)" fill="#999"/>
          <path id="Trazado_111566" data-name="Trazado 111566" d="M1218.149,8068.6l-2.557-3.015,2.456-2.655-2.4-3.076.666-.519,2.841,3.641-2.436,2.634,2.074,2.445Z" transform="translate(-1164.911 -7817.753)" fill="#999"/>
          <path id="Trazado_111567" data-name="Trazado 111567" d="M1221.717,8068.957l-2.556-3.015,2.456-2.655-2.4-3.076.666-.52,2.841,3.642-2.436,2.634,2.073,2.445Z" transform="translate(-1164.462 -7817.707)" fill="#999"/>
          <path id="Trazado_111568" data-name="Trazado 111568" d="M1225.561,8069.341l-2.557-3.015,2.457-2.655-2.4-3.077.666-.519,2.839,3.642-2.435,2.633,2.074,2.445Z" transform="translate(-1163.978 -7817.659)" fill="#999"/>
          <path id="Trazado_111569" data-name="Trazado 111569" d="M1206.993,8066.254l-2.557-3.015,2.456-2.655-2.4-3.077.666-.519,2.841,3.642-2.437,2.633,2.074,2.445Z" transform="translate(-1166.316 -7818.048)" fill="#999"/>
          <path id="Trazado_111570" data-name="Trazado 111570" d="M1203.5,8065.252l-2.556-3.016,2.456-2.655-2.4-3.076.667-.519,2.841,3.642-2.437,2.633,2.073,2.445Z" transform="translate(-1166.756 -7818.174)" fill="#999"/>
          <path id="Trazado_111571" data-name="Trazado 111571" d="M1200.617,8064.268l-2.557-3.015,2.457-2.655-2.4-3.077.666-.519,2.839,3.642-2.435,2.633,2.074,2.445Z" transform="translate(-1167.119 -7818.298)" fill="#999"/>
          <path id="Trazado_111572" data-name="Trazado 111572" d="M1210.562,8067.21l-2.556-3.014,2.457-2.656-2.4-3.076.666-.52,2.84,3.642-2.435,2.635,2.073,2.444Z" transform="translate(-1165.867 -7817.927)" fill="#999"/>
          <path id="Trazado_111573" data-name="Trazado 111573" d="M1214.405,8067.595l-2.557-3.014,2.457-2.657-2.4-3.076.666-.519,2.839,3.642-2.435,2.634,2.074,2.444Z" transform="translate(-1165.383 -7817.879)" fill="#999"/>
          <path id="Trazado_111574" data-name="Trazado 111574" d="M1229.2,8069.7l-2.558-3.016,2.456-2.655-2.4-3.076.667-.519,2.841,3.642-2.437,2.633,2.074,2.445Z" transform="translate(-1163.52 -7817.613)" fill="#999"/>
          <path id="Trazado_111575" data-name="Trazado 111575" d="M1232.759,8069.476l-2.558-3.015,2.458-2.655-2.4-3.076.666-.52,2.839,3.642-2.435,2.634,2.074,2.445Z" transform="translate(-1163.072 -7817.642)" fill="#999"/>
          <path id="Trazado_111576" data-name="Trazado 111576" d="M1262.212,8065.775l-2.607-2.317,1.953-2.381-2.35-2.268.587-.607,2.91,2.809-1.933,2.355,2,1.777Z" transform="translate(-1159.42 -7817.895)" fill="#999"/>
          <path id="Trazado_111577" data-name="Trazado 111577" d="M1259.306,8066.669l-2.607-2.317,1.953-2.38-2.35-2.269.587-.606,2.91,2.809-1.933,2.354,2,1.777Z" transform="translate(-1159.786 -7817.783)" fill="#999"/>
          <path id="Trazado_111578" data-name="Trazado 111578" d="M1256.6,8067.577l-2.876-2.482,2.169-2.565-2.63-2.464.578-.616,3.215,3.012-2.147,2.541,2.243,1.936Z" transform="translate(-1160.169 -7817.737)" fill="#999"/>
          <path id="Trazado_111579" data-name="Trazado 111579" d="M1264.581,8065.014l-2.3-2.226L1264,8060.5l-2.074-2.179.611-.583,2.568,2.7-1.705,2.263,1.764,1.706Z" transform="translate(-1159.078 -7817.953)" fill="#999"/>
          <path id="Trazado_111580" data-name="Trazado 111580" d="M1193.608,8222.758l-.844-.025c.022-.725,2.279-72.726,3.116-103.765.807-29.849,10.013-39.833,11.194-40.991l1.065-6.735-24.685-113.93.825-.179L1209,8071.218l-.013.077-1.124,7.1-.109.1c-.1.094-10.2,9.7-11.028,40.5C1195.886,8150.032,1193.629,8222.036,1193.608,8222.758Z" transform="translate(-1168.958 -7830.618)" fill="#999"/>
          <g id="Grupo_56956" data-name="Grupo 56956" transform="translate(13.448 126.514)">
            <rect id="Rectángulo_10541" data-name="Rectángulo 10541" width="0.844" height="1.125" transform="matrix(0.977, -0.212, 0.212, 0.977, 0, 0.179)" fill="#999"/>
            <path id="Trazado_111581" data-name="Trazado 111581" d="M1192.747,8218.355l-.844-.027.07-2.256.844.028Zm.14-4.511-.844-.027.07-2.252.844.027Zm.137-4.5-.844-.026.07-2.251.844.026Zm.14-4.5-.844-.027.07-2.251.844.028Zm.137-4.5-.844-.026.07-2.251.844.026Zm.137-4.5-.844-.025.069-2.25.844.025Zm.137-4.5-.844-.023.069-2.251.844.026Zm.135-4.5-.844-.025.07-2.25.844.026Zm.139-4.5-.844-.023.068-2.251.844.026Zm.136-4.5-.844-.023.068-2.251.844.026Zm.135-4.5-.844-.023.068-2.251.844.026Zm.136-4.5-.844-.027.066-2.248.844.024Zm.135-4.5-.844-.026.066-2.253.844.024Zm.133-4.5-.844-.027.065-2.178.424-.056.42.079Zm.135-4.491-.844-.024.066-2.25.844.023Zm.133-4.5-.844-.023.067-2.25.844.023Zm.132-4.5-.844-.024.065-2.248.844.023Zm.132-4.5-.844-.023.065-2.248.844.023Zm.132-4.5-.844-.023.065-2.249.844.023Zm.127-4.5-.844-.025.065-2.25.844.024Zm.129-4.5-.844-.024.063-2.249.844.024Zm.126-4.5-.844-.024.062-2.25.844.022Zm.124-4.5-.844-.022.02-.733c.014-.514.03-1.019.05-1.52l.844.031q-.029.747-.049,1.511Zm.171-4.482-.843-.046q.064-1.146.14-2.25l.843.061Q1195.928,8113.733,1195.866,8114.873Zm.316-4.467-.84-.078q.1-1.144.222-2.243l.84.09Q1196.286,8109.268,1196.182,8110.406Zm.486-4.453-.838-.108q.149-1.143.314-2.235l.835.129C1196.87,8104.457,1196.766,8105.2,1196.669,8105.953Zm.672-4.424-.831-.146c.133-.763.274-1.5.419-2.22l.826.168Q1197.541,8100.4,1197.341,8101.529Zm.886-4.384-.822-.188q.262-1.138.539-2.194l.816.214Q1198.487,8096.022,1198.227,8097.146Zm1.133-4.32-.809-.24q.334-1.126.68-2.157l.8.269C1199.8,8091.373,1199.579,8092.081,1199.36,8092.825Zm1.421-4.231-.789-.3q.42-1.119.847-2.1l.776.335C1201.336,8087.174,1201.057,8087.86,1200.781,8088.594Zm1.763-4.087-.759-.371c.364-.741.718-1.409,1.061-2.013l.734.417C1203.246,8083.129,1202.9,8083.781,1202.544,8084.507Zm2.194-3.855-.7-.468a21.763,21.763,0,0,1,1.365-1.842l.649.541A21.551,21.551,0,0,0,1204.738,8080.651Zm2.319-3.924-.833-.132.351-2.219.833.132Zm.7-4.44-.833-.132.2-1.282-.167-.773.824-.178.2.928Zm-1.275-4.386-.476-2.2.825-.178.476,2.2Zm-.952-4.394-.475-2.2.824-.178.476,2.2Zm-.951-4.395-.476-2.2.824-.178.476,2.2Zm-.953-4.395-.476-2.2.825-.179.475,2.2Zm-.953-4.4-.476-2.2.825-.178.476,2.2Zm-.951-4.393-.476-2.2.824-.178.476,2.2Zm-.953-4.4-.476-2.2.824-.179.476,2.2Zm-.952-4.395-.476-2.2.825-.178.476,2.2Zm-.951-4.394-.476-2.2.824-.178.476,2.2Zm-.953-4.395-.476-2.2.824-.18.476,2.2Zm-.953-4.4-.476-2.2.825-.178.476,2.2Zm-.953-4.393-.475-2.2.824-.178.476,2.2Zm-.951-4.4-.476-2.2.824-.179.476,2.2Zm-.952-4.395-.476-2.2.825-.178.475,2.2Zm-.953-4.395-.476-2.2.825-.179.476,2.2Zm-.951-4.394-.476-2.2.824-.18.476,2.2Zm-.953-4.4-.476-2.2.824-.178.476,2.2Zm-.952-4.394-.476-2.2.825-.178.476,2.2Zm-.952-4.394-.475-2.2.824-.179.476,2.2Zm-.952-4.4-.476-2.2.824-.178.476,2.2Zm-.952-4.395-.476-2.2.825-.179.475,2.2Zm-.953-4.395-.475-2.2.824-.18.476,2.2Zm-.951-4.395-.476-2.2.824-.178.476,2.2Zm-.953-4.394-.476-2.2.825-.178.475,2.2Zm-.953-4.395-.476-2.2.825-.18.476,2.2Z" transform="translate(-1182.443 -7956.764)" fill="#999"/>
            <rect id="Rectángulo_10542" data-name="Rectángulo 10542" width="1.122" height="0.845" transform="translate(9.358 264.839) rotate(-88.21)" fill="#999"/>
          </g>
          <g id="Grupo_56957" data-name="Grupo 56957" transform="translate(15.555 126.51)">
            <rect id="Rectángulo_10543" data-name="Rectángulo 10543" width="0.844" height="1.126" transform="translate(0 0.179) rotate(-12.232)" fill="#999"/>
            <path id="Trazado_111582" data-name="Trazado 111582" d="M1194.709,8219.109l-.844-.023.067-2.263.844.025Zm.132-4.521-.844-.024.066-2.259.844.024Zm.132-4.517-.844-.023.065-2.259.844.024Zm.133-4.515-.844-.025.065-2.255.844.023Zm.131-4.512-.844-.025.067-2.258.844.025Zm.132-4.516-.844-.024.065-2.256.844.024Zm.132-4.511-.844-.026.065-2.255.844.023Zm.13-4.513-.844-.024.065-2.256.844.023Zm.131-4.512-.844-.023.065-2.257.844.024Zm.132-4.513-.844-.023.065-2.256.844.024Zm.131-4.511-.844-.024.065-2.256.844.024Zm.128-4.511-.844-.025.063-2.189.846-.042Zm.132-4.513-.844-.024.064-2.261.844.024Zm.128-4.518-.844-.023.064-2.254.844.023Zm.13-4.5-.844-.024.064-2.256.844.023Zm.128-4.512-.844-.023.064-2.256.844.024Zm.13-4.513-.844-.024.063-2.256.844.025Zm.127-4.512-.844-.024.064-2.255.844.024Zm.127-4.511-.844-.025.064-2.255.844.023Zm.126-4.515-.844-.023.064-2.256.844.023Zm.126-4.513-.844-.022.062-2.257.844.023Zm.125-4.512-.844-.022.062-2.258.844.022Zm.124-4.515-.844-.022.064-2.259.844.029Zm.16-4.5-.844-.042q.059-1.151.133-2.258l.842.057C1197.794,8113.819,1197.75,8114.565,1197.713,8115.328Zm.3-4.482-.842-.072q.1-1.147.214-2.251l.84.089C1198.153,8109.34,1198.08,8110.084,1198.017,8110.845Zm.468-4.468-.837-.1q.144-1.148.305-2.241l.835.123C1198.682,8104.877,1198.583,8105.621,1198.486,8106.377Zm.654-4.437-.833-.144q.2-1.143.411-2.225l.829.162Q1199.334,8100.806,1199.14,8101.94Zm.869-4.4-.824-.185q.255-1.143.528-2.205l.819.209Q1200.263,8096.412,1200.009,8097.541Zm1.11-4.34-.811-.235q.329-1.134.67-2.168l.8.264Q1201.444,8092.083,1201.119,8093.2Zm1.4-4.251-.792-.295q.417-1.121.835-2.113l.778.328Q1202.927,8087.845,1202.515,8088.95Zm1.738-4.117-.761-.364c.354-.742.706-1.416,1.042-2.026l.739.409C1204.944,8083.448,1204.6,8084.106,1204.254,8084.833Zm2.163-3.89-.708-.461c.444-.684.894-1.312,1.335-1.865l.66.528C1207.278,8079.676,1206.845,8080.281,1206.417,8080.943Zm2.458-3.877-.833-.131.351-2.228.834.132Zm.7-4.454-.833-.131.254-1.611-.1-.455.824-.178.133.608Zm-1.154-4.4-.477-2.2.824-.179.478,2.2Zm-.956-4.407-.477-2.2.825-.178.477,2.2Zm-.955-4.406-.477-2.2.824-.178.478,2.2Zm-.955-4.407-.478-2.2.824-.178.477,2.2Zm-.955-4.406-.478-2.2.825-.178.478,2.2Zm-.955-4.407-.477-2.2.824-.178.477,2.2Zm-.955-4.408-.477-2.2.825-.179.476,2.2Zm-.956-4.406-.477-2.2.825-.18.477,2.2Zm-.954-4.406-.477-2.2.824-.179.477,2.2Zm-.955-4.408-.479-2.2.825-.179.477,2.2Zm-.956-4.407-.476-2.2.824-.178.478,2.2Zm-.954-4.406-.479-2.2.824-.178.479,2.2Zm-.956-4.407-.477-2.2.825-.178.476,2.2Zm-.955-4.406-.477-2.2.824-.178.479,2.2Zm-.955-4.407-.478-2.2.824-.178.477,2.2Zm-.955-4.407-.479-2.2.825-.179.479,2.2Zm-.956-4.406-.477-2.2.824-.178.478,2.2Zm-.954-4.406-.479-2.2.824-.179.479,2.2Zm-.956-4.408-.477-2.2.825-.179.478,2.2Zm-.954-4.406-.479-2.2.824-.178.479,2.2Zm-.956-4.407-.477-2.2.824-.178.477,2.2Zm-.955-4.407-.479-2.2.825-.178.478,2.2Zm-.955-4.406-.477-2.2.824-.179.477,2.2Zm-.955-4.407-.479-2.2.825-.18.478,2.2Zm-.956-4.406-.477-2.2.825-.18.478,2.2Z" transform="translate(-1184.314 -7956.759)" fill="#999"/>
            <rect id="Rectángulo_10544" data-name="Rectángulo 10544" width="1.122" height="0.845" transform="translate(9.454 265.605) rotate(-88.21)" fill="#999"/>
          </g>
          <path id="Trazado_111583" data-name="Trazado 111583" d="M1182.613,7964.116c-6.634,0-12.03-11.687-12.03-26.051s5.4-26.05,12.03-26.05,12.029,11.686,12.029,26.05S1189.246,7964.116,1182.613,7964.116Zm0-51.256c-6.167,0-11.186,11.308-11.186,25.205s5.018,25.207,11.186,25.207,11.185-11.308,11.185-25.207S1188.78,7912.86,1182.613,7912.86Z" transform="translate(-1170.578 -7836.298)" fill="#999"/>
          <path id="Trazado_111584" data-name="Trazado 111584" d="M1289.934,7977.991l5.213-1.365.93,1.365,1.862-.435s.248-4.158-1.49-5.4h-1.427l-.31,2.109-5.089,2.234-.868.744.136.745Z" transform="translate(-1155.701 -7828.727)" fill="#666"/>
          <path id="Trazado_111585" data-name="Trazado 111585" d="M1258.489,8236.349h-.016a.564.564,0,0,1-.547-.579c.034-1.122,3.192-112.4-2.118-129.614-5.367-17.4-3.763-40.006-3.747-40.231l6.332-52.151c.021-.286,2.385-31.187,1.016-45.86-.439-4.71-1.434-10.557-2.486-16.746-2.263-13.3-5.079-29.859-3.931-44.411l3.164-27.326a.563.563,0,1,1,1.119.129l-3.161,27.307c-1.137,14.392,1.666,30.871,3.918,44.112,1.057,6.212,2.055,12.08,2.5,16.83,1.376,14.771-.993,45.766-1.017,46.078l-6.332,52.147c-.014.2-1.6,22.6,3.7,39.791,5.364,17.388,2.3,125.389,2.167,129.979A.563.563,0,0,1,1258.489,8236.349Z" transform="translate(-1160.35 -7840.464)" fill="#4d4d4d"/>
          <g id="Grupo_56958" data-name="Grupo 56958" transform="translate(99.896 145.41)">
            <path id="Trazado_111586" data-name="Trazado 111586" d="M1292.419,7978.395s-26.936-2.936-33.044-4.11" transform="translate(-1259.295 -7973.869)" fill="#fff"/>
            <path id="Trazado_111587" data-name="Trazado 111587" d="M1292.382,7978.861c-.269-.028-27.022-2.952-33.078-4.117l.16-.828c6.021,1.158,32.741,4.078,33.01,4.105Z" transform="translate(-1259.304 -7973.916)" fill="#999"/>
          </g>
          <g id="Grupo_56962" data-name="Grupo 56962" transform="translate(80.501)">
            <g id="Grupo_56959" data-name="Grupo 56959" transform="translate(1.453)">
              <path id="Trazado_111588" data-name="Trazado 111588" d="M1248.553,7861.658v10.054a5.067,5.067,0,0,0,4.623.341l.092-10.395a8.062,8.062,0,0,0,6.082-8s.868-8.873-8.067-8.5-7.447,10.672-7.447,10.672S1245.45,7861.038,1248.553,7861.658Z" transform="translate(-1243.321 -7844.718)" fill="#fff"/>
              <path id="Trazado_111589" data-name="Trazado 111589" d="M1251.231,7872.925a5.349,5.349,0,0,1-2.873-.82l-.18-.127v-9.943c-3.085-.936-4.63-5.821-4.7-6.035-.045-.278-.739-5.329,1.969-8.593a7.669,7.669,0,0,1,5.862-2.63c2.76-.113,4.918.618,6.4,2.18,2.486,2.629,2.126,6.617,2.11,6.784a8.429,8.429,0,0,1-6.083,8.284l-.092,10.359-.259.106A5.645,5.645,0,0,1,1251.231,7872.925Zm-2.209-1.4a4.625,4.625,0,0,0,3.78.287l.095-10.437.324-.076a7.578,7.578,0,0,0,5.754-7.59c.006-.082.337-3.827-1.886-6.171-1.3-1.374-3.226-2.017-5.742-1.912a6.856,6.856,0,0,0-5.244,2.321c-2.469,2.972-1.807,7.822-1.8,7.87h0c.006,0,1.566,4.916,4.381,5.479l.34.068Z" transform="translate(-1243.369 -7844.765)" fill="#999"/>
            </g>
            <g id="Grupo_56960" data-name="Grupo 56960" transform="translate(0 4.139)">
              <rect id="Rectángulo_10545" data-name="Rectángulo 10545" width="18.252" height="3.13" rx="1.209" transform="translate(0.563 0.563)" fill="#fff"/>
              <path id="Trazado_111590" data-name="Trazado 111590" d="M1259.533,7852.7H1244a1.927,1.927,0,0,1-1.924-1.924v-.409a1.927,1.927,0,0,1,1.924-1.924h15.531a1.926,1.926,0,0,1,1.923,1.924v.409A1.926,1.926,0,0,1,1259.533,7852.7ZM1244,7849.567a.8.8,0,0,0-.8.8v.409a.8.8,0,0,0,.8.8h15.531a.8.8,0,0,0,.8-.8v-.409a.8.8,0,0,0-.8-.8Z" transform="translate(-1242.078 -7848.441)" fill="#999"/>
            </g>
            <g id="Grupo_56961" data-name="Grupo 56961" transform="translate(0 10.014)">
              <rect id="Rectángulo_10546" data-name="Rectángulo 10546" width="18.252" height="3.13" rx="1.209" transform="translate(0.563 0.562)" fill="#fff"/>
              <path id="Trazado_111591" data-name="Trazado 111591" d="M1259.533,7857.916H1244a1.927,1.927,0,0,1-1.924-1.925v-.408a1.926,1.926,0,0,1,1.924-1.923h15.531a1.925,1.925,0,0,1,1.923,1.923v.408A1.926,1.926,0,0,1,1259.533,7857.916Zm-15.531-3.13a.8.8,0,0,0-.8.8v.408a.8.8,0,0,0,.8.8h15.531a.8.8,0,0,0,.8-.8v-.408a.8.8,0,0,0-.8-.8Z" transform="translate(-1242.078 -7853.66)" fill="#999"/>
            </g>
          </g>
          <g id="Grupo_56963" data-name="Grupo 56963" transform="translate(5.996 57.521)" opacity="0.71">
            <path id="Trazado_111592" data-name="Trazado 111592" d="M1176.405,7911.92s22.908,7.372,18.594,34.816-12.531,25.737-12.531,25.737l13.378,55.463,10.56,46.259.636,8.471s-.381,8.026-1.047,10.18c0,0,13.267.364,27.361.756,15.552.432,32.109.9,32.955.942,1.612.087-4.443-6.111-4.027-11.2s2.606-30.444,2.606-30.444l5.74-55.61s-.128-21.105-1.165-31.626-7.592-52.733-7.592-52.733-5.977,4.961-14.348-.229a146.6,146.6,0,0,1-15.713-11.455l-5.042-4.9-50.365,14.661Z" transform="translate(-1175.841 -7895.791)" fill="#ccc"/>
            <path id="Trazado_111593" data-name="Trazado 111593" d="M1266.4,8095.171l-.061,0c-.678-.037-12.068-.362-32.94-.941l-27.361-.755a.563.563,0,0,1-.522-.729c.638-2.063,1.019-9.96,1.023-10.04l-.636-8.4-10.546-46.178-13.378-55.455a.566.566,0,0,1,.143-.524.558.558,0,0,1,.519-.158,3.682,3.682,0,0,0,2.507-.9c2.325-1.665,6.63-7.045,9.354-24.375,4.187-26.631-17.295-33.895-18.211-34.192a.561.561,0,0,1-.391-.534v-.907a.564.564,0,0,1,.406-.541l50.365-14.66a.568.568,0,0,1,.551.138l5.041,4.895a147.557,147.557,0,0,0,15.618,11.38c7.9,4.9,13.459.465,13.692.272a.559.559,0,0,1,.559-.092.566.566,0,0,1,.357.439c.065.422,6.569,42.348,7.6,52.766s1.166,31.467,1.167,31.679l-5.744,55.67h0s-2.188,25.347-2.6,30.433c-.234,2.864,1.772,6.2,3.1,8.408.982,1.635,1.43,2.38,1.092,2.943A.776.776,0,0,1,1266.4,8095.171Zm-59.635-2.806,26.664.736c19.231.534,30.147.846,32.514.926-.195-.4-.566-1.019-.905-1.583-1.4-2.331-3.52-5.854-3.255-9.081.416-5.087,2.6-30.448,2.6-30.448l5.742-55.617c0-.15-.144-21.139-1.166-31.515-.94-9.547-6.51-45.725-7.452-51.826-1.948,1.167-7.357,3.546-14.224-.712a148.348,148.348,0,0,1-15.783-11.506l-4.833-4.69L1177.03,7911.5v.089c3.04,1.16,22.614,9.693,18.588,35.3-2.673,17-6.868,23.081-9.918,25.189a5.536,5.536,0,0,1-2.457,1.018l13.212,54.771,10.561,46.268.65,8.555A92.63,92.63,0,0,1,1206.769,8092.365Z" transform="translate(-1175.904 -7895.854)" fill="#4d4d4d"/>
          </g>
          <path id="Trazado_111594" data-name="Trazado 111594" d="M1233.787,8081.306a.562.562,0,0,1-.563-.562c0-.47-.2-47.216-.32-59.433-.141-14.893.806-49.67.816-50.021a.587.587,0,0,1,.579-.547.562.562,0,0,1,.547.578c-.01.35-.956,35.105-.816,49.978.115,12.221.318,58.97.32,59.44a.563.563,0,0,1-.561.565Z" transform="translate(-1162.734 -7828.905)" fill="#4d4d4d"/>
          <g id="Grupo_56964" data-name="Grupo 56964" transform="translate(70.987 141.837)">
            <path id="Trazado_111595" data-name="Trazado 111595" d="M1253.252,8068.02a.563.563,0,0,1-.551-.453l-.547-2.763a.562.562,0,1,1,1.1-.219l.547,2.761a.564.564,0,0,1-.441.663A.546.546,0,0,1,1253.252,8068.02Z" transform="translate(-1231.297 -7958.985)" fill="#4d4d4d"/>
            <path id="Trazado_111596" data-name="Trazado 111596" d="M1253.787,8070.717a.564.564,0,0,1-.552-.454l-1.068-5.389a.563.563,0,1,1,1.1-.22l1.068,5.389a.564.564,0,0,1-.442.662A.538.538,0,0,1,1253.787,8070.717Zm-2.137-10.779a.563.563,0,0,1-.551-.452l-1.068-5.389a.563.563,0,1,1,1.1-.221l1.068,5.39a.563.563,0,0,1-.441.662A.624.624,0,0,1,1251.65,8059.938Zm-2.137-10.776a.563.563,0,0,1-.552-.453l-1.067-5.389a.563.563,0,0,1,1.1-.221l1.067,5.389a.561.561,0,0,1-.442.662A.478.478,0,0,1,1249.513,8049.162Zm-2.137-10.777a.562.562,0,0,1-.551-.455l-1.067-5.387a.563.563,0,1,1,1.1-.22l1.067,5.389a.563.563,0,0,1-.441.662A.549.549,0,0,1,1247.376,8038.384Zm-2.136-10.778a.563.563,0,0,1-.552-.452l-1.069-5.389a.563.563,0,0,1,1.1-.22l1.068,5.389a.563.563,0,0,1-.443.662A.533.533,0,0,1,1245.24,8027.606Zm-2.137-10.777a.563.563,0,0,1-.551-.452l-1.068-5.388a.563.563,0,0,1,.441-.662.556.556,0,0,1,.662.441l1.068,5.389a.561.561,0,0,1-.441.661A.538.538,0,0,1,1243.1,8016.829Zm-2.137-10.775a.561.561,0,0,1-.551-.452l-1.068-5.39a.563.563,0,0,1,1.1-.221l1.067,5.391a.561.561,0,0,1-.443.66A.478.478,0,0,1,1240.966,8006.053Zm-2.137-10.777a.563.563,0,0,1-.551-.453l-1.068-5.389a.562.562,0,1,1,1.1-.22l1.07,5.389a.564.564,0,0,1-.443.662A.538.538,0,0,1,1238.829,7995.276Zm-2.136-10.778a.563.563,0,0,1-.551-.452l-1.07-5.389a.563.563,0,1,1,1.1-.219l1.068,5.388a.563.563,0,0,1-.441.662A.631.631,0,0,1,1236.693,7984.5Z" transform="translate(-1233.448 -7969.831)" fill="#4d4d4d"/>
            <path id="Trazado_111597" data-name="Trazado 111597" d="M1234.736,7974.631a.563.563,0,0,1-.551-.453l-.546-2.761a.562.562,0,0,1,1.1-.219l.547,2.761a.562.562,0,0,1-.444.661A.52.52,0,0,1,1234.736,7974.631Z" transform="translate(-1233.628 -7970.743)" fill="#4d4d4d"/>
          </g>
          <path id="Trazado_111598" data-name="Trazado 111598" d="M1288.309,7976.843l5.382-.264.63,1.527,1.911-.043s1.1-4.017-.348-5.589l-1.4-.293-.738,2-5.439,1.141-1,.551-.02.756Z" transform="translate(-1155.885 -7828.725)" fill="#666"/>
          <path id="Trazado_111599" data-name="Trazado 111599" d="M1233.393,7969.19l4.109-3.486,1.429.828,1.491-1.2s-1.574-3.854-3.678-4.224l-1.286.619.633,2.035-3.622,4.216-.46,1.047.445.612Z" transform="translate(-1162.845 -7830.118)" fill="#666"/>
          <path id="Trazado_111600" data-name="Trazado 111600" d="M1185.845,7907.891l-.366-5.377,1.514-.659-.079-1.91s-4.037-1.021-5.581.454l-.267,1.4,2.014.7,1.243,5.417.57.993.757.006Z" transform="translate(-1169.258 -7837.862)" fill="#666"/>
          <path id="Trazado_111601" data-name="Trazado 111601" d="M1222.689,7900.643l-3.187-4.344.927-1.368-1.089-1.572s-3.958,1.3-4.472,3.372l.526,1.328,2.075-.489,3.95,3.909,1.012.533.643-.4Z" transform="translate(-1165.003 -7838.647)" fill="#666"/>
          <path id="Trazado_111602" data-name="Trazado 111602" d="M1221.906,7901.675l4.531-2.918,1.308,1.009,1.635-.99s-1.056-4.03-3.093-4.669l-1.357.443.36,2.1-4.142,3.7-.594.979.36.666Z" transform="translate(-1164.287 -7838.554)" fill="#666"/>
          <path id="Trazado_111603" data-name="Trazado 111603" d="M1251.451,7915.142l4.531-2.917,1.31,1.009,1.635-.991s-1.056-4.029-3.093-4.669l-1.357.443.36,2.1-4.142,3.7-.594.978.36.666Z" transform="translate(-1160.567 -7836.857)" fill="#666"/>
          <path id="Trazado_111604" data-name="Trazado 111604" d="M1197.661,7932.162l-2.366-4.841,1.155-1.182-.794-1.739s-4.124.575-5,2.524l.281,1.4,2.13-.111,3.193,4.549.9.7.7-.28Z" transform="translate(-1168.05 -7834.74)" fill="#666"/>
          <path id="Trazado_111605" data-name="Trazado 111605" d="M1184.707,7908.086l-4.087-3.513.595-1.541-1.415-1.285s-3.562,2.159-3.595,4.294l.812,1.175,1.912-.944,4.731,2.915,1.106.292.536-.534Z" transform="translate(-1169.87 -7837.591)" fill="#666"/>
          <path id="Trazado_111606" data-name="Trazado 111606" d="M1197.219,7975.535l4.108-3.485,1.43.828,1.491-1.2s-1.574-3.855-3.678-4.223l-1.287.617.634,2.036-3.622,4.215-.461,1.048.445.613Z" transform="translate(-1167.399 -7829.319)" fill="#666"/>
          <path id="Trazado_111607" data-name="Trazado 111607" d="M1187.837,7966.864l-4.531-2.915.376-1.609-1.578-1.077s-3.231,2.629-2.97,4.748l.965,1.052,1.764-1.2,5.087,2.236,1.136.138.457-.6Z" transform="translate(-1169.503 -7830.099)" fill="#666"/>
          <path id="Trazado_111608" data-name="Trazado 111608" d="M1188.352,7968.829l-4.53,2.917.376,1.608-1.578,1.077s-3.23-2.629-2.97-4.748l.966-1.051,1.763,1.2,5.087-2.236,1.137-.137.456.6Z" transform="translate(-1169.438 -7829.319)" fill="#666"/>
          <path id="Trazado_111609" data-name="Trazado 111609" d="M1259.992,7970.96l5.075-1.81,1.045,1.28,1.817-.594s-.11-4.164-1.948-5.25l-1.422.123-.127,2.129-4.877,2.663-.8.817.2.729Z" transform="translate(-1159.478 -7829.68)" fill="#666"/>
          <path id="Trazado_111610" data-name="Trazado 111610" d="M1258.871,7973.339l4.064,3.537-.6,1.538,1.407,1.292s3.574-2.137,3.621-4.271l-.8-1.179-1.917.933-4.713-2.945-1.1-.3-.538.533Z" transform="translate(-1159.537 -7828.754)" fill="#666"/>
          <path id="Trazado_111611" data-name="Trazado 111611" d="M1234.852,8070.347l2.88,4.555-1.019,1.3.977,1.643s4.037-1.022,4.694-3.054l-.432-1.361-2.1.343-3.67-4.172-.973-.6-.668.354Z" transform="translate(-1162.526 -7816.535)" fill="#666"/>
          <path id="Trazado_111612" data-name="Trazado 111612" d="M1254.511,8067.093l3.679,3.937-.759,1.468,1.267,1.432s3.776-1.759,4.042-3.876l-.678-1.256-2,.73-4.384-3.416-1.068-.41-.59.473Z" transform="translate(-1160.074 -7816.95)" fill="#666"/>
          <path id="Trazado_111613" data-name="Trazado 111613" d="M1233.635,8068.976l-3.789,3.831-1.5-.7-1.38,1.323s1.906,3.7,4.033,3.885l1.228-.728-.808-1.973,3.239-4.516.368-1.083-.5-.572Z" transform="translate(-1163.479 -7816.605)" fill="#666"/>
          <path id="Trazado_111614" data-name="Trazado 111614" d="M1206.966,8064.122l-5.38-.275-.475-1.582-1.906-.15s-1.493,3.89-.213,5.6l1.361.431.933-1.917,5.526-.59,1.053-.447.1-.751Z" transform="translate(-1167.067 -7817.402)" fill="#666"/>
          <path id="Trazado_111615" data-name="Trazado 111615" d="M1184.817,7977.922a.557.557,0,0,1-.332-.108.564.564,0,0,1-.124-.787c.116-.164,2.99-4.47,10.158-32.009,2.917-11.21,2.136-20.04-2.318-26.248-5.717-7.965-15.672-8.763-15.773-8.77a.563.563,0,1,1,.08-1.124c.428.03,10.565.831,16.6,9.226,4.666,6.494,5.507,15.645,2.5,27.2-7.288,28.006-10.215,32.225-10.336,32.39A.563.563,0,0,1,1184.817,7977.922Z" transform="translate(-1169.908 -7836.694)" fill="#4d4d4d"/>
          <path id="Trazado_111616" data-name="Trazado 111616" d="M1250.47,7918.738a22.341,22.341,0,0,1-12.937-4.347c-.608-.431-14.889-10.568-18.452-15.242a.562.562,0,1,1,.894-.682c3.461,4.537,18.06,14.9,18.207,15,9.259,6.487,17.4,3.351,17.482,3.319a.563.563,0,0,1,.421,1.044A16.033,16.033,0,0,1,1250.47,7918.738Z" transform="translate(-1164.487 -7838.033)" fill="#4d4d4d"/>
        </g>
      </g>
    </g>
  </g>
</svg>
