<svg xmlns="http://www.w3.org/2000/svg" xmlns:xlink="http://www.w3.org/1999/xlink" width="500" height="473.923" viewBox="0 0 500 473.923">
  <defs>
    <clipPath id="clip-path">
      <path id="Trazado_111847" data-name="Trazado 111847" d="M728.175,9981.326H235.332l19.9-457.562,464.375-3.068Z" transform="translate(-235.332 -9520.695)" fill="none"/>
    </clipPath>
  </defs>
  <g id="Grupo_57007" data-name="Grupo 57007" transform="translate(-230.463 -9511.652)">
    <rect id="Rectángulo_10553" data-name="Rectángulo 10553" width="500" height="473.923" rx="15.477" transform="translate(230.463 9511.652)" fill="#fff"/>
    <g id="Grupo_57006" data-name="Grupo 57006" transform="translate(237.62 9524.944)">
      <g id="Grupo_57005" data-name="Grupo 57005" clip-path="url(#clip-path)">
        <g id="Grupo_56990" data-name="Grupo 56990" transform="translate(256.468 6.02)">
          <g id="Grupo_56980" data-name="Grupo 56980" transform="translate(44.222 26.882)">
            <path id="Trazado_111712" data-name="Trazado 111712" d="M600.532,9620s-15.832-6.833-21.79-10.816c0,0-5.793-2.793-6.035-15.432s.729-21.386,2.672-27.34l2.431-9.235s-7.048-10.937-26.733-13.488c0,0-13.245-1.216-16.283,1.943,0,0-8.019,30.016-18.956,43.382,0,0-2.309,8.871-26.611,13.852l-28.677,6.2s-13.246,2.795-15.311,13.609c0,0-8.019,8.626-3.645,40.707l1.214,6.562,14.1,72.666,20.536,81.414.851,2.917v8.141s-22.846,32.688-25.518,56.989-2.081,133.729-2.081,133.729,95.381,11.5,151.265,3.834l-1.424-128.083a109.4,109.4,0,0,0-9.72-43.016l-10.451-19.687s-1.823-1.458-1.458-14.824l8.628-45.081,10.329-32.446,7.777-14.338s10.126-13.205,8.829-24.221l-3.726-12.963s-.487-17.012.162-23.329l4.7-16.85,1.62-15.231s1.135-6.968-3.564-10.854A118,118,0,0,0,600.532,9620Z" transform="translate(-439.728 -9542.902)" fill="#fff"/>
            <path id="Trazado_111713" data-name="Trazado 111713" d="M555.156,10032.971c-50.086,0-103.638-6.367-104.352-6.453l-.484-.058,0-.486c0-1.094-.56-109.734,2.084-133.791,2.568-23.344,23.867-54.7,25.516-57.1v-7.891l-.83-2.84-20.539-81.435-14.1-72.7-1.216-6.565c-4.139-30.344,2.674-39.85,3.675-41.058,2.2-10.927,15.574-13.87,15.71-13.9l28.675-6.2c23.554-4.828,26.172-13.37,26.194-13.457l.107-.205c10.737-13.124,18.77-42.876,18.851-43.175l.135-.24c3.187-3.31,16.18-2.16,16.73-2.109,19.733,2.557,26.852,13.283,27.146,13.738l.131.2-2.491,9.472c-2.023,6.2-2.888,15.079-2.656,27.189.232,12.08,5.674,14.919,5.728,14.946,5.913,3.944,21.61,10.737,21.767,10.8l.056.03a119.485,119.485,0,0,1,13.2,8.762c4.884,4.044,3.805,11.071,3.755,11.368l-1.615,15.2-4.715,16.938c-.6,5.919-.176,21.9-.146,23.1l3.708,12.894c1.324,11.2-8.5,24.162-8.923,24.709l-7.73,14.265-10.289,32.35-8.61,45.019c-.331,12.383,1.23,14.247,1.3,14.322l.106.141,10.451,19.685a111.113,111.113,0,0,1,9.786,43.288l1.427,128.549-.482.066C588.33,10032.255,571.932,10032.97,555.156,10032.971Zm-103.74-7.491c7.4.862,96.964,11.013,150.161,3.843l-1.417-127.595a109.886,109.886,0,0,0-9.673-42.8l-10.4-19.588c-.491-.563-1.884-3.23-1.558-15.163l8.637-45.17,10.345-32.509,7.817-14.435c.148-.2,10.024-13.229,8.769-23.894l-3.73-13.01c-.021-.7-.479-17.121.165-23.4l4.715-16.943,1.6-15.141c.015-.1,1.026-6.735-3.367-10.371a117.717,117.717,0,0,0-13.018-8.64c-.979-.423-15.989-6.933-21.851-10.852-.182-.081-6.034-3.05-6.282-15.879-.235-12.235.65-21.238,2.7-27.521l2.356-8.958c-1.061-1.458-8.466-10.748-26.206-13.048-3.545-.324-13.217-.646-15.72,1.686-.626,2.286-8.494,30.492-18.954,43.357-.387,1.164-3.9,9.392-27,14.127l-28.671,6.2c-.131.027-12.914,2.854-14.886,13.174l-.029.154-.107.114c-.078.088-7.775,8.934-3.5,40.262l1.211,6.535,14.094,72.662,20.529,81.384.869,3.052v8.313l-.1.144c-.228.325-22.794,32.852-25.421,56.733C450.95,9915.47,451.379,10017.5,451.416,10025.479Z" transform="translate(-439.907 -9543.081)" fill="#999"/>
          </g>
          <path id="Trazado_111714" data-name="Trazado 111714" d="M492.145,9796.875l-1.091-.16c2.755-18.572-7.474-145.707-7.577-146.988l1.1-.09C485,9654.877,494.917,9778.18,492.145,9796.875Z" transform="translate(-375.214 -9466.134)" fill="#999"/>
          <ellipse id="Elipse_4445" data-name="Elipse 4445" cx="3.281" cy="4.921" rx="3.281" ry="4.921" transform="translate(55.443 127.791)" fill="#999"/>
          <path id="Trazado_111715" data-name="Trazado 111715" d="M564.61,9683.329l-6.092-23.047c-5.064-16.16-5.932-25.464-7.248-39.546-.171-1.826-.35-3.732-.544-5.744-1.649-16.967-7.608-21.557-7.668-21.6l.65-.892c.26.189,6.41,4.842,8.115,22.385.2,2.015.375,3.923.545,5.749,1.308,14.014,2.172,23.271,7.208,39.344l6.1,23.07Z" transform="translate(-347.22 -9492.979)" fill="#999"/>
          <path id="Trazado_111716" data-name="Trazado 111716" d="M525,9744.08c-1.773,0-3.611-.016-5.528-.045-37.973-.6-53.928-8.975-54.084-9.059l.522-.971c.156.082,15.921,8.328,53.58,8.928,37.485.586,46.872-5.082,46.961-5.139l.6.926C566.692,9738.949,558.377,9744.08,525,9744.08Z" transform="translate(-383.714 -9426.494)" fill="#999"/>
          <path id="Trazado_111717" data-name="Trazado 111717" d="M525.758,9752.286q-3.228,0-6.769-.119c-35.557-1.205-52.438-9.574-52.6-9.659l.5-.983c.163.085,16.859,8.346,52.141,9.54,35.175,1.188,46.8-7.334,46.916-7.42l.669.874C566.171,9744.857,556.1,9752.286,525.758,9752.286Z" transform="translate(-383.244 -9422.962)" fill="#999"/>
          <path id="Trazado_111718" data-name="Trazado 111718" d="M531.953,9602.182a34.721,34.721,0,0,1-4.734-.34c-20-2.75-35.117-26.289-35.267-26.527l.93-.59c.148.234,15,23.346,34.485,26.027,18.632,2.563,22.769-10.736,22.81-10.873l1.055.313C551.194,9590.322,547.49,9602.182,531.953,9602.182Z" transform="translate(-371.232 -9501.33)" fill="#999"/>
          <path id="Trazado_111719" data-name="Trazado 111719" d="M542.925,9564.582c-20.91,0-40.26-12.582-40.463-12.715l.606-.92c.209.137,21.111,13.7,42.74,12.451l.066,1.1C544.889,9564.557,543.9,9564.582,542.925,9564.582Z" transform="translate(-366.294 -9512.503)" fill="#999"/>
          <path id="Trazado_111720" data-name="Trazado 111720" d="M540.782,9558.346c-18.52,0-36.023-11.932-36.218-12.068l.625-.906c.219.15,22.087,15.064,42.522,11.254l.2,1.084A38.924,38.924,0,0,1,540.782,9558.346Z" transform="translate(-365.306 -9515.123)" fill="#999"/>
          <path id="Trazado_111721" data-name="Trazado 111721" d="M520.75,10012.563l-.11-114.392c.8-18.084-3.037-57.873-3.076-58.273l-.974-27.575-1.458-74.7c.019-.344,1.817-30.377,4.385-44.663,2.518-14.008-8.372-28.425-8.482-28.568-.2-.412-14.257-31.018-21.636-53.631-7.245-22.208-18.752-24.882-18.868-24.906l.223-1.08c.5.1,12.228,2.759,19.693,25.646,7.359,22.553,21.386,53.1,21.527,53.4.4.5,11.232,14.838,8.628,29.331-2.556,14.222-4.349,44.189-4.368,44.491l1.46,74.647.973,27.532c.035.367,3.879,40.233,3.078,58.371l.11,114.367Z" transform="translate(-381.297 -9496.609)" fill="#999"/>
          <path id="Trazado_111722" data-name="Trazado 111722" d="M530.347,10024.26l-1.1-.031c.044-1.465,4.166-146.771-2.774-169.268-7-22.682-4.9-52.16-4.884-52.453l8.266-68.074c.029-.385,3.113-40.74,1.326-59.912-.575-6.152-1.874-13.791-3.248-21.875-2.953-17.355-6.626-38.955-5.128-57.932l3.7-34.525,1.1.117-3.7,34.51c-1.486,18.824,2.175,40.35,5.117,57.645,1.38,8.107,2.681,15.764,3.259,21.959,1.8,19.266-1.293,59.715-1.324,60.121l-8.266,68.072c-.019.27-2.1,29.543,4.84,52.021C534.518,9877.307,530.522,10018.27,530.347,10024.26Z" transform="translate(-357.453 -9508.159)" fill="#999"/>
          <path id="Trazado_111723" data-name="Trazado 111723" d="M466.732,9672.036l-4.188-13.682.448-.2c.372-.167,37.694-16.471,68.728-11.15,30.861,5.284,68.018,10.155,68.39,10.2l4.188.463.085.383a22.953,22.953,0,0,1-1.577,13.105l-.173.4-39.265-6.941c-.42-.085-40.731-8.194-53.824-4.388-13.218,3.846-42.008,11.591-42.3,11.667Zm-2.846-13.064,3.589,11.724c3.947-1.064,29.529-7.966,41.761-11.524,13.34-3.877,52.67,4.025,54.337,4.365l38.392,6.786a22.573,22.573,0,0,0,1.411-11.643l-3.4-.376c-.384-.049-37.562-4.925-68.444-10.213C502.657,9643.152,468.207,9657.148,463.886,9658.972Z" transform="translate(-385.049 -9467.871)" fill="#999"/>
          <path id="Trazado_111724" data-name="Trazado 111724" d="M507.868,9752.412l-3.695-3.7,2.846-3.9-3.533-3.834.81-.746,4.147,4.5-2.823,3.873,3.029,3.029Z" transform="translate(-365.812 -9423.569)" fill="#999"/>
          <path id="Trazado_111725" data-name="Trazado 111725" d="M511.455,9752.412l-3.695-3.7,2.846-3.9-3.532-3.834.81-.746,4.147,4.5-2.823,3.873,3.029,3.029Z" transform="translate(-364.127 -9423.569)" fill="#999"/>
          <path id="Trazado_111726" data-name="Trazado 111726" d="M515.318,9752.412l-3.695-3.7,2.846-3.9-3.532-3.834.81-.746,4.147,4.5-2.823,3.873,3.029,3.029Z" transform="translate(-362.312 -9423.569)" fill="#999"/>
          <path id="Trazado_111727" data-name="Trazado 111727" d="M518.972,9752.412l-3.695-3.7,2.846-3.9-3.531-3.834.81-.746,4.145,4.5-2.823,3.873,3.029,3.029Z" transform="translate(-360.594 -9423.569)" fill="#999"/>
          <path id="Trazado_111728" data-name="Trazado 111728" d="M522.493,9751.809l-3.695-3.7,2.846-3.9-3.531-3.834.81-.746,4.145,4.5L520.245,9748l3.029,3.031Z" transform="translate(-358.94 -9423.854)" fill="#999"/>
          <path id="Trazado_111729" data-name="Trazado 111729" d="M488.258,9751.457l-3.339-3.934,3.208-3.469L485,9740.039l.87-.678,3.709,4.754-3.182,3.439,2.707,3.189Z" transform="translate(-374.536 -9423.979)" fill="#999"/>
          <path id="Trazado_111730" data-name="Trazado 111730" d="M491.827,9751.813l-3.339-3.935,3.208-3.468-3.132-4.017.87-.677,3.706,4.754-3.179,3.438,2.707,3.191Z" transform="translate(-372.859 -9423.813)" fill="#999"/>
          <path id="Trazado_111731" data-name="Trazado 111731" d="M495.67,9752.2l-3.339-3.935,3.208-3.468-3.132-4.017.87-.678,3.709,4.754-3.182,3.439,2.707,3.191Z" transform="translate(-371.054 -9423.631)" fill="#999"/>
          <path id="Trazado_111732" data-name="Trazado 111732" d="M477.1,9749.109l-3.339-3.934,3.208-3.469-3.132-4.016.87-.678,3.706,4.754-3.179,3.439,2.707,3.191Z" transform="translate(-379.777 -9425.081)" fill="#999"/>
          <path id="Trazado_111733" data-name="Trazado 111733" d="M473.609,9748.107l-3.339-3.935,3.208-3.468-3.132-4.017.87-.677,3.706,4.754-3.179,3.438,2.707,3.191Z" transform="translate(-381.418 -9425.554)" fill="#999"/>
          <path id="Trazado_111734" data-name="Trazado 111734" d="M470.727,9747.124l-3.339-3.935,3.208-3.468-3.132-4.017.87-.678,3.709,4.755-3.182,3.438,2.707,3.191Z" transform="translate(-382.773 -9426.015)" fill="#999"/>
          <path id="Trazado_111735" data-name="Trazado 111735" d="M480.672,9750.066l-3.339-3.934,3.208-3.469-3.133-4.016.87-.678,3.708,4.754-3.179,3.439,2.707,3.189Z" transform="translate(-378.1 -9424.633)" fill="#999"/>
          <path id="Trazado_111736" data-name="Trazado 111736" d="M484.515,9750.449l-3.339-3.934,3.208-3.469-3.132-4.016.87-.678,3.709,4.754-3.182,3.439,2.707,3.191Z" transform="translate(-376.295 -9424.451)" fill="#999"/>
          <path id="Trazado_111737" data-name="Trazado 111737" d="M499.308,9752.561l-3.339-3.934,3.208-3.469-3.132-4.016.87-.678,3.706,4.754-3.179,3.439,2.707,3.189Z" transform="translate(-369.344 -9423.461)" fill="#999"/>
          <path id="Trazado_111738" data-name="Trazado 111738" d="M502.868,9752.332l-3.339-3.936,3.208-3.467-3.132-4.016.87-.678,3.709,4.754L501,9748.428l2.707,3.191Z" transform="translate(-367.672 -9423.568)" fill="#999"/>
          <path id="Trazado_111739" data-name="Trazado 111739" d="M532.458,9748.113l-3.4-3.023,2.548-3.107-3.067-2.963.766-.791,3.8,3.668-2.522,3.072,2.61,2.32Z" transform="translate(-354.043 -9424.512)" fill="#999"/>
          <path id="Trazado_111740" data-name="Trazado 111740" d="M529.552,9749.008l-3.4-3.025,2.549-3.107-3.067-2.961.767-.793,3.8,3.668-2.523,3.072,2.611,2.322Z" transform="translate(-355.409 -9424.091)" fill="#999"/>
          <path id="Trazado_111741" data-name="Trazado 111741" d="M526.947,9750.086l-3.755-3.24,2.832-3.35-3.433-3.217.755-.8,4.2,3.932-2.8,3.318,2.928,2.525Z" transform="translate(-356.836 -9423.925)" fill="#999"/>
          <path id="Trazado_111742" data-name="Trazado 111742" d="M534.719,9747.263l-3-2.906,2.249-2.985-2.707-2.846.8-.761,3.353,3.522-2.226,2.954,2.3,2.229Z" transform="translate(-352.764 -9424.729)" fill="#999"/>
          <path id="Trazado_111743" data-name="Trazado 111743" d="M466.037,9983.93l-1.1-.036c.029-.943,2.975-94.94,4.071-135.46,1.051-38.969,13.07-52,14.612-53.516l1.389-8.792-32.226-148.734,1.077-.233,32.272,148.937-.018.1-1.465,9.267-.143.131c-.132.122-13.311,12.658-14.4,52.868C469.012,9888.985,466.067,9982.985,466.037,9983.93Z" transform="translate(-389.636 -9471.997)" fill="#999"/>
          <g id="Grupo_56981" data-name="Grupo 56981" transform="translate(61.778 165.16)">
            <rect id="Rectángulo_10554" data-name="Rectángulo 10554" width="1.101" height="1.469" transform="matrix(0.977, -0.212, 0.212, 0.977, 0, 0.234)" fill="#999"/>
            <path id="Trazado_111744" data-name="Trazado 111744" d="M465,9977.284l-1.1-.036.093-2.942,1.1.034Zm.182-5.885-1.1-.035.091-2.939,1.1.034Zm.179-5.88-1.1-.034.091-2.938,1.1.034Zm.182-5.876-1.1-.035.091-2.937,1.1.034Zm.179-5.877-1.1-.036.091-2.937,1.1.035Zm.179-5.876-1.1-.033.09-2.938,1.1.036Zm.179-5.874-1.1-.031.09-2.938,1.1.034Zm.178-5.872-1.1-.034.09-2.937,1.1.035Zm.179-5.874-1.1-.031.088-2.938,1.1.033Zm.178-5.873-1.1-.03.088-2.938,1.1.033Zm.176-5.872-1.1-.032.088-2.937,1.1.034Zm.178-5.871-1.1-.034.088-2.936,1.1.031Zm.176-5.873-1.1-.035.088-2.94,1.1.031Zm.173-5.881-1.1-.035.085-2.843.554-.073.548.1Zm.176-5.864-1.1-.032.087-2.936,1.1.031Zm.173-5.872-1.1-.031.087-2.937,1.1.031Zm.172-5.875-1.1-.031.085-2.936,1.1.031Zm.172-5.872-1.1-.031.085-2.936,1.1.031Zm.172-5.873-1.1-.03.085-2.937,1.1.03Zm.166-5.871-1.1-.034.085-2.936,1.1.031Zm.171-5.878-1.1-.031.081-2.937,1.1.032Zm.163-5.875-1.1-.031.082-2.937,1.1.029Zm.162-5.877-1.1-.028.026-.959q.029-1,.065-1.982l1.1.04q-.038.974-.065,1.973Zm.223-5.851-1.1-.06q.082-1.5.182-2.937l1.1.076Q469.157,9840.706,469.076,9842.192Zm.413-5.833-1.1-.1q.134-1.494.29-2.93l1.1.119Q469.624,9834.874,469.489,9836.359Zm.636-5.813-1.1-.141q.194-1.494.41-2.917l1.091.167Q470.315,9829.066,470.126,9830.546Zm.876-5.774-1.085-.189q.26-1.493.547-2.9l1.079.218Q471.262,9823.3,471,9824.771Zm1.157-5.722-1.073-.247q.342-1.485.7-2.866l1.066.28Q472.5,9817.583,472.158,9819.05Zm1.479-5.641-1.057-.313q.437-1.472.888-2.816l1.045.351C474.216,9811.515,473.924,9812.438,473.637,9813.409Zm1.855-5.525-1.03-.388q.549-1.459,1.105-2.744l1.013.437Q476.035,9806.453,475.492,9807.884Zm2.3-5.335-.991-.485q.712-1.449,1.385-2.625l.958.542C478.709,9800.749,478.255,9801.6,477.792,9802.549Zm2.868-5.032-.917-.611a28.92,28.92,0,0,1,1.781-2.406l.848.708A27.412,27.412,0,0,0,480.66,9797.517Zm3.026-5.122-1.088-.172.457-2.9,1.089.173Zm.917-5.8-1.088-.173.265-1.675-.219-1.008,1.077-.235.263,1.212Zm-1.664-5.727-.622-2.867,1.077-.232.622,2.867Zm-1.242-5.735-.622-2.869,1.076-.232.622,2.867Zm-1.243-5.737-.622-2.869,1.076-.232.622,2.869Zm-1.244-5.737-.622-2.868,1.077-.232.622,2.868Zm-1.243-5.737-.62-2.868,1.076-.232.622,2.868Zm-1.242-5.737-.622-2.867,1.076-.233.622,2.87Zm-1.243-5.735-.622-2.868,1.077-.232.62,2.868Zm-1.243-5.737-.622-2.868,1.077-.232.622,2.868ZM473,9734.977l-.622-2.868,1.076-.232.622,2.869Zm-1.243-5.736-.622-2.867,1.077-.232.62,2.867Zm-1.243-5.737-.622-2.867,1.077-.234.622,2.869Zm-1.242-5.736-.622-2.868,1.076-.232.622,2.869Zm-1.243-5.736-.622-2.869,1.076-.232.622,2.869Zm-1.244-5.737-.622-2.868,1.077-.233.622,2.869Zm-1.243-5.738-.62-2.867,1.076-.232.622,2.868Zm-1.242-5.734-.622-2.869,1.076-.233.622,2.87Zm-1.243-5.737-.622-2.868,1.077-.233.62,2.869Zm-1.243-5.739-.622-2.866,1.077-.232.622,2.868Zm-1.242-5.734-.622-2.869,1.076-.232.622,2.869Zm-1.244-5.737L458.7,9669l1.076-.234.622,2.869Zm-1.243-5.738-.622-2.866,1.077-.232.622,2.867Zm-1.243-5.735-.62-2.868,1.076-.232.622,2.868Zm-1.242-5.736-.622-2.869,1.076-.234.622,2.871Zm-1.243-5.738-.622-2.867,1.077-.232.622,2.868Zm-1.244-5.736-.62-2.867,1.076-.233.622,2.868Z" transform="translate(-451.552 -9635.78)" fill="#999"/>
            <rect id="Rectángulo_10555" data-name="Rectángulo 10555" width="1.463" height="1.103" transform="translate(12.218 345.745) rotate(-88.21)" fill="#999"/>
          </g>
          <g id="Grupo_56982" data-name="Grupo 56982" transform="translate(64.528 165.156)">
            <rect id="Rectángulo_10556" data-name="Rectángulo 10556" width="1.101" height="1.472" transform="matrix(0.977, -0.212, 0.212, 0.977, 0, 0.233)" fill="#999"/>
            <path id="Trazado_111745" data-name="Trazado 111745" d="M466.994,9978.27l-1.1-.031.087-2.953,1.1.033Zm.172-5.9-1.1-.031.087-2.947,1.1.031Zm.175-5.9-1.1-.031.085-2.947,1.1.033Zm.17-5.895-1.1-.035.085-2.943,1.1.031Zm.171-5.891-1.1-.033.087-2.945,1.1.031Zm.173-5.893-1.1-.031.085-2.945,1.1.031Zm.171-5.893-1.1-.031.085-2.945,1.1.029Zm.17-5.891-1.1-.029.085-2.945,1.1.031Zm.169-5.889-1.1-.031.085-2.945,1.1.031Zm.173-5.891-1.1-.031.085-2.947,1.1.033Zm.169-5.887-1.1-.033.085-2.943,1.1.031Zm.17-5.891-1.1-.033.081-2.859,1.105-.053Zm.169-5.891-1.1-.033.084-2.951,1.1.033Zm.168-5.9-1.1-.031.085-2.943,1.1.031Zm.169-5.879-1.1-.031.084-2.945,1.1.031Zm.169-5.891-1.1-.031.084-2.947,1.1.033Zm.169-5.891-1.1-.031.082-2.943,1.1.031Zm.166-5.891-1.1-.031.084-2.945,1.1.033Zm.163-5.889-1.1-.031.084-2.945,1.1.031Zm.168-5.891-1.1-.031.081-2.945,1.1.031Zm.163-5.895-1.1-.031.082-2.945,1.1.033Zm.165-5.891-1.1-.031.081-2.945,1.1.029Zm.16-5.893-1.1-.029.084-2.947,1.1.037Zm.209-5.873-1.1-.053q.077-1.5.173-2.947l1.1.074Q470.989,9841.293,470.916,9842.783Zm.4-5.85-1.1-.1q.128-1.5.279-2.937l1.1.115C471.487,9834.969,471.393,9835.939,471.311,9836.934Zm.612-5.83-1.094-.139q.19-1.5.4-2.926l1.091.162Q472.111,9829.616,471.923,9831.1Zm.858-5.8-1.086-.186q.254-1.494.534-2.906l1.082.211Q473.032,9823.827,472.781,9825.3Zm1.132-5.74-1.076-.24c.222-1,.453-1.953.691-2.879l1.067.273Q474.244,9818.093,473.913,9819.564Zm1.449-5.666-1.06-.307q.43-1.479.875-2.832l1.048.346Q475.784,9812.438,475.362,9813.9Zm1.824-5.551-1.033-.385q.545-1.465,1.091-2.758l1.016.428Q477.723,9806.907,477.186,9808.348Zm2.266-5.375-.994-.477c.463-.967.922-1.846,1.361-2.643l.964.533C480.354,9801.166,479.907,9802.025,479.453,9802.973Zm2.823-5.078-.924-.6c.579-.895,1.167-1.713,1.743-2.436l.861.689C483.4,9796.242,482.838,9797.031,482.276,9797.895Zm3.209-5.059-1.088-.174.462-2.906,1.088.172Zm.922-5.814-1.088-.174.332-2.1-.128-.594,1.076-.232.173.795Zm-1.507-5.748-.623-2.877,1.076-.23.623,2.877Zm-1.246-5.752-.625-2.877,1.077-.232.625,2.877Zm-1.246-5.752-.623-2.877,1.076-.232.623,2.877Zm-1.246-5.754-.625-2.877,1.077-.232.623,2.877Zm-1.248-5.752-.623-2.877,1.077-.232.623,2.875Zm-1.245-5.754-.625-2.879,1.076-.232.625,2.879Zm-1.248-5.754-.623-2.877,1.077-.232.622,2.877ZM476.173,9741l-.623-2.877,1.076-.232.625,2.877Zm-1.246-5.752-.623-2.877,1.076-.232.623,2.877Zm-1.246-5.754-.625-2.877,1.077-.232.625,2.877Zm-1.248-5.754-.622-2.875,1.076-.232.623,2.875Zm-1.245-5.752-.625-2.877,1.076-.232.625,2.877Zm-1.248-5.754-.623-2.875,1.077-.234.623,2.877Zm-1.245-5.752-.625-2.877,1.076-.234.625,2.877Zm-1.248-5.754-.623-2.877,1.076-.232.623,2.877Zm-1.246-5.754-.625-2.877,1.077-.23.625,2.877Zm-1.246-5.754-.623-2.875,1.076-.232.623,2.877Zm-1.246-5.752-.625-2.875,1.077-.232.623,2.877Zm-1.248-5.754-.623-2.875,1.077-.234.623,2.877Zm-1.245-5.752-.625-2.877,1.076-.232.625,2.877Zm-1.248-5.754-.623-2.877,1.077-.232.622,2.877Zm-1.246-5.752-.623-2.877,1.076-.232.625,2.877Zm-1.246-5.754-.623-2.877,1.076-.232.623,2.877Zm-1.246-5.752-.625-2.877,1.077-.232.623,2.875Zm-1.248-5.754-.622-2.877,1.076-.232.623,2.877Z" transform="translate(-453.423 -9635.775)" fill="#999"/>
            <rect id="Rectángulo_10557" data-name="Rectángulo 10557" width="1.463" height="1.103" transform="matrix(0.029, -1, 1, 0.029, 12.345, 346.744)" fill="#999"/>
          </g>
          <path id="Trazado_111746" data-name="Trazado 111746" d="M455.616,9660.057c-8.66,0-15.705-15.256-15.705-34.006s7.045-34.01,15.705-34.01,15.7,15.258,15.7,34.01S464.275,9660.057,455.616,9660.057Zm0-66.912c-8.052,0-14.6,14.762-14.6,32.906s6.551,32.9,14.6,32.9,14.6-14.762,14.6-32.9S463.667,9593.145,455.616,9593.145Z" transform="translate(-395.682 -9493.194)" fill="#999"/>
          <path id="Trazado_111747" data-name="Trazado 111747" d="M529.854,10025.561h-.021a.739.739,0,0,1-.714-.76c.044-1.461,4.165-146.738-2.765-169.205-7.008-22.715-4.914-52.227-4.893-52.523l8.268-68.082c.028-.373,3.112-40.715,1.324-59.871-.573-6.146-1.873-13.781-3.245-21.861-2.954-17.367-6.63-38.98-5.13-57.977l4.13-35.676a.745.745,0,0,1,.816-.646.737.737,0,0,1,.645.816l-4.129,35.646c-1.483,18.791,2.175,40.3,5.115,57.588,1.38,8.111,2.682,15.771,3.262,21.971,1.8,19.285-1.295,59.748-1.326,60.156l-8.266,68.08c-.019.258-2.092,29.5,4.833,51.943,7,22.7,3.006,163.7,2.831,169.686A.735.735,0,0,1,529.854,10025.561Z" transform="translate(-357.512 -9508.739)" fill="#4d4d4d"/>
          <g id="Grupo_56983" data-name="Grupo 56983" transform="translate(20.395 169.653)">
            <path id="Trazado_111748" data-name="Trazado 111748" d="M621.7,9667.288s-189.957-25.171-197.931-26.705" transform="translate(-423.662 -9640.042)" fill="#fff"/>
            <path id="Trazado_111749" data-name="Trazado 111749" d="M621.662,9668.008c-1.9-.253-190.066-25.191-197.966-26.711l.21-1.082c7.868,1.514,196,26.448,197.9,26.7Z" transform="translate(-423.696 -9640.215)" fill="#999"/>
          </g>
          <g id="Grupo_56987" data-name="Grupo 56987" transform="translate(149.315)">
            <g id="Grupo_56984" data-name="Grupo 56984" transform="translate(1.897)">
              <path id="Trazado_111750" data-name="Trazado 111750" d="M519.35,9546.73v13.122a6.616,6.616,0,0,0,6.035.446l.122-13.568s8.015-1.823,7.939-10.451c0,0,1.135-11.584-10.531-11.1s-9.722,13.935-9.722,13.935S515.3,9545.921,519.35,9546.73Z" transform="translate(-512.52 -9524.615)" fill="#fff"/>
              <path id="Trazado_111751" data-name="Trazado 111751" d="M522.96,9561.553a6.99,6.99,0,0,1-3.75-1.07l-.235-.165v-12.982c-4.027-1.22-6.044-7.6-6.132-7.881-.059-.363-.964-6.955,2.571-11.215a10,10,0,0,1,7.653-3.433c3.6-.149,6.422.8,8.349,2.844,3.245,3.432,2.775,8.64,2.755,8.859a11,11,0,0,1-7.94,10.812l-.12,13.524-.338.139A7.337,7.337,0,0,1,522.96,9561.553Zm-2.882-1.831a6.063,6.063,0,0,0,4.936.371l.122-13.626.423-.1a9.894,9.894,0,0,0,7.512-9.908c.007-.106.44-5-2.462-8.059-1.7-1.793-4.218-2.64-7.5-2.493a8.947,8.947,0,0,0-6.847,3.03c-3.223,3.878-2.359,10.208-2.35,10.271h0c.006,0,2.043,6.421,5.718,7.154l.444.089Z" transform="translate(-512.697 -9524.791)" fill="#999"/>
            </g>
            <g id="Grupo_56985" data-name="Grupo 56985" transform="translate(0 5.403)">
              <rect id="Rectángulo_10558" data-name="Rectángulo 10558" width="23.828" height="4.087" rx="1.209" transform="translate(0.736 0.735)" fill="#fff"/>
              <path id="Trazado_111752" data-name="Trazado 111752" d="M534.193,9534.023H513.918a2.514,2.514,0,0,1-2.512-2.51v-.534a2.514,2.514,0,0,1,2.512-2.512h20.275a2.514,2.514,0,0,1,2.512,2.512v.534A2.513,2.513,0,0,1,534.193,9534.023Zm-20.275-4.086a1.044,1.044,0,0,0-1.042,1.042v.534a1.043,1.043,0,0,0,1.042,1.04h20.275a1.042,1.042,0,0,0,1.042-1.04v-.534a1.043,1.043,0,0,0-1.042-1.042Z" transform="translate(-511.406 -9528.468)" fill="#999"/>
            </g>
            <g id="Grupo_56986" data-name="Grupo 56986" transform="translate(0 13.071)">
              <rect id="Rectángulo_10559" data-name="Rectángulo 10559" width="23.828" height="4.087" rx="1.209" transform="translate(0.736 0.736)" fill="#fff"/>
              <path id="Trazado_111753" data-name="Trazado 111753" d="M534.193,9539.242H513.918a2.515,2.515,0,0,1-2.512-2.513v-.533a2.517,2.517,0,0,1,2.512-2.513h20.275a2.516,2.516,0,0,1,2.512,2.513v.533A2.514,2.514,0,0,1,534.193,9539.242Zm-20.275-4.088a1.045,1.045,0,0,0-1.042,1.042v.533a1.045,1.045,0,0,0,1.042,1.043h20.275a1.044,1.044,0,0,0,1.042-1.043v-.533a1.044,1.044,0,0,0-1.042-1.042Z" transform="translate(-511.406 -9533.684)" fill="#999"/>
            </g>
          </g>
          <g id="Grupo_56988" data-name="Grupo 56988" transform="translate(0 57.071)" opacity="0.71">
            <path id="Trazado_111754" data-name="Trazado 111754" d="M442.145,9719.518s25.818,79.952,43.456,97.255l5.918,6.884-28.923,21.776s40.348,11.117,52.382,10.755l10.749-18.853.9,21.148s19.812,4.349,26.969,2.174l2.94-25.5,7.452,26.105,16.96-4.234s8.53-2.3,10.975.363c0,0,1.133-.483,0-2.3s-15.477-24.529-15.477-24.529a14.238,14.238,0,0,1-.729-5.438c.245-2.78,2.8-27.31,2.8-27.31l6.645-68.638.767-24.891s.384-18.006,0-25.015-3.068-27.553-3.068-27.553-2.631-19.333-3.68-22.111a60.791,60.791,0,0,1-3.194-15.226c-.154-4.955-2.043-6.526-2.043-6.526l3.55-10.737a18.339,18.339,0,0,1-2.812-2.555c-1.407-1.571-4.474-1.277-4.474-1.277s-1.661.31-2.172,1.277-7.54,10.271-7.54,10.271l-.585-8.729-4.273-3.354-6.05,8.821-2.385-11.237-8.421-4.713-5.76,3.5,2.422-8.458-5.24-3.719h-2.944l-7.536-12.837s-13.165,7.13-14.443,8.822l3.706,3.5,1.279,1.55s-4.474,2.2-5.624,1.954-4.091-7.612-4.091-7.612-1.661-3.142-5.879.6c0,0-2.172,7.008-2.172,7.975s-1.79,4.108-2.428,4.108-4.474-9.184-8.053-8.82-7.412,4.35-7.412,4.35-1.407.758.9,2.312,2.684,2.28,2.684,2.28-11.247-2.144-14.7-2.28-11.119,4.871-11.119,4.871l6.9,2.606-.639,1.336s-18.148,2.529-28.629,2.409a65.713,65.713,0,0,0-19.683,3.038s9.2.708,12.014,14.241a300.17,300.17,0,0,1,4.217,29.849l5.114,38.711s2.812,18.475,5.3,25.271S442.145,9719.518,442.145,9719.518Z" transform="translate(-409.585 -9563.384)" fill="#ccc"/>
            <path id="Trazado_111755" data-name="Trazado 111755" d="M564.223,9862.238a.734.734,0,0,1-.706-.533l-6.439-22.557-2.516,21.828a.734.734,0,0,1-.516.619c-7.258,2.205-26.522-1.98-27.34-2.16a.736.736,0,0,1-.578-.686l-.794-18.6-9.483,16.633a.741.741,0,0,1-.617.371c-11.963.359-50.947-10.324-52.6-10.779a.737.737,0,0,1-.247-1.3l28.3-21.3-5.406-6.289c-17.5-17.168-42.49-94.076-43.6-97.5-.115-.32-2.734-7.658-5.169-14.3-2.488-6.789-5.225-24.658-5.34-25.416l-5.116-38.725c-.016-.2-1.437-16.459-4.208-29.795-2.657-12.783-11-13.629-11.354-13.658a.736.736,0,0,1-.179-1.43,67.347,67.347,0,0,1,19.931-3.076c9.422.1,25.433-1.984,28.13-2.35l.123-.256-6.154-2.324a.732.732,0,0,1-.47-.607.74.74,0,0,1,.328-.7c.317-.205,7.69-4.99,11.39-4.99.056,0,.107,0,.16,0,2.472.1,8.713,1.18,12.258,1.822-.206-.148-.432-.307-.683-.479-1.144-.771-1.682-1.525-1.642-2.3a1.56,1.56,0,0,1,.7-1.2c.556-.562,4.223-4.139,7.8-4.5,3.018-.3,5.7,4.277,7.476,7.309.262.445.544.928.757,1.258A8.991,8.991,0,0,0,492,9581.15c0-1,1.687-6.523,2.206-8.191a.726.726,0,0,1,.213-.332c1.761-1.566,3.385-2.23,4.793-1.971a3.318,3.318,0,0,1,2.225,1.57c1.289,3.227,3.041,6.873,3.676,7.27a16.027,16.027,0,0,0,4.221-1.525l-.679-.822-3.645-3.437a.738.738,0,0,1-.082-.977c1.308-1.734,12.458-7.822,14.681-9.025a.736.736,0,0,1,.985.273l7.321,12.473h2.524a.737.737,0,0,1,.425.137l5.24,3.717a.737.737,0,0,1,.282.8l-1.9,6.652,4.154-2.525a.734.734,0,0,1,.741-.016l8.422,4.713a.742.742,0,0,1,.36.49l2.028,9.561,5.083-7.41a.737.737,0,0,1,1.058-.162l4.271,3.355a.735.735,0,0,1,.281.527l.453,6.762c2.7-3.59,5.982-8.014,6.289-8.6a4.137,4.137,0,0,1,2.688-1.654c.206-.023,3.519-.316,5.156,1.51a17.886,17.886,0,0,0,2.685,2.443.731.731,0,0,1,.275.832l-3.414,10.328c.62.764,1.823,2.738,1.945,6.682a59.935,59.935,0,0,0,3.148,14.988c1.067,2.824,3.613,21.482,3.72,22.273.028.211,2.693,20.654,3.073,27.611s.006,24.887,0,25.068l-.766,24.9-6.65,68.684c-.026.252-2.559,24.563-2.8,27.3a13.532,13.532,0,0,0,.663,5.051c.879,1.391,14.338,22.709,15.433,24.463a2.864,2.864,0,0,1,.531,2.359,1.618,1.618,0,0,1-.866,1,.739.739,0,0,1-.829-.18c-1.749-1.9-8.141-.715-10.243-.15l-16.972,4.238A.7.7,0,0,1,564.223,9862.238Zm-36.649-4.121c3.162.658,19.029,3.809,25.584,2.2l2.882-25a.733.733,0,0,1,.67-.646.743.743,0,0,1,.767.529l7.257,25.424,16.27-4.062c.826-.223,7.668-1.979,10.886-.07a2.88,2.88,0,0,0-.356-.762c-1.132-1.812-15.474-24.527-15.474-24.527a.96.96,0,0,1-.069-.139,14.892,14.892,0,0,1-.77-5.754c.244-2.754,2.778-27.076,2.8-27.322l6.645-68.629.763-24.848c0-.174.379-18.049,0-24.949s-3.035-27.291-3.063-27.5c-.905-6.654-2.832-19.814-3.639-21.949a61.862,61.862,0,0,1-3.242-15.461c-.138-4.486-1.77-5.979-1.784-5.99a.753.753,0,0,1-.22-.791l3.384-10.234a19.909,19.909,0,0,1-2.5-2.338c-.942-1.053-3.1-1.107-3.855-1.033a2.746,2.746,0,0,0-1.592.887c-.525.992-6.883,9.414-7.606,10.373a.735.735,0,0,1-1.32-.395l-.561-8.4-3.4-2.668-5.607,8.176a.721.721,0,0,1-.75.3.734.734,0,0,1-.576-.568l-2.315-10.912-7.755-4.338L533.642,9590a.735.735,0,0,1-1.089-.83l2.28-7.957-4.624-3.285H527.5a.731.731,0,0,1-.635-.361l-7.174-12.223c-4.536,2.475-11.171,6.273-13.105,7.83l3.147,2.975,1.339,1.617a.737.737,0,0,1-.242,1.129c-1.414.689-4.833,2.273-6.1,2.014-1.02-.215-2.574-2.926-4.621-8.059v0a1.856,1.856,0,0,0-1.174-.748c-.9-.154-2.068.361-3.382,1.492a76.034,76.034,0,0,0-2.078,7.559c0,1.008-1.809,4.846-3.165,4.846-.607,0-.883-.475-1.917-2.234-1.295-2.207-3.951-6.748-6.059-6.592-3.264.332-6.923,4.092-6.96,4.129a.85.85,0,0,1-.181.139c-.038.047-.019.395.958,1.055,2.334,1.578,2.843,2.4,2.922,2.547a.734.734,0,0,1-.059.779.751.751,0,0,1-.729.285c-.113-.021-11.232-2.135-14.59-2.268-2.23-.107-6.81,2.379-9.444,3.971l5.515,2.084a.733.733,0,0,1,.4,1l-.638,1.336a.731.731,0,0,1-.561.41c-.182.025-18.329,2.51-28.741,2.416a64.761,64.761,0,0,0-16.96,2.27c3.106,1.246,8.059,4.688,10.02,14.127,2.788,13.422,4.217,29.771,4.232,29.934l5.109,38.678c.026.17,2.826,18.465,5.265,25.117,2.491,6.8,5.178,14.324,5.178,14.324l.006.023c.259.795,25.965,79.973,43.273,96.953l5.959,6.93a.734.734,0,0,1-.116,1.066l-27.723,20.873c7.179,1.934,39.043,10.344,50.135,10.344h.175l10.542-18.488a.734.734,0,0,1,1.373.334Z" transform="translate(-409.82 -9563.619)" fill="#4d4d4d"/>
          </g>
          <path id="Trazado_111756" data-name="Trazado 111756" d="M557.949,9658.294l7.026-.345.823,1.994,2.494-.057s1.433-5.245-.453-7.3l-1.824-.382-.963,2.612-7.1,1.488-1.31.719-.025.988Z" transform="translate(-340.85 -9464.928)" fill="#666"/>
          <path id="Trazado_111757" data-name="Trazado 111757" d="M504.8,9653.852l5.363-4.551,1.867,1.082,1.946-1.562s-2.055-5.035-4.8-5.514l-1.679.8.826,2.66-4.728,5.5-.6,1.365.581.8Z" transform="translate(-366.042 -9469.109)" fill="#666"/>
          <path id="Trazado_111758" data-name="Trazado 111758" d="M530.579,9657.637l5.364-4.547,1.867,1.08,1.946-1.562s-2.056-5.035-4.8-5.514l-1.68.807.826,2.658-4.727,5.5-.6,1.365.581.8Z" transform="translate(-353.933 -9467.33)" fill="#666"/>
          <path id="Trazado_111759" data-name="Trazado 111759" d="M524.8,9597.049l5.915-3.809,1.708,1.318,2.134-1.293s-1.377-5.262-4.038-6.1l-1.771.58.47,2.742-5.408,4.834-.776,1.277.47.869Z" transform="translate(-356.628 -9495.484)" fill="#666"/>
          <g id="Grupo_56989" data-name="Grupo 56989" transform="translate(99.948 71.788)">
            <path id="Trazado_111760" data-name="Trazado 111760" d="M517.643,9639.243s-31.015-56.825-39.323-65.11" transform="translate(-477.585 -9573.397)" fill="#ccc"/>
            <path id="Trazado_111761" data-name="Trazado 111761" d="M517.876,9640.215a.732.732,0,0,1-.644-.385c-.31-.566-31.059-56.826-39.2-64.941a.736.736,0,0,1,1.039-1.043c8.288,8.268,38.18,62.959,39.447,65.281a.733.733,0,0,1-.292,1A.718.718,0,0,1,517.876,9640.215Z" transform="translate(-477.82 -9573.633)" fill="#4d4d4d"/>
          </g>
          <path id="Trazado_111762" data-name="Trazado 111762" d="M521.174,9665.748c-2.077,0-5.61-6.425-8.237-11.886-.151-.359-13.268-32.312-18.611-41.749l-21.655-38.252,1.28-.724,21.655,38.252c5.388,9.516,18.541,41.553,18.673,41.877,2.35,4.884,5.528,10.28,6.727,10.955a1.922,1.922,0,0,0,.059-.255c.758-4.475-5.34-14.93-5.4-15.034a.735.735,0,1,1,1.268-.744c.263.448,6.428,11.025,5.582,16.022-.2,1.15-.763,1.467-1.207,1.529A1.186,1.186,0,0,1,521.174,9665.748Z" transform="translate(-380.291 -9502.076)" fill="#4d4d4d"/>
          <path id="Trazado_111763" data-name="Trazado 111763" d="M502.444,9651.934a1.336,1.336,0,0,1-.14-.006c-2.774-.232-3.6-1.211-10-15.578-3.68-8.256-12.357-23.8-18.69-35.141-7.446-13.338-8.19-14.718-7.891-15.3a62.4,62.4,0,0,0-3.165-8.8.736.736,0,0,1,1.358-.566c2.888,6.938,3.338,8.965,3.251,9.7.431,1.173,3.98,7.529,7.73,14.246,6.348,11.371,15.042,26.943,18.751,35.259,6.217,13.944,6.952,14.561,8.781,14.714.514-.413.141-3.627-.766-6.73a.734.734,0,0,1,1.41-.413c.441,1.5,1.777,6.531.517,8.074A1.439,1.439,0,0,1,502.444,9651.934Z" transform="translate(-385.069 -9500.686)" fill="#4d4d4d"/>
          <path id="Trazado_111764" data-name="Trazado 111764" d="M474.963,9610.6a.736.736,0,0,1-.669-.431l-11.75-25.883c-.074-.24-.9-3.067-5.956-4.057a.735.735,0,1,1,.281-1.442c6.035,1.18,7.018,4.86,7.058,5.017l11.7,25.757a.736.736,0,0,1-.669,1.039Z" transform="translate(-388.127 -9499.427)" fill="#4d4d4d"/>
          <path id="Trazado_111765" data-name="Trazado 111765" d="M495.518,9650.8c-2.092,0-4.358-2.164-4.646-2.447a.734.734,0,1,1,1.03-1.047c.941.922,2.757,2.215,3.851,2,.2-1.883-3.73-12.148-7.789-21.316-.066-.1-10.859-17.984-23.453-28.115a232.9,232.9,0,0,0-20.822-15.258.736.736,0,0,1,.773-1.252,235.95,235.95,0,0,1,20.97,15.363c12.8,10.3,23.725,28.406,23.833,28.588,2.118,4.768,8.812,20.254,7.82,22.689a1.05,1.05,0,0,1-.591.607A2.6,2.6,0,0,1,495.518,9650.8Z" transform="translate(-394.071 -9497.318)" fill="#4d4d4d"/>
          <path id="Trazado_111766" data-name="Trazado 111766" d="M469.716,9660.924l-7.026-.344-.823,1.993-2.5-.055s-1.432-5.244.454-7.3l1.824-.384.963,2.612,7.1,1.489,1.31.719.026.987Z" transform="translate(-386.784 -9463.69)" fill="#666"/>
          <path id="Trazado_111767" data-name="Trazado 111767" d="M457.312,9646.193l-7.026-.346-.823,1.993-2.5-.056s-1.432-5.245.454-7.3l1.824-.384.963,2.612,7.1,1.487,1.31.72.026.987Z" transform="translate(-392.612 -9470.612)" fill="#666"/>
          <path id="Trazado_111768" data-name="Trazado 111768" d="M523.992,9747.543l4.8,5.141-.991,1.916,1.654,1.869s4.93-2.3,5.277-5.062l-.885-1.639-2.616.953-5.722-4.459-1.395-.535-.772.619Z" transform="translate(-356.483 -9420.987)" fill="#666"/>
          <path id="Trazado_111769" data-name="Trazado 111769" d="M523.495,9741.513l4.8-5.141-.991-1.914,1.655-1.871s4.928,2.3,5.277,5.062l-.886,1.638-2.615-.951-5.724,4.458-1.395.535-.77-.618Z" transform="translate(-356.716 -9427.161)" fill="#666"/>
          <path id="Trazado_111770" data-name="Trazado 111770" d="M467.543,9743.477l-6.069-3.561-1.652,1.389-2.186-1.2s1.157-5.312,3.779-6.26l1.793.5-.356,2.764,5.606,4.605.829,1.24-.434.889Z" transform="translate(-387.355 -9426.571)" fill="#666"/>
          <path id="Trazado_111771" data-name="Trazado 111771" d="M491.21,9753.88l-6.069-3.557-1.652,1.388-2.186-1.2s1.157-5.313,3.779-6.258l1.795.5-.356,2.76,5.6,4.606.829,1.243-.434.887Z" transform="translate(-376.235 -9421.684)" fill="#666"/>
          <path id="Trazado_111772" data-name="Trazado 111772" d="M468.31,9741.428l-4.946,5-1.953-.914-1.8,1.727s2.487,4.834,5.265,5.072l1.6-.951-1.055-2.576,4.229-5.893.481-1.414-.648-.746Z" transform="translate(-386.428 -9423.334)" fill="#666"/>
          <path id="Trazado_111773" data-name="Trazado 111773" d="M489.409,9751.566l5.629,4.217-.639,2.061,1.956,1.549s4.451-3.124,4.307-5.907l-1.16-1.46-2.408,1.4-6.417-3.385-1.465-.282-.651.743Z" transform="translate(-372.825 -9419.096)" fill="#666"/>
          <path id="Trazado_111774" data-name="Trazado 111774" d="M456.634,9590.447l-.479-7.018,1.978-.861-.1-2.492s-5.271-1.332-7.287.592l-.348,1.83,2.631.914,1.623,7.07.742,1.295.989.008Z" transform="translate(-390.757 -9499.028)" fill="#666"/>
          <path id="Trazado_111775" data-name="Trazado 111775" d="M456.632,9590.047l-5.334-4.584.775-2.012-1.848-1.678s-4.649,2.82-4.693,5.605l1.06,1.533,2.5-1.232,6.176,3.807,1.445.381.7-.7Z" transform="translate(-393.041 -9498.019)" fill="#666"/>
          <path id="Trazado_111776" data-name="Trazado 111776" d="M491.647,9584.013l5.915-3.809,1.708,1.317,2.134-1.293s-1.377-5.261-4.036-6.1l-1.771.578.47,2.743-5.409,4.836-.776,1.275.47.869Z" transform="translate(-372.204 -9501.61)" fill="#666"/>
          <path id="Trazado_111777" data-name="Trazado 111777" d="M494.406,9582.893l-4.161-5.672,1.21-1.783-1.421-2.053s-5.165,1.7-5.838,4.4l.686,1.73,2.71-.637,5.156,5.1,1.321.7.838-.523Z" transform="translate(-374.876 -9501.961)" fill="#666"/>
        </g>
        <g id="Grupo_57004" data-name="Grupo 57004" transform="translate(14.559 6.02)">
          <g id="Grupo_56991" data-name="Grupo 56991" transform="translate(3.545 26.883)">
            <path id="Trazado_111778" data-name="Trazado 111778" d="M408.275,9620s-15.832-6.833-21.792-10.816c0,0-5.793-2.793-6.035-15.432s.729-21.386,2.674-27.34l2.43-9.235s-7.048-10.937-26.732-13.488c0,0-13.246-1.214-16.283,1.943,0,0-8.021,30.016-18.956,43.382,0,0-2.309,8.871-26.611,13.854l-28.678,6.2s-13.245,2.795-15.311,13.609c0,0-8.019,8.628-3.645,40.707l1.216,6.562,14.1,72.666,20.535,81.414.851,2.917v8.141s-22.844,32.688-25.518,56.989-2.081,133.729-2.081,133.729,95.382,11.5,151.265,3.834l-1.423-128.083a109.382,109.382,0,0,0-9.722-43.016L388.1,9838.843s-1.823-1.458-1.458-14.824l8.628-45.081,10.329-32.444,7.777-14.34s10.127-13.2,8.831-24.221l-3.727-12.961s-.485-17.013.163-23.331l4.7-16.85,1.621-15.231s1.133-6.966-3.564-10.854A118.146,118.146,0,0,0,408.275,9620Z" transform="translate(-247.472 -9542.905)" fill="#fff"/>
            <path id="Trazado_111779" data-name="Trazado 111779" d="M362.9,10032.971c-50.085,0-103.637-6.367-104.353-6.453l-.482-.057,0-.486c-.006-1.1-.563-109.736,2.084-133.793,2.568-23.344,23.866-54.7,25.515-57.1v-7.893l-.829-2.838-20.541-81.437-14.1-72.7-1.216-6.564c-4.139-30.344,2.674-39.85,3.675-41.059,2.2-10.926,15.573-13.869,15.71-13.9l28.675-6.2c23.553-4.828,26.17-13.369,26.194-13.457l.106-.205c10.736-13.121,18.771-42.875,18.852-43.174l.134-.24c3.187-3.311,16.183-2.158,16.731-2.109,19.733,2.557,26.852,13.283,27.146,13.736l.131.2-2.493,9.471c-2.021,6.2-2.887,15.078-2.655,27.191.232,12.08,5.672,14.92,5.727,14.945,5.915,3.947,21.61,10.738,21.768,10.8l.056.029a119.574,119.574,0,0,1,13.2,8.762c4.887,4.043,3.807,11.072,3.758,11.369l-1.617,15.2-4.715,16.938c-.6,5.918-.176,21.9-.144,23.1l3.707,12.893c1.326,11.2-8.5,24.166-8.922,24.713l-7.73,14.262-10.289,32.352-8.61,45.018c-.331,12.383,1.23,14.248,1.3,14.322l.106.141,10.449,19.684A111.123,111.123,0,0,1,409,9901.732l1.429,128.551-.482.066C396.073,10032.254,379.674,10032.969,362.9,10032.971Zm-103.738-7.49c7.4.863,96.964,11.014,150.16,3.842l-1.417-127.6a109.854,109.854,0,0,0-9.673-42.795l-10.4-19.586c-.492-.566-1.884-3.232-1.558-15.164l8.637-45.172,10.345-32.508,7.817-14.434c.148-.2,10.023-13.23,8.769-23.895l-3.73-13.012c-.021-.7-.479-17.119.165-23.4l4.715-16.941,1.6-15.141c.015-.1,1.024-6.736-3.369-10.371a117.074,117.074,0,0,0-13.018-8.639c-.979-.424-15.987-6.934-21.851-10.852-.182-.082-6.032-3.051-6.281-15.881-.235-12.234.648-21.238,2.7-27.521l2.355-8.957c-1.06-1.459-8.465-10.75-26.2-13.047-3.545-.326-13.218-.65-15.72,1.684-.626,2.289-8.494,30.492-18.955,43.355-.385,1.164-3.9,9.395-26.995,14.131l-28.672,6.2c-.131.029-12.914,2.855-14.887,13.174l-.028.154-.107.115c-.078.086-7.775,8.932-3.5,40.262l1.211,6.535,14.094,72.658,20.529,81.387.867,3.053v8.313l-.1.145c-.228.324-22.8,32.85-25.422,56.732C258.692,9915.469,259.122,10017.5,259.159,10025.48Z" transform="translate(-247.65 -9543.081)" fill="#999"/>
          </g>
          <ellipse id="Elipse_4446" data-name="Elipse 4446" cx="3.281" cy="4.921" rx="3.281" ry="4.921" transform="translate(14.765 127.792)" fill="#999"/>
          <path id="Trazado_111780" data-name="Trazado 111780" d="M372.354,9683.329l-6.092-23.045c-5.067-16.167-5.935-25.473-7.251-39.558-.169-1.823-.347-3.727-.542-5.734-1.649-16.967-7.608-21.557-7.668-21.6l.65-.894c.26.189,6.41,4.842,8.115,22.388.2,2.009.373,3.913.545,5.737,1.307,14.016,2.172,23.273,7.21,39.354l6.1,23.069Z" transform="translate(-195.641 -9492.979)" fill="#999"/>
          <path id="Trazado_111781" data-name="Trazado 111781" d="M332.75,9744.08q-2.663,0-5.538-.047c-37.973-.6-53.928-8.973-54.084-9.057l.522-.971c.156.086,15.921,8.328,53.578,8.926,37.529.609,46.873-5.078,46.961-5.137l.6.926C374.434,9738.949,366.12,9744.08,332.75,9744.08Z" transform="translate(-232.134 -9426.494)" fill="#999"/>
          <path id="Trazado_111782" data-name="Trazado 111782" d="M333.508,9752.283c-2.156,0-4.412-.035-6.776-.117-35.558-1.2-52.438-9.574-52.6-9.656l.5-.984c.163.084,16.859,8.346,52.141,9.539,35.139,1.186,46.8-7.332,46.916-7.42l.669.877C373.912,9744.857,363.844,9752.283,333.508,9752.283Z" transform="translate(-231.664 -9422.961)" fill="#999"/>
          <path id="Trazado_111783" data-name="Trazado 111783" d="M339.7,9602.182a34.757,34.757,0,0,1-4.736-.34c-20-2.75-35.116-26.289-35.266-26.527l.93-.589c.147.232,15,23.346,34.485,26.025,18.638,2.563,22.768-10.736,22.809-10.872l1.057.312C358.937,9590.321,355.233,9602.182,339.7,9602.182Z" transform="translate(-219.653 -9501.33)" fill="#999"/>
          <path id="Trazado_111784" data-name="Trazado 111784" d="M350.668,9564.584c-20.91,0-40.26-12.584-40.463-12.715l.606-.922c.209.137,21.12,13.693,42.74,12.451l.066,1.1C352.632,9564.557,351.647,9564.584,350.668,9564.584Z" transform="translate(-214.714 -9512.502)" fill="#999"/>
          <path id="Trazado_111785" data-name="Trazado 111785" d="M348.524,9558.346c-18.521,0-36.021-11.932-36.218-12.066l.626-.908c.219.152,22.1,15.061,42.522,11.254l.2,1.082A38.782,38.782,0,0,1,348.524,9558.346Z" transform="translate(-213.727 -9515.123)" fill="#999"/>
          <path id="Trazado_111786" data-name="Trazado 111786" d="M328.493,10012.564l-.11-114.391c.8-18.086-3.037-57.875-3.076-58.275l-.974-27.578-1.458-74.7c.019-.344,1.815-30.377,4.383-44.662,2.518-14.008-8.372-28.426-8.482-28.568-.2-.412-14.257-31.018-21.635-53.631-7.246-22.209-18.754-24.881-18.868-24.906l.223-1.078c.5.1,12.228,2.756,19.693,25.643,7.358,22.553,21.385,53.1,21.526,53.4.4.5,11.234,14.84,8.629,29.332-2.557,14.221-4.349,44.189-4.368,44.49l1.46,74.646.972,27.533c.037.367,3.88,40.234,3.079,58.371l.11,114.369Z" transform="translate(-229.717 -9496.609)" fill="#999"/>
          <path id="Trazado_111787" data-name="Trazado 111787" d="M338.09,10024.26l-1.1-.03c.043-1.465,4.165-146.772-2.775-169.27-7-22.682-4.9-52.16-4.883-52.456l8.265-68.07c.029-.383,3.113-40.739,1.327-59.911-.575-6.154-1.874-13.792-3.248-21.877-2.953-17.355-6.626-38.956-5.13-57.931l3.7-34.524,1.1.116-3.7,34.51c-1.484,18.822,2.177,40.349,5.118,57.644,1.379,8.108,2.681,15.765,3.259,21.96,1.8,19.266-1.295,59.717-1.327,60.121l-8.265,68.07c-.018.269-2.1,29.544,4.84,52.023C342.261,9877.308,338.263,10018.27,338.09,10024.26Z" transform="translate(-205.874 -9508.159)" fill="#999"/>
          <path id="Trazado_111788" data-name="Trazado 111788" d="M274.473,9672.038l-4.186-13.684.448-.2c.37-.165,37.688-16.468,68.727-11.15,30.862,5.284,68.02,10.155,68.391,10.2l4.186.461.087.385a22.954,22.954,0,0,1-1.577,13.105l-.175.4-39.264-6.941c-.422-.086-40.735-8.194-53.825-4.388-13.218,3.847-42.008,11.591-42.3,11.668Zm-2.844-13.066,3.588,11.726c3.948-1.065,29.53-7.967,41.761-11.524,13.34-3.877,52.67,4.021,54.337,4.363l38.391,6.788a22.541,22.541,0,0,0,1.412-11.645l-3.4-.376c-.384-.049-37.562-4.925-68.446-10.211C310.4,9643.15,275.947,9657.15,271.629,9658.972Z" transform="translate(-233.469 -9467.872)" fill="#999"/>
          <path id="Trazado_111789" data-name="Trazado 111789" d="M315.611,9752.412l-3.695-3.7,2.846-3.9-3.532-3.835.81-.747,4.147,4.5-2.823,3.872,3.029,3.027Z" transform="translate(-214.232 -9423.57)" fill="#999"/>
          <path id="Trazado_111790" data-name="Trazado 111790" d="M319.2,9752.412l-3.695-3.7,2.846-3.9-3.533-3.835.81-.747,4.147,4.5-2.823,3.872,3.029,3.027Z" transform="translate(-212.547 -9423.57)" fill="#999"/>
          <path id="Trazado_111791" data-name="Trazado 111791" d="M323.06,9752.412l-3.695-3.7,2.846-3.9-3.532-3.835.81-.747,4.147,4.5-2.823,3.872,3.029,3.027Z" transform="translate(-210.733 -9423.57)" fill="#999"/>
          <path id="Trazado_111792" data-name="Trazado 111792" d="M326.716,9752.412l-3.695-3.7,2.846-3.9-3.532-3.835.81-.747,4.147,4.5-2.823,3.872,3.029,3.027Z" transform="translate(-209.015 -9423.57)" fill="#999"/>
          <path id="Trazado_111793" data-name="Trazado 111793" d="M330.236,9751.81l-3.695-3.7,2.846-3.9-3.533-3.835.81-.747,4.147,4.5L327.988,9748l3.029,3.027Z" transform="translate(-207.361 -9423.854)" fill="#999"/>
          <path id="Trazado_111794" data-name="Trazado 111794" d="M296,9751.457l-3.339-3.936,3.208-3.467-3.132-4.016.87-.678,3.706,4.754-3.179,3.438,2.707,3.191Z" transform="translate(-222.957 -9423.979)" fill="#999"/>
          <path id="Trazado_111795" data-name="Trazado 111795" d="M299.57,9751.813l-3.339-3.936,3.207-3.467-3.132-4.017.87-.677,3.709,4.754-3.181,3.438,2.707,3.192Z" transform="translate(-221.28 -9423.813)" fill="#999"/>
          <path id="Trazado_111796" data-name="Trazado 111796" d="M303.413,9752.2l-3.339-3.937,3.208-3.466-3.132-4.017.87-.678,3.709,4.754-3.182,3.438,2.707,3.192Z" transform="translate(-219.474 -9423.631)" fill="#999"/>
          <path id="Trazado_111797" data-name="Trazado 111797" d="M284.845,9749.109l-3.339-3.934,3.208-3.469-3.133-4.016.87-.678,3.708,4.754-3.179,3.439,2.707,3.191Z" transform="translate(-228.198 -9425.081)" fill="#999"/>
          <path id="Trazado_111798" data-name="Trazado 111798" d="M281.352,9748.107l-3.339-3.936,3.207-3.467-3.132-4.017.87-.677,3.709,4.754-3.181,3.438,2.707,3.192Z" transform="translate(-229.839 -9425.554)" fill="#999"/>
          <path id="Trazado_111799" data-name="Trazado 111799" d="M278.469,9747.124l-3.339-3.937,3.208-3.466-3.132-4.017.87-.678,3.706,4.755-3.179,3.438,2.707,3.192Z" transform="translate(-231.193 -9426.015)" fill="#999"/>
          <path id="Trazado_111800" data-name="Trazado 111800" d="M288.413,9750.066l-3.337-3.934,3.208-3.469-3.133-4.016.87-.678,3.708,4.754-3.179,3.439,2.706,3.189Z" transform="translate(-226.521 -9424.633)" fill="#999"/>
          <path id="Trazado_111801" data-name="Trazado 111801" d="M292.257,9750.449l-3.339-3.934,3.208-3.469-3.132-4.016.87-.678,3.706,4.754-3.179,3.439,2.707,3.191Z" transform="translate(-224.715 -9424.451)" fill="#999"/>
          <path id="Trazado_111802" data-name="Trazado 111802" d="M307.05,9752.561l-3.339-3.934,3.208-3.469-3.133-4.016.87-.678,3.708,4.754-3.179,3.439,2.707,3.189Z" transform="translate(-217.765 -9423.461)" fill="#999"/>
          <path id="Trazado_111803" data-name="Trazado 111803" d="M310.611,9752.332l-3.339-3.936,3.208-3.467-3.132-4.016.87-.678,3.706,4.754-3.179,3.438,2.707,3.191Z" transform="translate(-216.092 -9423.568)" fill="#999"/>
          <path id="Trazado_111804" data-name="Trazado 111804" d="M340.2,9748.113l-3.4-3.023,2.548-3.109-3.067-2.961.767-.791,3.8,3.666-2.522,3.074,2.61,2.32Z" transform="translate(-202.464 -9424.512)" fill="#999"/>
          <path id="Trazado_111805" data-name="Trazado 111805" d="M337.294,9749.008l-3.4-3.025,2.549-3.107-3.067-2.961.766-.793,3.8,3.668-2.523,3.072,2.611,2.322Z" transform="translate(-203.829 -9424.091)" fill="#999"/>
          <path id="Trazado_111806" data-name="Trazado 111806" d="M334.69,9750.086l-3.755-3.242,2.832-3.348-3.433-3.217.755-.8,4.2,3.932-2.8,3.318,2.928,2.525Z" transform="translate(-205.257 -9423.925)" fill="#999"/>
          <path id="Trazado_111807" data-name="Trazado 111807" d="M342.461,9747.262l-3-2.905,2.249-2.985L339,9738.525l.8-.761,3.353,3.522-2.226,2.954,2.3,2.228Z" transform="translate(-201.185 -9424.729)" fill="#999"/>
          <path id="Trazado_111808" data-name="Trazado 111808" d="M273.78,9983.93l-1.1-.035c.029-.945,2.975-94.941,4.07-135.461,1.052-38.969,13.07-52,14.612-53.516l1.39-8.793-32.226-148.732,1.077-.232L293.873,9786.1l-.018.1-1.467,9.27-.143.129c-.134.123-13.309,12.66-14.4,52.867C276.755,9888.986,273.808,9982.986,273.78,9983.93Z" transform="translate(-238.056 -9471.997)" fill="#999"/>
          <g id="Grupo_56992" data-name="Grupo 56992" transform="translate(21.1 165.161)">
            <rect id="Rectángulo_10560" data-name="Rectángulo 10560" width="1.101" height="1.469" transform="matrix(0.977, -0.212, 0.212, 0.977, 0, 0.234)" fill="#999"/>
            <path id="Trazado_111809" data-name="Trazado 111809" d="M272.747,9977.285l-1.1-.035.091-2.943,1.1.033Zm.182-5.885-1.1-.037.09-2.939,1.1.035Zm.181-5.881-1.1-.037.09-2.937,1.1.035Zm.181-5.877-1.1-.035.09-2.937,1.1.033Zm.179-5.875-1.1-.035.091-2.937,1.1.033Zm.179-5.879-1.1-.031.09-2.937,1.1.033Zm.181-5.873-1.1-.029.09-2.939,1.1.033Zm.176-5.871-1.1-.033.091-2.937,1.1.033Zm.179-5.877-1.1-.029.09-2.937,1.1.033Zm.176-5.871-1.1-.031.09-2.939,1.1.035Zm.179-5.871-1.1-.033.088-2.937,1.1.035Zm.178-5.871-1.1-.035.087-2.936,1.1.033Zm.176-5.875-1.1-.035.087-2.941,1.1.033Zm.173-5.879-1.1-.035.085-2.842.553-.074.55.1Zm.176-5.865-1.1-.031.087-2.936,1.1.031Zm.173-5.871-1.1-.031.087-2.936,1.1.029Zm.171-5.875-1.1-.029.087-2.936,1.1.029Zm.173-5.875-1.1-.029.085-2.936,1.1.029Zm.17-5.871-1.1-.031.084-2.937,1.1.031Zm.168-5.869-1.1-.037.085-2.936,1.1.033Zm.169-5.879-1.1-.033.082-2.936,1.1.033Zm.165-5.875-1.1-.033.081-2.936,1.1.029Zm.162-5.877-1.1-.029.026-.955c.018-.672.04-1.332.065-1.986l1.1.041c-.025.65-.047,1.307-.065,1.973Zm.222-5.852-1.1-.061q.082-1.494.182-2.936l1.1.076Q276.9,9840.7,276.818,9842.191Zm.414-5.834-1.1-.1q.134-1.494.29-2.928l1.1.117Q277.368,9834.874,277.233,9836.357Zm.635-5.812-1.094-.139q.194-1.494.409-2.918l1.092.168C278.131,9828.594,277.994,9829.561,277.868,9830.545Zm.877-5.773-1.085-.189c.173-1,.357-1.959.547-2.9l1.079.221Q279.006,9823.3,278.745,9824.771Zm1.157-5.723-1.073-.246q.342-1.485.7-2.865l1.066.277C280.36,9817.129,280.127,9818.07,279.9,9819.049Zm1.479-5.641-1.057-.312c.29-.982.588-1.92.888-2.816l1.045.352Q281.809,9811.955,281.38,9813.408Zm1.855-5.525-1.032-.387q.549-1.459,1.105-2.744l1.014.436Q283.778,9806.453,283.235,9807.883Zm2.3-5.334-.991-.486c.473-.967.938-1.838,1.385-2.625l.958.543C286.454,9800.75,286,9801.6,285.537,9802.549Zm2.865-5.031-.916-.611a27.964,27.964,0,0,1,1.781-2.406l.847.705A28.316,28.316,0,0,0,288.4,9797.518Zm3.028-5.123-1.088-.174.459-2.9,1.088.174Zm.917-5.8-1.088-.17.263-1.676-.218-1.008,1.076-.234.265,1.213Zm-1.664-5.725-.622-2.869,1.077-.232.62,2.869Zm-1.243-5.736-.622-2.869,1.077-.23.622,2.867ZM288.2,9769.4l-.622-2.867,1.076-.234.622,2.869Zm-1.243-5.736-.622-2.869,1.076-.232.622,2.867Zm-1.243-5.738-.622-2.869,1.077-.23.622,2.867Zm-1.243-5.736-.62-2.867,1.076-.234.622,2.871Zm-1.242-5.736-.622-2.869,1.076-.232.622,2.867Zm-1.243-5.738-.622-2.867,1.077-.232.62,2.867Zm-1.243-5.736-.622-2.867,1.077-.232.622,2.869Zm-1.242-5.736-.622-2.869,1.076-.232.622,2.869Zm-1.243-5.738-.622-2.867,1.077-.232.62,2.867Zm-1.243-5.734-.622-2.869,1.077-.232.622,2.869Zm-1.242-5.736-.622-2.871,1.076-.232.622,2.869Zm-1.243-5.738-.622-2.869,1.076-.232.622,2.869Zm-1.243-5.738-.622-2.867,1.077-.232.622,2.869Zm-1.243-5.734-.62-2.871,1.076-.232.622,2.869Zm-1.242-5.738-.622-2.867,1.076-.232.622,2.867Zm-1.243-5.738-.622-2.865,1.077-.232.62,2.867Zm-1.243-5.734-.622-2.869,1.077-.232.622,2.869Zm-1.242-5.738-.622-2.867,1.076-.232.622,2.867Zm-1.243-5.736-.622-2.867,1.076-.232.622,2.867Zm-1.243-5.736-.622-2.869,1.077-.232.622,2.867Zm-1.242-5.736-.622-2.871,1.076-.232.622,2.871Zm-1.243-5.738-.622-2.867,1.076-.232.622,2.869Zm-1.243-5.736-.622-2.869,1.077-.232.622,2.869Z" transform="translate(-259.296 -9635.782)" fill="#999"/>
            <rect id="Rectángulo_10561" data-name="Rectángulo 10561" width="1.463" height="1.103" transform="translate(12.218 345.743) rotate(-88.21)" fill="#999"/>
          </g>
          <g id="Grupo_56993" data-name="Grupo 56993" transform="translate(23.851 165.156)">
            <rect id="Rectángulo_10562" data-name="Rectángulo 10562" width="1.101" height="1.47" transform="translate(0 0.234) rotate(-12.232)" fill="#999"/>
            <path id="Trazado_111810" data-name="Trazado 111810" d="M274.739,9978.271l-1.1-.03.087-2.954,1.1.032Zm.172-5.9-1.1-.033.087-2.948,1.1.033Zm.171-5.9-1.1-.031.087-2.945,1.1.03Zm.173-5.894-1.1-.033.085-2.943,1.1.029Zm.171-5.891-1.1-.031.085-2.947,1.1.033Zm.172-5.893-1.1-.033.085-2.945,1.1.033Zm.172-5.891-1.1-.033.085-2.945,1.1.031Zm.168-5.891-1.1-.03.087-2.945,1.1.03Zm.172-5.891-1.1-.03.085-2.945,1.1.029Zm.172-5.89-1.1-.03.084-2.947,1.1.032Zm.171-5.89-1.1-.033.085-2.945,1.1.033Zm.168-5.887-1.1-.033.082-2.857,1.105-.055Zm.171-5.892-1.1-.033.085-2.95,1.1.03Zm.169-5.9-1.1-.03.084-2.942,1.1.03Zm.169-5.879-1.1-.03.084-2.945,1.1.029Zm.168-5.89-1.1-.03.084-2.947,1.1.032Zm.168-5.891-1.1-.033.084-2.944,1.1.033Zm.168-5.89-1.1-.033.082-2.944,1.1.033Zm.166-5.89-1.1-.033.084-2.945,1.1.032Zm.165-5.894-1.1-.03.084-2.945,1.1.03Zm.165-5.893-1.1-.028.081-2.945,1.1.03Zm.163-5.891-1.1-.028.081-2.947,1.1.03Zm.16-5.893-1.1-.029.085-2.948,1.1.038Zm.21-5.872-1.1-.056q.075-1.5.172-2.945l1.1.073Q278.733,9841.295,278.659,9842.784Zm.4-5.852-1.1-.094q.13-1.5.281-2.937l1.1.114Q279.182,9835.444,279.055,9836.933Zm.611-5.832-1.094-.137c.126-1,.26-1.974.4-2.927l1.091.162Q279.853,9829.613,279.666,9831.1Zm.857-5.795-1.088-.187c.169-1,.35-1.964.535-2.905l1.082.213Q280.774,9823.829,280.523,9825.306Zm1.133-5.741-1.076-.241q.333-1.494.689-2.878l1.069.271C282.1,9817.632,281.875,9818.581,281.656,9819.564Zm1.449-5.667-1.058-.308q.43-1.478.873-2.83l1.048.346Q283.529,9812.438,283.105,9813.9Zm1.823-5.548-1.035-.386q.547-1.465,1.092-2.759l1.016.428Q285.465,9806.907,284.928,9808.35Zm2.269-5.376-.994-.478c.463-.968.922-1.846,1.361-2.643l.964.534C288.1,9801.165,287.652,9802.025,287.2,9802.974Zm2.822-5.078-.923-.6c.579-.894,1.166-1.714,1.743-2.436l.861.69C291.145,9796.242,290.581,9797.031,290.02,9797.9Zm3.21-5.061-1.088-.173.459-2.908,1.089.174Zm.92-5.815-1.088-.172.331-2.1-.128-.595,1.077-.231.173.8Zm-1.507-5.746-.623-2.876,1.076-.231.623,2.877Zm-1.248-5.751-.623-2.877,1.077-.232.622,2.877Zm-1.246-5.753-.623-2.877,1.077-.232.623,2.877Zm-1.246-5.753-.623-2.877,1.076-.234.623,2.879Zm-1.246-5.753-.623-2.877,1.077-.234.622,2.877Zm-1.248-5.754-.622-2.878,1.076-.233.623,2.878Zm-1.245-5.754-.623-2.877,1.076-.233.623,2.876ZM283.915,9741l-.623-2.876,1.077-.232.623,2.876Zm-1.246-5.753-.622-2.876,1.076-.232.623,2.876Zm-1.245-5.753-.625-2.876,1.076-.233.625,2.877Zm-1.248-5.753-.623-2.877,1.077-.232.623,2.877Zm-1.245-5.753-.625-2.877,1.076-.232.625,2.877Zm-1.248-5.753-.623-2.877,1.076-.232.623,2.877Zm-1.246-5.753-.625-2.877,1.077-.232.625,2.877Zm-1.246-5.753-.623-2.877,1.076-.231.623,2.877Zm-1.246-5.754-.625-2.876,1.077-.231.623,2.877Zm-1.248-5.753-.623-2.876,1.077-.231.623,2.877Zm-1.245-5.753-.625-2.875,1.076-.232.625,2.877Zm-1.248-5.753-.623-2.876,1.077-.233.622,2.877Zm-1.246-5.753-.623-2.877,1.076-.232.625,2.877Zm-1.246-5.753-.623-2.877,1.076-.233.623,2.878Zm-1.246-5.753-.625-2.877,1.077-.233.623,2.876Zm-1.248-5.753-.622-2.877,1.076-.233.623,2.876Zm-1.245-5.753-.625-2.878,1.076-.233.625,2.877Zm-1.248-5.755-.623-2.877,1.077-.232.623,2.877Z" transform="translate(-261.166 -9635.775)" fill="#999"/>
            <rect id="Rectángulo_10563" data-name="Rectángulo 10563" width="1.463" height="1.103" transform="matrix(0.029, -1, 1, 0.029, 12.345, 346.744)" fill="#999"/>
          </g>
          <path id="Trazado_111811" data-name="Trazado 111811" d="M263.359,9660.059c-8.66,0-15.705-15.258-15.705-34.01s7.045-34.008,15.705-34.008,15.7,15.256,15.7,34.008S272.018,9660.059,263.359,9660.059Zm0-66.914c-8.052,0-14.6,14.762-14.6,32.9s6.551,32.908,14.6,32.908,14.6-14.762,14.6-32.908S271.41,9593.145,263.359,9593.145Z" transform="translate(-244.103 -9493.194)" fill="#999"/>
          <path id="Trazado_111812" data-name="Trazado 111812" d="M337.6,10025.561h-.022a.737.737,0,0,1-.713-.758c.043-1.463,4.166-146.74-2.766-169.209-7.007-22.713-4.912-52.227-4.892-52.523l8.266-68.082c.028-.373,3.112-40.711,1.326-59.867-.573-6.15-1.873-13.781-3.245-21.865-2.954-17.365-6.63-38.979-5.131-57.977l4.132-35.674a.75.75,0,0,1,.816-.646.739.739,0,0,1,.645.814l-4.13,35.648c-1.482,18.787,2.177,40.3,5.117,57.59,1.379,8.107,2.682,15.768,3.262,21.969,1.8,19.283-1.3,59.748-1.329,60.156l-8.265,68.078c-.018.26-2.092,29.5,4.833,51.945,7,22.7,3.006,163.693,2.832,169.686A.736.736,0,0,1,337.6,10025.561Z" transform="translate(-205.933 -9508.738)" fill="#4d4d4d"/>
          <g id="Grupo_56994" data-name="Grupo 56994" transform="translate(133.956 189.83)">
            <path id="Trazado_111813" data-name="Trazado 111813" d="M380.14,9660.838s-35.72-4.994-43.694-6.529" transform="translate(-336.342 -9653.769)" fill="#fff"/>
            <path id="Trazado_111814" data-name="Trazado 111814" d="M380.1,9661.555c-.357-.049-35.826-5.012-43.722-6.531l.209-1.082c7.868,1.514,43.307,6.473,43.664,6.523Z" transform="translate(-336.375 -9653.941)" fill="#999"/>
          </g>
          <g id="Grupo_56998" data-name="Grupo 56998" transform="translate(108.637)">
            <g id="Grupo_56995" data-name="Grupo 56995" transform="translate(1.897)">
              <path id="Trazado_111815" data-name="Trazado 111815" d="M327.093,9546.73v13.123a6.622,6.622,0,0,0,6.035.447l.121-13.57s8.016-1.824,7.939-10.451c0,0,1.135-11.584-10.53-11.1s-9.721,13.934-9.721,13.934S323.042,9545.92,327.093,9546.73Z" transform="translate(-320.263 -9524.614)" fill="#fff"/>
              <path id="Trazado_111816" data-name="Trazado 111816" d="M330.7,9561.553a6.982,6.982,0,0,1-3.75-1.069l-.235-.166v-12.982c-4.029-1.221-6.045-7.6-6.132-7.88-.059-.361-.964-6.954,2.571-11.216a10,10,0,0,1,7.653-3.434c3.614-.148,6.422.807,8.349,2.847,3.245,3.432,2.775,8.638,2.755,8.855a11,11,0,0,1-7.942,10.813l-.121,13.525-.338.138A7.312,7.312,0,0,1,330.7,9561.553Zm-2.882-1.831a6.066,6.066,0,0,0,4.934.371l.123-13.626.423-.1a9.9,9.9,0,0,0,7.512-9.908c.006-.106.438-5-2.462-8.059-1.7-1.791-4.216-2.628-7.5-2.494a8.942,8.942,0,0,0-6.846,3.031c-3.223,3.878-2.361,10.21-2.352,10.273h0c.007,0,2.044,6.417,5.719,7.152l.444.09Z" transform="translate(-320.44 -9524.791)" fill="#999"/>
            </g>
            <g id="Grupo_56996" data-name="Grupo 56996" transform="translate(0 5.403)">
              <rect id="Rectángulo_10564" data-name="Rectángulo 10564" width="23.828" height="4.087" rx="1.209" transform="translate(0.736 0.735)" fill="#fff"/>
              <path id="Trazado_111817" data-name="Trazado 111817" d="M341.936,9534.023H321.661a2.514,2.514,0,0,1-2.512-2.512v-.532a2.516,2.516,0,0,1,2.512-2.512h20.275a2.516,2.516,0,0,1,2.512,2.512v.532A2.514,2.514,0,0,1,341.936,9534.023Zm-20.275-4.086a1.045,1.045,0,0,0-1.042,1.042v.532a1.044,1.044,0,0,0,1.042,1.042h20.275a1.043,1.043,0,0,0,1.042-1.042v-.532a1.044,1.044,0,0,0-1.042-1.042Z" transform="translate(-319.149 -9528.468)" fill="#999"/>
            </g>
            <g id="Grupo_56997" data-name="Grupo 56997" transform="translate(0 13.072)">
              <rect id="Rectángulo_10565" data-name="Rectángulo 10565" width="23.828" height="4.087" rx="1.209" transform="translate(0.736 0.735)" fill="#fff"/>
              <path id="Trazado_111818" data-name="Trazado 111818" d="M341.936,9539.242H321.661a2.516,2.516,0,0,1-2.512-2.514v-.533a2.515,2.515,0,0,1,2.512-2.51h20.275a2.515,2.515,0,0,1,2.512,2.51v.533A2.516,2.516,0,0,1,341.936,9539.242Zm-20.275-4.088a1.044,1.044,0,0,0-1.042,1.041v.533a1.044,1.044,0,0,0,1.042,1.043h20.275a1.043,1.043,0,0,0,1.042-1.043v-.533a1.043,1.043,0,0,0-1.042-1.041Z" transform="translate(-319.149 -9533.686)" fill="#999"/>
            </g>
          </g>
          <path id="Trazado_111819" data-name="Trazado 111819" d="M365.592,9660.733l5.594-.275.656,1.589,1.986-.045s1.142-4.177-.362-5.81l-1.451-.307-.767,2.08-5.653,1.188-1.044.571-.021.786Z" transform="translate(-189.19 -9463.198)" fill="#666"/>
          <path id="Trazado_111820" data-name="Trazado 111820" d="M336.85,9655.134l4.465,3.382-.519,1.638.9.721a1.06,1.06,0,0,0,1.336,0c.941-.771,2.543-2.28,2.75-3.752a.977.977,0,0,0-.232-.728l-.664-.846-1.413.809a1.062,1.062,0,0,1-1.03.014l-4.576-2.444-1.166-.229-.522.589Z" transform="translate(-202.51 -9464.229)" fill="#666"/>
          <path id="Trazado_111821" data-name="Trazado 111821" d="M337.6,9657.456l4.53-3.294,1.418.969,1.637-1.125s-1.333-4.118-3.485-4.662l-1.382.539.5,2.16-4.08,4.088-.56,1.05.413.67Z" transform="translate(-202.51 -9466.273)" fill="#666"/>
          <path id="Trazado_111822" data-name="Trazado 111822" d="M330.944,9594.125l4.464,3.383-.517,1.637.9.721a1.057,1.057,0,0,0,1.335,0c.942-.773,2.543-2.283,2.752-3.756a.991.991,0,0,0-.232-.729l-.664-.844-1.413.811a1.073,1.073,0,0,1-1.03.014l-4.576-2.443-1.167-.232-.52.59Z" transform="translate(-205.285 -9492.895)" fill="#666"/>
          <path id="Trazado_111823" data-name="Trazado 111823" d="M331.7,9596.447l4.53-3.294,1.417.97,1.639-1.127s-1.335-4.117-3.486-4.662l-1.382.542.5,2.158-4.08,4.09-.559,1.049.413.669Z" transform="translate(-205.285 -9494.937)" fill="#666"/>
          <g id="Grupo_56999" data-name="Grupo 56999" transform="translate(66.863 68.167)">
            <path id="Trazado_111824" data-name="Trazado 111824" d="M298.755,9579.707l-.622-5.564,1.545-.754-.1-1.145a1.06,1.06,0,0,0-.923-.969c-1.208-.15-3.406-.271-4.615.59a.976.976,0,0,0-.367.67l-.156,1.064,1.559.467a1.066,1.066,0,0,1,.72.736l1.377,5,.636,1.006.786-.027Z" transform="translate(-289.417 -9571.169)" fill="#666"/>
            <path id="Trazado_111825" data-name="Trazado 111825" d="M299.75,9577.475l-5.507-1.016-.273-1.7-1.945-.412s-2.068,3.8-.98,5.736l1.342.631,1.224-1.85,5.773.145,1.146-.318.2-.76Z" transform="translate(-290.728 -9569.674)" fill="#666"/>
          </g>
          <g id="Grupo_57000" data-name="Grupo 57000" transform="translate(8.472 86.199)">
            <path id="Trazado_111826" data-name="Trazado 111826" d="M258.037,9592.541l1.461-5.406,1.712-.134.331-1.1a1.058,1.058,0,0,0-.5-1.237c-1.069-.583-3.069-1.5-4.511-1.143a.979.979,0,0,0-.588.487l-.535.934,1.28,1a1.067,1.067,0,0,1,.4.95l-.551,5.158.222,1.169.742.263Z" transform="translate(-248.934 -9583.437)" fill="#666"/>
            <path id="Trazado_111827" data-name="Trazado 111827" d="M260.08,9590.92l-4.752-2.964.367-1.679-1.658-1.1s-3.317,2.78-3.016,4.979l1.02,1.078,1.815-1.271,5.319,2.249,1.183.125.466-.633Z" transform="translate(-251.002 -9582.617)" fill="#666"/>
          </g>
          <g id="Grupo_57001" data-name="Grupo 57001" transform="translate(0 72.955)" opacity="0.71">
            <path id="Trazado_111828" data-name="Trazado 111828" d="M275.837,9655.395c-3.1,23.524-16.07,24.451-16.07,24.451l19.644,68.521,14.257,60.856.857,9.985s-5.941,11.1-6.81,13.907a139.223,139.223,0,0,0,26.464,4.282c.507.028,2.24-4.183,2.749-4.154.448.026.445,4.9.9,4.919,4.639.253,9.341.394,13.636.513,5.96.167,11.349,1.19,16.91.384.714-.1,1.411-4.884,2.109-4.984.409-.06,3.876,5.263,4.282,5.263,3.967,0,2.027.157,4.856.095.914-.021,1.917,0,2.749,0,7.517,0,11.863-3.419,12.175-4.059.922-1.895-4.783-7.553-5.316-14.2-.957-11.945,1.962-37.728,1.962-37.728l7.571-74.58s1.195-27.588-.159-41.322-2.108-17.98-2.108-17.98-5.982-38.4-7.8-48.267c0,0-14.14.3-24.358-6.795a71.714,71.714,0,0,1-18.821-19.58,83.9,83.9,0,0,1-37.785,15.014c-11.325,1.427-41.986,11.6-41.986,11.6S282.766,9602.862,275.837,9655.395Z" transform="translate(-245.003 -9574.191)" fill="#ccc"/>
            <path id="Trazado_111829" data-name="Trazado 111829" d="M358.79,9840.416c-.526,0-.726-.018-.973-.037-.345-.031-.816-.072-2.821-.072-.523,0-.747-.238-2.656-2.848-.453-.621-1.063-1.455-1.495-1.994-.159.447-.334,1.057-.466,1.518-.567,1.973-.875,2.924-1.67,3.039a50.6,50.6,0,0,1-11.35-.031c-1.84-.145-3.744-.291-5.685-.344-4.365-.121-9.016-.26-13.655-.516-.86-.043-.942-.947-1.141-3.129-.021-.234-.047-.51-.075-.779-.129.236-.259.477-.37.684-.948,1.773-1.385,2.5-2.061,2.459a141.342,141.342,0,0,1-26.622-4.307.733.733,0,0,1-.5-.926c.827-2.672,5.941-12.3,6.763-13.844l-.839-9.768-14.24-60.752L259.3,9680.285a.732.732,0,0,1,.1-.621.745.745,0,0,1,.548-.316c.123-.01,12.417-1.246,15.4-23.814h0c2.446-18.541-.312-32.684-8.2-42.025a31.949,31.949,0,0,0-21.2-11,.736.736,0,0,1-.2-1.434c1.254-.416,30.859-10.211,42.126-11.631a83.863,83.863,0,0,0,37.423-14.861.719.719,0,0,1,.586-.145.731.731,0,0,1,.5.344,71.537,71.537,0,0,0,18.61,19.354c9.9,6.875,23.788,6.668,23.923,6.664a.722.722,0,0,1,.738.6c1.8,9.766,7.747,47.9,7.808,48.287.029.16.772,4.414,2.114,18.021,1.342,13.629.173,41.15.162,41.428l-7.576,74.621c-.031.268-2.9,25.859-1.959,37.6.285,3.553,2.118,6.813,3.591,9.432,1.342,2.387,2.228,3.963,1.652,5.145-.444.91-4.961,4.471-12.835,4.471l-.855,0c-.611-.006-1.263-.01-1.877,0C359.4,9840.412,359.055,9840.416,358.79,9840.416Zm-3.547-1.578c1.862,0,2.327.043,2.7.076a14.375,14.375,0,0,0,1.893.018c.626-.012,1.293-.008,1.918,0l.845,0c7.24,0,11.219-3.217,11.531-3.676.222-.457-.8-2.281-1.629-3.748-1.462-2.6-3.464-6.16-3.775-10.035-.954-11.879,1.933-37.611,1.962-37.869l7.571-74.572c.009-.232,1.173-27.65-.16-41.176s-2.092-17.881-2.1-17.926c-.062-.389-5.774-37.041-7.695-47.658-2.9-.029-14.972-.545-24.163-6.924a73.829,73.829,0,0,1-18.6-19.125,86.084,86.084,0,0,1-37.5,14.682c-9.017,1.137-30.709,7.963-38.767,10.564a33.162,33.162,0,0,1,18.962,11.07c8.181,9.672,11.059,24.2,8.556,43.186-2.713,20.559-12.786,24.287-15.865,24.951l19.417,67.725,14.268,60.891.872,10.088a.728.728,0,0,1-.084.412c-.054.1-5.09,9.518-6.5,13.057a141.449,141.449,0,0,0,25.268,4.035c.241-.334.663-1.123.958-1.672.95-1.773,1.363-2.518,2.065-2.467.857.049.939.951,1.136,3.125.053.574.125,1.373.2,1.82,4.473.236,8.954.369,13.168.488,1.98.055,3.9.2,5.759.348a50.4,50.4,0,0,0,10.819.072,14.827,14.827,0,0,0,.673-2.021c.573-1.994.86-2.879,1.642-2.994.594-.092.905.256,2.921,3.008C354.116,9837.4,354.9,9838.467,355.243,9838.838Zm-79.17-183.211h0Z" transform="translate(-245.238 -9574.426)" fill="#4d4d4d"/>
          </g>
          <path id="Trazado_111830" data-name="Trazado 111830" d="M300.256,9657.33c-1.727,0-3.958-3.518-5.572-6.574-3.864-5.594-4.332-15.605-4.351-16.029a.736.736,0,0,1,.7-.768h.031a.736.736,0,0,1,.735.7c0,.1.469,10.018,4.136,15.334,1.624,3.064,3.592,5.756,4.277,5.867a8.265,8.265,0,0,0,.137-2.816c-.479-7.8-6.726-21.436-17.138-37.412-8.309-12.746-20.52-26.711-20.642-26.852a.735.735,0,1,1,1.105-.969c.124.139,12.4,14.18,20.769,27.02,4.99,7.656,16.672,26.7,17.373,38.123.119,1.936.063,3.961-1.239,4.328A1.215,1.215,0,0,1,300.256,9657.33Z" transform="translate(-237.179 -9495.298)" fill="#4d4d4d"/>
          <path id="Trazado_111831" data-name="Trazado 111831" d="M315.287,9630.84c-.7,0-1.338-.729-1.642-1.08-2.724-3.111-22.75-46.547-23.6-48.393a.734.734,0,1,1,1.335-.613c5.774,12.529,21.227,45.588,23.372,48.039l.172.189a16.775,16.775,0,0,0-.57-2.934.735.735,0,0,1,1.415-.4c1.233,4.4.338,4.881,0,5.064A1.036,1.036,0,0,1,315.287,9630.84Z" transform="translate(-224.218 -9498.701)" fill="#4d4d4d"/>
          <path id="Trazado_111832" data-name="Trazado 111832" d="M308.938,9631.139a.734.734,0,0,1-.66-.412c-2.262-4.605-22.109-45.068-22.4-47.424a.735.735,0,0,1,1.458-.182c.309,1.822,13.484,29.082,22.265,46.959a.733.733,0,0,1-.66,1.059Z" transform="translate(-226.148 -9497.69)" fill="#4d4d4d"/>
          <path id="Trazado_111833" data-name="Trazado 111833" d="M324.447,9677.061a.736.736,0,0,1-.661-.41c-.157-.322-15.876-32.436-23.088-50.084-.569-1.393-1.136-2.8-1.707-4.209-6.639-16.434-13.506-33.428-24.636-36.27a.734.734,0,1,1,.365-1.422c11.848,3.023,18.858,20.367,25.634,37.141.569,1.406,1.136,2.813,1.705,4.2,7.193,17.6,22.89,49.67,23.048,49.994a.736.736,0,0,1-.338.982A.725.725,0,0,1,324.447,9677.061Z" transform="translate(-231.817 -9496.673)" fill="#4d4d4d"/>
          <path id="Trazado_111834" data-name="Trazado 111834" d="M306.924,9655.672a.735.735,0,0,1-.7-.5c-.182-.529-18.417-53.15-36.077-68.057A.734.734,0,1,1,271.1,9586c17.969,15.164,35.77,66.523,36.518,68.7a.734.734,0,0,1-.456.934A.786.786,0,0,1,306.924,9655.672Z" transform="translate(-233.655 -9496.115)" fill="#4d4d4d"/>
          <path id="Trazado_111835" data-name="Trazado 111835" d="M292.2,9625.6a.733.733,0,0,1-.66-.413c-.157-.32-15.6-32-22.681-37.711a.734.734,0,0,1,.925-1.141c7.329,5.912,22.439,36.893,23.076,38.21a.733.733,0,0,1-.338.981A.716.716,0,0,1,292.2,9625.6Z" transform="translate(-234.269 -9495.952)" fill="#4d4d4d"/>
          <path id="Trazado_111836" data-name="Trazado 111836" d="M311.552,9659.473a.733.733,0,0,1-.7-.506c-.2-.619-20.428-62.082-37.109-71.418a.735.735,0,1,1,.717-1.283c17.179,9.617,36.956,69.693,37.789,72.244a.734.734,0,0,1-.47.926A.671.671,0,0,1,311.552,9659.473Z" transform="translate(-232.021 -9495.952)" fill="#4d4d4d"/>
          <path id="Trazado_111837" data-name="Trazado 111837" d="M318.274,9660.691c-2.34,0-5.474-7.393-7.146-11.84l-5.021-11.6c-9.273-25.164-20.467-51.461-23.178-51.971a.735.735,0,0,1,.273-1.445c4.9.924,21.074,44.205,24.267,52.871l5.02,11.6c2.156,5.723,4.77,10.678,5.751,10.916a4.815,4.815,0,0,0,.294-1,17.6,17.6,0,0,0,.268-2.375.717.717,0,0,1,.767-.7.734.734,0,0,1,.7.768,18.141,18.141,0,0,1-.291,2.58c-.1.516-.39,2.088-1.608,2.2C318.339,9660.689,318.305,9660.691,318.274,9660.691Z" transform="translate(-227.81 -9497.055)" fill="#4d4d4d"/>
          <path id="Trazado_111838" data-name="Trazado 111838" d="M371.738,9660.256a.737.737,0,0,1-.478-.176c-.406-.229-4.127-1.785-31.982-3.383-4.549-.262-9.054-.479-13.487-.693-26.606-1.287-49.583-2.4-64.113-11.43a.735.735,0,0,1,.775-1.25c14.206,8.832,38.106,9.988,63.409,11.211,4.437.217,8.948.434,13.5.7,20.046,1.15,32.066,2.561,32.979,3.871a.732.732,0,0,1-.182,1.021A.718.718,0,0,1,371.738,9660.256Z" transform="translate(-237.677 -9469.149)" fill="#4d4d4d"/>
          <path id="Trazado_111839" data-name="Trazado 111839" d="M298.519,9797.89H298.5a.734.734,0,0,1-.717-.75c.184-7.863-.05-23.628-.2-32.327a77.476,77.476,0,0,0-.851-10.158c-1.523-10.12-5.246-35.046-6.921-47.9-2.146-16.444-4.856-53.855-4.883-54.231a.734.734,0,0,1,.679-.787.724.724,0,0,1,.788.681c.026.374,2.732,37.745,4.874,54.148,1.674,12.837,5.394,37.751,6.916,47.868a78.8,78.8,0,0,1,.869,10.351c.154,8.709.388,24.5.2,32.384A.736.736,0,0,1,298.519,9797.89Z" transform="translate(-226.593 -9465.148)" fill="#4d4d4d"/>
          <path id="Trazado_111840" data-name="Trazado 111840" d="M344.41,9607.041c-.37,0-37.13-.344-46.963-30.186a.734.734,0,1,1,1.395-.457c9.505,28.842,45.209,29.174,45.568,29.174a.734.734,0,1,1,0,1.469Z" transform="translate(-220.726 -9500.781)" fill="#4d4d4d"/>
          <path id="Trazado_111841" data-name="Trazado 111841" d="M312.821,9654.561l4.529-3.293,1.418.969,1.637-1.125s-1.333-4.119-3.485-4.662l-1.382.541.5,2.158-4.08,4.09-.56,1.049.414.67Z" transform="translate(-214.154 -9467.633)" fill="#666"/>
          <path id="Trazado_111842" data-name="Trazado 111842" d="M276.377,9659.889l-5.6.167-.528,1.635-1.984.11s-1.465-4.072-.1-5.82l1.424-.417.927,2.012,5.729.737,1.085.488.082.782Z" transform="translate(-234.738 -9463.35)" fill="#666"/>
          <g id="Grupo_57002" data-name="Grupo 57002" transform="translate(123.723 317.865)">
            <path id="Trazado_111843" data-name="Trazado 111843" d="M330.268,9747.508l5.147,2.211-.109,1.713,1.047.482a1.052,1.052,0,0,0,1.295-.324c.728-.975,1.92-2.826,1.768-4.3a1,1,0,0,0-.4-.65l-.85-.66-1.176,1.127a1.066,1.066,0,0,1-1,.26l-5.03-1.273-1.188.057-.365.7Z" transform="translate(-329.413 -9738.737)" fill="#666"/>
            <path id="Trazado_111844" data-name="Trazado 111844" d="M331,9749.912l3.605-4.287,1.609.6,1.318-1.486s-2.284-3.678-4.5-3.687l-1.211.855,1,1.977-2.978,4.949-.29,1.154.562.553Z" transform="translate(-329.347 -9741.051)" fill="#666"/>
          </g>
          <g id="Grupo_57003" data-name="Grupo 57003" transform="translate(46.158 322.378)">
            <path id="Trazado_111845" data-name="Trazado 111845" d="M283.717,9744.715l-4.288,3.6-1.482-.867-.9.717a1.058,1.058,0,0,0-.292,1.3c.545,1.09,1.661,2.984,3.051,3.516a.984.984,0,0,0,.76-.066l.972-.459-.476-1.557a1.064,1.064,0,0,1,.215-1.01l3.4-3.92.484-1.086-.459-.639Z" transform="translate(-276.641 -9744.061)" fill="#666"/>
            <path id="Trazado_111846" data-name="Trazado 111846" d="M281.207,9745.449l2.209,5.146-1.26,1.166.735,1.848s4.311-.389,5.319-2.367l-.22-1.467-2.216.008-3.084-4.885-.9-.777-.744.254Z" transform="translate(-274.571 -9744.121)" fill="#666"/>
          </g>
        </g>
      </g>
    </g>
  </g>
</svg>
