<svg xmlns="http://www.w3.org/2000/svg" width="241.043" height="423.652" viewBox="0 0 241.043 423.652">
  <g id="Grupo_56976" data-name="Grupo 56976" transform="translate(-223.854 -6124.173)">
    <rect id="Rectángulo_10486" data-name="Rectángulo 10486" width="241.043" height="423.652" rx="20.87" transform="translate(223.854 6124.174)" fill="#fff"/>
    <g id="Grupo_56863" data-name="Grupo 56863">
      <path id="Trazado_111070" data-name="Trazado 111070" d="M405.118,6388.183l-7.2-17.893v-6.03l6.517-40.712L413.3,6283v-16.078s2.887-7.915,3.127-20.9-.962-18.179-2.886-23.5l-18.519-6.679-14.271-5.07s-11.865-2.8-11.384-17.149l-.8-22.591-15.032,3.1-15.032-3.1.08,22.549c.481,14.346-12.266,17.191-12.266,17.191l-14.27,5.07-17.918,4.947c-1.925,5.318-3.728,12.244-3.488,25.229s3.127,20.9,3.127,20.9V6283l8.862,40.542h0l1.292,5.911,7.449,34.8v7s-13.226,28.008-14.587,50.375v111.056h119.65l-1.591-92.968S414.648,6405.1,405.118,6388.183Z" fill="#fff" stroke="#000" stroke-miterlimit="10" stroke-width="1" opacity="0.33"/>
      <g id="Grupo_56861" data-name="Grupo 56861">
        <path id="Trazado_111071" data-name="Trazado 111071" d="M396.17,6371.765l-2.24-2.64,2.1-2.272-2-2.563.722-.562,2.476,3.176-2.078,2.248,1.716,2.023Z" fill="#999"/>
        <path id="Trazado_111072" data-name="Trazado 111072" d="M393.649,6371.765l-2.24-2.64,2.1-2.272-2-2.563.722-.562,2.476,3.176-2.078,2.248,1.716,2.023Z" fill="#999"/>
        <path id="Trazado_111073" data-name="Trazado 111073" d="M391.128,6371.765l-2.24-2.64,2.1-2.272-2-2.563.722-.562,2.476,3.176-2.078,2.248,1.716,2.023Z" fill="#999"/>
        <path id="Trazado_111074" data-name="Trazado 111074" d="M388.607,6371.765l-2.24-2.64,2.1-2.272-2-2.563.722-.562,2.476,3.176-2.078,2.248,1.716,2.023Z" fill="#999"/>
        <path id="Trazado_111075" data-name="Trazado 111075" d="M386.086,6371.765l-2.24-2.64,2.1-2.272-2-2.563.722-.562,2.476,3.176-2.078,2.248,1.716,2.023Z" fill="#999"/>
        <path id="Trazado_111076" data-name="Trazado 111076" d="M383.565,6371.765l-2.24-2.64,2.1-2.272-2-2.563.722-.562,2.476,3.176-2.078,2.248,1.716,2.023Z" fill="#999"/>
        <path id="Trazado_111077" data-name="Trazado 111077" d="M381.044,6371.765l-2.24-2.64,2.1-2.272-2-2.563.722-.562,2.476,3.176-2.078,2.248,1.716,2.023Z" fill="#999"/>
        <path id="Trazado_111078" data-name="Trazado 111078" d="M378.523,6371.765l-2.24-2.64,2.1-2.272-2-2.563.722-.562,2.476,3.176-2.078,2.248,1.716,2.023Z" fill="#999"/>
        <path id="Trazado_111079" data-name="Trazado 111079" d="M376,6371.765l-2.24-2.64,2.1-2.272-2-2.563.722-.562,2.476,3.176-2.078,2.248,1.716,2.023Z" fill="#999"/>
        <path id="Trazado_111080" data-name="Trazado 111080" d="M373.481,6371.765l-2.24-2.64,2.1-2.272-2-2.563.722-.562,2.476,3.176-2.078,2.248,1.716,2.023Z" fill="#999"/>
        <path id="Trazado_111081" data-name="Trazado 111081" d="M370.96,6371.765l-2.24-2.64,2.1-2.272-2-2.563.722-.562,2.476,3.176-2.078,2.248,1.716,2.023Z" fill="#999"/>
        <path id="Trazado_111082" data-name="Trazado 111082" d="M368.439,6371.765l-2.24-2.64,2.1-2.272-2-2.563.722-.562,2.476,3.176-2.078,2.248,1.716,2.023Z" fill="#999"/>
        <path id="Trazado_111083" data-name="Trazado 111083" d="M365.918,6371.765l-2.24-2.64,2.1-2.272-2-2.563.722-.562,2.476,3.176-2.078,2.248,1.716,2.023Z" fill="#999"/>
        <path id="Trazado_111084" data-name="Trazado 111084" d="M363.4,6371.765l-2.24-2.64,2.1-2.272-2-2.563.722-.562,2.476,3.176-2.078,2.248,1.716,2.023Z" fill="#999"/>
        <path id="Trazado_111085" data-name="Trazado 111085" d="M360.876,6371.765l-2.24-2.64,2.1-2.272-2-2.563.722-.562,2.476,3.176-2.078,2.248,1.716,2.023Z" fill="#999"/>
        <path id="Trazado_111086" data-name="Trazado 111086" d="M358.355,6371.765l-2.24-2.64,2.1-2.272-2-2.563.722-.562,2.476,3.176-2.078,2.248,1.716,2.023Z" fill="#999"/>
        <path id="Trazado_111087" data-name="Trazado 111087" d="M355.833,6371.765l-2.24-2.64,2.1-2.272-2-2.563.722-.562,2.476,3.176-2.078,2.248,1.716,2.023Z" fill="#999"/>
        <path id="Trazado_111088" data-name="Trazado 111088" d="M353.312,6371.765l-2.24-2.64,2.1-2.272-2-2.563.722-.562,2.476,3.176-2.078,2.248,1.716,2.023Z" fill="#999"/>
        <path id="Trazado_111089" data-name="Trazado 111089" d="M350.791,6371.765l-2.24-2.64,2.1-2.272-2-2.563.722-.562,2.476,3.176-2.078,2.248,1.716,2.023Z" fill="#999"/>
        <path id="Trazado_111090" data-name="Trazado 111090" d="M348.27,6371.765l-2.24-2.64,2.1-2.272-2-2.563.722-.562,2.476,3.176-2.078,2.248,1.716,2.023Z" fill="#999"/>
        <path id="Trazado_111091" data-name="Trazado 111091" d="M345.749,6371.765l-2.24-2.64,2.1-2.272-2-2.563.722-.562,2.476,3.176-2.078,2.248,1.716,2.023Z" fill="#999"/>
        <path id="Trazado_111092" data-name="Trazado 111092" d="M343.228,6371.765l-2.24-2.64,2.1-2.272-2-2.563.722-.562,2.476,3.176-2.078,2.248,1.716,2.023Z" fill="#999"/>
        <path id="Trazado_111093" data-name="Trazado 111093" d="M340.707,6371.765l-2.24-2.64,2.1-2.272-2-2.563.722-.562,2.476,3.176-2.078,2.248,1.716,2.023Z" fill="#999"/>
        <path id="Trazado_111094" data-name="Trazado 111094" d="M338.186,6371.765l-2.24-2.64,2.1-2.272-2-2.563.722-.562,2.476,3.176-2.078,2.248,1.716,2.023Z" fill="#999"/>
        <path id="Trazado_111095" data-name="Trazado 111095" d="M335.665,6371.765l-2.24-2.64,2.1-2.272-2-2.563.722-.562,2.476,3.176-2.078,2.248,1.716,2.023Z" fill="#999"/>
        <path id="Trazado_111096" data-name="Trazado 111096" d="M333.144,6371.765l-2.24-2.64,2.1-2.272-2-2.563.722-.562,2.476,3.176-2.078,2.248,1.716,2.023Z" fill="#999"/>
        <path id="Trazado_111097" data-name="Trazado 111097" d="M330.623,6371.765l-2.24-2.64,2.1-2.272-2-2.563.722-.562,2.476,3.176-2.078,2.248,1.716,2.023Z" fill="#999"/>
        <path id="Trazado_111098" data-name="Trazado 111098" d="M328.1,6371.765l-2.24-2.64,2.1-2.272-2-2.563.722-.562,2.476,3.176-2.078,2.248,1.716,2.023Z" fill="#999"/>
        <path id="Trazado_111099" data-name="Trazado 111099" d="M325.581,6371.765l-2.24-2.64,2.1-2.272-2-2.563.722-.562,2.476,3.176-2.078,2.248,1.716,2.023Z" fill="#999"/>
        <path id="Trazado_111100" data-name="Trazado 111100" d="M323.06,6371.765l-2.24-2.64,2.1-2.272-2-2.563.722-.562,2.476,3.176-2.078,2.248,1.716,2.023Z" fill="#999"/>
        <path id="Trazado_111101" data-name="Trazado 111101" d="M320.539,6371.765l-2.24-2.64,2.1-2.272-2-2.563.722-.562,2.476,3.176-2.078,2.248,1.716,2.023Z" fill="#999"/>
        <path id="Trazado_111102" data-name="Trazado 111102" d="M318.018,6371.765l-2.24-2.64,2.1-2.272-2-2.563.722-.562,2.476,3.176L317,6369.151l1.716,2.023Z" fill="#999"/>
        <path id="Trazado_111103" data-name="Trazado 111103" d="M315.5,6371.765l-2.24-2.64,2.1-2.272-2-2.563.722-.562,2.476,3.176-2.078,2.248,1.716,2.023Z" fill="#999"/>
        <path id="Trazado_111104" data-name="Trazado 111104" d="M312.976,6371.765l-2.24-2.64,2.1-2.272-2-2.563.722-.562,2.476,3.176-2.078,2.248,1.716,2.023Z" fill="#999"/>
      </g>
      <path id="Trazado_111105" data-name="Trazado 111105" d="M338.537,6180.6s3.573,4.7,15.96,4.081,14.361-5.439,14.361-5.439" fill="none" stroke="#999" stroke-miterlimit="10" stroke-width="1"/>
      <line id="Línea_275" data-name="Línea 275" x2="115.979" transform="translate(295.282 6289.933)" fill="none" stroke="#999" stroke-miterlimit="10" stroke-width="1"/>
      <line id="Línea_276" data-name="Línea 276" x2="119.213" transform="translate(293.768 6283.005)" fill="none" stroke="#999" stroke-miterlimit="10" stroke-width="1"/>
      <line id="Línea_277" data-name="Línea 277" y2="40.728" transform="translate(353.539 6289.933)" fill="none" stroke="#999" stroke-miterlimit="10" stroke-width="1"/>
      <path id="Trazado_111106" data-name="Trazado 111106" d="M391.328,6214.538s.839,3.538-.364,23.45L390.518,6283" fill="none" stroke="#999" stroke-miterlimit="10" stroke-width="1"/>
      <path id="Trazado_111107" data-name="Trazado 111107" d="M390.518,6289.932l-6.679,41.486-5.951,32.648v7s11.646,24.117,12.63,70.99,2.541,90.635,2.541,90.635" fill="none" stroke="#999" stroke-miterlimit="10" stroke-width="1"/>
      <path id="Trazado_111108" data-name="Trazado 111108" d="M317.208,6289.932l6.5,40.728,6.72,33.017v7.585s-10.308,35.009-11.475,60.1-.194,60.294-.194,60.294l.194,41.038" fill="none" stroke="#999" stroke-miterlimit="10" stroke-width="1"/>
      <line id="Línea_278" data-name="Línea 278" x1="3.063" y1="354.975" transform="translate(352.555 6177.718)" fill="none" stroke="#999" stroke-miterlimit="10" stroke-width="1"/>
      <path id="Trazado_111109" data-name="Trazado 111109" d="M316.945,6214.538s-.838,3.538.365,23.45l.445,45.017" fill="none" stroke="#999" stroke-miterlimit="10" stroke-width="1"/>
      <path id="Trazado_111110" data-name="Trazado 111110" d="M334.748,6205.524s4.28,14.325,19.37,14.243,18.818-14.243,18.818-14.243" fill="none" stroke="#999" stroke-miterlimit="10" stroke-width="1"/>
      <path id="Trazado_111111" data-name="Trazado 111111" d="M390.6,6286.9l3.686-4.044,2.161.169s.922.094.738-.727l-2.428-3s-1.136-1.264-1.505.19l-.123,2.527-3.29,3.965-.4,1.249Z" fill="#666"/>
      <ellipse id="Elipse_4436" data-name="Elipse 4436" cx="15.032" cy="6.678" rx="15.032" ry="6.678" transform="translate(338.503 6164.361)" fill="#fff" stroke="#999" stroke-miterlimit="10" stroke-width="1"/>
      <g id="Grupo_56862" data-name="Grupo 56862">
        <path id="Trazado_111112" data-name="Trazado 111112" d="M360.635,6152.037c0-5.252-3.1-9.51-6.913-9.51s-6.912,4.258-6.912,9.51c0,4.108,1.9,7.6,4.547,8.927v9.094h5.223v-9.368C358.97,6159.193,360.635,6155.886,360.635,6152.037Z" fill="#fff" stroke="#999" stroke-miterlimit="10" stroke-width="1"/>
        <rect id="Rectángulo_10487" data-name="Rectángulo 10487" width="16.211" height="2.78" rx="1.209" transform="translate(345.894 6154.007)" fill="#fff" stroke="#999" stroke-miterlimit="10" stroke-width="1"/>
        <rect id="Rectángulo_10488" data-name="Rectángulo 10488" width="16.211" height="2.78" rx="1.209" transform="translate(345.894 6148.699)" fill="#fff" stroke="#999" stroke-miterlimit="10" stroke-width="1"/>
      </g>
      <line id="Línea_279" data-name="Línea 279" x2="86.064" transform="translate(311.371 6364.26)" fill="#fff" stroke="#000" stroke-miterlimit="10" stroke-width="1" opacity="0.33"/>
      <line id="Línea_280" data-name="Línea 280" x2="86.064" transform="translate(311.371 6371.262)" fill="#fff" stroke="#000" stroke-miterlimit="10" stroke-width="1" opacity="0.33"/>
      <path id="Trazado_111113" data-name="Trazado 111113" d="M294.7,6221.181s3.555,31.376-.32,45.739" fill="none" stroke="#000" stroke-miterlimit="10" stroke-width="1" opacity="0.33"/>
      <path id="Trazado_111114" data-name="Trazado 111114" d="M413.542,6222.529s-4.116,30.035-.241,44.4" fill="none" stroke="#000" stroke-miterlimit="10" stroke-width="1" opacity="0.33"/>
      <path id="Trazado_111115" data-name="Trazado 111115" d="M316.6,6286.126l-3.687-4.045-2.161.169s-.921.1-.737-.727l2.427-3s1.137-1.264,1.506.189l.122,2.528,3.291,3.965.4,1.248Z" fill="#666"/>
      <path id="Trazado_111116" data-name="Trazado 111116" d="M272.438,6311.958l.652-22.026s.131-7.453,1.565-10.583,2.87-9.131,2.609-17.087a114.784,114.784,0,0,0-1.174-13.491s0-9.6,2.87-10.509,6.913-2.348,7.3-3.391-8.609-7.044-8.609-7.044-4.956.4-5.217-6.646,12.652-11.354,12.652-11.354l16.174-6.13s5.739-3.131,10.044-2.348,13.043-1.435,13.043-1.435,14.739-3.652,15.652-3.13,9.261-1.957,9.261-1.957L359.308,6193s4.565-.565,5.217,1.022-.652,6.333-.522,8.982-.261,48.692-.261,48.692l-2.585,67.391s-2.845,46.087-2.521,63.826,0,50.435,0,50.435.019,3.043-1.937,3.761-3.457.848-3.848.326-3.13-.018-3.326.317-2.609,2.1-4.044.6-5.673-2.348-5.673-2.348l-7.566.457-2.217,1.173s-.522,1.194-3.783,1.314-11.478-.4-11.478-.4-4.37.13-5.413,1.3a3.381,3.381,0,0,1-3.587.652c-.587-.326-2.935-1.826-4.37-1.7s-6.326.2-8.934-.717-2.674-1.3-6.066-.913c0,0-6.521-.13-7.869.348s-1.913,1.174-3.3,1.348-2.783-1-4.131.087a7.584,7.584,0,0,1-3.913,1.391c-.348-.044-1.3-.609-2.261,1.043s-3.217.7-3.217.7-.174-.739-1.391.7a12.888,12.888,0,0,1-2.7,2.347l1.087-10.3s1.652-18,2.435-34.174.087-40.087.087-40.087l-2.348-41.043-3.826-47.131-1.653-30.869-1.565-21.756s.87-2.331,2.522.712l4.7,4.7,3.217,3.391s2.609,2.609,2.522,4.783-2.435,5.826-2.435,5.826l-5.478,9.13s-1.565.7-.087,1.826,3.478.522,4.956,1.392,2.609,1.478,3.3,2.869,1.391,7.044,1.391,7.044l.609,11.391s.869,10.783,1.565,12.261,2.348,13.652,2.348,13.652Z" fill="#999" stroke="#4d4d4d" stroke-linecap="round" stroke-linejoin="round" stroke-width="1" opacity="0.5"/>
      <path id="Trazado_111117" data-name="Trazado 111117" d="M315.134,6186.218s-2.261,3.922-8.522,3.787-8.99.192-12.234,2.9-8.636,2.185-8.636,2.185-11.826,1.043-18.261,4S252.873,6207.61,252.7,6209s0,6.783,0,6.783l-.077,1.565v1.043l3.99,4.348,4.847,4.978,2.468,3,.625,1.3-.386,3.679-4.685,8.965-2.608,3.648-.718.853.631.973,1.836.709,2.276.339,2.531,1.394,1.618,1.819,1.017,4.425.542,5.759.38,7.11.347,4.364.486,4.573.324,2.382,1.042,4.384,1.2,7.32,1.55,12.754.549,2.931.737-17.132.058-6.81.985-6.147,2.261-6.521.7-8.261-.261-8.7-.609-6.782.348-7.914,1.826-3.913,4.054-1.214,3.308-1.67.2-1.289-5.652-4.174-3.217-2.261h-1.305l-2.522-2-1.043-2.435.261-4.435,2.087-2.869,4.326-3.226,7.544-3.378,14.7-5.57,5.154-1.994,3.68-.469,5.376.2Z" fill="#999" stroke="#4d4d4d" stroke-linecap="round" stroke-linejoin="round" stroke-width="1"/>
      <path id="Trazado_111118" data-name="Trazado 111118" d="M287.308,6173.349s2.782,5.826,8.521,5.043,8,.783,8.435,1.3,2.261,4,4.87,3.3a10.3,10.3,0,0,1,5.13.092l.783,1.648s1.019,1.091-.688,2.442a19.942,19.942,0,0,1-3.291,2.119l-3.021.66H304.7s-4.449.258-4.794.323-2.969.928-2.969.928l-3.061,2.071-2.339,1.143-3.52.661-.491-.435Z" fill="#999" stroke="#4d4d4d" stroke-linecap="round" stroke-linejoin="round" stroke-width="1" opacity="0.5"/>
      <path id="Trazado_111119" data-name="Trazado 111119" d="M288.221,6437.958s.391,55.3.521,57.391-2.478-4.957-2.478-4.957-2.739-4.565-6.261-5.347-4.13-1.2-4.13-1.2-2.652-.739-2.479-2.957,6.022-4.782,6.022-4.782l5.413-2.413s1.7-1.174,1.435-2.152-2.87-3.131-2.87-3.131l-7.7-6.456s-3.652-3.718-5.935-3.718-6.065-.13-6.065-.13a4.934,4.934,0,0,1-3.131-3.065c-.978-2.544-2.543-6-2.543-6l-.522-3.327,3.065-2.543.64-1.206,1.621.684,1.869-.954,1.386-1.418,1.528.068,1.98-.553,1.5-.838,1.654-.446,2,.446,3.427-1.3,3.486-.461,4.218-.034,2.131-.132Z" fill="#999" stroke="#4d4d4d" stroke-linecap="round" stroke-linejoin="round" stroke-width="1"/>
      <path id="Trazado_111120" data-name="Trazado 111120" d="M275.894,6463.131l.261,13.957a14.76,14.76,0,0,0,4.005-1.31l3.78-1.685,2.04-1.519a12.929,12.929,0,0,1-.694-1.812c-.222-.82-3.049-3.319-3.049-3.319l-3.96-3.322-1.625-1.364Z" fill="#999" stroke="#4d4d4d" stroke-linecap="round" stroke-linejoin="round" stroke-width="1" opacity="0.5"/>
    </g>
  </g>
</svg>
