<svg xmlns="http://www.w3.org/2000/svg" width="604.87" height="383.084" viewBox="0 0 604.87 383.084">
  <g id="Grupo_56973" data-name="Grupo 56973" transform="translate(-226.985 -8625.392)">
    <rect id="Rect치ngulo_10549" data-name="Rect치ngulo 10549" width="604.87" height="383.084" rx="20.348" transform="translate(226.985 8625.392)" fill="#fff"/>
    <g id="Grupo_56972" data-name="Grupo 56972" transform="translate(265.922 8661.003)">
      <path id="Trazado_111617" data-name="Trazado 111617" d="M312.444,8827.592l-.286-.858a5.752,5.752,0,0,0,2.191-1.2c.415-.579.673-.942-1.267-6.412-2.022-5.7-11.5-29.623-11.6-29.865-.017-.037-2.828-6.06-6.691-9.209-4.639-3.786-10.159-7.2-19-6.515-9.072.7-10.628,4-10.643,4.03a4.389,4.389,0,0,0-.029,4c1.28,2.134,2.148,3.147,4.319,3.036,2.462-.1,6.725-.826,6.768-.834l.153.895c-.178.028-4.362.74-6.882.846-2.768.105-3.828-1.3-5.132-3.475a5.205,5.205,0,0,1-.01-4.861c.042-.112,1.667-3.793,11.388-4.54,9.162-.7,14.858,2.813,19.643,6.716,4.025,3.282,6.833,9.3,6.951,9.555s9.591,24.2,11.619,29.92c2.018,5.689,1.831,6.29,1.171,7.21A6.512,6.512,0,0,1,312.444,8827.592Z" transform="translate(-258.295 -8630.449)" fill="#999"/>
      <path id="Trazado_111618" data-name="Trazado 111618" d="M334.248,8839.8c0-.006-.488-.592-2.235-2.494-1.621-1.763-6.107-1.537-6.153-1.535-.38.011-9,.209-10.384,0-1.587-.244-1.834-.965-1.868-1.105l-6.717-15.388.012-.117a3.109,3.109,0,0,0-.466-2.193.7.7,0,0,0-.7-.085c-4.78,1.289-8.277,2.635-9.852,3.789-2.346,1.72-9.166,6.19-9.236,6.234-.188.112-.673.468-.72.83-.008.061-.034.244.243.518.866.869,1.1,1.2.9,1.557l-.17.3-.371-.073.11-.437-.386.1a4.67,4.67,0,0,0-.721-.809,1.485,1.485,0,0,1-.5-1.281,2.329,2.329,0,0,1,1.146-1.479c.045-.03,6.845-4.488,9.171-6.194,2.13-1.562,6.7-3,10.153-3.933a1.591,1.591,0,0,1,1.519.267c.857.727.822,2.362.791,2.851l6.65,15.255c.012.033.181.346,1.15.494,1.049.163,7.137.067,10.212,0,.186-.011,4.945-.251,6.856,1.827,1.772,1.928,2.249,2.507,2.268,2.529Z" transform="translate(-253.872 -8621.438)" fill="#999"/>
      <rect id="Rect치ngulo_10550" data-name="Rect치ngulo 10550" width="0.905" height="22.604" transform="translate(35.194 203.323) rotate(-32.694)" fill="#999"/>
      <path id="Trazado_111619" data-name="Trazado 111619" d="M291.775,8849.738a4.4,4.4,0,0,1-1.773-.374c-3.136-1.366-9.3-14.127-9.994-15.575l-13.314-29.309c-.012-.017-3.92-6.423-4.928-7.975a24.545,24.545,0,0,1-1.769-3.3c-.052-.108-1.511-3.154-.271-4.927,1.1-1.577,3.866-5.361,3.866-5.361l15.225-17.437c.338-.33,31.327-30.515,33.861-37.428l.851.313c-2.606,7.1-32.772,36.491-34.055,37.736l-15.175,17.38s-2.733,3.749-3.829,5.317c-.777,1.109-.01,3.286.351,4.031a24.4,24.4,0,0,0,1.705,3.181c1.016,1.563,4.928,7.979,4.969,8.044l13.335,29.35c1.838,3.848,7.143,14.086,9.534,15.128,2.733,1.19,5.364-1.672,5.391-1.7l.673.606A7.113,7.113,0,0,1,291.775,8849.738Z" transform="translate(-259.227 -8639.686)" fill="#999"/>
      <path id="Trazado_111620" data-name="Trazado 111620" d="M291.332,8753.923l-.8-.417,7.876-15.2,9.391-14.917,6.958-8.859c.232-.278,5.535-6.521,12.367-8.349,2.136-.57,4.107-1.048,6.013-1.507a56.494,56.494,0,0,0,9.9-2.957,128.249,128.249,0,0,0,11.282-6.816l5.309-2.934c.234-.078,3.383-.936,4.982-.515l-.231.876a11.867,11.867,0,0,0-4.41.471l-5.177,2.873a125.937,125.937,0,0,1-11.37,6.867,57.155,57.155,0,0,1-10.072,3.016c-1.9.459-3.866.933-5.991,1.5-6.551,1.753-11.846,7.983-11.9,8.044l-6.921,8.81-9.346,14.849Z" transform="translate(-252.728 -8647.311)" fill="#999"/>
      <path id="Trazado_111621" data-name="Trazado 111621" d="M373.116,8707.674a15.341,15.341,0,0,1-1.978-.105c-19.39-.525-22.4-12.512-22.425-12.632l.883-.208c.027.116,2.914,11.431,21.623,11.938.187.026,13.035,1.8,22.309-10.531l.723.545A26.294,26.294,0,0,1,373.116,8707.674Z" transform="translate(-240.647 -8646.605)" fill="#999"/>
      <path id="Trazado_111622" data-name="Trazado 111622" d="M322.373,8750.128a109.617,109.617,0,0,0-5.095-19.439c-3.613-9.585-3.185-21.638-3.18-21.759l.906.036c0,.118-.428,11.993,3.12,21.4a110.794,110.794,0,0,1,5.145,19.625Z" transform="translate(-247.838 -8643.657)" fill="#999"/>
      <path id="Trazado_111623" data-name="Trazado 111623" d="M321.025,8871.486l-.828-.367,13.7-30.795.739-2.832c-.209-1.256-2.4-14.48-3.294-21.342-.93-7.117-6.538-23.217-6.594-23.379-.106-.178-3.34-6.182-4.75-22.006s4.684-34.49,4.746-34.678l.861.285c-.062.184-6.1,18.684-4.706,34.314,1.391,15.592,4.64,21.656,4.671,21.715.263.736,5.728,16.422,6.67,23.631.932,7.156,3.282,21.266,3.305,21.406l.016.1-.813,3.088Z" transform="translate(-246.652 -8638.017)" fill="#999"/>
      <path id="Trazado_111624" data-name="Trazado 111624" d="M322.054,8854.786c-.291-.074-7.147-1.83-9.434-2.775s-10.59-6.348-10.942-6.577l.5-.76c.085.056,8.575,5.582,10.8,6.5s9.24,2.719,9.311,2.737Z" transform="translate(-250.413 -8615.472)" fill="#999"/>
      <path id="Trazado_111625" data-name="Trazado 111625" d="M375.653,8828.371c-.267,0-.529,0-.795,0-17.808-.157-42.237-6.408-42.482-6.471l.227-.879c.244.063,24.567,6.288,42.263,6.443,17.733.2,38.725-4.974,38.935-5.026l.217.88C413.81,8823.364,393.289,8828.371,375.653,8828.371Z" transform="translate(-244.039 -8620.384)" fill="#999"/>
      <path id="Trazado_111626" data-name="Trazado 111626" d="M408.219,8860.756l-1.712-5.277-7-14.383.008-.119a91.673,91.673,0,0,0,.017-10.023c-.316-4.893,3.773-23.59,3.947-24.384.081-.227,6.187-15.9,8.673-23.98,1.743-5.666,1.739-12.8-.011-21.2-.784-3.767-2.608-26.649-2.687-27.622l.9-.071c.019.236,1.9,23.8,2.67,27.508,1.782,8.55,1.779,15.834-.01,21.649-2.5,8.112-8.613,23.816-8.674,23.975-.023.125-4.215,19.3-3.908,24.063a92.063,92.063,0,0,1-.01,10.019l6.915,14.227,1.737,5.336Z" transform="translate(-230.099 -8638.514)" fill="#999"/>
      <path id="Trazado_111627" data-name="Trazado 111627" d="M406.9,8840.313l-.895-.151c.019-.108,1.848-11.151.766-20.506a63.528,63.528,0,0,0-3.022-12.331c-1.256-3.909-2.247-7-1.778-9.246l.888.186c-.421,2.016.537,5,1.753,8.783a64.281,64.281,0,0,1,3.057,12.5C408.766,8829.035,406.917,8840.2,406.9,8840.313Z" transform="translate(-229.613 -8625.146)" fill="#999"/>
      <path id="Trazado_111628" data-name="Trazado 111628" d="M407.205,8821.834l-.889-.169c1.338-7.072-.565-16.583-.583-16.678l.886-.183C406.7,8805.2,408.578,8814.585,407.205,8821.834Z" transform="translate(-228.807 -8623.75)" fill="#999"/>
      <path id="Trazado_111629" data-name="Trazado 111629" d="M410.281,8757.365l-.9-.061c.109-1.694,2.435-10.793,4.683-19.592.969-3.786,1.9-7.422,2.575-10.178,2.159-8.793.715-19.649.7-19.756l.9-.123c.016.11,1.484,11.135-.717,20.1-.676,2.758-1.607,6.4-2.576,10.187C412.8,8746.286,410.385,8755.753,410.281,8757.365Z" transform="translate(-228.05 -8643.922)" fill="#999"/>
      <path id="Trazado_111630" data-name="Trazado 111630" d="M427.426,8956.213s-2.52,3.229-3.308,4.488-1.576-.473-.63-2.244,1.181-1.693,1.181-4.372-.629-10.946-.629-10.946-1.182-25.36-2.442-31.032-11.027-39.537-11.027-39.537l-.427-2.6,8.641,18.508s5.57,11.734,6.122,18.9c0,0,.157,1.812,1.1,1.97s8.112-.788,9.057-.158a33.631,33.631,0,0,1,3.072,2.757s-9.766.709-10.869,1.812,2.205,11.657,1.89,14.413-2.442,15.437-2.442,15.437-1.024,8.271-.63,9.924c0,0-.472,1.97.867.788s2.441-1.418,4.1-6.774,5.985-26.855,5.907-29.849a14.521,14.521,0,0,1,.525-4.726l.657,1.1s2.494,1.26,2.756-2.205,0-58.991,0-58.991l.117-21.028-1.692-34.426,1.692-22.438.985-12.444.946-11.342s-1.418-3.307-2.363-6.143-2.362-12.443-5.041-15.437-8.19-8.821-8.19-8.821a209.562,209.562,0,0,0-21.737-10.4c-2.205-1.576-12.917-7.3-12.917-7.3a28.369,28.369,0,0,0-7.246-.972c-3.544.079-5.434-10.869-5.434-10.869l.946-14.335a5.453,5.453,0,0,1,2.047.867c.789.63.789,1.5,2.205.866a39.691,39.691,0,0,0,4.412-2.757s5.355-.944,7.088.788,3.7,1.812,4.253,1.261,4.962-7.8,4.962-7.8l3.543-12.208,1.182-3.071s1.181,6.38-.473,11.577a71.079,71.079,0,0,1-3.858,9.53s-1.891,4.726-4.884,4.41-7.8-1.338-7.8-1.338a4.552,4.552,0,0,0-4.647,0c-2.6,1.417-4.884,2.283-5.434,1.653s-1.5-.473-1.5.866a59.9,59.9,0,0,0,1.1,6.38,22.131,22.131,0,0,1,.315,4.726,7.544,7.544,0,0,0,.078,3.622c.315.474,1.811,3.623,2.6,4.018s5.591.156,5.591.156,8.27,2.6,12.523,5.356,18.508,7.8,18.508,7.8,12.05,3.938,15.831,9.609,6.222,10.237,6.694,11.655,1.97,8.586,1.97,8.586,1.181,4.331-.63,5.749-2.048,1.653-2.205,2.835-.552,8.507-.552,8.507l-.787.786-.551,2.993s1.968,0,2.127,5.828-.237,26.464-.237,26.464l-.472,26.463s-.473,18.587.235,21.344,1.654,17.326,1.654,17.326l.866,34.732s1.1,11.894-2.362,17.485c0,0-1.576,4.175-2.048,4.884a.818.818,0,0,1-1.5-.631,24.581,24.581,0,0,0,.157-2.757,9.7,9.7,0,0,1-2.284,1.339c-.472,0-.472,16.225-.472,16.225l.235,14.885s-.078,7.246-2.914,9.609l-2.756,2.441s-1.654,2.043-3.623,1.14-1.182-4.054-1.182-4.054Z" transform="translate(-234.148 -8654.88)" fill="#999"/>
      <path id="Trazado_111631" data-name="Trazado 111631" d="M329.829,8749.771a1.23,1.23,0,0,1-.868-.425c-.809-.852-1.054-2.786-.732-5.749.615-5.637-1.754-16.963-1.779-17.077l.888-.187c.1.47,2.423,11.582,1.792,17.364-.418,3.821.243,4.826.559,5.083.429-.708,1.792-3.917,1.792-16.158a86.837,86.837,0,0,0-5.01-29.914l.847-.321a87.738,87.738,0,0,1,5.07,30.235c0,14.917-2.048,16.885-2.281,17.058l-.109.084-.135.007Z" transform="translate(-245.269 -8645.016)" fill="#999"/>
      <path id="Trazado_111632" data-name="Trazado 111632" d="M324.209,8714.451a.86.86,0,0,1-.205-.024c-1.324-.306-2.083-1.929-2.083-4.457,0-2.44.38-5.814.395-5.958l.9.1c0,.035-.39,3.469-.39,5.856,0,2.038.517,3.377,1.382,3.576.273-.044.827-1.3,1.106-2.793l.891.166c-.086.458-.557,2.771-1.466,3.365A.952.952,0,0,1,324.209,8714.451Z" transform="translate(-246.21 -8644.678)" fill="#999"/>
      <path id="Trazado_111633" data-name="Trazado 111633" d="M339.269,8750.086c-.176-.889-4.339-21.824-4.419-25.992-.058-3.055-1.3-12.09-2.129-18.066-.287-2.1-.521-3.783-.623-4.65l.9-.105c.1.863.335,2.545.623,4.633.827,6,2.077,15.064,2.136,18.174.078,4.086,4.36,25.615,4.4,25.832Z" transform="translate(-244.097 -8645.247)" fill="#999"/>
      <path id="Trazado_111634" data-name="Trazado 111634" d="M347.214,8742.408a80.624,80.624,0,0,1-8.88-23.225c-2.65-12.933-3.617-18.7-3.627-18.76l.894-.148c.01.057.975,5.814,3.621,18.728a79.655,79.655,0,0,0,8.763,22.931Z" transform="translate(-243.555 -8645.454)" fill="#999"/>
      <path id="Trazado_111635" data-name="Trazado 111635" d="M349.932,8725.376c-.091-.223-9.135-22.386-13.308-26.175l.609-.67c4.326,3.927,13.164,25.583,13.539,26.5Z" transform="translate(-243.157 -8645.816)" fill="#999"/>
      <path id="Trazado_111636" data-name="Trazado 111636" d="M344.388,8719.965c-1.363,0-3.514-4.977-4.675-7.945l-3.2-12.4.877-.227,3.185,12.35c1.315,3.354,3.182,7.129,3.838,7.318.292-.26.244-2.525-.153-4.746l.891-.16c.187,1.039.731,4.508-.086,5.484A.854.854,0,0,1,344.388,8719.965Z" transform="translate(-243.18 -8645.637)" fill="#999"/>
      <path id="Trazado_111637" data-name="Trazado 111637" d="M344.99,8704.3c0-.027-.483-2.93-4.808-7.307l.644-.637c4.568,4.621,5.043,7.688,5.061,7.818l-.9.123.448-.061Z" transform="translate(-242.418 -8646.267)" fill="#999"/>
      <g id="Grupo_56969" data-name="Grupo 56969" transform="translate(152.354 50.089)">
        <path id="Trazado_111638" data-name="Trazado 111638" d="M404.917,8749.771h-.033l-.135-.007-.109-.084c-.233-.173-2.281-2.141-2.281-17.058a87.663,87.663,0,0,1,5.07-30.235l.847.321a86.773,86.773,0,0,0-5.01,29.914c0,12.2,1.355,15.431,1.8,16.163.3-.25.969-1.243.548-5.088-.63-5.782,1.693-16.895,1.792-17.364l.888.188c-.025.114-2.394,11.44-1.779,17.077.324,2.963.077,4.9-.731,5.749A1.234,1.234,0,0,1,404.917,8749.771Z" transform="translate(-381.862 -8695.104)" fill="#999"/>
        <path id="Trazado_111639" data-name="Trazado 111639" d="M410.252,8714.451a.958.958,0,0,1-.53-.167c-.909-.595-1.38-2.907-1.466-3.365l.891-.166c.279,1.494.833,2.749,1.106,2.793.865-.2,1.382-1.538,1.382-3.576,0-2.39-.386-5.82-.391-5.856l.9-.1c.016.143.4,3.518.4,5.958,0,2.528-.76,4.151-2.084,4.457A.8.8,0,0,1,410.252,8714.451Z" transform="translate(-380.637 -8694.767)" fill="#999"/>
        <path id="Trazado_111640" data-name="Trazado 111640" d="M395.842,8750.086l-.89-.176c.045-.217,4.325-21.746,4.4-25.832.059-3.109,1.309-12.176,2.136-18.174.289-2.088.519-3.77.623-4.633l.9.105c-.1.867-.336,2.555-.623,4.65-.826,5.977-2.071,15.012-2.129,18.066C400.181,8728.262,396.018,8749.2,395.842,8750.086Z" transform="translate(-383.4 -8695.336)" fill="#999"/>
        <path id="Trazado_111641" data-name="Trazado 111641" d="M388.793,8742.408l-.77-.475A79.731,79.731,0,0,0,396.787,8719c2.645-12.913,3.61-18.671,3.619-18.728l.894.148c-.01.057-.977,5.827-3.627,18.76A80.626,80.626,0,0,1,388.793,8742.408Z" transform="translate(-384.838 -8695.543)" fill="#999"/>
        <path id="Trazado_111642" data-name="Trazado 111642" d="M386.225,8725.376l-.839-.342c.376-.92,9.213-22.576,13.538-26.5l.609.67C395.36,8702.99,386.316,8725.153,386.225,8725.376Z" transform="translate(-385.386 -8695.905)" fill="#999"/>
        <path id="Trazado_111643" data-name="Trazado 111643" d="M390.881,8719.965a.855.855,0,0,1-.675-.322c-.816-.977-.272-4.447-.086-5.486l.891.16c-.4,2.221-.446,4.486-.1,4.756.6-.2,2.471-3.975,3.8-7.381l3.166-12.3.877.227-3.183,12.348C394.4,8714.988,392.247,8719.965,390.881,8719.965Z" transform="translate(-384.476 -8695.726)" fill="#999"/>
        <path id="Trazado_111644" data-name="Trazado 111644" d="M389.715,8704.3l-.9-.125c.017-.131.493-3.2,5.061-7.818l.644.637C390.2,8701.369,389.72,8704.271,389.715,8704.3Z" transform="translate(-384.673 -8696.355)" fill="#999"/>
      </g>
      <path id="Trazado_111645" data-name="Trazado 111645" d="M547.078,8708.765a26.186,26.186,0,0,1-5.212-.476l.2-.885c.085.02,8.521,1.807,16.278-2.012a81.892,81.892,0,0,0,13.115-7.982l6.235-2.894.379.824-6.143,2.837h0a81.315,81.315,0,0,1-13.185,8.027A26.573,26.573,0,0,1,547.078,8708.765Z" transform="translate(-200.541 -8646.649)" fill="#999"/>
      <path id="Trazado_111646" data-name="Trazado 111646" d="M597.042,8766.219l-6.456-8.771a145.131,145.131,0,0,1-15.814-31.78c-6.417-18.311-5.548-28.912-5.537-29.017l.9.081c-.008.1-.853,10.535,5.49,28.636a144.117,144.117,0,0,0,15.7,31.55l5.817,7.906a74.651,74.651,0,0,0,12.929-20.269,302.451,302.451,0,0,0,11.161-30.021,68.283,68.283,0,0,0,2.506-16.109h.906a69.2,69.2,0,0,1-2.536,16.34,303.9,303.9,0,0,1-11.206,30.151,74.114,74.114,0,0,1-13.483,20.932Z" transform="translate(-194.867 -8646.207)" fill="#999"/>
      <path id="Trazado_111647" data-name="Trazado 111647" d="M558.433,8839.37l-.863-.272c.729-2.292,3.431-5.148,4.107-5.838l-.72-8.929c-.016-.125-1.684-14.237-2-19.715a45.657,45.657,0,0,0-1.947-10.346c-.483-.6-3.623-4.806-5.5-14.1a34.947,34.947,0,0,1,1.5-18.432c.2-.645,5.282-16.761,8.207-22.3,2.851-5.4,2.369-21.145,2.363-21.3l.63-17.254.906.034-.63,17.221c.021.626.5,16.116-2.468,21.723-2.887,5.467-8.106,22.021-8.159,22.188a34.027,34.027,0,0,0-1.459,17.941c1.943,9.616,5.331,13.724,5.363,13.764l.085.148a46.589,46.589,0,0,1,2.017,10.658c.312,5.45,1.976,19.535,1.993,19.677l.755,9.362-.15.149C562.43,8833.784,559.181,8837.016,558.433,8839.37Z" transform="translate(-198.667 -8645.327)" fill="#999"/>
      <path id="Trazado_111648" data-name="Trazado 111648" d="M551.87,8941.356a7.29,7.29,0,0,1-3-1.249l-.217-.142.085-2.008a.721.721,0,0,1-.38.222,3.331,3.331,0,0,1-2.287-.384l.5-.757a2.437,2.437,0,0,0,1.625.249c.318-.257.6-2.165.761-4.411l.129-3.039.906.023c-.017,1.162-.059,2.4-.151,3.553l-.259,6.071a5.433,5.433,0,0,0,2.367.958c.337-.185,1.149-2.08,1.758-4.145l.122-9.59,3.331,5c1.6,2.174,4.666,5.4,6.03,4.681,1.7-.891,1.071-3.851.947-4.368l-2.781-3.784-7.864-9.751.683-.591,9.661,10.4c1.867,1.346,5.423,3.422,6.731,3.035a.553.553,0,0,0,.389-.366c.828-2.211-2.269-5.151-2.3-5.182l-6.676-7.269-4.971-7.52,1.805,1.161c.115.072,1.208.684,2.47-.664,1.129-1.2.32-4-.087-4.976a75.363,75.363,0,0,0-3.8-7.2c-.686-.667-1.782-4.913-2.1-6.2l-.115-.461.269-.053a13.444,13.444,0,0,0-.06-3.963,13.914,13.914,0,0,0-2.833-6.994,72.056,72.056,0,0,0-5.617-7.193c-1.368-1.141-1.073-6.727-1-7.834l2.629-17.992,3.994-19.35c-.011-.051-.222-14.8-.621-16.94-.438-2.368-.009-4.728,1-5.486.426-.321,1-2.711,1.295-4.743l2.1-24.966.9.075-2.1,24.991c-.157,1.105-.731,4.677-1.651,5.366-.624.47-1.048,2.475-.655,4.6.411,2.216.618,16.584.627,17.2l-4,19.42-2.62,17.93c-.164,2.529-.065,6.421.682,7.041,1.289,1.077,5.567,7.077,5.748,7.332a14.566,14.566,0,0,1,3.021,7.464c.291,2.965.159,4.114-.058,4.574a27.288,27.288,0,0,0,1.8,5.541c.669.653,3.444,6.345,3.994,7.48.08.188,1.679,4.094-.077,5.968a3.214,3.214,0,0,1-2.359,1.141l3.1,4.7,6.608,7.189c.122.113,3.543,3.364,2.506,6.137a1.456,1.456,0,0,1-.978.914c-2.154.658-7.039-2.828-7.589-3.227l-1.069-1.15,2.821,3.889c.047.169,1.12,4.178-1.38,5.486-2.478,1.3-6.717-4.319-7.192-4.964l-1.721-2.58-.1,6.85c-.5,1.7-1.477,4.59-2.426,4.828A1.2,1.2,0,0,1,551.87,8941.356Z" transform="translate(-199.712 -8629.496)" fill="#999"/>
      <path id="Trazado_111649" data-name="Trazado 111649" d="M599.767,8818.326c-3.7,0-8.421-.018-14.274-.07-17.711-.156-25.136-6.459-25.443-6.727l.594-.684c.074.063,7.518,6.352,24.856,6.5,17.54.158,24.908,0,24.981,0,.158-.023,21.035-2.918,27.594-7.068l.484.764c-6.726,4.26-27.143,7.09-28.009,7.207C610.469,8818.256,607.16,8818.326,599.767,8818.326Z" transform="translate(-196.765 -8622.612)" fill="#999"/>
      <path id="Trazado_111650" data-name="Trazado 111650" d="M576.53,8787.645l-.807-.413c.082-.158,8.286-16.016,18.435-22.387l.481.768C584.7,8771.851,576.609,8787.487,576.53,8787.645Z" transform="translate(-193.511 -8632.047)" fill="#999"/>
      <path id="Trazado_111651" data-name="Trazado 111651" d="M595.4,8831.056l-.522-74.749c-4.161-2.556-17.909-8.6-18.051-8.657l.364-.83c.589.258,14.436,6.345,18.382,8.854l.209.131v.248l.523,75Z" transform="translate(-193.282 -8635.79)" fill="#999"/>
      <path id="Trazado_111652" data-name="Trazado 111652" d="M594.277,8759.624c-2.528-4.473-14.024-5.4-14.14-5.411l.069-.9c.493.038,12.094.977,14.859,5.868Z" transform="translate(-192.594 -8634.442)" fill="#999"/>
      <path id="Trazado_111653" data-name="Trazado 111653" d="M594.725,8760.813c-5.774-2.676-17.35-2.1-17.467-2.1l-.047-.9c.484-.025,11.916-.59,17.895,2.182Z" transform="translate(-193.202 -8633.521)" fill="#999"/>
      <path id="Trazado_111654" data-name="Trazado 111654" d="M594.4,8766.234c-5.6-5.072-17.228-3.449-17.345-3.433l-.13-.9c.493-.071,12.165-1.7,18.084,3.655Z" transform="translate(-193.262 -8632.717)" fill="#999"/>
      <path id="Trazado_111655" data-name="Trazado 111655" d="M593,8765.475l-.712-.559c3.992-5.1,17.292-4,17.854-3.951l-.078.9C609.927,8761.854,596.689,8760.764,593,8765.475Z" transform="translate(-190.072 -8632.88)" fill="#999"/>
      <path id="Trazado_111656" data-name="Trazado 111656" d="M603.121,8771.157c-.066-.061-6.65-6.137-10.492-5.789l-.087-.9c4.2-.4,10.91,5.763,11.195,6.024Z" transform="translate(-190.018 -8632.13)" fill="#999"/>
      <path id="Trazado_111657" data-name="Trazado 111657" d="M601.355,8778.482c-.023-.1-2.222-10-8.923-12.832l.354-.833c7.137,3.018,9.363,13.05,9.453,13.475Z" transform="translate(-190.041 -8632.053)" fill="#999"/>
      <path id="Trazado_111658" data-name="Trazado 111658" d="M592.495,8761.058l-.534-.729c4.789-3.494,16.316-5.06,16.8-5.124l.121.9C608.768,8756.118,597.1,8757.7,592.495,8761.058Z" transform="translate(-190.139 -8634.049)" fill="#999"/>
      <path id="Trazado_111659" data-name="Trazado 111659" d="M592.5,8759.688l-.557-.716c4.236-3.289,14.023-5.248,14.439-5.332l.174.891C606.455,8754.549,596.565,8756.53,592.5,8759.688Z" transform="translate(-190.143 -8634.372)" fill="#999"/>
      <path id="Trazado_111660" data-name="Trazado 111660" d="M592.27,8756.674l-.213-.881a38.661,38.661,0,0,0,18.721-11.349l.7.579A39.614,39.614,0,0,1,592.27,8756.674Z" transform="translate(-190.119 -8636.283)" fill="#999"/>
      <path id="Trazado_111661" data-name="Trazado 111661" d="M626.981,8743.3c-5.384-8.231-3.464-26.61-3.379-27.39l-1.418-14.084.9-.088,1.418,14.176c-.021.281-1.97,18.931,3.235,26.891Z" transform="translate(-183.863 -8645.151)" fill="#999"/>
      <path id="Trazado_111662" data-name="Trazado 111662" d="M632.531,8746.191a1.112,1.112,0,0,1-.7-.262c-1.669-1.336-1.484-8.545-1.43-9.979l.906.033c-.118,3.141.072,8.424,1.091,9.238.1.082.142.068.174.055.548-.211,1.71-2.062,3.322-12.09.138-.854.169-1.047.2-1.145l.859.289c-.021.084-.077.449-.165,1-1.357,8.436-2.522,12.262-3.892,12.791A1.015,1.015,0,0,1,632.531,8746.191Z" transform="translate(-182.164 -8638.856)" fill="#999"/>
      <path id="Trazado_111663" data-name="Trazado 111663" d="M680.844,8787.417l-17.17-18.212-16.2-15.162c-.1-.1-7.995-8.36-14.32-7.914l-.064-.9c6.7-.509,14.687,7.821,15.023,8.176l16.2,15.164,17.19,18.229Z" transform="translate(-181.6 -8636.124)" fill="#999"/>
      <path id="Trazado_111664" data-name="Trazado 111664" d="M650.994,8828.871l-.894-.148c1.879-11.276,12.377-32.984,12.483-33.2l.814.4C663.292,8796.134,652.85,8817.725,650.994,8828.871Z" transform="translate(-178.067 -8625.678)" fill="#999"/>
      <path id="Trazado_111665" data-name="Trazado 111665" d="M635.637,8824.907l-.285-.858c7.533-2.513,22.186-3.148,22.806-3.174l.037.905C658.045,8821.786,643.051,8822.437,635.637,8824.907Z" transform="translate(-181.129 -8620.413)" fill="#999"/>
      <path id="Trazado_111666" data-name="Trazado 111666" d="M642.952,8860.788l-.3-.854,9.294-3.308c.025-.014,6.114-2.819,8.549-7.8a47.435,47.435,0,0,1,7.5-10.355c.546-.752,14.37-19.568,19.07-24.111,4.616-4.462,10.874-16.92,10.938-17.046l6.613-13.543a9.484,9.484,0,0,0,1.1-3,2.052,2.052,0,0,1-.174-.655c-.162-.939-.5-2.9-3.647-5.562-4.085-3.458-9.817-11.015-10.058-11.336l-7.9-6.619-8.555-9.655-2.159-1.85.589-.685,2.205,1.89,8.551,9.652,7.917,6.647c.129.151,5.983,7.871,9.992,11.264,3.4,2.876,3.774,5.054,3.954,6.1a2.8,2.8,0,0,0,.086.4c.359.63-.395,2.42-1.092,3.813l-6.613,13.544c-.261.519-6.392,12.727-11.119,17.295-4.645,4.489-18.867,23.849-19.01,24.043a47.907,47.907,0,0,0-7.379,10.168c-2.579,5.285-8.763,8.128-9.025,8.249Z" transform="translate(-179.614 -8636.292)" fill="#999"/>
      <path id="Trazado_111667" data-name="Trazado 111667" d="M616.224,8703.254c-10.337-2.831-9.27-11.44-9.257-11.527l.617-13.189.906.042-.622,13.231c-.047.361-.959,7.954,8.594,10.571Z" transform="translate(-187.031 -8649.968)" fill="#999"/>
      <path id="Trazado_111668" data-name="Trazado 111668" d="M628.187,8682.258l5.513-10.632,2.6-6.222s1.811-3.467,1.339-3.938a4.74,4.74,0,0,0-2.048-.629s-2.047-.632-2.638.944-2.323,6.379-2.323,6.379l-4.175,9.137s-1.418,4.883-3.623,5.828-2.835,1.338-5.513,1.338a70.246,70.246,0,0,1-8.979-1.259v1.812l6.458,1.182s4.725,1.574,8.23,0A13.3,13.3,0,0,0,628.187,8682.258Z" transform="translate(-186.738 -8653.669)" fill="#999"/>
      <path id="Trazado_111669" data-name="Trazado 111669" d="M614.447,8697.861s-.63.42-.63-1.1a6.279,6.279,0,0,1,.315-2.259s1.156-.84,1.523-.682,2.52-.211,6.353,2.521,8.033,5.355,8.033,5.355l3.218.262,6.706,2.311s8.4,1.522,12.023,5.776,14.545,16.224,14.545,16.224l9.4,12.969,5.566,10.555s3.675,3.308,1.154,5.46c0,0-2.782,1.365-4.567,0s-7.771-11.762-7.771-11.762l-8.3-11.787-6.038-8.952-4.672-6.983s-5.251-6.2-10.133-7.613-13.914-4.1-13.914-4.1l-6.038-3.675s-5.2-2.521-5.986-2.521Z" transform="translate(-185.601 -8646.799)" fill="#999"/>
      <path id="Trazado_111670" data-name="Trazado 111670" d="M649.786,8877.129s2.909,29.72-5.281,54.922c0,0,2.362-38.591-2.52-60.8a178.875,178.875,0,0,0-15.279-41.393,15.2,15.2,0,0,1-1.366-6.283c-.157-4.095,2.258-25.728,2.258-25.728s.525-13.231,5.67-18.482a27.712,27.712,0,0,0,2.679-7.665c.577-3.781-1.156-14.807-3.413-20.216s-7.2-16.276-7.2-16.276,11.453,12.181,13.974,18.8,2.258,14.7.84,20.162-4.988,15.752-4.988,15.752-1.681,11.447-1.838,14.544-1.733,16.382-1.733,16.382-.472,7.614.472,8.769,9.5,18.692,9.5,18.692,5.408,11.079,6.721,18.588S649.786,8877.129,649.786,8877.129Z" transform="translate(-183.21 -8638.201)" fill="#999"/>
      <g id="Grupo_56970" data-name="Grupo 56970" transform="translate(78.813 235.729)">
        <path id="Trazado_111671" data-name="Trazado 111671" d="M324.489,8850.367a17.278,17.278,0,0,1,2.941-.217,4.889,4.889,0,0,1,3.157.781,2.444,2.444,0,0,1,.913,2.043,2.582,2.582,0,0,1-1.725,2.389v.045a2.435,2.435,0,0,1,1.305,1.811c.3,1.113.593,2.391.781,2.766H329.6a13.129,13.129,0,0,1-.667-2.273c-.274-1.232-.7-1.549-1.607-1.564h-.652v3.838h-2.187Zm2.187,4.188h.87c1.1,0,1.752-.551,1.752-1.406,0-.883-.609-1.348-1.623-1.348a4.423,4.423,0,0,0-1,.072Z" transform="translate(-324.489 -8850.063)"/>
        <path id="Trazado_111672" data-name="Trazado 111672" d="M337.41,8855.845h-3.59v2.317h4.012v1.811h-6.214v-9.763h6.012v1.812H333.82v2.026h3.59Z" transform="translate(-323.009 -8850.051)"/>
        <path id="Trazado_111673" data-name="Trazado 111673" d="M345.244,8859.722a6.509,6.509,0,0,1-2.491.42c-3.374,0-5.112-2.114-5.112-4.895,0-3.318,2.375-5.156,5.329-5.156a6.045,6.045,0,0,1,2.4.42l-.464,1.751a4.662,4.662,0,0,0-1.854-.361,3.2,3.2,0,0,0,.014,6.4,5.226,5.226,0,0,0,1.854-.317Z" transform="translate(-321.758 -8850.075)"/>
        <path id="Trazado_111674" data-name="Trazado 111674" d="M349.012,8860.158c-2.883,0-4.591-2.186-4.591-4.968,0-2.926,1.883-5.112,4.751-5.112,3,0,4.635,2.244,4.635,4.939,0,3.216-1.926,5.141-4.78,5.141Zm.116-1.753c1.491,0,2.346-1.4,2.346-3.316,0-1.751-.826-3.258-2.346-3.258s-2.375,1.478-2.375,3.3c0,1.84.883,3.272,2.361,3.272Z" transform="translate(-320.35 -8850.078)"/>
        <path id="Trazado_111675" data-name="Trazado 111675" d="M361.628,8859.541a10.9,10.9,0,0,1-3.259.551,5.5,5.5,0,0,1-3.968-1.3,4.893,4.893,0,0,1-1.376-3.564c.013-3.243,2.374-5.1,5.576-5.1a7.081,7.081,0,0,1,2.709.463l-.464,1.783a5.1,5.1,0,0,0-2.26-.422,3.181,3.181,0,0,0-.159,6.359,3.43,3.43,0,0,0,1.072-.13v-2.058h-1.507V8854.4h3.636Z" transform="translate(-318.564 -8850.068)"/>
        <path id="Trazado_111676" data-name="Trazado 111676" d="M363.794,8850.21v9.763h-2.2v-9.763Z" transform="translate(-316.785 -8850.051)"/>
        <path id="Trazado_111677" data-name="Trazado 111677" d="M365,8850.367a17.811,17.811,0,0,1,2.968-.217,6.37,6.37,0,0,1,4.012,1.041,4.3,4.3,0,0,1,1.652,3.68,5,5,0,0,1-1.607,3.955,7.064,7.064,0,0,1-4.52,1.26,18.969,18.969,0,0,1-2.5-.145Zm2.2,7.953a4.395,4.395,0,0,0,.768.041c2.013.016,3.332-1.086,3.332-3.418a2.821,2.821,0,0,0-3.1-3.1,4.731,4.731,0,0,0-1,.088Z" transform="translate(-316.077 -8850.063)"/>
        <path id="Trazado_111678" data-name="Trazado 111678" d="M377.571,8860.158c-2.881,0-4.59-2.186-4.59-4.968,0-2.926,1.882-5.112,4.75-5.112,3,0,4.635,2.244,4.635,4.939,0,3.216-1.926,5.141-4.78,5.141Zm.116-1.753c1.493,0,2.348-1.4,2.348-3.316,0-1.751-.826-3.258-2.348-3.258s-2.375,1.478-2.375,3.3c0,1.84.884,3.272,2.361,3.272Z" transform="translate(-314.42 -8850.078)"/>
        <path id="Trazado_111679" data-name="Trazado 111679" d="M382.094,8857.724a5.58,5.58,0,0,0,2.448.608c1.013,0,1.549-.42,1.549-1.059,0-.608-.463-.955-1.636-1.36-1.623-.582-2.694-1.478-2.694-2.9,0-1.665,1.406-2.923,3.693-2.923a5.719,5.719,0,0,1,2.493.491l-.494,1.769a4.525,4.525,0,0,0-2.026-.465c-.956,0-1.42.449-1.42.942,0,.622.536.9,1.81,1.376,1.725.637,2.52,1.533,2.52,2.91,0,1.636-1.245,3.027-3.925,3.027a6.36,6.36,0,0,1-2.767-.608Z" transform="translate(-312.621 -8850.075)"/>
        <path id="Trazado_111680" data-name="Trazado 111680" d="M396.665,8855.845h-3.59v2.317h4.011v1.811h-6.213v-9.763h6.012v1.812h-3.809v2.026h3.59Z" transform="translate(-310.705 -8850.051)"/>
        <path id="Trazado_111681" data-name="Trazado 111681" d="M397.269,8859.973v-9.763h2.578l2.026,3.578a30.789,30.789,0,0,1,1.594,3.346h.028a40.622,40.622,0,0,1-.174-4.085v-2.839h2.028v9.763h-2.316l-2.086-3.767a34.867,34.867,0,0,1-1.7-3.446H399.2c.071,1.3.1,2.68.1,4.272v2.94Z" transform="translate(-309.377 -8850.051)"/>
        <path id="Trazado_111682" data-name="Trazado 111682" d="M326.7,8864.61v3.766h3.635v-3.766h2.2v9.763h-2.2v-4.07H326.7v4.07h-2.2v-9.763Z" transform="translate(-324.487 -8847.061)"/>
        <path id="Trazado_111683" data-name="Trazado 111683" d="M336.976,8874.56c-2.883,0-4.591-2.187-4.591-4.968,0-2.926,1.883-5.114,4.751-5.114,3,0,4.634,2.246,4.634,4.939,0,3.217-1.925,5.143-4.78,5.143Zm.115-1.753c1.493,0,2.348-1.4,2.348-3.316,0-1.753-.826-3.261-2.348-3.261s-2.374,1.479-2.374,3.3.883,3.272,2.361,3.272Z" transform="translate(-322.849 -8847.088)"/>
        <path id="Trazado_111684" data-name="Trazado 111684" d="M349.655,8870.635c-.045-1.172-.088-2.577-.088-4.01h-.028c-.32,1.244-.725,2.636-1.1,3.779l-1.188,3.808h-1.722l-1.045-3.779c-.318-1.144-.636-2.521-.883-3.808h-.029c-.043,1.316-.1,2.823-.158,4.04l-.19,3.708h-2.042l.623-9.763h2.941l.955,3.259c.319,1.131.609,2.347.826,3.491h.058c.26-1.131.594-2.418.926-3.506l1.029-3.244h2.9l.523,9.763h-2.145Z" transform="translate(-321.023 -8847.061)"/>
        <path id="Trazado_111685" data-name="Trazado 111685" d="M351.513,8864.768a17.1,17.1,0,0,1,2.852-.218,5.4,5.4,0,0,1,2.883.552,2.118,2.118,0,0,1,1.158,1.925,2.219,2.219,0,0,1-1.593,2.072v.029a2.431,2.431,0,0,1,1.941,2.4,2.559,2.559,0,0,1-1.014,2.071,6.166,6.166,0,0,1-3.838.884,17.056,17.056,0,0,1-2.389-.146Zm2.186,3.724h.725c1.174,0,1.782-.479,1.782-1.2s-.565-1.13-1.565-1.13a4.094,4.094,0,0,0-.942.073Zm0,4.33a4.825,4.825,0,0,0,.855.042c1,0,1.883-.39,1.883-1.419,0-.983-.883-1.375-1.983-1.375H353.7Z" transform="translate(-318.878 -8847.073)"/>
        <path id="Trazado_111686" data-name="Trazado 111686" d="M358.761,8864.768a17.456,17.456,0,0,1,2.941-.218,4.882,4.882,0,0,1,3.157.783,2.443,2.443,0,0,1,.913,2.041,2.585,2.585,0,0,1-1.725,2.391v.044a2.438,2.438,0,0,1,1.3,1.811c.3,1.115.593,2.39.781,2.767h-2.26a13.045,13.045,0,0,1-.665-2.275c-.275-1.229-.7-1.548-1.607-1.564h-.652v3.84h-2.187Zm2.187,4.188h.868c1.1,0,1.752-.551,1.752-1.406,0-.885-.607-1.347-1.622-1.347a4.579,4.579,0,0,0-1,.07Z" transform="translate(-317.373 -8847.073)"/>
        <path id="Trazado_111687" data-name="Trazado 111687" d="M370.048,8874.56c-2.883,0-4.591-2.187-4.591-4.968,0-2.926,1.883-5.114,4.751-5.114,3,0,4.635,2.246,4.635,4.939,0,3.217-1.926,5.143-4.78,5.143Zm.116-1.753c1.491,0,2.346-1.4,2.346-3.316,0-1.753-.826-3.261-2.346-3.261s-2.375,1.479-2.375,3.3.883,3.272,2.361,3.272Z" transform="translate(-315.982 -8847.088)"/>
        <path id="Trazado_111688" data-name="Trazado 111688" d="M374.569,8872.122a5.557,5.557,0,0,0,2.448.61c1.014,0,1.551-.422,1.551-1.059,0-.609-.464-.955-1.636-1.362-1.623-.578-2.7-1.477-2.7-2.9,0-1.665,1.406-2.924,3.694-2.924a5.728,5.728,0,0,1,2.491.491l-.493,1.768a4.556,4.556,0,0,0-2.028-.466c-.956,0-1.42.449-1.42.943,0,.623.536.9,1.81,1.377,1.725.636,2.52,1.534,2.52,2.909,0,1.638-1.245,3.028-3.925,3.028a6.377,6.377,0,0,1-2.767-.609Z" transform="translate(-314.184 -8847.085)"/>
      </g>
      <g id="Grupo_56971" data-name="Grupo 56971" transform="translate(363.173 224.308)">
        <path id="Trazado_111689" data-name="Trazado 111689" d="M559.957,8840.91a17.27,17.27,0,0,1,2.941-.217,4.889,4.889,0,0,1,3.157.781,2.447,2.447,0,0,1,.913,2.043,2.583,2.583,0,0,1-1.725,2.388v.045a2.435,2.435,0,0,1,1.3,1.811c.3,1.114.594,2.391.783,2.767h-2.26a13.029,13.029,0,0,1-.667-2.273c-.275-1.232-.7-1.55-1.607-1.565h-.652v3.839h-2.187Zm2.187,4.187h.869c1.1,0,1.752-.552,1.752-1.407,0-.882-.609-1.347-1.623-1.347a4.4,4.4,0,0,0-1,.073Z" transform="translate(-559.957 -8840.606)"/>
        <path id="Trazado_111690" data-name="Trazado 111690" d="M572.878,8846.388h-3.591v2.317H573.3v1.811h-6.214v-9.763H573.1v1.812h-3.81v2.026h3.591Z" transform="translate(-558.477 -8840.594)"/>
        <path id="Trazado_111691" data-name="Trazado 111691" d="M580.712,8850.266a6.514,6.514,0,0,1-2.491.42c-3.374,0-5.112-2.115-5.112-4.9,0-3.317,2.374-5.157,5.329-5.157a6.059,6.059,0,0,1,2.4.421l-.464,1.751a4.664,4.664,0,0,0-1.854-.36,3.2,3.2,0,0,0,.015,6.4,5.248,5.248,0,0,0,1.854-.317Z" transform="translate(-557.226 -8840.619)"/>
        <path id="Trazado_111692" data-name="Trazado 111692" d="M584.48,8850.7c-2.883,0-4.591-2.186-4.591-4.966,0-2.928,1.883-5.114,4.751-5.114,3,0,4.634,2.246,4.634,4.939,0,3.216-1.925,5.141-4.78,5.141Zm.115-1.753c1.493,0,2.348-1.4,2.348-3.314,0-1.753-.826-3.26-2.348-3.26s-2.374,1.478-2.374,3.3c0,1.84.883,3.272,2.361,3.272Z" transform="translate(-555.818 -8840.621)"/>
        <path id="Trazado_111693" data-name="Trazado 111693" d="M597.1,8850.084a10.887,10.887,0,0,1-3.258.551,5.494,5.494,0,0,1-3.968-1.3,4.894,4.894,0,0,1-1.377-3.564c.015-3.242,2.375-5.1,5.577-5.1a7.106,7.106,0,0,1,2.709.463l-.464,1.783a5.117,5.117,0,0,0-2.259-.42,3.18,3.18,0,0,0-.159,6.357,3.414,3.414,0,0,0,1.072-.129v-2.059H593.46v-1.723H597.1Z" transform="translate(-554.032 -8840.61)"/>
        <path id="Trazado_111694" data-name="Trazado 111694" d="M599.262,8840.753v9.763h-2.2v-9.763Z" transform="translate(-552.253 -8840.594)"/>
        <path id="Trazado_111695" data-name="Trazado 111695" d="M600.469,8840.91a17.706,17.706,0,0,1,2.968-.217,6.37,6.37,0,0,1,4.012,1.041,4.3,4.3,0,0,1,1.651,3.68,4.993,4.993,0,0,1-1.607,3.955,7.052,7.052,0,0,1-4.519,1.26,18.539,18.539,0,0,1-2.5-.146Zm2.2,7.952a4.294,4.294,0,0,0,.768.042c2.013.016,3.332-1.087,3.332-3.417a2.822,2.822,0,0,0-3.1-3.1,4.726,4.726,0,0,0-1,.088Z" transform="translate(-551.545 -8840.606)"/>
        <path id="Trazado_111696" data-name="Trazado 111696" d="M613.039,8850.7c-2.881,0-4.591-2.186-4.591-4.966,0-2.928,1.883-5.114,4.751-5.114,3,0,4.635,2.246,4.635,4.939,0,3.216-1.926,5.141-4.78,5.141Zm.116-1.753c1.491,0,2.346-1.4,2.346-3.314,0-1.753-.825-3.26-2.346-3.26s-2.375,1.478-2.375,3.3c0,1.84.884,3.272,2.361,3.272Z" transform="translate(-549.888 -8840.621)"/>
        <path id="Trazado_111697" data-name="Trazado 111697" d="M617.562,8848.267a5.58,5.58,0,0,0,2.448.608c1.013,0,1.549-.42,1.549-1.058,0-.608-.464-.956-1.636-1.361-1.623-.581-2.694-1.478-2.694-2.9,0-1.666,1.4-2.925,3.693-2.925a5.706,5.706,0,0,1,2.491.493l-.493,1.768a4.527,4.527,0,0,0-2.028-.465c-.956,0-1.419.449-1.419.942,0,.623.536.9,1.81,1.376,1.723.637,2.52,1.533,2.52,2.911,0,1.636-1.246,3.027-3.925,3.027a6.374,6.374,0,0,1-2.767-.608Z" transform="translate(-548.089 -8840.619)"/>
        <path id="Trazado_111698" data-name="Trazado 111698" d="M565.762,8860.788h-3.592v2.317h4.012v1.811h-6.213v-9.763h6.012v1.812h-3.81v2.027h3.592Z" transform="translate(-559.954 -8837.604)"/>
        <path id="Trazado_111699" data-name="Trazado 111699" d="M566.365,8864.916v-9.763h2.578l2.028,3.578a30.9,30.9,0,0,1,1.593,3.345h.029a40.255,40.255,0,0,1-.174-4.083v-2.84h2.028v9.763H572.13l-2.087-3.766a34.844,34.844,0,0,1-1.694-3.448h-.058c.073,1.3.1,2.681.1,4.272v2.941Z" transform="translate(-558.626 -8837.604)"/>
        <path id="Trazado_111700" data-name="Trazado 111700" d="M584.3,8864.664a6.439,6.439,0,0,1-2.49.421c-3.374,0-5.112-2.114-5.112-4.9,0-3.317,2.374-5.154,5.329-5.154a6.027,6.027,0,0,1,2.4.42l-.464,1.752a4.627,4.627,0,0,0-1.854-.361,3.2,3.2,0,0,0,.014,6.4,5.268,5.268,0,0,0,1.854-.318Z" transform="translate(-556.481 -8837.628)"/>
        <path id="Trazado_111701" data-name="Trazado 111701" d="M590.014,8860.788h-3.592v2.317h4.011v1.811h-6.212v-9.763h6.01v1.812h-3.809v2.027h3.592Z" transform="translate(-554.919 -8837.604)"/>
        <path id="Trazado_111702" data-name="Trazado 111702" d="M590.616,8864.916v-9.763h2.578l2.028,3.578a30.9,30.9,0,0,1,1.593,3.345h.03a39.872,39.872,0,0,1-.175-4.083v-2.84H598.7v9.763H596.38l-2.086-3.766a34.871,34.871,0,0,1-1.694-3.448h-.058c.072,1.3.1,2.681.1,4.272v2.941Z" transform="translate(-553.591 -8837.604)"/>
        <path id="Trazado_111703" data-name="Trazado 111703" d="M600.92,8857.008h-2.636v-1.854h7.5v1.854h-2.665v7.908h-2.2Z" transform="translate(-551.999 -8837.604)"/>
        <path id="Trazado_111704" data-name="Trazado 111704" d="M605.473,8855.312a17.333,17.333,0,0,1,2.939-.219,4.889,4.889,0,0,1,3.158.783,2.448,2.448,0,0,1,.913,2.042,2.584,2.584,0,0,1-1.725,2.39v.044a2.436,2.436,0,0,1,1.3,1.811c.3,1.115.593,2.39.781,2.767h-2.26a13.043,13.043,0,0,1-.665-2.275c-.275-1.229-.7-1.548-1.609-1.564h-.652v3.84h-2.186Zm2.186,4.187h.869c1.1,0,1.752-.551,1.752-1.406,0-.884-.609-1.347-1.622-1.347a4.512,4.512,0,0,0-1,.071Z" transform="translate(-550.506 -8837.616)"/>
        <path id="Trazado_111705" data-name="Trazado 111705" d="M616.759,8865.1c-2.883,0-4.591-2.187-4.591-4.968,0-2.926,1.883-5.113,4.751-5.113,3,0,4.635,2.245,4.635,4.939,0,3.216-1.926,5.142-4.78,5.142Zm.116-1.753c1.491,0,2.346-1.4,2.346-3.315,0-1.754-.826-3.262-2.346-3.262s-2.375,1.479-2.375,3.3.883,3.272,2.361,3.272Z" transform="translate(-549.116 -8837.631)"/>
        <path id="Trazado_111706" data-name="Trazado 111706" d="M559.969,8869.552h5.953v1.811h-3.751v2.231h3.506v1.795h-3.506v3.925h-2.2Z" transform="translate(-559.954 -8834.614)"/>
        <path id="Trazado_111707" data-name="Trazado 111707" d="M566.281,8869.71a17.378,17.378,0,0,1,2.941-.217,4.889,4.889,0,0,1,3.157.781,2.445,2.445,0,0,1,.913,2.043,2.584,2.584,0,0,1-1.724,2.389v.044a2.439,2.439,0,0,1,1.305,1.81c.3,1.116.593,2.392.781,2.767h-2.259a12.989,12.989,0,0,1-.667-2.272c-.274-1.231-.7-1.551-1.607-1.564h-.652v3.837h-2.187Zm2.187,4.186h.87c1.1,0,1.752-.551,1.752-1.405,0-.883-.609-1.346-1.623-1.346a4.285,4.285,0,0,0-1,.073Z" transform="translate(-558.644 -8834.626)"/>
        <path id="Trazado_111708" data-name="Trazado 111708" d="M579.2,8875.187h-3.59v2.317h4.01v1.81h-6.213v-9.762h6.012v1.811h-3.809v2.029h3.59Z" transform="translate(-557.164 -8834.614)"/>
        <path id="Trazado_111709" data-name="Trazado 111709" d="M579.8,8879.313v-9.762h2.578l2.026,3.578a30.8,30.8,0,0,1,1.594,3.347h.028a40.642,40.642,0,0,1-.173-4.084v-2.841h2.026v9.762h-2.316l-2.086-3.766a34.367,34.367,0,0,1-1.694-3.445h-.058c.071,1.3.1,2.679.1,4.272v2.938Z" transform="translate(-555.836 -8834.614)"/>
        <path id="Trazado_111710" data-name="Trazado 111710" d="M590.109,8871.406h-2.636v-1.854h7.5v1.854h-2.665v7.907h-2.2Z" transform="translate(-554.244 -8834.614)"/>
        <path id="Trazado_111711" data-name="Trazado 111711" d="M600.465,8875.187h-3.592v2.317h4.012v1.81h-6.213v-9.762h6.012v1.811h-3.81v2.029h3.592Z" transform="translate(-552.749 -8834.614)"/>
      </g>
    </g>
  </g>
</svg>
